<svg xmlns="http://www.w3.org/2000/svg" viewBox="0 0 29 33"><defs><style>polygon,rect,path{shape-rendering:crispedges;}.eb10-1{fill:#e55b35;}.eb10-2{fill:#000000;}.eb10-3{fill:#316a6d;}.eb10-4{fill:#9b8100;}.eb10-5{fill:#ce8452;}.eb10-6{fill:#90a2a3;}.eb10-7{fill:#4922aa;}.eb10-8{fill:#4922aa;}.eb10-9{fill:#d8be00;}</style></defs><path class="eb10-1" d="M19,16h0v3h0V16Z"/><path class="eb10-1" d="M0,0V33H6V27H7V26H8V25H9V24h1V23h1V22h1V21H11V20H10V19H9V16H8V14H9V12H8v1H7V12H8V11H9V10h1V9h2V8h5V9h2v1h1v1h1v1H20v4h0V14h1v2H20v3H19v1H18v1H17v1h1v1h1v1h1v1h1v1h1v1h1v6h6V0ZM22,13H21V12h1Z"/><rect class="eb10-1" x="14" y="17" width="1"/><path class="eb10-2" d="M23,27H22v6h1V27Z"/><path class="eb10-3" d="M22,27H21v6h1V27Z"/><path class="eb10-2" d="M21,27h1V26H21V25H20v2H17v1h2v1h1v4h1V27Z"/><rect class="eb10-2" x="19" y="24" width="1" height="1"/><path class="eb10-3" d="M20,29H19v1H18v1H17v1H16v1h4V29Z"/><rect class="eb10-2" x="18" y="23" width="1" height="1"/><path class="eb10-3" d="M18,25H17v1H16v5h1V30h1V29h1V28H17V27h2V26h1V25H19V24H18Z"/><rect class="eb10-3" x="17" y="23" width="1" height="1"/><rect class="eb10-2" x="17" y="24" width="1" height="1"/><rect class="eb10-2" x="18" y="29" width="1" height="1"/><rect class="eb10-2" x="16" y="25" width="1" height="1"/><path class="eb10-4" d="M15,27H14v6h1V27Z"/><path class="eb10-2" d="M12,24h1V23h3v1h1V23h1V22H17V21H16v1H13V21H12v1H11v1h1Z"/><path class="eb10-5" d="M17,25V24H16V23H13v1H12v1h1v1h3V25Z"/><rect class="eb10-2" x="12" y="25" width="1" height="1"/><path class="eb10-3" d="M12,32V31H11V30H10V29H9v4h4V32Z"/><rect class="eb10-3" x="11" y="23" width="1" height="1"/><rect class="eb10-2" x="11" y="24" width="1" height="1"/><rect class="eb10-2" x="11" y="30" width="1" height="1"/><rect class="eb10-2" x="10" y="23" width="1" height="1"/><rect class="eb10-2" x="9" y="24" width="1" height="1"/><path class="eb10-3" d="M10,26v1h2v1H10v1h1v1h1v1h1V26H12V25H11V24H10v1H9v1Z"/><path class="eb10-2" d="M9,29h1V28h2V27H9V25H8v1H7v1H8v6H9V29Z"/><path class="eb10-3" d="M8,27H7v6H8V27Z"/><path class="eb10-2" d="M7,27H6v6H7V27Z"/><rect class="eb10-2" x="10" y="29" width="1" height="1"/><rect class="eb10-2" x="17" y="30" width="1" height="1"/><path class="eb10-2" d="M17,32V31H16V26H13v5H12v1h1v1h1V27h1v6h1V32Z"/><path class="eb10-6" d="M9,26v1h1V26Z"/><path class="eb10-6" d="M19,27h1V26H19Z"/><path class="eb10-2" d="M21,15H20v1h1Z"/><path class="eb10-5" d="M13,20v2h3V20Z"/><path class="eb10-5" d="M15,12V11H14v1H13v1h4V12Z"/><path class="eb10-5" d="M12,19V18h5v2h1V19h1V16h1V15H18v1H16V15H15V14H14v1H13v1H11V15H9v1h1v3h1v1h1Zm2-2V16h1v1H14Z"/><rect class="eb10-5" x="18" y="13" width="1" height="1"/><rect class="eb10-5" x="10" y="14" width="1"/><path class="eb10-2" d="M19,16v3h1V16H19Z"/><rect class="eb10-2" x="19" y="10"/><polygon class="eb10-2" points="18 19 18 20 19 20 19 19 19 19 18 19"/><polygon class="eb10-2" points="17 20 17 21 18 21 18 20 17 20 17 20"/><rect class="eb10-2" x="11" y="9" width="1"/><rect class="eb10-2" x="17" y="9" width="1"/><rect class="eb10-2" x="11" y="20" width="1" height="1"/><rect class="eb10-2" x="10" y="19" width="1" height="1"/><path class="eb10-2" d="M10,16H9v3h1V16Z"/><polygon class="eb10-2" points="15 16 15 16 14 16 14 17 15 17 15 16"/><rect class="eb10-7" x="10" y="13" width="1" height="1"/><rect class="eb10-7" x="12" y="12" width="1" height="1"/><path class="eb10-8" d="M17,20V18H13v1h3v2h1V20Z"/><path class="eb10-8" d="M13,20V19H12v2h1Z"/><path class="eb10-2" d="M16,19H13v1h3Z"/><path class="eb10-2" d="M12,18v1h1V18Z"/><rect class="eb10-9" x="21" y="12" width="1" height="1"/><path class="eb10-9" d="M21,14H20v1h1Z"/><path class="eb10-9" d="M9,14h1V13h2V12h2V11h1v1h2v1h2v1h1V12h1V11H20V10H19V9H17V8H12V9H10v1H9v1H8v1H7v1H8V12H9v2H8v1H9Z"/><path class="eb10-2" d="M10,15h1v1h2V15h1V14h1v1h1v1h2V15h2V14H18V13H11v1H9v1H8v1H9V15Z"/></svg>