<svg xmlns="http://www.w3.org/2000/svg" viewBox="0 0 29 33"><defs><style>polygon,rect,path{shape-rendering:crispedges;}.hb203-1{fill:#d4a122;}.hb203-2{fill:#000000;}.hb203-3{fill:#6d3e35;}.hb203-4{fill:#9b8100;}.hb203-5{fill:#ffa9d0;}.hb203-6{fill:#ffffff;}.hb203-7{fill:#0068ff;}.hb203-8{fill:#ff1f4a;}</style></defs><path class="hb203-1" d="M6,32V27H7V26H8V25h2V24h2V22H11V21H10V20H9V16H8V15H9V11h1V10h1V9h7v1h1v1h1v4h1v1H20v4H19v1H18v1H17v2h2v1h2v1h1v1h1v6h6V0H0V33H6Z"/><path class="hb203-2" d="M23,27H22v6h1V27Z"/><path class="hb203-3" d="M22,27H21v6h1V27Z"/><rect class="hb203-2" x="21" y="26" width="1" height="1"/><path class="hb203-2" d="M21,27H20v6h1V27Z"/><path class="hb203-3" d="M20,27h1V26H19V25H17V24H16V23H13v1H12v1H10v1H8v1H9v6h5V29h1v4h5V27Zm-8,2H11V28h1Zm6,0H17V28h1Z"/><path class="hb203-2" d="M20,26h1V25H19v1Z"/><rect class="hb203-2" x="17" y="28" width="1" height="1"/><path class="hb203-2" d="M18,25h1V24H17v1Z"/><path class="hb203-2" d="M16,24h1V23H16Z"/><path class="hb203-2" d="M15,29H14v4h1V29Z"/><path class="hb203-2" d="M13,23H12v1h1Z"/><rect class="hb203-2" x="11" y="28" width="1" height="1"/><path class="hb203-2" d="M12,24H10v1h2Z"/><path class="hb203-2" d="M10,25H8v1h2Z"/><path class="hb203-2" d="M9,27H8v6H9V27Z"/><path class="hb203-3" d="M8,27H7v6H8V27Z"/><rect class="hb203-2" x="7" y="26" width="1" height="1"/><path class="hb203-2" d="M7,27H6v6H7V27Z"/><rect class="hb203-2" x="20" y="15" width="1" height="1"/><path class="hb203-3" d="M15,16v1H14V16H11v2h5v1h1V18h1V17h1V16H15Z"/><rect class="hb203-2" x="8" y="15" width="1" height="1"/><rect class="hb203-2" x="14" y="16" width="1" height="1"/><path class="hb203-4" d="M15,18H13v1h3V18Z"/><path class="hb203-4" d="M14,23h3V22h1V21h1V20h1V16H19v1H18v1H17v1H16v1H13V19H12V18H11V17H10V16H9v4h1v1h1v1h1v1h2Z"/><rect class="hb203-2" x="13" y="19" width="3" height="1"/><path class="hb203-2" d="M12,18v1h1V18Z"/><path class="hb203-5" d="M10,16v1h1V16Z"/><path class="hb203-5" d="M14,13v1h1V13h5V11H19V10H18V9H11v1H10v1H9v2h5Z"/><rect class="hb203-5" x="14" y="15" width="1" height="1"/><path class="hb203-6" d="M11,16h3V15h1v1h5V13H15v1H14V13H9v3h2Zm5-2h3v1H16Zm-6,0h3v1H10Z"/><path class="hb203-7" d="M19,15V14H16v1h3Z"/><path class="hb203-8" d="M13,15V14H10v1h3Z"/></svg>