<svg xmlns="http://www.w3.org/2000/svg" viewBox="0 0 29 33"><defs><style>polygon,rect,path{shape-rendering:crispedges;}.ha281-1{fill:#7a982c;}.ha281-2{fill:#000000;}.ha281-3{fill:#d8be00;}.ha281-4{fill:#e8b795;}.ha281-5{fill:#014731;}.ha281-6{fill:#af8423;}.ha281-7{fill:#cbed03;}.ha281-8{fill:#00e070;}.ha281-9{fill:#dfdfdf;}.ha281-10{fill:#a89969;}.ha281-11{fill:#ffffff;}</style></defs><path class="ha281-1" d="M0,33H6V27H7V26H8V25h2V24h2V21H9V20H8V19H9V16H8V14H9V13H7V12H5V11H7v1H9V10h1V8h1V7h2V8h3V7h2V8h1V7h1V6h2V8H21V9H20v3h2V11h2v1H22v1H20v1h1v2H20v3h1v1H20v1H17v3h2v1h2v1h1v1h1v6h6V0H0Z"/><path class="ha281-2" d="M23,27H22v6h1V27Z"/><rect class="ha281-2" x="21" y="26" width="1" height="1"/><path class="ha281-3" d="M22,27H21v6h1V27Z"/><path class="ha281-2" d="M21,27H20v6h1V27Z"/><path class="ha281-2" d="M20,26h1V25H19v1Z"/><path class="ha281-3" d="M20,27h1V26H19V25H17v1H16v1H13V26H12V25H10v1H9v7h1V30h1V29h1V28h5v1h1v1h1v3h1V27Z"/><rect class="ha281-3" x="16" y="30" width="1" height="1"/><path class="ha281-3" d="M16,32H12v1h5V32Z"/><rect class="ha281-3" x="12" y="30" width="1" height="1"/><path class="ha281-2" d="M18,25h1V24H17v1Z"/><rect class="ha281-2" x="16" y="25" width="1" height="1"/><path class="ha281-2" d="M13,26v1h3V26H13Z"/><path class="ha281-2" d="M13,23h3v1h1V21H16v1H13V21H12v3h1Z"/><path class="ha281-4" d="M13,25v1h3V25h1V24H16V23H13v1H12v1Z"/><rect class="ha281-2" x="12" y="25" width="1" height="1"/><path class="ha281-2" d="M12,24H10v1h2Z"/><path class="ha281-2" d="M9,26h1V25H8v1H7v1H8v6H9V26Z"/><path class="ha281-3" d="M8,27H7v6H8V27Z"/><path class="ha281-2" d="M7,27H6v6H7V27Z"/><path class="ha281-5" d="M19,30H18V29H17V28H12v1H11v1H10v3h2V32h5v1h2V30Zm-6,1H12V30h1Zm4,0H16V30h1Z"/><path class="ha281-2" d="M20,16h1V15H20Z"/><path class="ha281-4" d="M14,14h2V13H13v1Z"/><path class="ha281-4" d="M13,22h3V21h1V19h1V18h1V17H16V16H15v1H14V16H13v1H10v1h1v1h1V18h1v1h3v1H13V19H12v2h1Z"/><rect class="ha281-4" x="14" y="15" width="1" height="1"/><path class="ha281-2" d="M17,20v1h1V20Z"/><path class="ha281-2" d="M11,20v1h1V20Z"/><path class="ha281-2" d="M10,13h9v1h1V13h2V12H20V11H19v1H10V11H9v1H7v1H9v1h1Z"/><path class="ha281-2" d="M8,15v1H9V15Z"/><rect class="ha281-2" x="14" y="16" width="1" height="1"/><path class="ha281-6" d="M19,17v1H18v1H17v1h1v1h2V20h1V19H20V16H19Z"/><path class="ha281-6" d="M12,20V19H11V18H10V16H9v3H8v1H9v1h2V20Z"/><rect class="ha281-2" x="13" y="19" width="3" height="1"/><rect class="ha281-2" x="12" y="18" width="1" height="1"/><path class="ha281-7" d="M19,15v1h1V15h1V14H19Z"/><path class="ha281-7" d="M17,14h2V13H16v1Z"/><path class="ha281-8" d="M19,16V14H16v2h3Z"/><path class="ha281-7" d="M18,16H16v1h3V16Z"/><path class="ha281-7" d="M14,14H13v2h1V15h1v1h1V14Z"/><path class="ha281-7" d="M13,14V13H10v1h3Z"/><path class="ha281-8" d="M12,14H10v2h3V14Z"/><path class="ha281-7" d="M10,16v1h3V16H10Z"/><path class="ha281-7" d="M10,15V14H8v1H9v1h1Z"/><path class="ha281-2" d="M24,11H22v1h2Z"/><path class="ha281-9" d="M21,8h1V7H21Z"/><rect class="ha281-9" x="20" y="8" width="1" height="1"/><path class="ha281-10" d="M19,11h1V10H19Z"/><path class="ha281-11" d="M18,11h1V10h1V8h1V7h1V6H20V7H19V8H18v3Z"/><path class="ha281-10" d="M17,11H10v1h9V11H17Z"/><path class="ha281-2" d="M11,11h7V7H16V8H13V7H11V8H10v3Z"/><path class="ha281-10" d="M10,10H9v1h1Z"/><path class="ha281-2" d="M6,11H5v1H7V11Z"/></svg>