<svg xmlns="http://www.w3.org/2000/svg" viewBox="0 0 29 33"><defs><style>polygon,rect,path{shape-rendering:crispedges;}.ba78-1{fill:#d4a122;}.ba78-2{fill:#000000;}.ba78-3{fill:#b2622b;}.ba78-4{fill:#68aa7b;}.ba78-5{fill:#68aa7b;}.ba78-6{fill:#e2e2e2;}.ba78-7{fill:#e2e2e2;}.ba78-8{fill:#0079bc;}.ba78-9{fill:#ffffff;}.ba78-10{fill:#fad000;}</style></defs><path class="ba78-1" d="M28,3H27V5H26V6H25V7H24V8h1V9H24v5H23v6H22v1h1v1h1v9H23v1H21v1h8V0H28Z"/><path class="ba78-1" d="M6,27H7V26H8V25h2V24h2V21H11V20H10V19H9V16H8V15H9V11h1V10h1V9h2V7h1V6h2V5h2V6H17V7h1v3h1v1h1v4h1v1H20v3H19v1H18v1H17v3h2v1h2V20h1V14h1V9H22V8h1V7H22V6H21V5H20V3H19V0H0V33H6V27Z"/><path class="ba78-2" d="M7,27H6v6H7V27Z"/><rect class="ba78-2" x="7" y="26" width="1" height="1"/><path class="ba78-3" d="M8,27H7v6H8V27Z"/><rect class="ba78-3" x="8" y="26" width="1" height="1"/><path class="ba78-2" d="M9,27H8v6H9V27Z"/><path class="ba78-2" d="M8,26h2V25H8Z"/><path class="ba78-4" d="M10,30h1V29h1V28h1V27H12V26H11V25H10v1H9v7h1V30Z"/><path class="ba78-4" d="M20,27V26H19V25H18v1H17v1H16v1h1v1h1v1h1v3h1V27Z"/><rect class="ba78-4" x="16" y="30" width="1" height="1"/><rect class="ba78-4" x="12" y="30" width="1" height="1"/><path class="ba78-4" d="M16,32H12v1h5V32Z"/><path class="ba78-2" d="M10,24v1h1v1h1V24Z"/><path class="ba78-2" d="M13,23V22H12v2h1Z"/><rect class="ba78-2" x="12" y="26" width="1" height="1"/><path class="ba78-2" d="M13,27v1h3V27H13Z"/><path class="ba78-3" d="M16,24V23H13v1H12v2h1v1h3V26h1V24Z"/><rect class="ba78-2" x="16" y="26" width="1" height="1"/><path class="ba78-2" d="M18,24H17v2h1V25h1V24Z"/><path class="ba78-3" d="M21,27V26H20v1Z"/><path class="ba78-2" d="M22,32h1V31H22V23H21v2H19v1h2v1H20v6h1V32Z"/><path class="ba78-2" d="M23,31h1V22H23v9Z"/><path class="ba78-5" d="M19,30H18V29H17V28H12v1H11v1H10v3h2V32h5v1h2V30Zm-6,1H12V30h1Zm4,0H16V30h1Z"/><rect class="ba78-2" x="20" y="15" width="1" height="1"/><path class="ba78-2" d="M19,13v1h1V11H19v2Z"/><path class="ba78-3" d="M11,13V12h2v1h4V12h2V11H18V10H15v1H13V10H11v1H10v2Z"/><rect class="ba78-3" x="13" y="20" width="1" height="1"/><rect class="ba78-3" x="18" y="13" width="1" height="1"/><path class="ba78-3" d="M10,17v1h1v1h1V18h2v1h1V18h2v1h1V18h1V16h1V15H18v1H16V15H15V14H14v1H13v1H11V15H9v1h1Zm4-1h1v1H14Z"/><rect class="ba78-3" x="15" y="20" width="1" height="1"/><path class="ba78-2" d="M19,17h1V16H19Z"/><rect class="ba78-2" x="18" y="10" width="1" height="1"/><path class="ba78-2" d="M16,23v1h1V22H16Z"/><path class="ba78-2" d="M13,9H11v1h2Z"/><path class="ba78-2" d="M16,10h2V9H16Z"/><rect class="ba78-2" x="10" y="10" width="1" height="1"/><path class="ba78-2" d="M10,13V11H9v3h1Z"/><path class="ba78-2" d="M10,16H9v1h1Z"/><rect class="ba78-2" x="8" y="15" width="1" height="1"/><rect class="ba78-2" x="14" y="16" width="1" height="1"/><rect class="ba78-6" x="10" y="13" width="1" height="1"/><path class="ba78-6" d="M11,12v1h2V12Z"/><path class="ba78-6" d="M19,12H17v1h2Z"/><path class="ba78-7" d="M14,18H13v1h1Z"/><path class="ba78-7" d="M13,23h3V22h1V21h1V20h1V19h1V17H19v1H18v1H17V18H15v1h1v2H15V20H14v1H13V19H11V18H10V17H9v2h1v1h1v1h1v1h1Z"/><path class="ba78-2" d="M13,19v1h3V19H13Z"/><path class="ba78-2" d="M12,18v1h1V18Z"/><path class="ba78-8" d="M13,11h2V10h1V9h2V7H17V6h1V5H16V6H14V7H13v4Z"/><path class="ba78-2" d="M11,16h2V15h1V14h1v1h1v1h2V15h2V14H18V13H11v1H9v1h2Z"/><path class="ba78-9" d="M23,9v5h1V8H23Z"/><rect class="ba78-9" x="22" y="14" width="1" height="6"/><path class="ba78-9" d="M21,22h1V20H21Z"/><rect class="ba78-10" x="22" y="8" width="1" height="1"/><path class="ba78-10" d="M25,9V8H24V9Z"/><path class="ba78-10" d="M20,3V5h1V6h1V7h1V8h1V7h1V6h1V5h1V3h1V0H19V3Z"/><path class="ba78-3" d="M21,22v1h1v8h1V22H21Z"/><path class="ba78-2" d="M23,22V21H22v1Z"/><rect class="ba78-8" x="18" y="9" width="1" height="1"></rect></svg>