<svg xmlns="http://www.w3.org/2000/svg" viewBox="0 0 29 33"><defs><style>polygon,rect,path{shape-rendering:crispedges;}.wa144-1{fill:#d4a122;}.wa144-2{fill:#a89969;}.wa144-3{fill:#000000;}.wa144-4{fill:#b2622b;}.wa144-5{fill:#8c7850;}.wa144-6{fill:#ffffff;}.wa144-7{fill:#316a6d;}.wa144-8{fill:#316a6d;}.wa144-9{fill:#ff1f4a;}</style></defs><path class="wa144-1" d="M0,33H6V27H7V26H8V25h2V22h1V20H10V19H9V16H8V15H9V13H8V9H9V8h1V7h1V6h7V7h1V8h1V9h1v4H20v2h1v1H20v3H19v1H18v2h1v3h2v1h1v1h1v6h6V0H0Z"/><path class="wa144-2" d="M18,24H16v1h1v1h1v2h1v1h1V27H19V25H18Z"/><path class="wa144-2" d="M15,30V28H14v3h2V30Z"/><path class="wa144-2" d="M18,30V28H17V27H16V25H15v3h1v1h1v2h2V30Z"/><rect class="wa144-2" x="17" y="22" width="1" height="1"/><path class="wa144-2" d="M21,31v1h1V30H21Z"/><rect class="wa144-2" x="21" y="27" width="1" height="1"/><rect class="wa144-2" x="13" y="32" width="1" height="1"/><rect class="wa144-2" x="16" y="32" width="1" height="1"/><rect class="wa144-2" x="10" y="32" width="1" height="1"/><rect class="wa144-2" x="19" y="32" width="1" height="1"/><path class="wa144-2" d="M7,31v2H8V31Z"/><path class="wa144-2" d="M8,29V27H7v2Z"/><path class="wa144-2" d="M12,29V28H11V27H10V26H9v2h1v1h1v2h2V30H12Z"/><rect class="wa144-2" x="9" y="30" width="1" height="1"/><path class="wa144-2" d="M12,25V24H11v2h1v2h1V25Z"/><rect class="wa144-2" x="11" y="22" width="1" height="1"/><path class="wa144-3" d="M23,27H22v6h1V27Z"/><rect class="wa144-3" x="21" y="26" width="1" height="1"/><path class="wa144-3" d="M21,31V27H20v4H14V27H13v4H9V27H8v6H9V32H20v1h1V31Z"/><path class="wa144-3" d="M20,26h1V25H19v1Z"/><path class="wa144-3" d="M18,24v1h1V22H18v2Z"/><path class="wa144-3" d="M17,22h1V21H17Z"/><path class="wa144-3" d="M17,24V22H16v2Z"/><rect class="wa144-3" x="15" y="24" width="1" height="1"/><path class="wa144-3" d="M15,26V25H14v2h1Z"/><rect class="wa144-3" x="13" y="24" width="1" height="1"/><path class="wa144-4" d="M14,24v1h1V24h1V23H13v1Z"/><path class="wa144-3" d="M13,24V22H12v2Z"/><path class="wa144-3" d="M12,21H11v1h1Z"/><path class="wa144-3" d="M11,24V22H10v3h1Z"/><path class="wa144-3" d="M10,26V25H8v1h2Z"/><rect class="wa144-3" x="7" y="26" width="1" height="1"/><path class="wa144-3" d="M7,30V27H6v6H7V30Z"/><rect class="wa144-3" x="20" y="15" width="1" height="1"/><path class="wa144-3" d="M19,15h1V14H19Z"/><rect class="wa144-4" x="9" y="15" width="1" height="1"/><rect class="wa144-4" x="15" y="20" width="1" height="1"/><rect class="wa144-4" x="19" y="15" width="1" height="1"/><rect class="wa144-4" x="10" y="12" width="1" height="1"/><rect class="wa144-4" x="13" y="20" width="1" height="1"/><path class="wa144-4" d="M17,14h2V13H17Z"/><path class="wa144-4" d="M18,16H16V13h1V12h1V11H11v1h2v1H11v1h2v2H10v2h1v1h1V18h2v1h1V18h2v1h1V18h1V16Zm-3,1H14V16h1Z"/><path class="wa144-3" d="M19,17h1V16H19Z"/><path class="wa144-3" d="M10,14H9v1h1Z"/><path class="wa144-3" d="M10,16H9v1h1Z"/><rect class="wa144-3" x="8" y="15" width="1" height="1"/><rect class="wa144-3" x="14" y="16" width="1" height="1"/><path class="wa144-5" d="M21,29v1h1V28H21Z"/><path class="wa144-5" d="M21,32v1h1V32Z"/><path class="wa144-5" d="M19,26v1h2V26H19Z"/><path class="wa144-5" d="M19,28H18v2h1v1h1V29H19Z"/><path class="wa144-5" d="M17,27v1h1V26H17V25H16v2Z"/><path class="wa144-5" d="M18,32H17v1h2V32Z"/><path class="wa144-5" d="M16,29V28H15v2h1v1h1V29Z"/><path class="wa144-5" d="M15,27H14v1h1Z"/><path class="wa144-5" d="M13,25v2h1V25Z"/><path class="wa144-5" d="M15,32H14v1h2V32Z"/><path class="wa144-5" d="M12,29v1h1V28H12Z"/><rect class="wa144-5" x="12" y="24" width="1" height="1"/><path class="wa144-5" d="M12,23H11v1h1Z"/><path class="wa144-5" d="M18,24V23H17v1Z"/><path class="wa144-5" d="M10,27h1v1h1V26H11V25H10v2Z"/><path class="wa144-5" d="M12,32H11v1h2V32Z"/><path class="wa144-5" d="M10,29V28H9v2h1v1h1V29Z"/><path class="wa144-5" d="M9,32v1h1V32Z"/><path class="wa144-5" d="M9,27V26H8v1Z"/><path class="wa144-5" d="M7,30v1H8V29H7Z"/><path class="wa144-6" d="M11,15V14H10v2h1Z"/><path class="wa144-6" d="M13,16V14H12v2Z"/><path class="wa144-6" d="M16,14v2h1V14Z"/><path class="wa144-6" d="M18,15v1h1V14H18Z"/><path class="wa144-3" d="M11,16h1V14H11v2Z"/><path class="wa144-3" d="M18,14H17v2h1V14Z"/><rect class="wa144-7" x="10" y="13" width="1" height="1"/><rect class="wa144-7" x="11" y="12" width="2" height="1"/><path class="wa144-7" d="M17,13H16v1h1Z"/><path class="wa144-7" d="M17,13h2V12H17Z"/><path class="wa144-8" d="M14,18H13v1h1Z"/><path class="wa144-8" d="M12,22h1v1h3V22h1V21h1V20h1V19h1V17H19v1H18v1H17V18H15v1h1v2H15V20H14v1H13V19H11V18H10V17H9v2h1v1h1v1h1Z"/><path class="wa144-3" d="M13,19v1h3V19H13Z"/><path class="wa144-3" d="M12,18v1h1V18Z"/><path class="wa144-9" d="M10,13V12h1V11h7v1h1v2h1V13h1V9H20V8H19V7H18V6H11V7H10V8H9V9H8v4H9v1h1Z"/></svg>