<svg xmlns="http://www.w3.org/2000/svg" viewBox="0 0 29 33"><defs><style>polygon,rect,path{shape-rendering:crispedges;}.hb65-1{fill:#b4bd09;}.hb65-2{fill:#000000;}.hb65-3{fill:#6d3e35;}.hb65-4{fill:#ffffff;}.hb65-5{fill:#492a23;}.hb65-6{fill:#317f03;}.hb65-7{fill:#e70059;}.hb65-8{fill:#000000;}</style></defs><path class="hb65-1" d="M0,33H6V27H7V26H8V25h2V24h2V22H11V21H10V20H9V16H8V15H9V10h1V9h1V8h7V9h1v1h1v5h1v1H20v4H19v1H18v1H17v2h2v1h2V23H20V21h1V20h1V19h2v1h1v3H24v8H23v1H21v1h8V0H0Z"/><path class="hb65-2" d="M23,24v7h1V23H23Z"/><path class="hb65-2" d="M7,27H6v6H7V27Z"/><path class="hb65-3" d="M8,27H7v6H8V27Z"/><rect class="hb65-2" x="7" y="26" width="1" height="1"/><path class="hb65-2" d="M9,27H8v6H9V27Z"/><path class="hb65-3" d="M20,27h1V26H19V25H17V24H16V23H13v1H12v1H10v1H8v1H9v6h5V29h1v4h5V27Zm-8,2H11V28h1Zm6,0H17V28h1Z"/><path class="hb65-2" d="M10,25H8v1h2Z"/><rect class="hb65-2" x="11" y="28" width="1" height="1"/><path class="hb65-2" d="M12,24H10v1h2Z"/><path class="hb65-2" d="M13,23V22H12v2h1Z"/><path class="hb65-2" d="M15,29H14v4h1V29Z"/><rect class="hb65-2" x="17" y="28" width="1" height="1"/><path class="hb65-2" d="M18,25h1V24H17v1Z"/><path class="hb65-2" d="M22,32h1V31H22V23H21v2H19v1h2v1H20v6h1V32Z"/><rect class="hb65-2" x="20" y="15" width="1" height="1"/><path class="hb65-2" d="M19,15h1V14H19Z"/><path class="hb65-3" d="M10,17v1h1v1h1V18h5v1h1V18h1V16h1V15H16V14h2V13H16V12h2v1h1V11H18V10H17v1H14V10H13v1H12V10H11v1H10v2h1V12h2v1H11v1h2v1H9v1h1Zm4-1h1v1H14Z"/><rect class="hb65-3" x="15" y="20" width="1" height="1"/><rect class="hb65-3" x="13" y="20" width="1" height="1"/><path class="hb65-2" d="M16,23v1h1V22H16Z"/><path class="hb65-2" d="M10,14H9v1h1Z"/><rect class="hb65-2" x="8" y="15" width="1" height="1"/><rect class="hb65-2" x="14" y="16" width="1" height="1"/><path class="hb65-4" d="M13,15V14H12v1Z"/><path class="hb65-4" d="M10,15h1V14H10Z"/><path class="hb65-4" d="M18,14v1h1V14Z"/><path class="hb65-4" d="M16,14v1h1V14Z"/><path class="hb65-2" d="M12,15V14H11v1Z"/><path class="hb65-2" d="M17,14v1h1V14Z"/><rect class="hb65-5" x="18" y="13" width="1" height="1"/><rect class="hb65-5" x="16" y="12" width="2" height="1"/><rect class="hb65-5" x="10" y="13" width="1" height="1"/><rect class="hb65-5" x="11" y="12" width="2" height="1"/><path class="hb65-6" d="M13,23h3V22h2V21h1V20h1V16H19v2H18v1H16v2H15V20H14v1H13V19H11V18H10V16H9v4h1v1h1v1h2Z"/><path class="hb65-2" d="M12,18v1h1V18Z"/><path class="hb65-2" d="M16,18v1h1V18Z"/><path class="hb65-2" d="M15,20h1V19H15Z"/><path class="hb65-2" d="M15,19V18H14v1Z"/><path class="hb65-2" d="M13,19v1h1V19Z"/><path class="hb65-4" d="M14,18H13v1h1Z"/><path class="hb65-4" d="M15,18v1h1V18Z"/><rect class="hb65-7" x="14" y="19" width="1" height="1"/><path class="hb65-2" d="M20,21v2h1V21Z"/><rect class="hb65-2" x="21" y="20" width="1" height="1"/><rect class="hb65-2" x="22" y="19" width="2" height="1"/><path class="hb65-2" d="M24,23h1V20H24v3Z"/><path class="hb65-3" d="M22,24v7h1V23h1V20H22v1H21v2h1Z"/><path class="hb65-8" d="M10,13V11h1V10h1v1h1V10h1v1h3V10h1v1h1v3h1V10H19V9H18V8H11V9H10v1H9v4h1Z"/></svg>