<svg xmlns="http://www.w3.org/2000/svg" viewBox="0 0 29 33"><defs><style>polygon,rect,path{shape-rendering:crispedges;}.ga28-1{fill:#6b4f99;}.ga28-2{fill:#000000;}.ga28-3{fill:#d8be00;}.ga28-4{fill:#e8b795;}.ga28-5{fill:#ffffff;}.ga28-6{fill:#317f03;}.ga28-7{fill:#316a6d;}.ga28-8{fill:#00e070;}.ga28-9{fill:#ffffff;}.ga28-10{fill:#00bc55;}.ga28-11{fill:#ffffff;}.ga28-12{fill:#ea1500;}.ga28-13{fill:#005e12;}.ga28-14{fill:#008e21;}</style></defs><path class="ga28-1" d="M20,23V21H17v3h2v1h2V23Z"/><path class="ga28-1" d="M0,33H6V27H7V26H8V25h2V24h2V21H9V20H8V19H9V16H8V15H9V11h1V10h1V9h2V7h1V6h2V5h2V6H17V7h1V9h1v2h1v4h1v1H20v2h1V17h3v1h1v5H24v8H23v1H21v1h8V0H0Z"/><path class="ga28-2" d="M23,26v5h1V25H23Z"/><path class="ga28-3" d="M23,26V25H22v6h1V26Z"/><path class="ga28-2" d="M22,32h1V31H22V25H19v1h2v1H20v6h1V32Z"/><rect class="ga28-3" x="18" y="29" width="1" height="1"/><path class="ga28-3" d="M15,29H14v2h1V29Z"/><path class="ga28-3" d="M19,32V31H18v1H17V29h1V28h1v1h1V27h1V26H19V25H17v1H16v1H13V26H12V25H10v1H8v1H9v2h1V28h1v1h1v3H11V31H10v1H9v1H20V32Zm-3-2v1H15v1H13V28h2v1h1Z"/><rect class="ga28-3" x="10" y="29" width="1" height="1"/><path class="ga28-2" d="M18,24H17v1h2V24Z"/><rect class="ga28-2" x="16" y="25" width="1" height="1"/><path class="ga28-2" d="M13,26v1h3V26H13Z"/><path class="ga28-2" d="M13,23h3v1h1V21H16v1H13V21H12v3h1Z"/><path class="ga28-4" d="M13,25v1h3V25h1V24H16V23H13v1H12v1Z"/><rect class="ga28-2" x="12" y="25" width="1" height="1"/><path class="ga28-2" d="M12,24H10v1h2Z"/><path class="ga28-2" d="M10,25H8v1h2Z"/><path class="ga28-2" d="M9,31V27H8v6H9V31Z"/><rect class="ga28-2" x="7" y="26" width="1" height="1"/><path class="ga28-3" d="M8,27H7v6H8V27Z"/><path class="ga28-2" d="M7,27H6v6H7V27Z"/><path class="ga28-5" d="M19,30H18V29H17v3h1V31h1v1h1V29H19Z"/><rect class="ga28-5" x="18" y="28" width="1" height="1"/><path class="ga28-5" d="M15,30v1h1V29H15Z"/><path class="ga28-5" d="M14,30V29h1V28H13v4h2V31H14Z"/><path class="ga28-5" d="M9,32h1V31h1v1h1V29H11v1H10V29H9v3Z"/><rect class="ga28-5" x="10" y="28" width="1" height="1"/><rect class="ga28-2" x="20" y="15" width="1" height="1"/><path class="ga28-2" d="M19,13v2h1V11H19v2Z"/><path class="ga28-4" d="M18,14h1V13H18Z"/><rect class="ga28-4" x="9" y="15" width="1" height="1"/><rect class="ga28-4" x="14" y="15" width="1" height="1"/><path class="ga28-4" d="M11,13V12h2v2h3V13h1V12h2V11H18V10H15v1H13V10H11v1H10v2Z"/><rect class="ga28-4" x="19" y="15" width="1" height="1"/><path class="ga28-4" d="M13,22h3V21h1V19h1V18h1V16H18v1H16V16H15v1H14V16H13v1H11V16H10v2h1v1h1V18h1v1h3v1H13V19H12v2h1Z"/><path class="ga28-2" d="M18,11h1V10H18Z"/><path class="ga28-2" d="M18,20H17v1h1Z"/><path class="ga28-2" d="M13,9H11v1h2Z"/><path class="ga28-2" d="M16,10h2V9H16Z"/><path class="ga28-2" d="M11,20v1h1V20Z"/><rect class="ga28-2" x="10" y="10" width="1" height="1"/><path class="ga28-2" d="M10,14V11H9v4h1Z"/><rect class="ga28-2" x="8" y="15" width="1" height="1"/><rect class="ga28-2" x="14" y="16" width="1" height="1"/><path class="ga28-6" d="M11,13H10v1h1Z"/><path class="ga28-6" d="M13,12H11v1h2Z"/><path class="ga28-6" d="M19,13V12H17v1h2Z"/><path class="ga28-7" d="M19,17v1H18v1H17v1h1v1h2V16H19Z"/><path class="ga28-7" d="M12,20V19H11V18H10V16H9v3H8v1H9v1h2V20Z"/><rect class="ga28-2" x="13" y="19" width="3" height="1"/><rect class="ga28-2" x="12" y="18" width="1" height="1"/><path class="ga28-8" d="M13,11h2V10h1V9h2V7H17V6h1V5H16V6H14V7H13v4Z"/><path class="ga28-8" d="M19,10V9H18v1Z"/><path class="ga28-9" d="M12,14h1V13H11v1Z"/><path class="ga28-9" d="M11,17h2V16H11Z"/><path class="ga28-9" d="M10,14v2h1V14Z"/><path class="ga28-2" d="M12,14H11v2h2V14Z"/><path class="ga28-9" d="M19,14H18v2h1V14Z"/><path class="ga28-9" d="M18,13H16v1h2Z"/><path class="ga28-9" d="M16,17h2V16H16Z"/><path class="ga28-9" d="M13,14v2h1V15h1v1h1V14Z"/><path class="ga28-2" d="M16,14v2h2V14Z"/><path class="ga28-10" d="M22,19v1H21v1h3V20H23V18h1V17H21v1h1Z"/><path class="ga28-10" d="M21,20V18H20v2Z"/><path class="ga28-11" d="M22,19V18H21v1Z"/><path class="ga28-2" d="M22,19H21v1h1Z"/><path class="ga28-11" d="M23,19h1V18H23Z"/><path class="ga28-2" d="M23,19v1h1V19Z"/><path class="ga28-12" d="M24,22V21H21v1Z"/><path class="ga28-10" d="M21,22v1h3V22Z"/><path class="ga28-10" d="M24,20h1V18H24v2Z"/><path class="ga28-13" d="M21,23v2h3V23H21Z"/><path class="ga28-12" d="M24,20.333V21h1V20H24Z"/><path class="ga28-12" d="M21,20H20v1h1Z"/><path class="ga28-14" d="M21,23V21H20v2Z"/><path class="ga28-14" d="M24,21.222V23h1V21H24Z"/><rect class="ga28-8" x="18" y="9" width="1" height="1"></rect></svg>