<svg xmlns="http://www.w3.org/2000/svg" viewBox="0 0 29 33"><defs><style>polygon,rect,path{shape-rendering:crispedges;}.da120-1{fill:#d4a122;}.da120-2{fill:#000000;}.da120-3{fill:#a56e49;}.da120-4{fill:#8e9350;}.da120-5{fill:#e0dbc6;}.da120-6{fill:#ffffff;}.da120-7{fill:#663228;}.da120-8{fill:#663228;}.da120-9{fill:#825fff;}.da120-10{fill:#455054;}.da120-11{fill:#ff1f4a;}.da120-12{fill:#fad000;}.da120-13{fill:#900;}</style></defs><path class="da120-1" d="M8,18v4H9v2H8v1h2V24h2V21H11V20H10V19H9V16H8v2Z"/><path class="da120-1" d="M8,32H6V31H5V22H6V21H7V20H5v1H2V17H5V16H8V14H9V12H8v1H7V12H8V11H9V10h1V9h2V8h5V9h2v1h1v1h1v1h1v1H21V12H20v2h1v2H20v3H19v1H18v1H17v3h2v1h2v1h1v1h1v6h6V0H0V33H8Z"/><rect class="da120-2" x="21" y="26" width="1" height="1"/><path class="da120-2" d="M23,27H22v3H21V27H20v6h1V31h1v2h1V27Z"/><path class="da120-2" d="M20,26h1V25H19v1Z"/><path class="da120-2" d="M18,25h1V24H17v1Z"/><path class="da120-2" d="M11,24H10v1h2V24Z"/><path class="da120-2" d="M9,31V27H8V26h2V25H8V24H7v7H6v1H8v1H9V31Z"/><path class="da120-2" d="M6,22H5v9H6V22Z"/><path class="da120-3" d="M7,30V24H8V22H6v9H7Z"/><path class="da120-4" d="M19,32V31H18v1H17V29h1V28h1v1h1V27h1V26H19V25H17v1H16v1H13V26H12V25H10v1H8v1H9v2h1V28h1v1h1v3H11V31H10v1H9v1H20V32Zm-3-2v1H15v1H13V28h2v1h1Z"/><rect class="da120-4" x="18" y="29" width="1" height="1"/><path class="da120-4" d="M15,29H14v2h1V29Z"/><rect class="da120-4" x="10" y="29" width="1" height="1"/><path class="da120-2" d="M13,26v1h3V26H13Z"/><path class="da120-3" d="M16,23H13v1H12v1h1v1h3V25h1V24H16Z"/><path class="da120-4" d="M21,28v2h1V27H21Z"/><path class="da120-3" d="M21,31v2h1V31Z"/><rect class="da120-2" x="12" y="25" width="1" height="1"/><rect class="da120-2" x="16" y="25" width="1" height="1"/><path class="da120-5" d="M19,30H18V29H17v3h1V31h1v1h1V29H19Z"/><rect class="da120-5" x="18" y="28" width="1" height="1"/><path class="da120-5" d="M15,30v1h1V29H15Z"/><path class="da120-5" d="M14,30V29h1V28H13v4h2V31H14Z"/><path class="da120-5" d="M9,32h1V31h1v1h1V29H11v1H10V29H9v3Z"/><rect class="da120-5" x="10" y="28" width="1" height="1"/><path class="da120-2" d="M20,16h1V15H20Z"/><rect class="da120-2" x="19" y="14" width="1" height="1"/><path class="da120-3" d="M11,13H10v1h2V13Z"/><path class="da120-3" d="M19,15H16V14h2V13H16V12H15V11H14v1H12v1h1v2H9v1h1v3h1v1h1V18h5v2h1V19h1V16h1V15Zm-4,2H14V16h1Z"/><path class="da120-3" d="M13,21v1h3V20H13Z"/><path class="da120-2" d="M19,17v2h1V16H19Z"/><rect class="da120-2" x="18" y="19" width="1" height="1"/><rect class="da120-2" x="17" y="20" width="1" height="1"/><path class="da120-2" d="M16,22H13V21H12v3h1V23h3v1h1V21H16Z"/><rect class="da120-2" x="11" y="20" width="1" height="1"/><rect class="da120-2" x="10" y="19" width="1" height="1"/><path class="da120-2" d="M10,15h2V14H9v1Z"/><path class="da120-2" d="M10,16H9v3h1V16Z"/><path class="da120-2" d="M9,15H8v1H9Z"/><rect class="da120-2" x="14" y="16" width="1" height="1"/><path class="da120-6" d="M18,15h1V14H18Z"/><path class="da120-6" d="M13,14H12v1h1Z"/><path class="da120-2" d="M17,14H16v1h2V14Z"/><rect class="da120-7" x="18" y="13" width="1" height="1"/><path class="da120-7" d="M17,13V12H16v1Z"/><path class="da120-7" d="M13,13H12v1h1Z"/><path class="da120-8" d="M17,19H16v2h1V19Z"/><path class="da120-8" d="M13,20V19h3V18H12v3h1Z"/><path class="da120-2" d="M13,20h3V19H13Z"/><path class="da120-2" d="M17,19V18H16v1Z"/><rect class="da120-9" x="21" y="12" width="1" height="1"/><path class="da120-9" d="M10,13h2V12h2V11h1v1h2v1h2v1h1V12h1V11H20V10H19V9H17V8H12V9H10v1H9v1H8v1H9v2h1Z"/><path class="da120-9" d="M21,15V14H20v1Z"/><path class="da120-9" d="M9,14H8v1H9Z"/><rect class="da120-9" x="7" y="12" width="1" height="1"/><path class="da120-10" d="M8,22V20H7v2Z"/><path class="da120-2" d="M7,21H6v1H7Z"/><path class="da120-2" d="M9,22H8v2H9Z"/><path class="da120-11" d="M4,18H5V17H2v1H4Z"/><path class="da120-11" d="M8,16H5v1H8Z"/><path class="da120-11" d="M3,20H2v1H5V20H3Z"/><path class="da120-11" d="M8,19H5v1H8Z"/><path class="da120-12" d="M8,19V17H5v1H4v2H5V19Z"/><path class="da120-13" d="M3,20H4V19H3Z"/><path class="da120-13" d="M3,18H2v1H3Z"/><path class="da120-6" d="M3,19H4V18H3Z"/><path class="da120-12" d="M3,19H2v1H3Z"/></svg>