<svg xmlns="http://www.w3.org/2000/svg" viewBox="0 0 29 33"><defs><style>polygon,rect,path{shape-rendering:crispedges;}.wa43-1{fill:#b4bd09;}.wa43-2{fill:#cc3232;}.wa43-3{fill:#000000;}.wa43-4{fill:#a56e49;}.wa43-5{fill:#ffffff;}.wa43-6{fill:#663434;}.wa43-7{fill:#ffffff;}.wa43-8{fill:#663228;}.wa43-9{fill:#ff1f4a;}.wa43-10{fill:#e5ac2e;}.wa43-11{fill:#ff1f4a;}.wa43-12{fill:#fad000;}.wa43-13{fill:#00e070;}.wa43-14{fill:#ff1d99;}.wa43-15{fill:#10bcff;}.wa43-16{fill:#6e12ff;}.wa43-17{fill:#900;}.wa43-18{fill:#eaeaea;}</style></defs><path class="wa43-1" d="M6,32V27H7V26H8V25h2V22h1V20H10V19H9V16H8V15H9V8h1V9h1V7h1V8h2V7H13V6h1V5h1V6h1V7H15V8h2V7h1V9h1V8h1v7h1v1H20v3H19v1H18v2h1v3h2v1h1v1h1v6h6V0H0V33H6Z"/><path class="wa43-2" d="M19,26v1H18V26H17V25h1V23H17v1H16v2H15v1H14v3h1v1h3V30h1v1h1V29H19V28h1V27h1V26H19Zm-1,3H17v1H16V29H15V28h1V27h1v1h1Z"/><path class="wa43-2" d="M21,30v1h1V29H21Z"/><rect class="wa43-2" x="21" y="32" width="1" height="1"/><rect class="wa43-2" x="21" y="27" width="1" height="1"/><rect class="wa43-2" x="9" y="32" width="1" height="1"/><path class="wa43-2" d="M13,32H11v1h3V32Z"/><rect class="wa43-2" x="19" y="32" width="1" height="1"/><path class="wa43-2" d="M17,32H15v1h3V32Z"/><path class="wa43-2" d="M7,30v1H8V29H7Z"/><rect class="wa43-2" x="7" y="32" width="1" height="1"/><rect class="wa43-2" x="7" y="27" width="1" height="1"/><path class="wa43-2" d="M9,27v1h1v1H9v2h1V30h1v1h2V30H12V29H11V28h1V27h2V26H13V24H12V23H11v2h1v1H11v1H10V26H8v1Z"/><path class="wa43-3" d="M23,27H22v6h1V27Z"/><rect class="wa43-3" x="21" y="26" width="1" height="1"/><path class="wa43-3" d="M21,31V27H20v4H14V27H13v4H9V27H8v6H9V32H20v1h1V31Z"/><path class="wa43-3" d="M20,26h1V25H19v1Z"/><path class="wa43-3" d="M18,24v1h1V22H18v2Z"/><path class="wa43-3" d="M15,25h1V24H15Z"/><path class="wa43-3" d="M15,26V25H14v2h1Z"/><path class="wa43-3" d="M14,24H13v1h1Z"/><path class="wa43-4" d="M14,25h1V24h1V23H13v1h1Z"/><path class="wa43-3" d="M11,24V22H10v3h1Z"/><path class="wa43-3" d="M10,25H8v1h2Z"/><rect class="wa43-3" x="7" y="26" width="1" height="1"/><path class="wa43-3" d="M7,31V27H6v6H7V31Z"/><rect class="wa43-3" x="20" y="15" width="1" height="1"/><path class="wa43-3" d="M19,15h1V14H19Z"/><path class="wa43-4" d="M13,20v2h3V20Z"/><path class="wa43-4" d="M12,19V18h5v2h1V19h1V16h1V15H19V12H16v1h1v1h1v1H16v1H15v1H14V16H13V15H11V14h1V13h1V12H10v3H9v1h1v3h1v1h1Z"/><path class="wa43-3" d="M19,17v2h1V16H19Z"/><rect class="wa43-3" x="18" y="19" width="1" height="1"/><path class="wa43-3" d="M12,23v1h1V23h3v1h1V22h1V20H17v1H16v1H13V21H12V20H11v2h1Z"/><rect class="wa43-3" x="10" y="19" width="1" height="1"/><path class="wa43-3" d="M10,14H9v1h1Z"/><path class="wa43-3" d="M10,16H9v3h1V16Z"/><rect class="wa43-3" x="8" y="15" width="1" height="1"/><path class="wa43-5" d="M10,30v1h1V30Z"/><path class="wa43-5" d="M10,32v1h1V32Z"/><path class="wa43-5" d="M12,28H11v1h1v1h1V27H12Z"/><polygon class="wa43-5" points="10 27 11 27 11 26 12 26 12 25 11 25 10 25 10 26 10 27"/><path class="wa43-5" d="M15,26h1V25H15Z"/><path class="wa43-5" d="M13,25v1h1V25Z"/><polygon class="wa43-5" points="17 27 16 27 16 28 15 28 15 29 16 29 16 30 17 30 17 29 18 29 18 28 17 28 17 27"/><polygon class="wa43-5" points="17 25 17 26 18 26 18 27 19 27 19 26 19 25 18 25 17 25"/><path class="wa43-5" d="M7,29H8V28H7Z"/><path class="wa43-5" d="M10,28H9v1h1Z"/><path class="wa43-5" d="M21,29h1V28H21Z"/><path class="wa43-5" d="M19,29h1V28H19Z"/><path class="wa43-5" d="M21,32h1V31H21Z"/><path class="wa43-5" d="M7,32H8V31H7Z"/><path class="wa43-5" d="M14,30v1h1V30Z"/><path class="wa43-5" d="M14,32v1h1V32Z"/><path class="wa43-5" d="M18,30v1h1V30Z"/><path class="wa43-5" d="M18,32v1h1V32Z"/><path class="wa43-5" d="M12,23V22H11v1Z"/><path class="wa43-5" d="M17,23h1V22H17Z"/><path class="wa43-6" d="M18,15V14H17v1Z"/><rect class="wa43-6" x="16" y="13" width="1" height="1"/><rect class="wa43-3" x="14" y="14" width="1" height="1"/><path class="wa43-7" d="M13,13v1H12v1h1v1h3V15h1V14H16V13H13Zm2,2H14V14h1Z"/><path class="wa43-6" d="M13,12v1h3V12H13Z"/><rect class="wa43-6" x="12" y="13" width="1" height="1"/><path class="wa43-6" d="M11,14v1h1V14Z"/><path class="wa43-3" d="M14,17h1V16H14Z"/><path class="wa43-8" d="M13,19H12v2h1V19Z"/><path class="wa43-8" d="M13,18v1h3v2h1V18Z"/><path class="wa43-3" d="M16,20V19H13v1Z"/><path class="wa43-3" d="M13,18H12v1h1Z"/><path class="wa43-9" d="M19,13v1h1V12H19Z"/><path class="wa43-9" d="M10,13V12H9v2h1Z"/><rect class="wa43-1" x="17" y="9" width="1" height="1"/><rect class="wa43-10" x="12" y="10" width="1" height="1"/><rect class="wa43-10" x="16" y="10" width="1" height="1"/><rect class="wa43-1" x="11" y="9" width="1" height="1"/><rect class="wa43-11" x="14" y="10" width="1" height="1"/><rect class="wa43-11" x="13" y="9" width="1" height="1"/><path class="wa43-7" d="M12,7H11V8h1Z"/><path class="wa43-7" d="M13,9V8H12V9Z"/><path class="wa43-7" d="M17,9V8H16V9Z"/><rect class="wa43-7" x="18" y="9" width="1" height="1"/><rect class="wa43-7" x="10" y="9" width="1" height="1"/><path class="wa43-7" d="M10,8H9V9h1Z"/><path class="wa43-7" d="M18,7H17V8h1Z"/><rect class="wa43-12" x="16" y="9" width="1" height="1"/><rect class="wa43-12" x="12" y="9" width="1" height="1"/><rect class="wa43-13" x="11" y="10" width="1" height="1"/><path class="wa43-12" d="M12,8H11V9h1Z"/><path class="wa43-12" d="M18,9V8H17V9Z"/><path class="wa43-14" d="M10,10H9v1h1Z"/><rect class="wa43-15" x="17" y="10" width="1" height="1"/><path class="wa43-12" d="M19,10H18v1H16V10H15v1H14V10H13v1H11V10H10v2h9V10Z"/><path class="wa43-16" d="M19,11h1V10H19Z"/><path class="wa43-7" d="M20,8H19V9h1Z"/><rect class="wa43-11" x="15" y="9" width="1" height="1"/><rect class="wa43-11" x="14" y="8" width="1" height="1"/><rect class="wa43-17" x="14" y="9" width="1" height="1"/><path class="wa43-12" d="M14,9V8H13V9Z"/><path class="wa43-12" d="M16,9V8H15V9Z"/><rect class="wa43-18" x="14" y="6" width="1" height="1"/><rect class="wa43-7" x="14" y="7" width="1" height="1"/><rect class="wa43-7" x="13" y="6" width="1" height="1"/><rect class="wa43-7" x="15" y="6" width="1" height="1"/><rect class="wa43-7" x="14" y="5" width="1" height="1"/><path class="wa43-10" d="M10,11H9v1h1Z"/><path class="wa43-10" d="M19,12h1V11H19Z"/><path class="wa43-10" d="M20,10V9H19v1Z"/><path class="wa43-10" d="M10,9H9v1h1Z"/></svg>