<svg xmlns="http://www.w3.org/2000/svg" viewBox="0 0 29 33"><defs><style>polygon,rect,path{shape-rendering:crispedges;}.ra267-1{fill:#e55b35;}.ra267-2{fill:#000000;}.ra267-3{fill:#8c7850;}.ra267-4{fill:#e8b795;}.ra267-5{fill:#184226;}.ra267-6{fill:#8e703c;}.ra267-7{fill:#cbed03;}</style></defs><path class="ra267-1" d="M0,33H6V27H7V26H8V25h2V24H9V16H8V15H9V10h1V9h1V8h7V9h1v1h1v5h1v1H20v6H19v3h2v1h1v1h1v6h6V0H0Z"/><path class="ra267-2" d="M23,27H22v6h1V27Z"/><path class="ra267-3" d="M22,27H21v6h1V27Z"/><rect class="ra267-2" x="21" y="26" width="1" height="1"/><path class="ra267-2" d="M21,27H20v6h1V27Z"/><path class="ra267-3" d="M10,30h1V29h1V25H11v2H10V26H8v1H9v6h1V30Z"/><rect class="ra267-3" x="12" y="24" width="1" height="1"/><path class="ra267-3" d="M20,27h1V26H19V25H18v1H17v3h1v1h1v3h1V27Z"/><rect class="ra267-3" x="16" y="24" width="1" height="1"/><path class="ra267-2" d="M20,26h1V25H19v1Z"/><path class="ra267-2" d="M15,24H13v1h3V24Z"/><path class="ra267-4" d="M16,24V23H13v1h3Z"/><path class="ra267-2" d="M13,23h3v1h1V21H16v1H13V21H12v3h1Z"/><path class="ra267-2" d="M10,25H8v1h2Z"/><path class="ra267-2" d="M9,27H8v6H9V27Z"/><path class="ra267-3" d="M8,27H7v6H8V27Z"/><rect class="ra267-2" x="7" y="26" width="1" height="1"/><path class="ra267-2" d="M7,27H6v6H7V27Z"/><path class="ra267-3" d="M16,32H12v1h5V32Z"/><path class="ra267-3" d="M16,25H13v3h3V25Z"/><rect class="ra267-3" x="16" y="30" width="1" height="1"/><rect class="ra267-3" x="12" y="30" width="1" height="1"/><path class="ra267-5" d="M19,30H18V29H17v2H16V28H13v3H12V29H11v1H10v3h2V32h5v1h2V30Z"/><path class="ra267-2" d="M13,25H12v5h1V25Z"/><path class="ra267-2" d="M16,25v5h1V25Z"/><rect class="ra267-2" x="20" y="15" width="1" height="1"/><path class="ra267-4" d="M13,22h3V21h1V20h1V19h1V16H18v1H16V16H15v1H14V16H13v1H11V16H10v3h1v1h1v1h1Zm0-3h3V18h1v1H16v1H13Z"/><path class="ra267-4" d="M18,13V12H17V11H15V10H12v1H11v1h2v1H10v1h6V13Z"/><rect class="ra267-4" x="14" y="15" width="1" height="1"/><rect class="ra267-4" x="9" y="15" width="1" height="1"/><path class="ra267-2" d="M19,17v2h1V16H19Z"/><rect class="ra267-2" x="18" y="19" width="1" height="1"/><rect class="ra267-2" x="17" y="20" width="1" height="1"/><rect class="ra267-2" x="11" y="20" width="1" height="1"/><rect class="ra267-2" x="10" y="19" width="1" height="1"/><path class="ra267-2" d="M10,18V16H9v3h1Z"/><rect class="ra267-2" x="8" y="15" width="1" height="1"/><rect class="ra267-2" x="14" y="16" width="1" height="1"/><path class="ra267-6" d="M13,12H11v1h2Z"/><path class="ra267-6" d="M16,13v1h2V13Z"/><rect class="ra267-2" x="13" y="19" width="3" height="1"/><rect class="ra267-2" x="16" y="18" width="1" height="1"/><path class="ra267-7" d="M10,27h1V25h1V21H11V20H10V19H9v5h1v3Z"/><rect class="ra267-7" x="19" y="15" width="1" height="1"/><path class="ra267-7" d="M10,13h1V11h1V10h3v1h2v1h1v2h2V10H19V9H18V8H11V9H10v1H9v4h1Z"/><path class="ra267-7" d="M19,20H18v1H17v5h1V25h1V22h1V19H19Z"/><path class="ra267-2" d="M10,16h1v1h2V16h1V15h1v1h1v1h2V16h1V15h1V14H9v1h1Z"/></svg>