<svg xmlns="http://www.w3.org/2000/svg" viewBox="0 0 29 33"><defs><style>polygon,rect,path{shape-rendering:crispedges;}.ab226-1{fill:#d14646;}.ab226-2{fill:#000000;}.ab226-3{fill:#ffffff;}.ab226-4{fill:#e8b795;}.ab226-5{fill:#45ba00;}.ab226-6{fill:#ffffff;}.ab226-7{fill:#00686d;}.ab226-8{fill:#841f00;}.ab226-9{fill:#b23b00;}</style></defs><path class="ab226-1" d="M10,18V16h0v3h0Z"/><rect class="ab226-1" x="11" y="19" height="1"/><path class="ab226-1" d="M0,33H6V27H7V26H8V25h2V24h1V23h1V21H11V20H10V19H9V18H8V16H8V15H8V13H9V10h1V9h1V8h7V9h1v1h1v5h1v1H20v3H19v1H18v1H17v2h1v1h1v1h2v1h1v1h1v6h6V0H0Z"/><polygon class="ab226-1" points="15 17 14 17 14 17 15 17 15 16 14 16 14 16 15 16 15 17"/><rect class="ab226-1" x="19" y="16" width="1"/><rect class="ab226-1" x="12" y="20" height="1"/><rect class="ab226-1" x="13" y="21" height="1"/><path class="ab226-2" d="M23,27H22v6h1V27Z"/><path class="ab226-3" d="M21,28v2h1V27H21Z"/><path class="ab226-3" d="M21,31v2h1V31Z"/><rect class="ab226-2" x="21" y="26" width="1" height="1"/><path class="ab226-2" d="M21,30V27H20v6h1V30Z"/><path class="ab226-3" d="M20,32V26H19V25H18v1H17v1H16V25H15v2H14V25H13v2H12V26H11V25H10v1H9v6h1v1h4V32h1v1h4V32Zm-9-3H10V28h1Zm2,2H12V30h1Zm2,0H14V30h1Zm0-2H14V28h1Zm2,2H16V30h1Zm1-2V28h1v1Z"/><path class="ab226-2" d="M20,26h1V25H19v1Z"/><rect class="ab226-3" x="16" y="24" width="1" height="1"/><rect class="ab226-2" x="15" y="24" width="1" height="1"/><rect class="ab226-2" x="14" y="32" width="1" height="1"/><rect class="ab226-2" x="14" y="30" width="1" height="1"/><rect class="ab226-2" x="14" y="28" width="1" height="1"/><path class="ab226-2" d="M14,26v1h1V25H14Z"/><rect class="ab226-2" x="13" y="24" width="1" height="1"/><path class="ab226-4" d="M16,24V23H13v1h1v1h1V24Z"/><rect class="ab226-3" x="12" y="24" width="1" height="1"/><path class="ab226-2" d="M11,26h2V25H12V24h1V23h3v1h1v1H16v1h2V25h1V24H18V23H17V21H16v1H13V21H12v2H11v1H10v1h1Z"/><path class="ab226-2" d="M10,26V25H8v1h2Z"/><path class="ab226-2" d="M9,31V27H8v6H9V31Z"/><path class="ab226-3" d="M7,30H8V27H7v3Z"/><path class="ab226-3" d="M7,31v2H8V31Z"/><rect class="ab226-2" x="7" y="26" width="1" height="1"/><path class="ab226-2" d="M7,30V27H6v6H7V30Z"/><rect class="ab226-5" x="10" y="28" width="1" height="1"/><rect class="ab226-5" x="12" y="30" width="1" height="1"/><path class="ab226-5" d="M12,27h1V26H12Z"/><rect class="ab226-5" x="16" y="30" width="1" height="1"/><rect class="ab226-5" x="18" y="28" width="1" height="1"/><path class="ab226-5" d="M16,27h1V26H16Z"/><path class="ab226-5" d="M9,27V26H8v1Z"/><path class="ab226-5" d="M19,32v1h1V32Z"/><path class="ab226-5" d="M9,32v1h1V32Z"/><path class="ab226-5" d="M7,31H8V30H7Z"/><path class="ab226-5" d="M21,31h1V30H21Z"/><path class="ab226-5" d="M20,27h1V26H20Z"/><polygon class="ab226-2" points="20 16 21 16 21 15 20 15 20 16 20 16"/><rect class="ab226-4" x="18" y="13" width="1" height="1"/><path class="ab226-4" d="M19,17V16H16V15H15V14H14v1H13v1H10v3h1v1h1v1h1v1h3V21h1V20h1V19h1V17Zm-5-1h1v1H14Zm3,3H16v1H13V19H12V18h5Z"/><rect class="ab226-4" x="9" y="15" width="1" height="1"/><polygon class="ab226-4" points="19 16 20 16 20 15 20 15 19 15 19 16"/><path class="ab226-2" d="M19,17v2h1V16H19Z"/><polygon class="ab226-2" points="18 19 18 20 19 20 19 19 18 19 18 19"/><polygon class="ab226-2" points="17 20 17 21 18 21 18 20 17 20 17 20"/><polygon class="ab226-2" points="12 20 11 20 11 20 11 21 12 21 12 20 12 20"/><polygon class="ab226-2" points="11 19 10 19 10 19 10 20 11 20 11 19 11 19"/><path class="ab226-2" d="M10,16H9v2H9v1h1V16Z"/><rect class="ab226-2" x="8" y="15" height="1"/><polygon class="ab226-2" points="15 17 15 16 14 16 14 16 14 17 14 17 15 17"/><path class="ab226-6" d="M11,15H10v1h1Z"/><path class="ab226-6" d="M19,15H18v1h1Z"/><path class="ab226-2" d="M12,18v1h1V18Z"/><path class="ab226-2" d="M16,19h1V18H16Z"/><path class="ab226-2" d="M15,18H14v1H13v1h3V19H15Z"/><path class="ab226-6" d="M14,18H13v1h1Z"/><path class="ab226-6" d="M15,18v1h1V18Z"/><path class="ab226-7" d="M19,14h1V13H19Z"/><path class="ab226-7" d="M9,16H9V14h2V13H8v5H9Z"/><path class="ab226-2" d="M18,14V13H11v1H9v1h2v1h2V15h1V14h1v1h1v1h2V15h2V14H18Z"/><path class="ab226-8" d="M19,12v1h1V11H19Z"/><path class="ab226-9" d="M10,13h1V11h1v2h1V11h1v2h1V11h1v2h1V11h1v2h1V11h1V10H19V9H18V8H11V9H10v1H9v1h1Z"/><path class="ab226-8" d="M18,13V11H17v2Z"/><path class="ab226-8" d="M16,13V11H15v2Z"/><path class="ab226-8" d="M14,12V11H13v2h1Z"/><path class="ab226-8" d="M12,12V11H11v2h1Z"/><path class="ab226-8" d="M10,11H9v2h1Z"/></svg>