<svg xmlns="http://www.w3.org/2000/svg" viewBox="0 0 29 33"><defs><style>polygon,rect,path{shape-rendering:crispedges;}.ma215-1{fill:#b4bd09;}.ma215-2{fill:#000000;}.ma215-3{fill:#ffa9d0;}.ma215-4{fill:#ffffff;}.ma215-5{fill:#ce8452;}.ma215-6{fill:#cc2f76;}.ma215-7{fill:#ffffff;}.ma215-8{fill:#5e362f;}.ma215-9{fill:#5e362f;}.ma215-10{fill:#0068ff;}.ma215-11{fill:#a06415;}</style></defs><path class="ma215-1" d="M0,33H6V27H7V26H8V25h2V24h2V21H11v1H10V21H9V20H8V19H9V16H8V15H9V11h1V10H9V9h1V8h2V7h1V8h3V9h1V8h1V9h1v1h1v5h1v1H20v3h1v1H20v1H17v3h2v1h2v1h1v1h1v6h6V0H0Z"/><rect class="ma215-1" x="12" y="8" width="1" height="1"/><path class="ma215-2" d="M23,27H22v6h1V27Z"/><rect class="ma215-2" x="21" y="26" width="1" height="1"/><path class="ma215-3" d="M21,28h1V27H21Z"/><path class="ma215-3" d="M21,31v1h1V30H21Z"/><path class="ma215-2" d="M21,31V27H20v6h1V31Z"/><path class="ma215-3" d="M18,26v2h1v1h1V27H19V25H18Z"/><path class="ma215-3" d="M19,31V30H18v2h1v1h1V31Z"/><path class="ma215-2" d="M20,26h1V25H19v1Z"/><path class="ma215-2" d="M18,31V25h1V24H17v1H16v1h1v7h1V31Z"/><path class="ma215-4" d="M17,26H16v1H13V26H12v7h5V26Z"/><path class="ma215-2" d="M13,26v1h3V26H13Z"/><path class="ma215-2" d="M13,23h3v1h1V21H16v1H13V21H12v3h1Z"/><path class="ma215-5" d="M13,25v1h3V25h1V24H16V23H13v1H12v1Z"/><path class="ma215-2" d="M12,26h1V25H12V24H10v1h1v8h1V26Z"/><path class="ma215-3" d="M10,26H9v2h1v1h1V27H10Z"/><path class="ma215-3" d="M10,31V30H9v2h1v1h1V31Z"/><path class="ma215-2" d="M10,26V25H8v1h2Z"/><path class="ma215-2" d="M9,31V27H8v6H9V31Z"/><rect class="ma215-2" x="7" y="26" width="1" height="1"/><path class="ma215-3" d="M7,31v2H8V31Z"/><path class="ma215-3" d="M8,29V27H7v2Z"/><path class="ma215-2" d="M7,30V27H6v6H7V30Z"/><path class="ma215-6" d="M21,29v1h1V28H21Z"/><path class="ma215-6" d="M21,32v1h1V32Z"/><path class="ma215-6" d="M19,26v1h2V26H19Z"/><path class="ma215-6" d="M19,28H18v2h1v1h1V29H19Z"/><path class="ma215-6" d="M18,32v1h1V32Z"/><path class="ma215-6" d="M10,27h1V25H10v2Z"/><path class="ma215-6" d="M10,28H9v2h1v1h1V29H10Z"/><path class="ma215-6" d="M9,32v1h1V32Z"/><path class="ma215-6" d="M9,27V26H8v1Z"/><path class="ma215-6" d="M7,30v1H8V29H7Z"/><rect class="ma215-2" x="20" y="15" width="1" height="1"/><rect class="ma215-5" x="10" y="13" width="1" height="1"/><rect class="ma215-5" x="10" y="16" width="1" height="1"/><path class="ma215-5" d="M12,15H11v1h2V15Z"/><rect class="ma215-5" x="9" y="15" width="1" height="1"/><path class="ma215-5" d="M13,22h3V21h1V19H16v1H13V19h3V18h1v1h1V18h1V16h1V15H16V13h3V12H18V11H17V10H16v1H11v1h2v2h1v2h1v1H14V16H13v1H11v2h1v2h1Z"/><path class="ma215-2" d="M17,20v1h1V20Z"/><path class="ma215-2" d="M11,20v1h1V20Z"/><path class="ma215-2" d="M10,14H9v1h1Z"/><rect class="ma215-2" x="8" y="15" width="1" height="1"/><rect class="ma215-2" x="14" y="16" width="1" height="1"/><rect class="ma215-7" x="12" y="14" width="1" height="1"/><path class="ma215-7" d="M18,14v1h1V14Z"/><path class="ma215-7" d="M16,14v1h1V14Z"/><rect class="ma215-2" x="11" y="14" width="1" height="1"/><path class="ma215-2" d="M17,14v1h1V14Z"/><path class="ma215-8" d="M10,13h3V12H10Z"/><path class="ma215-8" d="M18,14h1V13H16v1h2Z"/><path class="ma215-9" d="M19,17v1H18v1H17v1h1v1h2V20h1V19H20V16H19Z"/><path class="ma215-9" d="M10,17V16H9v3H8v1H9v1h1V17Z"/><path class="ma215-9" d="M12,20V19H11v1Z"/><rect class="ma215-2" x="13" y="19" width="3" height="1"/><rect class="ma215-2" x="16" y="18" width="1" height="1"/><path class="ma215-10" d="M10,13V12h1V11h5V10h1v1h1v1h1v3h1V10H19V9H18V8H17V9H16V8H13V9H12V8H10V9H9v1h1v1H9v3h1Z"/><rect class="ma215-10" x="12" y="7" width="1" height="1"/><path class="ma215-11" d="M13,16h1V14H13v2Z"/><path class="ma215-11" d="M11,14h2V13H11Z"/><path class="ma215-11" d="M11,17h2V16H11Z"/><polygon class="ma215-11" points="11 15 11 14 10 14 10 15 10 16 11 16 11 15"/><path class="ma215-11" d="M11,19V17H10v5h1V19Z"/></svg>