<svg xmlns="http://www.w3.org/2000/svg" viewBox="0 0 29 33"><defs><style>polygon,rect,path{shape-rendering:crispedges;}.ra208-1{fill:#d4a122;}.ra208-2{fill:#000000;}.ra208-3{fill:#8e9350;}.ra208-4{fill:#e8b795;}.ra208-5{fill:#ffffff;}.ra208-6{fill:#663228;}.ra208-7{fill:#00774c;}</style></defs><rect class="ra208-1" x="18" y="21" width="1" height="1"/><rect class="ra208-1" x="10" y="21" width="1" height="1"/><path class="ra208-1" d="M0,33H6V27H7V26H8V25h2V24h1V23H10V22H9V21H8V20H9V17H8V12H9V10h1V9h1V8h7V9h1v1h1v2h1v6H20v2h1v1H20v1H19v1H18v1h1v1h2v1h1v1h1v6h6V0H0Z"/><path class="ra208-2" d="M23,27H22v6h1V27Z"/><path class="ra208-3" d="M22,27H21v6h1V27Z"/><rect class="ra208-2" x="21" y="26" width="1" height="1"/><path class="ra208-2" d="M21,27H20v6h1V27Z"/><path class="ra208-3" d="M20,27h1V26H19V25H18V24H16v1h1v5H16V25H13v5H12V25h1V24H11v1H10v1H8v1H9v6H20V27Z"/><path class="ra208-2" d="M20,26h1V25H19v1Z"/><rect class="ra208-2" x="18" y="24" width="1" height="1"/><rect class="ra208-2" x="18" y="22" width="1" height="1"/><rect class="ra208-3" x="17" y="22" width="1" height="1"/><path class="ra208-2" d="M13,24v1h3V24H13Z"/><path class="ra208-4" d="M15,23H13v1h3V23Z"/><path class="ra208-2" d="M13,23h3v1h2V23H17V22h1V20H17v1H16v1H13V21H12V20H11v2h1v1H11v1h2Z"/><rect class="ra208-3" x="11" y="22" width="1" height="1"/><rect class="ra208-2" x="10" y="24" width="1" height="1"/><rect class="ra208-2" x="10" y="22" width="1" height="1"/><path class="ra208-2" d="M10,25H8v1h2Z"/><path class="ra208-2" d="M9,27H8v6H9V27Z"/><path class="ra208-3" d="M8,27H7v6H8V27Z"/><rect class="ra208-2" x="7" y="26" width="1" height="1"/><path class="ra208-2" d="M7,27H6v6H7V27Z"/><path class="ra208-2" d="M12,26v4h1V25H12Z"/><path class="ra208-2" d="M16,30h1V25H16v5Z"/><path class="ra208-4" d="M19,19V16h1V15H16V13h1V11H16V10H15v1H14v1H13v1H12v1h1v1H10v4h1v1h1v1h1v1h3V21h1V20h1V19Zm-5-3h1v1H14Zm2,4H13V19H12V18h1v1h3Z"/><path class="ra208-4" d="M17,14h2V13H17Z"/><path class="ra208-2" d="M19,16v3h1V16Z"/><rect class="ra208-2" x="18" y="19" width="1" height="1"/><rect class="ra208-2" x="10" y="19" width="1" height="1"/><path class="ra208-2" d="M10,18H9v1h1Z"/><rect class="ra208-2" x="14" y="16" width="1" height="1"/><path class="ra208-5" d="M13,15V14H12v1Z"/><path class="ra208-5" d="M11,14H10v1h1Z"/><path class="ra208-5" d="M18,15h1V14H18Z"/><path class="ra208-5" d="M16,14v1h1V14Z"/><path class="ra208-2" d="M12,15V14H11v1Z"/><path class="ra208-2" d="M17,14v1h1V14Z"/><path class="ra208-6" d="M17,13H16v1h1Z"/><path class="ra208-6" d="M18,13V12H17v1Z"/><rect class="ra208-2" x="13" y="19" width="3" height="1"/><rect class="ra208-2" x="12" y="18" width="1" height="1"/><path class="ra208-7" d="M19,20H18v1h1v1h1V21h1V20H20V19H19Z"/><path class="ra208-7" d="M11,21V20H10V19H9v1H8v1H9v1h1V21Z"/><path class="ra208-7" d="M10,17V14h2V13h1V12h1V11h1V10h1v1h1v1h1v1h1v2h1v3h1V12H20V10H19V9H18V8H11V9H10v1H9v2H8v5H9v1h1Z"/></svg>