<svg xmlns="http://www.w3.org/2000/svg" viewBox="0 0 29 33"><defs><style>polygon,rect,path{shape-rendering:crispedges;}.za15-1{fill:#e55b35;}.za15-2{fill:#000000;}.za15-3{fill:#95f9ed;}.za15-4{fill:#ce8452;}.za15-5{fill:#b3ffa1;}.za15-6{fill:#ffffff;}.za15-7{fill:#004a77;}.za15-8{fill:#004a77;}.za15-9{fill:#d8be00;}.za15-10{fill:#455054;}.za15-11{fill:#002b4f;}.za15-12{fill:#ff1f4a;}</style></defs><path class="za15-1" d="M0,33H8V32H6V31H5V22H6V21H7V20H5v1H2V17H5V16H8V15H9V14H8V11H9V10h1V9h2V8h5V9h1v1h1v1h1v4h1v1H20v3H19v1H18v1H17v2h1v1h1v1h2v1h1v1h1v6h6V0H0Z"/><path class="za15-1" d="M8,18v4H9v2H8v1h2V24h1V23h1V21H11V20H10V19H9V16H8v2Z"/><path class="za15-2" d="M6,29V22H5v9H6V29Z"/><path class="za15-2" d="M23,27H22v6h1V27Z"/><path class="za15-3" d="M21,31v1h1V30H21Z"/><path class="za15-3" d="M21,28h1V27H21Z"/><rect class="za15-2" x="21" y="26" width="1" height="1"/><path class="za15-2" d="M21,31V27H20v6h1V31Z"/><path class="za15-3" d="M16,31V30H15v2h1v1h1V31Z"/><path class="za15-3" d="M19,31V30H18V28H17V27H16V25H15v3h1v1h1v2h1v1h1v1h1V31Z"/><rect class="za15-3" x="14" y="29" width="1" height="1"/><path class="za15-3" d="M14,31H13V30H12V28H11V27H10V26H9v2h1v1h1v2h1v1h1v1h1V31Z"/><path class="za15-3" d="M13,29h1V27H13V26H12v2h1Z"/><path class="za15-3" d="M18,26v2h1v1h1V27H19V25H18Z"/><path class="za15-3" d="M10,31V30H9v2h1v1h1V31Z"/><path class="za15-2" d="M20,26h1V25H19v1Z"/><rect class="za15-3" x="16" y="24" width="1" height="1"/><rect class="za15-2" x="15" y="24" width="1" height="1"/><path class="za15-2" d="M14,32v1h1V32Z"/><path class="za15-2" d="M14,31h1V30H14Z"/><path class="za15-2" d="M14,29h1V28H14Z"/><path class="za15-2" d="M14,26v1h1V25H14Z"/><rect class="za15-2" x="13" y="24" width="1" height="1"/><path class="za15-4" d="M16,24V23H13v1h1v1h1V24Z"/><path class="za15-2" d="M9,31V27H8V26h2V25H8V24H7v7H6v1H8v1H9V31Z"/><path class="za15-3" d="M6,26v2H7V25H6Z"/><path class="za15-3" d="M7,30H6v1H7Z"/><path class="za15-5" d="M19,28H18v2h1v1h1V29H19Z"/><path class="za15-5" d="M21,29v1h1V28H21Z"/><path class="za15-5" d="M21,32v1h1V32Z"/><path class="za15-5" d="M16,26v1h1v1h1V26Z"/><path class="za15-5" d="M19,26v1h2V26H19Z"/><path class="za15-5" d="M18,32V31H17v2h2V32Z"/><path class="za15-5" d="M15,30h1v1h1V29H16V28H15v2Z"/><path class="za15-5" d="M14,28h1V27H14Z"/><path class="za15-5" d="M14,27V25H13v2Z"/><path class="za15-5" d="M14,32h1V31H14Z"/><rect class="za15-5" x="15" y="32" width="1" height="1"/><path class="za15-5" d="M14,29H13V28H12v2h1v1h1V29Z"/><rect class="za15-5" x="12" y="24" width="1" height="1"/><path class="za15-5" d="M11,26V25H10v2h1v1h1V26Z"/><path class="za15-5" d="M12,32V31H11v2h2V32Z"/><path class="za15-5" d="M10,30v1h1V29H10V28H9v2Z"/><path class="za15-5" d="M6,25H7V24H6Z"/><path class="za15-5" d="M6,29v1H7V28H6Z"/><path class="za15-5" d="M9,32v1h1V32Z"/><path class="za15-5" d="M8,27H9V26H8Z"/><rect class="za15-2" x="20" y="15" width="1" height="1"/><path class="za15-4" d="M10,16v3h1v1h1v1h1v1h3V21h1V20h1V19h1V16h1V15H16V14h2V13H16V12h2v1h1V11H18V10H14v1H12v2h1v2H9v1Zm4,0h1v1H14Zm-2,2h5v1H16v1H13V19H12Z"/><path class="za15-4" d="M10,13v1h2V13H10Z"/><path class="za15-2" d="M19,17v2h1V16H19Z"/><rect class="za15-2" x="18" y="19" width="1" height="1"/><rect class="za15-2" x="17" y="20" width="1" height="1"/><path class="za15-2" d="M16,22H13V21H12v2H11v1H10v1h1v1h2V25H12V24h1V23h3v1h1v1H16v1h2V25h1V24H18V23H17V21H16Z"/><rect class="za15-2" x="11" y="20" width="1" height="1"/><rect class="za15-2" x="10" y="19" width="1" height="1"/><path class="za15-2" d="M10,16H9v3h1V16Z"/><rect class="za15-2" x="8" y="15" width="1" height="1"/><rect class="za15-2" x="14" y="16" width="1" height="1"/><path class="za15-6" d="M12,15h1V14H12Z"/><path class="za15-6" d="M10,14v1h1V14Z"/><path class="za15-6" d="M18,14v1h1V14Z"/><path class="za15-6" d="M16,14v1h1V14Z"/><path class="za15-2" d="M11,14v1h1V14Z"/><path class="za15-2" d="M17,14v1h1V14Z"/><rect class="za15-7" x="18" y="13" width="1" height="1"/><rect class="za15-7" x="16" y="12" width="2" height="1"/><path class="za15-7" d="M13,14V13H12v1Z"/><path class="za15-7" d="M11,13h1V12H11Z"/><path class="za15-8" d="M16,19V18H12v1h4Z"/><path class="za15-2" d="M13,20h3V19H13Z"/><path class="za15-2" d="M17,19V18H16v1Z"/><path class="za15-9" d="M19,14v1h1V11H19v3Z"/><rect class="za15-9" x="18" y="10" width="1" height="1"/><path class="za15-9" d="M10,14V13h1V12h1V11h2V10h4V9H17V8H12V9H10v1H9v1H8v3H9v1h1Z"/><path class="za15-4" d="M7,24H8V22H6v2Z"/><path class="za15-10" d="M8,22V20H7v2Z"/><path class="za15-2" d="M7,21H6v1H7Z"/><path class="za15-2" d="M9,22H8v2H9Z"/><path class="za15-11" d="M4,21H5V20H4Z"/><path class="za15-11" d="M5,18V17H4v1Z"/><path class="za15-11" d="M3,19V18H2v2H3Z"/><path class="za15-11" d="M5,19v1H6V19Z"/><path class="za15-11" d="M6,16H5v1H6Z"/><path class="za15-11" d="M8,17H7v2H8V17Z"/><path class="za15-12" d="M3,17H2v1H3Z"/><path class="za15-12" d="M6,17v1H3v2H4V19H7V17Z"/><path class="za15-12" d="M8,17V16H7v1Z"/><path class="za15-12" d="M8,19H7v1H8Z"/><path class="za15-12" d="M2,20v1H3V20Z"/><path class="za15-6" d="M3,20v1H4V20Z"/><path class="za15-6" d="M4,19v1H5V19Z"/><path class="za15-6" d="M4,18V17H3v1Z"/><path class="za15-6" d="M7,17V16H6v1Z"/><path class="za15-6" d="M6,18V17H5v1Z"/><path class="za15-6" d="M6,19v1H7V19Z"/></svg>