<svg xmlns="http://www.w3.org/2000/svg" viewBox="0 0 29 33"><defs><style>polygon,rect,path{shape-rendering:crispedges;}.ea127-1{fill:#6b4f99;}.ea127-2{fill:#000000;}.ea127-3{fill:#db5800;}.ea127-4{fill:#e8b795;}.ea127-5{fill:#ffffff;}.ea127-6{fill:#7f5018;}.ea127-7{fill:#685432;}.ea127-8{fill:#00af68;}</style></defs><path class="ea127-1" d="M0,33H6V27H7V26H8V25h2V24h2V21H11V20H10V19H9V16H8V15H9V13H8V9H9V8h1V7h1V6h7V7h1V8h1V9h1v4H20v2h1v1H20v3H19v1H18v1H17v3h2v1h2v1h1v1h1v6h6V0H0Z"/><path class="ea127-2" d="M23,27H22v3H21V27H20v6h1V31h1v2h1V27Z"/><rect class="ea127-2" x="21" y="26" width="1" height="1"/><path class="ea127-3" d="M21,28v2h1V27H21Z"/><path class="ea127-4" d="M21,31v2h1V31Z"/><path class="ea127-2" d="M20,26h1V25H19v1Z"/><path class="ea127-3" d="M20,27h1V26H19V25H17v1H16v1H13V26H12V25H10v1H8v1H9v6H20V27Z"/><path class="ea127-2" d="M18,25h1V24H17v1Z"/><rect class="ea127-2" x="16" y="25" width="1" height="1"/><path class="ea127-2" d="M13,26v1h3V26H13Z"/><path class="ea127-2" d="M13,23V22H12v2h1Z"/><path class="ea127-4" d="M13,25v1h3V25h1V24H16V23H13v1H12v1Z"/><rect class="ea127-2" x="12" y="25" width="1" height="1"/><path class="ea127-2" d="M12,24H10v1h2Z"/><path class="ea127-2" d="M10,25H8v1h2Z"/><path class="ea127-2" d="M9,27H8v3H7V27H6v6H7V31H8v2H9V27Z"/><rect class="ea127-2" x="7" y="26" width="1" height="1"/><path class="ea127-3" d="M7,30H8V27H7v3Z"/><path class="ea127-4" d="M7,31v2H8V31Z"/><rect class="ea127-2" x="20" y="15" width="1" height="1"/><path class="ea127-2" d="M19,15h1V14H19Z"/><rect class="ea127-4" x="15" y="20" width="1" height="1"/><path class="ea127-4" d="M10,17v1h1v1h1V18h2v1h1V18h2v1h1V18h1V16h1V15H16V14h3V13H16V12h2V11H11v1h2v1H10v1h3v1H9v1h1Zm4-1h1v1H14Z"/><rect class="ea127-4" x="13" y="20" width="1" height="1"/><path class="ea127-2" d="M19,17h1V16H19Z"/><path class="ea127-2" d="M16,23v1h1V22H16Z"/><path class="ea127-2" d="M10,14H9v1h1Z"/><path class="ea127-2" d="M10,16H9v1h1Z"/><rect class="ea127-2" x="8" y="15" width="1" height="1"/><rect class="ea127-2" x="14" y="16" width="1" height="1"/><path class="ea127-5" d="M13,15V14H12v1Z"/><path class="ea127-5" d="M11,15V14H10v1Z"/><path class="ea127-5" d="M18,14v1h1V14Z"/><path class="ea127-5" d="M16,14v1h1V14Z"/><path class="ea127-2" d="M12,15V14H11v1Z"/><path class="ea127-2" d="M17,14v1h1V14Z"/><path class="ea127-6" d="M10,13h3V12H10Z"/><polygon class="ea127-6" points="18 12 16 12 16 13 19 13 19 12 18 12"/><path class="ea127-7" d="M15,18v1h1V18Z"/><path class="ea127-7" d="M13,23h3V22h1V21h1V20h1V19h1V17H19v1H18v1H16v2H15V20H14v1H13V19h1V18H12v1H11V18H10V17H9v2h1v1h1v1h1v1h1Z"/><path class="ea127-2" d="M14,19H13v1h3V19H14Z"/><path class="ea127-2" d="M16,18v1h1V18Z"/><path class="ea127-8" d="M10,13V12h1V11h7v1h1v2h1V13h1V9H20V8H19V7H18V6H11V7H10V8H9V9H8v4H9v1h1Z"/></svg>