<svg xmlns="http://www.w3.org/2000/svg" viewBox="0 0 29 33"><defs><style>polygon,rect,path{shape-rendering:crispedges;}.ja139-1{fill:#e55b35;}.ja139-2{fill:#000000;}.ja139-3{fill:#014731;}.ja139-4{fill:#d8be00;}.ja139-5{fill:#512a24;}.ja139-6{fill:#ffffff;}.ja139-7{fill:#492a23;}.ja139-8{fill:#99004d;}.ja139-9{fill:#00774c;}.ja139-10{fill:#ff6aa5;}.ja139-11{fill:#ad5a21;}</style></defs><path class="ja139-1" d="M6,32V25H7V23H8V22h3v1h1V21H10V20H9V18H8V13H9V11h1V10h1V9h7v1h1v1h1v1h1v6H20v2H19v1H17v3h2v1h2v1h1v1h1v6h6V0H0V33H6Z"/><path class="ja139-2" d="M23,27H22v6h1V27Z"/><rect class="ja139-2" x="21" y="26" width="1" height="1"/><path class="ja139-3" d="M21,28h1V27H21Z"/><path class="ja139-3" d="M21,31v1h1V30H21Z"/><path class="ja139-2" d="M21,31V27H20v6h1V31Z"/><path class="ja139-2" d="M20,26h1V25H19v1Z"/><rect class="ja139-3" x="16" y="24" width="1" height="1"/><path class="ja139-3" d="M16,31V30H15V28H14V27H13V25H12v3h1v1h1v2h1v1h1v1h1V31Z"/><path class="ja139-3" d="M13,31V30H12V28H11V27H9v1h1v1h1v2h1v1h1v1h1V31Z"/><path class="ja139-3" d="M17,25v1h1v2h1v1h1V27H19V25H17Z"/><path class="ja139-3" d="M19,31V30H18V28H17V27H16V25H15V24H14V23H13v2h1v1h1v2h1v1h1v2h1v1h1v1h1V31Z"/><rect class="ja139-3" x="20" y="26" width="1" height="1"/><path class="ja139-3" d="M10,31V30H9v2h1v1h1V31Z"/><path class="ja139-2" d="M18,25h1V24H17v1Z"/><path class="ja139-2" d="M13,24V23h3v1h1V21H16v1H13V21H12v3Z"/><path class="ja139-2" d="M9,31V27H8v6H9V31Z"/><path class="ja139-3" d="M7,31v2H8V31Z"/><path class="ja139-3" d="M7,28v1H8V27H7Z"/><path class="ja139-2" d="M7,30V25H6v8H7V30Z"/><path class="ja139-4" d="M19,28H18v2h1v1h1V29H19Z"/><path class="ja139-4" d="M21,32v1h1V32Z"/><path class="ja139-4" d="M17,26V25H16v2h1v1h1V26Z"/><path class="ja139-4" d="M19,26v1h1V26Z"/><path class="ja139-4" d="M21,29v1h1V28H21Z"/><path class="ja139-4" d="M18,32V31H17v2h2V32Z"/><path class="ja139-4" d="M16,30v1h1V29H16V28H15v2Z"/><path class="ja139-4" d="M16,23H14v1h1v1h1V23Z"/><path class="ja139-4" d="M14,27v1h1V26H14V25H13v2Z"/><path class="ja139-4" d="M15,32V31H14v2h2V32Z"/><path class="ja139-4" d="M13,30v1h1V29H13V28H12v2Z"/><path class="ja139-4" d="M12,25h1V24H12Z"/><path class="ja139-4" d="M11,27v1h1V26H11Z"/><path class="ja139-4" d="M12,32V31H11v2h2V32Z"/><path class="ja139-4" d="M10,30v1h1V29H10V28H9v2Z"/><path class="ja139-4" d="M9,32v1h1V32Z"/><path class="ja139-4" d="M7,30v1H8V29H7Z"/><rect class="ja139-2" x="19" y="14" width="1" height="1"/><rect class="ja139-5" x="11" y="13" width="1" height="1"/><rect class="ja139-5" x="9" y="15" width="1" height="1"/><rect class="ja139-5" x="17" y="11" width="1" height="1"/><rect class="ja139-5" x="12" y="12" width="1" height="1"/><path class="ja139-5" d="M13,22h3V21h1V20h1V15H16v1H15v1H14V16h1V14h1V12H15V11H14v4H13v2H12V15H11v5h1v1h1Zm0-3h3V18h1v1H16v1H13Z"/><rect class="ja139-5" x="19" y="15" width="1" height="1"/><rect class="ja139-5" x="17" y="13" width="1" height="1"/><rect class="ja139-2" x="19" y="16" width="1" height="1"/><rect class="ja139-2" x="9" y="16" width="1" height="1"/><rect class="ja139-2" x="14" y="16" width="1" height="1"/><rect class="ja139-6" x="12" y="14" width="1" height="1"/><path class="ja139-6" d="M16,14v1h1V14Z"/><rect class="ja139-2" x="11" y="14" width="1" height="1"/><path class="ja139-2" d="M17,14v1h1V14Z"/><rect class="ja139-7" x="17" y="12" width="1" height="1"/><rect class="ja139-7" x="12" y="13" width="1" height="1"/><rect class="ja139-7" x="11" y="12" width="1" height="1"/><path class="ja139-8" d="M19,18H18v2H17v1h2V18Z"/><rect class="ja139-8" x="19" y="17" width="1" height="1"/><path class="ja139-8" d="M11,20V18H10v3h2V20Z"/><rect class="ja139-8" x="9" y="17" width="1" height="1"/><rect class="ja139-2" x="13" y="19" width="3" height="1"/><rect class="ja139-2" x="16" y="18" width="1" height="1"/><path class="ja139-9" d="M9,16V15h1v3h1V12h2v3h1V11h1v1h1v2h1V11h1v7h1V14h1v4h1V12H20V11H19V10H18V9H11v1H10v1H9v2H8v5H9V16Z"/><path class="ja139-9" d="M19,19v1h1V18H19Z"/><path class="ja139-9" d="M15,14v2h1V14Z"/><path class="ja139-9" d="M12,16v1h1V15H12Z"/><path class="ja139-9" d="M9,18v2h1V18Z"/><path class="ja139-5" d="M8,27H9V25H7v2Z"/><path class="ja139-10" d="M8,23H7v1H8Z"/><path class="ja139-10" d="M9,22H8v1H9Z"/><path class="ja139-10" d="M11,23V22H10v1Z"/><path class="ja139-10" d="M11,26V25H9v1h2Z"/><rect class="ja139-10" x="11" y="24" width="1" height="1"/><path class="ja139-11" d="M8,25H9V24h1v1h1V23H8v2Z"/><path class="ja139-11" d="M10,26H9v1h2V26Z"/><path class="ja139-6" d="M8,24H7v1H8Z"/><path class="ja139-6" d="M10,23V22H9v1Z"/><path class="ja139-6" d="M12,24V23H11v1Z"/><path class="ja139-6" d="M11,26h1V25H11Z"/><path class="ja139-2" d="M10,24H9v1h1Z"/></svg>