<svg xmlns="http://www.w3.org/2000/svg" viewBox="0 0 29 33"><defs><style>polygon,rect,path{shape-rendering:crispedges;}polygon,rect,path{shape-rendering:crispedges;}.lb72-1{fill:#a9a9a9;}.lb72-2{fill:#000000;}.lb72-3{fill:#bbbbbb;}.lb72-4{fill:#04263a;}.lb72-5{fill:#0068f5;}.lb72-6{fill:#008dff;}.lb72-7{fill:#008b4c;}.lb72-8{fill:#ffffff;}.lb72-9{fill:#004480;}.lb72-10{fill:#6d3e35;}.lb72-11{fill:#00774c;}.lb72-12{fill:#00774c;}.lb72-13{fill:#72dd40;}.lb72-14{fill:#455054;}.lb72-15{fill:#00af68;}.lb72-16{fill:#ffce00;}.lb72-17{fill:#002b4f;}</style></defs><path class="lb72-1" d="M28,25H27v1h2V24H28Z"/><path class="lb72-2" d="M0,0V23H4V22H5v9H6V22H7V20H5v1H2V17H5V16H8v3H9V15h1v1h1v1h2V16h1V15h1v1h1v1h2V16h1V15h1v4h1v1H20v1h1v1h5v1h3V0H0ZM21,12v2H9V11h1V10h1V9h1V8h5V9h2v1h1v1h1Zm6-7V7H22V6H21V5H20V4h1V3h1V2h3V3h1V4h1Z"/><rect class="lb72-2" x="8" y="20" width="1" height="1"/><path class="lb72-1" d="M27,32H26V31H23v2h5V32Z"/><path class="lb72-1" d="M25,27v1H24v2h4v1h1V27H25Z"/><path class="lb72-3" d="M11,23H10v1h2V23Z"/><path class="lb72-3" d="M10,22h2V21H8v1h2Z"/><path class="lb72-3" d="M19,24V23H17v1h2Z"/><path class="lb72-3" d="M27,24H26v1H25v1H23v5h3v1h2v1h1V31H28V30H24V28h1V27h4V26H27V25h1V24h1V23H27Z"/><path class="lb72-3" d="M9,24H8v1h2V24Z"/><path class="lb72-3" d="M21,25V24H19v1h2Z"/><path class="lb72-3" d="M4,32V31H5V26H2V25H1V24H0v2H1v1H3v1H4v2H2v1H0v2H3V32Z"/><path class="lb72-3" d="M22,23H21v1h1v1H21v1h2V24h1V23h2V22H23v1Z"/><path class="lb72-3" d="M7,32H6v1H8V32Z"/><path class="lb72-3" d="M17,21v1h4V21H17Z"/><path class="lb72-3" d="M2,24H4v1H5V22H4v1H1v1Z"/><path class="lb72-4" d="M26,7h1V6H26Z"/><path class="lb72-5" d="M26,5V6h1V4H26Z"/><path class="lb72-5" d="M25,6V7h1V6Z"/><rect class="lb72-6" x="25" y="5" width="1" height="1"/><rect class="lb72-7" x="25" y="4" width="1" height="1"/><rect class="lb72-8" x="25" y="3" width="1" height="1"/><path class="lb72-1" d="M24,24H23v2h2V25h1V24h1V23H24Z"/><path class="lb72-7" d="M24,5H23V6h2V5Z"/><rect class="lb72-8" x="24" y="4" width="1" height="1"/><rect class="lb72-5" x="24" y="3" width="1" height="1"/><path class="lb72-9" d="M24,6H23V7h2V6Z"/><rect class="lb72-6" x="23" y="4" width="1" height="1"/><path class="lb72-1" d="M22,27h1V26H22Z"/><path class="lb72-4" d="M22,6V7h1V6Z"/><rect class="lb72-6" x="22" y="5" width="1" height="1"/><rect class="lb72-5" x="22" y="4" width="1" height="1"/><path class="lb72-7" d="M23,4h1V3h1V2H23V3H22V4Z"/><path class="lb72-6" d="M23,2H22V3h1Z"/><rect class="lb72-1" x="21" y="24" width="1" height="1"/><rect class="lb72-9" x="21" y="5" width="1" height="1"/><rect class="lb72-7" x="21" y="4" width="1" height="1"/><rect class="lb72-8" x="21" y="3" width="1" height="1"/><rect class="lb72-5" x="20" y="4" width="1" height="1"/><path class="lb72-1" d="M17,22v1h2v1h2V23h2V22H17Z"/><path class="lb72-1" d="M9,22v2h1V23h2V22H9Z"/><path class="lb72-1" d="M6,31H4v1H3v1H6V31Z"/><path class="lb72-1" d="M2,30H4V28H3V27H1V26H0v5H2Z"/><path class="lb72-1" d="M4,24H1v1H2v1H5V25H4Z"/><path class="lb72-1" d="M1,23H0v1H1Z"/><path class="lb72-2" d="M23,27H22v6h1V27Z"/><path class="lb72-10" d="M22,27H21v6h1V27Z"/><path class="lb72-2" d="M21,26v1h1V26Z"/><path class="lb72-2" d="M21,27H20v6h1V27Z"/><path class="lb72-10" d="M20,27h1V26H19V25H17V24H16V23H13v1H12v1H10v1H8v1H9v6h5V29h1v4h5V27Zm-8,2H11V28h1Zm6,0H17V28h1Z"/><path class="lb72-2" d="M20,25H19v1h2V25Z"/><rect class="lb72-2" x="17" y="28" width="1" height="1"/><path class="lb72-2" d="M18,24H17v1h2V24Z"/><path class="lb72-2" d="M15,29H14v4h1V29Z"/><rect class="lb72-2" x="11" y="28" width="1" height="1"/><path class="lb72-2" d="M10,25h2V24H10Z"/><path class="lb72-2" d="M9,27H8V26h2V25H8V24H7v7H6v1H8v1H9V27Z"/><path class="lb72-10" d="M11,18v1h1v2h1v1h3V21h1V19H16v1H13V19h3V18h1v1h1V18h1V16H18v1H16V16H15v1H14V16H13v1H11V16H10v2Z"/><path class="lb72-10" d="M20,15H19v1h1Z"/><rect class="lb72-10" x="14" y="15" width="1" height="1"/><path class="lb72-10" d="M16,13V12h1V11H15V10H11v1H10v1h2v1h1v1h5V13Z"/><path class="lb72-10" d="M10,13v1h2V13Z"/><path class="lb72-10" d="M10,15H9v1h1Z"/><path class="lb72-2" d="M18,20H17v1h1Z"/><path class="lb72-2" d="M17,22V21H16v1H13V21H12v3h1V23h3v1h1V22Z"/><path class="lb72-2" d="M12,20H11v1h1Z"/><rect class="lb72-2" x="14" y="16" width="1" height="1"/><path class="lb72-11" d="M18,18v1H17v1h1v1h2V20h1V19H20V16H19v2Z"/><path class="lb72-11" d="M9,20v1h2V20h1V19H11V18H10V16H9v3H8v1Z"/><path class="lb72-12" d="M18,13v1h1V13Z"/><path class="lb72-12" d="M16,13h2V12H16Z"/><path class="lb72-12" d="M12,13v1h1V13Z"/><rect class="lb72-12" x="10" y="12" width="2" height="1"/><rect class="lb72-2" x="13" y="19" width="3" height="1"/><rect class="lb72-2" x="16" y="18" width="1" height="1"/><path class="lb72-13" d="M10,12V11H9v3h1V12Z"/><rect class="lb72-13" x="10" y="10" width="1" height="1"/><path class="lb72-13" d="M20,10H19V9H17V8H12V9H11v1h4v1h2v1h1v1h1v1h2V11H20Z"/><path class="lb72-10" d="M7,24H8V22H6v9H7Z"/><path class="lb72-14" d="M8,21V20H7v2H8Z"/><path class="lb72-15" d="M3,20V18H4V17H2v4H4V20Z"/><path class="lb72-15" d="M8,19V16H6v1H7v2H6v1H8Z"/><path class="lb72-2" d="M9,22H8v2H9Z"/><path class="lb72-16" d="M3,20H4V18H3Z"/><path class="lb72-16" d="M5,18V17H4v1Z"/><path class="lb72-16" d="M6,16H5v1H6Z"/><path class="lb72-17" d="M6,19V17H5v1H4v2H5V19Z"/><path class="lb72-16" d="M4,21H5V20H4Z"/><path class="lb72-16" d="M5,19v1H6V19Z"/><path class="lb72-16" d="M7,19V17H6v2Z"/></svg>