<svg xmlns="http://www.w3.org/2000/svg" viewBox="0 0 29 33"><defs><style>polygon,rect,path{shape-rendering:crispedges;}.za174-1{fill:#d4a122;}.za174-2{fill:#000000;}.za174-3{fill:#316a6d;}.za174-4{fill:#ce8452;}.za174-5{fill:#68aa7b;}.za174-6{fill:#ffffff;}.za174-7{fill:#317f03;}.za174-8{fill:#317f03;}.za174-9{fill:#e70059;}.za174-10{fill:#ff1d99;}.za174-11{fill:#c9936f;}.za174-12{fill:#e8b592;}.za174-13{fill:#004b68;}.za174-14{fill:#fad000;}</style></defs><path class="za174-1" d="M0,33H6V27H7V26H8V25h2V24h1V23h1V21H11V20H10V19H9V16H8V15H9V13H8V9H9V8h1V7h1V6h7V7h1V8h1V9h1v4H20v2h1v2h1V16h1v1h1V16h1v7H24v8H23v1H21v1h8V0H0Z"/><path class="za174-1" d="M20,23V19H19v1H18v1H17v2h1v1h1v1h2V23Z"/><path class="za174-2" d="M23,26v5h1V25H23Z"/><path class="za174-2" d="M7,30V27H6v6H7V30Z"/><path class="za174-3" d="M8,29V27H7v2Z"/><path class="za174-3" d="M7,31v2H8V31Z"/><rect class="za174-2" x="7" y="26" width="1" height="1"/><path class="za174-2" d="M9,31V27H8v6H9V31Z"/><path class="za174-3" d="M13,29h1V27H13V26H12v2h1Z"/><path class="za174-3" d="M10,31V30H9v2h1v1h1V31Z"/><rect class="za174-3" x="14" y="29" width="1" height="1"/><path class="za174-3" d="M19,31V30H18V28H17V27H16V25H15v3h1v1h1v2h1v1h1v1h1V31Z"/><path class="za174-3" d="M18,26v2h1v1h1V27H19V25H18Z"/><path class="za174-3" d="M16,31V30H15v2h1v1h1V31Z"/><path class="za174-3" d="M14,31H13V30H12V28H11V27H10V26H9v2h1v1h1v2h1v1h1v1h1V31Z"/><path class="za174-2" d="M10,26V25H8v1h2Z"/><path class="za174-2" d="M11,26h2V25H12V24h1V23h3v1h1v1H16v1h2V25h1V24H18V23H17V21H16v1H13V21H12v2H11v1H10v1h1Z"/><rect class="za174-2" x="13" y="24" width="1" height="1"/><path class="za174-2" d="M14,32v1h1V32Z"/><path class="za174-2" d="M14,31h1V30H14Z"/><path class="za174-2" d="M14,29h1V28H14Z"/><path class="za174-2" d="M14,26v1h1V25H14Z"/><rect class="za174-2" x="15" y="24" width="1" height="1"/><path class="za174-4" d="M16,24V23H13v1h1v1h1V24Z"/><rect class="za174-3" x="16" y="24" width="1" height="1"/><path class="za174-2" d="M22,32h1V31H22V25H19v1h2v1H20v6h1V32Z"/><path class="za174-3" d="M23,28V27H22v2h1Z"/><path class="za174-5" d="M19,28H18v2h1v1h1V29H19Z"/><path class="za174-5" d="M16,26v1h1v1h1V26Z"/><path class="za174-5" d="M22,29v2h1V29Z"/><path class="za174-5" d="M20,27h1V26H19v1Z"/><path class="za174-5" d="M23,26V25H22v2h1Z"/><path class="za174-5" d="M18,32V31H17v2h2V32Z"/><path class="za174-5" d="M15,30h1v1h1V29H16V28H15v2Z"/><path class="za174-5" d="M14,28h1V27H14Z"/><polygon class="za174-5" points="14 27 14 26 14 25 13 25 13 26 13 27 14 27"/><rect class="za174-5" x="15" y="32" width="1" height="1"/><path class="za174-5" d="M14,32h1V31H14Z"/><path class="za174-5" d="M14,29H13V28H12v2h1v1h1V29Z"/><rect class="za174-5" x="12" y="24" width="1" height="1"/><path class="za174-5" d="M10,27h1v1h1V26H11V25H10v2Z"/><path class="za174-5" d="M12,32V31H11v2h2V32Z"/><path class="za174-5" d="M10,30v1h1V29H10V28H9v2Z"/><path class="za174-5" d="M9,32v1h1V32Z"/><path class="za174-5" d="M9,27V26H8v1Z"/><path class="za174-5" d="M7,30v1H8V29H7Z"/><path class="za174-2" d="M21,16V15H20v1Z"/><path class="za174-2" d="M19,15h1V14H19Z"/><rect class="za174-4" x="12" y="19" width="1" height="1"/><path class="za174-4" d="M12,19V18h5v1h2V16h1V15H16V13h1V12h1V11H11v1h2v1H11v1h2v1H9v1h1v3h2Zm2-3h1v1H14Z"/><rect class="za174-4" x="13" y="20" width="1" height="1"/><rect class="za174-4" x="16" y="19" width="1" height="1"/><polygon class="za174-4" points="18 14 19 14 19 13 17 13 17 14 18 14"/><rect class="za174-4" x="15" y="20" width="1" height="1"/><rect class="za174-4" x="10" y="12" width="1" height="1"/><path class="za174-2" d="M20,18V16H19v3h1Z"/><path class="za174-2" d="M19,20V19H18v1Z"/><rect class="za174-2" x="17" y="20" width="1" height="1"/><rect class="za174-2" x="11" y="20" width="1" height="1"/><path class="za174-2" d="M10,19v1h1V19Z"/><path class="za174-2" d="M10,14H9v1h1Z"/><path class="za174-2" d="M10,16H9v3h1V16Z"/><rect class="za174-2" x="8" y="15" width="1" height="1"/><rect class="za174-2" x="14" y="16" width="1" height="1"/><path class="za174-6" d="M13,15V14H12v1Z"/><path class="za174-6" d="M10,15h1V14H10Z"/><path class="za174-6" d="M18,14v1h1V14Z"/><path class="za174-6" d="M16,14v1h1V14Z"/><path class="za174-2" d="M12,15V14H11v1Z"/><path class="za174-2" d="M17,14v1h1V14Z"/><rect class="za174-7" x="10" y="13" width="1" height="1"/><rect class="za174-7" x="11" y="12" width="2" height="1"/><path class="za174-7" d="M17,13H16v1h1Z"/><path class="za174-7" d="M19,12H17v1h2Z"/><path class="za174-8" d="M18,20V19H17v1Z"/><rect class="za174-8" x="16" y="20" width="1" height="1"/><path class="za174-8" d="M15,20H14v1H13v1h3V21H15Z"/><rect class="za174-8" x="12" y="20" width="1" height="1"/><path class="za174-8" d="M12,19H11v1h1Z"/><path class="za174-2" d="M13,18H12v1h1Z"/><path class="za174-2" d="M17,19V18H16v1Z"/><rect class="za174-2" x="15" y="19" width="1" height="1"/><path class="za174-2" d="M15,19V18H14v1Z"/><rect class="za174-2" x="13" y="19" width="1" height="1"/><path class="za174-6" d="M14,19V18H13v1Z"/><path class="za174-6" d="M16,19V18H15v1Z"/><rect class="za174-9" x="14" y="19" width="1" height="1"/><path class="za174-10" d="M10,13V12h1V11h7v1h1v2h1V13h1V9H20V8H19V7H18V6H11V7H10V8H9V9H8v4H9v1h1Z"/><path class="za174-11" d="M21,23V22H20v1Z"/><path class="za174-11" d="M24,22.111V23h1V22H24Z"/><rect class="za174-2" x="21" y="19" width="1" height="1"/><rect class="za174-2" x="23" y="19" width="1" height="1"/><path class="za174-12" d="M24,22H21v1h3V22Z"/><path class="za174-12" d="M23,20V19H22v1H20v2h1V21h3v1h1V20H23Z"/><path class="za174-13" d="M21,23v2h3V23H21Z"/><path class="za174-14" d="M20,18v2h1V19h3v1h1V18H20Z"/><path class="za174-2" d="M24,22V21H21v1h3Z"/><path class="za174-6" d="M20,17v1h5V16H24v1H23V16H22v1H21V16H20Z"/></svg>