<svg xmlns="http://www.w3.org/2000/svg" viewBox="0 0 29 33"><defs><style>polygon,rect,path{shape-rendering:crispedges;}.ta298-1{fill:#6b4f99;}.ta298-2{fill:#000000;}.ta298-3{fill:#45ba00;}.ta298-4{fill:#ce8452;}.ta298-5{fill:#ffb38d;}.ta298-6{fill:#ffffff;}.ta298-7{fill:#5e362f;}.ta298-8{fill:#fad000;}.ta298-9{fill:#5e362f;}.ta298-10{fill:#e70059;}</style></defs><path class="ta298-1" d="M10,23V22H9v1H8v2h2V24h1V23Z"/><path class="ta298-2" d="M6,24V23H5v8H6V24Z"/><path class="ta298-2" d="M23,27H22v6h1V27Z"/><path class="ta298-3" d="M22,27H21v6h1V27Z"/><rect class="ta298-2" x="21" y="26" width="1" height="1"/><path class="ta298-2" d="M21,27H20v6h1V27Z"/><path class="ta298-3" d="M10,28h1v1h1V27H11V26H8v1H9v2h1Z"/><path class="ta298-3" d="M18,26v1H17v2h1V28h1v1h1V27h1V26H18Z"/><rect class="ta298-3" x="18" y="29" width="1" height="1"/><path class="ta298-3" d="M19,32V31H18v1H17V30H16v1H15v1H13V30H12v2H11V31H10v1H9v1H20V32Z"/><rect class="ta298-3" x="10" y="29" width="1" height="1"/><path class="ta298-2" d="M16,24H13V23H11v1h1v2h1V25h1v1h1V25h1v1h1V24h1V23H16Z"/><path class="ta298-4" d="M14,24h2V23H13v1Z"/><path class="ta298-2" d="M9,31V27H8V26h3V24H10v1H8V23H7v8H6v1H8v1H9V31Z"/><path class="ta298-3" d="M7,30V24H6v7H7Z"/><rect class="ta298-3" x="15" y="25" width="1" height="1"/><rect class="ta298-3" x="13" y="25" width="1" height="1"/><path class="ta298-5" d="M19,30H18V29H17v3h1V31h1v1h1V29H19Z"/><rect class="ta298-5" x="18" y="28" width="1" height="1"/><rect class="ta298-5" x="15" y="30" width="1" height="1"/><path class="ta298-5" d="M14,30H13v2h2V31H14Z"/><path class="ta298-5" d="M11,29v1H10V29H9v3h1V31h1v1h1V29Z"/><rect class="ta298-5" x="10" y="28" width="1" height="1"/><path class="ta298-2" d="M17,28V27H16v1H15v2h2V28Z"/><rect class="ta298-4" x="15" y="20" width="1" height="1"/><path class="ta298-4" d="M12,14V13H10v1h2Z"/><rect class="ta298-4" x="13" y="20" width="1" height="1"/><path class="ta298-4" d="M12,13h1v2H10v3h1v1h1V18h5v1h1V18h1V15H16V14h2V13H16V12h1V11H12v2Zm2,3h1v1H14Z"/><rect class="ta298-4" x="18" y="12" width="1" height="1"/><rect class="ta298-2" x="14" y="16" width="1" height="1"/><path class="ta298-6" d="M12,15h1V14H12Z"/><path class="ta298-6" d="M11,14H10v1h1Z"/><path class="ta298-6" d="M18,14v1h1V14Z"/><path class="ta298-6" d="M16,14v1h1V14Z"/><path class="ta298-2" d="M11,14v1h1V14Z"/><path class="ta298-2" d="M17,14v1h1V14Z"/><rect class="ta298-7" x="18" y="13" width="1" height="1"/><polygon class="ta298-7" points="17 12 16 12 16 13 18 13 18 12 17 12"/><path class="ta298-7" d="M13,14V13H12v1Z"/><path class="ta298-7" d="M12,13V12H10v1Z"/><path class="ta298-2" d="M7,21H8v2H9V22h1V21H9V20H8V11H7v8H5v1H7Z"/><path class="ta298-2" d="M5,20H4v3H5V20Z"/><path class="ta298-4" d="M6,24H7V23H8V21H7V20H5v3H6Z"/><path class="ta298-3" d="M8,20H9v1h1v1h1v1h2V22H12V21H11V20H10V19H9V12h1V11h2V10h5v1h2v1h1v7H19v1H18v1H17v1H16v1h2V22h1V21h1V20h1V11H20V10H19V9H18V8H11V9H10v1H9v1H8v9Z"/><rect class="ta298-2" x="10" y="8" width="1" height="1"/><rect class="ta298-2" x="9" y="9" width="1" height="1"/><rect class="ta298-2" x="8" y="10" width="1" height="1"/><rect class="ta298-2" x="10" y="22" width="1" height="1"/><rect class="ta298-2" x="18" y="22" width="1" height="1"/><rect class="ta298-2" x="19" y="21" width="1" height="1"/><rect class="ta298-2" x="20" y="20" width="1" height="1"/><path class="ta298-2" d="M21,20h1V11H21v9Z"/><rect class="ta298-2" x="20" y="10" width="1" height="1"/><rect class="ta298-2" x="19" y="9" width="1" height="1"/><rect class="ta298-2" x="18" y="8" width="1" height="1"/><path class="ta298-2" d="M18,8V7H11V8h7Z"/><path class="ta298-2" d="M12,11H10v1h2Z"/><path class="ta298-2" d="M10,16V12H9v5h1Z"/><path class="ta298-2" d="M19,14v3h1V12H19v2Z"/><path class="ta298-2" d="M18,12h1V11H17v1Z"/><path class="ta298-2" d="M17,11V10H12v1h5Z"/><path class="ta298-1" d="M0,7V33H8V32H6V31H5V23H4V20H5V19H7V11H8V10H9V9h1V8h1V7h7V8h1V9h1v1h1v1h1v9H21v1H20v1H19v1H18v1h1v1h2v1h1v1h1v6h6V0H0Z"/><rect class="ta298-2" x="14" y="30" width="1" height="1"/><path class="ta298-2" d="M14,29V28H13V27H12v3h2Z"/><rect class="ta298-2" x="17" y="26" width="1" height="1"/><rect class="ta298-2" x="11" y="26" width="1" height="1"/><rect class="ta298-2" x="13" y="26" width="1" height="1"/><rect class="ta298-2" x="15" y="26" width="1" height="1"/><rect class="ta298-8" x="16" y="26" width="1" height="1"/><path class="ta298-8" d="M13,27v1h1v2h1V28h1V27H15V26H14v1Z"/><rect class="ta298-8" x="12" y="26" width="1" height="1"/><path class="ta298-8" d="M12,25V24H11v2h1Z"/><path class="ta298-8" d="M17,25v1h1V24H17Z"/><path class="ta298-2" d="M19,26h2V25H19V24H18v2Z"/><path class="ta298-9" d="M16,23V22h1V21h1V20h1V19h1V17H19v1H18v1H16v2H15V20H14v1H13V19H11V18H10V17H9v2h1v1h1v1h1v1h1v1h3Z"/><path class="ta298-2" d="M12,18v1h1V18Z"/><path class="ta298-2" d="M16,18v1h1V18Z"/><path class="ta298-2" d="M15,20h1V19H15Z"/><path class="ta298-2" d="M15,19V18H14v1Z"/><path class="ta298-2" d="M13,19v1h1V19Z"/><path class="ta298-6" d="M14,18H13v1h1Z"/><path class="ta298-6" d="M15,18v1h1V18Z"/><rect class="ta298-10" x="14" y="19" width="1" height="1"/></svg>