<svg xmlns="http://www.w3.org/2000/svg" viewBox="0 0 29 33"><defs><style>polygon,rect,path{shape-rendering:crispedges;}.qa90-1{fill:#db5a8e;}.qa90-2{fill:#000000;}.qa90-3{fill:#ffed9f;}.qa90-4{fill:#ce8452;}.qa90-5{fill:#ffed9f;}.qa90-6{fill:#ffffff;}.qa90-7{fill:#492a23;}.qa90-8{fill:#492a23;}.qa90-9{fill:#c8a715;}.qa90-10{fill:#825fff;}.qa90-11{fill:#381616;}.qa90-12{fill:#fad000;}</style></defs><rect class="qa90-1" x="19" y="20" width="1" height="1"/><rect class="qa90-1" x="19" y="24" width="1" height="1"/><path class="qa90-1" d="M6,32V27H7V26H8V25h2V20H9V16H8V15H9V14H8V12H9V11H8V10H9V9H8V8h2V7h1V8h1V6h1V7h1V8h1V7h1V6h1V7h1V8h1V7h1V8H19V9h2v2H20v1h1v1H20v1h1v2H20v4h3v1h1v3H23v1h1v1H23v7h6V0H0V33H6Z"/><path class="qa90-2" d="M7,27H6v6H7V27Z"/><path class="qa90-3" d="M8,27H7v6H8V27Z"/><rect class="qa90-2" x="7" y="26" width="1" height="1"/><path class="qa90-2" d="M9,31V27H8v6H9V31Z"/><path class="qa90-3" d="M9,27v2h1V28h1v1h1V24H11v1H10v1H8v1Z"/><path class="qa90-3" d="M19,25H18V24H17v5h1V28h1v1h1V26H19Z"/><path class="qa90-3" d="M19,32V31H18v1H17V30H16v1H15v1H13V30H12v2H11V31H10v1H9v1H20V32Z"/><rect class="qa90-3" x="10" y="29" width="1" height="1"/><rect class="qa90-3" x="18" y="29" width="1" height="1"/><path class="qa90-2" d="M10,25H8v1h2Z"/><path class="qa90-2" d="M11,24H10v1h1Z"/><rect class="qa90-3" x="11" y="22" width="1" height="1"/><rect class="qa90-2" x="11" y="23" width="1" height="1"/><path class="qa90-2" d="M15,24H13v1h3V24Z"/><path class="qa90-4" d="M14,24h2V23H13v1Z"/><rect class="qa90-2" x="17" y="23" width="1" height="1"/><rect class="qa90-3" x="17" y="22" width="1" height="1"/><rect class="qa90-2" x="18" y="24" width="1" height="1"/><path class="qa90-2" d="M21,27V26H20v7h1V27Z"/><path class="qa90-3" d="M22,27H21v6h1V27Z"/><path class="qa90-2" d="M23,26H22v7h1V26Z"/><path class="qa90-3" d="M13,25v3h2v1h1V25H13Z"/><path class="qa90-3" d="M14,29v2h1V29Z"/><path class="qa90-5" d="M19,30H18V29H17v3h1V31h1v1h1V29H19Z"/><rect class="qa90-5" x="18" y="28" width="1" height="1"/><path class="qa90-5" d="M15,29v2h1V29Z"/><path class="qa90-5" d="M14,30V29h1V28H13v4h2V31H14Z"/><path class="qa90-5" d="M11,29v1H10V29H9v3h1V31h1v1h1V29Z"/><rect class="qa90-5" x="10" y="28" width="1" height="1"/><path class="qa90-2" d="M13,25H12v5h1V25Z"/><path class="qa90-2" d="M17,28V25H16v5h1V28Z"/><path class="qa90-2" d="M20,16h1V15H20Z"/><rect class="qa90-4" x="11" y="10" width="1" height="1"/><polygon class="qa90-4" points="13 21 14 21 14 22 15 22 15 21 16 21 16 20 13 20 13 21"/><path class="qa90-4" d="M18,14h1V13H17v1Z"/><rect class="qa90-4" x="10" y="11" width="1" height="1"/><path class="qa90-4" d="M10,17v1h1v1h1V18h2v1h1V18h2v1h1V18h1V16h1V15H16V13h1V12h1V10H17v1H16v1H15V10H14v1H13v2H11v1h2v1H9v1h1Zm4-1h1v1H14Z"/><path class="qa90-2" d="M19,17h1V16H19Z"/><path class="qa90-2" d="M10,16H9v1h1Z"/><rect class="qa90-2" x="8" y="15" width="1" height="1"/><rect class="qa90-2" x="14" y="16" width="1" height="1"/><path class="qa90-6" d="M13,15V14H12v1Z"/><path class="qa90-6" d="M10,15h1V14H10Z"/><path class="qa90-6" d="M18,14v1h1V14Z"/><path class="qa90-6" d="M16,14v1h1V14Z"/><path class="qa90-2" d="M12,15V14H11v1Z"/><path class="qa90-2" d="M17,14v1h1V14Z"/><rect class="qa90-7" x="10" y="13" width="1" height="1"/><path class="qa90-7" d="M11,13h2V12H11Z"/><path class="qa90-7" d="M17,13H16v1h1Z"/><path class="qa90-7" d="M18,12H17v1h1Z"/><path class="qa90-8" d="M12,22v1h5V22h2V20h1V17H19v1H18v1H17V18H15v1h1v2H15v1H14V21H13V19h1V18H12v1H11V18H10V17H9v3h1v2h2Z"/><path class="qa90-9" d="M19,23V22H18v1Z"/><rect class="qa90-8" x="18" y="23" width="1" height="1"/><path class="qa90-9" d="M17,24V23H16v1Z"/><path class="qa90-8" d="M16,25h1V24H16Z"/><path class="qa90-9" d="M13,23H12v1h1Z"/><path class="qa90-8" d="M13,24H12v1h1Z"/><path class="qa90-9" d="M11,22H10v1h1Z"/><path class="qa90-8" d="M11,23H10v1h1Z"/><path class="qa90-2" d="M13,19v1h3V19H13Z"/><path class="qa90-10" d="M10,14V13h1V12H10V11h1V10h1v1H11v1h2V11h1V10h1v2h1V11h1V10h1v3h1v2h2V14H20V13h1V12H20V11h1V9H19V8H18V7H17V6H16V7H15V8H14V7H13V6H12V8H11V7H10V8H8V9H9v1H8v1H9v1H8v2H9v1h1Z"/><rect class="qa90-10" x="19" y="7" width="1" height="1"/><path class="qa90-4" d="M20,26h1v1h1V26h1V25H20Z"/><rect class="qa90-2" x="23" y="25" width="1" height="1"/><rect class="qa90-2" x="19" y="25" width="1" height="1"/><path class="qa90-11" d="M24,22V21H23v1Z"/><path class="qa90-12" d="M19,21v3h1v1h3V24H21V23H20V22h1V21h1v1H21v1h3V22H23V20H20v1Z"/><rect class="qa90-11" x="21" y="21" width="1" height="1"/><path class="qa90-11" d="M21,23v1h3V23H21Z"/><rect class="qa90-11" x="20" y="22" width="1" height="1"/></svg>