<svg xmlns="http://www.w3.org/2000/svg" viewBox="0 0 29 33"><defs><style>polygon,rect,path{shape-rendering:crispedges;}.va174-1{fill:#db5a8e;}.va174-2{fill:#8c7850;}.va174-3{fill:#000000;}.va174-4{fill:#e8b795;}.va174-5{fill:#8c7850;}.va174-6{fill:#ffffff;}.va174-7{fill:#326b43;}.va174-8{fill:#326b43;}.va174-9{fill:#f9e100;}</style></defs><path class="va174-1" d="M0,33H6V27H7V26H8V25h2V22h1V20H10V19H9V16H8V14H9V12H8v1H7V12H8V11H9V10h1V9h2V8h5V9h2v1h1v1h1v1h1v1H21V12H20v2h1v2H20v3H19v1H18v2h1v3h2v1h1v1h1v6h6V0H0Z"/><path class="va174-2" d="M18,30V28H17V27H16V25H15v3h1v1h1v2h2V30Z"/><path class="va174-2" d="M15,30V28H14v3h2V30Z"/><path class="va174-2" d="M18,24H16v1h1v1h1v2h1v1h1V27H19V25H18Z"/><rect class="va174-2" x="17" y="22" width="1" height="1"/><rect class="va174-2" x="21" y="27" width="1" height="1"/><path class="va174-2" d="M21,31v1h1V30H21Z"/><rect class="va174-2" x="13" y="32" width="1" height="1"/><rect class="va174-2" x="10" y="32" width="1" height="1"/><rect class="va174-2" x="19" y="32" width="1" height="1"/><rect class="va174-2" x="16" y="32" width="1" height="1"/><path class="va174-2" d="M7,31v2H8V31Z"/><path class="va174-2" d="M8,29V27H7v2Z"/><rect class="va174-2" x="11" y="22" width="1" height="1"/><path class="va174-2" d="M12,25V24H11v2h1v2h1V25Z"/><path class="va174-2" d="M12,29V28H11V27H10V26H9v2h1v1h1v2h2V30H12Z"/><rect class="va174-2" x="9" y="30" width="1" height="1"/><path class="va174-3" d="M23,27H22v6h1V27Z"/><rect class="va174-3" x="21" y="26" width="1" height="1"/><path class="va174-3" d="M21,31V27H20v4H14V27H13v4H9V27H8v6H9V32H20v1h1V31Z"/><path class="va174-3" d="M20,26h1V25H19v1Z"/><path class="va174-3" d="M18,24v1h1V22H18v2Z"/><path class="va174-3" d="M17,22h1V21H17Z"/><path class="va174-3" d="M17,24V22H16v2Z"/><rect class="va174-3" x="15" y="24" width="1" height="1"/><path class="va174-3" d="M15,26V25H14v2h1Z"/><rect class="va174-3" x="13" y="24" width="1" height="1"/><path class="va174-4" d="M14,24v1h1V24h1V23H13v1Z"/><path class="va174-3" d="M13,24V22H12v2Z"/><path class="va174-3" d="M12,21H11v1h1Z"/><path class="va174-3" d="M11,24V22H10v3h1Z"/><path class="va174-3" d="M10,26V25H8v1h2Z"/><rect class="va174-3" x="7" y="26" width="1" height="1"/><path class="va174-3" d="M7,30V27H6v6H7V30Z"/><path class="va174-3" d="M20,16h1V15H20Z"/><rect class="va174-3" x="19" y="14" width="1" height="1"/><path class="va174-4" d="M10,17v1h1v1h1V18h2v1h1V18h2v1h1V18h1V16h1V15H16V13h1V12H15V11H14v1H13v1H11v1h2v1H9v1h1Zm4-1h1v1H14Z"/><rect class="va174-4" x="15" y="20" width="1" height="1"/><rect class="va174-4" x="13" y="20" width="1" height="1"/><path class="va174-4" d="M18,14h1V13H17v1Z"/><path class="va174-3" d="M19,17h1V16H19Z"/><path class="va174-3" d="M10,15V14H9v1Z"/><path class="va174-3" d="M10,16H9v1h1Z"/><path class="va174-3" d="M8,15v1H9V15Z"/><rect class="va174-3" x="14" y="16" width="1" height="1"/><path class="va174-5" d="M21,29v1h1V28H21Z"/><path class="va174-5" d="M21,32v1h1V32Z"/><path class="va174-5" d="M19,26v1h2V26H19Z"/><path class="va174-5" d="M19,28H18v2h1v1h1V29H19Z"/><path class="va174-5" d="M17,27v1h1V26H17V25H16v2Z"/><path class="va174-5" d="M18,32H17v1h2V32Z"/><path class="va174-5" d="M16,29V28H15v2h1v1h1V29Z"/><path class="va174-5" d="M15,27H14v1h1Z"/><path class="va174-5" d="M13,25v2h1V25Z"/><path class="va174-5" d="M15,32H14v1h2V32Z"/><path class="va174-5" d="M12,29v1h1V28H12Z"/><rect class="va174-5" x="12" y="24" width="1" height="1"/><path class="va174-5" d="M12,23H11v1h1Z"/><path class="va174-5" d="M18,24V23H17v1Z"/><path class="va174-5" d="M10,27h1v1h1V26H11V25H10v2Z"/><path class="va174-5" d="M12,32H11v1h2V32Z"/><path class="va174-5" d="M10,29V28H9v2h1v1h1V29Z"/><path class="va174-5" d="M9,32v1h1V32Z"/><path class="va174-5" d="M9,27V26H8v1Z"/><path class="va174-5" d="M7,30v1H8V29H7Z"/><path class="va174-6" d="M13,15V14H12v1Z"/><path class="va174-6" d="M10,15h1V14H10Z"/><path class="va174-6" d="M18,14v1h1V14Z"/><path class="va174-6" d="M16,14v1h1V14Z"/><path class="va174-3" d="M12,15V14H11v1Z"/><path class="va174-3" d="M17,14v1h1V14Z"/><rect class="va174-7" x="10" y="13" width="1" height="1"/><path class="va174-7" d="M12,13h1V12H12Z"/><path class="va174-7" d="M17,13H16v1h1Z"/><path class="va174-8" d="M14,18H13v1h1Z"/><path class="va174-8" d="M12,22h1v1h3V22h1V21h1V20h1V19h1V17H19v1H18v1H17V18H15v1h1v2H15V20H14v1H13V19H11V18H10V17H9v2h1v1h1v1h1Z"/><path class="va174-3" d="M13,19v1h3V19H13Z"/><path class="va174-3" d="M12,18v1h1V18Z"/><rect class="va174-9" x="21" y="12" width="1" height="1"/><path class="va174-9" d="M10,13h2V12h2V11h1v1h2v1h2v1h1V12h1V11H20V10H19V9H17V8H12V9H10v1H9v1H8v1H9v2h1Z"/><path class="va174-9" d="M21,15V14H20v1Z"/><path class="va174-9" d="M9,14H8v1H9Z"/><rect class="va174-9" x="7" y="12" width="1" height="1"/></svg>