<svg xmlns="http://www.w3.org/2000/svg" viewBox="0 0 29 33"><defs><style>polygon,rect,path{shape-rendering:crispedges;}.ba168-1{fill:#b4bd09;}.ba168-2{fill:#000000;}.ba168-3{fill:#e8b795;}.ba168-4{fill:#00af68;}.ba168-5{fill:#9fffc6;}.ba168-6{fill:#ffffff;}.ba168-7{fill:#8e4717;}.ba168-8{fill:#8e4717;}.ba168-9{fill:#cc3232;}.ba168-10{fill:#455054;}.ba168-11{fill:#002b4f;}.ba168-12{fill:#00774c;}.ba168-13{fill:#ff1f4a;}</style></defs><path class="ba168-1" d="M8,18v4H9v2H8v1h2V24h2V21H11V20H10V19H9V16H8v2Z"/><path class="ba168-1" d="M0,33H8V32H6V31H5V22H6V21H7V20H5v1H2V17H5V16H8V15H9V11h1V10h1V7h1V6H11V5h2V6h2V7h1V9h2v1h1v1h1v4h1v1H20v3H19v1H18v1H17v3h2v1h2v1h1v1h1v6h6V0H0Z"/><path class="ba168-2" d="M23,27H22v6h1V27Z"/><rect class="ba168-2" x="21" y="26" width="1" height="1"/><path class="ba168-3" d="M22,27H21v6h1V27Z"/><rect class="ba168-3" x="20" y="26" width="1" height="1"/><path class="ba168-2" d="M21,27H20v6h1V27Z"/><path class="ba168-2" d="M20,26h1V25H19v1Z"/><rect class="ba168-4" x="18" y="32" width="1" height="1"/><path class="ba168-4" d="M17,30h1V29h1v1h1V26H19V25H18v1H17v1H16v1H13V27H12V26H11V25H10v1H9v4h1V29h1v1h1v3h1V29h2v1h1v2H15v1h2V30Z"/><rect class="ba168-4" x="10" y="32" width="1" height="1"/><rect class="ba168-4" x="18" y="30" width="1" height="1"/><rect class="ba168-4" x="10" y="30" width="1" height="1"/><path class="ba168-4" d="M14,31v1h1V30H14Z"/><path class="ba168-2" d="M18,26V25h1V24H17v2Z"/><rect class="ba168-2" x="16" y="26" width="1" height="1"/><path class="ba168-2" d="M13,27v1h3V27H13Z"/><path class="ba168-2" d="M13,23V22H12v2h1Z"/><path class="ba168-3" d="M16,23H13v1H12v2h1v1h3V26h1V24H16Z"/><rect class="ba168-2" x="12" y="26" width="1" height="1"/><path class="ba168-2" d="M10,24v1h1v1h1V24Z"/><path class="ba168-3" d="M8,27H9V26H8Z"/><path class="ba168-2" d="M9,30V27H8V26h2V25H8V24H7v7H6v1H8v1H9V30Z"/><path class="ba168-3" d="M7,30V24H8V22H6v9H7Z"/><path class="ba168-2" d="M6,22H5v9H6V22Z"/><path class="ba168-5" d="M20,30H19v1H18V30H17v3h1V32h1v1h1V30Z"/><rect class="ba168-5" x="18" y="29" width="1" height="1"/><path class="ba168-5" d="M16,32V30H15v2Z"/><path class="ba168-5" d="M14,32V30h1V29H13v4h2V32Z"/><path class="ba168-5" d="M12,30H11v1H10V30H9v3h1V32h1v1h1V30Z"/><rect class="ba168-5" x="10" y="29" width="1" height="1"/><rect class="ba168-2" x="20" y="15" width="1" height="1"/><path class="ba168-2" d="M19,14v1h1V11H19v3Z"/><rect class="ba168-3" x="9" y="15" width="1" height="1"/><rect class="ba168-3" x="16" y="19" width="1" height="1"/><rect class="ba168-3" x="12" y="19" width="1" height="1"/><rect class="ba168-3" x="19" y="15" width="1" height="1"/><path class="ba168-3" d="M12,14V13H10v1h2Z"/><path class="ba168-3" d="M12,12v1h1v3H10v2h1v1h1V18h5v1h1V18h1V16H16V14h2V13H16V12h2v1h1V11H18V10H16v1H14V10H11v1H10v1Zm2,4h1v1H14Z"/><path class="ba168-3" d="M13,21h3V20H13Z"/><rect class="ba168-2" x="18" y="10" width="1" height="1"/><path class="ba168-2" d="M16,23v1h1V22H16Z"/><path class="ba168-2" d="M13,9H11v1h2Z"/><path class="ba168-2" d="M17,10h1V9H16v1Z"/><rect class="ba168-2" x="10" y="10" width="1" height="1"/><path class="ba168-2" d="M10,14V11H9v4h1Z"/><rect class="ba168-2" x="8" y="15" width="1" height="1"/><rect class="ba168-2" x="14" y="16" width="1" height="1"/><path class="ba168-6" d="M11,15V14H10v2h1Z"/><path class="ba168-6" d="M12,15v1h1V14H12Z"/><path class="ba168-6" d="M16,14v2h1V14Z"/><path class="ba168-6" d="M19,14H18v2h1V14Z"/><path class="ba168-2" d="M12,14H11v2h1V14Z"/><path class="ba168-2" d="M17,14v2h1V14Z"/><path class="ba168-7" d="M19,13H18v1h1Z"/><rect class="ba168-7" x="16" y="12" width="2" height="1"/><path class="ba168-7" d="M13,14V13H12v1Z"/><path class="ba168-7" d="M12,12H10v1h2Z"/><path class="ba168-8" d="M19,17v1H18v1H17v1H16v1H13V20H12V19H11V18H10V16H9v3h1v1h1v1h1v1h1v1h3V22h1V21h1V20h1V19h1V16H19Z"/><path class="ba168-2" d="M13,18H12v1h1Z"/><path class="ba168-2" d="M17,19V18H16v1Z"/><path class="ba168-2" d="M13,19v1h3V19H15V18H14v1Z"/><path class="ba168-6" d="M14,19V18H13v1Z"/><path class="ba168-6" d="M16,19V18H15v1Z"/><path class="ba168-9" d="M13,10h1v1h2V7H15V6H13V5H11V6h1V7H11V9h2Z"/><path class="ba168-10" d="M8,22V20H7v2Z"/><path class="ba168-2" d="M7,21H6v1H7Z"/><path class="ba168-2" d="M9,22H8v2H9Z"/><path class="ba168-11" d="M4,17H2v1H4Z"/><path class="ba168-12" d="M8,19H6v1H8Z"/><path class="ba168-12" d="M3,20H2v1H5V20H3Z"/><path class="ba168-13" d="M4,20V18H2v2H4Z"/><path class="ba168-13" d="M8,17H6v2H8V17Z"/><path class="ba168-11" d="M6,18V17H8V16H5v2Z"/><path class="ba168-11" d="M4,18v1H5V18Z"/><path class="ba168-6" d="M4,19v1H5V19Z"/><path class="ba168-6" d="M5,18V17H4v1Z"/><path class="ba168-6" d="M5,18v1H6V18Z"/><path class="ba168-11" d="M5,19v1H6V19Z"/><rect class="ba168-9" x="10" y="9" width="1" height="1"></rect></svg>