<svg xmlns="http://www.w3.org/2000/svg" viewBox="0 0 29 33"><defs><style>polygon,rect,path{shape-rendering:crispedges;}.ya61-1{fill:#6b4f99;}.ya61-2{fill:#000000;}.ya61-3{fill:#cc3232;}.ya61-4{fill:#a56e49;}.ya61-5{fill:#99582c;}.ya61-6{fill:#99582c;}.ya61-7{fill:#10bcff;}.ya61-8{fill:#ffffff;}.ya61-9{fill:#455054;}.ya61-10{fill:#29834f;}.ya61-11{fill:#ff791f;}</style></defs><path class="ya61-1" d="M8,19H9V16H8v3Z"/><path class="ya61-1" d="M11,24V23h1V21H9V20H8v2H9v2H8v1h2V24Z"/><path class="ya61-1" d="M0,33H8V32H6V31H5V22H6V21H7V20H5v1H2V17H5V16H8V14H9V11h1V9h1V8h7V9h1v1h1v4h1v2H20v3h1v1H20v1H17v2h1v1h1v1h2v1h1v1h1v6h6V0H0Z"/><path class="ya61-2" d="M6,24V22H5v9H6V24Z"/><path class="ya61-2" d="M23,27H22v6h1V27Z"/><path class="ya61-3" d="M22,27H21v6h1V27Z"/><rect class="ya61-2" x="21" y="26" width="1" height="1"/><path class="ya61-2" d="M21,27H20v6h1V27Z"/><path class="ya61-3" d="M20,27h1V26H19V25H18v1H16V25H15v2H14V25H13v1H11V25H10v1H8v1H9v6h5V32h1v1h5V27Zm-5,4H14V30h1Zm0-2H14V28h1Z"/><path class="ya61-2" d="M20,26h1V25H19v1Z"/><rect class="ya61-3" x="16" y="24" width="1" height="1"/><rect class="ya61-2" x="15" y="24" width="1" height="1"/><rect class="ya61-2" x="14" y="32" width="1" height="1"/><rect class="ya61-2" x="14" y="30" width="1" height="1"/><rect class="ya61-2" x="14" y="28" width="1" height="1"/><path class="ya61-2" d="M14,26v1h1V25H14Z"/><rect class="ya61-2" x="13" y="24" width="1" height="1"/><path class="ya61-4" d="M16,24V23H13v1h1v1h1V24Z"/><rect class="ya61-3" x="12" y="24" width="1" height="1"/><path class="ya61-2" d="M9,27H8V26h2V25H8V24H7v7H6v1H8v1H9V27Z"/><path class="ya61-3" d="M7,30V24H6v7H7Z"/><path class="ya61-2" d="M20,16h1V15H20Z"/><path class="ya61-2" d="M19,12v2h1V11H19Z"/><path class="ya61-4" d="M17,19H16v1H13V19h3V18h1v1h1V18h1V17H16V16H15v1H14V16H13v1H10v1h1v1h1v2h1v1h3V21h1V19Z"/><path class="ya61-4" d="M12,12v1h1v1h3V12h2v1h1V11H18V10H17v1H16V10H15v1H14V10H13v1H12V10H11v1H10v1Z"/><rect class="ya61-4" x="14" y="15" width="1" height="1"/><rect class="ya61-2" x="18" y="10" width="1" height="1"/><path class="ya61-2" d="M17,20v1h1V20Z"/><path class="ya61-2" d="M16,22H13V21H12v2H11v1H10v1h1v1h2V25H12V24h1V23h3v1h1v1H16v1h2V25h1V24H18V23H17V21H16Z"/><rect class="ya61-2" x="11" y="9" width="1" height="1"/><rect class="ya61-2" x="15" y="9" width="1" height="1"/><rect class="ya61-2" x="17" y="9" width="1" height="1"/><rect class="ya61-2" x="13" y="9" width="1" height="1"/><path class="ya61-2" d="M11,21h1V20H11Z"/><path class="ya61-2" d="M10,13V11H9v3h1Z"/><path class="ya61-2" d="M9,15H8v1H9Z"/><rect class="ya61-2" x="14" y="16" width="1" height="1"/><path class="ya61-5" d="M18,12H16v1h2Z"/><path class="ya61-5" d="M12,12H10v1h2Z"/><path class="ya61-6" d="M19,17v1H18v1H17v1h1v1h2V20h1V19H20V16H19Z"/><path class="ya61-6" d="M9,21h2V20h1V19H11V18H10V16H9v3H8v1H9Z"/><rect class="ya61-2" x="13" y="19" width="3" height="1"/><rect class="ya61-2" x="16" y="18" width="1" height="1"/><path class="ya61-7" d="M11,10V9H10v2h1Z"/><path class="ya61-7" d="M12,10v1h1V9h1v2h1V9h1v2h1V9h1V8H11V9h1Z"/><rect class="ya61-7" x="18" y="9" width="1" height="1"/><path class="ya61-7" d="M20,11V10H19v1Z"/><path class="ya61-8" d="M19,15v1h1V15h1V14H19Z"/><path class="ya61-8" d="M19,14V13H16v1h3Z"/><path class="ya61-2" d="M17,16h2V14H16v2Z"/><path class="ya61-8" d="M16,16v1h3V16H16Z"/><path class="ya61-8" d="M14,16V15h1v1h1V14H13v2Z"/><path class="ya61-8" d="M13,14V13H10v1h3Z"/><path class="ya61-2" d="M13,16V14H10v2h3Z"/><path class="ya61-8" d="M11,17h2V16H10v1Z"/><path class="ya61-8" d="M9,16h1V14H8v1H9Z"/><path class="ya61-4" d="M7,24H8V22H6v2Z"/><path class="ya61-9" d="M8,22V20H7v2Z"/><path class="ya61-2" d="M7,21H6v1H7Z"/><path class="ya61-2" d="M9,22H8v2H9Z"/><path class="ya61-10" d="M4,17H2v4H4V17Z"/><path class="ya61-11" d="M8,19V16H6v4H8Z"/><path class="ya61-8" d="M6,16H5v1H4v4H5V20H6V16Z"/></svg>