<svg xmlns="http://www.w3.org/2000/svg" viewBox="0 0 29 33"><defs><style>polygon,rect,path{shape-rendering:crispedges;}.xa45-1{fill:#508e91;}.xa45-2{fill:#000000;}.xa45-3{fill:#e8b795;}.xa45-4{fill:#c6e5e4;}.xa45-5{fill:#ffffff;}.xa45-6{fill:#6b4f99;}</style></defs><path class="xa45-1" d="M19,26v1H18V26H17V25h1V23H17v1H16v1H15v2H14v3h1v1h3V30h1v1h1V29H19V28h1V27h1V26H19Zm-1,3H17v1H16V29H15V28h1V27h1v1h1Z"/><rect class="xa45-1" x="21" y="27" width="1" height="1"/><path class="xa45-1" d="M21,30v1h1V29H21Z"/><rect class="xa45-1" x="21" y="32" width="1" height="1"/><path class="xa45-1" d="M13,32H11v1h3V32Z"/><path class="xa45-1" d="M17,32H15v1h3V32Z"/><rect class="xa45-1" x="9" y="32" width="1" height="1"/><rect class="xa45-1" x="19" y="32" width="1" height="1"/><rect class="xa45-1" x="7" y="32" width="1" height="1"/><path class="xa45-1" d="M7,30v1H8V29H7Z"/><rect class="xa45-1" x="7" y="27" width="1" height="1"/><path class="xa45-1" d="M9,27v1h1v1H9v2h1V30h1v1h2V30H12V29H11V28h1V27h2V25H13V24H12V23H11v2h1v1H11v1H10V26H8v1Z"/><path class="xa45-2" d="M23,27H22v6h1V27Z"/><rect class="xa45-2" x="21" y="26" width="1" height="1"/><path class="xa45-2" d="M21,31V27H20v4H14V27H13v4H9V27H8v6H9V32H20v1h1V31Z"/><path class="xa45-2" d="M20,26h1V25H19v1Z"/><path class="xa45-2" d="M18,24v1h1V22H18v2Z"/><path class="xa45-2" d="M11,24V22H10v3h1Z"/><path class="xa45-2" d="M10,25H8v1h2Z"/><rect class="xa45-2" x="7" y="26" width="1" height="1"/><path class="xa45-2" d="M7,31V27H6v6H7V31Z"/><rect class="xa45-3" x="13" y="20" width="3" height="1"/><path class="xa45-3" d="M13,15H10v1h3Z"/><path class="xa45-3" d="M19,16V15H16v1h3Z"/><path class="xa45-4" d="M10,30v1h1V30Z"/><path class="xa45-4" d="M10,32v1h1V32Z"/><path class="xa45-4" d="M12,28H11v1h1v1h1V27H12Z"/><polygon class="xa45-4" points="10 27 11 27 11 26 12 26 12 25 11 25 10 25 10 26 10 27"/><polygon class="xa45-4" points="17 27 16 27 16 28 15 28 15 29 16 29 16 30 17 30 17 29 18 29 18 28 17 28 17 27"/><polygon class="xa45-4" points="17 25 17 26 18 26 18 27 19 27 19 26 19 25 18 25 17 25"/><path class="xa45-4" d="M7,29H8V28H7Z"/><path class="xa45-4" d="M10,28H9v1h1Z"/><path class="xa45-4" d="M21,29h1V28H21Z"/><path class="xa45-4" d="M19,29h1V28H19Z"/><path class="xa45-4" d="M21,32h1V31H21Z"/><path class="xa45-4" d="M7,32H8V31H7Z"/><path class="xa45-4" d="M14,30v1h1V30Z"/><path class="xa45-4" d="M14,32v1h1V32Z"/><path class="xa45-4" d="M18,30v1h1V30Z"/><path class="xa45-4" d="M18,32v1h1V32Z"/><path class="xa45-4" d="M12,23V22H11v1Z"/><path class="xa45-4" d="M17,23h1V22H17Z"/><path class="xa45-5" d="M13,14H12v1h1Z"/><path class="xa45-5" d="M11,14H10v1h1Z"/><path class="xa45-5" d="M19,14H18v1h1Z"/><path class="xa45-5" d="M17,14H16v1h1Z"/><path class="xa45-6" d="M0,9V33H6V27H7V26H8V25h2V22h1V21H10V20H9V17H8V15H9V11h1V10h1V9h7v1h1v1h1v4h1v2H20v3H19v1H18v1h1v3h2v1h1v1h1v6h6V0H0Z"/><path class="xa45-2" d="M12,23v1h1v1h1v2h1V25h1V24h1V22h1V21h1V20h1V17h1V15H20V11H19V10H18V9H11v1H10v1H9v4H8v2H9v3h1v1h1v1h1Zm4-8V14h1v1h1V14h1v2H16Zm0,6H13V20h3Zm-5-5H10V14h1v1h1V14h1v2Z"/></svg>