<svg xmlns="http://www.w3.org/2000/svg" viewBox="0 0 29 33"><defs><style>polygon,rect,path{shape-rendering:crispedges;}.va61-1{fill:#d4a122;}.va61-2{fill:#663434;}.va61-3{fill:#000000;}.va61-4{fill:#b2622b;}.va61-5{fill:#a7af69;}.va61-6{fill:#ffffff;}.va61-7{fill:#99004d;}.va61-8{fill:#99004d;}.va61-9{fill:#000000;}</style></defs><path class="va61-1" d="M0,33H6V27H7V26H8V25h2V22h1V21H9V20H8V19H9V16H8V15H9V11h1V10h1V9h2V7h1V5h1V6h1V8h1V9h1v1h1v1h1v4h1v1H20v3h1v1H20v1H18v1h1v3h2v1h1v1h1v6h6V0H0Z"/><rect class="va61-2" x="17" y="22" width="1" height="1"/><path class="va61-2" d="M18,24H16v1H15v2H14v1h1v1H14v2h2V30h1v1h3V26H19V25H18Zm-1,3H16V26h1Zm2,1v1H18V28Z"/><path class="va61-2" d="M21,28v2h1V27H21Z"/><path class="va61-2" d="M21,31v2h1V31Z"/><path class="va61-2" d="M18,32H15v1h4V32Z"/><path class="va61-2" d="M13,32H10v1h4V32Z"/><path class="va61-2" d="M7,31v2H8V31Z"/><path class="va61-2" d="M7,30H8V27H7v3Z"/><path class="va61-2" d="M9,26v5h3V30h1V27H12V26h1v1h1V25H13V24H11v1H10v1Zm2,2v1H10V28Z"/><rect class="va61-2" x="11" y="22" width="1" height="1"/><path class="va61-3" d="M23,27H22v6h1V27Z"/><rect class="va61-3" x="21" y="26" width="1" height="1"/><path class="va61-3" d="M21,30V27H20v4H14V27H13v4H9V27H8v6H9V32H20v1h1V30Z"/><path class="va61-3" d="M20,26h1V25H19v1Z"/><path class="va61-3" d="M18,24v1h1V22H18v2Z"/><rect class="va61-3" x="15" y="24" width="1" height="1"/><path class="va61-3" d="M15,26V25H14v2h1Z"/><rect class="va61-3" x="13" y="24" width="1" height="1"/><path class="va61-4" d="M15,24h1V23H13v1h1v1h1Z"/><path class="va61-3" d="M11,24V22H10v3h1Z"/><path class="va61-3" d="M10,26V25H8v1h2Z"/><rect class="va61-3" x="7" y="26" width="1" height="1"/><path class="va61-3" d="M7,30V27H6v6H7V30Z"/><rect class="va61-3" x="20" y="15" width="1" height="1"/><path class="va61-3" d="M19,14v1h1V11H19v3Z"/><path class="va61-4" d="M10,14h2V13H10Z"/><path class="va61-4" d="M10,17v1h1v1h1v2h1v1h3V21h1V19H16v1H13V19h3V18h1v1h1V18h1V16h1V15H16V14h2V13H16V12h2v1h1V11H18V10H14v1H13V10H11v1H10v1h2v1h1v2H9v1h1Zm4-1h1v1H14Z"/><rect class="va61-3" x="18" y="10" width="1" height="1"/><path class="va61-3" d="M12,23v1h1V23h3v1h1V22h1V20H17v1H16v1H13V21H12V20H11v2h1Z"/><path class="va61-3" d="M15,10h3V9H15Z"/><path class="va61-3" d="M13,9H11v1h2Z"/><rect class="va61-3" x="10" y="10" width="1" height="1"/><rect class="va61-3" x="8" y="15" width="1" height="1"/><rect class="va61-3" x="14" y="16" width="1" height="1"/><rect class="va61-5" x="10" y="28" width="1" height="1"/><path class="va61-5" d="M12,31h1V30H12Z"/><path class="va61-5" d="M15,28H14v1h1Z"/><path class="va61-5" d="M14,32v1h1V32Z"/><rect class="va61-5" x="12" y="26" width="1" height="1"/><path class="va61-5" d="M16,30v1h1V30Z"/><rect class="va61-5" x="18" y="28" width="1" height="1"/><rect class="va61-5" x="16" y="26" width="1" height="1"/><path class="va61-5" d="M9,27V26H8v1Z"/><path class="va61-5" d="M19,32v1h1V32Z"/><path class="va61-5" d="M9,32v1h1V32Z"/><path class="va61-5" d="M7,31H8V30H7Z"/><path class="va61-5" d="M21,31h1V30H21Z"/><path class="va61-5" d="M20,27h1V26H20Z"/><path class="va61-5" d="M11,23v1h1V23Z"/><path class="va61-5" d="M18,23H17v1h1Z"/><path class="va61-6" d="M18,14v1h1V14Z"/><path class="va61-6" d="M12,15h1V14H12Z"/><path class="va61-3" d="M17,14H16v1h2V14Z"/><path class="va61-3" d="M12,15V14H10V11H9v4h3Z"/><path class="va61-7" d="M19,13H18v1h1Z"/><rect class="va61-7" x="16" y="12" width="2" height="1"/><path class="va61-7" d="M13,14V13H12v1Z"/><path class="va61-7" d="M12,13V12H10v1Z"/><path class="va61-8" d="M19,17v1H18v1H17v1h1v1h2V20h1V19H20V16H19Z"/><path class="va61-8" d="M12,20V19H11V18H10V16H9v3H8v1H9v1h2V20Z"/><rect class="va61-3" x="13" y="19" width="3" height="1"/><rect class="va61-3" x="16" y="18" width="1" height="1"/><path class="va61-9" d="M13,11h1V10h1V9h2V8H16V6H15V5H14V7H13v4Z"/></svg>