<svg xmlns="http://www.w3.org/2000/svg" viewBox="0 0 29 33"><defs><style>polygon,rect,path{shape-rendering:crispedges;}.bb12-1{fill:#29834f;}.bb12-2{fill:#000000;}.bb12-3{fill:#9b8100;}.bb12-4{fill:#ffffff;}.bb12-5{fill:#e8b795;}.bb12-6{fill:#663228;}.bb12-7{fill:#663228;}.bb12-8{fill:#004a77;}.bb12-9{fill:#455054;}.bb12-10{fill:#ff1f4a;}.bb12-11{fill:#fad000;}.bb12-12{fill:#900;}</style></defs><path class="bb12-1" d="M8,18v4H9v2H8v1h2V24h1V23h1V21H11V20H10V19H9V16H8v2Z"/><path class="bb12-1" d="M8,32H6V31H5V22H6V21H7V20H5v1H2V17H5V16H8V15H9V10h1V9h1V8h7V9h1v1h1v5h1v1H20v3H19v1H18v1H17v2h1v1h1v1h2v1h1v1h1v6h6V0H0V33H8Z"/><path class="bb12-2" d="M23,27H22v6h1V27Z"/><rect class="bb12-2" x="21" y="26" width="1" height="1"/><path class="bb12-3" d="M22,27H21v6h1V27Z"/><path class="bb12-2" d="M21,27H20v6h1V27Z"/><path class="bb12-2" d="M20,26h1V25H19v1Z"/><path class="bb12-3" d="M20,27h1V26H19V25H18v4H17v4h3V27Z"/><rect class="bb12-4" x="16" y="24" width="1" height="1"/><path class="bb12-2" d="M17,29H16v4h1V29Z"/><rect class="bb12-4" x="15" y="23" width="1" height="1"/><path class="bb12-4" d="M16,29h1V26H16V25H13v1H12v3h1v4h1V32h1v1h1V29Zm-1,2H14V30h1Zm0-2H14V28h1Zm0-2H14V26h1Z"/><rect class="bb12-2" x="14" y="26" width="1" height="1"/><rect class="bb12-2" x="14" y="28" width="1" height="1"/><rect class="bb12-2" x="14" y="30" width="1" height="1"/><rect class="bb12-2" x="14" y="32" width="1" height="1"/><rect class="bb12-4" x="13" y="23" width="1" height="1"/><path class="bb12-2" d="M15,24V23H14v1H13v1h3V24Z"/><rect class="bb12-4" x="12" y="24" width="1" height="1"/><path class="bb12-2" d="M13,29H12v4h1V29Z"/><path class="bb12-2" d="M12,24h1V22H12v1H11v1H10v1h1v4h1V26h1V25H12Z"/><path class="bb12-3" d="M12,29H11V25H10v1H8v1H9v6h3V29Z"/><path class="bb12-2" d="M9,27H8V26h2V25H8V24H7v7H6v1H8v1H9V27Z"/><path class="bb12-4" d="M6,25H7V24H6Z"/><path class="bb12-3" d="M7,30V25H6v6H7Z"/><path class="bb12-2" d="M6,25V22H5v9H6V25Z"/><rect class="bb12-2" x="20" y="15" width="1" height="1"/><path class="bb12-2" d="M19,15h1V14H19Z"/><rect class="bb12-5" x="15" y="20" width="1" height="1"/><path class="bb12-5" d="M10,16v2h1v1h1V18h2v1h1V18h2v1h1V18h1V16h1V15H18v1H17v1H16V14H15V12H14V11H13V10H11v1H10v1h2v1h1v2H9v1Zm4,0h1v1H14Z"/><path class="bb12-5" d="M10,14h2V13H10Z"/><rect class="bb12-5" x="13" y="20" width="1" height="1"/><path class="bb12-2" d="M19,17h1V16H19Z"/><path class="bb12-2" d="M16,23v1h1v1H16v1h1v3h1V25h1V24H18V23H17V22H16Z"/><path class="bb12-2" d="M10,16H9v1h1Z"/><rect class="bb12-2" x="8" y="15" width="1" height="1"/><rect class="bb12-2" x="14" y="16" width="1" height="1"/><path class="bb12-4" d="M12,15h1V14H12Z"/><path class="bb12-4" d="M10,14v1h1V14Z"/><path class="bb12-2" d="M11,14v1h1V14Z"/><path class="bb12-6" d="M13,14V13H12v1Z"/><rect class="bb12-6" x="10" y="12" width="2" height="1"/><path class="bb12-7" d="M19,18H18v1H17V18H15v1h1v2H15V20H14v1H13V19h1V18H12v1H11V18H10V17H9v2h1v1h1v1h1v1h1v1h3V22h1V21h1V20h1V19h1V17H19Z"/><path class="bb12-2" d="M13,20h3V19H13Z"/><path class="bb12-8" d="M10,14V11h1V10h2v1h1v1h1v2h1v3h1V16h1V15h1V14h1V10H19V9H18V8H11V9H10v1H9v5h1Z"/><path class="bb12-5" d="M7,24H8V22H6v2Z"/><path class="bb12-9" d="M8,22V20H7v2Z"/><path class="bb12-2" d="M7,21H6v1H7Z"/><path class="bb12-2" d="M9,22H8v2H9Z"/><path class="bb12-10" d="M4,18H5V17H2v1H4Z"/><path class="bb12-10" d="M8,16H5v1H8Z"/><path class="bb12-10" d="M3,20H2v1H5V20H3Z"/><path class="bb12-10" d="M8,19H5v1H8Z"/><path class="bb12-11" d="M8,19V17H5v1H4v2H5V19Z"/><path class="bb12-12" d="M3,20H4V19H3Z"/><path class="bb12-12" d="M3,18H2v1H3Z"/><path class="bb12-4" d="M3,19H4V18H3Z"/><path class="bb12-11" d="M3,19H2v1H3Z"/></svg>