<svg xmlns="http://www.w3.org/2000/svg" viewBox="0 0 29 33"><defs><style>polygon,rect,path{shape-rendering:crispedges;}.na88-1{fill:#db5a8e;}.na88-2{fill:#000000;}.na88-3{fill:#0068ff;}.na88-4{fill:#68aa7b;}.na88-5{fill:#e8b795;}.na88-6{fill:#00774c;}.na88-7{fill:#ffffff;}.na88-8{fill:#000000;}.na88-9{fill:#ff6aa5;}.na88-10{fill:#ad5a21;}</style></defs><path class="na88-1" d="M0,33H6V27H7V26H8V25h2V24h2V21H11V20H10V19H9V16H8V15H9V11h1V10h1V9h2V7h1V6h2V5h2V6H17V7h1v3h1v1h1v4h1v1H20v3H19v1H18v1H17v2h1V22h3v1h1v2h1v8h6V0H0Z"/><path class="na88-2" d="M7,27H6v6H7V27Z"/><path class="na88-3" d="M8,27H7v6H8V27Z"/><rect class="na88-2" x="7" y="26" width="1" height="1"/><path class="na88-2" d="M9,27H8v6H9V27Z"/><path class="na88-3" d="M11,25H10v1H8v1H9v6h2V25Z"/><path class="na88-2" d="M10,25H8v1h2Z"/><path class="na88-2" d="M12,26h1V25H12V24H10v1h1v8h1V26Z"/><path class="na88-4" d="M17,26H16v1H13V26H12v7h5V26Z"/><path class="na88-2" d="M13,23h3v1h1V21H16v1H13V21H12v3h1Z"/><path class="na88-2" d="M13,26v1h3V26H13Z"/><path class="na88-5" d="M13,25v1h3V25h1V24H16V23H13v1H12v1Z"/><path class="na88-2" d="M18,27V26H17v7h1V27Z"/><rect class="na88-2" x="16" y="25" width="1" height="1"/><path class="na88-3" d="M20,27H18v6h2V27Z"/><path class="na88-2" d="M21,27H20v6h1V27Z"/><path class="na88-3" d="M22,27H21v6h1V27Z"/><path class="na88-2" d="M23,25H22v8h1V25Z"/><rect class="na88-2" x="20" y="15" width="1" height="1"/><path class="na88-2" d="M19,15h1V11H19v4Z"/><path class="na88-5" d="M13,22h3V21h1V20h1V19h1V16h1V15H19V11H18V10H15v1H13V10H11v1H10v4H9v1h1v3h1v1h1v1h1Zm-2-7V14h1V13h1V12h3v1h1v1h1v1H16v1H15v1H14V16H13V15H11Zm1,4V18h1v1h3v1H13V19Z"/><path class="na88-2" d="M19,17v2h1V16H19Z"/><rect class="na88-2" x="18" y="10" width="1" height="1"/><rect class="na88-2" x="18" y="19" width="1" height="1"/><rect class="na88-2" x="17" y="20" width="1" height="1"/><path class="na88-2" d="M16,10h2V9H16Z"/><path class="na88-2" d="M13,9H11v1h2Z"/><rect class="na88-2" x="11" y="20" width="1" height="1"/><rect class="na88-2" x="10" y="10" width="1" height="1"/><rect class="na88-2" x="10" y="19" width="1" height="1"/><path class="na88-2" d="M10,14V11H9v4h1Z"/><path class="na88-2" d="M10,16H9v3h1V16Z"/><rect class="na88-2" x="8" y="15" width="1" height="1"/><path class="na88-6" d="M18,15V14H17v1Z"/><rect class="na88-6" x="16" y="13" width="1" height="1"/><rect class="na88-2" x="14" y="14" width="1" height="1"/><path class="na88-7" d="M13,15v1h3V15h1V14H16V13H13v1H12v1Zm1-1h1v1H14Z"/><path class="na88-6" d="M16,13V12H13v1h3Z"/><rect class="na88-6" x="12" y="13" width="1" height="1"/><rect class="na88-6" x="11" y="14" width="1" height="1"/><path class="na88-2" d="M14,17h1V16H14Z"/><rect class="na88-2" x="13" y="19" width="3" height="1"/><rect class="na88-2" x="12" y="18" width="1" height="1"/><path class="na88-8" d="M13,11h2V10h1V9h2V7H17V6h1V5H16V6H14V7H13v4Z"/><path class="na88-5" d="M20,25v2h2V25H20Z"/><path class="na88-9" d="M22,24V23H21v1Z"/><path class="na88-9" d="M21,23V22H20v1Z"/><path class="na88-9" d="M19,22H18v1h1Z"/><path class="na88-9" d="M20,26V25H18v1h2Z"/><rect class="na88-9" x="17" y="24" width="1" height="1"/><path class="na88-10" d="M18,25h1V24h1v1h1V23H18v2Z"/><path class="na88-10" d="M19,26H18v1h2V26Z"/><path class="na88-7" d="M21,25h1V24H21Z"/><path class="na88-7" d="M20,23V22H19v1Z"/><path class="na88-7" d="M18,24V23H17v1Z"/><rect class="na88-7" x="17" y="25" width="1" height="1"/><path class="na88-2" d="M20,24H19v1h1Z"/><rect class="na88-8" x="18" y="9" width="1" height="1"></rect></svg>