<svg xmlns="http://www.w3.org/2000/svg" viewBox="0 0 29 33"><defs><style>polygon,rect,path{shape-rendering:crispedges;}.cb273-1{fill:#d4a122;}.cb273-2{fill:#000000;}.cb273-3{fill:#333333;}.cb273-4{fill:#ffffff;}.cb273-5{fill:#efcaaf;}.cb273-6{fill:#5e362f;}.cb273-7{fill:#0068ff;}.cb273-8{fill:#ff1f4a;}.cb273-9{fill:#a06415;}</style></defs><path class="cb273-1" d="M0,33H6V27H7V26H8V25h2V24h1V23h1V21H11V20H10V19H9V16H8V15H9V10h1V9h1V8h7V9h1v1h1v5h1v1H20v3H19v1H18v1H17v2h1v1h1v1h2v1h1v1h1v6h6V0H0Z"/><path class="cb273-2" d="M23,27H22v6h1V27Z"/><path class="cb273-3" d="M22,27H21v6h1V27Z"/><rect class="cb273-2" x="21" y="26" width="1" height="1"/><path class="cb273-2" d="M21,27H20v6h1V27Z"/><path class="cb273-3" d="M20,27h1V26H19V25H18v4H17v4h3V27Z"/><path class="cb273-2" d="M20,26h1V25H19v1Z"/><path class="cb273-2" d="M17,29H16v4h1V29Z"/><rect class="cb273-4" x="16" y="24" width="1" height="1"/><path class="cb273-4" d="M16,29h1V26H16V25H13v1H12v3h1v4h1V32h1v1h1V29Zm-1,2H14V30h1Zm0-2H14V28h1Zm0-2H14V26h1Z"/><rect class="cb273-4" x="15" y="23" width="1" height="1"/><rect class="cb273-2" x="14" y="32" width="1" height="1"/><rect class="cb273-2" x="14" y="30" width="1" height="1"/><rect class="cb273-2" x="14" y="28" width="1" height="1"/><rect class="cb273-2" x="14" y="26" width="1" height="1"/><rect class="cb273-4" x="13" y="23" width="1" height="1"/><path class="cb273-2" d="M13,29H12v4h1V29Z"/><rect class="cb273-4" x="12" y="24" width="1" height="1"/><path class="cb273-3" d="M12,29H11V25H10v1H8v1H9v6h3V29Z"/><path class="cb273-2" d="M11,26v3h1V26h1V25H12V24h1V23h1v1H13v1h3V24H15V23h1v1h1v1H16v1h1v3h1V25h1V24H18V23H17V21H16v1H13V21H12v2H11v1H10v1h1Z"/><path class="cb273-2" d="M10,25H8v1h2Z"/><path class="cb273-2" d="M9,27H8v6H9V27Z"/><path class="cb273-3" d="M8,27H7v6H8V27Z"/><rect class="cb273-2" x="7" y="26" width="1" height="1"/><path class="cb273-2" d="M7,27H6v6H7V27Z"/><rect class="cb273-2" x="20" y="15" width="1" height="1"/><path class="cb273-2" d="M19,15h1V14H19Z"/><rect class="cb273-5" x="9" y="15" width="1" height="1"/><path class="cb273-5" d="M14,20V19H12v1h1v1h1Z"/><rect class="cb273-5" x="19" y="15" width="1" height="1"/><path class="cb273-5" d="M12,19V18h5v1h2V16H18v1H16V16H15v1H14V16H13v1H11V16H10v3h2Z"/><rect class="cb273-5" x="14" y="15" width="1" height="1"/><rect class="cb273-5" x="18" y="13" width="1" height="1"/><path class="cb273-5" d="M17,20V19H15v2h1V20Z"/><rect class="cb273-5" x="10" y="12" width="1" height="1"/><path class="cb273-5" d="M13,13v1h3V13h1V12h1V11H17V10H12v1H11v1h2Z"/><path class="cb273-2" d="M19,17v2h1V16H19Z"/><path class="cb273-2" d="M18,20h1V19H18Z"/><rect class="cb273-2" x="17" y="20" width="1" height="1"/><rect class="cb273-2" x="11" y="20" width="1" height="1"/><path class="cb273-2" d="M10,19v1h1V19Z"/><path class="cb273-2" d="M10,14H9v1h1Z"/><path class="cb273-2" d="M10,16H9v3h1V16Z"/><rect class="cb273-2" x="8" y="15" width="1" height="1"/><rect class="cb273-2" x="14" y="16" width="1" height="1"/><rect class="cb273-6" x="10" y="13" width="1" height="1"/><polygon class="cb273-6" points="12 13 13 13 13 12 11 12 11 13 12 13"/><path class="cb273-6" d="M17,13h2V12H17Z"/><path class="cb273-7" d="M17,19v1h1V19Z"/><rect class="cb273-7" x="16" y="20" width="1" height="1"/><path class="cb273-7" d="M15,20H14v1H13v1h3V21H15Z"/><path class="cb273-7" d="M15,19h2V18H12v1h3Z"/><rect class="cb273-7" x="12" y="20" width="1" height="1"/><path class="cb273-7" d="M12,19H11v1h1Z"/><path class="cb273-2" d="M14,20h1V19H14Z"/><path class="cb273-8" d="M10,13V12h1V11h1V10h5v1h1v1h1v2h1V10H19V9H18V8H11V9H10v1H9v4h1Z"/><path class="cb273-9" d="M12,13H11v1h2V13Z"/><path class="cb273-9" d="M11,17h2V16H11Z"/><path class="cb273-9" d="M10,14v2h1V14Z"/><path class="cb273-2" d="M11,14v2h2V14Z"/><path class="cb273-9" d="M19,14H18v2h1V14Z"/><path class="cb273-9" d="M17,13H16v1h2V13Z"/><path class="cb273-9" d="M16,17h2V16H16Z"/><path class="cb273-9" d="M13,14v2h1V15h1v1h1V14Z"/><path class="cb273-2" d="M16,14v2h2V14Z"/></svg>