<svg xmlns="http://www.w3.org/2000/svg" viewBox="0 0 29 33"><defs><style>polygon,rect,path{shape-rendering:crispedges;}.ua77-1{fill:#db5a8e;}.ua77-2{fill:#000000;}.ua77-3{fill:#474718;}.ua77-4{fill:#e8b795;}.ua77-5{fill:#8e9350;}.ua77-6{fill:#9b8100;}.ua77-7{fill:#0068ff;}.ua77-8{fill:#a06415;}.ua77-9{fill:#6d5800;}.ua77-10{fill:#fad000;}.ua77-11{fill:#ea1500;}</style></defs><path class="ua77-1" d="M21,22V21H20v1H19v1H18v1h1v1h2V23h1V22Z"/><path class="ua77-2" d="M23,25v6h1V24H23Z"/><path class="ua77-2" d="M7,27H6v6H7V27Z"/><path class="ua77-3" d="M8,27H7v6H8V27Z"/><rect class="ua77-2" x="7" y="26" width="1" height="1"/><path class="ua77-2" d="M9,27H8v6H9V27Z"/><path class="ua77-3" d="M10,30h1V29h1V25h1V24H11v1H10v1H8v1H9v6h1V30Z"/><path class="ua77-3" d="M20,27h1V26H19V25H18V24H16v1h1v4h1v1h1v3h1V27Z"/><path class="ua77-2" d="M10,25H8v1h2Z"/><rect class="ua77-2" x="10" y="24" width="1" height="1"/><path class="ua77-2" d="M13,23H11v1h2Z"/><path class="ua77-2" d="M13,24v1h3V24H13Z"/><path class="ua77-4" d="M15,23H13v1h3V23Z"/><path class="ua77-2" d="M17,23H16v1h2V23Z"/><rect class="ua77-2" x="18" y="24" width="1" height="1"/><path class="ua77-2" d="M22,32h1V31H22V23H21v2H19v1h2v1H20v6h1V32Z"/><path class="ua77-3" d="M23,25V24H22v7h1V25Z"/><path class="ua77-3" d="M16,32H12v1h5V32Z"/><path class="ua77-3" d="M13,25v3h3V25H13Z"/><rect class="ua77-3" x="12" y="30" width="1" height="1"/><rect class="ua77-3" x="16" y="30" width="1" height="1"/><path class="ua77-5" d="M19,30H18V29H17v2H16V28H13v3H12V29H11v1H10v3h2V32h5v1h2V30Z"/><path class="ua77-2" d="M13,25H12v5h1V25Z"/><path class="ua77-2" d="M16,28v2h1V25H16v3Z"/><path class="ua77-4" d="M11,12v1h2v1h3V12h1V11H12v1Z"/><rect class="ua77-4" x="18" y="13" width="1" height="1"/><path class="ua77-4" d="M16,22V21h1V20h1V19h1V16H18v1H16V16H15v1H14V16H13v1H11V16H10v3h1v1h1v1h1v1h3Zm-4-3V18h1v1h3v1H13V19Z"/><rect class="ua77-4" x="14" y="15" width="1" height="1"/><rect class="ua77-2" x="14" y="16" width="1" height="1"/><path class="ua77-6" d="M18,12H16v1h2Z"/><rect class="ua77-7" x="18" y="12" width="1" height="1"/><path class="ua77-7" d="M11,14V12H10v2Z"/><path class="ua77-3" d="M13,22H12V21H11V20H10V19H9V12h1V11h2V10h5v1h2v1h1v7H19v1H18v1H17v1H16v1h2V22h1V21h1V20h1V11H20V10H19V9H18V8H11V9H10v1H9v1H8v9H9v1h1v1h1v1h2Z"/><rect class="ua77-2" x="10" y="8" width="1" height="1"/><rect class="ua77-2" x="9" y="9" width="1" height="1"/><rect class="ua77-2" x="8" y="10" width="1" height="1"/><path class="ua77-2" d="M8,11H7v9H8V11Z"/><rect class="ua77-2" x="8" y="20" width="1" height="1"/><rect class="ua77-2" x="9" y="21" width="1" height="1"/><rect class="ua77-2" x="10" y="22" width="1" height="1"/><rect class="ua77-2" x="18" y="22" width="1" height="1"/><rect class="ua77-2" x="19" y="21" width="1" height="1"/><rect class="ua77-2" x="20" y="20" width="1" height="1"/><path class="ua77-2" d="M21,19h1V11H21v8Z"/><rect class="ua77-2" x="20" y="10" width="1" height="1"/><rect class="ua77-2" x="19" y="9" width="1" height="1"/><rect class="ua77-2" x="18" y="8" width="1" height="1"/><path class="ua77-2" d="M18,8V7H11V8h7Z"/><path class="ua77-2" d="M12,12V11H10v1h2Z"/><path class="ua77-2" d="M10,16V12H9v7h1V16Z"/><rect class="ua77-2" x="10" y="19" width="1" height="1"/><rect class="ua77-2" x="11" y="20" width="1" height="1"/><rect class="ua77-2" x="12" y="21" width="1" height="1"/><path class="ua77-2" d="M16,23V22H13v1h3Z"/><rect class="ua77-2" x="16" y="21" width="1" height="1"/><rect class="ua77-2" x="17" y="20" width="1" height="1"/><rect class="ua77-2" x="18" y="19" width="1" height="1"/><path class="ua77-2" d="M19,14v5h1V12H19v2Z"/><path class="ua77-2" d="M18,12h1V11H17v1Z"/><path class="ua77-2" d="M17,11V10H12v1h5Z"/><path class="ua77-1" d="M0,7V33H6V27H7V26H8V25h2V24h1V23H10V22H9V21H8V20H7V11H8V10H9V9h1V8h1V7h7V8h1V9h1v1h1v1h1v9h1V18h1V17h3v5H26v1H25v1H24v7H23v1H21v1h8V0H0Z"/><path class="ua77-8" d="M13,13H11v1h2Z"/><path class="ua77-8" d="M11,17h2V16H11Z"/><path class="ua77-8" d="M10,14v2h1V14Z"/><path class="ua77-2" d="M11,14v2h2V14Z"/><path class="ua77-8" d="M18,14v2h1V14Z"/><path class="ua77-8" d="M18,13H16v1h2Z"/><path class="ua77-8" d="M16,17h2V16H16Z"/><path class="ua77-8" d="M13,14v2h1V15h1v1h1V14Z"/><path class="ua77-2" d="M16,14v2h2V14Z"/><rect class="ua77-2" x="13" y="19" width="3" height="1"/><rect class="ua77-2" x="12" y="18" width="1" height="1"/><rect class="ua77-9" x="21" y="21" width="1" height="1"/><path class="ua77-10" d="M21,20v1h1v1h2V21h1v1H24v1h2V22h1V20H25V19H24V18H23v2H22V19H21Z"/><path class="ua77-4" d="M23,23H22v1h2V23Z"/><path class="ua77-9" d="M24,23V22H22v1h2Z"/><path class="ua77-2" d="M24,24h1V23H24Z"/><rect class="ua77-9" x="24" y="21" width="1" height="1"/><rect class="ua77-2" x="24" y="18" width="1" height="1"/><path class="ua77-11" d="M25,19v1h2V19H25Z"/><path class="ua77-10" d="M25,19h1V18h1V17H24v1h1Z"/><path class="ua77-2" d="M26,19h1V18H26Z"/></svg>