<svg xmlns="http://www.w3.org/2000/svg" viewBox="0 0 29 33"><defs><style>polygon,rect,path{shape-rendering:crispedges;}.oa294-1{fill:#db5a8e;}.oa294-2{fill:#000000;}.oa294-3{fill:#95f9ed;}.oa294-4{fill:#cc3232;}.oa294-5{fill:#b2622b;}.oa294-6{fill:#009b97;}.oa294-7{fill:#00774c;}.oa294-8{fill:#fad000;}.oa294-9{fill:#dfdfdf;}.oa294-10{fill:#a89969;}.oa294-11{fill:#ffffff;}</style></defs><path class="oa294-1" d="M0,33H6V27H7V26H8V25h2V24h2V22H11V21H10v1H9V21H8V20H7V19H8V13H7V12H5V11H7v1H9V10h1V8h1V7h2V8h3V7h2V8h1V7h1V6h2V8H21V9H20v3h2V11h2v1H22v1H21v6h1v1H21v1H20v1H19V21H18v1H17v2h2v1h1V24h1V23h1v1h1v9h6V0H0Z"/><path class="oa294-2" d="M7,31V27H6v6H7V31Z"/><path class="oa294-3" d="M8,28V27H7v1Z"/><path class="oa294-3" d="M7,30v1H8V29H7Z"/><path class="oa294-3" d="M7,32v1H8V32Z"/><rect class="oa294-2" x="7" y="26" width="1" height="1"/><path class="oa294-2" d="M9,31V27H8v6H9V31Z"/><path class="oa294-3" d="M9,27v1h1v1H9v2h1V30h1V27H10V26H8v1Z"/><path class="oa294-3" d="M9,32v1h1V32Z"/><path class="oa294-2" d="M10,25H8v1h2Z"/><path class="oa294-2" d="M12,26h1V25H12V24H10v1h1v8h1V26Z"/><path class="oa294-4" d="M17,26H16v1H13V26H12v7h5V26Z"/><path class="oa294-2" d="M13,23h3v1h1V21H16v1H13V21H12v3h1Z"/><path class="oa294-2" d="M13,26v1h3V26H13Z"/><path class="oa294-5" d="M13,25v1h3V25h1V24H16V23H13v1H12v1Z"/><path class="oa294-2" d="M18,30V25h1V24H17v1H16v1h1v7h1V30Z"/><rect class="oa294-3" x="19" y="32" width="1" height="1"/><path class="oa294-3" d="M18,27v3h1v1h1V29H19V28h1V27H18Z"/><path class="oa294-2" d="M21,31V27H20v6h1V31Z"/><path class="oa294-3" d="M21,30v1h1V29H21Z"/><path class="oa294-3" d="M21,28h1V27H21Z"/><path class="oa294-3" d="M21,32v1h1V32Z"/><path class="oa294-2" d="M23,24H22v9h1V24Z"/><path class="oa294-6" d="M11,30H10v1H9v1h1v1h1V30Z"/><path class="oa294-6" d="M10,27h1V25H10v2Z"/><path class="oa294-6" d="M18,26v1h1V25H18Z"/><path class="oa294-6" d="M7,29H8V28H7Z"/><path class="oa294-6" d="M10,28H9v1h1Z"/><path class="oa294-6" d="M21,29h1V28H21Z"/><path class="oa294-6" d="M19,29h1V28H19Z"/><path class="oa294-6" d="M21,32h1V31H21Z"/><path class="oa294-6" d="M7,32H8V31H7Z"/><path class="oa294-6" d="M20,32V31H19V30H18v3h1V32Z"/><path class="oa294-2" d="M20,16h1V15H20Z"/><rect class="oa294-5" x="14" y="15" width="1" height="1"/><path class="oa294-5" d="M18,20V19h1V17H16V16H15v1H14V16H13v1H10v2h1v1h1v1h1v1h3V21h1V20Zm-2-1v1H13V19h3V18h1v1Z"/><path class="oa294-5" d="M14,14h2V13H13v1Z"/><path class="oa294-2" d="M19,18v1h1V16H19v2Z"/><rect class="oa294-2" x="18" y="19" width="1" height="1"/><rect class="oa294-2" x="17" y="20" width="1" height="1"/><rect class="oa294-2" x="11" y="20" width="1" height="1"/><rect class="oa294-2" x="10" y="19" width="1" height="1"/><path class="oa294-2" d="M10,16H9v3h1V16Z"/><path class="oa294-2" d="M9,15H8v1H9Z"/><rect class="oa294-2" x="14" y="16" width="1" height="1"/><rect class="oa294-2" x="13" y="19" width="3" height="1"/><rect class="oa294-2" x="16" y="18" width="1" height="1"/><path class="oa294-5" d="M21,27h1V24H21v1H20v2Z"/><path class="oa294-2" d="M20,27V25H19v2Z"/><rect class="oa294-2" x="20" y="24" width="1" height="1"/><rect class="oa294-2" x="21" y="23" width="1" height="1"/><path class="oa294-7" d="M20,17v2H19v1H18v1h1v1h1V21h1V20h1V19H21V16H20Z"/><path class="oa294-7" d="M19,14h2V13H19Z"/><path class="oa294-7" d="M10,13H8v1h2Z"/><path class="oa294-7" d="M10,20V19H9V16H8v3H7v1H8v1H9v1h1V21h1V20Z"/><path class="oa294-7" d="M11,21v1h1V21Z"/><path class="oa294-7" d="M17,22h1V21H17Z"/><path class="oa294-8" d="M19,16h1V15h1V14H19Z"/><path class="oa294-8" d="M17,14h2V13H16v1Z"/><path class="oa294-2" d="M16,14v2h3V14H16Z"/><path class="oa294-8" d="M16,16v1h3V16H16Z"/><path class="oa294-8" d="M14,14H13v2h1V15h1v1h1V14Z"/><path class="oa294-8" d="M13,14V13H10v1h3Z"/><path class="oa294-2" d="M13,16V14H10v2h3Z"/><path class="oa294-8" d="M11,17h2V16H10v1Z"/><path class="oa294-8" d="M9,16h1V14H8v1H9Z"/><path class="oa294-2" d="M24,11H22v1h2Z"/><path class="oa294-9" d="M21,8h1V7H21Z"/><path class="oa294-2" d="M13,13h9V12H20V11H19v1H10V11H9v1H7v1h6Z"/><rect class="oa294-9" x="20" y="8" width="1" height="1"/><path class="oa294-10" d="M19,11h1V10H19Z"/><path class="oa294-11" d="M18,11h1V10h1V8h1V7h1V6H20V7H19V8H18v3Z"/><path class="oa294-10" d="M17,11H10v1h9V11H17Z"/><path class="oa294-2" d="M11,11h7V7H16V8H13V7H11V8H10v3Z"/><path class="oa294-10" d="M10,10H9v1h1Z"/><path class="oa294-2" d="M6,11H5v1H7V11Z"/></svg>