<svg xmlns="http://www.w3.org/2000/svg" viewBox="0 0 29 33"><defs><style>polygon,rect,path{shape-rendering:crispedges;}.hb294-1{fill:#29834f;}.hb294-2{fill:#000000;}.hb294-3{fill:#e8b795;}.hb294-4{fill:#b23b00;}.hb294-5{fill:#b23b00;}.hb294-6{fill:#ffffff;}.hb294-7{fill:#e70059;}.hb294-8{fill:#cc2f76;}</style></defs><path class="hb294-1" d="M0,33H29V0H0Zm6-1V27H7V26H8V25h2V24h2V22H11V21H10V20H9V16H8V15H9V10h1V9h1V8h7V9h1v1h1v5h1v1H20v4H19v1H18v1H17v2h2v1h2V23H20V21h1V20h1V19h2v1h1v3H24v8H23v1H21v1H6Z"/><path class="hb294-2" d="M23,24v7h1V23H23Z"/><path class="hb294-2" d="M7,32V27H6v6H7Z"/><path class="hb294-3" d="M7,32v1H8V27H7v5Z"/><rect class="hb294-2" x="7" y="26" width="1" height="1"/><path class="hb294-2" d="M9,27H8v6H9V27Z"/><path class="hb294-3" d="M9,27v6h5V29h1v4h5V27h1V26H19V25H17V24H16V23H13v1H12v1H10v1H8v1Zm8,1h1v1H17Zm-6,0h1v1H11Z"/><path class="hb294-2" d="M10,25H8v1h2Z"/><rect class="hb294-2" x="11" y="28" width="1" height="1"/><path class="hb294-2" d="M12,24H10v1h2Z"/><path class="hb294-2" d="M13,23V22H12v2h1Z"/><path class="hb294-2" d="M15,29H14v4h1V29Z"/><rect class="hb294-2" x="17" y="28" width="1" height="1"/><path class="hb294-2" d="M18,25h1V24H17v1Z"/><path class="hb294-2" d="M20,26h1v1H20v6h1V32h2V31H22V23H21v2H19v1Z"/><rect class="hb294-2" x="20" y="15" width="1" height="1"/><path class="hb294-3" d="M19,12V11H18V10H17v1H14V10H13v1H12V10H11v1H10v2h1V12h2v1h3V12h2v1h1Z"/><rect class="hb294-3" x="15" y="20" width="1" height="1"/><path class="hb294-3" d="M10,17v1h1v1h1V18h5v1h1V18h1V16h1V15H18v1H16V15H15V14H14v1H13v1H11V15H9v1h1Zm4-1h1v1H14Z"/><polygon class="hb294-3" points="13 21 13 21 14 21 14 20 13 20 13 21"/><path class="hb294-2" d="M16,23v1h1V22H16Z"/><rect class="hb294-2" x="8" y="15" width="1" height="1"/><rect class="hb294-2" x="14" y="16" width="1" height="1"/><rect class="hb294-4" x="18" y="13" width="1" height="1"/><path class="hb294-4" d="M16,12v1h2V12Z"/><rect class="hb294-4" x="10" y="13" width="1" height="1"/><path class="hb294-4" d="M11,12v1h2V12Z"/><path class="hb294-5" d="M13,23h3V22h2V21h1V20h1V16H19v2H18v1H16v2H15V20H14v1H13V19H11V18H10V16H9v4h1v1h1v1h2Z"/><path class="hb294-2" d="M12,18v1h1V18Z"/><path class="hb294-2" d="M16,18v1h1V18Z"/><path class="hb294-2" d="M15,20h1V19H15Z"/><path class="hb294-2" d="M15,19V18H14v1Z"/><path class="hb294-2" d="M13,19v1h1V19Z"/><path class="hb294-6" d="M14,18H13v1h1Z"/><path class="hb294-6" d="M15,18v1h1V18Z"/><rect class="hb294-7" x="14" y="19" width="1" height="1"/><path class="hb294-2" d="M20,21v2h1V21Z"/><rect class="hb294-2" x="21" y="20" width="1" height="1"/><rect class="hb294-2" x="22" y="19" width="2" height="1"/><path class="hb294-2" d="M24,23h1V20H24v3Z"/><path class="hb294-3" d="M22,24v7h1V23h1V20H22v1H21v2h1Z"/><path class="hb294-8" d="M10,13V11h1V10h1v1h1V10h1v1h3V10h1v1h1v3h1V10H19V9H18V8H11V9H10v1H9v4h1Z"/><path class="hb294-2" d="M11,16h2V15h1V14h1v1h1v1h2V15h2V14H18V13H11v1H9v1h2Z"/></svg>