<svg xmlns="http://www.w3.org/2000/svg" viewBox="0 0 29 33"><defs><style>polygon,rect,path{shape-rendering:crispedges;}.ya268-1{fill:#d4a122;}.ya268-2{fill:#000000;}.ya268-3{fill:#5a2de2;}.ya268-4{fill:#a56e49;}.ya268-5{fill:#825fff;}.ya268-6{fill:#00774c;}.ya268-7{fill:#00774c;}.ya268-8{fill:#db5800;}.ya268-9{fill:#ffffff;}</style></defs><path class="ya268-1" d="M0,33H6V27H7V26H8V25h2V24h1V23h1V21H11V20H10V19H9V16H8V15H9V11h1V9h1V7h1V6H11V5h2V6h2V7h1V9h2v1h1v1h1v4h1v1H20v3H19v1H18v1H17v2h1v1h1v1h2v1h1v1h1v6h6V0H0Z"/><path class="ya268-2" d="M23,27H22v6h1V27Z"/><path class="ya268-3" d="M21,31v1h1V30H21Z"/><path class="ya268-3" d="M21,28h1V27H21Z"/><rect class="ya268-2" x="21" y="26" width="1" height="1"/><path class="ya268-2" d="M21,31V27H20v6h1V31Z"/><rect class="ya268-3" x="14" y="29" width="1" height="1"/><path class="ya268-3" d="M13,29h1V27H13V26H12v2h1Z"/><path class="ya268-3" d="M19,31V30H18V28H17V27H16V25H15v3h1v1h1v2h1v1h1v1h1V31Z"/><path class="ya268-3" d="M16,31V30H15v2h1v1h1V31Z"/><path class="ya268-3" d="M18,26v2h1v1h1V27H19V25H18Z"/><path class="ya268-3" d="M14,31H13V30H12V28H11V27H10V26H9v2h1v1h1v2h1v1h1v1h1V31Z"/><path class="ya268-3" d="M10,31V30H9v2h1v1h1V31Z"/><path class="ya268-2" d="M20,26h1V25H19v1Z"/><rect class="ya268-3" x="16" y="24" width="1" height="1"/><rect class="ya268-2" x="15" y="24" width="1" height="1"/><path class="ya268-2" d="M14,32v1h1V32Z"/><path class="ya268-2" d="M14,31h1V30H14Z"/><path class="ya268-2" d="M14,29h1V28H14Z"/><path class="ya268-2" d="M14,26v1h1V25H14Z"/><rect class="ya268-2" x="13" y="24" width="1" height="1"/><path class="ya268-4" d="M16,24V23H13v1h1v1h1V24Z"/><path class="ya268-2" d="M11,26h2V25H12V24h1V23h3v1h1v1H16v1h2V25h1V24H18V23H17V21H16v1H13V21H12v2H11v1H10v1h1Z"/><path class="ya268-2" d="M10,26V25H8v1h2Z"/><path class="ya268-2" d="M9,31V27H8v6H9V31Z"/><path class="ya268-3" d="M8,29V27H7v2Z"/><path class="ya268-3" d="M7,31v2H8V31Z"/><rect class="ya268-2" x="7" y="26" width="1" height="1"/><path class="ya268-2" d="M7,30V27H6v6H7V30Z"/><path class="ya268-5" d="M21,29v1h1V28H21Z"/><path class="ya268-5" d="M21,32v1h1V32Z"/><path class="ya268-5" d="M19,26v1h2V26H19Z"/><path class="ya268-5" d="M19,28H18v2h1v1h1V29H19Z"/><path class="ya268-5" d="M16,26v1h1v1h1V26Z"/><path class="ya268-5" d="M18,32V31H17v2h2V32Z"/><path class="ya268-5" d="M15,30h1v1h1V29H16V28H15v2Z"/><path class="ya268-5" d="M14,28h1V27H14Z"/><polygon class="ya268-5" points="14 27 14 26 14 25 13 25 13 26 13 27 14 27"/><path class="ya268-5" d="M14,32h1V31H14Z"/><rect class="ya268-5" x="15" y="32" width="1" height="1"/><path class="ya268-5" d="M14,29H13V28H12v2h1v1h1V29Z"/><rect class="ya268-5" x="12" y="24" width="1" height="1"/><path class="ya268-5" d="M10,27h1v1h1V26H11V25H10v2Z"/><path class="ya268-5" d="M12,32V31H11v2h2V32Z"/><path class="ya268-5" d="M10,30v1h1V29H10V28H9v2Z"/><path class="ya268-5" d="M9,32v1h1V32Z"/><path class="ya268-5" d="M9,27V26H8v1Z"/><path class="ya268-5" d="M7,30v1H8V29H7Z"/><rect class="ya268-2" x="20" y="15" width="1" height="1"/><path class="ya268-2" d="M19,14v1h1V11H19v3Z"/><rect class="ya268-4" x="14" y="15" width="1" height="1"/><path class="ya268-4" d="M12,12v1h1v1h3V12h2v1h1V11H18V10H16v1H14V10H11v1H10v1Z"/><rect class="ya268-4" x="10" y="13" width="1" height="1"/><rect class="ya268-4" x="19" y="15" width="1" height="1"/><path class="ya268-4" d="M13,22h3V21h1V20h1V19h1V16H18v1H16V16H15v1H14V16H13v1H11V16H10v3h1v1h1v1h1Zm-1-3V18h5v1H16v1H13V19Z"/><rect class="ya268-4" x="9" y="15" width="1" height="1"/><path class="ya268-2" d="M19,17v2h1V16H19Z"/><rect class="ya268-2" x="18" y="10" width="1" height="1"/><rect class="ya268-2" x="18" y="19" width="1" height="1"/><rect class="ya268-2" x="17" y="20" width="1" height="1"/><path class="ya268-2" d="M17,10h1V9H16v1Z"/><path class="ya268-2" d="M12,10h1V9H11v1Z"/><rect class="ya268-2" x="11" y="20" width="1" height="1"/><path class="ya268-2" d="M11,10H10v1h1Z"/><rect class="ya268-2" x="10" y="19" width="1" height="1"/><path class="ya268-2" d="M10,14V11H9v4h1Z"/><path class="ya268-2" d="M10,16H9v3h1V16Z"/><rect class="ya268-2" x="8" y="15" width="1" height="1"/><rect class="ya268-2" x="14" y="16" width="1" height="1"/><path class="ya268-6" d="M19,14V13H18v1Z"/><path class="ya268-6" d="M18,12H16v1h2Z"/><path class="ya268-6" d="M12,13V12H10v1h2Z"/><path class="ya268-7" d="M16,19V18H12v1h4Z"/><path class="ya268-2" d="M13,20h3V19H13Z"/><path class="ya268-2" d="M17,19V18H16v1Z"/><path class="ya268-8" d="M13,10h1v1h2V7H15V6H13V5H11V6h1V7H11V9h2Z"/><path class="ya268-8" d="M11,9H10v1h1Z"/><path class="ya268-9" d="M11,14h2V13H11Z"/><path class="ya268-9" d="M11,17h2V16H11Z"/><path class="ya268-9" d="M10,14v2h1V14Z"/><path class="ya268-2" d="M11,14v2h2V14Z"/><path class="ya268-9" d="M19,14H18v2h1V14Z"/><path class="ya268-9" d="M18,13H16v1h2Z"/><path class="ya268-9" d="M16,17h2V16H16Z"/><path class="ya268-9" d="M13,14v2h1V15h1v1h1V14Z"/><path class="ya268-2" d="M16,14v2h2V14Z"/><rect class="ya268-8" x="10" y="9" width="1" height="1"></rect></svg>