<svg xmlns="http://www.w3.org/2000/svg" viewBox="0 0 29 33"><defs><style>polygon,rect,path{shape-rendering:crispedges;}.ca116-1{fill:#29834f;}.ca116-2{fill:#000000;}.ca116-3{fill:#b2622b;}.ca116-4{fill:#0068ff;}.ca116-5{fill:#0068ff;}.ca116-6{fill:#ffffff;}.ca116-7{fill:#663228;}.ca116-8{fill:#ff1f4a;}.ca116-9{fill:#455054;}.ca116-10{fill:#ff1f4a;}</style></defs><path class="ca116-1" d="M8,19v3H9v2H8v1h2V24h2V21H11V20H10V19H9V16H8v3Z"/><path class="ca116-1" d="M0,33H8V32H6V31H5V22H6V21H7V20H5v1H2V17H5V16H8V15H9V10h1V9h1V8h7V9h1v1h1v2h1v6H20v1H19v1H18v1H17v3h2v1h2v1h1v1h1v6h6V0H0Z"/><path class="ca116-2" d="M23,27H22v6h1V27Z"/><rect class="ca116-2" x="21" y="26" width="1" height="1"/><path class="ca116-3" d="M22,27H21v6h1V27Z"/><rect class="ca116-3" x="20" y="26" width="1" height="1"/><path class="ca116-2" d="M21,27H20v6h1V27Z"/><path class="ca116-2" d="M20,26h1V25H19v1Z"/><path class="ca116-4" d="M20,27V26H19V25H18v1H17v1H16v1H13V27H12V26H11V25H10v1H9v7h1V29h1v4h1V29h3v4h1V29h3v1H17v2h1V31h1v2h1V27Z"/><rect class="ca116-4" x="13" y="30" width="1" height="2"/><path class="ca116-2" d="M18,26V25h1V24H17v2Z"/><rect class="ca116-2" x="16" y="26" width="1" height="1"/><path class="ca116-2" d="M13,27v1h3V27H13Z"/><path class="ca116-3" d="M16,23H13v1H12v2h1v1h3V26h1V24H16Z"/><rect class="ca116-2" x="12" y="26" width="1" height="1"/><path class="ca116-2" d="M10,24v1h1v1h1V24Z"/><path class="ca116-3" d="M8,27H9V26H8Z"/><path class="ca116-2" d="M9,27H8V26h2V25H8V24H7v7H6v1H8v1H9V27Z"/><path class="ca116-3" d="M7,30V24H8V22H6v9H7Z"/><path class="ca116-2" d="M6,22H5v9H6V22Z"/><path class="ca116-5" d="M12,29v4h3V29Zm2,3H13V30h1Z"/><path class="ca116-5" d="M11,29H10v4h1V29Z"/><path class="ca116-5" d="M18,31v1H17V30h2V29H16v4h3V31Z"/><path class="ca116-3" d="M10,16v3h1v1h1v1h1v1h3V21h1V20h1V19h1V16h1V15H16V14h2V13H16V12H15V11H13V10H11v1H10v2h1V12h2v1H11v1h2v1H9v1Zm4,0h1v1H14Zm-1,3h3V18h1v1H16v1H13Z"/><path class="ca116-2" d="M19,16v3h1V16Z"/><rect class="ca116-2" x="18" y="19" width="1" height="1"/><rect class="ca116-2" x="17" y="20" width="1" height="1"/><path class="ca116-2" d="M16,22H13V21H12v3h1V23h3v1h1V21H16Z"/><rect class="ca116-2" x="11" y="20" width="1" height="1"/><rect class="ca116-2" x="10" y="19" width="1" height="1"/><path class="ca116-2" d="M10,16H9v3h1V16Z"/><rect class="ca116-2" x="8" y="15" width="1" height="1"/><rect class="ca116-2" x="14" y="16" width="1" height="1"/><path class="ca116-6" d="M13,15V14H12v1Z"/><path class="ca116-6" d="M10,15h1V14H10Z"/><path class="ca116-6" d="M18,14v1h1V14Z"/><path class="ca116-6" d="M16,14v1h1V14Z"/><path class="ca116-2" d="M12,15V14H11v1Z"/><path class="ca116-2" d="M17,14v1h1V14Z"/><rect class="ca116-7" x="10" y="13" width="1" height="1"/><rect class="ca116-7" x="11" y="12" width="2" height="1"/><rect class="ca116-2" x="13" y="19" width="3" height="1"/><rect class="ca116-2" x="16" y="18" width="1" height="1"/><path class="ca116-8" d="M10,14V11h1V10h2v1h2v1h1v1h2v1h1v1h1v3h1V12H20V10H19V9H18V8H11V9H10v1H9v5h1Z"/><path class="ca116-9" d="M8,22V20H7v2Z"/><path class="ca116-2" d="M7,21H6v1H7Z"/><path class="ca116-2" d="M9,22H8v2H9Z"/><path class="ca116-10" d="M3,17H2v1H3Z"/><path class="ca116-10" d="M8,19V16H5v1H4v1H3v1H4v1H3V19H2v2H5V20H8ZM6,19H5V18H6Z"/><path class="ca116-6" d="M4,18V17H3v1Z"/><path class="ca116-6" d="M3,18H2v1H3Z"/><rect class="ca116-6" x="3" y="19" width="1" height="1"/><rect class="ca116-6" x="5" y="18" width="1" height="1"/></svg>