<svg xmlns="http://www.w3.org/2000/svg" viewBox="0 0 29 33"><defs><style>polygon,rect,path{shape-rendering:crispedges;}.ib111-1{fill:#db5a8e;}.ib111-2{fill:#000000;}.ib111-3{fill:#a56e49;}.ib111-4{fill:#ffffff;}.ib111-5{fill:#316a6d;}.ib111-6{fill:#316a6d;}.ib111-7{fill:#c8a715;}.ib111-8{fill:#6e12ff;}</style></defs><path class="ib111-1" d="M0,33H6V27H7V26H8V25h2V20H9V16H8V15H9V13H8V9H9V8h1V7h1V6h7V7h1V8h1V9h1v4H20v2h1v1H20v4H19v5h2V23H20V21h1V20h1V19h2v1h1v3H24v8H23v1H21v1h8V0H0Z"/><path class="ib111-1" d="M12,22H11v2h1V22Z"/><path class="ib111-1" d="M18,24V22H17v2Z"/><path class="ib111-2" d="M23,24v7h1V23H23Z"/><path class="ib111-2" d="M7,27H6v6H7V27Z"/><path class="ib111-3" d="M8,27H7v6H8V27Z"/><rect class="ib111-2" x="7" y="26" width="1" height="1"/><path class="ib111-2" d="M9,27H8v6H9V27Z"/><path class="ib111-3" d="M20,27h1V26H19V25H16V23H13v2H10v1H8v1H9v6h5V29h1v4h5V27Zm-8,2H11V28h1Zm6,0H17V28h1Z"/><path class="ib111-2" d="M10,25H8v1h2Z"/><rect class="ib111-2" x="11" y="28" width="1" height="1"/><path class="ib111-2" d="M12,24H10v1h2Z"/><path class="ib111-2" d="M15,29H14v4h1V29Z"/><rect class="ib111-2" x="17" y="28" width="1" height="1"/><path class="ib111-2" d="M17,24v1h2V24H17Z"/><path class="ib111-2" d="M22,32h1V31H22V23H21v2H19v1h2v1H20v6h1V32Z"/><rect class="ib111-2" x="20" y="15" width="1" height="1"/><polygon class="ib111-3" points="13 21 14 21 14 22 15 22 15 21 16 21 16 20 13 20 13 21"/><polygon class="ib111-3" points="18 14 19 14 19 13 17 13 17 14 18 14"/><rect class="ib111-3" x="10" y="12" width="1" height="1"/><path class="ib111-3" d="M10,17v1h1v1h1V18h2v1h1V18h2v1h1V18h1V16h1V15H16V13h1V12h1V11H11v1h2v1H11v1h2v1H9v1h1Zm4-1h1v1H14Z"/><path class="ib111-2" d="M19,17h1V16H19Z"/><path class="ib111-2" d="M10,14H9v1h1Z"/><path class="ib111-2" d="M10,16H9v1h1Z"/><rect class="ib111-2" x="8" y="15" width="1" height="1"/><rect class="ib111-2" x="14" y="16" width="1" height="1"/><path class="ib111-4" d="M10,15h1V14H10Z"/><path class="ib111-4" d="M16,14v1h1V14Z"/><path class="ib111-2" d="M12,15h1V14H11v1Z"/><path class="ib111-2" d="M18,14H17v1h3V14H18Z"/><rect class="ib111-5" x="10" y="13" width="1" height="1"/><rect class="ib111-5" x="11" y="12" width="2" height="1"/><path class="ib111-5" d="M17,13H16v1h1Z"/><path class="ib111-5" d="M19,12H17v1h2Z"/><path class="ib111-6" d="M12,22v1h5V22h2V20h1V17H19v1H18v1H17V18H15v1h1v2H15v1H14V21H13V19H11V18H10V17H9v3h1v2h2Z"/><path class="ib111-6" d="M14,18H13v1h1Z"/><path class="ib111-7" d="M18,23h1V22H18Z"/><path class="ib111-6" d="M18,24h1V23H18Z"/><path class="ib111-7" d="M17,23H16v1h1Z"/><path class="ib111-6" d="M16,24v1h1V24Z"/><path class="ib111-7" d="M12,24h1V23H12Z"/><path class="ib111-6" d="M12,25h1V24H12Z"/><path class="ib111-7" d="M11,22H10v1h1Z"/><path class="ib111-6" d="M11,23H10v1h1Z"/><path class="ib111-2" d="M13,19v1h3V19H13Z"/><path class="ib111-2" d="M12,18v1h1V18Z"/><path class="ib111-2" d="M20,21v2h1V21Z"/><rect class="ib111-2" x="21" y="20" width="1" height="1"/><rect class="ib111-2" x="22" y="19" width="2" height="1"/><path class="ib111-2" d="M24,23h1V20H24v3Z"/><path class="ib111-3" d="M22,24v7h1V23h1V20H22v1H21v2h1Z"/><path class="ib111-8" d="M10,13V12h1V11h7v1h1v2h1V13h1V9H20V8H19V7H18V6H11V7H10V8H9V9H8v4H9v1h1Z"/></svg>