<svg xmlns="http://www.w3.org/2000/svg" viewBox="0 0 29 33"><defs><style>polygon,rect,path{shape-rendering:crispedges;}.da238-1{fill:#397d98;}.da238-2{fill:#000000;}.da238-3{fill:#ff1d99;}.da238-4{fill:#6d3e35;}.da238-5{fill:#ffffff;}.da238-6{fill:#ffffff;}.da238-7{fill:#af8423;}.da238-8{fill:#c9a717;}</style></defs><path class="da238-1" d="M0,33H6V27H7V26H8V25h2V24h2V21H10V20H9V16H8V15H9V14H8V13H4V12H6V11H8V10h2V9h1V8h1V7h1V6h1V5h1V6h1V7h1V8h1V9h1v1h2v1h2v1h2v1H21v1H20v1h1v1H20v4H19v1H17v3h2v1h2v1h1v1h1v6h6V0H0Z"/><path class="da238-2" d="M23,27H22v3H21V27H20v6h1V31h1v2h1V27Z"/><rect class="da238-2" x="21" y="26" width="1" height="1"/><path class="da238-3" d="M21,28v2h1V27H21Z"/><path class="da238-4" d="M21,31v2h1V31Z"/><path class="da238-2" d="M20,26h1V25H19v1Z"/><rect class="da238-3" x="10" y="29" width="1" height="1"/><path class="da238-3" d="M19,32V31H18v1H17V29h1V28h1v1h1V27h1V26H19V25H17v1H16v1H13V26H12V25H10v1H8v1H9v2h1V28h1v1h1v3H11V31H10v1H9v1H20V32Zm-3-2v1H15v1H13V28h2v1h1Z"/><path class="da238-3" d="M15,29H14v2h1V29Z"/><rect class="da238-3" x="18" y="29" width="1" height="1"/><path class="da238-2" d="M18,25h1V24H17v1Z"/><rect class="da238-2" x="16" y="25" width="1" height="1"/><path class="da238-2" d="M13,26v1h3V26H13Z"/><path class="da238-2" d="M13,23h3v1h1V21H16v1H13V21H12v3h1Z"/><path class="da238-4" d="M13,25v1h3V25h1V24H16V23H13v1H12v1Z"/><rect class="da238-2" x="12" y="25" width="1" height="1"/><path class="da238-2" d="M12,24H10v1h2Z"/><path class="da238-2" d="M10,25H8v1h2Z"/><path class="da238-2" d="M9,31V27H8v3H7V27H6v6H7V31H8v2H9V31Z"/><rect class="da238-2" x="7" y="26" width="1" height="1"/><path class="da238-3" d="M7,30H8V27H7v3Z"/><path class="da238-4" d="M7,31v2H8V31Z"/><path class="da238-5" d="M19,30H18V29H17v3h1V31h1v1h1V29H19Z"/><rect class="da238-5" x="18" y="28" width="1" height="1"/><path class="da238-5" d="M15,30v1h1V29H15Z"/><path class="da238-5" d="M14,30V29h1V28H13v4h2V31H14Z"/><path class="da238-5" d="M9,32h1V31h1v1h1V29H11v1H10V29H9v3Z"/><rect class="da238-5" x="10" y="28" width="1" height="1"/><rect class="da238-2" x="20" y="15" width="1" height="1"/><rect class="da238-2" x="19" y="14" width="1" height="1"/><path class="da238-4" d="M13,22h3V21h1V20h1V18h1V16h1V15H16V14H13v1H9v1h1v2h1v2h1v1h1Zm1-6h1v1H14Zm-1,3h3V18h1v1H16v1H13Z"/><path class="da238-2" d="M19,17h1V16H19Z"/><path class="da238-2" d="M10,14H9v1h1Z"/><path class="da238-2" d="M10,16H9v1h1Z"/><rect class="da238-2" x="8" y="15" width="1" height="1"/><rect class="da238-2" x="14" y="16" width="1" height="1"/><path class="da238-6" d="M12,15h1V14H12Z"/><path class="da238-6" d="M10,14v1h1V14Z"/><path class="da238-6" d="M18,14v1h1V14Z"/><path class="da238-6" d="M16,14v1h1V14Z"/><path class="da238-2" d="M11,14v1h1V14Z"/><path class="da238-2" d="M17,14v1h1V14Z"/><path class="da238-7" d="M19,18H18v2H17v1h2V20h1V17H19Z"/><path class="da238-7" d="M11,20V18H10V17H9v3h1v1h2V20Z"/><rect class="da238-2" x="13" y="19" width="3" height="1"/><rect class="da238-2" x="16" y="18" width="1" height="1"/><path class="da238-8" d="M11,14H21V13h4V12H23V11H21V10H19V9H18V8H17V7H16V6H15V5H14V6H13V7H12V8H11V9H10v1H8v1H6v1H4v1H8v1h3Z"/></svg>