<svg xmlns="http://www.w3.org/2000/svg" viewBox="0 0 29 33"><defs><style>polygon,rect,path{shape-rendering:crispedges;}.na294-1{fill:#e55b35;}.na294-2{fill:#000000;}.na294-3{fill:#68aa7b;}.na294-4{fill:#990000;}.na294-5{fill:#efcaaf;}.na294-6{fill:#316a6d;}.na294-7{fill:#6f7032;}.na294-8{fill:#6f7032;}.na294-9{fill:#8e9350;}.na294-10{fill:#ffffff;}</style></defs><path class="na294-1" d="M0,33H6V27H7V26H8V25h2V24h2V22H11V21H10V20H9V16H8V15H9V13H8V9H9V8h1V7h1V6h7V7h1V8h1V9h1v4H20v2h1v1H20v4H19v1H18v1H17v2h2v1h1V24h1V23h1v1h1v9h6V0H0Z"/><path class="na294-2" d="M7,30V27H6v6H7V30Z"/><path class="na294-3" d="M7,31H8V30H7Z"/><path class="na294-3" d="M8,28V27H7v1Z"/><rect class="na294-2" x="7" y="26" width="1" height="1"/><path class="na294-2" d="M9,30V27H8v6H9V30Z"/><path class="na294-3" d="M9,31h2V30H9Z"/><path class="na294-3" d="M9,28h2V27H9Z"/><path class="na294-2" d="M10,25H8v1h2Z"/><path class="na294-2" d="M12,26h1V25H12V24H10v1h1v8h1V26Z"/><path class="na294-4" d="M17,26H16v1H13V26H12v7h5V26Z"/><path class="na294-2" d="M13,23V22H12v2h1Z"/><path class="na294-2" d="M13,26v1h3V26H13Z"/><path class="na294-5" d="M13,25v1h3V25h1V24H16V23H13v1H12v1Z"/><path class="na294-2" d="M18,30V25h1V24H17v1H16v1h1v7h1V30Z"/><path class="na294-3" d="M18,27v1h2V27H18Z"/><path class="na294-3" d="M18,31h2V30H18Z"/><path class="na294-2" d="M21,30V27H20v6h1V30Z"/><path class="na294-3" d="M21,31h1V30H21Z"/><path class="na294-3" d="M21,28h1V27H21Z"/><path class="na294-2" d="M23,24H22v9h1V24Z"/><path class="na294-6" d="M9,31v2h2V31Z"/><path class="na294-6" d="M18,31v2h2V31Z"/><path class="na294-6" d="M18,29v1h2V28H18Z"/><path class="na294-6" d="M9,29v1h2V28H9Z"/><path class="na294-6" d="M18,26v1h1V25H18Z"/><path class="na294-6" d="M9,27h2V25H10v1H8v1Z"/><path class="na294-6" d="M7,29v1H8V28H7Z"/><path class="na294-6" d="M7,31v2H8V31Z"/><path class="na294-6" d="M21,31v2h1V31Z"/><path class="na294-6" d="M21,29v1h1V28H21Z"/><rect class="na294-2" x="20" y="15" width="1" height="1"/><path class="na294-2" d="M19,15h1V14H19Z"/><path class="na294-5" d="M18,17H16V16H15v1H14V16H13v1H11V16H10v2h1v1h1V18h2v1h1V18h2v1h1V18h1V16H18Z"/><rect class="na294-5" x="14" y="15" width="1" height="1"/><rect class="na294-5" x="18" y="12" width="1" height="1"/><rect class="na294-5" x="10" y="12" width="1" height="1"/><rect class="na294-5" x="15" y="20" width="1" height="1"/><rect class="na294-5" x="9" y="15" width="1" height="1"/><rect class="na294-5" x="19" y="15" width="1" height="1"/><path class="na294-5" d="M13,13v1h3V12h2V11H11v1h2Z"/><rect class="na294-5" x="13" y="20" width="1" height="1"/><path class="na294-2" d="M16,23v1h1V22H16Z"/><path class="na294-2" d="M10,14H9v1h1Z"/><rect class="na294-2" x="8" y="15" width="1" height="1"/><rect class="na294-2" x="14" y="16" width="1" height="1"/><rect class="na294-7" x="18" y="13" width="1" height="1"/><path class="na294-7" d="M16,13h2V12H16Z"/><rect class="na294-7" x="10" y="13" width="1" height="1"/><polygon class="na294-7" points="12 13 13 13 13 12 11 12 11 13 12 13"/><path class="na294-8" d="M15,18v1h1V18Z"/><path class="na294-8" d="M13,23h3V22h2V21h1V20h1V16H19v2H18v1H16v2H15V20H14v1H13V19h1V18H12v1H11V18H10V16H9v4h1v1h1v1h2Z"/><path class="na294-2" d="M14,19H13v1h3V19H14Z"/><path class="na294-2" d="M16,18v1h1V18Z"/><path class="na294-5" d="M21,27h1V24H21v1H20v2Z"/><path class="na294-2" d="M20,27V25H19v2Z"/><rect class="na294-2" x="20" y="24" width="1" height="1"/><rect class="na294-2" x="21" y="23" width="1" height="1"/><path class="na294-9" d="M10,13V12h1V11h7v1h1v2h1V13h1V9H20V8H19V7H18V6H11V7H10V8H9V9H8v4H9v1h1Z"/><path class="na294-10" d="M13,13H11v1h2Z"/><path class="na294-10" d="M11,17h2V16H11Z"/><polygon class="na294-10" points="11 15 11 14 10 14 10 15 10 16 11 16 11 15"/><path class="na294-2" d="M11,14v2h2V14Z"/><path class="na294-10" d="M19,14H18v2h1V14Z"/><path class="na294-10" d="M17,13H16v1h2V13Z"/><path class="na294-10" d="M16,17h2V16H16Z"/><path class="na294-10" d="M13,14v2h1V15h1v1h1V14Z"/><path class="na294-2" d="M16,16h2V14H16Z"/></svg>