<svg xmlns="http://www.w3.org/2000/svg" viewBox="0 0 29 33"><defs><style>polygon,rect,path{shape-rendering:crispedges;}.hb100-1{fill:#397d98;}.hb100-2{fill:#000000;}.hb100-3{fill:#e8b795;}.hb100-4{fill:#ffffff;}.hb100-5{fill:#685432;}.hb100-6{fill:#ff5e17;}.hb100-7{fill:#508e91;}</style></defs><path class="hb100-1" d="M6,32V27H7V26H8V25h2V24h2V21H11V20H10V19H9V16H8V14H9V12H8v1H7V12H8V11H9V10h1V9h2V8h5V9h2v1h1v1h1v1h1v1H21V12H20v2h1v2H20v3H19v1H18v1H17v3h2v1h2v1h1v1h1v6h6V0H0V33H6Z"/><path class="hb100-2" d="M23,27H22v6h1V27Z"/><path class="hb100-3" d="M22,27H21v6h1V27Z"/><rect class="hb100-2" x="21" y="26" width="1" height="1"/><path class="hb100-2" d="M21,27H20v6h1V27Z"/><path class="hb100-3" d="M20,27h1V26H19V25H17V24H16V23H13v1H12v1H10v1H8v1H9v6h5V29h1v4h5V27Zm-8,2H11V28h1Zm6,0H17V28h1Z"/><path class="hb100-2" d="M20,26h1V25H19v1Z"/><rect class="hb100-2" x="17" y="28" width="1" height="1"/><path class="hb100-2" d="M18,25h1V24H17v1Z"/><path class="hb100-2" d="M15,29H14v4h1V29Z"/><path class="hb100-2" d="M13,23V22H12v2h1Z"/><rect class="hb100-2" x="11" y="28" width="1" height="1"/><path class="hb100-2" d="M12,24H10v1h2Z"/><path class="hb100-2" d="M10,25H8v1h2Z"/><path class="hb100-2" d="M9,27H8v6H9V27Z"/><path class="hb100-3" d="M8,27H7v6H8V27Z"/><rect class="hb100-2" x="7" y="26" width="1" height="1"/><path class="hb100-2" d="M7,27H6v6H7V27Z"/><path class="hb100-2" d="M20,16h1V15H20Z"/><path class="hb100-3" d="M13,14h3V13h1V12H15V11H14v1H12v1h1Z"/><rect class="hb100-3" x="15" y="20" width="1" height="1"/><path class="hb100-3" d="M17,15H16v1h3V15H17Z"/><rect class="hb100-3" x="14" y="15" width="1" height="1"/><path class="hb100-3" d="M13,16V15H10v1h3Z"/><rect class="hb100-3" x="13" y="20" width="1" height="1"/><path class="hb100-3" d="M16,17V16H15v1H14V16H13v1H10v1h1v1h1V18h2v1h1V18h2v1h1V18h1V17H16Z"/><path class="hb100-2" d="M19,17h1V16H19Z"/><path class="hb100-2" d="M16,23v1h1V22H16Z"/><path class="hb100-2" d="M10,16H9v1h1Z"/><path class="hb100-2" d="M8,15v1H9V15Z"/><rect class="hb100-2" x="14" y="16" width="1" height="1"/><path class="hb100-4" d="M18,15h1V14H18Z"/><path class="hb100-4" d="M12,14v1h1V14Z"/><path class="hb100-2" d="M17,15h1V14H16v1Z"/><path class="hb100-2" d="M12,14H10v1h2Z"/><path class="hb100-5" d="M15,18v1h1V18Z"/><path class="hb100-5" d="M13,23h3V22h1V21h1V20h1V19h1V17H19v1H18v1H16v2H15V20H14v1H13V19h1V18H12v1H11V18H10V17H9v2h1v1h1v1h1v1h1Z"/><path class="hb100-2" d="M14,19H13v1h3V19H14Z"/><path class="hb100-2" d="M16,18v1h1V18Z"/><rect class="hb100-6" x="21" y="12" width="1" height="1"/><path class="hb100-6" d="M10,13h2V12h2V11h1v1h2v1h2v1h1V12h1V11H20V10H19V9H17V8H12V9H10v1H9v1H8v1H9v2h1Z"/><rect class="hb100-6" x="7" y="12" width="1" height="1"/><path class="hb100-7" d="M19,15v1h1V15h1V14H19Z"/><path class="hb100-7" d="M18,16H16v1h3V16Z"/><path class="hb100-7" d="M13,14V13H10v1h3Z"/><path class="hb100-7" d="M16,14h3V13H16Z"/><path class="hb100-7" d="M16,14H13v2h1V15h1v1h1V14Z"/><path class="hb100-7" d="M13,17V16H10v1h3Z"/><path class="hb100-7" d="M10,15V14H8v1H9v1h1Z"/></svg>