<svg xmlns="http://www.w3.org/2000/svg" viewBox="0 0 29 33"><defs><style>polygon,rect,path{shape-rendering:crispedges;}.va44-1{fill:#6b4f99;}.va44-2{fill:#db5800;}.va44-3{fill:#000000;}.va44-4{fill:#e8b795;}.va44-5{fill:#841f00;}.va44-6{fill:#ffffff;}.va44-7{fill:#c9a717;}</style></defs><path class="va44-1" d="M0,33H6V27H7V26H8V25h2V22h1V20H10V19H9V16H8V15H9V14H8V13H4V12H6V11H8V10h2V9h1V8h1V7h1V6h1V5h1V6h1V7h1V8h1V9h1v1h2v1h2v1h2v1H21v1H20v1h1v1H20v3H19v1H18v2h1v3h2v1h1v1h1v6h6V0H0Z"/><rect class="va44-2" x="17" y="22" width="1" height="1"/><path class="va44-2" d="M18,24H16v1H15v2H14v1h1v1H14v2h2V30h1v1h3V26H19V25H18Zm-1,3H16V26h1Zm2,1v1H18V28Z"/><path class="va44-2" d="M21,31v2h1V31Z"/><path class="va44-2" d="M21,28v2h1V27H21Z"/><path class="va44-2" d="M18,32H15v1h4V32Z"/><path class="va44-2" d="M13,32H10v1h4V32Z"/><path class="va44-2" d="M7,30H8V27H7v3Z"/><path class="va44-2" d="M7,31v2H8V31Z"/><path class="va44-2" d="M9,26v5h3V30h1V27H12V26h1v1h1V25H13V24H11v1H10v1Zm2,2v1H10V28Z"/><rect class="va44-2" x="11" y="22" width="1" height="1"/><path class="va44-3" d="M23,27H22v6h1V27Z"/><rect class="va44-3" x="21" y="26" width="1" height="1"/><path class="va44-3" d="M21,30V27H20v4H14V27H13v4H9V27H8v6H9V32H20v1h1V30Z"/><path class="va44-3" d="M20,26h1V25H19v1Z"/><path class="va44-3" d="M18,24v1h1V22H18v2Z"/><rect class="va44-3" x="15" y="24" width="1" height="1"/><path class="va44-3" d="M15,26V25H14v2h1Z"/><rect class="va44-3" x="13" y="24" width="1" height="1"/><path class="va44-4" d="M15,24h1V23H13v1h1v1h1Z"/><path class="va44-3" d="M11,24V22H10v3h1Z"/><path class="va44-3" d="M10,26V25H8v1h2Z"/><rect class="va44-3" x="7" y="26" width="1" height="1"/><path class="va44-3" d="M7,30V27H6v6H7V30Z"/><rect class="va44-3" x="20" y="15" width="1" height="1"/><rect class="va44-3" x="19" y="14" width="1" height="1"/><rect class="va44-4" x="9" y="15" width="1" height="1"/><path class="va44-4" d="M12,21h1v1h3V21h1V20h1V19h1V16H16V14H13v2H10v3h1v1h1Zm2-5h1v1H14Zm-2,2h5v1H16v1H13V19H12Z"/><rect class="va44-4" x="19" y="15" width="1" height="1"/><path class="va44-3" d="M19,17v2h1V16H19Z"/><rect class="va44-3" x="18" y="19" width="1" height="1"/><path class="va44-3" d="M12,23v1h1V23h3v1h1V22h1V20H17v1H16v1H13V21H12V20H11v2h1Z"/><rect class="va44-3" x="10" y="19" width="1" height="1"/><rect class="va44-3" x="9" y="14" width="1" height="1"/><path class="va44-3" d="M10,16H9v3h1V16Z"/><rect class="va44-3" x="8" y="15" width="1" height="1"/><rect class="va44-3" x="14" y="16" width="1" height="1"/><rect class="va44-5" x="10" y="28" width="1" height="1"/><path class="va44-5" d="M12,31h1V30H12Z"/><path class="va44-5" d="M15,28H14v1h1Z"/><path class="va44-5" d="M14,32v1h1V32Z"/><rect class="va44-5" x="12" y="26" width="1" height="1"/><path class="va44-5" d="M16,30v1h1V30Z"/><rect class="va44-5" x="18" y="28" width="1" height="1"/><rect class="va44-5" x="16" y="26" width="1" height="1"/><path class="va44-5" d="M9,27V26H8v1Z"/><path class="va44-5" d="M19,32v1h1V32Z"/><path class="va44-5" d="M9,32v1h1V32Z"/><path class="va44-5" d="M7,31H8V30H7Z"/><path class="va44-5" d="M21,31h1V30H21Z"/><path class="va44-5" d="M20,27h1V26H20Z"/><path class="va44-5" d="M11,23v1h1V23Z"/><path class="va44-5" d="M18,23H17v1h1Z"/><path class="va44-6" d="M10,14v2h1V14Z"/><path class="va44-6" d="M12,15v1h1V14H12Z"/><path class="va44-6" d="M16,14v2h1V14Z"/><path class="va44-6" d="M19,14H18v2h1V14Z"/><path class="va44-3" d="M12,14H11v2h1V14Z"/><path class="va44-3" d="M17,14v2h1V14Z"/><path class="va44-3" d="M13,18H12v1h1Z"/><path class="va44-3" d="M17,19V18H16v1Z"/><path class="va44-3" d="M13,19v1h3V19H15V18H14v1Z"/><path class="va44-6" d="M14,19V18H13v1Z"/><path class="va44-6" d="M16,19V18H15v1Z"/><path class="va44-7" d="M11,14H21V13h4V12H23V11H21V10H19V9H18V8H17V7H16V6H15V5H14V6H13V7H12V8H11V9H10v1H8v1H6v1H4v1H8v1h3Z"/></svg>