<svg xmlns="http://www.w3.org/2000/svg" viewBox="0 0 29 33"><defs><style>polygon,rect,path{shape-rendering:crispedges;}.ya141-1{fill:#d4a122;}.ya141-2{fill:#000000;}.ya141-3{fill:#8c7850;}.ya141-4{fill:#b2622b;}.ya141-5{fill:#685432;}.ya141-6{fill:#ffffff;}.ya141-7{fill:#4922aa;}.ya141-8{fill:#4922aa;}.ya141-9{fill:#4922aa;}</style></defs><path class="ya141-1" d="M0,33H6V27H7V26H8V25h2V24h1V23h1V21H11V20H10V19H9V16H8V15H9V10h1V9h1V8h7V9h1v2h1v4h1v1H20v3H19v1H18v1H17v2h1v1h1v1h2v1h1v1h1v6h6V0H0Z"/><path class="ya141-2" d="M23,27H22v6h1V27Z"/><path class="ya141-3" d="M21,28h1V27H21Z"/><path class="ya141-3" d="M21,31h1V30H21Z"/><rect class="ya141-2" x="21" y="26" width="1" height="1"/><path class="ya141-2" d="M21,30V27H20v6h1V30Z"/><rect class="ya141-3" x="9" y="30" width="5" height="1"/><path class="ya141-3" d="M14,27H9v1H20V27H14Z"/><path class="ya141-3" d="M15,31h5V30H15Z"/><path class="ya141-2" d="M20,26h1V25H19v1Z"/><rect class="ya141-3" x="16" y="24" width="1" height="1"/><rect class="ya141-2" x="15" y="24" width="1" height="1"/><rect class="ya141-2" x="14" y="32" width="1" height="1"/><rect class="ya141-2" x="14" y="30" width="1" height="1"/><path class="ya141-2" d="M15,29V28H14v1Z"/><path class="ya141-2" d="M15,26V25H14v2h1Z"/><rect class="ya141-2" x="13" y="24" width="1" height="1"/><path class="ya141-4" d="M15,24h1V23H13v1h1v1h1Z"/><rect class="ya141-3" x="12" y="24" width="1" height="1"/><path class="ya141-2" d="M11,26h2V25H12V24h1V23h3v1h1v1H16v1h2V25h1V24H18V23H17V21H16v1H13V21H12v2H11v1H10v1h1Z"/><path class="ya141-2" d="M10,25H8v1h2Z"/><path class="ya141-2" d="M9,30V27H8v6H9V30Z"/><path class="ya141-3" d="M8,28V27H7v1Z"/><path class="ya141-3" d="M7,31H8V30H7Z"/><rect class="ya141-2" x="7" y="26" width="1" height="1"/><path class="ya141-2" d="M7,30V27H6v6H7V30Z"/><path class="ya141-5" d="M15,31H9v2h5V32h1v1h5V31Z"/><path class="ya141-5" d="M15,29H14V28H9v2H20V28H15Z"/><path class="ya141-5" d="M18,26H16V25H15v2h6V26H19V25H18Z"/><path class="ya141-5" d="M9,27h5V25H13v1H11V25H10v1H8v1Z"/><path class="ya141-5" d="M7,29v1H8V28H7Z"/><path class="ya141-5" d="M7,31v2H8V31Z"/><path class="ya141-5" d="M21,31v2h1V31Z"/><path class="ya141-5" d="M21,29v1h1V28H21Z"/><rect class="ya141-2" x="20" y="15" width="1" height="1"/><path class="ya141-2" d="M19,13v2h1V11H19v2Z"/><rect class="ya141-4" x="9" y="15" width="1" height="1"/><path class="ya141-4" d="M18,14h1V13H17v1Z"/><path class="ya141-4" d="M14,21V20H13V19H12V18h1v1h3v1H15v1h2V20h1V19h1V16H16V13h1V12h2V11H18V10H17v1H16V10H15v1H14V10H13v1H12V10H11v1H10v2h1V12h2v1H11v1h2v2H10v3h1v1h1v1h2Zm0-5h1v1H14Z"/><rect class="ya141-4" x="19" y="15" width="1" height="1"/><path class="ya141-2" d="M19,17v2h1V16H19Z"/><rect class="ya141-2" x="18" y="19" width="1" height="1"/><rect class="ya141-2" x="17" y="20" width="1" height="1"/><rect class="ya141-2" x="11" y="9" width="1" height="1"/><rect class="ya141-2" x="13" y="9" width="1" height="1"/><rect class="ya141-2" x="15" y="9" width="1" height="1"/><rect class="ya141-2" x="17" y="9" width="1" height="1"/><rect class="ya141-2" x="11" y="20" width="1" height="1"/><rect class="ya141-2" x="10" y="10" width="1" height="1"/><rect class="ya141-2" x="10" y="19" width="1" height="1"/><path class="ya141-2" d="M10,14V11H9v4h1Z"/><path class="ya141-2" d="M10,16H9v3h1V16Z"/><rect class="ya141-2" x="8" y="15" width="1" height="1"/><rect class="ya141-2" x="14" y="16" width="1" height="1"/><path class="ya141-6" d="M10,15v1h1V14H10Z"/><path class="ya141-6" d="M13,16V14H12v2Z"/><path class="ya141-6" d="M16,14v2h1V14Z"/><path class="ya141-6" d="M19,14H18v2h1V14Z"/><path class="ya141-2" d="M12,16V14H11v2Z"/><path class="ya141-2" d="M17,14v2h1V14Z"/><path class="ya141-7" d="M11,14V13H10v1Z"/><rect class="ya141-7" x="11" y="12" width="2" height="1"/><path class="ya141-7" d="M17,13H16v1h1Z"/><path class="ya141-7" d="M19,12H17v1h2Z"/><path class="ya141-8" d="M15,20H14v1H13v1h3V21H15Z"/><polygon class="ya141-2" points="16 20 16 19 13 19 13 20 14 20 15 20 16 20"/><rect class="ya141-2" x="12" y="18" width="1" height="1"/><path class="ya141-9" d="M18,11h1V9H18v2Z"/><path class="ya141-9" d="M12,10v1h1V9h1v2h1V9h1v2h1V9h1V8H11V9h1Z"/><rect class="ya141-9" x="10" y="9" width="1" height="1"/><path class="ya141-9" d="M10,10H9v1h1Z"/></svg>