<svg xmlns="http://www.w3.org/2000/svg" viewBox="0 0 29 33"><defs><style>polygon,rect,path{shape-rendering:crispedges;}.fb280-1{fill:#000000;}.fb280-2{fill:#316a6d;}.fb280-3{fill:#ffffff;}.fb280-4{fill:#c18d59;}.fb280-5{fill:#90a2a3;}.fb280-6{fill:#99582c;}.fb280-7{fill:#ff5e17;}.fb280-8{fill:#ff1d99;}.fb280-9{fill:#6e12ff;}.fb280-10{fill:#893a1f;}.fb280-11{fill:#dfdfdf;}.fb280-12{fill:#b2622b;}.fb280-13{fill:#ffffff;}.fb280-14{fill:#db5a8e;}</style></defs><path class="fb280-1" d="M23,27H22v6h1V27Z"/><path class="fb280-2" d="M22,27H21v6h1V27Z"/><path class="fb280-1" d="M21,27h1V26H21V25H20v2H17v1h2v1h1v4h1V27Z"/><rect class="fb280-1" x="19" y="24" width="1" height="1"/><path class="fb280-2" d="M20,29H19v1H18v1H17v1H16v1h4V29Z"/><rect class="fb280-1" x="18" y="23" width="1" height="1"/><path class="fb280-2" d="M18,25H17v1H16v5h1V30h1V29h1V28H17V27h2V26h1V25H19V24H18Z"/><rect class="fb280-1" x="17" y="22" width="1" height="1"/><rect class="fb280-2" x="17" y="23" width="1" height="1"/><rect class="fb280-1" x="17" y="24" width="1" height="1"/><rect class="fb280-1" x="18" y="29" width="1" height="1"/><rect class="fb280-1" x="16" y="23" width="1" height="1"/><rect class="fb280-1" x="16" y="25" width="1" height="1"/><path class="fb280-3" d="M15,27H14v6h1V27Z"/><rect class="fb280-1" x="12" y="23" width="1" height="1"/><path class="fb280-4" d="M17,25V24H16V23H13v1H12v1h1v1h3V25Z"/><rect class="fb280-1" x="12" y="25" width="1" height="1"/><path class="fb280-2" d="M12,32V31H11V30H10V29H9v4h4V32Z"/><rect class="fb280-1" x="11" y="22" width="1" height="1"/><rect class="fb280-2" x="11" y="23" width="1" height="1"/><rect class="fb280-1" x="11" y="24" width="1" height="1"/><rect class="fb280-1" x="11" y="30" width="1" height="1"/><rect class="fb280-1" x="10" y="23" width="1" height="1"/><rect class="fb280-1" x="9" y="24" width="1" height="1"/><path class="fb280-2" d="M10,26v1h2v1H10v1h1v1h1v1h1V26H12V25H11V24H10v1H9v1Z"/><path class="fb280-1" d="M9,29h1V28h2V27H9V25H8v1H7v1H8v6H9V29Z"/><path class="fb280-2" d="M8,27H7v6H8V27Z"/><path class="fb280-1" d="M7,27H6v6H7V27Z"/><rect class="fb280-1" x="10" y="29" width="1" height="1"/><rect class="fb280-1" x="17" y="30" width="1" height="1"/><path class="fb280-1" d="M17,32V31H16V26H13v5H12v1h1v1h1V27h1v6h1V32Z"/><path class="fb280-5" d="M9,26v1h1V26Z"/><path class="fb280-5" d="M19,27h1V26H19Z"/><rect class="fb280-1" x="20" y="15" width="1" height="1"/><path class="fb280-4" d="M16,16H15v1H14V16H13v1H11v1h5v1h1V18h1V17H16Z"/><rect class="fb280-4" x="14" y="15" width="1" height="1"/><path class="fb280-4" d="M14,14h2V13H13v1Z"/><rect class="fb280-1" x="8" y="15" width="1" height="1"/><rect class="fb280-1" x="14" y="16" width="1" height="1"/><path class="fb280-6" d="M15,18H13v1h3V18Z"/><path class="fb280-6" d="M12,23h5V22h1V21h1V20h1V16H19v1H18v1H17v1H16v1H13V19H12V18H11V17H10V16H9v4h1v1h1v1h1Z"/><rect class="fb280-1" x="13" y="19" width="3" height="1"/><path class="fb280-1" d="M12,18v1h1V18Z"/><rect class="fb280-7" x="19" y="13" width="1" height="1"/><path class="fb280-7" d="M10,13H8v1h2Z"/><path class="fb280-8" d="M19,15v1h1V15h1V14H19Z"/><path class="fb280-8" d="M17,14h2V13H16v1Z"/><path class="fb280-9" d="M19,14H16v2h3V14Z"/><path class="fb280-8" d="M16,16v1h3V16H16Z"/><path class="fb280-8" d="M13,14v2h1V15h1v1h1V14H13Z"/><path class="fb280-8" d="M13,14V13H10v1h3Z"/><path class="fb280-9" d="M13,16V14H10v2h3Z"/><path class="fb280-8" d="M13,16H10v1h3Z"/><path class="fb280-8" d="M10,15V14H8v1H9v1h1Z"/><path class="fb280-10" d="M24,11H22v1h2Z"/><rect class="fb280-11" x="21" y="7" width="1" height="1"/><path class="fb280-10" d="M13,13h9V12H20V11H19v1H10V11H9v1H7v1h6Z"/><rect class="fb280-11" x="20" y="8" width="1" height="1"/><rect class="fb280-12" x="19" y="10" width="1" height="1"/><path class="fb280-13" d="M18,11h1V10h1V8h1V7h1V6H20V7H19V8H18v3Z"/><path class="fb280-12" d="M17,11H10v1h9V11H17Z"/><path class="fb280-10" d="M11,11h7V7H16V8H13V7H11V8H10v3Z"/><path class="fb280-12" d="M10,10H9v1h1Z"/><path class="fb280-10" d="M6,11H5v1H7V11Z"/><path class="fb280-14" d="M0,33H6V27H7V26H8V25H9V24h1V23h1V21H10V20H9V16H8V13H7V12H5V11H7v1H9V10h1V8h1V7h2V8h3V7h2V8h1V7h1V6h2V8H21V9H20v3h2V11h2v1H22v1H20v1h1v2H20v4H19v1H18v2h1v1h1v1h1v1h1v1h1v6h6V0H0Z"/></svg>