<svg xmlns="http://www.w3.org/2000/svg" viewBox="0 0 29 33"><defs><style>polygon,rect,path{shape-rendering:crispedges;}.wa187-1{fill:#7a982c;}.wa187-2{fill:#000000;}.wa187-3{fill:#825fff;}.wa187-4{fill:#efcaaf;}.wa187-5{fill:#4922aa;}.wa187-6{fill:#ffffff;}.wa187-7{fill:#7f5018;}.wa187-8{fill:#ccc;}.wa187-9{fill:#0068ff;}.wa187-10{fill:#ff1f4a;}.wa187-11{fill:#10bcff;}</style></defs><path class="wa187-1" d="M0,33H6V26H5V24H6V23H5V21H4V20H3V19H8v1H9v2h2V20H10V19H9V16H8V15H9V10h1V9h1V8h7V9h1v2h1v4h1v1H20v3H19v1H18v2h2V20h1V19h5v1H25v1H24v2H23v1h1v2H23v7h6V0H0Z"/><path class="wa187-1" d="M8,27H8v6H8V27Z"/><path class="wa187-1" d="M21,30V27h0v6h0V30Z"/><path class="wa187-2" d="M23,26H22v7h1V26Z"/><path class="wa187-2" d="M7,30V27H7V26H6v7H7V30Z"/><path class="wa187-2" d="M21,27V25H19v1h1v5H14V27H13v4H9V26h1V25H8v8H9V32H20v1h1V27Z"/><path class="wa187-2" d="M10,25h1V22H10v3Z"/><path class="wa187-3" d="M9,31h4V30H9Z"/><path class="wa187-3" d="M9,28h4V27H9Z"/><path class="wa187-3" d="M13,24H11v1h2Z"/><rect class="wa187-2" x="13" y="24" width="1" height="1"/><path class="wa187-2" d="M15,26V25H14v2h1Z"/><path class="wa187-4" d="M14,25h1V24h1V23H13v1h1Z"/><rect class="wa187-2" x="15" y="24" width="1" height="1"/><path class="wa187-2" d="M18,25h1V22H18v3Z"/><path class="wa187-3" d="M14,31h6V30H14Z"/><path class="wa187-3" d="M18,25V24H16v1Z"/><path class="wa187-3" d="M14,27v1h6V27H14Z"/><rect class="wa187-2" x="20" y="15" width="1" height="1"/><path class="wa187-4" d="M12,21h1v1h3V21h1V20h1V19h1V16h1V15H16V13h1V12h2V11H18V10H16v1H15v1H14v1H11v1h2v1H9v1h1v3h1v1h1Zm2-5h1v1H14Zm-2,2h1v1h3v1H13V19H12Z"/><polygon class="wa187-4" points="18 14 19 14 19 13 17 13 17 14 18 14"/><path class="wa187-2" d="M19,17v2h1V16H19Z"/><rect class="wa187-2" x="18" y="19" width="1" height="1"/><path class="wa187-2" d="M12,23v1h1V23h3v1h1V22h1V20H17v1H16v1H13V21H12V20H11v2h1Z"/><rect class="wa187-2" x="10" y="19" width="1" height="1"/><path class="wa187-2" d="M10,16H9v3h1V16Z"/><rect class="wa187-2" x="8" y="15" width="1" height="1"/><rect class="wa187-2" x="14" y="16" width="1" height="1"/><path class="wa187-5" d="M19,32H9v1H20V32Z"/><path class="wa187-5" d="M14,30h6V28H14Z"/><path class="wa187-5" d="M9,29v1h4V28H9Z"/><path class="wa187-5" d="M13,25H10v1H9v1h5V25Z"/><path class="wa187-5" d="M16,25H15v2h5V26H19V25H16Z"/><path class="wa187-5" d="M12,24V22H11v2Z"/><path class="wa187-5" d="M17,23v1h1V22H17Z"/><path class="wa187-6" d="M13,15V14H12v1Z"/><path class="wa187-6" d="M10,15h1V14H10Z"/><path class="wa187-6" d="M18,14v1h1V14Z"/><path class="wa187-6" d="M16,14v1h1V14Z"/><path class="wa187-2" d="M12,15V14H11v1Z"/><path class="wa187-2" d="M17,14v1h1V14Z"/><path class="wa187-7" d="M17,13H16v1h1Z"/><rect class="wa187-7" x="17" y="12" width="2" height="1"/><rect class="wa187-2" x="13" y="19" width="3" height="1"/><rect class="wa187-2" x="12" y="18" width="1" height="1"/><path class="wa187-6" d="M8,24h2V22H9V20H8V19H3v1H7v1H5v1H8v1H6v1H8Z"/><path class="wa187-8" d="M8,22H5v1H8Z"/><path class="wa187-8" d="M7,20H4v1H7Z"/><path class="wa187-8" d="M22,20v1h3V20H22Z"/><path class="wa187-8" d="M21,22v1h3V22H21Z"/><path class="wa187-6" d="M20,24h3V23H21V22h3V21H22V20h4V19H21v1H20v2H19v2Z"/><path class="wa187-8" d="M9,24H8v1h2V24Z"/><path class="wa187-8" d="M20,24H19v1h2V24Z"/><path class="wa187-9" d="M10,14h1V13h3V12h1V11h1V10h2v1h1V9H18V8H11V9H10v1H9v5h1Z"/><path class="wa187-9" d="M19,13v2h1V11H19v2Z"/><path class="wa187-2" d="M23,26h1V25H23Z"/><path class="wa187-2" d="M22,24H21v1h1Z"/><path class="wa187-10" d="M22,25h2V24H22Z"/><path class="wa187-2" d="M7,24v1H8V24Z"/><path class="wa187-2" d="M5,25v1H6V25Z"/><path class="wa187-4" d="M22,25H21v2h1V26h1V25Z"/><path class="wa187-4" d="M7,27H8V25H6v1H7Z"/><path class="wa187-11" d="M7,25V24H5v1H7Z"/><path class="wa187-3" d="M21,31h1V30H21Z"/><path class="wa187-3" d="M21,28h1V27H21Z"/><path class="wa187-5" d="M21,31v2h1V31Z"/><path class="wa187-5" d="M21,29v1h1V28H21Z"/><path class="wa187-3" d="M7,27v1H8V27Z"/><path class="wa187-3" d="M7,31H8V30H7Z"/><path class="wa187-5" d="M7,30H8V28H7Z"/><path class="wa187-5" d="M7,31v2H8V31Z"/></svg>