<svg xmlns="http://www.w3.org/2000/svg" viewBox="0 0 29 33"><defs><style>polygon,rect,path{shape-rendering:crispedges;}.ma203-1{fill:#e55b35;}.ma203-2{fill:#000000;}.ma203-3{fill:#ffffff;}.ma203-4{fill:#d8be00;}.ma203-5{fill:#ce8452;}.ma203-6{fill:#7eaa7e;}.ma203-7{fill:#ffffff;}.ma203-8{fill:#5e362f;}.ma203-9{fill:#5e362f;}.ma203-10{fill:#317f03;}</style></defs><path class="ma203-1" d="M6,32V27H7V26H8V25h2V24h2V22H11V21H10V20H9V16H8V15H9V11h1V10h1V9h7v1h2v5h1v1H20v4H19v1H18v1H17v2h2v1h2v1h1v1h1v6h6V0H0V33H6Z"/><path class="ma203-2" d="M23,27H22v6h1V27Z"/><rect class="ma203-2" x="21" y="26" width="1" height="1"/><path class="ma203-3" d="M21,28v2h1V27H21Z"/><path class="ma203-3" d="M21,31v2h1V31Z"/><path class="ma203-2" d="M21,30V27H20v6h1V30Z"/><path class="ma203-3" d="M20,32V26H19V25H18v3h1v1H18v4h1V32Z"/><path class="ma203-2" d="M20,26h1V25H19v1Z"/><path class="ma203-2" d="M18,29V25h1V24H17v1H16v1h1v7h1V29Z"/><path class="ma203-4" d="M17,26H16v1H13V26H12v7h5V26Z"/><path class="ma203-2" d="M16,24h1V23H16Z"/><path class="ma203-2" d="M13,26v1h3V26H13Z"/><path class="ma203-2" d="M13,23H12v1h1Z"/><path class="ma203-5" d="M13,25v1h3V25h1V24H16V23H13v1H12v1Z"/><path class="ma203-2" d="M12,26h1V25H12V24H10v1h1v8h1V26Z"/><path class="ma203-3" d="M11,29H10V28h1V25H10v1H9v6h1v1h1V29Z"/><path class="ma203-2" d="M10,26V25H8v1h2Z"/><path class="ma203-2" d="M9,31V27H8v6H9V31Z"/><rect class="ma203-2" x="7" y="26" width="1" height="1"/><path class="ma203-3" d="M7,30H8V27H7v3Z"/><path class="ma203-3" d="M7,31v2H8V31Z"/><path class="ma203-2" d="M7,30V27H6v6H7V30Z"/><path class="ma203-6" d="M10,29h1V28H10Z"/><path class="ma203-6" d="M19,29V28H18v1Z"/><path class="ma203-6" d="M9,27V26H8v1Z"/><path class="ma203-6" d="M19,32v1h1V32Z"/><path class="ma203-6" d="M9,32v1h1V32Z"/><path class="ma203-6" d="M7,31H8V30H7Z"/><path class="ma203-6" d="M21,31h1V30H21Z"/><path class="ma203-6" d="M20,27h1V26H20Z"/><rect class="ma203-2" x="20" y="15" width="1" height="1"/><path class="ma203-5" d="M18,15H15v2H14V16H13v1H11v1h5v1h1V18h1V17h1V16h1V15H18Z"/><rect class="ma203-5" x="9" y="15" width="1" height="1"/><rect class="ma203-2" x="8" y="15" width="1" height="1"/><path class="ma203-2" d="M14,17h1V16H14Z"/><path class="ma203-7" d="M16,15h1V14H16Z"/><path class="ma203-2" d="M18,15h1V14H17v1Z"/><rect class="ma203-8" x="16" y="13" width="1" height="1"/><path class="ma203-9" d="M15,18H13v1h3V18Z"/><path class="ma203-9" d="M14,23h3V22h1V21h1V20h1V16H19v1H18v1H17v1H16v1H13V19H12V18H11V17H10V16H9v4h1v1h1v1h1v1h2Z"/><rect class="ma203-2" x="13" y="19" width="3" height="1"/><path class="ma203-2" d="M12,18v1h1V18Z"/><path class="ma203-10" d="M19,12H18v1H17v1h2v1h1V11H19Z"/><rect class="ma203-10" x="10" y="16" width="1" height="1"/><path class="ma203-10" d="M15,16V15h1V14H14v2Z"/><path class="ma203-10" d="M10,14H9v1h1Z"/><path class="ma203-10" d="M10,14h4V13h2V12h2V11h1V10H18V9H11v1H10v1H9v2h1Z"/><path class="ma203-2" d="M13,16h1V14H10v2h1v1h2Z"/><rect class="ma203-2" x="14" y="13" width="2" height="1"/><path class="ma203-2" d="M18,13V12H16v1h2Z"/><rect class="ma203-2" x="18" y="11" width="1" height="1"/><path class="ma203-2" d="M20,11V10H19v1Z"/><path class="ma203-2" d="M10,13H9v1h1Z"/></svg>