<svg xmlns="http://www.w3.org/2000/svg" viewBox="0 0 29 33"><defs><style>polygon,rect,path{shape-rendering:crispedges;}.ga46-1{fill:#db5a8e;}.ga46-2{fill:#000000;}.ga46-3{fill:#508e5d;}.ga46-4{fill:#e8b795;}.ga46-5{fill:#ffffff;}.ga46-6{fill:#99004d;}.ga46-7{fill:#99004d;}.ga46-8{fill:#c8a715;}.ga46-9{fill:#317f03;}</style></defs><path class="ga46-1" d="M12,22H11v2h1V22Z"/><path class="ga46-1" d="M0,33H6V27H7V26H8V25h2V20H9V16H8V15H9V11h1V10h1V9h7v1h1v1h1v4h1v1H20v4H19v5h2v1h1v1h1v6h6V0H0Z"/><path class="ga46-1" d="M18,24V22H17v2Z"/><path class="ga46-2" d="M23,27H22v6h1V27Z"/><rect class="ga46-2" x="21" y="26" width="1" height="1"/><path class="ga46-3" d="M22,27H21v6h1V27Z"/><path class="ga46-2" d="M21,27H20v6h1V27Z"/><path class="ga46-2" d="M20,26h1V25H19v1Z"/><path class="ga46-3" d="M20,27h1V26H19V25H17v1H16v1H13V26H12V25H10v1H9v7h1V30h1V29h1V28h5v1h1v1h1v3h1V27Z"/><rect class="ga46-3" x="16" y="30" width="1" height="1"/><rect class="ga46-3" x="12" y="30" width="1" height="1"/><path class="ga46-3" d="M16,32H12v1h5V32Z"/><path class="ga46-2" d="M17,24v1h2V24H17Z"/><rect class="ga46-2" x="16" y="25" width="1" height="1"/><path class="ga46-2" d="M13,26v1h3V26H13Z"/><path class="ga46-4" d="M16,24V23H13v3h3V24Z"/><path class="ga46-2" d="M12,25v1h1V25Z"/><path class="ga46-2" d="M12,24H10v1h2Z"/><path class="ga46-2" d="M9,26h1V25H8v1H7v1H8v6H9V26Z"/><path class="ga46-3" d="M8,27H7v6H8V27Z"/><path class="ga46-2" d="M7,27H6v6H7V27Z"/><path class="ga46-5" d="M19,30H18V29H17V28H12v1H11v1H10v3h2V32h5v1h2V30Zm-6,1H12V30h1Zm4,0H16V30h1Z"/><rect class="ga46-2" x="20" y="15" width="1" height="1"/><polygon class="ga46-4" points="13 21 14 21 14 22 15 22 15 21 16 21 16 20 13 20 13 21"/><rect class="ga46-4" x="19" y="15" width="1" height="1"/><rect class="ga46-4" x="9" y="15" width="1" height="1"/><rect class="ga46-4" x="14" y="15" width="1" height="1"/><path class="ga46-4" d="M18,16v1H16V16H15v1H14V16H13v1H11V16H10v2h1v1h1V18h2v1h1V18h2v1h1V18h1V16Z"/><rect class="ga46-4" x="11" y="10" width="1" height="1"/><path class="ga46-4" d="M10,13h3v1h6V13H16V12h1V11H16V10H13v1H12v1H11V11H10v2Z"/><rect class="ga46-4" x="18" y="11" width="1" height="1"/><rect class="ga46-4" x="17" y="10" width="1" height="1"/><path class="ga46-2" d="M19,17h1V16H19Z"/><path class="ga46-2" d="M10,16H9v1h1Z"/><rect class="ga46-2" x="8" y="15" width="1" height="1"/><rect class="ga46-2" x="14" y="16" width="1" height="1"/><path class="ga46-6" d="M17,12H16v1h3V12H17Z"/><path class="ga46-6" d="M10,13v1h3V13Z"/><path class="ga46-7" d="M12,22v1h5V22h2V20h1V17H19v1H18v1H17V18H15v1h1v2H15v1H14V21H13V19H11V18H10V17H9v3h1v2h2Z"/><path class="ga46-7" d="M14,18H13v1h1Z"/><path class="ga46-8" d="M18,23h1V22H18Z"/><path class="ga46-7" d="M18,24h1V23H18Z"/><path class="ga46-8" d="M17,24V23H16v1Z"/><path class="ga46-7" d="M16,24v1h1V24Z"/><path class="ga46-8" d="M13,23H12v1h1Z"/><path class="ga46-7" d="M13,24H12v1h1Z"/><path class="ga46-8" d="M11,22H10v1h1Z"/><path class="ga46-7" d="M11,23H10v1h1Z"/><path class="ga46-2" d="M13,19v1h3V19H13Z"/><path class="ga46-2" d="M12,18v1h1V18Z"/><path class="ga46-9" d="M20,12V11H19v1Z"/><rect class="ga46-9" x="18" y="10" width="1" height="1"/><path class="ga46-9" d="M12,11h1V10h3v1h1V10h1V9H11v1h1Z"/><path class="ga46-9" d="M18,11H17v1h1Z"/><rect class="ga46-9" x="11" y="11" width="1" height="1"/><rect class="ga46-9" x="10" y="10" width="1" height="1"/><path class="ga46-9" d="M10,11H9v1h1Z"/><path class="ga46-2" d="M10,16h1v1h2V16h1V15h1v1h1v1h2V16h1V15h1V12H19v2H10V12H9v3h1Z"/></svg>