<svg xmlns="http://www.w3.org/2000/svg" viewBox="0 0 29 33"><defs><style>polygon,rect,path{shape-rendering:crispedges;}.ba172-1{fill:#e55b35;}.ba172-2{fill:#000000;}.ba172-3{fill:#e8b795;}.ba172-4{fill:#e1ff85;}.ba172-5{fill:#e1ff85;}.ba172-6{fill:#ffffff;}.ba172-7{fill:#8e4717;}.ba172-8{fill:#8e4717;}.ba172-9{fill:#6e12ff;}</style></defs><path class="ba172-1" d="M0,33H6V27H7V26H8V25h2V24h2V21H11V20H10V19H9V16H8V15H9V13H8V9H9V8h1V7h1V6h7V7h1V8h1V9h1v4H20v2h1v1H20v3H19v1H18v1H17v3h2v1h2v1h1v1h1v6h6V0H0Z"/><path class="ba172-2" d="M23,27H22v6h1V27Z"/><rect class="ba172-2" x="21" y="26" width="1" height="1"/><path class="ba172-3" d="M22,27H21v6h1V27Z"/><rect class="ba172-3" x="20" y="26" width="1" height="1"/><path class="ba172-2" d="M21,27H20v6h1V27Z"/><path class="ba172-2" d="M20,26h1V25H19v1Z"/><rect class="ba172-4" x="18" y="32" width="1" height="1"/><rect class="ba172-4" x="10" y="32" width="1" height="1"/><path class="ba172-4" d="M17,30h1V29h1v1h1V26H19V25H18v1H17v1H16v1H13V27H12V26H11V25H10v1H9v4h1V29h1v1h1v3h1V29h2v1h1v2H15v1h2V30Z"/><rect class="ba172-4" x="18" y="30" width="1" height="1"/><rect class="ba172-4" x="10" y="30" width="1" height="1"/><path class="ba172-4" d="M14,31v1h1V30H14Z"/><path class="ba172-2" d="M18,26V25h1V24H17v2Z"/><rect class="ba172-2" x="16" y="26" width="1" height="1"/><path class="ba172-2" d="M13,27v1h3V27H13Z"/><path class="ba172-2" d="M13,23V22H12v2h1Z"/><path class="ba172-3" d="M13,26v1h3V26h1V24H16V23H13v1H12v2Z"/><rect class="ba172-2" x="12" y="26" width="1" height="1"/><path class="ba172-2" d="M11,26h1V24H10v1h1Z"/><path class="ba172-2" d="M10,26V25H8v1h2Z"/><path class="ba172-3" d="M9,27V26H8v1Z"/><path class="ba172-2" d="M9,30V27H8v6H9V30Z"/><rect class="ba172-2" x="7" y="26" width="1" height="1"/><path class="ba172-3" d="M8,27H7v6H8V27Z"/><path class="ba172-2" d="M7,27H6v6H7V27Z"/><path class="ba172-5" d="M20,30H19v1H18V30H17v3h1V32h1v1h1V30Z"/><rect class="ba172-5" x="18" y="29" width="1" height="1"/><path class="ba172-5" d="M16,32V30H15v2Z"/><path class="ba172-5" d="M14,32V30h1V29H13v4h2V32Z"/><path class="ba172-5" d="M12,30H11v1H10V30H9v3h1V32h1v1h1V30Z"/><rect class="ba172-5" x="10" y="29" width="1" height="1"/><rect class="ba172-2" x="20" y="15" width="1" height="1"/><path class="ba172-2" d="M19,15h1V14H19Z"/><path class="ba172-3" d="M10,14h2V13H10Z"/><path class="ba172-3" d="M10,17v1h1v1h1v1h1V19h3V18h1v1h1V18h1V16h1V15H16V14h2V13H16V12h2V11H11v1h1v1h1v2H9v1h1Zm4-1h1v1H14Z"/><rect class="ba172-3" x="16" y="19" width="1" height="1"/><path class="ba172-3" d="M13,21h3V20H13Z"/><rect class="ba172-3" x="18" y="12" width="1" height="1"/><path class="ba172-2" d="M16,23v1h1V22H16Z"/><rect class="ba172-2" x="8" y="15" width="1" height="1"/><rect class="ba172-2" x="14" y="16" width="1" height="1"/><path class="ba172-6" d="M18,14v1h1V14Z"/><path class="ba172-6" d="M12,15h1V14H12Z"/><path class="ba172-2" d="M17,14H16v1h2V14Z"/><path class="ba172-2" d="M12,15V14H9v1h3Z"/><rect class="ba172-7" x="18" y="13" width="1" height="1"/><rect class="ba172-7" x="16" y="12" width="2" height="1"/><path class="ba172-7" d="M13,14V13H12v1Z"/><path class="ba172-7" d="M10,13h2V12H10Z"/><path class="ba172-8" d="M13,23h3V22h1V21h1V20h1V19h1V16H19v2H18v1H17v1H16v1H13V20H12V19H11V18H10V16H9v3h1v1h1v1h1v1h1Z"/><rect class="ba172-2" x="13" y="19" width="3" height="1"/><rect class="ba172-2" x="16" y="18" width="1" height="1"/><path class="ba172-9" d="M10,13V12h1V11h7v1h1v2h1V13h1V9H20V8H19V7H18V6H11V7H10V8H9V9H8v4H9v1h1Z"/></svg>