<svg xmlns="http://www.w3.org/2000/svg" viewBox="0 0 29 33"><defs><style>polygon,rect,path{shape-rendering:crispedges;}.ib29-1{fill:#6b4f99;}.ib29-2{fill:#000000;}.ib29-3{fill:#ce8452;}.ib29-4{fill:#e2e2e2;}.ib29-5{fill:#e2e2e2;}.ib29-6{fill:#ffce00;}.ib29-7{fill:#c9936f;}.ib29-8{fill:#e8b592;}.ib29-9{fill:#004b68;}.ib29-10{fill:#fad000;}.ib29-11{fill:#ffffff;}</style></defs><rect class="ib29-1" x="17" y="20" height="1"/><polygon class="ib29-1" points="14 16 14 16 14 17 15 17 15 17 14 17 14 16"/><path class="ib29-1" d="M0,33H6V27H7V26H8V25h2V24h2V21H10V20H9V18H8V13H9V11h1V10h1V9h7v1h1v1h1v1h1v3h0v2h1V16h1v1h1V16h1v7H24v8H23v1H21v1h8V0H0Z"/><path class="ib29-1" d="M19,16h0v2h0V16Z"/><rect class="ib29-1" x="16" y="21" height="1"/><rect class="ib29-1" x="18" y="19" height="1"/><path class="ib29-1" d="M20,23V20H19v1H17v3h2v1h2V23Z"/><path class="ib29-2" d="M23,26v5h1V25H23Z"/><path class="ib29-2" d="M7,27H6v6H7V27Z"/><path class="ib29-3" d="M8,27H7v6H8V27Z"/><rect class="ib29-2" x="7" y="26" width="1" height="1"/><path class="ib29-2" d="M9,27H8v6H9V27Z"/><path class="ib29-3" d="M20,27h1V26H19V25H17V24H16V23H13v1H12v1H10v1H8v1H9v6h5V29h1v4h5V27Zm-8,2H11V28h1Zm6,0H17V28h1Z"/><path class="ib29-2" d="M10,25H8v1h2Z"/><rect class="ib29-2" x="11" y="28" width="1" height="1"/><path class="ib29-2" d="M12,24H10v1h2Z"/><path class="ib29-2" d="M13,23h3v1h1V21H16v1H13V21H12v3h1Z"/><path class="ib29-2" d="M15,29H14v4h1V29Z"/><rect class="ib29-2" x="17" y="28" width="1" height="1"/><path class="ib29-2" d="M18,24H17v1h2V24Z"/><path class="ib29-2" d="M22,32h1V31H22V25H19v1h2v1H20v6h1V32Z"/><path class="ib29-3" d="M23,26V25H22v6h1V26Z"/><path class="ib29-2" d="M21,16V15h0v1Z"/><path class="ib29-3" d="M16,12H15V11H14v2h2Z"/><path class="ib29-3" d="M13,12h0Z"/><rect class="ib29-3" x="9" y="15" width="1" height="1"/><path class="ib29-3" d="M17,12h1V11H17v2h0Z"/><path class="ib29-3" d="M13,22h3V21h1V20h1V19h0V18h0V16H15v1H14V16h1V14H14v1H13v2H12V16H11v4h1v1h1Zm0-3h3v1H13Z"/><polygon class="ib29-3" points="19 16 19 16 19 16 20 16 20 15 19 15 19 16"/><path class="ib29-2" d="M19,16v1h1V16Z"/><rect class="ib29-2" x="19" y="10" height="1"/><rect class="ib29-2" x="18" y="9" height="1"/><polygon class="ib29-2" points="9 16 9 17 10 17 10 16 9 16 9 16"/><polygon class="ib29-2" points="15 16 14 16 14 16 14 17 15 17 15 17 15 16 15 16 15 16"/><path class="ib29-4" d="M13,12H11v1h2Z"/><rect class="ib29-4" x="17" y="12" width="1" height="1"/><path class="ib29-5" d="M19,20V18H18v2H17v1h2Z"/><path class="ib29-5" d="M19,18h1V17H19Z"/><path class="ib29-5" d="M11,20V18H10v3h2V20Z"/><polygon class="ib29-5" points="9 17 9 18 10 18 10 17 9 17 9 17"/><rect class="ib29-2" x="13" y="19" width="3" height="1"/><path class="ib29-6" d="M19,18V15H18v3h1Z"/><path class="ib29-6" d="M15,15v1h1V15Z"/><path class="ib29-6" d="M12,17h1V16H12Z"/><path class="ib29-6" d="M10,18h1V15H10v3H9V17H9V16H9V14h2V12h2v1h1V11h1v1h1v1h1V11h1v3h2v4H19v2h1V16h1V12H20V11H19V10H18V9H11v1H10v1H9v2H8v5H9v2h1V18Z"/><path class="ib29-2" d="M19,15h1V14H18V13H11v1H9v1h2v1h2V15h1V14h1v1h1v1h2V15Z"/><path class="ib29-7" d="M21,23V22H20v1Z"/><path class="ib29-7" d="M24,22.111V23h1V22H24Z"/><rect class="ib29-2" x="21" y="19" width="1" height="1"/><rect class="ib29-2" x="23" y="19" width="1" height="1"/><path class="ib29-8" d="M24,22H21v1h3V22Z"/><path class="ib29-8" d="M23,20V19H22v1H20v2h1V21h3v1h1V20H23Z"/><path class="ib29-9" d="M21,23v2h3V23H21Z"/><path class="ib29-10" d="M20,18v2h1V19h3v1h1V18H20Z"/><path class="ib29-2" d="M24,22V21H21v1h3Z"/><path class="ib29-11" d="M20,16v2h5V16H24v1H23V16H22v1H21V16H20Z"/></svg>