<svg xmlns="http://www.w3.org/2000/svg" viewBox="0 0 29 33"><defs><style>polygon,rect,path{shape-rendering:crispedges;}.ia88-1{fill:#6b4f99;}.ia88-2{fill:#000000;}.ia88-3{fill:#95f9ed;}.ia88-4{fill:#efcaaf;}.ia88-5{fill:#95f9ed;}.ia88-6{fill:#ffffff;}.ia88-7{fill:#db5800;}.ia88-8{fill:#c9a717;}.ia88-9{fill:#ff6aa5;}.ia88-10{fill:#ff1f4a;}.ia88-11{fill:#ff791f;}.ia88-12{fill:#fad000;}.ia88-13{fill:#b6dc00;}.ia88-14{fill:#00af68;}.ia88-15{fill:#38a6e8;}.ia88-16{fill:#0068ff;}.ia88-17{fill:#6e12ff;}.ia88-18{fill:#ff1d99;}.ia88-19{fill:#cc2f76;}</style></defs><rect class="ia88-1" x="19" y="24" width="1" height="1"/><path class="ia88-1" d="M0,33H6V27H7V26H8V25h2V24h2V21H10v1H9V21H8V20H9V17H8V13H4V12H6V11H8V10h2V9h1V8h1V7h1V6h1V5h1V6h1V7h1V8h1V9h1v1h2v1h2v1h2v1H21v5H20v1h2v1h1v3H22v1H21v1h1v1h1v7h6V0H0Z"/><path class="ia88-1" d="M19,24V23H18V21H17v3h2Z"/><path class="ia88-2" d="M7,27H6v6H7V27Z"/><rect class="ia88-2" x="7" y="26" width="1" height="1"/><path class="ia88-3" d="M8,27H7v6H8V27Z"/><path class="ia88-2" d="M9,31V27H8v6H9V31Z"/><path class="ia88-2" d="M10,25H8v1h2Z"/><path class="ia88-3" d="M19,32V31H18v1H17V29h1V28h1V25H17v1H16v1H13V26H12V25H10v1H8v1H9v2h1V28h1v1h1v3H11V31H10v1H9v1H20V32Zm-3-2v1H15v1H13V28h2v1h1Z"/><rect class="ia88-3" x="18" y="29" width="1" height="1"/><rect class="ia88-3" x="10" y="29" width="1" height="1"/><rect class="ia88-3" x="19" y="28" width="1" height="1"/><path class="ia88-3" d="M15,29H14v2h1V29Z"/><path class="ia88-2" d="M12,24H10v1h2Z"/><path class="ia88-2" d="M13,23h3v1h1V21H16v1H13V21H12v3h1Z"/><rect class="ia88-2" x="12" y="25" width="1" height="1"/><path class="ia88-2" d="M13,26v1h3V26H13Z"/><path class="ia88-4" d="M13,25v1h3V25h1V24H16V23H13v1H12v1Z"/><rect class="ia88-2" x="16" y="25" width="1" height="1"/><path class="ia88-2" d="M18,24H17v1h2V24Z"/><path class="ia88-2" d="M21,28H20v5h1V28Z"/><path class="ia88-3" d="M22,28H21v5h1V28Z"/><path class="ia88-2" d="M23,26H22v7h1V26Z"/><path class="ia88-5" d="M19,30H18V29H17v3h1V31h1v1h1V29H19Z"/><rect class="ia88-5" x="18" y="28" width="1" height="1"/><path class="ia88-5" d="M15,30v1h1V29H15Z"/><path class="ia88-5" d="M14,30V29h1V28H13v4h2V31H14Z"/><path class="ia88-5" d="M9,32h1V31h1v1h1V29H11v1H10V29H9v3Z"/><rect class="ia88-5" x="10" y="28" width="1" height="1"/><path class="ia88-4" d="M13,22h3V21h1V20h1V19h1V16h1V15H16V14H13v1H10v4h1v1h1v1h1Zm1-6h1v1H14Zm-2,3V18h1v1h3v1H13V19Z"/><path class="ia88-2" d="M19,16v3h1V16Z"/><rect class="ia88-2" x="18" y="19" width="1" height="1"/><rect class="ia88-2" x="17" y="20" width="1" height="1"/><path class="ia88-2" d="M11,20v1h1V20Z"/><rect class="ia88-2" x="10" y="19" width="1" height="1"/><path class="ia88-2" d="M10,18H9v1h1Z"/><rect class="ia88-2" x="14" y="16" width="1" height="1"/><path class="ia88-6" d="M12,15h1V14H12Z"/><path class="ia88-6" d="M10,14v1h1V14Z"/><path class="ia88-6" d="M18,14v1h1V14Z"/><path class="ia88-6" d="M16,14v1h1V14Z"/><path class="ia88-2" d="M11,14v1h1V14Z"/><path class="ia88-2" d="M17,14v1h1V14Z"/><rect class="ia88-2" x="13" y="19" width="3" height="1"/><rect class="ia88-2" x="12" y="18" width="1" height="1"/><path class="ia88-7" d="M10,20V19H9v1H8v1H9v1h1V21h1V20Z"/><path class="ia88-7" d="M19,15h1v3h1V14H19Z"/><path class="ia88-7" d="M10,17V14H8v3H9v1h1Z"/><path class="ia88-8" d="M11,14H21V13h4V12H23V11H21V10H19V9H18V8H17V7H16V6H15V5H14V6H13V7H12V8H11V9H10v1H8v1H6v1H4v1H8v1h3Z"/><path class="ia88-6" d="M20,25v1h1V24H20Z"/><rect class="ia88-9" x="20" y="21" width="1" height="1"/><polygon class="ia88-10" points="20 23 19 23 19 24 20 24 21 24 21 23 20 23"/><rect class="ia88-11" x="21" y="23" width="1" height="1"/><path class="ia88-12" d="M22,22h1V20H22v2Z"/><path class="ia88-13" d="M21,20h1V19H20v1Z"/><rect class="ia88-14" x="19" y="19" width="1" height="1"/><rect class="ia88-14" x="18" y="20" width="1" height="1"/><path class="ia88-15" d="M19,21H18v2h1V21Z"/><path class="ia88-16" d="M19,22v1h2V22H19Z"/><path class="ia88-17" d="M22,21H21v2h1V21Z"/><path class="ia88-18" d="M20,20v1h2V20H20Z"/><path class="ia88-19" d="M19,22h1V20H19v2Z"/><path class="ia88-11" d="M22,23h1V22H22Z"/><path class="ia88-2" d="M21.5,26H22V25H21v1Z"/><path class="ia88-4" d="M21,26H20v2h2V26H21Z"/><path class="ia88-2" d="M20,25H19v3h1V25Z"/></svg>