<svg xmlns="http://www.w3.org/2000/svg" viewBox="0 0 29 33"><defs><style>polygon,rect,path{shape-rendering:crispedges;}.fb180-1{fill:#d14646;}.fb180-2{fill:#000000;}.fb180-3{fill:#316a6d;}.fb180-4{fill:#333333;}.fb180-5{fill:#e8b795;}.fb180-6{fill:#90a2a3;}.fb180-7{fill:#ffffff;}.fb180-8{fill:#663228;}.fb180-9{fill:#b23b00;}.fb180-10{fill:#0068ff;}</style></defs><path class="fb180-1" d="M0,33H6V27H7V26H8V25H9V24h1V23h1V22h1V21H11V20H10V19H9V16H8V15H9V14H8V11H9V10h1V9h2V8h5V9h1v1h1v1h1v4h1v1H20v3H19v1H18v1H17v1h1v1h1v1h1v1h1v1h1v1h1v6h6V0H0Z"/><path class="fb180-2" d="M23,27H22v6h1V27Z"/><path class="fb180-3" d="M22,27H21v6h1V27Z"/><path class="fb180-2" d="M21,27h1V26H21V25H20v2H17v1h2v1h1v4h1V27Z"/><rect class="fb180-2" x="19" y="24" width="1" height="1"/><path class="fb180-3" d="M20,29H19v1H18v1H17v1H16v1h4V29Z"/><rect class="fb180-2" x="18" y="23" width="1" height="1"/><path class="fb180-3" d="M18,25H17v1H16v5h1V30h1V29h1V28H17V27h2V26h1V25H19V24H18Z"/><rect class="fb180-3" x="17" y="23" width="1" height="1"/><rect class="fb180-2" x="17" y="24" width="1" height="1"/><rect class="fb180-2" x="18" y="29" width="1" height="1"/><rect class="fb180-2" x="16" y="25" width="1" height="1"/><path class="fb180-4" d="M15,27H14v6h1V27Z"/><path class="fb180-2" d="M12,24h1V22H11v1h1Z"/><path class="fb180-5" d="M17,25V24H16V23H13v1H12v1h1v1h3V25Z"/><rect class="fb180-2" x="12" y="25" width="1" height="1"/><path class="fb180-3" d="M12,32V31H11V30H10V29H9v4h4V32Z"/><rect class="fb180-3" x="11" y="23" width="1" height="1"/><rect class="fb180-2" x="11" y="24" width="1" height="1"/><rect class="fb180-2" x="11" y="30" width="1" height="1"/><rect class="fb180-2" x="10" y="23" width="1" height="1"/><rect class="fb180-2" x="9" y="24" width="1" height="1"/><path class="fb180-3" d="M10,26v1h2v1H10v1h1v1h1v1h1V26H12V25H11V24H10v1H9v1Z"/><path class="fb180-2" d="M9,29h1V28h2V27H9V25H8v1H7v1H8v6H9V29Z"/><path class="fb180-3" d="M8,27H7v6H8V27Z"/><path class="fb180-2" d="M7,27H6v6H7V27Z"/><rect class="fb180-2" x="10" y="29" width="1" height="1"/><rect class="fb180-2" x="17" y="30" width="1" height="1"/><path class="fb180-2" d="M17,32V31H16V26H13v5H12v1h1v1h1V27h1v6h1V32Z"/><path class="fb180-6" d="M9,26v1h1V26Z"/><path class="fb180-6" d="M19,27h1V26H19Z"/><rect class="fb180-2" x="20" y="15" width="1" height="1"/><path class="fb180-5" d="M10,17v1h1v1h1V18h2v1h1V18h2v1h1V18h1V16h1V15H16V14h2V13H16V12h2v1h1V11H18V10H14v1H12v2h1v2H9v1h1Zm4-1h1v1H14Z"/><path class="fb180-5" d="M10,13v1h2V13H10Z"/><rect class="fb180-5" x="15" y="20" width="1" height="1"/><rect class="fb180-5" x="13" y="20" width="1" height="1"/><path class="fb180-2" d="M19,17h1V16H19Z"/><path class="fb180-2" d="M16,23v1h1V23h1V22H16Z"/><path class="fb180-2" d="M10,16H9v1h1Z"/><rect class="fb180-2" x="8" y="15" width="1" height="1"/><rect class="fb180-2" x="14" y="16" width="1" height="1"/><path class="fb180-7" d="M12,15h1V14H12Z"/><path class="fb180-7" d="M10,14v1h1V14Z"/><path class="fb180-7" d="M18,14v1h1V14Z"/><path class="fb180-7" d="M16,14v1h1V14Z"/><path class="fb180-2" d="M11,14v1h1V14Z"/><path class="fb180-2" d="M17,14v1h1V14Z"/><rect class="fb180-8" x="18" y="13" width="1" height="1"/><rect class="fb180-8" x="16" y="12" width="2" height="1"/><path class="fb180-8" d="M13,14V13H12v1Z"/><path class="fb180-8" d="M11,13h1V12H11Z"/><path class="fb180-9" d="M15,18v1h1V18Z"/><path class="fb180-9" d="M13,23h3V22h1V21h1V20h1V19h1V17H19v1H18v1H16v2H15V20H14v1H13V19h1V18H12v1H11V18H10V17H9v2h1v1h1v1h1v1h1Z"/><path class="fb180-2" d="M14,19H13v1h3V19H14Z"/><path class="fb180-2" d="M16,18v1h1V18Z"/><path class="fb180-10" d="M19,14v1h1V11H19v3Z"/><rect class="fb180-10" x="18" y="10" width="1" height="1"/><path class="fb180-10" d="M10,14V13h1V12h1V11h2V10h4V9H17V8H12V9H10v1H9v1H8v3H9v1h1Z"/></svg>