<svg xmlns="http://www.w3.org/2000/svg" viewBox="0 0 29 33"><defs><style>polygon,rect,path{shape-rendering:crispedges;}.ta11-1{fill:#000000;}.ta11-2{fill:#8e9350;}.ta11-3{fill:#c18d59;}.ta11-4{fill:#ffffff;}.ta11-5{fill:#ffffff;}.ta11-6{fill:#e2e2e2;}.ta11-7{fill:#db5a8e;}</style></defs><path class="ta11-1" d="M23,27H22v6h1V27Z"/><path class="ta11-2" d="M22,27H21v6h1V27Z"/><rect class="ta11-1" x="21" y="26" width="1" height="1"/><path class="ta11-1" d="M21,27H20v6h1V27Z"/><rect class="ta11-2" x="18" y="29" width="1" height="1"/><path class="ta11-2" d="M9,27v2h1V28h1v1h1V25h1V24H11v1H10v2Z"/><path class="ta11-2" d="M16,25h1v4h1V28h1v1h1V27h1V26H19V25H18V24H16Z"/><path class="ta11-2" d="M19,32V31H18v1H17V30H16v1H15v1H13V30H12v2H11V31H10v1H9v1H20V32Z"/><rect class="ta11-2" x="10" y="29" width="1" height="1"/><path class="ta11-1" d="M20,26h1V25H19v1Z"/><rect class="ta11-1" x="18" y="24" width="1" height="1"/><path class="ta11-1" d="M16,24h2V23H16Z"/><path class="ta11-1" d="M16,25V24H13v1h3Z"/><path class="ta11-3" d="M16,24V23H13v1h3Z"/><path class="ta11-1" d="M13,23H11v1h2Z"/><rect class="ta11-1" x="10" y="24" width="1" height="1"/><path class="ta11-1" d="M9,31V27H8v6H9V31Z"/><path class="ta11-2" d="M8,27H7v6H8V27Z"/><path class="ta11-1" d="M7,27V24H6v9H7V27Z"/><path class="ta11-2" d="M13,28h2v1h1V25H13v3Z"/><path class="ta11-2" d="M14,29v2h1V29Z"/><path class="ta11-4" d="M19,30H18V29H17v3h1V31h1v1h1V29H19Z"/><rect class="ta11-4" x="18" y="28" width="1" height="1"/><path class="ta11-4" d="M15,29v2h1V29Z"/><path class="ta11-4" d="M14,30V29h1V28H13v4h2V31H14Z"/><path class="ta11-4" d="M11,29v1H10V29H9v3h1V31h1v1h1V29Z"/><rect class="ta11-4" x="10" y="28" width="1" height="1"/><path class="ta11-1" d="M13,27V25H12v5h1V27Z"/><path class="ta11-1" d="M17,28V25H16v5h1V28Z"/><path class="ta11-3" d="M16,22V21h1V20h1V19h1V15H16V14h2V13H16V12h1V11H12v1h1v1H11v1h2v1H10v4h1v1h1v1h1v1h3Zm-2-6h1v1H14Zm-2,3V18h1v1h3v1H13V19Z"/><rect class="ta11-3" x="10" y="12" width="1" height="1"/><rect class="ta11-3" x="18" y="12" width="1" height="1"/><rect class="ta11-1" x="14" y="16" width="1" height="1"/><path class="ta11-5" d="M10,15h1V14H10Z"/><path class="ta11-5" d="M16,14v1h1V14Z"/><path class="ta11-1" d="M12,15h1V14H11v1Z"/><rect class="ta11-6" x="18" y="13" width="1" height="1"/><polygon class="ta11-6" points="17 12 16 12 16 13 18 13 18 12 17 12"/><rect class="ta11-6" x="10" y="13" width="1" height="1"/><path class="ta11-6" d="M11,13h2V12H11Z"/><path class="ta11-3" d="M7,27H9V25H8V24H7v3Z"/><path class="ta11-1" d="M10,27V25H9v2Z"/><rect class="ta11-1" x="8" y="24" width="1" height="1"/><rect class="ta11-1" x="7" y="23" width="1" height="1"/><path class="ta11-2" d="M13,22H12V21H11V20H10V19H9V12h1V11h2V10h5v1h2v1h1v7H19v1H18v1H17v1H16v1h2V22h1V21h1V20h1V11H20V10H19V9H18V8H11V9H10v1H9v1H8v9H9v1h1v1h1v1h2Z"/><rect class="ta11-1" x="10" y="8" width="1" height="1"/><rect class="ta11-1" x="9" y="9" width="1" height="1"/><rect class="ta11-1" x="8" y="10" width="1" height="1"/><path class="ta11-1" d="M8,11H7v9H8V11Z"/><rect class="ta11-1" x="8" y="20" width="1" height="1"/><rect class="ta11-1" x="9" y="21" width="1" height="1"/><rect class="ta11-1" x="10" y="22" width="1" height="1"/><rect class="ta11-1" x="18" y="22" width="1" height="1"/><rect class="ta11-1" x="19" y="21" width="1" height="1"/><rect class="ta11-1" x="20" y="20" width="1" height="1"/><path class="ta11-1" d="M21,20h1V11H21v9Z"/><rect class="ta11-1" x="20" y="10" width="1" height="1"/><rect class="ta11-1" x="19" y="9" width="1" height="1"/><rect class="ta11-1" x="18" y="8" width="1" height="1"/><path class="ta11-1" d="M18,8V7H11V8h7Z"/><path class="ta11-1" d="M12,12V11H10v1h2Z"/><path class="ta11-1" d="M10,15V12H9v7h1V15Z"/><rect class="ta11-1" x="10" y="19" width="1" height="1"/><rect class="ta11-1" x="11" y="20" width="1" height="1"/><rect class="ta11-1" x="12" y="21" width="1" height="1"/><path class="ta11-1" d="M16,23V22H13v1h3Z"/><rect class="ta11-1" x="16" y="21" width="1" height="1"/><rect class="ta11-1" x="17" y="20" width="1" height="1"/><rect class="ta11-1" x="18" y="19" width="1" height="1"/><path class="ta11-1" d="M19,14H17v1h2v4h1V12H19v2Z"/><path class="ta11-1" d="M18,12h1V11H17v1Z"/><path class="ta11-1" d="M17,11V10H12v1h5Z"/><path class="ta11-7" d="M0,7V33H6V24H7V23H8v1H9v1h1V24h1V23H10V22H9V21H8V20H7V11H8V10H9V9h1V8h1V7h7V8h1V9h1v1h1v1h1v9H21v1H20v1H19v1H18v1h1v1h2v1h1v1h1v6h6V0H0Z"/><rect class="ta11-1" x="13" y="19" width="3" height="1"/><rect class="ta11-1" x="12" y="18" width="1" height="1"/></svg>