<svg xmlns="http://www.w3.org/2000/svg" viewBox="0 0 29 33"><defs><style>polygon,rect,path{shape-rendering:crispedges;}.bb141-1{fill:#db5a8e;}.bb141-2{fill:#000000;}.bb141-3{fill:#685432;}.bb141-4{fill:#ffffff;}.bb141-5{fill:#e8b795;}.bb141-6{fill:#663228;}.bb141-7{fill:#663228;}.bb141-8{fill:#00af68;}</style></defs><path class="bb141-1" d="M0,33H6V27H7V26H8V25h2V24h1V23h1V21H11V20H10V19H9V16H8V15H9V10h1V9h1V8h7V9h1v2h1v4h1v1H20v3H19v1H18v1H17v2h1v1h1v1h2v1h1v1h1v6h6V0H0Z"/><path class="bb141-2" d="M23,27H22v6h1V27Z"/><path class="bb141-3" d="M22,27H21v6h1V27Z"/><rect class="bb141-2" x="21" y="26" width="1" height="1"/><path class="bb141-2" d="M21,27H20v6h1V27Z"/><path class="bb141-3" d="M20,27h1V26H19V25H18v4H17v4h3V27Z"/><path class="bb141-2" d="M20,26h1V25H19v1Z"/><path class="bb141-2" d="M17,29H16v4h1V29Z"/><rect class="bb141-4" x="16" y="24" width="1" height="1"/><path class="bb141-4" d="M16,29h1V26H16V25H13v1H12v3h1v4h1V32h1v1h1V29Zm-1,2H14V30h1Zm0-2H14V28h1Zm0-2H14V26h1Z"/><rect class="bb141-4" x="15" y="23" width="1" height="1"/><rect class="bb141-2" x="14" y="32" width="1" height="1"/><rect class="bb141-2" x="14" y="30" width="1" height="1"/><rect class="bb141-2" x="14" y="28" width="1" height="1"/><rect class="bb141-2" x="14" y="26" width="1" height="1"/><rect class="bb141-4" x="13" y="23" width="1" height="1"/><path class="bb141-2" d="M13,29H12v4h1V29Z"/><rect class="bb141-4" x="12" y="24" width="1" height="1"/><path class="bb141-3" d="M12,29H11V25H10v1H8v1H9v6h3V29Z"/><path class="bb141-2" d="M11,26v3h1V26h1V25H12V24h1V23h1v1H13v1h3V24H15V23h1v1h1v1H16v1h1v3h1V25h1V24H18V23H17V21H16v1H13V21H12v2H11v1H10v1h1Z"/><path class="bb141-2" d="M10,25H8v1h2Z"/><path class="bb141-2" d="M9,27H8v6H9V27Z"/><path class="bb141-3" d="M8,27H7v6H8V27Z"/><rect class="bb141-2" x="7" y="26" width="1" height="1"/><path class="bb141-2" d="M7,27H6v6H7V27Z"/><rect class="bb141-2" x="20" y="15" width="1" height="1"/><path class="bb141-2" d="M19,15h1V11H19v4Z"/><path class="bb141-5" d="M14,21V20H13V19H12V18h1v1h3v1H15v1h2V20h1V19h1V16h1V15H19V11H18V10H17v1H16V10H15v1H14V10H13v1H12V10H11v1H10v4H9v1h1v3h1v1h1v1h2Zm-3-6V14h1V13h1V12h3v1h1v1h1v1H16v1H15v1H14V16H13V15H11Z"/><path class="bb141-2" d="M19,17v2h1V16H19Z"/><rect class="bb141-2" x="18" y="19" width="1" height="1"/><rect class="bb141-2" x="17" y="20" width="1" height="1"/><rect class="bb141-2" x="17" y="9" width="1" height="1"/><rect class="bb141-2" x="13" y="9" width="1" height="1"/><rect class="bb141-2" x="11" y="9" width="1" height="1"/><rect class="bb141-2" x="15" y="9" width="1" height="1"/><rect class="bb141-2" x="11" y="20" width="1" height="1"/><rect class="bb141-2" x="10" y="10" width="1" height="1"/><rect class="bb141-2" x="10" y="19" width="1" height="1"/><path class="bb141-2" d="M10,14V11H9v4h1Z"/><path class="bb141-2" d="M10,16H9v3h1V16Z"/><rect class="bb141-2" x="8" y="15" width="1" height="1"/><path class="bb141-6" d="M18,15V14H17v1Z"/><rect class="bb141-6" x="16" y="13" width="1" height="1"/><rect class="bb141-2" x="14" y="14" width="1" height="1"/><path class="bb141-4" d="M13,15v1h3V15h1V14H16V13H13v1H12v1Zm1-1h1v1H14Z"/><path class="bb141-6" d="M16,13V12H13v1h3Z"/><rect class="bb141-6" x="12" y="13" width="1" height="1"/><rect class="bb141-6" x="11" y="14" width="1" height="1"/><path class="bb141-2" d="M14,17h1V16H14Z"/><path class="bb141-7" d="M15,20H14v1H13v1h3V21H15Z"/><polygon class="bb141-2" points="16 20 16 19 13 19 13 20 14 20 15 20 16 20"/><rect class="bb141-2" x="12" y="18" width="1" height="1"/><path class="bb141-8" d="M18,11h1V9H18v2Z"/><path class="bb141-8" d="M12,10v1h1V9h1v2h1V9h1v2h1V9h1V8H11V9h1Z"/><rect class="bb141-8" x="10" y="9" width="1" height="1"/><path class="bb141-8" d="M10,10H9v1h1Z"/></svg>