<svg xmlns="http://www.w3.org/2000/svg" viewBox="0 0 29 33"><defs><style>polygon,rect,path{shape-rendering:crispedges;}.ba82-1{fill:#31a09d;}.ba82-2{fill:#000000;}.ba82-3{fill:#b2622b;}.ba82-4{fill:#9b8100;}.ba82-5{fill:#f9e100;}.ba82-6{fill:#ffffff;}.ba82-7{fill:#99004d;}.ba82-8{fill:#99004d;}.ba82-9{fill:#b23b00;}.ba82-10{fill:#99c6c6;}</style></defs><path class="ba82-1" d="M0,33H6V27H7V26H8V25h2V24h2V22H11V21H10V20H9V16H8V15H9V11h1V10h1V9h7v1h1v1h1v4h1v1H20v4H19v1H18v1H17v2h2V23h1V22h1V20h2V19h1v1H23v1h1v1H23v1H22v1H21v1h2v1h1v2H23v5h6V0H0ZM26,20H25V19h1Zm-2-3h1v1H24Z"/><rect class="ba82-1" x="19" y="24" width="1" height="1"/><rect class="ba82-1" x="21" y="22" width="1" height="1"/><path class="ba82-2" d="M7,27H6v6H7V27Z"/><rect class="ba82-2" x="7" y="26" width="1" height="1"/><path class="ba82-3" d="M8,27H7v6H8V27Z"/><rect class="ba82-3" x="8" y="26" width="1" height="1"/><path class="ba82-2" d="M9,27H8v6H9V27Z"/><path class="ba82-2" d="M10,26V25H8v1h2Z"/><path class="ba82-4" d="M20,30H17v2h1V31h1v2h1V30Z"/><path class="ba82-4" d="M16,29h1V27H16v1H13V27H12V26H11V25H10v1H9v7h1V29h1v4h1V29h3v4h1V29Z"/><rect class="ba82-4" x="13" y="30" width="1" height="2"/><path class="ba82-2" d="M13,23H12v1h1Z"/><path class="ba82-2" d="M16,24h1V23H16Z"/><path class="ba82-2" d="M18,25h1V24H17v1Z"/><path class="ba82-2" d="M21,30H20v3h1V30Z"/><path class="ba82-3" d="M22,29H21v4h1V29Z"/><path class="ba82-2" d="M23,28H22v5h1V28Z"/><path class="ba82-2" d="M11,26h1V24H10v1h1Z"/><rect class="ba82-2" x="12" y="26" width="1" height="1"/><rect class="ba82-2" x="16" y="26" width="1" height="1"/><path class="ba82-2" d="M13,27v1h3V27H13Z"/><path class="ba82-3" d="M13,26v1h3V26h1V24H16V23H13v1H12v2Z"/><path class="ba82-5" d="M12,29v4h3V29Zm2,3H13V30h1Z"/><path class="ba82-5" d="M11,29H10v4h1V29Z"/><path class="ba82-5" d="M18,31v1H17V30h1V29H16v4h3V31Z"/><rect class="ba82-2" x="20" y="15" width="1" height="1"/><path class="ba82-2" d="M19,15h1V14H19Z"/><polygon class="ba82-3" points="18 14 19 14 19 13 17 13 17 14 18 14"/><path class="ba82-3" d="M10,17h1v1h5v1h1V18h1V17h1V16h1V15H16V13h1V12h2V11H18V10H11v1H10v2h1V12h2v1H11v1h2v1H9v1h1Zm4-1h1v1H14Z"/><path class="ba82-2" d="M10,14H9v1h1Z"/><rect class="ba82-2" x="8" y="15" width="1" height="1"/><rect class="ba82-2" x="14" y="16" width="1" height="1"/><path class="ba82-6" d="M13,15V14H12v1Z"/><path class="ba82-6" d="M10,15h1V14H10Z"/><path class="ba82-6" d="M18,14v1h1V14Z"/><path class="ba82-6" d="M16,14v1h1V14Z"/><path class="ba82-2" d="M12,15V14H11v1Z"/><path class="ba82-2" d="M17,14v1h1V14Z"/><rect class="ba82-7" x="10" y="13" width="1" height="1"/><rect class="ba82-7" x="11" y="12" width="2" height="1"/><path class="ba82-7" d="M17,13H16v1h1Z"/><rect class="ba82-7" x="17" y="12" width="2" height="1"/><path class="ba82-8" d="M15,18H13v1h3V18Z"/><path class="ba82-8" d="M14,23h3V22h1V21h1V20h1V16H19v1H18v1H17v1H16v1H13V19H12V18H11V17H10V16H9v4h1v1h1v1h1v1h2Z"/><rect class="ba82-2" x="13" y="19" width="3" height="1"/><path class="ba82-2" d="M12,18v1h1V18Z"/><path class="ba82-9" d="M19,13v1h1V11H19v2Z"/><rect class="ba82-9" x="18" y="10" width="1" height="1"/><path class="ba82-9" d="M18,10V9H11v1h7Z"/><rect class="ba82-9" x="10" y="10" width="1" height="1"/><path class="ba82-9" d="M10,13V11H9v3h1Z"/><path class="ba82-6" d="M19,25H17v4h1v1h3V29h1V28H21V26h1V25H19Z"/><rect class="ba82-10" x="25" y="19" width="1" height="1"/><rect class="ba82-10" x="24" y="17" width="1" height="1"/><rect class="ba82-10" x="23" y="19" width="1" height="1"/><path class="ba82-10" d="M22,23h1V22h1V21H23V20H21v2h1Z"/><path class="ba82-10" d="M20,25h1V24h1V23H21V22H20v1H19v1h1Z"/><path class="ba82-3" d="M22,26H21v2h2V26H22Z"/><path class="ba82-2" d="M22.5,26H23V25H22v1Z"/><path class="ba82-2" d="M24,28V26H23v2Z"/></svg>