<svg xmlns="http://www.w3.org/2000/svg" viewBox="0 0 29 33"><defs><style>polygon,rect,path{shape-rendering:crispedges;}.na151-1{fill:#db5a8e;}.na151-2{fill:#000000;}.na151-3{fill:#002b4f;}.na151-4{fill:#db5800;}.na151-5{fill:#c18d59;}.na151-6{fill:#0079bc;}.na151-7{fill:#ffffff;}.na151-8{fill:#b23b00;}.na151-9{fill:#b23b00;}</style></defs><path class="na151-1" d="M0,33H6V27H7V26H8V25h2V24h2V22H11V21H10V20H9V16H8V15H9V11h1V10h1V9h7v1h1v1h1v4h1v1H20v4H19v1H18v1H17v2h2v1h2v1h1v1h1v6h6V0H0Z"/><path class="na151-2" d="M23,27H22v6h1V27Z"/><rect class="na151-2" x="21" y="26" width="1" height="1"/><path class="na151-3" d="M21,32v1h1V32Z"/><path class="na151-3" d="M21,28h1V27H21Z"/><path class="na151-3" d="M21,30v1h1V29H21Z"/><path class="na151-2" d="M21,31V27H20v6h1V31Z"/><path class="na151-3" d="M19,32v1h1V32Z"/><path class="na151-3" d="M19,26v1H18v3h1v1h1V29H19V28h1V27h1V26H19Z"/><path class="na151-2" d="M20,26h1V25H19v1Z"/><path class="na151-2" d="M18,30V25h1V24H17v1H16v1h1v7h1V30Z"/><path class="na151-4" d="M17,26H16v1H13V26H12v7h5V26Z"/><path class="na151-2" d="M13,26v1h3V26H13Z"/><path class="na151-2" d="M13,23V22H12v2h1Z"/><path class="na151-5" d="M13,25v1h3V25h1V24H16V23H13v1H12v1Z"/><path class="na151-2" d="M12,26h1V25H12V24H10v1h1v8h1V26Z"/><rect class="na151-3" x="9" y="32" width="1" height="1"/><path class="na151-3" d="M9,27v1h1v1H9v2h1V30h1V27H10V26H8v1Z"/><path class="na151-2" d="M10,25H8v1h2Z"/><path class="na151-2" d="M9,31V27H8v6H9V31Z"/><rect class="na151-2" x="7" y="26" width="1" height="1"/><path class="na151-3" d="M7,30v1H8V29H7Z"/><path class="na151-3" d="M7,32v1H8V32Z"/><path class="na151-3" d="M8,28V27H7v1Z"/><path class="na151-2" d="M7,31V27H6v6H7V31Z"/><path class="na151-6" d="M11,30H10v1H9v1h1v1h1V30Z"/><path class="na151-6" d="M10,27h1V25H10v2Z"/><path class="na151-6" d="M18,26v1h1V25H18Z"/><path class="na151-6" d="M7,29H8V28H7Z"/><path class="na151-6" d="M10,28H9v1h1Z"/><path class="na151-6" d="M21,29h1V28H21Z"/><path class="na151-6" d="M19,29h1V28H19Z"/><path class="na151-6" d="M21,32h1V31H21Z"/><path class="na151-6" d="M7,32H8V31H7Z"/><path class="na151-6" d="M20,32V31H19V30H18v3h1V32Z"/><rect class="na151-2" x="20" y="15" width="1" height="1"/><path class="na151-2" d="M19,14v1h1V11H19v3Z"/><path class="na151-5" d="M10,17v1h1v1h1V18h2v1h1V18h2v1h1V18h1V16h1V15H16V14h2V13H16V12h2v1h1V11H18V10H11v1H10v1h2v1h1v2H9v1h1Zm4-1h1v1H14Z"/><rect class="na151-5" x="15" y="20" width="1" height="1"/><rect class="na151-5" x="13" y="20" width="1" height="1"/><path class="na151-5" d="M10,14h2V13H10Z"/><rect class="na151-2" x="18" y="10" width="1" height="1"/><path class="na151-2" d="M16,23v1h1V22H16Z"/><path class="na151-2" d="M18,10V9H11v1h7Z"/><rect class="na151-2" x="10" y="10" width="1" height="1"/><rect class="na151-2" x="8" y="15" width="1" height="1"/><rect class="na151-2" x="14" y="16" width="1" height="1"/><path class="na151-7" d="M18,14v1h1V14Z"/><path class="na151-7" d="M12,15h1V14H12Z"/><path class="na151-2" d="M17,14H16v1h2V14Z"/><path class="na151-2" d="M12,15V14H10V11H9v4h3Z"/><path class="na151-8" d="M19,13H18v1h1Z"/><rect class="na151-8" x="16" y="12" width="2" height="1"/><path class="na151-8" d="M13,14V13H12v1Z"/><path class="na151-8" d="M12,13V12H10v1Z"/><path class="na151-9" d="M15,18v1h1V18Z"/><path class="na151-9" d="M13,23h3V22h2V21h1V20h1V16H19v2H18v1H16v2H15V20H14v1H13V19h1V18H12v1H11V18H10V16H9v4h1v1h1v1h2Z"/><path class="na151-2" d="M14,19H13v1h3V19H14Z"/><path class="na151-2" d="M16,18v1h1V18Z"/></svg>