<svg xmlns="http://www.w3.org/2000/svg" viewBox="0 0 29 33"><defs><style>polygon,rect,path{shape-rendering:crispedges;}.za128-1{fill:#d4a122;}.za128-2{fill:#000000;}.za128-3{fill:#5a2de2;}.za128-4{fill:#e8b795;}.za128-5{fill:#317f03;}.za128-6{fill:#ffffff;}.za128-7{fill:#6f7032;}.za128-8{fill:#6f7032;}.za128-9{fill:#cc3232;}.za128-10{fill:#fad000;}.za128-11{fill:#6d5800;}.za128-12{fill:#ea1500;}</style></defs><path class="za128-1" d="M0,33H6V27H7V26H8V25h2V24h1V23h1V21H10V20H9V17H8V15H9V11h1V10h1V9h2V7h1V6h2V5h2V6H17V7h1v3h1v1h1v4h1v2H20v3H19v1H17v2h1v1h1v1h2V23h1V22H21V19h1v1h1V18h1V17h3v5H26v1H25v1H24v7H23v1H21v1h8V0H0Z"/><path class="za128-2" d="M23,25v6h1V24H23Z"/><path class="za128-2" d="M7,30V27H6v6H7V30Z"/><path class="za128-3" d="M8,29V27H7v2Z"/><path class="za128-3" d="M7,31v2H8V31Z"/><rect class="za128-2" x="7" y="26" width="1" height="1"/><path class="za128-2" d="M9,31V27H8v6H9V31Z"/><path class="za128-3" d="M10,31V30H9v2h1v1h1V31Z"/><path class="za128-3" d="M18,26v2h1v1h1V27H19V25H18Z"/><path class="za128-3" d="M14,31H13V30H12V28H11V27H10V26H9v2h1v1h1v2h1v1h1v1h1V31Z"/><path class="za128-3" d="M13,29h1V27H13V26H12v2h1Z"/><rect class="za128-3" x="14" y="29" width="1" height="1"/><path class="za128-3" d="M16,31V30H15v2h1v1h1V31Z"/><path class="za128-3" d="M19,31V30H18V28H17V27H16V25H15v3h1v1h1v2h1v1h1v1h1V31Z"/><path class="za128-2" d="M10,26V25H8v1h2Z"/><path class="za128-2" d="M11,26h2V25H12V24h1V23h3v1h1v1H16v1h2V25h1V24H18V23H17V21H16v1H13V21H12v2H11v1H10v1h1Z"/><rect class="za128-2" x="13" y="24" width="1" height="1"/><path class="za128-2" d="M14,32v1h1V32Z"/><path class="za128-2" d="M14,31h1V30H14Z"/><path class="za128-2" d="M14,29h1V28H14Z"/><path class="za128-2" d="M14,26v1h1V25H14Z"/><rect class="za128-2" x="15" y="24" width="1" height="1"/><path class="za128-4" d="M16,24V23H13v1h1v1h1V24Z"/><rect class="za128-3" x="16" y="24" width="1" height="1"/><path class="za128-2" d="M22,32h1V31H22V23H21v2H19v1h2v1H20v6h1V32Z"/><path class="za128-3" d="M23,28V27H22v2h1Z"/><path class="za128-3" d="M23,24H22v1h1Z"/><path class="za128-5" d="M19,28H18v2h1v1h1V29H19Z"/><path class="za128-5" d="M16,26v1h1v1h1V26Z"/><path class="za128-5" d="M22,29v2h1V29Z"/><path class="za128-5" d="M20,27h1V26H19v1Z"/><path class="za128-5" d="M23,26V25H22v2h1Z"/><path class="za128-5" d="M18,32V31H17v2h2V32Z"/><path class="za128-5" d="M15,30h1v1h1V29H16V28H15v2Z"/><path class="za128-5" d="M14,28h1V27H14Z"/><polygon class="za128-5" points="14 27 14 26 14 25 13 25 13 26 13 27 14 27"/><rect class="za128-5" x="15" y="32" width="1" height="1"/><path class="za128-5" d="M14,32h1V31H14Z"/><path class="za128-5" d="M14,29H13V28H12v2h1v1h1V29Z"/><rect class="za128-5" x="12" y="24" width="1" height="1"/><path class="za128-5" d="M10,27h1v1h1V26H11V25H10v2Z"/><path class="za128-5" d="M12,32V31H11v2h2V32Z"/><path class="za128-5" d="M10,30v1h1V29H10V28H9v2Z"/><path class="za128-5" d="M9,32v1h1V32Z"/><path class="za128-5" d="M9,27V26H8v1Z"/><path class="za128-5" d="M7,30v1H8V29H7Z"/><path class="za128-2" d="M21,16V15H20v1Z"/><path class="za128-2" d="M19,13v2h1V11H19v2Z"/><path class="za128-4" d="M13,22h3V21h1V20h1V18h1V16h1V15H16V13h1V12h2V11H18V10H15v1H13V10H11v1H10v2h1V12h2v1H11v1h2v1H9v1h1v2h1v2h1v1h1Zm1-6h1v1H14Zm-2,3V18h5v1H16v1H13V19Z"/><path class="za128-4" d="M18,14h1V13H17v1Z"/><path class="za128-2" d="M19,16v1h1V16Z"/><rect class="za128-2" x="18" y="10" width="1" height="1"/><path class="za128-2" d="M13,9H11v1h2Z"/><path class="za128-2" d="M16,10h2V9H16Z"/><rect class="za128-2" x="10" y="10" width="1" height="1"/><path class="za128-2" d="M10,14V11H9v4h1Z"/><path class="za128-2" d="M10,16H9v1h1Z"/><path class="za128-2" d="M9,15H8v1H9Z"/><rect class="za128-2" x="14" y="16" width="1" height="1"/><path class="za128-6" d="M13,15V14H12v1Z"/><path class="za128-6" d="M10,15h1V14H10Z"/><path class="za128-6" d="M18,14v1h1V14Z"/><path class="za128-6" d="M16,14v1h1V14Z"/><path class="za128-2" d="M12,15V14H11v1Z"/><path class="za128-2" d="M17,14v1h1V14Z"/><path class="za128-7" d="M11,14V13H10v1Z"/><rect class="za128-7" x="11" y="12" width="2" height="1"/><path class="za128-7" d="M17,13H16v1h1Z"/><path class="za128-7" d="M19,12H17v1h2Z"/><path class="za128-8" d="M19,18H18v2H17v1h2V20h1V17H19Z"/><path class="za128-8" d="M11,20V18H10V17H9v3h1v1h2V20Z"/><polygon class="za128-2" points="13 20 16 20 16 19 17 19 17 18 12 18 12 19 13 19 13 20"/><path class="za128-9" d="M13,11h2V10h1V9h2V7H17V6h1V5H16V6H14V7H13v4Z"/><path class="za128-10" d="M20,17h1V16H20Z"/><path class="za128-10" d="M8,16v1H9V16Z"/><path class="za128-11" d="M21,21v1h1V21Z"/><path class="za128-10" d="M24,21h1v1H24v1h2V22h1V20H25V19H24V18H23v2H22V19H21v2h1v1h2Z"/><path class="za128-4" d="M23,24h1V23H22v1Z"/><path class="za128-11" d="M24,22H22v1h2Z"/><path class="za128-2" d="M24,24h1V23H24Z"/><rect class="za128-11" x="24" y="21" width="1" height="1"/><rect class="za128-2" x="24" y="18" width="1" height="1"/><path class="za128-12" d="M25,19v1h2V19H25Z"/><path class="za128-10" d="M25,19h1V18h1V17H24v1h1Z"/><path class="za128-2" d="M26,19h1V18H26Z"/><rect class="za128-9" x="18" y="9" width="1" height="1"></rect></svg>