<svg xmlns="http://www.w3.org/2000/svg" viewBox="0 0 29 33"><defs><style>polygon,rect,path{shape-rendering:crispedges;}.ja116-1{fill:#e55b35;}.ja116-2{fill:#000000;}.ja116-3{fill:#c6e5e4;}.ja116-4{fill:#508e91;}.ja116-5{fill:#a56e49;}.ja116-6{fill:#ffffff;}.ja116-7{fill:#893a1f;}.ja116-8{fill:#8e9350;}.ja116-9{fill:#004a77;}</style></defs><path class="ja116-1" d="M0,33H6V27H7V26H8V25h2V24h2V21H11V20H9V18H8V12H9V11h1V10h1V9h7v1h1v1h1v2h1v5H20v2H18v1H17v3h2v1h2v1h1v1h1v6h6V0H0Z"/><path class="ja116-2" d="M23,27H22v6h1V27Z"/><rect class="ja116-2" x="21" y="26" width="1" height="1"/><path class="ja116-3" d="M21,31h1V30H21Z"/><path class="ja116-3" d="M21,28h1V27H21Z"/><path class="ja116-2" d="M21,30V27H20v6h1V30Z"/><path class="ja116-2" d="M20,26h1V25H19v1Z"/><path class="ja116-3" d="M9,27v1H20V27H9Z"/><path class="ja116-3" d="M9,31H20V30H9Z"/><path class="ja116-3" d="M17,25V24H12v1Z"/><path class="ja116-2" d="M18,25h1V24H17v1Z"/><path class="ja116-2" d="M13,23h3v1h1V21H16v1H13V21H12v3h1Z"/><path class="ja116-2" d="M12,24H10v1h2Z"/><path class="ja116-2" d="M10,25H8v1h2Z"/><path class="ja116-2" d="M9,30V27H8v6H9V30Z"/><rect class="ja116-2" x="7" y="26" width="1" height="1"/><path class="ja116-3" d="M8,28V27H7v1Z"/><path class="ja116-3" d="M7,31H8V30H7Z"/><path class="ja116-2" d="M7,30V27H6v6H7V30Z"/><path class="ja116-4" d="M9,31v2H20V31Z"/><path class="ja116-4" d="M9,29v1H20V28H9Z"/><path class="ja116-4" d="M9,27H21V26H19V25H10v1H8v1Z"/><path class="ja116-4" d="M15,23H13v1h3V23Z"/><path class="ja116-4" d="M7,29v1H8V28H7Z"/><path class="ja116-4" d="M7,31v2H8V31Z"/><path class="ja116-4" d="M21,31v2h1V31Z"/><path class="ja116-4" d="M21,29v1h1V28H21Z"/><rect class="ja116-5" x="9" y="15" width="1" height="1"/><path class="ja116-5" d="M13,22h3V21h1V20h1V19h1V18H18V15H17v2H16V15H15V11H14v1H13v2h1v2h1v1H14V16H13V15H11v3H10v1h1v1h1v1h1Zm-1-3V18h5v1H16v1H13V19Z"/><path class="ja116-5" d="M12,12V11H11v2h1Z"/><path class="ja116-5" d="M18,12H16v1h2Z"/><rect class="ja116-5" x="19" y="15" width="1" height="1"/><path class="ja116-2" d="M19,16v2h1V16Z"/><path class="ja116-2" d="M18,19v1h1V19Z"/><rect class="ja116-2" x="17" y="20" width="1" height="1"/><rect class="ja116-2" x="11" y="20" width="1" height="1"/><path class="ja116-2" d="M10,19v1h1V19Z"/><rect class="ja116-2" x="9" y="14" width="1" height="1"/><path class="ja116-2" d="M10,17V16H9v2h1Z"/><rect class="ja116-2" x="14" y="16" width="1" height="1"/><path class="ja116-6" d="M12,15h1V14H12Z"/><rect class="ja116-6" x="16" y="14" width="1" height="1"/><path class="ja116-2" d="M11,14v1h1V14Z"/><rect class="ja116-2" x="17" y="14" width="1" height="1"/><rect class="ja116-7" x="11" y="13" width="1" height="1"/><polygon class="ja116-7" points="18 14 18 13 16 13 16 14 17 14 18 14"/><path class="ja116-8" d="M16,19h1V18H13v1Z"/><rect class="ja116-2" x="13" y="19" width="3" height="1"/><path class="ja116-2" d="M13,18H12v1h1Z"/><path class="ja116-9" d="M9,15V14h1v4h1V11h1v3h1V12h1V11h1v4h1V12h2v6h1V15h1v3h1V13H20V11H19V10H18V9H11v1H10v1H9v1H8v6H9V15Z"/><path class="ja116-9" d="M10,18H9v2h1V18Z"/><path class="ja116-9" d="M13,16h1V14H13v2Z"/><path class="ja116-9" d="M16,16v1h1V15H16Z"/><path class="ja116-9" d="M19,19v1h1V18H19Z"/></svg>