<svg xmlns="http://www.w3.org/2000/svg" viewBox="0 0 29 33"><defs><style>polygon,rect,path{shape-rendering:crispedges;}.gb281-1{fill:#e55b35;}.gb281-2{fill:#000000;}.gb281-3{fill:#333333;}.gb281-4{fill:#333333;}.gb281-5{fill:#e8b795;}.gb281-6{fill:#90a2a3;}.gb281-7{fill:#ffffff;}.gb281-8{fill:#317f03;}.gb281-9{fill:#b23b00;}</style></defs><path class="gb281-1" d="M0,33H8V32H6V31H5V23H4V20H5V19H7v1H8v1H9v2H8v2H9V24h1V23h1V22h1V21H11V20H10V19H9V18H8V12H9V10h1V9h1V8h7V9h1v1h1v5h1v1H20v3H19v1H18v1H17v1h1v1h1v1h1v1h1V23H20V21h1V20h1V19h2v1h1v3H24v8H23v1H21v1h8V0H0Z"/><rect class="gb281-2" x="9" y="24" width="1" height="1"/><path class="gb281-3" d="M12,32V31H11V30H10V29H9v4h4V32Z"/><rect class="gb281-2" x="10" y="23" width="1" height="1"/><path class="gb281-3" d="M10,26v1h2v1H10v1h1v1h1v1h1V26H12V25H11V24H10v1H9v1Z"/><rect class="gb281-2" x="10" y="29" width="1" height="1"/><rect class="gb281-3" x="11" y="23" width="1" height="1"/><rect class="gb281-2" x="11" y="24" width="1" height="1"/><rect class="gb281-2" x="11" y="30" width="1" height="1"/><path class="gb281-2" d="M12,24h1V23h3v1h1V23h1V22H17V21H16v1H13V21H12v1H11v1h1Z"/><rect class="gb281-2" x="12" y="25" width="1" height="1"/><path class="gb281-2" d="M17,32V31H16V26H13v5H12v1h1v1h1V27h1v6h1V32Z"/><path class="gb281-4" d="M15,27H14v6h1V27Z"/><path class="gb281-5" d="M17,25V24H16V23H13v1H12v1h1v1h3V25Z"/><rect class="gb281-2" x="16" y="25" width="1" height="1"/><path class="gb281-3" d="M20,29H19v1H18v1H17v1H16v1h4V29Z"/><rect class="gb281-3" x="17" y="23" width="1" height="1"/><rect class="gb281-2" x="17" y="24" width="1" height="1"/><rect class="gb281-2" x="17" y="30" width="1" height="1"/><rect class="gb281-2" x="18" y="23" width="1" height="1"/><rect class="gb281-2" x="18" y="29" width="1" height="1"/><rect class="gb281-2" x="19" y="24" width="1" height="1"/><path class="gb281-3" d="M18,25H17v1H16v5h1V30h1V29h1V28H17V27h2V26h1V25H19V24H18Z"/><path class="gb281-2" d="M22,32h1V31H22V23H21v2H20v2H17v1h2v1h1v4h1V32Z"/><path class="gb281-3" d="M23,24H22v7h1V24Z"/><path class="gb281-2" d="M23,24v7h1V23H23Z"/><rect class="gb281-6" x="9" y="26" width="1" height="1"/><path class="gb281-6" d="M19,27h1V26H19Z"/><path class="gb281-2" d="M9,29h1V28h2V27H9V25H8V23H7v8H6v1H8v1H9V29Z"/><path class="gb281-3" d="M7,30V24H6v7H7Z"/><path class="gb281-2" d="M6,24V23H5v8H6V24Z"/><rect class="gb281-2" x="20" y="15" width="1" height="1"/><path class="gb281-5" d="M13,22h3V21h1V20h1V19h1V16h1V15H16V13h1V12h2V11H18V10H16v1H14v1H13v1H11v1h2v1H9v1h1v3h1v1h1v1h1Zm1-6h1v1H14Zm-2,3V18h1v1h3v1H13V19Z"/><polygon class="gb281-5" points="18 14 19 14 19 13 17 13 17 14 18 14"/><path class="gb281-2" d="M19,17v2h1V16H19Z"/><rect class="gb281-2" x="18" y="19" width="1" height="1"/><rect class="gb281-2" x="17" y="20" width="1" height="1"/><rect class="gb281-2" x="11" y="20" width="1" height="1"/><rect class="gb281-2" x="10" y="19" width="1" height="1"/><path class="gb281-2" d="M10,16H9v3h1V16Z"/><rect class="gb281-2" x="14" y="16" width="1" height="1"/><path class="gb281-7" d="M13,15V14H12v1Z"/><path class="gb281-7" d="M10,15h1V14H10Z"/><path class="gb281-7" d="M18,14v1h1V14Z"/><path class="gb281-7" d="M16,14v1h1V14Z"/><path class="gb281-2" d="M12,15V14H11v1Z"/><path class="gb281-2" d="M17,14v1h1V14Z"/><path class="gb281-8" d="M17,13H16v1h1Z"/><rect class="gb281-8" x="17" y="12" width="2" height="1"/><rect class="gb281-2" x="13" y="19" width="3" height="1"/><rect class="gb281-2" x="12" y="18" width="1" height="1"/><path class="gb281-2" d="M20,21v2h1V21Z"/><rect class="gb281-2" x="21" y="20" width="1" height="1"/><rect class="gb281-2" x="22" y="19" width="2" height="1"/><path class="gb281-2" d="M24,23h1V20H24v3Z"/><path class="gb281-5" d="M22,24h1V23h1V20H22v1H21v2h1Z"/><path class="gb281-2" d="M9,23V21H8v2Z"/><rect class="gb281-2" x="7" y="20" width="1" height="1"/><rect class="gb281-2" x="5" y="19" width="2" height="1"/><path class="gb281-2" d="M5,20H4v3H5V20Z"/><path class="gb281-5" d="M6,24H7V23H8V21H7V20H5v3H6Z"/><path class="gb281-9" d="M9,15h1V14h1V13h2V12h1V11h2V10h2v1h1v4h1V10H19V9H18V8H11V9H10v1H9v2H8v6H9V15Z"/></svg>