<svg xmlns="http://www.w3.org/2000/svg" viewBox="0 0 29 33"><defs><style>polygon,rect,path{shape-rendering:crispedges;}.ma6-1{fill:#db5a8e;}.ma6-2{fill:#000000;}.ma6-3{fill:#508e91;}.ma6-4{fill:#ffffff;}.ma6-5{fill:#b2622b;}.ma6-6{fill:#8c7850;}.ma6-7{fill:#ffffff;}.ma6-8{fill:#5e362f;}.ma6-9{fill:#5e362f;}.ma6-10{fill:#00686d;}</style></defs><path class="ma6-1" d="M0,33H6V27H7V26H8V25h2V24h2V21H9V20H8V19H9V16H8V15H9V11h1V10h1V9h7v1h1v1h1v4h1v1H20v3h1v1H20v1H17v3h2v1h2v1h1v1h1v6h6V0H0Z"/><path class="ma6-2" d="M23,27H22v6h1V27Z"/><rect class="ma6-2" x="21" y="26" width="1" height="1"/><path class="ma6-3" d="M21,28h1V27H21Z"/><path class="ma6-3" d="M21,32v1h1V32Z"/><path class="ma6-3" d="M21,30v1h1V29H21Z"/><path class="ma6-2" d="M21,31V27H20v6h1V31Z"/><path class="ma6-3" d="M19,26v1H18v3h1v1h1V29H19V28h1V27h1V26H19Z"/><path class="ma6-3" d="M19,32v1h1V32Z"/><path class="ma6-2" d="M20,26h1V25H19v1Z"/><path class="ma6-2" d="M18,30V25h1V24H17v1H16v1h1v7h1V30Z"/><path class="ma6-4" d="M17,26H16v1H13V26H12v7h5V26Z"/><path class="ma6-2" d="M13,26v1h3V26H13Z"/><path class="ma6-2" d="M13,23h3v1h1V21H16v1H13V21H12v3h1Z"/><path class="ma6-5" d="M13,25v1h3V25h1V24H16V23H13v1H12v1Z"/><path class="ma6-2" d="M12,26h1V25H12V24H10v1h1v8h1V26Z"/><path class="ma6-3" d="M9,27v1h1v1H9v2h1V30h1V27H10V26H8v1Z"/><rect class="ma6-3" x="9" y="32" width="1" height="1"/><path class="ma6-2" d="M10,25H8v1h2Z"/><path class="ma6-2" d="M9,31V27H8v6H9V31Z"/><rect class="ma6-2" x="7" y="26" width="1" height="1"/><path class="ma6-3" d="M7,32v1H8V32Z"/><path class="ma6-3" d="M8,28V27H7v1Z"/><path class="ma6-3" d="M7,30v1H8V29H7Z"/><path class="ma6-2" d="M7,31V27H6v6H7V31Z"/><path class="ma6-6" d="M11,30H10v1H9v1h1v1h1V30Z"/><path class="ma6-6" d="M10,27h1V25H10v2Z"/><path class="ma6-6" d="M18,26v1h1V25H18Z"/><path class="ma6-6" d="M7,29H8V28H7Z"/><path class="ma6-6" d="M10,28H9v1h1Z"/><path class="ma6-6" d="M21,29h1V28H21Z"/><path class="ma6-6" d="M19,29h1V28H19Z"/><path class="ma6-6" d="M21,32h1V31H21Z"/><path class="ma6-6" d="M7,32H8V31H7Z"/><path class="ma6-6" d="M20,32V31H19V30H18v3h1V32Z"/><rect class="ma6-2" x="20" y="15" width="1" height="1"/><path class="ma6-2" d="M19,13v2h1V12H19Z"/><path class="ma6-5" d="M18,14h1V13H17v1Z"/><path class="ma6-5" d="M13,22h3V21h1V19h1V18h1V16h1V15H16V13h1V11H16V10H13v1H12v1h1v1H11v1h2v1H9v1h1v2h1v1h1V18h1v1h3v1H13V19H12v2h1Zm2-5H14V16h1Z"/><rect class="ma6-5" x="17" y="10" width="1" height="1"/><path class="ma6-5" d="M10,13h1V11H10v2Z"/><rect class="ma6-5" x="11" y="10" width="1" height="1"/><rect class="ma6-5" x="18" y="11" width="1" height="1"/><path class="ma6-2" d="M17,20v1h1V20Z"/><path class="ma6-2" d="M11,20v1h1V20Z"/><path class="ma6-2" d="M10,14V12H9v3h1Z"/><rect class="ma6-2" x="8" y="15" width="1" height="1"/><rect class="ma6-2" x="14" y="16" width="1" height="1"/><path class="ma6-7" d="M13,15V14H12v1Z"/><path class="ma6-7" d="M10,15h1V14H10Z"/><path class="ma6-7" d="M18,14v1h1V14Z"/><path class="ma6-7" d="M16,14v1h1V14Z"/><path class="ma6-2" d="M12,15V14H11v1Z"/><path class="ma6-2" d="M17,14v1h1V14Z"/><path class="ma6-8" d="M10,14h1V13H10Z"/><path class="ma6-8" d="M11,13h2V12H11Z"/><path class="ma6-8" d="M17,13H16v1h1Z"/><path class="ma6-8" d="M19,12H17v1h2Z"/><path class="ma6-9" d="M19,17v1H18v1H17v1h1v1h2V20h1V19H20V16H19Z"/><path class="ma6-9" d="M12,20V19H11V18H10V16H9v3H8v1H9v1h2V20Z"/><rect class="ma6-2" x="13" y="19" width="3" height="1"/><rect class="ma6-2" x="12" y="18" width="1" height="1"/><path class="ma6-10" d="M20,12V11H19v1Z"/><rect class="ma6-10" x="18" y="10" width="1" height="1"/><path class="ma6-10" d="M12,11h1V10h3v1h1V10h1V9H11v1h1Z"/><path class="ma6-10" d="M18,11H17v1h1Z"/><path class="ma6-10" d="M11,12h1V11H11Z"/><rect class="ma6-10" x="10" y="10" width="1" height="1"/><path class="ma6-10" d="M10,11H9v1h1Z"/></svg>