<svg xmlns="http://www.w3.org/2000/svg" viewBox="0 0 29 33"><defs><style>polygon,rect,path{shape-rendering:crispedges;}.va216-1{fill:#397d98;}.va216-2{fill:#ffed9f;}.va216-3{fill:#000000;}.va216-4{fill:#ce8452;}.va216-5{fill:#d8be00;}.va216-6{fill:#ffffff;}.va216-7{fill:#99582c;}.va216-8{fill:#5a2de2;}.va216-9{fill:#508e91;}</style></defs><path class="va216-1" d="M0,33H6V27H7V26H8V25h2V22h1V21H10V20H9V16H8V14H9V11h1V10h1V9h7v1h1v1h1v3h1v2H20v4H19v1H18v1h1v3h2v1h1v1h1v6h6V0H0Z"/><path class="va216-2" d="M18,24H16v1h1v1h1v2h1v1h1V27H19V25H18Z"/><rect class="va216-2" x="17" y="22" width="1" height="1"/><path class="va216-2" d="M18,30V28H17V27H16V25H15v3h1v1h1v2h2V30Z"/><path class="va216-2" d="M15,30V28H14v3h2V30Z"/><path class="va216-2" d="M21,31v1h1V30H21Z"/><rect class="va216-2" x="21" y="27" width="1" height="1"/><rect class="va216-2" x="16" y="32" width="1" height="1"/><rect class="va216-2" x="19" y="32" width="1" height="1"/><rect class="va216-2" x="10" y="32" width="1" height="1"/><rect class="va216-2" x="13" y="32" width="1" height="1"/><path class="va216-2" d="M7,31v2H8V31Z"/><path class="va216-2" d="M8,29V27H7v2Z"/><path class="va216-2" d="M12,25V24H11v2h1v2h1V25Z"/><rect class="va216-2" x="11" y="22" width="1" height="1"/><path class="va216-2" d="M12,29V28H11V27H10V26H9v2h1v1h1v2h2V30H12Z"/><rect class="va216-2" x="9" y="30" width="1" height="1"/><path class="va216-3" d="M23,27H22v6h1V27Z"/><rect class="va216-3" x="21" y="26" width="1" height="1"/><path class="va216-3" d="M21,31V27H20v4H14V27H13v4H9V27H8v6H9V32H20v1h1V31Z"/><path class="va216-3" d="M20,26h1V25H19v1Z"/><path class="va216-3" d="M18,24v1h1V22H18v2Z"/><rect class="va216-3" x="15" y="24" width="1" height="1"/><path class="va216-3" d="M15,26V25H14v2h1Z"/><rect class="va216-3" x="13" y="24" width="1" height="1"/><path class="va216-4" d="M14,25h1V24h1V23H13v1h1Z"/><path class="va216-3" d="M11,24V22H10v3h1Z"/><path class="va216-3" d="M10,26V25H8v1h2Z"/><rect class="va216-3" x="7" y="26" width="1" height="1"/><path class="va216-3" d="M7,30V27H6v6H7V30Z"/><path class="va216-3" d="M20,16h1V15H20Z"/><path class="va216-3" d="M19,13v1h1V12H19Z"/><rect class="va216-4" x="14" y="15" width="1" height="1"/><path class="va216-4" d="M18,20V18h1V17H16V16H15v1H14V16H13v1H10v1h1v2h1v1h1v1h3V21h1V20Zm-2-1v1H13V19h3V18h1v1Z"/><path class="va216-4" d="M17,15H16v1h3V15H17Z"/><path class="va216-4" d="M13,16V15H10v1h3Z"/><path class="va216-4" d="M10,13h3v1h3V13h3V11H18v1H17V11H16V10H13v1H12v1H11V11H10v2Z"/><rect class="va216-4" x="11" y="10" width="1" height="1"/><rect class="va216-4" x="17" y="10" width="1" height="1"/><path class="va216-3" d="M19,17h1V16H19Z"/><path class="va216-3" d="M12,23v1h1V23h3v1h1V22h1V21H16v1H13V21H11v1h1Z"/><path class="va216-3" d="M10,13V12H9v2h1Z"/><path class="va216-3" d="M10,16H9v1h1Z"/><path class="va216-3" d="M8,15v1H9V15Z"/><rect class="va216-3" x="14" y="16" width="1" height="1"/><path class="va216-5" d="M21,29v1h1V28H21Z"/><path class="va216-5" d="M21,32v1h1V32Z"/><path class="va216-5" d="M19,26v1h2V26H19Z"/><path class="va216-5" d="M19,28H18v2h1v1h1V29H19Z"/><path class="va216-5" d="M17,27v1h1V26H17V25H16v2Z"/><path class="va216-5" d="M18,32H17v1h2V32Z"/><path class="va216-5" d="M16,29V28H15v2h1v1h1V29Z"/><path class="va216-5" d="M15,27H14v1h1Z"/><path class="va216-5" d="M13,25v2h1V25Z"/><path class="va216-5" d="M15,32H14v1h2V32Z"/><path class="va216-5" d="M12,29v1h1V28H12Z"/><rect class="va216-5" x="12" y="24" width="1" height="1"/><path class="va216-5" d="M12,23H11v1h1Z"/><path class="va216-5" d="M18,23H17v1h1Z"/><path class="va216-5" d="M10,27h1v1h1V26H11V25H10v2Z"/><path class="va216-5" d="M12,32H11v1h2V32Z"/><path class="va216-5" d="M10,29V28H9v2h1v1h1V29Z"/><path class="va216-5" d="M9,32v1h1V32Z"/><path class="va216-5" d="M9,27V26H8v1Z"/><path class="va216-5" d="M7,30v1H8V29H7Z"/><path class="va216-6" d="M18,15h1V14H18Z"/><path class="va216-6" d="M12,15h1V14H12Z"/><path class="va216-3" d="M17,15h1V14H16v1Z"/><path class="va216-3" d="M12,14H10v1h2Z"/><path class="va216-7" d="M19,18H18v2H17v1h2V20h1V17H19Z"/><path class="va216-7" d="M12,20H11V18H10V17H9v3h1v1h2Z"/><rect class="va216-3" x="13" y="19" width="3" height="1"/><rect class="va216-3" x="16" y="18" width="1" height="1"/><path class="va216-8" d="M20,12V11H19v1Z"/><rect class="va216-8" x="18" y="10" width="1" height="1"/><path class="va216-8" d="M12,11h1V10h3v1h1V10h1V9H11v1h1Z"/><rect class="va216-8" x="17" y="11" width="1" height="1"/><rect class="va216-8" x="11" y="11" width="1" height="1"/><rect class="va216-8" x="10" y="10" width="1" height="1"/><path class="va216-8" d="M10,11H9v1h1Z"/><path class="va216-9" d="M19,15v1h1V15h1V14H19Z"/><path class="va216-9" d="M16,16v1h3V16H16Z"/><path class="va216-9" d="M13,14V13H10v1h3Z"/><path class="va216-9" d="M19,14V13H16v1h3Z"/><path class="va216-9" d="M13,16h1V15h1v1h1V14H13v2Z"/><path class="va216-9" d="M13,17V16H10v1h3Z"/><path class="va216-9" d="M10,15V14H8v1H9v1h1Z"/></svg>