<svg xmlns="http://www.w3.org/2000/svg" viewBox="0 0 29 33"><defs><style>polygon,rect,path{shape-rendering:crispedges;}.fa108-1{fill:#397d98;}.fa108-2{fill:#000000;}.fa108-3{fill:#508e91;}.fa108-4{fill:#c18d59;}.fa108-5{fill:#ffffff;}.fa108-6{fill:#fad000;}.fa108-7{fill:#00e2b7;}.fa108-8{fill:#c9a717;}</style></defs><path class="fa108-1" d="M0,33H6V27H7V26H8V25h2V23h1V22h1V21H10v1H9V21H8V20H9V17H8V13H4V12H6V11H8V10h2V9h1V8h1V7h1V6h1V5h1V6h1V7h1V8h1V9h1v1h2v1h2v1h2v1H21v5H20v2h1v1H20v1H19V21H17v1h1v1h1v2h2v1h1v1h1v6h6V0H0Z"/><path class="fa108-2" d="M23,27H22v3H21V27H20v6h1V31h1v2h1V27Z"/><rect class="fa108-2" x="21" y="26" width="1" height="1"/><path class="fa108-3" d="M21,28v2h1V27H21Z"/><path class="fa108-4" d="M21,31v2h1V31Z"/><path class="fa108-2" d="M20,26h1V25H19v1Z"/><path class="fa108-3" d="M20,27h1V26H19V25H18v1H17v1H16v1H13V27H12V26H11V25H10v1H8v1H9v6H20V27Z"/><path class="fa108-4" d="M16,25V23H13v2h3Z"/><path class="fa108-2" d="M10,25H8v1h2Z"/><path class="fa108-2" d="M9,27H8v3H7V27H6v6H7V31H8v2H9V27Z"/><rect class="fa108-2" x="7" y="26" width="1" height="1"/><path class="fa108-3" d="M7,30H8V27H7v3Z"/><path class="fa108-4" d="M7,31v2H8V31Z"/><path class="fa108-4" d="M13,22h3V21h1V20h1V19h1V16h1V15H16V14H13v1H10v4h1v1h1v1h1Zm1-6h1v1H14Zm-2,3V18h1v1h3v1H13V19Z"/><path class="fa108-2" d="M19,16v3h1V16Z"/><rect class="fa108-2" x="18" y="19" width="1" height="1"/><path class="fa108-2" d="M17,20v1h1V20Z"/><path class="fa108-2" d="M11,20v1h1V20Z"/><rect class="fa108-2" x="10" y="19" width="1" height="1"/><path class="fa108-2" d="M10,18H9v1h1Z"/><rect class="fa108-2" x="14" y="16" width="1" height="1"/><path class="fa108-5" d="M12,15h1V14H12Z"/><path class="fa108-5" d="M10,14v1h1V14Z"/><path class="fa108-5" d="M18,14v1h1V14Z"/><path class="fa108-5" d="M16,14v1h1V14Z"/><path class="fa108-2" d="M11,14v1h1V14Z"/><path class="fa108-2" d="M17,14v1h1V14Z"/><path class="fa108-2" d="M18,25h1V23H18v2Z"/><rect class="fa108-2" x="17" y="25" width="1" height="1"/><path class="fa108-6" d="M17,24v1h1V24Z"/><path class="fa108-5" d="M17,24h1V23H17Z"/><rect class="fa108-2" x="16" y="26" width="1" height="1"/><rect class="fa108-5" x="16" y="25" width="1" height="1"/><rect class="fa108-6" x="15" y="26" width="1" height="1"/><path class="fa108-2" d="M14,27H13v1h3V27H14Z"/><path class="fa108-5" d="M14,27h1V26H14Z"/><rect class="fa108-6" x="13" y="26" width="1" height="1"/><path class="fa108-2" d="M14,26h2V25H13v1Z"/><rect class="fa108-2" x="12" y="26" width="1" height="1"/><rect class="fa108-5" x="12" y="25" width="1" height="1"/><path class="fa108-2" d="M12,24v1h1V23h3v2h1V23h1V22H17V21H16v1H13V21H12v1H11v1h1Z"/><rect class="fa108-2" x="11" y="25" width="1" height="1"/><rect class="fa108-6" x="11" y="24" width="1" height="1"/><rect class="fa108-5" x="11" y="23" width="1" height="1"/><path class="fa108-2" d="M11,24V23H10v2h1Z"/><rect class="fa108-2" x="13" y="19" width="3" height="1"/><rect class="fa108-2" x="12" y="18" width="1" height="1"/><path class="fa108-7" d="M19,20H18v1h1v1h1V21h1V20H20V19H19Z"/><path class="fa108-7" d="M10,20V19H9v1H8v1H9v1h1V21h1V20Z"/><path class="fa108-7" d="M19,15h1v3h1V14H19Z"/><path class="fa108-7" d="M10,17V14H8v3H9v1h1Z"/><path class="fa108-8" d="M11,14H21V13h4V12H23V11H21V10H19V9H18V8H17V7H16V6H15V5H14V6H13V7H12V8H11V9H10v1H8v1H6v1H4v1H8v1h3Z"/></svg>