<svg xmlns="http://www.w3.org/2000/svg" viewBox="0 0 29 33"><defs><style>polygon,rect,path{shape-rendering:crispedges;}.gb125-1{fill:#db5a8e;}.gb125-2{fill:#000000;}.gb125-3{fill:#594589;}.gb125-4{fill:#333333;}.gb125-5{fill:#ce8452;}.gb125-6{fill:#90a2a3;}.gb125-7{fill:#ffffff;}.gb125-8{fill:#5e362f;}.gb125-9{fill:#00e2b7;}</style></defs><path class="gb125-1" d="M0,33H6V27H7V26H8V25H9V24h1V23h1V22h1V21H11V20H10V19H9V16H8V15H9V10h1V9h1V8h7V9h1v1h1v2h1v6H20v1H19v1H18v1H17v1h1v1h1v1h1v1h1v1h1v1h1v6h6V0H0Z"/><path class="gb125-2" d="M23,27H22v6h1V27Z"/><path class="gb125-3" d="M22,27H21v6h1V27Z"/><path class="gb125-2" d="M21,27h1V26H21V25H20v2H17v1h2v1h1v4h1V27Z"/><rect class="gb125-2" x="19" y="24" width="1" height="1"/><path class="gb125-3" d="M20,29H19v1H18v1H17v1H16v1h4V29Z"/><rect class="gb125-2" x="18" y="23" width="1" height="1"/><path class="gb125-3" d="M18,25H17v1H16v5h1V30h1V29h1V28H17V27h2V26h1V25H19V24H18Z"/><rect class="gb125-3" x="17" y="23" width="1" height="1"/><rect class="gb125-2" x="17" y="24" width="1" height="1"/><rect class="gb125-2" x="18" y="29" width="1" height="1"/><rect class="gb125-2" x="16" y="25" width="1" height="1"/><path class="gb125-4" d="M15,27H14v6h1V27Z"/><path class="gb125-2" d="M12,24h1V23h3v1h1V23h1V22H17V21H16v1H13V21H12v1H11v1h1Z"/><path class="gb125-5" d="M17,25V24H16V23H13v1H12v1h1v1h3V25Z"/><rect class="gb125-2" x="12" y="25" width="1" height="1"/><path class="gb125-3" d="M12,32V31H11V30H10V29H9v4h4V32Z"/><rect class="gb125-3" x="11" y="23" width="1" height="1"/><rect class="gb125-2" x="11" y="24" width="1" height="1"/><rect class="gb125-2" x="11" y="30" width="1" height="1"/><rect class="gb125-2" x="10" y="23" width="1" height="1"/><rect class="gb125-2" x="9" y="24" width="1" height="1"/><path class="gb125-3" d="M10,26v1h2v1H10v1h1v1h1v1h1V26H12V25H11V24H10v1H9v1Z"/><path class="gb125-2" d="M9,29h1V28h2V27H9V25H8v1H7v1H8v6H9V29Z"/><path class="gb125-3" d="M8,27H7v6H8V27Z"/><path class="gb125-2" d="M7,27H6v6H7V27Z"/><rect class="gb125-2" x="10" y="29" width="1" height="1"/><rect class="gb125-2" x="17" y="30" width="1" height="1"/><path class="gb125-2" d="M17,32V31H16V26H13v5H12v1h1v1h1V27h1v6h1V32Z"/><path class="gb125-6" d="M9,26v1h1V26Z"/><path class="gb125-6" d="M19,27h1V26H19Z"/><path class="gb125-5" d="M13,22h3V21h1V20h1V19h1V16h1V15H16V12H15V11H13V10H11v1H10v1h3v1H10v1h3v1H9v1h1v3h1v1h1v1h1Zm1-6h1v1H14Zm-1,3h3V18h1v1H16v1H13Z"/><path class="gb125-2" d="M19,16v3h1V16Z"/><rect class="gb125-2" x="18" y="19" width="1" height="1"/><rect class="gb125-2" x="17" y="20" width="1" height="1"/><rect class="gb125-2" x="11" y="20" width="1" height="1"/><rect class="gb125-2" x="10" y="19" width="1" height="1"/><path class="gb125-2" d="M10,16H9v3h1V16Z"/><rect class="gb125-2" x="8" y="15" width="1" height="1"/><rect class="gb125-2" x="14" y="16" width="1" height="1"/><path class="gb125-7" d="M18,14v1h1V14Z"/><path class="gb125-7" d="M13,15V14H12v1Z"/><path class="gb125-2" d="M17,14H16v1h2V14Z"/><path class="gb125-2" d="M11,15h1V14H10v1Z"/><rect class="gb125-8" x="10" y="12" width="3" height="1"/><path class="gb125-8" d="M18,14V13H16v1h2Z"/><rect class="gb125-2" x="13" y="19" width="3" height="1"/><rect class="gb125-2" x="16" y="18" width="1" height="1"/><path class="gb125-9" d="M10,14V11h1V10h2v1h2v1h1v1h2v1h1v1h1v3h1V12H20V10H19V9H18V8H11V9H10v1H9v5h1Z"/></svg>