<svg xmlns="http://www.w3.org/2000/svg" viewBox="0 0 29 33"><defs><style>polygon,rect,path{shape-rendering:crispedges;}.sa112-1{fill:#397d98;}.sa112-2{fill:#000000;}.sa112-3{fill:#317f03;}.sa112-4{fill:#e8b795;}.sa112-5{fill:#f9e100;}.sa112-6{fill:#ffffff;}.sa112-7{fill:#66334f;}.sa112-8{fill:#cc2f76;}.sa112-9{fill:#66334f;}.sa112-10{fill:#c8a715;}.sa112-11{fill:#e70059;}.sa112-12{fill:#455054;}.sa112-13{fill:#00af68;}.sa112-14{fill:#ffce00;}.sa112-15{fill:#002b4f;}</style></defs><path class="sa112-1" d="M8,32H6V31H5V22H6V21H7V20H5v1H2V17H5V16H7V11H8V10H9V9h1V8h1V7h7V8h1V9h1v1h1v1h1v9H21v1H20v1H19v3h2v1h1v1h1v6h6V0H0V33H8Z"/><path class="sa112-1" d="M10,23V22H9v2H8v1h2V23Z"/><rect class="sa112-1" x="8" y="21" width="1" height="1"/><path class="sa112-2" d="M6,24V22H5v9H6V24Z"/><path class="sa112-2" d="M23,27H22v6h1V27Z"/><path class="sa112-3" d="M22,27H21v6h1V27Z"/><rect class="sa112-2" x="21" y="26" width="1" height="1"/><path class="sa112-2" d="M21,27H20v6h1V27Z"/><path class="sa112-3" d="M20,27h1V26H19V25H18V24H17v4h2v1H17v2h1V30h1v2H16V25H13v3h2v4H12V24H11v1H10v1H8v1H9v6H20V27Zm-9,2v3H10V28h1Z"/><path class="sa112-2" d="M20,26h1V25H19v1Z"/><path class="sa112-2" d="M18,25h1V24H18Z"/><rect class="sa112-2" x="17" y="23" width="1" height="1"/><path class="sa112-2" d="M15,24H13v1h3V24Z"/><path class="sa112-4" d="M14,24h2V23H13v1Z"/><rect class="sa112-2" x="11" y="23" width="1" height="1"/><path class="sa112-2" d="M10,25h1V24H10Z"/><path class="sa112-2" d="M9,27H8V26h2V25H8V24H7v7H6v1H8v1H9V27Z"/><path class="sa112-3" d="M7,30V24H6v7H7Z"/><path class="sa112-3" d="M14,31V29H13v2Z"/><path class="sa112-5" d="M14,29v2H13V30H12v2h3V28H13v1Z"/><path class="sa112-5" d="M10,29v3h1V28H10Z"/><path class="sa112-5" d="M18,29h1V28H17v1Z"/><path class="sa112-5" d="M16,31v1h3V30H18v1H17V30H16Z"/><path class="sa112-2" d="M12,26v4h1V25H12Z"/><path class="sa112-2" d="M16,26v4h1V25H16Z"/><path class="sa112-4" d="M13,13v2H10v3h1v1h1V18h5v1h1V18h1V15H18v1H17v1H16V14H15V12H14V11H12v1H10v1Zm1,3h1v1H14Z"/><path class="sa112-4" d="M14,20H13v1h1v1h1V21h1V20H14Z"/><rect class="sa112-2" x="14" y="16" width="1" height="1"/><path class="sa112-6" d="M12,15h1V14H12Z"/><path class="sa112-6" d="M11,14H10v1h1Z"/><path class="sa112-2" d="M11,14v1h1V14Z"/><path class="sa112-7" d="M12,14h1V13H10v1h2Z"/><path class="sa112-8" d="M14,11v1h1v2h1v3h1V16h1V15h1V12H17V11H14Z"/><rect class="sa112-3" x="19" y="20" width="1" height="1"/><rect class="sa112-3" x="9" y="20" width="1" height="1"/><path class="sa112-3" d="M8,15v5H9V12h1V11h2V10h5v1h2v1h1v8h1V11H20V10H19V9H18V8H11V9H10v1H9v1H8v4Z"/><rect class="sa112-3" x="17" y="22" width="1" height="1"/><rect class="sa112-3" x="11" y="22" width="1" height="1"/><rect class="sa112-2" x="10" y="8" width="1" height="1"/><rect class="sa112-2" x="9" y="9" width="1" height="1"/><rect class="sa112-2" x="8" y="10" width="1" height="1"/><path class="sa112-2" d="M8,15V11H7v5H8Z"/><rect class="sa112-2" x="8" y="20" width="1" height="1"/><rect class="sa112-2" x="9" y="21" width="1" height="1"/><rect class="sa112-2" x="19" y="21" width="1" height="1"/><rect class="sa112-2" x="20" y="20" width="1" height="1"/><path class="sa112-2" d="M21,20h1V11H21v9Z"/><rect class="sa112-2" x="20" y="10" width="1" height="1"/><rect class="sa112-2" x="19" y="9" width="1" height="1"/><rect class="sa112-2" x="18" y="8" width="1" height="1"/><path class="sa112-2" d="M18,8V7H11V8h7Z"/><path class="sa112-2" d="M12,11H10v1h2Z"/><path class="sa112-2" d="M10,16V12H9v5h1Z"/><path class="sa112-2" d="M19,15v2h1V12H19v3Z"/><path class="sa112-2" d="M18,12h1V11H17v1Z"/><path class="sa112-2" d="M15,11h2V10H12v1h3Z"/><path class="sa112-9" d="M19,20h1V17H19v1H18v1H16v2H15v1H14V21H13V19H11V18H10V17H9v3h1v2h2v1h5V22h2V20Z"/><path class="sa112-10" d="M18,23h1V22H18Z"/><path class="sa112-9" d="M18,24h1V23H18Z"/><path class="sa112-10" d="M16,23v1h1V23Z"/><path class="sa112-9" d="M16,25h1V24H16Z"/><path class="sa112-10" d="M13,23H12v1h1Z"/><path class="sa112-9" d="M12,24v1h1V24Z"/><path class="sa112-10" d="M11,23V22H10v1Z"/><path class="sa112-9" d="M10,23v1h1V23Z"/><path class="sa112-2" d="M12,18v1h1V18Z"/><path class="sa112-2" d="M16,18v1h1V18Z"/><path class="sa112-2" d="M15,20h1V19H15Z"/><path class="sa112-2" d="M15,19V18H14v1Z"/><path class="sa112-2" d="M14,19H13v1h1Z"/><path class="sa112-6" d="M14,18H13v1h1Z"/><path class="sa112-6" d="M15,18v1h1V18Z"/><path class="sa112-11" d="M14,20h1V19H14Z"/><path class="sa112-4" d="M7,24H8V22H6v2Z"/><path class="sa112-12" d="M8,22V20H7v2Z"/><path class="sa112-13" d="M3,20V18H4V17H2v4H4V20Z"/><path class="sa112-13" d="M8,19V16H6v1H7v2H6v1H8Z"/><path class="sa112-2" d="M7,21H6v1H7Z"/><path class="sa112-2" d="M9,22H8v2H9Z"/><path class="sa112-14" d="M3,19v1H4V18H3Z"/><path class="sa112-14" d="M5,18V17H4v1Z"/><path class="sa112-14" d="M6,16H5v1H6Z"/><path class="sa112-15" d="M6,19V17H5v1H4v2H5V19Z"/><path class="sa112-14" d="M4,21H5V20H4Z"/><path class="sa112-14" d="M5,19v1H6V19Z"/><path class="sa112-14" d="M7,19V17H6v2Z"/></svg>