<svg xmlns="http://www.w3.org/2000/svg" viewBox="0 0 29 33"><defs><style>polygon,rect,path{shape-rendering:crispedges;}.ab38-1{fill:#6b4f99;}.ab38-2{fill:#000000;}.ab38-3{fill:#68aaad;}.ab38-4{fill:#e8b795;}.ab38-5{fill:#ffffff;}.ab38-6{fill:#ff6aa5;}.ab38-7{fill:#68aaad;}.ab38-8{fill:#381616;}.ab38-9{fill:#fad000;}</style></defs><rect class="ab38-1" x="9" y="24" width="1" height="1"/><path class="ab38-1" d="M11,23h1V21H10v3h1Z"/><path class="ab38-1" d="M0,33H6V26H5V25H6V24H5V21H6V20H9V17H8V12H9V10h1V9h1V8h7V9h1v1h1v2h1v6H20v2h1v1H20v1H19V21H17v2h1v1h1v1h2v1h1v1h1v6h6V0H0Z"/><path class="ab38-2" d="M23,27H22v6h1V27Z"/><path class="ab38-3" d="M21,28v2h1V27H21Z"/><path class="ab38-3" d="M21,31v2h1V31Z"/><rect class="ab38-2" x="21" y="26" width="1" height="1"/><path class="ab38-2" d="M21,30V27H20v6h1V30Z"/><path class="ab38-3" d="M20,32V26H19V25H18v1H17v1H16V25H15v2H14V25H13v2H12V26H11V25H10v1H9v6h1v1h4V32h1v1h4V32Zm-9-3H10V28h1Zm2,2H12V30h1Zm2,0H14V30h1Zm0-2H14V28h1Zm2,2H16V30h1Zm1-2V28h1v1Z"/><path class="ab38-2" d="M20,26h1V25H19v1Z"/><rect class="ab38-3" x="16" y="24" width="1" height="1"/><rect class="ab38-2" x="15" y="24" width="1" height="1"/><rect class="ab38-2" x="14" y="32" width="1" height="1"/><rect class="ab38-2" x="14" y="30" width="1" height="1"/><rect class="ab38-2" x="14" y="28" width="1" height="1"/><path class="ab38-2" d="M14,26v1h1V25H14Z"/><rect class="ab38-2" x="13" y="24" width="1" height="1"/><path class="ab38-4" d="M16,24V23H13v1h1v1h1V24Z"/><rect class="ab38-3" x="12" y="24" width="1" height="1"/><path class="ab38-2" d="M9,31V26H8v7H9V31Z"/><path class="ab38-3" d="M7,29v2H8V28H7Z"/><path class="ab38-3" d="M7,32v1H8V32Z"/><path class="ab38-4" d="M7,27H8V26H9V25H6v1H7Z"/><path class="ab38-2" d="M7,31V26H6v7H7V31Z"/><rect class="ab38-5" x="18" y="28" width="1" height="1"/><rect class="ab38-5" x="16" y="30" width="1" height="1"/><path class="ab38-5" d="M16,27h1V26H16Z"/><rect class="ab38-5" x="12" y="30" width="1" height="1"/><rect class="ab38-5" x="10" y="28" width="1" height="1"/><path class="ab38-5" d="M7,28H8V27H7Z"/><path class="ab38-5" d="M12,27h1V26H12Z"/><path class="ab38-5" d="M20,27h1V26H20Z"/><path class="ab38-5" d="M9,32v1h1V32Z"/><path class="ab38-5" d="M19,32v1h1V32Z"/><path class="ab38-5" d="M21,31h1V30H21Z"/><path class="ab38-5" d="M7,32H8V31H7Z"/><rect class="ab38-4" x="19" y="15" width="1" height="1"/><path class="ab38-4" d="M18,20V19h1V16H16V15H13v1H10v3h1v1h1v1h1v1h3V21h1V20Zm-4-4h1v1H14Zm2,3v1H13V19h3V18h1v1Z"/><path class="ab38-4" d="M14,14h1V13h3V12H17V11H16V10H15v1H14v1H13v1h1Z"/><path class="ab38-2" d="M19,16v3h1V16Z"/><rect class="ab38-2" x="18" y="19" width="1" height="1"/><path class="ab38-2" d="M17,20v1h1V20Z"/><path class="ab38-2" d="M16,22H13V21H12v2H11v1H10v1h1v1h2V25H12V24h1V23h3v1h1v1H16v1h2V25h1V24H18V23H17V21H16Z"/><path class="ab38-2" d="M12,20H11v1h1Z"/><rect class="ab38-2" x="10" y="19" width="1" height="1"/><path class="ab38-2" d="M10,18H9v1h1Z"/><rect class="ab38-2" x="14" y="16" width="1" height="1"/><rect class="ab38-2" x="13" y="19" width="3" height="1"/><rect class="ab38-2" x="16" y="18" width="1" height="1"/><path class="ab38-6" d="M19,20H18v1h1v1h1V21h1V20H20V19H19Z"/><path class="ab38-6" d="M10,21h1V20H10V19H9v2Z"/><path class="ab38-6" d="M10,17V15H9V14h1V13h3V12h1V11h1V10h1v1h1v1h1v1h1v1h1v4h1V12H20V10H19V9H18V8H11V9H10v1H9v2H8v5H9v1h1Z"/><path class="ab38-7" d="M13,16V15h1V14H10v2h3Z"/><path class="ab38-7" d="M15,14v1h1v1h3V14H15Z"/><path class="ab38-2" d="M15,13v1h4V13H15Z"/><path class="ab38-2" d="M14,14V13H10v1h4Z"/><path class="ab38-2" d="M20,15V14H19v1Z"/><path class="ab38-2" d="M9,14v1h1V14Z"/><path class="ab38-2" d="M14,14v1h1V14Z"/><rect class="ab38-2" x="5" y="25" width="1" height="1"/><rect class="ab38-2" x="9" y="25" width="1" height="1"/><path class="ab38-8" d="M6,21H5v1H6Z"/><path class="ab38-9" d="M9,24h1V21H9V20H6v2H5v1H8V22H7V21H8v1H9v1H8v1H6v1H9Z"/><rect class="ab38-8" x="7" y="21" width="1" height="1"/><path class="ab38-8" d="M8,23H5v1H8Z"/><rect class="ab38-8" x="8" y="22" width="1" height="1"/></svg>