<svg xmlns="http://www.w3.org/2000/svg" viewBox="0 0 29 33"><defs><style>polygon,rect,path{shape-rendering:crispedges;}.ha227-1{fill:#d4a122;}.ha227-2{fill:#000000;}.ha227-3{fill:#ffffff;}.ha227-4{fill:#6d3e35;}.ha227-5{fill:#cbed03;}.ha227-6{fill:#ffffff;}.ha227-7{fill:#4922aa;}.ha227-8{fill:#4922aa;}.ha227-9{fill:#4fdb7d;}.ha227-10{fill:#841f00;}.ha227-11{fill:#b23b00;}.ha227-12{fill:#ccc;}</style></defs><path class="ha227-1" d="M0,33H6V27H7V26H8V25h2V24h2V21H10V20H9V17H7V13H8V10H9V9h1V8h1V7h7V8h1V9h1v1h1v3h1v4H20v3H19v1H17v3h2v1h2v1h1v1h1v6h6V0H0Z"/><path class="ha227-2" d="M23,27H22v6h1V27Z"/><rect class="ha227-2" x="21" y="26" width="1" height="1"/><path class="ha227-3" d="M22,27H21v6h1V27Z"/><path class="ha227-2" d="M21,27H20v6h1V27Z"/><path class="ha227-2" d="M20,26h1V25H19v1Z"/><path class="ha227-3" d="M16,32H12v1h5V32Z"/><path class="ha227-3" d="M20,27h1V26H19V25H17v1H16v1H13V26H12V25H10v1H9v7h1V30h1V29h1V28h5v1h1v1h1v3h1V27Z"/><rect class="ha227-3" x="12" y="30" width="1" height="1"/><rect class="ha227-3" x="16" y="30" width="1" height="1"/><path class="ha227-2" d="M18,25h1V24H17v1Z"/><rect class="ha227-2" x="16" y="25" width="1" height="1"/><path class="ha227-2" d="M13,26v1h3V26H13Z"/><path class="ha227-2" d="M13,23h3v1h1V21H16v1H13V21H12v3h1Z"/><path class="ha227-4" d="M13,25v1h3V25h1V24H16V23H13v1H12v1Z"/><rect class="ha227-2" x="12" y="25" width="1" height="1"/><path class="ha227-2" d="M12,24H10v1h2Z"/><path class="ha227-2" d="M9,26h1V25H8v1H7v1H8v6H9V26Z"/><path class="ha227-3" d="M8,27H7v6H8V27Z"/><path class="ha227-2" d="M7,27H6v6H7V27Z"/><path class="ha227-5" d="M19,30H18V29H17V28H12v1H11v1H10v3h2V32h5v1h2V30Zm-6,1H12V30h1Zm4,0H16V30h1Z"/><path class="ha227-4" d="M18,14h1V13H17v1Z"/><path class="ha227-4" d="M13,22h3V21h1V20h1V18h1V15H16V13H11v1h2v1H10v3h1v2h1v1h1Zm1-6h1v1H14Zm-2,3V18h1v1h3v1H13V19Z"/><path class="ha227-2" d="M19,16v1h1V16Z"/><path class="ha227-2" d="M10,16H9v1h1Z"/><rect class="ha227-2" x="14" y="16" width="1" height="1"/><path class="ha227-6" d="M13,15V14H12v1Z"/><path class="ha227-6" d="M10,15h1V14H10Z"/><path class="ha227-6" d="M18,14v1h1V14Z"/><path class="ha227-6" d="M16,14v1h1V14Z"/><path class="ha227-2" d="M12,15V14H11v1Z"/><path class="ha227-2" d="M17,14v1h1V14Z"/><path class="ha227-7" d="M17,13H16v1h1Z"/><path class="ha227-8" d="M19,18H18v2H17v1h2V20h1V17H19Z"/><path class="ha227-8" d="M11,20V18H10V17H9v3h1v1h2V20Z"/><rect class="ha227-2" x="13" y="19" width="3" height="1"/><rect class="ha227-2" x="12" y="18" width="1" height="1"/><rect class="ha227-9" x="10" y="13" width="1" height="1"/><path class="ha227-10" d="M20,12V11H19v2h1Z"/><path class="ha227-11" d="M10,11v2h1V11h1v2h1V11h1v2h1V11h1v2h1V11h1v2h1V11h1V10H19V9H18V8H11V9H10v1H9v1Z"/><path class="ha227-10" d="M18,12V11H17v2h1Z"/><path class="ha227-10" d="M15,11v2h1V11Z"/><path class="ha227-10" d="M13,11v2h1V11Z"/><path class="ha227-10" d="M11,11v2h1V11Z"/><path class="ha227-10" d="M10,12V11H9v2h1Z"/><path class="ha227-6" d="M9,15V10H8v3H7v3H8v1H9V15Z"/><rect class="ha227-6" x="9" y="9" width="1" height="1"/><rect class="ha227-6" x="10" y="8" width="1" height="1"/><path class="ha227-6" d="M18,8V7H11V8h7Z"/><rect class="ha227-6" x="18" y="8" width="1" height="1"/><rect class="ha227-6" x="19" y="9" width="1" height="1"/><path class="ha227-12" d="M10,13H9v3h1V13Z"/><path class="ha227-6" d="M20,12v5h1V16h1V13H21V10H20v2Z"/><path class="ha227-12" d="M20,15V13H19v3h1Z"/><path class="ha227-12" d="M7,16v1H8V16Z"/><path class="ha227-12" d="M21,17h1V16H21Z"/></svg>