<svg xmlns="http://www.w3.org/2000/svg" viewBox="0 0 29 33"><defs><style>polygon,rect,path{shape-rendering:crispedges;}.gb147-1{fill:#397d98;}.gb147-2{fill:#000000;}.gb147-3{fill:#685432;}.gb147-4{fill:#a89969;}.gb147-5{fill:#b2622b;}.gb147-6{fill:#90a2a3;}.gb147-7{fill:#ffffff;}.gb147-8{fill:#6c9302;}.gb147-9{fill:#cc3232;}</style></defs><path class="gb147-1" d="M0,33H6V27H7V26H8V25H9V24h1V22H9V16H8V15H9V10h1V9h1V8h7V9h1v1h1v5h1v1H20v9h1v1h1v1h1v6h6V0H0Z"/><path class="gb147-2" d="M23,27H22v6h1V27Z"/><path class="gb147-3" d="M22,27H21v6h1V27Z"/><path class="gb147-2" d="M21,27h1V26H21V25H20v2H17v1h2v1h1v4h1V27Z"/><path class="gb147-2" d="M19,25h1V24H19Z"/><path class="gb147-3" d="M20,29H19v1H18v1H17v1H16v1h4V29Z"/><path class="gb147-3" d="M19,26h1V25H19Z"/><path class="gb147-3" d="M17,25v1H16v5h1V30h1V29h1V28H17V27h1V25Z"/><rect class="gb147-2" x="18" y="29" width="1" height="1"/><rect class="gb147-2" x="16" y="25" width="1" height="1"/><path class="gb147-4" d="M15,27H14v6h1V27Z"/><path class="gb147-2" d="M13,23h3v1h1V21H16v1H13V21H12v3h1Z"/><path class="gb147-5" d="M17,25V24H16V23H13v1H12v1h1v1h3V25Z"/><rect class="gb147-2" x="12" y="25" width="1" height="1"/><path class="gb147-3" d="M12,32V31H11V30H10V29H9v4h4V32Z"/><rect class="gb147-2" x="11" y="30" width="1" height="1"/><rect class="gb147-2" x="9" y="24" width="1" height="1"/><path class="gb147-3" d="M10,26v1h2v1H10v1h1v1h1v1h1V26H11V25H9v1Z"/><path class="gb147-2" d="M9,29h1V28h2V27H9V25H8v1H7v1H8v6H9V29Z"/><path class="gb147-3" d="M8,27H7v6H8V27Z"/><path class="gb147-2" d="M7,27H6v6H7V27Z"/><rect class="gb147-2" x="10" y="29" width="1" height="1"/><rect class="gb147-2" x="17" y="30" width="1" height="1"/><path class="gb147-2" d="M17,32V31H16V26H13v5H12v1h1v1h1V27h1v6h1V32Z"/><path class="gb147-6" d="M9,26v1h1V26Z"/><path class="gb147-6" d="M19,27h1V26H19Z"/><rect class="gb147-2" x="20" y="15" width="1" height="1"/><path class="gb147-5" d="M18,15H16V14h2V13H16V12h2V11H17V10H14v1H12v1h1v1H11v1h2v1H10v4h1v1h1v1h1v1h3V21h1V20h1V19h1V16h1V15H18Zm-4,1h1v1H14Zm2,4H13V19H12V18h1v1h3Z"/><path class="gb147-2" d="M19,17v2h1V16H19Z"/><rect class="gb147-2" x="18" y="19" width="1" height="1"/><rect class="gb147-2" x="17" y="20" width="1" height="1"/><rect class="gb147-2" x="11" y="20" width="1" height="1"/><rect class="gb147-2" x="10" y="19" width="1" height="1"/><path class="gb147-2" d="M10,18V16H9v3h1Z"/><rect class="gb147-2" x="8" y="15" width="1" height="1"/><rect class="gb147-2" x="14" y="16" width="1" height="1"/><path class="gb147-7" d="M13,15V14H12v1Z"/><path class="gb147-7" d="M11,14H10v1h1Z"/><path class="gb147-7" d="M18,15h1V14H18Z"/><path class="gb147-7" d="M16,14v1h1V14Z"/><path class="gb147-2" d="M12,15V14H11v1Z"/><path class="gb147-2" d="M17,14v1h1V14Z"/><rect class="gb147-8" x="18" y="13" width="1" height="1"/><rect class="gb147-8" x="16" y="12" width="2" height="1"/><path class="gb147-8" d="M13,12H11v1h2Z"/><rect class="gb147-2" x="13" y="19" width="3" height="1"/><rect class="gb147-2" x="12" y="18" width="1" height="1"/><path class="gb147-9" d="M19,20H18v1H17v4h1v2h1V24h1V19H19Z"/><path class="gb147-9" d="M10,15V14h1V12h1V11h2V10h3v1h1v2h1v2h1V10H19V9H18V8H11V9H10v1H9v6h1Z"/><path class="gb147-9" d="M11,25v1h1V21H11V20H10V19H9v3h1v3Z"/></svg>