<svg xmlns="http://www.w3.org/2000/svg" viewBox="0 0 29 33"><defs><style>polygon,rect,path{shape-rendering:crispedges;}.da261-1{fill:#29834f;}.da261-2{fill:#000000;}.da261-3{fill:#ffffff;}.da261-4{fill:#c18d59;}.da261-5{fill:#ffce00;}.da261-6{fill:#ffffff;}.da261-7{fill:#893a1f;}.da261-8{fill:#508e91;}.da261-9{fill:#841f00;}.da261-10{fill:#b23b00;}</style></defs><path class="da261-1" d="M0,33H6V27H7V26H8V25h2V24h2V22H11V21H10V20H9V16H8V14H9V10h1V9h1V8h7V9h1v1h1v4h1v2H20v4H19v1H18v1H17v2h2v1h2v1h1v1h1v6h6V0H0Z"/><path class="da261-2" d="M23,27H22v3H21V27H20v6h1V31h1v2h1V27Z"/><rect class="da261-2" x="21" y="26" width="1" height="1"/><path class="da261-3" d="M21,28v2h1V27H21Z"/><path class="da261-4" d="M21,31v2h1V31Z"/><path class="da261-2" d="M20,26h1V25H19v1Z"/><rect class="da261-3" x="18" y="29" width="1" height="1"/><rect class="da261-3" x="10" y="29" width="1" height="1"/><path class="da261-3" d="M15,29H14v2h1V29Z"/><path class="da261-3" d="M19,32V31H18v1H17V29h1V28h1v1h1V27h1V26H19V25H17v1H16v1H13V26H12V25H10v1H8v1H9v2h1V28h1v1h1v3H11V31H10v1H9v1H20V32Zm-3-2v1H15v1H13V28h2v1h1Z"/><path class="da261-2" d="M18,25h1V24H17v1Z"/><rect class="da261-2" x="16" y="25" width="1" height="1"/><path class="da261-2" d="M13,26v1h3V26H13Z"/><path class="da261-2" d="M13,23V22H12v2h1Z"/><path class="da261-4" d="M13,25v1h3V25h1V24H16V23H13v1H12v1Z"/><rect class="da261-2" x="12" y="25" width="1" height="1"/><path class="da261-2" d="M12,24H10v1h2Z"/><path class="da261-2" d="M10,25H8v1h2Z"/><path class="da261-2" d="M9,31V27H8v3H7V27H6v6H7V31H8v2H9V31Z"/><rect class="da261-2" x="7" y="26" width="1" height="1"/><path class="da261-3" d="M7,30H8V27H7v3Z"/><path class="da261-4" d="M7,31v2H8V31Z"/><path class="da261-5" d="M19,30H18V29H17v3h1V31h1v1h1V29H19Z"/><rect class="da261-5" x="18" y="28" width="1" height="1"/><path class="da261-5" d="M15,30v1h1V29H15Z"/><path class="da261-5" d="M14,30V29h1V28H13v4h2V31H14Z"/><path class="da261-5" d="M9,32h1V31h1v1h1V29H11v1H10V29H9v3Z"/><rect class="da261-5" x="10" y="28" width="1" height="1"/><path class="da261-2" d="M20,16h1V15H20Z"/><path class="da261-2" d="M19,14h1V13H19Z"/><path class="da261-4" d="M16,17V16H15v1H14V16H13v1H10v1h1v1h1V18h2v1h1V18h2v1h1V18h1V17H16Z"/><path class="da261-4" d="M14,14h2V13H13v1Z"/><rect class="da261-4" x="13" y="20" width="1" height="1"/><rect class="da261-4" x="15" y="20" width="1" height="1"/><path class="da261-4" d="M18,15H16v1h3V15Z"/><path class="da261-4" d="M13,16V15H10v1h3Z"/><rect class="da261-4" x="14" y="15" width="1" height="1"/><path class="da261-2" d="M16,23v1h1V22H16Z"/><path class="da261-2" d="M10,13H9v1h1Z"/><path class="da261-2" d="M8,15v1H9V15Z"/><rect class="da261-2" x="14" y="16" width="1" height="1"/><path class="da261-6" d="M12,14v1h1V14Z"/><path class="da261-6" d="M11,14H10v1h1Z"/><rect class="da261-6" x="18" y="14" width="1" height="1"/><path class="da261-6" d="M16,14v1h1V14Z"/><path class="da261-2" d="M11,14v1h1V14Z"/><path class="da261-2" d="M17,14v1h1V14Z"/><path class="da261-7" d="M15,18v1h1V18Z"/><path class="da261-7" d="M13,23h3V22h2V21h1V20h1V16H19v2H18v1H16v2H15V20H14v1H13V19h1V18H12v1H11V18H10V16H9v4h1v1h1v1h2Z"/><path class="da261-2" d="M14,19H13v1h3V19H14Z"/><path class="da261-2" d="M16,18v1h1V18Z"/><path class="da261-8" d="M19,15v1h1V15h1V14H19Z"/><path class="da261-8" d="M16,16v1h3V16H16Z"/><path class="da261-8" d="M12,14h1V13H10v1h2Z"/><path class="da261-8" d="M17,14h2V13H16v1Z"/><path class="da261-8" d="M15,14H13v2h1V15h1v1h1V14Z"/><path class="da261-8" d="M13,17V16H10v1h3Z"/><path class="da261-8" d="M10,15V14H8v1H9v1h1Z"/><path class="da261-9" d="M18,12V11H17v2h1Z"/><path class="da261-10" d="M10,12v1h1V11h1v2h1V11h1v2h1V11h1v2h1V11h1v2h1V11h1V10H19V9H18V8H11V9H10v1H9v1h1Z"/><path class="da261-9" d="M16,12V11H15v2h1Z"/><path class="da261-9" d="M14,12V11H13v2h1Z"/><path class="da261-9" d="M12,12V11H11v2h1Z"/><path class="da261-9" d="M10,12V11H9v2h1Z"/><path class="da261-9" d="M19,12v1h1V11H19Z"/></svg>