<svg xmlns="http://www.w3.org/2000/svg" viewBox="0 0 29 33"><defs><style>polygon,rect,path{shape-rendering:crispedges;}.oa221-1{fill:#e55b35;}.oa221-2{fill:#000000;}.oa221-3{fill:#10bcff;}.oa221-4{fill:#ffffff;}.oa221-5{fill:#c18d59;}.oa221-6{fill:#ffffff;}.oa221-7{fill:#00686d;}.oa221-8{fill:#00686d;}.oa221-9{fill:#ffffff;}.oa221-10{fill:#0068ff;}.oa221-11{fill:#ff1f4a;}</style></defs><path class="oa221-1" d="M0,33H6V27H7V26H8V25h2V24h2V21H11V20H10V19H9V18H8V12H9V10h1V9h1V8h7V9h1v1h1v5h1v1H20v3H19v1H18v1H17v3h2v1h2v1h1v1h1v6h6V0H0Z"/><path class="oa221-2" d="M23,27H22v6h1V27Z"/><rect class="oa221-2" x="21" y="26" width="1" height="1"/><path class="oa221-3" d="M21,28h1V27H21Z"/><path class="oa221-3" d="M21,30v1h1V29H21Z"/><path class="oa221-3" d="M21,32v1h1V32Z"/><path class="oa221-2" d="M21,31V27H20v6h1V31Z"/><path class="oa221-3" d="M19,26v1H18v3h1v1h1V29H19V28h1V27h1V26H19Z"/><path class="oa221-3" d="M19,32v1h1V32Z"/><path class="oa221-2" d="M20,26h1V25H19v1Z"/><path class="oa221-2" d="M18,30V25h1V24H17v1H16v1h1v7h1V30Z"/><path class="oa221-4" d="M17,26H16v1H13V26H12v7h5V26Z"/><path class="oa221-2" d="M13,26v1h3V26H13Z"/><path class="oa221-2" d="M13,23h3v1h1V21H16v1H13V21H12v3h1Z"/><path class="oa221-5" d="M13,25v1h3V25h1V24H16V23H13v1H12v1Z"/><path class="oa221-2" d="M12,26h1V25H12V24H10v1h1v8h1V26Z"/><rect class="oa221-3" x="9" y="32" width="1" height="1"/><path class="oa221-3" d="M9,27v1h1v1H9v2h1V30h1V27H10V26H8v1Z"/><path class="oa221-2" d="M10,25H8v1h2Z"/><path class="oa221-2" d="M9,31V27H8v6H9V31Z"/><rect class="oa221-2" x="7" y="26" width="1" height="1"/><path class="oa221-3" d="M8,28V27H7v1Z"/><path class="oa221-3" d="M7,32v1H8V32Z"/><path class="oa221-3" d="M7,30v1H8V29H7Z"/><path class="oa221-2" d="M7,31V27H6v6H7V31Z"/><path class="oa221-6" d="M11,30H10v1H9v1h1v1h1V30Z"/><path class="oa221-6" d="M10,27h1V25H10v2Z"/><path class="oa221-6" d="M18,26v1h1V25H18Z"/><path class="oa221-6" d="M7,29H8V28H7Z"/><path class="oa221-6" d="M10,28H9v1h1Z"/><path class="oa221-6" d="M21,29h1V28H21Z"/><path class="oa221-6" d="M19,29h1V28H19Z"/><path class="oa221-6" d="M21,32h1V31H21Z"/><path class="oa221-6" d="M7,32H8V31H7Z"/><path class="oa221-6" d="M20,32V31H19V30H18v3h1V32Z"/><rect class="oa221-2" x="20" y="15" width="1" height="1"/><rect class="oa221-5" x="14" y="15" width="1" height="1"/><path class="oa221-5" d="M14,14h1V13h2V12h2V11H18V10H16v1H14v1H13v1h1Z"/><path class="oa221-5" d="M13,22h3V21h1V20h1V19h1V16H15v1H14V16H10v3h1v1h1v1h1Zm-1-3V18h1v1h3v1H13V19Z"/><path class="oa221-2" d="M19,17v2h1V16H19Z"/><rect class="oa221-2" x="18" y="19" width="1" height="1"/><rect class="oa221-2" x="17" y="20" width="1" height="1"/><rect class="oa221-2" x="11" y="20" width="1" height="1"/><rect class="oa221-2" x="10" y="19" width="1" height="1"/><path class="oa221-2" d="M10,16H9v3h1V16Z"/><rect class="oa221-2" x="14" y="16" width="1" height="1"/><path class="oa221-7" d="M17,13h2V12H17Z"/><rect class="oa221-2" x="13" y="19" width="3" height="1"/><rect class="oa221-2" x="12" y="18" width="1" height="1"/><path class="oa221-8" d="M9,13h4V12h1V11h2V10h2v1h1v2h1V10H19V9H18V8H11V9H10v1H9v2H8v6H9V13Z"/><path class="oa221-9" d="M18,13H15v1H14V13H9v3h5V15h1v1h5V13H18Zm-5,2H10V14h3Zm6,0H16V14h3Z"/><path class="oa221-10" d="M16,14v1h3V14H16Z"/><path class="oa221-11" d="M10,14v1h3V14H10Z"/></svg>