<svg xmlns="http://www.w3.org/2000/svg" viewBox="0 0 29 33"><defs><style>polygon,rect,path{shape-rendering:crispedges;}.ba195-1{fill:#29834f;}.ba195-2{fill:#000000;}.ba195-3{fill:#ce8452;}.ba195-4{fill:#ffffff;}.ba195-5{fill:#6e12ff;}.ba195-6{fill:#ffffff;}.ba195-7{fill:#fad000;}.ba195-8{fill:#663228;}.ba195-9{fill:#004a77;}.ba195-10{fill:#c9a717;}</style></defs><path class="ba195-1" d="M0,33H6V27H7V26H8V25h2V23h1V21H10V20H9V16H8V15H9V14H8V13H4V12H6V11H8V10h2V9h1V8h1V7h1V6h1V5h1V6h1V7h1V8h1V9h1v1h2v1h2v1h2v1H21v1H20v1h1v1H20v4H19v1H18v2h1v2h2v1h1v1h1v6h6V0H0Z"/><path class="ba195-2" d="M23,27H22v6h1V27Z"/><rect class="ba195-2" x="21" y="26" width="1" height="1"/><path class="ba195-3" d="M22,27H21v6h1V27Z"/><rect class="ba195-3" x="20" y="26" width="1" height="1"/><path class="ba195-2" d="M21,27H20v6h1V27Z"/><path class="ba195-2" d="M20,26h1V25H19v1Z"/><rect class="ba195-4" x="18" y="30" width="1" height="1"/><path class="ba195-4" d="M14,31v1h1V30H14Z"/><rect class="ba195-4" x="10" y="30" width="1" height="1"/><rect class="ba195-4" x="18" y="32" width="1" height="1"/><path class="ba195-4" d="M13,29V27H12V26H11V25H10v1H9v4h1V29h1v1h1v3h1V29Z"/><path class="ba195-4" d="M17,30h1V29h1v1h1V26H19V25H18v1H17v1H16v2H15v1h1v2H15v1h2V30Z"/><rect class="ba195-4" x="10" y="32" width="1" height="1"/><path class="ba195-3" d="M14,24h1v1h1V23H13v2h1Z"/><path class="ba195-2" d="M10,26V25H8v1h2Z"/><path class="ba195-3" d="M9,27V26H8v1Z"/><path class="ba195-2" d="M9,30V27H8v6H9V30Z"/><rect class="ba195-2" x="7" y="26" width="1" height="1"/><path class="ba195-3" d="M8,27H7v6H8V27Z"/><path class="ba195-2" d="M7,27H6v6H7V27Z"/><path class="ba195-5" d="M20,30H19v1H18V30H17v3h1V32h1v1h1V30Z"/><rect class="ba195-5" x="18" y="29" width="1" height="1"/><path class="ba195-5" d="M16,32V30H15v2Z"/><path class="ba195-5" d="M14,32V29H13v4h2V32Z"/><path class="ba195-5" d="M12,30H11v1H10V30H9v3h1V32h1v1h1V30Z"/><rect class="ba195-5" x="10" y="29" width="1" height="1"/><rect class="ba195-2" x="20" y="15" width="1" height="1"/><path class="ba195-3" d="M10,17v1h1v1h1V18h2v1h1V18h2v1h1V18h1V16h1V15H16V14H13v1H9v1h1Zm4-1h1v1H14Z"/><rect class="ba195-3" x="15" y="20" width="1" height="1"/><rect class="ba195-3" x="13" y="20" width="1" height="1"/><path class="ba195-2" d="M16,23v2h1V23h1V22H16Z"/><rect class="ba195-2" x="8" y="15" width="1" height="1"/><rect class="ba195-2" x="14" y="16" width="1" height="1"/><path class="ba195-6" d="M18,14v1h1V14Z"/><path class="ba195-6" d="M12,15h1V14H12Z"/><path class="ba195-2" d="M17,14H16v1h2V14Z"/><path class="ba195-2" d="M11,14H10v1h2V14Z"/><path class="ba195-2" d="M14,30h1V29H14Z"/><rect class="ba195-2" x="12" y="26" width="1" height="1"/><path class="ba195-2" d="M15,28v1h1V27H15Z"/><rect class="ba195-2" x="16" y="26" width="1" height="1"/><path class="ba195-2" d="M13,27v2h1V27Z"/><rect class="ba195-2" x="17" y="25" width="1" height="1"/><rect class="ba195-2" x="11" y="25" width="1" height="1"/><rect class="ba195-2" x="14" y="24" width="1" height="1"/><rect class="ba195-2" x="13" y="25" width="1" height="1"/><rect class="ba195-2" x="15" y="25" width="1" height="1"/><path class="ba195-2" d="M12,24v1h1V22H11v1h1Z"/><rect class="ba195-7" x="16" y="25" width="1" height="1"/><path class="ba195-7" d="M15,26V25H14v1H13v1h1v2h1V27h1V26Z"/><rect class="ba195-7" x="12" y="25" width="1" height="1"/><path class="ba195-7" d="M11,25h1V23H11v2Z"/><path class="ba195-7" d="M17,24v1h1V23H17Z"/><path class="ba195-2" d="M19,25V23H18v2Z"/><path class="ba195-2" d="M11,24V23H10v2h1Z"/><path class="ba195-8" d="M15,18v1h1V18Z"/><path class="ba195-8" d="M13,23h3V22h2V21h1V20h1V16H19v2H18v1H16v2H15V20H14v1H13V19h1V18H12v1H11V18H10V16H9v4h1v1h1v1h2Z"/><path class="ba195-2" d="M14,19H13v1h3V19H14Z"/><path class="ba195-2" d="M16,18v1h1V18Z"/><path class="ba195-9" d="M19,15h1V14H19Z"/><path class="ba195-9" d="M10,14H9v1h1Z"/><path class="ba195-10" d="M11,14H21V13h4V12H23V11H21V10H19V9H18V8H17V7H16V6H15V5H14V6H13V7H12V8H11V9H10v1H8v1H6v1H4v1H8v1h3Z"/></svg>