<svg xmlns="http://www.w3.org/2000/svg" viewBox="0 0 29 33"><defs><style>polygon,rect,path{shape-rendering:crispedges;}.ua285-1{fill:#000000;}.ua285-2{fill:#3e5e00;}.ua285-3{fill:#e8b795;}.ua285-4{fill:#ffffff;}.ua285-5{fill:#893a1f;}.ua285-6{fill:#6c9302;}.ua285-7{fill:#d14646;}.ua285-8{fill:#cbed03;}.ua285-9{fill:#304400;}</style></defs><path class="ua285-1" d="M23,27H22v6h1V27Z"/><path class="ua285-2" d="M22,27H21v6h1V27Z"/><rect class="ua285-1" x="21" y="26" width="1" height="1"/><path class="ua285-1" d="M21,27H20v6h1V27Z"/><path class="ua285-2" d="M20,27h1V26H19V25H18V24H16v1h1v5H16V25H13v5H12V25h1V24H11v1H10v1H8v1H9v6H20V27Z"/><path class="ua285-1" d="M20,26h1V25H19v1Z"/><rect class="ua285-1" x="18" y="24" width="1" height="1"/><path class="ua285-1" d="M16,24h2V23H16Z"/><path class="ua285-1" d="M13,24v1h3V24H13Z"/><path class="ua285-3" d="M15,23H13v1h3V23Z"/><path class="ua285-1" d="M13,23H11v1h2Z"/><rect class="ua285-1" x="10" y="24" width="1" height="1"/><path class="ua285-1" d="M10,25H8v1h2Z"/><path class="ua285-1" d="M9,27H8v6H9V27Z"/><path class="ua285-2" d="M8,27H7v6H8V27Z"/><rect class="ua285-1" x="7" y="26" width="1" height="1"/><path class="ua285-1" d="M7,27H6v6H7V27Z"/><path class="ua285-1" d="M12,26v4h1V25H12Z"/><path class="ua285-1" d="M16,30h1V25H16v5Z"/><path class="ua285-3" d="M16,22V21h1V20h1V19h1V15H16V13h1V12H15v3H14v1h1v1H14V16H13v1H11V16H10v3h1v1h1v1h1v1h3Zm-4-3V18h1v1h3v1H13V19Z"/><rect class="ua285-1" x="14" y="16" width="1" height="1"/><path class="ua285-4" d="M16,14v1h1V14Z"/><path class="ua285-5" d="M17,13H16v1h1Z"/><path class="ua285-6" d="M15,12h2V11H15Z"/><path class="ua285-6" d="M17,12v2h2V12H17Z"/><path class="ua285-2" d="M13,22H12V21H11V20H10V19H9V12h1V11h2V10h5v1h2v1h1v7H19v1H18v1H17v1H16v1h2V22h1V21h1V20h1V11H20V10H19V9H18V8H11V9H10v1H9v1H8v9H9v1h1v1h1v1h2Z"/><rect class="ua285-1" x="10" y="8" width="1" height="1"/><rect class="ua285-1" x="9" y="9" width="1" height="1"/><rect class="ua285-1" x="8" y="10" width="1" height="1"/><path class="ua285-1" d="M8,11H7v9H8V11Z"/><rect class="ua285-1" x="8" y="20" width="1" height="1"/><rect class="ua285-1" x="9" y="21" width="1" height="1"/><rect class="ua285-1" x="10" y="22" width="1" height="1"/><rect class="ua285-1" x="18" y="22" width="1" height="1"/><rect class="ua285-1" x="19" y="21" width="1" height="1"/><rect class="ua285-1" x="20" y="20" width="1" height="1"/><path class="ua285-1" d="M21,20h1V11H21v9Z"/><rect class="ua285-1" x="20" y="10" width="1" height="1"/><rect class="ua285-1" x="19" y="9" width="1" height="1"/><rect class="ua285-1" x="18" y="8" width="1" height="1"/><path class="ua285-1" d="M18,8V7H11V8h7Z"/><path class="ua285-1" d="M10,16h1V15H10V13h1V12h2v1h1v2h1V11h2V10H12v1H10v1H9v7h1V16Z"/><rect class="ua285-1" x="10" y="19" width="1" height="1"/><rect class="ua285-1" x="11" y="20" width="1" height="1"/><rect class="ua285-1" x="12" y="21" width="1" height="1"/><path class="ua285-1" d="M16,23V22H13v1h3Z"/><rect class="ua285-1" x="16" y="21" width="1" height="1"/><rect class="ua285-1" x="17" y="20" width="1" height="1"/><rect class="ua285-1" x="18" y="19" width="1" height="1"/><path class="ua285-7" d="M0,7V33H6V27H7V26H8V25h2V24h1V23H10V22H9V21H8V20H7V11H8V10H9V9h1V8h1V7h7V8h1V9h1v1h1v1h1v9H21v1H20v1H19v1H18v1h1v1h2v1h1v1h1v6h6V0H0Z"/><path class="ua285-8" d="M13,15V13H11v2h2Z"/><path class="ua285-9" d="M13,13v2h1V13Z"/><path class="ua285-9" d="M12,15H11v1h2V15Z"/><path class="ua285-9" d="M10,13v2h1V13Z"/><path class="ua285-9" d="M13,12H11v1h2Z"/><rect class="ua285-1" x="11" y="16" width="2" height="1"/><rect class="ua285-1" x="13" y="15" width="1" height="1"/><path class="ua285-1" d="M18,12h1V11H17v1Z"/><path class="ua285-1" d="M17,14v1h2v4h1V12H19v2Z"/><rect class="ua285-1" x="13" y="19" width="3" height="1"/><rect class="ua285-1" x="12" y="18" width="1" height="1"/></svg>