<svg xmlns="http://www.w3.org/2000/svg" viewBox="0 0 29 33"><defs><style>polygon,rect,path{shape-rendering:crispedges;}.oa116-1{fill:#7a982c;}.oa116-2{fill:#000000;}.oa116-3{fill:#e1ff85;}.oa116-4{fill:#ffffff;}.oa116-5{fill:#e8b795;}.oa116-6{fill:#ffffff;}.oa116-7{fill:#473a35;}.oa116-8{fill:#cc3232;}</style></defs><path class="oa116-1" d="M0,33H6V27H7V26H8V25h2V24h2V22H11V21H10v1H9V21H8V20H7V19H8V12H9V10h1V9h1V8h7V9h1v1h1v2h1v7h1v1H21v1H20v1H19V21H18v1H17v2h2v1h2v1h1v1h1v6h6V0H0Z"/><path class="oa116-2" d="M23,27H22v6h1V27Z"/><rect class="oa116-2" x="21" y="26" width="1" height="1"/><path class="oa116-3" d="M22,27H21v6h1V27Z"/><path class="oa116-2" d="M21,27H20v6h1V27Z"/><path class="oa116-3" d="M20,27h1V26H19V25H18v8h2V27Z"/><path class="oa116-2" d="M20,26h1V25H19v1Z"/><path class="oa116-2" d="M18,25h1V24H17v1H16v1h1v7h1V25Z"/><path class="oa116-4" d="M17,26H16v1H13V26H12v7h5V26Z"/><path class="oa116-2" d="M13,26v1h3V26H13Z"/><path class="oa116-2" d="M13,23h3v1h1V21H16v1H13V21H12v3h1Z"/><path class="oa116-5" d="M13,25v1h3V25h1V24H16V23H13v1H12v1Z"/><path class="oa116-2" d="M12,26h1V25H12V24H10v1h1v8h1V26Z"/><path class="oa116-3" d="M11,25H10v1H8v1H9v6h2V25Z"/><path class="oa116-2" d="M10,25H8v1h2Z"/><path class="oa116-2" d="M9,27H8v6H9V27Z"/><rect class="oa116-2" x="7" y="26" width="1" height="1"/><path class="oa116-3" d="M8,27H7v6H8V27Z"/><path class="oa116-2" d="M7,27H6v6H7V27Z"/><path class="oa116-2" d="M20,16h1V15H20Z"/><rect class="oa116-2" x="19" y="14" width="1" height="1"/><path class="oa116-5" d="M18,20V19h1V16h1V15H16V13h1V11H16V10H13v1H12v1h1v1H11v1h2v1H9v1h1v3h1v1h1v1h1v1h3V21h1V20Zm-4-4h1v1H14Zm2,4H13V19H12V18h1v1h3Z"/><rect class="oa116-5" x="17" y="13" width="1" height="1"/><path class="oa116-2" d="M19,17v2h1V16H19Z"/><rect class="oa116-2" x="18" y="19" width="1" height="1"/><rect class="oa116-2" x="17" y="20" width="1" height="1"/><rect class="oa116-2" x="11" y="20" width="1" height="1"/><rect class="oa116-2" x="10" y="19" width="1" height="1"/><path class="oa116-2" d="M10,14H9v1h1Z"/><path class="oa116-2" d="M10,16H9v3h1V16Z"/><path class="oa116-2" d="M9,15H8v1H9Z"/><rect class="oa116-2" x="14" y="16" width="1" height="1"/><path class="oa116-6" d="M13,15V14H12v1Z"/><path class="oa116-6" d="M11,15V14H10v1Z"/><path class="oa116-6" d="M19,15V14H18v1Z"/><path class="oa116-6" d="M16,14v1h1V14Z"/><path class="oa116-2" d="M12,15V14H11v1Z"/><path class="oa116-2" d="M17,15h1V14H17Z"/><path class="oa116-7" d="M13,12H11v1h2Z"/><path class="oa116-7" d="M17,13H16v1h1Z"/><path class="oa116-7" d="M18,13V12H17v1Z"/><rect class="oa116-2" x="13" y="19" width="3" height="1"/><rect class="oa116-2" x="12" y="18" width="1" height="1"/><path class="oa116-8" d="M20,17v2H19v1H18v1h1v1h1V21h1V20h1V19H21V16H20Z"/><path class="oa116-8" d="M9,14h2V12h1V11h1V10h3v1h1v1h1v2h2v1h1V12H20V10H19V9H18V8H11V9H10v1H9v2H8v3H9Z"/><path class="oa116-8" d="M10,20V19H9V16H8v3H7v1H8v1H9v1h1V21h1V20Z"/><path class="oa116-8" d="M11,21v1h1V21Z"/><path class="oa116-8" d="M17,22h1V21H17Z"/></svg>