<svg xmlns="http://www.w3.org/2000/svg" viewBox="0 0 29 33"><defs><style>polygon,rect,path{shape-rendering:crispedges;}.da273-1{fill:#6b4f99;}.da273-2{fill:#000000;}.da273-3{fill:#6c9302;}.da273-4{fill:#efcaaf;}.da273-5{fill:#c4ea3b;}.da273-6{fill:#ffffff;}.da273-7{fill:#af8423;}.da273-8{fill:#fad000;}.da273-9{fill:#af8423;}.da273-10{fill:#d8be00;}</style></defs><path class="da273-1" d="M0,33H6V27H7V26H8V25h2V23h1V22h1V21H11V20H10V19H9V16H8V15H9V11h1V10h1V9h7v1h1v1h1v4h1v1H20v3H19v1H18v1H17v1h1v1h1v2h2v1h1v1h1v6h6V0H0Z"/><path class="da273-2" d="M23,27H22v3H21V27H20v6h1V31h1v2h1V27Z"/><rect class="da273-2" x="21" y="26" width="1" height="1"/><path class="da273-3" d="M21,28v2h1V27H21Z"/><path class="da273-4" d="M21,31v2h1V31Z"/><path class="da273-2" d="M20,26h1V25H19v1Z"/><path class="da273-3" d="M20,27h1V26H19V25H18v1H17v1H16v1h3v1H17v2h1V30h1v2H16V29H15v3H12V28h1V27H12V26H11V25H10v1H8v1H9v6H20V27Zm-9,2v3H10V28h1Z"/><path class="da273-3" d="M13,31h1V29H13Z"/><path class="da273-4" d="M14,24h1v1h1V23H13v2h1Z"/><path class="da273-2" d="M10,25H8v1h2Z"/><path class="da273-2" d="M9,27H8v3H7V27H6v6H7V31H8v2H9V27Z"/><rect class="da273-2" x="7" y="26" width="1" height="1"/><path class="da273-3" d="M7,30H8V27H7v3Z"/><path class="da273-4" d="M7,31v2H8V31Z"/><path class="da273-5" d="M14,31H13V28H12v4h3V30H14Z"/><path class="da273-5" d="M10,29v3h1V28H10Z"/><path class="da273-5" d="M16,30v2h3V30H18v1H17V29h2V28H16v2Z"/><rect class="da273-2" x="20" y="15" width="1" height="1"/><path class="da273-4" d="M12,19V18h5v1h2V16h1V15H15v2H14V15H13v1H11v1H10v2h2Z"/><rect class="da273-4" x="16" y="19" width="1" height="1"/><rect class="da273-4" x="9" y="15" width="1" height="1"/><rect class="da273-4" x="13" y="20" width="1" height="1"/><rect class="da273-4" x="12" y="19" width="1" height="1"/><rect class="da273-4" x="15" y="20" width="1" height="1"/><path class="da273-2" d="M19,17v2h1V16H19Z"/><path class="da273-2" d="M18,20h1V19H18Z"/><rect class="da273-2" x="17" y="20" width="1" height="1"/><rect class="da273-2" x="11" y="20" width="1" height="1"/><path class="da273-2" d="M10,19v1h1V19Z"/><path class="da273-2" d="M10,16H9v3h1V16Z"/><rect class="da273-2" x="8" y="15" width="1" height="1"/><path class="da273-2" d="M14,17h1V16H14Z"/><path class="da273-6" d="M16,14v1h1V14Z"/><path class="da273-2" d="M18,14H17v1h2V14Z"/><rect class="da273-7" x="16" y="13" width="1" height="1"/><path class="da273-2" d="M14,30h1V29H14Z"/><rect class="da273-2" x="12" y="26" width="1" height="1"/><path class="da273-2" d="M15,28v1h1V27H15Z"/><rect class="da273-2" x="16" y="26" width="1" height="1"/><path class="da273-2" d="M14,29V27H13v2Z"/><rect class="da273-2" x="17" y="25" width="1" height="1"/><rect class="da273-2" x="11" y="25" width="1" height="1"/><rect class="da273-2" x="14" y="24" width="1" height="1"/><rect class="da273-2" x="13" y="25" width="1" height="1"/><rect class="da273-2" x="15" y="25" width="1" height="1"/><path class="da273-2" d="M12,24v1h1V23h3v2h1V23h1V22H17V21H16v1H13V21H12v1H11v1h1Z"/><rect class="da273-8" x="16" y="25" width="1" height="1"/><path class="da273-8" d="M15,26V25H14v1H13v1h1v2h1V27h1V26Z"/><rect class="da273-8" x="12" y="25" width="1" height="1"/><path class="da273-8" d="M11,25h1V23H11v2Z"/><path class="da273-8" d="M17,24v1h1V23H17Z"/><path class="da273-2" d="M19,25V23H18v2Z"/><path class="da273-2" d="M11,24V23H10v2h1Z"/><path class="da273-9" d="M17,19v1h1V19Z"/><rect class="da273-9" x="16" y="20" width="1" height="1"/><path class="da273-9" d="M15,20H14v1H13v1h3V21H15Z"/><path class="da273-9" d="M14,19h3V18H13v1Z"/><rect class="da273-9" x="12" y="20" width="1" height="1"/><path class="da273-9" d="M12,19H11v1h1Z"/><path class="da273-2" d="M15,20h1V19H13v1h2Z"/><path class="da273-2" d="M13,18H12v1h1Z"/><path class="da273-10" d="M10,16v1h1V16h2V15h1v1h1V15h1V13h1v1h2v1h1V11H19V10H18V9H11v1H10v1H9v4h1Z"/></svg>