<svg xmlns="http://www.w3.org/2000/svg" viewBox="0 0 29 33"><defs><style>polygon,rect,path{shape-rendering:crispedges;}.ya183-1{fill:#6b4f99;}.ya183-2{fill:#000000;}.ya183-3{fill:#508e5d;}.ya183-4{fill:#ce8452;}.ya183-5{fill:#184226;}.ya183-6{fill:#ffffff;}.ya183-7{fill:#b23b00;}.ya183-8{fill:#b23b00;}.ya183-9{fill:#ff1d99;}.ya183-10{fill:#f62;}.ya183-11{fill:#f9db00;}.ya183-12{fill:#1261ff;}.ya183-13{fill:#00c650;}.ya183-14{fill:#e20026;}</style></defs><path class="ya183-1" d="M6,32V27H7V26H8V25h2V24h1V23h1V21H10V20H9V16H8V15H9V11h1V10h1V9h7v1h1v1h1v4h1v1H20v4H19v1H17v2h1v1h1v1h1V22h3v3h1v1H23v7h6V0H0V33H6Z"/><path class="ya183-2" d="M7,30V27H6v6H7V30Z"/><path class="ya183-3" d="M7,31v2H8V31Z"/><path class="ya183-3" d="M8,29V27H7v2Z"/><rect class="ya183-2" x="7" y="26" width="1" height="1"/><path class="ya183-2" d="M9,31V27H8v6H9V31Z"/><path class="ya183-3" d="M13,29h1V27H13V26H12v2h1Z"/><path class="ya183-3" d="M18,26v2h1v1h1V27H19V25H18Z"/><rect class="ya183-3" x="14" y="29" width="1" height="1"/><path class="ya183-3" d="M14,31H13V30H12V28H11V27H10V26H9v2h1v1h1v2h1v1h1v1h1V31Z"/><path class="ya183-3" d="M10,31V30H9v2h1v1h1V31Z"/><path class="ya183-3" d="M19,31V30H18V28H17V27H16V25H15v3h1v1h1v2h1v1h1v1h1V31Z"/><path class="ya183-3" d="M16,31V30H15v2h1v1h1V31Z"/><path class="ya183-2" d="M10,26V25H8v1h2Z"/><path class="ya183-2" d="M11,26h2V25H12V24h1V23h3v1h1v1H16v1h2V25h1V24H18V23H17V21H16v1H13V21H12v2H11v1H10v1h1Z"/><rect class="ya183-2" x="13" y="24" width="1" height="1"/><path class="ya183-2" d="M14,32v1h1V32Z"/><path class="ya183-2" d="M14,31h1V30H14Z"/><path class="ya183-2" d="M14,29h1V28H14Z"/><path class="ya183-2" d="M14,26v1h1V25H14Z"/><rect class="ya183-2" x="15" y="24" width="1" height="1"/><path class="ya183-4" d="M16,24V23H13v1h1v1h1V24Z"/><rect class="ya183-3" x="16" y="24" width="1" height="1"/><path class="ya183-2" d="M21,31V26H20v7h1V31Z"/><path class="ya183-3" d="M21,31v1h1V30H21Z"/><path class="ya183-3" d="M21,28h1V27H21Z"/><path class="ya183-2" d="M23,26H22v7h1V26Z"/><path class="ya183-5" d="M19,28H18v2h1v1h1V29H19Z"/><path class="ya183-5" d="M21,32v1h1V32Z"/><path class="ya183-5" d="M16,26v1h1v1h1V26Z"/><path class="ya183-5" d="M19,27h1V26H19Z"/><path class="ya183-5" d="M21,29v1h1V28H21Z"/><path class="ya183-5" d="M18,32V31H17v2h2V32Z"/><path class="ya183-5" d="M15,30h1v1h1V29H16V28H15v2Z"/><polygon class="ya183-5" points="14 27 14 26 14 25 13 25 13 26 13 27 14 27"/><path class="ya183-5" d="M14,28h1V27H14Z"/><rect class="ya183-5" x="15" y="32" width="1" height="1"/><path class="ya183-5" d="M14,32h1V31H14Z"/><path class="ya183-5" d="M14,29H13V28H12v2h1v1h1V29Z"/><rect class="ya183-5" x="12" y="24" width="1" height="1"/><path class="ya183-5" d="M10,27h1v1h1V26H11V25H10v2Z"/><path class="ya183-5" d="M12,32V31H11v2h2V32Z"/><path class="ya183-5" d="M10,30v1h1V29H10V28H9v2Z"/><path class="ya183-5" d="M9,32v1h1V32Z"/><path class="ya183-5" d="M9,27V26H8v1Z"/><path class="ya183-5" d="M7,30v1H8V29H7Z"/><rect class="ya183-2" x="20" y="15" width="1" height="1"/><path class="ya183-4" d="M13,22h3V21h1V20h1V18h1V16h1V15H15v2H14V15H13v1H11v1H10v1h1v2h1v1h1Zm-1-3V18h1v1h3v1H13V19Z"/><rect class="ya183-4" x="9" y="15" width="1" height="1"/><path class="ya183-2" d="M19,17h1V16H19Z"/><path class="ya183-2" d="M10,16H9v1h1Z"/><rect class="ya183-2" x="8" y="15" width="1" height="1"/><path class="ya183-2" d="M14,17h1V16H14Z"/><path class="ya183-6" d="M16,14v1h1V14Z"/><path class="ya183-2" d="M18,14H17v1h2V14Z"/><rect class="ya183-7" x="16" y="13" width="1" height="1"/><path class="ya183-8" d="M19,18H18v2H17v1h2V20h1V17H19Z"/><path class="ya183-8" d="M11,20V18H10V17H9v3h1v1h2V20Z"/><rect class="ya183-2" x="13" y="19" width="3" height="1"/><rect class="ya183-2" x="12" y="18" width="1" height="1"/><path class="ya183-9" d="M10,16v1h1V16h2V15h1v1h1V15h1V13h1v1h2v1h1V11H19V10H18V9H11v1H10v1H9v4h1Z"/><path class="ya183-10" d="M23,23V22H22v1Z"/><path class="ya183-6" d="M22,23V22H21v1Z"/><path class="ya183-11" d="M21,23H20v1h1Z"/><path class="ya183-12" d="M22,25h1V24H22Z"/><path class="ya183-10" d="M21,24H20v1h1Z"/><rect class="ya183-13" x="21" y="23" width="1" height="1"/><path class="ya183-11" d="M21,24v1h1V24Z"/><path class="ya183-14" d="M22,24h1V23H22Z"/><path class="ya183-14" d="M21,22H20v1h1Z"/><path class="ya183-4" d="M21,26v1h1V26h1V25H20v1Z"/><rect class="ya183-2" x="23" y="25" width="1" height="1"/><path class="ya183-2" d="M20,26V25H19v1Z"/></svg>