<svg xmlns="http://www.w3.org/2000/svg" viewBox="0 0 29 33"><defs><style>polygon,rect,path{shape-rendering:crispedges;}.ka74-1{fill:#db5a8e;}.ka74-2{fill:#000000;}.ka74-3{fill:#00774c;}.ka74-4{fill:#4fdb7d;}.ka74-5{fill:#b2622b;}.ka74-6{fill:#6c9302;}.ka74-7{fill:#4922aa;}.ka74-8{fill:#00686d;}.ka74-9{fill:#68aaad;}.ka74-10{fill:#efc075;}.ka74-11{fill:#2aa8e8;}.ka74-12{fill:#d8aa68;}.ka74-13{fill:#ffffff;}.ka74-14{fill:#563e1b;}</style></defs><path class="ka74-1" d="M0,33H6V28H5V27H4V25H5V24H8v1h2V24h2V22H11V21H10V20H9V16H8V15H9V13H8V9H9V8h1V7h1V6h7V7h1V8h1V9h1v4H20v2h1V14h1v8h1v1h1v8H23v1H22v1h7V0H0Z"/><path class="ka74-1" d="M18,24h1v1h2V16H20v4H19v1H18v1H17v2Z"/><path class="ka74-2" d="M23,27v4h1V23H23v4Z"/><path class="ka74-3" d="M23,28V27H22v2h1Z"/><rect class="ka74-2" x="22" y="31" width="1" height="1"/><path class="ka74-2" d="M21,29V27H20v6h1V29Z"/><path class="ka74-2" d="M19,26h2V25H19Z"/><path class="ka74-3" d="M19,26V25H17v1h1v2h1v1h1V27H19Z"/><path class="ka74-3" d="M16,31V30H15V28H14V27H13V25H11v1h1v2h1v1h1v2h1v1h1v1h1V31Z"/><path class="ka74-3" d="M13,31V30H12V28H11V27H10V26H9v2h1v1h1v2h1v1h1v1h1V31Z"/><path class="ka74-3" d="M19,31V30H18V28H17V27H16V25H15V24H14V23H13v2h1v1h1v2h1v1h1v2h1v1h1v1h1V31Z"/><rect class="ka74-3" x="16" y="24" width="1" height="1"/><path class="ka74-3" d="M10,31V30H9v2h1v1h1V31Z"/><path class="ka74-2" d="M18,24H17v1h2V24Z"/><path class="ka74-2" d="M17,24V22H16v2Z"/><path class="ka74-2" d="M13,23V22H12v2h1Z"/><path class="ka74-2" d="M12,25V24H10v1h2Z"/><path class="ka74-2" d="M9,31V26h1V25H8v8H9V31Z"/><path class="ka74-3" d="M7,28v1H8V27H7Z"/><path class="ka74-3" d="M7,31v2H8V31Z"/><path class="ka74-2" d="M7,30V27H5v1H6v5H7V30Z"/><path class="ka74-4" d="M19,28H18v2h1v1h1V29H19Z"/><path class="ka74-4" d="M17,26V25H16v2h1v1h1V26Z"/><path class="ka74-4" d="M22,29v2h1V29Z"/><path class="ka74-4" d="M20,26H19v1h2V26Z"/><path class="ka74-4" d="M22,27h1V25H22v2Z"/><path class="ka74-4" d="M18,32V31H17v2h2V32Z"/><path class="ka74-4" d="M16,30v1h1V29H16V28H15v2Z"/><path class="ka74-4" d="M16,23H14v1h1v1h1V23Z"/><path class="ka74-4" d="M14,27v1h1V26H14V25H13v2Z"/><path class="ka74-4" d="M15,32V31H14v2h2V32Z"/><path class="ka74-4" d="M13,30v1h1V29H13V28H12v2Z"/><path class="ka74-4" d="M13,25V24H12v1Z"/><path class="ka74-4" d="M10,27h1v1h1V26H11V25H10v2Z"/><path class="ka74-4" d="M12,32V31H11v2h2V32Z"/><path class="ka74-4" d="M10,30v1h1V29H10V28H9v2Z"/><path class="ka74-4" d="M9,32v1h1V32Z"/><path class="ka74-4" d="M7,30v1H8V29H7Z"/><rect class="ka74-2" x="20" y="15" width="1" height="1"/><path class="ka74-5" d="M16,16V15H13v1H10v2h1v1h1V18h2v1h1V18h2v1h1V18h1V16H16Zm-1,1H14V16h1Z"/><path class="ka74-5" d="M13,13h1v1h1V13h2V12h1V11H11v1h2Z"/><rect class="ka74-5" x="13" y="20" width="1" height="1"/><rect class="ka74-5" x="10" y="12" width="1" height="1"/><rect class="ka74-5" x="9" y="15" width="1" height="1"/><rect class="ka74-5" x="19" y="15" width="1" height="1"/><rect class="ka74-5" x="15" y="20" width="1" height="1"/><rect class="ka74-2" x="8" y="15" width="1" height="1"/><rect class="ka74-2" x="14" y="16" width="1" height="1"/><polygon class="ka74-6" points="12 13 13 13 13 12 11 12 11 13 12 13"/><path class="ka74-6" d="M17,13h2V12H17Z"/><path class="ka74-7" d="M13,23h3V22h2V21h1V20h1V16H19v2H18v1H17V18H15v1h1v2H15V20H14v1H13V19h1V18H12v1H11V18H10V16H9v4h1v1h1v1h2Z"/><path class="ka74-2" d="M13,19v1h3V19H13Z"/><path class="ka74-8" d="M10,13V12h1V11h7v1h1v2h1V13h1V9H20V8H19V7H18V6H11V7H10V8H9V9H8v4H9v1h1Z"/><path class="ka74-9" d="M13,16V15h1V14H10v2h3Z"/><path class="ka74-9" d="M19,14H15v1h1v1h3V14Z"/><path class="ka74-2" d="M15,13v1h4V13H15Z"/><path class="ka74-2" d="M14,14V13H10v1h4Z"/><path class="ka74-2" d="M19,15h1V14H19Z"/><path class="ka74-2" d="M10,14H9v1h1Z"/><path class="ka74-2" d="M14,15h1V14H14Z"/><path class="ka74-10" d="M21,27v2h1V27Z"/><path class="ka74-10" d="M21,20v1h1V19H21Z"/><path class="ka74-10" d="M21,17h1V15H21v2Z"/><path class="ka74-11" d="M22,14H21v1h1Z"/><path class="ka74-5" d="M21,23v2h2V23H21Z"/><path class="ka74-12" d="M22,26V25H21v2h1Z"/><path class="ka74-12" d="M21,23h1V21H21Z"/><path class="ka74-12" d="M21,18v1h1V17H21Z"/><path class="ka74-13" d="M7,26H8V24H5v1H7Z"/><path class="ka74-5" d="M8,27V26H7V25H5v2H8Z"/><path class="ka74-14" d="M22,31V29H21v4h1V31Z"/><path class="ka74-2" d="M23,23V22H22v1Z"/><path class="ka74-2" d="M4,25v2H5V25Z"/></svg>