<svg xmlns="http://www.w3.org/2000/svg" viewBox="0 0 29 33"><defs><style>polygon,rect,path{shape-rendering:crispedges;}.hb175-1{fill:#29834f;}.hb175-2{fill:#000000;}.hb175-3{fill:#6d3e35;}.hb175-4{fill:#ffffff;}.hb175-5{fill:#af8423;}.hb175-6{fill:#e70059;}.hb175-7{fill:#009b97;}</style></defs><path class="hb175-1" d="M0,33H6V27H7V26H8V25h2V24h2V21H11V20H10V19H9V16H8V15H9V11h1V9h1V8h7V9h1v1h1v5h1v1H20v3H19v1H18v1H17v3h2v1h2v1h1v1h1v6h6V0H0Z"/><path class="hb175-2" d="M23,27H22v6h1V27Z"/><path class="hb175-3" d="M22,27H21v6h1V27Z"/><rect class="hb175-2" x="21" y="26" width="1" height="1"/><path class="hb175-2" d="M21,27H20v6h1V27Z"/><path class="hb175-3" d="M20,27h1V26H19V25H17V24H16V23H13v1H12v1H10v1H8v1H9v6h5V29h1v4h5V27Zm-8,2H11V28h1Zm6,0H17V28h1Z"/><path class="hb175-2" d="M20,26h1V25H19v1Z"/><rect class="hb175-2" x="17" y="28" width="1" height="1"/><path class="hb175-2" d="M18,25h1V24H17v1Z"/><path class="hb175-2" d="M15,29H14v4h1V29Z"/><path class="hb175-2" d="M13,23h3v1h1V21H16v1H13V21H12v3h1Z"/><rect class="hb175-2" x="11" y="28" width="1" height="1"/><path class="hb175-2" d="M12,24H10v1h2Z"/><path class="hb175-2" d="M10,25H8v1h2Z"/><path class="hb175-2" d="M9,27H8v6H9V27Z"/><path class="hb175-3" d="M8,27H7v6H8V27Z"/><rect class="hb175-2" x="7" y="26" width="1" height="1"/><path class="hb175-2" d="M7,27H6v6H7V27Z"/><rect class="hb175-2" x="20" y="15" width="1" height="1"/><path class="hb175-2" d="M19,12v3h1V11H19Z"/><path class="hb175-3" d="M10,14h2V13H10Z"/><path class="hb175-3" d="M13,22h3V21h1V20h1V19h1V16h1V15H16V14h2V13H16V12h2v1h1V11H18V10H17v1H16V10H15v1H14V10H13v1H12V10H11v1H10v1h2v1h1v2H9v1h1v3h1v1h1v1h1Zm1-6h1v1H14Zm-2,3V18h5v1H16v1H13V19Z"/><path class="hb175-2" d="M19,17v2h1V16H19Z"/><rect class="hb175-2" x="18" y="10" width="1" height="1"/><rect class="hb175-2" x="18" y="19" width="1" height="1"/><rect class="hb175-2" x="17" y="20" width="1" height="1"/><rect class="hb175-2" x="17" y="9" width="1" height="1"/><rect class="hb175-2" x="11" y="9" width="1" height="1"/><rect class="hb175-2" x="13" y="9" width="1" height="1"/><rect class="hb175-2" x="15" y="9" width="1" height="1"/><rect class="hb175-2" x="11" y="20" width="1" height="1"/><rect class="hb175-2" x="10" y="19" width="1" height="1"/><path class="hb175-2" d="M10,14V11H9v4h1Z"/><path class="hb175-2" d="M10,16H9v3h1V16Z"/><rect class="hb175-2" x="8" y="15" width="1" height="1"/><rect class="hb175-2" x="14" y="16" width="1" height="1"/><path class="hb175-4" d="M12,15h1V14H12Z"/><path class="hb175-4" d="M10,14v1h1V14Z"/><path class="hb175-4" d="M18,14v1h1V14Z"/><path class="hb175-4" d="M16,14v1h1V14Z"/><path class="hb175-2" d="M11,14v1h1V14Z"/><path class="hb175-2" d="M17,14v1h1V14Z"/><path class="hb175-5" d="M19,13H18v1h1Z"/><rect class="hb175-5" x="16" y="12" width="2" height="1"/><path class="hb175-5" d="M13,14V13H12v1Z"/><path class="hb175-5" d="M12,13V12H10v1Z"/><path class="hb175-2" d="M13,18H12v1h1Z"/><path class="hb175-2" d="M17,19V18H16v1Z"/><path class="hb175-2" d="M15,20h1V19H15Z"/><path class="hb175-2" d="M15,19V18H14v1Z"/><path class="hb175-2" d="M13,19v1h1V19Z"/><path class="hb175-4" d="M14,19V18H13v1Z"/><path class="hb175-4" d="M16,19V18H15v1Z"/><path class="hb175-6" d="M14,19v1h1V19Z"/><path class="hb175-7" d="M11,10V9H10v2h1Z"/><path class="hb175-7" d="M12,10v1h1V9h1v2h1V9h1v2h1V9h1V8H11V9h1Z"/><rect class="hb175-7" x="18" y="9" width="1" height="1"/><path class="hb175-7" d="M20,11V10H19v1Z"/></svg>