<svg xmlns="http://www.w3.org/2000/svg" viewBox="0 0 29 33"><defs><style>polygon,rect,path{shape-rendering:crispedges;}.aa1-1{fill:#6b4f99;}.aa1-2{fill:#000000;}.aa1-3{fill:#efcaaf;}.aa1-4{fill:#4fdb7d;}.aa1-5{fill:#663228;}.aa1-6{fill:#fad000;}.aa1-7{fill:#663228;}.aa1-8{fill:#b23b00;}.aa1-9{fill:#ffffff;}.aa1-10{fill:#0068ff;}.aa1-11{fill:#ff1f4a;}</style></defs><path class="aa1-1" d="M0,33H6V27H7V26H8V25h2V23h1V22h1V21H11V20H10V19H9V16H8V15H9V10h1V9h1V8h7V9h1v2h1v4h1v1H20v3H19v1H18v1H17v1h1v1h1v2h2v1h1v1h1v6h6V0H0Z"/><path class="aa1-2" d="M23,31V27H22v6h1Z"/><rect class="aa1-2" x="21" y="26" width="1" height="1"/><path class="aa1-3" d="M22,31V27H21v6h1Z"/><rect class="aa1-3" x="20" y="26" width="1" height="1"/><path class="aa1-2" d="M21,31V27H20v6h1Z"/><path class="aa1-2" d="M20,26h1V25H19v1Z"/><path class="aa1-4" d="M20,31V26H19V25H18v1H17v1H16v2H15v1H14V29H13V27H12V26H11V25H10v1H9v7H20Z"/><path class="aa1-3" d="M14,24h1v1h1V23H13v2h1Z"/><path class="aa1-2" d="M10,26V25H8v1Z"/><rect class="aa1-3" x="8" y="26" width="1" height="1"/><path class="aa1-2" d="M9,31V27H8v6H9Z"/><rect class="aa1-2" x="7" y="26" width="1" height="1"/><path class="aa1-3" d="M8,31V27H7v6H8Z"/><path class="aa1-2" d="M7,31V27H6v6H7Z"/><rect class="aa1-2" x="20" y="15" width="1" height="1"/><path class="aa1-2" d="M19,13h1V11H19Z"/><rect class="aa1-3" x="14" y="15" width="1" height="1"/><rect class="aa1-3" x="13" y="20" width="1" height="1"/><path class="aa1-3" d="M18,16H15v1H14V16H10v2h1v1h1V18h5v1h1V18h1V16Z"/><path class="aa1-3" d="M18,10H17v1H16V10H15v1H14V10H13v1H12V10H11v1H10v2h1V12h2v1h1v1h1V13h1V12h2v1h1V11H18Z"/><rect class="aa1-3" x="15" y="20" width="1" height="1"/><rect class="aa1-2" x="19" y="16" width="1" height="1"/><path class="aa1-2" d="M16,23v2h1V23h1V22H16Z"/><rect class="aa1-2" x="17" y="9" width="1" height="1"/><rect class="aa1-2" x="11" y="9" width="1" height="1"/><rect class="aa1-2" x="13" y="9" width="1" height="1"/><rect class="aa1-2" x="15" y="9" width="1" height="1"/><rect class="aa1-2" x="10" y="10" width="1" height="1"/><path class="aa1-2" d="M10,12V11H9v2h1Z"/><rect class="aa1-2" x="9" y="16" width="1" height="1"/><rect class="aa1-2" x="8" y="15" width="1" height="1"/><rect class="aa1-2" x="14" y="16" width="1" height="1"/><path class="aa1-5" d="M16,12v1h2V12Z"/><path class="aa1-5" d="M11,12v1h2V12Z"/><rect class="aa1-2" x="14" y="29" width="1" height="1"/><rect class="aa1-2" x="12" y="26" width="1" height="1"/><path class="aa1-2" d="M15,28v1h1V27H15Z"/><rect class="aa1-2" x="16" y="26" width="1" height="1"/><path class="aa1-2" d="M14,27H13v2h1Z"/><rect class="aa1-2" x="17" y="25" width="1" height="1"/><rect class="aa1-2" x="11" y="25" width="1" height="1"/><rect class="aa1-2" x="14" y="24" width="1" height="1"/><rect class="aa1-2" x="13" y="25" width="1" height="1"/><rect class="aa1-2" x="15" y="25" width="1" height="1"/><path class="aa1-2" d="M12,24v1h1V22H11v1h1Z"/><rect class="aa1-6" x="16" y="25" width="1" height="1"/><path class="aa1-6" d="M15,26V25H14v1H13v1h1v2h1V27h1V26Z"/><rect class="aa1-6" x="12" y="25" width="1" height="1"/><path class="aa1-6" d="M11,25h1V23H11Z"/><path class="aa1-6" d="M17,24v1h1V23H17Z"/><path class="aa1-2" d="M18,25h1V23H18Z"/><path class="aa1-2" d="M11,24V23H10v2h1Z"/><path class="aa1-7" d="M13,23h3V22h1V21h1V20h1V19h1V17H19v1H18v1H16v2H15V20H14v1H13V19H11V18H10V17H9v2h1v1h1v1h1v1h1Z"/><path class="aa1-2" d="M16,18H12v1h1v1h3V19h1V18Z"/><path class="aa1-8" d="M18,11h1V9H18Z"/><path class="aa1-8" d="M12,10v1h1V9h1v2h1V9h1v2h1V9h1V8H11V9h1Z"/><rect class="aa1-8" x="10" y="9" width="1" height="1"/><rect class="aa1-8" x="9" y="10" width="1" height="1"/><path class="aa1-9" d="M11,16h3V15h1v1h5V13H15v1H14V13H9v3Zm5-2h3v1H16Zm-6,0h3v1H10Z"/><path class="aa1-10" d="M18,15h1V14H16v1Z"/><path class="aa1-11" d="M12,15h1V14H10v1Z"/></svg>