<svg xmlns="http://www.w3.org/2000/svg" viewBox="0 0 29 33"><defs><style>polygon,rect,path{shape-rendering:crispedges;}.xa25-1{fill:#7a982c;}.xa25-2{fill:#000000;}.xa25-3{fill:#cc2f76;}.xa25-4{fill:#b2622b;}.xa25-5{fill:#ff6aa5;}.xa25-6{fill:#7f5018;}.xa25-7{fill:#6e12ff;}.xa25-8{fill:#fad000;}.xa25-9{fill:#6d5800;}.xa25-10{fill:#9b8100;}.xa25-11{fill:#ffffff;}.xa25-12{fill:#e70059;}</style></defs><rect class="xa25-1" x="12" y="20" height="1"/><path class="xa25-1" d="M10,16h0v3h0V16Z"/><rect class="xa25-1" x="14" y="17" width="1"/><rect class="xa25-1" x="11" y="19" height="1"/><path class="xa25-1" d="M20,23V20H18v2h1v3h2V23Z"/><path class="xa25-1" d="M6,27H7V26H8V25h2V22h1V20H9V19H8V16H8V15H8V11H9V10h1V9h1V8h7V9h1v1h1v1h1v6h1V16h1v1h1v1h1v5H24v8H23v1H21v1h8V0H0V33H6V27Z"/><path class="xa25-2" d="M7,32V27H6v6H7Z"/><path class="xa25-3" d="M8,30H7v1H8Z"/><path class="xa25-3" d="M8,27H7v1H8Z"/><rect class="xa25-2" x="7" y="26" width="1" height="1"/><path class="xa25-3" d="M9,31h4V30H9Z"/><path class="xa25-3" d="M9,28h4V27H9Z"/><polygon class="xa25-3" points="12 24 11 24 11 25 13 25 13 24 12 24"/><path class="xa25-2" d="M10,25H8v1h2Z"/><path class="xa25-2" d="M11,24V22H10v3h1Z"/><rect class="xa25-2" x="13" y="24" width="1" height="1"/><path class="xa25-4" d="M15,24h1V23H13v1h1v1h1Z"/><path class="xa25-2" d="M15,26V25H14v2h1Z"/><rect class="xa25-2" x="15" y="24" width="1" height="1"/><path class="xa25-3" d="M18,25V24H16v1Z"/><path class="xa25-3" d="M14,27v1h6V27H14Z"/><path class="xa25-3" d="M14,31h6V30H14Z"/><path class="xa25-2" d="M19,22H18v3h1V22Z"/><path class="xa25-2" d="M22,32h1V31H22V25H19v1h2v1H20v4H14V27H13v4H9V27H8v6H9V32H20v1h1V32Z"/><path class="xa25-3" d="M23,27H22v1h1Z"/><path class="xa25-3" d="M22,30v1h1V30Z"/><path class="xa25-2" d="M23,26v5h1V25H23Z"/><path class="xa25-4" d="M19,19V16h1V15H18v1H16V15H15V14H14v1H13v1H11V15H9v1h1v3h1v1h1v1h1v1h3V21h1V20h1V19Zm-5-2V16h1v1H14Zm2,3H13V19H12V18h1v1h3Z"/><path class="xa25-4" d="M13,13h3V12h1V11H15V10H14v1H13v1h0Z"/><rect class="xa25-4" x="18" y="13" width="1" height="1"/><path class="xa25-2" d="M19,16v3h1V16Z"/><path class="xa25-2" d="M19,19H18v1h1Z"/><path class="xa25-2" d="M12,23v1h1V23h3v1h1V22h1V20H17v1H16v1H13V21H12V20H11v2h1Z"/><rect class="xa25-2" x="14" y="10" width="1"/><path class="xa25-2" d="M11,19H10v1h1V19Z"/><path class="xa25-2" d="M10,16H9v3h1V16Z"/><rect class="xa25-2" x="8" y="15" height="1"/><polygon class="xa25-2" points="15 16 15 16 14 16 14 17 15 17 15 16"/><path class="xa25-5" d="M19,32H9v1H20V32Z"/><path class="xa25-5" d="M14,30h6V28H14Z"/><path class="xa25-5" d="M9,29v1h4V28H9Z"/><path class="xa25-5" d="M16,25H15v2h6V26H19V25H16Z"/><path class="xa25-5" d="M9,27h5V25H10v1H8v1Z"/><path class="xa25-5" d="M23,29V28H22v2h1Z"/><path class="xa25-5" d="M23,26V25H22v2h1Z"/><path class="xa25-5" d="M7,31v2H8V31Z"/><path class="xa25-5" d="M8,29V28H7v2H8Z"/><path class="xa25-5" d="M12,24V22H11v2Z"/><path class="xa25-5" d="M18,23V22H17v2h1Z"/><rect class="xa25-6" x="12" y="12" width="1" height="1"/><rect class="xa25-6" x="16" y="12" width="1" height="1"/><rect class="xa25-6" x="18" y="13" width="1"/><rect class="xa25-2" x="13" y="19" width="3" height="1"/><rect class="xa25-2" x="12" y="18" width="1" height="1"/><path class="xa25-7" d="M9,19V14h2V13h1V12h1V11h1V10h1v1h2v2h2v1h1v4h1V11H20V10H19V9H18V8H11V9H10v1H9v1H8v8H9v1h1V19Z"/><path class="xa25-7" d="M19,19v1h1V19Z"/><path class="xa25-2" d="M11,16h2V15h1V14h1v1h1v1h2V15h2V14H18V13H11v1H9v1h2Z"/><path class="xa25-8" d="M23,20V18H22v2H21V18H20v3h5V18H24v2Z"/><path class="xa25-2" d="M21,20h1V18H21v2Z"/><path class="xa25-2" d="M23,19v1h1V18H23Z"/><path class="xa25-9" d="M22,23H21v2h3V23H22Z"/><path class="xa25-10" d="M21,23V21H20v2Z"/><path class="xa25-10" d="M24,21.222V23h1V21H24Z"/><path class="xa25-2" d="M23,22V21H22v1Z"/><path class="xa25-11" d="M22,22V21H21v1Z"/><path class="xa25-11" d="M24,22V21H23v1Z"/><path class="xa25-8" d="M22,18V17H21v1Z"/><rect class="xa25-8" x="23" y="17" width="1" height="1"/><polygon class="xa25-10" points="23 18 23 17 23 16 22 16 22 17 22 18 23 18"/><path class="xa25-12" d="M22,23h1V22H22Z"/><path class="xa25-2" d="M21,22v1h1V22Z"/><path class="xa25-2" d="M23,22v1h1V22Z"/></svg>