<svg xmlns="http://www.w3.org/2000/svg" viewBox="0 0 29 33"><defs><style>polygon,rect,path{shape-rendering:crispedges;}.da56-1{fill:#db5a8e;}.da56-2{fill:#000000;}.da56-3{fill:#825fff;}.da56-4{fill:#e8b795;}.da56-5{fill:#4922aa;}.da56-6{fill:#8e703c;}.da56-7{fill:#8e703c;}.da56-8{fill:#ffffff;}.da56-9{fill:#e70059;}.da56-10{fill:#0079bc;}.da56-11{fill:#fad000;}</style></defs><path class="da56-1" d="M0,33H6V27H7V26H8V25h2V24h2V21H11V20H10V19H9V16H8V14H9V11h1V10h1V9h7v1h1v1h1v3h1v2H20v3H19v1H18v1H17v3h2v1h2v1h1v1h1v6h6V0H0Z"/><path class="da56-2" d="M23,27H22v3H21V27H20v6h1V31h1v2h1V27Z"/><rect class="da56-2" x="21" y="26" width="1" height="1"/><path class="da56-3" d="M21,28v2h1V27H21Z"/><path class="da56-4" d="M21,31v2h1V31Z"/><path class="da56-2" d="M20,26h1V25H19v1Z"/><path class="da56-3" d="M16,32H12v1h5V32Z"/><rect class="da56-3" x="16" y="30" width="1" height="1"/><path class="da56-3" d="M20,27h1V26H19V25H17v1H16v1H13V26H12V25H10v1H8v1H9v6h1V30h1V29h1V28h5v1h1v1h1v3h1V27Z"/><rect class="da56-3" x="12" y="30" width="1" height="1"/><path class="da56-2" d="M18,25h1V24H17v1Z"/><rect class="da56-2" x="16" y="25" width="1" height="1"/><path class="da56-2" d="M13,26v1h3V26H13Z"/><path class="da56-2" d="M13,23V22H12v2h1Z"/><path class="da56-4" d="M13,25v1h3V25h1V24H16V23H13v1H12v1Z"/><rect class="da56-2" x="12" y="25" width="1" height="1"/><path class="da56-2" d="M12,24H10v1h2Z"/><path class="da56-2" d="M10,25H8v1h2Z"/><path class="da56-2" d="M9,27H8v3H7V27H6v6H7V31H8v2H9V27Z"/><rect class="da56-2" x="7" y="26" width="1" height="1"/><path class="da56-3" d="M7,30H8V27H7v3Z"/><path class="da56-4" d="M7,31v2H8V31Z"/><path class="da56-5" d="M19,30H18V29H17V28H12v1H11v1H10v3h2V32h5v1h2V30Zm-6,1H12V30h1Zm4,0H16V30h1Z"/><path class="da56-2" d="M20,16h1V15H20Z"/><path class="da56-2" d="M19,13v1h1V12H19Z"/><rect class="da56-4" x="13" y="20" width="1" height="1"/><rect class="da56-4" x="15" y="20" width="1" height="1"/><rect class="da56-4" x="10" y="11" width="1" height="1"/><path class="da56-4" d="M18,12v1h1V11H18Z"/><rect class="da56-4" x="11" y="10" width="1" height="1"/><path class="da56-4" d="M16,17V16H15v1H14V16H13v1H10v1h1v1h1V18h5v1h1V18h1V17H16Z"/><rect class="da56-4" x="17" y="10" width="1" height="1"/><rect class="da56-4" x="14" y="15" width="1" height="1"/><path class="da56-4" d="M12,13h1v1h3V12h1V11H16V10H13v1H12v2Z"/><path class="da56-2" d="M19,17h1V16H19Z"/><path class="da56-2" d="M16,23v1h1V22H16Z"/><path class="da56-2" d="M10,13V12H9v2h1Z"/><path class="da56-2" d="M10,16H9v1h1Z"/><path class="da56-2" d="M8,15v1H9V15Z"/><rect class="da56-2" x="14" y="16" width="1" height="1"/><path class="da56-6" d="M16,12v1h2V12H16Z"/><path class="da56-6" d="M12,12H10v1h2Z"/><path class="da56-7" d="M13,23h3V22h1V21h1V20h1V19h1V17H19v1H18v1H16v2H15V20H14v1H13V19H11V18H10V17H9v2h1v1h1v1h1v1h1Z"/><path class="da56-2" d="M12,18v1h1V18Z"/><path class="da56-2" d="M16,18v1h1V18Z"/><path class="da56-2" d="M15,20h1V19H15Z"/><path class="da56-2" d="M15,19V18H14v1Z"/><path class="da56-2" d="M13,19v1h1V19Z"/><path class="da56-8" d="M14,18H13v1h1Z"/><path class="da56-8" d="M15,18v1h1V18Z"/><rect class="da56-9" x="14" y="19" width="1" height="1"/><path class="da56-10" d="M20,12V11H19v1Z"/><rect class="da56-10" x="18" y="10" width="1" height="1"/><path class="da56-10" d="M12,11h1V10h3v1h1V10h1V9H11v1h1Z"/><path class="da56-10" d="M18,12V11H17v1Z"/><path class="da56-10" d="M12,11H11v1h1Z"/><rect class="da56-10" x="10" y="10" width="1" height="1"/><path class="da56-10" d="M10,11H9v1h1Z"/><path class="da56-11" d="M19,15v1h1V15h1V14H19Z"/><path class="da56-11" d="M16,14h3V13H16Z"/><path class="da56-2" d="M16,14v2h3V14H16Z"/><path class="da56-11" d="M18,16H16v1h3V16Z"/><path class="da56-11" d="M13,14v2h1V15h1v1h1V14Z"/><path class="da56-11" d="M13,14V13H10v1h3Z"/><path class="da56-2" d="M13,16V14H10v2h3Z"/><path class="da56-11" d="M13,17V16H10v1h3Z"/><path class="da56-11" d="M10,15V14H8v1H9v1h1Z"/></svg>