<svg xmlns="http://www.w3.org/2000/svg" viewBox="0 0 29 33"><defs><style>polygon,rect,path{shape-rendering:crispedges;}.bb295-1{fill:#7a982c;}.bb295-2{fill:#000000;}.bb295-3{fill:#316a6d;}.bb295-4{fill:#ffffff;}.bb295-5{fill:#a56e49;}.bb295-6{fill:#8e4717;}.bb295-7{fill:#8e4717;}.bb295-8{fill:#004a77;}</style></defs><rect class="bb295-1" x="12" y="20"/><path class="bb295-1" d="M0,33H29V0H0Zm6-1V24H7V23H8v1H9v1h1V24h1V23h1V21H11V20H10V19H9V16H8V15H9v1H9V11h1V10H9V9h1V8h2V7h1V8h3V9h1V8h1V9h1v1h1v5h1v1H20v3H19v1H18v1H17v2h1v1h1v1h2v1h1v1h1v6H6Z"/><path class="bb295-1" d="M10,18V16h0v3h0Z"/><rect class="bb295-1" x="12" y="8" width="1" height="1"/><path class="bb295-2" d="M22,33h1V27H22v6Z"/><rect class="bb295-2" x="21" y="26" width="1" height="1"/><path class="bb295-3" d="M21,28v5h1V27H21Z"/><path class="bb295-2" d="M21,28V27H20v6h1V28Z"/><path class="bb295-2" d="M20,26h1V25H19v1Z"/><path class="bb295-3" d="M18,26v3H17v4h3V27h1V26H19V25H18Z"/><rect class="bb295-4" x="16" y="24" width="1" height="1"/><path class="bb295-2" d="M17,29H16v4h1V29Z"/><rect class="bb295-4" x="15" y="23" width="1" height="1"/><path class="bb295-4" d="M16,29h1V26H16V25H13v1H12v3h1v4h1V32h1v1h1V29Zm-1,2H14V30h1Zm0-2H14V28h1Zm0-2H14V26h1Z"/><rect class="bb295-2" x="14" y="26" width="1" height="1"/><rect class="bb295-2" x="14" y="28" width="1" height="1"/><rect class="bb295-2" x="14" y="30" width="1" height="1"/><path class="bb295-2" d="M14,32v1h1V32Z"/><rect class="bb295-4" x="13" y="23" width="1" height="1"/><rect class="bb295-4" x="12" y="24" width="1" height="1"/><path class="bb295-2" d="M13,29H12v4h1V29Z"/><path class="bb295-2" d="M11,26v3h1V26h1V25H12V24h1V23h1v1H13v1h3V24H15V23h1v1h1v1H16v1h1v3h1V25h1V24H18V23H17V21H16v1H13V21H12v2H11v1H10v1h1Z"/><path class="bb295-3" d="M9,27v6h3V29H11V25H10v2Z"/><path class="bb295-2" d="M9,27H8v6H9V27Z"/><path class="bb295-4" d="M8,27H7v1H8Z"/><path class="bb295-3" d="M8,28H7v5H8V28Z"/><path class="bb295-2" d="M7,32V24H6v9H7Z"/><rect class="bb295-2" x="20" y="15" width="1" height="1"/><rect class="bb295-5" x="18" y="12" width="1" height="1"/><polygon class="bb295-5" points="14 20 13 20 13 21 13 21 14 21 14 20"/><rect class="bb295-5" x="11" y="13" height="1"/><rect class="bb295-5" x="10" y="12" width="1" height="1"/><path class="bb295-5" d="M10,16v3h2V18h5v1h2V16h1V15H18v1H16V15H15V14H14v1H13v1H11V15H9v1Zm4,0h1v1H14Z"/><path class="bb295-5" d="M18,12V11H17V10H16v1H11v1h2v1h3V12Z"/><rect class="bb295-5" x="15" y="20" width="1" height="1"/><polygon class="bb295-5" points="12 19 12 20 12 20 12 20 13 20 13 19 12 19"/><rect class="bb295-5" x="16" y="19" width="1" height="1"/><path class="bb295-2" d="M19,17v2h1V16H19Z"/><path class="bb295-2" d="M18,20h1V19H18Z"/><polygon class="bb295-2" points="17 21 17 21 18 21 18 20 17 20 17 21"/><rect class="bb295-2" x="11" y="20" width="1" height="1"/><rect class="bb295-2" x="10" y="10" height="1"/><path class="bb295-2" d="M10,19h0v1h1V19Z"/><path class="bb295-2" d="M10,16H9v3h1V16Z"/><rect class="bb295-2" x="8" y="15" width="1" height="1"/><rect class="bb295-2" x="14" y="16" width="1" height="1"/><rect class="bb295-6" x="18" y="13" width="1" height="1"/><path class="bb295-6" d="M16,12v1h2V12Z"/><rect class="bb295-6" x="10" y="13" width="1" height="1"/><path class="bb295-6" d="M11,12h0v1h2V12Z"/><path class="bb295-7" d="M18,19H17v1h1Z"/><polygon class="bb295-7" points="17 20 16 20 16 21 17 21 17 21 17 20"/><path class="bb295-7" d="M15,20H14v1H13v1h3V21H15Z"/><path class="bb295-7" d="M14,19h2V18H12v1h2Z"/><polygon class="bb295-7" points="13 21 13 20 12 20 12 20 12 21 13 21 13 21"/><path class="bb295-7" d="M12,20V19H11v1Z"/><path class="bb295-2" d="M15,20h1V19H13v1h2Z"/><path class="bb295-2" d="M17,19V18H16v1Z"/><path class="bb295-5" d="M7,27H9V25H8V24H7v3Z"/><path class="bb295-2" d="M10,27V25H9v2Z"/><rect class="bb295-2" x="8" y="24" width="1" height="1"/><rect class="bb295-2" x="7" y="23" width="1" height="1"/><path class="bb295-8" d="M10,13V12h1V11h5V10h1v1h1v1h1v2h1V10H19V9H18V8H17V9H16V8H13V9H12V8h1V7H12V8H10V9H9v1h1v1H9v3h1Z"/><path class="bb295-2" d="M11,16h2V15h1V14h1v1h1v1h2V15h2V14H18V13H11v1H9v1h2Z"/></svg>