<svg xmlns="http://www.w3.org/2000/svg" viewBox="0 0 29 33"><defs><style>polygon,rect,path{shape-rendering:crispedges;}.ib269-1{fill:#29834f;}.ib269-2{fill:#000000;}.ib269-3{fill:#ce8452;}.ib269-4{fill:#316a6d;}.ib269-5{fill:#316a6d;}.ib269-6{fill:#6e12ff;}.ib269-7{fill:#ffffff;}</style></defs><path class="ib269-1" d="M0,33H6V27H7V26H8V25h2V24h2V22H11V21H10V20H9V18H8V12H9V11h1V10h1V9h7v1h1v1h1v2h1v5H20v2H19v1H18v1H17v2h2v1h2v1h1v1h1v6h6V0H0Z"/><path class="ib269-2" d="M23,27H22v6h1V27Z"/><path class="ib269-3" d="M22,27H21v6h1V27Z"/><rect class="ib269-2" x="21" y="26" width="1" height="1"/><path class="ib269-2" d="M21,27H20v6h1V27Z"/><path class="ib269-3" d="M20,27h1V26H19V25H17V24H16V23H13v1H12v1H10v1H8v1H9v6h5V29h1v4h5V27Zm-8,2H11V28h1Zm6,0H17V28h1Z"/><path class="ib269-2" d="M20,26h1V25H19v1Z"/><rect class="ib269-2" x="17" y="28" width="1" height="1"/><path class="ib269-2" d="M18,25h1V24H17v1Z"/><path class="ib269-2" d="M16,24h1V23H16Z"/><path class="ib269-2" d="M15,29H14v4h1V29Z"/><path class="ib269-2" d="M13,23H12v1h1Z"/><rect class="ib269-2" x="11" y="28" width="1" height="1"/><path class="ib269-2" d="M12,24H10v1h2Z"/><path class="ib269-2" d="M10,25H8v1h2Z"/><path class="ib269-2" d="M9,27H8v6H9V27Z"/><path class="ib269-3" d="M8,27H7v6H8V27Z"/><rect class="ib269-2" x="7" y="26" width="1" height="1"/><path class="ib269-2" d="M7,27H6v6H7V27Z"/><path class="ib269-3" d="M17,17H16V16H15v1H14V16H13v1H11v1h1v1h1V18h3v1h1V18h1V17Z"/><rect class="ib269-3" x="9" y="15" width="1" height="1"/><path class="ib269-3" d="M14,14h1V11H14v1H13v2Z"/><rect class="ib269-3" x="14" y="15" width="1" height="1"/><rect class="ib269-3" x="11" y="11" width="1" height="1"/><rect class="ib269-3" x="19" y="15" width="1" height="1"/><rect class="ib269-2" x="9" y="14" width="1" height="1"/><rect class="ib269-2" x="14" y="16" width="1" height="1"/><path class="ib269-4" d="M18,12H16v1h2Z"/><rect class="ib269-4" x="11" y="12" width="1" height="1"/><path class="ib269-5" d="M15,18H13v1h3V18Z"/><path class="ib269-5" d="M19,16v2h1V16Z"/><path class="ib269-5" d="M14,23h3V22h1V21h1V18H17v1H16v1H13V19H12V18H10v3h1v1h1v1h2Z"/><path class="ib269-5" d="M10,17V16H9v2h1Z"/><rect class="ib269-2" x="13" y="19" width="3" height="1"/><path class="ib269-6" d="M9,15V14h2V11h1v2h1V12h1V11h1v3h1V12h2v2h1v1h1v3h1V13H20V11H19V10H18V9H11v1H10v1H9v1H8v6H9V15Z"/><path class="ib269-6" d="M11,16H10v2h1V16Z"/><path class="ib269-6" d="M18,16v2h1V16Z"/><path class="ib269-6" d="M9,18v2h1V18Z"/><path class="ib269-6" d="M19,19v1h1V18H19Z"/><path class="ib269-7" d="M13,13H11v1h2Z"/><path class="ib269-7" d="M11,17h2V16H11Z"/><path class="ib269-7" d="M11,15V14H10v2h1Z"/><path class="ib269-2" d="M11,16h2V14H11v2Z"/><path class="ib269-7" d="M19,16V14H18v2Z"/><path class="ib269-7" d="M18,13H16v1h2Z"/><path class="ib269-7" d="M16,17h2V16H16Z"/><path class="ib269-7" d="M13,14v2h1V15h1v1h1V14H13Z"/><path class="ib269-2" d="M18,16V14H16v2Z"/></svg>