<svg xmlns="http://www.w3.org/2000/svg" viewBox="0 0 29 33"><defs><style>polygon,rect,path{shape-rendering:crispedges;}.ia93-1{fill:#b4bd09;}.ia93-2{fill:#000000;}.ia93-3{fill:#00774c;}.ia93-4{fill:#efcaaf;}.ia93-5{fill:#ffffff;}.ia93-6{fill:#ffffff;}.ia93-7{fill:#8e4717;}.ia93-8{fill:#cc3232;}</style></defs><path class="ia93-1" d="M6,32V27H7V26H8V25h2V24h2V21H10v1H9V21H8V20H9V17H8V12H9V10h1V9h1V8h7V9h1v1h1v2h1v6H20v2h1v1H20v1H19V21H17v3h2v1h2v1h1v1h1v6h6V0H0V33H6Z"/><path class="ia93-2" d="M23,27H22v6h1V27Z"/><rect class="ia93-2" x="21" y="26" width="1" height="1"/><path class="ia93-3" d="M22,27H21v6h1V27Z"/><path class="ia93-2" d="M21,27H20v6h1V27Z"/><path class="ia93-2" d="M20,26h1V25H19v1Z"/><path class="ia93-3" d="M19,32V31H18v1H17V29h1V28h1v1h1V27h1V26H19V25H17v1H16v1H13V26H12V25H10v1H9v3h1V28h1v1h1v3H11V31H10v1H9v1H20V32Zm-3-2v1H15v1H13V28h2v1h1Z"/><rect class="ia93-3" x="10" y="29" width="1" height="1"/><path class="ia93-3" d="M15,29H14v2h1V29Z"/><rect class="ia93-3" x="18" y="29" width="1" height="1"/><path class="ia93-2" d="M18,25h1V24H17v1Z"/><rect class="ia93-2" x="16" y="25" width="1" height="1"/><path class="ia93-2" d="M13,26v1h3V26H13Z"/><path class="ia93-2" d="M13,23h3v1h1V21H16v1H13V21H12v3h1Z"/><path class="ia93-4" d="M13,25v1h3V25h1V24H16V23H13v1H12v1Z"/><rect class="ia93-2" x="12" y="25" width="1" height="1"/><path class="ia93-2" d="M12,24H10v1h2Z"/><path class="ia93-2" d="M9,31V26h1V25H8v1H7v1H8v6H9V31Z"/><path class="ia93-3" d="M8,27H7v6H8V27Z"/><path class="ia93-2" d="M7,27H6v6H7V27Z"/><path class="ia93-5" d="M19,30H18V29H17v3h1V31h1v1h1V29H19Z"/><rect class="ia93-5" x="18" y="28" width="1" height="1"/><path class="ia93-5" d="M15,30v1h1V29H15Z"/><path class="ia93-5" d="M14,30V29h1V28H13v4h2V31H14Z"/><path class="ia93-5" d="M9,32h1V31h1v1h1V29H11v1H10V29H9v3Z"/><rect class="ia93-5" x="10" y="28" width="1" height="1"/><path class="ia93-4" d="M18,14V13H16v1h2Z"/><path class="ia93-4" d="M13,22h3V21h1V20h1V19h1V16h1V15H16V14H14v2h1v1H14V16H13v1H11V16H10v3h1v1h1v1h1Zm0-3h3V18h1v1H16v1H13Z"/><path class="ia93-4" d="M16,13V12h1V11H16V10H15v1H14v1H13v2h1V13Z"/><path class="ia93-2" d="M19,16v3h1V16Z"/><rect class="ia93-2" x="18" y="19" width="1" height="1"/><path class="ia93-2" d="M17,20v1h1V20Z"/><path class="ia93-2" d="M11,20v1h1V20Z"/><rect class="ia93-2" x="10" y="19" width="1" height="1"/><path class="ia93-2" d="M10,18H9v1h1Z"/><rect class="ia93-2" x="14" y="16" width="1" height="1"/><path class="ia93-6" d="M18,14v1h1V14Z"/><path class="ia93-2" d="M17,14H16v1h2V14Z"/><rect class="ia93-7" x="18" y="13" width="1" height="1"/><path class="ia93-7" d="M13,13H12v1h1Z"/><rect class="ia93-2" x="13" y="19" width="3" height="1"/><rect class="ia93-2" x="16" y="18" width="1" height="1"/><path class="ia93-8" d="M19,20H18v1h1v1h1V21h1V20H20V19H19Z"/><path class="ia93-8" d="M10,20V19H9v1H8v1H9v1h1V21h1V20Z"/><path class="ia93-8" d="M19,12H18v1h1v2h1v3h1V12H20V11H19Z"/><path class="ia93-8" d="M10,17V14H9V13h1v1h2V13h1V12h1V11h1V10h1v1h1v1h1V11h1V9H18V8H11V9H10v1H9v2H8v5H9v1h1Z"/><path class="ia93-2" d="M12,14H10v2h1v1h2V16h1V14H12Z"/><rect class="ia93-2" x="14" y="13" width="2" height="1"/><polygon class="ia93-2" points="16 13 18 13 18 12 17 12 16 12 16 13"/><rect class="ia93-2" x="18" y="11" width="1" height="1"/><path class="ia93-2" d="M20,11V10H19v1Z"/><rect class="ia93-2" x="9" y="13" width="1" height="1"/></svg>