<svg xmlns="http://www.w3.org/2000/svg" viewBox="0 0 29 33"><defs><style>polygon,rect,path{shape-rendering:crispedges;}.wa157-1{fill:#e55b35;}.wa157-2{fill:#95f9ed;}.wa157-3{fill:#000000;}.wa157-4{fill:#b2622b;}.wa157-5{fill:#009b97;}.wa157-6{fill:#ffffff;}.wa157-7{fill:#004a77;}.wa157-8{fill:#d8be00;}.wa157-9{fill:#c9a717;}</style></defs><path class="wa157-1" d="M0,33H6V27H7V26H8V25h2V22h1V20H10V19H9V16H8V15H9V14H8V13H4V12H6V11H8V10h2V9h1V8h1V7h1V6h1V5h1V6h1V7h1V8h1V9h1v1h2v1h2v1h2v1H21v1H20v1h1v1H20v3H19v1H18v2h1v3h2v1h1v1h1v6h6V0H0Z"/><path class="wa157-2" d="M19,26v1H18V26H17V25h1V23H17v1H16v2H15v1H14v3h1v1h3V30h1v1h1V29H19V28h1V27h1V26H19Zm-1,3H17v1H16V29H15V28h1V27h1v1h1Z"/><rect class="wa157-2" x="21" y="32" width="1" height="1"/><path class="wa157-2" d="M21,30v1h1V29H21Z"/><rect class="wa157-2" x="21" y="27" width="1" height="1"/><path class="wa157-2" d="M17,32H15v1h3V32Z"/><rect class="wa157-2" x="19" y="32" width="1" height="1"/><path class="wa157-2" d="M13,32H11v1h3V32Z"/><rect class="wa157-2" x="9" y="32" width="1" height="1"/><rect class="wa157-2" x="7" y="27" width="1" height="1"/><rect class="wa157-2" x="7" y="32" width="1" height="1"/><path class="wa157-2" d="M7,30v1H8V29H7Z"/><path class="wa157-2" d="M9,27v1h1v1H9v2h1V30h1v1h2V30H12V29H11V28h1V27h2V26H13V24H12V23H11v2h1v1H11v1H10V26H8v1Z"/><path class="wa157-3" d="M23,27H22v6h1V27Z"/><rect class="wa157-3" x="21" y="26" width="1" height="1"/><path class="wa157-3" d="M21,31V27H20v4H14V27H13v4H9V27H8v6H9V32H20v1h1V31Z"/><path class="wa157-3" d="M20,26h1V25H19v1Z"/><path class="wa157-3" d="M18,24v1h1V22H18v2Z"/><path class="wa157-3" d="M17,22h1V21H17Z"/><path class="wa157-3" d="M17,24V22H16v2Z"/><path class="wa157-3" d="M15,25h1V24H15Z"/><path class="wa157-3" d="M15,26V25H14v2h1Z"/><path class="wa157-3" d="M14,24H13v1h1Z"/><path class="wa157-4" d="M14,25h1V24h1V23H13v1h1Z"/><path class="wa157-3" d="M12,21H11v1h1Z"/><path class="wa157-3" d="M11,24V22H10v3h1Z"/><path class="wa157-3" d="M10,25H8v1h2Z"/><rect class="wa157-3" x="7" y="26" width="1" height="1"/><path class="wa157-3" d="M7,31V27H6v6H7V31Z"/><rect class="wa157-3" x="20" y="15" width="1" height="1"/><path class="wa157-4" d="M10,17v1h1v1h1v1h1v1h3V20h1V19h1V18h1V16h1V15H16V14H13v1H9v1h1Zm4-1h1v1H14Zm0,3h1v1H14Z"/><path class="wa157-3" d="M13,22H12v2h1V22Z"/><rect class="wa157-3" x="8" y="15" width="1" height="1"/><rect class="wa157-3" x="14" y="16" width="1" height="1"/><path class="wa157-5" d="M10,30v1h1V30Z"/><path class="wa157-5" d="M10,32v1h1V32Z"/><path class="wa157-5" d="M12,28H11v1h1v1h1V27H12Z"/><polygon class="wa157-5" points="10 27 11 27 11 26 12 26 12 25 11 25 10 25 10 26 10 27"/><path class="wa157-5" d="M15,26h1V25H15Z"/><path class="wa157-5" d="M13,25v1h1V25Z"/><polygon class="wa157-5" points="17 27 16 27 16 28 15 28 15 29 16 29 16 30 17 30 17 29 18 29 18 28 17 28 17 27"/><polygon class="wa157-5" points="17 25 17 26 18 26 18 27 19 27 19 26 19 25 18 25 17 25"/><path class="wa157-5" d="M7,29H8V28H7Z"/><path class="wa157-5" d="M10,28H9v1h1Z"/><path class="wa157-5" d="M21,29h1V28H21Z"/><path class="wa157-5" d="M19,29h1V28H19Z"/><path class="wa157-5" d="M21,32h1V31H21Z"/><path class="wa157-5" d="M7,32H8V31H7Z"/><path class="wa157-5" d="M14,30v1h1V30Z"/><path class="wa157-5" d="M14,32v1h1V32Z"/><path class="wa157-5" d="M18,30v1h1V30Z"/><path class="wa157-5" d="M18,32v1h1V32Z"/><path class="wa157-5" d="M12,23V22H11v1Z"/><path class="wa157-5" d="M17,23h1V22H17Z"/><path class="wa157-6" d="M18,14v1h1V14Z"/><path class="wa157-6" d="M12,15h1V14H12Z"/><path class="wa157-3" d="M17,14H16v1h2V14Z"/><path class="wa157-3" d="M11,14H10v1h2V14Z"/><path class="wa157-7" d="M12,22h1v1h3V22h1V21h1V20h1V19h1V16H19v2H18v1H17v1H16v1H13V20H12V19H11V18H10V16H9v3h1v1h1v1h1Z"/><rect class="wa157-3" x="14" y="19" width="1" height="1"/><path class="wa157-8" d="M19,15h1V14H19Z"/><path class="wa157-8" d="M10,14H9v1h1Z"/><path class="wa157-9" d="M11,14H21V13h4V12H23V11H21V10H19V9H18V8H17V7H16V6H15V5H14V6H13V7H12V8H11V9H10v1H8v1H6v1H4v1H8v1h3Z"/></svg>