<svg xmlns="http://www.w3.org/2000/svg" viewBox="0 0 29 33"><defs><style>polygon,rect,path{shape-rendering:crispedges;}.xa26-1{fill:#db5a8e;}.xa26-2{fill:#000000;}.xa26-3{fill:#db5800;}.xa26-4{fill:#c18d59;}.xa26-5{fill:#841f00;}.xa26-6{fill:#316a6d;}.xa26-7{fill:#ffce00;}.xa26-8{fill:#f9e100;}.xa26-9{fill:#00bc55;}.xa26-10{fill:#ffffff;}.xa26-11{fill:#ea1500;}.xa26-12{fill:#005e12;}.xa26-13{fill:#008e21;}</style></defs><path class="xa26-1" d="M20,23V19H19v1H18v2h1v3h2V23Z"/><path class="xa26-1" d="M0,33H6V27H7V26H8V25h2V22h1V20H10V19H9V18H8V12H9V10h1V9h1V8h7V9h1v1h1v5h1v1H20v2h1V17h3v1h1v5H24v8H23v1H21v1h8V0H0Z"/><path class="xa26-2" d="M7,30V27H6v6H7V30Z"/><path class="xa26-3" d="M7,30H8V27H7v3Z"/><path class="xa26-3" d="M7,31v2H8V31Z"/><rect class="xa26-2" x="7" y="26" width="1" height="1"/><path class="xa26-3" d="M9,26v5h3V30h1V27H12V26h1v1h1V25H13V24H11v1H10v1Zm2,2v1H10V28Z"/><rect class="xa26-3" x="11" y="22" width="1" height="1"/><path class="xa26-2" d="M10,26V25H8v1h2Z"/><path class="xa26-2" d="M11,24V22H10v3h1Z"/><rect class="xa26-2" x="13" y="24" width="1" height="1"/><path class="xa26-4" d="M15,24h1V23H13v1h1v1h1Z"/><path class="xa26-2" d="M15,26V25H14v2h1Z"/><rect class="xa26-2" x="15" y="24" width="1" height="1"/><rect class="xa26-3" x="17" y="22" width="1" height="1"/><path class="xa26-3" d="M18,24H16v1H15v2H14v1h1v1H14v2h2V30h1v1h3V26H19V25H18Zm-1,3H16V26h1Zm2,1v1H18V28Z"/><path class="xa26-2" d="M19,22H18v3h1V22Z"/><path class="xa26-3" d="M18,32H15v1h4V32Z"/><path class="xa26-3" d="M13,32H10v1h4V32Z"/><path class="xa26-2" d="M22,32h1V31H22V25H19v1h2v1H20v4H14V27H13v4H9V27H8v6H9V32H20v1h1V32Z"/><path class="xa26-3" d="M22,30v1h1V30Z"/><path class="xa26-3" d="M23,28V26H22v3h1Z"/><path class="xa26-2" d="M23,26v5h1V25H23Z"/><rect class="xa26-2" x="20" y="15" width="1" height="1"/><rect class="xa26-4" x="19" y="15" width="1" height="1"/><path class="xa26-4" d="M14,14h1V13h1V12h3V11H18V10H16v1H14v1H13v1h1Z"/><path class="xa26-4" d="M12,21h1v1h3V21h1V20h1V19h1V16H16V15H13v1H10v3h1v1h1Zm2-5h1v1H14Zm-2,2h1v1h3v1H13V19H12Z"/><rect class="xa26-4" x="9" y="15" width="1" height="1"/><path class="xa26-2" d="M19,17v2h1V16H19Z"/><rect class="xa26-2" x="18" y="19" width="1" height="1"/><path class="xa26-2" d="M12,23v1h1V23h3v1h1V22h1V20H17v1H16v1H13V21H12V20H11v2h1Z"/><rect class="xa26-2" x="10" y="19" width="1" height="1"/><path class="xa26-2" d="M10,16H9v3h1V16Z"/><rect class="xa26-2" x="14" y="16" width="1" height="1"/><rect class="xa26-5" x="18" y="28" width="1" height="1"/><path class="xa26-5" d="M16,30v1h1V30Z"/><path class="xa26-5" d="M15,28H14v1h1Z"/><path class="xa26-5" d="M14,32v1h1V32Z"/><rect class="xa26-5" x="16" y="26" width="1" height="1"/><path class="xa26-5" d="M12,31h1V30H12Z"/><rect class="xa26-5" x="10" y="28" width="1" height="1"/><rect class="xa26-5" x="12" y="26" width="1" height="1"/><path class="xa26-5" d="M21,27V26H20v1Z"/><path class="xa26-5" d="M9,32v1h1V32Z"/><path class="xa26-5" d="M19,32v1h1V32Z"/><path class="xa26-5" d="M23,29H22v1h1Z"/><path class="xa26-5" d="M23,25H22v1h1Z"/><path class="xa26-5" d="M7,31H8V30H7Z"/><path class="xa26-5" d="M9,27V26H8v1Z"/><path class="xa26-5" d="M18,23H17v1h1Z"/><path class="xa26-5" d="M11,23v1h1V23Z"/><path class="xa26-6" d="M16,13h3V12H16Z"/><rect class="xa26-2" x="13" y="19" width="3" height="1"/><rect class="xa26-2" x="12" y="18" width="1" height="1"/><path class="xa26-7" d="M9,15V14h1V13h3V12h1V11h2V10h2v1h1v3h1V10H19V9H18V8H11V9H10v1H9v2H8v6H9V15Z"/><path class="xa26-8" d="M13,14H10v2h3V15h1V14Z"/><path class="xa26-8" d="M19,14H15v1h1v1h3V14Z"/><path class="xa26-2" d="M16,13H15v1h4V13H16Z"/><path class="xa26-2" d="M13,14h1V13H10v1h3Z"/><path class="xa26-2" d="M19,15h1V14H19Z"/><path class="xa26-2" d="M10,14H9v1h1Z"/><path class="xa26-2" d="M14,14v1h1V14Z"/><path class="xa26-9" d="M22,19v1H21v1h3V20H23V18h1V17H21v1h1Z"/><path class="xa26-9" d="M20,20h1V18H20v2Z"/><path class="xa26-10" d="M22,19V18H21v1Z"/><path class="xa26-2" d="M22,19H21v1h1Z"/><path class="xa26-10" d="M23,19h1V18H23Z"/><path class="xa26-2" d="M23,19v1h1V19Z"/><path class="xa26-11" d="M24,22V21H21v1Z"/><path class="xa26-9" d="M21,22v1h3V22Z"/><path class="xa26-9" d="M24,20h1V18H24v2Z"/><path class="xa26-12" d="M21,23v2h3V23H21Z"/><path class="xa26-11" d="M24,20.333V21h1V20H24Z"/><path class="xa26-11" d="M20,21h1V20H20v1Z"/><path class="xa26-13" d="M20,22v1h1V21H20Z"/><path class="xa26-13" d="M24,21.222V23h1V21H24Z"/></svg>