<svg xmlns="http://www.w3.org/2000/svg" viewBox="0 0 29 33"><defs><style>polygon,rect,path{shape-rendering:crispedges;}.za135-1{fill:#e55b35;}.za135-2{fill:#000000;}.za135-3{fill:#317f03;}.za135-4{fill:#e8b795;}.za135-5{fill:#45ba00;}.za135-6{fill:#ffffff;}.za135-7{fill:#4922aa;}.za135-8{fill:#4922aa;}.za135-9{fill:#0068ff;}.za135-10{fill:#e5ac2e;}.za135-11{fill:#ff1f4a;}.za135-12{fill:#fad000;}.za135-13{fill:#00e070;}.za135-14{fill:#ff1d99;}.za135-15{fill:#10bcff;}.za135-16{fill:#6e12ff;}.za135-17{fill:#900;}.za135-18{fill:#eaeaea;}</style></defs><path class="za135-1" d="M10,22v1H9v1h2V23h1V21H11v1Z"/><path class="za135-1" d="M0,33H6V26H5v1H4V25H5V24H7V23H8V22H9V21h2V20H10V19H9V16H8V15H9V14H8V12H9V8h1V9h1V7h1V8h2V7H13V6h1V5h1V6h1V7H15V8h2V7h1V9h1V8h1v7h1v1H20v3H19v1H18v1H17v2h1v1h1v1h2v1h1v1h1v6h6V0H0Z"/><path class="za135-2" d="M23,27H22v6h1V27Z"/><path class="za135-3" d="M21,30v1h1V29H21Z"/><path class="za135-3" d="M21,32v1h1V32Z"/><path class="za135-3" d="M21,28h1V27H21Z"/><rect class="za135-2" x="21" y="26" width="1" height="1"/><path class="za135-2" d="M21,31V27H20v6h1V31Z"/><rect class="za135-3" x="9" y="32" width="1" height="1"/><path class="za135-3" d="M19,32v1h1V32Z"/><path class="za135-3" d="M17,32V31h1V30h1v1h1V29H19V28h1V27h1V26H19v1H18V26H15v1H14V26H11v1H9v1h1v1H9v2h1V30h1v1h1v1H11v1h3V32H13V31h1V30h1v1h1v1H15v1h3V32Zm-2-3H13v1H12V29H11V28h1V27h1v1h3V27h1v1h1v1H17v1H16V29Z"/><path class="za135-2" d="M20,26h1V25H19v1Z"/><rect class="za135-3" x="16" y="24" width="1" height="1"/><rect class="za135-2" x="15" y="24" width="1" height="1"/><rect class="za135-2" x="14" y="32" width="1" height="1"/><rect class="za135-2" x="14" y="30" width="1" height="1"/><path class="za135-2" d="M14,28v1h1V28Z"/><path class="za135-2" d="M14,25v2h1V25Z"/><rect class="za135-2" x="13" y="24" width="1" height="1"/><path class="za135-4" d="M14,24v1h1V24h1V23H13v1Z"/><rect class="za135-3" x="12" y="24" width="1" height="1"/><path class="za135-2" d="M12,25v1h1V25Z"/><path class="za135-2" d="M12,25V24h1V22H12v1H11v2Z"/><path class="za135-2" d="M9,31V27H8v6H9V31Z"/><path class="za135-3" d="M7,30v1H8V29H7Z"/><path class="za135-3" d="M7,32v1H8V32Z"/><path class="za135-3" d="M7,28H8V27H7Z"/><path class="za135-2" d="M7,31V25H6v8H7V31Z"/><path class="za135-5" d="M12,32V31H11V30H10v1H9v1h1v1h1V32Z"/><path class="za135-5" d="M13,28V27H12v1H11v1h1v1h1V29h1V28Z"/><path class="za135-5" d="M10,25v2h1V25Z"/><path class="za135-5" d="M15,25v1h1V25Z"/><path class="za135-5" d="M13,25v1h1V25Z"/><path class="za135-5" d="M17,30V29h1V28H17V27H16v1H15v1h1v1Z"/><polygon class="za135-5" points="18 26 18 27 19 27 19 26 19 25 18 25 18 26"/><path class="za135-5" d="M7,29H8V28H7Z"/><path class="za135-5" d="M10,29V28H9v1Z"/><path class="za135-5" d="M21,29h1V28H21Z"/><path class="za135-5" d="M19,29h1V28H19Z"/><path class="za135-5" d="M21,32h1V31H21Z"/><path class="za135-5" d="M7,32H8V31H7Z"/><polygon class="za135-5" points="16 32 16 31 15 31 14 31 13 31 13 32 14 32 15 32 16 32"/><path class="za135-5" d="M20,32V31H19V30H18v1H17v1h1v1h1V32Z"/><rect class="za135-2" x="20" y="15" width="1" height="1"/><rect class="za135-4" x="18" y="12" width="1" height="1"/><path class="za135-4" d="M13,21h3V20H13Z"/><path class="za135-4" d="M10,13v1h2V13H10Z"/><path class="za135-4" d="M10,17v1h1v1h1v1h1V19h3V18h1v1h1V18h1V16h1V15H16V14h2V13H16V12H12v1h1v2H9v1h1Zm4-1h1v1H14Z"/><rect class="za135-4" x="16" y="19" width="1" height="1"/><path class="za135-2" d="M16,23v1h1v1H16v1h2V25h1V24H18V23H17V22H16Z"/><rect class="za135-2" x="8" y="15" width="1" height="1"/><rect class="za135-2" x="14" y="16" width="1" height="1"/><path class="za135-6" d="M12,15h1V14H12Z"/><path class="za135-6" d="M10,14v1h1V14Z"/><path class="za135-6" d="M18,14v1h1V14Z"/><path class="za135-6" d="M16,14v1h1V14Z"/><path class="za135-2" d="M11,14v1h1V14Z"/><path class="za135-2" d="M17,14v1h1V14Z"/><rect class="za135-7" x="18" y="13" width="1" height="1"/><polygon class="za135-7" points="17 12 16 12 16 13 18 13 18 12 17 12"/><path class="za135-7" d="M13,14V13H12v1Z"/><path class="za135-7" d="M11,13h1V12H11Z"/><path class="za135-8" d="M12,22h1v1h3V22h1V21h1V20h1V19h1V16H19v2H18v1H17v1H16v1H13V20H12V19H11V18H10V16H9v3h1v1h1v1h1Z"/><rect class="za135-2" x="13" y="19" width="3" height="1"/><rect class="za135-2" x="16" y="18" width="1" height="1"/><path class="za135-9" d="M19,13v2h1V12H19Z"/><path class="za135-9" d="M10,14V13h1V12H8v2H9v1h1Z"/><rect class="za135-1" x="17" y="9" width="1" height="1"/><rect class="za135-10" x="12" y="10" width="1" height="1"/><rect class="za135-10" x="16" y="10" width="1" height="1"/><rect class="za135-1" x="11" y="9" width="1" height="1"/><rect class="za135-11" x="14" y="10" width="1" height="1"/><rect class="za135-11" x="13" y="9" width="1" height="1"/><path class="za135-6" d="M12,7H11V8h1Z"/><path class="za135-6" d="M13,9V8H12V9Z"/><path class="za135-6" d="M17,9V8H16V9Z"/><rect class="za135-6" x="18" y="9" width="1" height="1"/><rect class="za135-6" x="10" y="9" width="1" height="1"/><path class="za135-6" d="M10,8H9V9h1Z"/><path class="za135-6" d="M18,7H17V8h1Z"/><rect class="za135-12" x="16" y="9" width="1" height="1"/><rect class="za135-12" x="12" y="9" width="1" height="1"/><rect class="za135-13" x="11" y="10" width="1" height="1"/><path class="za135-12" d="M12,8H11V9h1Z"/><path class="za135-12" d="M18,9V8H17V9Z"/><path class="za135-14" d="M10,10H9v1h1Z"/><rect class="za135-15" x="17" y="10" width="1" height="1"/><path class="za135-12" d="M18,12h1V10H18v1H16V10H15v1H14V10H13v1H11V10H10v2h8Z"/><path class="za135-16" d="M19,11h1V10H19Z"/><path class="za135-6" d="M20,8H19V9h1Z"/><rect class="za135-11" x="15" y="9" width="1" height="1"/><rect class="za135-11" x="14" y="8" width="1" height="1"/><rect class="za135-17" x="14" y="9" width="1" height="1"/><path class="za135-12" d="M14,9V8H13V9Z"/><path class="za135-12" d="M16,9V8H15V9Z"/><rect class="za135-18" x="14" y="6" width="1" height="1"/><rect class="za135-6" x="14" y="7" width="1" height="1"/><rect class="za135-6" x="13" y="6" width="1" height="1"/><rect class="za135-6" x="15" y="6" width="1" height="1"/><rect class="za135-6" x="14" y="5" width="1" height="1"/><path class="za135-10" d="M10,11H9v1h1Z"/><path class="za135-10" d="M19,12h1V11H19Z"/><path class="za135-10" d="M20,10V9H19v1Z"/><path class="za135-10" d="M10,9H9v1h1Z"/><path class="za135-12" d="M7,25V24H5v1H4v2H5V26H6V25Z"/><path class="za135-6" d="M8,25H9V23h1V22h1V21H9v1H8v1H7v2Z"/><path class="za135-4" d="M8,25H7v2H9V25Z"/><path class="za135-12" d="M11,25V24H9v1h2Z"/><path class="za135-12" d="M11,25v1h1V25Z"/><path class="za135-2" d="M9,25v2h1V25Z"/></svg>