<svg xmlns="http://www.w3.org/2000/svg" viewBox="0 0 29 33"><defs><style>polygon,rect,path{shape-rendering:crispedges;}.sa127-1{fill:#b4bd09;}.sa127-2{fill:#000000;}.sa127-3{fill:#ffffff;}.sa127-4{fill:#b2622b;}.sa127-5{fill:#ffce00;}.sa127-6{fill:#ffffff;}.sa127-7{fill:#663228;}.sa127-8{fill:#663228;}.sa127-9{fill:#c6e5e4;}</style></defs><path class="sa127-1" d="M23,22H22V21H20v1H19v1H18v1h1v1h2V23h2Z"/><path class="sa127-2" d="M23,25v6h1V24H23Z"/><path class="sa127-2" d="M7,27H6v6H7V27Z"/><path class="sa127-3" d="M8,27H7v6H8V27Z"/><rect class="sa127-2" x="7" y="26" width="1" height="1"/><path class="sa127-2" d="M9,31V27H8v6H9V31Z"/><path class="sa127-3" d="M19,32V31H18v1H17V30H16v1H15v1H13V30H12v2H11V31H10v1H9v1H20V32Z"/><path class="sa127-3" d="M9,27v2h1V28h1v1h1V25h1V24H11v1H10v1H8v1Z"/><rect class="sa127-3" x="18" y="29" width="1" height="1"/><path class="sa127-3" d="M18,24H16v1h1v4h1V28h1v1h1V27h1V26H19V25H18Z"/><rect class="sa127-3" x="10" y="29" width="1" height="1"/><path class="sa127-2" d="M10,25H8v1h2Z"/><rect class="sa127-2" x="10" y="24" width="1" height="1"/><path class="sa127-2" d="M13,23H11v1h2Z"/><path class="sa127-2" d="M16,25V24H13v1h3Z"/><path class="sa127-4" d="M16,24V23H13v1h3Z"/><path class="sa127-2" d="M16,24h2V23H16Z"/><rect class="sa127-2" x="18" y="24" width="1" height="1"/><path class="sa127-2" d="M22,32h1V31H22V23H21v2H19v1h2v1H20v6h1V32Z"/><path class="sa127-3" d="M23,25V24H22v7h1V25Z"/><path class="sa127-3" d="M14,29v2h1V29Z"/><path class="sa127-3" d="M13,28h2v1h1V25H13v3Z"/><path class="sa127-5" d="M19,30H18V29H17v3h1V31h1v1h1V29H19Z"/><rect class="sa127-5" x="18" y="28" width="1" height="1"/><path class="sa127-5" d="M15,29v2h1V29Z"/><path class="sa127-5" d="M14,30V29h1V28H13v4h2V31H14Z"/><path class="sa127-5" d="M11,29v1H10V29H9v3h1V31h1v1h1V29Z"/><rect class="sa127-5" x="10" y="28" width="1" height="1"/><path class="sa127-2" d="M13,27V25H12v5h1V27Z"/><path class="sa127-2" d="M17,28V25H16v5h1V28Z"/><polygon class="sa127-4" points="18 14 19 14 19 13 17 13 17 14 18 14"/><path class="sa127-4" d="M16,22V21h1V19h1V18h1V15H16V13h1V11H12v1h1v1H11v1h2v1H10v3h1v1h1V18h1v1h3v1H13V19H12v2h1v1h3Zm-1-5H14V16h1Z"/><rect class="sa127-4" x="10" y="12" width="1" height="1"/><rect class="sa127-2" x="14" y="16" width="1" height="1"/><path class="sa127-6" d="M10,15h1V14H10Z"/><path class="sa127-6" d="M16,14v1h1V14Z"/><path class="sa127-2" d="M12,15h1V14H11v1Z"/><rect class="sa127-7" x="10" y="13" width="1" height="1"/><path class="sa127-7" d="M11,13h2V12H11Z"/><path class="sa127-7" d="M17,13H16v1h1Z"/><path class="sa127-7" d="M17,12v1h2V12H17Z"/><path class="sa127-3" d="M18,21H17v1H16v1h2V22h1V21Z"/><path class="sa127-3" d="M8,18v1H9V12h1V11h2V10h5v1h2v1h1v7h1V11H20V10H19V9H18V8H11V9H10v1H9v1H8v7Z"/><path class="sa127-3" d="M13,22H12V21H10v1h1v1h2Z"/><rect class="sa127-2" x="10" y="8" width="1" height="1"/><rect class="sa127-2" x="9" y="9" width="1" height="1"/><rect class="sa127-2" x="8" y="10" width="1" height="1"/><path class="sa127-2" d="M8,18V11H7v9H8V18Z"/><rect class="sa127-2" x="8" y="20" width="1" height="1"/><rect class="sa127-2" x="9" y="21" width="1" height="1"/><rect class="sa127-2" x="10" y="22" width="1" height="1"/><rect class="sa127-2" x="18" y="22" width="1" height="1"/><rect class="sa127-2" x="19" y="21" width="1" height="1"/><path class="sa127-2" d="M20,21h1V20H20Z"/><path class="sa127-2" d="M21,19v1h1V11H21v8Z"/><rect class="sa127-2" x="20" y="10" width="1" height="1"/><rect class="sa127-2" x="19" y="9" width="1" height="1"/><rect class="sa127-2" x="18" y="8" width="1" height="1"/><path class="sa127-2" d="M18,8V7H11V8h7Z"/><path class="sa127-2" d="M12,12V11H10v1h2Z"/><path class="sa127-2" d="M10,14V12H9v4h1V14Z"/><path class="sa127-2" d="M11,20v1h1V20Z"/><rect class="sa127-2" x="12" y="21" width="1" height="1"/><path class="sa127-2" d="M16,23V22H13v1h3Z"/><rect class="sa127-2" x="16" y="21" width="1" height="1"/><path class="sa127-2" d="M18,20H17v1h1Z"/><path class="sa127-2" d="M19,14H17v1h2v1h1V12H19v2Z"/><path class="sa127-2" d="M18,12h1V11H17v1Z"/><path class="sa127-2" d="M17,11V10H12v1h5Z"/><path class="sa127-1" d="M0,7V33H6V27H7V26H8V25h2V24h1V23H10V22H9V21H8V20H7V11H8V10H9V9h1V8h1V7h7V8h1V9h1v1h1v1h1v8h3v1h1v1H25v1H24v1h1v1H24v7H23v1H21v1h8V0H0Z"/><path class="sa127-8" d="M19,17v1H18v1H17v1h1v1h2V20h1V19H20V16H19Z"/><path class="sa127-8" d="M11,21V20h1V19H11V18H10V16H9v3H8v1H9v1h2Z"/><rect class="sa127-2" x="13" y="19" width="3" height="1"/><rect class="sa127-2" x="12" y="18" width="1" height="1"/><path class="sa127-6" d="M24,20v1H23v1h2V21h1V20H25V19H23v1Z"/><path class="sa127-9" d="M21,20v1h1v1h1V21h1V20H23V19H22v1Z"/><path class="sa127-9" d="M23,23h1V22H23Z"/><path class="sa127-4" d="M22,23v1h2V23H22Z"/><rect class="sa127-2" x="24" y="23" width="1" height="1"/></svg>