<svg xmlns="http://www.w3.org/2000/svg" viewBox="0 0 29 33"><defs><style>polygon,rect,path{shape-rendering:crispedges;}.gb131-1{fill:#b4bd09;}.gb131-2{fill:#000000;}.gb131-3{fill:#333333;}.gb131-4{fill:#ffffff;}.gb131-5{fill:#e8b795;}.gb131-6{fill:#90a2a3;}.gb131-7{fill:#492a23;}.gb131-8{fill:#ffffff;}.gb131-9{fill:#f9e100;}.gb131-10{fill:#72dd40;}.gb131-11{fill:#38a6e8;}.gb131-12{fill:#ff6aa5;}.gb131-13{fill:#5a2de2;}.gb131-14{fill:#c10f7e;}</style></defs><path class="gb131-1" d="M0,33H6V26H7V25H8V21h2v2h1V22h1V21H11V20H10V19H9V16H8V15H9V10h1V9h1V8h7V9h1v1h1v2h1v6H20v1H19v1H18v1H17v1h1v1h1v1h1v1h1v1h1v1h1v6h6V0H0Z"/><rect class="gb131-1" x="9" y="23" width="1" height="1"/><path class="gb131-2" d="M23,27H22v6h1V27Z"/><path class="gb131-3" d="M22,27H21v6h1V27Z"/><path class="gb131-2" d="M21,27h1V26H21V25H20v2H17v1h2v1h1v4h1V27Z"/><path class="gb131-3" d="M20,29H19v1H18v1H17v1H16v1h4V29Z"/><path class="gb131-3" d="M16,28v3h1V30h1V29h1V28H17V27H16Z"/><path class="gb131-3" d="M18,26H17v1h2V26h1V25H18Z"/><rect class="gb131-2" x="18" y="29" width="1" height="1"/><path class="gb131-4" d="M15,28H14v5h1V28Z"/><path class="gb131-5" d="M16,25V23H13v2h3Z"/><path class="gb131-3" d="M12,32V31H11V30H10V29H9v4h4V32Z"/><rect class="gb131-2" x="11" y="30" width="1" height="1"/><path class="gb131-2" d="M9,24v1h2V23H10v1Z"/><path class="gb131-3" d="M12,28H10v1h1v1h1v1h1V27H12Z"/><path class="gb131-3" d="M11,26V25H9v1h1v1h2V26Z"/><path class="gb131-2" d="M9,29h1V28h2V27H9v1H8v5H9V29Z"/><path class="gb131-3" d="M8,28V27H7v6H8V28Z"/><path class="gb131-2" d="M7,27V26H6v7H7V27Z"/><rect class="gb131-2" x="10" y="29" width="1" height="1"/><rect class="gb131-2" x="17" y="30" width="1" height="1"/><path class="gb131-2" d="M17,32V31H16V27H13v4H12v1h1v1h1V28h1v5h1V32Z"/><path class="gb131-6" d="M9,26v1h1V26Z"/><path class="gb131-6" d="M19,27h1V26H19Z"/><path class="gb131-5" d="M13,22h3V21h1V20h1V19h1V16h1V15H19V14H18v1H16v1H15v1H14V16H13V15H11V14h1V13h1V12h2V11H13V10H11v1H10v4H9v1h1v3h1v1h1v1h1Zm0-3h3v1H13Z"/><path class="gb131-2" d="M19,16v3h1V16Z"/><rect class="gb131-2" x="18" y="19" width="1" height="1"/><rect class="gb131-2" x="17" y="20" width="1" height="1"/><rect class="gb131-2" x="11" y="20" width="1" height="1"/><rect class="gb131-2" x="10" y="19" width="1" height="1"/><path class="gb131-2" d="M10,16H9v3h1V16Z"/><rect class="gb131-2" x="8" y="15" width="1" height="1"/><path class="gb131-7" d="M17,15h1V14H17Z"/><rect class="gb131-7" x="16" y="13" width="1" height="1"/><rect class="gb131-2" x="14" y="14" width="1" height="1"/><path class="gb131-8" d="M16,14V13H13v1H12v1h1v1h3V15h1V14Zm-1,1H14V14h1Z"/><path class="gb131-7" d="M16,13V12H13v1h3Z"/><rect class="gb131-7" x="12" y="13" width="1" height="1"/><path class="gb131-7" d="M11,14v1h1V14Z"/><path class="gb131-2" d="M14,17h1V16H14Z"/><rect class="gb131-5" x="17" y="13" width="1" height="1"/><path class="gb131-9" d="M12,24H11v1h1Z"/><rect class="gb131-10" x="12" y="25" width="1" height="1"/><path class="gb131-11" d="M13,26v1h1V26Z"/><rect class="gb131-10" x="16" y="25" width="1" height="1"/><path class="gb131-12" d="M14,26v1h1V26Z"/><path class="gb131-9" d="M15,26v1h1V26Z"/><rect class="gb131-11" x="17" y="24" width="1" height="1"/><path class="gb131-12" d="M12,24V23H11v1Z"/><rect class="gb131-12" x="17" y="23" width="1" height="1"/><path class="gb131-2" d="M12,24v1h1V23h3v2h1V23h1V22H17V21H16v1H13V21H12v1H11v1h1Z"/><path class="gb131-2" d="M14,26h2V25H13v1Z"/><path class="gb131-2" d="M18,25h2V24H19V23H18v2Z"/><rect class="gb131-2" x="17" y="25" width="1" height="1"/><rect class="gb131-2" x="16" y="26" width="1" height="1"/><rect class="gb131-2" x="12" y="26" width="1" height="1"/><rect class="gb131-2" x="11" y="25" width="1" height="1"/><rect class="gb131-2" x="13" y="19" width="3" height="1"/><path class="gb131-13" d="M10,14V11h1V10h2v1h2v1h1v1h2v1h1v1h1v3h1V12H20V10H19V9H18V8H11V9H10v1H9v5h1Z"/><path class="gb131-14" d="M9,26V21H8v5Z"/><path class="gb131-8" d="M10,23V21H9v2Z"/><path class="gb131-14" d="M8,28H9V27H8Z"/><path class="gb131-5" d="M8,27H9V26H7v1Z"/><path class="gb131-2" d="M8,25H7v1H8Z"/></svg>