<svg xmlns="http://www.w3.org/2000/svg" viewBox="0 0 29 33"><defs><style>polygon,rect,path{shape-rendering:crispedges;}.za150-1{fill:#31a09d;}.za150-2{fill:#000000;}.za150-3{fill:#d8be00;}.za150-4{fill:#6d3e35;}.za150-5{fill:#99004d;}.za150-6{fill:#ffffff;}.za150-7{fill:#99004d;}.za150-8{fill:#99004d;}.za150-9{fill:#825fff;}</style></defs><path class="za150-1" d="M6,32V27H7V26H8V25h2V24h1V23h1V21H10V20H9V16H8V15H9V14H8V12H9V11H8V10H9V9H8V8h2V7h1V8h1V6h1V7h1V8h1V7h1V6h1V7h1V8h1V7h1V8H19V9h2v2H20v1h1v1H20v1h1v2H20v4H19v1H17v2h1v1h1v1h2v1h1v1h1v6h6V0H0V33H6Z"/><path class="za150-2" d="M23,27H22v6h1V27Z"/><path class="za150-3" d="M21,31v1h1V30H21Z"/><path class="za150-3" d="M21,28h1V27H21Z"/><rect class="za150-2" x="21" y="26" width="1" height="1"/><path class="za150-2" d="M21,31V27H20v6h1V31Z"/><path class="za150-3" d="M10,31V30H9v2h1v1h1V31Z"/><path class="za150-3" d="M18,26v2h1v1h1V27H19V25H18Z"/><path class="za150-3" d="M14,31H13V30H12V28H11V27H10V26H9v2h1v1h1v2h1v1h1v1h1V31Z"/><path class="za150-3" d="M16,31V30H15v2h1v1h1V31Z"/><rect class="za150-3" x="14" y="29" width="1" height="1"/><path class="za150-3" d="M13,29h1V27H13V26H12v2h1Z"/><path class="za150-3" d="M19,31V30H18V28H17V27H16V25H15v3h1v1h1v2h1v1h1v1h1V31Z"/><path class="za150-2" d="M20,26h1V25H19v1Z"/><rect class="za150-3" x="16" y="24" width="1" height="1"/><rect class="za150-2" x="15" y="24" width="1" height="1"/><path class="za150-2" d="M14,32v1h1V32Z"/><path class="za150-2" d="M14,31h1V30H14Z"/><path class="za150-2" d="M14,29h1V28H14Z"/><path class="za150-2" d="M14,26v1h1V25H14Z"/><rect class="za150-2" x="13" y="24" width="1" height="1"/><path class="za150-4" d="M16,24V23H13v1h1v1h1V24Z"/><path class="za150-2" d="M11,26h2V25H12V24h1V23h3v1h1v1H16v1h2V25h1V24H18V23H17V21H16v1H13V21H12v2H11v1H10v1h1Z"/><path class="za150-2" d="M10,26V25H8v1h2Z"/><path class="za150-2" d="M9,31V27H8v6H9V31Z"/><path class="za150-3" d="M7,31v2H8V31Z"/><path class="za150-3" d="M8,29V27H7v2Z"/><rect class="za150-2" x="7" y="26" width="1" height="1"/><path class="za150-2" d="M7,30V27H6v6H7V30Z"/><path class="za150-5" d="M21,29v1h1V28H21Z"/><path class="za150-5" d="M21,32v1h1V32Z"/><path class="za150-5" d="M19,26v1h2V26H19Z"/><path class="za150-5" d="M19,28H18v2h1v1h1V29H19Z"/><path class="za150-5" d="M16,26v1h1v1h1V26Z"/><path class="za150-5" d="M18,32V31H17v2h2V32Z"/><path class="za150-5" d="M15,30h1v1h1V29H16V28H15v2Z"/><path class="za150-5" d="M14,28h1V27H14Z"/><polygon class="za150-5" points="14 27 14 26 14 25 13 25 13 26 13 27 14 27"/><path class="za150-5" d="M14,32h1V31H14Z"/><rect class="za150-5" x="15" y="32" width="1" height="1"/><path class="za150-5" d="M14,29H13V28H12v2h1v1h1V29Z"/><rect class="za150-5" x="12" y="24" width="1" height="1"/><path class="za150-5" d="M10,27h1v1h1V26H11V25H10v2Z"/><path class="za150-5" d="M12,32V31H11v2h2V32Z"/><path class="za150-5" d="M10,30v1h1V29H10V28H9v2Z"/><path class="za150-5" d="M9,32v1h1V32Z"/><path class="za150-5" d="M9,27V26H8v1Z"/><path class="za150-5" d="M7,30v1H8V29H7Z"/><path class="za150-2" d="M20,16h1V15H20Z"/><rect class="za150-4" x="11" y="10" width="1" height="1"/><rect class="za150-4" x="10" y="11" width="1" height="1"/><path class="za150-4" d="M13,22h3V21h1V20h1V18h1V16h1V15H16V14h3V13H16V12H15V10H14v1H13v2H10v1h3v1H9v1h1v2h1v2h1v1h1Zm1-6h1v1H14Zm-2,3V18h1v1h3v1H13V19Z"/><polygon class="za150-4" points="18 11 18 10 17 10 17 11 16 11 16 12 18 12 18 11"/><path class="za150-2" d="M19,17h1V16H19Z"/><path class="za150-2" d="M10,16H9v1h1Z"/><rect class="za150-2" x="8" y="15" width="1" height="1"/><rect class="za150-2" x="14" y="16" width="1" height="1"/><path class="za150-6" d="M13,15V14H12v1Z"/><path class="za150-6" d="M11,15V14H10v1Z"/><path class="za150-6" d="M18,14v1h1V14Z"/><path class="za150-6" d="M16,14v1h1V14Z"/><path class="za150-2" d="M12,15V14H11v1Z"/><path class="za150-2" d="M17,14v1h1V14Z"/><path class="za150-7" d="M11,13h2V12H11Z"/><path class="za150-7" d="M16,12v1h2V12Z"/><path class="za150-8" d="M19,18H18v2H17v1h2V20h1V17H19Z"/><path class="za150-8" d="M11,20V18H10V17H9v3h1v1h2V20Z"/><rect class="za150-2" x="13" y="19" width="3" height="1"/><rect class="za150-2" x="12" y="18" width="1" height="1"/><path class="za150-9" d="M10,14V13h1V12H10V11h1V10h1v1H11v1h2V11h1V10h1v2h1V11h1V10h1v3h1v2h2V14H20V13h1V12H20V11h1V9H19V8H18V7H17V6H16V7H15V8H14V7H13V6H12V8H11V7H10V8H8V9H9v1H8v1H9v1H8v2H9v1h1Z"/><rect class="za150-9" x="19" y="7" width="1" height="1"/></svg>