<svg xmlns="http://www.w3.org/2000/svg" viewBox="0 0 29 33"><defs><style>polygon,rect,path{shape-rendering:crispedges;}.ta180-1{fill:#d4a122;}.ta180-2{fill:#000000;}.ta180-3{fill:#841f00;}.ta180-4{fill:#a56e49;}.ta180-5{fill:#d8be00;}.ta180-6{fill:#473a35;}.ta180-7{fill:#ffffff;}.ta180-8{fill:#004a77;}.ta180-9{fill:#00686d;}.ta180-10{fill:#efc075;}.ta180-11{fill:#2aa8e8;}.ta180-12{fill:#d8aa68;}.ta180-13{fill:#563e1b;}</style></defs><path class="ta180-1" d="M6,32V28H5V27H4V25H5V24H8v1h2V24h1V23H10V22H9V21H8V20H7V11H8V10H9V9h1V8h1V7h7V8h1V9h1v1h1v1h1V22h1v1h1v8H23v1H22v1h7V0H0V33H6Z"/><path class="ta180-1" d="M21,25V21H20v1H19v1H18v1h1v1h2Z"/><path class="ta180-2" d="M23,29v2h1V23H23v6Z"/><path class="ta180-2" d="M7,27H5v1H6v5H7V27Z"/><path class="ta180-3" d="M8,27H7v6H8V27Z"/><path class="ta180-2" d="M9,26h1V25H8v8H9V26Z"/><path class="ta180-3" d="M10,30h1V29h1V25h1V24H11v1H10v1H9v7h1V30Z"/><path class="ta180-3" d="M20,27h1V26H19V25H18V24H16v1h1v4h1v1h1v3h1V27Z"/><rect class="ta180-2" x="10" y="24" width="1" height="1"/><path class="ta180-2" d="M13,23H11v1h2Z"/><path class="ta180-2" d="M13,24v1h3V24H13Z"/><path class="ta180-4" d="M15,23H13v1h3V23Z"/><path class="ta180-2" d="M17,23H16v1h2V23Z"/><rect class="ta180-2" x="18" y="24" width="1" height="1"/><path class="ta180-2" d="M20,25H19v1h2V25Z"/><path class="ta180-2" d="M21,29V27H20v6h1V29Z"/><rect class="ta180-2" x="22" y="31" width="1" height="1"/><path class="ta180-3" d="M23,25H22v6h1V25Z"/><path class="ta180-3" d="M16,32H12v1h5V32Z"/><path class="ta180-3" d="M13,25v3h3V25H13Z"/><rect class="ta180-3" x="12" y="30" width="1" height="1"/><rect class="ta180-3" x="16" y="30" width="1" height="1"/><path class="ta180-5" d="M19,30H18V29H17v2H16V28H13v3H12V29H11v1H10v3h2V32h5v1h2V30Z"/><path class="ta180-2" d="M13,25H12v5h1V25Z"/><path class="ta180-2" d="M16,28v2h1V25H16v3Z"/><path class="ta180-4" d="M16,22V21h1V20h1V19h1V13H18V12H17V11H16v2h1v1h1v1H16v1H15v1H14V16H13V15H11V14h1V13h1V12H11v1H10v6h1v1h1v1h1v1h3Zm-4-3V18h5v1H16v1H13V19Z"/><path class="ta180-6" d="M18,15V14H17v1Z"/><rect class="ta180-6" x="16" y="13" width="1" height="1"/><rect class="ta180-2" x="14" y="14" width="1" height="1"/><path class="ta180-7" d="M13,13v1H12v1h1v1h3V15h1V14H16V13H13Zm2,2H14V14h1Z"/><path class="ta180-6" d="M14,12H13v1h3V12H14Z"/><rect class="ta180-6" x="12" y="13" width="1" height="1"/><path class="ta180-6" d="M11,14v1h1V14Z"/><path class="ta180-2" d="M14,17h1V16H14Z"/><path class="ta180-4" d="M15,12V11H13v1h2Z"/><path class="ta180-8" d="M13,12V11H12v1Z"/><path class="ta180-8" d="M15,12h1V11H15Z"/><rect class="ta180-8" x="10" y="12" width="1" height="1"/><rect class="ta180-8" x="18" y="12" width="1" height="1"/><path class="ta180-3" d="M13,22H12V21H11V20H10V19H9V12h1V11h2V10h5v1h2v1h1v7H19v1H18v1H17v1H16v1h2V22h1V21h1V20h1V11H20V10H19V9H18V8H11V9H10v1H9v1H8v9H9v1h1v1h1v1h2Z"/><rect class="ta180-2" x="10" y="8" width="1" height="1"/><rect class="ta180-2" x="9" y="9" width="1" height="1"/><rect class="ta180-2" x="8" y="10" width="1" height="1"/><path class="ta180-2" d="M8,11H7v9H8V11Z"/><rect class="ta180-2" x="8" y="20" width="1" height="1"/><rect class="ta180-2" x="9" y="21" width="1" height="1"/><rect class="ta180-2" x="10" y="22" width="1" height="1"/><rect class="ta180-2" x="18" y="22" width="1" height="1"/><rect class="ta180-2" x="19" y="21" width="1" height="1"/><rect class="ta180-2" x="20" y="20" width="1" height="1"/><path class="ta180-2" d="M21,14h1V11H21v3Z"/><rect class="ta180-2" x="20" y="10" width="1" height="1"/><rect class="ta180-2" x="19" y="9" width="1" height="1"/><rect class="ta180-2" x="18" y="8" width="1" height="1"/><path class="ta180-2" d="M18,8V7H11V8h7Z"/><path class="ta180-2" d="M12,12V11H10v1h2Z"/><path class="ta180-2" d="M10,13V12H9v7h1V13Z"/><rect class="ta180-2" x="10" y="19" width="1" height="1"/><rect class="ta180-2" x="11" y="20" width="1" height="1"/><rect class="ta180-2" x="12" y="21" width="1" height="1"/><path class="ta180-2" d="M16,23V22H13v1h3Z"/><rect class="ta180-2" x="16" y="21" width="1" height="1"/><rect class="ta180-2" x="17" y="20" width="1" height="1"/><rect class="ta180-2" x="18" y="19" width="1" height="1"/><path class="ta180-2" d="M19,14v5h1V12H19v2Z"/><path class="ta180-2" d="M18,12h1V11H17v1Z"/><path class="ta180-2" d="M14,11h3V10H12v1h2Z"/><path class="ta180-9" d="M17,19V18H13v1h4Z"/><path class="ta180-2" d="M16,20V19H13v1Z"/><path class="ta180-2" d="M12,18v1h1V18Z"/><path class="ta180-10" d="M21,27v2h1V27Z"/><path class="ta180-10" d="M21,20v1h1V19H21Z"/><path class="ta180-10" d="M21,16v1h1V15H21Z"/><path class="ta180-11" d="M21,15h1V14H21Z"/><path class="ta180-4" d="M21,23v2h2V23H21Z"/><path class="ta180-12" d="M22,26V25H21v2h1Z"/><path class="ta180-12" d="M21,23h1V21H21Z"/><path class="ta180-12" d="M21,18v1h1V17H21Z"/><path class="ta180-7" d="M7,26H8V24H5v1H7Z"/><path class="ta180-4" d="M8,27V26H7V25H5v2H8Z"/><path class="ta180-13" d="M22,31V29H21v4h1V31Z"/><path class="ta180-2" d="M23,23V22H22v1Z"/><path class="ta180-2" d="M4,25v2H5V25Z"/></svg>