<svg xmlns="http://www.w3.org/2000/svg" viewBox="0 0 29 33"><defs><style>polygon,rect,path{shape-rendering:crispedges;}.za219-1{fill:#29834f;}.za219-2{fill:#000000;}.za219-3{fill:#ff6aa5;}.za219-4{fill:#a56e49;}.za219-5{fill:#cc2f76;}.za219-6{fill:#663228;}.za219-7{fill:#0079bc;}.za219-8{fill:#fad000;}.za219-9{fill:#841f00;}.za219-10{fill:#b23b00;}</style></defs><path class="za219-1" d="M6,32V27H7V26H8V25h2V24h1V23h1V21H11V20H9V18H8V13H9V10h1V9h1V8h7V9h1v1h1v3h1v5H20v2H18v1H17v2h1v1h1v1h2v1h1v1h1v6h6V0H0V33H6Z"/><path class="za219-2" d="M23,27H22v6h1V27Z"/><path class="za219-3" d="M21,31v1h1V30H21Z"/><path class="za219-3" d="M21,28h1V27H21Z"/><rect class="za219-2" x="21" y="26" width="1" height="1"/><path class="za219-2" d="M21,31V27H20v6h1V31Z"/><path class="za219-3" d="M16,31V30H15v2h1v1h1V31Z"/><path class="za219-3" d="M19,31V30H18V28H17V27H16V25H15v3h1v1h1v2h1v1h1v1h1V31Z"/><path class="za219-3" d="M13,29h1V27H13V26H12v2h1Z"/><path class="za219-3" d="M14,31H13V30H12V28H11V27H10V26H9v2h1v1h1v2h1v1h1v1h1V31Z"/><path class="za219-3" d="M18,26v2h1v1h1V27H19V25H18Z"/><path class="za219-3" d="M10,31V30H9v2h1v1h1V31Z"/><rect class="za219-3" x="14" y="29" width="1" height="1"/><path class="za219-2" d="M20,26h1V25H19v1Z"/><rect class="za219-3" x="16" y="24" width="1" height="1"/><rect class="za219-2" x="15" y="24" width="1" height="1"/><path class="za219-2" d="M14,32v1h1V32Z"/><path class="za219-2" d="M14,31h1V30H14Z"/><path class="za219-2" d="M14,29h1V28H14Z"/><path class="za219-2" d="M14,26v1h1V25H14Z"/><rect class="za219-2" x="13" y="24" width="1" height="1"/><path class="za219-4" d="M16,24V23H13v1h1v1h1V24Z"/><path class="za219-2" d="M11,26h2V25H12V24h1V23h3v1h1v1H16v1h2V25h1V24H18V23H17V21H16v1H13V21H12v2H11v1H10v1h1Z"/><path class="za219-2" d="M10,26V25H8v1h2Z"/><path class="za219-2" d="M9,31V27H8v6H9V31Z"/><path class="za219-3" d="M7,31v2H8V31Z"/><path class="za219-3" d="M8,29V27H7v2Z"/><rect class="za219-2" x="7" y="26" width="1" height="1"/><path class="za219-2" d="M7,30V27H6v6H7V30Z"/><path class="za219-5" d="M21,29v1h1V28H21Z"/><path class="za219-5" d="M21,32v1h1V32Z"/><path class="za219-5" d="M19,26v1h2V26H19Z"/><path class="za219-5" d="M19,28H18v2h1v1h1V29H19Z"/><path class="za219-5" d="M16,26v1h1v1h1V26Z"/><path class="za219-5" d="M18,32V31H17v2h2V32Z"/><path class="za219-5" d="M15,30h1v1h1V29H16V28H15v2Z"/><path class="za219-5" d="M14,28h1V27H14Z"/><polygon class="za219-5" points="14 27 14 26 14 25 13 25 13 26 13 27 14 27"/><path class="za219-5" d="M14,32h1V31H14Z"/><rect class="za219-5" x="15" y="32" width="1" height="1"/><path class="za219-5" d="M14,29H13V28H12v2h1v1h1V29Z"/><rect class="za219-5" x="12" y="24" width="1" height="1"/><path class="za219-5" d="M10,27h1v1h1V26H11V25H10v2Z"/><path class="za219-5" d="M12,32V31H11v2h2V32Z"/><path class="za219-5" d="M10,30v1h1V29H10V28H9v2Z"/><path class="za219-5" d="M9,32v1h1V32Z"/><path class="za219-5" d="M9,27V26H8v1Z"/><path class="za219-5" d="M7,30v1H8V29H7Z"/><path class="za219-4" d="M13,20v2h3V20Z"/><path class="za219-4" d="M14,14h1V13H13v1Z"/><path class="za219-4" d="M12,19V18h5v2h1V19h1V18H18V17H16V16H15v1H14V16H13v1H11v1H10v1h1v1h1Z"/><rect class="za219-4" x="14" y="15" width="1" height="1"/><path class="za219-2" d="M19,16v2h1V16Z"/><path class="za219-2" d="M18,19v1h1V19Z"/><rect class="za219-2" x="17" y="20" width="1" height="1"/><rect class="za219-2" x="11" y="20" width="1" height="1"/><path class="za219-2" d="M10,19v1h1V19Z"/><path class="za219-2" d="M10,17V16H9v2h1Z"/><rect class="za219-2" x="14" y="16" width="1" height="1"/><path class="za219-6" d="M17,19H16v2h1V19Z"/><path class="za219-6" d="M13,20V19h3V18H12v3h1Z"/><path class="za219-2" d="M16,19H13v1h3Z"/><path class="za219-2" d="M17,18H16v1h1Z"/><path class="za219-7" d="M9,15H8v3H9V15Z"/><path class="za219-7" d="M20,16v2h1V15H20Z"/><path class="za219-7" d="M19,14h2V13H19Z"/><path class="za219-7" d="M18,17v1h1V17Z"/><rect class="za219-7" x="15" y="13" width="1" height="1"/><rect class="za219-7" x="10" y="17" width="1" height="1"/><path class="za219-7" d="M10,13H8v1h2Z"/><path class="za219-7" d="M10,18H9v2h1V18Z"/><path class="za219-7" d="M19,19v1h1V18H19Z"/><path class="za219-8" d="M19,16h1V15h1V14H19Z"/><path class="za219-8" d="M17,14h2V13H16v1Z"/><path class="za219-2" d="M19,16V14H16v2h3Z"/><path class="za219-8" d="M19,16H16v1h3Z"/><path class="za219-8" d="M15,14H13v2h1V15h1v1h1V14Z"/><path class="za219-8" d="M13,14V13H10v1h3Z"/><path class="za219-2" d="M12,14H10v2h3V14Z"/><path class="za219-8" d="M10,16v1h3V16H10Z"/><path class="za219-8" d="M9,16h1V14H8v1H9Z"/><path class="za219-9" d="M19,12v1h1V11H19Z"/><path class="za219-10" d="M10,12v1h1V11h1v2h1V11h1v2h1V11h1v2h1V11h1v2h1V11h1V10H19V9H18V8H11V9H10v1H9v1h1Z"/><path class="za219-9" d="M18,12V11H17v2h1Z"/><path class="za219-9" d="M16,12V11H15v2h1Z"/><path class="za219-9" d="M14,12V11H13v2h1Z"/><path class="za219-9" d="M12,12V11H11v2h1Z"/><path class="za219-9" d="M10,12V11H9v2h1Z"/></svg>