<svg xmlns="http://www.w3.org/2000/svg" viewBox="0 0 29 33"><defs><style>polygon,rect,path{shape-rendering:crispedges;}.ma136-1{fill:#d4a122;}.ma136-2{fill:#000000;}.ma136-3{fill:#508e91;}.ma136-4{fill:#5a2de2;}.ma136-5{fill:#e8b795;}.ma136-6{fill:#184144;}.ma136-7{fill:#ffffff;}.ma136-8{fill:#492a23;}.ma136-9{fill:#492a23;}.ma136-10{fill:#825fff;}.ma136-11{fill:#fad000;}</style></defs><path class="ma136-1" d="M10,22v1H9v1h3V21H11v1Z"/><path class="ma136-1" d="M0,33H6V26H5v1H4V25H5V24H7V23H8V22H9V21h2V20H10V19H9V16H8V15H9V11h1V10h1V9h7v1h1v1h1v4h1v1H20v3H19v1H18v1H17v3h2v1h2v1h1v1h1v6h6V0H0Z"/><path class="ma136-2" d="M23,27H22v6h1V27Z"/><path class="ma136-3" d="M21,28h1V27H21Z"/><path class="ma136-3" d="M21,30v1h1V29H21Z"/><path class="ma136-3" d="M21,32v1h1V32Z"/><rect class="ma136-2" x="21" y="26" width="1" height="1"/><path class="ma136-2" d="M21,31V27H20v6h1V31Z"/><path class="ma136-3" d="M19,26v1H18v3h1v1h1V29H19V28h1V27h1V26H19Z"/><path class="ma136-3" d="M19,32v1h1V32Z"/><path class="ma136-2" d="M20,26h1V25H19v1Z"/><path class="ma136-2" d="M18,30V25h1V24H17v1H16v1h1v7h1V30Z"/><path class="ma136-4" d="M17,26H16v1H13V26H12v7h5V26Z"/><path class="ma136-2" d="M13,26v1h3V26H13Z"/><path class="ma136-5" d="M16,23H13v1H12v1h1v1h3V25h1V24H16Z"/><path class="ma136-2" d="M12,26H11v7h1V26Z"/><path class="ma136-2" d="M12,25V24H11v1Z"/><rect class="ma136-2" x="12" y="25" width="1" height="1"/><path class="ma136-3" d="M9,27v1h1v1H9v2h1V30h1V27H9Z"/><rect class="ma136-3" x="9" y="32" width="1" height="1"/><path class="ma136-2" d="M9,31V27H8v6H9V31Z"/><path class="ma136-3" d="M7,32v1H8V32Z"/><path class="ma136-3" d="M7,28H8V27H7Z"/><path class="ma136-3" d="M7,30v1H8V29H7Z"/><path class="ma136-2" d="M7,31V25H6v8H7V31Z"/><path class="ma136-6" d="M11,30H10v1H9v1h1v1h1V30Z"/><path class="ma136-6" d="M10,25v2h1V25Z"/><path class="ma136-6" d="M18,26v1h1V25H18Z"/><path class="ma136-6" d="M7,29H8V28H7Z"/><path class="ma136-6" d="M10,28H9v1h1Z"/><path class="ma136-6" d="M21,29h1V28H21Z"/><path class="ma136-6" d="M19,29h1V28H19Z"/><path class="ma136-6" d="M21,32h1V31H21Z"/><path class="ma136-6" d="M7,32H8V31H7Z"/><path class="ma136-6" d="M20,32V31H19V30H18v3h1V32Z"/><rect class="ma136-2" x="20" y="15" width="1" height="1"/><path class="ma136-2" d="M19,13v2h1V12H19Z"/><path class="ma136-5" d="M10,14h2V13H10Z"/><rect class="ma136-5" x="10" y="11" width="1" height="1"/><path class="ma136-5" d="M12,21h1v1h3V21h1V20h1V19h1V16h1V15H16V14h2V13H16V12h1V11H16V10H13v1H12v2h1v2H9v1h1v3h1v1h1Zm2-5h1v1H14Zm-2,2h5v1H16v1H13V19H12Z"/><rect class="ma136-5" x="11" y="10" width="1" height="1"/><path class="ma136-5" d="M18,12v1h1V11H18Z"/><rect class="ma136-5" x="17" y="10" width="1" height="1"/><path class="ma136-2" d="M19,17v2h1V16H19Z"/><rect class="ma136-2" x="18" y="19" width="1" height="1"/><rect class="ma136-2" x="17" y="20" width="1" height="1"/><path class="ma136-2" d="M16,22H13V21H12v3h1V23h3v1h1V21H16Z"/><rect class="ma136-2" x="11" y="20" width="1" height="1"/><rect class="ma136-2" x="10" y="19" width="1" height="1"/><path class="ma136-2" d="M10,14V12H9v3h1Z"/><path class="ma136-2" d="M10,16H9v3h1V16Z"/><rect class="ma136-2" x="8" y="15" width="1" height="1"/><rect class="ma136-2" x="14" y="16" width="1" height="1"/><path class="ma136-7" d="M12,15h1V14H12Z"/><path class="ma136-7" d="M10,14v1h1V14Z"/><path class="ma136-7" d="M18,14v1h1V14Z"/><path class="ma136-7" d="M16,14v1h1V14Z"/><path class="ma136-2" d="M11,14v1h1V14Z"/><path class="ma136-2" d="M17,14v1h1V14Z"/><path class="ma136-8" d="M19,13H18v1h1Z"/><polygon class="ma136-8" points="17 12 16 12 16 13 18 13 18 12 17 12"/><path class="ma136-8" d="M13,14V13H12v1Z"/><path class="ma136-8" d="M10,12v1h2V12H10Z"/><path class="ma136-9" d="M16,19V18H12v1h4Z"/><path class="ma136-2" d="M13,20h3V19H13Z"/><path class="ma136-2" d="M17,19V18H16v1Z"/><path class="ma136-10" d="M20,12V11H19v1Z"/><rect class="ma136-10" x="18" y="10" width="1" height="1"/><path class="ma136-10" d="M12,11h1V10h3v1h1V10h1V9H11v1h1Z"/><rect class="ma136-10" x="17" y="11" width="1" height="1"/><path class="ma136-10" d="M11,12h1V11H11Z"/><rect class="ma136-10" x="10" y="10" width="1" height="1"/><path class="ma136-10" d="M10,11H9v1h1Z"/><path class="ma136-11" d="M7,25V24H5v1H4v2H5V26H6V25Z"/><path class="ma136-7" d="M8,25H9V23h1V22h1V21H9v1H8v1H7v2Z"/><path class="ma136-5" d="M8,25H7v2H9V25Z"/><path class="ma136-11" d="M11,25V24H9v1h2Z"/><path class="ma136-11" d="M11,25v1h1V25Z"/><path class="ma136-2" d="M10,26V25H9v2h1Z"/></svg>