<svg xmlns="http://www.w3.org/2000/svg" viewBox="0 0 29 33"><defs><style>polygon,rect,path{shape-rendering:crispedges;}.gb139-1{fill:#b4bd09;}.gb139-2{fill:#000000;}.gb139-3{fill:#6f7032;}.gb139-4{fill:#ffffff;}.gb139-5{fill:#ce8452;}.gb139-6{fill:#90a2a3;}.gb139-7{fill:#66334f;}.gb139-8{fill:#ffffff;}.gb139-9{fill:#fad000;}.gb139-10{fill:#ff5e17;}.gb139-11{fill:#ff6aa5;}.gb139-12{fill:#ad5a21;}</style></defs><path class="gb139-1" d="M6,32V25H7V23H8V22H9V21H8V20H7V19H8V12H9V10h1V9h1V8h7V9h1v1h1v2h1v7h1v1H21v1H20v1H19V21H18v2h1v1h1v1h1v1h1v1h1v6h6V0H0V33H6Z"/><rect class="gb139-1" x="10" y="21" width="1" height="1"/><path class="gb139-2" d="M23,27H22v6h1V27Z"/><path class="gb139-3" d="M22,27H21v6h1V27Z"/><path class="gb139-2" d="M21,27h1V26H21V25H20v2H17v1h2v1h1v4h1V27Z"/><path class="gb139-3" d="M20,29H19v1H18v1H17v1H16v1h4V29Z"/><path class="gb139-3" d="M18,26H17v1h2V26h1V25H18Z"/><path class="gb139-3" d="M16,28v3h1V30h1V29h1V28H17V27H16Z"/><rect class="gb139-2" x="18" y="29" width="1" height="1"/><path class="gb139-4" d="M15,30H14v3h1V30Z"/><path class="gb139-5" d="M14,24h1v1h1V23H13v2h1Z"/><path class="gb139-3" d="M12,32V31H11V30H10V29H9v4h4V32Z"/><rect class="gb139-2" x="11" y="30" width="1" height="1"/><rect class="gb139-3" x="11" y="26" width="1" height="1"/><path class="gb139-3" d="M12,28H10v1h1v1h1v1h1V27H12Z"/><path class="gb139-2" d="M9,29h1V28h2V27H8v6H9V29Z"/><path class="gb139-3" d="M8,27H7v6H8V27Z"/><path class="gb139-2" d="M7,27V25H6v8H7V27Z"/><rect class="gb139-2" x="10" y="29" width="1" height="1"/><rect class="gb139-2" x="17" y="30" width="1" height="1"/><path class="gb139-2" d="M17,32V31H16V27H15v2H14V27H13v4H12v1h1v1h1V30h1v3h1V32Z"/><path class="gb139-6" d="M19,27h1V26H19Z"/><path class="gb139-2" d="M20,16h1V15H20Z"/><rect class="gb139-2" x="19" y="14" width="1" height="1"/><path class="gb139-5" d="M12,21h1v1h3V21h1V20h1V19h1V16h1V15H19V14H18v1H16v1H15v1H14V16H13V15H11V14H10v1H9v1h1v3h1v1h1Zm1-2h3v1H13Z"/><path class="gb139-2" d="M19,17v2h1V16H19Z"/><rect class="gb139-2" x="18" y="19" width="1" height="1"/><rect class="gb139-2" x="17" y="20" width="1" height="1"/><path class="gb139-2" d="M17,21H16v1H13V21H12v1H11v1h1v2h1V23h3v2h1V23h1V22H17Z"/><rect class="gb139-2" x="11" y="20" width="1" height="1"/><rect class="gb139-2" x="10" y="19" width="1" height="1"/><rect class="gb139-2" x="9" y="14" width="1" height="1"/><path class="gb139-2" d="M10,16H9v3h1V16Z"/><path class="gb139-2" d="M9,15H8v1H9Z"/><path class="gb139-7" d="M17,15h1V14H17Z"/><rect class="gb139-7" x="16" y="13" width="1" height="1"/><rect class="gb139-2" x="14" y="14" width="1" height="1"/><path class="gb139-8" d="M16,14V13H13v1H12v1h1v1h3V15h1V14Zm-1,1H14V14h1Z"/><path class="gb139-7" d="M16,13V12H13v1h3Z"/><rect class="gb139-7" x="12" y="13" width="1" height="1"/><path class="gb139-7" d="M12,15V14H11v1Z"/><path class="gb139-2" d="M14,17h1V16H14Z"/><path class="gb139-5" d="M12,13h1V12h3v1h1v1h1V12H17V11H16V10H13v1H12v1H11v2h1Z"/><rect class="gb139-2" x="12" y="26" width="1" height="1"/><rect class="gb139-2" x="16" y="26" width="1" height="1"/><rect class="gb139-2" x="17" y="25" width="1" height="1"/><rect class="gb139-2" x="14" y="24" width="1" height="1"/><rect class="gb139-2" x="13" y="25" width="1" height="1"/><rect class="gb139-2" x="15" y="25" width="1" height="1"/><rect class="gb139-9" x="16" y="25" width="1" height="1"/><path class="gb139-9" d="M15,26V25H14v1H13v1h1v2h1V27h1V26Z"/><rect class="gb139-9" x="12" y="25" width="1" height="1"/><path class="gb139-9" d="M17,24v1h1V23H17Z"/><path class="gb139-2" d="M20,25V24H19V23H18v2Z"/><rect class="gb139-2" x="13" y="19" width="3" height="1"/><path class="gb139-10" d="M20,17v2H19v1H18v1h1v1h1V21h1V20h1V19H21V16H20Z"/><path class="gb139-10" d="M9,14h2V12h1V11h1V10h3v1h1v1h1v2h2v1h1V12H20V10H19V9H18V8H11V9H10v1H9v2H8v3H9Z"/><path class="gb139-10" d="M10,21h1V20H10V19H9V16H8v3H7v1H8v1H9v1h1Z"/><rect class="gb139-10" x="11" y="21" width="1" height="1"/><path class="gb139-10" d="M17,22h1V21H17Z"/><path class="gb139-5" d="M8,27H9V25H7v2Z"/><path class="gb139-11" d="M8,23H7v1H8Z"/><rect class="gb139-11" x="8" y="22" width="1" height="1"/><rect class="gb139-11" x="10" y="22" width="1" height="1"/><path class="gb139-11" d="M11,26V25H9v1h2Z"/><path class="gb139-11" d="M12,24H11v1h1Z"/><path class="gb139-12" d="M8,25H9V24h1v1h1V23H8v2Z"/><path class="gb139-12" d="M10,26H9v1h2V26Z"/><path class="gb139-8" d="M8,24H7v1H8Z"/><path class="gb139-8" d="M10,23V22H9v1Z"/><path class="gb139-8" d="M12,23H11v1h1Z"/><rect class="gb139-8" x="11" y="25" width="1" height="1"/><path class="gb139-2" d="M10,24H9v1h1Z"/></svg>