<svg xmlns="http://www.w3.org/2000/svg" viewBox="0 0 29 33"><defs><style>polygon,rect,path{shape-rendering:crispedges;}.bb17-1{fill:#29834f;}.bb17-2{fill:#000000;}.bb17-3{fill:#685432;}.bb17-4{fill:#ffffff;}.bb17-5{fill:#6d3e35;}.bb17-6{fill:#99004d;}.bb17-7{fill:#99004d;}.bb17-8{fill:#ffa9d0;}.bb17-9{fill:#455054;}.bb17-10{fill:#900;}.bb17-11{fill:#0068ff;}</style></defs><path class="bb17-1" d="M11,24V23h1V21H9V20H8v2H9v2H8v1h2V24Z"/><path class="bb17-1" d="M8,19H9V16H8v3Z"/><path class="bb17-1" d="M0,33H8V32H6V31H5V22H6V21H7V20H5v1H2V17H5V16H8V15H9V11h1V10h1V9h2V7h1V5h1V6h1V8h1V9h1v1h1v1h1v4h1v1H20v3h1v1H20v1H17v2h1v1h1v1h2v1h1v1h1v6h6V0H0Z"/><path class="bb17-2" d="M23,27H22v6h1V27Z"/><rect class="bb17-2" x="21" y="26" width="1" height="1"/><path class="bb17-3" d="M22,27H21v6h1V27Z"/><path class="bb17-2" d="M21,27H20v6h1V27Z"/><path class="bb17-2" d="M20,26h1V25H19v1Z"/><path class="bb17-3" d="M20,27h1V26H19V25H18v4H17v4h3V27Z"/><rect class="bb17-4" x="16" y="24" width="1" height="1"/><path class="bb17-2" d="M17,29H16v4h1V29Z"/><rect class="bb17-4" x="15" y="23" width="1" height="1"/><path class="bb17-4" d="M16,29h1V26H16V25H13v1H12v3h1v4h1V32h1v1h1V29Zm-1,2H14V30h1Zm0-2H14V28h1Zm0-2H14V26h1Z"/><rect class="bb17-2" x="14" y="26" width="1" height="1"/><rect class="bb17-2" x="14" y="28" width="1" height="1"/><rect class="bb17-2" x="14" y="30" width="1" height="1"/><rect class="bb17-2" x="14" y="32" width="1" height="1"/><rect class="bb17-4" x="13" y="23" width="1" height="1"/><rect class="bb17-4" x="12" y="24" width="1" height="1"/><path class="bb17-2" d="M13,29H12v4h1V29Z"/><path class="bb17-3" d="M12,29H11V25H10v1H8v1H9v6h3V29Z"/><path class="bb17-2" d="M9,27H8V26h2V25H8V24H7v7H6v1H8v1H9V27Z"/><path class="bb17-4" d="M6,25H7V24H6Z"/><path class="bb17-3" d="M7,30V25H6v6H7Z"/><path class="bb17-2" d="M6,25V22H5v9H6V25Z"/><rect class="bb17-2" x="20" y="15" width="1" height="1"/><path class="bb17-5" d="M10,13v1h2V13Z"/><path class="bb17-5" d="M12,12v1h1v1h5V13H16V12h2v1h1V11H18V10H14v1H13V10H11v1H10v1Z"/><rect class="bb17-5" x="9" y="15" width="1" height="1"/><rect class="bb17-5" x="14" y="15" width="1" height="1"/><path class="bb17-5" d="M17,19H16v1H13V19h3V18h1v1h1V18h1V16H18v1H16V16H15v1H14V16H13v1H11V16H10v2h1v1h1v2h1v1h3V21h1V19Z"/><rect class="bb17-5" x="19" y="15" width="1" height="1"/><rect class="bb17-2" x="18" y="10" width="1" height="1"/><path class="bb17-2" d="M17,20v1h1V20Z"/><path class="bb17-2" d="M16,22H13V21H12v2H11v1H10v1h1v4h1V26h1V25H12V24h1V23h1v1H13v1h3V24H15V23h1v1h1v1H16v1h1v3h1V25h1V24H18V23H17V21H16Z"/><path class="bb17-2" d="M15,10h3V9H15Z"/><path class="bb17-2" d="M13,9H11v1h2Z"/><path class="bb17-2" d="M11,21h1V20H11Z"/><rect class="bb17-2" x="10" y="10" width="1" height="1"/><rect class="bb17-2" x="8" y="15" width="1" height="1"/><rect class="bb17-2" x="14" y="16" width="1" height="1"/><rect class="bb17-6" x="18" y="13" width="1" height="1"/><rect class="bb17-6" x="16" y="12" width="2" height="1"/><rect class="bb17-6" x="12" y="13" width="1" height="1"/><rect class="bb17-6" x="10" y="12" width="2" height="1"/><path class="bb17-7" d="M19,17v1H18v1H17v1h1v1h2V20h1V19H20V16H19Z"/><path class="bb17-7" d="M9,21h2V20h1V19H11V18H10V16H9v3H8v1H9Z"/><rect class="bb17-2" x="13" y="19" width="3" height="1"/><rect class="bb17-2" x="16" y="18" width="1" height="1"/><path class="bb17-8" d="M13,11h1V10h1V9h2V8H16V6H15V5H14V7H13v4Z"/><path class="bb17-2" d="M10,16h1v1h2V16h1V15h1v1h1v1h2V16h1V15h1V11H19v3H10V11H9v4h1Z"/><path class="bb17-5" d="M7,24H8V22H6v2Z"/><path class="bb17-9" d="M8,22V20H7v2Z"/><path class="bb17-2" d="M7,21H6v1H7Z"/><path class="bb17-2" d="M9,22H8v2H9Z"/><path class="bb17-4" d="M8,19V16H7v1H6v2H7v1H8Z"/><path class="bb17-4" d="M6,16H5v1H6Z"/><path class="bb17-4" d="M5,19v1H6V19Z"/><rect class="bb17-10" x="4" y="18" width="1" height="1"/><path class="bb17-4" d="M5,18V17H4v1Z"/><path class="bb17-4" d="M4,21H5V20H4Z"/><path class="bb17-4" d="M4,20V18H3V17H2v4H3V20Z"/><path class="bb17-11" d="M5,19H6V18H5Z"/><path class="bb17-11" d="M4,19v1H5V19Z"/><path class="bb17-10" d="M6,18V17H5v1Z"/><path class="bb17-2" d="M7,17V16H6v1Z"/><path class="bb17-2" d="M6,19v1H7V19Z"/><path class="bb17-2" d="M4,18V17H3v1Z"/><path class="bb17-2" d="M3,20v1H4V20Z"/></svg>