<svg xmlns="http://www.w3.org/2000/svg" viewBox="0 0 29 33"><defs><style>polygon,rect,path{shape-rendering:crispedges;}.gb55-1{fill:#000000;}.gb55-2{fill:#9b8100;}.gb55-3{fill:#ffffff;}.gb55-4{fill:#90a2a3;}.gb55-5{fill:#6d3e35;}.gb55-6{fill:#fad000;}.gb55-7{fill:#ffffff;}.gb55-8{fill:#7a982c;}.gb55-9{fill:#0068ff;}.gb55-10{fill:#ff1f4a;}</style></defs><path class="gb55-1" d="M23,27H22v6h1V27Z"/><path class="gb55-2" d="M22,27H21v6h1V27Z"/><path class="gb55-1" d="M21,27h1V26H21V25H20v2H17v1h2v1h1v4h1V27Z"/><path class="gb55-2" d="M20,29H19v1H18v1H17v1H16v1h4V29Z"/><path class="gb55-2" d="M18,26H17v1h2V26h1V25H18Z"/><path class="gb55-2" d="M16,28v3h1V30h1V29h1V28H17V27H16Z"/><rect class="gb55-1" x="18" y="29" width="1" height="1"/><path class="gb55-3" d="M15,28H14v5h1V28Z"/><path class="gb55-2" d="M12,32V31H11V30H10V29H9v4h4V32Z"/><rect class="gb55-1" x="11" y="30" width="1" height="1"/><path class="gb55-2" d="M10,26v1h2V26H11V25H9v1Z"/><path class="gb55-2" d="M12,28H10v1h1v1h1v1h1V27H12Z"/><path class="gb55-1" d="M9,29h1V28h2V27H9V25H8v1H7v1H8v6H9V29Z"/><path class="gb55-2" d="M8,27H7v6H8V27Z"/><path class="gb55-1" d="M7,27H6v6H7V27Z"/><rect class="gb55-1" x="10" y="29" width="1" height="1"/><rect class="gb55-1" x="17" y="30" width="1" height="1"/><path class="gb55-1" d="M17,32V31H16V27H13v4H12v1h1v1h1V28h1v5h1V32Z"/><path class="gb55-4" d="M9,26v1h1V26Z"/><path class="gb55-4" d="M19,27h1V26H19Z"/><rect class="gb55-5" x="13" y="20" width="3" height="1"/><path class="gb55-1" d="M18,25h2V24H19V23H18v2Z"/><rect class="gb55-1" x="17" y="25" width="1" height="1"/><path class="gb55-6" d="M18,24H17v1h1Z"/><path class="gb55-7" d="M17,24h1V23H17Z"/><rect class="gb55-1" x="16" y="26" width="1" height="1"/><rect class="gb55-7" x="16" y="25" width="1" height="1"/><path class="gb55-6" d="M15,26v1h1V26Z"/><path class="gb55-7" d="M14,26v1h1V26Z"/><path class="gb55-6" d="M13,26v1h1V26Z"/><rect class="gb55-1" x="12" y="26" width="1" height="1"/><rect class="gb55-7" x="12" y="25" width="1" height="1"/><rect class="gb55-1" x="11" y="25" width="1" height="1"/><rect class="gb55-6" x="11" y="24" width="1" height="1"/><rect class="gb55-7" x="11" y="23" width="1" height="1"/><path class="gb55-1" d="M11,24V23H10v1H9v1h2Z"/><path class="gb55-8" d="M0,9V33H6V27H7V26H8V25H9V24h1V23h1V21H10V20H9V17H8V15H9V11h1V10h1V9h7v1h1v1h1v4h1v2H20v3H19v1H18v2h1v1h1v1h1v1h1v1h1v6h6V0H0Z"/><path class="gb55-1" d="M12,24v1h1v1h3V25h1V23h1V21h1V20h1V17h1V15H20v1H15V15H14v1H9V15H8v2H9v3h1v1h1v2h1Zm1-4h3v1H13Z"/><path class="gb55-1" d="M14,13v1h1V13h5V11H19V10H18V9H11v1H10v1H9v2h5Z"/><path class="gb55-7" d="M10,16h4V15h1v1h5V13H15v1H14V13H9v3Zm6-2h3v1H16Zm-6,0h3v1H10Z"/><path class="gb55-9" d="M19,15V14H16v1h3Z"/><path class="gb55-10" d="M13,15V14H10v1h3Z"/></svg>