<svg xmlns="http://www.w3.org/2000/svg" viewBox="0 0 29 33"><defs><style>polygon,rect,path{shape-rendering:crispedges;}.ga258-1{fill:#d4a122;}.ga258-2{fill:#000000;}.ga258-3{fill:#8e9350;}.ga258-4{fill:#e8b795;}.ga258-5{fill:#d2d8b8;}.ga258-6{fill:#492a23;}.ga258-7{fill:#fad000;}.ga258-8{fill:#b18518;}</style></defs><path class="ga258-1" d="M0,33H6V27H7V26H8V25h2V24h2V22H11V21H10V20H9V16H8V13H4V12H6V11H8V10h2V9h1V8h1V7h1V6h1V5h1V6h1V7h1V8h1V9h1v1h2v1h2v1h2v1H21v3H20v4H19v1H18v1H17v2h2v1h2v1h1v1h1v6h6V0H0Z"/><path class="ga258-2" d="M23,27H22v6h1V27Z"/><rect class="ga258-2" x="21" y="26" width="1" height="1"/><path class="ga258-3" d="M22,27H21v6h1V27Z"/><path class="ga258-2" d="M21,27H20v6h1V27Z"/><path class="ga258-2" d="M20,26h1V25H19v1Z"/><rect class="ga258-3" x="13" y="29" width="1" height="2"/><path class="ga258-3" d="M20,27h1V26H19V25H17v1H16v1H13V26H12V25H10v1H9v7H20V27Zm-9,2v3H10V28h1Zm4,3H12V28h3Zm4-3H17v2h1V30h1v2H16V28h3Z"/><path class="ga258-2" d="M18,25h1V24H17v1Z"/><path class="ga258-2" d="M16,24h1V23H16Z"/><rect class="ga258-2" x="16" y="25" width="1" height="1"/><path class="ga258-2" d="M13,26v1h3V26H13Z"/><path class="ga258-2" d="M13,23H12v1h1Z"/><path class="ga258-4" d="M13,25v1h3V25h1V24H16V23H13v1H12v1Z"/><rect class="ga258-2" x="12" y="25" width="1" height="1"/><path class="ga258-2" d="M12,24H10v1h2Z"/><path class="ga258-2" d="M9,26h1V25H8v1H7v1H8v6H9V26Z"/><path class="ga258-3" d="M8,27H7v6H8V27Z"/><path class="ga258-2" d="M7,27H6v6H7V27Z"/><path class="ga258-5" d="M12,32h3V28H12Zm1-3h1v2H13Z"/><path class="ga258-5" d="M10,29v3h1V28H10Z"/><path class="ga258-5" d="M16,28v4h3V30H18v1H17V29h2V28H16Z"/><path class="ga258-2" d="M20,16h1V15H20Z"/><path class="ga258-4" d="M16,16H15v1H14V16H13v1H11v1h1v1h1V18h5V17H16Z"/><rect class="ga258-4" x="14" y="15" width="1" height="1"/><path class="ga258-2" d="M8,15v1H9V15Z"/><rect class="ga258-2" x="14" y="16" width="1" height="1"/><path class="ga258-6" d="M15,18H13v1h3V18Z"/><path class="ga258-6" d="M14,23h3V22h1V21h1V20h1V16H19v1H18v1H17v1H16v1H13V19H12V18H11V17H10V16H9v4h1v1h1v1h1v1h2Z"/><rect class="ga258-2" x="13" y="19" width="3" height="1"/><path class="ga258-2" d="M16,19h1V18H16Z"/><path class="ga258-7" d="M19,16h1V15h1V14H19Z"/><path class="ga258-2" d="M16,14v2h3V14Z"/><path class="ga258-7" d="M16,16v1h3V16H16Z"/><path class="ga258-7" d="M14,16V15h1v1h1V14H13v2Z"/><path class="ga258-2" d="M13,16V14H10v2h3Z"/><path class="ga258-7" d="M13,16H10v1h3Z"/><path class="ga258-7" d="M10,15V14H8v1H9v1h1Z"/><path class="ga258-8" d="M13,14h8V13h4V12H23V11H21V10H19V9H18V8H17V7H16V6H15V5H14V6H13V7H12V8H11V9H10v1H8v1H6v1H4v1H8v1h5Z"/></svg>