<svg xmlns="http://www.w3.org/2000/svg" viewBox="0 0 29 33"><defs><style>polygon,rect,path{shape-rendering:crispedges;}.sa70-1{fill:#b4bd09;}.sa70-2{fill:#000000;}.sa70-3{fill:#ff791f;}.sa70-4{fill:#a56e49;}.sa70-5{fill:#00774c;}.sa70-6{fill:#ffffff;}.sa70-7{fill:#004a77;}.sa70-8{fill:#b3ffa1;}.sa70-9{fill:#ff1f4a;}.sa70-10{fill:#004a77;}.sa70-11{fill:#455054;}.sa70-12{fill:#ffffff;}.sa70-13{fill:#0068ff;}</style></defs><path class="sa70-1" d="M10,23V22H9v2H8v1h2V24h1V23Z"/><rect class="sa70-1" x="8" y="21" width="1" height="1"/><path class="sa70-1" d="M8,32H6V31H5V22H6V21H7V20H5v1H2V17H5V16H7V11H8V10H9V9h1V8h1V7h7V8h1V9h1v1h1v1h1v9H21v1H20v1H19v1H18v1h1v1h2v1h1v1h1v6h6V0H0V33H8Z"/><path class="sa70-2" d="M6,24V22H5v9H6V24Z"/><path class="sa70-2" d="M23,27H22v6h1V27Z"/><path class="sa70-3" d="M22,27H21v6h1V27Z"/><rect class="sa70-2" x="21" y="26" width="1" height="1"/><path class="sa70-2" d="M21,27H20v6h1V27Z"/><path class="sa70-3" d="M10,30h1V29h1V25h1V24H11v1H10v1H8v1H9v6h1V30Z"/><path class="sa70-3" d="M20,27h1V26H19V25H18V24H16v1h1v4h1v1h1v3h1V27Z"/><path class="sa70-2" d="M20,26h1V25H19v1Z"/><rect class="sa70-2" x="18" y="24" width="1" height="1"/><path class="sa70-2" d="M16,24h2V23H16Z"/><path class="sa70-2" d="M13,24v1h3V24H13Z"/><path class="sa70-4" d="M15,23H13v1h3V23Z"/><path class="sa70-2" d="M12,23H11v1h2V23Z"/><rect class="sa70-2" x="10" y="24" width="1" height="1"/><path class="sa70-2" d="M9,27H8V26h2V25H8V24H7v7H6v1H8v1H9V27Z"/><path class="sa70-3" d="M7,30V24H6v7H7Z"/><path class="sa70-3" d="M13,25v3h3V25H13Z"/><path class="sa70-3" d="M16,32H12v1h5V32Z"/><rect class="sa70-3" x="16" y="30" width="1" height="1"/><rect class="sa70-3" x="12" y="30" width="1" height="1"/><path class="sa70-5" d="M19,30H18V29H17v2H16V28H13v3H12V29H11v1H10v3h2V32h5v1h2V30Z"/><path class="sa70-2" d="M13,25H12v5h1V25Z"/><path class="sa70-2" d="M16,28v2h1V25H16v3Z"/><path class="sa70-4" d="M11,13H10v1h2V13Z"/><path class="sa70-4" d="M16,22V21h1V20h1V19h1V15H16v3h1v1H16v1H13V19H12V18h1V15H10v4h1v1h1v1h1v1h3Z"/><path class="sa70-4" d="M17,14h1V13H16V12H15V11H14v1H12v1h1v2h3V14Z"/><path class="sa70-6" d="M18,14v1h1V14Z"/><path class="sa70-6" d="M12,14v1h1V14Z"/><path class="sa70-2" d="M17,14H16v1h2V14Z"/><rect class="sa70-7" x="18" y="13" width="1" height="1"/><path class="sa70-7" d="M17,13V12H16v1Z"/><path class="sa70-7" d="M13,13H12v1h1Z"/><path class="sa70-8" d="M13,12h1V11H12v1Z"/><path class="sa70-8" d="M15,12h2V11H15Z"/><path class="sa70-8" d="M17,12v1h2V12H17Z"/><path class="sa70-8" d="M11,13h1V12H10v1Z"/><path class="sa70-9" d="M13,15v3h3V15H13Z"/><path class="sa70-3" d="M8,15v5H9v1h1v1h1v1h2V22H12V21H11V20H10V19H9V12h1V11h2V10h5v1h2v1h1v7H19v1H18v1H17v1H16v1h2V22h1V21h1V20h1V11H20V10H19V9H18V8H11V9H10v1H9v1H8v4Z"/><rect class="sa70-2" x="10" y="8" width="1" height="1"/><rect class="sa70-2" x="9" y="9" width="1" height="1"/><rect class="sa70-2" x="8" y="10" width="1" height="1"/><path class="sa70-2" d="M8,15V11H7v5H8Z"/><rect class="sa70-2" x="8" y="20" width="1" height="1"/><rect class="sa70-2" x="9" y="21" width="1" height="1"/><rect class="sa70-2" x="10" y="22" width="1" height="1"/><rect class="sa70-2" x="18" y="22" width="1" height="1"/><rect class="sa70-2" x="19" y="21" width="1" height="1"/><rect class="sa70-2" x="20" y="20" width="1" height="1"/><path class="sa70-2" d="M21,20h1V11H21v9Z"/><rect class="sa70-2" x="20" y="10" width="1" height="1"/><rect class="sa70-2" x="19" y="9" width="1" height="1"/><rect class="sa70-2" x="18" y="8" width="1" height="1"/><path class="sa70-2" d="M18,8V7H11V8h7Z"/><path class="sa70-2" d="M12,11H10v1h2Z"/><path class="sa70-2" d="M10,15h2V14H10V12H9v7h1V15Z"/><rect class="sa70-2" x="10" y="19" width="1" height="1"/><rect class="sa70-2" x="11" y="20" width="1" height="1"/><rect class="sa70-2" x="12" y="21" width="1" height="1"/><path class="sa70-2" d="M16,23V22H13v1h3Z"/><rect class="sa70-2" x="16" y="21" width="1" height="1"/><rect class="sa70-2" x="17" y="20" width="1" height="1"/><rect class="sa70-2" x="18" y="19" width="1" height="1"/><path class="sa70-2" d="M19,14v5h1V12H19v2Z"/><path class="sa70-2" d="M18,12h1V11H17v1Z"/><path class="sa70-2" d="M15,11h2V10H12v1h3Z"/><path class="sa70-10" d="M12,18v1h4V18H12Z"/><path class="sa70-2" d="M13,20h3V19H13Z"/><rect class="sa70-2" x="16" y="18" width="1" height="1"/><path class="sa70-4" d="M7,24H8V22H6v2Z"/><path class="sa70-11" d="M8,22V20H7v2Z"/><path class="sa70-2" d="M7,21H6v1H7Z"/><path class="sa70-2" d="M9,22H8v2H9Z"/><path class="sa70-12" d="M5,17H2v1H5Z"/><path class="sa70-12" d="M8,16H5v1H8Z"/><path class="sa70-9" d="M8,19H5v1H8Z"/><path class="sa70-9" d="M2,21H5V20H2Z"/><path class="sa70-13" d="M8,19V17H5v1H2v2H5V19Z"/></svg>