<svg xmlns="http://www.w3.org/2000/svg" viewBox="0 0 29 33"><defs><style>polygon,rect,path{shape-rendering:crispedges;}.ga117-1{fill:#d14646;}.ga117-2{fill:#000000;}.ga117-3{fill:#333333;}.ga117-4{fill:#c18d59;}.ga117-5{fill:#8e9350;}.ga117-6{fill:#ffffff;}.ga117-7{fill:#e2e2e2;}.ga117-8{fill:#e2e2e2;}.ga117-9{fill:#72dd40;}.ga117-10{fill:#455054;}.ga117-11{fill:#29834f;}.ga117-12{fill:#ff791f;}</style></defs><path class="ga117-1" d="M0,33H8V32H6V31H5V22H6V21H7V20H5v1H2V17H5V16H8V15H9V11h1V10h1V9h2V7h1V5h1V6h1V8h1V9h1v1h1v1h1v4h1v1H20v4H19v1H17v3h2v1h2v1h1v1h1v6h6V0H0Z"/><path class="ga117-1" d="M8,19v3H9v2H8v1h2V24h2V21H10V20H9V16H8v3Z"/><path class="ga117-2" d="M6,24V22H5v9H6V24Z"/><path class="ga117-3" d="M7,30V24H6v7H7Z"/><path class="ga117-2" d="M9,27H8V26h2V25H8V24H7v7H6v1H8v1H9V27Z"/><path class="ga117-3" d="M16,32H12v1h5V32Z"/><rect class="ga117-3" x="16" y="30" width="1" height="1"/><path class="ga117-3" d="M20,27h1V26H19V25H17v1H16v1H13V26H12V25H10v1H8v1H9v6h1V30h1V29h1V28h5v1h1v1h1v3h1V27Z"/><rect class="ga117-3" x="12" y="30" width="1" height="1"/><path class="ga117-2" d="M11,24H10v1h2V24Z"/><rect class="ga117-2" x="12" y="25" width="1" height="1"/><path class="ga117-2" d="M13,26v1h3V26H13Z"/><path class="ga117-4" d="M16,23H13v1H12v1h1v1h3V25h1V24H16Z"/><rect class="ga117-2" x="16" y="25" width="1" height="1"/><path class="ga117-2" d="M18,25h1V24H17v1Z"/><path class="ga117-2" d="M20,26h1V25H19v1Z"/><path class="ga117-2" d="M21,27H20v6h1V27Z"/><rect class="ga117-2" x="21" y="26" width="1" height="1"/><path class="ga117-3" d="M22,27H21v6h1V27Z"/><path class="ga117-2" d="M23,27H22v6h1V27Z"/><path class="ga117-5" d="M19,30H18V29H17V28H12v1H11v1H10v3h2V32h5v1h2V30Zm-6,1H12V30h1Zm4,0H16V30h1Z"/><rect class="ga117-2" x="20" y="15" width="1" height="1"/><path class="ga117-2" d="M19,13v2h1V11H19v2Z"/><path class="ga117-4" d="M10,16v2h1v2h1v1h1v1h3V21h1V20h1V18h1V16h1V15H16V14h3V13H16V12h3V11H18V10H14v1H13V10H11v1H10v1h3v1H10v1h3v1H9v1Zm4,0h1v1H14Zm-1,3h3V18h1v1H16v1H13Z"/><path class="ga117-2" d="M19,17h1V16H19Z"/><rect class="ga117-2" x="18" y="10" width="1" height="1"/><path class="ga117-2" d="M16,22H13V21H12v3h1V23h3v1h1V21H16Z"/><path class="ga117-2" d="M13,9H11v1h2Z"/><path class="ga117-2" d="M15,10h3V9H15Z"/><rect class="ga117-2" x="10" y="10" width="1" height="1"/><path class="ga117-2" d="M10,14V11H9v4h1Z"/><path class="ga117-2" d="M10,16H9v1h1Z"/><rect class="ga117-2" x="8" y="15" width="1" height="1"/><rect class="ga117-2" x="14" y="16" width="1" height="1"/><path class="ga117-6" d="M13,15V14H12v1Z"/><path class="ga117-6" d="M11,15V14H10v1Z"/><path class="ga117-6" d="M18,14v1h1V14Z"/><path class="ga117-6" d="M16,14v1h1V14Z"/><path class="ga117-2" d="M12,15V14H11v1Z"/><path class="ga117-2" d="M17,14v1h1V14Z"/><path class="ga117-7" d="M13,13V12H10v1Z"/><path class="ga117-7" d="M16,12v1h3V12Z"/><path class="ga117-8" d="M19,18H18v2H17v1h2V20h1V17H19Z"/><path class="ga117-8" d="M11,20V18H10V17H9v3h1v1h2V20Z"/><rect class="ga117-2" x="13" y="19" width="3" height="1"/><rect class="ga117-2" x="16" y="18" width="1" height="1"/><path class="ga117-9" d="M13,11h1V10h1V9h2V8H16V6H15V5H14V7H13v4Z"/><path class="ga117-4" d="M7,24H8V22H6v2Z"/><path class="ga117-10" d="M8,22V20H7v2Z"/><path class="ga117-2" d="M7,21H6v1H7Z"/><path class="ga117-2" d="M9,22H8v2H9Z"/><path class="ga117-11" d="M4,17H2v4H4V17Z"/><path class="ga117-12" d="M8,19V16H6v4H8Z"/><path class="ga117-6" d="M6,16H5v1H4v4H5V20H6V16Z"/></svg>