<svg xmlns="http://www.w3.org/2000/svg" viewBox="0 0 29 33"><defs><style>polygon,rect,path{shape-rendering:crispedges;}.ba161-1{fill:#29834f;}.ba161-2{fill:#000000;}.ba161-3{fill:#e8b795;}.ba161-4{fill:#ffffff;}.ba161-5{fill:#ffffff;}.ba161-6{fill:#ffffff;}.ba161-7{fill:#8e4717;}.ba161-8{fill:#8e4717;}.ba161-9{fill:#cc3232;}.ba161-10{fill:#455054;}.ba161-11{fill:#ff1f4a;}</style></defs><path class="ba161-1" d="M0,33H8V32H6V31H5V22H6V21H7V20H5v1H2V17H5V16H8V15H9V11h1V10h1V9h7v1h1v1h1v4h1v1H20v4H19v1H17v3h2v1h2v1h1v1h1v6h6V0H0Z"/><path class="ba161-1" d="M8,19v3H9v2H8v1h2V24h2V21H10V20H9V16H8v3Z"/><path class="ba161-2" d="M23,27H22v6h1V27Z"/><rect class="ba161-2" x="21" y="26" width="1" height="1"/><path class="ba161-3" d="M22,27H21v6h1V27Z"/><rect class="ba161-3" x="20" y="26" width="1" height="1"/><path class="ba161-2" d="M21,27H20v6h1V27Z"/><path class="ba161-2" d="M20,26h1V25H19v1Z"/><rect class="ba161-4" x="10" y="32" width="1" height="1"/><path class="ba161-4" d="M14,31v1h1V30H14Z"/><rect class="ba161-4" x="18" y="32" width="1" height="1"/><rect class="ba161-4" x="10" y="30" width="1" height="1"/><rect class="ba161-4" x="18" y="30" width="1" height="1"/><path class="ba161-4" d="M17,30h1V29h1v1h1V26H19V25H18v1H17v1H16v1H13V27H12V26H11V25H10v1H9v4h1V29h1v1h1v3h1V29h2v1h1v2H15v1h2V30Z"/><path class="ba161-2" d="M18,26V25h1V24H17v2Z"/><rect class="ba161-2" x="16" y="26" width="1" height="1"/><path class="ba161-2" d="M13,27v1h3V27H13Z"/><path class="ba161-3" d="M16,23H13v1H12v2h1v1h3V26h1V24H16Z"/><rect class="ba161-2" x="12" y="26" width="1" height="1"/><path class="ba161-2" d="M10,24v1h1v1h1V24Z"/><path class="ba161-3" d="M8,27H9V26H8Z"/><path class="ba161-2" d="M9,30V27H8V26h2V25H8V24H7v7H6v1H8v1H9V30Z"/><path class="ba161-3" d="M7,30V24H8V22H6v9H7Z"/><path class="ba161-2" d="M6,22H5v9H6V22Z"/><path class="ba161-5" d="M20,30H19v1H18V30H17v3h1V32h1v1h1V30Z"/><rect class="ba161-5" x="18" y="29" width="1" height="1"/><path class="ba161-5" d="M16,32V30H15v2Z"/><path class="ba161-5" d="M14,32V30h1V29H13v4h2V32Z"/><path class="ba161-5" d="M12,30H11v1H10V30H9v3h1V32h1v1h1V30Z"/><rect class="ba161-5" x="10" y="29" width="1" height="1"/><rect class="ba161-2" x="20" y="15" width="1" height="1"/><path class="ba161-2" d="M19,14v1h1V13H19Z"/><path class="ba161-3" d="M10,13v1h2V13Z"/><path class="ba161-3" d="M13,11h5V10H11v1Z"/><path class="ba161-3" d="M10,16v2h1v2h1v1h1v1h3V21h1V20h1V18h1V16h1V15H16V14h2V13H13v2H9v1Zm4,0h1v1H14Zm-1,3h3V18h1v1H16v1H13Z"/><path class="ba161-2" d="M19,17h1V16H19Z"/><rect class="ba161-2" x="18" y="10" width="1" height="1"/><path class="ba161-2" d="M16,22H13V21H12v3h1V23h3v1h1V21H16Z"/><path class="ba161-2" d="M18,10V9H11v1h7Z"/><rect class="ba161-2" x="10" y="10" width="1" height="1"/><path class="ba161-2" d="M10,16H9v1h1Z"/><rect class="ba161-2" x="8" y="15" width="1" height="1"/><rect class="ba161-2" x="14" y="16" width="1" height="1"/><path class="ba161-6" d="M18,14v1h1V14Z"/><path class="ba161-6" d="M12,15h1V14H12Z"/><path class="ba161-2" d="M17,14H16v1h2V14Z"/><path class="ba161-2" d="M12,15V14H10V13H9v2h3Z"/><rect class="ba161-7" x="18" y="13" width="1" height="1"/><path class="ba161-7" d="M12,14h1V13H12Z"/><path class="ba161-8" d="M19,18H18v2H17v1h2V20h1V17H19Z"/><path class="ba161-8" d="M11,20V18H10V17H9v3h1v1h2V20Z"/><rect class="ba161-2" x="13" y="19" width="3" height="1"/><rect class="ba161-2" x="16" y="18" width="1" height="1"/><path class="ba161-6" d="M20,12V11H9v1H20Z"/><path class="ba161-9" d="M12,13h8V12H9v1h3Z"/><path class="ba161-10" d="M8,22V20H7v2Z"/><path class="ba161-2" d="M7,21H6v1H7Z"/><path class="ba161-2" d="M9,22H8v2H9Z"/><path class="ba161-6" d="M4,19V18H5V17H3v4H5V20H4Z"/><path class="ba161-6" d="M6,16H5v1H6v2H5v1H7V16Z"/><path class="ba161-11" d="M2,17v4H3V17Z"/><path class="ba161-11" d="M8,19V16H7v4H8Z"/><path class="ba161-11" d="M6,19V17H5v1H4v2H5V19Z"/></svg>