<svg xmlns="http://www.w3.org/2000/svg" viewBox="0 0 29 33"><defs><style>polygon,rect,path{shape-rendering:crispedges;}.ya285-1{fill:#e55b35;}.ya285-2{fill:#000000;}.ya285-3{fill:#508e91;}.ya285-4{fill:#ce8452;}.ya285-5{fill:#cbed03;}.ya285-6{fill:#ffffff;}.ya285-7{fill:#492a23;}.ya285-8{fill:#ff5e17;}.ya285-9{fill:#fad000;}.ya285-10{fill:#c9a717;}</style></defs><path class="ya285-1" d="M0,33H6V27H7V26H8V25h2V24h1V23h1V21H11V20H10V19H9V17H8V15H9V14H8V13H4V12H6V11H8V10h2V9h1V8h1V7h1V6h1V5h1V6h1V7h1V8h1V9h1v1h2v1h2v1h2v1H21v1H20v1h1v2H20v2H19v1H18v1H17v2h1v1h1v1h2v1h1v1h1v6h6V0H0Z"/><path class="ya285-2" d="M23,27H22v6h1V27Z"/><path class="ya285-3" d="M21,31v1h1V30H21Z"/><path class="ya285-3" d="M21,28h1V27H21Z"/><rect class="ya285-2" x="21" y="26" width="1" height="1"/><path class="ya285-2" d="M21,31V27H20v6h1V31Z"/><path class="ya285-3" d="M19,31V30H18V28H17V27H16V25H15v3h1v1h1v2h1v1h1v1h1V31Z"/><path class="ya285-3" d="M14,31H13V30H12V28H11V27H10V26H9v2h1v1h1v2h1v1h1v1h1V31Z"/><path class="ya285-3" d="M16,31V30H15v2h1v1h1V31Z"/><path class="ya285-3" d="M10,31V30H9v2h1v1h1V31Z"/><rect class="ya285-3" x="14" y="29" width="1" height="1"/><path class="ya285-3" d="M18,26v2h1v1h1V27H19V25H18Z"/><path class="ya285-3" d="M13,29h1V27H13V26H12v2h1Z"/><path class="ya285-2" d="M20,26h1V25H19v1Z"/><rect class="ya285-3" x="16" y="24" width="1" height="1"/><rect class="ya285-2" x="15" y="24" width="1" height="1"/><path class="ya285-2" d="M14,32v1h1V32Z"/><path class="ya285-2" d="M14,31h1V30H14Z"/><path class="ya285-2" d="M14,29h1V28H14Z"/><path class="ya285-2" d="M14,26v1h1V25H14Z"/><rect class="ya285-2" x="13" y="24" width="1" height="1"/><path class="ya285-4" d="M16,24V23H13v1h1v1h1V24Z"/><path class="ya285-2" d="M11,26h2V25H12V24h1V23h3v1h1v1H16v1h2V25h1V24H18V23H17V21H16v1H13V21H12v2H11v1H10v1h1Z"/><path class="ya285-2" d="M10,26V25H8v1h2Z"/><path class="ya285-2" d="M9,31V27H8v6H9V31Z"/><path class="ya285-3" d="M7,31v2H8V31Z"/><path class="ya285-3" d="M8,29V27H7v2Z"/><rect class="ya285-2" x="7" y="26" width="1" height="1"/><path class="ya285-2" d="M7,30V27H6v6H7V30Z"/><path class="ya285-5" d="M21,29v1h1V28H21Z"/><path class="ya285-5" d="M21,32v1h1V32Z"/><path class="ya285-5" d="M19,26v1h2V26H19Z"/><path class="ya285-5" d="M19,28H18v2h1v1h1V29H19Z"/><path class="ya285-5" d="M16,26v1h1v1h1V26Z"/><path class="ya285-5" d="M18,32V31H17v2h2V32Z"/><path class="ya285-5" d="M15,30h1v1h1V29H16V28H15v2Z"/><path class="ya285-5" d="M14,28h1V27H14Z"/><polygon class="ya285-5" points="14 27 14 26 14 25 13 25 13 26 13 27 14 27"/><path class="ya285-5" d="M14,32h1V31H14Z"/><rect class="ya285-5" x="15" y="32" width="1" height="1"/><path class="ya285-5" d="M14,29H13V28H12v2h1v1h1V29Z"/><rect class="ya285-5" x="12" y="24" width="1" height="1"/><path class="ya285-5" d="M10,27h1v1h1V26H11V25H10v2Z"/><path class="ya285-5" d="M12,32V31H11v2h2V32Z"/><path class="ya285-5" d="M10,30v1h1V29H10V28H9v2Z"/><path class="ya285-5" d="M9,32v1h1V32Z"/><path class="ya285-5" d="M9,27V26H8v1Z"/><path class="ya285-5" d="M7,30v1H8V29H7Z"/><path class="ya285-2" d="M21,16V15H20v1Z"/><path class="ya285-4" d="M12,19V18h5v2h1V19h1V16h1V15H16V14H13v1H9v1h1v3h1v1h1Zm2-3h1v1H14Z"/><path class="ya285-4" d="M13,20v2h3V20Z"/><path class="ya285-2" d="M19,16v3h1V16Z"/><rect class="ya285-2" x="18" y="19" width="1" height="1"/><rect class="ya285-2" x="17" y="20" width="1" height="1"/><rect class="ya285-2" x="11" y="20" width="1" height="1"/><rect class="ya285-2" x="10" y="19" width="1" height="1"/><path class="ya285-2" d="M10,16H9v3h1V16Z"/><path class="ya285-2" d="M9,15H8v1H9Z"/><rect class="ya285-2" x="14" y="16" width="1" height="1"/><path class="ya285-6" d="M10,14v1h1V14Z"/><path class="ya285-6" d="M16,14v1h1V14Z"/><path class="ya285-2" d="M11,15h2V14H11Z"/><path class="ya285-2" d="M17,14v1h3V14H17Z"/><path class="ya285-7" d="M17,19V18H13v1h3v2h1V19Z"/><path class="ya285-7" d="M13,20V19H12v2h1Z"/><path class="ya285-2" d="M16,19H13v1h3Z"/><path class="ya285-2" d="M12,18v1h1V18Z"/><path class="ya285-8" d="M10,14H9v1h1Z"/><path class="ya285-9" d="M20,17h1V16H20Z"/><path class="ya285-9" d="M8,16v1H9V16Z"/><path class="ya285-10" d="M11,14H21V13h4V12H23V11H21V10H19V9H18V8H17V7H16V6H15V5H14V6H13V7H12V8H11V9H10v1H8v1H6v1H4v1H8v1h3Z"/></svg>