<svg xmlns="http://www.w3.org/2000/svg" viewBox="0 0 29 33"><defs><style>polygon,rect,path{shape-rendering:crispedges;}.cb180-1{fill:#397d98;}.cb180-2{fill:#000000;}.cb180-3{fill:#685432;}.cb180-4{fill:#ffffff;}.cb180-5{fill:#e8b795;}.cb180-6{fill:#990000;}.cb180-7{fill:#990000;}.cb180-8{fill:#ffce00;}.cb180-9{fill:#efc075;}.cb180-10{fill:#2aa8e8;}.cb180-11{fill:#d8aa68;}.cb180-12{fill:#563e1b;}</style></defs><path class="cb180-1" d="M6,32V28H5V27H4V25H5V24H8v1h2V24h1V23h1V21H11V20H10V19H9V16H8V15H9V14H8V12H9V11H8V10H9V9H8V8h2V7h1V8h1V6h1V7h1V8h1V7h1V6h1V7h1V8h1V7h1V8H19V9h2v2H20v1h1v1H20v1h2v8h1v1h1v8H23v1H22v1h7V0H0V33H6Z"/><path class="cb180-1" d="M21,25V16H20v3H19v1H18v1H17v2h1v1h1v1h2Z"/><path class="cb180-2" d="M7,28V27H5v1H6v5H7V28Z"/><path class="cb180-3" d="M8,28H7v5H8V28Z"/><path class="cb180-2" d="M9,26h1V25H8v8H9V26Z"/><path class="cb180-3" d="M12,29H11V25H10v1H9v7h3V29Z"/><path class="cb180-2" d="M11,26v3h1V26h1V25H12V24h1V23h1v1H13v1h3V24H15V23h1v1h1v1H16v1h1v3h1V25h1V24H18V23H17V21H16v1H13V21H12v2H11v1H10v1h1Z"/><rect class="cb180-4" x="12" y="24" width="1" height="1"/><path class="cb180-2" d="M13,29H12v4h1V29Z"/><rect class="cb180-4" x="13" y="23" width="1" height="1"/><path class="cb180-4" d="M16,29h1V26H16V25H13v1H12v3h1v4h1V32h1v1h1V29Zm-1,2H14V30h1Zm0-2H14V28h1Zm0-2H14V26h1Z"/><rect class="cb180-2" x="14" y="26" width="1" height="1"/><rect class="cb180-2" x="14" y="28" width="1" height="1"/><rect class="cb180-2" x="14" y="30" width="1" height="1"/><rect class="cb180-2" x="14" y="32" width="1" height="1"/><rect class="cb180-4" x="15" y="23" width="1" height="1"/><rect class="cb180-4" x="16" y="24" width="1" height="1"/><path class="cb180-2" d="M17,29H16v4h1V29Z"/><path class="cb180-3" d="M20,27h1V26H19V25H18v4H17v4h3V27Z"/><path class="cb180-2" d="M20,25H19v1h2V25Z"/><path class="cb180-2" d="M21,29V27H20v6h1V29Z"/><rect class="cb180-2" x="22" y="31" width="1" height="1"/><path class="cb180-3" d="M23,26H22v5h1V26Z"/><path class="cb180-2" d="M23,26v5h1V23H23v3Z"/><rect class="cb180-2" x="20" y="15" width="1" height="1"/><path class="cb180-5" d="M13,22h3V21h1V20h1V19h1V16h1V15H16V14h3V13H16V12H15V10H14v1H13v2H10v1h3v1H9v1h1v3h1v1h1v1h1Zm1-6h1v1H14Zm-2,3V18h5v1H16v1H13V19Z"/><polygon class="cb180-5" points="18 11 18 10 17 10 17 11 16 11 16 12 18 12 18 11"/><rect class="cb180-5" x="11" y="10" width="1" height="1"/><rect class="cb180-5" x="10" y="11" width="1" height="1"/><path class="cb180-2" d="M20,18V16H19v3h1Z"/><rect class="cb180-2" x="18" y="19" width="1" height="1"/><rect class="cb180-2" x="17" y="20" width="1" height="1"/><rect class="cb180-2" x="11" y="20" width="1" height="1"/><rect class="cb180-2" x="10" y="19" width="1" height="1"/><path class="cb180-2" d="M10,16H9v3h1V16Z"/><rect class="cb180-2" x="8" y="15" width="1" height="1"/><rect class="cb180-2" x="14" y="16" width="1" height="1"/><path class="cb180-4" d="M11,15V14H10v1Z"/><path class="cb180-4" d="M16,14v1h1V14Z"/><path class="cb180-2" d="M12,15h1V14H11v1Z"/><path class="cb180-2" d="M18,14H17v1h2V14Z"/><path class="cb180-6" d="M11,13h2V12H11Z"/><path class="cb180-6" d="M16,12v1h2V12Z"/><path class="cb180-7" d="M16,19h1V18H13v1Z"/><rect class="cb180-2" x="13" y="19" width="3" height="1"/><path class="cb180-2" d="M13,18H12v1h1Z"/><path class="cb180-8" d="M10,14V13h1V12H10V11h1V10h1v1H11v1h2V11h1V10h1v2h1V11h1V10h1v3h1v2h2V14H20V13h1V12H20V11h1V9H19V8H18V7H17V6H16V7H15V8H14V7H13V6H12V8H11V7H10V8H8V9H9v1H8v1H9v1H8v2H9v1h1Z"/><rect class="cb180-8" x="19" y="7" width="1" height="1"/><path class="cb180-9" d="M21,27v2h1V27Z"/><path class="cb180-9" d="M21,20v1h1V19H21Z"/><path class="cb180-9" d="M21,16v1h1V15H21Z"/><path class="cb180-10" d="M22,15V14H21v1Z"/><path class="cb180-5" d="M21,23v2h2V23H21Z"/><path class="cb180-11" d="M22,26V25H21v2h1Z"/><path class="cb180-11" d="M21,23h1V21H21Z"/><path class="cb180-11" d="M21,18v1h1V17H21Z"/><path class="cb180-4" d="M7,26H8V24H5v1H7Z"/><path class="cb180-5" d="M8,27V26H7V25H5v2H8Z"/><path class="cb180-12" d="M22,31V29H21v4h1V31Z"/><path class="cb180-2" d="M23,23V22H22v1Z"/><path class="cb180-2" d="M4,25v2H5V25Z"/><path class="cb180-4" d="M23,26V25H22v1Z"/><path class="cb180-4" d="M7,28H8V27H7Z"/></svg>