<svg xmlns="http://www.w3.org/2000/svg" viewBox="0 0 29 33"><defs><style>polygon,rect,path{shape-rendering:crispedges;}.oa246-1{fill:#7a982c;}.oa246-2{fill:#000000;}.oa246-3{fill:#184144;}.oa246-4{fill:#ffffff;}.oa246-5{fill:#c18d59;}.oa246-6{fill:#ffa9d0;}.oa246-7{fill:#b23b00;}.oa246-8{fill:#f9e100;}.oa246-9{fill:#cbed03;}.oa246-10{fill:#00e070;}</style></defs><path class="oa246-1" d="M0,33H8V32H6V31H5V23H4V20H5V19H7v1H8v1H9v2H8v2h2V24h2V21H11V20H10V19H9V18H8V12H9V10h1V9h1V8h7V9h1v1h1v4h1v2H20v3H19v1H18v1H17v3h2v1h2v1h1v1h1v6h6V0H0Z"/><path class="oa246-2" d="M6,29V23H5v8H6V29Z"/><path class="oa246-2" d="M23,27H22v6h1V27Z"/><path class="oa246-3" d="M21,28v2h1V27H21Z"/><path class="oa246-3" d="M21,31v2h1V31Z"/><rect class="oa246-2" x="21" y="26" width="1" height="1"/><path class="oa246-2" d="M21,30V27H20v6h1V30Z"/><path class="oa246-3" d="M20,32V26H19V25H18v3h1v1H18v4h1V32Z"/><path class="oa246-2" d="M20,26h1V25H19v1Z"/><path class="oa246-2" d="M18,29V25h1V24H17v1H16v1h1v7h1V29Z"/><path class="oa246-4" d="M17,26H16v1H13V26H12v7h5V26Z"/><path class="oa246-2" d="M13,26v1h3V26H13Z"/><path class="oa246-5" d="M13,25v1h3V25h1V24H16V23H13v1H12v1Z"/><path class="oa246-2" d="M13,23h3v1h1V21H16v1H13V21H12v3h1Z"/><path class="oa246-2" d="M12,26h1V25H12V24H10v1h1v8h1V26Z"/><path class="oa246-3" d="M11,29H10V28h1V25H10v1H9v6h1v1h1V29Z"/><path class="oa246-2" d="M9,31V27H8V26h2V25H8V23H7v8H6v1H8v1H9V31Z"/><path class="oa246-3" d="M6,25H7V24H6Z"/><path class="oa246-3" d="M6,27v2H7V26H6Z"/><path class="oa246-3" d="M7,30H6v1H7Z"/><path class="oa246-6" d="M10,29h1V28H10Z"/><path class="oa246-6" d="M19,29V28H18v1Z"/><path class="oa246-6" d="M8,27H9V26H8Z"/><path class="oa246-6" d="M19,32v1h1V32Z"/><path class="oa246-6" d="M9,32v1h1V32Z"/><path class="oa246-6" d="M6,30H7V29H6Z"/><path class="oa246-6" d="M6,26H7V25H6Z"/><path class="oa246-6" d="M21,31h1V30H21Z"/><path class="oa246-6" d="M20,27h1V26H20Z"/><path class="oa246-2" d="M20,16h1V15H20Z"/><path class="oa246-5" d="M14,14h2V13h1V12h2V11H18V10H16v1H14v1H13v2Z"/><path class="oa246-5" d="M13,22h3V21h1V20h1V19h1V17H16V16H15v1H14V16H13v1H10v2h1v1h1v1h1Zm-1-3V18h1v1h3v1H13V19Z"/><rect class="oa246-5" x="14" y="15" width="1" height="1"/><path class="oa246-2" d="M19,17v2h1V16H19Z"/><rect class="oa246-2" x="18" y="19" width="1" height="1"/><rect class="oa246-2" x="17" y="20" width="1" height="1"/><rect class="oa246-2" x="11" y="20" width="1" height="1"/><rect class="oa246-2" x="10" y="19" width="1" height="1"/><path class="oa246-2" d="M10,16H9v3h1V16Z"/><rect class="oa246-2" x="14" y="16" width="1" height="1"/><path class="oa246-7" d="M17,13h2V12H17Z"/><rect class="oa246-2" x="13" y="19" width="3" height="1"/><rect class="oa246-2" x="12" y="18" width="1" height="1"/><path class="oa246-2" d="M9,23V21H8v2Z"/><rect class="oa246-2" x="7" y="20" width="1" height="1"/><rect class="oa246-2" x="5" y="19" width="2" height="1"/><path class="oa246-2" d="M5,20H4v3H5V20Z"/><path class="oa246-5" d="M6,24H7V23H8V21H7V20H5v3H6Z"/><path class="oa246-8" d="M9,15H8v3H9V15Z"/><path class="oa246-8" d="M10,13h3V12h1V11h2V10h2v1h1v3h1V10H19V9H18V8H11V9H10v1H9v2H8v2h2Z"/><path class="oa246-9" d="M19,15v1h1V15h1V14H19Z"/><path class="oa246-9" d="M16,13v1h3V13H16Z"/><path class="oa246-10" d="M19,16V14H16v2h3Z"/><path class="oa246-9" d="M18,16H16v1h3V16Z"/><path class="oa246-9" d="M14,14H13v2h1V15h1v1h1V14Z"/><path class="oa246-9" d="M13,14V13H10v1h3Z"/><path class="oa246-10" d="M12,14H10v2h3V14Z"/><path class="oa246-9" d="M10,16v1h3V16H10Z"/><path class="oa246-9" d="M9,16h1V14H8v1H9Z"/></svg>