<svg xmlns="http://www.w3.org/2000/svg" viewBox="0 0 29 33"><defs><style>polygon,rect,path{shape-rendering:crispedges;}.ja200-1{fill:#b4bd09;}.ja200-2{fill:#000000;}.ja200-3{fill:#e0dbc6;}.ja200-4{fill:#4922aa;}.ja200-5{fill:#e8b795;}.ja200-6{fill:#ffffff;}.ja200-7{fill:#316a6d;}.ja200-8{fill:#316a6d;}.ja200-9{fill:#c8a715;}.ja200-10{fill:#ff791f;}</style></defs><path class="ja200-1" d="M6,32V27H7V26H8V25h2V20H9V16H8V14H9V12H8v1H7V12H8V11H9V10h1V9h2V8h5V9h2v1h1v1h1v1h1v1H21V12H20v2h1v2H20v4H19v5h2v1h1v1h1v6h6V0H0V33H6Z"/><path class="ja200-1" d="M12,22H11v2h1V22Z"/><path class="ja200-1" d="M18,24V22H17v2Z"/><path class="ja200-2" d="M23,27H22v6h1V27Z"/><rect class="ja200-2" x="21" y="26" width="1" height="1"/><path class="ja200-3" d="M21,31v2h1V31Z"/><path class="ja200-3" d="M21,28v2h1V27H21Z"/><path class="ja200-2" d="M21,30V27H20v6h1V30Z"/><path class="ja200-2" d="M20,26h1V25H19v1Z"/><path class="ja200-3" d="M20,32V26H19V25H16V23H13v2H10v1H9v6h1v1h4V32h1v1h4V32Zm-9-3H10V28h1Zm2,2H12V30h1Zm0-4H12V26h1Zm2,2H14V28h1Zm0-4H14V24h1Zm2,6H16V30h1Zm0-4H16V26h1Zm1,2V28h1v1Z"/><path class="ja200-2" d="M17,24v1h2V24H17Z"/><path class="ja200-2" d="M12,24H10v1h2Z"/><path class="ja200-2" d="M10,26V25H8v1h2Z"/><path class="ja200-2" d="M9,31V27H8v6H9V31Z"/><rect class="ja200-2" x="7" y="26" width="1" height="1"/><path class="ja200-3" d="M7,31v2H8V31Z"/><path class="ja200-3" d="M7,30H8V27H7v3Z"/><path class="ja200-2" d="M7,30V27H6v6H7V30Z"/><rect class="ja200-4" x="10" y="28" width="1" height="1"/><rect class="ja200-4" x="12" y="30" width="1" height="1"/><rect class="ja200-4" x="14" y="28" width="1" height="1"/><rect class="ja200-4" x="14" y="32" width="1" height="1"/><rect class="ja200-4" x="12" y="26" width="1" height="1"/><rect class="ja200-4" x="16" y="30" width="1" height="1"/><rect class="ja200-4" x="18" y="28" width="1" height="1"/><rect class="ja200-4" x="16" y="26" width="1" height="1"/><rect class="ja200-4" x="14" y="24" width="1" height="1"/><path class="ja200-4" d="M9,27V26H8v1Z"/><path class="ja200-4" d="M19,32v1h1V32Z"/><path class="ja200-4" d="M9,32v1h1V32Z"/><path class="ja200-4" d="M7,31H8V30H7Z"/><path class="ja200-4" d="M21,31h1V30H21Z"/><path class="ja200-4" d="M20,27h1V26H20Z"/><path class="ja200-2" d="M20,16h1V15H20Z"/><rect class="ja200-2" x="19" y="14" width="1" height="1"/><polygon class="ja200-5" points="13 21 14 21 14 22 15 22 15 21 16 21 16 20 13 20 13 21"/><path class="ja200-5" d="M10,14h2V13H10Z"/><path class="ja200-5" d="M10,17v1h1v1h1V18h2v1h1V18h2v1h1V18h1V16h1V15H16V14h2V13H16V12H15V11H14v1H12v1h1v2H9v1h1Zm4-1h1v1H14Z"/><path class="ja200-2" d="M19,17h1V16H19Z"/><path class="ja200-2" d="M10,15h2V14H9v1Z"/><path class="ja200-2" d="M10,16H9v1h1Z"/><path class="ja200-2" d="M8,15v1H9V15Z"/><rect class="ja200-2" x="14" y="16" width="1" height="1"/><path class="ja200-6" d="M18,14v1h1V14Z"/><path class="ja200-6" d="M12,15h1V14H12Z"/><path class="ja200-2" d="M17,14H16v1h2V14Z"/><rect class="ja200-7" x="18" y="13" width="1" height="1"/><path class="ja200-7" d="M16,12v1h1V12Z"/><path class="ja200-7" d="M13,14V13H12v1Z"/><path class="ja200-8" d="M12,22v1h5V22h2V20h1V17H19v1H18v1H16v2H15v1H14V21H13V19h1V18H12v1H11V18H10V17H9v3h1v2h2Z"/><path class="ja200-8" d="M15,18v1h1V18Z"/><path class="ja200-9" d="M18,23h1V22H18Z"/><path class="ja200-8" d="M18,24h1V23H18Z"/><path class="ja200-9" d="M17,23H16v1h1Z"/><path class="ja200-8" d="M16,24v1h1V24Z"/><path class="ja200-9" d="M12,24h1V23H12Z"/><path class="ja200-8" d="M12,25h1V24H12Z"/><path class="ja200-9" d="M11,22H10v1h1Z"/><path class="ja200-8" d="M11,23H10v1h1Z"/><path class="ja200-2" d="M14,19H13v1h3V19H14Z"/><path class="ja200-2" d="M16,18v1h1V18Z"/><rect class="ja200-10" x="21" y="12" width="1" height="1"/><path class="ja200-10" d="M10,13h2V12h2V11h1v1h2v1h2v1h1V12h1V11H20V10H19V9H17V8H12V9H10v1H9v1H8v1H9v2h1Z"/><path class="ja200-10" d="M21,15V14H20v1Z"/><path class="ja200-10" d="M9,14H8v1H9Z"/><rect class="ja200-10" x="7" y="12" width="1" height="1"/></svg>