<svg xmlns="http://www.w3.org/2000/svg" viewBox="0 0 29 33"><defs><style>polygon,rect,path{shape-rendering:crispedges;}.qa18-1{fill:#d4a122;}.qa18-2{fill:#000000;}.qa18-3{fill:#0068ff;}.qa18-4{fill:#a56e49;}.qa18-5{fill:#0068ff;}.qa18-6{fill:#e2e2e2;}.qa18-7{fill:#e2e2e2;}.qa18-8{fill:#c4ea3b;}.qa18-9{fill:#fad000;}.qa18-10{fill:#455054;}.qa18-11{fill:#ffce00;}.qa18-12{fill:#ff1f4a;}</style></defs><path class="qa18-1" d="M8,18v4H9v2H8v1h2V24h1V23H10V22h1V21H10V20H9V16H8v2Z"/><path class="qa18-1" d="M0,33H8V32H6V31H5V22H6V21H7V20H5v1H2V17H5V16H8V14H9V11h1V10h1V7h1V6H11V5h2V6h2V7h1V9h2v1h1v1h1v3h1v2H20v4H19v1H18v1h1v1H18v1h1v1h2v1h1v1h1v6h6V0H0Z"/><path class="qa18-2" d="M6,24V22H5v9H6V24Z"/><path class="qa18-2" d="M23,27H22v6h1V27Z"/><path class="qa18-3" d="M22,27H21v6h1V27Z"/><rect class="qa18-2" x="21" y="26" width="1" height="1"/><path class="qa18-2" d="M21,27H20v6h1V27Z"/><path class="qa18-3" d="M16,25h1v4h1V28h1v1h1V27h1V26H19V25H18V24H16Z"/><path class="qa18-3" d="M10,28h1v1h1V25h1V24H11v1H10v1H8v1H9v2h1Z"/><rect class="qa18-3" x="18" y="29" width="1" height="1"/><rect class="qa18-3" x="10" y="29" width="1" height="1"/><path class="qa18-3" d="M19,32V31H18v1H17V30H16v1H15v1H13V30H12v2H11V31H10v1H9v1H20V32Z"/><path class="qa18-2" d="M20,26h1V25H19v1Z"/><rect class="qa18-2" x="18" y="24" width="1" height="1"/><rect class="qa18-2" x="18" y="22" width="1" height="1"/><rect class="qa18-3" x="17" y="22" width="1" height="1"/><path class="qa18-2" d="M14,25h2V24H13v1Z"/><path class="qa18-4" d="M16,24V23H13v1h3Z"/><rect class="qa18-3" x="11" y="22" width="1" height="1"/><rect class="qa18-2" x="10" y="24" width="1" height="1"/><rect class="qa18-2" x="10" y="22" width="1" height="1"/><path class="qa18-2" d="M9,31V27H8V26h2V25H8V24H7v7H6v1H8v1H9V31Z"/><path class="qa18-3" d="M7,30V24H6v7H7Z"/><path class="qa18-3" d="M14,29v2h1V29Z"/><path class="qa18-3" d="M13,25v3h2v1h1V25H13Z"/><path class="qa18-5" d="M19,30H18V29H17v3h1V31h1v1h1V29H19Z"/><rect class="qa18-5" x="18" y="28" width="1" height="1"/><path class="qa18-5" d="M15,29v2h1V29Z"/><path class="qa18-5" d="M14,30V29h1V28H13v4h2V31H14Z"/><path class="qa18-5" d="M11,29v1H10V29H9v3h1V31h1v1h1V29Z"/><rect class="qa18-5" x="10" y="28" width="1" height="1"/><path class="qa18-2" d="M13,25H12v5h1V25Z"/><path class="qa18-2" d="M17,28V25H16v5h1V28Z"/><path class="qa18-2" d="M20,16h1V15H20Z"/><path class="qa18-2" d="M19,14h1V11H19v3Z"/><rect class="qa18-4" x="14" y="15" width="1" height="1"/><path class="qa18-4" d="M16,17V16H15v1H14V16H13v1H10v1h1v2h1v1h1v1h3V21h1V20h1V18h1V17H16Zm1,2H16v1H13V19h3V18h1Z"/><path class="qa18-4" d="M12,12v1h1v1h3V12h2v1h1V11H18V10H16v1H14V10H11v1H10v1Z"/><path class="qa18-2" d="M19,17h1V16H19Z"/><rect class="qa18-2" x="18" y="10" width="1" height="1"/><path class="qa18-2" d="M16,21v1H13V21H11v1h1v1H11v1h2V23h3v1h2V23H17V22h1V21H16Z"/><path class="qa18-2" d="M17,10h1V9H16v1Z"/><path class="qa18-2" d="M13,9H11v1h2Z"/><rect class="qa18-2" x="10" y="10" width="1" height="1"/><path class="qa18-2" d="M10,13V11H9v3h1Z"/><path class="qa18-2" d="M10,16H9v1h1Z"/><path class="qa18-2" d="M9,15H8v1H9Z"/><rect class="qa18-2" x="14" y="16" width="1" height="1"/><path class="qa18-6" d="M18,12H16v1h2Z"/><path class="qa18-6" d="M12,12H10v1h2Z"/><path class="qa18-7" d="M19,18H18v2H17v1h2V20h1V17H19Z"/><path class="qa18-7" d="M12,20H11V18H10V17H9v3h1v1h2Z"/><rect class="qa18-2" x="13" y="19" width="3" height="1"/><rect class="qa18-2" x="16" y="18" width="1" height="1"/><path class="qa18-8" d="M13,10h1v1h2V7H15V6H13V5H11V6h1V7H11V9h2Z"/><path class="qa18-9" d="M19,15v1h1V15h1V14H19Z"/><path class="qa18-9" d="M19,14V13H16v1h3Z"/><path class="qa18-2" d="M17,16h2V14H16v2Z"/><path class="qa18-9" d="M16,16v1h3V16H16Z"/><path class="qa18-9" d="M14,16V15h1v1h1V14H13v2Z"/><path class="qa18-9" d="M13,14V13H10v1h3Z"/><path class="qa18-2" d="M13,16V14H10v2h3Z"/><path class="qa18-9" d="M11,17h2V16H10v1Z"/><path class="qa18-9" d="M9,16h1V14H8v1H9Z"/><path class="qa18-4" d="M7,24H8V22H6v2Z"/><path class="qa18-10" d="M8,22V20H7v2Z"/><path class="qa18-2" d="M7,21H6v1H7Z"/><path class="qa18-2" d="M9,22H8v2H9Z"/><path class="qa18-2" d="M5,17H2v1H5Z"/><path class="qa18-2" d="M8,16H5v1H8Z"/><path class="qa18-11" d="M8,19H5v1H8Z"/><path class="qa18-11" d="M2,21H5V20H2Z"/><path class="qa18-12" d="M8,19V17H5v1H2v2H5V19Z"/><rect class="qa18-8" x="10" y="9" width="1" height="1"></rect></svg>