<svg xmlns="http://www.w3.org/2000/svg" viewBox="0 0 29 33"><defs><style>polygon,rect,path{shape-rendering:crispedges;}.cb58-1{fill:#db5a8e;}.cb58-2{fill:#000000;}.cb58-3{fill:#326b43;}.cb58-4{fill:#ffffff;}.cb58-5{fill:#efcaaf;}.cb58-6{fill:#99004d;}.cb58-7{fill:#99004d;}.cb58-8{fill:#34e0cb;}</style></defs><path class="cb58-1" d="M0,33H6V27H7V26H8V25h2V24h1V23h1V21H11V20H10V19H9V16H8V15H9V11h1V10h1V7h1V6H11V5h2V6h2V7h1V9h2v1h2v5h1v1H20v3H19v1H18v1H17v2h1v1h1v1h2v1h1v1h1v6h6V0H0Z"/><path class="cb58-2" d="M23,27H22v6h1V27Z"/><path class="cb58-3" d="M22,27H21v6h1V27Z"/><rect class="cb58-2" x="21" y="26" width="1" height="1"/><path class="cb58-2" d="M21,27H20v6h1V27Z"/><path class="cb58-3" d="M20,27h1V26H19V25H18v4H17v4h3V27Z"/><path class="cb58-2" d="M20,26h1V25H19v1Z"/><path class="cb58-2" d="M17,29H16v4h1V29Z"/><rect class="cb58-4" x="16" y="24" width="1" height="1"/><path class="cb58-4" d="M16,29h1V26H16V25H13v1H12v3h1v4h1V32h1v1h1V29Zm-1,2H14V30h1Zm0-2H14V28h1Zm0-2H14V26h1Z"/><rect class="cb58-4" x="15" y="23" width="1" height="1"/><rect class="cb58-2" x="14" y="32" width="1" height="1"/><rect class="cb58-2" x="14" y="30" width="1" height="1"/><rect class="cb58-2" x="14" y="28" width="1" height="1"/><rect class="cb58-2" x="14" y="26" width="1" height="1"/><path class="cb58-2" d="M15,24V23H14v1H13v1h3V24Z"/><rect class="cb58-4" x="13" y="23" width="1" height="1"/><path class="cb58-2" d="M13,29H12v4h1V29Z"/><rect class="cb58-4" x="12" y="24" width="1" height="1"/><path class="cb58-3" d="M12,29H11V25H10v1H8v1H9v6h3V29Z"/><path class="cb58-2" d="M11,26v3h1V26h1V25H12V24h1V22H12v1H11v1H10v1h1Z"/><path class="cb58-2" d="M10,25H8v1h2Z"/><path class="cb58-2" d="M9,27H8v6H9V27Z"/><path class="cb58-3" d="M8,27H7v6H8V27Z"/><rect class="cb58-2" x="7" y="26" width="1" height="1"/><path class="cb58-2" d="M7,27H6v6H7V27Z"/><rect class="cb58-2" x="20" y="15" width="1" height="1"/><path class="cb58-5" d="M18,15H16V14H14v2h1v1H14V16H13v1H11V16H10v2h1v1h1v1h1V19h3V18h1v1h1V18h1V16h1V15H18Z"/><rect class="cb58-5" x="18" y="12" width="1" height="1"/><polygon class="cb58-5" points="17 14 18 14 18 13 16 13 16 14 17 14"/><path class="cb58-5" d="M10,13v1h2V13Z"/><rect class="cb58-5" x="9" y="15" width="1" height="1"/><path class="cb58-5" d="M12,12v1h1v1h1V13h2V12h2V10H16v1H14V10H11v1H10v1Z"/><path class="cb58-5" d="M13,21h3V20H13Z"/><rect class="cb58-5" x="16" y="19" width="1" height="1"/><path class="cb58-2" d="M16,23v1h1v1H16v1h1v3h1V25h1V24H18V23H17V22H16Z"/><path class="cb58-2" d="M13,9H11v1h2Z"/><path class="cb58-2" d="M17,10h1V9H16v1Z"/><rect class="cb58-2" x="10" y="10" width="1" height="1"/><rect class="cb58-2" x="8" y="15" width="1" height="1"/><rect class="cb58-2" x="14" y="16" width="1" height="1"/><path class="cb58-4" d="M18,15h1V14H18Z"/><path class="cb58-4" d="M16,14v1h1V14Z"/><path class="cb58-2" d="M17,14v1h1V14Z"/><rect class="cb58-6" x="18" y="13" width="1" height="1"/><rect class="cb58-6" x="12" y="13" width="1" height="1"/><rect class="cb58-6" x="10" y="12" width="2" height="1"/><path class="cb58-7" d="M13,23h3V22h1V21h1V20h1V19h1V16H19v2H18v1H17v1H16v1H13V20H12V19H11V18H10V16H9v3h1v1h1v1h1v1h1Z"/><rect class="cb58-2" x="13" y="19" width="3" height="1"/><rect class="cb58-2" x="16" y="18" width="1" height="1"/><path class="cb58-8" d="M13,10h1v1h2V7H15V6H13V5H11V6h1V7H11V9h2Z"/><path class="cb58-2" d="M10,16h1v1h2V16h1V14H10V11H9v4h1Z"/><rect class="cb58-2" x="14" y="13" width="2" height="1"/><rect class="cb58-2" x="16" y="12" width="2" height="1"/><path class="cb58-2" d="M19,12v3h1V10H18v2Z"/><rect class="cb58-8" x="10" y="9" width="1" height="1"></rect></svg>