<svg xmlns="http://www.w3.org/2000/svg" viewBox="0 0 29 33"><defs><style>polygon,rect,path{shape-rendering:crispedges;}polygon,rect,path{shape-rendering:crispedges;}.lb54-1{fill:#a9a9a9;}.lb54-2{fill:#000000;}.lb54-3{fill:#bbbbbb;}.lb54-4{fill:#04263a;}.lb54-5{fill:#0068f5;}.lb54-6{fill:#008dff;}.lb54-7{fill:#008b4c;}.lb54-8{fill:#ffffff;}.lb54-9{fill:#004480;}.lb54-10{fill:#ff6aa5;}.lb54-11{fill:#e8b795;}.lb54-12{fill:#8e4717;}.lb54-13{fill:#8e4717;}.lb54-14{fill:#5a2de2;}.lb54-15{fill:#455054;}.lb54-16{fill:#94d4ff;}.lb54-17{fill:#e5ac2e;}</style></defs><path class="lb54-1" d="M28,25H27v1h2V24H28Z"/><path class="lb54-2" d="M10,21V20H9V17H8v4h2Z"/><path class="lb54-2" d="M0,0V23H4V22H5v9H6V22H7V20H5v1H2V17H5V16H8V15H7V14H9V13H7V12H9V11H8V9H9v1h2V9H10V8H9V7h1V8h1V7h1V8h1V7h2V8h1V7h1V8h1V9h1V8h2V9H20v2h1V10h1v2H21v2h1v1H21v2H20v3H19v1h2v1h5v1h3V0H0ZM27,5V7H22V6H21V5H20V4h1V3h1V2h3V3h1V4h1Z"/><path class="lb54-1" d="M27,32H26V31H23v2h5V32Z"/><path class="lb54-1" d="M25,27v1H24v2h4v1h1V27H25Z"/><path class="lb54-3" d="M18,22h3V21H18Z"/><path class="lb54-3" d="M22,23H21v1h1v1H21v1h2V24h1V23h2V22H23v1Z"/><path class="lb54-3" d="M7,32H6v1H8V32Z"/><path class="lb54-3" d="M9,24H8v1h2V24Z"/><path class="lb54-3" d="M21,25V24H19v1h2Z"/><rect class="lb54-3" x="18" y="23" width="1" height="1"/><rect class="lb54-3" x="10" y="23" width="1" height="1"/><path class="lb54-3" d="M2,24H4v1H5V22H4v1H1v1Z"/><path class="lb54-3" d="M27,24H26v1H25v1H23v5h3v1h2v1h1V31H28V30H24V28h1V27h4V26H27V25h1V24h1V23H27Z"/><path class="lb54-3" d="M4,32V31H5V26H2V25H1V24H0v2H1v1H3v1H4v2H2v1H0v2H3V32Z"/><path class="lb54-3" d="M10,22h1V21H8v1h2Z"/><path class="lb54-4" d="M26,7h1V6H26Z"/><path class="lb54-5" d="M26,5V6h1V4H26Z"/><path class="lb54-5" d="M25,6V7h1V6Z"/><rect class="lb54-6" x="25" y="5" width="1" height="1"/><rect class="lb54-7" x="25" y="4" width="1" height="1"/><rect class="lb54-8" x="25" y="3" width="1" height="1"/><path class="lb54-1" d="M24,24H23v2h2V25h1V24h1V23H24Z"/><path class="lb54-7" d="M24,5H23V6h2V5Z"/><rect class="lb54-8" x="24" y="4" width="1" height="1"/><rect class="lb54-5" x="24" y="3" width="1" height="1"/><path class="lb54-9" d="M24,6H23V7h2V6Z"/><rect class="lb54-6" x="23" y="4" width="1" height="1"/><path class="lb54-1" d="M22,27h1V26H22Z"/><path class="lb54-4" d="M22,6V7h1V6Z"/><rect class="lb54-6" x="22" y="5" width="1" height="1"/><rect class="lb54-5" x="22" y="4" width="1" height="1"/><path class="lb54-7" d="M23,4h1V3h1V2H23V3H22V4Z"/><path class="lb54-6" d="M23,2H22V3h1Z"/><rect class="lb54-1" x="21" y="24" width="1" height="1"/><rect class="lb54-9" x="21" y="5" width="1" height="1"/><rect class="lb54-7" x="21" y="4" width="1" height="1"/><rect class="lb54-8" x="21" y="3" width="1" height="1"/><rect class="lb54-5" x="20" y="4" width="1" height="1"/><path class="lb54-1" d="M19,23v1h2V23h2V22H19Z"/><path class="lb54-1" d="M9,22v2h1V22Z"/><path class="lb54-1" d="M6,31H4v1H3v1H6V31Z"/><path class="lb54-1" d="M2,30H4V28H3V27H1V26H0v5H2Z"/><path class="lb54-1" d="M4,24H1v1H2v1H5V25H4Z"/><path class="lb54-1" d="M1,23H0v1H1Z"/><path class="lb54-2" d="M23,27H22v6h1V27Z"/><path class="lb54-10" d="M22,27H21v6h1V27Z"/><path class="lb54-2" d="M21,26v1h1V26Z"/><path class="lb54-2" d="M21,27H20v6h1V27Z"/><path class="lb54-10" d="M20,27h1V26H19V25H18V24H16v1h1v5H16V25H13v5H12V25h1V24H11v1H10v1H8v1H9v6H20V27Z"/><path class="lb54-2" d="M20,25H19v1h2V25Z"/><rect class="lb54-2" x="18" y="24" width="1" height="1"/><path class="lb54-2" d="M19,23V22H18v1Z"/><rect class="lb54-10" x="17" y="22" width="1" height="1"/><path class="lb54-2" d="M17,23V22H16v2h2V23Z"/><path class="lb54-2" d="M13,24v1h3V24H13Z"/><path class="lb54-11" d="M15,23H13v1h3V23Z"/><rect class="lb54-10" x="11" y="22" width="1" height="1"/><rect class="lb54-2" x="10" y="24" width="1" height="1"/><path class="lb54-2" d="M10,23h1V22H10Z"/><path class="lb54-2" d="M9,27H8V26h2V25H8V24H7v7H6v1H8v1H9V27Z"/><path class="lb54-10" d="M7,24H6v7H7Z"/><path class="lb54-2" d="M12,26v4h1V25H12Z"/><path class="lb54-2" d="M16,30h1V25H16v5Z"/><rect class="lb54-2" x="19" y="13" width="1" height="1"/><rect class="lb54-11" x="15" y="20" width="1" height="1"/><rect class="lb54-11" x="13" y="10" width="1" height="1"/><rect class="lb54-11" x="13" y="20" width="1" height="1"/><path class="lb54-11" d="M12,14V13H10v1h2Z"/><path class="lb54-11" d="M10,17v1h1v1h1V18h2v1h1V18h2v1h1V18h1V16h1V15H16V14h1V13H15V12H12v1h1v2H9v1h1Zm4-1h1v1H14Z"/><rect class="lb54-11" x="17" y="11" width="1" height="1"/><path class="lb54-2" d="M13,22H12v1H11v1h2V22Z"/><rect class="lb54-2" x="14" y="16" width="1" height="1"/><path class="lb54-12" d="M15,18v1h1V18Z"/><path class="lb54-12" d="M19,16v2H18v1H16v2H15V20H14v1H13V19h1V18H12v1H11V18H10V16H9v4h1v1h1v1h2v1h3V22h2V21h1V20h1V16Z"/><path class="lb54-13" d="M18,13V12H16v1h2Z"/><path class="lb54-13" d="M13,14V13H12v1Z"/><path class="lb54-8" d="M11,14H10v1h1Z"/><path class="lb54-8" d="M12,15h1V14H12Z"/><path class="lb54-8" d="M19,15V14H18v1Z"/><path class="lb54-8" d="M16,15h1V14H16Z"/><path class="lb54-2" d="M11,14v1h1V14Z"/><path class="lb54-2" d="M18,15V14H17v1Z"/><path class="lb54-2" d="M14,19H13v1h3V19H14Z"/><path class="lb54-2" d="M16,18v1h1V18Z"/><path class="lb54-14" d="M9,17V15h1V13h2V12h3v1h1V12h1V11h1v2H17v1h2V13h1v1H19v1h1v2h1V15h1V14H21V12h1V10H21v1H20V9h1V8H19V9H18V8H17V7H16V8H15V7H13V8H12V7H11V8H10V9h1v1H9V9H8v2H9v1H7v1H9v1H7v1H8v2Zm4-7h1v1H13Z"/><rect class="lb54-14" x="9" y="7" width="1" height="1"/><path class="lb54-11" d="M8,24V22H6v2H8Z"/><path class="lb54-15" d="M8,21V20H7v2H8Z"/><path class="lb54-2" d="M9,22H8v2H9Z"/><path class="lb54-8" d="M4,19V18H2v2H5V19Z"/><path class="lb54-8" d="M6,18v1H8V17H5v1Z"/><path class="lb54-16" d="M5,18V17H2v1H5Z"/><path class="lb54-16" d="M2,20v1H5V20H2Z"/><path class="lb54-16" d="M8,17V16H5v1H8Z"/><path class="lb54-16" d="M8,19H5v1H8Z"/><path class="lb54-17" d="M5,18H4v1H6V18Z"/></svg>