<svg xmlns="http://www.w3.org/2000/svg" viewBox="0 0 29 33"><defs><style>polygon,rect,path{shape-rendering:crispedges;}.aa7-1{fill:#b4bd09;}.aa7-2{fill:#000000;}.aa7-3{fill:#e8b795;}.aa7-4{fill:#e1ff85;}.aa7-5{fill:#ffffff;}.aa7-6{fill:#893a1f;}.aa7-7{fill:#893a1f;}.aa7-8{fill:#ff1d99;}</style></defs><path class="aa7-1" d="M0,33H6V27H7V26H8V25h2V24h2V21H10V20H9V16H8V15H9V11h1V10h1V9h1V8h1V6h1V5h1V7h1V9h2v1h2v5h1v1H20v4H19v1H17v3h2v1h2v1h1v1h1v6h6V0H0Z"/><path class="aa7-2" d="M23,31V27H22v6h1Z"/><rect class="aa7-2" x="21" y="26" width="1" height="1"/><path class="aa7-3" d="M22,31V27H21v6h1Z"/><rect class="aa7-3" x="20" y="26" width="1" height="1"/><path class="aa7-2" d="M21,31V27H20v6h1Z"/><path class="aa7-2" d="M20,26h1V25H19v1Z"/><path class="aa7-4" d="M20,31V26H19V25H18v1H17v1H16v1H13V27H12V26H11V25H10v1H9v7H20Z"/><path class="aa7-2" d="M17,26h1V25h1V24H17Z"/><rect class="aa7-2" x="16" y="26" width="1" height="1"/><path class="aa7-2" d="M14,27H13v1h3V27Z"/><path class="aa7-2" d="M13,23h3v1h1V21H16v1H13V21H12v3h1Z"/><path class="aa7-3" d="M12,26h1v1h3V26h1V24H16V23H13v1H12Z"/><rect class="aa7-2" x="12" y="26" width="1" height="1"/><path class="aa7-2" d="M11,26h1V24H10v1h1Z"/><path class="aa7-2" d="M10,26V25H8v1Z"/><rect class="aa7-3" x="8" y="26" width="1" height="1"/><path class="aa7-2" d="M9,31V27H8v6H9Z"/><rect class="aa7-2" x="7" y="26" width="1" height="1"/><path class="aa7-3" d="M8,31V27H7v6H8Z"/><path class="aa7-2" d="M7,31V27H6v6H7Z"/><rect class="aa7-2" x="20" y="15" width="1" height="1"/><rect class="aa7-3" x="9" y="15" width="1" height="1"/><path class="aa7-3" d="M13,22h3V21h1V20h1V18h1V16h1V15H16V14H14v2h1v1H14V16H13v1H11V16H10v2h1v2h1v1h1Zm-1-3V18h1v1h3v1H13V19Z"/><path class="aa7-3" d="M10,13h3v1h1V13h2V12h2V10H16v1H15V10H11v1H10Z"/><rect class="aa7-3" x="18" y="12" width="1" height="1"/><rect class="aa7-2" x="19" y="16" width="1" height="1"/><path class="aa7-2" d="M17,10h1V9H16v1Z"/><path class="aa7-2" d="M13,10h1V9H11v1Z"/><rect class="aa7-2" x="10" y="10" width="1" height="1"/><rect class="aa7-2" x="9" y="16" width="1" height="1"/><rect class="aa7-2" x="8" y="15" width="1" height="1"/><rect class="aa7-2" x="14" y="16" width="1" height="1"/><rect class="aa7-5" x="16" y="14" width="1" height="1"/><path class="aa7-6" d="M10,13v1h3V13Z"/><path class="aa7-6" d="M18,14h1V13H16v1Z"/><path class="aa7-7" d="M19,18H18v2H17v1h2V20h1V17H19Z"/><path class="aa7-7" d="M11,20V18H10V17H9v3h1v1h2V20Z"/><rect class="aa7-2" x="13" y="19" width="3" height="1"/><rect class="aa7-2" x="12" y="18" width="1" height="1"/><path class="aa7-8" d="M14,9v1h1v1h1V7H15V5H14V6H13V8H12V9Z"/><path class="aa7-2" d="M10,16h1v1h2V16h1V14H10V11H9v4h1Z"/><rect class="aa7-2" x="14" y="13" width="2" height="1"/><rect class="aa7-2" x="16" y="12" width="2" height="1"/><path class="aa7-2" d="M18,12h1v2H17v1h3V10H18Z"/></svg>