<svg xmlns="http://www.w3.org/2000/svg" viewBox="0 0 29 33"><defs><style>polygon,rect,path{shape-rendering:crispedges;}.ib249-1{fill:#b4bd09;}.ib249-2{fill:#e8b795;}.ib249-3{fill:#000000;}.ib249-4{fill:#4922aa;}.ib249-5{fill:#4922aa;}.ib249-6{fill:#6e12ff;}.ib249-7{fill:#fafafa;}</style></defs><rect class="ib249-1" x="11" y="20" width="1"/><rect class="ib249-1" x="16" y="21" height="1"/><polygon class="ib249-1" points="18 20 18 19 18 19 18 20 17 20 17 21 17 21 17 20 18 20"/><rect class="ib249-1" x="9" y="20" width="1" height="1"/><rect class="ib249-1" x="9" y="16" width="1"/><path class="ib249-1" d="M12,21H10v3h2V21Z"/><polygon class="ib249-1" points="14 17 14 17 14 16 15 16 15 16 14 16 14 17"/><path class="ib249-1" d="M19,17v1h0V16h0Z"/><path class="ib249-1" d="M0,33H6V28H5V27H4V26H3V22H4V21H5V20H6V18H7v1H8v1H9V18H8V13H9V11h1V10h1V9h7v1h1v1h1v1h1v3h0v1h0v2H20v2H19v1H17v3h2v1h1V24h1V23h1v1h1v9h6V0H0Z"/><path class="ib249-2" d="M22,24H21v1H20v2h1v6h1V24Z"/><path class="ib249-3" d="M23,24H22v9h1V24Z"/><path class="ib249-2" d="M8,28H7v5H8V28Z"/><path class="ib249-3" d="M9,27H5v1H6v5H7V28H8v5H9V27Z"/><path class="ib249-2" d="M20,27H19V25H17V24H16V23H13v1H12v1H10v1H9V25h1V24H7V23H9V21H7v1H6V21H5v1H4v1H6v1H4v2H5V25H8v1H5v1H9v6h5V29h1v4h5V27Zm-8,2H11V28h1Zm6,0H17V28h1Z"/><rect class="ib249-3" x="11" y="28" width="1" height="1"/><path class="ib249-3" d="M15,29H14v4h1V29Z"/><rect class="ib249-3" x="17" y="28" width="1" height="1"/><path class="ib249-3" d="M18,25h1V24H17v1Z"/><path class="ib249-3" d="M21,27H20v6h1V27Z"/><polygon class="ib249-3" points="21 16 21 15 21 15 21 16 21 16"/><path class="ib249-2" d="M17,12h1V11H17v2h0Z"/><path class="ib249-2" d="M13,12h0Z"/><path class="ib249-2" d="M16,12H15V11H14v2h2Z"/><polygon class="ib249-2" points="10 15 9 15 9 16 10 16 10 15"/><rect class="ib249-2" x="19" y="15" width="1" height="1"/><rect class="ib249-2" x="12" y="21"/><path class="ib249-2" d="M11,19v1h1v1h1v1h3V21h1V20h1V19h0V18h0V16H15v1H14V16h1V14H14v1H13v2H12V16H11v2h0Zm1-1h5v1H16v1H13V19H12Z"/><path class="ib249-3" d="M19,17h1V16H19Z"/><rect class="ib249-3" x="19" y="10" height="1"/><path class="ib249-3" d="M16,21h0v1H13V21H12v3h1V23h3v1h1V21H16Z"/><rect class="ib249-3" x="18" y="9" height="1"/><polygon class="ib249-3" points="9 16 9 17 9 17 10 17 10 16 9 16"/><polygon class="ib249-3" points="14 17 14 17 15 17 15 16 15 16 14 16 14 17"/><path class="ib249-4" d="M13,12H11v1h2Z"/><rect class="ib249-4" x="17" y="12" width="1" height="1"/><path class="ib249-5" d="M19,18H18v2H17v1h2V18Z"/><path class="ib249-5" d="M20,17H19v1h1Z"/><path class="ib249-5" d="M12,21V20H11V18H10v3Z"/><polygon class="ib249-5" points="10 18 10 17 9 17 9 18 9 18 10 18 10 18"/><polygon class="ib249-3" points="13 20 16 20 16 19 17 19 17 18 12 18 12 19 13 19 13 20"/><path class="ib249-3" d="M20,27V25H19v2Z"/><rect class="ib249-3" x="20" y="24" width="1" height="1"/><rect class="ib249-3" x="21" y="23" width="1" height="1"/><path class="ib249-6" d="M9,17V16H9V14h2V12h2v1h1V11h1v1h1v1h1V11h1v3h2v2h0v2h1V12H20V11H19V10H18V9H11v1H10v1H9v2H8v5H9V17Z"/><path class="ib249-6" d="M19,16V15H18v3h1V16Z"/><path class="ib249-6" d="M11,17V15H10v1h0v2h1Z"/><path class="ib249-6" d="M19,19v1h1V18H19Z"/><path class="ib249-6" d="M15,15v1h1V15Z"/><path class="ib249-6" d="M12,17h1V16H12Z"/><path class="ib249-6" d="M10,19V18H9v2h1Z"/><path class="ib249-3" d="M11,15v1h2V15h1V14h1v1h1v1h2V15h2V14H18V13H11v1H9v1h2Z"/><path class="ib249-7" d="M6,24V23H5v1Z"/><path class="ib249-7" d="M8,23v1H9V23Z"/><path class="ib249-3" d="M8,26V25H5v1H8Z"/><path class="ib249-3" d="M7,23v1H8V23Z"/><path class="ib249-3" d="M10,21H9v3h1V21Z"/><path class="ib249-3" d="M9,21V20H8v1Z"/><rect class="ib249-3" x="5" y="20" width="1" height="1"/><rect class="ib249-3" x="4" y="21" width="1" height="1"/><rect class="ib249-3" x="4" y="26" width="1" height="1"/><path class="ib249-3" d="M5,24V23H4V22H3v4H4V24Z"/><path class="ib249-6" d="M6,22H7V21H8V19H7V18H6v4Z"/><path class="ib249-3" d="M10,25h2V24H10Z"/><rect class="ib249-3" x="9" y="25" width="1" height="1"/></svg>