<svg xmlns="http://www.w3.org/2000/svg" viewBox="0 0 29 33"><defs><style>polygon,rect,path{shape-rendering:crispedges;}.ma287-1{fill:#29834f;}.ma287-2{fill:#000000;}.ma287-3{fill:#014731;}.ma287-4{fill:#00af68;}.ma287-5{fill:#e8b795;}.ma287-6{fill:#00af68;}.ma287-7{fill:#990000;}.ma287-8{fill:#990000;}.ma287-9{fill:#cc2f76;}.ma287-10{fill:#ffffff;}.ma287-11{fill:#0068ff;}.ma287-12{fill:#ff1f4a;}</style></defs><path class="ma287-1" d="M0,33H6V27H7V26H8V25h2V24h2V21H11V20H10V19H9V16H8V15H9V11h1V10h1V9h1V8h1V6h1V5h1V7h1V9h2v1h1v1h1v4h1v1H20v3H19v1H18v1H17v3h2v1h2v1h1v1h1v6h6V0H0Z"/><path class="ma287-2" d="M23,27H22v6h1V27Z"/><rect class="ma287-2" x="21" y="26" width="1" height="1"/><path class="ma287-3" d="M21,31v2h1V31Z"/><path class="ma287-3" d="M21,28v2h1V27H21Z"/><path class="ma287-2" d="M21,30V27H20v6h1V30Z"/><path class="ma287-3" d="M20,32V26H19V25H18v3h1v1H18v4h1V32Z"/><path class="ma287-2" d="M20,26h1V25H19v1Z"/><path class="ma287-2" d="M18,29V25h1V24H17v1H16v1h1v7h1V29Z"/><path class="ma287-4" d="M17,26H16v1H13V26H12v7h5V26Z"/><path class="ma287-2" d="M13,26v1h3V26H13Z"/><path class="ma287-2" d="M13,23V22H12v2h1Z"/><path class="ma287-5" d="M13,25v1h3V25h1V24H16V23H13v1H12v1Z"/><path class="ma287-2" d="M12,26h1V25H12V24H10v1h1v8h1V26Z"/><path class="ma287-3" d="M11,29H10V28h1V25H10v1H9v6h1v1h1V29Z"/><path class="ma287-2" d="M10,26V25H8v1h2Z"/><path class="ma287-2" d="M9,31V27H8v6H9V31Z"/><rect class="ma287-2" x="7" y="26" width="1" height="1"/><path class="ma287-3" d="M7,31v2H8V31Z"/><path class="ma287-3" d="M7,30H8V27H7v3Z"/><path class="ma287-2" d="M7,30V27H6v6H7V30Z"/><path class="ma287-6" d="M10,29h1V28H10Z"/><path class="ma287-6" d="M19,29V28H18v1Z"/><path class="ma287-6" d="M9,27V26H8v1Z"/><path class="ma287-6" d="M19,32v1h1V32Z"/><path class="ma287-6" d="M9,32v1h1V32Z"/><path class="ma287-6" d="M7,31H8V30H7Z"/><path class="ma287-6" d="M21,31h1V30H21Z"/><path class="ma287-6" d="M20,27h1V26H20Z"/><rect class="ma287-2" x="20" y="15" width="1" height="1"/><path class="ma287-2" d="M19,13h1V11H19v2Z"/><rect class="ma287-5" x="14" y="15" width="1" height="1"/><rect class="ma287-5" x="15" y="20" width="1" height="1"/><path class="ma287-5" d="M18,16H15v1H14V16H10v2h1v1h1V18h2v1h1V18h2v1h1V18h1V16Z"/><rect class="ma287-5" x="13" y="20" width="1" height="1"/><path class="ma287-5" d="M10,13h4v1h1V13h1V12h3V11H18V10H16v1H15V10H11v1H10v2Z"/><path class="ma287-2" d="M19,17h1V16H19Z"/><rect class="ma287-2" x="18" y="10" width="1" height="1"/><path class="ma287-2" d="M16,23v1h1V22H16Z"/><path class="ma287-2" d="M17,10h1V9H16v1Z"/><path class="ma287-2" d="M14,10V9H11v1h3Z"/><rect class="ma287-2" x="10" y="10" width="1" height="1"/><path class="ma287-2" d="M10,12V11H9v2h1Z"/><path class="ma287-2" d="M10,16H9v1h1Z"/><rect class="ma287-2" x="8" y="15" width="1" height="1"/><rect class="ma287-2" x="14" y="16" width="1" height="1"/><path class="ma287-7" d="M16,12v1h3V12Z"/><path class="ma287-8" d="M14,18H13v1h1Z"/><path class="ma287-8" d="M13,23h3V22h1V21h1V20h1V19h1V17H19v1H18v1H17V18H15v1h1v2H15V20H14v1H13V19H11V18H10V17H9v2h1v1h1v1h1v1h1Z"/><path class="ma287-2" d="M13,19v1h3V19H13Z"/><path class="ma287-2" d="M12,18v1h1V18Z"/><path class="ma287-9" d="M14,10h1v1h1V7H15V5H14V6H13V8H12V9h2Z"/><path class="ma287-10" d="M11,16h3V15h1v1h5V13H15v1H14V13H9v3h2Zm5-2h3v1H16Zm-6,0h3v1H10Z"/><path class="ma287-11" d="M19,15V14H16v1h3Z"/><path class="ma287-12" d="M13,15V14H10v1h3Z"/></svg>