<svg xmlns="http://www.w3.org/2000/svg" viewBox="0 0 29 33"><defs><style>polygon,rect,path{shape-rendering:crispedges;}.ra206-1{fill:#d4a122;}.ra206-2{fill:#000000;}.ra206-3{fill:#99ce09;}.ra206-4{fill:#c18d59;}.ra206-5{fill:#99ce09;}.ra206-6{fill:#ffffff;}.ra206-7{fill:#7f5018;}.ra206-8{fill:#cbed03;}.ra206-9{fill:#304400;}.ra206-10{fill:#4922aa;}</style></defs><path class="ra206-1" d="M0,33H6V27H7V26H8V25h2V24h1V23H10V22h1V20H10V19H9V18H8V12H9V10h1V9h1V8h7V9h1v1h1v5h1v1H20v3H19v1H18v2h1v1H18v1h1v1h2v1h1v1h1v6h6V0H0Z"/><path class="ra206-2" d="M23,27H22v6h1V27Z"/><path class="ra206-3" d="M22,27H21v6h1V27Z"/><rect class="ra206-2" x="21" y="26" width="1" height="1"/><path class="ra206-2" d="M21,27H20v6h1V27Z"/><path class="ra206-3" d="M20,27h1V26H19V25H18V24H16v1h1v3h2v1H17v2h1V30h1v2H16V25H13v3h2v4H12V25h1V24H11v1H10v1H8v1H9v6H20V27Zm-9,2v3H10V28h1Z"/><path class="ra206-2" d="M20,26h1V25H19v1Z"/><rect class="ra206-2" x="18" y="24" width="1" height="1"/><rect class="ra206-2" x="18" y="22" width="1" height="1"/><rect class="ra206-3" x="17" y="22" width="1" height="1"/><path class="ra206-2" d="M13,24v1h3V24H13Z"/><path class="ra206-4" d="M15,23H13v1h3V23Z"/><path class="ra206-2" d="M13,23h3v1h2V23H17V22h1V20H17v1H16v1H13V21H12V20H11v2h1v1H11v1h2Z"/><rect class="ra206-3" x="11" y="22" width="1" height="1"/><rect class="ra206-2" x="10" y="24" width="1" height="1"/><rect class="ra206-2" x="10" y="22" width="1" height="1"/><path class="ra206-2" d="M10,25H8v1h2Z"/><path class="ra206-2" d="M9,27H8v6H9V27Z"/><path class="ra206-3" d="M8,27H7v6H8V27Z"/><rect class="ra206-2" x="7" y="26" width="1" height="1"/><path class="ra206-2" d="M7,27H6v6H7V27Z"/><path class="ra206-3" d="M14,31V29H13v2Z"/><path class="ra206-5" d="M14,29v2H13V30H12v2h3V28H13v1Z"/><path class="ra206-5" d="M10,29v3h1V28H10Z"/><path class="ra206-5" d="M18,29h1V28H17v1Z"/><path class="ra206-5" d="M16,31v1h3V30H18v1H17V30H16Z"/><path class="ra206-2" d="M12,26v4h1V25H12Z"/><path class="ra206-2" d="M16,30h1V25H16v5Z"/><rect class="ra206-2" x="20" y="15" width="1" height="1"/><path class="ra206-4" d="M12,21h1v1h3V21h1V20h1V19h1V16h1V15H16V13h1V12h2V11H18V10H16v1H15v4H14v1h1v1H14V16H13v1H11V16H10v3h1v1h1Zm0-3h1v1h3v1H13V19H12Z"/><polygon class="ra206-4" points="18 14 19 14 19 13 17 13 17 14 18 14"/><rect class="ra206-4" x="9" y="15" width="1" height="1"/><path class="ra206-2" d="M19,17v2h1V16H19Z"/><rect class="ra206-2" x="18" y="19" width="1" height="1"/><rect class="ra206-2" x="10" y="19" width="1" height="1"/><path class="ra206-2" d="M10,16H9v3h1V16Z"/><rect class="ra206-2" x="14" y="16" width="1" height="1"/><path class="ra206-6" d="M16,14v1h1V14Z"/><path class="ra206-2" d="M18,14H17v1h2V14Z"/><path class="ra206-7" d="M17,13H16v1h1Z"/><rect class="ra206-7" x="17" y="12" width="2" height="1"/><rect class="ra206-2" x="13" y="19" width="3" height="1"/><rect class="ra206-2" x="12" y="18" width="1" height="1"/><path class="ra206-8" d="M12,15h1V13H11v2Z"/><path class="ra206-9" d="M13,13v2h1V13Z"/><polygon class="ra206-9" points="12 15 11 15 11 16 13 16 13 15 12 15"/><path class="ra206-9" d="M11,14H10v1h1Z"/><rect class="ra206-2" x="10" y="15" width="1" height="1"/><rect class="ra206-2" x="11" y="16" width="2" height="1"/><rect class="ra206-2" x="13" y="15" width="1" height="1"/><polygon class="ra206-2" points="14 12 13 12 13 13 14 13 14 15 15 15 15 11 14 11 14 12"/><path class="ra206-10" d="M9,15h1V14h1V13h2V12h1V11h2V10h2v1h1v4h1V10H19V9H18V8H11V9H10v1H9v2H8v6H9V15Z"/></svg>