<svg xmlns="http://www.w3.org/2000/svg" viewBox="0 0 29 33"><defs><style>polygon,rect,path{shape-rendering:crispedges;}.xa269-1{fill:#397d98;}.xa269-2{fill:#8e9350;}.xa269-3{fill:#000000;}.xa269-4{fill:#b2622b;}.xa269-5{fill:#474718;}.xa269-6{fill:#8e4717;}.xa269-7{fill:#ffffff;}.xa269-8{fill:#4fdb7d;}</style></defs><rect class="xa269-1" x="10" y="21" width="1" height="1"/><rect class="xa269-1" x="18" y="21" width="1" height="1"/><path class="xa269-1" d="M0,33H6V27H7V26H8V25h2V22H9V21H8V20H7V19H8V12H9V10h1V9h1V8h7V9h1v1h1v2h1v7h1v1H21v1H20v1H19v3h2v1h1v1h1v6h6V0H0Z"/><path class="xa269-2" d="M14,31h6V30H14Z"/><path class="xa269-2" d="M16,24v1h2V24H16Z"/><path class="xa269-2" d="M14,27v1h6V27H14Z"/><rect class="xa269-2" x="21" y="30" width="1" height="1"/><rect class="xa269-2" x="21" y="27" width="1" height="1"/><rect class="xa269-2" x="7" y="30" width="1" height="1"/><rect class="xa269-2" x="7" y="27" width="1" height="1"/><path class="xa269-2" d="M9,28h4V27H9Z"/><path class="xa269-2" d="M9,31h4V30H9Z"/><polygon class="xa269-2" points="12 24 11 24 11 25 13 25 13 24 12 24"/><path class="xa269-3" d="M23,27H22v6h1V27Z"/><rect class="xa269-3" x="21" y="26" width="1" height="1"/><path class="xa269-3" d="M21,30V27H20v4H14V27H13v4H9V27H8v6H9V32H20v1h1V30Z"/><path class="xa269-3" d="M20,26h1V25H19v1Z"/><path class="xa269-3" d="M18,23v2h1V22H18Z"/><path class="xa269-3" d="M17,23V21H16v1H13V21H12v3h1V23h3v1h1Z"/><rect class="xa269-3" x="15" y="24" width="1" height="1"/><path class="xa269-3" d="M15,26V25H14v2h1Z"/><rect class="xa269-3" x="13" y="24" width="1" height="1"/><path class="xa269-4" d="M15,24h1V23H13v1h1v1h1Z"/><path class="xa269-3" d="M11,24V22H10v3h1Z"/><path class="xa269-3" d="M10,25H8v1h2Z"/><rect class="xa269-3" x="7" y="26" width="1" height="1"/><path class="xa269-3" d="M7,30V27H6v6H7V30Z"/><path class="xa269-3" d="M20,16h1V15H20Z"/><rect class="xa269-3" x="19" y="14" width="1" height="1"/><path class="xa269-4" d="M12,21h1v1h3V21h1V20h1V19h1V16h1V15H19V14H18v1H16v1H15v1H14V16H13V15H11V14H10v1H9v1h1v3h1v1h1Zm1-2h3V18h1v1H16v1H13Z"/><path class="xa269-3" d="M19,17v2h1V16H19Z"/><rect class="xa269-3" x="18" y="19" width="1" height="1"/><rect class="xa269-3" x="17" y="20" width="1" height="1"/><rect class="xa269-3" x="11" y="20" width="1" height="1"/><rect class="xa269-3" x="10" y="19" width="1" height="1"/><rect class="xa269-3" x="9" y="14" width="1" height="1"/><path class="xa269-3" d="M10,16H9v3h1V16Z"/><path class="xa269-3" d="M9,15H8v1H9Z"/><path class="xa269-5" d="M19,32H9v1H20V32Z"/><path class="xa269-5" d="M14,29v1h6V28H14Z"/><path class="xa269-5" d="M9,29v1h4V28H9Z"/><path class="xa269-5" d="M9,27h5V25H10v1H8v1Z"/><path class="xa269-5" d="M16,25H15v2h6V26H19V25H16Z"/><path class="xa269-5" d="M7,29v1H8V28H7Z"/><path class="xa269-5" d="M7,31v2H8V31Z"/><path class="xa269-5" d="M21,31v2h1V31Z"/><path class="xa269-5" d="M21,29v1h1V28H21Z"/><path class="xa269-5" d="M12,23V22H11v2h1Z"/><path class="xa269-5" d="M17,23v1h1V22H17Z"/><path class="xa269-6" d="M17,15h1V14H17Z"/><rect class="xa269-6" x="16" y="13" width="1" height="1"/><rect class="xa269-3" x="14" y="14" width="1" height="1"/><path class="xa269-7" d="M16,14V13H13v1H12v1h1v1h3V15h1V14Zm-1,1H14V14h1Z"/><path class="xa269-6" d="M16,13V12H13v1h3Z"/><rect class="xa269-6" x="12" y="13" width="1" height="1"/><path class="xa269-6" d="M12,15V14H11v1Z"/><path class="xa269-3" d="M14,17h1V16H14Z"/><path class="xa269-4" d="M12,13h1V12h3v1h1v1h1V12H17V11H16V10H13v1H12v1H11v2h1Z"/><rect class="xa269-3" x="13" y="19" width="3" height="1"/><rect class="xa269-3" x="16" y="18" width="1" height="1"/><path class="xa269-8" d="M20,17v2H19v1H18v1h1v1h1V21h1V20h1V19H21V16H20Z"/><path class="xa269-8" d="M9,14h2V12h1V11h1V10h3v1h1v1h1v2h2v1h1V12H20V10H19V9H18V8H11V9H10v1H9v2H8v3H9Z"/><path class="xa269-8" d="M11,21V20H10V19H9V16H8v3H7v1H8v1H9v1h1V21Z"/><path class="xa269-8" d="M12,21H11v1h1Z"/><path class="xa269-8" d="M17,22h1V21H17Z"/></svg>