<svg xmlns="http://www.w3.org/2000/svg" viewBox="0 0 29 33"><defs><style>polygon,rect,path{shape-rendering:crispedges;}.bb92-1{fill:#d4a122;}.bb92-2{fill:#000000;}.bb92-3{fill:#6f7032;}.bb92-4{fill:#ffffff;}.bb92-5{fill:#c18d59;}.bb92-6{fill:#b23b00;}.bb92-7{fill:#b23b00;}.bb92-8{fill:#ff5e17;}</style></defs><path class="bb92-1" d="M0,33H29V0H0Zm6-1V27H7V26H8V25h2V24h1V23h1V21H11V20H10V19H9V16H8V15H9V10h1V9h1V8h7V9h1v1h1v5h1v1H20v3H19v1H18v1H17v2h1v1h1v1h2v1h1v1h1v6H6Z"/><rect class="bb92-1" x="19" y="16" width="1"/><rect class="bb92-1" x="11" y="20" width="1"/><polygon class="bb92-1" points="14 16 15 16 15 16 14 16 14 17 14 17 14 16"/><rect class="bb92-1" x="10" y="19" width="1"/><path class="bb92-1" d="M18,19v1H17v1H16v1h0V21h1V20h1V19h0Z"/><rect class="bb92-1" x="12" y="21" width="1"/><rect class="bb92-1" x="9" y="16" width="1"/><path class="bb92-2" d="M22,33h1V27H22v6Z"/><path class="bb92-3" d="M21,28v5h1V27H21Z"/><rect class="bb92-2" x="21" y="26" width="1" height="1"/><path class="bb92-2" d="M21,28V27H20v6h1V28Z"/><path class="bb92-3" d="M18,26v3H17v4h3V27h1V26H19V25H18Z"/><path class="bb92-2" d="M20,26h1V25H19v1Z"/><path class="bb92-2" d="M17,29H16v4h1V29Z"/><rect class="bb92-4" x="16" y="24" width="1" height="1"/><path class="bb92-4" d="M16,29h1V26H16V25H13v1H12v3h1v4h1V32h1v1h1V29Zm-1,2H14V30h1Zm0-2H14V28h1Zm0-2H14V26h1Z"/><rect class="bb92-4" x="15" y="23" width="1" height="1"/><path class="bb92-2" d="M14,32v1h1V32Z"/><rect class="bb92-2" x="14" y="30" width="1" height="1"/><rect class="bb92-2" x="14" y="28" width="1" height="1"/><rect class="bb92-2" x="14" y="26" width="1" height="1"/><rect class="bb92-4" x="13" y="23" width="1" height="1"/><path class="bb92-2" d="M13,29H12v4h1V29Z"/><rect class="bb92-4" x="12" y="24" width="1" height="1"/><path class="bb92-3" d="M9,27v6h3V29H11V25H10v1H8v1Z"/><path class="bb92-2" d="M11,26v3h1V26h1V25H12V24h1V23h1v1H13v1h3V24H15V23h1v1h1v1H16v1h1v3h1V25h1V24H18V23H17V21H16v1H13V21H12v2H11v1H10v1h1Z"/><path class="bb92-2" d="M10,25H8v1h2Z"/><path class="bb92-2" d="M9,27H8v6H9V27Z"/><path class="bb92-3" d="M7,32v1H8V27H7v5Z"/><rect class="bb92-2" x="7" y="26" width="1" height="1"/><path class="bb92-2" d="M7,32V27H6v6H7Z"/><polygon class="bb92-2" points="20 16 20 16 21 16 21 15 20 15 20 16 20 16"/><path class="bb92-5" d="M16,22V21h1V20h1V19h1V16H17v1H16V15H15V14H14v1H13v1H10v3h1v1h1v1h1v1h3Zm-2-6h1v1H14Zm-2,3V18h5v1H16v1H13V19Z"/><path class="bb92-5" d="M14,12V11H13V10H11v1H10v1h2v1h3V12Z"/><polygon class="bb92-5" points="19 16 20 16 20 16 20 15 20 15 19 15 19 16"/><rect class="bb92-5" x="10" y="13" width="1" height="1"/><polygon class="bb92-5" points="10 16 10 15 9 15 9 15 9 16 10 16"/><path class="bb92-2" d="M19,16v3h1V16Z"/><rect class="bb92-2" x="18" y="19" width="1" height="1"/><rect class="bb92-2" x="17" y="20" width="1" height="1"/><polygon class="bb92-2" points="12 20 12 20 11 20 11 21 12 21 12 21 12 20"/><rect class="bb92-2" x="11" y="10" height="1"/><polygon class="bb92-2" points="11 19 11 19 10 19 10 20 11 20 11 20 11 19"/><path class="bb92-2" d="M10,18V16H9v3h1Z"/><polygon class="bb92-2" points="9 15 8 15 8 16 9 16 9 16 9 15"/><polygon class="bb92-2" points="14 17 14 17 15 17 15 16 15 16 14 16 14 17"/><path class="bb92-4" d="M11,15H10v1h1Z"/><path class="bb92-4" d="M19,15H18v1h1Z"/><path class="bb92-6" d="M10,12v1h2V12Z"/><path class="bb92-7" d="M16,18H12v1h4Z"/><path class="bb92-2" d="M16,20V19H13v1Z"/><path class="bb92-2" d="M17,19V18H16v1Z"/><path class="bb92-8" d="M17,17V16H16v1Z"/><path class="bb92-8" d="M10,13V11h1V10h2v1h1v1h1v1h3v1h2V10H19V9H18V8H11V9H10v1H9v4h1Z"/><path class="bb92-2" d="M11,15v1h2V15h1V14h1v1h1v1h2V15h2V14H18V13H11v1H9v1h2Z"/></svg>