<svg xmlns="http://www.w3.org/2000/svg" viewBox="0 0 29 33"><defs><style>polygon,rect,path{shape-rendering:crispedges;}.ea150-1{fill:#29834f;}.ea150-2{fill:#000000;}.ea150-3{fill:#003b3f;}.ea150-4{fill:#ce8452;}.ea150-5{fill:#d8be00;}.ea150-6{fill:#663228;}.ea150-7{fill:#ffffff;}.ea150-8{fill:#8e703c;}.ea150-9{fill:#ff1d99;}</style></defs><path class="ea150-1" d="M6,32V27H7V26H8V25h2V24h2V21H10V20H9V16H8V15H9V14H8V12H9V11H8V10H9V9H8V8h2V7h1V8h1V6h1V7h1V8h1V7h1V6h1V7h1V8h1V7h1V8H19V9h2v2H20v1h1v1H20v1h1v2H20v4H19v1H17v3h2v1h2v1h1v1h1v6h6V0H0V33H6Z"/><path class="ea150-2" d="M23,27H22v3H21V27H20v6h1V31h1v2h1V27Z"/><rect class="ea150-2" x="21" y="26" width="1" height="1"/><path class="ea150-3" d="M21,28v2h1V27H21Z"/><path class="ea150-4" d="M21,31v2h1V31Z"/><path class="ea150-2" d="M20,26h1V25H19v1Z"/><path class="ea150-3" d="M16,32H12v1h5V32Z"/><path class="ea150-3" d="M20,27h1V26H19V25H17v1H16v1H13V26H12V25H10v1H8v1H9v6h1V30h1V29h1V28h5v1h1v1h1v3h1V27Z"/><rect class="ea150-3" x="16" y="30" width="1" height="1"/><rect class="ea150-3" x="12" y="30" width="1" height="1"/><path class="ea150-2" d="M18,25h1V24H17v1Z"/><rect class="ea150-2" x="16" y="25" width="1" height="1"/><path class="ea150-2" d="M13,26v1h3V26H13Z"/><path class="ea150-2" d="M13,23h3v1h1V21H16v1H13V21H12v3h1Z"/><path class="ea150-4" d="M13,25v1h3V25h1V24H16V23H13v1H12v1Z"/><rect class="ea150-2" x="12" y="25" width="1" height="1"/><path class="ea150-2" d="M12,24H10v1h2Z"/><path class="ea150-2" d="M10,25H8v1h2Z"/><path class="ea150-2" d="M9,27H8v3H7V27H6v6H7V31H8v2H9V27Z"/><rect class="ea150-2" x="7" y="26" width="1" height="1"/><path class="ea150-3" d="M7,30H8V27H7v3Z"/><path class="ea150-4" d="M7,31v2H8V31Z"/><path class="ea150-5" d="M19,30H18V29H17V28H12v1H11v1H10v3h2V32h5v1h2V30Zm-6,1H12V30h1Zm4,0H16V30h1Z"/><path class="ea150-2" d="M20,16h1V15H20Z"/><path class="ea150-4" d="M13,22h3V21h1V20h1V18h1V16h1V15H19V13H18V10H17v1H16v2h1v1h1v1H16v1H15v1H14V16H13V15H11V14h1V13h1V12H11v1H10v2H9v1h1v2h1v2h1v1h1Zm-1-3V18h1v1h3v1H13V19Z"/><rect class="ea150-4" x="11" y="10" width="1" height="1"/><path class="ea150-2" d="M19,17h1V16H19Z"/><path class="ea150-2" d="M10,16H9v1h1Z"/><rect class="ea150-2" x="8" y="15" width="1" height="1"/><path class="ea150-6" d="M18,15V14H17v1Z"/><rect class="ea150-6" x="16" y="13" width="1" height="1"/><rect class="ea150-2" x="14" y="14" width="1" height="1"/><path class="ea150-7" d="M13,13v1H12v1h1v1h3V15h1V14H16V13H13Zm2,2H14V14h1Z"/><path class="ea150-6" d="M14,12H13v1h3V12H14Z"/><rect class="ea150-6" x="12" y="13" width="1" height="1"/><path class="ea150-6" d="M11,14v1h1V14Z"/><path class="ea150-2" d="M14,17h1V16H14Z"/><rect class="ea150-4" x="10" y="11" width="1" height="1"/><path class="ea150-4" d="M15,12V10H14v1H13v1h2Z"/><path class="ea150-8" d="M19,18H18v2H17v1h2V20h1V17H19Z"/><path class="ea150-8" d="M11,20V18H10V17H9v3h1v1h2V20Z"/><rect class="ea150-2" x="13" y="19" width="3" height="1"/><rect class="ea150-2" x="12" y="18" width="1" height="1"/><path class="ea150-9" d="M10,14V13h1V12H10V11h1V10h1v1H11v1h2V11h1V10h1v2h1V11h1V10h1v3h1v2h2V14H20V13h1V12H20V11h1V9H19V8H18V7H17V6H16V7H15V8H14V7H13V6H12V8H11V7H10V8H8V9H9v1H8v1H9v1H8v2H9v1h1Z"/><rect class="ea150-9" x="19" y="7" width="1" height="1"/></svg>