<svg xmlns="http://www.w3.org/2000/svg" viewBox="0 0 29 33"><defs><style>polygon,rect,path{shape-rendering:crispedges;}.fa222-1{fill:#7a982c;}.fa222-2{fill:#000000;}.fa222-3{fill:#cc2f76;}.fa222-4{fill:#c18d59;}.fa222-5{fill:#ffffff;}.fa222-6{fill:#7f5018;}.fa222-7{fill:#990000;}.fa222-8{fill:#508e91;}.fa222-9{fill:#fad000;}</style></defs><path class="fa222-1" d="M6,32V27H7V26H8V25h2V22H9V16H8V14H9V10h1V9h1V8h7V9h1v1h1v4h1v2H20v8H19v1h2v1h1v1h1v6h6V0H0V33H6ZM11,5h1V4h5V5h1V6H17V7H12V6H11Z"/><path class="fa222-1" d="M13,6h4V5H12V6Z"/><path class="fa222-2" d="M23,27H22v3H21V27H20v6h1V31h1v2h1V27Z"/><rect class="fa222-2" x="21" y="26" width="1" height="1"/><path class="fa222-3" d="M21,28v2h1V27H21Z"/><path class="fa222-4" d="M21,31v2h1V31Z"/><path class="fa222-2" d="M20,26h1V25H19v1Z"/><path class="fa222-3" d="M20,27h1V26H19v1H18V25H17v1H16v1H13V26H11V25H10v1H8v1H9v6H20V27Z"/><rect class="fa222-2" x="16" y="25" width="1" height="1"/><path class="fa222-2" d="M13,26v1h3V26H13Z"/><path class="fa222-2" d="M13,23h3v1h1V21H16v1H13V21H12v3h1Z"/><path class="fa222-4" d="M16,24V23H13v1H12v1h1v1h3V25h1V24Z"/><path class="fa222-2" d="M12,25v1h1V25Z"/><path class="fa222-2" d="M10,25H8v1h2Z"/><path class="fa222-2" d="M9,27H8v3H7V27H6v6H7V31H8v2H9V27Z"/><rect class="fa222-2" x="7" y="26" width="1" height="1"/><path class="fa222-3" d="M7,30H8V27H7v3Z"/><path class="fa222-4" d="M7,31v2H8V31Z"/><path class="fa222-2" d="M20,16h1V15H20Z"/><path class="fa222-4" d="M17,15H16v1h3V15H17Z"/><rect class="fa222-4" x="14" y="15" width="1" height="1"/><path class="fa222-4" d="M13,16V15H10v1h3Z"/><path class="fa222-4" d="M13,13v1h3V13h1V12h1V11H17V10H14v1H12v1h1Z"/><path class="fa222-4" d="M13,22h3V21h1V20h1V19h1V17H16V16H15v1H14V16H13v1H10v2h1v1h1v1h1Zm-1-3V18h1v1h3v1H13V19Z"/><path class="fa222-2" d="M19,17v2h1V16H19Z"/><rect class="fa222-2" x="18" y="19" width="1" height="1"/><rect class="fa222-2" x="17" y="20" width="1" height="1"/><rect class="fa222-2" x="11" y="20" width="1" height="1"/><rect class="fa222-2" x="10" y="19" width="1" height="1"/><path class="fa222-2" d="M10,18V16H9v3h1Z"/><path class="fa222-2" d="M8,15v1H9V15Z"/><rect class="fa222-2" x="14" y="16" width="1" height="1"/><path class="fa222-5" d="M12,14v1h1V14Z"/><path class="fa222-5" d="M11,14H10v1h1Z"/><path class="fa222-5" d="M18,15h1V14H18Z"/><rect class="fa222-5" x="16" y="14" width="1" height="1"/><path class="fa222-2" d="M11,14v1h1V14Z"/><path class="fa222-2" d="M18,15V14H17v1Z"/><path class="fa222-6" d="M13,12H11v1h2Z"/><rect class="fa222-6" x="17" y="12" width="1" height="1"/><rect class="fa222-2" x="13" y="19" width="3" height="1"/><rect class="fa222-2" x="12" y="18" width="1" height="1"/><path class="fa222-7" d="M19,20H18v1H17v4h1v2h1V24h1V19H19Z"/><path class="fa222-7" d="M10,13h1V12h1V11h2V10h3v1h1v2h1v1h1V10H19V9H18V8H11V9H10v1H9v4h1Z"/><path class="fa222-7" d="M11,26h1V21H11V20H10V19H9v3h1v3h1Z"/><path class="fa222-8" d="M19,15v1h1V15h1V14H19Z"/><path class="fa222-8" d="M16,16v1h3V16H16Z"/><path class="fa222-8" d="M12,14h1V13H10v1h2Z"/><polygon class="fa222-8" points="16 13 16 14 17 14 18 14 19 14 19 13 18 13 17 13 16 13"/><path class="fa222-8" d="M16,14H13v2h1V15h1v1h1V14Z"/><path class="fa222-8" d="M13,17V16H10v1h3Z"/><path class="fa222-8" d="M10,15V14H8v1H9v1h1Z"/><rect class="fa222-9" x="17" y="5" width="1" height="1"/><path class="fa222-9" d="M13,6H12V7h5V6H13Z"/><path class="fa222-9" d="M17,5V4H12V5h5Z"/><rect class="fa222-9" x="11" y="5" width="1" height="1"/></svg>