<svg xmlns="http://www.w3.org/2000/svg" viewBox="0 0 29 33"><defs><style>polygon,rect,path{shape-rendering:crispedges;}.va42-1{fill:#29834f;}.va42-2{fill:#ff6c77;}.va42-3{fill:#000000;}.va42-4{fill:#a56e49;}.va42-5{fill:#ffffff;}.va42-6{fill:#00686d;}.va42-7{fill:#00686d;}.va42-8{fill:#0068ff;}</style></defs><path class="va42-1" d="M6,32V27H7V26H8V25h2V22h1V20H10V19H9V16H8V15H9V10h1V9h1V8h7V9h1v1h1v5h1v1H20v3H19v1H18v2h1v3h2v1h1v1h1v6h6V0H0V33H6Z"/><path class="va42-2" d="M17,23v1H16v1H15v2H14v4h6V27h1V26H19V25H18V22H17Z"/><path class="va42-2" d="M22,27H21v6h1V27Z"/><path class="va42-2" d="M19,32H9v1H20V32Z"/><path class="va42-2" d="M8,27H7v6H8V27Z"/><path class="va42-2" d="M9,27v4h4V27h1V25H13V24H12V22H11v3H10v1H8v1Z"/><path class="va42-3" d="M23,27H22v6h1V27Z"/><rect class="va42-3" x="21" y="26" width="1" height="1"/><path class="va42-3" d="M21,27H20v4H14V27H13v4H9V27H8v6H9V32H20v1h1V27Z"/><path class="va42-3" d="M20,26h1V25H19v1Z"/><path class="va42-3" d="M18,25h1V22H18v3Z"/><rect class="va42-3" x="15" y="24" width="1" height="1"/><path class="va42-3" d="M15,26V25H14v2h1Z"/><rect class="va42-3" x="13" y="24" width="1" height="1"/><path class="va42-4" d="M15,24h1V23H13v1h1v1h1Z"/><path class="va42-3" d="M11,24V22H10v3h1Z"/><path class="va42-3" d="M10,25H8v1h2Z"/><rect class="va42-3" x="7" y="26" width="1" height="1"/><path class="va42-3" d="M7,27H6v6H7V27Z"/><rect class="va42-3" x="20" y="15" width="1" height="1"/><rect class="va42-4" x="12" y="19" width="1" height="1"/><path class="va42-4" d="M12,19V18h5v1h2V16H16V13h1V12h2V11H18V10H16v1H15v1H14v2H13v3H12V16H10v3h2Zm2-3h1v1H14Z"/><rect class="va42-4" x="19" y="15" width="1" height="1"/><rect class="va42-4" x="13" y="20" width="1" height="1"/><polygon class="va42-4" points="18 14 19 14 19 13 17 13 17 14 18 14"/><rect class="va42-4" x="9" y="15" width="1" height="1"/><rect class="va42-4" x="15" y="20" width="1" height="1"/><rect class="va42-4" x="16" y="19" width="1" height="1"/><path class="va42-3" d="M19,17v2h1V16H19Z"/><path class="va42-3" d="M18,20h1V19H18Z"/><path class="va42-3" d="M12,23v1h1V23h3v1h1V22h1V20H17v1H16v1H13V21H12V20H11v2h1Z"/><path class="va42-3" d="M10,19v1h1V19Z"/><path class="va42-3" d="M10,14H9v1h1Z"/><path class="va42-3" d="M10,16H9v3h1V16Z"/><rect class="va42-3" x="8" y="15" width="1" height="1"/><rect class="va42-3" x="14" y="16" width="1" height="1"/><path class="va42-5" d="M10,15v1h1V15Z"/><path class="va42-5" d="M16,14v2h1V14Z"/><path class="va42-5" d="M19,14H18v2h1V14Z"/><path class="va42-3" d="M17,14v2h1V14Z"/><path class="va42-6" d="M17,13H16v1h1Z"/><rect class="va42-6" x="17" y="12" width="2" height="1"/><path class="va42-7" d="M17,19v1h1V19Z"/><rect class="va42-7" x="16" y="20" width="1" height="1"/><path class="va42-7" d="M15,20H14v1H13v1h3V21H15Z"/><path class="va42-7" d="M14,19h3V18H13v1Z"/><rect class="va42-7" x="12" y="20" width="1" height="1"/><path class="va42-7" d="M12,19H11v1h1Z"/><path class="va42-3" d="M13,19v1h3V19H13Z"/><path class="va42-3" d="M13,18H12v1h1Z"/><path class="va42-8" d="M10,15h1v1h1v1h1V14h1V12h1V11h1V10h2v1h1v4h1V10H19V9H18V8H11V9H10v1H9v4h1Z"/></svg>