<svg xmlns="http://www.w3.org/2000/svg" viewBox="0 0 29 33"><defs><style>polygon,rect,path{shape-rendering:crispedges;}.ca134-1{fill:#000000;}.ca134-2{fill:#d8be00;}.ca134-3{fill:#c18d59;}.ca134-4{fill:#ffffff;}.ca134-5{fill:#397d98;}.ca134-6{fill:#ff1f4a;}.ca134-7{fill:#10bcff;}</style></defs><path class="ca134-1" d="M23,26H22v7h1V26Z"/><path class="ca134-1" d="M21,25H19v1h1v7h1V25Z"/><path class="ca134-2" d="M20,26H19V25H18v1H17v1H16v1H13V27H12V26H11V25H10v1H9v7H20V26Z"/><path class="ca134-1" d="M9,26h1V25H8v8H9V26Z"/><path class="ca134-1" d="M7,26H6v7H7V26Z"/><path class="ca134-1" d="M11,26h1V25h1v1h3V25h1v1h1V25h1V24H17V22h1V21h1V20h1V17h1V15H20V11H19V10H18V9H11v1H10v1H9v4H8v2H9v3h1v1h1v1h1v2H10v1h1Zm5-11V14h1v1h1V14h1v2H16Zm0,6H13V20h3Zm-5-5H10V14h1v1h1V14h1v2Z"/><rect class="ca134-1" x="12" y="26" width="1" height="1"/><rect class="ca134-1" x="16" y="26" width="1" height="1"/><path class="ca134-1" d="M13,27v1h3V27H13Z"/><rect class="ca134-3" x="16" y="25" width="1" height="1"/><path class="ca134-3" d="M15,26H13v1h3V26Z"/><rect class="ca134-3" x="12" y="25" width="1" height="1"/><rect class="ca134-3" x="13" y="20" width="3" height="1"/><path class="ca134-3" d="M13,15H10v1h3Z"/><path class="ca134-3" d="M19,16V15H16v1h3Z"/><path class="ca134-4" d="M13,14H12v1h1Z"/><path class="ca134-4" d="M11,14H10v1h1Z"/><path class="ca134-4" d="M19,14H18v1h1Z"/><path class="ca134-4" d="M17,14H16v1h1Z"/><path class="ca134-5" d="M0,9V33H6V26H5V24H8v1h2V24h2V22H11V21H10V20H9V17H8V15H9V11h1V10h1V9h7v1h1v1h1v4h1v2H20v3H19v1H18v1H17v2h2v1h2V24h3v2H23v7h6V0H0Z"/><path class="ca134-1" d="M23,26h1V25H23Z"/><path class="ca134-1" d="M22,24H21v1h1Z"/><path class="ca134-6" d="M23,25h1V24H22v1Z"/><path class="ca134-1" d="M8,25V24H7v1Z"/><path class="ca134-1" d="M5,25v1H6V25Z"/><path class="ca134-7" d="M7,25V24H5v1H7Z"/><path class="ca134-3" d="M22,26h1V25H21v8h1V26Z"/><path class="ca134-3" d="M8,25H6v1H7v7H8V25Z"/></svg>