<svg xmlns="http://www.w3.org/2000/svg" viewBox="0 0 29 33"><defs><style>polygon,rect,path{shape-rendering:crispedges;}.ja80-1{fill:#397d98;}.ja80-2{fill:#000000;}.ja80-3{fill:#ff6c77;}.ja80-4{fill:#990000;}.ja80-5{fill:#e8b795;}.ja80-6{fill:#ffffff;}.ja80-7{fill:#326b43;}.ja80-8{fill:#cc3232;}.ja80-9{fill:#508e91;}.ja80-10{fill:#900;}.ja80-11{fill:#ea1500;}.ja80-12{fill:#a0a0a0;}.ja80-13{fill:#ccc;}</style></defs><path class="ja80-1" d="M20,23V19H19v1H18v1H17v3h2v1h2V23Z"/><path class="ja80-1" d="M6,32V27H7V26H8V25h2V24h2V21H11V20H10V19H9V16H8V14H9V12H8v1H7V12H8V11H9V10h1V9h2V8h5V9h2v1h1v1h1v1h1v1H21V12H20v2h1v2H20v2h1V17h1V16h1v1h1v1h1v5H24v8H23v1H21v1h8V0H0V33H6Z"/><path class="ja80-2" d="M23,26v5h1V25H23Z"/><path class="ja80-3" d="M23,27H22v1h1Z"/><path class="ja80-3" d="M22,30v1h1V30Z"/><path class="ja80-2" d="M22,32h1V31H22V25H19v1h2v1H20v6h1V32Z"/><path class="ja80-3" d="M9,31H20V30H9Z"/><path class="ja80-3" d="M9,27v1H20V27H9Z"/><path class="ja80-3" d="M17,25V24H12v1Z"/><path class="ja80-2" d="M18,24H17v1h2V24Z"/><path class="ja80-2" d="M13,23V22H12v2h1Z"/><path class="ja80-2" d="M12,24H10v1h2Z"/><path class="ja80-2" d="M10,25H8v1h2Z"/><path class="ja80-2" d="M9,30V27H8v6H9V30Z"/><rect class="ja80-2" x="7" y="26" width="1" height="1"/><path class="ja80-3" d="M8,28V27H7v1Z"/><path class="ja80-3" d="M7,31H8V30H7Z"/><path class="ja80-2" d="M7,30V27H6v6H7V30Z"/><path class="ja80-4" d="M9,31v2H20V31Z"/><path class="ja80-4" d="M9,29v1H20V28H9Z"/><path class="ja80-4" d="M9,27H21V26H19V25H10v1H8v1Z"/><path class="ja80-4" d="M15,23H13v1h3V23Z"/><path class="ja80-4" d="M23,29V28H22v2h1Z"/><path class="ja80-4" d="M23,26V25H22v2h1Z"/><path class="ja80-4" d="M7,31v2H8V31Z"/><path class="ja80-4" d="M7,29v1H8V28H7Z"/><path class="ja80-2" d="M20,16h1V15H20Z"/><path class="ja80-5" d="M13,16V15H10v1h3Z"/><rect class="ja80-5" x="12" y="19" width="1" height="1"/><rect class="ja80-5" x="14" y="15" width="1" height="1"/><path class="ja80-5" d="M13,14h3V13h1V12H15V11H14v1H12v1h1Z"/><path class="ja80-5" d="M13,21h3V20H13Z"/><path class="ja80-5" d="M16,17V16H15v1H14V16H13v1H10v1h1v1h1V18h1v1h3v1h1V19h1V18h1V17H16Z"/><path class="ja80-5" d="M18,15H16v1h3V15Z"/><path class="ja80-2" d="M16,22v2h1V22Z"/><path class="ja80-2" d="M8,15v1H9V15Z"/><rect class="ja80-2" x="14" y="16" width="1" height="1"/><path class="ja80-6" d="M11,14H10v1h1Z"/><path class="ja80-6" d="M16,14v1h1V14Z"/><path class="ja80-2" d="M12,14H11v1h2V14Z"/><path class="ja80-2" d="M17,15h2V14H17Z"/><path class="ja80-7" d="M13,23h3V22h1V21h1V20h1V19h1V16H19v2H18v1H17v1H16v1H13V20H12V19H11V18H10V16H9v3h1v1h1v1h1v1h1Z"/><rect class="ja80-2" x="13" y="19" width="3" height="1"/><rect class="ja80-2" x="12" y="18" width="1" height="1"/><rect class="ja80-8" x="21" y="12" width="1" height="1"/><path class="ja80-8" d="M10,13h2V12h2V11h1v1h2v1h2v1h1V12h1V11H20V10H19V9H17V8H12V9H10v1H9v1H8v1H9v2h1Z"/><rect class="ja80-8" x="7" y="12" width="1" height="1"/><path class="ja80-9" d="M19,15v1h1V15h1V14H19Z"/><path class="ja80-9" d="M16,16v1h3V16H16Z"/><path class="ja80-9" d="M12,14h1V13H10v1h2Z"/><path class="ja80-9" d="M16,14h3V13H16Z"/><path class="ja80-9" d="M15,14H13v2h1V15h1v1h1V14Z"/><path class="ja80-9" d="M13,17V16H10v1h3Z"/><path class="ja80-9" d="M10,15V14H8v1H9v1h1Z"/><path class="ja80-6" d="M20,20v1h1V18H20v2Z"/><path class="ja80-6" d="M23,19V18H22v2h1Z"/><path class="ja80-6" d="M24,21h1V18H24v3Z"/><path class="ja80-2" d="M22,20V18H21v2Z"/><path class="ja80-10" d="M24,22V21H21v1Z"/><path class="ja80-11" d="M24,21V20H21v1h3Z"/><path class="ja80-6" d="M21,22v1h3V22Z"/><path class="ja80-12" d="M21,23v2h3V23H21Z"/><path class="ja80-11" d="M23,18V16H22v2Z"/><path class="ja80-6" d="M24,18V17H23v1Z"/><path class="ja80-6" d="M22,17H21v1h1Z"/><path class="ja80-2" d="M23,19v1h1V18H23Z"/><path class="ja80-13" d="M24,21.222V23h1V21H24Z"/><path class="ja80-13" d="M21,23V21H20v2Z"/></svg>