<svg xmlns="http://www.w3.org/2000/svg" viewBox="0 0 29 33"><defs><style>polygon,rect,path{shape-rendering:crispedges;}.ab44-1{fill:#31a09d;}.ab44-2{fill:#000000;}.ab44-3{fill:#45ba00;}.ab44-4{fill:#e8b795;}.ab44-5{fill:#b3ffa1;}.ab44-6{fill:#5e362f;}.ab44-7{fill:#004a77;}</style></defs><path class="ab44-1" d="M0,33H6V27H7V26H8V25h2V24h1V23h1V22H11V21H10v1H9V21H8V20H7V19H8V12H9V10h1V9h1V8h7V9h1v1h1v2h1v7h1v1H21v1H20v1H19V21H18v1H17v1h1v1h1v1h2v1h1v1h1v6h6V0H0Z"/><path class="ab44-2" d="M23,27H22v6h1V27Z"/><path class="ab44-3" d="M21,31v2h1V31Z"/><path class="ab44-3" d="M21,28v2h1V27H21Z"/><rect class="ab44-2" x="21" y="26" width="1" height="1"/><path class="ab44-2" d="M21,30V27H20v6h1V30Z"/><path class="ab44-3" d="M20,32V26H19V25H18v1H17v1H16V25H15v2H14V25H13v2H12V26H11V25H10v1H9v6h1v1h4V32h1v1h4V32Zm-9-3H10V28h1Zm2,2H12V30h1Zm2,0H14V30h1Zm0-2H14V28h1Zm2,2H16V30h1Zm1-2V28h1v1Z"/><path class="ab44-2" d="M20,26h1V25H19v1Z"/><rect class="ab44-3" x="16" y="24" width="1" height="1"/><rect class="ab44-2" x="15" y="24" width="1" height="1"/><rect class="ab44-2" x="14" y="32" width="1" height="1"/><rect class="ab44-2" x="14" y="30" width="1" height="1"/><rect class="ab44-2" x="14" y="28" width="1" height="1"/><path class="ab44-2" d="M14,26v1h1V25H14Z"/><rect class="ab44-2" x="13" y="24" width="1" height="1"/><path class="ab44-4" d="M16,24V23H13v1h1v1h1V24Z"/><rect class="ab44-3" x="12" y="24" width="1" height="1"/><path class="ab44-2" d="M11,26h2V25H12V24h1V23h3v1h1v1H16v1h2V25h1V24H18V23H17V21H16v1H13V21H12v2H11v1H10v1h1Z"/><path class="ab44-2" d="M10,26V25H8v1h2Z"/><path class="ab44-2" d="M9,31V27H8v6H9V31Z"/><path class="ab44-3" d="M7,31v2H8V31Z"/><path class="ab44-3" d="M7,30H8V27H7v3Z"/><rect class="ab44-2" x="7" y="26" width="1" height="1"/><path class="ab44-2" d="M7,30V27H6v6H7V30Z"/><rect class="ab44-5" x="10" y="28" width="1" height="1"/><rect class="ab44-5" x="12" y="30" width="1" height="1"/><path class="ab44-5" d="M12,27h1V26H12Z"/><rect class="ab44-5" x="16" y="30" width="1" height="1"/><rect class="ab44-5" x="18" y="28" width="1" height="1"/><path class="ab44-5" d="M16,27h1V26H16Z"/><path class="ab44-5" d="M9,27V26H8v1Z"/><path class="ab44-5" d="M19,32v1h1V32Z"/><path class="ab44-5" d="M9,32v1h1V32Z"/><path class="ab44-5" d="M7,31H8V30H7Z"/><path class="ab44-5" d="M21,31h1V30H21Z"/><path class="ab44-5" d="M20,27h1V26H20Z"/><path class="ab44-2" d="M20,16h1V15H20Z"/><path class="ab44-4" d="M18,20V19h1V16H18v1H16V16H15v1H14V16H13v1H11V16H10v3h1v1h1v1h1v1h3V21h1V20Zm-2,0H13V19H12V18h1v1h3Z"/><rect class="ab44-4" x="19" y="15" width="1" height="1"/><rect class="ab44-4" x="17" y="13" width="1" height="1"/><path class="ab44-4" d="M16,14V13h1V11H16V10H13v1H12v1h1v1H11v1h5Z"/><rect class="ab44-4" x="14" y="15" width="1" height="1"/><rect class="ab44-4" x="9" y="15" width="1" height="1"/><path class="ab44-2" d="M19,17v2h1V16H19Z"/><rect class="ab44-2" x="18" y="19" width="1" height="1"/><rect class="ab44-2" x="17" y="20" width="1" height="1"/><rect class="ab44-2" x="11" y="20" width="1" height="1"/><rect class="ab44-2" x="10" y="19" width="1" height="1"/><path class="ab44-2" d="M10,16H9v3h1V16Z"/><path class="ab44-2" d="M9,15H8v1H9Z"/><rect class="ab44-2" x="14" y="16" width="1" height="1"/><path class="ab44-6" d="M13,12H11v1h2Z"/><rect class="ab44-6" x="16" y="13" width="1" height="1"/><path class="ab44-6" d="M18,13V12H17v1Z"/><rect class="ab44-2" x="13" y="19" width="3" height="1"/><rect class="ab44-2" x="12" y="18" width="1" height="1"/><path class="ab44-7" d="M20,17v2H19v1H18v1h1v1h1V21h1V20h1V19H21V16H20Z"/><path class="ab44-7" d="M9,14h2V12h1V11h1V10h3v1h1v1h1v2h2v1h1V12H20V10H19V9H18V8H11V9H10v1H9v2H8v3H9Z"/><path class="ab44-7" d="M10,20V19H9V16H8v3H7v1H8v1H9v1h1V21h1V20Z"/><path class="ab44-7" d="M11,21v1h1V21Z"/><path class="ab44-7" d="M17,22h1V21H17Z"/><path class="ab44-2" d="M10,16h1v1h2V16h1V15h1v1h1v1h2V16h1V15h1V14H9v1h1Z"/></svg>