<svg xmlns="http://www.w3.org/2000/svg" viewBox="0 0 29 33"><defs><style>polygon,rect,path{shape-rendering:crispedges;}.ja120-1{fill:#d4a122;}.ja120-2{fill:#000000;}.ja120-3{fill:#cc2f76;}.ja120-4{fill:#00774c;}.ja120-5{fill:#ce8452;}.ja120-6{fill:#ffffff;}.ja120-7{fill:#685432;}.ja120-8{fill:#317f03;}.ja120-9{fill:#38a6e8;}</style></defs><path class="ja120-1" d="M0,33H6V27H7V26H8V25h2V24h2V21H9V20H8V19H9V18H8V13H9V11h1V10h1V9h7v1h1v1h1v1h1v6H20v1h1v1H20v1H17v3h2v1h2v1h1v1h1v6h6V0H0Z"/><path class="ja120-2" d="M23,27H22v6h1V27Z"/><rect class="ja120-2" x="21" y="26" width="1" height="1"/><path class="ja120-3" d="M21,31v1h1V30H21Z"/><path class="ja120-3" d="M21,28h1V27H21Z"/><path class="ja120-2" d="M21,31V27H20v6h1V31Z"/><path class="ja120-2" d="M20,26h1V25H19v1Z"/><path class="ja120-3" d="M19,31V30H18V28H17V27H16V25H15V24H14V23H13v2h1v1h1v2h1v1h1v2h1v1h1v1h1V31Z"/><path class="ja120-3" d="M10,31V30H9v2h1v1h1V31Z"/><path class="ja120-3" d="M16,31V30H15V28H14V27H13V25H11v1h1v2h1v1h1v2h1v1h1v1h1V31Z"/><rect class="ja120-3" x="16" y="24" width="1" height="1"/><path class="ja120-3" d="M13,31V30H12V28H11V27H10V26H9v2h1v1h1v2h1v1h1v1h1V31Z"/><path class="ja120-3" d="M17,25v1h1v2h1v1h1V27H19V25H17Z"/><path class="ja120-2" d="M18,25h1V24H17v1Z"/><path class="ja120-2" d="M13,23h3v1h1V21H16v1H13V21H12v3h1Z"/><path class="ja120-2" d="M12,25V24H10v1h2Z"/><path class="ja120-2" d="M10,26V25H8v1h2Z"/><path class="ja120-2" d="M9,31V27H8v6H9V31Z"/><rect class="ja120-2" x="7" y="26" width="1" height="1"/><path class="ja120-3" d="M7,31v2H8V31Z"/><path class="ja120-3" d="M8,29V27H7v2Z"/><path class="ja120-2" d="M7,30V27H6v6H7V30Z"/><path class="ja120-4" d="M21,29v1h1V28H21Z"/><path class="ja120-4" d="M21,32v1h1V32Z"/><path class="ja120-4" d="M19,26v1h2V26H19Z"/><path class="ja120-4" d="M19,28H18v2h1v1h1V29H19Z"/><path class="ja120-4" d="M17,26V25H16v2h1v1h1V26Z"/><path class="ja120-4" d="M18,32V31H17v2h2V32Z"/><path class="ja120-4" d="M16,30v1h1V29H16V28H15v2Z"/><path class="ja120-4" d="M16,23H14v1h1v1h1V23Z"/><path class="ja120-4" d="M14,27v1h1V26H14V25H13v2Z"/><path class="ja120-4" d="M15,32V31H14v2h2V32Z"/><path class="ja120-4" d="M13,30v1h1V29H13V28H12v2Z"/><path class="ja120-4" d="M13,25V24H12v1Z"/><path class="ja120-4" d="M10,27h1v1h1V26H11V25H10v2Z"/><path class="ja120-4" d="M12,32V31H11v2h2V32Z"/><path class="ja120-4" d="M10,30v1h1V29H10V28H9v2Z"/><path class="ja120-4" d="M9,32v1h1V32Z"/><path class="ja120-4" d="M9,27V26H8v1Z"/><path class="ja120-4" d="M7,30v1H8V29H7Z"/><rect class="ja120-2" x="19" y="14" width="1" height="1"/><rect class="ja120-5" x="19" y="15" width="1" height="1"/><path class="ja120-5" d="M13,22h3V21h1V19H16v1H13V19h3V18h1v1h1V15H16v1H15v1H14V16h1V14h1V12H15V11H14v4H13v2H12V15H11v4h1v2h1Z"/><rect class="ja120-5" x="17" y="11" width="1" height="1"/><rect class="ja120-5" x="17" y="13" width="1" height="1"/><rect class="ja120-5" x="9" y="15" width="1" height="1"/><rect class="ja120-5" x="12" y="12" width="1" height="1"/><rect class="ja120-5" x="11" y="13" width="1" height="1"/><path class="ja120-2" d="M17,20v1h1V20Z"/><path class="ja120-2" d="M11,20v1h1V20Z"/><rect class="ja120-2" x="14" y="16" width="1" height="1"/><rect class="ja120-6" x="12" y="14" width="1" height="1"/><path class="ja120-6" d="M16,14v1h1V14Z"/><rect class="ja120-2" x="11" y="14" width="1" height="1"/><path class="ja120-2" d="M17,14v1h1V14Z"/><rect class="ja120-7" x="17" y="12" width="1" height="1"/><rect class="ja120-7" x="12" y="13" width="1" height="1"/><rect class="ja120-7" x="11" y="12" width="1" height="1"/><rect class="ja120-8" x="20" y="19" width="1" height="1"/><path class="ja120-8" d="M19,16v2h1V16Z"/><path class="ja120-8" d="M19,19V18H18v1H17v1h1v1h2V20H19Z"/><rect class="ja120-8" x="8" y="19" width="1" height="1"/><path class="ja120-8" d="M12,20V19H11V18H10v2H9v1h2V20Z"/><path class="ja120-8" d="M10,17V16H9v2h1Z"/><rect class="ja120-2" x="13" y="19" width="3" height="1"/><rect class="ja120-2" x="16" y="18" width="1" height="1"/><path class="ja120-9" d="M9,15h1v3h1V12h2v3h1V11h1v1h1v2h1V11h1v7h1V14h1v4h1V12H20V11H19V10H18V9H11v1H10v1H9v2H8v5H9V15Z"/><polygon class="ja120-9" points="19 19 19 20 20 20 20 19 20 18 19 18 19 19"/><path class="ja120-9" d="M15,14v2h1V14Z"/><path class="ja120-9" d="M12,16v1h1V15H12Z"/><path class="ja120-9" d="M10,19V18H9v2h1Z"/></svg>