<svg xmlns="http://www.w3.org/2000/svg" viewBox="0 0 29 33"><defs><style>polygon,rect,path{shape-rendering:crispedges;}.hb40-1{fill:#d14646;}.hb40-2{fill:#6d3e35;}.hb40-3{fill:#000000;}.hb40-4{fill:#004a77;}.hb40-5{fill:#004a77;}.hb40-6{fill:#6c9302;}.hb40-7{fill:#f62;}.hb40-8{fill:#ffffff;}.hb40-9{fill:#f9db00;}.hb40-10{fill:#1261ff;}.hb40-11{fill:#00c650;}.hb40-12{fill:#e20026;}</style></defs><rect class="hb40-1" x="14" y="17" width="1"/><path class="hb40-1" d="M19,17V16h0v2h0Z"/><path class="hb40-1" d="M0,0V33H6V26H5V25H6V22H9v3h1V24h2V21H10V20H9V16H8V14H9V12H8V11H9V10h1V9h2V8h5V9h2v1h1v1h1v1H20v4h0V14h1v2H20v4H19v1H17v3h2v1h2v1h1v1h1v6h6V0ZM8,13H7V12H8Zm14,0H21V12h1Z"/><path class="hb40-2" d="M8,26H9V25H6v1H7v7H8V26Z"/><path class="hb40-3" d="M7,26H6v7H7V26Z"/><path class="hb40-3" d="M23,27H22v6h1V27Z"/><path class="hb40-2" d="M22,27H21v6h1V27Z"/><rect class="hb40-3" x="21" y="26" width="1" height="1"/><path class="hb40-3" d="M21,27H20v6h1V27Z"/><path class="hb40-2" d="M20,27h1V26H19V25H17V24H16V23H13v1H12v1H10v1H9v7h5V29h1v4h5V27Zm-8,2H11V28h1Zm6,0H17V28h1Z"/><path class="hb40-3" d="M20,26h1V25H19v1Z"/><rect class="hb40-3" x="17" y="28" width="1" height="1"/><path class="hb40-3" d="M18,25h1V24H17v1Z"/><path class="hb40-3" d="M15,29H14v4h1V29Z"/><path class="hb40-3" d="M13,23h3v1h1V21H16v1H13V21H12v3h1Z"/><rect class="hb40-3" x="11" y="28" width="1" height="1"/><path class="hb40-3" d="M12,24H10v1h2Z"/><path class="hb40-3" d="M9,26H8v7H9V26Z"/><path class="hb40-3" d="M21,15H20v1h1Z"/><path class="hb40-2" d="M17,12H15V11H14v1H12v1h4V12Z"/><rect class="hb40-2" x="10" y="13" width="1" height="1"/><path class="hb40-2" d="M13,21v1h3V21h1V20h1V18h1V16h1V15H18v1H16V15H15V14H14v1H13v1H11V15H9v1h1v2h1v2h1v1Zm1-4V16h1v1H14Zm-1,2h3V18h1v1H16v1H13Z"/><rect class="hb40-2" x="18" y="13" width="1"/><path class="hb40-3" d="M19,16v1h1V16H19Z"/><path class="hb40-3" d="M10,16H9v1h1Z"/><path class="hb40-3" d="M8,15v1H9V15Z"/><polygon class="hb40-3" points="15 16 15 16 14 16 14 17 15 17 15 16"/><rect class="hb40-4" x="18" y="13" width="1" height="1"/><rect class="hb40-4" x="16" y="12" width="1" height="1"/><rect class="hb40-4" x="10" y="13" width="1"/><path class="hb40-5" d="M19,18H18v2H17v1h2V20h1V17H19Z"/><path class="hb40-5" d="M11,20V18H10V17H9v3h1v1h2V20Z"/><rect class="hb40-3" x="13" y="19" width="3" height="1"/><rect class="hb40-3" x="16" y="18" width="1" height="1"/><rect class="hb40-6" x="21" y="12" width="1" height="1"/><path class="hb40-6" d="M10,13h2V12h2V11h1v1h2v1h2v1h1V12h1V11H20V10H19V9H17V8H12V9H10v1H9v1H8v1H9v2h1Z"/><path class="hb40-6" d="M21,14H20v1h1Z"/><path class="hb40-6" d="M9,15V14H8v1Z"/><rect class="hb40-6" x="7" y="12" width="1" height="1"/><path class="hb40-3" d="M10,15h1v1h2V15h1V14h1v1h1v1h2V15h2V14H18V13H11v1H9v1Z"/><path class="hb40-7" d="M7,22H6v1H7Z"/><path class="hb40-8" d="M8,23V22H7v1Z"/><path class="hb40-9" d="M8,24H9V23H8Z"/><path class="hb40-10" d="M7,24H6v1H7Z"/><path class="hb40-7" d="M8,25H9V24H8Z"/><rect class="hb40-11" x="7" y="23" width="1" height="1"/><path class="hb40-9" d="M7,24v1H8V24Z"/><path class="hb40-12" d="M7,23H6v1H7Z"/><path class="hb40-12" d="M9,23V22H8v1Z"/><rect class="hb40-3" x="5" y="25" width="1" height="1"/><rect class="hb40-3" x="9" y="25" width="1" height="1"/></svg>