<svg xmlns="http://www.w3.org/2000/svg" viewBox="0 0 29 33"><defs><style>polygon,rect,path{shape-rendering:crispedges;}.ya147-1{fill:#397d98;}.ya147-2{fill:#000000;}.ya147-3{fill:#3a172a;}.ya147-4{fill:#c18d59;}.ya147-5{fill:#dbc6d2;}.ya147-6{fill:#ffffff;}.ya147-7{fill:#8e4717;}.ya147-8{fill:#8e4717;}.ya147-9{fill:#dbc6d2;}</style></defs><path class="ya147-1" d="M0,33H6V27H7V26H8V25h2V24h1V23h1V21H11V20H10V19H9V16H8V15H9V11h1V10h1V9h1V8h1V6h1V5h1V7h1V9h2v1h1v1h1v4h1v1H20v3H19v1H18v1H17v2h1v1h1v1h2v1h1v1h1v6h6V0H0Z"/><path class="ya147-2" d="M23,27H22v6h1V27Z"/><path class="ya147-3" d="M21,28v2h1V27H21Z"/><path class="ya147-3" d="M21,31v2h1V31Z"/><rect class="ya147-2" x="21" y="26" width="1" height="1"/><path class="ya147-2" d="M21,30V27H20v6h1V30Z"/><path class="ya147-3" d="M20,32V26H19V25H18v1H17v1H16V25H15v2H14V25H13v2H12V26H11V25H10v1H9v6h1v1h4V32h1v1h4V32Zm-9-3H10V28h1Zm2,2H12V30h1Zm2,0H14V30h1Zm0-2H14V28h1Zm2,2H16V30h1Zm1-2V28h1v1Z"/><path class="ya147-2" d="M20,26h1V25H19v1Z"/><rect class="ya147-3" x="16" y="24" width="1" height="1"/><rect class="ya147-2" x="15" y="24" width="1" height="1"/><rect class="ya147-2" x="14" y="32" width="1" height="1"/><rect class="ya147-2" x="14" y="30" width="1" height="1"/><rect class="ya147-2" x="14" y="28" width="1" height="1"/><path class="ya147-2" d="M14,26v1h1V25H14Z"/><rect class="ya147-2" x="13" y="24" width="1" height="1"/><path class="ya147-4" d="M16,24V23H13v1h1v1h1V24Z"/><rect class="ya147-3" x="12" y="24" width="1" height="1"/><path class="ya147-2" d="M11,26h2V25H12V24h1V23h3v1h1v1H16v1h2V25h1V24H18V23H17V21H16v1H13V21H12v2H11v1H10v1h1Z"/><path class="ya147-2" d="M10,26V25H8v1h2Z"/><path class="ya147-2" d="M9,31V27H8v6H9V31Z"/><path class="ya147-3" d="M7,31v2H8V31Z"/><path class="ya147-3" d="M7,30H8V27H7v3Z"/><rect class="ya147-2" x="7" y="26" width="1" height="1"/><path class="ya147-2" d="M7,30V27H6v6H7V30Z"/><rect class="ya147-5" x="10" y="28" width="1" height="1"/><rect class="ya147-5" x="12" y="30" width="1" height="1"/><path class="ya147-5" d="M12,27h1V26H12Z"/><rect class="ya147-5" x="16" y="30" width="1" height="1"/><rect class="ya147-5" x="18" y="28" width="1" height="1"/><path class="ya147-5" d="M16,27h1V26H16Z"/><path class="ya147-5" d="M9,27V26H8v1Z"/><path class="ya147-5" d="M19,32v1h1V32Z"/><path class="ya147-5" d="M9,32v1h1V32Z"/><path class="ya147-5" d="M7,31H8V30H7Z"/><path class="ya147-5" d="M21,31h1V30H21Z"/><path class="ya147-5" d="M20,27h1V26H20Z"/><rect class="ya147-2" x="20" y="15" width="1" height="1"/><path class="ya147-2" d="M19,13v1H17v1h3V11H19v2Z"/><path class="ya147-4" d="M18,14h1V13H17v1Z"/><path class="ya147-4" d="M13,22h3V21h1V20h1V19h1V16h1V15H16V13h1V12h2V11H18V10H16v1H15V10H11v1H10v2h1V12h2v1H11v1h2v1H9v1h1v3h1v1h1v1h1Zm1-6h1v1H14Zm-2,3V18h5v1H16v1H13V19Z"/><path class="ya147-2" d="M19,17v2h1V16H19Z"/><rect class="ya147-2" x="18" y="10" width="1" height="1"/><rect class="ya147-2" x="18" y="19" width="1" height="1"/><rect class="ya147-2" x="17" y="20" width="1" height="1"/><path class="ya147-2" d="M17,10h1V9H16v1Z"/><path class="ya147-2" d="M14,10V9H11v1h3Z"/><rect class="ya147-2" x="11" y="20" width="1" height="1"/><rect class="ya147-2" x="10" y="10" width="1" height="1"/><rect class="ya147-2" x="10" y="19" width="1" height="1"/><path class="ya147-2" d="M10,14V11H9v4h1Z"/><path class="ya147-2" d="M10,16H9v3h1V16Z"/><rect class="ya147-2" x="8" y="15" width="1" height="1"/><rect class="ya147-2" x="14" y="16" width="1" height="1"/><path class="ya147-6" d="M10,15h1V14H10Z"/><path class="ya147-6" d="M16,14v1h1V14Z"/><path class="ya147-2" d="M12,15h1V14H11v1Z"/><path class="ya147-7" d="M11,14V13H10v1Z"/><rect class="ya147-7" x="11" y="12" width="2" height="1"/><path class="ya147-7" d="M17,13H16v1h1Z"/><path class="ya147-7" d="M19,12H17v1h2Z"/><path class="ya147-8" d="M16,19h1V18H12v1h4Z"/><path class="ya147-2" d="M13,20h3V19H13Z"/><path class="ya147-9" d="M14,10h1v1h1V7H15V5H14V6H13V8H12V9h2Z"/></svg>