<svg xmlns="http://www.w3.org/2000/svg" viewBox="0 0 29 33"><defs><style>polygon,rect,path{shape-rendering:crispedges;}.sa16-1{fill:#db5a8e;}.sa16-2{fill:#000000;}.sa16-3{fill:#ffed9f;}.sa16-4{fill:#ce8452;}.sa16-5{fill:#8e4717;}.sa16-6{fill:#8e4717;}.sa16-7{fill:#68aaad;}.sa16-8{fill:#455054;}.sa16-9{fill:#ffffff;}.sa16-10{fill:#ff1f4a;}.sa16-11{fill:#0068ff;}</style></defs><path class="sa16-1" d="M10,23V22H9v2H8v1h2V24h1V23Z"/><rect class="sa16-1" x="8" y="21" width="1" height="1"/><path class="sa16-2" d="M6,24V22H5v9H6V24Z"/><path class="sa16-2" d="M23,27H22v6h1V27Z"/><path class="sa16-3" d="M22,27H21v6h1V27Z"/><rect class="sa16-2" x="21" y="26" width="1" height="1"/><path class="sa16-2" d="M21,27H20v6h1V27Z"/><path class="sa16-3" d="M20,27h1V26H19V25H18V24H16v1h1v5H16V25H13v5H12V25h1V24H11v1H10v1H8v1H9v6H20V27Z"/><path class="sa16-2" d="M20,26h1V25H19v1Z"/><rect class="sa16-2" x="18" y="24" width="1" height="1"/><path class="sa16-2" d="M16,23v1h2V23H16Z"/><path class="sa16-2" d="M13,24v1h3V24H13Z"/><path class="sa16-4" d="M15,23H13v1h3V23Z"/><path class="sa16-2" d="M12,23H11v1h2V23Z"/><rect class="sa16-2" x="10" y="24" width="1" height="1"/><path class="sa16-2" d="M9,27H8V26h2V25H8V24H7v7H6v1H8v1H9V27Z"/><path class="sa16-3" d="M7,30V24H6v7H7Z"/><path class="sa16-2" d="M12,26v4h1V25H12Z"/><path class="sa16-2" d="M16,30h1V25H16v5Z"/><path class="sa16-4" d="M12,13h2v1h1V13h1V12h1V11H12v2Z"/><rect class="sa16-4" x="18" y="12" width="1" height="1"/><path class="sa16-4" d="M16,16V15H13v1H10v1h1v1h1v1h1V18h5V17h1V16H16Zm-1,1H14V16h1Z"/><rect class="sa16-2" x="14" y="16" width="1" height="1"/><path class="sa16-5" d="M18,12H16v1h2Z"/><path class="sa16-5" d="M11,13h1V12H10v1Z"/><path class="sa16-3" d="M8,15v5H9V12h1V11h2V10h5v1h2v1h1v8h1V11H20V10H19V9H18V8H11V9H10v1H9v1H8v4Z"/><rect class="sa16-3" x="10" y="21" width="1" height="1"/><rect class="sa16-3" x="19" y="20" width="1" height="1"/><rect class="sa16-3" x="9" y="20" width="1" height="1"/><rect class="sa16-3" x="18" y="21" width="1" height="1"/><path class="sa16-3" d="M17,22v1h1V22Z"/><rect class="sa16-3" x="11" y="22" width="1" height="1"/><rect class="sa16-2" x="10" y="8" width="1" height="1"/><rect class="sa16-2" x="9" y="9" width="1" height="1"/><rect class="sa16-2" x="8" y="10" width="1" height="1"/><path class="sa16-2" d="M8,15V11H7v5H8Z"/><rect class="sa16-2" x="8" y="20" width="1" height="1"/><rect class="sa16-2" x="9" y="21" width="1" height="1"/><rect class="sa16-2" x="10" y="22" width="1" height="1"/><rect class="sa16-2" x="18" y="22" width="1" height="1"/><rect class="sa16-2" x="19" y="21" width="1" height="1"/><rect class="sa16-2" x="20" y="20" width="1" height="1"/><path class="sa16-2" d="M21,20h1V11H21v9Z"/><rect class="sa16-2" x="20" y="10" width="1" height="1"/><rect class="sa16-2" x="19" y="9" width="1" height="1"/><rect class="sa16-2" x="18" y="8" width="1" height="1"/><path class="sa16-2" d="M18,8V7H11V8h7Z"/><path class="sa16-2" d="M12,11H10v1h2Z"/><path class="sa16-2" d="M10,15V14h4V13H10V12H9v4h1Z"/><path class="sa16-2" d="M18,12h1V11H17v1Z"/><path class="sa16-2" d="M17,11V10H12v1h5Z"/><path class="sa16-1" d="M0,7V33H8V32H6V31H5V22H6V21H7V20H5v1H2V17H5V16H7V11H8V10H9V9h1V8h1V7h7V8h1V9h1v1h1v1h1v9H21v1H20v1H19v1H18v1h1v1h2v1h1v1h1v6h6V0H0Z"/><path class="sa16-6" d="M15,18H13v1h3V18Z"/><path class="sa16-6" d="M10,21h1v1h1v1h5V22h1V21h1V20h1V16H19v1H18v1H17v1H16v1H13V19H12V18H11V17H10V16H9v4h1Z"/><path class="sa16-7" d="M13,16V15h1V14H10v2h3Z"/><path class="sa16-7" d="M15,14v1h1v1h3V14Z"/><path class="sa16-2" d="M18,13H15v1h4v2h1V12H19v1Z"/><path class="sa16-2" d="M15,15V14H14v1Z"/><rect class="sa16-2" x="13" y="19" width="3" height="1"/><path class="sa16-2" d="M16,19h1V18H16Z"/><path class="sa16-4" d="M7,24H8V22H6v2Z"/><path class="sa16-8" d="M8,22V20H7v2Z"/><path class="sa16-2" d="M7,21H6v1H7Z"/><path class="sa16-2" d="M9,22H8v2H9Z"/><path class="sa16-9" d="M5,17H2v1H5Z"/><path class="sa16-9" d="M8,16H5v1H8Z"/><path class="sa16-10" d="M8,19H5v1H8Z"/><path class="sa16-10" d="M2,21H5V20H2Z"/><path class="sa16-11" d="M8,19V17H5v1H2v2H5V19Z"/></svg>