<svg xmlns="http://www.w3.org/2000/svg" viewBox="0 0 29 33"><defs><style>polygon,rect,path{shape-rendering:crispedges;}.da22-1{fill:#e55b35;}.da22-2{fill:#000000;}.da22-3{fill:#ce8452;}.da22-4{fill:#685432;}.da22-5{fill:#a89969;}.da22-6{fill:#ffffff;}.da22-7{fill:#893a1f;}.da22-8{fill:#317f03;}.da22-9{fill:#c6e5e4;}</style></defs><path class="da22-1" d="M6,32V27H7V26H8V25h2V24h2V21H11V20H10V19H9V16H8V15H9V10h1V9h1V8h7V9h1v1h1v5h1v1H20v3H19v1H18v1H17v3h2v1h2V23h2V22H22V21H21V20h1V19h3v1h1v1H25v1H24v1h1v1H24v7H23v1H21v1h8V0H0V33H6Z"/><rect class="da22-2" x="7" y="26" width="1" height="1"/><path class="da22-2" d="M9,27H8v3H7V27H6v6H7V31H8v2H9V27Z"/><path class="da22-2" d="M10,25H8v1h2Z"/><path class="da22-2" d="M12,24H10v1h2Z"/><path class="da22-2" d="M13,23h3v1h1V21H16v1H13V21H12v3h1Z"/><path class="da22-2" d="M18,25h1V24H17v1Z"/><path class="da22-2" d="M22,32h1V31H22V23H21v2H19v1h2v1H20v6h1V32Z"/><path class="da22-2" d="M23,25v6h1V24H23Z"/><path class="da22-3" d="M22,31h1V24h1V23H22v8Z"/><rect class="da22-4" x="13" y="29" width="1" height="2"/><path class="da22-4" d="M20,27h1V26H19V25H17v1H16v1H13V26H12V25H10v1H8v1H9v6H20V27Zm-9,2v3H10V28h1Zm4,3H12V28h3Zm4-3H17v2h1V30h1v2H16V28h3Z"/><path class="da22-2" d="M13,26v1h3V26H13Z"/><path class="da22-3" d="M13,25v1h3V25h1V24H16V23H13v1H12v1Z"/><path class="da22-4" d="M7,30H8V27H7v3Z"/><path class="da22-3" d="M7,31v2H8V31Z"/><rect class="da22-2" x="16" y="25" width="1" height="1"/><rect class="da22-2" x="12" y="25" width="1" height="1"/><path class="da22-5" d="M12,32h3V28H12Zm1-3h1v2H13Z"/><path class="da22-5" d="M10,29v3h1V28H10Z"/><path class="da22-5" d="M16,28v4h3V30H18v1H17V29h2V28H16Z"/><rect class="da22-2" x="20" y="15" width="1" height="1"/><polygon class="da22-3" points="18 14 19 14 19 13 17 13 17 14 18 14"/><path class="da22-3" d="M13,22h3V21h1V20h1V19h1V16h1V15H16V13h1V12h2V11H18V10H16v1H15v1H14v2H13v3H12V16H11V15H9v1h1v3h1v1h1v1h1Zm1-6h1v1H14Zm-1,3h3v1H13Z"/><path class="da22-2" d="M19,17v2h1V16H19Z"/><rect class="da22-2" x="18" y="19" width="1" height="1"/><rect class="da22-2" x="17" y="20" width="1" height="1"/><rect class="da22-2" x="11" y="20" width="1" height="1"/><rect class="da22-2" x="10" y="19" width="1" height="1"/><path class="da22-2" d="M10,14H9v1h1Z"/><path class="da22-2" d="M10,16H9v3h1V16Z"/><rect class="da22-2" x="8" y="15" width="1" height="1"/><rect class="da22-2" x="14" y="16" width="1" height="1"/><path class="da22-6" d="M18,14v1h1V14Z"/><path class="da22-6" d="M16,14v1h1V14Z"/><path class="da22-2" d="M17,14v1h1V14Z"/><path class="da22-7" d="M17,13H16v1h1Z"/><rect class="da22-7" x="17" y="12" width="2" height="1"/><rect class="da22-2" x="13" y="19" width="3" height="1"/><path class="da22-8" d="M10,15h1v1h1v1h1V14h1V12h1V11h1V10h2v1h1v4h1V10H19V9H18V8H11V9H10v1H9v4h1Z"/><path class="da22-6" d="M25,22V21h1V20H25V19H23v1h1v1H23v1h2Z"/><path class="da22-9" d="M24,21V20H23V19H22v1H21v1h1v1h1V21Z"/><path class="da22-9" d="M24,22H23v1h1Z"/><rect class="da22-2" x="24" y="23" width="1" height="1"/></svg>