<svg xmlns="http://www.w3.org/2000/svg" viewBox="0 0 29 33"><defs><style>polygon,rect,path{shape-rendering:crispedges;}.ib30-1{fill:#6b4f99;}.ib30-2{fill:#000000;}.ib30-3{fill:#b2622b;}.ib30-4{fill:#00686d;}.ib30-5{fill:#00686d;}.ib30-6{fill:#99004d;}.ib30-7{fill:#f9e100;}.ib30-8{fill:#c9936f;}.ib30-9{fill:#e8b592;}.ib30-10{fill:#9b005c;}.ib30-11{fill:#ffffff;}.ib30-12{fill:#fad000;}.ib30-13{fill:#ff1d99;}</style></defs><path class="ib30-1" d="M20,23V20H19v1H18v1H17v2h2v1h2V23Z"/><path class="ib30-1" d="M20,17v1h1V16H20Z"/><path class="ib30-1" d="M6,32V27H7V26H8V25h2V24h2V22H11V21H10V20H9V16H8V15H9V14H8V12H9V11H8V10H9V9H8V8h2V7h1V8h1V6h1V7h1V8h1V7h1V6h1V7h1V8h1V7h1V8H19V9h2v2H20v1h1v1H20v1h1v2h1v1h1V16h1v2h1v5H24v8H23v1H21v1h8V0H0V33H6Z"/><path class="ib30-2" d="M23,26v5h1V25H23Z"/><path class="ib30-2" d="M7,27H6v6H7V27Z"/><path class="ib30-3" d="M8,27H7v6H8V27Z"/><rect class="ib30-2" x="7" y="26" width="1" height="1"/><path class="ib30-2" d="M9,27H8v6H9V27Z"/><path class="ib30-3" d="M20,27h1V26H19V25H17V24H16V23H13v1H12v1H10v1H8v1H9v6h5V29h1v4h5V27Zm-8,2H11V28h1Zm6,0H17V28h1Z"/><path class="ib30-2" d="M10,25H8v1h2Z"/><rect class="ib30-2" x="11" y="28" width="1" height="1"/><path class="ib30-2" d="M12,24H10v1h2Z"/><path class="ib30-2" d="M13,23V22H12v2h1Z"/><path class="ib30-2" d="M15,29H14v4h1V29Z"/><rect class="ib30-2" x="17" y="28" width="1" height="1"/><path class="ib30-2" d="M18,24H17v1h2V24Z"/><path class="ib30-2" d="M22,32h1V31H22V25H19v1h2v1H20v6h1V32Z"/><path class="ib30-3" d="M23,26V25H22v6h1V26Z"/><path class="ib30-2" d="M20,16h1V15H20Z"/><rect class="ib30-3" x="9" y="15" width="1" height="1"/><rect class="ib30-3" x="10" y="11" width="1" height="1"/><rect class="ib30-3" x="11" y="10" width="1" height="1"/><rect class="ib30-3" x="15" y="20" width="1" height="1"/><path class="ib30-3" d="M14,13v1h1V13h2V12h1V10H17v1H16v1H15V10H14v1H13v2Z"/><rect class="ib30-3" x="13" y="20" width="1" height="1"/><path class="ib30-3" d="M16,16V15H13v1H10v2h1v1h1V18h2v1h1V18h2v1h1V18h1V16H16Zm-1,1H14V16h1Z"/><rect class="ib30-3" x="19" y="15" width="1" height="1"/><path class="ib30-2" d="M16,22v2h1V22Z"/><rect class="ib30-2" x="8" y="15" width="1" height="1"/><rect class="ib30-2" x="14" y="16" width="1" height="1"/><path class="ib30-4" d="M13,12H11v1h2Z"/><rect class="ib30-4" x="17" y="12" width="1" height="1"/><path class="ib30-5" d="M14,18H13v1h1Z"/><path class="ib30-5" d="M13,23h3V22h2V21h1V20h1V16H19v2H18v1H17V18H15v1h1v2H15V20H14v1H13V19H11V18H10V16H9v4h1v1h1v1h2Z"/><path class="ib30-2" d="M13,19v1h3V19H13Z"/><path class="ib30-2" d="M12,18v1h1V18Z"/><path class="ib30-6" d="M21,15V14H20v1Z"/><path class="ib30-6" d="M10,13h1V12H10V11h1V10h1v1H11v1h2V11h1V10h1v2h1V11h1V10h1v3h1v1h1V13h1V12H20V11h1V9H19V8H18V7H17V6H16V7H15V8H14V7H13V6H12V8H11V7H10V8H8V9H9v1H8v1H9v1H8v2h2Z"/><rect class="ib30-6" x="19" y="7" width="1" height="1"/><path class="ib30-7" d="M13,16V15h1V14H10v2h3Z"/><path class="ib30-7" d="M19,14H15v1h1v1h3V14Z"/><path class="ib30-2" d="M16,13H15v1h4V13H16Z"/><path class="ib30-2" d="M14,14V13H10v1h4Z"/><path class="ib30-2" d="M19,15h1V14H19Z"/><path class="ib30-2" d="M10,14H9v1h1Z"/><path class="ib30-2" d="M14,15h1V14H14Z"/><path class="ib30-8" d="M21,23V22H20v1Z"/><path class="ib30-8" d="M24,22.111V23h1V22H24Z"/><rect class="ib30-2" x="21" y="19" width="1" height="1"/><rect class="ib30-2" x="23" y="19" width="1" height="1"/><path class="ib30-9" d="M24,22H21v1h3V22Z"/><path class="ib30-9" d="M24,21V20H23V19H22v1H21v1h3Z"/><path class="ib30-10" d="M21,23v2h3V23H21Z"/><path class="ib30-11" d="M22,18h2V16H23v1H22V16H21v2Z"/><path class="ib30-12" d="M21,18H20v4h1V19h3v3h1V18H21Z"/><path class="ib30-13" d="M24,22V21H21v1h3Z"/></svg>