<svg xmlns="http://www.w3.org/2000/svg" viewBox="0 0 29 33"><defs><style>polygon,rect,path{shape-rendering:crispedges;}.wa96-1{fill:#7a982c;}.wa96-2{fill:#ffffff;}.wa96-3{fill:#000000;}.wa96-4{fill:#a56e49;}.wa96-5{fill:#cbed03;}.wa96-6{fill:#8e4717;}.wa96-7{fill:#8e4717;}.wa96-8{fill:#990000;}.wa96-9{fill:#fad000;}</style></defs><path class="wa96-1" d="M0,33H6V27H7V26H8V25h2V22h1V21H10V20H9V17H8V15H7V14H8V12H7V10H8v1H9V9H8V8h2V9h1V8h1V7h1V8h1V7h2V8h1V7h1V8h1V7h1V8H19V9H18v1h2V9h1v2H20v1h2v1H20v1h2v1H21v2H20v3H19v1H18v1h1v3h2v1h1v1h1v6h6V0H0Z"/><path class="wa96-2" d="M14,27v1h6V27H14Z"/><path class="wa96-2" d="M16,25h2V24H16Z"/><path class="wa96-2" d="M14,31h6V30H14Z"/><rect class="wa96-2" x="21" y="30" width="1" height="1"/><rect class="wa96-2" x="21" y="27" width="1" height="1"/><rect class="wa96-2" x="7" y="27" width="1" height="1"/><rect class="wa96-2" x="7" y="30" width="1" height="1"/><path class="wa96-2" d="M9,31h4V30H9Z"/><path class="wa96-2" d="M9,28h4V27H9Z"/><polygon class="wa96-2" points="12 24 11 24 11 25 13 25 13 24 12 24"/><path class="wa96-3" d="M23,27H22v6h1V27Z"/><rect class="wa96-3" x="21" y="26" width="1" height="1"/><path class="wa96-3" d="M21,30V27H20v4H14V27H13v4H9V27H8v6H9V32H20v1h1V30Z"/><path class="wa96-3" d="M20,26h1V25H19v1Z"/><path class="wa96-3" d="M18,25h1V22H18v3Z"/><path class="wa96-3" d="M17,24V22H16v2Z"/><rect class="wa96-3" x="15" y="24" width="1" height="1"/><path class="wa96-3" d="M15,26V25H14v2h1Z"/><rect class="wa96-3" x="13" y="24" width="1" height="1"/><path class="wa96-4" d="M15,24h1V23H13v1h1v1h1Z"/><path class="wa96-3" d="M13,23V22H12v2h1Z"/><path class="wa96-3" d="M11,24V22H10v3h1Z"/><path class="wa96-3" d="M10,25H8v1h2Z"/><rect class="wa96-3" x="7" y="26" width="1" height="1"/><path class="wa96-3" d="M7,30V27H6v6H7V30Z"/><path class="wa96-4" d="M14,14h2V12H14v1H13v1Z"/><rect class="wa96-4" x="14" y="15" width="1" height="1"/><rect class="wa96-4" x="15" y="20" width="1" height="1"/><path class="wa96-4" d="M16,17V16H15v1H14V16H13v1H10v1h1v1h1V18h2v1h1V18h2v1h1V18h1V17H16Z"/><rect class="wa96-4" x="11" y="11" width="1" height="1"/><rect class="wa96-4" x="13" y="20" width="1" height="1"/><rect class="wa96-4" x="15" y="10" width="1" height="1"/><rect class="wa96-3" x="9" y="13" width="1" height="1"/><rect class="wa96-3" x="14" y="16" width="1" height="1"/><path class="wa96-5" d="M19,32H9v1H20V32Z"/><path class="wa96-5" d="M14,29v1h6V28H14Z"/><path class="wa96-5" d="M9,29v1h4V28H9Z"/><path class="wa96-5" d="M9,27h5V25H10v1H8v1Z"/><path class="wa96-5" d="M16,25H15v2h6V26H19V25H16Z"/><path class="wa96-5" d="M7,29v1H8V28H7Z"/><path class="wa96-5" d="M7,31v2H8V31Z"/><path class="wa96-5" d="M21,31v2h1V31Z"/><path class="wa96-5" d="M21,29v1h1V28H21Z"/><path class="wa96-5" d="M12,24V22H11v2Z"/><path class="wa96-5" d="M17,23v1h1V22H17Z"/><path class="wa96-6" d="M13,12H11v1h2Z"/><path class="wa96-6" d="M17,13V12H16v1Z"/><path class="wa96-7" d="M15,18v1h1V18Z"/><path class="wa96-7" d="M13,22v1h3V22h2V21h1V20h1V16H19v2H18v1H16v2H15V20H14v1H13V19h1V18H12v1H11V18H10V16H9v4h1v1h1v1h2Z"/><path class="wa96-3" d="M14,19H13v1h3V19H14Z"/><path class="wa96-3" d="M16,18v1h1V18Z"/><rect class="wa96-8" x="7" y="14" width="1" height="1"/><path class="wa96-8" d="M22,15V14H21v1Z"/><path class="wa96-8" d="M9,13h2V11h1v1h1v1h1V12h3v1h2v1h1V13h2V12H20V11h1V9H20v1H18V9h1V8H18V7H17V8H16V7H14V8H13V7H12V8H11V9H10V8H8V9H9v2H8V10H7v2H8v2H9Zm6-3h1v1H15Z"/><path class="wa96-8" d="M20,16v1h1V15H20Z"/><path class="wa96-8" d="M9,15H8v2H9V15Z"/><rect class="wa96-8" x="19" y="7" width="1" height="1"/><path class="wa96-9" d="M19,15v1h1V15h1V14H19Z"/><path class="wa96-9" d="M16,14h3V13H16Z"/><path class="wa96-3" d="M19,14H16v2h3V14Z"/><path class="wa96-9" d="M16,16v1h3V16H16Z"/><path class="wa96-9" d="M13,14v2h1V15h1v1h1V14H13Z"/><path class="wa96-9" d="M13,14V13H10v1h3Z"/><path class="wa96-3" d="M13,16V14H10v2h3Z"/><path class="wa96-9" d="M13,17V16H10v1h3Z"/><path class="wa96-9" d="M9,16h1V14H8v1H9Z"/></svg>