<svg xmlns="http://www.w3.org/2000/svg" viewBox="0 0 29 33"><defs><style>polygon,rect,path{shape-rendering:crispedges;}.ga247-1{fill:#6b4f99;}.ga247-2{fill:#000000;}.ga247-3{fill:#333333;}.ga247-4{fill:#e8b795;}.ga247-5{fill:#ffffff;}.ga247-6{fill:#7f5018;}.ga247-7{fill:#ff1d99;}.ga247-8{fill:#db5800;}.ga247-9{fill:#ffffff;}.ga247-10{fill:#0068ff;}.ga247-11{fill:#ff1f4a;}</style></defs><path class="ga247-1" d="M0,33H6V24H7V23H8v1H9v1h1V24h2V22H11V21H10V20H9V16H8V15H9V11h1V10h1V9h1V8h1V6h1V5h1V7h1V9h2v1h1v1h1v4h1v1H20v4H19v1H18v1H17v2h2v1h2v1h1v1h1v6h6V0H0Z"/><path class="ga247-2" d="M23,27H22v6h1V27Z"/><rect class="ga247-2" x="21" y="26" width="1" height="1"/><path class="ga247-3" d="M22,27H21v6h1V27Z"/><path class="ga247-2" d="M21,27H20v6h1V27Z"/><path class="ga247-2" d="M20,26h1V25H19v1Z"/><rect class="ga247-3" x="13" y="29" width="1" height="2"/><path class="ga247-3" d="M20,27h1V26H19V25H17v1H16v1H13V26H12V25H10v2H9v6H20V27Zm-9,2v3H10V28h1Zm4,3H12V28h3Zm4-3H17v2h1V30h1v2H16V28h3Z"/><path class="ga247-2" d="M18,25h1V24H17v1Z"/><path class="ga247-2" d="M16,24h1V23H16Z"/><rect class="ga247-2" x="16" y="25" width="1" height="1"/><path class="ga247-2" d="M13,26v1h3V26H13Z"/><path class="ga247-2" d="M13,23H12v1h1Z"/><path class="ga247-4" d="M13,25v1h3V25h1V24H16V23H13v1H12v1Z"/><rect class="ga247-2" x="12" y="25" width="1" height="1"/><path class="ga247-2" d="M12,24H10v1h2Z"/><path class="ga247-2" d="M9,27H8v6H9V27Z"/><path class="ga247-3" d="M8,27H7v6H8V27Z"/><path class="ga247-2" d="M7,27V24H6v9H7V27Z"/><path class="ga247-5" d="M12,32h3V28H12Zm1-3h1v2H13Z"/><path class="ga247-5" d="M10,29v3h1V28H10Z"/><path class="ga247-5" d="M16,28v4h3V30H18v1H17V29h2V28H16Z"/><rect class="ga247-2" x="20" y="15" width="1" height="1"/><path class="ga247-2" d="M19,13h1V11H19v2Z"/><path class="ga247-4" d="M15,16v1H14V16H10v1h1v1h7V17h1V16H15Z"/><rect class="ga247-4" x="14" y="15" width="1" height="1"/><path class="ga247-4" d="M10,13h1V12h2v1h1v1h1V13h2V12h2V11H18V10H16v1H15V10H11v1H10v2Z"/><rect class="ga247-2" x="18" y="10" width="1" height="1"/><path class="ga247-2" d="M14,10V9H11v1h3Z"/><path class="ga247-2" d="M17,10h1V9H16v1Z"/><rect class="ga247-2" x="10" y="10" width="1" height="1"/><path class="ga247-2" d="M10,12V11H9v2h1Z"/><rect class="ga247-2" x="8" y="15" width="1" height="1"/><rect class="ga247-2" x="14" y="16" width="1" height="1"/><path class="ga247-6" d="M11,12v1h2V12Z"/><path class="ga247-6" d="M17,12v1h2V12Z"/><path class="ga247-7" d="M14,23h3V22h1V21h1V20h1V16H19v1H18v1H17v1H16v1H13V19H12V18H11V17H10V16H9v4h1v1h1v1h1v1h2Z"/><path class="ga247-2" d="M12,18v1h1v1h3V19h1V18H12Z"/><path class="ga247-4" d="M7,27H9V25H8V24H7v3Z"/><path class="ga247-2" d="M10,27V25H9v2Z"/><rect class="ga247-2" x="8" y="24" width="1" height="1"/><rect class="ga247-2" x="7" y="23" width="1" height="1"/><path class="ga247-8" d="M14,10h1v1h1V7H15V5H14V6H13V8H12V9h2Z"/><path class="ga247-9" d="M11,16h3V15h1v1h5V13H15v1H14V13H9v3h2Zm5-2h3v1H16Zm-6,0h3v1H10Z"/><path class="ga247-10" d="M19,15V14H16v1h3Z"/><path class="ga247-11" d="M13,15V14H10v1h3Z"/></svg>