<svg xmlns="http://www.w3.org/2000/svg" viewBox="0 0 29 33"><defs><style>polygon,rect,path{shape-rendering:crispedges;}.la172-1{fill:#db5a8e;}.la172-2{fill:#000000;}.la172-3{fill:#00686d;}.la172-4{fill:#a0688d;}.la172-5{fill:#b2622b;}.la172-6{fill:#ffffff;}.la172-7{fill:#5e362f;}.la172-8{fill:#e70059;}.la172-9{fill:#990000;}.la172-10{fill:#fad000;}.la172-11{fill:#6d5800;}.la172-12{fill:#9b8100;}.la172-13{fill:#ffffff;}</style></defs><path class="la172-1" d="M6,32V27H7V26H8V25h2V22H9V16H8V15H9V10h1V9h1V8h7V9h1v1h1v5h1v1H20v2h1V17h1V16h1v1h1v1h1v5H24v8H23v1H21v1h8V0H0V33H6Z"/><path class="la172-1" d="M20,23v1H19v1h2V23Z"/><path class="la172-2" d="M23,26v5h1V25H23Z"/><path class="la172-3" d="M22,30v1h1V30Z"/><path class="la172-3" d="M23,28V26H22v3h1Z"/><path class="la172-2" d="M22,32h1V31H22V25H19v1h2v1H20v6h1V32Z"/><path class="la172-3" d="M20,32V26H19v1H18V25H17V24H16V23H13v1H12v2h1v1H12V26H11V25H10v1H9v6h1v1h4V32h1v1h4V32Zm-9-3H10V28h1Zm2,2H12V30h1Zm2-2H14V28h1Zm0-4H14V24h1Zm2,6H16V30h1Zm0-4H16V26h1Zm1,2V28h1v1Z"/><path class="la172-2" d="M10,26V25H8v1h2Z"/><path class="la172-2" d="M9,31V27H8v6H9V31Z"/><rect class="la172-2" x="7" y="26" width="1" height="1"/><path class="la172-3" d="M7,30H8V27H7v3Z"/><path class="la172-3" d="M7,31v2H8V31Z"/><path class="la172-2" d="M7,30V27H6v6H7V30Z"/><rect class="la172-4" x="18" y="28" width="1" height="1"/><rect class="la172-4" x="16" y="30" width="1" height="1"/><rect class="la172-4" x="14" y="28" width="1" height="1"/><rect class="la172-4" x="14" y="32" width="1" height="1"/><rect class="la172-4" x="16" y="26" width="1" height="1"/><rect class="la172-4" x="12" y="30" width="1" height="1"/><rect class="la172-4" x="10" y="28" width="1" height="1"/><rect class="la172-4" x="12" y="26" width="1" height="1"/><rect class="la172-4" x="14" y="24" width="1" height="1"/><path class="la172-4" d="M21,27V26H20v1Z"/><path class="la172-4" d="M9,32v1h1V32Z"/><path class="la172-4" d="M19,32v1h1V32Z"/><path class="la172-4" d="M23,29H22v1h1Z"/><path class="la172-4" d="M23,25H22v1h1Z"/><path class="la172-4" d="M7,31H8V30H7Z"/><path class="la172-4" d="M9,27V26H8v1Z"/><rect class="la172-2" x="20" y="15" width="1" height="1"/><path class="la172-5" d="M18,15H16V13h1V12h1V11H17V10H14v1H12v1h1v1H11v1h2v1H10v4h1v1h1v1h1v1h3V21h1V20h1V19h1V16h1V15H18Zm-4,1h1v1H14Zm3,3H16v1H13V19H12V18h5Z"/><path class="la172-5" d="M17,14h2V13H17Z"/><path class="la172-2" d="M19,17v2h1V16H19Z"/><rect class="la172-2" x="18" y="19" width="1" height="1"/><rect class="la172-2" x="17" y="20" width="1" height="1"/><path class="la172-2" d="M17,21H16v1H13V21H12v3h1V23h3v1h1V21Z"/><rect class="la172-2" x="11" y="20" width="1" height="1"/><rect class="la172-2" x="10" y="19" width="1" height="1"/><path class="la172-2" d="M10,18V16H9v3h1Z"/><rect class="la172-2" x="8" y="15" width="1" height="1"/><rect class="la172-2" x="14" y="16" width="1" height="1"/><path class="la172-6" d="M11,14H10v1h1Z"/><path class="la172-6" d="M16,14v1h1V14Z"/><path class="la172-2" d="M12,15h1V14H11v1Z"/><path class="la172-2" d="M17,15h2V14H17Z"/><path class="la172-7" d="M13,12H11v1h2Z"/><path class="la172-7" d="M17,13H16v1h1Z"/><path class="la172-7" d="M17,13h1V12H17Z"/><path class="la172-2" d="M12,18v1h1V18Z"/><path class="la172-2" d="M16,19h1V18H16Z"/><path class="la172-2" d="M15,20h1V19H15Z"/><path class="la172-2" d="M15,19V18H14v1Z"/><path class="la172-2" d="M13,19v1h1V19Z"/><path class="la172-6" d="M14,18H13v1h1Z"/><path class="la172-6" d="M15,18v1h1V18Z"/><path class="la172-8" d="M14,19v1h1V19Z"/><path class="la172-9" d="M20,24V19H19v1H18v1H17v4h1v2h1V24Z"/><path class="la172-9" d="M10,15V14h1V12h1V11h2V10h3v1h1v2h1v2h1V10H19V9H18V8H11V9H10v1H9v6h1Z"/><path class="la172-9" d="M11,26h1V21H11V20H10V19H9v3h1v3h1Z"/><path class="la172-10" d="M20,20v1h5V18H24v2H23V18H22v2H21V18H20v2Z"/><path class="la172-2" d="M22,20V18H21v2Z"/><path class="la172-2" d="M23,19v1h1V18H23Z"/><path class="la172-11" d="M22,23H21v2h3V23H22Z"/><path class="la172-12" d="M21,23V21H20v2Z"/><path class="la172-12" d="M24,21.223V23h1V21H24Z"/><path class="la172-2" d="M23,22V21H22v1Z"/><path class="la172-13" d="M22,22V21H21v1Z"/><path class="la172-13" d="M24,22V21H23v1Z"/><rect class="la172-10" x="21" y="17" width="1" height="1"/><rect class="la172-10" x="23" y="17" width="1" height="1"/><polygon class="la172-12" points="23 18 23 17 23 16 22 16 22 17 22 18 23 18"/><path class="la172-8" d="M22,23h1V22H22Z"/><path class="la172-2" d="M21,22v1h1V22Z"/><path class="la172-2" d="M23,22v1h1V22Z"/></svg>