<svg xmlns="http://www.w3.org/2000/svg" viewBox="0 0 29 33"><defs><style>polygon,rect,path{shape-rendering:crispedges;}.pa162-1{fill:#6b4f99;}.pa162-2{fill:#000000;}.pa162-3{fill:#b23b00;}.pa162-4{fill:#e8b795;}.pa162-5{fill:#b23b00;}.pa162-6{fill:#ffffff;}.pa162-7{fill:#473a35;}.pa162-8{fill:#473a35;}.pa162-9{fill:#000000;}</style></defs><path class="pa162-1" d="M0,33H6V27H7V26H8V25h2V24h1V23H10V22h1V21H10V20H9V16H8V15H9V10h1V9h1V8h7V9h1v1h1v5h1v1H20v4H19v1H18v1h1v1H18v1h1v1h2v1h1v1h1v6h6V0H0Z"/><path class="pa162-2" d="M23,27H22v6h1V27Z"/><path class="pa162-3" d="M22,27H21v6h1V27Z"/><rect class="pa162-2" x="21" y="26" width="1" height="1"/><path class="pa162-2" d="M21,27H20v6h1V27Z"/><path class="pa162-3" d="M19,32V31H18v1H17V30H16v1H15v1H13V30H12v2H11V31H10v1H9v1H20V32Z"/><rect class="pa162-3" x="10" y="29" width="1" height="1"/><path class="pa162-3" d="M16,25h1v4h1V28h1v1h1V27h1V26H19V25H18V24H16Z"/><path class="pa162-3" d="M9,27v2h1V28h1v1h1V25h1V24H11v1H10v1H8v1Z"/><rect class="pa162-3" x="18" y="29" width="1" height="1"/><path class="pa162-2" d="M20,26h1V25H19v1Z"/><rect class="pa162-2" x="18" y="24" width="1" height="1"/><rect class="pa162-2" x="18" y="22" width="1" height="1"/><rect class="pa162-3" x="17" y="22" width="1" height="1"/><path class="pa162-2" d="M16,25V24H13v1h3Z"/><path class="pa162-4" d="M16,24V23H13v1h3Z"/><path class="pa162-2" d="M13,23V22H12v1H11v1h2Z"/><rect class="pa162-3" x="11" y="22" width="1" height="1"/><rect class="pa162-2" x="10" y="24" width="1" height="1"/><rect class="pa162-2" x="10" y="22" width="1" height="1"/><path class="pa162-2" d="M10,25H8v1h2Z"/><path class="pa162-2" d="M9,31V27H8v6H9V31Z"/><path class="pa162-3" d="M8,27H7v6H8V27Z"/><rect class="pa162-2" x="7" y="26" width="1" height="1"/><path class="pa162-2" d="M7,27H6v6H7V27Z"/><path class="pa162-3" d="M13,28h2v1h1V25H13v3Z"/><path class="pa162-3" d="M14,29v2h1V29Z"/><path class="pa162-5" d="M19,30H18V29H17v3h1V31h1v1h1V29H19Z"/><rect class="pa162-5" x="18" y="28" width="1" height="1"/><path class="pa162-5" d="M15,29v2h1V29Z"/><path class="pa162-5" d="M14,30V29h1V28H13v4h2V31H14Z"/><path class="pa162-5" d="M11,29v1H10V29H9v3h1V31h1v1h1V29Z"/><rect class="pa162-5" x="10" y="28" width="1" height="1"/><path class="pa162-2" d="M13,27V25H12v5h1V27Z"/><path class="pa162-2" d="M17,28V25H16v5h1V28Z"/><rect class="pa162-2" x="20" y="15" width="1" height="1"/><path class="pa162-4" d="M10,17v1h1v1h1V18h2v1h1V18h2v1h1V18h1V16h1V15H16V14h2V13H16V12h2v1h1V11H18V10H16v1H15v1H14v2H13v3H12V16H11V15H9v1h1Zm4-1h1v1H14Z"/><path class="pa162-4" d="M13,19v2h1V19Z"/><path class="pa162-4" d="M15,21h1V19H15v2Z"/><path class="pa162-2" d="M17,22H16v2h2V23H17Z"/><path class="pa162-2" d="M10,14H9v1h1Z"/><rect class="pa162-2" x="8" y="15" width="1" height="1"/><rect class="pa162-2" x="14" y="16" width="1" height="1"/><path class="pa162-6" d="M18,14v1h1V14Z"/><path class="pa162-6" d="M16,14v1h1V14Z"/><path class="pa162-2" d="M17,14v1h1V14Z"/><rect class="pa162-7" x="18" y="13" width="1" height="1"/><rect class="pa162-7" x="16" y="12" width="2" height="1"/><path class="pa162-8" d="M13,22v1h3V22h2V21h1V20h1V16H19v2H18v1H17V18H15v1h1v2H15V20H14v1H13V19h1V18H12v1H11V18H10V16H9v4h1v1h1v1h2Z"/><path class="pa162-2" d="M14,20h1V19H14Z"/><path class="pa162-9" d="M10,15h1v1h1v1h1V14h1V12h1V11h1V10h2v1h1v4h1V10H19V9H18V8H11V9H10v1H9v4h1Z"/></svg>