<svg xmlns="http://www.w3.org/2000/svg" viewBox="0 0 29 33"><defs><style>polygon,rect,path{shape-rendering:crispedges;}.pa21-1{fill:#db5a8e;}.pa21-2{fill:#000000;}.pa21-3{fill:#e1ff85;}.pa21-4{fill:#e8b795;}.pa21-5{fill:#e1ff85;}.pa21-6{fill:#ffffff;}.pa21-7{fill:#af8423;}.pa21-8{fill:#af8423;}.pa21-9{fill:#0079bc;}</style></defs><path class="pa21-1" d="M0,33H6V27H7V26H8V25h2V24h1V23H10V22h1V21H9V20H8V19H9V16H8V15H9V11h1V10h1V9h7v1h1v1h1v4h1v1H20v3h1v1H20v1H18v1h1v1H18v1h1v1h2v1h1v1h1v6h6V0H0Z"/><path class="pa21-2" d="M23,27H22v6h1V27Z"/><path class="pa21-3" d="M22,27H21v6h1V27Z"/><rect class="pa21-2" x="21" y="26" width="1" height="1"/><path class="pa21-2" d="M21,27H20v6h1V27Z"/><path class="pa21-3" d="M20,27h1V26H19V25H18V24H16v1h1v3h2v1H17v2h1V30h1v2H16V25H13v3h2v4H12V25h1V24H11v1H10v1H8v1H9v6H20V27Zm-9,2v3H10V28h1Z"/><path class="pa21-2" d="M20,26h1V25H19v1Z"/><rect class="pa21-2" x="18" y="24" width="1" height="1"/><rect class="pa21-2" x="18" y="22" width="1" height="1"/><rect class="pa21-3" x="17" y="22" width="1" height="1"/><path class="pa21-2" d="M13,24v1h3V24H13Z"/><path class="pa21-4" d="M15,23H13v1h3V23Z"/><path class="pa21-2" d="M13,23h3v1h2V23H17V22h1V20H17v1H16v1H13V21H12V20H11v2h1v1H11v1h2Z"/><rect class="pa21-3" x="11" y="22" width="1" height="1"/><rect class="pa21-2" x="10" y="24" width="1" height="1"/><rect class="pa21-2" x="10" y="22" width="1" height="1"/><path class="pa21-2" d="M10,25H8v1h2Z"/><path class="pa21-2" d="M9,27H8v6H9V27Z"/><path class="pa21-3" d="M8,27H7v6H8V27Z"/><rect class="pa21-2" x="7" y="26" width="1" height="1"/><path class="pa21-2" d="M7,27H6v6H7V27Z"/><path class="pa21-3" d="M14,31V29H13v2Z"/><path class="pa21-5" d="M14,29v2H13V30H12v2h3V28H13v1Z"/><path class="pa21-5" d="M10,29v3h1V28H10Z"/><path class="pa21-5" d="M18,29h1V28H17v1Z"/><path class="pa21-5" d="M16,31v1h3V30H18v1H17V30H16Z"/><path class="pa21-2" d="M12,26v4h1V25H12Z"/><path class="pa21-2" d="M16,30h1V25H16v5Z"/><rect class="pa21-2" x="20" y="15" width="1" height="1"/><path class="pa21-2" d="M19,13v2h1V12H19Z"/><rect class="pa21-4" x="17" y="10" width="1" height="1"/><path class="pa21-4" d="M10,17v1h1v1h1V18h1v1h3v1H13V19H12v2h1v1h3V21h1V19h1V18h1V16h1V15H16V13h3V11H18v1H17V11H16V10H13v1H12v1H11V11H10v2h3v2H9v1h1Zm4-1h1v1H14Z"/><rect class="pa21-4" x="11" y="10" width="1" height="1"/><path class="pa21-2" d="M10,14V12H9v3h1Z"/><rect class="pa21-2" x="8" y="15" width="1" height="1"/><rect class="pa21-2" x="14" y="16" width="1" height="1"/><path class="pa21-6" d="M12,15h1V14H12Z"/><path class="pa21-6" d="M10,14v1h1V14Z"/><path class="pa21-6" d="M18,14v1h1V14Z"/><path class="pa21-6" d="M16,14v1h1V14Z"/><path class="pa21-2" d="M11,14v1h1V14Z"/><path class="pa21-2" d="M17,14v1h1V14Z"/><path class="pa21-7" d="M11,14h2V13H10v1Z"/><path class="pa21-7" d="M18,14h1V13H16v1h2Z"/><path class="pa21-8" d="M19,17v1H18v1H17v1h1v1h2V20h1V19H20V16H19Z"/><path class="pa21-8" d="M12,20V19H11V18H10V16H9v3H8v1H9v1h2V20Z"/><rect class="pa21-2" x="13" y="19" width="3" height="1"/><rect class="pa21-2" x="12" y="18" width="1" height="1"/><path class="pa21-9" d="M20,12V11H19v1Z"/><rect class="pa21-9" x="18" y="10" width="1" height="1"/><path class="pa21-9" d="M12,11h1V10h3v1h1V10h1V9H11v1h1Z"/><rect class="pa21-9" x="17" y="11" width="1" height="1"/><rect class="pa21-9" x="11" y="11" width="1" height="1"/><rect class="pa21-9" x="10" y="10" width="1" height="1"/><path class="pa21-9" d="M10,11H9v1h1Z"/></svg>