<svg xmlns="http://www.w3.org/2000/svg" viewBox="0 0 29 33"><defs><style>polygon,rect,path{shape-rendering:crispedges;}.ha91-1{fill:#d4a122;}.ha91-2{fill:#000000;}.ha91-3{fill:#0068ff;}.ha91-4{fill:#a56e49;}.ha91-5{fill:#0068ff;}.ha91-6{fill:#ffffff;}.ha91-7{fill:#00774c;}.ha91-8{fill:#00774c;}.ha91-9{fill:#72dd40;}</style></defs><path class="ha91-1" d="M0,33H6V27H7V26H8V25h2V24h2V21H11V20H10V19H9V16H8V15H9V10h1V9h1V8h7V9h1v1h1v5h1v1H20v3H19v1H18v1H17v3h2v1h2v1h1v1h1v6h6V0H0Z"/><path class="ha91-2" d="M23,27H22v6h1V27Z"/><rect class="ha91-2" x="21" y="26" width="1" height="1"/><path class="ha91-3" d="M22,27H21v6h1V27Z"/><path class="ha91-2" d="M21,27H20v6h1V27Z"/><path class="ha91-2" d="M20,26h1V25H19v1Z"/><path class="ha91-3" d="M19,32V31H18v1H17V29h1V28h1v1h1V27h1V26H19V25H17v1H16v1H13V26H12V25H10v1H9v3h1V28h1v1h1v3H11V31H10v1H9v1H20V32Zm-3-2v1H15v1H13V28h2v1h1Z"/><rect class="ha91-3" x="10" y="29" width="1" height="1"/><rect class="ha91-3" x="18" y="29" width="1" height="1"/><path class="ha91-3" d="M15,29H14v2h1V29Z"/><path class="ha91-2" d="M18,25h1V24H17v1Z"/><rect class="ha91-2" x="16" y="25" width="1" height="1"/><path class="ha91-2" d="M13,26v1h3V26H13Z"/><path class="ha91-2" d="M13,23h3v1h1V21H16v1H13V21H12v3h1Z"/><path class="ha91-4" d="M13,25v1h3V25h1V24H16V23H13v1H12v1Z"/><rect class="ha91-2" x="12" y="25" width="1" height="1"/><path class="ha91-2" d="M12,24H10v1h2Z"/><path class="ha91-2" d="M9,31V26h1V25H8v1H7v1H8v6H9V31Z"/><path class="ha91-3" d="M8,27H7v6H8V27Z"/><path class="ha91-2" d="M7,27H6v6H7V27Z"/><path class="ha91-5" d="M19,30H18V29H17v3h1V31h1v1h1V29H19Z"/><rect class="ha91-5" x="18" y="28" width="1" height="1"/><path class="ha91-5" d="M15,30v1h1V29H15Z"/><path class="ha91-5" d="M14,30V29h1V28H13v4h2V31H14Z"/><path class="ha91-5" d="M9,32h1V31h1v1h1V29H11v1H10V29H9v3Z"/><rect class="ha91-5" x="10" y="28" width="1" height="1"/><rect class="ha91-2" x="20" y="15" width="1" height="1"/><path class="ha91-2" d="M19,15h1V14H19Z"/><rect class="ha91-4" x="18" y="12" width="1" height="1"/><path class="ha91-4" d="M12,19V18h5v2h1V19h1V16h1V15H16V14h2V13H16V12h2V11H17V10H12v1H11v1h1v1h1v2H9v1h1v3h1v1h1Zm2-3h1v1H14Z"/><path class="ha91-4" d="M10,14h2V13H10Z"/><path class="ha91-4" d="M13,20v2h3V20Z"/><path class="ha91-2" d="M19,17v2h1V16H19Z"/><rect class="ha91-2" x="18" y="19" width="1" height="1"/><rect class="ha91-2" x="17" y="20" width="1" height="1"/><rect class="ha91-2" x="11" y="20" width="1" height="1"/><rect class="ha91-2" x="10" y="19" width="1" height="1"/><path class="ha91-2" d="M10,14H9v1h1Z"/><path class="ha91-2" d="M10,16H9v3h1V16Z"/><rect class="ha91-2" x="8" y="15" width="1" height="1"/><rect class="ha91-2" x="14" y="16" width="1" height="1"/><path class="ha91-6" d="M12,15h1V14H12Z"/><path class="ha91-6" d="M10,14v1h1V14Z"/><path class="ha91-6" d="M18,14v1h1V14Z"/><path class="ha91-6" d="M16,14v1h1V14Z"/><path class="ha91-2" d="M11,14v1h1V14Z"/><path class="ha91-2" d="M17,14v1h1V14Z"/><rect class="ha91-7" x="18" y="13" width="1" height="1"/><rect class="ha91-7" x="16" y="12" width="2" height="1"/><path class="ha91-7" d="M13,14V13H12v1Z"/><path class="ha91-7" d="M10,13h2V12H10Z"/><path class="ha91-8" d="M17,19H16v2h1V19Z"/><path class="ha91-8" d="M13,20V19h3V18H12v3h1Z"/><path class="ha91-2" d="M16,19H13v1h3Z"/><path class="ha91-2" d="M17,18H16v1h1Z"/><path class="ha91-9" d="M10,13V12h1V11h1V10h5v1h1v1h1v2h1V10H19V9H18V8H11V9H10v1H9v4h1Z"/></svg>