<svg xmlns="http://www.w3.org/2000/svg" viewBox="0 0 29 33"><defs><style>polygon,rect,path{shape-rendering:crispedges;}.na113-1{fill:#29834f;}.na113-2{fill:#000000;}.na113-3{fill:#cc2f76;}.na113-4{fill:#b23b00;}.na113-5{fill:#c18d59;}.na113-6{fill:#ffa9d0;}.na113-7{fill:#ffffff;}.na113-8{fill:#7f5018;}.na113-9{fill:#7f5018;}.na113-10{fill:#0079bc;}</style></defs><path class="na113-1" d="M0,33H6V27H7V26H8V25h2V24h2V21H11V20H9V18H8V13H9V11h1V10h1V9h7v1h1v1h1v1h1v6H20v2H18v1H17v3h2v1h2v1h1v1h1v6h6V0H0Z"/><path class="na113-2" d="M23,27H22v6h1V27Z"/><rect class="na113-2" x="21" y="26" width="1" height="1"/><path class="na113-3" d="M21,28v2h1V27H21Z"/><path class="na113-3" d="M21,31v2h1V31Z"/><path class="na113-2" d="M21,30V27H20v6h1V30Z"/><path class="na113-3" d="M20,32V26H19V25H18v3h1v1H18v4h1V32Z"/><path class="na113-2" d="M20,26h1V25H19v1Z"/><path class="na113-2" d="M18,29V25h1V24H17v1H16v1h1v7h1V29Z"/><path class="na113-4" d="M17,26H16v1H13V26H12v7h5V26Z"/><path class="na113-2" d="M13,26v1h3V26H13Z"/><path class="na113-2" d="M13,23V22H12v2h1Z"/><path class="na113-5" d="M13,25v1h3V25h1V24H16V23H13v1H12v1Z"/><path class="na113-2" d="M12,26h1V25H12V24H10v1h1v8h1V26Z"/><path class="na113-3" d="M11,29H10V28h1V25H10v1H9v6h1v1h1V29Z"/><path class="na113-2" d="M10,26V25H8v1h2Z"/><path class="na113-2" d="M9,31V27H8v6H9V31Z"/><rect class="na113-2" x="7" y="26" width="1" height="1"/><path class="na113-3" d="M7,31v2H8V31Z"/><path class="na113-3" d="M7,30H8V27H7v3Z"/><path class="na113-2" d="M7,30V27H6v6H7V30Z"/><path class="na113-6" d="M10,29h1V28H10Z"/><path class="na113-6" d="M19,29V28H18v1Z"/><path class="na113-6" d="M9,27V26H8v1Z"/><path class="na113-6" d="M19,32v1h1V32Z"/><path class="na113-6" d="M9,32v1h1V32Z"/><path class="na113-6" d="M7,31H8V30H7Z"/><path class="na113-6" d="M21,31h1V30H21Z"/><path class="na113-6" d="M20,27h1V26H20Z"/><rect class="na113-2" x="19" y="14" width="1" height="1"/><path class="na113-5" d="M13,21h3V20H13Z"/><rect class="na113-5" x="9" y="15" width="1" height="1"/><rect class="na113-5" x="19" y="15" width="1" height="1"/><rect class="na113-5" x="17" y="13" width="1" height="1"/><path class="na113-5" d="M13,14V13H11v1h2Z"/><rect class="na113-5" x="12" y="19" width="1" height="1"/><rect class="na113-5" x="17" y="11" width="1" height="1"/><path class="na113-5" d="M18,15H16v1H15v1H14V16h1V14h1V12H15V11H14v4H13v2H12V15H11v4h1V18h1v1h3v1h1V19h1V15Z"/><path class="na113-2" d="M16,23v1h1V22H16Z"/><rect class="na113-2" x="14" y="16" width="1" height="1"/><path class="na113-7" d="M12,15h1V14H12Z"/><path class="na113-7" d="M17,15V14H16v1Z"/><path class="na113-2" d="M12,14H11v1h1Z"/><path class="na113-2" d="M18,15V14H17v1Z"/><path class="na113-8" d="M13,12H11v1h2Z"/><rect class="na113-8" x="17" y="12" width="1" height="1"/><path class="na113-9" d="M19,16v2h1V16Z"/><path class="na113-9" d="M13,23h3V22h1V21h1V20h1V18H18v1H17v1H16v1H13V20H12V19H11V18H10v2h1v1h1v1h1Z"/><path class="na113-9" d="M10,17V16H9v2h1Z"/><rect class="na113-2" x="13" y="19" width="3" height="1"/><rect class="na113-2" x="12" y="18" width="1" height="1"/><path class="na113-10" d="M9,15h1v3h1V12h2v3h1V11h1v1h1v2h1V11h1v7h1V14h1v4h1V12H20V11H19V10H18V9H11v1H10v1H9v2H8v5H9V15Z"/><path class="na113-10" d="M19,19v1h1V18H19Z"/><path class="na113-10" d="M15,15v1h1V14H15Z"/><path class="na113-10" d="M12,16v1h1V15H12Z"/><path class="na113-10" d="M9,18v2h1V18Z"/></svg>