<svg xmlns="http://www.w3.org/2000/svg" viewBox="0 0 29 33"><defs><style>polygon,rect,path{shape-rendering:crispedges;}.oa32-1{fill:#29834f;}.oa32-2{fill:#000000;}.oa32-3{fill:#b8a4ff;}.oa32-4{fill:#00774c;}.oa32-5{fill:#efcaaf;}.oa32-6{fill:#00af68;}.oa32-7{fill:#492a23;}.oa32-8{fill:#00e070;}.oa32-9{fill:#ffffff;}.oa32-10{fill:#0068ff;}.oa32-11{fill:#ff1f4a;}.oa32-12{fill:#280000;}.oa32-13{fill:#ff5e17;}.oa32-14{fill:#560000;}.oa32-15{fill:#900;}.oa32-16{fill:#fad000;}</style></defs><rect class="oa32-1" x="9" y="25" width="1"/><path class="oa32-1" d="M6,32V27H5V26H6V25H5V24H4V21H5V20H6V19H9V16H8V15H9V10h1V9h1V8h7V9h1v1h1v5h1v1H20v6H19v3h2v1h1v1h1v6h6V0H0V33H6Z"/><path class="oa32-2" d="M23,27H22v6h1V27Z"/><path class="oa32-3" d="M21,31v1h1V30H21Z"/><path class="oa32-3" d="M21,28h1V27H21Z"/><rect class="oa32-2" x="21" y="26" width="1" height="1"/><path class="oa32-2" d="M21,31V27H20v6h1V31Z"/><path class="oa32-3" d="M18,26v2h1v1h1V27H19V25H18Z"/><path class="oa32-3" d="M19,31V30H18v2h1v1h1V31Z"/><path class="oa32-2" d="M20,26h1V25H19v1Z"/><rect class="oa32-2" x="16" y="25" width="1" height="1"/><path class="oa32-2" d="M18,31V26H17v7h1V31Z"/><path class="oa32-4" d="M17,26H16v1H13V26H12v7h5V26Z"/><path class="oa32-2" d="M13,26v1h3V26H13Z"/><path class="oa32-5" d="M17,25V24H16V23H13v1H12v1h1v1h3V25Z"/><path class="oa32-2" d="M12,26h1V25H11v8h1V26Z"/><path class="oa32-3" d="M10,31V30H9v2h1v1h1V31Z"/><path class="oa32-3" d="M10,27H9v1h1v1h1V27Z"/><path class="oa32-2" d="M9,31V27H8v6H9V31Z"/><path class="oa32-3" d="M7,31v2H8V31Z"/><path class="oa32-3" d="M7,28v1H8V28Z"/><path class="oa32-2" d="M7,30V28H7V27H6v6H7V30Z"/><path class="oa32-6" d="M19,28H18v2h1v1h1V29H19Z"/><path class="oa32-6" d="M21,32v1h1V32Z"/><path class="oa32-6" d="M21,29v1h1V28H21Z"/><path class="oa32-6" d="M18,32v1h1V32Z"/><path class="oa32-6" d="M10,28H9v2h1v1h1V29H10Z"/><path class="oa32-6" d="M9,32v1h1V32Z"/><path class="oa32-6" d="M7,30v1H8V29H7Z"/><path class="oa32-6" d="M19,26v1h2V26H19Z"/><rect class="oa32-2" x="20" y="15" width="1" height="1"/><path class="oa32-5" d="M11,20h1v1h1v1h3V21h1V20h1V19h1V16H15v1H14V16H10v3h1Zm2-1h3V18h1v1H16v1H13Z"/><path class="oa32-5" d="M17,12V11H15V10H12v1H11v1h1v1h2v1h1V13h1V12Z"/><rect class="oa32-5" x="14" y="15" width="1" height="1"/><path class="oa32-2" d="M19,17v2h1V16H19Z"/><rect class="oa32-2" x="18" y="19" width="1" height="1"/><rect class="oa32-2" x="17" y="20" width="1" height="1"/><path class="oa32-2" d="M16,22H13V21H12v3h1V23h3v1h1V21H16Z"/><polygon class="oa32-2" points="11 20 11 21 10 21 10 22 11 22 11 21 12 21 12 20 11 20"/><rect class="oa32-2" x="8" y="15" width="1" height="1"/><rect class="oa32-2" x="14" y="16" width="1" height="1"/><path class="oa32-7" d="M17,12H16v1h2V12Z"/><rect class="oa32-7" x="11" y="12" width="1" height="1"/><rect class="oa32-2" x="13" y="19" width="3" height="1"/><rect class="oa32-2" x="16" y="18" width="1" height="1"/><rect class="oa32-8" x="10" y="20" width="1" height="1"/><path class="oa32-8" d="M12,23V21H11v3H10v1h0v2h1V25h1V23Z"/><rect class="oa32-8" x="9" y="19" width="1" height="1"/><path class="oa32-8" d="M11,12V11h1V10h3v1h2v1h1v1h2V10H19V9H18V8H11V9H10v1H9v3h2Z"/><path class="oa32-8" d="M19,20H18v1H17v5h1V25h1V22h1V19H19Z"/><path class="oa32-9" d="M11,16h3V15h1v1h5V13H15v1H14V13H9v3h2Zm5-2h3v1H16Zm-6,0h3v1H10Z"/><path class="oa32-10" d="M19,15V14H16v1h3Z"/><path class="oa32-11" d="M13,15V14H10v1h3Z"/><path class="oa32-5" d="M7,27v1H8V27H9V26H6v1Z"/><polygon class="oa32-2" points="5 26 5 27 6 27 6 26 5 26"/><path class="oa32-2" d="M10,26V25H9v2h1Z"/><path class="oa32-12" d="M6,22V21H7V19H6v1H5v2Z"/><path class="oa32-12" d="M9,25h1V23H9v1H8v2H9V25Z"/><rect class="oa32-13" x="6" y="24" width="1" height="1"/><polygon class="oa32-2" points="10 21 10 20 11 20 11 19 10 19 10 20 9 20 9 21 10 21"/><path class="oa32-14" d="M10,23v1h1V22H10Z"/><path class="oa32-15" d="M10,21H9v2h1V21Z"/><polygon class="oa32-13" points="9 21 9 20 8 20 8 21 9 21"/><path class="oa32-14" d="M5,22V21H4v2H5Z"/><path class="oa32-15" d="M6,23V22H5v2H6Z"/><path class="oa32-2" d="M8,25H6v1H8Z"/><path class="oa32-2" d="M8,20H9V19h1V16H9v3H7v1Z"/><path class="oa32-16" d="M8,20H7v1H8Z"/><polygon class="oa32-16" points="6 21 6 22 6 23 6 24 7 24 7 21 6 21"/><path class="oa32-16" d="M7,24v1H8V24Z"/><path class="oa32-16" d="M9,21H8v3H9V21Z"/><rect class="oa32-14" x="7" y="21" width="1" height="3"/><rect class="oa32-2" x="5" y="24" width="1" height="1"/><path class="oa32-2" d="M4,23v1H5V23Z"/></svg>