<svg xmlns="http://www.w3.org/2000/svg" viewBox="0 0 29 33"><defs><style>polygon,rect,path{shape-rendering:crispedges;}.ma127-1{fill:#d4a122;}.ma127-2{fill:#000000;}.ma127-3{fill:#844f4f;}.ma127-4{fill:#00af68;}.ma127-5{fill:#e8b795;}.ma127-6{fill:#4922aa;}.ma127-7{fill:#ffffff;}.ma127-8{fill:#00686d;}.ma127-9{fill:#00686d;}.ma127-10{fill:#009b97;}.ma127-11{fill:#efc075;}.ma127-12{fill:#2aa8e8;}.ma127-13{fill:#d8aa68;}.ma127-14{fill:#563e1b;}</style></defs><path class="ma127-1" d="M20,19h1V16H20v3Z"/><path class="ma127-1" d="M0,33H6V28H5V27H4V25H5V24H8v1h2V24h2V21H9V20H8V19H9V16H8V15H9V11h1V10h1V9h1V8h1V6h1V5h1V7h1V9h2v1h1v1h1v4h1V14h1v8h1v1h1v8H23v1H22v1h7V0H0Z"/><path class="ma127-1" d="M21,23V20H20v1H17v3h2v1h2Z"/><path class="ma127-2" d="M23,27v4h1V23H23v4Z"/><path class="ma127-2" d="M7,30V27H5v1H6v5H7V30Z"/><path class="ma127-3" d="M7,28H8V27H7Z"/><path class="ma127-3" d="M7,31H8V30H7Z"/><path class="ma127-2" d="M9,30V26h1V25H8v8H9V30Z"/><path class="ma127-3" d="M9,28h2V27H9Z"/><path class="ma127-3" d="M9,31h2V30H9Z"/><path class="ma127-2" d="M12,26h1V25H12V24H10v1h1v8h1V26Z"/><path class="ma127-4" d="M17,26H16v1H13V26H12v7h5V26Z"/><path class="ma127-2" d="M13,23h3v1h1V21H16v1H13V21H12v3h1Z"/><path class="ma127-2" d="M13,26v1h3V26H13Z"/><path class="ma127-5" d="M13,25v1h3V25h1V24H16V23H13v1H12v1Z"/><path class="ma127-2" d="M18,30V25h1V24H17v1H16v1h1v7h1V30Z"/><path class="ma127-3" d="M18,31h2V30H18Z"/><path class="ma127-3" d="M18,28h2V27H18Z"/><rect class="ma127-2" x="22" y="31" width="1" height="1"/><path class="ma127-2" d="M21,29V27H20v6h1V29Z"/><path class="ma127-2" d="M20,26h1V25H19v1Z"/><path class="ma127-3" d="M22,30v1h1V30Z"/><path class="ma127-3" d="M22,28h1V27H22Z"/><path class="ma127-6" d="M18,31v2h2V31Z"/><path class="ma127-6" d="M9,31v2h2V31Z"/><path class="ma127-6" d="M9,29v1h2V28H9Z"/><path class="ma127-6" d="M18,29v1h2V28H18Z"/><path class="ma127-6" d="M9,26v1h2V25H10v1Z"/><path class="ma127-6" d="M20,26H19V25H18v2h3V26Z"/><path class="ma127-6" d="M23,29V28H22v2h1Z"/><path class="ma127-6" d="M22,27h1V25H22v2Z"/><path class="ma127-6" d="M7,31v2H8V31Z"/><path class="ma127-6" d="M7,29v1H8V28H7Z"/><rect class="ma127-2" x="20" y="15" width="1" height="1"/><path class="ma127-2" d="M19,14v1h1V11H19v3Z"/><path class="ma127-5" d="M10,17v1h1v1h1V18h5v1h1V18h1V16h1V15H16V14h2V13H16V12h2v1h1V11H18V10H16v1H15V10H11v1H10v2h1V12h2v1H11v1h2v1H9v1h1Zm4-1h1v1H14Z"/><path class="ma127-5" d="M13,22h3V21h1V19H16v1H13V19H12v2h1Z"/><rect class="ma127-2" x="18" y="10" width="1" height="1"/><path class="ma127-2" d="M18,20H17v1h1Z"/><path class="ma127-2" d="M14,10V9H11v1h3Z"/><path class="ma127-2" d="M17,10h1V9H16v1Z"/><path class="ma127-2" d="M11,20v1h1V20Z"/><rect class="ma127-2" x="10" y="10" width="1" height="1"/><path class="ma127-2" d="M10,14V11H9v4h1Z"/><rect class="ma127-2" x="8" y="15" width="1" height="1"/><rect class="ma127-2" x="14" y="16" width="1" height="1"/><path class="ma127-7" d="M13,15V14H12v1Z"/><path class="ma127-7" d="M10,15h1V14H10Z"/><path class="ma127-7" d="M18,14v1h1V14Z"/><path class="ma127-7" d="M16,14v1h1V14Z"/><path class="ma127-2" d="M12,15V14H11v1Z"/><path class="ma127-2" d="M17,14v1h1V14Z"/><path class="ma127-8" d="M19,13H18v1h1Z"/><rect class="ma127-8" x="16" y="12" width="2" height="1"/><path class="ma127-8" d="M11,14V13H10v1Z"/><rect class="ma127-8" x="11" y="12" width="2" height="1"/><path class="ma127-9" d="M18,21h2V20h1V19H20V16H19v2H18v1H17v1h1Z"/><path class="ma127-9" d="M12,20V19H11V18H10V16H9v3H8v1H9v1h2V20Z"/><polygon class="ma127-2" points="12 18 12 19 13 19 13 20 16 20 16 19 17 19 17 18 12 18"/><path class="ma127-10" d="M14,10h1v1h1V7H15V5H14V6H13V8H12V9h2Z"/><path class="ma127-11" d="M22,27H21v2h1V27Z"/><path class="ma127-11" d="M21,20v1h1V19H21Z"/><path class="ma127-11" d="M21,17h1V15H21v2Z"/><path class="ma127-12" d="M22,14H21v1h1Z"/><path class="ma127-5" d="M21,23v2h2V23H21Z"/><path class="ma127-13" d="M22,26V25H21v2h1Z"/><path class="ma127-13" d="M21,23h1V21H21Z"/><path class="ma127-13" d="M21,18v1h1V17H21Z"/><path class="ma127-7" d="M7,26H8V24H5v1H7Z"/><path class="ma127-5" d="M8,27V26H7V25H5v2H8Z"/><path class="ma127-14" d="M22,31V29H21v4h1V31Z"/><path class="ma127-2" d="M23,23V22H22v1Z"/><path class="ma127-2" d="M4,25v2H5V25Z"/></svg>