<svg xmlns="http://www.w3.org/2000/svg" viewBox="0 0 29 33"><defs><style>polygon,rect,path{shape-rendering:crispedges;}.ib295-1{fill:#db5a8e;}.ib295-2{fill:#000000;}.ib295-3{fill:#e8b795;}.ib295-4{fill:#ffffff;}.ib295-5{fill:#7f5018;}.ib295-6{fill:#fad000;}.ib295-7{fill:#7f5018;}.ib295-8{fill:#e70059;}.ib295-9{fill:#326b43;}</style></defs><path class="ib295-1" d="M0,33H6V27H7V26H8V25h2V23h1V22h1V21H11V20H10V19H9V16H8V15H9V14H8V11H9V10h1V9h2V8h5V9h1v1h1v1h1v4h1v1H20v3H19v1H18v1H17v1h1v1h1v2h2V23H20V21h1V20h1V19h2v1h1v3H24v8H23v1H21v1h8V0H0Z"/><path class="ib295-2" d="M23,24v7h1V23H23Z"/><path class="ib295-2" d="M7,27H6v6H7V27Z"/><path class="ib295-3" d="M8,27H7v6H8V27Z"/><rect class="ib295-2" x="7" y="26" width="1" height="1"/><path class="ib295-2" d="M9,27H8v6H9V27Z"/><path class="ib295-3" d="M14,29H13V27H12V26H11V25H10v1H8v1H9v6h5V29Zm-2,0H11V28h1Z"/><path class="ib295-3" d="M20,27h1V26H19V25H18v1H17v1H16v2H15v4h5V27Zm-2,2H17V28h1Z"/><path class="ib295-3" d="M14,24h1v1h1V23H13v2h1Z"/><path class="ib295-2" d="M10,25H8v1h2Z"/><rect class="ib295-2" x="11" y="28" width="1" height="1"/><path class="ib295-2" d="M15,29H14v4h1V29Z"/><rect class="ib295-2" x="17" y="28" width="1" height="1"/><path class="ib295-2" d="M22,32h1V31H22V23H21v2H19v1h2v1H20v6h1V32Z"/><rect class="ib295-2" x="20" y="15" width="1" height="1"/><rect class="ib295-3" x="16" y="19" width="1" height="1"/><rect class="ib295-3" x="12" y="19" width="1" height="1"/><rect class="ib295-3" x="15" y="20" width="1" height="1"/><rect class="ib295-3" x="13" y="20" width="1" height="1"/><path class="ib295-3" d="M12,19V18h5v1h2V16h1V15H16V14h2V13H16V12h2v1h1V11H18V10H14v1H12v1h1v1H11v1h2v1H9v1h1v3h2Zm2-3h1v1H14Z"/><path class="ib295-2" d="M19,17v2h1V16H19Z"/><path class="ib295-2" d="M18,20h1V19H18Z"/><rect class="ib295-2" x="17" y="20" width="1" height="1"/><rect class="ib295-2" x="11" y="20" width="1" height="1"/><path class="ib295-2" d="M10,19v1h1V19Z"/><path class="ib295-2" d="M10,16H9v3h1V16Z"/><rect class="ib295-2" x="8" y="15" width="1" height="1"/><rect class="ib295-2" x="14" y="16" width="1" height="1"/><path class="ib295-4" d="M13,15V14H12v1Z"/><path class="ib295-4" d="M10,15h1V14H10Z"/><path class="ib295-4" d="M18,14v1h1V14Z"/><path class="ib295-4" d="M16,14v1h1V14Z"/><path class="ib295-2" d="M12,15V14H11v1Z"/><path class="ib295-2" d="M17,14v1h1V14Z"/><rect class="ib295-5" x="18" y="13" width="1" height="1"/><rect class="ib295-5" x="16" y="12" width="2" height="1"/><rect class="ib295-5" x="10" y="13" width="1" height="1"/><path class="ib295-5" d="M11,13h2V12H11Z"/><rect class="ib295-2" x="12" y="26" width="1" height="1"/><path class="ib295-2" d="M15,28v1h1V27H15Z"/><rect class="ib295-2" x="16" y="26" width="1" height="1"/><path class="ib295-2" d="M13,27v2h1V27Z"/><rect class="ib295-2" x="17" y="25" width="1" height="1"/><rect class="ib295-2" x="11" y="25" width="1" height="1"/><rect class="ib295-2" x="14" y="24" width="1" height="1"/><rect class="ib295-2" x="13" y="25" width="1" height="1"/><rect class="ib295-2" x="15" y="25" width="1" height="1"/><path class="ib295-2" d="M12,24v1h1V23h3v2h1V23h1V22H17V21H16v1H13V21H12v1H11v1h1Z"/><rect class="ib295-6" x="16" y="25" width="1" height="1"/><path class="ib295-6" d="M15,26V25H14v1H13v1h1v2h1V27h1V26Z"/><rect class="ib295-6" x="12" y="25" width="1" height="1"/><path class="ib295-6" d="M11,25h1V23H11v2Z"/><path class="ib295-6" d="M17,24v1h1V23H17Z"/><path class="ib295-2" d="M19,25V23H18v2Z"/><path class="ib295-2" d="M11,24V23H10v2h1Z"/><path class="ib295-7" d="M17,19v1h1V19Z"/><rect class="ib295-7" x="16" y="20" width="1" height="1"/><path class="ib295-7" d="M15,20H14v1H13v1h3V21H15Z"/><rect class="ib295-7" x="12" y="20" width="1" height="1"/><path class="ib295-7" d="M12,19H11v1h1Z"/><path class="ib295-2" d="M13,18H12v1h1Z"/><path class="ib295-2" d="M17,19V18H16v1Z"/><rect class="ib295-2" x="15" y="19" width="1" height="1"/><path class="ib295-2" d="M15,19V18H14v1Z"/><rect class="ib295-2" x="13" y="19" width="1" height="1"/><path class="ib295-4" d="M14,19V18H13v1Z"/><path class="ib295-4" d="M16,19V18H15v1Z"/><rect class="ib295-8" x="14" y="19" width="1" height="1"/><path class="ib295-2" d="M20,21v2h1V21Z"/><rect class="ib295-2" x="21" y="20" width="1" height="1"/><rect class="ib295-2" x="22" y="19" width="2" height="1"/><path class="ib295-2" d="M24,23h1V20H24v3Z"/><path class="ib295-3" d="M22,24v7h1V23h1V20H22v1H21v2h1Z"/><path class="ib295-9" d="M19,14v1h1V11H19v3Z"/><rect class="ib295-9" x="18" y="10" width="1" height="1"/><path class="ib295-9" d="M10,14V13h1V12h1V11h2V10h4V9H17V8H12V9H10v1H9v1H8v3H9v1h1Z"/></svg>