<svg xmlns="http://www.w3.org/2000/svg" viewBox="0 0 29 33"><defs><style>polygon,rect,path{shape-rendering:crispedges;}.ta66-1{fill:#6b4f99;}.ta66-2{fill:#000000;}.ta66-3{fill:#ff791f;}.ta66-4{fill:#c18d59;}.ta66-5{fill:#e2e2e2;}.ta66-6{fill:#825fff;}.ta66-7{fill:#455054;}.ta66-8{fill:#ff1f4a;}.ta66-9{fill:#ffffff;}.ta66-10{fill:#0068ff;}</style></defs><rect class="ta66-1" x="18" y="19" width="1"/><rect class="ta66-1" x="17" y="20" width="1"/><polygon class="ta66-1" points="11 20 11 20 11 19 10 19 10 19 11 19 11 20"/><path class="ta66-1" d="M0,33H8V32H6V31H5V22H6V21H7V20H5v1H2V17H5V16H7V11H8V10H9V9h1V8h1V7h7V8h1V9h1v1h1v1h1v9H21v1H20v1H19v1H18v1h1v1h2v1h1v1h1v6h6V0H0Z"/><rect class="ta66-1" x="20" y="20" width="1"/><path class="ta66-1" d="M10,23V22H9v2H8v1h2V24h1V23Z"/><rect class="ta66-1" x="8" y="21" width="1" height="1"/><path class="ta66-1" d="M8,13V12H8v2H8Z"/><path class="ta66-1" d="M9,21h1v1h0V21H9V20H8V16H8v4H9Z"/><polygon class="ta66-1" points="15 17 15 17 15 16 14 16 14 16 15 16 15 17"/><rect class="ta66-1" x="8" y="15"/><rect class="ta66-1" x="19" y="21" width="1"/><rect class="ta66-1" x="16" y="21" width="1"/><polygon class="ta66-1" points="12 21 12 21 13 21 13 22 13 22 13 21 12 21"/><polygon class="ta66-1" points="11 20 11 20 12 20 12 21 12 21 12 20 11 20"/><path class="ta66-2" d="M6,24V22H5v9H6V24Z"/><path class="ta66-2" d="M23,27H22v6h1V27Z"/><path class="ta66-3" d="M22,27H21v6h1V27Z"/><rect class="ta66-2" x="21" y="26" width="1" height="1"/><path class="ta66-2" d="M21,27H20v6h1V27Z"/><path class="ta66-3" d="M20,27h1V26H19V25H18V24H16v1h1v5H16V25H13v5H12V25h1V24H11v1H10v1H8v1H9v6H20V27Z"/><path class="ta66-2" d="M20,26h1V25H19v1Z"/><rect class="ta66-2" x="18" y="24" width="1" height="1"/><path class="ta66-2" d="M16,24h2V23H16Z"/><path class="ta66-2" d="M13,24v1h3V24H13Z"/><path class="ta66-4" d="M16,23H13v1h3V23Z"/><path class="ta66-2" d="M12,23H11v1h2V23Z"/><rect class="ta66-2" x="10" y="24" width="1" height="1"/><path class="ta66-2" d="M9,27H8V26h2V25H8V24H7v7H6v1H8v1H9V27Z"/><path class="ta66-3" d="M7,30V24H6v7H7Z"/><path class="ta66-2" d="M12,26v4h1V25H12Z"/><path class="ta66-2" d="M16,30h1V25H16v5Z"/><polygon class="ta66-4" points="13 12 13 13 13 13 13 12 12 12 12 11 12 11 12 12 13 12"/><path class="ta66-4" d="M17,12H14v1h2V12Z"/><rect class="ta66-4" x="18" y="13" width="1" height="1"/><path class="ta66-4" d="M11,20h1v1h1v1h3V21h1V20h1V19h1V15H18v1H16V15H15V14H14v1H13v1H11V15H10v4h1Zm3-4h1v1H14Zm-1,3h3V18h1v1H16v1H13Z"/><path class="ta66-2" d="M8,16V15H8V11H7v5Z"/><polygon class="ta66-2" points="15 17 15 16 14 16 14 16 14 17 15 17 15 17"/><path class="ta66-5" d="M12,12H11v1h2V12Z"/><rect class="ta66-5" x="18" y="13" width="1"/><rect class="ta66-5" x="16" y="12" width="1" height="1"/><path class="ta66-6" d="M8,14H8v1H8Z"/><path class="ta66-6" d="M13,11H12v1h1v1h1V12h3V11H13Z"/><path class="ta66-6" d="M11,12H10v2h1V12Z"/><path class="ta66-6" d="M17,13h2V12H17Z"/><rect class="ta66-3" x="11" y="20"/><rect class="ta66-3" x="12" y="21"/><rect class="ta66-2" x="10" y="8" width="1" height="1"/><rect class="ta66-2" x="9" y="9" width="1" height="1"/><rect class="ta66-2" x="8" y="10" width="1" height="1"/><rect class="ta66-2" x="8" y="20" width="1" height="1"/><rect class="ta66-2" x="9" y="21" width="1" height="1"/><polygon class="ta66-2" points="10 23 11 23 11 22 10 22 10 22 10 23"/><polygon class="ta66-2" points="18 22 18 23 19 23 19 22 18 22 18 22"/><rect class="ta66-2" x="19" y="21" width="1" height="1"/><polygon class="ta66-2" points="20 21 20 21 21 21 21 20 20 20 20 21"/><path class="ta66-2" d="M21,20h1V11H21v9Z"/><rect class="ta66-2" x="20" y="10" width="1" height="1"/><rect class="ta66-2" x="19" y="9" width="1" height="1"/><rect class="ta66-2" x="18" y="8" width="1" height="1"/><path class="ta66-2" d="M18,8V7H11V8h7Z"/><path class="ta66-2" d="M10,15h1v1h2V15h1V14h1v1h1v1h2V15h1v4h1V12H19v1h0v1H18V13H11v1H10V12h2V11H10v1H9v7h1V15Z"/><polygon class="ta66-2" points="11 19 10 19 10 19 10 20 11 20 11 20 11 19"/><polygon class="ta66-2" points="12 20 11 20 11 20 11 21 12 21 12 21 12 20"/><path class="ta66-2" d="M16,23V22h1V21H16v1H13V21H12v1h1v1h3Z"/><polygon class="ta66-2" points="17 21 17 21 18 21 18 20 17 20 17 21"/><polygon class="ta66-2" points="18 20 18 20 19 20 19 19 18 19 18 20"/><path class="ta66-2" d="M17,12h2V11H17v1Z"/><path class="ta66-2" d="M13,11h4V10H12v1h1Z"/><path class="ta66-3" d="M8,12v3H8v5H9v1h1v1h1v1h2V22H12V21H11V20H10V19H9V12h1V11h2V10h5v1h2v1h1v7H19v1H18v1H17v1H16v1h2V22h1V21h1V20h1V11H20V10H19V9H18V8H11V9H10v1H9v1H8v1Z"/><rect class="ta66-2" x="13" y="19" width="3" height="1"/><rect class="ta66-2" x="16" y="18" width="1" height="1"/><path class="ta66-4" d="M7,24H8V22H6v2Z"/><path class="ta66-7" d="M8,22V20H7v2Z"/><path class="ta66-8" d="M5,17H2v1H5Z"/><path class="ta66-8" d="M2,19v1H5V19Z"/><path class="ta66-9" d="M2,21H5V20H2Z"/><path class="ta66-10" d="M6,18H8V16H5v2Z"/><path class="ta66-9" d="M5,18H2v1H5Z"/><path class="ta66-8" d="M7,18H5v1H8V18Z"/><path class="ta66-9" d="M8,19H5v1H8Z"/><path class="ta66-2" d="M7,21H6v1H7Z"/><path class="ta66-2" d="M9,22H8v2H9Z"/></svg>