<svg xmlns="http://www.w3.org/2000/svg" viewBox="0 0 29 33"><defs><style>polygon,rect,path{shape-rendering:crispedges;}.ba4-1{fill:#d14646;}.ba4-2{fill:#000000;}.ba4-3{fill:#b2622b;}.ba4-4{fill:#8e9350;}.ba4-5{fill:#d2d8b8;}.ba4-6{fill:#317f03;}.ba4-7{fill:#fad000;}.ba4-8{fill:#317f03;}.ba4-9{fill:#00af68;}.ba4-10{fill:#ffffff;}.ba4-11{fill:#0068ff;}.ba4-12{fill:#ff1f4a;}</style></defs><path class="ba4-1" d="M0,33H6V27H7V26H8V25h2V23h1V22h1V21H11V20H10V19H9V16H8V15H9V13H8V9H9V8h1V7h1V6h7V7h1V8h1V9h1v4H20v2h1v1H20v3H19v1H18v1H17v1h1v1h1v2h2v1h1v1h1v6h6V0H0Z"/><path class="ba4-2" d="M23,27H22v6h1V27Z"/><rect class="ba4-2" x="21" y="26" width="1" height="1"/><path class="ba4-3" d="M22,27H21v6h1V27Z"/><rect class="ba4-3" x="20" y="26" width="1" height="1"/><path class="ba4-2" d="M21,27H20v6h1V27Z"/><path class="ba4-2" d="M20,26h1V25H19v1Z"/><rect class="ba4-4" x="10" y="30" width="1" height="1"/><path class="ba4-4" d="M14,31v1h1V30H14Z"/><rect class="ba4-4" x="18" y="30" width="1" height="1"/><rect class="ba4-4" x="18" y="32" width="1" height="1"/><path class="ba4-4" d="M17,30h1V29h1v1h1V26H19V25H18v1H17v1H16v2H15v1h1v2H15v1h2V30Z"/><path class="ba4-4" d="M13,29V27H12V26H11V25H10v1H9v4h1V29h1v1h1v3h1V29Z"/><rect class="ba4-4" x="10" y="32" width="1" height="1"/><path class="ba4-3" d="M14,24h1v1h1V23H13v2h1Z"/><path class="ba4-2" d="M10,26V25H8v1h2Z"/><path class="ba4-3" d="M9,27V26H8v1Z"/><path class="ba4-2" d="M9,30V27H8v6H9V30Z"/><rect class="ba4-2" x="7" y="26" width="1" height="1"/><path class="ba4-3" d="M8,27H7v6H8V27Z"/><path class="ba4-2" d="M7,27H6v6H7V27Z"/><path class="ba4-5" d="M20,30H19v1H18V30H17v3h1V32h1v1h1V30Z"/><rect class="ba4-5" x="18" y="29" width="1" height="1"/><path class="ba4-5" d="M16,32V30H15v2Z"/><path class="ba4-5" d="M14,32V29H13v4h2V32Z"/><path class="ba4-5" d="M12,30H11v1H10V30H9v3h1V32h1v1h1V30Z"/><rect class="ba4-5" x="10" y="29" width="1" height="1"/><rect class="ba4-2" x="20" y="15" width="1" height="1"/><path class="ba4-3" d="M18,12V11H11v1h2v1h1v1h1V13h2V12Z"/><rect class="ba4-3" x="10" y="12" width="1" height="1"/><path class="ba4-3" d="M13,22h3V21h1V20h1V19h1V16H15v1H14V16H10v3h1v1h1v1h1Zm-1-3V18h5v1H16v1H13V19Z"/><rect class="ba4-3" x="14" y="15" width="1" height="1"/><path class="ba4-2" d="M19,17v2h1V16H19Z"/><rect class="ba4-2" x="18" y="19" width="1" height="1"/><rect class="ba4-2" x="17" y="20" width="1" height="1"/><rect class="ba4-2" x="11" y="20" width="1" height="1"/><rect class="ba4-2" x="10" y="19" width="1" height="1"/><path class="ba4-2" d="M10,16H9v3h1V16Z"/><rect class="ba4-2" x="8" y="15" width="1" height="1"/><rect class="ba4-2" x="14" y="16" width="1" height="1"/><path class="ba4-6" d="M11,12v1h2V12Z"/><path class="ba4-6" d="M18,12H17v1h2V12Z"/><path class="ba4-2" d="M14,30h1V29H14Z"/><rect class="ba4-2" x="12" y="26" width="1" height="1"/><path class="ba4-2" d="M15,28v1h1V27H15Z"/><rect class="ba4-2" x="16" y="26" width="1" height="1"/><path class="ba4-2" d="M13,27v2h1V27Z"/><rect class="ba4-2" x="17" y="25" width="1" height="1"/><rect class="ba4-2" x="11" y="25" width="1" height="1"/><rect class="ba4-2" x="14" y="24" width="1" height="1"/><rect class="ba4-2" x="13" y="25" width="1" height="1"/><rect class="ba4-2" x="15" y="25" width="1" height="1"/><path class="ba4-2" d="M12,24v1h1V23h3v2h1V23h1V22H17V21H16v1H13V21H12v1H11v1h1Z"/><rect class="ba4-7" x="16" y="25" width="1" height="1"/><path class="ba4-7" d="M15,26V25H14v1H13v1h1v2h1V27h1V26Z"/><rect class="ba4-7" x="12" y="25" width="1" height="1"/><path class="ba4-7" d="M11,25h1V23H11v2Z"/><path class="ba4-7" d="M17,24v1h1V23H17Z"/><path class="ba4-2" d="M19,25V23H18v2Z"/><path class="ba4-2" d="M11,24V23H10v2h1Z"/><path class="ba4-8" d="M16,19h1V18H13v1Z"/><rect class="ba4-2" x="13" y="19" width="3" height="1"/><path class="ba4-2" d="M13,18H12v1h1Z"/><path class="ba4-9" d="M10,12h1V11h7v1h1v1h2V9H20V8H19V7H18V6H11V7H10V8H9V9H8v4h2Z"/><path class="ba4-10" d="M11,16h3V15h1v1h5V13H15v1H14V13H9v3h2Zm5-2h3v1H16Zm-6,0h3v1H10Z"/><path class="ba4-11" d="M19,15V14H16v1h3Z"/><path class="ba4-12" d="M13,15V14H10v1h3Z"/></svg>