<svg xmlns="http://www.w3.org/2000/svg" viewBox="0 0 29 33"><defs><style>polygon,rect,path{shape-rendering:crispedges;}.sa297-1{fill:#d4a122;}.sa297-2{fill:#000000;}.sa297-3{fill:#cc2f76;}.sa297-4{fill:#ce8452;}.sa297-5{fill:#ffffff;}.sa297-6{fill:#6f7032;}.sa297-7{fill:#ffffff;}.sa297-8{fill:#e70059;}</style></defs><rect class="sa297-1" x="11" y="19" height="1"/><polygon class="sa297-1" points="12 21 12 21 13 21 13 22 13 22 13 21 12 21"/><rect class="sa297-1" x="17" y="20" width="1"/><path class="sa297-1" d="M13,22Z"/><polygon class="sa297-1" points="11 20 11 20 12 20 12 21 12 21 12 20 11 20"/><rect class="sa297-1" x="18" y="20" height="1"/><rect class="sa297-1" x="20" y="20" width="1"/><rect class="sa297-1" x="15" y="16" height="1"/><rect class="sa297-1" x="19" y="21" width="1"/><rect class="sa297-1" x="19" y="19" height="1"/><path class="sa297-1" d="M10,25V24h1V23H10V22H9v1H8v2Z"/><rect class="sa297-1" x="18" y="22" width="1"/><rect class="sa297-1" x="8" y="20" width="1"/><rect class="sa297-1" x="16" y="21" width="1"/><polygon class="sa297-1" points="11 22 10 22 10 21 9 21 9 21 10 21 10 22 11 22 11 22"/><path class="sa297-2" d="M6,24V23H5v8H6V24Z"/><path class="sa297-2" d="M22,31v2h1V27H22v4Z"/><path class="sa297-3" d="M21,31v2h1V27H21Z"/><rect class="sa297-2" x="21" y="26" width="1" height="1"/><path class="sa297-2" d="M21,27H20v6h1V27Z"/><rect class="sa297-3" x="10" y="29" width="1" height="1"/><path class="sa297-3" d="M10,25v1H8v1H9v2h1V28h1v1h1V25h1V24H11v1Z"/><path class="sa297-3" d="M19,32V31H18v1H17V30H16v1H15v1H13V30H12v2H11V31H10v1H9v1H20V32Z"/><rect class="sa297-3" x="18" y="29" width="1" height="1"/><path class="sa297-3" d="M16,25h1v4h1V28h1v1h1V27h1V26H19V25H18V24H16Z"/><path class="sa297-2" d="M20,26h1V25H19v1Z"/><rect class="sa297-2" x="18" y="24" width="1" height="1"/><path class="sa297-2" d="M14,25h2V24H13v1Z"/><path class="sa297-4" d="M16,24V23H13v1h3Z"/><rect class="sa297-2" x="11" y="22"/><rect class="sa297-2" x="10" y="24" width="1" height="1"/><path class="sa297-2" d="M9,31V27H8V26h2V25H8V23H7v8H6v1H8v1H9V31Z"/><path class="sa297-3" d="M7,30V24H6v7H7Z"/><path class="sa297-3" d="M13,25v3h2v1h1V25H13Z"/><path class="sa297-3" d="M14,29v2h1V29Z"/><path class="sa297-5" d="M17,32h1V31h1v1h1V29H19v1H18V29H17v3Z"/><rect class="sa297-5" x="18" y="28" width="1" height="1"/><path class="sa297-5" d="M15,29v2h1V29Z"/><path class="sa297-5" d="M14,30V29h1V28H13v4h2V31H14Z"/><path class="sa297-5" d="M11,29v1H10V29H9v3h1V31h1v1h1V29Z"/><rect class="sa297-5" x="10" y="28" width="1" height="1"/><path class="sa297-2" d="M13,25H12v5h1V25Z"/><path class="sa297-2" d="M16,30h1V25H16v5Z"/><path class="sa297-4" d="M13,12v1h3V12h1V11H12v1Z"/><rect class="sa297-4" x="10" y="13" width="1" height="1"/><path class="sa297-4" d="M18,20V19h1V16h0V15H18v1H16V15H15V14H14v1H13v1H11V15H10v4h1v1h1v1h1v1h3V21h1V20h1Zm-4-4h1v1H14Zm3,3H16v1H13V19H12V18h5Z"/><path class="sa297-4" d="M18,13v1h1V12h0v1Z"/><path class="sa297-2" d="M17,23H16V22h1V21h1V20H17v1H16v1H13v1H11v1h2V23h3v1h2V23Z"/><polygon class="sa297-2" points="15 16 14 16 14 17 15 17 15 16"/><path class="sa297-6" d="M12,12H10v1h3V12Z"/><path class="sa297-6" d="M17,12H16v1h3V12H17Z"/><path class="sa297-2" d="M7,21H8v2H9V22h1V21H9V20H8V11H7v8H5v1H7Z"/><path class="sa297-2" d="M5,21V20H4v3H5Z"/><path class="sa297-4" d="M5,23H6v1H7V23H8V21H7V20H5v3Z"/><rect class="sa297-3" x="11" y="20"/><path class="sa297-3" d="M8,20H9v1h1v1h1v1h2V22H12V21H11V20H10V19H9V12h1V11h2V10h5v1h2v1h1v7H19v1H18v1H17v1H16v1h2V22h1V21h1V20h1V11H20V10H19V9H18V8H11V9H10v1H9v1H8v9Z"/><rect class="sa297-3" x="12" y="21"/><rect class="sa297-3" x="13" y="22"/><rect class="sa297-2" x="10" y="8" width="1" height="1"/><rect class="sa297-2" x="9" y="9" width="1" height="1"/><rect class="sa297-2" x="8" y="10" width="1" height="1"/><rect class="sa297-2" x="10" y="22" width="1" height="1"/><polygon class="sa297-2" points="18 22 18 23 19 23 19 22 18 22 18 22"/><polygon class="sa297-2" points="19 21 19 22 19 22 20 22 20 21 19 21 19 21"/><polygon class="sa297-2" points="20 20 20 21 20 21 21 21 21 20 20 20 20 20"/><path class="sa297-2" d="M21,20h1V11H21v9Z"/><polygon class="sa297-2" points="20 11 21 11 21 10 20 10 20 11 20 11"/><polygon class="sa297-2" points="19 10 20 10 20 9 19 9 19 10 19 10"/><polygon class="sa297-2" points="18 9 19 9 19 8 18 8 18 9 18 9"/><path class="sa297-2" d="M18,8V7H11V8h7Z"/><path class="sa297-2" d="M11,19H10V15h1v1h2V15h1V14h1v1h1v1h2V15h1v1h0v3h1V12H19v2H18V13H11v1H10V12h2V11H10v1H9v7h1v1h1Z"/><polygon class="sa297-2" points="12 20 11 20 11 20 11 21 12 21 12 21 12 20"/><polygon class="sa297-2" points="13 21 12 21 12 21 12 22 13 22 13 22 13 21"/><polygon class="sa297-2" points="18 19 18 19 18 20 18 20 18 20 19 20 19 20 19 19 18 19"/><path class="sa297-2" d="M18,12h1V11H17v1Z"/><path class="sa297-2" d="M17,11V10H12v1h5Z"/><path class="sa297-1" d="M0,0H0V33H29V0ZM4,20H5V19H7V11H8V10H9V9h1V8h1V7h7V8h1V9h1v1h1v1h1v9H21v1H20v1H19v1H18v1h1v1h2v1h1v1h1v6H8V32H6V31H5V23H4Z"/><path class="sa297-2" d="M12,18v1h1V18Z"/><path class="sa297-2" d="M16,19h1V18H16Z"/><path class="sa297-2" d="M15,20h1V19H15Z"/><path class="sa297-2" d="M15,19V18H14v1Z"/><path class="sa297-2" d="M13,19v1h1V19Z"/><path class="sa297-7" d="M14,18H13v1h1Z"/><path class="sa297-7" d="M15,18v1h1V18Z"/><path class="sa297-8" d="M14,19v1h1V19Z"/></svg>