<svg xmlns="http://www.w3.org/2000/svg" viewBox="0 0 29 33"><defs><style>polygon,rect,path{shape-rendering:crispedges;}.ra37-1{fill:#7a982c;}.ra37-2{fill:#000000;}.ra37-3{fill:#0079bc;}.ra37-4{fill:#512a24;}.ra37-5{fill:#95f9ed;}.ra37-6{fill:#ffffff;}.ra37-7{fill:#000000;}.ra37-8{fill:#ff1f4a;}.ra37-9{fill:#eaeaea;}</style></defs><path class="ra37-1" d="M0,33H6V26H5V20H6V19H9V16H8V15H9V10h1V9h1V8h7V9h1v1h1v5h1v1H20v6H19v3h2v1h1v1h1v6h6V0H0Z"/><rect class="ra37-1" x="9" y="24" width="1" height="1"/><path class="ra37-2" d="M23,27H22v6h1V27Z"/><path class="ra37-3" d="M22,27H21v6h1V27Z"/><rect class="ra37-2" x="21" y="26" width="1" height="1"/><path class="ra37-2" d="M21,27H20v6h1V27Z"/><rect class="ra37-3" x="12" y="24" width="1" height="1"/><rect class="ra37-3" x="16" y="24" width="1" height="1"/><path class="ra37-3" d="M20,27h1V26H19V25H18v1H17v2h2v1H17v2h1V30h1v2H16V25H13v3h2v4H12V25H11v2H10V26H9v7H20V27Zm-9,2v3H10V28h1Z"/><path class="ra37-2" d="M20,26h1V25H19v1Z"/><path class="ra37-2" d="M15,24H13v1h3V24Z"/><path class="ra37-4" d="M15,23H13v1h3V23Z"/><path class="ra37-2" d="M9,26H8v7H9V26Z"/><path class="ra37-3" d="M8,27H7v6H8V27Z"/><path class="ra37-4" d="M7,27H8V26H9V25H6v1H7Z"/><path class="ra37-2" d="M7,27V26H6v7H7V27Z"/><path class="ra37-3" d="M14,31V29H13v2Z"/><path class="ra37-5" d="M14,29v2H13V30H12v2h3V28H13v1Z"/><path class="ra37-5" d="M10,29v3h1V28H10Z"/><path class="ra37-5" d="M18,29h1V28H17v1Z"/><path class="ra37-5" d="M16,31v1h3V30H18v1H17V30H16Z"/><path class="ra37-2" d="M12,26v4h1V25H12Z"/><path class="ra37-2" d="M16,25v5h1V25Z"/><rect class="ra37-2" x="20" y="15" width="1" height="1"/><path class="ra37-4" d="M14,14V13h2V12h1V11H15V10H12v1H11v1h2v1H10v1h4Z"/><rect class="ra37-4" x="9" y="15" width="1" height="1"/><path class="ra37-4" d="M12,21h1v1h3V21h1V20h1V19h1V15H16V14H14v2h1v1H14V16H13v1H11V16H10v3h1v1h1Zm1-2h3V18h1v1H16v1H13Z"/><path class="ra37-2" d="M19,17v2h1V16H19Z"/><rect class="ra37-2" x="18" y="19" width="1" height="1"/><rect class="ra37-2" x="17" y="20" width="1" height="1"/><path class="ra37-2" d="M16,22H13V21H12v3h1V23h3v1h1V21H16Z"/><rect class="ra37-2" x="11" y="20" width="1" height="1"/><rect class="ra37-2" x="10" y="19" width="1" height="1"/><path class="ra37-2" d="M10,18V16H9v3h1Z"/><rect class="ra37-2" x="8" y="15" width="1" height="1"/><rect class="ra37-2" x="14" y="16" width="1" height="1"/><path class="ra37-6" d="M19,15V14H18v1Z"/><path class="ra37-6" d="M16,14v1h1V14Z"/><path class="ra37-2" d="M17,15h1V14H17Z"/><path class="ra37-7" d="M13,12H11v1h2Z"/><polygon class="ra37-7" points="16 14 17 14 18 14 18 13 16 13 16 14"/><rect class="ra37-2" x="13" y="19" width="3" height="1"/><rect class="ra37-2" x="16" y="18" width="1" height="1"/><path class="ra37-8" d="M12,23V21H11v3H10v3h1V25h1V23Z"/><path class="ra37-8" d="M19,12H18v2h1v2h1V11H19Z"/><path class="ra37-8" d="M10,14H9v1h1Z"/><path class="ra37-8" d="M11,13V11h1V10h3v1h2v1h1V11h1V9H18V8H11V9H10v1H9v3h2Z"/><path class="ra37-8" d="M19,20H18v1H17v5h1V25h1V22h1V19H19Z"/><path class="ra37-2" d="M11,17h2V16h1V14H10v2h1Z"/><rect class="ra37-2" x="14" y="13" width="2" height="1"/><path class="ra37-2" d="M16,13h2V12H16Z"/><rect class="ra37-2" x="18" y="11" width="1" height="1"/><path class="ra37-2" d="M20,11V10H19v1Z"/><path class="ra37-2" d="M10,13H9v1h1Z"/><path class="ra37-2" d="M5,25v1H6V25Z"/><path class="ra37-2" d="M9,25v1h1V25Z"/><path class="ra37-2" d="M6,21H5v1H6Z"/><path class="ra37-2" d="M9,21H7v1H9Z"/><path class="ra37-6" d="M6,22H5v1H6Z"/><path class="ra37-6" d="M7,25H8V24H7V23H6v1H5v1H7Z"/><path class="ra37-9" d="M8,24v1H9V24Z"/><path class="ra37-9" d="M9,20v1h1v2H9v1h2V20H10V19H6v1H9Z"/><rect class="ra37-2" x="6" y="22" width="1" height="1"/><rect class="ra37-2" x="7" y="23" width="1" height="1"/><path class="ra37-2" d="M6,23H5v1H6Z"/><path class="ra37-6" d="M6,22H7V21H9V20H5v1H6Z"/><path class="ra37-6" d="M9,23h1V21H9v1H7v1H8v1H9Z"/></svg>