<svg xmlns="http://www.w3.org/2000/svg" viewBox="0 0 29 33"><defs><style>polygon,rect,path{shape-rendering:crispedges;}.aa299-1{fill:#6b4f99;}.aa299-2{fill:#000000;}.aa299-3{fill:#e8b795;}.aa299-4{fill:#009b97;}.aa299-5{fill:#9fffc6;}.aa299-6{fill:#492a23;}.aa299-7{fill:#00686d;}.aa299-8{fill:#c8a715;}.aa299-9{fill:#ffffff;}.aa299-10{fill:#e70059;}.aa299-11{fill:#45ba00;}</style></defs><path class="aa299-1" d="M18,24V22H17v2Z"/><path class="aa299-1" d="M12,22H11v2h1Z"/><path class="aa299-1" d="M0,33H6V27H7V26H8V25h2V20H9V18H8V13H9V11h1V10h1V9h7v1h1v1h1v1h1v6H20v2H19v5h1V24h1V23h1v1h1v9h6V0H0Z"/><path class="aa299-2" d="M7,31V27H6v6H7Z"/><rect class="aa299-2" x="7" y="26" width="1" height="1"/><path class="aa299-3" d="M8,31V27H7v6H8Z"/><rect class="aa299-3" x="8" y="26" width="1" height="1"/><path class="aa299-2" d="M9,31V27H8v6H9Z"/><path class="aa299-2" d="M10,26V25H8v1Z"/><rect class="aa299-4" x="18" y="32" width="1" height="1"/><rect class="aa299-4" x="10" y="32" width="1" height="1"/><path class="aa299-4" d="M17,31V30h1V29h1v1h1V27H19V25H18v1H17v1H16v1H13V27H12V26H11V25H10v1H9v4h1V29h1v1h1v3h1V29h2v1h1v2H15v1h2Z"/><rect class="aa299-4" x="18" y="30" width="1" height="1"/><path class="aa299-4" d="M14,31v1h1V30H14Z"/><rect class="aa299-4" x="10" y="30" width="1" height="1"/><path class="aa299-2" d="M17,24v2h1V25h1V24Z"/><path class="aa299-2" d="M21,31V27H20v6h1Z"/><path class="aa299-3" d="M22,31V24H21v1H20v2h1v6h1Z"/><path class="aa299-2" d="M23,31V24H22v9h1Z"/><path class="aa299-2" d="M11,26h1V24H10v1h1Z"/><rect class="aa299-2" x="12" y="26" width="1" height="1"/><rect class="aa299-2" x="16" y="26" width="1" height="1"/><path class="aa299-2" d="M14,27H13v1h3V27Z"/><path class="aa299-3" d="M16,25V23H13v2H12v1h1v1h3V26h1V25Z"/><path class="aa299-5" d="M20,31V30H19v1H18V30H17v3h1V32h1v1h1Z"/><rect class="aa299-5" x="18" y="29" width="1" height="1"/><path class="aa299-5" d="M15,32h1V30H15Z"/><path class="aa299-5" d="M14,32V30h1V29H13v4h2V32Z"/><path class="aa299-5" d="M12,31V30H11v1H10V30H9v3h1V32h1v1h1Z"/><rect class="aa299-5" x="10" y="29" width="1" height="1"/><path class="aa299-3" d="M18,12V11H17v2h1Z"/><rect class="aa299-3" x="9" y="15" width="1" height="1"/><path class="aa299-3" d="M16,14V12H15V11H14v3Z"/><path class="aa299-3" d="M14,20H13v1h1v1h1V21h1V20Z"/><rect class="aa299-3" x="14" y="15" width="1" height="1"/><path class="aa299-3" d="M17,17H16V16H15v1H14V16H13v1H11v2h1V18h5v1h1V17Z"/><rect class="aa299-3" x="19" y="15" width="1" height="1"/><path class="aa299-3" d="M13,14V13H11v1Z"/><rect class="aa299-2" x="19" y="16" width="1" height="1"/><rect class="aa299-2" x="9" y="16" width="1" height="1"/><rect class="aa299-2" x="14" y="16" width="1" height="1"/><path class="aa299-6" d="M13,12H11v1h2Z"/><rect class="aa299-6" x="17" y="13" width="1" height="1"/><path class="aa299-7" d="M12,22v1h5V22h2V18H18v1H16v2H15v1H14V21H13V19H11V18H10v4Z"/><rect class="aa299-7" x="19" y="17" width="1" height="1"/><rect class="aa299-7" x="9" y="17" width="1" height="1"/><rect class="aa299-8" x="18" y="22" width="1" height="1"/><rect class="aa299-7" x="18" y="23" width="1" height="1"/><rect class="aa299-8" x="16" y="23" width="1" height="1"/><rect class="aa299-7" x="16" y="24" width="1" height="1"/><rect class="aa299-8" x="12" y="23" width="1" height="1"/><rect class="aa299-7" x="12" y="24" width="1" height="1"/><rect class="aa299-8" x="10" y="22" width="1" height="1"/><rect class="aa299-7" x="10" y="23" width="1" height="1"/><rect class="aa299-2" x="12" y="18" width="1" height="1"/><rect class="aa299-2" x="16" y="18" width="1" height="1"/><rect class="aa299-2" x="15" y="19" width="1" height="1"/><rect class="aa299-2" x="14" y="18" width="1" height="1"/><rect class="aa299-2" x="13" y="19" width="1" height="1"/><rect class="aa299-9" x="13" y="18" width="1" height="1"/><rect class="aa299-9" x="15" y="18" width="1" height="1"/><rect class="aa299-10" x="14" y="19" width="1" height="1"/><path class="aa299-2" d="M19,27h1V25H19Z"/><rect class="aa299-2" x="20" y="24" width="1" height="1"/><rect class="aa299-2" x="21" y="23" width="1" height="1"/><path class="aa299-11" d="M9,16V14h2V12h2v2h1V11h1v1h1v2h1V11h1v3h2v4h1V12H20V11H19V10H18V9H11v1H10v1H9v2H8v5H9Z"/><path class="aa299-11" d="M11,16H10v2h1Z"/><path class="aa299-11" d="M19,16H18v2h1Z"/><path class="aa299-11" d="M19,19v1h1V18H19Z"/><path class="aa299-11" d="M10,18H9v2h1Z"/><path class="aa299-2" d="M10,16h1v1h2V16h1V15h1v1h1v1h2V16h1V15h1V14H9v1h1Z"/></svg>