<svg xmlns="http://www.w3.org/2000/svg" viewBox="0 0 29 33"><defs><style>polygon,rect,path{shape-rendering:crispedges;}.pa41-1{fill:#397d98;}.pa41-2{fill:#000000;}.pa41-3{fill:#cc3232;}.pa41-4{fill:#e8b795;}.pa41-5{fill:#cc3232;}.pa41-6{fill:#ffffff;}.pa41-7{fill:#473a35;}.pa41-8{fill:#473a35;}.pa41-9{fill:#ccc;}.pa41-10{fill:#ffce00;}</style></defs><rect class="pa41-1" x="10" y="23" width="1" height="1"/><path class="pa41-1" d="M10,22h1V21H10V20H9v2Z"/><path class="pa41-1" d="M0,33H6V27H7V26H8V24H6V23H5V21H4V20H3V19H8v1H9V16H8V15H9V10h1V9h1V8h7V9h1v2h1v4h1v1H20v4h1V19h5v1H25v1H24v2H23v1H21v2h1v1h1v6h6V0H0Z"/><path class="pa41-1" d="M19,21H18v1h2V20H19Z"/><rect class="pa41-1" x="18" y="23" width="1" height="1"/><path class="pa41-2" d="M23,27H22v6h1V27Z"/><path class="pa41-3" d="M22,27H21v6h1V27Z"/><rect class="pa41-2" x="21" y="26" width="1" height="1"/><path class="pa41-2" d="M21,27H20v6h1V27Z"/><path class="pa41-3" d="M20,27h1V26H19V25H18V24H16v1h1v4h1v1h1v3h1V27Z"/><path class="pa41-3" d="M10,30h1V29h1V25h1V24H11v1H10v1H8v1H9v6h1V30Z"/><path class="pa41-2" d="M19,26h2V25H19Z"/><rect class="pa41-2" x="18" y="24" width="1" height="1"/><path class="pa41-2" d="M19,23V22H18v1Z"/><rect class="pa41-3" x="17" y="22" width="1" height="1"/><path class="pa41-2" d="M17,23V22H16v2h2V23Z"/><path class="pa41-2" d="M13,24v1h3V24H13Z"/><path class="pa41-4" d="M15,23H13v1h3V23Z"/><rect class="pa41-3" x="11" y="22" width="1" height="1"/><rect class="pa41-2" x="10" y="24" width="1" height="1"/><path class="pa41-2" d="M11,22H10v1h1Z"/><path class="pa41-2" d="M10,25H8v1h2Z"/><path class="pa41-2" d="M9,27H8v6H9V27Z"/><path class="pa41-3" d="M8,27H7v6H8V27Z"/><rect class="pa41-2" x="7" y="26" width="1" height="1"/><path class="pa41-2" d="M7,27H6v6H7V27Z"/><path class="pa41-3" d="M16,32H12v1h5V32Z"/><path class="pa41-3" d="M13,25v3h3V25H13Z"/><rect class="pa41-3" x="16" y="30" width="1" height="1"/><rect class="pa41-3" x="12" y="30" width="1" height="1"/><path class="pa41-5" d="M19,30H18V29H17v2H16V28H13v3H12V29H11v1H10v3h2V32h5v1h2V30Z"/><path class="pa41-2" d="M13,25H12v5h1V25Z"/><path class="pa41-2" d="M16,28v2h1V25H16v3Z"/><rect class="pa41-2" x="20" y="15" width="1" height="1"/><path class="pa41-2" d="M19,13v2h1V11H19v2Z"/><rect class="pa41-4" x="15" y="20" width="1" height="1"/><path class="pa41-4" d="M10,17v1h1v1h1V18h2v1h1V18h2v1h1V18h1V16h1V15H16V13h1V12h2V11H18V10H17v1H16V10H15v1H14V10H13v1H12V10H11v1H10v2h1V12h2v1H11v1h2v1H9v1h1Zm4-1h1v1H14Z"/><rect class="pa41-4" x="13" y="20" width="1" height="1"/><path class="pa41-4" d="M18,14h1V13H17v1Z"/><path class="pa41-2" d="M13,22H12v1H11v1h2V22Z"/><rect class="pa41-2" x="11" y="9" width="1" height="1"/><rect class="pa41-2" x="17" y="9" width="1" height="1"/><rect class="pa41-2" x="13" y="9" width="1" height="1"/><rect class="pa41-2" x="15" y="9" width="1" height="1"/><rect class="pa41-2" x="10" y="10" width="1" height="1"/><path class="pa41-2" d="M10,14V11H9v4h1Z"/><rect class="pa41-2" x="8" y="15" width="1" height="1"/><rect class="pa41-2" x="14" y="16" width="1" height="1"/><path class="pa41-6" d="M13,15V14H12v1Z"/><path class="pa41-6" d="M10,15h1V14H10Z"/><path class="pa41-6" d="M18,14v1h1V14Z"/><path class="pa41-6" d="M16,14v1h1V14Z"/><path class="pa41-2" d="M12,15V14H11v1Z"/><path class="pa41-2" d="M17,14v1h1V14Z"/><path class="pa41-7" d="M11,14V13H10v1Z"/><rect class="pa41-7" x="11" y="12" width="2" height="1"/><path class="pa41-7" d="M17,13H16v1h1Z"/><path class="pa41-7" d="M19,12H17v1h2Z"/><path class="pa41-8" d="M10,21h1v1h2v1h3V22h2V21h1V20h1V16H19v2H18v1H17V18H15v1h1v2H15V20H14v1H13V19H11V18H10V16H9v4h1Z"/><path class="pa41-8" d="M14,18H13v1h1Z"/><path class="pa41-2" d="M13,19v1h3V19H13Z"/><path class="pa41-2" d="M12,18v1h1V18Z"/><path class="pa41-6" d="M10,23V22H9V20H8V19H3v1H7v1H5v1H8v1H6v1h4Z"/><path class="pa41-9" d="M8,22H5v1H8Z"/><path class="pa41-9" d="M7,20H4v1H7Z"/><path class="pa41-9" d="M22,20v1h3V20H22Z"/><path class="pa41-9" d="M21,22v1h3V22H21Z"/><path class="pa41-6" d="M19,22v2h4V23H21V22h3V21H22V20h4V19H21v1H20v2Z"/><path class="pa41-9" d="M10,24H8v1h2Z"/><path class="pa41-9" d="M19,25h2V24H19Z"/><path class="pa41-10" d="M18,11h1V9H18v2Z"/><path class="pa41-10" d="M12,10v1h1V9h1v2h1V9h1v2h1V9h1V8H11V9h1Z"/><rect class="pa41-10" x="10" y="9" width="1" height="1"/><path class="pa41-10" d="M10,10H9v1h1Z"/></svg>