<svg xmlns="http://www.w3.org/2000/svg" viewBox="0 0 29 33"><defs><style>polygon,rect,path{shape-rendering:crispedges;}.gb215-1{fill:#b4bd09;}.gb215-2{fill:#000000;}.gb215-3{fill:#8c7850;}.gb215-4{fill:#0079bc;}.gb215-5{fill:#e8b795;}.gb215-6{fill:#90a2a3;}.gb215-7{fill:#4922aa;}.gb215-8{fill:#fad000;}.gb215-9{fill:#ffffff;}.gb215-10{fill:#ff5e17;}</style></defs><path class="gb215-1" d="M0,33H6V27H7V26H8V25H9V24h1V23h1V22h1V21H11V20H9V19H8V11H9V10h1V9h1V8h7V9h1v1h1v1h1v8H20v1H18v1H17v1h1v1h1v1h1v1h1v1h1v1h1v6h6V0H0Z"/><path class="gb215-2" d="M23,27H22v6h1V27Z"/><path class="gb215-3" d="M22,27H21v6h1V27Z"/><path class="gb215-2" d="M21,27h1V26H21V25H20v2H17v1h2v1h1v4h1V27Z"/><path class="gb215-3" d="M20,29H19v1H18v1H17v1H16v1h4V29Z"/><path class="gb215-3" d="M18,26H17v1h2V26h1V25H18Z"/><path class="gb215-3" d="M16,28v3h1V30h1V29h1V28H17V27H16Z"/><rect class="gb215-2" x="18" y="29" width="1" height="1"/><path class="gb215-4" d="M15,28H14v5h1V28Z"/><path class="gb215-5" d="M16,25V23H13v2h3Z"/><path class="gb215-3" d="M12,32V31H11V30H10V29H9v4h4V32Z"/><rect class="gb215-2" x="11" y="30" width="1" height="1"/><path class="gb215-3" d="M10,26v1h2V26H11V25H9v1Z"/><path class="gb215-3" d="M12,28H10v1h1v1h1v1h1V27H12Z"/><path class="gb215-2" d="M9,29h1V28h2V27H9V25H8v1H7v1H8v6H9V29Z"/><path class="gb215-3" d="M8,27H7v6H8V27Z"/><path class="gb215-2" d="M7,27H6v6H7V27Z"/><rect class="gb215-2" x="10" y="29" width="1" height="1"/><rect class="gb215-2" x="17" y="30" width="1" height="1"/><path class="gb215-2" d="M17,32V31H16V27H13v4H12v1h1v1h1V28h1v5h1V32Z"/><path class="gb215-6" d="M9,26v1h1V26Z"/><path class="gb215-6" d="M19,27h1V26H19Z"/><path class="gb215-5" d="M13,22h3V21h1V20h1V19h1V16H18v1H16V16H15v1H14V16H13v1H11V16H10v3h1v1h1v1h1Zm0-3h3V18h1v1H16v1H13Z"/><rect class="gb215-5" x="9" y="15" width="1" height="1"/><rect class="gb215-5" x="11" y="13" width="1" height="1"/><rect class="gb215-5" x="19" y="15" width="1" height="1"/><rect class="gb215-5" x="14" y="15" width="1" height="1"/><path class="gb215-5" d="M13,14h5V13H16V12h1V11H15V10H14v1H13v1H12v1h1Z"/><path class="gb215-2" d="M20,16H19v3h1V16Z"/><path class="gb215-2" d="M18,19v1h1V19Z"/><rect class="gb215-2" x="17" y="20" width="1" height="1"/><rect class="gb215-2" x="11" y="20" width="1" height="1"/><path class="gb215-2" d="M10,19v1h1V19Z"/><path class="gb215-2" d="M10,18V16H9v3h1Z"/><rect class="gb215-2" x="14" y="16" width="1" height="1"/><rect class="gb215-7" x="18" y="13" width="1" height="1"/><path class="gb215-7" d="M16,13h1V12H16Z"/><rect class="gb215-7" x="12" y="13" width="1" height="1"/><path class="gb215-2" d="M18,25h2V24H19V23H18v2Z"/><rect class="gb215-2" x="17" y="25" width="1" height="1"/><path class="gb215-8" d="M18,24H17v1h1Z"/><path class="gb215-9" d="M17,24h1V23H17Z"/><rect class="gb215-2" x="16" y="26" width="1" height="1"/><rect class="gb215-9" x="16" y="25" width="1" height="1"/><path class="gb215-8" d="M15,26v1h1V26Z"/><path class="gb215-9" d="M14,26v1h1V26Z"/><path class="gb215-8" d="M13,26v1h1V26Z"/><path class="gb215-2" d="M14,26h2V25H13v1Z"/><rect class="gb215-2" x="12" y="26" width="1" height="1"/><rect class="gb215-9" x="12" y="25" width="1" height="1"/><path class="gb215-2" d="M12,24v1h1V23h3v2h1V23h1V22H17V21H16v1H13V21H12v1H11v1h1Z"/><rect class="gb215-2" x="11" y="25" width="1" height="1"/><rect class="gb215-8" x="11" y="24" width="1" height="1"/><rect class="gb215-9" x="11" y="23" width="1" height="1"/><path class="gb215-2" d="M11,24V23H10v1H9v1h2Z"/><rect class="gb215-2" x="13" y="19" width="3" height="1"/><rect class="gb215-2" x="16" y="18" width="1" height="1"/><path class="gb215-10" d="M9,16V14h2V13h1V12h1V11h1V10h1v1h2v2h2v1h1v5h1V11H20V10H19V9H18V8H11V9H10v1H9v1H8v8H9V16Z"/><path class="gb215-10" d="M9,19v1h1V19Z"/><path class="gb215-10" d="M19,20h1V19H19Z"/><path class="gb215-2" d="M20,15V14H9v1h1v1h1v1h2V16h1V15h1v1h1v1h2V16h1V15Z"/></svg>