<svg xmlns="http://www.w3.org/2000/svg" viewBox="0 0 29 33"><defs><style>polygon,rect,path{shape-rendering:crispedges;}.ka231-1{fill:#d4a122;}.ka231-2{fill:#000000;}.ka231-3{fill:#d2d8b8;}.ka231-4{fill:#8e9350;}.ka231-5{fill:#e8b795;}.ka231-6{fill:#8e4717;}.ka231-7{fill:#ffffff;}.ka231-8{fill:#ccc;}</style></defs><rect class="ka231-1" x="9" y="16" width="1"/><polygon class="ka231-1" points="15 17 15 17 15 16 14 16 14 16 15 16 15 17"/><rect class="ka231-1" x="19" y="16" width="1"/><path class="ka231-1" d="M0,33H6V27H7V26H8V24H6V23H5V21H4V20H3V19H8v1H9v2h1v2h2V21H11V20H10V19H9V16H8V15H9V11h1V10h1V9h7v1h1v1h1v4h1v1H20v3H19v1H18v1H17v3h2V22h1V20h1V19h5v1H25v1H24v2H23v1H21v2h1v1h1v6h6V0H0Z"/><rect class="ka231-1" x="13" y="21" height="1"/><path class="ka231-2" d="M23,27H22v6h1V27Z"/><rect class="ka231-2" x="21" y="26" width="1" height="1"/><path class="ka231-3" d="M21,28h1V27H21Z"/><path class="ka231-3" d="M21,31h1V30H21Z"/><path class="ka231-2" d="M21,30V27H20v6h1V30Z"/><path class="ka231-2" d="M19,25v1h2V25H19Z"/><path class="ka231-3" d="M9,27v1H20V27H9Z"/><path class="ka231-3" d="M9,31H20V30H9Z"/><path class="ka231-3" d="M17,25V24H12v1Z"/><path class="ka231-2" d="M18,25h1V24H17v1Z"/><path class="ka231-2" d="M13,23h3v1h1V21H16v1H13V21H12v3h1Z"/><path class="ka231-2" d="M11,25h1V24H10v1Z"/><path class="ka231-2" d="M10,25H8v1h2Z"/><path class="ka231-2" d="M9,30V27H8v6H9V30Z"/><rect class="ka231-2" x="7" y="26" width="1" height="1"/><path class="ka231-3" d="M7,31H8V30H7Z"/><path class="ka231-3" d="M8,28V27H7v1Z"/><path class="ka231-2" d="M7,30V27H6v6H7V30Z"/><path class="ka231-4" d="M9,31v2H20V31Z"/><path class="ka231-4" d="M9,29v1H20V28H9Z"/><path class="ka231-4" d="M9,27H21V26H19V25H10v1H8v1Z"/><path class="ka231-4" d="M15,23H13v1h3V23Z"/><path class="ka231-4" d="M7,29v1H8V28H7Z"/><path class="ka231-4" d="M7,31v2H8V31Z"/><path class="ka231-4" d="M21,31v2h1V31Z"/><path class="ka231-4" d="M21,29v1h1V28H21Z"/><polygon class="ka231-2" points="20 16 20 16 21 16 21 15 20 15 20 16 20 16"/><rect class="ka231-5" x="18" y="20"/><rect class="ka231-5" x="10" y="19"/><rect class="ka231-5" x="19" y="19"/><rect class="ka231-5" x="17" y="21"/><path class="ka231-5" d="M10,14h1V13H10V12h2v1h4V12h2v1h1v1h0V11H18V10H11v1H10v3Z"/><rect class="ka231-5" x="18" y="10"/><rect class="ka231-5" x="11" y="10"/><rect class="ka231-5" x="11" y="20"/><path class="ka231-5" d="M9,16h1v3h1v1h1v1h1v1h3V21h1V20h1V19h1V16h1V15H18v1H16V15H15V14H14v1H13v1H11V15H9Zm5,0h1v1H14Zm-1,3h3V18h1v1H16v1H13Z"/><rect class="ka231-5" x="12" y="21"/><path class="ka231-2" d="M19,16v3h1V16Z"/><polygon class="ka231-2" points="18 11 19 11 19 11 19 10 18 10 18 10 18 11"/><polygon class="ka231-2" points="18 19 18 20 18 20 19 20 19 19 19 19 18 19"/><polygon class="ka231-2" points="17 20 17 21 17 21 18 21 18 20 18 20 17 20"/><path class="ka231-2" d="M12,10h6V9H11v1h1Z"/><polygon class="ka231-2" points="12 20 11 20 11 20 11 21 12 21 12 21 12 20"/><polygon class="ka231-2" points="11 11 11 10 11 10 10 10 10 11 10 11 11 11"/><polygon class="ka231-2" points="11 19 10 19 10 19 10 20 11 20 11 20 11 19"/><path class="ka231-2" d="M10,18V16H9v3h1Z"/><polygon class="ka231-2" points="9 15 9 15 8 15 8 16 9 16 9 16 9 15"/><polygon class="ka231-2" points="15 17 15 16 14 16 14 16 14 17 15 17 15 17"/><rect class="ka231-6" x="18" y="13" width="1" height="1"/><path class="ka231-6" d="M16,12v1h2V12Z"/><polygon class="ka231-6" points="10 12 10 13 11 13 11 13 12 13 12 12 10 12"/><rect class="ka231-2" x="13" y="19" width="3" height="1"/><rect class="ka231-2" x="16" y="18" width="1" height="1"/><path class="ka231-7" d="M10,22H9V20H8V19H3v1H7v1H5v1H8v1H6v1h4Z"/><path class="ka231-8" d="M8,22H5v1H8Z"/><path class="ka231-8" d="M7,20H4v1H7Z"/><path class="ka231-8" d="M22,20v1h3V20H22Z"/><path class="ka231-8" d="M21,22v1h3V22H21Z"/><path class="ka231-7" d="M23,24V23H21V22h3V21H22V20h4V19H21v1H20v2H19v2h4Z"/><path class="ka231-8" d="M10,24H8v1h2Z"/><path class="ka231-8" d="M20,25h1V24H19v1Z"/><path class="ka231-2" d="M11,16h2V15h1V14h1v1h1v1h2V15h2V11H19v3H18V13H11v1H10V11H9v4h2Z"/></svg>