<svg xmlns="http://www.w3.org/2000/svg" viewBox="0 0 29 33"><defs><style>polygon,rect,path{shape-rendering:crispedges;}.ia224-1{fill:#6b4f99;}.ia224-2{fill:#000000;}.ia224-3{fill:#a89969;}.ia224-4{fill:#a56e49;}.ia224-5{fill:#685432;}.ia224-6{fill:#7f5018;}.ia224-7{fill:#ffffff;}.ia224-8{fill:#ccc;}.ia224-9{fill:#a7af69;}.ia224-10{fill:#f9e100;}</style></defs><path class="ia224-1" d="M0,33H6V27H7V26H8V24H6V23H5V21H4V20H3V19H8V12H9V10h1V9h1V8h7V9h1v1h1v2h1v7h5v1H25v1H24v2H23v1H21v2h1v1h1v6h6V0H0Z"/><path class="ia224-1" d="M12,24V22H11V21H10v3h2Z"/><path class="ia224-1" d="M17,22v2h2V21H18v1Z"/><path class="ia224-2" d="M23,27H22v6h1V27Z"/><rect class="ia224-2" x="21" y="26" width="1" height="1"/><path class="ia224-3" d="M22,27H21v6h1V27Z"/><path class="ia224-2" d="M21,27H20v6h1V27Z"/><path class="ia224-2" d="M19,26h2V25H19Z"/><rect class="ia224-3" x="10" y="29" width="1" height="1"/><path class="ia224-3" d="M19,32V31H18v1H17V29h1V28h1v1h1V27h1V26H19V25H17v1H16v1H13V26H12V25H10v1H9v3h1V28h1v1h1v3H11V31H10v1H9v1H20V32Zm-3-2v1H15v1H13V28h2v1h1Z"/><path class="ia224-3" d="M15,29H14v2h1V29Z"/><rect class="ia224-3" x="18" y="29" width="1" height="1"/><path class="ia224-2" d="M18,24H17v1h2V24Z"/><rect class="ia224-2" x="16" y="25" width="1" height="1"/><path class="ia224-2" d="M13,26v1h3V26H13Z"/><path class="ia224-4" d="M16,24V23H13v1H12v1h1v1h3V25h1V24Z"/><rect class="ia224-2" x="12" y="25" width="1" height="1"/><path class="ia224-2" d="M11,24H10v1h2V24Z"/><path class="ia224-2" d="M9,31V26h1V25H8v1H7v1H8v6H9V31Z"/><path class="ia224-3" d="M8,27H7v6H8V27Z"/><path class="ia224-2" d="M7,27H6v6H7V27Z"/><path class="ia224-5" d="M19,30H18V29H17v3h1V31h1v1h1V29H19Z"/><rect class="ia224-5" x="18" y="28" width="1" height="1"/><path class="ia224-5" d="M15,30v1h1V29H15Z"/><path class="ia224-5" d="M14,30V29h1V28H13v4h2V31H14Z"/><path class="ia224-5" d="M9,32h1V31h1v1h1V29H11v1H10V29H9v3Z"/><rect class="ia224-5" x="10" y="28" width="1" height="1"/><path class="ia224-2" d="M20,16h1V15H20Z"/><rect class="ia224-4" x="9" y="15" width="1" height="1"/><path class="ia224-4" d="M13,13h1v1h1V13h2V11H16V10H13v1H12v1h1Z"/><rect class="ia224-4" x="19" y="15" width="1" height="1"/><path class="ia224-4" d="M12,21h1v1h3V21h1V20h1V19h1V16H16V15H13v1H10v3h1v1h1Zm2-5h1v1H14Zm-2,2h5v1H16v1H13V19H12Z"/><path class="ia224-2" d="M19,17v2h1V16H19Z"/><rect class="ia224-2" x="18" y="19" width="1" height="1"/><rect class="ia224-2" x="17" y="20" width="1" height="1"/><path class="ia224-2" d="M17,21H16v1H13V21H12v3h1V23h3v1h1V21Z"/><rect class="ia224-2" x="11" y="20" width="1" height="1"/><rect class="ia224-2" x="10" y="19" width="1" height="1"/><path class="ia224-2" d="M10,16H9v3h1V16Z"/><path class="ia224-2" d="M9,15H8v1H9Z"/><rect class="ia224-2" x="14" y="16" width="1" height="1"/><path class="ia224-6" d="M13,12H11v1h2Z"/><path class="ia224-6" d="M18,13V12H17v1Z"/><path class="ia224-2" d="M13,18H12v1h1Z"/><path class="ia224-2" d="M17,19V18H16v1Z"/><path class="ia224-2" d="M13,19v1h3V19H15V18H14v1Z"/><path class="ia224-7" d="M14,19V18H13v1Z"/><path class="ia224-7" d="M16,19V18H15v1Z"/><path class="ia224-7" d="M10,22H9V21H8V20H7v1H5v1H8v1H6v1h4Z"/><path class="ia224-7" d="M7,20V19H3v1H7Z"/><path class="ia224-8" d="M8,22H5v1H8Z"/><path class="ia224-8" d="M7,20H4v1H7Z"/><path class="ia224-8" d="M22,20v1h3V20H22Z"/><path class="ia224-8" d="M21,22v1h3V22H21Z"/><path class="ia224-7" d="M23,20h3V19H22v1Z"/><path class="ia224-7" d="M22,20H21v1H20v1H19v2h4V23H21V22h3V21H22Z"/><path class="ia224-8" d="M10,24H8v1h2Z"/><path class="ia224-8" d="M19,25h2V24H19Z"/><path class="ia224-9" d="M20,17v2H19v1H18v1h1v1h1V21h1V20h1V19H21V16H20Z"/><path class="ia224-9" d="M9,14h1V13h1V12h1V11h1V10h3v1h1v1h1v1h1v1h1v1h1V12H20V10H19V9H18V8H11V9H10v1H9v2H8v3H9Z"/><path class="ia224-9" d="M8,20v1H9v1h1V21h1V20H10V19H9V16H8v3H7v1Z"/><path class="ia224-9" d="M12,22V21H11v1Z"/><rect class="ia224-9" x="17" y="21" width="1" height="1"/><path class="ia224-10" d="M10,16h3V15h1V14H10v2Z"/><path class="ia224-10" d="M15,14v1h1v1h3V14H15Z"/><path class="ia224-2" d="M16,13H15v1h4V13H16Z"/><path class="ia224-2" d="M14,14V13H10v1h4Z"/><path class="ia224-2" d="M20,15V14H19v1Z"/><path class="ia224-2" d="M10,14H9v1h1Z"/><path class="ia224-2" d="M14,14v1h1V14Z"/></svg>