<svg xmlns="http://www.w3.org/2000/svg" viewBox="0 0 29 33"><defs><style>polygon,rect,path{shape-rendering:crispedges;}.qa36-1{fill:#6b4f99;}.qa36-2{fill:#000000;}.qa36-3{fill:#ff791f;}.qa36-4{fill:#e8b795;}.qa36-5{fill:#ff791f;}.qa36-6{fill:#00686d;}.qa36-7{fill:#00686d;}.qa36-8{fill:#ff1d99;}.qa36-9{fill:#ffffff;}.qa36-10{fill:#eaeaea;}</style></defs><path class="qa36-1" d="M0,33H6V26H5V20H6V19H9V17H8V16H8V15H7V14H8V12H7V10H8v1H9V9H8V8h2V9h1V8h1V7h1V8h1V7h2V8h1V7h1V8h1V7h1V8H19V9H18v1h2V9h1v2H20v1h2v1H20v1h2v1H21v2H20v2H19v1H18v2h1v1H18v1h1v1h2v1h1v1h1v6h6V0H0Z"/><polygon class="qa36-1" points="15 17 14 17 14 17 15 17 15 16 15 16 15 17"/><path class="qa36-1" d="M10,16v2h0V16Z"/><rect class="qa36-1" x="9" y="24" width="1" height="1"/><path class="qa36-2" d="M23,27H22v6h1V27Z"/><path class="qa36-3" d="M22,27H21v6h1V27Z"/><rect class="qa36-2" x="21" y="26" width="1" height="1"/><path class="qa36-2" d="M21,27H20v6h1V27Z"/><path class="qa36-3" d="M20,27h1V26H19V25H18V24H16v1h1v3h2v1H17v2h1V30h1v2H16V25H13v3h2v4H12V25h1V24H11v1H10v1H9v7H20V27Zm-9,2v3H10V28h1Z"/><path class="qa36-2" d="M20,26h1V25H19v1Z"/><rect class="qa36-2" x="18" y="24" width="1" height="1"/><rect class="qa36-2" x="18" y="22" width="1" height="1"/><rect class="qa36-3" x="17" y="22" width="1" height="1"/><path class="qa36-2" d="M17,21v1h1V21Z"/><path class="qa36-2" d="M13,24v1h3V24H13Z"/><path class="qa36-4" d="M15,23H13v1h3V23Z"/><rect class="qa36-3" x="11" y="22" width="1" height="1"/><rect class="qa36-2" x="11" y="21" width="1" height="1"/><rect class="qa36-2" x="10" y="24" width="1" height="1"/><path class="qa36-2" d="M9,26H8v7H9V26Z"/><path class="qa36-3" d="M8,27H7v6H8V27Z"/><path class="qa36-4" d="M7,27H8V26H9V25H6v1H7Z"/><path class="qa36-2" d="M7,27V26H6v7H7V27Z"/><path class="qa36-3" d="M14,31V29H13v2Z"/><path class="qa36-5" d="M14,29v2H13V30H12v2h3V28H13v1Z"/><path class="qa36-5" d="M10,29v3h1V28H10Z"/><path class="qa36-5" d="M18,29h1V28H17v1Z"/><path class="qa36-5" d="M16,31v1h3V30H18v1H17V30H16Z"/><path class="qa36-2" d="M12,26v4h1V25H12Z"/><path class="qa36-2" d="M16,30h1V25H16v5Z"/><path class="qa36-4" d="M16,12H14v1h2Z"/><rect class="qa36-4" x="16" y="19" width="1" height="1"/><rect class="qa36-4" x="18" y="13" width="1"/><polygon class="qa36-4" points="12 13 13 13 13 12 12 12 12 11 11 11 11 12 12 12 12 13"/><rect class="qa36-4" x="15" y="10" width="1" height="1"/><path class="qa36-4" d="M20,15H18v1H16V15H15V14H14v1H13v1H11V15H9v1h1v2h1v1h1v1h1V19h3V18h1v1h1V18h1V16h1V15Zm-5,2H14V16h1Z"/><path class="qa36-4" d="M13,21h3V20H13Z"/><path class="qa36-2" d="M17,22H16v2h2V23H17Z"/><path class="qa36-2" d="M13,22H12v1H11v1h2V22Z"/><rect class="qa36-2" x="15" y="10" width="1"/><rect class="qa36-2" x="8" y="15" height="1"/><polygon class="qa36-2" points="15 16 15 16 14 16 14 17 14 17 15 17 15 16"/><rect class="qa36-6" x="18" y="13" width="1" height="1"/><rect class="qa36-6" x="16" y="12" width="1" height="1"/><rect class="qa36-6" x="11" y="12" width="1" height="1"/><rect class="qa36-6" x="10" y="13"/><path class="qa36-7" d="M10,20h1v1h1v1h1v1h3V22h1V21h1V20h1V19h1V16H19v2H18v1H17v1H16v1H13V20H12V19H11V18H10V16H9v1H9v2h1Z"/><rect class="qa36-2" x="13" y="19" width="3" height="1"/><rect class="qa36-2" x="16" y="18" width="1" height="1"/><path class="qa36-8" d="M20,15v2h1V15h1V14H20v1Z"/><path class="qa36-8" d="M9,16H9V13h1v1h1V11h1v1h1v1h1V12h3v1h2v1h1V13h2V12H20V11h1V9H20v1H18V9h1V8h1V7H19V8H18V7H17V8H16V7H14V8H13V7H12V8H11V9H10V8H8V9H9v2H8V10H7v2H8v2H7v1H8v2H9Zm6-6h1v1H15Z"/><path class="qa36-2" d="M18,14V13H11v1H10V13H9v2h2v1h2V15h1V14h1v1h1v1h2V15h2V14H18Z"/><path class="qa36-2" d="M5,25v1H6V25Z"/><rect class="qa36-2" x="9" y="25" width="1" height="1"/><path class="qa36-2" d="M6,21H5v1H6Z"/><path class="qa36-2" d="M9,21H7v1H9Z"/><path class="qa36-9" d="M6,22H5v1H6Z"/><path class="qa36-9" d="M7,25H8V24H7V23H6v1H5v1H7Z"/><path class="qa36-10" d="M8,24v1H9V24Z"/><path class="qa36-10" d="M9,20v1h1v2H9v1h2V20H10V19H6v1H9Z"/><rect class="qa36-2" x="6" y="22" width="1" height="1"/><rect class="qa36-2" x="7" y="23" width="1" height="1"/><path class="qa36-2" d="M6,23H5v1H6Z"/><path class="qa36-9" d="M6,22H7V21H9V20H5v1H6Z"/><path class="qa36-9" d="M9,23h1V21H9v1H7v1H8v1H9Z"/></svg>