<svg xmlns="http://www.w3.org/2000/svg" viewBox="0 0 29 33"><defs><style>polygon,rect,path{shape-rendering:crispedges;}.da108-1{fill:#d4a122;}.da108-2{fill:#000000;}.da108-3{fill:#333333;}.da108-4{fill:#a56e49;}.da108-5{fill:#333333;}.da108-6{fill:#ffffff;}.da108-7{fill:#99004d;}.da108-8{fill:#fad000;}.da108-9{fill:#99004d;}.da108-10{fill:#6e12ff;}</style></defs><path class="da108-1" d="M0,33H6V27H7V26H8V25h2V23h1V22h1V21H11V20H10V19H9V16H8V15H9V11h1V10h1V9h2V7h1V6h2V5h2V6H17V7h1V9h1v2h1v4h1v1H20v3H19v1H18v1H17v1h1v1h1v2h2v1h1v1h1v6h6V0H0Z"/><path class="da108-2" d="M23,27H22v3H21V27H20v6h1V31h1v2h1V27Z"/><rect class="da108-2" x="21" y="26" width="1" height="1"/><path class="da108-3" d="M21,28v2h1V27H21Z"/><path class="da108-4" d="M21,31v2h1V31Z"/><path class="da108-2" d="M20,26h1V25H19v1Z"/><rect class="da108-3" x="14" y="30" width="1" height="1"/><rect class="da108-3" x="18" y="29" width="1" height="1"/><rect class="da108-3" x="10" y="29" width="1" height="1"/><path class="da108-3" d="M19,32V31H18v1H17V29h1V28h1v1h1V27h1V26H19V25H18v1H17v1H16v4H15v1H13V27H12V26H11V25H10v1H8v1H9v2h1V28h1v1h1v3H11V31H10v1H9v1H20V32Z"/><path class="da108-4" d="M14,24h1v1h1V23H13v2h1Z"/><path class="da108-2" d="M10,25H8v1h2Z"/><path class="da108-2" d="M9,31V27H8v3H7V27H6v6H7V31H8v2H9V31Z"/><rect class="da108-2" x="7" y="26" width="1" height="1"/><path class="da108-3" d="M7,30H8V27H7v3Z"/><path class="da108-4" d="M7,31v2H8V31Z"/><path class="da108-5" d="M19,30H18V29H17v3h1V31h1v1h1V29H19Z"/><rect class="da108-5" x="18" y="28" width="1" height="1"/><path class="da108-5" d="M15,30v1h1V29H15Z"/><path class="da108-5" d="M14,30V29H13v3h2V31H14Z"/><path class="da108-5" d="M9,32h1V31h1v1h1V29H11v1H10V29H9v3Z"/><rect class="da108-5" x="10" y="28" width="1" height="1"/><rect class="da108-2" x="20" y="15" width="1" height="1"/><path class="da108-2" d="M19,13v2h1V11H19v2Z"/><rect class="da108-4" x="15" y="20" width="1" height="1"/><path class="da108-4" d="M12,19V18h5v1h2V16h1V15H16V14h3V13H16V12h3V11H18V10H15v1H13V10H11v1H10v1h3v1H10v1h3v1H9v1h1v3h2Zm2-3h1v1H14Z"/><rect class="da108-4" x="13" y="20" width="1" height="1"/><rect class="da108-4" x="16" y="19" width="1" height="1"/><rect class="da108-4" x="12" y="19" width="1" height="1"/><path class="da108-2" d="M19,17v2h1V16H19Z"/><path class="da108-2" d="M18,11h1V10H18Z"/><path class="da108-2" d="M18,20h1V19H18Z"/><rect class="da108-2" x="17" y="20" width="1" height="1"/><path class="da108-2" d="M16,10h2V9H16Z"/><path class="da108-2" d="M13,9H11v1h2Z"/><rect class="da108-2" x="11" y="20" width="1" height="1"/><rect class="da108-2" x="10" y="10" width="1" height="1"/><path class="da108-2" d="M10,19v1h1V19Z"/><path class="da108-2" d="M10,14V11H9v4h1Z"/><path class="da108-2" d="M10,16H9v3h1V16Z"/><rect class="da108-2" x="8" y="15" width="1" height="1"/><rect class="da108-2" x="14" y="16" width="1" height="1"/><path class="da108-6" d="M13,15V14H12v1Z"/><path class="da108-6" d="M11,15V14H10v1Z"/><path class="da108-6" d="M18,14v1h1V14Z"/><path class="da108-6" d="M16,14v1h1V14Z"/><path class="da108-2" d="M12,15V14H11v1Z"/><path class="da108-2" d="M17,14v1h1V14Z"/><path class="da108-7" d="M13,13V12H10v1Z"/><path class="da108-7" d="M16,12v1h3V12Z"/><rect class="da108-2" x="14" y="29" width="1" height="1"/><rect class="da108-2" x="12" y="26" width="1" height="1"/><path class="da108-2" d="M15,28v1h1V27H15Z"/><rect class="da108-2" x="16" y="26" width="1" height="1"/><path class="da108-2" d="M14,28V27H13v2h1Z"/><rect class="da108-2" x="17" y="25" width="1" height="1"/><rect class="da108-2" x="11" y="25" width="1" height="1"/><rect class="da108-2" x="14" y="24" width="1" height="1"/><rect class="da108-2" x="13" y="25" width="1" height="1"/><rect class="da108-2" x="15" y="25" width="1" height="1"/><path class="da108-2" d="M12,24v1h1V23h3v2h1V23h1V22H17V21H16v1H13V21H12v1H11v1h1Z"/><rect class="da108-8" x="16" y="25" width="1" height="1"/><polygon class="da108-8" points="15 26 15 25 14 25 14 26 13 26 13 27 14 27 14 28 14 29 15 29 15 28 15 27 16 27 16 26 15 26"/><rect class="da108-8" x="12" y="25" width="1" height="1"/><path class="da108-8" d="M11,25h1V23H11v2Z"/><path class="da108-8" d="M17,24v1h1V23H17Z"/><path class="da108-2" d="M19,25V23H18v2Z"/><path class="da108-2" d="M11,24V23H10v2h1Z"/><path class="da108-9" d="M17,19v1h1V19Z"/><rect class="da108-9" x="16" y="20" width="1" height="1"/><path class="da108-9" d="M15,20H14v1H13v1h3V21H15Z"/><path class="da108-9" d="M14,19h3V18H13v1Z"/><rect class="da108-9" x="12" y="20" width="1" height="1"/><path class="da108-9" d="M12,19H11v1h1Z"/><path class="da108-2" d="M15,20h1V19H13v1h2Z"/><path class="da108-2" d="M13,18H12v1h1Z"/><path class="da108-10" d="M13,11h2V10h1V9h2V7H17V6h1V5H16V6H14V7H13v4Z"/><path class="da108-10" d="M19,10V9H18v1Z"/><rect class="da108-10" x="18" y="9" width="1" height="1"></rect></svg>