<svg xmlns="http://www.w3.org/2000/svg" viewBox="0 0 29 33"><defs><style>polygon,rect,path{shape-rendering:crispedges;}.la70-1{fill:#d4a122;}.la70-2{fill:#000000;}.la70-3{fill:#014731;}.la70-4{fill:#c18d59;}.la70-5{fill:#ffffff;}.la70-6{fill:#004a77;}.la70-7{fill:#db5800;}</style></defs><path class="la70-1" d="M0,33H6V27H7V26H8V25h2V24H9V16H8V15H9V10h1V9h1V8h7V9h1v1h1v5h1v1H20v6H19v3h2v1h1v1h1v6h6V0H0Z"/><path class="la70-2" d="M23,27H22v6h1V27Z"/><rect class="la70-2" x="21" y="26" width="1" height="1"/><path class="la70-3" d="M22,27H21v6h1V27Z"/><path class="la70-2" d="M21,27H20v6h1V27Z"/><path class="la70-2" d="M20,26h1V25H19v1Z"/><path class="la70-3" d="M20,27h1V26H19V25H18v1H17V24H16V23H13v1H12v1H11v2H10V26H8v1H9v6H20V27Z"/><path class="la70-2" d="M10,25H8v1h2Z"/><path class="la70-2" d="M9,27H8v6H9V27Z"/><rect class="la70-2" x="7" y="26" width="1" height="1"/><path class="la70-3" d="M8,27H7v6H8V27Z"/><path class="la70-2" d="M7,27H6v6H7V27Z"/><rect class="la70-2" x="20" y="15" width="1" height="1"/><path class="la70-4" d="M10,17v2h1v1h1v1h1v1h3V21h1V20h1V19h1V15H16V14h2V13H16V12h1V11H15V10H12v1H11v1h1v1h1v2H9v1h1Zm4-1h1v1H14Zm-1,3h3V18h1v1H16v1H13Z"/><path class="la70-4" d="M10,13v1h2V13H10Z"/><path class="la70-2" d="M19,17v2h1V16H19Z"/><rect class="la70-2" x="18" y="19" width="1" height="1"/><rect class="la70-2" x="17" y="20" width="1" height="1"/><path class="la70-2" d="M17,21H16v1H13V21H12v3h1V23h3v1h1V21Z"/><rect class="la70-2" x="11" y="20" width="1" height="1"/><rect class="la70-2" x="10" y="19" width="1" height="1"/><path class="la70-2" d="M10,18V16H9v3h1Z"/><rect class="la70-2" x="8" y="15" width="1" height="1"/><rect class="la70-2" x="14" y="16" width="1" height="1"/><path class="la70-5" d="M12,15h1V14H12Z"/><path class="la70-5" d="M10,14v1h1V14Z"/><path class="la70-5" d="M18,14v1h1V14Z"/><path class="la70-5" d="M16,14v1h1V14Z"/><path class="la70-2" d="M11,14v1h1V14Z"/><path class="la70-2" d="M17,14v1h1V14Z"/><polygon class="la70-6" points="17 12 16 12 16 13 18 13 18 12 17 12"/><path class="la70-6" d="M13,14V13H12v1Z"/><path class="la70-6" d="M12,13V12H11v1Z"/><rect class="la70-2" x="13" y="19" width="3" height="1"/><rect class="la70-2" x="16" y="18" width="1" height="1"/><path class="la70-7" d="M10,27h1V25h1V21H11V20H10V19H9v5h1v3Z"/><path class="la70-7" d="M10,14V13h1V11h1V10h3v1h2v1h1v2h1v2h1V10H19V9H18V8H11V9H10v1H9v5h1Z"/><path class="la70-7" d="M19,20H18v1H17v5h1V25h1V22h1V19H19Z"/></svg>