<svg xmlns="http://www.w3.org/2000/svg" viewBox="0 0 29 33"><defs><style>polygon,rect,path{shape-rendering:crispedges;}.ba50-1{fill:#b4bd09;}.ba50-2{fill:#000000;}.ba50-3{fill:#e8b795;}.ba50-4{fill:#8e9350;}.ba50-5{fill:#8e9350;}.ba50-6{fill:#ffffff;}.ba50-7{fill:#990000;}.ba50-8{fill:#990000;}.ba50-9{fill:#d2d8b8;}</style></defs><path class="ba50-1" d="M0,33H6V27H7V26H8V25h2V24h2V21H9V20H8V19H9V16H8V15H9V14H8V12H9V11H8V10H9V9H8V8h2V7h1V8h1V6h1V7h1V8h1V7h1V6h1V7h1V8h1V7h1V8H19V9h2v2H20v1h1v1H20v1h1v2H20v3h1v1H20v1H17v3h2v1h2v1h1v1h1v6h6V0H0Z"/><path class="ba50-2" d="M23,27H22v6h1V27Z"/><rect class="ba50-2" x="21" y="26" width="1" height="1"/><path class="ba50-3" d="M22,27H21v6h1V27Z"/><rect class="ba50-3" x="20" y="26" width="1" height="1"/><path class="ba50-2" d="M21,27H20v6h1V27Z"/><path class="ba50-2" d="M20,26h1V25H19v1Z"/><path class="ba50-4" d="M20,27V26H19V25H18v1H17v1H16v1H13V27H12V26H11V25H10v1H9v7h1V29h1v4h1V29h3v4h1V29h3v1H17v2h1V31h1v2h1V27Z"/><rect class="ba50-4" x="13" y="30" width="1" height="2"/><path class="ba50-2" d="M18,26V25h1V24H17v2Z"/><rect class="ba50-2" x="16" y="26" width="1" height="1"/><path class="ba50-2" d="M13,27v1h3V27H13Z"/><path class="ba50-2" d="M13,23h3v1h1V21H16v1H13V21H12v3h1Z"/><path class="ba50-3" d="M13,26v1h3V26h1V24H16V23H13v1H12v2Z"/><rect class="ba50-2" x="12" y="26" width="1" height="1"/><path class="ba50-2" d="M11,26h1V24H10v1h1Z"/><path class="ba50-2" d="M10,26V25H8v1h2Z"/><path class="ba50-3" d="M9,27V26H8v1Z"/><path class="ba50-2" d="M9,27H8v6H9V27Z"/><rect class="ba50-2" x="7" y="26" width="1" height="1"/><path class="ba50-3" d="M8,27H7v6H8V27Z"/><path class="ba50-2" d="M7,27H6v6H7V27Z"/><path class="ba50-5" d="M12,29v4h3V29Zm2,3H13V30h1Z"/><path class="ba50-5" d="M11,29H10v4h1V29Z"/><path class="ba50-5" d="M18,31v1H17V30h2V29H16v4h3V31Z"/><path class="ba50-2" d="M20,16h1V15H20Z"/><path class="ba50-3" d="M10,17v1h1v1h1V18h5v1h1V18h1V16h1V15H16V13h1V12h1V10H17v1H16v1H15V10H14v1H13v2H11v1h2v1H9v1h1Zm4-1h1v1H14Z"/><path class="ba50-3" d="M13,22h3V21h1V19H16v1H13V19H12v2h1Z"/><rect class="ba50-3" x="10" y="11" width="1" height="1"/><path class="ba50-3" d="M18,14h1V13H17v1Z"/><rect class="ba50-3" x="11" y="10" width="1" height="1"/><path class="ba50-2" d="M17,20v1h1V20Z"/><path class="ba50-2" d="M11,20v1h1V20Z"/><rect class="ba50-2" x="8" y="15" width="1" height="1"/><rect class="ba50-2" x="14" y="16" width="1" height="1"/><path class="ba50-6" d="M10,15h1V14H10Z"/><path class="ba50-6" d="M16,14v1h1V14Z"/><path class="ba50-2" d="M12,15h1V14H11v1Z"/><path class="ba50-2" d="M18,14H17v1h2V14Z"/><rect class="ba50-7" x="10" y="13" width="1" height="1"/><path class="ba50-7" d="M11,13h2V12H11Z"/><path class="ba50-7" d="M17,13H16v1h1Z"/><path class="ba50-7" d="M18,12H17v1h1Z"/><path class="ba50-8" d="M19,17v1H18v1H17v1h1v1h2V20h1V19H20V16H19Z"/><path class="ba50-8" d="M12,20V19H11V18H10V16H9v3H8v1H9v1h2V20Z"/><path class="ba50-2" d="M12,18v1h1V18Z"/><path class="ba50-2" d="M16,18v1h1V18Z"/><path class="ba50-2" d="M15,18H14v1H13v1h3V19H15Z"/><path class="ba50-6" d="M14,18H13v1h1Z"/><path class="ba50-6" d="M15,18v1h1V18Z"/><path class="ba50-9" d="M10,14V13h1V12H10V11h1V10h1v1H11v1h2V11h1V10h1v2h1V11h1V10h1v3h1v2h2V14H20V13h1V12H20V11h1V9H19V8H18V7H17V6H16V7H15V8H14V7H13V6H12V8H11V7H10V8H8V9H9v1H8v1H9v1H8v2H9v1h1Z"/><rect class="ba50-9" x="19" y="7" width="1" height="1"/></svg>