<svg xmlns="http://www.w3.org/2000/svg" viewBox="0 0 29 33"><defs><style>polygon,rect,path{shape-rendering:crispedges;}.ea49-1{fill:#7a982c;}.ea49-2{fill:#000000;}.ea49-3{fill:#004a77;}.ea49-4{fill:#c18d59;}.ea49-5{fill:#004a77;}.ea49-6{fill:#ffffff;}.ea49-7{fill:#00686d;}.ea49-8{fill:#d8be00;}.ea49-9{fill:#893a1f;}.ea49-10{fill:#dfdfdf;}.ea49-11{fill:#b2622b;}</style></defs><path class="ea49-1" d="M6,32V27H7V26H8V25h2V24h2V22H11V21H10V20H9V18H8V13H7V12H5V11H7v1H9V10h1V8h1V7h2V8h3V7h2V8h1V7h1V6h2V8H21V9H20v3h2V11h2v1H22v1H21v5H20v2H19v1H18v1H17v2h2v1h2v1h1v1h1v6h6V0H0V33H6Z"/><path class="ea49-2" d="M23,27H22v3H21V27H20v6h1V31h1v2h1V27Z"/><rect class="ea49-2" x="21" y="26" width="1" height="1"/><path class="ea49-3" d="M21,28v2h1V27H21Z"/><path class="ea49-4" d="M21,31v2h1V31Z"/><path class="ea49-2" d="M20,26h1V25H19v1Z"/><rect class="ea49-3" x="18" y="29" width="1" height="1"/><path class="ea49-3" d="M15,29H14v2h1V29Z"/><path class="ea49-3" d="M19,32V31H18v1H17V29h1V28h1v1h1V27h1V26H19V25H17v1H16v1H13V26H12V25H10v1H8v1H9v2h1V28h1v1h1v3H11V31H10v1H9v1H20V32Zm-3-2v1H15v1H13V28h2v1h1Z"/><rect class="ea49-3" x="10" y="29" width="1" height="1"/><path class="ea49-2" d="M18,25h1V24H17v1Z"/><path class="ea49-2" d="M16,24h1V23H16Z"/><rect class="ea49-2" x="16" y="25" width="1" height="1"/><path class="ea49-2" d="M13,26v1h3V26H13Z"/><path class="ea49-2" d="M13,23H12v1h1Z"/><path class="ea49-4" d="M13,25v1h3V25h1V24H16V23H13v1H12v1Z"/><rect class="ea49-2" x="12" y="25" width="1" height="1"/><path class="ea49-2" d="M12,24H10v1h2Z"/><path class="ea49-2" d="M10,25H8v1h2Z"/><path class="ea49-2" d="M9,31V27H8v3H7V27H6v6H7V31H8v2H9V31Z"/><rect class="ea49-2" x="7" y="26" width="1" height="1"/><path class="ea49-3" d="M7,30H8V27H7v3Z"/><path class="ea49-4" d="M7,31v2H8V31Z"/><path class="ea49-5" d="M19,30H18V29H17v3h1V31h1v1h1V29H19Z"/><rect class="ea49-5" x="18" y="28" width="1" height="1"/><path class="ea49-5" d="M15,30v1h1V29H15Z"/><path class="ea49-5" d="M14,30V29h1V28H13v4h2V31H14Z"/><path class="ea49-5" d="M9,32h1V31h1v1h1V29H11v1H10V29H9v3Z"/><rect class="ea49-5" x="10" y="28" width="1" height="1"/><rect class="ea49-2" x="19" y="14" width="1" height="1"/><path class="ea49-4" d="M18,15H16v1H15v1H14V16h1V14h1V13H14v2H13v2H12V15H11v3h5v1h1V18h1V15Z"/><rect class="ea49-4" x="19" y="15" width="1" height="1"/><path class="ea49-4" d="M13,14V13H11v1h2Z"/><rect class="ea49-4" x="17" y="13" width="1" height="1"/><rect class="ea49-4" x="9" y="15" width="1" height="1"/><rect class="ea49-2" x="14" y="16" width="1" height="1"/><path class="ea49-6" d="M12,14v1h1V14Z"/><path class="ea49-6" d="M16,14v1h1V14Z"/><path class="ea49-2" d="M12,14H11v1h1Z"/><path class="ea49-2" d="M17,15h1V14H17Z"/><path class="ea49-7" d="M15,18H13v1h3V18Z"/><path class="ea49-7" d="M19,16v2h1V16Z"/><path class="ea49-7" d="M14,23h3V22h1V21h1V18H17v1H16v1H13V19H12V18H10v3h1v1h1v1h2Z"/><path class="ea49-7" d="M10,17V16H9v2h1Z"/><rect class="ea49-2" x="13" y="19" width="3" height="1"/><path class="ea49-2" d="M12,18v1h1V18Z"/><path class="ea49-8" d="M9,15h1v3h1V13H8v5H9V15Z"/><path class="ea49-8" d="M18,13v5h1V14h1v4h1V13H18Z"/><path class="ea49-8" d="M13,15h1V13H13v2Z"/><rect class="ea49-8" x="16" y="13" width="1" height="1"/><path class="ea49-8" d="M19,19v1h1V18H19Z"/><path class="ea49-8" d="M15,14v2h1V14Z"/><path class="ea49-8" d="M12,16v1h1V15H12Z"/><path class="ea49-8" d="M9,18v2h1V18Z"/><path class="ea49-9" d="M24,11H22v1h2Z"/><path class="ea49-10" d="M21,8h1V7H21Z"/><path class="ea49-9" d="M11,13H22V12H20V11H19v1H10V11H9v1H7v1h4Z"/><rect class="ea49-10" x="20" y="8" width="1" height="1"/><path class="ea49-11" d="M19,11h1V10H19Z"/><path class="ea49-6" d="M18,11h1V10h1V8h1V7h1V6H20V7H19V8H18v3Z"/><path class="ea49-11" d="M17,11H10v1h9V11H17Z"/><path class="ea49-9" d="M11,11h7V7H16V8H13V7H11V8H10v3Z"/><path class="ea49-11" d="M10,10H9v1h1Z"/><path class="ea49-9" d="M6,11H5v1H7V11Z"/></svg>