<svg xmlns="http://www.w3.org/2000/svg" viewBox="0 0 29 33"><defs><style>polygon,rect,path{shape-rendering:crispedges;}.xa160-1{fill:#29834f;}.xa160-2{fill:#508e91;}.xa160-3{fill:#000000;}.xa160-4{fill:#efcaaf;}.xa160-5{fill:#ffffff;}.xa160-6{fill:#cc2f76;}.xa160-7{fill:#c9a717;}</style></defs><path class="xa160-1" d="M6,32V27H7V26H8V25h2V22h1V20H9V19H8V13H4V12H6V11H8V10h2V9h1V8h1V7h1V6h1V5h1V6h1V7h1V8h1V9h1v1h2v1h2v1h2v1H21v6H20v1H18v2h1v3h2v1h1v1h1v6h6V0H0V33H6Z"/><path class="xa160-2" d="M17,23v1H16v1H15v2H14v4h6V27h1V26H19V25H18V22H17Z"/><path class="xa160-2" d="M22,27H21v6h1V27Z"/><path class="xa160-2" d="M19,32H9v1H20V32Z"/><path class="xa160-2" d="M8,27H7v6H8V27Z"/><path class="xa160-2" d="M9,27v4h4V27h1V25H13V24H12V22H11v3H10v1H8v1Z"/><path class="xa160-3" d="M23,27H22v6h1V27Z"/><rect class="xa160-3" x="21" y="26" width="1" height="1"/><path class="xa160-3" d="M21,27H20v4H14V27H13v4H9V27H8v6H9V32H20v1h1V27Z"/><path class="xa160-3" d="M20,26h1V25H19v1Z"/><path class="xa160-3" d="M18,25h1V22H18v3Z"/><rect class="xa160-3" x="15" y="24" width="1" height="1"/><path class="xa160-3" d="M15,26V25H14v2h1Z"/><rect class="xa160-3" x="13" y="24" width="1" height="1"/><path class="xa160-4" d="M15,24h1V23H13v1h1v1h1Z"/><path class="xa160-3" d="M11,24V22H10v3h1Z"/><path class="xa160-3" d="M10,25H8v1h2Z"/><rect class="xa160-3" x="7" y="26" width="1" height="1"/><path class="xa160-3" d="M7,27H6v6H7V27Z"/><rect class="xa160-4" x="19" y="15" width="1" height="1"/><path class="xa160-4" d="M12,21h1v1h3V21h1V20h1V19h1V16H16V14H13v2H10v3h1v1h1Zm2-5h1v1H14Zm0,3h1v1H14Z"/><rect class="xa160-4" x="9" y="15" width="1" height="1"/><path class="xa160-3" d="M20,16H19v3h1V16Z"/><path class="xa160-3" d="M18,19v1h1V19Z"/><path class="xa160-3" d="M12,23v1h1V23h3v1h1V22h1V20H17v1H16v1H13V21H12V20H11v2h1Z"/><path class="xa160-3" d="M10,19v1h1V19Z"/><path class="xa160-3" d="M10,18V16H9v3h1Z"/><rect class="xa160-3" x="14" y="16" width="1" height="1"/><path class="xa160-5" d="M10,14v2h1V14Z"/><path class="xa160-5" d="M12,15v1h1V14H12Z"/><path class="xa160-5" d="M16,14v2h1V14Z"/><path class="xa160-5" d="M19,14H18v2h1V14Z"/><path class="xa160-3" d="M12,14H11v2h1V14Z"/><path class="xa160-3" d="M17,14v2h1V14Z"/><rect class="xa160-3" x="14" y="19" width="1" height="1"/><path class="xa160-6" d="M9,16V15h1V14H8v5H9V16Z"/><path class="xa160-6" d="M19,15h1v4h1V14H19Z"/><path class="xa160-6" d="M9,19v1h1V19Z"/><path class="xa160-6" d="M19,20h1V19H19Z"/><path class="xa160-7" d="M11,14H21V13h4V12H23V11H21V10H19V9H18V8H17V7H16V6H15V5H14V6H13V7H12V8H11V9H10v1H8v1H6v1H4v1H8v1h3Z"/></svg>