<svg xmlns="http://www.w3.org/2000/svg" viewBox="0 0 29 33"><defs><style>polygon,rect,path{shape-rendering:crispedges;}.na188-1{fill:#7a982c;}.na188-2{fill:#000000;}.na188-3{fill:#5a2de2;}.na188-4{fill:#333333;}.na188-5{fill:#efcaaf;}.na188-6{fill:#663434;}.na188-7{fill:#ffffff;}.na188-8{fill:#004a77;}.na188-9{fill:#004a77;}.na188-10{fill:#f9e100;}.na188-11{fill:#ff1d99;}.na188-12{fill:#9b005c;}</style></defs><path class="na188-1" d="M0,33H6V27H7V26H8V25h2V24h2V21H11V20H10V19H9V16H8V15H9V11h1V10h1V9h2V7h1V6h2V5h2V6H17V7h1v3h1v1h1v4h1v1H20v3H19v1H18v1H17v3h2v1h2V24H20V23h1V22h1v1h1v1H22v1h1v8h6V0H0Z"/><path class="na188-2" d="M7,30V27H6v6H7V30Z"/><path class="na188-3" d="M8,29V27H7v2Z"/><path class="na188-3" d="M7,31v2H8V31Z"/><rect class="na188-2" x="7" y="26" width="1" height="1"/><path class="na188-2" d="M9,31V27H8v6H9V31Z"/><path class="na188-3" d="M10,26H9v2h1v1h1V27H10Z"/><path class="na188-3" d="M10,31V30H9v2h1v1h1V31Z"/><path class="na188-2" d="M10,26V25H8v1h2Z"/><path class="na188-2" d="M12,26h1V25H12V24H10v1h1v8h1V26Z"/><path class="na188-4" d="M17,26H16v1H13V26H12v7h5V26Z"/><path class="na188-2" d="M13,23V22H12v2h1Z"/><path class="na188-2" d="M13,26v1h3V26H13Z"/><path class="na188-5" d="M13,25v1h3V25h1V24H16V23H13v1H12v1Z"/><path class="na188-2" d="M18,31V25h1V24H17v1H16v1h1v7h1V31Z"/><path class="na188-3" d="M19,31V30H18v2h1v1h1V31Z"/><path class="na188-3" d="M18,26v2h1v1h1V27H19V25H18Z"/><path class="na188-2" d="M21,31V25H19v1h1v7h1V31Z"/><path class="na188-3" d="M21,28h1V27H21Z"/><path class="na188-3" d="M21,31v1h1V30H21Z"/><path class="na188-5" d="M22,27V25H21v2Z"/><path class="na188-2" d="M23,25H22v8h1V25Z"/><path class="na188-6" d="M19,28H18v2h1v1h1V29H19Z"/><path class="na188-6" d="M21,32v1h1V32Z"/><path class="na188-6" d="M20,27V26H19v1Z"/><path class="na188-6" d="M21,29v1h1V28H21Z"/><path class="na188-6" d="M18,32v1h1V32Z"/><path class="na188-6" d="M10,27h1V25H10v2Z"/><path class="na188-6" d="M10,28H9v2h1v1h1V29H10Z"/><path class="na188-6" d="M9,32v1h1V32Z"/><path class="na188-6" d="M9,27V26H8v1Z"/><path class="na188-6" d="M7,30v1H8V29H7Z"/><rect class="na188-2" x="20" y="15" width="1" height="1"/><path class="na188-2" d="M19,14v1h1V11H19v3Z"/><path class="na188-5" d="M10,17v1h1v1h1V18h2v1h1V18h2v1h1V18h1V16h1V15H16V14h2V13H16V12h2v1h1V11H18V10H15v1H13V10H11v1H10v2h1V12h2v1H11v1h2v1H9v1h1Zm4-1h1v1H14Z"/><rect class="na188-5" x="15" y="20" width="1" height="1"/><rect class="na188-5" x="13" y="20" width="1" height="1"/><path class="na188-2" d="M19,17h1V16H19Z"/><rect class="na188-2" x="18" y="10" width="1" height="1"/><path class="na188-2" d="M16,23v1h1V22H16Z"/><path class="na188-2" d="M16,10h2V9H16Z"/><path class="na188-2" d="M13,9H11v1h2Z"/><rect class="na188-2" x="10" y="10" width="1" height="1"/><path class="na188-2" d="M10,14V11H9v4h1Z"/><path class="na188-2" d="M10,16H9v1h1Z"/><rect class="na188-2" x="8" y="15" width="1" height="1"/><rect class="na188-2" x="14" y="16" width="1" height="1"/><path class="na188-7" d="M13,15V14H12v1Z"/><path class="na188-7" d="M10,15h1V14H10Z"/><path class="na188-7" d="M18,14v1h1V14Z"/><path class="na188-7" d="M16,14v1h1V14Z"/><path class="na188-2" d="M12,15V14H11v1Z"/><path class="na188-2" d="M17,14v1h1V14Z"/><path class="na188-8" d="M19,13H18v1h1Z"/><rect class="na188-8" x="16" y="12" width="2" height="1"/><path class="na188-8" d="M11,14V13H10v1Z"/><rect class="na188-8" x="11" y="12" width="2" height="1"/><path class="na188-9" d="M14,18H13v1h1Z"/><path class="na188-9" d="M13,23h3V22h1V21h1V20h1V19h1V17H19v1H18v1H17V18H15v1h1v2H15V20H14v1H13V19H11V18H10V17H9v2h1v1h1v1h1v1h1Z"/><path class="na188-2" d="M13,19v1h3V19H13Z"/><path class="na188-2" d="M12,18v1h1V18Z"/><path class="na188-10" d="M13,11h2V10h1V9h2V7H17V6h1V5H16V6H14V7H13v4Z"/><rect class="na188-11" x="21" y="22" width="1" height="1"/><rect class="na188-11" x="20" y="23" width="1" height="1"/><rect class="na188-11" x="22" y="23" width="1" height="1"/><path class="na188-11" d="M22,24.5V24H21v1h1Z"/><rect class="na188-12" x="21" y="23" width="1" height="1"/><rect class="na188-10" x="18" y="9" width="1" height="1"></rect></svg>