<svg xmlns="http://www.w3.org/2000/svg" viewBox="0 0 29 33"><defs><style>polygon,rect,path{shape-rendering:crispedges;}.ka164-1{fill:#d4a122;}.ka164-2{fill:#000000;}.ka164-3{fill:#7eaa7e;}.ka164-4{fill:#ffffff;}.ka164-5{fill:#a56e49;}.ka164-6{fill:#ffffff;}.ka164-7{fill:#00686d;}.ka164-8{fill:#00686d;}.ka164-9{fill:#cc3232;}.ka164-10{fill:#455054;}.ka164-11{fill:#ff1f4a;}</style></defs><path class="ka164-1" d="M0,33H8V32H6V31H5V22H6V21H7V20H5v1H2V17H5V16H8V15H9V13H8V9H9V8h1V7h1V6h7V7h1V8h1V9h1v4H20v2h1v1H20v3H19v1H18v1H17v3h2v1h2v1h1v1h1v6h6V0H0Z"/><path class="ka164-1" d="M8,19v3H9v2H8v1h2V24h2V21H11V20H10V19H9V16H8v3Z"/><path class="ka164-2" d="M23,27H22v6h1V27Z"/><rect class="ka164-2" x="21" y="26" width="1" height="1"/><path class="ka164-3" d="M21,31v2h1V31Z"/><path class="ka164-3" d="M21,28v2h1V27H21Z"/><path class="ka164-2" d="M21,30V27H20v6h1V30Z"/><path class="ka164-2" d="M20,26h1V25H19v1Z"/><path class="ka164-3" d="M20,32V26H19V25H17V24H16V23H13v1H12v1H10v1H9v6h1v1h4V32h1v1h4V32Zm-9-3H10V28h1Zm2,2H12V30h1Zm0-4H12V26h1Zm2,2H14V28h1Zm0-4H14V24h1Zm2,6H16V30h1Zm0-4H16V26h1Zm1,2V28h1v1Z"/><path class="ka164-2" d="M18,25h1V24H17v1Z"/><path class="ka164-2" d="M10,25h2V24H10Z"/><path class="ka164-2" d="M9,31V27H8V26h2V25H8V24H7v7H6v1H8v1H9V31Z"/><path class="ka164-3" d="M6,25H7V24H6Z"/><path class="ka164-3" d="M6,27v2H7V26H6Z"/><path class="ka164-3" d="M7,30H6v1H7Z"/><path class="ka164-2" d="M6,29V22H5v9H6V29Z"/><rect class="ka164-4" x="10" y="28" width="1" height="1"/><rect class="ka164-4" x="12" y="30" width="1" height="1"/><rect class="ka164-4" x="14" y="28" width="1" height="1"/><rect class="ka164-4" x="14" y="32" width="1" height="1"/><rect class="ka164-4" x="12" y="26" width="1" height="1"/><rect class="ka164-4" x="16" y="30" width="1" height="1"/><rect class="ka164-4" x="18" y="28" width="1" height="1"/><rect class="ka164-4" x="16" y="26" width="1" height="1"/><rect class="ka164-4" x="14" y="24" width="1" height="1"/><path class="ka164-4" d="M8,27H9V26H8Z"/><path class="ka164-4" d="M19,32v1h1V32Z"/><path class="ka164-4" d="M9,32v1h1V32Z"/><path class="ka164-4" d="M6,30H7V29H6Z"/><path class="ka164-4" d="M6,26H7V25H6Z"/><path class="ka164-4" d="M21,31h1V30H21Z"/><path class="ka164-4" d="M20,27h1V26H20Z"/><rect class="ka164-2" x="20" y="15" width="1" height="1"/><path class="ka164-2" d="M19,15h1V14H19Z"/><path class="ka164-5" d="M13,21v1h3V20H13Z"/><path class="ka164-5" d="M10,16v3h1v1h1V18h5v2h1V19h1V16h1V15H16V14h2V13H16V12h2V11H11v1h1v1h1v2H9v1Zm4,0h1v1H14Z"/><rect class="ka164-5" x="18" y="12" width="1" height="1"/><path class="ka164-5" d="M10,14h2V13H10Z"/><path class="ka164-2" d="M19,17v2h1V16H19Z"/><rect class="ka164-2" x="18" y="19" width="1" height="1"/><rect class="ka164-2" x="17" y="20" width="1" height="1"/><path class="ka164-2" d="M16,22H13V21H12v3h1V23h3v1h1V21H16Z"/><rect class="ka164-2" x="11" y="20" width="1" height="1"/><rect class="ka164-2" x="10" y="19" width="1" height="1"/><path class="ka164-2" d="M10,16H9v3h1V16Z"/><rect class="ka164-2" x="8" y="15" width="1" height="1"/><rect class="ka164-2" x="14" y="16" width="1" height="1"/><path class="ka164-6" d="M18,14v1h1V14Z"/><path class="ka164-6" d="M12,15h1V14H12Z"/><path class="ka164-2" d="M17,14H16v1h2V14Z"/><path class="ka164-2" d="M12,15V14H9v1h3Z"/><rect class="ka164-7" x="18" y="13" width="1" height="1"/><rect class="ka164-7" x="16" y="12" width="2" height="1"/><path class="ka164-7" d="M13,14V13H12v1Z"/><path class="ka164-7" d="M10,13h2V12H10Z"/><path class="ka164-8" d="M17,19H16v2h1V19Z"/><path class="ka164-8" d="M13,20V19h3V18H12v3h1Z"/><path class="ka164-2" d="M13,20h3V19H13Z"/><path class="ka164-2" d="M17,19V18H16v1Z"/><path class="ka164-9" d="M10,13V12h1V11h7v1h1v2h1V13h1V9H20V8H19V7H18V6H11V7H10V8H9V9H8v4H9v1h1Z"/><path class="ka164-5" d="M7,24H8V22H6v2Z"/><path class="ka164-10" d="M8,22V20H7v2Z"/><path class="ka164-2" d="M7,21H6v1H7Z"/><path class="ka164-2" d="M9,22H8v2H9Z"/><path class="ka164-6" d="M4,19V18H5V17H3v4H5V20H4Z"/><path class="ka164-6" d="M6,16H5v1H6v2H5v1H7V16Z"/><path class="ka164-11" d="M2,17v4H3V17Z"/><path class="ka164-11" d="M8,19V16H7v4H8Z"/><path class="ka164-11" d="M6,19V17H5v1H4v2H5V19Z"/></svg>