<svg xmlns="http://www.w3.org/2000/svg" viewBox="0 0 29 33"><defs><style>polygon,rect,path{shape-rendering:crispedges;}.aa298-1{fill:#b4bd09;}.aa298-2{fill:#000000;}.aa298-3{fill:#c18d59;}.aa298-4{fill:#ffffff;}.aa298-5{fill:#ffb38d;}.aa298-6{fill:#4922aa;}.aa298-7{fill:#4922aa;}.aa298-8{fill:#0068ff;}.aa298-9{fill:#ffffff;}</style></defs><path class="aa298-1" d="M0,33H6V27H7V26H8V25h2V24h2V21H11V20H10V19H9V16H8V15H9V11h1V9h1V7h1V6H11V5h2V6h2V7h1V9h2v1h1v1h1v4h1v1H20v3H19v1H18v1H17v3h2v1h1V24h1V23h1v1h1v9h6V0H0Z"/><path class="aa298-2" d="M7,31V27H6v6H7Z"/><rect class="aa298-2" x="7" y="26" width="1" height="1"/><path class="aa298-3" d="M8,31V27H7v6H8Z"/><rect class="aa298-3" x="8" y="26" width="1" height="1"/><path class="aa298-2" d="M9,31V27H8v6H9Z"/><path class="aa298-2" d="M10,26V25H8v1Z"/><rect class="aa298-4" x="10" y="30" width="1" height="1"/><rect class="aa298-4" x="18" y="30" width="1" height="1"/><rect class="aa298-4" x="10" y="32" width="1" height="1"/><rect class="aa298-4" x="18" y="32" width="1" height="1"/><path class="aa298-4" d="M17,31V30h1V29h1v1h1V27H19V25H18v1H17v1H16v1H13V27H12V26H11V25H10v1H9v4h1V29h1v1h1v3h1V29h2v1h1v2H15v1h2Z"/><path class="aa298-4" d="M14,31v1h1V30H14Z"/><path class="aa298-2" d="M13,23V22H12v2h1Z"/><path class="aa298-2" d="M21,31V27H20v6h1Z"/><path class="aa298-3" d="M22,31V24H21v1H20v2h1v6h1Z"/><path class="aa298-2" d="M23,31V24H22v9h1Z"/><path class="aa298-2" d="M11,26h1V24H10v1h1Z"/><rect class="aa298-2" x="12" y="26" width="1" height="1"/><rect class="aa298-2" x="16" y="26" width="1" height="1"/><path class="aa298-2" d="M17,26h1V25h1V24H17Z"/><path class="aa298-2" d="M14,27H13v1h3V27Z"/><path class="aa298-3" d="M12,26h1v1h3V26h1V24H16V23H13v1H12Z"/><path class="aa298-5" d="M20,31V30H19v1H18V30H17v3h1V32h1v1h1Z"/><rect class="aa298-5" x="18" y="29" width="1" height="1"/><path class="aa298-5" d="M15,32h1V30H15Z"/><path class="aa298-5" d="M14,32V30h1V29H13v4h2V32Z"/><path class="aa298-5" d="M12,31V30H11v1H10V30H9v3h1V32h1v1h1Z"/><rect class="aa298-5" x="10" y="29" width="1" height="1"/><rect class="aa298-2" x="20" y="15" width="1" height="1"/><path class="aa298-2" d="M19,13v2h1V11H19Z"/><rect class="aa298-3" x="15" y="20" width="1" height="1"/><rect class="aa298-3" x="19" y="15" width="1" height="1"/><rect class="aa298-3" x="9" y="15" width="1" height="1"/><rect class="aa298-3" x="14" y="15" width="1" height="1"/><path class="aa298-3" d="M18,16v1H16V16H15v1H14V16H13v1H11V16H10v2h1v1h1V18h2v1h1V18h2v1h1V18h1V16Z"/><rect class="aa298-3" x="18" y="13" width="1" height="1"/><rect class="aa298-3" x="13" y="20" width="1" height="1"/><path class="aa298-3" d="M10,13h3v1h3V12h3V11H18V10H16v1H14V10H11v1H10Z"/><rect class="aa298-2" x="19" y="16" width="1" height="1"/><rect class="aa298-2" x="18" y="10" width="1" height="1"/><path class="aa298-2" d="M16,23v1h1V22H16Z"/><path class="aa298-2" d="M17,10h1V9H16v1Z"/><path class="aa298-2" d="M12,10h1V9H11v1Z"/><rect class="aa298-2" x="10" y="10" width="1" height="1"/><path class="aa298-2" d="M10,14V11H9v4h1Z"/><rect class="aa298-2" x="9" y="16" width="1" height="1"/><rect class="aa298-2" x="8" y="15" width="1" height="1"/><rect class="aa298-2" x="14" y="16" width="1" height="1"/><path class="aa298-6" d="M18,13h1V12H16v1Z"/><rect class="aa298-6" x="10" y="13" width="1" height="1"/><rect class="aa298-7" x="15" y="18" width="1" height="1"/><path class="aa298-7" d="M13,23h3V22h1V21h1V20h1V19h1V17H19v1H18v1H16v2H15V20H14v1H13V19h1V18H12v1H11V18H10V17H9v2h1v1h1v1h1v1h1Z"/><path class="aa298-2" d="M14,19H13v1h3V19Z"/><rect class="aa298-2" x="16" y="18" width="1" height="1"/><path class="aa298-2" d="M19,27h1V25H19Z"/><rect class="aa298-2" x="20" y="24" width="1" height="1"/><rect class="aa298-2" x="21" y="23" width="1" height="1"/><path class="aa298-8" d="M13,9v1h1v1h2V7H15V6H13V5H11V6h1V7H11V9Z"/><rect class="aa298-8" x="10" y="9" width="1" height="1"/><path class="aa298-9" d="M12,14h1V13H11v1Z"/><path class="aa298-9" d="M11,16v1h2V16Z"/><path class="aa298-9" d="M11,15V14H10v2h1Z"/><path class="aa298-2" d="M11,14v2h2V14Z"/><path class="aa298-9" d="M18,15v1h1V14H18Z"/><path class="aa298-9" d="M18,14V13H16v1Z"/><path class="aa298-9" d="M16,16v1h2V16Z"/><path class="aa298-9" d="M13,16h1V15h1v1h1V14H13Z"/><path class="aa298-2" d="M16,16h2V14H16Z"/><rect class="aa298-8" x="10" y="9" width="1" height="1"></rect></svg>