<svg xmlns="http://www.w3.org/2000/svg" viewBox="0 0 29 33"><defs><style>polygon,rect,path{shape-rendering:crispedges;}.sa12-1{fill:#d4a122;}.sa12-2{fill:#000000;}.sa12-3{fill:#cbed03;}.sa12-4{fill:#efcaaf;}.sa12-5{fill:#cbed03;}.sa12-6{fill:#ffffff;}.sa12-7{fill:#316a6d;}.sa12-8{fill:#9b8100;}.sa12-9{fill:#316a6d;}.sa12-10{fill:#455054;}.sa12-11{fill:#002b4f;}.sa12-12{fill:#ff1f4a;}</style></defs><path class="sa12-1" d="M8,32H6V31H5V22H6V21H7V20H5v1H2V17H5V16H7V11H8V10H9V9h1V8h1V7h7V8h1V9h1v1h1v1h1v9H21v1H20v1H19v1H18v1h1v1h2v1h1v1h1v6h6V0H0V33H8Z"/><path class="sa12-1" d="M11,24V23H10V22H9v2H8v1h2V24Z"/><rect class="sa12-1" x="8" y="21" width="1" height="1"/><path class="sa12-2" d="M6,24V22H5v9H6V24Z"/><path class="sa12-2" d="M23,27H22v6h1V27Z"/><path class="sa12-3" d="M22,27H21v6h1V27Z"/><rect class="sa12-2" x="21" y="26" width="1" height="1"/><path class="sa12-2" d="M21,27H20v6h1V27Z"/><rect class="sa12-3" x="18" y="29" width="1" height="1"/><path class="sa12-3" d="M10,28h1v1h1V25h1V24H11v1H10v1H8v1H9v2h1Z"/><path class="sa12-3" d="M16,25h1v4h1V28h1v1h1V27h1V26H19V25H18V24H16Z"/><rect class="sa12-3" x="10" y="29" width="1" height="1"/><path class="sa12-3" d="M19,32V31H18v1H17V30H16v1H15v1H13V30H12v2H11V31H10v1H9v1H20V32Z"/><path class="sa12-2" d="M20,26h1V25H19v1Z"/><rect class="sa12-2" x="18" y="24" width="1" height="1"/><path class="sa12-2" d="M16,24h2V23H16Z"/><path class="sa12-2" d="M13,24v1h3V24H13Z"/><path class="sa12-4" d="M14,24h2V23H13v1Z"/><path class="sa12-2" d="M12,24h1V23H11v1Z"/><rect class="sa12-2" x="10" y="24" width="1" height="1"/><path class="sa12-2" d="M9,31V27H8V26h2V25H8V24H7v7H6v1H8v1H9V31Z"/><path class="sa12-3" d="M7,30V24H6v7H7Z"/><path class="sa12-3" d="M13,25v3h2v1h1V25H13Z"/><path class="sa12-3" d="M14,29v2h1V29Z"/><path class="sa12-5" d="M19,30H18V29H17v3h1V31h1v1h1V29H19Z"/><rect class="sa12-5" x="18" y="28" width="1" height="1"/><path class="sa12-5" d="M15,29v2h1V29Z"/><path class="sa12-5" d="M14,30V29h1V28H13v4h2V31H14Z"/><path class="sa12-5" d="M11,29v1H10V29H9v3h1V31h1v1h1V29Z"/><rect class="sa12-5" x="10" y="28" width="1" height="1"/><path class="sa12-2" d="M13,25H12v5h1V25Z"/><path class="sa12-2" d="M17,28V25H16v5h1V28Z"/><path class="sa12-4" d="M12,13h1v2H10v3h1v1h1V18h2v1h1V18h2v1h1V18h1V15H18v1H17v1H16V14H15V12H14V11H12v2Zm2,3h1v1H14Z"/><rect class="sa12-4" x="13" y="20" width="1" height="1"/><path class="sa12-4" d="M12,14V13H10v1h2Z"/><rect class="sa12-4" x="15" y="20" width="1" height="1"/><rect class="sa12-2" x="14" y="16" width="1" height="1"/><path class="sa12-6" d="M12,15h1V14H12Z"/><path class="sa12-6" d="M11,14H10v1h1Z"/><path class="sa12-2" d="M11,14v1h1V14Z"/><path class="sa12-7" d="M13,14V13H12v1Z"/><path class="sa12-7" d="M12,13V12H10v1Z"/><path class="sa12-8" d="M14,11v1h1v2h1v3h1V16h1V15h1V12H17V11H14Z"/><path class="sa12-3" d="M8,15v5H9v1h1v1h1v1h2V22H12V21H11V20H10V19H9V12h1V11h2V10h5v1h2v1h1v7H19v1H18v1H17v1H16v1h2V22h1V21h1V20h1V11H20V10H19V9H18V8H11V9H10v1H9v1H8v4Z"/><rect class="sa12-2" x="10" y="8" width="1" height="1"/><rect class="sa12-2" x="9" y="9" width="1" height="1"/><rect class="sa12-2" x="8" y="10" width="1" height="1"/><path class="sa12-2" d="M8,15V11H7v5H8Z"/><rect class="sa12-2" x="8" y="20" width="1" height="1"/><rect class="sa12-2" x="9" y="21" width="1" height="1"/><rect class="sa12-2" x="10" y="22" width="1" height="1"/><rect class="sa12-2" x="18" y="22" width="1" height="1"/><rect class="sa12-2" x="19" y="21" width="1" height="1"/><rect class="sa12-2" x="20" y="20" width="1" height="1"/><path class="sa12-2" d="M21,20h1V11H21v9Z"/><rect class="sa12-2" x="20" y="10" width="1" height="1"/><rect class="sa12-2" x="19" y="9" width="1" height="1"/><rect class="sa12-2" x="18" y="8" width="1" height="1"/><path class="sa12-2" d="M18,8V7H11V8h7Z"/><path class="sa12-2" d="M12,11H10v1h2Z"/><path class="sa12-2" d="M10,16V12H9v5h1Z"/><path class="sa12-2" d="M19,15v2h1V12H19v3Z"/><path class="sa12-2" d="M18,12h1V11H17v1Z"/><path class="sa12-2" d="M15,11h2V10H12v1h3Z"/><path class="sa12-9" d="M15,18v1h1V18Z"/><path class="sa12-9" d="M16,23V22h1V21h1V20h1V19h1V17H19v1H18v1H16v2H15V20H14v1H13V19h1V18H12v1H11V18H10V17H9v2h1v1h1v1h1v1h1v1h3Z"/><path class="sa12-2" d="M14,19H13v1h3V19H14Z"/><path class="sa12-2" d="M16,18v1h1V18Z"/><path class="sa12-4" d="M7,24H8V22H6v2Z"/><path class="sa12-10" d="M8,22V20H7v2Z"/><path class="sa12-2" d="M7,21H6v1H7Z"/><path class="sa12-2" d="M9,22H8v2H9Z"/><path class="sa12-11" d="M4,21H5V20H4Z"/><path class="sa12-11" d="M5,18V17H4v1Z"/><path class="sa12-11" d="M3,19V18H2v2H3Z"/><path class="sa12-11" d="M5,19v1H6V19Z"/><path class="sa12-11" d="M6,16H5v1H6Z"/><path class="sa12-11" d="M7,17v2H8V17Z"/><path class="sa12-12" d="M3,17H2v1H3Z"/><path class="sa12-12" d="M6,17v1H3v2H4V19H7V17Z"/><path class="sa12-12" d="M8,17V16H7v1Z"/><path class="sa12-12" d="M8,19H7v1H8Z"/><path class="sa12-12" d="M2,20v1H3V20Z"/><path class="sa12-6" d="M3,20v1H4V20Z"/><path class="sa12-6" d="M4,19v1H5V19Z"/><path class="sa12-6" d="M4,18V17H3v1Z"/><path class="sa12-6" d="M7,17V16H6v1Z"/><path class="sa12-6" d="M6,18V17H5v1Z"/><path class="sa12-6" d="M6,19v1H7V19Z"/></svg>