<svg xmlns="http://www.w3.org/2000/svg" viewBox="0 0 29 33"><defs><style>polygon,rect,path{shape-rendering:crispedges;}.qa82-1{fill:#6b4f99;}.qa82-2{fill:#000000;}.qa82-3{fill:#00686d;}.qa82-4{fill:#e8b795;}.qa82-5{fill:#34e0cb;}.qa82-6{fill:#ffffff;}.qa82-7{fill:#663228;}.qa82-8{fill:#fad000;}.qa82-9{fill:#663228;}.qa82-10{fill:#b23b00;}</style></defs><path class="qa82-1" d="M20,23H18v1h2Z"/><path class="qa82-1" d="M6,32V27H7V26H8V25h2V24h1V23H10V22h1V21H10V20H9V16H8V15H9V11h1V10h1V9h7v1h1v1h1v4h1v1H20v4H19v1h1v1h1v1h1v1h2v1h1v2H24V26H23v7h6V0H0V33H6ZM11,6h1V5h5V6h1V7H17V8H12V7H11Z"/><path class="qa82-1" d="M13,7h4V6H12V7Z"/><path class="qa82-2" d="M7,27H6v6H7V27Z"/><path class="qa82-3" d="M8,27H7v6H8V27Z"/><rect class="qa82-2" x="7" y="26" width="1" height="1"/><path class="qa82-2" d="M9,31V27H8v6H9V31Z"/><rect class="qa82-3" x="18" y="29" width="1" height="1"/><path class="qa82-3" d="M19,26H18v1H17v2h1V28h1v1h1V27H19Z"/><path class="qa82-3" d="M19,32V31H18v1H17V30H16v1H15v1H13V30H12v2H11V31H10v1H9v1H20V32Z"/><rect class="qa82-3" x="10" y="29" width="1" height="1"/><path class="qa82-3" d="M9,27v2h1V28h1v1h1V27H11V26H8v1Z"/><path class="qa82-2" d="M11,26V24H10v1H8v1h3Z"/><rect class="qa82-2" x="10" y="22" width="1" height="1"/><rect class="qa82-3" x="11" y="22" width="1" height="1"/><path class="qa82-4" d="M13,23v1h3V23H13Z"/><rect class="qa82-3" x="17" y="22" width="1" height="1"/><path class="qa82-2" d="M19,22H18v1h1Z"/><path class="qa82-2" d="M21,27H20v6h1V27Z"/><path class="qa82-3" d="M22,27H21v6h1V27Z"/><path class="qa82-2" d="M23,26V25H22v8h1V26Z"/><rect class="qa82-3" x="15" y="25" width="1" height="1"/><rect class="qa82-3" x="13" y="25" width="1" height="1"/><path class="qa82-5" d="M19,30H18V29H17v3h1V31h1v1h1V29H19Z"/><rect class="qa82-5" x="18" y="28" width="1" height="1"/><rect class="qa82-5" x="15" y="30" width="1" height="1"/><path class="qa82-5" d="M14,30H13v2h2V31H14Z"/><path class="qa82-5" d="M11,29v1H10V29H9v3h1V31h1v1h1V29Z"/><rect class="qa82-5" x="10" y="28" width="1" height="1"/><path class="qa82-2" d="M17,28V27H16v1H15v2h2V28Z"/><rect class="qa82-2" x="20" y="15" width="1" height="1"/><path class="qa82-4" d="M10,17h1v1h1v1h1V18h3v1h1V18h1V17h1V16h1V15H16V13h1V12h2V11H18V10H11v1H10v2h1V12h2v1H11v1h2v1H9v1h1Zm4-1h1v1H14Z"/><polygon class="qa82-4" points="18 14 19 14 19 13 17 13 17 14 18 14"/><path class="qa82-2" d="M10,14H9v1h1Z"/><rect class="qa82-2" x="8" y="15" width="1" height="1"/><rect class="qa82-2" x="14" y="16" width="1" height="1"/><path class="qa82-6" d="M10,15h1V14H10Z"/><path class="qa82-6" d="M16,14v1h1V14Z"/><path class="qa82-2" d="M12,15h1V14H11v1Z"/><path class="qa82-2" d="M18,14H17v1h3V14H18Z"/><rect class="qa82-7" x="10" y="13" width="1" height="1"/><rect class="qa82-7" x="11" y="12" width="2" height="1"/><path class="qa82-7" d="M17,13H16v1h1Z"/><rect class="qa82-7" x="17" y="12" width="2" height="1"/><rect class="qa82-2" x="14" y="30" width="1" height="1"/><path class="qa82-2" d="M14,29V28H13V27H12v3h2Z"/><rect class="qa82-2" x="17" y="26" width="1" height="1"/><rect class="qa82-2" x="11" y="26" width="1" height="1"/><rect class="qa82-2" x="13" y="26" width="1" height="1"/><rect class="qa82-2" x="15" y="26" width="1" height="1"/><path class="qa82-2" d="M12,25v1h1V25h1v1h1V25h1v1h1V24h1V23H16v1H13V23H11v1h1Z"/><rect class="qa82-8" x="16" y="26" width="1" height="1"/><path class="qa82-8" d="M13,27v1h1v2h1V28h1V27H15V26H14v1Z"/><rect class="qa82-8" x="12" y="26" width="1" height="1"/><path class="qa82-8" d="M12,26V24H11v2Z"/><path class="qa82-9" d="M15,18H13v1h3V18Z"/><path class="qa82-9" d="M12,23h5V22h1V21h1V20h1V16H19v1H18v1H17v1H16v1H13V19H12V18H11V17H10V16H9v4h1v1h1v1h1Z"/><rect class="qa82-2" x="13" y="19" width="3" height="1"/><path class="qa82-10" d="M19,13v1h1V11H19v2Z"/><rect class="qa82-10" x="18" y="10" width="1" height="1"/><path class="qa82-10" d="M18,10V9H11v1h7Z"/><rect class="qa82-10" x="10" y="10" width="1" height="1"/><path class="qa82-10" d="M10,13V11H9v3h1Z"/><rect class="qa82-8" x="17" y="6" width="1" height="1"/><path class="qa82-8" d="M13,7H12V8h5V7H13Z"/><path class="qa82-8" d="M17,6V5H12V6h5Z"/><rect class="qa82-8" x="11" y="6" width="1" height="1"/><path class="qa82-8" d="M23,25v1h1v1h1V25H24V24H22v1Z"/><path class="qa82-6" d="M18,22h1v1h1v2h2V23H21V22H20V21H18Z"/><path class="qa82-4" d="M20,27h2V25H20Z"/><path class="qa82-8" d="M18,25h2V24H17v2h1Z"/><path class="qa82-2" d="M18,25v1h1v1h1V25Z"/></svg>