<svg xmlns="http://www.w3.org/2000/svg" viewBox="0 0 29 33"><defs><style>polygon,rect,path{shape-rendering:crispedges;}.eb200-1{fill:#d4a122;}.eb200-2{fill:#000000;}.eb200-3{fill:#333333;}.eb200-4{fill:#333333;}.eb200-5{fill:#b2622b;}.eb200-6{fill:#90a2a3;}.eb200-7{fill:#ffffff;}.eb200-8{fill:#473a35;}.eb200-9{fill:#0068ff;}.eb200-10{fill:#c8a715;}.eb200-11{fill:#cc3232;}</style></defs><path class="eb200-1" d="M6,32V27H7V26H8V25H9V24h1V20H9V16H8V14H9V12H8v1H7V12H8V11H9V10h1V9h2V8h5V9h2v1h1v1h1v1h1v1H21V12H20v2h1v2H20v4H19v4h1v1h1v1h1v1h1v6h6V0H0V33H6Z"/><path class="eb200-2" d="M23,27H22v6h1V27Z"/><path class="eb200-3" d="M22,27H21v6h1V27Z"/><path class="eb200-2" d="M21,27h1V26H21V25H20v2H17v1h2v1h1v4h1V27Z"/><rect class="eb200-2" x="19" y="24" width="1" height="1"/><path class="eb200-3" d="M20,29H19v1H18v1H17v1H16v1h4V29Z"/><path class="eb200-3" d="M18,25H17v1H16v5h1V30h1V29h1V28H17V27h2V26h1V25H19V24H18Z"/><rect class="eb200-2" x="17" y="22" width="1" height="1"/><rect class="eb200-3" x="17" y="23" width="1" height="1"/><rect class="eb200-2" x="17" y="24" width="1" height="1"/><rect class="eb200-2" x="18" y="29" width="1" height="1"/><rect class="eb200-2" x="16" y="25" width="1" height="1"/><path class="eb200-4" d="M15,27H14v6h1V27Z"/><path class="eb200-5" d="M16,24V23H13v3h3V24Z"/><path class="eb200-2" d="M12,25v1h1V25Z"/><path class="eb200-3" d="M12,32V31H11V30H10V29H9v4h4V32Z"/><rect class="eb200-2" x="11" y="22" width="1" height="1"/><rect class="eb200-3" x="11" y="23" width="1" height="1"/><rect class="eb200-2" x="11" y="24" width="1" height="1"/><rect class="eb200-2" x="11" y="30" width="1" height="1"/><rect class="eb200-2" x="9" y="24" width="1" height="1"/><path class="eb200-3" d="M10,26v1h2v1H10v1h1v1h1v1h1V26H12V25H11V24H10v1H9v1Z"/><path class="eb200-2" d="M9,29h1V28h2V27H9V25H8v1H7v1H8v6H9V29Z"/><path class="eb200-3" d="M8,27H7v6H8V27Z"/><path class="eb200-2" d="M7,27H6v6H7V27Z"/><rect class="eb200-2" x="10" y="29" width="1" height="1"/><rect class="eb200-2" x="17" y="30" width="1" height="1"/><path class="eb200-2" d="M17,32V31H16V26H13v5H12v1h1v1h1V27h1v6h1V32Z"/><path class="eb200-6" d="M9,26v1h1V26Z"/><path class="eb200-6" d="M19,27h1V26H19Z"/><path class="eb200-2" d="M20,16h1V15H20Z"/><rect class="eb200-2" x="19" y="14" width="1" height="1"/><polygon class="eb200-5" points="13 21 14 21 14 22 15 22 15 21 16 21 16 20 13 20 13 21"/><path class="eb200-5" d="M18,16H16V14h2V13H16V12H15V11H14v1H13v1H11v1h2v2H10v2h1v1h1V18h2v1h1V18h2v1h1V18h1V16Zm-3,1H14V16h1Z"/><rect class="eb200-5" x="19" y="15" width="1" height="1"/><rect class="eb200-5" x="9" y="15" width="1" height="1"/><path class="eb200-2" d="M19,17h1V16H19Z"/><rect class="eb200-2" x="9" y="14" width="1" height="1"/><path class="eb200-2" d="M10,16H9v1h1Z"/><path class="eb200-2" d="M8,15v1H9V15Z"/><rect class="eb200-2" x="14" y="16" width="1" height="1"/><path class="eb200-7" d="M11,15V14H10v2h1Z"/><path class="eb200-7" d="M13,16V14H12v2Z"/><path class="eb200-7" d="M16,14v2h1V14Z"/><polygon class="eb200-7" points="18 15 18 16 19 16 19 15 19 14 18 14 18 15"/><path class="eb200-2" d="M11,16h1V14H11v2Z"/><path class="eb200-2" d="M18,14H17v2h1V14Z"/><rect class="eb200-8" x="18" y="13" width="1" height="1"/><path class="eb200-8" d="M17,13V12H16v1Z"/><rect class="eb200-8" x="10" y="13" width="1" height="1"/><path class="eb200-8" d="M13,12H12v1h1Z"/><path class="eb200-9" d="M12,22v1h5V22h2V20h1V17H19v1H18v1H16v2H15v1H14V21H13V19h1V18H12v1H11V18H10V17H9v3h1v2h2Z"/><path class="eb200-9" d="M15,18v1h1V18Z"/><path class="eb200-10" d="M18,23h1V22H18Z"/><path class="eb200-9" d="M18,24h1V23H18Z"/><path class="eb200-10" d="M17,24V23H16v1Z"/><path class="eb200-9" d="M16,24v1h1V24Z"/><path class="eb200-10" d="M13,24V23H12v1Z"/><path class="eb200-9" d="M13,24H12v1h1Z"/><path class="eb200-10" d="M11,22H10v1h1Z"/><path class="eb200-9" d="M11,23H10v1h1Z"/><path class="eb200-2" d="M14,19H13v1h3V19H14Z"/><path class="eb200-2" d="M16,18v1h1V18Z"/><rect class="eb200-11" x="21" y="12" width="1" height="1"/><path class="eb200-11" d="M10,13h2V12h2V11h1v1h2v1h2v1h1V12h1V11H20V10H19V9H17V8H12V9H10v1H9v1H8v1H9v2h1Z"/><path class="eb200-11" d="M21,15V14H20v1Z"/><path class="eb200-11" d="M9,14H8v1H9Z"/><rect class="eb200-11" x="7" y="12" width="1" height="1"/></svg>