<svg xmlns="http://www.w3.org/2000/svg" viewBox="0 0 29 33"><defs><style>polygon,rect,path{shape-rendering:crispedges;}.ja70-1{fill:#6b4f99;}.ja70-2{fill:#000000;}.ja70-3{fill:#508e5d;}.ja70-4{fill:#c5e2d0;}.ja70-5{fill:#e8b795;}.ja70-6{fill:#ffffff;}.ja70-7{fill:#7f5018;}.ja70-8{fill:#fad000;}.ja70-9{fill:#7f5018;}.ja70-10{fill:#10bcff;}.ja70-11{fill:#455054;}.ja70-12{fill:#ffffff;}.ja70-13{fill:#900;}</style></defs><path class="ja70-1" d="M8,32H6V31H5V22H6V21H7V20H5v1H2V17H5V16H8V14H9V12H8v1H7V12H8V11H9V10h1V9h2V8h5V9h2v1h1v1h1v1h1v1H21V12H20v2h1v2H20v3H19v1H18v1H17v1h1v1h1v2h2v1h1v1h1v6h6V0H0V33H8Z"/><path class="ja70-1" d="M8,19v3H9v2H8v1h2V23h1V22h1V21H11V20H10V19H9V16H8v3Z"/><path class="ja70-2" d="M23,27H22v6h1V27Z"/><rect class="ja70-2" x="21" y="26" width="1" height="1"/><path class="ja70-3" d="M21,28v2h1V27H21Z"/><path class="ja70-3" d="M21,31v2h1V31Z"/><path class="ja70-2" d="M21,30V27H20v6h1V30Z"/><path class="ja70-2" d="M20,26h1V25H19v1Z"/><path class="ja70-3" d="M20,32V26H19V25H18v1H17v1H16v2H15v1H14V29H13V27H12V26H11V25H10v1H9v6h1v1h4V32h1v1h4V32Zm-9-3H10V28h1Zm2,2H12V30h1Zm4,0H16V30h1Zm1-2V28h1v1Z"/><path class="ja70-3" d="M14,24h1v1h1V23H13v2h1Z"/><path class="ja70-2" d="M9,31V27H8V26h2V25H8V24H7v7H6v1H8v1H9V31Z"/><path class="ja70-3" d="M6,25H7V24H6Z"/><path class="ja70-3" d="M7,30H6v1H7Z"/><path class="ja70-3" d="M6,27v2H7V26H6Z"/><path class="ja70-2" d="M6,29V22H5v9H6V29Z"/><rect class="ja70-4" x="10" y="28" width="1" height="1"/><rect class="ja70-4" x="12" y="30" width="1" height="1"/><rect class="ja70-4" x="14" y="32" width="1" height="1"/><rect class="ja70-4" x="16" y="30" width="1" height="1"/><rect class="ja70-4" x="18" y="28" width="1" height="1"/><path class="ja70-4" d="M8,27H9V26H8Z"/><path class="ja70-4" d="M19,32v1h1V32Z"/><path class="ja70-4" d="M9,32v1h1V32Z"/><path class="ja70-4" d="M6,30H7V29H6Z"/><path class="ja70-4" d="M6,26H7V25H6Z"/><path class="ja70-4" d="M21,31h1V30H21Z"/><path class="ja70-4" d="M20,27h1V26H20Z"/><path class="ja70-2" d="M20,16h1V15H20Z"/><rect class="ja70-2" x="19" y="14" width="1" height="1"/><path class="ja70-5" d="M19,15H16V14h2V13H16V12H15V11H14v1H12v1h1v2H9v1h1v3h1v1h1v1h1v1h3V21h1V20h1V19h1V16h1V15Zm-5,1h1v1H14Zm3,3H16v1H13V19H12V18h5Z"/><path class="ja70-5" d="M11,13H10v1h2V13Z"/><path class="ja70-2" d="M19,17v2h1V16H19Z"/><rect class="ja70-2" x="18" y="19" width="1" height="1"/><rect class="ja70-2" x="17" y="20" width="1" height="1"/><path class="ja70-2" d="M16,22H13V21H12v1H11v1h1v2h1V23h3v2h1V23h1V22H17V21H16Z"/><rect class="ja70-2" x="11" y="20" width="1" height="1"/><rect class="ja70-2" x="10" y="19" width="1" height="1"/><path class="ja70-2" d="M10,15h2V14H9v1Z"/><path class="ja70-2" d="M10,16H9v3h1V16Z"/><path class="ja70-2" d="M9,15H8v1H9Z"/><rect class="ja70-2" x="14" y="16" width="1" height="1"/><path class="ja70-6" d="M18,15h1V14H18Z"/><path class="ja70-6" d="M13,14H12v1h1Z"/><path class="ja70-2" d="M17,14H16v1h2V14Z"/><rect class="ja70-7" x="18" y="13" width="1" height="1"/><path class="ja70-7" d="M17,13V12H16v1Z"/><path class="ja70-7" d="M13,13H12v1h1Z"/><rect class="ja70-2" x="14" y="29" width="1" height="1"/><rect class="ja70-2" x="12" y="26" width="1" height="1"/><path class="ja70-2" d="M15,28v1h1V27H15Z"/><rect class="ja70-2" x="16" y="26" width="1" height="1"/><path class="ja70-2" d="M13,27v2h1V27Z"/><rect class="ja70-2" x="17" y="25" width="1" height="1"/><rect class="ja70-2" x="11" y="25" width="1" height="1"/><rect class="ja70-2" x="14" y="24" width="1" height="1"/><rect class="ja70-2" x="13" y="25" width="1" height="1"/><rect class="ja70-2" x="15" y="25" width="1" height="1"/><rect class="ja70-8" x="16" y="25" width="1" height="1"/><path class="ja70-8" d="M15,26V25H14v1H13v1h1v2h1V27h1V26Z"/><rect class="ja70-8" x="12" y="25" width="1" height="1"/><path class="ja70-8" d="M12,24V23H11v2h1Z"/><path class="ja70-8" d="M17,24v1h1V23H17Z"/><path class="ja70-2" d="M19,25V23H18v2Z"/><path class="ja70-2" d="M10,23v2h1V23Z"/><path class="ja70-9" d="M12,18v1h4V18Z"/><path class="ja70-2" d="M13,20h3V19H13Z"/><path class="ja70-2" d="M16,19h1V18H16Z"/><rect class="ja70-10" x="21" y="12" width="1" height="1"/><path class="ja70-10" d="M10,13h2V12h2V11h1v1h2v1h2v1h1V12h1V11H20V10H19V9H17V8H12V9H10v1H9v1H8v1H9v2h1Z"/><path class="ja70-10" d="M21,15V14H20v1Z"/><path class="ja70-10" d="M9,14H8v1H9Z"/><rect class="ja70-10" x="7" y="12" width="1" height="1"/><path class="ja70-5" d="M7,24H8V22H6v2Z"/><path class="ja70-11" d="M8,22V20H7v2Z"/><path class="ja70-12" d="M4,19V18H5V17H2v4H5V20H4Z"/><path class="ja70-12" d="M8,19V16H5v1H6v2H5v1H8Z"/><path class="ja70-2" d="M7,21H6v1H7Z"/><path class="ja70-2" d="M9,22H8v2H9Z"/><path class="ja70-13" d="M6,19V17H5v1H4v2H5V19Z"/></svg>