<svg xmlns="http://www.w3.org/2000/svg" viewBox="0 0 29 33"><defs><style>polygon,rect,path{shape-rendering:crispedges;}.ca175-1{fill:#e55b35;}.ca175-2{fill:#000000;}.ca175-3{fill:#b2622b;}.ca175-4{fill:#7eaa7e;}.ca175-5{fill:#ffffff;}.ca175-6{fill:#ffffff;}.ca175-7{fill:#00997c;}.ca175-8{fill:#00e2b7;}.ca175-9{fill:#00755f;}</style></defs><path class="ca175-1" d="M20,23V20H19v1H18v1H17v2h2v1h2V23Z"/><path class="ca175-2" d="M7,27H6v6H7V27Z"/><rect class="ca175-2" x="7" y="26" width="1" height="1"/><path class="ca175-3" d="M8,27H7v6H8V27Z"/><rect class="ca175-3" x="8" y="26" width="1" height="1"/><path class="ca175-2" d="M9,30V27H8v6H9V30Z"/><path class="ca175-2" d="M10,26V25H8v1h2Z"/><path class="ca175-4" d="M14,31v1h1V30H14Z"/><rect class="ca175-4" x="10" y="32" width="1" height="1"/><rect class="ca175-4" x="18" y="32" width="1" height="1"/><path class="ca175-4" d="M17,30h1V29h1v1h1V26H19V25H18v1H17v1H16v1H13V27H12V26H11V25H10v1H9v4h1V29h1v1h1v3h1V29h2v1h1v2H15v1h2V30Z"/><rect class="ca175-4" x="18" y="30" width="1" height="1"/><rect class="ca175-4" x="10" y="30" width="1" height="1"/><path class="ca175-2" d="M11,26h1V25h1v1h3V25h1v1h1V25h1V24H17V22h1V21h1V20h1V18H19V17h2V15H20V11H19V10H18V9H11v1H10v1H9v4H8v2H9v3h1v1h1v1h1v2H10v1h1Zm5-11V14h1v1h2v1H16Zm0,6H13V20h3Zm-5-5H10V14h1v1h2v1Z"/><rect class="ca175-2" x="12" y="26" width="1" height="1"/><path class="ca175-2" d="M13,27v1h3V27H13Z"/><rect class="ca175-3" x="12" y="25" width="1" height="1"/><rect class="ca175-3" x="16" y="25" width="1" height="1"/><path class="ca175-3" d="M15,26H13v1h3V26Z"/><rect class="ca175-2" x="16" y="26" width="1" height="1"/><path class="ca175-3" d="M21,27V26H20v1Z"/><path class="ca175-2" d="M22,32h1V31H22V25H19v1h2v1H20v6h1V32Z"/><path class="ca175-3" d="M23,26V25H22v6h1V26Z"/><path class="ca175-2" d="M23,26v5h1V25H23Z"/><path class="ca175-5" d="M20,30H19v1H18V30H17v3h1V32h1v1h1V30Z"/><rect class="ca175-5" x="18" y="29" width="1" height="1"/><path class="ca175-5" d="M16,32V30H15v2Z"/><path class="ca175-5" d="M14,32V30h1V29H13v4h2V32Z"/><path class="ca175-5" d="M12,30H11v1H10V30H9v3h1V32h1v1h1V30Z"/><rect class="ca175-5" x="10" y="29" width="1" height="1"/><rect class="ca175-3" x="13" y="20" width="3" height="1"/><path class="ca175-3" d="M19,16V15H16v1h3Z"/><path class="ca175-3" d="M13,15H10v1h3Z"/><path class="ca175-6" d="M11,14H10v1h1Z"/><path class="ca175-6" d="M17,14H16v1h1Z"/><path class="ca175-1" d="M0,9V33H6V27H7V26H8V25h2V24h2V22H11V21H10V20H9V17H8V15H9V11h1V10h1V9h7v1h1v1h1v4h1v2h3v1h1V17h1v1H25v5H24v8H23v1H21v1h8V0H0Z"/><path class="ca175-1" d="M20,18h1V17H20Z"/><path class="ca175-7" d="M20,21v2h1V21Z"/><path class="ca175-2" d="M22,20V18H21v2Z"/><path class="ca175-2" d="M23,19v1h1V18H23Z"/><rect class="ca175-2" x="22" y="21" width="1" height="1"/><path class="ca175-8" d="M23,22H21v1h3V22Z"/><path class="ca175-8" d="M20,21h2V20H21V18H20v3Z"/><path class="ca175-8" d="M22,18v2h1V18h1V17H21v1Z"/><path class="ca175-8" d="M23,20v1h2V18H24v2Z"/><path class="ca175-9" d="M21,23v2h3V23H21Z"/><path class="ca175-7" d="M24,21.223V23h1V21H24Z"/><path class="ca175-8" d="M19,17v1h1V17Z"/><rect class="ca175-8" x="25" y="17" width="1" height="1"/><rect class="ca175-7" x="22" y="20" width="1" height="1"/><path class="ca175-6" d="M21,21v1h1V21Z"/><path class="ca175-6" d="M24,22V21H23v1Z"/></svg>