<svg xmlns="http://www.w3.org/2000/svg" viewBox="0 0 29 33"><defs><style>polygon,rect,path{shape-rendering:crispedges;}.oa105-1{fill:#db5a8e;}.oa105-2{fill:#000000;}.oa105-3{fill:#508e91;}.oa105-4{fill:#333333;}.oa105-5{fill:#efcaaf;}.oa105-6{fill:#184144;}.oa105-7{fill:#ffffff;}.oa105-8{fill:#893a1f;}.oa105-9{fill:#00686d;}</style></defs><path class="oa105-1" d="M0,33H6V27H7V26H8V25h2V24h2V21H11V20H9V19H8V11H9V10h1V9h1V8h7V9h1v1h1v1h1v8H20v1H18v1H17v3h2v1h2v1h1v1h1v6h6V0H0Z"/><path class="oa105-2" d="M23,27H22v6h1V27Z"/><rect class="oa105-2" x="21" y="26" width="1" height="1"/><path class="oa105-3" d="M21,28v2h1V27H21Z"/><path class="oa105-3" d="M21,31v2h1V31Z"/><path class="oa105-2" d="M21,30V27H20v6h1V30Z"/><path class="oa105-3" d="M20,32V26H19V25H18v3h1v1H18v4h1V32Z"/><path class="oa105-2" d="M20,26h1V25H19v1Z"/><path class="oa105-2" d="M18,29V25h1V24H17v1H16v1h1v7h1V29Z"/><path class="oa105-4" d="M17,26H16v1H13V26H12v7h5V26Z"/><path class="oa105-2" d="M13,26v1h3V26H13Z"/><path class="oa105-2" d="M13,23h3v1h1V21H16v1H13V21H12v3h1Z"/><path class="oa105-5" d="M13,25v1h3V25h1V24H16V23H13v1H12v1Z"/><path class="oa105-2" d="M12,26h1V25H12V24H10v1h1v8h1V26Z"/><path class="oa105-3" d="M11,29H10V28h1V25H10v1H9v6h1v1h1V29Z"/><path class="oa105-2" d="M10,26V25H8v1h2Z"/><path class="oa105-2" d="M9,31V27H8v6H9V31Z"/><rect class="oa105-2" x="7" y="26" width="1" height="1"/><path class="oa105-3" d="M7,31v2H8V31Z"/><path class="oa105-3" d="M7,30H8V27H7v3Z"/><path class="oa105-2" d="M7,30V27H6v6H7V30Z"/><path class="oa105-6" d="M10,29h1V28H10Z"/><path class="oa105-6" d="M19,29V28H18v1Z"/><path class="oa105-6" d="M9,27V26H8v1Z"/><path class="oa105-6" d="M19,32v1h1V32Z"/><path class="oa105-6" d="M9,32v1h1V32Z"/><path class="oa105-6" d="M7,31H8V30H7Z"/><path class="oa105-6" d="M21,31h1V30H21Z"/><path class="oa105-6" d="M20,27h1V26H20Z"/><path class="oa105-5" d="M18,14h1V13H17v1Z"/><path class="oa105-5" d="M13,22h3V21h1V20h1V19h1V16h1V15H16V13h1V11H15V10H14v1H13v2H11v1h2v1H9v1h1v3h1v1h1v1h1Zm1-6h1v1H14Zm-2,3V18h1v1h3v1H13V19Z"/><path class="oa105-2" d="M20,16H19v3h1V16Z"/><path class="oa105-2" d="M18,19v1h1V19Z"/><rect class="oa105-2" x="17" y="20" width="1" height="1"/><rect class="oa105-2" x="11" y="20" width="1" height="1"/><path class="oa105-2" d="M10,19v1h1V19Z"/><path class="oa105-2" d="M10,18V16H9v3h1Z"/><rect class="oa105-2" x="14" y="16" width="1" height="1"/><path class="oa105-7" d="M13,15V14H12v1Z"/><path class="oa105-7" d="M10,15h1V14H10Z"/><path class="oa105-7" d="M18,14v1h1V14Z"/><path class="oa105-7" d="M16,14v1h1V14Z"/><path class="oa105-2" d="M12,15V14H11v1Z"/><path class="oa105-2" d="M17,14v1h1V14Z"/><path class="oa105-8" d="M12,13h1V12H12Z"/><path class="oa105-8" d="M17,13H16v1h1Z"/><rect class="oa105-2" x="13" y="19" width="3" height="1"/><rect class="oa105-2" x="12" y="18" width="1" height="1"/><path class="oa105-9" d="M9,16V15h1V14h1V13h1V12h1V11h1V10h1v1h2v2h2v2h1v4h1V11H20V10H19V9H18V8H11V9H10v1H9v1H8v8H9V16Z"/><path class="oa105-9" d="M9,19v1h1V19Z"/><path class="oa105-9" d="M19,20h1V19H19Z"/></svg>