<svg xmlns="http://www.w3.org/2000/svg" viewBox="0 0 29 33"><defs><style>polygon,rect,path{shape-rendering:crispedges;}.aa246-1{fill:#397d98;}.aa246-2{fill:#000000;}.aa246-3{fill:#b2622b;}.aa246-4{fill:#ff791f;}.aa246-5{fill:#ffb38d;}.aa246-6{fill:#473a35;}.aa246-7{fill:#5a2de2;}.aa246-8{fill:#cbed03;}.aa246-9{fill:#00e070;}.aa246-10{fill:#ffffff;}.aa246-11{fill:#6e12ff;}</style></defs><path class="aa246-1" d="M0,33H6V24H7V23H8v1H9v1h1V24h2V21H11V20H10V19H9V16H8V14H9V11h1V10h1V9h7v1h1v1h1v3h1v2H20v3H19v1H18v1H17v3h2v1h2v1h1v1h1v6h6V0H0Z"/><path class="aa246-2" d="M23,31V27H22v6h1Z"/><rect class="aa246-2" x="21" y="26" width="1" height="1"/><path class="aa246-3" d="M22,31V27H21v6h1Z"/><rect class="aa246-3" x="20" y="26" width="1" height="1"/><path class="aa246-2" d="M21,31V27H20v6h1Z"/><path class="aa246-2" d="M20,26h1V25H19v1Z"/><path class="aa246-4" d="M10,31V30h1V29h1V28h1V27H12V26H11V25H10v2H9v6h1Z"/><path class="aa246-4" d="M20,31V26H19V25H18v1H17v1H16v1h1v1h1v1h1v3h1Z"/><rect class="aa246-4" x="16" y="30" width="1" height="1"/><path class="aa246-4" d="M16,32H12v1h5V32Z"/><rect class="aa246-4" x="12" y="30" width="1" height="1"/><path class="aa246-2" d="M13,23h3v1h1V21H16v1H13V21H12v3h1Z"/><path class="aa246-2" d="M9,31V27H8v6H9Z"/><path class="aa246-3" d="M8,31V27H9V25H8V24H7v9H8Z"/><path class="aa246-2" d="M7,31V24H6v9H7Z"/><path class="aa246-2" d="M11,26h1V24H10v1h1Z"/><rect class="aa246-2" x="12" y="26" width="1" height="1"/><rect class="aa246-2" x="16" y="26" width="1" height="1"/><path class="aa246-2" d="M17,26h1V25h1V24H17Z"/><path class="aa246-2" d="M14,27H13v1h3V27Z"/><path class="aa246-3" d="M12,26h1v1h3V26h1V24H16V23H13v1H12Z"/><path class="aa246-5" d="M19,31V30H18V29H17V28H12v1H11v1H10v3h2V32h5v1h2Zm-6,0H12V30h1Zm4,0H16V30h1Z"/><rect class="aa246-2" x="20" y="15" width="1" height="1"/><rect class="aa246-2" x="19" y="13" width="1" height="1"/><rect class="aa246-3" x="11" y="10" width="1" height="1"/><path class="aa246-3" d="M13,22h3V21h1V20h1V19h1V17H16V16H15v1H14V16H13v1H10v2h1v1h1v1h1Zm-1-3V18h5v1H16v1H13V19Z"/><path class="aa246-3" d="M15,10H13v1h3V10Z"/><path class="aa246-3" d="M14,14h2V13H13v1Z"/><rect class="aa246-3" x="14" y="15" width="1" height="1"/><rect class="aa246-3" x="17" y="10" width="1" height="1"/><path class="aa246-2" d="M19,17v2h1V16H19Z"/><rect class="aa246-2" x="18" y="19" width="1" height="1"/><rect class="aa246-2" x="17" y="20" width="1" height="1"/><rect class="aa246-2" x="11" y="20" width="1" height="1"/><rect class="aa246-2" x="10" y="19" width="1" height="1"/><rect class="aa246-2" x="9" y="13" width="1" height="1"/><path class="aa246-2" d="M10,17V16H9v3h1Z"/><rect class="aa246-2" x="8" y="15" width="1" height="1"/><rect class="aa246-2" x="14" y="16" width="1" height="1"/><polygon class="aa246-6" points="16 19 17 19 17 18 13 18 13 19 16 19"/><rect class="aa246-2" x="13" y="19" width="3" height="1"/><rect class="aa246-2" x="12" y="18" width="1" height="1"/><path class="aa246-2" d="M9,27h1V25H9Z"/><rect class="aa246-2" x="8" y="24" width="1" height="1"/><rect class="aa246-2" x="7" y="23" width="1" height="1"/><rect class="aa246-7" x="18" y="10" width="1" height="1"/><path class="aa246-7" d="M12,11h1V10h3v1h1V10h1V9H11v1h1Z"/><rect class="aa246-7" x="10" y="10" width="1" height="1"/><path class="aa246-8" d="M19,15v1h1V15h1V14H19Z"/><path class="aa246-8" d="M17,14h2V13H16v1Z"/><path class="aa246-9" d="M18,16h1V14H16v2Z"/><path class="aa246-8" d="M18,16H16v1h3V16Z"/><path class="aa246-8" d="M16,14H13v2h1V15h1v1h1Z"/><path class="aa246-8" d="M12,14h1V13H10v1Z"/><path class="aa246-9" d="M13,14H10v2h3Z"/><path class="aa246-8" d="M11,16H10v1h3V16Z"/><path class="aa246-8" d="M10,15V14H8v1H9v1h1Z"/><path class="aa246-10" d="M11,12h9V11H9v1Z"/><path class="aa246-11" d="M11,13h9V12H9v1Z"/></svg>