<svg xmlns="http://www.w3.org/2000/svg" viewBox="0 0 29 33"><defs><style>polygon,rect,path{shape-rendering:crispedges;}.fb250-1{fill:#d4a122;}.fb250-2{fill:#000000;}.fb250-3{fill:#6f7032;}.fb250-4{fill:#99004d;}.fb250-5{fill:#6d3e35;}.fb250-6{fill:#492a23;}.fb250-7{fill:#492a23;}.fb250-8{fill:#0068ff;}</style></defs><path class="fb250-1" d="M0,33H6V24H7V23H8v1h2V23h1V21H10V20H9V16H8V15H9V14H8V12H9V11H8V10H9V9H8V8h2V7h1V8h1V6h1V7h1V8h1V7h1V6h1V7h1V8h1V9h2v2H20v1h1v1H20v1h1v1H20v1H19v2h0V16h1V15h1v1H20v4H19v1H18v2h1v1h2V23h1v1h1v9h6V0H0ZM19,7h1V8H19Z"/><rect class="fb250-1" x="9" y="16" width="1"/><rect class="fb250-1" x="14" y="16" width="1"/><path class="fb250-2" d="M7,27V24H6v9H7V27Z"/><path class="fb250-3" d="M8,27H7v6H8V27Z"/><path class="fb250-2" d="M9,29h1V28h2V27H10V24H8v1H9v2H8v6H9V29Z"/><path class="fb250-3" d="M12,32V31H11V30H10V29H9v4h4V32Z"/><rect class="fb250-2" x="10" y="23" width="1" height="1"/><path class="fb250-3" d="M10,27h2v1H10v1h1v1h1v1h1V26H12V25H11V24H10v3Z"/><rect class="fb250-3" x="11" y="23" width="1" height="1"/><rect class="fb250-2" x="11" y="24" width="1" height="1"/><rect class="fb250-2" x="10" y="29" width="1" height="1"/><path class="fb250-2" d="M12,24h1V22H11v1h1Z"/><rect class="fb250-2" x="12" y="25" width="1" height="1"/><path class="fb250-4" d="M15,27H14v6h1V27Z"/><path class="fb250-5" d="M17,25V24H16V23H13v1H12v1h1v1h3V25Z"/><rect class="fb250-2" x="16" y="25" width="1" height="1"/><path class="fb250-3" d="M20,29H19v1H18v1H17v1H16v1h4V29Z"/><rect class="fb250-3" x="17" y="23" width="1" height="1"/><rect class="fb250-2" x="17" y="24" width="1" height="1"/><rect class="fb250-2" x="17" y="30" width="1" height="1"/><rect class="fb250-2" x="18" y="23" width="1" height="1"/><path class="fb250-3" d="M18,25H17v1H16v5h1V30h1V29h1V28H17V27h2V24H18Z"/><path class="fb250-2" d="M21,27H20V25h1V24H19v3H17v1h2v1h1v4h1V27Z"/><path class="fb250-3" d="M22,27H21v6h1V27Z"/><path class="fb250-2" d="M23,24H22v9h1V24Z"/><rect class="fb250-2" x="18" y="29" width="1" height="1"/><rect class="fb250-2" x="11" y="30" width="1" height="1"/><path class="fb250-2" d="M17,32V31H16V26H13v5H12v1h1v1h1V27h1v6h1V32Z"/><rect class="fb250-2" x="20" y="15" width="1" height="1"/><rect class="fb250-5" x="11" y="10" width="1" height="1"/><rect class="fb250-5" x="18" y="13" width="1" height="1"/><rect class="fb250-5" x="15" y="20" width="1" height="1"/><rect class="fb250-5" x="13" y="20" width="1" height="1"/><path class="fb250-5" d="M10,16h0v2h1v1h1V18h2v1h1V18h2v1h1V18h1V16h1V15H18v1H16V15H15V14H14v1H13v1H11V15H9v1Zm4,1V16h1v1H14Z"/><rect class="fb250-5" x="10" y="11" width="1" height="1"/><path class="fb250-5" d="M18,12V10H17v1H16v1H15V10H14v1H13v1h0v1h4V12Z"/><rect class="fb250-5" x="10" y="13" width="1"/><path class="fb250-2" d="M16,23v1h1V23h1V22H16Z"/><rect class="fb250-2" x="11" y="10" width="1"/><rect class="fb250-2" x="14" y="10" width="1"/><rect class="fb250-2" x="17" y="10" width="1"/><rect class="fb250-2" x="10" y="11" width="1"/><polygon class="fb250-2" points="9 15 8 15 8 16 9 16 9 16 9 15"/><polygon class="fb250-2" points="15 17 15 16 14 16 14 17 14 17 15 17 15 17"/><rect class="fb250-6" x="10" y="13" width="1" height="1"/><path class="fb250-6" d="M11,12v1h2V12Z"/><rect class="fb250-6" x="17" y="12" width="1" height="1"/><rect class="fb250-6" x="18" y="13" width="1"/><path class="fb250-7" d="M14,18H13v1h1Z"/><path class="fb250-7" d="M13,23h3V22h2V21h1V20h1V16H19v2H18v1H17V18H15v1h1v2H15V20H14v1H13V19H11V18H10V16H9v4h1v1h1v1h2Z"/><path class="fb250-2" d="M13,19v1h3V19H13Z"/><path class="fb250-2" d="M12,18v1h1V18Z"/><path class="fb250-5" d="M20,25v2h2V24H21v1Z"/><rect class="fb250-2" x="21" y="23" width="1" height="1"/><path class="fb250-5" d="M7,27H9V25H8V24H7v3Z"/><rect class="fb250-2" x="7" y="23" width="1" height="1"/><rect class="fb250-8" x="20" y="14" width="1" height="1"/><path class="fb250-8" d="M10,13h1V12H10V11h1V10h1v1H11v1h2V11h1V10h1v2h1V11h1V10h1v3h1v1h1V13h1V12H20V11h1V9H19V8H18V7H17V6H16V7H15V8H14V7H13V6H12V8H11V7H10V8H8V9H9v1H8v1H9v1H8v2h2Z"/><rect class="fb250-8" x="19" y="7" width="1" height="1"/><path class="fb250-2" d="M11,16h2V15h1V14h1v1h1v1h2V15h2V14H18V13H11v1H9v1h2Z"/></svg>