<svg xmlns="http://www.w3.org/2000/svg" viewBox="0 0 29 33"><defs><style>polygon,rect,path{shape-rendering:crispedges;}.ib61-1{fill:#6b4f99;}.ib61-2{fill:#e8b795;}.ib61-3{fill:#000000;}.ib61-4{fill:#ffffff;}.ib61-5{fill:#316a6d;}.ib61-6{fill:#316a6d;}.ib61-7{fill:#00686d;}</style></defs><path class="ib61-1" d="M0,33H6V27H7V26H8V25h2V24h2V21H10V20H9V18H8V13H9V11h1V10h1V9h7v1h1v1h1v1h1v6H20v2H19v1H17v3h2v1h1V24h1V23h1v1h1v9h6V0H0Z"/><path class="ib61-2" d="M22,24H21v1H20v2h1v6h1V24Z"/><path class="ib61-3" d="M23,24H22v9h1V24Z"/><path class="ib61-3" d="M7,27H6v6H7V27Z"/><path class="ib61-2" d="M8,27H7v6H8V27Z"/><rect class="ib61-3" x="7" y="26" width="1" height="1"/><path class="ib61-3" d="M9,27H8v6H9V27Z"/><path class="ib61-2" d="M20,27H19V25H17V24H16V23H13v1H12v1H10v1H8v1H9v6h5V29h1v4h5V27Zm-8,2H11V28h1Zm6,0H17V28h1Z"/><path class="ib61-3" d="M10,25H8v1h2Z"/><rect class="ib61-3" x="11" y="28" width="1" height="1"/><path class="ib61-3" d="M12,24H10v1h2Z"/><path class="ib61-3" d="M13,23h3v1h1V21H16v1H13V21H12v3h1Z"/><path class="ib61-3" d="M15,29H14v4h1V29Z"/><rect class="ib61-3" x="17" y="28" width="1" height="1"/><path class="ib61-3" d="M18,25h1V24H17v1Z"/><path class="ib61-3" d="M21,27H20v6h1V27Z"/><rect class="ib61-3" x="19" y="14" width="1" height="1"/><rect class="ib61-2" x="19" y="15" width="1" height="1"/><path class="ib61-2" d="M13,22h3V21h1V20h1V15H16v1H15v1H14V16h1V14h1V12H15V11H14v4H13v2H12V15H11v5h1v1h1Zm-1-3V18h5v1H16v1H13V19Z"/><rect class="ib61-2" x="17" y="13" width="1" height="1"/><path class="ib61-2" d="M13,14V13H11v1h2Z"/><rect class="ib61-2" x="9" y="15" width="1" height="1"/><rect class="ib61-2" x="17" y="11" width="1" height="1"/><rect class="ib61-3" x="19" y="16" width="1" height="1"/><rect class="ib61-3" x="9" y="16" width="1" height="1"/><rect class="ib61-3" x="14" y="16" width="1" height="1"/><path class="ib61-4" d="M12,14v1h1V14Z"/><path class="ib61-4" d="M16,14v1h1V14Z"/><path class="ib61-3" d="M11,14v1h1V14Z"/><path class="ib61-3" d="M17,14v1h1V14Z"/><path class="ib61-5" d="M13,12H11v1h2Z"/><rect class="ib61-5" x="17" y="12" width="1" height="1"/><path class="ib61-6" d="M19,18H18v2H17v1h2V18Z"/><rect class="ib61-6" x="19" y="17" width="1" height="1"/><path class="ib61-6" d="M11,20V18H10v3h2V20Z"/><rect class="ib61-6" x="9" y="17" width="1" height="1"/><polygon class="ib61-3" points="13 20 16 20 16 19 17 19 17 18 12 18 12 19 13 19 13 20"/><path class="ib61-3" d="M20,27V25H19v2Z"/><rect class="ib61-3" x="20" y="24" width="1" height="1"/><rect class="ib61-3" x="21" y="23" width="1" height="1"/><path class="ib61-7" d="M9,16V15h1v3h1V12h2v3h1V11h1v1h1v2h1V11h1v7h1V14h1v4h1V12H20V11H19V10H18V9H11v1H10v1H9v2H8v5H9V16Z"/><path class="ib61-7" d="M19,19v1h1V18H19Z"/><path class="ib61-7" d="M15,14v2h1V14Z"/><path class="ib61-7" d="M12,16v1h1V15H12Z"/><path class="ib61-7" d="M9,18v2h1V18Z"/></svg>