<svg xmlns="http://www.w3.org/2000/svg" viewBox="0 0 29 33"><defs><style>polygon,rect,path{shape-rendering:crispedges;}.ia227-1{fill:#397d98;}.ia227-2{fill:#000000;}.ia227-3{fill:#ffed9f;}.ia227-4{fill:#e8b795;}.ia227-5{fill:#d8be00;}.ia227-6{fill:#7f5018;}.ia227-7{fill:#fad000;}.ia227-8{fill:#db5800;}</style></defs><path class="ia227-1" d="M0,33H6V27H7V26H8V25h2V22H9V16H8V15H9V10h1V9h1V8h7V9h1v1h1v5h1v1H20v8H19v1h2v1h1v1h1v6h6V0H0Z"/><path class="ia227-2" d="M23,27H22v6h1V27Z"/><rect class="ia227-2" x="21" y="26" width="1" height="1"/><path class="ia227-3" d="M22,27H21v6h1V27Z"/><path class="ia227-2" d="M21,27H20v6h1V27Z"/><path class="ia227-2" d="M20,26h1V25H19v1Z"/><path class="ia227-3" d="M13,31h1V29H13Z"/><path class="ia227-3" d="M20,27h1V26H19v1H18V26H17v1H16v1h3v1H17v2h1V30h1v2H16V29H15v3H12V28h1V27H12V26H11V25H10v1H9v7H20V27Zm-9,2v3H10V28h1Z"/><path class="ia227-4" d="M13,23v2h1V24h1v1h1V23Z"/><path class="ia227-2" d="M9,26h1V25H8v1H7v1H8v6H9V26Z"/><path class="ia227-3" d="M8,27H7v6H8V27Z"/><path class="ia227-2" d="M7,27H6v6H7V27Z"/><path class="ia227-5" d="M14,31H13V28H12v4h3V30H14Z"/><path class="ia227-5" d="M10,29v3h1V28H10Z"/><path class="ia227-5" d="M16,30v2h3V30H18v1H17V29h2V28H16v2Z"/><rect class="ia227-2" x="20" y="15" width="1" height="1"/><path class="ia227-4" d="M13,22h3V21h1V20h1V19h1V16H18v1H16V16H15v1H14V16H13v1H11V16H10v3h1v1h1v1h1Zm-1-3V18h1v1h3v1H13V19Z"/><path class="ia227-4" d="M17,13V12h1V11H17V10H14v1H12v1h1v1H11v1h5V13Z"/><path class="ia227-4" d="M18,13H17v1h2V13Z"/><rect class="ia227-4" x="19" y="15" width="1" height="1"/><rect class="ia227-4" x="14" y="15" width="1" height="1"/><path class="ia227-2" d="M19,17v2h1V16H19Z"/><rect class="ia227-2" x="18" y="19" width="1" height="1"/><rect class="ia227-2" x="17" y="20" width="1" height="1"/><rect class="ia227-2" x="11" y="20" width="1" height="1"/><rect class="ia227-2" x="10" y="19" width="1" height="1"/><path class="ia227-2" d="M10,18V16H9v3h1Z"/><rect class="ia227-2" x="8" y="15" width="1" height="1"/><rect class="ia227-2" x="14" y="16" width="1" height="1"/><path class="ia227-6" d="M13,12H11v1h2Z"/><rect class="ia227-6" x="16" y="13" width="1" height="1"/><rect class="ia227-6" x="17" y="12" width="1" height="1"/><path class="ia227-2" d="M14,30h1V29H14Z"/><rect class="ia227-2" x="12" y="26" width="1" height="1"/><path class="ia227-2" d="M15,28v1h1V27H15Z"/><rect class="ia227-2" x="16" y="26" width="1" height="1"/><path class="ia227-2" d="M14,29V27H13v2Z"/><rect class="ia227-2" x="17" y="25" width="1" height="1"/><rect class="ia227-2" x="14" y="24" width="1" height="1"/><rect class="ia227-2" x="13" y="25" width="1" height="1"/><rect class="ia227-2" x="15" y="25" width="1" height="1"/><path class="ia227-2" d="M13,24V23h3v2h1V21H16v1H13V21H12v4h1Z"/><rect class="ia227-7" x="16" y="25" width="1" height="1"/><path class="ia227-7" d="M15,26V25H14v1H13v1h1v2h1V27h1V26Z"/><rect class="ia227-7" x="12" y="25" width="1" height="1"/><rect class="ia227-2" x="13" y="19" width="3" height="1"/><rect class="ia227-2" x="12" y="18" width="1" height="1"/><path class="ia227-8" d="M19,20H18v1H17v4h1v2h1V24h1V19H19Z"/><rect class="ia227-8" x="9" y="15" width="1" height="1"/><path class="ia227-8" d="M11,13V12h1V11h2V10h3v1h1v2h1v1h1V10H19V9H18V8H11V9H10v1H9v4h2Z"/><path class="ia227-8" d="M11,26h1V21H11V20H10V19H9v3h1v3h1Z"/><path class="ia227-2" d="M10,16h1v1h2V16h1V15h1v1h1v1h2V16h1V15h1V14H9v1h1Z"/></svg>