<svg xmlns="http://www.w3.org/2000/svg" viewBox="0 0 29 33"><defs><style>polygon,rect,path{shape-rendering:crispedges;}.eb228-1{fill:#29834f;}.eb228-2{fill:#000000;}.eb228-3{fill:#3e5e00;}.eb228-4{fill:#ffffff;}.eb228-5{fill:#e8b795;}.eb228-6{fill:#90a2a3;}.eb228-7{fill:#ffffff;}.eb228-8{fill:#7f5018;}.eb228-9{fill:#7f5018;}.eb228-10{fill:#ffce00;}.eb228-11{fill:#508e91;}</style></defs><path class="eb228-1" d="M0,33H6V27H7V26H8V25H9V24h1V23h1V21H10V20H9V16H8V14H9V11h1V10h1V9h2V7h1V6h2V5h2V6H17V7h1V9h1v2h1v3h1v2H20v4H19v1H18v2h1v1h1v1h1v1h1v1h1v6h6V0H0Z"/><path class="eb228-2" d="M23,27H22v6h1V27Z"/><path class="eb228-3" d="M22,27H21v6h1V27Z"/><path class="eb228-2" d="M21,27h1V26H21V25H20v2H17v1h2v1h1v4h1V27Z"/><rect class="eb228-2" x="19" y="24" width="1" height="1"/><path class="eb228-3" d="M20,29H19v1H18v1H17v1H16v1h4V29Z"/><rect class="eb228-2" x="18" y="23" width="1" height="1"/><path class="eb228-3" d="M18,25H17v1H16v5h1V30h1V29h1V28H17V27h2V26h1V25H19V24H18Z"/><rect class="eb228-3" x="17" y="23" width="1" height="1"/><rect class="eb228-2" x="17" y="24" width="1" height="1"/><rect class="eb228-2" x="18" y="29" width="1" height="1"/><rect class="eb228-2" x="16" y="25" width="1" height="1"/><path class="eb228-4" d="M15,27H14v6h1V27Z"/><path class="eb228-2" d="M12,24h1V22H11v1h1Z"/><path class="eb228-5" d="M17,25V24H16V23H13v1H12v1h1v1h3V25Z"/><rect class="eb228-2" x="12" y="25" width="1" height="1"/><path class="eb228-3" d="M12,32V31H11V30H10V29H9v4h4V32Z"/><rect class="eb228-3" x="11" y="23" width="1" height="1"/><rect class="eb228-2" x="11" y="24" width="1" height="1"/><rect class="eb228-2" x="11" y="30" width="1" height="1"/><rect class="eb228-2" x="10" y="23" width="1" height="1"/><rect class="eb228-2" x="9" y="24" width="1" height="1"/><path class="eb228-3" d="M10,26v1h2v1H10v1h1v1h1v1h1V26H12V25H11V24H10v1H9v1Z"/><path class="eb228-2" d="M9,29h1V28h2V27H9V25H8v1H7v1H8v6H9V29Z"/><path class="eb228-3" d="M8,27H7v6H8V27Z"/><path class="eb228-2" d="M7,27H6v6H7V27Z"/><rect class="eb228-2" x="10" y="29" width="1" height="1"/><rect class="eb228-2" x="17" y="30" width="1" height="1"/><path class="eb228-2" d="M17,32V31H16V26H13v5H12v1h1v1h1V27h1v6h1V32Z"/><path class="eb228-6" d="M9,26v1h1V26Z"/><path class="eb228-6" d="M19,27h1V26H19Z"/><path class="eb228-2" d="M20,16h1V15H20Z"/><path class="eb228-2" d="M19,13v1h1V11H19v2Z"/><path class="eb228-5" d="M16,17V16H15v1H14V16H13v1H10v1h1v1h1V18h5v1h1V18h1V17H16Z"/><rect class="eb228-5" x="15" y="20" width="1" height="1"/><path class="eb228-5" d="M11,13V12h2v2h3V13h1V12h2V11H18V10H15v1H13V10H11v1H10v2Z"/><rect class="eb228-5" x="14" y="15" width="1" height="1"/><rect class="eb228-5" x="13" y="20" width="1" height="1"/><path class="eb228-2" d="M18,11h1V10H18Z"/><path class="eb228-2" d="M16,23v1h1V23h1V22H16Z"/><path class="eb228-2" d="M16,10h2V9H16Z"/><path class="eb228-2" d="M13,9H11v1h2Z"/><rect class="eb228-2" x="10" y="10" width="1" height="1"/><path class="eb228-2" d="M10,13V11H9v3h1Z"/><path class="eb228-2" d="M8,15v1H9V15Z"/><rect class="eb228-2" x="14" y="16" width="1" height="1"/><path class="eb228-7" d="M11,15V14H10v2h1Z"/><path class="eb228-7" d="M12,15v1h1V14H12Z"/><path class="eb228-7" d="M17,16V14H16v2Z"/><path class="eb228-7" d="M19,14H18v2h1V14Z"/><polygon class="eb228-2" points="12 14 11 14 11 15 11 16 12 16 12 15 12 14"/><path class="eb228-2" d="M17,15v1h1V14H17Z"/><path class="eb228-8" d="M13,12H11v1h2Z"/><path class="eb228-8" d="M19,12H17v1h2Z"/><path class="eb228-9" d="M13,23h3V22h2V21h1V20h1V16H19v2H18v1H16v2H15V20H14v1H13V19H11V18H10V16H9v4h1v1h1v1h2Z"/><path class="eb228-2" d="M12,18v1h1V18Z"/><path class="eb228-2" d="M16,18v1h1V18Z"/><path class="eb228-2" d="M15,18H14v1H13v1h3V19H15Z"/><path class="eb228-7" d="M14,18H13v1h1Z"/><path class="eb228-7" d="M15,18v1h1V18Z"/><path class="eb228-10" d="M13,11h2V10h1V9h2V7H17V6h1V5H16V6H14V7H13v4Z"/><path class="eb228-10" d="M19,10V9H18v1Z"/><path class="eb228-11" d="M19,15v1h1V15h1V14H19Z"/><path class="eb228-11" d="M17,16H16v1h3V16H17Z"/><path class="eb228-11" d="M12,14h1V13H10v1h2Z"/><path class="eb228-11" d="M18,14h1V13H16v1h2Z"/><path class="eb228-11" d="M14,16V15h1v1h1V14H13v2Z"/><path class="eb228-11" d="M13,17V16H10v1h3Z"/><path class="eb228-11" d="M10,15V14H8v1H9v1h1Z"/><rect class="eb228-10" x="18" y="9" width="1" height="1"></rect></svg>