<svg xmlns="http://www.w3.org/2000/svg" viewBox="0 0 29 33"><defs><style>polygon,rect,path{shape-rendering:crispedges;}.va49-1{fill:#db5a8e;}.va49-2{fill:#590035;}.va49-3{fill:#000000;}.va49-4{fill:#ce8452;}.va49-5{fill:#cc2f76;}.va49-6{fill:#ffffff;}.va49-7{fill:#492a23;}.va49-8{fill:#492a23;}.va49-9{fill:#cbed03;}</style></defs><path class="va49-1" d="M6,32V27H7V26H8V25h2V22h1V21H10V20H9V18H8V12H9V11h1V10h1V9h7v1h1v1h1v2h1v5H20v2H19v1H18v1h1v3h2v1h1v1h1v6h6V0H0V33H6Z"/><path class="va49-2" d="M18,24H16v1H15v2H14v1h1v1H14v2h2V30h1v1h3V26H19V25H18Zm-1,3H16V26h1Zm2,1v1H18V28Z"/><rect class="va49-2" x="17" y="22" width="1" height="1"/><path class="va49-2" d="M21,28v2h1V27H21Z"/><path class="va49-2" d="M21,31v2h1V31Z"/><path class="va49-2" d="M13,32H10v1h4V32Z"/><path class="va49-2" d="M18,32H15v1h4V32Z"/><path class="va49-2" d="M7,31v2H8V31Z"/><path class="va49-2" d="M7,30H8V27H7v3Z"/><path class="va49-2" d="M9,26v5h3V30h1V27H12V26h1v1h1V25H13V24H11v1H10v1Zm2,2v1H10V28Z"/><rect class="va49-2" x="11" y="22" width="1" height="1"/><path class="va49-3" d="M23,27H22v6h1V27Z"/><rect class="va49-3" x="21" y="26" width="1" height="1"/><path class="va49-3" d="M21,30V27H20v4H14V27H13v4H9V27H8v6H9V32H20v1h1V30Z"/><path class="va49-3" d="M20,26h1V25H19v1Z"/><path class="va49-3" d="M18,24v1h1V22H18v2Z"/><path class="va49-3" d="M17,24V23H16v1Z"/><rect class="va49-3" x="15" y="24" width="1" height="1"/><path class="va49-3" d="M15,26V25H14v2h1Z"/><rect class="va49-3" x="13" y="24" width="1" height="1"/><path class="va49-4" d="M15,24h1V23H13v1h1v1h1Z"/><path class="va49-3" d="M12,23v1h1V23Z"/><path class="va49-3" d="M11,24V22H10v3h1Z"/><path class="va49-3" d="M10,26V25H8v1h2Z"/><rect class="va49-3" x="7" y="26" width="1" height="1"/><path class="va49-3" d="M7,30V27H6v6H7V30Z"/><rect class="va49-4" x="11" y="13" width="1" height="1"/><rect class="va49-4" x="16" y="12" width="1" height="1"/><rect class="va49-4" x="19" y="15" width="1" height="1"/><path class="va49-4" d="M18,15H17v2H16V15H15V11H14v1H13v2h1v2h1v1H14V16H13V15H11v3h5v1h1V18h1V15Z"/><rect class="va49-4" x="9" y="15" width="1" height="1"/><rect class="va49-4" x="11" y="11" width="1" height="1"/><rect class="va49-4" x="17" y="13" width="1" height="1"/><rect class="va49-3" x="9" y="14" width="1" height="1"/><rect class="va49-3" x="14" y="16" width="1" height="1"/><rect class="va49-5" x="10" y="28" width="1" height="1"/><path class="va49-5" d="M12,31h1V30H12Z"/><path class="va49-5" d="M15,28H14v1h1Z"/><path class="va49-5" d="M14,32v1h1V32Z"/><rect class="va49-5" x="12" y="26" width="1" height="1"/><path class="va49-5" d="M16,30v1h1V30Z"/><rect class="va49-5" x="18" y="28" width="1" height="1"/><rect class="va49-5" x="16" y="26" width="1" height="1"/><path class="va49-5" d="M9,27V26H8v1Z"/><path class="va49-5" d="M19,32v1h1V32Z"/><path class="va49-5" d="M9,32v1h1V32Z"/><path class="va49-5" d="M7,31H8V30H7Z"/><path class="va49-5" d="M21,31h1V30H21Z"/><path class="va49-5" d="M20,27h1V26H20Z"/><path class="va49-5" d="M11,23v1h1V23Z"/><path class="va49-5" d="M18,24V23H17v1Z"/><path class="va49-6" d="M13,15V14H12v1Z"/><rect class="va49-6" x="16" y="14" width="1" height="1"/><path class="va49-3" d="M12,14H11v1h1Z"/><rect class="va49-3" x="17" y="14" width="1" height="1"/><rect class="va49-7" x="11" y="12" width="1" height="1"/><rect class="va49-7" x="16" y="13" width="1" height="1"/><rect class="va49-7" x="17" y="12" width="1" height="1"/><path class="va49-8" d="M15,18H13v1h3V18Z"/><path class="va49-8" d="M19,16v2h1V16Z"/><path class="va49-8" d="M12,23h5V22h1V21h1V18H17v1H16v1H13V19H12V18H10v3h1v1h1Z"/><path class="va49-8" d="M10,17V16H9v2h1Z"/><rect class="va49-3" x="13" y="19" width="3" height="1"/><path class="va49-3" d="M12,18v1h1V18Z"/><path class="va49-9" d="M9,15V14h1v4h1V11h1v3h1V12h1V11h1v4h1V12h2v6h1V15h1v3h1V13H20V11H19V10H18V9H11v1H10v1H9v1H8v6H9V15Z"/><path class="va49-9" d="M9,18v2h1V18Z"/><path class="va49-9" d="M13,16h1V14H13v2Z"/><path class="va49-9" d="M17,17V15H16v2Z"/><path class="va49-9" d="M19,19v1h1V18H19Z"/></svg>