<svg xmlns="http://www.w3.org/2000/svg" viewBox="0 0 29 33"><defs><style>polygon,rect,path{shape-rendering:crispedges;}.pa132-1{fill:#7a982c;}.pa132-2{fill:#000000;}.pa132-3{fill:#0079bc;}.pa132-4{fill:#b2622b;}.pa132-5{fill:#0079bc;}.pa132-6{fill:#ffffff;}.pa132-7{fill:#7f5018;}.pa132-8{fill:#7f5018;}.pa132-9{fill:#d8be00;}</style></defs><path class="pa132-1" d="M0,33H6V27H7V26H8V25h2V24h1V23H10V22h1V21H10V20H9V16H8V15H9V10h1V9h1V8h7V9h1v1h1v5h1v1H20v4H19v1H18v1h1v1H18v1h1v1h2v1h1v1h1v6h6V0H0Z"/><path class="pa132-2" d="M23,27H22v6h1V27Z"/><path class="pa132-3" d="M22,27H21v6h1V27Z"/><rect class="pa132-2" x="21" y="26" width="1" height="1"/><path class="pa132-2" d="M21,27H20v6h1V27Z"/><rect class="pa132-3" x="18" y="29" width="1" height="1"/><path class="pa132-3" d="M19,32V31H18v1H17V30H16v1H15v1H13V30H12v2H11V31H10v1H9v1H20V32Z"/><rect class="pa132-3" x="10" y="29" width="1" height="1"/><path class="pa132-3" d="M9,27v2h1V28h1v1h1V25h1V24H11v1H10v1H8v1Z"/><path class="pa132-3" d="M16,25h1v4h1V28h1v1h1V27h1V26H19V25H18V24H16Z"/><path class="pa132-2" d="M20,26h1V25H19v1Z"/><rect class="pa132-2" x="18" y="24" width="1" height="1"/><rect class="pa132-2" x="18" y="22" width="1" height="1"/><rect class="pa132-3" x="17" y="22" width="1" height="1"/><path class="pa132-2" d="M16,23v1h2V23H16Z"/><path class="pa132-2" d="M16,25V24H13v1h3Z"/><path class="pa132-4" d="M16,24V23H13v1h3Z"/><path class="pa132-2" d="M13,23H11v1h2Z"/><path class="pa132-3" d="M12,22H11v1h1Z"/><rect class="pa132-2" x="10" y="24" width="1" height="1"/><rect class="pa132-2" x="10" y="22" width="1" height="1"/><path class="pa132-2" d="M10,25H8v1h2Z"/><path class="pa132-2" d="M9,31V27H8v6H9V31Z"/><path class="pa132-3" d="M8,27H7v6H8V27Z"/><rect class="pa132-2" x="7" y="26" width="1" height="1"/><path class="pa132-2" d="M7,27H6v6H7V27Z"/><path class="pa132-3" d="M14,29v2h1V29Z"/><path class="pa132-3" d="M13,28h2v1h1V25H13v3Z"/><path class="pa132-5" d="M19,30H18V29H17v3h1V31h1v1h1V29H19Z"/><rect class="pa132-5" x="18" y="28" width="1" height="1"/><path class="pa132-5" d="M15,29v2h1V29Z"/><path class="pa132-5" d="M14,30V29h1V28H13v4h2V31H14Z"/><path class="pa132-5" d="M11,29v1H10V29H9v3h1V31h1v1h1V29Z"/><rect class="pa132-5" x="10" y="28" width="1" height="1"/><path class="pa132-2" d="M13,27V25H12v5h1V27Z"/><path class="pa132-2" d="M17,28V25H16v5h1V28Z"/><rect class="pa132-2" x="20" y="15" width="1" height="1"/><path class="pa132-2" d="M19,15h1V14H19Z"/><path class="pa132-4" d="M10,14h2V13H10Z"/><path class="pa132-4" d="M10,17h1v1h1v1h1V18h5V17h1V16h1V15H16V14h2V13H16V12h2v1h1V11H18V10H17v1H14V10H13v1H12V10H11v1H10v1h2v1h1v2H9v1h1Zm4-1h1v1H14Z"/><rect class="pa132-2" x="8" y="15" width="1" height="1"/><rect class="pa132-2" x="14" y="16" width="1" height="1"/><path class="pa132-6" d="M18,14v1h1V14Z"/><path class="pa132-6" d="M12,15h1V14H12Z"/><path class="pa132-2" d="M17,14H16v1h2V14Z"/><path class="pa132-2" d="M12,15V14H9v1h3Z"/><rect class="pa132-7" x="18" y="13" width="1" height="1"/><rect class="pa132-7" x="16" y="12" width="2" height="1"/><path class="pa132-7" d="M13,14V13H12v1Z"/><rect class="pa132-7" x="10" y="12" width="2" height="1"/><path class="pa132-8" d="M15,18H13v1h3V18Z"/><path class="pa132-8" d="M12,23h5V22h1V21h1V20h1V16H19v1H18v1H17v1H16v1H13V19H12V18H11V17H10V16H9v4h1v1h1v1h1Z"/><rect class="pa132-2" x="13" y="19" width="3" height="1"/><path class="pa132-2" d="M16,19h1V18H16Z"/><path class="pa132-9" d="M10,13V11h1V10h1v1h1V10h1v1h3V10h1v1h1v3h1V10H19V9H18V8H11V9H10v1H9v4h1Z"/></svg>