<svg xmlns="http://www.w3.org/2000/svg" viewBox="0 0 29 33"><defs><style>polygon,rect,path{shape-rendering:crispedges;}.xa295-1{fill:#397d98;}.xa295-2{fill:#000000;}.xa295-3{fill:#d8be00;}.xa295-4{fill:#e8b795;}.xa295-5{fill:#ff6aa5;}.xa295-6{fill:#8e4717;}.xa295-7{fill:#72dd40;}.xa295-8{fill:#ffffff;}.xa295-9{fill:#0068ff;}.xa295-10{fill:#ff1f4a;}</style></defs><path class="xa295-1" d="M0,33H6V24H7V23H8v1H9v1h1V22h1V20H9V19H8V11H9V10h1V9h1V8h7V9h1v1h1v1h1v8H20v1H18v2h1v3h2v1h1v1h1v6h6V0H0Z"/><path class="xa295-2" d="M7,31V24H6v9H7V31Z"/><path class="xa295-2" d="M23,27H22v6h1V27Z"/><rect class="xa295-2" x="21" y="26" width="1" height="1"/><path class="xa295-3" d="M21,32v1h1V32Z"/><path class="xa295-3" d="M21,28h1V27H21Z"/><path class="xa295-3" d="M21,30v1h1V29H21Z"/><path class="xa295-2" d="M21,31V27H20v4H14V27H13v4H9V27H8v6H9V32H20v1h1V31Z"/><path class="xa295-2" d="M20,26h1V25H19v1Z"/><path class="xa295-3" d="M17,32H15v1h3V32Z"/><path class="xa295-3" d="M13,32H11v1h3V32Z"/><path class="xa295-3" d="M9,32v1h1V32Z"/><path class="xa295-3" d="M19,32v1h1V32Z"/><path class="xa295-2" d="M18,24v1h1V22H18v2Z"/><path class="xa295-3" d="M19,26v1H18V26H17V25h1V23H17v1H16v2H15v1H14v3h1v1h3V30h1v1h1V29H19V28h1V27h1V26H19Zm-1,3H17v1H16V29H15V28h1V27h1v1h1Z"/><path class="xa295-2" d="M15,25h1V24H15Z"/><path class="xa295-2" d="M15,26V25H14v2h1Z"/><path class="xa295-4" d="M14,25h1V24h1V23H13v1h1Z"/><rect class="xa295-2" x="13" y="24" width="1" height="1"/><path class="xa295-2" d="M11,24V22H10v3h1Z"/><path class="xa295-3" d="M13,26V24H12V23H11v2h1v1H11v1H9v1h1v1H9v2h1V30h1v1h2V30H12V29H11V28h1V27h2V26Z"/><path class="xa295-3" d="M7,32v1H8V32Z"/><path class="xa295-3" d="M7,28H8V27H7Z"/><path class="xa295-3" d="M7,30v1H8V29H7Z"/><rect class="xa295-4" x="14" y="15" width="1" height="1"/><path class="xa295-4" d="M12,21h1v1h3V21h1V20h1V19h1V16H15v1H14V16H10v3h1v1h1Zm1-2h3V18h1v1H16v1H13Z"/><path class="xa295-4" d="M14,13v1h1V13h1V12h1V11H15V10H14v1H13v2Z"/><path class="xa295-2" d="M20,16H19v3h1V16Z"/><path class="xa295-2" d="M18,19v1h1V19Z"/><path class="xa295-2" d="M12,23v1h1V23h3v1h1V22h1V20H17v1H16v1H13V21H12V20H11v2h1Z"/><path class="xa295-2" d="M10,19v1h1V19Z"/><path class="xa295-2" d="M10,18V16H9v3h1Z"/><rect class="xa295-2" x="14" y="16" width="1" height="1"/><path class="xa295-5" d="M10,30v1h1V30Z"/><path class="xa295-5" d="M10,32v1h1V32Z"/><path class="xa295-5" d="M12,28H11v1h1v1h1V27H12Z"/><path class="xa295-5" d="M11,27V26h1V25H10v2Z"/><path class="xa295-5" d="M15,26h1V25H15Z"/><path class="xa295-5" d="M13,26h1V25H13Z"/><polygon class="xa295-5" points="17 27 16 27 16 28 15 28 15 29 16 29 16 30 17 30 17 29 18 29 18 28 17 28 17 27"/><polygon class="xa295-5" points="17 25 17 26 18 26 18 27 19 27 19 26 19 25 18 25 17 25"/><path class="xa295-5" d="M7,29H8V28H7Z"/><path class="xa295-5" d="M10,28H9v1h1Z"/><path class="xa295-5" d="M21,29h1V28H21Z"/><path class="xa295-5" d="M19,29h1V28H19Z"/><path class="xa295-5" d="M21,32h1V31H21Z"/><path class="xa295-5" d="M7,32H8V31H7Z"/><path class="xa295-5" d="M14,30v1h1V30Z"/><path class="xa295-5" d="M14,32v1h1V32Z"/><path class="xa295-5" d="M18,30v1h1V30Z"/><path class="xa295-5" d="M18,32v1h1V32Z"/><path class="xa295-5" d="M12,23V22H11v1Z"/><path class="xa295-5" d="M17,23h1V22H17Z"/><rect class="xa295-6" x="16" y="12" width="1" height="1"/><path class="xa295-6" d="M13,12H12v1h1Z"/><rect class="xa295-2" x="13" y="19" width="3" height="1"/><rect class="xa295-2" x="16" y="18" width="1" height="1"/><path class="xa295-4" d="M7,27H9V25H8V24H7v3Z"/><path class="xa295-2" d="M10,27V25H9v2Z"/><rect class="xa295-2" x="8" y="24" width="1" height="1"/><rect class="xa295-2" x="7" y="23" width="1" height="1"/><path class="xa295-7" d="M9,16V13h3V12h1V11h1V10h1v1h2v2h3v6h1V11H20V10H19V9H18V8H11V9H10v1H9v1H8v8H9V16Z"/><path class="xa295-7" d="M9,19v1h1V19Z"/><path class="xa295-7" d="M19,20h1V19H19Z"/><path class="xa295-8" d="M20,15V13H15v1H14V13H9v3h5V15h1v1h5Zm-7,0H10V14h3Zm6,0H16V14h3Z"/><path class="xa295-9" d="M16,14v1h3V14H16Z"/><path class="xa295-10" d="M10,14v1h3V14H10Z"/></svg>