<svg xmlns="http://www.w3.org/2000/svg" viewBox="0 0 29 33"><defs><style>polygon,rect,path{shape-rendering:crispedges;}.eb83-1{fill:#e55b35;}.eb83-2{fill:#000000;}.eb83-3{fill:#333333;}.eb83-4{fill:#ffffff;}.eb83-5{fill:#e8b795;}.eb83-6{fill:#90a2a3;}.eb83-7{fill:#ffffff;}.eb83-8{fill:#00774c;}.eb83-9{fill:#5a2de2;}.eb83-10{fill:#00774c;}.eb83-11{fill:#fad000;}</style></defs><rect class="eb83-1" x="18" y="22" width="1" height="1"/><rect class="eb83-1" x="17" y="21" width="1" height="1"/><rect class="eb83-1" x="19" y="23" width="1" height="1"/><path class="eb83-1" d="M6,32V27H7V26H8V25H9V24h1V23h1V22h1V21H9V20H8V19H9V16H8V15H9V11h1V10h1V9h7v1h1v1h1v4h1v1H20v3h1v1H20v2h1v1h1v1h2v1h1v2H24V26H23v7h6V0H0V33H6Z"/><path class="eb83-2" d="M7,27H6v6H7V27Z"/><path class="eb83-3" d="M8,27H7v6H8V27Z"/><path class="eb83-2" d="M9,29h1V28h2V27H9V25H8v1H7v1H8v6H9V29Z"/><rect class="eb83-2" x="9" y="24" width="1" height="1"/><path class="eb83-3" d="M12,32V31H11V30H10V29H9v4h4V32Z"/><rect class="eb83-2" x="10" y="23" width="1" height="1"/><path class="eb83-3" d="M10,26v1h2v1H10v1h1v1h1v1h1V26H12V25H11V24H10v1H9v1Z"/><rect class="eb83-3" x="11" y="23" width="1" height="1"/><rect class="eb83-2" x="11" y="24" width="1" height="1"/><rect class="eb83-2" x="10" y="29" width="1" height="1"/><path class="eb83-2" d="M12,24h1V23h3v1h1V23h1V22H17V21H16v1H13V21H12v1H11v1h1Z"/><rect class="eb83-2" x="12" y="25" width="1" height="1"/><path class="eb83-4" d="M15,27H14v6h1V27Z"/><path class="eb83-5" d="M17,25V24H16V23H13v1H12v1h1v1h3V25Z"/><rect class="eb83-2" x="16" y="25" width="1" height="1"/><path class="eb83-3" d="M20,29H19v1H18v1H17v1H16v1h4V29Z"/><rect class="eb83-3" x="17" y="23" width="1" height="1"/><rect class="eb83-2" x="17" y="24" width="1" height="1"/><rect class="eb83-2" x="17" y="30" width="1" height="1"/><rect class="eb83-2" x="18" y="23" width="1" height="1"/><path class="eb83-3" d="M18,26H16v5h1V30h1V29h1V28H17V27h2V25H18Z"/><path class="eb83-2" d="M21,27H20V25H19v2H17v1h2v1h1v4h1V27Z"/><path class="eb83-3" d="M22,27H21v6h1V27Z"/><path class="eb83-2" d="M23,26V25H22v8h1V26Z"/><rect class="eb83-2" x="18" y="29" width="1" height="1"/><rect class="eb83-2" x="11" y="30" width="1" height="1"/><path class="eb83-2" d="M17,32V31H16V26H13v5H12v1h1v1h1V27h1v6h1V32Z"/><path class="eb83-6" d="M9,26v1h1V26Z"/><rect class="eb83-2" x="20" y="15" width="1" height="1"/><rect class="eb83-5" x="9" y="15" width="1" height="1"/><path class="eb83-5" d="M13,22h3V21h1V19h1V18h1V16h1V15H15v2H14V15H13v1H11v1H10v1h1v1h1V18h1v1h3v1H13V19H12v2h1Z"/><path class="eb83-2" d="M18,20H17v1h1Z"/><path class="eb83-2" d="M11,20v1h1V20Z"/><rect class="eb83-2" x="8" y="15" width="1" height="1"/><path class="eb83-2" d="M14,17h1V16H14Z"/><path class="eb83-7" d="M16,14v1h1V14Z"/><path class="eb83-2" d="M18,14H17v1h2V14Z"/><rect class="eb83-8" x="16" y="13" width="1" height="1"/><path class="eb83-9" d="M19,17v1H18v1H17v1h1v1h2V20h1V19H20V16H19Z"/><path class="eb83-9" d="M12,20V19H11V18H10V16H9v3H8v1H9v1h2V20Z"/><rect class="eb83-2" x="13" y="19" width="3" height="1"/><rect class="eb83-2" x="12" y="18" width="1" height="1"/><path class="eb83-10" d="M10,16v1h1V16h2V15h1v1h1V15h1V13h1v1h2v1h1V11H19V10H18V9H11v1H10v1H9v4h1Z"/><path class="eb83-11" d="M23,25v1h1v1h1V25H24V24H22v1Z"/><path class="eb83-7" d="M18,22h1v1h1v2h2V23H21V22H20V21H18Z"/><path class="eb83-5" d="M20,27h2V25H20Z"/><path class="eb83-11" d="M19,24H18v1h2V24Z"/><path class="eb83-11" d="M17,26h1V25H17Z"/></svg>