<svg xmlns="http://www.w3.org/2000/svg" viewBox="0 0 29 33"><defs><style>polygon,rect,path{shape-rendering:crispedges;}.ga269-1{fill:#397d98;}.ga269-2{fill:#000000;}.ga269-3{fill:#cc3232;}.ga269-4{fill:#c18d59;}.ga269-5{fill:#cc3232;}.ga269-6{fill:#ffffff;}.ga269-7{fill:#663434;}.ga269-8{fill:#663434;}.ga269-9{fill:#99ce09;}.ga269-10{fill:#893a1f;}.ga269-11{fill:#dfdfdf;}.ga269-12{fill:#b2622b;}</style></defs><path class="ga269-1" d="M0,33H6V27H7V26H8V25h2V24h2V22H11V21H10V20H9V18H8V13H7V12H5V11H7v1H9V10h1V8h1V7h2V8h3V7h2V8h1V7h1V6h2V8H21V9H20v3h2V11h2v1H22v1H21v5H20v2H19v1H18v1H17v2h2v1h2v1h1v1h1v6h6V0H0Z"/><path class="ga269-2" d="M23,27H22v6h1V27Z"/><rect class="ga269-2" x="21" y="26" width="1" height="1"/><path class="ga269-3" d="M22,27H21v6h1V27Z"/><path class="ga269-2" d="M21,27H20v6h1V27Z"/><path class="ga269-2" d="M20,26h1V25H19v1Z"/><rect class="ga269-3" x="13" y="29" width="1" height="2"/><path class="ga269-3" d="M20,27h1V26H19V25H17v1H16v1H13V26H12V25H10v1H9v7H20V27Zm-9,2v3H10V28h1Zm4,3H12V28h3Zm4-3H17v2h1V30h1v2H16V28h3Z"/><path class="ga269-2" d="M18,25h1V24H17v1Z"/><path class="ga269-2" d="M16,24h1V23H16Z"/><rect class="ga269-2" x="16" y="25" width="1" height="1"/><path class="ga269-2" d="M13,26v1h3V26H13Z"/><path class="ga269-2" d="M13,23H12v1h1Z"/><path class="ga269-4" d="M13,25v1h3V25h1V24H16V23H13v1H12v1Z"/><rect class="ga269-2" x="12" y="25" width="1" height="1"/><path class="ga269-2" d="M12,24H10v1h2Z"/><path class="ga269-2" d="M9,26h1V25H8v1H7v1H8v6H9V26Z"/><path class="ga269-3" d="M8,27H7v6H8V27Z"/><path class="ga269-2" d="M7,27H6v6H7V27Z"/><path class="ga269-5" d="M12,32h3V28H12Zm1-3h1v2H13Z"/><path class="ga269-5" d="M10,29v3h1V28H10Z"/><path class="ga269-5" d="M16,28v4h3V30H18v1H17V29h2V28H16Z"/><rect class="ga269-2" x="19" y="14" width="1" height="1"/><rect class="ga269-4" x="11" y="13" width="1" height="1"/><path class="ga269-4" d="M17,16H15v1H14V16h1V14h1V13H14v2H13v2H12V16H11v2h1v1h1V18h5V16Z"/><rect class="ga269-4" x="17" y="13" width="1" height="1"/><rect class="ga269-4" x="9" y="15" width="1" height="1"/><rect class="ga269-4" x="19" y="15" width="1" height="1"/><rect class="ga269-2" x="14" y="16" width="1" height="1"/><rect class="ga269-6" x="12" y="14" width="1" height="1"/><path class="ga269-6" d="M17,14H16v2h1V14Z"/><path class="ga269-2" d="M12,15V14H11v2h1Z"/><path class="ga269-2" d="M17,15v1h1V14H17Z"/><rect class="ga269-7" x="12" y="13" width="1" height="1"/><path class="ga269-8" d="M15,18H13v1h3V18Z"/><path class="ga269-8" d="M19,16v2h1V16Z"/><path class="ga269-8" d="M14,23h3V22h1V21h1V18H17v1H16v1H13V19H12V18H10v3h1v1h1v1h2Z"/><path class="ga269-8" d="M10,17V16H9v2h1Z"/><rect class="ga269-2" x="13" y="19" width="3" height="1"/><path class="ga269-2" d="M16,19h1V18H16Z"/><path class="ga269-9" d="M9,15h1v3h1V13H8v5H9V15Z"/><path class="ga269-9" d="M18,13v5h1V14h1v4h1V13H18Z"/><path class="ga269-9" d="M13,15h1V13H13v2Z"/><rect class="ga269-9" x="16" y="13" width="1" height="1"/><path class="ga269-9" d="M19,19v1h1V18H19Z"/><path class="ga269-9" d="M15,14v2h1V14Z"/><path class="ga269-9" d="M12,16v1h1V15H12Z"/><path class="ga269-9" d="M9,18v2h1V18Z"/><path class="ga269-10" d="M24,11H22v1h2Z"/><path class="ga269-11" d="M21,8h1V7H21Z"/><path class="ga269-10" d="M11,13H22V12H20V11H19v1H10V11H9v1H7v1h4Z"/><rect class="ga269-11" x="20" y="8" width="1" height="1"/><path class="ga269-12" d="M19,11h1V10H19Z"/><path class="ga269-6" d="M18,11h1V10h1V8h1V7h1V6H20V7H19V8H18v3Z"/><path class="ga269-12" d="M17,11H10v1h9V11H17Z"/><path class="ga269-10" d="M11,11h7V7H16V8H13V7H11V8H10v3Z"/><path class="ga269-12" d="M10,10H9v1h1Z"/><path class="ga269-10" d="M6,11H5v1H7V11Z"/></svg>