<svg xmlns="http://www.w3.org/2000/svg" viewBox="0 0 29 33"><defs><style>polygon,rect,path{shape-rendering:crispedges;}.oa174-1{fill:#6b4f99;}.oa174-2{fill:#000000;}.oa174-3{fill:#6d5800;}.oa174-4{fill:#ffffff;}.oa174-5{fill:#e8b795;}.oa174-6{fill:#db5800;}.oa174-7{fill:#ffffff;}.oa174-8{fill:#5e362f;}.oa174-9{fill:#ffce00;}.oa174-10{fill:#c9936f;}.oa174-11{fill:#e8b592;}.oa174-12{fill:#004b68;}.oa174-13{fill:#fad000;}</style></defs><path class="oa174-1" d="M0,33H6V27H7V26H8V25h2V24h2V22H11V21H10v1H9V21H8V20H7V19H8V12H9V10h1V9h1V8h7V9h1v1h1v2h1v5h1V16h1v1h1V16h1v7H24v8H23v1H21v1h8V0H0Z"/><path class="oa174-1" d="M20,23V22H19V21H18v1H17v2h2v1h2V23Z"/><path class="oa174-2" d="M23,26v5h1V25H23Z"/><path class="oa174-2" d="M7,30V27H6v6H7V30Z"/><path class="oa174-3" d="M7,31v2H8V31Z"/><path class="oa174-3" d="M8,29V27H7v2Z"/><rect class="oa174-2" x="7" y="26" width="1" height="1"/><path class="oa174-2" d="M9,31V27H8v6H9V31Z"/><path class="oa174-3" d="M10,31V30H9v2h1v1h1V31Z"/><path class="oa174-3" d="M10,26H9v2h1v1h1V27H10Z"/><path class="oa174-2" d="M10,26V25H8v1h2Z"/><path class="oa174-2" d="M12,26h1V25H12V24H10v1h1v8h1V26Z"/><path class="oa174-4" d="M17,26H16v1H13V26H12v7h5V26Z"/><path class="oa174-2" d="M13,23h3v1h1V21H16v1H13V21H12v3h1Z"/><path class="oa174-2" d="M13,26v1h3V26H13Z"/><path class="oa174-5" d="M13,25v1h3V25h1V24H16V23H13v1H12v1Z"/><path class="oa174-2" d="M18,31V25h1V24H17v1H16v1h1v7h1V31Z"/><path class="oa174-3" d="M18,26v2h1v1h1V27H19V25H18Z"/><path class="oa174-3" d="M19,31V30H18v2h1v1h1V31Z"/><path class="oa174-2" d="M22,32h1V31H22V25H19v1h2v1H20v6h1V32Z"/><path class="oa174-3" d="M23,28V27H22v2h1Z"/><path class="oa174-6" d="M19,28H18v2h1v1h1V29H19Z"/><path class="oa174-6" d="M22,29v2h1V29Z"/><path class="oa174-6" d="M20,27h1V26H19v1Z"/><path class="oa174-6" d="M23,26V25H22v2h1Z"/><path class="oa174-6" d="M18,32v1h1V32Z"/><path class="oa174-6" d="M10,27h1V25H10v2Z"/><path class="oa174-6" d="M10,28H9v2h1v1h1V29H10Z"/><path class="oa174-6" d="M9,32v1h1V32Z"/><path class="oa174-6" d="M9,27V26H8v1Z"/><path class="oa174-6" d="M7,30v1H8V29H7Z"/><path class="oa174-2" d="M20,16h1V15H20Z"/><rect class="oa174-2" x="19" y="14" width="1" height="1"/><rect class="oa174-5" x="17" y="13" width="1" height="1"/><path class="oa174-5" d="M18,20V19h1V16h1V15H16V13h1V11H16V10H13v1H12v1h1v1H11v1h2v1H9v1h1v3h1v1h1v1h1v1h3V21h1V20Zm-4-4h1v1H14Zm2,4H13V19H12V18h1v1h3Z"/><path class="oa174-2" d="M19,17v2h1V16H19Z"/><rect class="oa174-2" x="18" y="19" width="1" height="1"/><rect class="oa174-2" x="17" y="20" width="1" height="1"/><rect class="oa174-2" x="11" y="20" width="1" height="1"/><rect class="oa174-2" x="10" y="19" width="1" height="1"/><path class="oa174-2" d="M10,14H9v1h1Z"/><path class="oa174-2" d="M10,16H9v3h1V16Z"/><path class="oa174-2" d="M9,15H8v1H9Z"/><rect class="oa174-2" x="14" y="16" width="1" height="1"/><path class="oa174-7" d="M13,15V14H12v1Z"/><path class="oa174-7" d="M11,15V14H10v1Z"/><path class="oa174-7" d="M19,15V14H18v1Z"/><path class="oa174-7" d="M16,14v1h1V14Z"/><path class="oa174-2" d="M12,15V14H11v1Z"/><path class="oa174-2" d="M17,15h1V14H17Z"/><path class="oa174-8" d="M13,12H11v1h2Z"/><path class="oa174-8" d="M17,13H16v1h1Z"/><path class="oa174-8" d="M18,13V12H17v1Z"/><rect class="oa174-2" x="13" y="19" width="3" height="1"/><rect class="oa174-2" x="12" y="18" width="1" height="1"/><path class="oa174-9" d="M19,20H18v1h1v1h1V19H19Z"/><path class="oa174-9" d="M9,14h2V12h1V11h1V10h3v1h1v1h1v2h2v1h1V12H20V10H19V9H18V8H11V9H10v1H9v2H8v3H9Z"/><path class="oa174-9" d="M10,20V19H9V16H8v3H7v1H8v1H9v1h1V21h1V20Z"/><path class="oa174-9" d="M11,21v1h1V21Z"/><path class="oa174-9" d="M18,21H17v1h1Z"/><rect class="oa174-10" x="20" y="22" width="1" height="1"/><path class="oa174-10" d="M24,22.111V23h1V22H24Z"/><rect class="oa174-2" x="21" y="19" width="1" height="1"/><rect class="oa174-2" x="23" y="19" width="1" height="1"/><path class="oa174-11" d="M24,22H21v1h3V22Z"/><path class="oa174-11" d="M23,20V19H22v1H20v2h1V21h3v1h1V20H23Z"/><path class="oa174-12" d="M21,23v2h3V23H21Z"/><path class="oa174-13" d="M20,18v2h1V19h3v1h1V18H20Z"/><path class="oa174-2" d="M24,22V21H21v1h3Z"/><path class="oa174-7" d="M20,17v1h5V16H24v1H23V16H22v1H21V16H20Z"/></svg>