<svg xmlns="http://www.w3.org/2000/svg" viewBox="0 0 29 33"><defs><style>polygon,rect,path{shape-rendering:crispedges;}.ya170-1{fill:#db5a8e;}.ya170-2{fill:#000000;}.ya170-3{fill:#d8be00;}.ya170-4{fill:#b2622b;}.ya170-5{fill:#508e91;}.ya170-6{fill:#ffffff;}.ya170-7{fill:#e2e2e2;}.ya170-8{fill:#e2e2e2;}.ya170-9{fill:#0068ff;}.ya170-10{fill:#455054;}.ya170-11{fill:#ff1f4a;}</style></defs><path class="ya170-1" d="M0,33H8V32H6V31H5V22H6V21H7V20H5v1H2V17H5V16H8V14H9V12H8v1H7V12H8V11H9V10h1V9h2V8h5V9h2v1h1v1h1v1h1v1H21V12H20v2h1v2H20v4H19v1H18v1H17v1h1v1h1v1h2v1h1v1h1v6h6V0H0Z"/><path class="ya170-1" d="M8,19v3H9v2H8v1h2V24h1V23h1V22H11V21H10V20H9V16H8v3Z"/><path class="ya170-2" d="M6,29V22H5v9H6V29Z"/><path class="ya170-2" d="M23,27H22v6h1V27Z"/><path class="ya170-3" d="M21,28v2h1V27H21Z"/><path class="ya170-3" d="M21,31v2h1V31Z"/><rect class="ya170-2" x="21" y="26" width="1" height="1"/><path class="ya170-2" d="M21,30V27H20v6h1V30Z"/><path class="ya170-3" d="M20,32V26H19V25H18v1H17v1H16V25H15v2H14V25H13v2H12V26H11V25H10v1H9v6h1v1h4V32h1v1h4V32Zm-9-3H10V28h1Zm2,2H12V30h1Zm2,0H14V30h1Zm0-2H14V28h1Zm2,2H16V30h1Zm1-2V28h1v1Z"/><path class="ya170-2" d="M20,26h1V25H19v1Z"/><rect class="ya170-3" x="16" y="24" width="1" height="1"/><path class="ya170-2" d="M16,24h1v1H16v1h2V25h1V24H18V23H16Z"/><rect class="ya170-2" x="15" y="24" width="1" height="1"/><rect class="ya170-2" x="14" y="32" width="1" height="1"/><rect class="ya170-2" x="14" y="30" width="1" height="1"/><rect class="ya170-2" x="14" y="28" width="1" height="1"/><path class="ya170-2" d="M14,26v1h1V25H14Z"/><rect class="ya170-2" x="13" y="24" width="1" height="1"/><path class="ya170-4" d="M16,24V23H13v1h1v1h1V24Z"/><rect class="ya170-3" x="12" y="24" width="1" height="1"/><path class="ya170-2" d="M12,24h1V23H11v1H10v1h1v1h2V25H12Z"/><path class="ya170-2" d="M9,31V27H8V26h2V25H8V24H7v7H6v1H8v1H9V31Z"/><path class="ya170-3" d="M6,25H7V24H6Z"/><path class="ya170-3" d="M6,27v2H7V26H6Z"/><path class="ya170-3" d="M7,30H6v1H7Z"/><rect class="ya170-5" x="10" y="28" width="1" height="1"/><rect class="ya170-5" x="12" y="30" width="1" height="1"/><path class="ya170-5" d="M12,27h1V26H12Z"/><rect class="ya170-5" x="16" y="30" width="1" height="1"/><rect class="ya170-5" x="18" y="28" width="1" height="1"/><path class="ya170-5" d="M16,27h1V26H16Z"/><path class="ya170-5" d="M8,27H9V26H8Z"/><path class="ya170-5" d="M19,32v1h1V32Z"/><path class="ya170-5" d="M9,32v1h1V32Z"/><path class="ya170-5" d="M6,30H7V29H6Z"/><path class="ya170-5" d="M6,26H7V25H6Z"/><path class="ya170-5" d="M21,31h1V30H21Z"/><path class="ya170-5" d="M20,27h1V26H20Z"/><path class="ya170-2" d="M20,16h1V15H20Z"/><rect class="ya170-2" x="19" y="14" width="1" height="1"/><path class="ya170-4" d="M19,15H16V14h3V13H16V12H15V11H14v1H13v1H10v1h3v1H9v1h1v1h1v1h1v1h1V18h5V17h1V16h1V15Zm-4,2H14V16h1Z"/><path class="ya170-2" d="M10,15V14H9v1Z"/><path class="ya170-2" d="M9,15H8v1H9Z"/><rect class="ya170-2" x="14" y="16" width="1" height="1"/><path class="ya170-6" d="M13,15V14H12v1Z"/><path class="ya170-6" d="M11,14H10v1h1Z"/><path class="ya170-6" d="M18,15h1V14H18Z"/><path class="ya170-6" d="M16,14v1h1V14Z"/><path class="ya170-2" d="M12,15V14H11v1Z"/><path class="ya170-2" d="M17,14v1h1V14Z"/><path class="ya170-7" d="M13,12H12v1h1Z"/><path class="ya170-7" d="M17,13V12H16v1Z"/><path class="ya170-8" d="M16,18H13v1h3Z"/><path class="ya170-8" d="M19,17H18v1H17v1H16v1H13V19H12V18H11V17H10V16H9v4h1v1h1v1h1v1h5V22h1V21h1V20h1V16H19Z"/><rect class="ya170-2" x="13" y="19" width="3" height="1"/><path class="ya170-2" d="M17,19V18H16v1Z"/><rect class="ya170-9" x="21" y="12" width="1" height="1"/><path class="ya170-9" d="M10,13h2V12h2V11h1v1h2v1h2v1h1V12h1V11H20V10H19V9H17V8H12V9H10v1H9v1H8v1H9v2h1Z"/><path class="ya170-9" d="M21,15V14H20v1Z"/><path class="ya170-9" d="M9,14H8v1H9Z"/><rect class="ya170-9" x="7" y="12" width="1" height="1"/><path class="ya170-4" d="M7,24H8V22H6v2Z"/><path class="ya170-10" d="M8,22V20H7v2Z"/><path class="ya170-2" d="M7,21H6v1H7Z"/><path class="ya170-2" d="M9,22H8v2H9Z"/><path class="ya170-11" d="M5,19V18H8V16H5v1H2v2H5Z"/><path class="ya170-6" d="M8,19V18H5v1H2v2H5V20H8Z"/></svg>