<svg xmlns="http://www.w3.org/2000/svg" viewBox="0 0 29 33"><defs><style>polygon,rect,path{shape-rendering:crispedges;}.cb217-1{fill:#29834f;}.cb217-2{fill:#000000;}.cb217-3{fill:#685432;}.cb217-4{fill:#ffffff;}.cb217-5{fill:#c18d59;}.cb217-6{fill:#af8423;}.cb217-7{fill:#990000;}.cb217-8{fill:#508e91;}.cb217-9{fill:#adb48a;}.cb217-10{fill:#d2d8b8;}</style></defs><path class="cb217-1" d="M0,33H6V27H7V26H8V25h2V24h1V23h1V22H11V21H10V20H9V16H8V14H9V10h1V9h1V8h7V9h1v1h1v4h1v2H20v4H19v1H18v1H17v1h1v1h1v1h2v1h1v1h1v6h6V0H0Z"/><path class="cb217-2" d="M23,27H22v6h1V27Z"/><path class="cb217-3" d="M22,27H21v6h1V27Z"/><rect class="cb217-2" x="21" y="26" width="1" height="1"/><path class="cb217-2" d="M21,27H20v6h1V27Z"/><path class="cb217-3" d="M20,27h1V26H19V25H18v4H17v4h3V27Z"/><path class="cb217-2" d="M20,26h1V25H19v1Z"/><path class="cb217-2" d="M17,29H16v4h1V29Z"/><rect class="cb217-4" x="16" y="24" width="1" height="1"/><path class="cb217-4" d="M16,29h1V26H16V25H13v1H12v3h1v4h1V32h1v1h1V29Zm-1,2H14V30h1Zm0-2H14V28h1Zm0-2H14V26h1Z"/><rect class="cb217-4" x="15" y="23" width="1" height="1"/><rect class="cb217-2" x="14" y="32" width="1" height="1"/><rect class="cb217-2" x="14" y="30" width="1" height="1"/><rect class="cb217-2" x="14" y="28" width="1" height="1"/><rect class="cb217-2" x="14" y="26" width="1" height="1"/><path class="cb217-2" d="M15,24V23H14v1H13v1h3V24Z"/><rect class="cb217-4" x="13" y="23" width="1" height="1"/><path class="cb217-2" d="M13,29H12v4h1V29Z"/><rect class="cb217-4" x="12" y="24" width="1" height="1"/><path class="cb217-3" d="M12,29H11V25H10v1H8v1H9v6h3V29Z"/><path class="cb217-2" d="M11,26v3h1V26h1V25H12V24h1V22H12v1H11v1H10v1h1Z"/><path class="cb217-2" d="M10,25H8v1h2Z"/><path class="cb217-2" d="M9,27H8v6H9V27Z"/><path class="cb217-3" d="M8,27H7v6H8V27Z"/><rect class="cb217-2" x="7" y="26" width="1" height="1"/><path class="cb217-2" d="M7,27H6v6H7V27Z"/><path class="cb217-2" d="M20,16h1V15H20Z"/><rect class="cb217-5" x="13" y="20" width="1" height="1"/><rect class="cb217-5" x="14" y="15" width="1" height="1"/><path class="cb217-5" d="M18,15H16v1h3V15Z"/><rect class="cb217-5" x="15" y="20" width="1" height="1"/><path class="cb217-5" d="M14,14h2V13H13v1Z"/><path class="cb217-5" d="M16,17V16H15v1H14V16H13v1H10v1h1v1h1V18h2v1h1V18h2v1h1V18h1V17H16Z"/><path class="cb217-5" d="M13,16V15H10v1h3Z"/><path class="cb217-2" d="M16,23v1h1v1H16v1h1v3h1V25h1V24H18V23H17V22H16Z"/><path class="cb217-2" d="M8,15v1H9V15Z"/><rect class="cb217-2" x="14" y="16" width="1" height="1"/><path class="cb217-4" d="M12,14v1h1V14Z"/><path class="cb217-4" d="M11,14H10v1h1Z"/><rect class="cb217-4" x="18" y="14" width="1" height="1"/><path class="cb217-4" d="M16,14v1h1V14Z"/><path class="cb217-2" d="M11,14v1h1V14Z"/><path class="cb217-2" d="M17,14v1h1V14Z"/><path class="cb217-6" d="M15,18v1h1V18Z"/><path class="cb217-6" d="M13,23h3V22h2V21h1V20h1V16H19v2H18v1H16v2H15V20H14v1H13V19h1V18H12v1H11V18H10V16H9v4h1v1h1v1h2Z"/><path class="cb217-2" d="M14,19H13v1h3V19H14Z"/><path class="cb217-2" d="M16,18v1h1V18Z"/><path class="cb217-7" d="M19,14h1V13H19Z"/><path class="cb217-7" d="M10,13H9v1h1Z"/><path class="cb217-8" d="M19,15v1h1V15h1V14H19Z"/><path class="cb217-8" d="M16,16v1h3V16H16Z"/><path class="cb217-8" d="M12,14h1V13H10v1h2Z"/><path class="cb217-8" d="M17,14h2V13H16v1Z"/><path class="cb217-8" d="M15,14H13v2h1V15h1v1h1V14Z"/><path class="cb217-8" d="M13,17V16H10v1h3Z"/><path class="cb217-8" d="M10,15V14H8v1H9v1h1Z"/><path class="cb217-9" d="M19,12v1h1V11H19Z"/><path class="cb217-10" d="M10,12v1h1V11h1v2h1V11h1v2h1V11h1v2h1V11h1v2h1V11h1V10H19V9H18V8H11V9H10v1H9v1h1Z"/><path class="cb217-9" d="M18,12V11H17v2h1Z"/><path class="cb217-9" d="M16,12V11H15v2h1Z"/><path class="cb217-9" d="M14,12V11H13v2h1Z"/><path class="cb217-9" d="M12,12V11H11v2h1Z"/><path class="cb217-9" d="M10,12V11H9v2h1Z"/></svg>