<svg xmlns="http://www.w3.org/2000/svg" viewBox="0 0 29 33"><defs><style>polygon,rect,path{shape-rendering:crispedges;}.aa129-1{fill:#db5a8e;}.aa129-2{fill:#000000;}.aa129-3{fill:#512a24;}.aa129-4{fill:#9b8100;}.aa129-5{fill:#f9e100;}.aa129-6{fill:#ffffff;}.aa129-7{fill:#317f03;}.aa129-8{fill:#fad000;}.aa129-9{fill:#317f03;}.aa129-10{fill:#990000;}.aa129-11{fill:#a3531d;}.aa129-12{fill:#d1b4ca;}</style></defs><path class="aa129-1" d="M0,33H6V27H7V26H8V25h2V23h1V21H10V20H9V18H8V12H9V11h1V10h1V9h7v1h1v1h1v2h1v5H20v2H19v1h3v1h1v1h1v8H23v1H21v1h8V0H0Z"/><path class="aa129-1" d="M19,24v1h2V24Z"/><path class="aa129-1" d="M19,23h0V21H18v2Z"/><path class="aa129-2" d="M7,31V27H6v6H7Z"/><rect class="aa129-2" x="7" y="26" width="1" height="1"/><path class="aa129-3" d="M8,31V27H7v6H8Z"/><rect class="aa129-3" x="8" y="26" width="1" height="1"/><path class="aa129-2" d="M9,31V27H8v6H9Z"/><path class="aa129-2" d="M10,26V25H8v1Z"/><rect class="aa129-4" x="10" y="32" width="1" height="1"/><path class="aa129-4" d="M17,31V30h1V29h1v1h1V26H19V25H18v1H17v1H16v1H13V27H12V26H11V25H10v1H9v4h1V29h1v1h1v3h1V29h2v1h1v2H15v1h2Z"/><path class="aa129-4" d="M14,31v1h1V30H14Z"/><rect class="aa129-4" x="18" y="32" width="1" height="1"/><rect class="aa129-4" x="10" y="30" width="1" height="1"/><rect class="aa129-4" x="18" y="30" width="1" height="1"/><path class="aa129-3" d="M15,25h1V23H13v2Z"/><rect class="aa129-3" x="20" y="26" width="1" height="1"/><path class="aa129-2" d="M22,32h1V31H22V24H21v1H19v1h2v1H20v6h1V32Z"/><path class="aa129-2" d="M23,25v6h1V23H23Z"/><path class="aa129-5" d="M20,31V30H19v1H18V30H17v3h1V32h1v1h1Z"/><rect class="aa129-5" x="18" y="29" width="1" height="1"/><path class="aa129-5" d="M15,32h1V30H15Z"/><path class="aa129-5" d="M14,32V30h1V29H13v4h2V32Z"/><path class="aa129-5" d="M12,31V30H11v1H10V30H9v3h1V32h1v1h1Z"/><rect class="aa129-5" x="10" y="29" width="1" height="1"/><path class="aa129-3" d="M18,16V15H17v2H16V15H15V11H14v1H13v2h1v2h1v1H14V16H13V15H11v4h1V18h2v1h1V18h2v1h1Z"/><rect class="aa129-3" x="9" y="15" width="1" height="1"/><rect class="aa129-3" x="19" y="15" width="1" height="1"/><rect class="aa129-3" x="11" y="11" width="1" height="1"/><rect class="aa129-3" x="13" y="20" width="1" height="1"/><rect class="aa129-3" x="17" y="13" width="1" height="1"/><rect class="aa129-3" x="16" y="12" width="1" height="1"/><rect class="aa129-3" x="11" y="13" width="1" height="1"/><rect class="aa129-3" x="15" y="20" width="1" height="1"/><rect class="aa129-2" x="9" y="14" width="1" height="1"/><rect class="aa129-2" x="14" y="16" width="1" height="1"/><rect class="aa129-6" x="12" y="14" width="1" height="1"/><rect class="aa129-6" x="16" y="14" width="1" height="1"/><rect class="aa129-2" x="11" y="14" width="1" height="1"/><rect class="aa129-2" x="17" y="14" width="1" height="1"/><rect class="aa129-7" x="11" y="12" width="1" height="1"/><rect class="aa129-7" x="16" y="13" width="1" height="1"/><rect class="aa129-7" x="17" y="12" width="1" height="1"/><path class="aa129-2" d="M19,23H18v2h1Z"/><rect class="aa129-2" x="17" y="25" width="1" height="1"/><rect class="aa129-8" x="17" y="24" width="1" height="1"/><rect class="aa129-6" x="17" y="23" width="1" height="1"/><rect class="aa129-2" x="16" y="26" width="1" height="1"/><rect class="aa129-6" x="16" y="25" width="1" height="1"/><path class="aa129-2" d="M16,25h1V23h1V22H16Z"/><rect class="aa129-8" x="15" y="26" width="1" height="1"/><path class="aa129-2" d="M14,27H13v1h3V27Z"/><rect class="aa129-6" x="14" y="26" width="1" height="1"/><rect class="aa129-8" x="13" y="26" width="1" height="1"/><path class="aa129-2" d="M14,26h2V25H13v1Z"/><rect class="aa129-2" x="12" y="26" width="1" height="1"/><rect class="aa129-6" x="12" y="25" width="1" height="1"/><path class="aa129-2" d="M12,24v1h1V22H11v1h1Z"/><rect class="aa129-2" x="11" y="25" width="1" height="1"/><rect class="aa129-8" x="11" y="24" width="1" height="1"/><rect class="aa129-6" x="11" y="23" width="1" height="1"/><path class="aa129-2" d="M11,24V23H10v2h1Z"/><rect class="aa129-9" x="13" y="18" width="1" height="1"/><path class="aa129-9" d="M20,16H19v2h1Z"/><path class="aa129-9" d="M13,22v1h3V22h2V21h1V18H18v1H17V18H15v1h1v2H15V20H14v1H13V19H11V18H10v3h1v1Z"/><path class="aa129-9" d="M10,17V16H9v2h1Z"/><path class="aa129-2" d="M13,19v1h3V19Z"/><rect class="aa129-2" x="12" y="18" width="1" height="1"/><path class="aa129-10" d="M9,16V14h1v4h1V11h1v3h1V12h1V11h1v4h1V12h2v6h1V15h1v3h1V13H20V11H19V10H18V9H11v1H10v1H9v1H8v6H9Z"/><path class="aa129-10" d="M10,18H9v2h1Z"/><path class="aa129-10" d="M13,16h1V14H13Z"/><path class="aa129-10" d="M16,17h1V15H16Z"/><path class="aa129-10" d="M19,19v1h1V18H19Z"/><path class="aa129-11" d="M20,23H19v1h2V23Z"/><path class="aa129-12" d="M19,22v1h3V22h0V21H19Z"/><path class="aa129-3" d="M21,23v1h1v7h1V23Z"/><polygon class="aa129-2" points="22 23 22 23 23 23 23 22 22 22 22 23"/></svg>