<svg xmlns="http://www.w3.org/2000/svg" viewBox="0 0 29 33"><defs><style>polygon,rect,path{shape-rendering:crispedges;}.da181-1{fill:#db5a8e;}.da181-2{fill:#000000;}.da181-3{fill:#00686d;}.da181-4{fill:#e8b795;}.da181-5{fill:#c4ea3b;}.da181-6{fill:#ffffff;}.da181-7{fill:#af8423;}.da181-8{fill:#af8423;}.da181-9{fill:#990000;}.da181-10{fill:#381616;}.da181-11{fill:#fad000;}</style></defs><rect class="da181-1" x="19" y="24" width="1" height="1"/><path class="da181-1" d="M0,33H6V27H7V26H8V25h2V24h2V22H11V21H10V20H9V16H8V15H9V10h1V9h1V8h7V9h1v2h1v4h1v1H20v4h3v1h1v3H23v1h1v1H23v7h6V0H0Z"/><path class="da181-1" d="M19,24V21H18v1H17v2h2Z"/><rect class="da181-1" x="19" y="20" width="1" height="1"/><path class="da181-2" d="M9,27H8v2H7V27H6v6H7V30H8v3H9V27Z"/><rect class="da181-2" x="7" y="26" width="1" height="1"/><path class="da181-2" d="M10,25H8v1h2Z"/><path class="da181-2" d="M12,24H10v1h2Z"/><path class="da181-2" d="M13,23H12v1h1Z"/><path class="da181-2" d="M16,23v1h1V23Z"/><path class="da181-2" d="M18,24H17v1h2V24Z"/><path class="da181-2" d="M21,26H20v7h1V26Z"/><path class="da181-2" d="M23,26H22v7h1V26Z"/><path class="da181-3" d="M16,32H12v1h5V32Z"/><rect class="da181-3" x="12" y="30" width="1" height="1"/><rect class="da181-3" x="16" y="30" width="1" height="1"/><path class="da181-3" d="M20,26H19V25H17v1H16v1H13V26H12V25H10v1H8v1H9v6h1V30h1V29h1V28h5v1h1v1h1v3h1V26Z"/><path class="da181-3" d="M8,29V27H7v2Z"/><path class="da181-4" d="M22,26h1V25H20v1h1v7h1V26Z"/><path class="da181-4" d="M13,25v1h3V25h1V24H16V23H13v1H12v1Z"/><path class="da181-2" d="M13,26v1h3V26H13Z"/><path class="da181-4" d="M8,30H7v3H8V30Z"/><rect class="da181-2" x="16" y="25" width="1" height="1"/><rect class="da181-2" x="12" y="25" width="1" height="1"/><path class="da181-5" d="M19,30H18V29H17V28H12v1H11v1H10v3h2V32h5v1h2V30Zm-6,1H12V30h1Zm4,0H16V30h1Z"/><rect class="da181-2" x="20" y="15" width="1" height="1"/><path class="da181-2" d="M19,13v2h1V11H19v2Z"/><path class="da181-4" d="M18,14h1V13H17v1Z"/><path class="da181-4" d="M10,17h1v1h5v1h1V18h1V17h1V16h1V15H16V13h1V12h2V11H18V10H17v1H16V10H15v1H14V10H13v1H12V10H11v1H10v2h1V12h2v1H11v1h2v1H9v1h1Zm4-1h1v1H14Z"/><rect class="da181-2" x="17" y="9" width="1" height="1"/><rect class="da181-2" x="13" y="9" width="1" height="1"/><rect class="da181-2" x="11" y="9" width="1" height="1"/><rect class="da181-2" x="15" y="9" width="1" height="1"/><rect class="da181-2" x="10" y="10" width="1" height="1"/><path class="da181-2" d="M10,14V11H9v4h1Z"/><rect class="da181-2" x="8" y="15" width="1" height="1"/><rect class="da181-2" x="14" y="16" width="1" height="1"/><path class="da181-6" d="M13,15V14H12v1Z"/><path class="da181-6" d="M10,15h1V14H10Z"/><path class="da181-6" d="M18,14v1h1V14Z"/><path class="da181-6" d="M16,14v1h1V14Z"/><path class="da181-2" d="M12,15V14H11v1Z"/><path class="da181-2" d="M17,14v1h1V14Z"/><path class="da181-7" d="M11,14V13H10v1Z"/><rect class="da181-7" x="11" y="12" width="2" height="1"/><path class="da181-7" d="M17,13H16v1h1Z"/><path class="da181-7" d="M19,12H17v1h2Z"/><path class="da181-8" d="M15,18H13v1h3V18Z"/><path class="da181-8" d="M14,23h3V22h1V21h1V20h1V16H19v1H18v1H17v1H16v1H13V19H12V18H11V17H10V16H9v4h1v1h1v1h1v1h2Z"/><rect class="da181-2" x="13" y="19" width="3" height="1"/><path class="da181-2" d="M12,18v1h1V18Z"/><path class="da181-9" d="M18,11h1V9H18v2Z"/><path class="da181-9" d="M12,10v1h1V9h1v2h1V9h1v2h1V9h1V8H11V9h1Z"/><rect class="da181-9" x="10" y="9" width="1" height="1"/><path class="da181-9" d="M10,10H9v1h1Z"/><rect class="da181-2" x="23" y="25" width="1" height="1"/><rect class="da181-2" x="19" y="25" width="1" height="1"/><path class="da181-10" d="M24,22V21H23v1Z"/><path class="da181-11" d="M19,21v3h1v1h3V24H21V23H20V22h1V21h1v1H21v1h3V22H23V20H20v1Z"/><rect class="da181-10" x="21" y="21" width="1" height="1"/><path class="da181-10" d="M21,23v1h3V23H21Z"/><rect class="da181-10" x="20" y="22" width="1" height="1"/></svg>