<svg xmlns="http://www.w3.org/2000/svg" viewBox="0 0 29 33"><defs><style>polygon,rect,path{shape-rendering:crispedges;}.ga283-1{fill:#db5a8e;}.ga283-2{fill:#000000;}.ga283-3{fill:#d8be00;}.ga283-4{fill:#ce8452;}.ga283-5{fill:#d8be00;}.ga283-6{fill:#9b8100;}.ga283-7{fill:#ff1d99;}.ga283-8{fill:#ffffff;}.ga283-9{fill:#990000;}</style></defs><path class="ga283-1" d="M6,32V27H7V26H8V25h2V24h2V22H11V21H10V20H9V16H8V15H9V11h1V10h1V9h7v1h1v1h1v4h1v1H20v4H19v1H18v1H17v2h2v1h2v1h1v1h1v6h6V0H0V33H6Z"/><path class="ga283-2" d="M23,27H22v6h1V27Z"/><rect class="ga283-2" x="21" y="26" width="1" height="1"/><path class="ga283-3" d="M22,27H21v6h1V27Z"/><path class="ga283-2" d="M21,27H20v6h1V27Z"/><path class="ga283-2" d="M20,26h1V25H19v1Z"/><rect class="ga283-3" x="18" y="29" width="1" height="1"/><path class="ga283-3" d="M19,32V31H18v1H17V29h1V28h1v1h1V27h1V26H19V25H17v1H16v1H13V26H12V25H10v1H9v3h1V28h1v1h1v3H11V31H10v1H9v1H20V32Zm-3-2v1H15v1H13V28h2v1h1Z"/><path class="ga283-3" d="M15,29H14v2h1V29Z"/><rect class="ga283-3" x="10" y="29" width="1" height="1"/><path class="ga283-2" d="M18,25h1V24H17v1Z"/><rect class="ga283-2" x="16" y="25" width="1" height="1"/><path class="ga283-2" d="M13,26v1h3V26H13Z"/><path class="ga283-2" d="M13,23V22H12v2h1Z"/><path class="ga283-4" d="M13,25v1h3V25h1V24H16V23H13v1H12v1Z"/><rect class="ga283-2" x="12" y="25" width="1" height="1"/><path class="ga283-2" d="M12,24H10v1h2Z"/><path class="ga283-2" d="M9,31V26h1V25H8v1H7v1H8v6H9V31Z"/><path class="ga283-3" d="M8,27H7v6H8V27Z"/><path class="ga283-2" d="M7,27H6v6H7V27Z"/><path class="ga283-5" d="M19,30H18V29H17v3h1V31h1v1h1V29H19Z"/><rect class="ga283-5" x="18" y="28" width="1" height="1"/><path class="ga283-5" d="M15,30v1h1V29H15Z"/><path class="ga283-5" d="M14,30V29h1V28H13v4h2V31H14Z"/><path class="ga283-5" d="M9,32h1V31h1v1h1V29H11v1H10V29H9v3Z"/><rect class="ga283-5" x="10" y="28" width="1" height="1"/><rect class="ga283-2" x="20" y="15" width="1" height="1"/><rect class="ga283-4" x="13" y="20" width="1" height="1"/><path class="ga283-4" d="M18,17H16V16H15v1H14V16H13v1H10v1h1v1h1V18h5v1h1V18h1V16H18Z"/><rect class="ga283-4" x="19" y="15" width="1" height="1"/><rect class="ga283-4" x="9" y="15" width="1" height="1"/><rect class="ga283-4" x="15" y="20" width="1" height="1"/><path class="ga283-2" d="M16,23v1h1V22H16Z"/><rect class="ga283-2" x="8" y="15" width="1" height="1"/><rect class="ga283-2" x="14" y="16" width="1" height="1"/><rect class="ga283-6" x="16" y="13" width="1" height="1"/><path class="ga283-7" d="M13,23h3V22h2V21h1V20h1V16H19v2H18v1H16v2H15V20H14v1H13V19H11V18H10V16H9v4h1v1h1v1h2Z"/><path class="ga283-2" d="M12,18v1h1V18Z"/><path class="ga283-2" d="M16,18v1h1V18Z"/><path class="ga283-2" d="M15,18H14v1H13v1h3V19H15Z"/><path class="ga283-8" d="M14,18H13v1h1Z"/><path class="ga283-8" d="M15,18v1h1V18Z"/><rect class="ga283-9" x="14" y="15" width="1" height="1"/><path class="ga283-9" d="M11,16H10v1h1Z"/><path class="ga283-9" d="M16,14V13h1v1h3V11H19V10H18V9H11v1H10v1H9v3h7Z"/><path class="ga283-2" d="M10,16h1v1h2V16h1V15h1v1h1v1h2V16h1V15h1V14H9v1h1Z"/></svg>