<svg xmlns="http://www.w3.org/2000/svg" viewBox="0 0 29 33"><defs><style>polygon,rect,path{shape-rendering:crispedges;}.fb25-1{fill:#397d98;}.fb25-2{fill:#000000;}.fb25-3{fill:#333333;}.fb25-4{fill:#ffffff;}.fb25-5{fill:#e8b795;}.fb25-6{fill:#90a2a3;}.fb25-7{fill:#004a77;}.fb25-8{fill:#ffffff;}.fb25-9{fill:#004a77;}.fb25-10{fill:#cbed03;}.fb25-11{fill:#a3531d;}.fb25-12{fill:#b3bbce;}</style></defs><path class="fb25-1" d="M6,27H7V26H8V25H9V24h1V23h1V22h1V21H11V20H10V19H9V16H8V15H9V11h1V10h1V9h1V8h5V9h2v1h1v1h1v3H20v1h1v1H20v3H19v1H18v1H17v1h1v1h1V21h3v1h1v1h1v8H23v1H21v1h8V0H0V33H6V27Z"/><rect class="fb25-1" x="20" y="24" width="1" height="1"/><path class="fb25-2" d="M7,32V27H6v6H7Z"/><path class="fb25-3" d="M8,27H7v6H8V27Z"/><path class="fb25-2" d="M9,29h1V28h2V27H9V25H8v1H7v1H8v6H9V29Z"/><rect class="fb25-2" x="9" y="24" width="1" height="1"/><path class="fb25-3" d="M12,32V31H11V30H10V29H9v4h4V32Z"/><rect class="fb25-2" x="10" y="23" width="1" height="1"/><path class="fb25-3" d="M10,26v1h2v1H10v1h1v1h1v1h1V26H12V25H11V24H10v1H9v1Z"/><rect class="fb25-2" x="10" y="29" width="1" height="1"/><rect class="fb25-3" x="11" y="23" width="1" height="1"/><rect class="fb25-2" x="11" y="24" width="1" height="1"/><rect class="fb25-2" x="11" y="30" width="1" height="1"/><path class="fb25-2" d="M12,24h1V22H11v1h1Z"/><rect class="fb25-2" x="12" y="25" width="1" height="1"/><path class="fb25-2" d="M17,32V31H16V26H13v5H12v1h1v1h1V27h1v6h1V32Z"/><path class="fb25-4" d="M15,27H14v6h1V27Z"/><path class="fb25-5" d="M17,25V24H16V23H13v1H12v1h1v1h3V25Z"/><rect class="fb25-2" x="16" y="25" width="1" height="1"/><path class="fb25-3" d="M20,29H19v1H18v1H17v1H16v1h4V29Z"/><rect class="fb25-3" x="17" y="23" width="1" height="1"/><rect class="fb25-2" x="17" y="24" width="1" height="1"/><rect class="fb25-2" x="17" y="30" width="1" height="1"/><rect class="fb25-2" x="18" y="23" width="1" height="1"/><rect class="fb25-2" x="18" y="29" width="1" height="1"/><rect class="fb25-2" x="19" y="24" width="1" height="1"/><path class="fb25-3" d="M19,24H18v1H17v1H16v5h1V30h1V29h1V28H17V27h2V26h1V25H19Z"/><path class="fb25-2" d="M22,32h1V31H22V24H21v1H20v2H17v1h2v1h1v4h1V32Z"/><path class="fb25-3" d="M23,25V24H22v7h1V25Z"/><path class="fb25-2" d="M23,25v6h1V23H23v2Z"/><path class="fb25-6" d="M19,27h1V26H19Z"/><path class="fb25-6" d="M9,26v1h1V26Z"/><rect class="fb25-2" x="20" y="15" width="1" height="1"/><path class="fb25-5" d="M13,21h3V20H13Z"/><path class="fb25-5" d="M10,17v1h1v1h1V18h1v1h3v1h1V19h1V18h1V16h1V15H19V13H18V12H17V11H15V10H11v1H10v4H9v1h1Zm1-3h1V13h1V12h3v1h1v1h1v1H16v1H15v1H14V16H13V15H11Z"/><rect class="fb25-5" x="12" y="19" width="1" height="1"/><path class="fb25-2" d="M16,23v1h1V23h1V22H16Z"/><rect class="fb25-2" x="8" y="15" width="1" height="1"/><path class="fb25-7" d="M18,15V14H17v1Z"/><rect class="fb25-7" x="16" y="13" width="1" height="1"/><rect class="fb25-2" x="14" y="14" width="1" height="1"/><path class="fb25-8" d="M13,15v1h3V15h1V14H16V13H13v1H12v1Zm1-1h1v1H14Z"/><path class="fb25-7" d="M16,13V12H13v1h3Z"/><rect class="fb25-7" x="12" y="13" width="1" height="1"/><path class="fb25-7" d="M12,14H11v1h1Z"/><path class="fb25-2" d="M14,17h1V16H14Z"/><path class="fb25-9" d="M13,23h3V22h1V21h1V20h1V19h1V16H19v2H18v1H17v1H16v1H13V20H12V19H11V18H10V16H9v3h1v1h1v1h1v1h1Z"/><rect class="fb25-2" x="13" y="19" width="3" height="1"/><rect class="fb25-2" x="12" y="18" width="1" height="1"/><path class="fb25-10" d="M10,14V11H9v4h1Z"/><rect class="fb25-10" x="10" y="10" width="1" height="1"/><path class="fb25-10" d="M15,10v1h2v1h1v1h1v2h1V14h1V11H20V10H19V9H17V8H12V9H11v1h4Z"/><path class="fb25-11" d="M20,24h1V23H19v1Z"/><path class="fb25-12" d="M22,23V21H19v2h3Z"/><path class="fb25-5" d="M21,23v1h2V23H21Z"/><path class="fb25-2" d="M23,23V22H22v1Z"/></svg>