<svg xmlns="http://www.w3.org/2000/svg" viewBox="0 0 29 33"><defs><style>polygon,rect,path{shape-rendering:crispedges;}.eb190-1{fill:#7a982c;}.eb190-2{fill:#000000;}.eb190-3{fill:#663434;}.eb190-4{fill:#6c9302;}.eb190-5{fill:#c18d59;}.eb190-6{fill:#90a2a3;}.eb190-7{fill:#ffffff;}.eb190-8{fill:#316a6d;}.eb190-9{fill:#fad000;}.eb190-10{fill:#316a6d;}.eb190-11{fill:#cbed03;}</style></defs><path class="eb190-1" d="M6,32V27H7V26H8V25H9V24h1V23h1V22h1V21H11V20H10V19H9V16H8V14H9V12H8v1H7V12H8V11H9V10h1V9h2V8h5V9h2v1h1v1h1v1h1v1H21V12H20v2h1v2H20v3H19v1H18v1H17v1h1v1h1V21h3v4h1v8h6V0H0V33H6Z"/><path class="eb190-2" d="M7,27H6v6H7V27Z"/><path class="eb190-3" d="M8,27H7v6H8V27Z"/><path class="eb190-2" d="M9,29h1V28h2V27H9V25H8v1H7v1H8v6H9V29Z"/><path class="eb190-3" d="M12,32V31H11V30H10V29H9v4h4V32Z"/><path class="eb190-3" d="M10,26v1h2V26H11V25H9v1Z"/><path class="eb190-3" d="M12,28H10v1h1v1h1v1h1V27H12Z"/><rect class="eb190-2" x="10" y="29" width="1" height="1"/><path class="eb190-4" d="M15,30H14v3h1V30Z"/><path class="eb190-5" d="M14,24h1v1h1V23H13v2h1Z"/><path class="eb190-3" d="M20,29H19v1H18v1H17v1H16v1h4V29Z"/><rect class="eb190-2" x="17" y="30" width="1" height="1"/><path class="eb190-3" d="M16,28v3h1V30h1V29h1V28H17V27H16Z"/><path class="eb190-3" d="M19,25H18v1H17v1h2V25Z"/><path class="eb190-2" d="M21,27V26H20v1H17v1h2v1h1v4h1V27Z"/><path class="eb190-3" d="M22,27H21v6h1V27Z"/><path class="eb190-2" d="M23,25H22v8h1V25Z"/><rect class="eb190-2" x="18" y="29" width="1" height="1"/><rect class="eb190-2" x="11" y="30" width="1" height="1"/><path class="eb190-2" d="M17,32V31H16V27H15v2H14V27H13v4H12v1h1v1h1V30h1v3h1V32Z"/><path class="eb190-6" d="M19,27h1V26H19Z"/><path class="eb190-6" d="M9,26v1h1V26Z"/><path class="eb190-2" d="M20,16h1V15H20Z"/><rect class="eb190-2" x="19" y="14" width="1" height="1"/><rect class="eb190-5" x="12" y="19" width="1" height="1"/><path class="eb190-5" d="M10,17v1h1v1h1V18h1v1h3v1h1V19h1V18h1V16h1V15H16V13h1V12H15V11H14v1H13v1H11v1h2v1H9v1h1Zm4-1h1v1H14Z"/><path class="eb190-5" d="M18,14h1V13H17v1Z"/><path class="eb190-5" d="M13,21h3V20H13Z"/><path class="eb190-2" d="M16,23v2h1V23h1V22H16Z"/><path class="eb190-2" d="M10,15V14H9v1Z"/><path class="eb190-2" d="M8,15v1H9V15Z"/><rect class="eb190-2" x="14" y="16" width="1" height="1"/><path class="eb190-7" d="M13,15V14H12v1Z"/><path class="eb190-7" d="M10,15h1V14H10Z"/><path class="eb190-7" d="M18,14v1h1V14Z"/><path class="eb190-7" d="M16,14v1h1V14Z"/><path class="eb190-2" d="M12,15V14H11v1Z"/><path class="eb190-2" d="M17,14v1h1V14Z"/><rect class="eb190-8" x="10" y="13" width="1" height="1"/><path class="eb190-8" d="M12,13h1V12H12Z"/><path class="eb190-8" d="M17,13H16v1h1Z"/><rect class="eb190-2" x="12" y="26" width="1" height="1"/><rect class="eb190-2" x="16" y="26" width="1" height="1"/><rect class="eb190-2" x="17" y="25" width="1" height="1"/><rect class="eb190-2" x="11" y="25" width="1" height="1"/><rect class="eb190-2" x="14" y="24" width="1" height="1"/><rect class="eb190-2" x="13" y="25" width="1" height="1"/><rect class="eb190-2" x="15" y="25" width="1" height="1"/><path class="eb190-2" d="M12,24v1h1V22H11v1h1Z"/><rect class="eb190-9" x="16" y="25" width="1" height="1"/><path class="eb190-9" d="M15,26V25H14v1H13v1h1v2h1V27h1V26Z"/><rect class="eb190-9" x="12" y="25" width="1" height="1"/><path class="eb190-9" d="M12,25V23H11v2Z"/><path class="eb190-9" d="M17,24v1h1V23H17Z"/><path class="eb190-2" d="M19,25V23H18v2Z"/><path class="eb190-2" d="M11,23H10v1H9v1h2Z"/><path class="eb190-10" d="M13,23h3V22h1V21h1V20h1V19h1V16H19v2H18v1H17v1H16v1H13V20H12V19H11V18H10V16H9v3h1v1h1v1h1v1h1Z"/><rect class="eb190-2" x="13" y="19" width="3" height="1"/><rect class="eb190-2" x="12" y="18" width="1" height="1"/><rect class="eb190-11" x="21" y="12" width="1" height="1"/><path class="eb190-11" d="M10,13h2V12h2V11h1v1h2v1h2v1h1V12h1V11H20V10H19V9H17V8H12V9H10v1H9v1H8v1H9v2h1Z"/><path class="eb190-11" d="M21,15V14H20v1Z"/><path class="eb190-11" d="M9,14H8v1H9Z"/><rect class="eb190-11" x="7" y="12" width="1" height="1"/><rect class="eb190-2" x="20" y="22" width="1" height="1"/><path class="eb190-7" d="M19,26h1V25h2V21H19v5Zm1-4h1v1H20Z"/><path class="eb190-5" d="M20,26h1v1h1V25H20Z"/></svg>