<svg xmlns="http://www.w3.org/2000/svg" viewBox="0 0 29 33"><defs><style>polygon,rect,path{shape-rendering:crispedges;}.ca249-1{fill:#29834f;}.ca249-2{fill:#000000;}.ca249-3{fill:#a56e49;}.ca249-4{fill:#5a2de2;}.ca249-5{fill:#004a77;}.ca249-6{fill:#34e0cb;}.ca249-7{fill:#316a6d;}.ca249-8{fill:#508e91;}</style></defs><path class="ca249-1" d="M0,33H6V27H7V26H8V25h2V24h2V22H11V21H10v1H9V21H8V20H7V19H8V12H9V10h1V9h1V8h7V9h1v1h1v2h1v7h1v1H21v1H20v1H19V21H18v1H17v2h2v1h1V24h1V23h1v1h1v9h6V0H0Z"/><path class="ca249-2" d="M7,27H6v6H7V27Z"/><rect class="ca249-2" x="7" y="26" width="1" height="1"/><path class="ca249-3" d="M8,27H7v6H8V27Z"/><rect class="ca249-3" x="8" y="26" width="1" height="1"/><path class="ca249-2" d="M9,27H8v6H9V27Z"/><path class="ca249-2" d="M10,26V25H8v1h2Z"/><path class="ca249-4" d="M20,27H19V25H18v1H17v1H16v1H13V27H12V26H11V25H10v1H9v7H20V27Z"/><path class="ca249-2" d="M13,23h3v1h1V21H16v1H13V21H12v3h1Z"/><path class="ca249-2" d="M21,27H20v6h1V27Z"/><path class="ca249-3" d="M22,24H21v1H20v2h1v6h1V24Z"/><path class="ca249-2" d="M23,24H22v9h1V24Z"/><path class="ca249-2" d="M11,26h1V24H10v1h1Z"/><rect class="ca249-2" x="12" y="26" width="1" height="1"/><rect class="ca249-2" x="16" y="26" width="1" height="1"/><path class="ca249-2" d="M18,26V25h1V24H17v2Z"/><path class="ca249-2" d="M13,27v1h3V27H13Z"/><path class="ca249-3" d="M13,26v1h3V26h1V24H16V23H13v1H12v2Z"/><path class="ca249-2" d="M20,16h1V15H20Z"/><path class="ca249-3" d="M13,13h4V11H16V10H13v1H12v1h1Z"/><path class="ca249-3" d="M18,20V19h1V16h1V15H18v1H16V15H15V14H14v1H13v1H11V15H9v1h1v3h1v1h1v1h1v1h3V21h1V20Zm-4-4h1v1H14Zm2,3v1H13V19H12V18h5v1Z"/><path class="ca249-2" d="M19,17v2h1V16H19Z"/><rect class="ca249-2" x="18" y="19" width="1" height="1"/><rect class="ca249-2" x="17" y="20" width="1" height="1"/><rect class="ca249-2" x="11" y="20" width="1" height="1"/><rect class="ca249-2" x="10" y="19" width="1" height="1"/><path class="ca249-2" d="M10,16H9v3h1V16Z"/><path class="ca249-2" d="M9,15H8v1H9Z"/><rect class="ca249-2" x="14" y="16" width="1" height="1"/><path class="ca249-5" d="M13,12H11v1h2Z"/><path class="ca249-5" d="M18,13V12H17v1Z"/><polygon class="ca249-2" points="17 18 12 18 12 19 13 19 13 20 16 20 16 19 17 19 17 18"/><path class="ca249-2" d="M20,27V25H19v2Z"/><rect class="ca249-2" x="20" y="24" width="1" height="1"/><rect class="ca249-2" x="21" y="23" width="1" height="1"/><path class="ca249-6" d="M20,17v2H19v1H18v1h1v1h1V21h1V20h1V19H21V16H20Z"/><path class="ca249-6" d="M9,14h2V12h1V11h1V10h3v1h1v1h1v2h2v1h1V12H20V10H19V9H18V8H11V9H10v1H9v2H8v3H9Z"/><path class="ca249-6" d="M10,20V19H9V16H8v3H7v1H8v1H9v1h1V21h1V20Z"/><path class="ca249-6" d="M11,21v1h1V21Z"/><path class="ca249-6" d="M17,22h1V21H17Z"/><path class="ca249-7" d="M12,15h1V14H11v1Z"/><path class="ca249-7" d="M16,15h2V14H16Z"/><path class="ca249-8" d="M11,15v1h2V15H11Z"/><path class="ca249-2" d="M19,15h1V14H18v1Z"/><path class="ca249-2" d="M11,14H9v1h2Z"/><path class="ca249-2" d="M13,15h1V14h1v1h1V14h2V13H11v1h2Z"/><path class="ca249-8" d="M16,16h2V15H16Z"/></svg>