<svg xmlns="http://www.w3.org/2000/svg" viewBox="0 0 29 33"><defs><style>polygon,rect,path{shape-rendering:crispedges;}.ka151-1{fill:#d14646;}.ka151-2{fill:#000000;}.ka151-3{fill:#009b97;}.ka151-4{fill:#a56e49;}.ka151-5{fill:#ffffff;}.ka151-6{fill:#893a1f;}.ka151-7{fill:#893a1f;}</style></defs><path class="ka151-1" d="M0,33H6V27H7V26H8V25h2V24h2V22H11V21H10V20H9V16H8V15H9V11h1V10h1V9h7v1h1v1h1v4h1v1H20v4H19v1H18v1H17v2h2v1h2v1h1v1h1v6h6V0H0Z"/><path class="ka151-2" d="M23,27H22v6h1V27Z"/><rect class="ka151-2" x="21" y="26" width="1" height="1"/><path class="ka151-3" d="M22,27H21v6h1V27Z"/><path class="ka151-2" d="M21,27H20v6h1V27Z"/><path class="ka151-2" d="M20,26h1V25H19v1Z"/><path class="ka151-3" d="M20,27h1V26H19V25H17V24H16V23H13v1H12v1H10v1H8v1H9v6H20V27Z"/><path class="ka151-2" d="M18,25h1V24H17v1Z"/><path class="ka151-2" d="M13,23V22H12v2h1Z"/><path class="ka151-2" d="M12,24H10v1h2Z"/><path class="ka151-2" d="M10,25H8v1h2Z"/><path class="ka151-2" d="M9,27H8v6H9V27Z"/><rect class="ka151-2" x="7" y="26" width="1" height="1"/><path class="ka151-3" d="M8,27H7v6H8V27Z"/><path class="ka151-2" d="M7,27H6v6H7V27Z"/><rect class="ka151-2" x="20" y="15" width="1" height="1"/><path class="ka151-2" d="M19,13v2h1V11H19v2Z"/><path class="ka151-4" d="M10,17v1h1v1h1V18h2v1h1V18h2v1h1V18h1V16h1V15H16V14h3V13H16V12h3V11H18V10H11v1H10v2h3v2H9v1h1Zm4-1h1v1H14Z"/><rect class="ka151-4" x="15" y="20" width="1" height="1"/><rect class="ka151-4" x="13" y="20" width="1" height="1"/><rect class="ka151-2" x="18" y="10" width="1" height="1"/><path class="ka151-2" d="M16,23v1h1V22H16Z"/><path class="ka151-2" d="M18,10V9H11v1h7Z"/><rect class="ka151-2" x="10" y="10" width="1" height="1"/><path class="ka151-2" d="M10,14V11H9v4h1Z"/><rect class="ka151-2" x="8" y="15" width="1" height="1"/><rect class="ka151-2" x="14" y="16" width="1" height="1"/><path class="ka151-5" d="M12,15h1V14H12Z"/><path class="ka151-5" d="M10,14v1h1V14Z"/><path class="ka151-5" d="M18,14v1h1V14Z"/><path class="ka151-5" d="M16,14v1h1V14Z"/><path class="ka151-2" d="M11,14v1h1V14Z"/><path class="ka151-2" d="M17,14v1h1V14Z"/><path class="ka151-6" d="M16,12v1h3V12Z"/><path class="ka151-6" d="M11,14h2V13H10v1Z"/><path class="ka151-7" d="M15,18v1h1V18Z"/><path class="ka151-7" d="M13,23h3V22h2V21h1V20h1V16H19v2H18v1H16v2H15V20H14v1H13V19h1V18H12v1H11V18H10V16H9v4h1v1h1v1h2Z"/><path class="ka151-2" d="M14,19H13v1h3V19H14Z"/><path class="ka151-2" d="M16,18v1h1V18Z"/></svg>