<svg xmlns="http://www.w3.org/2000/svg" viewBox="0 0 29 33"><defs><style>polygon,rect,path{shape-rendering:crispedges;}.oa133-1{fill:#db5a8e;}.oa133-2{fill:#000000;}.oa133-3{fill:#3f2f17;}.oa133-4{fill:#333333;}.oa133-5{fill:#ce8452;}.oa133-6{fill:#8c7850;}.oa133-7{fill:#ffffff;}.oa133-8{fill:#685432;}.oa133-9{fill:#fad000;}.oa133-10{fill:#4922aa;}.oa133-11{fill:#ff1d99;}.oa133-12{fill:#9b005c;}</style></defs><path class="oa133-1" d="M6,32V25H7V24H6V23H7V22H8v1H9v1H8v1h2V23h1V22h1V21H10v1H9V21H8V20H9V17H8V12H9V10h1V9h1V8h7V9h1v1h1v2h1v6H20v2h1v1H20v1H19V21H17v1h1v1h1v2h2v1h1v1h1v6h6V0H0V33H6Z"/><path class="oa133-2" d="M23,27H22v6h1V27Z"/><path class="oa133-3" d="M21,28v2h1V27H21Z"/><path class="oa133-3" d="M21,31v2h1V31Z"/><rect class="oa133-2" x="21" y="26" width="1" height="1"/><path class="oa133-2" d="M21,30V27H20v6h1V30Z"/><path class="oa133-3" d="M20,32V26H19V25H18v3h1v1H18v4h1V32Z"/><path class="oa133-2" d="M20,26h1V25H19v1Z"/><path class="oa133-2" d="M18,29V25H17v1H16v1h1v6h1V29Z"/><path class="oa133-4" d="M17,27H16v2H15v1H14V29H13V27H12v6h5V27Z"/><path class="oa133-5" d="M14,24h1v1h1V23H13v2h1Z"/><path class="oa133-2" d="M12,27h1V26H12V25H11v8h1V27Z"/><path class="oa133-3" d="M11,29H10V28h1V25H10v1H9v6h1v1h1V29Z"/><path class="oa133-2" d="M9,31V26h1V25H8v8H9V31Z"/><path class="oa133-3" d="M7,29v2H8V28H7Z"/><path class="oa133-3" d="M7,32v1H8V32Z"/><path class="oa133-5" d="M8,27V25H7v2Z"/><path class="oa133-2" d="M7,31V25H6v8H7V31Z"/><path class="oa133-6" d="M19,29V28H18v1Z"/><path class="oa133-6" d="M10,29h1V28H10Z"/><path class="oa133-6" d="M7,28H8V27H7Z"/><path class="oa133-6" d="M20,27h1V26H20Z"/><path class="oa133-6" d="M9,32v1h1V32Z"/><path class="oa133-6" d="M19,32v1h1V32Z"/><path class="oa133-6" d="M21,31h1V30H21Z"/><path class="oa133-6" d="M7,32H8V31H7Z"/><path class="oa133-5" d="M13,22h3V21h1V20h1V19h1V16h1V15H16V14h2V13H16V12h1V11H16V10H15v1H14v1H13v3H10v4h1v1h1v1h1Zm1-6h1v1H14Zm-1,3h3v1H13Z"/><path class="oa133-2" d="M19,16v3h1V16Z"/><rect class="oa133-2" x="18" y="19" width="1" height="1"/><path class="oa133-2" d="M17,20v1h1V20Z"/><path class="oa133-2" d="M11,20v1h1V20Z"/><rect class="oa133-2" x="10" y="19" width="1" height="1"/><path class="oa133-2" d="M10,18H9v1h1Z"/><rect class="oa133-2" x="14" y="16" width="1" height="1"/><path class="oa133-7" d="M12,15h1V14H12Z"/><path class="oa133-7" d="M10,14v1h1V14Z"/><path class="oa133-7" d="M18,14v1h1V14Z"/><path class="oa133-7" d="M16,14v1h1V14Z"/><path class="oa133-2" d="M11,14v1h1V14Z"/><path class="oa133-2" d="M17,14v1h1V14Z"/><rect class="oa133-8" x="18" y="13" width="1" height="1"/><polygon class="oa133-8" points="17 12 16 12 16 13 18 13 18 12 17 12"/><path class="oa133-8" d="M12,14h1V13H12Z"/><rect class="oa133-2" x="14" y="29" width="1" height="1"/><path class="oa133-2" d="M15,28v1h1V27H15Z"/><path class="oa133-2" d="M13,27v2h1V27Z"/><rect class="oa133-2" x="14" y="24" width="1" height="1"/><rect class="oa133-2" x="13" y="25" width="1" height="1"/><rect class="oa133-2" x="15" y="25" width="1" height="1"/><path class="oa133-2" d="M12,24v1h1V23h3v2h1V23h1V22H17V21H16v1H13V21H12v1H11v1h1Z"/><rect class="oa133-9" x="16" y="25" width="1" height="1"/><path class="oa133-9" d="M15,25H14v1H13v1h1v2h1V27h1V26H15Z"/><rect class="oa133-9" x="12" y="25" width="1" height="1"/><path class="oa133-9" d="M11,25h1V23H11v2Z"/><path class="oa133-9" d="M17,24v1h1V23H17Z"/><path class="oa133-2" d="M19,25V23H18v2Z"/><path class="oa133-2" d="M11,24V23H10v2h1Z"/><rect class="oa133-2" x="13" y="19" width="3" height="1"/><path class="oa133-10" d="M19,20H18v1h1v1h1V21h1V20H20V19H19Z"/><path class="oa133-10" d="M10,20V19H9v1H8v1H9v1h1V21h1V20Z"/><path class="oa133-10" d="M10,17V14h2V13h1V12h1V11h1V10h1v1h1v1h1v1h1v2h1v3h1V12H20V10H19V9H18V8H11V9H10v1H9v2H8v5H9v1h1Z"/><rect class="oa133-11" x="7" y="22" width="1" height="1"/><rect class="oa133-11" x="6" y="23" width="1" height="1"/><rect class="oa133-11" x="8" y="23" width="1" height="1"/><path class="oa133-11" d="M8,24.5V24H7v1H8Z"/><rect class="oa133-12" x="7" y="23" width="1" height="1"/></svg>