<svg xmlns="http://www.w3.org/2000/svg" viewBox="0 0 29 33"><defs><style>polygon,rect,path{shape-rendering:crispedges;}.ab203-1{fill:#db5a8e;}.ab203-2{fill:#000000;}.ab203-3{fill:#95f9ed;}.ab203-4{fill:#b2622b;}.ab203-5{fill:#009b97;}.ab203-6{fill:#ffffff;}.ab203-7{fill:#473a35;}.ab203-8{fill:#d8be00;}</style></defs><path class="ab203-1" d="M6,32V27H7V26H8V25h2V24h1V23h1V21H10v1H9V21H8V20H9V17H8V12H9V10h1V9h1V8h7V9h1v1h1v2h1v6H20v2h1v1H20v1H19V21H17v2h1v1h1v1h2v1h1v1h1v6h6V0H0V33H6Z"/><path class="ab203-2" d="M23,27H22v6h1V27Z"/><path class="ab203-3" d="M21,28h1V27H21Z"/><path class="ab203-3" d="M21,31h1V30H21Z"/><rect class="ab203-2" x="21" y="26" width="1" height="1"/><path class="ab203-2" d="M21,30V27H20v6h1V30Z"/><path class="ab203-3" d="M14,27H9v1H20V27H14Z"/><path class="ab203-3" d="M15,31h5V30H15Z"/><rect class="ab203-3" x="9" y="30" width="5" height="1"/><path class="ab203-2" d="M20,26h1V25H19v1Z"/><rect class="ab203-3" x="16" y="24" width="1" height="1"/><rect class="ab203-2" x="15" y="24" width="1" height="1"/><rect class="ab203-2" x="14" y="32" width="1" height="1"/><rect class="ab203-2" x="14" y="30" width="1" height="1"/><path class="ab203-2" d="M15,29V28H14v1Z"/><path class="ab203-2" d="M15,26V25H14v2h1Z"/><rect class="ab203-2" x="13" y="24" width="1" height="1"/><path class="ab203-4" d="M15,24h1V23H13v1h1v1h1Z"/><rect class="ab203-3" x="12" y="24" width="1" height="1"/><path class="ab203-2" d="M11,26h2V25H12V24h1V23h3v1h1v1H16v1h2V25h1V24H18V23H17V21H16v1H13V21H12v2H11v1H10v1h1Z"/><path class="ab203-2" d="M10,25H8v1h2Z"/><path class="ab203-2" d="M9,30V27H8v6H9V30Z"/><path class="ab203-3" d="M8,28V27H7v1Z"/><path class="ab203-3" d="M7,31H8V30H7Z"/><rect class="ab203-2" x="7" y="26" width="1" height="1"/><path class="ab203-2" d="M7,30V27H6v6H7V30Z"/><path class="ab203-5" d="M15,31H9v2h5V32h1v1h5V31Z"/><path class="ab203-5" d="M15,29H14V28H9v2H20V28H15Z"/><path class="ab203-5" d="M18,26H16V25H15v2h6V26H19V25H18Z"/><path class="ab203-5" d="M9,27h5V25H13v1H11V25H10v1H8v1Z"/><path class="ab203-5" d="M7,29v1H8V28H7Z"/><path class="ab203-5" d="M7,31v2H8V31Z"/><path class="ab203-5" d="M21,31v2h1V31Z"/><path class="ab203-5" d="M21,29v1h1V28H21Z"/><path class="ab203-4" d="M18,14h1V13H17v1Z"/><path class="ab203-4" d="M13,22h3V21h1V20h1V19h1V16h1V15H16V13h1V11H16V10H15v1H14v1H13v1H12v1h1v1H10v4h1v1h1v1h1Zm1-6h1v1H14Zm-2,3V18h1v1h3v1H13V19Z"/><path class="ab203-2" d="M19,16v3h1V16Z"/><rect class="ab203-2" x="18" y="19" width="1" height="1"/><path class="ab203-2" d="M17,20v1h1V20Z"/><path class="ab203-2" d="M11,20v1h1V20Z"/><rect class="ab203-2" x="10" y="19" width="1" height="1"/><path class="ab203-2" d="M10,18H9v1h1Z"/><rect class="ab203-2" x="14" y="16" width="1" height="1"/><path class="ab203-6" d="M10,14v1h1V14Z"/><path class="ab203-6" d="M16,14v1h1V14Z"/><path class="ab203-2" d="M11,15h2V14H11Z"/><path class="ab203-2" d="M18,14H17v1h2V14Z"/><path class="ab203-7" d="M17,13H16v1h1Z"/><path class="ab203-7" d="M18,12H17v1h1Z"/><rect class="ab203-2" x="13" y="19" width="3" height="1"/><rect class="ab203-2" x="12" y="18" width="1" height="1"/><path class="ab203-8" d="M19,20H18v1h1v1h1V21h1V20H20V19H19Z"/><path class="ab203-8" d="M10,20V19H9v1H8v1H9v1h1V21h1V20Z"/><path class="ab203-8" d="M10,17V14h2V13h1V12h1V11h1V10h1v1h1v1h1v1h1v2h1v3h1V12H20V10H19V9H18V8H11V9H10v1H9v2H8v5H9v1h1Z"/></svg>