<svg xmlns="http://www.w3.org/2000/svg" viewBox="0 0 29 33"><defs><style>polygon,rect,path{shape-rendering:crispedges;}.aa156-1{fill:#db5a8e;}.aa156-2{fill:#000000;}.aa156-3{fill:#efcaaf;}.aa156-4{fill:#e0dbc6;}.aa156-5{fill:#8e9350;}.aa156-6{fill:#8e703c;}.aa156-7{fill:#ffffff;}.aa156-8{fill:#fad000;}.aa156-9{fill:#8e703c;}.aa156-10{fill:#c8a715;}.aa156-11{fill:#cbed03;}</style></defs><path class="aa156-1" d="M0,33H6V27H7V26H8V25h2V20H9V16H8V15H9V11h1V10h1V9h7v1h1v1h1v4h1v1H20v4H19v5h2v1h1v1h1v6h6V0H0Z"/><path class="aa156-2" d="M23,31V27H22v6h1Z"/><rect class="aa156-2" x="21" y="26" width="1" height="1"/><path class="aa156-3" d="M22,31V27H21v6h1Z"/><rect class="aa156-3" x="20" y="26" width="1" height="1"/><path class="aa156-2" d="M21,31V27H20v6h1Z"/><path class="aa156-2" d="M20,26h1V25H19v1Z"/><rect class="aa156-4" x="18" y="32" width="1" height="1"/><rect class="aa156-4" x="10" y="30" width="1" height="1"/><rect class="aa156-4" x="18" y="30" width="1" height="1"/><path class="aa156-4" d="M14,31v1h1V30H14Z"/><path class="aa156-4" d="M17,31V30h1V29h1v1h1V26H19V25H18v1H17v1H16v2H15v1h1v2H15v1h2Z"/><path class="aa156-4" d="M13,31V27H12V26H11V25H10v1H9v4h1V29h1v1h1v3h1Z"/><rect class="aa156-4" x="10" y="32" width="1" height="1"/><path class="aa156-3" d="M13,25h1V24h1v1h1V23H13Z"/><path class="aa156-2" d="M10,26V25H8v1Z"/><rect class="aa156-3" x="8" y="26" width="1" height="1"/><path class="aa156-2" d="M9,31V27H8v6H9Z"/><rect class="aa156-2" x="7" y="26" width="1" height="1"/><path class="aa156-3" d="M8,31V27H7v6H8Z"/><path class="aa156-2" d="M7,31V27H6v6H7Z"/><path class="aa156-5" d="M20,31V30H19v1H18V30H17v3h1V32h1v1h1Z"/><rect class="aa156-5" x="18" y="29" width="1" height="1"/><path class="aa156-5" d="M15,32h1V30H15Z"/><path class="aa156-5" d="M14,32V29H13v4h2V32Z"/><path class="aa156-5" d="M12,31V30H11v1H10V30H9v3h1V32h1v1h1Z"/><rect class="aa156-5" x="10" y="29" width="1" height="1"/><rect class="aa156-2" x="20" y="15" width="1" height="1"/><path class="aa156-2" d="M19,13v2h1V12H19Z"/><polygon class="aa156-3" points="13 21 14 21 14 22 15 22 15 21 16 21 16 20 13 20 13 21"/><rect class="aa156-3" x="11" y="10" width="1" height="1"/><path class="aa156-3" d="M10,17v1h1v1h1V18h2v1h1V18h2v1h1V18h1V16h1V15H19V11H18v1H17V11H16V10H13v1H12v1H11V11H10v4H9v1h1Zm1-3h1V13h1V12h3v1h1v1h1v1H16v1H15v1H14V16H13V15H11Z"/><rect class="aa156-3" x="17" y="10" width="1" height="1"/><rect class="aa156-2" x="19" y="16" width="1" height="1"/><path class="aa156-2" d="M10,14V12H9v3h1Z"/><rect class="aa156-2" x="9" y="16" width="1" height="1"/><rect class="aa156-2" x="8" y="15" width="1" height="1"/><rect class="aa156-6" x="17" y="14" width="1" height="1"/><rect class="aa156-6" x="16" y="13" width="1" height="1"/><rect class="aa156-2" x="14" y="14" width="1" height="1"/><path class="aa156-7" d="M13,15v1h3V15h1V14H16V13H13v1H12v1Zm1-1h1v1H14Z"/><path class="aa156-6" d="M15,13h1V12H13v1Z"/><rect class="aa156-6" x="12" y="13" width="1" height="1"/><rect class="aa156-6" x="11" y="14" width="1" height="1"/><rect class="aa156-2" x="14" y="16" width="1" height="1"/><rect class="aa156-2" x="14" y="29" width="1" height="1"/><rect class="aa156-2" x="12" y="26" width="1" height="1"/><path class="aa156-2" d="M15,28v1h1V27H15Z"/><rect class="aa156-2" x="16" y="26" width="1" height="1"/><path class="aa156-2" d="M14,27H13v2h1Z"/><rect class="aa156-2" x="17" y="25" width="1" height="1"/><rect class="aa156-2" x="11" y="25" width="1" height="1"/><rect class="aa156-2" x="14" y="24" width="1" height="1"/><rect class="aa156-2" x="13" y="25" width="1" height="1"/><rect class="aa156-2" x="15" y="25" width="1" height="1"/><rect class="aa156-8" x="16" y="25" width="1" height="1"/><path class="aa156-8" d="M15,26V25H14v1H13v1h1v2h1V27h1V26Z"/><rect class="aa156-8" x="12" y="25" width="1" height="1"/><path class="aa156-8" d="M12,24V23H11v2h1Z"/><path class="aa156-8" d="M18,23H17v2h1Z"/><rect class="aa156-2" x="18" y="24" width="1" height="1"/><rect class="aa156-2" x="10" y="24" width="1" height="1"/><rect class="aa156-2" x="17" y="22" width="1" height="1"/><rect class="aa156-2" x="11" y="22" width="1" height="1"/><path class="aa156-9" d="M12,22v1h5V22h2V20h1V17H19v1H18v1H16v2H15v1H14V21H13V19h1V18H12v1H11V18H10V17H9v3h1v2Z"/><rect class="aa156-9" x="15" y="18" width="1" height="1"/><rect class="aa156-10" x="18" y="22" width="1" height="1"/><rect class="aa156-9" x="18" y="23" width="1" height="1"/><rect class="aa156-10" x="16" y="23" width="1" height="1"/><rect class="aa156-9" x="16" y="24" width="1" height="1"/><rect class="aa156-10" x="12" y="23" width="1" height="1"/><rect class="aa156-9" x="12" y="24" width="1" height="1"/><rect class="aa156-10" x="10" y="22" width="1" height="1"/><rect class="aa156-9" x="10" y="23" width="1" height="1"/><path class="aa156-2" d="M14,19H13v1h3V19Z"/><rect class="aa156-2" x="16" y="18" width="1" height="1"/><rect class="aa156-11" x="19" y="11" width="1" height="1"/><rect class="aa156-11" x="18" y="10" width="1" height="1"/><path class="aa156-11" d="M12,11h1V10h3v1h1V10h1V9H11v1h1Z"/><rect class="aa156-11" x="17" y="11" width="1" height="1"/><rect class="aa156-11" x="11" y="11" width="1" height="1"/><rect class="aa156-11" x="10" y="10" width="1" height="1"/><rect class="aa156-11" x="9" y="11" width="1" height="1"/></svg>