<svg xmlns="http://www.w3.org/2000/svg" viewBox="0 0 29 33"><defs><style>polygon,rect,path{shape-rendering:crispedges;}.eb133-1{fill:#7a982c;}.eb133-2{fill:#000000;}.eb133-3{fill:#333333;}.eb133-4{fill:#00686d;}.eb133-5{fill:#ce8452;}.eb133-6{fill:#90a2a3;}.eb133-7{fill:#ffffff;}.eb133-8{fill:#893a1f;}.eb133-9{fill:#fad000;}.eb133-10{fill:#893a1f;}.eb133-11{fill:#b23b00;}.eb133-12{fill:#ff1f4a;}.eb133-13{fill:#10bcff;}</style></defs><path class="eb133-1" d="M0,33H6V26H5V24H8v1H9V24h1V23h1V22h1V21H11V20H10V19H9V16H8V15H9V11h1V10h1V9h7v1h1v1h1v4h1v1H20v3H19v1H18v1H17v1h1v1h1v1h1v1h1V24h3v2H23v7h6V0H0Z"/><path class="eb133-1" d="M22,27h0v6h0V27Z"/><path class="eb133-2" d="M23,26H22v7h1V26Z"/><path class="eb133-2" d="M21,32V27h0V25H20v2H17v1h2v1h1v4h1Z"/><path class="eb133-3" d="M20,29H19v1H18v1H17v1H16v1h4V29Z"/><path class="eb133-3" d="M16,28v3h1V30h1V29h1V28H17V27H16Z"/><path class="eb133-3" d="M18,26H17v1h2V26h1V25H18Z"/><rect class="eb133-2" x="18" y="29" width="1" height="1"/><path class="eb133-4" d="M15,30H14v3h1V30Z"/><path class="eb133-5" d="M14,24h1v1h1V23H13v2h1Z"/><path class="eb133-3" d="M12,32V31H11V30H10V29H9v4h4V32Z"/><rect class="eb133-2" x="11" y="30" width="1" height="1"/><path class="eb133-3" d="M10,26v1h2V26H11V25H9v1Z"/><path class="eb133-3" d="M12,28H10v1h1v1h1v1h1V27H12Z"/><path class="eb133-2" d="M9,29h1V28h2V27H9V25H8v8H9V29Z"/><path class="eb133-2" d="M7,27V26H6v7H7V27Z"/><rect class="eb133-2" x="10" y="29" width="1" height="1"/><rect class="eb133-2" x="17" y="30" width="1" height="1"/><path class="eb133-2" d="M17,32V31H16V27H15v2H14V27H13v4H12v1h1v1h1V30h1v3h1V32Z"/><path class="eb133-6" d="M9,26v1h1V26Z"/><path class="eb133-6" d="M19,27h1V26H19Z"/><rect class="eb133-2" x="20" y="15" width="1" height="1"/><rect class="eb133-5" x="15" y="20" width="1" height="1"/><rect class="eb133-5" x="19" y="15" width="1" height="1"/><path class="eb133-5" d="M18,16H16V15H15v2H14V15H13v1H10v2h1v1h1V18h2v1h1V18h2v1h1V18h1V17H18Z"/><rect class="eb133-5" x="13" y="20" width="1" height="1"/><rect class="eb133-5" x="9" y="15" width="1" height="1"/><path class="eb133-2" d="M19,17h1V16H19Z"/><path class="eb133-2" d="M16,23v2h1V23h1V22H16Z"/><path class="eb133-2" d="M10,16H9v1h1Z"/><rect class="eb133-2" x="8" y="15" width="1" height="1"/><path class="eb133-2" d="M15,17V16H14v1Z"/><path class="eb133-7" d="M11,15V14H10v2h1Z"/><path class="eb133-7" d="M13,16V14H12v2Z"/><path class="eb133-2" d="M11,16h1V14H11v2Z"/><rect class="eb133-8" x="12" y="13" width="1" height="1"/><rect class="eb133-2" x="12" y="26" width="1" height="1"/><rect class="eb133-2" x="16" y="26" width="1" height="1"/><rect class="eb133-2" x="17" y="25" width="1" height="1"/><rect class="eb133-2" x="11" y="25" width="1" height="1"/><rect class="eb133-2" x="14" y="24" width="1" height="1"/><rect class="eb133-2" x="13" y="25" width="1" height="1"/><rect class="eb133-2" x="15" y="25" width="1" height="1"/><path class="eb133-2" d="M12,24v1h1V22H11v1h1Z"/><rect class="eb133-9" x="16" y="25" width="1" height="1"/><path class="eb133-9" d="M15,26V25H14v1H13v1h1v2h1V27h1V26Z"/><rect class="eb133-9" x="12" y="25" width="1" height="1"/><path class="eb133-9" d="M12,25V23H11v2Z"/><path class="eb133-9" d="M17,24v1h1V23H17Z"/><path class="eb133-2" d="M20,25V24H19V23H18v2Z"/><path class="eb133-2" d="M11,23H10v1H9v1h2Z"/><path class="eb133-10" d="M15,18v1h1V18Z"/><path class="eb133-10" d="M13,23h3V22h1V21h1V20h1V19h1V17H19v1H18v1H16v2H15V20H14v1H13V19h1V18H12v1H11V18H10V17H9v2h1v1h1v1h1v1h1Z"/><path class="eb133-2" d="M14,19H13v1h3V19H14Z"/><path class="eb133-2" d="M16,18v1h1V18Z"/><path class="eb133-11" d="M10,14h2V13h1v2h1v1h1V15h1v1h2v1h1V15h1V11H19V10H18V9H11v1H10v1H9v4h1Z"/><path class="eb133-2" d="M23,26h1V25H23Z"/><path class="eb133-2" d="M22,24H21v1h1Z"/><path class="eb133-12" d="M23,25h1V24H22v1Z"/><path class="eb133-2" d="M8,25V24H7v1Z"/><path class="eb133-2" d="M5,25v1H6V25Z"/><path class="eb133-5" d="M22,27h0V26h1V25H21v2Z"/><path class="eb133-5" d="M7,27H8V25H6v1H7Z"/><path class="eb133-13" d="M7,25V24H5v1H7Z"/><path class="eb133-3" d="M22,27H21v6h1V27Z"/><path class="eb133-3" d="M8,27H7v6H8V27Z"/></svg>