<svg xmlns="http://www.w3.org/2000/svg" viewBox="0 0 29 33"><defs><style>polygon,rect,path{shape-rendering:crispedges;}.cb135-1{fill:#6b4f99;}.cb135-2{fill:#000000;}.cb135-3{fill:#6f7032;}.cb135-4{fill:#ffffff;}.cb135-5{fill:#b2622b;}.cb135-6{fill:#317f03;}.cb135-7{fill:#317f03;}.cb135-8{fill:#db5800;}.cb135-9{fill:#b099c6;}</style></defs><path class="cb135-1" d="M6,28H5V26H6V25h4V24H9v1H8V24H7V23H6V22H5V21H6V20H5V19H6v1H8v2H9v1h1v1h1V23h1V21H11V20H10V19H9V16H8V15H9V14H8V11H9V10h1V9h2V8h5V9h1v1h1v1h1v4h1v1H20v3H19v1H18v1H17v2h1v1h1v1h2v1h1v1h1v6h6V0H0V33H6V28ZM4,20H3V19H4Zm0-3H5v1H4Z"/><rect class="cb135-1" x="7" y="22" width="1" height="1"/><path class="cb135-2" d="M23,27H22v6h1V27Z"/><rect class="cb135-2" x="21" y="26" width="1" height="1"/><path class="cb135-3" d="M22,27H21v6h1V27Z"/><path class="cb135-2" d="M21,27H20v6h1V27Z"/><path class="cb135-2" d="M20,26h1V25H19v1Z"/><path class="cb135-3" d="M20,27h1V26H19V25H18v4H17v4h3V27Z"/><rect class="cb135-4" x="16" y="24" width="1" height="1"/><path class="cb135-2" d="M17,29H16v4h1V29Z"/><rect class="cb135-4" x="15" y="23" width="1" height="1"/><path class="cb135-4" d="M16,29h1V26H16V25H13v1H12V25H7v1H8v2H7v1H8v1h3V29h2v4h1V32h1v1h1V29Zm-1,2H14V30h1Zm0-2H14V28h1Zm0-2H14V26h1Z"/><rect class="cb135-2" x="14" y="26" width="1" height="1"/><rect class="cb135-2" x="14" y="28" width="1" height="1"/><rect class="cb135-2" x="14" y="30" width="1" height="1"/><rect class="cb135-2" x="14" y="32" width="1" height="1"/><rect class="cb135-4" x="13" y="23" width="1" height="1"/><path class="cb135-2" d="M15,24V23H14v1H13v1h3V24Z"/><rect class="cb135-4" x="12" y="24" width="1" height="1"/><path class="cb135-2" d="M13,29H12v4h1V29Z"/><rect class="cb135-2" x="12" y="25" width="1" height="1"/><path class="cb135-2" d="M12,24h1V22H12v1H11v1H10v1h2Z"/><path class="cb135-3" d="M12,29H11v1H9v3h3V29Z"/><path class="cb135-2" d="M9,30H8v3H9V30Z"/><path class="cb135-3" d="M8,30V29H7v4H8V30Z"/><path class="cb135-2" d="M7,33V28H6v5H7Z"/><rect class="cb135-2" x="20" y="15" width="1" height="1"/><path class="cb135-5" d="M13,21h3V20H13Z"/><rect class="cb135-5" x="19" y="15" width="1" height="1"/><path class="cb135-5" d="M14,10v1H12v2h1v3H10v2h1v1h1v1h1V19h3v1h1V19h1V18h1V16H16V14h2V13H16V12h2v1h1V11H18V10H14Zm1,7H14V16h1Z"/><path class="cb135-5" d="M12,14V13H10v1h2Z"/><rect class="cb135-5" x="9" y="15" width="1" height="1"/><path class="cb135-2" d="M16,23v1h1v1H16v1h1v3h1V25h1V24H18V23H17V22H16Z"/><rect class="cb135-2" x="8" y="15" width="1" height="1"/><rect class="cb135-2" x="14" y="16" width="1" height="1"/><path class="cb135-4" d="M11,15V14H10v2h1Z"/><path class="cb135-4" d="M12,15v1h1V14H12Z"/><path class="cb135-4" d="M16,14v2h1V14Z"/><path class="cb135-4" d="M19,14H18v2h1V14Z"/><path class="cb135-2" d="M12,14H11v2h1V14Z"/><path class="cb135-2" d="M17,14v2h1V14Z"/><rect class="cb135-6" x="18" y="13" width="1" height="1"/><rect class="cb135-6" x="16" y="12" width="2" height="1"/><path class="cb135-6" d="M13,14V13H12v1Z"/><path class="cb135-6" d="M12,12H11v1h1Z"/><path class="cb135-7" d="M13,23h3V22h1V21h1V20h1V19h1V16H19v2H18v1H17v1H16v1H13V20H12V19H11V18H10V16H9v3h1v1h1v1h1v1h1Z"/><rect class="cb135-2" x="13" y="19" width="3" height="1"/><path class="cb135-8" d="M19,14v1h1V11H19v3Z"/><rect class="cb135-8" x="18" y="10" width="1" height="1"/><path class="cb135-8" d="M10,14V13h1V12h1V11h2V10h4V9H17V8H12V9H10v1H9v1H8v3H9v1h1Z"/><rect class="cb135-9" x="3" y="19" width="1" height="1"/><rect class="cb135-9" x="4" y="17" width="1" height="1"/><rect class="cb135-9" x="5" y="19" width="1" height="1"/><path class="cb135-9" d="M8,22V20H6v1H5v1H6v1H7V22Z"/><polygon class="cb135-9" points="10 23 9 23 9 22 8 22 8 23 7 23 7 24 8 24 8 25 9 25 9 24 10 24 10 24 10 23"/><path class="cb135-5" d="M8,26H6v2H8Z"/><path class="cb135-2" d="M7,25H6v1H7Z"/><path class="cb135-2" d="M5,26v2H6V26Z"/></svg>