<svg xmlns="http://www.w3.org/2000/svg" viewBox="0 0 29 33"><defs><style>polygon,rect,path{shape-rendering:crispedges;}.ha291-1{fill:#29834f;}.ha291-2{fill:#000000;}.ha291-3{fill:#ffffff;}.ha291-4{fill:#e8b795;}.ha291-5{fill:#ff1d99;}.ha291-6{fill:#ffffff;}.ha291-7{fill:#b23b00;}.ha291-8{fill:#fad000;}.ha291-9{fill:#b23b00;}.ha291-10{fill:#e5ac2e;}.ha291-11{fill:#ff1f4a;}.ha291-12{fill:#00e070;}.ha291-13{fill:#ff1d99;}.ha291-14{fill:#10bcff;}.ha291-15{fill:#6e12ff;}.ha291-16{fill:#900;}.ha291-17{fill:#eaeaea;}</style></defs><path class="ha291-1" d="M0,33H6V27H7V26H8V25h2V23h1V21H10V20H9V16H8V15H9V8h1V9h1V7h1V8h2V7H13V6h1V5h1V6h1V7H15V8h2V7h1V9h1V8h1v7h1v1H20v4H19v1H18v2h1v2h1V24h1V23h1v1h1v9h6V0H0Z"/><path class="ha291-2" d="M7,27H6v6H7V27Z"/><rect class="ha291-2" x="7" y="26" width="1" height="1"/><path class="ha291-3" d="M8,27H7v6H8V27Z"/><path class="ha291-2" d="M9,27H8v6H9V27Z"/><path class="ha291-2" d="M10,25H8v1h2Z"/><path class="ha291-3" d="M13,31h1V29H13Z"/><path class="ha291-3" d="M20,27H19V25H18v1H17v1H16v1h3v1H17v2h1V30h1v2H16V29H15v3H12V28h1V27H12V26H11V25H10v1H8v1H9v6H20V27Zm-9,2v3H10V28h1Z"/><path class="ha291-4" d="M13,25h1V24h1v1h1V23H13v2Z"/><path class="ha291-2" d="M21,27H20v6h1V27Z"/><path class="ha291-3" d="M22,27H21v6h1V27Z"/><path class="ha291-2" d="M23,24H22v9h1V24Z"/><path class="ha291-5" d="M14,31H13V28H12v4h3V30H14Z"/><path class="ha291-5" d="M10,29v3h1V28H10Z"/><path class="ha291-5" d="M16,30v2h3V30H18v1H17V29h2V28H16v2Z"/><rect class="ha291-2" x="20" y="15" width="1" height="1"/><path class="ha291-2" d="M19,13v2h1V12H19Z"/><path class="ha291-4" d="M10,14h2V13H10Z"/><rect class="ha291-4" x="18" y="12" width="1" height="1"/><path class="ha291-4" d="M10,17h1v1h1v1h1V18h5V17h1V16h1V15H16V14h2V13H16V12H12v1h1v2H9v1h1Zm4-1h1v1H14Z"/><path class="ha291-2" d="M10,14V12H9v3h1Z"/><rect class="ha291-2" x="8" y="15" width="1" height="1"/><rect class="ha291-2" x="14" y="16" width="1" height="1"/><path class="ha291-6" d="M12,15h1V14H12Z"/><path class="ha291-6" d="M10,14v1h1V14Z"/><path class="ha291-6" d="M18,14v1h1V14Z"/><path class="ha291-6" d="M16,14v1h1V14Z"/><path class="ha291-2" d="M11,14v1h1V14Z"/><path class="ha291-2" d="M17,14v1h1V14Z"/><path class="ha291-7" d="M19,13H18v1h1Z"/><polygon class="ha291-7" points="17 12 16 12 16 13 18 13 18 12 17 12"/><path class="ha291-7" d="M13,14V13H12v1Z"/><path class="ha291-7" d="M10,13h2V12H10Z"/><path class="ha291-2" d="M14,30h1V29H14Z"/><rect class="ha291-2" x="12" y="26" width="1" height="1"/><path class="ha291-2" d="M15,28v1h1V27H15Z"/><rect class="ha291-2" x="16" y="26" width="1" height="1"/><path class="ha291-2" d="M14,29V27H13v2Z"/><rect class="ha291-2" x="17" y="25" width="1" height="1"/><rect class="ha291-2" x="11" y="25" width="1" height="1"/><rect class="ha291-2" x="14" y="24" width="1" height="1"/><rect class="ha291-2" x="13" y="25" width="1" height="1"/><rect class="ha291-2" x="15" y="25" width="1" height="1"/><path class="ha291-2" d="M17,25V23H16v2Z"/><path class="ha291-2" d="M13,24V23H12v2h1Z"/><rect class="ha291-8" x="16" y="25" width="1" height="1"/><path class="ha291-8" d="M15,26V25H14v1H13v1h1v2h1V27h1V26Z"/><rect class="ha291-8" x="12" y="25" width="1" height="1"/><path class="ha291-8" d="M11,25h1V23H11v2Z"/><path class="ha291-8" d="M17,24v1h1V23H17Z"/><path class="ha291-2" d="M19,25V23H18v2Z"/><path class="ha291-2" d="M11,24V23H10v2h1Z"/><path class="ha291-2" d="M17,23h1V22H17Z"/><path class="ha291-2" d="M12,22H11v1h1Z"/><path class="ha291-9" d="M15,18H13v1h3V18Z"/><path class="ha291-9" d="M12,23h5V22h1V21h1V20h1V16H19v1H18v1H17v1H16v1H13V19H12V18H11V17H10V16H9v4h1v1h1v1h1Z"/><rect class="ha291-2" x="13" y="19" width="3" height="1"/><path class="ha291-2" d="M16,19h1V18H16Z"/><path class="ha291-4" d="M21,27h1V24H21v1H20v2Z"/><path class="ha291-2" d="M20,27V25H19v2Z"/><rect class="ha291-2" x="20" y="24" width="1" height="1"/><rect class="ha291-2" x="21" y="23" width="1" height="1"/><rect class="ha291-1" x="17" y="9" width="1" height="1"/><rect class="ha291-10" x="12" y="10" width="1" height="1"/><rect class="ha291-10" x="16" y="10" width="1" height="1"/><rect class="ha291-1" x="11" y="9" width="1" height="1"/><rect class="ha291-11" x="14" y="10" width="1" height="1"/><rect class="ha291-11" x="13" y="9" width="1" height="1"/><path class="ha291-6" d="M12,7H11V8h1Z"/><path class="ha291-6" d="M13,9V8H12V9Z"/><path class="ha291-6" d="M17,9V8H16V9Z"/><rect class="ha291-6" x="18" y="9" width="1" height="1"/><rect class="ha291-6" x="10" y="9" width="1" height="1"/><path class="ha291-6" d="M10,8H9V9h1Z"/><path class="ha291-6" d="M18,7H17V8h1Z"/><rect class="ha291-8" x="16" y="9" width="1" height="1"/><rect class="ha291-8" x="12" y="9" width="1" height="1"/><rect class="ha291-12" x="11" y="10" width="1" height="1"/><path class="ha291-8" d="M12,8H11V9h1Z"/><path class="ha291-8" d="M18,9V8H17V9Z"/><path class="ha291-13" d="M10,10H9v1h1Z"/><rect class="ha291-14" x="17" y="10" width="1" height="1"/><path class="ha291-8" d="M18,12h1V10H18v1H16V10H15v1H14V10H13v1H11V10H10v2h8Z"/><path class="ha291-15" d="M19,11h1V10H19Z"/><path class="ha291-6" d="M20,8H19V9h1Z"/><rect class="ha291-11" x="15" y="9" width="1" height="1"/><rect class="ha291-11" x="14" y="8" width="1" height="1"/><rect class="ha291-16" x="14" y="9" width="1" height="1"/><path class="ha291-8" d="M14,9V8H13V9Z"/><path class="ha291-8" d="M16,9V8H15V9Z"/><rect class="ha291-17" x="14" y="6" width="1" height="1"/><rect class="ha291-6" x="14" y="7" width="1" height="1"/><rect class="ha291-6" x="13" y="6" width="1" height="1"/><rect class="ha291-6" x="15" y="6" width="1" height="1"/><rect class="ha291-6" x="14" y="5" width="1" height="1"/><path class="ha291-10" d="M10,11H9v1h1Z"/><path class="ha291-10" d="M19,12h1V11H19Z"/><path class="ha291-10" d="M20,10V9H19v1Z"/><path class="ha291-10" d="M10,9H9v1h1Z"/></svg>