<svg xmlns="http://www.w3.org/2000/svg" viewBox="0 0 29 33"><defs><style>polygon,rect,path{shape-rendering:crispedges;}.oa21-1{fill:#b4bd09;}.oa21-2{fill:#000000;}.oa21-3{fill:#004a77;}.oa21-4{fill:#ffffff;}.oa21-5{fill:#e8b795;}.oa21-6{fill:#38a6e8;}.oa21-7{fill:#ffffff;}.oa21-8{fill:#00686d;}.oa21-9{fill:#cbed03;}.oa21-10{fill:#304400;}.oa21-11{fill:#cbed03;}.oa21-12{fill:#c6e5e4;}</style></defs><path class="oa21-1" d="M0,33H6V27H7V26H8V25h2V24h2V21H11V20H10V19H9V18H8V12H9V10h1V9h1V8h7V9h1v1h1v5h1v1H20v3H19v1H18v1H17v3h2v1h2V23h2V22H22V21H21V20h1V19h3v1h1v1H25v1H24v1h1v1H24v7H23v1H21v1h8V0H0Z"/><path class="oa21-2" d="M23,25v6h1V24H23Z"/><path class="oa21-2" d="M7,30V27H6v6H7V30Z"/><path class="oa21-3" d="M7,31v2H8V31Z"/><path class="oa21-3" d="M8,29V27H7v2Z"/><rect class="oa21-2" x="7" y="26" width="1" height="1"/><path class="oa21-2" d="M9,31V27H8v6H9V31Z"/><path class="oa21-3" d="M10,26H9v2h1v1h1V27H10Z"/><path class="oa21-3" d="M10,31V30H9v2h1v1h1V31Z"/><path class="oa21-2" d="M10,26V25H8v1h2Z"/><path class="oa21-2" d="M12,26h1V25H12V24H10v1h1v8h1V26Z"/><path class="oa21-4" d="M17,26H16v1H13V26H12v7h5V26Z"/><path class="oa21-2" d="M13,23h3v1h1V21H16v1H13V21H12v3h1Z"/><path class="oa21-2" d="M13,26v1h3V26H13Z"/><path class="oa21-5" d="M13,25v1h3V25h1V24H16V23H13v1H12v1Z"/><path class="oa21-2" d="M18,31V25h1V24H17v1H16v1h1v7h1V31Z"/><path class="oa21-3" d="M19,31V30H18v2h1v1h1V31Z"/><path class="oa21-3" d="M18,26v2h1v1h1V27H19V25H18Z"/><path class="oa21-2" d="M22,32h1V31H22V23H21v2H19v1h2v1H20v6h1V32Z"/><path class="oa21-3" d="M23,28V27H22v2h1Z"/><path class="oa21-3" d="M23,24H22v1h1Z"/><path class="oa21-6" d="M19,28H18v2h1v1h1V29H19Z"/><path class="oa21-6" d="M22,29v2h1V29Z"/><path class="oa21-6" d="M20,27h1V26H19v1Z"/><path class="oa21-6" d="M23,26V25H22v2h1Z"/><path class="oa21-6" d="M18,32v1h1V32Z"/><path class="oa21-6" d="M10,27h1V25H10v2Z"/><path class="oa21-6" d="M10,28H9v2h1v1h1V29H10Z"/><path class="oa21-6" d="M9,32v1h1V32Z"/><path class="oa21-6" d="M9,27V26H8v1Z"/><path class="oa21-6" d="M7,30v1H8V29H7Z"/><rect class="oa21-2" x="20" y="15" width="1" height="1"/><path class="oa21-5" d="M13,22h3V21h1V20h1V19h1V16h1V15H16V13h1V12h2V11H18V10H16v1H15v4H14v1h1v1H14V16H13v1H11V16H10v3h1v1h1v1h1Zm0-3h3v1H13Z"/><polygon class="oa21-5" points="18 14 19 14 19 13 17 13 17 14 18 14"/><rect class="oa21-5" x="9" y="15" width="1" height="1"/><path class="oa21-2" d="M19,17v2h1V16H19Z"/><rect class="oa21-2" x="18" y="19" width="1" height="1"/><rect class="oa21-2" x="17" y="20" width="1" height="1"/><rect class="oa21-2" x="11" y="20" width="1" height="1"/><rect class="oa21-2" x="10" y="19" width="1" height="1"/><path class="oa21-2" d="M10,16H9v3h1V16Z"/><rect class="oa21-2" x="14" y="16" width="1" height="1"/><path class="oa21-7" d="M18,14v1h1V14Z"/><path class="oa21-7" d="M16,14v1h1V14Z"/><path class="oa21-2" d="M17,14v1h1V14Z"/><path class="oa21-8" d="M17,13H16v1h1Z"/><rect class="oa21-8" x="17" y="12" width="2" height="1"/><rect class="oa21-2" x="13" y="19" width="3" height="1"/><path class="oa21-9" d="M12,15h1V13H11v2Z"/><path class="oa21-10" d="M13,13v2h1V13Z"/><polygon class="oa21-10" points="12 15 11 15 11 16 13 16 13 15 12 15"/><path class="oa21-10" d="M11,14H10v1h1Z"/><rect class="oa21-2" x="10" y="15" width="1" height="1"/><rect class="oa21-2" x="11" y="16" width="2" height="1"/><rect class="oa21-2" x="13" y="15" width="1" height="1"/><polygon class="oa21-2" points="14 12 13 12 13 13 14 13 14 15 15 15 15 11 14 11 14 12"/><path class="oa21-11" d="M9,15h1V14h1V13h2V12h1V11h2V10h2v1h1v4h1V10H19V9H18V8H11V9H10v1H9v2H8v6H9V15Z"/><path class="oa21-7" d="M25,22V21h1V20H25V19H23v1h1v1H23v1h2Z"/><path class="oa21-12" d="M24,21V20H23V19H22v1H21v1h1v1h1V21Z"/><path class="oa21-12" d="M24,22H23v1h1Z"/><path class="oa21-5" d="M23,24h1V23H22v1Z"/><rect class="oa21-2" x="24" y="23" width="1" height="1"/></svg>