<svg xmlns="http://www.w3.org/2000/svg" viewBox="0 0 29 33"><defs><style>polygon,rect,path{shape-rendering:crispedges;}.fa87-1{fill:#db5a8e;}.fa87-2{fill:#000000;}.fa87-3{fill:#508e5d;}.fa87-4{fill:#efcaaf;}.fa87-5{fill:#508e5d;}.fa87-6{fill:#66334f;}.fa87-7{fill:#00e2b7;}.fa87-8{fill:#ffffff;}.fa87-9{fill:#ff6aa5;}.fa87-10{fill:#ff1f4a;}.fa87-11{fill:#ff791f;}.fa87-12{fill:#fad000;}.fa87-13{fill:#b6dc00;}.fa87-14{fill:#00af68;}.fa87-15{fill:#38a6e8;}.fa87-16{fill:#0068ff;}.fa87-17{fill:#6e12ff;}.fa87-18{fill:#ff1d99;}.fa87-19{fill:#cc2f76;}</style></defs><path class="fa87-1" d="M0,33H6V27H7V26H8V25h2V22H9V16H8V15H9V10h1V9h1V8h7V9h1v1h1v5h1v1H20v3h2v1h1v3H22v1H21v1h1v1h1v7h6V0H0Z"/><rect class="fa87-1" x="19" y="24" width="1" height="1"/><path class="fa87-2" d="M9,31V27H8v2H7V27H6v6H7V30H8v3H9V31Z"/><rect class="fa87-2" x="7" y="26" width="1" height="1"/><path class="fa87-2" d="M10,25H8v1h2Z"/><path class="fa87-2" d="M13,23h3v1h1V21H16v1H13V21H12v3h1Z"/><path class="fa87-2" d="M19,25v3h1V25Z"/><path class="fa87-2" d="M21,28H20v5h1V28Z"/><path class="fa87-2" d="M23,26H22v7h1V26Z"/><rect class="fa87-3" x="18" y="29" width="1" height="1"/><path class="fa87-3" d="M19,32V31H18v1H17V29h1V28h1V27H18V25H17v1H16v1H13V26H11V25H10v1H8v1H9v2h1V28h1v1h1v3H11V31H10v1H9v1H20V32Zm-3-2v1H15v1H13V28h2v1h1Z"/><path class="fa87-3" d="M15,29H14v2h1V29Z"/><rect class="fa87-3" x="10" y="29" width="1" height="1"/><path class="fa87-3" d="M19,29h1V28H19Z"/><path class="fa87-3" d="M8,29V27H7v2Z"/><path class="fa87-4" d="M22,26H20v2h1v5h1V26Z"/><path class="fa87-4" d="M16,24V23H13v1H12v1h1v1h3V25h1V24Z"/><path class="fa87-2" d="M13,26v1h3V26H13Z"/><path class="fa87-4" d="M8,30H7v3H8V30Z"/><rect class="fa87-2" x="16" y="25" width="1" height="1"/><path class="fa87-2" d="M12,25v1h1V25Z"/><path class="fa87-5" d="M19,30H18V29H17v3h1V31h1v1h1V29H19Z"/><rect class="fa87-5" x="18" y="28" width="1" height="1"/><path class="fa87-5" d="M15,30v1h1V29H15Z"/><path class="fa87-5" d="M14,30V29h1V28H13v4h2V31H14Z"/><path class="fa87-5" d="M9,32h1V31h1v1h1V29H11v1H10V29H9v3Z"/><rect class="fa87-5" x="10" y="28" width="1" height="1"/><rect class="fa87-2" x="20" y="15" width="1" height="1"/><path class="fa87-4" d="M17,13V12h1V11H17V10H14v1H12v1h1v1H11v1h5V13Z"/><path class="fa87-4" d="M18,13H17v1h2V13Z"/><path class="fa87-4" d="M13,22h3V21h1V20h1V19h1V16H18v1H16V16H15v1H14V16H13v1H11V16H10v3h1v1h1v1h1Zm-1-3V18h1v1h3v1H13V19Z"/><rect class="fa87-4" x="14" y="15" width="1" height="1"/><rect class="fa87-4" x="19" y="15" width="1" height="1"/><path class="fa87-2" d="M19,17v2h1V16H19Z"/><rect class="fa87-2" x="18" y="19" width="1" height="1"/><rect class="fa87-2" x="17" y="20" width="1" height="1"/><rect class="fa87-2" x="11" y="20" width="1" height="1"/><rect class="fa87-2" x="10" y="19" width="1" height="1"/><path class="fa87-2" d="M10,18V16H9v3h1Z"/><rect class="fa87-2" x="8" y="15" width="1" height="1"/><rect class="fa87-2" x="14" y="16" width="1" height="1"/><path class="fa87-6" d="M13,12H11v1h2Z"/><rect class="fa87-6" x="16" y="13" width="1" height="1"/><rect class="fa87-6" x="17" y="12" width="1" height="1"/><rect class="fa87-2" x="13" y="19" width="3" height="1"/><rect class="fa87-2" x="12" y="18" width="1" height="1"/><path class="fa87-7" d="M19,24V23H18V21H17v4h1v2h1V24Z"/><rect class="fa87-7" x="9" y="15" width="1" height="1"/><path class="fa87-7" d="M11,13V12h1V11h2V10h3v1h1v2h1v1h1V10H19V9H18V8H11V9H10v1H9v4h2Z"/><path class="fa87-7" d="M11,26h1V21H11V20H10V19H9v3h1v3h1Z"/><path class="fa87-2" d="M10,16h1v1h2V16h1V15h1v1h1v1h2V16h1V15h1V14H9v1h1Z"/><path class="fa87-8" d="M20,25v1h1V24H20Z"/><rect class="fa87-9" x="20" y="21" width="1" height="1"/><path class="fa87-10" d="M20,23H19v1h2V23Z"/><rect class="fa87-11" x="21" y="23" width="1" height="1"/><path class="fa87-12" d="M22,22h1V20H22v2Z"/><path class="fa87-13" d="M21,20h1V19H20v1Z"/><rect class="fa87-14" x="19" y="19" width="1" height="1"/><rect class="fa87-14" x="18" y="20" width="1" height="1"/><path class="fa87-15" d="M19,21H18v2h1V21Z"/><path class="fa87-16" d="M19,22v1h2V22H19Z"/><path class="fa87-17" d="M22,21H21v2h1V21Z"/><path class="fa87-18" d="M20,20v1h2V20H20Z"/><path class="fa87-19" d="M19,22h1V20H19v2Z"/><path class="fa87-11" d="M22,23h1V22H22Z"/><path class="fa87-2" d="M21.5,26H22V25H21v1Z"/></svg>