<svg xmlns="http://www.w3.org/2000/svg" viewBox="0 0 29 33"><defs><style>polygon,rect,path{shape-rendering:crispedges;}.ma116-1{fill:#d14646;}.ma116-2{fill:#000000;}.ma116-3{fill:#316a6d;}.ma116-4{fill:#cc2f76;}.ma116-5{fill:#b2622b;}.ma116-6{fill:#68aaad;}.ma116-7{fill:#ffffff;}.ma116-8{fill:#663228;}.ma116-9{fill:#663228;}.ma116-10{fill:#4fdb7d;}.ma116-11{fill:#455054;}.ma116-12{fill:#00af68;}.ma116-13{fill:#ffce00;}.ma116-14{fill:#002b4f;}</style></defs><path class="ma116-1" d="M12,21H9V20H8v2H9v2H8v1h2V24h2V21Z"/><path class="ma116-1" d="M8,19H9V16H8v3Z"/><path class="ma116-1" d="M0,33H8V32H6V31H5V22H6V21H7V20H5v1H2V17H5V16H8V15H9V11h1V10h1V9h7v1h1v1h1v4h1v1H20v3h1v1H20v1H17v3h2v1h2v1h1v1h1v6h6V0H0Z"/><path class="ma116-2" d="M6,29V22H5v9H6V29Z"/><path class="ma116-2" d="M23,27H22v6h1V27Z"/><path class="ma116-3" d="M21,31h1V30H21Z"/><path class="ma116-3" d="M21,28h1V27H21Z"/><rect class="ma116-2" x="21" y="26" width="1" height="1"/><path class="ma116-2" d="M21,30V27H20v6h1V30Z"/><path class="ma116-3" d="M18,28h2V27H18Z"/><path class="ma116-3" d="M18,31h2V30H18Z"/><path class="ma116-2" d="M20,26h1V25H19v1Z"/><path class="ma116-2" d="M18,30V25h1V24H17v1H16v1h1v7h1V30Z"/><path class="ma116-4" d="M17,26H16v1H13V26H12v7h5V26Z"/><path class="ma116-2" d="M13,26v1h3V26H13Z"/><path class="ma116-5" d="M16,23H13v1H12v1h1v1h3V25h1V24H16Z"/><path class="ma116-2" d="M12,26h1V25H12V24H10v1h1v8h1V26Z"/><path class="ma116-3" d="M9,28h2V27H9Z"/><path class="ma116-3" d="M9,31h2V30H9Z"/><path class="ma116-2" d="M9,30V27H8V26h2V25H8V24H7v7H6v1H8v1H9V30Z"/><path class="ma116-3" d="M6,25H7V24H6Z"/><path class="ma116-3" d="M7,30H6v1H7Z"/><path class="ma116-3" d="M6,28H7V27H6Z"/><path class="ma116-6" d="M18,31v2h2V31Z"/><path class="ma116-6" d="M9,31v2h2V31Z"/><path class="ma116-6" d="M18,29v1h2V28H18Z"/><path class="ma116-6" d="M9,29v1h2V28H9Z"/><path class="ma116-6" d="M18,26v1h3V26H19V25H18Z"/><path class="ma116-6" d="M9,26H8v1h3V25H10v1Z"/><path class="ma116-6" d="M6,29v1H7V28H6Z"/><path class="ma116-6" d="M6,26v1H7V25H6Z"/><path class="ma116-6" d="M21,31v2h1V31Z"/><path class="ma116-6" d="M21,29v1h1V28H21Z"/><rect class="ma116-2" x="20" y="15" width="1" height="1"/><path class="ma116-2" d="M19,13v2h1V12H19Z"/><path class="ma116-5" d="M10,16v2h1v1h1v2h1v1h3V21h1V19H16v1H13V19h3V18h1v1h1V18h1V16h1V15H16V14h2V13H16V12h1V11H16V10H13v1H12v2h1v2H9v1Zm4,0h1v1H14Z"/><path class="ma116-5" d="M18,12v1h1V11H18Z"/><rect class="ma116-5" x="17" y="10" width="1" height="1"/><rect class="ma116-5" x="11" y="10" width="1" height="1"/><rect class="ma116-5" x="10" y="11" width="1" height="1"/><path class="ma116-5" d="M10,14h2V13H10Z"/><path class="ma116-2" d="M17,20v1h1V20Z"/><path class="ma116-2" d="M16,22H13V21H12v3h1V23h3v1h1V21H16Z"/><path class="ma116-2" d="M11,21h1V20H11Z"/><path class="ma116-2" d="M10,14V12H9v3h1Z"/><rect class="ma116-2" x="8" y="15" width="1" height="1"/><rect class="ma116-2" x="14" y="16" width="1" height="1"/><path class="ma116-7" d="M12,15h1V14H12Z"/><path class="ma116-7" d="M10,14v1h1V14Z"/><path class="ma116-7" d="M18,14v1h1V14Z"/><path class="ma116-7" d="M16,14v1h1V14Z"/><path class="ma116-2" d="M11,14v1h1V14Z"/><path class="ma116-2" d="M17,14v1h1V14Z"/><path class="ma116-8" d="M19,13H18v1h1Z"/><polygon class="ma116-8" points="17 12 16 12 16 13 18 13 18 12 17 12"/><path class="ma116-8" d="M13,14V13H12v1Z"/><path class="ma116-8" d="M10,12v1h2V12H10Z"/><path class="ma116-9" d="M19,17v1H18v1H17v1h1v1h2V20h1V19H20V16H19Z"/><path class="ma116-9" d="M9,21h2V20h1V19H11V18H10V16H9v3H8v1H9Z"/><rect class="ma116-2" x="13" y="19" width="3" height="1"/><rect class="ma116-2" x="16" y="18" width="1" height="1"/><path class="ma116-10" d="M20,12V11H19v1Z"/><rect class="ma116-10" x="18" y="10" width="1" height="1"/><path class="ma116-10" d="M12,11h1V10h3v1h1V10h1V9H11v1h1Z"/><rect class="ma116-10" x="17" y="11" width="1" height="1"/><path class="ma116-10" d="M11,12h1V11H11Z"/><rect class="ma116-10" x="10" y="10" width="1" height="1"/><path class="ma116-10" d="M10,11H9v1h1Z"/><path class="ma116-5" d="M7,24H8V22H6v2Z"/><path class="ma116-11" d="M8,22V20H7v2Z"/><path class="ma116-12" d="M3,20V18H4V17H2v4H4V20Z"/><path class="ma116-12" d="M8,19V16H6v1H7v2H6v1H8Z"/><path class="ma116-2" d="M7,21H6v1H7Z"/><path class="ma116-2" d="M9,22H8v2H9Z"/><path class="ma116-13" d="M3,19v1H4V18H3Z"/><path class="ma116-13" d="M5,18V17H4v1Z"/><path class="ma116-13" d="M6,16H5v1H6Z"/><path class="ma116-14" d="M6,19V17H5v1H4v2H5V19Z"/><path class="ma116-13" d="M4,21H5V20H4Z"/><path class="ma116-13" d="M5,19v1H6V19Z"/><path class="ma116-13" d="M7,19V17H6v2Z"/></svg>