<svg xmlns="http://www.w3.org/2000/svg" viewBox="0 0 29 33"><defs><style>polygon,rect,path{shape-rendering:crispedges;}.va112-1{fill:#6b4f99;}.va112-2{fill:#002b4f;}.va112-3{fill:#000000;}.va112-4{fill:#a56e49;}.va112-5{fill:#cc2f76;}.va112-6{fill:#ffffff;}.va112-7{fill:#473a35;}.va112-8{fill:#9b8100;}.va112-9{fill:#ff1d99;}</style></defs><path class="va112-1" d="M0,33H6V27H7V26H8V25h2V22h1V20H10V19H9V16H8V15H9V11h1V10h1V9h7v1h1v1h1v4h1v1H20v3H19v1H18v2h1v3h2v1h1v1h1v6h6V0H0Z"/><path class="va112-2" d="M14,31h6V30H14Z"/><path class="va112-2" d="M18,25V24H16v1Z"/><path class="va112-2" d="M14,27v1h6V27H14Z"/><rect class="va112-2" x="21" y="27" width="1" height="1"/><rect class="va112-2" x="21" y="30" width="1" height="1"/><rect class="va112-2" x="7" y="27" width="1" height="1"/><rect class="va112-2" x="7" y="30" width="1" height="1"/><path class="va112-2" d="M9,28h4V27H9Z"/><path class="va112-2" d="M9,31h4V30H9Z"/><polygon class="va112-2" points="12 24 11 24 11 25 13 25 13 24 12 24"/><path class="va112-3" d="M23,27H22v6h1V27Z"/><rect class="va112-3" x="21" y="26" width="1" height="1"/><path class="va112-3" d="M21,30V27H20v4H14V27H13v4H9V27H8v6H9V32H20v1h1V30Z"/><path class="va112-3" d="M20,26h1V25H19v1Z"/><path class="va112-3" d="M18,25h1V22H18v3Z"/><rect class="va112-3" x="15" y="24" width="1" height="1"/><path class="va112-3" d="M15,26V25H14v2h1Z"/><rect class="va112-3" x="13" y="24" width="1" height="1"/><path class="va112-4" d="M15,24h1V23H13v1h1v1h1Z"/><path class="va112-3" d="M11,24V22H10v3h1Z"/><path class="va112-3" d="M10,25H8v1h2Z"/><rect class="va112-3" x="7" y="26" width="1" height="1"/><path class="va112-3" d="M7,30V27H6v6H7V30Z"/><rect class="va112-3" x="20" y="15" width="1" height="1"/><path class="va112-3" d="M19,13v2h1V12H19Z"/><path class="va112-4" d="M12,19V18h5v1h2V16h1V15H16V14h2V13H16V12h1V11H16V10H13v1H12v2h1v2H9v1h1v3h2Zm2-3h1v1H14Z"/><rect class="va112-4" x="12" y="19" width="1" height="1"/><rect class="va112-4" x="11" y="10" width="1" height="1"/><path class="va112-4" d="M18,12v1h1V11H18Z"/><rect class="va112-4" x="13" y="20" width="1" height="1"/><path class="va112-4" d="M10,14h2V13H10Z"/><rect class="va112-4" x="17" y="10" width="1" height="1"/><rect class="va112-4" x="16" y="19" width="1" height="1"/><rect class="va112-4" x="15" y="20" width="1" height="1"/><rect class="va112-4" x="10" y="11" width="1" height="1"/><path class="va112-3" d="M19,17v2h1V16H19Z"/><path class="va112-3" d="M18,20h1V19H18Z"/><path class="va112-3" d="M12,23v1h1V23h3v1h1V22h1V20H17v1H16v1H13V21H12V20H11v2h1Z"/><path class="va112-3" d="M10,19v1h1V19Z"/><path class="va112-3" d="M10,14V12H9v3h1Z"/><path class="va112-3" d="M10,16H9v3h1V16Z"/><rect class="va112-3" x="8" y="15" width="1" height="1"/><rect class="va112-3" x="14" y="16" width="1" height="1"/><path class="va112-5" d="M19,32H9v1H20V32Z"/><path class="va112-5" d="M14,29v1h6V28H14Z"/><path class="va112-5" d="M9,29v1h4V28H9Z"/><path class="va112-5" d="M9,27h5V25H10v1H8v1Z"/><path class="va112-5" d="M16,25H15v2h6V26H19V25H16Z"/><path class="va112-5" d="M7,29v1H8V28H7Z"/><path class="va112-5" d="M7,31v2H8V31Z"/><path class="va112-5" d="M21,31v2h1V31Z"/><path class="va112-5" d="M21,29v1h1V28H21Z"/><path class="va112-5" d="M12,24V22H11v2Z"/><path class="va112-5" d="M17,23v1h1V22H17Z"/><path class="va112-6" d="M12,15h1V14H12Z"/><path class="va112-6" d="M10,14v1h1V14Z"/><path class="va112-6" d="M18,14v1h1V14Z"/><path class="va112-6" d="M16,14v1h1V14Z"/><path class="va112-3" d="M11,14v1h1V14Z"/><path class="va112-3" d="M17,14v1h1V14Z"/><path class="va112-7" d="M19,13H18v1h1Z"/><polygon class="va112-7" points="17 12 16 12 16 13 18 13 18 12 17 12"/><path class="va112-7" d="M13,14V13H12v1Z"/><path class="va112-7" d="M10,12v1h2V12H10Z"/><path class="va112-8" d="M17,19v1h1V19Z"/><rect class="va112-8" x="16" y="20" width="1" height="1"/><path class="va112-8" d="M15,20H14v1H13v1h3V21H15Z"/><path class="va112-8" d="M14,19h2V18H12v1h2Z"/><rect class="va112-8" x="12" y="20" width="1" height="1"/><path class="va112-8" d="M12,19H11v1h1Z"/><path class="va112-3" d="M13,19v1h3V19H13Z"/><path class="va112-3" d="M17,19V18H16v1Z"/><path class="va112-9" d="M20,12V11H19v1Z"/><rect class="va112-9" x="18" y="10" width="1" height="1"/><path class="va112-9" d="M12,11h1V10h3v1h1V10h1V9H11v1h1Z"/><rect class="va112-9" x="17" y="11" width="1" height="1"/><path class="va112-9" d="M11,12h1V11H11Z"/><rect class="va112-9" x="10" y="10" width="1" height="1"/><path class="va112-9" d="M10,11H9v1h1Z"/></svg>