<svg xmlns="http://www.w3.org/2000/svg" viewBox="0 0 29 33"><defs><style>polygon,rect,path{shape-rendering:crispedges;}.oa61-1{fill:#6b4f99;}.oa61-2{fill:#000000;}.oa61-3{fill:#ffa9d0;}.oa61-4{fill:#00686d;}.oa61-5{fill:#ce8452;}.oa61-6{fill:#cc2f76;}.oa61-7{fill:#ffffff;}.oa61-8{fill:#7f5018;}.oa61-9{fill:#ff5e17;}.oa61-10{fill:#455054;}.oa61-11{fill:#0079bc;}.oa61-12{fill:#ffce00;}</style></defs><rect class="oa61-1" x="9" y="16" width="1"/><polygon class="oa61-1" points="15 17 15 17 15 16 14 16 14 16 15 16 15 17"/><rect class="oa61-1" x="19" y="16" width="1"/><rect class="oa61-1" x="18" y="19" width="1"/><rect class="oa61-1" x="10" y="19" width="1"/><path class="oa61-1" d="M0,33H8V32H6V31H5V22H6V21H7V20H5v1H2V17H5V16H8V15H9V10h1V9h1V8h7V9h1v1h1v2h1v6H20V16h0v3H19v1H18v1H17v3h2v1h2v1h1v1h1v6h6V0H0Z"/><rect class="oa61-1" x="16" y="21" width="1"/><path class="oa61-1" d="M8,18v4H9v2H8v1h2V24h2V21H11V20H10V19H9V16H8v2Z"/><rect class="oa61-1" x="17" y="20" width="1"/><polygon class="oa61-1" points="13 22 13 22 13 21 12 21 12 21 13 21 13 22"/><rect class="oa61-1" x="11" y="20" width="1"/><path class="oa61-2" d="M6,29V22H5v9H6V29Z"/><path class="oa61-2" d="M23,27H22v6h1V27Z"/><path class="oa61-3" d="M21,31v1h1V30H21Z"/><path class="oa61-3" d="M21,28h1V27H21Z"/><rect class="oa61-2" x="21" y="26" width="1" height="1"/><path class="oa61-2" d="M21,31V27H20v6h1V31Z"/><path class="oa61-3" d="M18,26v2h1v1h1V27H19V25H18Z"/><path class="oa61-3" d="M19,31V30H18v2h1v1h1V31Z"/><path class="oa61-2" d="M20,26h1V25H19v1Z"/><path class="oa61-2" d="M18,31V25h1V24H17v1H16v1h1v7h1V31Z"/><path class="oa61-4" d="M17,26H16v1H13V26H12v7h5V26Z"/><path class="oa61-2" d="M13,26v1h3V26H13Z"/><path class="oa61-5" d="M16,23H13v1H12v1h1v1h3V25h1V24H16Z"/><path class="oa61-2" d="M12,26h1V25H12V24H10v1h1v8h1V26Z"/><path class="oa61-3" d="M10,31V30H9v2h1v1h1V31Z"/><path class="oa61-3" d="M10,26H9v2h1v1h1V27H10Z"/><path class="oa61-2" d="M9,31V27H8V26h2V25H8V24H7v7H6v1H8v1H9V31Z"/><path class="oa61-3" d="M7,30H6v1H7Z"/><path class="oa61-3" d="M6,26v2H7V25H6Z"/><path class="oa61-6" d="M19,28H18v2h1v1h1V29H19Z"/><path class="oa61-6" d="M21,29v1h1V28H21Z"/><path class="oa61-6" d="M21,32v1h1V32Z"/><path class="oa61-6" d="M19,26v1h2V26H19Z"/><path class="oa61-6" d="M18,32v1h1V32Z"/><path class="oa61-6" d="M10,27h1V25H10v2Z"/><path class="oa61-6" d="M10,28H9v2h1v1h1V29H10Z"/><path class="oa61-6" d="M6,25H7V24H6Z"/><path class="oa61-6" d="M6,29v1H7V28H6Z"/><path class="oa61-6" d="M9,32v1h1V32Z"/><path class="oa61-6" d="M8,26v1H9V26Z"/><rect class="oa61-2" x="20" y="16"/><path class="oa61-5" d="M16,12H15V11H13V10H11v1H10v3h1V13H10V12h2v1h4V12Z"/><polygon class="oa61-5" points="9 16 10 16 10 15 9 15 9 15 9 15 9 16"/><rect class="oa61-5" x="11" y="10"/><path class="oa61-5" d="M10,16v3h1v1h1v1h1v1h3V21h1V20h1V19h1V16H16V15H15V14H14v1H13v1H10Zm4,0h1v1H14Zm-1,3h3V18h1v1H16v1H13Z"/><polygon class="oa61-5" points="20 16 20 16 20 15 19 15 19 16 20 16"/><path class="oa61-2" d="M19,16v3h1V16Z"/><polygon class="oa61-2" points="18 19 18 20 18 20 19 20 19 19 18 19 18 19"/><polygon class="oa61-2" points="17 20 17 21 17 21 18 21 18 20 17 20 17 20"/><path class="oa61-2" d="M16,21v1H13V21H12v3h1V23h3v1h1V21Z"/><path class="oa61-2" d="M12,10h0Z"/><polygon class="oa61-2" points="12 20 12 20 11 20 11 21 12 21 12 21 12 20"/><polygon class="oa61-2" points="11 11 11 10 11 10 11 11 10 11 10 11 11 11"/><polygon class="oa61-2" points="11 19 11 19 10 19 10 20 11 20 11 20 11 19"/><path class="oa61-2" d="M10,18V16H9v3h1Z"/><polygon class="oa61-2" points="9 16 9 15 9 15 8 15 8 16 9 16 9 16"/><polygon class="oa61-2" points="15 17 15 16 14 16 14 16 14 17 15 17 15 17"/><path class="oa61-7" d="M11,15H10v1h1Z"/><path class="oa61-7" d="M19,15H18v1h1Z"/><rect class="oa61-8" x="16" y="12" height="1"/><polygon class="oa61-8" points="10 12 10 13 11 13 11 13 12 13 12 12 10 12"/><rect class="oa61-2" x="13" y="19" width="3" height="1"/><rect class="oa61-2" x="16" y="18" width="1" height="1"/><path class="oa61-9" d="M10,13V11h1V10h2v1h2v1h1v1h2v1h2v2h0v2h1V12H20V10H19V9H18V8H11V9H10v1H9v4h1Z"/><path class="oa61-2" d="M11,15v1h2V15h1V14h1v1h1v1h2V15h2V14H18V13H11v1H9v1h2Z"/><path class="oa61-5" d="M7,24H8V22H6v2Z"/><path class="oa61-10" d="M8,22V20H7v2Z"/><path class="oa61-2" d="M7,21H6v1H7Z"/><path class="oa61-2" d="M9,22H8v2H9Z"/><path class="oa61-11" d="M5,17H2v1H5Z"/><path class="oa61-11" d="M6,16H5v1H6Z"/><path class="oa61-11" d="M8,17V16H7v1Z"/><path class="oa61-11" d="M5,18v1H2v2H5V20H6V18Z"/><path class="oa61-11" d="M8,19V18H7v2H8Z"/><path class="oa61-12" d="M8,18V17H7V16H6v1H5v1H6v2H7V18Z"/><path class="oa61-12" d="M5,19V18H2v1H5Z"/></svg>