<svg xmlns="http://www.w3.org/2000/svg" viewBox="0 0 29 33"><defs><style>polygon,rect,path{shape-rendering:crispedges;}.gb173-1{fill:#31a09d;}.gb173-2{fill:#000000;}.gb173-3{fill:#6f7032;}.gb173-4{fill:#99004d;}.gb173-5{fill:#90a2a3;}.gb173-6{fill:#b2622b;}.gb173-7{fill:#ffffff;}.gb173-8{fill:#00997c;}.gb173-9{fill:#00e2b7;}.gb173-10{fill:#00755f;}</style></defs><path class="gb173-1" d="M6,32V27H7V26H8V25H9V24h1V23h1V21H10V20H9V17H8V15H9V11h1V10h1V9h7v1h1v1h1v4h1v2h3v1h1V17h1v1H25v5H24v8H23v1H21v1h8V0H0V33H6Z"/><path class="gb173-1" d="M20,23V20H19v1H18v2h1v1h1v1h1V23Z"/><path class="gb173-2" d="M7,27H6v6H7V27Z"/><path class="gb173-3" d="M8,27H7v6H8V27Z"/><path class="gb173-2" d="M9,29h1V28h2V27H9V25H8v1H7v1H8v6H9V29Z"/><rect class="gb173-2" x="9" y="24" width="1" height="1"/><path class="gb173-3" d="M12,32V31H11V30H10V29H9v4h4V32Z"/><rect class="gb173-2" x="10" y="23" width="1" height="1"/><path class="gb173-3" d="M10,26v1h2v1H10v1h1v1h1v1h1V26H12V25H11V24H10v1H9v1Z"/><rect class="gb173-2" x="10" y="29" width="1" height="1"/><rect class="gb173-3" x="11" y="23" width="1" height="1"/><rect class="gb173-2" x="11" y="30" width="1" height="1"/><path class="gb173-2" d="M17,32V31H16V26h1V25h1V24H17V23h1V21h1V20h1V18H19V17h2V15H20V11H19V10H18V9H11v1H10v1H9v4H8v2H9v3h1v1h1v2h1v1H11v1h1v1h1v5H12v1h1v1h1V27h1v6h1V32ZM16,15V14h1v1h2v1H16Zm-5,1H10V14h1v1h2v1Zm2,5V20h3v1Z"/><path class="gb173-4" d="M15,27H14v6h1V27Z"/><path class="gb173-3" d="M20,29H19v1H18v1H17v1H16v1h4V29Z"/><rect class="gb173-3" x="17" y="23" width="1" height="1"/><rect class="gb173-2" x="17" y="30" width="1" height="1"/><rect class="gb173-2" x="18" y="23" width="1" height="1"/><rect class="gb173-2" x="18" y="29" width="1" height="1"/><rect class="gb173-2" x="19" y="24" width="1" height="1"/><path class="gb173-3" d="M19,24H18v1H17v1H16v5h1V30h1V29h1V28H17V27h2V26h1V25H19Z"/><path class="gb173-2" d="M22,32h1V31H22V25H20v2H17v1h2v1h1v4h1V32Z"/><path class="gb173-3" d="M23,26V25H22v6h1V26Z"/><path class="gb173-2" d="M23,26v5h1V25H23Z"/><path class="gb173-5" d="M19,27h1V26H19Z"/><path class="gb173-5" d="M9,26v1h1V26Z"/><path class="gb173-6" d="M13,15H10v1h3Z"/><path class="gb173-6" d="M19,15H16v1h3Z"/><rect class="gb173-6" x="13" y="20" width="3" height="1"/><path class="gb173-7" d="M11,14H10v1h1Z"/><path class="gb173-7" d="M17,14H16v1h1Z"/><path class="gb173-1" d="M20,18h1V17H20Z"/><path class="gb173-8" d="M20,21v2h1V21Z"/><path class="gb173-2" d="M22,20V18H21v2Z"/><path class="gb173-2" d="M23,19v1h1V18H23Z"/><rect class="gb173-2" x="22" y="21" width="1" height="1"/><path class="gb173-9" d="M23,22H21v1h3V22Z"/><path class="gb173-9" d="M20,21h2V20H21V18H20v3Z"/><path class="gb173-9" d="M22,18v2h1V18h1V17H21v1Z"/><path class="gb173-9" d="M23,20v1h2V18H24v2Z"/><path class="gb173-10" d="M21,23v2h3V23H21Z"/><path class="gb173-8" d="M24,21.223V23h1V21H24Z"/><path class="gb173-9" d="M19,17v1h1V17Z"/><rect class="gb173-9" x="25" y="17" width="1" height="1"/><rect class="gb173-8" x="22" y="20" width="1" height="1"/><path class="gb173-7" d="M21,21v1h1V21Z"/><path class="gb173-7" d="M24,22V21H23v1Z"/></svg>