<svg xmlns="http://www.w3.org/2000/svg" viewBox="0 0 29 33"><defs><style>polygon,rect,path{shape-rendering:crispedges;}.ia87-1{fill:#31a09d;}.ia87-2{fill:#000000;}.ia87-3{fill:#333333;}.ia87-4{fill:#e8b795;}.ia87-5{fill:#ffffff;}.ia87-6{fill:#8e703c;}.ia87-7{fill:#cbed03;}.ia87-8{fill:#304400;}.ia87-9{fill:#ff6aa5;}.ia87-10{fill:#ff6aa5;}.ia87-11{fill:#ad5a21;}</style></defs><path class="ia87-1" d="M0,33H6V27H7V26H8V25h2V22H9V16H8V15H9V10h1V9h1V8h7V9h1v1h1v5h1v1H20v6h1v1h1v2h1v8h6V0H0Z"/><path class="ia87-2" d="M7,27H6v6H7V27Z"/><rect class="ia87-2" x="7" y="26" width="1" height="1"/><path class="ia87-3" d="M8,27H7v6H8V27Z"/><path class="ia87-2" d="M9,27H8v6H9V27Z"/><path class="ia87-2" d="M10,25H8v1h2Z"/><path class="ia87-3" d="M20,27H18V26H16v1H13V26H11V25H10v1H8v1H9v6H20V27Z"/><path class="ia87-2" d="M13,23h3v1h1V21H16v1H13V21H12v3h1Z"/><path class="ia87-2" d="M12,25v1h1V25Z"/><path class="ia87-2" d="M13,26v1h3V26H13Z"/><path class="ia87-4" d="M17,25V24H16V23H13v1H12v1h1v1h3V25Z"/><path class="ia87-2" d="M16,25v1h1V25Z"/><path class="ia87-2" d="M21,27H20v6h1V27Z"/><path class="ia87-3" d="M22,27H21v6h1V27Z"/><path class="ia87-2" d="M23,25H22v8h1V25Z"/><rect class="ia87-2" x="20" y="15" width="1" height="1"/><path class="ia87-4" d="M18,15H16V14h3V13H16V12h2V11H17V10H15v5H14v1h1v1H14V16H13v1H11V16H10v3h1v1h1v1h1v1h3V21h1V20h1V19h1V16h1V15H18Zm-2,5H13V19H12V18h1v1h3Z"/><path class="ia87-2" d="M19,17v2h1V16H19Z"/><rect class="ia87-2" x="18" y="19" width="1" height="1"/><rect class="ia87-2" x="17" y="20" width="1" height="1"/><rect class="ia87-2" x="11" y="20" width="1" height="1"/><rect class="ia87-2" x="10" y="19" width="1" height="1"/><path class="ia87-2" d="M10,18V16H9v3h1Z"/><rect class="ia87-2" x="8" y="15" width="1" height="1"/><rect class="ia87-2" x="14" y="16" width="1" height="1"/><path class="ia87-5" d="M18,15h1V14H18Z"/><path class="ia87-5" d="M16,14v1h1V14Z"/><path class="ia87-2" d="M17,14v1h1V14Z"/><path class="ia87-6" d="M16,13h2V12H16Z"/><rect class="ia87-2" x="13" y="19" width="3" height="1"/><rect class="ia87-2" x="12" y="18" width="1" height="1"/><path class="ia87-7" d="M12,15h1V13H11v2Z"/><path class="ia87-8" d="M13,13v2h1V13Z"/><polygon class="ia87-8" points="12 15 11 15 11 16 13 16 13 15 12 15"/><path class="ia87-8" d="M11,14H10v1h1Z"/><path class="ia87-8" d="M13,12H11v1h2Z"/><rect class="ia87-2" x="10" y="15" width="1" height="1"/><rect class="ia87-2" x="11" y="16" width="2" height="1"/><rect class="ia87-2" x="13" y="15" width="1" height="1"/><path class="ia87-2" d="M13,13h1v2h1V10H14v1H12v1h1Z"/><path class="ia87-9" d="M19,20H18v1H17v2h1V22h2V19H19Z"/><path class="ia87-9" d="M10,15V14h1V12h1V11h2V10h3v1h1v2h1v2h1V10H19V9H18V8H11V9H10v1H9v6h1Z"/><path class="ia87-9" d="M11,26h1V21H11V20H10V19H9v3h1v3h1Z"/><path class="ia87-4" d="M20,25v2h2V25H20Z"/><path class="ia87-10" d="M22,24V23H21v1Z"/><rect class="ia87-10" x="20" y="22" width="1" height="1"/><path class="ia87-10" d="M19,22H18v1h1Z"/><path class="ia87-10" d="M20,26V25H18v1h2Z"/><rect class="ia87-10" x="17" y="24" width="1" height="1"/><path class="ia87-11" d="M19,23H18v2h1V24h1v1h1V23H19Z"/><path class="ia87-11" d="M19,26H18v1h2V26Z"/><path class="ia87-5" d="M21,25h1V24H21Z"/><path class="ia87-5" d="M19,23h1V22H19Z"/><path class="ia87-5" d="M18,24V23H17v1Z"/><path class="ia87-5" d="M17,25v1h1V25Z"/><path class="ia87-2" d="M20,24H19v1h1Z"/></svg>