<svg xmlns="http://www.w3.org/2000/svg" viewBox="0 0 29 33"><defs><style>polygon,rect,path{shape-rendering:crispedges;}.ib144-1{fill:#397d98;}.ib144-2{fill:#000000;}.ib144-3{fill:#c18d59;}.ib144-4{fill:#004a77;}.ib144-5{fill:#ffffff;}.ib144-6{fill:#fad000;}.ib144-7{fill:#004a77;}.ib144-8{fill:#5a2de2;}</style></defs><path class="ib144-1" d="M0,33H6V27H7V26H8V25h2V23h1V22h1V21H11V20H10V19H9V16H8V15H9V13H8V9H9V8h1V7h1V6h7V7h1V8h1V9h1v4H20v2h1v1H20v3H19v1H18v1H17v1h1v1h1v2h2v1h1v1h1v6h6V0H0Z"/><path class="ib144-2" d="M23,27H22v6h1V27Z"/><path class="ib144-3" d="M22,27H21v6h1V27Z"/><rect class="ib144-2" x="21" y="26" width="1" height="1"/><path class="ib144-2" d="M21,27H20v6h1V27Z"/><path class="ib144-3" d="M16,25V23H13v2h3Z"/><path class="ib144-3" d="M20,27h1V26H19V25H18v1H17v1H16v1H13V27H12V26H11V25H10v1H8v1H9v6h5V29h1v4h5V27Zm-8,2H11V28h1Zm6,0H17V28h1Z"/><path class="ib144-2" d="M20,26h1V25H19v1Z"/><rect class="ib144-2" x="17" y="28" width="1" height="1"/><path class="ib144-2" d="M15,29H14v4h1V29Z"/><rect class="ib144-2" x="11" y="28" width="1" height="1"/><path class="ib144-2" d="M10,25H8v1h2Z"/><path class="ib144-2" d="M9,27H8v6H9V27Z"/><path class="ib144-3" d="M8,27H7v6H8V27Z"/><rect class="ib144-2" x="7" y="26" width="1" height="1"/><path class="ib144-2" d="M7,27H6v6H7V27Z"/><rect class="ib144-2" x="20" y="15" width="1" height="1"/><path class="ib144-2" d="M19,15h1V14H19Z"/><path class="ib144-3" d="M10,17v1h1v1h1V18h2v1h1V18h2v1h1V18h1V16h1V15H19V12H18V11H11v1H10v3H9v1h1Zm1-3h1V13h1V12h3v1h1v1h1v1H16v1H15v1H14V16H13V15H11Z"/><rect class="ib144-3" x="13" y="20" width="1" height="1"/><rect class="ib144-3" x="15" y="20" width="1" height="1"/><path class="ib144-2" d="M19,17h1V16H19Z"/><path class="ib144-2" d="M16,23v2h1V23h1V22H16Z"/><path class="ib144-2" d="M10,14H9v1h1Z"/><path class="ib144-2" d="M10,16H9v1h1Z"/><rect class="ib144-2" x="8" y="15" width="1" height="1"/><path class="ib144-4" d="M18,15V14H17v1Z"/><rect class="ib144-4" x="16" y="13" width="1" height="1"/><rect class="ib144-2" x="14" y="14" width="1" height="1"/><path class="ib144-5" d="M13,15v1h3V15h1V14H16V13H13v1H12v1Zm1-1h1v1H14Z"/><path class="ib144-4" d="M16,13V12H13v1h3Z"/><rect class="ib144-4" x="12" y="13" width="1" height="1"/><rect class="ib144-4" x="11" y="14" width="1" height="1"/><path class="ib144-2" d="M14,17h1V16H14Z"/><path class="ib144-2" d="M18,25h1V23H18v2Z"/><rect class="ib144-2" x="17" y="25" width="1" height="1"/><path class="ib144-6" d="M17,24v1h1V24Z"/><path class="ib144-5" d="M17,24h1V23H17Z"/><rect class="ib144-2" x="16" y="26" width="1" height="1"/><rect class="ib144-5" x="16" y="25" width="1" height="1"/><rect class="ib144-6" x="15" y="26" width="1" height="1"/><path class="ib144-2" d="M14,27H13v1h3V27H14Z"/><path class="ib144-5" d="M14,27h1V26H14Z"/><rect class="ib144-6" x="13" y="26" width="1" height="1"/><path class="ib144-2" d="M14,26h2V25H13v1Z"/><rect class="ib144-2" x="12" y="26" width="1" height="1"/><rect class="ib144-5" x="12" y="25" width="1" height="1"/><path class="ib144-2" d="M12,24v1h1V22H11v1h1Z"/><rect class="ib144-2" x="11" y="25" width="1" height="1"/><rect class="ib144-6" x="11" y="24" width="1" height="1"/><rect class="ib144-5" x="11" y="23" width="1" height="1"/><path class="ib144-2" d="M11,24V23H10v2h1Z"/><path class="ib144-7" d="M14,18H13v1h1Z"/><path class="ib144-7" d="M13,23h3V22h1V21h1V20h1V19h1V17H19v1H18v1H17V18H15v1h1v2H15V20H14v1H13V19H11V18H10V17H9v2h1v1h1v1h1v1h1Z"/><path class="ib144-2" d="M13,19v1h3V19H13Z"/><path class="ib144-2" d="M12,18v1h1V18Z"/><path class="ib144-8" d="M10,13V12h1V11h7v1h1v2h1V13h1V9H20V8H19V7H18V6H11V7H10V8H9V9H8v4H9v1h1Z"/></svg>