<svg xmlns="http://www.w3.org/2000/svg" viewBox="0 0 29 33"><defs><style>polygon,rect,path{shape-rendering:crispedges;}.na244-1{fill:#b4bd09;}.na244-2{fill:#000000;}.na244-3{fill:#560000;}.na244-4{fill:#ffffff;}.na244-5{fill:#e8b795;}.na244-6{fill:#cc3232;}.na244-7{fill:#663228;}.na244-8{fill:#663228;}.na244-9{fill:#c8a715;}.na244-10{fill:#5a2de2;}.na244-11{fill:#db5800;}</style></defs><path class="na244-1" d="M18,22H17v2h1V22Z"/><path class="na244-1" d="M0,33H6V24H7V23H8v1H9v1h1V20H9V16H8V15H9V13H8V9H9V8h1V7h1V6h7V7h1V8h1V9h1v4H20v2h1v1H20v4H19v5h1V24h1V23h1v1h1v9h6V0H0Z"/><path class="na244-1" d="M12,22H11v2h1V22Z"/><path class="na244-2" d="M7,30V24H6v9H7V30Z"/><path class="na244-3" d="M7,29v1H8V28H7Z"/><path class="na244-3" d="M7,31v2H8V31Z"/><path class="na244-2" d="M9,31V27H8v6H9V31Z"/><path class="na244-3" d="M11,29H10V28h1V25H10v2H9v5h1v1h1V29Z"/><path class="na244-2" d="M12,26h1V25H12V24H10v1h1v8h1V26Z"/><path class="na244-4" d="M17,26H16v1H13V26H12v7h5V26Z"/><path class="na244-2" d="M13,26v1h3V26H13Z"/><path class="na244-5" d="M16,23H13v3h3V23Z"/><path class="na244-2" d="M18,29V25h1V24H17v1H16v1h1v7h1V29Z"/><path class="na244-3" d="M20,32V27H19V25H18v3h1v1H18v4h1V32Z"/><path class="na244-2" d="M21,31V27H20v6h1V31Z"/><path class="na244-3" d="M21,29v2h1V28H21Z"/><path class="na244-3" d="M21,32v1h1V32Z"/><path class="na244-2" d="M23,24H22v9h1V24Z"/><path class="na244-6" d="M10,29h1V28H10Z"/><path class="na244-6" d="M19,29V28H18v1Z"/><path class="na244-6" d="M21,28h1V27H21Z"/><path class="na244-6" d="M7,28H8V27H7Z"/><path class="na244-6" d="M19,32v1h1V32Z"/><path class="na244-6" d="M9,32v1h1V32Z"/><path class="na244-6" d="M7,31H8V30H7Z"/><path class="na244-6" d="M21,32h1V31H21Z"/><rect class="na244-2" x="20" y="15" width="1" height="1"/><rect class="na244-5" x="19" y="15" width="1" height="1"/><polygon class="na244-5" points="13 21 14 21 14 22 15 22 15 21 16 21 16 20 13 20 13 21"/><path class="na244-5" d="M18,16H16V15H13v1H10v2h1v1h1V18h2v1h1V18h2v1h1V18h1V16Zm-3,1H14V16h1Z"/><rect class="na244-5" x="10" y="12" width="1" height="1"/><rect class="na244-5" x="9" y="15" width="1" height="1"/><path class="na244-5" d="M13,13h1v1h1V13h2V12h1V11H11v1h2Z"/><path class="na244-2" d="M19,17h1V16H19Z"/><path class="na244-2" d="M10,16H9v1h1Z"/><rect class="na244-2" x="8" y="15" width="1" height="1"/><rect class="na244-2" x="14" y="16" width="1" height="1"/><polygon class="na244-7" points="12 13 13 13 13 12 11 12 11 13 12 13"/><path class="na244-7" d="M17,13h2V12H17Z"/><path class="na244-8" d="M12,22v1h5V22h2V20h1V17H19v1H18v1H17V18H15v1h1v2H15v1H14V21H13V19H11V18H10V17H9v3h1v2h2Z"/><path class="na244-8" d="M14,18H13v1h1Z"/><path class="na244-9" d="M18,23h1V22H18Z"/><path class="na244-8" d="M18,24h1V23H18Z"/><path class="na244-9" d="M16,23v1h1V23Z"/><path class="na244-8" d="M16,25h1V24H16Z"/><path class="na244-9" d="M13,23H12v1h1Z"/><path class="na244-8" d="M12,24v1h1V24Z"/><path class="na244-9" d="M11,22H10v1h1Z"/><path class="na244-8" d="M11,23H10v1h1Z"/><path class="na244-2" d="M13,19v1h3V19H13Z"/><path class="na244-2" d="M12,18v1h1V18Z"/><path class="na244-5" d="M21,27h1V24H21v1H20v2Z"/><path class="na244-2" d="M20,27V25H19v2Z"/><rect class="na244-2" x="20" y="24" width="1" height="1"/><rect class="na244-2" x="21" y="23" width="1" height="1"/><path class="na244-5" d="M7,27H9V25H8V24H7v3Z"/><path class="na244-2" d="M10,27V25H9v2Z"/><rect class="na244-2" x="8" y="24" width="1" height="1"/><rect class="na244-2" x="7" y="23" width="1" height="1"/><path class="na244-10" d="M10,13V12h1V11h7v1h1v2h1V13h1V9H20V8H19V7H18V6H11V7H10V8H9V9H8v4H9v1h1Z"/><path class="na244-11" d="M13,16V15h1V14H10v2h3Z"/><path class="na244-11" d="M15,14v1h1v1h3V14H15Z"/><path class="na244-2" d="M15,13v1h4V13H15Z"/><path class="na244-2" d="M14,14V13H10v1h4Z"/><path class="na244-2" d="M19,15h1V14H19Z"/><path class="na244-2" d="M10,14H9v1h1Z"/><path class="na244-2" d="M14,14v1h1V14Z"/></svg>