<svg xmlns="http://www.w3.org/2000/svg" viewBox="0 0 29 33"><defs><style>polygon,rect,path{shape-rendering:crispedges;}.hb86-1{fill:#e55b35;}.hb86-2{fill:#000000;}.hb86-3{fill:#6d3e35;}.hb86-4{fill:#ffffff;}.hb86-5{fill:#00774c;}.hb86-6{fill:#00774c;}.hb86-7{fill:#d8be00;}.hb86-8{fill:#6e12ff;}.hb86-9{fill:#ff1d99;}.hb86-10{fill:#e281bf;}.hb86-11{fill:#b5a38a;}</style></defs><polygon class="hb86-1" points="19 20 20 20 20 20 20 19 19 19 19 20"/><rect class="hb86-1" x="20" y="21" width="1"/><path class="hb86-1" d="M0,33H29V0H0Zm6-1V27H7V26H8V25h2V24h2V21H11V20H10V19H9V16H8V15H9V11h1V10h1V9h7v1h1v1h1v4h1v1H20v3h2V18h1V17h3v1h1v1h1v3H27v1H26v1H23V23H22V22H21v2h1v1h1v8H6Z"/><path class="hb86-1" d="M20,22V21H19V20H18v1H17v3h2v1h1Z"/><path class="hb86-1" d="M24,18h0Z"/><rect class="hb86-1" x="26" y="19" width="1"/><path class="hb86-2" d="M22,33h1V25H22v8Z"/><path class="hb86-2" d="M7,32V27H6v6H7Z"/><path class="hb86-3" d="M7,32v1H8V27H7v5Z"/><rect class="hb86-2" x="7" y="26" width="1" height="1"/><path class="hb86-2" d="M9,27H8v6H9V27Z"/><path class="hb86-3" d="M9,27v6h5V29h1v4h5V26H19V25H17V24H16V23H13v1H12v1H10v1H8v1Zm8,1h1v1H17Zm-6,0h1v1H11Z"/><path class="hb86-2" d="M10,25H8v1h2Z"/><rect class="hb86-2" x="11" y="28" width="1" height="1"/><path class="hb86-2" d="M12,24H10v1h2Z"/><path class="hb86-2" d="M13,23h3v1h1V21H16v1H13V21H12v3h1Z"/><path class="hb86-2" d="M15,29H14v4h1V29Z"/><rect class="hb86-2" x="17" y="28" width="1" height="1"/><path class="hb86-2" d="M18,24H17v1h2V24Z"/><path class="hb86-2" d="M21,26H20v7h1V26Z"/><rect class="hb86-2" x="19" y="25" width="1" height="1"/><rect class="hb86-2" x="20" y="15" width="1" height="1"/><path class="hb86-2" d="M19,14v1h1V13H19Z"/><polygon class="hb86-3" points="18 14 19 14 19 13 17 13 17 14 18 14"/><rect class="hb86-3" x="16" y="19" width="1" height="1"/><rect class="hb86-3" x="15" y="20" width="1" height="1"/><path class="hb86-3" d="M15,10H13v1h3V10Z"/><rect class="hb86-3" x="13" y="20" width="1" height="1"/><rect class="hb86-3" x="12" y="19" width="1" height="1"/><rect class="hb86-3" x="17" y="10" width="1" height="1"/><rect class="hb86-3" x="11" y="10" width="1" height="1"/><path class="hb86-3" d="M12,19V18h5v1h2V16h1V15H16V13H11v1h2v1H9v1h1v3h2Zm2-3h1v1H14Z"/><path class="hb86-2" d="M19,17v2h1V16H19Z"/><path class="hb86-2" d="M19,20V19H18v1Z"/><rect class="hb86-2" x="17" y="20" width="1" height="1"/><rect class="hb86-2" x="11" y="20" width="1" height="1"/><path class="hb86-2" d="M10,19v1h1V19Z"/><path class="hb86-2" d="M10,14V13H9v2h1Z"/><path class="hb86-2" d="M10,16H9v3h1V16Z"/><rect class="hb86-2" x="8" y="15" width="1" height="1"/><rect class="hb86-2" x="14" y="16" width="1" height="1"/><path class="hb86-4" d="M13,15V14H12v1Z"/><path class="hb86-4" d="M10,15h1V14H10Z"/><path class="hb86-4" d="M18,14v1h1V14Z"/><path class="hb86-4" d="M16,14v1h1V14Z"/><path class="hb86-2" d="M12,15V14H11v1Z"/><path class="hb86-2" d="M17,14v1h1V14Z"/><rect class="hb86-5" x="10" y="13" width="1" height="1"/><path class="hb86-5" d="M17,13H16v1h1Z"/><path class="hb86-6" d="M18,20V19H17v1Z"/><rect class="hb86-6" x="16" y="20" width="1" height="1"/><path class="hb86-6" d="M15,20H14v1H13v1h3V21H15Z"/><path class="hb86-6" d="M14,19h3V18H13v1Z"/><rect class="hb86-6" x="12" y="20" width="1" height="1"/><path class="hb86-6" d="M12,19H11v1h1Z"/><path class="hb86-2" d="M15,20h1V19H13v1h2Z"/><path class="hb86-2" d="M13,18H12v1h1Z"/><rect class="hb86-7" x="18" y="10" width="1" height="1"/><path class="hb86-7" d="M12,11h1V10h3v1h1V10h1V9H11v1h1Z"/><rect class="hb86-7" x="10" y="10" width="1" height="1"/><path class="hb86-4" d="M20,12V11H9v1H20Z"/><path class="hb86-8" d="M11,13h9V12H9v1h2Z"/><polygon class="hb86-9" points="20 21 20 21 20 20 19 20 19 21 20 21"/><polygon class="hb86-9" points="21 20 21 19 20 19 20 20 21 20"/><rect class="hb86-10" x="21" y="20" width="1" height="1"/><path class="hb86-9" d="M20,21v4h1V21Z"/><path class="hb86-3" d="M20,25v1h1v7h1V25H20Z"/><path class="hb86-2" d="M22,25V24H21v1Z"/><polygon class="hb86-11" points="26 19 27 19 27 18 26 18 26 18 26 19"/><path class="hb86-11" d="M22,20v1H21v1h1v1h1v1h3V23h1V22h1V19H27v1H26V19H24V18h2V17H23v1H22v1H21v1Z"/><polygon class="hb86-11" points="21 21 21 20 20 20 20 20 20 21 21 21"/><polygon class="hb86-4" points="26 20 26 20 27 20 27 19 26 19 26 20"/><path class="hb86-4" d="M26,18H24v1h2Z"/></svg>