<svg xmlns="http://www.w3.org/2000/svg" viewBox="0 0 29 33"><defs><style>polygon,rect,path{shape-rendering:crispedges;}.ya209-1{fill:#d14646;}.ya209-2{fill:#000000;}.ya209-3{fill:#9fffc6;}.ya209-4{fill:#ce8452;}.ya209-5{fill:#009b97;}.ya209-6{fill:#ffffff;}.ya209-7{fill:#4922aa;}.ya209-8{fill:#45ba00;}</style></defs><path class="ya209-1" d="M6,32V27H7V26H8V25h2V24h1V23h1V21H11V20H9V18H8V12H9V11h1V10h1V9h7v1h1v1h1v2h1v5H20v2H18v1H17v2h1v1h1v1h2v1h1v1h1v6h6V0H0V33H6Z"/><path class="ya209-2" d="M23,27H22v6h1V27Z"/><path class="ya209-3" d="M21,31h1V30H21Z"/><path class="ya209-3" d="M21,28h1V27H21Z"/><rect class="ya209-2" x="21" y="26" width="1" height="1"/><path class="ya209-2" d="M21,30V27H20v6h1V30Z"/><rect class="ya209-3" x="9" y="30" width="5" height="1"/><path class="ya209-3" d="M15,31h5V30H15Z"/><path class="ya209-3" d="M14,27H9v1H20V27H14Z"/><path class="ya209-2" d="M20,26h1V25H19v1Z"/><rect class="ya209-3" x="16" y="24" width="1" height="1"/><rect class="ya209-2" x="15" y="24" width="1" height="1"/><rect class="ya209-2" x="14" y="32" width="1" height="1"/><rect class="ya209-2" x="14" y="30" width="1" height="1"/><path class="ya209-2" d="M15,29V28H14v1Z"/><path class="ya209-2" d="M15,26V25H14v2h1Z"/><rect class="ya209-2" x="13" y="24" width="1" height="1"/><path class="ya209-4" d="M15,24h1V23H13v1h1v1h1Z"/><rect class="ya209-3" x="12" y="24" width="1" height="1"/><path class="ya209-2" d="M11,26h2V25H12V24h1V23h3v1h1v1H16v1h2V25h1V24H18V23H17V21H16v1H13V21H12v2H11v1H10v1h1Z"/><path class="ya209-2" d="M10,25H8v1h2Z"/><path class="ya209-2" d="M9,30V27H8v6H9V30Z"/><path class="ya209-3" d="M7,31H8V30H7Z"/><path class="ya209-3" d="M8,28V27H7v1Z"/><rect class="ya209-2" x="7" y="26" width="1" height="1"/><path class="ya209-2" d="M7,30V27H6v6H7V30Z"/><path class="ya209-5" d="M15,31H9v2h5V32h1v1h5V31Z"/><path class="ya209-5" d="M15,29H14V28H9v2H20V28H15Z"/><path class="ya209-5" d="M18,26H16V25H15v2h6V26H19V25H18Z"/><path class="ya209-5" d="M9,27h5V25H13v1H11V25H10v1H8v1Z"/><path class="ya209-5" d="M7,29v1H8V28H7Z"/><path class="ya209-5" d="M7,31v2H8V31Z"/><path class="ya209-5" d="M21,31v2h1V31Z"/><path class="ya209-5" d="M21,29v1h1V28H21Z"/><rect class="ya209-4" x="11" y="13" width="1" height="1"/><rect class="ya209-4" x="11" y="11" width="1" height="1"/><path class="ya209-4" d="M18,14V13H16v1h2Z"/><path class="ya209-4" d="M13,22h3V21h1V20h1V19h1V18H18V16H17v1H16V15H15V11H14v1H13v2h1v2h1v1H14V16H11v2H10v1h1v1h1v1h1Zm-1-3V18h1v1h3v1H13V19Z"/><rect class="ya209-4" x="19" y="15" width="1" height="1"/><rect class="ya209-4" x="9" y="15" width="1" height="1"/><path class="ya209-2" d="M19,16v2h1V16Z"/><path class="ya209-2" d="M18,19v1h1V19Z"/><rect class="ya209-2" x="17" y="20" width="1" height="1"/><rect class="ya209-2" x="11" y="20" width="1" height="1"/><path class="ya209-2" d="M10,19v1h1V19Z"/><rect class="ya209-2" x="9" y="14" width="1" height="1"/><path class="ya209-2" d="M10,17V16H9v2h1Z"/><rect class="ya209-2" x="14" y="16" width="1" height="1"/><path class="ya209-6" d="M12,15v1h1V14H12Z"/><path class="ya209-6" d="M17,14H16v1h1Z"/><path class="ya209-2" d="M12,14H11v2h1V14Z"/><path class="ya209-2" d="M17,14v2h1V14Z"/><path class="ya209-7" d="M18,12H16v1h2Z"/><rect class="ya209-7" x="11" y="12" width="1" height="1"/><rect class="ya209-2" x="13" y="19" width="3" height="1"/><rect class="ya209-2" x="12" y="18" width="1" height="1"/><path class="ya209-8" d="M9,15V14h1v4h1V11h1v3h1V12h1V11h1v4h1V12h2v6h1V15h1v3h1V13H20V11H19V10H18V9H11v1H10v1H9v1H8v6H9V15Z"/><path class="ya209-8" d="M10,18H9v2h1V18Z"/><path class="ya209-8" d="M14,16V14H13v2Z"/><path class="ya209-8" d="M16,15v2h1V15Z"/><path class="ya209-8" d="M19,19v1h1V18H19Z"/></svg>