<svg xmlns="http://www.w3.org/2000/svg" viewBox="0 0 29 33"><defs><style>polygon,rect,path{shape-rendering:crispedges;}.eb134-1{fill:#7a982c;}.eb134-2{fill:#000000;}.eb134-3{fill:#333333;}.eb134-4{fill:#ffffff;}.eb134-5{fill:#e8b795;}.eb134-6{fill:#90a2a3;}.eb134-7{fill:#ffffff;}.eb134-8{fill:#8e703c;}.eb134-9{fill:#8e703c;}.eb134-10{fill:#c8a715;}.eb134-11{fill:#db5800;}.eb134-12{fill:#e5ac2e;}.eb134-13{fill:#ff1f4a;}.eb134-14{fill:#fad000;}.eb134-15{fill:#00e070;}.eb134-16{fill:#ff1d99;}.eb134-17{fill:#10bcff;}.eb134-18{fill:#6e12ff;}.eb134-19{fill:#900;}.eb134-20{fill:#eaeaea;}.eb134-21{fill:#9b005c;}</style></defs><polygon class="eb134-1" points="8 24.5 8 25 9 25 9 24 8 24 8 24.5"/><path class="eb134-1" d="M0,33H6V25H7V24H6V23H7V22H8v1H9v1h1V20H9V16H8V15H9V8h1V9h1V7h1V8h2V7H13V6h1V5h1V6h1V7H15V8h2V7h1V9h1V8h1v7h1v1H20v4H19v4h1v1h1v1h1v1h1v6h6V0H0Z"/><path class="eb134-2" d="M23,27H22v6h1V27Z"/><path class="eb134-3" d="M22,27H21v6h1V27Z"/><path class="eb134-2" d="M21,27h1V26H21V25H20v2H17v1h2v1h1v4h1V27Z"/><rect class="eb134-2" x="19" y="24" width="1" height="1"/><path class="eb134-3" d="M20,29H19v1H18v1H17v1H16v1h4V29Z"/><path class="eb134-3" d="M18,25H17v1H16v5h1V30h1V29h1V28H17V27h2V26h1V25H19V24H18Z"/><rect class="eb134-2" x="17" y="22" width="1" height="1"/><rect class="eb134-3" x="17" y="23" width="1" height="1"/><rect class="eb134-2" x="17" y="24" width="1" height="1"/><rect class="eb134-2" x="18" y="29" width="1" height="1"/><rect class="eb134-2" x="16" y="25" width="1" height="1"/><path class="eb134-4" d="M15,27H14v6h1V27Z"/><path class="eb134-5" d="M16,24V23H13v3h3V24Z"/><path class="eb134-2" d="M12,25v1h1V25Z"/><path class="eb134-3" d="M12,32V31H11V30H10V29H9v4h4V32Z"/><rect class="eb134-2" x="11" y="22" width="1" height="1"/><rect class="eb134-3" x="11" y="23" width="1" height="1"/><rect class="eb134-2" x="11" y="24" width="1" height="1"/><rect class="eb134-2" x="11" y="30" width="1" height="1"/><rect class="eb134-2" x="9" y="24" width="1" height="1"/><path class="eb134-3" d="M9,25v1h1v1h2v1H10v1h1v1h1v1h1V26H12V25H11V24H10v1Z"/><path class="eb134-2" d="M9,29h1V28h2V27H9V25H8v8H9V29Z"/><path class="eb134-3" d="M8,27H7v6H8V27Z"/><path class="eb134-2" d="M7,27V25H6v8H7V27Z"/><rect class="eb134-2" x="10" y="29" width="1" height="1"/><rect class="eb134-2" x="17" y="30" width="1" height="1"/><path class="eb134-2" d="M17,32V31H16V26H13v5H12v1h1v1h1V27h1v6h1V32Z"/><path class="eb134-5" d="M8,27V25H7v2Z"/><path class="eb134-6" d="M9,26v1h1V26Z"/><path class="eb134-6" d="M19,27h1V26H19Z"/><rect class="eb134-2" x="20" y="15" width="1" height="1"/><path class="eb134-2" d="M19,15h1V14H19Z"/><path class="eb134-5" d="M18,16H16V14h2V13H16V12H12v1h1v3H10v2h1v1h1V18h2v1h1V18h2v1h1V18h1V16Zm-3,1H14V16h1Z"/><polygon class="eb134-5" points="13 21 14 21 14 22 15 22 15 21 16 21 16 20 13 20 13 21"/><path class="eb134-5" d="M12,14V13H10v1h2Z"/><rect class="eb134-5" x="9" y="15" width="1" height="1"/><rect class="eb134-5" x="18" y="12" width="1" height="1"/><rect class="eb134-5" x="19" y="15" width="1" height="1"/><path class="eb134-2" d="M19,17h1V16H19Z"/><path class="eb134-2" d="M10,14H9v1h1Z"/><path class="eb134-2" d="M10,16H9v1h1Z"/><rect class="eb134-2" x="8" y="15" width="1" height="1"/><rect class="eb134-2" x="14" y="16" width="1" height="1"/><path class="eb134-7" d="M11,15V14H10v2h1Z"/><path class="eb134-7" d="M12,15v1h1V14H12Z"/><path class="eb134-7" d="M16,14v2h1V14Z"/><polygon class="eb134-7" points="18 15 18 16 19 16 19 15 19 14 18 14 18 15"/><path class="eb134-2" d="M12,14H11v2h1V14Z"/><path class="eb134-2" d="M18,14H17v2h1V14Z"/><rect class="eb134-8" x="18" y="13" width="1" height="1"/><polygon class="eb134-8" points="17 12 16 12 16 13 18 13 18 12 17 12"/><path class="eb134-8" d="M13,14V13H12v1Z"/><path class="eb134-8" d="M12,12H10v1h2Z"/><path class="eb134-9" d="M12,22v1h5V22h2V20h1V17H19v1H18v1H16v2H15v1H14V21H13V19h1V18H12v1H11V18H10V17H9v3h1v2h2Z"/><path class="eb134-9" d="M15,18v1h1V18Z"/><path class="eb134-10" d="M18,23h1V22H18Z"/><path class="eb134-9" d="M18,24h1V23H18Z"/><path class="eb134-10" d="M17,24V23H16v1Z"/><path class="eb134-9" d="M16,24v1h1V24Z"/><path class="eb134-10" d="M13,24V23H12v1Z"/><path class="eb134-9" d="M13,24H12v1h1Z"/><path class="eb134-10" d="M11,22H10v1h1Z"/><path class="eb134-9" d="M11,23H10v1h1Z"/><path class="eb134-2" d="M14,19H13v1h3V19H14Z"/><path class="eb134-2" d="M16,18v1h1V18Z"/><path class="eb134-11" d="M19,13v1h1V12H19Z"/><path class="eb134-11" d="M10,13V12H9v2h1Z"/><rect class="eb134-1" x="17" y="9" width="1" height="1"/><rect class="eb134-12" x="12" y="10" width="1" height="1"/><rect class="eb134-12" x="16" y="10" width="1" height="1"/><rect class="eb134-1" x="11" y="9" width="1" height="1"/><rect class="eb134-13" x="14" y="10" width="1" height="1"/><rect class="eb134-13" x="13" y="9" width="1" height="1"/><path class="eb134-7" d="M12,7H11V8h1Z"/><path class="eb134-7" d="M13,9V8H12V9Z"/><path class="eb134-7" d="M17,9V8H16V9Z"/><rect class="eb134-7" x="18" y="9" width="1" height="1"/><rect class="eb134-7" x="10" y="9" width="1" height="1"/><path class="eb134-7" d="M10,8H9V9h1Z"/><path class="eb134-7" d="M18,7H17V8h1Z"/><rect class="eb134-14" x="16" y="9" width="1" height="1"/><rect class="eb134-14" x="12" y="9" width="1" height="1"/><rect class="eb134-15" x="11" y="10" width="1" height="1"/><path class="eb134-14" d="M12,8H11V9h1Z"/><path class="eb134-14" d="M18,9V8H17V9Z"/><path class="eb134-16" d="M10,10H9v1h1Z"/><rect class="eb134-17" x="17" y="10" width="1" height="1"/><path class="eb134-14" d="M16,12h3V10H18v1H16V10H15v1H14V10H13v1H11V10H10v2h6Z"/><path class="eb134-18" d="M19,11h1V10H19Z"/><path class="eb134-7" d="M20,8H19V9h1Z"/><rect class="eb134-13" x="15" y="9" width="1" height="1"/><rect class="eb134-13" x="14" y="8" width="1" height="1"/><rect class="eb134-19" x="14" y="9" width="1" height="1"/><path class="eb134-14" d="M14,9V8H13V9Z"/><path class="eb134-14" d="M16,9V8H15V9Z"/><rect class="eb134-20" x="14" y="6" width="1" height="1"/><rect class="eb134-7" x="14" y="7" width="1" height="1"/><rect class="eb134-7" x="13" y="6" width="1" height="1"/><rect class="eb134-7" x="15" y="6" width="1" height="1"/><rect class="eb134-7" x="14" y="5" width="1" height="1"/><path class="eb134-12" d="M10,11H9v1h1Z"/><path class="eb134-12" d="M19,12h1V11H19Z"/><path class="eb134-12" d="M20,10V9H19v1Z"/><path class="eb134-12" d="M10,9H9v1h1Z"/><rect class="eb134-16" x="7" y="22" width="1" height="1"/><rect class="eb134-16" x="6" y="23" width="1" height="1"/><rect class="eb134-16" x="8" y="23" width="1" height="1"/><path class="eb134-16" d="M8,24.5V24H7v1H8Z"/><rect class="eb134-21" x="7" y="23" width="1" height="1"/></svg>