<svg xmlns="http://www.w3.org/2000/svg" viewBox="0 0 29 33"><defs><style>polygon,rect,path{shape-rendering:crispedges;}.aa248-1{fill:#6b4f99;}.aa248-2{fill:#000000;}.aa248-3{fill:#e8b795;}.aa248-4{fill:#e1ff85;}.aa248-5{fill:#e1ff85;}.aa248-6{fill:#5e362f;}.aa248-7{fill:#ffffff;}.aa248-8{fill:#5e362f;}.aa248-9{fill:#ff1f4a;}.aa248-10{fill:#ff1f4a;}</style></defs><path class="aa248-1" d="M0,33H6V27H7V26H8V25h2V24h2V21H9V20H8V19H9V16H8V15H9V11h1V10h1V9h2V7h1V6h2V5h2V6H17V7h1V9h1v2h1v4h1v1H20v3h1v1H20v1H17v3h2v1h1V24h1V23h1v1h1v9h6V0H0Z"/><path class="aa248-2" d="M7,31V27H6v6H7Z"/><rect class="aa248-2" x="7" y="26" width="1" height="1"/><path class="aa248-3" d="M8,31V27H7v6H8Z"/><rect class="aa248-3" x="8" y="26" width="1" height="1"/><path class="aa248-2" d="M9,31V27H8v6H9Z"/><path class="aa248-2" d="M10,26V25H8v1Z"/><rect class="aa248-4" x="10" y="30" width="1" height="1"/><rect class="aa248-4" x="18" y="30" width="1" height="1"/><rect class="aa248-4" x="10" y="32" width="1" height="1"/><path class="aa248-4" d="M14,31v1h1V30H14Z"/><path class="aa248-4" d="M17,31V30h1V29h1v1h1V27H19V25H18v1H17v1H16v1H13V27H12V26H11V25H10v1H9v4h1V29h1v1h1v3h1V29h2v1h1v2H15v1h2Z"/><rect class="aa248-4" x="18" y="32" width="1" height="1"/><path class="aa248-2" d="M13,23h3v1h1V21H16v1H13V21H12v3h1Z"/><path class="aa248-2" d="M21,31V27H20v6h1Z"/><path class="aa248-3" d="M22,31V24H21v1H20v2h1v6h1Z"/><path class="aa248-2" d="M23,31V24H22v9h1Z"/><path class="aa248-2" d="M11,26h1V24H10v1h1Z"/><rect class="aa248-2" x="12" y="26" width="1" height="1"/><rect class="aa248-2" x="16" y="26" width="1" height="1"/><path class="aa248-2" d="M17,26h1V25h1V24H17Z"/><path class="aa248-2" d="M14,27H13v1h3V27Z"/><path class="aa248-3" d="M12,26h1v1h3V26h1V24H16V23H13v1H12Z"/><path class="aa248-5" d="M20,31V30H19v1H18V30H17v3h1V32h1v1h1Z"/><rect class="aa248-5" x="18" y="29" width="1" height="1"/><path class="aa248-5" d="M15,32h1V30H15Z"/><path class="aa248-5" d="M14,32V30h1V29H13v4h2V32Z"/><path class="aa248-5" d="M12,31V30H11v1H10V30H9v3h1V32h1v1h1Z"/><rect class="aa248-5" x="10" y="29" width="1" height="1"/><rect class="aa248-2" x="20" y="15" width="1" height="1"/><path class="aa248-2" d="M19,13v2h1V11H19Z"/><path class="aa248-3" d="M13,22h3V21h1V19h1V18h1V16h1V15H19V11H18V10H15v1H13V10H11v1H10v4H9v1h1v2h1v1h1V18h1V15H11V14h1V13h1V12h3v1h1v1h1v1H16v3H13v1h3v1H13V19H12v2h1Z"/><rect class="aa248-2" x="18" y="10" width="1" height="1"/><rect class="aa248-2" x="17" y="20" width="1" height="1"/><path class="aa248-2" d="M16,9v1h2V9Z"/><path class="aa248-2" d="M13,10V9H11v1Z"/><rect class="aa248-2" x="11" y="20" width="1" height="1"/><rect class="aa248-2" x="10" y="10" width="1" height="1"/><path class="aa248-2" d="M10,14V11H9v4h1Z"/><rect class="aa248-2" x="8" y="15" width="1" height="1"/><rect class="aa248-6" x="17" y="14" width="1" height="1"/><rect class="aa248-6" x="16" y="13" width="1" height="1"/><rect class="aa248-2" x="14" y="14" width="1" height="1"/><path class="aa248-7" d="M14,14h1v1h2V14H16V13H13v1H12v1h2Z"/><path class="aa248-6" d="M15,13h1V12H13v1Z"/><rect class="aa248-6" x="12" y="13" width="1" height="1"/><rect class="aa248-6" x="11" y="14" width="1" height="1"/><path class="aa248-8" d="M19,17v1H18v1H17v1h1v1h2V20h1V19H20V16H19Z"/><path class="aa248-8" d="M12,20V19H11V18H10V16H9v3H8v1H9v1h2V20Z"/><rect class="aa248-2" x="13" y="19" width="3" height="1"/><rect class="aa248-2" x="12" y="18" width="1" height="1"/><path class="aa248-2" d="M19,27h1V25H19Z"/><rect class="aa248-2" x="20" y="24" width="1" height="1"/><rect class="aa248-2" x="21" y="23" width="1" height="1"/><path class="aa248-9" d="M13,11h2V10h1V9h2V7H17V6h1V5H16V6H14V7H13Z"/><rect class="aa248-9" x="18" y="9" width="1" height="1"/><path class="aa248-10" d="M16,18V15H13v3Z"/><rect class="aa248-9" x="18" y="9" width="1" height="1"></rect></svg>