<svg xmlns="http://www.w3.org/2000/svg" viewBox="0 0 29 33"><defs><style>polygon,rect,path{shape-rendering:crispedges;}.ma217-1{fill:#6b4f99;}.ma217-2{fill:#000000;}.ma217-3{fill:#db5800;}.ma217-4{fill:#317f03;}.ma217-5{fill:#e8b795;}.ma217-6{fill:#ffffff;}.ma217-7{fill:#492a23;}.ma217-8{fill:#492a23;}.ma217-9{fill:#cc3232;}</style></defs><path class="ma217-1" d="M0,33H6V27H7V26H8V25h2V24h2V22H11V21H10V20H9V16H8V15H9V11h1V10h1V9h2V7h1V5h1V6h1V8h1V9h1v1h2v5h1v1H20v4H19v1H18v1H17v2h2v1h2v1h1v1h1v6h6V0H0Z"/><path class="ma217-2" d="M23,27H22v6h1V27Z"/><rect class="ma217-2" x="21" y="26" width="1" height="1"/><path class="ma217-3" d="M22,27H21v6h1V27Z"/><path class="ma217-2" d="M21,27H20v6h1V27Z"/><path class="ma217-3" d="M20,27h1V26H19V25H18v8h2V27Z"/><path class="ma217-2" d="M20,26h1V25H19v1Z"/><path class="ma217-2" d="M18,25h1V24H17v1H16v1h1v7h1V25Z"/><path class="ma217-4" d="M17,26H16v1H13V26H12v7h5V26Z"/><path class="ma217-2" d="M13,26v1h3V26H13Z"/><path class="ma217-2" d="M13,23V22H12v2h1Z"/><path class="ma217-5" d="M13,25v1h3V25h1V24H16V23H13v1H12v1Z"/><path class="ma217-2" d="M12,26h1V25H12V24H10v1h1v8h1V26Z"/><path class="ma217-3" d="M11,25H10v1H8v1H9v6h2V25Z"/><path class="ma217-2" d="M10,25H8v1h2Z"/><path class="ma217-2" d="M9,27H8v6H9V27Z"/><rect class="ma217-2" x="7" y="26" width="1" height="1"/><path class="ma217-3" d="M8,27H7v6H8V27Z"/><path class="ma217-2" d="M7,27H6v6H7V27Z"/><rect class="ma217-2" x="20" y="15" width="1" height="1"/><rect class="ma217-5" x="13" y="20" width="1" height="1"/><path class="ma217-5" d="M12,12v1h1v1h1V13h2V12h2V10H14v1H13V10H11v1H10v1Z"/><rect class="ma217-5" x="15" y="20" width="1" height="1"/><rect class="ma217-5" x="9" y="15" width="1" height="1"/><polygon class="ma217-5" points="17 14 18 14 18 13 16 13 16 14 17 14"/><path class="ma217-5" d="M10,13v1h2V13Z"/><rect class="ma217-5" x="18" y="12" width="1" height="1"/><path class="ma217-5" d="M18,15H16V14H14v2h1v1H14V16H13v1H11V16H10v2h1v1h1V18h2v1h1V18h2v1h1V18h1V16h1V15H18Z"/><path class="ma217-2" d="M16,23v1h1V22H16Z"/><path class="ma217-2" d="M13,9H11v1h2Z"/><path class="ma217-2" d="M15,10h3V9H15Z"/><rect class="ma217-2" x="10" y="10" width="1" height="1"/><rect class="ma217-2" x="8" y="15" width="1" height="1"/><rect class="ma217-2" x="14" y="16" width="1" height="1"/><path class="ma217-6" d="M18,15h1V14H18Z"/><path class="ma217-6" d="M16,14v1h1V14Z"/><path class="ma217-2" d="M17,14v1h1V14Z"/><rect class="ma217-7" x="18" y="13" width="1" height="1"/><rect class="ma217-7" x="12" y="13" width="1" height="1"/><rect class="ma217-7" x="10" y="12" width="2" height="1"/><path class="ma217-8" d="M15,18v1h1V18Z"/><path class="ma217-8" d="M13,23h3V22h2V21h1V20h1V16H19v2H18v1H16v2H15V20H14v1H13V19h1V18H12v1H11V18H10V16H9v4h1v1h1v1h2Z"/><path class="ma217-2" d="M14,19H13v1h3V19H14Z"/><path class="ma217-2" d="M16,18v1h1V18Z"/><path class="ma217-9" d="M13,11h1V10h1V9h2V8H16V6H15V5H14V7H13v4Z"/><path class="ma217-2" d="M10,16h1v1h2V16h1V14H10V11H9v4h1Z"/><rect class="ma217-2" x="14" y="13" width="2" height="1"/><rect class="ma217-2" x="16" y="12" width="2" height="1"/><path class="ma217-2" d="M19,12v3h1V10H18v2Z"/></svg>