<svg xmlns="http://www.w3.org/2000/svg" viewBox="0 0 29 33"><defs><style>polygon,rect,path{shape-rendering:crispedges;}.bb87-1{fill:#d4a122;}.bb87-2{fill:#000000;}.bb87-3{fill:#333333;}.bb87-4{fill:#ffffff;}.bb87-5{fill:#b2622b;}.bb87-6{fill:#e2e2e2;}.bb87-7{fill:#e2e2e2;}.bb87-8{fill:#cc2f76;}.bb87-9{fill:#ff6aa5;}.bb87-10{fill:#ff1f4a;}.bb87-11{fill:#ff791f;}.bb87-12{fill:#fad000;}.bb87-13{fill:#b6dc00;}.bb87-14{fill:#00af68;}.bb87-15{fill:#38a6e8;}.bb87-16{fill:#0068ff;}.bb87-17{fill:#6e12ff;}.bb87-18{fill:#ff1d99;}.bb87-19{fill:#cc2f76;}</style></defs><path class="bb87-1" d="M0,33H6V27H7V26H8V25h2V24h1V23h1V21H11V20H10V19H9V16H8V15H9V11h1V10h1V9h1V8h1V6h1V5h1V7h1V9h2v1h1v1h1v4h1v1H20v3h2v1h1v3H22v1H21v1h1v1h1v7h6V0H0Z"/><rect class="bb87-1" x="19" y="24" width="1" height="1"/><path class="bb87-1" d="M17,21v2h1V21Z"/><rect class="bb87-1" x="18" y="23" width="1" height="1"/><path class="bb87-2" d="M7,27H6v6H7V27Z"/><rect class="bb87-2" x="7" y="26" width="1" height="1"/><path class="bb87-3" d="M8,27H7v6H8V27Z"/><path class="bb87-2" d="M9,27H8v6H9V27Z"/><path class="bb87-2" d="M10,25H8v1h2Z"/><path class="bb87-3" d="M12,29H11V25H10v1H8v1H9v6h3V29Z"/><path class="bb87-2" d="M11,26v3h1V26h1V25H12V24h1V23h1v1H13v1h3V24H15V23h1v1h1v1H16v1h1v3h1V25h1V24H18V23H17V21H16v1H13V21H12v2H11v1H10v1h1Z"/><rect class="bb87-4" x="12" y="24" width="1" height="1"/><path class="bb87-2" d="M13,29H12v4h1V29Z"/><rect class="bb87-4" x="13" y="23" width="1" height="1"/><path class="bb87-4" d="M16,29h1V26H16V25H13v1H12v3h1v4h1V32h1v1h1V29Zm-1,2H14V30h1Zm0-2H14V28h1Zm0-2H14V26h1Z"/><rect class="bb87-2" x="14" y="26" width="1" height="1"/><rect class="bb87-2" x="14" y="28" width="1" height="1"/><rect class="bb87-2" x="14" y="30" width="1" height="1"/><rect class="bb87-2" x="14" y="32" width="1" height="1"/><rect class="bb87-4" x="15" y="23" width="1" height="1"/><rect class="bb87-4" x="16" y="24" width="1" height="1"/><path class="bb87-2" d="M17,29H16v4h1V29Z"/><path class="bb87-3" d="M20,28H19V25H18v4H17v4h3V28Z"/><path class="bb87-2" d="M21,29V28H20v5h1V29Z"/><path class="bb87-3" d="M22,29H21v4h1V29Z"/><path class="bb87-2" d="M23,26H22v7h1V26Z"/><rect class="bb87-2" x="20" y="15" width="1" height="1"/><path class="bb87-2" d="M19,13v2h1V11H19v2Z"/><path class="bb87-5" d="M18,14h1V13H17v1Z"/><path class="bb87-5" d="M12,19V18h5v2h1V19h1V16h1V15H16V13h1V12h2V11H18V10H16v1H15V10H11v1H10v2h1V12h2v1H11v1h2v1H9v1h1v3h1v1h1Zm2-3h1v1H14Z"/><path class="bb87-5" d="M13,20v2h3V20Z"/><path class="bb87-2" d="M19,17v2h1V16H19Z"/><rect class="bb87-2" x="18" y="10" width="1" height="1"/><rect class="bb87-2" x="18" y="19" width="1" height="1"/><rect class="bb87-2" x="17" y="20" width="1" height="1"/><path class="bb87-2" d="M17,10h1V9H16v1Z"/><path class="bb87-2" d="M14,10V9H11v1h3Z"/><rect class="bb87-2" x="11" y="20" width="1" height="1"/><rect class="bb87-2" x="10" y="10" width="1" height="1"/><rect class="bb87-2" x="10" y="19" width="1" height="1"/><path class="bb87-2" d="M10,14V11H9v4h1Z"/><path class="bb87-2" d="M10,16H9v3h1V16Z"/><rect class="bb87-2" x="8" y="15" width="1" height="1"/><rect class="bb87-2" x="14" y="16" width="1" height="1"/><path class="bb87-4" d="M13,15V14H12v1Z"/><path class="bb87-4" d="M10,15h1V14H10Z"/><path class="bb87-4" d="M18,14v1h1V14Z"/><path class="bb87-4" d="M16,14v1h1V14Z"/><path class="bb87-2" d="M12,15V14H11v1Z"/><path class="bb87-2" d="M17,14v1h1V14Z"/><path class="bb87-6" d="M11,14V13H10v1Z"/><rect class="bb87-6" x="11" y="12" width="2" height="1"/><path class="bb87-6" d="M17,13H16v1h1Z"/><path class="bb87-6" d="M19,12H17v1h2Z"/><path class="bb87-7" d="M17,19V18H13v1h3v2h1V19Z"/><path class="bb87-7" d="M13,20V19H12v2h1Z"/><path class="bb87-2" d="M16,19H13v1h3Z"/><path class="bb87-2" d="M12,18v1h1V18Z"/><path class="bb87-8" d="M14,10h1v1h1V7H15V5H14V6H13V8H12V9h2Z"/><path class="bb87-4" d="M20,25v1h1V24H20Z"/><rect class="bb87-9" x="20" y="21" width="1" height="1"/><polygon class="bb87-10" points="20 23 19 23 19 24 20 24 21 24 21 23 20 23"/><rect class="bb87-11" x="21" y="23" width="1" height="1"/><path class="bb87-12" d="M22,22h1V20H22v2Z"/><path class="bb87-13" d="M21,20h1V19H20v1Z"/><rect class="bb87-14" x="19" y="19" width="1" height="1"/><rect class="bb87-14" x="18" y="20" width="1" height="1"/><path class="bb87-15" d="M19,22V21H18v2h1Z"/><path class="bb87-16" d="M19,22v1h2V22H19Z"/><path class="bb87-17" d="M22,21H21v2h1V21Z"/><path class="bb87-18" d="M20,20v1h2V20H20Z"/><path class="bb87-19" d="M19,22h1V20H19v2Z"/><path class="bb87-11" d="M22,23h1V22H22Z"/><path class="bb87-2" d="M21.5,26H22V25H21v1Z"/><path class="bb87-5" d="M21,26H20v2h2V26H21Z"/><path class="bb87-2" d="M20,25H19v3h1V25Z"/><path class="bb87-4" d="M21,29h1V28H21Z"/></svg>