<svg xmlns="http://www.w3.org/2000/svg" viewBox="0 0 29 33"><defs><style>polygon,rect,path{shape-rendering:crispedges;}.eb81-1{fill:#b4bd09;}.eb81-2{fill:#000000;}.eb81-3{fill:#316a6d;}.eb81-4{fill:#ffffff;}.eb81-5{fill:#a56e49;}.eb81-6{fill:#90a2a3;}.eb81-7{fill:#ffffff;}.eb81-8{fill:#b23b00;}.eb81-9{fill:#b23b00;}.eb81-10{fill:#cc3232;}.eb81-11{fill:#ff1d99;}.eb81-12{fill:#9b005c;}</style></defs><path class="eb81-1" d="M0,33H6V27H7V26H8V25H9V24h1V23h1V22h1V21H11V20H10V19H9V16H8V15H9V10h1V9h1V8h7V9h1v2h1v4h1v1H20v3H19v1H18v1H17v1h1v1h1v1h1V23h1V22h1v1h1v1H22v1h1v8h6V0H0Z"/><path class="eb81-1" d="M21,25V24H20v1Z"/><path class="eb81-2" d="M7,27H6v6H7V27Z"/><path class="eb81-3" d="M8,27H7v6H8V27Z"/><path class="eb81-2" d="M9,29h1V28h2V27H9V25H8v1H7v1H8v6H9V29Z"/><rect class="eb81-2" x="9" y="24" width="1" height="1"/><path class="eb81-3" d="M12,32V31H11V30H10V29H9v4h4V32Z"/><rect class="eb81-2" x="10" y="23" width="1" height="1"/><path class="eb81-3" d="M10,26v1h2v1H10v1h1v1h1v1h1V26H12V25H11V24H10v1H9v1Z"/><rect class="eb81-3" x="11" y="23" width="1" height="1"/><rect class="eb81-2" x="11" y="24" width="1" height="1"/><rect class="eb81-2" x="10" y="29" width="1" height="1"/><path class="eb81-2" d="M12,24h1V23h3v1h1V23h1V22H17V21H16v1H13V21H12v1H11v1h1Z"/><rect class="eb81-2" x="12" y="25" width="1" height="1"/><path class="eb81-4" d="M15,27H14v6h1V27Z"/><path class="eb81-5" d="M17,25V24H16V23H13v1H12v1h1v1h3V25Z"/><rect class="eb81-2" x="16" y="25" width="1" height="1"/><path class="eb81-3" d="M20,29H19v1H18v1H17v1H16v1h4V29Z"/><rect class="eb81-3" x="17" y="23" width="1" height="1"/><rect class="eb81-2" x="17" y="24" width="1" height="1"/><rect class="eb81-2" x="17" y="30" width="1" height="1"/><rect class="eb81-2" x="18" y="23" width="1" height="1"/><rect class="eb81-2" x="19" y="24" width="1" height="1"/><path class="eb81-3" d="M18,25H17v1H16v5h1V30h1V29h1V28H17V27h2V26h1V25H19V24H18Z"/><path class="eb81-2" d="M21,27V25H20v2H17v1h2v1h1v4h1V27Z"/><path class="eb81-3" d="M22,27H21v6h1V27Z"/><path class="eb81-2" d="M23,25H22v8h1V25Z"/><rect class="eb81-2" x="18" y="29" width="1" height="1"/><rect class="eb81-2" x="11" y="30" width="1" height="1"/><path class="eb81-2" d="M17,32V31H16V26H13v5H12v1h1v1h1V27h1v6h1V32Z"/><path class="eb81-6" d="M19,27h1V26H19Z"/><path class="eb81-6" d="M9,26v1h1V26Z"/><rect class="eb81-2" x="20" y="15" width="1" height="1"/><path class="eb81-2" d="M19,13v2h1V11H19v2Z"/><path class="eb81-5" d="M13,22h3V21h1V20h1V19h1V16h1V15H16V13h1V12h2V11H18V10H17v1H16V10H15v1H14V10H13v1H12V10H11v1H10v2h1V12h2v1H11v1h2v1H9v1h1v3h1v1h1v1h1Zm1-6h1v1H14Zm-2,3V18h5v1H16v1H13V19Z"/><path class="eb81-5" d="M18,14h1V13H17v1Z"/><path class="eb81-2" d="M19,17v2h1V16H19Z"/><rect class="eb81-2" x="18" y="19" width="1" height="1"/><rect class="eb81-2" x="17" y="20" width="1" height="1"/><rect class="eb81-2" x="15" y="9" width="1" height="1"/><rect class="eb81-2" x="13" y="9" width="1" height="1"/><rect class="eb81-2" x="11" y="9" width="1" height="1"/><rect class="eb81-2" x="17" y="9" width="1" height="1"/><rect class="eb81-2" x="11" y="20" width="1" height="1"/><rect class="eb81-2" x="10" y="10" width="1" height="1"/><rect class="eb81-2" x="10" y="19" width="1" height="1"/><path class="eb81-2" d="M10,14V11H9v4h1Z"/><path class="eb81-2" d="M10,16H9v3h1V16Z"/><rect class="eb81-2" x="8" y="15" width="1" height="1"/><rect class="eb81-2" x="14" y="16" width="1" height="1"/><path class="eb81-7" d="M13,15V14H12v1Z"/><path class="eb81-7" d="M10,15h1V14H10Z"/><path class="eb81-7" d="M18,14v1h1V14Z"/><path class="eb81-7" d="M16,14v1h1V14Z"/><path class="eb81-2" d="M12,15V14H11v1Z"/><path class="eb81-2" d="M17,14v1h1V14Z"/><path class="eb81-8" d="M11,14V13H10v1Z"/><rect class="eb81-8" x="11" y="12" width="2" height="1"/><path class="eb81-8" d="M17,13H16v1h1Z"/><path class="eb81-8" d="M19,12H17v1h2Z"/><path class="eb81-9" d="M16,19h1V18H13v1Z"/><rect class="eb81-2" x="13" y="19" width="3" height="1"/><path class="eb81-2" d="M13,18H12v1h1Z"/><path class="eb81-10" d="M18,11h1V9H18v2Z"/><path class="eb81-10" d="M12,10v1h1V9h1v2h1V9h1v2h1V9h1V8H11V9h1Z"/><rect class="eb81-10" x="10" y="9" width="1" height="1"/><path class="eb81-10" d="M10,10H9v1h1Z"/><path class="eb81-5" d="M21,26v1h1V25H21Z"/><rect class="eb81-11" x="21" y="22" width="1" height="1"/><rect class="eb81-11" x="20" y="23" width="1" height="1"/><rect class="eb81-11" x="22" y="23" width="1" height="1"/><path class="eb81-11" d="M21,24.125V25h1V24H21Z"/><rect class="eb81-12" x="21" y="23" width="1" height="1"/></svg>