<svg xmlns="http://www.w3.org/2000/svg" viewBox="0 0 29 33"><defs><style>polygon,rect,path{shape-rendering:crispedges;}.cb42-1{fill:#397d98;}.cb42-2{fill:#000000;}.cb42-3{fill:#333333;}.cb42-4{fill:#ffffff;}.cb42-5{fill:#efcaaf;}.cb42-6{fill:#663228;}.cb42-7{fill:#a06415;}</style></defs><path class="cb42-1" d="M6,32V27H7V26H8V25h2V24h1V23h1V22H10V20H9V17H8V15H9V11h1V10h1V9h7v1h1v1h1v4h1v2H20v3H19v1H18v1H17v1h1v1h1v1h2v1h1v1h1v6h6V0H0V33H6Z"/><path class="cb42-2" d="M23,27H22v6h1V27Z"/><path class="cb42-3" d="M22,27H21v6h1V27Z"/><rect class="cb42-2" x="21" y="26" width="1" height="1"/><path class="cb42-2" d="M21,27H20v6h1V27Z"/><path class="cb42-3" d="M20,27h1V26H19V25H18v4H17v4h3V27Z"/><path class="cb42-2" d="M20,26h1V25H19v1Z"/><path class="cb42-2" d="M17,29H16v4h1V29Z"/><rect class="cb42-4" x="16" y="24" width="1" height="1"/><path class="cb42-4" d="M16,29h1V26H16V25H13v1H12v3h1v4h1V32h1v1h1V29Zm-1,2H14V30h1Zm0-2H14V28h1Zm0-2H14V26h1Z"/><rect class="cb42-2" x="14" y="32" width="1" height="1"/><rect class="cb42-2" x="14" y="30" width="1" height="1"/><rect class="cb42-2" x="14" y="28" width="1" height="1"/><rect class="cb42-2" x="14" y="26" width="1" height="1"/><path class="cb42-2" d="M13,29H12v4h1V29Z"/><rect class="cb42-4" x="12" y="24" width="1" height="1"/><path class="cb42-3" d="M12,29H11V25H10v1H8v1H9v6h3V29Z"/><path class="cb42-2" d="M11,26v3h1V26h1V25H12V24h1v1h3V24h1v1H16v1h1v3h1V25h1V24H18V23H17V22h1V21h1V20h1V17h1V15H20V11H19V10H18V9H11v1H10v1H9v4H8v2H9v3h1V17h1V16H10V14h1V13h2v1h1v2H13v1H11v5h1v1H11v1H10v1h1Zm7-11V14h1v2H18Zm-2,0V14h1v2H16Zm-3,5h3v1H13Z"/><path class="cb42-2" d="M10,25H8v1h2Z"/><path class="cb42-2" d="M9,27H8v6H9V27Z"/><path class="cb42-3" d="M8,27H7v6H8V27Z"/><rect class="cb42-2" x="7" y="26" width="1" height="1"/><path class="cb42-2" d="M7,27H6v6H7V27Z"/><path class="cb42-5" d="M14,20H13v1h1Z"/><path class="cb42-5" d="M16,21V20H15v1Z"/><path class="cb42-4" d="M12,15v1h1V14H12Z"/><path class="cb42-4" d="M17,15V14H16v2h1Z"/><path class="cb42-4" d="M19,15V14H18v2h1Z"/><path class="cb42-2" d="M12,15V14H11v2h1Z"/><path class="cb42-6" d="M15,21V20H14v1Z"/><path class="cb42-7" d="M14,16V14H13v2Z"/><path class="cb42-7" d="M13,14V13H11v1h2Z"/><path class="cb42-7" d="M13,16H11v1h2Z"/><path class="cb42-7" d="M10,14v2h1V14Z"/><path class="cb42-7" d="M11,17H10v5h1V17Z"/></svg>