<svg xmlns="http://www.w3.org/2000/svg" viewBox="0 0 29 33"><defs><style>polygon,rect,path{shape-rendering:crispedges;}.fa132-1{fill:#6b4f99;}.fa132-2{fill:#000000;}.fa132-3{fill:#c6e5e4;}.fa132-4{fill:#ce8452;}.fa132-5{fill:#508e91;}.fa132-6{fill:#ffffff;}.fa132-7{fill:#685432;}.fa132-8{fill:#cc2f76;}.fa132-9{fill:#893a1f;}.fa132-10{fill:#dfdfdf;}.fa132-11{fill:#b2622b;}.fa132-12{fill:#ff1f4a;}.fa132-13{fill:#10bcff;}</style></defs><path class="fa132-1" d="M6,32V26H5V24H8v1h2V24H9V16H8V15H9V13H7V12H5V11H7v1H9V10h1V8h1V7h2V8h3V7h2V8h1V7h1V6h2V8H21V9H20v3h2V11h2v1H22v1H20v2h1v1H20v6H19v3h2V24h3v2H23v7h6V0H0V33H6Z"/><path class="fa132-2" d="M23,26H22v7h1V26Z"/><path class="fa132-2" d="M21,25H19v1h1v7h1V25Z"/><path class="fa132-2" d="M13,23h3v1h1V21H16v1H13V21H12v3h1Z"/><path class="fa132-2" d="M9,31V26h1V25H8v8H9V31Z"/><path class="fa132-2" d="M7,26H6v7H7V26Z"/><path class="fa132-3" d="M15,29H14v2h1V29Z"/><rect class="fa132-3" x="18" y="29" width="1" height="1"/><rect class="fa132-3" x="10" y="29" width="1" height="1"/><path class="fa132-3" d="M19,32V31H18v1H17V29h1V28h1v1h1V26H19V25H18v1H16v1H13V26H12V25H11v2H10V26H9v3h1V28h1v1h1v3H11V31H10v1H9v1H20V32Zm-3-2v1H15v1H13V28h2v1h1Z"/><path class="fa132-4" d="M17,25V24H16V23H13v1H12v1h1v1h3V25Z"/><path class="fa132-2" d="M13,26v1h3V26H13Z"/><rect class="fa132-2" x="12" y="25" width="1" height="1"/><path class="fa132-2" d="M16,25v1h1V25Z"/><path class="fa132-5" d="M19,30H18V29H17v3h1V31h1v1h1V29H19Z"/><rect class="fa132-5" x="18" y="28" width="1" height="1"/><path class="fa132-5" d="M15,30v1h1V29H15Z"/><path class="fa132-5" d="M14,30V29h1V28H13v4h2V31H14Z"/><path class="fa132-5" d="M9,32h1V31h1v1h1V29H11v1H10V29H9v3Z"/><rect class="fa132-5" x="10" y="28" width="1" height="1"/><rect class="fa132-2" x="20" y="15" width="1" height="1"/><path class="fa132-4" d="M10,17v2h1v1h1v1h1v1h3V21h1V20h1V19h1V15H16V14h2V13H13v2H9v1h1Zm4-1h1v1H14Zm-1,3h3V18h1v1H16v1H13Z"/><path class="fa132-4" d="M12,14V13H10v1h2Z"/><path class="fa132-2" d="M19,17v2h1V16H19Z"/><rect class="fa132-2" x="18" y="19" width="1" height="1"/><rect class="fa132-2" x="17" y="20" width="1" height="1"/><rect class="fa132-2" x="11" y="20" width="1" height="1"/><rect class="fa132-2" x="10" y="19" width="1" height="1"/><path class="fa132-2" d="M10,18V16H9v3h1Z"/><rect class="fa132-2" x="8" y="15" width="1" height="1"/><rect class="fa132-2" x="14" y="16" width="1" height="1"/><path class="fa132-6" d="M12,15h1V14H12Z"/><path class="fa132-6" d="M10,14v1h1V14Z"/><path class="fa132-6" d="M18,14v1h1V14Z"/><path class="fa132-6" d="M16,14v1h1V14Z"/><path class="fa132-2" d="M11,14v1h1V14Z"/><path class="fa132-2" d="M17,14v1h1V14Z"/><path class="fa132-7" d="M12,14h1V13H12Z"/><rect class="fa132-2" x="13" y="19" width="3" height="1"/><rect class="fa132-2" x="16" y="18" width="1" height="1"/><path class="fa132-8" d="M10,27h1V25h1V21H11V20H10V19H9v5h1v3Z"/><path class="fa132-8" d="M10,14V13H9v2h1Z"/><path class="fa132-8" d="M18,14h1v2h1V13H18Z"/><path class="fa132-8" d="M19,20H18v1H17v5h1V25h1V22h1V19H19Z"/><path class="fa132-9" d="M24,11H22v1h2Z"/><path class="fa132-10" d="M21,8h1V7H21Z"/><path class="fa132-9" d="M11,13H22V12H20V11H19v1H10V11H9v1H7v1h4Z"/><rect class="fa132-10" x="20" y="8" width="1" height="1"/><path class="fa132-11" d="M19,11h1V10H19Z"/><path class="fa132-6" d="M18,11h1V10h1V8h1V7h1V6H20V7H19V8H18v3Z"/><path class="fa132-11" d="M17,11H10v1h9V11H17Z"/><path class="fa132-9" d="M11,11h7V7H16V8H13V7H11V8H10v3Z"/><path class="fa132-11" d="M10,10H9v1h1Z"/><path class="fa132-9" d="M6,11H5v1H7V11Z"/><path class="fa132-2" d="M23,26h1V25H23Z"/><path class="fa132-2" d="M22,24H21v1h1Z"/><path class="fa132-12" d="M23,25h1V24H22v1Z"/><path class="fa132-2" d="M8,25V24H7v1Z"/><path class="fa132-2" d="M5,25v1H6V25Z"/><path class="fa132-13" d="M7,25V24H5v1H7Z"/><path class="fa132-4" d="M22,26h1V25H21v8h1V26Z"/><path class="fa132-4" d="M8,25H6v1H7v7H8V25Z"/></svg>