<svg xmlns="http://www.w3.org/2000/svg" viewBox="0 0 29 33"><defs><style>polygon,rect,path{shape-rendering:crispedges;}.qa292-1{fill:#e55b35;}.qa292-2{fill:#000000;}.qa292-3{fill:#333333;}.qa292-4{fill:#e8b795;}.qa292-5{fill:#333333;}.qa292-6{fill:#8e4717;}.qa292-7{fill:#8e4717;}.qa292-8{fill:#0068ff;}.qa292-9{fill:#ffffff;}.qa292-10{fill:#0068ff;}.qa292-11{fill:#ff1f4a;}</style></defs><path class="qa292-1" d="M0,33H6V24H7V23H8v1H9v1h1V24h1V23H10V22h1V21H9V20H8V19H9V16H8V15H9V11h1V10h1V9h7v1h1v1h1v4h1v1H20v3h1v1H20v1H18v1h1v1H18v1h1v1h2v1h1v1h1v6h6V0H0Z"/><path class="qa292-2" d="M23,27H22v6h1V27Z"/><path class="qa292-3" d="M22,27H21v6h1V27Z"/><rect class="qa292-2" x="21" y="26" width="1" height="1"/><path class="qa292-2" d="M21,27H20v6h1V27Z"/><path class="qa292-3" d="M20,27h1V26H19V25H18V24H16v1h1v3h2v1H17v2h1V30h1v2H16V25H13v3h2v4H12V25h1V24H11v1H10v2H9v6H20V27Zm-9,2v3H10V28h1Z"/><path class="qa292-2" d="M20,26h1V25H19v1Z"/><rect class="qa292-2" x="18" y="24" width="1" height="1"/><rect class="qa292-2" x="18" y="22" width="1" height="1"/><rect class="qa292-3" x="17" y="22" width="1" height="1"/><path class="qa292-2" d="M13,24v1h3V24H13Z"/><path class="qa292-4" d="M15,23H13v1h3V23Z"/><path class="qa292-2" d="M13,23h3v1h2V23H17V22h1V20H17v1H16v1H13V21H12V20H11v2h1v1H11v1h2Z"/><rect class="qa292-3" x="11" y="22" width="1" height="1"/><rect class="qa292-2" x="10" y="24" width="1" height="1"/><rect class="qa292-2" x="10" y="22" width="1" height="1"/><path class="qa292-2" d="M9,27H8v6H9V27Z"/><path class="qa292-3" d="M8,27H7v6H8V27Z"/><path class="qa292-2" d="M7,27V24H6v9H7V27Z"/><path class="qa292-3" d="M14,31V29H13v2Z"/><path class="qa292-5" d="M14,29v2H13V30H12v2h3V28H13v1Z"/><path class="qa292-5" d="M10,29v3h1V28H10Z"/><path class="qa292-5" d="M18,29h1V28H17v1Z"/><path class="qa292-5" d="M16,31v1h3V30H18v1H17V30H16Z"/><path class="qa292-2" d="M12,26v4h1V25H12Z"/><path class="qa292-2" d="M16,30h1V25H16v5Z"/><rect class="qa292-2" x="20" y="15" width="1" height="1"/><path class="qa292-4" d="M12,12v1h2v1h1V13h1V12h2v1h1V11H18V10H11v1H10v1Z"/><rect class="qa292-4" x="14" y="15" width="1" height="1"/><path class="qa292-4" d="M16,19v1H13V19h3V18h1v1h1V18h1V16H15v1H14V16H10v2h1v1h1v2h1v1h3V21h1V19Z"/><rect class="qa292-2" x="8" y="15" width="1" height="1"/><rect class="qa292-2" x="14" y="16" width="1" height="1"/><path class="qa292-6" d="M16,12v1h2V12Z"/><path class="qa292-6" d="M10,12v1h2V12Z"/><path class="qa292-7" d="M19,17v1H18v1H17v1h1v1h2V20h1V19H20V16H19Z"/><path class="qa292-7" d="M12,20V19H11V18H10V16H9v3H8v1H9v1h2V20Z"/><rect class="qa292-2" x="13" y="19" width="3" height="1"/><rect class="qa292-2" x="16" y="18" width="1" height="1"/><path class="qa292-4" d="M7,27H9V25H8V24H7v3Z"/><path class="qa292-2" d="M10,27V25H9v2Z"/><rect class="qa292-2" x="8" y="24" width="1" height="1"/><rect class="qa292-2" x="7" y="23" width="1" height="1"/><path class="qa292-8" d="M20,13V11H19v2Z"/><rect class="qa292-8" x="18" y="10" width="1" height="1"/><path class="qa292-8" d="M18,10V9H11v1h7Z"/><rect class="qa292-8" x="10" y="10" width="1" height="1"/><path class="qa292-8" d="M10,12V11H9v2h1Z"/><path class="qa292-9" d="M11,16h3V15h1v1h5V13H15v1H14V13H9v3h2Zm5-2h3v1H16Zm-6,0h3v1H10Z"/><path class="qa292-10" d="M19,15V14H16v1h3Z"/><path class="qa292-11" d="M13,15V14H10v1h3Z"/></svg>