<svg xmlns="http://www.w3.org/2000/svg" viewBox="0 0 29 33"><defs><style>polygon,rect,path{shape-rendering:crispedges;}.eb29-1{fill:#e55b35;}.eb29-2{fill:#000000;}.eb29-3{fill:#685432;}.eb29-4{fill:#333333;}.eb29-5{fill:#efcaaf;}.eb29-6{fill:#90a2a3;}.eb29-7{fill:#326b43;}.eb29-8{fill:#326b43;}.eb29-9{fill:#ff1d99;}.eb29-10{fill:#ffffff;}.eb29-11{fill:#0068ff;}.eb29-12{fill:#ff1f4a;}.eb29-13{fill:#00997c;}.eb29-14{fill:#00e2b7;}.eb29-15{fill:#00755f;}</style></defs><path class="eb29-1" d="M6,32V27H7V26H8V25H9V24h1V23h1V22h1V21H10V20H9V18H8V12H9V11h1V10h1V9h7v1h1v1h1v2h1v4h3v1h1V17h1v1H25v5H24v8H23v1H21v1h8V0H0V33H6Z"/><path class="eb29-1" d="M20,23V20H19v1H17v1h1v1h1v1h1v1h1V23Z"/><path class="eb29-2" d="M7,27H6v6H7V27Z"/><path class="eb29-3" d="M8,27H7v6H8V27Z"/><path class="eb29-2" d="M9,29h1V28h2V27H9V25H8v1H7v1H8v6H9V29Z"/><rect class="eb29-2" x="9" y="24" width="1" height="1"/><path class="eb29-3" d="M12,32V31H11V30H10V29H9v4h4V32Z"/><rect class="eb29-2" x="10" y="23" width="1" height="1"/><path class="eb29-3" d="M10,26v1h2v1H10v1h1v1h1v1h1V26H12V25H11V24H10v1H9v1Z"/><rect class="eb29-2" x="10" y="29" width="1" height="1"/><rect class="eb29-3" x="11" y="23" width="1" height="1"/><rect class="eb29-2" x="11" y="24" width="1" height="1"/><rect class="eb29-2" x="11" y="30" width="1" height="1"/><path class="eb29-2" d="M12,24h1V23h3v1h1V23h1V22H17V21H16v1H13V21H12v1H11v1h1Z"/><rect class="eb29-2" x="12" y="25" width="1" height="1"/><path class="eb29-2" d="M17,32V31H16V26H13v5H12v1h1v1h1V27h1v6h1V32Z"/><path class="eb29-4" d="M15,27H14v6h1V27Z"/><path class="eb29-5" d="M17,25V24H16V23H13v1H12v1h1v1h3V25Z"/><rect class="eb29-2" x="16" y="25" width="1" height="1"/><path class="eb29-3" d="M20,29H19v1H18v1H17v1H16v1h4V29Z"/><rect class="eb29-3" x="17" y="23" width="1" height="1"/><rect class="eb29-2" x="17" y="24" width="1" height="1"/><rect class="eb29-2" x="17" y="30" width="1" height="1"/><rect class="eb29-2" x="18" y="23" width="1" height="1"/><rect class="eb29-2" x="18" y="29" width="1" height="1"/><rect class="eb29-2" x="19" y="24" width="1" height="1"/><path class="eb29-3" d="M19,24H18v1H17v1H16v5h1V30h1V29h1V28H17V27h2V26h1V25H19Z"/><path class="eb29-2" d="M22,32h1V31H22V25H20v2H17v1h2v1h1v4h1V32Z"/><path class="eb29-3" d="M23,26V25H22v6h1V26Z"/><path class="eb29-2" d="M23,26v5h1V25H23Z"/><path class="eb29-6" d="M19,27h1V26H19Z"/><path class="eb29-6" d="M9,26v1h1V26Z"/><rect class="eb29-5" x="14" y="15" width="1" height="1"/><path class="eb29-5" d="M13,22h3V21h1V20h1V16H17v1H16V16H15v1H14V16H11v4h1v1h1Zm-1-3V18h1v1h3v1H13V19Z"/><rect class="eb29-5" x="16" y="12" width="1" height="1"/><path class="eb29-5" d="M14,14h1V11H14v1H13v1h1Z"/><rect class="eb29-5" x="11" y="11" width="1" height="1"/><rect class="eb29-2" x="19" y="16" width="1" height="1"/><rect class="eb29-2" x="9" y="16" width="1" height="1"/><rect class="eb29-2" x="14" y="16" width="1" height="1"/><rect class="eb29-7" x="11" y="12" width="1" height="1"/><rect class="eb29-7" x="17" y="12" width="1" height="1"/><path class="eb29-8" d="M19,20V18H18v2H17v1h2Z"/><path class="eb29-8" d="M11,20V18H10v3h2V20Z"/><rect class="eb29-8" x="9" y="17" width="1" height="1"/><rect class="eb29-2" x="13" y="19" width="3" height="1"/><rect class="eb29-2" x="12" y="18" width="1" height="1"/><path class="eb29-9" d="M9,16V13h2V11h1v2h1V12h1V11h1v2h1V12h2v1h2V11H19V10H18V9H11v1H10v1H9v1H8v6H9V16Z"/><path class="eb29-9" d="M20,16v2h1V13H20v3Z"/><path class="eb29-9" d="M19,17V16H18v2h1Z"/><path class="eb29-9" d="M10,17v1h1V16H10Z"/><path class="eb29-9" d="M9,18v2h1V18Z"/><rect class="eb29-9" x="16" y="16" width="1" height="1"/><path class="eb29-9" d="M19,19v1h1V18H19Z"/><path class="eb29-10" d="M17,13H15v1H14V13H9v3h5V15h1v1h5V13H17Zm-4,2H10V14h3Zm6,0H16V14h3Z"/><path class="eb29-11" d="M16,14v1h3V14H16Z"/><path class="eb29-12" d="M10,14v1h3V14H10Z"/><path class="eb29-13" d="M20,21v2h1V21Z"/><path class="eb29-2" d="M22,20V18H21v2Z"/><path class="eb29-2" d="M23,19v1h1V18H23Z"/><rect class="eb29-2" x="22" y="21" width="1" height="1"/><path class="eb29-14" d="M23,22H21v1h3V22Z"/><path class="eb29-14" d="M20,21h2V20H21V18H20v3Z"/><path class="eb29-14" d="M22,18v2h1V18h1V17H21v1Z"/><path class="eb29-14" d="M23,20v1h2V18H24v2Z"/><path class="eb29-15" d="M21,23v2h3V23H21Z"/><path class="eb29-13" d="M24,21.222V23h1V21H24Z"/><path class="eb29-14" d="M19,18h1V17H19Z"/><rect class="eb29-14" x="25" y="17" width="1" height="1"/><rect class="eb29-13" x="22" y="20" width="1" height="1"/><path class="eb29-10" d="M21,21v1h1V21Z"/><path class="eb29-10" d="M24,22V21H23v1Z"/></svg>