<svg xmlns="http://www.w3.org/2000/svg" viewBox="0 0 29 33"><defs><style>polygon,rect,path{shape-rendering:crispedges;}.ga232-1{fill:#397d98;}.ga232-2{fill:#000000;}.ga232-3{fill:#8e9350;}.ga232-4{fill:#efcaaf;}.ga232-5{fill:#6c9302;}.ga232-6{fill:#6c9302;}.ga232-7{fill:#b23b00;}.ga232-8{fill:#fad000;}.ga232-9{fill:#68aaad;}</style></defs><path class="ga232-1" d="M6,32V27H7V26H8V25h2V24h2V21H11V20H10V19H9V17H8V15H9V10h1V9h1V8h7V9h1v1h1v5h1v2H20v2H19v1H18v1H17v3h2v1h2v1h1v1h1v6h6V0H0V33H6Z"/><path class="ga232-2" d="M23,27H22v6h1V27Z"/><rect class="ga232-2" x="21" y="26" width="1" height="1"/><path class="ga232-3" d="M22,27H21v6h1V27Z"/><path class="ga232-2" d="M21,27H20v6h1V27Z"/><path class="ga232-2" d="M20,26h1V25H19v1Z"/><path class="ga232-3" d="M20,27h1V26H19V25H17v1H16v1H13V26H12V25H10v1H9v7H20V27Z"/><path class="ga232-2" d="M18,25h1V24H17v1Z"/><rect class="ga232-2" x="16" y="25" width="1" height="1"/><path class="ga232-2" d="M13,26v1h3V26H13Z"/><path class="ga232-2" d="M13,23V22H12v2h1Z"/><path class="ga232-4" d="M13,25v1h3V25h1V24H16V23H13v1H12v1Z"/><rect class="ga232-2" x="12" y="25" width="1" height="1"/><path class="ga232-2" d="M12,24H10v1h2Z"/><path class="ga232-2" d="M9,26h1V25H8v1H7v1H8v6H9V26Z"/><path class="ga232-3" d="M8,27H7v6H8V27Z"/><path class="ga232-2" d="M7,27H6v6H7V27Z"/><path class="ga232-2" d="M21,16V15H20v1Z"/><rect class="ga232-4" x="19" y="15" width="1" height="1"/><rect class="ga232-4" x="13" y="20" width="1" height="1"/><rect class="ga232-4" x="15" y="20" width="1" height="1"/><rect class="ga232-4" x="9" y="15" width="1" height="1"/><path class="ga232-4" d="M18,16H17v1H16V15H13v1H10v2h1v1h1V18h2v1h1V18h2v1h1V18h1V16Zm-3,1H14V16h1Z"/><path class="ga232-4" d="M12,13h2v1h1V12H14V11H13V10H11v1H10v1h2Z"/><path class="ga232-2" d="M19,16v1h1V16Z"/><path class="ga232-2" d="M16,23v1h1V22H16Z"/><path class="ga232-2" d="M10,16H9v1h1Z"/><path class="ga232-2" d="M9,15H8v1H9Z"/><rect class="ga232-2" x="14" y="16" width="1" height="1"/><path class="ga232-5" d="M12,12H10v1h2Z"/><path class="ga232-6" d="M15,18v1h1V18Z"/><path class="ga232-6" d="M13,23h3V22h1V21h1V20h1V19h1V17H19v1H18v1H16v2H15V20H14v1H13V19h1V18H12v1H11V18H10V17H9v2h1v1h1v1h1v1h1Z"/><path class="ga232-2" d="M14,19H13v1h3V19H14Z"/><path class="ga232-2" d="M16,18v1h1V18Z"/><path class="ga232-7" d="M16,17h1V16H16Z"/><path class="ga232-7" d="M10,13V11h1V10h2v1h1v1h1v1h4v1h1V10H19V9H18V8H11V9H10v1H9v4h1Z"/><path class="ga232-8" d="M20,17h1V16H20Z"/><path class="ga232-8" d="M8,16v1H9V16Z"/><path class="ga232-9" d="M13,16V15h1V14H10v2h3Z"/><path class="ga232-9" d="M16,14H15v1h1v1h3V14H16Z"/><path class="ga232-2" d="M16,14h3V13H15v1Z"/><path class="ga232-2" d="M14,14V13H10v1h4Z"/><path class="ga232-2" d="M19,15h1V14H19Z"/><path class="ga232-2" d="M10,14H9v1h1Z"/><path class="ga232-2" d="M14,14v1h1V14Z"/></svg>