<svg xmlns="http://www.w3.org/2000/svg" viewBox="0 0 29 33"><defs><style>polygon,rect,path{shape-rendering:crispedges;}.ma277-1{fill:#6b4f99;}.ma277-2{fill:#000000;}.ma277-3{fill:#b3ffa1;}.ma277-4{fill:#00686d;}.ma277-5{fill:#c18d59;}.ma277-6{fill:#45ba00;}.ma277-7{fill:#ffffff;}.ma277-8{fill:#663228;}.ma277-9{fill:#663228;}.ma277-10{fill:#c8a715;}.ma277-11{fill:#db5800;}.ma277-12{fill:#fad000;}</style></defs><path class="ma277-1" d="M18,22H17v2h1V22Z"/><path class="ma277-1" d="M12,22H11v2h1V22Z"/><path class="ma277-1" d="M0,33H6V27H7V26H8V25h2V20H9V16H8V15H9V11h1V10h1V9h1V8h1V6h1V5h1V7h1V9h2v1h1v1h1v4h1v1H20v4H19v5h2v1h1v1h1v6h6V0H0Z"/><path class="ma277-2" d="M23,27H22v6h1V27Z"/><rect class="ma277-2" x="21" y="26" width="1" height="1"/><path class="ma277-3" d="M21,31v1h1V30H21Z"/><path class="ma277-3" d="M21,28h1V27H21Z"/><path class="ma277-2" d="M21,31V27H20v6h1V31Z"/><path class="ma277-3" d="M18,26v2h1v1h1V27H19V25H18Z"/><path class="ma277-3" d="M19,31V30H18v2h1v1h1V31Z"/><path class="ma277-2" d="M20,26h1V25H19v1Z"/><path class="ma277-2" d="M18,31V25h1V24H17v1H16v1h1v7h1V31Z"/><path class="ma277-4" d="M17,26H16v1H13V26H12v7h5V26Z"/><path class="ma277-2" d="M13,26v1h3V26H13Z"/><path class="ma277-5" d="M16,23H13v3h3V23Z"/><path class="ma277-2" d="M12,26h1V25H12V24H10v1h1v8h1V26Z"/><path class="ma277-3" d="M10,26H9v2h1v1h1V27H10Z"/><path class="ma277-3" d="M10,31V30H9v2h1v1h1V31Z"/><path class="ma277-2" d="M10,26V25H8v1h2Z"/><path class="ma277-2" d="M9,31V27H8v6H9V31Z"/><rect class="ma277-2" x="7" y="26" width="1" height="1"/><path class="ma277-3" d="M7,31v2H8V31Z"/><path class="ma277-3" d="M8,29V27H7v2Z"/><path class="ma277-2" d="M7,30V27H6v6H7V30Z"/><path class="ma277-6" d="M21,29v1h1V28H21Z"/><path class="ma277-6" d="M21,32v1h1V32Z"/><path class="ma277-6" d="M19,26v1h2V26H19Z"/><path class="ma277-6" d="M19,28H18v2h1v1h1V29H19Z"/><path class="ma277-6" d="M18,32v1h1V32Z"/><path class="ma277-6" d="M10,27h1V25H10v2Z"/><path class="ma277-6" d="M10,28H9v2h1v1h1V29H10Z"/><path class="ma277-6" d="M9,32v1h1V32Z"/><path class="ma277-6" d="M9,27V26H8v1Z"/><path class="ma277-6" d="M7,30v1H8V29H7Z"/><rect class="ma277-2" x="20" y="15" width="1" height="1"/><path class="ma277-2" d="M19,13v2h1V11H19v2Z"/><rect class="ma277-5" x="9" y="15" width="1" height="1"/><path class="ma277-5" d="M11,13V12h2v2h1v2h1v1H14V16H13v1H11v2h1V18h2v1h1V18h2v1h1V18h1V16h1V15H16V13h1V12h2V11H18V10H16v1H15V10H11v1H10v2Z"/><path class="ma277-5" d="M18,14h1V13H17v1Z"/><rect class="ma277-5" x="10" y="16" width="1" height="1"/><path class="ma277-5" d="M12,15H11v1h2V15Z"/><polygon class="ma277-5" points="13 21 14 21 14 22 15 22 15 21 16 21 16 20 13 20 13 21"/><path class="ma277-2" d="M19,17h1V16H19Z"/><rect class="ma277-2" x="18" y="10" width="1" height="1"/><path class="ma277-2" d="M17,10h1V9H16v1Z"/><path class="ma277-2" d="M14,10V9H11v1h3Z"/><rect class="ma277-2" x="10" y="10" width="1" height="1"/><path class="ma277-2" d="M10,14V11H9v4h1Z"/><path class="ma277-2" d="M10,16H9v1h1Z"/><rect class="ma277-2" x="8" y="15" width="1" height="1"/><rect class="ma277-2" x="14" y="16" width="1" height="1"/><rect class="ma277-7" x="12" y="14" width="1" height="1"/><path class="ma277-7" d="M18,14v1h1V14Z"/><path class="ma277-7" d="M16,14v1h1V14Z"/><rect class="ma277-2" x="11" y="14" width="1" height="1"/><path class="ma277-2" d="M17,14v1h1V14Z"/><path class="ma277-8" d="M11,13H10v1h1Z"/><path class="ma277-8" d="M13,12H11v1h2Z"/><path class="ma277-8" d="M17,13H16v1h1Z"/><path class="ma277-8" d="M19,12H17v1h2Z"/><path class="ma277-9" d="M14,19V18H13v1Z"/><path class="ma277-9" d="M19,18H18v1H17V18H15v1h1v2H15v1H14V21H13V19H11v3h1v1h5V22h2V20h1V17H19Z"/><path class="ma277-9" d="M10,17H9v3h1V17Z"/><path class="ma277-10" d="M18,23h1V22H18Z"/><path class="ma277-9" d="M18,24h1V23H18Z"/><path class="ma277-10" d="M16,23v1h1V23Z"/><path class="ma277-9" d="M16,25h1V24H16Z"/><path class="ma277-10" d="M13,23H12v1h1Z"/><path class="ma277-9" d="M12,24v1h1V24Z"/><path class="ma277-10" d="M11,22H10v1h1Z"/><path class="ma277-9" d="M11,23H10v1h1Z"/><path class="ma277-2" d="M13,20h3V19H13Z"/><path class="ma277-2" d="M13,18H12v1h1Z"/><path class="ma277-11" d="M14,10h1v1h1V7H15V5H14V6H13V8H12V9h2Z"/><path class="ma277-12" d="M13,16h1V14H13v2Z"/><path class="ma277-12" d="M12,14h1V13H11v1Z"/><path class="ma277-12" d="M13,16H11v1h2Z"/><polygon class="ma277-12" points="11 15 11 14 10 14 10 15 10 16 11 16 11 15"/><path class="ma277-12" d="M11,21V17H10v5h1Z"/></svg>