<svg xmlns="http://www.w3.org/2000/svg" viewBox="0 0 29 33"><defs><style>polygon,rect,path{shape-rendering:crispedges;}.ea300-1{fill:#db5a8e;}.ea300-2{fill:#000000;}.ea300-3{fill:#3e5e00;}.ea300-4{fill:#e8b795;}.ea300-5{fill:#00af68;}.ea300-6{fill:#317f03;}.ea300-7{fill:#685432;}.ea300-8{fill:#000000;}.ea300-9{fill:#ffffff;}</style></defs><path class="ea300-1" d="M0,33H6V27H7V26H8V25h2V24h2V21H11V20H10V19H9V16H8V15H9V14H8V12H9V11H8V10H9V9H8V8h2V7h1V8h1V6h1V7h1V8h1V7h1V6h1V7h1V8h1V7h1V8H19V9h2v2H20v1h1v1H20v1h1v2H20v3H19v1H18v1H17v3h2v1h1V24h1V23h1v1h1v9h6V0H0Z"/><path class="ea300-2" d="M9,31V27H8v2H7V27H6v6H7V30H8v3H9V31Z"/><rect class="ea300-2" x="7" y="26" width="1" height="1"/><path class="ea300-2" d="M10,25H8v1h2Z"/><path class="ea300-2" d="M12,24H10v1h2Z"/><path class="ea300-2" d="M13,23V22H12v2h1Z"/><path class="ea300-2" d="M18,25h1V24H17v1Z"/><path class="ea300-2" d="M21,27H20v6h1V27Z"/><path class="ea300-2" d="M23,24H22v9h1V24Z"/><rect class="ea300-3" x="18" y="29" width="1" height="1"/><rect class="ea300-3" x="10" y="29" width="1" height="1"/><path class="ea300-3" d="M19,32V31H18v1H17V29h1V28h1v1h1V27H19V25H17v1H16v1H13V26H12V25H10v1H8v1H9v2h1V28h1v1h1v3H11V31H10v1H9v1H20V32Zm-3-2v1H15v1H13V28h2v1h1Z"/><path class="ea300-3" d="M15,29H14v2h1V29Z"/><path class="ea300-3" d="M8,29V27H7v2Z"/><path class="ea300-4" d="M22,24H21v1H20v2h1v6h1V24Z"/><path class="ea300-4" d="M13,25v1h3V25h1V24H16V23H13v1H12v1Z"/><path class="ea300-2" d="M13,26v1h3V26H13Z"/><path class="ea300-4" d="M8,30H7v3H8V30Z"/><rect class="ea300-2" x="16" y="25" width="1" height="1"/><rect class="ea300-2" x="12" y="25" width="1" height="1"/><path class="ea300-5" d="M19,30H18V29H17v3h1V31h1v1h1V29H19Z"/><rect class="ea300-5" x="18" y="28" width="1" height="1"/><path class="ea300-5" d="M15,30v1h1V29H15Z"/><path class="ea300-5" d="M14,30V29h1V28H13v4h2V31H14Z"/><path class="ea300-5" d="M9,32h1V31h1v1h1V29H11v1H10V29H9v3Z"/><rect class="ea300-5" x="10" y="28" width="1" height="1"/><path class="ea300-2" d="M20,16h1V15H20Z"/><rect class="ea300-4" x="16" y="19" width="1" height="1"/><path class="ea300-4" d="M13,21h3V20H13Z"/><rect class="ea300-4" x="9" y="15" width="1" height="1"/><rect class="ea300-4" x="11" y="10" width="1" height="1"/><path class="ea300-4" d="M18,17H16V16H15v1H14V16H13v1H11V16H10v2h1v1h1v1h1V19h3V18h1v1h1V18h1V16H18Z"/><path class="ea300-4" d="M13,13v1h3V12H15V10H14v1H13v1H12v1Z"/><rect class="ea300-4" x="10" y="11" width="1" height="1"/><rect class="ea300-4" x="10" y="13" width="1" height="1"/><polygon class="ea300-4" points="18 11 18 10 17 10 17 11 16 11 16 12 18 12 18 11"/><rect class="ea300-4" x="19" y="15" width="1" height="1"/><rect class="ea300-4" x="14" y="15" width="1" height="1"/><path class="ea300-2" d="M16,23v1h1V22H16Z"/><rect class="ea300-2" x="8" y="15" width="1" height="1"/><rect class="ea300-2" x="14" y="16" width="1" height="1"/><rect class="ea300-6" x="18" y="13" width="1" height="1"/><path class="ea300-6" d="M17,13h1V12H16v1Z"/><rect class="ea300-6" x="11" y="12" width="1" height="1"/><path class="ea300-7" d="M13,23h3V22h1V21h1V20h1V19h1V16H19v2H18v1H17v1H16v1H13V20H12V19H11V18H10V16H9v3h1v1h1v1h1v1h1Z"/><rect class="ea300-2" x="13" y="19" width="3" height="1"/><rect class="ea300-2" x="16" y="18" width="1" height="1"/><path class="ea300-2" d="M20,27V25H19v2Z"/><rect class="ea300-2" x="20" y="24" width="1" height="1"/><rect class="ea300-2" x="21" y="23" width="1" height="1"/><path class="ea300-8" d="M10,14V13h1V12H10V11h1V10h1v1H11v1h2V11h1V10h1v2h1V11h1V10h1v3h1v2h2V14H20V13h1V12H20V11h1V9H19V8H18V7H17V6H16V7H15V8H14V7H13V6H12V8H11V7H10V8H8V9H9v1H8v1H9v1H8v2H9v1h1Z"/><rect class="ea300-8" x="19" y="7" width="1" height="1"/><polygon class="ea300-9" points="12 14 13 14 13 13 12 13 11 13 11 14 12 14"/><path class="ea300-9" d="M11,17h2V16H11Z"/><polygon class="ea300-9" points="11 15 11 14 10 14 10 15 10 16 11 16 11 15"/><path class="ea300-2" d="M12,14H11v2h2V14Z"/><path class="ea300-9" d="M19,14H18v2h1V14Z"/><path class="ea300-9" d="M16,13v1h2V13H16Z"/><path class="ea300-9" d="M16,17h2V16H16Z"/><path class="ea300-9" d="M13,14v2h1V15h1v1h1V14Z"/><path class="ea300-2" d="M16,16h2V14H16Z"/></svg>