<svg xmlns="http://www.w3.org/2000/svg" viewBox="0 0 29 33"><defs><style>polygon,rect,path{shape-rendering:crispedges;}.va116-1{fill:#31a09d;}.va116-2{fill:#000000;}.va116-3{fill:#4fdb7d;}.va116-4{fill:#a56e49;}.va116-5{fill:#ffffff;}.va116-6{fill:#66334f;}.va116-7{fill:#66334f;}.va116-8{fill:#72dd40;}.va116-9{fill:#455054;}.va116-10{fill:#29834f;}.va116-11{fill:#ff791f;}</style></defs><path class="va116-1" d="M8,19H9V16H8v3Z"/><path class="va116-1" d="M0,33H8V32H6V31H5V22H6V21H7V20H5v1H2V17H5V16H8V15H9V11h1V10h1V9h7v1h1v1h1v4h1v1H20v3h1v1H20v1H18v1h1v3h2v1h1v1h1v6h6V0H0Z"/><path class="va116-1" d="M10,22h1V21H9V20H8v2H9v2H8v1h2V22Z"/><path class="va116-2" d="M6,24V22H5v9H6V24Z"/><path class="va116-2" d="M23,27H22v6h1V27Z"/><path class="va116-3" d="M22,27H21v6h1V27Z"/><rect class="va116-2" x="21" y="26" width="1" height="1"/><path class="va116-2" d="M21,27H20v4H14V27H13v4H9V27H8V26h2V25H8V24H7v7H6v1H8v1H9V32H20v1h1V27Z"/><path class="va116-3" d="M19,32H9v1H20V32Z"/><path class="va116-2" d="M20,26h1V25H19v1Z"/><path class="va116-2" d="M18,25h1V22H18v3Z"/><path class="va116-3" d="M17,23v1H16v1H15v2H14v4h6V27h1V26H19V25H18V22H17Z"/><rect class="va116-2" x="15" y="24" width="1" height="1"/><path class="va116-2" d="M15,26V25H14v2h1Z"/><rect class="va116-2" x="13" y="24" width="1" height="1"/><path class="va116-4" d="M14,25h1V24h1V23H13v1h1Z"/><path class="va116-2" d="M11,24V22H10v3h1Z"/><path class="va116-3" d="M13,25V24H12V22H11v3H10v1H8v1H9v4h4V27h1V25Z"/><path class="va116-3" d="M7,30V24H6v7H7Z"/><rect class="va116-2" x="20" y="15" width="1" height="1"/><path class="va116-2" d="M19,13v2h1V12H19Z"/><path class="va116-4" d="M18,12v1h1V11H18Z"/><path class="va116-4" d="M10,16v2h1v1h1v2h1v1h3V21h1V19H16v1H13V19h3V18h1v1h1V18h1V16h1V15H16V14h2V13H16V12h1V11H16V10H13v1H12v2h1v2H9v1Zm4,0h1v1H14Z"/><rect class="va116-4" x="11" y="10" width="1" height="1"/><path class="va116-4" d="M10,14h2V13H10Z"/><rect class="va116-4" x="10" y="11" width="1" height="1"/><rect class="va116-4" x="17" y="10" width="1" height="1"/><path class="va116-2" d="M17,20v1H16v1H13V21H12V20H11v2h1v2h1V23h3v1h1V22h1V20Z"/><path class="va116-2" d="M10,14V12H9v3h1Z"/><rect class="va116-2" x="8" y="15" width="1" height="1"/><rect class="va116-2" x="14" y="16" width="1" height="1"/><path class="va116-5" d="M12,15h1V14H12Z"/><path class="va116-5" d="M10,14v1h1V14Z"/><path class="va116-5" d="M18,14v1h1V14Z"/><path class="va116-5" d="M16,14v1h1V14Z"/><path class="va116-2" d="M11,14v1h1V14Z"/><path class="va116-2" d="M17,14v1h1V14Z"/><path class="va116-6" d="M19,13H18v1h1Z"/><polygon class="va116-6" points="17 12 16 12 16 13 18 13 18 12 17 12"/><path class="va116-6" d="M13,14V13H12v1Z"/><path class="va116-6" d="M10,12v1h2V12H10Z"/><path class="va116-7" d="M19,17v1H18v1H17v1h1v1h2V20h1V19H20V16H19Z"/><path class="va116-7" d="M9,21h2V20h1V19H11V18H10V16H9v3H8v1H9Z"/><rect class="va116-2" x="13" y="19" width="3" height="1"/><rect class="va116-2" x="16" y="18" width="1" height="1"/><path class="va116-8" d="M20,12V11H19v1Z"/><rect class="va116-8" x="18" y="10" width="1" height="1"/><path class="va116-8" d="M12,11h1V10h3v1h1V10h1V9H11v1h1Z"/><rect class="va116-8" x="17" y="11" width="1" height="1"/><path class="va116-8" d="M11,12h1V11H11Z"/><rect class="va116-8" x="10" y="10" width="1" height="1"/><path class="va116-8" d="M10,11H9v1h1Z"/><path class="va116-4" d="M7,24H8V22H6v2Z"/><path class="va116-9" d="M8,22V20H7v2Z"/><path class="va116-2" d="M7,21H6v1H7Z"/><path class="va116-2" d="M9,22H8v2H9Z"/><path class="va116-10" d="M4,17H2v4H4V17Z"/><path class="va116-11" d="M8,19V16H6v4H8Z"/><path class="va116-5" d="M6,16H5v1H4v4H5V20H6V16Z"/></svg>