<svg xmlns="http://www.w3.org/2000/svg" viewBox="0 0 29 33"><defs><style>polygon,rect,path{shape-rendering:crispedges;}.aa97-1{fill:#7a982c;}.aa97-2{fill:#000000;}.aa97-3{fill:#e8b795;}.aa97-4{fill:#ffffff;}.aa97-5{fill:#ff1d99;}.aa97-6{fill:#ffffff;}.aa97-7{fill:#7f5018;}.aa97-8{fill:#7f5018;}.aa97-9{fill:#ff1f4a;}.aa97-10{fill:#560000;}.aa97-11{fill:#f9e100;}.aa97-12{fill:#fafafa;}</style></defs><path class="aa97-1" d="M0,33H6V27H7V26H8V25h2V24h2V21H11V20H10V19H9V16H8V15H9V11h1V10h1V9h2V7h1V5h1V6h1V8h1V9h1v1h1v1h1v4h1v1H20v3H19v1H18v1H17v3h2V21h1V20h1V19h1V18h1v2h1v1h1v1h1v4H25v1H24v1H23v5h6V0H0Z"/><path class="aa97-2" d="M23,31V28h1V27H20v6h1V28h1v5h1Z"/><path class="aa97-3" d="M22,31V28H21v5h1Z"/><path class="aa97-4" d="M14,31v1h1V30H14Z"/><rect class="aa97-4" x="10" y="32" width="1" height="1"/><path class="aa97-4" d="M17,31V30h1V29h1v1h1V27H19V25H18v1H17v1H16v1H13V27H12V26H11V25H10v1H9v4h1V29h1v1h1v3h1V29h2v1h1v2H15v1h2Z"/><rect class="aa97-4" x="10" y="30" width="1" height="1"/><rect class="aa97-4" x="18" y="32" width="1" height="1"/><rect class="aa97-4" x="18" y="30" width="1" height="1"/><path class="aa97-2" d="M17,26h1V25h1V24H17Z"/><rect class="aa97-2" x="16" y="26" width="1" height="1"/><path class="aa97-2" d="M14,27H13v1h3V27Z"/><path class="aa97-2" d="M13,23h3v1h1V21H16v1H13V21H12v3h1Z"/><path class="aa97-3" d="M12,26h1v1h3V26h1V24H16V23H13v1H12Z"/><rect class="aa97-2" x="12" y="26" width="1" height="1"/><path class="aa97-2" d="M11,26h1V24H10v1h1Z"/><path class="aa97-2" d="M10,26V25H8v1Z"/><rect class="aa97-3" x="8" y="26" width="1" height="1"/><path class="aa97-2" d="M9,31V27H8v6H9Z"/><rect class="aa97-2" x="7" y="26" width="1" height="1"/><path class="aa97-3" d="M8,31V27H7v6H8Z"/><path class="aa97-2" d="M7,31V27H6v6H7Z"/><path class="aa97-5" d="M20,31V30H19v1H18V30H17v3h1V32h1v1h1Z"/><rect class="aa97-5" x="18" y="29" width="1" height="1"/><path class="aa97-5" d="M15,32h1V30H15Z"/><path class="aa97-5" d="M14,32V30h1V29H13v4h2V32Z"/><path class="aa97-5" d="M12,31V30H11v1H10V30H9v3h1V32h1v1h1Z"/><rect class="aa97-5" x="10" y="29" width="1" height="1"/><rect class="aa97-2" x="20" y="15" width="1" height="1"/><path class="aa97-2" d="M19,13v2h1V11H19Z"/><rect class="aa97-3" x="15" y="20" width="1" height="1"/><path class="aa97-3" d="M12,19V18h5v1h2V16h1V15H16V14h3V13H16V12h3V11H18V10H15v5H14v1h1v1H14V16H13v1H11V16H10v3Z"/><rect class="aa97-3" x="16" y="19" width="1" height="1"/><rect class="aa97-3" x="12" y="19" width="1" height="1"/><rect class="aa97-3" x="13" y="20" width="1" height="1"/><rect class="aa97-3" x="9" y="15" width="1" height="1"/><path class="aa97-2" d="M19,17v2h1V16H19Z"/><rect class="aa97-2" x="18" y="10" width="1" height="1"/><rect class="aa97-2" x="18" y="19" width="1" height="1"/><rect class="aa97-2" x="17" y="20" width="1" height="1"/><path class="aa97-2" d="M15,9v1h3V9Z"/><rect class="aa97-2" x="11" y="20" width="1" height="1"/><rect class="aa97-2" x="10" y="19" width="1" height="1"/><path class="aa97-2" d="M10,17V16H9v3h1Z"/><rect class="aa97-2" x="8" y="15" width="1" height="1"/><rect class="aa97-2" x="14" y="16" width="1" height="1"/><rect class="aa97-6" x="18" y="14" width="1" height="1"/><rect class="aa97-6" x="16" y="14" width="1" height="1"/><rect class="aa97-2" x="17" y="14" width="1" height="1"/><rect class="aa97-7" x="16" y="12" width="3" height="1"/><rect class="aa97-8" x="17" y="19" width="1" height="1"/><rect class="aa97-8" x="16" y="20" width="1" height="1"/><path class="aa97-8" d="M15,20H14v1H13v1h3V21H15Z"/><path class="aa97-8" d="M14,19h2V18H12v1Z"/><rect class="aa97-8" x="12" y="20" width="1" height="1"/><rect class="aa97-8" x="11" y="19" width="1" height="1"/><path class="aa97-2" d="M15,20h1V19H13v1Z"/><rect class="aa97-2" x="16" y="18" width="1" height="1"/><path class="aa97-9" d="M11,15h2V13H11Z"/><path class="aa97-10" d="M13,13v2h1V13Z"/><polygon class="aa97-10" points="12 15 11 15 11 16 13 16 13 15 12 15"/><path class="aa97-10" d="M11,14V13H10v2h1Z"/><rect class="aa97-10" x="11" y="12" width="2" height="1"/><rect class="aa97-2" x="10" y="15" width="1" height="1"/><rect class="aa97-2" x="11" y="16" width="2" height="1"/><rect class="aa97-2" x="13" y="15" width="1" height="1"/><path class="aa97-2" d="M10,14V13h1V12h2v1h1v2h1V10H14v1H13V9H11v1H10v1H9v4h1Z"/><path class="aa97-11" d="M13,11h1V10h1V9h2V8H16V6H15V5H14V7H13Z"/><rect class="aa97-12" x="23" y="23" width="1" height="1"/><rect class="aa97-12" x="20" y="23" width="1" height="1"/><path class="aa97-3" d="M20,25v1H19v1h5V26H21V25h3v1h1V24H23V23h2V22H24V21H23v1H22V21H20v2h2v1H19v1Z"/><path class="aa97-2" d="M23.25,25H21v1h3V25Z"/><rect class="aa97-2" x="21" y="23" width="1" height="1"/><path class="aa97-2" d="M24,23v1h1v2h1V22H25v1Z"/><path class="aa97-2" d="M20,23V21H19v3h1Z"/><rect class="aa97-2" x="20" y="20" width="1" height="1"/><rect class="aa97-2" x="23" y="20" width="1" height="1"/><rect class="aa97-2" x="24" y="21" width="1" height="1"/><rect class="aa97-2" x="24" y="26" width="1" height="1"/><path class="aa97-11" d="M22,21v1h1V18H22v1H21v2Z"/><rect class="aa97-2" x="19" y="25" width="1" height="1"/></svg>