<svg xmlns="http://www.w3.org/2000/svg" viewBox="0 0 29 33"><defs><style>polygon,rect,path{shape-rendering:crispedges;}.qa109-1{fill:#31a09d;}.qa109-2{fill:#000000;}.qa109-3{fill:#004a77;}.qa109-4{fill:#a56e49;}.qa109-5{fill:#ffffff;}.qa109-6{fill:#b23b00;}.qa109-7{fill:#b23b00;}.qa109-8{fill:#317f03;}</style></defs><path class="qa109-1" d="M6,32V27H7V26H8V25h2V24h1V23H10V22h1V20H9V18H8V13H9V11h1V10h1V9h7v1h1v1h1v1h1v6H20v2H18v2h1v1H18v1h1v1h2v1h1v1h1v6h6V0H0V33H6Z"/><path class="qa109-2" d="M23,27H22v6h1V27Z"/><path class="qa109-3" d="M22,27H21v6h1V27Z"/><rect class="qa109-2" x="21" y="26" width="1" height="1"/><path class="qa109-2" d="M21,27H20v6h1V27Z"/><path class="qa109-3" d="M20,27h1V26H19V25H18V24H16v1h1v5H16V25H13v5H12V25h1V24H11v1H10v1H8v1H9v6H20V27Z"/><path class="qa109-2" d="M20,26h1V25H19v1Z"/><rect class="qa109-2" x="18" y="24" width="1" height="1"/><rect class="qa109-2" x="18" y="22" width="1" height="1"/><rect class="qa109-3" x="17" y="22" width="1" height="1"/><path class="qa109-2" d="M13,24v1h3V24H13Z"/><path class="qa109-4" d="M15,23H13v1h3V23Z"/><path class="qa109-2" d="M13,23h3v1h2V23H17V22h1V20H17v1H16v1H13V21H12V20H11v2h1v1H11v1h2Z"/><rect class="qa109-3" x="11" y="22" width="1" height="1"/><rect class="qa109-2" x="10" y="24" width="1" height="1"/><rect class="qa109-2" x="10" y="22" width="1" height="1"/><path class="qa109-2" d="M10,25H8v1h2Z"/><path class="qa109-2" d="M9,27H8v6H9V27Z"/><path class="qa109-3" d="M8,27H7v6H8V27Z"/><rect class="qa109-2" x="7" y="26" width="1" height="1"/><path class="qa109-2" d="M7,27H6v6H7V27Z"/><path class="qa109-2" d="M12,26v4h1V25H12Z"/><path class="qa109-2" d="M16,30h1V25H16v5Z"/><rect class="qa109-2" x="19" y="14" width="1" height="1"/><rect class="qa109-4" x="9" y="15" width="1" height="1"/><rect class="qa109-4" x="17" y="11" width="1" height="1"/><path class="qa109-4" d="M13,14V13H11v1h2Z"/><rect class="qa109-4" x="17" y="13" width="1" height="1"/><rect class="qa109-4" x="19" y="15" width="1" height="1"/><path class="qa109-4" d="M12,19V18h5v2h1V19h1V18H18V15H16v1H15v1H14V16h1V14h1V12H15V11H14v4H13v2H12V15H11v3H10v1h1v1h1Z"/><path class="qa109-4" d="M13,20v2h3V20Z"/><path class="qa109-2" d="M19,16v2h1V16Z"/><path class="qa109-2" d="M18,19v1h1V19Z"/><path class="qa109-2" d="M10,19v1h1V19Z"/><path class="qa109-2" d="M10,17V16H9v2h1Z"/><rect class="qa109-2" x="14" y="16" width="1" height="1"/><path class="qa109-5" d="M16,14v1h1V14Z"/><path class="qa109-2" d="M12,14H11v1h2V14Z"/><path class="qa109-2" d="M17,14v1h1V14Z"/><path class="qa109-6" d="M13,12H11v1h2Z"/><rect class="qa109-6" x="17" y="12" width="1" height="1"/><path class="qa109-7" d="M13,19H12v2h1V19Z"/><path class="qa109-7" d="M13,18v1h3v2h1V18Z"/><path class="qa109-2" d="M16,20V19H13v1Z"/><path class="qa109-2" d="M13,18H12v1h1Z"/><path class="qa109-8" d="M9,15h1v3h1V12h2v3h1V11h1v1h1v2h1V11h1v7h1V14h1v4h1V12H20V11H19V10H18V9H11v1H10v1H9v2H8v5H9V15Z"/><path class="qa109-8" d="M19,19v1h1V18H19Z"/><path class="qa109-8" d="M15,14v2h1V14Z"/><path class="qa109-8" d="M12,16v1h1V15H12Z"/><path class="qa109-8" d="M10,18H9v2h1V18Z"/></svg>