<svg xmlns="http://www.w3.org/2000/svg" viewBox="0 0 29 33"><defs><style>polygon,rect,path{shape-rendering:crispedges;}.ua112-1{fill:#000000;}.ua112-2{fill:#cbed03;}.ua112-3{fill:#ce8452;}.ua112-4{fill:#ffffff;}.ua112-5{fill:#473a35;}.ua112-6{fill:#cbed03;}.ua112-7{fill:#7a982c;}</style></defs><path class="ua112-1" d="M23,27H22v6h1V27Z"/><path class="ua112-2" d="M22,27H21v6h1V27Z"/><rect class="ua112-1" x="21" y="26" width="1" height="1"/><path class="ua112-1" d="M21,27H20v6h1V27Z"/><path class="ua112-2" d="M20,27h1V26H19V25H18V24H16v1h1v5H16V25H13v5H12V25h1V24H11v1H10v1H8v1H9v6H20V27Z"/><path class="ua112-1" d="M20,26h1V25H19v1Z"/><rect class="ua112-1" x="18" y="24" width="1" height="1"/><path class="ua112-1" d="M16,24h2V23H16Z"/><path class="ua112-1" d="M13,24v1h3V24H13Z"/><path class="ua112-3" d="M15,23H13v1h3V23Z"/><path class="ua112-1" d="M13,23H11v1h2Z"/><rect class="ua112-1" x="10" y="24" width="1" height="1"/><path class="ua112-1" d="M10,25H8v1h2Z"/><path class="ua112-1" d="M9,27H8v6H9V27Z"/><path class="ua112-2" d="M8,27H7v6H8V27Z"/><rect class="ua112-1" x="7" y="26" width="1" height="1"/><path class="ua112-1" d="M7,27H6v6H7V27Z"/><path class="ua112-1" d="M12,26v4h1V25H12Z"/><path class="ua112-1" d="M16,30h1V25H16v5Z"/><path class="ua112-3" d="M16,22V21h1V20h1V19h1V15H16V14h2V13H16V12h1V11H12v2h1v2H10v4h1v1h1v1h1v1h3Zm-2-6h1v1H14Zm0,3h1v1H14Z"/><rect class="ua112-3" x="11" y="13" width="1" height="1"/><rect class="ua112-1" x="14" y="16" width="1" height="1"/><path class="ua112-4" d="M18,14v1h1V14Z"/><path class="ua112-4" d="M12,15h1V14H12Z"/><path class="ua112-1" d="M17,14H16v1h2V14Z"/><polygon class="ua112-5" points="17 12 16 12 16 13 18 13 18 12 17 12"/><path class="ua112-5" d="M13,14V13H12v1Z"/><path class="ua112-5" d="M11,13h1V12H11Z"/><path class="ua112-6" d="M11,14V12H10v2Z"/><path class="ua112-6" d="M18,13v1h1V12H18Z"/><path class="ua112-2" d="M13,22H12V21H11V20H10V19H9V12h1V11h2V10h5v1h2v1h1v7H19v1H18v1H17v1H16v1h2V22h1V21h1V20h1V11H20V10H19V9H18V8H11V9H10v1H9v1H8v9H9v1h1v1h1v1h2Z"/><rect class="ua112-1" x="10" y="8" width="1" height="1"/><rect class="ua112-1" x="9" y="9" width="1" height="1"/><rect class="ua112-1" x="8" y="10" width="1" height="1"/><path class="ua112-1" d="M8,11H7v9H8V11Z"/><rect class="ua112-1" x="8" y="20" width="1" height="1"/><rect class="ua112-1" x="9" y="21" width="1" height="1"/><rect class="ua112-1" x="10" y="22" width="1" height="1"/><rect class="ua112-1" x="18" y="22" width="1" height="1"/><rect class="ua112-1" x="19" y="21" width="1" height="1"/><rect class="ua112-1" x="20" y="20" width="1" height="1"/><path class="ua112-1" d="M21,20h1V11H21v9Z"/><rect class="ua112-1" x="20" y="10" width="1" height="1"/><rect class="ua112-1" x="19" y="9" width="1" height="1"/><rect class="ua112-1" x="18" y="8" width="1" height="1"/><path class="ua112-1" d="M18,8V7H11V8h7Z"/><path class="ua112-1" d="M12,12V11H10v1h2Z"/><path class="ua112-1" d="M10,15h2V14H10V12H9v7h1V15Z"/><rect class="ua112-1" x="10" y="19" width="1" height="1"/><rect class="ua112-1" x="11" y="20" width="1" height="1"/><rect class="ua112-1" x="12" y="21" width="1" height="1"/><path class="ua112-1" d="M16,23V22H13v1h3Z"/><rect class="ua112-1" x="16" y="21" width="1" height="1"/><rect class="ua112-1" x="17" y="20" width="1" height="1"/><rect class="ua112-1" x="18" y="19" width="1" height="1"/><path class="ua112-1" d="M19,15v4h1V12H19v3Z"/><path class="ua112-1" d="M18,12h1V11H17v1Z"/><path class="ua112-1" d="M17,11V10H12v1h5Z"/><path class="ua112-7" d="M0,7V33H6V27H7V26H8V25h2V24h1V23H10V22H9V21H8V20H7V11H8V10H9V9h1V8h1V7h7V8h1V9h1v1h1v1h1v9H21v1H20v1H19v1H18v1h1v1h2v1h1v1h1v6h6V0H0Z"/><rect class="ua112-1" x="14" y="19" width="1" height="1"/></svg>