<svg xmlns="http://www.w3.org/2000/svg" viewBox="0 0 29 33"><defs><style>polygon,rect,path{shape-rendering:crispedges;}.ca9-1{fill:#397d98;}.ca9-2{fill:#000000;}.ca9-3{fill:#a56e49;}.ca9-4{fill:#dbc6d2;}.ca9-5{fill:#492a23;}.ca9-6{fill:#99004d;}</style></defs><path class="ca9-1" d="M6,32V27H7V26H8V25h2V24h2V22H11V21H10v1H9V21H8V20H7V19H8V12H9V10h1V9h1V8h7V9h1v1h1v2h1v7h1v1H21v1H20v1H19V21H18v1H17v2h2v1h2v1h1v1h1v6h6V0H0V33H6Z"/><path class="ca9-2" d="M23,27H22v6h1V27Z"/><rect class="ca9-2" x="21" y="26" width="1" height="1"/><path class="ca9-3" d="M22,27H21v6h1V27Z"/><rect class="ca9-3" x="20" y="26" width="1" height="1"/><path class="ca9-2" d="M21,27H20v6h1V27Z"/><path class="ca9-2" d="M20,26h1V25H19v1Z"/><path class="ca9-4" d="M20,27V26H19V25H18v1H17v1H16v1H13V27H12V26H11V25H10v1H9v7H20V27Z"/><path class="ca9-2" d="M18,26V25h1V24H17v2Z"/><rect class="ca9-2" x="16" y="26" width="1" height="1"/><path class="ca9-2" d="M13,27v1h3V27H13Z"/><path class="ca9-2" d="M13,23h3v1h1V21H16v1H13V21H12v3h1Z"/><path class="ca9-3" d="M13,26v1h3V26h1V24H16V23H13v1H12v2Z"/><rect class="ca9-2" x="12" y="26" width="1" height="1"/><path class="ca9-2" d="M11,26h1V24H10v1h1Z"/><path class="ca9-2" d="M10,26V25H8v1h2Z"/><path class="ca9-3" d="M9,27V26H8v1Z"/><path class="ca9-2" d="M9,27H8v6H9V27Z"/><rect class="ca9-2" x="7" y="26" width="1" height="1"/><path class="ca9-3" d="M8,27H7v6H8V27Z"/><path class="ca9-2" d="M7,27H6v6H7V27Z"/><path class="ca9-2" d="M20,16h1V15H20Z"/><rect class="ca9-3" x="9" y="15" width="1" height="1"/><rect class="ca9-3" x="19" y="15" width="1" height="1"/><rect class="ca9-3" x="17" y="13" width="1" height="1"/><path class="ca9-3" d="M16,14V13h1V11H16V10H13v1H12v1h1v1H11v1h5Z"/><rect class="ca9-3" x="14" y="15" width="1" height="1"/><path class="ca9-3" d="M18,20V19h1V16H18v1H16V16H15v1H14V16H13v1H11V16H10v3h1v1h1v1h1v1h3V21h1V20Zm-2-1v1H13V19H12V18h5v1Z"/><path class="ca9-2" d="M19,17v2h1V16H19Z"/><rect class="ca9-2" x="18" y="19" width="1" height="1"/><rect class="ca9-2" x="17" y="20" width="1" height="1"/><rect class="ca9-2" x="11" y="20" width="1" height="1"/><rect class="ca9-2" x="10" y="19" width="1" height="1"/><path class="ca9-2" d="M10,16H9v3h1V16Z"/><path class="ca9-2" d="M9,15H8v1H9Z"/><rect class="ca9-2" x="14" y="16" width="1" height="1"/><path class="ca9-5" d="M13,12H11v1h2Z"/><rect class="ca9-5" x="16" y="13" width="1" height="1"/><path class="ca9-5" d="M18,13V12H17v1Z"/><polygon class="ca9-2" points="17 18 12 18 12 19 13 19 13 20 16 20 16 19 17 19 17 18"/><path class="ca9-6" d="M20,17v2H19v1H18v1h1v1h1V21h1V20h1V19H21V16H20Z"/><path class="ca9-6" d="M9,14h2V12h1V11h1V10h3v1h1v1h1v2h2v1h1V12H20V10H19V9H18V8H11V9H10v1H9v2H8v3H9Z"/><path class="ca9-6" d="M10,20V19H9V16H8v3H7v1H8v1H9v1h1V21h1V20Z"/><path class="ca9-6" d="M11,21v1h1V21Z"/><path class="ca9-6" d="M17,22h1V21H17Z"/><path class="ca9-2" d="M10,16h1v1h2V16h1V15h1v1h1v1h2V16h1V15h1V14H9v1h1Z"/></svg>