<svg xmlns="http://www.w3.org/2000/svg" viewBox="0 0 29 33"><defs><style>polygon,rect,path{shape-rendering:crispedges;}.ka261-1{fill:#6b4f99;}.ka261-2{fill:#000000;}.ka261-3{fill:#45ba00;}.ka261-4{fill:#225600;}.ka261-5{fill:#e8b795;}.ka261-6{fill:#663228;}.ka261-7{fill:#663228;}.ka261-8{fill:#ffffff;}</style></defs><path class="ka261-1" d="M0,33H6V27H7V26H8V25h2V24h2V22H11V21H10V20H9V16H8V14H9V11h1V10h1V9h7v1h1v1h1v3h1v2H20v4H19v1H18v1H17v2h2v1h2v1h1v1h1v6h6V0H0Z"/><path class="ka261-2" d="M23,27H22v6h1V27Z"/><rect class="ka261-2" x="21" y="26" width="1" height="1"/><path class="ka261-3" d="M21,28v2h1V27H21Z"/><path class="ka261-3" d="M21,31v2h1V31Z"/><path class="ka261-2" d="M21,30V27H20v6h1V30Z"/><path class="ka261-2" d="M20,26h1V25H19v1Z"/><path class="ka261-3" d="M20,32V26H19V25H17V24H16V23H13v1H12v1H10v1H9v6h1v1h4V32h1v1h4V32Zm-9-3H10V28h1Zm2,2H12V30h1Zm0-4H12V26h1Zm2,2H14V28h1Zm0-4H14V24h1Zm2,6H16V30h1Zm0-4H16V26h1Zm1,2V28h1v1Z"/><path class="ka261-2" d="M18,25h1V24H17v1Z"/><path class="ka261-2" d="M13,23V22H12v2h1Z"/><path class="ka261-2" d="M12,24H10v1h2Z"/><path class="ka261-2" d="M10,26V25H8v1h2Z"/><path class="ka261-2" d="M9,31V27H8v6H9V31Z"/><rect class="ka261-2" x="7" y="26" width="1" height="1"/><path class="ka261-3" d="M7,30H8V27H7v3Z"/><path class="ka261-3" d="M7,31v2H8V31Z"/><path class="ka261-2" d="M7,30V27H6v6H7V30Z"/><rect class="ka261-4" x="10" y="28" width="1" height="1"/><rect class="ka261-4" x="12" y="30" width="1" height="1"/><rect class="ka261-4" x="14" y="28" width="1" height="1"/><rect class="ka261-4" x="14" y="32" width="1" height="1"/><rect class="ka261-4" x="12" y="26" width="1" height="1"/><rect class="ka261-4" x="16" y="30" width="1" height="1"/><rect class="ka261-4" x="18" y="28" width="1" height="1"/><rect class="ka261-4" x="16" y="26" width="1" height="1"/><rect class="ka261-4" x="14" y="24" width="1" height="1"/><path class="ka261-4" d="M9,27V26H8v1Z"/><path class="ka261-4" d="M19,32v1h1V32Z"/><path class="ka261-4" d="M9,32v1h1V32Z"/><path class="ka261-4" d="M7,31H8V30H7Z"/><path class="ka261-4" d="M21,31h1V30H21Z"/><path class="ka261-4" d="M20,27h1V26H20Z"/><path class="ka261-2" d="M20,16h1V15H20Z"/><path class="ka261-2" d="M19,14h1V11H19v3Z"/><path class="ka261-5" d="M16,17V16H15v1H14V16H13v1H10v1h1v1h1V18h2v1h1V18h2v1h1V18h1V17H16Z"/><rect class="ka261-5" x="14" y="15" width="1" height="1"/><rect class="ka261-5" x="13" y="20" width="1" height="1"/><path class="ka261-5" d="M12,12v1h1v1h3V12h2v1h1V11H18V10H11v1H10v1Z"/><rect class="ka261-5" x="15" y="20" width="1" height="1"/><rect class="ka261-2" x="18" y="10" width="1" height="1"/><path class="ka261-2" d="M16,23v1h1V22H16Z"/><path class="ka261-2" d="M18,10V9H11v1h7Z"/><rect class="ka261-2" x="10" y="10" width="1" height="1"/><path class="ka261-2" d="M10,13V11H9v3h1Z"/><path class="ka261-2" d="M8,15v1H9V15Z"/><rect class="ka261-2" x="14" y="16" width="1" height="1"/><path class="ka261-6" d="M18,12H16v1h2Z"/><path class="ka261-6" d="M12,12H10v1h2Z"/><path class="ka261-7" d="M13,23h3V22h2V21h1V20h1V16H19v2H18v1H17V18H15v1h1v2H15V20H14v1H13V19h1V18H12v1H11V18H10V16H9v4h1v1h1v1h2Z"/><path class="ka261-2" d="M13,19v1h3V19H13Z"/><path class="ka261-8" d="M19,15v1h1V15h1V14H19Z"/><path class="ka261-8" d="M19,14V13H16v1h3Z"/><path class="ka261-2" d="M19,14H16v2h3V14Z"/><path class="ka261-8" d="M16,16v1h3V16H16Z"/><path class="ka261-8" d="M14,16V15h1v1h1V14H13v2Z"/><path class="ka261-8" d="M13,14V13H10v1h3Z"/><path class="ka261-2" d="M13,16V14H10v2h3Z"/><path class="ka261-8" d="M13,17V16H10v1h3Z"/><path class="ka261-8" d="M10,15V14H8v1H9v1h1Z"/></svg>