<svg xmlns="http://www.w3.org/2000/svg" viewBox="0 0 29 33"><defs><style>polygon,rect,path{shape-rendering:crispedges;}.pa259-1{fill:#d4a122;}.pa259-2{fill:#000000;}.pa259-3{fill:#d2d8b8;}.pa259-4{fill:#a56e49;}.pa259-5{fill:#8c7850;}.pa259-6{fill:#ffffff;}.pa259-7{fill:#000000;}.pa259-8{fill:#000000;}.pa259-9{fill:#cc3232;}</style></defs><path class="pa259-1" d="M0,33H6V27H7V26H8V25h2V24h1V23H10V22h1V21H9V20H8V19H9V18H8V13H9V11h1V10h1V9h7v1h1v1h1v1h1v6H20v1h1v1H20v1H18v1h1v1H18v1h1v1h2v1h1v1h1v6h6V0H0Z"/><path class="pa259-2" d="M23,27H22v6h1V27Z"/><path class="pa259-3" d="M22,27H21v6h1V27Z"/><rect class="pa259-2" x="21" y="26" width="1" height="1"/><path class="pa259-2" d="M21,27H20v6h1V27Z"/><path class="pa259-3" d="M20,27h1V26H19V25H18V24H16v1h1v3h2v1H17v2h1V30h1v2H16V25H13v3h2v4H12V25h1V24H11v1H10v1H8v1H9v6H20V27Zm-9,2v3H10V28h1Z"/><path class="pa259-2" d="M20,26h1V25H19v1Z"/><rect class="pa259-2" x="18" y="24" width="1" height="1"/><rect class="pa259-2" x="18" y="22" width="1" height="1"/><rect class="pa259-3" x="17" y="22" width="1" height="1"/><path class="pa259-2" d="M13,24v1h3V24H13Z"/><path class="pa259-4" d="M15,23H13v1h3V23Z"/><path class="pa259-2" d="M13,23h3v1h2V23H17V22h1V20H17v1H16v1H13V21H12V20H11v2h1v1H11v1h2Z"/><rect class="pa259-3" x="11" y="22" width="1" height="1"/><rect class="pa259-2" x="10" y="24" width="1" height="1"/><rect class="pa259-2" x="10" y="22" width="1" height="1"/><path class="pa259-2" d="M10,25H8v1h2Z"/><path class="pa259-2" d="M9,27H8v6H9V27Z"/><path class="pa259-3" d="M8,27H7v6H8V27Z"/><rect class="pa259-2" x="7" y="26" width="1" height="1"/><path class="pa259-2" d="M7,27H6v6H7V27Z"/><path class="pa259-3" d="M14,31V29H13v2Z"/><path class="pa259-5" d="M14,29v2H13V30H12v2h3V28H13v1Z"/><path class="pa259-5" d="M10,29v3h1V28H10Z"/><path class="pa259-5" d="M18,29h1V28H17v1Z"/><path class="pa259-5" d="M16,31v1h3V30H18v1H17V30H16Z"/><path class="pa259-2" d="M12,26v4h1V25H12Z"/><path class="pa259-2" d="M16,30h1V25H16v5Z"/><rect class="pa259-2" x="19" y="14" width="1" height="1"/><rect class="pa259-4" x="17" y="11" width="1" height="1"/><path class="pa259-4" d="M16,19v1H13V19h3V18h1v1h1V15H16v1H15v1H14V16h1V14h1V12H15V11H14v4H13v2H12V15H11v4h1v2h1v1h3V21h1V19Z"/><rect class="pa259-4" x="11" y="13" width="1" height="1"/><rect class="pa259-4" x="9" y="15" width="1" height="1"/><rect class="pa259-4" x="12" y="12" width="1" height="1"/><rect class="pa259-4" x="19" y="15" width="1" height="1"/><rect class="pa259-4" x="17" y="13" width="1" height="1"/><rect class="pa259-2" x="14" y="16" width="1" height="1"/><rect class="pa259-6" x="12" y="14" width="1" height="1"/><path class="pa259-2" d="M17,15h1V14H16v1Z"/><rect class="pa259-2" x="11" y="14" width="1" height="1"/><rect class="pa259-7" x="17" y="12" width="1" height="1"/><rect class="pa259-7" x="12" y="13" width="1" height="1"/><rect class="pa259-7" x="11" y="12" width="1" height="1"/><rect class="pa259-8" x="20" y="19" width="1" height="1"/><path class="pa259-8" d="M19,16v2h1V16Z"/><path class="pa259-8" d="M19,19V18H18v1H17v1h1v1h2V20H19Z"/><rect class="pa259-8" x="8" y="19" width="1" height="1"/><path class="pa259-8" d="M12,20V19H11V18H10v2H9v1h2V20Z"/><path class="pa259-8" d="M10,17V16H9v2h1Z"/><rect class="pa259-2" x="13" y="19" width="3" height="1"/><rect class="pa259-2" x="16" y="18" width="1" height="1"/><path class="pa259-9" d="M9,15h1v3h1V12h2v3h1V11h1v1h1v2h1V11h1v7h1V14h1v4h1V12H20V11H19V10H18V9H11v1H10v1H9v2H8v5H9V15Z"/><polygon class="pa259-9" points="19 19 19 20 20 20 20 19 20 18 19 18 19 19"/><path class="pa259-9" d="M15,15v1h1V14H15Z"/><path class="pa259-9" d="M12,16v1h1V15H12Z"/><path class="pa259-9" d="M10,19V18H9v2h1Z"/></svg>