<svg xmlns="http://www.w3.org/2000/svg" viewBox="0 0 29 33"><defs><style>polygon,rect,path{shape-rendering:crispedges;}.va183-1{fill:#e55b35;}.va183-2{fill:#000000;}.va183-3{fill:#5a2de2;}.va183-4{fill:#6d3e35;}.va183-5{fill:#9b8100;}.va183-6{fill:#ffffff;}.va183-7{fill:#893a1f;}.va183-8{fill:#893a1f;}.va183-9{fill:#0068ff;}.va183-10{fill:#00bc55;}.va183-11{fill:#cc3232;}</style></defs><path class="va183-1" d="M6,32V27H7V26H8V25h2V22h1V21H10V20H9V16H8V15H9V11h1V10h1V9h7v1h1v1h1v4h1v1H20v4H19v1H18v1h1v1h1V22h3v1h1v3H23v7h6V0H0V33H6Z"/><path class="va183-2" d="M23,26H22v7h1V26Z"/><path class="va183-2" d="M7,31V27H6v6H7V31Z"/><rect class="va183-2" x="7" y="26" width="1" height="1"/><path class="va183-3" d="M7,30v1H8V29H7Z"/><path class="va183-3" d="M8,28V27H7v1Z"/><path class="va183-3" d="M7,32v1H8V32Z"/><path class="va183-2" d="M21,31V26H20v5H14V27H13v4H9V27H8v6H9V32H20v1h1V31Z"/><path class="va183-2" d="M10,25H8v1h2Z"/><path class="va183-3" d="M17,32H15v1h3V32Z"/><path class="va183-3" d="M19,32v1h1V32Z"/><path class="va183-3" d="M9,32v1h1V32Z"/><path class="va183-3" d="M13,32H11v1h3V32Z"/><path class="va183-2" d="M11,24V22H10v3h1Z"/><path class="va183-3" d="M9,27v1h1v1H9v2h1V30h1v1h2V30H12V29H11V28h1V27h2V26H13V24H12V23H11v2h1v1H11v1H10V26H8v1Z"/><path class="va183-2" d="M14,24H13v1h1Z"/><path class="va183-2" d="M15,26V25H14v2h1Z"/><path class="va183-4" d="M14,25h1V24h1V23H13v1h1Z"/><rect class="va183-2" x="15" y="24" width="1" height="1"/><path class="va183-2" d="M18,24v1h1V22H18v2Z"/><path class="va183-3" d="M19,27H18V26H17V25h1V23H17v1H16v2H15v1H14v3h1v1h3V30h1v1h1V29H19V28h1V26H19Zm-1,2H17v1H16V29H15V28h1V27h1v1h1Z"/><path class="va183-3" d="M21,32v1h1V32Z"/><path class="va183-3" d="M21,30v1h1V29H21Z"/><path class="va183-3" d="M21,28h1V27H21Z"/><rect class="va183-2" x="20" y="15" width="1" height="1"/><path class="va183-4" d="M18,15H15v2H14V15H13v1H11v1H10v1h1v2h1v1h1v1h3V21h1V20h1V18h1V16h1V15H18Zm-2,5H13V19H12V18h1v1h3Z"/><rect class="va183-4" x="9" y="15" width="1" height="1"/><path class="va183-2" d="M19,17h1V16H19Z"/><path class="va183-2" d="M12,23v1h1V23h3v1h1V22h1V21H16v1H13V21H11v1h1Z"/><path class="va183-2" d="M10,16H9v1h1Z"/><rect class="va183-2" x="8" y="15" width="1" height="1"/><path class="va183-2" d="M15,17V16H14v1Z"/><path class="va183-5" d="M10,30v1h1V30Z"/><path class="va183-5" d="M10,32v1h1V32Z"/><path class="va183-5" d="M12,28H11v1h1v1h1V27H12Z"/><polygon class="va183-5" points="10 27 11 27 11 26 12 26 12 25 11 25 10 25 10 26 10 27"/><path class="va183-5" d="M15,26h1V25H15Z"/><path class="va183-5" d="M13,25v1h1V25Z"/><polygon class="va183-5" points="17 27 16 27 16 28 15 28 15 29 16 29 16 30 17 30 17 29 18 29 18 28 17 28 17 27"/><path class="va183-5" d="M17,26h1v1h1V25H17Z"/><path class="va183-5" d="M7,29H8V28H7Z"/><path class="va183-5" d="M10,28H9v1h1Z"/><path class="va183-5" d="M21,29h1V28H21Z"/><path class="va183-5" d="M19,29h1V28H19Z"/><path class="va183-5" d="M21,32h1V31H21Z"/><path class="va183-5" d="M7,32H8V31H7Z"/><path class="va183-5" d="M14,30v1h1V30Z"/><path class="va183-5" d="M14,32v1h1V32Z"/><path class="va183-5" d="M18,30v1h1V30Z"/><path class="va183-5" d="M18,32v1h1V32Z"/><path class="va183-5" d="M12,23V22H11v1Z"/><path class="va183-5" d="M17,23h1V22H17Z"/><path class="va183-6" d="M19,15V14H18v1Z"/><path class="va183-6" d="M17,14H16v1h1Z"/><path class="va183-2" d="M18,15V14H17v1Z"/><rect class="va183-7" x="16" y="13" width="1" height="1"/><path class="va183-8" d="M19,18H18v2H17v1h2V20h1V17H19Z"/><path class="va183-8" d="M12,20H11V18H10V17H9v3h1v1h2Z"/><rect class="va183-2" x="13" y="19" width="3" height="1"/><rect class="va183-2" x="12" y="18" width="1" height="1"/><path class="va183-9" d="M10,16v1h1V16h2V15h1v1h1V15h1V13h1v1h2v1h1V11H19V10H18V9H11v1H10v1H9v4h1Z"/><path class="va183-10" d="M21,24h1V23h1V22H20v1h1Z"/><path class="va183-10" d="M20,25V23H19v2Z"/><path class="va183-2" d="M21,24V23H20v1Z"/><rect class="va183-2" x="22" y="23" width="1" height="1"/><path class="va183-10" d="M23,25h1V23H23v2Z"/><path class="va183-4" d="M22,25H20v1h1v1h1V26h1V25Z"/><path class="va183-11" d="M23,25V24H20v1h3Z"/><path class="va183-2" d="M23,26h1V25H23Z"/><path class="va183-2" d="M19,25v1h1V25Z"/></svg>