<svg xmlns="http://www.w3.org/2000/svg" viewBox="0 0 29 33"><defs><style>polygon,rect,path{shape-rendering:crispedges;}.ea209-1{fill:#b4bd09;}.ea209-2{fill:#000000;}.ea209-3{fill:#ff6c77;}.ea209-4{fill:#ce8452;}.ea209-5{fill:#ff6c77;}.ea209-6{fill:#ffffff;}.ea209-7{fill:#6f7032;}.ea209-8{fill:#5a2de2;}.ea209-9{fill:#cbed03;}.ea209-10{fill:#304400;}</style></defs><path class="ea209-1" d="M6,32V27H7V26H8V25h2V24h2V21H11V20H9V18H8V13H9V11h1V10h1V9h7v1h1v1h1v1h1v6H20v2H18v1H17v3h2v1h2v1h1v1h1v6h6V0H0V33H6Z"/><path class="ea209-2" d="M23,27H22v3H21V27H20v6h1V31h1v2h1V27Z"/><rect class="ea209-2" x="21" y="26" width="1" height="1"/><path class="ea209-3" d="M21,28v2h1V27H21Z"/><path class="ea209-4" d="M21,31v2h1V31Z"/><path class="ea209-2" d="M20,26h1V25H19v1Z"/><path class="ea209-3" d="M20,27h1V26H19V25H17v1H16v1H13V26H12V25H10v1H8v1H9v6H20V27Zm-9,2v3H10V28h1Zm4,3H12V28h3Zm4-3H17v2h1V30h1v2H16V28h3Z"/><rect class="ea209-3" x="13" y="29" width="1" height="2"/><path class="ea209-2" d="M18,25h1V24H17v1Z"/><rect class="ea209-2" x="16" y="25" width="1" height="1"/><path class="ea209-2" d="M13,26v1h3V26H13Z"/><path class="ea209-2" d="M13,23h3v1h1V21H16v1H13V21H12v3h1Z"/><path class="ea209-4" d="M13,25v1h3V25h1V24H16V23H13v1H12v1Z"/><rect class="ea209-2" x="12" y="25" width="1" height="1"/><path class="ea209-2" d="M12,24H10v1h2Z"/><path class="ea209-2" d="M10,25H8v1h2Z"/><path class="ea209-2" d="M9,27H8v3H7V27H6v6H7V31H8v2H9V27Z"/><rect class="ea209-2" x="7" y="26" width="1" height="1"/><path class="ea209-3" d="M7,30H8V27H7v3Z"/><path class="ea209-4" d="M7,31v2H8V31Z"/><path class="ea209-5" d="M12,32h3V28H12Zm1-3h1v2H13Z"/><path class="ea209-5" d="M10,29v3h1V28H10Z"/><path class="ea209-5" d="M16,28v4h3V30H18v1H17V29h2V28H16Z"/><rect class="ea209-2" x="19" y="14" width="1" height="1"/><rect class="ea209-4" x="19" y="15" width="1" height="1"/><path class="ea209-4" d="M13,22h3V21h1V20h1V19h1V18H18V16H15v1H14V16H13v1H11v1H10v1h1v1h1v1h1Zm-1-3V18h1v1h3v1H13V19Z"/><rect class="ea209-4" x="17" y="13" width="1" height="1"/><polygon class="ea209-4" points="16 13 16 12 15 12 15 14 16 14 16 13"/><rect class="ea209-4" x="9" y="15" width="1" height="1"/><rect class="ea209-4" x="14" y="15" width="1" height="1"/><rect class="ea209-4" x="17" y="11" width="1" height="1"/><path class="ea209-2" d="M19,16v2h1V16Z"/><path class="ea209-2" d="M18,19v1h1V19Z"/><rect class="ea209-2" x="17" y="20" width="1" height="1"/><rect class="ea209-2" x="11" y="20" width="1" height="1"/><path class="ea209-2" d="M10,19v1h1V19Z"/><path class="ea209-2" d="M10,17V16H9v2h1Z"/><rect class="ea209-2" x="14" y="16" width="1" height="1"/><path class="ea209-6" d="M16,14v2h1V14Z"/><path class="ea209-2" d="M17,14v2h1V14Z"/><rect class="ea209-7" x="17" y="12" width="1" height="1"/><rect class="ea209-2" x="13" y="19" width="3" height="1"/><rect class="ea209-2" x="12" y="18" width="1" height="1"/><path class="ea209-8" d="M9,15V13H8v5H9V15Z"/><path class="ea209-8" d="M15,12h1v2h1V11h1v7h1V14h1v4h1V12H20V11H19V10H18V9H15v3Z"/><path class="ea209-8" d="M10,16v2h1V16Z"/><path class="ea209-8" d="M19,19v1h1V18H19Z"/><path class="ea209-8" d="M15,14v2h1V14Z"/><path class="ea209-8" d="M10,18H9v2h1V18Z"/><path class="ea209-9" d="M11,15h2V13H11v2Z"/><path class="ea209-10" d="M14,15V13H13v2Z"/><path class="ea209-10" d="M12,15H11v1h2V15Z"/><path class="ea209-10" d="M11,14V13H10v2h1Z"/><path class="ea209-10" d="M13,12H11v1h2Z"/><rect class="ea209-2" x="10" y="15" width="1" height="1"/><path class="ea209-2" d="M11,17h2V16H11Z"/><rect class="ea209-2" x="13" y="15" width="1" height="1"/><path class="ea209-2" d="M10,15V13h1V12h2v1h1v2h1V9H11v1H10v1H9v4Z"/></svg>