<svg xmlns="http://www.w3.org/2000/svg" viewBox="0 0 29 33"><defs><style>polygon,rect,path{shape-rendering:crispedges;}.ua263-1{fill:#31a09d;}.ua263-2{fill:#000000;}.ua263-3{fill:#ff1d99;}.ua263-4{fill:#ce8452;}.ua263-5{fill:#7f5018;}.ua263-6{fill:#ff5e17;}</style></defs><rect class="ua263-1" x="10" y="22" width="1"/><path class="ua263-1" d="M15,22h0Z"/><rect class="ua263-1" x="11" y="20" width="1"/><polygon class="ua263-1" points="17 20 18 20 18 20 17 20 17 21 17 21 17 20"/><rect class="ua263-1" x="16" y="21" width="1"/><path class="ua263-1" d="M21,14V12h0v3h0Z"/><rect class="ua263-1" x="12" y="21" width="1"/><polygon class="ua263-1" points="18 20 18 20 18 19 19 19 19 19 18 19 18 20"/><polygon class="ua263-1" points="19 21 19 22 18 22 18 22 19 22 19 21 19 21"/><rect class="ua263-1" x="14" y="16" width="1"/><rect class="ua263-1" x="8" y="20" width="1"/><rect class="ua263-1" x="10" y="19" width="1"/><path class="ua263-1" d="M21,16h0v4h0V16Z"/><path class="ua263-2" d="M23,27H22v6h1V27Z"/><path class="ua263-3" d="M22,27H21v6h1V27Z"/><rect class="ua263-2" x="21" y="26" width="1" height="1"/><path class="ua263-2" d="M21,27H20v6h1V27Z"/><path class="ua263-3" d="M20,27h1V26H19V25H18V24H16v1h1v5H16V25H13v5H12V25h1V24H11v1H10v1H8v1H9v6H20V27Z"/><path class="ua263-2" d="M20,26h1V25H19v1Z"/><rect class="ua263-2" x="18" y="24" width="1" height="1"/><rect class="ua263-2" x="18" y="22"/><path class="ua263-2" d="M13,24v1h3V24H13Z"/><path class="ua263-4" d="M15,23H13v1h3V23Z"/><path class="ua263-2" d="M13,23h3v1h2V23H16V22H13v1H11v1h2Z"/><path class="ua263-3" d="M12,23h1V22H12V21H11V20H10V19H9V12h1V11h2V10h5v1h2v1h1v7H19v1H18v1H17v1H16v1h2V22h1V21h1V20h1V12h0V11H20V10H19V9H18V8H11V9H10v1H9v1H8v9H9v1h1v1h1v1Z"/><rect class="ua263-2" x="10" y="24" width="1" height="1"/><path class="ua263-2" d="M10,25H8v1h2Z"/><path class="ua263-2" d="M9,27H8v6H9V27Z"/><path class="ua263-3" d="M8,27H7v6H8V27Z"/><rect class="ua263-2" x="7" y="26" width="1" height="1"/><path class="ua263-2" d="M7,27H6v6H7V27Z"/><path class="ua263-2" d="M12,26v4h1V25H12Z"/><path class="ua263-2" d="M16,30h1V25H16v5Z"/><rect class="ua263-4" x="18" y="13" width="1"/><path class="ua263-4" d="M17,11H14v1H13v1h3V12h1Z"/><rect class="ua263-4" x="18" y="13" height="1"/><path class="ua263-4" d="M11,19v1h1v1h1v1h3V21h1V20h1V19h1V15H18v1H16V15H15V14H14v1H13v1H11V15H10v4Zm3-2V16h1v1H14Zm-1,2h3v1H13Z"/><polygon class="ua263-2" points="15 17 15 16 14 16 14 17 14 17 15 17 15 17"/><rect class="ua263-5" x="18" y="13" width="1" height="1"/><rect class="ua263-5" x="18" y="13"/><path class="ua263-5" d="M16,13h2V12H16Z"/><polygon class="ua263-6" points="20 20 20 20 20 21 19 21 19 21 19 21 20 21 20 20 20 20"/><rect class="ua263-6" x="9" y="21" width="1"/><rect class="ua263-6" x="17" y="11" height="1"/><polygon class="ua263-6" points="18 13 19 13 19 12 18 12 18 13 18 13"/><path class="ua263-6" d="M10,14h1V13h2V12h1V11H12v1H10v2Z"/><rect class="ua263-3" x="17" y="21"/><rect class="ua263-3" x="18" y="20"/><polygon class="ua263-2" points="11 9 11 8 10 8 10 9 11 9 11 9"/><polygon class="ua263-2" points="10 10 10 9 9 9 9 10 10 10 10 10"/><polygon class="ua263-2" points="9 11 9 10 8 10 8 11 9 11 9 11"/><path class="ua263-2" d="M8,19V11H7v9H8Z"/><polygon class="ua263-2" points="9 20 8 20 8 21 9 21 9 21 9 20"/><polygon class="ua263-2" points="10 21 9 21 9 22 10 22 10 22 10 21"/><polygon class="ua263-2" points="10 22 10 23 11 23 11 22 10 22"/><rect class="ua263-2" x="18" y="22" width="1" height="1"/><polygon class="ua263-2" points="19 22 20 22 20 21 19 21 19 22"/><polygon class="ua263-2" points="20 21 21 21 21 20 20 20 20 21"/><path class="ua263-2" d="M21,13v2h0v1h0v4h1V11H21v2Z"/><rect class="ua263-2" x="20" y="10" width="1" height="1"/><rect class="ua263-2" x="19" y="9" width="1" height="1"/><rect class="ua263-2" x="18" y="8" width="1" height="1"/><path class="ua263-2" d="M18,8V7H11V8h7Z"/><path class="ua263-2" d="M12,11H10v1h2Z"/><path class="ua263-2" d="M10,15h1v1h2V15h1V14h1v1h1v1h2V15h1v4h1V12H19V11H17v1h2v1h0v1H18V13H11v1H10V12H9v7h1V15Z"/><polygon class="ua263-2" points="11 19 10 19 10 20 11 20 11 20 11 19"/><polygon class="ua263-2" points="12 20 11 20 11 21 12 21 12 21 12 20"/><polygon class="ua263-2" points="13 21 12 21 12 22 13 22 13 22 13 21"/><polygon class="ua263-2" points="17 21 17 21 16 21 16 22 16 22 17 22 17 21"/><polygon class="ua263-2" points="17 20 17 21 17 21 18 21 18 20 18 20 17 20"/><polygon class="ua263-2" points="18 20 18 20 19 20 19 19 19 19 18 19 18 20"/><path class="ua263-2" d="M17,11h0V10H12v1h5Z"/><path class="ua263-1" d="M0,33H6V27H7V26H8V25h2V24h1V23H10V22H9V21H8V20H7V11H8V10H9V9h1V8h1V7h7V8h1V9h1v1h1v1h1v9H21v1H20v1H19v1H18v1h1v1h2v1h1v1h1v6h6V0H0Z"/><rect class="ua263-2" x="13" y="19" width="3" height="1"/></svg>