<svg xmlns="http://www.w3.org/2000/svg" viewBox="0 0 29 33"><defs><style>polygon,rect,path{shape-rendering:crispedges;}.ta40-1{fill:#6b4f99;}.ta40-2{fill:#000000;}.ta40-3{fill:#db5800;}.ta40-4{fill:#c18d59;}.ta40-5{fill:#ffffff;}.ta40-6{fill:#ffffff;}.ta40-7{fill:#663228;}.ta40-8{fill:#b23b00;}.ta40-9{fill:#990000;}.ta40-10{fill:#00bc55;}.ta40-11{fill:#cc3232;}</style></defs><path class="ta40-1" d="M6,32V26H5V23H6V22H9V21H8V20H7V11H8V10H9V9h1V8h1V7h7V8h1V9h1v1h1v1h1v9H21v1H20v1H19v1H18v1h1v1h2v1h1v1h1v6h6V0H0V33H6Z"/><rect class="ta40-1" x="9" y="22" width="1" height="1"/><rect class="ta40-1" x="10" y="23" width="1" height="1"/><path class="ta40-2" d="M23,27H22v6h1V27Z"/><path class="ta40-3" d="M22,27H21v6h1V27Z"/><rect class="ta40-2" x="21" y="26" width="1" height="1"/><path class="ta40-2" d="M21,27H20v6h1V27Z"/><rect class="ta40-3" x="10" y="29" width="1" height="1"/><rect class="ta40-3" x="18" y="29" width="1" height="1"/><path class="ta40-3" d="M10,28h1v1h1V25h1V24H11v1H10v1H9v3h1Z"/><path class="ta40-3" d="M16,25h1v4h1V28h1v1h1V27h1V26H19V25H18V24H16Z"/><path class="ta40-3" d="M19,32V31H18v1H17V30H16v1H15v1H13V30H12v2H11V31H10v1H9v1H20V32Z"/><path class="ta40-2" d="M20,26h1V25H19v1Z"/><rect class="ta40-2" x="18" y="24" width="1" height="1"/><path class="ta40-2" d="M16,24h2V23H16Z"/><path class="ta40-2" d="M13,24v1h3V24H13Z"/><path class="ta40-4" d="M13,23v1h3V23H13Z"/><path class="ta40-2" d="M12,23H11v1h2V23Z"/><rect class="ta40-2" x="10" y="24" width="1" height="1"/><path class="ta40-2" d="M9,31V26H8v7H9V31Z"/><path class="ta40-3" d="M8,27H7v6H8V27Z"/><path class="ta40-4" d="M7,27H8V26H9V25H6v1H7Z"/><path class="ta40-2" d="M7,27V26H6v7H7V27Z"/><path class="ta40-3" d="M14,29v2h1V29Z"/><path class="ta40-3" d="M13,25v3h2v1h1V25H13Z"/><path class="ta40-5" d="M19,30H18V29H17v3h1V31h1v1h1V29H19Z"/><rect class="ta40-5" x="18" y="28" width="1" height="1"/><path class="ta40-5" d="M15,29v2h1V29Z"/><path class="ta40-5" d="M14,30V29h1V28H13v4h2V31H14Z"/><path class="ta40-5" d="M11,29v1H10V29H9v3h1V31h1v1h1V29Z"/><rect class="ta40-5" x="10" y="28" width="1" height="1"/><path class="ta40-2" d="M13,25H12v5h1V25Z"/><path class="ta40-2" d="M17,28V25H16v5h1V28Z"/><path class="ta40-4" d="M18,20V18h1V15H16V14h2V13H16V12H15V11H13v1H12v1h1v2H10v3h1v2h1v1h1v1h3V21h1V20Zm-4-4h1v1H14Zm2,3v1H13V19h3V18h1v1Z"/><path class="ta40-4" d="M12,14V13H10v1h2Z"/><rect class="ta40-4" x="16" y="11" width="1" height="1"/><rect class="ta40-2" x="14" y="16" width="1" height="1"/><path class="ta40-6" d="M12,15h1V14H12Z"/><path class="ta40-6" d="M11,14H10v1h1Z"/><path class="ta40-6" d="M18,15h1V14H18Z"/><path class="ta40-6" d="M16,14v1h1V14Z"/><path class="ta40-2" d="M11,14v1h1V14Z"/><path class="ta40-2" d="M17,14v1h1V14Z"/><rect class="ta40-7" x="18" y="13" width="1" height="1"/><path class="ta40-7" d="M18,13V12H16v1Z"/><path class="ta40-7" d="M13,14V13H12v1Z"/><path class="ta40-7" d="M12,12H11v1h1Z"/><rect class="ta40-8" x="18" y="12" width="1" height="1"/><rect class="ta40-8" x="12" y="11" width="1" height="1"/><rect class="ta40-8" x="15" y="11" width="1" height="1"/><path class="ta40-8" d="M11,13V12H10v1Z"/><rect class="ta40-3" x="19" y="20" width="1" height="1"/><rect class="ta40-3" x="9" y="20" width="1" height="1"/><path class="ta40-3" d="M18,21H17v1H16v1h2V22h1V21Z"/><path class="ta40-3" d="M9,19V12h1V11h2V10h5v1h2v1h1v8h1V11H20V10H19V9H18V8H11V9H10v1H9v1H8v9H9Z"/><path class="ta40-3" d="M11,23h2V22H12V21H10v1h1Z"/><rect class="ta40-2" x="10" y="8" width="1" height="1"/><rect class="ta40-2" x="9" y="9" width="1" height="1"/><rect class="ta40-2" x="8" y="10" width="1" height="1"/><path class="ta40-2" d="M8,11H7v9H8V11Z"/><rect class="ta40-2" x="8" y="20" width="1" height="1"/><rect class="ta40-2" x="9" y="21" width="1" height="1"/><rect class="ta40-2" x="10" y="22" width="1" height="1"/><rect class="ta40-2" x="18" y="22" width="1" height="1"/><rect class="ta40-2" x="19" y="21" width="1" height="1"/><rect class="ta40-2" x="20" y="20" width="1" height="1"/><path class="ta40-2" d="M21,20h1V11H21v9Z"/><rect class="ta40-2" x="20" y="10" width="1" height="1"/><rect class="ta40-2" x="19" y="9" width="1" height="1"/><rect class="ta40-2" x="18" y="8" width="1" height="1"/><path class="ta40-2" d="M18,8V7H11V8h7Z"/><path class="ta40-2" d="M10,16V12H9v5h1Z"/><rect class="ta40-2" x="12" y="21" width="1" height="1"/><path class="ta40-2" d="M13,22v1h3V22H13Z"/><rect class="ta40-2" x="16" y="21" width="1" height="1"/><path class="ta40-9" d="M19,18H18v2H17v1h2V20h1V17H19Z"/><path class="ta40-9" d="M12,20H11V18H10V17H9v3h1v1h2Z"/><path class="ta40-2" d="M12,12V11H10v1h2Z"/><path class="ta40-2" d="M14,11h3V10H12v1h2Z"/><path class="ta40-2" d="M18,12h1V11H17v1Z"/><path class="ta40-2" d="M19,14v3h1V12H19v2Z"/><rect class="ta40-2" x="13" y="19" width="3" height="1"/><rect class="ta40-2" x="16" y="18" width="1" height="1"/><path class="ta40-10" d="M7,24H8V23H9V22H6v1H7Z"/><path class="ta40-10" d="M6,24V23H5v2H6Z"/><rect class="ta40-2" x="6" y="23" width="1" height="1"/><rect class="ta40-2" x="8" y="23" width="1" height="1"/><path class="ta40-10" d="M10,24V23H9v2h1Z"/><path class="ta40-11" d="M8,24H6v1H9V24Z"/><rect class="ta40-2" x="9" y="25" width="1" height="1"/><path class="ta40-2" d="M5,25v1H6V25Z"/></svg>