<svg xmlns="http://www.w3.org/2000/svg" viewBox="0 0 29 33"><defs><style>polygon,rect,path{shape-rendering:crispedges;}.ma1-1{fill:#db5a8e;}.ma1-2{fill:#000000;}.ma1-3{fill:#ffffff;}.ma1-4{fill:#a89969;}.ma1-5{fill:#b2622b;}.ma1-6{fill:#a8a07e;}.ma1-7{fill:#ffffff;}.ma1-8{fill:#8e4717;}.ma1-9{fill:#8e4717;}.ma1-10{fill:#cbed03;}.ma1-11{fill:#508e91;}</style></defs><path class="ma1-1" d="M0,33H6V27H7V26H8V25h2V24h2V21H11V20H10V19H9V16H8V14H9V10h1V9h1V8h7V9h1v2h1v3h1v2H20v3H19v1H18v1H17v3h2v1h2v1h1v1h1v6h6V0H0Z"/><path class="ma1-2" d="M23,27H22v6h1V27Z"/><rect class="ma1-2" x="21" y="26" width="1" height="1"/><path class="ma1-3" d="M21,32v1h1V32Z"/><path class="ma1-3" d="M21,30v1h1V29H21Z"/><path class="ma1-3" d="M21,28h1V27H21Z"/><path class="ma1-2" d="M21,31V27H20v6h1V31Z"/><path class="ma1-3" d="M19,26v1H18v3h1v1h1V29H19V28h1V27h1V26H19Z"/><path class="ma1-3" d="M19,32v1h1V32Z"/><path class="ma1-2" d="M20,26h1V25H19v1Z"/><path class="ma1-2" d="M18,30V25h1V24H17v1H16v1h1v7h1V30Z"/><path class="ma1-4" d="M17,26H16v1H13V26H12v7h5V26Z"/><path class="ma1-2" d="M13,26v1h3V26H13Z"/><path class="ma1-2" d="M13,23V22H12v2h1Z"/><path class="ma1-5" d="M13,25v1h3V25h1V24H16V23H13v1H12v1Z"/><path class="ma1-2" d="M12,26h1V25H12V24H10v1h1v8h1V26Z"/><path class="ma1-3" d="M9,27v1h1v1H9v2h1V30h1V27H10V26H8v1Z"/><rect class="ma1-3" x="9" y="32" width="1" height="1"/><path class="ma1-2" d="M10,25H8v1h2Z"/><path class="ma1-2" d="M9,31V27H8v6H9V31Z"/><rect class="ma1-2" x="7" y="26" width="1" height="1"/><path class="ma1-3" d="M7,30v1H8V29H7Z"/><path class="ma1-3" d="M7,32v1H8V32Z"/><path class="ma1-3" d="M8,28V27H7v1Z"/><path class="ma1-2" d="M7,31V27H6v6H7V31Z"/><path class="ma1-6" d="M11,30H10v1H9v1h1v1h1V30Z"/><path class="ma1-6" d="M10,27h1V25H10v2Z"/><path class="ma1-6" d="M18,26v1h1V25H18Z"/><path class="ma1-6" d="M7,29H8V28H7Z"/><path class="ma1-6" d="M10,28H9v1h1Z"/><path class="ma1-6" d="M21,29h1V28H21Z"/><path class="ma1-6" d="M19,29h1V28H19Z"/><path class="ma1-6" d="M21,32h1V31H21Z"/><path class="ma1-6" d="M7,32H8V31H7Z"/><path class="ma1-6" d="M20,32V31H19V30H18v3h1V32Z"/><path class="ma1-2" d="M20,16h1V15H20Z"/><path class="ma1-2" d="M19,13v1h1V11H19v2Z"/><rect class="ma1-5" x="13" y="20" width="1" height="1"/><path class="ma1-5" d="M13,16V15H10v1h3Z"/><path class="ma1-5" d="M17,15H16v1h3V15H17Z"/><rect class="ma1-5" x="15" y="20" width="1" height="1"/><rect class="ma1-5" x="14" y="15" width="1" height="1"/><path class="ma1-5" d="M18,10H17v1H16V10H15v1H14V10H13v1H12V10H11v1H10v2h1V12h2v2h3V13h1V12h2V11H18Z"/><path class="ma1-5" d="M16,17V16H15v1H14V16H13v1H10v1h1v1h1V18h5v1h1V18h1V17H16Z"/><path class="ma1-2" d="M19,17h1V16H19Z"/><path class="ma1-2" d="M16,23v1h1V22H16Z"/><rect class="ma1-2" x="17" y="9" width="1" height="1"/><rect class="ma1-2" x="11" y="9" width="1" height="1"/><rect class="ma1-2" x="13" y="9" width="1" height="1"/><rect class="ma1-2" x="15" y="9" width="1" height="1"/><rect class="ma1-2" x="10" y="10" width="1" height="1"/><path class="ma1-2" d="M10,13V11H9v3h1Z"/><path class="ma1-2" d="M10,16H9v1h1Z"/><path class="ma1-2" d="M8,15v1H9V15Z"/><rect class="ma1-2" x="14" y="16" width="1" height="1"/><path class="ma1-7" d="M12,15h1V14H12Z"/><path class="ma1-7" d="M11,14H10v1h1Z"/><path class="ma1-7" d="M18,15h1V14H18Z"/><rect class="ma1-7" x="16" y="14" width="1" height="1"/><path class="ma1-2" d="M11,14v1h1V14Z"/><path class="ma1-2" d="M18,14H17v1h1Z"/><path class="ma1-8" d="M13,12H11v1h2Z"/><path class="ma1-8" d="M19,12H17v1h2Z"/><path class="ma1-9" d="M13,23h3V22h1V21h1V20h1V19h1V17H19v1H18v1H16v2H15V20H14v1H13V19H11V18H10V17H9v2h1v1h1v1h1v1h1Z"/><path class="ma1-2" d="M16,18H12v1h1v1h3V19h1V18Z"/><path class="ma1-10" d="M18,11h1V9H18v2Z"/><path class="ma1-10" d="M12,10v1h1V9h1v2h1V9h1v2h1V9h1V8H11V9h1Z"/><rect class="ma1-10" x="10" y="9" width="1" height="1"/><path class="ma1-10" d="M10,10H9v1h1Z"/><path class="ma1-11" d="M19,15v1h1V15h1V14H19Z"/><path class="ma1-11" d="M18,16H16v1h3V16Z"/><path class="ma1-11" d="M12,14h1V13H10v1h2Z"/><path class="ma1-11" d="M18,14h1V13H16v1h2Z"/><path class="ma1-11" d="M13,16h1V15h1v1h1V14H13v2Z"/><path class="ma1-11" d="M13,17V16H10v1h3Z"/><path class="ma1-11" d="M10,15V14H8v1H9v1h1Z"/></svg>