<svg xmlns="http://www.w3.org/2000/svg" viewBox="0 0 29 33"><defs><style>polygon,rect,path{shape-rendering:crispedges;}.sa49-1{fill:#7a982c;}.sa49-2{fill:#000000;}.sa49-3{fill:#875070;}.sa49-4{fill:#e8b795;}.sa49-5{fill:#ffffff;}.sa49-6{fill:#893a1f;}.sa49-7{fill:#f9e100;}.sa49-8{fill:#5a2de2;}</style></defs><path class="sa49-1" d="M6,32V27H7V26H8V25h2V24h1V23H10V22H9V21H8V20H7V11H8V10H9V9h1V8h1V7h7V8h1V9h1v1h1v1h1v9H21v1H20v1H19v1H18v1h1v1h2v1h1v1h1v6h6V0H0V33H6Z"/><path class="sa49-2" d="M23,27H22v6h1V27Z"/><path class="sa49-3" d="M22,27H21v6h1V27Z"/><rect class="sa49-2" x="21" y="26" width="1" height="1"/><path class="sa49-2" d="M21,27H20v6h1V27Z"/><path class="sa49-3" d="M20,27h1V26H19V25H18V24H16v1h1v5H16V25H13v5H12V25h1V24H11v1H10v1H8v1H9v6H20V27Z"/><path class="sa49-2" d="M20,26h1V25H19v1Z"/><rect class="sa49-2" x="18" y="24" width="1" height="1"/><path class="sa49-2" d="M16,23v1h2V23H16Z"/><path class="sa49-2" d="M13,24v1h3V24H13Z"/><path class="sa49-4" d="M15,23H13v1h3V23Z"/><path class="sa49-2" d="M13,23H11v1h2Z"/><rect class="sa49-2" x="10" y="24" width="1" height="1"/><path class="sa49-2" d="M10,25H8v1h2Z"/><path class="sa49-2" d="M9,27H8v6H9V27Z"/><path class="sa49-3" d="M8,27H7v6H8V27Z"/><rect class="sa49-2" x="7" y="26" width="1" height="1"/><path class="sa49-2" d="M7,27H6v6H7V27Z"/><path class="sa49-2" d="M12,26v4h1V25H12Z"/><path class="sa49-2" d="M16,30h1V25H16v5Z"/><rect class="sa49-4" x="17" y="13" width="1" height="1"/><rect class="sa49-4" x="11" y="13" width="1" height="1"/><path class="sa49-4" d="M17,15v2H16V15H15V11H14v1H13v2h1v2h1v1H14V16H13V15H11v3h5v1h1V18h1V15Z"/><rect class="sa49-4" x="16" y="12" width="1" height="1"/><rect class="sa49-2" x="14" y="16" width="1" height="1"/><rect class="sa49-5" x="16" y="14" width="1" height="1"/><path class="sa49-2" d="M13,14H11v1h2Z"/><rect class="sa49-2" x="17" y="14" width="1" height="1"/><rect class="sa49-6" x="11" y="12" width="1" height="1"/><rect class="sa49-6" x="16" y="13" width="1" height="1"/><rect class="sa49-6" x="17" y="12" width="1" height="1"/><path class="sa49-7" d="M15,15h1V12h1V11H15Z"/><path class="sa49-7" d="M10,15v2h1V12H10v3Z"/><path class="sa49-7" d="M12,13v1h1V12h1V11H12v2Z"/><path class="sa49-7" d="M18,13v4h1V12H18Z"/><path class="sa49-7" d="M13,16h1V14H13v2Z"/><path class="sa49-7" d="M17,17V15H16v2Z"/><rect class="sa49-3" x="18" y="21" width="1" height="1"/><rect class="sa49-3" x="19" y="20" width="1" height="1"/><rect class="sa49-3" x="9" y="20" width="1" height="1"/><rect class="sa49-3" x="10" y="21" width="1" height="1"/><path class="sa49-3" d="M9,19V12h1V11h2V10h5v1h2v1h1v8h1V11H20V10H19V9H18V8H11V9H10v1H9v1H8v9H9Z"/><path class="sa49-3" d="M17,22v1h1V22Z"/><path class="sa49-3" d="M12,22H11v1h1Z"/><rect class="sa49-2" x="10" y="8" width="1" height="1"/><rect class="sa49-2" x="9" y="9" width="1" height="1"/><rect class="sa49-2" x="8" y="10" width="1" height="1"/><path class="sa49-2" d="M8,11H7v9H8V11Z"/><rect class="sa49-2" x="8" y="20" width="1" height="1"/><rect class="sa49-2" x="9" y="21" width="1" height="1"/><rect class="sa49-2" x="10" y="22" width="1" height="1"/><rect class="sa49-2" x="18" y="22" width="1" height="1"/><rect class="sa49-2" x="19" y="21" width="1" height="1"/><rect class="sa49-2" x="20" y="20" width="1" height="1"/><path class="sa49-2" d="M21,20h1V11H21v9Z"/><rect class="sa49-2" x="20" y="10" width="1" height="1"/><rect class="sa49-2" x="19" y="9" width="1" height="1"/><rect class="sa49-2" x="18" y="8" width="1" height="1"/><path class="sa49-2" d="M18,8V7H11V8h7Z"/><path class="sa49-2" d="M12,12V11H10v1h2Z"/><path class="sa49-2" d="M10,15V12H9v4h1Z"/><path class="sa49-2" d="M19,16h1V12H19v4Z"/><path class="sa49-2" d="M18,12h1V11H17v1Z"/><path class="sa49-2" d="M15,11h2V10H12v1h3Z"/><path class="sa49-8" d="M15,18H13v1h3V18Z"/><path class="sa49-8" d="M16,23h1V22h1V21h1V20h1V16H19v1H18v1H17v1H16v1H13V19H12V18H11V17H10V16H9v4h1v1h1v1h1v1h4Z"/><rect class="sa49-2" x="13" y="19" width="3" height="1"/><path class="sa49-2" d="M12,18v1h1V18Z"/></svg>