<svg xmlns="http://www.w3.org/2000/svg" viewBox="0 0 29 33"><defs><style>polygon,rect,path{shape-rendering:crispedges;}.ha288-1{fill:#29834f;}.ha288-2{fill:#000000;}.ha288-3{fill:#844f4f;}.ha288-4{fill:#e8b795;}.ha288-5{fill:#ffffff;}.ha288-6{fill:#473a35;}.ha288-7{fill:#c8a715;}.ha288-8{fill:#a06415;}.ha288-9{fill:#c9a717;}</style></defs><path class="ha288-1" d="M0,33H6V27H7V26H8V25h2V20H9V16H8V15H9V14H8V13H4V12H6V11H8V10h2V9h1V8h1V7h1V6h1V5h1V6h1V7h1V8h1V9h1v1h2v1h2v1h2v1H21v1H20v1h1v1H20v4H19v5h2v1h1v1h1v6h6V0H0Z"/><path class="ha288-1" d="M18,24V22H17v2Z"/><path class="ha288-1" d="M12,22H11v2h1V22Z"/><path class="ha288-2" d="M23,27H22v6h1V27Z"/><rect class="ha288-2" x="21" y="26" width="1" height="1"/><path class="ha288-3" d="M22,27H21v6h1V27Z"/><path class="ha288-2" d="M21,27H20v6h1V27Z"/><path class="ha288-2" d="M20,26h1V25H19v1Z"/><path class="ha288-3" d="M20,27h1V26H19V25H17v1H16v1H13V26H12V25H10v1H9v7H20V27Z"/><path class="ha288-2" d="M17,24v1h2V24H17Z"/><rect class="ha288-2" x="16" y="25" width="1" height="1"/><path class="ha288-2" d="M13,26v1h3V26H13Z"/><path class="ha288-4" d="M16,24V23H13v3h3V24Z"/><path class="ha288-2" d="M12,25v1h1V25Z"/><path class="ha288-2" d="M12,24H10v1h2Z"/><path class="ha288-2" d="M9,26h1V25H8v1H7v1H8v6H9V26Z"/><path class="ha288-3" d="M8,27H7v6H8V27Z"/><path class="ha288-2" d="M7,27H6v6H7V27Z"/><rect class="ha288-2" x="20" y="15" width="1" height="1"/><rect class="ha288-2" x="19" y="14" width="1" height="1"/><path class="ha288-4" d="M18,15H16V14H14v2h1v1H14V16H13v1H11v2h1V18h5v1h1V18h1V16h1V15H18Z"/><rect class="ha288-4" x="9" y="15" width="1" height="1"/><rect class="ha288-4" x="10" y="16" width="1" height="1"/><path class="ha288-4" d="M12,15H11v1h2V15Z"/><polygon class="ha288-4" points="13 21 14 21 14 22 15 22 15 21 16 21 16 20 13 20 13 21"/><path class="ha288-2" d="M19,17h1V16H19Z"/><rect class="ha288-2" x="9" y="14" width="1" height="1"/><path class="ha288-2" d="M10,16H9v1h1Z"/><rect class="ha288-2" x="8" y="15" width="1" height="1"/><rect class="ha288-2" x="14" y="16" width="1" height="1"/><rect class="ha288-5" x="12" y="14" width="1" height="1"/><path class="ha288-5" d="M19,15V14H18v1Z"/><path class="ha288-5" d="M17,15V14H16v1Z"/><rect class="ha288-2" x="11" y="14" width="1" height="1"/><path class="ha288-2" d="M18,15V14H17v1Z"/><path class="ha288-6" d="M19,18H18v1H16v2H15v1H14V21H13V19H11v3h1v1h5V22h2V20h1V17H19Z"/><path class="ha288-6" d="M10,17H9v3h1V17Z"/><path class="ha288-7" d="M18,23h1V22H18Z"/><path class="ha288-6" d="M18,24h1V23H18Z"/><path class="ha288-7" d="M17,24V23H16v1Z"/><path class="ha288-6" d="M16,24v1h1V24Z"/><path class="ha288-7" d="M13,23H12v1h1Z"/><path class="ha288-6" d="M13,24H12v1h1Z"/><path class="ha288-7" d="M11,22H10v1h1Z"/><path class="ha288-6" d="M11,23H10v1h1Z"/><path class="ha288-2" d="M13,18H12v1h1Z"/><path class="ha288-2" d="M17,19V18H16v1Z"/><path class="ha288-2" d="M13,19v1h3V19H15V18H14v1Z"/><path class="ha288-5" d="M14,19V18H13v1Z"/><path class="ha288-5" d="M16,19V18H15v1Z"/><path class="ha288-8" d="M13,16h1V14H13v2Z"/><path class="ha288-8" d="M13,16H11v1h2Z"/><polygon class="ha288-8" points="11 15 11 14 10 14 10 15 10 16 11 16 11 15"/><path class="ha288-8" d="M11,21V17H10v5h1Z"/><path class="ha288-9" d="M11,14H21V13h4V12H23V11H21V10H19V9H18V8H17V7H16V6H15V5H14V6H13V7H12V8H11V9H10v1H8v1H6v1H4v1H8v1h3Z"/></svg>