<svg xmlns="http://www.w3.org/2000/svg" viewBox="0 0 29 33"><defs><style>polygon,rect,path{shape-rendering:crispedges;}.qa248-1{fill:#6b4f99;}.qa248-2{fill:#000000;}.qa248-3{fill:#db5800;}.qa248-4{fill:#e8b795;}.qa248-5{fill:#ffffff;}.qa248-6{fill:#ffffff;}.qa248-7{fill:#8e703c;}.qa248-8{fill:#8e703c;}.qa248-9{fill:#317f03;}</style></defs><rect class="qa248-1" x="20" y="20" width="1" height="1"/><path class="qa248-1" d="M0,33H6V27H7V26H8V25h2V24h1V23H10V22h1V21H9V20H8V19H9V16H8V15H9V11h1V10h1V9h2V7h1V6h2V5h2V6H17V7h1v3h1v1h1v4h1v1H20v3h1v1h1V19h2v1h1v3H24v8H23v1H21v1h8V0H0Z"/><path class="qa248-1" d="M20,21H18v1h1v1H18v1h1v1h2V23H20Z"/><path class="qa248-2" d="M23,24v7h1V23H23Z"/><path class="qa248-2" d="M7,27H6v6H7V27Z"/><path class="qa248-3" d="M8,27H7v6H8V27Z"/><rect class="qa248-2" x="7" y="26" width="1" height="1"/><path class="qa248-2" d="M9,31V27H8v6H9V31Z"/><rect class="qa248-3" x="18" y="29" width="1" height="1"/><path class="qa248-3" d="M19,32V31H18v1H17V30H16v1H15v1H13V30H12v2H11V31H10v1H9v1H20V32Z"/><rect class="qa248-3" x="10" y="29" width="1" height="1"/><path class="qa248-3" d="M18,24H16v1h1v4h1V28h1v1h1V27h1V26H19V25H18Z"/><path class="qa248-3" d="M9,27v2h1V28h1v1h1V25h1V24H11v1H10v1H8v1Z"/><path class="qa248-2" d="M10,25H8v1h2Z"/><rect class="qa248-2" x="10" y="24" width="1" height="1"/><rect class="qa248-2" x="10" y="22" width="1" height="1"/><rect class="qa248-3" x="11" y="22" width="1" height="1"/><path class="qa248-2" d="M13,23h3v1h2V23H17V22h1V20H17v1H16v1H13V21H12V20H11v2h1v1H11v1h2Z"/><path class="qa248-2" d="M16,25V24H13v1h3Z"/><path class="qa248-4" d="M16,24V23H13v1h3Z"/><rect class="qa248-3" x="17" y="22" width="1" height="1"/><rect class="qa248-2" x="18" y="24" width="1" height="1"/><rect class="qa248-2" x="18" y="22" width="1" height="1"/><path class="qa248-2" d="M22,32h1V31H22V23H21v2H19v1h2v1H20v6h1V32Z"/><path class="qa248-3" d="M23,24H22v7h1V24Z"/><path class="qa248-3" d="M14,29v2h1V29Z"/><path class="qa248-3" d="M13,28h2v1h1V25H13v3Z"/><path class="qa248-5" d="M19,30H18V29H17v3h1V31h1v1h1V29H19Z"/><rect class="qa248-5" x="18" y="28" width="1" height="1"/><path class="qa248-5" d="M15,29v2h1V29Z"/><path class="qa248-5" d="M14,30V29h1V28H13v4h2V31H14Z"/><path class="qa248-5" d="M11,29v1H10V29H9v3h1V31h1v1h1V29Z"/><rect class="qa248-5" x="10" y="28" width="1" height="1"/><path class="qa248-2" d="M13,27V25H12v5h1V27Z"/><path class="qa248-2" d="M17,28V25H16v5h1V28Z"/><rect class="qa248-2" x="20" y="15" width="1" height="1"/><path class="qa248-2" d="M19,13v2h1V11H19v2Z"/><path class="qa248-4" d="M18,14h1V13H17v1Z"/><path class="qa248-4" d="M11,13V12h2v1H11v1h2v2H10v2h1v1h1V18h1v1h3v1H13V19H12v2h1v1h3V21h1V19h1V18h1V16H16V13h1V12h2V11H18V10H15v1H13V10H11v1H10v2Zm3,3h1v1H14Z"/><rect class="qa248-4" x="9" y="15" width="1" height="1"/><rect class="qa248-4" x="19" y="15" width="1" height="1"/><rect class="qa248-2" x="18" y="10" width="1" height="1"/><path class="qa248-2" d="M16,10h2V9H16Z"/><path class="qa248-2" d="M13,9H11v1h2Z"/><rect class="qa248-2" x="10" y="10" width="1" height="1"/><path class="qa248-2" d="M10,14V11H9v4h1Z"/><rect class="qa248-2" x="8" y="15" width="1" height="1"/><rect class="qa248-2" x="14" y="16" width="1" height="1"/><path class="qa248-6" d="M11,15V14H10v2h1Z"/><path class="qa248-6" d="M13,16V14H12v2Z"/><path class="qa248-6" d="M16,14v2h1V14Z"/><path class="qa248-6" d="M19,14H18v2h1V14Z"/><path class="qa248-2" d="M11,16h1V14H11v2Z"/><path class="qa248-2" d="M17,14v2h1V14Z"/><path class="qa248-7" d="M11,13H10v1h1Z"/><rect class="qa248-7" x="11" y="12" width="2" height="1"/><path class="qa248-7" d="M17,13H16v1h1Z"/><path class="qa248-7" d="M19,12H17v1h2Z"/><path class="qa248-8" d="M19,17v1H18v1H17v1h1v1h2V20h1V19H20V16H19Z"/><path class="qa248-8" d="M12,20V19H11V18H10V16H9v3H8v1H9v1h2V20Z"/><rect class="qa248-2" x="13" y="19" width="3" height="1"/><rect class="qa248-2" x="12" y="18" width="1" height="1"/><path class="qa248-2" d="M20,21v2h1V21Z"/><rect class="qa248-2" x="21" y="20" width="1" height="1"/><rect class="qa248-2" x="22" y="19" width="2" height="1"/><path class="qa248-2" d="M24,23h1V20H24v3Z"/><path class="qa248-4" d="M21,21v2h1v1h1V23h1V20H22v1Z"/><path class="qa248-9" d="M13,11h2V10h1V9h2V7H17V6h1V5H16V6H14V7H13v4Z"/><rect class="qa248-9" x="18" y="9" width="1" height="1"></rect></svg>