<svg xmlns="http://www.w3.org/2000/svg" viewBox="0 0 29 33"><defs><style>polygon,rect,path{shape-rendering:crispedges;}.pa84-1{fill:#d4a122;}.pa84-2{fill:#000000;}.pa84-3{fill:#cc2f76;}.pa84-4{fill:#e8b795;}.pa84-5{fill:#cc2f76;}.pa84-6{fill:#000000;}.pa84-7{fill:#ffffff;}.pa84-8{fill:#316a6d;}.pa84-9{fill:#ff791f;}.pa84-10{fill:#fad000;}</style></defs><path class="pa84-1" d="M20,23H18v1h2Z"/><path class="pa84-1" d="M0,33H6V27H7V26H8V25h2V24h1V23H10V22h1V21H10V20H9V16H8V15H9V10h1V9h1V8h7V9h1v1h1v5h1v1H20v4H19v1h1v1h1v1h1v1h2v1h1v2H24V26H23v7h6V0H0Z"/><path class="pa84-2" d="M7,27H6v6H7V27Z"/><path class="pa84-3" d="M8,27H7v6H8V27Z"/><rect class="pa84-2" x="7" y="26" width="1" height="1"/><path class="pa84-2" d="M9,27H8v6H9V27Z"/><path class="pa84-3" d="M20,27H19V25H18v1H17v2h2v1H17v2h1V30h1v2H16V25H13v3h2v4H12V25h1V24H11v1H10v1H8v1H9v6H20V27Zm-9,2v3H10V28h1Z"/><path class="pa84-3" d="M17,24H16v1h2V24Z"/><path class="pa84-2" d="M10,25H8v1h2Z"/><rect class="pa84-2" x="10" y="24" width="1" height="1"/><rect class="pa84-2" x="10" y="22" width="1" height="1"/><rect class="pa84-3" x="11" y="22" width="1" height="1"/><path class="pa84-2" d="M13,23h3v1h2V23H17V22h1V21H16v1H13V21H11v1h1v1H11v1h2Z"/><path class="pa84-2" d="M15,24H13v1h3V24Z"/><path class="pa84-4" d="M16,24V23H13v1h3Z"/><rect class="pa84-3" x="17" y="22" width="1" height="1"/><path class="pa84-2" d="M19,22H18v1h1Z"/><path class="pa84-2" d="M21,27H20v6h1V27Z"/><path class="pa84-3" d="M22,27H21v6h1V27Z"/><path class="pa84-2" d="M23,26V25H22v8h1V26Z"/><path class="pa84-3" d="M14,31V29H13v2Z"/><path class="pa84-5" d="M14,29v2H13V30H12v2h3V28H13v1Z"/><path class="pa84-5" d="M10,29v3h1V28H10Z"/><path class="pa84-5" d="M18,29h1V28H17v1Z"/><path class="pa84-5" d="M16,31v1h3V30H18v1H17V30H16Z"/><path class="pa84-2" d="M12,26v4h1V25H12Z"/><path class="pa84-2" d="M16,25v5h1V25Z"/><rect class="pa84-2" x="20" y="15" width="1" height="1"/><path class="pa84-2" d="M19,15h1V14H19Z"/><path class="pa84-4" d="M10,17v1h1v2h1v1h1v1h3V21h1V20h1V18h1V16h1V15H19V11H18V10H17v1H16V10H15v1H12V10H11v1H10v4H9v1h1Zm6,3H13V19H12V18h1v1h3Zm-5-6h1V13h1V12h3v1h1v1h1v1H16v1H15v1H14V16H13V15H11Z"/><path class="pa84-2" d="M19,17h1V16H19Z"/><path class="pa84-2" d="M10,14H9v1h1Z"/><path class="pa84-2" d="M10,16H9v1h1Z"/><rect class="pa84-2" x="8" y="15" width="1" height="1"/><path class="pa84-6" d="M18,15V14H17v1Z"/><rect class="pa84-6" x="16" y="13" width="1" height="1"/><rect class="pa84-2" x="14" y="14" width="1" height="1"/><path class="pa84-7" d="M13,15v1h3V15h1V14H16V13H13v1H12v1Zm1-1h1v1H14Z"/><path class="pa84-6" d="M16,13V12H13v1h3Z"/><rect class="pa84-6" x="12" y="13" width="1" height="1"/><path class="pa84-6" d="M12,14H11v1h1Z"/><path class="pa84-2" d="M14,17h1V16H14Z"/><path class="pa84-8" d="M19,18H18v2H17v1h2V20h1V17H19Z"/><path class="pa84-8" d="M12,20H11V18H10V17H9v3h1v1h2Z"/><rect class="pa84-2" x="13" y="19" width="3" height="1"/><rect class="pa84-2" x="12" y="18" width="1" height="1"/><path class="pa84-9" d="M10,13V11h1V10h1v1h3V10h1v1h1V10h1v1h1v3h1V10H19V9H18V8H11V9H10v1H9v4h1Z"/><path class="pa84-10" d="M23,25v1h1v1h1V25H24V24H22v1Z"/><path class="pa84-7" d="M18,22h1v1h1v2h2V23H21V22H20V21H18Z"/><path class="pa84-4" d="M20,27h2V25H20Z"/><path class="pa84-10" d="M20,24H18v1h2Z"/><path class="pa84-10" d="M17,26h1V25H17Z"/><path class="pa84-2" d="M19,25v2h1V25Z"/></svg>