<svg xmlns="http://www.w3.org/2000/svg" viewBox="0 0 29 33"><defs><style>polygon,rect,path{shape-rendering:crispedges;}.ka5-1{fill:#397d98;}.ka5-2{fill:#000000;}.ka5-3{fill:#3e5e00;}.ka5-4{fill:#00af68;}.ka5-5{fill:#e8b795;}.ka5-6{fill:#ffffff;}.ka5-7{fill:#7f5018;}.ka5-8{fill:#7f5018;}.ka5-9{fill:#d8be00;}</style></defs><path class="ka5-1" d="M0,33H6V27H7V26H8V25h2V24h2V22H11V21H10V20H9V16H8V15H9V11h1V10h1V9h1V8h5V9h2v1h1v1h1v3H20v1h1v1H20v4H19v1H18v1H17v2h2v1h2v1h1v1h1v6h6V0H0Z"/><path class="ka5-2" d="M23,27H22v6h1V27Z"/><rect class="ka5-2" x="21" y="26" width="1" height="1"/><path class="ka5-3" d="M21,28v2h1V27H21Z"/><path class="ka5-3" d="M21,31v2h1V31Z"/><path class="ka5-2" d="M21,30V27H20v6h1V30Z"/><path class="ka5-2" d="M20,26h1V25H19v1Z"/><path class="ka5-3" d="M20,32V26H19V25H17V24H16V23H13v1H12v1H10v1H9v6h1v1h4V32h1v1h4V32Zm-9-3H10V28h1Zm2,2H12V30h1Zm0-4H12V26h1Zm2,2H14V28h1Zm0-4H14V24h1Zm2,6H16V30h1Zm0-4H16V26h1Zm1,2V28h1v1Z"/><path class="ka5-2" d="M18,25h1V24H17v1Z"/><path class="ka5-2" d="M16,24h1V23H16Z"/><path class="ka5-2" d="M13,23H12v1h1Z"/><path class="ka5-2" d="M12,24H10v1h2Z"/><path class="ka5-2" d="M10,26V25H8v1h2Z"/><path class="ka5-2" d="M9,31V27H8v6H9V31Z"/><rect class="ka5-2" x="7" y="26" width="1" height="1"/><path class="ka5-3" d="M7,31v2H8V31Z"/><path class="ka5-3" d="M7,30H8V27H7v3Z"/><path class="ka5-2" d="M7,30V27H6v6H7V30Z"/><rect class="ka5-4" x="10" y="28" width="1" height="1"/><rect class="ka5-4" x="12" y="30" width="1" height="1"/><rect class="ka5-4" x="14" y="28" width="1" height="1"/><rect class="ka5-4" x="14" y="32" width="1" height="1"/><rect class="ka5-4" x="12" y="26" width="1" height="1"/><rect class="ka5-4" x="16" y="30" width="1" height="1"/><rect class="ka5-4" x="18" y="28" width="1" height="1"/><rect class="ka5-4" x="16" y="26" width="1" height="1"/><rect class="ka5-4" x="14" y="24" width="1" height="1"/><path class="ka5-4" d="M9,27V26H8v1Z"/><path class="ka5-4" d="M19,32v1h1V32Z"/><path class="ka5-4" d="M9,32v1h1V32Z"/><path class="ka5-4" d="M7,31H8V30H7Z"/><path class="ka5-4" d="M21,31h1V30H21Z"/><path class="ka5-4" d="M20,27h1V26H20Z"/><rect class="ka5-2" x="20" y="15" width="1" height="1"/><rect class="ka5-5" x="9" y="15" width="1" height="1"/><path class="ka5-5" d="M10,13h1V12h2v1H11v1h3V13h2V12h1V11H15V10H11v1H10v2Z"/><path class="ka5-5" d="M17,14h2V13H17Z"/><path class="ka5-5" d="M18,15H16V14H14v2h1v1H14V16H13v1H11v1h7V17h1V16h1V15H18Z"/><rect class="ka5-5" x="10" y="16" width="1" height="1"/><rect class="ka5-2" x="8" y="15" width="1" height="1"/><rect class="ka5-2" x="14" y="16" width="1" height="1"/><path class="ka5-6" d="M16,14v1h1V14Z"/><path class="ka5-2" d="M17,15h2V14H17Z"/><rect class="ka5-7" x="10" y="13" width="1" height="1"/><rect class="ka5-7" x="11" y="12" width="2" height="1"/><rect class="ka5-7" x="16" y="13" width="1" height="1"/><path class="ka5-8" d="M14,23h3V22h1V21h1V20h1V16H19v1H18v1H17v1H16v1H13V19H12V18H11V17H10V16H9v4h1v1h1v1h1v1h2Z"/><path class="ka5-2" d="M12,18v1h1v1h3V19h1V18H12Z"/><path class="ka5-9" d="M10,12V11H9v2h1Z"/><path class="ka5-9" d="M10,14H9v1h1Z"/><rect class="ka5-9" x="10" y="10" width="1" height="1"/><path class="ka5-9" d="M19,12H18v1h1v2h1V14h1V11H19Z"/><path class="ka5-9" d="M15,10v1h2v1h1V11h1V9H17V8H12V9H11v1h4Z"/><path class="ka5-2" d="M13,16h1V14H10v2h1v1h2Z"/><rect class="ka5-2" x="14" y="13" width="2" height="1"/><path class="ka5-2" d="M18,13V12H16v1h2Z"/><rect class="ka5-2" x="18" y="11" width="1" height="1"/><path class="ka5-2" d="M20,11V10H19v1Z"/><path class="ka5-2" d="M10,13H9v1h1Z"/></svg>