<svg xmlns="http://www.w3.org/2000/svg" viewBox="0 0 29 33"><defs><style>polygon,rect,path{shape-rendering:crispedges;}.ca195-1{fill:#6b4f99;}.ca195-2{fill:#000000;}.ca195-3{fill:#efcaaf;}.ca195-4{fill:#317f03;}.ca195-5{fill:#ffffff;}.ca195-6{fill:#b23b00;}.ca195-7{fill:#ffffff;}.ca195-8{fill:#ff1f4a;}</style></defs><path class="ca195-1" d="M0,33H6V27H7V26H8V25h2V24h2V21H11V20H9V19H8V11H9V10h1V9h1V8h7V9h1v1h1v1h1v8H20v1H18v1H17v3h2v1h2v1h1v1h1v6h6V0H0Z"/><path class="ca195-2" d="M23,27H22v6h1V27Z"/><rect class="ca195-2" x="21" y="26" width="1" height="1"/><path class="ca195-3" d="M22,27H21v6h1V27Z"/><rect class="ca195-3" x="20" y="26" width="1" height="1"/><path class="ca195-2" d="M21,27H20v6h1V27Z"/><path class="ca195-2" d="M20,26h1V25H19v1Z"/><path class="ca195-4" d="M14,31v1h1V30H14Z"/><rect class="ca195-4" x="18" y="32" width="1" height="1"/><rect class="ca195-4" x="10" y="32" width="1" height="1"/><rect class="ca195-4" x="10" y="30" width="1" height="1"/><path class="ca195-4" d="M17,30h1V29h1v1h1V26H19V25H18v1H17v1H16v1H13V27H12V26H11V25H10v1H9v4h1V29h1v1h1v3h1V29h2v1h1v2H15v1h2V30Z"/><rect class="ca195-4" x="18" y="30" width="1" height="1"/><path class="ca195-2" d="M18,26V25h1V24H17v2Z"/><rect class="ca195-2" x="16" y="26" width="1" height="1"/><path class="ca195-2" d="M13,27v1h3V27H13Z"/><path class="ca195-2" d="M13,23h3v1h1V21H16v1H13V21H12v3h1Z"/><path class="ca195-3" d="M13,26v1h3V26h1V24H16V23H13v1H12v2Z"/><rect class="ca195-2" x="12" y="26" width="1" height="1"/><path class="ca195-2" d="M11,26h1V24H10v1h1Z"/><path class="ca195-2" d="M10,26V25H8v1h2Z"/><path class="ca195-3" d="M9,27V26H8v1Z"/><path class="ca195-2" d="M9,30V27H8v6H9V30Z"/><rect class="ca195-2" x="7" y="26" width="1" height="1"/><path class="ca195-3" d="M8,27H7v6H8V27Z"/><path class="ca195-2" d="M7,27H6v6H7V27Z"/><path class="ca195-5" d="M20,30H19v1H18V30H17v3h1V32h1v1h1V30Z"/><rect class="ca195-5" x="18" y="29" width="1" height="1"/><path class="ca195-5" d="M16,32V30H15v2Z"/><path class="ca195-5" d="M14,32V30h1V29H13v4h2V32Z"/><path class="ca195-5" d="M12,30H11v1H10V30H9v3h1V32h1v1h1V30Z"/><rect class="ca195-5" x="10" y="29" width="1" height="1"/><path class="ca195-3" d="M13,22h3V21h1V20h1V19h1V16h1V15H19V13H17v1h1v1H16v1H15v1H14V16H13V15H11V14H10v1H9v1h1v3h1v1h1v1h1Zm0-3h3V18h1v1H16v1H13Z"/><path class="ca195-2" d="M20,16H19v3h1V16Z"/><path class="ca195-2" d="M18,19v1h1V19Z"/><rect class="ca195-2" x="17" y="20" width="1" height="1"/><rect class="ca195-2" x="11" y="20" width="1" height="1"/><path class="ca195-2" d="M10,19v1h1V19Z"/><path class="ca195-2" d="M10,18V16H9v3h1Z"/><path class="ca195-6" d="M18,15V14H17v1Z"/><rect class="ca195-6" x="16" y="13" width="1" height="1"/><rect class="ca195-2" x="14" y="14" width="1" height="1"/><path class="ca195-7" d="M16,13H13v1H12v1h1v1h3V15h1V14H16Zm-1,2H14V14h1Z"/><path class="ca195-6" d="M14,13h2V12H13v1Z"/><rect class="ca195-6" x="12" y="13" width="1" height="1"/><path class="ca195-6" d="M11,14v1h1V14Z"/><path class="ca195-2" d="M14,17h1V16H14Z"/><rect class="ca195-3" x="12" y="12" width="1" height="1"/><rect class="ca195-3" x="11" y="13" width="1" height="1"/><path class="ca195-3" d="M15,11V10H14v1H13v1h3v1h1V11Z"/><rect class="ca195-2" x="13" y="19" width="3" height="1"/><rect class="ca195-2" x="16" y="18" width="1" height="1"/><path class="ca195-8" d="M9,16V15h1V14h1V13h1V12h1V11h1V10h1v1h2v2h2v2h1v4h1V11H20V10H19V9H18V8H11V9H10v1H9v1H8v8H9V16Z"/><path class="ca195-8" d="M9,19v1h1V19Z"/><path class="ca195-8" d="M19,20h1V19H19Z"/></svg>