<svg xmlns="http://www.w3.org/2000/svg" viewBox="0 0 29 33"><defs><style>polygon,rect,path{shape-rendering:crispedges;}.ja45-1{fill:#397d98;}.ja45-2{fill:#000000;}.ja45-3{fill:#844f4f;}.ja45-4{fill:#efcaaf;}.ja45-5{fill:#ffffff;}.ja45-6{fill:#99004d;}.ja45-7{fill:#99004d;}.ja45-8{fill:#d8be00;}</style></defs><path class="ja45-1" d="M0,33H6V27H7V26H8V25h2V24h2V21H11V20H10V19H9V16H8V15H9V10h1V9h1V8h1V9h1V8h3V7h1V8h2V9h1v1H19v1h1v4h1v1H20v3H19v1H18v1H17v3h2v1h2v1h1v1h1v6h6V0H0Z"/><rect class="ja45-1" x="16" y="8" width="1" height="1"/><path class="ja45-2" d="M23,27H22v6h1V27Z"/><rect class="ja45-2" x="21" y="26" width="1" height="1"/><path class="ja45-3" d="M22,27H21v6h1V27Z"/><path class="ja45-2" d="M21,27H20v6h1V27Z"/><path class="ja45-2" d="M20,26h1V25H19v1Z"/><path class="ja45-3" d="M20,27h1V26H19V25H17V24H16V23H13v1H12v1H10v1H8v1H9v6H20V27Z"/><path class="ja45-2" d="M18,25h1V24H17v1Z"/><path class="ja45-2" d="M13,23V22H12v2h1Z"/><path class="ja45-2" d="M12,24H10v1h2Z"/><path class="ja45-2" d="M10,25H8v1h2Z"/><path class="ja45-2" d="M9,27H8v6H9V27Z"/><rect class="ja45-2" x="7" y="26" width="1" height="1"/><path class="ja45-3" d="M8,27H7v6H8V27Z"/><path class="ja45-2" d="M7,27H6v6H7V27Z"/><rect class="ja45-2" x="20" y="15" width="1" height="1"/><path class="ja45-2" d="M19,15h1V14H19Z"/><rect class="ja45-4" x="13" y="20" width="1" height="1"/><path class="ja45-4" d="M10,17v1h1v1h1V18h2v1h1V18h2v1h1V18h1V16h1V15H16V13h1V12h1V11H13V10H12v1H11v1h2v1H11v1h2v1H9v1h1Zm4-1h1v1H14Z"/><rect class="ja45-4" x="15" y="20" width="1" height="1"/><polygon class="ja45-4" points="18 14 19 14 19 13 17 13 17 14 18 14"/><rect class="ja45-4" x="10" y="12" width="1" height="1"/><path class="ja45-2" d="M19,17h1V16H19Z"/><path class="ja45-2" d="M16,23v1h1V22H16Z"/><path class="ja45-2" d="M10,16H9v1h1Z"/><rect class="ja45-2" x="8" y="15" width="1" height="1"/><rect class="ja45-2" x="14" y="16" width="1" height="1"/><path class="ja45-5" d="M13,15V14H12v1Z"/><path class="ja45-5" d="M10,15h1V14H10Z"/><path class="ja45-5" d="M18,14v1h1V14Z"/><path class="ja45-5" d="M16,14v1h1V14Z"/><path class="ja45-2" d="M12,15V14H11v1Z"/><path class="ja45-2" d="M17,14v1h1V14Z"/><rect class="ja45-6" x="10" y="13" width="1" height="1"/><rect class="ja45-6" x="11" y="12" width="2" height="1"/><path class="ja45-6" d="M17,13H16v1h1Z"/><path class="ja45-6" d="M19,12H17v1h2Z"/><path class="ja45-7" d="M14,18H13v1h1Z"/><path class="ja45-7" d="M13,23h3V22h1V21h1V20h1V19h1V17H19v1H18v1H17V18H15v1h1v2H15V20H14v1H13V19H11V18H10V17H9v2h1v1h1v1h1v1h1Z"/><path class="ja45-2" d="M13,19v1h3V19H13Z"/><path class="ja45-2" d="M12,18v1h1V18Z"/><path class="ja45-8" d="M10,14V12h1V11h1V10h1v1h5v1h1v2h1V11H19V10h1V9H19V8H17V9H16V8H13V9H12V8H11V9H10v1H9v5h1Z"/><rect class="ja45-8" x="16" y="7" width="1" height="1"/></svg>