<svg xmlns="http://www.w3.org/2000/svg" viewBox="0 0 29 33"><defs><style>polygon,rect,path{shape-rendering:crispedges;}.xa146-1{fill:#d8be00;}.xa146-2{fill:#000000;}.xa146-3{fill:#b2622b;}.xa146-4{fill:#6d5800;}.xa146-5{fill:#ffffff;}.xa146-6{fill:#841f00;}.xa146-7{fill:#b23b00;}.xa146-8{fill:#d4a122;}</style></defs><path class="xa146-1" d="M15,30V28H14v3h2V30Z"/><path class="xa146-1" d="M18,30V28H17V27H16V25H15v3h1v1h1v2h2V30Z"/><rect class="xa146-1" x="17" y="22" width="1" height="1"/><path class="xa146-1" d="M18,24H16v1h1v1h1v2h1v1h1V27H19V25H18Z"/><rect class="xa146-1" x="21" y="27" width="1" height="1"/><path class="xa146-1" d="M21,31v1h1V30H21Z"/><rect class="xa146-1" x="19" y="32" width="1" height="1"/><rect class="xa146-1" x="13" y="32" width="1" height="1"/><rect class="xa146-1" x="10" y="32" width="1" height="1"/><rect class="xa146-1" x="16" y="32" width="1" height="1"/><path class="xa146-1" d="M8,29V27H7v2Z"/><path class="xa146-1" d="M7,31v2H8V31Z"/><rect class="xa146-1" x="9" y="30" width="1" height="1"/><path class="xa146-1" d="M12,25V24H11v2h1v2h1V25Z"/><path class="xa146-1" d="M12,29V28H11V27H10V26H9v2h1v1h1v2h2V30H12Z"/><rect class="xa146-1" x="11" y="22" width="1" height="1"/><path class="xa146-2" d="M23,27H22v6h1V27Z"/><rect class="xa146-2" x="21" y="26" width="1" height="1"/><path class="xa146-2" d="M21,31V27H20v4H14V27H13v4H9V27H8v6H9V32H20v1h1V31Z"/><path class="xa146-2" d="M20,26h1V25H19v1Z"/><path class="xa146-2" d="M18,24v1h1V22H18v2Z"/><path class="xa146-2" d="M11,24V22H10v3h1Z"/><path class="xa146-2" d="M10,26V25H8v1h2Z"/><rect class="xa146-2" x="7" y="26" width="1" height="1"/><path class="xa146-2" d="M7,30V27H6v6H7V30Z"/><path class="xa146-3" d="M13,15H10v1h3Z"/><rect class="xa146-3" x="13" y="20" width="3" height="1"/><path class="xa146-3" d="M19,16V15H16v1h3Z"/><path class="xa146-4" d="M21,29v1h1V28H21Z"/><path class="xa146-4" d="M21,32v1h1V32Z"/><path class="xa146-4" d="M19,26v1h2V26H19Z"/><path class="xa146-4" d="M19,28H18v2h1v1h1V29H19Z"/><path class="xa146-4" d="M17,27v1h1V26H17V25H16v2Z"/><path class="xa146-4" d="M18,32H17v1h2V32Z"/><path class="xa146-4" d="M16,29V28H15v2h1v1h1V29Z"/><path class="xa146-4" d="M15,27H14v1h1Z"/><path class="xa146-4" d="M15,32H14v1h2V32Z"/><path class="xa146-4" d="M12,29v1h1V28H12Z"/><path class="xa146-4" d="M12,23H11v1h1Z"/><path class="xa146-4" d="M18,23H17v1h1Z"/><path class="xa146-4" d="M10,27h1v1h1V26H11V25H10v2Z"/><path class="xa146-4" d="M12,32H11v1h2V32Z"/><path class="xa146-4" d="M10,29V28H9v2h1v1h1V29Z"/><path class="xa146-4" d="M9,32v1h1V32Z"/><path class="xa146-4" d="M9,27V26H8v1Z"/><path class="xa146-4" d="M7,30v1H8V29H7Z"/><path class="xa146-5" d="M13,14H12v1h1Z"/><path class="xa146-5" d="M11,14H10v1h1Z"/><path class="xa146-5" d="M19,14H18v1h1Z"/><path class="xa146-5" d="M17,14H16v1h1Z"/><path class="xa146-2" d="M12,23v1h1v1h1v2h1V25h1V24h1V22h1V21h1V20h1V17h1V15H20V13H9v2H8v2H9v3h1v1h1v1h1Zm4-8V14h1v1h1V14h1v2H16Zm0,5v1H13V20Zm-5-4H10V14h1v1h1V14h1v2Z"/><path class="xa146-6" d="M19,12v1h1V11H19Z"/><path class="xa146-7" d="M10,12v1h1V11h1v2h1V11h1v2h1V11h1v2h1V11h1v2h1V11h1V10H19V9H18V8H11V9H10v1H9v1h1Z"/><path class="xa146-6" d="M17,11v2h1V11Z"/><path class="xa146-6" d="M15,11v2h1V11Z"/><path class="xa146-6" d="M13,11v2h1V11Z"/><path class="xa146-6" d="M11,11v2h1V11Z"/><path class="xa146-6" d="M10,12V11H9v2h1Z"/><path class="xa146-8" d="M0,8V33H6V27H7V26H8V25h2V22h1V21H10V20H9V17H8V15H9V10h1V9h1V8h7V9h1v1h1v5h1v2H20v3H19v1H18v1h1v3h2v1h1v1h1v6h6V0H0Z"/><rect class="xa146-4" x="12" y="24" width="1" height="1"/><path class="xa146-4" d="M13,25v2h1V25Z"/></svg>