<svg xmlns="http://www.w3.org/2000/svg" viewBox="0 0 29 33"><defs><style>polygon,rect,path{shape-rendering:crispedges;}.za173-1{fill:#7a982c;}.za173-2{fill:#000000;}.za173-3{fill:#b23b00;}.za173-4{fill:#e8b795;}.za173-5{fill:#ff791f;}.za173-6{fill:#5e362f;}.za173-7{fill:#ffffff;}.za173-8{fill:#5e362f;}.za173-9{fill:#000000;}.za173-10{fill:#00997c;}.za173-11{fill:#00e2b7;}.za173-12{fill:#00755f;}</style></defs><path class="za173-1" d="M6,32V27H7V26H8V25h2V24h1V23h1V22H11V21H10V20H9V16H8V15H9V10h1V9h1V8h7V9h1v1h1v5h1v1H20v2h1V17h3v1h1V17h1v1H25v5H24v8H23v1H21v1h8V0H0V33H6Z"/><path class="za173-1" d="M20,23V20H19v1H18v1H17v1h1v1h1v1h2V23Z"/><path class="za173-2" d="M23,26v5h1V25H23Z"/><path class="za173-2" d="M7,30V27H6v6H7V30Z"/><path class="za173-3" d="M7,31v2H8V31Z"/><path class="za173-3" d="M7,30H8V27H7v3Z"/><rect class="za173-2" x="7" y="26" width="1" height="1"/><path class="za173-2" d="M9,31V27H8v6H9V31Z"/><path class="za173-3" d="M20,32V26H19V25H18v1H17v1H16V25H15v2H14V25H13v2H12V26H11V25H10v1H9v6h1v1h4V32h1v1h4V32Zm-9-3H10V28h1Zm2,2H12V30h1Zm2,0H14V30h1Zm0-2H14V28h1Zm2,2H16V30h1Zm1-2V28h1v1Z"/><path class="za173-2" d="M10,26V25H8v1h2Z"/><rect class="za173-3" x="12" y="24" width="1" height="1"/><path class="za173-2" d="M11,26h2V25H12V24h1V22H12v1H11v1H10v1h1Z"/><rect class="za173-2" x="13" y="24" width="1" height="1"/><rect class="za173-2" x="14" y="32" width="1" height="1"/><rect class="za173-2" x="14" y="30" width="1" height="1"/><rect class="za173-2" x="14" y="28" width="1" height="1"/><path class="za173-2" d="M14,26v1h1V25H14Z"/><rect class="za173-2" x="15" y="24" width="1" height="1"/><path class="za173-4" d="M16,24V23H13v1h1v1h1V24Z"/><rect class="za173-3" x="16" y="24" width="1" height="1"/><path class="za173-2" d="M18,24V23H17V22H16v2h1v1H16v1h2V25h1V24Z"/><path class="za173-2" d="M22,32h1V31H22V25H19v1h2v1H20v6h1V32Z"/><path class="za173-3" d="M22,30v1h1V30Z"/><path class="za173-3" d="M23,28V26H22v3h1Z"/><rect class="za173-5" x="18" y="28" width="1" height="1"/><rect class="za173-5" x="16" y="30" width="1" height="1"/><path class="za173-5" d="M16,27h1V26H16Z"/><rect class="za173-5" x="12" y="30" width="1" height="1"/><rect class="za173-5" x="10" y="28" width="1" height="1"/><path class="za173-5" d="M12,27h1V26H12Z"/><path class="za173-5" d="M21,27V26H20v1Z"/><path class="za173-5" d="M9,32v1h1V32Z"/><path class="za173-5" d="M19,32v1h1V32Z"/><path class="za173-5" d="M23,29H22v1h1Z"/><path class="za173-5" d="M23,25H22v1h1Z"/><path class="za173-5" d="M7,31H8V30H7Z"/><path class="za173-5" d="M9,27V26H8v1Z"/><rect class="za173-2" x="20" y="15" width="1" height="1"/><path class="za173-2" d="M19,15h1V14H19Z"/><rect class="za173-4" x="13" y="20" width="1" height="1"/><rect class="za173-4" x="15" y="20" width="1" height="1"/><path class="za173-4" d="M10,17v1h1v1h1V18h2v1h1V18h2v1h1V18h1V16h1V15H19V12H18V11H17V10H12v1H11v1H10v3H9v1h1Zm1-3h1V13h1V12h3v1h1v1h1v1H16v1H15v1H14V16H13V15H11Z"/><path class="za173-2" d="M10,14H9v1h1Z"/><rect class="za173-2" x="8" y="15" width="1" height="1"/><path class="za173-6" d="M18,15V14H17v1Z"/><rect class="za173-6" x="16" y="13" width="1" height="1"/><rect class="za173-2" x="14" y="14" width="1" height="1"/><path class="za173-7" d="M13,15v1h3V15h1V14H16V13H13v1H12v1Zm1-1h1v1H14Z"/><path class="za173-6" d="M16,13V12H13v1h3Z"/><rect class="za173-6" x="12" y="13" width="1" height="1"/><rect class="za173-6" x="11" y="14" width="1" height="1"/><path class="za173-2" d="M14,17h1V16H14Z"/><path class="za173-8" d="M14,18H13v1h1Z"/><path class="za173-8" d="M19,17h1V16H19Z"/><path class="za173-8" d="M13,23h3V22h2V21h1V20h1V18H18v1H17V18H15v1h1v2H15V20H14v1H13V19H11V18H10V16H9v4h1v1h1v1h2Z"/><path class="za173-2" d="M13,19v1h3V19H13Z"/><path class="za173-2" d="M12,18v1h1V18Z"/><path class="za173-9" d="M10,13V12h1V11h1V10h5v1h1v1h1v2h1V10H19V9H18V8H11V9H10v1H9v4h1Z"/><path class="za173-10" d="M21,23V21H20v2Z"/><path class="za173-2" d="M22,20V18H21v2Z"/><path class="za173-2" d="M23,19v1h1V18H23Z"/><rect class="za173-2" x="22" y="21" width="1" height="1"/><path class="za173-11" d="M23,22H21v1h3V22Z"/><path class="za173-11" d="M20,21h2V20H21V18H20v3Z"/><path class="za173-11" d="M22,19v1h1V18h1V17H21v1h1Z"/><path class="za173-11" d="M23,20v1h2V18H24v2Z"/><path class="za173-12" d="M21,23v2h3V23H21Z"/><path class="za173-10" d="M24,21.223V23h1V21H24Z"/><path class="za173-11" d="M19,18h1V17H19Z"/><rect class="za173-11" x="25" y="17" width="1" height="1"/><rect class="za173-10" x="22" y="20" width="1" height="1"/><path class="za173-7" d="M22,22V21H21v1Z"/><path class="za173-7" d="M24,22V21H23v1Z"/></svg>