<svg xmlns="http://www.w3.org/2000/svg" viewBox="0 0 29 33"><defs><style>polygon,rect,path{shape-rendering:crispedges;}.aa85-1{fill:#d4a122;}.aa85-2{fill:#000000;}.aa85-3{fill:#b2622b;}.aa85-4{fill:#66334f;}.aa85-5{fill:#66334f;}.aa85-6{fill:#ffffff;}.aa85-7{fill:#893a1f;}.aa85-8{fill:#6f7032;}.aa85-9{fill:#004a77;}</style></defs><path class="aa85-1" d="M0,33H6V27H7V26H8V25h2V24h2V21H11V20H10V19H9V16H8V15H9V11h1V9h1V7h1V6H11V5h2V6h2V7h1V9h2v1h1v1h1v4h1v1H20v3H19v1H18v1H17v3h2v1h2v1h1v1h1v6h6V0H0Z"/><path class="aa85-2" d="M23,27H22v6h1V27Z"/><rect class="aa85-2" x="21" y="26" width="1" height="1"/><path class="aa85-3" d="M22,27H21v6h1V27Z"/><rect class="aa85-3" x="20" y="26" width="1" height="1"/><path class="aa85-2" d="M21,27H20v6h1V27Z"/><path class="aa85-2" d="M20,26h1V25H19v1Z"/><path class="aa85-4" d="M20,27V26H19V25H18v1H17v1H16v1H13V27H12V26H11V25H10v1H9v7h1V29h1v4h1V29h3v4h1V29h3v1H17v2h1V31h1v2h1V27Z"/><rect class="aa85-4" x="13" y="30" width="1" height="2"/><path class="aa85-2" d="M18,26V25h1V24H17v2Z"/><rect class="aa85-2" x="16" y="26" width="1" height="1"/><path class="aa85-2" d="M13,27v1h3V27H13Z"/><path class="aa85-2" d="M13,23h3v1h1V21H16v1H13V21H12v3h1Z"/><path class="aa85-3" d="M13,26v1h3V26h1V24H16V23H13v1H12v2Z"/><rect class="aa85-2" x="12" y="26" width="1" height="1"/><path class="aa85-2" d="M11,26h1V24H10v1h1Z"/><path class="aa85-2" d="M10,26V25H8v1h2Z"/><path class="aa85-3" d="M9,27V26H8v1Z"/><path class="aa85-2" d="M9,27H8v6H9V27Z"/><rect class="aa85-2" x="7" y="26" width="1" height="1"/><path class="aa85-3" d="M8,27H7v6H8V27Z"/><path class="aa85-2" d="M7,27H6v6H7V27Z"/><path class="aa85-5" d="M12,29v4h3V29Zm2,3H13V30h1Z"/><path class="aa85-5" d="M11,29H10v4h1V29Z"/><path class="aa85-5" d="M18,31v1H17V30h2V29H16v4h3V31Z"/><rect class="aa85-2" x="20" y="15" width="1" height="1"/><path class="aa85-2" d="M19,14v1h1V11H19v3Z"/><path class="aa85-3" d="M10,14h2V13H10Z"/><path class="aa85-3" d="M14,21V20H13V19h3V18h1v1H16v1H15v1h2V20h1V19h1V16h1V15H16V14h2V13H16V12h2v1h1V11H18V10H16v1H14V10H11v1H10v1h2v1h1v2H9v1h1v3h1v1h1v1h2Zm0-5h1v1H14Z"/><path class="aa85-2" d="M19,17v2h1V16H19Z"/><rect class="aa85-2" x="18" y="10" width="1" height="1"/><rect class="aa85-2" x="18" y="19" width="1" height="1"/><rect class="aa85-2" x="17" y="20" width="1" height="1"/><path class="aa85-2" d="M12,10h1V9H11v1Z"/><path class="aa85-2" d="M17,10h1V9H16v1Z"/><rect class="aa85-2" x="11" y="20" width="1" height="1"/><path class="aa85-2" d="M11,10H10v1h1Z"/><rect class="aa85-2" x="10" y="19" width="1" height="1"/><path class="aa85-2" d="M10,16H9v3h1V16Z"/><rect class="aa85-2" x="8" y="15" width="1" height="1"/><rect class="aa85-2" x="14" y="16" width="1" height="1"/><path class="aa85-6" d="M18,14v1h1V14Z"/><path class="aa85-6" d="M12,15h1V14H12Z"/><path class="aa85-2" d="M17,14H16v1h2V14Z"/><path class="aa85-2" d="M12,15V14H10V11H9v4h3Z"/><path class="aa85-7" d="M19,13H18v1h1Z"/><rect class="aa85-7" x="16" y="12" width="2" height="1"/><path class="aa85-7" d="M13,14V13H12v1Z"/><path class="aa85-7" d="M12,13V12H10v1Z"/><path class="aa85-8" d="M15,20H14v1H13v1h3V21H15Z"/><polygon class="aa85-2" points="16 20 16 19 13 19 13 20 14 20 15 20 16 20"/><rect class="aa85-2" x="16" y="18" width="1" height="1"/><path class="aa85-9" d="M13,10h1v1h2V7H15V6H13V5H11V6h1V7H11V9h2Z"/><path class="aa85-9" d="M11,9H10v1h1Z"/><rect class="aa85-9" x="10" y="9" width="1" height="1"></rect></svg>