<svg xmlns="http://www.w3.org/2000/svg" viewBox="0 0 29 33"><defs><style>polygon,rect,path{shape-rendering:crispedges;}.va297-1{fill:#7a982c;}.va297-2{fill:#000000;}.va297-3{fill:#990000;}.va297-4{fill:#ce8452;}.va297-5{fill:#99582c;}.va297-6{fill:#cbed03;}</style></defs><path class="va297-1" d="M0,33H29V0H0Zm6-1V24H7V23H8v1H9v1h1V22h1V20H10V19H9V16H8V15H9V11h1V10h1V9h2V7h1V5h1V6h1V8h1V9h1v1h1v1h1v4h1v1H20v3H19v1H18v2h1v3h1V24h1V23h1v1h1v9H6Z"/><rect class="va297-1" x="16" y="21" width="1"/><rect class="va297-1" x="15" y="16" height="1"/><rect class="va297-1" x="11" y="10" height="1"/><path class="va297-1" d="M12,21h1v1h0V21H12V20H11V19h0v1h1Z"/><rect class="va297-1" x="17" y="20" width="1"/><path class="va297-1" d="M10,18V16h0v3h0Z"/><path class="va297-2" d="M7,32V24H6v9H7Z"/><path class="va297-3" d="M8,27H7v6H8V27Z"/><path class="va297-2" d="M21,27H20v4H14V27H13v4H9V27H8v6H9V32H20v1h1V27Z"/><path class="va297-3" d="M19,32H9v1H20V32Z"/><path class="va297-2" d="M11,24V22H10v3h1Z"/><path class="va297-3" d="M9,27v4h4V27h1V25H13V24H12V22H11v3H10v2Z"/><rect class="va297-2" x="13" y="24" width="1" height="1"/><path class="va297-2" d="M15,26V25H14v2h1Z"/><path class="va297-4" d="M15,24h1V23H13v1h1v1h1Z"/><rect class="va297-2" x="15" y="24" width="1" height="1"/><path class="va297-2" d="M18,25h1V22H18v3Z"/><path class="va297-3" d="M17,23v1H16v1H15v2H14v4h6V27H19V25H18V22H17Z"/><path class="va297-3" d="M22,27H21v6h1V27Z"/><polygon class="va297-2" points="21 16 21 15 20 15 20 16 21 16"/><rect class="va297-4" x="10" y="13" width="1" height="1"/><path class="va297-4" d="M10,16v3h1v1h1v1h1v1h3V21h1V20h1V19h1V16h1V15H18v1H16V15H15V14H14v1H13v1H11V15H9v1Zm4,0h1v1H14Zm-1,3h3V18h1v1H16v1H13Z"/><path class="va297-4" d="M15,10H14v1H13V10H11v1H10v1h2v1h4V12h2v1h1v1h0V11H18V10H15Z"/><path class="va297-2" d="M19,19h1V16H19Z"/><polygon class="va297-2" points="18 11 19 11 19 10 18 10 18 11 18 11"/><polygon class="va297-2" points="18 20 18 20 19 20 19 19 18 19 18 20"/><path class="va297-2" d="M12,23v1h1V23h3v1h1V22h1V20H17v1H16v1H13V21H12V20H11v2h1Z"/><path class="va297-2" d="M15,10h3V9H15Z"/><path class="va297-2" d="M12,10h1V9H11v1h1Z"/><polygon class="va297-2" points="10 19 10 19 10 20 11 20 11 19 10 19"/><path class="va297-2" d="M10,16H9v3h1V16Z"/><polygon class="va297-2" points="15 16 14 16 14 17 15 17 15 16"/><polygon class="va297-5" points="18 13 18 14 19 14 19 13 18 13"/><path class="va297-5" d="M16,12v1h2V12Z"/><path class="va297-5" d="M10,12h0v1h2V12Z"/><rect class="va297-2" x="13" y="19" width="3" height="1"/><rect class="va297-2" x="16" y="18" width="1" height="1"/><path class="va297-4" d="M21,27h1V24H21v1H20v2Z"/><path class="va297-2" d="M20,27V25H19v2Z"/><path class="va297-2" d="M22,27v6h1V24H22v3Z"/><rect class="va297-2" x="20" y="24" width="1" height="1"/><rect class="va297-2" x="21" y="23" width="1" height="1"/><path class="va297-4" d="M7,27H9V25H8V24H7v3Z"/><path class="va297-2" d="M10,27V25H9v2Z"/><rect class="va297-2" x="8" y="24" width="1" height="1"/><rect class="va297-2" x="7" y="23" width="1" height="1"/><path class="va297-6" d="M13,11h1V10h1V9h2V8H16V6H15V5H14V7H13v4Z"/><path class="va297-2" d="M10,15h1v1h2V15h1V14h1v1h1v1h2V15h2V11H19v3H18V13H11v1H10V13h0V12h0V11h1V10H10v1H9v4H8v1H9V15Z"/></svg>