<svg xmlns="http://www.w3.org/2000/svg" viewBox="0 0 29 33"><defs><style>polygon,rect,path{shape-rendering:crispedges;}.ba134-1{fill:#7a982c;}.ba134-2{fill:#000000;}.ba134-3{fill:#ce8452;}.ba134-4{fill:#db5800;}.ba134-5{fill:#841f00;}.ba134-6{fill:#ffffff;}.ba134-7{fill:#990000;}.ba134-8{fill:#990000;}.ba134-9{fill:#c8a715;}.ba134-10{fill:#ffce00;}.ba134-11{fill:#ccc;}.ba134-12{fill:#ff1d99;}.ba134-13{fill:#9b005c;}</style></defs><path class="ba134-1" d="M12,22H11v2h1V22Z"/><path class="ba134-1" d="M18,24V22H17v2Z"/><path class="ba134-1" d="M0,33H6V25H7V24H6V23H7V22H8v1H9v1H8v1h2V20H9V17H7V13H8V9H9V8h1V7h1V6h7V7h1V8h1V9h1v4h1v4H20v3H19v5h2v1h1v1h1v6h6V0H0Z"/><path class="ba134-2" d="M23,27H22v6h1V27Z"/><rect class="ba134-2" x="21" y="26" width="1" height="1"/><path class="ba134-3" d="M22,27H21v6h1V27Z"/><rect class="ba134-3" x="20" y="26" width="1" height="1"/><path class="ba134-2" d="M21,27H20v6h1V27Z"/><path class="ba134-2" d="M20,26h1V25H19v1Z"/><path class="ba134-4" d="M17,30h1V29h1v1h1V26H19V25H18v1H17v1H16v1H13V27H12V26H11V25H10v1H9v4h1V29h1v1h1v3h1V29h2v1h1v2H15v1h2V30Z"/><rect class="ba134-4" x="18" y="32" width="1" height="1"/><path class="ba134-4" d="M14,31v1h1V30H14Z"/><rect class="ba134-4" x="10" y="30" width="1" height="1"/><rect class="ba134-4" x="10" y="32" width="1" height="1"/><rect class="ba134-4" x="18" y="30" width="1" height="1"/><path class="ba134-2" d="M17,24v2h1V25h1V24H17Z"/><path class="ba134-2" d="M9,30V26h1V25H8v8H9V30Z"/><path class="ba134-3" d="M8,25H7v8H8V25Z"/><path class="ba134-2" d="M7,25H6v8H7V25Z"/><path class="ba134-2" d="M11,26h1V24H10v1h1Z"/><rect class="ba134-2" x="12" y="26" width="1" height="1"/><rect class="ba134-2" x="16" y="26" width="1" height="1"/><path class="ba134-2" d="M13,27v1h3V27H13Z"/><path class="ba134-3" d="M16,25V23H13v2H12v1h1v1h3V26h1V25Z"/><path class="ba134-5" d="M20,30H19v1H18V30H17v3h1V32h1v1h1V30Z"/><rect class="ba134-5" x="18" y="29" width="1" height="1"/><path class="ba134-5" d="M16,32V30H15v2Z"/><path class="ba134-5" d="M14,32V30h1V29H13v4h2V32Z"/><path class="ba134-5" d="M12,30H11v1H10V30H9v3h1V32h1v1h1V30Z"/><rect class="ba134-5" x="10" y="29" width="1" height="1"/><path class="ba134-3" d="M18,16H16V14h2V13H16V12h2V11H11v1h1v1h1v3H10v2h1v1h1V18h2v1h1V18h2v1h1V18h1V16Zm-3,1H14V16h1Z"/><path class="ba134-3" d="M10,14h2V13H10Z"/><rect class="ba134-3" x="18" y="12" width="1" height="1"/><polygon class="ba134-3" points="13 21 14 21 14 22 15 22 15 21 16 21 16 20 13 20 13 21"/><path class="ba134-2" d="M19,16v1h1V16Z"/><path class="ba134-2" d="M10,16H9v1h1Z"/><rect class="ba134-2" x="14" y="16" width="1" height="1"/><path class="ba134-6" d="M11,15V14H10v2h1Z"/><path class="ba134-6" d="M12,15v1h1V14H12Z"/><path class="ba134-6" d="M16,14v2h1V14Z"/><path class="ba134-6" d="M18,14v2h1V14Z"/><path class="ba134-2" d="M12,14H11v2h1V14Z"/><path class="ba134-2" d="M17,14v2h1V14Z"/><rect class="ba134-7" x="18" y="13" width="1" height="1"/><rect class="ba134-7" x="16" y="12" width="2" height="1"/><path class="ba134-7" d="M13,14V13H12v1Z"/><path class="ba134-7" d="M10,13h2V12H10Z"/><path class="ba134-8" d="M12,22v1h5V22h2V20h1V17H19v1H18v1H17V18H15v1h1v2H15v1H14V21H13V19h1V18H12v1H11V18H10V17H9v3h1v2h2Z"/><path class="ba134-9" d="M18,23h1V22H18Z"/><path class="ba134-8" d="M18,24h1V23H18Z"/><path class="ba134-9" d="M17,24V23H16v1Z"/><path class="ba134-8" d="M16,25h1V24H16Z"/><path class="ba134-9" d="M13,23H12v1h1Z"/><path class="ba134-8" d="M13,24H12v1h1Z"/><path class="ba134-9" d="M11,22H10v1h1Z"/><path class="ba134-8" d="M11,23H10v1h1Z"/><path class="ba134-2" d="M13,19v1h3V19H13Z"/><rect class="ba134-10" x="19" y="8" width="1" height="1"/><rect class="ba134-10" x="10" y="7" width="1" height="1"/><rect class="ba134-10" x="9" y="8" width="1" height="1"/><rect class="ba134-10" x="18" y="7" width="1" height="1"/><rect class="ba134-10" x="11" y="6" width="7" height="1"/><path class="ba134-10" d="M21,10V9H20v1Z"/><path class="ba134-10" d="M9,9H8v1H9Z"/><path class="ba134-10" d="M10,12h1V11h7v1h1v1h1V10H19V9H18V8H11V9H10v1H9v3h1Z"/><path class="ba134-6" d="M9,15V10H8v3H7v3H8v1H9V15Z"/><rect class="ba134-6" x="9" y="9" width="1" height="1"/><rect class="ba134-6" x="10" y="8" width="1" height="1"/><rect class="ba134-6" x="11" y="7" width="7" height="1"/><rect class="ba134-6" x="18" y="8" width="1" height="1"/><rect class="ba134-6" x="19" y="9" width="1" height="1"/><path class="ba134-11" d="M10,13H9v3h1V13Z"/><path class="ba134-6" d="M20,11v6h1V16h1V13H21V10H20Z"/><path class="ba134-11" d="M19,14v2h1V13H19Z"/><path class="ba134-11" d="M7,16v1H8V16Z"/><path class="ba134-11" d="M21,17h1V16H21Z"/><rect class="ba134-12" x="7" y="22" width="1" height="1"/><rect class="ba134-12" x="6" y="23" width="1" height="1"/><rect class="ba134-12" x="8" y="23" width="1" height="1"/><path class="ba134-12" d="M8,24.5V24H7v1H8Z"/><rect class="ba134-13" x="7" y="23" width="1" height="1"/></svg>