<svg xmlns="http://www.w3.org/2000/svg" viewBox="0 0 29 33"><defs><style>polygon,rect,path{shape-rendering:crispedges;}.ga126-1{fill:#e55b35;}.ga126-2{fill:#000000;}.ga126-3{fill:#875070;}.ga126-4{fill:#b2622b;}.ga126-5{fill:#875070;}.ga126-6{fill:#5e362f;}.ga126-7{fill:#ffffff;}.ga126-8{fill:#5e362f;}.ga126-9{fill:#00686d;}.ga126-10{fill:#fad000;}.ga126-11{fill:#38a6e8;}.ga126-12{fill:#184226;}.ga126-13{fill:#cc3232;}.ga126-14{fill:#590035;}.ga126-15{fill:#b2622b;}.ga126-16{fill:#0079bc;}.ga126-17{fill:#663228;}.ga126-18{fill:#317f03;}</style></defs><path class="ga126-1" d="M0,33H6V27H7V26H8V25h2V24h2V22H11V21H10V20H9V16H8V15H9V11h1V10h1V9h7v1h1v1h1v4h1v1H20v4H19v1H18v1H17v2h2V23h2V22h1V21h2v1h1v1h1v9H21v1h8V0H0Z"/><rect class="ga126-2" x="20" y="32" width="1" height="1"/><path class="ga126-3" d="M15,29H14v2h1V29Z"/><rect class="ga126-3" x="10" y="29" width="1" height="1"/><rect class="ga126-3" x="18" y="29" width="1" height="1"/><path class="ga126-3" d="M19,32V31H18v1H17V29h1V28h1V25H17v1H16v1H13V26H12V25H10v1H8v1H9v2h1V28h1v1h1v3H11V31H10v1H9v1H20V32Zm-3-2v1H15v1H13V28h2v1h1Z"/><path class="ga126-2" d="M18,25h1V24H17v1Z"/><path class="ga126-2" d="M16,24h1V23H16Z"/><rect class="ga126-2" x="16" y="25" width="1" height="1"/><path class="ga126-2" d="M13,26v1h3V26H13Z"/><path class="ga126-2" d="M13,23H12v1h1Z"/><path class="ga126-4" d="M13,25v1h3V25h1V24H16V23H13v1H12v1Z"/><rect class="ga126-2" x="12" y="25" width="1" height="1"/><path class="ga126-2" d="M12,24H10v1h2Z"/><path class="ga126-2" d="M10,25H8v1h2Z"/><path class="ga126-2" d="M9,31V27H8v6H9V31Z"/><rect class="ga126-2" x="7" y="26" width="1" height="1"/><path class="ga126-3" d="M8,27H7v6H8V27Z"/><path class="ga126-2" d="M7,27H6v6H7V27Z"/><path class="ga126-5" d="M18,30V29H17v3h1V31h1V30Z"/><rect class="ga126-5" x="18" y="28" width="1" height="1"/><path class="ga126-5" d="M15,30v1h1V29H15Z"/><path class="ga126-5" d="M14,30V29h1V28H13v4h2V31H14Z"/><path class="ga126-5" d="M9,32h1V31h1v1h1V29H11v1H10V29H9v3Z"/><rect class="ga126-5" x="10" y="28" width="1" height="1"/><rect class="ga126-2" x="20" y="15" width="1" height="1"/><path class="ga126-2" d="M19,13v2h1V12H19Z"/><rect class="ga126-4" x="17" y="10" width="1" height="1"/><path class="ga126-4" d="M10,17h1v1h5v1h1V18h1V17h1V16h1V15H19V11H18v1H17V11H16V10H13v1H12v1H11V11H10v4H9v1h1Zm1-3h1V13h1V12h3v1h1v1h1v1H16v1H15v1H14V16H13V15H11Z"/><rect class="ga126-4" x="11" y="10" width="1" height="1"/><path class="ga126-2" d="M10,14V12H9v3h1Z"/><rect class="ga126-2" x="8" y="15" width="1" height="1"/><path class="ga126-6" d="M18,15V14H17v1Z"/><rect class="ga126-6" x="16" y="13" width="1" height="1"/><rect class="ga126-2" x="14" y="14" width="1" height="1"/><path class="ga126-7" d="M13,15v1h3V15h1V14H16V13H13v1H12v1Zm1-1h1v1H14Z"/><path class="ga126-6" d="M16,13V12H13v1h3Z"/><rect class="ga126-6" x="12" y="13" width="1" height="1"/><rect class="ga126-6" x="11" y="14" width="1" height="1"/><path class="ga126-2" d="M14,17h1V16H14Z"/><path class="ga126-8" d="M15,18H13v1h3V18Z"/><path class="ga126-8" d="M14,23h3V22h1V21h1V20h1V16H19v1H18v1H17v1H16v1H13V19H12V18H11V17H10V16H9v4h1v1h1v1h1v1h2Z"/><rect class="ga126-2" x="13" y="19" width="3" height="1"/><path class="ga126-2" d="M12,18v1h1V18Z"/><path class="ga126-9" d="M20,12V11H19v1Z"/><rect class="ga126-9" x="18" y="10" width="1" height="1"/><path class="ga126-9" d="M12,11h1V10h3v1h1V10h1V9H11v1h1Z"/><rect class="ga126-9" x="17" y="11" width="1" height="1"/><rect class="ga126-9" x="11" y="11" width="1" height="1"/><rect class="ga126-9" x="10" y="10" width="1" height="1"/><path class="ga126-9" d="M10,11H9v1h1Z"/><path class="ga126-7" d="M20,25H19v1h1Z"/><path class="ga126-2" d="M24,21H22v1h2Z"/><rect class="ga126-2" x="21" y="22" width="1" height="1"/><rect class="ga126-2" x="24" y="22" width="1" height="1"/><path class="ga126-4" d="M22,24h2V22H22v2Z"/><path class="ga126-10" d="M24,26V25h1V24H23v2Z"/><path class="ga126-11" d="M20,25h1v1h1V25h1V24H20V23H19v2Z"/><path class="ga126-11" d="M22,28h1V26H22v2Z"/><path class="ga126-12" d="M19,30h1v1h2V30H21V29H20V28H19v2Z"/><path class="ga126-12" d="M21,28v1h1v1h2V28H21Z"/><path class="ga126-12" d="M25,31H24v1h2V30H25Z"/><path class="ga126-7" d="M23,25H22v1h1Z"/><path class="ga126-7" d="M21,24h1V23H20v1Z"/><path class="ga126-7" d="M26,24V23H25v1Z"/><path class="ga126-13" d="M20,27H19v1h1Z"/><path class="ga126-13" d="M22,28V27H21v1Z"/><rect class="ga126-2" x="20" y="27" width="1" height="1"/><path class="ga126-14" d="M21,27h1V26H21V25H20v1H19v1h2Z"/><rect class="ga126-15" x="20" y="28" width="1" height="1"/><rect class="ga126-15" x="21" y="29" width="1" height="1"/><path class="ga126-15" d="M22,31h1V30H22Z"/><path class="ga126-15" d="M23,31v1h1V31Z"/><path class="ga126-11" d="M25,25v1h1V24H25Z"/><path class="ga126-11" d="M24,24h1V23H24Z"/><path class="ga126-16" d="M24,29v1H23v1h2V30h1V29H24Z"/><path class="ga126-16" d="M22,31H21v1h2V31Z"/><path class="ga126-12" d="M25,29h1V28H25Z"/><path class="ga126-17" d="M25,29V27H24v2Z"/><path class="ga126-18" d="M25,25H24v1H23v2h1V27h1v1h1V26H25Z"/><path class="ga126-18" d="M20,31V30H19v2h2V31Z"/></svg>