<svg xmlns="http://www.w3.org/2000/svg" viewBox="0 0 29 33"><defs><style>polygon,rect,path{shape-rendering:crispedges;}.ma128-1{fill:#6b4f99;}.ma128-2{fill:#000000;}.ma128-3{fill:#c5e2d0;}.ma128-4{fill:#cc3232;}.ma128-5{fill:#6d3e35;}.ma128-6{fill:#508e91;}.ma128-7{fill:#ffffff;}.ma128-8{fill:#8e703c;}.ma128-9{fill:#8e703c;}.ma128-10{fill:#f9e100;}.ma128-11{fill:#fad000;}.ma128-12{fill:#c6e5e4;}</style></defs><path class="ma128-1" d="M0,33H6V27H7V26H8V25h2V24h2V21H10V20H9V17H8V15H9V11h1V10h1V9h2V7h1V6h2V5h2V6H17V7h1V9h1v2h1v4h1v2H20v3H19v1H17v3h2v1h2V23h2V22H22V21H21V20h1V19h3v1h1v1H25v1H24v1h1v1H24v7H23v1H21v1h8V0H0Z"/><path class="ma128-2" d="M23,25v6h1V24H23Z"/><path class="ma128-2" d="M7,30V27H6v6H7V30Z"/><path class="ma128-3" d="M7,31v2H8V31Z"/><path class="ma128-3" d="M7,30H8V27H7v3Z"/><rect class="ma128-2" x="7" y="26" width="1" height="1"/><path class="ma128-2" d="M9,31V27H8v6H9V31Z"/><path class="ma128-3" d="M11,29H10V28h1V25H10v1H9v6h1v1h1V29Z"/><path class="ma128-2" d="M10,26V25H8v1h2Z"/><path class="ma128-2" d="M12,26h1V25H12V24H10v1h1v8h1V26Z"/><path class="ma128-4" d="M17,26H16v1H13V26H12v7h5V26Z"/><path class="ma128-2" d="M13,23h3v1h1V21H16v1H13V21H12v3h1Z"/><path class="ma128-2" d="M13,26v1h3V26H13Z"/><path class="ma128-5" d="M13,25v1h3V25h1V24H16V23H13v1H12v1Z"/><path class="ma128-2" d="M18,29V25h1V24H17v1H16v1h1v7h1V29Z"/><path class="ma128-3" d="M20,32V26H19V25H18v3h1v1H18v4h1V32Z"/><path class="ma128-2" d="M22,32h1V31H22V23H21v2H19v1h2v1H20v6h1V32Z"/><path class="ma128-3" d="M22,30v1h1V30Z"/><path class="ma128-3" d="M23,24H22v1h1Z"/><path class="ma128-3" d="M23,28V26H22v3h1Z"/><path class="ma128-6" d="M19,29V28H18v1Z"/><path class="ma128-6" d="M10,29h1V28H10Z"/><path class="ma128-6" d="M21,27V26H20v1Z"/><path class="ma128-6" d="M9,32v1h1V32Z"/><path class="ma128-6" d="M19,32v1h1V32Z"/><path class="ma128-6" d="M23,29H22v1h1Z"/><path class="ma128-6" d="M23,25H22v1h1Z"/><path class="ma128-6" d="M7,31H8V30H7Z"/><path class="ma128-6" d="M9,27V26H8v1Z"/><path class="ma128-2" d="M21,16V15H20v1Z"/><path class="ma128-2" d="M19,13v1H17v1h3V11H19v2Z"/><path class="ma128-5" d="M13,22h3V21h1V20h1V18h1V16h1V15H16V14h3V13H16V12h3V11H18V10H15v1H13V10H11v1H10v1h3v1H10v1h3v1H9v1h1v2h1v2h1v1h1Zm1-6h1v1H14Zm-2,3V18h1v1h3v1H13V19Z"/><path class="ma128-2" d="M19,16v1h1V16Z"/><path class="ma128-2" d="M18,11h1V10H18Z"/><path class="ma128-2" d="M13,9H11v1h2Z"/><path class="ma128-2" d="M16,10h2V9H16Z"/><rect class="ma128-2" x="10" y="10" width="1" height="1"/><path class="ma128-2" d="M10,14V11H9v4h1Z"/><path class="ma128-2" d="M10,16H9v1h1Z"/><path class="ma128-2" d="M9,15H8v1H9Z"/><rect class="ma128-2" x="14" y="16" width="1" height="1"/><path class="ma128-7" d="M11,15V14H10v1Z"/><path class="ma128-7" d="M16,14v1h1V14Z"/><path class="ma128-2" d="M12,15h1V14H11v1Z"/><path class="ma128-8" d="M13,13V12H10v1Z"/><path class="ma128-8" d="M16,12v1h3V12Z"/><path class="ma128-9" d="M19,18H18v2H17v1h2V20h1V17H19Z"/><path class="ma128-9" d="M11,20V18H10V17H9v3h1v1h2V20Z"/><rect class="ma128-2" x="13" y="19" width="3" height="1"/><rect class="ma128-2" x="12" y="18" width="1" height="1"/><path class="ma128-10" d="M13,11h2V10h1V9h2V7H17V6h1V5H16V6H14V7H13v4Z"/><path class="ma128-10" d="M19,10V9H18v1Z"/><path class="ma128-11" d="M20,17h1V16H20Z"/><path class="ma128-11" d="M8,16v1H9V16Z"/><path class="ma128-7" d="M25,22V21h1V20H25V19H23v1h1v1H23v1h2Z"/><path class="ma128-12" d="M24,21V20H23V19H22v1H21v1h1v1h1V21Z"/><path class="ma128-12" d="M24,22H23v1h1Z"/><path class="ma128-5" d="M23,24h1V23H22v1Z"/><rect class="ma128-2" x="24" y="23" width="1" height="1"/><rect class="ma128-10" x="18" y="9" width="1" height="1"></rect></svg>