<svg xmlns="http://www.w3.org/2000/svg" viewBox="0 0 29 33"><defs><style>polygon,rect,path{shape-rendering:crispedges;}.pa85-1{fill:#31a09d;}.pa85-2{fill:#000000;}.pa85-3{fill:#317f03;}.pa85-4{fill:#6d3e35;}.pa85-5{fill:#225600;}.pa85-6{fill:#8e703c;}.pa85-7{fill:#8e703c;}.pa85-8{fill:#004a77;}.pa85-9{fill:#ffffff;}</style></defs><rect class="pa85-1" x="18" y="23" width="1" height="1"/><path class="pa85-1" d="M0,33H6V27H7V26H8V25h2V24h1V23H10V22h1V21H10V20H9V16H8V15H9V10h1V9h1V8h1V9h1V8h3V7h1V8h2V9h1v1H19v1h1v4h1v1H20v4H19v1h3v4h1v8h6V0H0Z"/><rect class="pa85-1" x="18" y="21" width="1" height="1"/><rect class="pa85-1" x="16" y="8" width="1" height="1"/><path class="pa85-2" d="M7,27H6v6H7V27Z"/><path class="pa85-3" d="M8,27H7v6H8V27Z"/><rect class="pa85-2" x="7" y="26" width="1" height="1"/><path class="pa85-2" d="M9,27H8v6H9V27Z"/><path class="pa85-3" d="M10,30h1V29h1V25h1V24H11v1H10v1H8v1H9v6h1V30Z"/><path class="pa85-3" d="M20,26H19V25H18V24H16v1h1v4h1v1h1v3h1V26Z"/><path class="pa85-2" d="M10,25H8v1h2Z"/><rect class="pa85-2" x="10" y="24" width="1" height="1"/><rect class="pa85-2" x="10" y="22" width="1" height="1"/><rect class="pa85-3" x="11" y="22" width="1" height="1"/><path class="pa85-2" d="M13,23V22H12v1H11v1h2Z"/><path class="pa85-2" d="M13,24v1h3V24H13Z"/><path class="pa85-4" d="M15,23H13v1h3V23Z"/><path class="pa85-2" d="M17,23V22H16v2h2V23Z"/><rect class="pa85-3" x="17" y="22" width="1" height="1"/><rect class="pa85-2" x="18" y="24" width="1" height="1"/><rect class="pa85-2" x="18" y="22" width="1" height="1"/><path class="pa85-2" d="M21,27V26H20v7h1V27Z"/><path class="pa85-3" d="M22,27H21v6h1V27Z"/><path class="pa85-2" d="M23,25H22v8h1V25Z"/><path class="pa85-3" d="M13,25v3h3V25H13Z"/><path class="pa85-3" d="M16,32H12v1h5V32Z"/><rect class="pa85-3" x="12" y="30" width="1" height="1"/><rect class="pa85-3" x="16" y="30" width="1" height="1"/><path class="pa85-5" d="M19,30H18V29H17v2H16V28H13v3H12V29H11v1H10v3h2V32h5v1h2V30Z"/><path class="pa85-2" d="M13,25H12v5h1V25Z"/><path class="pa85-2" d="M16,28v2h1V25H16v3Z"/><rect class="pa85-2" x="20" y="15" width="1" height="1"/><rect class="pa85-4" x="10" y="12" width="1" height="1"/><path class="pa85-4" d="M17,13v1h2V13Z"/><path class="pa85-4" d="M17,13V12h1V11H13V10H12v1H11v1h2v1H11v1h5V13Z"/><rect class="pa85-4" x="15" y="20" width="1" height="1"/><rect class="pa85-4" x="13" y="20" width="1" height="1"/><rect class="pa85-4" x="19" y="15" width="1" height="1"/><path class="pa85-4" d="M18,17H16V16H15v1H14V16H13v1H11V16H10v2h1v1h1V18h2v1h1V18h2v1h1V18h1V16H18Z"/><rect class="pa85-4" x="14" y="15" width="1" height="1"/><rect class="pa85-4" x="9" y="15" width="1" height="1"/><rect class="pa85-2" x="8" y="15" width="1" height="1"/><rect class="pa85-2" x="14" y="16" width="1" height="1"/><rect class="pa85-6" x="10" y="13" width="1" height="1"/><rect class="pa85-6" x="11" y="12" width="2" height="1"/><rect class="pa85-6" x="16" y="13" width="1" height="1"/><path class="pa85-6" d="M17,13h2V12H17Z"/><path class="pa85-7" d="M13,22v1h3V22h2V21h1V20h1V16H19v2H18v1H17V18H15v1h1v2H15V20H14v1H13V19h1V18H12v1H11V18H10V16H9v4h1v1h1v1h2Z"/><path class="pa85-2" d="M13,19v1h3V19H13Z"/><path class="pa85-8" d="M10,13V12h1V11h1V10h1v1h5v1h1v2h1V11H19V10h1V9H19V8H17V9H16V8H13V9H12V8H11V9H10v1H9v4h1Z"/><rect class="pa85-8" x="16" y="7" width="1" height="1"/><path class="pa85-2" d="M10,16h1v1h2V16h1V15h1v1h1v1h2V16h1V15h1V14H9v1h1Z"/><rect class="pa85-2" x="20" y="22" width="1" height="1"/><path class="pa85-9" d="M19,23v3h1V25h2V21H19v2Zm1-1h1v1H20Z"/><path class="pa85-4" d="M20,26h1v1h1V25H20Z"/></svg>