<svg xmlns="http://www.w3.org/2000/svg" viewBox="0 0 29 33"><defs><style>polygon,rect,path{shape-rendering:crispedges;}.da281-1{fill:#31a09d;}.da281-2{fill:#000000;}.da281-3{fill:#990000;}.da281-4{fill:#e8b795;}.da281-5{fill:#990000;}.da281-6{fill:#4922aa;}.da281-7{fill:#4922aa;}.da281-8{fill:#cc3232;}.da281-9{fill:#db5800;}</style></defs><path class="da281-1" d="M0,33H6V27H7V26H8V25h2V24h2V21H9V20H8V19H9V16H8V15H9V10h1V9h1V8h7V9h1v2h1v4h1v1H20v3h1v1H20v1H17v3h2v1h2v1h1v1h1v6h6V0H0Z"/><path class="da281-2" d="M23,27H22v3H21V27H20v6h1V31h1v2h1V27Z"/><rect class="da281-2" x="21" y="26" width="1" height="1"/><path class="da281-3" d="M21,28v2h1V27H21Z"/><path class="da281-4" d="M21,31v2h1V31Z"/><path class="da281-2" d="M20,26h1V25H19v1Z"/><rect class="da281-3" x="10" y="29" width="1" height="1"/><path class="da281-3" d="M15,29H14v2h1V29Z"/><rect class="da281-3" x="18" y="29" width="1" height="1"/><path class="da281-3" d="M19,32V31H18v1H17V29h1V28h1v1h1V27h1V26H19V25H17v1H16v1H13V26H12V25H10v1H8v1H9v2h1V28h1v1h1v3H11V31H10v1H9v1H20V32Zm-3-2v1H15v1H13V28h2v1h1Z"/><path class="da281-2" d="M18,25h1V24H17v1Z"/><rect class="da281-2" x="16" y="25" width="1" height="1"/><path class="da281-2" d="M13,26v1h3V26H13Z"/><path class="da281-2" d="M13,23h3v1h1V21H16v1H13V21H12v3h1Z"/><path class="da281-4" d="M13,25v1h3V25h1V24H16V23H13v1H12v1Z"/><rect class="da281-2" x="12" y="25" width="1" height="1"/><path class="da281-2" d="M12,24H10v1h2Z"/><path class="da281-2" d="M10,25H8v1h2Z"/><path class="da281-2" d="M9,31V27H8v3H7V27H6v6H7V31H8v2H9V31Z"/><rect class="da281-2" x="7" y="26" width="1" height="1"/><path class="da281-3" d="M7,30H8V27H7v3Z"/><path class="da281-4" d="M7,31v2H8V31Z"/><path class="da281-5" d="M19,30H18V29H17v3h1V31h1v1h1V29H19Z"/><rect class="da281-5" x="18" y="28" width="1" height="1"/><path class="da281-5" d="M15,30v1h1V29H15Z"/><path class="da281-5" d="M14,30V29h1V28H13v4h2V31H14Z"/><path class="da281-5" d="M9,32h1V31h1v1h1V29H11v1H10V29H9v3Z"/><rect class="da281-5" x="10" y="28" width="1" height="1"/><rect class="da281-2" x="20" y="15" width="1" height="1"/><path class="da281-2" d="M19,13H15v1h4v1h1V11H19v2Z"/><rect class="da281-4" x="19" y="15" width="1" height="1"/><path class="da281-4" d="M18,10H17v1H16V10H15v1H14V10H13v1H12V10H11v1H10v2h1V12h2v1h1v1h1V13h2V12h2V11H18Z"/><path class="da281-4" d="M13,22h3V21h1V19h1V18h1V16H16V15H13v1H10v2h1v1h1V18h1v1h3v1H13V19H12v2h1Zm2-5H14V16h1Z"/><rect class="da281-4" x="9" y="15" width="1" height="1"/><path class="da281-2" d="M17,20v1h1V20Z"/><rect class="da281-2" x="13" y="9" width="1" height="1"/><rect class="da281-2" x="17" y="9" width="1" height="1"/><rect class="da281-2" x="15" y="9" width="1" height="1"/><rect class="da281-2" x="11" y="9" width="1" height="1"/><path class="da281-2" d="M11,20v1h1V20Z"/><rect class="da281-2" x="10" y="10" width="1" height="1"/><rect class="da281-2" x="8" y="15" width="1" height="1"/><rect class="da281-2" x="14" y="16" width="1" height="1"/><path class="da281-6" d="M11,12v1h2V12Z"/><path class="da281-6" d="M19,12H17v1h2Z"/><path class="da281-7" d="M19,17v1H18v1H17v1h1v1h2V20h1V19H20V16H19Z"/><path class="da281-7" d="M12,20V19H11V18H10V16H9v3H8v1H9v1h2V20Z"/><rect class="da281-2" x="13" y="19" width="3" height="1"/><rect class="da281-2" x="12" y="18" width="1" height="1"/><path class="da281-8" d="M18,11h1V9H18v2Z"/><path class="da281-8" d="M12,10v1h1V9h1v2h1V9h1v2h1V9h1V8H11V9h1Z"/><rect class="da281-8" x="10" y="9" width="1" height="1"/><path class="da281-8" d="M10,10H9v1h1Z"/><path class="da281-9" d="M13,14H10v2h3V15h1V14Z"/><path class="da281-9" d="M19,14H15v1h1v1h3V14Z"/><path class="da281-2" d="M10,14h4V13H10V11H9v4h1Z"/><path class="da281-2" d="M14,14v1h1V14Z"/></svg>