<svg xmlns="http://www.w3.org/2000/svg" viewBox="0 0 29 33"><defs><style>polygon,rect,path{shape-rendering:crispedges;}.ja8-1{fill:#db5a8e;}.ja8-2{fill:#000000;}.ja8-3{fill:#d2d8b8;}.ja8-4{fill:#8e9350;}.ja8-5{fill:#ce8452;}.ja8-6{fill:#7f5018;}.ja8-7{fill:#fad000;}.ja8-8{fill:#7f5018;}.ja8-9{fill:#f9e100;}.ja8-10{fill:#ffffff;}.ja8-11{fill:#0068ff;}.ja8-12{fill:#ff1f4a;}</style></defs><path class="ja8-1" d="M0,33H6V27H7V26H8V25h2V23h1V21H10V20H9V16H8V15H9V11h1V10h1V9h2V7h1V6h2V5h2V6H17V7h1V9h1v2h1v4h1v1H20v4H19v1H18v2h1v2h2v1h1v1h1v6h6V0H0Z"/><path class="ja8-2" d="M23,27H22v6h1V27Z"/><rect class="ja8-2" x="21" y="26" width="1" height="1"/><path class="ja8-3" d="M21,28v2h1V27H21Z"/><path class="ja8-3" d="M21,31v2h1V31Z"/><path class="ja8-2" d="M21,30V27H20v6h1V30Z"/><path class="ja8-2" d="M20,26h1V25H19v1Z"/><path class="ja8-3" d="M14,24h1v1h1V23H13v2h1Z"/><path class="ja8-3" d="M20,32V26H19V25H18v1H17v1H16v2H15v1H14V29H13V27H12V26H11V25H10v1H9v6h1v1h4V32h1v1h4V32Zm-9-3H10V28h1Zm2,2H12V30h1Zm4,0H16V30h1Zm1-2V28h1v1Z"/><path class="ja8-2" d="M10,26V25H8v1h2Z"/><path class="ja8-2" d="M9,31V27H8v6H9V31Z"/><rect class="ja8-2" x="7" y="26" width="1" height="1"/><path class="ja8-3" d="M7,31v2H8V31Z"/><path class="ja8-3" d="M7,30H8V27H7v3Z"/><path class="ja8-2" d="M7,30V27H6v6H7V30Z"/><rect class="ja8-4" x="10" y="28" width="1" height="1"/><rect class="ja8-4" x="12" y="30" width="1" height="1"/><rect class="ja8-4" x="14" y="32" width="1" height="1"/><rect class="ja8-4" x="16" y="30" width="1" height="1"/><rect class="ja8-4" x="18" y="28" width="1" height="1"/><path class="ja8-4" d="M9,27V26H8v1Z"/><path class="ja8-4" d="M19,32v1h1V32Z"/><path class="ja8-4" d="M9,32v1h1V32Z"/><path class="ja8-4" d="M7,31H8V30H7Z"/><path class="ja8-4" d="M21,31h1V30H21Z"/><path class="ja8-4" d="M20,27h1V26H20Z"/><rect class="ja8-2" x="20" y="15" width="1" height="1"/><path class="ja8-2" d="M19,13h1V11H19v2Z"/><rect class="ja8-5" x="13" y="20" width="1" height="1"/><path class="ja8-5" d="M15,16v1H14V16H10v2h1v1h1V18h5v1h1V18h1V16H15Z"/><rect class="ja8-5" x="15" y="20" width="1" height="1"/><rect class="ja8-5" x="14" y="15" width="1" height="1"/><path class="ja8-5" d="M10,13h1V12h2v1h1v1h1V13h2V12h2V11H18V10H15v1H13V10H11v1H10v2Z"/><path class="ja8-2" d="M18,11h1V10H18Z"/><path class="ja8-2" d="M16,23v2h1V23h1V22H16Z"/><path class="ja8-2" d="M16,10h2V9H16Z"/><path class="ja8-2" d="M13,9H11v1h2Z"/><rect class="ja8-2" x="10" y="10" width="1" height="1"/><path class="ja8-2" d="M10,12V11H9v2h1Z"/><rect class="ja8-2" x="8" y="15" width="1" height="1"/><rect class="ja8-2" x="14" y="16" width="1" height="1"/><path class="ja8-6" d="M11,12v1h2V12Z"/><path class="ja8-6" d="M17,12v1h2V12Z"/><rect class="ja8-2" x="14" y="29" width="1" height="1"/><rect class="ja8-2" x="12" y="26" width="1" height="1"/><path class="ja8-2" d="M15,28v1h1V27H15Z"/><rect class="ja8-2" x="16" y="26" width="1" height="1"/><path class="ja8-2" d="M13,27v2h1V27Z"/><rect class="ja8-2" x="17" y="25" width="1" height="1"/><rect class="ja8-2" x="11" y="25" width="1" height="1"/><rect class="ja8-2" x="14" y="24" width="1" height="1"/><rect class="ja8-2" x="13" y="25" width="1" height="1"/><rect class="ja8-2" x="15" y="25" width="1" height="1"/><path class="ja8-2" d="M12,24v1h1V22H11v1h1Z"/><rect class="ja8-7" x="16" y="25" width="1" height="1"/><path class="ja8-7" d="M15,26V25H14v1H13v1h1v2h1V27h1V26Z"/><rect class="ja8-7" x="12" y="25" width="1" height="1"/><path class="ja8-7" d="M11,25h1V23H11v2Z"/><path class="ja8-7" d="M17,24v1h1V23H17Z"/><path class="ja8-2" d="M19,25V23H18v2Z"/><path class="ja8-2" d="M11,24V23H10v2h1Z"/><path class="ja8-8" d="M13,23h3V22h2V21h1V20h1V16H19v2H18v1H16v2H15V20H14v1H13V19H11V18H10V16H9v4h1v1h1v1h2Z"/><path class="ja8-2" d="M16,18H12v1h1v1h3V19h1V18Z"/><path class="ja8-9" d="M13,11h2V10h1V9h2V7H17V6h1V5H16V6H14V7H13v4Z"/><path class="ja8-9" d="M19,10V9H18v1Z"/><path class="ja8-10" d="M11,16h3V15h1v1h5V13H15v1H14V13H9v3h2Zm5-2h3v1H16Zm-6,0h3v1H10Z"/><path class="ja8-11" d="M19,15V14H16v1h3Z"/><path class="ja8-12" d="M13,15V14H10v1h3Z"/><rect class="ja8-9" x="18" y="9" width="1" height="1"></rect></svg>