<svg xmlns="http://www.w3.org/2000/svg" viewBox="0 0 29 33"><defs><style>polygon,rect,path{shape-rendering:crispedges;}.da31-1{fill:#29834f;}.da31-2{fill:#000000;}.da31-3{fill:#9b8100;}.da31-4{fill:#e8b795;}.da31-5{fill:#f9e100;}.da31-6{fill:#8e703c;}.da31-7{fill:#8e703c;}.da31-8{fill:#ff791f;}.da31-9{fill:#ffffff;}.da31-10{fill:#0068ff;}.da31-11{fill:#ff1f4a;}</style></defs><path class="da31-1" d="M0,33H6V25H7V21h3v3h2V21H11V20H10V19H9V16H8V15H9V11h1V9h1V8h7V9h1v1h1v5h1v1H20v3H19v1H18v1H17v3h2v1h2v1h1v1h1v6h6V0H0Z"/><path class="da31-2" d="M23,27H22v2H21V27H20v6h1V30h1v3h1V27Z"/><rect class="da31-2" x="21" y="26" width="1" height="1"/><path class="da31-2" d="M20,26h1V25H19v1Z"/><path class="da31-2" d="M18,25h1V24H17v1Z"/><path class="da31-2" d="M13,23h3v1h1V21H16v1H13V21H12v3h1Z"/><path class="da31-2" d="M11,25h1V24H10v1Z"/><path class="da31-2" d="M9,31V26H8v7H9V31Z"/><path class="da31-2" d="M7,25H6v8H7V25Z"/><path class="da31-3" d="M19,32V31H18v1H17V29h1V28h1v1h1V27h1V26H19V25H17v1H16v1H13V26H12V25H10v1H9v3h1V28h1v1h1v3H11V31H10v1H9v1H20V32Zm-3-2v1H15v1H13V28h2v1h1Z"/><path class="da31-3" d="M15,29H14v2h1V29Z"/><rect class="da31-3" x="10" y="29" width="1" height="1"/><rect class="da31-3" x="18" y="29" width="1" height="1"/><path class="da31-3" d="M21,28v1h1V27H21Z"/><path class="da31-4" d="M8,26H9V25H7v8H8V26Z"/><path class="da31-4" d="M13,25v1h3V25h1V24H16V23H13v1H12v1Z"/><path class="da31-2" d="M13,26v1h3V26H13Z"/><path class="da31-4" d="M22,30H21v3h1V30Z"/><rect class="da31-2" x="12" y="25" width="1" height="1"/><rect class="da31-2" x="16" y="25" width="1" height="1"/><path class="da31-5" d="M19,30H18V29H17v3h1V31h1v1h1V29H19Z"/><rect class="da31-5" x="18" y="28" width="1" height="1"/><path class="da31-5" d="M15,30v1h1V29H15Z"/><path class="da31-5" d="M14,30V29h1V28H13v4h2V31H14Z"/><path class="da31-5" d="M9,32h1V31h1v1h1V29H11v1H10V29H9v3Z"/><rect class="da31-5" x="10" y="28" width="1" height="1"/><rect class="da31-2" x="20" y="15" width="1" height="1"/><path class="da31-2" d="M19,12v1h1V11H19Z"/><rect class="da31-4" x="15" y="20" width="1" height="1"/><rect class="da31-4" x="16" y="19" width="1" height="1"/><rect class="da31-4" x="14" y="15" width="1" height="1"/><path class="da31-4" d="M12,12v1h2v1h1V13h1V12h2v1h1V11H18V10H17v1H16V10H15v1H14V10H13v1H12V10H11v1H10v1Z"/><path class="da31-4" d="M12,19V18h5v1h2V16H15v1H14V16H10v3h2Z"/><rect class="da31-4" x="12" y="19" width="1" height="1"/><rect class="da31-4" x="13" y="20" width="1" height="1"/><path class="da31-2" d="M19,17v2h1V16H19Z"/><rect class="da31-2" x="18" y="10" width="1" height="1"/><path class="da31-2" d="M18,20h1V19H18Z"/><rect class="da31-2" x="17" y="20" width="1" height="1"/><rect class="da31-2" x="15" y="9" width="1" height="1"/><rect class="da31-2" x="13" y="9" width="1" height="1"/><rect class="da31-2" x="11" y="9" width="1" height="1"/><rect class="da31-2" x="17" y="9" width="1" height="1"/><rect class="da31-2" x="11" y="20" width="1" height="1"/><path class="da31-2" d="M10,19v1h1V19Z"/><path class="da31-2" d="M10,12V11H9v2h1Z"/><path class="da31-2" d="M10,16H9v3h1V16Z"/><rect class="da31-2" x="8" y="15" width="1" height="1"/><rect class="da31-2" x="14" y="16" width="1" height="1"/><path class="da31-6" d="M16,12v1h2V12Z"/><path class="da31-6" d="M10,12v1h2V12Z"/><path class="da31-7" d="M17,19v1h1V19Z"/><rect class="da31-7" x="16" y="20" width="1" height="1"/><path class="da31-7" d="M15,20H14v1H13v1h3V21H15Z"/><path class="da31-7" d="M14,19h2V18H12v1h2Z"/><rect class="da31-7" x="12" y="20" width="1" height="1"/><path class="da31-7" d="M12,19H11v1h1Z"/><path class="da31-2" d="M15,20h1V19H13v1h2Z"/><path class="da31-2" d="M17,19V18H16v1Z"/><path class="da31-8" d="M11,10V9H10v2h1Z"/><path class="da31-8" d="M12,10v1h1V9h1v2h1V9h1v2h1V9h1V8H11V9h1Z"/><rect class="da31-8" x="18" y="9" width="1" height="1"/><path class="da31-8" d="M20,11V10H19v1Z"/><path class="da31-9" d="M11,16h3V15h1v1h5V13H15v1H14V13H9v3h2Zm5-2h3v1H16Zm-6,0h3v1H10Z"/><path class="da31-10" d="M19,15V14H16v1h3Z"/><path class="da31-11" d="M13,15V14H10v1h3Z"/><rect class="da31-2" x="8" y="22" width="1" height="1"/><path class="da31-9" d="M9,26h1V21H7v4H9ZM8,23V22H9v1Z"/></svg>