<svg xmlns="http://www.w3.org/2000/svg" viewBox="0 0 29 33"><defs><style>polygon,rect,path{shape-rendering:crispedges;}.xa98-1{fill:#e55b35;}.xa98-2{fill:#875070;}.xa98-3{fill:#000000;}.xa98-4{fill:#a56e49;}.xa98-5{fill:#333333;}.xa98-6{fill:#ffffff;}.xa98-7{fill:#72dd40;}</style></defs><rect class="xa98-1" x="18" y="21" width="1" height="1"/><path class="xa98-1" d="M0,33H6V27H7V26H8V25h2V22H9V21H8V20H9V17H8V12H9V10h1V9h1V8h7V9h1v1h1v2h1v6H20v2h1v1H20v1H19v3h2v1h1v1h1v6h6V0H0Z"/><rect class="xa98-1" x="10" y="21" width="1" height="1"/><path class="xa98-2" d="M16,24v1h2V24H16Z"/><path class="xa98-2" d="M14,31h6V30H14Z"/><path class="xa98-2" d="M14,27v1h6V27H14Z"/><rect class="xa98-2" x="21" y="30" width="1" height="1"/><rect class="xa98-2" x="21" y="27" width="1" height="1"/><rect class="xa98-2" x="7" y="30" width="1" height="1"/><rect class="xa98-2" x="7" y="27" width="1" height="1"/><polygon class="xa98-2" points="12 24 11 24 11 25 13 25 13 24 12 24"/><path class="xa98-2" d="M9,31h4V30H9Z"/><path class="xa98-2" d="M9,28h4V27H9Z"/><path class="xa98-3" d="M23,27H22v6h1V27Z"/><rect class="xa98-3" x="21" y="26" width="1" height="1"/><path class="xa98-3" d="M21,30V27H20v4H14V27H13v4H9V27H8v6H9V32H20v1h1V30Z"/><path class="xa98-3" d="M20,26h1V25H19v1Z"/><path class="xa98-3" d="M18,23v2h1V22H18Z"/><rect class="xa98-3" x="15" y="24" width="1" height="1"/><path class="xa98-3" d="M15,26V25H14v2h1Z"/><rect class="xa98-3" x="13" y="24" width="1" height="1"/><path class="xa98-4" d="M15,24h1V23H13v1h1v1h1Z"/><path class="xa98-3" d="M11,24V22H10v3h1Z"/><path class="xa98-3" d="M10,25H8v1h2Z"/><rect class="xa98-3" x="7" y="26" width="1" height="1"/><path class="xa98-3" d="M7,30V27H6v6H7V30Z"/><path class="xa98-4" d="M16,14h3V13H16Z"/><path class="xa98-4" d="M12,21h1v1h3V21h1V20h1V19h1V16h1V15H16V14H14v2h1v1H14V16H13v1H11V16H10v3h1v1h1Zm1-2h3V18h1v1H16v1H13Z"/><path class="xa98-4" d="M14,13h2V12h1V11H16V10H15v1H14v1H13v1H12v1h2Z"/><path class="xa98-3" d="M19,16v3h1V16Z"/><rect class="xa98-3" x="18" y="19" width="1" height="1"/><path class="xa98-3" d="M12,23v1h1V23h3v1h1V22h1V20H17v1H16v1H13V21H12V20H11v2h1Z"/><rect class="xa98-3" x="10" y="19" width="1" height="1"/><path class="xa98-3" d="M10,18H9v1h1Z"/><rect class="xa98-3" x="14" y="16" width="1" height="1"/><path class="xa98-5" d="M19,32H9v1H20V32Z"/><path class="xa98-5" d="M14,29v1h6V28H14Z"/><path class="xa98-5" d="M9,29v1h4V28H9Z"/><path class="xa98-5" d="M9,27h5V25H10v1H8v1Z"/><path class="xa98-5" d="M16,25H15v2h6V26H19V25H16Z"/><path class="xa98-5" d="M7,29v1H8V28H7Z"/><path class="xa98-5" d="M7,31v2H8V31Z"/><path class="xa98-5" d="M21,31v2h1V31Z"/><path class="xa98-5" d="M21,29v1h1V28H21Z"/><path class="xa98-5" d="M12,23V22H11v2h1Z"/><path class="xa98-5" d="M17,23v1h1V22H17Z"/><path class="xa98-6" d="M18,15h1V14H18Z"/><path class="xa98-3" d="M17,14H16v1h2V14Z"/><rect class="xa98-3" x="13" y="19" width="3" height="1"/><rect class="xa98-3" x="16" y="18" width="1" height="1"/><path class="xa98-7" d="M19,20H18v1h1v1h1V21h1V20H20V19H19Z"/><path class="xa98-7" d="M11,21V20H10V19H9v1H8v1H9v1h1V21Z"/><path class="xa98-7" d="M19,12H18v1h1v2h1v3h1V12H20V11H19Z"/><path class="xa98-7" d="M10,17V14H9V13h1v1h2V13h1V12h1V11h1V10h1v1h1v1h1V11h1V9H18V8H11V9H10v1H9v2H8v5H9v1h1Z"/><path class="xa98-3" d="M11,17h2V16h1V14H10v2h1Z"/><rect class="xa98-3" x="14" y="13" width="2" height="1"/><path class="xa98-3" d="M16,13h2V12H16Z"/><rect class="xa98-3" x="18" y="11" width="1" height="1"/><path class="xa98-3" d="M20,11V10H19v1Z"/><rect class="xa98-3" x="9" y="13" width="1" height="1"/></svg>