<svg xmlns="http://www.w3.org/2000/svg" viewBox="0 0 29 33"><defs><style>polygon,rect,path{shape-rendering:crispedges;}.ga60-1{fill:#6b4f99;}.ga60-2{fill:#000000;}.ga60-3{fill:#c6e5e4;}.ga60-4{fill:#ce8452;}.ga60-5{fill:#508e91;}.ga60-6{fill:#b23b00;}.ga60-7{fill:#b23b00;}.ga60-8{fill:#99ce09;}</style></defs><path class="ga60-1" d="M6,32V27H7V26H8V25h2V24h2V22H11V21H10V20H9V16H8V14H9V12H8v1H7V12H8V11H9V10h1V9h2V8h5V9h2v1h1v1h1v1h1v1H21V12H20v2h1v2H20v4H19v1H18v1H17v2h2v1h2v1h1v1h1v6h6V0H0V33H6Z"/><path class="ga60-2" d="M23,27H22v6h1V27Z"/><rect class="ga60-2" x="21" y="26" width="1" height="1"/><path class="ga60-3" d="M22,27H21v6h1V27Z"/><path class="ga60-2" d="M21,27H20v6h1V27Z"/><path class="ga60-2" d="M20,26h1V25H19v1Z"/><path class="ga60-3" d="M15,29H14v2h1V29Z"/><path class="ga60-3" d="M19,32V31H18v1H17V29h1V28h1v1h1V27h1V26H19V25H17v1H16v1H13V26H12V25H10v1H9v3h1V28h1v1h1v3H11V31H10v1H9v1H20V32Zm-3-2v1H15v1H13V28h2v1h1Z"/><rect class="ga60-3" x="18" y="29" width="1" height="1"/><rect class="ga60-3" x="10" y="29" width="1" height="1"/><path class="ga60-2" d="M18,25h1V24H17v1Z"/><path class="ga60-2" d="M16,24h1V23H16Z"/><rect class="ga60-2" x="16" y="25" width="1" height="1"/><path class="ga60-2" d="M13,26v1h3V26H13Z"/><path class="ga60-2" d="M13,23H12v1h1Z"/><path class="ga60-4" d="M13,25v1h3V25h1V24H16V23H13v1H12v1Z"/><rect class="ga60-2" x="12" y="25" width="1" height="1"/><path class="ga60-2" d="M12,24H10v1h2Z"/><path class="ga60-2" d="M9,31V26h1V25H8v1H7v1H8v6H9V31Z"/><path class="ga60-3" d="M8,27H7v6H8V27Z"/><path class="ga60-2" d="M7,27H6v6H7V27Z"/><path class="ga60-5" d="M19,30H18V29H17v3h1V31h1v1h1V29H19Z"/><rect class="ga60-5" x="18" y="28" width="1" height="1"/><path class="ga60-5" d="M15,30v1h1V29H15Z"/><path class="ga60-5" d="M14,30V29h1V28H13v4h2V31H14Z"/><path class="ga60-5" d="M9,32h1V31h1v1h1V29H11v1H10V29H9v3Z"/><rect class="ga60-5" x="10" y="28" width="1" height="1"/><path class="ga60-2" d="M20,16h1V15H20Z"/><rect class="ga60-4" x="9" y="15" width="1" height="1"/><rect class="ga60-4" x="10" y="16" width="1" height="1"/><rect class="ga60-4" x="14" y="15" width="1" height="1"/><path class="ga60-4" d="M16,16H15v1H14V16H13v1H11v1h1v1h1V18h5V17H16Z"/><rect class="ga60-4" x="18" y="16" width="1" height="1"/><rect class="ga60-4" x="19" y="15" width="1" height="1"/><path class="ga60-4" d="M11,13H10v1h2V13Z"/><path class="ga60-4" d="M17,13H16V12H15V11H14v1H12v1h1v1h5V13Z"/><path class="ga60-2" d="M8,15v1H9V15Z"/><rect class="ga60-2" x="14" y="16" width="1" height="1"/><rect class="ga60-6" x="18" y="13" width="1" height="1"/><rect class="ga60-6" x="16" y="12" width="1" height="1"/><rect class="ga60-6" x="12" y="13" width="1" height="1"/><path class="ga60-7" d="M15,18H13v1h3V18Z"/><path class="ga60-7" d="M14,23h3V22h1V21h1V20h1V16H19v1H18v1H17v1H16v1H13V19H12V18H11V17H10V16H9v4h1v1h1v1h1v1h2Z"/><rect class="ga60-2" x="13" y="19" width="3" height="1"/><path class="ga60-2" d="M16,19h1V18H16Z"/><rect class="ga60-8" x="21" y="12" width="1" height="1"/><path class="ga60-8" d="M10,13h2V12h2V11h1v1h2v1h2v1h1V12h1V11H20V10H19V9H17V8H12V9H10v1H9v1H8v1H9v2h1Z"/><path class="ga60-8" d="M21,15V14H20v1Z"/><path class="ga60-8" d="M9,14H8v1H9Z"/><rect class="ga60-8" x="7" y="12" width="1" height="1"/><path class="ga60-2" d="M10,15v1h1v1h2V16h1V15h1v1h1v1h2V16h1V15h1V14H9v1Z"/></svg>