<svg xmlns="http://www.w3.org/2000/svg" viewBox="0 0 29 33"><defs><style>polygon,rect,path{shape-rendering:crispedges;}.ja125-1{fill:#29834f;}.ja125-2{fill:#000000;}.ja125-3{fill:#ffb3c0;}.ja125-4{fill:#e8b795;}.ja125-5{fill:#ffffff;}.ja125-6{fill:#316a6d;}.ja125-7{fill:#316a6d;}.ja125-8{fill:#c8a715;}.ja125-9{fill:#b23b00;}</style></defs><path class="ja125-1" d="M18,24V22H17v2Z"/><path class="ja125-1" d="M0,33H6V27H7V26H8V25h2V20H9V16H8V15H9V10h1V9h1V8h7V9h1v1h1v5h1v1H20v4H19v5h2v1h1v1h1v6h6V0H0Z"/><path class="ja125-1" d="M12,22H11v2h1V22Z"/><path class="ja125-2" d="M23,27H22v6h1V27Z"/><rect class="ja125-2" x="21" y="26" width="1" height="1"/><path class="ja125-3" d="M22,27H21v6h1V27Z"/><path class="ja125-2" d="M21,27H20v6h1V27Z"/><path class="ja125-2" d="M20,26h1V25H19v1Z"/><path class="ja125-3" d="M20,27h1V26H19V25H16V23H13v2H10v1H8v1H9v6H20V27Z"/><path class="ja125-2" d="M17,24v1h2V24H17Z"/><path class="ja125-2" d="M12,24H10v1h2Z"/><path class="ja125-2" d="M10,25H8v1h2Z"/><path class="ja125-2" d="M9,27H8v6H9V27Z"/><rect class="ja125-2" x="7" y="26" width="1" height="1"/><path class="ja125-3" d="M8,27H7v6H8V27Z"/><path class="ja125-2" d="M7,27H6v6H7V27Z"/><rect class="ja125-2" x="20" y="15" width="1" height="1"/><polygon class="ja125-4" points="18 14 19 14 19 13 17 13 17 14 18 14"/><path class="ja125-4" d="M10,17v1h1v1h1V18h2v1h1V18h2v1h1V18h1V16h1V15H16V13h1V12h2V11H18V10H16v1H15v1H14v2H13v3H12V16H11V15H9v1h1Zm4-1h1v1H14Z"/><polygon class="ja125-4" points="13 21 14 21 14 22 15 22 15 21 16 21 16 20 13 20 13 21"/><path class="ja125-2" d="M19,17h1V16H19Z"/><path class="ja125-2" d="M10,14H9v1h1Z"/><path class="ja125-2" d="M10,16H9v1h1Z"/><rect class="ja125-2" x="8" y="15" width="1" height="1"/><rect class="ja125-2" x="14" y="16" width="1" height="1"/><path class="ja125-5" d="M18,14v1h1V14Z"/><path class="ja125-5" d="M16,14v1h1V14Z"/><path class="ja125-2" d="M17,14v1h1V14Z"/><path class="ja125-6" d="M17,13H16v1h1Z"/><rect class="ja125-6" x="17" y="12" width="2" height="1"/><path class="ja125-7" d="M12,22v1h5V22h2V20h1V17H19v1H18v1H17V18H15v1h1v2H15v1H14V21H13V19H11V18H10V17H9v3h1v2h2Z"/><path class="ja125-7" d="M14,18H13v1h1Z"/><path class="ja125-8" d="M18,23h1V22H18Z"/><path class="ja125-7" d="M18,24h1V23H18Z"/><path class="ja125-8" d="M17,23H16v1h1Z"/><path class="ja125-7" d="M16,24v1h1V24Z"/><path class="ja125-8" d="M12,24h1V23H12Z"/><path class="ja125-7" d="M12,25h1V24H12Z"/><path class="ja125-8" d="M11,22H10v1h1Z"/><path class="ja125-7" d="M11,23H10v1h1Z"/><path class="ja125-2" d="M13,19v1h3V19H13Z"/><path class="ja125-2" d="M12,18v1h1V18Z"/><path class="ja125-9" d="M10,15h1v1h1v1h1V14h1V12h1V11h1V10h2v1h1v4h1V10H19V9H18V8H11V9H10v1H9v4h1Z"/></svg>