<svg xmlns="http://www.w3.org/2000/svg" viewBox="0 0 29 33"><defs><style>polygon,rect,path{shape-rendering:crispedges;}.ra248-1{fill:#000000;}.ra248-2{fill:#d8be00;}.ra248-3{fill:#d8be00;}.ra248-4{fill:#b2622b;}.ra248-5{fill:#ffffff;}.ra248-6{fill:#6b4f99;}</style></defs><path class="ra248-1" d="M6,24V23H5v8H6V24Z"/><path class="ra248-1" d="M23,27H22v6h1V27Z"/><path class="ra248-2" d="M22,27H21v6h1V27Z"/><rect class="ra248-1" x="21" y="26" width="1" height="1"/><path class="ra248-1" d="M21,27H20v6h1V27Z"/><rect class="ra248-2" x="10" y="29" width="1" height="1"/><rect class="ra248-2" x="18" y="29" width="1" height="1"/><path class="ra248-2" d="M9,26H8v1H9v2h1V28h1v1h1V25h1V24H11v1H10v1Z"/><path class="ra248-2" d="M19,32V31H18v1H17V30H16v1H15v1H13V30H12v2H11V31H10v1H9v1H20V32Z"/><path class="ra248-2" d="M16,25h1v4h1V28h1v1h1V27h1V26H19V25H18V24H16Z"/><path class="ra248-1" d="M20,26h1V25H19v1Z"/><rect class="ra248-1" x="18" y="24" width="1" height="1"/><rect class="ra248-1" x="18" y="22" width="1" height="1"/><rect class="ra248-2" x="17" y="22" width="1" height="1"/><path class="ra248-1" d="M13,25h3V24h2V23H17V22h1V21h1V20h1V17h1V15H20V11H19V10H18V9H11v1H10v1H9v4H8v2H9v3h1v1h1v1h1v1H11v1h2Zm3-10V14h1v1h2v1H16Zm0,6H13V20h3Zm-5-5H10V14h1v1h2v1Z"/><rect class="ra248-2" x="11" y="22" width="1" height="1"/><rect class="ra248-1" x="10" y="24" width="1" height="1"/><rect class="ra248-1" x="10" y="22" width="1" height="1"/><path class="ra248-1" d="M9,31V27H8V26h2V25H8V23H7v8H6v1H8v1H9V31Z"/><path class="ra248-2" d="M7,30V24H6v7H7Z"/><path class="ra248-2" d="M14,29v2h1V29Z"/><path class="ra248-2" d="M13,28h2v1h1V25H13v3Z"/><path class="ra248-3" d="M19,30H18V29H17v3h1V31h1v1h1V29H19Z"/><rect class="ra248-3" x="18" y="28" width="1" height="1"/><path class="ra248-3" d="M15,29v2h1V29Z"/><path class="ra248-3" d="M14,30V29h1V28H13v4h2V31H14Z"/><path class="ra248-3" d="M11,29v1H10V29H9v3h1V31h1v1h1V29Z"/><rect class="ra248-3" x="10" y="28" width="1" height="1"/><path class="ra248-1" d="M13,27V25H12v5h1V27Z"/><path class="ra248-1" d="M17,28V25H16v5h1V28Z"/><rect class="ra248-4" x="13" y="20" width="3" height="1"/><path class="ra248-4" d="M19,15H16v1h3Z"/><path class="ra248-4" d="M13,15H10v1h3Z"/><path class="ra248-5" d="M11,14H10v1h1Z"/><path class="ra248-5" d="M17,14H16v1h1Z"/><path class="ra248-1" d="M9,23V21H8v2Z"/><rect class="ra248-1" x="7" y="20" width="1" height="1"/><rect class="ra248-1" x="5" y="19" width="2" height="1"/><path class="ra248-1" d="M5,20H4v3H5V20Z"/><path class="ra248-4" d="M6,24H7V23H8V21H7V20H5v3H6Z"/><path class="ra248-6" d="M0,9V33H8V32H6V31H5V23H4V20H5V19H7v1H8v1H9v2H8v2h2V24h1V23H10V22h1V21H10V20H9V17H8V15H9V11h1V10h1V9h7v1h1v1h1v4h1v2H20v3H19v1H18v1h1v1H18v1h1v1h2v1h1v1h1v6h6V0H0Z"/></svg>