<svg xmlns="http://www.w3.org/2000/svg" viewBox="0 0 29 33"><defs><style>polygon,rect,path{shape-rendering:crispedges;}.ta277-1{fill:#000000;}.ta277-2{fill:#db5800;}.ta277-3{fill:#6d3e35;}.ta277-4{fill:#db5800;}.ta277-5{fill:#ffffff;}.ta277-6{fill:#326b43;}.ta277-7{fill:#db5a8e;}.ta277-8{fill:#326b43;}.ta277-9{fill:#c8a715;}.ta277-10{fill:#ff1f4a;}.ta277-11{fill:#560000;}</style></defs><path class="ta277-1" d="M23,27H22v6h1V27Z"/><path class="ta277-2" d="M22,27H21v6h1V27Z"/><rect class="ta277-1" x="21" y="26" width="1" height="1"/><path class="ta277-1" d="M21,27H20v6h1V27Z"/><path class="ta277-2" d="M20,27h1V26H19V25H18V24H17v4h2v1H17v2h1V30h1v2H16V25H13v3h2v4H12V24H11v1H10v1H8v1H9v6H20V27Zm-9,2v3H10V28h1Z"/><path class="ta277-1" d="M20,26h1V25H19v1Z"/><rect class="ta277-1" x="18" y="24" width="1" height="1"/><rect class="ta277-1" x="17" y="23" width="1" height="1"/><path class="ta277-1" d="M15,24H13v1h3V24Z"/><path class="ta277-3" d="M14,24h2V23H13v1Z"/><rect class="ta277-1" x="11" y="23" width="1" height="1"/><rect class="ta277-1" x="10" y="24" width="1" height="1"/><path class="ta277-1" d="M10,25H8v1h2Z"/><path class="ta277-1" d="M9,27H8v6H9V27Z"/><path class="ta277-2" d="M8,27H7v6H8V27Z"/><rect class="ta277-1" x="7" y="26" width="1" height="1"/><path class="ta277-1" d="M7,27H6v6H7V27Z"/><path class="ta277-2" d="M14,31V29H13v2Z"/><path class="ta277-4" d="M14,29v2H13V30H12v2h3V28H13v1Z"/><path class="ta277-4" d="M10,29v3h1V28H10Z"/><path class="ta277-4" d="M18,29h1V28H17v1Z"/><path class="ta277-4" d="M16,31v1h3V30H18v1H17V30H16Z"/><path class="ta277-1" d="M12,26v4h1V25H12Z"/><path class="ta277-1" d="M16,26v4h1V25H16Z"/><polygon class="ta277-3" points="13 21 14 21 14 22 15 22 15 21 16 21 16 20 13 20 13 21"/><path class="ta277-3" d="M17,14h2V13H17Z"/><path class="ta277-3" d="M18,15H16V13h1V11H15v4H14v1h1v1H14V16H13v1H11V16H10v2h1v1h1V18h2v1h1V18h2v1h1V18h1V15Z"/><rect class="ta277-1" x="14" y="16" width="1" height="1"/><path class="ta277-5" d="M18,15h1V14H18Z"/><path class="ta277-5" d="M16,14v1h1V14Z"/><path class="ta277-1" d="M17,14v1h1V14Z"/><path class="ta277-6" d="M17,13H16v1h1Z"/><path class="ta277-6" d="M17,12v1h2V12H17Z"/><rect class="ta277-2" x="19" y="20" width="1" height="1"/><path class="ta277-2" d="M9,19V12h1V11h2V10h5v1h2v1h1v8h1V11H20V10H19V9H18V8H11V9H10v1H9v1H8v9H9Z"/><rect class="ta277-2" x="9" y="20" width="1" height="1"/><rect class="ta277-2" x="17" y="22" width="1" height="1"/><rect class="ta277-2" x="11" y="22" width="1" height="1"/><rect class="ta277-1" x="10" y="8" width="1" height="1"/><rect class="ta277-1" x="9" y="9" width="1" height="1"/><rect class="ta277-1" x="8" y="10" width="1" height="1"/><path class="ta277-1" d="M8,11H7v9H8V11Z"/><rect class="ta277-1" x="8" y="20" width="1" height="1"/><rect class="ta277-1" x="9" y="21" width="1" height="1"/><rect class="ta277-1" x="19" y="21" width="1" height="1"/><rect class="ta277-1" x="20" y="20" width="1" height="1"/><path class="ta277-1" d="M21,20h1V11H21v9Z"/><rect class="ta277-1" x="20" y="10" width="1" height="1"/><rect class="ta277-1" x="19" y="9" width="1" height="1"/><rect class="ta277-1" x="18" y="8" width="1" height="1"/><path class="ta277-1" d="M18,8V7H11V8h7Z"/><path class="ta277-1" d="M20,12H19v5h1V12Z"/><path class="ta277-7" d="M0,7V33H6V27H7V26H8V25h2V22H9V21H8V20H7V11H8V10H9V9h1V8h1V7h7V8h1V9h1v1h1v1h1v9H21v1H20v1H19v3h2v1h1v1h1v6h6V0H0Z"/><path class="ta277-8" d="M14,18H13v1h1Z"/><path class="ta277-8" d="M12,22v1h5V22h2V20h1V17H19v1H18v1H17V18H15v1h1v2H15v1H14V21H13V19H11V18H10V17H9v3h1v2h2Z"/><path class="ta277-9" d="M18,23h1V22H18Z"/><path class="ta277-8" d="M18,24h1V23H18Z"/><path class="ta277-9" d="M16,23v1h1V23Z"/><path class="ta277-8" d="M16,25h1V24H16Z"/><path class="ta277-9" d="M13,23H12v1h1Z"/><path class="ta277-8" d="M12,24v1h1V24Z"/><path class="ta277-9" d="M11,22H10v1h1Z"/><path class="ta277-8" d="M11,23H10v1h1Z"/><path class="ta277-10" d="M13,15V13H11v2h2Z"/><path class="ta277-11" d="M13,13v2h1V13Z"/><path class="ta277-11" d="M12,15H11v1h2V15Z"/><path class="ta277-11" d="M10,13v2h1V13Z"/><path class="ta277-11" d="M13,12H11v1h2Z"/><path class="ta277-1" d="M11,16V15H10V13h1V12h2v1h1v2h1V11h2V10H12v1H10v1H9v5h1V16Z"/><rect class="ta277-1" x="11" y="16" width="2" height="1"/><rect class="ta277-1" x="13" y="15" width="1" height="1"/><path class="ta277-1" d="M18,12h1V11H17v1Z"/><path class="ta277-1" d="M13,19v1h3V19H13Z"/><path class="ta277-1" d="M12,18v1h1V18Z"/></svg>