<svg xmlns="http://www.w3.org/2000/svg" viewBox="0 0 29 33"><defs><style>polygon,rect,path{shape-rendering:crispedges;}.da222-1{fill:#7a982c;}.da222-2{fill:#000000;}.da222-3{fill:#ffffff;}.da222-4{fill:#b2622b;}.da222-5{fill:#a37e94;}.da222-6{fill:#b23b00;}.da222-7{fill:#b23b00;}.da222-8{fill:#c8a715;}.da222-9{fill:#ff1d99;}</style></defs><path class="da222-1" d="M18,24V22H17v2Z"/><path class="da222-1" d="M6,32V27H7V26H8V25h2V20H9V16H8V15H9V10h1V9h1V8h7V9h1v1h1v5h1v1H20v4H19v5h2v1h1v1h1v6h6V0H0V33H6Z"/><path class="da222-1" d="M12,22H11v2h1V22Z"/><path class="da222-2" d="M23,27H22v3H21V27H20v6h1V31h1v2h1V27Z"/><rect class="da222-2" x="21" y="26" width="1" height="1"/><path class="da222-3" d="M21,28v2h1V27H21Z"/><path class="da222-4" d="M21,31v2h1V31Z"/><path class="da222-2" d="M20,26h1V25H19v1Z"/><rect class="da222-3" x="18" y="29" width="1" height="1"/><path class="da222-3" d="M15,29H14v2h1V29Z"/><path class="da222-3" d="M19,32V31H18v1H17V29h1V28h1v1h1V27h1V26H19V25H17v1H16v1H13V26H12V25H10v1H8v1H9v2h1V28h1v1h1v3H11V31H10v1H9v1H20V32Zm-3-2v1H15v1H13V28h2v1h1Z"/><rect class="da222-3" x="10" y="29" width="1" height="1"/><path class="da222-2" d="M17,24v1h2V24H17Z"/><rect class="da222-2" x="16" y="25" width="1" height="1"/><path class="da222-2" d="M13,26v1h3V26H13Z"/><path class="da222-4" d="M16,24V23H13v3h3V24Z"/><path class="da222-2" d="M12,25v1h1V25Z"/><path class="da222-2" d="M12,24H10v1h2Z"/><path class="da222-2" d="M10,25H8v1h2Z"/><path class="da222-2" d="M9,31V27H8v3H7V27H6v6H7V31H8v2H9V31Z"/><rect class="da222-2" x="7" y="26" width="1" height="1"/><path class="da222-3" d="M7,30H8V27H7v3Z"/><path class="da222-4" d="M7,31v2H8V31Z"/><path class="da222-5" d="M19,30H18V29H17v3h1V31h1v1h1V29H19Z"/><rect class="da222-5" x="18" y="28" width="1" height="1"/><path class="da222-5" d="M15,30v1h1V29H15Z"/><path class="da222-5" d="M14,30V29h1V28H13v4h2V31H14Z"/><path class="da222-5" d="M9,32h1V31h1v1h1V29H11v1H10V29H9v3Z"/><rect class="da222-5" x="10" y="28" width="1" height="1"/><rect class="da222-2" x="20" y="15" width="1" height="1"/><path class="da222-4" d="M17,13V12h2V11H18V10H16v1H15v1H14v2h2V13Z"/><path class="da222-4" d="M18,16v1H16V16H15v1H14V16H13v1H11V16H10v2h1v1h1V18h2v1h1V18h2v1h1V18h1V16Z"/><rect class="da222-4" x="19" y="15" width="1" height="1"/><rect class="da222-4" x="14" y="15" width="1" height="1"/><polygon class="da222-4" points="13 21 14 21 14 22 15 22 15 21 16 21 16 20 13 20 13 21"/><rect class="da222-4" x="9" y="15" width="1" height="1"/><path class="da222-4" d="M17,13v1h2V13Z"/><path class="da222-2" d="M19,17h1V16H19Z"/><path class="da222-2" d="M10,16H9v1h1Z"/><rect class="da222-2" x="8" y="15" width="1" height="1"/><rect class="da222-2" x="14" y="16" width="1" height="1"/><rect class="da222-6" x="16" y="13" width="1" height="1"/><rect class="da222-6" x="17" y="12" width="2" height="1"/><path class="da222-7" d="M12,22v1h5V22h2V20h1V17H19v1H18v1H17V18H15v1h1v2H15v1H14V21H13V19H11V18H10V17H9v3h1v2h2Z"/><path class="da222-7" d="M14,18H13v1h1Z"/><path class="da222-8" d="M18,23h1V22H18Z"/><path class="da222-7" d="M18,24h1V23H18Z"/><path class="da222-8" d="M17,24V23H16v1Z"/><path class="da222-7" d="M16,24v1h1V24Z"/><path class="da222-8" d="M13,23H12v1h1Z"/><path class="da222-7" d="M13,24H12v1h1Z"/><path class="da222-8" d="M11,22H10v1h1Z"/><path class="da222-7" d="M11,23H10v1h1Z"/><path class="da222-2" d="M13,19v1h3V19H13Z"/><path class="da222-2" d="M12,18v1h1V18Z"/><path class="da222-9" d="M14,14V12h1V11h1V10h2v1h1v3h1V10H19V9H18V8H11V9H10v1H9v4h5Z"/><path class="da222-2" d="M10,16h1v1h2V16h1V15h1v1h1v1h2V16h1V15h1V14H9v1h1Z"/></svg>