<svg xmlns="http://www.w3.org/2000/svg" viewBox="0 0 29 33"><defs><style>polygon,rect,path{shape-rendering:crispedges;}.na105-1{fill:#6b4f99;}.na105-2{fill:#000000;}.na105-3{fill:#ffb38d;}.na105-4{fill:#00686d;}.na105-5{fill:#e8b795;}.na105-6{fill:#db5800;}.na105-7{fill:#ffffff;}.na105-8{fill:#9b8100;}.na105-9{fill:#9b8100;}.na105-10{fill:#ffce00;}</style></defs><path class="na105-1" d="M0,33H6V27H7V26H8V25h2V24h2V21H9V20H8V19H9V16H8V15H9V11h1V10h1V9h1V8h5V9h2v1h1v1h1v3H20v1h1v1H20v3h1v1H20v1H17v3h2v1h2v1h1v1h1v6h6V0H0Z"/><path class="na105-2" d="M23,27H22v6h1V27Z"/><rect class="na105-2" x="21" y="26" width="1" height="1"/><path class="na105-3" d="M21,28h1V27H21Z"/><path class="na105-3" d="M21,30v1h1V29H21Z"/><path class="na105-3" d="M21,32v1h1V32Z"/><path class="na105-2" d="M21,31V27H20v6h1V31Z"/><path class="na105-3" d="M19,26v1H18v3h1v1h1V29H19V28h1V27h1V26H19Z"/><path class="na105-3" d="M19,32v1h1V32Z"/><path class="na105-2" d="M20,26h1V25H19v1Z"/><path class="na105-2" d="M18,30V25h1V24H17v1H16v1h1v7h1V30Z"/><path class="na105-4" d="M17,26H16v1H13V26H12v7h5V26Z"/><path class="na105-2" d="M13,26v1h3V26H13Z"/><path class="na105-2" d="M13,23h3v1h1V21H16v1H13V21H12v3h1Z"/><path class="na105-5" d="M13,25v1h3V25h1V24H16V23H13v1H12v1Z"/><path class="na105-2" d="M12,26h1V25H12V24H10v1h1v8h1V26Z"/><path class="na105-3" d="M9,27v1h1v1H9v2h1V30h1V27H10V26H8v1Z"/><rect class="na105-3" x="9" y="32" width="1" height="1"/><path class="na105-2" d="M10,25H8v1h2Z"/><path class="na105-2" d="M9,31V27H8v6H9V31Z"/><rect class="na105-2" x="7" y="26" width="1" height="1"/><path class="na105-3" d="M7,30v1H8V29H7Z"/><path class="na105-3" d="M7,32v1H8V32Z"/><path class="na105-3" d="M8,28V27H7v1Z"/><path class="na105-2" d="M7,31V27H6v6H7V31Z"/><path class="na105-6" d="M11,30H10v1H9v1h1v1h1V30Z"/><path class="na105-6" d="M10,27h1V25H10v2Z"/><path class="na105-6" d="M18,26v1h1V25H18Z"/><path class="na105-6" d="M7,29H8V28H7Z"/><path class="na105-6" d="M10,28H9v1h1Z"/><path class="na105-6" d="M21,29h1V28H21Z"/><path class="na105-6" d="M19,29h1V28H19Z"/><path class="na105-6" d="M21,32h1V31H21Z"/><path class="na105-6" d="M7,32H8V31H7Z"/><path class="na105-6" d="M20,32V31H19V30H18v3h1V32Z"/><rect class="na105-2" x="20" y="15" width="1" height="1"/><path class="na105-5" d="M13,22h3V21h1V19H16v1H13V19H12v2h1Z"/><path class="na105-5" d="M10,17v1h1v1h1V18h5v1h1V18h1V16h1V15H16V13h1V11H15V10H11v1H10v2h1V12h2v1H11v1h2v1H9v1h1Zm4-1h1v1H14Z"/><path class="na105-5" d="M18,14h1V13H17v1Z"/><path class="na105-2" d="M17,20v1h1V20Z"/><path class="na105-2" d="M11,20v1h1V20Z"/><rect class="na105-2" x="8" y="15" width="1" height="1"/><rect class="na105-2" x="14" y="16" width="1" height="1"/><path class="na105-7" d="M10,15h1V14H10Z"/><path class="na105-7" d="M16,14v1h1V14Z"/><path class="na105-2" d="M12,15h1V14H11v1Z"/><path class="na105-2" d="M18,14H17v1h2V14Z"/><rect class="na105-8" x="10" y="13" width="1" height="1"/><rect class="na105-8" x="11" y="12" width="2" height="1"/><path class="na105-8" d="M17,13H16v1h1Z"/><path class="na105-8" d="M18,12H17v1h1Z"/><path class="na105-9" d="M19,17v1H18v1H17v1h1v1h2V20h1V19H20V16H19Z"/><path class="na105-9" d="M12,20V19H11V18H10V16H9v3H8v1H9v1h2V20Z"/><path class="na105-2" d="M12,18v1h1V18Z"/><path class="na105-2" d="M16,18v1h1V18Z"/><path class="na105-2" d="M15,18H14v1H13v1h3V19H15Z"/><path class="na105-7" d="M14,18H13v1h1Z"/><path class="na105-7" d="M15,18v1h1V18Z"/><path class="na105-10" d="M10,14V11H9v4h1Z"/><rect class="na105-10" x="10" y="10" width="1" height="1"/><path class="na105-10" d="M15,10v1h2v1h1v1h1v2h1V14h1V11H20V10H19V9H17V8H12V9H11v1h4Z"/></svg>