<svg xmlns="http://www.w3.org/2000/svg" viewBox="0 0 29 33"><defs><style>polygon,rect,path{shape-rendering:crispedges;}.ha131-1{fill:#db5a8e;}.ha131-2{fill:#000000;}.ha131-3{fill:#00774c;}.ha131-4{fill:#efcaaf;}.ha131-5{fill:#4fdb7d;}.ha131-6{fill:#ffffff;}.ha131-7{fill:#473a35;}.ha131-8{fill:#fad000;}.ha131-9{fill:#473a35;}.ha131-10{fill:#c10f7e;}</style></defs><path class="ha131-1" d="M0,33H6V26H7V25H8V21h2v2h1V22h1V21H11V20H10V19H9V16H8V15H9V11h1V10h1V9h7v1h1v1h1v4h1v1H20v3H19v1H18v1H17v1h1v1h1v2h2v1h1v1h1v6h6V0H0Z"/><path class="ha131-1" d="M9,25h1V23H9Z"/><path class="ha131-2" d="M23,27H22v6h1V27Z"/><rect class="ha131-2" x="21" y="26" width="1" height="1"/><path class="ha131-3" d="M22,27H21v6h1V27Z"/><path class="ha131-2" d="M21,27H20v6h1V27Z"/><path class="ha131-2" d="M20,26h1V25H19v1Z"/><rect class="ha131-3" x="18" y="29" width="1" height="1"/><rect class="ha131-3" x="10" y="29" width="1" height="1"/><rect class="ha131-3" x="14" y="30" width="1" height="1"/><path class="ha131-3" d="M19,32V31H18v1H17V29h1V28h1v1h1V27h1V26H19V25H18v1H17v1H16v4H15v1H13V27H12V26H11V25H10v1H9v3h1V28h1v1h1v3H11V31H10v1H9v1H20V32Z"/><path class="ha131-4" d="M14,24h1v1h1V23H13v2h1Z"/><path class="ha131-2" d="M9,31V28H8v5H9V31Z"/><rect class="ha131-2" x="9" y="25" width="1" height="1"/><path class="ha131-3" d="M8,28V27H7v6H8V28Z"/><path class="ha131-2" d="M7,27V26H6v7H7V27Z"/><path class="ha131-5" d="M19,30H18V29H17v3h1V31h1v1h1V29H19Z"/><rect class="ha131-5" x="18" y="28" width="1" height="1"/><path class="ha131-5" d="M15,30v1h1V29H15Z"/><path class="ha131-5" d="M14,30V29H13v3h2V31H14Z"/><path class="ha131-5" d="M9,32h1V31h1v1h1V29H11v1H10V29H9v3Z"/><rect class="ha131-5" x="10" y="28" width="1" height="1"/><rect class="ha131-2" x="20" y="15" width="1" height="1"/><path class="ha131-2" d="M19,14v1h1V11H19v3Z"/><path class="ha131-4" d="M13,20v2h3V20Z"/><path class="ha131-4" d="M10,14h2V13H10Z"/><path class="ha131-4" d="M12,19V18h5v2h1V19h1V16h1V15H16V14h2V13H16V12h2v1h1V11H18V10H11v1H10v1h2v1h1v2H9v1h1v3h1v1h1Zm2-3h1v1H14Z"/><path class="ha131-2" d="M19,17v2h1V16H19Z"/><rect class="ha131-2" x="18" y="10" width="1" height="1"/><rect class="ha131-2" x="18" y="19" width="1" height="1"/><rect class="ha131-2" x="17" y="20" width="1" height="1"/><path class="ha131-2" d="M18,10V9H11v1h7Z"/><rect class="ha131-2" x="11" y="20" width="1" height="1"/><rect class="ha131-2" x="10" y="10" width="1" height="1"/><rect class="ha131-2" x="10" y="19" width="1" height="1"/><path class="ha131-2" d="M10,16H9v3h1V16Z"/><rect class="ha131-2" x="8" y="15" width="1" height="1"/><rect class="ha131-2" x="14" y="16" width="1" height="1"/><path class="ha131-6" d="M18,14v1h1V14Z"/><path class="ha131-6" d="M12,15h1V14H12Z"/><path class="ha131-2" d="M17,14H16v1h2V14Z"/><path class="ha131-2" d="M12,15V14H10V11H9v4h3Z"/><path class="ha131-7" d="M19,13H18v1h1Z"/><rect class="ha131-7" x="16" y="12" width="2" height="1"/><path class="ha131-7" d="M13,14V13H12v1Z"/><path class="ha131-7" d="M12,13V12H10v1Z"/><rect class="ha131-2" x="14" y="29" width="1" height="1"/><rect class="ha131-2" x="12" y="26" width="1" height="1"/><path class="ha131-2" d="M15,28v1h1V27H15Z"/><rect class="ha131-2" x="16" y="26" width="1" height="1"/><path class="ha131-2" d="M14,28V27H13v2h1Z"/><rect class="ha131-2" x="17" y="25" width="1" height="1"/><rect class="ha131-2" x="11" y="25" width="1" height="1"/><rect class="ha131-2" x="14" y="24" width="1" height="1"/><rect class="ha131-2" x="13" y="25" width="1" height="1"/><rect class="ha131-2" x="15" y="25" width="1" height="1"/><path class="ha131-2" d="M12,24v1h1V23h3v2h1V23h1V22H17V21H16v1H13V21H12v1H11v1h1Z"/><rect class="ha131-8" x="16" y="25" width="1" height="1"/><polygon class="ha131-8" points="15 26 15 25 14 25 14 26 13 26 13 27 14 27 14 28 14 29 15 29 15 28 15 27 16 27 16 26 15 26"/><rect class="ha131-8" x="12" y="25" width="1" height="1"/><path class="ha131-8" d="M12,25V23H11v2Z"/><path class="ha131-8" d="M17,24v1h1V23H17Z"/><path class="ha131-2" d="M19,25V23H18v2Z"/><path class="ha131-2" d="M11,25V23H10v2Z"/><path class="ha131-9" d="M17,19H16v2h1V19Z"/><path class="ha131-9" d="M13,20V19h3V18H12v3h1Z"/><path class="ha131-2" d="M16,19H13v1h3Z"/><path class="ha131-2" d="M17,18H16v1h1Z"/><path class="ha131-10" d="M9,26V21H8v5Z"/><path class="ha131-6" d="M10,23V21H9v2Z"/><path class="ha131-10" d="M8,28H9V27H8Z"/><path class="ha131-4" d="M8,27H9V26H7v1Z"/><path class="ha131-2" d="M8,25H7v1H8Z"/></svg>