<svg xmlns="http://www.w3.org/2000/svg" viewBox="0 0 29 33"><defs><style>polygon,rect,path{shape-rendering:crispedges;}.da3-1{fill:#db5a8e;}.da3-2{fill:#000000;}.da3-3{fill:#ffffff;}.da3-4{fill:#e8b795;}.da3-5{fill:#ffffff;}.da3-6{fill:#ffffff;}.da3-7{fill:#8e703c;}.da3-8{fill:#893a1f;}.da3-9{fill:#99004d;}.da3-10{fill:#fafafa;}</style></defs><path class="da3-1" d="M6,32V29H5V28H4V27H3V22H4V21H9v1h1v2h2V21H11V20H10V19H9V16H8V15H9V11h1V10h1V9h7v1h1v1h1v4h1v1H20v3H19v1H18v1H17v3h2v1h2v1h1v1h1v6h6V0H0V33H6Z"/><path class="da3-2" d="M23,27H22v3H21V27H20v6h1V31h1v2h1V27Z"/><rect class="da3-2" x="21" y="26" width="1" height="1"/><path class="da3-3" d="M21,28v2h1V27H21Z"/><path class="da3-4" d="M21,31v2h1V31Z"/><path class="da3-2" d="M20,26h1V25H19v1Z"/><rect class="da3-3" x="10" y="29" width="1" height="1"/><rect class="da3-3" x="18" y="29" width="1" height="1"/><path class="da3-3" d="M19,32V31H18v1H17V29h1V28h1v1h1V27h1V26H19V25H17v1H16v1H13V26H12V25H11v1H10v2h1v1h1v3H11V31H10v1H9v1H20V32Zm-3-2v1H15v1H13V28h2v1h1Z"/><path class="da3-3" d="M15,29H14v2h1V29Z"/><rect class="da3-3" x="9" y="28" width="1" height="1"/><path class="da3-2" d="M18,25h1V24H17v1Z"/><rect class="da3-2" x="16" y="25" width="1" height="1"/><path class="da3-2" d="M13,26v1h3V26H13Z"/><path class="da3-2" d="M13,23V22H12v2h1Z"/><path class="da3-4" d="M13,25v1h3V25h1V24H16V23H13v1H12v1Z"/><rect class="da3-2" x="12" y="25" width="1" height="1"/><path class="da3-2" d="M9,31V28H5v1H6v4H7V31H8v2H9V31ZM8,30H7V29H8Z"/><rect class="da3-3" x="7" y="29" width="1" height="1"/><path class="da3-4" d="M7,31v2H8V31Z"/><path class="da3-5" d="M19,30H18V29H17v3h1V31h1v1h1V29H19Z"/><rect class="da3-5" x="18" y="28" width="1" height="1"/><path class="da3-5" d="M15,30v1h1V29H15Z"/><path class="da3-5" d="M14,30V29h1V28H13v4h2V31H14Z"/><path class="da3-5" d="M10,30V29H9v3h1V31h1v1h1V29H11v1Z"/><rect class="da3-5" x="10" y="28" width="1" height="1"/><rect class="da3-2" x="20" y="15" width="1" height="1"/><rect class="da3-4" x="12" y="19" width="1" height="1"/><rect class="da3-4" x="9" y="15" width="1" height="1"/><path class="da3-4" d="M18,15H15v2H14V15H13v1H11v1H10v1h1v1h1V18h1v1h3v1h1V19h1V18h1V16h1V15H18Z"/><path class="da3-4" d="M13,21h3V20H13Z"/><path class="da3-2" d="M16,23v1h1V22H16Z"/><rect class="da3-2" x="8" y="15" width="1" height="1"/><path class="da3-2" d="M15,17V16H14v1Z"/><path class="da3-6" d="M19,15V14H18v1Z"/><path class="da3-6" d="M17,14H16v1h1Z"/><path class="da3-2" d="M18,15V14H17v1Z"/><rect class="da3-7" x="16" y="13" width="1" height="1"/><path class="da3-8" d="M13,23h3V22h1V21h1V20h1V19h1V16H19v2H18v1H17v1H16v1H13V20H12V19H11V18H10V16H9v3h1v1h1v1h1v1h1Z"/><rect class="da3-2" x="13" y="19" width="3" height="1"/><rect class="da3-2" x="12" y="18" width="1" height="1"/><path class="da3-9" d="M10,16v1h1V16h2V15h1v1h1V15h1V13h1v1h2v1h1V11H19V10H18V9H11v1H10v1H9v4h1Z"/><rect class="da3-10" x="5" y="24" width="1" height="1"/><rect class="da3-10" x="8" y="24" width="1" height="1"/><path class="da3-4" d="M9,28h1V27H9V26h1V25H7V24H9V22H8v1H6V22H5v1H4v1H6v1H4v2H5V26H8v1H5v1H9Z"/><path class="da3-2" d="M8,27V26H5v1H8Z"/><path class="da3-2" d="M7,24v1H8V24Z"/><path class="da3-2" d="M9,25h1v1h1V25h1V24H9Z"/><rect class="da3-2" x="4" y="27" width="1" height="1"/><path class="da3-2" d="M5,25V24H3v3H4V25Z"/><path class="da3-9" d="M10,24V22H9v2Z"/><path class="da3-9" d="M4,23H5V22H6v1H8V22H9V21H4v1H3v2H4Z"/><path class="da3-2" d="M9,27h1V26H9Z"/></svg>