<svg xmlns="http://www.w3.org/2000/svg" viewBox="0 0 29 33"><defs><style>polygon,rect,path{shape-rendering:crispedges;}.wa244-1{fill:#7a982c;}.wa244-2{fill:#000000;}.wa244-3{fill:#ffffff;}.wa244-4{fill:#6d3e35;}.wa244-5{fill:#990000;}.wa244-6{fill:#ffffff;}.wa244-7{fill:#8e703c;}.wa244-8{fill:#8e703c;}.wa244-9{fill:#c8a715;}.wa244-10{fill:#990000;}</style></defs><path class="wa244-1" d="M0,33H6V24H7V23H8v1H9v1h1V20H9V16H8V15H9V13H8V9H9V8h1V7h1V6h7V7h1V8h1V9h1v4H20v2h1v1H20v4H19v5h2v1h1v1h1v6h6V0H0Z"/><path class="wa244-2" d="M7,30V24H6v9H7V30Z"/><path class="wa244-2" d="M23,27H22v6h1V27Z"/><rect class="wa244-2" x="21" y="26" width="1" height="1"/><path class="wa244-3" d="M21,31h1V30H21Z"/><path class="wa244-3" d="M21,28h1V27H21Z"/><path class="wa244-2" d="M21,30V27H20v4H14V27H13v4H9V27H8v6H9V32H20v1h1V30Z"/><path class="wa244-2" d="M20,26h1V25H19v1Z"/><path class="wa244-2" d="M18,25h1V24H18Z"/><path class="wa244-3" d="M14,27v1h6V27H14Z"/><rect class="wa244-3" x="17" y="24" width="1" height="1"/><path class="wa244-3" d="M14,31h6V30H14Z"/><rect class="wa244-2" x="15" y="24" width="1" height="1"/><path class="wa244-2" d="M15,26V25H14v2h1Z"/><path class="wa244-4" d="M15,24h1V23H13v1h1v1h1Z"/><rect class="wa244-2" x="13" y="24" width="1" height="1"/><path class="wa244-2" d="M11,24H10v1h1Z"/><path class="wa244-3" d="M9,31h4V30H9Z"/><rect class="wa244-3" x="11" y="24" width="1" height="1"/><path class="wa244-3" d="M9,27v1h4V27H9Z"/><path class="wa244-3" d="M7,31H8V30H7Z"/><path class="wa244-3" d="M7,28H8V27H7Z"/><rect class="wa244-2" x="20" y="15" width="1" height="1"/><path class="wa244-2" d="M19,15h1V14H19Z"/><polygon class="wa244-4" points="18 14 19 14 19 13 17 13 17 14 18 14"/><polygon class="wa244-4" points="13 21 14 21 14 22 15 22 15 21 16 21 16 20 13 20 13 21"/><path class="wa244-4" d="M10,17v1h1v1h1V18h2v1h1V18h2v1h1V18h1V16h1V15H16V13h1V12h1V11H11v1h2v1H11v1h2v1H9v1h1Zm4-1h1v1H14Z"/><rect class="wa244-4" x="10" y="12" width="1" height="1"/><path class="wa244-2" d="M19,17h1V16H19Z"/><path class="wa244-2" d="M10,14H9v1h1Z"/><path class="wa244-2" d="M10,16H9v1h1Z"/><rect class="wa244-2" x="8" y="15" width="1" height="1"/><rect class="wa244-2" x="14" y="16" width="1" height="1"/><path class="wa244-5" d="M19,32H9v1H20V32Z"/><path class="wa244-5" d="M14,29v1h6V28H14Z"/><path class="wa244-5" d="M9,29v1h4V28H9Z"/><path class="wa244-5" d="M13,27h1V25H10v2Z"/><path class="wa244-5" d="M17,25H15v2h6V26H19V25H17Z"/><path class="wa244-5" d="M7,29v1H8V28H7Z"/><path class="wa244-5" d="M7,31v2H8V31Z"/><path class="wa244-5" d="M21,31v2h1V31Z"/><path class="wa244-5" d="M21,29v1h1V28H21Z"/><path class="wa244-5" d="M12,23V22H11v2h1Z"/><path class="wa244-5" d="M18,24V22H17v2Z"/><path class="wa244-6" d="M13,15V14H12v1Z"/><path class="wa244-6" d="M10,15h1V14H10Z"/><path class="wa244-6" d="M18,14v1h1V14Z"/><path class="wa244-6" d="M16,14v1h1V14Z"/><path class="wa244-2" d="M12,15V14H11v1Z"/><path class="wa244-2" d="M17,14v1h1V14Z"/><rect class="wa244-7" x="10" y="13" width="1" height="1"/><rect class="wa244-7" x="11" y="12" width="2" height="1"/><path class="wa244-7" d="M17,13H16v1h1Z"/><path class="wa244-7" d="M19,12H17v1h2Z"/><path class="wa244-8" d="M12,22v1h5V22h2V20h1V17H19v1H18v1H17V18H15v1h1v2H15v1H14V21H13V19H11V18H10V17H9v3h1v2h2Z"/><path class="wa244-8" d="M14,18H13v1h1Z"/><path class="wa244-9" d="M18,23h1V22H18Z"/><path class="wa244-8" d="M18,24h1V23H18Z"/><path class="wa244-9" d="M17,24V23H16v1Z"/><path class="wa244-8" d="M16,24v1h1V24Z"/><path class="wa244-9" d="M13,24V23H12v1Z"/><path class="wa244-8" d="M12,24v1h1V24Z"/><path class="wa244-9" d="M11,22H10v1h1Z"/><path class="wa244-8" d="M11,23H10v1h1Z"/><path class="wa244-2" d="M13,19v1h3V19H13Z"/><path class="wa244-2" d="M12,18v1h1V18Z"/><path class="wa244-4" d="M7,27H9V25H8V24H7v3Z"/><path class="wa244-2" d="M10,27V25H9v2Z"/><rect class="wa244-2" x="8" y="24" width="1" height="1"/><rect class="wa244-2" x="7" y="23" width="1" height="1"/><path class="wa244-10" d="M10,13V12h1V11h7v1h1v2h1V13h1V9H20V8H19V7H18V6H11V7H10V8H9V9H8v4H9v1h1Z"/></svg>