<svg xmlns="http://www.w3.org/2000/svg" viewBox="0 0 29 33"><defs><style>polygon,rect,path{shape-rendering:crispedges;}polygon,rect,path{shape-rendering:crispedges;}.lb94-1{fill:#a9a9a9;}.lb94-2{fill:#000000;}.lb94-3{fill:#bbbbbb;}.lb94-4{fill:#04263a;}.lb94-5{fill:#0068f5;}.lb94-6{fill:#008dff;}.lb94-7{fill:#008b4c;}.lb94-8{fill:#ffffff;}.lb94-9{fill:#004480;}.lb94-10{fill:#455054;}.lb94-11{fill:#0068ff;}.lb94-12{fill:#ffce00;}.lb94-13{fill:#ff1f4a;}.lb94-14{fill:#ffffff;}.lb94-15{fill:#333333;}.lb94-16{fill:#a56e49;}.lb94-17{fill:#00e070;}.lb94-18{fill:#b23b00;}.lb94-19{fill:#66334f;}.lb94-20{fill:#f9e100;}</style></defs><path class="lb94-1" d="M28,25H27v1h2V24H28Z"/><path class="lb94-2" d="M27,0H0V23H4V22H5v9H6V22H7V20H5v1H2V17H5V16H8v5h2V20H9V15h1V11h1V10h2V7h1V6h2V5h2V6H17V7h1V9h1v1H18v1h1v4h1v5H19v1h2v1h5v1h3V0Zm0,5V7H22V6H21V5H20V4h1V3h1V2h3V3h1V4h1Z"/><path class="lb94-1" d="M27,32H26V31H23v2h5V32Z"/><path class="lb94-1" d="M25,27v1H24v2h4v1h1V27H25Z"/><path class="lb94-3" d="M18,23H17v1h2V23Z"/><path class="lb94-3" d="M21,24H19v1h2Z"/><path class="lb94-3" d="M22,23H21v1h1v1H21v1h2V24h1V23h2V22H23v1Z"/><path class="lb94-3" d="M8,24v1h2V24H8Z"/><path class="lb94-3" d="M11,23H10v1h2V23Z"/><path class="lb94-3" d="M18,22h3V21H18Z"/><path class="lb94-3" d="M27,24H26v1H25v1H23v5h3v1h2v1h1V31H28V30H24V28h1V27h4V26H27V25h1V24h1V23H27Z"/><path class="lb94-3" d="M2,24H4v1H5V22H4v1H1v1Z"/><path class="lb94-3" d="M7,32H6v1H8V32Z"/><path class="lb94-3" d="M4,32V31H5V26H2V25H1V24H0v2H1v1H3v1H4v2H2v1H0v2H3V32Z"/><path class="lb94-4" d="M26,7h1V6H26Z"/><path class="lb94-5" d="M26,5V6h1V4H26Z"/><path class="lb94-5" d="M25,6V7h1V6Z"/><rect class="lb94-6" x="25" y="5" width="1" height="1"/><rect class="lb94-7" x="25" y="4" width="1" height="1"/><rect class="lb94-8" x="25" y="3" width="1" height="1"/><path class="lb94-1" d="M24,24H23v2h2V25h1V24h1V23H24Z"/><path class="lb94-7" d="M24,5H23V6h2V5Z"/><rect class="lb94-8" x="24" y="4" width="1" height="1"/><rect class="lb94-5" x="24" y="3" width="1" height="1"/><path class="lb94-9" d="M24,6H23V7h2V6Z"/><rect class="lb94-6" x="23" y="4" width="1" height="1"/><path class="lb94-1" d="M22,27h1V26H22Z"/><path class="lb94-4" d="M22,6V7h1V6Z"/><rect class="lb94-6" x="22" y="5" width="1" height="1"/><rect class="lb94-5" x="22" y="4" width="1" height="1"/><path class="lb94-7" d="M23,4h1V3h1V2H23V3H22V4Z"/><path class="lb94-6" d="M23,2H22V3h1Z"/><rect class="lb94-1" x="21" y="24" width="1" height="1"/><rect class="lb94-9" x="21" y="5" width="1" height="1"/><rect class="lb94-7" x="21" y="4" width="1" height="1"/><rect class="lb94-8" x="21" y="3" width="1" height="1"/><rect class="lb94-5" x="20" y="4" width="1" height="1"/><path class="lb94-1" d="M18,22H17v1h2v1h2V23h2V22H18Z"/><path class="lb94-1" d="M11,23h1V22H9v2h1V23Z"/><path class="lb94-1" d="M6,31H4v1H3v1H6V31Z"/><path class="lb94-1" d="M2,30H4V28H3V27H1V26H0v5H2Z"/><path class="lb94-1" d="M4,24H1v1H2v1H5V25H4Z"/><path class="lb94-1" d="M1,23H0v1H1Z"/><path class="lb94-10" d="M8,21V20H7v2H8Z"/><path class="lb94-11" d="M8,16H6v4H8Z"/><path class="lb94-12" d="M6,16H5v1H4v4H5V20H6V16Z"/><path class="lb94-13" d="M4,19V17H2v4H4V19Z"/><path class="lb94-2" d="M23,27H22v6h1V27Z"/><path class="lb94-14" d="M21,31v2h1V31Z"/><path class="lb94-14" d="M21,28v2h1V27H21Z"/><path class="lb94-2" d="M21,26v1h1V26Z"/><path class="lb94-2" d="M21,30V27H20v6h1V30Z"/><path class="lb94-14" d="M20,32V26H19V25H18v3h1v1H18v4h1V32Z"/><path class="lb94-2" d="M21,25H19v1h2Z"/><path class="lb94-2" d="M18,29V25h1V24H17v1H16v1h1v7h1V29Z"/><path class="lb94-15" d="M17,26H16v1H13V26H12v7h5V26Z"/><path class="lb94-2" d="M13,26v1h3V26H13Z"/><path class="lb94-16" d="M16,23H13v1H12v1h1v1h3V25h1V24H16Z"/><polygon class="lb94-2" points="13 23 13 22 12 22 12 23 12 24 13 24 13 23"/><path class="lb94-2" d="M12,26h1V25H12V24H10v1h1v8h1V26Z"/><path class="lb94-14" d="M11,29H10V28h1V25H10v1H9v6h1v1h1V29Z"/><path class="lb94-2" d="M9,22H8v2H9Z"/><path class="lb94-2" d="M9,31V27H8V26h2V25H8V24H7v7H6v1H8v1H9V31Z"/><path class="lb94-14" d="M7,30H6v1H7Z"/><path class="lb94-14" d="M7,26H6v3H7Z"/><path class="lb94-14" d="M7,24H6v1H7Z"/><rect class="lb94-16" x="15" y="20" width="1" height="1"/><path class="lb94-16" d="M11,13H10v1h1Z"/><rect class="lb94-16" x="13" y="20" width="1" height="1"/><path class="lb94-16" d="M20,16V15H19v1Z"/><rect class="lb94-16" x="14" y="15" width="1" height="1"/><path class="lb94-16" d="M12,13h1v1h3V12h2v1h1V11H18V10H15v1H13V10H11v1H10v1h2Z"/><path class="lb94-16" d="M18,17H16V16H15v1H14V16H13v1H11V16H10v2h1v1h1V18h2v1h1V18h2v1h1V18h1V16H18Z"/><path class="lb94-16" d="M10,15H9v1h1Z"/><path class="lb94-2" d="M17,22H16v2h1V22Z"/><path class="lb94-2" d="M16,10h2V9H16Z"/><rect class="lb94-2" x="14" y="16" width="1" height="1"/><path class="lb94-17" d="M10,29h1V28H10Z"/><path class="lb94-17" d="M19,29V28H18v1Z"/><path class="lb94-17" d="M8,27H9V26H8Z"/><path class="lb94-17" d="M19,32v1h1V32Z"/><path class="lb94-17" d="M9,32v1h1V32Z"/><path class="lb94-17" d="M7,29H6v1H7Z"/><path class="lb94-17" d="M7,25H6v1H7Z"/><path class="lb94-17" d="M21,31h1V30H21Z"/><path class="lb94-17" d="M20,26v1h1V26Z"/><path class="lb94-18" d="M11,22h2v1h3V22h2V21h1V20h1V16H19v2H18v1H16v2H15V20H14v1H13V19h1V18H12v1H11V18H10V16H9v4h1v1h1Z"/><path class="lb94-18" d="M15,18v1h1V18Z"/><path class="lb94-19" d="M18,14h1V13H18Z"/><rect class="lb94-19" x="16" y="12" width="2" height="1"/><path class="lb94-19" d="M12,13V12H10v1h2Z"/><path class="lb94-2" d="M14,19H13v1h3V19H14Z"/><path class="lb94-2" d="M16,18v1h1V18Z"/><path class="lb94-20" d="M14,11h1V10h1V9h2V7H17V6h1V5H16V6H14V7H13v4Z"/><rect class="lb94-20" x="18" y="9" width="1" height="1"/><path class="lb94-3" d="M9,22h2V21H8v1Z"/><path class="lb94-8" d="M13,14V13H11v1h2Z"/><path class="lb94-8" d="M13,17V16H11v1Z"/><path class="lb94-8" d="M11,16V14H10v2Z"/><path class="lb94-2" d="M13,15V14H11v2h2Z"/><path class="lb94-8" d="M18,15v1h1V14H18Z"/><path class="lb94-8" d="M18,14V13H16v1h2Z"/><path class="lb94-8" d="M16,17h2V16H16Z"/><path class="lb94-8" d="M13,16h1V15h1v1h1V14H13v2Z"/><path class="lb94-2" d="M16,16h2V14H16v2Z"/><path class="lb94-16" d="M8,24V22H6v2H8Z"/></svg>