<svg xmlns="http://www.w3.org/2000/svg" viewBox="0 0 29 33"><defs><style>polygon,rect,path{shape-rendering:crispedges;}.sa83-1{fill:#e55b35;}.sa83-2{fill:#000000;}.sa83-3{fill:#68aa7b;}.sa83-4{fill:#a56e49;}.sa83-5{fill:#68aa7b;}.sa83-6{fill:#ffffff;}.sa83-7{fill:#a7af69;}.sa83-8{fill:#000000;}.sa83-9{fill:#c9a717;}</style></defs><rect class="sa83-1" x="18" y="23" width="1" height="1"/><path class="sa83-1" d="M6,32V27H7V26H8V25h2V24h1V23H10V22H9V21H8V20H7V13H4V12H6V11H8V10h2V9h1V8h1V7h1V6h1V5h1V6h1V7h1V8h1V9h1v1h2v1h2v1h2v1H22v7H21v1h1v4h1v8h6V0H0V33H6Z"/><path class="sa83-2" d="M7,27H6v6H7V27Z"/><path class="sa83-3" d="M8,27H7v6H8V27Z"/><rect class="sa83-2" x="7" y="26" width="1" height="1"/><path class="sa83-2" d="M9,31V27H8v6H9V31Z"/><rect class="sa83-3" x="18" y="29" width="1" height="1"/><path class="sa83-3" d="M9,27v2h1V28h1v1h1V25h1V24H11v1H10v1H8v1Z"/><path class="sa83-3" d="M19,25H18V24H16v1h1v4h1V28h1v1h1V26H19Z"/><rect class="sa83-3" x="10" y="29" width="1" height="1"/><path class="sa83-3" d="M19,32V31H18v1H17V30H16v1H15v1H13V30H12v2H11V31H10v1H9v1H20V32Z"/><path class="sa83-2" d="M10,25H8v1h2Z"/><rect class="sa83-2" x="10" y="24" width="1" height="1"/><path class="sa83-2" d="M13,23H11v1h2Z"/><path class="sa83-2" d="M16,25V24H13v1h3Z"/><path class="sa83-4" d="M16,24V23H13v1h3Z"/><path class="sa83-2" d="M17,23H16v1h2V23Z"/><rect class="sa83-2" x="18" y="24" width="1" height="1"/><path class="sa83-2" d="M21,27V26H20v7h1V27Z"/><path class="sa83-3" d="M22,27H21v6h1V27Z"/><path class="sa83-2" d="M23,25H22v8h1V25Z"/><path class="sa83-3" d="M14,29v2h1V29Z"/><path class="sa83-3" d="M13,28h2v1h1V25H13v3Z"/><path class="sa83-5" d="M19,30H18V29H17v3h1V31h1v1h1V29H19Z"/><rect class="sa83-5" x="18" y="28" width="1" height="1"/><path class="sa83-5" d="M15,29v2h1V29Z"/><path class="sa83-5" d="M14,30V29h1V28H13v4h2V31H14Z"/><path class="sa83-5" d="M11,29v1H10V29H9v3h1V31h1v1h1V29Z"/><rect class="sa83-5" x="10" y="28" width="1" height="1"/><path class="sa83-2" d="M13,27V25H12v5h1V27Z"/><path class="sa83-2" d="M17,28V25H16v5h1V28Z"/><path class="sa83-4" d="M16,22V21h1V19h1V18h1V15H15v2H14V15H13v1H11v1H10v1h1v1h1V18h1v1h3v1H13V19H12v2h1v1h3Z"/><path class="sa83-2" d="M14,17h1V16H14Z"/><path class="sa83-6" d="M19,15V14H18v1Z"/><path class="sa83-6" d="M17,15V14H16v1Z"/><path class="sa83-2" d="M18,15V14H17v1Z"/><path class="sa83-7" d="M11,16h2V15h1v1h1V15h1V14H10v3h1Z"/><path class="sa83-3" d="M8,14v5H9V14Z"/><path class="sa83-3" d="M17,22H16v1h2V22h1V21H17Z"/><path class="sa83-3" d="M20,19h1V14H20v5Z"/><path class="sa83-3" d="M13,22H12V21H10v1h1v1h2Z"/><path class="sa83-2" d="M8,18V13H7v7H8V18Z"/><rect class="sa83-2" x="8" y="20" width="1" height="1"/><rect class="sa83-2" x="9" y="21" width="1" height="1"/><rect class="sa83-2" x="10" y="22" width="1" height="1"/><rect class="sa83-2" x="18" y="22" width="1" height="1"/><rect class="sa83-2" x="20" y="20" width="1" height="1"/><path class="sa83-2" d="M21,14v6h1V13H21Z"/><path class="sa83-2" d="M9,14v2h1V14Z"/><path class="sa83-2" d="M11,20v1h1V20Z"/><rect class="sa83-2" x="12" y="21" width="1" height="1"/><path class="sa83-2" d="M16,23V22H13v1h3Z"/><rect class="sa83-2" x="16" y="21" width="1" height="1"/><path class="sa83-2" d="M18,21V20H17v1Z"/><path class="sa83-2" d="M19,16h1V14H19v2Z"/><path class="sa83-8" d="M20,19V16H19v2H18v1H17v1h1v1h2V20h1V19Z"/><path class="sa83-8" d="M11,21V20h1V19H11V18H10V16H9v3H8v1H9v1h2Z"/><path class="sa83-9" d="M8,14H21V13h4V12H23V11H21V10H19V9H18V8H17V7H16V6H15V5H14V6H13V7H12V8H11V9H10v1H8v1H6v1H4v1H8Z"/><rect class="sa83-2" x="13" y="19" width="3" height="1"/><rect class="sa83-2" x="12" y="18" width="1" height="1"/><rect class="sa83-2" x="20" y="22" width="1" height="1"/><path class="sa83-6" d="M19,21v5h1V25h2V21H19Zm2,2H20V22h1Z"/><path class="sa83-4" d="M20,26h1v1h1V25H20Z"/></svg>