<svg xmlns="http://www.w3.org/2000/svg" viewBox="0 0 29 33"><defs><style>polygon,rect,path{shape-rendering:crispedges;}.aa118-1{fill:#d4a122;}.aa118-2{fill:#000000;}.aa118-3{fill:#e8b795;}.aa118-4{fill:#508e91;}.aa118-5{fill:#c6e5e4;}.aa118-6{fill:#ffffff;}.aa118-7{fill:#af8423;}.aa118-8{fill:#af8423;}.aa118-9{fill:#e70059;}.aa118-10{fill:#99004d;}.aa118-11{fill:#455054;}.aa118-12{fill:#ff1f4a;}.aa118-13{fill:#002b4f;}</style></defs><path class="aa118-1" d="M8,18v4H9v2H8v1h2V24h2V22H11V21H10V20H9V16H8Z"/><path class="aa118-1" d="M0,33H8V32H6V31H5V22H6V21H7V20H5v1H2V17H5V16H8V15H9V11h1V9h1V7h1V6H11V5h2V6h2V7h1V9h2v1h1v1h1v4h1v1H20v4H19v1H18v1H17v2h2v1h2v1h1v1h1v6h6V0H0Z"/><path class="aa118-2" d="M23,31V27H22v6h1Z"/><rect class="aa118-2" x="21" y="26" width="1" height="1"/><path class="aa118-3" d="M22,31V27H21v6h1Z"/><rect class="aa118-3" x="20" y="26" width="1" height="1"/><path class="aa118-2" d="M21,31V27H20v6h1Z"/><path class="aa118-2" d="M20,26h1V25H19v1Z"/><path class="aa118-4" d="M17,31V30h1V29h1v1h1V26H19V25H18v1H17v1H16v1H13V27H12V26H11V25H10v1H9v4h1V29h1v1h1v3h1V29h2v1h1v2H15v1h2Z"/><rect class="aa118-4" x="18" y="32" width="1" height="1"/><rect class="aa118-4" x="18" y="30" width="1" height="1"/><rect class="aa118-4" x="10" y="30" width="1" height="1"/><path class="aa118-4" d="M14,31v1h1V30H14Z"/><rect class="aa118-4" x="10" y="32" width="1" height="1"/><path class="aa118-2" d="M17,26h1V25h1V24H17Z"/><rect class="aa118-2" x="16" y="26" width="1" height="1"/><path class="aa118-2" d="M14,27H13v1h3V27Z"/><path class="aa118-2" d="M13,23V22H12v2h1Z"/><path class="aa118-3" d="M16,23H13v1H12v2h1v1h3V26h1V24H16Z"/><rect class="aa118-2" x="12" y="26" width="1" height="1"/><path class="aa118-2" d="M12,24H10v1h1v1h1Z"/><rect class="aa118-3" x="8" y="26" width="1" height="1"/><path class="aa118-2" d="M9,31V27H8V26h2V25H8V24H7v7H6v1H8v1H9Z"/><path class="aa118-3" d="M7,30V24H8V22H6v9H7Z"/><path class="aa118-2" d="M6,29V22H5v9H6Z"/><path class="aa118-5" d="M20,31V30H19v1H18V30H17v3h1V32h1v1h1Z"/><rect class="aa118-5" x="18" y="29" width="1" height="1"/><path class="aa118-5" d="M15,32h1V30H15Z"/><path class="aa118-5" d="M14,32V30h1V29H13v4h2V32Z"/><path class="aa118-5" d="M12,31V30H11v1H10V30H9v3h1V32h1v1h1Z"/><rect class="aa118-5" x="10" y="29" width="1" height="1"/><rect class="aa118-2" x="20" y="15" width="1" height="1"/><path class="aa118-2" d="M19,13v2h1V11H19Z"/><rect class="aa118-3" x="15" y="20" width="1" height="1"/><rect class="aa118-3" x="13" y="20" width="1" height="1"/><path class="aa118-3" d="M10,16v2h1v1h1V18h5v1h1V18h1V16h1V15H16V14h3V13H16V12h3V11H18V10H16v1H14V10H11v1H10v1h3v1H10v1h3v1H9v1Zm4,0h1v1H14Z"/><rect class="aa118-2" x="18" y="10" width="1" height="1"/><path class="aa118-2" d="M16,23v1h1V22H16Z"/><path class="aa118-2" d="M12,10h1V9H11v1Z"/><path class="aa118-2" d="M17,10h1V9H16v1Z"/><rect class="aa118-2" x="10" y="10" width="1" height="1"/><path class="aa118-2" d="M10,14V11H9v4h1Z"/><rect class="aa118-2" x="8" y="15" width="1" height="1"/><rect class="aa118-2" x="14" y="16" width="1" height="1"/><rect class="aa118-6" x="12" y="14" width="1" height="1"/><rect class="aa118-6" x="10" y="14" width="1" height="1"/><rect class="aa118-6" x="18" y="14" width="1" height="1"/><rect class="aa118-6" x="16" y="14" width="1" height="1"/><rect class="aa118-2" x="11" y="14" width="1" height="1"/><rect class="aa118-2" x="17" y="14" width="1" height="1"/><rect class="aa118-7" x="10" y="12" width="3" height="1"/><rect class="aa118-7" x="16" y="12" width="3" height="1"/><path class="aa118-8" d="M19,17v1H18v1H16v2H15V20H14v1H13V19H11V18H10V16H9v4h1v1h1v1h2v1h3V22h2V21h1V20h1V16H19Z"/><rect class="aa118-2" x="12" y="18" width="1" height="1"/><rect class="aa118-2" x="16" y="18" width="1" height="1"/><rect class="aa118-2" x="15" y="19" width="1" height="1"/><rect class="aa118-2" x="14" y="18" width="1" height="1"/><rect class="aa118-2" x="13" y="19" width="1" height="1"/><rect class="aa118-6" x="13" y="18" width="1" height="1"/><rect class="aa118-6" x="15" y="18" width="1" height="1"/><rect class="aa118-9" x="14" y="19" width="1" height="1"/><path class="aa118-10" d="M13,9v1h1v1h2V7H15V6H13V5H11V6h1V7H11V9Z"/><rect class="aa118-10" x="10" y="9" width="1" height="1"/><path class="aa118-11" d="M8,22V20H7v2Z"/><rect class="aa118-2" x="6" y="21" width="1" height="1"/><path class="aa118-2" d="M9,22H8v2H9Z"/><path class="aa118-12" d="M5,17H2v1H5Z"/><path class="aa118-12" d="M2,21H5V20H2Z"/><rect class="aa118-12" x="5" y="19" width="1" height="1"/><rect class="aa118-12" x="7" y="19" width="1" height="1"/><path class="aa118-13" d="M7,18H8V17H7V16H6v1H5v1H6v2H7Z"/><path class="aa118-13" d="M4,19H5V18H2v1Z"/><rect class="aa118-12" x="5" y="16" width="1" height="1"/><rect class="aa118-6" x="5" y="18" width="1" height="1"/><path class="aa118-6" d="M4,19H2v1H5V19Z"/><rect class="aa118-6" x="7" y="18" width="1" height="1"/><rect class="aa118-6" x="7" y="16" width="1" height="1"/><rect class="aa118-10" x="10" y="9" width="1" height="1"></rect></svg>