<svg xmlns="http://www.w3.org/2000/svg" viewBox="0 0 29 33"><defs><style>polygon,rect,path{shape-rendering:crispedges;}.hb54-1{fill:#db5a8e;}.hb54-2{fill:#000000;}.hb54-3{fill:#512a24;}.hb54-4{fill:#ffffff;}.hb54-5{fill:#99004d;}.hb54-6{fill:#99004d;}.hb54-7{fill:#ccc;}.hb54-8{fill:#db5800;}</style></defs><path class="hb54-1" d="M0,33H6V27H7V26H8V24H6V23H5V21H4V20H3V19H8v1H9v2h1v2h2V21H11V20H10V19H9V16H8V15H9V10h1V9h1V8h7V9h1v1h1v5h1v1H20v3H19v1H18v1H17v3h2V22h1V20h1V19h5v1H25v1H24v2H23v1H21v2h1v1h1v6h6V0H0Z"/><path class="hb54-2" d="M23,27H22v6h1V27Z"/><path class="hb54-3" d="M22,27H21v6h1V27Z"/><rect class="hb54-2" x="21" y="26" width="1" height="1"/><path class="hb54-2" d="M21,27H20v6h1V27Z"/><path class="hb54-3" d="M20,27h1V26H19V25H17V24H16V23H13v1H12v1H10v1H8v1H9v6h5V29h1v4h5V27Zm-8,2H11V28h1Zm6,0H17V28h1Z"/><path class="hb54-2" d="M19,25v1h2V25H19Z"/><rect class="hb54-2" x="17" y="28" width="1" height="1"/><path class="hb54-2" d="M18,25h1V24H17v1Z"/><path class="hb54-2" d="M15,29H14v4h1V29Z"/><path class="hb54-2" d="M13,23h3v1h1V21H16v1H13V21H12v3h1Z"/><rect class="hb54-2" x="11" y="28" width="1" height="1"/><path class="hb54-2" d="M11,25h1V24H10v1Z"/><path class="hb54-2" d="M10,25H8v1h2Z"/><path class="hb54-2" d="M9,27H8v6H9V27Z"/><path class="hb54-3" d="M8,27H7v6H8V27Z"/><rect class="hb54-2" x="7" y="26" width="1" height="1"/><path class="hb54-2" d="M7,27H6v6H7V27Z"/><rect class="hb54-2" x="20" y="15" width="1" height="1"/><path class="hb54-2" d="M19,15h1V14H19Z"/><rect class="hb54-3" x="19" y="15" width="1" height="1"/><path class="hb54-3" d="M12,19V18h5v2h1V19h1V16H16V14H14v2h1v1H14V16H13v1H11V16H10v3h1v1h1Z"/><path class="hb54-3" d="M16,13V12h2V10H17v1H14V10H13v1H12V10H11v1H10v1h2v1h1v1h1V13Z"/><path class="hb54-3" d="M18,14V13H16v1h2Z"/><rect class="hb54-3" x="9" y="15" width="1" height="1"/><path class="hb54-3" d="M13,20v2h3V20Z"/><path class="hb54-3" d="M10,13v1h2V13Z"/><rect class="hb54-3" x="18" y="12" width="1" height="1"/><path class="hb54-2" d="M19,17v2h1V16H19Z"/><rect class="hb54-2" x="18" y="19" width="1" height="1"/><rect class="hb54-2" x="17" y="20" width="1" height="1"/><rect class="hb54-2" x="11" y="20" width="1" height="1"/><rect class="hb54-2" x="10" y="19" width="1" height="1"/><path class="hb54-2" d="M10,16H9v3h1V16Z"/><rect class="hb54-2" x="8" y="15" width="1" height="1"/><rect class="hb54-2" x="14" y="16" width="1" height="1"/><path class="hb54-4" d="M16,14v2h1V14Z"/><path class="hb54-4" d="M19,14H18v2h1V14Z"/><path class="hb54-2" d="M17,14v2h1V14Z"/><rect class="hb54-5" x="18" y="13" width="1" height="1"/><rect class="hb54-5" x="12" y="13" width="1" height="1"/><rect class="hb54-5" x="10" y="12" width="2" height="1"/><path class="hb54-6" d="M13,20V19h3V18H12v3h1Z"/><path class="hb54-6" d="M17,19H16v2h1V19Z"/><path class="hb54-2" d="M16,19H13v1h3Z"/><path class="hb54-2" d="M17,18H16v1h1Z"/><path class="hb54-4" d="M10,22H9V20H8V19H3v1H7v1H5v1H8v1H6v1h4Z"/><path class="hb54-7" d="M8,22H5v1H8Z"/><path class="hb54-7" d="M7,20H4v1H7Z"/><path class="hb54-7" d="M22,20v1h3V20H22Z"/><path class="hb54-7" d="M21,22v1h3V22H21Z"/><path class="hb54-4" d="M23,24V23H21V22h3V21H22V20h4V19H21v1H20v2H19v2h4Z"/><path class="hb54-7" d="M10,24H8v1h2Z"/><path class="hb54-7" d="M20,25h1V24H19v1Z"/><path class="hb54-8" d="M19,12v2h1V11H19Z"/><path class="hb54-8" d="M10,12V11h1V10h1v1h1V10h1v1h3V10h1v1h1V9H18V8H11V9H10v1H9v3h1Z"/><path class="hb54-2" d="M10,16h1v1h2V16h1V14H10V13H9v2h1Z"/><rect class="hb54-2" x="14" y="13" width="2" height="1"/><rect class="hb54-2" x="16" y="12" width="2" height="1"/><path class="hb54-2" d="M19,12V11H18v1Z"/><path class="hb54-2" d="M20,11V10H19v1Z"/></svg>