<svg xmlns="http://www.w3.org/2000/svg" viewBox="0 0 29 33"><defs><style>polygon,rect,path{shape-rendering:crispedges;}.gb299-1{fill:#000000;}.gb299-2{fill:#685432;}.gb299-3{fill:#4922aa;}.gb299-4{fill:#90a2a3;}.gb299-5{fill:#6d3e35;}.gb299-6{fill:#ffffff;}.gb299-7{fill:#fad000;}.gb299-8{fill:#db5a8e;}</style></defs><path class="gb299-1" d="M23,27H22v6h1V27Z"/><path class="gb299-2" d="M22,27H21v6h1V27Z"/><path class="gb299-1" d="M21,27h1V26H21V25H20v2H17v1h2v1h1v4h1V27Z"/><path class="gb299-2" d="M20,29H19v1H18v1H17v1H16v1h4V29Z"/><path class="gb299-2" d="M16,28v3h1V30h1V29h1V28H17V27H16Z"/><path class="gb299-2" d="M18,26H17v1h2V26h1V25H18Z"/><rect class="gb299-1" x="18" y="29" width="1" height="1"/><path class="gb299-3" d="M15,30H14v3h1V30Z"/><path class="gb299-2" d="M12,32V31H11V30H10V29H9v4h4V32Z"/><rect class="gb299-1" x="11" y="30" width="1" height="1"/><path class="gb299-2" d="M11,26V25H10v2h2V26Z"/><path class="gb299-2" d="M12,28H10v1h1v1h1v1h1V27H12Z"/><path class="gb299-1" d="M9,29h1V28h2V27H10V25h1V23H10v1H8v1H9v2H8v6H9V29Z"/><path class="gb299-2" d="M8,27H7v6H8V27Z"/><path class="gb299-1" d="M7,27V24H6v9H7V27Z"/><rect class="gb299-1" x="10" y="29" width="1" height="1"/><rect class="gb299-1" x="17" y="30" width="1" height="1"/><path class="gb299-1" d="M17,32V31H16V27H15v2H14V27H13v4H12v1h1v1h1V30h1v3h1V32Z"/><path class="gb299-4" d="M19,27h1V26H19Z"/><rect class="gb299-5" x="13" y="20" width="3" height="1"/><path class="gb299-5" d="M13,15H10v1h3Z"/><path class="gb299-5" d="M19,15H16v1h3Z"/><path class="gb299-6" d="M19,14H18v1h1Z"/><path class="gb299-6" d="M13,14H12v1h1Z"/><rect class="gb299-1" x="12" y="26" width="1" height="1"/><rect class="gb299-1" x="16" y="26" width="1" height="1"/><rect class="gb299-1" x="17" y="25" width="1" height="1"/><rect class="gb299-1" x="11" y="25" width="1" height="1"/><rect class="gb299-7" x="16" y="25" width="1" height="1"/><path class="gb299-7" d="M15,26V25H14v1H13v1h1v2h1V27h1V26Z"/><rect class="gb299-7" x="12" y="25" width="1" height="1"/><path class="gb299-7" d="M12,25V23H11v2Z"/><path class="gb299-7" d="M17,24v1h1V23H17Z"/><path class="gb299-1" d="M20,25V24H19V23H18v2Z"/><path class="gb299-5" d="M7,27H9V25H8V24H7v3Z"/><rect class="gb299-1" x="7" y="23" width="1" height="1"/><path class="gb299-8" d="M0,9V33H6V24H7V23H8v1h2V23h1V21H10V20H9V17H8V15H9V11h1V10h1V9h7v1h1v1h1v4h1v2H20v3H19v1H18v2h1v1h1v1h1v1h1v1h1v6h6V0H0Z"/><path class="gb299-1" d="M12,24v1h1v1h1V25h1v1h1V25h1V23h1V21h1V20h1V17h1V15H20V11H19V10H18V9H11v1H10v1H9v4H8v2H9v3h1v1h1v2h1Zm4-9h2V14h1v2H16Zm0,6H13V20h3Zm-5-5H10V15h2V14h1v2Z"/></svg>