<svg xmlns="http://www.w3.org/2000/svg" viewBox="0 0 29 33"><defs><style>polygon,rect,path{shape-rendering:crispedges;}.pa49-1{fill:#29834f;}.pa49-2{fill:#000000;}.pa49-3{fill:#5a2de2;}.pa49-4{fill:#e8b795;}.pa49-5{fill:#cc3232;}.pa49-6{fill:#8e4717;}.pa49-7{fill:#8e4717;}.pa49-8{fill:#9b8100;}.pa49-9{fill:#ffffff;}.pa49-10{fill:#0068ff;}.pa49-11{fill:#ff1f4a;}</style></defs><path class="pa49-1" d="M6,32V27H7V26H8V25h2V24h1V23H10V22h1V21H10V20H9V18H8V12H9V11h1V10h1V9h7v1h1v1h1v2h1v5H20v2H19v1H18v1h1v1H18v1h1v1h2v1h1v1h1v6h6V0H0V33H6Z"/><path class="pa49-2" d="M23,27H22v6h1V27Z"/><path class="pa49-3" d="M22,27H21v6h1V27Z"/><rect class="pa49-2" x="21" y="26" width="1" height="1"/><path class="pa49-2" d="M21,27H20v6h1V27Z"/><path class="pa49-3" d="M16,25h1v4h1V28h1v1h1V27h1V26H19V25H18V24H16Z"/><path class="pa49-3" d="M19,32V31H18v1H17V30H16v1H15v1H13V30H12v2H11V31H10v1H9v1H20V32Z"/><path class="pa49-3" d="M9,27v2h1V28h1v1h1V25h1V24H11v1H10v1H8v1Z"/><rect class="pa49-3" x="18" y="29" width="1" height="1"/><rect class="pa49-3" x="10" y="29" width="1" height="1"/><path class="pa49-2" d="M20,26h1V25H19v1Z"/><rect class="pa49-2" x="18" y="24" width="1" height="1"/><rect class="pa49-2" x="18" y="22" width="1" height="1"/><rect class="pa49-3" x="17" y="22" width="1" height="1"/><path class="pa49-2" d="M16,23v1h2V23H16Z"/><path class="pa49-2" d="M16,25V24H13v1h3Z"/><path class="pa49-4" d="M16,24V23H13v1h3Z"/><path class="pa49-2" d="M13,23H11v1h2Z"/><path class="pa49-3" d="M12,22H11v1h1Z"/><rect class="pa49-2" x="10" y="24" width="1" height="1"/><rect class="pa49-2" x="10" y="22" width="1" height="1"/><path class="pa49-2" d="M10,25H8v1h2Z"/><path class="pa49-2" d="M9,31V27H8v6H9V31Z"/><path class="pa49-3" d="M8,27H7v6H8V27Z"/><rect class="pa49-2" x="7" y="26" width="1" height="1"/><path class="pa49-2" d="M7,27H6v6H7V27Z"/><path class="pa49-3" d="M13,28h2v1h1V25H13v3Z"/><path class="pa49-3" d="M14,29v2h1V29Z"/><path class="pa49-5" d="M19,30H18V29H17v3h1V31h1v1h1V29H19Z"/><rect class="pa49-5" x="18" y="28" width="1" height="1"/><path class="pa49-5" d="M15,29v2h1V29Z"/><path class="pa49-5" d="M14,30V29h1V28H13v4h2V31H14Z"/><path class="pa49-5" d="M11,29v1H10V29H9v3h1V31h1v1h1V29Z"/><rect class="pa49-5" x="10" y="28" width="1" height="1"/><path class="pa49-2" d="M13,27V25H12v5h1V27Z"/><path class="pa49-2" d="M17,28V25H16v5h1V28Z"/><rect class="pa49-4" x="14" y="15" width="1" height="1"/><path class="pa49-4" d="M17,16v1H16V16H15v1H14V16H11v2h5v1h1V18h1V16Z"/><path class="pa49-4" d="M14,14h1V11H14v1H13v1h1Z"/><rect class="pa49-4" x="11" y="11" width="1" height="1"/><rect class="pa49-4" x="16" y="12" width="1" height="1"/><rect class="pa49-2" x="14" y="16" width="1" height="1"/><rect class="pa49-6" x="11" y="12" width="1" height="1"/><rect class="pa49-6" x="17" y="12" width="1" height="1"/><path class="pa49-7" d="M15,18H13v1h3V18Z"/><path class="pa49-7" d="M19,16v2h1V16Z"/><path class="pa49-7" d="M12,23h5V22h1V21h1V18H17v1H16v1H13V19H12V18H10v3h1v1h1Z"/><path class="pa49-7" d="M10,17V16H9v2h1Z"/><rect class="pa49-2" x="13" y="19" width="3" height="1"/><path class="pa49-2" d="M12,18v1h1V18Z"/><path class="pa49-8" d="M20,16v2h1V13H20v3Z"/><path class="pa49-8" d="M9,13h2V11h1v2h1V12h1V11h1v2h1V12h2v1h2V11H19V10H18V9H11v1H10v1H9v1H8v6H9V13Z"/><path class="pa49-8" d="M10,16v2h1V16Z"/><path class="pa49-8" d="M18,16v2h1V16Z"/><path class="pa49-8" d="M9,18v2h1V18Z"/><rect class="pa49-8" x="16" y="16" width="1" height="1"/><path class="pa49-8" d="M19,19v1h1V18H19Z"/><path class="pa49-9" d="M17,13H15v1H14V13H9v3h5V15h1v1h5V13H17Zm-4,2H10V14h3Zm6,0H16V14h3Z"/><path class="pa49-10" d="M16,14v1h3V14H16Z"/><path class="pa49-11" d="M10,14v1h3V14H10Z"/></svg>