<svg xmlns="http://www.w3.org/2000/svg" viewBox="0 0 29 33"><defs><style>polygon,rect,path{shape-rendering:crispedges;}.va58-1{fill:#d14646;}.va58-2{fill:#184144;}.va58-3{fill:#000000;}.va58-4{fill:#a56e49;}.va58-5{fill:#317f03;}.va58-6{fill:#ffffff;}.va58-7{fill:#893a1f;}.va58-8{fill:#893a1f;}.va58-9{fill:#e70059;}.va58-10{fill:#ffa9d0;}</style></defs><path class="va58-1" d="M0,33H6V27H7V26H8V25h2V22h1V20H10V19H9V16H8V15H9V11h1V9h1V7h1V6H11V5h2V6h2V7h1V9h2v1h1v1h1v4h1v1H20v3H19v1H18v2h1v3h2v1h1v1h1v6h6V0H0Z"/><path class="va58-2" d="M19,26v1H18V26H17V25h1V23H17v1H16v2H15v1H14v3h1v1h3V30h1v1h1V29H19V28h1V27h1V26H19Zm-1,3H17v1H16V29H15V28h1V27h1v1h1Z"/><rect class="va58-2" x="21" y="27" width="1" height="1"/><rect class="va58-2" x="21" y="32" width="1" height="1"/><path class="va58-2" d="M21,30v1h1V29H21Z"/><path class="va58-2" d="M17,32H15v1h3V32Z"/><rect class="va58-2" x="19" y="32" width="1" height="1"/><path class="va58-2" d="M13,32H11v1h3V32Z"/><rect class="va58-2" x="9" y="32" width="1" height="1"/><rect class="va58-2" x="7" y="32" width="1" height="1"/><rect class="va58-2" x="7" y="27" width="1" height="1"/><path class="va58-2" d="M7,30v1H8V29H7Z"/><path class="va58-2" d="M9,27v1h1v1H9v2h1V30h1v1h2V30H12V29H11V28h1V27h2V26H13V24H12V23H11v2h1v1H11v1H10V26H8v1Z"/><path class="va58-3" d="M23,27H22v6h1V27Z"/><rect class="va58-3" x="21" y="26" width="1" height="1"/><path class="va58-3" d="M21,31V27H20v4H14V27H13v4H9V27H8v6H9V32H20v1h1V31Z"/><path class="va58-3" d="M20,26h1V25H19v1Z"/><path class="va58-3" d="M18,24v1h1V22H18v2Z"/><path class="va58-3" d="M17,22h1V21H17Z"/><path class="va58-3" d="M17,24V22H16v2Z"/><path class="va58-3" d="M15,25h1V24H15Z"/><path class="va58-3" d="M15,26V25H14v2h1Z"/><path class="va58-3" d="M14,24H13v1h1Z"/><path class="va58-4" d="M14,25h1V24h1V23H13v1h1Z"/><path class="va58-3" d="M12,21H11v1h1Z"/><path class="va58-3" d="M11,24V22H10v3h1Z"/><path class="va58-3" d="M10,25H8v1h2Z"/><rect class="va58-3" x="7" y="26" width="1" height="1"/><path class="va58-3" d="M7,31V27H6v6H7V31Z"/><rect class="va58-3" x="20" y="15" width="1" height="1"/><path class="va58-3" d="M19,14v1h1V11H19v3Z"/><path class="va58-4" d="M10,17v1h1v1h1V18h5v1h1V18h1V16h1V15H16V14h2V13H16V12h2v1h1V11H18V10H16v1H14V10H11v1H10v1h2v1h1v2H9v1h1Zm4-1h1v1H14Z"/><rect class="va58-4" x="16" y="19" width="1" height="1"/><rect class="va58-4" x="12" y="19" width="1" height="1"/><path class="va58-4" d="M14,20H13v1h3V20H14Z"/><path class="va58-4" d="M10,14h2V13H10Z"/><rect class="va58-3" x="18" y="10" width="1" height="1"/><path class="va58-3" d="M13,22H12v2h1V22Z"/><path class="va58-3" d="M12,10h1V9H11v1Z"/><path class="va58-3" d="M17,10h1V9H16v1Z"/><path class="va58-3" d="M11,10H10v1h1Z"/><path class="va58-3" d="M10,14V11H9v4h1Z"/><rect class="va58-3" x="8" y="15" width="1" height="1"/><rect class="va58-3" x="14" y="16" width="1" height="1"/><path class="va58-5" d="M10,30v1h1V30Z"/><path class="va58-5" d="M10,32v1h1V32Z"/><path class="va58-5" d="M12,28H11v1h1v1h1V27H12Z"/><polygon class="va58-5" points="10 27 11 27 11 26 12 26 12 25 11 25 10 25 10 26 10 27"/><path class="va58-5" d="M15,26h1V25H15Z"/><path class="va58-5" d="M13,25v1h1V25Z"/><polygon class="va58-5" points="17 27 16 27 16 28 15 28 15 29 16 29 16 30 17 30 17 29 18 29 18 28 17 28 17 27"/><polygon class="va58-5" points="17 25 17 26 18 26 18 27 19 27 19 26 19 25 18 25 17 25"/><path class="va58-5" d="M7,29H8V28H7Z"/><path class="va58-5" d="M10,28H9v1h1Z"/><path class="va58-5" d="M21,29h1V28H21Z"/><path class="va58-5" d="M19,29h1V28H19Z"/><path class="va58-5" d="M21,32h1V31H21Z"/><path class="va58-5" d="M7,32H8V31H7Z"/><path class="va58-5" d="M14,30v1h1V30Z"/><path class="va58-5" d="M14,32v1h1V32Z"/><path class="va58-5" d="M18,30v1h1V30Z"/><path class="va58-5" d="M18,32v1h1V32Z"/><path class="va58-5" d="M12,23V22H11v1Z"/><path class="va58-5" d="M17,23h1V22H17Z"/><path class="va58-6" d="M12,15h1V14H12Z"/><path class="va58-6" d="M10,14v1h1V14Z"/><path class="va58-6" d="M18,14v1h1V14Z"/><path class="va58-6" d="M16,14v1h1V14Z"/><path class="va58-3" d="M11,14v1h1V14Z"/><path class="va58-3" d="M17,14v1h1V14Z"/><path class="va58-7" d="M19,13H18v1h1Z"/><rect class="va58-7" x="16" y="12" width="2" height="1"/><path class="va58-7" d="M13,14V13H12v1Z"/><path class="va58-7" d="M12,13V12H10v1Z"/><path class="va58-8" d="M12,22h1v1h3V22h1V21h1V20h1V19h1V16H19v2H18v1H17v1H16v1H13V20H12V19H11V18H10V16H9v3h1v1h1v1h1Z"/><path class="va58-3" d="M13,18H12v1h1Z"/><path class="va58-3" d="M16,18v1h1V18Z"/><path class="va58-3" d="M15,19v1h1V19Z"/><path class="va58-3" d="M15,19V18H14v1Z"/><rect class="va58-3" x="13" y="19" width="1" height="1"/><path class="va58-6" d="M14,19V18H13v1Z"/><path class="va58-6" d="M16,19V18H15v1Z"/><path class="va58-9" d="M14,20h1V19H14Z"/><path class="va58-10" d="M13,10h1v1h2V7H15V6H13V5H11V6h1V7H11V9h2Z"/><path class="va58-10" d="M11,9H10v1h1Z"/><rect class="va58-10" x="10" y="9" width="1" height="1"></rect></svg>