<svg xmlns="http://www.w3.org/2000/svg" viewBox="0 0 29 33"><defs><style>polygon,rect,path{shape-rendering:crispedges;}.ma202-1{fill:#e55b35;}.ma202-2{fill:#000000;}.ma202-3{fill:#e0dbc6;}.ma202-4{fill:#990000;}.ma202-5{fill:#6d3e35;}.ma202-6{fill:#8c7850;}.ma202-7{fill:#ffffff;}.ma202-8{fill:#8e4717;}.ma202-9{fill:#8e4717;}.ma202-10{fill:#38a6e8;}</style></defs><path class="ma202-1" d="M0,33H6V27H7V26H8V25h2V24h2V21H11V20H10V19H9V16H8V15H9V10h1V9h1V8h7V9h1v1h1v5h1v1H20v3H19v1H18v1H17v3h2v1h2v1h1v1h1v6h6V0H0Z"/><path class="ma202-2" d="M23,27H22v6h1V27Z"/><rect class="ma202-2" x="21" y="26" width="1" height="1"/><path class="ma202-3" d="M21,31h1V30H21Z"/><path class="ma202-3" d="M21,28h1V27H21Z"/><path class="ma202-2" d="M21,30V27H20v6h1V30Z"/><path class="ma202-3" d="M18,31h2V30H18Z"/><path class="ma202-3" d="M18,28h2V27H18Z"/><path class="ma202-2" d="M20,26h1V25H19v1Z"/><path class="ma202-2" d="M18,30V25h1V24H17v1H16v1h1v7h1V30Z"/><path class="ma202-4" d="M17,26H16v1H13V26H12v7h5V26Z"/><path class="ma202-2" d="M13,26v1h3V26H13Z"/><path class="ma202-2" d="M13,23h3v1h1V21H16v1H13V21H12v3h1Z"/><path class="ma202-5" d="M13,25v1h3V25h1V24H16V23H13v1H12v1Z"/><path class="ma202-2" d="M12,26h1V25H12V24H10v1h1v8h1V26Z"/><path class="ma202-3" d="M9,28h2V27H9Z"/><path class="ma202-3" d="M9,31h2V30H9Z"/><path class="ma202-2" d="M10,25H8v1h2Z"/><path class="ma202-2" d="M9,30V27H8v6H9V30Z"/><rect class="ma202-2" x="7" y="26" width="1" height="1"/><path class="ma202-3" d="M7,31H8V30H7Z"/><path class="ma202-3" d="M8,28V27H7v1Z"/><path class="ma202-2" d="M7,30V27H6v6H7V30Z"/><path class="ma202-6" d="M9,31v2h2V31Z"/><path class="ma202-6" d="M18,31v2h2V31Z"/><path class="ma202-6" d="M18,29v1h2V28H18Z"/><path class="ma202-6" d="M9,29v1h2V28H9Z"/><path class="ma202-6" d="M18,26v1h3V26H19V25H18Z"/><path class="ma202-6" d="M9,27h2V25H10v1H8v1Z"/><path class="ma202-6" d="M7,29v1H8V28H7Z"/><path class="ma202-6" d="M7,31v2H8V31Z"/><path class="ma202-6" d="M21,31v2h1V31Z"/><path class="ma202-6" d="M21,29v1h1V28H21Z"/><rect class="ma202-2" x="20" y="15" width="1" height="1"/><polygon class="ma202-5" points="18 14 19 14 19 13 17 13 17 14 18 14"/><path class="ma202-5" d="M13,22h3V21h1V20h1V19h1V16h1V15H16V13h1V12h2V11H18V10H16v1H15v1H14v2H13v3H12V16H11V15H9v1h1v3h1v1h1v1h1Zm1-6h1v1H14Zm-2,3V18h5v1H16v1H13V19Z"/><path class="ma202-2" d="M19,17v2h1V16H19Z"/><rect class="ma202-2" x="18" y="19" width="1" height="1"/><rect class="ma202-2" x="17" y="20" width="1" height="1"/><rect class="ma202-2" x="11" y="20" width="1" height="1"/><rect class="ma202-2" x="10" y="19" width="1" height="1"/><path class="ma202-2" d="M10,14H9v1h1Z"/><path class="ma202-2" d="M10,16H9v3h1V16Z"/><rect class="ma202-2" x="8" y="15" width="1" height="1"/><rect class="ma202-2" x="14" y="16" width="1" height="1"/><path class="ma202-7" d="M18,14v1h1V14Z"/><path class="ma202-7" d="M16,14v1h1V14Z"/><path class="ma202-2" d="M17,14v1h1V14Z"/><path class="ma202-8" d="M17,13H16v1h1Z"/><rect class="ma202-8" x="17" y="12" width="2" height="1"/><path class="ma202-9" d="M16,19h1V18H12v1h4Z"/><path class="ma202-2" d="M13,20h3V19H13Z"/><path class="ma202-10" d="M10,15h1v1h1v1h1V14h1V12h1V11h1V10h2v1h1v4h1V10H19V9H18V8H11V9H10v1H9v4h1Z"/></svg>