<svg xmlns="http://www.w3.org/2000/svg" viewBox="0 0 29 33"><defs><style>polygon,rect,path{shape-rendering:crispedges;}.cb112-1{fill:#db5a8e;}.cb112-2{fill:#000000;}.cb112-3{fill:#685432;}.cb112-4{fill:#ffffff;}.cb112-5{fill:#e8b795;}.cb112-6{fill:#5e362f;}.cb112-7{fill:#5e362f;}.cb112-8{fill:#ff1f4a;}</style></defs><path class="cb112-1" d="M0,33H6V27H7V26H8V25h2V24h1V23h1V21H11V20H9V18H8V12H9V11h1V10h1V9h7v1h1v1h1v2h1v5H20v2H18v1H17v2h1v1h1v1h2v1h1v1h1v6h6V0H0Z"/><path class="cb112-2" d="M23,27H22v6h1V27Z"/><path class="cb112-3" d="M22,27H21v6h1V27Z"/><rect class="cb112-2" x="21" y="26" width="1" height="1"/><path class="cb112-2" d="M21,27H20v6h1V27Z"/><path class="cb112-3" d="M20,27h1V26H19V25H18v4H17v4h3V27Z"/><path class="cb112-2" d="M20,26h1V25H19v1Z"/><path class="cb112-2" d="M17,29H16v4h1V29Z"/><rect class="cb112-4" x="16" y="24" width="1" height="1"/><path class="cb112-4" d="M16,29h1V26H16V25H13v1H12v3h1v4h1V32h1v1h1V29Zm-1,2H14V30h1Zm0-2H14V28h1Zm0-2H14V26h1Z"/><rect class="cb112-4" x="15" y="23" width="1" height="1"/><rect class="cb112-2" x="14" y="32" width="1" height="1"/><rect class="cb112-2" x="14" y="30" width="1" height="1"/><rect class="cb112-2" x="14" y="28" width="1" height="1"/><rect class="cb112-2" x="14" y="26" width="1" height="1"/><path class="cb112-2" d="M15,24V23H14v1H13v1h3V24Z"/><rect class="cb112-4" x="13" y="23" width="1" height="1"/><path class="cb112-2" d="M13,29H12v4h1V29Z"/><rect class="cb112-4" x="12" y="24" width="1" height="1"/><path class="cb112-3" d="M12,29H11V25H10v1H8v1H9v6h3V29Z"/><path class="cb112-2" d="M11,26v3h1V26h1V25H12V24h1V22H12v1H11v1H10v1h1Z"/><path class="cb112-2" d="M10,25H8v1h2Z"/><path class="cb112-2" d="M9,27H8v6H9V27Z"/><path class="cb112-3" d="M8,27H7v6H8V27Z"/><rect class="cb112-2" x="7" y="26" width="1" height="1"/><path class="cb112-2" d="M7,27H6v6H7V27Z"/><rect class="cb112-5" x="19" y="15" width="1" height="1"/><path class="cb112-5" d="M18,14V13H16v1h2Z"/><path class="cb112-5" d="M18,15H17v2H16V15H15V11H14v1H13v2h1v2h1v1H14V16H13V15H11v4h1V18h2v1h1V18h2v1h1V15Z"/><rect class="cb112-5" x="11" y="13" width="1" height="1"/><rect class="cb112-5" x="11" y="11" width="1" height="1"/><rect class="cb112-5" x="15" y="20" width="1" height="1"/><rect class="cb112-5" x="13" y="20" width="1" height="1"/><rect class="cb112-5" x="9" y="15" width="1" height="1"/><rect class="cb112-2" x="19" y="16" width="1" height="1"/><path class="cb112-2" d="M16,23v1h1v1H16v1h1v3h1V25h1V24H18V23H17V22H16Z"/><rect class="cb112-2" x="9" y="14" width="1" height="1"/><rect class="cb112-2" x="9" y="16" width="1" height="1"/><rect class="cb112-2" x="14" y="16" width="1" height="1"/><path class="cb112-4" d="M13,15V14H12v1Z"/><path class="cb112-4" d="M17,14H16v1h1Z"/><path class="cb112-2" d="M12,14H11v1h1Z"/><path class="cb112-2" d="M17,15h1V14H17Z"/><path class="cb112-6" d="M18,12H16v1h2Z"/><rect class="cb112-6" x="11" y="12" width="1" height="1"/><path class="cb112-7" d="M15,18v1h1V18Z"/><rect class="cb112-7" x="19" y="17" width="1" height="1"/><path class="cb112-7" d="M13,23h3V22h1V21h1V20h1V18H18v1H16v2H15V20H14v1H13V19h1V18H12v1H11V18H10v2h1v1h1v1h1Z"/><rect class="cb112-7" x="9" y="17" width="1" height="1"/><path class="cb112-2" d="M14,19H13v1h3V19H14Z"/><path class="cb112-2" d="M16,18v1h1V18Z"/><path class="cb112-8" d="M9,16V14h1v4h1V11h1v3h1V12h1V11h1v4h1V12h2v6h1V15h1v3h1V13H20V11H19V10H18V9H11v1H10v1H9v1H8v6H9V16Z"/><path class="cb112-8" d="M9,18v2h1V18Z"/><path class="cb112-8" d="M13,16h1V14H13v2Z"/><path class="cb112-8" d="M17,17V15H16v2Z"/><path class="cb112-8" d="M19,19v1h1V18H19Z"/></svg>