<svg xmlns="http://www.w3.org/2000/svg" viewBox="0 0 29 33"><defs><style>polygon,rect,path{shape-rendering:crispedges;}.pa200-1{fill:#6b4f99;}.pa200-2{fill:#000000;}.pa200-3{fill:#e1ff85;}.pa200-4{fill:#b2622b;}.pa200-5{fill:#99ce09;}.pa200-6{fill:#ffffff;}.pa200-7{fill:#6f7032;}.pa200-8{fill:#c8a715;}.pa200-9{fill:#9b8100;}.pa200-10{fill:#c9a717;}</style></defs><path class="pa200-1" d="M6,32V27H7V26H8V25h2V20H9V16H8V13H4V12H6V11H8V10h2V9h1V8h1V7h1V6h1V5h1V6h1V7h1V8h1V9h1v1h2v1h2v1h2v1H21v3H20v4H19v5h2v1h1v1h1v6h6V0H0V33H6Z"/><path class="pa200-2" d="M23,27H22v6h1V27Z"/><path class="pa200-3" d="M22,27H21v6h1V27Z"/><rect class="pa200-2" x="21" y="26" width="1" height="1"/><path class="pa200-2" d="M21,27H20v6h1V27Z"/><path class="pa200-3" d="M20,27h1V26H19V25H18V24H17v5h1v1h1v3h1V27Z"/><path class="pa200-3" d="M10,30h1V29h1V24H11v1H10v1H8v1H9v6h1V30Z"/><path class="pa200-2" d="M20,26h1V25H19v1Z"/><path class="pa200-2" d="M18,25h1V24H18Z"/><rect class="pa200-3" x="17" y="22" width="1" height="1"/><rect class="pa200-2" x="17" y="23" width="1" height="1"/><path class="pa200-2" d="M13,24v1h3V24H13Z"/><path class="pa200-4" d="M14,24h2V23H13v1Z"/><rect class="pa200-2" x="11" y="23" width="1" height="1"/><rect class="pa200-3" x="11" y="22" width="1" height="1"/><path class="pa200-2" d="M11,24H10v1h1Z"/><path class="pa200-2" d="M10,25H8v1h2Z"/><path class="pa200-2" d="M9,27H8v6H9V27Z"/><path class="pa200-3" d="M8,27H7v6H8V27Z"/><rect class="pa200-2" x="7" y="26" width="1" height="1"/><path class="pa200-2" d="M7,27H6v6H7V27Z"/><path class="pa200-3" d="M16,25H13v3h3V25Z"/><path class="pa200-3" d="M16,32H12v1h5V32Z"/><rect class="pa200-3" x="16" y="30" width="1" height="1"/><rect class="pa200-3" x="12" y="30" width="1" height="1"/><path class="pa200-5" d="M19,30H18V29H17v2H16V28H13v3H12V29H11v1H10v3h2V32h5v1h2V30Z"/><path class="pa200-2" d="M13,25H12v5h1V25Z"/><path class="pa200-2" d="M16,26v4h1V25H16Z"/><path class="pa200-2" d="M20,16h1V15H20Z"/><rect class="pa200-2" x="19" y="14" width="1" height="1"/><path class="pa200-4" d="M10,17v1h1v1h1V18h2v1h1V18h2v1h1V18h1V16h1V15H16V14H13v1H9v1h1Zm4-1h1v1H14Z"/><polygon class="pa200-4" points="13 21 14 21 14 22 15 22 15 21 16 21 16 20 13 20 13 21"/><path class="pa200-2" d="M19,17h1V16H19Z"/><path class="pa200-2" d="M9,14v1h1V14Z"/><path class="pa200-2" d="M10,16H9v1h1Z"/><path class="pa200-2" d="M8,15v1H9V15Z"/><rect class="pa200-2" x="14" y="16" width="1" height="1"/><path class="pa200-6" d="M12,15h1V14H12Z"/><path class="pa200-6" d="M10,14v1h1V14Z"/><path class="pa200-6" d="M18,14v1h1V14Z"/><path class="pa200-6" d="M16,14v1h1V14Z"/><path class="pa200-2" d="M11,14v1h1V14Z"/><path class="pa200-2" d="M17,14v1h1V14Z"/><path class="pa200-7" d="M12,22v1h5V22h2V20h1V17H19v1H18v1H16v2H15v1H14V21H13V19h1V18H12v1H11V18H10V17H9v3h1v2h2Z"/><path class="pa200-7" d="M15,18v1h1V18Z"/><path class="pa200-8" d="M18,23h1V22H18Z"/><path class="pa200-7" d="M18,24h1V23H18Z"/><path class="pa200-8" d="M16,23v1h1V23Z"/><path class="pa200-7" d="M16,25h1V24H16Z"/><path class="pa200-8" d="M13,23H12v1h1Z"/><path class="pa200-7" d="M13,24H12v1h1Z"/><path class="pa200-8" d="M11,22H10v1h1Z"/><path class="pa200-7" d="M11,23H10v1h1Z"/><path class="pa200-2" d="M14,19H13v1h3V19H14Z"/><path class="pa200-2" d="M16,18v1h1V18Z"/><path class="pa200-9" d="M20,15h1V14H20Z"/><path class="pa200-9" d="M9,14H8v1H9Z"/><path class="pa200-10" d="M10,14H21V13h4V12H23V11H21V10H19V9H18V8H17V7H16V6H15V5H14V6H13V7H12V8H11V9H10v1H8v1H6v1H4v1H8v1h2Z"/></svg>