<svg xmlns="http://www.w3.org/2000/svg" viewBox="0 0 29 33"><defs><style>polygon,rect,path{shape-rendering:crispedges;}.bb122-1{fill:#d4a122;}.bb122-2{fill:#000000;}.bb122-3{fill:#3e5e00;}.bb122-4{fill:#ffffff;}.bb122-5{fill:#a56e49;}.bb122-6{fill:#5e362f;}.bb122-7{fill:#5e362f;}.bb122-8{fill:#99004d;}</style></defs><path class="bb122-1" d="M0,33H6V27H7V26H8V25h2V24h1V23h1V22H11V21H10V20H9V16H8V15H9V11h1V10h1V9h7v1h1v1h1v4h1v1H20v4H19v1H18v1H17v1h1v1h1v1h2v1h1v1h1v6h6V0H0Z"/><path class="bb122-2" d="M23,27H22v6h1V27Z"/><path class="bb122-3" d="M22,27H21v6h1V27Z"/><rect class="bb122-2" x="21" y="26" width="1" height="1"/><path class="bb122-2" d="M21,27H20v6h1V27Z"/><path class="bb122-3" d="M20,27h1V26H19V25H18v4H17v4h3V27Z"/><path class="bb122-2" d="M20,26h1V25H19v1Z"/><path class="bb122-2" d="M17,29H16v4h1V29Z"/><rect class="bb122-4" x="16" y="24" width="1" height="1"/><path class="bb122-4" d="M16,29h1V26H16V25H13v1H12v3h1v4h1V32h1v1h1V29Zm-1,2H14V30h1Zm0-2H14V28h1Zm0-2H14V26h1Z"/><rect class="bb122-4" x="15" y="23" width="1" height="1"/><rect class="bb122-2" x="14" y="32" width="1" height="1"/><rect class="bb122-2" x="14" y="30" width="1" height="1"/><rect class="bb122-2" x="14" y="28" width="1" height="1"/><rect class="bb122-2" x="14" y="26" width="1" height="1"/><path class="bb122-2" d="M15,24V23H14v1H13v1h3V24Z"/><rect class="bb122-4" x="13" y="23" width="1" height="1"/><path class="bb122-2" d="M13,29H12v4h1V29Z"/><rect class="bb122-4" x="12" y="24" width="1" height="1"/><path class="bb122-3" d="M12,29H11V25H10v1H8v1H9v6h3V29Z"/><path class="bb122-2" d="M11,26v3h1V26h1V25H12V24h1V22H12v1H11v1H10v1h1Z"/><path class="bb122-2" d="M10,25H8v1h2Z"/><path class="bb122-2" d="M9,27H8v6H9V27Z"/><path class="bb122-3" d="M8,27H7v6H8V27Z"/><rect class="bb122-2" x="7" y="26" width="1" height="1"/><path class="bb122-2" d="M7,27H6v6H7V27Z"/><rect class="bb122-2" x="20" y="15" width="1" height="1"/><rect class="bb122-5" x="13" y="20" width="1" height="1"/><path class="bb122-5" d="M18,15H15v2H14V15H13v1H11v1H10v1h1v1h1V18h2v1h1V18h2v1h1V18h1V16h1V15H18Z"/><rect class="bb122-5" x="15" y="20" width="1" height="1"/><rect class="bb122-5" x="9" y="15" width="1" height="1"/><path class="bb122-2" d="M16,23v1h1v1H16v1h1v3h1V25h1V24H18V23H17V22H16Z"/><rect class="bb122-2" x="8" y="15" width="1" height="1"/><path class="bb122-2" d="M15,17V16H14v1Z"/><path class="bb122-4" d="M17,14H16v1h1Z"/><path class="bb122-2" d="M18,15h1V14H17v1Z"/><rect class="bb122-6" x="16" y="13" width="1" height="1"/><path class="bb122-7" d="M14,18H13v1h1Z"/><path class="bb122-7" d="M13,23h3V22h2V21h1V20h1V16H19v2H18v1H17V18H15v1h1v2H15V20H14v1H13V19H11V18H10V16H9v4h1v1h1v1h2Z"/><path class="bb122-2" d="M13,19v1h3V19H13Z"/><path class="bb122-2" d="M12,18v1h1V18Z"/><path class="bb122-8" d="M10,16v1h1V16h2V15h1v1h1V15h1V13h1v1h2v1h1V11H19V10H18V9H11v1H10v1H9v4h1Z"/></svg>