<svg xmlns="http://www.w3.org/2000/svg" viewBox="0 0 29 33"><defs><style>polygon,rect,path{shape-rendering:crispedges;}.fa9-1{fill:#d14646;}.fa9-2{fill:#000000;}.fa9-3{fill:#00686d;}.fa9-4{fill:#ce8452;}.fa9-5{fill:#34e0cb;}.fa9-6{fill:#ffffff;}.fa9-7{fill:#893a1f;}.fa9-8{fill:#cbed03;}.fa9-9{fill:#304400;}.fa9-10{fill:#b23b00;}</style></defs><path class="fa9-1" d="M6,32V27H7V26H8V25h2V24h2V22H11V21H10v1H9V21H8V20H7V19H8V12H9V10h1V9h1V8h7V9h1v1h1v2h1v7h1v1H21v1H20v1H19V21H18v1H17v2h2v1h2v1h1v1h1v6h6V0H0V33H6Z"/><path class="fa9-2" d="M23,27H22v3H21V27H20v6h1V31h1v2h1V27Z"/><rect class="fa9-2" x="21" y="26" width="1" height="1"/><path class="fa9-3" d="M21,28v2h1V27H21Z"/><path class="fa9-4" d="M21,31v2h1V31Z"/><path class="fa9-2" d="M20,26h1V25H19v1Z"/><path class="fa9-3" d="M16,32H12v1h5V32Z"/><path class="fa9-3" d="M20,27h1V26H19V25H17v1H16v1H13V26H12V25H10v1H8v1H9v6h1V30h1V29h1V28h5v1h1v1h1v3h1V27Z"/><rect class="fa9-3" x="12" y="30" width="1" height="1"/><rect class="fa9-3" x="16" y="30" width="1" height="1"/><path class="fa9-2" d="M18,25h1V24H17v1Z"/><rect class="fa9-2" x="16" y="25" width="1" height="1"/><path class="fa9-2" d="M13,26v1h3V26H13Z"/><path class="fa9-2" d="M13,23h3v1h1V21H16v1H13V21H12v3h1Z"/><path class="fa9-4" d="M13,25v1h3V25h1V24H16V23H13v1H12v1Z"/><rect class="fa9-2" x="12" y="25" width="1" height="1"/><path class="fa9-2" d="M12,24H10v1h2Z"/><path class="fa9-2" d="M10,25H8v1h2Z"/><path class="fa9-2" d="M9,27H8v3H7V27H6v6H7V31H8v2H9V27Z"/><rect class="fa9-2" x="7" y="26" width="1" height="1"/><path class="fa9-3" d="M7,30H8V27H7v3Z"/><path class="fa9-4" d="M7,31v2H8V31Z"/><path class="fa9-5" d="M19,30H18V29H17V28H12v1H11v1H10v3h2V32h5v1h2V30Zm-6,1H12V30h1Zm4,0H16V30h1Z"/><path class="fa9-2" d="M20,16h1V15H20Z"/><rect class="fa9-2" x="19" y="14" width="1" height="1"/><rect class="fa9-4" x="9" y="15" width="1" height="1"/><path class="fa9-4" d="M18,20V19h1V16h1V15H16V13h1V11H16V10H15v5H14v1h1v1H14V16H13v1H11V16H10v3h1v1h1v1h1v1h3V21h1V20Zm-2,0H13V19H12V18h1v1h3Z"/><rect class="fa9-4" x="17" y="13" width="1" height="1"/><path class="fa9-2" d="M19,17v2h1V16H19Z"/><rect class="fa9-2" x="18" y="19" width="1" height="1"/><rect class="fa9-2" x="17" y="20" width="1" height="1"/><rect class="fa9-2" x="11" y="20" width="1" height="1"/><rect class="fa9-2" x="10" y="19" width="1" height="1"/><path class="fa9-2" d="M10,16H9v3h1V16Z"/><path class="fa9-2" d="M9,15H8v1H9Z"/><rect class="fa9-2" x="14" y="16" width="1" height="1"/><path class="fa9-6" d="M19,15V14H18v1Z"/><path class="fa9-6" d="M16,14v1h1V14Z"/><path class="fa9-2" d="M17,15h1V14H17Z"/><path class="fa9-7" d="M17,13H16v1h1Z"/><path class="fa9-7" d="M18,13V12H17v1Z"/><rect class="fa9-2" x="13" y="19" width="3" height="1"/><rect class="fa9-2" x="12" y="18" width="1" height="1"/><path class="fa9-8" d="M12,15h1V13H11v2Z"/><path class="fa9-9" d="M13,13v2h1V13Z"/><polygon class="fa9-9" points="12 15 11 15 11 16 13 16 13 15 12 15"/><path class="fa9-9" d="M11,15V14H10v1Z"/><path class="fa9-9" d="M13,12H11v1h2Z"/><rect class="fa9-2" x="10" y="15" width="1" height="1"/><rect class="fa9-2" x="11" y="16" width="2" height="1"/><rect class="fa9-2" x="13" y="15" width="1" height="1"/><path class="fa9-2" d="M13,13h1v2h1V10H13v1H12v1h1Z"/><rect class="fa9-2" x="9" y="14" width="1" height="1"/><path class="fa9-10" d="M20,17v2H19v1H18v1h1v1h1V21h1V20h1V19H21V16H20Z"/><path class="fa9-10" d="M9,14h2V12h1V11h1V10h3v1h1v1h1v2h2v1h1V12H20V10H19V9H18V8H11V9H10v1H9v2H8v3H9Z"/><path class="fa9-10" d="M10,20V19H9V16H8v3H7v1H8v1H9v1h1V21h1V20Z"/><path class="fa9-10" d="M11,21v1h1V21Z"/><path class="fa9-10" d="M17,22h1V21H17Z"/></svg>