<svg xmlns="http://www.w3.org/2000/svg" viewBox="0 0 29 33"><defs><style>polygon,rect,path{shape-rendering:crispedges;}.oa89-1{fill:#6b4f99;}.oa89-2{fill:#000000;}.oa89-3{fill:#c5e2d0;}.oa89-4{fill:#cc3232;}.oa89-5{fill:#e8b795;}.oa89-6{fill:#508e91;}.oa89-7{fill:#893a1f;}.oa89-8{fill:#cc3232;}.oa89-9{fill:#ffffff;}.oa89-10{fill:#eaeaea;}</style></defs><path class="oa89-1" d="M18,22H17v2h1Z"/><polygon class="oa89-1" points="14 16 15 16 15 16 14 16 14 17 14 17 14 16"/><path class="oa89-1" d="M0,33H29V0H0Zm6-1V27H7V26H8V25h2V24h2V22H11V21H10v1H9V21H8V20H7V19H8V15H8V12H9V10h1V9h1V8h7V9h1v1h1v2h1v3H20v1H19v3H18v1H17v1H16v1h0V21h1V20h1V19h1V16h1V15h1v4h2v1h1v6H23v7H6Z"/><rect class="oa89-1" x="11" y="20" width="1"/><rect class="oa89-1" x="19" y="24" width="1" height="1"/><rect class="oa89-1" x="10" y="19" width="1"/><rect class="oa89-1" x="9" y="16" width="1"/><rect class="oa89-1" x="12" y="21" width="1"/><path class="oa89-2" d="M7,32V27H6v6H7Z"/><path class="oa89-3" d="M7,32v1H8V32Z"/><path class="oa89-3" d="M8,30V29H7v2H8Z"/><path class="oa89-3" d="M8,28V27H7v1Z"/><rect class="oa89-2" x="7" y="26" width="1" height="1"/><path class="oa89-2" d="M9,31V27H8v6H9V31Z"/><path class="oa89-3" d="M9,32v1h1V32Z"/><path class="oa89-3" d="M9,27v1h1v1H9v2h1V30h1V27H10V26H8v1Z"/><path class="oa89-2" d="M10,25H8v1h2Z"/><path class="oa89-2" d="M11,26v7h1V26h1V25H12V24H10v1h1Z"/><path class="oa89-4" d="M17,26H16v1H13V26H12v7h5V26Z"/><path class="oa89-2" d="M13,23h3v1h1V21H16v1H13V21H12v3h1Z"/><path class="oa89-2" d="M14,27h2V26H13v1Z"/><path class="oa89-5" d="M13,25v1h3V25h1V24H16V23H13v1H12v1Z"/><path class="oa89-2" d="M18,30V25h1V24H17v1H16v1h1v7h1V30Z"/><path class="oa89-3" d="M19,32v1h1V32Z"/><path class="oa89-3" d="M19,27H18v3h1v1h1V29H19V28h1V26H19Z"/><path class="oa89-2" d="M21,31V26H20v7h1V31Z"/><path class="oa89-3" d="M21,32v1h1V32Z"/><path class="oa89-3" d="M22,28V27H21v1Z"/><path class="oa89-3" d="M21,30v1h1V29H21Z"/><path class="oa89-2" d="M22,27v6h1V26H22Z"/><path class="oa89-6" d="M11,30H10v1H9v1h1v1h1V30Z"/><path class="oa89-6" d="M10,27h1V25H10v2Z"/><path class="oa89-6" d="M19,26V25H18v2h1Z"/><path class="oa89-6" d="M8,28H7v1H8Z"/><path class="oa89-6" d="M10,29V28H9v1Z"/><path class="oa89-6" d="M21,29h1V28H21Z"/><path class="oa89-6" d="M19,29h1V28H19Z"/><path class="oa89-6" d="M21,32h1V31H21Z"/><path class="oa89-6" d="M8,31H7v1H8Z"/><path class="oa89-6" d="M20,32V31H19V30H18v3h1V32Z"/><path class="oa89-2" d="M21,15H20v1h1Z"/><path class="oa89-5" d="M17,12V11H16V10H13v1H12v1h1v1h4V12Z"/><path class="oa89-5" d="M10,16h0v3h1v1h1v1h1v1h3V21h1V20h1V19h1V16h1V15H18v1H16V15H15V14H14v1H13v1H11V15H9v1Zm4,0h1v1H14Zm-2,2h1v1h3v1H13V19H12Z"/><path class="oa89-2" d="M20,18V16H19v3h1Z"/><rect class="oa89-2" x="18" y="19" width="1" height="1"/><rect class="oa89-2" x="17" y="20" width="1" height="1"/><polygon class="oa89-2" points="12 21 12 20 12 20 11 20 11 21 12 21 12 21"/><polygon class="oa89-2" points="11 19 10 19 10 20 11 20 11 20 11 19"/><path class="oa89-2" d="M10,18V16H9v3h1Z"/><path class="oa89-2" d="M9,16V15H8v1Z"/><polygon class="oa89-2" points="14 17 14 17 15 17 15 16 15 16 14 16 14 17"/><path class="oa89-7" d="M12,12H11v1h2V12Z"/><rect class="oa89-7" x="17" y="12" width="1" height="1"/><rect class="oa89-2" x="13" y="19" width="3" height="1"/><rect class="oa89-2" x="12" y="18" width="1" height="1"/><path class="oa89-8" d="M20,19h1V16H20v3Z"/><path class="oa89-8" d="M10,14h1V12h1V11h1V10h3v1h1v1h1v2h2v1h1V12H20V10H19V9H18V8H11V9H10v1H9v2H8v3H9V14Z"/><path class="oa89-8" d="M10,20V19H9V16H8v3H7v1H8v1H9v1h1V21h1V20Z"/><path class="oa89-8" d="M11,21v1h1V21Z"/><path class="oa89-8" d="M18,22V21H17v1Z"/><path class="oa89-2" d="M11,16h2V15h1V14h1v1h1v1h2V15h2V14H18V13H11v1H9v1h2Z"/><path class="oa89-5" d="M22,25H20v1h1v1h1V26h1V25Z"/><path class="oa89-2" d="M23,26h1V25H23Z"/><rect class="oa89-2" x="19" y="25" width="1" height="1"/><path class="oa89-2" d="M23,22h1V21H23Z"/><path class="oa89-2" d="M21,22h1V21H20v1Z"/><path class="oa89-9" d="M23,23h1V22H23Z"/><path class="oa89-9" d="M23,23H22v1H21v1h3V24H23Z"/><path class="oa89-10" d="M21,25V24H20v1Z"/><path class="oa89-10" d="M18,22v2h2V23H19V21h1V20h3V19H19v1H18v2Z"/><rect class="oa89-2" x="22" y="22" width="1" height="1"/><rect class="oa89-2" x="21" y="23" width="1" height="1"/><path class="oa89-2" d="M23,24h1V23H23Z"/><path class="oa89-9" d="M20,20v1h2v1h1V21h1V20H20Z"/><path class="oa89-9" d="M21,23h1V22H20V21H19v2h1v1h1Z"/></svg>