<svg xmlns="http://www.w3.org/2000/svg" viewBox="0 0 29 33"><defs><style>polygon,rect,path{shape-rendering:crispedges;}.hb120-1{fill:#b4bd09;}.hb120-2{fill:#000000;}.hb120-3{fill:#512a24;}.hb120-4{fill:#ffffff;}.hb120-5{fill:#00686d;}.hb120-6{fill:#00686d;}.hb120-7{fill:#000000;}.hb120-8{fill:#455054;}.hb120-9{fill:#29834f;}.hb120-10{fill:#ff791f;}</style></defs><path class="hb120-1" d="M8,19v3H9v2H8v1h2V24h2V21H11V20H10V19H9V16H8v3Z"/><path class="hb120-1" d="M8,32H6V31H5V22H6V21H7V20H5v1H2V17H5V16H8V14H9V12H8v1H7V12H8V11H9V10h1V9h2V8h5V9h2v1h1v1h1v1h1v1H21V12H20v2h1v2H20v3H19v1H18v1H17v3h2v1h2v1h1v1h1v6h6V0H0V33H8Z"/><path class="hb120-2" d="M6,22H5v9H6V22Z"/><path class="hb120-2" d="M23,27H22v6h1V27Z"/><path class="hb120-3" d="M22,27H21v6h1V27Z"/><rect class="hb120-2" x="21" y="26" width="1" height="1"/><path class="hb120-2" d="M21,27H20v6h1V27Z"/><path class="hb120-3" d="M20,27h1V26H19V25H17V24H16V23H13v1H12v1H10v1H8v1H9v6h5V29h1v4h5V27Zm-8,2H11V28h1Zm6,0H17V28h1Z"/><path class="hb120-2" d="M20,26h1V25H19v1Z"/><rect class="hb120-2" x="17" y="28" width="1" height="1"/><path class="hb120-2" d="M18,25h1V24H17v1Z"/><path class="hb120-2" d="M15,29H14v4h1V29Z"/><rect class="hb120-2" x="11" y="28" width="1" height="1"/><path class="hb120-2" d="M10,25h2V24H10Z"/><path class="hb120-2" d="M9,27H8V26h2V25H8V24H7v7H6v1H8v1H9V27Z"/><path class="hb120-3" d="M7,30V24H8V22H6v9H7Z"/><path class="hb120-2" d="M20,16h1V15H20Z"/><rect class="hb120-2" x="19" y="14" width="1" height="1"/><path class="hb120-3" d="M19,15H16V13h1V12H15V11H14v1H13v1H10v1h3v1H9v1h1v3h1v1h1V18h5v2h1V19h1V16h1V15Zm-4,2H14V16h1Z"/><path class="hb120-3" d="M13,21v1h3V20H13Z"/><path class="hb120-2" d="M19,17v2h1V16H19Z"/><rect class="hb120-2" x="18" y="19" width="1" height="1"/><rect class="hb120-2" x="17" y="20" width="1" height="1"/><path class="hb120-2" d="M16,22H13V21H12v3h1V23h3v1h1V21H16Z"/><rect class="hb120-2" x="11" y="20" width="1" height="1"/><rect class="hb120-2" x="10" y="19" width="1" height="1"/><path class="hb120-2" d="M10,15V14H9v1Z"/><path class="hb120-2" d="M10,16H9v3h1V16Z"/><path class="hb120-2" d="M9,15H8v1H9Z"/><rect class="hb120-2" x="14" y="16" width="1" height="1"/><path class="hb120-4" d="M13,15V14H12v1Z"/><path class="hb120-4" d="M11,14H10v1h1Z"/><path class="hb120-4" d="M18,15h1V14H18Z"/><path class="hb120-4" d="M16,14v1h1V14Z"/><path class="hb120-2" d="M12,15V14H11v1Z"/><path class="hb120-2" d="M17,14v1h1V14Z"/><path class="hb120-5" d="M13,12H12v1h1Z"/><path class="hb120-5" d="M16,14h3V13H16Z"/><path class="hb120-6" d="M13,20V19h3V18H12v3h1Z"/><path class="hb120-6" d="M17,19H16v2h1V19Z"/><path class="hb120-2" d="M13,20h3V19H13Z"/><path class="hb120-2" d="M17,19V18H16v1Z"/><rect class="hb120-7" x="21" y="12" width="1" height="1"/><path class="hb120-7" d="M10,13h2V12h2V11h1v1h2v1h2v1h1V12h1V11H20V10H19V9H17V8H12V9H10v1H9v1H8v1H9v2h1Z"/><path class="hb120-7" d="M21,15V14H20v1Z"/><path class="hb120-7" d="M9,14H8v1H9Z"/><rect class="hb120-7" x="7" y="12" width="1" height="1"/><path class="hb120-8" d="M8,22V20H7v2Z"/><path class="hb120-2" d="M7,21H6v1H7Z"/><path class="hb120-2" d="M9,22H8v2H9Z"/><path class="hb120-9" d="M4,17H2v4H4V17Z"/><path class="hb120-10" d="M8,19V16H6v4H8Z"/><path class="hb120-4" d="M6,16H5v1H4v4H5V20H6V16Z"/></svg>