<svg xmlns="http://www.w3.org/2000/svg" viewBox="0 0 29 33"><defs><style>polygon,rect,path{shape-rendering:crispedges;}.ea121-1{fill:#397d98;}.ea121-2{fill:#000000;}.ea121-3{fill:#cbed03;}.ea121-4{fill:#b2622b;}.ea121-5{fill:#e1ff85;}.ea121-6{fill:#ffffff;}.ea121-7{fill:#8e4717;}.ea121-8{fill:#326b43;}.ea121-9{fill:#ffce00;}</style></defs><path class="ea121-1" d="M0,33H6V27H7V26H8V25h2V24h2V22H11V21H10V20H9V18H8V12H9V11h1V10h1V9h7v1h1v1h1v2h1v5H20v2H19v1H18v1H17v2h2v1h2v1h1v1h1v6h6V0H0Z"/><path class="ea121-2" d="M23,27H22v3H21V27H20v6h1V31h1v2h1V27Z"/><rect class="ea121-2" x="21" y="26" width="1" height="1"/><path class="ea121-3" d="M21,28v2h1V27H21Z"/><path class="ea121-4" d="M21,31v2h1V31Z"/><path class="ea121-2" d="M20,26h1V25H19v1Z"/><path class="ea121-3" d="M15,29H14v2h1V29Z"/><path class="ea121-3" d="M19,32V31H18v1H17V29h1V28h1v1h1V27h1V26H19V25H17v1H16v1H13V26H12V25H10v1H8v1H9v2h1V28h1v1h1v3H11V31H10v1H9v1H20V32Zm-3-2v1H15v1H13V28h2v1h1Z"/><rect class="ea121-3" x="18" y="29" width="1" height="1"/><rect class="ea121-3" x="10" y="29" width="1" height="1"/><path class="ea121-2" d="M18,25h1V24H17v1Z"/><rect class="ea121-2" x="16" y="25" width="1" height="1"/><path class="ea121-2" d="M13,26v1h3V26H13Z"/><path class="ea121-2" d="M13,23V22H12v2h1Z"/><path class="ea121-4" d="M13,25v1h3V25h1V24H16V23H13v1H12v1Z"/><rect class="ea121-2" x="12" y="25" width="1" height="1"/><path class="ea121-2" d="M12,24H10v1h2Z"/><path class="ea121-2" d="M10,25H8v1h2Z"/><path class="ea121-2" d="M9,31V27H8v3H7V27H6v6H7V31H8v2H9V31Z"/><rect class="ea121-2" x="7" y="26" width="1" height="1"/><path class="ea121-3" d="M7,30H8V27H7v3Z"/><path class="ea121-4" d="M7,31v2H8V31Z"/><path class="ea121-5" d="M19,30H18V29H17v3h1V31h1v1h1V29H19Z"/><rect class="ea121-5" x="18" y="28" width="1" height="1"/><path class="ea121-5" d="M15,30v1h1V29H15Z"/><path class="ea121-5" d="M14,30V29h1V28H13v4h2V31H14Z"/><path class="ea121-5" d="M9,32h1V31h1v1h1V29H11v1H10V29H9v3Z"/><rect class="ea121-5" x="10" y="28" width="1" height="1"/><path class="ea121-4" d="M18,14V13H16v1h2Z"/><path class="ea121-4" d="M18,15H17v2H16V15H15V11H14v1H13v2h1v2h1v1H14V16H13V15H11v4h1V18h2v1h1V18h2v1h1V15Z"/><rect class="ea121-4" x="9" y="15" width="1" height="1"/><rect class="ea121-4" x="13" y="20" width="1" height="1"/><rect class="ea121-4" x="11" y="13" width="1" height="1"/><rect class="ea121-4" x="11" y="11" width="1" height="1"/><rect class="ea121-4" x="15" y="20" width="1" height="1"/><rect class="ea121-4" x="19" y="15" width="1" height="1"/><path class="ea121-2" d="M16,23v1h1V22H16Z"/><rect class="ea121-2" x="9" y="14" width="1" height="1"/><rect class="ea121-2" x="14" y="16" width="1" height="1"/><path class="ea121-6" d="M13,15V14H12v1Z"/><path class="ea121-6" d="M17,14H16v1h1Z"/><path class="ea121-2" d="M12,14H11v1h1Z"/><path class="ea121-2" d="M17,15h1V14H17Z"/><path class="ea121-7" d="M18,12H16v1h2Z"/><rect class="ea121-7" x="11" y="12" width="1" height="1"/><path class="ea121-8" d="M15,18v1h1V18Z"/><path class="ea121-8" d="M19,16v2h1V16Z"/><path class="ea121-8" d="M13,23h3V22h2V21h1V18H18v1H16v2H15V20H14v1H13V19h1V18H12v1H11V18H10v3h1v1h2Z"/><path class="ea121-8" d="M10,17V16H9v2h1Z"/><path class="ea121-2" d="M14,19H13v1h3V19H14Z"/><path class="ea121-2" d="M16,18v1h1V18Z"/><path class="ea121-9" d="M9,15V14h1v4h1V11h1v3h1V12h1V11h1v4h1V12h2v6h1V15h1v3h1V13H20V11H19V10H18V9H11v1H10v1H9v1H8v6H9V15Z"/><path class="ea121-9" d="M9,18v2h1V18Z"/><path class="ea121-9" d="M13,16h1V14H13v2Z"/><path class="ea121-9" d="M17,17V15H16v2Z"/><path class="ea121-9" d="M19,19v1h1V18H19Z"/></svg>