<svg xmlns="http://www.w3.org/2000/svg" viewBox="0 0 29 33"><defs><style>polygon,rect,path{shape-rendering:crispedges;}.qa79-1{fill:#6b4f99;}.qa79-2{fill:#000000;}.qa79-3{fill:#6f7032;}.qa79-4{fill:#ce8452;}.qa79-5{fill:#6f7032;}.qa79-6{fill:#ffffff;}.qa79-7{fill:#5e362f;}.qa79-8{fill:#663228;}.qa79-9{fill:#c8a715;}.qa79-10{fill:#9b8100;}.qa79-11{fill:#00bc55;}.qa79-12{fill:#ffffff;}.qa79-13{fill:#ea1500;}.qa79-14{fill:#005e12;}.qa79-15{fill:#008e21;}</style></defs><path class="qa79-1" d="M20,23V20H19v5h2V23Z"/><path class="qa79-1" d="M6,32V27H7V26H8V25h2V20H9V18H8V13H9V11h1V10h1V9h7v1h1v1h1v1h1v5h3v1h1v5H24v8H23v1H21v1h8V0H0V33H6Z"/><path class="qa79-2" d="M23,26v5h1V25H23Z"/><path class="qa79-2" d="M7,27H6v6H7V27Z"/><path class="qa79-3" d="M8,27H7v6H8V27Z"/><rect class="qa79-2" x="7" y="26" width="1" height="1"/><path class="qa79-2" d="M9,31V27H8v6H9V31Z"/><rect class="qa79-3" x="10" y="29" width="1" height="1"/><path class="qa79-3" d="M19,32V31H18v1H17V30H16v1H15v1H13V30H12v2H11V31H10v1H9v1H20V32Z"/><path class="qa79-3" d="M18,24H17v5h1V28h1v1h1V27h1V26H19V25H18Z"/><path class="qa79-3" d="M9,27v2h1V28h1v1h1V24H11v1H10v1H8v1Z"/><rect class="qa79-3" x="18" y="29" width="1" height="1"/><path class="qa79-2" d="M10,25H8v1h2Z"/><path class="qa79-2" d="M11,24H10v1h1Z"/><rect class="qa79-3" x="11" y="22" width="1" height="1"/><rect class="qa79-2" x="11" y="23" width="1" height="1"/><path class="qa79-2" d="M15,24H13v1h3V24Z"/><path class="qa79-4" d="M14,24h2V23H13v1Z"/><rect class="qa79-2" x="17" y="23" width="1" height="1"/><rect class="qa79-3" x="17" y="22" width="1" height="1"/><path class="qa79-2" d="M18,24v1h1V24Z"/><path class="qa79-2" d="M22,32h1V31H22V25H19v1h2v1H20v6h1V32Z"/><path class="qa79-3" d="M23,26V25H22v6h1V26Z"/><path class="qa79-3" d="M13,25v3h2v1h1V25H13Z"/><path class="qa79-3" d="M14,29v2h1V29Z"/><path class="qa79-5" d="M19,30H18V29H17v3h1V31h1v1h1V29H19Z"/><rect class="qa79-5" x="18" y="28" width="1" height="1"/><path class="qa79-5" d="M15,29v2h1V29Z"/><path class="qa79-5" d="M14,30V29h1V28H13v4h2V31H14Z"/><path class="qa79-5" d="M11,29v1H10V29H9v3h1V31h1v1h1V29Z"/><rect class="qa79-5" x="10" y="28" width="1" height="1"/><path class="qa79-2" d="M13,25H12v5h1V25Z"/><path class="qa79-2" d="M17,28V25H16v5h1V28Z"/><rect class="qa79-2" x="19" y="14" width="1" height="1"/><path class="qa79-4" d="M18,15H16v1H15v1H14V16h1V14h1V12H15V11H14v4H13v2H12V15H11v4h1V18h2v1h1V18h2v1h1V15Z"/><rect class="qa79-4" x="19" y="15" width="1" height="1"/><path class="qa79-4" d="M18,12V11H17v2h1Z"/><polygon class="qa79-4" points="13 21 14 21 14 22 15 22 15 21 16 21 16 20 13 20 13 21"/><path class="qa79-4" d="M13,14V13H11v1h2Z"/><rect class="qa79-4" x="9" y="15" width="1" height="1"/><rect class="qa79-2" x="19" y="16" width="1" height="1"/><rect class="qa79-2" x="9" y="16" width="1" height="1"/><rect class="qa79-2" x="14" y="16" width="1" height="1"/><path class="qa79-6" d="M12,15h1V14H12Z"/><path class="qa79-6" d="M17,15V14H16v1Z"/><path class="qa79-2" d="M12,14H11v1h1Z"/><path class="qa79-2" d="M18,15V14H17v1Z"/><path class="qa79-7" d="M13,12H11v1h2Z"/><rect class="qa79-7" x="17" y="13" width="1" height="1"/><path class="qa79-8" d="M12,22v1h5V22h2V18H18v1H17V18H15v1h1v2H15v1H14V21H13V19H11V18H10v4h2Z"/><path class="qa79-8" d="M14,18H13v1h1Z"/><rect class="qa79-8" x="19" y="17" width="1" height="1"/><rect class="qa79-8" x="9" y="17" width="1" height="1"/><path class="qa79-9" d="M19,23V22H18v1Z"/><path class="qa79-8" d="M18,24h1V23H18Z"/><path class="qa79-9" d="M17,24V23H16v1Z"/><path class="qa79-8" d="M16,25h1V24H16Z"/><path class="qa79-9" d="M13,23H12v1h1Z"/><path class="qa79-8" d="M13,24H12v1h1Z"/><path class="qa79-9" d="M11,22H10v1h1Z"/><path class="qa79-8" d="M11,23H10v1h1Z"/><path class="qa79-2" d="M13,19v1h3V19H13Z"/><path class="qa79-2" d="M12,18v1h1V18Z"/><path class="qa79-10" d="M9,16V15h1v3h1V12h2v3h1V11h1v1h1v2h1V11h1v7h1V14h1v4h1V12H20V11H19V10H18V9H11v1H10v1H9v2H8v5H9V16Z"/><path class="qa79-10" d="M20,19V18H19v2h1Z"/><path class="qa79-10" d="M15,15v1h1V14H15Z"/><path class="qa79-10" d="M12,16v1h1V15H12Z"/><path class="qa79-10" d="M9,18v2h1V18Z"/><path class="qa79-11" d="M22,18v2H21v1h3V20H23V18h1V17H21v1Z"/><path class="qa79-11" d="M20,20h1V18H20v2Z"/><path class="qa79-12" d="M22,19V18H21v1Z"/><path class="qa79-2" d="M21,20h1V19H21Z"/><path class="qa79-12" d="M23,19h1V18H23Z"/><path class="qa79-2" d="M23,19v1h1V19Z"/><path class="qa79-13" d="M24,22V21H21v1Z"/><path class="qa79-11" d="M21,22v1h3V22Z"/><path class="qa79-11" d="M24,20h1V18H24v2Z"/><path class="qa79-14" d="M21,23v2h3V23H21Z"/><path class="qa79-13" d="M24,20.333V21h1V20H24Z"/><path class="qa79-13" d="M20,20.333V21h1V20H20Z"/><path class="qa79-15" d="M20,22v1h1V21H20Z"/><path class="qa79-15" d="M24,21.222V23h1V21H24Z"/></svg>