<svg xmlns="http://www.w3.org/2000/svg" viewBox="0 0 29 33"><defs><style>polygon,rect,path{shape-rendering:crispedges;}.sa200-1{fill:#d4a122;}.sa200-2{fill:#000000;}.sa200-3{fill:#ffffff;}.sa200-4{fill:#e8b795;}.sa200-5{fill:#6e12ff;}.sa200-6{fill:#ffffff;}.sa200-7{fill:#316a6d;}.sa200-8{fill:#ff5e17;}.sa200-9{fill:#316a6d;}.sa200-10{fill:#c8a715;}</style></defs><path class="sa200-1" d="M6,32V27H7V26H8V25h2V22H9V21H8V20H7V11H8V10H9V9h1V8h1V7h7V8h1V9h1v1h1v1h1v9H21v1H20v1H19v3h2v1h1v1h1v6h6V0H0V33H6Z"/><path class="sa200-2" d="M23,27H22v6h1V27Z"/><path class="sa200-3" d="M22,27H21v6h1V27Z"/><rect class="sa200-2" x="21" y="26" width="1" height="1"/><path class="sa200-2" d="M21,27H20v6h1V27Z"/><path class="sa200-3" d="M20,27h1V26H19V25H18V24H17v4h2v1H17v2h1V30h1v2H16V25H13v3h2v4H12V24H11v1H10v1H8v1H9v6H20V27Zm-9,2v3H10V28h1Z"/><path class="sa200-2" d="M20,26h1V25H19v1Z"/><path class="sa200-2" d="M18,25h1V24H18Z"/><rect class="sa200-2" x="17" y="23" width="1" height="1"/><path class="sa200-2" d="M15,24H13v1h3V24Z"/><path class="sa200-4" d="M14,24h2V23H13v1Z"/><rect class="sa200-2" x="11" y="23" width="1" height="1"/><path class="sa200-2" d="M11,24H10v1h1Z"/><path class="sa200-2" d="M10,25H8v1h2Z"/><path class="sa200-2" d="M9,27H8v6H9V27Z"/><path class="sa200-3" d="M8,27H7v6H8V27Z"/><rect class="sa200-2" x="7" y="26" width="1" height="1"/><path class="sa200-2" d="M7,27H6v6H7V27Z"/><path class="sa200-3" d="M14,31V29H13v2Z"/><path class="sa200-5" d="M14,29v2H13V30H12v2h3V28H13v1Z"/><path class="sa200-5" d="M10,29v3h1V28H10Z"/><path class="sa200-5" d="M18,29h1V28H17v1Z"/><path class="sa200-5" d="M16,31v1h3V30H18v1H17V30H16Z"/><path class="sa200-2" d="M12,26v4h1V25H12Z"/><path class="sa200-2" d="M16,26v4h1V25H16Z"/><path class="sa200-4" d="M10,13v1h2V13H10Z"/><polygon class="sa200-4" points="13 21 14 21 14 22 15 22 15 21 16 21 16 20 13 20 13 21"/><path class="sa200-4" d="M18,15H16V14h2V13H16V12H15V11H14v1H12v1h1v2H10v3h1v1h1V18h2v1h1V18h2v1h1V18h1V15Zm-3,2H14V16h1Z"/><rect class="sa200-2" x="14" y="16" width="1" height="1"/><path class="sa200-6" d="M18,15h1V14H18Z"/><path class="sa200-6" d="M12,15h1V14H12Z"/><path class="sa200-2" d="M17,14H16v1h2V14Z"/><rect class="sa200-7" x="18" y="13" width="1" height="1"/><path class="sa200-7" d="M16,12v1h1V12Z"/><path class="sa200-7" d="M13,14V13H12v1Z"/><path class="sa200-8" d="M13,12h1V11H12v1Z"/><path class="sa200-8" d="M15,12h2V11H15Z"/><path class="sa200-8" d="M17,12v1h2V12H17Z"/><path class="sa200-8" d="M11,13h1V12H10v1Z"/><rect class="sa200-3" x="9" y="20" width="1" height="1"/><path class="sa200-3" d="M9,19V12h1V11h2V10h5v1h2v1h1v8h1V11H20V10H19V9H18V8H11V9H10v1H9v1H8v9H9Z"/><rect class="sa200-3" x="19" y="20" width="1" height="1"/><rect class="sa200-3" x="17" y="22" width="1" height="1"/><rect class="sa200-3" x="11" y="22" width="1" height="1"/><rect class="sa200-2" x="10" y="8" width="1" height="1"/><rect class="sa200-2" x="9" y="9" width="1" height="1"/><rect class="sa200-2" x="8" y="10" width="1" height="1"/><path class="sa200-2" d="M8,11H7v9H8V11Z"/><rect class="sa200-2" x="8" y="20" width="1" height="1"/><rect class="sa200-2" x="9" y="21" width="1" height="1"/><rect class="sa200-2" x="19" y="21" width="1" height="1"/><rect class="sa200-2" x="20" y="20" width="1" height="1"/><path class="sa200-2" d="M21,20h1V11H21v9Z"/><rect class="sa200-2" x="20" y="10" width="1" height="1"/><rect class="sa200-2" x="19" y="9" width="1" height="1"/><rect class="sa200-2" x="18" y="8" width="1" height="1"/><path class="sa200-2" d="M18,8V7H11V8h7Z"/><path class="sa200-2" d="M12,11H10v1h2Z"/><path class="sa200-2" d="M12,15V14H10V12H9v5h1V15Z"/><path class="sa200-2" d="M20,12H19v5h1V12Z"/><path class="sa200-2" d="M18,12h1V11H17v1Z"/><path class="sa200-2" d="M15,11h2V10H12v1h3Z"/><path class="sa200-9" d="M15,18v1h1V18Z"/><path class="sa200-9" d="M12,22v1h5V22h2V20h1V17H19v1H18v1H16v2H15v1H14V21H13V19h1V18H12v1H11V18H10V17H9v3h1v2h2Z"/><path class="sa200-10" d="M18,23h1V22H18Z"/><path class="sa200-9" d="M18,24h1V23H18Z"/><path class="sa200-10" d="M16,23v1h1V23Z"/><path class="sa200-9" d="M16,25h1V24H16Z"/><path class="sa200-10" d="M13,23H12v1h1Z"/><path class="sa200-9" d="M12,24v1h1V24Z"/><path class="sa200-10" d="M11,22H10v1h1Z"/><path class="sa200-9" d="M11,23H10v1h1Z"/><path class="sa200-2" d="M14,19H13v1h3V19H14Z"/><path class="sa200-2" d="M16,18v1h1V18Z"/></svg>