<svg xmlns="http://www.w3.org/2000/svg" viewBox="0 0 29 33"><defs><style>polygon,rect,path{shape-rendering:crispedges;}.va149-1{fill:#d4a122;}.va149-2{fill:#508e5d;}.va149-3{fill:#000000;}.va149-4{fill:#6d3e35;}.va149-5{fill:#ffffff;}.va149-6{fill:#00774c;}.va149-7{fill:#00774c;}.va149-8{fill:#4922aa;}</style></defs><path class="va149-1" d="M6,32V27H7V26H8V25h2V22h1V21H9V20H8V19H9V18H8V12H9V11h1V10h1V9h7v1h1v1h1v2h1v5H20v1h1v1H20v1H18v1h1v3h2v1h1v1h1v6h6V0H0V33H6Z"/><path class="va149-2" d="M17,23v1H16v1H15v2H14v4h6V27h1V26H19V25H18V22H17Z"/><path class="va149-2" d="M22,27H21v6h1V27Z"/><path class="va149-2" d="M19,32H9v1H20V32Z"/><path class="va149-2" d="M8,27H7v6H8V27Z"/><path class="va149-2" d="M9,27v4h4V27h1V25H13V24H12V22H11v3H10v1H8v1Z"/><path class="va149-3" d="M23,27H22v6h1V27Z"/><rect class="va149-3" x="21" y="26" width="1" height="1"/><path class="va149-3" d="M21,27H20v4H14V27H13v4H9V27H8v6H9V32H20v1h1V27Z"/><path class="va149-3" d="M20,26h1V25H19v1Z"/><path class="va149-3" d="M18,25h1V22H18v3Z"/><rect class="va149-3" x="15" y="24" width="1" height="1"/><path class="va149-3" d="M15,26V25H14v2h1Z"/><rect class="va149-3" x="13" y="24" width="1" height="1"/><path class="va149-4" d="M15,24h1V23H13v1h1v1h1Z"/><path class="va149-3" d="M11,24V22H10v3h1Z"/><path class="va149-3" d="M10,25H8v1h2Z"/><rect class="va149-3" x="7" y="26" width="1" height="1"/><path class="va149-3" d="M7,27H6v6H7V27Z"/><rect class="va149-4" x="9" y="15" width="1" height="1"/><rect class="va149-4" x="11" y="13" width="1" height="1"/><rect class="va149-4" x="16" y="12" width="1" height="1"/><rect class="va149-4" x="11" y="11" width="1" height="1"/><path class="va149-4" d="M18,19V15H17v2H16V15H15V11H14v1H13v2h1v2h1v1H14V16H13V15H11v4h1V18h1v1h3v1H13V19H12v2h1v1h3V21h1V19Z"/><rect class="va149-4" x="17" y="13" width="1" height="1"/><rect class="va149-4" x="19" y="15" width="1" height="1"/><path class="va149-3" d="M12,23v1h1V23h3v1h1V22h1V20H17v1H16v1H13V21H12V20H11v2h1Z"/><rect class="va149-3" x="9" y="14" width="1" height="1"/><rect class="va149-3" x="14" y="16" width="1" height="1"/><rect class="va149-5" x="16" y="14" width="1" height="1"/><path class="va149-3" d="M13,14H11v1h2Z"/><rect class="va149-3" x="17" y="14" width="1" height="1"/><rect class="va149-6" x="11" y="12" width="1" height="1"/><rect class="va149-6" x="16" y="13" width="1" height="1"/><rect class="va149-6" x="17" y="12" width="1" height="1"/><rect class="va149-7" x="20" y="19" width="1" height="1"/><path class="va149-7" d="M19,16v2h1V16Z"/><path class="va149-7" d="M19,19V18H18v1H17v1h1v1h2V20H19Z"/><rect class="va149-7" x="8" y="19" width="1" height="1"/><path class="va149-7" d="M12,20V19H11V18H10v2H9v1h2V20Z"/><path class="va149-7" d="M10,17V16H9v2h1Z"/><rect class="va149-3" x="13" y="19" width="3" height="1"/><rect class="va149-3" x="12" y="18" width="1" height="1"/><path class="va149-8" d="M9,15V14h1v4h1V11h1v3h1V12h1V11h1v4h1V12h2v6h1V15h1v3h1V13H20V11H19V10H18V9H11v1H10v1H9v1H8v6H9V15Z"/><path class="va149-8" d="M10,19V18H9v2h1Z"/><path class="va149-8" d="M13,16h1V14H13v2Z"/><path class="va149-8" d="M17,17V15H16v2Z"/><polygon class="va149-8" points="19 19 19 20 20 20 20 19 20 18 19 18 19 19"/></svg>