<svg xmlns="http://www.w3.org/2000/svg" viewBox="0 0 29 33"><defs><style>polygon,rect,path{shape-rendering:crispedges;}.bb250-1{fill:#6b4f99;}.bb250-2{fill:#000000;}.bb250-3{fill:#9b8100;}.bb250-4{fill:#ffffff;}.bb250-5{fill:#ce8452;}.bb250-6{fill:#317f03;}.bb250-7{fill:#317f03;}.bb250-8{fill:#ff1d99;}</style></defs><path class="bb250-1" d="M0,33H8V32H6V31H5V23H4V20H5V19H7v1H8v1H9v2H8v2h2V24h1V23h1V22H11V21H10V20H9V16H8V14H9V12H8v1H7V12H8V11H9V10h1V9h2V8h5V9h2v1h1v1h1v1h1v1H21V12H20v2h1v2H20v4H19v1H18v1H17v1h1v1h1v1h2v1h1v1h1v6h6V0H0Z"/><path class="bb250-2" d="M23,27H22v6h1V27Z"/><rect class="bb250-2" x="21" y="26" width="1" height="1"/><path class="bb250-3" d="M22,27H21v6h1V27Z"/><path class="bb250-2" d="M21,27H20v6h1V27Z"/><path class="bb250-2" d="M20,26h1V25H19v1Z"/><path class="bb250-3" d="M20,27h1V26H19V25H18v4H17v4h3V27Z"/><rect class="bb250-4" x="16" y="24" width="1" height="1"/><path class="bb250-2" d="M17,29H16v4h1V29Z"/><rect class="bb250-4" x="15" y="23" width="1" height="1"/><path class="bb250-4" d="M16,29h1V26H16V25H13v1H12v3h1v4h1V32h1v1h1V29Zm-1,2H14V30h1Zm0-2H14V28h1Zm0-2H14V26h1Z"/><rect class="bb250-2" x="14" y="26" width="1" height="1"/><rect class="bb250-2" x="14" y="28" width="1" height="1"/><rect class="bb250-2" x="14" y="30" width="1" height="1"/><rect class="bb250-2" x="14" y="32" width="1" height="1"/><rect class="bb250-4" x="13" y="23" width="1" height="1"/><path class="bb250-2" d="M15,24V23H14v1H13v1h3V24Z"/><rect class="bb250-4" x="12" y="24" width="1" height="1"/><path class="bb250-2" d="M13,29H12v4h1V29Z"/><path class="bb250-2" d="M11,26v3h1V26h1V25H12V24h1V22H12v1H11v1H10v1h1Z"/><path class="bb250-3" d="M12,29H11V25H10v1H8v1H9v6h3V29Z"/><path class="bb250-2" d="M9,27H8V26h2V25H8V23H7v8H6v1H8v1H9V27Z"/><path class="bb250-4" d="M6,25H7V24H6Z"/><path class="bb250-3" d="M7,30V25H6v6H7Z"/><path class="bb250-2" d="M6,25V23H5v8H6V25Z"/><path class="bb250-2" d="M20,16h1V15H20Z"/><rect class="bb250-2" x="19" y="14" width="1" height="1"/><path class="bb250-5" d="M10,17v1h1v1h1V18h5v1h1V18h1V16h1V15H19V13H17v1h1v1H16v1H15v1H14V16H13V15H11V14h1V13H10v2H9v1h1Z"/><rect class="bb250-5" x="13" y="20" width="1" height="1"/><rect class="bb250-5" x="15" y="20" width="1" height="1"/><path class="bb250-2" d="M16,23v1h1v1H16v1h1v3h1V25h1V24H18V23H17V22H16Z"/><path class="bb250-2" d="M10,15V14H9v1Z"/><path class="bb250-2" d="M8,15v1H9V15Z"/><path class="bb250-6" d="M18,15V14H17v1Z"/><rect class="bb250-6" x="16" y="13" width="1" height="1"/><rect class="bb250-2" x="14" y="14" width="1" height="1"/><path class="bb250-4" d="M16,13H13v1H12v1h1v1h3V15h1V14H16Zm-1,2H14V14h1Z"/><path class="bb250-6" d="M14,13h2V12H13v1Z"/><rect class="bb250-6" x="12" y="13" width="1" height="1"/><path class="bb250-6" d="M11,14v1h1V14Z"/><path class="bb250-2" d="M14,17h1V16H14Z"/><rect class="bb250-5" x="16" y="12" width="1" height="1"/><path class="bb250-5" d="M15,11H14v1h1Z"/><rect class="bb250-5" x="12" y="12" width="1" height="1"/><path class="bb250-7" d="M13,23h3V22h2V21h1V20h1V16H19v2H18v1H16v2H15V20H14v1H13V19H11V18H10V16H9v4h1v1h1v1h2Z"/><path class="bb250-2" d="M16,18H12v1h1v1h3V19h1V18Z"/><path class="bb250-2" d="M9,23V21H8v2Z"/><rect class="bb250-2" x="7" y="20" width="1" height="1"/><rect class="bb250-2" x="5" y="19" width="2" height="1"/><path class="bb250-2" d="M5,20H4v3H5V20Z"/><path class="bb250-5" d="M6,24H7V23H8V21H7V20H5v3H6Z"/><rect class="bb250-8" x="21" y="12" width="1" height="1"/><path class="bb250-8" d="M10,13h2V12h2V11h1v1h2v1h2v1h1V12h1V11H20V10H19V9H17V8H12V9H10v1H9v1H8v1H9v2h1Z"/><path class="bb250-8" d="M21,15V14H20v1Z"/><path class="bb250-8" d="M9,14H8v1H9Z"/><rect class="bb250-8" x="7" y="12" width="1" height="1"/></svg>