<svg xmlns="http://www.w3.org/2000/svg" viewBox="0 0 29 33"><defs><style>polygon,rect,path{shape-rendering:crispedges;}.ka214-1{fill:#db5a8e;}.ka214-2{fill:#000000;}.ka214-3{fill:#00af68;}.ka214-4{fill:#9fffc6;}.ka214-5{fill:#b2622b;}.ka214-6{fill:#316a6d;}.ka214-7{fill:#316a6d;}.ka214-8{fill:#4fdb7d;}</style></defs><rect class="ka214-1" x="14" y="17" width="1"/><path class="ka214-1" d="M6,27H7V26H8V25h2V24h2V22H11V21H10V20H9V16H8V15H9V13H8V9H9V8h1V7h1V6h7V7h1V8h1V9h1v4H20v2h1v1H20v4H19v1H18v1H17v2h2v1h2v1h1v1h1v6h6V0H0V33H6V27Z"/><path class="ka214-2" d="M23,27H22v6h1V27Z"/><rect class="ka214-2" x="21" y="26" width="1" height="1"/><path class="ka214-3" d="M21,31h1V30H21Z"/><path class="ka214-3" d="M21,28h1V27H21Z"/><path class="ka214-2" d="M21,30V27H20v6h1V30Z"/><path class="ka214-2" d="M20,26h1V25H19v1Z"/><path class="ka214-3" d="M9,27v1H20V27H9Z"/><path class="ka214-3" d="M9,31H20V30H9Z"/><path class="ka214-3" d="M17,25V24H12v1Z"/><path class="ka214-2" d="M18,25h1V24H17v1Z"/><path class="ka214-2" d="M16,24h1V23H16Z"/><path class="ka214-2" d="M13,23H12v1h1Z"/><path class="ka214-2" d="M12,24H10v1h2Z"/><path class="ka214-2" d="M10,25H8v1h2Z"/><path class="ka214-2" d="M9,30V27H8v6H9V30Z"/><rect class="ka214-2" x="7" y="26" width="1" height="1"/><path class="ka214-3" d="M8,27H7v1H8Z"/><path class="ka214-3" d="M8,30H7v1H8Z"/><path class="ka214-2" d="M7,32V27H6v6H7Z"/><path class="ka214-4" d="M9,31v2H20V31Z"/><path class="ka214-4" d="M9,29v1H20V28H9Z"/><path class="ka214-4" d="M9,27H21V26H19V25H10v1H8v1Z"/><path class="ka214-4" d="M15,23H13v1h3V23Z"/><path class="ka214-4" d="M8,29V28H7v2H8Z"/><path class="ka214-4" d="M7,31v2H8V31Z"/><path class="ka214-4" d="M21,31v2h1V31Z"/><path class="ka214-4" d="M21,29v1h1V28H21Z"/><path class="ka214-5" d="M19,12H18V11H11v1H10v1h6V12Z"/><path class="ka214-5" d="M10,16v1h1v1h1v1h1V18h5V17h1V16h1V15H18v1H16V15H15V14H14v1H13v1H11V15H9v1Zm4,1V16h1v1H14Z"/><rect class="ka214-5" x="18" y="13" width="1" height="1"/><polygon class="ka214-2" points="15 16 15 16 14 16 14 17 15 17 15 16"/><path class="ka214-6" d="M19,13V12H16v1h3Z"/><path class="ka214-6" d="M10,14h1V13H10Z"/><path class="ka214-7" d="M15,18H13v1h3V18Z"/><path class="ka214-7" d="M14,23h3V22h1V21h1V20h1V16H19v1H18v1H17v1H16v1H13V19H12V18H11V17H10V16H9v4h1v1h1v1h1v1h2Z"/><rect class="ka214-2" x="13" y="19" width="3" height="1"/><path class="ka214-2" d="M16,19h1V18H16Z"/><path class="ka214-8" d="M10,13V12h1V11h7v1h1v1h0v1h1V13h1V9H20V8H19V7H18V6H11V7H10V8H9V9H8v4H9v1h1Z"/><path class="ka214-2" d="M10,15h1v1h2V15h1V14h1v1h1v1h2V15h2v1h1V15H20V14H18V13H11v1H9v1H8v1H9V15Z"/></svg>