<svg xmlns="http://www.w3.org/2000/svg" viewBox="0 0 29 33"><defs><style>polygon,rect,path{shape-rendering:crispedges;}.aa135-1{fill:#29834f;}.aa135-2{fill:#000000;}.aa135-3{fill:#ce8452;}.aa135-4{fill:#db5800;}.aa135-5{fill:#ffffff;}.aa135-6{fill:#ffffff;}.aa135-7{fill:#99582c;}.aa135-8{fill:#99582c;}.aa135-9{fill:#c4ea3b;}.aa135-10{fill:#fad000;}</style></defs><path class="aa135-1" d="M10,22v1H9v1h3V21H11v1Z"/><rect class="aa135-1" x="12" y="8" width="1" height="1"/><path class="aa135-1" d="M0,33H6V26H5v1H4V25H5V24H7V23H8V22H9V21h2V20H10V19H9V16H8V15H9V11h1V10H9V9h1V8h2V7h1V8h3V9h1V8h1V9h1v1h1v5h1v1H20v3H19v1H18v1H17v3h2v1h2v1h1v1h1v6h6V0H0Z"/><path class="aa135-2" d="M23,31V27H22v6h1Z"/><rect class="aa135-2" x="21" y="26" width="1" height="1"/><path class="aa135-3" d="M22,31V27H21v6h1Z"/><rect class="aa135-3" x="20" y="26" width="1" height="1"/><path class="aa135-2" d="M21,31V27H20v6h1Z"/><path class="aa135-2" d="M20,26h1V25H19v1Z"/><rect class="aa135-4" x="18" y="32" width="1" height="1"/><rect class="aa135-4" x="10" y="30" width="1" height="1"/><rect class="aa135-4" x="10" y="32" width="1" height="1"/><path class="aa135-4" d="M14,31v1h1V30H14Z"/><rect class="aa135-4" x="18" y="30" width="1" height="1"/><path class="aa135-4" d="M17,31V30h1V29h1v1h1V26H19V25H18v1H17v1H16v1H13V27H12V26H11V25H10v2H9v3h1V29h1v1h1v3h1V29h2v1h1v2H15v1h2Z"/><path class="aa135-2" d="M13,23V22H12v2h1Z"/><rect class="aa135-2" x="11" y="24" width="1" height="1"/><path class="aa135-2" d="M9,31V27H8v6H9Z"/><path class="aa135-3" d="M8,31V27H9V25H7v8H8Z"/><path class="aa135-2" d="M7,31V25H6v8H7Z"/><rect class="aa135-2" x="12" y="26" width="1" height="1"/><rect class="aa135-2" x="16" y="26" width="1" height="1"/><path class="aa135-2" d="M17,26h1V25h1V24H17Z"/><path class="aa135-2" d="M14,27H13v1h3V27Z"/><path class="aa135-3" d="M16,23H13v1H12v2h1v1h3V26h1V24H16Z"/><path class="aa135-5" d="M20,31V30H19v1H18V30H17v3h1V32h1v1h1Z"/><rect class="aa135-5" x="18" y="29" width="1" height="1"/><path class="aa135-5" d="M15,32h1V30H15Z"/><path class="aa135-5" d="M14,32V30h1V29H13v4h2V32Z"/><path class="aa135-5" d="M12,31V30H11v1H10V30H9v3h1V32h1v1h1Z"/><rect class="aa135-5" x="10" y="29" width="1" height="1"/><rect class="aa135-2" x="20" y="15" width="1" height="1"/><rect class="aa135-3" x="16" y="19" width="1" height="1"/><path class="aa135-3" d="M13,21h3V20H13Z"/><path class="aa135-3" d="M10,14h2V13H10Z"/><rect class="aa135-3" x="18" y="12" width="1" height="1"/><path class="aa135-3" d="M10,17v1h1v1h1v1h1V19h3V18h1v1h1V18h1V16h1V15H16V14h2V13H16V12h2V11H17V10H16v1H11v1h1v1h1v2H9v1h1Zm4-1h1v1H14Z"/><path class="aa135-2" d="M16,23v1h1V22H16Z"/><rect class="aa135-2" x="9" y="14" width="1" height="1"/><rect class="aa135-2" x="8" y="15" width="1" height="1"/><rect class="aa135-2" x="14" y="16" width="1" height="1"/><rect class="aa135-6" x="12" y="14" width="1" height="1"/><rect class="aa135-6" x="10" y="14" width="1" height="1"/><rect class="aa135-6" x="18" y="14" width="1" height="1"/><rect class="aa135-6" x="16" y="14" width="1" height="1"/><rect class="aa135-2" x="11" y="14" width="1" height="1"/><rect class="aa135-2" x="17" y="14" width="1" height="1"/><rect class="aa135-7" x="18" y="13" width="1" height="1"/><rect class="aa135-7" x="16" y="12" width="2" height="1"/><rect class="aa135-7" x="12" y="13" width="1" height="1"/><path class="aa135-7" d="M10,13h2V12H10Z"/><path class="aa135-8" d="M12,22h1v1h3V22h1V21h1V20h1V19h1V16H19v2H18v1H17v1H16v1H13V20H12V19H11V18H10V16H9v3h1v1h1v1h1Z"/><rect class="aa135-2" x="13" y="19" width="3" height="1"/><rect class="aa135-2" x="16" y="18" width="1" height="1"/><path class="aa135-9" d="M10,13V12h1V11h5V10h1v1h1v1h1v3h1V10H19V9H18V8H17V9H16V8H13V9H12V8H10V9H9v1h1v1H9v3h1Z"/><rect class="aa135-9" x="12" y="7" width="1" height="1"/><path class="aa135-10" d="M7,25V24H5v1H4v2H5V26H6V25Z"/><path class="aa135-6" d="M8,25H9V23h1V22h1V21H9v1H8v1H7v2Z"/><path class="aa135-10" d="M10,24H9v1h2V24Z"/><rect class="aa135-10" x="11" y="25" width="1" height="1"/><path class="aa135-2" d="M9,26v1h1V25H9Z"/></svg>