<svg xmlns="http://www.w3.org/2000/svg" viewBox="0 0 29 33"><defs><style>polygon,rect,path{shape-rendering:crispedges;}.eb230-1{fill:#29834f;}.eb230-2{fill:#000000;}.eb230-3{fill:#8c7850;}.eb230-4{fill:#b23b00;}.eb230-5{fill:#c18d59;}.eb230-6{fill:#90a2a3;}.eb230-7{fill:#ffffff;}.eb230-8{fill:#5e362f;}.eb230-9{fill:#fad000;}.eb230-10{fill:#5e362f;}.eb230-11{fill:#99ce09;}</style></defs><rect class="eb230-1" x="14" y="16" width="1"/><path class="eb230-1" d="M0,33H6V27H7V26H8V25H9V24h1V23h1V22h1V21H11V20H10V19H9V16H8V14H9V12H8V11H9V10h1V9h2V8h5V9h2v1h1v1h1v1H20v4H19v3h0V16h1V14h1v2H20v3H19v1H18v1H17v1h1v1h1v1h1v1h1v1h1v1h1v6h6V0H0ZM21,12h1v1H21ZM7,12H8v1H7Z"/><rect class="eb230-1" x="9" y="16" width="1"/><rect class="eb230-1" x="14" y="17" width="1"/><path class="eb230-2" d="M23,27H22v6h1V27Z"/><path class="eb230-3" d="M22,27H21v6h1V27Z"/><path class="eb230-2" d="M21,27h1V26H21V25H20v2H17v1h2v1h1v4h1V27Z"/><path class="eb230-3" d="M20,29H19v1H18v1H17v1H16v1h4V29Z"/><path class="eb230-3" d="M16,28v3h1V30h1V29h1V28H17V27H16Z"/><path class="eb230-3" d="M18,26H17v1h2V26h1V25H18Z"/><rect class="eb230-2" x="18" y="29" width="1" height="1"/><path class="eb230-4" d="M15,28H14v5h1V28Z"/><path class="eb230-5" d="M16,25V23H13v2h3Z"/><path class="eb230-3" d="M12,32V31H11V30H10V29H9v4h4V32Z"/><rect class="eb230-2" x="11" y="30" width="1" height="1"/><path class="eb230-3" d="M12,28H10v1h1v1h1v1h1V27H12Z"/><path class="eb230-3" d="M10,26v1h2V26H11V25H9v1Z"/><path class="eb230-2" d="M9,29h1V28h2V27H9V25H8v1H7v1H8v6H9V29Z"/><path class="eb230-3" d="M8,27H7v6H8V27Z"/><path class="eb230-2" d="M7,27H6v6H7V27Z"/><rect class="eb230-2" x="10" y="29" width="1" height="1"/><rect class="eb230-2" x="17" y="30" width="1" height="1"/><path class="eb230-2" d="M17,32V31H16V27H13v4H12v1h1v1h1V28h1v5h1V32Z"/><path class="eb230-6" d="M9,26v1h1V26Z"/><path class="eb230-6" d="M19,27h1V26H19Z"/><path class="eb230-2" d="M21,15H20v1h1Z"/><path class="eb230-5" d="M13,20v2h3V20Z"/><polygon class="eb230-5" points="9 15 9 15 9 16 10 16 10 15 9 15"/><path class="eb230-5" d="M15,12V11H14v1H13v1h4V12Z"/><path class="eb230-5" d="M12,19V18h5v2h1V19h1V16H16V15H15V14H14v1H13v1H10v3h1v1h1Zm2-2V16h1v1H14Z"/><rect class="eb230-5" x="18" y="13" width="1" height="1"/><path class="eb230-5" d="M19,16h1V15H19Z"/><rect class="eb230-5" x="10" y="13" width="1"/><path class="eb230-2" d="M20,18V16H19v3h1Z"/><polygon class="eb230-2" points="18 19 18 20 19 20 19 19 19 19 18 19 18 19"/><polygon class="eb230-2" points="17 20 17 21 18 21 18 20 17 20 17 20"/><rect class="eb230-2" x="11" y="20" width="1" height="1"/><polygon class="eb230-2" points="10 19 10 20 11 20 11 19 10 19"/><path class="eb230-2" d="M10,16H9v3h1V16Z"/><path class="eb230-2" d="M9,15H8v1H9Z"/><polygon class="eb230-2" points="15 16 14 16 14 17 15 17 15 16"/><path class="eb230-7" d="M10,15v1h1V15Z"/><path class="eb230-7" d="M18,15v1h1V15Z"/><rect class="eb230-8" x="10" y="13" width="1" height="1"/><rect class="eb230-8" x="12" y="12" width="1" height="1"/><rect class="eb230-8" x="18" y="13" width="1"/><path class="eb230-2" d="M18,25h2V24H19V23H18v2Z"/><rect class="eb230-2" x="17" y="25" width="1" height="1"/><path class="eb230-9" d="M18,24H17v1h1Z"/><path class="eb230-7" d="M17,24h1V23H17Z"/><rect class="eb230-2" x="16" y="26" width="1" height="1"/><rect class="eb230-7" x="16" y="25" width="1" height="1"/><path class="eb230-9" d="M15,26v1h1V26Z"/><path class="eb230-7" d="M14,26v1h1V26Z"/><path class="eb230-9" d="M13,26v1h1V26Z"/><path class="eb230-2" d="M14,26h2V25H13v1Z"/><rect class="eb230-2" x="12" y="26" width="1" height="1"/><rect class="eb230-7" x="12" y="25" width="1" height="1"/><path class="eb230-2" d="M12,24v1h1V23h3v2h1V23h1V22H17V21H16v1H13V21H12v1H11v1h1Z"/><rect class="eb230-2" x="11" y="25" width="1" height="1"/><rect class="eb230-9" x="11" y="24" width="1" height="1"/><rect class="eb230-7" x="11" y="23" width="1" height="1"/><path class="eb230-2" d="M11,24V23H10v1H9v1h2Z"/><path class="eb230-10" d="M17,20V18H13v1h3v2h1V20Z"/><path class="eb230-10" d="M13,20V19H12v2h1Z"/><path class="eb230-2" d="M16,19H13v1h3Z"/><path class="eb230-2" d="M12,18v1h1V18Z"/><rect class="eb230-11" x="21" y="12" width="1" height="1"/><path class="eb230-11" d="M10,13h2V12h2V11h1v1h2v1h2v1h1V12h1V11H20V10H19V9H17V8H12V9H10v1H9v1H8v1H9v2h1Z"/><path class="eb230-11" d="M21,14H20v1h1Z"/><path class="eb230-11" d="M9,15V14H8v1Z"/><rect class="eb230-11" x="7" y="12" width="1" height="1"/><path class="eb230-2" d="M10,15h1v1h2V15h1V14h1v1h1v1h2V15h2V14H18V13H11v1H9v1Z"/></svg>