<svg xmlns="http://www.w3.org/2000/svg" viewBox="0 0 29 33"><defs><style>polygon,rect,path{shape-rendering:crispedges;}.ea129-1{fill:#b4bd09;}.ea129-2{fill:#000000;}.ea129-3{fill:#b2622b;}.ea129-4{fill:#ff1d99;}.ea129-5{fill:#ffffff;}.ea129-6{fill:#8e4717;}.ea129-7{fill:#893a1f;}.ea129-8{fill:#d2d8b8;}.ea129-9{fill:#c6e5e4;}</style></defs><path class="ea129-1" d="M6,32V27H7V26H8V25h2V24h2V22H11V21H10V20H9V18H8V13H9V11h1V10h1V9h7v1h1v1h1v1h1v6H20v2H19v1H18v1H17v2h2v1h2V23h2V22H22V21H21V20h1V19h3v1h1v1H25v1H24v1h1v1H24v7H23v1H21v1h8V0H0V33H6Z"/><rect class="ea129-2" x="7" y="26" width="1" height="1"/><path class="ea129-2" d="M9,27H8v3H7V27H6v6H7V31H8v2H9V27Z"/><path class="ea129-2" d="M10,25H8v1h2Z"/><path class="ea129-2" d="M12,24H10v1h2Z"/><path class="ea129-2" d="M13,23V22H12v2h1Z"/><path class="ea129-2" d="M18,25h1V24H17v1Z"/><path class="ea129-2" d="M22,32h1V31H22V23H21v2H19v1h2v1H20v6h1V32Z"/><path class="ea129-2" d="M23,25v6h1V24H23Z"/><path class="ea129-3" d="M22,31h1V24h1V23H22v8Z"/><path class="ea129-4" d="M20,27h1V26H19V25H17v1H16v1H13V26H12V25H10v1H8v1H9v6H20V27Z"/><path class="ea129-2" d="M13,26v1h3V26H13Z"/><path class="ea129-3" d="M13,25v1h3V25h1V24H16V23H13v1H12v1Z"/><path class="ea129-4" d="M7,30H8V27H7v3Z"/><path class="ea129-3" d="M7,31v2H8V31Z"/><rect class="ea129-2" x="16" y="25" width="1" height="1"/><rect class="ea129-2" x="12" y="25" width="1" height="1"/><rect class="ea129-2" x="19" y="14" width="1" height="1"/><path class="ea129-3" d="M13,13H11v1h2Z"/><rect class="ea129-3" x="17" y="11" width="1" height="1"/><path class="ea129-3" d="M18,15H16v1H15v1H14V16h1V14h1V12H15V11H14v4H13v2H12V15H11v4h1V18h5v1h1V15Z"/><rect class="ea129-3" x="9" y="15" width="1" height="1"/><rect class="ea129-3" x="17" y="13" width="1" height="1"/><rect class="ea129-3" x="15" y="20" width="1" height="1"/><rect class="ea129-3" x="13" y="20" width="1" height="1"/><rect class="ea129-3" x="19" y="15" width="1" height="1"/><path class="ea129-2" d="M16,23v1h1V22H16Z"/><rect class="ea129-2" x="14" y="16" width="1" height="1"/><path class="ea129-5" d="M17,15V14H16v1Z"/><path class="ea129-2" d="M13,15V14H11v1h2Z"/><path class="ea129-2" d="M18,15V14H17v1Z"/><path class="ea129-6" d="M13,12H11v1h2Z"/><rect class="ea129-6" x="17" y="12" width="1" height="1"/><path class="ea129-7" d="M19,16v2h1V16Z"/><path class="ea129-7" d="M13,23h3V22h2V21h1V18H18v1H16v2H15V20H14v1H13V19H11V18H10v3h1v1h2Z"/><path class="ea129-7" d="M10,17V16H9v2h1Z"/><path class="ea129-2" d="M16,18H12v1h1v1h3V19h1V18Z"/><path class="ea129-8" d="M9,15h1v3h1V12h2v3h1V11h1v1h1v2h1V11h1v7h1V14h1v4h1V12H20V11H19V10H18V9H11v1H10v1H9v2H8v5H9V15Z"/><path class="ea129-8" d="M19,19v1h1V18H19Z"/><path class="ea129-8" d="M15,15v1h1V14H15Z"/><path class="ea129-8" d="M12,16v1h1V15H12Z"/><path class="ea129-8" d="M9,18v2h1V18Z"/><path class="ea129-5" d="M25,22V21h1V20H25V19H23v1h1v1H23v1h2Z"/><path class="ea129-9" d="M24,21V20H23V19H22v1H21v1h1v1h1V21Z"/><path class="ea129-9" d="M24,22H23v1h1Z"/><rect class="ea129-2" x="24" y="23" width="1" height="1"/></svg>