<svg xmlns="http://www.w3.org/2000/svg" viewBox="0 0 29 33"><defs><style>polygon,rect,path{shape-rendering:crispedges;}.za255-1{fill:#29834f;}.za255-2{fill:#000000;}.za255-3{fill:#004a77;}.za255-4{fill:#b2622b;}.za255-5{fill:#0079bc;}.za255-6{fill:#492a23;}.za255-7{fill:#492a23;}.za255-8{fill:#c8a715;}.za255-9{fill:#ff5e17;}.za255-10{fill:#68aaad;}</style></defs><rect class="za255-1" x="17" y="22" width="1" height="1"/><path class="za255-1" d="M0,33H6V27H7V26H8V25h2V20H9V16H8V15H9V14H8V11H9V10h1V9h2V8h5V9h1v1h1v1h1v4h1v1H20v4H19v5h2v1h1v1h1v6h6V0H0Z"/><rect class="za255-1" x="11" y="22" width="1" height="1"/><path class="za255-2" d="M23,27H22v6h1V27Z"/><path class="za255-3" d="M21,32v1h1V32Z"/><path class="za255-3" d="M21,30v1h1V29H21Z"/><path class="za255-3" d="M21,28h1V27H21Z"/><rect class="za255-2" x="21" y="26" width="1" height="1"/><path class="za255-2" d="M21,31V27H20v6h1V31Z"/><rect class="za255-3" x="9" y="32" width="1" height="1"/><path class="za255-3" d="M17,32V31h1V30h1v1h1V29H19V28h1V27h1V26H19v1H18V26H15v1H14V26H11v1H10V26H8v1H9v1h1v1H9v2h1V30h1v1h1v1H11v1h3V32H13V31h1V30h1v1h1v1H15v1h3V32Zm-2-3H13v1H12V29H11V28h1V27h1v1h3V27h1v1h1v1H17v1H16V29Z"/><path class="za255-3" d="M19,32v1h1V32Z"/><path class="za255-2" d="M20,26h1V25H19v1Z"/><path class="za255-2" d="M18,23H17v2H16v1h2V25h1V24H18Z"/><rect class="za255-2" x="15" y="24" width="1" height="1"/><rect class="za255-2" x="14" y="32" width="1" height="1"/><rect class="za255-2" x="14" y="30" width="1" height="1"/><path class="za255-2" d="M14,28v1h1V28Z"/><path class="za255-2" d="M14,25v2h1V25Z"/><rect class="za255-2" x="13" y="24" width="1" height="1"/><path class="za255-4" d="M14,24v1h1V24h1V23H13v1Z"/><path class="za255-2" d="M11,26h2V25H12V23H11v1H10v1h1Z"/><path class="za255-2" d="M10,25H8v1h2Z"/><path class="za255-2" d="M9,31V27H8v6H9V31Z"/><path class="za255-3" d="M7,30v1H8V29H7Z"/><path class="za255-3" d="M8,28V27H7v1Z"/><path class="za255-3" d="M7,32v1H8V32Z"/><rect class="za255-2" x="7" y="26" width="1" height="1"/><path class="za255-2" d="M7,31V27H6v6H7V31Z"/><path class="za255-5" d="M12,32V31H11V30H10v1H9v1h1v1h1V32Z"/><path class="za255-5" d="M13,28V27H12v1H11v1h1v1h1V29h1V28Z"/><polygon class="za255-5" points="10 27 11 27 11 26 11 25 10 25 10 26 10 27"/><path class="za255-5" d="M15,25v1h1V25Z"/><path class="za255-5" d="M13,25v1h1V25Z"/><path class="za255-5" d="M17,30V29h1V28H17V27H16v1H15v1h1v1Z"/><polygon class="za255-5" points="18 26 18 27 19 27 19 26 19 25 18 25 18 26"/><path class="za255-5" d="M7,29H8V28H7Z"/><path class="za255-5" d="M10,29V28H9v1Z"/><path class="za255-5" d="M21,29h1V28H21Z"/><path class="za255-5" d="M19,29h1V28H19Z"/><path class="za255-5" d="M21,32h1V31H21Z"/><path class="za255-5" d="M7,32H8V31H7Z"/><polygon class="za255-5" points="16 32 16 31 15 31 14 31 13 31 13 32 14 32 15 32 16 32"/><path class="za255-5" d="M20,32V31H19V30H18v1H17v1h1v1h1V32Z"/><rect class="za255-2" x="20" y="15" width="1" height="1"/><path class="za255-4" d="M18,16H16V15H13v1H10v2h1v1h1V18h2v1h1V18h2v1h1V18h1V16Zm-3,1H14V16h1Z"/><path class="za255-4" d="M14,10v1H12v1h1v1h1v1h1V13h1V12h3V11H18V10H14Z"/><rect class="za255-4" x="19" y="15" width="1" height="1"/><polygon class="za255-4" points="13 21 14 21 14 22 15 22 15 21 16 21 16 20 13 20 13 21"/><rect class="za255-4" x="9" y="15" width="1" height="1"/><path class="za255-2" d="M19,17h1V16H19Z"/><path class="za255-2" d="M10,16H9v1h1Z"/><rect class="za255-2" x="8" y="15" width="1" height="1"/><rect class="za255-2" x="14" y="16" width="1" height="1"/><path class="za255-6" d="M13,12H11v1h2Z"/><path class="za255-6" d="M19,13V12H16v1h3Z"/><path class="za255-7" d="M12,22v1h5V22h2V20h1V17H19v1H18v1H16v2H15v1H14V21H13V19h1V18H12v1H11V18H10V17H9v3h1v2h2Z"/><path class="za255-7" d="M15,18v1h1V18Z"/><path class="za255-8" d="M18,23h1V22H18Z"/><path class="za255-7" d="M18,24h1V23H18Z"/><path class="za255-8" d="M17,24V23H16v1Z"/><path class="za255-7" d="M16,25h1V24H16Z"/><path class="za255-8" d="M13,23H12v1h1Z"/><path class="za255-7" d="M12,24v1h1V24Z"/><path class="za255-8" d="M11,22H10v1h1Z"/><path class="za255-7" d="M11,23H10v1h1Z"/><path class="za255-2" d="M14,19H13v1h3V19H14Z"/><path class="za255-2" d="M16,18v1h1V18Z"/><path class="za255-9" d="M19,13v1h1V11H19v2Z"/><rect class="za255-9" x="18" y="10" width="1" height="1"/><path class="za255-9" d="M10,13h1V12h1V11h2V10h4V9H17V8H12V9H10v1H9v1H8v3h2Z"/><path class="za255-10" d="M13,16V15h1V14H10v2h3Z"/><path class="za255-10" d="M16,15v1h3V14H15v1Z"/><path class="za255-2" d="M19,14V13H15v1h4Z"/><path class="za255-2" d="M14,14V13H10v1h4Z"/><path class="za255-2" d="M19,15h1V14H19Z"/><path class="za255-2" d="M10,14H9v1h1Z"/><path class="za255-2" d="M15,15V14H14v1Z"/></svg>