<svg xmlns="http://www.w3.org/2000/svg" viewBox="0 0 29 33"><defs><style>polygon,rect,path{shape-rendering:crispedges;}.ia16-1{fill:#d4a122;}.ia16-2{fill:#000000;}.ia16-3{fill:#ffffff;}.ia16-4{fill:#e8b795;}.ia16-5{fill:#004a77;}.ia16-6{fill:#f9e100;}.ia16-7{fill:#ff1d99;}.ia16-8{fill:#6e12ff;}.ia16-9{fill:#ffffff;}.ia16-10{fill:#ccc;}.ia16-11{fill:#455054;}.ia16-12{fill:#002b4f;}.ia16-13{fill:#ff1f4a;}</style></defs><path class="ia16-1" d="M0,33H8V32H6V31H5V22H6V21H7V20H5v1H2V17H5V16H7V13H8V10H9V9h1V8h1V7h7V8h1V9h1v1h1v3h1v4H21v1H20v1H19v1H18v1H17v3h2v1h2v1h1v1h1v6h6V0H0Z"/><path class="ia16-1" d="M11,24h1V21H11V20H10V19H9V17H8v5H9v2H8v1h2V24Z"/><path class="ia16-2" d="M6,24V22H5v9H6V24Z"/><path class="ia16-3" d="M7,30V24H6v7H7Z"/><path class="ia16-2" d="M9,27H8V26h2V25H8V24H7v7H6v1H8v1H9V27Z"/><path class="ia16-3" d="M20,27h1V26H19V25H17v1H16v1H13V26H12V25H10v1H8v1H9v6H20V27Z"/><path class="ia16-2" d="M11,24H10v1h2V24Z"/><rect class="ia16-2" x="12" y="25" width="1" height="1"/><path class="ia16-2" d="M13,26v1h3V26H13Z"/><path class="ia16-4" d="M16,23H13v1H12v1h1v1h3V25h1V24H16Z"/><rect class="ia16-2" x="16" y="25" width="1" height="1"/><path class="ia16-2" d="M18,25h1V24H17v1Z"/><path class="ia16-2" d="M20,26h1V25H19v1Z"/><path class="ia16-2" d="M21,27H20v6h1V27Z"/><rect class="ia16-2" x="21" y="26" width="1" height="1"/><path class="ia16-3" d="M22,27H21v6h1V27Z"/><path class="ia16-2" d="M23,27H22v6h1V27Z"/><rect class="ia16-4" x="14" y="15" width="1" height="1"/><path class="ia16-4" d="M16,17V16H15v1H14V16H13v1H10v2h1v1h1v1h1v1h3V21h1V20h1V19h1V17Zm1,2H16v1H13V19h3V18h1Z"/><path class="ia16-4" d="M13,13v1h3V12H15V11H13V10H11v1H10v1h3Z"/><path class="ia16-2" d="M20,16H19v3h1V16Z"/><rect class="ia16-2" x="18" y="19" width="1" height="1"/><rect class="ia16-2" x="17" y="20" width="1" height="1"/><path class="ia16-2" d="M16,22H13V21H12v3h1V23h3v1h1V21H16Z"/><rect class="ia16-2" x="11" y="20" width="1" height="1"/><rect class="ia16-2" x="10" y="19" width="1" height="1"/><path class="ia16-2" d="M10,19V16H9v3Z"/><rect class="ia16-2" x="14" y="16" width="1" height="1"/><path class="ia16-5" d="M13,13V12H10v1h3Z"/><rect class="ia16-2" x="13" y="19" width="3" height="1"/><rect class="ia16-2" x="16" y="18" width="1" height="1"/><path class="ia16-6" d="M20,18h1V17H20Z"/><path class="ia16-6" d="M9,13h1V11h1V10h2v1h2v1h1v1h4V10H19V9H18V8H11V9H10v1H9v3Z"/><path class="ia16-7" d="M17,14h2V13H16v1Z"/><path class="ia16-8" d="M19,14H16v2h3V14Z"/><path class="ia16-7" d="M16,16v1h3V16H16Z"/><path class="ia16-7" d="M13,14v2h1V15h1v1h1V14Z"/><path class="ia16-7" d="M11,14h2V13H10v1Z"/><path class="ia16-8" d="M11,14H10v2h3V14Z"/><path class="ia16-7" d="M10,16v1h3V16H10Z"/><path class="ia16-9" d="M8,17H9V10H8v3H7v3H8Z"/><rect class="ia16-9" x="9" y="9" width="1" height="1"/><rect class="ia16-9" x="10" y="8" width="1" height="1"/><rect class="ia16-9" x="11" y="7" width="7" height="1"/><rect class="ia16-9" x="18" y="8" width="1" height="1"/><rect class="ia16-9" x="19" y="9" width="1" height="1"/><path class="ia16-10" d="M10,15V13H9v3h1Z"/><path class="ia16-9" d="M20,13v4h1V16h1V13H21V10H20v3Z"/><path class="ia16-10" d="M19,15v1h1V13H19v2Z"/><path class="ia16-10" d="M21,17h1V16H21Z"/><path class="ia16-4" d="M7,24H8V22H6v2Z"/><path class="ia16-11" d="M8,22V20H7v2Z"/><path class="ia16-2" d="M7,21H6v1H7Z"/><path class="ia16-2" d="M9,22H8v2H9Z"/><path class="ia16-12" d="M4,21H5V20H4Z"/><path class="ia16-12" d="M5,18V17H4v1Z"/><path class="ia16-12" d="M3,19V18H2v2H3Z"/><path class="ia16-12" d="M5,19v1H6V19Z"/><path class="ia16-12" d="M6,16H5v1H6Z"/><path class="ia16-12" d="M7,17v2H8V17Z"/><path class="ia16-13" d="M3,17H2v1H3Z"/><path class="ia16-13" d="M6,17v1H3v2H4V19H7V17Z"/><rect class="ia16-13" x="7" y="16" width="1" height="1"/><path class="ia16-13" d="M8,19H7v1H8Z"/><path class="ia16-13" d="M2,20v1H3V20Z"/><path class="ia16-9" d="M3,20v1H4V20Z"/><path class="ia16-9" d="M4,19v1H5V19Z"/><path class="ia16-9" d="M4,18V17H3v1Z"/><path class="ia16-9" d="M7,17V16H6v1Z"/><path class="ia16-9" d="M6,18V17H5v1Z"/><path class="ia16-9" d="M6,19v1H7V19Z"/></svg>