<svg xmlns="http://www.w3.org/2000/svg" viewBox="0 0 29 33"><defs><style>polygon,rect,path{shape-rendering:crispedges;}.ra42-1{fill:#d14646;}.ra42-2{fill:#000000;}.ra42-3{fill:#cc3232;}.ra42-4{fill:#ce8452;}.ra42-5{fill:#ffed9f;}.ra42-6{fill:#ffffff;}.ra42-7{fill:#4922aa;}.ra42-8{fill:#cbed03;}.ra42-9{fill:#00e070;}.ra42-10{fill:#893a1f;}.ra42-11{fill:#dfdfdf;}.ra42-12{fill:#b2622b;}</style></defs><path class="ra42-1" d="M6,32V27H7V26H8V25h2V22H9V16H8V14H9V13H7V12H5V11H7v1H9V10h1V8h1V7h2V8h3V7h2V8h1V7h1V6h2V8H21V9H20v3h2V11h2v1H22v1H20v1h1v2H20v8H19v1h2v1h1v1h1v6h6V0H0V33H6Z"/><path class="ra42-2" d="M23,27H22v6h1V27Z"/><path class="ra42-3" d="M22,27H21v6h1V27Z"/><rect class="ra42-2" x="21" y="26" width="1" height="1"/><path class="ra42-2" d="M21,27H20v6h1V27Z"/><path class="ra42-3" d="M20,27h1V26H19v1H18V25H17v3h2v1H17v2h1V30h1v2H16V25H13v3h2v4H12V26H11V25H10v1H8v1H9v6H20V27Zm-9,2v3H10V28h1Z"/><rect class="ra42-3" x="12" y="24" width="1" height="1"/><rect class="ra42-3" x="16" y="24" width="1" height="1"/><path class="ra42-2" d="M20,26h1V25H19v1Z"/><path class="ra42-2" d="M15,24H13v1h3V24Z"/><path class="ra42-4" d="M15,23H13v1h3V23Z"/><path class="ra42-2" d="M13,23h3v1h1V21H16v1H13V21H12v3h1Z"/><path class="ra42-2" d="M10,25H8v1h2Z"/><path class="ra42-2" d="M9,27H8v6H9V27Z"/><path class="ra42-3" d="M8,27H7v6H8V27Z"/><rect class="ra42-2" x="7" y="26" width="1" height="1"/><path class="ra42-2" d="M7,27H6v6H7V27Z"/><path class="ra42-3" d="M14,31V29H13v2Z"/><path class="ra42-5" d="M14,29v2H13V30H12v2h3V28H13v1Z"/><path class="ra42-5" d="M10,29v3h1V28H10Z"/><path class="ra42-5" d="M18,29h1V28H17v1Z"/><path class="ra42-5" d="M16,31v1h3V30H18v1H17V30H16Z"/><path class="ra42-2" d="M12,26v4h1V25H12Z"/><path class="ra42-2" d="M16,26v4h1V25H16Z"/><path class="ra42-2" d="M20,16h1V15H20Z"/><path class="ra42-4" d="M13,22h3V21h1V20h1V19h1V17H16V16H15v1H14V16H13v1H10v2h1v1h1v1h1Zm-1-3V18h5v1H16v1H13V19Z"/><rect class="ra42-4" x="14" y="15" width="1" height="1"/><path class="ra42-4" d="M14,14h2V13H13v1Z"/><path class="ra42-2" d="M19,17v2h1V16H19Z"/><rect class="ra42-2" x="18" y="19" width="1" height="1"/><rect class="ra42-2" x="17" y="20" width="1" height="1"/><rect class="ra42-2" x="11" y="20" width="1" height="1"/><rect class="ra42-2" x="10" y="19" width="1" height="1"/><path class="ra42-2" d="M10,18V16H9v3h1Z"/><path class="ra42-2" d="M8,15v1H9V15Z"/><rect class="ra42-2" x="14" y="16" width="1" height="1"/><path class="ra42-2" d="M13,18H12v1h1Z"/><path class="ra42-2" d="M17,19V18H16v1Z"/><path class="ra42-2" d="M13,19v1h3V19H15V18H14v1Z"/><path class="ra42-6" d="M14,19V18H13v1Z"/><path class="ra42-6" d="M16,19V18H15v1Z"/><path class="ra42-7" d="M19,20H18v1H17v4h1v2h1V24h1V19H19Z"/><rect class="ra42-7" x="19" y="13" width="1" height="1"/><rect class="ra42-7" x="9" y="13" width="1" height="1"/><path class="ra42-7" d="M11,26h1V21H11V20H10V19H9v3h1v3h1Z"/><path class="ra42-8" d="M19,15v1h1V15h1V14H19Z"/><path class="ra42-8" d="M17,14h2V13H16v1Z"/><path class="ra42-9" d="M16,14v2h3V14H16Z"/><path class="ra42-8" d="M16,16v1h3V16H16Z"/><path class="ra42-8" d="M14,14H13v2h1V15h1v1h1V14Z"/><path class="ra42-8" d="M13,14V13H10v1h3Z"/><path class="ra42-9" d="M13,16V14H10v2h3Z"/><path class="ra42-8" d="M13,17V16H10v1h3Z"/><path class="ra42-8" d="M10,15V14H8v1H9v1h1Z"/><path class="ra42-10" d="M24,11H22v1h2Z"/><path class="ra42-11" d="M21,8h1V7H21Z"/><path class="ra42-10" d="M11,13H22V12H20V11H19v1H10V11H9v1H7v1h4Z"/><rect class="ra42-11" x="20" y="8" width="1" height="1"/><path class="ra42-12" d="M19,11h1V10H19Z"/><path class="ra42-6" d="M18,11h1V10h1V8h1V7h1V6H20V7H19V8H18v3Z"/><path class="ra42-12" d="M17,11H10v1h9V11H17Z"/><path class="ra42-10" d="M11,11h7V7H16V8H13V7H11V8H10v3Z"/><path class="ra42-12" d="M10,10H9v1h1Z"/><path class="ra42-10" d="M6,11H5v1H7V11Z"/></svg>