<svg xmlns="http://www.w3.org/2000/svg" viewBox="0 0 29 33"><defs><style>polygon,rect,path{shape-rendering:crispedges;}.cb238-1{fill:#db5a8e;}.cb238-2{fill:#000000;}.cb238-3{fill:#685432;}.cb238-4{fill:#ffffff;}.cb238-5{fill:#e8b795;}.cb238-6{fill:#e2e2e2;}.cb238-7{fill:#893a1f;}.cb238-8{fill:#e70059;}.cb238-9{fill:#99004d;}.cb238-10{fill:#fad000;}.cb238-11{fill:#0068ff;}.cb238-12{fill:#ff1f4a;}</style></defs><path class="cb238-1" d="M0,33H6V27H7V26H8V25h2V24h1V23h1V21H10V20H9V16H8V15H9V11h1V10h1V7h1V6H11V5h2V6h2V7h1V9h2v1h1v1h1v4h1v1H20v4H19v1H17v2h1v1h1v1h2v1h1v1h1v6h6V0H0Z"/><path class="cb238-2" d="M23,27H22v6h1V27Z"/><path class="cb238-3" d="M22,27H21v6h1V27Z"/><rect class="cb238-2" x="21" y="26" width="1" height="1"/><path class="cb238-2" d="M21,27H20v6h1V27Z"/><path class="cb238-3" d="M20,27h1V26H18v3H17v4h3V27Z"/><path class="cb238-2" d="M17,29H16v4h1V29Z"/><rect class="cb238-4" x="12" y="28" width="1" height="1"/><path class="cb238-4" d="M16,26V25H13v1h3Z"/><rect class="cb238-4" x="16" y="28" width="1" height="1"/><path class="cb238-4" d="M16,29H13v4h1V32h1v1h1V29Zm-1,2H14V30h1Z"/><rect class="cb238-4" x="15" y="23" width="1" height="1"/><rect class="cb238-2" x="14" y="32" width="1" height="1"/><rect class="cb238-2" x="14" y="30" width="1" height="1"/><rect class="cb238-4" x="13" y="23" width="1" height="1"/><path class="cb238-2" d="M13,29H12v4h1V29Z"/><path class="cb238-3" d="M12,29H11V26H8v1H9v6h3V29Z"/><path class="cb238-2" d="M11,26V24H10v1H8v1h3Z"/><path class="cb238-2" d="M9,27H8v6H9V27Z"/><path class="cb238-3" d="M8,27H7v6H8V27Z"/><rect class="cb238-2" x="7" y="26" width="1" height="1"/><path class="cb238-2" d="M7,27H6v6H7V27Z"/><rect class="cb238-2" x="20" y="15" width="1" height="1"/><path class="cb238-2" d="M20,13V11H19v2Z"/><rect class="cb238-5" x="14" y="15" width="1" height="1"/><path class="cb238-5" d="M12,12v1h2v1h1V13h1V12h2v1h1V11H18V10H16v1H14V10H11v1H10v1Z"/><path class="cb238-5" d="M13,22h3V21h1V20h1V18h1V16H15v1H14V16H10v2h1v2h1v1h1Zm-1-3V18h5v1H16v1H13V19Z"/><path class="cb238-2" d="M19,17h1V16H19Z"/><rect class="cb238-2" x="18" y="10" width="1" height="1"/><path class="cb238-2" d="M17,10h1V9H16v1Z"/><path class="cb238-2" d="M13,9H11v1h2Z"/><rect class="cb238-2" x="10" y="10" width="1" height="1"/><path class="cb238-2" d="M10,12V11H9v2h1Z"/><path class="cb238-2" d="M10,16H9v1h1Z"/><rect class="cb238-2" x="8" y="15" width="1" height="1"/><rect class="cb238-2" x="14" y="16" width="1" height="1"/><path class="cb238-6" d="M16,12v1h2V12Z"/><path class="cb238-6" d="M10,12v1h2V12Z"/><path class="cb238-7" d="M19,18H18v2H17v1h2V20h1V17H19Z"/><path class="cb238-7" d="M11,20V18H10V17H9v3h1v1h2V20Z"/><path class="cb238-2" d="M13,18H12v1h1Z"/><path class="cb238-2" d="M17,19V18H16v1Z"/><path class="cb238-2" d="M15,20h1V19H15Z"/><path class="cb238-2" d="M15,19V18H14v1Z"/><path class="cb238-2" d="M13,19v1h1V19Z"/><path class="cb238-4" d="M14,19V18H13v1Z"/><path class="cb238-4" d="M16,19V18H15v1Z"/><path class="cb238-8" d="M14,19v1h1V19Z"/><path class="cb238-9" d="M13,10h1v1h2V7H15V6H13V5H11V6h1V7H11V9h2Z"/><path class="cb238-2" d="M18,26h3V25H19V24H18v2Z"/><path class="cb238-2" d="M17,27H16v1h1v1h1V26H17Z"/><path class="cb238-10" d="M17,25v1h1V25Z"/><path class="cb238-4" d="M17,25h1V24H17Z"/><rect class="cb238-4" x="16" y="26" width="1" height="1"/><rect class="cb238-10" x="15" y="27" width="1" height="1"/><path class="cb238-2" d="M15,28H13v1h3V28Z"/><path class="cb238-4" d="M14,27v1h1V27Z"/><path class="cb238-10" d="M13,27v1h1V27Z"/><path class="cb238-2" d="M14,27h2V26H13v1Z"/><path class="cb238-2" d="M13,28V27H12V26H11v3h1V28Z"/><rect class="cb238-4" x="12" y="26" width="1" height="1"/><path class="cb238-2" d="M12,25v1h1V25h3v1h1V24h1V23H17V21H16v1H13V21H12v2H11v1h1Zm3-2h1v1H15Zm-2,0h1v1H13Z"/><path class="cb238-10" d="M12,25H11v1h1Z"/><path class="cb238-4" d="M12,25V24H11v1Z"/><path class="cb238-4" d="M11,16h3V15h1v1h5V13H15v1H14V13H9v3h2Zm5-2h3v1H16Zm-6,0h3v1H10Z"/><path class="cb238-11" d="M19,15V14H16v1h3Z"/><path class="cb238-12" d="M13,15V14H10v1h3Z"/><rect class="cb238-9" x="10" y="9" width="1" height="1"></rect></svg>