<svg xmlns="http://www.w3.org/2000/svg" viewBox="0 0 29 33"><defs><style>polygon,rect,path{shape-rendering:crispedges;}.ja68-1{fill:#db5a8e;}.ja68-2{fill:#000000;}.ja68-3{fill:#dbc6d2;}.ja68-4{fill:#6d3e35;}.ja68-5{fill:#af8423;}.ja68-6{fill:#492a23;}.ja68-7{fill:#c8a715;}.ja68-8{fill:#00686d;}.ja68-9{fill:#455054;}.ja68-10{fill:#ff1f4a;}.ja68-11{fill:#ffffff;}.ja68-12{fill:#0068ff;}</style></defs><rect class="ja68-1" x="19" y="16" width="1"/><polygon class="ja68-1" points="14 16 15 16 15 16 14 16 14 17 14 17 14 16"/><path class="ja68-1" d="M18,24V22H17v2Z"/><path class="ja68-1" d="M11,24h1V22H11v2Z"/><rect class="ja68-1" x="9" y="16" width="1"/><path class="ja68-1" d="M0,33H8V32H6V31H5V22H6V21H7V20H5v1H2V17H5V16H8V15H9V11h1V9h1V7h1V6H11V5h2V6h2V7h1V9h2v1h1v1h1v4h1v1H20v4H19v5h2v1h1v1h1v6h6V0H0Z"/><path class="ja68-1" d="M8,19v3H9v2H8v1h2V20H9V16H8v3Z"/><path class="ja68-2" d="M23,27H22v6h1V27Z"/><rect class="ja68-2" x="21" y="26" width="1" height="1"/><path class="ja68-3" d="M22,27H21v6h1V27Z"/><path class="ja68-2" d="M21,27H20v6h1V27Z"/><path class="ja68-2" d="M20,26h1V25H19v1Z"/><path class="ja68-3" d="M20,27h1V26H19V25H16V23H13v2H10v1H8v1H9v6H20V27Z"/><path class="ja68-2" d="M17,24v1h2V24H17Z"/><path class="ja68-2" d="M11,24H10v1h2V24Z"/><path class="ja68-2" d="M9,27H8V26h2V25H8V24H7v7H6v1H8v1H9V27Z"/><path class="ja68-3" d="M7,30V24H6v7H7Z"/><path class="ja68-2" d="M6,24V22H5v9H6V24Z"/><polygon class="ja68-2" points="20 16 20 16 21 16 21 15 20 15 20 16 20 16"/><polygon class="ja68-4" points="13 21 14 21 14 22 15 22 15 21 16 21 16 20 13 20 13 21"/><path class="ja68-4" d="M9,16h1v2h1v1h1V18h2v1h1V18h2v1h1V18h1V16h1V15H18v1H16V15H15V14H14v1H13v1H11V15H9Zm5,0h1v1H14Z"/><rect class="ja68-4" x="18" y="10"/><path class="ja68-4" d="M10,14h1V13H10V12h2v1h4V12h2v1h1v1h0V11H18V10H16v1H14V10H11v1H10v3Z"/><path class="ja68-2" d="M19,16v1h1V16Z"/><polygon class="ja68-2" points="18 11 19 11 19 11 19 10 18 10 18 10 18 11"/><path class="ja68-2" d="M18,10h0V9H16v1Z"/><path class="ja68-2" d="M13,10V9H11v1Z"/><path class="ja68-2" d="M11,11V10H10v1h1Z"/><path class="ja68-2" d="M10,16H9v1h1Z"/><polygon class="ja68-2" points="9 16 9 15 9 15 8 15 8 16 9 16 9 16"/><polygon class="ja68-2" points="14 17 14 17 15 17 15 16 15 16 14 16 14 17"/><rect class="ja68-5" x="18" y="13" width="1" height="1"/><path class="ja68-5" d="M16,12v1h2V12Z"/><polygon class="ja68-5" points="10 12 10 13 11 13 11 13 12 13 12 12 10 12"/><path class="ja68-6" d="M16,18H15v1h1Z"/><path class="ja68-6" d="M19,18H18v1H16v2H15v1H14V21H13V19h1V18H12v1H11V18H10V17H9v3h1v2h2v1h5V22h2V20h1V17H19Z"/><path class="ja68-7" d="M18,23h1V22H18Z"/><path class="ja68-6" d="M18,24h1V23H18Z"/><path class="ja68-7" d="M17,23H16v1h1Z"/><path class="ja68-6" d="M16,24v1h1V24Z"/><path class="ja68-7" d="M12,24h1V23H12Z"/><path class="ja68-6" d="M12,25h1V24H12Z"/><path class="ja68-7" d="M11,22H10v1h1Z"/><path class="ja68-6" d="M11,23H10v1h1Z"/><path class="ja68-2" d="M13,20h3V19H13Z"/><path class="ja68-2" d="M17,19V18H16v1Z"/><path class="ja68-8" d="M13,10h1v1h2V7H15V6H13V5H11V6h1V7H11V9h2Z"/><path class="ja68-8" d="M11,9H10v1h1Z"/><path class="ja68-2" d="M11,16h2V15h1V14h1v1h1v1h2V15h2V11H19v3H18V13H11v1H10V11H9v4h2Z"/><path class="ja68-4" d="M7,24H8V22H6v2Z"/><path class="ja68-9" d="M8,22V20H7v2Z"/><path class="ja68-10" d="M5,17H2v1H5Z"/><path class="ja68-10" d="M2,19v1H5V19Z"/><path class="ja68-11" d="M2,21H5V20H2Z"/><path class="ja68-12" d="M6,18H8V16H5v2Z"/><path class="ja68-11" d="M5,18H2v1H5Z"/><path class="ja68-10" d="M7,18H5v1H8V18Z"/><path class="ja68-11" d="M8,19H5v1H8Z"/><path class="ja68-2" d="M7,21H6v1H7Z"/><path class="ja68-2" d="M9,22H8v2H9Z"/><rect class="ja68-8" x="10" y="9" width="1" height="1"></rect></svg>