<svg xmlns="http://www.w3.org/2000/svg" viewBox="0 0 29 33"><defs><style>polygon,rect,path{shape-rendering:crispedges;}.ib237-1{fill:#b4bd09;}.ib237-2{fill:#000000;}.ib237-3{fill:#ce8452;}.ib237-4{fill:#fad000;}.ib237-5{fill:#ffffff;}.ib237-6{fill:#9b8100;}.ib237-7{fill:#0068ff;}.ib237-8{fill:#0068ff;}.ib237-9{fill:#ff1f4a;}</style></defs><path class="ib237-1" d="M0,33H6V27H7V26H8V25h2V23h1V22h1V21H9V20H8V19H9V16H8V15H9V11h1V9h1V8h7V9h1v1h1v5h1v1H20v3h1v1H20v1H17v1h1v1h1v2h2v1h1v1h1v6h6V0H0Z"/><path class="ib237-2" d="M23,27H22v6h1V27Z"/><path class="ib237-3" d="M22,27H21v6h1V27Z"/><rect class="ib237-2" x="21" y="26" width="1" height="1"/><path class="ib237-2" d="M21,27H20v6h1V27Z"/><path class="ib237-3" d="M20,27h1V26H19V25H18v1H17v1H16v1H13V27H12V26H11V25H10v1H8v1H9v6h5V29h1v4h5V27Zm-8,2H11V28h1Zm6,0H17V28h1Z"/><path class="ib237-3" d="M16,25V23H13v2h3Z"/><path class="ib237-2" d="M20,26h1V25H19v1Z"/><rect class="ib237-2" x="17" y="28" width="1" height="1"/><path class="ib237-2" d="M15,29H14v4h1V29Z"/><rect class="ib237-2" x="11" y="28" width="1" height="1"/><path class="ib237-2" d="M10,25H8v1h2Z"/><path class="ib237-2" d="M9,27H8v6H9V27Z"/><path class="ib237-3" d="M8,27H7v6H8V27Z"/><rect class="ib237-2" x="7" y="26" width="1" height="1"/><path class="ib237-2" d="M7,27H6v6H7V27Z"/><rect class="ib237-2" x="20" y="15" width="1" height="1"/><path class="ib237-3" d="M13,22h3V21h1V19H16v1H13V19h3V18h1v1h1V18h1V16H15v1H14V16H10v2h1v1h1v2h1Z"/><rect class="ib237-3" x="14" y="15" width="1" height="1"/><path class="ib237-3" d="M10,13h4v1h1V12H14V11H13V10H11v1H10v2Z"/><path class="ib237-2" d="M17,20v1h1V20Z"/><path class="ib237-2" d="M11,20v1h1V20Z"/><rect class="ib237-2" x="8" y="15" width="1" height="1"/><rect class="ib237-2" x="14" y="16" width="1" height="1"/><path class="ib237-2" d="M18,25h1V23H18v2Z"/><rect class="ib237-2" x="17" y="25" width="1" height="1"/><path class="ib237-4" d="M17,24v1h1V24Z"/><path class="ib237-5" d="M17,24h1V23H17Z"/><rect class="ib237-2" x="16" y="26" width="1" height="1"/><rect class="ib237-5" x="16" y="25" width="1" height="1"/><rect class="ib237-4" x="15" y="26" width="1" height="1"/><path class="ib237-2" d="M14,27H13v1h3V27H14Z"/><path class="ib237-5" d="M14,27h1V26H14Z"/><rect class="ib237-4" x="13" y="26" width="1" height="1"/><path class="ib237-2" d="M14,26h2V25H13v1Z"/><rect class="ib237-2" x="12" y="26" width="1" height="1"/><rect class="ib237-5" x="12" y="25" width="1" height="1"/><path class="ib237-2" d="M12,24v1h1V23h3v2h1V23h1V22H17V21H16v1H13V21H12v1H11v1h1Z"/><rect class="ib237-2" x="11" y="25" width="1" height="1"/><rect class="ib237-4" x="11" y="24" width="1" height="1"/><rect class="ib237-5" x="11" y="23" width="1" height="1"/><path class="ib237-2" d="M11,24V23H10v2h1Z"/><path class="ib237-6" d="M19,17v1H18v1H17v1h1v1h2V20h1V19H20V16H19Z"/><path class="ib237-6" d="M12,20V19H11V18H10V16H9v3H8v1H9v1h2V20Z"/><rect class="ib237-2" x="13" y="19" width="3" height="1"/><rect class="ib237-2" x="16" y="18" width="1" height="1"/><path class="ib237-7" d="M11,10h2v1h1v1h1v1h5V10H19V9H18V8H11V9H10v2h1Z"/><path class="ib237-7" d="M10,12V11H9v2h1Z"/><path class="ib237-5" d="M11,16h3V15h1v1h5V13H15v1H14V13H9v3h2Zm5-2h3v1H16Zm-6,0h3v1H10Z"/><path class="ib237-8" d="M19,15V14H16v1h3Z"/><path class="ib237-9" d="M13,15V14H10v1h3Z"/></svg>