<svg xmlns="http://www.w3.org/2000/svg" viewBox="0 0 29 33"><defs><style>polygon,rect,path{shape-rendering:crispedges;}.ma20-1{fill:#29834f;}.ma20-2{fill:#000000;}.ma20-3{fill:#94d4ff;}.ma20-4{fill:#333333;}.ma20-5{fill:#b2622b;}.ma20-6{fill:#009b97;}.ma20-7{fill:#ffffff;}.ma20-8{fill:#e2e2e2;}.ma20-9{fill:#473a35;}.ma20-10{fill:#4fdb7d;}</style></defs><path class="ma20-1" d="M0,33H6V27H7V26H8V25h2V24h2V21H11V20H10V19H9V16H8V15H9V11h1V10h1V9h7v1h1v1h1v4h1v1H20v3H19v1H18v1H17v3h2v1h2v1h1v1h1v6h6V0H0Z"/><path class="ma20-2" d="M23,27H22v6h1V27Z"/><rect class="ma20-2" x="21" y="26" width="1" height="1"/><path class="ma20-3" d="M21,32v1h1V32Z"/><path class="ma20-3" d="M21,28h1V27H21Z"/><path class="ma20-3" d="M21,30v1h1V29H21Z"/><path class="ma20-2" d="M21,31V27H20v6h1V31Z"/><path class="ma20-3" d="M19,26v1H18v3h1v1h1V29H19V28h1V27h1V26H19Z"/><path class="ma20-3" d="M19,32v1h1V32Z"/><path class="ma20-2" d="M20,26h1V25H19v1Z"/><path class="ma20-2" d="M18,30V25h1V24H17v1H16v1h1v7h1V30Z"/><path class="ma20-4" d="M17,26H16v1H13V26H12v7h5V26Z"/><path class="ma20-2" d="M13,26v1h3V26H13Z"/><path class="ma20-2" d="M13,23h3v1h1V21H16v1H13V21H12v3h1Z"/><path class="ma20-5" d="M13,25v1h3V25h1V24H16V23H13v1H12v1Z"/><path class="ma20-2" d="M12,26h1V25H12V24H10v1h1v8h1V26Z"/><rect class="ma20-3" x="9" y="32" width="1" height="1"/><path class="ma20-3" d="M9,27v1h1v1H9v2h1V30h1V27H10V26H8v1Z"/><path class="ma20-2" d="M10,25H8v1h2Z"/><path class="ma20-2" d="M9,31V27H8v6H9V31Z"/><rect class="ma20-2" x="7" y="26" width="1" height="1"/><path class="ma20-3" d="M7,30v1H8V29H7Z"/><path class="ma20-3" d="M8,28V27H7v1Z"/><path class="ma20-3" d="M7,32v1H8V32Z"/><path class="ma20-2" d="M7,31V27H6v6H7V31Z"/><path class="ma20-6" d="M11,30H10v1H9v1h1v1h1V30Z"/><path class="ma20-6" d="M10,27h1V25H10v2Z"/><path class="ma20-6" d="M18,26v1h1V25H18Z"/><path class="ma20-6" d="M7,29H8V28H7Z"/><path class="ma20-6" d="M10,28H9v1h1Z"/><path class="ma20-6" d="M21,29h1V28H21Z"/><path class="ma20-6" d="M19,29h1V28H19Z"/><path class="ma20-6" d="M21,32h1V31H21Z"/><path class="ma20-6" d="M7,32H8V31H7Z"/><path class="ma20-6" d="M20,32V31H19V30H18v3h1V32Z"/><rect class="ma20-2" x="20" y="15" width="1" height="1"/><rect class="ma20-5" x="9" y="15" width="1" height="1"/><path class="ma20-5" d="M12,19V18h5v1h2V16h1V15H15v2H14V15H13v1H11v1H10v2h2Z"/><rect class="ma20-5" x="15" y="20" width="1" height="1"/><rect class="ma20-5" x="16" y="19" width="1" height="1"/><rect class="ma20-5" x="12" y="19" width="1" height="1"/><rect class="ma20-5" x="13" y="20" width="1" height="1"/><path class="ma20-2" d="M19,17v2h1V16H19Z"/><path class="ma20-2" d="M18,20h1V19H18Z"/><rect class="ma20-2" x="17" y="20" width="1" height="1"/><rect class="ma20-2" x="11" y="20" width="1" height="1"/><path class="ma20-2" d="M10,19v1h1V19Z"/><path class="ma20-2" d="M10,16H9v3h1V16Z"/><rect class="ma20-2" x="8" y="15" width="1" height="1"/><path class="ma20-2" d="M14,17h1V16H14Z"/><path class="ma20-7" d="M16,14v1h1V14Z"/><path class="ma20-2" d="M18,14H17v1h2V14Z"/><rect class="ma20-8" x="16" y="13" width="1" height="1"/><path class="ma20-9" d="M17,19v1h1V19Z"/><rect class="ma20-9" x="16" y="20" width="1" height="1"/><path class="ma20-9" d="M15,20H14v1H13v1h3V21H15Z"/><path class="ma20-9" d="M14,19h3V18H13v1Z"/><rect class="ma20-9" x="12" y="20" width="1" height="1"/><path class="ma20-9" d="M12,19H11v1h1Z"/><path class="ma20-2" d="M15,20h1V19H13v1h2Z"/><path class="ma20-2" d="M13,18H12v1h1Z"/><path class="ma20-10" d="M10,16v1h1V16h2V15h1v1h1V15h1V13h1v1h2v1h1V11H19V10H18V9H11v1H10v1H9v4h1Z"/></svg>