<svg xmlns="http://www.w3.org/2000/svg" viewBox="0 0 29 33"><defs><style>polygon,rect,path{shape-rendering:crispedges;}.aa204-1{fill:#e55b35;}.aa204-2{fill:#000000;}.aa204-3{fill:#ce8452;}.aa204-4{fill:#45ba00;}.aa204-5{fill:#ffffff;}.aa204-6{fill:#8e4717;}.aa204-7{fill:#8e4717;}.aa204-8{fill:#6e12ff;}.aa204-9{fill:#ffffff;}.aa204-10{fill:#0068ff;}.aa204-11{fill:#ff1f4a;}</style></defs><path class="aa204-1" d="M0,33H6V27H7V26H8V25h2V24h2V21H9V20H8V19H9V16H8V15H9V10h1V9h1V8h7V9h1v1h1v5h1v1H20v3h1v1H20v1H17v3h2v1h2v1h1v1h1v6h6V0H0Z"/><path class="aa204-2" d="M23,31V27H22v6h1Z"/><rect class="aa204-2" x="21" y="26" width="1" height="1"/><path class="aa204-3" d="M22,31V27H21v6h1Z"/><rect class="aa204-3" x="20" y="26" width="1" height="1"/><path class="aa204-2" d="M21,31V27H20v6h1Z"/><path class="aa204-2" d="M20,26h1V25H19v1Z"/><rect class="aa204-4" x="10" y="32" width="1" height="1"/><path class="aa204-4" d="M14,31v1h1V30H14Z"/><rect class="aa204-4" x="10" y="30" width="1" height="1"/><path class="aa204-4" d="M17,31V30h1V29h1v1h1V26H19V25H18v1H17v1H16v1H13V27H12V26H11V25H10v1H9v4h1V29h1v1h1v3h1V29h2v1h1v2H15v1h2Z"/><rect class="aa204-4" x="18" y="32" width="1" height="1"/><rect class="aa204-4" x="18" y="30" width="1" height="1"/><path class="aa204-2" d="M17,26h1V25h1V24H17Z"/><rect class="aa204-2" x="16" y="26" width="1" height="1"/><path class="aa204-2" d="M14,27H13v1h3V27Z"/><path class="aa204-2" d="M13,23h3v1h1V21H16v1H13V21H12v3h1Z"/><path class="aa204-3" d="M12,26h1v1h3V26h1V24H16V23H13v1H12Z"/><rect class="aa204-2" x="12" y="26" width="1" height="1"/><path class="aa204-2" d="M11,26h1V24H10v1h1Z"/><path class="aa204-2" d="M10,26V25H8v1Z"/><rect class="aa204-3" x="8" y="26" width="1" height="1"/><path class="aa204-2" d="M9,31V27H8v6H9Z"/><rect class="aa204-2" x="7" y="26" width="1" height="1"/><path class="aa204-3" d="M8,31V27H7v6H8Z"/><path class="aa204-2" d="M7,31V27H6v6H7Z"/><path class="aa204-5" d="M20,31V30H19v1H18V30H17v3h1V32h1v1h1Z"/><rect class="aa204-5" x="18" y="29" width="1" height="1"/><path class="aa204-5" d="M15,32h1V30H15Z"/><path class="aa204-5" d="M14,32V30h1V29H13v4h2V32Z"/><path class="aa204-5" d="M12,31V30H11v1H10V30H9v3h1V32h1v1h1Z"/><rect class="aa204-5" x="10" y="29" width="1" height="1"/><rect class="aa204-2" x="20" y="15" width="1" height="1"/><path class="aa204-3" d="M19,12V11H18V10H17v1H16V10H15v1H12V10H11v1H10v2h4v1h1V13h1V12Z"/><path class="aa204-3" d="M13,22h3V21h1V19h1V18h1V16H15v1H14V16H10v2h1v1h1V18h1v1h3v1H13V19H12v2h1Z"/><rect class="aa204-3" x="14" y="15" width="1" height="1"/><rect class="aa204-2" x="17" y="20" width="1" height="1"/><rect class="aa204-2" x="11" y="20" width="1" height="1"/><rect class="aa204-2" x="8" y="15" width="1" height="1"/><rect class="aa204-2" x="14" y="16" width="1" height="1"/><path class="aa204-6" d="M16,12v1h3V12Z"/><path class="aa204-7" d="M19,17v1H18v1H17v1h1v1h2V20h1V19H20V16H19Z"/><path class="aa204-7" d="M12,20V19H11V18H10V16H9v3H8v1H9v1h2V20Z"/><rect class="aa204-2" x="13" y="19" width="3" height="1"/><rect class="aa204-2" x="12" y="18" width="1" height="1"/><path class="aa204-8" d="M10,12V11h1V10h1v1h3V10h1v1h1V10h1v1h1v2h1V10H19V9H18V8H11V9H10v1H9v3h1Z"/><path class="aa204-9" d="M11,16h3V15h1v1h5V13H15v1H14V13H9v3Zm5-2h3v1H16Zm-6,0h3v1H10Z"/><path class="aa204-10" d="M18,15h1V14H16v1Z"/><path class="aa204-11" d="M12,15h1V14H10v1Z"/></svg>