<svg xmlns="http://www.w3.org/2000/svg" viewBox="0 0 29 33"><defs><style>polygon,rect,path{shape-rendering:crispedges;}.na292-1{fill:#29834f;}.na292-2{fill:#000000;}.na292-3{fill:#00af68;}.na292-4{fill:#cc2f76;}.na292-5{fill:#b2622b;}.na292-6{fill:#9fffc6;}.na292-7{fill:#473a35;}.na292-8{fill:#473a35;}.na292-9{fill:#ffffff;}.na292-10{fill:#e70059;}.na292-11{fill:#ff5e17;}.na292-12{fill:#68aaad;}</style></defs><path class="na292-1" d="M0,33H6V24H7V23H8v1H9v1h1V24h2V21H9V20H8V19H9V16H8V15H9V11h1V10h1V9h7v1h1v1h1v4h1v1H20v3h1v1H20v1H17v3h2v1h2v1h1v1h1v6h6V0H0Z"/><path class="na292-2" d="M23,27H22v6h1V27Z"/><path class="na292-3" d="M21,30v1h1V29H21Z"/><path class="na292-3" d="M21,32v1h1V32Z"/><path class="na292-3" d="M21,28h1V27H21Z"/><rect class="na292-2" x="21" y="26" width="1" height="1"/><path class="na292-2" d="M21,31V27H20v6h1V31Z"/><path class="na292-3" d="M19,32v1h1V32Z"/><path class="na292-3" d="M19,26v1H18v3h1v1h1V29H19V28h1V27h1V26H19Z"/><path class="na292-2" d="M20,26h1V25H19v1Z"/><path class="na292-2" d="M18,30V25h1V24H17v1H16v1h1v7h1V30Z"/><path class="na292-4" d="M17,26H16v1H13V26H12v7h5V26Z"/><path class="na292-2" d="M13,26v1h3V26H13Z"/><path class="na292-5" d="M13,25v1h3V25h1V24H16V23H13v1H12v1Z"/><path class="na292-2" d="M13,23h3v1h1V21H16v1H13V21H12v3h1Z"/><path class="na292-2" d="M12,26h1V25H12V24H10v1h1v8h1V26Z"/><rect class="na292-3" x="9" y="32" width="1" height="1"/><path class="na292-3" d="M9,27v1h1v1H9v2h1V30h1V27H9Z"/><path class="na292-2" d="M9,31V27H8v6H9V31Z"/><path class="na292-3" d="M7,32v1H8V32Z"/><path class="na292-3" d="M7,28H8V27H7Z"/><path class="na292-3" d="M7,30v1H8V29H7Z"/><path class="na292-2" d="M7,31V24H6v9H7V31Z"/><path class="na292-6" d="M11,30H10v1H9v1h1v1h1V30Z"/><path class="na292-6" d="M11,27V25H10v2Z"/><path class="na292-6" d="M18,26v1h1V25H18Z"/><path class="na292-6" d="M7,29H8V28H7Z"/><path class="na292-6" d="M10,28H9v1h1Z"/><path class="na292-6" d="M21,29h1V28H21Z"/><path class="na292-6" d="M19,29h1V28H19Z"/><path class="na292-6" d="M21,32h1V31H21Z"/><path class="na292-6" d="M7,32H8V31H7Z"/><path class="na292-6" d="M20,32V31H19V30H18v3h1V32Z"/><rect class="na292-2" x="20" y="15" width="1" height="1"/><rect class="na292-5" x="9" y="15" width="1" height="1"/><path class="na292-5" d="M12,12v1h2v1h1V13h1V12h2v1h1V11H18V10H11v1H10v1Z"/><path class="na292-5" d="M13,22h3V21h1V19H16v1H13V19H12v2h1Z"/><path class="na292-5" d="M18,18h1V16H16V15H13v1H10v2h1v1h1V18h5v1h1Zm-3-1H14V16h1Z"/><rect class="na292-5" x="19" y="15" width="1" height="1"/><path class="na292-2" d="M17,20v1h1V20Z"/><path class="na292-2" d="M11,20v1h1V20Z"/><rect class="na292-2" x="8" y="15" width="1" height="1"/><rect class="na292-2" x="14" y="16" width="1" height="1"/><path class="na292-7" d="M18,12H16v1h2Z"/><path class="na292-7" d="M12,12H10v1h2Z"/><path class="na292-8" d="M19,17v1H18v1H17v1h1v1h2V20h1V19H20V16H19Z"/><path class="na292-8" d="M12,20V19H11V18H10V16H9v3H8v1H9v1h2V20Z"/><path class="na292-2" d="M12,18v1h1V18Z"/><path class="na292-2" d="M16,18v1h1V18Z"/><path class="na292-2" d="M15,20h1V19H15Z"/><path class="na292-2" d="M15,19V18H14v1Z"/><path class="na292-2" d="M13,19v1h1V19Z"/><path class="na292-9" d="M14,18H13v1h1Z"/><path class="na292-9" d="M15,18v1h1V18Z"/><path class="na292-10" d="M14,19v1h1V19Z"/><path class="na292-5" d="M7,27H9V25H8V24H7v3Z"/><path class="na292-2" d="M10,27V25H9v2Z"/><rect class="na292-2" x="8" y="24" width="1" height="1"/><rect class="na292-2" x="7" y="23" width="1" height="1"/><path class="na292-11" d="M19,14h1V11H19v3Z"/><rect class="na292-11" x="18" y="10" width="1" height="1"/><path class="na292-11" d="M18,10V9H11v1h7Z"/><rect class="na292-11" x="10" y="10" width="1" height="1"/><path class="na292-11" d="M10,13V11H9v3h1Z"/><path class="na292-12" d="M13,16V15h1V14H10v2h3Z"/><path class="na292-12" d="M16,15v1h3V14H15v1Z"/><path class="na292-2" d="M19,14V13H15v1h4Z"/><path class="na292-2" d="M14,14V13H10v1h4Z"/><path class="na292-2" d="M19,15h1V14H19Z"/><path class="na292-2" d="M10,14H9v1h1Z"/><path class="na292-2" d="M15,15V14H14v1Z"/></svg>