<svg xmlns="http://www.w3.org/2000/svg" viewBox="0 0 29 33"><defs><style>polygon,rect,path{shape-rendering:crispedges;}.ib233-1{fill:#e55b35;}.ib233-2{fill:#000000;}.ib233-3{fill:#ce8452;}.ib233-4{fill:#ffffff;}.ib233-5{fill:#99582c;}.ib233-6{fill:#fad000;}.ib233-7{fill:#99582c;}.ib233-8{fill:#c8a715;}.ib233-9{fill:#4fdb7d;}</style></defs><path class="ib233-1" d="M6,32V27H7V26H8V25h2V20H9V16H8V15H9V10h1V9h1V8h7V9h1v1h1v5h1v1H20v4H19v5h2v1h1v1h1v6h6V0H0V33H6Z"/><path class="ib233-2" d="M23,27H22v6h1V27Z"/><path class="ib233-3" d="M22,27H21v6h1V27Z"/><rect class="ib233-2" x="21" y="26" width="1" height="1"/><path class="ib233-2" d="M21,27H20v6h1V27Z"/><path class="ib233-3" d="M14,29H13V27H12V26H11V25H10v1H8v1H9v6h5V29Zm-2,0H11V28h1Z"/><path class="ib233-3" d="M13,25h1V24h1v1h1V23H13v2Z"/><path class="ib233-3" d="M20,27h1V26H19V25H18v1H17v1H16v2H15v4h5V27Zm-2,2H17V28h1Z"/><path class="ib233-2" d="M20,26h1V25H19v1Z"/><rect class="ib233-2" x="17" y="28" width="1" height="1"/><path class="ib233-2" d="M15,29H14v4h1V29Z"/><rect class="ib233-2" x="11" y="28" width="1" height="1"/><path class="ib233-2" d="M10,25H8v1h2Z"/><path class="ib233-2" d="M9,27H8v6H9V27Z"/><path class="ib233-3" d="M8,27H7v6H8V27Z"/><rect class="ib233-2" x="7" y="26" width="1" height="1"/><path class="ib233-2" d="M7,27H6v6H7V27Z"/><rect class="ib233-2" x="20" y="15" width="1" height="1"/><path class="ib233-2" d="M19,15h1V14H19Z"/><polygon class="ib233-3" points="13 21 14 21 14 22 15 22 15 21 16 21 16 20 13 20 13 21"/><path class="ib233-3" d="M10,17v1h1v1h1V18h2v1h1V18h2v1h1V18h1V16h1V15H16V14h3V13H16V12h2V11H17V10H12v1H11v1h2v1H10v1h3v1H9v1h1Zm4-1h1v1H14Z"/><path class="ib233-2" d="M19,17h1V16H19Z"/><path class="ib233-2" d="M10,16H9v1h1Z"/><rect class="ib233-2" x="8" y="15" width="1" height="1"/><rect class="ib233-2" x="14" y="16" width="1" height="1"/><path class="ib233-4" d="M18,14v1h1V14Z"/><path class="ib233-4" d="M13,15V14H12v1Z"/><path class="ib233-2" d="M17,14H16v1h2V14Z"/><path class="ib233-2" d="M12,15V14H9v1h3Z"/><path class="ib233-5" d="M10,13h3V12H10Z"/><polygon class="ib233-5" points="18 12 16 12 16 13 19 13 19 12 18 12"/><rect class="ib233-2" x="12" y="26" width="1" height="1"/><path class="ib233-2" d="M15,28v1h1V27H15Z"/><rect class="ib233-2" x="16" y="26" width="1" height="1"/><path class="ib233-2" d="M13,27v2h1V27Z"/><rect class="ib233-2" x="17" y="25" width="1" height="1"/><rect class="ib233-2" x="11" y="25" width="1" height="1"/><rect class="ib233-2" x="14" y="24" width="1" height="1"/><rect class="ib233-2" x="13" y="25" width="1" height="1"/><rect class="ib233-2" x="15" y="25" width="1" height="1"/><rect class="ib233-6" x="16" y="25" width="1" height="1"/><path class="ib233-6" d="M15,26V25H14v1H13v1h1v2h1V27h1V26Z"/><rect class="ib233-6" x="12" y="25" width="1" height="1"/><path class="ib233-6" d="M12,24V23H11v2h1Z"/><path class="ib233-6" d="M18,23H17v2h1V23Z"/><path class="ib233-2" d="M18,25h1V24H18Z"/><path class="ib233-2" d="M11,24H10v1h1Z"/><rect class="ib233-2" x="17" y="22" width="1" height="1"/><rect class="ib233-2" x="11" y="22" width="1" height="1"/><path class="ib233-7" d="M12,22v1h5V22h2V20h1V17H19v1H18v1H16v2H15v1H14V21H13V19h1V18H12v1H11V18H10V17H9v3h1v2h2Z"/><path class="ib233-7" d="M15,18v1h1V18Z"/><path class="ib233-8" d="M18,23h1V22H18Z"/><path class="ib233-7" d="M18,24h1V23H18Z"/><path class="ib233-8" d="M17,24V23H16v1Z"/><path class="ib233-7" d="M16,25h1V24H16Z"/><path class="ib233-8" d="M13,24V23H12v1Z"/><path class="ib233-7" d="M12,24v1h1V24Z"/><path class="ib233-8" d="M11,22H10v1h1Z"/><path class="ib233-7" d="M11,23H10v1h1Z"/><path class="ib233-2" d="M14,19H13v1h3V19H14Z"/><path class="ib233-2" d="M16,18v1h1V18Z"/><path class="ib233-9" d="M10,13V12h1V11h1V10h5v1h1v1h1v2h1V10H19V9H18V8H11V9H10v1H9v4h1Z"/></svg>