<svg xmlns="http://www.w3.org/2000/svg" viewBox="0 0 29 33"><defs><style>polygon,rect,path{shape-rendering:crispedges;}.ta152-1{fill:#d4a122;}.ta152-2{fill:#000000;}.ta152-3{fill:#00686d;}.ta152-4{fill:#b2622b;}.ta152-5{fill:#f9e100;}.ta152-6{fill:#8e4717;}.ta152-7{fill:#ffffff;}.ta152-8{fill:#fad000;}.ta152-9{fill:#8e4717;}</style></defs><path class="ta152-1" d="M6,32V27H7V26H8V25h2V24h1V23H10V22H9V21H8V20H7V11H8V10H9V9h1V8h1V7h7V8h1V9h1v1h1v1h1v9H21v1H20v1H19v1H18v1h1v1h2v1h1v1h1v6h6V0H0V33H6Z"/><path class="ta152-2" d="M23,27H22v6h1V27Z"/><path class="ta152-3" d="M22,27H21v6h1V27Z"/><rect class="ta152-2" x="21" y="26" width="1" height="1"/><path class="ta152-2" d="M21,27H20v6h1V27Z"/><path class="ta152-3" d="M20,27h1V26H18v1H17v2h1v1h1v3h1V27Z"/><path class="ta152-3" d="M10,30h1V29h1V27H11V26H8v1H9v6h1V30Z"/><path class="ta152-4" d="M13,23v1h3V23H13Z"/><path class="ta152-2" d="M11,26V24H10v1H8v1h3Z"/><path class="ta152-2" d="M9,27H8v6H9V27Z"/><path class="ta152-3" d="M8,27H7v6H8V27Z"/><rect class="ta152-2" x="7" y="26" width="1" height="1"/><path class="ta152-2" d="M7,27H6v6H7V27Z"/><path class="ta152-3" d="M16,32H12v1h5V32Z"/><path class="ta152-3" d="M16,26V25H13v1h3Z"/><rect class="ta152-3" x="16" y="30" width="1" height="1"/><rect class="ta152-3" x="12" y="30" width="1" height="1"/><path class="ta152-5" d="M19,30H18V29H17v2H16V29H13v2H12V29H11v1H10v3h2V32h5v1h2V30Z"/><path class="ta152-4" d="M17,20V19H15v2h1V20Z"/><path class="ta152-4" d="M13,19H12v1h1v1h1V19Z"/><path class="ta152-4" d="M12,19V18h5v1h2V12H17V11H12v1H10v7h2Zm-1-5h1V13h1V12h3v1h1v1h1v1H16v1H15v1H14V16H13V15H11Z"/><path class="ta152-6" d="M18,15V14H17v1Z"/><rect class="ta152-6" x="16" y="13" width="1" height="1"/><rect class="ta152-2" x="14" y="14" width="1" height="1"/><path class="ta152-7" d="M13,15v1h3V15h1V14H16V13H13v1H12v1Zm1-1h1v1H14Z"/><path class="ta152-6" d="M16,13V12H13v1h3Z"/><rect class="ta152-6" x="12" y="13" width="1" height="1"/><rect class="ta152-6" x="11" y="14" width="1" height="1"/><path class="ta152-2" d="M14,17h1V16H14Z"/><path class="ta152-3" d="M13,22H12V21H11V20H10V19H9V12h1V11h2V10h5v1h2v1h1v7H19v1H18v1H17v1H16v1h2V22h1V21h1V20h1V11H20V10H19V9H18V8H11V9H10v1H9v1H8v9H9v1h1v1h1v1h2Z"/><rect class="ta152-2" x="10" y="8" width="1" height="1"/><rect class="ta152-2" x="9" y="9" width="1" height="1"/><rect class="ta152-2" x="8" y="10" width="1" height="1"/><path class="ta152-2" d="M8,11H7v9H8V11Z"/><rect class="ta152-2" x="8" y="20" width="1" height="1"/><rect class="ta152-2" x="9" y="21" width="1" height="1"/><rect class="ta152-2" x="10" y="22" width="1" height="1"/><rect class="ta152-2" x="18" y="22" width="1" height="1"/><rect class="ta152-2" x="19" y="21" width="1" height="1"/><rect class="ta152-2" x="20" y="20" width="1" height="1"/><path class="ta152-2" d="M21,20h1V11H21v9Z"/><rect class="ta152-2" x="20" y="10" width="1" height="1"/><rect class="ta152-2" x="19" y="9" width="1" height="1"/><rect class="ta152-2" x="18" y="8" width="1" height="1"/><path class="ta152-2" d="M18,8V7H11V8h7Z"/><path class="ta152-2" d="M12,11H10v1h2Z"/><path class="ta152-2" d="M10,12H9v7h1V12Z"/><path class="ta152-2" d="M10,19v1h1V19Z"/><rect class="ta152-2" x="11" y="20" width="1" height="1"/><rect class="ta152-2" x="12" y="21" width="1" height="1"/><path class="ta152-2" d="M15,22H13v1h3V22Z"/><rect class="ta152-2" x="16" y="21" width="1" height="1"/><rect class="ta152-2" x="17" y="20" width="1" height="1"/><path class="ta152-2" d="M18,20h1V19H18Z"/><path class="ta152-2" d="M19,19h1V12H19v7Z"/><path class="ta152-2" d="M18,12h1V11H17v1Z"/><path class="ta152-2" d="M17,11V10H12v1h5Z"/><path class="ta152-2" d="M18,26h3V25H19V24H18v2Z"/><rect class="ta152-2" x="17" y="26" width="1" height="1"/><path class="ta152-8" d="M17,25v1h1V25Z"/><path class="ta152-7" d="M17,25h1V24H17Z"/><path class="ta152-2" d="M16,28H13V27H12v3h1V29h3v1h1V27H16Z"/><rect class="ta152-7" x="16" y="26" width="1" height="1"/><path class="ta152-8" d="M15,28h1V27H15Z"/><path class="ta152-7" d="M14,27v1h1V27Z"/><path class="ta152-8" d="M13,27v1h1V27Z"/><path class="ta152-2" d="M14,27h2V26H13v1Z"/><rect class="ta152-7" x="12" y="26" width="1" height="1"/><path class="ta152-2" d="M12,25v1h1V25h3v1h1V24h1V23H16v1H13V23H11v1h1Z"/><rect class="ta152-2" x="11" y="26" width="1" height="1"/><path class="ta152-8" d="M12,25H11v1h1Z"/><path class="ta152-7" d="M12,25V24H11v1Z"/><path class="ta152-9" d="M17,19v1h1V19Z"/><rect class="ta152-9" x="16" y="20" width="1" height="1"/><path class="ta152-9" d="M16,22V21H15V20H14v1H13v1h3Z"/><path class="ta152-9" d="M14,19h3V18H12v1h2Z"/><rect class="ta152-9" x="12" y="20" width="1" height="1"/><path class="ta152-9" d="M12,19H11v1h1Z"/><path class="ta152-2" d="M14,19v1h1V19Z"/></svg>