<svg xmlns="http://www.w3.org/2000/svg" viewBox="0 0 29 33"><defs><style>polygon,rect,path{shape-rendering:crispedges;}.oa12-1{fill:#29834f;}.oa12-2{fill:#000000;}.oa12-3{fill:#ffffff;}.oa12-4{fill:#a7af69;}.oa12-5{fill:#e8b795;}.oa12-6{fill:#492a23;}.oa12-7{fill:#6e12ff;}.oa12-8{fill:#fad000;}.oa12-9{fill:#455054;}.oa12-10{fill:#002b4f;}.oa12-11{fill:#ff1f4a;}.oa12-12{fill:#ffffff;}</style></defs><path class="oa12-1" d="M9,24H8v1h2V24Z"/><path class="oa12-1" d="M8,32H6V31H5V22H6V21H7V20H5v1H2V17H5V16H8V14H9V10h1V9h1V8h7V9h1v1h1v4h1v2H20v6H19v3h2v1h1v1h1v6h6V0H0V33H8Z"/><path class="oa12-1" d="M8,18v4H9V16H8v2Z"/><path class="oa12-2" d="M6,24V22H5v9H6V24Z"/><path class="oa12-2" d="M23,27H22v6h1V27Z"/><path class="oa12-3" d="M22,27H21v6h1V27Z"/><rect class="oa12-2" x="21" y="26" width="1" height="1"/><path class="oa12-2" d="M21,27H20v6h1V27Z"/><path class="oa12-3" d="M20,27h1V26H19V25H18v8h2V27Z"/><path class="oa12-2" d="M20,26h1V25H19v1Z"/><rect class="oa12-2" x="16" y="25" width="1" height="1"/><path class="oa12-2" d="M18,26H17v7h1V26Z"/><path class="oa12-4" d="M17,26H16v1H13V26H12v7h5V26Z"/><path class="oa12-2" d="M13,26v1h3V26H13Z"/><path class="oa12-5" d="M17,25V24H16V23H13v1H12v1h1v1h3V25Z"/><path class="oa12-2" d="M12,26h1V25H11v8h1V26Z"/><path class="oa12-3" d="M11,27H10V26H8v1H9v6h2V27Z"/><path class="oa12-2" d="M9,27H8V26h2V25H8V24H7v7H6v1H8v1H9V27Z"/><path class="oa12-3" d="M7,30V24H6v7H7Z"/><path class="oa12-2" d="M20,16h1V15H20Z"/><path class="oa12-5" d="M12,13h1v1h3V12h1V11H15V10H12v1H11v1h1Z"/><rect class="oa12-5" x="14" y="15" width="1" height="1"/><path class="oa12-5" d="M16,17V16H15v1H14V16H13v1H10v2h1v1h1v1h1v1h3V21h1V20h1V19h1V17H16Zm1,2H16v1H13V19h3V18h1Z"/><path class="oa12-2" d="M19,17v2h1V16H19Z"/><rect class="oa12-2" x="18" y="19" width="1" height="1"/><rect class="oa12-2" x="17" y="20" width="1" height="1"/><path class="oa12-2" d="M16,22H13V21H12v3h1V23h3v1h1V21H16Z"/><rect class="oa12-2" x="11" y="20" width="1" height="1"/><rect class="oa12-2" x="10" y="19" width="1" height="1"/><path class="oa12-2" d="M10,18V16H9v3h1Z"/><path class="oa12-2" d="M9,15H8v1H9Z"/><rect class="oa12-2" x="14" y="16" width="1" height="1"/><path class="oa12-6" d="M16,13h2V12H16Z"/><rect class="oa12-6" x="11" y="12" width="1" height="1"/><rect class="oa12-2" x="13" y="19" width="3" height="1"/><rect class="oa12-2" x="16" y="18" width="1" height="1"/><path class="oa12-7" d="M12,23V21H11V20H10V19H9v5h1v3h1V25h1V23Z"/><path class="oa12-7" d="M10,13h1V11h1V10h3v1h2v1h1v1h1v1h1V10H19V9H18V8H11V9H10v1H9v4h1Z"/><path class="oa12-7" d="M19,20H18v1H17v5h1V25h1V22h1V19H19Z"/><path class="oa12-8" d="M19,15v1h1V15h1V14H19Z"/><path class="oa12-8" d="M16,14h3V13H16Z"/><path class="oa12-2" d="M16,14v2h3V14H16Z"/><path class="oa12-8" d="M16,16v1h3V16H16Z"/><path class="oa12-8" d="M14,15h1v1h1V14H13v2h1Z"/><path class="oa12-8" d="M13,14V13H10v1h3Z"/><path class="oa12-2" d="M13,16V14H10v2h3Z"/><path class="oa12-8" d="M11,17h2V16H10v1Z"/><path class="oa12-8" d="M9,16h1V14H8v1H9Z"/><path class="oa12-5" d="M7,24H8V22H6v2Z"/><path class="oa12-9" d="M8,22V20H7v2Z"/><path class="oa12-2" d="M7,21H6v1H7Z"/><path class="oa12-2" d="M9,22H8v2H9Z"/><path class="oa12-10" d="M4,21H5V20H4Z"/><path class="oa12-10" d="M5,18V17H4v1Z"/><path class="oa12-10" d="M3,19V18H2v2H3Z"/><path class="oa12-10" d="M5,19v1H6V19Z"/><path class="oa12-10" d="M6,16H5v1H6Z"/><path class="oa12-10" d="M8,17H7v2H8V17Z"/><path class="oa12-11" d="M3,17H2v1H3Z"/><path class="oa12-11" d="M6,17v1H3v2H4V19H7V17Z"/><path class="oa12-11" d="M8,17V16H7v1Z"/><path class="oa12-11" d="M8,19H7v1H8Z"/><path class="oa12-11" d="M2,20v1H3V20Z"/><path class="oa12-12" d="M3,20v1H4V20Z"/><path class="oa12-12" d="M4,19v1H5V19Z"/><path class="oa12-12" d="M4,18V17H3v1Z"/><path class="oa12-12" d="M7,17V16H6v1Z"/><path class="oa12-12" d="M6,18V17H5v1Z"/><path class="oa12-12" d="M6,19v1H7V19Z"/></svg>