<svg xmlns="http://www.w3.org/2000/svg" viewBox="0 0 29 33"><defs><style>polygon,rect,path{shape-rendering:crispedges;}.bb38-1{fill:#d4a122;}.bb38-2{fill:#000000;}.bb38-3{fill:#844f4f;}.bb38-4{fill:#ffffff;}.bb38-5{fill:#b2622b;}.bb38-6{fill:#6c9302;}.bb38-7{fill:#6c9302;}.bb38-8{fill:#72dd40;}.bb38-9{fill:#f62;}.bb38-10{fill:#f9db00;}.bb38-11{fill:#1261ff;}.bb38-12{fill:#00c650;}.bb38-13{fill:#e20026;}</style></defs><path class="bb38-1" d="M0,33H6V26H5V25H6V22H9v3h1V24h1V23h1V22H11V21H10V20H9V16H8V15H9V11h1V9h1V7h1V6H11V5h2V6h2V7h1V9h2v1h2v5h1v1H20v4H19v1H18v1H17v1h1v1h1v1h2v1h1v1h1v6h6V0H0Z"/><path class="bb38-2" d="M23,27H22v6h1V27Z"/><rect class="bb38-2" x="21" y="26" width="1" height="1"/><path class="bb38-3" d="M22,27H21v6h1V27Z"/><path class="bb38-2" d="M21,27H20v6h1V27Z"/><path class="bb38-2" d="M20,26h1V25H19v1Z"/><path class="bb38-3" d="M20,27h1V26H19V25H18v4H17v4h3V27Z"/><path class="bb38-2" d="M16,24h1v1H16v1h1v3h1V25h1V24H18V23H16Z"/><rect class="bb38-4" x="16" y="24" width="1" height="1"/><path class="bb38-2" d="M17,29H16v4h1V29Z"/><rect class="bb38-4" x="15" y="23" width="1" height="1"/><path class="bb38-4" d="M16,29h1V26H16V25H13v1H12v3h1v4h1V32h1v1h1V29Zm-1,2H14V30h1Zm0-2H14V28h1Zm0-2H14V26h1Z"/><rect class="bb38-2" x="14" y="26" width="1" height="1"/><rect class="bb38-2" x="14" y="28" width="1" height="1"/><rect class="bb38-2" x="14" y="30" width="1" height="1"/><rect class="bb38-2" x="14" y="32" width="1" height="1"/><rect class="bb38-4" x="13" y="23" width="1" height="1"/><path class="bb38-2" d="M15,24V23H14v1H13v1h3V24Z"/><rect class="bb38-4" x="12" y="24" width="1" height="1"/><path class="bb38-2" d="M13,29H12v4h1V29Z"/><path class="bb38-2" d="M11,26v3h1V26h1V25H12V24h1V23H11v1H10v1h1Z"/><path class="bb38-3" d="M12,29H11V25H10v1H9v7h3V29Z"/><path class="bb38-2" d="M9,26H8v7H9V26Z"/><path class="bb38-5" d="M7,27H8V26H9V25H6v1H7Z"/><path class="bb38-4" d="M7,28H8V27H7Z"/><path class="bb38-3" d="M8,28H7v5H8V28Z"/><path class="bb38-2" d="M7,28V26H6v7H7V28Z"/><rect class="bb38-2" x="20" y="15" width="1" height="1"/><path class="bb38-5" d="M10,13v1h2V13Z"/><polygon class="bb38-5" points="17 14 18 14 18 13 16 13 16 14 17 14"/><rect class="bb38-5" x="10" y="16" width="1" height="1"/><path class="bb38-5" d="M12,12v1h1v1h1V13h2V12h2V10H16v1H14V10H11v1H10v1Z"/><rect class="bb38-5" x="18" y="12" width="1" height="1"/><path class="bb38-5" d="M18,15H16V14H14v2h1v1H14V16H13v1H11v1h1v1h1V18h5V17h1V16h1V15H18Z"/><rect class="bb38-5" x="9" y="15" width="1" height="1"/><path class="bb38-2" d="M17,10h1V9H16v1Z"/><path class="bb38-2" d="M12,10h1V9H11v1Z"/><path class="bb38-2" d="M11,10H10v1h1Z"/><rect class="bb38-2" x="8" y="15" width="1" height="1"/><rect class="bb38-2" x="14" y="16" width="1" height="1"/><path class="bb38-4" d="M18,15h1V14H18Z"/><path class="bb38-2" d="M17,14H16v1h2V14Z"/><rect class="bb38-6" x="18" y="13" width="1" height="1"/><rect class="bb38-6" x="12" y="13" width="1" height="1"/><rect class="bb38-6" x="10" y="12" width="2" height="1"/><path class="bb38-7" d="M15,18H13v1h3V18Z"/><path class="bb38-7" d="M14,23h3V22h1V21h1V20h1V16H19v1H18v1H17v1H16v1H13V19H12V18H11V17H10V16H9v4h1v1h1v1h1v1h2Z"/><rect class="bb38-2" x="13" y="19" width="3" height="1"/><path class="bb38-2" d="M16,19h1V18H16Z"/><path class="bb38-8" d="M13,10h1v1h2V7H15V6H13V5H11V6h1V7H11V9h2Z"/><path class="bb38-8" d="M11,9H10v1h1Z"/><path class="bb38-2" d="M10,16h1v1h2V16h1V14H10V11H9v4h1Z"/><rect class="bb38-2" x="14" y="13" width="2" height="1"/><rect class="bb38-2" x="16" y="12" width="2" height="1"/><path class="bb38-2" d="M19,12v3h1V10H18v2Z"/><path class="bb38-9" d="M7,22H6v1H7Z"/><path class="bb38-4" d="M8,23V22H7v1Z"/><path class="bb38-10" d="M8,24H9V23H8Z"/><path class="bb38-11" d="M7,24H6v1H7Z"/><path class="bb38-9" d="M8,25H9V24H8Z"/><rect class="bb38-12" x="7" y="23" width="1" height="1"/><path class="bb38-10" d="M7,24v1H8V24Z"/><path class="bb38-13" d="M7,23H6v1H7Z"/><path class="bb38-13" d="M9,23V22H8v1Z"/><rect class="bb38-2" x="5" y="25" width="1" height="1"/><rect class="bb38-2" x="9" y="25" width="1" height="1"/><rect class="bb38-8" x="10" y="9" width="1" height="1"></rect></svg>