<svg xmlns="http://www.w3.org/2000/svg" viewBox="0 0 29 33"><defs><style>polygon,rect,path{shape-rendering:crispedges;}.za44-1{fill:#6b4f99;}.za44-2{fill:#000000;}.za44-3{fill:#508e5d;}.za44-4{fill:#ce8452;}.za44-5{fill:#317f03;}.za44-6{fill:#ffffff;}.za44-7{fill:#473a35;}.za44-8{fill:#004a77;}</style></defs><path class="za44-1" d="M0,33H6V27H7V26H8V25h2V24h1V23h1V21H11V20H10V19H9V16H8V15H9V13H8V9H9V8h1V7h1V6h7V7h1V8h1V9h1v4H20v2h1v1H20v3H19v1H18v1H17v2h1v1h1v1h2v1h1v1h1v6h6V0H0Z"/><path class="za44-2" d="M23,27H22v6h1V27Z"/><path class="za44-3" d="M21,30v1h1V29H21Z"/><path class="za44-3" d="M21,32v1h1V32Z"/><path class="za44-3" d="M21,28h1V27H21Z"/><rect class="za44-2" x="21" y="26" width="1" height="1"/><path class="za44-2" d="M21,31V27H20v6h1V31Z"/><path class="za44-3" d="M17,32V31h1V30h1v1h1V29H19V28h1V27h1V26H19v1H18V26H15v1H14V26H11v1H10V26H8v1H9v1h1v1H9v2h1V30h1v1h1v1H11v1h3V32H13V31h1V30h1v1h1v1H15v1h3V32Zm-2-3H13v1H12V29H11V28h1V27h1v1h3V27h1v1h1v1H17v1H16V29Z"/><path class="za44-3" d="M19,32v1h1V32Z"/><rect class="za44-3" x="9" y="32" width="1" height="1"/><path class="za44-2" d="M20,26h1V25H19v1Z"/><rect class="za44-3" x="16" y="24" width="1" height="1"/><rect class="za44-2" x="15" y="24" width="1" height="1"/><rect class="za44-2" x="14" y="32" width="1" height="1"/><rect class="za44-2" x="14" y="30" width="1" height="1"/><path class="za44-2" d="M14,28v1h1V28Z"/><path class="za44-2" d="M14,25v2h1V25Z"/><rect class="za44-2" x="13" y="24" width="1" height="1"/><path class="za44-4" d="M14,25h1V24h1V23H13v1h1Z"/><rect class="za44-3" x="12" y="24" width="1" height="1"/><path class="za44-2" d="M11,26h2V25H12V24h1V23h3v1h1v1H16v1h2V25h1V24H18V23H17V21H16v1H13V21H12v2H11v1H10v1h1Z"/><path class="za44-2" d="M10,25H8v1h2Z"/><path class="za44-2" d="M9,31V27H8v6H9V31Z"/><path class="za44-3" d="M7,30v1H8V29H7Z"/><path class="za44-3" d="M7,32v1H8V32Z"/><path class="za44-3" d="M8,28V27H7v1Z"/><rect class="za44-2" x="7" y="26" width="1" height="1"/><path class="za44-2" d="M7,31V27H6v6H7V31Z"/><path class="za44-5" d="M12,32V31H11V30H10v1H9v1h1v1h1V32Z"/><path class="za44-5" d="M13,28V27H12v1H11v1h1v1h1V29h1V28Z"/><polygon class="za44-5" points="10 27 11 27 11 26 11 25 10 25 10 26 10 27"/><path class="za44-5" d="M15,25v1h1V25Z"/><path class="za44-5" d="M13,25v1h1V25Z"/><path class="za44-5" d="M17,30V29h1V28H17V27H16v1H15v1h1v1Z"/><polygon class="za44-5" points="18 26 18 27 19 27 19 26 19 25 18 25 18 26"/><path class="za44-5" d="M7,29H8V28H7Z"/><path class="za44-5" d="M10,29V28H9v1Z"/><path class="za44-5" d="M21,29h1V28H21Z"/><path class="za44-5" d="M19,29h1V28H19Z"/><path class="za44-5" d="M21,32h1V31H21Z"/><path class="za44-5" d="M7,32H8V31H7Z"/><polygon class="za44-5" points="16 32 16 31 15 31 14 31 13 31 13 32 14 32 15 32 16 32"/><path class="za44-5" d="M20,32V31H19V30H18v1H17v1h1v1h1V32Z"/><rect class="za44-2" x="20" y="15" width="1" height="1"/><path class="za44-2" d="M19,15h1V14H19Z"/><rect class="za44-4" x="10" y="12" width="1" height="1"/><path class="za44-4" d="M13,22h3V21h1V20h1V19h1V16h1V15H16V13h1V12h1V11H11v1h2v1H11v1h2v1H9v1h1v3h1v1h1v1h1Zm1-6h1v1H14Zm-2,3V18h1v1h3v1H13V19Z"/><polygon class="za44-4" points="18 14 19 14 19 13 17 13 17 14 18 14"/><path class="za44-2" d="M19,17v2h1V16H19Z"/><rect class="za44-2" x="18" y="19" width="1" height="1"/><rect class="za44-2" x="17" y="20" width="1" height="1"/><rect class="za44-2" x="11" y="20" width="1" height="1"/><rect class="za44-2" x="10" y="19" width="1" height="1"/><path class="za44-2" d="M10,14H9v1h1Z"/><path class="za44-2" d="M10,16H9v3h1V16Z"/><rect class="za44-2" x="8" y="15" width="1" height="1"/><rect class="za44-2" x="14" y="16" width="1" height="1"/><path class="za44-6" d="M13,15V14H12v1Z"/><path class="za44-6" d="M10,15h1V14H10Z"/><path class="za44-6" d="M18,14v1h1V14Z"/><path class="za44-6" d="M16,14v1h1V14Z"/><path class="za44-2" d="M12,15V14H11v1Z"/><path class="za44-2" d="M17,14v1h1V14Z"/><rect class="za44-7" x="10" y="13" width="1" height="1"/><rect class="za44-7" x="11" y="12" width="2" height="1"/><path class="za44-7" d="M17,13H16v1h1Z"/><path class="za44-7" d="M19,12H17v1h2Z"/><rect class="za44-2" x="13" y="19" width="3" height="1"/><rect class="za44-2" x="12" y="18" width="1" height="1"/><path class="za44-8" d="M10,13V12h1V11h7v1h1v2h1V13h1V9H20V8H19V7H18V6H11V7H10V8H9V9H8v4H9v1h1Z"/></svg>