<svg xmlns="http://www.w3.org/2000/svg" viewBox="0 0 29 33"><defs><style>polygon,rect,path{shape-rendering:crispedges;}.ma50-1{fill:#6b4f99;}.ma50-2{fill:#000000;}.ma50-3{fill:#db5800;}.ma50-4{fill:#cc2f76;}.ma50-5{fill:#c18d59;}.ma50-6{fill:#ffb3c0;}.ma50-7{fill:#99004d;}.ma50-8{fill:#99004d;}.ma50-9{fill:#00774c;}.ma50-10{fill:#ffffff;}.ma50-11{fill:#0068ff;}.ma50-12{fill:#ff1f4a;}</style></defs><path class="ma50-1" d="M6,32V27H7V26H8V25h2V24h2V21H9V20H8V19H9V16H8V14H9V12H8v1H7V12H8V11H9V10h1V9h2V8h5V9h2v1h1v1h1v1h1v1H21V12H20v2h1v2H20v3h1v1H20v1H17v3h2v1h2v1h1v1h1v6h6V0H0V33H6Z"/><path class="ma50-2" d="M23,27H22v6h1V27Z"/><rect class="ma50-2" x="21" y="26" width="1" height="1"/><path class="ma50-3" d="M21,32v1h1V32Z"/><path class="ma50-3" d="M21,30v1h1V29H21Z"/><path class="ma50-3" d="M21,28h1V27H21Z"/><path class="ma50-2" d="M21,31V27H20v6h1V31Z"/><path class="ma50-3" d="M19,26v1H18v3h1v1h1V29H19V28h1V27h1V26H19Z"/><path class="ma50-3" d="M19,32v1h1V32Z"/><path class="ma50-2" d="M20,26h1V25H19v1Z"/><path class="ma50-2" d="M18,30V25h1V24H17v1H16v1h1v7h1V30Z"/><path class="ma50-4" d="M17,26H16v1H13V26H12v7h5V26Z"/><path class="ma50-2" d="M13,26v1h3V26H13Z"/><path class="ma50-2" d="M13,23h3v1h1V21H16v1H13V21H12v3h1Z"/><path class="ma50-5" d="M13,25v1h3V25h1V24H16V23H13v1H12v1Z"/><path class="ma50-2" d="M12,26h1V25H12V24H10v1h1v8h1V26Z"/><path class="ma50-3" d="M9,27v1h1v1H9v2h1V30h1V27H10V26H8v1Z"/><rect class="ma50-3" x="9" y="32" width="1" height="1"/><path class="ma50-2" d="M10,25H8v1h2Z"/><path class="ma50-2" d="M9,31V27H8v6H9V31Z"/><rect class="ma50-2" x="7" y="26" width="1" height="1"/><path class="ma50-3" d="M7,32v1H8V32Z"/><path class="ma50-3" d="M7,30v1H8V29H7Z"/><path class="ma50-3" d="M8,28V27H7v1Z"/><path class="ma50-2" d="M7,31V27H6v6H7V31Z"/><path class="ma50-6" d="M11,30H10v1H9v1h1v1h1V30Z"/><path class="ma50-6" d="M10,27h1V25H10v2Z"/><path class="ma50-6" d="M18,26v1h1V25H18Z"/><path class="ma50-6" d="M7,29H8V28H7Z"/><path class="ma50-6" d="M10,28H9v1h1Z"/><path class="ma50-6" d="M21,29h1V28H21Z"/><path class="ma50-6" d="M19,29h1V28H19Z"/><path class="ma50-6" d="M21,32h1V31H21Z"/><path class="ma50-6" d="M7,32H8V31H7Z"/><path class="ma50-6" d="M20,32V31H19V30H18v3h1V32Z"/><path class="ma50-2" d="M20,16h1V15H20Z"/><rect class="ma50-5" x="14" y="15" width="1" height="1"/><path class="ma50-5" d="M13,22h3V21h1V19h1V18h1V16H15v1H14V16H10v2h1v1h1V18h1v1h3v1H13V19H12v2h1Z"/><path class="ma50-5" d="M16,12H15V11H14v1H13v1h1v1h1V13h2V12Z"/><path class="ma50-2" d="M17,20v1h1V20Z"/><path class="ma50-2" d="M11,20v1h1V20Z"/><path class="ma50-2" d="M8,15v1H9V15Z"/><rect class="ma50-2" x="14" y="16" width="1" height="1"/><rect class="ma50-7" x="12" y="12" width="1" height="1"/><path class="ma50-8" d="M19,17v1H18v1H17v1h1v1h2V20h1V19H20V16H19Z"/><path class="ma50-8" d="M12,20V19H11V18H10V16H9v3H8v1H9v1h2V20Z"/><rect class="ma50-2" x="13" y="19" width="3" height="1"/><rect class="ma50-2" x="12" y="18" width="1" height="1"/><rect class="ma50-9" x="21" y="12" width="1" height="1"/><path class="ma50-9" d="M12,13V12h2V11h1v1h2v1h3V12h1V11H20V10H19V9H17V8H12V9H10v1H9v1H8v1H9v1h3Z"/><path class="ma50-9" d="M21,15V14H20v1Z"/><path class="ma50-9" d="M9,14H8v1H9Z"/><rect class="ma50-9" x="7" y="12" width="1" height="1"/><path class="ma50-10" d="M11,16h3V15h1v1h5V13H15v1H14V13H9v3h2Zm5-2h3v1H16Zm-6,0h3v1H10Z"/><path class="ma50-11" d="M19,15V14H16v1h3Z"/><path class="ma50-12" d="M13,15V14H10v1h3Z"/></svg>