<svg xmlns="http://www.w3.org/2000/svg" viewBox="0 0 29 33"><defs><style>polygon,rect,path{shape-rendering:crispedges;}.aa113-1{fill:#6b4f99;}.aa113-2{fill:#000000;}.aa113-3{fill:#ce8452;}.aa113-4{fill:#99ce09;}.aa113-5{fill:#ffffff;}.aa113-6{fill:#473a35;}.aa113-7{fill:#b23b00;}.aa113-8{fill:#00e2b7;}</style></defs><path class="aa113-1" d="M0,33H6V27H7V26H8V25h2V24h2V22H11V21H10V20H9V16H8V15H9V11h1V9h1V7h1V6H11V5h2V6h2V7h1V9h2v1h1v1h1v4h1v1H20v4H19v1H18v1H17v2h2v1h2v1h1v1h1v6h6V0H0Z"/><path class="aa113-2" d="M23,27H22v6h1V27Z"/><rect class="aa113-2" x="21" y="26" width="1" height="1"/><path class="aa113-3" d="M22,27H21v6h1V27Z"/><rect class="aa113-3" x="20" y="26" width="1" height="1"/><path class="aa113-2" d="M21,27H20v6h1V27Z"/><path class="aa113-2" d="M20,26h1V25H19v1Z"/><path class="aa113-4" d="M20,27V26H19V25H18v1H17v1H16v1H13V27H12V26H11V25H10v1H9v7H20V27Z"/><path class="aa113-2" d="M18,26V25h1V24H17v2Z"/><path class="aa113-2" d="M16,24h1V23H16Z"/><rect class="aa113-2" x="16" y="26" width="1" height="1"/><path class="aa113-2" d="M13,27v1h3V27H13Z"/><path class="aa113-2" d="M13,23H12v1h1Z"/><path class="aa113-3" d="M13,26v1h3V26h1V24H16V23H13v1H12v2Z"/><rect class="aa113-2" x="12" y="26" width="1" height="1"/><path class="aa113-2" d="M11,26h1V24H10v1h1Z"/><path class="aa113-2" d="M10,26V25H8v1h2Z"/><path class="aa113-3" d="M9,27V26H8v1Z"/><path class="aa113-2" d="M9,27H8v6H9V27Z"/><rect class="aa113-2" x="7" y="26" width="1" height="1"/><path class="aa113-3" d="M8,27H7v6H8V27Z"/><path class="aa113-2" d="M7,27H6v6H7V27Z"/><rect class="aa113-2" x="20" y="15" width="1" height="1"/><path class="aa113-2" d="M19,14v1h1V11H19v3Z"/><path class="aa113-3" d="M10,17h1v1h1v1h1V18h5V17h1V16h1V15H16V13h3V11H18V10H16v1H14V10H11v1H10v2h3v2H9v1h1Zm4-1h1v1H14Z"/><rect class="aa113-2" x="18" y="10" width="1" height="1"/><path class="aa113-2" d="M12,10h1V9H11v1Z"/><path class="aa113-2" d="M17,10h1V9H16v1Z"/><path class="aa113-2" d="M11,10H10v1h1Z"/><path class="aa113-2" d="M10,14V11H9v4h1Z"/><rect class="aa113-2" x="8" y="15" width="1" height="1"/><rect class="aa113-2" x="14" y="16" width="1" height="1"/><path class="aa113-5" d="M12,15h1V14H12Z"/><path class="aa113-5" d="M10,14v1h1V14Z"/><path class="aa113-5" d="M18,14v1h1V14Z"/><path class="aa113-5" d="M16,14v1h1V14Z"/><path class="aa113-2" d="M11,14v1h1V14Z"/><path class="aa113-2" d="M17,14v1h1V14Z"/><path class="aa113-6" d="M11,14h2V13H10v1Z"/><path class="aa113-6" d="M18,14h1V13H16v1h2Z"/><path class="aa113-7" d="M15,18H13v1h3V18Z"/><path class="aa113-7" d="M14,23h3V22h1V21h1V20h1V16H19v1H18v1H17v1H16v1H13V19H12V18H11V17H10V16H9v4h1v1h1v1h1v1h2Z"/><rect class="aa113-2" x="13" y="19" width="3" height="1"/><path class="aa113-2" d="M16,19h1V18H16Z"/><path class="aa113-8" d="M13,10h1v1h2V7H15V6H13V5H11V6h1V7H11V9h2Z"/><path class="aa113-8" d="M11,9H10v1h1Z"/><rect class="aa113-8" x="10" y="9" width="1" height="1"></rect></svg>