<svg xmlns="http://www.w3.org/2000/svg" viewBox="0 0 29 33"><defs><style>polygon,rect,path{shape-rendering:crispedges;}.bb43-1{fill:#db5a8e;}.bb43-2{fill:#000000;}.bb43-3{fill:#6f7032;}.bb43-4{fill:#ffffff;}.bb43-5{fill:#b2622b;}.bb43-6{fill:#00686d;}.bb43-7{fill:#317f03;}.bb43-8{fill:#cbed03;}.bb43-9{fill:#00e070;}</style></defs><path class="bb43-1" d="M6,32V27H7V26H8V25h2V24h1V23h1V21H11V20H10V19H9V16H8V14H9V11h1V10h1V9h7v1h1v1h1v3h1v2H20v3H19v1H18v1H17v2h1v1h1v1h2v1h1v1h1v6h6V0H0V33H6Z"/><path class="bb43-2" d="M23,27H22v6h1V27Z"/><path class="bb43-3" d="M22,27H21v6h1V27Z"/><rect class="bb43-2" x="21" y="26" width="1" height="1"/><path class="bb43-2" d="M21,27H20v6h1V27Z"/><path class="bb43-3" d="M20,27h1V26H19V25H18v4H17v4h3V27Z"/><path class="bb43-2" d="M20,26h1V25H19v1Z"/><path class="bb43-2" d="M17,29H16v4h1V29Z"/><rect class="bb43-4" x="16" y="24" width="1" height="1"/><path class="bb43-4" d="M16,29h1V26H16V25H13v1H12v3h1v4h1V32h1v1h1V29Zm-1,2H14V30h1Zm0-2H14V28h1Zm0-2H14V26h1Z"/><rect class="bb43-4" x="15" y="23" width="1" height="1"/><rect class="bb43-2" x="14" y="32" width="1" height="1"/><rect class="bb43-2" x="14" y="30" width="1" height="1"/><rect class="bb43-2" x="14" y="28" width="1" height="1"/><rect class="bb43-2" x="14" y="26" width="1" height="1"/><rect class="bb43-4" x="13" y="23" width="1" height="1"/><path class="bb43-2" d="M13,29H12v4h1V29Z"/><rect class="bb43-4" x="12" y="24" width="1" height="1"/><path class="bb43-3" d="M12,29H11V25H10v1H8v1H9v6h3V29Z"/><path class="bb43-2" d="M11,26v3h1V26h1V25H12V24h1V23h1v1H13v1h3V24H15V23h1v1h1v1H16v1h1v3h1V25h1V24H18V23H17V21H16v1H13V21H12v2H11v1H10v1h1Z"/><path class="bb43-2" d="M10,25H8v1h2Z"/><path class="bb43-2" d="M9,27H8v6H9V27Z"/><path class="bb43-3" d="M8,27H7v6H8V27Z"/><rect class="bb43-2" x="7" y="26" width="1" height="1"/><path class="bb43-2" d="M7,27H6v6H7V27Z"/><path class="bb43-2" d="M20,16h1V15H20Z"/><path class="bb43-5" d="M12,19V18h5v2h1V19h1V17H16V16H15v1H14V16H13v1H10v2h1v1h1Z"/><path class="bb43-5" d="M13,20v2h3V20Z"/><path class="bb43-2" d="M19,17v2h1V16H19Z"/><rect class="bb43-2" x="18" y="19" width="1" height="1"/><rect class="bb43-2" x="17" y="20" width="1" height="1"/><rect class="bb43-2" x="11" y="20" width="1" height="1"/><rect class="bb43-2" x="10" y="19" width="1" height="1"/><path class="bb43-2" d="M10,16H9v3h1V16Z"/><path class="bb43-2" d="M8,15v1H9V15Z"/><rect class="bb43-2" x="14" y="16" width="1" height="1"/><path class="bb43-6" d="M17,19V18H13v1h3v2h1V19Z"/><path class="bb43-6" d="M13,20V19H12v2h1Z"/><path class="bb43-2" d="M16,19H13v1h3Z"/><path class="bb43-2" d="M12,18v1h1V18Z"/><rect class="bb43-7" x="14" y="15" width="1" height="1"/><path class="bb43-7" d="M10,13h3v1h3V13h3v1h1V11H19V10H18V9H11v1H10v1H9v3h1Z"/><path class="bb43-8" d="M19,15v1h1V15h1V14H19Z"/><path class="bb43-8" d="M19,14V13H16v1h3Z"/><path class="bb43-9" d="M19,16V14H16v2h3Z"/><path class="bb43-8" d="M18,16H16v1h3V16Z"/><path class="bb43-8" d="M13,14v2h1V15h1v1h1V14Z"/><path class="bb43-8" d="M13,14V13H10v1h3Z"/><path class="bb43-9" d="M12,14H10v2h3V14Z"/><path class="bb43-8" d="M10,16v1h3V16H10Z"/><path class="bb43-8" d="M10,15V14H8v1H9v1h1Z"/></svg>