<svg xmlns="http://www.w3.org/2000/svg" viewBox="0 0 29 33"><defs><style>polygon,rect,path{shape-rendering:crispedges;}.ha204-1{fill:#db5a8e;}.ha204-2{fill:#000000;}.ha204-3{fill:#ff791f;}.ha204-4{fill:#e8b795;}.ha204-5{fill:#ff791f;}.ha204-6{fill:#893a1f;}.ha204-7{fill:#893a1f;}.ha204-8{fill:#5a2de2;}.ha204-9{fill:#db5800;}</style></defs><path class="ha204-1" d="M0,33H6V27H7V26H8V25h2V24h2V21H9V20H8V19H9V16H8V15H9V13H8V9H9V8h1V7h1V6h7V7h1V8h1V9h1v4H20v2h1v1H20v3h1v1H20v1H17v3h2v1h2v1h1v1h1v6h6V0H0Z"/><path class="ha204-2" d="M23,27H22v6h1V27Z"/><rect class="ha204-2" x="21" y="26" width="1" height="1"/><path class="ha204-3" d="M22,27H21v6h1V27Z"/><path class="ha204-2" d="M21,27H20v6h1V27Z"/><path class="ha204-2" d="M20,26h1V25H19v1Z"/><rect class="ha204-3" x="13" y="29" width="1" height="2"/><path class="ha204-3" d="M20,27h1V26H19V25H17v1H16v1H13V26H12V25H10v1H9v7H20V27Zm-9,2v3H10V28h1Zm4,3H12V28h3Zm4-3H17v2h1V30h1v2H16V28h3Z"/><path class="ha204-2" d="M18,25h1V24H17v1Z"/><rect class="ha204-2" x="16" y="25" width="1" height="1"/><path class="ha204-2" d="M13,26v1h3V26H13Z"/><path class="ha204-2" d="M13,23h3v1h1V21H16v1H13V21H12v3h1Z"/><path class="ha204-4" d="M13,25v1h3V25h1V24H16V23H13v1H12v1Z"/><rect class="ha204-2" x="12" y="25" width="1" height="1"/><path class="ha204-2" d="M12,24H10v1h2Z"/><path class="ha204-2" d="M9,26h1V25H8v1H7v1H8v6H9V26Z"/><path class="ha204-3" d="M8,27H7v6H8V27Z"/><path class="ha204-2" d="M7,27H6v6H7V27Z"/><path class="ha204-5" d="M12,32h3V28H12Zm1-3h1v2H13Z"/><path class="ha204-5" d="M10,29v3h1V28H10Z"/><path class="ha204-5" d="M16,28v4h3V30H18v1H17V29h2V28H16Z"/><rect class="ha204-2" x="20" y="15" width="1" height="1"/><path class="ha204-4" d="M13,22h3V21h1V19h1V18h1V16H16V15H13v1H10v2h1v1h1V18h1v1h3v1H13V19H12v2h1Zm2-5H14V16h1Z"/><rect class="ha204-4" x="19" y="15" width="1" height="1"/><rect class="ha204-4" x="9" y="15" width="1" height="1"/><path class="ha204-4" d="M14,13v1h1V13h1V12h2V11H11v1H10v1h4Z"/><path class="ha204-2" d="M17,20v1h1V20Z"/><path class="ha204-2" d="M11,20v1h1V20Z"/><rect class="ha204-2" x="8" y="15" width="1" height="1"/><rect class="ha204-2" x="14" y="16" width="1" height="1"/><path class="ha204-6" d="M16,13h3V12H16Z"/><path class="ha204-7" d="M19,17v1H18v1H17v1h1v1h2V20h1V19H20V16H19Z"/><path class="ha204-7" d="M12,20V19H11V18H10V16H9v3H8v1H9v1h2V20Z"/><rect class="ha204-2" x="13" y="19" width="3" height="1"/><rect class="ha204-2" x="12" y="18" width="1" height="1"/><path class="ha204-8" d="M10,13V12h1V11h7v1h1v2h1V13h1V9H20V8H19V7H18V6H11V7H10V8H9V9H8v4H9v1h1Z"/><path class="ha204-9" d="M13,14H10v2h3V15h1V14Z"/><path class="ha204-9" d="M19,14H15v1h1v1h3V14Z"/><path class="ha204-2" d="M16,13H15v1h4V13H16Z"/><path class="ha204-2" d="M13,14h1V13H10v1h3Z"/><path class="ha204-2" d="M19,15h1V14H19Z"/><path class="ha204-2" d="M10,14H9v1h1Z"/><path class="ha204-2" d="M14,14v1h1V14Z"/></svg>