<svg xmlns="http://www.w3.org/2000/svg" viewBox="0 0 29 33"><defs><style>polygon,rect,path{shape-rendering:crispedges;}.sa260-1{fill:#7a982c;}.sa260-2{fill:#000000;}.sa260-3{fill:#6e12ff;}.sa260-4{fill:#b2622b;}.sa260-5{fill:#ffffff;}.sa260-6{fill:#ffffff;}.sa260-7{fill:#990000;}.sa260-8{fill:#b23b00;}.sa260-9{fill:#841f00;}.sa260-10{fill:#990000;}</style></defs><path class="sa260-1" d="M6,32V27H7V26H8V25h2V24h1V23H10V22H9V21H8V20H7V11H8V10H9V9h1V8h1V7h7V8h1V9h1v1h1v1h1v9H21v1H20v1H19v1H18v1h1v1h2v1h1v1h1v6h6V0H0V33H6Z"/><path class="sa260-2" d="M23,27H22v6h1V27Z"/><path class="sa260-3" d="M22,27H21v6h1V27Z"/><rect class="sa260-2" x="21" y="26" width="1" height="1"/><path class="sa260-2" d="M21,27H20v6h1V27Z"/><path class="sa260-3" d="M20,27h1V26H19V25H18V24H16v1h1v3h2v1H17v2h1V30h1v2H16V25H13v3h2v4H12V25h1V24H11v1H10v1H8v1H9v6H20V27Zm-9,2v3H10V28h1Z"/><path class="sa260-2" d="M20,26h1V25H19v1Z"/><rect class="sa260-2" x="18" y="24" width="1" height="1"/><path class="sa260-2" d="M16,24h2V23H16Z"/><path class="sa260-2" d="M13,24v1h3V24H13Z"/><path class="sa260-4" d="M15,23H13v1h3V23Z"/><path class="sa260-2" d="M13,23H11v1h2Z"/><rect class="sa260-2" x="10" y="24" width="1" height="1"/><path class="sa260-2" d="M10,25H8v1h2Z"/><path class="sa260-2" d="M9,27H8v6H9V27Z"/><path class="sa260-3" d="M8,27H7v6H8V27Z"/><rect class="sa260-2" x="7" y="26" width="1" height="1"/><path class="sa260-2" d="M7,27H6v6H7V27Z"/><path class="sa260-3" d="M14,31V29H13v2Z"/><path class="sa260-5" d="M14,29v2H13V30H12v2h3V28H13v1Z"/><path class="sa260-5" d="M10,29v3h1V28H10Z"/><path class="sa260-5" d="M18,29h1V28H17v1Z"/><path class="sa260-5" d="M16,31v1h3V30H18v1H17V30H16Z"/><path class="sa260-2" d="M12,26v4h1V25H12Z"/><path class="sa260-2" d="M16,30h1V25H16v5Z"/><rect class="sa260-4" x="13" y="13" width="1" height="1"/><path class="sa260-4" d="M11,13H10v1h2V13Z"/><path class="sa260-4" d="M16,22V21h1V20h1V18h1V15H16V14H14v2h1v1H14V16H13v1H11V16H10v2h1v2h1v1h1v1h3Zm-3-3h3V18h1v1H16v1H13Z"/><path class="sa260-4" d="M18,14V13H16v1h2Z"/><rect class="sa260-2" x="14" y="16" width="1" height="1"/><path class="sa260-6" d="M18,14v1h1V14Z"/><path class="sa260-2" d="M17,14H16v1h2V14Z"/><rect class="sa260-7" x="18" y="13" width="1" height="1"/><rect class="sa260-7" x="12" y="13" width="1" height="1"/><path class="sa260-8" d="M12,13h1V11H12v2Z"/><path class="sa260-8" d="M14,13h1V11H14v2Z"/><rect class="sa260-8" x="18" y="12" width="1" height="1"/><rect class="sa260-8" x="16" y="11" width="1" height="1"/><rect class="sa260-8" x="10" y="12" width="1" height="1"/><path class="sa260-9" d="M16,13V11H15v2Z"/><path class="sa260-9" d="M14,12V11H13v2h1Z"/><path class="sa260-9" d="M12,12H11v1h1Z"/><path class="sa260-3" d="M9,19V12h1V11h2V10h5v1h2v1h1v8h1V11H20V10H19V9H18V8H11V9H10v1H9v1H8v9H9Z"/><rect class="sa260-3" x="9" y="20" width="1" height="1"/><rect class="sa260-3" x="19" y="20" width="1" height="1"/><path class="sa260-3" d="M18,21H17v1H16v1h2V22h1V21Z"/><path class="sa260-3" d="M13,22H12V21H10v1h1v1h2Z"/><rect class="sa260-2" x="10" y="8" width="1" height="1"/><rect class="sa260-2" x="9" y="9" width="1" height="1"/><rect class="sa260-2" x="8" y="10" width="1" height="1"/><path class="sa260-2" d="M8,11H7v9H8V11Z"/><rect class="sa260-2" x="8" y="20" width="1" height="1"/><rect class="sa260-2" x="9" y="21" width="1" height="1"/><rect class="sa260-2" x="10" y="22" width="1" height="1"/><rect class="sa260-2" x="18" y="22" width="1" height="1"/><rect class="sa260-2" x="19" y="21" width="1" height="1"/><rect class="sa260-2" x="20" y="20" width="1" height="1"/><path class="sa260-2" d="M21,20h1V11H21v9Z"/><rect class="sa260-2" x="20" y="10" width="1" height="1"/><rect class="sa260-2" x="19" y="9" width="1" height="1"/><rect class="sa260-2" x="18" y="8" width="1" height="1"/><path class="sa260-2" d="M18,8V7H11V8h7Z"/><path class="sa260-2" d="M12,12V11H10v1h2Z"/><path class="sa260-2" d="M10,16h1v1h2V16h1V14H10V12H9v5h1Z"/><rect class="sa260-2" x="12" y="21" width="1" height="1"/><path class="sa260-2" d="M16,23V22H13v1h3Z"/><rect class="sa260-2" x="16" y="21" width="1" height="1"/><path class="sa260-2" d="M19,14v3h1V12H19v2Z"/><path class="sa260-2" d="M14,11h3V10H12v1h2Z"/><path class="sa260-10" d="M19,18H18v2H17v1h2V20h1V17H19Z"/><path class="sa260-10" d="M11,20V18H10V17H9v3h1v1h2V20Z"/><polygon class="sa260-2" points="15 13 14 13 14 14 16 14 16 13 15 13"/><path class="sa260-2" d="M16,12v1h2V12h1V11H17v1Z"/><rect class="sa260-2" x="13" y="19" width="3" height="1"/><rect class="sa260-2" x="16" y="18" width="1" height="1"/></svg>