<svg xmlns="http://www.w3.org/2000/svg" viewBox="0 0 29 33"><defs><style>polygon,rect,path{shape-rendering:crispedges;}.aa274-1{fill:#db5a8e;}.aa274-2{fill:#000000;}.aa274-3{fill:#e8b795;}.aa274-4{fill:#e0dbc6;}.aa274-5{fill:#ffffff;}.aa274-6{fill:#9b8100;}.aa274-7{fill:#c9a717;}</style></defs><path class="aa274-1" d="M0,33H6V27H7V26H8V25h2V24h2V21H11V20H10V19H9V16H8V15H9V14H8V13H4V12H6V11H8V10h2V9h1V8h1V7h1V6h1V5h1V6h1V7h1V8h1V9h1v1h2v1h2v1h2v1H21v1H20v1h1v1H20v3H19v1H18v1H17v3h2v1h2v1h1v1h1v6h6V0H0Z"/><path class="aa274-2" d="M23,31V27H22v6h1Z"/><rect class="aa274-2" x="21" y="26" width="1" height="1"/><path class="aa274-3" d="M22,31V27H21v6h1Z"/><rect class="aa274-3" x="20" y="26" width="1" height="1"/><path class="aa274-2" d="M21,31V27H20v6h1Z"/><path class="aa274-2" d="M20,26h1V25H19v1Z"/><path class="aa274-4" d="M20,31V26H19V25H18v1H17v1H16v1H13V27H12V26H11V25H10v1H9v7H20Z"/><path class="aa274-2" d="M17,26h1V25h1V24H17Z"/><rect class="aa274-2" x="16" y="26" width="1" height="1"/><path class="aa274-2" d="M14,27H13v1h3V27Z"/><path class="aa274-2" d="M13,23h3v1h1V21H16v1H13V21H12v3h1Z"/><path class="aa274-3" d="M12,26h1v1h3V26h1V24H16V23H13v1H12Z"/><rect class="aa274-2" x="12" y="26" width="1" height="1"/><path class="aa274-2" d="M11,26h1V24H10v1h1Z"/><path class="aa274-2" d="M10,26V25H8v1Z"/><rect class="aa274-3" x="8" y="26" width="1" height="1"/><path class="aa274-2" d="M9,31V27H8v6H9Z"/><rect class="aa274-2" x="7" y="26" width="1" height="1"/><path class="aa274-3" d="M8,31V27H7v6H8Z"/><path class="aa274-2" d="M7,31V27H6v6H7Z"/><rect class="aa274-2" x="20" y="15" width="1" height="1"/><rect class="aa274-2" x="19" y="14" width="1" height="1"/><path class="aa274-3" d="M13,20v2h3V20Z"/><path class="aa274-3" d="M12,19V18h5v2h1V19h1V16h1V15H16V14H13v1H9v1h1v3h1v1h1Zm2-3h1v1H14Z"/><path class="aa274-2" d="M19,17v2h1V16H19Z"/><rect class="aa274-2" x="18" y="19" width="1" height="1"/><rect class="aa274-2" x="17" y="20" width="1" height="1"/><rect class="aa274-2" x="11" y="20" width="1" height="1"/><rect class="aa274-2" x="10" y="19" width="1" height="1"/><rect class="aa274-2" x="9" y="14" width="1" height="1"/><path class="aa274-2" d="M10,17V16H9v3h1Z"/><rect class="aa274-2" x="8" y="15" width="1" height="1"/><rect class="aa274-2" x="14" y="16" width="1" height="1"/><rect class="aa274-5" x="12" y="14" width="1" height="1"/><rect class="aa274-5" x="10" y="14" width="1" height="1"/><rect class="aa274-5" x="18" y="14" width="1" height="1"/><rect class="aa274-5" x="16" y="14" width="1" height="1"/><rect class="aa274-2" x="11" y="14" width="1" height="1"/><rect class="aa274-2" x="17" y="14" width="1" height="1"/><path class="aa274-6" d="M13,20V19H12v2h1Z"/><path class="aa274-6" d="M17,19V18H13v1h3v2h1Z"/><path class="aa274-2" d="M16,19H13v1h3Z"/><rect class="aa274-2" x="12" y="18" width="1" height="1"/><path class="aa274-7" d="M11,14H21V13h4V12H23V11H21V10H19V9H18V8H17V7H16V6H15V5H14V6H13V7H12V8H11V9H10v1H8v1H6v1H4v1H8v1Z"/></svg>