<svg xmlns="http://www.w3.org/2000/svg" viewBox="0 0 29 33"><defs><style>polygon,rect,path{shape-rendering:crispedges;}.oa283-1{fill:#000000;}.oa283-2{fill:#e0dbc6;}.oa283-3{fill:#317f03;}.oa283-4{fill:#ce8452;}.oa283-5{fill:#508e5d;}.oa283-6{fill:#990000;}.oa283-7{fill:#ffffff;}.oa283-8{fill:#0068ff;}.oa283-9{fill:#ff1f4a;}.oa283-10{fill:#841f00;}.oa283-11{fill:#b23b00;}.oa283-12{fill:#7a982c;}</style></defs><path class="oa283-1" d="M23,27H22v6h1V27Z"/><rect class="oa283-1" x="21" y="26" width="1" height="1"/><path class="oa283-2" d="M21,32v1h1V32Z"/><path class="oa283-2" d="M21,28h1V27H21Z"/><path class="oa283-2" d="M21,30v1h1V29H21Z"/><path class="oa283-1" d="M21,31V27H20v6h1V31Z"/><path class="oa283-2" d="M19,26v1H18v3h1v1h1V29H19V28h1V27h1V26H19Z"/><path class="oa283-2" d="M19,32v1h1V32Z"/><path class="oa283-1" d="M20,26h1V25H19v1Z"/><path class="oa283-1" d="M18,30V25h1V24H17v1H16v1h1v7h1V30Z"/><path class="oa283-3" d="M17,26H16v1H13V26H12v7h5V26Z"/><path class="oa283-1" d="M13,26v1h3V26H13Z"/><path class="oa283-1" d="M13,23h3v1h1V21H16v1H13V21H12v3h1Z"/><path class="oa283-4" d="M13,25v1h3V25h1V24H16V23H13v1H12v1Z"/><path class="oa283-1" d="M12,26h1V25H12V24H10v1h1v8h1V26Z"/><path class="oa283-2" d="M9,27v1h1v1H9v2h1V30h1V27H10V26H8v1Z"/><rect class="oa283-2" x="9" y="32" width="1" height="1"/><path class="oa283-1" d="M10,25H8v1h2Z"/><path class="oa283-1" d="M9,31V27H8v6H9V31Z"/><rect class="oa283-1" x="7" y="26" width="1" height="1"/><path class="oa283-2" d="M7,32v1H8V32Z"/><path class="oa283-2" d="M7,30v1H8V29H7Z"/><path class="oa283-2" d="M8,28V27H7v1Z"/><path class="oa283-1" d="M7,31V27H6v6H7V31Z"/><path class="oa283-5" d="M11,30H10v1H9v1h1v1h1V30Z"/><path class="oa283-5" d="M10,27h1V25H10v2Z"/><path class="oa283-5" d="M18,26v1h1V25H18Z"/><path class="oa283-5" d="M7,29H8V28H7Z"/><path class="oa283-5" d="M10,28H9v1h1Z"/><path class="oa283-5" d="M21,29h1V28H21Z"/><path class="oa283-5" d="M19,29h1V28H19Z"/><path class="oa283-5" d="M21,32h1V31H21Z"/><path class="oa283-5" d="M7,32H8V31H7Z"/><path class="oa283-5" d="M20,32V31H19V30H18v3h1V32Z"/><rect class="oa283-4" x="14" y="13" width="1" height="1"/><path class="oa283-4" d="M13,22h3V21h1V20h1V19h1V16H15v1H14V16H10v3h1v1h1v1h1Zm-1-3V18h1v1h3v1H13V19Z"/><rect class="oa283-4" x="14" y="15" width="1" height="1"/><path class="oa283-1" d="M19,16v3h1V16Z"/><rect class="oa283-1" x="18" y="19" width="1" height="1"/><rect class="oa283-1" x="17" y="20" width="1" height="1"/><rect class="oa283-1" x="11" y="20" width="1" height="1"/><rect class="oa283-1" x="10" y="19" width="1" height="1"/><path class="oa283-1" d="M10,18H9v1h1Z"/><rect class="oa283-1" x="14" y="16" width="1" height="1"/><rect class="oa283-1" x="13" y="19" width="3" height="1"/><rect class="oa283-1" x="12" y="18" width="1" height="1"/><polygon class="oa283-6" points="19 20 18 20 18 21 19 21 19 22 20 22 20 21 21 21 21 20 20 20 20 19 19 19 19 20"/><polygon class="oa283-6" points="10 20 10 19 9 19 9 20 8 20 8 21 9 21 9 22 10 22 10 21 11 21 11 20 10 20"/><path class="oa283-6" d="M20,16v2h1V13H20v3Z"/><path class="oa283-6" d="M10,17V16H9V13H8v4H9v1h1Z"/><path class="oa283-7" d="M9,16h5V15h1v1h5V13H15v1H14V13H9v3Zm7-2h3v1H16Zm-6,0h3v1H10Z"/><path class="oa283-8" d="M19,15V14H16v1h3Z"/><path class="oa283-9" d="M13,15V14H10v1h3Z"/><path class="oa283-10" d="M19,12v1h1V11H19Z"/><path class="oa283-11" d="M10,12v1h1V11h1v2h1V11h1v2h1V11h1v2h1V11h1v2h1V11h1V10H19V9H18V8H11V9H10v1H9v1h1Z"/><path class="oa283-10" d="M17,11v2h1V11Z"/><path class="oa283-10" d="M15,11v2h1V11Z"/><path class="oa283-10" d="M13,11v2h1V11Z"/><path class="oa283-10" d="M11,11v2h1V11Z"/><path class="oa283-10" d="M10,12V11H9v2h1Z"/><path class="oa283-12" d="M0,8V33H6V27H7V26H8V25h2V24h2V21H10v1H9V21H8V20H9V17H8V13H9V10h1V9h1V8h7V9h1v1h1v3h1v5H20v2h1v1H20v1H19V21H17v3h2v1h2v1h1v1h1v6h6V0H0Z"/></svg>