<svg xmlns="http://www.w3.org/2000/svg" viewBox="0 0 29 33"><defs><style>polygon,rect,path{shape-rendering:crispedges;}.na116-1{fill:#6b4f99;}.na116-2{fill:#000000;}.na116-3{fill:#316a6d;}.na116-4{fill:#9b8100;}.na116-5{fill:#ce8452;}.na116-6{fill:#68aaad;}.na116-7{fill:#ffffff;}.na116-8{fill:#5e362f;}.na116-9{fill:#5e362f;}.na116-10{fill:#c8a715;}.na116-11{fill:#ff6aa5;}</style></defs><path class="na116-1" d="M12,22H11v2h1V22Z"/><path class="na116-1" d="M0,33H6V27H7V26H8V25h2V20H9V16H8V15H9V10h1V9h1V8h7V9h1v2h1v4h1v1H20v4H19v5h2v1h1v1h1v6h6V0H0Z"/><path class="na116-1" d="M18,22H17v2h1V22Z"/><path class="na116-2" d="M23,27H22v6h1V27Z"/><rect class="na116-2" x="21" y="26" width="1" height="1"/><path class="na116-3" d="M21,31h1V30H21Z"/><path class="na116-3" d="M21,28h1V27H21Z"/><path class="na116-2" d="M21,30V27H20v6h1V30Z"/><path class="na116-3" d="M18,31h2V30H18Z"/><path class="na116-3" d="M18,28h2V27H18Z"/><path class="na116-2" d="M20,26h1V25H19v1Z"/><path class="na116-2" d="M18,30V25h1V24H17v1H16v1h1v7h1V30Z"/><path class="na116-4" d="M17,26H16v1H13V26H12v7h5V26Z"/><path class="na116-2" d="M13,26v1h3V26H13Z"/><path class="na116-5" d="M16,23H13v3h3V23Z"/><path class="na116-2" d="M12,26h1V25H12V24H10v1h1v8h1V26Z"/><path class="na116-3" d="M9,31h2V30H9Z"/><path class="na116-3" d="M9,28h2V27H9Z"/><path class="na116-2" d="M10,25H8v1h2Z"/><path class="na116-2" d="M9,30V27H8v6H9V30Z"/><rect class="na116-2" x="7" y="26" width="1" height="1"/><path class="na116-3" d="M8,28V27H7v1Z"/><path class="na116-3" d="M7,31H8V30H7Z"/><path class="na116-2" d="M7,30V27H6v6H7V30Z"/><path class="na116-6" d="M9,31v2h2V31Z"/><path class="na116-6" d="M18,31v2h2V31Z"/><path class="na116-6" d="M18,29v1h2V28H18Z"/><path class="na116-6" d="M9,29v1h2V28H9Z"/><path class="na116-6" d="M18,26v1h3V26H19V25H18Z"/><path class="na116-6" d="M9,27h2V25H10v1H8v1Z"/><path class="na116-6" d="M7,29v1H8V28H7Z"/><path class="na116-6" d="M7,31v2H8V31Z"/><path class="na116-6" d="M21,31v2h1V31Z"/><path class="na116-6" d="M21,29v1h1V28H21Z"/><rect class="na116-2" x="20" y="15" width="1" height="1"/><path class="na116-5" d="M10,17v1h1v1h1V18h2v1h1V18h2v1h1V18h1V16h1V15H16V13h3V11H18V10H16v1H15v1H14v1H11v1h2v1H9v1h1Zm4-1h1v1H14Z"/><polygon class="na116-5" points="13 21 14 21 14 22 15 22 15 21 16 21 16 20 13 20 13 21"/><path class="na116-2" d="M19,17h1V16H19Z"/><path class="na116-2" d="M10,16H9v1h1Z"/><rect class="na116-2" x="8" y="15" width="1" height="1"/><rect class="na116-2" x="14" y="16" width="1" height="1"/><path class="na116-7" d="M10,15h1V14H10Z"/><path class="na116-7" d="M16,14v1h1V14Z"/><path class="na116-2" d="M12,15h1V14H11v1Z"/><path class="na116-2" d="M18,14H17v1h2V14Z"/><path class="na116-8" d="M18,14h1V13H16v1h2Z"/><path class="na116-9" d="M12,22v1h5V22h2V20h1V17H19v1H18v1H17V18H15v1h1v2H15v1H14V21H13V19H11V18H10V17H9v3h1v2h2Z"/><path class="na116-9" d="M14,18H13v1h1Z"/><path class="na116-10" d="M18,23h1V22H18Z"/><path class="na116-9" d="M18,24h1V23H18Z"/><path class="na116-10" d="M16,23v1h1V23Z"/><path class="na116-9" d="M16,25h1V24H16Z"/><path class="na116-10" d="M13,23H12v1h1Z"/><path class="na116-9" d="M12,24v1h1V24Z"/><path class="na116-10" d="M11,22H10v1h1Z"/><path class="na116-9" d="M11,23H10v1h1Z"/><path class="na116-2" d="M13,19v1h3V19H13Z"/><path class="na116-2" d="M12,18v1h1V18Z"/><path class="na116-11" d="M10,14h1V13h3V12h1V11h1V10h2v1h1V9H18V8H11V9H10v1H9v5h1Z"/><path class="na116-11" d="M19,14v1h1V11H19v3Z"/></svg>