<svg xmlns="http://www.w3.org/2000/svg" viewBox="0 0 29 33"><defs><style>polygon,rect,path{shape-rendering:crispedges;}.da122-1{fill:#d4a122;}.da122-2{fill:#000000;}.da122-3{fill:#8e9350;}.da122-4{fill:#e8b795;}.da122-5{fill:#8e9350;}.da122-6{fill:#ffffff;}.da122-7{fill:#990000;}.da122-8{fill:#990000;}.da122-9{fill:#d2d8b8;}</style></defs><path class="da122-1" d="M0,33H6V27H7V26H8V25h2V24h2V22H11V21H10V20H9V16H8V15H9V11h1V9h1V7h1V6H11V5h2V6h2V7h1V9h2v1h1v1h1v4h1v1H20v4H19v1H18v1H17v2h2v1h2v1h1v1h1v6h6V0H0Z"/><path class="da122-2" d="M23,27H22v3H21V27H20v6h1V31h1v2h1V27Z"/><rect class="da122-2" x="21" y="26" width="1" height="1"/><path class="da122-3" d="M21,28v2h1V27H21Z"/><path class="da122-4" d="M21,31v2h1V31Z"/><path class="da122-2" d="M20,26h1V25H19v1Z"/><path class="da122-3" d="M20,27h1V26H19V25H17v1H16v1H13V26H12V25H10v1H8v1H9v6h1V30h1V29h1V28h5v1h1v1h1v3h1V27Z"/><rect class="da122-3" x="12" y="30" width="1" height="1"/><rect class="da122-3" x="16" y="30" width="1" height="1"/><path class="da122-3" d="M16,32H12v1h5V32Z"/><path class="da122-2" d="M18,25h1V24H17v1Z"/><path class="da122-2" d="M16,24h1V23H16Z"/><rect class="da122-2" x="16" y="25" width="1" height="1"/><path class="da122-2" d="M13,26v1h3V26H13Z"/><path class="da122-2" d="M13,23H12v1h1Z"/><path class="da122-4" d="M13,25v1h3V25h1V24H16V23H13v1H12v1Z"/><rect class="da122-2" x="12" y="25" width="1" height="1"/><path class="da122-2" d="M12,24H10v1h2Z"/><path class="da122-2" d="M10,25H8v1h2Z"/><path class="da122-2" d="M9,27H8v3H7V27H6v6H7V31H8v2H9V27Z"/><rect class="da122-2" x="7" y="26" width="1" height="1"/><path class="da122-3" d="M7,30H8V27H7v3Z"/><path class="da122-4" d="M7,31v2H8V31Z"/><path class="da122-5" d="M19,30H18V29H17V28H12v1H11v1H10v3h2V32h5v1h2V30Zm-6,1H12V30h1Zm4,0H16V30h1Z"/><rect class="da122-2" x="20" y="15" width="1" height="1"/><path class="da122-2" d="M19,14v1h1V11H19v3Z"/><path class="da122-4" d="M10,17h1v1h1v1h1V18h5V17h1V16h1V15H16V14h2V13H16V12h2v1h1V11H18V10H16v1H14V10H11v1H10v1h2v1h1v2H9v1h1Zm4-1h1v1H14Z"/><path class="da122-4" d="M10,14h2V13H10Z"/><rect class="da122-2" x="18" y="10" width="1" height="1"/><path class="da122-2" d="M12,10h1V9H11v1Z"/><path class="da122-2" d="M17,10h1V9H16v1Z"/><path class="da122-2" d="M11,10H10v1h1Z"/><rect class="da122-2" x="8" y="15" width="1" height="1"/><rect class="da122-2" x="14" y="16" width="1" height="1"/><path class="da122-6" d="M18,14v1h1V14Z"/><path class="da122-6" d="M12,15h1V14H12Z"/><path class="da122-2" d="M17,14H16v1h2V14Z"/><path class="da122-2" d="M12,15V14H10V11H9v4h3Z"/><path class="da122-7" d="M19,13H18v1h1Z"/><rect class="da122-7" x="16" y="12" width="2" height="1"/><path class="da122-7" d="M13,14V13H12v1Z"/><path class="da122-7" d="M12,13V12H10v1Z"/><path class="da122-8" d="M15,18H13v1h3V18Z"/><path class="da122-8" d="M14,23h3V22h1V21h1V20h1V16H19v1H18v1H17v1H16v1H13V19H12V18H11V17H10V16H9v4h1v1h1v1h1v1h2Z"/><rect class="da122-2" x="13" y="19" width="3" height="1"/><path class="da122-2" d="M16,19h1V18H16Z"/><path class="da122-9" d="M13,10h1v1h2V7H15V6H13V5H11V6h1V7H11V9h2Z"/><path class="da122-9" d="M11,9H10v1h1Z"/><rect class="da122-9" x="10" y="9" width="1" height="1"></rect></svg>