<svg xmlns="http://www.w3.org/2000/svg" viewBox="0 0 29 33"><defs><style>polygon,rect,path{shape-rendering:crispedges;}.wa71-1{fill:#6b4f99;}.wa71-2{fill:#000000;}.wa71-3{fill:#184226;}.wa71-4{fill:#ce8452;}.wa71-5{fill:#508e5d;}.wa71-6{fill:#5e362f;}.wa71-7{fill:#5e362f;}.wa71-8{fill:#ffffff;}.wa71-9{fill:#0068ff;}.wa71-10{fill:#ff1f4a;}.wa71-11{fill:#c9936f;}.wa71-12{fill:#e8b592;}.wa71-13{fill:#9b005c;}.wa71-14{fill:#fad000;}.wa71-15{fill:#ff1d99;}</style></defs><path class="wa71-1" d="M20,23V20H19v1H18v1h1v3h2V23Z"/><path class="wa71-1" d="M20,17v1h1V16H20Z"/><path class="wa71-1" d="M0,33H6V27H7V26H8V25h2V22h1V21H10V20H9V16H8V15H9V11h1V10h1V9h7v1h1v1h1v4h1v1h1v1h1V16h1v2h1v5H24v8H23v1H21v1h8V0H0Z"/><path class="wa71-2" d="M7,30V27H6v6H7V30Z"/><path class="wa71-3" d="M8,29V27H7v2Z"/><path class="wa71-3" d="M7,31v2H8V31Z"/><rect class="wa71-2" x="7" y="26" width="1" height="1"/><path class="wa71-3" d="M12,29V28H11V27H10V26H9v2h1v1h1v2h2V30H12Z"/><rect class="wa71-3" x="9" y="30" width="1" height="1"/><path class="wa71-3" d="M12,25V24H11v2h1v2h1V25Z"/><rect class="wa71-3" x="11" y="22" width="1" height="1"/><path class="wa71-2" d="M10,26V25H8v1h2Z"/><path class="wa71-2" d="M11,24V22H10v3h1Z"/><rect class="wa71-2" x="12" y="23" width="1" height="1"/><rect class="wa71-2" x="13" y="24" width="1" height="1"/><path class="wa71-4" d="M14,24v1h1V24h1V23H13v1Z"/><path class="wa71-2" d="M15,26V25H14v2h1Z"/><rect class="wa71-2" x="15" y="24" width="1" height="1"/><path class="wa71-3" d="M18,30V28H17V27H16V25H15v3h1v1h1v2h2V30Z"/><path class="wa71-3" d="M15,30V28H14v3h2V30Z"/><path class="wa71-3" d="M18,24H16v1h1v1h1v2h1v1h1V27H19V25H18Z"/><rect class="wa71-3" x="17" y="22" width="1" height="1"/><path class="wa71-2" d="M17,24V23H16v1Z"/><path class="wa71-2" d="M19,22H18v3h1V22Z"/><rect class="wa71-3" x="19" y="32" width="1" height="1"/><rect class="wa71-3" x="13" y="32" width="1" height="1"/><rect class="wa71-3" x="16" y="32" width="1" height="1"/><rect class="wa71-3" x="10" y="32" width="1" height="1"/><path class="wa71-2" d="M22,32h1V31H22V25H19v1h2v1H20v4H14V27H13v4H9V27H8v6H9V32H20v1h1V32Z"/><path class="wa71-3" d="M23,28V27H22v2h1Z"/><path class="wa71-2" d="M23,26v5h1V25H23Z"/><rect class="wa71-2" x="20" y="15" width="1" height="1"/><path class="wa71-2" d="M19,13h1V11H19v2Z"/><rect class="wa71-4" x="14" y="15" width="1" height="1"/><path class="wa71-4" d="M15,16v1H14V16H10v1h1v1h5v1h1V18h1V17h1V16H15Z"/><path class="wa71-4" d="M10,13h1V12h2v1h1v1h1V13h2V12h2V11H18V10H11v1H10v2Z"/><rect class="wa71-2" x="18" y="10" width="1" height="1"/><path class="wa71-2" d="M18,10V9H11v1h7Z"/><rect class="wa71-2" x="10" y="10" width="1" height="1"/><path class="wa71-2" d="M10,12V11H9v2h1Z"/><rect class="wa71-2" x="8" y="15" width="1" height="1"/><rect class="wa71-2" x="14" y="16" width="1" height="1"/><path class="wa71-5" d="M19,28H18v2h1v1h1V29H19Z"/><path class="wa71-5" d="M17,27v1h1V26H17V25H16v2Z"/><path class="wa71-5" d="M22,29v2h1V29Z"/><path class="wa71-5" d="M20,27h1V26H19v1Z"/><path class="wa71-5" d="M23,26V25H22v2h1Z"/><path class="wa71-5" d="M18,32H17v1h2V32Z"/><path class="wa71-5" d="M16,29V28H15v2h1v1h1V29Z"/><path class="wa71-5" d="M13,25v2h1V25Z"/><path class="wa71-5" d="M15,27H14v1h1Z"/><path class="wa71-5" d="M15,32H14v1h2V32Z"/><path class="wa71-5" d="M12,29v1h1V28H12Z"/><rect class="wa71-5" x="12" y="24" width="1" height="1"/><path class="wa71-5" d="M10,27h1v1h1V26H11V25H10v2Z"/><path class="wa71-5" d="M12,32H11v1h2V32Z"/><path class="wa71-5" d="M10,29V28H9v2h1v1h1V29Z"/><path class="wa71-5" d="M9,32v1h1V32Z"/><path class="wa71-5" d="M9,27V26H8v1Z"/><path class="wa71-5" d="M7,30v1H8V29H7Z"/><path class="wa71-5" d="M12,23H11v1h1Z"/><path class="wa71-5" d="M18,24V23H17v1Z"/><path class="wa71-6" d="M11,12v1h2V12Z"/><path class="wa71-6" d="M17,12v1h2V12Z"/><path class="wa71-7" d="M15,18H13v1h3V18Z"/><path class="wa71-7" d="M12,23h5V22h1V21h1V20h1V16H19v1H18v1H17v1H16v1H13V19H12V18H11V17H10V16H9v4h1v1h1v1h1Z"/><rect class="wa71-2" x="13" y="19" width="3" height="1"/><path class="wa71-2" d="M12,18v1h1V18Z"/><path class="wa71-8" d="M11,16h3V15h1v1h5V13H15v1H14V13H9v3h2Zm5-2h3v1H16Zm-6,0h3v1H10Z"/><path class="wa71-9" d="M19,15V14H16v1h3Z"/><path class="wa71-10" d="M13,15V14H10v1h3Z"/><path class="wa71-11" d="M21,23V22H20v1Z"/><path class="wa71-11" d="M24,22.111V23h1V22H24Z"/><rect class="wa71-2" x="21" y="19" width="1" height="1"/><rect class="wa71-2" x="23" y="19" width="1" height="1"/><path class="wa71-12" d="M24,22H21v1h3V22Z"/><path class="wa71-12" d="M24,21V20H23V19H22v1H21v1h3Z"/><path class="wa71-13" d="M21,23v2h3V23H21Z"/><path class="wa71-8" d="M22,18h2V16H23v1H22V16H21v2Z"/><path class="wa71-14" d="M21,18H20v4h1V19h3v3h1V18H21Z"/><path class="wa71-15" d="M24,22V21H21v1h3Z"/></svg>