<svg xmlns="http://www.w3.org/2000/svg" viewBox="0 0 29 33"><defs><style>polygon,rect,path{shape-rendering:crispedges;}.qa249-1{fill:#397d98;}.qa249-2{fill:#000000;}.qa249-3{fill:#990000;}.qa249-4{fill:#e8b795;}.qa249-5{fill:#ff6c77;}.qa249-6{fill:#ffffff;}.qa249-7{fill:#6c9302;}.qa249-8{fill:#6c9302;}.qa249-9{fill:#ff6aa5;}</style></defs><path class="qa249-1" d="M0,33H6V27H7V26H8V25h2V24h1V23H10V22h1V21H10V20H9V18H8V13H9V11h1V10h1V9h7v1h1v1h1v1h1v6H20v2H19v1H18v1h1v1H18v1h1v1h2V23H20V21h1V20h1V19h2v1h1v3H24v8H23v1H21v1h8V0H0Z"/><path class="qa249-2" d="M23,24v7h1V23H23Z"/><path class="qa249-2" d="M7,27H6v6H7V27Z"/><path class="qa249-3" d="M8,27H7v6H8V27Z"/><rect class="qa249-2" x="7" y="26" width="1" height="1"/><path class="qa249-2" d="M9,27H8v6H9V27Z"/><path class="qa249-3" d="M20,27h1V26H19V25H18V24H16v1h1v3h2v1H17v2h1V30h1v2H16V25H13v3h2v4H12V25h1V24H11v1H10v1H8v1H9v6H20V27Zm-9,2v3H10V28h1Z"/><path class="qa249-2" d="M10,25H8v1h2Z"/><rect class="qa249-2" x="10" y="24" width="1" height="1"/><rect class="qa249-2" x="10" y="22" width="1" height="1"/><rect class="qa249-3" x="11" y="22" width="1" height="1"/><path class="qa249-2" d="M13,23h3v1h2V23H17V22h1V21H16v1H13V21H11v1h1v1H11v1h2Z"/><path class="qa249-2" d="M13,24v1h3V24H13Z"/><path class="qa249-4" d="M15,23H13v1h3V23Z"/><rect class="qa249-3" x="17" y="22" width="1" height="1"/><rect class="qa249-2" x="18" y="24" width="1" height="1"/><rect class="qa249-2" x="18" y="22" width="1" height="1"/><path class="qa249-2" d="M22,32h1V31H22V23H21v2H19v1h2v1H20v6h1V32Z"/><path class="qa249-3" d="M23,24H22v7h1V24Z"/><path class="qa249-3" d="M14,31V29H13v2Z"/><path class="qa249-5" d="M14,29v2H13V30H12v2h3V28H13v1Z"/><path class="qa249-5" d="M10,29v3h1V28H10Z"/><path class="qa249-5" d="M18,29h1V28H17v1Z"/><path class="qa249-5" d="M16,31v1h3V30H18v1H17V30H16Z"/><path class="qa249-2" d="M12,26v4h1V25H12Z"/><path class="qa249-2" d="M16,30h1V25H16v5Z"/><rect class="qa249-2" x="19" y="14" width="1" height="1"/><rect class="qa249-4" x="9" y="15" width="1" height="1"/><rect class="qa249-4" x="17" y="11" width="1" height="1"/><path class="qa249-4" d="M13,14V13H11v1h2Z"/><rect class="qa249-4" x="17" y="13" width="1" height="1"/><rect class="qa249-4" x="19" y="15" width="1" height="1"/><path class="qa249-4" d="M18,20V16H15v1H14V16h1V14h1V12H15V11H14v4H13v2H12V16H11v4h1v1h1v1h3V21h1V20Zm-2,0H13V19H12V18h1v1h3Z"/><rect class="qa249-2" x="19" y="16" width="1" height="1"/><rect class="qa249-2" x="9" y="16" width="1" height="1"/><rect class="qa249-2" x="14" y="16" width="1" height="1"/><path class="qa249-6" d="M12,15h1V14H12Z"/><path class="qa249-6" d="M17,16V14H16v2Z"/><path class="qa249-2" d="M12,15V14H11v2h1Z"/><path class="qa249-2" d="M18,16V14H17v2Z"/><path class="qa249-7" d="M13,12H11v1h2Z"/><rect class="qa249-7" x="17" y="12" width="1" height="1"/><path class="qa249-8" d="M19,18H18v2H17v1h2V18Z"/><rect class="qa249-8" x="19" y="17" width="1" height="1"/><path class="qa249-8" d="M12,20H11V18H10v3h2Z"/><rect class="qa249-8" x="9" y="17" width="1" height="1"/><rect class="qa249-2" x="13" y="19" width="3" height="1"/><rect class="qa249-2" x="12" y="18" width="1" height="1"/><path class="qa249-2" d="M20,21v2h1V21Z"/><rect class="qa249-2" x="21" y="20" width="1" height="1"/><rect class="qa249-2" x="22" y="19" width="2" height="1"/><path class="qa249-2" d="M24,23h1V20H24v3Z"/><path class="qa249-4" d="M22,24h1V23h1V20H22v1H21v2h1Z"/><path class="qa249-9" d="M9,16V15h1v3h1V12h2v3h1V11h1v1h1v2h1V11h1v7h1V14h1v4h1V12H20V11H19V10H18V9H11v1H10v1H9v2H8v5H9V16Z"/><path class="qa249-9" d="M19,19v1h1V18H19Z"/><path class="qa249-9" d="M15,15v1h1V14H15Z"/><path class="qa249-9" d="M12,16v1h1V15H12Z"/><path class="qa249-9" d="M9,18v2h1V18Z"/></svg>