<svg xmlns="http://www.w3.org/2000/svg" viewBox="0 0 29 33"><defs><style>polygon,rect,path{shape-rendering:crispedges;}.aa213-1{fill:#b4bd09;}.aa213-2{fill:#000000;}.aa213-3{fill:#e8b795;}.aa213-4{fill:#8c7850;}.aa213-5{fill:#a89969;}.aa213-6{fill:#663228;}.aa213-7{fill:#663228;}.aa213-8{fill:#ff1d99;}</style></defs><path class="aa213-1" d="M6,32V27H7V26H8V25h2V24h2V21H11V20H10V19H9V16H8V15H9V11h1V10h1V9h7v1h2v5h1v1H20v3H19v1H18v1H17v3h2v1h2v1h1v1h1v6h6V0H0V33H6Z"/><path class="aa213-2" d="M23,31V27H22v6h1Z"/><rect class="aa213-2" x="21" y="26" width="1" height="1"/><path class="aa213-3" d="M22,31V27H21v6h1Z"/><rect class="aa213-3" x="20" y="26" width="1" height="1"/><path class="aa213-2" d="M21,31V27H20v6h1Z"/><path class="aa213-2" d="M20,26h1V25H19v1Z"/><path class="aa213-4" d="M20,31V26H19V25H18v1H17v1H16v1h1v1h1v1h1v3h1Z"/><path class="aa213-4" d="M10,31V30h1V29h1V28h1V27H12V26H11V25H10v1H9v7h1Z"/><rect class="aa213-4" x="16" y="30" width="1" height="1"/><path class="aa213-4" d="M16,32H12v1h5V32Z"/><rect class="aa213-4" x="12" y="30" width="1" height="1"/><path class="aa213-2" d="M17,26h1V25h1V24H17Z"/><rect class="aa213-2" x="16" y="26" width="1" height="1"/><path class="aa213-2" d="M14,27H13v1h3V27Z"/><path class="aa213-2" d="M13,23h3v1h1V21H16v1H13V21H12v3h1Z"/><path class="aa213-3" d="M12,26h1v1h3V26h1V24H16V23H13v1H12Z"/><rect class="aa213-2" x="12" y="26" width="1" height="1"/><path class="aa213-2" d="M11,26h1V24H10v1h1Z"/><path class="aa213-2" d="M10,26V25H8v1Z"/><rect class="aa213-3" x="8" y="26" width="1" height="1"/><path class="aa213-2" d="M9,31V27H8v6H9Z"/><rect class="aa213-2" x="7" y="26" width="1" height="1"/><path class="aa213-3" d="M8,31V27H7v6H8Z"/><path class="aa213-2" d="M7,31V27H6v6H7Z"/><path class="aa213-5" d="M19,31V30H18V29H17V28H12v1H11v1H10v3h2V32h5v1h2Zm-6,0H12V30h1Zm4,0H16V30h1Z"/><rect class="aa213-2" x="20" y="15" width="1" height="1"/><rect class="aa213-3" x="19" y="15" width="1" height="1"/><rect class="aa213-3" x="9" y="15" width="1" height="1"/><path class="aa213-3" d="M13,22h3V21h1V20h1V19h1V17H18V16H16V15H15v2H14V16H13v1H11V16H10v3h1v1h1v1h1Zm-1-3V18h5v1H16v1H13V19Z"/><path class="aa213-2" d="M19,17v2h1V16H19Z"/><rect class="aa213-2" x="18" y="19" width="1" height="1"/><rect class="aa213-2" x="17" y="20" width="1" height="1"/><rect class="aa213-2" x="11" y="20" width="1" height="1"/><rect class="aa213-2" x="10" y="19" width="1" height="1"/><path class="aa213-2" d="M10,17V16H9v3h1Z"/><rect class="aa213-2" x="8" y="15" width="1" height="1"/><rect class="aa213-2" x="14" y="16" width="1" height="1"/><rect class="aa213-6" x="12" y="13" width="1" height="1"/><path class="aa213-7" d="M16,19V18H12v1Z"/><rect class="aa213-2" x="13" y="19" width="3" height="1"/><rect class="aa213-2" x="16" y="18" width="1" height="1"/><path class="aa213-8" d="M19,12H18v1H16v1H14v2h1V15h1v1h2v1h1V15h1V11H19Z"/><path class="aa213-8" d="M10,14h2V13h1v1h1V13h2V12h2V11h1V10H18V9H11v1H10v1H9v2h1Z"/><rect class="aa213-8" x="9" y="14" width="1" height="1"/><path class="aa213-2" d="M14,14H10v2h1v1h2V16h1Z"/><rect class="aa213-2" x="14" y="13" width="2" height="1"/><rect class="aa213-2" x="16" y="12" width="2" height="1"/><rect class="aa213-2" x="18" y="11" width="1" height="1"/><rect class="aa213-2" x="19" y="10" width="1" height="1"/><rect class="aa213-2" x="9" y="13" width="1" height="1"/></svg>