<svg xmlns="http://www.w3.org/2000/svg" viewBox="0 0 29 33"><defs><style>polygon,rect,path{shape-rendering:crispedges;}.ab138-1{fill:#e55b35;}.ab138-2{fill:#000000;}.ab138-3{fill:#00774c;}.ab138-4{fill:#6d3e35;}.ab138-5{fill:#ffffff;}.ab138-6{fill:#663228;}.ab138-7{fill:#00774c;}.ab138-8{fill:#ff1d99;}.ab138-9{fill:#e281bf;}.ab138-10{fill:#b5a38a;}.ab138-11{fill:#e273af;}</style></defs><path class="ab138-1" d="M11,24V23h1V21H11V20h0v1H10v1H9v3h1V24Z"/><rect class="ab138-1" x="10" y="19" height="1"/><path class="ab138-1" d="M0,33H6V25H7V24H8V21H8v1H7v1H6v1H3V23H2V22H1V19H2V18H3V17H6v1H7v1H8v1H8V19H9V17H8V12H9V10h1V9h1V8h7V9h1v1h1v2h1v6H20v2h1v1H20v1H19V21H17v2h1v1h1v1h2v1h1v1h1v6h6V0H0Z"/><path class="ab138-2" d="M23,27H22v6h1V27Z"/><path class="ab138-3" d="M22,27H21v6h1V27Z"/><rect class="ab138-2" x="21" y="26" width="1" height="1"/><path class="ab138-2" d="M21,27H20v6h1V27Z"/><path class="ab138-3" d="M20,27h1V26H19V25H18v1H16V25H15v2H14V25H13v1H11V25H10v1H9v7h5V32h1v1h5V27Zm-5,4H14V30h1Zm0-2H14V28h1Z"/><path class="ab138-2" d="M20,26h1V25H19v1Z"/><rect class="ab138-3" x="16" y="24" width="1" height="1"/><rect class="ab138-2" x="15" y="24" width="1" height="1"/><rect class="ab138-2" x="14" y="32" width="1" height="1"/><rect class="ab138-2" x="14" y="30" width="1" height="1"/><rect class="ab138-2" x="14" y="28" width="1" height="1"/><path class="ab138-2" d="M14,26v1h1V25H14Z"/><rect class="ab138-2" x="13" y="24" width="1" height="1"/><path class="ab138-4" d="M16,24V23H13v1h1v1h1V24Z"/><rect class="ab138-3" x="12" y="24" width="1" height="1"/><path class="ab138-2" d="M9,26H8v7H9V26Z"/><rect class="ab138-2" x="9" y="25" width="1" height="1"/><path class="ab138-3" d="M8,27H7v6H8V27Z"/><path class="ab138-4" d="M8,27V26H9V25H7v2Z"/><path class="ab138-2" d="M7,27V25H6v8H7V27Z"/><path class="ab138-4" d="M18,20V19h1V16h1V15H16V14h2V13H16V12h1V11H16V10H15v1H14v1H13v3H10v4h1v1h1v1h1v1h3V21h1V20Zm-4-4h1v1H14Zm2,3v1H13V19h3V18h1v1Z"/><path class="ab138-2" d="M19,16v3h1V16Z"/><rect class="ab138-2" x="18" y="19" width="1" height="1"/><path class="ab138-2" d="M17,20v1h1V20Z"/><path class="ab138-2" d="M16,22H13V21H12v2H11v1H10v1h1v1h2V25H12V24h1V23h3v1h1v1H16v1h2V25h1V24H18V23H17V21H16Z"/><rect class="ab138-2" x="11" y="20" width="1" height="1"/><polygon class="ab138-2" points="11 20 11 20 11 19 10 19 10 20 11 20"/><path class="ab138-2" d="M10,19V18H9v1Z"/><rect class="ab138-2" x="14" y="16" width="1" height="1"/><path class="ab138-5" d="M18,15h1V14H18Z"/><path class="ab138-5" d="M13,15V14H12v1Z"/><path class="ab138-2" d="M17,14H16v1h2V14Z"/><path class="ab138-2" d="M12,14H10v1h2Z"/><rect class="ab138-6" x="18" y="13" width="1" height="1"/><path class="ab138-6" d="M16,13h2V12H16Z"/><path class="ab138-6" d="M13,13H12v1h1Z"/><rect class="ab138-2" x="13" y="19" width="3" height="1"/><rect class="ab138-2" x="16" y="18" width="1" height="1"/><path class="ab138-7" d="M19,20H18v1h1v1h1V21h1V20H20V19H19Z"/><rect class="ab138-7" x="9" y="20" height="1"/><polygon class="ab138-7" points="10 21 11 21 11 20 10 20 10 21"/><polygon class="ab138-7" points="10 20 10 19 9 19 9 20 10 20"/><rect class="ab138-7" x="9" y="21" width="1" height="1"/><path class="ab138-7" d="M10,17V14h2V13h1V12h1V11h1V10h1v1h1v1h1v1h1v2h1v3h1V12H20V10H19V9H18V8H11V9H10v1H9v2H8v5H9v1h1Z"/><polygon class="ab138-8" points="10 21 10 20 10 20 9 20 9 21 10 21 10 21"/><polygon class="ab138-8" points="9 20 9 19 8 19 8 20 9 20 9 20"/><rect class="ab138-9" x="7" y="20" width="1" height="1"/><path class="ab138-8" d="M9,25V21H8v4Z"/><path class="ab138-2" d="M8,24H7v1H8Z"/><rect class="ab138-10" x="2" y="18" width="1" height="1"/><path class="ab138-10" d="M7,20H8V19H7V18H6V17H3v1H5v1H3v1H2V19H1v3H2v1H3v1H6V23H7V22H8V21H7Z"/><polygon class="ab138-11" points="9 20 8 20 8 20 8 21 8 21 9 21 9 20"/><rect class="ab138-5" x="2" y="19" width="1" height="1"/><path class="ab138-5" d="M4,19H5V18H3v1Z"/></svg>