<svg xmlns="http://www.w3.org/2000/svg" viewBox="0 0 29 33"><defs><style>polygon,rect,path{shape-rendering:crispedges;}.bb251-1{fill:#6b4f99;}.bb251-2{fill:#000000;}.bb251-3{fill:#9b8100;}.bb251-4{fill:#ffffff;}.bb251-5{fill:#ce8452;}.bb251-6{fill:#e2e2e2;}.bb251-7{fill:#e2e2e2;}.bb251-8{fill:#cc3232;}</style></defs><path class="bb251-1" d="M0,33H6V27H7V26H8V25h2V24h1V23h1V21H11V20H10V19H9V16H8V15H9V11h1V9h1V8h7V9h1v1h1v5h1v1H20v3H19v1H18v1H17v2h1v1h1v1h2v1h1v1h1v6h6V0H0Z"/><path class="bb251-2" d="M23,27H22v6h1V27Z"/><path class="bb251-3" d="M22,27H21v6h1V27Z"/><rect class="bb251-2" x="21" y="26" width="1" height="1"/><path class="bb251-2" d="M21,27H20v6h1V27Z"/><path class="bb251-3" d="M20,27h1V26H19V25H18v4H17v4h3V27Z"/><path class="bb251-2" d="M20,26h1V25H19v1Z"/><path class="bb251-2" d="M17,29H16v4h1V29Z"/><rect class="bb251-4" x="16" y="24" width="1" height="1"/><path class="bb251-4" d="M16,29h1V26H16V25H13v1H12v3h1v4h1V32h1v1h1V29Zm-1,2H14V30h1Zm0-2H14V28h1Zm0-2H14V26h1Z"/><rect class="bb251-4" x="15" y="23" width="1" height="1"/><rect class="bb251-2" x="14" y="32" width="1" height="1"/><rect class="bb251-2" x="14" y="30" width="1" height="1"/><rect class="bb251-2" x="14" y="28" width="1" height="1"/><rect class="bb251-2" x="14" y="26" width="1" height="1"/><rect class="bb251-4" x="13" y="23" width="1" height="1"/><path class="bb251-2" d="M13,29H12v4h1V29Z"/><rect class="bb251-4" x="12" y="24" width="1" height="1"/><path class="bb251-3" d="M12,29H11V25H10v1H8v1H9v6h3V29Z"/><path class="bb251-2" d="M11,26v3h1V26h1V25H12V24h1V23h1v1H13v1h3V24H15V23h1v1h1v1H16v1h1v3h1V25h1V24H18V23H17V21H16v1H13V21H12v2H11v1H10v1h1Z"/><path class="bb251-2" d="M10,25H8v1h2Z"/><path class="bb251-2" d="M9,27H8v6H9V27Z"/><path class="bb251-3" d="M8,27H7v6H8V27Z"/><rect class="bb251-2" x="7" y="26" width="1" height="1"/><path class="bb251-2" d="M7,27H6v6H7V27Z"/><rect class="bb251-2" x="20" y="15" width="1" height="1"/><path class="bb251-2" d="M19,12v3h1V11H19Z"/><rect class="bb251-5" x="16" y="19" width="1" height="1"/><rect class="bb251-5" x="12" y="19" width="1" height="1"/><path class="bb251-5" d="M10,14h2V13H10Z"/><rect class="bb251-5" x="13" y="20" width="1" height="1"/><path class="bb251-5" d="M12,19V18h5v1h2V16h1V15H16V14h2V13H16V12h2v1h1V11H18V10H17v1H16V10H15v1H14V10H13v1H12V10H11v1H10v1h2v1h1v2H9v1h1v3h2Zm2-3h1v1H14Z"/><rect class="bb251-5" x="15" y="20" width="1" height="1"/><path class="bb251-2" d="M19,17v2h1V16H19Z"/><rect class="bb251-2" x="18" y="10" width="1" height="1"/><path class="bb251-2" d="M18,20h1V19H18Z"/><rect class="bb251-2" x="17" y="20" width="1" height="1"/><rect class="bb251-2" x="17" y="9" width="1" height="1"/><rect class="bb251-2" x="13" y="9" width="1" height="1"/><rect class="bb251-2" x="11" y="9" width="1" height="1"/><rect class="bb251-2" x="15" y="9" width="1" height="1"/><rect class="bb251-2" x="11" y="20" width="1" height="1"/><path class="bb251-2" d="M10,19v1h1V19Z"/><path class="bb251-2" d="M10,16H9v3h1V16Z"/><rect class="bb251-2" x="8" y="15" width="1" height="1"/><rect class="bb251-2" x="14" y="16" width="1" height="1"/><path class="bb251-4" d="M18,14v1h1V14Z"/><path class="bb251-4" d="M12,15h1V14H12Z"/><path class="bb251-2" d="M17,14H16v1h2V14Z"/><path class="bb251-2" d="M12,15V14H10V11H9v4h3Z"/><path class="bb251-6" d="M19,13H18v1h1Z"/><rect class="bb251-6" x="16" y="12" width="2" height="1"/><path class="bb251-6" d="M13,14V13H12v1Z"/><path class="bb251-6" d="M12,13V12H10v1Z"/><path class="bb251-7" d="M17,19v1h1V19Z"/><rect class="bb251-7" x="16" y="20" width="1" height="1"/><path class="bb251-7" d="M15,20H14v1H13v1h3V21H15Z"/><path class="bb251-7" d="M14,19h2V18H12v1h2Z"/><rect class="bb251-7" x="12" y="20" width="1" height="1"/><path class="bb251-7" d="M12,19H11v1h1Z"/><path class="bb251-2" d="M15,20h1V19H13v1h2Z"/><path class="bb251-2" d="M17,19V18H16v1Z"/><path class="bb251-8" d="M11,10V9H10v2h1Z"/><path class="bb251-8" d="M12,10v1h1V9h1v2h1V9h1v2h1V9h1V8H11V9h1Z"/><rect class="bb251-8" x="18" y="9" width="1" height="1"/><path class="bb251-8" d="M20,11V10H19v1Z"/></svg>