<svg xmlns="http://www.w3.org/2000/svg" viewBox="0 0 29 33"><defs><style>polygon,rect,path{shape-rendering:crispedges;}.wa147-1{fill:#b4bd09;}.wa147-2{fill:#508e91;}.wa147-3{fill:#000000;}.wa147-4{fill:#e8b795;}.wa147-5{fill:#ffb3c0;}.wa147-6{fill:#ffffff;}.wa147-7{fill:#af8423;}.wa147-8{fill:#af8423;}.wa147-9{fill:#99004d;}</style></defs><path class="wa147-1" d="M0,33H6V27H7V26H8V25h2V22h1V20H10V19H9V16H8V15H9V10h1V9h1V8h7V9h1v2h1v4h1v1H20v3H19v1H18v2h1v3h2v1h1v1h1v6h6V0H0Z"/><path class="wa147-2" d="M18,25V24H16v1Z"/><path class="wa147-2" d="M14,31h6V30H14Z"/><path class="wa147-2" d="M14,27v1h6V27H14Z"/><rect class="wa147-2" x="21" y="27" width="1" height="1"/><rect class="wa147-2" x="21" y="30" width="1" height="1"/><rect class="wa147-2" x="7" y="27" width="1" height="1"/><rect class="wa147-2" x="7" y="30" width="1" height="1"/><polygon class="wa147-2" points="12 24 11 24 11 25 13 25 13 24 12 24"/><path class="wa147-2" d="M9,28h4V27H9Z"/><path class="wa147-2" d="M9,31h4V30H9Z"/><path class="wa147-3" d="M23,27H22v6h1V27Z"/><rect class="wa147-3" x="21" y="26" width="1" height="1"/><path class="wa147-3" d="M21,30V27H20v4H14V27H13v4H9V27H8v6H9V32H20v1h1V30Z"/><path class="wa147-3" d="M20,26h1V25H19v1Z"/><path class="wa147-3" d="M18,25h1V22H18v3Z"/><rect class="wa147-3" x="15" y="24" width="1" height="1"/><path class="wa147-3" d="M15,26V25H14v2h1Z"/><rect class="wa147-3" x="13" y="24" width="1" height="1"/><path class="wa147-4" d="M15,24h1V23H13v1h1v1h1Z"/><path class="wa147-3" d="M11,24V22H10v3h1Z"/><path class="wa147-3" d="M10,25H8v1h2Z"/><rect class="wa147-3" x="7" y="26" width="1" height="1"/><path class="wa147-3" d="M7,30V27H6v6H7V30Z"/><rect class="wa147-3" x="20" y="15" width="1" height="1"/><polygon class="wa147-4" points="18 14 19 14 19 13 17 13 17 14 18 14"/><path class="wa147-4" d="M12,21h1v1h3V21h1V20h1V19h1V16h1V15H16V13h1V12h2V11H18V10H16v1H15v1H14v1H11v1h2v1H9v1h1v3h1v1h1Zm2-5h1v1H14Zm-2,2h5v1H16v1H13V19H12Z"/><path class="wa147-3" d="M19,17v2h1V16H19Z"/><rect class="wa147-3" x="18" y="19" width="1" height="1"/><path class="wa147-3" d="M12,23v1h1V23h3v1h1V22h1V20H17v1H16v1H13V21H12V20H11v2h1Z"/><rect class="wa147-3" x="10" y="19" width="1" height="1"/><path class="wa147-3" d="M10,16H9v3h1V16Z"/><rect class="wa147-3" x="8" y="15" width="1" height="1"/><rect class="wa147-3" x="14" y="16" width="1" height="1"/><path class="wa147-5" d="M19,32H9v1H20V32Z"/><path class="wa147-5" d="M14,29v1h6V28H14Z"/><path class="wa147-5" d="M9,29v1h4V28H9Z"/><path class="wa147-5" d="M9,27h5V25H10v1H8v1Z"/><path class="wa147-5" d="M16,25H15v2h6V26H19V25H16Z"/><path class="wa147-5" d="M7,29v1H8V28H7Z"/><path class="wa147-5" d="M7,31v2H8V31Z"/><path class="wa147-5" d="M21,31v2h1V31Z"/><path class="wa147-5" d="M21,29v1h1V28H21Z"/><path class="wa147-5" d="M12,24V22H11v2Z"/><path class="wa147-5" d="M17,23v1h1V22H17Z"/><path class="wa147-6" d="M10,15h1V14H10Z"/><path class="wa147-6" d="M16,14v1h1V14Z"/><path class="wa147-3" d="M12,15h1V14H11v1Z"/><path class="wa147-3" d="M18,14H17v1h2V14Z"/><path class="wa147-7" d="M17,13H16v1h1Z"/><rect class="wa147-7" x="17" y="12" width="2" height="1"/><path class="wa147-8" d="M16,19h1V18H12v1h4Z"/><path class="wa147-3" d="M13,20h3V19H13Z"/><path class="wa147-9" d="M10,14h1V13h3V12h1V11h1V10h2v1h1V9H18V8H11V9H10v1H9v5h1Z"/><path class="wa147-9" d="M19,13v2h1V11H19v2Z"/></svg>