<svg xmlns="http://www.w3.org/2000/svg" viewBox="0 0 29 33"><defs><style>polygon,rect,path{shape-rendering:crispedges;}.ha282-1{fill:#db5a8e;}.ha282-2{fill:#000000;}.ha282-3{fill:#875070;}.ha282-4{fill:#c18d59;}.ha282-5{fill:#e2e2e2;}.ha282-6{fill:#e2e2e2;}.ha282-7{fill:#825fff;}.ha282-8{fill:#fad000;}</style></defs><rect class="ha282-1" x="11" y="20" width="1"/><rect class="ha282-1" x="18" y="10" height="1"/><path class="ha282-1" d="M18,20V19h0v1H17v1H16v1h0V21h1V20Z"/><rect class="ha282-1" x="14" y="16" height="1"/><rect class="ha282-1" x="12" y="21" width="1"/><path class="ha282-1" d="M0,33H29V0H0Zm6-1V27H7V26H8V25h2V24h2V21H10V20H9V17H8V15H9V11h1V10h1V9h7v1h1v1h1v4h1v2H20v3H19v1H17v3h2v1h2v1h1v1h1v6H6Z"/><path class="ha282-2" d="M22,33h1V27H22v6Z"/><rect class="ha282-2" x="21" y="26" width="1" height="1"/><path class="ha282-3" d="M21,28v5h1V27H21Z"/><path class="ha282-2" d="M21,28V27H20v6h1V28Z"/><path class="ha282-2" d="M20,26h1V25H19v1Z"/><path class="ha282-3" d="M9,26v7H20V27h1V26H19V25H17v1H16v1H13V26H12V25H10v1Z"/><path class="ha282-2" d="M18,25h1V24H17v1Z"/><rect class="ha282-2" x="16" y="25" width="1" height="1"/><path class="ha282-2" d="M13,26v1h3V26H13Z"/><path class="ha282-2" d="M13,23h3v1h1V21H16v1H13V21H12v3h1Z"/><path class="ha282-4" d="M13,25v1h3V25h1V24H16V23H13v1H12v1Z"/><rect class="ha282-2" x="12" y="25" width="1" height="1"/><path class="ha282-2" d="M12,24H10v1h2Z"/><path class="ha282-2" d="M8,28v5H9V26h1V25H8v1H7v1H8Z"/><path class="ha282-3" d="M7,32v1H8V27H7v5Z"/><path class="ha282-2" d="M7,32V27H6v6H7Z"/><path class="ha282-2" d="M21,16V15H20v1Z"/><path class="ha282-4" d="M11,13h0V12h2v1h4V12h2V11H18V10H11v1H10v2Z"/><rect class="ha282-4" x="18" y="13" width="1" height="1"/><path class="ha282-4" d="M10,16v2h1v2h1v1h1v1h3V21h1V20h1V19h0V18h1V16h1V15H18v1H16V15H15V14H14v1H13v1H11V15H9v1Zm4,0h1v1H14Zm-2,2h1v1h3v1H13V19H12Z"/><path class="ha282-2" d="M19,16h0v1h1V16Z"/><path class="ha282-2" d="M10,16H9v1h1Z"/><path class="ha282-2" d="M9,15H8v1H9Z"/><polygon class="ha282-2" points="15 17 15 17 15 16 14 16 14 17 15 17"/><polygon class="ha282-5" points="10 14 11 14 11 13 10 13 10 14"/><path class="ha282-5" d="M11,12v1h2V12Z"/><path class="ha282-5" d="M19,12H17v1h2Z"/><path class="ha282-6" d="M19,18H18v2H17v1h2V20h1V17H19Z"/><path class="ha282-6" d="M12,20H11V18H10V17H9v3h1v1h2Z"/><rect class="ha282-2" x="13" y="19" width="3" height="1"/><rect class="ha282-2" x="12" y="18" width="1" height="1"/><path class="ha282-7" d="M19,13v1h1V11H19v2Z"/><polygon class="ha282-7" points="19 11 19 10 18 10 18 11 19 11"/><path class="ha282-7" d="M18,10h0V9H11v1h7Z"/><polygon class="ha282-7" points="11 10 10 10 10 11 11 11 11 10"/><path class="ha282-7" d="M10,13V11H9v3h1Z"/><path class="ha282-8" d="M20,16v1h1V16Z"/><path class="ha282-8" d="M8,16v1H9V16Z"/><path class="ha282-2" d="M11,16h2V15h1V14h1v1h1v1h2V15h2V11h0v3H18V13H11v1H9v1h2Z"/></svg>