<svg xmlns="http://www.w3.org/2000/svg" viewBox="0 0 29 33"><defs><style>polygon,rect,path{shape-rendering:crispedges;}.la156-1{fill:#000000;}.la156-2{fill:#9fffc6;}.la156-3{fill:#00af68;}.la156-4{fill:#ce8452;}.la156-5{fill:#ffffff;}.la156-6{fill:#7a982c;}.la156-7{fill:#c9a717;}</style></defs><path class="la156-1" d="M23,27H22v6h1V27Z"/><rect class="la156-1" x="21" y="26" width="1" height="1"/><path class="la156-2" d="M21,31v1h1V30H21Z"/><path class="la156-2" d="M21,28h1V27H21Z"/><path class="la156-1" d="M21,31V27H20v6h1V31Z"/><path class="la156-1" d="M20,26h1V25H19v1Z"/><path class="la156-2" d="M13,31V30H12V28H11V27H10V26H9v2h1v1h1v2h1v1h1v1h1V31Z"/><path class="la156-2" d="M16,31V30H15V28H14V27H13V25H11v1h1v2h1v1h1v2h1v1h1v1h1V31Z"/><path class="la156-2" d="M19,31V30H18V28H17V27H16V26H15v2h1v1h1v2h1v1h1v1h1V31Z"/><path class="la156-2" d="M10,31V30H9v2h1v1h1V31Z"/><path class="la156-2" d="M17,26h1v2h1v1h1V27H19V25H17Z"/><path class="la156-1" d="M12,25h1v1h3V25h3V24H17V22h1V21h1V20h1V17h1V15H20V14H19v2H16V14H13v2H10V14H9v1H8v2H9v3h1v1h1v1h1v2H10v1h2Zm1-6h1v1h1V19h1v2H13Z"/><path class="la156-1" d="M10,26V25H8v1h2Z"/><path class="la156-1" d="M9,31V27H8v6H9V31Z"/><rect class="la156-1" x="7" y="26" width="1" height="1"/><path class="la156-2" d="M7,31v2H8V31Z"/><path class="la156-2" d="M8,29V27H7v2Z"/><path class="la156-1" d="M7,30V27H6v6H7V30Z"/><path class="la156-3" d="M21,29v1h1V28H21Z"/><path class="la156-3" d="M21,32v1h1V32Z"/><path class="la156-3" d="M19,26v1h2V26H19Z"/><path class="la156-3" d="M19,28H18v2h1v1h1V29H19Z"/><path class="la156-3" d="M17,26V25H16v2h1v1h1V26Z"/><path class="la156-3" d="M18,32V31H17v2h2V32Z"/><path class="la156-3" d="M16,30v1h1V29H16V28H15v2Z"/><path class="la156-3" d="M13,27h1v1h1V26H13Z"/><path class="la156-3" d="M15,32V31H14v2h2V32Z"/><path class="la156-3" d="M13,30v1h1V29H13V28H12v2Z"/><path class="la156-3" d="M10,27h1v1h1V26H11V25H10v2Z"/><path class="la156-3" d="M12,32V31H11v2h2V32Z"/><path class="la156-3" d="M10,30v1h1V29H10V28H9v2Z"/><path class="la156-3" d="M9,32v1h1V32Z"/><path class="la156-3" d="M9,27V26H8v1Z"/><path class="la156-3" d="M7,30v1H8V29H7Z"/><polygon class="la156-4" points="16 19 15 19 15 20 14 20 14 19 13 19 13 21 16 21 16 19"/><path class="la156-4" d="M17,15H16v1h3V15H17Z"/><path class="la156-4" d="M11,15H10v1h3V15H11Z"/><path class="la156-5" d="M12,15h1V14H12Z"/><path class="la156-5" d="M11,14H10v1h1Z"/><path class="la156-5" d="M18,15h1V14H18Z"/><path class="la156-5" d="M17,14H16v1h1Z"/><path class="la156-1" d="M12,15V14H11v1Z"/><path class="la156-1" d="M18,15V14H17v1Z"/><path class="la156-6" d="M0,9V33H6V27H7V26H8V25h2V24h2V22H11V21H10V20H9V17H8V15H9V14H8V13H4V12H6V11H8V10h2V9h1V8h1V7h1V6h1V5h1V6h1V7h1V8h1V9h1v1h2v1h2v1h2v1H21v1H20v1h1v2H20v3H19v1H18v1H17v2h2v1h2v1h1v1h1v6h6V0H0Z"/><path class="la156-7" d="M11,14H21V13h4V12H23V11H21V10H19V9H18V8H17V7H16V6H15V5H14V6H13V7H12V8H11V9H10v1H8v1H6v1H4v1H8v1h3Z"/></svg>