<svg xmlns="http://www.w3.org/2000/svg" viewBox="0 0 29 33"><defs><style>polygon,rect,path{shape-rendering:crispedges;}.ga17-1{fill:#31a09d;}.ga17-2{fill:#000000;}.ga17-3{fill:#db5800;}.ga17-4{fill:#e8b795;}.ga17-5{fill:#ffffff;}.ga17-6{fill:#9b8100;}.ga17-7{fill:#9b8100;}.ga17-8{fill:#00774c;}</style></defs><rect class="ga17-1" x="12" y="8" width="1" height="1"/><path class="ga17-1" d="M0,33H6V27H7V26H8V25h2V24h2V21H11V20H10V19H9V16H8V15H9V11h1V10H9V9h1V8h2V7h1V8h3V9h1V8h1V9h1v1h1v5h1v1H20v3H19v1H18v1H17v3h2v1h2v1h1v1h1v6h6V0H0Z"/><path class="ga17-2" d="M23,27H22v6h1V27Z"/><rect class="ga17-2" x="21" y="26" width="1" height="1"/><path class="ga17-3" d="M22,27H21v6h1V27Z"/><path class="ga17-2" d="M21,27H20v6h1V27Z"/><path class="ga17-2" d="M20,26h1V25H19v1Z"/><path class="ga17-3" d="M20,27h1V26H19V25H17v1H16v1H13V26H12V25H10v1H9v7H20V27Z"/><path class="ga17-2" d="M18,25h1V24H17v1Z"/><rect class="ga17-2" x="16" y="25" width="1" height="1"/><path class="ga17-2" d="M13,26v1h3V26H13Z"/><path class="ga17-2" d="M13,23V22H12v2h1Z"/><path class="ga17-4" d="M13,25v1h3V25h1V24H16V23H13v1H12v1Z"/><rect class="ga17-2" x="12" y="25" width="1" height="1"/><path class="ga17-2" d="M12,24H10v1h2Z"/><path class="ga17-2" d="M9,26h1V25H8v1H7v1H8v6H9V26Z"/><path class="ga17-3" d="M8,27H7v6H8V27Z"/><path class="ga17-2" d="M7,27H6v6H7V27Z"/><rect class="ga17-2" x="20" y="15" width="1" height="1"/><rect class="ga17-4" x="15" y="20" width="1" height="1"/><rect class="ga17-4" x="18" y="12" width="1" height="1"/><path class="ga17-4" d="M10,17v1h1v1h1V18h2v1h1V18h2v1h1V18h1V16h1V15H16V14h2V13H16V12h2V11H17V10H16v1H11v1h1v1h1v2H9v1h1Zm4-1h1v1H14Z"/><path class="ga17-4" d="M10,14h2V13H10Z"/><rect class="ga17-4" x="13" y="20" width="1" height="1"/><path class="ga17-2" d="M19,17h1V16H19Z"/><path class="ga17-2" d="M16,23v1h1V22H16Z"/><path class="ga17-2" d="M10,14H9v1h1Z"/><path class="ga17-2" d="M10,16H9v1h1Z"/><rect class="ga17-2" x="8" y="15" width="1" height="1"/><rect class="ga17-2" x="14" y="16" width="1" height="1"/><path class="ga17-5" d="M12,15h1V14H12Z"/><path class="ga17-5" d="M10,14v1h1V14Z"/><path class="ga17-5" d="M18,14v1h1V14Z"/><path class="ga17-5" d="M16,14v1h1V14Z"/><path class="ga17-2" d="M11,14v1h1V14Z"/><path class="ga17-2" d="M17,14v1h1V14Z"/><rect class="ga17-6" x="18" y="13" width="1" height="1"/><rect class="ga17-6" x="16" y="12" width="2" height="1"/><path class="ga17-6" d="M13,14V13H12v1Z"/><path class="ga17-6" d="M10,13h2V12H10Z"/><path class="ga17-7" d="M15,18v1h1V18Z"/><path class="ga17-7" d="M13,23h3V22h1V21h1V20h1V19h1V17H19v1H18v1H16v2H15V20H14v1H13V19h1V18H12v1H11V18H10V17H9v2h1v1h1v1h1v1h1Z"/><path class="ga17-2" d="M14,19H13v1h3V19H14Z"/><path class="ga17-2" d="M16,18v1h1V18Z"/><path class="ga17-8" d="M10,13V12h1V11h5V10h1v1h1v1h1v3h1V10H19V9H18V8H17V9H16V8H13V9H12V8H10V9H9v1h1v1H9v3h1Z"/><rect class="ga17-8" x="12" y="7" width="1" height="1"/></svg>