<svg xmlns="http://www.w3.org/2000/svg" viewBox="0 0 29 33"><defs><style>polygon,rect,path{shape-rendering:crispedges;}.ma165-1{fill:#31a09d;}.ma165-2{fill:#000000;}.ma165-3{fill:#00af68;}.ma165-4{fill:#db5800;}.ma165-5{fill:#e8b795;}.ma165-6{fill:#ffb38d;}.ma165-7{fill:#ffffff;}.ma165-8{fill:#4922aa;}.ma165-9{fill:#4922aa;}.ma165-10{fill:#5a2de2;}</style></defs><path class="ma165-1" d="M0,33H6V27H7V26H8V25h2V24h2V21H9V20H8V19H9V16H8V15H9V11h1V10h1V9h2V7h1V5h1V6h1V8h1V9h1v1h1v1h1v4h1v1H20v3h1v1H20v1H17v3h2v1h2v1h1v1h1v6h6V0H0Z"/><path class="ma165-2" d="M23,27H22v6h1V27Z"/><rect class="ma165-2" x="21" y="26" width="1" height="1"/><path class="ma165-3" d="M21,28h1V27H21Z"/><path class="ma165-3" d="M21,31v1h1V30H21Z"/><path class="ma165-2" d="M21,31V27H20v6h1V31Z"/><path class="ma165-3" d="M18,26v2h1v1h1V27H19V25H18Z"/><path class="ma165-3" d="M19,31V30H18v2h1v1h1V31Z"/><path class="ma165-2" d="M20,26h1V25H19v1Z"/><path class="ma165-2" d="M18,31V25h1V24H17v1H16v1h1v7h1V31Z"/><path class="ma165-4" d="M17,26H16v1H13V26H12v7h5V26Z"/><path class="ma165-2" d="M13,26v1h3V26H13Z"/><path class="ma165-2" d="M13,23h3v1h1V21H16v1H13V21H12v3h1Z"/><path class="ma165-5" d="M13,25v1h3V25h1V24H16V23H13v1H12v1Z"/><path class="ma165-2" d="M12,26h1V25H12V24H10v1h1v8h1V26Z"/><path class="ma165-3" d="M10,26H9v2h1v1h1V27H10Z"/><path class="ma165-3" d="M10,31V30H9v2h1v1h1V31Z"/><path class="ma165-2" d="M10,26V25H8v1h2Z"/><path class="ma165-2" d="M9,31V27H8v6H9V31Z"/><rect class="ma165-2" x="7" y="26" width="1" height="1"/><path class="ma165-3" d="M8,29V27H7v2Z"/><path class="ma165-3" d="M7,31v2H8V31Z"/><path class="ma165-2" d="M7,30V27H6v6H7V30Z"/><path class="ma165-6" d="M21,29v1h1V28H21Z"/><path class="ma165-6" d="M21,32v1h1V32Z"/><path class="ma165-6" d="M19,26v1h2V26H19Z"/><path class="ma165-6" d="M19,28H18v2h1v1h1V29H19Z"/><path class="ma165-6" d="M18,32v1h1V32Z"/><path class="ma165-6" d="M10,27h1V25H10v2Z"/><path class="ma165-6" d="M10,28H9v2h1v1h1V29H10Z"/><path class="ma165-6" d="M9,32v1h1V32Z"/><path class="ma165-6" d="M9,27V26H8v1Z"/><path class="ma165-6" d="M7,30v1H8V29H7Z"/><rect class="ma165-2" x="20" y="15" width="1" height="1"/><path class="ma165-2" d="M19,14v1h1V11H19v3Z"/><path class="ma165-5" d="M13,22h3V21h1V19H16v1H13V19h3V18h1v1h1V18h1V16h1V15H16V14h2V13H16V12h2v1h1V11H18V10H14v1H13V10H11v1H10v1h2v1h1v2H9v1h1v2h1v1h1v2h1Zm1-6h1v1H14Z"/><path class="ma165-5" d="M10,14h2V13H10Z"/><rect class="ma165-2" x="18" y="10" width="1" height="1"/><path class="ma165-2" d="M17,20v1h1V20Z"/><path class="ma165-2" d="M15,10h3V9H15Z"/><path class="ma165-2" d="M13,9H11v1h2Z"/><path class="ma165-2" d="M11,20v1h1V20Z"/><rect class="ma165-2" x="10" y="10" width="1" height="1"/><rect class="ma165-2" x="8" y="15" width="1" height="1"/><rect class="ma165-2" x="14" y="16" width="1" height="1"/><path class="ma165-7" d="M18,14v1h1V14Z"/><path class="ma165-7" d="M12,15h1V14H12Z"/><path class="ma165-2" d="M17,14H16v1h2V14Z"/><path class="ma165-2" d="M12,15V14H10V11H9v4h3Z"/><path class="ma165-8" d="M19,13H18v1h1Z"/><rect class="ma165-8" x="16" y="12" width="2" height="1"/><path class="ma165-8" d="M13,14V13H12v1Z"/><path class="ma165-8" d="M12,13V12H10v1Z"/><path class="ma165-9" d="M19,17v1H18v1H17v1h1v1h2V20h1V19H20V16H19Z"/><path class="ma165-9" d="M12,20V19H11V18H10V16H9v3H8v1H9v1h2V20Z"/><rect class="ma165-2" x="13" y="19" width="3" height="1"/><rect class="ma165-2" x="16" y="18" width="1" height="1"/><path class="ma165-10" d="M13,11h1V10h1V9h2V8H16V6H15V5H14V7H13v4Z"/></svg>