<svg xmlns="http://www.w3.org/2000/svg" viewBox="0 0 29 33"><defs><style>polygon,rect,path{shape-rendering:crispedges;}.fb160-1{fill:#d4a122;}.fb160-2{fill:#000000;}.fb160-3{fill:#333333;}.fb160-4{fill:#990000;}.fb160-5{fill:#512a24;}.fb160-6{fill:#90a2a3;}.fb160-7{fill:#ffffff;}.fb160-8{fill:#99004d;}.fb160-9{fill:#99004d;}.fb160-10{fill:#ccc;}.fb160-11{fill:#004a77;}</style></defs><path class="fb160-1" d="M18,22v1h1V22h1V21H17v1Z"/><path class="fb160-1" d="M11,22h1V21H9v1h1v1h1Z"/><path class="fb160-1" d="M6,32V27H7V26H8V24H6V23H5V21H4V20H3V19H9V16H8V15H9V14H8V12H9V11H8V10H9V9H8V8h2V7h1V8h1V6h1V7h1V8h1V7h1V6h1V7h1V8h1V7h1V8H19V9h2v2H20v1h1v1H20v1h1v2H20v3h6v1H25v1H24v2H23v1H21v2h1v1h1v6h6V0H0V33H6Z"/><path class="fb160-2" d="M23,27H22v6h1V27Z"/><path class="fb160-3" d="M22,27H21v6h1V27Z"/><path class="fb160-2" d="M21,27h1V26H21V25H20v2H17v1h2v1h1v4h1V27Z"/><path class="fb160-3" d="M20,29H19v1H18v1H17v1H16v1h4V29Z"/><rect class="fb160-2" x="18" y="23" width="1" height="1"/><path class="fb160-3" d="M19,24H18v1H17v1H16v5h1V30h1V29h1V28H17V27h2V26h1V25H19Z"/><rect class="fb160-3" x="17" y="23" width="1" height="1"/><rect class="fb160-2" x="17" y="24" width="1" height="1"/><rect class="fb160-2" x="18" y="29" width="1" height="1"/><rect class="fb160-2" x="16" y="25" width="1" height="1"/><path class="fb160-4" d="M15,27H14v6h1V27Z"/><path class="fb160-5" d="M17,25V24H16V23H13v1H12v1h1v1h3V25Z"/><rect class="fb160-2" x="12" y="25" width="1" height="1"/><path class="fb160-3" d="M12,32V31H11V30H10V29H9v4h4V32Z"/><path class="fb160-2" d="M11,22v1h1v1h1V23h3v1h1V23h1V22H17V21H16v1H13V21H12v1Z"/><rect class="fb160-3" x="11" y="23" width="1" height="1"/><rect class="fb160-2" x="11" y="24" width="1" height="1"/><rect class="fb160-2" x="11" y="30" width="1" height="1"/><rect class="fb160-2" x="10" y="23" width="1" height="1"/><path class="fb160-3" d="M12,25H11V24H10v1H9v1h1v1h2v1H10v1h1v1h1v1h1V26H12Z"/><path class="fb160-2" d="M9,29h1V28h2V27H9V25H8v1H7v1H8v6H9V29Z"/><path class="fb160-3" d="M8,27H7v6H8V27Z"/><path class="fb160-2" d="M7,27H6v6H7V27Z"/><rect class="fb160-2" x="10" y="29" width="1" height="1"/><rect class="fb160-2" x="17" y="30" width="1" height="1"/><path class="fb160-2" d="M17,32V31H16V26H13v5H12v1h1v1h1V27h1v6h1V32Z"/><path class="fb160-6" d="M9,26v1h1V26Z"/><path class="fb160-6" d="M19,27h1V26H19Z"/><path class="fb160-2" d="M20,16h1V15H20Z"/><rect class="fb160-5" x="11" y="10" width="1" height="1"/><polygon class="fb160-5" points="18 11 18 10 17 10 17 11 16 11 16 12 18 12 18 11"/><rect class="fb160-5" x="10" y="11" width="1" height="1"/><path class="fb160-5" d="M10,17v1h1v1h1v2h1v1h3V21h1V19h1V18h1V16h1V15H16V14h2V13H16V12H15V10H14v1H13v1H12v1h1v2H9v1h1Zm4-1h1v1H14Zm0,3h1v1H14Z"/><path class="fb160-5" d="M10,13v1h2V13H10Z"/><path class="fb160-2" d="M18,20H17v1h1Z"/><path class="fb160-2" d="M12,20H11v1h1Z"/><rect class="fb160-2" x="8" y="15" width="1" height="1"/><rect class="fb160-2" x="14" y="16" width="1" height="1"/><path class="fb160-7" d="M18,14v1h1V14Z"/><path class="fb160-7" d="M12,15h1V14H12Z"/><path class="fb160-2" d="M17,14H16v1h2V14Z"/><path class="fb160-2" d="M11,14H10v1h2V14Z"/><rect class="fb160-8" x="18" y="13" width="1" height="1"/><rect class="fb160-8" x="16" y="12" width="2" height="1"/><path class="fb160-8" d="M13,14V13H12v1Z"/><path class="fb160-8" d="M11,13h1V12H11Z"/><path class="fb160-9" d="M19,17v1H18v1H17v1h1v1h2V20h1V19H20V16H19Z"/><path class="fb160-9" d="M9,20v1h2V20h1V19H11V18H10V16H9v3H8v1Z"/><rect class="fb160-2" x="14" y="19" width="1" height="1"/><path class="fb160-7" d="M10,24V22H9V20H8V19H3v1H7v1H5v1H8v1H6v1h4Z"/><path class="fb160-10" d="M8,22H5v1H8Z"/><path class="fb160-10" d="M7,20H4v1H7Z"/><path class="fb160-10" d="M22,20v1h3V20H22Z"/><path class="fb160-10" d="M21,22v1h3V22H21Z"/><path class="fb160-7" d="M20,20v2H19v2h4V23H21V22h3V21H22V20h4V19H21v1Z"/><path class="fb160-10" d="M9,24H8v1H9Z"/><path class="fb160-10" d="M20,25h1V24H20Z"/><path class="fb160-2" d="M19,24v1h1V24Z"/><path class="fb160-2" d="M10,24H9v1h1Z"/><path class="fb160-11" d="M10,14V13h1V12H10V11h1V10h1v1H11v1h2V11h1V10h1v2h1V11h1V10h1v3h1v2h2V14H20V13h1V12H20V11h1V9H19V8H18V7H17V6H16V7H15V8H14V7H13V6H12V8H11V7H10V8H8V9H9v1H8v1H9v1H8v2H9v1h1Z"/><rect class="fb160-11" x="19" y="7" width="1" height="1"/></svg>