<svg xmlns="http://www.w3.org/2000/svg" viewBox="0 0 29 33"><defs><style>polygon,rect,path{shape-rendering:crispedges;}.xa6-1{fill:#d4a122;}.xa6-2{fill:#94d4ff;}.xa6-3{fill:#000000;}.xa6-4{fill:#efcaaf;}.xa6-5{fill:#00af68;}.xa6-6{fill:#ffffff;}.xa6-7{fill:#cc3232;}.xa6-8{fill:#508e91;}</style></defs><path class="xa6-1" d="M0,33H6V27H7V26H8V25h2V22h1V20H10V19H9V18H8V12H9V10h1V9h1V8h7V9h1v1h1v4h1v2H20v3H19v1H18v2h1v3h2v1h1v1h1v6h6V0H0Z"/><path class="xa6-2" d="M19,26v1H18V26H17V25h1V23H17v1H16v2H15v1H14v3h1v1h3V30h1v1h1V29H19V28h1V27h1V26H19Zm-1,3H17v1H16V29H15V28h1V27h1v1h1Z"/><path class="xa6-2" d="M21,30v1h1V29H21Z"/><rect class="xa6-2" x="21" y="32" width="1" height="1"/><rect class="xa6-2" x="21" y="27" width="1" height="1"/><path class="xa6-2" d="M17,32H15v1h3V32Z"/><rect class="xa6-2" x="9" y="32" width="1" height="1"/><rect class="xa6-2" x="19" y="32" width="1" height="1"/><path class="xa6-2" d="M13,32H11v1h3V32Z"/><path class="xa6-2" d="M7,30v1H8V29H7Z"/><rect class="xa6-2" x="7" y="27" width="1" height="1"/><rect class="xa6-2" x="7" y="32" width="1" height="1"/><path class="xa6-2" d="M9,27v1h1v1H9v2h1V30h1v1h2V30H12V29H11V28h1V27h2V26H13V24H12V23H11v2h1v1H11v1H10V26H8v1Z"/><path class="xa6-3" d="M23,27H22v6h1V27Z"/><rect class="xa6-3" x="21" y="26" width="1" height="1"/><path class="xa6-3" d="M21,31V27H20v4H14V27H13v4H9V27H8v6H9V32H20v1h1V31Z"/><path class="xa6-3" d="M20,26h1V25H19v1Z"/><path class="xa6-3" d="M18,24v1h1V22H18v2Z"/><path class="xa6-3" d="M15,25h1V24H15Z"/><path class="xa6-3" d="M15,26V25H14v2h1Z"/><path class="xa6-3" d="M14,24H13v1h1Z"/><path class="xa6-4" d="M14,25h1V24h1V23H13v1h1Z"/><path class="xa6-3" d="M11,24V22H10v3h1Z"/><path class="xa6-3" d="M10,25H8v1h2Z"/><rect class="xa6-3" x="7" y="26" width="1" height="1"/><path class="xa6-3" d="M7,31V27H6v6H7V31Z"/><path class="xa6-3" d="M20,16h1V15H20Z"/><path class="xa6-4" d="M12,15H10v1h3V15Z"/><path class="xa6-4" d="M19,16V15H16v1h3Z"/><rect class="xa6-4" x="14" y="15" width="1" height="1"/><path class="xa6-4" d="M14,14h2V13h3V11H18V10H16v1H14v1H13v2Z"/><path class="xa6-4" d="M12,21h1v1h3V21h1V20h1V19h1V17H16V16H15v1H14V16H13v1H10v2h1v1h1Zm0-3h1v1h3v1H13V19H12Z"/><path class="xa6-3" d="M19,17v2h1V16H19Z"/><rect class="xa6-3" x="18" y="19" width="1" height="1"/><path class="xa6-3" d="M12,23v1h1V23h3v1h1V22h1V20H17v1H16v1H13V21H12V20H11v2h1Z"/><rect class="xa6-3" x="10" y="19" width="1" height="1"/><path class="xa6-3" d="M10,16H9v3h1V16Z"/><rect class="xa6-3" x="14" y="16" width="1" height="1"/><path class="xa6-5" d="M10,30v1h1V30Z"/><path class="xa6-5" d="M10,32v1h1V32Z"/><path class="xa6-5" d="M12,28H11v1h1v1h1V27H12Z"/><polygon class="xa6-5" points="10 27 11 27 11 26 12 26 12 25 11 25 10 25 10 26 10 27"/><path class="xa6-5" d="M15,26h1V25H15Z"/><path class="xa6-5" d="M13,25v1h1V25Z"/><polygon class="xa6-5" points="17 27 16 27 16 28 15 28 15 29 16 29 16 30 17 30 17 29 18 29 18 28 17 28 17 27"/><polygon class="xa6-5" points="17 25 17 26 18 26 18 27 19 27 19 26 19 25 18 25 17 25"/><path class="xa6-5" d="M7,29H8V28H7Z"/><path class="xa6-5" d="M10,28H9v1h1Z"/><path class="xa6-5" d="M21,29h1V28H21Z"/><path class="xa6-5" d="M19,29h1V28H19Z"/><path class="xa6-5" d="M21,32h1V31H21Z"/><path class="xa6-5" d="M7,32H8V31H7Z"/><path class="xa6-5" d="M14,30v1h1V30Z"/><path class="xa6-5" d="M14,32v1h1V32Z"/><path class="xa6-5" d="M18,30v1h1V30Z"/><path class="xa6-5" d="M18,32v1h1V32Z"/><path class="xa6-5" d="M12,23V22H11v1Z"/><path class="xa6-5" d="M17,23h1V22H17Z"/><rect class="xa6-6" x="12" y="14" width="1" height="1"/><path class="xa6-6" d="M11,14H10v1h1Z"/><path class="xa6-6" d="M18,15h1V14H18Z"/><path class="xa6-6" d="M16,14v1h1V14Z"/><path class="xa6-3" d="M11,14v1h1V14Z"/><path class="xa6-3" d="M17,14v1h1V14Z"/><rect class="xa6-3" x="13" y="19" width="3" height="1"/><rect class="xa6-3" x="12" y="18" width="1" height="1"/><path class="xa6-7" d="M9,15H8v3H9V15Z"/><path class="xa6-7" d="M10,13h3V12h1V11h2V10h2v1h1v3h1V10H19V9H18V8H11V9H10v1H9v2H8v2h2Z"/><path class="xa6-8" d="M19,15v1h1V15h1V14H19Z"/><path class="xa6-8" d="M18,16H16v1h3V16Z"/><path class="xa6-8" d="M12,14h1V13H10v1h2Z"/><path class="xa6-8" d="M16,13v1h3V13H16Z"/><path class="xa6-8" d="M16,14H13v2h1V15h1v1h1V14Z"/><path class="xa6-8" d="M10,16v1h3V16H10Z"/><path class="xa6-8" d="M9,16h1V14H8v1H9Z"/></svg>