<svg xmlns="http://www.w3.org/2000/svg" viewBox="0 0 29 33"><defs><style>polygon,rect,path{shape-rendering:crispedges;}.wa201-1{fill:#397d98;}.wa201-2{fill:#00af68;}.wa201-3{fill:#000000;}.wa201-4{fill:#b2622b;}.wa201-5{fill:#ffffff;}.wa201-6{fill:#ffffff;}.wa201-7{fill:#326b43;}.wa201-8{fill:#db5800;}.wa201-9{fill:#fad000;}.wa201-10{fill:#cbed03;}.wa201-11{fill:#304400;}</style></defs><path class="wa201-1" d="M0,33H6V27H7V26H8V25h2V22h1V20H10V19H9V17H8V15H9V11h1V10h1V9h7v1h1v1h1v4h1v2H20v2H19v1H18v2h1v3h2v1h1v1h1v6h6V0H0Z"/><rect class="wa201-2" x="17" y="22" width="1" height="1"/><path class="wa201-2" d="M18,24H16v1H15v2H14v1h1v1H14v2h2V30h1v1h3V26H19V25H18Zm-1,3H16V26h1Zm2,1v1H18V28Z"/><path class="wa201-2" d="M21,31v2h1V31Z"/><path class="wa201-2" d="M21,28v2h1V27H21Z"/><path class="wa201-2" d="M18,32H15v1h4V32Z"/><path class="wa201-2" d="M13,32H10v1h4V32Z"/><path class="wa201-2" d="M7,31v2H8V31Z"/><path class="wa201-2" d="M7,30H8V27H7v3Z"/><path class="wa201-2" d="M9,26v5h3V30h1V27H12V26h1v1h1V25H13V24H11v1H10v1Zm2,2v1H10V28Z"/><rect class="wa201-2" x="11" y="22" width="1" height="1"/><path class="wa201-3" d="M23,27H22v6h1V27Z"/><rect class="wa201-3" x="21" y="26" width="1" height="1"/><path class="wa201-3" d="M21,30V27H20v4H14V27H13v4H9V27H8v6H9V32H20v1h1V30Z"/><path class="wa201-3" d="M20,26h1V25H19v1Z"/><path class="wa201-3" d="M18,24v1h1V22H18v2Z"/><path class="wa201-3" d="M17,22h1V21H17Z"/><path class="wa201-3" d="M17,24V22H16v2Z"/><rect class="wa201-3" x="15" y="24" width="1" height="1"/><path class="wa201-3" d="M15,26V25H14v2h1Z"/><rect class="wa201-3" x="13" y="24" width="1" height="1"/><path class="wa201-4" d="M15,24h1V23H13v1h1v1h1Z"/><path class="wa201-3" d="M12,21H11v1h1Z"/><path class="wa201-3" d="M11,24V22H10v3h1Z"/><path class="wa201-3" d="M10,26V25H8v1h2Z"/><rect class="wa201-3" x="7" y="26" width="1" height="1"/><path class="wa201-3" d="M7,30V27H6v6H7V30Z"/><path class="wa201-3" d="M21,16V15H20v1Z"/><path class="wa201-3" d="M19,13v1H17v1h3V11H19v2Z"/><rect class="wa201-4" x="9" y="15" width="1" height="1"/><path class="wa201-4" d="M13,21h3V20H13Z"/><path class="wa201-4" d="M15,10v5H14v1h1v1H14V16H13v1H11V16H10v2h1v1h1V18h1v1h3v1h1V19h1V18h1V16h1V15H16V14h3V13H16V12h3V11H18V10H15Z"/><rect class="wa201-4" x="12" y="19" width="1" height="1"/><rect class="wa201-3" x="18" y="10" width="1" height="1"/><path class="wa201-3" d="M13,22H12v2h1V22Z"/><path class="wa201-3" d="M9,15H8v1H9Z"/><rect class="wa201-3" x="14" y="16" width="1" height="1"/><rect class="wa201-5" x="10" y="28" width="1" height="1"/><path class="wa201-5" d="M12,31h1V30H12Z"/><path class="wa201-5" d="M15,28H14v1h1Z"/><path class="wa201-5" d="M14,32v1h1V32Z"/><rect class="wa201-5" x="12" y="26" width="1" height="1"/><path class="wa201-5" d="M16,30v1h1V30Z"/><rect class="wa201-5" x="18" y="28" width="1" height="1"/><rect class="wa201-5" x="16" y="26" width="1" height="1"/><path class="wa201-5" d="M9,27V26H8v1Z"/><path class="wa201-5" d="M19,32v1h1V32Z"/><path class="wa201-5" d="M9,32v1h1V32Z"/><path class="wa201-5" d="M7,31H8V30H7Z"/><path class="wa201-5" d="M21,31h1V30H21Z"/><path class="wa201-5" d="M20,27h1V26H20Z"/><path class="wa201-5" d="M11,23v1h1V23Z"/><path class="wa201-5" d="M18,24V23H17v1Z"/><path class="wa201-6" d="M16,14v1h1V14Z"/><path class="wa201-7" d="M16,12v1h3V12Z"/><path class="wa201-8" d="M12,22h1v1h3V22h1V21h1V20h1V19h1V16H19v2H18v1H17v1H16v1H13V20H12V19H11V18H10V16H9v3h1v1h1v1h1Z"/><rect class="wa201-3" x="13" y="19" width="3" height="1"/><rect class="wa201-3" x="12" y="18" width="1" height="1"/><path class="wa201-9" d="M20,17h1V16H20Z"/><path class="wa201-9" d="M8,16v1H9V16Z"/><path class="wa201-10" d="M11,15h2V13H11v2Z"/><path class="wa201-11" d="M14,15V13H13v2Z"/><path class="wa201-11" d="M12,15H11v1h2V15Z"/><path class="wa201-11" d="M11,14V13H10v2h1Z"/><rect class="wa201-11" x="11" y="12" width="2" height="1"/><rect class="wa201-3" x="10" y="15" width="1" height="1"/><rect class="wa201-3" x="11" y="16" width="2" height="1"/><rect class="wa201-3" x="13" y="15" width="1" height="1"/><path class="wa201-3" d="M10,14V13h1V12h2v1h1v2h1V10h3V9H11v1H10v1H9v4h1Z"/></svg>