<svg xmlns="http://www.w3.org/2000/svg" viewBox="0 0 29 33"><defs><style>polygon,rect,path{shape-rendering:crispedges;}.va33-1{fill:#db5a8e;}.va33-2{fill:#000000;}.va33-3{fill:#3f2f17;}.va33-4{fill:#e8b795;}.va33-5{fill:#8c7850;}.va33-6{fill:#ffffff;}.va33-7{fill:#9b8100;}.va33-8{fill:#280000;}.va33-9{fill:#ff5e17;}.va33-10{fill:#560000;}.va33-11{fill:#900;}.va33-12{fill:#fad000;}</style></defs><rect class="va33-1" x="9" y="25" width="1"/><rect class="va33-1" x="9" y="19" width="1" height="1"/><path class="va33-1" d="M6,32V27H5V26H6V25H5V24H4V21H5V20H6V19H9V16H8V15H9V11h1V10h1V9h7v1h1v1h1v4h1v1H20v3H19v1H18v2h1v3h2v1h1v1h1v6h6V0H0V33H6Z"/><rect class="va33-1" x="10" y="20" width="1" height="1"/><path class="va33-2" d="M7,31V28H7V27H6v6H7V31Z"/><path class="va33-2" d="M23,27H22v6h1V27Z"/><rect class="va33-2" x="21" y="26" width="1" height="1"/><path class="va33-3" d="M21,31v2h1V31Z"/><path class="va33-3" d="M21,28v2h1V27H21Z"/><path class="va33-2" d="M21,30V27H20v4H14V27H13v4H9V27H8v1H8v5H9V32H20v1h1V30Z"/><path class="va33-2" d="M20,26h1V25H19v1Z"/><path class="va33-3" d="M13,32H10v1h4V32Z"/><path class="va33-3" d="M18,32H15v1h4V32Z"/><path class="va33-2" d="M18,24v1h1V22H18v2Z"/><path class="va33-3" d="M17,23h1V22H17Z"/><path class="va33-3" d="M18,24H16v1H15v2H14v1h1v1H14v2h2V30h1v1h3V26H19V25H18Zm-1,3H16V26h1Zm2,1v1H18V28Z"/><rect class="va33-2" x="15" y="24" width="1" height="1"/><path class="va33-2" d="M15,26V25H14v2h1Z"/><path class="va33-4" d="M14,25h1V24h1V23H13v1h1Z"/><rect class="va33-2" x="13" y="24" width="1" height="1"/><polygon class="va33-2" points="10 24 10 25 10 25 11 25 11 24 11 24 10 24"/><path class="va33-3" d="M13,25V24H11v1H10v2H9v4h3V30h1V27H12V26h1v1h1V25Zm-2,4H10V28h1Z"/><polygon class="va33-3" points="12 23 12 22 11 22 11 23 12 23"/><path class="va33-3" d="M7,29v2H8V28H7Z"/><path class="va33-3" d="M7,32v1H8V32Z"/><rect class="va33-2" x="20" y="15" width="1" height="1"/><rect class="va33-4" x="12" y="13" width="1" height="1"/><path class="va33-4" d="M10,17v2h1v1h1v1h1v1h3V21h1V20h1V19h1V17H18V16H16V15H15v2H14V15H9v1h1Zm3,2h3V18h1v1H16v1H13Z"/><rect class="va33-4" x="19" y="15" width="1" height="1"/><path class="va33-2" d="M19,17v2h1V16H19Z"/><rect class="va33-2" x="18" y="19" width="1" height="1"/><path class="va33-2" d="M17,21H16v1H13V21H12V20H11v1H10v1h2v2h1V23h3v1h1V22h1V20H17Z"/><rect class="va33-2" x="8" y="15" width="1" height="1"/><path class="va33-2" d="M14,17h1V16H14Z"/><rect class="va33-5" x="18" y="28" width="1" height="1"/><path class="va33-5" d="M16,30v1h1V30Z"/><path class="va33-5" d="M15,28H14v1h1Z"/><path class="va33-5" d="M14,32v1h1V32Z"/><rect class="va33-5" x="16" y="26" width="1" height="1"/><path class="va33-5" d="M12,31h1V30H12Z"/><rect class="va33-5" x="10" y="28" width="1" height="1"/><polygon class="va33-5" points="7 28 8 28 8 28 7 28 7 28"/><rect class="va33-5" x="12" y="26" width="1" height="1"/><path class="va33-5" d="M20,27h1V26H20Z"/><path class="va33-5" d="M9,32v1h1V32Z"/><path class="va33-5" d="M19,32v1h1V32Z"/><path class="va33-5" d="M21,31h1V30H21Z"/><path class="va33-5" d="M7,32H8V31H7Z"/><path class="va33-5" d="M11,24h1V23H11Z"/><path class="va33-5" d="M18,23H17v1h1Z"/><path class="va33-6" d="M12,14v1h1V14Z"/><path class="va33-2" d="M11,14H10v1h2V14Z"/><rect class="va33-2" x="13" y="19" width="3" height="1"/><rect class="va33-2" x="16" y="18" width="1" height="1"/><path class="va33-7" d="M10,14h2V13h1v2h1v1h1V15h1v1h2v1h1V15h1V11H19V10H18V9H11v1H10v1H9v4h1Z"/><path class="va33-4" d="M7,27v1H8V27H9V26H6v1Z"/><polygon class="va33-2" points="5 26 5 27 6 27 6 26 5 26"/><path class="va33-2" d="M10,26V25H9v2h1Z"/><path class="va33-8" d="M6,22V21H7V19H6v1H5v2Z"/><path class="va33-8" d="M9,25h1V23H9v1H8v2H9V25Z"/><rect class="va33-9" x="6" y="24" width="1" height="1"/><polygon class="va33-2" points="10 21 10 20 11 20 11 19 10 19 10 20 9 20 9 21 10 21"/><path class="va33-10" d="M10,24h1V22H10v2Z"/><polygon class="va33-11" points="9 22 9 23 10 23 10 22 10 21 9 21 9 22"/><rect class="va33-9" x="8" y="20" width="1" height="1"/><path class="va33-10" d="M5,22V21H4v2H5Z"/><path class="va33-11" d="M6,23V22H5v2H6Z"/><path class="va33-2" d="M8,25H6v1H8Z"/><path class="va33-2" d="M8,20H9V19h1V16H9v3H7v1Z"/><path class="va33-12" d="M8,20H7v1H8Z"/><polygon class="va33-12" points="6 21 6 22 6 23 6 24 7 24 7 21 6 21"/><path class="va33-12" d="M7,24v1H8V24Z"/><polygon class="va33-12" points="9 21 8 21 8 24 9 24 9 23 9 22 9 21"/><rect class="va33-10" x="7" y="21" width="1" height="3"/><rect class="va33-2" x="5" y="24" width="1" height="1"/><path class="va33-2" d="M4,23v1H5V23Z"/></svg>