<svg xmlns="http://www.w3.org/2000/svg" viewBox="0 0 29 33"><defs><style>polygon,rect,path{shape-rendering:crispedges;}.ha261-1{fill:#31a09d;}.ha261-2{fill:#000000;}.ha261-3{fill:#317f03;}.ha261-4{fill:#e8b795;}.ha261-5{fill:#72dd40;}.ha261-6{fill:#99004d;}.ha261-7{fill:#99004d;}.ha261-8{fill:#99004d;}.ha261-9{fill:#cc2f76;}</style></defs><path class="ha261-1" d="M0,33H6V27H7V26H8V25h2V24h2V22H11V21H10V20H9V16H8V15H9V11h1V10h1V9h7v1h1v1h1v4h1v1H20v4H19v1H18v1H17v2h2v1h2v1h1v1h1v6h6V0H0Z"/><path class="ha261-2" d="M23,27H22v6h1V27Z"/><rect class="ha261-2" x="21" y="26" width="1" height="1"/><path class="ha261-3" d="M22,27H21v6h1V27Z"/><path class="ha261-2" d="M21,27H20v6h1V27Z"/><path class="ha261-2" d="M20,26h1V25H19v1Z"/><path class="ha261-3" d="M15,29H14v2h1V29Z"/><rect class="ha261-3" x="18" y="29" width="1" height="1"/><path class="ha261-3" d="M19,32V31H18v1H17V29h1V28h1v1h1V27h1V26H19V25H17v1H16v1H13V26H12V25H10v1H9v3h1V28h1v1h1v3H11V31H10v1H9v1H20V32Zm-3-2v1H15v1H13V28h2v1h1Z"/><rect class="ha261-3" x="10" y="29" width="1" height="1"/><path class="ha261-2" d="M18,25h1V24H17v1Z"/><rect class="ha261-2" x="16" y="25" width="1" height="1"/><path class="ha261-2" d="M13,26v1h3V26H13Z"/><path class="ha261-2" d="M13,23V22H12v2h1Z"/><path class="ha261-4" d="M13,25v1h3V25h1V24H16V23H13v1H12v1Z"/><rect class="ha261-2" x="12" y="25" width="1" height="1"/><path class="ha261-2" d="M12,24H10v1h2Z"/><path class="ha261-2" d="M9,31V26h1V25H8v1H7v1H8v6H9V31Z"/><path class="ha261-3" d="M8,27H7v6H8V27Z"/><path class="ha261-2" d="M7,27H6v6H7V27Z"/><path class="ha261-5" d="M19,30H18V29H17v3h1V31h1v1h1V29H19Z"/><rect class="ha261-5" x="18" y="28" width="1" height="1"/><path class="ha261-5" d="M15,30v1h1V29H15Z"/><path class="ha261-5" d="M14,30V29h1V28H13v4h2V31H14Z"/><path class="ha261-5" d="M9,32h1V31h1v1h1V29H11v1H10V29H9v3Z"/><rect class="ha261-5" x="10" y="28" width="1" height="1"/><rect class="ha261-2" x="20" y="15" width="1" height="1"/><path class="ha261-2" d="M19,14H18v1h2V11H19v3Z"/><rect class="ha261-4" x="13" y="20" width="1" height="1"/><rect class="ha261-4" x="15" y="20" width="1" height="1"/><rect class="ha261-4" x="10" y="13" width="1" height="1"/><path class="ha261-4" d="M10,17v1h1v1h1V18h2v1h1V18h2v1h1V18h1V16h1V15H18v1H16V15H15V14H14v1H13v1H11V15H9v1h1Zm4-1h1v1H14Z"/><path class="ha261-4" d="M12,12v1h4V12h2v1h1V11H18V10H11v1H10v1Z"/><rect class="ha261-2" x="18" y="10" width="1" height="1"/><path class="ha261-2" d="M16,23v1h1V22H16Z"/><path class="ha261-2" d="M18,10V9H11v1h7Z"/><rect class="ha261-2" x="10" y="10" width="1" height="1"/><rect class="ha261-2" x="8" y="15" width="1" height="1"/><rect class="ha261-2" x="14" y="16" width="1" height="1"/><rect class="ha261-6" x="18" y="13" width="1" height="1"/><path class="ha261-6" d="M18,12H16v1h2Z"/><path class="ha261-6" d="M12,13V12H10v1h2Z"/><path class="ha261-7" d="M15,18v1h1V18Z"/><path class="ha261-7" d="M13,23h3V22h2V21h1V20h1V16H19v2H18v1H16v2H15V20H14v1H13V19h1V18H12v1H11V18H10V16H9v4h1v1h1v1h2Z"/><path class="ha261-2" d="M14,19H13v1h3V19H14Z"/><path class="ha261-2" d="M16,18v1h1V18Z"/><path class="ha261-8" d="M12,14H11v1h2V14Z"/><path class="ha261-8" d="M17,14H16v1h2V14Z"/><path class="ha261-9" d="M11,16h2V15H11Z"/><path class="ha261-2" d="M11,14H10V11H9v4h2Z"/><path class="ha261-2" d="M17,14h1V13H11v1h2v1h1V14h1v1h1V14Z"/><path class="ha261-9" d="M16,16h2V15H16Z"/></svg>