<svg xmlns="http://www.w3.org/2000/svg" viewBox="0 0 29 33"><defs><style>polygon,rect,path{shape-rendering:crispedges;}.eb14-1{fill:#d4a122;}.eb14-2{fill:#000000;}.eb14-3{fill:#326b43;}.eb14-4{fill:#d8be00;}.eb14-5{fill:#ce8452;}.eb14-6{fill:#90a2a3;}.eb14-7{fill:#492a23;}.eb14-8{fill:#cc2f76;}.eb14-9{fill:#4922aa;}.eb14-10{fill:#68aaad;}.eb14-11{fill:#455054;}.eb14-12{fill:#002b4f;}.eb14-13{fill:#ff1f4a;}.eb14-14{fill:#ffffff;}</style></defs><path class="eb14-1" d="M0,33H8V32H6V31H5V22H6V21H7V20H5v1H2V17H5V16H8V15H9V10h1V9h1V8h7V9h1v1h1v5h1v1H20v3H19v1H18v1H17v1h1v1h1v1h1v1h1v1h1v1h1v6h6V0H0Z"/><rect class="eb14-1" x="8" y="24" width="1" height="1"/><path class="eb14-1" d="M8,19v3H9v2h1V23h1V22h1V21H11V20H10V19H9V16H8v3Z"/><path class="eb14-2" d="M23,27H22v6h1V27Z"/><path class="eb14-3" d="M22,27H21v6h1V27Z"/><path class="eb14-2" d="M21,27h1V26H21V25H20v2H17v1h2v1h1v4h1V27Z"/><rect class="eb14-2" x="19" y="24" width="1" height="1"/><path class="eb14-3" d="M20,29H19v1H18v1H17v1H16v1h4V29Z"/><rect class="eb14-2" x="18" y="23" width="1" height="1"/><path class="eb14-3" d="M18,25H17v1H16v5h1V30h1V29h1V28H17V27h2V26h1V25H19V24H18Z"/><rect class="eb14-2" x="18" y="29" width="1" height="1"/><rect class="eb14-3" x="17" y="23" width="1" height="1"/><rect class="eb14-2" x="17" y="24" width="1" height="1"/><rect class="eb14-2" x="17" y="30" width="1" height="1"/><rect class="eb14-2" x="16" y="25" width="1" height="1"/><path class="eb14-2" d="M17,32V31H16V26H13v5H12v1h1v1h1V27h1v6h1V32Z"/><path class="eb14-4" d="M15,27H14v6h1V27Z"/><path class="eb14-2" d="M12,24h1V22H11v1h1Z"/><path class="eb14-5" d="M17,25V24H16V23H13v1H12v1h1v1h3V25Z"/><rect class="eb14-2" x="12" y="25" width="1" height="1"/><path class="eb14-3" d="M12,32V31H11V30H10V29H9v4h4V32Z"/><rect class="eb14-3" x="11" y="23" width="1" height="1"/><rect class="eb14-2" x="11" y="24" width="1" height="1"/><rect class="eb14-2" x="11" y="30" width="1" height="1"/><rect class="eb14-2" x="10" y="23" width="1" height="1"/><rect class="eb14-2" x="10" y="29" width="1" height="1"/><rect class="eb14-2" x="9" y="24" width="1" height="1"/><path class="eb14-3" d="M12,25H11V24H10v1H9v1h1v1h2v1H10v1h1v1h1v1h1V26H12Z"/><path class="eb14-2" d="M9,29h1V28h2V27H9V25H8V24H7v7H6v1H8v1H9V29Z"/><path class="eb14-3" d="M7,30V24H6v7H7Z"/><path class="eb14-2" d="M6,24V22H5v9H6V24Z"/><path class="eb14-6" d="M9,26v1h1V26Z"/><path class="eb14-6" d="M19,27h1V26H19Z"/><rect class="eb14-2" x="20" y="15" width="1" height="1"/><rect class="eb14-5" x="19" y="15" width="1" height="1"/><path class="eb14-5" d="M13,13h1v1h1V13h1V12h3V11H18V10H17v1H14V10H13v1H12V10H11v1H10v1h3Z"/><rect class="eb14-5" x="16" y="19" width="1" height="1"/><rect class="eb14-5" x="9" y="15" width="1" height="1"/><path class="eb14-5" d="M13,21h3V20H13Z"/><path class="eb14-5" d="M11,18v1h1v1h1V19h3V18h1v1h1V18h1V16H16V15H13v1H10v2Zm3-2h1v1H14Z"/><path class="eb14-2" d="M16,23v1h1V23h1V22H16Z"/><rect class="eb14-2" x="8" y="15" width="1" height="1"/><rect class="eb14-2" x="14" y="16" width="1" height="1"/><path class="eb14-7" d="M13,13V12H10v1h3Z"/><path class="eb14-7" d="M16,13h3V12H16Z"/><path class="eb14-8" d="M19,17v1H18v1H17v1H16v1H13V20H12V19H11V18H10V16H9v3h1v1h1v1h1v1h1v1h3V22h1V21h1V20h1V19h1V16H19Z"/><rect class="eb14-2" x="13" y="19" width="3" height="1"/><rect class="eb14-2" x="16" y="18" width="1" height="1"/><path class="eb14-9" d="M10,13V11h1V10h1v1h1V10h1v1h3V10h1v1h1v3h1V10H19V9H18V8H11V9H10v1H9v4h1Z"/><path class="eb14-10" d="M13,16V15h1V14H10v2h3Z"/><path class="eb14-10" d="M15,14v1h1v1h3V14H15Z"/><path class="eb14-2" d="M16,13H15v1h4V13H16Z"/><path class="eb14-2" d="M14,14V13H10v1h4Z"/><path class="eb14-2" d="M19,15h1V14H19Z"/><path class="eb14-2" d="M10,14H9v1h1Z"/><path class="eb14-2" d="M14,14v1h1V14Z"/><path class="eb14-5" d="M7,24H8V22H6v2Z"/><path class="eb14-11" d="M8,22V20H7v2Z"/><path class="eb14-2" d="M7,21H6v1H7Z"/><path class="eb14-2" d="M9,22H8v2H9Z"/><path class="eb14-12" d="M3,17H2v4H4V17Z"/><path class="eb14-13" d="M8,19V16H6v4H8Z"/><path class="eb14-14" d="M5,16v1H4v4H5V20H6V16Z"/></svg>