<svg xmlns="http://www.w3.org/2000/svg" viewBox="0 0 29 33"><defs><style>polygon,rect,path{shape-rendering:crispedges;}.ma296-1{fill:#397d98;}.ma296-2{fill:#000000;}.ma296-3{fill:#844f4f;}.ma296-4{fill:#0079bc;}.ma296-5{fill:#e8b795;}.ma296-6{fill:#ffffff;}.ma296-7{fill:#7f5018;}.ma296-8{fill:#7f5018;}.ma296-9{fill:#cc3232;}</style></defs><path class="ma296-1" d="M0,33H8V32H6V31H5V23H4V20H5V19H7v1H8v1H9v2H8v2h2V24h2V21H11V20H10V19H9V16H8V15H9V11h1V10h1V9h7v1h2v5h1v1H20v3H19v1H18v1H17v3h2v1h2v1h1v1h1v6h6V0H0Z"/><path class="ma296-2" d="M6,24V23H5v8H6V24Z"/><path class="ma296-2" d="M23,27H22v6h1V27Z"/><path class="ma296-3" d="M22,27H21v6h1V27Z"/><rect class="ma296-2" x="21" y="26" width="1" height="1"/><path class="ma296-2" d="M21,27H20v6h1V27Z"/><path class="ma296-3" d="M20,27h1V26H19V25H18v8h2V27Z"/><path class="ma296-2" d="M20,26h1V25H19v1Z"/><path class="ma296-2" d="M18,25h1V24H17v1H16v1h1v7h1V25Z"/><path class="ma296-4" d="M17,26H16v1H13V26H12v7h5V26Z"/><path class="ma296-2" d="M13,26v1h3V26H13Z"/><path class="ma296-5" d="M13,25v1h3V25h1V24H16V23H13v1H12v1Z"/><path class="ma296-2" d="M13,23h3v1h1V21H16v1H13V21H12v3h1Z"/><path class="ma296-2" d="M12,26h1V25H12V24H10v1h1v8h1V26Z"/><path class="ma296-3" d="M11,25H10v1H8v1H9v6h2V25Z"/><path class="ma296-2" d="M9,27H8V26h2V25H8V23H7v8H6v1H8v1H9V27Z"/><path class="ma296-3" d="M7,30V24H6v7H7Z"/><rect class="ma296-2" x="20" y="15" width="1" height="1"/><path class="ma296-2" d="M19,13v2h1V12H19Z"/><path class="ma296-5" d="M13,20v2h3V20Z"/><path class="ma296-5" d="M12,19V18h5v2h1V19h1V16h1V15H16V14H14v2h1v1H14V16H13v1H11V16H10v3h1v1h1Z"/><path class="ma296-5" d="M16,13V12h1V11H16V10H13v1H12v2h1v1h1V13Z"/><path class="ma296-5" d="M10,13v1h2V13Z"/><path class="ma296-5" d="M18,14V13H16v1h2Z"/><rect class="ma296-5" x="18" y="12" width="1" height="1"/><rect class="ma296-5" x="11" y="10" width="1" height="1"/><rect class="ma296-5" x="10" y="11" width="1" height="1"/><rect class="ma296-5" x="9" y="15" width="1" height="1"/><rect class="ma296-5" x="17" y="10" width="1" height="1"/><path class="ma296-2" d="M19,17v2h1V16H19Z"/><rect class="ma296-2" x="18" y="19" width="1" height="1"/><rect class="ma296-2" x="17" y="20" width="1" height="1"/><rect class="ma296-2" x="11" y="20" width="1" height="1"/><rect class="ma296-2" x="10" y="19" width="1" height="1"/><path class="ma296-2" d="M10,16H9v3h1V16Z"/><rect class="ma296-2" x="8" y="15" width="1" height="1"/><rect class="ma296-2" x="14" y="16" width="1" height="1"/><path class="ma296-6" d="M18,14v1h1V14Z"/><path class="ma296-6" d="M16,14v1h1V14Z"/><path class="ma296-2" d="M17,14v1h1V14Z"/><path class="ma296-7" d="M18,14h1V13H18Z"/><rect class="ma296-7" x="12" y="13" width="1" height="1"/><path class="ma296-7" d="M12,12H10v1h2Z"/><path class="ma296-8" d="M17,19H16v2h1V19Z"/><path class="ma296-8" d="M13,20V19h3V18H12v3h1Z"/><path class="ma296-2" d="M16,19H13v1h3Z"/><path class="ma296-2" d="M17,18H16v1h1Z"/><path class="ma296-2" d="M9,23V21H8v2Z"/><rect class="ma296-2" x="7" y="20" width="1" height="1"/><rect class="ma296-2" x="5" y="19" width="2" height="1"/><path class="ma296-2" d="M5,20H4v3H5V20Z"/><path class="ma296-5" d="M6,24H7V23H8V21H7V20H5v3H6Z"/><path class="ma296-9" d="M19,12h1V11H19Z"/><path class="ma296-9" d="M19,11V10H18v1Z"/><path class="ma296-9" d="M12,11h1V10h3v1h1V10h1V9H11v1h1Z"/><rect class="ma296-9" x="17" y="11" width="1" height="1"/><path class="ma296-9" d="M12,11H11v1h1Z"/><rect class="ma296-9" x="10" y="10" width="1" height="1"/><path class="ma296-9" d="M10,11H9v1h1Z"/><path class="ma296-2" d="M10,16h1v1h2V16h1V14H10V12H9v3h1Z"/><rect class="ma296-2" x="14" y="13" width="2" height="1"/><polygon class="ma296-2" points="17 12 16 12 16 13 18 13 18 12 17 12"/><rect class="ma296-2" x="18" y="11" width="1" height="1"/><path class="ma296-2" d="M20,11V10H19v1Z"/></svg>