<svg xmlns="http://www.w3.org/2000/svg" viewBox="0 0 29 33"><defs><style>polygon,rect,path{shape-rendering:crispedges;}.ya139-1{fill:#29834f;}.ya139-2{fill:#000000;}.ya139-3{fill:#00774c;}.ya139-4{fill:#b2622b;}.ya139-5{fill:#ffffff;}.ya139-6{fill:#7f5018;}.ya139-7{fill:#7f5018;}.ya139-8{fill:#ff1d99;}.ya139-9{fill:#ff1d99;}.ya139-10{fill:#e281bf;}.ya139-11{fill:#8ab5a3;}</style></defs><path class="ya139-1" d="M0,33H6V25H7V24H8V22H7v1H6v1H3V23H2V22H1V19H2V18H3V17H6v1H7v1H9V18H8V13H9V11h1V10h1V9h7v1h1v1h1v1h1v6H20v2H19v1H17v2h1v1h1v1h2v1h1v1h1v6h6V0H0Z"/><path class="ya139-1" d="M11,24V23h1V21H9v4h1V24Z"/><path class="ya139-2" d="M23,27H22v6h1V27Z"/><path class="ya139-3" d="M22,27H21v6h1V27Z"/><rect class="ya139-2" x="21" y="26" width="1" height="1"/><path class="ya139-2" d="M21,27H20v6h1V27Z"/><path class="ya139-3" d="M20,27h1V26H19V25H18v1H16V25H15v2H14V25H13v1H11V25H10v1H9v7h5V32h1v1h5V27Zm-5,4H14V30h1Zm0-2H14V28h1Z"/><path class="ya139-2" d="M20,26h1V25H19v1Z"/><rect class="ya139-3" x="16" y="24" width="1" height="1"/><rect class="ya139-2" x="15" y="24" width="1" height="1"/><rect class="ya139-2" x="14" y="32" width="1" height="1"/><rect class="ya139-2" x="14" y="30" width="1" height="1"/><rect class="ya139-2" x="14" y="28" width="1" height="1"/><path class="ya139-2" d="M14,26v1h1V25H14Z"/><rect class="ya139-2" x="13" y="24" width="1" height="1"/><path class="ya139-4" d="M16,24V23H13v1h1v1h1V24Z"/><rect class="ya139-3" x="12" y="24" width="1" height="1"/><path class="ya139-2" d="M9,26H8v7H9V26Z"/><rect class="ya139-2" x="9" y="25" width="1" height="1"/><path class="ya139-3" d="M8,27H7v6H8V27Z"/><path class="ya139-4" d="M8,27V26H9V25H7v2Z"/><path class="ya139-2" d="M7,27V25H6v8H7V27Z"/><rect class="ya139-2" x="19" y="14" width="1" height="1"/><path class="ya139-4" d="M13,14V13H11v1h2Z"/><path class="ya139-4" d="M18,20V15H16v1H15v1H14V16h1V14h1V12H15V11H14v4H13v2H12V15H11v5h1v1h1v1h3V21h1V20Zm-2-1v1H13V19h3V18h1v1Z"/><rect class="ya139-4" x="9" y="15" width="1" height="1"/><rect class="ya139-4" x="17" y="11" width="1" height="1"/><rect class="ya139-4" x="19" y="15" width="1" height="1"/><rect class="ya139-4" x="17" y="13" width="1" height="1"/><rect class="ya139-2" x="19" y="16" width="1" height="1"/><path class="ya139-2" d="M16,22H13V21H12v2H11v1H10v1h1v1h2V25H12V24h1V23h3v1h1v1H16v1h2V25h1V24H18V23H17V21H16Z"/><rect class="ya139-2" x="9" y="16" width="1" height="1"/><rect class="ya139-2" x="14" y="16" width="1" height="1"/><path class="ya139-5" d="M12,15h1V14H12Z"/><path class="ya139-2" d="M17,15h1V14H16v1Z"/><path class="ya139-2" d="M12,14H11v1h1Z"/><path class="ya139-6" d="M13,12H11v1h2Z"/><rect class="ya139-6" x="17" y="12" width="1" height="1"/><path class="ya139-7" d="M19,18H18v2H17v1h2V18Z"/><rect class="ya139-7" x="19" y="17" width="1" height="1"/><path class="ya139-7" d="M11,21h1V20H11V18H10v3Z"/><rect class="ya139-7" x="9" y="17" width="1" height="1"/><rect class="ya139-2" x="13" y="19" width="3" height="1"/><rect class="ya139-2" x="16" y="18" width="1" height="1"/><path class="ya139-8" d="M9,16V15h1v3h1V12h2v3h1V11h1v1h1v2h1V11h1v7h1V14h1v4h1V12H20V11H19V10H18V9H11v1H10v1H9v2H8v5H9V16Z"/><path class="ya139-8" d="M19,19v1h1V18H19Z"/><path class="ya139-8" d="M15,15v1h1V14H15Z"/><path class="ya139-8" d="M12,16v1h1V15H12Z"/><path class="ya139-8" d="M10,20V18H9v2Z"/><path class="ya139-9" d="M10,20H9v1h1Z"/><path class="ya139-9" d="M9,20V19H8v1Z"/><rect class="ya139-10" x="7" y="20" width="1" height="1"/><path class="ya139-9" d="M9,25V21H8v4Z"/><path class="ya139-2" d="M8,24H7v1H8Z"/><rect class="ya139-11" x="2" y="18" width="1" height="1"/><path class="ya139-11" d="M7,21V20H8V19H7V18H6V17H3v1H5v1H3v1H2V19H1v3H2v1H3v1H6V23H7V22H8V21Z"/><rect class="ya139-11" x="8" y="20" width="1" height="1"/><rect class="ya139-5" x="2" y="19" width="1" height="1"/><path class="ya139-5" d="M4,19H5V18H3v1Z"/></svg>