<svg xmlns="http://www.w3.org/2000/svg" viewBox="0 0 29 33"><defs><style>polygon,rect,path{shape-rendering:crispedges;}.ga228-1{fill:#6b4f99;}.ga228-2{fill:#000000;}.ga228-3{fill:#ffce00;}.ga228-4{fill:#ce8452;}.ga228-5{fill:#ffffff;}.ga228-6{fill:#473a35;}.ga228-7{fill:#990000;}.ga228-8{fill:#ffffff;}.ga228-9{fill:#317f03;}</style></defs><path class="ga228-1" d="M0,33H6V27H7V26H8V25h2V24h2V22H11V21H10V20H9V16H8V15H9V11h1V10h1V9h2V7h1V6h2V5h2V6H17V7h1V9h1v2h1v4h1v1H20v4H19v1H18v1H17v2h2v1h2v1h1v1h1v6h6V0H0Z"/><rect class="ga228-1" x="19" y="16" width="1"/><rect class="ga228-1" x="9" y="16" width="1"/><polygon class="ga228-1" points="15 17 14 17 14 16 15 16 15 16 14 16 14 17 15 17 15 17"/><path class="ga228-2" d="M23,27H22v6h1V27Z"/><rect class="ga228-2" x="21" y="26" width="1" height="1"/><path class="ga228-3" d="M22,27H21v6h1V27Z"/><path class="ga228-2" d="M21,27H20v6h1V27Z"/><path class="ga228-2" d="M20,26h1V25H19v1Z"/><path class="ga228-3" d="M15,29H14v2h1V29Z"/><rect class="ga228-3" x="18" y="29" width="1" height="1"/><rect class="ga228-3" x="10" y="29" width="1" height="1"/><path class="ga228-3" d="M19,32V31H18v1H17V29h1V28h1v1h1V27h1V26H19V25H17v1H16v1H13V26H12V25H10v1H9v3h1V28h1v1h1v3H11V31H10v1H9v1H20V32Zm-3-2v1H15v1H13V28h2v1h1Z"/><path class="ga228-2" d="M18,25h1V24H17v1Z"/><rect class="ga228-2" x="16" y="25" width="1" height="1"/><path class="ga228-2" d="M13,26v1h3V26H13Z"/><path class="ga228-2" d="M13,23V22H12v2h1Z"/><path class="ga228-4" d="M13,25v1h3V25h1V24H16V23H13v1H12v1Z"/><rect class="ga228-2" x="12" y="25" width="1" height="1"/><path class="ga228-2" d="M12,24H10v1h2Z"/><path class="ga228-2" d="M9,31V26h1V25H8v1H7v1H8v6H9V31Z"/><path class="ga228-3" d="M8,27H7v6H8V27Z"/><path class="ga228-2" d="M7,27H6v6H7V27Z"/><path class="ga228-5" d="M19,30H18V29H17v3h1V31h1v1h1V29H19Z"/><rect class="ga228-5" x="18" y="28" width="1" height="1"/><path class="ga228-5" d="M15,30v1h1V29H15Z"/><path class="ga228-5" d="M14,30V29h1V28H13v4h2V31H14Z"/><path class="ga228-5" d="M9,32h1V31h1v1h1V29H11v1H10V29H9v3Z"/><rect class="ga228-5" x="10" y="28" width="1" height="1"/><polygon class="ga228-2" points="20 16 20 16 21 16 21 15 20 15 20 16 20 16"/><path class="ga228-4" d="M10,14h0V13h1V12h2v1h4V12h2v1H18v1h1V11H18V10H15v1H13V10H11v1H10v3Z"/><rect class="ga228-4" x="11" y="10"/><path class="ga228-4" d="M9,16h1v2h1v1h1V18h5v1h1V18h1V16h1V15H18v1H16V15H15V14H14v1H13v1H11V15H9Zm5,0h1v1H14Z"/><rect class="ga228-4" x="15" y="20" width="1" height="1"/><rect class="ga228-4" x="13" y="20" width="1" height="1"/><path class="ga228-2" d="M18,11h1V10H18Z"/><path class="ga228-2" d="M16,23v1h1V22H16Z"/><path class="ga228-2" d="M16,10h2V9H16Z"/><path class="ga228-2" d="M12,10h1V9H11v1h1Z"/><polygon class="ga228-2" points="11 11 11 10 11 10 10 10 10 11 10 11 11 11"/><polygon class="ga228-2" points="9 15 9 15 8 15 8 16 9 16 9 16 9 15"/><polygon class="ga228-2" points="14 17 15 17 15 17 15 16 15 16 14 16 14 17"/><rect class="ga228-6" x="10" y="13" width="1" height="1"/><path class="ga228-6" d="M11,12v1h2V12Z"/><polygon class="ga228-6" points="19 12 17 12 17 13 18 13 18 13 19 13 19 12"/><path class="ga228-7" d="M13,23h3V22h2V21h1V20h1V16H19v2H18v1H16v2H15V20H14v1H13V19H11V18H10V16H9v4h1v1h1v1h2Z"/><path class="ga228-2" d="M12,18v1h1V18Z"/><path class="ga228-2" d="M16,18v1h1V18Z"/><path class="ga228-2" d="M15,18H14v1H13v1h3V19H15Z"/><path class="ga228-8" d="M14,18H13v1h1Z"/><path class="ga228-8" d="M15,18v1h1V18Z"/><path class="ga228-9" d="M13,11h2V10h1V9h2V7H17V6h1V5H16V6H14V7H13v4Z"/><path class="ga228-9" d="M19,10V9H18v1Z"/><path class="ga228-2" d="M11,16h2V15h1V14h1v1h1v1h2V15h2V11H19v3H18V13H11v1H10V11H9v4h2Z"/><rect class="ga228-9" x="18" y="9" width="1" height="1"></rect></svg>