<svg xmlns="http://www.w3.org/2000/svg" viewBox="0 0 29 33"><defs><style>polygon,rect,path{shape-rendering:crispedges;}.wa182-1{fill:#29834f;}.wa182-2{fill:#000000;}.wa182-3{fill:#b23b00;}.wa182-4{fill:#a56e49;}.wa182-5{fill:#db5800;}.wa182-6{fill:#ffffff;}.wa182-7{fill:#7f5018;}.wa182-8{fill:#990000;}.wa182-9{fill:#4922aa;}.wa182-10{fill:#381616;}.wa182-11{fill:#fad000;}</style></defs><rect class="wa182-1" x="19" y="24" width="1" height="1"/><rect class="wa182-1" x="18" y="21" width="1" height="1"/><path class="wa182-1" d="M6,32V27H7V26H8V25h2V22h1V21H9V20H8V19H9V16H8V15H9V11h1V10h1V9h7v1h1v1h1v4h1v1H20v3h1v1h2v1h1v3H23v1h1v1H23v7h6V0H0V33H6Z"/><path class="wa182-2" d="M23,26H22v7h1V26Z"/><path class="wa182-2" d="M7,30V27H6v6H7V30Z"/><rect class="wa182-2" x="7" y="26" width="1" height="1"/><path class="wa182-3" d="M7,31H8V30H7Z"/><path class="wa182-3" d="M8,28V27H7v1Z"/><path class="wa182-2" d="M21,30V26H20v5H14V27H13v4H9V27H8v6H9V32H20v1h1V30Z"/><path class="wa182-2" d="M10,25H8v1h2Z"/><path class="wa182-2" d="M11,24V22H10v3h1Z"/><polygon class="wa182-3" points="12 24 11 24 11 25 13 25 13 24 12 24"/><path class="wa182-3" d="M9,31h4V30H9Z"/><path class="wa182-3" d="M9,28h4V27H9Z"/><rect class="wa182-2" x="13" y="24" width="1" height="1"/><path class="wa182-2" d="M15,26V25H14v2h1Z"/><path class="wa182-4" d="M15,24h1V23H13v1h1v1h1Z"/><rect class="wa182-2" x="15" y="24" width="1" height="1"/><path class="wa182-2" d="M18,24v1h1V22H18v2Z"/><path class="wa182-3" d="M14,27v1h6V27H14Z"/><path class="wa182-3" d="M14,31h6V30H14Z"/><path class="wa182-3" d="M18,25V24H16v1Z"/><path class="wa182-3" d="M21,31h1V30H21Z"/><path class="wa182-3" d="M21,28h1V27H21Z"/><rect class="wa182-2" x="20" y="15" width="1" height="1"/><path class="wa182-2" d="M19,15h1V14H19Z"/><path class="wa182-4" d="M16,19v1H13V19H12v2h1v1h3V21h1V19Z"/><path class="wa182-4" d="M10,17v1h1v1h1V18h5v1h1V18h1V16h1V15H16V14h3V13H16V12h3V11H18V10H11v1H10v2h3v2H9v1h1Zm4-1h1v1H14Z"/><path class="wa182-2" d="M12,23v1h1V23h3v1h1V22h1V20H17v1H16v1H13V21H12V20H11v2h1Z"/><path class="wa182-2" d="M10,14H9v1h1Z"/><rect class="wa182-2" x="8" y="15" width="1" height="1"/><rect class="wa182-2" x="14" y="16" width="1" height="1"/><path class="wa182-5" d="M19,32H9v1H20V32Z"/><path class="wa182-5" d="M14,30h6V28H14Z"/><path class="wa182-5" d="M9,29v1h4V28H9Z"/><path class="wa182-5" d="M9,27h5V25H10v1H8v1Z"/><path class="wa182-5" d="M19,25H15v2h5V26H19Z"/><path class="wa182-5" d="M7,29v1H8V28H7Z"/><path class="wa182-5" d="M7,31v2H8V31Z"/><path class="wa182-5" d="M21,31v2h1V31Z"/><path class="wa182-5" d="M21,29v1h1V28H21Z"/><path class="wa182-5" d="M12,24V22H11v2Z"/><path class="wa182-5" d="M18,23V22H17v2h1Z"/><path class="wa182-6" d="M12,15h1V14H12Z"/><path class="wa182-6" d="M10,14v1h1V14Z"/><path class="wa182-6" d="M18,14v1h1V14Z"/><path class="wa182-6" d="M16,14v1h1V14Z"/><path class="wa182-2" d="M11,14v1h1V14Z"/><path class="wa182-2" d="M17,14v1h1V14Z"/><rect class="wa182-7" x="16" y="12" width="3" height="1"/><path class="wa182-7" d="M11,14h2V13H10v1Z"/><path class="wa182-8" d="M19,17v1H18v1H17v1h1v1h2V20h1V19H20V16H19Z"/><path class="wa182-8" d="M12,20V19H11V18H10V16H9v3H8v1H9v1h2V20Z"/><polygon class="wa182-2" points="13 20 16 20 16 19 17 19 17 18 12 18 12 19 13 19 13 20"/><path class="wa182-9" d="M19,13v1h1V11H19v2Z"/><rect class="wa182-9" x="18" y="10" width="1" height="1"/><path class="wa182-9" d="M18,10V9H11v1h7Z"/><rect class="wa182-9" x="10" y="10" width="1" height="1"/><path class="wa182-9" d="M10,13V11H9v3h1Z"/><path class="wa182-4" d="M20,26h1v1h1V26h1V25H20Z"/><rect class="wa182-2" x="23" y="25" width="1" height="1"/><rect class="wa182-2" x="19" y="25" width="1" height="1"/><path class="wa182-10" d="M24,22V21H23v1Z"/><path class="wa182-11" d="M20,21H19v3h1v1h3V24H21V23H20V22h1V21h1v1H21v1h3V22H23V20H20Z"/><rect class="wa182-10" x="21" y="21" width="1" height="1"/><path class="wa182-10" d="M21,23v1h3V23H21Z"/><rect class="wa182-10" x="20" y="22" width="1" height="1"/></svg>