<svg xmlns="http://www.w3.org/2000/svg" viewBox="0 0 29 33"><defs><style>polygon,rect,path{shape-rendering:crispedges;}.oa269-1{fill:#29834f;}.oa269-2{fill:#000000;}.oa269-3{fill:#ffed9f;}.oa269-4{fill:#00774c;}.oa269-5{fill:#e8b795;}.oa269-6{fill:#ffffff;}.oa269-7{fill:#ffffff;}.oa269-8{fill:#663434;}.oa269-9{fill:#cbed03;}.oa269-10{fill:#304400;}.oa269-11{fill:#6e12ff;}</style></defs><path class="oa269-1" d="M0,33H6V27H7V26H8V25h2V24h2V22H11V21H10v1H9V21H8V20H7V19H8V12H9V10h1V9h1V8h7V9h1v1h1v2h1v7h1v1H21v1H20v1H19V21H18v1H17v2h2v1h2v1h1v1h1v6h6V0H0Z"/><path class="oa269-2" d="M23,27H22v6h1V27Z"/><rect class="oa269-2" x="21" y="26" width="1" height="1"/><path class="oa269-3" d="M21,31v2h1V31Z"/><path class="oa269-3" d="M21,28v2h1V27H21Z"/><path class="oa269-2" d="M21,30V27H20v6h1V30Z"/><path class="oa269-3" d="M20,32V26H19V25H18v3h1v1H18v4h1V32Z"/><path class="oa269-2" d="M20,26h1V25H19v1Z"/><path class="oa269-2" d="M18,29V25h1V24H17v1H16v1h1v7h1V29Z"/><path class="oa269-4" d="M17,26H16v1H13V26H12v7h5V26Z"/><path class="oa269-2" d="M13,26v1h3V26H13Z"/><path class="oa269-2" d="M13,23h3v1h1V21H16v1H13V21H12v3h1Z"/><path class="oa269-5" d="M13,25v1h3V25h1V24H16V23H13v1H12v1Z"/><path class="oa269-2" d="M12,26h1V25H12V24H10v1h1v8h1V26Z"/><path class="oa269-3" d="M11,29H10V28h1V25H10v1H9v6h1v1h1V29Z"/><path class="oa269-2" d="M10,26V25H8v1h2Z"/><path class="oa269-2" d="M9,31V27H8v6H9V31Z"/><rect class="oa269-2" x="7" y="26" width="1" height="1"/><path class="oa269-3" d="M7,30H8V27H7v3Z"/><path class="oa269-3" d="M7,31v2H8V31Z"/><path class="oa269-2" d="M7,30V27H6v6H7V30Z"/><path class="oa269-6" d="M10,29h1V28H10Z"/><path class="oa269-6" d="M19,29V28H18v1Z"/><path class="oa269-6" d="M9,27V26H8v1Z"/><path class="oa269-6" d="M19,32v1h1V32Z"/><path class="oa269-6" d="M9,32v1h1V32Z"/><path class="oa269-6" d="M7,31H8V30H7Z"/><path class="oa269-6" d="M21,31h1V30H21Z"/><path class="oa269-6" d="M20,27h1V26H20Z"/><path class="oa269-2" d="M20,16h1V15H20Z"/><rect class="oa269-2" x="19" y="14" width="1" height="1"/><path class="oa269-5" d="M18,20V19h1V16h1V15H16V14h2V13H16V12h1V11H16V10H15v5H14v1h1v1H14V16H13v1H11V16H10v3h1v1h1v1h1v1h3V21h1V20Zm-2,0H13V19h3Z"/><rect class="oa269-5" x="9" y="15" width="1" height="1"/><path class="oa269-2" d="M19,17v2h1V16H19Z"/><rect class="oa269-2" x="18" y="19" width="1" height="1"/><rect class="oa269-2" x="17" y="20" width="1" height="1"/><rect class="oa269-2" x="11" y="20" width="1" height="1"/><rect class="oa269-2" x="10" y="19" width="1" height="1"/><path class="oa269-2" d="M10,16H9v3h1V16Z"/><path class="oa269-2" d="M9,15H8v1H9Z"/><rect class="oa269-2" x="14" y="16" width="1" height="1"/><path class="oa269-7" d="M19,15V14H18v1Z"/><path class="oa269-7" d="M16,14v1h1V14Z"/><path class="oa269-2" d="M17,15h1V14H17Z"/><path class="oa269-8" d="M16,13h2V12H16Z"/><rect class="oa269-2" x="13" y="19" width="3" height="1"/><path class="oa269-9" d="M12,15h1V13H11v2Z"/><path class="oa269-10" d="M13,13v2h1V13Z"/><polygon class="oa269-10" points="12 15 11 15 11 16 13 16 13 15 12 15"/><path class="oa269-10" d="M11,15V14H10v1Z"/><path class="oa269-10" d="M13,12H11v1h2Z"/><rect class="oa269-2" x="10" y="15" width="1" height="1"/><rect class="oa269-2" x="11" y="16" width="2" height="1"/><rect class="oa269-2" x="13" y="15" width="1" height="1"/><path class="oa269-2" d="M13,13h1v2h1V10H13v1H12v1h1Z"/><rect class="oa269-2" x="9" y="14" width="1" height="1"/><path class="oa269-11" d="M20,17v2H19v1H18v1h1v1h1V21h1V20h1V19H21V16H20Z"/><path class="oa269-11" d="M9,14h2V12h1V11h1V10h3v1h1v1h1v2h2v1h1V12H20V10H19V9H18V8H11V9H10v1H9v2H8v3H9Z"/><path class="oa269-11" d="M10,20V19H9V16H8v3H7v1H8v1H9v1h1V21h1V20Z"/><path class="oa269-11" d="M11,21v1h1V21Z"/><path class="oa269-11" d="M17,22h1V21H17Z"/></svg>