<svg xmlns="http://www.w3.org/2000/svg" viewBox="0 0 29 33"><defs><style>polygon,rect,path{shape-rendering:crispedges;}.ba148-1{fill:#29834f;}.ba148-2{fill:#000000;}.ba148-3{fill:#e8b795;}.ba148-4{fill:#ff6c77;}.ba148-5{fill:#990000;}.ba148-6{fill:#ffffff;}.ba148-7{fill:#8e703c;}.ba148-8{fill:#ccc;}.ba148-9{fill:#8e703c;}.ba148-10{fill:#99004d;}</style></defs><path class="ba148-1" d="M10,22v2h2V22H11V21H10V20H9v2Z"/><path class="ba148-1" d="M19,21H18v1H17v2h2V22h1V20H19Z"/><path class="ba148-1" d="M0,33H6V27H7V26H8V24H6V23H5V21H4V20H3V19H8v1H9V16H8V15H9V11h1V10h1V9h2V7h1V6h2V5h2V6H17V7h1v3h1v1h1v4h1v1H20v4h1V19h5v1H25v1H24v2H23v1H21v2h1v1h1v6h6V0H0Z"/><path class="ba148-2" d="M23,27H22v6h1V27Z"/><rect class="ba148-2" x="21" y="26" width="1" height="1"/><path class="ba148-3" d="M22,27H21v6h1V27Z"/><rect class="ba148-3" x="20" y="26" width="1" height="1"/><path class="ba148-2" d="M21,27H20v6h1V27Z"/><path class="ba148-2" d="M19,26h2V25H19Z"/><rect class="ba148-4" x="13" y="30" width="1" height="2"/><path class="ba148-4" d="M20,27V26H19V25H18v1H17v1H16v1H13V27H12V26H11V25H10v1H9v7h1V29h1v4h1V29h3v4h1V29h3v1H17v2h1V31h1v2h1V27Z"/><path class="ba148-2" d="M18,24H17v2h1V25h1V24Z"/><path class="ba148-2" d="M17,24V23H16v1Z"/><rect class="ba148-2" x="16" y="26" width="1" height="1"/><path class="ba148-2" d="M13,27v1h3V27H13Z"/><path class="ba148-2" d="M13,23H12v1h1Z"/><path class="ba148-3" d="M16,24V23H13v1H12v2h1v1h3V26h1V24Z"/><rect class="ba148-2" x="12" y="26" width="1" height="1"/><path class="ba148-2" d="M10,24v1h1v1h1V24Z"/><path class="ba148-2" d="M10,26V25H8v1h2Z"/><path class="ba148-3" d="M9,27V26H8v1Z"/><path class="ba148-2" d="M9,27H8v6H9V27Z"/><rect class="ba148-2" x="7" y="26" width="1" height="1"/><path class="ba148-3" d="M8,27H7v6H8V27Z"/><path class="ba148-2" d="M7,27H6v6H7V27Z"/><path class="ba148-5" d="M12,29v4h3V29Zm2,3H13V30h1Z"/><path class="ba148-5" d="M11,29H10v4h1V29Z"/><path class="ba148-5" d="M18,31v1H17V30h2V29H16v4h3V31Z"/><rect class="ba148-2" x="20" y="15" width="1" height="1"/><path class="ba148-2" d="M19,13v2h1V11H19v2Z"/><path class="ba148-3" d="M18,14h1V13H17v1Z"/><path class="ba148-3" d="M10,17h1v1h1v1h1V18h3v1h1V18h1V17h1V16h1V15H16V13h1V12h2V11H18V10H15v1H13V10H11v1H10v2h1V12h2v1H11v1h2v1H9v1h1Zm4-1h1v1H14Z"/><rect class="ba148-2" x="18" y="10" width="1" height="1"/><path class="ba148-2" d="M16,10h2V9H16Z"/><path class="ba148-2" d="M13,9H11v1h2Z"/><rect class="ba148-2" x="10" y="10" width="1" height="1"/><path class="ba148-2" d="M10,14V11H9v4h1Z"/><rect class="ba148-2" x="8" y="15" width="1" height="1"/><rect class="ba148-2" x="14" y="16" width="1" height="1"/><path class="ba148-6" d="M13,15V14H12v1Z"/><path class="ba148-6" d="M10,15h1V14H10Z"/><path class="ba148-6" d="M18,14v1h1V14Z"/><path class="ba148-6" d="M16,14v1h1V14Z"/><path class="ba148-2" d="M12,15V14H11v1Z"/><path class="ba148-2" d="M17,14v1h1V14Z"/><path class="ba148-7" d="M11,14V13H10v1Z"/><rect class="ba148-7" x="11" y="12" width="2" height="1"/><path class="ba148-7" d="M17,13H16v1h1Z"/><path class="ba148-7" d="M19,12H17v1h2Z"/><path class="ba148-6" d="M10,22H9V20H8V19H3v1H7v1H5v1H8v1H6v1h4Z"/><path class="ba148-8" d="M8,22H5v1H8Z"/><path class="ba148-8" d="M7,20H4v1H7Z"/><path class="ba148-8" d="M22,20v1h3V20H22Z"/><path class="ba148-8" d="M21,22v1h3V22H21Z"/><path class="ba148-6" d="M19,22v2h4V23H21V22h3V21H22V20h4V19H21v1H20v2Z"/><path class="ba148-8" d="M10,24H8v1h2Z"/><path class="ba148-8" d="M19,25h2V24H19Z"/><path class="ba148-9" d="M10,21h1v1h1v1h5V22h1V21h1V20h1V16H19v1H18v1H17v1H16v1H13V19H12V18H11V17H10V16H9v4h1Z"/><path class="ba148-9" d="M15,18H13v1h3V18Z"/><rect class="ba148-2" x="13" y="19" width="3" height="1"/><path class="ba148-10" d="M13,11h2V10h1V9h2V7H17V6h1V5H16V6H14V7H13v4Z"/><rect class="ba148-10" x="18" y="9" width="1" height="1"></rect></svg>