<svg xmlns="http://www.w3.org/2000/svg" viewBox="0 0 29 33"><defs><style>polygon,rect,path{shape-rendering:crispedges;}.fa291-1{fill:#29834f;}.fa291-2{fill:#000000;}.fa291-3{fill:#99004d;}.fa291-4{fill:#b2622b;}.fa291-5{fill:#ff791f;}.fa291-6{fill:#663228;}.fa291-7{fill:#5a2de2;}.fa291-8{fill:#ffffff;}.fa291-9{fill:#0068ff;}.fa291-10{fill:#ff1f4a;}</style></defs><path class="fa291-1" d="M0,33H6V27H7V26H8V25h2V24h2V21H11V20H10V19H9V16H8V15H9V10h1V9h1V8h7V9h1v1h1v2h1v6H20v1H19v1H18v1H17v3h2v1h1V24h1V23h1v1h1v9h6V0H0Z"/><path class="fa291-2" d="M9,27H8v2H7V27H6v6H7V30H8v3H9V27Z"/><rect class="fa291-2" x="7" y="26" width="1" height="1"/><path class="fa291-2" d="M10,25H8v1h2Z"/><path class="fa291-2" d="M12,24H10v1h2Z"/><path class="fa291-2" d="M13,23h3v1h1V21H16v1H13V21H12v3h1Z"/><path class="fa291-2" d="M18,25h1V24H17v1Z"/><path class="fa291-2" d="M21,27H20v6h1V27Z"/><path class="fa291-2" d="M23,24H22v9h1V24Z"/><path class="fa291-3" d="M20,27H19V25H17v1H16v1H13V26H12V25H10v1H8v1H9v6H20V27Zm-9,2v3H10V28h1Zm4,3H12V28h3Zm4-3H17v2h1V30h1v2H16V28h3Z"/><rect class="fa291-3" x="13" y="29" width="1" height="2"/><path class="fa291-3" d="M8,29V27H7v2Z"/><path class="fa291-4" d="M22,24H21v1H20v2h1v6h1V24Z"/><path class="fa291-4" d="M13,25v1h3V25h1V24H16V23H13v1H12v1Z"/><path class="fa291-2" d="M13,26v1h3V26H13Z"/><path class="fa291-4" d="M8,30H7v3H8V30Z"/><rect class="fa291-2" x="16" y="25" width="1" height="1"/><rect class="fa291-2" x="12" y="25" width="1" height="1"/><path class="fa291-5" d="M12,32h3V28H12Zm1-3h1v2H13Z"/><path class="fa291-5" d="M10,29v3h1V28H10Z"/><path class="fa291-5" d="M16,28v4h3V30H18v1H17V29h2V28H16Z"/><rect class="fa291-4" x="14" y="15" width="1" height="1"/><path class="fa291-4" d="M15,12V11H13V10H11v1H10v1h2v1h2v1h1V13h1V12Z"/><path class="fa291-4" d="M13,22h3V21h1V20h1V19h1V16H15v1H14V16H10v3h1v1h1v1h1Zm0-3h3V18h1v1H16v1H13Z"/><path class="fa291-2" d="M19,16v3h1V16Z"/><rect class="fa291-2" x="18" y="19" width="1" height="1"/><rect class="fa291-2" x="17" y="20" width="1" height="1"/><rect class="fa291-2" x="11" y="20" width="1" height="1"/><rect class="fa291-2" x="10" y="19" width="1" height="1"/><path class="fa291-2" d="M10,16H9v3h1V16Z"/><rect class="fa291-2" x="8" y="15" width="1" height="1"/><rect class="fa291-2" x="14" y="16" width="1" height="1"/><path class="fa291-6" d="M10,12v1h2V12Z"/><rect class="fa291-2" x="13" y="19" width="3" height="1"/><rect class="fa291-2" x="16" y="18" width="1" height="1"/><path class="fa291-2" d="M20,27V25H19v2Z"/><rect class="fa291-2" x="20" y="24" width="1" height="1"/><rect class="fa291-2" x="21" y="23" width="1" height="1"/><path class="fa291-7" d="M10,12V11h1V10h2v1h2v1h1v1h4v5h1V12H20V10H19V9H18V8H11V9H10v1H9v3h1Z"/><path class="fa291-8" d="M11,16h3V15h1v1h5V13H15v1H14V13H9v3h2Zm5-2h3v1H16Zm-6,0h3v1H10Z"/><path class="fa291-9" d="M19,15V14H16v1h3Z"/><path class="fa291-10" d="M13,15V14H10v1h3Z"/></svg>