<svg xmlns="http://www.w3.org/2000/svg" viewBox="0 0 29 33"><defs><style>polygon,rect,path{shape-rendering:crispedges;}.bb28-1{fill:#31a09d;}.bb28-2{fill:#000000;}.bb28-3{fill:#8c7850;}.bb28-4{fill:#ffffff;}.bb28-5{fill:#a56e49;}.bb28-6{fill:#00774c;}.bb28-7{fill:#00774c;}.bb28-8{fill:#db5800;}</style></defs><path class="bb28-1" d="M0,33H6V27H7V26H8V25h2V24h1V23h1V21H10V20H9V16H8V15H9V10h1V9h1V8h7V9h1v1h1v5h1v1H20v4H19v1H17v2h1v1h1v1h2v1h1v1h1v6h6V0H0Z"/><path class="bb28-2" d="M23,27H22v6h1V27Z"/><path class="bb28-3" d="M22,27H21v6h1V27Z"/><rect class="bb28-2" x="21" y="26" width="1" height="1"/><path class="bb28-2" d="M21,27H20v6h1V27Z"/><path class="bb28-3" d="M20,27h1V26H19V25H18v4H17v4h3V27Z"/><path class="bb28-2" d="M20,26h1V25H19v1Z"/><path class="bb28-2" d="M17,29H16v4h1V29Z"/><rect class="bb28-4" x="16" y="24" width="1" height="1"/><path class="bb28-4" d="M16,29h1V26H16V25H13v1H12v3h1v4h1V32h1v1h1V29Zm-1,2H14V30h1Zm0-2H14V28h1Zm0-2H14V26h1Z"/><rect class="bb28-4" x="15" y="23" width="1" height="1"/><rect class="bb28-2" x="14" y="32" width="1" height="1"/><rect class="bb28-2" x="14" y="30" width="1" height="1"/><rect class="bb28-2" x="14" y="28" width="1" height="1"/><rect class="bb28-2" x="14" y="26" width="1" height="1"/><rect class="bb28-4" x="13" y="23" width="1" height="1"/><path class="bb28-2" d="M13,29H12v4h1V29Z"/><rect class="bb28-4" x="12" y="24" width="1" height="1"/><path class="bb28-3" d="M12,29H11V25H10v1H8v1H9v6h3V29Z"/><path class="bb28-2" d="M11,26v3h1V26h1V25H12V24h1V23h1v1H13v1h3V24H15V23h1v1h1v1H16v1h1v3h1V25h1V24H18V23H17V21H16v1H13V21H12v2H11v1H10v1h1Z"/><path class="bb28-2" d="M10,25H8v1h2Z"/><path class="bb28-2" d="M9,27H8v6H9V27Z"/><path class="bb28-3" d="M8,27H7v6H8V27Z"/><rect class="bb28-2" x="7" y="26" width="1" height="1"/><path class="bb28-2" d="M7,27H6v6H7V27Z"/><rect class="bb28-2" x="20" y="15" width="1" height="1"/><path class="bb28-5" d="M13,22h3V21h1V20h1V18h1V16h1V15H16V13h1V12h2V11H18V10H16v1H15v1H14v2H13v3H12V16H11V15H9v1h1v2h1v2h1v1h1Zm1-6h1v1H14Zm-2,3V18h5v1H16v1H13V19Z"/><polygon class="bb28-5" points="18 14 19 14 19 13 17 13 17 14 18 14"/><path class="bb28-2" d="M19,17h1V16H19Z"/><path class="bb28-2" d="M10,14H9v1h1Z"/><path class="bb28-2" d="M10,16H9v1h1Z"/><rect class="bb28-2" x="8" y="15" width="1" height="1"/><rect class="bb28-2" x="14" y="16" width="1" height="1"/><path class="bb28-4" d="M18,14v1h1V14Z"/><path class="bb28-4" d="M16,14v1h1V14Z"/><path class="bb28-2" d="M17,14v1h1V14Z"/><path class="bb28-6" d="M17,13H16v1h1Z"/><rect class="bb28-6" x="17" y="12" width="2" height="1"/><path class="bb28-7" d="M19,18H18v2H17v1h2V20h1V17H19Z"/><path class="bb28-7" d="M11,20V18H10V17H9v3h1v1h2V20Z"/><path class="bb28-2" d="M13,18H12v1h1Z"/><path class="bb28-2" d="M17,19V18H16v1Z"/><path class="bb28-2" d="M13,19v1h3V19H15V18H14v1Z"/><path class="bb28-4" d="M14,19V18H13v1Z"/><path class="bb28-4" d="M16,19V18H15v1Z"/><path class="bb28-8" d="M10,15h1v1h1v1h1V14h1V12h1V11h1V10h2v1h1v4h1V10H19V9H18V8H11V9H10v1H9v4h1Z"/></svg>