<svg xmlns="http://www.w3.org/2000/svg" viewBox="0 0 29 33"><defs><style>polygon,rect,path{shape-rendering:crispedges;}.na140-1{fill:#e55b35;}.na140-2{fill:#000000;}.na140-3{fill:#34e0cb;}.na140-4{fill:#004a77;}.na140-5{fill:#a56e49;}.na140-6{fill:#ffffff;}.na140-7{fill:#66334f;}.na140-8{fill:#66334f;}.na140-9{fill:#ff791f;}</style></defs><path class="na140-1" d="M0,33H6V27H7V26H8V25h2V24h2V22H11V21H10V20H9V16H8V15H9V11h1V10h1V9h1V8h5V9h2v1h1v1h1v3H20v1h1v1H20v4H19v1H18v1H17v2h2v1h2v1h1v1h1v6h6V0H0Z"/><path class="na140-2" d="M23,27H22v6h1V27Z"/><rect class="na140-2" x="21" y="26" width="1" height="1"/><path class="na140-3" d="M22,27H21v6h1V27Z"/><path class="na140-2" d="M21,27H20v6h1V27Z"/><path class="na140-3" d="M20,27h1V26H19V25H18v8h2V27Z"/><path class="na140-2" d="M20,26h1V25H19v1Z"/><path class="na140-2" d="M18,25h1V24H17v1H16v1h1v7h1V25Z"/><path class="na140-4" d="M17,26H16v1H13V26H12v7h5V26Z"/><path class="na140-2" d="M16,24h1V23H16Z"/><path class="na140-2" d="M13,26v1h3V26H13Z"/><path class="na140-2" d="M13,23H12v1h1Z"/><path class="na140-5" d="M13,25v1h3V25h1V24H16V23H13v1H12v1Z"/><path class="na140-2" d="M12,26h1V25H12V24H10v1h1v8h1V26Z"/><path class="na140-3" d="M11,25H10v1H8v1H9v6h2V25Z"/><path class="na140-2" d="M10,25H8v1h2Z"/><path class="na140-2" d="M9,27H8v6H9V27Z"/><rect class="na140-2" x="7" y="26" width="1" height="1"/><path class="na140-3" d="M8,27H7v6H8V27Z"/><path class="na140-2" d="M7,27H6v6H7V27Z"/><rect class="na140-2" x="20" y="15" width="1" height="1"/><path class="na140-5" d="M10,17h1v1h5v1h1V18h1V17h1V16h1V15H16V13h2V12H17V11H15V10H11v1H10v1h3v1H10v1h3v1H9v1h1Zm4-1h1v1H14Z"/><rect class="na140-2" x="8" y="15" width="1" height="1"/><rect class="na140-2" x="14" y="16" width="1" height="1"/><path class="na140-6" d="M11,15V14H10v1Z"/><path class="na140-6" d="M16,14v1h1V14Z"/><path class="na140-2" d="M12,15h1V14H11v1Z"/><path class="na140-2" d="M18,14H17v1h2V14Z"/><rect class="na140-7" x="10" y="12" width="3" height="1"/><path class="na140-7" d="M18,14h1V13H16v1h2Z"/><path class="na140-8" d="M15,18H13v1h3V18Z"/><path class="na140-8" d="M14,23h3V22h1V21h1V20h1V16H19v1H18v1H17v1H16v1H13V19H12V18H11V17H10V16H9v4h1v1h1v1h1v1h2Z"/><rect class="na140-2" x="13" y="19" width="3" height="1"/><path class="na140-2" d="M12,18v1h1V18Z"/><path class="na140-9" d="M10,14V11H9v4h1Z"/><rect class="na140-9" x="10" y="10" width="1" height="1"/><path class="na140-9" d="M15,10v1h2v1h1v1h1v2h1V14h1V11H20V10H19V9H17V8H12V9H11v1h4Z"/></svg>