<svg xmlns="http://www.w3.org/2000/svg" viewBox="0 0 29 33"><defs><style>polygon,rect,path{shape-rendering:crispedges;}.ea93-1{fill:#db5a8e;}.ea93-2{fill:#000000;}.ea93-3{fill:#508e91;}.ea93-4{fill:#e8b795;}.ea93-5{fill:#508e91;}.ea93-6{fill:#4922aa;}.ea93-7{fill:#317f03;}.ea93-8{fill:#fad000;}.ea93-9{fill:#ffffff;}.ea93-10{fill:#6e12ff;}</style></defs><path class="ea93-1" d="M6,32V27H7V26H8V25h2V24h2V22H11V21H10V20H9V16H8V14H9V10h1V9h1V8h7V9h1v1h1v4h1v2H20v4H19v1H18v1H17v2h2v1h2v1h1v1h1v6h6V0H0V33H6Z"/><path class="ea93-2" d="M23,27H22v3H21V27H20v6h1V31h1v2h1V27Z"/><rect class="ea93-2" x="21" y="26" width="1" height="1"/><path class="ea93-3" d="M21,28v2h1V27H21Z"/><path class="ea93-4" d="M21,31v2h1V31Z"/><path class="ea93-2" d="M20,26h1V25H19v1Z"/><path class="ea93-3" d="M19,32V31H18v1H17V29h1V28h1v1h1V27h1V26H19V25H17v1H16v1H13V26H12V25H10v1H8v1H9v2h1V28h1v1h1v3H11V31H10v1H9v1H20V32Zm-3-2v1H15v1H13V28h2v1h1Z"/><path class="ea93-3" d="M15,29H14v2h1V29Z"/><rect class="ea93-3" x="18" y="29" width="1" height="1"/><rect class="ea93-3" x="10" y="29" width="1" height="1"/><path class="ea93-2" d="M18,25h1V24H17v1Z"/><path class="ea93-2" d="M16,24h1V23H16Z"/><rect class="ea93-2" x="16" y="25" width="1" height="1"/><path class="ea93-2" d="M13,26v1h3V26H13Z"/><path class="ea93-2" d="M13,23H12v1h1Z"/><path class="ea93-4" d="M13,25v1h3V25h1V24H16V23H13v1H12v1Z"/><rect class="ea93-2" x="12" y="25" width="1" height="1"/><path class="ea93-2" d="M12,24H10v1h2Z"/><path class="ea93-2" d="M10,25H8v1h2Z"/><path class="ea93-2" d="M9,31V27H8v3H7V27H6v6H7V31H8v2H9V31Z"/><rect class="ea93-2" x="7" y="26" width="1" height="1"/><path class="ea93-3" d="M7,30H8V27H7v3Z"/><path class="ea93-4" d="M7,31v2H8V31Z"/><path class="ea93-5" d="M19,30H18V29H17v3h1V31h1v1h1V29H19Z"/><rect class="ea93-5" x="18" y="28" width="1" height="1"/><path class="ea93-5" d="M15,30v1h1V29H15Z"/><path class="ea93-5" d="M14,30V29h1V28H13v4h2V31H14Z"/><path class="ea93-5" d="M9,32h1V31h1v1h1V29H11v1H10V29H9v3Z"/><rect class="ea93-5" x="10" y="28" width="1" height="1"/><path class="ea93-2" d="M20,16h1V15H20Z"/><rect class="ea93-4" x="14" y="15" width="1" height="1"/><path class="ea93-4" d="M16,16H15v1H14V16H13v1H11v1h1v1h1V18h5V17H16Z"/><path class="ea93-4" d="M14,14h2V13H13v1Z"/><path class="ea93-4" d="M16,10H12v1h5V10Z"/><path class="ea93-2" d="M8,15v1H9V15Z"/><rect class="ea93-2" x="14" y="16" width="1" height="1"/><path class="ea93-6" d="M15,18H13v1h3V18Z"/><path class="ea93-6" d="M14,23h3V22h1V21h1V20h1V16H19v1H18v1H17v1H16v1H13V19H12V18H11V17H10V16H9v4h1v1h1v1h1v1h2Z"/><rect class="ea93-2" x="13" y="19" width="3" height="1"/><path class="ea93-2" d="M16,19h1V18H16Z"/><path class="ea93-7" d="M19,14h1V13H19Z"/><path class="ea93-7" d="M12,11V10h5v1h3V10H19V9H18V8H11V9H10v1H9v1h3Z"/><path class="ea93-7" d="M10,13H9v1h1Z"/><path class="ea93-8" d="M19,15v1h1V15h1V14H19Z"/><path class="ea93-8" d="M17,14h2V13H16v1Z"/><path class="ea93-2" d="M19,14H16v2h3V14Z"/><path class="ea93-8" d="M16,16v1h3V16H16Z"/><path class="ea93-8" d="M13,14v2h1V15h1v1h1V14H13Z"/><path class="ea93-8" d="M13,14V13H10v1h3Z"/><path class="ea93-2" d="M13,16V14H10v2h3Z"/><path class="ea93-8" d="M13,16H10v1h3Z"/><path class="ea93-8" d="M10,15V14H8v1H9v1h1Z"/><path class="ea93-9" d="M20,12V11H9v1H20Z"/><path class="ea93-10" d="M11,13h9V12H9v1h2Z"/></svg>