<svg xmlns="http://www.w3.org/2000/svg" viewBox="0 0 29 33"><defs><style>polygon,rect,path{shape-rendering:crispedges;}.ab59-1{fill:#6b4f99;}.ab59-2{fill:#000000;}.ab59-3{fill:#d8be00;}.ab59-4{fill:#c18d59;}.ab59-5{fill:#ffffff;}.ab59-6{fill:#663228;}.ab59-7{fill:#e70059;}.ab59-8{fill:#ff1f4a;}.ab59-9{fill:#560000;}.ab59-10{fill:#317f03;}</style></defs><path class="ab59-1" d="M6,32V27H7V26H8V25h2V24h1V23h1V22H11V21H10v1H9V21H8V20H7V19H8V12H9V10h1V9h1V8h7V9h1v1h1v2h1v7h1v1H21v1H20v1H19V21H18v1H17v1h1v1h1v1h2v1h1v1h1v6h6V0H0V33H6Z"/><path class="ab59-2" d="M23,27H22v6h1V27Z"/><path class="ab59-3" d="M22,27H21v6h1V27Z"/><rect class="ab59-2" x="21" y="26" width="1" height="1"/><path class="ab59-2" d="M21,27H20v6h1V27Z"/><path class="ab59-3" d="M20,27h1V26H19V25H18v1H16V25H15v2H14V25H13v1H11V25H10v1H8v1H9v6h5V32h1v1h5V27Zm-5,4H14V30h1Zm0-2H14V28h1Z"/><path class="ab59-2" d="M20,26h1V25H19v1Z"/><rect class="ab59-3" x="16" y="24" width="1" height="1"/><rect class="ab59-2" x="15" y="24" width="1" height="1"/><rect class="ab59-2" x="14" y="32" width="1" height="1"/><rect class="ab59-2" x="14" y="30" width="1" height="1"/><rect class="ab59-2" x="14" y="28" width="1" height="1"/><path class="ab59-2" d="M14,26v1h1V25H14Z"/><rect class="ab59-2" x="13" y="24" width="1" height="1"/><path class="ab59-4" d="M16,24V23H13v1h1v1h1V24Z"/><rect class="ab59-3" x="12" y="24" width="1" height="1"/><path class="ab59-2" d="M11,26h2V25H12V24h1V23h3v1h1v1H16v1h2V25h1V24H18V23H17V21H16v1H13V21H12v2H11v1H10v1h1Z"/><path class="ab59-2" d="M10,25H8v1h2Z"/><path class="ab59-2" d="M9,27H8v6H9V27Z"/><path class="ab59-3" d="M8,27H7v6H8V27Z"/><rect class="ab59-2" x="7" y="26" width="1" height="1"/><path class="ab59-2" d="M7,27H6v6H7V27Z"/><path class="ab59-2" d="M20,16h1V15H20Z"/><rect class="ab59-2" x="19" y="14" width="1" height="1"/><rect class="ab59-4" x="9" y="15" width="1" height="1"/><path class="ab59-4" d="M18,20V19h1V16h1V15H16V14h2V13H16V12h1V11H16V10H15v5H14v1h1v1H14V16H13v1H11V16H10v3h1v1h1v1h1v1h3V21h1V20Zm-2-1v1H13V19H12V18h5v1Z"/><path class="ab59-2" d="M19,17v2h1V16H19Z"/><rect class="ab59-2" x="18" y="19" width="1" height="1"/><rect class="ab59-2" x="17" y="20" width="1" height="1"/><rect class="ab59-2" x="11" y="20" width="1" height="1"/><rect class="ab59-2" x="10" y="19" width="1" height="1"/><path class="ab59-2" d="M10,16H9v3h1V16Z"/><path class="ab59-2" d="M9,15H8v1H9Z"/><rect class="ab59-2" x="14" y="16" width="1" height="1"/><path class="ab59-5" d="M19,15V14H18v1Z"/><path class="ab59-5" d="M16,14v1h1V14Z"/><path class="ab59-2" d="M17,15h1V14H17Z"/><path class="ab59-6" d="M16,13h2V12H16Z"/><path class="ab59-2" d="M12,18v1h1V18Z"/><path class="ab59-2" d="M17,18H16v1h1Z"/><path class="ab59-2" d="M15,20h1V19H15Z"/><path class="ab59-2" d="M15,19V18H14v1Z"/><path class="ab59-2" d="M13,19v1h1V19Z"/><path class="ab59-5" d="M14,18H13v1h1Z"/><path class="ab59-5" d="M15,18v1h1V18Z"/><path class="ab59-7" d="M14,19v1h1V19Z"/><path class="ab59-8" d="M12,15h1V13H11v2Z"/><path class="ab59-9" d="M13,13v2h1V13Z"/><polygon class="ab59-9" points="12 15 11 15 11 16 13 16 13 15 12 15"/><path class="ab59-9" d="M11,15V14H10v1Z"/><path class="ab59-9" d="M13,12H11v1h2Z"/><rect class="ab59-2" x="10" y="15" width="1" height="1"/><rect class="ab59-2" x="11" y="16" width="2" height="1"/><rect class="ab59-2" x="13" y="15" width="1" height="1"/><path class="ab59-2" d="M13,13h1v2h1V10H13v1H12v1h1Z"/><rect class="ab59-2" x="9" y="14" width="1" height="1"/><path class="ab59-10" d="M20,17v2H19v1H18v1h1v1h1V21h1V20h1V19H21V16H20Z"/><path class="ab59-10" d="M9,14h2V12h1V11h1V10h3v1h1v1h1v2h2v1h1V12H20V10H19V9H18V8H11V9H10v1H9v2H8v3H9Z"/><path class="ab59-10" d="M10,20V19H9V16H8v3H7v1H8v1H9v1h1V21h1V20Z"/><path class="ab59-10" d="M11,21v1h1V21Z"/><path class="ab59-10" d="M17,22h1V21H17Z"/></svg>