<svg xmlns="http://www.w3.org/2000/svg" viewBox="0 0 29 33"><defs><style>polygon,rect,path{shape-rendering:crispedges;}.za122-1{fill:#7a982c;}.za122-2{fill:#000000;}.za122-3{fill:#ff6c77;}.za122-4{fill:#e8b795;}.za122-5{fill:#ffffff;}.za122-6{fill:#ffffff;}.za122-7{fill:#8e4717;}.za122-8{fill:#c9a717;}.za122-9{fill:#c9936f;}.za122-10{fill:#e8b592;}.za122-11{fill:#9b005c;}.za122-12{fill:#fad000;}.za122-13{fill:#ff1d99;}</style></defs><path class="za122-1" d="M6,32V27H7V26H8V25h2V24h1V23h1V21H11V20H10V19H9V16H8V15H9V14H8V13H4V12H6V11H8V10h2V9h1V8h1V7h1V6h1V5h1V6h1V7h1V8h1V9h1v1h2v1h2v1h2v1H21v1H20v1h1v1h1v1h1V16h1v2h1v5H24v8H23v1H21v1h8V0H0V33H6Z"/><path class="za122-1" d="M20,23V19H19v1H18v1H17v2h1v1h1v1h2V23Z"/><path class="za122-1" d="M20,17v1h1V16H20Z"/><path class="za122-2" d="M23,26v5h1V25H23Z"/><path class="za122-2" d="M7,30V27H6v6H7V30Z"/><path class="za122-3" d="M7,30H8V27H7v3Z"/><path class="za122-3" d="M7,31v2H8V31Z"/><rect class="za122-2" x="7" y="26" width="1" height="1"/><path class="za122-2" d="M9,31V27H8v6H9V31Z"/><path class="za122-3" d="M20,32V26H19V25H18v1H17v1H16V25H15v2H14V25H13v2H12V26H11V25H10v1H9v6h1v1h4V32h1v1h4V32Zm-9-3H10V28h1Zm2,2H12V30h1Zm2,0H14V30h1Zm0-2H14V28h1Zm2,2H16V30h1Zm1-2V28h1v1Z"/><path class="za122-2" d="M10,26V25H8v1h2Z"/><rect class="za122-3" x="12" y="24" width="1" height="1"/><path class="za122-2" d="M11,26h2V25H12V24h1V22H12v1H11v1H10v1h1Z"/><rect class="za122-2" x="13" y="24" width="1" height="1"/><rect class="za122-2" x="14" y="32" width="1" height="1"/><rect class="za122-2" x="14" y="30" width="1" height="1"/><rect class="za122-2" x="14" y="28" width="1" height="1"/><path class="za122-2" d="M14,26v1h1V25H14Z"/><rect class="za122-2" x="15" y="24" width="1" height="1"/><path class="za122-4" d="M16,24V23H13v1h1v1h1V24Z"/><rect class="za122-3" x="16" y="24" width="1" height="1"/><path class="za122-2" d="M18,24V23H17V22H16v2h1v1H16v1h2V25h1V24Z"/><path class="za122-2" d="M22,32h1V31H22V25H19v1h2v1H20v6h1V32Z"/><path class="za122-3" d="M23,28V26H22v3h1Z"/><path class="za122-3" d="M22,30v1h1V30Z"/><rect class="za122-5" x="18" y="28" width="1" height="1"/><rect class="za122-5" x="16" y="30" width="1" height="1"/><path class="za122-5" d="M16,27h1V26H16Z"/><rect class="za122-5" x="12" y="30" width="1" height="1"/><rect class="za122-5" x="10" y="28" width="1" height="1"/><path class="za122-5" d="M12,27h1V26H12Z"/><path class="za122-5" d="M21,27V26H20v1Z"/><path class="za122-5" d="M9,32v1h1V32Z"/><path class="za122-5" d="M19,32v1h1V32Z"/><path class="za122-5" d="M23,29H22v1h1Z"/><path class="za122-5" d="M23,25H22v1h1Z"/><path class="za122-5" d="M7,31H8V30H7Z"/><path class="za122-5" d="M9,27V26H8v1Z"/><rect class="za122-2" x="20" y="15" width="1" height="1"/><rect class="za122-2" x="19" y="14" width="1" height="1"/><rect class="za122-4" x="15" y="20" width="1" height="1"/><rect class="za122-4" x="13" y="20" width="1" height="1"/><rect class="za122-4" x="19" y="15" width="1" height="1"/><path class="za122-4" d="M18,16H16V14H13v2H10v2h1v1h1V18h2v1h1V18h2v1h1V18h1V16Zm-3,1H14V16h1Z"/><rect class="za122-4" x="9" y="15" width="1" height="1"/><path class="za122-2" d="M19,16v1h1V16Z"/><rect class="za122-2" x="9" y="14" width="1" height="1"/><path class="za122-2" d="M10,16H9v1h1Z"/><rect class="za122-2" x="8" y="15" width="1" height="1"/><rect class="za122-2" x="14" y="16" width="1" height="1"/><path class="za122-6" d="M11,15V14H10v2h1Z"/><path class="za122-6" d="M13,16V14H12v2Z"/><path class="za122-6" d="M17,16V14H16v2Z"/><path class="za122-6" d="M19,16V14H18v2Z"/><path class="za122-2" d="M11,16h1V14H11v2Z"/><path class="za122-2" d="M18,16V14H17v2Z"/><path class="za122-7" d="M14,18H13v1h1Z"/><path class="za122-7" d="M13,23h3V22h1V21h1V20h1V19h1V17H19v1H18v1H17V18H15v1h1v2H15V20H14v1H13V19H11V18H10V17H9v2h1v1h1v1h1v1h1Z"/><path class="za122-2" d="M13,19v1h3V19H13Z"/><path class="za122-2" d="M12,18v1h1V18Z"/><path class="za122-8" d="M11,14H21V13h4V12H23V11H21V10H19V9H18V8H17V7H16V6H15V5H14V6H13V7H12V8H11V9H10v1H8v1H6v1H4v1H8v1h3Z"/><path class="za122-9" d="M21,23V22H20v1Z"/><path class="za122-9" d="M24,22.111V23h1V22H24Z"/><rect class="za122-2" x="21" y="19" width="1" height="1"/><rect class="za122-2" x="23" y="19" width="1" height="1"/><path class="za122-10" d="M24,22H21v1h3V22Z"/><path class="za122-10" d="M24,21V20H23V19H22v1H21v1h3Z"/><path class="za122-11" d="M21,23v2h3V23H21Z"/><path class="za122-6" d="M22,18h2V16H23v1H22V16H21v2Z"/><path class="za122-12" d="M21,18H20v4h1V19h3v3h1V18H21Z"/><path class="za122-13" d="M24,22V21H21v1h3Z"/></svg>