<svg xmlns="http://www.w3.org/2000/svg" viewBox="0 0 29 33"><defs><style>polygon,rect,path{shape-rendering:crispedges;}.ga103-1{fill:#6b4f99;}.ga103-2{fill:#000000;}.ga103-3{fill:#00686d;}.ga103-4{fill:#efcaaf;}.ga103-5{fill:#00686d;}.ga103-6{fill:#ffffff;}.ga103-7{fill:#492a23;}.ga103-8{fill:#00686d;}.ga103-9{fill:#fad000;}.ga103-10{fill:#c9a717;}</style></defs><path class="ga103-1" d="M6,32V27H7V26H8V25h2V24h2V21H11V20H10V19H9V17H8V15H9V14H8V13H4V12H6V11H8V10h2V9h1V8h1V7h1V6h1V5h1V6h1V7h1V8h1V9h1v1h2v1h2v1h2v1H21v1H20v1h1v2H20v2H19v1H18v1H17v3h2v1h2v1h1v1h1v6h6V0H0V33H6Z"/><path class="ga103-2" d="M23,27H22v6h1V27Z"/><rect class="ga103-2" x="21" y="26" width="1" height="1"/><path class="ga103-3" d="M22,27H21v6h1V27Z"/><path class="ga103-2" d="M21,27H20v6h1V27Z"/><path class="ga103-2" d="M20,26h1V25H19v1Z"/><rect class="ga103-3" x="18" y="29" width="1" height="1"/><rect class="ga103-3" x="10" y="29" width="1" height="1"/><path class="ga103-3" d="M19,32V31H18v1H17V29h1V28h1v1h1V27h1V26H19V25H17v1H16v1H13V26H12V25H10v1H9v3h1V28h1v1h1v3H11V31H10v1H9v1H20V32Zm-3-2v1H15v1H13V28h2v1h1Z"/><path class="ga103-3" d="M15,29H14v2h1V29Z"/><path class="ga103-2" d="M18,25h1V24H17v1Z"/><rect class="ga103-2" x="16" y="25" width="1" height="1"/><path class="ga103-2" d="M13,26v1h3V26H13Z"/><path class="ga103-2" d="M13,23h3v1h1V21H16v1H13V21H12v3h1Z"/><path class="ga103-4" d="M13,25v1h3V25h1V24H16V23H13v1H12v1Z"/><rect class="ga103-2" x="12" y="25" width="1" height="1"/><path class="ga103-2" d="M12,24H10v1h2Z"/><path class="ga103-2" d="M9,31V26h1V25H8v1H7v1H8v6H9V31Z"/><path class="ga103-3" d="M8,27H7v6H8V27Z"/><path class="ga103-2" d="M7,27H6v6H7V27Z"/><path class="ga103-5" d="M19,30H18V29H17v3h1V31h1v1h1V29H19Z"/><rect class="ga103-5" x="18" y="28" width="1" height="1"/><path class="ga103-5" d="M15,30v1h1V29H15Z"/><path class="ga103-5" d="M14,30V29h1V28H13v4h2V31H14Z"/><path class="ga103-5" d="M9,32h1V31h1v1h1V29H11v1H10V29H9v3Z"/><rect class="ga103-5" x="10" y="28" width="1" height="1"/><path class="ga103-2" d="M21,16V15H20v1Z"/><path class="ga103-4" d="M13,22h3V21h1V20h1V19h1V16h1V15H15v2H14V15H13v1H11v1H10v2h1v1h1v1h1Zm-1-3V18h5v1H16v1H13V19Z"/><rect class="ga103-4" x="9" y="15" width="1" height="1"/><path class="ga103-2" d="M19,16v3h1V16Z"/><rect class="ga103-2" x="18" y="19" width="1" height="1"/><rect class="ga103-2" x="17" y="20" width="1" height="1"/><rect class="ga103-2" x="11" y="20" width="1" height="1"/><rect class="ga103-2" x="10" y="19" width="1" height="1"/><path class="ga103-2" d="M10,16H9v3h1V16Z"/><path class="ga103-2" d="M9,15H8v1H9Z"/><path class="ga103-2" d="M14,17h1V16H14Z"/><path class="ga103-6" d="M18,14v1h1V14Z"/><path class="ga103-6" d="M16,14v1h1V14Z"/><path class="ga103-2" d="M17,14v1h1V14Z"/><path class="ga103-7" d="M16,19h1V18H13v1Z"/><rect class="ga103-2" x="13" y="19" width="3" height="1"/><path class="ga103-2" d="M13,18H12v1h1Z"/><path class="ga103-8" d="M19,15h1V14H19Z"/><path class="ga103-8" d="M10,16v1h1V16h2V15h1v1h1V15h1V14H9v1h1Z"/><path class="ga103-9" d="M20,17h1V16H20Z"/><path class="ga103-9" d="M8,16v1H9V16Z"/><path class="ga103-10" d="M16,14h5V13h4V12H23V11H21V10H19V9H18V8H17V7H16V6H15V5H14V6H13V7H12V8H11V9H10v1H8v1H6v1H4v1H8v1h8Z"/></svg>