<svg xmlns="http://www.w3.org/2000/svg" viewBox="0 0 29 33"><defs><style>polygon,rect,path{shape-rendering:crispedges;}.na282-1{fill:#29834f;}.na282-2{fill:#000000;}.na282-3{fill:#f9e100;}.na282-4{fill:#9b8100;}.na282-5{fill:#c18d59;}.na282-6{fill:#ffffff;}.na282-7{fill:#004a77;}.na282-8{fill:#004a77;}.na282-9{fill:#ffce00;}.na282-10{fill:#fafafa;}</style></defs><path class="na282-1" d="M0,33H6V27H7V26H8V25h2V24h2V21H10V20H9V16H8V15H9V11h1V10h1V9h7v1h1v1h1v4h1v1H20v4H19v1H17v3h2v1h1V22h1V21h5v1h1v5H26v1H25v1H23v4h6V0H0Z"/><path class="na282-2" d="M23,29h2V28H20v5h1V29h1v4h1V29Z"/><path class="na282-3" d="M22,29H21v4h1V29Z"/><path class="na282-3" d="M20,28V26H19V25H18v8h2V28Z"/><path class="na282-2" d="M18,25h1V24H17v1H16v1h1v7h1V25Z"/><path class="na282-4" d="M17,26H16v1H13V26H12v7h5V26Z"/><path class="na282-2" d="M13,26v1h3V26H13Z"/><path class="na282-2" d="M13,23h3v1h1V21H16v1H13V21H12v3h1Z"/><path class="na282-5" d="M13,25v1h3V25h1V24H16V23H13v1H12v1Z"/><path class="na282-2" d="M12,26h1V25H12V24H10v1h1v8h1V26Z"/><path class="na282-3" d="M11,25H10v1H8v1H9v6h2V25Z"/><path class="na282-2" d="M10,25H8v1h2Z"/><path class="na282-2" d="M9,27H8v6H9V27Z"/><rect class="na282-2" x="7" y="26" width="1" height="1"/><path class="na282-3" d="M8,27H7v6H8V27Z"/><path class="na282-2" d="M7,27H6v6H7V27Z"/><rect class="na282-2" x="20" y="15" width="1" height="1"/><path class="na282-5" d="M13,22h3V21h1V20h1V18h1V16h1V15H16V13h1V12h2V11H18V10H11v1H10v2h1V12h2v1H11v1h2v1H9v1h1v2h1v2h1v1h1Zm1-6h1v1H14Zm-2,3V18h5v1H16v1H13V19Z"/><polygon class="na282-5" points="18 14 19 14 19 13 17 13 17 14 18 14"/><path class="na282-2" d="M19,17h1V16H19Z"/><path class="na282-2" d="M10,14H9v1h1Z"/><path class="na282-2" d="M10,16H9v1h1Z"/><rect class="na282-2" x="8" y="15" width="1" height="1"/><rect class="na282-2" x="14" y="16" width="1" height="1"/><path class="na282-6" d="M10,15h1V14H10Z"/><path class="na282-6" d="M16,14v1h1V14Z"/><path class="na282-2" d="M12,15h1V14H11v1Z"/><path class="na282-2" d="M18,14H17v1h3V14H18Z"/><rect class="na282-7" x="10" y="13" width="1" height="1"/><rect class="na282-7" x="11" y="12" width="2" height="1"/><path class="na282-7" d="M17,13H16v1h1Z"/><rect class="na282-7" x="17" y="12" width="2" height="1"/><path class="na282-8" d="M19,18H18v2H17v1h2V20h1V17H19Z"/><path class="na282-8" d="M11,20V18H10V17H9v3h1v1h2V20Z"/><path class="na282-2" d="M13,18H12v1h1Z"/><path class="na282-2" d="M17,19V18H16v1Z"/><path class="na282-2" d="M13,19v1h3V19H15V18H14v1Z"/><path class="na282-6" d="M14,19V18H13v1Z"/><path class="na282-6" d="M16,19V18H15v1Z"/><path class="na282-9" d="M19,13v1h1V11H19v2Z"/><rect class="na282-9" x="18" y="10" width="1" height="1"/><path class="na282-9" d="M18,10V9H11v1h7Z"/><rect class="na282-9" x="10" y="10" width="1" height="1"/><path class="na282-9" d="M10,13V11H9v3h1Z"/><rect class="na282-10" x="24" y="24" width="1" height="1"/><rect class="na282-10" x="21" y="24" width="1" height="1"/><path class="na282-5" d="M21,26v1H20v1h5V27H22V26h3v1h1V25H24V24h2V23H25V22H24v1H22V22H21v2h2v1H20v1Z"/><path class="na282-2" d="M24.25,26H22v1h3V26Z"/><path class="na282-2" d="M23,25V24H22v1Z"/><path class="na282-2" d="M25,24v1h1v2h1V24H25Z"/><path class="na282-2" d="M21,24H20v1h1Z"/><rect class="na282-2" x="25" y="27" width="1" height="1"/><path class="na282-9" d="M21,23V22H20v2h1Z"/><path class="na282-9" d="M22,23h2V22h1v1h1v1h1V22H26V21H21v1h1Z"/><rect class="na282-2" x="19" y="25" width="1" height="1"/><path class="na282-2" d="M21,26H20v1h1Z"/></svg>