<svg xmlns="http://www.w3.org/2000/svg" viewBox="0 0 29 33"><defs><style>polygon,rect,path{shape-rendering:crispedges;}.ba285-1{fill:#000000;}.ba285-2{fill:#e8b795;}.ba285-3{fill:#d2d8b8;}.ba285-4{fill:#8e9350;}.ba285-5{fill:#99004d;}.ba285-6{fill:#72dd40;}.ba285-7{fill:#db5800;}.ba285-8{fill:#dfdfdf;}.ba285-9{fill:#a89969;}.ba285-10{fill:#ffffff;}.ba285-11{fill:#db5a8e;}</style></defs><path class="ba285-1" d="M23,27H22v6h1V27Z"/><rect class="ba285-1" x="21" y="26" width="1" height="1"/><path class="ba285-2" d="M22,27H21v6h1V27Z"/><rect class="ba285-2" x="20" y="26" width="1" height="1"/><path class="ba285-1" d="M21,27H20v6h1V27Z"/><path class="ba285-1" d="M20,26h1V25H19v1Z"/><path class="ba285-3" d="M20,27V26H19V25H18v1H17v1H16v1h1v1h1v1h1v3h1V27Z"/><rect class="ba285-3" x="16" y="30" width="1" height="1"/><rect class="ba285-3" x="12" y="30" width="1" height="1"/><path class="ba285-3" d="M10,30h1V29h1V28h1V27H12V26H11V25H10v1H9v7h1V30Z"/><path class="ba285-3" d="M16,32H12v1h5V32Z"/><path class="ba285-1" d="M18,26V25h1V24H17v2Z"/><rect class="ba285-1" x="16" y="26" width="1" height="1"/><path class="ba285-1" d="M13,27v1h3V27H13Z"/><path class="ba285-1" d="M13,23h3v1h1V21H16v1H13V21H12v3h1Z"/><path class="ba285-2" d="M13,26v1h3V26h1V24H16V23H13v1H12v2Z"/><rect class="ba285-1" x="12" y="26" width="1" height="1"/><path class="ba285-1" d="M11,26h1V24H10v1h1Z"/><path class="ba285-1" d="M10,26V25H8v1h2Z"/><path class="ba285-2" d="M9,27V26H8v1Z"/><path class="ba285-1" d="M9,27H8v6H9V27Z"/><rect class="ba285-1" x="7" y="26" width="1" height="1"/><path class="ba285-2" d="M8,27H7v6H8V27Z"/><path class="ba285-1" d="M7,27H6v6H7V27Z"/><path class="ba285-4" d="M19,30H18V29H17V28H12v1H11v1H10v3h2V32h5v1h2V30Zm-6,1H12V30h1Zm4,0H16V30h1Z"/><rect class="ba285-1" x="20" y="15" width="1" height="1"/><rect class="ba285-2" x="14" y="13" width="1" height="1"/><rect class="ba285-2" x="9" y="15" width="1" height="1"/><path class="ba285-2" d="M12,19V18h5v2h1V19h1V16H16V15H13v1H10v3h1v1h1Zm2-3h1v1H14Z"/><rect class="ba285-2" x="19" y="15" width="1" height="1"/><path class="ba285-2" d="M13,20v2h3V20Z"/><path class="ba285-1" d="M19,17v2h1V16H19Z"/><rect class="ba285-1" x="18" y="19" width="1" height="1"/><rect class="ba285-1" x="17" y="20" width="1" height="1"/><rect class="ba285-1" x="11" y="20" width="1" height="1"/><rect class="ba285-1" x="10" y="19" width="1" height="1"/><path class="ba285-1" d="M10,16H9v3h1V16Z"/><rect class="ba285-1" x="8" y="15" width="1" height="1"/><rect class="ba285-1" x="14" y="16" width="1" height="1"/><path class="ba285-5" d="M17,19V18H13v1h3v2h1V19Z"/><path class="ba285-5" d="M13,20V19H12v2h1Z"/><path class="ba285-1" d="M16,19H13v1h3Z"/><path class="ba285-1" d="M12,18v1h1V18Z"/><rect class="ba285-6" x="9" y="13" width="1" height="1"/><path class="ba285-6" d="M19,14h2V13H19Z"/><path class="ba285-7" d="M13,14H10v2h3V15h1V14Z"/><path class="ba285-7" d="M19,14H15v1h1v1h3V14Z"/><path class="ba285-1" d="M10,14h4V13h1v1h4V13h3V12H20V11H19v1H10V11H9v1H7v1h3Z"/><path class="ba285-1" d="M19,15h1V14H19Z"/><path class="ba285-1" d="M10,14H9v1h1Z"/><path class="ba285-1" d="M14,14v1h1V14Z"/><path class="ba285-1" d="M24,11H22v1h2Z"/><rect class="ba285-8" x="21" y="7" width="1" height="1"/><rect class="ba285-8" x="20" y="8" width="1" height="1"/><rect class="ba285-9" x="19" y="10" width="1" height="1"/><path class="ba285-10" d="M18,11h1V10h1V8h1V7h1V6H20V7H19V8H18v3Z"/><path class="ba285-9" d="M17,11H10v1h9V11H17Z"/><path class="ba285-1" d="M11,11h7V7H16V8H13V7H11V8H10v3Z"/><path class="ba285-9" d="M10,10H9v1h1Z"/><path class="ba285-1" d="M6,11H5v1H7V11Z"/><path class="ba285-11" d="M0,33H6V27H7V26H8V25h2V24h2V21H11V20H10V19H9V16H8V15H9V13H7V12H5V11H7v1H9V10h1V8h1V7h2V8h3V7h2V8h1V7h1V6h2V8H21V9H20v3h2V11h2v1H22v1H21v1H20v1h1v1H20v3H19v1H18v1H17v3h2v1h2v1h1v1h1v6h6V0H0Z"/></svg>