<svg xmlns="http://www.w3.org/2000/svg" viewBox="0 0 29 33"><defs><style>polygon,rect,path{shape-rendering:crispedges;}.ab11-1{fill:#6b4f99;}.ab11-2{fill:#000000;}.ab11-3{fill:#ff6aa5;}.ab11-4{fill:#e8b795;}.ab11-5{fill:#ffa9d0;}.ab11-6{fill:#7f5018;}.ab11-7{fill:#cbed03;}.ab11-8{fill:#ffffff;}.ab11-9{fill:#0068ff;}.ab11-10{fill:#ff1f4a;}.ab11-11{fill:#455054;}.ab11-12{fill:#0079bc;}.ab11-13{fill:#ffce00;}</style></defs><path class="ab11-1" d="M8,18v4H9v2H8v1h2V24h1V23h1V21H11V20H10V19H9V16H8v2Z"/><path class="ab11-1" d="M0,33H8V32H6V31H5V22H6V21H7V20H5v1H2V17H5V16H8V15H9V10h1V9h1V8h7V9h1v1h1v2h1v6H20v1H19v1H18v1H17v2h1v1h1v1h2v1h1v1h1v6h6V0H0Z"/><path class="ab11-2" d="M6,29V22H5v9H6V29Z"/><path class="ab11-2" d="M23,27H22v6h1V27Z"/><path class="ab11-3" d="M21,28v2h1V27H21Z"/><path class="ab11-3" d="M21,31v2h1V31Z"/><rect class="ab11-2" x="21" y="26" width="1" height="1"/><path class="ab11-2" d="M21,30V27H20v6h1V30Z"/><path class="ab11-3" d="M20,32V26H19V25H18v1H17v1H16V25H15v2H14V25H13v2H12V26H11V25H10v1H9v6h1v1h4V32h1v1h4V32Zm-9-3H10V28h1Zm2,2H12V30h1Zm2,0H14V30h1Zm0-2H14V28h1Zm2,2H16V30h1Zm1-2V28h1v1Z"/><path class="ab11-2" d="M20,26h1V25H19v1Z"/><rect class="ab11-3" x="16" y="24" width="1" height="1"/><rect class="ab11-2" x="15" y="24" width="1" height="1"/><rect class="ab11-2" x="14" y="32" width="1" height="1"/><rect class="ab11-2" x="14" y="30" width="1" height="1"/><rect class="ab11-2" x="14" y="28" width="1" height="1"/><path class="ab11-2" d="M14,26v1h1V25H14Z"/><rect class="ab11-2" x="13" y="24" width="1" height="1"/><path class="ab11-4" d="M16,24V23H13v1h1v1h1V24Z"/><rect class="ab11-3" x="12" y="24" width="1" height="1"/><path class="ab11-2" d="M9,31V27H8V26h2V25H8V24H7v7H6v1H8v1H9V31Z"/><path class="ab11-3" d="M6,27v2H7V26H6Z"/><path class="ab11-3" d="M6,25H7V24H6Z"/><path class="ab11-3" d="M7,30H6v1H7Z"/><rect class="ab11-5" x="10" y="28" width="1" height="1"/><rect class="ab11-5" x="12" y="30" width="1" height="1"/><path class="ab11-5" d="M12,27h1V26H12Z"/><rect class="ab11-5" x="16" y="30" width="1" height="1"/><rect class="ab11-5" x="18" y="28" width="1" height="1"/><path class="ab11-5" d="M16,27h1V26H16Z"/><path class="ab11-5" d="M8,27H9V26H8Z"/><path class="ab11-5" d="M19,32v1h1V32Z"/><path class="ab11-5" d="M9,32v1h1V32Z"/><path class="ab11-5" d="M6,30H7V29H6Z"/><path class="ab11-5" d="M6,26H7V25H6Z"/><path class="ab11-5" d="M21,31h1V30H21Z"/><path class="ab11-5" d="M20,27h1V26H20Z"/><path class="ab11-4" d="M15,12V11H13V10H11v1H10v2h1V12h2v1h1v1h1V13h1V12Z"/><path class="ab11-4" d="M19,16H15v1H14V16H10v3h1v1h1v1h1v1h3V21h1V20h1V19h1V16Zm-3,4H13V19h3Z"/><rect class="ab11-4" x="14" y="15" width="1" height="1"/><path class="ab11-2" d="M19,16v3h1V16Z"/><rect class="ab11-2" x="18" y="19" width="1" height="1"/><rect class="ab11-2" x="17" y="20" width="1" height="1"/><path class="ab11-2" d="M16,22H13V21H12v2H11v1H10v1h1v1h2V25H12V24h1V23h3v1h1v1H16v1h2V25h1V24H18V23H17V21H16Z"/><rect class="ab11-2" x="11" y="20" width="1" height="1"/><rect class="ab11-2" x="10" y="19" width="1" height="1"/><path class="ab11-2" d="M10,16H9v3h1V16Z"/><rect class="ab11-2" x="8" y="15" width="1" height="1"/><rect class="ab11-2" x="14" y="16" width="1" height="1"/><path class="ab11-6" d="M11,12v1h2V12Z"/><rect class="ab11-2" x="13" y="19" width="3" height="1"/><path class="ab11-7" d="M10,12V11h1V10h2v1h2v1h1v1h4v5h1V12H20V10H19V9H18V8H11V9H10v1H9v3h1Z"/><path class="ab11-8" d="M10,16h4V15h1v1h5V13H15v1H14V13H9v3Zm6-2h3v1H16Zm-6,0h3v1H10Z"/><path class="ab11-9" d="M19,15V14H16v1h3Z"/><path class="ab11-10" d="M13,15V14H10v1h3Z"/><path class="ab11-4" d="M7,24H8V22H6v2Z"/><path class="ab11-11" d="M8,22V20H7v2Z"/><path class="ab11-2" d="M7,21H6v1H7Z"/><path class="ab11-2" d="M9,22H8v2H9Z"/><path class="ab11-12" d="M5,17H2v1H5Z"/><path class="ab11-12" d="M6,16H5v1H6Z"/><path class="ab11-12" d="M8,17V16H7v1Z"/><path class="ab11-12" d="M5,18v1H2v2H5V20H6V18Z"/><path class="ab11-12" d="M8,19V18H7v2H8Z"/><path class="ab11-13" d="M8,18V17H7V16H6v1H5v1H6v2H7V18Z"/><path class="ab11-13" d="M5,19V18H2v1H5Z"/></svg>