<svg xmlns="http://www.w3.org/2000/svg" viewBox="0 0 29 33"><defs><style>polygon,rect,path{shape-rendering:crispedges;}.ja235-1{fill:#db5a8e;}.ja235-2{fill:#000000;}.ja235-3{fill:#184226;}.ja235-4{fill:#512a24;}.ja235-5{fill:#ffffff;}.ja235-6{fill:#316a6d;}.ja235-7{fill:#316a6d;}.ja235-8{fill:#0068ff;}</style></defs><rect class="ja235-1" x="12" y="8" width="1" height="1"/><path class="ja235-1" d="M0,33H8V32H6V31H5V23H4V20H5V19H7v1H8v1H9v2H8v2h2V24h2V21H11V20H10V19H9V16H8V15H9V11h1V10H9V9h1V8h2V7h1V8h3V9h1V8h1V9h1v1h1v5h1v1H20v3H19v1H18v1H17v3h2v1h2v1h1v1h1v6h6V0H0Z"/><path class="ja235-2" d="M6,24V23H5v8H6V24Z"/><path class="ja235-3" d="M7,30V24H6v7H7Z"/><path class="ja235-2" d="M9,27H8V26h2V25H8V23H7v8H6v1H8v1H9V27Z"/><path class="ja235-3" d="M20,27h1V26H19V25H17V24H16V23H13v1H12v1H10v1H8v1H9v6H20V27Z"/><path class="ja235-2" d="M12,24H10v1h2Z"/><path class="ja235-2" d="M13,23h3v1h1V21H16v1H13V21H12v3h1Z"/><path class="ja235-2" d="M18,25h1V24H17v1Z"/><path class="ja235-2" d="M20,26h1V25H19v1Z"/><path class="ja235-2" d="M21,27H20v6h1V27Z"/><rect class="ja235-2" x="21" y="26" width="1" height="1"/><path class="ja235-3" d="M22,27H21v6h1V27Z"/><path class="ja235-2" d="M23,27H22v6h1V27Z"/><rect class="ja235-2" x="20" y="15" width="1" height="1"/><path class="ja235-4" d="M12,19V18h5v1h2V16h1V15H16V14h2V13H16V12h2V11H17V10H16v1H11v1h2v1H11v1h2v1H9v1h1v3h2Zm2-3h1v1H14Z"/><rect class="ja235-4" x="18" y="12" width="1" height="1"/><rect class="ja235-4" x="10" y="12" width="1" height="1"/><rect class="ja235-4" x="13" y="20" width="1" height="1"/><rect class="ja235-4" x="15" y="20" width="1" height="1"/><rect class="ja235-4" x="12" y="19" width="1" height="1"/><rect class="ja235-4" x="16" y="19" width="1" height="1"/><path class="ja235-2" d="M19,17v2h1V16H19Z"/><path class="ja235-2" d="M18,20h1V19H18Z"/><rect class="ja235-2" x="17" y="20" width="1" height="1"/><rect class="ja235-2" x="11" y="20" width="1" height="1"/><path class="ja235-2" d="M10,19v1h1V19Z"/><path class="ja235-2" d="M10,14H9v1h1Z"/><path class="ja235-2" d="M10,16H9v3h1V16Z"/><rect class="ja235-2" x="8" y="15" width="1" height="1"/><rect class="ja235-2" x="14" y="16" width="1" height="1"/><path class="ja235-5" d="M13,15V14H12v1Z"/><path class="ja235-5" d="M10,15h1V14H10Z"/><path class="ja235-5" d="M18,14v1h1V14Z"/><path class="ja235-5" d="M16,14v1h1V14Z"/><path class="ja235-2" d="M12,15V14H11v1Z"/><path class="ja235-2" d="M17,14v1h1V14Z"/><rect class="ja235-6" x="18" y="13" width="1" height="1"/><rect class="ja235-6" x="16" y="12" width="2" height="1"/><rect class="ja235-6" x="10" y="13" width="1" height="1"/><rect class="ja235-6" x="11" y="12" width="2" height="1"/><path class="ja235-7" d="M17,19v1h1V19Z"/><rect class="ja235-7" x="16" y="20" width="1" height="1"/><path class="ja235-7" d="M15,20H14v1H13v1h3V21H15Z"/><path class="ja235-7" d="M14,19h2V18H12v1h2Z"/><rect class="ja235-7" x="12" y="20" width="1" height="1"/><path class="ja235-7" d="M12,19H11v1h1Z"/><path class="ja235-2" d="M15,20h1V19H13v1h2Z"/><path class="ja235-2" d="M17,19V18H16v1Z"/><path class="ja235-2" d="M9,23V21H8v2Z"/><rect class="ja235-2" x="7" y="20" width="1" height="1"/><rect class="ja235-2" x="5" y="19" width="2" height="1"/><path class="ja235-2" d="M5,20H4v3H5V20Z"/><path class="ja235-4" d="M6,24H7V23H8V21H7V20H5v3H6Z"/><path class="ja235-8" d="M10,13V12h1V11h5V10h1v1h1v1h1v3h1V10H19V9H18V8H17V9H16V8H13V9H12V8H10V9H9v1h1v1H9v3h1Z"/><rect class="ja235-8" x="12" y="7" width="1" height="1"/></svg>