<svg xmlns="http://www.w3.org/2000/svg" viewBox="0 0 29 33"><defs><style>polygon,rect,path{shape-rendering:crispedges;}.cb108-1{fill:#000000;}.cb108-2{fill:#9b8100;}.cb108-3{fill:#ffffff;}.cb108-4{fill:#b2622b;}.cb108-5{fill:#4922aa;}.cb108-6{fill:#e55b35;}</style></defs><path class="cb108-1" d="M23,27H22v6h1V27Z"/><path class="cb108-2" d="M22,27H21v6h1V27Z"/><rect class="cb108-1" x="21" y="26" width="1" height="1"/><path class="cb108-1" d="M21,27H20v6h1V27Z"/><path class="cb108-2" d="M20,27h1V26H19V25H18v4H17v4h3V27Z"/><path class="cb108-1" d="M20,26h1V25H19v1Z"/><path class="cb108-1" d="M17,29H16v4h1V29Z"/><rect class="cb108-3" x="16" y="24" width="1" height="1"/><path class="cb108-3" d="M16,29h1V26H16V25H13v1H12v3h1v4h1V32h1v1h1V29Zm-1,2H14V30h1Zm0-2H14V28h1Zm0-2H14V26h1Z"/><rect class="cb108-1" x="14" y="32" width="1" height="1"/><rect class="cb108-1" x="14" y="30" width="1" height="1"/><rect class="cb108-1" x="14" y="28" width="1" height="1"/><rect class="cb108-1" x="14" y="26" width="1" height="1"/><path class="cb108-1" d="M13,29H12v4h1V29Z"/><rect class="cb108-3" x="12" y="24" width="1" height="1"/><path class="cb108-2" d="M12,29H11V25H10v1H8v1H9v6h3V29Z"/><path class="cb108-1" d="M11,26v3h1V26h1V25H12V24h1v1h3V24h1v1H16v1h1v3h1V25h1V24H18V23H17V22h1V21h1V20h1V17h1V15H20V11H19V10H18V9H11v1H10v1H9v4H8v2H9v3h1v1h1v1h1v1H11v1H10v1h1Zm5-11V14h1v1h1V14h1v2H16Zm-1,5h1v1H13V20h2Zm-4-4H10V14h1v1h1V14h1v2Z"/><path class="cb108-1" d="M10,25H8v1h2Z"/><path class="cb108-1" d="M9,27H8v6H9V27Z"/><path class="cb108-2" d="M8,27H7v6H8V27Z"/><rect class="cb108-1" x="7" y="26" width="1" height="1"/><path class="cb108-1" d="M7,27H6v6H7V27Z"/><path class="cb108-4" d="M16,21V20H15v1Z"/><path class="cb108-4" d="M13,15H10v1h3Z"/><path class="cb108-4" d="M19,15H16v1h3Z"/><path class="cb108-4" d="M13,21h1V20H13Z"/><path class="cb108-3" d="M13,14H12v1h1Z"/><path class="cb108-3" d="M11,14H10v1h1Z"/><path class="cb108-3" d="M19,14H18v1h1Z"/><path class="cb108-3" d="M17,14H16v1h1Z"/><path class="cb108-5" d="M15,21V20H14v1Z"/><path class="cb108-6" d="M0,9V33H6V27H7V26H8V25h2V24h1V23h1V22H11V21H10V20H9V17H8V15H9V11h1V10h1V9h7v1h1v1h1v4h1v2H20v3H19v1H18v1H17v1h1v1h1v1h2v1h1v1h1v6h6V0H0Z"/></svg>