<svg xmlns="http://www.w3.org/2000/svg" viewBox="0 0 29 33"><defs><style>polygon,rect,path{shape-rendering:crispedges;}.pa67-1{fill:#db5a8e;}.pa67-2{fill:#000000;}.pa67-3{fill:#508e91;}.pa67-4{fill:#e8b795;}.pa67-5{fill:#ffffff;}.pa67-6{fill:#b23b00;}.pa67-7{fill:#b23b00;}.pa67-8{fill:#99004d;}.pa67-9{fill:#ffffff;}.pa67-10{fill:#455054;}.pa67-11{fill:#ff1f4a;}.pa67-12{fill:#002b4f;}</style></defs><path class="pa67-1" d="M0,33H8V32H6V31H5V22H6V21H7V20H5v1H2V17H5V16H8V15H9V11h1V10h1V9h2V7h1V5h1V6h1V8h1V9h1v1h1v1h1v4h1v1H20v3H19v1H18v2h1v1H18v1h1v1h2v1h1v1h1v6h6V0H0Z"/><path class="pa67-1" d="M8,18v4H9v2H8v1h2V24h1V23H10V22h1V20H10V19H9V16H8v2Z"/><path class="pa67-2" d="M6,24V22H5v9H6V24Z"/><path class="pa67-2" d="M23,27H22v6h1V27Z"/><path class="pa67-3" d="M22,27H21v6h1V27Z"/><rect class="pa67-2" x="21" y="26" width="1" height="1"/><path class="pa67-2" d="M21,27H20v6h1V27Z"/><path class="pa67-3" d="M10,28h1v1h1V25h1V24H11v1H10v1H8v1H9v2h1Z"/><path class="pa67-3" d="M19,32V31H18v1H17V30H16v1H15v1H13V30H12v2H11V31H10v1H9v1H20V32Z"/><rect class="pa67-3" x="18" y="29" width="1" height="1"/><path class="pa67-3" d="M16,25h1v4h1V28h1v1h1V27h1V26H19V25H18V24H16Z"/><rect class="pa67-3" x="10" y="29" width="1" height="1"/><path class="pa67-2" d="M20,26h1V25H19v1Z"/><rect class="pa67-2" x="18" y="24" width="1" height="1"/><rect class="pa67-2" x="18" y="22" width="1" height="1"/><rect class="pa67-3" x="17" y="22" width="1" height="1"/><path class="pa67-2" d="M17,22h1V21H17Z"/><path class="pa67-2" d="M13,24v1h3V24H13Z"/><path class="pa67-4" d="M14,24h2V23H13v1Z"/><path class="pa67-2" d="M13,23V22H12v1H11v1h2Z"/><rect class="pa67-3" x="11" y="22" width="1" height="1"/><path class="pa67-2" d="M12,21H11v1h1Z"/><rect class="pa67-2" x="10" y="24" width="1" height="1"/><rect class="pa67-2" x="10" y="22" width="1" height="1"/><path class="pa67-2" d="M9,31V27H8V26h2V25H8V24H7v7H6v1H8v1H9V31Z"/><path class="pa67-3" d="M7,30V24H6v7H7Z"/><path class="pa67-3" d="M14,29v2h1V29Z"/><path class="pa67-3" d="M13,25v3h2v1h1V25H13Z"/><path class="pa67-5" d="M19,30H18V29H17v3h1V31h1v1h1V29H19Z"/><rect class="pa67-5" x="18" y="28" width="1" height="1"/><path class="pa67-5" d="M15,29v2h1V29Z"/><path class="pa67-5" d="M14,30V29h1V28H13v4h2V31H14Z"/><path class="pa67-5" d="M11,29v1H10V29H9v3h1V31h1v1h1V29Z"/><rect class="pa67-5" x="10" y="28" width="1" height="1"/><path class="pa67-2" d="M13,25H12v5h1V25Z"/><path class="pa67-2" d="M17,28V25H16v5h1V28Z"/><rect class="pa67-2" x="20" y="15" width="1" height="1"/><path class="pa67-2" d="M19,14v1h1V11H19v3Z"/><rect class="pa67-4" x="14" y="15" width="1" height="1"/><rect class="pa67-4" x="19" y="15" width="1" height="1"/><path class="pa67-4" d="M12,12v1h1v1h3V12h2v1h1V11H18V10H14v1H13V10H11v1H10v1Z"/><rect class="pa67-4" x="15" y="20" width="1" height="1"/><path class="pa67-4" d="M10,18h1v1h1V18h2v1h1V18h2v1h1V18h1V16H18v1H16V16H15v1H14V16H13v1H11V16H10v2Z"/><rect class="pa67-4" x="9" y="15" width="1" height="1"/><rect class="pa67-4" x="13" y="20" width="1" height="1"/><rect class="pa67-4" x="10" y="13" width="1" height="1"/><path class="pa67-2" d="M19,17h1V16H19Z"/><rect class="pa67-2" x="18" y="10" width="1" height="1"/><path class="pa67-2" d="M17,22H16v2h2V23H17Z"/><path class="pa67-2" d="M15,10h3V9H15Z"/><path class="pa67-2" d="M13,9H11v1h2Z"/><rect class="pa67-2" x="10" y="10" width="1" height="1"/><path class="pa67-2" d="M10,14V11H9v4h1Z"/><path class="pa67-2" d="M10,16H9v1h1Z"/><rect class="pa67-2" x="8" y="15" width="1" height="1"/><rect class="pa67-2" x="14" y="16" width="1" height="1"/><path class="pa67-6" d="M19,14V13H18v1Z"/><path class="pa67-6" d="M18,12H16v1h2Z"/><path class="pa67-6" d="M12,13V12H10v1h2Z"/><path class="pa67-7" d="M15,18v1h1V18Z"/><path class="pa67-7" d="M19,18H18v1H16v2H15V20H14v1H13V19h1V18H12v1H11V18H10V17H9v2h1v1h1v1h1v1h1v1h3V22h1V21h1V20h1V19h1V17H19Z"/><path class="pa67-2" d="M14,19H13v1h3V19H14Z"/><path class="pa67-2" d="M16,18v1h1V18Z"/><path class="pa67-8" d="M13,11h1V10h1V9h2V8H16V6H15V5H14V7H13v4Z"/><path class="pa67-9" d="M11,14h2V13H11Z"/><path class="pa67-9" d="M11,17h2V16H11Z"/><polygon class="pa67-9" points="11 15 11 14 10 14 10 15 10 16 11 16 11 15"/><path class="pa67-2" d="M11,15v1h2V14H11Z"/><path class="pa67-9" d="M18,15v1h1V14H18Z"/><path class="pa67-9" d="M18,13H16v1h2Z"/><path class="pa67-9" d="M16,17h2V16H16Z"/><path class="pa67-9" d="M14,16V15h1v1h1V14H13v2Z"/><path class="pa67-2" d="M18,16V14H16v2Z"/><path class="pa67-4" d="M7,24H8V22H6v2Z"/><path class="pa67-10" d="M8,22V20H7v2Z"/><path class="pa67-2" d="M7,21H6v1H7Z"/><path class="pa67-2" d="M9,22H8v2H9Z"/><path class="pa67-11" d="M5,17H2v1H5Z"/><path class="pa67-11" d="M2,21H5V20H2Z"/><path class="pa67-11" d="M5,19v1H6V19Z"/><path class="pa67-11" d="M8,19H7v1H8Z"/><path class="pa67-12" d="M7,18H8V17H7V16H6v1H5v1H6v2H7V18Z"/><path class="pa67-12" d="M5,19V18H2v1H5Z"/><path class="pa67-11" d="M6,16H5v1H6Z"/><path class="pa67-9" d="M6,19V18H5v1Z"/><path class="pa67-9" d="M4,19H2v1H5V19Z"/><path class="pa67-9" d="M7,18v1H8V18Z"/><path class="pa67-9" d="M8,17V16H7v1Z"/></svg>