<svg xmlns="http://www.w3.org/2000/svg" viewBox="0 0 29 33"><defs><style>polygon,rect,path{shape-rendering:crispedges;}.gb69-1{fill:#29834f;}.gb69-2{fill:#000000;}.gb69-3{fill:#844f4f;}.gb69-4{fill:#ffffff;}.gb69-5{fill:#e8b795;}.gb69-6{fill:#90a2a3;}.gb69-7{fill:#ffffff;}.gb69-8{fill:#5e362f;}.gb69-9{fill:#cbed03;}</style></defs><path class="gb69-1" d="M0,33H6V27H7V26H8V25H9V24h1V23h1V22h1V21H11V20H9V19H8V11H9V10h1V9h1V8h7V9h1v1h1v1h1v8H20v1H18v1H17v1h1v1h1v1h2V23h1v1h1v9h6V0H0Z"/><path class="gb69-2" d="M7,27H6v6H7V27Z"/><path class="gb69-3" d="M8,27H7v6H8V27Z"/><path class="gb69-2" d="M9,29h1V28h2V27H9V25H8v1H7v1H8v6H9V29Z"/><rect class="gb69-2" x="9" y="24" width="1" height="1"/><path class="gb69-3" d="M12,32V31H11V30H10V29H9v4h4V32Z"/><rect class="gb69-2" x="10" y="23" width="1" height="1"/><path class="gb69-3" d="M10,26v1h2v1H10v1h1v1h1v1h1V26H12V25H11V24H10v1H9v1Z"/><rect class="gb69-3" x="11" y="23" width="1" height="1"/><rect class="gb69-2" x="11" y="24" width="1" height="1"/><rect class="gb69-2" x="10" y="29" width="1" height="1"/><path class="gb69-2" d="M12,24h1V23h3v1h1V23h1V22H17V21H16v1H13V21H12v1H11v1h1Z"/><rect class="gb69-2" x="12" y="25" width="1" height="1"/><path class="gb69-4" d="M15,27H14v6h1V27Z"/><path class="gb69-5" d="M17,25V24H16V23H13v1H12v1h1v1h3V25Z"/><rect class="gb69-2" x="16" y="25" width="1" height="1"/><path class="gb69-3" d="M20,29H19v1H18v1H17v1H16v1h4V29Z"/><rect class="gb69-3" x="17" y="23" width="1" height="1"/><rect class="gb69-2" x="17" y="24" width="1" height="1"/><rect class="gb69-2" x="17" y="30" width="1" height="1"/><rect class="gb69-2" x="18" y="23" width="1" height="1"/><path class="gb69-3" d="M18,25H17v1H16v5h1V30h1V29h1V28H17V27h2V24H18Z"/><path class="gb69-2" d="M21,27H20V25h1V24H19v3H17v1h2v1h1v4h1V27Z"/><path class="gb69-3" d="M22,27H21v6h1V27Z"/><path class="gb69-2" d="M23,24H22v9h1V24Z"/><rect class="gb69-2" x="18" y="29" width="1" height="1"/><rect class="gb69-2" x="11" y="30" width="1" height="1"/><path class="gb69-2" d="M17,32V31H16V26H13v5H12v1h1v1h1V27h1v6h1V32Z"/><path class="gb69-6" d="M9,26v1h1V26Z"/><path class="gb69-5" d="M13,22h3V21h1V20h1V19h1V16h1V15H16V13h1V11H15V10H14v1H13v1H12v1h1v2H9v1h1v3h1v1h1v1h1Zm1-6h1v1H14Zm-1,3h3V18h1v1H16v1H13Z"/><path class="gb69-2" d="M20,16H19v3h1V16Z"/><path class="gb69-2" d="M18,19v1h1V19Z"/><rect class="gb69-2" x="17" y="20" width="1" height="1"/><rect class="gb69-2" x="11" y="20" width="1" height="1"/><path class="gb69-2" d="M10,19v1h1V19Z"/><path class="gb69-2" d="M10,18V16H9v3h1Z"/><rect class="gb69-2" x="14" y="16" width="1" height="1"/><path class="gb69-7" d="M12,15h1V14H12Z"/><path class="gb69-7" d="M10,14v1h1V14Z"/><path class="gb69-7" d="M18,14v1h1V14Z"/><path class="gb69-7" d="M16,14v1h1V14Z"/><path class="gb69-2" d="M11,14v1h1V14Z"/><path class="gb69-2" d="M17,14v1h1V14Z"/><path class="gb69-8" d="M11,14h2V13H11Z"/><path class="gb69-8" d="M18,14h1V13H16v1h2Z"/><rect class="gb69-2" x="13" y="19" width="3" height="1"/><rect class="gb69-2" x="16" y="18" width="1" height="1"/><path class="gb69-5" d="M20,25v2h2V24H21v1Z"/><rect class="gb69-2" x="21" y="23" width="1" height="1"/><path class="gb69-9" d="M9,16V15h1V14h1V13h1V12h1V11h1V10h1v1h2v2h2v2h1v4h1V11H20V10H19V9H18V8H11V9H10v1H9v1H8v8H9V16Z"/><path class="gb69-9" d="M9,19v1h1V19Z"/><path class="gb69-9" d="M19,20h1V19H19Z"/></svg>