<svg xmlns="http://www.w3.org/2000/svg" viewBox="0 0 29 33"><defs><style>polygon,rect,path{shape-rendering:crispedges;}.eb171-1{fill:#6b4f99;}.eb171-2{fill:#000000;}.eb171-3{fill:#3e5e00;}.eb171-4{fill:#ffffff;}.eb171-5{fill:#efcaaf;}.eb171-6{fill:#90a2a3;}.eb171-7{fill:#ffffff;}.eb171-8{fill:#6f7032;}.eb171-9{fill:#6f7032;}.eb171-10{fill:#e70059;}.eb171-11{fill:#ffce00;}.eb171-12{fill:#fad000;}.eb171-13{fill:#6d5800;}.eb171-14{fill:#9b8100;}.eb171-15{fill:#ffffff;}</style></defs><path class="eb171-1" d="M0,33H6V27H7V26H8V25H9V24h1V23h1V22h1V21H9V20H8V19H9V16H8V15H9V10h1V9h1V8h7V9h1v2h1v4h1v1H20v2h1V17h1V16h1v1h1v1h1v5H24v8H23v1H21v1h8V0H0Z"/><path class="eb171-1" d="M20,23V21H17v1h1v1h1v1h1v1h1V23Z"/><path class="eb171-2" d="M7,27H6v6H7V27Z"/><path class="eb171-3" d="M8,27H7v6H8V27Z"/><path class="eb171-2" d="M9,29h1V28h2V27H9V25H8v1H7v1H8v6H9V29Z"/><rect class="eb171-2" x="9" y="24" width="1" height="1"/><path class="eb171-3" d="M12,32V31H11V30H10V29H9v4h4V32Z"/><rect class="eb171-2" x="10" y="23" width="1" height="1"/><path class="eb171-3" d="M10,26v1h2v1H10v1h1v1h1v1h1V26H12V25H11V24H10v1H9v1Z"/><rect class="eb171-2" x="10" y="29" width="1" height="1"/><rect class="eb171-3" x="11" y="23" width="1" height="1"/><rect class="eb171-2" x="11" y="24" width="1" height="1"/><rect class="eb171-2" x="11" y="30" width="1" height="1"/><path class="eb171-2" d="M12,24h1V23h3v1h1V23h1V22H17V21H16v1H13V21H12v1H11v1h1Z"/><rect class="eb171-2" x="12" y="25" width="1" height="1"/><path class="eb171-2" d="M17,32V31H16V26H13v5H12v1h1v1h1V27h1v6h1V32Z"/><path class="eb171-4" d="M15,27H14v6h1V27Z"/><path class="eb171-5" d="M17,25V24H16V23H13v1H12v1h1v1h3V25Z"/><rect class="eb171-2" x="16" y="25" width="1" height="1"/><path class="eb171-3" d="M20,29H19v1H18v1H17v1H16v1h4V29Z"/><rect class="eb171-3" x="17" y="23" width="1" height="1"/><rect class="eb171-2" x="17" y="24" width="1" height="1"/><rect class="eb171-2" x="17" y="30" width="1" height="1"/><rect class="eb171-2" x="18" y="23" width="1" height="1"/><rect class="eb171-2" x="18" y="29" width="1" height="1"/><rect class="eb171-2" x="19" y="24" width="1" height="1"/><path class="eb171-3" d="M19,24H18v1H17v1H16v5h1V30h1V29h1V28H17V27h2V26h1V25H19Z"/><path class="eb171-2" d="M22,32h1V31H22V25H20v2H17v1h2v1h1v4h1V32Z"/><path class="eb171-3" d="M23,26V25H22v6h1V26Z"/><path class="eb171-2" d="M23,26v5h1V25H23Z"/><path class="eb171-6" d="M19,27h1V26H19Z"/><path class="eb171-6" d="M9,26v1h1V26Z"/><rect class="eb171-2" x="20" y="15" width="1" height="1"/><path class="eb171-2" d="M19,13v1H17v1h3V11H19v2Z"/><path class="eb171-5" d="M13,22h3V21h1V19H16v1H13V19H12v2h1Z"/><path class="eb171-5" d="M10,17v1h1v1h1V18h5v1h1V18h1V16h1V15H16V14h3V13H16V12h3V11H18V10H17v1H16V10H15v1H14V10H13v1H12V10H11v1H10v1h3v1H10v1h3v1H9v1h1Zm4-1h1v1H14Z"/><path class="eb171-2" d="M18,20H17v1h1Z"/><rect class="eb171-2" x="17" y="9" width="1" height="1"/><rect class="eb171-2" x="11" y="9" width="1" height="1"/><rect class="eb171-2" x="15" y="9" width="1" height="1"/><rect class="eb171-2" x="13" y="9" width="1" height="1"/><path class="eb171-2" d="M11,20v1h1V20Z"/><rect class="eb171-2" x="10" y="10" width="1" height="1"/><path class="eb171-2" d="M10,14V11H9v4h1Z"/><rect class="eb171-2" x="8" y="15" width="1" height="1"/><rect class="eb171-2" x="14" y="16" width="1" height="1"/><path class="eb171-7" d="M11,15V14H10v1Z"/><path class="eb171-7" d="M16,14v1h1V14Z"/><path class="eb171-2" d="M12,15h1V14H11v1Z"/><path class="eb171-8" d="M13,13V12H10v1Z"/><path class="eb171-8" d="M16,12v1h3V12Z"/><path class="eb171-9" d="M19,17v1H18v1H17v1h1v1h2V16H19Z"/><path class="eb171-9" d="M12,20V19H11V18H10V16H9v3H8v1H9v1h2V20Z"/><path class="eb171-2" d="M12,18v1h1V18Z"/><path class="eb171-2" d="M16,18v1h1V18Z"/><path class="eb171-2" d="M15,20h1V19H15Z"/><path class="eb171-2" d="M15,19V18H14v1Z"/><path class="eb171-2" d="M13,19v1h1V19Z"/><path class="eb171-7" d="M14,18H13v1h1Z"/><path class="eb171-7" d="M15,18v1h1V18Z"/><path class="eb171-10" d="M14,19v1h1V19Z"/><path class="eb171-11" d="M18,11h1V9H18v2Z"/><path class="eb171-11" d="M12,10v1h1V9h1v2h1V9h1v2h1V9h1V8H11V9h1Z"/><rect class="eb171-11" x="10" y="9" width="1" height="1"/><path class="eb171-11" d="M10,10H9v1h1Z"/><path class="eb171-12" d="M20,21h5V18H24v2H23V18H22v2H21V18H20v3Z"/><path class="eb171-2" d="M22,20V18H21v2Z"/><path class="eb171-2" d="M23,19v1h1V18H23Z"/><path class="eb171-13" d="M22,23H21v2h3V23H22Z"/><path class="eb171-14" d="M21,23V21H20v2Z"/><path class="eb171-14" d="M24,21.223V23h1V21H24Z"/><path class="eb171-2" d="M23,22V21H22v1Z"/><path class="eb171-15" d="M22,22V21H21v1Z"/><path class="eb171-15" d="M24,22V21H23v1Z"/><rect class="eb171-12" x="21" y="17" width="1" height="1"/><rect class="eb171-12" x="23" y="17" width="1" height="1"/><polygon class="eb171-14" points="23 18 23 17 23 16 22 16 22 17 22 18 23 18"/><path class="eb171-10" d="M22,23h1V22H22Z"/><path class="eb171-2" d="M21,22v1h1V22Z"/><path class="eb171-2" d="M23,22v1h1V22Z"/></svg>