<svg xmlns="http://www.w3.org/2000/svg" viewBox="0 0 29 33"><defs><style>polygon,rect,path{shape-rendering:crispedges;}.va73-1{fill:#b4bd09;}.va73-2{fill:#000000;}.va73-3{fill:#34e0cb;}.va73-4{fill:#e8b795;}.va73-5{fill:#00686d;}.va73-6{fill:#ffffff;}.va73-7{fill:#af8423;}.va73-8{fill:#af8423;}.va73-9{fill:#990000;}</style></defs><rect class="va73-1" x="12" y="8" width="1" height="1"/><path class="va73-1" d="M0,33H6V27H7V26H8V25h2V22h1V20H10V19H9V16H8V15H9V11h1V10H9V9h1V8h2V7h1V8h3V9h1V8h1V9h1v1h1v5h1v1H20v3H19v1H18v2h1v3h1V24h1V23h1v1h1v9h6V0H0Z"/><path class="va73-2" d="M23,24H22v9h1V24Z"/><path class="va73-2" d="M7,30V27H6v6H7V30Z"/><rect class="va73-2" x="7" y="26" width="1" height="1"/><path class="va73-3" d="M8,29V27H7v2Z"/><path class="va73-3" d="M7,31v2H8V31Z"/><path class="va73-2" d="M21,31V27H20v4H14V27H13v4H9V27H8v6H9V32H20v1h1V31Z"/><path class="va73-2" d="M10,26V25H8v1h2Z"/><path class="va73-3" d="M13,32v1h1V32Z"/><path class="va73-3" d="M19,32v1h1V32Z"/><path class="va73-3" d="M16,32v1h1V32Z"/><path class="va73-3" d="M10,32v1h1V32Z"/><path class="va73-2" d="M11,24V22H10v3h1Z"/><path class="va73-3" d="M12,23V22H11v1Z"/><path class="va73-3" d="M12,29V28H11V27H10V26H9v2h1v1h1v2h2V30H12Z"/><path class="va73-3" d="M9,30v1h1V30Z"/><path class="va73-3" d="M12,25V24H11v2h1v2h1V25Z"/><rect class="va73-2" x="13" y="24" width="1" height="1"/><path class="va73-2" d="M15,26V25H14v2h1Z"/><path class="va73-4" d="M14,25h1V24h1V23H13v1h1Z"/><rect class="va73-2" x="15" y="24" width="1" height="1"/><path class="va73-2" d="M18,24v1h1V22H18v2Z"/><path class="va73-3" d="M18,30V28H17V27H16V25H15v3h1v1h1v2h2V30Z"/><path class="va73-3" d="M18,24H16v1h1v1h1v2h1v1h1V27H19V25H18Z"/><path class="va73-3" d="M17,23h1V22H17Z"/><path class="va73-3" d="M15,30V28H14v3h2V30Z"/><path class="va73-3" d="M21,31v1h1V30H21Z"/><path class="va73-3" d="M21,28h1V27H21Z"/><rect class="va73-2" x="20" y="15" width="1" height="1"/><path class="va73-4" d="M12,19V18h5v1h2V16h1V15H16V14h2V13H16V12h2V11H17V10H16v1H11v1h1v1h1v2H9v1h1v3h2Zm2-3h1v1H14Z"/><rect class="va73-4" x="16" y="19" width="1" height="1"/><rect class="va73-4" x="15" y="20" width="1" height="1"/><rect class="va73-4" x="18" y="12" width="1" height="1"/><path class="va73-4" d="M10,14h2V13H10Z"/><rect class="va73-4" x="13" y="20" width="1" height="1"/><rect class="va73-4" x="12" y="19" width="1" height="1"/><path class="va73-2" d="M19,17v2h1V16H19Z"/><path class="va73-2" d="M18,20h1V19H18Z"/><path class="va73-2" d="M12,23v1h1V23h3v1h1V22h1V20H17v1H16v1H13V21H12V20H11v2h1Z"/><path class="va73-2" d="M10,19v1h1V19Z"/><path class="va73-2" d="M10,14H9v1h1Z"/><path class="va73-2" d="M10,16H9v3h1V16Z"/><rect class="va73-2" x="8" y="15" width="1" height="1"/><rect class="va73-2" x="14" y="16" width="1" height="1"/><path class="va73-5" d="M19,28H18v2h1v1h1V29H19Z"/><path class="va73-5" d="M21,32v1h1V32Z"/><path class="va73-5" d="M17,27v1h1V26H17V25H16v2Z"/><path class="va73-5" d="M21,29v1h1V28H21Z"/><path class="va73-5" d="M18,32H17v1h2V32Z"/><path class="va73-5" d="M16,29V28H15v2h1v1h1V29Z"/><path class="va73-5" d="M13,25v2h1V25Z"/><path class="va73-5" d="M15,27H14v1h1Z"/><path class="va73-5" d="M15,32H14v1h2V32Z"/><path class="va73-5" d="M12,29v1h1V28H12Z"/><rect class="va73-5" x="12" y="24" width="1" height="1"/><path class="va73-5" d="M10,27h1v1h1V26H11V25H10v2Z"/><path class="va73-5" d="M12,32H11v1h2V32Z"/><path class="va73-5" d="M10,29V28H9v2h1v1h1V29Z"/><path class="va73-5" d="M9,32v1h1V32Z"/><path class="va73-5" d="M9,27V26H8v1Z"/><path class="va73-5" d="M7,30v1H8V29H7Z"/><path class="va73-5" d="M12,23H11v1h1Z"/><path class="va73-5" d="M18,23H17v1h1Z"/><path class="va73-6" d="M12,15h1V14H12Z"/><path class="va73-6" d="M10,14v1h1V14Z"/><path class="va73-6" d="M18,14v1h1V14Z"/><path class="va73-6" d="M16,14v1h1V14Z"/><path class="va73-2" d="M11,14v1h1V14Z"/><path class="va73-2" d="M17,14v1h1V14Z"/><rect class="va73-7" x="18" y="13" width="1" height="1"/><rect class="va73-7" x="16" y="12" width="2" height="1"/><path class="va73-7" d="M13,14V13H12v1Z"/><path class="va73-7" d="M10,13h2V12H10Z"/><path class="va73-8" d="M17,19v1h1V19Z"/><rect class="va73-8" x="16" y="20" width="1" height="1"/><path class="va73-8" d="M15,20H14v1H13v1h3V21H15Z"/><path class="va73-8" d="M14,19h2V18H12v1h2Z"/><rect class="va73-8" x="12" y="20" width="1" height="1"/><path class="va73-8" d="M12,19H11v1h1Z"/><path class="va73-2" d="M13,19v1h3V19H13Z"/><path class="va73-2" d="M17,19V18H16v1Z"/><path class="va73-4" d="M21,27h1V24H21v1H20v2Z"/><path class="va73-2" d="M20,27V25H19v2Z"/><rect class="va73-2" x="20" y="24" width="1" height="1"/><rect class="va73-2" x="21" y="23" width="1" height="1"/><path class="va73-9" d="M10,13V12h1V11h5V10h1v1h1v1h1v3h1V10H19V9H18V8H17V9H16V8H13V9H12V8H10V9H9v1h1v1H9v3h1Z"/><rect class="va73-9" x="12" y="7" width="1" height="1"/></svg>