<svg xmlns="http://www.w3.org/2000/svg" viewBox="0 0 29 33"><defs><style>polygon,rect,path{shape-rendering:crispedges;}.eb26-1{fill:#db5a8e;}.eb26-2{fill:#000000;}.eb26-3{fill:#9b8100;}.eb26-4{fill:#333333;}.eb26-5{fill:#e8b795;}.eb26-6{fill:#90a2a3;}.eb26-7{fill:#ffffff;}.eb26-8{fill:#317f03;}.eb26-9{fill:#317f03;}.eb26-10{fill:#00686d;}.eb26-11{fill:#fad000;}.eb26-12{fill:#6d5800;}.eb26-13{fill:#9b8100;}.eb26-14{fill:#ffffff;}.eb26-15{fill:#e70059;}</style></defs><path class="eb26-1" d="M20,23V19H19v1H18v1H17v1h1v1h1v1h1v1h1V23Z"/><path class="eb26-1" d="M0,33H6V27H7V26H8V25H9V24h1V23h1V22h1V21H11V20H10V19H9V17H8V15H9V11h1V10h1V9h7v1h1v1h1v4h1v2h1V16h1v1h1v1h1v5H24v8H23v1H21v1h8V0H0Z"/><rect class="eb26-1" x="20" y="17" width="1" height="1"/><path class="eb26-2" d="M7,27H6v6H7V27Z"/><path class="eb26-3" d="M8,27H7v6H8V27Z"/><path class="eb26-2" d="M9,29h1V28h2V27H9V25H8v1H7v1H8v6H9V29Z"/><rect class="eb26-2" x="9" y="24" width="1" height="1"/><path class="eb26-3" d="M12,32V31H11V30H10V29H9v4h4V32Z"/><rect class="eb26-2" x="10" y="23" width="1" height="1"/><path class="eb26-3" d="M10,26v1h2v1H10v1h1v1h1v1h1V26H12V25H11V24H10v1H9v1Z"/><rect class="eb26-2" x="10" y="29" width="1" height="1"/><rect class="eb26-3" x="11" y="23" width="1" height="1"/><rect class="eb26-2" x="11" y="24" width="1" height="1"/><rect class="eb26-2" x="11" y="30" width="1" height="1"/><path class="eb26-2" d="M12,24h1V23h3v1h1V23h1V22H17V21H16v1H13V21H12v1H11v1h1Z"/><rect class="eb26-2" x="12" y="25" width="1" height="1"/><path class="eb26-2" d="M17,32V31H16V26H13v5H12v1h1v1h1V27h1v6h1V32Z"/><path class="eb26-4" d="M15,27H14v6h1V27Z"/><path class="eb26-5" d="M17,25V24H16V23H13v1H12v1h1v1h3V25Z"/><rect class="eb26-2" x="16" y="25" width="1" height="1"/><path class="eb26-3" d="M20,29H19v1H18v1H17v1H16v1h4V29Z"/><rect class="eb26-3" x="17" y="23" width="1" height="1"/><rect class="eb26-2" x="17" y="24" width="1" height="1"/><rect class="eb26-2" x="17" y="30" width="1" height="1"/><rect class="eb26-2" x="18" y="23" width="1" height="1"/><rect class="eb26-2" x="18" y="29" width="1" height="1"/><rect class="eb26-2" x="19" y="24" width="1" height="1"/><path class="eb26-3" d="M19,24H18v1H17v1H16v5h1V30h1V29h1V28H17V27h2V26h1V25H19Z"/><path class="eb26-2" d="M22,32h1V31H22V25H20v2H17v1h2v1h1v4h1V32Z"/><path class="eb26-3" d="M23,26V25H22v6h1V26Z"/><path class="eb26-2" d="M23,26v5h1V25H23Z"/><path class="eb26-6" d="M19,27h1V26H19Z"/><path class="eb26-6" d="M9,26v1h1V26Z"/><path class="eb26-2" d="M21,16V15H20v1Z"/><path class="eb26-2" d="M19,13v1H17v1h3V12H19Z"/><rect class="eb26-5" x="11" y="10" width="1" height="1"/><path class="eb26-5" d="M13,22h3V21h1V20h1V19h1V16h1V15H16V13h1V11H16V10H13v1H12v1h1v1H11v1h2v1H9v1h1v3h1v1h1v1h1Zm1-6h1v1H14Zm-2,3V18h5v1H16v1H13V19Z"/><path class="eb26-5" d="M18,14h1V13H17v1Z"/><rect class="eb26-5" x="18" y="11" width="1" height="1"/><path class="eb26-5" d="M10,13h1V11H10v2Z"/><rect class="eb26-5" x="17" y="10" width="1" height="1"/><path class="eb26-2" d="M20,18V16H19v3h1Z"/><rect class="eb26-2" x="18" y="19" width="1" height="1"/><rect class="eb26-2" x="17" y="20" width="1" height="1"/><rect class="eb26-2" x="11" y="20" width="1" height="1"/><rect class="eb26-2" x="10" y="19" width="1" height="1"/><path class="eb26-2" d="M10,14V12H9v3h1Z"/><path class="eb26-2" d="M10,16H9v3h1V16Z"/><path class="eb26-2" d="M9,15H8v1H9Z"/><rect class="eb26-2" x="14" y="16" width="1" height="1"/><path class="eb26-7" d="M10,15h1V14H10Z"/><path class="eb26-7" d="M16,14v1h1V14Z"/><path class="eb26-2" d="M12,15h1V14H11v1Z"/><path class="eb26-8" d="M10,14h1V13H10Z"/><path class="eb26-8" d="M11,13h2V12H11Z"/><path class="eb26-8" d="M17,13H16v1h1Z"/><path class="eb26-8" d="M19,12H17v1h2Z"/><path class="eb26-9" d="M16,19h1V18H13v1Z"/><rect class="eb26-2" x="13" y="19" width="3" height="1"/><path class="eb26-2" d="M13,18H12v1h1Z"/><path class="eb26-10" d="M20,12V11H19v1Z"/><rect class="eb26-10" x="18" y="10" width="1" height="1"/><path class="eb26-10" d="M12,11h1V10h3v1h1V10h1V9H11v1h1Z"/><path class="eb26-10" d="M18,11H17v1h1Z"/><path class="eb26-10" d="M11,12h1V11H11Z"/><rect class="eb26-10" x="10" y="10" width="1" height="1"/><path class="eb26-10" d="M10,11H9v1h1Z"/><path class="eb26-11" d="M20,17h1V16H20Z"/><path class="eb26-11" d="M8,16v1H9V16Z"/><path class="eb26-11" d="M23,20V18H22v2H21V18H20v3h5V18H24v2Z"/><path class="eb26-2" d="M22,20V18H21v2Z"/><path class="eb26-2" d="M23,19v1h1V18H23Z"/><path class="eb26-12" d="M22,23H21v2h3V23H22Z"/><path class="eb26-13" d="M21,23V21H20v2Z"/><path class="eb26-13" d="M24,21.222V23h1V21H24Z"/><path class="eb26-2" d="M23,22V21H22v1Z"/><path class="eb26-14" d="M22,22V21H21v1Z"/><path class="eb26-14" d="M24,22V21H23v1Z"/><rect class="eb26-11" x="21" y="17" width="1" height="1"/><rect class="eb26-11" x="23" y="17" width="1" height="1"/><polygon class="eb26-13" points="23 18 23 17 23 16 22 16 22 17 22 18 23 18"/><path class="eb26-15" d="M22,23h1V22H22Z"/><path class="eb26-2" d="M21,22v1h1V22Z"/><path class="eb26-2" d="M23,22v1h1V22Z"/></svg>