<svg xmlns="http://www.w3.org/2000/svg" viewBox="0 0 29 33"><defs><style>polygon,rect,path{shape-rendering:crispedges;}.oa5-1{fill:#db5a8e;}.oa5-2{fill:#000000;}.oa5-3{fill:#ffed9f;}.oa5-4{fill:#00af68;}.oa5-5{fill:#e8b795;}.oa5-6{fill:#d8be00;}.oa5-7{fill:#00686d;}.oa5-8{fill:#ffffff;}.oa5-9{fill:#004a77;}</style></defs><path class="oa5-1" d="M0,33H6V27H7V26H8V25h2V24h2V21H11V20H9V19H8V11H9V10h1V9h1V8h7V9h1v1h1v1h1v8H20v1H18v1H17v3h2v1h2v1h1v1h1v6h6V0H0Z"/><path class="oa5-2" d="M23,27H22v6h1V27Z"/><rect class="oa5-2" x="21" y="26" width="1" height="1"/><path class="oa5-3" d="M21,30v1h1V29H21Z"/><path class="oa5-3" d="M21,28h1V27H21Z"/><path class="oa5-3" d="M21,32v1h1V32Z"/><path class="oa5-2" d="M21,31V27H20v6h1V31Z"/><path class="oa5-3" d="M19,32v1h1V32Z"/><path class="oa5-3" d="M19,26v1H18v3h1v1h1V29H19V28h1V27h1V26H19Z"/><path class="oa5-2" d="M20,26h1V25H19v1Z"/><path class="oa5-2" d="M18,30V25h1V24H17v1H16v1h1v7h1V30Z"/><path class="oa5-4" d="M17,26H16v1H13V26H12v7h5V26Z"/><path class="oa5-2" d="M13,26v1h3V26H13Z"/><path class="oa5-2" d="M13,23h3v1h1V21H16v1H13V21H12v3h1Z"/><path class="oa5-5" d="M13,25v1h3V25h1V24H16V23H13v1H12v1Z"/><path class="oa5-2" d="M12,26h1V25H12V24H10v1h1v8h1V26Z"/><path class="oa5-3" d="M9,27v1h1v1H9v2h1V30h1V27H10V26H8v1Z"/><rect class="oa5-3" x="9" y="32" width="1" height="1"/><path class="oa5-2" d="M10,25H8v1h2Z"/><path class="oa5-2" d="M9,31V27H8v6H9V31Z"/><rect class="oa5-2" x="7" y="26" width="1" height="1"/><path class="oa5-3" d="M7,32v1H8V32Z"/><path class="oa5-3" d="M7,30v1H8V29H7Z"/><path class="oa5-3" d="M8,28V27H7v1Z"/><path class="oa5-2" d="M7,31V27H6v6H7V31Z"/><path class="oa5-6" d="M11,30H10v1H9v1h1v1h1V30Z"/><path class="oa5-6" d="M10,27h1V25H10v2Z"/><path class="oa5-6" d="M18,26v1h1V25H18Z"/><path class="oa5-6" d="M7,29H8V28H7Z"/><path class="oa5-6" d="M10,28H9v1h1Z"/><path class="oa5-6" d="M21,29h1V28H21Z"/><path class="oa5-6" d="M19,29h1V28H19Z"/><path class="oa5-6" d="M21,32h1V31H21Z"/><path class="oa5-6" d="M7,32H8V31H7Z"/><path class="oa5-6" d="M20,32V31H19V30H18v3h1V32Z"/><path class="oa5-5" d="M13,22h3V21h1V20h1V19h1V16h1V15H19V13H17v1h1v1H16v1H15v1H14V16H13V15H11V14H10v1H9v1h1v3h1v1h1v1h1Zm-1-3V18h5v1H16v1H13V19Z"/><path class="oa5-2" d="M20,16H19v3h1V16Z"/><path class="oa5-2" d="M18,19v1h1V19Z"/><rect class="oa5-2" x="17" y="20" width="1" height="1"/><rect class="oa5-2" x="11" y="20" width="1" height="1"/><path class="oa5-2" d="M10,19v1h1V19Z"/><path class="oa5-2" d="M10,18V16H9v3h1Z"/><path class="oa5-7" d="M18,15V14H17v1Z"/><rect class="oa5-7" x="16" y="13" width="1" height="1"/><rect class="oa5-2" x="14" y="14" width="1" height="1"/><path class="oa5-8" d="M16,13H13v1H12v1h1v1h3V15h1V14H16Zm-1,2H14V14h1Z"/><path class="oa5-7" d="M14,13h2V12H13v1Z"/><rect class="oa5-7" x="12" y="13" width="1" height="1"/><path class="oa5-7" d="M11,14v1h1V14Z"/><path class="oa5-2" d="M14,17h1V16H14Z"/><rect class="oa5-5" x="12" y="12" width="1" height="1"/><path class="oa5-5" d="M15,11V10H14v1H13v1h3v1h1V11Z"/><rect class="oa5-5" x="11" y="13" width="1" height="1"/><polygon class="oa5-2" points="13 20 16 20 16 19 17 19 17 18 12 18 12 19 13 19 13 20"/><path class="oa5-9" d="M9,16V15h1V14h1V13h1V12h1V11h1V10h1v1h2v2h2v2h1v4h1V11H20V10H19V9H18V8H11V9H10v1H9v1H8v8H9V16Z"/><path class="oa5-9" d="M9,19v1h1V19Z"/><path class="oa5-9" d="M19,20h1V19H19Z"/></svg>