<svg xmlns="http://www.w3.org/2000/svg" viewBox="0 0 29 33"><defs><style>polygon,rect,path{shape-rendering:crispedges;}.ib32-1{fill:#31a09d;}.ib32-2{fill:#000000;}.ib32-3{fill:#a56e49;}.ib32-4{fill:#ffffff;}.ib32-5{fill:#8e4717;}.ib32-6{fill:#cbed03;}.ib32-7{fill:#825fff;}</style></defs><path class="ib32-1" d="M0,33H6V27H7V26H8V25h2V24h2V21H11V20H10V19H9V16H8V15H9V10h1V9h1V8h7V9h1v1h1v5h1v1H20v3H19v1H18v1H17v3h2v1h2v1h1v1h1v6h6V0H0Z"/><path class="ib32-2" d="M23,27H22v6h1V27Z"/><path class="ib32-3" d="M22,27H21v6h1V27Z"/><rect class="ib32-2" x="21" y="26" width="1" height="1"/><path class="ib32-2" d="M21,27H20v6h1V27Z"/><path class="ib32-3" d="M20,27h1V26H19V25H17V24H16V23H13v1H12v1H10v1H8v1H9v6h5V29h1v4h5V27Zm-8,2H11V28h1Zm6,0H17V28h1Z"/><path class="ib32-2" d="M20,26h1V25H19v1Z"/><rect class="ib32-2" x="17" y="28" width="1" height="1"/><path class="ib32-2" d="M18,25h1V24H17v1Z"/><path class="ib32-2" d="M15,29H14v4h1V29Z"/><path class="ib32-2" d="M13,23h3v1h1V21H16v1H13V21H12v3h1Z"/><rect class="ib32-2" x="11" y="28" width="1" height="1"/><path class="ib32-2" d="M12,24H10v1h2Z"/><path class="ib32-2" d="M10,25H8v1h2Z"/><path class="ib32-2" d="M9,27H8v6H9V27Z"/><path class="ib32-3" d="M8,27H7v6H8V27Z"/><rect class="ib32-2" x="7" y="26" width="1" height="1"/><path class="ib32-2" d="M7,27H6v6H7V27Z"/><rect class="ib32-2" x="20" y="15" width="1" height="1"/><path class="ib32-2" d="M19,15h1V14H19Z"/><path class="ib32-3" d="M12,19V18h5v1h2V16h1V15H16V14h2V13H16V12h2V11H17V10H12v1H11v1h2v1H11v1h2v1H9v1h1v3h2Zm2-3h1v1H14Z"/><rect class="ib32-3" x="18" y="12" width="1" height="1"/><rect class="ib32-3" x="13" y="20" width="1" height="1"/><rect class="ib32-3" x="12" y="19" width="1" height="1"/><rect class="ib32-3" x="16" y="19" width="1" height="1"/><rect class="ib32-3" x="15" y="20" width="1" height="1"/><rect class="ib32-3" x="10" y="12" width="1" height="1"/><path class="ib32-2" d="M19,17v2h1V16H19Z"/><path class="ib32-2" d="M18,20h1V19H18Z"/><rect class="ib32-2" x="17" y="20" width="1" height="1"/><rect class="ib32-2" x="11" y="20" width="1" height="1"/><path class="ib32-2" d="M10,19v1h1V19Z"/><path class="ib32-2" d="M10,14H9v1h1Z"/><path class="ib32-2" d="M10,16H9v3h1V16Z"/><rect class="ib32-2" x="8" y="15" width="1" height="1"/><rect class="ib32-2" x="14" y="16" width="1" height="1"/><path class="ib32-4" d="M13,15V14H12v1Z"/><path class="ib32-4" d="M10,15h1V14H10Z"/><path class="ib32-4" d="M18,14v1h1V14Z"/><path class="ib32-4" d="M16,14v1h1V14Z"/><path class="ib32-2" d="M12,15V14H11v1Z"/><path class="ib32-2" d="M17,14v1h1V14Z"/><rect class="ib32-5" x="18" y="13" width="1" height="1"/><rect class="ib32-5" x="16" y="12" width="2" height="1"/><rect class="ib32-5" x="10" y="13" width="1" height="1"/><rect class="ib32-5" x="11" y="12" width="2" height="1"/><path class="ib32-6" d="M17,19v1h1V19Z"/><rect class="ib32-6" x="16" y="20" width="1" height="1"/><path class="ib32-6" d="M15,20H14v1H13v1h3V21H15Z"/><path class="ib32-6" d="M14,19h3V18H13v1Z"/><rect class="ib32-6" x="12" y="20" width="1" height="1"/><path class="ib32-6" d="M12,19H11v1h1Z"/><path class="ib32-2" d="M15,20h1V19H13v1h2Z"/><path class="ib32-2" d="M13,18H12v1h1Z"/><path class="ib32-7" d="M10,13V12h1V11h1V10h5v1h1v1h1v2h1V10H19V9H18V8H11V9H10v1H9v4h1Z"/></svg>