<svg xmlns="http://www.w3.org/2000/svg" viewBox="0 0 29 33"><defs><style>polygon,rect,path{shape-rendering:crispedges;}.fb179-1{fill:#7a982c;}.fb179-2{fill:#000000;}.fb179-3{fill:#333333;}.fb179-4{fill:#ffffff;}.fb179-5{fill:#a56e49;}.fb179-6{fill:#90a2a3;}.fb179-7{fill:#ffffff;}.fb179-8{fill:#004a77;}.fb179-9{fill:#317f03;}</style></defs><path class="fb179-1" d="M0,33H6V27H7V26H8V25H9V24h1V23h1V22h1V21H11V20H9V18H8V13H9V11h1V10h1V9h7v1h1v1h1v1h1v6H20v2H18v1H17v1h1v1h1v1h1v1h1v1h1v1h1v6h6V0H0Z"/><path class="fb179-2" d="M23,27H22v6h1V27Z"/><path class="fb179-3" d="M22,27H21v6h1V27Z"/><path class="fb179-2" d="M21,27h1V26H21V25H20v2H17v1h2v1h1v4h1V27Z"/><rect class="fb179-2" x="19" y="24" width="1" height="1"/><path class="fb179-3" d="M20,29H19v1H18v1H17v1H16v1h4V29Z"/><rect class="fb179-2" x="18" y="23" width="1" height="1"/><path class="fb179-3" d="M18,25H17v1H16v5h1V30h1V29h1V28H17V27h2V26h1V25H19V24H18Z"/><rect class="fb179-3" x="17" y="23" width="1" height="1"/><rect class="fb179-2" x="17" y="24" width="1" height="1"/><rect class="fb179-2" x="18" y="29" width="1" height="1"/><rect class="fb179-2" x="16" y="25" width="1" height="1"/><path class="fb179-4" d="M15,27H14v6h1V27Z"/><path class="fb179-2" d="M12,24h1V23h3v1h1V23h1V22H17V21H16v1H13V21H12v1H11v1h1Z"/><path class="fb179-5" d="M17,25V24H16V23H13v1H12v1h1v1h3V25Z"/><rect class="fb179-2" x="12" y="25" width="1" height="1"/><path class="fb179-3" d="M12,32V31H11V30H10V29H9v4h4V32Z"/><rect class="fb179-3" x="11" y="23" width="1" height="1"/><rect class="fb179-2" x="11" y="24" width="1" height="1"/><rect class="fb179-2" x="11" y="30" width="1" height="1"/><rect class="fb179-2" x="10" y="23" width="1" height="1"/><rect class="fb179-2" x="9" y="24" width="1" height="1"/><path class="fb179-3" d="M10,26v1h2v1H10v1h1v1h1v1h1V26H12V25H11V24H10v1H9v1Z"/><path class="fb179-2" d="M9,29h1V28h2V27H9V25H8v1H7v1H8v6H9V29Z"/><path class="fb179-3" d="M8,27H7v6H8V27Z"/><path class="fb179-2" d="M7,27H6v6H7V27Z"/><rect class="fb179-2" x="10" y="29" width="1" height="1"/><rect class="fb179-2" x="17" y="30" width="1" height="1"/><path class="fb179-2" d="M17,32V31H16V26H13v5H12v1h1v1h1V27h1v6h1V32Z"/><path class="fb179-6" d="M9,26v1h1V26Z"/><path class="fb179-6" d="M19,27h1V26H19Z"/><rect class="fb179-2" x="19" y="14" width="1" height="1"/><path class="fb179-5" d="M13,22h3V21h1V20h1V19h1V18H18V15H16v1H15v1H14V16h1V14h1V12H15V11H14v4H13v2H12V15H11v3H10v1h1v1h1v1h1Zm0-3h3v1H13Z"/><path class="fb179-5" d="M13,14V13H11v1h2Z"/><rect class="fb179-5" x="19" y="15" width="1" height="1"/><rect class="fb179-5" x="17" y="13" width="1" height="1"/><rect class="fb179-5" x="17" y="11" width="1" height="1"/><rect class="fb179-5" x="9" y="15" width="1" height="1"/><path class="fb179-2" d="M19,16v2h1V16Z"/><path class="fb179-2" d="M18,19v1h1V19Z"/><rect class="fb179-2" x="17" y="20" width="1" height="1"/><rect class="fb179-2" x="11" y="20" width="1" height="1"/><path class="fb179-2" d="M10,19v1h1V19Z"/><path class="fb179-2" d="M10,17V16H9v2h1Z"/><rect class="fb179-2" x="14" y="16" width="1" height="1"/><path class="fb179-7" d="M12,14v1h1V14Z"/><path class="fb179-7" d="M16,14v1h1V14Z"/><path class="fb179-2" d="M11,14v1h1V14Z"/><path class="fb179-2" d="M17,14v1h1V14Z"/><rect class="fb179-8" x="17" y="12" width="1" height="1"/><path class="fb179-8" d="M13,12H11v1h2Z"/><rect class="fb179-2" x="13" y="19" width="3" height="1"/><path class="fb179-9" d="M9,15h1v3h1V12h2v3h1V11h1v1h1v2h1V11h1v7h1V14h1v4h1V12H20V11H19V10H18V9H11v1H10v1H9v2H8v5H9V15Z"/><path class="fb179-9" d="M19,19v1h1V18H19Z"/><path class="fb179-9" d="M15,14v2h1V14Z"/><path class="fb179-9" d="M12,16v1h1V15H12Z"/><path class="fb179-9" d="M10,18H9v2h1V18Z"/></svg>