<svg xmlns="http://www.w3.org/2000/svg" viewBox="0 0 29 33"><defs><style>polygon,rect,path{shape-rendering:crispedges;}.ma22-1{fill:#6b4f99;}.ma22-2{fill:#000000;}.ma22-3{fill:#00af68;}.ma22-4{fill:#4922aa;}.ma22-5{fill:#c18d59;}.ma22-6{fill:#014731;}.ma22-7{fill:#5e362f;}.ma22-8{fill:#ffffff;}.ma22-9{fill:#db5800;}.ma22-10{fill:#c6e5e4;}</style></defs><path class="ma22-1" d="M6,32V27H7V26H8V25h2V24h2V21H11V20H10V19H9V16H8V15H9V10h1V9h1V8h7V9h1v1h1v5h1v1H20v3H19v1H18v1H17v3h2v1h2V23h2V22H22V21H21V20h1V19h3v1h1v1H25v1H24v1h1v1H24v7H23v1H21v1h8V0H0V33H6Z"/><path class="ma22-2" d="M23,25v6h1V24H23Z"/><path class="ma22-2" d="M7,30V27H6v6H7V30Z"/><path class="ma22-3" d="M7,31v2H8V31Z"/><path class="ma22-3" d="M8,29V27H7v2Z"/><rect class="ma22-2" x="7" y="26" width="1" height="1"/><path class="ma22-2" d="M9,31V27H8v6H9V31Z"/><path class="ma22-3" d="M10,31V30H9v2h1v1h1V31Z"/><path class="ma22-3" d="M10,26H9v2h1v1h1V27H10Z"/><path class="ma22-2" d="M10,26V25H8v1h2Z"/><path class="ma22-2" d="M12,26h1V25H12V24H10v1h1v8h1V26Z"/><path class="ma22-4" d="M17,26H16v1H13V26H12v7h5V26Z"/><path class="ma22-2" d="M13,23h3v1h1V21H16v1H13V21H12v3h1Z"/><path class="ma22-2" d="M13,26v1h3V26H13Z"/><path class="ma22-5" d="M13,25v1h3V25h1V24H16V23H13v1H12v1Z"/><path class="ma22-2" d="M18,31V25h1V24H17v1H16v1h1v7h1V31Z"/><path class="ma22-3" d="M18,26v2h1v1h1V27H19V25H18Z"/><path class="ma22-3" d="M19,31V30H18v2h1v1h1V31Z"/><path class="ma22-2" d="M22,32h1V31H22V23H21v2H19v1h2v1H20v6h1V32Z"/><path class="ma22-3" d="M23,24H22v1h1Z"/><path class="ma22-3" d="M23,28V27H22v2h1Z"/><path class="ma22-6" d="M19,28H18v2h1v1h1V29H19Z"/><path class="ma22-6" d="M22,29v2h1V29Z"/><path class="ma22-6" d="M20,27h1V26H19v1Z"/><path class="ma22-6" d="M23,26V25H22v2h1Z"/><path class="ma22-6" d="M18,32v1h1V32Z"/><path class="ma22-6" d="M10,27h1V25H10v2Z"/><path class="ma22-6" d="M10,28H9v2h1v1h1V29H10Z"/><path class="ma22-6" d="M9,32v1h1V32Z"/><path class="ma22-6" d="M9,27V26H8v1Z"/><path class="ma22-6" d="M7,30v1H8V29H7Z"/><rect class="ma22-2" x="20" y="15" width="1" height="1"/><path class="ma22-5" d="M13,22h3V21h1V20h1V19h1V16h1V15H19V11H18V10H16v1H15v1h1v1h1v1h1v1H16v1H15v1H14V16H13v1H12V16H11V15H9v1h1v3h1v1h1v1h1Zm-1-3V18h1v1h3v1H13V19Z"/><path class="ma22-2" d="M19,17v2h1V16H19Z"/><rect class="ma22-2" x="18" y="19" width="1" height="1"/><rect class="ma22-2" x="17" y="20" width="1" height="1"/><rect class="ma22-2" x="11" y="20" width="1" height="1"/><rect class="ma22-2" x="10" y="19" width="1" height="1"/><path class="ma22-2" d="M10,14H9v1h1Z"/><path class="ma22-2" d="M10,16H9v3h1V16Z"/><rect class="ma22-2" x="8" y="15" width="1" height="1"/><path class="ma22-7" d="M18,15V14H17v1Z"/><rect class="ma22-7" x="16" y="13" width="1" height="1"/><rect class="ma22-2" x="14" y="14" width="1" height="1"/><path class="ma22-8" d="M14,14h1v1H14V14H13v2h3V15h1V14H16V13H14Z"/><path class="ma22-7" d="M14,13h2V12H14Z"/><path class="ma22-2" d="M14,17h1V16H14Z"/><rect class="ma22-2" x="13" y="19" width="3" height="1"/><rect class="ma22-2" x="12" y="18" width="1" height="1"/><path class="ma22-9" d="M10,15h1v1h1v1h1V14h1V12h1V11h1V10h2v1h1v4h1V10H19V9H18V8H11V9H10v1H9v4h1Z"/><path class="ma22-8" d="M25,22V21h1V20H25V19H23v1h1v1H23v1h2Z"/><path class="ma22-10" d="M24,21V20H23V19H22v1H21v1h1v1h1V21Z"/><path class="ma22-10" d="M24,22H23v1h1Z"/><path class="ma22-5" d="M23,24h1V23H22v1Z"/><rect class="ma22-2" x="24" y="23" width="1" height="1"/></svg>