<svg xmlns="http://www.w3.org/2000/svg" viewBox="0 0 29 33"><defs><style>polygon,rect,path{shape-rendering:crispedges;}.ha95-1{fill:#db5a8e;}.ha95-2{fill:#000000;}.ha95-3{fill:#841f00;}.ha95-4{fill:#b2622b;}.ha95-5{fill:#db5800;}.ha95-6{fill:#8e4717;}.ha95-7{fill:#fad000;}.ha95-8{fill:#8e4717;}.ha95-9{fill:#cc3232;}.ha95-10{fill:#ffffff;}.ha95-11{fill:#0068ff;}.ha95-12{fill:#ff1f4a;}</style></defs><path class="ha95-1" d="M0,33H6V27H7V26H8V25h2V23h1V22h1V21H10V20H9V16H8V15H9V14H8V11H9V10h1V9h2V8h5V9h1v1h1v1h1v4h1v1H20v4H19v1H17v1h1v1h1v2h2v1h1v1h1v6h6V0H0Z"/><path class="ha95-2" d="M23,27H22v6h1V27Z"/><rect class="ha95-2" x="21" y="26" width="1" height="1"/><path class="ha95-3" d="M22,27H21v6h1V27Z"/><path class="ha95-2" d="M21,27H20v6h1V27Z"/><path class="ha95-2" d="M20,26h1V25H19v1Z"/><path class="ha95-3" d="M13,31h1V29H13Z"/><path class="ha95-3" d="M20,27h1V26H19V25H18v1H17v1H16v1h3v1H17v2h1V30h1v2H16V29H15v3H12V28h1V27H12V26H11V25H10v1H9v7H20V27Zm-9,2v3H10V28h1Z"/><path class="ha95-4" d="M14,24h1v1h1V23H13v2h1Z"/><path class="ha95-2" d="M9,26h1V25H8v1H7v1H8v6H9V26Z"/><path class="ha95-3" d="M8,27H7v6H8V27Z"/><path class="ha95-2" d="M7,27H6v6H7V27Z"/><path class="ha95-5" d="M14,31H13V28H12v4h3V30H14Z"/><path class="ha95-5" d="M10,29v3h1V28H10Z"/><path class="ha95-5" d="M16,30v2h3V30H18v1H17V29h2V28H16v2Z"/><rect class="ha95-2" x="20" y="15" width="1" height="1"/><rect class="ha95-4" x="14" y="15" width="1" height="1"/><path class="ha95-4" d="M13,22h3V21h1V20h1V18h1V16H15v1H14V16H10v2h1v2h1v1h1Zm0-3h3V18h1v1H16v1H13Z"/><path class="ha95-4" d="M14,10v1H12v1h1v1h1v1h1V13h1V12h2v1h1V11H18V10H14Z"/><path class="ha95-2" d="M19,17h1V16H19Z"/><path class="ha95-2" d="M10,16H9v1h1Z"/><rect class="ha95-2" x="8" y="15" width="1" height="1"/><rect class="ha95-2" x="14" y="16" width="1" height="1"/><path class="ha95-6" d="M16,12v1h2V12Z"/><path class="ha95-6" d="M12,12H11v1h2V12Z"/><path class="ha95-2" d="M14,30h1V29H14Z"/><rect class="ha95-2" x="12" y="26" width="1" height="1"/><path class="ha95-2" d="M15,28v1h1V27H15Z"/><rect class="ha95-2" x="16" y="26" width="1" height="1"/><path class="ha95-2" d="M14,29V27H13v2Z"/><rect class="ha95-2" x="17" y="25" width="1" height="1"/><rect class="ha95-2" x="11" y="25" width="1" height="1"/><rect class="ha95-2" x="14" y="24" width="1" height="1"/><rect class="ha95-2" x="13" y="25" width="1" height="1"/><rect class="ha95-2" x="15" y="25" width="1" height="1"/><path class="ha95-2" d="M12,24v1h1V23h3v2h1V23h1V22H17V21H16v1H13V21H12v1H11v1h1Z"/><rect class="ha95-7" x="16" y="25" width="1" height="1"/><path class="ha95-7" d="M15,26V25H14v1H13v1h1v2h1V27h1V26Z"/><rect class="ha95-7" x="12" y="25" width="1" height="1"/><path class="ha95-7" d="M11,25h1V23H11v2Z"/><path class="ha95-7" d="M17,24v1h1V23H17Z"/><path class="ha95-2" d="M19,25V23H18v2Z"/><path class="ha95-2" d="M11,24V23H10v2h1Z"/><path class="ha95-8" d="M19,18H18v2H17v1h2V20h1V17H19Z"/><path class="ha95-8" d="M11,20V18H10V17H9v3h1v1h2V20Z"/><rect class="ha95-2" x="13" y="19" width="3" height="1"/><rect class="ha95-2" x="16" y="18" width="1" height="1"/><path class="ha95-9" d="M20,13V11H19v2Z"/><rect class="ha95-9" x="18" y="10" width="1" height="1"/><path class="ha95-9" d="M10,13h1V12h1V11h2V10h4V9H17V8H12V9H10v1H9v1H8v3H9V13Z"/><path class="ha95-10" d="M11,16h3V15h1v1h5V13H15v1H14V13H9v3h2Zm5-2h3v1H16Zm-6,0h3v1H10Z"/><path class="ha95-11" d="M19,15V14H16v1h3Z"/><path class="ha95-12" d="M13,15V14H10v1h3Z"/></svg>