<svg xmlns="http://www.w3.org/2000/svg" viewBox="0 0 29 33"><defs><style>polygon,rect,path{shape-rendering:crispedges;}.fa232-1{fill:#397d98;}.fa232-2{fill:#000000;}.fa232-3{fill:#ffffff;}.fa232-4{fill:#e8b795;}.fa232-5{fill:#00e2b7;}.fa232-6{fill:#ffffff;}.fa232-7{fill:#8e703c;}.fa232-8{fill:#ff1f4a;}.fa232-9{fill:#560000;}.fa232-10{fill:#cbed03;}</style></defs><path class="fa232-1" d="M6,32V27H7V26H8V25h2V24H9V16H8V15H9V10h1V9h1V8h7V9h1v1h1v5h1v1H20v6H19v3h2v1h1v1h1v6h6V0H0V33H6Z"/><path class="fa232-2" d="M23,27H22v3H21V27H20v6h1V31h1v2h1V27Z"/><rect class="fa232-2" x="21" y="26" width="1" height="1"/><path class="fa232-3" d="M21,28v2h1V27H21Z"/><path class="fa232-4" d="M21,31v2h1V31Z"/><path class="fa232-2" d="M20,26h1V25H19v1Z"/><path class="fa232-3" d="M20,27h1V26H19V25H18v1H16v1H13V26H12V25H11v2H10V26H8v1H9v6h1V30h1V29h1V28h5v1h1v1h1v3h1V27Z"/><rect class="fa232-3" x="16" y="30" width="1" height="1"/><rect class="fa232-3" x="12" y="30" width="1" height="1"/><path class="fa232-3" d="M16,32H12v1h5V32Z"/><path class="fa232-2" d="M16,25v1h1V25Z"/><path class="fa232-2" d="M13,26v1h3V26H13Z"/><path class="fa232-2" d="M13,23h3v1h1V21H16v1H13V21H12v3h1Z"/><path class="fa232-4" d="M17,25V24H16V23H13v1H12v1h1v1h3V25Z"/><rect class="fa232-2" x="12" y="25" width="1" height="1"/><path class="fa232-2" d="M10,25H8v1h2Z"/><path class="fa232-2" d="M9,27H8v3H7V27H6v6H7V31H8v2H9V27Z"/><rect class="fa232-2" x="7" y="26" width="1" height="1"/><path class="fa232-3" d="M7,30H8V27H7v3Z"/><path class="fa232-4" d="M7,31v2H8V31Z"/><path class="fa232-5" d="M19,30H18V29H17V28H12v1H11v1H10v3h2V32h5v1h2V30Zm-6,1H12V30h1Zm4,0H16V30h1Z"/><rect class="fa232-2" x="20" y="15" width="1" height="1"/><path class="fa232-4" d="M13,22h3V21h1V20h1V19h1V15H16V14h2V13H16V12h1V11H15v4H14v1h1v1H14V16H13v1H11V16H10v3h1v1h1v1h1Zm0-3h3V18h1v1H16v1H13Z"/><rect class="fa232-4" x="9" y="15" width="1" height="1"/><path class="fa232-2" d="M19,17v2h1V16H19Z"/><rect class="fa232-2" x="18" y="19" width="1" height="1"/><rect class="fa232-2" x="17" y="20" width="1" height="1"/><rect class="fa232-2" x="11" y="20" width="1" height="1"/><rect class="fa232-2" x="10" y="19" width="1" height="1"/><path class="fa232-2" d="M10,18V16H9v3h1Z"/><rect class="fa232-2" x="8" y="15" width="1" height="1"/><rect class="fa232-2" x="14" y="16" width="1" height="1"/><path class="fa232-6" d="M19,15V14H18v1Z"/><path class="fa232-6" d="M16,14v1h1V14Z"/><path class="fa232-2" d="M17,15h1V14H17Z"/><path class="fa232-7" d="M16,13h2V12H16Z"/><rect class="fa232-2" x="13" y="19" width="3" height="1"/><rect class="fa232-2" x="16" y="18" width="1" height="1"/><path class="fa232-8" d="M11,15h2V13H11v2Z"/><path class="fa232-9" d="M13,13v2h1V13Z"/><path class="fa232-9" d="M12,15H11v1h2V15Z"/><path class="fa232-9" d="M11,14V13H10v2h1Z"/><rect class="fa232-9" x="11" y="12" width="2" height="1"/><rect class="fa232-2" x="10" y="15" width="1" height="1"/><rect class="fa232-2" x="11" y="16" width="2" height="1"/><rect class="fa232-2" x="13" y="15" width="1" height="1"/><path class="fa232-2" d="M13,13h1v2h1V10H12v1H11v1h2Z"/><path class="fa232-10" d="M10,27h1V25h1V21H11V20H10V19H9v5h1v3Z"/><path class="fa232-10" d="M10,14V13h1V11h1V10h3v1h2v1h1v2h1v2h1V10H19V9H18V8H11V9H10v1H9v5h1Z"/><path class="fa232-10" d="M19,20H18v1H17v5h1V25h1V22h1V19H19Z"/></svg>