<svg xmlns="http://www.w3.org/2000/svg" viewBox="0 0 29 33"><defs><style>polygon,rect,path{shape-rendering:crispedges;}.aa115-1{fill:#d4a122;}.aa115-2{fill:#000000;}.aa115-3{fill:#e8b795;}.aa115-4{fill:#34e0cb;}.aa115-5{fill:#34e0cb;}.aa115-6{fill:#ffffff;}.aa115-7{fill:#af8423;}.aa115-8{fill:#af8423;}.aa115-9{fill:#ffce00;}.aa115-10{fill:#455054;}.aa115-11{fill:#29834f;}.aa115-12{fill:#ff791f;}</style></defs><path class="aa115-1" d="M0,33H8V32H6V31H5V22H6V21H7V20H5v1H2V17H5V16H8V15H9V11h1V10H9V9h1V8h2V7h1V8h3V9h1V8h1V9h1v1h1v5h1v1H20v4H19v1H18v1H17v2h2v1h2v1h1v1h1v6h6V0H0Z"/><rect class="aa115-1" x="12" y="8" width="1" height="1"/><path class="aa115-1" d="M8,18v4H9v2H8v1h2V24h2V22H11V21H10V20H9V16H8Z"/><path class="aa115-2" d="M23,31V27H22v6h1Z"/><rect class="aa115-2" x="21" y="26" width="1" height="1"/><path class="aa115-3" d="M22,31V27H21v6h1Z"/><rect class="aa115-3" x="20" y="26" width="1" height="1"/><path class="aa115-2" d="M21,31V27H20v6h1Z"/><path class="aa115-2" d="M20,26h1V25H19v1Z"/><rect class="aa115-4" x="12" y="30" width="1" height="1"/><path class="aa115-4" d="M10,31V30h1V29h1V28h1V27H12V26H11V25H10v1H9v7h1Z"/><path class="aa115-4" d="M16,32H12v1h5V32Z"/><path class="aa115-4" d="M20,31V26H19V25H18v1H17v1H16v1h1v1h1v1h1v3h1Z"/><rect class="aa115-4" x="16" y="30" width="1" height="1"/><path class="aa115-2" d="M17,26h1V25h1V24H17Z"/><rect class="aa115-2" x="16" y="23" width="1" height="1"/><rect class="aa115-2" x="16" y="26" width="1" height="1"/><path class="aa115-2" d="M14,27H13v1h3V27Z"/><rect class="aa115-2" x="12" y="23" width="1" height="1"/><path class="aa115-3" d="M16,23H13v1H12v2h1v1h3V26h1V24H16Z"/><rect class="aa115-2" x="12" y="26" width="1" height="1"/><path class="aa115-2" d="M12,24H10v1h1v1h1Z"/><rect class="aa115-3" x="8" y="26" width="1" height="1"/><path class="aa115-2" d="M9,31V27H8V26h2V25H8V24H7v7H6v1H8v1H9Z"/><path class="aa115-3" d="M7,30V24H8V22H6v9H7Z"/><path class="aa115-2" d="M6,29V22H5v9H6Z"/><path class="aa115-5" d="M19,31V30H18V29H17V28H12v1H11v1H10v3h2V32h5v1h2Zm-6,0H12V30h1Zm4,0H16V30h1Z"/><rect class="aa115-2" x="20" y="15" width="1" height="1"/><path class="aa115-3" d="M10,16v1h1v1h1v1h1V18h5V17h1V16h1V15H16V14h2V13H16V12h2V11H17V10H16v1H11v1h1v1h1v2H9v1Zm4,0h1v1H14Z"/><path class="aa115-3" d="M10,14h2V13H10Z"/><rect class="aa115-3" x="18" y="12" width="1" height="1"/><rect class="aa115-2" x="9" y="14" width="1" height="1"/><rect class="aa115-2" x="8" y="15" width="1" height="1"/><rect class="aa115-2" x="14" y="16" width="1" height="1"/><rect class="aa115-6" x="12" y="14" width="1" height="1"/><rect class="aa115-6" x="10" y="14" width="1" height="1"/><rect class="aa115-6" x="18" y="14" width="1" height="1"/><rect class="aa115-6" x="16" y="14" width="1" height="1"/><rect class="aa115-2" x="11" y="14" width="1" height="1"/><rect class="aa115-2" x="17" y="14" width="1" height="1"/><rect class="aa115-7" x="18" y="13" width="1" height="1"/><rect class="aa115-7" x="16" y="12" width="2" height="1"/><rect class="aa115-7" x="12" y="13" width="1" height="1"/><path class="aa115-7" d="M10,13h2V12H10Z"/><path class="aa115-8" d="M16,18H13v1h3Z"/><path class="aa115-8" d="M19,17H18v1H17v1H16v1H13V19H12V18H11V17H10V16H9v4h1v1h1v1h1v1h5V22h1V21h1V20h1V16H19Z"/><rect class="aa115-2" x="13" y="19" width="3" height="1"/><rect class="aa115-2" x="16" y="18" width="1" height="1"/><path class="aa115-9" d="M10,13V12h1V11h5V10h1v1h1v1h1v3h1V10H19V9H18V8H17V9H16V8H13V9H12V8H10V9H9v1h1v1H9v3h1Z"/><rect class="aa115-9" x="12" y="7" width="1" height="1"/><path class="aa115-10" d="M8,22V20H7v2Z"/><rect class="aa115-2" x="6" y="21" width="1" height="1"/><path class="aa115-2" d="M9,22H8v2H9Z"/><path class="aa115-11" d="M4,19V17H2v4H4Z"/><path class="aa115-12" d="M8,19V16H6v4H8Z"/><path class="aa115-6" d="M6,18V16H5v1H4v4H5V20H6Z"/></svg>