<svg xmlns="http://www.w3.org/2000/svg" viewBox="0 0 29 33"><defs><style>polygon,rect,path{shape-rendering:crispedges;}polygon,rect,path{shape-rendering:crispedges;}.lb36-1{fill:#a9a9a9;}.lb36-2{fill:#000000;}.lb36-3{fill:#bbbbbb;}.lb36-4{fill:#04263a;}.lb36-5{fill:#0068f5;}.lb36-6{fill:#008dff;}.lb36-7{fill:#008b4c;}.lb36-8{fill:#ffffff;}.lb36-9{fill:#004480;}.lb36-10{fill:#333333;}.lb36-11{fill:#b2622b;}.lb36-12{fill:#7f5018;}.lb36-13{fill:#7f5018;}.lb36-14{fill:#9b8100;}.lb36-15{fill:#6e12ff;}.lb36-16{fill:#455054;}.lb36-17{fill:#ff1f4a;}.lb36-18{fill:#002b4f;}</style></defs><path class="lb36-1" d="M28,25H27v1h2V24H28Z"/><path class="lb36-2" d="M0,0V23H4V22H5v9H6V22H7V20H5v1H2V17H5V16H8v5h4V20H11V19H10V16H9V10h1V9h1V8h7V9h1v2h1v5H19v3H18v1H17v1h4v1h5v1h3V0H0ZM27,5V7H22V6H21V5H20V4h1V3h1V2h3V3h1V4h1Z"/><path class="lb36-1" d="M27,32H26V31H23v2h5V32Z"/><path class="lb36-1" d="M25,27v1H24v2h4v1h1V27H25Z"/><rect class="lb36-3" x="10" y="23" width="1" height="1"/><path class="lb36-3" d="M7,32H6v1H8V32Z"/><path class="lb36-3" d="M2,24H4v1H5V22H4v1H1v1Z"/><path class="lb36-3" d="M18,22h3V21H17v1Z"/><path class="lb36-3" d="M22,23H21v1h1v1H21v1h2V24h1V23h2V22H23v1Z"/><rect class="lb36-3" x="18" y="23" width="1" height="1"/><path class="lb36-3" d="M9,24H8v1h2V24Z"/><path class="lb36-3" d="M27,24H26v1H25v1H23v5h3v1h2v1h1V31H28V30H24V28h1V27h4V26H27V25h1V24h1V23H27Z"/><path class="lb36-3" d="M4,32V31H5V26H2V25H1V24H0v2H1v1H3v1H4v2H2v1H0v2H3V32Z"/><path class="lb36-3" d="M21,25V24H19v1h2Z"/><path class="lb36-4" d="M26,7h1V6H26Z"/><path class="lb36-5" d="M26,5V6h1V4H26Z"/><path class="lb36-5" d="M25,6V7h1V6Z"/><rect class="lb36-6" x="25" y="5" width="1" height="1"/><rect class="lb36-7" x="25" y="4" width="1" height="1"/><rect class="lb36-8" x="25" y="3" width="1" height="1"/><path class="lb36-1" d="M24,24H23v2h2V25h1V24h1V23H24Z"/><path class="lb36-7" d="M24,5H23V6h2V5Z"/><rect class="lb36-8" x="24" y="4" width="1" height="1"/><rect class="lb36-5" x="24" y="3" width="1" height="1"/><path class="lb36-9" d="M24,6H23V7h2V6Z"/><rect class="lb36-6" x="23" y="4" width="1" height="1"/><path class="lb36-1" d="M22,27h1V26H22Z"/><path class="lb36-4" d="M22,6V7h1V6Z"/><rect class="lb36-6" x="22" y="5" width="1" height="1"/><rect class="lb36-5" x="22" y="4" width="1" height="1"/><path class="lb36-7" d="M23,4h1V3h1V2H23V3H22V4Z"/><path class="lb36-6" d="M23,2H22V3h1Z"/><rect class="lb36-1" x="21" y="24" width="1" height="1"/><rect class="lb36-9" x="21" y="5" width="1" height="1"/><rect class="lb36-7" x="21" y="4" width="1" height="1"/><rect class="lb36-8" x="21" y="3" width="1" height="1"/><rect class="lb36-5" x="20" y="4" width="1" height="1"/><path class="lb36-1" d="M18,22H17v1h2v1h2V23h2V22H18Z"/><path class="lb36-1" d="M10,24V23h2V22H9v2Z"/><path class="lb36-1" d="M6,31H4v1H3v1H6V31Z"/><path class="lb36-1" d="M2,30H4V28H3V27H1V26H0v5H2Z"/><path class="lb36-1" d="M4,24H1v1H2v1H5V25H4Z"/><path class="lb36-1" d="M1,23H0v1H1Z"/><path class="lb36-2" d="M23,27H22v6h1V27Z"/><path class="lb36-2" d="M21,26v1h1V26Z"/><path class="lb36-10" d="M22,27H21v6h1V27Z"/><path class="lb36-2" d="M21,27H20v6h1V27Z"/><path class="lb36-2" d="M20,25H19v1h2V25Z"/><path class="lb36-10" d="M20,27h1V26H19V25H18v4H17v4h3V27Z"/><rect class="lb36-8" x="16" y="24" width="1" height="1"/><path class="lb36-2" d="M17,29H16v4h1V29Z"/><rect class="lb36-8" x="15" y="23" width="1" height="1"/><path class="lb36-8" d="M16,29h1V26H16V25H13v1H12v3h1v4h1V32h1v1h1V29Zm-1,2H14V30h1Zm0-2H14V28h1Zm0-2H14V26h1Z"/><rect class="lb36-2" x="14" y="26" width="1" height="1"/><rect class="lb36-2" x="14" y="28" width="1" height="1"/><rect class="lb36-2" x="14" y="30" width="1" height="1"/><rect class="lb36-2" x="14" y="32" width="1" height="1"/><rect class="lb36-8" x="13" y="23" width="1" height="1"/><rect class="lb36-8" x="12" y="24" width="1" height="1"/><path class="lb36-2" d="M13,29H12v4h1V29Z"/><path class="lb36-10" d="M12,29H11V25H10v1H8v1H9v6h3V29Z"/><path class="lb36-2" d="M9,27H8V26h2V25H8V24H7v7H6v1H8v1H9V27Z"/><path class="lb36-8" d="M7,24H6v1H7Z"/><path class="lb36-10" d="M7,25H6v6H7Z"/><path class="lb36-11" d="M16,18h1v2h1V19h1V16h1V15H19V13H17v1h1v1H16v1H15v1H14V16H13V15H11V14H10v1H9v1h1v3h1v1h1V18Z"/><path class="lb36-11" d="M13,20v2h3V20Z"/><path class="lb36-2" d="M12,23H11v1H10v1h1v4h1V26h1V25H12V24h1V23h1v1H13v1h3V24H15V23h1v1h1v1H16v1h1v3h1V25h1V24H18V23H17V21H16v1H13V21H12v2Z"/><path class="lb36-12" d="M13,20V19h3V18H12v3h1Z"/><path class="lb36-12" d="M16,19v2h1V19Z"/><path class="lb36-13" d="M18,15V14H17v1Z"/><rect class="lb36-13" x="16" y="13" width="1" height="1"/><rect class="lb36-2" x="14" y="14" width="1" height="1"/><path class="lb36-8" d="M16,13H13v1H12v1h1v1h3V15h1V14H16Zm-1,2H14V14h1Z"/><rect class="lb36-13" x="12" y="13" width="1" height="1"/><path class="lb36-13" d="M11,14v1h1V14Z"/><path class="lb36-2" d="M14,17h1V16H14Z"/><rect class="lb36-11" x="11" y="13" width="1" height="1"/><polygon class="lb36-11" points="17 10 16 10 16 11 18 11 18 10 17 10"/><path class="lb36-2" d="M16,19H13v1h3Z"/><path class="lb36-2" d="M17,18H16v1h1Z"/><path class="lb36-14" d="M16,11V10h2v1h1V9H18V8H11V9H10v1H9v1h7Z"/><path class="lb36-14" d="M10,14h1V13H9v2h1Z"/><path class="lb36-14" d="M19,14v1h1V13H19Z"/><path class="lb36-8" d="M20,12V11H9v1H20Z"/><path class="lb36-15" d="M12,13h8V12H9v1h3Z"/><path class="lb36-11" d="M8,24V22H6v2H8Z"/><path class="lb36-16" d="M8,21V20H7v2H8Z"/><path class="lb36-2" d="M9,22H8v2H9Z"/><path class="lb36-17" d="M5,17H2v1H5Z"/><path class="lb36-17" d="M2,21H5V20H2Z"/><path class="lb36-17" d="M5,19v1H6V19Z"/><path class="lb36-17" d="M8,19H7v1H8Z"/><path class="lb36-18" d="M7,18H8V17H7V16H6v1H5v1H6v2H7V18Z"/><path class="lb36-18" d="M5,18H2v1H5Z"/><path class="lb36-17" d="M6,16H5v1H6Z"/><path class="lb36-8" d="M6,19V18H5v1Z"/><path class="lb36-8" d="M2,19v1H5V19Z"/><path class="lb36-8" d="M7,19H8V18H7Z"/><path class="lb36-8" d="M8,17V16H7v1Z"/><path class="lb36-3" d="M9,22h3V21H8v1Z"/></svg>