<svg xmlns="http://www.w3.org/2000/svg" viewBox="0 0 29 33"><defs><style>polygon,rect,path{shape-rendering:crispedges;}.ka244-1{fill:#29834f;}.ka244-2{fill:#000000;}.ka244-3{fill:#5a2de2;}.ka244-4{fill:#b8a4ff;}.ka244-5{fill:#ce8452;}.ka244-6{fill:#893a1f;}.ka244-7{fill:#893a1f;}.ka244-8{fill:#c8a715;}.ka244-9{fill:#db5800;}.ka244-10{fill:#cbed03;}.ka244-11{fill:#00e070;}</style></defs><path class="ka244-1" d="M12,22H11v2h1V22Z"/><path class="ka244-1" d="M18,24V22H17v2Z"/><path class="ka244-1" d="M0,33H8V32H6V31H5V23H4V20H5V19H7v1H8v1H9v2H8v2h2V20H9V16H8V14H9V13H8V9H9V8h1V7h1V6h7V7h1V8h1V9h1v4H20v1h1v2H20v4H19v5h2v1h1v1h1v6h6V0H0Z"/><path class="ka244-2" d="M6,29V23H5v8H6V29Z"/><path class="ka244-3" d="M6,26v2H7V25H6Z"/><path class="ka244-3" d="M7,30H6v1H7Z"/><path class="ka244-2" d="M9,31V27H8V26h2V25H8V23H7v8H6v1H8v1H9V31Z"/><path class="ka244-3" d="M17,26h1v2h1v1h1V27H19V25H17Z"/><path class="ka244-3" d="M19,31V30H18V28H17V27H16V25H15V24H14V23H13v2h1v1h1v2h1v1h1v2h1v1h1v1h1V31Z"/><path class="ka244-3" d="M16,31V30H15V28H14V27H13V25H11v1h1v2h1v1h1v2h1v1h1v1h1V31Z"/><path class="ka244-3" d="M13,31V30H12V28H11V27H10V26H9v2h1v1h1v2h1v1h1v1h1V31Z"/><path class="ka244-3" d="M10,31V30H9v2h1v1h1V31Z"/><path class="ka244-2" d="M12,25V24H10v1h2Z"/><path class="ka244-2" d="M17,24v1h2V24H17Z"/><path class="ka244-2" d="M20,26h1V25H19v1Z"/><path class="ka244-2" d="M21,31V27H20v6h1V31Z"/><rect class="ka244-2" x="21" y="26" width="1" height="1"/><path class="ka244-3" d="M21,28h1V27H21Z"/><path class="ka244-3" d="M21,31v1h1V30H21Z"/><path class="ka244-2" d="M23,27H22v6h1V27Z"/><path class="ka244-4" d="M19,28H18v2h1v1h1V29H19Z"/><path class="ka244-4" d="M21,29v1h1V28H21Z"/><path class="ka244-4" d="M21,32v1h1V32Z"/><path class="ka244-4" d="M17,26V25H16v2h1v1h1V26Z"/><path class="ka244-4" d="M19,26v1h2V26H19Z"/><path class="ka244-4" d="M18,32V31H17v2h2V32Z"/><path class="ka244-4" d="M16,30v1h1V29H16V28H15v2Z"/><path class="ka244-4" d="M16,23H14v1h1v1h1V23Z"/><path class="ka244-4" d="M14,27v1h1V26H14V25H13v2Z"/><path class="ka244-4" d="M15,32V31H14v2h2V32Z"/><path class="ka244-4" d="M13,30v1h1V29H13V28H12v2Z"/><path class="ka244-4" d="M10,27h1v1h1V26H11V25H10v2Z"/><path class="ka244-4" d="M12,32V31H11v2h2V32Z"/><path class="ka244-4" d="M10,30v1h1V29H10V28H9v2Z"/><path class="ka244-4" d="M6,25H7V24H6Z"/><path class="ka244-4" d="M6,29v1H7V28H6Z"/><path class="ka244-4" d="M9,32v1h1V32Z"/><path class="ka244-4" d="M8,27H9V26H8Z"/><path class="ka244-2" d="M20,16h1V15H20Z"/><path class="ka244-5" d="M13,13v1h3V12h2V11H11v1h2Z"/><rect class="ka244-5" x="14" y="15" width="1" height="1"/><path class="ka244-5" d="M16,17V16H15v1H14V16H13v1H10v1h1v1h1V18h2v1h1V18h2v1h1V18h1V17H16Z"/><polygon class="ka244-5" points="13 21 14 21 14 22 15 22 15 21 16 21 16 20 13 20 13 21"/><path class="ka244-2" d="M19,17h1V16H19Z"/><path class="ka244-2" d="M10,16H9v1h1Z"/><path class="ka244-2" d="M8,15v1H9V15Z"/><rect class="ka244-2" x="14" y="16" width="1" height="1"/><path class="ka244-6" d="M13,13V12H10v1h3Z"/><path class="ka244-6" d="M16,13h3V12H16Z"/><path class="ka244-7" d="M12,22v1h5V22h2V20h1V17H19v1H18v1H17V18H15v1h1v2H15v1H14V21H13V19H11V18H10V17H9v3h1v2h2Z"/><path class="ka244-7" d="M14,18H13v1h1Z"/><path class="ka244-8" d="M18,23h1V22H18Z"/><path class="ka244-7" d="M18,24h1V23H18Z"/><path class="ka244-8" d="M17,24V23H16v1Z"/><path class="ka244-7" d="M17,24H16v1h1Z"/><path class="ka244-8" d="M12,24h1V23H12Z"/><path class="ka244-7" d="M12,25h1V24H12Z"/><path class="ka244-8" d="M11,22H10v1h1Z"/><path class="ka244-7" d="M11,23H10v1h1Z"/><path class="ka244-2" d="M13,19v1h3V19H13Z"/><path class="ka244-2" d="M12,18v1h1V18Z"/><path class="ka244-2" d="M9,23V21H8v2Z"/><rect class="ka244-2" x="7" y="20" width="1" height="1"/><rect class="ka244-2" x="5" y="19" width="2" height="1"/><path class="ka244-2" d="M5,20H4v3H5V20Z"/><path class="ka244-5" d="M6,24H7V23H8V21H7V20H5v3H6Z"/><path class="ka244-9" d="M10,13V12h1V11h7v1h1v2h1V13h1V9H20V8H19V7H18V6H11V7H10V8H9V9H8v4H9v1h1Z"/><path class="ka244-10" d="M19,15v1h1V15h1V14H19Z"/><path class="ka244-10" d="M16,13v1h3V13H16Z"/><path class="ka244-11" d="M16,14v2h3V14H16Z"/><path class="ka244-10" d="M18,16H16v1h3V16Z"/><path class="ka244-10" d="M13,14v2h1V15h1v1h1V14Z"/><path class="ka244-10" d="M13,14V13H10v1h3Z"/><path class="ka244-11" d="M13,16V14H10v2h3Z"/><path class="ka244-10" d="M13,17V16H10v1h3Z"/><path class="ka244-10" d="M10,15V14H8v1H9v1h1Z"/></svg>