<svg xmlns="http://www.w3.org/2000/svg" viewBox="0 0 29 33"><defs><style>polygon,rect,path{shape-rendering:crispedges;}.ra6-1{fill:#d14646;}.ra6-2{fill:#000000;}.ra6-3{fill:#68aaad;}.ra6-4{fill:#efcaaf;}.ra6-5{fill:#ffffff;}.ra6-6{fill:#6c9302;}.ra6-7{fill:#825fff;}</style></defs><path class="ra6-1" d="M0,33H6V27H7V26H8V25h2V24h1V23H10V22h1V20H10V19H9V18H8V12H9V10h1V9h1V8h7V9h1v1h1v5h1v1H20v3H19v1H18v2h1v1H18v1h1v1h2v1h1v1h1v6h6V0H0Z"/><path class="ra6-2" d="M23,27H22v6h1V27Z"/><path class="ra6-3" d="M22,27H21v6h1V27Z"/><rect class="ra6-2" x="21" y="26" width="1" height="1"/><path class="ra6-2" d="M21,27H20v6h1V27Z"/><path class="ra6-3" d="M20,27h1V26H19V25H18V24H16v1h1v5H16V25H13v5H12V25h1V24H11v1H10v1H8v1H9v6H20V27Z"/><path class="ra6-2" d="M20,26h1V25H19v1Z"/><rect class="ra6-2" x="18" y="24" width="1" height="1"/><rect class="ra6-2" x="18" y="22" width="1" height="1"/><rect class="ra6-3" x="17" y="22" width="1" height="1"/><path class="ra6-2" d="M13,24v1h3V24H13Z"/><path class="ra6-4" d="M15,23H13v1h3V23Z"/><path class="ra6-2" d="M13,23h3v1h2V23H17V22h1V20H17v1H16v1H13V21H12V20H11v2h1v1H11v1h2Z"/><rect class="ra6-3" x="11" y="22" width="1" height="1"/><rect class="ra6-2" x="10" y="24" width="1" height="1"/><rect class="ra6-2" x="10" y="22" width="1" height="1"/><path class="ra6-2" d="M10,25H8v1h2Z"/><path class="ra6-2" d="M9,27H8v6H9V27Z"/><path class="ra6-3" d="M8,27H7v6H8V27Z"/><rect class="ra6-2" x="7" y="26" width="1" height="1"/><path class="ra6-2" d="M7,27H6v6H7V27Z"/><path class="ra6-2" d="M12,26v4h1V25H12Z"/><path class="ra6-2" d="M16,30h1V25H16v5Z"/><rect class="ra6-2" x="20" y="15" width="1" height="1"/><path class="ra6-4" d="M12,21h1v1h3V21h1V20h1V19h1V16h1V15H16V14H14v2h1v1H14V16H13v1H11V16H10v3h1v1h1Zm0-3h5v1H16v1H13V19H12Z"/><path class="ra6-4" d="M16,13V12h2V10H16v1H14v1H13v1H11v1h3V13Z"/><path class="ra6-4" d="M17,13v1h2V13H17Z"/><rect class="ra6-4" x="9" y="15" width="1" height="1"/><path class="ra6-2" d="M19,17v2h1V16H19Z"/><rect class="ra6-2" x="18" y="19" width="1" height="1"/><rect class="ra6-2" x="10" y="19" width="1" height="1"/><path class="ra6-2" d="M10,16H9v3h1V16Z"/><rect class="ra6-2" x="14" y="16" width="1" height="1"/><path class="ra6-5" d="M18,14v1h1V14Z"/><path class="ra6-5" d="M16,14v1h1V14Z"/><path class="ra6-2" d="M17,14v1h1V14Z"/><rect class="ra6-6" x="16" y="13" width="1" height="1"/><path class="ra6-6" d="M18,13h1V12H18Z"/><polygon class="ra6-2" points="13 20 16 20 16 19 17 19 17 18 12 18 12 19 13 19 13 20"/><path class="ra6-7" d="M9,15h1V14H9V13h1v1h1V13h2V12h1V11h2V10h2v1h1V9H18V8H11V9H10v1H9v2H8v6H9V15Z"/><path class="ra6-7" d="M19,12v3h1V11H19Z"/><path class="ra6-2" d="M11,14H10v2h1v1h2V16h1V14H11Z"/><rect class="ra6-2" x="14" y="13" width="2" height="1"/><path class="ra6-2" d="M18,12H16v1h2Z"/><path class="ra6-2" d="M19,12V11H18v1Z"/><path class="ra6-2" d="M20,11V10H19v1Z"/><rect class="ra6-2" x="9" y="13" width="1" height="1"/></svg>