<svg xmlns="http://www.w3.org/2000/svg" viewBox="0 0 29 33"><defs><style>polygon,rect,path{shape-rendering:crispedges;}.qa214-1{fill:#db5a8e;}.qa214-2{fill:#000000;}.qa214-3{fill:#317f03;}.qa214-4{fill:#c18d59;}.qa214-5{fill:#317f03;}.qa214-6{fill:#66334f;}.qa214-7{fill:#66334f;}.qa214-8{fill:#d8be00;}.qa214-9{fill:#ffffff;}</style></defs><path class="qa214-1" d="M0,33H6V27H7V26H8V25h2V24h1V23H10V22h1V21H10V20H9V16H8V15H9V13H8V9H9V8h1V7h1V6h7V7h1V8h1V9h1v4H20v2h1v1H20v4H19v1H18v1h1v1H18v1h1v1h2v1h1v1h1v6h6V0H0Z"/><path class="qa214-2" d="M23,27H22v6h1V27Z"/><path class="qa214-3" d="M22,27H21v6h1V27Z"/><rect class="qa214-2" x="21" y="26" width="1" height="1"/><path class="qa214-2" d="M21,27H20v6h1V27Z"/><path class="qa214-3" d="M9,27v2h1V28h1v1h1V25h1V24H11v1H10v1H8v1Z"/><path class="qa214-3" d="M16,25h1v4h1V28h1v1h1V27h1V26H19V25H18V24H16Z"/><rect class="qa214-3" x="10" y="29" width="1" height="1"/><rect class="qa214-3" x="18" y="29" width="1" height="1"/><path class="qa214-3" d="M19,32V31H18v1H17V30H16v1H15v1H13V30H12v2H11V31H10v1H9v1H20V32Z"/><path class="qa214-2" d="M20,26h1V25H19v1Z"/><rect class="qa214-2" x="18" y="24" width="1" height="1"/><rect class="qa214-2" x="18" y="22" width="1" height="1"/><rect class="qa214-3" x="17" y="22" width="1" height="1"/><path class="qa214-2" d="M16,23v1h2V23H16Z"/><path class="qa214-2" d="M16,25V24H13v1h3Z"/><path class="qa214-4" d="M16,24V23H13v1h3Z"/><path class="qa214-2" d="M13,23H11v1h2Z"/><path class="qa214-3" d="M12,22H11v1h1Z"/><rect class="qa214-2" x="10" y="24" width="1" height="1"/><rect class="qa214-2" x="10" y="22" width="1" height="1"/><path class="qa214-2" d="M10,25H8v1h2Z"/><path class="qa214-2" d="M9,31V27H8v6H9V31Z"/><path class="qa214-3" d="M8,27H7v6H8V27Z"/><rect class="qa214-2" x="7" y="26" width="1" height="1"/><path class="qa214-2" d="M7,27H6v6H7V27Z"/><path class="qa214-3" d="M13,28h2v1h1V25H13v3Z"/><path class="qa214-3" d="M14,29v2h1V29Z"/><path class="qa214-5" d="M19,30H18V29H17v3h1V31h1v1h1V29H19Z"/><rect class="qa214-5" x="18" y="28" width="1" height="1"/><path class="qa214-5" d="M15,29v2h1V29Z"/><path class="qa214-5" d="M14,30V29h1V28H13v4h2V31H14Z"/><path class="qa214-5" d="M11,29v1H10V29H9v3h1V31h1v1h1V29Z"/><rect class="qa214-5" x="10" y="28" width="1" height="1"/><path class="qa214-2" d="M13,27V25H12v5h1V27Z"/><path class="qa214-2" d="M17,28V25H16v5h1V28Z"/><rect class="qa214-2" x="20" y="15" width="1" height="1"/><path class="qa214-2" d="M19,15h1V14H19Z"/><rect class="qa214-4" x="18" y="12" width="1" height="1"/><rect class="qa214-4" x="14" y="15" width="1" height="1"/><rect class="qa214-4" x="10" y="16" width="1" height="1"/><path class="qa214-4" d="M12,13h1v1h3V12h2V11H11v1h1Z"/><rect class="qa214-4" x="10" y="13" width="1" height="1"/><path class="qa214-4" d="M16,16H15v1H14V16H13v1H11v1h1v1h1V18h3v1h1V18h1V17H16Z"/><rect class="qa214-4" x="18" y="16" width="1" height="1"/><rect class="qa214-4" x="9" y="15" width="1" height="1"/><rect class="qa214-4" x="19" y="15" width="1" height="1"/><path class="qa214-2" d="M10,14H9v1h1Z"/><rect class="qa214-2" x="8" y="15" width="1" height="1"/><rect class="qa214-2" x="14" y="16" width="1" height="1"/><rect class="qa214-6" x="18" y="13" width="1" height="1"/><path class="qa214-6" d="M16,13h2V12H16Z"/><path class="qa214-6" d="M12,13V12H10v1h2Z"/><path class="qa214-7" d="M12,23h5V22h1V21h1V20h1V16H19v1H18v1H17v1H16V18H13v1H12V18H11V17H10V16H9v4h1v1h1v1h1Zm2-4h1v1H14Z"/><rect class="qa214-2" x="14" y="19" width="1" height="1"/><path class="qa214-8" d="M10,13V12h1V11h7v1h1v2h1V13h1V9H20V8H19V7H18V6H11V7H10V8H9V9H8v4H9v1h1Z"/><path class="qa214-9" d="M13,13H11v1h2Z"/><path class="qa214-9" d="M13,16H11v1h2Z"/><polygon class="qa214-9" points="11 15 11 14 10 14 10 15 10 16 11 16 11 15"/><path class="qa214-2" d="M11,14v2h2V14Z"/><path class="qa214-9" d="M19,14H18v2h1V14Z"/><path class="qa214-9" d="M17,13H16v1h2V13Z"/><path class="qa214-9" d="M17,16H16v1h2V16Z"/><path class="qa214-9" d="M13,14v2h1V15h1v1h1V14Z"/><path class="qa214-2" d="M16,16h2V14H16Z"/></svg>