<svg xmlns="http://www.w3.org/2000/svg" viewBox="0 0 29 33"><defs><style>polygon,rect,path{shape-rendering:crispedges;}.ga69-1{fill:#b4bd09;}.ga69-2{fill:#000000;}.ga69-3{fill:#508e5d;}.ga69-4{fill:#ce8452;}.ga69-5{fill:#99004d;}.ga69-6{fill:#99004d;}.ga69-7{fill:#ff791f;}.ga69-8{fill:#ffffff;}.ga69-9{fill:#455054;}.ga69-10{fill:#ffffff;}.ga69-11{fill:#900;}</style></defs><path class="ga69-1" d="M11,24h1V21H11V20H9V18H8v4H9v2H8v1h2V24Z"/><path class="ga69-1" d="M8,32H6V31H5V22H6V21H7V20H5v1H2V17H5V16H8V13H9V11h1V10h1V9h7v1h1v1h1v1h1v6H20v2H18v1H17v3h2v1h2v1h1v1h1v6h6V0H0V33H8Z"/><path class="ga69-2" d="M6,24V22H5v9H6V24Z"/><path class="ga69-3" d="M7,30V24H6v7H7Z"/><path class="ga69-2" d="M9,27H8V26h2V25H8V24H7v7H6v1H8v1H9V27Z"/><path class="ga69-3" d="M20,27h1V26H19V25H17v1H16v1H13V26H12V25H10v1H8v1H9v6H20V27Z"/><path class="ga69-2" d="M11,24H10v1h2V24Z"/><path class="ga69-2" d="M13,24V22H12v2Z"/><rect class="ga69-2" x="12" y="25" width="1" height="1"/><path class="ga69-2" d="M13,26v1h3V26H13Z"/><path class="ga69-4" d="M16,23H13v1H12v1h1v1h3V25h1V24H16Z"/><rect class="ga69-2" x="16" y="25" width="1" height="1"/><path class="ga69-2" d="M18,25h1V24H17v1Z"/><path class="ga69-2" d="M20,26h1V25H19v1Z"/><path class="ga69-2" d="M21,27H20v6h1V27Z"/><rect class="ga69-2" x="21" y="26" width="1" height="1"/><path class="ga69-3" d="M22,27H21v6h1V27Z"/><path class="ga69-2" d="M23,27H22v6h1V27Z"/><path class="ga69-4" d="M16,13V12H15V11H14v3h2Z"/><rect class="ga69-4" x="12" y="12" width="1" height="1"/><path class="ga69-4" d="M13,21h3V20H13Z"/><rect class="ga69-4" x="14" y="15" width="1" height="1"/><rect class="ga69-4" x="17" y="11" width="1" height="1"/><path class="ga69-4" d="M17,17H16V16H15v1H14V16H13v1H11v2h1v1h1V19h3V18h1v1h1V17Z"/><rect class="ga69-4" x="16" y="19" width="1" height="1"/><path class="ga69-2" d="M16,23v1h1V22H16Z"/><rect class="ga69-2" x="14" y="16" width="1" height="1"/><rect class="ga69-5" x="17" y="12" width="1" height="1"/><rect class="ga69-5" x="11" y="12" width="1" height="1"/><path class="ga69-6" d="M19,18H18v1H17v1H16v1H13V20H12V19H11V18H10v2h1v1h1v1h1v1h3V22h1V21h1V20h1V18Z"/><path class="ga69-6" d="M19,16v2h1V16Z"/><path class="ga69-6" d="M10,17V16H9v2h1Z"/><rect class="ga69-2" x="13" y="19" width="3" height="1"/><rect class="ga69-2" x="16" y="18" width="1" height="1"/><path class="ga69-7" d="M9,18V15H8v3Z"/><path class="ga69-7" d="M20,16v2h1V15H20Z"/><path class="ga69-7" d="M18,18h1V17H18Z"/><path class="ga69-7" d="M10,17v1h1V17Z"/><path class="ga69-7" d="M10,13h1V12h2v2h1V11h1v1h1v1h1V11h1v2h1v1h2V12H20V11H19V10H18V9H11v1H10v1H9v2H8v1h2Z"/><path class="ga69-7" d="M19,19v1h1V18H19Z"/><path class="ga69-7" d="M10,20V18H9v2Z"/><path class="ga69-8" d="M19,16h1V15h1V14H19Z"/><path class="ga69-8" d="M17,14h2V13H16v1Z"/><path class="ga69-2" d="M16,14v2h3V14H16Z"/><path class="ga69-8" d="M16,16v1h3V16H16Z"/><path class="ga69-8" d="M14,16V15h1v1h1V14H13v2Z"/><path class="ga69-8" d="M13,14V13H10v1h3Z"/><path class="ga69-2" d="M13,16V14H10v2h3Z"/><path class="ga69-8" d="M11,17h2V16H10v1Z"/><path class="ga69-8" d="M9,16h1V14H8v1H9Z"/><path class="ga69-4" d="M7,24H8V22H6v2Z"/><path class="ga69-9" d="M8,22V20H7v2Z"/><path class="ga69-10" d="M4,19V18H5V17H2v4H5V20H4Z"/><path class="ga69-10" d="M8,19V16H5v1H6v2H5v1H8Z"/><path class="ga69-2" d="M7,21H6v1H7Z"/><path class="ga69-2" d="M9,22H8v2H9Z"/><path class="ga69-11" d="M6,19V17H5v1H4v2H5V19Z"/></svg>