<svg xmlns="http://www.w3.org/2000/svg" viewBox="0 0 29 33"><defs><style>polygon,rect,path{shape-rendering:crispedges;}.qa265-1{fill:#d14646;}.qa265-2{fill:#000000;}.qa265-3{fill:#474718;}.qa265-4{fill:#ce8452;}.qa265-5{fill:#8e9350;}.qa265-6{fill:#ffffff;}.qa265-7{fill:#663228;}.qa265-8{fill:#893a1f;}.qa265-9{fill:#00686d;}.qa265-10{fill:#fafafa;}</style></defs><path class="qa265-1" d="M0,33H6V28H5V27H4V26H3V22H4V21H5V20H9v1h1v1h1V20H10V19H9V16H8V15H9V14H8V11H9V10h1V9h2V8h5V9h1v1h1v1h1v4h1v1H20v3H19v1H18v2h1v1H18v1h1v1h2v1h1v1h1v6h6V0H0Z"/><rect class="qa265-1" x="10" y="23" width="1" height="1"/><path class="qa265-2" d="M23,27H22v6h1V27Z"/><path class="qa265-3" d="M22,27H21v6h1V27Z"/><rect class="qa265-2" x="21" y="26" width="1" height="1"/><path class="qa265-2" d="M21,27H20v6h1V27Z"/><path class="qa265-3" d="M20,27h1V26H19V25H18V24H16v1h1v3h2v1H17v2h1V30h1v2H16V25H13v3h2v4H12V25h1V24H11v1H10v2H9v6H20V27Zm-9,2v3H10V28h1Z"/><path class="qa265-2" d="M20,26h1V25H19v1Z"/><rect class="qa265-2" x="18" y="24" width="1" height="1"/><rect class="qa265-2" x="18" y="22" width="1" height="1"/><rect class="qa265-3" x="17" y="22" width="1" height="1"/><path class="qa265-2" d="M17,22h1V21H17Z"/><path class="qa265-2" d="M13,24v1h3V24H13Z"/><path class="qa265-4" d="M15,23H13v1h3V23Z"/><rect class="qa265-3" x="11" y="22" width="1" height="1"/><path class="qa265-2" d="M12,21H11v1h1Z"/><path class="qa265-2" d="M9,27H5v1H6v5H7V28H8v5H9V27Z"/><path class="qa265-3" d="M8,28H7v5H8V28Z"/><path class="qa265-3" d="M14,31V29H13v2Z"/><path class="qa265-5" d="M14,29v2H13V30H12v2h3V28H13v1Z"/><path class="qa265-5" d="M10,29v3h1V28H10Z"/><path class="qa265-5" d="M18,29h1V28H17v1Z"/><path class="qa265-5" d="M16,31v1h3V30H18v1H17V30H16Z"/><path class="qa265-2" d="M12,26v4h1V25H12Z"/><path class="qa265-2" d="M16,30h1V25H16v5Z"/><rect class="qa265-2" x="20" y="15" width="1" height="1"/><rect class="qa265-4" x="13" y="20" width="1" height="1"/><rect class="qa265-4" x="15" y="20" width="1" height="1"/><path class="qa265-4" d="M10,17v1h1v1h1V18h2v1h1V18h2v1h1V18h1V16h1V15H16V14h2V13H16V12h2v1h1V11H18V10H14v1H12v2h1v2H9v1h1Zm4-1h1v1H14Z"/><path class="qa265-4" d="M10,13v1h2V13H10Z"/><path class="qa265-2" d="M19,17h1V16H19Z"/><path class="qa265-2" d="M17,22H16v2h2V23H17Z"/><path class="qa265-2" d="M13,22H12v1H11v1h2V22Z"/><path class="qa265-2" d="M10,16H9v1h1Z"/><rect class="qa265-2" x="8" y="15" width="1" height="1"/><rect class="qa265-2" x="14" y="16" width="1" height="1"/><path class="qa265-6" d="M18,14v1h1V14Z"/><path class="qa265-6" d="M12,15h1V14H12Z"/><path class="qa265-2" d="M17,14H16v1h2V14Z"/><path class="qa265-2" d="M11,14H10v1h2V14Z"/><rect class="qa265-7" x="18" y="13" width="1" height="1"/><rect class="qa265-7" x="16" y="12" width="2" height="1"/><path class="qa265-7" d="M13,14V13H12v1Z"/><path class="qa265-7" d="M11,13h1V12H11Z"/><path class="qa265-8" d="M15,18v1h1V18Z"/><path class="qa265-8" d="M12,22h1v1h3V22h1V21h1V20h1V19h1V17H19v1H18v1H16v2H15V20H14v1H13V19h1V18H12v1H11V18H10V17H9v2h1v1h1v1h1Z"/><path class="qa265-2" d="M14,19H13v1h3V19H14Z"/><path class="qa265-2" d="M16,18v1h1V18Z"/><path class="qa265-9" d="M19,14v1h1V11H19v3Z"/><rect class="qa265-9" x="18" y="10" width="1" height="1"/><path class="qa265-9" d="M10,14V13h1V12h1V11h2V10h4V9H17V8H12V9H10v1H9v1H8v3H9v1h1Z"/><rect class="qa265-10" x="5" y="23" width="1" height="1"/><rect class="qa265-10" x="8" y="23" width="1" height="1"/><path class="qa265-4" d="M9,27h1V26H9V25h1V24H7V23H9V21H6v1H5v1H6v1H4v2H5V25H8v1H5v1H9Z"/><path class="qa265-2" d="M8,26V25H5v1H8Z"/><path class="qa265-2" d="M7,23v1H8V23Z"/><path class="qa265-2" d="M4,24H5V23H4Z"/><path class="qa265-2" d="M9,23v1h1V23h1V22H9Z"/><rect class="qa265-2" x="4" y="26" width="1" height="1"/><path class="qa265-2" d="M3,24v2H4V24Z"/><path class="qa265-9" d="M10,22V21H9v1Z"/><path class="qa265-9" d="M4,23H5V22H6V21H9V20H5v1H4v1H3v2H4Z"/><path class="qa265-2" d="M9,26h1V25H9Z"/><rect class="qa265-2" x="10" y="24" width="1" height="1"/></svg>