<svg xmlns="http://www.w3.org/2000/svg" viewBox="0 0 29 33"><defs><style>polygon,rect,path{shape-rendering:crispedges;}.wa151-1{fill:#31a09d;}.wa151-2{fill:#875070;}.wa151-3{fill:#000000;}.wa151-4{fill:#efcaaf;}.wa151-5{fill:#e55b35;}.wa151-6{fill:#ffffff;}.wa151-7{fill:#99004d;}.wa151-8{fill:#99004d;}.wa151-9{fill:#841f00;}.wa151-10{fill:#b23b00;}</style></defs><path class="wa151-1" d="M0,33H6V27H7V26H8V25h2V22h1V21H10V20H9V16H8V15H9V10h1V9h1V8h7V9h1v1h1v5h1v1H20v4H19v1H18v1h1v3h2v1h1v1h1v6h6V0H0Z"/><rect class="wa151-2" x="17" y="22" width="1" height="1"/><path class="wa151-2" d="M18,24H16v1h1v1h1v2h1v1h1V27H19V25H18Z"/><path class="wa151-2" d="M15,30V28H14v3h2V30Z"/><path class="wa151-2" d="M18,30V28H17V27H16V25H15v3h1v1h1v2h2V30Z"/><rect class="wa151-2" x="21" y="27" width="1" height="1"/><path class="wa151-2" d="M21,31v1h1V30H21Z"/><rect class="wa151-2" x="19" y="32" width="1" height="1"/><rect class="wa151-2" x="10" y="32" width="1" height="1"/><rect class="wa151-2" x="13" y="32" width="1" height="1"/><rect class="wa151-2" x="16" y="32" width="1" height="1"/><path class="wa151-2" d="M7,31v2H8V31Z"/><path class="wa151-2" d="M8,29V27H7v2Z"/><path class="wa151-2" d="M12,29V28H11V27H10V26H9v2h1v1h1v2h2V30H12Z"/><rect class="wa151-2" x="9" y="30" width="1" height="1"/><rect class="wa151-2" x="11" y="22" width="1" height="1"/><path class="wa151-2" d="M12,25V24H11v2h1v2h1V25Z"/><path class="wa151-3" d="M23,27H22v6h1V27Z"/><rect class="wa151-3" x="21" y="26" width="1" height="1"/><path class="wa151-3" d="M21,31V27H20v4H14V27H13v4H9V27H8v6H9V32H20v1h1V31Z"/><path class="wa151-3" d="M20,26h1V25H19v1Z"/><path class="wa151-3" d="M18,24v1h1V22H18v2Z"/><path class="wa151-3" d="M17,24V22H16v2Z"/><rect class="wa151-3" x="15" y="24" width="1" height="1"/><path class="wa151-3" d="M15,26V25H14v2h1Z"/><rect class="wa151-3" x="13" y="24" width="1" height="1"/><path class="wa151-4" d="M14,24v1h1V24h1V23H13v1Z"/><path class="wa151-3" d="M13,24V22H12v2Z"/><path class="wa151-3" d="M11,24V22H10v3h1Z"/><path class="wa151-3" d="M10,26V25H8v1h2Z"/><rect class="wa151-3" x="7" y="26" width="1" height="1"/><path class="wa151-3" d="M7,30V27H6v6H7V30Z"/><rect class="wa151-3" x="20" y="15" width="1" height="1"/><path class="wa151-3" d="M19,14v1h1V13H19Z"/><path class="wa151-4" d="M10,17v1h1v1h1V18h2v1h1V18h2v1h1V18h1V16h1V15H16V14h2V13H13v2H9v1h1Zm4-1h1v1H14Z"/><rect class="wa151-4" x="15" y="20" width="1" height="1"/><rect class="wa151-4" x="13" y="20" width="1" height="1"/><path class="wa151-4" d="M11,13H10v1h2V13Z"/><rect class="wa151-3" x="8" y="15" width="1" height="1"/><rect class="wa151-3" x="14" y="16" width="1" height="1"/><path class="wa151-5" d="M21,29v1h1V28H21Z"/><path class="wa151-5" d="M21,32v1h1V32Z"/><path class="wa151-5" d="M19,26v1h2V26H19Z"/><path class="wa151-5" d="M19,28H18v2h1v1h1V29H19Z"/><path class="wa151-5" d="M17,27v1h1V26H17V25H16v2Z"/><path class="wa151-5" d="M18,32H17v1h2V32Z"/><path class="wa151-5" d="M16,29V28H15v2h1v1h1V29Z"/><path class="wa151-5" d="M15,27H14v1h1Z"/><path class="wa151-5" d="M13,25v2h1V25Z"/><path class="wa151-5" d="M15,32H14v1h2V32Z"/><path class="wa151-5" d="M12,29v1h1V28H12Z"/><rect class="wa151-5" x="12" y="24" width="1" height="1"/><path class="wa151-5" d="M12,23H11v1h1Z"/><path class="wa151-5" d="M18,24V23H17v1Z"/><path class="wa151-5" d="M10,27h1v1h1V26H11V25H10v2Z"/><path class="wa151-5" d="M12,32H11v1h2V32Z"/><path class="wa151-5" d="M10,29V28H9v2h1v1h1V29Z"/><path class="wa151-5" d="M9,32v1h1V32Z"/><path class="wa151-5" d="M9,27V26H8v1Z"/><path class="wa151-5" d="M7,30v1H8V29H7Z"/><path class="wa151-6" d="M18,14v1h1V14Z"/><path class="wa151-6" d="M12,15h1V14H12Z"/><path class="wa151-3" d="M17,14H16v1h2V14Z"/><path class="wa151-3" d="M12,15V14H10V13H9v2h3Z"/><rect class="wa151-7" x="18" y="13" width="1" height="1"/><path class="wa151-7" d="M12,14h1V13H12Z"/><path class="wa151-8" d="M15,18v1h1V18Z"/><path class="wa151-8" d="M13,22v1h3V22h2V21h1V20h1V16H19v2H18v1H16v2H15V20H14v1H13V19h1V18H12v1H11V18H10V16H9v4h1v1h1v1h2Z"/><path class="wa151-3" d="M14,19H13v1h3V19H14Z"/><path class="wa151-3" d="M16,18v1h1V18Z"/><path class="wa151-9" d="M19,12v1h1V11H19Z"/><path class="wa151-10" d="M10,12v1h1V11h1v2h1V11h1v2h1V11h1v2h1V11h1v2h1V11h1V10H19V9H18V8H11V9H10v1H9v1h1Z"/><path class="wa151-9" d="M17,11v2h1V11Z"/><path class="wa151-9" d="M15,11v2h1V11Z"/><path class="wa151-9" d="M13,11v2h1V11Z"/><path class="wa151-9" d="M12,12V11H11v2h1Z"/><path class="wa151-9" d="M10,12V11H9v2h1Z"/></svg>