<svg xmlns="http://www.w3.org/2000/svg" viewBox="0 0 29 33"><defs><style>polygon,rect,path{shape-rendering:crispedges;}.ma177-1{fill:#29834f;}.ma177-2{fill:#000000;}.ma177-3{fill:#825fff;}.ma177-4{fill:#333333;}.ma177-5{fill:#e8b795;}.ma177-6{fill:#5a2de2;}.ma177-7{fill:#ffffff;}.ma177-8{fill:#7f5018;}.ma177-9{fill:#7f5018;}.ma177-10{fill:#e70059;}.ma177-11{fill:#ff791f;}</style></defs><path class="ma177-1" d="M0,33H6V27H7V26H8V25h2V24h2V22H11V21H10V20H9V16H8V15H9V11h1V10h1V9h7v1h1v1h1v4h1v1H20v4H19v1H18v1H17v2h2v1h2v1h1v1h1v6h6V0H0Z"/><path class="ma177-2" d="M23,27H22v6h1V27Z"/><rect class="ma177-2" x="21" y="26" width="1" height="1"/><path class="ma177-3" d="M21,31v2h1V31Z"/><path class="ma177-3" d="M21,28v2h1V27H21Z"/><path class="ma177-2" d="M21,30V27H20v6h1V30Z"/><path class="ma177-3" d="M20,32V26H19V25H18v3h1v1H18v4h1V32Z"/><path class="ma177-2" d="M20,26h1V25H19v1Z"/><path class="ma177-2" d="M18,29V25h1V24H17v1H16v1h1v7h1V29Z"/><path class="ma177-4" d="M17,26H16v1H13V26H12v7h5V26Z"/><path class="ma177-2" d="M16,24h1V23H16Z"/><path class="ma177-2" d="M13,26v1h3V26H13Z"/><path class="ma177-2" d="M13,23H12v1h1Z"/><path class="ma177-5" d="M13,25v1h3V25h1V24H16V23H13v1H12v1Z"/><path class="ma177-2" d="M12,26h1V25H12V24H10v1h1v8h1V26Z"/><path class="ma177-3" d="M11,29H10V28h1V25H10v1H9v6h1v1h1V29Z"/><path class="ma177-2" d="M10,26V25H8v1h2Z"/><path class="ma177-2" d="M9,31V27H8v6H9V31Z"/><rect class="ma177-2" x="7" y="26" width="1" height="1"/><path class="ma177-3" d="M7,30H8V27H7v3Z"/><path class="ma177-3" d="M7,31v2H8V31Z"/><path class="ma177-2" d="M7,30V27H6v6H7V30Z"/><path class="ma177-6" d="M10,29h1V28H10Z"/><path class="ma177-6" d="M19,29V28H18v1Z"/><path class="ma177-6" d="M9,27V26H8v1Z"/><path class="ma177-6" d="M19,32v1h1V32Z"/><path class="ma177-6" d="M9,32v1h1V32Z"/><path class="ma177-6" d="M7,31H8V30H7Z"/><path class="ma177-6" d="M21,31h1V30H21Z"/><path class="ma177-6" d="M20,27h1V26H20Z"/><rect class="ma177-2" x="20" y="15" width="1" height="1"/><path class="ma177-2" d="M19,13v2h1V12H19Z"/><path class="ma177-5" d="M10,14h2V13H10Z"/><rect class="ma177-5" x="11" y="10" width="1" height="1"/><path class="ma177-5" d="M18,12v1h1V11H18Z"/><rect class="ma177-5" x="17" y="10" width="1" height="1"/><path class="ma177-5" d="M10,17h1v1h7V17h1V16h1V15H16V14h2V13H16V12h1V11H16V10H13v1H12v2h1v2H9v1h1Zm4-1h1v1H14Z"/><rect class="ma177-5" x="10" y="11" width="1" height="1"/><path class="ma177-2" d="M10,14V12H9v3h1Z"/><rect class="ma177-2" x="8" y="15" width="1" height="1"/><rect class="ma177-2" x="14" y="16" width="1" height="1"/><path class="ma177-7" d="M12,15h1V14H12Z"/><path class="ma177-7" d="M10,14v1h1V14Z"/><path class="ma177-7" d="M18,14v1h1V14Z"/><path class="ma177-7" d="M16,14v1h1V14Z"/><path class="ma177-2" d="M11,14v1h1V14Z"/><path class="ma177-2" d="M17,14v1h1V14Z"/><path class="ma177-8" d="M19,13H18v1h1Z"/><polygon class="ma177-8" points="17 12 16 12 16 13 18 13 18 12 17 12"/><path class="ma177-8" d="M13,14V13H12v1Z"/><path class="ma177-8" d="M10,12v1h2V12H10Z"/><path class="ma177-9" d="M14,23h3V22h1V21h1V20h1V16H19v1H18v1H17v1H16v1H13V19H12V18H11V17H10V16H9v4h1v1h1v1h1v1h2Z"/><path class="ma177-2" d="M12,18v1h1V18Z"/><path class="ma177-2" d="M16,19h1V18H16Z"/><path class="ma177-2" d="M15,20h1V19H15Z"/><path class="ma177-2" d="M15,19V18H14v1Z"/><path class="ma177-2" d="M13,19v1h1V19Z"/><path class="ma177-7" d="M14,18H13v1h1Z"/><path class="ma177-7" d="M15,18v1h1V18Z"/><path class="ma177-10" d="M14,19v1h1V19Z"/><path class="ma177-11" d="M20,12V11H19v1Z"/><rect class="ma177-11" x="18" y="10" width="1" height="1"/><path class="ma177-11" d="M12,11h1V10h3v1h1V10h1V9H11v1h1Z"/><rect class="ma177-11" x="17" y="11" width="1" height="1"/><path class="ma177-11" d="M11,12h1V11H11Z"/><rect class="ma177-11" x="10" y="10" width="1" height="1"/><path class="ma177-11" d="M10,11H9v1h1Z"/></svg>