<svg xmlns="http://www.w3.org/2000/svg" viewBox="0 0 29 33"><defs><style>polygon,rect,path{shape-rendering:crispedges;}.ea229-1{fill:#b4bd09;}.ea229-2{fill:#000000;}.ea229-3{fill:#00e070;}.ea229-4{fill:#e8b795;}.ea229-5{fill:#ffffff;}.ea229-6{fill:#ffffff;}.ea229-7{fill:#fad000;}.ea229-8{fill:#8e4717;}.ea229-9{fill:#34e0cb;}.ea229-10{fill:#0068ff;}</style></defs><path class="ea229-1" d="M6,32V27H7V26H8V25h2V23h1V22h1V21H11V20H9V18H8V13H9V11h1V10h1V9h7v1h1v1h1v1h1v6H20v2H18v1H17v1h1v1h1v2h2v1h1v1h1v6h6V0H0V33H6Z"/><path class="ea229-2" d="M23,27H22v3H21V27H20v6h1V31h1v2h1V27Z"/><rect class="ea229-2" x="21" y="26" width="1" height="1"/><path class="ea229-3" d="M21,28v2h1V27H21Z"/><path class="ea229-4" d="M21,31v2h1V31Z"/><path class="ea229-2" d="M20,26h1V25H19v1Z"/><rect class="ea229-3" x="18" y="29" width="1" height="1"/><path class="ea229-3" d="M19,32V31H18v1H17V29h1V28h1v1h1V27h1V26H19V25H18v1H17v1H16v1H15v1h1v2H15v1H13V27H12V26H11V25H10v1H8v1H9v2h1V28h1v1h1v3H11V31H10v1H9v1H20V32Z"/><rect class="ea229-3" x="10" y="29" width="1" height="1"/><path class="ea229-3" d="M14,30v1h1V29H14Z"/><path class="ea229-4" d="M16,25V23H13v2h3Z"/><path class="ea229-2" d="M10,25H8v1h2Z"/><path class="ea229-2" d="M9,31V27H8v3H7V27H6v6H7V31H8v2H9V31Z"/><rect class="ea229-2" x="7" y="26" width="1" height="1"/><path class="ea229-3" d="M7,30H8V27H7v3Z"/><path class="ea229-4" d="M7,31v2H8V31Z"/><path class="ea229-5" d="M19,30H18V29H17v3h1V31h1v1h1V29H19Z"/><rect class="ea229-5" x="18" y="28" width="1" height="1"/><path class="ea229-5" d="M16,31V29H15v2Z"/><path class="ea229-5" d="M13,32h2V31H14V29h1V28H13Z"/><path class="ea229-5" d="M9,32h1V31h1v1h1V29H11v1H10V29H9v3Z"/><rect class="ea229-5" x="10" y="28" width="1" height="1"/><rect class="ea229-2" x="19" y="14" width="1" height="1"/><rect class="ea229-4" x="17" y="13" width="1" height="1"/><rect class="ea229-4" x="9" y="15" width="1" height="1"/><path class="ea229-4" d="M13,14V13H11v1h2Z"/><path class="ea229-4" d="M14,21V20H13V19H12V18h1v1h3v1H15v1h2V20h1V19h1V18H18V15H16v1H15v1H14V16h1V14h1V13H14v2H13v2H12V15H11v3H10v1h1v1h1v1h2Z"/><rect class="ea229-4" x="19" y="15" width="1" height="1"/><path class="ea229-2" d="M19,16v2h1V16Z"/><path class="ea229-2" d="M18,19v1h1V19Z"/><rect class="ea229-2" x="17" y="20" width="1" height="1"/><rect class="ea229-2" x="11" y="20" width="1" height="1"/><path class="ea229-2" d="M10,19v1h1V19Z"/><path class="ea229-2" d="M10,17V16H9v2h1Z"/><rect class="ea229-2" x="14" y="16" width="1" height="1"/><path class="ea229-6" d="M12,14v1h1V14Z"/><path class="ea229-6" d="M16,14v1h1V14Z"/><path class="ea229-2" d="M11,14v1h1V14Z"/><path class="ea229-2" d="M17,14v1h1V14Z"/><path class="ea229-2" d="M18,25h1V23H18v2Z"/><rect class="ea229-2" x="17" y="25" width="1" height="1"/><path class="ea229-7" d="M17,24v1h1V24Z"/><path class="ea229-6" d="M17,24h1V23H17Z"/><rect class="ea229-2" x="16" y="26" width="1" height="1"/><rect class="ea229-6" x="16" y="25" width="1" height="1"/><rect class="ea229-7" x="15" y="26" width="1" height="1"/><path class="ea229-2" d="M14,27H13v1h3V27H14Z"/><path class="ea229-6" d="M14,27h1V26H14Z"/><rect class="ea229-7" x="13" y="26" width="1" height="1"/><path class="ea229-2" d="M14,26h2V25H13v1Z"/><rect class="ea229-2" x="12" y="26" width="1" height="1"/><rect class="ea229-6" x="12" y="25" width="1" height="1"/><path class="ea229-2" d="M12,24v1h1V23h3v2h1V23h1V22H17V21H16v1H13V21H12v1H11v1h1Z"/><rect class="ea229-2" x="11" y="25" width="1" height="1"/><rect class="ea229-7" x="11" y="24" width="1" height="1"/><rect class="ea229-6" x="11" y="23" width="1" height="1"/><path class="ea229-2" d="M11,24V23H10v2h1Z"/><path class="ea229-8" d="M15,20H14v1H13v1h3V21H15Z"/><polygon class="ea229-2" points="16 20 16 19 13 19 13 20 14 20 15 20 16 20"/><rect class="ea229-2" x="12" y="18" width="1" height="1"/><path class="ea229-9" d="M9,15h1v3h1V13H8v5H9V15Z"/><path class="ea229-9" d="M19,13H18v5h1V14h1v4h1V12H20v1Z"/><path class="ea229-9" d="M19,11V10H18V9H11v1H10v1h9Z"/><path class="ea229-9" d="M13,14v1h1V13H13Z"/><rect class="ea229-9" x="16" y="13" width="1" height="1"/><path class="ea229-9" d="M19,19v1h1V18H19Z"/><path class="ea229-9" d="M15,14v2h1V14Z"/><path class="ea229-9" d="M12,16v1h1V15H12Z"/><path class="ea229-9" d="M10,18H9v2h1V18Z"/><path class="ea229-6" d="M20,12V11H9v1H20Z"/><path class="ea229-10" d="M13,13h7V12H9v1h4Z"/></svg>