<svg xmlns="http://www.w3.org/2000/svg" viewBox="0 0 29 33"><defs><style>polygon,rect,path{shape-rendering:crispedges;}.va113-1{fill:#b4bd09;}.va113-2{fill:#000000;}.va113-3{fill:#99ce09;}.va113-4{fill:#e8b795;}.va113-5{fill:#c4ea3b;}.va113-6{fill:#ffffff;}.va113-7{fill:#326b43;}.va113-8{fill:#893a1f;}.va113-9{fill:#ff1d99;}</style></defs><rect class="va113-1" x="16" y="8" width="1" height="1"/><path class="va113-1" d="M0,33H6V27H7V26H8V25h2V22h1V20H10V19H9V16H8V15H9V10h1V9h1V8h1V9h1V8h3V7h1V8h2V9h1v1H19v1h1v4h1v1H20v3H19v1H18v2h1v3h1V24h1V23h1v1h1v9h6V0H0Z"/><path class="va113-2" d="M23,24H22v9h1V24Z"/><path class="va113-2" d="M7,31V27H6v6H7V31Z"/><rect class="va113-2" x="7" y="26" width="1" height="1"/><path class="va113-3" d="M8,28V27H7v1Z"/><path class="va113-3" d="M7,32v1H8V32Z"/><path class="va113-3" d="M7,30v1H8V29H7Z"/><path class="va113-2" d="M21,31V27H20v4H14V27H13v4H9V27H8v6H9V32H20v1h1V31Z"/><path class="va113-2" d="M10,25H8v1h2Z"/><path class="va113-3" d="M9,32v1h1V32Z"/><path class="va113-3" d="M17,32H15v1h3V32Z"/><path class="va113-3" d="M13,32H11v1h3V32Z"/><path class="va113-3" d="M19,32v1h1V32Z"/><path class="va113-2" d="M11,24V22H10v3h1Z"/><path class="va113-2" d="M12,21H11v1h1Z"/><path class="va113-3" d="M9,27v1h1v1H9v2h1V30h1v1h2V30H12V29H11V28h1V27h2V26H13V24H12V23H11v2h1v1H11v1H10V26H8v1Z"/><path class="va113-2" d="M14,24H13v1h1Z"/><path class="va113-2" d="M15,26V25H14v2h1Z"/><path class="va113-4" d="M14,25h1V24h1V23H13v1h1Z"/><rect class="va113-2" x="15" y="24" width="1" height="1"/><path class="va113-2" d="M17,24V22H16v2Z"/><path class="va113-2" d="M17,22h1V21H17Z"/><path class="va113-2" d="M18,24v1h1V22H18v2Z"/><path class="va113-3" d="M18,27V26H17V25h1V23H17v1H16v2H15v1H14v3h1v1h3V30h1v1h1V29H19V28h1V27H18Zm0,2H17v1H16V29H15V28h1V27h1v1h1Z"/><path class="va113-3" d="M21,30v1h1V29H21Z"/><path class="va113-3" d="M21,32v1h1V32Z"/><path class="va113-3" d="M21,28h1V27H21Z"/><rect class="va113-2" x="20" y="15" width="1" height="1"/><rect class="va113-4" x="12" y="19" width="1" height="1"/><path class="va113-4" d="M13,21h3V20H13Z"/><path class="va113-4" d="M10,17v1h1v1h1V18h1v1h3v1h1V19h1V18h1V16h1V15H16V14h3V13H16V12h2V11H13V10H12v1H11v1H10v1h3v2H9v1h1Zm4-1h1v1H14Z"/><path class="va113-2" d="M13,22H12v2h1V22Z"/><rect class="va113-2" x="8" y="15" width="1" height="1"/><rect class="va113-2" x="14" y="16" width="1" height="1"/><path class="va113-5" d="M10,30v1h1V30Z"/><path class="va113-5" d="M10,32v1h1V32Z"/><path class="va113-5" d="M12,28H11v1h1v1h1V27H12Z"/><polygon class="va113-5" points="10 27 11 27 11 26 12 26 12 25 11 25 10 25 10 26 10 27"/><path class="va113-5" d="M15,26h1V25H15Z"/><path class="va113-5" d="M13,25v1h1V25Z"/><polygon class="va113-5" points="17 27 16 27 16 28 15 28 15 29 16 29 16 30 17 30 17 29 18 29 18 28 17 28 17 27"/><path class="va113-5" d="M17,25v1h1v1h1V25H17Z"/><path class="va113-5" d="M7,29H8V28H7Z"/><path class="va113-5" d="M10,28H9v1h1Z"/><path class="va113-5" d="M21,29h1V28H21Z"/><path class="va113-5" d="M19,29h1V28H19Z"/><path class="va113-5" d="M21,32h1V31H21Z"/><path class="va113-5" d="M7,32H8V31H7Z"/><path class="va113-5" d="M14,30v1h1V30Z"/><path class="va113-5" d="M14,32v1h1V32Z"/><path class="va113-5" d="M18,30v1h1V30Z"/><path class="va113-5" d="M18,32v1h1V32Z"/><path class="va113-5" d="M12,23V22H11v1Z"/><path class="va113-5" d="M17,23h1V22H17Z"/><path class="va113-6" d="M10,14v1h1V14Z"/><path class="va113-6" d="M16,14v1h1V14Z"/><path class="va113-2" d="M11,15h2V14H11Z"/><path class="va113-2" d="M18,14H17v1h3V14H18Z"/><polygon class="va113-7" points="18 12 16 12 16 13 19 13 19 12 18 12"/><path class="va113-7" d="M11,14h2V13H10v1Z"/><path class="va113-8" d="M12,22h1v1h3V22h1V21h1V20h1V19h1V16H19v2H18v1H17v1H16v1H13V20H12V19H11V18H10V16H9v3h1v1h1v1h1Z"/><rect class="va113-2" x="13" y="19" width="3" height="1"/><rect class="va113-2" x="12" y="18" width="1" height="1"/><path class="va113-4" d="M21,27h1V24H21v1H20v2Z"/><path class="va113-2" d="M20,27V25H19v2Z"/><rect class="va113-2" x="20" y="24" width="1" height="1"/><rect class="va113-2" x="21" y="23" width="1" height="1"/><path class="va113-9" d="M10,14V12h1V11h1V10h1v1h5v1h1v2h1V11H19V10h1V9H19V8H17V9H16V8H13V9H12V8H11V9H10v1H9v5h1Z"/><rect class="va113-9" x="16" y="7" width="1" height="1"/></svg>