<svg xmlns="http://www.w3.org/2000/svg" viewBox="0 0 29 33"><defs><style>polygon,rect,path{shape-rendering:crispedges;}.qa22-1{fill:#29834f;}.qa22-2{fill:#000000;}.qa22-3{fill:#ff791f;}.qa22-4{fill:#b2622b;}.qa22-5{fill:#ffffff;}.qa22-6{fill:#7f5018;}.qa22-7{fill:#ff1d99;}.qa22-8{fill:#6d5800;}.qa22-9{fill:#fad000;}.qa22-10{fill:#ea1500;}</style></defs><rect class="qa22-1" x="18" y="19" height="1"/><polygon class="qa22-1" points="15 17 14 17 14 16 14 16 14 17 15 17 15 17"/><path class="qa22-1" d="M0,33H6V27H7V26H8V25h2V24h1V23H10V22h1V20H10V19H9V16H8V15H9V11h1V10h1V9h7v1h1v1h1v4h1v1H20v3H19v1H18v2h1v1H18v1h1v1h2V23h1V22H21V19h1v1h1V18h1V17h3v5H26v1H25v1H24v7H23v1H21v1h8V0H0Z"/><rect class="qa22-1" x="18" y="10" height="1"/><rect class="qa22-1" x="17" y="20" height="1"/><rect class="qa22-1" x="16" y="21" height="1"/><path class="qa22-2" d="M23,25v6h1V24H23Z"/><path class="qa22-2" d="M7,27H6v6H7V27Z"/><path class="qa22-3" d="M8,27H7v6H8V27Z"/><rect class="qa22-2" x="7" y="26" width="1" height="1"/><path class="qa22-2" d="M9,31V27H8v6H9V31Z"/><path class="qa22-3" d="M9,27v2h1V28h1v1h1V25h1V24H11v1H10v1H8v1Z"/><path class="qa22-3" d="M16,25h1v4h1V28h1v1h1V27h1V26H19V25H18V24H16Z"/><rect class="qa22-3" x="18" y="29" width="1" height="1"/><rect class="qa22-3" x="10" y="29" width="1" height="1"/><path class="qa22-3" d="M19,32V31H18v1H17V30H16v1H15v1H13V30H12v2H11V31H10v1H9v1H20V32Z"/><path class="qa22-2" d="M10,25H8v1h2Z"/><rect class="qa22-2" x="10" y="24" width="1" height="1"/><rect class="qa22-2" x="10" y="22" width="1" height="1"/><rect class="qa22-3" x="11" y="22" width="1" height="1"/><path class="qa22-2" d="M13,23h3v1h2V23H17V22h1V20H17v1H16v1H13V21H12V20H11v2h1v1H11v1h2Z"/><path class="qa22-2" d="M16,25V24H13v1h3Z"/><path class="qa22-4" d="M16,24V23H13v1h3Z"/><rect class="qa22-3" x="17" y="22" width="1" height="1"/><rect class="qa22-2" x="18" y="24" width="1" height="1"/><rect class="qa22-2" x="18" y="22" width="1" height="1"/><path class="qa22-2" d="M22,32h1V31H22V23H21v2H19v1h2v1H20v6h1V32Z"/><path class="qa22-3" d="M23,25V24H22v7h1V25Z"/><path class="qa22-3" d="M13,28h2v1h1V25H13v3Z"/><path class="qa22-3" d="M14,29v2h1V29Z"/><path class="qa22-5" d="M19,30H18V29H17v3h1V31h1v1h1V29H19Z"/><rect class="qa22-5" x="18" y="28" width="1" height="1"/><path class="qa22-5" d="M15,29v2h1V29Z"/><path class="qa22-5" d="M14,30V29h1V28H13v4h2V31H14Z"/><path class="qa22-5" d="M11,29v1H10V29H9v3h1V31h1v1h1V29Z"/><rect class="qa22-5" x="10" y="28" width="1" height="1"/><path class="qa22-2" d="M13,27V25H12v5h1V27Z"/><path class="qa22-2" d="M17,28V25H16v5h1V28Z"/><rect class="qa22-4" x="11" y="20"/><polygon class="qa22-4" points="18 14 18 13 18 13 18 14 19 14 19 14 19 14 18 14"/><rect class="qa22-4" x="11" y="10"/><path class="qa22-4" d="M11,20h1v1h1v1h3V21h1V20h1V19h1V16h1V15H18v1H16V15H15V14H14v1H13v1H11V15H9v1h1v3h1Zm3-4h1v1H14Zm-2,2h1v1h3v1H13V19H12Z"/><path class="qa22-4" d="M18,12v1h1V11H18V10H11v1H10v2h1V12h2v1h3V12Z"/><rect class="qa22-4" x="19" y="19"/><rect class="qa22-4" x="10" y="14" width="1"/><rect class="qa22-4" x="19" y="11"/><path class="qa22-2" d="M19,16v3h1V16H19Z"/><polygon class="qa22-2" points="18 19 18 19 18 20 19 20 19 19 19 19 18 19"/><polygon class="qa22-2" points="11 19 10 19 10 20 11 20 11 20 11 19"/><rect class="qa22-2" x="9" y="11" width="1"/><path class="qa22-2" d="M10,16H9v3h1V16Z"/><polygon class="qa22-2" points="15 17 15 17 15 16 14 16 14 16 14 17 15 17"/><polygon class="qa22-6" points="18 14 19 14 19 13 18 13 18 14"/><path class="qa22-6" d="M18,12H16v1h2Z"/><rect class="qa22-6" x="10" y="13" width="1" height="1"/><path class="qa22-6" d="M11,12v1h2V12Z"/><rect class="qa22-2" x="13" y="19" width="3" height="1"/><rect class="qa22-2" x="12" y="18" width="1" height="1"/><path class="qa22-7" d="M19,12v2h1V11H19Z"/><polygon class="qa22-7" points="18 11 19 11 19 11 19 10 18 10 18 11 18 11"/><path class="qa22-7" d="M12,10h6V9H11v1h1Z"/><polygon class="qa22-7" points="11 11 11 10 11 10 10 10 10 11 10 11 11 11"/><path class="qa22-7" d="M10,13V11H9v3h1Z"/><path class="qa22-2" d="M10,15h1v1h2V15h1V14h1v1h1v1h2V15h2v1h1V15H20V11h0v3H18V13H11v1H9v1H8v1H9V15Z"/><path class="qa22-8" d="M21,21v1h1V21Z"/><path class="qa22-9" d="M24,21h1v1H24v1h2V22h1V20H25V19H24V18H23v2H22V19H21v2h1v1h2Z"/><path class="qa22-4" d="M23,24h1V23H22v1Z"/><path class="qa22-8" d="M24,22H22v1h2Z"/><path class="qa22-2" d="M24,24h1V23H24Z"/><rect class="qa22-8" x="24" y="21" width="1" height="1"/><rect class="qa22-2" x="24" y="18" width="1" height="1"/><path class="qa22-10" d="M25,19v1h2V19H25Z"/><path class="qa22-9" d="M25,19h1V18h1V17H24v1h1Z"/><path class="qa22-2" d="M26,19h1V18H26Z"/></svg>