<svg xmlns="http://www.w3.org/2000/svg" viewBox="0 0 29 33"><defs><style>polygon,rect,path{shape-rendering:crispedges;}.ya23-1{fill:#d4a122;}.ya23-2{fill:#000000;}.ya23-3{fill:#ff6c77;}.ya23-4{fill:#a56e49;}.ya23-5{fill:#cc3232;}.ya23-6{fill:#ffffff;}.ya23-7{fill:#317f03;}.ya23-8{fill:#4922aa;}.ya23-9{fill:#c6e5e4;}</style></defs><path class="ya23-1" d="M6,32V27H7V26H8V25h2V24h1V23h1V21H11V20H10V19H9V16H8V15H9V11h1V10h1V9h7v1h1v1h1v4h1v1H20v3H19v1H18v1H17v2h1v1h1v1h2V23h2V22H22V21H21V20h1V19h3v1h1v1H25v1H24v1h1v1H24v7H23v1H21v1h8V0H0V33H6Z"/><path class="ya23-2" d="M23,25v6h1V24H23Z"/><path class="ya23-2" d="M7,30V27H6v6H7V30Z"/><path class="ya23-3" d="M7,31v2H8V31Z"/><path class="ya23-3" d="M7,30H8V27H7v3Z"/><rect class="ya23-2" x="7" y="26" width="1" height="1"/><path class="ya23-2" d="M9,31V27H8v6H9V31Z"/><path class="ya23-3" d="M20,32V26H19V25H18v1H17v1H16V25H15v2H14V25H13v2H12V26H11V25H10v1H9v6h1v1h4V32h1v1h4V32Zm-9-3H10V28h1Zm2,2H12V30h1Zm2,0H14V30h1Zm0-2H14V28h1Zm2,2H16V30h1Zm1-2V28h1v1Z"/><path class="ya23-2" d="M10,26V25H8v1h2Z"/><rect class="ya23-3" x="12" y="24" width="1" height="1"/><path class="ya23-2" d="M11,26h2V25H12V24h1V22H12v1H11v1H10v1h1Z"/><rect class="ya23-2" x="13" y="24" width="1" height="1"/><rect class="ya23-2" x="14" y="32" width="1" height="1"/><rect class="ya23-2" x="14" y="30" width="1" height="1"/><rect class="ya23-2" x="14" y="28" width="1" height="1"/><path class="ya23-2" d="M14,26v1h1V25H14Z"/><rect class="ya23-2" x="15" y="24" width="1" height="1"/><path class="ya23-4" d="M16,24V23H13v1h1v1h1V24Z"/><rect class="ya23-3" x="16" y="24" width="1" height="1"/><path class="ya23-2" d="M22,32h1V31H22V23H21v2H19v1h2v1H20v6h1V32Z"/><path class="ya23-3" d="M22,30v1h1V30Z"/><path class="ya23-3" d="M23,24H22v1h1Z"/><path class="ya23-3" d="M23,28V26H22v3h1Z"/><rect class="ya23-5" x="18" y="28" width="1" height="1"/><rect class="ya23-5" x="16" y="30" width="1" height="1"/><path class="ya23-5" d="M16,27h1V26H16Z"/><rect class="ya23-5" x="12" y="30" width="1" height="1"/><rect class="ya23-5" x="10" y="28" width="1" height="1"/><path class="ya23-5" d="M12,27h1V26H12Z"/><path class="ya23-5" d="M21,27V26H20v1Z"/><path class="ya23-5" d="M9,32v1h1V32Z"/><path class="ya23-5" d="M19,32v1h1V32Z"/><path class="ya23-5" d="M23,29H22v1h1Z"/><path class="ya23-5" d="M23,25H22v1h1Z"/><path class="ya23-5" d="M7,31H8V30H7Z"/><path class="ya23-5" d="M9,27V26H8v1Z"/><rect class="ya23-2" x="20" y="15" width="1" height="1"/><path class="ya23-4" d="M18,16H16V15H15v2H14V15H13v1H11v1H10v1h1v1h1V18h2v1h1V18h2v1h1V18h1V16Z"/><rect class="ya23-4" x="13" y="20" width="1" height="1"/><rect class="ya23-4" x="19" y="15" width="1" height="1"/><rect class="ya23-4" x="9" y="15" width="1" height="1"/><rect class="ya23-4" x="15" y="20" width="1" height="1"/><rect class="ya23-4" x="16" y="13" width="1" height="1"/><path class="ya23-2" d="M19,17h1V16H19Z"/><path class="ya23-2" d="M16,23v1h1v1H16v1h2V25h1V24H18V23H17V22H16Z"/><path class="ya23-2" d="M10,16H9v1h1Z"/><rect class="ya23-2" x="8" y="15" width="1" height="1"/><path class="ya23-2" d="M15,17V16H14v1Z"/><path class="ya23-6" d="M17,16V14H16v2Z"/><path class="ya23-6" d="M19,16V14H18v2Z"/><path class="ya23-2" d="M18,16V14H17v2Z"/><path class="ya23-7" d="M14,18H13v1h1Z"/><path class="ya23-7" d="M13,23h3V22h1V21h1V20h1V19h1V17H19v1H18v1H17V18H15v1h1v2H15V20H14v1H13V19H11V18H10V17H9v2h1v1h1v1h1v1h1Z"/><path class="ya23-2" d="M13,19v1h3V19H13Z"/><path class="ya23-2" d="M12,18v1h1V18Z"/><path class="ya23-8" d="M10,16v1h1V16h2V15h1v1h1V15h1V13h1v1h2v1h1V11H19V10H18V9H11v1H10v1H9v4h1Z"/><path class="ya23-6" d="M25,22V21h1V20H25V19H23v1h1v1H23v1h2Z"/><path class="ya23-9" d="M24,21V20H23V19H22v1H21v1h1v1h1V21Z"/><path class="ya23-9" d="M24,22H23v1h1Z"/><path class="ya23-4" d="M23,24h1V23H22v1Z"/><rect class="ya23-2" x="24" y="23" width="1" height="1"/></svg>