<svg xmlns="http://www.w3.org/2000/svg" viewBox="0 0 29 33"><defs><style>polygon,rect,path{shape-rendering:crispedges;}.ha55-1{fill:#397d98;}.ha55-2{fill:#000000;}.ha55-3{fill:#ffffff;}.ha55-4{fill:#e8b795;}.ha55-5{fill:#00e2b7;}.ha55-6{fill:#ffffff;}.ha55-7{fill:#326b43;}.ha55-8{fill:#cc3232;}.ha55-9{fill:#fad000;}</style></defs><path class="ha55-1" d="M0,33H6V27H7V26H8V25h2V24h2V21H11V20H10V19H9V17H8V15H9V14H8V11H9V10h1V9h2V8h5V9h1v1h1v1h1v4h1v2H20v2H19v1H18v1H17v3h2v1h2v1h1v1h1v6h6V0H0Z"/><path class="ha55-2" d="M23,27H22v6h1V27Z"/><rect class="ha55-2" x="21" y="26" width="1" height="1"/><path class="ha55-3" d="M22,27H21v6h1V27Z"/><path class="ha55-2" d="M21,27H20v6h1V27Z"/><path class="ha55-2" d="M20,26h1V25H19v1Z"/><path class="ha55-3" d="M19,32V31H18v1H17V29h1V28h1v1h1V27h1V26H19V25H17v1H16v1H13V26H12V25H10v1H9v3h1V28h1v1h1v3H11V31H10v1H9v1H20V32Zm-3-2v1H15v1H13V28h2v1h1Z"/><path class="ha55-3" d="M15,29H14v2h1V29Z"/><rect class="ha55-3" x="18" y="29" width="1" height="1"/><rect class="ha55-3" x="10" y="29" width="1" height="1"/><path class="ha55-2" d="M18,25h1V24H17v1Z"/><rect class="ha55-2" x="16" y="25" width="1" height="1"/><path class="ha55-2" d="M13,26v1h3V26H13Z"/><path class="ha55-2" d="M13,23h3v1h1V21H16v1H13V21H12v3h1Z"/><path class="ha55-4" d="M13,25v1h3V25h1V24H16V23H13v1H12v1Z"/><rect class="ha55-2" x="12" y="25" width="1" height="1"/><path class="ha55-2" d="M12,24H10v1h2Z"/><path class="ha55-2" d="M9,31V26h1V25H8v1H7v1H8v6H9V31Z"/><path class="ha55-3" d="M8,27H7v6H8V27Z"/><path class="ha55-2" d="M7,27H6v6H7V27Z"/><path class="ha55-5" d="M19,30H18V29H17v3h1V31h1v1h1V29H19Z"/><rect class="ha55-5" x="18" y="28" width="1" height="1"/><path class="ha55-5" d="M15,30v1h1V29H15Z"/><path class="ha55-5" d="M14,30V29h1V28H13v4h2V31H14Z"/><path class="ha55-5" d="M9,32h1V31h1v1h1V29H11v1H10V29H9v3Z"/><rect class="ha55-5" x="10" y="28" width="1" height="1"/><path class="ha55-2" d="M21,16V15H20v1Z"/><path class="ha55-4" d="M13,22h3V21h1V20h1V19h1V16h1V15H16V14h3V13H16V12h3V11H18V10H14v1H12v1h1v1H10v1h3v1H9v1h1v3h1v1h1v1h1Zm1-6h1v1H14Zm-1,3h3V18h1v1H16v1H13Z"/><path class="ha55-2" d="M19,16v3h1V16Z"/><rect class="ha55-2" x="18" y="19" width="1" height="1"/><rect class="ha55-2" x="17" y="20" width="1" height="1"/><rect class="ha55-2" x="11" y="20" width="1" height="1"/><rect class="ha55-2" x="10" y="19" width="1" height="1"/><path class="ha55-2" d="M10,16H9v3h1V16Z"/><path class="ha55-2" d="M9,15H8v1H9Z"/><rect class="ha55-2" x="14" y="16" width="1" height="1"/><path class="ha55-6" d="M13,15V14H12v1Z"/><path class="ha55-6" d="M11,15V14H10v1Z"/><path class="ha55-6" d="M18,14v1h1V14Z"/><path class="ha55-6" d="M16,14v1h1V14Z"/><path class="ha55-2" d="M12,15V14H11v1Z"/><path class="ha55-2" d="M17,14v1h1V14Z"/><path class="ha55-7" d="M11,13h2V12H11Z"/><rect class="ha55-7" x="16" y="12" width="3" height="1"/><rect class="ha55-2" x="13" y="19" width="3" height="1"/><rect class="ha55-2" x="16" y="18" width="1" height="1"/><path class="ha55-8" d="M19,13v2h1V11H19v2Z"/><rect class="ha55-8" x="18" y="10" width="1" height="1"/><path class="ha55-8" d="M10,14V13h1V12h1V11h2V10h4V9H17V8H12V9H10v1H9v1H8v3H9v1h1Z"/><path class="ha55-9" d="M20,17h1V16H20Z"/><path class="ha55-9" d="M8,16v1H9V16Z"/></svg>