<svg xmlns="http://www.w3.org/2000/svg" viewBox="0 0 29 33"><defs><style>polygon,rect,path{shape-rendering:crispedges;}.eb111-1{fill:#d14646;}.eb111-2{fill:#000000;}.eb111-3{fill:#9b8100;}.eb111-4{fill:#ffffff;}.eb111-5{fill:#b2622b;}.eb111-6{fill:#90a2a3;}.eb111-7{fill:#ffffff;}.eb111-8{fill:#663228;}.eb111-9{fill:#0079bc;}.eb111-10{fill:#00af68;}</style></defs><path class="eb111-1" d="M0,33H6V24H7V23H8v1h2V23h1V22h1V21H11V20H10V19H9V16H8V14H9V12H8v1H7V12H8V11H9V10h1V9h2V8h5V9h2v1h1v1h1v1h1v1H21V12H20v2h1v2H20v3H19v1H18v1H17v1h1v1h1v1h2V23h1v1h1v9h6V0H0Z"/><path class="eb111-2" d="M7,27V24H6v9H7V27Z"/><path class="eb111-3" d="M8,27H7v6H8V27Z"/><path class="eb111-2" d="M9,29h1V28h2V27H8v6H9V29Z"/><path class="eb111-3" d="M12,32V31H11V30H10V29H9v4h4V32Z"/><rect class="eb111-2" x="10" y="23" width="1" height="1"/><path class="eb111-3" d="M10,27h2v1H10v1h1v1h1v1h1V26H12V25H11V24H10v3Z"/><rect class="eb111-3" x="11" y="23" width="1" height="1"/><rect class="eb111-2" x="11" y="24" width="1" height="1"/><rect class="eb111-2" x="10" y="29" width="1" height="1"/><path class="eb111-2" d="M12,24h1V22H11v1h1Z"/><rect class="eb111-2" x="12" y="25" width="1" height="1"/><path class="eb111-4" d="M15,27H14v6h1V27Z"/><path class="eb111-5" d="M17,25V24H16V23H13v1H12v1h1v1h3V25Z"/><rect class="eb111-2" x="16" y="25" width="1" height="1"/><path class="eb111-3" d="M20,29H19v1H18v1H17v1H16v1h4V29Z"/><rect class="eb111-3" x="17" y="23" width="1" height="1"/><rect class="eb111-2" x="17" y="24" width="1" height="1"/><rect class="eb111-2" x="17" y="30" width="1" height="1"/><rect class="eb111-2" x="18" y="23" width="1" height="1"/><path class="eb111-3" d="M18,25H17v1H16v5h1V30h1V29h1V28H17V27h2V24H18Z"/><path class="eb111-2" d="M21,27H17v1h2v1h1v4h1V27Z"/><path class="eb111-3" d="M22,27H21v6h1V27Z"/><path class="eb111-2" d="M23,24H22v9h1V24Z"/><rect class="eb111-2" x="18" y="29" width="1" height="1"/><rect class="eb111-2" x="11" y="30" width="1" height="1"/><path class="eb111-2" d="M17,32V31H16V26H13v5H12v1h1v1h1V27h1v6h1V32Z"/><path class="eb111-6" d="M9,27H9Z"/><path class="eb111-6" d="M19,27h0Z"/><path class="eb111-2" d="M20,16h1V15H20Z"/><rect class="eb111-2" x="19" y="14" width="1" height="1"/><path class="eb111-5" d="M10,17v1h1v1h1v1h1V19h3V18h1v1h1V18h1V16h1V15H16V14h2V13H16V12H15V11H14v1H12v1h1v2H9v1h1Zm4-1h1v1H14Z"/><path class="eb111-5" d="M10,14h2V13H10Z"/><path class="eb111-5" d="M13,21h3V20H13Z"/><rect class="eb111-5" x="16" y="19" width="1" height="1"/><path class="eb111-2" d="M16,23v1h1V23h1V22H16Z"/><path class="eb111-2" d="M10,15h2V14H9v1Z"/><path class="eb111-2" d="M8,15v1H9V15Z"/><rect class="eb111-2" x="14" y="16" width="1" height="1"/><path class="eb111-7" d="M18,14v1h1V14Z"/><path class="eb111-7" d="M12,15h1V14H12Z"/><path class="eb111-2" d="M17,14H16v1h2V14Z"/><rect class="eb111-8" x="18" y="13" width="1" height="1"/><path class="eb111-8" d="M16,12v1h1V12Z"/><path class="eb111-8" d="M13,14V13H12v1Z"/><path class="eb111-9" d="M13,23h3V22h1V21h1V20h1V19h1V16H19v2H18v1H17v1H16v1H13V20H12V19H11V18H10V16H9v3h1v1h1v1h1v1h1Z"/><rect class="eb111-2" x="13" y="19" width="3" height="1"/><rect class="eb111-2" x="16" y="18" width="1" height="1"/><path class="eb111-5" d="M20,25v2h2V24H21v1Z"/><path class="eb111-2" d="M19,27h1V25h1V24H19v3Z"/><rect class="eb111-2" x="21" y="22.999" width="1" height="1"/><path class="eb111-5" d="M7,27H9V25H8V24H7v3Z"/><path class="eb111-2" d="M9,25v2h1V24H8v1Z"/><rect class="eb111-2" x="7" y="22.999" width="1" height="1"/><rect class="eb111-10" x="21" y="12" width="1" height="1"/><path class="eb111-10" d="M10,13h2V12h2V11h1v1h2v1h2v1h1V12h1V11H20V10H19V9H17V8H12V9H10v1H9v1H8v1H9v2h1Z"/><path class="eb111-10" d="M21,15V14H20v1Z"/><path class="eb111-10" d="M9,14H8v1H9Z"/><rect class="eb111-10" x="7" y="12" width="1" height="1"/></svg>