<svg xmlns="http://www.w3.org/2000/svg" viewBox="0 0 29 33"><defs><style>polygon,rect,path{shape-rendering:crispedges;}.pa260-1{fill:#7a982c;}.pa260-2{fill:#000000;}.pa260-3{fill:#333333;}.pa260-4{fill:#c18d59;}.pa260-5{fill:#333333;}.pa260-6{fill:#473a35;}.pa260-7{fill:#ffffff;}.pa260-8{fill:#fad000;}.pa260-9{fill:#473a35;}.pa260-10{fill:#6e12ff;}</style></defs><path class="pa260-1" d="M0,33H6V27H7V26H8V25h2V24h1V23H10V22h1V21H10V20H9V16H8V14H9V12H8v1H7V12H8V11H9V10h1V9h2V8h5V9h2v1h1v1h1v1h1v1H21V12H20v2h1v2H20v4H19v1H18v1h1v1H18v1h1v1h2v1h1v1h1v6h6V0H0Z"/><path class="pa260-2" d="M23,27H22v6h1V27Z"/><path class="pa260-3" d="M22,27H21v6h1V27Z"/><rect class="pa260-2" x="21" y="26" width="1" height="1"/><path class="pa260-2" d="M21,27H20v6h1V27Z"/><path class="pa260-3" d="M10,30h1V29h1V27H11V26H8v1H9v6h1V30Z"/><path class="pa260-3" d="M20,27h1V26H18v1H17v2h1v1h1v3h1V27Z"/><rect class="pa260-2" x="18" y="22" width="1" height="1"/><rect class="pa260-3" x="17" y="22" width="1" height="1"/><path class="pa260-4" d="M16,24V23H13v1h3Z"/><rect class="pa260-3" x="11" y="22" width="1" height="1"/><rect class="pa260-2" x="10" y="22" width="1" height="1"/><path class="pa260-2" d="M11,26V24H10v1H8v1h3Z"/><path class="pa260-2" d="M9,27H8v6H9V27Z"/><path class="pa260-3" d="M8,27H7v6H8V27Z"/><rect class="pa260-2" x="7" y="26" width="1" height="1"/><path class="pa260-2" d="M7,27H6v6H7V27Z"/><path class="pa260-3" d="M16,32H12v1h5V32Z"/><rect class="pa260-3" x="13" y="25" width="1" height="1"/><rect class="pa260-3" x="15" y="25" width="1" height="1"/><rect class="pa260-3" x="16" y="30" width="1" height="1"/><rect class="pa260-3" x="12" y="30" width="1" height="1"/><path class="pa260-5" d="M19,30H18V29H17v2H16V30H15v1H14V30H13v1H12V29H11v1H10v3h2V32h5v1h2V30Z"/><path class="pa260-2" d="M20,16h1V15H20Z"/><rect class="pa260-2" x="19" y="14" width="1" height="1"/><path class="pa260-4" d="M10,17v1h1v2h1v1h1v1h3V21h1V20h1V18h1V16h1V15H19V13H17v1h1v1H16v1H15v1H14V16H13V15H11V14h1V13H10v2H9v1h1Zm3,2h3v1H13Z"/><path class="pa260-2" d="M19,17h1V16H19Z"/><path class="pa260-2" d="M10,15V14H9v1Z"/><path class="pa260-2" d="M10,16H9v1h1Z"/><path class="pa260-2" d="M8,15v1H9V15Z"/><path class="pa260-6" d="M18,15V14H17v1Z"/><rect class="pa260-6" x="16" y="13" width="1" height="1"/><rect class="pa260-2" x="14" y="14" width="1" height="1"/><path class="pa260-7" d="M16,13H13v1H12v1h1v1h3V15h1V14H16Zm-1,2H14V14h1Z"/><path class="pa260-6" d="M14,13h2V12H13v1Z"/><rect class="pa260-6" x="12" y="13" width="1" height="1"/><path class="pa260-6" d="M11,14v1h1V14Z"/><path class="pa260-2" d="M14,17h1V16H14Z"/><path class="pa260-4" d="M15,11H14v1h1Z"/><rect class="pa260-4" x="12" y="12" width="1" height="1"/><rect class="pa260-4" x="16" y="12" width="1" height="1"/><rect class="pa260-2" x="14" y="30" width="1" height="1"/><path class="pa260-2" d="M16,28H15v2h2V27H16Z"/><path class="pa260-2" d="M13,28V27H12v3h2V28Z"/><rect class="pa260-2" x="17" y="26" width="1" height="1"/><rect class="pa260-2" x="11" y="26" width="1" height="1"/><rect class="pa260-2" x="13" y="26" width="1" height="1"/><rect class="pa260-2" x="15" y="26" width="1" height="1"/><path class="pa260-2" d="M12,25v1h1V25h1v1h1V25h1v1h1V24h1V23H17V22h1V21H16v1H13V21H11v1h1v1H11v1h1Zm1-2h3v1H13Z"/><rect class="pa260-8" x="16" y="26" width="1" height="1"/><path class="pa260-8" d="M16,28V27H15V26H14v1H13v1h1v2h1V28Z"/><rect class="pa260-8" x="12" y="26" width="1" height="1"/><path class="pa260-8" d="M12,26V24H11v2Z"/><path class="pa260-8" d="M17,25v1h1V24H17Z"/><path class="pa260-2" d="M21,26V25H19V24H18v2Z"/><path class="pa260-9" d="M19,18H18v2H17v1h2V20h1V17H19Z"/><path class="pa260-9" d="M12,20H11V18H10V17H9v3h1v1h2Z"/><rect class="pa260-2" x="13" y="19" width="3" height="1"/><rect class="pa260-10" x="21" y="12" width="1" height="1"/><path class="pa260-10" d="M10,13h2V12h2V11h1v1h2v1h2v1h1V12h1V11H20V10H19V9H17V8H12V9H10v1H9v1H8v1H9v2h1Z"/><path class="pa260-10" d="M21,15V14H20v1Z"/><path class="pa260-10" d="M9,14H8v1H9Z"/><rect class="pa260-10" x="7" y="12" width="1" height="1"/></svg>