<svg xmlns="http://www.w3.org/2000/svg" viewBox="0 0 29 33"><defs><style>polygon,rect,path{shape-rendering:crispedges;}.ta61-1{fill:#397d98;}.ta61-2{fill:#000000;}.ta61-3{fill:#6f7032;}.ta61-4{fill:#efcaaf;}.ta61-5{fill:#a7af69;}.ta61-6{fill:#663434;}.ta61-7{fill:#ffffff;}.ta61-8{fill:#663434;}.ta61-9{fill:#455054;}.ta61-10{fill:#ff1f4a;}</style></defs><rect class="ta61-1" x="8" y="21" width="1" height="1"/><path class="ta61-1" d="M11,24V23H10V22H9v2H8v1h2V24Z"/><path class="ta61-2" d="M6,24V22H5v9H6V24Z"/><path class="ta61-2" d="M23,27H22v6h1V27Z"/><path class="ta61-3" d="M22,27H21v6h1V27Z"/><rect class="ta61-2" x="21" y="26" width="1" height="1"/><path class="ta61-2" d="M21,27H20v6h1V27Z"/><rect class="ta61-3" x="18" y="29" width="1" height="1"/><rect class="ta61-3" x="10" y="29" width="1" height="1"/><path class="ta61-3" d="M16,25h1v4h1V28h1v1h1V27h1V26H19V25H18V24H16Z"/><path class="ta61-3" d="M10,28h1v1h1V25h1V24H11v1H10v1H8v1H9v2h1Z"/><path class="ta61-3" d="M19,32V31H18v1H17V30H16v1H15v1H13V30H12v2H11V31H10v1H9v1H20V32Z"/><path class="ta61-2" d="M20,26h1V25H19v1Z"/><rect class="ta61-2" x="18" y="24" width="1" height="1"/><path class="ta61-2" d="M16,24h2V23H16Z"/><path class="ta61-2" d="M13,24v1h3V24H13Z"/><path class="ta61-4" d="M13,23v1h3V23H13Z"/><path class="ta61-2" d="M12,23H11v1h2V23Z"/><rect class="ta61-2" x="10" y="24" width="1" height="1"/><path class="ta61-2" d="M9,31V27H8V26h2V25H8V24H7v7H6v1H8v1H9V31Z"/><path class="ta61-3" d="M7,30V24H6v7H7Z"/><path class="ta61-3" d="M13,25v3h2v1h1V25H13Z"/><path class="ta61-3" d="M14,29v2h1V29Z"/><path class="ta61-5" d="M19,30H18V29H17v3h1V31h1v1h1V29H19Z"/><rect class="ta61-5" x="18" y="28" width="1" height="1"/><path class="ta61-5" d="M15,29v2h1V29Z"/><path class="ta61-5" d="M14,30V29h1V28H13v4h2V31H14Z"/><path class="ta61-5" d="M11,29v1H10V29H9v3h1V31h1v1h1V29Z"/><rect class="ta61-5" x="10" y="28" width="1" height="1"/><path class="ta61-2" d="M13,25H12v5h1V25Z"/><path class="ta61-2" d="M17,28V25H16v5h1V28Z"/><rect class="ta61-6" x="17" y="14" width="1" height="1"/><rect class="ta61-6" x="16" y="13" width="1" height="1"/><rect class="ta61-2" x="14" y="14" width="1" height="1"/><path class="ta61-7" d="M13,15v1h3V15h1V14H16V13H13v1H12v1Zm1-1h1v1H14Z"/><path class="ta61-6" d="M16,13V12H13v1h3Z"/><rect class="ta61-6" x="12" y="13" width="1" height="1"/><rect class="ta61-6" x="11" y="14" width="1" height="1"/><path class="ta61-2" d="M14,17h1V16H14Z"/><path class="ta61-4" d="M10,15v3h1v1h1v2h1v1h3V21h1V19H16v1H13V19h3V18h1v1h1V18h1V12H17V11H12v1H10v3Zm1-1h1V13h1V12h3v1h1v1h1v1H16v1H15v1H14V16H13V15H11Z"/><path class="ta61-3" d="M8,15v4H9V12h1V11h2V10h5v1h2v1h1v7h1V11H20V10H19V9H18V8H11V9H10v1H9v1H8v4Z"/><path class="ta61-3" d="M18,21H17v1H16v1h2V22h1V21Z"/><path class="ta61-3" d="M13,23V22H12V21H10v1h1v1h2Z"/><rect class="ta61-2" x="10" y="8" width="1" height="1"/><rect class="ta61-2" x="9" y="9" width="1" height="1"/><rect class="ta61-2" x="8" y="10" width="1" height="1"/><path class="ta61-2" d="M8,15V11H7v5H8Z"/><rect class="ta61-2" x="8" y="20" width="1" height="1"/><rect class="ta61-2" x="9" y="21" width="1" height="1"/><rect class="ta61-2" x="10" y="22" width="1" height="1"/><rect class="ta61-2" x="18" y="22" width="1" height="1"/><rect class="ta61-2" x="19" y="21" width="1" height="1"/><rect class="ta61-2" x="20" y="20" width="1" height="1"/><path class="ta61-2" d="M21,19v1h1V11H21v8Z"/><rect class="ta61-2" x="20" y="10" width="1" height="1"/><rect class="ta61-2" x="19" y="9" width="1" height="1"/><rect class="ta61-2" x="18" y="8" width="1" height="1"/><path class="ta61-2" d="M18,8V7H11V8h7Z"/><path class="ta61-2" d="M12,11H10v1h2Z"/><path class="ta61-2" d="M10,15V12H9v4h1Z"/><path class="ta61-2" d="M12,20H11v1h1Z"/><rect class="ta61-2" x="12" y="21" width="1" height="1"/><path class="ta61-2" d="M13,22v1h3V22H13Z"/><rect class="ta61-2" x="16" y="21" width="1" height="1"/><path class="ta61-2" d="M18,21V20H17v1Z"/><path class="ta61-2" d="M19,16h1V12H19v4Z"/><path class="ta61-2" d="M18,12h1V11H17v1Z"/><path class="ta61-2" d="M17,11V10H12v1h5Z"/><path class="ta61-1" d="M0,7V33H8V32H6V31H5V22H6V21H7V20H5v1H2V17H5V16H7V11H8V10H9V9h1V8h1V7h7V8h1V9h1v1h1v1h1v9H21v1H20v1H19v1H18v1h1v1h2v1h1v1h1v6h6V0H0Z"/><path class="ta61-8" d="M20,19V16H19v2H18v1H17v1h1v1h2V20h1V19Z"/><path class="ta61-8" d="M9,21h2V20h1V19H11V18H10V16H9v3H8v1H9Z"/><rect class="ta61-2" x="13" y="19" width="3" height="1"/><rect class="ta61-2" x="16" y="18" width="1" height="1"/><path class="ta61-4" d="M7,24H8V22H6v2Z"/><path class="ta61-9" d="M8,22V20H7v2Z"/><path class="ta61-2" d="M7,21H6v1H7Z"/><path class="ta61-2" d="M9,22H8v2H9Z"/><path class="ta61-10" d="M5,17H2v1H5Z"/><path class="ta61-10" d="M6,16H5v1H6Z"/><path class="ta61-10" d="M8,17V16H7v1Z"/><path class="ta61-10" d="M5,18v1H2v2H5V20H6V18Z"/><path class="ta61-10" d="M8,19V18H7v2H8Z"/><path class="ta61-7" d="M8,18V17H7V16H6v1H5v1H6v2H7V18Z"/><path class="ta61-7" d="M5,19V18H2v1H5Z"/></svg>