<svg xmlns="http://www.w3.org/2000/svg" viewBox="0 0 29 33"><defs><style>polygon,rect,path{shape-rendering:crispedges;}.ea124-1{fill:#31a09d;}.ea124-2{fill:#000000;}.ea124-3{fill:#e8b795;}.ea124-4{fill:#002b4f;}.ea124-5{fill:#002b4f;}.ea124-6{fill:#ffffff;}.ea124-7{fill:#7f5018;}.ea124-8{fill:#316a6d;}.ea124-9{fill:#34e0cb;}.ea124-10{fill:#c9936f;}.ea124-11{fill:#e8b592;}.ea124-12{fill:#9b005c;}.ea124-13{fill:#fad000;}.ea124-14{fill:#ff1d99;}</style></defs><path class="ea124-1" d="M0,33H6V27H7V26H8V25h2V24h2V21H11V20H10V19H9V16H8V15H9V13H8V9H9V8h1V7h1V6h7V7h1V8h1V9h1v4H20v2h1v1h1v1h1V16h1v2h1v5H24v8H23v1H21v1h8V0H0Z"/><path class="ea124-1" d="M20,17v1h1V16H20Z"/><path class="ea124-1" d="M20,23V19H19v1H18v1H17v3h2v1h2V23Z"/><rect class="ea124-2" x="7" y="26" width="1" height="1"/><path class="ea124-2" d="M9,31V27H8v3H7V27H6v6H7V31H8v2H9V31Z"/><path class="ea124-2" d="M10,25H8v1h2Z"/><path class="ea124-2" d="M12,24H10v1h2Z"/><path class="ea124-2" d="M13,23V22H12v2h1Z"/><path class="ea124-2" d="M18,24H17v1h2V24Z"/><path class="ea124-2" d="M22,32h1V31H22V25H19v1h2v1H20v6h1V32Z"/><path class="ea124-2" d="M23,26v5h1V25H23Z"/><path class="ea124-3" d="M23,26V25H22v6h1V26Z"/><rect class="ea124-4" x="10" y="29" width="1" height="1"/><rect class="ea124-4" x="18" y="29" width="1" height="1"/><path class="ea124-4" d="M15,29H14v2h1V29Z"/><path class="ea124-4" d="M19,32V31H18v1H17V29h1V28h1v1h1V27h1V26H19V25H17v1H16v1H13V26H12V25H10v1H8v1H9v2h1V28h1v1h1v3H11V31H10v1H9v1H20V32Zm-3-2v1H15v1H13V28h2v1h1Z"/><path class="ea124-2" d="M13,26v1h3V26H13Z"/><path class="ea124-3" d="M13,25v1h3V25h1V24H16V23H13v1H12v1Z"/><path class="ea124-4" d="M7,30H8V27H7v3Z"/><path class="ea124-3" d="M7,31v2H8V31Z"/><rect class="ea124-2" x="16" y="25" width="1" height="1"/><rect class="ea124-2" x="12" y="25" width="1" height="1"/><path class="ea124-5" d="M19,30H18V29H17v3h1V31h1v1h1V29H19Z"/><rect class="ea124-5" x="18" y="28" width="1" height="1"/><path class="ea124-5" d="M15,30v1h1V29H15Z"/><path class="ea124-5" d="M14,30V29h1V28H13v4h2V31H14Z"/><path class="ea124-5" d="M9,32h1V31h1v1h1V29H11v1H10V29H9v3Z"/><rect class="ea124-5" x="10" y="28" width="1" height="1"/><rect class="ea124-2" x="20" y="15" width="1" height="1"/><path class="ea124-2" d="M19,15h1V14H19Z"/><path class="ea124-3" d="M10,17v1h1v1h1V18h1v1h3v1h1V19h1V18h1V16h1V15H16V13h1V12h1V11H11v1h2v1H11v1h2v1H9v1h1Zm4-1h1v1H14Z"/><rect class="ea124-3" x="12" y="19" width="1" height="1"/><polygon class="ea124-3" points="18 14 19 14 19 13 17 13 17 14 18 14"/><rect class="ea124-3" x="10" y="12" width="1" height="1"/><path class="ea124-3" d="M13,21h3V20H13Z"/><path class="ea124-2" d="M16,22v2h1V22Z"/><path class="ea124-2" d="M10,14H9v1h1Z"/><rect class="ea124-2" x="8" y="15" width="1" height="1"/><rect class="ea124-2" x="14" y="16" width="1" height="1"/><path class="ea124-6" d="M13,15V14H12v1Z"/><path class="ea124-6" d="M10,15h1V14H10Z"/><path class="ea124-6" d="M18,14v1h1V14Z"/><path class="ea124-6" d="M16,14v1h1V14Z"/><path class="ea124-2" d="M12,15V14H11v1Z"/><path class="ea124-2" d="M17,14v1h1V14Z"/><rect class="ea124-7" x="10" y="13" width="1" height="1"/><rect class="ea124-7" x="11" y="12" width="2" height="1"/><path class="ea124-7" d="M17,13H16v1h1Z"/><path class="ea124-7" d="M19,12H17v1h2Z"/><path class="ea124-8" d="M13,23h3V22h1V21h1V20h1V19h1V16H19v2H18v1H17v1H16v1H13V20H12V19H11V18H10V16H9v3h1v1h1v1h1v1h1Z"/><rect class="ea124-2" x="13" y="19" width="3" height="1"/><rect class="ea124-2" x="12" y="18" width="1" height="1"/><path class="ea124-9" d="M10,13V12h1V11h7v1h1v2h1V13h1V9H20V8H19V7H18V6H11V7H10V8H9V9H8v4H9v1h1Z"/><path class="ea124-10" d="M21,23V22H20v1Z"/><path class="ea124-10" d="M24,22.111V23h1V22H24Z"/><rect class="ea124-2" x="21" y="19" width="1" height="1"/><rect class="ea124-2" x="23" y="19" width="1" height="1"/><path class="ea124-11" d="M24,22H21v1h3V22Z"/><path class="ea124-11" d="M24,21V20H23V19H22v1H21v1h3Z"/><path class="ea124-12" d="M21,23v2h3V23H21Z"/><path class="ea124-6" d="M22,18h2V16H23v1H22V16H21v2Z"/><path class="ea124-13" d="M21,18H20v4h1V19h3v3h1V18H21Z"/><path class="ea124-14" d="M24,22V21H21v1h3Z"/></svg>