<svg xmlns="http://www.w3.org/2000/svg" viewBox="0 0 29 33"><defs><style>polygon,rect,path{shape-rendering:crispedges;}.la130-1{fill:#7a982c;}.la130-2{fill:#000000;}.la130-3{fill:#cc2f76;}.la130-4{fill:#003b3f;}.la130-5{fill:#efcaaf;}.la130-6{fill:#ffffff;}.la130-7{fill:#990000;}.la130-8{fill:#ff791f;}.la130-9{fill:#6d5800;}.la130-10{fill:#fad000;}.la130-11{fill:#ea1500;}</style></defs><path class="la130-1" d="M0,33H6V27H7V26H8V25h2V24h2V21H11V20H9V19H8V11H9V10h1V9h1V8h7V9h1v1h1v1h1v8h1v1h1V18h1V17h3v5H26v1H25v1H24v7H23v1H21v1h8V0H0Z"/><path class="la130-1" d="M20,20H18v1H17v3h2v1h2V23h1V22H21V19H20Z"/><path class="la130-2" d="M23,25v6h1V24H23Z"/><path class="la130-3" d="M23,27H22v1h1Z"/><path class="la130-3" d="M22,30v1h1V30Z"/><rect class="la130-3" x="22" y="24" width="1" height="1"/><path class="la130-2" d="M22,32h1V31H22V23H21v2H19v1h2v1H20v6h1V32Z"/><path class="la130-3" d="M9,27v1H20V27H9Z"/><path class="la130-3" d="M9,31H20V30H9Z"/><path class="la130-3" d="M17,25V24H12v1Z"/><path class="la130-2" d="M18,24H17v1h2V24Z"/><path class="la130-2" d="M13,23h3v1h1V21H16v1H13V21H12v3h1Z"/><path class="la130-2" d="M12,24H10v1h2Z"/><path class="la130-2" d="M10,25H8v1h2Z"/><path class="la130-2" d="M9,30V27H8v6H9V30Z"/><rect class="la130-2" x="7" y="26" width="1" height="1"/><path class="la130-3" d="M7,31H8V30H7Z"/><path class="la130-3" d="M8,28V27H7v1Z"/><path class="la130-2" d="M7,30V27H6v6H7V30Z"/><path class="la130-4" d="M9,31v2H20V31Z"/><path class="la130-4" d="M9,29v1H20V28H9Z"/><path class="la130-4" d="M9,27H21V26H19V25H10v1H8v1Z"/><path class="la130-4" d="M15,23H13v1h3V23Z"/><path class="la130-4" d="M23,29V28H22v2h1Z"/><path class="la130-4" d="M23,26V25H22v2h1Z"/><path class="la130-4" d="M7,31v2H8V31Z"/><path class="la130-4" d="M7,29v1H8V28H7Z"/><path class="la130-5" d="M13,22h3V21h1V20h1V19h1V16h1V15H16V13h1V11H15V10H14v1H13v2H11v1h2v1H9v1h1v3h1v1h1v1h1Zm1-6h1v1H14Zm-2,3V18h5v1H16v1H13V19Z"/><path class="la130-5" d="M18,14h1V13H17v1Z"/><path class="la130-2" d="M20,18V16H19v3h1Z"/><path class="la130-2" d="M19,19H18v1h1Z"/><rect class="la130-2" x="17" y="20" width="1" height="1"/><rect class="la130-2" x="11" y="20" width="1" height="1"/><path class="la130-2" d="M10,19v1h1V19Z"/><path class="la130-2" d="M10,18V16H9v3h1Z"/><rect class="la130-2" x="14" y="16" width="1" height="1"/><path class="la130-6" d="M13,15V14H12v1Z"/><path class="la130-6" d="M10,15h1V14H10Z"/><path class="la130-6" d="M18,14v1h1V14Z"/><path class="la130-6" d="M16,14v1h1V14Z"/><path class="la130-2" d="M12,15V14H11v1Z"/><path class="la130-2" d="M17,14v1h1V14Z"/><path class="la130-7" d="M12,13h1V12H12Z"/><path class="la130-7" d="M17,13H16v1h1Z"/><polygon class="la130-2" points="13 20 16 20 16 19 17 19 17 18 12 18 12 19 13 19 13 20"/><path class="la130-8" d="M9,16V15h1V14h1V13h1V12h1V11h1V10h1v1h2v2h2v2h1v4h1V11H20V10H19V9H18V8H11V9H10v1H9v1H8v8H9V16Z"/><path class="la130-8" d="M9,19v1h1V19Z"/><path class="la130-8" d="M20,20V19H19v1Z"/><path class="la130-9" d="M21,21v1h1V21Z"/><path class="la130-10" d="M22,21v1h2V21h1v1H24v1h2V22h1V20H25V19H24V18H23v2H22V19H21v2Z"/><path class="la130-5" d="M23,23H22v1h2V23Z"/><path class="la130-9" d="M24,23V22H22v1h2Z"/><path class="la130-2" d="M24,24h1V23H24Z"/><rect class="la130-9" x="24" y="21" width="1" height="1"/><rect class="la130-2" x="24" y="18" width="1" height="1"/><path class="la130-11" d="M25,19v1h2V19H25Z"/><path class="la130-10" d="M25,19h1V18h1V17H24v1h1Z"/><path class="la130-2" d="M26,19h1V18H26Z"/></svg>