<svg xmlns="http://www.w3.org/2000/svg" viewBox="0 0 29 33"><defs><style>polygon,rect,path{shape-rendering:crispedges;}.xa170-1{fill:#e55b35;}.xa170-2{fill:#000000;}.xa170-3{fill:#c5e2d0;}.xa170-4{fill:#c18d59;}.xa170-5{fill:#00686d;}.xa170-6{fill:#ffffff;}.xa170-7{fill:#8e4717;}.xa170-8{fill:#00e2b7;}</style></defs><path class="xa170-1" d="M10,22H9v1H8v2h2V22Z"/><path class="xa170-1" d="M0,33H8V32H6V31H5V23H4V20H5V19H8V12H9V10h1V9h1V8h7V9h1v1h1v2h1v7h1v1H21v1H20v1H19v3h2v1h1v1h1v6h6V0H0Z"/><rect class="xa170-1" x="10" y="21" width="1" height="1"/><rect class="xa170-1" x="18" y="21" width="1" height="1"/><path class="xa170-2" d="M6,29V23H5v8H6V29Z"/><path class="xa170-2" d="M23,27H22v6h1V27Z"/><path class="xa170-3" d="M21,28h1V27H21Z"/><path class="xa170-3" d="M21,30v1h1V29H21Z"/><path class="xa170-3" d="M21,32v1h1V32Z"/><rect class="xa170-2" x="21" y="26" width="1" height="1"/><path class="xa170-2" d="M21,31V27H20v4H14V27H13v4H9V27H8V26h2V25H8V23H7v8H6v1H8v1H9V32H20v1h1V31Z"/><path class="xa170-3" d="M19,32v1h1V32Z"/><path class="xa170-3" d="M13,32H11v1h3V32Z"/><path class="xa170-3" d="M17,32H15v1h3V32Z"/><path class="xa170-3" d="M9,32v1h1V32Z"/><path class="xa170-2" d="M20,26h1V25H19v1Z"/><path class="xa170-2" d="M18,23v2h1V22H18Z"/><path class="xa170-3" d="M19,26v1H18V26H17V25h1V23H17v1H16v2H15v1H14v3h1v1h3V30h1v1h1V29H19V28h1V27h1V26H19Zm-1,3H17v1H16V29H15V28h1V27h1v1h1Z"/><path class="xa170-2" d="M15,25h1V24H15Z"/><path class="xa170-2" d="M15,26V25H14v2h1Z"/><rect class="xa170-2" x="13" y="24" width="1" height="1"/><path class="xa170-4" d="M15,23H13v1h1v1h1V24h1V23Z"/><path class="xa170-2" d="M11,24V22H10v3h1Z"/><path class="xa170-3" d="M13,26V24H12V23H11v2h1v1H11v1H10V26H8v1H9v1h1v1H9v2h1V30h1v1h2V30H12V29H11V28h1V27h2V26Z"/><path class="xa170-3" d="M6,28v2H7V27H6Z"/><path class="xa170-2" d="M20,16h1V15H20Z"/><rect class="xa170-2" x="19" y="14" width="1" height="1"/><path class="xa170-4" d="M12,21h1v1h3V21h1V20h1V19h1V16h1V15H16V13h1V11H16V10H13v1H12v1h1v1H11v1h2v1H9v1h1v3h1v1h1Zm2-5h1v1H14Zm-2,2h1v1h3v1H13V19H12Z"/><rect class="xa170-4" x="17" y="13" width="1" height="1"/><path class="xa170-2" d="M19,17v2h1V16H19Z"/><rect class="xa170-2" x="18" y="19" width="1" height="1"/><rect class="xa170-2" x="17" y="20" width="1" height="1"/><path class="xa170-2" d="M17,21H16v1H13V21H12v3h1V23h3v1h1V21Z"/><rect class="xa170-2" x="11" y="20" width="1" height="1"/><rect class="xa170-2" x="10" y="19" width="1" height="1"/><path class="xa170-2" d="M10,14H9v1h1Z"/><path class="xa170-2" d="M10,16H9v3h1V16Z"/><path class="xa170-2" d="M9,15H8v1H9Z"/><rect class="xa170-2" x="14" y="16" width="1" height="1"/><path class="xa170-5" d="M10,32v1h1V32Z"/><path class="xa170-5" d="M10,30v1h1V30Z"/><path class="xa170-5" d="M10,28H9v1h1Z"/><path class="xa170-5" d="M7,30H6v1H7Z"/><path class="xa170-5" d="M6,25v2H7V24H6Z"/><path class="xa170-5" d="M12,28H11v1h1v1h1V27H12Z"/><polygon class="xa170-5" points="11 27 11 26 12 26 12 25 11 25 10 25 10 26 10 27 11 27"/><path class="xa170-5" d="M13,26h1V25H13Z"/><path class="xa170-5" d="M15,26h1V25H15Z"/><polygon class="xa170-5" points="17 27 16 27 16 28 15 28 15 29 16 29 16 30 17 30 17 29 18 29 18 28 17 28 17 27"/><polygon class="xa170-5" points="17 25 17 26 18 26 18 27 19 27 19 26 19 25 18 25 17 25"/><path class="xa170-5" d="M21,29h1V28H21Z"/><path class="xa170-5" d="M19,29h1V28H19Z"/><path class="xa170-5" d="M21,32h1V31H21Z"/><path class="xa170-5" d="M14,30v1h1V30Z"/><path class="xa170-5" d="M14,32v1h1V32Z"/><path class="xa170-5" d="M18,30v1h1V30Z"/><path class="xa170-5" d="M18,32v1h1V32Z"/><path class="xa170-5" d="M11,22v1h1V22Z"/><path class="xa170-5" d="M17,23h1V22H17Z"/><path class="xa170-6" d="M13,15V14H12v1Z"/><path class="xa170-6" d="M11,15V14H10v1Z"/><path class="xa170-6" d="M19,15V14H18v1Z"/><path class="xa170-6" d="M16,14v1h1V14Z"/><path class="xa170-2" d="M12,15V14H11v1Z"/><path class="xa170-2" d="M17,15h1V14H17Z"/><path class="xa170-7" d="M13,12H11v1h2Z"/><path class="xa170-7" d="M17,13H16v1h1Z"/><path class="xa170-7" d="M18,13V12H17v1Z"/><rect class="xa170-2" x="13" y="19" width="3" height="1"/><rect class="xa170-2" x="12" y="18" width="1" height="1"/><path class="xa170-2" d="M9,22V21H8v2H9Z"/><rect class="xa170-2" x="7" y="20" width="1" height="1"/><path class="xa170-2" d="M7,19H5v1H7Z"/><path class="xa170-2" d="M5,20H4v3H5V20Z"/><path class="xa170-4" d="M6,24H7V23H8V21H7V20H5v3H6Z"/><path class="xa170-8" d="M20,17v2H19v1H18v1h1v1h1V21h1V20h1V19H21V16H20Z"/><path class="xa170-8" d="M9,14h2V12h1V11h1V10h3v1h1v1h1v2h2v1h1V12H20V10H19V9H18V8H11V9H10v1H9v2H8v3H9Z"/><path class="xa170-8" d="M8,20v1H9v1h1V21h1V20H10V19H9V16H8v3H7v1Z"/><path class="xa170-8" d="M12,22V21H11v1Z"/><path class="xa170-8" d="M17,22h1V21H17Z"/></svg>