<svg xmlns="http://www.w3.org/2000/svg" viewBox="0 0 29 33"><defs><style>polygon,rect,path{shape-rendering:crispedges;}.ma38-1{fill:#b4bd09;}.ma38-2{fill:#000000;}.ma38-3{fill:#844f4f;}.ma38-4{fill:#00774c;}.ma38-5{fill:#b2622b;}.ma38-6{fill:#d8c5c5;}.ma38-7{fill:#e2e2e2;}.ma38-8{fill:#e2e2e2;}.ma38-9{fill:#00e2b7;}.ma38-10{fill:#381616;}.ma38-11{fill:#fad000;}</style></defs><path class="ma38-1" d="M12,22H11V21H10v3h2V22Z"/><path class="ma38-1" d="M0,33H6V26H5V25H6V24H5V21H6V20H9V16H8V15H9V11h1V9h1V7h1V6H11V5h2V6h2V7h1V9h2v1h1v1h1v4h1v1H20v4H19v1H18v1H17v2h2v1h2v1h1v1h1v6h6V0H0Z"/><rect class="ma38-1" x="9" y="24" width="1" height="1"/><rect class="ma38-1" x="9" y="20" width="1" height="1"/><path class="ma38-2" d="M23,27H22v6h1V27Z"/><path class="ma38-3" d="M21,31v1h1V30H21Z"/><path class="ma38-3" d="M21,28h1V27H21Z"/><rect class="ma38-2" x="21" y="26" width="1" height="1"/><path class="ma38-2" d="M21,31V27H20v6h1V31Z"/><path class="ma38-3" d="M19,31V30H18v2h1v1h1V31Z"/><path class="ma38-3" d="M18,26v2h1v1h1V27H19V25H18Z"/><path class="ma38-2" d="M20,26h1V25H19v1Z"/><path class="ma38-2" d="M18,31V25h1V24H17v1H16v1h1v7h1V31Z"/><path class="ma38-4" d="M17,26H16v1H13V26H12v7h5V26Z"/><path class="ma38-2" d="M16,24h1V23H16Z"/><path class="ma38-2" d="M13,26v1h3V26H13Z"/><path class="ma38-5" d="M16,23H13v1H12v1h1v1h3V25h1V24H16Z"/><path class="ma38-2" d="M13,23H12v1h1Z"/><path class="ma38-2" d="M12,26h1V25H12V24H10v1h1v8h1V26Z"/><path class="ma38-3" d="M10,31V30H9v2h1v1h1V31Z"/><path class="ma38-3" d="M10,26H9v2h1v1h1V27H10Z"/><path class="ma38-2" d="M9,31V26H8v7H9V31Z"/><path class="ma38-3" d="M7,31v2H8V31Z"/><path class="ma38-3" d="M7,28v1H8V27H7Z"/><path class="ma38-5" d="M7,27H8V26H9V25H6v1H7Z"/><path class="ma38-2" d="M7,30V26H6v7H7V30Z"/><path class="ma38-6" d="M19,28H18v2h1v1h1V29H19Z"/><path class="ma38-6" d="M21,32v1h1V32Z"/><path class="ma38-6" d="M21,29v1h1V28H21Z"/><path class="ma38-6" d="M18,32v1h1V32Z"/><path class="ma38-6" d="M10,27h1V25H10v2Z"/><path class="ma38-6" d="M10,28H9v2h1v1h1V29H10Z"/><path class="ma38-6" d="M9,32v1h1V32Z"/><path class="ma38-6" d="M7,30v1H8V29H7Z"/><path class="ma38-6" d="M19,26v1h2V26H19Z"/><rect class="ma38-2" x="20" y="15" width="1" height="1"/><path class="ma38-5" d="M13,13v1h3V13h3V11H18V10H16v1H14V10H11v1H10v2Z"/><rect class="ma38-5" x="9" y="15" width="1" height="1"/><rect class="ma38-5" x="14" y="15" width="1" height="1"/><rect class="ma38-5" x="19" y="15" width="1" height="1"/><rect class="ma38-5" x="10" y="16" width="1" height="1"/><path class="ma38-5" d="M16,16H15v1H14V16H13v1H11v1h1v1h1V18h5V17H16Z"/><rect class="ma38-5" x="18" y="16" width="1" height="1"/><rect class="ma38-2" x="18" y="10" width="1" height="1"/><path class="ma38-2" d="M12,10h1V9H11v1Z"/><path class="ma38-2" d="M17,10h1V9H16v1Z"/><path class="ma38-2" d="M11,10H10v1h1Z"/><rect class="ma38-2" x="8" y="15" width="1" height="1"/><rect class="ma38-2" x="14" y="16" width="1" height="1"/><path class="ma38-7" d="M10,13v1h3V13Z"/><path class="ma38-7" d="M16,14h3V13H16Z"/><path class="ma38-8" d="M10,21h1v1h1v1h5V22h1V21h1V20h1V16H19v1H18v1H17v1H16v1H13V19H12V18H11V17H10V16H9v4h1Z"/><path class="ma38-8" d="M15,18H13v1h3V18Z"/><rect class="ma38-2" x="13" y="19" width="3" height="1"/><path class="ma38-2" d="M16,19h1V18H16Z"/><path class="ma38-9" d="M13,10h1v1h2V7H15V6H13V5H11V6h1V7H11V9h2Z"/><path class="ma38-9" d="M11,9H10v1h1Z"/><path class="ma38-2" d="M10,16h1v1h2V16h1V15h1v1h1v1h2V16h1V15h1V11H19v3H10V11H9v4h1Z"/><rect class="ma38-2" x="5" y="25" width="1" height="1"/><path class="ma38-2" d="M9,26h1V25H9Z"/><path class="ma38-10" d="M6,21H5v1H6Z"/><path class="ma38-11" d="M9,24h1V21H9V20H6v2H5v1H8V22H7V21H8v1H9v1H8v1H6v1H9Z"/><rect class="ma38-10" x="7" y="21" width="1" height="1"/><path class="ma38-10" d="M8,23H5v1H8Z"/><rect class="ma38-10" x="8" y="22" width="1" height="1"/><rect class="ma38-9" x="10" y="9" width="1" height="1"></rect></svg>