<svg xmlns="http://www.w3.org/2000/svg" viewBox="0 0 29 33"><defs><style>polygon,rect,path{shape-rendering:crispedges;}.ba282-1{fill:#397d98;}.ba282-2{fill:#000000;}.ba282-3{fill:#e8b795;}.ba282-4{fill:#adb48a;}.ba282-5{fill:#ffffff;}.ba282-6{fill:#ffffff;}.ba282-7{fill:#9b8100;}.ba282-8{fill:#5a2de2;}.ba282-9{fill:#00e070;}.ba282-10{fill:#508e91;}</style></defs><path class="ba282-1" d="M0,33H6V27H7V26H8V25h2V24h2V21H10V20H9V16H8V14H9V11h1V10h1V9h7v1h1v1h1v3h1v2H20v4H19v1H17v3h2v1h2v1h1v1h1v6h6V0H0Z"/><path class="ba282-2" d="M23,27H22v6h1V27Z"/><rect class="ba282-2" x="21" y="26" width="1" height="1"/><path class="ba282-3" d="M22,27H21v6h1V27Z"/><rect class="ba282-3" x="20" y="26" width="1" height="1"/><path class="ba282-2" d="M21,27H20v6h1V27Z"/><path class="ba282-2" d="M20,26h1V25H19v1Z"/><rect class="ba282-4" x="18" y="32" width="1" height="1"/><path class="ba282-4" d="M17,30h1V29h1v1h1V26H19V25H18v1H17v1H16v1H13V27H12V26H11V25H10v1H9v4h1V29h1v1h1v3h1V29h2v1h1v2H15v1h2V30Z"/><path class="ba282-4" d="M14,31v1h1V30H14Z"/><rect class="ba282-4" x="10" y="30" width="1" height="1"/><rect class="ba282-4" x="18" y="30" width="1" height="1"/><rect class="ba282-4" x="10" y="32" width="1" height="1"/><path class="ba282-2" d="M18,26V25h1V24H17v2Z"/><rect class="ba282-2" x="16" y="26" width="1" height="1"/><path class="ba282-2" d="M13,27v1h3V27H13Z"/><path class="ba282-2" d="M13,23h3v1h1V21H16v1H13V21H12v3h1Z"/><path class="ba282-3" d="M13,26v1h3V26h1V24H16V23H13v1H12v2Z"/><rect class="ba282-2" x="12" y="26" width="1" height="1"/><path class="ba282-2" d="M11,26h1V24H10v1h1Z"/><path class="ba282-2" d="M10,26V25H8v1h2Z"/><path class="ba282-3" d="M9,27V26H8v1Z"/><path class="ba282-2" d="M9,30V27H8v6H9V30Z"/><rect class="ba282-2" x="7" y="26" width="1" height="1"/><path class="ba282-3" d="M8,27H7v6H8V27Z"/><path class="ba282-2" d="M7,27H6v6H7V27Z"/><path class="ba282-5" d="M20,30H19v1H18V30H17v3h1V32h1v1h1V30Z"/><rect class="ba282-5" x="18" y="29" width="1" height="1"/><path class="ba282-5" d="M16,32V30H15v2Z"/><path class="ba282-5" d="M14,32V30h1V29H13v4h2V32Z"/><path class="ba282-5" d="M12,30H11v1H10V30H9v3h1V32h1v1h1V30Z"/><rect class="ba282-5" x="10" y="29" width="1" height="1"/><path class="ba282-2" d="M20,16h1V15H20Z"/><path class="ba282-3" d="M13,22h3V21h1V20h1V18h1V17H16V16H15v1H14V16H13v1H10v1h1v2h1v1h1Zm-1-3V18h5v1H16v1H13V19Z"/><path class="ba282-3" d="M11,13V12h2v2h3V13h1V12h2V11H18V10H11v1H10v2Z"/><path class="ba282-3" d="M19,16V15H16v1h3Z"/><path class="ba282-3" d="M12,15H10v1h3V15Z"/><rect class="ba282-3" x="14" y="15" width="1" height="1"/><path class="ba282-2" d="M19,17h1V16H19Z"/><path class="ba282-2" d="M10,16H9v1h1Z"/><path class="ba282-2" d="M8,15v1H9V15Z"/><rect class="ba282-2" x="14" y="16" width="1" height="1"/><rect class="ba282-6" x="12" y="14" width="1" height="1"/><path class="ba282-6" d="M11,14H10v1h1Z"/><path class="ba282-6" d="M18,15h1V14H18Z"/><path class="ba282-6" d="M17,15V14H16v1Z"/><path class="ba282-2" d="M11,14v1h1V14Z"/><path class="ba282-2" d="M17,14v1h1V14Z"/><path class="ba282-7" d="M13,12H11v1h2Z"/><path class="ba282-7" d="M19,12H17v1h2Z"/><path class="ba282-8" d="M19,18H18v2H17v1h2V20h1V17H19Z"/><path class="ba282-8" d="M11,20V18H10V17H9v3h1v1h2V20Z"/><path class="ba282-2" d="M13,18H12v1h1Z"/><path class="ba282-2" d="M17,19V18H16v1Z"/><path class="ba282-2" d="M13,19v1h3V19H15V18H14v1Z"/><path class="ba282-6" d="M14,19V18H13v1Z"/><path class="ba282-6" d="M16,19V18H15v1Z"/><path class="ba282-9" d="M19,13v1h1V11H19v2Z"/><rect class="ba282-9" x="18" y="10" width="1" height="1"/><path class="ba282-9" d="M18,10V9H11v1h7Z"/><rect class="ba282-9" x="10" y="10" width="1" height="1"/><path class="ba282-9" d="M10,13V11H9v3h1Z"/><path class="ba282-10" d="M19,15v1h1V15h1V14H19Z"/><path class="ba282-10" d="M18,16H16v1h3V16Z"/><path class="ba282-10" d="M12,14h1V13H10v1h2Z"/><path class="ba282-10" d="M18,14h1V13H16v1h2Z"/><path class="ba282-10" d="M16,14H13v2h1V15h1v1h1V14Z"/><path class="ba282-10" d="M10,16v1h3V16H10Z"/><path class="ba282-10" d="M10,15V14H8v1H9v1h1Z"/></svg>