<svg xmlns="http://www.w3.org/2000/svg" viewBox="0 0 29 33"><defs><style>polygon,rect,path{shape-rendering:crispedges;}.ta29-1{fill:#e55b35;}.ta29-2{fill:#000000;}.ta29-3{fill:#00774c;}.ta29-4{fill:#ce8452;}.ta29-5{fill:#4fdb7d;}.ta29-6{fill:#ffffff;}.ta29-7{fill:#9b8100;}.ta29-8{fill:#34e0cb;}.ta29-9{fill:#9b8100;}.ta29-10{fill:#00997c;}.ta29-11{fill:#00e2b7;}.ta29-12{fill:#00755f;}</style></defs><path class="ta29-1" d="M6,32V27H7V26H8V25h2V24h1V23H10V22H9V21H8V20H7V11H8V10H9V9h1V8h1V7h7V8h1V9h1v1h1v1h1v6h2v1h1V17h1v1H25v5H24v8H23v1H21v1h8V0H0V33H6Z"/><path class="ta29-1" d="M20,23V22H19v1H18v1h1v1h2V23Z"/><path class="ta29-2" d="M23,26v5h1V25H23Z"/><path class="ta29-2" d="M7,27H6v6H7V27Z"/><path class="ta29-3" d="M8,27H7v6H8V27Z"/><rect class="ta29-2" x="7" y="26" width="1" height="1"/><path class="ta29-2" d="M9,31V27H8v6H9V31Z"/><path class="ta29-3" d="M9,27v2h1V28h1v1h1V25h1V24H11v1H10v1H8v1Z"/><rect class="ta29-3" x="18" y="29" width="1" height="1"/><rect class="ta29-3" x="10" y="29" width="1" height="1"/><path class="ta29-3" d="M18,24H16v1h1v4h1V28h1v1h1V27h1V26H19V25H18Z"/><path class="ta29-3" d="M19,32V31H18v1H17V30H16v1H15v1H13V30H12v2H11V31H10v1H9v1H20V32Z"/><path class="ta29-2" d="M10,25H8v1h2Z"/><rect class="ta29-2" x="10" y="24" width="1" height="1"/><path class="ta29-2" d="M13,23H11v1h2Z"/><path class="ta29-2" d="M16,25V24H13v1h3Z"/><path class="ta29-4" d="M16,24V23H13v1h3Z"/><path class="ta29-2" d="M16,24h2V23H16Z"/><rect class="ta29-2" x="18" y="24" width="1" height="1"/><path class="ta29-2" d="M22,32h1V31H22V25H19v1h2v1H20v6h1V32Z"/><path class="ta29-3" d="M23,26V25H22v6h1V26Z"/><path class="ta29-3" d="M14,29v2h1V29Z"/><path class="ta29-3" d="M13,28h2v1h1V25H13v3Z"/><path class="ta29-5" d="M19,30H18V29H17v3h1V31h1v1h1V29H19Z"/><rect class="ta29-5" x="18" y="28" width="1" height="1"/><path class="ta29-5" d="M15,29v2h1V29Z"/><path class="ta29-5" d="M14,30V29h1V28H13v4h2V31H14Z"/><path class="ta29-5" d="M11,29v1H10V29H9v3h1V31h1v1h1V29Z"/><rect class="ta29-5" x="10" y="28" width="1" height="1"/><path class="ta29-2" d="M13,27V25H12v5h1V27Z"/><path class="ta29-2" d="M17,28V25H16v5h1V28Z"/><path class="ta29-4" d="M11,13v1h2V13Z"/><rect class="ta29-4" x="17" y="13" width="1" height="1"/><path class="ta29-4" d="M16,12H15V11H14v2h2Z"/><path class="ta29-4" d="M16,22V21h1V20h1V15H16v1H15v1H14V16H13v1H11v3h1v1h1v1h3Zm-4-3V18h1v1h3v1H13V19Z"/><path class="ta29-4" d="M14,14v2h1V14Z"/><rect class="ta29-2" x="14" y="16" width="1" height="1"/><path class="ta29-6" d="M16,14v1h1V14Z"/><path class="ta29-2" d="M17,14v1h1V14Z"/><path class="ta29-7" d="M13,12H11v1h2Z"/><path class="ta29-8" d="M13,12v2h1V11H12v1Z"/><path class="ta29-8" d="M10,16v2h1V16Z"/><path class="ta29-8" d="M15,12h2V11H15Z"/><path class="ta29-8" d="M11,14V12H10v2Z"/><rect class="ta29-8" x="16" y="13" width="1" height="1"/><path class="ta29-8" d="M18,13v5h1V12H18Z"/><path class="ta29-8" d="M15,14v2h1V14Z"/><path class="ta29-3" d="M9,19V12h1V11h2V10h5v1h2v1h1v6h1V11H20V10H19V9H18V8H11V9H10v1H9v1H8v9H9Z"/><rect class="ta29-3" x="9" y="20" width="1" height="1"/><path class="ta29-3" d="M20,20.667V20H19v1h1Z"/><path class="ta29-3" d="M18,21H17v1H16v1h2V22h1V21Z"/><path class="ta29-3" d="M13,22H12V21H10v1h1v1h2Z"/><rect class="ta29-2" x="10" y="8" width="1" height="1"/><rect class="ta29-2" x="9" y="9" width="1" height="1"/><rect class="ta29-2" x="8" y="10" width="1" height="1"/><path class="ta29-2" d="M8,11H7v9H8V11Z"/><rect class="ta29-2" x="8" y="20" width="1" height="1"/><rect class="ta29-2" x="9" y="21" width="1" height="1"/><rect class="ta29-2" x="10" y="22" width="1" height="1"/><rect class="ta29-2" x="18" y="22" width="1" height="1"/><rect class="ta29-2" x="19" y="21" width="1" height="1"/><path class="ta29-2" d="M21,17h1V11H21v6Z"/><rect class="ta29-2" x="20" y="10" width="1" height="1"/><rect class="ta29-2" x="19" y="9" width="1" height="1"/><rect class="ta29-2" x="18" y="8" width="1" height="1"/><path class="ta29-2" d="M18,8V7H11V8h7Z"/><path class="ta29-2" d="M12,12V11H10v1h2Z"/><path class="ta29-2" d="M10,16h1v1h2V16h1V14H10V12H9v5h1Z"/><rect class="ta29-2" x="12" y="21" width="1" height="1"/><path class="ta29-2" d="M16,23V22H13v1h3Z"/><rect class="ta29-2" x="16" y="21" width="1" height="1"/><path class="ta29-2" d="M19,17h1V12H19v5Z"/><path class="ta29-2" d="M15,11h2V10H12v1h3Z"/><path class="ta29-9" d="M18,18v2H17v1h2V20h1V18H18Z"/><path class="ta29-9" d="M11,20V18H10V17H9v3h1v1h2V20Z"/><path class="ta29-2" d="M16,14V13H14v1h2Z"/><path class="ta29-2" d="M16,12v1h2V12h1V11H17v1Z"/><rect class="ta29-2" x="13" y="19" width="3" height="1"/><rect class="ta29-2" x="12" y="18" width="1" height="1"/><path class="ta29-10" d="M20,21v2h1V21Z"/><path class="ta29-2" d="M22,20V18H21v2Z"/><path class="ta29-2" d="M23,19v1h1V18H23Z"/><rect class="ta29-2" x="22" y="21" width="1" height="1"/><path class="ta29-11" d="M23,22H21v1h3V22Z"/><path class="ta29-11" d="M20,20.667V21h2V20H21V18H20v2.667Z"/><path class="ta29-11" d="M21,18h1v2h1V18h1V17H21Z"/><path class="ta29-11" d="M23,20v1h2V18H24v2Z"/><path class="ta29-12" d="M21,23v2h3V23H21Z"/><path class="ta29-10" d="M24,21.222V23h1V21H24Z"/><path class="ta29-11" d="M19,18h1V17H19Z"/><rect class="ta29-11" x="25" y="17" width="1" height="1"/><rect class="ta29-10" x="22" y="20" width="1" height="1"/><path class="ta29-6" d="M21,21v1h1V21Z"/><path class="ta29-6" d="M24,22V21H23v1Z"/></svg>