<svg xmlns="http://www.w3.org/2000/svg" viewBox="0 0 29 33"><defs><style>polygon,rect,path{shape-rendering:crispedges;}.ea143-1{fill:#d4a122;}.ea143-2{fill:#000000;}.ea143-3{fill:#317f03;}.ea143-4{fill:#ce8452;}.ea143-5{fill:#ffffff;}.ea143-6{fill:#99004d;}.ea143-7{fill:#7f5018;}.ea143-8{fill:#6e12ff;}</style></defs><path class="ea143-1" d="M0,33H6V27H7V26H8V25h2V24h2V21H10V20H9V16H8V15H9V14H8V12H9V11H8V10H9V9H8V8h2V7h1V8h1V6h1V7h1V8h1V7h1V6h1V7h1V8h1V7h1V8H19V9h2v2H20v1h1v1H20v1h1v2H20v4H19v1H17v3h2v1h2v1h1v1h1v6h6V0H0Z"/><path class="ea143-2" d="M23,27H22v3H21V27H20v6h1V31h1v2h1V27Z"/><rect class="ea143-2" x="21" y="26" width="1" height="1"/><path class="ea143-3" d="M21,28v2h1V27H21Z"/><path class="ea143-4" d="M21,31v2h1V31Z"/><path class="ea143-2" d="M20,26h1V25H19v1Z"/><path class="ea143-3" d="M20,27h1V26H19V25H17v1H16v1H13V26H12V25H10v1H8v1H9v6H20V27Z"/><path class="ea143-2" d="M18,25h1V24H17v1Z"/><rect class="ea143-2" x="16" y="25" width="1" height="1"/><path class="ea143-2" d="M13,26v1h3V26H13Z"/><path class="ea143-2" d="M13,23h3v1h1V21H16v1H13V21H12v3h1Z"/><path class="ea143-4" d="M13,25v1h3V25h1V24H16V23H13v1H12v1Z"/><rect class="ea143-2" x="12" y="25" width="1" height="1"/><path class="ea143-2" d="M12,24H10v1h2Z"/><path class="ea143-2" d="M10,25H8v1h2Z"/><path class="ea143-2" d="M9,27H8v3H7V27H6v6H7V31H8v2H9V27Z"/><rect class="ea143-2" x="7" y="26" width="1" height="1"/><path class="ea143-3" d="M7,30H8V27H7v3Z"/><path class="ea143-4" d="M7,31v2H8V31Z"/><path class="ea143-2" d="M20,16h1V15H20Z"/><rect class="ea143-4" x="10" y="11" width="1" height="1"/><path class="ea143-4" d="M13,22h3V21h1V20h1V18h1V16h1V15H16V14h2V13H16V12H15V10H14v1H13v1H12v1h1v2H9v1h1v2h1v2h1v1h1Zm1-6h1v1H14Zm-1,3h3V18h1v1H16v1H13Z"/><polygon class="ea143-4" points="18 11 18 10 17 10 17 11 16 11 16 12 18 12 18 11"/><rect class="ea143-4" x="11" y="10" width="1" height="1"/><path class="ea143-4" d="M10,13v1h2V13H10Z"/><path class="ea143-2" d="M19,17h1V16H19Z"/><path class="ea143-2" d="M10,16H9v1h1Z"/><rect class="ea143-2" x="8" y="15" width="1" height="1"/><rect class="ea143-2" x="14" y="16" width="1" height="1"/><path class="ea143-5" d="M12,15h1V14H12Z"/><path class="ea143-5" d="M10,14v1h1V14Z"/><path class="ea143-5" d="M18,14v1h1V14Z"/><path class="ea143-5" d="M16,14v1h1V14Z"/><path class="ea143-2" d="M11,14v1h1V14Z"/><path class="ea143-2" d="M17,14v1h1V14Z"/><rect class="ea143-6" x="18" y="13" width="1" height="1"/><rect class="ea143-6" x="16" y="12" width="2" height="1"/><path class="ea143-6" d="M13,14V13H12v1Z"/><path class="ea143-6" d="M11,13h1V12H11Z"/><path class="ea143-7" d="M19,18H18v2H17v1h2V20h1V17H19Z"/><path class="ea143-7" d="M11,20V18H10V17H9v3h1v1h2V20Z"/><rect class="ea143-2" x="13" y="19" width="3" height="1"/><rect class="ea143-2" x="16" y="18" width="1" height="1"/><path class="ea143-8" d="M10,14V13h1V12H10V11h1V10h1v1H11v1h2V11h1V10h1v2h1V11h1V10h1v3h1v2h2V14H20V13h1V12H20V11h1V9H19V8H18V7H17V6H16V7H15V8H14V7H13V6H12V8H11V7H10V8H8V9H9v1H8v1H9v1H8v2H9v1h1Z"/><rect class="ea143-8" x="19" y="7" width="1" height="1"/></svg>