<svg xmlns="http://www.w3.org/2000/svg" viewBox="0 0 29 33"><defs><style>polygon,rect,path{shape-rendering:crispedges;}polygon,rect,path{shape-rendering:crispedges;}.lb83-1{fill:none;}.lb83-2{fill:#a9a9a9;}.lb83-3{fill:#000000;}.lb83-4{fill:#bbbbbb;}.lb83-5{fill:#04263a;}.lb83-6{fill:#0068f5;}.lb83-7{fill:#008dff;}.lb83-8{fill:#008b4c;}.lb83-9{fill:#ffffff;}.lb83-10{fill:#004480;}.lb83-11{fill:#ffb3c0;}.lb83-12{fill:#ce8452;}.lb83-13{fill:#cc3232;}.lb83-14{fill:#473a35;}.lb83-15{fill:#473a35;}.lb83-16{fill:#72dd40;}.lb83-17{fill:#000000;}.lb83-18{fill:#455054;}.lb83-19{fill:#ff1f4a;}.lb83-20{fill:#fad000;}</style></defs><path class="lb83-1" d="M23,22h3v1h0V22H23Z"/><rect class="lb83-1" x="26" y="3" height="1"/><path class="lb83-2" d="M28,25H27v1h2V24H28Z"/><path class="lb83-3" d="M0,0V23H4V22H5v9H6V22H7V20H5v1H2V17H5V16H8V15H7V14H9V13H7V12H9V11H8V9H9v1h2V9H10V8H9V7h1V8h1V7h1V8h1V7h2V8h1V7h1V8h1V9h1V8h2V9H20v2h1V10h1v2H21v2h1v1H21v2H20V16H19v1h1v3H19v1h2v1h5v1h3V0H0ZM27,5V7H22V6H21V5H20V4h1V3h1V2h3V3h1V4h1Z"/><path class="lb83-3" d="M10,21V20H9V17H8v4h2Z"/><rect class="lb83-3" x="11" y="20" width="1"/><rect class="lb83-3" x="17" y="20" width="1"/><path class="lb83-2" d="M27,32H26V31H23v2h5V32Z"/><path class="lb83-2" d="M25,27v1H24v2h4v1h1V27H25Z"/><path class="lb83-4" d="M2,24H4v1H5V22H4v1H1v1Z"/><path class="lb83-4" d="M27,23v1H26v1H25v1H23v5h3v1h2v1h1V31H28V30H24V28h1V27h4V26H27V25h1V24h1V23H27Z"/><path class="lb83-4" d="M7,32H6v1H8V32Z"/><path class="lb83-4" d="M4,32V31H5V26H2V25H1V24H0v2H1v1H3v1H4v2H2v1H0v2H3V32Z"/><path class="lb83-4" d="M11,23H10v1h2V23Z"/><path class="lb83-4" d="M12,22V21H8v1h4Z"/><path class="lb83-4" d="M18,23H17v1h2V23Z"/><path class="lb83-4" d="M21,25V24H19v1h2Z"/><path class="lb83-4" d="M14,22h0Z"/><path class="lb83-4" d="M24,24V23h2V22H23v1H21v1h1v1H21v1h2V24Z"/><path class="lb83-4" d="M9,24H8v1h2V24Z"/><path class="lb83-4" d="M17,21v1h4V21H17Z"/><path class="lb83-5" d="M26,7h1V6H26Z"/><path class="lb83-6" d="M26,4V6h1V4Z"/><path class="lb83-6" d="M25,6V7h1V6Z"/><path class="lb83-7" d="M25,6h1V5H25Z"/><path class="lb83-8" d="M25,5h1V4H25Z"/><polygon class="lb83-9" points="26 4 26 3 25 3 25 4 26 4"/><path class="lb83-2" d="M25,23H24v1H23v2h2V25h1V24h1V23H25Z"/><path class="lb83-8" d="M24,5H23V6h2V5Z"/><rect class="lb83-9" x="24" y="4" width="1" height="1"/><rect class="lb83-6" x="24" y="3" width="1" height="1"/><path class="lb83-10" d="M24,6H23V7h2V6Z"/><rect class="lb83-7" x="23" y="4" width="1" height="1"/><path class="lb83-2" d="M22,27h1V26H22Z"/><path class="lb83-5" d="M22,6h0V7h1V6Z"/><polygon class="lb83-7" points="23 6 23 5 22 5 22 6 22 6 23 6"/><rect class="lb83-6" x="22" y="4" width="1" height="1"/><path class="lb83-8" d="M23,4h1V3h1V2H23V3H22V4Z"/><path class="lb83-7" d="M23,2H22V3h1Z"/><rect class="lb83-2" x="21" y="24" width="1" height="1"/><rect class="lb83-10" x="21" y="5" width="1" height="1"/><rect class="lb83-8" x="21" y="4" width="1" height="1"/><rect class="lb83-9" x="21" y="3" width="1" height="1"/><polygon class="lb83-6" points="20 4 20 4 20 5 21 5 21 4 20 4"/><path class="lb83-2" d="M18,23h1v1h2V23h2V22H17v1Z"/><path class="lb83-2" d="M11,23h1V22H9v2h1V23Z"/><path class="lb83-2" d="M6,31H4v1H3v1H6V31Z"/><path class="lb83-2" d="M2,30H4V28H3V27H1V26H0v5H2Z"/><path class="lb83-2" d="M4,24H1v1H2v1H5V25H4Z"/><path class="lb83-2" d="M1,23H0v1H1Z"/><path class="lb83-3" d="M23,27H22v6h1V27Z"/><path class="lb83-3" d="M21,26v1h1V26Z"/><path class="lb83-11" d="M22,27H21v6h1V27Z"/><path class="lb83-3" d="M21,27H20v6h1V27Z"/><path class="lb83-3" d="M20,25H19v1h2V25Z"/><rect class="lb83-11" x="10" y="29" width="1" height="1"/><rect class="lb83-11" x="18" y="29" width="1" height="1"/><path class="lb83-11" d="M19,32V31H18v1H17V29h1V28h1v1h1V27h1V26H19V25H17v1H16v1H13V26H12V25H10v1H8v1H9v2h1V28h1v1h1v3H11V31H10v1H9v1H20V32Zm-3-1H15v1H13V28h2v1h1Z"/><path class="lb83-11" d="M14,29v2h1V29Z"/><path class="lb83-3" d="M18,24H17v1h2V24Z"/><rect class="lb83-3" x="16" y="25" width="1" height="1"/><path class="lb83-3" d="M13,26v1h3V26H13Z"/><path class="lb83-12" d="M16,24V23H13v1H12v1h1v1h3V25h1V24Z"/><rect class="lb83-3" x="12" y="25" width="1" height="1"/><path class="lb83-3" d="M11,24H10v1h2V24Z"/><path class="lb83-3" d="M9,31V27H8V26h2V25H8V24H7v7H6v1H8v1H9V31Z"/><path class="lb83-11" d="M7,24H6v7H7Z"/><rect class="lb83-3" x="19" y="13" width="1" height="1"/><rect class="lb83-12" x="9" y="15" width="1" height="1"/><path class="lb83-12" d="M17,11v1h1v1h0V11Z"/><rect class="lb83-12" x="13" y="10" width="1" height="1"/><path class="lb83-12" d="M17,16H16V15H15V14H14v1H13v1H10v2h1v2h1v1h1v1h3V21h1V20h1V18h1V16H17Zm-3,0h1v1H14Zm3,3H16v1H13V19h3V18h1Z"/><rect class="lb83-12" x="10" y="13" width="1" height="1"/><path class="lb83-12" d="M14,12H12v1h3V12Z"/><polygon class="lb83-12" points="20 15 19 15 19 16 20 16 20 15 20 15"/><path class="lb83-3" d="M12,23v1h1V23h3v1h1V21H16v1H13V21H12v2Z"/><path class="lb83-3" d="M10,16H9v1h1Z"/><rect class="lb83-3" x="14" y="16" width="1" height="1"/><path class="lb83-13" d="M19,30H18V29H17v3h1V31h1v1h1V29H19Z"/><rect class="lb83-13" x="18" y="28" width="1" height="1"/><path class="lb83-13" d="M15,31h1V29H15Z"/><path class="lb83-13" d="M14,30V29h1V28H13v4h2V31H14Z"/><path class="lb83-13" d="M9,32h1V31h1v1h1V29H11v1H10V29H9v3Z"/><rect class="lb83-13" x="10" y="28" width="1" height="1"/><path class="lb83-14" d="M18,18v2H17v1h2V20h1V17H19v1Z"/><path class="lb83-14" d="M9,20h1v1h2V20H11V18H10V17H9v3Z"/><path class="lb83-15" d="M17,12H16v1h2V12Z"/><path class="lb83-9" d="M11,16V15H10v1Z"/><path class="lb83-9" d="M18,15v1h1V15Z"/><rect class="lb83-3" x="13" y="19" width="3" height="1"/><rect class="lb83-3" x="16" y="18" width="1" height="1"/><path class="lb83-16" d="M9,17V14H7v1H8v2Z"/><path class="lb83-16" d="M10,13h2V12h3v1h1V12h1V11h1v3h1V13h1v4h1V15h1V14H21V12h1V10H21v1H20V9h1V8H19V9H18V8H17V7H16V8H15V7H13V8H12V7H11V8H10V9h1v1H9V9H8v2H9v1H7v1H9v1h1Zm3-3h1v1H13Z"/><rect class="lb83-16" x="9" y="7" width="1" height="1"/><path class="lb83-17" d="M10,15h1v1h2V15h1V14h1v1h1v1h2V15h2V14H18V13H11v1H9v1Z"/><path class="lb83-3" d="M10,15h1v1h2V15h1V14h1v1h1v1h2V15h2V14H18V13H11v1H9v1Z"/><path class="lb83-12" d="M8,24V22H6v2H8Z"/><path class="lb83-18" d="M8,21V20H7v2H8Z"/><path class="lb83-3" d="M9,22H8v2H9Z"/><path class="lb83-19" d="M8,17V16H5v1H2v4H5V20H8ZM6,19H4V18H6Z"/><path class="lb83-20" d="M4,18v1H6V18H4Z"/></svg>