<svg xmlns="http://www.w3.org/2000/svg" viewBox="0 0 29 33"><defs><style>polygon,rect,path{shape-rendering:crispedges;}.ja227-1{fill:#6b4f99;}.ja227-2{fill:#000000;}.ja227-3{fill:#8c7850;}.ja227-4{fill:#c18d59;}.ja227-5{fill:#492a23;}.ja227-6{fill:#492a23;}.ja227-7{fill:#f9e100;}.ja227-8{fill:#ff1d99;}.ja227-9{fill:#ff6aa5;}</style></defs><path class="ja227-1" d="M0,33H6V27H7V26H8V25h2V24h2V21H10V20H9V16H8V15H9V11h1V10h1V9h1V8h1V6h1V4h1V6h1V8h1V9h1v1h1v1h1v4h1v1H20v4H19v1H17v3h2v1h2v1h1v1h1v6h6V0H0Z"/><path class="ja227-2" d="M23,27H22v6h1V27Z"/><rect class="ja227-2" x="21" y="26" width="1" height="1"/><path class="ja227-3" d="M22,27H21v6h1V27Z"/><path class="ja227-2" d="M21,27H20v6h1V27Z"/><path class="ja227-2" d="M20,26h1V25H19v1Z"/><path class="ja227-3" d="M20,27h1V26H19V25H17V24H16V23H13v1H12v1H10v1H8v1H9v6H20V27Z"/><path class="ja227-2" d="M18,25h1V24H17v1Z"/><path class="ja227-2" d="M13,23h3v1h1V21H16v1H13V21H12v3h1Z"/><path class="ja227-2" d="M12,24H10v1h2Z"/><path class="ja227-2" d="M10,25H8v1h2Z"/><path class="ja227-2" d="M9,27H8v6H9V27Z"/><rect class="ja227-2" x="7" y="26" width="1" height="1"/><path class="ja227-3" d="M8,27H7v6H8V27Z"/><path class="ja227-2" d="M7,27H6v6H7V27Z"/><rect class="ja227-2" x="20" y="15" width="1" height="1"/><path class="ja227-2" d="M19,13H15v1h4v1h1V11H19v2Z"/><rect class="ja227-4" x="9" y="15" width="1" height="1"/><path class="ja227-4" d="M13,22h3V21h1V20h1V18h1V16H16V15H13v1H10v2h1v2h1v1h1Zm1-6h1v1H14Zm-2,3V18h1v1h3v1H13V19Z"/><rect class="ja227-4" x="19" y="15" width="1" height="1"/><path class="ja227-4" d="M11,13V12h2v1h1v1h1V13h2V12h2V11H18V10H16v1H13V10H11v1H10v2Z"/><path class="ja227-2" d="M19,17h1V16H19Z"/><rect class="ja227-2" x="18" y="10" width="1" height="1"/><path class="ja227-2" d="M18,10V9H17v1Z"/><path class="ja227-2" d="M12,9H11v1h1Z"/><rect class="ja227-2" x="10" y="10" width="1" height="1"/><path class="ja227-2" d="M10,16H9v1h1Z"/><rect class="ja227-2" x="8" y="15" width="1" height="1"/><rect class="ja227-2" x="14" y="16" width="1" height="1"/><path class="ja227-5" d="M11,12v1h2V12Z"/><path class="ja227-5" d="M19,12H17v1h2Z"/><path class="ja227-6" d="M19,18H18v2H17v1h2V20h1V17H19Z"/><path class="ja227-6" d="M11,20V18H10V17H9v3h1v1h2V20Z"/><rect class="ja227-2" x="13" y="19" width="3" height="1"/><rect class="ja227-2" x="12" y="18" width="1" height="1"/><path class="ja227-7" d="M13,14H10v2h3V15h1V14Z"/><path class="ja227-7" d="M19,14H15v1h1v1h3V14Z"/><path class="ja227-2" d="M10,14h4V13H10V11H9v4h1Z"/><path class="ja227-2" d="M14,14v1h1V14Z"/><path class="ja227-8" d="M15,8H14V9H13v2h1V10h1V9h1V7H15Z"/><path class="ja227-8" d="M16,10h1V9H16Z"/><path class="ja227-8" d="M14,7h1V5H14V6H13V8h1Z"/><rect class="ja227-8" x="12" y="8" width="1" height="1"/><rect class="ja227-9" x="15" y="9" width="1" height="1"/><path class="ja227-9" d="M13,10V9H12v1Z"/><rect class="ja227-9" x="13" y="8" width="1" height="1"/><rect class="ja227-9" x="14" y="7" width="1" height="1"/><path class="ja227-9" d="M16,7V6H15V7Z"/><path class="ja227-9" d="M15,4H14V5h1Z"/><path class="ja227-9" d="M17,9V8H16V9Z"/><path class="ja227-9" d="M14,10v1h1V10Z"/><path class="ja227-8" d="M15,11h1V10H15Z"/></svg>