<svg xmlns="http://www.w3.org/2000/svg" viewBox="0 0 29 33"><defs><style>polygon,rect,path{shape-rendering:crispedges;}.ma173-1{fill:#6b4f99;}.ma173-2{fill:#000000;}.ma173-3{fill:#184226;}.ma173-4{fill:#9e6969;}.ma173-5{fill:#6d3e35;}.ma173-6{fill:#508e5d;}.ma173-7{fill:#ffffff;}.ma173-8{fill:#8e703c;}.ma173-9{fill:#fad000;}.ma173-10{fill:#8e703c;}.ma173-11{fill:#e70059;}.ma173-12{fill:#db5800;}.ma173-13{fill:#900;}.ma173-14{fill:#ea1500;}.ma173-15{fill:#a0a0a0;}.ma173-16{fill:#ccc;}</style></defs><path class="ma173-1" d="M6,32V27H7V26H8V25h2V23h1V21H10V20H9V16H8V15H9V11h1V10h1V9h7v1h1v1h1v4h1v1H20v2h1V17h1V16h1v1h1v1h1v5H24v8H23v1H21v1h8V0H0V33H6Z"/><path class="ma173-1" d="M20,23V20H19v1H18v2h1v2h2V23Z"/><path class="ma173-2" d="M23,26v5h1V25H23Z"/><path class="ma173-2" d="M7,30V27H6v6H7V30Z"/><path class="ma173-3" d="M8,28V27H7v1Z"/><path class="ma173-3" d="M7,31H8V30H7Z"/><rect class="ma173-2" x="7" y="26" width="1" height="1"/><path class="ma173-2" d="M9,30V27H8v6H9V30Z"/><path class="ma173-3" d="M9,28h2V27H9Z"/><path class="ma173-3" d="M9,31h2V30H9Z"/><path class="ma173-2" d="M10,25H8v1h2Z"/><path class="ma173-2" d="M12,27h1V26H12V25H11v8h1V27Z"/><path class="ma173-4" d="M17,27H16v2H15v1H14V29H13V27H12v6h5V27Z"/><path class="ma173-5" d="M14,24h1v1h1V23H13v2h1Z"/><path class="ma173-2" d="M18,30V25H17v1H16v1h1v6h1V30Z"/><path class="ma173-3" d="M18,31h2V30H18Z"/><path class="ma173-3" d="M18,28h2V27H18Z"/><path class="ma173-2" d="M22,32h1V31H22V25H19v1h2v1H20v6h1V32Z"/><path class="ma173-3" d="M23,27H22v1h1Z"/><path class="ma173-3" d="M22,30v1h1V30Z"/><path class="ma173-6" d="M18,31v2h2V31Z"/><path class="ma173-6" d="M9,31v2h2V31Z"/><path class="ma173-6" d="M9,29v1h2V28H9Z"/><path class="ma173-6" d="M18,29v1h2V28H18Z"/><path class="ma173-6" d="M9,27h2V25H10v1H8v1Z"/><path class="ma173-6" d="M18,26v1h3V26H19V25H18Z"/><path class="ma173-6" d="M23,29V28H22v2h1Z"/><path class="ma173-6" d="M23,26V25H22v2h1Z"/><path class="ma173-6" d="M7,31v2H8V31Z"/><path class="ma173-6" d="M7,29v1H8V28H7Z"/><rect class="ma173-2" x="20" y="15" width="1" height="1"/><rect class="ma173-5" x="9" y="15" width="1" height="1"/><rect class="ma173-5" x="15" y="20" width="1" height="1"/><rect class="ma173-5" x="13" y="20" width="1" height="1"/><path class="ma173-5" d="M18,15H15v2H14V15H13v1H11v1H10v1h1v1h1V18h5v1h1V18h1V16h1V15H18Z"/><rect class="ma173-2" x="8" y="15" width="1" height="1"/><path class="ma173-2" d="M15,17V16H14v1Z"/><path class="ma173-7" d="M19,15V14H18v1Z"/><path class="ma173-7" d="M17,14H16v1h1Z"/><path class="ma173-2" d="M18,15V14H17v1Z"/><rect class="ma173-8" x="16" y="13" width="1" height="1"/><rect class="ma173-2" x="14" y="29" width="1" height="1"/><path class="ma173-2" d="M15,28v1h1V27H15Z"/><path class="ma173-2" d="M13,27v2h1V27Z"/><rect class="ma173-2" x="14" y="24" width="1" height="1"/><rect class="ma173-2" x="13" y="25" width="1" height="1"/><rect class="ma173-2" x="15" y="25" width="1" height="1"/><path class="ma173-2" d="M18,23V22H16v3h1V23Z"/><path class="ma173-2" d="M12,24v1h1V22H11v1h1Z"/><rect class="ma173-9" x="16" y="25" width="1" height="1"/><path class="ma173-9" d="M15,25H14v1H13v1h1v2h1V27h1V26H15Z"/><rect class="ma173-9" x="12" y="25" width="1" height="1"/><path class="ma173-9" d="M11,25h1V23H11v2Z"/><path class="ma173-9" d="M17,23v2h1V23Z"/><path class="ma173-2" d="M18,23v2h1V23Z"/><path class="ma173-2" d="M11,24V23H10v2h1Z"/><path class="ma173-10" d="M13,23h3V22h2V21h1V20h1V16H19v2H18v1H16v2H15V20H14v1H13V19H11V18H10V16H9v4h1v1h1v1h2Z"/><path class="ma173-2" d="M12,18v1h1V18Z"/><path class="ma173-2" d="M16,18v1h1V18Z"/><path class="ma173-2" d="M15,20h1V19H15Z"/><path class="ma173-2" d="M15,19V18H14v1Z"/><path class="ma173-2" d="M13,19v1h1V19Z"/><path class="ma173-7" d="M14,18H13v1h1Z"/><path class="ma173-7" d="M15,18v1h1V18Z"/><rect class="ma173-11" x="14" y="19" width="1" height="1"/><path class="ma173-12" d="M10,16v1h1V16h2V15h1v1h1V15h1V13h1v1h2v1h1V11H19V10H18V9H11v1H10v1H9v4h1Z"/><path class="ma173-7" d="M20,21h1V18H20v3Z"/><path class="ma173-7" d="M23,19V18H22v2h1Z"/><path class="ma173-7" d="M24,21h1V18H24v3Z"/><path class="ma173-2" d="M22,20V18H21v2Z"/><path class="ma173-13" d="M24,22V21H21v1Z"/><path class="ma173-14" d="M24,21V20H21v1h3Z"/><path class="ma173-7" d="M21,22v1h3V22Z"/><path class="ma173-15" d="M21,23v2h3V23H21Z"/><path class="ma173-14" d="M23,18V16H22v2Z"/><path class="ma173-7" d="M24,18V17H23v1Z"/><path class="ma173-7" d="M22,17H21v1h1Z"/><path class="ma173-2" d="M23,19v1h1V18H23Z"/><path class="ma173-16" d="M24,21.223V23h1V21H24Z"/><path class="ma173-16" d="M21,23V21H20v2Z"/></svg>