<svg xmlns="http://www.w3.org/2000/svg" viewBox="0 0 29 33"><defs><style>polygon,rect,path{shape-rendering:crispedges;}.ma258-1{fill:#db5a8e;}.ma258-2{fill:#000000;}.ma258-3{fill:#ffb38d;}.ma258-4{fill:#4922aa;}.ma258-5{fill:#ce8452;}.ma258-6{fill:#db5800;}.ma258-7{fill:#316a6d;}.ma258-8{fill:#316a6d;}.ma258-9{fill:#825fff;}</style></defs><path class="ma258-1" d="M0,33H6V27H7V26H8V25h2V24h2V22H11V21H10V20H9V16H8V15H9V11h1V9h1V7h1V6H11V5h2V6h2V7h1V9h2v1h1v1h1v4h1v1H20v4H19v1H18v1H17v2h2v1h2v1h1v1h1v6h6V0H0Z"/><path class="ma258-2" d="M23,27H22v6h1V27Z"/><rect class="ma258-2" x="21" y="26" width="1" height="1"/><path class="ma258-3" d="M21,31h1V30H21Z"/><path class="ma258-3" d="M21,28h1V27H21Z"/><path class="ma258-2" d="M21,30V27H20v6h1V30Z"/><path class="ma258-3" d="M18,28h2V27H18Z"/><path class="ma258-3" d="M18,31h2V30H18Z"/><path class="ma258-2" d="M20,26h1V25H19v1Z"/><path class="ma258-2" d="M18,30V25h1V24H17v1H16v1h1v7h1V30Z"/><path class="ma258-4" d="M17,26H16v1H13V26H12v7h5V26Z"/><path class="ma258-2" d="M16,24h1V23H16Z"/><path class="ma258-2" d="M13,26v1h3V26H13Z"/><path class="ma258-2" d="M13,23H12v1h1Z"/><path class="ma258-5" d="M13,25v1h3V25h1V24H16V23H13v1H12v1Z"/><path class="ma258-2" d="M12,26h1V25H12V24H10v1h1v8h1V26Z"/><path class="ma258-3" d="M9,31h2V30H9Z"/><path class="ma258-3" d="M9,28h2V27H9Z"/><path class="ma258-2" d="M10,25H8v1h2Z"/><path class="ma258-2" d="M9,30V27H8v6H9V30Z"/><rect class="ma258-2" x="7" y="26" width="1" height="1"/><path class="ma258-3" d="M8,28V27H7v1Z"/><path class="ma258-3" d="M7,31H8V30H7Z"/><path class="ma258-2" d="M7,30V27H6v6H7V30Z"/><path class="ma258-6" d="M9,31v2h2V31Z"/><path class="ma258-6" d="M18,31v2h2V31Z"/><path class="ma258-6" d="M18,29v1h2V28H18Z"/><path class="ma258-6" d="M9,29v1h2V28H9Z"/><path class="ma258-6" d="M18,26v1h3V26H19V25H18Z"/><path class="ma258-6" d="M9,27h2V25H10v1H8v1Z"/><path class="ma258-6" d="M7,29v1H8V28H7Z"/><path class="ma258-6" d="M7,31v2H8V31Z"/><path class="ma258-6" d="M21,31v2h1V31Z"/><path class="ma258-6" d="M21,29v1h1V28H21Z"/><rect class="ma258-2" x="20" y="15" width="1" height="1"/><rect class="ma258-5" x="14" y="15" width="1" height="1"/><path class="ma258-5" d="M16,16H15v1H14V16H13v1H11v1h1v1h1V18h5V17H16Z"/><rect class="ma258-5" x="18" y="16" width="1" height="1"/><rect class="ma258-5" x="9" y="15" width="1" height="1"/><path class="ma258-5" d="M12,12v1h1v1h5V13H16V12h2v1h1V11H18V10H16v1H14V10H11v1H10v1Z"/><path class="ma258-5" d="M10,13v1h2V13Z"/><rect class="ma258-5" x="10" y="16" width="1" height="1"/><rect class="ma258-5" x="19" y="15" width="1" height="1"/><rect class="ma258-2" x="18" y="10" width="1" height="1"/><path class="ma258-2" d="M17,10h1V9H16v1Z"/><path class="ma258-2" d="M12,10h1V9H11v1Z"/><path class="ma258-2" d="M11,10H10v1h1Z"/><rect class="ma258-2" x="8" y="15" width="1" height="1"/><rect class="ma258-2" x="14" y="16" width="1" height="1"/><rect class="ma258-7" x="18" y="13" width="1" height="1"/><rect class="ma258-7" x="16" y="12" width="2" height="1"/><rect class="ma258-7" x="12" y="13" width="1" height="1"/><rect class="ma258-7" x="10" y="12" width="2" height="1"/><path class="ma258-8" d="M15,18H13v1h3V18Z"/><path class="ma258-8" d="M14,23h3V22h1V21h1V20h1V16H19v1H18v1H17v1H16v1H13V19H12V18H11V17H10V16H9v4h1v1h1v1h1v1h2Z"/><rect class="ma258-2" x="13" y="19" width="3" height="1"/><path class="ma258-2" d="M16,19h1V18H16Z"/><path class="ma258-9" d="M13,10h1v1h2V7H15V6H13V5H11V6h1V7H11V9h2Z"/><path class="ma258-9" d="M11,9H10v1h1Z"/><path class="ma258-2" d="M10,16h1v1h2V16h1V15h1v1h1v1h2V16h1V15h1V11H19v3H10V11H9v4h1Z"/><rect class="ma258-9" x="10" y="9" width="1" height="1"></rect></svg>