<svg xmlns="http://www.w3.org/2000/svg" viewBox="0 0 29 33"><defs><style>polygon,rect,path{shape-rendering:crispedges;}polygon,rect,path{shape-rendering:crispedges;}.lb63-1{fill:#a9a9a9;}.lb63-2{fill:#000000;}.lb63-3{fill:#bbbbbb;}.lb63-4{fill:#04263a;}.lb63-5{fill:#0068f5;}.lb63-6{fill:#008dff;}.lb63-7{fill:#008b4c;}.lb63-8{fill:#ffffff;}.lb63-9{fill:#004480;}.lb63-10{fill:#6d3e35;}.lb63-11{fill:#990000;}.lb63-12{fill:#990000;}.lb63-13{fill:#825fff;}.lb63-14{fill:#455054;}.lb63-15{fill:#ff1f4a;}.lb63-16{fill:#002b4f;}</style></defs><path class="lb63-1" d="M28,25H27v1h2V24H28Z"/><path class="lb63-2" d="M0,0V23H4V22H5v9H6V22H7V20H5v1H2V17H5V16H8v5h2V20H9V17h1V16H9V15h1v1h1v1h2V16h1V14H10V12H9V11h1V10h1V9h7v1h1v1h1v1H19v3h1v1H19v1h1v3H19v1h2v1h5v1h3V0H0ZM27,5V7H22V6H21V5H20V4h1V3h1V2h3V3h1V4h1Z"/><path class="lb63-1" d="M27,32H26V31H23v2h5V32Z"/><path class="lb63-1" d="M25,27v1H24v2h4v1h1V27H25Z"/><path class="lb63-3" d="M9,24H8v1h2V24Z"/><path class="lb63-3" d="M19,24V23H17v1h2Z"/><path class="lb63-3" d="M11,23H10v1h2V23Z"/><path class="lb63-3" d="M4,32V31H5V26H2V25H1V24H0v2H1v1H3v1H4v2H2v1H0v2H3V32Z"/><path class="lb63-3" d="M7,32H6v1H8V32Z"/><path class="lb63-3" d="M17,22h4V21H17Z"/><path class="lb63-3" d="M2,24H4v1H5V22H4v1H1v1Z"/><path class="lb63-3" d="M22,23H21v1h1v1H21v1h2V24h1V23h2V22H23v1Z"/><path class="lb63-3" d="M27,24H26v1H25v1H23v5h3v1h2v1h1V31H28V30H24V28h1V27h4V26H27V25h1V24h1V23H27Z"/><path class="lb63-3" d="M21,25V24H19v1h2Z"/><path class="lb63-4" d="M26,7h1V6H26Z"/><path class="lb63-5" d="M26,5V6h1V4H26Z"/><path class="lb63-5" d="M25,6V7h1V6Z"/><rect class="lb63-6" x="25" y="5" width="1" height="1"/><rect class="lb63-7" x="25" y="4" width="1" height="1"/><rect class="lb63-8" x="25" y="3" width="1" height="1"/><path class="lb63-1" d="M24,24H23v2h2V25h1V24h1V23H24Z"/><path class="lb63-7" d="M24,5H23V6h2V5Z"/><rect class="lb63-8" x="24" y="4" width="1" height="1"/><rect class="lb63-5" x="24" y="3" width="1" height="1"/><path class="lb63-9" d="M24,6H23V7h2V6Z"/><rect class="lb63-6" x="23" y="4" width="1" height="1"/><path class="lb63-1" d="M22,27h1V26H22Z"/><path class="lb63-4" d="M22,6V7h1V6Z"/><rect class="lb63-6" x="22" y="5" width="1" height="1"/><rect class="lb63-5" x="22" y="4" width="1" height="1"/><path class="lb63-7" d="M23,4h1V3h1V2H23V3H22V4Z"/><path class="lb63-6" d="M23,2H22V3h1Z"/><rect class="lb63-1" x="21" y="24" width="1" height="1"/><rect class="lb63-9" x="21" y="5" width="1" height="1"/><rect class="lb63-7" x="21" y="4" width="1" height="1"/><rect class="lb63-8" x="21" y="3" width="1" height="1"/><rect class="lb63-5" x="20" y="4" width="1" height="1"/><path class="lb63-1" d="M17,22v1h2v1h2V23h2V22H17Z"/><path class="lb63-1" d="M10,24V23h2V22H9v2Z"/><path class="lb63-1" d="M6,31H4v1H3v1H6V31Z"/><path class="lb63-1" d="M2,30H4V28H3V27H1V26H0v5H2Z"/><path class="lb63-1" d="M4,24H1v1H2v1H5V25H4Z"/><path class="lb63-1" d="M1,23H0v1H1Z"/><path class="lb63-2" d="M23,27H22v6h1V27Z"/><path class="lb63-10" d="M22,27H21v6h1V27Z"/><path class="lb63-2" d="M21,26v1h1V26Z"/><path class="lb63-2" d="M21,27H20v6h1V27Z"/><path class="lb63-10" d="M20,27h1V26H19V25H17V24H16V23H13v1H12v1H10v1H8v1H9v6h5V29h1v4h5V27Zm-8,2H11V28h1Zm6,0H17V28h1Z"/><path class="lb63-2" d="M20,25H19v1h2V25Z"/><rect class="lb63-2" x="17" y="28" width="1" height="1"/><path class="lb63-2" d="M18,24H17v1h2V24Z"/><path class="lb63-2" d="M15,29H14v4h1V29Z"/><rect class="lb63-2" x="11" y="28" width="1" height="1"/><path class="lb63-2" d="M10,25h2V24H10Z"/><path class="lb63-2" d="M9,27H8V26h2V25H8V24H7v7H6v1H8v1H9V27Z"/><path class="lb63-10" d="M16,13V12h1V11H16V10H13v1H12v2h1v1h1V13Z"/><rect class="lb63-10" x="10" y="11" width="1" height="1"/><path class="lb63-10" d="M10,13v1h2V13Z"/><path class="lb63-10" d="M11,18v2h1v1h1v1h3V21h1V20h1V18h1V16h1V15H16V14H14v2h1v1H14V16H13v1H11V16H10v2Zm2,1h3V18h1v1H16v1H13Z"/><rect class="lb63-10" x="9" y="15" width="1" height="1"/><rect class="lb63-10" x="11" y="10" width="1" height="1"/><path class="lb63-10" d="M18,13h1V12H18Z"/><path class="lb63-10" d="M18,14V13H16v1h2Z"/><rect class="lb63-10" x="17" y="10" width="1" height="1"/><path class="lb63-2" d="M17,22V21H16v1H13V21H12v3h1V23h3v1h1V22Z"/><rect class="lb63-2" x="14" y="16" width="1" height="1"/><path class="lb63-11" d="M18,18v2H17v1h2V20h1V17H19v1Z"/><path class="lb63-11" d="M12,20H11V18H10V17H9v3h1v1h2Z"/><path class="lb63-12" d="M18,14h1V13H18Z"/><path class="lb63-12" d="M12,13v1h1V13Z"/><path class="lb63-12" d="M12,12H10v1h2Z"/><path class="lb63-8" d="M18,15h1V14H18Z"/><path class="lb63-2" d="M17,14H16v1h2V14Z"/><rect class="lb63-2" x="13" y="19" width="3" height="1"/><rect class="lb63-2" x="16" y="18" width="1" height="1"/><rect class="lb63-13" x="19" y="11" width="1" height="1"/><rect class="lb63-13" x="18" y="10" width="1" height="1"/><path class="lb63-13" d="M12,11h1V10h3v1h1V10h1V9H11v1h1Z"/><rect class="lb63-13" x="17" y="11" width="1" height="1"/><path class="lb63-13" d="M11,12h1V11H11Z"/><rect class="lb63-13" x="10" y="10" width="1" height="1"/><rect class="lb63-13" x="9" y="11" width="1" height="1"/><rect class="lb63-2" x="14" y="13" width="2" height="1"/><polygon class="lb63-2" points="18 12 17 12 16 12 16 13 18 13 18 12"/><rect class="lb63-2" x="18" y="11" width="1" height="1"/><path class="lb63-10" d="M7,24H8V22H6v9H7Z"/><path class="lb63-14" d="M8,21V20H7v2H8Z"/><path class="lb63-2" d="M9,22H8v2H9Z"/><path class="lb63-15" d="M5,17H2v1H5Z"/><path class="lb63-15" d="M8,16H5v1H8Z"/><path class="lb63-15" d="M2,21H5V20H2Z"/><path class="lb63-15" d="M8,19H5v1H8Z"/><path class="lb63-8" d="M5,18H2v1H5Z"/><path class="lb63-8" d="M6,18H8V17H5v1Z"/><path class="lb63-16" d="M5,18v1H8V18H5Z"/><path class="lb63-16" d="M2,19v1H5V19Z"/><path class="lb63-3" d="M9,22h3V21H8v1Z"/></svg>