<svg xmlns="http://www.w3.org/2000/svg" viewBox="0 0 29 33"><defs><style>polygon,rect,path{shape-rendering:crispedges;}.ta37-1{fill:#e55b35;}.ta37-2{fill:#000000;}.ta37-3{fill:#dbc6d2;}.ta37-4{fill:#a56e49;}.ta37-5{fill:#508e5d;}.ta37-6{fill:#8e4717;}.ta37-7{fill:#d8be00;}.ta37-8{fill:#508e5d;}.ta37-9{fill:#ffffff;}.ta37-10{fill:#0068ff;}.ta37-11{fill:#ff1f4a;}.ta37-12{fill:#fafafa;}.ta37-13{fill:#eaeaea;}</style></defs><rect class="ta37-1" x="9" y="24" width="1" height="1"/><rect class="ta37-1" x="18" y="23" width="1" height="1"/><path class="ta37-2" d="M23,28h1V27H20v6h1V28h1v5h1V28Z"/><path class="ta37-3" d="M22,28H21v5h1V28Z"/><path class="ta37-3" d="M20,27H19V25H18V24H16v1h1v3h2v1H17v2h1V30h1v2H16V25H13v3h2v4H12V25h1V24H11v1H10v1H9v7H20V27Zm-9,2v3H10V28h1Z"/><path class="ta37-2" d="M17,23H16v1h2V23Z"/><path class="ta37-2" d="M13,24v1h3V24H13Z"/><path class="ta37-4" d="M15,23H13v1h3V23Z"/><path class="ta37-2" d="M12,23H11v1h2V23Z"/><rect class="ta37-2" x="10" y="24" width="1" height="1"/><path class="ta37-2" d="M9,26H8v7H9V26Z"/><path class="ta37-3" d="M8,27H7v6H8V27Z"/><path class="ta37-4" d="M7,27H8V26H9V25H6v1H7Z"/><path class="ta37-2" d="M7,27V26H6v7H7V27Z"/><path class="ta37-3" d="M14,31V29H13v2Z"/><path class="ta37-5" d="M14,29v2H13V30H12v2h3V28H13v1Z"/><path class="ta37-5" d="M10,29v3h1V28H10Z"/><path class="ta37-5" d="M18,29h1V28H17v1Z"/><path class="ta37-5" d="M16,31v1h3V30H18v1H17V30H16Z"/><path class="ta37-2" d="M12,26v4h1V25H12Z"/><path class="ta37-2" d="M16,30h1V25H16v5Z"/><path class="ta37-4" d="M12,21h1v1h3V21h1V20h1V19h1V16H15v1H14V16H10v3h1v1h1Zm0-3h5v1H16v1H13V19H12Z"/><rect class="ta37-4" x="14" y="15" width="1" height="1"/><path class="ta37-4" d="M13,12v1h1v1h1V12H14V11H12v1Z"/><rect class="ta37-2" x="14" y="16" width="1" height="1"/><path class="ta37-6" d="M11,13h2V12H10v1Z"/><path class="ta37-7" d="M14,11v1h1v1h4V12H17V11H14Z"/><path class="ta37-3" d="M8,18v1H9V12h1V11h2V10h5v1h2v1h1v7H19v1H18v1H17v1H16v1h2V22h1V21h1V20h1V11H20V10H19V9H18V8H11V9H10v1H9v1H8v7Z"/><path class="ta37-3" d="M13,23V22H12V21H11v2h2Z"/><rect class="ta37-2" x="10" y="8" width="1" height="1"/><rect class="ta37-2" x="9" y="9" width="1" height="1"/><rect class="ta37-2" x="8" y="10" width="1" height="1"/><path class="ta37-2" d="M8,18V11H7v8H8Z"/><rect class="ta37-2" x="18" y="22" width="1" height="1"/><path class="ta37-2" d="M21,20h1V11H21v9Z"/><rect class="ta37-2" x="20" y="10" width="1" height="1"/><rect class="ta37-2" x="19" y="9" width="1" height="1"/><rect class="ta37-2" x="18" y="8" width="1" height="1"/><path class="ta37-2" d="M18,8V7H11V8h7Z"/><path class="ta37-2" d="M12,11H10v1h2Z"/><path class="ta37-2" d="M10,16H9v3h1V16Z"/><path class="ta37-2" d="M10,12H9v1h1Z"/><rect class="ta37-2" x="10" y="19" width="1" height="1"/><rect class="ta37-2" x="11" y="20" width="1" height="1"/><rect class="ta37-2" x="12" y="21" width="1" height="1"/><path class="ta37-2" d="M13,22v1h3V22H13Z"/><rect class="ta37-2" x="16" y="21" width="1" height="1"/><rect class="ta37-2" x="17" y="20" width="1" height="1"/><rect class="ta37-2" x="18" y="19" width="1" height="1"/><path class="ta37-2" d="M19,17v2h1V16H19Z"/><path class="ta37-2" d="M20,13V12H19v1Z"/><path class="ta37-2" d="M18,12h1V11H17v1Z"/><path class="ta37-2" d="M15,11h2V10H12v1h3Z"/><path class="ta37-1" d="M0,7V33H6V26H5V20H6V19H7V11H8V10H9V9h1V8h1V7h7V8h1V9h1v1h1v1h1v9h2v1h1v1h1v4H25v1H24v1H23v5h6V0H0Z"/><path class="ta37-8" d="M16,19V18H12v1h4Z"/><path class="ta37-9" d="M11,16h3V15h1v1h5V13H15v1H14V13H9v3h2Zm5-2h3v1H16Zm-6,0h3v1H10Z"/><path class="ta37-10" d="M19,15V14H16v1h3Z"/><path class="ta37-11" d="M13,15V14H10v1h3Z"/><rect class="ta37-12" x="23" y="23" width="1" height="1"/><rect class="ta37-12" x="20" y="23" width="1" height="1"/><rect class="ta37-4" x="24" y="22" width="1" height="1"/><path class="ta37-4" d="M25,24H20v2H19v1h5V26H21V25h3v1h1V24Z"/><rect class="ta37-4" x="20" y="21" width="1" height="1"/><polygon class="ta37-4" points="22 23 23 23 23 21 22 21 22 22 21 22 21 23 22 23"/><path class="ta37-2" d="M23.25,25H21v1h3V25Z"/><path class="ta37-2" d="M21,23v1h1V23Z"/><path class="ta37-2" d="M25,24V23H24v1Z"/><rect class="ta37-2" x="24" y="26" width="1" height="1"/><path class="ta37-2" d="M25,26h1V25H25Z"/><path class="ta37-7" d="M20,24V23h1V22H20V21H19v4h1Z"/><path class="ta37-7" d="M20,20v1h1v1h1V21h1v2h1V22h1V21H24V20H20Z"/><path class="ta37-7" d="M25,24v1h1V22H25v2Z"/><path class="ta37-7" d="M22,24h1V23H22Z"/><path class="ta37-2" d="M18,24v1h1V24Z"/><path class="ta37-2" d="M20,25H19v1h1Z"/><path class="ta37-2" d="M13,20h3V19H13Z"/><path class="ta37-2" d="M17,19V18H16v1Z"/><path class="ta37-2" d="M5,25v1H6V25Z"/><rect class="ta37-2" x="9" y="25" width="1" height="1"/><path class="ta37-2" d="M6,21H5v1H6Z"/><path class="ta37-2" d="M9,21H7v1H9Z"/><path class="ta37-9" d="M6,22H5v1H6Z"/><path class="ta37-9" d="M7,25H8V24H7V23H6v1H5v1H7Z"/><path class="ta37-13" d="M8,24v1H9V24Z"/><path class="ta37-13" d="M9,20v1h1v2H9v1h2V20H10V19H6v1H9Z"/><rect class="ta37-2" x="6" y="22" width="1" height="1"/><rect class="ta37-2" x="7" y="23" width="1" height="1"/><path class="ta37-2" d="M6,23H5v1H6Z"/><path class="ta37-9" d="M6,22H7V21H9V20H5v1H6Z"/><path class="ta37-9" d="M9,23h1V21H9v1H7v1H8v1H9Z"/></svg>