<svg xmlns="http://www.w3.org/2000/svg" viewBox="0 0 29 33"><defs><style>polygon,rect,path{shape-rendering:crispedges;}.ab190-1{fill:#31a09d;}.ab190-2{fill:#000000;}.ab190-3{fill:#00af68;}.ab190-4{fill:#e8b795;}.ab190-5{fill:#4fdb7d;}.ab190-6{fill:#ffffff;}.ab190-7{fill:#663228;}.ab190-8{fill:#ccc;}.ab190-9{fill:#6e12ff;}</style></defs><path class="ab190-1" d="M6,32V27H7V26H8V24H6V23H5V21H4V20H3V19H8V11H9V10h1V9h1V8h7V9h1v1h1v1h1v8h5v1H25v1H24v2H23v1H22v1h1v8h6V0H0V33H6Z"/><rect class="ab190-1" x="8" y="19" width="1" height="1"/><path class="ab190-1" d="M18,20v1H17v2h1v1h1V21h1V20H18Z"/><rect class="ab190-1" x="20" y="19" width="1" height="1"/><path class="ab190-1" d="M11,23h1V21H11V20H9v2h1v2h1Z"/><path class="ab190-2" d="M7,30V27H6v6H7V30Z"/><path class="ab190-3" d="M8,28V27H7v1Z"/><path class="ab190-3" d="M7,31H8V30H7Z"/><rect class="ab190-2" x="7" y="26" width="1" height="1"/><path class="ab190-2" d="M9,30V27H8v6H9V30Z"/><path class="ab190-3" d="M9,30v1h5V30Z"/><path class="ab190-3" d="M14,27H9v1H20V27H14Z"/><rect class="ab190-3" x="15" y="30" width="5" height="1"/><path class="ab190-2" d="M10,25H8v1h2Z"/><rect class="ab190-3" x="12" y="24" width="1" height="1"/><path class="ab190-2" d="M12,24h1V23h3v1h1v1H16v1h2V25h1V24H18V23H17V21H16v1H13V21H12v2H11v1H10v1h1v1h2V25H12Z"/><rect class="ab190-2" x="13" y="24" width="1" height="1"/><rect class="ab190-2" x="14" y="32" width="1" height="1"/><rect class="ab190-2" x="14" y="30" width="1" height="1"/><path class="ab190-2" d="M15,29V28H14v1Z"/><path class="ab190-2" d="M15,26V25H14v2h1Z"/><rect class="ab190-2" x="15" y="24" width="1" height="1"/><path class="ab190-4" d="M15,24h1V23H13v1h1v1h1Z"/><rect class="ab190-3" x="16" y="24" width="1" height="1"/><path class="ab190-2" d="M21,30V26H20v7h1V30Z"/><path class="ab190-3" d="M21,28h1V27H21Z"/><path class="ab190-3" d="M21,31h1V30H21Z"/><path class="ab190-2" d="M23,25H22v8h1V25Z"/><path class="ab190-5" d="M15,31H9v2h5V32h1v1h5V31Z"/><path class="ab190-5" d="M15,29H14V28H9v2H20V28H15Z"/><path class="ab190-5" d="M19,25H18v1H16V25H15v2h5V26H19Z"/><path class="ab190-5" d="M9,27h5V25H13v1H11V25H10v1H8v1Z"/><path class="ab190-5" d="M7,29v1H8V28H7Z"/><path class="ab190-5" d="M7,31v2H8V31Z"/><path class="ab190-5" d="M21,31v2h1V31Z"/><path class="ab190-5" d="M21,29v1h1V28H21Z"/><path class="ab190-4" d="M18,14h1V13H17v1Z"/><path class="ab190-4" d="M10,17v2h1v1h1v1h1v1h3V21h1V20h1V19h1V16h1V15H16V13h1V11H15V10H14v1H13v2H11v1h2v1H9v1h1Zm4-1h1v1H14Zm-2,2h5v1H16v1H13V19H12Z"/><path class="ab190-2" d="M19,17v2h1V16H19Z"/><path class="ab190-2" d="M19,19H18v1h1Z"/><rect class="ab190-2" x="17" y="20" width="1" height="1"/><rect class="ab190-2" x="11" y="20" width="1" height="1"/><path class="ab190-2" d="M10,19v1h1V19Z"/><path class="ab190-2" d="M10,18V16H9v3h1Z"/><rect class="ab190-2" x="14" y="16" width="1" height="1"/><path class="ab190-6" d="M13,15V14H12v1Z"/><path class="ab190-6" d="M11,14H10v1h1Z"/><path class="ab190-6" d="M18,15h1V14H18Z"/><path class="ab190-6" d="M16,14v1h1V14Z"/><path class="ab190-2" d="M12,15V14H11v1Z"/><path class="ab190-2" d="M17,14v1h1V14Z"/><path class="ab190-7" d="M13,12H12v1h1Z"/><path class="ab190-7" d="M16,14h1V13H16Z"/><polygon class="ab190-2" points="13 20 16 20 16 19 17 19 17 18 12 18 12 19 13 19 13 20"/><path class="ab190-6" d="M10,22H9V20H8V19H3v1H7v1H5v1H8v1H6v1h4Z"/><path class="ab190-8" d="M8,22H5v1H8Z"/><path class="ab190-8" d="M7,20H4v1H7Z"/><path class="ab190-8" d="M22,20v1h3V20H22Z"/><path class="ab190-8" d="M22,23h2V22H22Z"/><path class="ab190-6" d="M20,20v1H19v5h1V25h2V24h1V23H22V22h2V21H22V20h4V19H21v1Zm1,3H20V22h1Z"/><path class="ab190-8" d="M10,24H8v1h2Z"/><path class="ab190-9" d="M9,18V15h1V14h1V13h1V12h1V11h1V10h1v1h2v2h2v2h1v4h1V11H20V10H19V9H18V8H11V9H10v1H9v1H8v8H9Z"/><path class="ab190-9" d="M10,19H9v1h1Z"/><path class="ab190-9" d="M19,20h1V19H19Z"/><rect class="ab190-2" x="20" y="22" width="1" height="1"/><path class="ab190-4" d="M20,26h1v1h1V25H20Z"/></svg>