<svg xmlns="http://www.w3.org/2000/svg" viewBox="0 0 29 33"><defs><style>polygon,rect,path{shape-rendering:crispedges;}.eb186-1{fill:#d14646;}.eb186-2{fill:#000000;}.eb186-3{fill:#9b8100;}.eb186-4{fill:#333333;}.eb186-5{fill:#e8b795;}.eb186-6{fill:#90a2a3;}.eb186-7{fill:#ffffff;}.eb186-8{fill:#e2e2e2;}.eb186-9{fill:#e2e2e2;}.eb186-10{fill:#508e5d;}.eb186-11{fill:#fad000;}.eb186-12{fill:#ff1f4a;}.eb186-13{fill:#10bcff;}</style></defs><path class="eb186-1" d="M0,33H6V26H5V24H8v1H9V24h1V23h1V22h1V21H11V20H10V19H9V17H8V15H9V11h1V10h1V9h7v1h1v1h1v4h1v2H20v2H19v1H18v1H17v1h1v1h1v1h1v1h1V24h3v2H23v7h6V0H0Z"/><path class="eb186-1" d="M7,27H7v6H7V27Z"/><path class="eb186-2" d="M7,27V26H6v7H7V27Z"/><path class="eb186-2" d="M9,29h1V28h2V27H9V25H8v2H8v6H9V29Z"/><rect class="eb186-2" x="9" y="24" width="1" height="1"/><path class="eb186-3" d="M12,32V31H11V30H10V29H9v4h4V32Z"/><rect class="eb186-2" x="10" y="23" width="1" height="1"/><path class="eb186-3" d="M10,26v1h2v1H10v1h1v1h1v1h1V26H12V25H11V24H10v1H9v1Z"/><rect class="eb186-3" x="11" y="23" width="1" height="1"/><rect class="eb186-2" x="11" y="24" width="1" height="1"/><rect class="eb186-2" x="10" y="29" width="1" height="1"/><path class="eb186-2" d="M12,24h1V23h3v1h1V23h1V22H17V21H16v1H13V21H12v1H11v1h1Z"/><rect class="eb186-2" x="12" y="25" width="1" height="1"/><path class="eb186-4" d="M15,27H14v6h1V27Z"/><path class="eb186-5" d="M17,25V24H16V23H13v1H12v1h1v1h3V25Z"/><rect class="eb186-2" x="16" y="25" width="1" height="1"/><path class="eb186-3" d="M20,29H19v1H18v1H17v1H16v1h4V29Z"/><rect class="eb186-3" x="17" y="23" width="1" height="1"/><rect class="eb186-2" x="17" y="24" width="1" height="1"/><rect class="eb186-2" x="17" y="30" width="1" height="1"/><rect class="eb186-2" x="18" y="23" width="1" height="1"/><rect class="eb186-2" x="19" y="24" width="1" height="1"/><path class="eb186-3" d="M18,25H17v1H16v5h1V30h1V29h1V28H17V27h2V26h1V25H19V24H18Z"/><path class="eb186-2" d="M21,27V25H20v2H17v1h2v1h1v4h1V27Z"/><path class="eb186-2" d="M23,26H22v7h1V26Z"/><rect class="eb186-2" x="18" y="29" width="1" height="1"/><rect class="eb186-2" x="11" y="30" width="1" height="1"/><path class="eb186-2" d="M17,32V31H16V26H13v5H12v1h1v1h1V27h1v6h1V32Z"/><path class="eb186-6" d="M19,27h1V26H19Z"/><path class="eb186-6" d="M9,26v1h1V26Z"/><path class="eb186-2" d="M21,16V15H20v1Z"/><path class="eb186-2" d="M19,13v2h1V12H19Z"/><path class="eb186-5" d="M13,20v2h3V20Z"/><rect class="eb186-5" x="18" y="11" width="1" height="1"/><rect class="eb186-5" x="17" y="10" width="1" height="1"/><path class="eb186-5" d="M12,19V18h5v2h1V19h1V16h1V15H16V13h1V11H16V10H13v1H12v1h1v1H11v1h2v1H9v1h1v3h1v1h1Zm2-3h1v1H14Z"/><path class="eb186-5" d="M18,14h1V13H17v1Z"/><rect class="eb186-5" x="11" y="10" width="1" height="1"/><path class="eb186-5" d="M10,13h1V11H10v2Z"/><path class="eb186-2" d="M19,16v3h1V16Z"/><rect class="eb186-2" x="18" y="19" width="1" height="1"/><rect class="eb186-2" x="17" y="20" width="1" height="1"/><rect class="eb186-2" x="11" y="20" width="1" height="1"/><rect class="eb186-2" x="10" y="19" width="1" height="1"/><path class="eb186-2" d="M10,14V12H9v3h1Z"/><path class="eb186-2" d="M10,16H9v3h1V16Z"/><path class="eb186-2" d="M9,15H8v1H9Z"/><rect class="eb186-2" x="14" y="16" width="1" height="1"/><path class="eb186-7" d="M13,15V14H12v1Z"/><path class="eb186-7" d="M10,15h1V14H10Z"/><path class="eb186-7" d="M18,14v1h1V14Z"/><path class="eb186-7" d="M16,14v1h1V14Z"/><path class="eb186-2" d="M12,15V14H11v1Z"/><path class="eb186-2" d="M17,14v1h1V14Z"/><path class="eb186-8" d="M10,14h1V13H10Z"/><path class="eb186-8" d="M11,13h2V12H11Z"/><path class="eb186-8" d="M17,13H16v1h1Z"/><path class="eb186-8" d="M19,12H17v1h2Z"/><path class="eb186-9" d="M17,19V18H13v1h3v2h1V19Z"/><path class="eb186-9" d="M13,20V19H12v2h1Z"/><path class="eb186-2" d="M16,19H13v1h3Z"/><path class="eb186-2" d="M12,18v1h1V18Z"/><path class="eb186-10" d="M20,12V11H19v1Z"/><rect class="eb186-10" x="18" y="10" width="1" height="1"/><path class="eb186-10" d="M12,11h1V10h3v1h1V10h1V9H11v1h1Z"/><path class="eb186-10" d="M18,11H17v1h1Z"/><path class="eb186-10" d="M11,12h1V11H11Z"/><rect class="eb186-10" x="10" y="10" width="1" height="1"/><path class="eb186-10" d="M10,11H9v1h1Z"/><path class="eb186-11" d="M20,17h1V16H20Z"/><path class="eb186-11" d="M8,16v1H9V16Z"/><path class="eb186-2" d="M23,26h1V25H23Z"/><path class="eb186-2" d="M22,24H21v1h1Z"/><path class="eb186-12" d="M23,25h1V24H22v1Z"/><path class="eb186-2" d="M8,25V24H7v1Z"/><path class="eb186-2" d="M5,25v1H6V25Z"/><path class="eb186-5" d="M22,27V26h1V25H21v2Z"/><path class="eb186-5" d="M7,27H8V25H6v1H7Z"/><path class="eb186-13" d="M7,25V24H5v1H7Z"/><path class="eb186-3" d="M22,27H21v6h1V27Z"/><path class="eb186-3" d="M8,27H7v6H8V27Z"/></svg>