<svg xmlns="http://www.w3.org/2000/svg" viewBox="0 0 29 33"><defs><style>polygon,rect,path{shape-rendering:crispedges;}.bb281-1{fill:#db5a8e;}.bb281-2{fill:#000000;}.bb281-3{fill:#333333;}.bb281-4{fill:#ffffff;}.bb281-5{fill:#b2622b;}.bb281-6{fill:#e2e2e2;}.bb281-7{fill:#e2e2e2;}.bb281-8{fill:#dfdfdf;}.bb281-9{fill:#a89969;}</style></defs><path class="bb281-1" d="M0,33H29V0H0ZM5,11H7v1H9V11H9V10h1V8h1V7h2V8h3V7h2V8h1V7h1V6h2V8H21V9H20v2h0v1h2V11h2v1H22v1H20v2h1v1H20v3h1v1H20v1H17v2h1v1h1v1h2v1h1v1h1v6H6V27H7V26H8V25h2V24h1V23h1V21H9V20H8V19H9V16H8V15H9V13H7V12H5Z"/><path class="bb281-1" d="M13,22h0V21h0Z"/><rect class="bb281-1" x="15" y="16" height="1"/><rect class="bb281-1" x="16" y="21" width="1"/><path class="bb281-2" d="M22,33h1V27H22v6Z"/><path class="bb281-3" d="M21,28v5h1V27H21Z"/><rect class="bb281-2" x="21" y="26" width="1" height="1"/><path class="bb281-2" d="M21,28V27H20v6h1V28Z"/><path class="bb281-3" d="M18,26v3H17v4h3V27h1V26H19V25H18Z"/><path class="bb281-2" d="M20,26h1V25H19v1Z"/><path class="bb281-2" d="M17,29H16v4h1V29Z"/><rect class="bb281-4" x="16" y="24" width="1" height="1"/><path class="bb281-4" d="M16,29h1V26H16V25H13v1H12v3h1v4h1V32h1v1h1V29Zm-1,2H14V30h1Zm0-2H14V28h1Zm0-2H14V26h1Z"/><rect class="bb281-4" x="15" y="23" width="1" height="1"/><path class="bb281-2" d="M14,32v1h1V32Z"/><rect class="bb281-2" x="14" y="30" width="1" height="1"/><rect class="bb281-2" x="14" y="28" width="1" height="1"/><rect class="bb281-2" x="14" y="26" width="1" height="1"/><rect class="bb281-4" x="13" y="23" width="1" height="1"/><path class="bb281-2" d="M13,29H12v4h1V29Z"/><rect class="bb281-4" x="12" y="24" width="1" height="1"/><path class="bb281-3" d="M12,29H11V25H10v1H8v1H9v6h3V29Z"/><path class="bb281-2" d="M10,25H8v1h2Z"/><path class="bb281-2" d="M9,27H8v6H9V27Z"/><path class="bb281-3" d="M8,27H7v6H8V27Z"/><rect class="bb281-2" x="7" y="26" width="1" height="1"/><path class="bb281-2" d="M7,27H6v6H7V27Z"/><polygon class="bb281-2" points="21 16 21 15 20 15 20 16 21 16"/><polygon class="bb281-5" points="19 13 19 13 18 13 18 14 19 14 19 13"/><rect class="bb281-5" x="10" y="13" height="1"/><path class="bb281-5" d="M18,15v1H16V15H15V14H14v1H13v1H11V15H9v1h1v2h1v1h1V18h1v1h3v1H13V19H12v2h1v1h3V21h1V19h1V18h1V16h1V15H18Zm-3,2H14V16h1Z"/><path class="bb281-2" d="M17,20v1h1V20Z"/><path class="bb281-2" d="M16,21v1H13V21H12v2H11v1H10v1h1v4h1V26h1V25H12V24h1V23h1v1H13v1h3V24H15V23h1v1h1v1H16v1h1v3h1V25h1V24H18V23H17V21Z"/><path class="bb281-2" d="M12,20H11v1h1Z"/><polygon class="bb281-2" points="14 16 14 16 14 17 15 17 15 16 14 16"/><rect class="bb281-6" x="10" y="13" width="1" height="1"/><path class="bb281-7" d="M19,18H18v1H17v1h1v1h2V20h1V19H20V16H19Z"/><path class="bb281-7" d="M12,20V19H11V18H10V16H9v3H8v1H9v1h2V20Z"/><rect class="bb281-2" x="13" y="19" width="3" height="1"/><rect class="bb281-2" x="12" y="18" width="1" height="1"/><path class="bb281-2" d="M24,11H22v1h2Z"/><path class="bb281-8" d="M21,8h1V7H21Z"/><path class="bb281-2" d="M8,13H9v2H8v1H9V15h2v1h2V15h1V14h1v1h1v1h2V15h2V13h2V12H20V11H19v1H10V11H9v1H7v1Zm10,0h1v1H18Zm-8,0h1v1H10Z"/><rect class="bb281-8" x="20" y="8" width="1" height="1"/><path class="bb281-9" d="M19,11h1V10H19Z"/><path class="bb281-4" d="M18,11h1V10h1V8h1V7h1V6H20V7H19V8H18v3Z"/><path class="bb281-9" d="M11,11H10v1h9V11H11Z"/><path class="bb281-2" d="M11,11h7V7H16V8H13V7H11V8H10v3Z"/><path class="bb281-9" d="M10,10H9v1h1Z"/><path class="bb281-2" d="M7,11H5v1H7Z"/></svg>