<svg xmlns="http://www.w3.org/2000/svg" viewBox="0 0 29 33"><defs><style>polygon,rect,path{shape-rendering:crispedges;}.ha247-1{fill:#29834f;}.ha247-2{fill:#000000;}.ha247-3{fill:#333333;}.ha247-4{fill:#ce8452;}.ha247-5{fill:#ffffff;}.ha247-6{fill:#473a35;}.ha247-7{fill:#990000;}.ha247-8{fill:#9b8100;}.ha247-9{fill:#cbed03;}.ha247-10{fill:#00e070;}.ha247-11{fill:#fafafa;}</style></defs><path class="ha247-1" d="M0,33H6V24H7V23H8v1H9v1h1V24h2V22H11V21H10V20H9V16H8V14H9V10h1V9h1V8h7V9h1v2h1v3h1v2H20v4H19v1H18v1H17v2h2V22h1V21h5v1h1v5H25v1H24v1H23v4h6V0H0Z"/><path class="ha247-2" d="M23,29h1V28H20v5h1V29h1v4h1V29Z"/><path class="ha247-3" d="M22,29H21v4h1V29Z"/><path class="ha247-3" d="M15,29H14v2h1V29Z"/><path class="ha247-3" d="M19,29h1V28H19Z"/><path class="ha247-3" d="M19,32V31H18v1H17V29h1V28h1V26H18V25H17v1H16v1H13V26H12V25H10v2H9v2h1V28h1v1h1v3H11V31H10v1H9v1H20V32Zm-3-2v1H15v1H13V28h2v1h1Z"/><rect class="ha247-3" x="10" y="29" width="1" height="1"/><rect class="ha247-3" x="18" y="29" width="1" height="1"/><path class="ha247-2" d="M18,25v1h1V25h1V24H17v1Z"/><path class="ha247-2" d="M16,24h1V23H16Z"/><rect class="ha247-2" x="16" y="25" width="1" height="1"/><path class="ha247-2" d="M13,26v1h3V26H13Z"/><path class="ha247-2" d="M13,23H12v1h1Z"/><path class="ha247-4" d="M13,25v1h3V25h1V24H16V23H13v1H12v1Z"/><rect class="ha247-2" x="12" y="25" width="1" height="1"/><path class="ha247-2" d="M12,24H10v1h2Z"/><path class="ha247-2" d="M9,31V27H8v6H9V31Z"/><path class="ha247-3" d="M8,27H7v6H8V27Z"/><path class="ha247-2" d="M7,27V24H6v9H7V27Z"/><path class="ha247-5" d="M19,30H18V29H17v3h1V31h1v1h1V29H19Z"/><rect class="ha247-5" x="18" y="28" width="1" height="1"/><path class="ha247-5" d="M15,30v1h1V29H15Z"/><path class="ha247-5" d="M14,30V29h1V28H13v4h2V31H14Z"/><path class="ha247-5" d="M9,32h1V31h1v1h1V29H11v1H10V29H9v3Z"/><rect class="ha247-5" x="10" y="28" width="1" height="1"/><path class="ha247-2" d="M20,16h1V15H20Z"/><path class="ha247-4" d="M16,16H15v1H14V16H13v1H11v1h5v1h1V18h1V17H16Z"/><path class="ha247-4" d="M18,10H16v1H15v1H14v1H13v1h3V13h1V12h2V11H18Z"/><rect class="ha247-4" x="14" y="15" width="1" height="1"/><path class="ha247-2" d="M8,15v1H9V15Z"/><rect class="ha247-2" x="14" y="16" width="1" height="1"/><path class="ha247-6" d="M19,12H17v1h2Z"/><path class="ha247-7" d="M15,18H13v1h3V18Z"/><path class="ha247-7" d="M14,23h3V22h1V21h1V20h1V16H19v1H18v1H17v1H16v1H13V19H12V18H11V17H10V16H9v4h1v1h1v1h1v1h2Z"/><rect class="ha247-2" x="13" y="19" width="3" height="1"/><path class="ha247-2" d="M12,18v1h1V18Z"/><path class="ha247-4" d="M7,27H9V25H8V24H7v3Z"/><path class="ha247-2" d="M10,27V25H9v2Z"/><rect class="ha247-2" x="8" y="24" width="1" height="1"/><rect class="ha247-2" x="7" y="23" width="1" height="1"/><path class="ha247-8" d="M10,13h4V12h1V11h1V10h2v1h1V9H18V8H11V9H10v1H9v4h1Z"/><path class="ha247-8" d="M19,13v1h1V11H19v2Z"/><path class="ha247-9" d="M19,15v1h1V15h1V14H19Z"/><path class="ha247-9" d="M19,14V13H16v1h3Z"/><path class="ha247-10" d="M19,14H16v2h3V14Z"/><path class="ha247-9" d="M16,16v1h3V16H16Z"/><path class="ha247-9" d="M14,16V15h1v1h1V14H13v2Z"/><path class="ha247-9" d="M13,14V13H10v1h3Z"/><path class="ha247-10" d="M13,16V14H10v2h3Z"/><path class="ha247-9" d="M13,16H10v1h3Z"/><path class="ha247-9" d="M10,15V14H8v1H9v1h1Z"/><rect class="ha247-11" x="23" y="24" width="1" height="1"/><rect class="ha247-11" x="20" y="24" width="1" height="1"/><path class="ha247-4" d="M20,24h2v1H19v1h1v1H19v1h5V27H21V26h3v1h1V25H23V24h2V23H24V22H23v1H21V22H20v2Z"/><path class="ha247-2" d="M23.25,26H21v1h3V26Z"/><path class="ha247-2" d="M22,25V24H21v1Z"/><path class="ha247-2" d="M24,24v1h1v2h1V24H24Z"/><rect class="ha247-2" x="24" y="27" width="1" height="1"/><path class="ha247-8" d="M20,23V22H19v2h1Z"/><path class="ha247-8" d="M21,23h2V22h1v1h1v1h1V22H25V21H20v1h1Z"/><path class="ha247-2" d="M20,26H19v1h1Z"/></svg>