<svg xmlns="http://www.w3.org/2000/svg" viewBox="0 0 29 33"><defs><style>polygon,rect,path{shape-rendering:crispedges;}.cb267-1{fill:#b4bd09;}.cb267-2{fill:#000000;}.cb267-3{fill:#326b43;}.cb267-4{fill:#ffffff;}.cb267-5{fill:#ce8452;}.cb267-6{fill:#893a1f;}.cb267-7{fill:#009b97;}.cb267-8{fill:#f9e100;}</style></defs><polygon class="cb267-1" points="15 17 15 17 15 16 14 16 14 16 15 16 15 17"/><path class="cb267-1" d="M10,17v1h0V16h0Z"/><path class="cb267-1" d="M0,33H6V27H7V26H8V25h2V24h1V23h1V21H11V20H10V19H9V16H8V15H9V11h1V10h0V9h1V8h7V9h1v1h1v5h1v1H20v3H19v1H18v1H17v2h1v1h1v1h2v1h1v1h1v6h6V0H0Z"/><rect class="cb267-1" x="11" y="19"/><rect class="cb267-1" x="12" y="20"/><rect class="cb267-1" x="19" y="16" width="1"/><rect class="cb267-1" x="13" y="21"/><path class="cb267-2" d="M23,27H22v6h1V27Z"/><path class="cb267-3" d="M22,27H21v6h1V27Z"/><rect class="cb267-2" x="21" y="26" width="1" height="1"/><path class="cb267-2" d="M21,27H20v6h1V27Z"/><path class="cb267-3" d="M20,27h1V26H19V25H18v4H17v4h3V27Z"/><path class="cb267-2" d="M20,26h1V25H19v1Z"/><path class="cb267-2" d="M17,29H16v4h1V29Z"/><rect class="cb267-4" x="16" y="24" width="1" height="1"/><path class="cb267-4" d="M16,29h1V26H16V25H13v1H12v3h1v4h1V32h1v1h1V29Zm-1,2H14V30h1Zm0-2H14V28h1Zm0-2H14V26h1Z"/><rect class="cb267-4" x="15" y="23" width="1" height="1"/><rect class="cb267-2" x="14" y="32" width="1" height="1"/><rect class="cb267-2" x="14" y="30" width="1" height="1"/><rect class="cb267-2" x="14" y="28" width="1" height="1"/><rect class="cb267-2" x="14" y="26" width="1" height="1"/><path class="cb267-2" d="M15,24V23H14v1H13v1h3V24Z"/><rect class="cb267-4" x="13" y="23" width="1" height="1"/><path class="cb267-2" d="M13,29H12v4h1V29Z"/><rect class="cb267-4" x="12" y="24" width="1" height="1"/><path class="cb267-3" d="M12,29H11V25H10v1H8v1H9v6h3V29Z"/><path class="cb267-2" d="M11,26v3h1V26h1V25H12V24h1V22H12v1H11v1H10v1h1Z"/><path class="cb267-2" d="M10,25H8v1h2Z"/><path class="cb267-2" d="M9,27H8v6H9V27Z"/><path class="cb267-3" d="M8,27H7v6H8V27Z"/><rect class="cb267-2" x="7" y="26" width="1" height="1"/><path class="cb267-2" d="M7,27H6v6H7V27Z"/><polygon class="cb267-2" points="20 16 20 16 21 16 21 15 20 15 20 16 20 16"/><path class="cb267-5" d="M9,16h1v2h1v1h1v1h1V19h3v1h1V19h1V18h1V16h1V15H18v1H16V15H15V14H14v1H13v1H11V15H9Zm5,0h1v1H14Z"/><path class="cb267-5" d="M14,12V11H13V10H11v1H10v1h3v1h2V12Z"/><path class="cb267-5" d="M13,21h3V20H13Z"/><rect class="cb267-5" x="10" y="13" width="1" height="1"/><path class="cb267-2" d="M16,23v1h1v1H16v1h1v3h1V25h1V24H18V23H17V22H16Z"/><path class="cb267-2" d="M13,10Z"/><rect class="cb267-2" x="10" y="10" height="1"/><rect class="cb267-2" x="10" y="11" width="1"/><polygon class="cb267-2" points="9 15 9 15 8 15 8 16 9 16 9 16 9 15"/><polygon class="cb267-2" points="15 17 15 16 14 16 14 16 14 17 15 17 15 17"/><path class="cb267-6" d="M10,12v1h3V12Z"/><path class="cb267-7" d="M13,23h3V22h1V21h1V20h1V19h1V16H19v2H18v1H17v1H16v1H13V20H12V19H11V18H10V16H9v3h1v1h1v1h1v1h1Z"/><rect class="cb267-2" x="13" y="19" width="3" height="1"/><path class="cb267-8" d="M11,11h0V10h2v1h1v1h1v1h3v1h2V10H19V9H18V8H11V9H10v2Z"/><path class="cb267-8" d="M10,13V11H9v3h1Z"/><path class="cb267-2" d="M11,16h2V15h1V14h1v1h1v1h2V15h2V14H18V13H11v1H9v1h2Z"/></svg>