<svg xmlns="http://www.w3.org/2000/svg" viewBox="0 0 29 33"><defs><style>polygon,rect,path{shape-rendering:crispedges;}.na120-1{fill:#29834f;}.na120-2{fill:#000000;}.na120-3{fill:#0079bc;}.na120-4{fill:#a89969;}.na120-5{fill:#512a24;}.na120-6{fill:#590035;}.na120-7{fill:#ffffff;}.na120-8{fill:#99004d;}.na120-9{fill:#fad000;}.na120-10{fill:#99004d;}.na120-11{fill:#d8be00;}.na120-12{fill:#455054;}.na120-13{fill:#29834f;}.na120-14{fill:#ff791f;}</style></defs><path class="na120-1" d="M0,33H8V32H6V31H5V22H6V21H7V20H5v1H2V17H5V16H8V15H9V14H8V12H9V11H8V10H9V9H8V8h2V7h1V8h1V6h1V7h1V8h1V7h1V6h1V7h1V8h1V7h1V8H19V9h2v2H20v1h1v1H20v1h1v2H20v3H19v1H18v1H17v1h1v1h1v2h2v1h1v1h1v6h6V0H0Z"/><path class="na120-1" d="M8,19v3H9v2H8v1h2V23h1V22h1V21H11V20H10V19H9V16H8v3Z"/><path class="na120-2" d="M6,29V22H5v9H6V29Z"/><path class="na120-2" d="M23,27H22v6h1V27Z"/><path class="na120-3" d="M21,28h1V27H21Z"/><path class="na120-3" d="M21,31v1h1V30H21Z"/><rect class="na120-2" x="21" y="26" width="1" height="1"/><path class="na120-2" d="M21,31V27H20v6h1V31Z"/><path class="na120-3" d="M18,26v2h1v1h1V27H19V25H18Z"/><path class="na120-3" d="M19,31V30H18v2h1v1h1V31Z"/><path class="na120-2" d="M20,26h1V25H19v1Z"/><path class="na120-2" d="M18,31V25H17v1H16v1h1v6h1V31Z"/><path class="na120-4" d="M17,27H16v2H15v1H14V29H13V27H12v6h5V27Z"/><path class="na120-5" d="M14,24h1v1h1V23H13v2h1Z"/><path class="na120-2" d="M12,27h1V26H12V25H11v8h1V27Z"/><path class="na120-3" d="M10,31V30H9v2h1v1h1V31Z"/><path class="na120-3" d="M10,26H9v2h1v1h1V27H10Z"/><path class="na120-2" d="M9,31V27H8V26h2V25H8V24H7v7H6v1H8v1H9V31Z"/><path class="na120-3" d="M7,30H6v1H7Z"/><path class="na120-3" d="M6,26v2H7V25H6Z"/><path class="na120-6" d="M19,28H18v2h1v1h1V29H19Z"/><path class="na120-6" d="M21,29v1h1V28H21Z"/><path class="na120-6" d="M21,32v1h1V32Z"/><path class="na120-6" d="M19,26v1h2V26H19Z"/><path class="na120-6" d="M18,32v1h1V32Z"/><path class="na120-6" d="M10,26v1h1V25H10Z"/><path class="na120-6" d="M10,28H9v2h1v1h1V29H10Z"/><path class="na120-6" d="M6,25H7V24H6Z"/><path class="na120-6" d="M6,29v1H7V28H6Z"/><path class="na120-6" d="M9,32v1h1V32Z"/><path class="na120-6" d="M8,26v1H9V26Z"/><path class="na120-2" d="M20,16h1V15H20Z"/><path class="na120-5" d="M10,16v3h1v1h1V18h5v2h1V19h1V16h1V15H16V13h2V10H17v1H16v1H15V10H14v1H13v2H10v1h3v1H9v1Zm4,0h1v1H14Z"/><path class="na120-5" d="M13,21v1h3V20H13Z"/><rect class="na120-5" x="10" y="11" width="1" height="1"/><rect class="na120-5" x="11" y="10" width="1" height="1"/><path class="na120-2" d="M19,17v2h1V16H19Z"/><rect class="na120-2" x="18" y="19" width="1" height="1"/><rect class="na120-2" x="17" y="20" width="1" height="1"/><path class="na120-2" d="M16,22H13V21H12v1H11v1h1v2h1V23h3v2h1V23h1V22H17V21H16Z"/><rect class="na120-2" x="11" y="20" width="1" height="1"/><rect class="na120-2" x="10" y="19" width="1" height="1"/><path class="na120-2" d="M10,16H9v3h1V16Z"/><rect class="na120-2" x="8" y="15" width="1" height="1"/><rect class="na120-2" x="14" y="16" width="1" height="1"/><path class="na120-7" d="M13,15V14H12v1Z"/><path class="na120-7" d="M11,15V14H10v1Z"/><path class="na120-7" d="M18,14v1h1V14Z"/><path class="na120-7" d="M16,14v1h1V14Z"/><path class="na120-2" d="M12,15V14H11v1Z"/><path class="na120-2" d="M17,14v1h1V14Z"/><path class="na120-8" d="M11,13h2V12H11Z"/><path class="na120-8" d="M18,14h1V13H16v1h2Z"/><rect class="na120-2" x="14" y="29" width="1" height="1"/><path class="na120-2" d="M15,28v1h1V27H15Z"/><path class="na120-2" d="M13,27v2h1V27Z"/><rect class="na120-2" x="14" y="24" width="1" height="1"/><rect class="na120-2" x="13" y="25" width="1" height="1"/><rect class="na120-2" x="15" y="25" width="1" height="1"/><rect class="na120-9" x="16" y="25" width="1" height="1"/><path class="na120-9" d="M15,25H14v1H13v1h1v2h1V27h1V26H15Z"/><rect class="na120-9" x="12" y="25" width="1" height="1"/><path class="na120-9" d="M11,23v2h1V23Z"/><path class="na120-9" d="M17,24v1h1V23H17Z"/><path class="na120-2" d="M19,25V23H18v2Z"/><path class="na120-2" d="M10,23v2h1V23Z"/><path class="na120-10" d="M13,20V19h3V18H12v3h1Z"/><path class="na120-10" d="M17,19H16v2h1V19Z"/><path class="na120-2" d="M13,20h3V19H13Z"/><path class="na120-2" d="M17,19V18H16v1Z"/><path class="na120-11" d="M10,14V13h1V12H10V11h1V10h1v1H11v1h2V11h1V10h1v2h1V11h1V10h1v3h1v2h2V14H20V13h1V12H20V11h1V9H19V8H18V7H17V6H16V7H15V8H14V7H13V6H12V8H11V7H10V8H8V9H9v1H8v1H9v1H8v2H9v1h1Z"/><rect class="na120-11" x="19" y="7" width="1" height="1"/><path class="na120-5" d="M7,24H8V22H6v2Z"/><path class="na120-12" d="M8,22V20H7v2Z"/><path class="na120-2" d="M7,21H6v1H7Z"/><path class="na120-2" d="M9,22H8v2H9Z"/><path class="na120-13" d="M4,17H2v4H4V17Z"/><path class="na120-14" d="M8,19V16H6v4H8Z"/><path class="na120-7" d="M6,16H5v1H4v4H5V20H6V16Z"/></svg>