<svg xmlns="http://www.w3.org/2000/svg" viewBox="0 0 29 33"><defs><style>polygon,rect,path{shape-rendering:crispedges;}.hb221-1{fill:#b4bd09;}.hb221-2{fill:#000000;}.hb221-3{fill:#efcaaf;}.hb221-4{fill:#663434;}.hb221-5{fill:#663434;}.hb221-6{fill:#ffffff;}.hb221-7{fill:#cc3232;}.hb221-8{fill:#fad000;}</style></defs><path class="hb221-1" d="M0,33H6V27H7V26H8V25h2V24h2V21H11V20H10V19H9V17H8V15H9V10h1V9h1V8h7V9h1v2h1v4h1v2H20v2H19v1H18v1H17v3h2v1h2v1h1v1h1v6h6V0H0Z"/><path class="hb221-2" d="M23,27H22v6h1V27Z"/><path class="hb221-3" d="M22,27H21v6h1V27Z"/><rect class="hb221-2" x="21" y="26" width="1" height="1"/><path class="hb221-2" d="M21,27H20v6h1V27Z"/><path class="hb221-3" d="M20,27h1V26H19V25H17V24H16V23H13v1H12v1H10v1H8v1H9v6h5V29h1v4h5V27Zm-8,2H11V28h1Zm6,0H17V28h1Z"/><path class="hb221-2" d="M20,26h1V25H19v1Z"/><rect class="hb221-2" x="17" y="28" width="1" height="1"/><path class="hb221-2" d="M18,25h1V24H17v1Z"/><path class="hb221-2" d="M15,29H14v4h1V29Z"/><path class="hb221-2" d="M13,23V22H12v2h1Z"/><rect class="hb221-2" x="11" y="28" width="1" height="1"/><path class="hb221-2" d="M12,24H10v1h2Z"/><path class="hb221-2" d="M10,25H8v1h2Z"/><path class="hb221-2" d="M9,27H8v6H9V27Z"/><path class="hb221-3" d="M8,27H7v6H8V27Z"/><rect class="hb221-2" x="7" y="26" width="1" height="1"/><path class="hb221-2" d="M7,27H6v6H7V27Z"/><path class="hb221-2" d="M21,16V15H20v1Z"/><path class="hb221-2" d="M19,14v1h1V11H19v3Z"/><path class="hb221-3" d="M18,16v1H16V16H15v1H14V16H13v1H11V16H10v2h1v1h1V18h5v1h1V18h1V16Z"/><rect class="hb221-3" x="9" y="15" width="1" height="1"/><rect class="hb221-3" x="13" y="20" width="1" height="1"/><path class="hb221-3" d="M18,10H17v1H16V10H15v1H14V10H13v1H12V10H11v1H10v2h1V12h2v2h3V12h2v1h1V11H18Z"/><rect class="hb221-3" x="14" y="15" width="1" height="1"/><rect class="hb221-3" x="15" y="20" width="1" height="1"/><rect class="hb221-3" x="19" y="15" width="1" height="1"/><path class="hb221-2" d="M19,16v1h1V16Z"/><path class="hb221-2" d="M16,23v1h1V22H16Z"/><rect class="hb221-2" x="13" y="9" width="1" height="1"/><rect class="hb221-2" x="15" y="9" width="1" height="1"/><rect class="hb221-2" x="11" y="9" width="1" height="1"/><rect class="hb221-2" x="17" y="9" width="1" height="1"/><rect class="hb221-2" x="10" y="10" width="1" height="1"/><path class="hb221-2" d="M10,14V11H9v4h1Z"/><path class="hb221-2" d="M10,16H9v1h1Z"/><path class="hb221-2" d="M9,15H8v1H9Z"/><rect class="hb221-2" x="14" y="16" width="1" height="1"/><path class="hb221-4" d="M19,14V13H18v1Z"/><path class="hb221-4" d="M18,12H16v1h2Z"/><path class="hb221-4" d="M11,13H10v1h1Z"/><path class="hb221-4" d="M13,12H11v1h2Z"/><path class="hb221-5" d="M13,23h3V22h1V21h1V20h1V19h1V17H19v1H18v1H16v2H15V20H14v1H13V19H11V18H10V17H9v2h1v1h1v1h1v1h1Z"/><path class="hb221-2" d="M12,18v1h1V18Z"/><path class="hb221-2" d="M16,18v1h1V18Z"/><path class="hb221-2" d="M15,18H14v1H13v1h3V19H15Z"/><path class="hb221-6" d="M14,18H13v1h1Z"/><path class="hb221-6" d="M15,18v1h1V18Z"/><path class="hb221-7" d="M18,11h1V9H18v2Z"/><path class="hb221-7" d="M12,10v1h1V9h1v2h1V9h1v2h1V9h1V8H11V9h1Z"/><rect class="hb221-7" x="10" y="9" width="1" height="1"/><path class="hb221-7" d="M10,10H9v1h1Z"/><path class="hb221-8" d="M20,17h1V16H20Z"/><path class="hb221-8" d="M8,16v1H9V16Z"/><path class="hb221-6" d="M12,14h1V13H11v1Z"/><path class="hb221-6" d="M11,17h2V16H11Z"/><polygon class="hb221-6" points="11 15 11 14 10 14 10 15 10 16 11 16 11 15"/><path class="hb221-2" d="M11,14v2h2V14H11Z"/><path class="hb221-6" d="M18,15v1h1V14H18Z"/><path class="hb221-6" d="M18,13H16v1h2Z"/><path class="hb221-6" d="M16,17h2V16H16Z"/><path class="hb221-6" d="M14,16V15h1v1h1V14H13v2Z"/><path class="hb221-2" d="M18,16V14H16v2Z"/></svg>