<svg xmlns="http://www.w3.org/2000/svg" viewBox="0 0 29 33"><defs><style>polygon,rect,path{shape-rendering:crispedges;}.da77-1{fill:#d4a122;}.da77-2{fill:#000000;}.da77-3{fill:#ffffff;}.da77-4{fill:#b2622b;}.da77-5{fill:#a8a07e;}.da77-6{fill:#ffffff;}.da77-7{fill:#99004d;}.da77-8{fill:#ff1d99;}.da77-9{fill:#a3531d;}.da77-10{fill:#ceccb3;}</style></defs><path class="da77-1" d="M20,25h1V24H19v1Z"/><path class="da77-1" d="M0,33H29V0H0Zm6-1V27H7V26H8V25h2V24h2V21H11V20H10V19H9V16H8V15H9V11h1V10h1V9h1V8h1V6h1V5h1V7h1V9h2v1h1v1h1v4h1v1H20v3H19v1H18v1H17v3h2V23h0V21h3v1h1v1h1v8H23v1H21v1H6Z"/><rect class="da77-2" x="7" y="26" width="1" height="1"/><path class="da77-2" d="M7,32V31H8v2H9V27H8v3H7V27H6v6H7Z"/><path class="da77-2" d="M10,25H8v1h2Z"/><path class="da77-2" d="M12,24H10v1h2Z"/><path class="da77-2" d="M13,23h3v1h1V21H16v1H13V21H12v3h1Z"/><path class="da77-2" d="M18,25h1V24H17v1Z"/><path class="da77-2" d="M22,30V24H21v1H19v1h2v1H20v6h1V32h2V31H22Z"/><path class="da77-2" d="M23,31h1V23H23v8Z"/><path class="da77-3" d="M9,27v6H20V27h1V26H19V25H17v1H16v1H13V26H12V25H10v1H8v1Zm7,4V28h3v1H17v2h1V30h1v2H16Zm-4-3h3v4H12Zm-2,3V28h1v4H10Z"/><rect class="da77-3" x="13" y="29" width="1" height="2"/><path class="da77-2" d="M13,26v1h3V26H13Z"/><path class="da77-4" d="M13,25v1h3V25h1V24H16V23H13v1H12v1Z"/><path class="da77-3" d="M7,30H8V27H7v3Z"/><path class="da77-4" d="M7,31v2H8V31Z"/><rect class="da77-2" x="16" y="25" width="1" height="1"/><rect class="da77-2" x="12" y="25" width="1" height="1"/><path class="da77-5" d="M15,28H12v4h3Zm-1,3H13V29h1Z"/><path class="da77-5" d="M11,31V28H10v4h1Z"/><path class="da77-5" d="M19,32V30H18v1H17V29h2V28H16v4h3Z"/><rect class="da77-2" x="20" y="15" width="1" height="1"/><path class="da77-2" d="M19,13v2h1V11H19v2Z"/><path class="da77-4" d="M13,22h3V21h1V20h1V19h1V16h1V15H16V13h1V12h2V11H18V10H16v1H15V10H11v1H10v2h1V12h2v1H11v1h2v1H9v1h1v3h1v1h1v1h1Zm1-6h1v1H14Zm-2,3V18h1v1h3v1H13V19Z"/><path class="da77-4" d="M18,14h1V13H17v1Z"/><path class="da77-2" d="M19,17v2h1V16H19Z"/><rect class="da77-2" x="18" y="10" width="1" height="1"/><rect class="da77-2" x="18" y="19" width="1" height="1"/><rect class="da77-2" x="17" y="20" width="1" height="1"/><path class="da77-2" d="M14,10V9H11v1h3Z"/><path class="da77-2" d="M17,10h1V9H16v1Z"/><rect class="da77-2" x="11" y="20" width="1" height="1"/><rect class="da77-2" x="10" y="10" width="1" height="1"/><rect class="da77-2" x="10" y="19" width="1" height="1"/><path class="da77-2" d="M10,14V11H9v4h1Z"/><path class="da77-2" d="M10,16H9v3h1V16Z"/><rect class="da77-2" x="8" y="15" width="1" height="1"/><rect class="da77-2" x="14" y="16" width="1" height="1"/><path class="da77-6" d="M13,15V14H12v1Z"/><path class="da77-6" d="M10,15h1V14H10Z"/><path class="da77-6" d="M18,14v1h1V14Z"/><path class="da77-6" d="M16,14v1h1V14Z"/><path class="da77-2" d="M12,15V14H11v1Z"/><path class="da77-2" d="M17,14v1h1V14Z"/><path class="da77-7" d="M11,14V13H10v1Z"/><rect class="da77-7" x="11" y="12" width="2" height="1"/><path class="da77-7" d="M17,13H16v1h1Z"/><path class="da77-7" d="M19,12H17v1h2Z"/><rect class="da77-2" x="13" y="19" width="3" height="1"/><rect class="da77-2" x="12" y="18" width="1" height="1"/><path class="da77-8" d="M14,10h1v1h1V7H15V5H14V6H13V8H12V9h2Z"/><path class="da77-9" d="M21,23H19v1h2Z"/><path class="da77-10" d="M22,22V21H19v2h3V22Z"/><path class="da77-4" d="M22,24v7h1V23H21v1Z"/><path class="da77-2" d="M23,22H22v1h1Z"/></svg>