<svg xmlns="http://www.w3.org/2000/svg" viewBox="0 0 29 33"><defs><style>polygon,rect,path{shape-rendering:crispedges;}.ib230-1{fill:#d4a122;}.ib230-2{fill:#000000;}.ib230-3{fill:#ce8452;}.ib230-4{fill:#ffffff;}.ib230-5{fill:#6c9302;}.ib230-6{fill:#6c9302;}.ib230-7{fill:#004a77;}.ib230-8{fill:#508e91;}</style></defs><path class="ib230-1" d="M6,32V27H7V26H8V25h2V24h2V21H11V20H10V19H9V16H8V12H9V11H8V10H9V9H8V8h2V7h1V8h1V6h1V7h1V8h1V7h1V6h1V7h1V8h1V7h1V8H19V9h2v2H20v1h1v1H20v1h1v2H20v3H19v1H18v1H17v3h2v1h2v1h1v1h1v6h6V0H0V33H6Z"/><path class="ib230-2" d="M23,27H22v6h1V27Z"/><path class="ib230-3" d="M22,27H21v6h1V27Z"/><rect class="ib230-2" x="21" y="26" width="1" height="1"/><path class="ib230-2" d="M21,27H20v6h1V27Z"/><path class="ib230-3" d="M20,27h1V26H19V25H17V24H16V23H13v1H12v1H10v1H8v1H9v6h5V29h1v4h5V27Zm-8,2H11V28h1Zm6,0H17V28h1Z"/><path class="ib230-2" d="M20,26h1V25H19v1Z"/><rect class="ib230-2" x="17" y="28" width="1" height="1"/><path class="ib230-2" d="M18,25h1V24H17v1Z"/><path class="ib230-2" d="M15,29H14v4h1V29Z"/><path class="ib230-2" d="M13,23h3v1h1V21H16v1H13V21H12v3h1Z"/><rect class="ib230-2" x="11" y="28" width="1" height="1"/><path class="ib230-2" d="M12,24H10v1h2Z"/><path class="ib230-2" d="M10,25H8v1h2Z"/><path class="ib230-2" d="M9,27H8v6H9V27Z"/><path class="ib230-3" d="M8,27H7v6H8V27Z"/><rect class="ib230-2" x="7" y="26" width="1" height="1"/><path class="ib230-2" d="M7,27H6v6H7V27Z"/><path class="ib230-2" d="M20,16h1V15H20Z"/><path class="ib230-3" d="M13,20v2h3V20Z"/><path class="ib230-3" d="M19,16V15H16v1h3Z"/><path class="ib230-3" d="M13,14h3V13h1V12h1V10H17v1H16v1H15V10H14v1H13v3Z"/><rect class="ib230-3" x="10" y="11" width="1" height="1"/><rect class="ib230-3" x="14" y="15" width="1" height="1"/><rect class="ib230-3" x="11" y="10" width="1" height="1"/><path class="ib230-3" d="M12,15H10v1h3V15Z"/><path class="ib230-3" d="M12,19V18h5v2h1V19h1V17H16V16H15v1H14V16H13v1H10v2h1v1h1Z"/><path class="ib230-2" d="M19,17v2h1V16H19Z"/><rect class="ib230-2" x="18" y="19" width="1" height="1"/><rect class="ib230-2" x="17" y="20" width="1" height="1"/><rect class="ib230-2" x="11" y="20" width="1" height="1"/><rect class="ib230-2" x="10" y="19" width="1" height="1"/><path class="ib230-2" d="M10,16H9v3h1V16Z"/><path class="ib230-2" d="M8,15v1H9V15Z"/><rect class="ib230-2" x="14" y="16" width="1" height="1"/><rect class="ib230-4" x="12" y="14" width="1" height="1"/><path class="ib230-4" d="M11,14H10v1h1Z"/><path class="ib230-4" d="M18,15h1V14H18Z"/><path class="ib230-4" d="M16,14v1h1V14Z"/><path class="ib230-2" d="M11,14v1h1V14Z"/><path class="ib230-2" d="M17,14v1h1V14Z"/><path class="ib230-5" d="M13,12H11v1h2Z"/><rect class="ib230-5" x="17" y="12" width="1" height="1"/><path class="ib230-6" d="M17,19V18H13v1h3v2h1V19Z"/><path class="ib230-6" d="M13,20V19H12v2h1Z"/><path class="ib230-2" d="M16,19H13v1h3Z"/><path class="ib230-2" d="M12,18v1h1V18Z"/><path class="ib230-7" d="M10,13h1V12H10V11h1V10h1v1H11v1h2V11h1V10h1v2h1V11h1V10h1v3h1v1h1V13h1V12H20V11h1V9H19V8H18V7H17V6H16V7H15V8H14V7H13V6H12V8H11V7H10V8H8V9H9v1H8v1H9v1H8v2h2Z"/><rect class="ib230-7" x="19" y="7" width="1" height="1"/><path class="ib230-8" d="M19,15v1h1V15h1V14H19Z"/><path class="ib230-8" d="M18,16H16v1h3V16Z"/><path class="ib230-8" d="M12,14h1V13H10v1h2Z"/><polygon class="ib230-8" points="16 13 16 14 17 14 18 14 19 14 19 13 18 13 17 13 16 13"/><path class="ib230-8" d="M16,14H13v2h1V15h1v1h1V14Z"/><path class="ib230-8" d="M10,16v1h3V16H10Z"/><path class="ib230-8" d="M10,15V14H8v1H9v1h1Z"/></svg>