<svg xmlns="http://www.w3.org/2000/svg" viewBox="0 0 29 33"><defs><style>polygon,rect,path{shape-rendering:crispedges;}.ea218-1{fill:#e55b35;}.ea218-2{fill:#000000;}.ea218-3{fill:#d8be00;}.ea218-4{fill:#e8b795;}.ea218-5{fill:#ffffff;}.ea218-6{fill:#af8423;}.ea218-7{fill:#af8423;}.ea218-8{fill:#508e5d;}</style></defs><polygon class="ea218-1" points="14 16 14 16 14 17 15 17 15 17 14 17 14 16"/><path class="ea218-1" d="M0,33H6V27H7V26H8V25h2V24h2V21H11V20H10V19H9V16H8V15H9V11h1V10h1V7h1V6H11V5h2V6h2V7h1V9h2v1h1v1h1v4h1v1H20v3H19v1H18v1H17v3h2v1h2v1h1v1h1v6h6V0H0Z"/><path class="ea218-2" d="M23,27H22v3H21V27H20v6h1V31h1v2h1V27Z"/><rect class="ea218-2" x="21" y="26" width="1" height="1"/><path class="ea218-3" d="M21,28v2h1V27H21Z"/><path class="ea218-4" d="M21,31v2h1V31Z"/><path class="ea218-2" d="M20,26h1V25H19v1Z"/><rect class="ea218-3" x="10" y="29" width="1" height="1"/><path class="ea218-3" d="M19,32V31H18v1H17V29h1V28h1v1h1V27h1V26H19V25H17v1H16v1H13V26H12V25H10v1H8v1H9v2h1V28h1v1h1v3H11V31H10v1H9v1H20V32Zm-3-2v1H15v1H13V28h2v1h1Z"/><rect class="ea218-3" x="18" y="29" width="1" height="1"/><path class="ea218-3" d="M15,29H14v2h1V29Z"/><path class="ea218-2" d="M18,25h1V24H17v1Z"/><rect class="ea218-2" x="16" y="25" width="1" height="1"/><path class="ea218-2" d="M13,26v1h3V26H13Z"/><path class="ea218-2" d="M13,23h3v1h1V21H16v1H13V21H12v3h1Z"/><path class="ea218-4" d="M13,25v1h3V25h1V24H16V23H13v1H12v1Z"/><rect class="ea218-2" x="12" y="25" width="1" height="1"/><path class="ea218-2" d="M12,24H10v1h2Z"/><path class="ea218-2" d="M10,25H8v1h2Z"/><path class="ea218-2" d="M9,31V27H8v3H7V27H6v6H7V31H8v2H9V31Z"/><rect class="ea218-2" x="7" y="26" width="1" height="1"/><path class="ea218-3" d="M7,30H8V27H7v3Z"/><path class="ea218-4" d="M7,31v2H8V31Z"/><path class="ea218-5" d="M19,30H18V29H17v3h1V31h1v1h1V29H19Z"/><rect class="ea218-5" x="18" y="28" width="1" height="1"/><path class="ea218-5" d="M15,30v1h1V29H15Z"/><path class="ea218-5" d="M14,30V29h1V28H13v4h2V31H14Z"/><path class="ea218-5" d="M9,32h1V31h1v1h1V29H11v1H10V29H9v3Z"/><rect class="ea218-5" x="10" y="28" width="1" height="1"/><rect class="ea218-4" x="11" y="20"/><rect class="ea218-4" x="18" y="20"/><rect class="ea218-4" x="12" y="21"/><rect class="ea218-4" x="19" y="19"/><path class="ea218-4" d="M10,14h1V13H10V12h2v1h4V12h2v1h1v1h0V11H18V10H16v1H14V10H11v1H10v3Z"/><rect class="ea218-4" x="18" y="10"/><rect class="ea218-4" x="11" y="10"/><rect class="ea218-4" x="17" y="21"/><rect class="ea218-4" x="9" y="16"/><rect class="ea218-4" x="10" y="19"/><path class="ea218-4" d="M19,15H18v1H16V15H15V14H14v1H13v1H11V15H9v1h1v3h1v1h1v1h2V19h1v2h2V20h1V19h1V16h1V15Zm-4,2H14V16h1Z"/><path class="ea218-2" d="M19,16v3h1V16H19Z"/><polygon class="ea218-2" points="18 11 19 11 19 11 19 10 18 10 18 10 18 11"/><polygon class="ea218-2" points="18 19 18 20 18 20 19 20 19 19 19 19 18 19"/><polygon class="ea218-2" points="17 20 17 21 17 21 18 21 18 20 18 20 17 20"/><path class="ea218-2" d="M18,10h0V9H16v1Z"/><path class="ea218-2" d="M12,10h1V9H11v1h1Z"/><polygon class="ea218-2" points="12 20 11 20 11 20 11 21 12 21 12 21 12 20"/><polygon class="ea218-2" points="11 11 11 10 11 10 10 10 10 11 10 11 11 11"/><polygon class="ea218-2" points="11 19 10 19 10 19 10 20 11 20 11 20 11 19"/><path class="ea218-2" d="M10,18V16H9v3h1Z"/><path class="ea218-2" d="M9,15h2v1h2V15h1V14h1v1h1v1h2V15h2v1h1V15H20V11H19v3H18V13H11v1H10V11H9v4H8v1H9Z"/><polygon class="ea218-2" points="14 16 14 17 15 17 15 17 15 16 14 16 14 16"/><polygon class="ea218-6" points="18 13 18 14 19 14 19 13 18 13"/><path class="ea218-6" d="M16,12v1h2V12Z"/><path class="ea218-6" d="M10,12v1h2V12Z"/><path class="ea218-7" d="M15,20H14v1H13v1h3V21H15Z"/><path class="ea218-2" d="M15,19H14v1h1Z"/><path class="ea218-8" d="M13,10h1v1h2V7H15V6H13V5H11V6h1V7H11V9h2Z"/><rect class="ea218-8" x="10" y="9" width="1" height="1"></rect></svg>