<svg xmlns="http://www.w3.org/2000/svg" viewBox="0 0 29 33"><defs><style>polygon,rect,path{shape-rendering:crispedges;}.oa300-1{fill:#7a982c;}.oa300-2{fill:#000000;}.oa300-3{fill:#45ba00;}.oa300-4{fill:#333333;}.oa300-5{fill:#ce8452;}.oa300-6{fill:#ffffff;}.oa300-7{fill:#316a6d;}.oa300-8{fill:#ff1f4a;}.oa300-9{fill:#560000;}.oa300-10{fill:#b23b00;}</style></defs><path class="oa300-1" d="M0,33H6V27H7V26H8V25h2V24h2V21H11V20H9V19H8V11H9V10h1V9h1V8h7V9h1v1h1v1h1v8H20v1H18v1H17v3h2v1h2V23H20V21h1V20h1V19h2v1h1v3H24v8H23v1H21v1h8V0H0Z"/><path class="oa300-2" d="M23,24v7h1V23H23Z"/><path class="oa300-2" d="M7,27H6v6H7V27Z"/><path class="oa300-3" d="M8,27H7v6H8V27Z"/><rect class="oa300-2" x="7" y="26" width="1" height="1"/><path class="oa300-2" d="M9,27H8v6H9V27Z"/><path class="oa300-3" d="M11,25H10v1H8v1H9v6h2V25Z"/><path class="oa300-2" d="M10,25H8v1h2Z"/><path class="oa300-2" d="M12,26h1V25H12V24H10v1h1v8h1V26Z"/><path class="oa300-4" d="M17,26H16v1H13V26H12v7h5V26Z"/><path class="oa300-2" d="M13,23h3v1h1V21H16v1H13V21H12v3h1Z"/><path class="oa300-2" d="M13,26v1h3V26H13Z"/><path class="oa300-5" d="M13,25v1h3V25h1V24H16V23H13v1H12v1Z"/><path class="oa300-2" d="M18,25h1V24H17v1H16v1h1v7h1V25Z"/><path class="oa300-3" d="M20,27h1V26H19V25H18v8h2V27Z"/><path class="oa300-2" d="M22,32h1V31H22V23H21v2H19v1h2v1H20v6h1V32Z"/><path class="oa300-3" d="M23,24H22v7h1V24Z"/><rect class="oa300-5" x="9" y="15" width="1" height="1"/><path class="oa300-5" d="M13,22h3V21h1V20h1V19h1V16h1V15H16V13h1V11H15v4H14v1h1v1H14V16H13v1H11V16H10v3h1v1h1v1h1Zm0-3h3V18h1v1H16v1H13Z"/><path class="oa300-2" d="M20,16H19v3h1V16Z"/><path class="oa300-2" d="M18,19v1h1V19Z"/><rect class="oa300-2" x="17" y="20" width="1" height="1"/><rect class="oa300-2" x="11" y="20" width="1" height="1"/><path class="oa300-2" d="M10,19v1h1V19Z"/><path class="oa300-2" d="M10,18V16H9v3h1Z"/><rect class="oa300-2" x="14" y="16" width="1" height="1"/><path class="oa300-6" d="M18,14v1h1V14Z"/><path class="oa300-6" d="M16,14v1h1V14Z"/><path class="oa300-2" d="M17,14v1h1V14Z"/><path class="oa300-7" d="M18,14h1V13H16v1h2Z"/><rect class="oa300-2" x="13" y="19" width="3" height="1"/><rect class="oa300-2" x="16" y="18" width="1" height="1"/><path class="oa300-2" d="M20,21v2h1V21Z"/><rect class="oa300-2" x="21" y="20" width="1" height="1"/><rect class="oa300-2" x="22" y="19" width="2" height="1"/><path class="oa300-2" d="M24,23h1V20H24v3Z"/><path class="oa300-5" d="M22,24h1V23h1V20H22v1H21v2h1Z"/><path class="oa300-8" d="M12,15h1V13H11v2Z"/><path class="oa300-9" d="M13,13v2h1V13Z"/><polygon class="oa300-9" points="12 15 11 15 11 16 13 16 13 15 12 15"/><path class="oa300-9" d="M11,14H10v1h1Z"/><path class="oa300-9" d="M13,12H12v1h1Z"/><rect class="oa300-2" x="10" y="15" width="1" height="1"/><rect class="oa300-2" x="11" y="16" width="2" height="1"/><rect class="oa300-2" x="13" y="15" width="1" height="1"/><path class="oa300-2" d="M14,10v1H13v2h1v2h1V10Z"/><path class="oa300-10" d="M9,16V15h1V14h1V13h1V12h1V11h1V10h1v1h2v2h2v2h1v4h1V11H20V10H19V9H18V8H11V9H10v1H9v1H8v8H9V16Z"/><path class="oa300-10" d="M9,19v1h1V19Z"/><path class="oa300-10" d="M19,20h1V19H19Z"/></svg>