<svg xmlns="http://www.w3.org/2000/svg" viewBox="0 0 29 33"><defs><style>polygon,rect,path{shape-rendering:crispedges;}.xa38-1{fill:#6b4f99;}.xa38-2{fill:#000000;}.xa38-3{fill:#ffffff;}.xa38-4{fill:#ce8452;}.xa38-5{fill:#8ab2b2;}.xa38-6{fill:#6f7032;}.xa38-7{fill:#cc2f76;}.xa38-8{fill:#ff1d99;}.xa38-9{fill:#6e12ff;}.xa38-10{fill:#f62;}.xa38-11{fill:#ffffff;}.xa38-12{fill:#f9db00;}.xa38-13{fill:#1261ff;}.xa38-14{fill:#00c650;}.xa38-15{fill:#e20026;}</style></defs><path class="xa38-1" d="M0,33H6V26H5V25H6V22H9V21H8V20H9V17H8V12H9V10h1V9h1V8h7V9h1v1h1v2h1v6H20v2h1v1H20v1H19v3h2v1h1v1h1v6h6V0H0Z"/><rect class="xa38-1" x="10" y="21" width="1" height="1"/><rect class="xa38-1" x="18" y="21" width="1" height="1"/><path class="xa38-1" d="M9,24v1h1V22H9v2Z"/><path class="xa38-2" d="M7,30V26H6v7H7V30Z"/><path class="xa38-2" d="M23,27H22v6h1V27Z"/><rect class="xa38-2" x="21" y="26" width="1" height="1"/><path class="xa38-3" d="M21,31v1h1V30H21Z"/><path class="xa38-3" d="M21,28h1V27H21Z"/><path class="xa38-2" d="M21,31V27H20v4H14V27H13v4H9V26H8v7H9V32H20v1h1V31Z"/><path class="xa38-2" d="M20,26h1V25H19v1Z"/><path class="xa38-3" d="M16,32v1h1V32Z"/><path class="xa38-3" d="M13,32v1h1V32Z"/><path class="xa38-3" d="M19,32v1h1V32Z"/><path class="xa38-3" d="M10,32v1h1V32Z"/><path class="xa38-2" d="M18,23v2h1V22H18Z"/><rect class="xa38-3" x="20" y="26" width="1" height="1"/><path class="xa38-3" d="M18,30V28H17V27H16V25H15v3h1v1h1v2h2V30Z"/><path class="xa38-3" d="M18,24H16v1h1v1h1v2h1v1h1V27H19V25H18Z"/><rect class="xa38-3" x="17" y="22" width="1" height="1"/><path class="xa38-3" d="M15,30V28H14v3h2V30Z"/><rect class="xa38-2" x="15" y="24" width="1" height="1"/><path class="xa38-2" d="M15,26V25H14v2h1Z"/><path class="xa38-4" d="M15,23H13v1h1v1h1V24h1V23Z"/><rect class="xa38-2" x="13" y="24" width="1" height="1"/><path class="xa38-2" d="M12,22v2h1V23h3v1h1V22h1V20H17v1H16v1H13V21H12V20H11v2Z"/><path class="xa38-2" d="M11,24V22H10v3h1Z"/><path class="xa38-3" d="M9,30v1h1V30Z"/><path class="xa38-3" d="M12,29V28H11V27H10V26H9v2h1v1h1v2h2V30H12Z"/><path class="xa38-3" d="M12,22H11v1h1Z"/><path class="xa38-3" d="M12,25V24H11v2h1v2h1V25Z"/><path class="xa38-4" d="M7,27H8V26H9V25H6v1H7Z"/><path class="xa38-3" d="M7,28v1H8V27H7Z"/><path class="xa38-3" d="M7,31v2H8V31Z"/><rect class="xa38-4" x="14" y="15" width="1" height="1"/><path class="xa38-4" d="M12,21h1v1h3V21h1V20h1V19h1V17H16V16H15v1H14V16H13v1H10v2h1v1h1Zm2-2h1v1H14Z"/><path class="xa38-4" d="M14,14h2V12h1V11H16V10H15v1H14v1H13v2Z"/><path class="xa38-2" d="M19,16v3h1V16Z"/><rect class="xa38-2" x="18" y="19" width="1" height="1"/><rect class="xa38-2" x="10" y="19" width="1" height="1"/><path class="xa38-2" d="M10,18H9v1h1Z"/><rect class="xa38-2" x="14" y="16" width="1" height="1"/><path class="xa38-5" d="M19,28H18v2h1v1h1V29H19Z"/><path class="xa38-5" d="M21,32v1h1V32Z"/><path class="xa38-5" d="M17,27v1h1V26H17V25H16v2Z"/><path class="xa38-5" d="M19,26v1h1V26Z"/><path class="xa38-5" d="M21,29v1h1V28H21Z"/><path class="xa38-5" d="M18,32H17v1h2V32Z"/><path class="xa38-5" d="M16,29V28H15v2h1v1h1V29Z"/><path class="xa38-5" d="M15,27H14v1h1Z"/><path class="xa38-5" d="M13,25v2h1V25Z"/><path class="xa38-5" d="M15,32H14v1h2V32Z"/><path class="xa38-5" d="M12,29v1h1V28H12Z"/><rect class="xa38-5" x="12" y="24" width="1" height="1"/><path class="xa38-5" d="M10,27h1v1h1V26H11V25H10v2Z"/><path class="xa38-5" d="M12,32H11v1h2V32Z"/><path class="xa38-5" d="M10,29V28H9v2h1v1h1V29Z"/><path class="xa38-5" d="M9,32v1h1V32Z"/><path class="xa38-5" d="M7,30v1H8V29H7Z"/><path class="xa38-5" d="M11,23v1h1V23Z"/><path class="xa38-5" d="M17,24h1V23H17Z"/><path class="xa38-6" d="M16,13h2V12H16Z"/><rect class="xa38-2" x="14" y="19" width="1" height="1"/><path class="xa38-7" d="M19,20H18v1h1v1h1V21h1V20H20V19H19Z"/><path class="xa38-7" d="M10,21h1V20H10V19H9v1H8v1H9v1h1Z"/><path class="xa38-7" d="M20,16v2h1V15H20Z"/><path class="xa38-7" d="M10,13h3V12h1V11h1V10h1v1h1v1h1v1h1v1h2V12H20V10H19V9H18V8H11V9H10v1H9v2H8v2h2Z"/><path class="xa38-7" d="M10,17V16H9V15H8v2H9v1h1Z"/><path class="xa38-8" d="M19,16h1V15h1V14H19Z"/><path class="xa38-8" d="M16,14h3V13H16Z"/><path class="xa38-9" d="M16,14v2h3V14H16Z"/><path class="xa38-8" d="M16,16v1h3V16H16Z"/><path class="xa38-8" d="M14,14H13v2h1V15h1v1h1V14Z"/><path class="xa38-8" d="M13,14V13H10v1h3Z"/><path class="xa38-9" d="M13,16V14H10v2h3Z"/><path class="xa38-8" d="M13,17V16H10v1h3Z"/><path class="xa38-8" d="M9,16h1V14H8v1H9Z"/><path class="xa38-10" d="M7,22H6v1H7Z"/><path class="xa38-11" d="M8,23V22H7v1Z"/><path class="xa38-12" d="M9,24V23H8v1Z"/><path class="xa38-13" d="M7,24H6v1H7Z"/><path class="xa38-10" d="M8,24v1H9V24Z"/><rect class="xa38-14" x="7" y="23" width="1" height="1"/><path class="xa38-12" d="M7,24v1H8V24Z"/><path class="xa38-15" d="M7,23H6v1H7Z"/><path class="xa38-15" d="M9,23V22H8v1Z"/><rect class="xa38-2" x="5" y="25" width="1" height="1"/><path class="xa38-2" d="M10,25H9v1h1Z"/></svg>