<svg xmlns="http://www.w3.org/2000/svg" viewBox="0 0 29 33"><defs><style>polygon,rect,path{shape-rendering:crispedges;}.pa165-1{fill:#6b4f99;}.pa165-2{fill:#000000;}.pa165-3{fill:#508e5d;}.pa165-4{fill:#ce8452;}.pa165-5{fill:#c5e2d0;}.pa165-6{fill:#ffffff;}.pa165-7{fill:#893a1f;}.pa165-8{fill:#ff6c77;}.pa165-9{fill:#cc3232;}.pa165-10{fill:#455054;}.pa165-11{fill:#ff1f4a;}</style></defs><rect class="pa165-1" x="12" y="8" width="1" height="1"/><path class="pa165-1" d="M0,33H8V32H6V31H5V22H6V21H7V20H5v1H2V17H5V16H8V15H9V11h1V10H9V9h1V8h2V7h1V8h3V9h1V8h1V9h1v1h1v5h1v1H20v3H19v1H18v2h1v1H18v1h1v1h2v1h1v1h1v6h6V0H0Z"/><path class="pa165-1" d="M8,19v3H9v2H8v1h2V24h1V23H10V22h1V20H10V19H9V16H8v3Z"/><path class="pa165-2" d="M6,24V22H5v9H6V24Z"/><path class="pa165-2" d="M23,27H22v6h1V27Z"/><path class="pa165-3" d="M22,27H21v6h1V27Z"/><rect class="pa165-2" x="21" y="26" width="1" height="1"/><path class="pa165-2" d="M21,27H20v6h1V27Z"/><rect class="pa165-3" x="18" y="29" width="1" height="1"/><path class="pa165-3" d="M16,25h1v4h1V28h1v1h1V27h1V26H19V25H18V24H16Z"/><path class="pa165-3" d="M19,32V31H18v1H17V30H16v1H15v1H13V30H12v2H11V31H10v1H9v1H20V32Z"/><path class="pa165-3" d="M10,28h1v1h1V25h1V24H11v1H10v1H8v1H9v2h1Z"/><rect class="pa165-3" x="10" y="29" width="1" height="1"/><path class="pa165-2" d="M20,26h1V25H19v1Z"/><rect class="pa165-2" x="18" y="24" width="1" height="1"/><rect class="pa165-2" x="18" y="22" width="1" height="1"/><rect class="pa165-3" x="17" y="22" width="1" height="1"/><path class="pa165-2" d="M14,25h2V24H13v1Z"/><path class="pa165-4" d="M16,24V23H13v1h3Z"/><rect class="pa165-3" x="11" y="22" width="1" height="1"/><rect class="pa165-2" x="10" y="24" width="1" height="1"/><rect class="pa165-2" x="10" y="22" width="1" height="1"/><path class="pa165-2" d="M9,31V27H8V26h2V25H8V24H7v7H6v1H8v1H9V31Z"/><path class="pa165-3" d="M7,30V24H6v7H7Z"/><path class="pa165-3" d="M13,25v3h2v1h1V25H13Z"/><path class="pa165-3" d="M14,29v2h1V29Z"/><path class="pa165-5" d="M19,30H18V29H17v3h1V31h1v1h1V29H19Z"/><rect class="pa165-5" x="18" y="28" width="1" height="1"/><path class="pa165-5" d="M15,29v2h1V29Z"/><path class="pa165-5" d="M14,30V29h1V28H13v4h2V31H14Z"/><path class="pa165-5" d="M11,29v1H10V29H9v3h1V31h1v1h1V29Z"/><rect class="pa165-5" x="10" y="28" width="1" height="1"/><path class="pa165-2" d="M13,25H12v5h1V25Z"/><path class="pa165-2" d="M17,28V25H16v5h1V28Z"/><rect class="pa165-2" x="20" y="15" width="1" height="1"/><path class="pa165-4" d="M10,13v1h2V13Z"/><rect class="pa165-4" x="16" y="10" width="1" height="1"/><path class="pa165-4" d="M10,16v3h1v1h1v1h1v1h3V21h1V20h1V19h1V16h1V15H16V14h2V13H13v2H9v1Zm4,0h1v1H14Zm-1,3h3V18h1v1H16v1H13Z"/><path class="pa165-2" d="M19,17v2h1V16H19Z"/><rect class="pa165-2" x="18" y="19" width="1" height="1"/><path class="pa165-2" d="M17,21H16v1H13V21H12V20H11v2h1v1H11v1h2V23h3v1h2V23H17V22h1V20H17Z"/><rect class="pa165-2" x="10" y="19" width="1" height="1"/><path class="pa165-2" d="M10,16H9v3h1V16Z"/><rect class="pa165-2" x="8" y="15" width="1" height="1"/><rect class="pa165-2" x="14" y="16" width="1" height="1"/><path class="pa165-6" d="M18,14v1h1V14Z"/><path class="pa165-6" d="M12,15h1V14H12Z"/><path class="pa165-2" d="M17,14H16v1h2V14Z"/><path class="pa165-2" d="M12,15V14H9v1h3Z"/><rect class="pa165-7" x="18" y="13" width="1" height="1"/><path class="pa165-7" d="M12,14h1V13H12Z"/><rect class="pa165-2" x="13" y="19" width="3" height="1"/><rect class="pa165-2" x="16" y="18" width="1" height="1"/><path class="pa165-8" d="M19,14v1h1V13H19Z"/><path class="pa165-8" d="M16,11V10h1v1h3V10H19V9H18V8H17V9H16V8H13V9H12V8H10V9H9v1h1v1h6Z"/><path class="pa165-8" d="M10,13H9v1h1Z"/><rect class="pa165-8" x="12" y="7" width="1" height="1"/><path class="pa165-6" d="M20,12V11H9v1H20Z"/><path class="pa165-9" d="M12,13h8V12H9v1h3Z"/><path class="pa165-4" d="M7,24H8V22H6v2Z"/><path class="pa165-10" d="M8,22V20H7v2Z"/><path class="pa165-2" d="M7,21H6v1H7Z"/><path class="pa165-2" d="M9,22H8v2H9Z"/><path class="pa165-6" d="M4,19V18H5V17H3v4H5V20H4Z"/><path class="pa165-6" d="M6,16H5v1H6v2H5v1H7V16Z"/><path class="pa165-11" d="M2,17v4H3V17Z"/><path class="pa165-11" d="M8,19V16H7v4H8Z"/><path class="pa165-11" d="M6,19V17H5v1H4v2H5V19Z"/></svg>