<svg xmlns="http://www.w3.org/2000/svg" viewBox="0 0 29 33"><defs><style>polygon,rect,path{shape-rendering:crispedges;}.hb118-1{fill:#29834f;}.hb118-2{fill:#000000;}.hb118-3{fill:#a56e49;}.hb118-4{fill:#ffffff;}.hb118-5{fill:#66334f;}.hb118-6{fill:#cc3232;}.hb118-7{fill:#004a77;}.hb118-8{fill:#fad000;}.hb118-9{fill:#455054;}.hb118-10{fill:#0068ff;}.hb118-11{fill:#ffce00;}.hb118-12{fill:#ff1f4a;}</style></defs><path class="hb118-1" d="M0,33H8V32H6V31H5V22H6V21H7V20H5v1H2V17H5V16H8V15H9V11h1V9h1V7h1V6H11V5h2V6h2V7h1V9h2v1h1v1h1v4h1v2H20v3H19v1H18v1H17v2h2v1h2v1h1v1h1v6h6V0H0Z"/><path class="hb118-1" d="M11,22V21H10V20H9V17H8v5H9v2H8v1h2V24h2V22Z"/><path class="hb118-2" d="M6,22H5v9H6V22Z"/><path class="hb118-2" d="M23,27H22v6h1V27Z"/><path class="hb118-3" d="M22,27H21v6h1V27Z"/><rect class="hb118-2" x="21" y="26" width="1" height="1"/><path class="hb118-2" d="M21,27H20v6h1V27Z"/><path class="hb118-3" d="M20,27h1V26H19V25H17V24H16V23H13v1H12v1H10v1H8v1H9v6h5V29h1v4h5V27Zm-8,2H11V28h1Zm6,0H17V28h1Z"/><path class="hb118-2" d="M20,26h1V25H19v1Z"/><rect class="hb118-2" x="17" y="28" width="1" height="1"/><path class="hb118-2" d="M18,25h1V24H17v1Z"/><path class="hb118-2" d="M15,29H14v4h1V29Z"/><rect class="hb118-2" x="11" y="28" width="1" height="1"/><path class="hb118-2" d="M10,25h2V24H10Z"/><path class="hb118-2" d="M9,27H8V26h2V25H8V24H7v7H6v1H8v1H9V27Z"/><path class="hb118-3" d="M7,30V24H8V22H6v9H7Z"/><path class="hb118-2" d="M21,16V15H20v1Z"/><path class="hb118-2" d="M19,13v2h1V11H19v2Z"/><rect class="hb118-3" x="15" y="20" width="1" height="1"/><rect class="hb118-3" x="13" y="20" width="1" height="1"/><path class="hb118-3" d="M10,16v2h1v1h1V18h2v1h1V18h2v1h1V18h1V16h1V15H16V14h3V13H16V12h3V11H18V10H16v1H14V10H11v1H10v1h3v1H10v1h3v1H9v1Zm4,0h1v1H14Z"/><rect class="hb118-2" x="18" y="10" width="1" height="1"/><path class="hb118-2" d="M12,22v2h1V22Z"/><path class="hb118-2" d="M16,23v1h1V22H16Z"/><path class="hb118-2" d="M12,10h1V9H11v1Z"/><path class="hb118-2" d="M17,10h1V9H16v1Z"/><path class="hb118-2" d="M11,10H10v1h1Z"/><rect class="hb118-2" x="8" y="15" width="1" height="1"/><rect class="hb118-2" x="14" y="16" width="1" height="1"/><path class="hb118-4" d="M18,14v1h1V14Z"/><path class="hb118-4" d="M13,15V14H12v1Z"/><path class="hb118-2" d="M17,14H16v1h2V14Z"/><path class="hb118-2" d="M12,15V14H10V11H9v4h3Z"/><path class="hb118-5" d="M13,13V12H10v1Z"/><path class="hb118-5" d="M16,12v1h3V12Z"/><path class="hb118-6" d="M16,18H15v1h1Z"/><path class="hb118-6" d="M19,16v2H18v1H16v2H15V20H14v1H13V19h1V18H12v1H11V18H10V16H9v4h1v1h1v1h2v1h3V22h2V21h1V20h1V16Z"/><path class="hb118-2" d="M13,20h3V19H13Z"/><path class="hb118-2" d="M17,19V18H16v1Z"/><path class="hb118-7" d="M13,10h1v1h2V7H15V6H13V5H11V6h1V7H11V9h2Z"/><path class="hb118-7" d="M11,9H10v1h1Z"/><path class="hb118-8" d="M20,17h1V16H20Z"/><path class="hb118-8" d="M9,17V16H8v1Z"/><path class="hb118-9" d="M8,22V20H7v2Z"/><path class="hb118-2" d="M7,21H6v1H7Z"/><path class="hb118-2" d="M9,22H8v2H9Z"/><path class="hb118-10" d="M8,19V16H6v4H8Z"/><path class="hb118-11" d="M6,16H5v1H4v4H5V20H6V16Z"/><path class="hb118-12" d="M4,17H2v4H4V17Z"/><rect class="hb118-7" x="10" y="9" width="1" height="1"></rect></svg>