<svg xmlns="http://www.w3.org/2000/svg" viewBox="0 0 29 33"><defs><style>polygon,rect,path{shape-rendering:crispedges;}polygon,rect,path{shape-rendering:crispedges;}.kb233-1{fill:#a9a9a9;}.kb233-2{fill:#bbbbbb;}.kb233-3{fill:#04263a;}.kb233-4{fill:#0068f5;}.kb233-5{fill:#008dff;}.kb233-6{fill:#008b4c;}.kb233-7{fill:#ffffff;}.kb233-8{fill:#004480;}.kb233-9{fill:#000000;}.kb233-10{fill:#b2622b;}.kb233-11{fill:#e2e2e2;}.kb233-12{fill:#e2e2e2;}.kb233-13{fill:#00e2b7;}.kb233-14{fill:#0068ff;}.kb233-15{fill:#ff1f4a;}.kb233-16{fill:#fafafa;}</style></defs><polygon class="kb233-1" points="28 25 27 25 27 26 28 26 29 26 29 25 29 24 28 24 28 25"/><path class="kb233-9" d="M27,0H0V23H3V22H8V21h3V20H10V19H9V16H8V15H9V10h1V9h1V8h7V9h1v1h1v5h1v1H20v3H19v1H18v1h2V20h4v1h1v1h1v1h3V0H27Zm0,5V7H22V6H21V5H20V4h1V3h1V2h3V3h1V4h1Z"/><polygon class="kb233-1" points="27 32 26 32 26 31 25 31 24 31 23 31 23 32 23 33 24 33 25 33 26 33 27 33 28 33 28 32 27 32"/><polygon class="kb233-1" points="27 27 26 27 25 27 25 28 24 28 24 29 24 30 25 30 26 30 27 30 28 30 28 31 29 31 29 30 29 29 29 28 29 27 28 27 27 27"/><polygon class="kb233-2" points="18 23 17 23 17 24 18 24 19 24 19 23 18 23"/><polygon class="kb233-2" points="11 23 10 23 10 24 11 24 12 24 12 23 11 23"/><rect class="kb233-2" x="24" y="27" width="1" height="1"/><polygon class="kb233-2" points="17 22 18 22 19 22 19 21 18 21 17 21 17 22"/><polygon class="kb233-2" points="4 32 4 31 5 31 6 31 6 30 5 30 5 29 6 29 6 28 5 28 5 27 6 27 7 27 7 26 8 26 8 25 7 25 6 25 6 24 5 24 5 23 6 23 7 23 7 22 6 22 5 22 4 22 3 22 3 23 2 23 1 23 1 24 2 24 3 24 4 24 4 25 5 25 5 26 4 26 3 26 2 26 2 25 1 25 1 24 0 24 0 25 0 26 1 26 1 27 2 27 3 27 3 28 4 28 4 29 4 30 3 30 2 30 2 31 1 31 0 31 0 32 0 33 1 33 2 33 3 33 3 32 4 32"/><polygon class="kb233-2" points="28 30 27 30 26 30 25 30 24 30 24 29 24 28 23 28 23 29 23 30 23 31 24 31 25 31 26 31 26 32 27 32 28 32 28 33 29 33 29 32 29 31 28 31 28 30"/><polygon class="kb233-2" points="27 23 27 24 26 24 26 25 26 26 25 26 25 27 26 27 27 27 28 27 29 27 29 26 28 26 27 26 27 25 28 25 28 24 29 24 29 23 28 23 27 23"/><polygon class="kb233-2" points="10 22 11 22 12 22 12 21 11 21 10 21 9 21 8 21 8 22 9 22 10 22"/><polygon class="kb233-2" points="9 24 8 24 8 25 9 25 10 25 10 24 9 24"/><rect class="kb233-3" x="26" y="6" width="1" height="1"/><polygon class="kb233-4" points="26 5 26 6 27 6 27 5 27 4 26 4 26 5"/><rect class="kb233-4" x="25" y="6" width="1" height="1"/><rect class="kb233-5" x="25" y="5" width="1" height="1"/><rect class="kb233-6" x="25" y="4" width="1" height="1"/><rect class="kb233-7" x="25" y="3" width="1" height="1"/><rect class="kb233-1" x="26" y="23" width="1" height="1"/><polygon class="kb233-6" points="24 5 23 5 23 6 24 6 25 6 25 5 24 5"/><rect class="kb233-7" x="24" y="4" width="1" height="1"/><rect class="kb233-4" x="24" y="3" width="1" height="1"/><polygon class="kb233-8" points="24 6 23 6 23 7 24 7 25 7 25 6 24 6"/><rect class="kb233-5" x="23" y="4" width="1" height="1"/><rect class="kb233-3" x="22" y="6" width="1" height="1"/><rect class="kb233-5" x="22" y="5" width="1" height="1"/><rect class="kb233-4" x="22" y="4" width="1" height="1"/><polygon class="kb233-6" points="23 4 24 4 24 3 25 3 25 2 24 2 23 2 23 3 22 3 22 4 23 4"/><rect class="kb233-5" x="22" y="2" width="1" height="1"/><rect class="kb233-8" x="21" y="5" width="1" height="1"/><rect class="kb233-6" x="21" y="4" width="1" height="1"/><rect class="kb233-7" x="21" y="3" width="1" height="1"/><rect class="kb233-4" x="20" y="4" width="1" height="1"/><polygon class="kb233-1" points="18 23 19 23 19 22 18 22 17 22 17 23 18 23"/><rect class="kb233-1" x="5" y="27" width="1" height="1"/><polygon class="kb233-1" points="6 23 5 23 5 24 6 24 6 25 7 25 8 25 8 24 9 24 10 24 10 23 11 23 12 23 12 22 11 22 10 22 9 22 8 22 7 22 7 23 6 23"/><polygon class="kb233-1" points="6 31 5 31 4 31 4 32 3 32 3 33 4 33 5 33 6 33 6 32 6 31"/><rect class="kb233-1" x="5" y="29" width="1" height="1"/><polygon class="kb233-1" points="2 31 2 30 3 30 4 30 4 29 4 28 3 28 3 27 2 27 1 27 1 26 0 26 0 27 0 28 0 29 0 30 0 31 1 31 2 31"/><polygon class="kb233-1" points="2 25 2 26 3 26 4 26 5 26 5 25 4 25 4 24 3 24 2 24 1 24 1 25 2 25"/><rect class="kb233-1" y="23" width="1" height="1"/><polygon class="kb233-9" points="23 31 23 30 23 29 23 28 24 28 24 27 23 27 22 27 21 27 20 27 20 28 20 29 20 30 20 31 20 32 20 33 21 33 21 32 21 31 21 30 21 29 21 28 22 28 22 29 22 30 22 31 22 32 22 33 23 33 23 32 23 31"/><polygon class="kb233-10" points="22 31 22 30 22 29 22 28 21 28 21 29 21 30 21 31 21 32 21 33 22 33 22 32 22 31"/><path class="kb233-10" d="M20,31V27h4V26H21V25h3v1h1V24H23V23h1V22H23V21H20v2h2v1H19v1h1v1H19V25H17V24H16V23H13v1H12v1H10v1H8v1H9v6h5V29h1v4h5V31Zm-8-3v1H11V28Zm6,1H17V28h1Z"/><rect class="kb233-9" x="17" y="28" width="1" height="1"/><polygon class="kb233-9" points="17 24 17 25 18 25 19 25 19 24 18 24 17 24"/><polygon class="kb233-9" points="15 31 15 30 15 29 14 29 14 30 14 31 14 32 14 33 15 33 15 32 15 31"/><polygon class="kb233-9" points="12 22 12 23 12 24 13 24 13 23 13 22 12 22"/><rect class="kb233-9" x="11" y="28" width="1" height="1"/><polygon class="kb233-9" points="10 24 10 25 11 25 12 25 12 24 11 24 10 24"/><polygon class="kb233-9" points="8 25 8 26 9 26 10 26 10 25 9 25 8 25"/><polygon class="kb233-9" points="9 31 9 30 9 29 9 28 9 27 8 27 8 28 8 29 8 30 8 31 8 32 8 33 9 33 9 32 9 31"/><polygon class="kb233-10" points="8 31 8 30 8 29 8 28 8 27 7 27 7 28 7 29 7 30 7 31 7 32 7 33 8 33 8 32 8 31"/><rect class="kb233-9" x="7" y="26" width="1" height="1"/><polygon class="kb233-9" points="7 31 7 30 7 29 7 28 7 27 6 27 6 28 6 29 6 30 6 31 6 32 6 33 7 33 7 32 7 31"/><rect class="kb233-9" x="20" y="15" width="1" height="1"/><polygon class="kb233-10" points="13 21 14 21 15 21 16 21 16 20 13 20 13 21"/><rect class="kb233-10" x="14" y="15" width="1" height="1"/><polygon class="kb233-10" points="18 12 18 11 17 11 17 10 16 10 15 10 14 10 13 10 12 10 12 11 11 11 11 12 13 12 13 13 14 13 14 14 15 14 15 13 16 13 16 12 18 12"/><polygon class="kb233-10" points="17 16 16 16 15 16 15 17 14 17 14 16 13 16 12 16 11 16 10 16 10 17 10 18 11 18 11 19 12 19 12 18 13 18 13 19 16 19 16 20 17 20 17 19 18 19 18 18 19 18 19 17 19 16 18 16 17 16"/><rect class="kb233-10" x="12" y="19" width="1" height="1"/><polygon class="kb233-9" points="17 22 16 22 16 23 16 24 17 24 17 23 17 22"/><rect class="kb233-9" x="8" y="15" width="1" height="1"/><rect class="kb233-9" x="14" y="16" width="1" height="1"/><polygon class="kb233-11" points="11 12 10 12 10 13 11 13 12 13 13 13 13 12 11 12"/><polygon class="kb233-11" points="18 12 16 12 16 13 17 13 18 13 19 13 19 12 18 12"/><polygon class="kb233-12" points="12 22 13 22 13 23 14 23 15 23 16 23 16 22 17 22 17 21 18 21 18 20 19 20 19 19 20 19 20 18 20 17 20 16 19 16 19 17 19 18 18 18 18 19 17 19 17 20 16 20 16 21 15 21 14 21 13 21 13 20 12 20 12 19 11 19 11 18 10 18 10 17 10 16 9 16 9 17 9 18 9 19 10 19 10 20 11 20 11 21 12 21 12 22"/><rect class="kb233-9" x="13" y="19" width="3" height="1"/><rect class="kb233-9" x="12" y="18" width="1" height="1"/><polygon class="kb233-13" points="10 12 11 12 11 11 12 11 12 10 13 10 14 10 15 10 16 10 17 10 17 11 18 11 18 12 19 12 19 13 20 13 20 12 20 11 20 10 19 10 19 9 18 9 18 8 17 8 16 8 15 8 14 8 13 8 12 8 11 8 11 9 10 9 10 10 9 10 9 11 9 12 9 13 10 13 10 12"/><path class="kb233-7" d="M11,16h3V15h1v1h5V13H15v1H14V13H9v3h2Zm5-2h3v1H16Zm-6,0h3v1H10Z"/><polygon class="kb233-14" points="18 15 19 15 19 14 18 14 17 14 16 14 16 15 17 15 18 15"/><polygon class="kb233-15" points="12 15 13 15 13 14 12 14 11 14 10 14 10 15 11 15 12 15"/><rect class="kb233-16" x="23" y="23" width="1" height="1"/><rect class="kb233-16" x="20" y="23" width="1" height="1"/><polygon class="kb233-9" points="23.25 25 23 25 22.5 25 22 25 21.75 25 21 25 21 26 21.75 26 22 26 22.5 26 23 26 23.25 26 24 26 24 25 23.25 25"/><rect class="kb233-9" x="21" y="23" width="1" height="1"/><rect class="kb233-9" x="24" y="23" width="1" height="1"/><polygon class="kb233-9" points="19 23 19 24 20 24 20 23 20 22 19 22 19 23"/><rect class="kb233-9" x="24" y="26" width="1" height="1"/><polygon class="kb233-9" points="25 25 25 26 26 26 26 25 26 24 25 24 25 25"/><rect class="kb233-13" x="19" y="21" width="1" height="1"/><polygon class="kb233-13" points="22 21 23 21 23 22 24 22 24 23 25 23 25 24 26 24 26 23 26 22 25 22 25 21 24 21 24 20 23 20 22 20 21 20 20 20 20 21 21 21 22 21"/><rect class="kb233-9" x="19" y="25" width="1" height="1"/></svg>