<svg xmlns="http://www.w3.org/2000/svg" viewBox="0 0 29 33"><defs><style>polygon,rect,path{shape-rendering:crispedges;}.ma124-1{fill:#d4a122;}.ma124-2{fill:#000000;}.ma124-3{fill:#3e5e00;}.ma124-4{fill:#6c9302;}.ma124-5{fill:#e8b795;}.ma124-6{fill:#99ce09;}.ma124-7{fill:#ffffff;}.ma124-8{fill:#893a1f;}.ma124-9{fill:#893a1f;}.ma124-10{fill:#99ce09;}</style></defs><path class="ma124-1" d="M0,33H6V27H7V26H8V25h2V24h2V21H9V20H8V19H9V18H8V13H9V11h1V10h1V9h7v1h1v1h1v1h1v6H20v1h1v1H20v1H17v3h2v1h2v1h1v1h1v6h6V0H0Z"/><path class="ma124-2" d="M23,27H22v6h1V27Z"/><rect class="ma124-2" x="21" y="26" width="1" height="1"/><path class="ma124-3" d="M21,28v2h1V27H21Z"/><path class="ma124-3" d="M21,31v2h1V31Z"/><path class="ma124-2" d="M21,30V27H20v6h1V30Z"/><path class="ma124-3" d="M20,32V26H19V25H18v3h1v1H18v4h1V32Z"/><path class="ma124-2" d="M20,26h1V25H19v1Z"/><path class="ma124-2" d="M18,29V25h1V24H17v1H16v1h1v7h1V29Z"/><path class="ma124-4" d="M17,26H16v1H13V26H12v7h5V26Z"/><path class="ma124-2" d="M13,26v1h3V26H13Z"/><path class="ma124-2" d="M13,23h3v1h1V21H16v1H13V21H12v3h1Z"/><path class="ma124-5" d="M13,25v1h3V25h1V24H16V23H13v1H12v1Z"/><path class="ma124-2" d="M12,26h1V25H12V24H10v1h1v8h1V26Z"/><path class="ma124-3" d="M11,29H10V28h1V25H10v1H9v6h1v1h1V29Z"/><path class="ma124-2" d="M10,26V25H8v1h2Z"/><path class="ma124-2" d="M9,31V27H8v6H9V31Z"/><rect class="ma124-2" x="7" y="26" width="1" height="1"/><path class="ma124-3" d="M7,30H8V27H7v3Z"/><path class="ma124-3" d="M7,31v2H8V31Z"/><path class="ma124-2" d="M7,30V27H6v6H7V30Z"/><path class="ma124-6" d="M10,29h1V28H10Z"/><path class="ma124-6" d="M19,29V28H18v1Z"/><path class="ma124-6" d="M9,27V26H8v1Z"/><path class="ma124-6" d="M19,32v1h1V32Z"/><path class="ma124-6" d="M9,32v1h1V32Z"/><path class="ma124-6" d="M7,31H8V30H7Z"/><path class="ma124-6" d="M21,31h1V30H21Z"/><path class="ma124-6" d="M20,27h1V26H20Z"/><rect class="ma124-2" x="19" y="14" width="1" height="1"/><rect class="ma124-5" x="9" y="15" width="1" height="1"/><rect class="ma124-5" x="12" y="12" width="1" height="1"/><rect class="ma124-5" x="19" y="15" width="1" height="1"/><rect class="ma124-5" x="17" y="11" width="1" height="1"/><path class="ma124-5" d="M13,22h3V21h1V19h1V15H16v1H15v1H14V16h1V14h1V12H15V11H14v4H13v2H12V15H11v4h1v2h1Zm0-3h3v1H13Z"/><rect class="ma124-5" x="17" y="13" width="1" height="1"/><rect class="ma124-5" x="11" y="13" width="1" height="1"/><path class="ma124-2" d="M17,20v1h1V20Z"/><path class="ma124-2" d="M11,20v1h1V20Z"/><rect class="ma124-2" x="14" y="16" width="1" height="1"/><rect class="ma124-7" x="12" y="14" width="1" height="1"/><path class="ma124-7" d="M16,14v1h1V14Z"/><rect class="ma124-2" x="11" y="14" width="1" height="1"/><path class="ma124-2" d="M17,14v1h1V14Z"/><rect class="ma124-8" x="17" y="12" width="1" height="1"/><rect class="ma124-8" x="12" y="13" width="1" height="1"/><rect class="ma124-8" x="11" y="12" width="1" height="1"/><rect class="ma124-9" x="20" y="19" width="1" height="1"/><path class="ma124-9" d="M19,16v2h1V16Z"/><path class="ma124-9" d="M19,19V18H18v1H17v1h1v1h2V20H19Z"/><rect class="ma124-9" x="8" y="19" width="1" height="1"/><path class="ma124-9" d="M12,20V19H11V18H10v2H9v1h2V20Z"/><path class="ma124-9" d="M10,17V16H9v2h1Z"/><rect class="ma124-2" x="13" y="19" width="3" height="1"/><path class="ma124-10" d="M9,15h1v3h1V12h2v3h1V11h1v1h1v2h1V11h1v7h1V14h1v4h1V12H20V11H19V10H18V9H11v1H10v1H9v2H8v5H9V15Z"/><polygon class="ma124-10" points="19 19 19 20 20 20 20 19 20 18 19 18 19 19"/><path class="ma124-10" d="M15,14v2h1V14Z"/><path class="ma124-10" d="M12,16v1h1V15H12Z"/><path class="ma124-10" d="M10,19V18H9v2h1Z"/></svg>