<svg xmlns="http://www.w3.org/2000/svg" viewBox="0 0 29 33"><defs><style>polygon,rect,path{shape-rendering:crispedges;}.ra147-1{fill:#d4a122;}.ra147-2{fill:#000000;}.ra147-3{fill:#ffce00;}.ra147-4{fill:#efcaaf;}.ra147-5{fill:#ffffff;}.ra147-6{fill:#ffffff;}.ra147-7{fill:#4922aa;}.ra147-8{fill:#cbed03;}</style></defs><path class="ra147-1" d="M0,33H6V27H7V26H8V25h2V22H9V16H8V15H9V10h1V9h1V8h7V9h1v1h1v5h1v1H20v8H19v1h2v1h1v1h1v6h6V0H0Z"/><path class="ra147-2" d="M23,27H22v6h1V27Z"/><path class="ra147-3" d="M22,27H21v6h1V27Z"/><rect class="ra147-2" x="21" y="26" width="1" height="1"/><path class="ra147-2" d="M21,27H20v6h1V27Z"/><rect class="ra147-3" x="12" y="24" width="1" height="1"/><path class="ra147-3" d="M20,27h1V26H19v1H18V25H17v4h1v1h1v3h1V27Z"/><rect class="ra147-3" x="16" y="24" width="1" height="1"/><path class="ra147-3" d="M10,30h1V29h1V26H11V25H10v1H8v1H9v6h1V30Z"/><path class="ra147-2" d="M20,26h1V25H19v1Z"/><path class="ra147-2" d="M13,24v1h3V24H13Z"/><path class="ra147-4" d="M15,23H13v1h3V23Z"/><path class="ra147-2" d="M13,23h3v1h1V21H16v1H13V21H12v3h1Z"/><path class="ra147-2" d="M10,25H8v1h2Z"/><path class="ra147-2" d="M9,27H8v6H9V27Z"/><path class="ra147-3" d="M8,27H7v6H8V27Z"/><rect class="ra147-2" x="7" y="26" width="1" height="1"/><path class="ra147-2" d="M7,27H6v6H7V27Z"/><path class="ra147-3" d="M16,32H12v1h5V32Z"/><path class="ra147-3" d="M16,25H13v3h3V25Z"/><rect class="ra147-3" x="16" y="30" width="1" height="1"/><rect class="ra147-3" x="12" y="30" width="1" height="1"/><path class="ra147-5" d="M19,30H18V29H17v2H16V28H13v3H12V29H11v1H10v3h2V32h5v1h2V30Z"/><path class="ra147-2" d="M13,25H12v5h1V25Z"/><path class="ra147-2" d="M16,26v4h1V25H16Z"/><rect class="ra147-2" x="20" y="15" width="1" height="1"/><path class="ra147-4" d="M18,15H16V13h1V12h1V11H17V10H14v1H12v1h1v1H11v1h2v1H10v4h1v1h1v1h1v1h3V21h1V20h1V19h1V16h1V15H18Zm-4,1h1v1H14Zm2,4H13V19H12V18h1v1h3Z"/><path class="ra147-4" d="M17,14h2V13H17Z"/><path class="ra147-2" d="M19,17v2h1V16H19Z"/><rect class="ra147-2" x="18" y="19" width="1" height="1"/><rect class="ra147-2" x="17" y="20" width="1" height="1"/><rect class="ra147-2" x="11" y="20" width="1" height="1"/><rect class="ra147-2" x="10" y="19" width="1" height="1"/><path class="ra147-2" d="M10,18V16H9v3h1Z"/><rect class="ra147-2" x="8" y="15" width="1" height="1"/><rect class="ra147-2" x="14" y="16" width="1" height="1"/><path class="ra147-6" d="M13,15V14H12v1Z"/><path class="ra147-6" d="M11,14H10v1h1Z"/><path class="ra147-6" d="M18,15h1V14H18Z"/><path class="ra147-6" d="M16,14v1h1V14Z"/><path class="ra147-2" d="M12,15V14H11v1Z"/><path class="ra147-2" d="M17,14v1h1V14Z"/><path class="ra147-7" d="M13,12H11v1h2Z"/><path class="ra147-7" d="M17,13H16v1h1Z"/><path class="ra147-7" d="M17,13h1V12H17Z"/><rect class="ra147-2" x="13" y="19" width="3" height="1"/><rect class="ra147-2" x="12" y="18" width="1" height="1"/><path class="ra147-8" d="M19,20H18v1H17v4h1v2h1V24h1V19H19Z"/><path class="ra147-8" d="M10,15V14h1V12h1V11h2V10h3v1h1v2h1v2h1V10H19V9H18V8H11V9H10v1H9v6h1Z"/><path class="ra147-8" d="M11,26h1V21H11V20H10V19H9v3h1v3h1Z"/></svg>