<svg xmlns="http://www.w3.org/2000/svg" viewBox="0 0 29 33"><defs><style>polygon,rect,path{shape-rendering:crispedges;}.eb117-1{fill:#7a982c;}.eb117-2{fill:#000000;}.eb117-3{fill:#9b8100;}.eb117-4{fill:#333333;}.eb117-5{fill:#b2622b;}.eb117-6{fill:#90a2a3;}.eb117-7{fill:#ffffff;}.eb117-8{fill:#473a35;}.eb117-9{fill:#473a35;}.eb117-10{fill:#cbed03;}.eb117-11{fill:#455054;}.eb117-12{fill:#0068ff;}.eb117-13{fill:#ffce00;}.eb117-14{fill:#ff1f4a;}</style></defs><path class="eb117-1" d="M0,33H8V32H6V31H5V22H6V21H7V20H5v1H2V17H5V16H8V15H9V11h1V10h1V9h2V7h1V5h1V6h1V8h1V9h1v1h1v1h1v4h1v1H20v4H19v1H17v1h1v1h1v1h1v1h1v1h1v1h1v6h6V0H0Z"/><rect class="eb117-1" x="8" y="24" width="1" height="1"/><path class="eb117-1" d="M8,19v3H9v2h1V23h1V22h1V21H10V20H9V16H8v3Z"/><path class="eb117-2" d="M23,27H22v6h1V27Z"/><path class="eb117-3" d="M22,27H21v6h1V27Z"/><path class="eb117-2" d="M21,27h1V26H21V25H20v2H17v1h2v1h1v4h1V27Z"/><rect class="eb117-2" x="19" y="24" width="1" height="1"/><path class="eb117-3" d="M20,29H19v1H18v1H17v1H16v1h4V29Z"/><rect class="eb117-2" x="18" y="23" width="1" height="1"/><path class="eb117-3" d="M18,25H17v1H16v5h1V30h1V29h1V28H17V27h2V26h1V25H19V24H18Z"/><rect class="eb117-2" x="18" y="29" width="1" height="1"/><rect class="eb117-3" x="17" y="23" width="1" height="1"/><rect class="eb117-2" x="17" y="24" width="1" height="1"/><rect class="eb117-2" x="17" y="30" width="1" height="1"/><rect class="eb117-2" x="16" y="25" width="1" height="1"/><path class="eb117-2" d="M17,32V31H16V26H13v5H12v1h1v1h1V27h1v6h1V32Z"/><path class="eb117-4" d="M15,27H14v6h1V27Z"/><path class="eb117-5" d="M17,25V24H16V23H13v1H12v1h1v1h3V25Z"/><rect class="eb117-2" x="12" y="25" width="1" height="1"/><path class="eb117-3" d="M12,32V31H11V30H10V29H9v4h4V32Z"/><rect class="eb117-3" x="11" y="23" width="1" height="1"/><rect class="eb117-2" x="11" y="24" width="1" height="1"/><rect class="eb117-2" x="11" y="30" width="1" height="1"/><rect class="eb117-2" x="10" y="23" width="1" height="1"/><rect class="eb117-2" x="10" y="29" width="1" height="1"/><rect class="eb117-2" x="9" y="24" width="1" height="1"/><path class="eb117-3" d="M12,25H11V24H10v1H9v1h1v1h2v1H10v1h1v1h1v1h1V26H12Z"/><path class="eb117-2" d="M9,29h1V28h2V27H9V25H8V24H7v7H6v1H8v1H9V29Z"/><path class="eb117-3" d="M7,30V24H6v7H7Z"/><path class="eb117-2" d="M6,24V22H5v9H6V24Z"/><path class="eb117-6" d="M9,26v1h1V26Z"/><path class="eb117-6" d="M19,27h1V26H19Z"/><rect class="eb117-2" x="20" y="15" width="1" height="1"/><path class="eb117-2" d="M19,14v1h1V11H19v3Z"/><path class="eb117-5" d="M10,14h2V13H10Z"/><path class="eb117-5" d="M10,16v2h1v2h1v1h1v1h3V21h1V20h1V18h1V16h1V15H16V14h2V13H16V12h2v1h1V11H18V10H14v1H13V10H11v1H10v1h2v1h1v2H9v1Zm4,0h1v1H14Zm-1,3h3V18h1v1H16v1H13Z"/><path class="eb117-2" d="M19,17h1V16H19Z"/><rect class="eb117-2" x="18" y="10" width="1" height="1"/><path class="eb117-2" d="M16,22H13V21H12v1H11v1h1v1h1V23h3v1h1V23h1V22H17V21H16Z"/><path class="eb117-2" d="M15,10h3V9H15Z"/><path class="eb117-2" d="M13,9H11v1h2Z"/><rect class="eb117-2" x="10" y="10" width="1" height="1"/><path class="eb117-2" d="M10,16H9v1h1Z"/><rect class="eb117-2" x="8" y="15" width="1" height="1"/><rect class="eb117-2" x="14" y="16" width="1" height="1"/><path class="eb117-7" d="M18,14v1h1V14Z"/><path class="eb117-7" d="M12,15h1V14H12Z"/><path class="eb117-2" d="M17,14H16v1h2V14Z"/><path class="eb117-2" d="M12,15V14H10V11H9v4h3Z"/><path class="eb117-8" d="M19,13H18v1h1Z"/><rect class="eb117-8" x="16" y="12" width="2" height="1"/><path class="eb117-8" d="M13,14V13H12v1Z"/><path class="eb117-8" d="M12,13V12H10v1Z"/><path class="eb117-9" d="M19,18H18v2H17v1h2V20h1V17H19Z"/><path class="eb117-9" d="M11,20V18H10V17H9v3h1v1h2V20Z"/><rect class="eb117-2" x="13" y="19" width="3" height="1"/><rect class="eb117-2" x="16" y="18" width="1" height="1"/><path class="eb117-10" d="M13,11h1V10h1V9h2V8H16V6H15V5H14V7H13v4Z"/><path class="eb117-5" d="M7,24H8V22H6v2Z"/><path class="eb117-11" d="M8,22V20H7v2Z"/><path class="eb117-2" d="M7,21H6v1H7Z"/><path class="eb117-2" d="M9,22H8v2H9Z"/><path class="eb117-12" d="M8,19V16H6v4H8Z"/><path class="eb117-13" d="M6,16H5v1H4v4H5V20H6V16Z"/><path class="eb117-14" d="M4,17H2v4H4V17Z"/></svg>