<svg xmlns="http://www.w3.org/2000/svg" viewBox="0 0 29 33"><defs><style>polygon,rect,path{shape-rendering:crispedges;}.hb6-1{fill:#e55b35;}.hb6-2{fill:#000000;}.hb6-3{fill:#a56e49;}.hb6-4{fill:#ffffff;}.hb6-5{fill:#00774c;}.hb6-6{fill:#00774c;}.hb6-7{fill:#0068ff;}.hb6-8{fill:#fafafa;}</style></defs><path class="hb6-1" d="M0,33H6V27H7V26H8V25h2V24h2V21H9V20H8V19H9V16H8V15H9V11h1V10h1V9h7v1h2v5h1v1H20v3h1v1h4v1h1v5H25v1H24v1H23v5h6V0H0Z"/><path class="hb6-1" d="M19,22V21H17v3h2V22Z"/><path class="hb6-2" d="M23,28h1V27H20v6h1V28h1v5h1V28Z"/><path class="hb6-3" d="M22,28H21v5h1V28Z"/><path class="hb6-3" d="M20,27h4V26H21V25h3v1h1V24H23V23h2V22H24V21H23v1H21V21H20v2h2v1H19v1h1v1H19V25H17V24H16V23H13v1H12v1H10v1H8v1H9v6h5V29h1v4h5V27Zm-8,2H11V28h1Zm6,0H17V28h1Z"/><rect class="hb6-2" x="17" y="28" width="1" height="1"/><path class="hb6-2" d="M17,25h2V24H17Z"/><path class="hb6-2" d="M15,29H14v4h1V29Z"/><path class="hb6-2" d="M13,23h3v1h1V21H16v1H13V21H12v3h1Z"/><rect class="hb6-2" x="11" y="28" width="1" height="1"/><path class="hb6-2" d="M12,24H10v1h2Z"/><path class="hb6-2" d="M10,25H8v1h2Z"/><path class="hb6-2" d="M9,27H8v6H9V27Z"/><path class="hb6-3" d="M8,27H7v6H8V27Z"/><rect class="hb6-2" x="7" y="26" width="1" height="1"/><path class="hb6-2" d="M7,27H6v6H7V27Z"/><rect class="hb6-2" x="20" y="15" width="1" height="1"/><path class="hb6-2" d="M19,13v1H17v1h3V12H19Z"/><path class="hb6-3" d="M17,13v1h2V13H17Z"/><rect class="hb6-3" x="11" y="10" width="1" height="1"/><path class="hb6-3" d="M13,22h3V21h1V19h1V18h1V16h1V15H16V14H14v2h1v1H14V16H13v1H11V16H10v2h1v1h1V18h1v1h3v1H13V19H12v2h1Z"/><path class="hb6-3" d="M10,13h1V11H10v2Z"/><rect class="hb6-3" x="9" y="15" width="1" height="1"/><rect class="hb6-3" x="17" y="10" width="1" height="1"/><path class="hb6-3" d="M16,13V12h1V11H16V10H13v1H12v1h1v1H11v1h3V13Z"/><path class="hb6-2" d="M18,20H17v1h1Z"/><path class="hb6-2" d="M11,20v1h1V20Z"/><rect class="hb6-2" x="8" y="15" width="1" height="1"/><rect class="hb6-2" x="14" y="16" width="1" height="1"/><path class="hb6-4" d="M16,14v1h1V14Z"/><rect class="hb6-5" x="10" y="13" width="1" height="1"/><path class="hb6-5" d="M13,12H11v1h2Z"/><rect class="hb6-5" x="16" y="13" width="1" height="1"/><path class="hb6-5" d="M18,13h1V12H18Z"/><path class="hb6-6" d="M19,17v1H18v1H17v1h1v1h2V20h1V19H20V16H19Z"/><path class="hb6-6" d="M12,20V19H11V18H10V16H9v3H8v1H9v1h2V20Z"/><rect class="hb6-2" x="13" y="19" width="3" height="1"/><rect class="hb6-2" x="12" y="18" width="1" height="1"/><path class="hb6-7" d="M19,12h1V11H19Z"/><path class="hb6-7" d="M19,11V10H18v1Z"/><path class="hb6-7" d="M12,11h1V10h3v1h1V10h1V9H11v1h1Z"/><rect class="hb6-7" x="17" y="11" width="1" height="1"/><path class="hb6-7" d="M12,11H11v1h1Z"/><rect class="hb6-7" x="10" y="10" width="1" height="1"/><path class="hb6-7" d="M10,11H9v1h1Z"/><path class="hb6-2" d="M10,16h1v1h2V16h1V14H10V12H9v3h1Z"/><rect class="hb6-2" x="14" y="13" width="2" height="1"/><path class="hb6-2" d="M18,12H16v1h2Z"/><rect class="hb6-2" x="18" y="11" width="1" height="1"/><path class="hb6-2" d="M20,11V10H19v1Z"/><path class="hb6-8" d="M23,23v1h1V23Z"/><path class="hb6-8" d="M21,24V23H20v1Z"/><path class="hb6-2" d="M23.25,25H21v1h3V25Z"/><path class="hb6-2" d="M22,24V23H21v1Z"/><path class="hb6-2" d="M24,23v1h1v2h1V23H24Z"/><path class="hb6-2" d="M19,24h1V23H19Z"/><rect class="hb6-2" x="24" y="26" width="1" height="1"/><path class="hb6-7" d="M19,22v1h1V21H19Z"/><path class="hb6-7" d="M20,21h1v1h2V21h1v1h1v1h1V21H25V20H20Z"/><rect class="hb6-2" x="19" y="25" width="1" height="1"/></svg>