<svg xmlns="http://www.w3.org/2000/svg" viewBox="0 0 29 33"><defs><style>polygon,rect,path{shape-rendering:crispedges;}.va119-1{fill:#db5a8e;}.va119-2{fill:#c6e5e4;}.va119-3{fill:#000000;}.va119-4{fill:#e8b795;}.va119-5{fill:#ffffff;}.va119-6{fill:#317f03;}.va119-7{fill:#317f03;}.va119-8{fill:#00774c;}</style></defs><path class="va119-1" d="M0,33H6V27H7V26H8V25h2V22h1V20H9V18H8V12H9V11h1V10h1V9h7v1h1v1h1v2h1v5H20v2H18v2h1v3h2v1h1v1h1v6h6V0H0Z"/><path class="va119-2" d="M17,23v1H16v1H15v2H14v4h6V27h1V26H19V25H18V22H17Z"/><path class="va119-2" d="M22,27H21v6h1V27Z"/><path class="va119-2" d="M19,32H9v1H20V32Z"/><path class="va119-2" d="M8,27H7v6H8V27Z"/><path class="va119-2" d="M9,27v4h4V27h1V25H13V24H12V22H11v3H10v1H8v1Z"/><path class="va119-3" d="M23,27H22v6h1V27Z"/><rect class="va119-3" x="21" y="26" width="1" height="1"/><path class="va119-3" d="M21,27H20v4H14V27H13v4H9V27H8v6H9V32H20v1h1V27Z"/><path class="va119-3" d="M20,26h1V25H19v1Z"/><path class="va119-3" d="M18,25h1V22H18v3Z"/><rect class="va119-3" x="15" y="24" width="1" height="1"/><path class="va119-3" d="M15,26V25H14v2h1Z"/><rect class="va119-3" x="13" y="24" width="1" height="1"/><path class="va119-4" d="M15,24h1V23H13v1h1v1h1Z"/><path class="va119-3" d="M11,24V22H10v3h1Z"/><path class="va119-3" d="M10,25H8v1h2Z"/><rect class="va119-3" x="7" y="26" width="1" height="1"/><path class="va119-3" d="M7,27H6v6H7V27Z"/><rect class="va119-4" x="17" y="13" width="1" height="1"/><rect class="va119-4" x="11" y="13" width="1" height="1"/><rect class="va119-4" x="11" y="11" width="1" height="1"/><rect class="va119-4" x="9" y="15" width="1" height="1"/><path class="va119-4" d="M12,21h2V20H13V19H12V18h5v1H16v1H15v1h2V20h1V19h1V18H18V15H17v2H16V15H15V11H14v1H13v2h1v2h1v1H14V16H13V15H11v3H10v1h1v1h1Z"/><rect class="va119-4" x="16" y="12" width="1" height="1"/><rect class="va119-4" x="19" y="15" width="1" height="1"/><path class="va119-3" d="M19,16v2h1V16Z"/><path class="va119-3" d="M18,19v1h1V19Z"/><path class="va119-3" d="M12,23v1h1V23h3v1h1V22h1V20H17v1H16v1H13V21H12V20H11v2h1Z"/><path class="va119-3" d="M10,19v1h1V19Z"/><rect class="va119-3" x="9" y="14" width="1" height="1"/><path class="va119-3" d="M10,17V16H9v2h1Z"/><rect class="va119-3" x="14" y="16" width="1" height="1"/><path class="va119-5" d="M12,15h1V14H12Z"/><rect class="va119-5" x="16" y="14" width="1" height="1"/><path class="va119-3" d="M11,14v1h1V14Z"/><rect class="va119-3" x="17" y="14" width="1" height="1"/><rect class="va119-6" x="11" y="12" width="1" height="1"/><rect class="va119-6" x="16" y="13" width="1" height="1"/><rect class="va119-6" x="17" y="12" width="1" height="1"/><path class="va119-7" d="M15,20H14v1H13v1h3V21H15Z"/><path class="va119-3" d="M12,18v1h1V18Z"/><path class="va119-3" d="M17,19V18H16v1Z"/><path class="va119-3" d="M16,20V19H15V18H14v1H13v1h3Z"/><path class="va119-5" d="M14,18H13v1h1Z"/><path class="va119-5" d="M16,19V18H15v1Z"/><path class="va119-8" d="M9,15V14h1v4h1V11h1v3h1V12h1V11h1v4h1V12h2v6h1V15h1v3h1V13H20V11H19V10H18V9H11v1H10v1H9v1H8v6H9V15Z"/><path class="va119-8" d="M10,18H9v2h1V18Z"/><path class="va119-8" d="M13,16h1V14H13v2Z"/><path class="va119-8" d="M16,16v1h1V15H16Z"/><path class="va119-8" d="M19,19v1h1V18H19Z"/></svg>