<svg xmlns="http://www.w3.org/2000/svg" viewBox="0 0 29 33"><defs><style>polygon,rect,path{shape-rendering:crispedges;}.oa111-1{fill:#e55b35;}.oa111-2{fill:#000000;}.oa111-3{fill:#cc3232;}.oa111-4{fill:#317f03;}.oa111-5{fill:#a56e49;}.oa111-6{fill:#c6e5e4;}.oa111-7{fill:#ffffff;}.oa111-8{fill:#000000;}.oa111-9{fill:#10bcff;}</style></defs><path class="oa111-1" d="M0,33H6V27H7V26H8V25h2V24h2V22H11V21H10v1H9V21H8V20H7V19H8V12H9V10h1V9h1V8h7V9h1v1h1v2h1v7h1v1H21v1H20v1H19V21H18v1H17v2h2v1h2v1h1v1h1v6h6V0H0Z"/><path class="oa111-2" d="M23,27H22v6h1V27Z"/><rect class="oa111-2" x="21" y="26" width="1" height="1"/><path class="oa111-3" d="M21,31v1h1V30H21Z"/><path class="oa111-3" d="M21,28h1V27H21Z"/><path class="oa111-2" d="M21,31V27H20v6h1V31Z"/><path class="oa111-3" d="M18,26v2h1v1h1V27H19V25H18Z"/><path class="oa111-3" d="M19,31V30H18v2h1v1h1V31Z"/><path class="oa111-2" d="M20,26h1V25H19v1Z"/><path class="oa111-2" d="M18,31V25h1V24H17v1H16v1h1v7h1V31Z"/><path class="oa111-4" d="M17,26H16v1H13V26H12v7h5V26Z"/><path class="oa111-2" d="M13,26v1h3V26H13Z"/><path class="oa111-2" d="M13,23h3v1h1V21H16v1H13V21H12v3h1Z"/><path class="oa111-5" d="M13,25v1h3V25h1V24H16V23H13v1H12v1Z"/><path class="oa111-2" d="M12,26h1V25H12V24H10v1h1v8h1V26Z"/><path class="oa111-3" d="M10,26H9v2h1v1h1V27H10Z"/><path class="oa111-3" d="M10,31V30H9v2h1v1h1V31Z"/><path class="oa111-2" d="M10,26V25H8v1h2Z"/><path class="oa111-2" d="M9,31V27H8v6H9V31Z"/><rect class="oa111-2" x="7" y="26" width="1" height="1"/><path class="oa111-3" d="M8,29V27H7v2Z"/><path class="oa111-3" d="M7,31v2H8V31Z"/><path class="oa111-2" d="M7,30V27H6v6H7V30Z"/><path class="oa111-6" d="M21,29v1h1V28H21Z"/><path class="oa111-6" d="M21,32v1h1V32Z"/><path class="oa111-6" d="M19,26v1h2V26H19Z"/><path class="oa111-6" d="M19,28H18v2h1v1h1V29H19Z"/><path class="oa111-6" d="M18,32v1h1V32Z"/><path class="oa111-6" d="M10,27h1V25H10v2Z"/><path class="oa111-6" d="M10,28H9v2h1v1h1V29H10Z"/><path class="oa111-6" d="M9,32v1h1V32Z"/><path class="oa111-6" d="M9,27V26H8v1Z"/><path class="oa111-6" d="M7,30v1H8V29H7Z"/><path class="oa111-2" d="M20,16h1V15H20Z"/><rect class="oa111-2" x="19" y="14" width="1" height="1"/><rect class="oa111-5" x="11" y="13" width="1" height="1"/><path class="oa111-5" d="M18,20V19h1V16h1V15H16V14h2V13H16V12h1V11H16V10H13v1H12v2h1v2H9v1h1v3h1v1h1v1h1v1h3V21h1V20Zm-4-4h1v1H14Zm2,4H13V19h3Z"/><path class="oa111-2" d="M19,17v2h1V16H19Z"/><rect class="oa111-2" x="18" y="19" width="1" height="1"/><rect class="oa111-2" x="17" y="20" width="1" height="1"/><rect class="oa111-2" x="11" y="20" width="1" height="1"/><rect class="oa111-2" x="10" y="19" width="1" height="1"/><path class="oa111-2" d="M10,14H9v1h1Z"/><path class="oa111-2" d="M10,16H9v3h1V16Z"/><path class="oa111-2" d="M9,15H8v1H9Z"/><rect class="oa111-2" x="14" y="16" width="1" height="1"/><path class="oa111-7" d="M12,15h1V14H12Z"/><path class="oa111-7" d="M11,15V14H10v1Z"/><path class="oa111-7" d="M19,15V14H18v1Z"/><path class="oa111-7" d="M16,14v1h1V14Z"/><path class="oa111-2" d="M12,15V14H11v1Z"/><path class="oa111-2" d="M17,15h1V14H17Z"/><path class="oa111-8" d="M16,13h2V12H16Z"/><path class="oa111-8" d="M13,14V13H12v1Z"/><path class="oa111-8" d="M12,12H11v1h1Z"/><rect class="oa111-2" x="13" y="19" width="3" height="1"/><path class="oa111-9" d="M20,17v2H19v1H18v1h1v1h1V21h1V20h1V19H21V16H20Z"/><path class="oa111-9" d="M9,14h2V12h1V11h1V10h3v1h1v1h1v2h2v1h1V12H20V10H19V9H18V8H11V9H10v1H9v2H8v3H9Z"/><path class="oa111-9" d="M10,20V19H9V16H8v3H7v1H8v1H9v1h1V21h1V20Z"/><path class="oa111-9" d="M11,21v1h1V21Z"/><path class="oa111-9" d="M17,22h1V21H17Z"/></svg>