<svg xmlns="http://www.w3.org/2000/svg" viewBox="0 0 29 33"><defs><style>polygon,rect,path{shape-rendering:crispedges;}.xa2-1{fill:#29834f;}.xa2-2{fill:#cbed03;}.xa2-3{fill:#000000;}.xa2-4{fill:#ce8452;}.xa2-5{fill:#ffffff;}.xa2-6{fill:#009b97;}.xa2-7{fill:#c9a717;}</style></defs><path class="xa2-1" d="M6,32V27H7V26H8V25h2V22H9V16H8V15H9V14H8V13H4V12H6V11H8V10h2V9h1V8h1V7h1V6h1V5h1V6h1V7h1V8h1V9h1v1h2v1h2v1h2v1H21v1H20v1h1v1H20v8H19v1h2v1h1v1h1v6h6V0H0V33H6Z"/><path class="xa2-2" d="M19,26v1H18V25H17V24H16v1H15v2H14v4h6V27h1V26H19Z"/><path class="xa2-2" d="M22,27H21v6h1V27Z"/><path class="xa2-2" d="M19,32H9v1H20V32Z"/><path class="xa2-2" d="M8,27H7v6H8V27Z"/><path class="xa2-2" d="M9,27v4h4V27h1V25H13V24H12v2H11V25H10v1H8v1Z"/><path class="xa2-3" d="M23,27H22v6h1V27Z"/><rect class="xa2-3" x="21" y="26" width="1" height="1"/><path class="xa2-3" d="M21,27H20v4H14V27H13v4H9V27H8v6H9V32H20v1h1V27Z"/><path class="xa2-3" d="M20,26h1V25H19v1Z"/><rect class="xa2-3" x="15" y="24" width="1" height="1"/><path class="xa2-3" d="M15,26V25H14v2h1Z"/><rect class="xa2-3" x="13" y="24" width="1" height="1"/><path class="xa2-4" d="M15,24h1V23H13v1h1v1h1Z"/><path class="xa2-3" d="M10,25H8v1h2Z"/><rect class="xa2-3" x="7" y="26" width="1" height="1"/><path class="xa2-3" d="M7,27H6v6H7V27Z"/><rect class="xa2-3" x="20" y="15" width="1" height="1"/><rect class="xa2-4" x="19" y="15" width="1" height="1"/><path class="xa2-4" d="M13,22h3V21h1V20h1V19h1V16H16V14H13v2H10v3h1v1h1v1h1Zm1-6h1v1H14Zm-2,3V18h1v1h3v1H13V19Z"/><path class="xa2-3" d="M19,17v2h1V16H19Z"/><rect class="xa2-3" x="18" y="19" width="1" height="1"/><rect class="xa2-3" x="17" y="20" width="1" height="1"/><path class="xa2-3" d="M14,23h2v1h1V21H16v1H13V21H12v3h1V23Z"/><rect class="xa2-3" x="11" y="20" width="1" height="1"/><rect class="xa2-3" x="10" y="19" width="1" height="1"/><path class="xa2-3" d="M10,18V16H9v3h1Z"/><rect class="xa2-3" x="8" y="15" width="1" height="1"/><rect class="xa2-3" x="14" y="16" width="1" height="1"/><path class="xa2-5" d="M11,15V14H10v2h1Z"/><path class="xa2-5" d="M13,16V14H12v2Z"/><path class="xa2-5" d="M17,16V14H16v2Z"/><path class="xa2-5" d="M19,16V14H18v2Z"/><path class="xa2-3" d="M11,16h1V14H11v2Z"/><path class="xa2-3" d="M18,16V14H17v2Z"/><rect class="xa2-3" x="13" y="19" width="3" height="1"/><rect class="xa2-3" x="12" y="18" width="1" height="1"/><path class="xa2-6" d="M19,20H18v1H17v4h1v2h1V24h1V19H19Z"/><path class="xa2-6" d="M19,15h1V14H19Z"/><path class="xa2-6" d="M10,15V14H9v2h1Z"/><path class="xa2-6" d="M11,26h1V21H11V20H10V19H9v3h1v3h1Z"/><path class="xa2-7" d="M11,14H21V13h4V12H23V11H21V10H19V9H18V8H17V7H16V6H15V5H14V6H13V7H12V8H11V9H10v1H8v1H6v1H4v1H8v1h3Z"/></svg>