<svg xmlns="http://www.w3.org/2000/svg" viewBox="0 0 29 33"><defs><style>polygon,rect,path{shape-rendering:crispedges;}.ra138-1{fill:#e55b35;}.ra138-2{fill:#000000;}.ra138-3{fill:#685432;}.ra138-4{fill:#c18d59;}.ra138-5{fill:#685432;}.ra138-6{fill:#ffffff;}.ra138-7{fill:#317f03;}.ra138-8{fill:#d8be00;}.ra138-9{fill:#ff1d99;}.ra138-10{fill:#e281bf;}.ra138-11{fill:#b5a38a;}.ra138-12{fill:#e273af;}</style></defs><rect class="ra138-1" x="10" y="19" height="1"/><path class="ra138-1" d="M10,24h1V23H10V22h1V20h0v1H10v1H9v3h1Z"/><rect class="ra138-1" x="18" y="21" width="1" height="1"/><path class="ra138-1" d="M0,33H6V25H7V24H8V21H8v1H7v1H6v1H3V23H2V22H1V19H2V18H3V17H6v1H7v1H8v1H8V19H9V17H8V12H9V10h1V9h1V8h7V9h1v1h1v2h1v6H20v2h1v1H20v1H19v1H18v1h1v1h2v1h1v1h1v6h6V0H0Z"/><path class="ra138-2" d="M23,27H22v6h1V27Z"/><path class="ra138-3" d="M22,27H21v6h1V27Z"/><rect class="ra138-2" x="21" y="26" width="1" height="1"/><path class="ra138-2" d="M21,27H20v6h1V27Z"/><path class="ra138-3" d="M10,28h1v1h1V25h1V24H11v1H10v1H9v3h1Z"/><path class="ra138-3" d="M19,32V31H18v1H17V30H16v1H15v1H13V30H12v2H11V31H10v1H9v1H20V32Z"/><rect class="ra138-3" x="10" y="29" width="1" height="1"/><rect class="ra138-3" x="18" y="29" width="1" height="1"/><path class="ra138-3" d="M16,25h1v4h1V28h1v1h1V27h1V26H19V25H18V24H16Z"/><path class="ra138-2" d="M20,26h1V25H19v1Z"/><rect class="ra138-2" x="18" y="24" width="1" height="1"/><rect class="ra138-2" x="18" y="22" width="1" height="1"/><rect class="ra138-3" x="17" y="22" width="1" height="1"/><path class="ra138-2" d="M14,25h2V24H13v1Z"/><path class="ra138-4" d="M16,24V23H13v1h3Z"/><rect class="ra138-3" x="11" y="22" width="1" height="1"/><rect class="ra138-2" x="10" y="24" width="1" height="1"/><rect class="ra138-2" x="10" y="22" width="1" height="1"/><rect class="ra138-2" x="9" y="25" width="1" height="1"/><path class="ra138-2" d="M9,29V26H8v7H9V29Z"/><path class="ra138-3" d="M8,27H7v6H8V27Z"/><path class="ra138-4" d="M8,27V26H9V25H7v2Z"/><path class="ra138-2" d="M7,27V25H6v8H7V27Z"/><path class="ra138-3" d="M14,29v2h1V29Z"/><path class="ra138-3" d="M13,25v3h2v1h1V25H13Z"/><path class="ra138-5" d="M19,30H18V29H17v3h1V31h1v1h1V29H19Z"/><rect class="ra138-5" x="18" y="28" width="1" height="1"/><path class="ra138-5" d="M15,29v2h1V29Z"/><path class="ra138-5" d="M14,30V29h1V28H13v4h2V31H14Z"/><path class="ra138-5" d="M11,29v1H10V29H9v3h1V31h1v1h1V29Z"/><rect class="ra138-5" x="10" y="28" width="1" height="1"/><path class="ra138-2" d="M13,25H12v5h1V25Z"/><path class="ra138-2" d="M17,28V25H16v5h1V28Z"/><path class="ra138-4" d="M11,20h1v1h1v1h3V21h1V20h1V19h1V16h1V15H16V14h2V13H16V12h1V11H16V10H15v1H14v1H13v3H10v4h1Zm3-4h1v1H14Zm-1,3h3v1H13Z"/><path class="ra138-2" d="M19,16v3h1V16Z"/><rect class="ra138-2" x="18" y="19" width="1" height="1"/><path class="ra138-2" d="M17,22h1V20H17v1H16v1H13V21H12V20H11v2h1v1H11v1h2V23h3v1h2V23H17Z"/><polygon class="ra138-2" points="11 20 11 20 11 19 10 19 10 20 11 20"/><path class="ra138-2" d="M10,19V18H9v1Z"/><rect class="ra138-2" x="14" y="16" width="1" height="1"/><path class="ra138-6" d="M18,15h1V14H18Z"/><path class="ra138-6" d="M13,15V14H12v1Z"/><path class="ra138-2" d="M17,14H16v1h2V14Z"/><path class="ra138-2" d="M12,14H10v1h2Z"/><rect class="ra138-7" x="18" y="13" width="1" height="1"/><path class="ra138-7" d="M16,13h2V12H16Z"/><path class="ra138-7" d="M13,13H12v1h1Z"/><rect class="ra138-2" x="13" y="19" width="3" height="1"/><path class="ra138-8" d="M19,20H18v1h1v1h1V21h1V20H20V19H19Z"/><rect class="ra138-8" x="9" y="20" height="1"/><polygon class="ra138-8" points="10 21 11 21 11 20 10 20 10 21"/><rect class="ra138-8" x="9" y="21" width="1" height="1"/><polygon class="ra138-8" points="10 20 10 19 9 19 9 20 10 20"/><path class="ra138-8" d="M10,17V14h2V13h1V12h1V11h1V10h1v1h1v1h1v1h1v2h1v3h1V12H20V10H19V9H18V8H11V9H10v1H9v2H8v5H9v1h1Z"/><polygon class="ra138-9" points="10 21 10 20 10 20 9 20 9 21 10 21 10 21"/><polygon class="ra138-9" points="9 20 9 19 8 19 8 20 9 20 9 20"/><rect class="ra138-10" x="7" y="20" width="1" height="1"/><path class="ra138-9" d="M9,25V21H8v4Z"/><path class="ra138-2" d="M8,24H7v1H8Z"/><rect class="ra138-11" x="2" y="18" width="1" height="1"/><path class="ra138-11" d="M7,20H8V19H7V18H6V17H3v1H5v1H3v1H2V19H1v3H2v1H3v1H6V23H7V22H8V21H7Z"/><polygon class="ra138-12" points="9 20 8 20 8 20 8 21 8 21 9 21 9 20"/><rect class="ra138-6" x="2" y="19" width="1" height="1"/><path class="ra138-6" d="M4,19H5V18H3v1Z"/></svg>