<svg xmlns="http://www.w3.org/2000/svg" viewBox="0 0 29 33"><defs><style>polygon,rect,path{shape-rendering:crispedges;}.ma87-1{fill:#397d98;}.ma87-2{fill:#000000;}.ma87-3{fill:#c4ea3b;}.ma87-4{fill:#9b8100;}.ma87-5{fill:#c18d59;}.ma87-6{fill:#990000;}.ma87-7{fill:#ffffff;}.ma87-8{fill:#990000;}.ma87-9{fill:#990000;}.ma87-10{fill:#cbed03;}.ma87-11{fill:#304400;}.ma87-12{fill:#ffffff;}.ma87-13{fill:#ff6aa5;}.ma87-14{fill:#ad5a21;}</style></defs><path class="ma87-1" d="M0,33H6V27H7V26H8V25h2V24h2V21H11V20H10V19H9V16H8V15H9V11h1V10h1V9h1V8h1V6h1V5h1V7h1V9h2v1h1v1h1v4h1v1H20v3H19v1H18v1H17v2h1V22h3v1h1v2h1v8h6V0H0Z"/><path class="ma87-2" d="M7,30V27H6v6H7V30Z"/><path class="ma87-3" d="M8,28V27H7v1Z"/><path class="ma87-3" d="M7,31H8V30H7Z"/><rect class="ma87-2" x="7" y="26" width="1" height="1"/><path class="ma87-2" d="M9,30V27H8v6H9V30Z"/><path class="ma87-3" d="M9,28h2V27H9Z"/><path class="ma87-3" d="M9,31h2V30H9Z"/><path class="ma87-2" d="M10,25H8v1h2Z"/><path class="ma87-2" d="M12,26h1V25H12V24H10v1h1v8h1V26Z"/><path class="ma87-4" d="M17,26H16v1H13V26H12v7h5V26Z"/><path class="ma87-2" d="M13,23h3v1h1V21H16v1H13V21H12v3h1Z"/><path class="ma87-2" d="M13,26v1h3V26H13Z"/><path class="ma87-5" d="M13,25v1h3V25h1V24H16V23H13v1H12v1Z"/><path class="ma87-2" d="M18,30V26H17v7h1V30Z"/><rect class="ma87-2" x="16" y="25" width="1" height="1"/><path class="ma87-3" d="M18,31h2V30H18Z"/><path class="ma87-3" d="M18,28h2V27H18Z"/><path class="ma87-2" d="M21,30V27H20v6h1V30Z"/><path class="ma87-3" d="M21,28h1V27H21Z"/><path class="ma87-3" d="M21,31h1V30H21Z"/><path class="ma87-2" d="M23,25H22v8h1V25Z"/><path class="ma87-6" d="M9,31v2h2V31Z"/><path class="ma87-6" d="M18,31v2h2V31Z"/><path class="ma87-6" d="M18,29v1h2V28H18Z"/><path class="ma87-6" d="M9,29v1h2V28H9Z"/><path class="ma87-6" d="M9,27h2V25H10v1H8v1Z"/><path class="ma87-6" d="M7,29v1H8V28H7Z"/><path class="ma87-6" d="M7,31v2H8V31Z"/><path class="ma87-6" d="M21,31v2h1V31Z"/><path class="ma87-6" d="M21,29v1h1V28H21Z"/><rect class="ma87-2" x="20" y="15" width="1" height="1"/><path class="ma87-2" d="M19,13v2h1V11H19v2Z"/><path class="ma87-5" d="M13,20v2h3V20Z"/><path class="ma87-5" d="M12,19V18h5v2h1V19h1V16h1V15H16V14h3V13H16V12h3V11H18V10H16v1H15v4H14v1h1v1H14V16H13v1H11V16H10v3h1v1h1Z"/><rect class="ma87-5" x="9" y="15" width="1" height="1"/><path class="ma87-2" d="M19,17v2h1V16H19Z"/><rect class="ma87-2" x="18" y="10" width="1" height="1"/><rect class="ma87-2" x="18" y="19" width="1" height="1"/><rect class="ma87-2" x="17" y="20" width="1" height="1"/><path class="ma87-2" d="M17,10h1V9H16v1Z"/><rect class="ma87-2" x="11" y="20" width="1" height="1"/><rect class="ma87-2" x="10" y="19" width="1" height="1"/><path class="ma87-2" d="M10,16H9v3h1V16Z"/><rect class="ma87-2" x="8" y="15" width="1" height="1"/><rect class="ma87-2" x="14" y="16" width="1" height="1"/><path class="ma87-7" d="M18,14v1h1V14Z"/><path class="ma87-7" d="M16,14v1h1V14Z"/><path class="ma87-2" d="M17,14v1h1V14Z"/><path class="ma87-8" d="M16,12v1h3V12Z"/><path class="ma87-9" d="M13,20V19H12v2h1Z"/><path class="ma87-9" d="M17,19V18H13v1h3v2h1V19Z"/><path class="ma87-2" d="M16,19H13v1h3Z"/><path class="ma87-2" d="M12,18v1h1V18Z"/><path class="ma87-10" d="M11,15h2V13H11v2Z"/><path class="ma87-11" d="M13,13v2h1V13Z"/><path class="ma87-11" d="M12,15H11v1h2V15Z"/><path class="ma87-11" d="M11,14V13H10v2h1Z"/><rect class="ma87-11" x="11" y="12" width="2" height="1"/><rect class="ma87-2" x="10" y="15" width="1" height="1"/><rect class="ma87-2" x="11" y="16" width="2" height="1"/><rect class="ma87-2" x="13" y="15" width="1" height="1"/><path class="ma87-2" d="M10,14V13h1V12h2v1h1v2h1V10H14V9H11v1H10v1H9v4h1Z"/><path class="ma87-12" d="M14,10h1v1h1V7H15V5H14V6H13V8H12V9h2Z"/><path class="ma87-5" d="M20,25v2h2V25H20Z"/><path class="ma87-13" d="M22,24V23H21v1Z"/><path class="ma87-13" d="M21,23V22H20v1Z"/><path class="ma87-13" d="M19,22H18v1h1Z"/><path class="ma87-13" d="M20,26V25H18v1h2Z"/><rect class="ma87-13" x="17" y="24" width="1" height="1"/><path class="ma87-14" d="M18,25h1V24h1v1h1V23H18v2Z"/><path class="ma87-14" d="M19,26H18v1h2V26Z"/><path class="ma87-7" d="M21,25h1V24H21Z"/><path class="ma87-7" d="M20,23V22H19v1Z"/><path class="ma87-7" d="M18,24V23H17v1Z"/><rect class="ma87-7" x="17" y="25" width="1" height="1"/><path class="ma87-2" d="M20,24H19v1h1Z"/></svg>