<svg xmlns="http://www.w3.org/2000/svg" viewBox="0 0 29 33"><defs><style>polygon,rect,path{shape-rendering:crispedges;}.ca137-1{fill:#d14646;}.ca137-2{fill:#000000;}.ca137-3{fill:#ce8452;}.ca137-4{fill:#316a6d;}.ca137-5{fill:#ffffff;}.ca137-6{fill:#5e362f;}.ca137-7{fill:#ffffff;}.ca137-8{fill:#00774c;}.ca137-9{fill:#fad000;}</style></defs><path class="ca137-1" d="M0,33H6V26H5v1H4V25H5V24H7V23H8V22H9V16H8V15H9V10h1V9h1V8h7V9h1v1h1v5h1v1H20v6H19v3h2v1h1v1h1v6h6V0H0Z"/><path class="ca137-2" d="M23,27H22v6h1V27Z"/><rect class="ca137-2" x="21" y="26" width="1" height="1"/><path class="ca137-3" d="M22,27H21v6h1V27Z"/><rect class="ca137-3" x="20" y="26" width="1" height="1"/><path class="ca137-2" d="M21,27H20v6h1V27Z"/><path class="ca137-2" d="M20,26h1V25H19v1Z"/><rect class="ca137-4" x="18" y="32" width="1" height="1"/><path class="ca137-4" d="M17,30h1V29h1v1h1V26H19V25H18v1H17v1H16v1H13V27H12V26H11v1H9v3h1V29h1v1h1v3h1V29h2v1h1v2H15v1h2V30Z"/><path class="ca137-4" d="M14,31v1h1V30H14Z"/><rect class="ca137-4" x="10" y="30" width="1" height="1"/><rect class="ca137-4" x="18" y="30" width="1" height="1"/><rect class="ca137-4" x="10" y="32" width="1" height="1"/><path class="ca137-2" d="M9,30V27H8v6H9V30Z"/><path class="ca137-3" d="M8,27H9V25H7v8H8V27Z"/><path class="ca137-2" d="M7,25H6v8H7V25Z"/><rect class="ca137-2" x="12" y="26" width="1" height="1"/><rect class="ca137-2" x="16" y="26" width="1" height="1"/><path class="ca137-2" d="M13,27v1h3V27H13Z"/><path class="ca137-3" d="M16,24V23H13v1H12v2h1v1h3V26h1V24Z"/><path class="ca137-5" d="M20,30H19v1H18V30H17v3h1V32h1v1h1V30Z"/><rect class="ca137-5" x="18" y="29" width="1" height="1"/><path class="ca137-5" d="M16,32V30H15v2Z"/><path class="ca137-5" d="M14,32V30h1V29H13v4h2V32Z"/><path class="ca137-5" d="M12,30H11v1H10V30H9v3h1V32h1v1h1V30Z"/><rect class="ca137-5" x="10" y="29" width="1" height="1"/><rect class="ca137-2" x="20" y="15" width="1" height="1"/><path class="ca137-3" d="M10,17v2h1v1h1v1h1v1h3V21h1V20h1V19h1V14H18v1H16v1H15v1H14V16H13V15H11V14h1V13h1V12h3v1h1v1h1V12H17V11H15V10H12v1H11v2H10v2H9v1h1Zm3,2h3v1H13Z"/><path class="ca137-2" d="M19,17v2h1V16H19Z"/><rect class="ca137-2" x="18" y="19" width="1" height="1"/><rect class="ca137-2" x="17" y="20" width="1" height="1"/><path class="ca137-2" d="M12,24h1V23h3v1h1V21H16v1H13V21H12v3Z"/><rect class="ca137-2" x="11" y="20" width="1" height="1"/><rect class="ca137-2" x="10" y="19" width="1" height="1"/><path class="ca137-2" d="M10,18V16H9v3h1Z"/><rect class="ca137-2" x="8" y="15" width="1" height="1"/><path class="ca137-6" d="M17,15h1V14H17Z"/><rect class="ca137-6" x="16" y="13" width="1" height="1"/><rect class="ca137-2" x="14" y="14" width="1" height="1"/><path class="ca137-7" d="M16,14V13H13v1H12v1h1v1h3V15h1V14Zm-1,1H14V14h1Z"/><path class="ca137-6" d="M16,13V12H13v1h3Z"/><rect class="ca137-6" x="12" y="13" width="1" height="1"/><path class="ca137-6" d="M11,14v1h1V14Z"/><path class="ca137-2" d="M14,17h1V16H14Z"/><rect class="ca137-2" x="13" y="19" width="3" height="1"/><path class="ca137-8" d="M11,20H10V19H9v2h2Z"/><path class="ca137-8" d="M11,25h1V21H11v1H10v1H9v1h2Z"/><path class="ca137-8" d="M10,25v2h1V25Z"/><path class="ca137-8" d="M10,14V13h1V11h1V10h3v1h2v1h1v2h1v2h1V10H19V9H18V8H11V9H10v1H9v5h1Z"/><path class="ca137-8" d="M19,20H18v1H17v5h1V25h1V22h1V19H19Z"/><path class="ca137-9" d="M7,25V24H5v1H4v2H5V26H6V25Z"/><path class="ca137-7" d="M8,25H9V23h1V22h1V21H9v1H8v1H7v2Z"/><path class="ca137-9" d="M11,25V24H9v1h2Z"/><path class="ca137-9" d="M11,25v1h1V25Z"/><path class="ca137-2" d="M9,25v2h1V25Z"/></svg>