<svg xmlns="http://www.w3.org/2000/svg" viewBox="0 0 29 33"><defs><style>polygon,rect,path{shape-rendering:crispedges;}polygon,rect,path{shape-rendering:crispedges;}.lb39-1{fill:#a9a9a9;}.lb39-2{fill:#000000;}.lb39-3{fill:#bbbbbb;}.lb39-4{fill:#04263a;}.lb39-5{fill:#0068f5;}.lb39-6{fill:#008dff;}.lb39-7{fill:#008b4c;}.lb39-8{fill:#ffffff;}.lb39-9{fill:#004480;}.lb39-10{fill:#db5800;}.lb39-11{fill:#ce8452;}.lb39-12{fill:#990000;}.lb39-13{fill:#7f5018;}.lb39-14{fill:#c8a715;}.lb39-15{fill:#7f5018;}.lb39-16{fill:#cbed03;}.lb39-17{fill:#455054;}.lb39-18{fill:#ff1f4a;}</style></defs><path class="lb39-1" d="M28,25H27v1h2V24H28Z"/><path class="lb39-2" d="M0,0V23H4V22H5v9H6V22H7V20H5v1H2V17H5V16H8v5h2V20H9V17h1V16H9V15h1V11H9V10h1V9h1V8h7V9h1v6h1v1H19v1h1v3H19v1h2v1h5v1h3V0H0ZM27,5V7H22V6H21V5H20V4h1V3h1V2h3V3h1V4h1Z"/><path class="lb39-1" d="M27,32H26V31H23v2h5V32Z"/><path class="lb39-1" d="M25,27v1H24v2h4v1h1V27H25Z"/><path class="lb39-3" d="M20,25h1V24H19v1Z"/><path class="lb39-3" d="M4,32V31H5V26H2V25H1V24H0v2H1v1H3v1H4v2H2v1H0v2H3V32Z"/><path class="lb39-3" d="M2,24H4v1H5V22H4v1H1v1Z"/><path class="lb39-3" d="M9,24H8v1h2V24Z"/><path class="lb39-3" d="M7,32H6v1H8V32Z"/><rect class="lb39-3" x="11" y="23" width="1" height="1"/><rect class="lb39-3" x="17" y="23" width="1" height="1"/><path class="lb39-3" d="M22,23H21v1h1v1H21v1h2V24h1V23h2V22H23v1Z"/><path class="lb39-3" d="M20,22h1V21H19v1Z"/><path class="lb39-3" d="M27,24H26v1H25v1H23v5h3v1h2v1h1V31H28V30H24V28h1V27h4V26H27V25h1V24h1V23H27Z"/><path class="lb39-4" d="M26,7h1V6H26Z"/><path class="lb39-5" d="M26,5V6h1V4H26Z"/><path class="lb39-5" d="M25,6V7h1V6Z"/><rect class="lb39-6" x="25" y="5" width="1" height="1"/><rect class="lb39-7" x="25" y="4" width="1" height="1"/><rect class="lb39-8" x="25" y="3" width="1" height="1"/><path class="lb39-1" d="M24,24H23v2h2V25h1V24h1V23H24Z"/><path class="lb39-7" d="M24,5H23V6h2V5Z"/><rect class="lb39-8" x="24" y="4" width="1" height="1"/><rect class="lb39-5" x="24" y="3" width="1" height="1"/><path class="lb39-9" d="M24,6H23V7h2V6Z"/><rect class="lb39-6" x="23" y="4" width="1" height="1"/><path class="lb39-1" d="M22,27h1V26H22Z"/><path class="lb39-4" d="M22,6V7h1V6Z"/><rect class="lb39-6" x="22" y="5" width="1" height="1"/><rect class="lb39-5" x="22" y="4" width="1" height="1"/><path class="lb39-7" d="M23,4h1V3h1V2H23V3H22V4Z"/><path class="lb39-6" d="M23,2H22V3h1Z"/><rect class="lb39-1" x="21" y="24" width="1" height="1"/><rect class="lb39-9" x="21" y="5" width="1" height="1"/><rect class="lb39-7" x="21" y="4" width="1" height="1"/><rect class="lb39-8" x="21" y="3" width="1" height="1"/><rect class="lb39-5" x="20" y="4" width="1" height="1"/><rect class="lb39-1" x="17" y="22" width="1" height="1"/><path class="lb39-1" d="M19,22v2h2V23h2V22H19Z"/><path class="lb39-1" d="M10,24V22H9v2Z"/><rect class="lb39-1" x="11" y="22" width="1" height="1"/><path class="lb39-1" d="M6,31H4v1H3v1H6V31Z"/><path class="lb39-1" d="M2,30H4V28H3V27H1V26H0v5H2Z"/><path class="lb39-1" d="M4,24H1v1H2v1H5V25H4Z"/><path class="lb39-1" d="M1,23H0v1H1Z"/><path class="lb39-2" d="M23,27H22v6h1V27Z"/><path class="lb39-2" d="M21,26v1h1V26Z"/><path class="lb39-10" d="M21,32v1h1V32Z"/><path class="lb39-10" d="M21,28h1V27H21Z"/><path class="lb39-10" d="M21,30v1h1V29H21Z"/><path class="lb39-2" d="M21,31V27H20v6h1V31Z"/><path class="lb39-2" d="M20,25H19v1h2V25Z"/><path class="lb39-10" d="M16,23H13v2h1V24h1v1h1V23Z"/><path class="lb39-10" d="M17,32V31h1V30h1v1h1V29H19V28h1V27h1V26H19v1H18V26H17V25H16v1H15v1H14V26H13V25H12v1H11v1H10V26H8v1H9v1h1v1H9v2h1V30h1v1h1v1H11v1h3V32H13V31h1V30h1v1h1v1H15v1h3V32Zm-3-3H13v1H12V29H11V28h1V27h1v1h1Zm1,0V28h1V27h1v1h1v1H17v1H16V29Z"/><path class="lb39-10" d="M19,32v1h1V32Z"/><rect class="lb39-10" x="9" y="32" width="1" height="1"/><path class="lb39-2" d="M19,25V24H17v1h2Z"/><path class="lb39-2" d="M11,24H10v1h2V24Z"/><path class="lb39-2" d="M9,31V30H8V26h2V25H8V24H7v7H6v1H8v1H9V31Z"/><path class="lb39-10" d="M7,27H6v3H7Z"/><path class="lb39-11" d="M11,18v1h1V18h2v1h1V18h2v1h1V18h1V16h1V15H19V11H18V10H17v1H16V10H15v1H14V10H13v1H12V10H11v1H10v4H9v1h1v2Zm0-4h1V13h1V12h3v1h1v1h1v1H16v1H15v1H14V16H13V15H11Z"/><polygon class="lb39-11" points="13 21 14 21 14 22 15 22 15 21 16 21 16 20 13 20 13 21"/><rect class="lb39-2" x="13" y="9" width="1" height="1"/><rect class="lb39-2" x="17" y="9" width="1" height="1"/><rect class="lb39-2" x="15" y="9" width="1" height="1"/><rect class="lb39-2" x="11" y="9" width="1" height="1"/><rect class="lb39-2" x="10" y="10" width="1" height="1"/><path class="lb39-12" d="M12,32V31H11V30H10v1H9v1h1v1h1V32Z"/><path class="lb39-12" d="M8,30H9V29h1V28H9V27H8v3Z"/><path class="lb39-12" d="M7,30H6v1H7Z"/><path class="lb39-12" d="M7,24H6v3H7Z"/><polygon class="lb39-12" points="13 27 12 27 12 28 11 28 11 29 12 29 12 30 13 30 13 29 14 29 14 28 13 28 13 27"/><path class="lb39-12" d="M10,26v1h1V26h1V25H10Z"/><polygon class="lb39-12" points="15 24 14 24 14 25 13 25 13 26 14 26 14 27 15 27 15 26 16 26 16 25 15 25 15 24"/><polygon class="lb39-12" points="17 30 17 29 18 29 18 28 17 28 17 27 16 27 16 28 15 28 15 29 16 29 16 30 17 30"/><path class="lb39-12" d="M18,25H17v1h1v1h1V25Z"/><path class="lb39-12" d="M21,29h1V28H21Z"/><path class="lb39-12" d="M19,29h1V28H19Z"/><path class="lb39-12" d="M21,32h1V31H21Z"/><polygon class="lb39-12" points="16 32 16 31 15 31 15 30 14 30 14 31 13 31 13 32 14 32 14 33 15 33 15 32 16 32"/><path class="lb39-12" d="M20,32V31H19V30H18v1H17v1h1v1h1V32Z"/><path class="lb39-13" d="M11,22h1v1h5V22h2V20h1V17H19v1H18v1H16v2H15v1H14V21H13V19h1V18H12v1H11V18H10V17H9v3h1v2Z"/><path class="lb39-13" d="M15,18v1h1V18Z"/><path class="lb39-14" d="M19,23V22H18v1Z"/><path class="lb39-13" d="M18,24h1V23H18Z"/><path class="lb39-14" d="M17,24V23H16v1Z"/><path class="lb39-13" d="M16,24v1h1V24Z"/><path class="lb39-14" d="M13,24V23H12v1Z"/><path class="lb39-13" d="M12,24v1h1V24Z"/><path class="lb39-14" d="M11,23V22H10v1Z"/><path class="lb39-13" d="M10,23v1h1V23Z"/><path class="lb39-15" d="M18,15V14H17v1Z"/><rect class="lb39-15" x="16" y="13" width="1" height="1"/><rect class="lb39-2" x="14" y="14" width="1" height="1"/><path class="lb39-8" d="M13,15v1h3V15h1V14H16V13H13v1H12v1Zm1-1h1v1H14Z"/><path class="lb39-15" d="M16,12H13v1h3Z"/><rect class="lb39-15" x="12" y="13" width="1" height="1"/><rect class="lb39-15" x="11" y="14" width="1" height="1"/><path class="lb39-2" d="M14,17h1V16H14Z"/><path class="lb39-2" d="M14,19H13v1h3V19H14Z"/><path class="lb39-2" d="M16,18v1h1V18Z"/><path class="lb39-16" d="M18,11h1V9H18v2Z"/><path class="lb39-16" d="M12,10v1h1V9h1v2h1V9h1v2h1V9h1V8H11V9h1Z"/><rect class="lb39-16" x="10" y="9" width="1" height="1"/><rect class="lb39-16" x="9" y="10" width="1" height="1"/><path class="lb39-11" d="M8,24V22H6v2H8Z"/><path class="lb39-17" d="M8,21V20H7v2H8Z"/><path class="lb39-2" d="M9,22H8v2H9Z"/><path class="lb39-18" d="M5,17H2v1H5Z"/><path class="lb39-18" d="M6,16H5v1H6Z"/><path class="lb39-18" d="M8,17V16H7v1Z"/><path class="lb39-18" d="M5,18v1H2v2H5V20H6V18Z"/><path class="lb39-18" d="M8,18H7v2H8Z"/><path class="lb39-8" d="M8,18V17H7V16H6v1H5v1H6v2H7V18Z"/><path class="lb39-8" d="M5,19V18H2v1H5Z"/><path class="lb39-3" d="M9,22h1V21H8v1Z"/></svg>