<svg xmlns="http://www.w3.org/2000/svg" viewBox="0 0 29 33"><defs><style>polygon,rect,path{shape-rendering:crispedges;}.wa11-1{fill:#d4a122;}.wa11-2{fill:#000000;}.wa11-3{fill:#6c9302;}.wa11-4{fill:#ce8452;}.wa11-5{fill:#875070;}.wa11-6{fill:#ffffff;}.wa11-7{fill:#893a1f;}.wa11-8{fill:#893a1f;}.wa11-9{fill:#f9e100;}</style></defs><path class="wa11-1" d="M0,33H6V24H7V23H8v1H9v1h1V22h1V20H10V19H9V16H8V15H9V11h1V10h1V7h1V6H11V5h2V6h2V7h1V9h2v1h1v1h1v4h1v1H20v3H19v1H18v2h1v3h1V24h1V23h1v1h1v9h6V0H0Z"/><path class="wa11-2" d="M23,24H22v9h1V24Z"/><path class="wa11-2" d="M7,31V24H6v9H7V31Z"/><path class="wa11-3" d="M7,32v1H8V32Z"/><path class="wa11-3" d="M7,30v1H8V29H7Z"/><path class="wa11-3" d="M7,28H8V27H7Z"/><path class="wa11-2" d="M21,31V27H20v4H14V27H13v4H9V27H8v6H9V32H20v1h1V31Z"/><path class="wa11-3" d="M9,32v1h1V32Z"/><path class="wa11-3" d="M19,32v1h1V32Z"/><path class="wa11-3" d="M17,32H15v1h3V32Z"/><path class="wa11-3" d="M13,32H11v1h3V32Z"/><path class="wa11-2" d="M11,24V22H10v3h1Z"/><path class="wa11-2" d="M12,21H11v1h1Z"/><path class="wa11-2" d="M13,24V22H12v2Z"/><path class="wa11-3" d="M13,26V24H12V23H11v2h1v1H11v1H9v1h1v1H9v2h1V30h1v1h2V30H12V29H11V28h1V27h2V26Z"/><path class="wa11-2" d="M13,24v1h1V24Z"/><path class="wa11-2" d="M15,26V25H14v2h1Z"/><path class="wa11-4" d="M14,24v1h1V24h1V23H13v1Z"/><rect class="wa11-2" x="15" y="24" width="1" height="1"/><path class="wa11-2" d="M17,24V22H16v2Z"/><path class="wa11-2" d="M17,22h1V21H17Z"/><path class="wa11-2" d="M18,24v1h1V22H18v2Z"/><path class="wa11-3" d="M18,27V26H17V25h1V23H17v1H16v2H15v1H14v3h1v1h3V30h1v1h1V29H19V28h1V27H18Zm0,2H17v1H16V29H15V28h1V27h1v1h1Z"/><path class="wa11-3" d="M21,30v1h1V29H21Z"/><path class="wa11-3" d="M21,32v1h1V32Z"/><path class="wa11-3" d="M21,28h1V27H21Z"/><rect class="wa11-2" x="20" y="15" width="1" height="1"/><path class="wa11-2" d="M19,14v1h1V11H19v3Z"/><rect class="wa11-4" x="13" y="20" width="1" height="1"/><path class="wa11-4" d="M10,17v1h1v1h1V18h2v1h1V18h2v1h1V18h1V16h1V15H16V13h3V11H18V10H16v1H14V10H11v1H10v1h3v1H10v1h3v1H9v1h1Zm4-1h1v1H14Z"/><rect class="wa11-4" x="15" y="20" width="1" height="1"/><path class="wa11-2" d="M19,17h1V16H19Z"/><rect class="wa11-2" x="18" y="10" width="1" height="1"/><path class="wa11-2" d="M17,10h1V9H16v1Z"/><path class="wa11-2" d="M13,9H11v1h2Z"/><rect class="wa11-2" x="10" y="10" width="1" height="1"/><path class="wa11-2" d="M10,16H9v1h1Z"/><rect class="wa11-2" x="8" y="15" width="1" height="1"/><rect class="wa11-2" x="14" y="16" width="1" height="1"/><path class="wa11-5" d="M10,30v1h1V30Z"/><path class="wa11-5" d="M10,32v1h1V32Z"/><path class="wa11-5" d="M12,28H11v1h1v1h1V27H12Z"/><path class="wa11-5" d="M11,27V26h1V25H10v2Z"/><path class="wa11-5" d="M15,26h1V25H15Z"/><path class="wa11-5" d="M13,26h1V25H13Z"/><polygon class="wa11-5" points="17 27 16 27 16 28 15 28 15 29 16 29 16 30 17 30 17 29 18 29 18 28 17 28 17 27"/><path class="wa11-5" d="M17,25v1h1v1h1V25H17Z"/><path class="wa11-5" d="M7,29H8V28H7Z"/><path class="wa11-5" d="M10,28H9v1h1Z"/><path class="wa11-5" d="M21,29h1V28H21Z"/><path class="wa11-5" d="M19,29h1V28H19Z"/><path class="wa11-5" d="M21,32h1V31H21Z"/><path class="wa11-5" d="M7,32H8V31H7Z"/><path class="wa11-5" d="M14,30v1h1V30Z"/><path class="wa11-5" d="M14,32v1h1V32Z"/><path class="wa11-5" d="M18,30v1h1V30Z"/><path class="wa11-5" d="M18,32v1h1V32Z"/><path class="wa11-5" d="M12,23V22H11v1Z"/><path class="wa11-5" d="M17,23h1V22H17Z"/><path class="wa11-6" d="M18,14v1h1V14Z"/><path class="wa11-6" d="M13,15V14H12v1Z"/><path class="wa11-2" d="M17,14H16v1h2V14Z"/><path class="wa11-2" d="M12,15V14H10V11H9v4h3Z"/><path class="wa11-7" d="M13,13V12H10v1Z"/><path class="wa11-7" d="M18,14h1V13H16v1h2Z"/><path class="wa11-8" d="M15,18v1h1V18Z"/><path class="wa11-8" d="M12,22h1v1h3V22h1V21h1V20h1V19h1V17H19v1H18v1H16v2H15V20H14v1H13V19h1V18H12v1H11V18H10V17H9v2h1v1h1v1h1Z"/><path class="wa11-2" d="M14,19H13v1h3V19H14Z"/><path class="wa11-2" d="M16,18v1h1V18Z"/><path class="wa11-4" d="M21,27h1V24H21v1H20v2Z"/><path class="wa11-2" d="M20,27V25H19v2Z"/><rect class="wa11-2" x="20" y="24" width="1" height="1"/><rect class="wa11-2" x="21" y="23" width="1" height="1"/><path class="wa11-4" d="M7,27H9V25H8V24H7v3Z"/><path class="wa11-2" d="M10,27V25H9v2Z"/><rect class="wa11-2" x="8" y="24" width="1" height="1"/><rect class="wa11-2" x="7" y="23" width="1" height="1"/><path class="wa11-9" d="M13,10h1v1h2V7H15V6H13V5H11V6h1V7H11V9h2Z"/><rect class="wa11-9" x="10" y="9" width="1" height="1"></rect></svg>