<svg xmlns="http://www.w3.org/2000/svg" viewBox="0 0 29 33"><defs><style>polygon,rect,path{shape-rendering:crispedges;}.eb226-1{fill:#b4bd09;}.eb226-2{fill:#000000;}.eb226-3{fill:#8c7850;}.eb226-4{fill:#d8be00;}.eb226-5{fill:#ce8452;}.eb226-6{fill:#90a2a3;}.eb226-7{fill:#492a23;}.eb226-8{fill:#ffffff;}.eb226-9{fill:#fad000;}.eb226-10{fill:#0068ff;}.eb226-11{fill:#4922aa;}</style></defs><path class="eb226-1" d="M0,33H6V27H7V26H8V25H9V24h1V23h1V22h1V21H9V20H8V19H9V16H8V15H9V11h1V10h1V9h7v1h1v1h1v4h1v1H20v3h1v1H20v1H17v1h1v1h1v1h1v1h1v1h1v1h1v6h6V0H0Z"/><path class="eb226-2" d="M23,27H22v6h1V27Z"/><path class="eb226-3" d="M22,27H21v6h1V27Z"/><path class="eb226-2" d="M21,27h1V26H21V25H20v2H17v1h2v1h1v4h1V27Z"/><path class="eb226-3" d="M20,29H19v1H18v1H17v1H16v1h4V29Z"/><path class="eb226-3" d="M18,26H17v1h2V26h1V25H18Z"/><path class="eb226-3" d="M16,28v3h1V30h1V29h1V28H17V27H16Z"/><rect class="eb226-2" x="18" y="29" width="1" height="1"/><path class="eb226-4" d="M15,30H14v3h1V30Z"/><path class="eb226-5" d="M14,24h1v1h1V23H13v2h1Z"/><path class="eb226-3" d="M12,32V31H11V30H10V29H9v4h4V32Z"/><rect class="eb226-2" x="11" y="30" width="1" height="1"/><path class="eb226-3" d="M12,28H10v1h1v1h1v1h1V27H12Z"/><path class="eb226-3" d="M10,26v1h2V26H11V25H9v1Z"/><path class="eb226-2" d="M9,29h1V28h2V27H9V25H8v1H7v1H8v6H9V29Z"/><path class="eb226-3" d="M8,27H7v6H8V27Z"/><path class="eb226-2" d="M7,27H6v6H7V27Z"/><rect class="eb226-2" x="10" y="29" width="1" height="1"/><rect class="eb226-2" x="17" y="30" width="1" height="1"/><path class="eb226-2" d="M17,32V31H16V27H15v2H14V27H13v4H12v1h1v1h1V30h1v3h1V32Z"/><path class="eb226-6" d="M9,26v1h1V26Z"/><path class="eb226-6" d="M19,27h1V26H19Z"/><rect class="eb226-2" x="20" y="15" width="1" height="1"/><path class="eb226-2" d="M19,13v2h1V12H19Z"/><rect class="eb226-5" x="17" y="10" width="1" height="1"/><path class="eb226-5" d="M13,22h3V21h1V19h1V18h1V16h1V15H19V11H18v1H17V11H16V10H13v1H12v1H11V11H10v4H9v1h1v2h1v1h1V18h1v1h3v1H13V19H12v2h1Zm2-6v1H14V16H13V15H11V14h1V13h1V12h3v1h1v1h1v1H16v1Z"/><rect class="eb226-5" x="11" y="10" width="1" height="1"/><path class="eb226-2" d="M17,20v1h1V20Z"/><path class="eb226-2" d="M11,20v1h1V20Z"/><path class="eb226-2" d="M10,14V12H9v3h1Z"/><rect class="eb226-2" x="8" y="15" width="1" height="1"/><path class="eb226-7" d="M18,15V14H17v1Z"/><rect class="eb226-7" x="16" y="13" width="1" height="1"/><rect class="eb226-2" x="14" y="14" width="1" height="1"/><path class="eb226-8" d="M16,15h1V14H16V13H13v1H12v1h1v1h3Zm-1,0H14V14h1Z"/><path class="eb226-7" d="M16,13V12H13v1h3Z"/><rect class="eb226-7" x="12" y="13" width="1" height="1"/><path class="eb226-7" d="M11,14v1h1V14Z"/><path class="eb226-2" d="M14,17h1V16H14Z"/><rect class="eb226-2" x="12" y="26" width="1" height="1"/><rect class="eb226-2" x="16" y="26" width="1" height="1"/><rect class="eb226-2" x="17" y="25" width="1" height="1"/><rect class="eb226-2" x="11" y="25" width="1" height="1"/><rect class="eb226-2" x="14" y="24" width="1" height="1"/><rect class="eb226-2" x="13" y="25" width="1" height="1"/><rect class="eb226-2" x="15" y="25" width="1" height="1"/><path class="eb226-2" d="M12,24v1h1V23h3v2h1V23h1V22H17V21H16v1H13V21H12v1H11v1h1Z"/><rect class="eb226-9" x="16" y="25" width="1" height="1"/><path class="eb226-9" d="M15,26V25H14v1H13v1h1v2h1V27h1V26Z"/><rect class="eb226-9" x="12" y="25" width="1" height="1"/><path class="eb226-9" d="M12,25V23H11v2Z"/><path class="eb226-9" d="M17,24v1h1V23H17Z"/><path class="eb226-2" d="M20,25V24H19V23H18v2Z"/><path class="eb226-2" d="M11,23H10v1H9v1h2Z"/><path class="eb226-10" d="M19,17v1H18v1H17v1h1v1h2V20h1V19H20V16H19Z"/><path class="eb226-10" d="M12,20V19H11V18H10V16H9v3H8v1H9v1h2V20Z"/><rect class="eb226-2" x="13" y="19" width="3" height="1"/><rect class="eb226-2" x="12" y="18" width="1" height="1"/><path class="eb226-11" d="M20,12V11H19v1Z"/><rect class="eb226-11" x="18" y="10" width="1" height="1"/><path class="eb226-11" d="M12,11h1V10h3v1h1V10h1V9H11v1h1Z"/><rect class="eb226-11" x="17" y="11" width="1" height="1"/><rect class="eb226-11" x="11" y="11" width="1" height="1"/><rect class="eb226-11" x="10" y="10" width="1" height="1"/><path class="eb226-11" d="M10,11H9v1h1Z"/></svg>