<svg xmlns="http://www.w3.org/2000/svg" viewBox="0 0 29 33"><defs><style>polygon,rect,path{shape-rendering:crispedges;}.fa114-1{fill:#b4bd09;}.fa114-2{fill:#000000;}.fa114-3{fill:#ff1d99;}.fa114-4{fill:#e8b795;}.fa114-5{fill:#ff1d99;}.fa114-6{fill:#ffffff;}.fa114-7{fill:#663228;}.fa114-8{fill:#34e0cb;}</style></defs><polygon class="fa114-1" points="0 33 6 33 6 32 6 31 6 30 6 29 6 28 6 27 7 27 7 26 8 26 8 25 9 25 10 25 10 24 11 24 12 24 12 23 12 22 12 21 11 21 11 20 10 20 10 19 9 19 9 18 9 17 9 16 8 16 8 15 9 15 9 14 9 13 9 12 9 11 9 10 10 10 10 9 11 9 11 8 18 8 18 9 19 9 19 10 20 10 20 11 20 12 21 12 21 15 21 16 21 18 20 18 20 19 19 19 19 20 18 20 18 21 17 21 17 22 17 23 17 24 18 24 19 24 19 25 20 25 21 25 21 26 22 26 22 27 23 27 23 28 23 29 23 30 23 31 23 32 23 33 29 33 29 0 0 0 0 33"/><polygon class="fa114-2" points="23 31 23 30 23 29 23 28 23 27 22 27 22 28 22 29 22 30 21 30 21 29 21 28 21 27 20 27 20 28 20 29 20 30 20 31 20 32 20 33 21 33 21 32 21 31 22 31 22 32 22 33 23 33 23 32 23 31"/><rect class="fa114-2" x="21" y="26" width="1" height="1"/><polygon class="fa114-3" points="21 28 21 29 21 30 22 30 22 29 22 28 22 27 21 27 21 28"/><polygon class="fa114-4" points="22 31 21 31 21 32 21 33 22 33 22 32 22 31"/><polygon class="fa114-2" points="20 26 21 26 21 25 20 25 19 25 19 26 20 26"/><rect class="fa114-3" x="13" y="29" width="1" height="2"/><path class="fa114-3" d="M20,31V27h1V26H19V25H17v1H16v1H13V26H12V25H10v1H8v1H9v6H20V31Zm-9-2v3H10V28h1Zm4,3H12V28h3Zm4-3H17v2h1V30h1v2H16V28h3Z"/><polygon class="fa114-2" points="18 25 19 25 19 24 18 24 17 24 17 25 18 25"/><rect class="fa114-2" x="16" y="25" width="1" height="1"/><polygon class="fa114-2" points="14 26 13 26 13 27 14 27 15 27 16 27 16 26 15 26 14 26"/><polygon class="fa114-2" points="13 23 14 23 15 23 16 23 16 24 17 24 17 23 17 22 17 21 16 21 16 22 15 22 14 22 13 22 13 21 12 21 12 22 12 23 12 24 13 24 13 23"/><polygon class="fa114-4" points="13 25 13 26 14 26 15 26 16 26 16 25 17 25 17 24 16 24 16 23 15 23 14 23 13 23 13 24 12 24 12 25 13 25"/><rect class="fa114-2" x="12" y="25" width="1" height="1"/><polygon class="fa114-2" points="12 25 12 24 11 24 10 24 10 25 11 25 12 25"/><polygon class="fa114-2" points="10 26 10 25 9 25 8 25 8 26 9 26 10 26"/><polygon class="fa114-2" points="9 31 9 30 9 29 9 28 9 27 8 27 8 28 8 29 8 30 7 30 7 29 7 28 7 27 6 27 6 28 6 29 6 30 6 31 6 32 6 33 7 33 7 32 7 31 8 31 8 32 8 33 9 33 9 32 9 31"/><rect class="fa114-2" x="7" y="26" width="1" height="1"/><polygon class="fa114-3" points="7 29 7 30 8 30 8 29 8 28 8 27 7 27 7 28 7 29"/><polygon class="fa114-4" points="8 31 7 31 7 32 7 33 8 33 8 32 8 31"/><path class="fa114-5" d="M12,32h3V28H12Zm1-3h1v2H13Z"/><polygon class="fa114-5" points="10 29 10 30 10 31 10 32 11 32 11 31 11 30 11 29 11 28 10 28 10 29"/><polygon class="fa114-5" points="17 28 16 28 16 29 16 30 16 31 16 32 17 32 18 32 19 32 19 31 19 30 18 30 18 31 17 31 17 30 17 29 18 29 19 29 19 28 18 28 17 28"/><path class="fa114-4" d="M13,22h3V21h1V20h1V19h1V16h1V15H16V14h2V13H16V12H15V11H13V10H11v1H10v2h1V12h2v1H11v1h2v1H9v1h1v3h1v1h1v1h1Zm1-6h1v1H14Zm-1,3h3V18h1v1H16v1H13Z"/><polygon class="fa114-2" points="20 16 19 16 19 17 19 18 19 19 20 19 20 18 20 17 20 16"/><rect class="fa114-2" x="18" y="19" width="1" height="1"/><rect class="fa114-2" x="17" y="20" width="1" height="1"/><rect class="fa114-2" x="11" y="20" width="1" height="1"/><rect class="fa114-2" x="10" y="19" width="1" height="1"/><polygon class="fa114-2" points="10 17 10 16 9 16 9 17 9 18 9 19 10 19 10 18 10 17"/><rect class="fa114-2" x="8" y="15" width="1" height="1"/><rect class="fa114-2" x="14" y="16" width="1" height="1"/><rect class="fa114-6" x="12" y="14" width="1" height="1"/><rect class="fa114-6" x="10" y="14" width="1" height="1"/><rect class="fa114-6" x="18" y="14" width="1" height="1"/><rect class="fa114-6" x="16" y="14" width="1" height="1"/><rect class="fa114-2" x="11" y="14" width="1" height="1"/><rect class="fa114-2" x="17" y="14" width="1" height="1"/><rect class="fa114-7" x="10" y="13" width="1" height="1"/><rect class="fa114-7" x="11" y="12" width="2" height="1"/><rect class="fa114-2" x="13" y="19" width="3" height="1"/><rect class="fa114-2" x="16" y="18" width="1" height="1"/><polygon class="fa114-8" points="10 14 10 13 10 12 10 11 11 11 11 10 12 10 13 10 13 11 15 11 15 12 16 12 16 13 18 13 18 14 19 14 19 15 20 15 20 16 20 17 20 18 21 18 21 16 21 15 21 12 20 12 20 11 20 10 19 10 19 9 18 9 18 8 11 8 11 9 10 9 10 10 9 10 9 11 9 12 9 13 9 14 9 15 10 15 10 14"/></svg>