<svg xmlns="http://www.w3.org/2000/svg" viewBox="0 0 29 33"><defs><style>polygon,rect,path{shape-rendering:crispedges;}.ha107-1{fill:#29834f;}.ha107-2{fill:#000000;}.ha107-3{fill:#003b3f;}.ha107-4{fill:#e8b795;}.ha107-5{fill:#009b97;}.ha107-6{fill:#685432;}.ha107-7{fill:#ffffff;}.ha107-8{fill:#7f5018;}.ha107-9{fill:#cc2f76;}.ha107-10{fill:#dfdfdf;}.ha107-11{fill:#a89969;}</style></defs><path class="ha107-1" d="M0,33H6V27H7V26H8V25h2V24h2V22H11V21H10V20H9V16H8V15H9V13H7V12H5V11H7v1H9V10h1V8h1V7h2V8h3V7h2V8h1V7h1V6h2V8H21V9H20v3h2V11h2v1H22v1H20v2h1v1H20v4H19v1H18v1H17v2h2v1h2v1h1v1h1v6h6V0H0Z"/><path class="ha107-2" d="M23,27H22v6h1V27Z"/><rect class="ha107-2" x="21" y="26" width="1" height="1"/><path class="ha107-3" d="M22,27H21v6h1V27Z"/><path class="ha107-2" d="M21,27H20v6h1V27Z"/><path class="ha107-2" d="M20,26h1V25H19v1Z"/><path class="ha107-3" d="M16,32H12v1h5V32Z"/><path class="ha107-3" d="M20,27h1V26H19V25H17v1H16v1H13V26H12V25H10v1H9v7h1V30h1V29h1V28h5v1h1v1h1v3h1V27Z"/><rect class="ha107-3" x="16" y="30" width="1" height="1"/><rect class="ha107-3" x="12" y="30" width="1" height="1"/><path class="ha107-2" d="M18,25h1V24H17v1Z"/><rect class="ha107-2" x="16" y="25" width="1" height="1"/><path class="ha107-2" d="M13,26v1h3V26H13Z"/><path class="ha107-2" d="M13,23V22H12v2h1Z"/><path class="ha107-4" d="M13,25v1h3V25h1V24H16V23H13v1H12v1Z"/><rect class="ha107-2" x="12" y="25" width="1" height="1"/><path class="ha107-2" d="M12,24H10v1h2Z"/><path class="ha107-2" d="M9,26h1V25H8v1H7v1H8v6H9V26Z"/><path class="ha107-3" d="M8,27H7v6H8V27Z"/><path class="ha107-2" d="M7,27H6v6H7V27Z"/><path class="ha107-5" d="M19,30H18V29H17V28H12v1H11v1H10v3h2V32h5v1h2V30Zm-6,1H12V30h1Zm4,0H16V30h1Z"/><rect class="ha107-2" x="20" y="15" width="1" height="1"/><rect class="ha107-4" x="13" y="20" width="1" height="1"/><path class="ha107-4" d="M10,17v1h1v1h1V18h5v1h1V18h1V16h1V15H19V13H17v1h1v1H16v1H15v1H14V16H13V15H11V14H10v1H9v1h1Z"/><rect class="ha107-4" x="15" y="20" width="1" height="1"/><path class="ha107-2" d="M16,23v1h1V22H16Z"/><rect class="ha107-2" x="8" y="15" width="1" height="1"/><path class="ha107-6" d="M18,15V14H17v1Z"/><rect class="ha107-6" x="16" y="13" width="1" height="1"/><rect class="ha107-2" x="14" y="14" width="1" height="1"/><path class="ha107-7" d="M16,13H13v1H12v1h1v1h3V15h1V14H16Zm-1,2H14V14h1Z"/><rect class="ha107-6" x="12" y="13" width="1" height="1"/><path class="ha107-6" d="M11,14v1h1V14Z"/><path class="ha107-2" d="M14,17h1V16H14Z"/><rect class="ha107-4" x="11" y="13" width="1" height="1"/><path class="ha107-8" d="M13,23h3V22h2V21h1V20h1V16H19v2H18v1H16v2H15V20H14v1H13V19H11V18H10V16H9v4h1v1h1v1h2Z"/><path class="ha107-2" d="M12,18v1h1V18Z"/><path class="ha107-2" d="M16,18v1h1V18Z"/><path class="ha107-2" d="M15,18H14v1H13v1h3V19H15Z"/><path class="ha107-7" d="M14,18H13v1h1Z"/><path class="ha107-7" d="M15,18v1h1V18Z"/><path class="ha107-9" d="M10,14h1V13H9v2h1Z"/><path class="ha107-9" d="M19,14v1h1V13H19Z"/><path class="ha107-2" d="M24,11H22v1h2Z"/><path class="ha107-10" d="M21,8h1V7H21Z"/><path class="ha107-2" d="M12,13H22V12H20V11H19v1H10V11H9v1H7v1h5Z"/><rect class="ha107-10" x="20" y="8" width="1" height="1"/><path class="ha107-11" d="M19,11h1V10H19Z"/><path class="ha107-7" d="M18,11h1V10h1V8h1V7h1V6H20V7H19V8H18v3Z"/><path class="ha107-11" d="M17,11H10v1h9V11H17Z"/><path class="ha107-2" d="M11,11h7V7H16V8H13V7H11V8H10v3Z"/><path class="ha107-11" d="M10,10H9v1h1Z"/><path class="ha107-2" d="M6,11H5v1H7V11Z"/></svg>