<svg xmlns="http://www.w3.org/2000/svg" viewBox="0 0 29 33"><defs><style>polygon,rect,path{shape-rendering:crispedges;}.ya21-1{fill:#6b4f99;}.ya21-2{fill:#000000;}.ya21-3{fill:#9b8100;}.ya21-4{fill:#b2622b;}.ya21-5{fill:#508e5d;}.ya21-6{fill:#ffffff;}.ya21-7{fill:#b23b00;}.ya21-8{fill:#893a1f;}.ya21-9{fill:#4fdb7d;}</style></defs><path class="ya21-1" d="M0,33H6V27H7V26H8V25h2V24h1V23h1V21H11V20H10V19H9V16H8V15H9V11h1V10H9V9h1V8h2V7h1V8h3V9h1V8h1V9h1v1h1v5h1v1H20v3H19v1H18v1H17v2h1v1h1v1h2v1h1v1h1v6h6V0H0Z"/><rect class="ya21-1" x="12" y="8" width="1" height="1"/><path class="ya21-2" d="M23,27H22v6h1V27Z"/><path class="ya21-3" d="M21,32v1h1V32Z"/><path class="ya21-3" d="M21,30v1h1V29H21Z"/><path class="ya21-3" d="M21,28h1V27H21Z"/><rect class="ya21-2" x="21" y="26" width="1" height="1"/><path class="ya21-2" d="M21,31V27H20v6h1V31Z"/><rect class="ya21-3" x="9" y="32" width="1" height="1"/><path class="ya21-3" d="M17,32V31h1V30h1v1h1V29H19V28h1V27h1V26H19v1H18V26H15v1H14V26H11v1H10V26H8v1H9v1h1v1H9v2h1V30h1v1h1v1H11v1h3V32H13V31h1V30h1v1h1v1H15v1h3V32Zm-2-3H13v1H12V29H11V28h1V27h1v1h3V27h1v1h1v1H17v1H16V29Z"/><path class="ya21-3" d="M19,32v1h1V32Z"/><path class="ya21-2" d="M20,26h1V25H19v1Z"/><rect class="ya21-3" x="16" y="24" width="1" height="1"/><rect class="ya21-2" x="15" y="24" width="1" height="1"/><rect class="ya21-2" x="14" y="32" width="1" height="1"/><rect class="ya21-2" x="14" y="30" width="1" height="1"/><path class="ya21-2" d="M14,28v1h1V28Z"/><path class="ya21-2" d="M14,25v2h1V25Z"/><rect class="ya21-2" x="13" y="24" width="1" height="1"/><path class="ya21-4" d="M14,25h1V24h1V23H13v1h1Z"/><rect class="ya21-3" x="12" y="24" width="1" height="1"/><path class="ya21-2" d="M11,26h2V25H12V24h1V23h3v1h1v1H16v1h2V25h1V24H18V23H17V21H16v1H13V21H12v2H11v1H10v1h1Z"/><path class="ya21-2" d="M10,25H8v1h2Z"/><path class="ya21-2" d="M9,31V27H8v6H9V31Z"/><path class="ya21-3" d="M7,30v1H8V29H7Z"/><path class="ya21-3" d="M8,28V27H7v1Z"/><path class="ya21-3" d="M7,32v1H8V32Z"/><rect class="ya21-2" x="7" y="26" width="1" height="1"/><path class="ya21-2" d="M7,31V27H6v6H7V31Z"/><path class="ya21-5" d="M12,32V31H11V30H10v1H9v1h1v1h1V32Z"/><path class="ya21-5" d="M13,28V27H12v1H11v1h1v1h1V29h1V28Z"/><polygon class="ya21-5" points="10 27 11 27 11 26 11 25 10 25 10 26 10 27"/><path class="ya21-5" d="M15,25v1h1V25Z"/><path class="ya21-5" d="M13,25v1h1V25Z"/><path class="ya21-5" d="M17,30V29h1V28H17V27H16v1H15v1h1v1Z"/><polygon class="ya21-5" points="18 26 18 27 19 27 19 26 19 25 18 25 18 26"/><path class="ya21-5" d="M7,29H8V28H7Z"/><path class="ya21-5" d="M10,29V28H9v1Z"/><path class="ya21-5" d="M21,29h1V28H21Z"/><path class="ya21-5" d="M19,29h1V28H19Z"/><path class="ya21-5" d="M21,32h1V31H21Z"/><path class="ya21-5" d="M7,32H8V31H7Z"/><polygon class="ya21-5" points="16 32 16 31 15 31 14 31 13 31 13 32 14 32 15 32 16 32"/><path class="ya21-5" d="M20,32V31H19V30H18v1H17v1h1v1h1V32Z"/><rect class="ya21-2" x="20" y="15" width="1" height="1"/><path class="ya21-4" d="M13,22h3V21h1V20h1V19h1V16h1V15H16V14h2V13H16V12h2V11H17V10H16v1H11v1h1v1h1v2H9v1h1v3h1v1h1v1h1Zm1-6h1v1H14Zm-2,3V18h5v1H16v1H13V19Z"/><path class="ya21-4" d="M10,14h2V13H10Z"/><rect class="ya21-4" x="18" y="12" width="1" height="1"/><path class="ya21-2" d="M19,17v2h1V16H19Z"/><rect class="ya21-2" x="18" y="19" width="1" height="1"/><rect class="ya21-2" x="17" y="20" width="1" height="1"/><rect class="ya21-2" x="11" y="20" width="1" height="1"/><rect class="ya21-2" x="10" y="19" width="1" height="1"/><path class="ya21-2" d="M10,16H9v3h1V16Z"/><rect class="ya21-2" x="8" y="15" width="1" height="1"/><rect class="ya21-2" x="14" y="16" width="1" height="1"/><path class="ya21-6" d="M18,14v1h1V14Z"/><path class="ya21-6" d="M12,15h1V14H12Z"/><path class="ya21-2" d="M17,14H16v1h2V14Z"/><path class="ya21-2" d="M12,15V14H9v1h3Z"/><rect class="ya21-7" x="18" y="13" width="1" height="1"/><rect class="ya21-7" x="16" y="12" width="2" height="1"/><path class="ya21-7" d="M13,14V13H12v1Z"/><path class="ya21-7" d="M10,13h2V12H10Z"/><path class="ya21-8" d="M16,19V18H12v1h4Z"/><path class="ya21-2" d="M13,20h3V19H13Z"/><path class="ya21-2" d="M17,19V18H16v1Z"/><path class="ya21-9" d="M10,13V12h1V11h5V10h1v1h1v1h1v3h1V10H19V9H18V8H17V9H16V8H13V9H12V8H10V9H9v1h1v1H9v3h1Z"/><rect class="ya21-9" x="12" y="7" width="1" height="1"/></svg>