<svg xmlns="http://www.w3.org/2000/svg" viewBox="0 0 29 33"><defs><style>polygon,rect,path{shape-rendering:crispedges;}.ka242-1{fill:#397d98;}.ka242-2{fill:#000000;}.ka242-3{fill:#009b97;}.ka242-4{fill:#95f9ed;}.ka242-5{fill:#e8b795;}.ka242-6{fill:#ffffff;}.ka242-7{fill:#000000;}.ka242-8{fill:#10bcff;}</style></defs><path class="ka242-1" d="M6,32V27H7V26H8V25h2V24h2V21H11V20H10V19H9V16H8V15H9V11h1V10h1V9h7v1h2v5h1v1H20v3H19v1H18v1H17v3h2v1h1V24h1V23h1v1h1v9h6V0H0V33H6Z"/><path class="ka242-2" d="M7,30V27H6v6H7V30Z"/><rect class="ka242-2" x="7" y="26" width="1" height="1"/><path class="ka242-3" d="M8,28V27H7v1Z"/><path class="ka242-3" d="M7,31H8V30H7Z"/><path class="ka242-2" d="M9,30V27H8v6H9V30Z"/><path class="ka242-2" d="M10,25H8v1h2Z"/><path class="ka242-3" d="M10,27H9v1H20V27H10Z"/><path class="ka242-3" d="M9,31H20V30H9Z"/><path class="ka242-3" d="M17,25V24H12v1Z"/><path class="ka242-2" d="M12,24H10v1h2Z"/><path class="ka242-2" d="M13,23h3v1h1V21H16v1H13V21H12v3h1Z"/><path class="ka242-2" d="M18,25h1V24H17v1Z"/><path class="ka242-2" d="M21,30V27H20v6h1V30Z"/><path class="ka242-3" d="M21,31h1V30H21Z"/><path class="ka242-3" d="M21,28h1V27H21Z"/><path class="ka242-2" d="M23,24H22v9h1V24Z"/><path class="ka242-4" d="M9,31v2H20V31Z"/><path class="ka242-4" d="M9,29v1H20V28H9Z"/><path class="ka242-4" d="M9,27H19V25H10v1H8v1Z"/><path class="ka242-4" d="M15,23H13v1h3V23Z"/><path class="ka242-4" d="M7,29v1H8V28H7Z"/><path class="ka242-4" d="M7,31v2H8V31Z"/><path class="ka242-4" d="M21,31v2h1V31Z"/><path class="ka242-4" d="M21,29v1h1V28H21Z"/><rect class="ka242-2" x="20" y="15" width="1" height="1"/><rect class="ka242-5" x="9" y="15" width="1" height="1"/><rect class="ka242-5" x="18" y="12" width="1" height="1"/><path class="ka242-5" d="M13,22h3V21h1V20h1V19h1V16h1V15H16V14H14v2h1v1H14V16H13v1H11V16H10v3h1v1h1v1h1Zm-1-3V18h1v1h3v1H13V19Z"/><path class="ka242-5" d="M10,13h1V12h2v1H11v1h3V13h2V12h2V10H11v1H10v2Z"/><path class="ka242-5" d="M18,14V13H16v1h2Z"/><path class="ka242-2" d="M19,17v2h1V16H19Z"/><rect class="ka242-2" x="18" y="19" width="1" height="1"/><rect class="ka242-2" x="17" y="20" width="1" height="1"/><rect class="ka242-2" x="11" y="20" width="1" height="1"/><rect class="ka242-2" x="10" y="19" width="1" height="1"/><path class="ka242-2" d="M10,16H9v3h1V16Z"/><rect class="ka242-2" x="8" y="15" width="1" height="1"/><rect class="ka242-2" x="14" y="16" width="1" height="1"/><path class="ka242-6" d="M16,14v1h1V14Z"/><path class="ka242-2" d="M18,14H17v1h3V14H18Z"/><path class="ka242-7" d="M18,14h1V13H18Z"/><rect class="ka242-7" x="10" y="13" width="1" height="1"/><rect class="ka242-7" x="11" y="12" width="2" height="1"/><rect class="ka242-2" x="13" y="19" width="3" height="1"/><rect class="ka242-2" x="12" y="18" width="1" height="1"/><path class="ka242-5" d="M21,27h1V24H21v1H20v2Z"/><path class="ka242-2" d="M20,27V25H19v2Z"/><rect class="ka242-2" x="20" y="24" width="1" height="1"/><rect class="ka242-2" x="21" y="23" width="1" height="1"/><path class="ka242-8" d="M19,12v2h1V11H19Z"/><path class="ka242-8" d="M19,11V10H18v1Z"/><path class="ka242-8" d="M18,10V9H11v1h7Z"/><rect class="ka242-8" x="10" y="10" width="1" height="1"/><path class="ka242-8" d="M10,12V11H9v2h1Z"/><path class="ka242-2" d="M10,16h1v1h2V16h1V14H10V13H9v2h1Z"/><rect class="ka242-2" x="14" y="13" width="2" height="1"/><rect class="ka242-2" x="16" y="12" width="2" height="1"/><path class="ka242-2" d="M19,11H18v1h1Z"/><path class="ka242-2" d="M20,11V10H19v1Z"/></svg>