<svg xmlns="http://www.w3.org/2000/svg" viewBox="0 0 29 33"><defs><style>polygon,rect,path{shape-rendering:crispedges;}.bb197-1{fill:#b4bd09;}.bb197-2{fill:#000000;}.bb197-3{fill:#316a6d;}.bb197-4{fill:#ffffff;}.bb197-5{fill:#efcaaf;}.bb197-6{fill:#8e4717;}.bb197-7{fill:#8e4717;}.bb197-8{fill:#cc3232;}</style></defs><path class="bb197-1" d="M0,33H6V27H7V26H8V25h2V24h1V23h1V21H11V20H10V19H9V16H8V15H9V11h1V10h1V9h2V7h1V5h1V6h1V8h1V9h1v1h1v1h1v4h1v1H20v3H19v1H18v1H17v2h1v1h1v1h2v1h1v1h1v6h6V0H0Z"/><path class="bb197-2" d="M23,27H22v6h1V27Z"/><path class="bb197-3" d="M22,27H21v6h1V27Z"/><rect class="bb197-2" x="21" y="26" width="1" height="1"/><path class="bb197-2" d="M21,27H20v6h1V27Z"/><path class="bb197-3" d="M20,27h1V26H19V25H18v4H17v4h3V27Z"/><path class="bb197-2" d="M20,26h1V25H19v1Z"/><path class="bb197-2" d="M17,29H16v4h1V29Z"/><rect class="bb197-4" x="16" y="24" width="1" height="1"/><path class="bb197-4" d="M16,29h1V26H16V25H13v1H12v3h1v4h1V32h1v1h1V29Zm-1,2H14V30h1Zm0-2H14V28h1Zm0-2H14V26h1Z"/><rect class="bb197-4" x="15" y="23" width="1" height="1"/><rect class="bb197-2" x="14" y="32" width="1" height="1"/><rect class="bb197-2" x="14" y="30" width="1" height="1"/><rect class="bb197-2" x="14" y="28" width="1" height="1"/><rect class="bb197-2" x="14" y="26" width="1" height="1"/><rect class="bb197-4" x="13" y="23" width="1" height="1"/><path class="bb197-2" d="M13,29H12v4h1V29Z"/><rect class="bb197-4" x="12" y="24" width="1" height="1"/><path class="bb197-3" d="M12,29H11V25H10v1H8v1H9v6h3V29Z"/><path class="bb197-2" d="M11,26v3h1V26h1V25H12V24h1V23h1v1H13v1h3V24H15V23h1v1h1v1H16v1h1v3h1V25h1V24H18V23H17V21H16v1H13V21H12v2H11v1H10v1h1Z"/><path class="bb197-2" d="M10,25H8v1h2Z"/><path class="bb197-2" d="M9,27H8v6H9V27Z"/><path class="bb197-3" d="M8,27H7v6H8V27Z"/><rect class="bb197-2" x="7" y="26" width="1" height="1"/><path class="bb197-2" d="M7,27H6v6H7V27Z"/><rect class="bb197-2" x="20" y="15" width="1" height="1"/><path class="bb197-2" d="M19,14v1h1V11H19v3Z"/><path class="bb197-5" d="M12,19V18h5v2h1V19h1V16h1V15H16V14h2V13H16V12h2v1h1V11H18V10H14v1H13V10H11v1H10v1h2v1h1v2H9v1h1v3h1v1h1Zm2-3h1v1H14Z"/><path class="bb197-5" d="M13,20v2h3V20Z"/><path class="bb197-5" d="M10,14h2V13H10Z"/><path class="bb197-2" d="M19,17v2h1V16H19Z"/><rect class="bb197-2" x="18" y="10" width="1" height="1"/><rect class="bb197-2" x="18" y="19" width="1" height="1"/><rect class="bb197-2" x="17" y="20" width="1" height="1"/><path class="bb197-2" d="M15,10h3V9H15Z"/><path class="bb197-2" d="M13,9H11v1h2Z"/><rect class="bb197-2" x="11" y="20" width="1" height="1"/><rect class="bb197-2" x="10" y="10" width="1" height="1"/><rect class="bb197-2" x="10" y="19" width="1" height="1"/><path class="bb197-2" d="M10,16H9v3h1V16Z"/><rect class="bb197-2" x="8" y="15" width="1" height="1"/><rect class="bb197-2" x="14" y="16" width="1" height="1"/><path class="bb197-4" d="M18,14v1h1V14Z"/><path class="bb197-4" d="M12,15h1V14H12Z"/><path class="bb197-2" d="M17,14H16v1h2V14Z"/><path class="bb197-2" d="M12,15V14H10V11H9v4h3Z"/><path class="bb197-6" d="M19,13H18v1h1Z"/><rect class="bb197-6" x="16" y="12" width="2" height="1"/><path class="bb197-6" d="M13,14V13H12v1Z"/><path class="bb197-6" d="M12,13V12H10v1Z"/><path class="bb197-7" d="M13,20V19h3v2h1V18H12v3h1Z"/><path class="bb197-2" d="M16,19H13v1h3Z"/><path class="bb197-8" d="M13,11h1V10h1V9h2V8H16V6H15V5H14V7H13v4Z"/></svg>