<svg xmlns="http://www.w3.org/2000/svg" viewBox="0 0 29 33"><defs><style>polygon,rect,path{shape-rendering:crispedges;}.oa131-1{fill:#29834f;}.oa131-2{fill:#000000;}.oa131-3{fill:#5a2de2;}.oa131-4{fill:#009b97;}.oa131-5{fill:#ce8452;}.oa131-6{fill:#ffffff;}.oa131-7{fill:#7f5018;}.oa131-8{fill:#ff1d99;}.oa131-9{fill:#893a1f;}.oa131-10{fill:#dfdfdf;}.oa131-11{fill:#b2622b;}</style></defs><path class="oa131-1" d="M0,33H6V26H7V25H8V21h2v2H9v2h1V24h2V21H11V20H10V19H9V16H8V15H9V13H7V12H5V11H7v1H9V10h1V8h1V7h2V8h3V7h2V8h1V7h1V6h2V8H21V9H20v3h2V11h2v1H22v1H21v5H20v1H19v1H18v1H17v3h2v1h2v1h1v1h1v6h6V0H0Z"/><path class="oa131-2" d="M23,27H22v6h1V27Z"/><path class="oa131-3" d="M22,27H21v6h1V27Z"/><rect class="oa131-2" x="21" y="26" width="1" height="1"/><path class="oa131-2" d="M21,27H20v6h1V27Z"/><path class="oa131-3" d="M20,27h1V26H19V25H18v8h2V27Z"/><path class="oa131-2" d="M20,26h1V25H19v1Z"/><path class="oa131-2" d="M18,25h1V24H17v1H16v1h1v7h1V25Z"/><path class="oa131-4" d="M17,26H16v1H13V26H12v7h5V26Z"/><path class="oa131-2" d="M13,26v1h3V26H13Z"/><path class="oa131-5" d="M13,25v1h3V25h1V24H16V23H13v1H12v1Z"/><path class="oa131-2" d="M13,23h3v1h1V21H16v1H13V21H12v3h1Z"/><path class="oa131-2" d="M12,26h1V25H12V24H10v1h1v8h1V26Z"/><path class="oa131-3" d="M11,25H10v1H9v7h2V25Z"/><rect class="oa131-2" x="9" y="25" width="1" height="1"/><path class="oa131-2" d="M9,28H8v5H9V28Z"/><path class="oa131-3" d="M8,28V27H7v6H8V28Z"/><path class="oa131-2" d="M7,27V26H6v7H7V27Z"/><path class="oa131-5" d="M12,14V13H10v1h2Z"/><path class="oa131-5" d="M13,22h3V21h1V20h1V19h1V16h1V15H16V14h2V13H13v2H9v1h1v3h1v1h1v1h1Zm1-6h1v1H14Zm-1,3h3V18h1v1H16v1H13Z"/><path class="oa131-2" d="M19,16v3h1V16Z"/><rect class="oa131-2" x="18" y="19" width="1" height="1"/><rect class="oa131-2" x="17" y="20" width="1" height="1"/><rect class="oa131-2" x="11" y="20" width="1" height="1"/><rect class="oa131-2" x="10" y="19" width="1" height="1"/><path class="oa131-2" d="M10,16H9v3h1V16Z"/><rect class="oa131-2" x="8" y="15" width="1" height="1"/><rect class="oa131-2" x="14" y="16" width="1" height="1"/><path class="oa131-6" d="M18,14v1h1V14Z"/><path class="oa131-6" d="M12,15h1V14H12Z"/><path class="oa131-2" d="M17,14H16v1h2V14Z"/><path class="oa131-2" d="M11,14H10v1h2V14Z"/><path class="oa131-7" d="M12,14h1V13H12Z"/><rect class="oa131-2" x="13" y="19" width="3" height="1"/><rect class="oa131-2" x="16" y="18" width="1" height="1"/><path class="oa131-8" d="M18,13v1h1v1h1v3h1V13H18Z"/><path class="oa131-8" d="M10,14V13H9v2h1Z"/><path class="oa131-9" d="M24,11H22v1h2Z"/><path class="oa131-10" d="M21,8h1V7H21Z"/><path class="oa131-9" d="M11,13H22V12H20V11H19v1H10V11H9v1H7v1h4Z"/><rect class="oa131-10" x="20" y="8" width="1" height="1"/><path class="oa131-11" d="M19,11h1V10H19Z"/><path class="oa131-6" d="M18,11h1V10h1V8h1V7h1V6H20V7H19V8H18v3Z"/><path class="oa131-11" d="M17,11H10v1h9V11H17Z"/><path class="oa131-9" d="M11,11h7V7H16V8H13V7H11V8H10v3Z"/><path class="oa131-11" d="M10,10H9v1h1Z"/><path class="oa131-9" d="M6,11H5v1H7V11Z"/><path class="oa131-4" d="M9,26V21H8v5Z"/><path class="oa131-6" d="M10,23V21H9v2Z"/><path class="oa131-4" d="M8,28H9V27H8Z"/><path class="oa131-5" d="M8,27H9V26H7v1Z"/><path class="oa131-2" d="M8,25H7v1H8Z"/></svg>
