<svg xmlns="http://www.w3.org/2000/svg" viewBox="0 0 29 33"><defs><style>polygon,rect,path{shape-rendering:crispedges;}.ja15-1{fill:#d4a122;}.ja15-2{fill:#000000;}.ja15-3{fill:#5a2de2;}.ja15-4{fill:#003b3f;}.ja15-5{fill:#ce8452;}.ja15-6{fill:#ffffff;}.ja15-7{fill:#b23b00;}.ja15-8{fill:#b23b00;}.ja15-9{fill:#b23b00;}.ja15-10{fill:#a06415;}.ja15-11{fill:#455054;}.ja15-12{fill:#002b4f;}.ja15-13{fill:#ff1f4a;}</style></defs><path class="ja15-1" d="M0,33H8V32H6V31H5V22H6V21H7V20H5v1H2V17H5V16H8V15H9V11h1V10H9V9h1V8h2V7h1V8h3V9h1V8h1V9h1v1h1v5h1v1H20v3H19v1H18v1H17v3h2v1h2v1h1v1h1v6h6V0H0Z"/><rect class="ja15-1" x="12" y="8" width="1" height="1"/><path class="ja15-1" d="M8,18v4H9v2H8v1h2V24h2V21H11v1H10V19H9V16H8v2Z"/><path class="ja15-2" d="M23,27H22v6h1V27Z"/><rect class="ja15-2" x="21" y="26" width="1" height="1"/><path class="ja15-3" d="M21,31v1h1V30H21Z"/><path class="ja15-3" d="M21,28h1V27H21Z"/><path class="ja15-2" d="M21,31V27H20v6h1V31Z"/><path class="ja15-2" d="M20,26h1V25H19v1Z"/><path class="ja15-3" d="M17,25v1h1v2h1v1h1V27H19V25H17Z"/><path class="ja15-3" d="M13,31V30H12V28H11V27H10V26H9v2h1v1h1v2h1v1h1v1h1V31Z"/><path class="ja15-3" d="M10,31V30H9v2h1v1h1V31Z"/><path class="ja15-3" d="M19,31V30H18V28H17V27H16V25H15V24H14V23H13v2h1v1h1v2h1v1h1v2h1v1h1v1h1V31Z"/><rect class="ja15-3" x="16" y="24" width="1" height="1"/><path class="ja15-3" d="M16,31V30H15V28H14V27H13V25H11v1h1v2h1v1h1v2h1v1h1v1h1V31Z"/><path class="ja15-2" d="M18,25h1V24H17v1Z"/><path class="ja15-2" d="M11,24H10v1h2V24Z"/><path class="ja15-2" d="M9,31V27H8V26h2V25H8V24H7v7H6v1H8v1H9V31Z"/><path class="ja15-3" d="M6,26v2H7V25H6Z"/><path class="ja15-3" d="M7,30H6v1H7Z"/><path class="ja15-2" d="M6,29V22H5v9H6V29Z"/><path class="ja15-4" d="M19,28H18v2h1v1h1V29H19Z"/><path class="ja15-4" d="M21,29v1h1V28H21Z"/><path class="ja15-4" d="M21,32v1h1V32Z"/><path class="ja15-4" d="M17,26V25H16v2h1v1h1V26Z"/><path class="ja15-4" d="M19,26v1h2V26H19Z"/><path class="ja15-4" d="M18,32V31H17v2h2V32Z"/><path class="ja15-4" d="M16,30v1h1V29H16V28H15v2Z"/><path class="ja15-4" d="M16,23H14v1h1v1h1V23Z"/><path class="ja15-4" d="M14,27v1h1V26H14V25H13v2Z"/><path class="ja15-4" d="M15,32V31H14v2h2V32Z"/><path class="ja15-4" d="M13,30v1h1V29H13V28H12v2Z"/><path class="ja15-4" d="M12,25h1V24H12Z"/><path class="ja15-4" d="M10,26v1h1v1h1V26H11V25H10Z"/><path class="ja15-4" d="M12,32V31H11v2h2V32Z"/><path class="ja15-4" d="M10,30v1h1V29H10V28H9v2Z"/><path class="ja15-4" d="M6,25H7V24H6Z"/><path class="ja15-4" d="M6,29v1H7V28H6Z"/><path class="ja15-4" d="M9,32v1h1V32Z"/><path class="ja15-4" d="M8,27H9V26H8Z"/><rect class="ja15-2" x="20" y="15" width="1" height="1"/><path class="ja15-5" d="M18,15H16V14h2V13H16V12h2V11H17V10H16v1H11v1h1v1h1v1h1v2h1v1H14V16H13v1H11v3h1v1h1v1h3V21h1V20h1V19h1V16h1V15H18Zm-1,4H16v1H13V19H12V18h5Z"/><rect class="ja15-5" x="10" y="16" width="1" height="1"/><path class="ja15-5" d="M12,15H11v1h2V15Z"/><rect class="ja15-5" x="10" y="13" width="1" height="1"/><rect class="ja15-5" x="18" y="12" width="1" height="1"/><rect class="ja15-5" x="9" y="15" width="1" height="1"/><path class="ja15-2" d="M19,17v2h1V16H19Z"/><rect class="ja15-2" x="18" y="19" width="1" height="1"/><rect class="ja15-2" x="17" y="20" width="1" height="1"/><path class="ja15-2" d="M16,22H13V21H12v3h1V23h3v1h1V21H16Z"/><rect class="ja15-2" x="11" y="20" width="1" height="1"/><path class="ja15-2" d="M10,14H9v1h1Z"/><path class="ja15-2" d="M10,16H9v3h1V16Z"/><rect class="ja15-2" x="8" y="15" width="1" height="1"/><rect class="ja15-2" x="14" y="16" width="1" height="1"/><rect class="ja15-6" x="12" y="14" width="1" height="1"/><path class="ja15-6" d="M18,15h1V14H18Z"/><path class="ja15-6" d="M16,14v1h1V14Z"/><rect class="ja15-2" x="11" y="14" width="1" height="1"/><path class="ja15-2" d="M17,14v1h1V14Z"/><rect class="ja15-7" x="18" y="13" width="1" height="1"/><rect class="ja15-7" x="16" y="12" width="2" height="1"/><path class="ja15-7" d="M12,13V12H10v1h2Z"/><path class="ja15-8" d="M12,18v1h4V18Z"/><path class="ja15-2" d="M13,20h3V19H13Z"/><path class="ja15-2" d="M16,19h1V18H16Z"/><path class="ja15-9" d="M10,13V12h1V11h5V10h1v1h1v1h1v3h1V10H19V9H18V8H17V9H16V8H13V9H12V8H10V9H9v1h1v1H9v3h1Z"/><rect class="ja15-9" x="12" y="7" width="1" height="1"/><path class="ja15-10" d="M13,16h1V14H13v2Z"/><path class="ja15-10" d="M11,14h2V13H11Z"/><path class="ja15-10" d="M11,17h2V16H11Z"/><polygon class="ja15-10" points="11 15 11 14 10 14 10 15 10 16 11 16 11 15"/><path class="ja15-10" d="M11,19V17H10v5h1V19Z"/><path class="ja15-5" d="M7,24H8V22H6v2Z"/><path class="ja15-11" d="M8,22V20H7v2Z"/><path class="ja15-2" d="M7,21H6v1H7Z"/><path class="ja15-2" d="M9,22H8v2H9Z"/><path class="ja15-12" d="M4,21H5V20H4Z"/><path class="ja15-12" d="M5,18V17H4v1Z"/><path class="ja15-12" d="M3,19V18H2v2H3Z"/><path class="ja15-12" d="M5,19v1H6V19Z"/><path class="ja15-12" d="M6,16H5v1H6Z"/><path class="ja15-12" d="M8,17H7v2H8V17Z"/><path class="ja15-13" d="M3,17H2v1H3Z"/><path class="ja15-13" d="M6,17v1H3v2H4V19H7V17Z"/><path class="ja15-13" d="M8,17V16H7v1Z"/><path class="ja15-13" d="M8,19H7v1H8Z"/><path class="ja15-13" d="M2,20v1H3V20Z"/><path class="ja15-6" d="M3,20v1H4V20Z"/><path class="ja15-6" d="M4,19v1H5V19Z"/><path class="ja15-6" d="M4,18V17H3v1Z"/><path class="ja15-6" d="M7,17V16H6v1Z"/><path class="ja15-6" d="M6,18V17H5v1Z"/><path class="ja15-6" d="M6,19v1H7V19Z"/></svg>