<svg xmlns="http://www.w3.org/2000/svg" viewBox="0 0 29 33"><defs><style>polygon,rect,path{shape-rendering:crispedges;}.ka266-1{fill:#6b4f99;}.ka266-2{fill:#000000;}.ka266-3{fill:#317f03;}.ka266-4{fill:#ff6aa5;}.ka266-5{fill:#e8b795;}.ka266-6{fill:#473a35;}.ka266-7{fill:#473a35;}.ka266-8{fill:#c8a715;}.ka266-9{fill:#ff1f4a;}</style></defs><path class="ka266-1" d="M0,33H6V27H7V26H8V25h2V20H9V17H8V15H7V14H8V12H7V10H8v1H9V9H8V8h2V9h1V8h1V7h1V8h1V7h2V8h1V7h1V8h1V7h1V8H19V9H18v1h2V9h1v2H20v1h2v1H20v1h2v1H21v2H20v3H19v5h2v1h1v1h1v6h6V0H0Z"/><path class="ka266-1" d="M18,24V22H17v2Z"/><path class="ka266-1" d="M12,22H11v2h1V22Z"/><path class="ka266-2" d="M23,27H22v6h1V27Z"/><rect class="ka266-2" x="21" y="26" width="1" height="1"/><path class="ka266-3" d="M21,31v2h1V31Z"/><path class="ka266-3" d="M21,28v2h1V27H21Z"/><path class="ka266-2" d="M21,30V27H20v6h1V30Z"/><path class="ka266-2" d="M20,26h1V25H19v1Z"/><path class="ka266-3" d="M20,32V26H19V25H16V23H13v2H10v1H9v6h1v1h4V32h1v1h4V32Zm-9-3H10V28h1Zm2,2H12V30h1Zm0-4H12V26h1Zm2,2H14V28h1Zm0-4H14V24h1Zm2,6H16V30h1Zm0-4H16V26h1Zm1,2V28h1v1Z"/><path class="ka266-2" d="M17,24v1h2V24H17Z"/><path class="ka266-2" d="M12,24H10v1h2Z"/><path class="ka266-2" d="M10,26V25H8v1h2Z"/><path class="ka266-2" d="M9,31V27H8v6H9V31Z"/><rect class="ka266-2" x="7" y="26" width="1" height="1"/><path class="ka266-3" d="M7,30H8V27H7v3Z"/><path class="ka266-3" d="M7,31v2H8V31Z"/><path class="ka266-2" d="M7,30V27H6v6H7V30Z"/><rect class="ka266-4" x="10" y="28" width="1" height="1"/><rect class="ka266-4" x="12" y="30" width="1" height="1"/><rect class="ka266-4" x="14" y="28" width="1" height="1"/><rect class="ka266-4" x="14" y="32" width="1" height="1"/><rect class="ka266-4" x="12" y="26" width="1" height="1"/><rect class="ka266-4" x="16" y="30" width="1" height="1"/><rect class="ka266-4" x="18" y="28" width="1" height="1"/><rect class="ka266-4" x="16" y="26" width="1" height="1"/><rect class="ka266-4" x="14" y="24" width="1" height="1"/><path class="ka266-4" d="M9,27V26H8v1Z"/><path class="ka266-4" d="M19,32v1h1V32Z"/><path class="ka266-4" d="M9,32v1h1V32Z"/><path class="ka266-4" d="M7,31H8V30H7Z"/><path class="ka266-4" d="M21,31h1V30H21Z"/><path class="ka266-4" d="M20,27h1V26H20Z"/><rect class="ka266-5" x="15" y="10" width="1" height="1"/><rect class="ka266-5" x="9" y="15" width="1" height="1"/><polygon class="ka266-5" points="13 21 14 21 14 22 15 22 15 21 16 21 16 20 13 20 13 21"/><rect class="ka266-5" x="14" y="15" width="1" height="1"/><path class="ka266-5" d="M13,12H12V11H11v2h2Z"/><path class="ka266-5" d="M14,14h5V13H16V12H14v1H13v1Z"/><path class="ka266-5" d="M18,16v1H16V16H15v1H14V16H13v1H11V16H10v2h1v1h1V18h2v1h1V18h2v1h1V18h1V16Z"/><rect class="ka266-5" x="19" y="15" width="1" height="1"/><path class="ka266-2" d="M19,16v1h1V16Z"/><path class="ka266-2" d="M10,16H9v1h1Z"/><rect class="ka266-2" x="14" y="16" width="1" height="1"/><path class="ka266-6" d="M17,13V12H16v1Z"/><path class="ka266-6" d="M13,13H12v1h1Z"/><path class="ka266-7" d="M12,22v1h5V22h2V20h1V17H19v1H18v1H16v2H15v1H14V21H13V19h1V18H12v1H11V18H10V17H9v3h1v2h2Z"/><path class="ka266-7" d="M15,18v1h1V18Z"/><path class="ka266-8" d="M18,23h1V22H18Z"/><path class="ka266-7" d="M18,24h1V23H18Z"/><path class="ka266-8" d="M17,23H16v1h1Z"/><path class="ka266-7" d="M16,24v1h1V24Z"/><path class="ka266-8" d="M12,24h1V23H12Z"/><path class="ka266-7" d="M12,25h1V24H12Z"/><path class="ka266-8" d="M11,22H10v1h1Z"/><path class="ka266-7" d="M11,23H10v1h1Z"/><path class="ka266-2" d="M14,19H13v1h3V19H14Z"/><path class="ka266-2" d="M16,18v1h1V18Z"/><path class="ka266-9" d="M20,16v1h1V15h1V14H20v2Z"/><path class="ka266-9" d="M9,15V13h1v1h2V13H11V11h1v1h1v1h1V12h3v1h2v1h1V13h2V12H20V11h1V9H20v1H18V9h1V8H18V7H17V8H16V7H14V8H13V7H12V8H11V9H10V8H8V9H9v2H8V10H7v2H8v2H7v1H8v2H9V15Zm6-5h1v1H15Z"/><rect class="ka266-9" x="19" y="7" width="1" height="1"/><path class="ka266-2" d="M18,14H10V13H9v2h1v1h1v1h2V16h1V15h1v1h1v1h2V16h1V15h1V14H18Z"/></svg>