<svg xmlns="http://www.w3.org/2000/svg" viewBox="0 0 29 33"><defs><style>polygon,rect,path{shape-rendering:crispedges;}.wa269-1{fill:#e55b35;}.wa269-2{fill:#68aa7b;}.wa269-3{fill:#000000;}.wa269-4{fill:#e8b795;}.wa269-5{fill:#326b43;}.wa269-6{fill:#7f5018;}.wa269-7{fill:#cbed03;}.wa269-8{fill:#ffffff;}.wa269-9{fill:#cc3232;}</style></defs><rect class="wa269-1" x="9" y="16" width="1"/><polygon class="wa269-1" points="14 17 14 16 15 16 15 16 14 16 14 17 14 17"/><path class="wa269-1" d="M0,33H6V27H7V26H8V25h2V22h1V21H10V20H9V18H8V12H9V11h1V10h1V9h7v1h1v1h1v2h1v2h0v1h0v2H20v2H19v1H18v1h1v3h2v1h1v1h1v6h6V0H0Z"/><polygon class="wa269-1" points="19 16 19 17 19 17 19 16 20 16 20 16 19 16"/><rect class="wa269-2" x="17" y="22" width="1" height="1"/><path class="wa269-2" d="M18,24H16v1h1v1h1v2h1v1h1V27H19V25H18Z"/><path class="wa269-2" d="M15,30V28H14v3h2V30Z"/><path class="wa269-2" d="M18,30V28H17V27H16V25H15v3h1v1h1v2h2V30Z"/><rect class="wa269-2" x="21" y="27" width="1" height="1"/><path class="wa269-2" d="M21,31v1h1V30H21Z"/><rect class="wa269-2" x="10" y="32" width="1" height="1"/><rect class="wa269-2" x="16" y="32" width="1" height="1"/><rect class="wa269-2" x="19" y="32" width="1" height="1"/><rect class="wa269-2" x="13" y="32" width="1" height="1"/><path class="wa269-2" d="M7,31v2H8V31Z"/><path class="wa269-2" d="M8,29V27H7v2Z"/><path class="wa269-2" d="M12,29V28H11V27H10V26H9v2h1v1h1v2h2V30H12Z"/><path class="wa269-2" d="M12,25V24H11v2h1v2h1V25Z"/><rect class="wa269-2" x="11" y="22" width="1" height="1"/><rect class="wa269-2" x="9" y="30" width="1" height="1"/><path class="wa269-3" d="M23,27H22v6h1V27Z"/><rect class="wa269-3" x="21" y="26" width="1" height="1"/><path class="wa269-3" d="M21,31V27H20v4H14V27H13v4H9V27H8v6H9V32H20v1h1V31Z"/><path class="wa269-3" d="M20,26h1V25H19v1Z"/><path class="wa269-3" d="M18,24v1h1V22H18v2Z"/><path class="wa269-3" d="M17,24V23H16v1Z"/><rect class="wa269-3" x="15" y="24" width="1" height="1"/><path class="wa269-3" d="M15,26V25H14v2h1Z"/><rect class="wa269-3" x="13" y="24" width="1" height="1"/><path class="wa269-4" d="M14,24v1h1V24h1V23H13v1Z"/><rect class="wa269-3" x="12" y="23" width="1" height="1"/><path class="wa269-3" d="M11,24V22H10v3h1Z"/><path class="wa269-3" d="M10,26V25H8v1h2Z"/><rect class="wa269-3" x="7" y="26" width="1" height="1"/><path class="wa269-3" d="M7,30V27H6v6H7V30Z"/><polygon class="wa269-3" points="21 16 21 15 21 15 21 16 21 16"/><rect class="wa269-4" x="14" y="11" width="1"/><rect class="wa269-4" x="11" y="11" width="1"/><path class="wa269-4" d="M18,17V16H17v1H16V15H15V14H14v2h1v1H14V16H11v2h1v1h1V18h3v1h1V18h1Z"/><polygon class="wa269-4" points="10 15 9 15 9 16 10 16 10 15"/><rect class="wa269-4" x="19" y="15" width="1" height="1"/><rect class="wa269-3" x="19" y="10" height="1"/><rect class="wa269-3" x="18" y="9" height="1"/><polygon class="wa269-3" points="14 17 14 17 15 17 15 16 15 16 14 16 14 17"/><path class="wa269-5" d="M21,29v1h1V28H21Z"/><path class="wa269-5" d="M21,32v1h1V32Z"/><path class="wa269-5" d="M19,26v1h2V26H19Z"/><path class="wa269-5" d="M19,28H18v2h1v1h1V29H19Z"/><path class="wa269-5" d="M17,27v1h1V26H17V25H16v2Z"/><path class="wa269-5" d="M18,32H17v1h2V32Z"/><path class="wa269-5" d="M16,29V28H15v2h1v1h1V29Z"/><path class="wa269-5" d="M15,27H14v1h1Z"/><path class="wa269-5" d="M13,25v2h1V25Z"/><path class="wa269-5" d="M15,32H14v1h2V32Z"/><path class="wa269-5" d="M12,29v1h1V28H12Z"/><rect class="wa269-5" x="12" y="24" width="1" height="1"/><path class="wa269-5" d="M12,23H11v1h1Z"/><path class="wa269-5" d="M18,24V23H17v1Z"/><path class="wa269-5" d="M10,27h1v1h1V26H11V25H10v2Z"/><path class="wa269-5" d="M12,32H11v1h2V32Z"/><path class="wa269-5" d="M10,29V28H9v2h1v1h1V29Z"/><path class="wa269-5" d="M9,32v1h1V32Z"/><path class="wa269-5" d="M9,27V26H8v1Z"/><path class="wa269-5" d="M7,30v1H8V29H7Z"/><path class="wa269-6" d="M15,18H13v1h3V18Z"/><path class="wa269-6" d="M12,23h5V22h1V21h1V18h1V16H19v1h0v1H17v1H16v1H13V19H12V18H10V16H9v2h1v3h1v1h1Z"/><rect class="wa269-3" x="13" y="19" width="3" height="1"/><path class="wa269-7" d="M19,13H18v1h2v2h0v2h1V13H19Z"/><path class="wa269-7" d="M9,16H9V14h2V13H9V12H8v6H9V16Z"/><path class="wa269-7" d="M19,15H18v3h1V15Z"/><path class="wa269-7" d="M11,16V15H10v1h0v2h1V16Z"/><path class="wa269-7" d="M11,11h8V10H18V9H11v1H10v1h1Z"/><path class="wa269-7" d="M10,18H9v2h1V18Z"/><path class="wa269-7" d="M13,16h1V15H13Z"/><path class="wa269-7" d="M16,17h1V16H16Z"/><path class="wa269-7" d="M19,19v1h1V18H19Z"/><path class="wa269-3" d="M11,15v1h2V15h1V14h1v1h1v1h2V15h2V14H18V13H11v1H9v1h2Z"/><path class="wa269-8" d="M10,12H20V11H9v1h1Z"/><path class="wa269-9" d="M10,12H9v1H20V12H10Z"/></svg>