<svg xmlns="http://www.w3.org/2000/svg" viewBox="0 0 29 33"><defs><style>polygon,rect,path{shape-rendering:crispedges;}.ya94-1{fill:#b4bd09;}.ya94-2{fill:#000000;}.ya94-3{fill:#99ce09;}.ya94-4{fill:#e8b795;}.ya94-5{fill:#ffffff;}.ya94-6{fill:#8e703c;}.ya94-7{fill:#5a2de2;}.ya94-8{fill:#cc3232;}.ya94-9{fill:#fad000;}</style></defs><path class="ya94-1" d="M0,33H6V27H7V26H8V25h2V24h1V23h1V21H9V20H8V19H9V17H8V15H9V10h1V9h1V8h7V9h1v1h1v5h1v2H20v2h1v1H20v1H17v2h1v1h1v1h2v1h1v1h1v6h6V0H0Z"/><path class="ya94-2" d="M23,27H22v6h1V27Z"/><path class="ya94-3" d="M22,27H21v6h1V27Z"/><rect class="ya94-2" x="21" y="26" width="1" height="1"/><path class="ya94-2" d="M21,27H20v6h1V27Z"/><path class="ya94-3" d="M20,27h1V26H19V25H18v1H16V25H15v2H14V25H13v1H11V25H10v1H8v1H9v6h5V32h1v1h5V27Zm-5,4H14V30h1Zm0-2H14V28h1Z"/><path class="ya94-2" d="M20,26h1V25H19v1Z"/><rect class="ya94-3" x="16" y="24" width="1" height="1"/><rect class="ya94-2" x="15" y="24" width="1" height="1"/><rect class="ya94-2" x="14" y="32" width="1" height="1"/><rect class="ya94-2" x="14" y="30" width="1" height="1"/><rect class="ya94-2" x="14" y="28" width="1" height="1"/><path class="ya94-2" d="M14,26v1h1V25H14Z"/><rect class="ya94-2" x="13" y="24" width="1" height="1"/><path class="ya94-4" d="M16,24V23H13v1h1v1h1V24Z"/><rect class="ya94-3" x="12" y="24" width="1" height="1"/><path class="ya94-2" d="M11,26h2V25H12V24h1V23h3v1h1v1H16v1h2V25h1V24H18V23H17V21H16v1H13V21H12v2H11v1H10v1h1Z"/><path class="ya94-2" d="M10,25H8v1h2Z"/><path class="ya94-2" d="M9,27H8v6H9V27Z"/><path class="ya94-3" d="M8,27H7v6H8V27Z"/><rect class="ya94-2" x="7" y="26" width="1" height="1"/><path class="ya94-2" d="M7,27H6v6H7V27Z"/><path class="ya94-2" d="M21,16V15H20v1Z"/><path class="ya94-2" d="M19,15h1V14H19Z"/><path class="ya94-4" d="M13,22h3V21h1V19h1V18h1V16h1V15H16V14h2V13H16V12h2v1h1V11H18V10H17v1H14V10H13v1H12V10H11v1H10v2h1V12h2v1H11v1h2v1H9v1h1v2h1v1h1v2h1Zm1-6h1v1H14Zm0,3h1v1H14Z"/><path class="ya94-2" d="M17,20v1h1V20Z"/><path class="ya94-2" d="M11,20v1h1V20Z"/><path class="ya94-2" d="M9,15H8v1H9Z"/><rect class="ya94-2" x="14" y="16" width="1" height="1"/><path class="ya94-5" d="M18,14v1h1V14Z"/><path class="ya94-5" d="M13,15V14H12v1Z"/><path class="ya94-2" d="M17,14H16v1h2V14Z"/><path class="ya94-2" d="M12,15V14H9v1h3Z"/><rect class="ya94-6" x="18" y="13" width="1" height="1"/><rect class="ya94-6" x="16" y="12" width="2" height="1"/><path class="ya94-6" d="M11,14V13H10v1Z"/><rect class="ya94-6" x="11" y="12" width="2" height="1"/><path class="ya94-7" d="M19,16v2H18v1H17v1h1v1h2V20h1V19H20V16Z"/><path class="ya94-7" d="M12,20V19H11V18H10V16H9v3H8v1H9v1h2V20Z"/><rect class="ya94-2" x="14" y="19" width="1" height="1"/><path class="ya94-8" d="M10,13V11h1V10h1v1h1V10h1v1h3V10h1v1h1v3h1V10H19V9H18V8H11V9H10v1H9v4h1Z"/><path class="ya94-9" d="M20,17h1V16H20Z"/><path class="ya94-9" d="M8,16v1H9V16Z"/></svg>