<svg xmlns="http://www.w3.org/2000/svg" viewBox="0 0 29 33"><defs><style>polygon,rect,path{shape-rendering:crispedges;}.pa180-1{fill:#d4a122;}.pa180-2{fill:#000000;}.pa180-3{fill:#ff1d99;}.pa180-4{fill:#ce8452;}.pa180-5{fill:#ffffff;}.pa180-6{fill:#663228;}.pa180-7{fill:#00774c;}</style></defs><path class="pa180-1" d="M0,33H6V27H7V26H8V25h2V24h1V23H10V22h1V21H10V20H9V16H8V15H9V11h1V10h1V9h7v1h1v1h1v4h1v1H20v4H19v1H18v1h1v1H18v1h1v1h1V24h1V23h1v1h1v9h6V0H0Z"/><path class="pa180-2" d="M7,27H6v6H7V27Z"/><path class="pa180-3" d="M8,27H7v6H8V27Z"/><rect class="pa180-2" x="7" y="26" width="1" height="1"/><path class="pa180-2" d="M9,27H8v6H9V27Z"/><path class="pa180-3" d="M20,27H19V25H18V24H16v1h1v5H16V25H13v5H12V25h1V24H11v1H10v1H8v1H9v6H20V27Z"/><path class="pa180-2" d="M10,25H8v1h2Z"/><rect class="pa180-2" x="10" y="24" width="1" height="1"/><rect class="pa180-2" x="10" y="22" width="1" height="1"/><rect class="pa180-3" x="11" y="22" width="1" height="1"/><path class="pa180-2" d="M13,23h3v1h2V23H17V22h1V21H16v1H13V21H11v1h1v1H11v1h2Z"/><path class="pa180-2" d="M13,24v1h3V24H13Z"/><path class="pa180-4" d="M15,23H13v1h3V23Z"/><rect class="pa180-3" x="17" y="22" width="1" height="1"/><rect class="pa180-2" x="18" y="24" width="1" height="1"/><rect class="pa180-2" x="18" y="22" width="1" height="1"/><path class="pa180-2" d="M21,27H20v6h1V27Z"/><path class="pa180-3" d="M22,27H21v6h1V27Z"/><path class="pa180-2" d="M23,24H22v9h1V24Z"/><path class="pa180-2" d="M12,26v4h1V25H12Z"/><path class="pa180-2" d="M16,30h1V25H16v5Z"/><rect class="pa180-2" x="20" y="15" width="1" height="1"/><rect class="pa180-4" x="19" y="15" width="1" height="1"/><rect class="pa180-4" x="12" y="13" width="1" height="1"/><path class="pa180-4" d="M10,17v1h1v2h1v1h1v1h3V21h1V20h1V18h1V17H18V16H16V15H15v2H14V15H9v1h1Zm3,2h3V18h1v1H16v1H13Z"/><path class="pa180-2" d="M19,17h1V16H19Z"/><path class="pa180-2" d="M10,16H9v1h1Z"/><rect class="pa180-2" x="8" y="15" width="1" height="1"/><path class="pa180-2" d="M14,17h1V16H14Z"/><path class="pa180-5" d="M12,14v1h1V14Z"/><path class="pa180-5" d="M10,14v1h1V14Z"/><path class="pa180-2" d="M11,14v1h1V14Z"/><path class="pa180-6" d="M19,18H18v2H17v1h2V20h1V17H19Z"/><path class="pa180-6" d="M12,20H11V18H10V17H9v3h1v1h2Z"/><rect class="pa180-2" x="13" y="19" width="3" height="1"/><rect class="pa180-2" x="16" y="18" width="1" height="1"/><path class="pa180-4" d="M21,27h1V24H21v1H20v2Z"/><path class="pa180-2" d="M20,27V25H19v2Z"/><rect class="pa180-2" x="20" y="24" width="1" height="1"/><rect class="pa180-2" x="21" y="23" width="1" height="1"/><path class="pa180-7" d="M10,14h2V13h1v2h1v1h1V15h1v1h2v1h1V15h1V11H19V10H18V9H11v1H10v1H9v4h1Z"/></svg>