<svg xmlns="http://www.w3.org/2000/svg" viewBox="0 0 29 33"><defs><style>polygon,rect,path{shape-rendering:crispedges;}.ya160-1{fill:#397d98;}.ya160-2{fill:#000000;}.ya160-3{fill:#474718;}.ya160-4{fill:#e8b795;}.ya160-5{fill:#8e9350;}.ya160-6{fill:#ffffff;}.ya160-7{fill:#326b43;}.ya160-8{fill:#fad000;}.ya160-9{fill:#326b43;}.ya160-10{fill:#cc3232;}</style></defs><path class="ya160-1" d="M0,33H6V27H7V26H8V25h2V24h1V23h1V21H9V20H8V19H9V16H8V14H9V12H8v1H7V12H8V11H9V10h1V9h2V8h5V9h2v1h1v1h1v1h1v1H21V12H20v2h1v2H20v3h1v1H20v1H17v2h1v1h1v1h2v1h1v1h1v6h6V0H0Z"/><path class="ya160-2" d="M23,27H22v6h1V27Z"/><path class="ya160-3" d="M21,31v1h1V30H21Z"/><path class="ya160-3" d="M21,28h1V27H21Z"/><rect class="ya160-2" x="21" y="26" width="1" height="1"/><path class="ya160-2" d="M21,31V27H20v6h1V31Z"/><path class="ya160-3" d="M16,31V30H15v2h1v1h1V31Z"/><path class="ya160-3" d="M19,31V30H18V28H16v1h1v2h1v1h1v1h1V31Z"/><rect class="ya160-3" x="15" y="25" width="1" height="1"/><path class="ya160-3" d="M14,31H13V30H12V28H11V27H10V26H9v2h1v1h1v2h1v1h1v1h1V31Z"/><path class="ya160-3" d="M10,31V30H9v2h1v1h1V31Z"/><path class="ya160-3" d="M19,26H18v2h1v1h1V27H19Z"/><path class="ya160-2" d="M14,32v1h1V32Z"/><path class="ya160-4" d="M15,24h1V23H13v1h1v1h1Z"/><path class="ya160-2" d="M10,26h1V24H10v1H8v1h2Z"/><path class="ya160-2" d="M9,31V27H8v6H9V31Z"/><path class="ya160-3" d="M7,31v2H8V31Z"/><path class="ya160-3" d="M8,29V27H7v2Z"/><rect class="ya160-2" x="7" y="26" width="1" height="1"/><path class="ya160-2" d="M7,30V27H6v6H7V30Z"/><path class="ya160-5" d="M21,29v1h1V28H21Z"/><path class="ya160-5" d="M21,32v1h1V32Z"/><path class="ya160-5" d="M19,27h2V26H19Z"/><path class="ya160-5" d="M19,28H18v2h1v1h1V29H19Z"/><path class="ya160-5" d="M17,27v1h1V27Z"/><path class="ya160-5" d="M18,32V31H17v2h2V32Z"/><path class="ya160-5" d="M16,31h1V29H16v2Z"/><rect class="ya160-5" x="13" y="25" width="1" height="1"/><path class="ya160-5" d="M14,32h1V31H14Z"/><rect class="ya160-5" x="15" y="32" width="1" height="1"/><rect class="ya160-5" x="13" y="30" width="1" height="1"/><path class="ya160-5" d="M12,28v2h1V28Z"/><rect class="ya160-5" x="11" y="27" width="1" height="1"/><rect class="ya160-5" x="10" y="26" width="1" height="1"/><path class="ya160-5" d="M12,32V31H11v2h2V32Z"/><path class="ya160-5" d="M10,30v1h1V29H10V28H9v2Z"/><path class="ya160-5" d="M9,32v1h1V32Z"/><path class="ya160-5" d="M9,27V26H8v1Z"/><path class="ya160-5" d="M7,30v1H8V29H7Z"/><path class="ya160-2" d="M20,16h1V15H20Z"/><rect class="ya160-2" x="19" y="14" width="1" height="1"/><path class="ya160-4" d="M13,22h3V21h1V19H16v1H13V19h3V18h1v1h1V18h1V16h1V15H16V14h2V13H16V12H15V11H14v1H12v1h1v2H9v1h1v2h1v1h1v2h1Zm1-6h1v1H14Z"/><path class="ya160-4" d="M10,14h2V13H10Z"/><path class="ya160-2" d="M17,20v1h1V20Z"/><path class="ya160-2" d="M11,20v1h1V20Z"/><path class="ya160-2" d="M10,15h2V14H9v1Z"/><path class="ya160-2" d="M8,15v1H9V15Z"/><rect class="ya160-2" x="14" y="16" width="1" height="1"/><path class="ya160-6" d="M18,14v1h1V14Z"/><path class="ya160-6" d="M12,15h1V14H12Z"/><path class="ya160-2" d="M17,14H16v1h2V14Z"/><rect class="ya160-7" x="18" y="13" width="1" height="1"/><path class="ya160-7" d="M16,12v1h1V12Z"/><path class="ya160-7" d="M13,14V13H12v1Z"/><path class="ya160-2" d="M14,31h1V30H14Z"/><rect class="ya160-2" x="12" y="27" width="1" height="1"/><path class="ya160-2" d="M15,29v1h1V28H15Z"/><path class="ya160-2" d="M16,27v1h1V27Z"/><path class="ya160-2" d="M14,29V28H13v2h1Z"/><path class="ya160-2" d="M18,27V26H17v1Z"/><rect class="ya160-2" x="11" y="26" width="1" height="1"/><rect class="ya160-2" x="14" y="25" width="1" height="1"/><rect class="ya160-2" x="13" y="26" width="1" height="1"/><rect class="ya160-2" x="15" y="26" width="1" height="1"/><path class="ya160-2" d="M12,25v1h1V25h1V24H13V23h3v1H15v1h1v1h1V24h1V23H17V21H16v1H13V21H12v2H11v1h1Z"/><rect class="ya160-8" x="16" y="26" width="1" height="1"/><polygon class="ya160-8" points="15 27 15 26 14 26 14 27 13 27 13 28 14 28 14 29 14 30 15 30 15 29 15 28 16 28 16 27 15 27"/><rect class="ya160-8" x="12" y="26" width="1" height="1"/><path class="ya160-8" d="M12,26V24H11v2Z"/><path class="ya160-8" d="M17,25v1h1V24H17Z"/><path class="ya160-2" d="M19,26h2V25H19V24H18v2Z"/><path class="ya160-9" d="M19,17v1H18v1H17v1h1v1h2V20h1V19H20V16H19Z"/><path class="ya160-9" d="M12,20V19H11V18H10V16H9v3H8v1H9v1h2V20Z"/><rect class="ya160-2" x="13" y="19" width="3" height="1"/><rect class="ya160-2" x="16" y="18" width="1" height="1"/><rect class="ya160-10" x="21" y="12" width="1" height="1"/><path class="ya160-10" d="M10,13h2V12h2V11h1v1h2v1h2v1h1V12h1V11H20V10H19V9H17V8H12V9H10v1H9v1H8v1H9v2h1Z"/><path class="ya160-10" d="M21,15V14H20v1Z"/><path class="ya160-10" d="M9,14H8v1H9Z"/><rect class="ya160-10" x="7" y="12" width="1" height="1"/></svg>