<svg xmlns="http://www.w3.org/2000/svg" viewBox="0 0 29 33"><defs><style>polygon,rect,path{shape-rendering:crispedges;}.ea24-1{fill:#397d98;}.ea24-2{fill:#000000;}.ea24-3{fill:#ffffff;}.ea24-4{fill:#b2622b;}.ea24-5{fill:#a37e94;}.ea24-6{fill:#ffffff;}.ea24-7{fill:#000000;}.ea24-8{fill:#7f5018;}.ea24-9{fill:#c8a715;}.ea24-10{fill:#ccc;}.ea24-11{fill:#5a2de2;}.ea24-12{fill:#6d5800;}.ea24-13{fill:#fad000;}.ea24-14{fill:#ea1500;}</style></defs><path class="ea24-1" d="M18,24V22H17v2Z"/><path class="ea24-1" d="M10,22V20H9v2Z"/><path class="ea24-1" d="M0,33H6V27H7V26H8V24H6V23H5V21H4V20H3V19H8v1H9V16H8V15H9V13H8V9H9V8h1V7h1V6h7V7h1V8h1V9h1v4H20v2h1v1H20v4h1V19h2V18h1V17h3v5H26v1H25v1H24v7H23v1H21v1h8V0H0Z"/><path class="ea24-1" d="M11,24h1V22H11v2Z"/><path class="ea24-1" d="M19,21v1h1V20H19Z"/><rect class="ea24-2" x="7" y="26" width="1" height="1"/><path class="ea24-2" d="M9,27H8v3H7V27H6v6H7V31H8v2H9V27Z"/><path class="ea24-2" d="M10,25H8v1h2Z"/><path class="ea24-2" d="M11,24H10v1h2V24Z"/><path class="ea24-2" d="M18,24H17v1h2V24Z"/><path class="ea24-2" d="M22,32h1V31H22V23H21v2H19v1h2v1H20v6h1V32Z"/><path class="ea24-2" d="M23,25v6h1V24H23Z"/><path class="ea24-3" d="M16,32H12v1h5V32Z"/><path class="ea24-3" d="M20,27h1V26H19V25H17v1H16v1H13V26H12V25H10v1H8v1H9v6h1V30h1V29h1V28h5v1h1v1h1v3h1V27Z"/><rect class="ea24-3" x="16" y="30" width="1" height="1"/><rect class="ea24-3" x="12" y="30" width="1" height="1"/><path class="ea24-2" d="M13,26v1h3V26H13Z"/><path class="ea24-4" d="M16,24V23H13v3h3V24Z"/><path class="ea24-3" d="M7,30H8V27H7v3Z"/><path class="ea24-4" d="M7,31v2H8V31Z"/><path class="ea24-2" d="M16,26h1V25H16Z"/><path class="ea24-2" d="M12,25v1h1V25Z"/><path class="ea24-5" d="M19,30H18V29H17V28H12v1H11v1H10v3h2V32h5v1h2V30Zm-6,1H12V30h1Zm4,0H16V30h1Z"/><rect class="ea24-2" x="20" y="15" width="1" height="1"/><path class="ea24-2" d="M19,15h1V14H19Z"/><rect class="ea24-4" x="19" y="15" width="1" height="1"/><path class="ea24-4" d="M18,16H16V14h3V13H16V12h2V11H11v1h2v1H10v1h3v2H10v2h1v1h1V18h2v1h1V18h2v1h1V18h1V16Zm-3,1H14V16h1Z"/><polygon class="ea24-4" points="13 21 14 21 14 22 15 22 15 21 16 21 16 20 13 20 13 21"/><rect class="ea24-4" x="9" y="15" width="1" height="1"/><path class="ea24-2" d="M19,17h1V16H19Z"/><path class="ea24-2" d="M10,14H9v1h1Z"/><path class="ea24-2" d="M10,16H9v1h1Z"/><rect class="ea24-2" x="8" y="15" width="1" height="1"/><rect class="ea24-2" x="14" y="16" width="1" height="1"/><path class="ea24-6" d="M11,15V14H10v2h1Z"/><path class="ea24-6" d="M13,16V14H12v2Z"/><path class="ea24-6" d="M16,14v2h1V14Z"/><path class="ea24-6" d="M18,15v1h1V14H18Z"/><path class="ea24-2" d="M11,16h1V14H11v2Z"/><path class="ea24-2" d="M18,14H17v2h1V14Z"/><path class="ea24-7" d="M13,12H10v1h3Z"/><path class="ea24-7" d="M16,13h3V12H16Z"/><path class="ea24-8" d="M10,21v1h2v1h5V22h2V20h1V17H19v1H18v1H17V18H15v1h1v2H15v1H14V21H13V19H11V18H10V17H9v3h1Z"/><path class="ea24-8" d="M14,18H13v1h1Z"/><path class="ea24-9" d="M19,23V22H18v1Z"/><path class="ea24-8" d="M18,24h1V23H18Z"/><path class="ea24-9" d="M17,24V23H16v1Z"/><path class="ea24-8" d="M16,24v1h1V24Z"/><path class="ea24-9" d="M13,24V23H12v1Z"/><path class="ea24-8" d="M13,24H12v1h1Z"/><path class="ea24-9" d="M11,22H10v1h1Z"/><path class="ea24-8" d="M11,23H10v1h1Z"/><path class="ea24-2" d="M13,19v1h3V19H13Z"/><path class="ea24-2" d="M12,18v1h1V18Z"/><path class="ea24-6" d="M10,23V22H9V20H8V19H3v1H7v1H5v1H8v1H6v1h4Z"/><path class="ea24-10" d="M8,22H5v1H8Z"/><path class="ea24-10" d="M7,20H4v1H7Z"/><rect class="ea24-10" x="21" y="22" width="1" height="1"/><path class="ea24-6" d="M19,22v2h2V20H20v2Z"/><path class="ea24-6" d="M23,20V19H22v1Z"/><path class="ea24-10" d="M10,24H8v1h2Z"/><path class="ea24-10" d="M19,25h2V24H19Z"/><path class="ea24-11" d="M10,13V12h1V11h7v1h1v2h1V13h1V9H20V8H19V7H18V6H11V7H10V8H9V9H8v4H9v1h1Z"/><path class="ea24-12" d="M22,21H21v1h1Z"/><path class="ea24-13" d="M22,21v1h2V21h1v1H24v1h2V22h1V20H25V19H24V18H23v2H22V19H21v2Z"/><path class="ea24-4" d="M23,23H22v8h1V24h1V23Z"/><path class="ea24-12" d="M24,23V22H22v1h2Z"/><path class="ea24-2" d="M24,24h1V23H24Z"/><rect class="ea24-12" x="24" y="21" width="1" height="1"/><rect class="ea24-2" x="24" y="18" width="1" height="1"/><path class="ea24-14" d="M25,19v1h2V19H25Z"/><path class="ea24-13" d="M25,19h1V18h1V17H24v1h1Z"/><path class="ea24-2" d="M26,19h1V18H26Z"/></svg>