<svg xmlns="http://www.w3.org/2000/svg" viewBox="0 0 29 33"><defs><style>polygon,rect,path{shape-rendering:crispedges;}.ja270-1{fill:#29834f;}.ja270-2{fill:#000000;}.ja270-3{fill:#db5800;}.ja270-4{fill:#6d5800;}.ja270-5{fill:#efcaaf;}.ja270-6{fill:#5e362f;}.ja270-7{fill:#5e362f;}.ja270-8{fill:#4fdb7d;}.ja270-9{fill:#ffffff;}</style></defs><path class="ja270-1" d="M0,33H6V27H7V26H8V25h2V24h2V21H9V20H8V19H9V16H8V14H9V12H8v1H7V12H8V11H9V10h1V9h2V8h5V9h2v1h1v1h1v1h1v1H21V12H20v2h1v2H20v3h1v1H20v1H17v3h2v1h2v1h1v1h1v6h6V0H0Z"/><path class="ja270-2" d="M23,27H22v6h1V27Z"/><rect class="ja270-2" x="21" y="26" width="1" height="1"/><path class="ja270-3" d="M21,28h1V27H21Z"/><path class="ja270-3" d="M21,31v1h1V30H21Z"/><path class="ja270-2" d="M21,31V27H20v6h1V31Z"/><path class="ja270-2" d="M20,26h1V25H19v1Z"/><path class="ja270-3" d="M16,31V30H15V28H14V27H13V25H11v1h1v2h1v1h1v2h1v1h1v1h1V31Z"/><path class="ja270-3" d="M13,31V30H12V28H11V27H10V26H9v2h1v1h1v2h1v1h1v1h1V31Z"/><path class="ja270-3" d="M19,31V30H18V28H17V27H16V25H15V24H14V23H13v2h1v1h1v2h1v1h1v2h1v1h1v1h1V31Z"/><rect class="ja270-3" x="16" y="24" width="1" height="1"/><path class="ja270-3" d="M10,31V30H9v2h1v1h1V31Z"/><path class="ja270-3" d="M17,25v1h1v2h1v1h1V27H19V25H17Z"/><path class="ja270-2" d="M18,25h1V24H17v1Z"/><path class="ja270-2" d="M13,23h3v1h1V21H16v1H13V21H12v3h1Z"/><path class="ja270-2" d="M12,25V24H10v1h2Z"/><path class="ja270-2" d="M10,26V25H8v1h2Z"/><path class="ja270-2" d="M9,31V27H8v6H9V31Z"/><rect class="ja270-2" x="7" y="26" width="1" height="1"/><path class="ja270-3" d="M7,31v2H8V31Z"/><path class="ja270-3" d="M8,29V27H7v2Z"/><path class="ja270-2" d="M7,30V27H6v6H7V30Z"/><path class="ja270-4" d="M21,29v1h1V28H21Z"/><path class="ja270-4" d="M21,32v1h1V32Z"/><path class="ja270-4" d="M19,26v1h2V26H19Z"/><path class="ja270-4" d="M19,28H18v2h1v1h1V29H19Z"/><path class="ja270-4" d="M17,26V25H16v2h1v1h1V26Z"/><path class="ja270-4" d="M18,32V31H17v2h2V32Z"/><path class="ja270-4" d="M16,30v1h1V29H16V28H15v2Z"/><path class="ja270-4" d="M16,23H14v1h1v1h1V23Z"/><path class="ja270-4" d="M14,27v1h1V26H14V25H13v2Z"/><path class="ja270-4" d="M15,32V31H14v2h2V32Z"/><path class="ja270-4" d="M13,30v1h1V29H13V28H12v2Z"/><path class="ja270-4" d="M13,25V24H12v1Z"/><path class="ja270-4" d="M10,27h1v1h1V26H11V25H10v2Z"/><path class="ja270-4" d="M12,32V31H11v2h2V32Z"/><path class="ja270-4" d="M10,30v1h1V29H10V28H9v2Z"/><path class="ja270-4" d="M9,32v1h1V32Z"/><path class="ja270-4" d="M9,27V26H8v1Z"/><path class="ja270-4" d="M7,30v1H8V29H7Z"/><path class="ja270-2" d="M20,16h1V15H20Z"/><path class="ja270-5" d="M13,14h3V12H15V11H14v1H12v1h1Z"/><path class="ja270-5" d="M13,22h3V21h1V19H16v1H13V19h3V18h1v1h1V18h1V17H16V16H15v1H14V16H13v1H10v1h1v1h1v2h1Z"/><rect class="ja270-5" x="14" y="15" width="1" height="1"/><path class="ja270-2" d="M17,20v1h1V20Z"/><path class="ja270-2" d="M11,20v1h1V20Z"/><path class="ja270-2" d="M8,15v1H9V15Z"/><rect class="ja270-2" x="14" y="16" width="1" height="1"/><path class="ja270-6" d="M17,13V12H16v1Z"/><path class="ja270-7" d="M19,17v1H18v1H17v1h1v1h2V20h1V19H20V16H19Z"/><path class="ja270-7" d="M12,20V19H11V18H10V16H9v3H8v1H9v1h2V20Z"/><rect class="ja270-2" x="13" y="19" width="3" height="1"/><rect class="ja270-2" x="16" y="18" width="1" height="1"/><rect class="ja270-8" x="21" y="12" width="1" height="1"/><path class="ja270-8" d="M10,13h2V12h2V11h1v1h2v1h2v1h1V12h1V11H20V10H19V9H17V8H12V9H10v1H9v1H8v1H9v2h1Z"/><rect class="ja270-8" x="7" y="12" width="1" height="1"/><path class="ja270-9" d="M19,15v1h1V15h1V14H19Z"/><path class="ja270-9" d="M16,14h3V13H16Z"/><path class="ja270-2" d="M19,16V14H16v2h3Z"/><path class="ja270-9" d="M18,16H16v1h3V16Z"/><path class="ja270-9" d="M13,14v2h1V15h1v1h1V14Z"/><path class="ja270-9" d="M13,14V13H10v1h3Z"/><path class="ja270-2" d="M12,14H10v2h3V14Z"/><path class="ja270-9" d="M10,16v1h3V16H10Z"/><path class="ja270-9" d="M10,15V14H8v1H9v1h1Z"/></svg>