<svg xmlns="http://www.w3.org/2000/svg" viewBox="0 0 29 33"><defs><style>polygon,rect,path{shape-rendering:crispedges;}.ya295-1{fill:#397d98;}.ya295-2{fill:#000000;}.ya295-3{fill:#014731;}.ya295-4{fill:#b2622b;}.ya295-5{fill:#00af68;}.ya295-6{fill:#492a23;}.ya295-7{fill:#492a23;}.ya295-8{fill:#ffffff;}.ya295-9{fill:#e70059;}.ya295-10{fill:#00af68;}.ya295-11{fill:#fad000;}</style></defs><path class="ya295-1" d="M0,33H6V24H7V23H8v1H9v1h1V24h1V23h1V21H11V20H10V19H9V16H8V14H9V11h1V10H9V9h1V8h2V7h1V8h3V9h1V8h1V9h1v1h1v4h1v2H20v3H19v1H18v1H17v2h1v1h1v1h2v1h1v1h1v6h6V0H0Z"/><rect class="ya295-1" x="12" y="8" width="1" height="1"/><path class="ya295-2" d="M23,27H22v6h1V27Z"/><path class="ya295-3" d="M21,31v2h1V31Z"/><path class="ya295-3" d="M21,28v2h1V27H21Z"/><rect class="ya295-2" x="21" y="26" width="1" height="1"/><path class="ya295-2" d="M21,30V27H20v6h1V30Z"/><path class="ya295-3" d="M20,32V26H19V25H18v1H17v1H16V25H15v2H14V25H13v2H12V26H11V25H10v2H9v5h1v1h4V32h1v1h4V32Zm-9-3H10V28h1Zm2,2H12V30h1Zm2,0H14V30h1Zm0-2H14V28h1Zm2,2H16V30h1Zm1-2V28h1v1Z"/><path class="ya295-2" d="M20,26h1V25H19v1Z"/><rect class="ya295-3" x="16" y="24" width="1" height="1"/><rect class="ya295-2" x="15" y="24" width="1" height="1"/><rect class="ya295-2" x="14" y="32" width="1" height="1"/><rect class="ya295-2" x="14" y="30" width="1" height="1"/><rect class="ya295-2" x="14" y="28" width="1" height="1"/><path class="ya295-2" d="M14,26v1h1V25H14Z"/><rect class="ya295-2" x="13" y="24" width="1" height="1"/><path class="ya295-4" d="M16,24V23H13v1h1v1h1V24Z"/><rect class="ya295-3" x="12" y="24" width="1" height="1"/><path class="ya295-2" d="M11,26h2V25H12V24h1V23h3v1h1v1H16v1h2V25h1V24H18V23H17V21H16v1H13V21H12v2H11v1H10v1h1Z"/><path class="ya295-2" d="M9,31V27H8v6H9V31Z"/><path class="ya295-3" d="M7,32v1H8V32Z"/><path class="ya295-3" d="M7,29v2H8V28H7Z"/><path class="ya295-2" d="M7,31V24H6v9H7V31Z"/><rect class="ya295-5" x="18" y="28" width="1" height="1"/><rect class="ya295-5" x="16" y="30" width="1" height="1"/><path class="ya295-5" d="M16,27h1V26H16Z"/><rect class="ya295-5" x="12" y="30" width="1" height="1"/><rect class="ya295-5" x="10" y="28" width="1" height="1"/><path class="ya295-5" d="M7,28H8V27H7Z"/><path class="ya295-5" d="M12,27h1V26H12Z"/><path class="ya295-5" d="M20,27h1V26H20Z"/><path class="ya295-5" d="M9,32v1h1V32Z"/><path class="ya295-5" d="M19,32v1h1V32Z"/><path class="ya295-5" d="M21,31h1V30H21Z"/><path class="ya295-5" d="M7,32H8V31H7Z"/><path class="ya295-2" d="M20,16h1V15H20Z"/><path class="ya295-4" d="M12,19V18h5v1h2V17H16V16H15v1H14V16H13v1H10v2h2Z"/><rect class="ya295-4" x="15" y="20" width="1" height="1"/><rect class="ya295-4" x="16" y="19" width="1" height="1"/><rect class="ya295-4" x="13" y="20" width="1" height="1"/><rect class="ya295-4" x="12" y="19" width="1" height="1"/><path class="ya295-4" d="M13,13v1h3V12h2V11H17V10H16v1H11v1h2Z"/><rect class="ya295-4" x="14" y="15" width="1" height="1"/><path class="ya295-2" d="M19,17v2h1V16H19Z"/><path class="ya295-2" d="M18,20h1V19H18Z"/><rect class="ya295-2" x="17" y="20" width="1" height="1"/><rect class="ya295-2" x="11" y="20" width="1" height="1"/><path class="ya295-2" d="M10,19v1h1V19Z"/><path class="ya295-2" d="M10,16H9v3h1V16Z"/><path class="ya295-2" d="M8,15v1H9V15Z"/><rect class="ya295-2" x="14" y="16" width="1" height="1"/><path class="ya295-6" d="M13,13V12H10v1h3Z"/><path class="ya295-6" d="M16,13h3V12H16Z"/><path class="ya295-7" d="M17,19v1h1V19Z"/><rect class="ya295-7" x="16" y="20" width="1" height="1"/><path class="ya295-7" d="M15,20H14v1H13v1h3V21H15Z"/><rect class="ya295-7" x="12" y="20" width="1" height="1"/><path class="ya295-7" d="M12,19H11v1h1Z"/><path class="ya295-2" d="M13,18H12v1h1Z"/><path class="ya295-2" d="M17,19V18H16v1Z"/><rect class="ya295-2" x="15" y="19" width="1" height="1"/><path class="ya295-2" d="M15,19V18H14v1Z"/><rect class="ya295-2" x="13" y="19" width="1" height="1"/><path class="ya295-8" d="M14,19V18H13v1Z"/><path class="ya295-8" d="M16,19V18H15v1Z"/><rect class="ya295-9" x="14" y="19" width="1" height="1"/><path class="ya295-4" d="M7,27H9V25H8V24H7v3Z"/><path class="ya295-2" d="M10,27V25H9v2Z"/><rect class="ya295-2" x="8" y="24" width="1" height="1"/><rect class="ya295-2" x="7" y="23" width="1" height="1"/><path class="ya295-10" d="M10,13V12h1V11h5V10h1v1h1v1h1v2h1V10H19V9H18V8H17V9H16V8H13V9H12V8H10V9H9v1h1v1H9v3h1Z"/><rect class="ya295-10" x="12" y="7" width="1" height="1"/><path class="ya295-11" d="M19,15v1h1V15h1V14H19Z"/><path class="ya295-11" d="M16,13v1h3V13H16Z"/><path class="ya295-2" d="M19,16V14H16v2h3Z"/><path class="ya295-11" d="M18,16H16v1h3V16Z"/><path class="ya295-11" d="M13,14v2h1V15h1v1h1V14Z"/><path class="ya295-11" d="M13,14V13H10v1h3Z"/><path class="ya295-2" d="M12,14H10v2h3V14Z"/><path class="ya295-11" d="M10,16v1h3V16H10Z"/><path class="ya295-11" d="M10,15V14H8v1H9v1h1Z"/></svg>