<svg xmlns="http://www.w3.org/2000/svg" viewBox="0 0 29 33"><defs><style>polygon,rect,path{shape-rendering:crispedges;}.ab298-1{fill:#000000;}.ab298-2{fill:#a0688d;}.ab298-3{fill:#316a6d;}.ab298-4{fill:#c18d59;}.ab298-5{fill:#ffffff;}.ab298-6{fill:#b4bd09;}</style></defs><path class="ab298-1" d="M7,30V27H6v6H7V30Z"/><path class="ab298-2" d="M7,31H8V30H7Z"/><path class="ab298-2" d="M8,28V27H7v1Z"/><rect class="ab298-1" x="7" y="26" width="1" height="1"/><path class="ab298-1" d="M9,30V27H8v6H9V30Z"/><rect class="ab298-2" x="15" y="30" width="5" height="1"/><path class="ab298-2" d="M15,27H9v1H20V27H15Z"/><path class="ab298-2" d="M9,30v1h5V30Z"/><path class="ab298-1" d="M10,25H8v1h2Z"/><rect class="ab298-2" x="12" y="24" width="1" height="1"/><path class="ab298-1" d="M11,26h2V25H12V24h1v1h1v2h1V25h1V24h1v1H16v1h2V25h1V24H18V23H17V22h1V21h1V20h1V17h1V15H20V11H19V10H18V9H11v1H10v1H9v4H8v2H9v3h1v1h1v1h1v1H11v1H10v1h1Zm5-11V14h1v1h1V14h1v2H16Zm0,6H13V20h3Zm-5-5H10V14h1v1h1V14h1v2Z"/><rect class="ab298-1" x="14" y="32" width="1" height="1"/><rect class="ab298-1" x="14" y="30" width="1" height="1"/><path class="ab298-1" d="M15,29V28H14v1Z"/><rect class="ab298-2" x="16" y="24" width="1" height="1"/><path class="ab298-1" d="M21,30V27H20v6h1V30Z"/><path class="ab298-2" d="M21,31h1V30H21Z"/><path class="ab298-2" d="M21,28h1V27H21Z"/><path class="ab298-1" d="M23,24H22v9h1V24Z"/><path class="ab298-3" d="M15,31H9v2h5V32h1v1h5V31Z"/><path class="ab298-3" d="M15,29H14V28H9v2H20V28H15Z"/><path class="ab298-3" d="M18,26H16V25H15v2h4V25H18Z"/><path class="ab298-3" d="M9,27h5V25H13v1H11V25H10v1H8v1Z"/><path class="ab298-3" d="M7,29v1H8V28H7Z"/><path class="ab298-3" d="M7,31v2H8V31Z"/><path class="ab298-3" d="M21,31v2h1V31Z"/><path class="ab298-3" d="M21,29v1h1V28H21Z"/><path class="ab298-4" d="M13,15H10v1h3Z"/><path class="ab298-4" d="M19,15H16v1h3Z"/><rect class="ab298-4" x="13" y="20" width="3" height="1"/><path class="ab298-5" d="M13,14H12v1h1Z"/><path class="ab298-5" d="M11,14H10v1h1Z"/><path class="ab298-5" d="M19,14H18v1h1Z"/><path class="ab298-5" d="M17,14H16v1h1Z"/><path class="ab298-4" d="M21,27h1V24H21v1H20v2Z"/><path class="ab298-1" d="M20,27V25H19v2Z"/><rect class="ab298-1" x="20" y="24" width="1" height="1"/><rect class="ab298-1" x="21" y="23" width="1" height="1"/><path class="ab298-6" d="M0,9V33H6V27H7V26H8V25h2V24h1V23h1V22H11V21H10V20H9V17H8V15H9V11h1V10h1V9h7v1h1v1h1v4h1v2H20v3H19v1H18v1H17v1h1v1h1v1h1V24h1V23h1v1h1v9h6V0H0Z"/></svg>