<svg xmlns="http://www.w3.org/2000/svg" viewBox="0 0 29 33"><defs><style>polygon,rect,path{shape-rendering:crispedges;}.za138-1{fill:#6b4f99;}.za138-2{fill:#000000;}.za138-3{fill:#003b3f;}.za138-4{fill:#c18d59;}.za138-5{fill:#009b97;}.za138-6{fill:#ffffff;}.za138-7{fill:#6f7032;}.za138-8{fill:#6f7032;}.za138-9{fill:#cc3232;}.za138-10{fill:#280000;}.za138-11{fill:#ff5e17;}.za138-12{fill:#560000;}.za138-13{fill:#900;}.za138-14{fill:#fad000;}</style></defs><path class="za138-1" d="M0,33H6V27H5V26H6V25H5V24H4V21H5V20H6V19H9V16H8V15H9V11h1V10h1V7h1V6H11V5h2V6h2V7h1V9h2v1h1v1h1v4h1v1H20v3h1v1H20v1H17v2h1v1h1v1h2v1h1v1h1v6h6V0H0Z"/><rect class="za138-1" x="10" y="24" width="1"/><rect class="za138-1" x="9" y="25" width="1"/><path class="za138-1" d="M11,22v1h1V21H11Z"/><path class="za138-2" d="M23,27H22v6h1V27Z"/><path class="za138-3" d="M21,31v2h1V31Z"/><path class="za138-3" d="M21,28v2h1V27H21Z"/><rect class="za138-2" x="21" y="26" width="1" height="1"/><path class="za138-2" d="M21,30V27H20v6h1V30Z"/><path class="za138-3" d="M20,32V26H19V25H18v1H17v1H16V25H15v2H14V25H13v2H12V26H11V25H10v2H9v5h1v1h4V32h1v1h4V32Zm-9-3H10V28h1Zm2,2H12V30h1Zm2,0H14V30h1Zm0-2H14V28h1Zm2,2H16V30h1Zm1-2V28h1v1Z"/><path class="za138-2" d="M20,26h1V25H19v1Z"/><rect class="za138-3" x="16" y="24" width="1" height="1"/><rect class="za138-2" x="15" y="24" width="1" height="1"/><rect class="za138-2" x="14" y="32" width="1" height="1"/><rect class="za138-2" x="14" y="30" width="1" height="1"/><rect class="za138-2" x="14" y="28" width="1" height="1"/><path class="za138-2" d="M14,26v1h1V25H14Z"/><rect class="za138-2" x="13" y="24" width="1" height="1"/><path class="za138-4" d="M16,24V23H13v1h1v1h1V24Z"/><rect class="za138-3" x="12" y="24" width="1" height="1"/><path class="za138-2" d="M9,26v1h1V25H9Z"/><path class="za138-2" d="M9,31V27H8v1H8v5H9V31Z"/><path class="za138-3" d="M7,29v2H8V28H7Z"/><path class="za138-3" d="M7,32v1H8V32Z"/><path class="za138-2" d="M7,31V28H7V27H6v6H7V31Z"/><rect class="za138-5" x="18" y="28" width="1" height="1"/><rect class="za138-5" x="16" y="30" width="1" height="1"/><path class="za138-5" d="M16,27h1V26H16Z"/><rect class="za138-5" x="12" y="30" width="1" height="1"/><rect class="za138-5" x="10" y="28" width="1" height="1"/><polygon class="za138-5" points="7 28 8 28 8 28 7 28 7 28"/><path class="za138-5" d="M12,27h1V26H12Z"/><path class="za138-5" d="M20,27h1V26H20Z"/><path class="za138-5" d="M9,32v1h1V32Z"/><path class="za138-5" d="M19,32v1h1V32Z"/><path class="za138-5" d="M21,31h1V30H21Z"/><path class="za138-5" d="M7,32H8V31H7Z"/><rect class="za138-2" x="20" y="15" width="1" height="1"/><path class="za138-2" d="M19,14v1h1V11H19v3Z"/><path class="za138-4" d="M10,14h2V13H10Z"/><path class="za138-4" d="M10,17v1h1v1h1v2h1v1h3V21h1V19h1V18h1V16h1V15H16V14h2V13H16V12h2v1h1V11H18V10H16v1H14V10H11v1H10v1h2v1h1v2H9v1h1Zm4-1h1v1H14Zm-1,3h3v1H13Z"/><rect class="za138-2" x="18" y="10" width="1" height="1"/><path class="za138-2" d="M17,20v1h1V20Z"/><path class="za138-2" d="M16,22H13V21H12v2H11v1H10v1h1v1h2V25H12V24h1V23h3v1h1v1H16v1h2V25h1V24H18V23H17V21H16Z"/><path class="za138-2" d="M17,10h1V9H16v1Z"/><path class="za138-2" d="M13,9H11v1h2Z"/><rect class="za138-2" x="10" y="10" width="1" height="1"/><path class="za138-2" d="M10,14V11H9v4h1Z"/><rect class="za138-2" x="8" y="15" width="1" height="1"/><rect class="za138-2" x="14" y="16" width="1" height="1"/><path class="za138-6" d="M12,15h1V14H12Z"/><path class="za138-6" d="M10,14v1h1V14Z"/><path class="za138-6" d="M18,14v1h1V14Z"/><path class="za138-6" d="M16,14v1h1V14Z"/><path class="za138-2" d="M11,14v1h1V14Z"/><path class="za138-2" d="M17,14v1h1V14Z"/><path class="za138-7" d="M19,13H18v1h1Z"/><rect class="za138-7" x="16" y="12" width="2" height="1"/><path class="za138-7" d="M13,14V13H12v1Z"/><path class="za138-7" d="M12,13V12H10v1Z"/><path class="za138-8" d="M19,17v1H18v1H17v1h1v1h2V20h1V19H20V16H19Z"/><path class="za138-8" d="M10,20v1h1V20h1V19H11V18H10V16H9v4Z"/><rect class="za138-2" x="13" y="19" width="3" height="1"/><path class="za138-9" d="M13,10h1v1h2V7H15V6H13V5H11V6h1V7H11V9h2Z"/><path class="za138-4" d="M7,27v1H8V27H9V26H6v1Z"/><polygon class="za138-2" points="5 26 5 27 6 27 6 26 5 26"/><path class="za138-10" d="M6,22V21H7V19H6v1H5v2Z"/><path class="za138-10" d="M9,25h1V24h0V23H9v1H8v2H9V25Z"/><rect class="za138-11" x="6" y="24" width="1" height="1"/><polygon class="za138-2" points="10 21 10 20 9 20 9 21 10 21"/><path class="za138-2" d="M11,22V21h1V20H11v1H10v1Z"/><path class="za138-12" d="M10,22v2h1V22Z"/><path class="za138-13" d="M9,21v2h1V21Z"/><polygon class="za138-11" points="8 21 9 21 9 20 8 20 8 20 8 21"/><path class="za138-12" d="M5,22V21H4v2H5Z"/><path class="za138-13" d="M6,23V22H5v2H6Z"/><path class="za138-2" d="M8,25H6v1H8Z"/><path class="za138-2" d="M8,20H9V19H7v1Z"/><path class="za138-14" d="M8,20H7v1H8Z"/><polygon class="za138-14" points="6 21 6 22 6 23 6 24 7 24 7 21 6 21"/><path class="za138-14" d="M7,24v1H8V24Z"/><path class="za138-14" d="M9,21H8v3H9V21Z"/><rect class="za138-12" x="7" y="21" width="1" height="3"/><rect class="za138-2" x="5" y="24" width="1" height="1"/><path class="za138-2" d="M4,23v1H5V23Z"/><rect class="za138-9" x="10" y="9" width="1" height="1"></rect></svg>