<svg xmlns="http://www.w3.org/2000/svg" viewBox="0 0 29 33"><defs><style>polygon,rect,path{shape-rendering:crispedges;}.da200-1{fill:#e55b35;}.da200-2{fill:#000000;}.da200-3{fill:#00af68;}.da200-4{fill:#b2622b;}.da200-5{fill:#00af68;}.da200-6{fill:#8e4717;}.da200-7{fill:#ffffff;}.da200-8{fill:#8e4717;}.da200-9{fill:#c8a715;}.da200-10{fill:#00774c;}</style></defs><path class="da200-1" d="M12,22H11v2h1V22Z"/><path class="da200-1" d="M6,32V27H7V26H8V25h2V20H9V16H8V14H9V12H8v1H7V12H8V11H9V10h1V9h2V8h5V9h2v1h1v1h1v1h1v1H21V12H20v2h1v2H20v4H19v5h2v1h1v1h1v6h6V0H0V33H6Z"/><path class="da200-1" d="M18,24V22H17v2Z"/><path class="da200-2" d="M23,27H22v3H21V27H20v6h1V31h1v2h1V27Z"/><rect class="da200-2" x="21" y="26" width="1" height="1"/><path class="da200-3" d="M21,28v2h1V27H21Z"/><path class="da200-4" d="M21,31v2h1V31Z"/><path class="da200-2" d="M20,26h1V25H19v1Z"/><rect class="da200-3" x="10" y="29" width="1" height="1"/><path class="da200-3" d="M19,32V31H18v1H17V29h1V28h1v1h1V27h1V26H19V25H17v1H16v1H13V26H12V25H10v1H8v1H9v2h1V28h1v1h1v3H11V31H10v1H9v1H20V32Zm-3-2v1H15v1H13V28h2v1h1Z"/><rect class="da200-3" x="18" y="29" width="1" height="1"/><path class="da200-3" d="M15,29H14v2h1V29Z"/><path class="da200-2" d="M17,24v1h2V24H17Z"/><rect class="da200-2" x="16" y="25" width="1" height="1"/><path class="da200-2" d="M13,26v1h3V26H13Z"/><path class="da200-4" d="M16,24V23H13v3h3V24Z"/><path class="da200-2" d="M12,25v1h1V25Z"/><path class="da200-2" d="M12,24H10v1h2Z"/><path class="da200-2" d="M10,25H8v1h2Z"/><path class="da200-2" d="M9,31V27H8v3H7V27H6v6H7V31H8v2H9V31Z"/><rect class="da200-2" x="7" y="26" width="1" height="1"/><path class="da200-3" d="M7,30H8V27H7v3Z"/><path class="da200-4" d="M7,31v2H8V31Z"/><path class="da200-5" d="M19,30H18V29H17v3h1V31h1v1h1V29H19Z"/><rect class="da200-5" x="18" y="28" width="1" height="1"/><path class="da200-5" d="M15,30v1h1V29H15Z"/><path class="da200-5" d="M14,30V29h1V28H13v4h2V31H14Z"/><path class="da200-5" d="M9,32h1V31h1v1h1V29H11v1H10V29H9v3Z"/><rect class="da200-5" x="10" y="28" width="1" height="1"/><path class="da200-2" d="M20,16h1V15H20Z"/><rect class="da200-2" x="19" y="14" width="1" height="1"/><path class="da200-4" d="M10,17v1h1v1h1V18h2v1h1V18h2v1h1V18h1V16h1V15H19V13H17v1h1v1H16v1H15v1H14V16H13V15H11V14h1V13H10v2H9v1h1Z"/><polygon class="da200-4" points="13 21 14 21 14 22 15 22 15 21 16 21 16 20 13 20 13 21"/><path class="da200-2" d="M19,17h1V16H19Z"/><path class="da200-2" d="M10,15V14H9v1Z"/><path class="da200-2" d="M10,16H9v1h1Z"/><path class="da200-2" d="M8,15v1H9V15Z"/><path class="da200-6" d="M18,15V14H17v1Z"/><rect class="da200-6" x="16" y="13" width="1" height="1"/><rect class="da200-2" x="14" y="14" width="1" height="1"/><path class="da200-7" d="M16,13H13v1H12v1h1v1h3V15h1V14H16Zm-1,2H14V14h1Z"/><path class="da200-6" d="M14,13h2V12H13v1Z"/><rect class="da200-6" x="12" y="13" width="1" height="1"/><path class="da200-6" d="M11,14v1h1V14Z"/><path class="da200-2" d="M14,17h1V16H14Z"/><path class="da200-4" d="M15,11H14v1h1Z"/><rect class="da200-4" x="16" y="12" width="1" height="1"/><rect class="da200-4" x="12" y="12" width="1" height="1"/><path class="da200-8" d="M12,22v1h5V22h2V20h1V17H19v1H18v1H16v2H15v1H14V21H13V19h1V18H12v1H11V18H10V17H9v3h1v2h2Z"/><path class="da200-8" d="M15,18v1h1V18Z"/><path class="da200-9" d="M18,23h1V22H18Z"/><path class="da200-8" d="M18,24h1V23H18Z"/><path class="da200-9" d="M17,24V23H16v1Z"/><path class="da200-8" d="M16,24v1h1V24Z"/><path class="da200-9" d="M13,23H12v1h1Z"/><path class="da200-8" d="M13,24H12v1h1Z"/><path class="da200-9" d="M11,22H10v1h1Z"/><path class="da200-8" d="M11,23H10v1h1Z"/><path class="da200-2" d="M14,19H13v1h3V19H14Z"/><path class="da200-2" d="M16,18v1h1V18Z"/><rect class="da200-10" x="21" y="12" width="1" height="1"/><path class="da200-10" d="M10,13h2V12h2V11h1v1h2v1h2v1h1V12h1V11H20V10H19V9H17V8H12V9H10v1H9v1H8v1H9v2h1Z"/><path class="da200-10" d="M21,15V14H20v1Z"/><path class="da200-10" d="M9,14H8v1H9Z"/><rect class="da200-10" x="7" y="12" width="1" height="1"/></svg>