<svg xmlns="http://www.w3.org/2000/svg" viewBox="0 0 29 33"><defs><style>polygon,rect,path{shape-rendering:crispedges;}.ib182-1{fill:#b4bd09;}.ib182-2{fill:#a56e49;}.ib182-3{fill:#000000;}.ib182-4{fill:#ffffff;}.ib182-5{fill:#8e4717;}.ib182-6{fill:#8e4717;}.ib182-7{fill:#009b97;}.ib182-8{fill:#fad000;}.ib182-9{fill:#00bc55;}.ib182-10{fill:#cc3232;}</style></defs><path class="ib182-1" d="M6,32V27H7V26H8V25h2V24h2V21H9V20H8V19H9V16H8V15H9V11h1V10h1V9h7v1h1v1h1v4h1v1H20v3h1v1H20v1H17v3h2V23h1V22h3v1h1v3H23v7h6V0H0V33H6ZM11,6h1V5h5V6h1V7H17V8H12V7H11Z"/><path class="ib182-1" d="M13,7h4V6H12V7Z"/><path class="ib182-2" d="M22,26h1V25H20v1h1v7h1V26Z"/><path class="ib182-3" d="M23,26H22v7h1V26Z"/><path class="ib182-3" d="M7,27H6v6H7V27Z"/><path class="ib182-2" d="M8,27H7v6H8V27Z"/><rect class="ib182-3" x="7" y="26" width="1" height="1"/><path class="ib182-3" d="M9,27H8v6H9V27Z"/><path class="ib182-2" d="M20,26H19V25H17V24H16V23H13v1H12v1H10v1H8v1H9v6h5V29h1v4h5V26Zm-8,3H11V28h1Zm6,0H17V28h1Z"/><path class="ib182-3" d="M10,25H8v1h2Z"/><rect class="ib182-3" x="11" y="28" width="1" height="1"/><path class="ib182-3" d="M12,24H10v1h2Z"/><path class="ib182-3" d="M13,23h3v1h1V21H16v1H13V21H12v3h1Z"/><path class="ib182-3" d="M15,29H14v4h1V29Z"/><rect class="ib182-3" x="17" y="28" width="1" height="1"/><path class="ib182-3" d="M18,25h1V24H17v1Z"/><path class="ib182-3" d="M21,26H20v7h1V26Z"/><rect class="ib182-3" x="20" y="15" width="1" height="1"/><path class="ib182-3" d="M19,15h1V14H19Z"/><path class="ib182-2" d="M13,22h3V21h1V19H16v1H13V19H12v2h1Z"/><path class="ib182-2" d="M10,17v1h1v1h1V18h5v1h1V18h1V16h1V15H16V14h3V13H16V12h3V11H18V10H11v1H10v1h3v1H10v1h3v1H9v1h1Zm4-1h1v1H14Z"/><path class="ib182-3" d="M17,20v1h1V20Z"/><path class="ib182-3" d="M11,20v1h1V20Z"/><path class="ib182-3" d="M10,14H9v1h1Z"/><rect class="ib182-3" x="8" y="15" width="1" height="1"/><rect class="ib182-3" x="14" y="16" width="1" height="1"/><path class="ib182-4" d="M13,15V14H12v1Z"/><path class="ib182-4" d="M11,15V14H10v1Z"/><path class="ib182-4" d="M18,14v1h1V14Z"/><path class="ib182-4" d="M16,14v1h1V14Z"/><path class="ib182-3" d="M12,15V14H11v1Z"/><path class="ib182-3" d="M17,14v1h1V14Z"/><rect class="ib182-5" x="10" y="12" width="3" height="1"/><rect class="ib182-5" x="16" y="12" width="3" height="1"/><path class="ib182-6" d="M19,17v1H18v1H17v1h1v1h2V20h1V19H20V16H19Z"/><path class="ib182-6" d="M12,20V19H11V18H10V16H9v3H8v1H9v1h2V20Z"/><polygon class="ib182-3" points="12 18 12 19 13 19 13 20 16 20 16 19 17 19 17 18 12 18"/><path class="ib182-7" d="M19,13v1h1V11H19v2Z"/><rect class="ib182-7" x="18" y="10" width="1" height="1"/><path class="ib182-7" d="M18,10V9H11v1h7Z"/><rect class="ib182-7" x="10" y="10" width="1" height="1"/><path class="ib182-7" d="M10,13V11H9v3h1Z"/><rect class="ib182-8" x="17" y="6" width="1" height="1"/><path class="ib182-8" d="M13,7H12V8h5V7H13Z"/><path class="ib182-8" d="M17,6V5H12V6h5Z"/><rect class="ib182-8" x="11" y="6" width="1" height="1"/><path class="ib182-9" d="M21,24h1V23h1V22H20v1h1Z"/><path class="ib182-9" d="M20,25V23H19v2Z"/><path class="ib182-3" d="M21,24V23H20v1Z"/><rect class="ib182-3" x="22" y="23" width="1" height="1"/><path class="ib182-9" d="M23,25h1V23H23v2Z"/><path class="ib182-10" d="M22,24H20v1h3V24Z"/><path class="ib182-3" d="M23,26h1V25H23Z"/><rect class="ib182-3" x="19" y="25" width="1" height="1"/></svg>