<svg xmlns="http://www.w3.org/2000/svg" viewBox="0 0 29 33"><defs><style>polygon,rect,path{shape-rendering:crispedges;}.bb228-1{fill:#e55b35;}.bb228-2{fill:#000000;}.bb228-3{fill:#594589;}.bb228-4{fill:#ffffff;}.bb228-5{fill:#e8b795;}.bb228-6{fill:#e2e2e2;}.bb228-7{fill:#e2e2e2;}.bb228-8{fill:#00e2b7;}.bb228-9{fill:#508e91;}</style></defs><path class="bb228-1" d="M0,33H6V27H7V26H8V25h2V24h1V23h1V22H11V21H10V20H9V16H8V14H9V11h1V10h1V9h2V7h1V6h2V5h2V6H17V7h1V9h1v2h1v3h1v2H20v4H19v1H18v1H17v1h1v1h1v1h2v1h1v1h1v6h6V0H0Z"/><path class="bb228-2" d="M23,27H22v6h1V27Z"/><path class="bb228-3" d="M22,27H21v6h1V27Z"/><rect class="bb228-2" x="21" y="26" width="1" height="1"/><path class="bb228-2" d="M21,27H20v6h1V27Z"/><path class="bb228-3" d="M20,27h1V26H19V25H18v4H17v4h3V27Z"/><path class="bb228-2" d="M20,26h1V25H19v1Z"/><path class="bb228-2" d="M17,29H16v4h1V29Z"/><rect class="bb228-4" x="16" y="24" width="1" height="1"/><path class="bb228-4" d="M16,29h1V26H16V25H13v1H12v3h1v4h1V32h1v1h1V29Zm-1,2H14V30h1Zm0-2H14V28h1Zm0-2H14V26h1Z"/><rect class="bb228-4" x="15" y="23" width="1" height="1"/><rect class="bb228-2" x="14" y="32" width="1" height="1"/><rect class="bb228-2" x="14" y="30" width="1" height="1"/><rect class="bb228-2" x="14" y="28" width="1" height="1"/><rect class="bb228-2" x="14" y="26" width="1" height="1"/><path class="bb228-2" d="M15,24V23H14v1H13v1h3V24Z"/><rect class="bb228-4" x="13" y="23" width="1" height="1"/><path class="bb228-2" d="M13,29H12v4h1V29Z"/><rect class="bb228-4" x="12" y="24" width="1" height="1"/><path class="bb228-3" d="M12,29H11V25H10v1H8v1H9v6h3V29Z"/><path class="bb228-2" d="M11,26v3h1V26h1V25H12V24h1V22H12v1H11v1H10v1h1Z"/><path class="bb228-2" d="M10,25H8v1h2Z"/><path class="bb228-2" d="M9,27H8v6H9V27Z"/><path class="bb228-3" d="M8,27H7v6H8V27Z"/><rect class="bb228-2" x="7" y="26" width="1" height="1"/><path class="bb228-2" d="M7,27H6v6H7V27Z"/><path class="bb228-2" d="M20,16h1V15H20Z"/><path class="bb228-2" d="M19,13v1h1V11H19v2Z"/><rect class="bb228-5" x="13" y="20" width="1" height="1"/><path class="bb228-5" d="M16,17V16H15v1H14V16H13v1H10v1h1v1h1V18h2v1h1V18h2v1h1V18h1V17H16Z"/><rect class="bb228-5" x="15" y="20" width="1" height="1"/><path class="bb228-5" d="M11,13V12h2v2h3V13h1V12h2V11H18V10H15v1H13V10H11v1H10v2Z"/><path class="bb228-5" d="M13,16V15H10v1h3Z"/><rect class="bb228-5" x="14" y="15" width="1" height="1"/><path class="bb228-5" d="M18,15H16v1h3V15Z"/><path class="bb228-2" d="M18,11h1V10H18Z"/><path class="bb228-2" d="M16,23v1h1v1H16v1h1v3h1V25h1V24H18V23H17V22H16Z"/><path class="bb228-2" d="M16,10h2V9H16Z"/><path class="bb228-2" d="M13,9H11v1h2Z"/><rect class="bb228-2" x="10" y="10" width="1" height="1"/><path class="bb228-2" d="M10,13V11H9v3h1Z"/><path class="bb228-2" d="M8,15v1H9V15Z"/><rect class="bb228-2" x="14" y="16" width="1" height="1"/><path class="bb228-4" d="M12,15h1V14H12Z"/><path class="bb228-4" d="M11,14H10v1h1Z"/><rect class="bb228-4" x="18" y="14" width="1" height="1"/><path class="bb228-4" d="M17,15V14H16v1Z"/><path class="bb228-2" d="M11,14v1h1V14Z"/><path class="bb228-2" d="M17,14v1h1V14Z"/><path class="bb228-6" d="M13,12H11v1h2Z"/><path class="bb228-6" d="M19,12H17v1h2Z"/><path class="bb228-7" d="M14,18H13v1h1Z"/><path class="bb228-7" d="M13,23h3V22h2V21h1V20h1V16H19v2H18v1H17V18H15v1h1v2H15V20H14v1H13V19H11V18H10V16H9v4h1v1h1v1h2Z"/><path class="bb228-2" d="M13,19v1h3V19H13Z"/><path class="bb228-2" d="M12,18v1h1V18Z"/><path class="bb228-8" d="M13,11h2V10h1V9h2V7H17V6h1V5H16V6H14V7H13v4Z"/><path class="bb228-8" d="M19,10V9H18v1Z"/><path class="bb228-9" d="M19,15v1h1V15h1V14H19Z"/><path class="bb228-9" d="M16,16v1h3V16H16Z"/><path class="bb228-9" d="M12,14h1V13H10v1h2Z"/><path class="bb228-9" d="M18,14h1V13H16v1h2Z"/><path class="bb228-9" d="M13,16h1V15h1v1h1V14H13v2Z"/><path class="bb228-9" d="M13,17V16H10v1h3Z"/><path class="bb228-9" d="M10,15V14H8v1H9v1h1Z"/><rect class="bb228-8" x="18" y="9" width="1" height="1"></rect></svg>