<svg xmlns="http://www.w3.org/2000/svg" viewBox="0 0 29 33"><defs><style>polygon,rect,path{shape-rendering:crispedges;}.da99-1{fill:#db5a8e;}.da99-2{fill:#000000;}.da99-3{fill:#ffffff;}.da99-4{fill:#e8b795;}.da99-5{fill:#875070;}.da99-6{fill:#ffffff;}.da99-7{fill:#893a1f;}.da99-8{fill:#72dd40;}</style></defs><path class="da99-1" d="M6,32V27H7V26H8V25h2V24h2V21H11V20H9V18H8V13H9V11h1V10h1V9h7v1h1v1h1v1h1v6H20v2H18v1H17v3h2v1h2v1h1v1h1v6h6V0H0V33H6Z"/><path class="da99-2" d="M23,27H22v3H21V27H20v6h1V31h1v2h1V27Z"/><rect class="da99-2" x="21" y="26" width="1" height="1"/><path class="da99-3" d="M21,28v2h1V27H21Z"/><path class="da99-4" d="M21,31v2h1V31Z"/><path class="da99-2" d="M20,26h1V25H19v1Z"/><path class="da99-3" d="M20,27h1V26H19V25H17v1H16v1H13V26H12V25H10v1H8v1H9v6H20V27Zm-9,2v3H10V28h1Zm4,3H12V28h3Zm4-3H17v2h1V30h1v2H16V28h3Z"/><rect class="da99-3" x="13" y="29" width="1" height="2"/><path class="da99-2" d="M18,25h1V24H17v1Z"/><rect class="da99-2" x="16" y="25" width="1" height="1"/><path class="da99-2" d="M13,26v1h3V26H13Z"/><path class="da99-2" d="M13,23h3v1h1V21H16v1H13V21H12v3h1Z"/><path class="da99-4" d="M13,25v1h3V25h1V24H16V23H13v1H12v1Z"/><rect class="da99-2" x="12" y="25" width="1" height="1"/><path class="da99-2" d="M12,24H10v1h2Z"/><path class="da99-2" d="M10,25H8v1h2Z"/><path class="da99-2" d="M9,27H8v3H7V27H6v6H7V31H8v2H9V27Z"/><rect class="da99-2" x="7" y="26" width="1" height="1"/><path class="da99-3" d="M7,30H8V27H7v3Z"/><path class="da99-4" d="M7,31v2H8V31Z"/><path class="da99-5" d="M12,32h3V28H12Zm1-3h1v2H13Z"/><path class="da99-5" d="M10,29v3h1V28H10Z"/><path class="da99-5" d="M16,28v4h3V30H18v1H17V29h2V28H16Z"/><rect class="da99-2" x="19" y="14" width="1" height="1"/><rect class="da99-4" x="12" y="12" width="1" height="1"/><rect class="da99-4" x="19" y="15" width="1" height="1"/><rect class="da99-4" x="11" y="13" width="1" height="1"/><rect class="da99-4" x="17" y="13" width="1" height="1"/><rect class="da99-4" x="17" y="11" width="1" height="1"/><rect class="da99-4" x="9" y="15" width="1" height="1"/><path class="da99-4" d="M13,22h3V21h1V20h1V19h1V18H18V15H16v1H15v1H14V16h1V14h1V12H15V11H14v4H13v2H12V15H11v3H10v1h1v1h1v1h1Zm1-3h1v1H14Z"/><path class="da99-2" d="M19,16v2h1V16Z"/><path class="da99-2" d="M18,19v1h1V19Z"/><rect class="da99-2" x="17" y="20" width="1" height="1"/><rect class="da99-2" x="11" y="20" width="1" height="1"/><path class="da99-2" d="M10,19v1h1V19Z"/><path class="da99-2" d="M10,17V16H9v2h1Z"/><rect class="da99-2" x="14" y="16" width="1" height="1"/><rect class="da99-6" x="12" y="14" width="1" height="1"/><path class="da99-2" d="M17,14H16v1h2V14Z"/><rect class="da99-2" x="11" y="14" width="1" height="1"/><rect class="da99-7" x="17" y="12" width="1" height="1"/><rect class="da99-7" x="12" y="13" width="1" height="1"/><rect class="da99-7" x="11" y="12" width="1" height="1"/><rect class="da99-2" x="14" y="19" width="1" height="1"/><path class="da99-8" d="M9,15h1v3h1V12h2v3h1V11h1v1h1v2h1V11h1v7h1V14h1v4h1V12H20V11H19V10H18V9H11v1H10v1H9v2H8v5H9V15Z"/><path class="da99-8" d="M19,19v1h1V18H19Z"/><path class="da99-8" d="M15,14v2h1V14Z"/><path class="da99-8" d="M12,16v1h1V15H12Z"/><path class="da99-8" d="M10,18H9v2h1V18Z"/></svg>