<svg xmlns="http://www.w3.org/2000/svg" viewBox="0 0 29 33"><defs><style>polygon,rect,path{shape-rendering:crispedges;}.cb247-1{fill:#e55b35;}.cb247-2{fill:#000000;}.cb247-3{fill:#8c7850;}.cb247-4{fill:#ffffff;}.cb247-5{fill:#e8b795;}.cb247-6{fill:#6c9302;}.cb247-7{fill:#6c9302;}.cb247-8{fill:#5a2de2;}</style></defs><path class="cb247-1" d="M0,33H6V27H7V26H8V25h2V24h1V23h1V22H11V21H10V20H9V16H8V15H9V10h1V9h1V8h7V9h1v1h1v5h1v1H20v4H19v1H18v1H17v1h1v1h1v1h1V24h1V23h1v1h1v9h6V0H0Z"/><path class="cb247-2" d="M7,27H6v6H7V27Z"/><rect class="cb247-2" x="7" y="26" width="1" height="1"/><path class="cb247-3" d="M8,27H7v6H8V27Z"/><path class="cb247-2" d="M9,27H8v6H9V27Z"/><path class="cb247-2" d="M10,25H8v1h2Z"/><path class="cb247-3" d="M12,29H11V25H10v1H8v1H9v6h3V29Z"/><path class="cb247-2" d="M11,26v3h1V26h1V25H12V24h1V23H11v1H10v1h1Z"/><rect class="cb247-4" x="12" y="24" width="1" height="1"/><path class="cb247-2" d="M13,29H12v4h1V29Z"/><rect class="cb247-4" x="13" y="23" width="1" height="1"/><path class="cb247-4" d="M16,29h1V26H16V25H13v1H12v3h1v4h1V32h1v1h1V29Zm-1,2H14V30h1Zm0-2H14V28h1Zm0-2H14V26h1Z"/><rect class="cb247-2" x="14" y="26" width="1" height="1"/><rect class="cb247-2" x="14" y="28" width="1" height="1"/><rect class="cb247-2" x="14" y="30" width="1" height="1"/><rect class="cb247-2" x="14" y="32" width="1" height="1"/><rect class="cb247-4" x="15" y="23" width="1" height="1"/><path class="cb247-2" d="M15,24V23H14v1H13v1h3V24Z"/><rect class="cb247-4" x="16" y="24" width="1" height="1"/><path class="cb247-2" d="M17,29H16v4h1V29Z"/><path class="cb247-2" d="M16,24h1v1H16v1h1v3h1V25h1V24H18V23H16Z"/><path class="cb247-3" d="M20,27H19V25H18v4H17v4h3V27Z"/><path class="cb247-2" d="M21,28V27H20v6h1V28Z"/><path class="cb247-4" d="M21,28h1V27H21Z"/><path class="cb247-3" d="M22,28H21v5h1V28Z"/><path class="cb247-2" d="M23,24H22v9h1V24Z"/><rect class="cb247-2" x="20" y="15" width="1" height="1"/><rect class="cb247-5" x="10" y="16" width="1" height="1"/><rect class="cb247-5" x="18" y="12" width="1" height="1"/><path class="cb247-5" d="M18,15H16V14H14v2h1v1H14V16H13v1H11v1h7V17h1V16h1V15H18Z"/><rect class="cb247-5" x="13" y="13" width="1" height="1"/><path class="cb247-5" d="M16,12h2V10H16v1H15v1H14v1h2Z"/><rect class="cb247-5" x="9" y="15" width="1" height="1"/><rect class="cb247-2" x="8" y="15" width="1" height="1"/><rect class="cb247-2" x="14" y="16" width="1" height="1"/><path class="cb247-4" d="M18,15h1V14H18Z"/><path class="cb247-4" d="M16,14v1h1V14Z"/><path class="cb247-2" d="M17,14v1h1V14Z"/><path class="cb247-6" d="M13,13H11v1h2Z"/><path class="cb247-6" d="M16,13v1h3V13H16Z"/><path class="cb247-7" d="M14,23h3V22h1V21h1V20h1V16H19v1H18v1H17v1H16v1H13V19H12V18H11V17H10V16H9v4h1v1h1v1h1v1h2Z"/><path class="cb247-2" d="M12,18v1h1v1h3V19h1V18H12Z"/><path class="cb247-5" d="M21,27h1V24H21v1H20v2Z"/><path class="cb247-2" d="M20,27V25H19v2Z"/><rect class="cb247-2" x="20" y="24" width="1" height="1"/><rect class="cb247-2" x="21" y="23" width="1" height="1"/><path class="cb247-8" d="M10,14H9v1h1Z"/><path class="cb247-8" d="M10,14h1V13h3V12h1V11h1V10h2v1h1V9H18V8H11V9H10v1H9v3h1Z"/><path class="cb247-8" d="M19,12v3h1V11H19Z"/><path class="cb247-2" d="M13,16h1V14H10v2h1v1h2Z"/><rect class="cb247-2" x="14" y="13" width="2" height="1"/><path class="cb247-2" d="M18,12H16v1h2Z"/><path class="cb247-2" d="M19,12V11H18v1Z"/><path class="cb247-2" d="M20,11V10H19v1Z"/><path class="cb247-2" d="M10,13H9v1h1Z"/></svg>