<svg xmlns="http://www.w3.org/2000/svg" viewBox="0 0 29 33"><defs><style>polygon,rect,path{shape-rendering:crispedges;}.ja171-1{fill:#31a09d;}.ja171-2{fill:#000000;}.ja171-3{fill:#ffb38d;}.ja171-4{fill:#db5800;}.ja171-5{fill:#ce8452;}.ja171-6{fill:#ffffff;}.ja171-7{fill:#7f5018;}.ja171-8{fill:#9b8100;}.ja171-9{fill:#990000;}</style></defs><path class="ja171-1" d="M0,33H6V27H7V26H8V25h2V24h2V21H10V20H9V16H8V15H9V10h1V9h1V8h7V9h1v1h1v5h1v1H20v4H19v1H17v3h2v1h2v1h1v1h1v6h6V0H0Z"/><path class="ja171-2" d="M23,27H22v6h1V27Z"/><rect class="ja171-2" x="21" y="26" width="1" height="1"/><path class="ja171-3" d="M21,28h1V27H21Z"/><path class="ja171-3" d="M21,31h1V30H21Z"/><path class="ja171-2" d="M21,30V27H20v6h1V30Z"/><path class="ja171-2" d="M20,26h1V25H19v1Z"/><path class="ja171-3" d="M9,27v1H20V27H9Z"/><path class="ja171-3" d="M17,25V24H12v1Z"/><path class="ja171-3" d="M9,31H20V30H9Z"/><path class="ja171-2" d="M18,25h1V24H17v1Z"/><path class="ja171-2" d="M13,23h3v1h1V21H16v1H13V21H12v3h1Z"/><path class="ja171-2" d="M12,24H10v1h2Z"/><path class="ja171-2" d="M10,25H8v1h2Z"/><path class="ja171-2" d="M9,30V27H8v6H9V30Z"/><rect class="ja171-2" x="7" y="26" width="1" height="1"/><path class="ja171-3" d="M8,28V27H7v1Z"/><path class="ja171-3" d="M7,31H8V30H7Z"/><path class="ja171-2" d="M7,30V27H6v6H7V30Z"/><path class="ja171-4" d="M9,31v2H20V31Z"/><path class="ja171-4" d="M9,29v1H20V28H9Z"/><path class="ja171-4" d="M9,27H21V26H19V25H10v1H8v1Z"/><path class="ja171-4" d="M15,23H13v1h3V23Z"/><path class="ja171-4" d="M7,29v1H8V28H7Z"/><path class="ja171-4" d="M7,31v2H8V31Z"/><path class="ja171-4" d="M21,31v2h1V31Z"/><path class="ja171-4" d="M21,29v1h1V28H21Z"/><rect class="ja171-2" x="20" y="15" width="1" height="1"/><path class="ja171-2" d="M19,15h1V14H19Z"/><path class="ja171-5" d="M10,14h2V13H10Z"/><path class="ja171-5" d="M13,22h3V21h1V20h1V18h1V16h1V15H16V14h2V13H16V12h2v1h1V11H18V10H17v1H14V10H13v1H12V10H11v1H10v1h2v1h1v2H9v1h1v2h1v2h1v1h1Zm1-6h1v1H14Zm-1,3h3V18h1v1H16v1H13Z"/><path class="ja171-2" d="M19,17h1V16H19Z"/><path class="ja171-2" d="M10,16H9v1h1Z"/><rect class="ja171-2" x="8" y="15" width="1" height="1"/><rect class="ja171-2" x="14" y="16" width="1" height="1"/><path class="ja171-6" d="M18,14v1h1V14Z"/><path class="ja171-6" d="M12,15h1V14H12Z"/><path class="ja171-2" d="M17,14H16v1h2V14Z"/><path class="ja171-2" d="M12,15V14H9v1h3Z"/><rect class="ja171-7" x="18" y="13" width="1" height="1"/><rect class="ja171-7" x="16" y="12" width="2" height="1"/><path class="ja171-7" d="M13,14V13H12v1Z"/><rect class="ja171-7" x="10" y="12" width="2" height="1"/><path class="ja171-8" d="M19,18H18v2H17v1h2V20h1V17H19Z"/><path class="ja171-8" d="M11,20V18H10V17H9v3h1v1h2V20Z"/><rect class="ja171-2" x="13" y="19" width="3" height="1"/><rect class="ja171-2" x="16" y="18" width="1" height="1"/><path class="ja171-9" d="M10,13V11h1V10h1v1h1V10h1v1h3V10h1v1h1v3h1V10H19V9H18V8H11V9H10v1H9v4h1Z"/></svg>