<svg xmlns="http://www.w3.org/2000/svg" viewBox="0 0 29 33"><defs><style>polygon,rect,path{shape-rendering:crispedges;}.xa290-1{fill:#d4a122;}.xa290-2{fill:#a7af69;}.xa290-3{fill:#000000;}.xa290-4{fill:#e8b795;}.xa290-5{fill:#473a35;}.xa290-6{fill:#825fff;}.xa290-7{fill:#fad000;}</style></defs><rect class="xa290-1" x="16" y="21" width="1"/><rect class="xa290-1" x="10" y="19" width="1"/><path class="xa290-1" d="M19,17v2h0V16h0Z"/><path class="xa290-1" d="M13,22Z"/><path class="xa290-1" d="M13,6h4V5H12V6Z"/><rect class="xa290-1" x="11" y="20" width="1"/><rect class="xa290-1" x="12" y="21" width="1"/><path class="xa290-1" d="M0,33H29V0H0ZM11,5h1V4h5V5h1V6H17V7H12V6H11ZM6,32V27H7V26H8V25h2V22h1V20H9V19H8V11H9V10h1V9h1V8h7V9h1v1h1v1h1v4h0v1h0v3H20v1H18v2h1v3h2v1h1v1h1v6H6Z"/><rect class="xa290-1" x="17" y="20" width="1"/><path class="xa290-2" d="M17,23v1H16v1H15v2H14v4h6V27h1V26H19V25H18V22H17Z"/><path class="xa290-2" d="M21,28v5h1V27H21Z"/><path class="xa290-2" d="M19,32H9v1H20V32Z"/><path class="xa290-2" d="M7,32v1H8V27H7v5Z"/><path class="xa290-2" d="M9,27v4h4V27h1V25H13V24H12V22H11v3H10v1H8v1Z"/><path class="xa290-3" d="M22,33h1V27H22v6Z"/><rect class="xa290-3" x="21" y="26" width="1" height="1"/><path class="xa290-3" d="M21,28V27H20v4H14V27H13v4H9V27H8v6H9V32H20v1h1V28Z"/><path class="xa290-3" d="M20,26h1V25H19v1Z"/><path class="xa290-3" d="M18,25h1V22H18v3Z"/><rect class="xa290-3" x="15" y="24" width="1" height="1"/><path class="xa290-3" d="M15,26V25H14v2h1Z"/><rect class="xa290-3" x="13" y="24" width="1" height="1"/><path class="xa290-4" d="M15,24h1V23H13v1h1v1h1Z"/><path class="xa290-3" d="M11,24V22H10v3h1Z"/><path class="xa290-3" d="M10,25H8v1h2Z"/><rect class="xa290-3" x="7" y="26" width="1" height="1"/><path class="xa290-3" d="M7,32V27H6v6H7Z"/><rect class="xa290-3" x="21" y="15" height="1"/><rect class="xa290-4" x="18" y="13" width="1" height="1"/><path class="xa290-4" d="M14,13h3V11H15V10H14v1H13v2Z"/><path class="xa290-4" d="M18,20V19h1V16h1V15H18v1H16V15H15V14H14v1H13v1H11V15H9v1h1v3h1v1h1v1h1v1h3V21h1V20h1Zm-4-4h1v1H14Zm2,4H13V19H12V18h1v1h3Z"/><path class="xa290-3" d="M20,18V16H19v3h1Z"/><path class="xa290-3" d="M18,19v1h1V19Z"/><path class="xa290-3" d="M12,23v1h1V23h3v1h1V22h1V20H17v1H16v1H13V21H12V20H11v2h1Z"/><path class="xa290-3" d="M11,19H10v1h1Z"/><path class="xa290-3" d="M10,19V16H9v3h1Z"/><rect class="xa290-3" x="14" y="16" width="1" height="1"/><path class="xa290-5" d="M13,12H12v1h1Z"/><rect class="xa290-3" x="13" y="19" width="3" height="1"/><rect class="xa290-3" x="12" y="18" width="1" height="1"/><path class="xa290-6" d="M9,16V14h2V13h1V12h1V11h1V10h1v1h2v2h2v1h1v5h1V11H20V10H19V9H18V8H11V9H10v1H9v1H8v8H9V16Z"/><path class="xa290-6" d="M9,19v1h1V19Z"/><path class="xa290-6" d="M19,20h1V19H19Z"/><path class="xa290-3" d="M11,16h2V15h1V14h1v1h1v1h2V15h2V14H18V13H11v1H9v1h2Z"/><rect class="xa290-7" x="17" y="5" width="1" height="1"/><path class="xa290-7" d="M13,6H12V7h5V6H13Z"/><path class="xa290-7" d="M17,5V4H12V5h5Z"/><rect class="xa290-7" x="11" y="5" width="1" height="1"/></svg>