<svg xmlns="http://www.w3.org/2000/svg" viewBox="0 0 29 33"><defs><style>polygon,rect,path{shape-rendering:crispedges;}.na115-1{fill:#6b4f99;}.na115-2{fill:#000000;}.na115-3{fill:#ffffff;}.na115-4{fill:#333333;}.na115-5{fill:#a56e49;}.na115-6{fill:#7eaa7e;}.na115-7{fill:#ffffff;}.na115-8{fill:#5e362f;}.na115-9{fill:#5e362f;}.na115-10{fill:#d8be00;}</style></defs><path class="na115-1" d="M0,33H6V27H7V26H8V25h2V24h2V21H11V20H10V19H9V16H8V15H9V13H8V9H9V8h1V7h1V6h7V7h1V8h1V9h1v4H20v2h1v1H20v3H19v1H18v1H17v3h2v1h2v1h1v1h1v6h6V0H0Z"/><path class="na115-2" d="M23,27H22v6h1V27Z"/><rect class="na115-2" x="21" y="26" width="1" height="1"/><path class="na115-3" d="M21,28h1V27H21Z"/><path class="na115-3" d="M21,31v1h1V30H21Z"/><path class="na115-2" d="M21,31V27H20v6h1V31Z"/><path class="na115-3" d="M18,26v2h1v1h1V27H19V25H18Z"/><path class="na115-3" d="M19,31V30H18v2h1v1h1V31Z"/><path class="na115-2" d="M20,26h1V25H19v1Z"/><path class="na115-2" d="M18,31V25h1V24H17v1H16v1h1v7h1V31Z"/><path class="na115-4" d="M17,26H16v1H13V26H12v7h5V26Z"/><path class="na115-2" d="M13,26v1h3V26H13Z"/><path class="na115-2" d="M13,23V22H12v2h1Z"/><path class="na115-5" d="M13,25v1h3V25h1V24H16V23H13v1H12v1Z"/><path class="na115-2" d="M12,26h1V25H12V24H10v1h1v8h1V26Z"/><path class="na115-3" d="M10,31V30H9v2h1v1h1V31Z"/><path class="na115-3" d="M10,26H9v2h1v1h1V27H10Z"/><path class="na115-2" d="M10,26V25H8v1h2Z"/><path class="na115-2" d="M9,31V27H8v6H9V31Z"/><rect class="na115-2" x="7" y="26" width="1" height="1"/><path class="na115-3" d="M8,29V27H7v2Z"/><path class="na115-3" d="M7,31v2H8V31Z"/><path class="na115-2" d="M7,30V27H6v6H7V30Z"/><path class="na115-6" d="M21,29v1h1V28H21Z"/><path class="na115-6" d="M21,32v1h1V32Z"/><path class="na115-6" d="M19,26v1h2V26H19Z"/><path class="na115-6" d="M19,28H18v2h1v1h1V29H19Z"/><path class="na115-6" d="M18,32v1h1V32Z"/><path class="na115-6" d="M10,27h1V25H10v2Z"/><path class="na115-6" d="M10,28H9v2h1v1h1V29H10Z"/><path class="na115-6" d="M9,32v1h1V32Z"/><path class="na115-6" d="M9,27V26H8v1Z"/><path class="na115-6" d="M7,30v1H8V29H7Z"/><rect class="na115-2" x="20" y="15" width="1" height="1"/><path class="na115-2" d="M19,15h1V14H19Z"/><path class="na115-5" d="M10,14h2V13H10Z"/><path class="na115-5" d="M13,21h3V20H13Z"/><rect class="na115-5" x="16" y="19" width="1" height="1"/><path class="na115-5" d="M10,17v1h1v1h1v1h1V19h3V18h1v1h1V18h1V16h1V15H16V14h2V13H16V12h2V11H11v1h1v1h1v2H9v1h1Zm4-1h1v1H14Z"/><rect class="na115-5" x="18" y="12" width="1" height="1"/><path class="na115-2" d="M16,23v1h1V22H16Z"/><path class="na115-2" d="M10,14H9v1h1Z"/><rect class="na115-2" x="8" y="15" width="1" height="1"/><rect class="na115-2" x="14" y="16" width="1" height="1"/><path class="na115-7" d="M12,15h1V14H12Z"/><path class="na115-7" d="M10,14v1h1V14Z"/><path class="na115-7" d="M18,14v1h1V14Z"/><path class="na115-7" d="M16,14v1h1V14Z"/><path class="na115-2" d="M11,14v1h1V14Z"/><path class="na115-2" d="M17,14v1h1V14Z"/><rect class="na115-8" x="18" y="13" width="1" height="1"/><rect class="na115-8" x="16" y="12" width="2" height="1"/><path class="na115-8" d="M13,14V13H12v1Z"/><path class="na115-8" d="M10,13h2V12H10Z"/><path class="na115-9" d="M13,23h3V22h1V21h1V20h1V19h1V16H19v2H18v1H17v1H16v1H13V20H12V19H11V18H10V16H9v3h1v1h1v1h1v1h1Z"/><rect class="na115-2" x="13" y="19" width="3" height="1"/><rect class="na115-2" x="16" y="18" width="1" height="1"/><path class="na115-10" d="M10,13V12h1V11h7v1h1v2h1V13h1V9H20V8H19V7H18V6H11V7H10V8H9V9H8v4H9v1h1Z"/></svg>