<svg xmlns="http://www.w3.org/2000/svg" viewBox="0 0 29 33"><defs><style>polygon,rect,path{shape-rendering:crispedges;}.ha72-1{fill:#d4a122;}.ha72-2{fill:#000000;}.ha72-3{fill:#5a2de2;}.ha72-4{fill:#ce8452;}.ha72-5{fill:#ffffff;}.ha72-6{fill:#663434;}.ha72-7{fill:#663434;}.ha72-8{fill:#c8a715;}.ha72-9{fill:#9b8100;}</style></defs><path class="ha72-1" d="M0,33H6V27H7V26H8V25h2V20H9V16H8V15H9V14H8V11H9V10h1V9h2V8h5V9h1v1h1v1h1v4h1v1H20v4H19v5h2v1h1v1h1v6h6V0H0Z"/><path class="ha72-1" d="M18,24V22H17v2Z"/><path class="ha72-1" d="M12,22H11v2h1V22Z"/><path class="ha72-2" d="M23,27H22v6h1V27Z"/><rect class="ha72-2" x="21" y="26" width="1" height="1"/><path class="ha72-3" d="M22,27H21v6h1V27Z"/><path class="ha72-2" d="M21,27H20v6h1V27Z"/><path class="ha72-2" d="M20,26h1V25H19v1Z"/><path class="ha72-3" d="M20,27h1V26H19V25H17v1H16v1H13V26H12V25H10v1H9v7H20V27Z"/><path class="ha72-2" d="M17,24v1h2V24H17Z"/><rect class="ha72-2" x="16" y="25" width="1" height="1"/><path class="ha72-2" d="M13,26v1h3V26H13Z"/><path class="ha72-4" d="M16,24V23H13v3h3V24Z"/><path class="ha72-2" d="M12,25v1h1V25Z"/><path class="ha72-2" d="M12,24H10v1h2Z"/><path class="ha72-2" d="M9,26h1V25H8v1H7v1H8v6H9V26Z"/><path class="ha72-3" d="M8,27H7v6H8V27Z"/><path class="ha72-2" d="M7,27H6v6H7V27Z"/><rect class="ha72-2" x="20" y="15" width="1" height="1"/><polygon class="ha72-4" points="13 21 14 21 14 22 15 22 15 21 16 21 16 20 13 20 13 21"/><path class="ha72-4" d="M10,17v1h1v1h1V18h2v1h1V18h2v1h1V18h1V16h1V15H16V14h3V13H16V12h3V11H18V10H14v1H12v1h1v1H10v1h3v1H9v1h1Zm4-1h1v1H14Z"/><path class="ha72-2" d="M19,17h1V16H19Z"/><path class="ha72-2" d="M10,16H9v1h1Z"/><rect class="ha72-2" x="8" y="15" width="1" height="1"/><rect class="ha72-2" x="14" y="16" width="1" height="1"/><path class="ha72-5" d="M13,15V14H12v1Z"/><path class="ha72-5" d="M11,15V14H10v1Z"/><path class="ha72-5" d="M18,14v1h1V14Z"/><path class="ha72-5" d="M16,14v1h1V14Z"/><path class="ha72-2" d="M12,15V14H11v1Z"/><path class="ha72-2" d="M17,14v1h1V14Z"/><path class="ha72-6" d="M11,13h2V12H11Z"/><rect class="ha72-6" x="16" y="12" width="3" height="1"/><path class="ha72-7" d="M12,22v1h5V22h2V20h1V17H19v1H18v1H16v2H15v1H14V21H13V19h1V18H12v1H11V18H10V17H9v3h1v2h2Z"/><path class="ha72-7" d="M15,18v1h1V18Z"/><path class="ha72-8" d="M18,23h1V22H18Z"/><path class="ha72-7" d="M18,24h1V23H18Z"/><path class="ha72-8" d="M17,24V23H16v1Z"/><path class="ha72-7" d="M16,24v1h1V24Z"/><path class="ha72-8" d="M13,23H12v1h1Z"/><path class="ha72-7" d="M13,24H12v1h1Z"/><path class="ha72-8" d="M11,22H10v1h1Z"/><path class="ha72-7" d="M11,23H10v1h1Z"/><path class="ha72-2" d="M14,19H13v1h3V19H14Z"/><path class="ha72-2" d="M16,18v1h1V18Z"/><path class="ha72-9" d="M19,13v2h1V11H19v2Z"/><rect class="ha72-9" x="18" y="10" width="1" height="1"/><path class="ha72-9" d="M10,14V13h1V12h1V11h2V10h4V9H17V8H12V9H10v1H9v1H8v3H9v1h1Z"/></svg>