<svg xmlns="http://www.w3.org/2000/svg" viewBox="0 0 29 33"><defs><style>polygon,rect,path{shape-rendering:crispedges;}.ra23-1{fill:#d14646;}.ra23-2{fill:#000000;}.ra23-3{fill:#0068ff;}.ra23-4{fill:#e8b795;}.ra23-5{fill:#ffffff;}.ra23-6{fill:#ffffff;}.ra23-7{fill:#663228;}.ra23-8{fill:#00af68;}.ra23-9{fill:#6d5800;}.ra23-10{fill:#fad000;}.ra23-11{fill:#ea1500;}</style></defs><path class="ra23-1" d="M6,32V27H7V26H8V25h2V24h1V23H10V22H9V21H8V20H9V17H8V12H9V10h1V9h1V8h7V9h1v1h1v2h1v6H20v2h1V19h1v1h1V18h1V17h3v5H26v1H25v1H24v7H23v1H21v1h8V0H0V33H6Z"/><rect class="ra23-1" x="10" y="21" width="1" height="1"/><path class="ra23-1" d="M21,22V21H20v1H19v1H18v1h1v1h2V23h1V22Z"/><rect class="ra23-1" x="18" y="21" width="1" height="1"/><path class="ra23-2" d="M23,25v6h1V24H23Z"/><path class="ra23-2" d="M7,27H6v6H7V27Z"/><path class="ra23-3" d="M8,27H7v6H8V27Z"/><rect class="ra23-2" x="7" y="26" width="1" height="1"/><path class="ra23-2" d="M9,31V27H8v6H9V31Z"/><path class="ra23-3" d="M9,27v2h1V28h1v1h1V25h1V24H11v1H10v1H8v1Z"/><path class="ra23-3" d="M18,24H16v1h1v4h1V28h1v1h1V27h1V26H19V25H18Z"/><rect class="ra23-3" x="10" y="29" width="1" height="1"/><path class="ra23-3" d="M19,32V31H18v1H17V30H16v1H15v1H13V30H12v2H11V31H10v1H9v1H20V32Z"/><rect class="ra23-3" x="18" y="29" width="1" height="1"/><path class="ra23-2" d="M10,25H8v1h2Z"/><rect class="ra23-2" x="10" y="24" width="1" height="1"/><rect class="ra23-2" x="10" y="22" width="1" height="1"/><rect class="ra23-3" x="11" y="22" width="1" height="1"/><path class="ra23-2" d="M13,23h3v1h2V23H17V22h1V20H17v1H16v1H13V21H12V20H11v2h1v1H11v1h2Z"/><path class="ra23-2" d="M16,25V24H13v1h3Z"/><path class="ra23-4" d="M16,24V23H13v1h3Z"/><rect class="ra23-3" x="17" y="22" width="1" height="1"/><rect class="ra23-2" x="18" y="24" width="1" height="1"/><rect class="ra23-2" x="18" y="22" width="1" height="1"/><path class="ra23-2" d="M22,32h1V31H22V23H21v2H19v1h2v1H20v6h1V32Z"/><path class="ra23-3" d="M23,25V24H22v7h1V25Z"/><path class="ra23-3" d="M13,28h2v1h1V25H13v3Z"/><path class="ra23-3" d="M14,29v2h1V29Z"/><path class="ra23-5" d="M19,30H18V29H17v3h1V31h1v1h1V29H19Z"/><rect class="ra23-5" x="18" y="28" width="1" height="1"/><path class="ra23-5" d="M15,29v2h1V29Z"/><path class="ra23-5" d="M14,30V29h1V28H13v4h2V31H14Z"/><path class="ra23-5" d="M11,29v1H10V29H9v3h1V31h1v1h1V29Z"/><rect class="ra23-5" x="10" y="28" width="1" height="1"/><path class="ra23-2" d="M13,27V25H12v5h1V27Z"/><path class="ra23-2" d="M17,28V25H16v5h1V28Z"/><path class="ra23-4" d="M19,19V16h1V15H16V14H14v2h1v1H14V16H13v1H11V16H10v3h1v1h1v1h1v1h3V21h1V20h1V19Zm-3,1H13V19H12V18h1v1h3Z"/><path class="ra23-4" d="M17,14h2V13H17Z"/><path class="ra23-4" d="M14,13h2V12h1V11H16V10H15v1H14v1H13v1H12v1h2Z"/><path class="ra23-2" d="M19,16v3h1V16Z"/><rect class="ra23-2" x="18" y="19" width="1" height="1"/><rect class="ra23-2" x="10" y="19" width="1" height="1"/><path class="ra23-2" d="M10,18H9v1h1Z"/><rect class="ra23-2" x="14" y="16" width="1" height="1"/><path class="ra23-6" d="M16,14v1h1V14Z"/><path class="ra23-2" d="M17,15h2V14H17Z"/><rect class="ra23-7" x="16" y="13" width="1" height="1"/><rect class="ra23-2" x="13" y="19" width="3" height="1"/><rect class="ra23-2" x="12" y="18" width="1" height="1"/><path class="ra23-8" d="M19,20H18v1h1v1h1V21h1V20H20V19H19Z"/><path class="ra23-8" d="M11,21V20H10V19H9v1H8v1H9v1h1V21Z"/><path class="ra23-8" d="M19,12H18v1h1v2h1v3h1V12H20V11H19Z"/><path class="ra23-8" d="M10,17V14H9V13h1v1h2V13h1V12h1V11h1V10h1v1h1v1h1V11h1V9H18V8H11V9H10v1H9v2H8v5H9v1h1Z"/><path class="ra23-2" d="M11,17h2V16h1V14H10v2h1Z"/><rect class="ra23-2" x="14" y="13" width="2" height="1"/><path class="ra23-2" d="M16,13h2V12H16Z"/><rect class="ra23-2" x="18" y="11" width="1" height="1"/><path class="ra23-2" d="M20,11V10H19v1Z"/><rect class="ra23-2" x="9" y="13" width="1" height="1"/><rect class="ra23-9" x="21" y="21" width="1" height="1"/><path class="ra23-10" d="M22,21v1h2V21h1v1H24v1h2V22h1V20H25V19H24V18H23v2H22V19H21v2Z"/><path class="ra23-4" d="M23,23H22v1h2V23Z"/><path class="ra23-9" d="M24,23V22H22v1h2Z"/><path class="ra23-2" d="M24,24h1V23H24Z"/><rect class="ra23-9" x="24" y="21" width="1" height="1"/><rect class="ra23-2" x="24" y="18" width="1" height="1"/><path class="ra23-11" d="M25,19v1h2V19H25Z"/><path class="ra23-10" d="M25,19h1V18h1V17H24v1h1Z"/><path class="ra23-2" d="M26,19h1V18H26Z"/></svg>