<svg xmlns="http://www.w3.org/2000/svg" viewBox="0 0 29 33"><defs><style>polygon,rect,path{shape-rendering:crispedges;}.hb186-1{fill:#b4bd09;}.hb186-2{fill:#e8b795;}.hb186-3{fill:#000000;}.hb186-4{fill:#ffffff;}.hb186-5{fill:#e2e2e2;}.hb186-6{fill:#e2e2e2;}.hb186-7{fill:#00e070;}.hb186-8{fill:#c10f7e;}</style></defs><path class="hb186-1" d="M0,33H6V27H7V26H8V25h2V24h2V21H11V20H10V19H9V16H8V15H9V11h1V10h1V9h7v1h1v1h1v4h1v1H20v3H19v1H18v1H17v3h2v1h1V23H19V21h2v4h1v1h1v7h6V0H0Z"/><path class="hb186-2" d="M22,26H19V25H17V24H16V23H13v1H12v1H10v1H8v1H9v6h5V29h1v4h5V27h1v6h1V26ZM12,29H11V28h1Zm6,0H17V28h1Z"/><path class="hb186-3" d="M23,26H22v7h1V26Z"/><path class="hb186-3" d="M7,27H6v6H7V27Z"/><path class="hb186-2" d="M8,27H7v6H8V27Z"/><rect class="hb186-3" x="7" y="26" width="1" height="1"/><path class="hb186-3" d="M9,27H8v6H9V27Z"/><path class="hb186-3" d="M10,25H8v1h2Z"/><rect class="hb186-3" x="11" y="28" width="1" height="1"/><path class="hb186-3" d="M12,24H10v1h2Z"/><path class="hb186-3" d="M13,23h3v1h1V21H16v1H13V21H12v3h1Z"/><path class="hb186-3" d="M15,29H14v4h1V29Z"/><rect class="hb186-3" x="17" y="28" width="1" height="1"/><path class="hb186-3" d="M18,25h1V24H17v1Z"/><path class="hb186-3" d="M21,28H20v5h1V28Z"/><path class="hb186-3" d="M20,26V25H19v1Z"/><rect class="hb186-3" x="20" y="15" width="1" height="1"/><path class="hb186-3" d="M19,13v1H17v1h3V12H19Z"/><path class="hb186-2" d="M18,14h1V13H17v1Z"/><rect class="hb186-2" x="18" y="11" width="1" height="1"/><path class="hb186-2" d="M10,13h1V11H10v2Z"/><rect class="hb186-2" x="11" y="10" width="1" height="1"/><path class="hb186-2" d="M13,20v2h3V20Z"/><path class="hb186-2" d="M12,19V18h5v2h1V19h1V16h1V15H16V13h1V11H16V10H13v1H12v1h1v1H11v1h2v1H9v1h1v3h1v1h1Zm2-3h1v1H14Z"/><rect class="hb186-2" x="17" y="10" width="1" height="1"/><path class="hb186-3" d="M19,17v2h1V16H19Z"/><rect class="hb186-3" x="18" y="19" width="1" height="1"/><rect class="hb186-3" x="17" y="20" width="1" height="1"/><rect class="hb186-3" x="11" y="20" width="1" height="1"/><rect class="hb186-3" x="10" y="19" width="1" height="1"/><path class="hb186-3" d="M10,14V12H9v3h1Z"/><path class="hb186-3" d="M10,16H9v3h1V16Z"/><rect class="hb186-3" x="8" y="15" width="1" height="1"/><rect class="hb186-3" x="14" y="16" width="1" height="1"/><path class="hb186-4" d="M10,15h1V14H10Z"/><path class="hb186-4" d="M16,14v1h1V14Z"/><path class="hb186-3" d="M12,15h1V14H11v1Z"/><path class="hb186-5" d="M10,14h1V13H10Z"/><path class="hb186-5" d="M11,13h2V12H11Z"/><path class="hb186-5" d="M17,13H16v1h1Z"/><path class="hb186-5" d="M19,12H17v1h2Z"/><path class="hb186-6" d="M17,19V18H13v1h3v2h1V19Z"/><path class="hb186-6" d="M13,20V19H12v2h1Z"/><path class="hb186-3" d="M16,19H13v1h3Z"/><path class="hb186-3" d="M12,18v1h1V18Z"/><path class="hb186-7" d="M20,12V11H19v1Z"/><rect class="hb186-7" x="18" y="10" width="1" height="1"/><path class="hb186-7" d="M12,11h1V10h3v1h1V10h1V9H11v1h1Z"/><path class="hb186-7" d="M18,11H17v1h1Z"/><path class="hb186-7" d="M11,12h1V11H11Z"/><rect class="hb186-7" x="10" y="10" width="1" height="1"/><path class="hb186-7" d="M10,11H9v1h1Z"/><path class="hb186-8" d="M21,26V21H20v5Z"/><path class="hb186-4" d="M19,21v2h1V21Z"/><path class="hb186-8" d="M21,27H20v1h1Z"/><path class="hb186-3" d="M22,26V25H21v1Z"/></svg>