<svg xmlns="http://www.w3.org/2000/svg" viewBox="0 0 29 33"><defs><style>polygon,rect,path{shape-rendering:crispedges;}.la196-1{fill:#db5a8e;}.la196-2{fill:#000000;}.la196-3{fill:#590035;}.la196-4{fill:#d8be00;}.la196-5{fill:#e8b795;}.la196-6{fill:#ffffff;}.la196-7{fill:#000000;}.la196-8{fill:#fad000;}.la196-9{fill:#72dd40;}</style></defs><path class="la196-1" d="M0,33H6V27H7V26H8V25h2V23h1V22h1V21H11V20H10V19H9V16H8V15H9V10h1V9h1V8h7V9h1v1h1v2h1v6H20v1H19v1H18v1H17v1h1v1h1v2h2v1h1v1h1v6h6V0H0Z"/><path class="la196-2" d="M23,27H22v6h1V27Z"/><rect class="la196-2" x="21" y="26" width="1" height="1"/><path class="la196-3" d="M21,32v1h1V32Z"/><path class="la196-3" d="M21,28h1V27H21Z"/><path class="la196-3" d="M21,30v1h1V29H21Z"/><path class="la196-2" d="M21,31V27H20v6h1V31Z"/><path class="la196-2" d="M20,26h1V25H19v1Z"/><path class="la196-3" d="M19,32v1h1V32Z"/><path class="la196-3" d="M17,32V31h1V30h1v1h1V29H19V28h1V27h1V26H19v1H18V26H17v2h1v1H17v1H16V29H15v2h1v1H15v1h3V32Z"/><path class="la196-3" d="M13,32V31h1V29H13v1H12V29H11V28h1V26H11v1H10V26H8v1H9v1h1v1H9v2h1V30h1v1h1v1H11v1h3V32Z"/><path class="la196-3" d="M14,24h1v1h1V23H13v2h1Z"/><rect class="la196-3" x="9" y="32" width="1" height="1"/><path class="la196-2" d="M10,25H8v1h2Z"/><path class="la196-2" d="M9,31V27H8v6H9V31Z"/><rect class="la196-2" x="7" y="26" width="1" height="1"/><path class="la196-3" d="M8,28V27H7v1Z"/><path class="la196-3" d="M7,30v1H8V29H7Z"/><path class="la196-3" d="M7,32v1H8V32Z"/><path class="la196-2" d="M7,31V27H6v6H7V31Z"/><path class="la196-4" d="M12,32V31H11V30H10v1H9v1h1v1h1V32Z"/><path class="la196-4" d="M12,27v1H11v1h1v1h1V27Z"/><path class="la196-4" d="M10,27h1V25H10v2Z"/><path class="la196-4" d="M16,28v2h1V29h1V28H17V27H16Z"/><polygon class="la196-4" points="18 26 18 27 19 27 19 26 19 25 18 25 18 26"/><path class="la196-4" d="M7,29H8V28H7Z"/><path class="la196-4" d="M10,29V28H9v1Z"/><path class="la196-4" d="M21,29h1V28H21Z"/><path class="la196-4" d="M19,29h1V28H19Z"/><path class="la196-4" d="M21,32h1V31H21Z"/><path class="la196-4" d="M7,32H8V31H7Z"/><path class="la196-4" d="M16,32V31H15V30H14v1H13v1h1v1h1V32Z"/><path class="la196-4" d="M20,32V31H19V30H18v1H17v1h1v1h1V32Z"/><path class="la196-5" d="M13,22h3V21h1V20h1V19h1V16h1V15H16V14h2V13H16V12H15V11H13V10H11v1H10v1h2v1h1v2H9v1h1v3h1v1h1v1h1Zm1-6h1v1H14Zm-1,3h3V18h1v1H16v1H13Z"/><path class="la196-5" d="M10,14h2V13H10Z"/><path class="la196-2" d="M19,16v3h1V16Z"/><rect class="la196-2" x="18" y="19" width="1" height="1"/><rect class="la196-2" x="17" y="20" width="1" height="1"/><rect class="la196-2" x="11" y="20" width="1" height="1"/><rect class="la196-2" x="10" y="19" width="1" height="1"/><path class="la196-2" d="M10,16H9v3h1V16Z"/><rect class="la196-2" x="8" y="15" width="1" height="1"/><rect class="la196-2" x="14" y="16" width="1" height="1"/><path class="la196-6" d="M18,14v1h1V14Z"/><path class="la196-6" d="M12,15h1V14H12Z"/><path class="la196-2" d="M17,14H16v1h2V14Z"/><path class="la196-2" d="M11,14H10v1h2V14Z"/><path class="la196-7" d="M13,14V13H12v1Z"/><rect class="la196-7" x="10" y="12" width="2" height="1"/><path class="la196-2" d="M14,30h1V29H14Z"/><path class="la196-2" d="M13,26H12v1h1Z"/><path class="la196-2" d="M16,27H15v2h1V27Z"/><path class="la196-2" d="M16,27h1V26H16Z"/><path class="la196-2" d="M13,27v2h1V27Z"/><rect class="la196-2" x="17" y="25" width="1" height="1"/><path class="la196-2" d="M11,25v1h1V25Z"/><rect class="la196-2" x="14" y="24" width="1" height="1"/><rect class="la196-2" x="13" y="25" width="1" height="1"/><rect class="la196-2" x="15" y="25" width="1" height="1"/><path class="la196-2" d="M12,24v1h1V23h3v2h1V23h1V22H17V21H16v1H13V21H12v1H11v1h1Z"/><rect class="la196-8" x="16" y="25" width="1" height="1"/><path class="la196-8" d="M16,27V26H15V25H14v1H13v1h1v2h1V27Z"/><rect class="la196-8" x="12" y="25" width="1" height="1"/><path class="la196-8" d="M11,25h1V23H11v2Z"/><path class="la196-8" d="M17,24v1h1V23H17Z"/><path class="la196-2" d="M19,25V23H18v2Z"/><path class="la196-2" d="M11,24V23H10v2h1Z"/><rect class="la196-2" x="13" y="19" width="3" height="1"/><rect class="la196-2" x="16" y="18" width="1" height="1"/><path class="la196-9" d="M10,14V11h1V10h2v1h2v1h1v1h2v1h1v1h1v3h1V12H20V10H19V9H18V8H11V9H10v1H9v5h1Z"/></svg>