<svg xmlns="http://www.w3.org/2000/svg" viewBox="0 0 29 33"><defs><style>polygon,rect,path{shape-rendering:crispedges;}.aa142-1{fill:#d14646;}.aa142-2{fill:#000000;}.aa142-3{fill:#e8b795;}.aa142-4{fill:#c6e5e4;}.aa142-5{fill:#508e91;}.aa142-6{fill:#ffffff;}.aa142-7{fill:#ff1d99;}.aa142-8{fill:#ff1d99;}.aa142-9{fill:#c6e5e4;}</style></defs><path class="aa142-1" d="M6,32V27H7V26H8V25h2V24h2V21H11V20H10V19H9V16H8V15H9V10h1V9h1V8h7V9h1v1h1v5h1v1H20v3H19v1H18v1H17v3h2v1h2v1h1v1h1v6h6V0H0V33H6Z"/><path class="aa142-2" d="M23,31V27H22v6h1Z"/><rect class="aa142-2" x="21" y="26" width="1" height="1"/><path class="aa142-3" d="M22,31V27H21v6h1Z"/><rect class="aa142-3" x="20" y="26" width="1" height="1"/><path class="aa142-2" d="M21,31V27H20v6h1Z"/><path class="aa142-2" d="M20,26h1V25H19v1Z"/><rect class="aa142-4" x="16" y="30" width="1" height="1"/><path class="aa142-4" d="M20,31V26H19V25H18v1H17v1H16v1h1v1h1v1h1v3h1Z"/><path class="aa142-4" d="M16,32H12v1h5V32Z"/><rect class="aa142-4" x="12" y="30" width="1" height="1"/><path class="aa142-4" d="M10,31V30h1V29h1V28h1V27H12V26H11V25H10v1H9v7h1Z"/><path class="aa142-2" d="M17,26h1V25h1V24H17Z"/><rect class="aa142-2" x="16" y="26" width="1" height="1"/><path class="aa142-2" d="M14,27H13v1h3V27Z"/><path class="aa142-2" d="M13,23h3v1h1V21H16v1H13V21H12v3h1Z"/><path class="aa142-3" d="M12,26h1v1h3V26h1V24H16V23H13v1H12Z"/><rect class="aa142-2" x="12" y="26" width="1" height="1"/><path class="aa142-2" d="M11,26h1V24H10v1h1Z"/><path class="aa142-2" d="M10,26V25H8v1Z"/><rect class="aa142-3" x="8" y="26" width="1" height="1"/><path class="aa142-2" d="M9,31V27H8v6H9Z"/><rect class="aa142-2" x="7" y="26" width="1" height="1"/><path class="aa142-3" d="M8,31V27H7v6H8Z"/><path class="aa142-2" d="M7,31V27H6v6H7Z"/><path class="aa142-5" d="M19,31V30H18V29H17V28H12v1H11v1H10v3h2V32h5v1h2Zm-6,0H12V30h1Zm4,0H16V30h1Z"/><rect class="aa142-2" x="20" y="15" width="1" height="1"/><path class="aa142-3" d="M12,19V18h5v2h1V19h1V16h1V15H16V13h3V11H18V10H16v1H15v1H14v2H13v3H12V16H11V15H9v1h1v3h1v1h1Zm2-3h1v1H14Z"/><path class="aa142-3" d="M13,20v2h3V20Z"/><path class="aa142-2" d="M19,17v2h1V16H19Z"/><rect class="aa142-2" x="18" y="19" width="1" height="1"/><rect class="aa142-2" x="17" y="20" width="1" height="1"/><rect class="aa142-2" x="11" y="20" width="1" height="1"/><rect class="aa142-2" x="10" y="19" width="1" height="1"/><rect class="aa142-2" x="9" y="14" width="1" height="1"/><path class="aa142-2" d="M10,17V16H9v3h1Z"/><rect class="aa142-2" x="8" y="15" width="1" height="1"/><rect class="aa142-2" x="14" y="16" width="1" height="1"/><rect class="aa142-6" x="16" y="14" width="1" height="1"/><path class="aa142-2" d="M18,14H17v1h2V14Z"/><path class="aa142-7" d="M18,14h1V13H16v1Z"/><path class="aa142-8" d="M13,20V19H12v2h1Z"/><path class="aa142-8" d="M17,19V18H13v1h3v2h1Z"/><path class="aa142-2" d="M16,19H13v1h3Z"/><rect class="aa142-2" x="12" y="18" width="1" height="1"/><path class="aa142-9" d="M10,15h1v1h1v1h1V14h1V12h1V11h1V10h2v1h1v4h1V10H19V9H18V8H11V9H10v1H9v4h1Z"/></svg>