<svg xmlns="http://www.w3.org/2000/svg" viewBox="0 0 29 33"><defs><style>polygon,rect,path{shape-rendering:crispedges;}.pa37-1{fill:#d14646;}.pa37-2{fill:#000000;}.pa37-3{fill:#00774c;}.pa37-4{fill:#e8b795;}.pa37-5{fill:#473a35;}.pa37-6{fill:#473a35;}.pa37-7{fill:#8e9350;}.pa37-8{fill:#0068ff;}.pa37-9{fill:#45ba00;}</style></defs><rect class="pa37-1" x="10" y="20" width="1" height="1"/><path class="pa37-1" d="M0,33H6V27H5V26H6V25H5V24H4V21H5V20H6V19H9V16H8V15H9V11h1V10h1V9h2V7h1V5h1V6h1V8h1V9h1v1h1v1h1v4h1v1H20v3H19v1H18v2h1v1H18v1h1v1h2v1h1v1h1v6h6V0H0Z"/><rect class="pa37-1" x="9" y="19" width="1" height="1"/><path class="pa37-2" d="M23,27H22v6h1V27Z"/><path class="pa37-3" d="M22,27H21v6h1V27Z"/><rect class="pa37-2" x="21" y="26" width="1" height="1"/><path class="pa37-2" d="M21,27H20v6h1V27Z"/><path class="pa37-3" d="M20,27h1V26H19V25H18V24H16v1h1v5H16V25H13v5H12V25h1V24H11v1H10v2H9v6H20V27Z"/><path class="pa37-2" d="M20,26h1V25H19v1Z"/><rect class="pa37-2" x="18" y="24" width="1" height="1"/><rect class="pa37-2" x="18" y="22" width="1" height="1"/><rect class="pa37-3" x="17" y="22" width="1" height="1"/><path class="pa37-2" d="M13,24v1h3V24H13Z"/><path class="pa37-4" d="M15,23H13v1h3V23Z"/><rect class="pa37-3" x="11" y="22" width="1" height="1"/><rect class="pa37-2" x="10" y="24" width="1" height="1"/><path class="pa37-2" d="M9,27H8v6H9V27Z"/><path class="pa37-2" d="M9,26v1h1V25H9Z"/><path class="pa37-3" d="M8,28H7v5H8V28Z"/><path class="pa37-2" d="M7,28V27H6v6H7V28Z"/><path class="pa37-2" d="M12,26v4h1V25H12Z"/><path class="pa37-2" d="M16,30h1V25H16v5Z"/><rect class="pa37-2" x="20" y="15" width="1" height="1"/><rect class="pa37-4" x="19" y="15" width="1" height="1"/><path class="pa37-4" d="M19,16H18v1H16V16H15v1H14V16H13v1H11V16H10v3h1v1h1v1h1v1h3V21h1V20h1V19h1V16Zm-2,3H16v1H13V19H12V18h5Z"/><path class="pa37-4" d="M10,13v1h2V13Z"/><path class="pa37-4" d="M12,12v1h1v1h5V13H16V12h2v1h1V11H18V10H14v1H13V10H11v1H10v1Z"/><rect class="pa37-4" x="14" y="15" width="1" height="1"/><rect class="pa37-4" x="9" y="15" width="1" height="1"/><path class="pa37-2" d="M19,17v2h1V16H19Z"/><rect class="pa37-2" x="18" y="10" width="1" height="1"/><rect class="pa37-2" x="18" y="19" width="1" height="1"/><path class="pa37-2" d="M17,21H16v1H13V21H12V20H11v2h1v1H11v1h2V23h3v1h2V23H17V22h1V20H17Z"/><path class="pa37-2" d="M13,9H11v1h2Z"/><path class="pa37-2" d="M15,10h3V9H15Z"/><rect class="pa37-2" x="10" y="10" width="1" height="1"/><rect class="pa37-2" x="10" y="19" width="1" height="1"/><path class="pa37-2" d="M10,18V16H9v3h1Z"/><rect class="pa37-2" x="8" y="15" width="1" height="1"/><rect class="pa37-2" x="14" y="16" width="1" height="1"/><rect class="pa37-5" x="18" y="13" width="1" height="1"/><rect class="pa37-5" x="16" y="12" width="2" height="1"/><rect class="pa37-5" x="12" y="13" width="1" height="1"/><rect class="pa37-5" x="10" y="12" width="2" height="1"/><path class="pa37-6" d="M12,18v1h4V18Z"/><path class="pa37-2" d="M13,20h3V19H13Z"/><path class="pa37-2" d="M16,19h1V18H16Z"/><path class="pa37-7" d="M13,11h1V10h1V9h2V8H16V6H15V5H14V7H13v4Z"/><path class="pa37-2" d="M10,16h1v1h2V16h1V15h1v1h1v1h2V16h1V15h1V11H19v3H10V11H9v4h1Z"/><path class="pa37-4" d="M7,28H8V27H9V26H6v1H7Z"/><rect class="pa37-2" x="5" y="26" width="1" height="1"/><path class="pa37-8" d="M7,20v1H9V19H8v1Z"/><path class="pa37-8" d="M5,23H6V21H4v1H5Z"/><path class="pa37-8" d="M7,26H8V25H9V23h2V21H9v1H8v2H6v1H7Z"/><path class="pa37-9" d="M7,24H8V22H9V21H7V20H8V19H6v1H5v1H6v2H5v2H6V24Z"/><path class="pa37-9" d="M10,23H9v2h1V24h1V23Z"/><path class="pa37-9" d="M8,25v1H9V25Z"/><path class="pa37-8" d="M4,23v1H5V23Z"/><path class="pa37-9" d="M9,20v1h1V20Z"/><path class="pa37-9" d="M7,25H6v1H7Z"/><path class="pa37-9" d="M5,22H4v1H5Z"/></svg>