<svg xmlns="http://www.w3.org/2000/svg" viewBox="0 0 29 33"><defs><style>polygon,rect,path{shape-rendering:crispedges;}.na54-1{fill:#7a982c;}.na54-2{fill:#000000;}.na54-3{fill:#10bcff;}.na54-4{fill:#9e6969;}.na54-5{fill:#b2622b;}.na54-6{fill:#ffffff;}.na54-7{fill:#ffffff;}.na54-8{fill:#5e362f;}.na54-9{fill:#5e362f;}.na54-10{fill:#db5800;}</style></defs><rect class="na54-1" x="14" y="16" width="1"/><rect class="na54-1" x="18" y="19" width="1"/><rect class="na54-1" x="9" y="16" width="1"/><rect class="na54-1" x="19" y="16" width="1"/><rect class="na54-1" x="10" y="19" width="1"/><path class="na54-1" d="M6,27H7V26H8V25h2V24h2V21H11V20H10V19H9V16H8V15H9V13H8V9H9V8h1V7h1V6h7V7h1V8h1V9h1v4H20v2h1v1H20v3H19v1H18v1H17v3h2v1h2v1h1v1h1v6h6V0H0V33H6V27Z"/><path class="na54-2" d="M23,27H22v6h1V27Z"/><rect class="na54-2" x="21" y="26" width="1" height="1"/><path class="na54-3" d="M21,30v1h1V29H21Z"/><path class="na54-3" d="M21,32v1h1V32Z"/><path class="na54-3" d="M21,28h1V27H21Z"/><path class="na54-2" d="M21,31V27H20v6h1V31Z"/><path class="na54-3" d="M19,32v1h1V32Z"/><path class="na54-3" d="M19,26v1H18v3h1v1h1V29H19V28h1V27h1V26H19Z"/><path class="na54-2" d="M20,26h1V25H19v1Z"/><path class="na54-2" d="M18,30V25h1V24H17v1H16v1h1v7h1V30Z"/><path class="na54-4" d="M17,26H16v1H13V26H12v7h5V26Z"/><path class="na54-2" d="M13,26v1h3V26H13Z"/><path class="na54-2" d="M13,23h3v1h1V21H16v1H13V21H12v3h1Z"/><path class="na54-5" d="M13,25v1h3V25h1V24H16V23H13v1H12v1Z"/><path class="na54-2" d="M12,26h1V25H12V24H10v1h1v8h1V26Z"/><path class="na54-3" d="M9,27v1h1v1H9v2h1V30h1V27H10V26H8v1Z"/><rect class="na54-3" x="9" y="32" width="1" height="1"/><path class="na54-2" d="M10,25H8v1h2Z"/><path class="na54-2" d="M9,31V27H8v6H9V31Z"/><rect class="na54-2" x="7" y="26" width="1" height="1"/><path class="na54-3" d="M8,30V29H7v2H8Z"/><path class="na54-3" d="M8,27H7v1H8Z"/><path class="na54-3" d="M7,32v1H8V32Z"/><path class="na54-2" d="M7,32V27H6v6H7Z"/><path class="na54-6" d="M11,30H10v1H9v1h1v1h1V30Z"/><path class="na54-6" d="M10,27h1V25H10v2Z"/><path class="na54-6" d="M18,26v1h1V25H18Z"/><path class="na54-6" d="M8,28H7v1H8Z"/><path class="na54-6" d="M10,28H9v1h1Z"/><path class="na54-6" d="M21,29h1V28H21Z"/><path class="na54-6" d="M19,29h1V28H19Z"/><path class="na54-6" d="M21,32h1V31H21Z"/><path class="na54-6" d="M8,31H7v1H8Z"/><path class="na54-6" d="M20,32V31H19V30H18v3h1V32Z"/><polygon class="na54-2" points="20 16 21 16 21 15 20 15 20 16 20 16"/><path class="na54-5" d="M12,19V18h5v2h1V19h1V16H16V15H15V14H14v1H13v1H10v3h1v1h1Zm2-2V16h1v1H14Z"/><polygon class="na54-5" points="19 16 20 16 20 15 20 15 19 15 19 16"/><rect class="na54-5" x="10" y="13" width="1" height="1"/><path class="na54-5" d="M13,20v2h3V20Z"/><path class="na54-5" d="M19,13V12H18V11H11v1h1v1h4V12h2v1h1Z"/><polygon class="na54-5" points="10 16 10 15 9 15 9 15 9 16 10 16"/><path class="na54-2" d="M19,17v2h1V16H19Z"/><polygon class="na54-2" points="18 20 19 20 19 19 18 19 18 20"/><polygon class="na54-2" points="17 20 17 21 18 21 18 20 17 20 17 20"/><rect class="na54-2" x="11" y="20" width="1" height="1"/><polygon class="na54-2" points="10 19 10 20 11 20 11 19 10 19"/><path class="na54-2" d="M10,18V16H9v3h1Z"/><polygon class="na54-2" points="9 15 8 15 8 16 9 16 9 16 9 15"/><polygon class="na54-2" points="15 17 15 16 14 16 14 17 14 17 15 17 15 17"/><path class="na54-7" d="M10,15v1h1V15Z"/><path class="na54-7" d="M18,15v1h1V15Z"/><rect class="na54-8" x="18" y="13" width="1" height="1"/><path class="na54-8" d="M16,12v1h2V12Z"/><polygon class="na54-8" points="10 12 10 13 11 13 11 13 12 13 12 12 10 12"/><path class="na54-9" d="M13,20V19h3V18H12v3h1Z"/><path class="na54-9" d="M17,20V19H16v2h1V20Z"/><path class="na54-2" d="M16,19H13v1h3Z"/><path class="na54-2" d="M17,18H16v1h1Z"/><path class="na54-10" d="M10,13V12h1V11h7v1h1v1h0v1h1V13h1V9H20V8H19V7H18V6H11V7H10V8H9V9H8v4H9v1h1Z"/><path class="na54-2" d="M11,15v1h2V15h1V14h1v1h1v1h2V15h2V14H18V13H11v1H9v1h2Z"/></svg>