<svg xmlns="http://www.w3.org/2000/svg" viewBox="0 0 29 33"><defs><style>polygon,rect,path{shape-rendering:crispedges;}.ra102-1{fill:#29834f;}.ra102-2{fill:#000000;}.ra102-3{fill:#990000;}.ra102-4{fill:#6d3e35;}.ra102-5{fill:#990000;}.ra102-6{fill:#ffffff;}.ra102-7{fill:#8e703c;}.ra102-8{fill:#99ce09;}.ra102-9{fill:#841f00;}.ra102-10{fill:#b23b00;}</style></defs><path class="ra102-1" d="M6,32V27H7V26H8V25h2V22H9V16H8V15H9V10h1V9h1V8h7V9h1v1h1v5h1v1H20v8H19v1h2v1h1v1h1v6h6V0H0V33H6Z"/><path class="ra102-2" d="M23,27H22v6h1V27Z"/><path class="ra102-3" d="M22,27H21v6h1V27Z"/><rect class="ra102-2" x="21" y="26" width="1" height="1"/><path class="ra102-2" d="M21,27H20v6h1V27Z"/><path class="ra102-3" d="M20,27h1V26H19v1H18V25H17v3h2v1H17v2h1V30h1v2H16V25H13v3h2v4H12V26H11V25H10v1H8v1H9v6H20V27Zm-9,2v3H10V28h1Z"/><rect class="ra102-3" x="16" y="24" width="1" height="1"/><rect class="ra102-3" x="12" y="24" width="1" height="1"/><path class="ra102-2" d="M20,26h1V25H19v1Z"/><path class="ra102-2" d="M15,24H13v1h3V24Z"/><path class="ra102-4" d="M15,23H13v1h3V23Z"/><path class="ra102-2" d="M13,23h3v1h1V21H16v1H13V21H12v3h1Z"/><path class="ra102-2" d="M10,25H8v1h2Z"/><path class="ra102-2" d="M9,27H8v6H9V27Z"/><path class="ra102-3" d="M8,27H7v6H8V27Z"/><rect class="ra102-2" x="7" y="26" width="1" height="1"/><path class="ra102-2" d="M7,27H6v6H7V27Z"/><path class="ra102-3" d="M14,31V29H13v2Z"/><path class="ra102-5" d="M14,29v2H13V30H12v2h3V28H13v1Z"/><path class="ra102-5" d="M10,29v3h1V28H10Z"/><path class="ra102-5" d="M18,29h1V28H17v1Z"/><path class="ra102-5" d="M16,31v1h3V30H18v1H17V30H16Z"/><path class="ra102-2" d="M12,26v4h1V25H12Z"/><path class="ra102-2" d="M16,26v4h1V25H16Z"/><rect class="ra102-2" x="20" y="15" width="1" height="1"/><path class="ra102-4" d="M13,22h3V21h1V20h1V19h1V16H16V13H11v1h2v2H10v3h1v1h1v1h1Zm1-6h1v1H14Zm-2,3V18h1v1h3v1H13V19Z"/><path class="ra102-4" d="M18,14h1V13H17v1Z"/><rect class="ra102-4" x="19" y="15" width="1" height="1"/><path class="ra102-2" d="M19,17v2h1V16H19Z"/><rect class="ra102-2" x="18" y="19" width="1" height="1"/><rect class="ra102-2" x="17" y="20" width="1" height="1"/><rect class="ra102-2" x="11" y="20" width="1" height="1"/><rect class="ra102-2" x="10" y="19" width="1" height="1"/><path class="ra102-2" d="M10,18V16H9v3h1Z"/><rect class="ra102-2" x="8" y="15" width="1" height="1"/><rect class="ra102-2" x="14" y="16" width="1" height="1"/><path class="ra102-6" d="M11,15V14H10v2h1Z"/><path class="ra102-6" d="M13,16V14H12v2Z"/><path class="ra102-6" d="M16,14v2h1V14Z"/><path class="ra102-6" d="M18,15v1h1V14H18Z"/><path class="ra102-2" d="M11,16h1V14H11v2Z"/><path class="ra102-2" d="M18,14H17v2h1V14Z"/><path class="ra102-7" d="M17,14V13H16v1Z"/><rect class="ra102-2" x="13" y="19" width="3" height="1"/><rect class="ra102-2" x="12" y="18" width="1" height="1"/><path class="ra102-8" d="M19,20H18v1H17v4h1v2h1V24h1V19H19Z"/><path class="ra102-8" d="M19,14v1h1V13H19Z"/><path class="ra102-8" d="M10,15V14h1V13H9v3h1Z"/><path class="ra102-8" d="M11,26h1V21H11V20H10V19H9v3h1v3h1Z"/><path class="ra102-9" d="M19,12v1h1V11H19Z"/><path class="ra102-10" d="M10,12v1h1V11h1v2h1V11h1v2h1V11h1v2h1V11h1v2h1V11h1V10H19V9H18V8H11V9H10v1H9v1h1Z"/><path class="ra102-9" d="M18,12V11H17v2h1Z"/><path class="ra102-9" d="M16,12V11H15v2h1Z"/><path class="ra102-9" d="M14,12V11H13v2h1Z"/><path class="ra102-9" d="M12,12V11H11v2h1Z"/><path class="ra102-9" d="M10,12V11H9v2h1Z"/></svg>