<svg xmlns="http://www.w3.org/2000/svg" viewBox="0 0 29 33"><defs><style>polygon,rect,path{shape-rendering:crispedges;}.wa83-1{fill:#d4a122;}.wa83-2{fill:#000000;}.wa83-3{fill:#004a77;}.wa83-4{fill:#b2622b;}.wa83-5{fill:#99ce09;}.wa83-6{fill:#ffffff;}.wa83-7{fill:#7f5018;}.wa83-8{fill:#7f5018;}.wa83-9{fill:#00e2b7;}.wa83-10{fill:#d4c468;}</style></defs><rect class="wa83-1" x="9" y="16" width="1"/><path class="wa83-1" d="M19,23h1V22h1V20H20v1H18v1h1Z"/><rect class="wa83-1" x="18" y="19"/><polygon class="wa83-1" points="17 20 17 21 16 21 16 21 17 21 17 20 17 20 17 20"/><rect class="wa83-1" x="14" y="16" width="1"/><rect class="wa83-1" x="12" y="21" width="1"/><rect class="wa83-1" x="21" y="22" width="1" height="1"/><path class="wa83-1" d="M13,22Z"/><path class="wa83-1" d="M0,33H29V0H0ZM26,20H25V19h1Zm-2-3h1v1H24ZM6,32V27H7V26H8V25h2V22h1V21H9V20H8V19H9V16H8V15H9V10h1V9h1V8h7V9h1v1h1v6H19v2h0V16h1V15h1v1H20v3h1v1h2V19h1v1H23v1h1v1H23v1H22v1H21v1H20V24H19v1h4v1h1v2H23v5H6Z"/><path class="wa83-2" d="M22,29v4h1V28H22Z"/><path class="wa83-2" d="M7,32V27H6v6H7Z"/><rect class="wa83-2" x="7" y="26" width="1" height="1"/><path class="wa83-3" d="M7,32v1H8V32Z"/><path class="wa83-3" d="M8,30V29H7v2H8Z"/><path class="wa83-3" d="M8,28V27H7v1Z"/><path class="wa83-2" d="M21,31V30H20v1H14V27H13v4H9V27H8v6H9V32H20v1h1V31Z"/><path class="wa83-2" d="M10,25H8v1h2Z"/><path class="wa83-3" d="M19,32v1h1V32Z"/><path class="wa83-3" d="M17,32H15v1h3V32Z"/><path class="wa83-3" d="M9,32v1h1V32Z"/><path class="wa83-3" d="M13,32H11v1h3V32Z"/><path class="wa83-2" d="M11,24V22H10v3h1Z"/><path class="wa83-3" d="M9,27v1h1v1H9v2h1V30h1v1h2V30H12V29H11V28h1V27h2V26H13V24H12V23H11v2h1v1H11v1H10V26H8v1Z"/><path class="wa83-2" d="M14,24H13v1h1Z"/><path class="wa83-2" d="M15,26V25H14v2h1Z"/><path class="wa83-4" d="M14,25h1V24h1V23H13v1h1Z"/><rect class="wa83-2" x="15" y="24" width="1" height="1"/><path class="wa83-2" d="M19,23h0V22H18v3h1V24h0Z"/><path class="wa83-3" d="M15,30v1h3V29H17v1H16V29H15V28h1V27h1V25h1V23H17v1H16v2H15v1H14v3Z"/><path class="wa83-3" d="M20,31V30H19v1Z"/><path class="wa83-3" d="M21,32v1h1V32Z"/><path class="wa83-3" d="M22,31V29H21v2Z"/><rect class="wa83-2" x="20" y="15" width="1" height="1"/><path class="wa83-4" d="M18,12V11H17V10H12v1H11v1h2v1h4V12Z"/><path class="wa83-4" d="M19,16h1V15H19Z"/><polygon class="wa83-4" points="10 12 10 13 11 13 11 13 11 12 10 12"/><rect class="wa83-4" x="18" y="13" width="1" height="1"/><path class="wa83-4" d="M17,16H16V15H15V14H14v1H13v1H10v2h1v1h1V18h1v1h3v1H13V19H12v2h1v1h3V21h1V20h0V19h1V18h1V16H17Zm-2,0v1H14V16h1Z"/><polygon class="wa83-4" points="10 16 10 15 9 15 9 15 9 16 10 16"/><path class="wa83-2" d="M12,23v1h1V23h3v1h1V22h1V20H17v1H16v1H13V21H12V20H11v2h1Z"/><polygon class="wa83-2" points="9 15 8 15 8 16 9 16 9 16 9 15"/><polygon class="wa83-2" points="14 17 14 17 15 17 15 16 14 16 14 17"/><path class="wa83-5" d="M11,30H10v1h1Z"/><path class="wa83-5" d="M10,32v1h1V32Z"/><path class="wa83-5" d="M13,27H12v1H11v1h1v1h1V27Z"/><polygon class="wa83-5" points="10 27 11 27 11 26 12 26 12 25 11 25 10 25 10 26 10 27"/><path class="wa83-5" d="M15,26h1V25H15Z"/><path class="wa83-5" d="M13,25v1h1V25Z"/><path class="wa83-5" d="M16,28H15v1h1v1h1V27H16Z"/><path class="wa83-5" d="M8,28H7v1H8Z"/><path class="wa83-5" d="M10,29V28H9v1Z"/><path class="wa83-5" d="M21,32h1V31H21Z"/><path class="wa83-5" d="M8,31H7v1H8Z"/><path class="wa83-5" d="M14,30v1h1V30Z"/><path class="wa83-5" d="M14,32v1h1V32Z"/><path class="wa83-5" d="M19,31V30H18v1Z"/><path class="wa83-5" d="M18,32v1h1V32Z"/><path class="wa83-5" d="M12,23V22H11v1Z"/><path class="wa83-5" d="M18,22H17v1h1Z"/><path class="wa83-6" d="M11,15H10v1h1Z"/><path class="wa83-6" d="M18,15v1h1V15Z"/><rect class="wa83-7" x="10" y="13" width="1" height="1"/><path class="wa83-7" d="M11,12v1h2V12Z"/><path class="wa83-7" d="M19,13V12H17v1h2Z"/><path class="wa83-8" d="M18,19H17v1h1v1h2V20h1V19H20V16H19v2H18Z"/><path class="wa83-8" d="M12,20V19H11V18H10V16H9v3H8v1H9v1h2V20Z"/><rect class="wa83-2" x="13" y="19" width="3" height="1"/><rect class="wa83-2" x="12" y="18" width="1" height="1"/><path class="wa83-9" d="M10,13V12h1V11h1V10h5v1h1v1h1v1h0v1h1V10H19V9H18V8H11V9H10v1H9v4h1Z"/><path class="wa83-2" d="M11,15v1h2V15h1V14h1v1h1v1h2V15h2V14H18V13H11v1H9v1h2Z"/><path class="wa83-6" d="M17,25v4h1v1h3V29h1V28H21V26h1V25H17Z"/><rect class="wa83-10" x="25" y="19" width="1" height="1"/><rect class="wa83-10" x="24" y="17" width="1" height="1"/><rect class="wa83-10" x="23" y="19" width="1" height="1"/><path class="wa83-10" d="M21,20v2h1v1h1V22h1V21H23V20Z"/><polygon class="wa83-10" points="21 22 20 22 20 23 19 23 19 23 19 24 19 24 20 24 20 25 21 25 21 24 22 24 22 23 21 23 21 22"/><path class="wa83-4" d="M22,26H21v2h2V26H22Z"/><path class="wa83-2" d="M22.5,26H23V25H22v1Z"/><path class="wa83-2" d="M24,28V26H23v2Z"/></svg>