<svg xmlns="http://www.w3.org/2000/svg" viewBox="0 0 29 33"><defs><style>polygon,rect,path{shape-rendering:crispedges;}.fb109-1{fill:#29834f;}.fb109-2{fill:#000000;}.fb109-3{fill:#333333;}.fb109-4{fill:#333333;}.fb109-5{fill:#ce8452;}.fb109-6{fill:#90a2a3;}.fb109-7{fill:#ffffff;}.fb109-8{fill:#66334f;}.fb109-9{fill:#fad000;}.fb109-10{fill:#66334f;}.fb109-11{fill:#9b8100;}</style></defs><path class="fb109-1" d="M6,32V27H7V26H8V25H9V24h1V23h1V22h1V21H11V20H9V18H8V13H9V11h1V10h1V9h7v1h1v1h1v1h1v6H20v2H18v1H17v1h1v1h1v1h1v1h1v1h1v1h1v6h6V0H0V33H6Z"/><path class="fb109-2" d="M23,27H22v6h1V27Z"/><path class="fb109-3" d="M22,27H21v6h1V27Z"/><path class="fb109-2" d="M21,27h1V26H21V25H20v2H17v1h2v1h1v4h1V27Z"/><path class="fb109-3" d="M20,29H19v1H18v1H17v1H16v1h4V29Z"/><path class="fb109-3" d="M16,28v3h1V30h1V29h1V28H17V27H16Z"/><path class="fb109-3" d="M18,26H17v1h2V26h1V25H18Z"/><rect class="fb109-2" x="18" y="29" width="1" height="1"/><path class="fb109-4" d="M15,28H14v5h1V28Z"/><path class="fb109-5" d="M16,25V23H13v2h3Z"/><path class="fb109-3" d="M12,32V31H11V30H10V29H9v4h4V32Z"/><rect class="fb109-2" x="11" y="30" width="1" height="1"/><path class="fb109-3" d="M12,28H10v1h1v1h1v1h1V27H12Z"/><path class="fb109-3" d="M10,26v1h2V26H11V25H9v1Z"/><path class="fb109-2" d="M9,29h1V28h2V27H9V25H8v1H7v1H8v6H9V29Z"/><path class="fb109-3" d="M8,27H7v6H8V27Z"/><path class="fb109-2" d="M7,27H6v6H7V27Z"/><rect class="fb109-2" x="10" y="29" width="1" height="1"/><rect class="fb109-2" x="17" y="30" width="1" height="1"/><path class="fb109-2" d="M17,32V31H16V27H13v4H12v1h1v1h1V28h1v5h1V32Z"/><path class="fb109-6" d="M9,26v1h1V26Z"/><path class="fb109-6" d="M19,27h1V26H19Z"/><rect class="fb109-2" x="19" y="14" width="1" height="1"/><rect class="fb109-5" x="17" y="11" width="1" height="1"/><rect class="fb109-5" x="17" y="13" width="1" height="1"/><path class="fb109-5" d="M12,19V18h5v2h1V19h1V18H18V15H16v1H15v1H14V16h1V14h1V12H15V11H14v4H13v2H12V15H11v3H10v1h1v1h1Z"/><path class="fb109-5" d="M13,14V13H11v1h2Z"/><rect class="fb109-5" x="9" y="15" width="1" height="1"/><path class="fb109-5" d="M13,20v2h3V20Z"/><rect class="fb109-5" x="19" y="15" width="1" height="1"/><path class="fb109-2" d="M19,16v2h1V16Z"/><path class="fb109-2" d="M18,19v1h1V19Z"/><rect class="fb109-2" x="17" y="20" width="1" height="1"/><rect class="fb109-2" x="11" y="20" width="1" height="1"/><path class="fb109-2" d="M10,19v1h1V19Z"/><path class="fb109-2" d="M10,17V16H9v2h1Z"/><rect class="fb109-2" x="14" y="16" width="1" height="1"/><path class="fb109-7" d="M12,14v1h1V14Z"/><path class="fb109-7" d="M16,14v1h1V14Z"/><path class="fb109-2" d="M11,14v1h1V14Z"/><path class="fb109-2" d="M17,14v1h1V14Z"/><path class="fb109-8" d="M13,12H11v1h2Z"/><rect class="fb109-8" x="17" y="12" width="1" height="1"/><path class="fb109-2" d="M18,25h2V24H19V23H18v2Z"/><rect class="fb109-2" x="17" y="25" width="1" height="1"/><path class="fb109-9" d="M18,24H17v1h1Z"/><path class="fb109-7" d="M17,24h1V23H17Z"/><rect class="fb109-2" x="16" y="26" width="1" height="1"/><rect class="fb109-7" x="16" y="25" width="1" height="1"/><path class="fb109-9" d="M15,26v1h1V26Z"/><path class="fb109-7" d="M14,26v1h1V26Z"/><path class="fb109-9" d="M13,26v1h1V26Z"/><path class="fb109-2" d="M14,26h2V25H13v1Z"/><rect class="fb109-2" x="12" y="26" width="1" height="1"/><rect class="fb109-7" x="12" y="25" width="1" height="1"/><path class="fb109-2" d="M12,24v1h1V23h3v2h1V23h1V22H17V21H16v1H13V21H12v1H11v1h1Z"/><rect class="fb109-2" x="11" y="25" width="1" height="1"/><rect class="fb109-9" x="11" y="24" width="1" height="1"/><rect class="fb109-7" x="11" y="23" width="1" height="1"/><path class="fb109-2" d="M11,24V23H10v1H9v1h2Z"/><path class="fb109-10" d="M17,19V18H13v1h3v2h1V19Z"/><path class="fb109-10" d="M13,20V19H12v2h1Z"/><path class="fb109-2" d="M16,19H13v1h3Z"/><path class="fb109-2" d="M12,18v1h1V18Z"/><path class="fb109-11" d="M9,15h1v3h1V12h2v3h1V11h1v1h1v2h1V11h1v7h1V14h1v4h1V12H20V11H19V10H18V9H11v1H10v1H9v2H8v5H9V15Z"/><path class="fb109-11" d="M19,19v1h1V18H19Z"/><path class="fb109-11" d="M15,14v2h1V14Z"/><path class="fb109-11" d="M12,16v1h1V15H12Z"/><path class="fb109-11" d="M10,18H9v2h1V18Z"/></svg>