<svg xmlns="http://www.w3.org/2000/svg" viewBox="0 0 29 33"><defs><style>polygon,rect,path{shape-rendering:crispedges;}.eb282-1{fill:#e55b35;}.eb282-2{fill:#000000;}.eb282-3{fill:#9b8100;}.eb282-4{fill:#333333;}.eb282-5{fill:#b2622b;}.eb282-6{fill:#90a2a3;}.eb282-7{fill:#663228;}.eb282-8{fill:#663228;}.eb282-9{fill:#00af68;}.eb282-10{fill:#db5800;}</style></defs><path class="eb282-1" d="M0,33H6V27H7V26H8V25H9V24h1V23h1V22h1V21H10V20H9V16H8V15H9V10h1V9h1V8h7V9h1v1h1v5h1v1H20v4H19v1H17v1h1v1h1v1h1v1h1v1h1v1h1v6h6V0H0Z"/><path class="eb282-2" d="M23,27H22v6h1V27Z"/><path class="eb282-3" d="M22,27H21v6h1V27Z"/><path class="eb282-2" d="M21,27h1V26H21V25H20v2H17v1h2v1h1v4h1V27Z"/><rect class="eb282-2" x="19" y="24" width="1" height="1"/><path class="eb282-3" d="M20,29H19v1H18v1H17v1H16v1h4V29Z"/><rect class="eb282-2" x="18" y="23" width="1" height="1"/><path class="eb282-3" d="M18,25H17v1H16v5h1V30h1V29h1V28H17V27h2V26h1V25H19V24H18Z"/><rect class="eb282-3" x="17" y="23" width="1" height="1"/><rect class="eb282-2" x="17" y="24" width="1" height="1"/><rect class="eb282-2" x="18" y="29" width="1" height="1"/><rect class="eb282-2" x="16" y="25" width="1" height="1"/><path class="eb282-4" d="M15,27H14v6h1V27Z"/><path class="eb282-2" d="M12,24h1V23h3v1h1V23h1V22H17V21H16v1H13V21H12v1H11v1h1Z"/><path class="eb282-5" d="M17,25V24H16V23H13v1H12v1h1v1h3V25Z"/><rect class="eb282-2" x="12" y="25" width="1" height="1"/><path class="eb282-3" d="M12,32V31H11V30H10V29H9v4h4V32Z"/><rect class="eb282-3" x="11" y="23" width="1" height="1"/><rect class="eb282-2" x="11" y="24" width="1" height="1"/><rect class="eb282-2" x="11" y="30" width="1" height="1"/><rect class="eb282-2" x="10" y="23" width="1" height="1"/><rect class="eb282-2" x="9" y="24" width="1" height="1"/><path class="eb282-3" d="M10,26v1h2v1H10v1h1v1h1v1h1V26H12V25H11V24H10v1H9v1Z"/><path class="eb282-2" d="M9,29h1V28h2V27H9V25H8v1H7v1H8v6H9V29Z"/><path class="eb282-3" d="M8,27H7v6H8V27Z"/><path class="eb282-2" d="M7,27H6v6H7V27Z"/><rect class="eb282-2" x="10" y="29" width="1" height="1"/><rect class="eb282-2" x="17" y="30" width="1" height="1"/><path class="eb282-2" d="M17,32V31H16V26H13v5H12v1h1v1h1V27h1v6h1V32Z"/><path class="eb282-6" d="M9,26v1h1V26Z"/><path class="eb282-6" d="M19,27h1V26H19Z"/><rect class="eb282-2" x="20" y="15" width="1" height="1"/><rect class="eb282-5" x="19" y="15" width="1" height="1"/><path class="eb282-5" d="M13,22h3V21h1V20h1V18h1V16H16V15H13v2H12V16H10v2h1v2h1v1h1Zm1-6h1v1H14Zm-2,3V18h1v1h3v1H13V19Z"/><rect class="eb282-5" x="9" y="15" width="1" height="1"/><path class="eb282-5" d="M15,14V13h2V12h2V11H18V10H16v1H15v1H14v2Z"/><path class="eb282-2" d="M19,17h1V16H19Z"/><path class="eb282-2" d="M10,16H9v1h1Z"/><rect class="eb282-2" x="8" y="15" width="1" height="1"/><rect class="eb282-2" x="14" y="16" width="1" height="1"/><path class="eb282-7" d="M17,13h2V12H17Z"/><path class="eb282-8" d="M19,18H18v2H17v1h2V20h1V17H19Z"/><path class="eb282-8" d="M11,20V18H10V17H9v3h1v1h2V20Z"/><rect class="eb282-2" x="13" y="19" width="3" height="1"/><rect class="eb282-2" x="12" y="18" width="1" height="1"/><path class="eb282-9" d="M12,17h1V16H12Z"/><path class="eb282-9" d="M10,13h4V12h1V11h1V10h2v1h1v3h1V10H19V9H18V8H11V9H10v1H9v4h1Z"/><path class="eb282-10" d="M13,14H10v2h3V15h1V14Z"/><path class="eb282-10" d="M19,14H15v1h1v1h3V14Z"/><path class="eb282-2" d="M15,13v1h4V13H15Z"/><path class="eb282-2" d="M13,14h1V13H10v1h3Z"/><path class="eb282-2" d="M19,15h1V14H19Z"/><path class="eb282-2" d="M10,14H9v1h1Z"/><path class="eb282-2" d="M14,14v1h1V14Z"/></svg>