<svg xmlns="http://www.w3.org/2000/svg" viewBox="0 0 29 33"><defs><style>polygon,rect,path{shape-rendering:crispedges;}.aa288-1{fill:#29834f;}.aa288-2{fill:#000000;}.aa288-3{fill:#e8b795;}.aa288-4{fill:#990000;}.aa288-5{fill:#ff6c77;}.aa288-6{fill:#ffffff;}.aa288-7{fill:#99004d;}.aa288-8{fill:#99004d;}.aa288-9{fill:#c8a715;}.aa288-10{fill:#ff5e17;}</style></defs><path class="aa288-1" d="M18,24V22H17v2Z"/><path class="aa288-1" d="M12,22H11v2h1Z"/><path class="aa288-1" d="M0,33H6V27H7V26H8V25h2V20H9V16H8V15H9V11h1V10h1V9h2V7h1V6h2V5h2V6H17V7h1V9h1v2h1v4h1v1H20v4H19v5h2v1h1v1h1v6h6V0H0Z"/><path class="aa288-2" d="M23,31V27H22v6h1Z"/><rect class="aa288-2" x="21" y="26" width="1" height="1"/><path class="aa288-3" d="M22,31V27H21v6h1Z"/><rect class="aa288-3" x="20" y="26" width="1" height="1"/><path class="aa288-2" d="M21,31V27H20v6h1Z"/><path class="aa288-2" d="M20,26h1V25H19v1Z"/><rect class="aa288-4" x="18" y="30" width="1" height="1"/><rect class="aa288-4" x="18" y="32" width="1" height="1"/><rect class="aa288-4" x="10" y="30" width="1" height="1"/><path class="aa288-4" d="M17,31V30h1V29h1v1h1V26H19V25H18v1H17v1H16v1H13V27H12V26H11V25H10v1H9v4h1V29h1v1h1v3h1V29h2v1h1v2H15v1h2Z"/><path class="aa288-4" d="M14,31v1h1V30H14Z"/><rect class="aa288-4" x="10" y="32" width="1" height="1"/><path class="aa288-2" d="M17,24v2h1V25h1V24Z"/><rect class="aa288-2" x="16" y="26" width="1" height="1"/><path class="aa288-2" d="M14,27H13v1h3V27Z"/><path class="aa288-3" d="M16,25V23H13v2H12v1h1v1h3V26h1V25Z"/><rect class="aa288-2" x="12" y="26" width="1" height="1"/><path class="aa288-2" d="M11,26h1V24H10v1h1Z"/><path class="aa288-2" d="M10,26V25H8v1Z"/><rect class="aa288-3" x="8" y="26" width="1" height="1"/><path class="aa288-2" d="M9,31V27H8v6H9Z"/><rect class="aa288-2" x="7" y="26" width="1" height="1"/><path class="aa288-3" d="M8,31V27H7v6H8Z"/><path class="aa288-2" d="M7,31V27H6v6H7Z"/><path class="aa288-5" d="M20,31V30H19v1H18V30H17v3h1V32h1v1h1Z"/><rect class="aa288-5" x="18" y="29" width="1" height="1"/><path class="aa288-5" d="M15,32h1V30H15Z"/><path class="aa288-5" d="M14,32V30h1V29H13v4h2V32Z"/><path class="aa288-5" d="M12,31V30H11v1H10V30H9v3h1V32h1v1h1Z"/><rect class="aa288-5" x="10" y="29" width="1" height="1"/><rect class="aa288-2" x="20" y="15" width="1" height="1"/><path class="aa288-2" d="M19,13v2h1V11H19Z"/><polygon class="aa288-3" points="13 21 14 21 14 22 15 22 15 21 16 21 16 20 13 20 13 21"/><path class="aa288-3" d="M10,17v1h1v1h1V18h2v1h1V18h2v1h1V18h1V16h1V15H16V13h1V12h2V11H18V10H15v1H13V10H11v1H10v2h1V12h2v1H11v1h2v1H9v1h1Zm4-1h1v1H14Z"/><polygon class="aa288-3" points="18 14 19 14 19 13 17 13 17 14 18 14"/><rect class="aa288-2" x="19" y="16" width="1" height="1"/><rect class="aa288-2" x="18" y="10" width="1" height="1"/><path class="aa288-2" d="M13,10V9H11v1Z"/><path class="aa288-2" d="M16,9v1h2V9Z"/><rect class="aa288-2" x="10" y="10" width="1" height="1"/><path class="aa288-2" d="M10,14V11H9v4h1Z"/><rect class="aa288-2" x="9" y="16" width="1" height="1"/><rect class="aa288-2" x="8" y="15" width="1" height="1"/><rect class="aa288-2" x="14" y="16" width="1" height="1"/><rect class="aa288-6" x="12" y="14" width="1" height="1"/><rect class="aa288-6" x="10" y="14" width="1" height="1"/><rect class="aa288-6" x="18" y="14" width="1" height="1"/><rect class="aa288-6" x="16" y="14" width="1" height="1"/><rect class="aa288-2" x="11" y="14" width="1" height="1"/><rect class="aa288-2" x="17" y="14" width="1" height="1"/><rect class="aa288-7" x="10" y="13" width="1" height="1"/><rect class="aa288-7" x="11" y="12" width="2" height="1"/><rect class="aa288-7" x="16" y="13" width="1" height="1"/><rect class="aa288-7" x="17" y="12" width="2" height="1"/><path class="aa288-8" d="M12,22v1h5V22h2V20h1V17H19v1H18v1H17V18H15v1h1v2H15v1H14V21H13V19H11V18H10V17H9v3h1v2Z"/><rect class="aa288-8" x="13" y="18" width="1" height="1"/><rect class="aa288-9" x="18" y="22" width="1" height="1"/><rect class="aa288-8" x="18" y="23" width="1" height="1"/><rect class="aa288-9" x="16" y="23" width="1" height="1"/><rect class="aa288-8" x="16" y="24" width="1" height="1"/><rect class="aa288-9" x="12" y="23" width="1" height="1"/><rect class="aa288-8" x="12" y="24" width="1" height="1"/><rect class="aa288-9" x="10" y="22" width="1" height="1"/><rect class="aa288-8" x="10" y="23" width="1" height="1"/><path class="aa288-2" d="M13,19v1h3V19Z"/><rect class="aa288-2" x="12" y="18" width="1" height="1"/><path class="aa288-10" d="M13,11h2V10h1V9h2V7H17V6h1V5H16V6H14V7H13Z"/><rect class="aa288-10" x="18" y="9" width="1" height="1"/><rect class="aa288-10" x="18" y="9" width="1" height="1"></rect></svg>