<svg xmlns="http://www.w3.org/2000/svg" viewBox="0 0 29 33"><defs><style>polygon,rect,path{shape-rendering:crispedges;}polygon,rect,path{shape-rendering:crispedges;}.lb80-1{fill:#a9a9a9;}.lb80-2{fill:#000000;}.lb80-3{fill:#bbbbbb;}.lb80-4{fill:#04263a;}.lb80-5{fill:#0068f5;}.lb80-6{fill:#008dff;}.lb80-7{fill:#008b4c;}.lb80-8{fill:#ffffff;}.lb80-9{fill:#004480;}.lb80-10{fill:#b2622b;}.lb80-11{fill:#663228;}.lb80-12{fill:#663228;}.lb80-13{fill:#8e9350;}.lb80-14{fill:#cbed03;}.lb80-15{fill:#00e070;}.lb80-16{fill:#455054;}.lb80-17{fill:#002b4f;}.lb80-18{fill:#ff1f4a;}</style></defs><path class="lb80-1" d="M28,25H27v1h2V24H28Z"/><path class="lb80-2" d="M0,0V23H4V22H5v9H6V22H7V20H5v1H2V17H5V16H8v5h4V20H11V19H10V16H9V15H8V14H9V10h1V9h1V8h7V9h1v1h1v4h1v1H20v1H19v3H18v1H17v1h4v1h5v1h3V0H0ZM27,5V7H22V6H21V5H20V4h1V3h1V2h3V3h1V4h1Z"/><path class="lb80-1" d="M27,32H26V31H23v2h5V32Z"/><path class="lb80-1" d="M25,27v1H24v2h4v1h1V27H25Z"/><path class="lb80-3" d="M9,24H8v1h2V24Z"/><path class="lb80-3" d="M11,23H10v1h2V23Z"/><path class="lb80-3" d="M18,22h3V21H17v1Z"/><path class="lb80-3" d="M22,23H21v1h1v1H21v1h2V24h1V23h2V22H23v1Z"/><path class="lb80-3" d="M21,25V24H19v1h2Z"/><path class="lb80-3" d="M19,24V23H17v1h2Z"/><path class="lb80-3" d="M7,32H6v1H8V32Z"/><path class="lb80-3" d="M4,32V31H5V26H2V25H1V24H0v2H1v1H3v1H4v2H2v1H0v2H3V32Z"/><path class="lb80-3" d="M27,24H26v1H25v1H23v5h3v1h2v1h1V31H28V30H24V28h1V27h4V26H27V25h1V24h1V23H27Z"/><path class="lb80-3" d="M2,24H4v1H5V22H4v1H1v1Z"/><path class="lb80-4" d="M26,7h1V6H26Z"/><path class="lb80-5" d="M26,5V6h1V4H26Z"/><path class="lb80-5" d="M25,6V7h1V6Z"/><rect class="lb80-6" x="25" y="5" width="1" height="1"/><rect class="lb80-7" x="25" y="4" width="1" height="1"/><rect class="lb80-8" x="25" y="3" width="1" height="1"/><path class="lb80-1" d="M24,24H23v2h2V25h1V24h1V23H24Z"/><path class="lb80-7" d="M24,5H23V6h2V5Z"/><rect class="lb80-8" x="24" y="4" width="1" height="1"/><rect class="lb80-5" x="24" y="3" width="1" height="1"/><path class="lb80-9" d="M24,6H23V7h2V6Z"/><rect class="lb80-6" x="23" y="4" width="1" height="1"/><path class="lb80-1" d="M22,27h1V26H22Z"/><path class="lb80-4" d="M22,6V7h1V6Z"/><rect class="lb80-6" x="22" y="5" width="1" height="1"/><rect class="lb80-5" x="22" y="4" width="1" height="1"/><path class="lb80-7" d="M23,4h1V3h1V2H23V3H22V4Z"/><path class="lb80-6" d="M23,2H22V3h1Z"/><rect class="lb80-1" x="21" y="24" width="1" height="1"/><rect class="lb80-9" x="21" y="5" width="1" height="1"/><rect class="lb80-7" x="21" y="4" width="1" height="1"/><rect class="lb80-8" x="21" y="3" width="1" height="1"/><rect class="lb80-5" x="20" y="4" width="1" height="1"/><path class="lb80-1" d="M18,22H17v1h2v1h2V23h2V22H18Z"/><path class="lb80-1" d="M10,24V23h2V22H9v2Z"/><path class="lb80-1" d="M6,31H4v1H3v1H6V31Z"/><path class="lb80-1" d="M2,30H4V28H3V27H1V26H0v5H2Z"/><path class="lb80-1" d="M4,24H1v1H2v1H5V25H4Z"/><path class="lb80-1" d="M1,23H0v1H1Z"/><path class="lb80-2" d="M23,27H22v6h1V27Z"/><path class="lb80-10" d="M22,27H21v6h1V27Z"/><path class="lb80-2" d="M21,26v1h1V26Z"/><path class="lb80-2" d="M21,27H20v6h1V27Z"/><path class="lb80-10" d="M20,27h1V26H19V25H17V24H16V23H13v1H12v1H10v1H8v1H9v6h5V29h1v4h5V27Zm-8,2H11V28h1Zm6,0H17V28h1Z"/><path class="lb80-2" d="M20,25H19v1h2V25Z"/><rect class="lb80-2" x="17" y="28" width="1" height="1"/><path class="lb80-2" d="M18,24H17v1h2V24Z"/><path class="lb80-2" d="M15,29H14v4h1V29Z"/><rect class="lb80-2" x="11" y="28" width="1" height="1"/><path class="lb80-2" d="M10,25h2V24H10Z"/><path class="lb80-2" d="M9,27H8V26h2V25H8V24H7v7H6v1H8v1H9V27Z"/><rect class="lb80-10" x="14" y="15" width="1" height="1"/><path class="lb80-10" d="M16,14V12h2v1h1V11H18V10H17v1H16V10H15v1H12V10H11v1H10v1h2v1h1v1h3Z"/><path class="lb80-10" d="M13,22h3V21h1V20h1V19h1V17H16V16H15v1H14V16H13v1H10v2h1v1h1v1h1Zm-1-3V18h5v1H16v1H13V19Z"/><path class="lb80-2" d="M12,23v1h1V23h3v1h1V21H16v1H13V21H12v2Z"/><rect class="lb80-2" x="14" y="16" width="1" height="1"/><path class="lb80-11" d="M16,19V18H12v1h4Z"/><path class="lb80-12" d="M18,13V12H16v1h2Z"/><path class="lb80-12" d="M12,12H10v1h2Z"/><path class="lb80-2" d="M13,20h3V19H13Z"/><path class="lb80-2" d="M17,19V18H16v1Z"/><path class="lb80-13" d="M10,13V11h1V10h1v1h3V10h1v1h1V10h1v1h1v3h1V10H19V9H18V8H11V9H10v1H9v4h1Z"/><polygon class="lb80-14" points="19 15 19 16 20 16 20 15 21 15 21 14 20 14 19 14 19 15"/><path class="lb80-14" d="M17,13H16v1h3V13H17Z"/><path class="lb80-15" d="M19,14H16v2h3V14Z"/><path class="lb80-14" d="M16,16v1h3V16H16Z"/><path class="lb80-14" d="M15,14H13v2h1V15h1v1h1V14Z"/><path class="lb80-14" d="M12,13H10v1h3V13Z"/><path class="lb80-15" d="M13,16V14H10v2h3Z"/><path class="lb80-14" d="M13,17V16H10v1h3Z"/><path class="lb80-14" d="M9,14H8v1H9v1h1V14Z"/><path class="lb80-10" d="M7,24H8V22H6v9H7Z"/><path class="lb80-16" d="M8,21V20H7v2H8Z"/><path class="lb80-2" d="M9,22H8v2H9Z"/><path class="lb80-17" d="M4,17H2v1H4Z"/><path class="lb80-15" d="M8,19H6v1H8Z"/><path class="lb80-15" d="M2,20v1H5V20H2Z"/><path class="lb80-18" d="M4,19V18H2v2H4Z"/><path class="lb80-18" d="M6,18v1H8V17H6Z"/><path class="lb80-17" d="M6,18V17H8V16H5v2Z"/><path class="lb80-17" d="M4,18v1H5V18Z"/><path class="lb80-8" d="M4,19v1H5V19Z"/><path class="lb80-8" d="M5,18V17H4v1Z"/><path class="lb80-8" d="M5,18v1H6V18Z"/><path class="lb80-17" d="M5,19v1H6V19Z"/><path class="lb80-3" d="M9,22h3V21H8v1Z"/></svg>