<svg xmlns="http://www.w3.org/2000/svg" viewBox="0 0 29 33"><defs><style>polygon,rect,path{shape-rendering:crispedges;}.ca296-1{fill:#d4a122;}.ca296-2{fill:#000000;}.ca296-3{fill:#ce8452;}.ca296-4{fill:#ffffff;}.ca296-5{fill:#ff1d99;}.ca296-6{fill:#99582c;}.ca296-7{fill:#ffffff;}.ca296-8{fill:#fad000;}.ca296-9{fill:#5a2de2;}</style></defs><path class="ca296-1" d="M0,33H6V27H7V26H8V25h2V23h1V22h1V21H11V20H10V19H9V16H8V15H9V10h1V9h1V8h7V9h1v1h1v2h1v6H20v1H19v1H18v1H17v1h1v1h1v2h2V23H20V21h1V20h1V19h2v1h1v3H24v8H23v1H21v1h8V0H0Z"/><path class="ca296-2" d="M7,27H6v6H7V27Z"/><rect class="ca296-2" x="7" y="26" width="1" height="1"/><path class="ca296-3" d="M8,27H7v6H8V27Z"/><rect class="ca296-3" x="8" y="26" width="1" height="1"/><path class="ca296-2" d="M9,27H8v6H9V27Z"/><path class="ca296-2" d="M10,26V25H8v1h2Z"/><path class="ca296-4" d="M13,29V27H12V26H11V25H10v1H9v7h1V29h1v4h1V29Z"/><path class="ca296-4" d="M20,27V26H19V25H18v1H17v1H16v2h3v1H17v2h1V31h1v2h1V27Z"/><path class="ca296-4" d="M16,29H15v4h1V29Z"/><rect class="ca296-4" x="13" y="30" width="1" height="2"/><path class="ca296-3" d="M21,27V26H20v1Z"/><path class="ca296-2" d="M22,32h1V31H22V23H21v2H19v1h2v1H20v6h1V32Z"/><path class="ca296-2" d="M23,24v7h1V23H23Z"/><path class="ca296-3" d="M14,24h1v1h1V23H13v2h1Z"/><path class="ca296-5" d="M14,30v2H13V30h1V29H12v4h3V30Z"/><path class="ca296-5" d="M11,29H10v4h1V29Z"/><path class="ca296-5" d="M18,31v1H17V30h2V29H16v4h3V31Z"/><path class="ca296-3" d="M13,22h3V21h1V20h1V19h1V16h1V15H19V14H18v1H16v1H15v1H14V16H13V15H11V14h1V13h1V12h2V11H13V10H11v1H10v4H9v1h1v3h1v1h1v1h1Zm0-3h3V18h1v1H16v1H13Z"/><path class="ca296-2" d="M19,16v3h1V16Z"/><rect class="ca296-2" x="18" y="19" width="1" height="1"/><rect class="ca296-2" x="17" y="20" width="1" height="1"/><rect class="ca296-2" x="11" y="20" width="1" height="1"/><rect class="ca296-2" x="10" y="19" width="1" height="1"/><path class="ca296-2" d="M10,16H9v3h1V16Z"/><rect class="ca296-2" x="8" y="15" width="1" height="1"/><path class="ca296-6" d="M17,15h1V14H17Z"/><rect class="ca296-6" x="16" y="13" width="1" height="1"/><rect class="ca296-2" x="14" y="14" width="1" height="1"/><path class="ca296-7" d="M16,14V13H13v1H12v1h1v1h3V15h1V14Zm-1,1H14V14h1Z"/><path class="ca296-6" d="M16,13V12H13v1h3Z"/><rect class="ca296-6" x="12" y="13" width="1" height="1"/><path class="ca296-6" d="M11,14v1h1V14Z"/><path class="ca296-2" d="M14,17h1V16H14Z"/><rect class="ca296-3" x="17" y="13" width="1" height="1"/><path class="ca296-2" d="M14,30h1V29H14Z"/><rect class="ca296-2" x="12" y="26" width="1" height="1"/><path class="ca296-2" d="M15,28v1h1V27H15Z"/><rect class="ca296-2" x="16" y="26" width="1" height="1"/><path class="ca296-2" d="M13,27v2h1V27Z"/><rect class="ca296-2" x="17" y="25" width="1" height="1"/><rect class="ca296-2" x="11" y="25" width="1" height="1"/><rect class="ca296-2" x="14" y="24" width="1" height="1"/><rect class="ca296-2" x="13" y="25" width="1" height="1"/><rect class="ca296-2" x="15" y="25" width="1" height="1"/><path class="ca296-2" d="M12,24v1h1V23h3v2h1V23h1V22H17V21H16v1H13V21H12v1H11v1h1Z"/><rect class="ca296-8" x="16" y="25" width="1" height="1"/><path class="ca296-8" d="M15,26V25H14v1H13v1h1v2h1V27h1V26Z"/><rect class="ca296-8" x="12" y="25" width="1" height="1"/><path class="ca296-8" d="M11,25h1V23H11v2Z"/><path class="ca296-8" d="M17,24v1h1V23H17Z"/><path class="ca296-2" d="M19,25V23H18v2Z"/><path class="ca296-2" d="M11,24V23H10v2h1Z"/><rect class="ca296-2" x="13" y="19" width="3" height="1"/><rect class="ca296-2" x="16" y="18" width="1" height="1"/><path class="ca296-2" d="M20,21v2h1V21Z"/><rect class="ca296-2" x="21" y="20" width="1" height="1"/><rect class="ca296-2" x="22" y="19" width="2" height="1"/><path class="ca296-2" d="M24,23h1V20H24v3Z"/><path class="ca296-3" d="M22,24v7h1V23h1V20H22v1H21v2h1Z"/><path class="ca296-9" d="M10,14V11h1V10h2v1h2v1h1v1h2v1h1v1h1v3h1V12H20V10H19V9H18V8H11V9H10v1H9v5h1Z"/></svg>