<svg xmlns="http://www.w3.org/2000/svg" viewBox="0 0 29 33"><defs><style>polygon,rect,path{shape-rendering:crispedges;}.aa166-1{fill:#d14646;}.aa166-2{fill:#000000;}.aa166-3{fill:#ce8452;}.aa166-4{fill:#ff6c77;}.aa166-5{fill:#ffffff;}.aa166-6{fill:#ffffff;}.aa166-7{fill:#99582c;}.aa166-8{fill:#99582c;}.aa166-9{fill:#f9e100;}.aa166-10{fill:#455054;}.aa166-11{fill:#00af68;}</style></defs><path class="aa166-1" d="M8,18v4H9v2H8v1h2V24h2V21H11V20H10V19H9V16H8Z"/><path class="aa166-1" d="M0,33H8V32H6V31H5V22H6V21H7V20H5v1H2V17H5V16H8V15H9V11h1V10h1V9h7v1h1v1h1v4h1v1H20v3H19v1H18v1H17v3h2v1h2v1h1v1h1v6h6V0H0Z"/><path class="aa166-2" d="M23,31V27H22v6h1Z"/><rect class="aa166-2" x="21" y="26" width="1" height="1"/><path class="aa166-3" d="M22,31V27H21v6h1Z"/><rect class="aa166-3" x="20" y="26" width="1" height="1"/><path class="aa166-2" d="M21,31V27H20v6h1Z"/><path class="aa166-2" d="M20,26h1V25H19v1Z"/><rect class="aa166-4" x="18" y="32" width="1" height="1"/><rect class="aa166-4" x="10" y="30" width="1" height="1"/><path class="aa166-4" d="M17,31V30h1V29h1v1h1V26H19V25H18v1H17v1H16v1H13V27H12V26H11V25H10v1H9v4h1V29h1v1h1v3h1V29h2v1h1v2H15v1h2Z"/><rect class="aa166-4" x="18" y="30" width="1" height="1"/><path class="aa166-4" d="M14,31v1h1V30H14Z"/><rect class="aa166-4" x="10" y="32" width="1" height="1"/><path class="aa166-2" d="M17,26h1V25h1V24H17Z"/><rect class="aa166-2" x="16" y="26" width="1" height="1"/><path class="aa166-2" d="M14,27H13v1h3V27Z"/><path class="aa166-2" d="M13,23V22H12v2h1Z"/><path class="aa166-3" d="M16,23H13v1H12v2h1v1h3V26h1V24H16Z"/><rect class="aa166-2" x="12" y="26" width="1" height="1"/><path class="aa166-2" d="M12,24H10v1h1v1h1Z"/><rect class="aa166-3" x="8" y="26" width="1" height="1"/><path class="aa166-2" d="M9,31V27H8V26h2V25H8V24H7v7H6v1H8v1H9Z"/><path class="aa166-3" d="M7,30V24H8V22H6v9H7Z"/><path class="aa166-2" d="M6,29V22H5v9H6Z"/><path class="aa166-5" d="M20,31V30H19v1H18V30H17v3h1V32h1v1h1Z"/><rect class="aa166-5" x="18" y="29" width="1" height="1"/><path class="aa166-5" d="M15,32h1V30H15Z"/><path class="aa166-5" d="M14,32V30h1V29H13v4h2V32Z"/><path class="aa166-5" d="M12,31V30H11v1H10V30H9v3h1V32h1v1h1Z"/><rect class="aa166-5" x="10" y="29" width="1" height="1"/><rect class="aa166-2" x="20" y="15" width="1" height="1"/><path class="aa166-2" d="M19,13v2h1V12H19Z"/><path class="aa166-3" d="M10,14h2V13H10Z"/><path class="aa166-3" d="M18,12v1h1V11H18Z"/><rect class="aa166-3" x="13" y="20" width="1" height="1"/><rect class="aa166-3" x="17" y="10" width="1" height="1"/><path class="aa166-3" d="M10,16v2h1v1h1V18h2v1h1V18h2v1h1V18h1V16h1V15H16V14h2V13H16V12h1V11H16V10H13v1H12v2h1v2H9v1Zm4,0h1v1H14Z"/><rect class="aa166-3" x="10" y="11" width="1" height="1"/><rect class="aa166-3" x="15" y="20" width="1" height="1"/><rect class="aa166-3" x="11" y="10" width="1" height="1"/><rect class="aa166-2" x="19" y="16" width="1" height="1"/><path class="aa166-2" d="M16,23v1h1V22H16Z"/><rect class="aa166-2" x="9" y="16" width="1" height="1"/><rect class="aa166-2" x="8" y="15" width="1" height="1"/><rect class="aa166-2" x="14" y="16" width="1" height="1"/><rect class="aa166-6" x="18" y="14" width="1" height="1"/><rect class="aa166-6" x="12" y="14" width="1" height="1"/><path class="aa166-2" d="M17,14H16v1h2V14Z"/><path class="aa166-2" d="M11,15h1V14H10V12H9v3Z"/><rect class="aa166-7" x="18" y="13" width="1" height="1"/><polygon class="aa166-7" points="17 12 16 12 16 13 18 13 18 12 17 12"/><rect class="aa166-7" x="12" y="13" width="1" height="1"/><path class="aa166-7" d="M10,12v1h2V12Z"/><rect class="aa166-8" x="15" y="18" width="1" height="1"/><path class="aa166-8" d="M19,18H18v1H16v2H15V20H14v1H13V19h1V18H12v1H11V18H10V17H9v2h1v1h1v1h1v1h1v1h3V22h1V21h1V20h1V19h1V17H19Z"/><path class="aa166-2" d="M13,20h3V19H13Z"/><rect class="aa166-2" x="16" y="18" width="1" height="1"/><rect class="aa166-9" x="19" y="11" width="1" height="1"/><rect class="aa166-9" x="18" y="10" width="1" height="1"/><path class="aa166-9" d="M12,11h1V10h3v1h1V10h1V9H11v1h1Z"/><rect class="aa166-9" x="17" y="11" width="1" height="1"/><rect class="aa166-9" x="11" y="11" width="1" height="1"/><rect class="aa166-9" x="10" y="10" width="1" height="1"/><rect class="aa166-9" x="9" y="11" width="1" height="1"/><path class="aa166-10" d="M8,22V20H7v2Z"/><rect class="aa166-2" x="6" y="21" width="1" height="1"/><path class="aa166-2" d="M9,22H8v2H9Z"/><path class="aa166-11" d="M8,19V16H6v4H8Z"/><path class="aa166-6" d="M6,18V16H5v1H4v4H5V20H6Z"/><path class="aa166-11" d="M4,19V17H2v4H4Z"/></svg>