<svg xmlns="http://www.w3.org/2000/svg" viewBox="0 0 29 33"><defs><style>polygon,rect,path{shape-rendering:crispedges;}.fa148-1{fill:#000000;}.fa148-2{fill:#225600;}.fa148-3{fill:#6d3e35;}.fa148-4{fill:#225600;}.fa148-5{fill:#ffffff;}.fa148-6{fill:#841f00;}.fa148-7{fill:#b23b00;}.fa148-8{fill:#31a09d;}</style></defs><path class="fa148-1" d="M23,27H22v3H21V27H20v6h1V31h1v2h1V27Z"/><rect class="fa148-1" x="21" y="26" width="1" height="1"/><path class="fa148-2" d="M21,28v2h1V27H21Z"/><path class="fa148-3" d="M21,31v2h1V31Z"/><path class="fa148-1" d="M20,26h1V25H19v1Z"/><path class="fa148-2" d="M19,32V31H18v1H17V29h1V28h1v1h1V27h1V26H19V25H17v1H16v1H13V26H12V25H10v1H8v1H9v2h1V28h1v1h1v3H11V31H10v1H9v1H20V32Zm-3-2v1H15v1H13V28h2v1h1Z"/><path class="fa148-2" d="M15,29H14v2h1V29Z"/><rect class="fa148-2" x="18" y="29" width="1" height="1"/><rect class="fa148-2" x="10" y="29" width="1" height="1"/><path class="fa148-1" d="M12,26h1v1h3V26h1V25h2V24H17V22h1V21h1V20h1V17h1V15H20V13H9v2H8v2H9v3h1v1h1v1h1v2H10v1h2Zm4-11V14h1v1h2v1H16Zm0,5v1H13V20Zm-5-4H10V14h1v1h2v1Z"/><path class="fa148-1" d="M10,25H8v1h2Z"/><path class="fa148-1" d="M9,31V27H8v3H7V27H6v6H7V31H8v2H9V31Z"/><rect class="fa148-1" x="7" y="26" width="1" height="1"/><path class="fa148-2" d="M7,30H8V27H7v3Z"/><path class="fa148-3" d="M7,31v2H8V31Z"/><path class="fa148-4" d="M19,30H18V29H17v3h1V31h1v1h1V29H19Z"/><rect class="fa148-4" x="18" y="28" width="1" height="1"/><path class="fa148-4" d="M15,30v1h1V29H15Z"/><path class="fa148-4" d="M14,30V29h1V28H13v4h2V31H14Z"/><path class="fa148-4" d="M9,32h1V31h1v1h1V29H11v1H10V29H9v3Z"/><rect class="fa148-4" x="10" y="28" width="1" height="1"/><path class="fa148-3" d="M19,16V15H16v1h3Z"/><rect class="fa148-3" x="13" y="20" width="3" height="1"/><path class="fa148-3" d="M13,15H10v1h3Z"/><path class="fa148-5" d="M11,14H10v1h1Z"/><path class="fa148-5" d="M17,14H16v1h1Z"/><path class="fa148-6" d="M19,12v1h1V11H19Z"/><path class="fa148-7" d="M10,12v1h1V11h1v2h1V11h1v2h1V11h1v2h1V11h1v2h1V11h1V10H19V9H18V8H11V9H10v1H9v1h1Z"/><path class="fa148-6" d="M17,11v2h1V11Z"/><path class="fa148-6" d="M15,11v2h1V11Z"/><path class="fa148-6" d="M13,11v2h1V11Z"/><path class="fa148-6" d="M11,11v2h1V11Z"/><path class="fa148-6" d="M10,12V11H9v2h1Z"/><path class="fa148-8" d="M0,8V33H6V27H7V26H8V25h2V24h2V22H11V21H10V20H9V17H8V15H9V10h1V9h1V8h7V9h1v1h1v5h1v2H20v3H19v1H18v1H17v2h2v1h2v1h1v1h1v6h6V0H0Z"/></svg>