<svg xmlns="http://www.w3.org/2000/svg" viewBox="0 0 29 33"><defs><style>polygon,rect,path{shape-rendering:crispedges;}.ra34-1{fill:#db5a8e;}.ra34-2{fill:#000000;}.ra34-3{fill:#8c7850;}.ra34-4{fill:#e8b795;}.ra34-5{fill:#8c7850;}.ra34-6{fill:#ffffff;}.ra34-7{fill:#00774c;}.ra34-8{fill:#00774c;}.ra34-9{fill:#ff6aa5;}.ra34-10{fill:#ad5a21;}</style></defs><rect class="ra34-1" x="10" y="21" width="1" height="1"/><path class="ra34-1" d="M0,33H6V25H7V23H8V22H9V21H8V20H7V19H8V12H9V10h1V9h1V8h7V9h1v1h1v2h1v7h1v1H21v1H20v1H19v1H18v1h1v1h2v1h1v1h1v6h6V0H0Z"/><rect class="ra34-1" x="18" y="21" width="1" height="1"/><path class="ra34-2" d="M23,27H22v6h1V27Z"/><path class="ra34-3" d="M22,27H21v6h1V27Z"/><rect class="ra34-2" x="21" y="26" width="1" height="1"/><path class="ra34-2" d="M21,27H20v6h1V27Z"/><rect class="ra34-3" x="10" y="29" width="1" height="1"/><rect class="ra34-3" x="18" y="29" width="1" height="1"/><path class="ra34-3" d="M10,28h1v1h1V26H11v1H9v2h1Z"/><path class="ra34-3" d="M16,25h1v4h1V28h1v1h1V27h1V26H19V25H18V24H16Z"/><rect class="ra34-3" x="12" y="24" width="1" height="1"/><path class="ra34-3" d="M19,32V31H18v1H17V30H16v1H15v1H13V30H12v2H11V31H10v1H9v1H20V32Z"/><path class="ra34-2" d="M20,26h1V25H19v1Z"/><rect class="ra34-2" x="18" y="24" width="1" height="1"/><rect class="ra34-2" x="18" y="22" width="1" height="1"/><rect class="ra34-3" x="17" y="22" width="1" height="1"/><path class="ra34-2" d="M14,25h2V24H13v1Z"/><path class="ra34-4" d="M16,24V23H13v1h3Z"/><rect class="ra34-3" x="11" y="22" width="1" height="1"/><path class="ra34-2" d="M9,31V27H8v6H9V31Z"/><path class="ra34-3" d="M8,27H7v6H8V27Z"/><path class="ra34-2" d="M7,27V25H6v8H7V27Z"/><path class="ra34-3" d="M13,25v3h2v1h1V25H13Z"/><path class="ra34-3" d="M14,29v2h1V29Z"/><path class="ra34-5" d="M19,30H18V29H17v3h1V31h1v1h1V29H19Z"/><rect class="ra34-5" x="18" y="28" width="1" height="1"/><path class="ra34-5" d="M15,29v2h1V29Z"/><path class="ra34-5" d="M14,30V29h1V28H13v4h2V31H14Z"/><path class="ra34-5" d="M11,29v1H10V29H9v3h1V31h1v1h1V29Z"/><rect class="ra34-5" x="10" y="28" width="1" height="1"/><path class="ra34-2" d="M13,25H12v5h1V25Z"/><path class="ra34-2" d="M17,28V25H16v5h1V28Z"/><path class="ra34-2" d="M20,16h1V15H20Z"/><rect class="ra34-2" x="19" y="14" width="1" height="1"/><path class="ra34-4" d="M12,21h1v1h3V21h1V20h1V19h1V16h1V15H16V14h2V13H16V12h1V11H16V10H13v1H12v1h1v1H11v1h2v1H9v1h1v3h1v1h1Zm2-5h1v1H14Zm-1,3h3V18h1v1H16v1H13Z"/><path class="ra34-2" d="M19,17v2h1V16H19Z"/><rect class="ra34-2" x="18" y="19" width="1" height="1"/><rect class="ra34-2" x="17" y="20" width="1" height="1"/><path class="ra34-2" d="M17,22V21H16v1H13V21H12v3h1V23h3v1h2V23H17Z"/><rect class="ra34-2" x="11" y="20" width="1" height="1"/><rect class="ra34-2" x="10" y="19" width="1" height="1"/><path class="ra34-2" d="M10,14H9v1h1Z"/><path class="ra34-2" d="M10,16H9v3h1V16Z"/><path class="ra34-2" d="M9,15H8v1H9Z"/><rect class="ra34-2" x="14" y="16" width="1" height="1"/><path class="ra34-6" d="M13,15V14H12v1Z"/><path class="ra34-6" d="M11,15V14H10v1Z"/><path class="ra34-6" d="M19,15V14H18v1Z"/><path class="ra34-6" d="M16,14v1h1V14Z"/><path class="ra34-2" d="M12,15V14H11v1Z"/><path class="ra34-2" d="M17,15h1V14H17Z"/><path class="ra34-7" d="M13,12H11v1h2Z"/><path class="ra34-7" d="M16,13h2V12H16Z"/><rect class="ra34-2" x="13" y="19" width="3" height="1"/><rect class="ra34-2" x="16" y="18" width="1" height="1"/><path class="ra34-8" d="M20,17v2H19v1H18v1h1v1h1V21h1V20h1V19H21V16H20Z"/><path class="ra34-8" d="M9,14h2V12h1V11h1V10h3v1h1v1h1v2h2v1h1V12H20V10H19V9H18V8H11V9H10v1H9v2H8v3H9Z"/><path class="ra34-8" d="M10,21h1V20H10V19H9V16H8v3H7v1H8v1H9v1h1Z"/><path class="ra34-8" d="M12,22V21H11v1Z"/><rect class="ra34-8" x="17" y="21" width="1" height="1"/><path class="ra34-4" d="M8,27H9V25H7v2Z"/><path class="ra34-9" d="M8,23H7v1H8Z"/><rect class="ra34-9" x="8" y="22" width="1" height="1"/><rect class="ra34-9" x="10" y="22" width="1" height="1"/><path class="ra34-9" d="M11,25H9v1h2Z"/><rect class="ra34-9" x="11" y="24" width="1" height="1"/><path class="ra34-10" d="M8,25H9V24h1v1h1V23H8v2Z"/><path class="ra34-10" d="M11,26H9v1h2Z"/><path class="ra34-6" d="M8,24H7v1H8Z"/><path class="ra34-6" d="M10,23V22H9v1Z"/><path class="ra34-6" d="M12,23H11v1h1Z"/><path class="ra34-6" d="M12,26V25H11v1Z"/><path class="ra34-2" d="M10,24H9v1h1Z"/></svg>