<svg xmlns="http://www.w3.org/2000/svg" viewBox="0 0 29 33"><defs><style>polygon,rect,path{shape-rendering:crispedges;}.ab162-1{fill:#6b4f99;}.ab162-2{fill:#000000;}.ab162-3{fill:#ffb38d;}.ab162-4{fill:#efcaaf;}.ab162-5{fill:#8e4717;}.ab162-6{fill:#ffffff;}.ab162-7{fill:#317f03;}.ab162-8{fill:#455054;}.ab162-9{fill:#ffce00;}.ab162-10{fill:#ff1f4a;}</style></defs><path class="ab162-1" d="M8,32H6V31H5V22H6V21H7V20H5v1H2V17H5V16H8V15H9V10h1V9h1V8h7V9h1v1h1v5h1v1H20v6H19v3h2v1h1v1h1v6h6V0H0V33H8Z"/><path class="ab162-1" d="M8,18v4H9V16H8v2Z"/><path class="ab162-1" d="M9,24H8v1h2V24Z"/><path class="ab162-2" d="M6,24V22H5v9H6V24Z"/><path class="ab162-2" d="M23,27H22v6h1V27Z"/><path class="ab162-3" d="M22,27H21v6h1V27Z"/><rect class="ab162-2" x="21" y="26" width="1" height="1"/><path class="ab162-2" d="M21,27H20v6h1V27Z"/><path class="ab162-3" d="M20,27h1V26H19V25H18v1H16V25H15v2H14V25H13v1H11v1H10V26H8v1H9v6h5V32h1v1h5V27Zm-5,4H14V30h1Zm0-2H14V28h1Z"/><path class="ab162-2" d="M20,26h1V25H19v1Z"/><rect class="ab162-3" x="16" y="24" width="1" height="1"/><path class="ab162-2" d="M16,25v1h1V25Z"/><rect class="ab162-2" x="15" y="24" width="1" height="1"/><rect class="ab162-2" x="14" y="32" width="1" height="1"/><rect class="ab162-2" x="14" y="30" width="1" height="1"/><rect class="ab162-2" x="14" y="28" width="1" height="1"/><path class="ab162-2" d="M14,26v1h1V25H14Z"/><rect class="ab162-2" x="13" y="24" width="1" height="1"/><path class="ab162-4" d="M16,24V23H13v1h1v1h1V24Z"/><rect class="ab162-3" x="12" y="24" width="1" height="1"/><path class="ab162-2" d="M11,25v1h2V25H11Z"/><path class="ab162-2" d="M9,27H8V26h2V25H8V24H7v7H6v1H8v1H9V27Z"/><path class="ab162-3" d="M7,30V24H6v7H7Z"/><rect class="ab162-2" x="20" y="15" width="1" height="1"/><path class="ab162-4" d="M10,16v3h1v1h1v1h1v1h3V21h1V20h1V19h1V14H18v1H16v1H15v1H14V16H13V15H11V14h1V13h1V12h3v1h1v1h1V12H17V11H15V10H12v1H11v2H10v2H9v1Zm3,3h3V18h1v1H16v1H13Z"/><path class="ab162-2" d="M19,17v2h1V16H19Z"/><rect class="ab162-2" x="18" y="19" width="1" height="1"/><rect class="ab162-2" x="17" y="20" width="1" height="1"/><path class="ab162-2" d="M12,24h1V23h3v1h1V21H16v1H13V21H12v3Z"/><rect class="ab162-2" x="11" y="20" width="1" height="1"/><rect class="ab162-2" x="10" y="19" width="1" height="1"/><path class="ab162-2" d="M10,18V16H9v3h1Z"/><rect class="ab162-2" x="8" y="15" width="1" height="1"/><path class="ab162-5" d="M17,15h1V14H17Z"/><rect class="ab162-5" x="16" y="13" width="1" height="1"/><rect class="ab162-2" x="14" y="14" width="1" height="1"/><path class="ab162-6" d="M16,14V13H13v1H12v1h1v1h3V15h1V14Zm-1,1H14V14h1Z"/><path class="ab162-5" d="M16,13V12H13v1h3Z"/><rect class="ab162-5" x="12" y="13" width="1" height="1"/><path class="ab162-5" d="M11,14v1h1V14Z"/><path class="ab162-2" d="M14,17h1V16H14Z"/><rect class="ab162-2" x="13" y="19" width="3" height="1"/><rect class="ab162-2" x="16" y="18" width="1" height="1"/><path class="ab162-7" d="M12,25V21H11V20H10V19H9v5h1v3h1V25Z"/><path class="ab162-7" d="M10,14V13h1V11h1V10h3v1h2v1h1v2h1v2h1V10H19V9H18V8H11V9H10v1H9v5h1Z"/><path class="ab162-7" d="M19,20H18v1H17v5h1V25h1V22h1V19H19Z"/><path class="ab162-4" d="M7,24H8V22H6v2Z"/><path class="ab162-8" d="M8,22V20H7v2Z"/><path class="ab162-2" d="M7,21H6v1H7Z"/><path class="ab162-2" d="M9,22H8v2H9Z"/><path class="ab162-2" d="M5,17H2v1H5Z"/><path class="ab162-2" d="M8,16H5v1H8Z"/><path class="ab162-9" d="M8,19H5v1H8Z"/><path class="ab162-9" d="M2,21H5V20H2Z"/><path class="ab162-10" d="M8,19V17H5v1H2v2H5V19Z"/></svg>