<svg xmlns="http://www.w3.org/2000/svg" viewBox="0 0 29 33"><defs><style>polygon,rect,path{shape-rendering:crispedges;}.aa37-1{fill:#db5a8e;}.aa37-2{fill:#000000;}.aa37-3{fill:#b2622b;}.aa37-4{fill:#508e91;}.aa37-5{fill:#c6e5e4;}.aa37-6{fill:#ffffff;}.aa37-7{fill:#5e362f;}.aa37-8{fill:#5e362f;}.aa37-9{fill:#d8be00;}.aa37-10{fill:#381616;}.aa37-11{fill:#fad000;}</style></defs><path class="aa37-1" d="M0,33H6V26H5V25H6V24H5V21H6V20H9v1h1v3h2V21H11V20H10V19H9V16H8V15H9V11h1V10h1V9h2V7h1V5h1V6h1V8h1V9h1v1h1v1h1v4h1v1H20v3H19v1H18v1H17v3h2v1h2v1h1v1h1v6h6V0H0Z"/><rect class="aa37-1" x="9" y="24" width="1" height="1"/><path class="aa37-2" d="M23,31V27H22v6h1Z"/><rect class="aa37-2" x="21" y="26" width="1" height="1"/><path class="aa37-3" d="M22,31V27H21v6h1Z"/><rect class="aa37-3" x="20" y="26" width="1" height="1"/><path class="aa37-2" d="M21,31V27H20v6h1Z"/><path class="aa37-2" d="M20,26h1V25H19v1Z"/><rect class="aa37-4" x="18" y="30" width="1" height="1"/><path class="aa37-4" d="M17,31V30h1V29h1v1h1V26H19V25H18v1H17v1H16v1H13V27H12V26H11V25H10v1H9v4h1V29h1v1h1v3h1V29h2v1h1v2H15v1h2Z"/><rect class="aa37-4" x="18" y="32" width="1" height="1"/><rect class="aa37-4" x="10" y="30" width="1" height="1"/><path class="aa37-4" d="M14,31v1h1V30H14Z"/><rect class="aa37-4" x="10" y="32" width="1" height="1"/><path class="aa37-2" d="M13,23h3v1h1V21H16v1H13V21H12v3h1Z"/><path class="aa37-2" d="M11,25v1h1V24H10v1Z"/><path class="aa37-2" d="M9,31V26H8v7H9Z"/><path class="aa37-3" d="M8,31V26H9V25H6v1H7v7H8Z"/><path class="aa37-2" d="M7,31V26H6v7H7Z"/><rect class="aa37-2" x="12" y="26" width="1" height="1"/><rect class="aa37-2" x="16" y="26" width="1" height="1"/><path class="aa37-2" d="M17,26h1V25h1V24H17Z"/><path class="aa37-2" d="M14,27H13v1h3V27Z"/><path class="aa37-3" d="M12,26h1v1h3V26h1V24H16V23H13v1H12Z"/><path class="aa37-5" d="M20,31V30H19v1H18V30H17v3h1V32h1v1h1Z"/><rect class="aa37-5" x="18" y="29" width="1" height="1"/><path class="aa37-5" d="M15,32h1V30H15Z"/><path class="aa37-5" d="M14,32V30h1V29H13v4h2V32Z"/><path class="aa37-5" d="M12,31V30H11v1H10V30H9v3h1V32h1v1h1Z"/><rect class="aa37-5" x="10" y="29" width="1" height="1"/><rect class="aa37-2" x="20" y="15" width="1" height="1"/><path class="aa37-2" d="M19,13v2h1V11H19Z"/><path class="aa37-3" d="M10,14h2V13H10Z"/><path class="aa37-3" d="M13,22h3V21h1V20h1V19h1V16h1V15H16V14h2V13H16V12h2v1h1V11H18V10H14v1H13V10H11v1H10v1h2v1h1v2H9v1h1v3h1v1h1v1h1Zm1-6h1v1H14Zm-2,3V18h5v1H16v1H13V19Z"/><path class="aa37-2" d="M19,17v2h1V16H19Z"/><rect class="aa37-2" x="18" y="10" width="1" height="1"/><rect class="aa37-2" x="18" y="19" width="1" height="1"/><rect class="aa37-2" x="17" y="20" width="1" height="1"/><path class="aa37-2" d="M13,10V9H11v1Z"/><path class="aa37-2" d="M15,9v1h3V9Z"/><rect class="aa37-2" x="11" y="20" width="1" height="1"/><rect class="aa37-2" x="10" y="10" width="1" height="1"/><rect class="aa37-2" x="10" y="19" width="1" height="1"/><path class="aa37-2" d="M10,14V11H9v4h1Z"/><path class="aa37-2" d="M10,17V16H9v3h1Z"/><rect class="aa37-2" x="8" y="15" width="1" height="1"/><rect class="aa37-2" x="14" y="16" width="1" height="1"/><rect class="aa37-6" x="12" y="14" width="1" height="1"/><rect class="aa37-6" x="10" y="14" width="1" height="1"/><rect class="aa37-6" x="18" y="14" width="1" height="1"/><rect class="aa37-6" x="16" y="14" width="1" height="1"/><rect class="aa37-2" x="11" y="14" width="1" height="1"/><rect class="aa37-2" x="17" y="14" width="1" height="1"/><rect class="aa37-7" x="18" y="13" width="1" height="1"/><rect class="aa37-7" x="16" y="12" width="2" height="1"/><rect class="aa37-7" x="12" y="13" width="1" height="1"/><rect class="aa37-7" x="10" y="12" width="2" height="1"/><path class="aa37-8" d="M16,19V18H12v1Z"/><rect class="aa37-2" x="13" y="19" width="3" height="1"/><rect class="aa37-2" x="16" y="18" width="1" height="1"/><path class="aa37-9" d="M13,11h1V10h1V9h2V8H16V6H15V5H14V7H13Z"/><rect class="aa37-2" x="5" y="25" width="1" height="1"/><rect class="aa37-2" x="9" y="25" width="1" height="1"/><rect class="aa37-10" x="5" y="21" width="1" height="1"/><path class="aa37-11" d="M9,25V24h1V21H9V20H6v2H5v1H8V22H7V21H8v1H9v1H8v1H6v1Z"/><rect class="aa37-10" x="7" y="21" width="1" height="1"/><path class="aa37-10" d="M8,24V23H5v1Z"/><rect class="aa37-10" x="8" y="22" width="1" height="1"/></svg>