<svg xmlns="http://www.w3.org/2000/svg" viewBox="0 0 29 33"><defs><style>polygon,rect,path{shape-rendering:crispedges;}.pa66-1{fill:#6b4f99;}.pa66-2{fill:#000000;}.pa66-3{fill:#8c7850;}.pa66-4{fill:#ce8452;}.pa66-5{fill:#ffffff;}.pa66-6{fill:#663228;}.pa66-7{fill:#ffffff;}.pa66-8{fill:#72dd40;}.pa66-9{fill:#455054;}.pa66-10{fill:#0079bc;}.pa66-11{fill:#ffce00;}</style></defs><path class="pa66-1" d="M8,18v4H9v2H8v1h2V24h1V23H10V22h1V20H10V19H9V16H8v2Z"/><path class="pa66-1" d="M0,33H8V32H6V31H5V22H6V21H7V20H5v1H2V17H5V16H8V15H9V11h1V10h1V9h7v1h1v1h1v4h1v1H20v3H19v1H18v2h1v1H18v1h1v1h2v1h1v1h1v6h6V0H0Z"/><path class="pa66-2" d="M6,24V22H5v9H6V24Z"/><path class="pa66-2" d="M23,27H22v6h1V27Z"/><path class="pa66-3" d="M22,27H21v6h1V27Z"/><rect class="pa66-2" x="21" y="26" width="1" height="1"/><path class="pa66-2" d="M21,27H20v6h1V27Z"/><rect class="pa66-3" x="10" y="29" width="1" height="1"/><path class="pa66-3" d="M10,28h1v1h1V25h1V24H11v1H10v1H8v1H9v2h1Z"/><path class="pa66-3" d="M19,32V31H18v1H17V30H16v1H15v1H13V30H12v2H11V31H10v1H9v1H20V32Z"/><rect class="pa66-3" x="18" y="29" width="1" height="1"/><path class="pa66-3" d="M16,25h1v4h1V28h1v1h1V27h1V26H19V25H18V24H16Z"/><path class="pa66-2" d="M20,26h1V25H19v1Z"/><rect class="pa66-2" x="18" y="24" width="1" height="1"/><rect class="pa66-2" x="18" y="22" width="1" height="1"/><rect class="pa66-3" x="17" y="22" width="1" height="1"/><path class="pa66-2" d="M14,25h2V24H13v1Z"/><path class="pa66-4" d="M16,24V23H13v1h3Z"/><rect class="pa66-3" x="11" y="22" width="1" height="1"/><rect class="pa66-2" x="10" y="24" width="1" height="1"/><rect class="pa66-2" x="10" y="22" width="1" height="1"/><path class="pa66-2" d="M9,31V27H8V26h2V25H8V24H7v7H6v1H8v1H9V31Z"/><path class="pa66-3" d="M7,30V24H6v7H7Z"/><path class="pa66-3" d="M14,29v2h1V29Z"/><path class="pa66-3" d="M13,25v3h2v1h1V25H13Z"/><path class="pa66-5" d="M19,30H18V29H17v3h1V31h1v1h1V29H19Z"/><rect class="pa66-5" x="18" y="28" width="1" height="1"/><path class="pa66-5" d="M15,29v2h1V29Z"/><path class="pa66-5" d="M14,30V29h1V28H13v4h2V31H14Z"/><path class="pa66-5" d="M11,29v1H10V29H9v3h1V31h1v1h1V29Z"/><rect class="pa66-5" x="10" y="28" width="1" height="1"/><path class="pa66-2" d="M13,25H12v5h1V25Z"/><path class="pa66-2" d="M17,28V25H16v5h1V28Z"/><rect class="pa66-2" x="20" y="15" width="1" height="1"/><path class="pa66-2" d="M19,13v2h1V12H19Z"/><rect class="pa66-4" x="11" y="10" width="1" height="1"/><path class="pa66-4" d="M10,16v3h1v1h1v1h1v1h3V21h1V20h1V19h1V16h1V15H19V11H18v1H17V11H16V10H13v1H12v1H11V11H10v4H9v1Zm7,3H16v1H13V19h3V18h1Zm-6-5h1V13h1V12h3v1h1v1h1v1H16v1H15v1H14V16H13V15H11Z"/><rect class="pa66-4" x="17" y="10" width="1" height="1"/><path class="pa66-2" d="M19,17v2h1V16H19Z"/><rect class="pa66-2" x="18" y="19" width="1" height="1"/><path class="pa66-2" d="M17,21H16v1H13V21H12V20H11v2h1v1H11v1h2V23h3v1h2V23H17V22h1V20H17Z"/><rect class="pa66-2" x="10" y="19" width="1" height="1"/><path class="pa66-2" d="M10,14V12H9v3h1Z"/><path class="pa66-2" d="M10,16H9v3h1V16Z"/><rect class="pa66-2" x="8" y="15" width="1" height="1"/><path class="pa66-6" d="M18,15V14H17v1Z"/><rect class="pa66-6" x="16" y="13" width="1" height="1"/><rect class="pa66-2" x="14" y="14" width="1" height="1"/><path class="pa66-7" d="M13,15v1h3V15h1V14H16V13H13v1H12v1Zm1-1h1v1H14Z"/><path class="pa66-6" d="M16,13V12H13v1h3Z"/><rect class="pa66-6" x="12" y="13" width="1" height="1"/><path class="pa66-6" d="M12,14H11v1h1Z"/><path class="pa66-2" d="M14,17h1V16H14Z"/><rect class="pa66-2" x="13" y="19" width="3" height="1"/><rect class="pa66-2" x="16" y="18" width="1" height="1"/><path class="pa66-8" d="M20,12V11H19v1Z"/><rect class="pa66-8" x="18" y="10" width="1" height="1"/><path class="pa66-8" d="M12,11h1V10h3v1h1V10h1V9H11v1h1Z"/><rect class="pa66-8" x="17" y="11" width="1" height="1"/><rect class="pa66-8" x="11" y="11" width="1" height="1"/><rect class="pa66-8" x="10" y="10" width="1" height="1"/><path class="pa66-8" d="M10,11H9v1h1Z"/><path class="pa66-4" d="M7,24H8V22H6v2Z"/><path class="pa66-9" d="M8,22V20H7v2Z"/><path class="pa66-2" d="M7,21H6v1H7Z"/><path class="pa66-2" d="M9,22H8v2H9Z"/><path class="pa66-10" d="M5,17H2v1H5Z"/><path class="pa66-10" d="M6,16H5v1H6Z"/><path class="pa66-10" d="M8,17V16H7v1Z"/><path class="pa66-10" d="M5,18v1H2v2H5V20H6V18Z"/><path class="pa66-10" d="M8,19V18H7v2H8Z"/><path class="pa66-11" d="M8,18V17H7V16H6v1H5v1H6v2H7V18Z"/><path class="pa66-11" d="M5,19V18H2v1H5Z"/></svg>