<svg xmlns="http://www.w3.org/2000/svg" viewBox="0 0 29 33"><defs><style>polygon,rect,path{shape-rendering:crispedges;}.wa119-1{fill:#e55b35;}.wa119-2{fill:#000000;}.wa119-3{fill:#66334f;}.wa119-4{fill:#e8b795;}.wa119-5{fill:#a0688d;}.wa119-6{fill:#ffffff;}.wa119-7{fill:#8e703c;}.wa119-8{fill:#8e703c;}.wa119-9{fill:#cbed03;}.wa119-10{fill:#455054;}.wa119-11{fill:#0079bc;}.wa119-12{fill:#ffce00;}</style></defs><path class="wa119-1" d="M10,22h1V20H9V18H8v4H9v2H8v1h2V22Z"/><path class="wa119-1" d="M8,32H6V31H5V22H6V21H7V20H5v1H2V17H5V16H8V12H9V11h1V10h1V9h7v1h1v1h1v2h1v5H20v2H18v2h1v3h2v1h1v1h1v6h6V0H0V33H8Z"/><path class="wa119-2" d="M6,29V22H5v9H6V29Z"/><path class="wa119-2" d="M23,27H22v6h1V27Z"/><path class="wa119-3" d="M21,31h1V30H21Z"/><path class="wa119-3" d="M21,28h1V27H21Z"/><rect class="wa119-2" x="21" y="26" width="1" height="1"/><path class="wa119-2" d="M21,30V27H20v4H14V27H13v4H9V27H8V26h2V25H8V24H7v7H6v1H8v1H9V32H20v1h1V30Z"/><path class="wa119-2" d="M20,26h1V25H19v1Z"/><path class="wa119-2" d="M18,25h1V22H18v3Z"/><path class="wa119-3" d="M14,27v1h6V27H14Z"/><path class="wa119-3" d="M18,25V24H16v1Z"/><path class="wa119-3" d="M14,31h6V30H14Z"/><rect class="wa119-2" x="15" y="24" width="1" height="1"/><path class="wa119-2" d="M15,26V25H14v2h1Z"/><rect class="wa119-2" x="13" y="24" width="1" height="1"/><path class="wa119-4" d="M14,25h1V24h1V23H13v1h1Z"/><path class="wa119-2" d="M11,24V22H10v3h1Z"/><path class="wa119-3" d="M9,31h4V30H9Z"/><path class="wa119-3" d="M9,28h4V27H9Z"/><path class="wa119-3" d="M11,25h2V24H11Z"/><path class="wa119-3" d="M6,28H7V27H6Z"/><path class="wa119-3" d="M7,30H6v1H7Z"/><path class="wa119-3" d="M6,25H7V24H6Z"/><rect class="wa119-4" x="13" y="20" width="1" height="1"/><rect class="wa119-4" x="15" y="20" width="1" height="1"/><rect class="wa119-4" x="16" y="19" width="1" height="1"/><path class="wa119-4" d="M18,14V13H16v1h2Z"/><rect class="wa119-4" x="12" y="19" width="1" height="1"/><rect class="wa119-4" x="19" y="15" width="1" height="1"/><rect class="wa119-4" x="9" y="15" width="1" height="1"/><path class="wa119-4" d="M12,12V11H11v2h1Z"/><path class="wa119-4" d="M11,19h1V18h5v1h2V18H18V15H17v2H16V15H15V11H14v1H13v2h1v2h1v1H14V16H13V15H11v3H10v1Z"/><path class="wa119-2" d="M19,16v2h1V16Z"/><path class="wa119-2" d="M18,19v1h1V19Z"/><path class="wa119-2" d="M17,21H16v1H13V21H12V20H11v2h1v2h1V23h3v1h1V22h1V20H17Z"/><path class="wa119-2" d="M10,19v1h1V19Z"/><rect class="wa119-2" x="9" y="14" width="1" height="1"/><path class="wa119-2" d="M10,17V16H9v2h1Z"/><rect class="wa119-2" x="14" y="16" width="1" height="1"/><path class="wa119-5" d="M19,32H9v1H20V32Z"/><path class="wa119-5" d="M14,29v1h6V28H14Z"/><path class="wa119-5" d="M9,29v1h4V28H9Z"/><path class="wa119-5" d="M13,25H10v1H8v1h6V25Z"/><path class="wa119-5" d="M16,25H15v2h6V26H19V25H16Z"/><path class="wa119-5" d="M6,29v1H7V28H6Z"/><path class="wa119-5" d="M6,26v1H7V25H6Z"/><path class="wa119-5" d="M21,31v2h1V31Z"/><path class="wa119-5" d="M21,29v1h1V28H21Z"/><path class="wa119-5" d="M12,24V22H11v2Z"/><path class="wa119-5" d="M17,23v1h1V22H17Z"/><path class="wa119-6" d="M13,15V14H12v1Z"/><path class="wa119-6" d="M17,14H16v1h1Z"/><path class="wa119-2" d="M12,14H11v1h1Z"/><path class="wa119-2" d="M17,15h1V14H17Z"/><path class="wa119-7" d="M18,12H16v1h2Z"/><rect class="wa119-7" x="11" y="13" width="1" height="1"/><path class="wa119-8" d="M17,19v1h1V19Z"/><rect class="wa119-8" x="16" y="20" width="1" height="1"/><path class="wa119-8" d="M15,20H14v1H13v1h3V21H15Z"/><path class="wa119-8" d="M14,19h2V18H12v1h2Z"/><rect class="wa119-8" x="12" y="20" width="1" height="1"/><rect class="wa119-8" x="11" y="19" width="1" height="1"/><path class="wa119-2" d="M13,19v1h3V19H13Z"/><path class="wa119-2" d="M16,18v1h1V18Z"/><path class="wa119-9" d="M8,18H9V14h1v4h1V11h1v3h1V12h1V11h1v4h1V12h2v6h1V15h1v3h1V13H20V11H19V10H18V9H11v1H10v1H9v1H8v6Z"/><path class="wa119-9" d="M10,20V18H9v2Z"/><path class="wa119-9" d="M13,16h1V14H13v2Z"/><path class="wa119-9" d="M17,17V15H16v2Z"/><path class="wa119-9" d="M19,19v1h1V18H19Z"/><path class="wa119-4" d="M7,24H8V22H6v2Z"/><path class="wa119-10" d="M8,22V20H7v2Z"/><path class="wa119-2" d="M7,21H6v1H7Z"/><path class="wa119-2" d="M9,22H8v2H9Z"/><path class="wa119-11" d="M5,17H2v1H5Z"/><path class="wa119-11" d="M6,16H5v1H6Z"/><path class="wa119-11" d="M8,17V16H7v1Z"/><path class="wa119-11" d="M5,18v1H2v2H5V20H6V18Z"/><path class="wa119-11" d="M8,19V18H7v2H8Z"/><path class="wa119-12" d="M8,18V17H7V16H6v1H5v1H6v2H7V18Z"/><path class="wa119-12" d="M5,19V18H2v1H5Z"/></svg>