<svg xmlns="http://www.w3.org/2000/svg" viewBox="0 0 29 33"><defs><style>polygon,rect,path{shape-rendering:crispedges;}.ma255-1{fill:#b4bd09;}.ma255-2{fill:#000000;}.ma255-3{fill:#0079bc;}.ma255-4{fill:#ffffff;}.ma255-5{fill:#b2622b;}.ma255-6{fill:#002b4f;}.ma255-7{fill:#473a35;}.ma255-8{fill:#473a35;}.ma255-9{fill:#c8a715;}.ma255-10{fill:#990000;}.ma255-11{fill:#68aaad;}</style></defs><path class="ma255-1" d="M12,22H11v2h1V22Z"/><path class="ma255-1" d="M0,33H6V27H7V26H8V25h2V20H9V16H8V15H9V11h1V10H9V9h1V8h2V7h1V8h3V9h1V8h1V9h1v1h1v5h1v1H20v4H19v5h2v1h1v1h1v6h6V0H0Z"/><path class="ma255-1" d="M18,22H17v2h1V22Z"/><rect class="ma255-1" x="12" y="8" width="1" height="1"/><path class="ma255-2" d="M23,27H22v6h1V27Z"/><rect class="ma255-2" x="21" y="26" width="1" height="1"/><path class="ma255-3" d="M21,28h1V27H21Z"/><path class="ma255-3" d="M21,31v1h1V30H21Z"/><path class="ma255-2" d="M21,31V27H20v6h1V31Z"/><path class="ma255-3" d="M19,31V30H18v2h1v1h1V31Z"/><path class="ma255-3" d="M18,26v2h1v1h1V27H19V25H18Z"/><path class="ma255-2" d="M20,26h1V25H19v1Z"/><path class="ma255-2" d="M18,31V25h1V24H17v1H16v1h1v7h1V31Z"/><path class="ma255-4" d="M17,26H16v1H13V26H12v7h5V26Z"/><path class="ma255-2" d="M13,26v1h3V26H13Z"/><path class="ma255-5" d="M16,23H13v3h3V23Z"/><path class="ma255-2" d="M12,26h1V25H12V24H10v1h1v8h1V26Z"/><path class="ma255-3" d="M10,31V30H9v2h1v1h1V31Z"/><path class="ma255-3" d="M10,26H9v2h1v1h1V27H10Z"/><path class="ma255-2" d="M10,26V25H8v1h2Z"/><path class="ma255-2" d="M9,31V27H8v6H9V31Z"/><rect class="ma255-2" x="7" y="26" width="1" height="1"/><path class="ma255-3" d="M8,29V27H7v2Z"/><path class="ma255-3" d="M7,31v2H8V31Z"/><path class="ma255-2" d="M7,30V27H6v6H7V30Z"/><path class="ma255-6" d="M21,29v1h1V28H21Z"/><path class="ma255-6" d="M21,32v1h1V32Z"/><path class="ma255-6" d="M19,26v1h2V26H19Z"/><path class="ma255-6" d="M19,28H18v2h1v1h1V29H19Z"/><path class="ma255-6" d="M18,32v1h1V32Z"/><path class="ma255-6" d="M10,27h1V25H10v2Z"/><path class="ma255-6" d="M10,28H9v2h1v1h1V29H10Z"/><path class="ma255-6" d="M9,32v1h1V32Z"/><path class="ma255-6" d="M9,27V26H8v1Z"/><path class="ma255-6" d="M7,30v1H8V29H7Z"/><rect class="ma255-2" x="20" y="15" width="1" height="1"/><rect class="ma255-5" x="9" y="15" width="1" height="1"/><rect class="ma255-5" x="18" y="12" width="1" height="1"/><polygon class="ma255-5" points="13 21 14 21 14 22 15 22 15 21 16 21 16 20 13 20 13 21"/><path class="ma255-5" d="M18,16H16V15H13v1H10v2h1v1h1V18h2v1h1V18h2v1h1V18h1V16Zm-3,1H14V16h1Z"/><rect class="ma255-5" x="19" y="15" width="1" height="1"/><path class="ma255-5" d="M12,13h2v1h1V13h1V12h2V11H17V10H16v1H11v1h1Z"/><path class="ma255-2" d="M19,17h1V16H19Z"/><path class="ma255-2" d="M10,16H9v1h1Z"/><rect class="ma255-2" x="8" y="15" width="1" height="1"/><rect class="ma255-2" x="14" y="16" width="1" height="1"/><path class="ma255-7" d="M16,13h2V12H16Z"/><path class="ma255-7" d="M12,12H10v1h2Z"/><path class="ma255-8" d="M12,22v1h5V22h2V20h1V17H19v1H18v1H17V18H15v1h1v2H15v1H14V21H13V19h1V18H12v1H11V18H10V17H9v3h1v2h2Z"/><path class="ma255-9" d="M18,23h1V22H18Z"/><path class="ma255-8" d="M18,24h1V23H18Z"/><path class="ma255-9" d="M16,23v1h1V23Z"/><path class="ma255-8" d="M16,25h1V24H16Z"/><path class="ma255-9" d="M13,23H12v1h1Z"/><path class="ma255-8" d="M12,24v1h1V24Z"/><path class="ma255-9" d="M11,22H10v1h1Z"/><path class="ma255-8" d="M11,23H10v1h1Z"/><path class="ma255-2" d="M13,19v1h3V19H13Z"/><path class="ma255-10" d="M10,13V12h1V11h5V10h1v1h1v1h1v2h1V10H19V9H18V8H17V9H16V8H13V9H12V8H10V9H9v1h1v1H9v3h1Z"/><rect class="ma255-10" x="12" y="7" width="1" height="1"/><path class="ma255-11" d="M13,16V15h1V14H10v2h3Z"/><path class="ma255-11" d="M15,14v1h1v1h3V14H15Z"/><path class="ma255-2" d="M17,13H15v1h4V13H17Z"/><path class="ma255-2" d="M14,14V13H10v1h4Z"/><path class="ma255-2" d="M19,15h1V14H19Z"/><path class="ma255-2" d="M10,14H9v1h1Z"/><path class="ma255-2" d="M14,14v1h1V14Z"/></svg>