<svg xmlns="http://www.w3.org/2000/svg" viewBox="0 0 29 33"><defs><style>polygon,rect,path{shape-rendering:crispedges;}.eb23-1{fill:#6b4f99;}.eb23-2{fill:#000000;}.eb23-3{fill:#333333;}.eb23-4{fill:#9b8100;}.eb23-5{fill:#e8b795;}.eb23-6{fill:#90a2a3;}.eb23-7{fill:#ffffff;}.eb23-8{fill:#473a35;}.eb23-9{fill:#db5800;}.eb23-10{fill:#508e5d;}.eb23-11{fill:#6d5800;}.eb23-12{fill:#fad000;}.eb23-13{fill:#ea1500;}</style></defs><path class="eb23-1" d="M6,32V27H7V26H8V25H9V24h1V23h1V22h1V21H11V20H10V19H9V16H8V15H9V11h1V10h1V9h7v1h1v1h1v4h1v1H20v3H19v1H18v1H17v1h1v1h1v1h1v1h1V23h1V22H21V19h1v1h1V18h1V17h3v5H26v1H25v1H24v7H23v1H21v1h8V0H0V33H6Z"/><path class="eb23-2" d="M7,27H6v6H7V27Z"/><path class="eb23-3" d="M8,27H7v6H8V27Z"/><path class="eb23-2" d="M9,29h1V28h2V27H9V25H8v1H7v1H8v6H9V29Z"/><rect class="eb23-2" x="9" y="24" width="1" height="1"/><path class="eb23-3" d="M12,32V31H11V30H10V29H9v4h4V32Z"/><rect class="eb23-2" x="10" y="23" width="1" height="1"/><path class="eb23-3" d="M10,26v1h2v1H10v1h1v1h1v1h1V26H12V25H11V24H10v1H9v1Z"/><rect class="eb23-2" x="10" y="29" width="1" height="1"/><rect class="eb23-3" x="11" y="23" width="1" height="1"/><rect class="eb23-2" x="11" y="24" width="1" height="1"/><rect class="eb23-2" x="11" y="30" width="1" height="1"/><path class="eb23-2" d="M12,24h1V22H11v1h1Z"/><rect class="eb23-2" x="12" y="25" width="1" height="1"/><path class="eb23-2" d="M17,32V31H16V26H13v5H12v1h1v1h1V27h1v6h1V32Z"/><path class="eb23-4" d="M15,27H14v6h1V27Z"/><path class="eb23-5" d="M17,25V24H16V23H13v1H12v1h1v1h3V25Z"/><rect class="eb23-2" x="16" y="25" width="1" height="1"/><path class="eb23-3" d="M20,29H19v1H18v1H17v1H16v1h4V29Z"/><rect class="eb23-3" x="17" y="23" width="1" height="1"/><rect class="eb23-2" x="17" y="24" width="1" height="1"/><rect class="eb23-2" x="17" y="30" width="1" height="1"/><rect class="eb23-2" x="18" y="23" width="1" height="1"/><rect class="eb23-2" x="18" y="29" width="1" height="1"/><rect class="eb23-2" x="19" y="24" width="1" height="1"/><path class="eb23-3" d="M18,25H17v1H16v5h1V30h1V29h1V28H17V27h2V26h1V25H19V24H18Z"/><path class="eb23-2" d="M22,32h1V31H22V23H21v2H20v2H17v1h2v1h1v4h1V32Z"/><path class="eb23-3" d="M23,25V24H22v7h1V25Z"/><path class="eb23-2" d="M23,25v6h1V24H23Z"/><path class="eb23-6" d="M19,27h1V26H19Z"/><path class="eb23-6" d="M9,26v1h1V26Z"/><rect class="eb23-2" x="20" y="15" width="1" height="1"/><path class="eb23-5" d="M18,15H15v2H14V15H13v1H11v1H10v1h1v1h1V18h2v1h1V18h2v1h1V18h1V16h1V15H18Z"/><rect class="eb23-5" x="15" y="20" width="1" height="1"/><rect class="eb23-5" x="9" y="15" width="1" height="1"/><rect class="eb23-5" x="13" y="20" width="1" height="1"/><path class="eb23-2" d="M19,17h1V16H19Z"/><path class="eb23-2" d="M16,23v1h1V23h1V22H16Z"/><path class="eb23-2" d="M10,16H9v1h1Z"/><rect class="eb23-2" x="8" y="15" width="1" height="1"/><path class="eb23-2" d="M15,17V16H14v1Z"/><path class="eb23-7" d="M17,14H16v1h1Z"/><path class="eb23-2" d="M18,15h1V14H17v1Z"/><rect class="eb23-8" x="16" y="13" width="1" height="1"/><path class="eb23-9" d="M13,23h3V22h1V21h1V20h1V19h1V17H19v1H18v1H17V18H15v1h1v2H15V20H14v1H13V19h1V18H12v1H11V18H10V17H9v2h1v1h1v1h1v1h1Z"/><path class="eb23-2" d="M13,19v1h3V19H13Z"/><path class="eb23-10" d="M10,16v1h1V16h2V15h1v1h1V15h1V13h1v1h2v1h1V11H19V10H18V9H11v1H10v1H9v4h1Z"/><path class="eb23-11" d="M21,21v1h1V21Z"/><path class="eb23-12" d="M24,21h1v1H24v1h2V22h1V20H25V19H24V18H23v2H22V19H21v2h1v1h2Z"/><path class="eb23-5" d="M23,24h1V23H22v1Z"/><path class="eb23-11" d="M24,22H22v1h2Z"/><path class="eb23-2" d="M24,24h1V23H24Z"/><rect class="eb23-11" x="24" y="21" width="1" height="1"/><rect class="eb23-2" x="24" y="18" width="1" height="1"/><path class="eb23-13" d="M25,19v1h2V19H25Z"/><path class="eb23-12" d="M25,19h1V18h1V17H24v1h1Z"/><path class="eb23-2" d="M26,19h1V18H26Z"/></svg>