<svg xmlns="http://www.w3.org/2000/svg" viewBox="0 0 29 33"><defs><style>polygon,rect,path{shape-rendering:crispedges;}.ab214-1{fill:#29834f;}.ab214-2{fill:#000000;}.ab214-3{fill:#5a2de2;}.ab214-4{fill:#ce8452;}.ab214-5{fill:#2e1572;}.ab214-6{fill:#663228;}.ab214-7{fill:#004a77;}.ab214-8{fill:#fad000;}.ab214-9{fill:#ffffff;}.ab214-10{fill:#0068ff;}.ab214-11{fill:#ff1f4a;}</style></defs><path class="ab214-1" d="M0,33H6V27H7V26H8V25h2V24h1V23h1V22H11V21H10v1H9V21H8V20H7V19H8V12H9V10h1V9h1V8h7V9h1v1h1v2h1v7h1v1H21v1H20v1H19V21H18v1H17v1h1v1h1v1h2v1h1v1h1v6h6V0H0Z"/><path class="ab214-2" d="M23,27H22v6h1V27Z"/><path class="ab214-3" d="M21,31h1V30H21Z"/><path class="ab214-3" d="M21,28h1V27H21Z"/><rect class="ab214-2" x="21" y="26" width="1" height="1"/><path class="ab214-2" d="M21,30V27H20v6h1V30Z"/><rect class="ab214-3" x="9" y="30" width="5" height="1"/><path class="ab214-3" d="M15,31h5V30H15Z"/><path class="ab214-3" d="M14,27H9v1H20V27H14Z"/><path class="ab214-2" d="M20,26h1V25H19v1Z"/><rect class="ab214-3" x="16" y="24" width="1" height="1"/><rect class="ab214-2" x="15" y="24" width="1" height="1"/><rect class="ab214-2" x="14" y="32" width="1" height="1"/><rect class="ab214-2" x="14" y="30" width="1" height="1"/><path class="ab214-2" d="M15,29V28H14v1Z"/><path class="ab214-2" d="M15,26V25H14v2h1Z"/><rect class="ab214-2" x="13" y="24" width="1" height="1"/><path class="ab214-4" d="M15,24h1V23H13v1h1v1h1Z"/><rect class="ab214-3" x="12" y="24" width="1" height="1"/><path class="ab214-2" d="M11,26h2V25H12V24h1V23h3v1h1v1H16v1h2V25h1V24H18V23H17V21H16v1H13V21H12v2H11v1H10v1h1Z"/><path class="ab214-2" d="M10,25H8v1h2Z"/><path class="ab214-2" d="M9,30V27H8v6H9V30Z"/><path class="ab214-3" d="M7,31H8V30H7Z"/><path class="ab214-3" d="M8,28V27H7v1Z"/><rect class="ab214-2" x="7" y="26" width="1" height="1"/><path class="ab214-2" d="M7,30V27H6v6H7V30Z"/><path class="ab214-5" d="M15,31H9v2h5V32h1v1h5V31Z"/><path class="ab214-5" d="M15,29H14V28H9v2H20V28H15Z"/><path class="ab214-5" d="M18,26H16V25H15v2h6V26H19V25H18Z"/><path class="ab214-5" d="M9,27h5V25H13v1H11V25H10v1H8v1Z"/><path class="ab214-5" d="M7,29v1H8V28H7Z"/><path class="ab214-5" d="M7,31v2H8V31Z"/><path class="ab214-5" d="M21,31v2h1V31Z"/><path class="ab214-5" d="M21,29v1h1V28H21Z"/><path class="ab214-2" d="M20,16h1V15H20Z"/><path class="ab214-4" d="M14,13v1h1V13h1V12h1V11H16V10H13v1H12v1H11v1h3Z"/><rect class="ab214-4" x="14" y="15" width="1" height="1"/><path class="ab214-4" d="M18,20V19h1V16H15v1H14V16H10v3h1v1h1v1h1v1h3V21h1V20Zm-2-1v1H13V19h3V18h1v1Z"/><path class="ab214-2" d="M19,17v2h1V16H19Z"/><rect class="ab214-2" x="18" y="19" width="1" height="1"/><rect class="ab214-2" x="17" y="20" width="1" height="1"/><rect class="ab214-2" x="11" y="20" width="1" height="1"/><rect class="ab214-2" x="10" y="19" width="1" height="1"/><path class="ab214-2" d="M10,16H9v3h1V16Z"/><path class="ab214-2" d="M9,15H8v1H9Z"/><rect class="ab214-2" x="14" y="16" width="1" height="1"/><path class="ab214-6" d="M16,13h2V12H16Z"/><rect class="ab214-2" x="13" y="19" width="3" height="1"/><rect class="ab214-2" x="16" y="18" width="1" height="1"/><path class="ab214-7" d="M20,18v1H19v1H18v1h1v1h1V21h1V20h1V19H21V17H20Z"/><path class="ab214-7" d="M9,14V13h2V12h1V11h1V10h3v1h1v1h1v1h2v2h1V12H20V10H19V9H18V8H11V9H10v1H9v2H8v3H9Z"/><path class="ab214-7" d="M10,20V19H9V17H8v2H7v1H8v1H9v1h1V21h1V20Z"/><path class="ab214-7" d="M11,21v1h1V21Z"/><path class="ab214-7" d="M17,22h1V21H17Z"/><path class="ab214-8" d="M20,17h1V16H20Z"/><path class="ab214-8" d="M9,16H8v1H9Z"/><path class="ab214-9" d="M11,16h3V15h1v1h5V13H15v1H14V13H9v3h2Zm5-2h3v1H16Zm-6,0h3v1H10Z"/><path class="ab214-10" d="M19,15V14H16v1h3Z"/><path class="ab214-11" d="M13,15V14H10v1h3Z"/></svg>