<svg xmlns="http://www.w3.org/2000/svg" viewBox="0 0 29 33"><defs><style>polygon,rect,path{shape-rendering:crispedges;}.za244-1{fill:#e55b35;}.za244-2{fill:#000000;}.za244-3{fill:#00af68;}.za244-4{fill:#c18d59;}.za244-5{fill:#663228;}.za244-6{fill:#663228;}.za244-7{fill:#c8a715;}.za244-8{fill:#00774c;}</style></defs><path class="za244-1" d="M0,33H6V24H7V23H8v1H9v1h1V20H9V16H8V15H9V13H8V9H9V8h1V7h1V6h7V7h1V8h1V9h1v4H20v2h1v1H20v4H19v5h2v1h1v1h1v6h6V0H0Z"/><rect class="za244-1" x="11" y="22" width="1" height="1"/><rect class="za244-1" x="17" y="22" width="1" height="1"/><path class="za244-2" d="M23,27H22v6h1V27Z"/><path class="za244-3" d="M22,27H21v6h1V27Z"/><rect class="za244-2" x="21" y="26" width="1" height="1"/><path class="za244-2" d="M21,27H20v6h1V27Z"/><path class="za244-3" d="M20,27h1V26H19V25H18v1H16V25H15v2H14V25H13v1H11V25H10v2H9v6h5V32h1v1h5V27Zm-5,4H14V30h1Zm0-2H14V28h1Z"/><path class="za244-2" d="M20,26h1V25H19v1Z"/><path class="za244-2" d="M18,23H17v2H16v1h2V25h1V24H18Z"/><rect class="za244-2" x="15" y="24" width="1" height="1"/><rect class="za244-2" x="14" y="32" width="1" height="1"/><rect class="za244-2" x="14" y="30" width="1" height="1"/><rect class="za244-2" x="14" y="28" width="1" height="1"/><path class="za244-2" d="M14,26v1h1V25H14Z"/><rect class="za244-2" x="13" y="24" width="1" height="1"/><path class="za244-4" d="M16,24V23H13v1h1v1h1V24Z"/><path class="za244-2" d="M11,26h2V25H12V23H11v1H10v1h1Z"/><path class="za244-2" d="M9,27H8v6H9V27Z"/><path class="za244-3" d="M8,27H7v6H8V27Z"/><path class="za244-2" d="M7,27V24H6v9H7V27Z"/><rect class="za244-2" x="20" y="15" width="1" height="1"/><rect class="za244-4" x="14" y="15" width="1" height="1"/><rect class="za244-4" x="10" y="12" width="1" height="1"/><path class="za244-4" d="M18,16v1H16V16H15v1H14V16H13v1H11V16H10v2h1v1h1V18h2v1h1V18h2v1h1V18h1V16Z"/><path class="za244-4" d="M17,13V12h1V11H11v1h2v1H11v1h5V13Z"/><rect class="za244-4" x="19" y="15" width="1" height="1"/><polygon class="za244-4" points="13 21 14 21 14 22 15 22 15 21 16 21 16 20 13 20 13 21"/><rect class="za244-4" x="9" y="15" width="1" height="1"/><path class="za244-4" d="M17,13v1h2V13Z"/><path class="za244-2" d="M19,17h1V16H19Z"/><path class="za244-2" d="M10,16H9v1h1Z"/><rect class="za244-2" x="8" y="15" width="1" height="1"/><rect class="za244-2" x="14" y="16" width="1" height="1"/><rect class="za244-5" x="10" y="13" width="1" height="1"/><rect class="za244-5" x="11" y="12" width="2" height="1"/><rect class="za244-5" x="16" y="13" width="1" height="1"/><path class="za244-5" d="M17,13h2V12H17Z"/><path class="za244-6" d="M12,22v1h5V22h2V20h1V17H19v1H18v1H17V18H15v1h1v2H15v1H14V21H13V19H11V18H10V17H9v3h1v2h2Z"/><path class="za244-6" d="M14,18H13v1h1Z"/><path class="za244-7" d="M18,23h1V22H18Z"/><path class="za244-6" d="M18,24h1V23H18Z"/><path class="za244-7" d="M17,24V23H16v1Z"/><path class="za244-6" d="M17,24H16v1h1Z"/><path class="za244-7" d="M13,23H12v1h1Z"/><path class="za244-6" d="M12,24v1h1V24Z"/><path class="za244-7" d="M11,22H10v1h1Z"/><path class="za244-6" d="M11,23H10v1h1Z"/><path class="za244-2" d="M13,19v1h3V19H13Z"/><path class="za244-2" d="M12,18v1h1V18Z"/><path class="za244-4" d="M7,27H9V25H8V24H7v3Z"/><path class="za244-2" d="M10,27V25H9v2Z"/><rect class="za244-2" x="8" y="24" width="1" height="1"/><rect class="za244-2" x="7" y="23" width="1" height="1"/><path class="za244-8" d="M10,13V12h1V11h7v1h1v2h1V13h1V9H20V8H19V7H18V6H11V7H10V8H9V9H8v4H9v1h1Z"/><path class="za244-2" d="M10,16h1v1h2V16h1V15h1v1h1v1h2V16h1V15h1V14H9v1h1Z"/></svg>