<svg xmlns="http://www.w3.org/2000/svg" viewBox="0 0 29 33"><defs><style>polygon,rect,path{shape-rendering:crispedges;}.wa156-1{fill:#397d98;}.wa156-2{fill:#ff791f;}.wa156-3{fill:#000000;}.wa156-4{fill:#ce8452;}.wa156-5{fill:#b23b00;}.wa156-6{fill:#99582c;}.wa156-7{fill:#ffffff;}.wa156-8{fill:#004a77;}.wa156-9{fill:#c8a715;}.wa156-10{fill:#6c9302;}</style></defs><path class="wa156-1" d="M0,33H6V27H7V26H8V25h2V20H9V17H8V15H7V14H8V12H7V10H8v1H9V9H8V8h2V9h1V8h1V7h1V8h1V7h2V8h1V7h1V8h1V7h1V8H19V9H18v1h2V9h1v2H20v1h2v1H20v1h2v1H21v2H20v3H19v5h2v1h1v1h1v6h6V0H0Z"/><path class="wa156-2" d="M18,30V28H17V27H16V25H15v3h1v1h1v2h2V30Z"/><path class="wa156-2" d="M15,30V28H14v3h2V30Z"/><rect class="wa156-2" x="17" y="22" width="1" height="1"/><path class="wa156-2" d="M18,24H17v2h1v2h1v1h1V27H19V25H18Z"/><path class="wa156-2" d="M21,31v1h1V30H21Z"/><rect class="wa156-2" x="21" y="27" width="1" height="1"/><rect class="wa156-2" x="13" y="32" width="1" height="1"/><rect class="wa156-2" x="16" y="32" width="1" height="1"/><rect class="wa156-2" x="10" y="32" width="1" height="1"/><rect class="wa156-2" x="19" y="32" width="1" height="1"/><path class="wa156-2" d="M8,29V27H7v2Z"/><path class="wa156-2" d="M7,31v2H8V31Z"/><rect class="wa156-2" x="9" y="30" width="1" height="1"/><path class="wa156-2" d="M12,29V28H11V27H10V26H9v2h1v1h1v2h2V30H12Z"/><path class="wa156-2" d="M12,25V24H11v2h1v2h1V25Z"/><rect class="wa156-2" x="11" y="22" width="1" height="1"/><path class="wa156-3" d="M23,27H22v6h1V27Z"/><rect class="wa156-3" x="21" y="26" width="1" height="1"/><path class="wa156-3" d="M21,31V27H20v4H14V27H13v4H9V27H8v6H9V32H20v1h1V31Z"/><path class="wa156-3" d="M20,26h1V25H19v1Z"/><path class="wa156-3" d="M18,25h1V24H18Z"/><rect class="wa156-3" x="15" y="24" width="1" height="1"/><path class="wa156-3" d="M15,26V25H14v2h1Z"/><rect class="wa156-3" x="13" y="24" width="1" height="1"/><path class="wa156-4" d="M14,24v1h1V24h1V23H13v1Z"/><path class="wa156-3" d="M11,24H10v1h1Z"/><path class="wa156-3" d="M10,26V25H8v1h2Z"/><rect class="wa156-3" x="7" y="26" width="1" height="1"/><path class="wa156-3" d="M7,30V27H6v6H7V30Z"/><rect class="wa156-4" x="15" y="10" width="1" height="1"/><polygon class="wa156-4" points="13 21 14 21 14 22 15 22 15 21 16 21 16 20 13 20 13 21"/><path class="wa156-4" d="M20,16V15H19V13H17v1h1v1H16v1H15v1H14V16H13V15H11V14H10v1H9v1h1v2h1v1h1V18h2v1h1V18h2v1h1V18h1V16Z"/><path class="wa156-3" d="M19,16v1h1V16Z"/><rect class="wa156-3" x="9" y="13" width="1" height="1"/><path class="wa156-3" d="M10,16H9v1h1Z"/><path class="wa156-5" d="M21,29v1h1V28H21Z"/><path class="wa156-5" d="M21,32v1h1V32Z"/><path class="wa156-5" d="M19,26v1h2V26H19Z"/><path class="wa156-5" d="M19,28H18v2h1v1h1V29H19Z"/><path class="wa156-5" d="M16,26v1h1v1h1V26H17V25H16Z"/><path class="wa156-5" d="M18,32H17v1h2V32Z"/><path class="wa156-5" d="M16,29V28H15v2h1v1h1V29Z"/><path class="wa156-5" d="M15,27H14v1h1Z"/><path class="wa156-5" d="M13,25v2h1V25Z"/><path class="wa156-5" d="M15,32H14v1h2V32Z"/><path class="wa156-5" d="M12,29v1h1V28H12Z"/><rect class="wa156-5" x="11" y="23" width="1" height="1"/><rect class="wa156-5" x="17" y="23" width="1" height="1"/><path class="wa156-5" d="M10,27h1v1h1V26H11V25H10v2Z"/><path class="wa156-5" d="M12,32H11v1h2V32Z"/><path class="wa156-5" d="M10,29V28H9v2h1v1h1V29Z"/><path class="wa156-5" d="M9,32v1h1V32Z"/><path class="wa156-5" d="M9,27V26H8v1Z"/><path class="wa156-5" d="M7,30v1H8V29H7Z"/><path class="wa156-6" d="M18,15V14H17v1Z"/><rect class="wa156-6" x="16" y="13" width="1" height="1"/><rect class="wa156-3" x="14" y="14" width="1" height="1"/><path class="wa156-7" d="M13,15v1h3V15h1V14H16V13H13v1H12v1Zm1-1h1v1H14Z"/><path class="wa156-6" d="M16,12H14v1h2Z"/><rect class="wa156-6" x="12" y="13" width="1" height="1"/><path class="wa156-6" d="M12,15V14H11v1Z"/><path class="wa156-3" d="M14,17h1V16H14Z"/><path class="wa156-4" d="M13,12H12V11H11v2h2Z"/><rect class="wa156-4" x="16" y="12" width="1" height="1"/><path class="wa156-8" d="M12,22v1h5V22h2V20h1V17H19v1H18v1H16v2H15v1H14V21H13V19h1V18H12v1H11V18H10V17H9v3h1v2h2Z"/><path class="wa156-8" d="M15,18v1h1V18Z"/><path class="wa156-9" d="M18,23h1V22H18Z"/><path class="wa156-8" d="M18,24h1V23H18Z"/><path class="wa156-9" d="M17,24V23H16v1Z"/><path class="wa156-8" d="M16,25h1V24H16Z"/><path class="wa156-9" d="M13,24V23H12v1Z"/><rect class="wa156-8" x="12" y="24" width="1" height="1"/><path class="wa156-9" d="M11,22H10v1h1Z"/><path class="wa156-8" d="M11,23H10v1h1Z"/><path class="wa156-3" d="M14,19H13v1h3V19H14Z"/><path class="wa156-3" d="M16,18v1h1V18Z"/><path class="wa156-10" d="M9,15h1V14H9V13h1v1h2V13H11V11h1v1h1v1h1V12h3v1h2v2h1v2h1V15h1V14H20V13h2V12H20V11h1V9H20v1H18V9h1V8H18V7H17V8H16V7H14V8H13V7H12V8H11V9H10V8H8V9H9v2H8V10H7v2H8v2H7v1H8v2H9V15Zm6-5h1v1H15Z"/><rect class="wa156-10" x="19" y="7" width="1" height="1"/></svg>