<svg xmlns="http://www.w3.org/2000/svg" viewBox="0 0 29 33"><defs><style>polygon,rect,path{shape-rendering:crispedges;}.bb153-1{fill:#e55b35;}.bb153-2{fill:#000000;}.bb153-3{fill:#9b8100;}.bb153-4{fill:#ffffff;}.bb153-5{fill:#ce8452;}.bb153-6{fill:#492a23;}.bb153-7{fill:#cbed03;}.bb153-8{fill:#cbed03;}</style></defs><path class="bb153-1" d="M6,32V27H7V26H8V25h2V24h1V23h1V21H11V20H10V19H9V16H8V15H9V11h1V10h1V9h7v1h1v1h1v4h1v1H20v3H19v1H18v1H17v2h1v1h1v1h2v1h1v1h1v6h6V0H0V33H6Z"/><path class="bb153-2" d="M23,27H22v6h1V27Z"/><path class="bb153-3" d="M22,27H21v6h1V27Z"/><rect class="bb153-2" x="21" y="26" width="1" height="1"/><path class="bb153-2" d="M21,27H20v6h1V27Z"/><path class="bb153-3" d="M20,27h1V26H19V25H18v4H17v4h3V27Z"/><path class="bb153-2" d="M20,26h1V25H19v1Z"/><path class="bb153-2" d="M17,29H16v4h1V29Z"/><rect class="bb153-4" x="16" y="24" width="1" height="1"/><path class="bb153-4" d="M16,29h1V26H16V25H13v1H12v3h1v4h1V32h1v1h1V29Zm-1,2H14V30h1Zm0-2H14V28h1Zm0-2H14V26h1Z"/><rect class="bb153-4" x="15" y="23" width="1" height="1"/><rect class="bb153-2" x="14" y="32" width="1" height="1"/><rect class="bb153-2" x="14" y="30" width="1" height="1"/><rect class="bb153-2" x="14" y="28" width="1" height="1"/><rect class="bb153-2" x="14" y="26" width="1" height="1"/><rect class="bb153-4" x="13" y="23" width="1" height="1"/><path class="bb153-2" d="M13,29H12v4h1V29Z"/><rect class="bb153-4" x="12" y="24" width="1" height="1"/><path class="bb153-3" d="M12,29H11V25H10v1H8v1H9v6h3V29Z"/><path class="bb153-2" d="M11,26v3h1V26h1V25H12V24h1V23h1v1H13v1h3V24H15V23h1v1h1v1H16v1h1v3h1V25h1V24H18V23H17V21H16v1H13V21H12v2H11v1H10v1h1Z"/><path class="bb153-2" d="M10,25H8v1h2Z"/><path class="bb153-2" d="M9,27H8v6H9V27Z"/><path class="bb153-3" d="M8,27H7v6H8V27Z"/><rect class="bb153-2" x="7" y="26" width="1" height="1"/><path class="bb153-2" d="M7,27H6v6H7V27Z"/><rect class="bb153-2" x="20" y="15" width="1" height="1"/><path class="bb153-5" d="M12,19V18h5v2h1V19h1V17H18V16H16V15H15v2H14V15H9v1h1v3h1v1h1Z"/><rect class="bb153-5" x="19" y="15" width="1" height="1"/><path class="bb153-5" d="M13,20v2h3V20Z"/><path class="bb153-2" d="M19,17v2h1V16H19Z"/><rect class="bb153-2" x="18" y="19" width="1" height="1"/><rect class="bb153-2" x="17" y="20" width="1" height="1"/><rect class="bb153-2" x="11" y="20" width="1" height="1"/><rect class="bb153-2" x="10" y="19" width="1" height="1"/><path class="bb153-2" d="M10,16H9v3h1V16Z"/><rect class="bb153-2" x="8" y="15" width="1" height="1"/><path class="bb153-2" d="M14,17h1V16H14Z"/><path class="bb153-4" d="M12,14v1h1V14Z"/><path class="bb153-4" d="M10,14v1h1V14Z"/><path class="bb153-2" d="M11,14v1h1V14Z"/><rect class="bb153-6" x="12" y="13" width="1" height="1"/><path class="bb153-7" d="M13,20V19h3V18H12v3h1Z"/><path class="bb153-7" d="M17,19H16v2h1V19Z"/><path class="bb153-2" d="M16,19H13v1h3Z"/><path class="bb153-2" d="M17,18H16v1h1Z"/><path class="bb153-8" d="M10,14h2V13h1v2h1v1h1V15h1v1h2v1h1V15h1V11H19V10H18V9H11v1H10v1H9v4h1Z"/></svg>