<svg xmlns="http://www.w3.org/2000/svg" viewBox="0 0 29 33"><defs><style>polygon,rect,path{shape-rendering:crispedges;}.bb188-1{fill:#d14646;}.bb188-2{fill:#000000;}.bb188-3{fill:#6f7032;}.bb188-4{fill:#ffffff;}.bb188-5{fill:#e8b795;}.bb188-6{fill:#e2e2e2;}.bb188-7{fill:#e2e2e2;}.bb188-8{fill:#00686d;}.bb188-9{fill:#fad000;}</style></defs><path class="bb188-1" d="M0,33H6V27H7V26H8V25h2V24h1V23h1V21H11V20H10V19H9V16H8V15H9V11h1V10h1V9h2V7h1V6h2V5h2V6H17V7h1V9h1v2h1v4h1v1H20v3H19v1H18v1h2v1h1v1h1v1h2v1h1v2H24V26H23v7h6V0H0Z"/><path class="bb188-1" d="M17,22v1h1v1h2V23H19V22H18V21H17Z"/><path class="bb188-2" d="M7,27H6v6H7V27Z"/><rect class="bb188-2" x="7" y="26" width="1" height="1"/><path class="bb188-3" d="M8,27H7v6H8V27Z"/><path class="bb188-2" d="M9,27H8v6H9V27Z"/><path class="bb188-2" d="M10,25H8v1h2Z"/><path class="bb188-3" d="M12,29H11V25H10v1H8v1H9v6h3V29Z"/><path class="bb188-2" d="M11,26v3h1V26h1V25H12V24h1V22H12v1H11v1H10v1h1Z"/><rect class="bb188-4" x="12" y="24" width="1" height="1"/><path class="bb188-2" d="M13,29H12v4h1V29Z"/><path class="bb188-4" d="M14,23H13v1h1Z"/><path class="bb188-4" d="M16,29h1V26H16V25H13v1H12v3h1v4h1V32h1v1h1V29Zm-1,2H14V30h1Zm0-2H14V28h1Zm0-2H14V26h1Z"/><rect class="bb188-2" x="14" y="26" width="1" height="1"/><rect class="bb188-2" x="14" y="28" width="1" height="1"/><rect class="bb188-2" x="14" y="30" width="1" height="1"/><rect class="bb188-2" x="14" y="32" width="1" height="1"/><rect class="bb188-4" x="15" y="23" width="1" height="1"/><path class="bb188-2" d="M15,24V23H14v1H13v1h3V24Z"/><rect class="bb188-4" x="16" y="24" width="1" height="1"/><path class="bb188-2" d="M17,29H16v4h1V29Z"/><rect class="bb188-2" x="16" y="25" width="1" height="1"/><path class="bb188-2" d="M17,27v2h1V26H17Z"/><path class="bb188-2" d="M18,23H17V22H16v2h1v1h1V23Z"/><path class="bb188-3" d="M20,27H19V25H18v4H17v4h3V27Z"/><path class="bb188-2" d="M21,28V27H20v6h1V28Z"/><path class="bb188-4" d="M21,28h1V27H21Z"/><path class="bb188-3" d="M22,28H21v5h1V28Z"/><path class="bb188-2" d="M23,26V25H22v8h1V26Z"/><rect class="bb188-2" x="20" y="15" width="1" height="1"/><path class="bb188-2" d="M19,13v2h1V11H19v2Z"/><path class="bb188-5" d="M11,13V12h2v1H11v1h2v2H10v2h1v1h1V18h2v1h1V18h2v1h1V18h1V16H16V13h1V12h2V11H18V10H15v1H13V10H11v1H10v2Zm3,3h1v1H14Z"/><rect class="bb188-5" x="13" y="20" width="1" height="1"/><path class="bb188-5" d="M18,14h1V13H17v1Z"/><rect class="bb188-5" x="9" y="15" width="1" height="1"/><rect class="bb188-5" x="15" y="20" width="1" height="1"/><rect class="bb188-5" x="19" y="15" width="1" height="1"/><path class="bb188-2" d="M19,17h1V16H19Z"/><path class="bb188-2" d="M18,11h1V10H18Z"/><path class="bb188-2" d="M13,9H11v1h2Z"/><path class="bb188-2" d="M16,10h2V9H16Z"/><rect class="bb188-2" x="10" y="10" width="1" height="1"/><path class="bb188-2" d="M10,14V11H9v4h1Z"/><path class="bb188-2" d="M10,16H9v1h1Z"/><rect class="bb188-2" x="8" y="15" width="1" height="1"/><rect class="bb188-2" x="14" y="16" width="1" height="1"/><path class="bb188-4" d="M11,15V14H10v2h1Z"/><path class="bb188-4" d="M13,16V14H12v2Z"/><path class="bb188-4" d="M16,14v2h1V14Z"/><path class="bb188-4" d="M19,14H18v2h1V14Z"/><path class="bb188-2" d="M11,16h1V14H11v2Z"/><path class="bb188-2" d="M17,14v2h1V14Z"/><path class="bb188-6" d="M11,13H10v1h1Z"/><rect class="bb188-6" x="11" y="12" width="2" height="1"/><path class="bb188-6" d="M17,13H16v1h1Z"/><path class="bb188-6" d="M19,12H17v1h2Z"/><path class="bb188-7" d="M14,18H13v1h1Z"/><path class="bb188-7" d="M13,23h3V22h1V21h1V20h1V19h1V17H19v1H18v1H17V18H15v1h1v2H15V20H14v1H13V19H11V18H10V17H9v2h1v1h1v1h1v1h1Z"/><path class="bb188-2" d="M13,19v1h3V19H13Z"/><path class="bb188-2" d="M12,18v1h1V18Z"/><path class="bb188-8" d="M13,11h2V10h1V9h2V7H17V6h1V5H16V6H14V7H13v4Z"/><path class="bb188-8" d="M19,10V9H18v1Z"/><path class="bb188-9" d="M23,25v1h1v1h1V25H24V24H22v1Z"/><path class="bb188-4" d="M19,22v1h1v2h2V23H21V22H20V21H18v1Z"/><path class="bb188-5" d="M20,27h2V25H20Z"/><path class="bb188-9" d="M20,24H18v1h2Z"/><path class="bb188-9" d="M17,26h1V25H17Z"/><path class="bb188-2" d="M19,25v2h1V25Z"/><rect class="bb188-8" x="18" y="9" width="1" height="1"></rect></svg>