<svg xmlns="http://www.w3.org/2000/svg" viewBox="0 0 29 33"><defs><style>polygon,rect,path{shape-rendering:crispedges;}.la205-1{fill:#b4bd09;}.la205-2{fill:#000000;}.la205-3{fill:#68aaad;}.la205-4{fill:#b23b00;}.la205-5{fill:#a56e49;}.la205-6{fill:#6e12ff;}.la205-7{fill:#ffffff;}.la205-8{fill:#0068ff;}.la205-9{fill:#ff1f4a;}</style></defs><path class="la205-1" d="M0,33H6V27H7V26H8V25h2V24h2V21H11V20H9V19H8V11H9V10h1V9h1V8h7V9h1v1h1v1h1v8H20v1H18v1H17v3h2v1h2v1h1v1h1v6h6V0H0Z"/><path class="la205-2" d="M23,27H22v6h1V27Z"/><rect class="la205-2" x="21" y="26" width="1" height="1"/><path class="la205-3" d="M21,28h1V27H21Z"/><path class="la205-3" d="M21,31h1V30H21Z"/><path class="la205-2" d="M21,30V27H20v6h1V30Z"/><path class="la205-2" d="M20,26h1V25H19v1Z"/><path class="la205-3" d="M9,31H20V30H9Z"/><path class="la205-3" d="M9,27v1H20V27H9Z"/><path class="la205-3" d="M17,25V24H12v1Z"/><path class="la205-2" d="M18,25h1V24H17v1Z"/><path class="la205-2" d="M13,23h3v1h1V21H16v1H13V21H12v3h1Z"/><path class="la205-2" d="M12,24H10v1h2Z"/><path class="la205-2" d="M10,25H8v1h2Z"/><path class="la205-2" d="M9,30V27H8v6H9V30Z"/><rect class="la205-2" x="7" y="26" width="1" height="1"/><path class="la205-3" d="M8,28V27H7v1Z"/><path class="la205-3" d="M7,31H8V30H7Z"/><path class="la205-2" d="M7,30V27H6v6H7V30Z"/><path class="la205-4" d="M9,31v2H20V31Z"/><path class="la205-4" d="M9,29v1H20V28H9Z"/><path class="la205-4" d="M9,27H21V26H19V25H10v1H8v1Z"/><path class="la205-4" d="M15,23H13v1h3V23Z"/><path class="la205-4" d="M7,29v1H8V28H7Z"/><path class="la205-4" d="M7,31v2H8V31Z"/><path class="la205-4" d="M21,31v2h1V31Z"/><path class="la205-4" d="M21,29v1h1V28H21Z"/><rect class="la205-5" x="14" y="15" width="1" height="1"/><path class="la205-5" d="M13,22h3V21h1V20h1V19h1V16H15v1H14V16H10v3h1v1h1v1h1Zm0-3h3v1H13Z"/><path class="la205-5" d="M14,14h1V13h2V11H15V10H14v1H13v1H12v1h2Z"/><path class="la205-2" d="M20,16H19v3h1V16Z"/><path class="la205-2" d="M18,19v1h1V19Z"/><rect class="la205-2" x="17" y="20" width="1" height="1"/><rect class="la205-2" x="11" y="20" width="1" height="1"/><path class="la205-2" d="M10,19v1h1V19Z"/><path class="la205-2" d="M10,18V16H9v3h1Z"/><rect class="la205-2" x="14" y="16" width="1" height="1"/><rect class="la205-2" x="13" y="19" width="3" height="1"/><path class="la205-6" d="M9,16V13h3V12h1V11h1V10h1v1h2v2h3v6h1V11H20V10H19V9H18V8H11V9H10v1H9v1H8v8H9V16Z"/><path class="la205-6" d="M9,19v1h1V19Z"/><path class="la205-6" d="M19,20h1V19H19Z"/><path class="la205-7" d="M20,15V13H15v1H14V13H9v3h5V15h1v1h5Zm-7,0H10V14h3Zm6,0H16V14h3Z"/><path class="la205-8" d="M16,14v1h3V14H16Z"/><path class="la205-9" d="M10,14v1h3V14H10Z"/></svg>