<svg xmlns="http://www.w3.org/2000/svg" viewBox="0 0 29 33"><defs><style>polygon,rect,path{shape-rendering:crispedges;}.aa291-1{fill:#db5a8e;}.aa291-2{fill:#000000;}.aa291-3{fill:#e8b795;}.aa291-4{fill:#ffb38d;}.aa291-5{fill:#db5800;}.aa291-6{fill:#ffffff;}.aa291-7{fill:#8e703c;}.aa291-8{fill:#8e703c;}.aa291-9{fill:#e70059;}.aa291-10{fill:#d2d8b8;}</style></defs><path class="aa291-1" d="M0,33H8V32H6V31H5V23H4V20H5V19H7v1H8v1H9v2H8v2h2V24h2V22H11V21H10V20H9V16H8V15H9V11h1V9h1V8h7V9h1v1h1v5h1v1H20v4H19v1H18v1H17v2h2v1h2v1h1v1h1v6h6V0H0Z"/><path class="aa291-2" d="M23,31V27H22v6h1Z"/><rect class="aa291-2" x="21" y="26" width="1" height="1"/><path class="aa291-3" d="M22,31V27H21v6h1Z"/><rect class="aa291-3" x="20" y="26" width="1" height="1"/><path class="aa291-2" d="M21,31V27H20v6h1Z"/><path class="aa291-2" d="M20,26h1V25H19v1Z"/><rect class="aa291-4" x="18" y="32" width="1" height="1"/><path class="aa291-4" d="M14,31v1h1V30H14Z"/><path class="aa291-4" d="M17,31V30h1V29h1v1h1V26H19V25H18v1H17v1H16v1H13V27H12V26H11V25H10v1H9v4h1V29h1v1h1v3h1V29h2v1h1v2H15v1h2Z"/><rect class="aa291-4" x="10" y="32" width="1" height="1"/><rect class="aa291-4" x="10" y="30" width="1" height="1"/><rect class="aa291-4" x="18" y="30" width="1" height="1"/><rect class="aa291-2" x="16" y="23" width="1" height="1"/><rect class="aa291-2" x="12" y="23" width="1" height="1"/><rect class="aa291-3" x="8" y="26" width="1" height="1"/><path class="aa291-2" d="M9,31V27H8V26h2V25H8V23H7v8H6v1H8v1H9Z"/><path class="aa291-3" d="M7,30V23H8V21H7V20H5v3H6v8H7Z"/><path class="aa291-2" d="M6,29V23H5v8H6Z"/><path class="aa291-2" d="M11,26h1V24H10v1h1Z"/><rect class="aa291-2" x="12" y="26" width="1" height="1"/><rect class="aa291-2" x="16" y="26" width="1" height="1"/><path class="aa291-2" d="M17,26h1V25h1V24H17Z"/><path class="aa291-2" d="M14,27H13v1h3V27Z"/><path class="aa291-3" d="M12,26h1v1h3V26h1V24H16V23H13v1H12Z"/><path class="aa291-5" d="M20,31V30H19v1H18V30H17v3h1V32h1v1h1Z"/><rect class="aa291-5" x="18" y="29" width="1" height="1"/><path class="aa291-5" d="M15,32h1V30H15Z"/><path class="aa291-5" d="M14,32V30h1V29H13v4h2V32Z"/><path class="aa291-5" d="M12,31V30H11v1H10V30H9v3h1V32h1v1h1Z"/><rect class="aa291-5" x="10" y="29" width="1" height="1"/><rect class="aa291-2" x="20" y="15" width="1" height="1"/><path class="aa291-2" d="M19,12v3h1V11H19Z"/><path class="aa291-3" d="M10,17h1v1h7V17h1V16h1V15H16V14h2V13H16V12h2v1h1V11H18V10H17v1H16V10H15v1H14V10H13v1H12V10H11v1H10v1h2v1h1v2H9v1h1Zm4-1h1v1H14Z"/><path class="aa291-3" d="M10,14h2V13H10Z"/><rect class="aa291-2" x="18" y="10" width="1" height="1"/><rect class="aa291-2" x="13" y="9" width="1" height="1"/><rect class="aa291-2" x="17" y="9" width="1" height="1"/><rect class="aa291-2" x="11" y="9" width="1" height="1"/><rect class="aa291-2" x="15" y="9" width="1" height="1"/><path class="aa291-2" d="M10,14V11H9v4h1Z"/><rect class="aa291-2" x="8" y="15" width="1" height="1"/><rect class="aa291-2" x="14" y="16" width="1" height="1"/><rect class="aa291-6" x="12" y="14" width="1" height="1"/><rect class="aa291-6" x="10" y="14" width="1" height="1"/><rect class="aa291-6" x="18" y="14" width="1" height="1"/><rect class="aa291-6" x="16" y="14" width="1" height="1"/><rect class="aa291-2" x="11" y="14" width="1" height="1"/><rect class="aa291-2" x="17" y="14" width="1" height="1"/><rect class="aa291-7" x="18" y="13" width="1" height="1"/><rect class="aa291-7" x="16" y="12" width="2" height="1"/><rect class="aa291-7" x="12" y="13" width="1" height="1"/><rect class="aa291-7" x="10" y="12" width="2" height="1"/><path class="aa291-8" d="M14,23h3V22h1V21h1V20h1V16H19v1H18v1H17v1H16v1H13V19H12V18H11V17H10V16H9v4h1v1h1v1h1v1Z"/><rect class="aa291-2" x="12" y="18" width="1" height="1"/><rect class="aa291-2" x="16" y="18" width="1" height="1"/><rect class="aa291-2" x="15" y="19" width="1" height="1"/><rect class="aa291-2" x="14" y="18" width="1" height="1"/><rect class="aa291-2" x="13" y="19" width="1" height="1"/><rect class="aa291-6" x="13" y="18" width="1" height="1"/><rect class="aa291-6" x="15" y="18" width="1" height="1"/><rect class="aa291-9" x="14" y="19" width="1" height="1"/><path class="aa291-2" d="M8,23H9V21H8Z"/><rect class="aa291-2" x="7" y="20" width="1" height="1"/><rect class="aa291-2" x="5" y="19" width="2" height="1"/><path class="aa291-2" d="M5,21V20H4v3H5Z"/><path class="aa291-10" d="M11,10V9H10v2h1Z"/><path class="aa291-10" d="M12,10v1h1V9h1v2h1V9h1v2h1V9h1V8H11V9h1Z"/><rect class="aa291-10" x="18" y="9" width="1" height="1"/><rect class="aa291-10" x="19" y="10" width="1" height="1"/></svg>