<svg xmlns="http://www.w3.org/2000/svg" viewBox="0 0 29 33"><defs><style>polygon,rect,path{shape-rendering:crispedges;}.wa260-1{fill:#e55b35;}.wa260-2{fill:#ffffff;}.wa260-3{fill:#000000;}.wa260-4{fill:#b2622b;}.wa260-5{fill:#ffffff;}.wa260-6{fill:#8e4717;}.wa260-7{fill:#cbed03;}.wa260-8{fill:#00774c;}</style></defs><path class="wa260-1" d="M6,32V27H7V26H8V25h2V22h1V21H10V20H9V16H8V15H9V14H8V12H9V11H8V10H9V9H8V8h2V7h1V8h1V6h1V7h1V8h1V7h1V6h1V7h1V8h1V7h1V8H19V9h2v2H20v1h1v1H20v1h1v2H20v4H19v1H18v1h1v3h2v1h1v1h1v6h6V0H0V33H6Z"/><path class="wa260-2" d="M17,23v1H16v1H15v2H14v4h6V27h1V26H19V25H18V22H17Z"/><path class="wa260-2" d="M22,27H21v6h1V27Z"/><path class="wa260-2" d="M19,32H9v1H20V32Z"/><path class="wa260-2" d="M8,27H7v6H8V27Z"/><path class="wa260-2" d="M9,27v4h4V27h1V25H13V24H12V22H11v3H10v1H8v1Z"/><path class="wa260-3" d="M23,27H22v6h1V27Z"/><rect class="wa260-3" x="21" y="26" width="1" height="1"/><path class="wa260-3" d="M21,27H20v4H14V27H13v4H9V27H8v6H9V32H20v1h1V27Z"/><path class="wa260-3" d="M20,26h1V25H19v1Z"/><path class="wa260-3" d="M18,25h1V22H18v3Z"/><rect class="wa260-3" x="15" y="24" width="1" height="1"/><path class="wa260-3" d="M15,26V25H14v2h1Z"/><rect class="wa260-3" x="13" y="24" width="1" height="1"/><path class="wa260-4" d="M15,24h1V23H13v1h1v1h1Z"/><path class="wa260-3" d="M11,24V22H10v3h1Z"/><path class="wa260-3" d="M10,25H8v1h2Z"/><rect class="wa260-3" x="7" y="26" width="1" height="1"/><path class="wa260-3" d="M7,27H6v6H7V27Z"/><path class="wa260-3" d="M20,16h1V15H20Z"/><rect class="wa260-4" x="10" y="11" width="1" height="1"/><path class="wa260-4" d="M10,13v1h2V13H10Z"/><polygon class="wa260-4" points="18 11 18 10 17 10 17 11 16 11 16 12 18 12 18 11"/><rect class="wa260-4" x="11" y="10" width="1" height="1"/><path class="wa260-4" d="M10,17v1h1v2h1v1h1v1h3V21h1V20h1V18h1V16h1V15H16V14h2V13H16V12H15V10H14v1H13v1H12v1h1v2H9v1h1Zm4-1h1v1H14Zm-1,3h3V18h1v1H16v1H13Z"/><path class="wa260-3" d="M19,17h1V16H19Z"/><path class="wa260-3" d="M12,23v1h1V23h3v1h1V22h1V21H16v1H13V21H11v1h1Z"/><path class="wa260-3" d="M10,16H9v1h1Z"/><rect class="wa260-3" x="8" y="15" width="1" height="1"/><rect class="wa260-3" x="14" y="16" width="1" height="1"/><path class="wa260-5" d="M12,15h1V14H12Z"/><path class="wa260-5" d="M10,14v1h1V14Z"/><path class="wa260-5" d="M18,14v1h1V14Z"/><path class="wa260-5" d="M16,14v1h1V14Z"/><path class="wa260-3" d="M11,14v1h1V14Z"/><path class="wa260-3" d="M17,14v1h1V14Z"/><rect class="wa260-6" x="18" y="13" width="1" height="1"/><rect class="wa260-6" x="16" y="12" width="2" height="1"/><path class="wa260-6" d="M13,14V13H12v1Z"/><path class="wa260-6" d="M11,13h1V12H11Z"/><path class="wa260-7" d="M19,18H18v2H17v1h2V20h1V17H19Z"/><path class="wa260-7" d="M12,20H11V18H10V17H9v3h1v1h2Z"/><rect class="wa260-3" x="13" y="19" width="3" height="1"/><rect class="wa260-3" x="16" y="18" width="1" height="1"/><path class="wa260-8" d="M10,14V13h1V12H10V11h1V10h1v1H11v1h2V11h1V10h1v2h1V11h1V10h1v3h1v2h2V14H20V13h1V12H20V11h1V9H19V8H18V7H17V6H16V7H15V8H14V7H13V6H12V8H11V7H10V8H8V9H9v1H8v1H9v1H8v2H9v1h1Z"/><rect class="wa260-8" x="19" y="7" width="1" height="1"/></svg>