<svg xmlns="http://www.w3.org/2000/svg" viewBox="0 0 29 33"><defs><style>polygon,rect,path{shape-rendering:crispedges;}.ca291-1{fill:#d4a122;}.ca291-2{fill:#000000;}.ca291-3{fill:#ce8452;}.ca291-4{fill:#b8a4ff;}.ca291-5{fill:#00af68;}.ca291-6{fill:#4922aa;}.ca291-7{fill:#ffffff;}.ca291-8{fill:#e70059;}.ca291-9{fill:#ff1d99;}.ca291-10{fill:#68aaad;}</style></defs><path class="ca291-1" d="M0,33H6V27H7V26H8V25h2V24h2V21H11V20H10V19H9V16H8V15H9V10h1V9h1V8h7V9h1v1h1v2h1v6H20v1H19v1H18v1H17v3h2v1h1V24h1V23h1v1h1v9h6V0H0Z"/><path class="ca291-2" d="M7,27H6v6H7V27Z"/><rect class="ca291-2" x="7" y="26" width="1" height="1"/><path class="ca291-3" d="M8,27H7v6H8V27Z"/><rect class="ca291-3" x="8" y="26" width="1" height="1"/><path class="ca291-2" d="M9,27H8v6H9V27Z"/><path class="ca291-2" d="M10,26V25H8v1h2Z"/><path class="ca291-4" d="M16,32H12v1h5V32Z"/><rect class="ca291-4" x="16" y="30" width="1" height="1"/><path class="ca291-4" d="M20,27H19V25H18v1H17v1H16v1h1v1h1v1h1v3h1V27Z"/><rect class="ca291-4" x="12" y="30" width="1" height="1"/><path class="ca291-4" d="M10,30h1V29h1V28h1V27H12V26H11V25H10v1H9v7h1V30Z"/><path class="ca291-2" d="M13,23h3v1h1V21H16v1H13V21H12v3h1Z"/><path class="ca291-2" d="M21,27H20v6h1V27Z"/><path class="ca291-3" d="M22,24H21v1H20v2h1v6h1V24Z"/><path class="ca291-2" d="M23,24H22v9h1V24Z"/><path class="ca291-2" d="M11,26h1V24H10v1h1Z"/><rect class="ca291-2" x="12" y="26" width="1" height="1"/><rect class="ca291-2" x="16" y="26" width="1" height="1"/><path class="ca291-2" d="M18,26V25h1V24H17v2Z"/><path class="ca291-2" d="M13,27v1h3V27H13Z"/><path class="ca291-3" d="M13,26v1h3V26h1V24H16V23H13v1H12v2Z"/><path class="ca291-5" d="M19,30H18V29H17V28H12v1H11v1H10v3h2V32h5v1h2V30Zm-6,1H12V30h1Zm4,0H16V30h1Z"/><rect class="ca291-3" x="19" y="15" width="1" height="1"/><rect class="ca291-3" x="9" y="15" width="1" height="1"/><path class="ca291-3" d="M13,22h3V21h1V20h1V19h1V16H16V15H13v1H10v3h1v1h1v1h1Zm1-6h1v1H14Zm-2,3V18h5v1H16v1H13V19Z"/><path class="ca291-3" d="M12,13h2v1h1V13h1V12H15V11H13V10H11v1H10v1h2Z"/><path class="ca291-2" d="M19,16v3h1V16Z"/><rect class="ca291-2" x="18" y="19" width="1" height="1"/><rect class="ca291-2" x="17" y="20" width="1" height="1"/><rect class="ca291-2" x="11" y="20" width="1" height="1"/><rect class="ca291-2" x="10" y="19" width="1" height="1"/><path class="ca291-2" d="M10,16H9v3h1V16Z"/><rect class="ca291-2" x="8" y="15" width="1" height="1"/><rect class="ca291-2" x="14" y="16" width="1" height="1"/><path class="ca291-6" d="M12,12H10v1h2Z"/><path class="ca291-2" d="M13,18H12v1h1Z"/><path class="ca291-2" d="M17,19V18H16v1Z"/><path class="ca291-2" d="M15,20h1V19H15Z"/><path class="ca291-2" d="M15,19V18H14v1Z"/><path class="ca291-2" d="M13,19v1h1V19Z"/><path class="ca291-7" d="M14,19V18H13v1Z"/><path class="ca291-7" d="M16,19V18H15v1Z"/><path class="ca291-8" d="M14,19v1h1V19Z"/><path class="ca291-2" d="M20,27V25H19v2Z"/><rect class="ca291-2" x="20" y="24" width="1" height="1"/><rect class="ca291-2" x="21" y="23" width="1" height="1"/><path class="ca291-9" d="M10,13V11h1V10h2v1h2v1h1v1h3v1h1v4h1V12H20V10H19V9H18V8H11V9H10v1H9v4h1Z"/><path class="ca291-10" d="M13,14H10v2h3V15h1V14Z"/><path class="ca291-10" d="M19,14H15v1h1v1h3V14Z"/><path class="ca291-2" d="M15,14h4V13H15Z"/><path class="ca291-2" d="M13,14h1V13H10v1h3Z"/><path class="ca291-2" d="M20,15V14H19v1Z"/><path class="ca291-2" d="M10,14H9v1h1Z"/><path class="ca291-2" d="M14,14v1h1V14Z"/></svg>