<svg xmlns="http://www.w3.org/2000/svg" viewBox="0 0 29 33"><defs><style>polygon,rect,path{shape-rendering:crispedges;}.na233-1{fill:#d14646;}.na233-2{fill:#000000;}.na233-3{fill:#3e5e00;}.na233-4{fill:#ffffff;}.na233-5{fill:#b2622b;}.na233-6{fill:#99ce09;}.na233-7{fill:#8e4717;}.na233-8{fill:#8e4717;}.na233-9{fill:#c8a715;}.na233-10{fill:#ffffff;}.na233-11{fill:#e70059;}.na233-12{fill:#99004d;}</style></defs><path class="na233-1" d="M12,22H11v2h1V22Z"/><path class="na233-1" d="M6,32V27H7V26H8V25h2V20H9V16H8V15H9V10h1V9h1V8h7V9h1v1h1v5h1v1H20v4H19v5h2v1h1v1h1v6h6V0H0V33H6Z"/><path class="na233-1" d="M18,22H17v2h1V22Z"/><path class="na233-2" d="M23,27H22v6h1V27Z"/><rect class="na233-2" x="21" y="26" width="1" height="1"/><path class="na233-3" d="M21,31v2h1V31Z"/><path class="na233-3" d="M21,28v2h1V27H21Z"/><path class="na233-2" d="M21,30V27H20v6h1V30Z"/><path class="na233-3" d="M20,32V26H19V25H18v3h1v1H18v4h1V32Z"/><path class="na233-2" d="M20,26h1V25H19v1Z"/><path class="na233-2" d="M18,29V25h1V24H17v1H16v1h1v7h1V29Z"/><path class="na233-4" d="M17,26H16v1H13V26H12v7h5V26Z"/><path class="na233-2" d="M13,26v1h3V26H13Z"/><path class="na233-5" d="M16,23H13v3h3V23Z"/><path class="na233-2" d="M12,26h1V25H12V24H10v1h1v8h1V26Z"/><path class="na233-3" d="M11,29H10V28h1V25H10v1H9v6h1v1h1V29Z"/><path class="na233-2" d="M10,26V25H8v1h2Z"/><path class="na233-2" d="M9,31V27H8v6H9V31Z"/><rect class="na233-2" x="7" y="26" width="1" height="1"/><path class="na233-3" d="M7,30H8V27H7v3Z"/><path class="na233-3" d="M7,31v2H8V31Z"/><path class="na233-2" d="M7,30V27H6v6H7V30Z"/><path class="na233-6" d="M10,29h1V28H10Z"/><path class="na233-6" d="M19,29V28H18v1Z"/><path class="na233-6" d="M9,27V26H8v1Z"/><path class="na233-6" d="M19,32v1h1V32Z"/><path class="na233-6" d="M9,32v1h1V32Z"/><path class="na233-6" d="M7,31H8V30H7Z"/><path class="na233-6" d="M21,31h1V30H21Z"/><path class="na233-6" d="M20,27h1V26H20Z"/><rect class="na233-2" x="20" y="15" width="1" height="1"/><rect class="na233-5" x="19" y="15" width="1" height="1"/><rect class="na233-5" x="14" y="15" width="1" height="1"/><path class="na233-5" d="M14,20H13v1h1v1h1V21h1V20H14Z"/><path class="na233-5" d="M18,16v1H16V16H15v1H14V16H13v1H11V16H10v2h1v1h1V18h5v1h1V18h1V16Z"/><path class="na233-5" d="M10,13v1h2V13Z"/><rect class="na233-5" x="9" y="15" width="1" height="1"/><path class="na233-5" d="M16,13V12h2V11H17V10H12v1H11v1h1v1h1v1h5V13Z"/><rect class="na233-5" x="18" y="12" width="1" height="1"/><path class="na233-2" d="M19,17h1V16H19Z"/><path class="na233-2" d="M10,16H9v1h1Z"/><rect class="na233-2" x="8" y="15" width="1" height="1"/><rect class="na233-2" x="14" y="16" width="1" height="1"/><rect class="na233-7" x="18" y="13" width="1" height="1"/><rect class="na233-7" x="16" y="12" width="2" height="1"/><rect class="na233-7" x="12" y="13" width="1" height="1"/><path class="na233-7" d="M12,12H10v1h2Z"/><path class="na233-8" d="M12,22v1h5V22h2V20h1V17H19v1H18v1H16v2H15v1H14V21H13V19H11V18H10V17H9v3h1v2h2Z"/><path class="na233-9" d="M18,23h1V22H18Z"/><path class="na233-8" d="M18,24h1V23H18Z"/><path class="na233-9" d="M16,23v1h1V23Z"/><path class="na233-8" d="M16,25h1V24H16Z"/><path class="na233-9" d="M13,23H12v1h1Z"/><path class="na233-8" d="M12,24v1h1V24Z"/><path class="na233-9" d="M11,22H10v1h1Z"/><path class="na233-8" d="M11,23H10v1h1Z"/><path class="na233-2" d="M12,18v1h1V18Z"/><path class="na233-2" d="M16,18v1h1V18Z"/><path class="na233-2" d="M15,20h1V19H15Z"/><path class="na233-2" d="M15,19V18H14v1Z"/><path class="na233-2" d="M14,19H13v1h1Z"/><path class="na233-10" d="M14,18H13v1h1Z"/><path class="na233-10" d="M15,18v1h1V18Z"/><path class="na233-11" d="M14,20h1V19H14Z"/><path class="na233-12" d="M10,13V12h1V11h1V10h5v1h1v1h1v2h1V10H19V9H18V8H11V9H10v1H9v4h1Z"/><path class="na233-2" d="M10,16h1v1h2V16h1V15h1v1h1v1h2V16h1V15h1V14H9v1h1Z"/></svg>