<svg xmlns="http://www.w3.org/2000/svg" viewBox="0 0 29 33"><defs><style>polygon,rect,path{shape-rendering:crispedges;}.eb156-1{fill:#d4a122;}.eb156-2{fill:#000000;}.eb156-3{fill:#844f4f;}.eb156-4{fill:#cc3232;}.eb156-5{fill:#e8b795;}.eb156-6{fill:#90a2a3;}.eb156-7{fill:#ffffff;}.eb156-8{fill:#7f5018;}.eb156-9{fill:#7f5018;}.eb156-10{fill:#c8a715;}.eb156-11{fill:#990000;}</style></defs><path class="eb156-1" d="M0,33H6V27H7V26H8V25H9V24h1V20H9V16H8V15H9V11h1V10h1V9h7v1h1v1h1v4h1v1H20v4H19v4h1v1h1v1h1v1h1v6h6V0H0Z"/><path class="eb156-2" d="M23,27H22v6h1V27Z"/><path class="eb156-3" d="M22,27H21v6h1V27Z"/><path class="eb156-2" d="M21,27h1V26H21V25H20v2H17v1h2v1h1v4h1V27Z"/><rect class="eb156-2" x="19" y="24" width="1" height="1"/><path class="eb156-3" d="M20,29H19v1H18v1H17v1H16v1h4V29Z"/><path class="eb156-3" d="M18,25H17v1H16v5h1V30h1V29h1V28H17V27h2V26h1V25H19V24H18Z"/><rect class="eb156-2" x="17" y="22" width="1" height="1"/><rect class="eb156-3" x="17" y="23" width="1" height="1"/><rect class="eb156-2" x="17" y="24" width="1" height="1"/><rect class="eb156-2" x="18" y="29" width="1" height="1"/><rect class="eb156-2" x="16" y="25" width="1" height="1"/><path class="eb156-4" d="M15,27H14v6h1V27Z"/><path class="eb156-5" d="M16,24V23H13v3h3V24Z"/><path class="eb156-2" d="M12,25v1h1V25Z"/><path class="eb156-3" d="M12,32V31H11V30H10V29H9v4h4V32Z"/><rect class="eb156-2" x="11" y="22" width="1" height="1"/><rect class="eb156-3" x="11" y="23" width="1" height="1"/><rect class="eb156-2" x="11" y="24" width="1" height="1"/><rect class="eb156-2" x="11" y="30" width="1" height="1"/><rect class="eb156-2" x="9" y="24" width="1" height="1"/><path class="eb156-3" d="M10,26v1h2v1H10v1h1v1h1v1h1V26H12V25H11V24H10v1H9v1Z"/><path class="eb156-2" d="M9,29h1V28h2V27H9V25H8v1H7v1H8v6H9V29Z"/><path class="eb156-3" d="M8,27H7v6H8V27Z"/><path class="eb156-2" d="M7,27H6v6H7V27Z"/><rect class="eb156-2" x="10" y="29" width="1" height="1"/><rect class="eb156-2" x="17" y="30" width="1" height="1"/><path class="eb156-2" d="M17,32V31H16V26H13v5H12v1h1v1h1V27h1v6h1V32Z"/><path class="eb156-6" d="M9,26v1h1V26Z"/><path class="eb156-6" d="M19,27h1V26H19Z"/><rect class="eb156-2" x="20" y="15" width="1" height="1"/><path class="eb156-2" d="M19,13v2h1V12H19Z"/><path class="eb156-5" d="M10,14h2V13H10Z"/><polygon class="eb156-5" points="13 21 14 21 14 22 15 22 15 21 16 21 16 20 13 20 13 21"/><path class="eb156-5" d="M18,12v1h1V11H18Z"/><rect class="eb156-5" x="11" y="10" width="1" height="1"/><path class="eb156-5" d="M10,17v1h1v1h1V18h2v1h1V18h2v1h1V18h1V16h1V15H16V14h2V13H16V12h1V11H16V10H13v1H12v2h1v2H9v1h1Zm4-1h1v1H14Z"/><rect class="eb156-5" x="10" y="11" width="1" height="1"/><rect class="eb156-5" x="17" y="10" width="1" height="1"/><path class="eb156-2" d="M19,17h1V16H19Z"/><path class="eb156-2" d="M10,16H9v1h1Z"/><rect class="eb156-2" x="8" y="15" width="1" height="1"/><rect class="eb156-2" x="14" y="16" width="1" height="1"/><path class="eb156-7" d="M18,14v1h1V14Z"/><path class="eb156-7" d="M12,15h1V14H12Z"/><path class="eb156-2" d="M17,14H16v1h2V14Z"/><path class="eb156-2" d="M12,15V14H10V12H9v3h3Z"/><path class="eb156-8" d="M19,13H18v1h1Z"/><polygon class="eb156-8" points="17 12 16 12 16 13 18 13 18 12 17 12"/><path class="eb156-8" d="M13,14V13H12v1Z"/><path class="eb156-8" d="M10,12v1h2V12H10Z"/><path class="eb156-9" d="M12,22v1h5V22h2V20h1V17H19v1H18v1H16v2H15v1H14V21H13V19h1V18H12v1H11V18H10V17H9v3h1v2h2Z"/><path class="eb156-9" d="M15,18v1h1V18Z"/><path class="eb156-10" d="M18,23h1V22H18Z"/><path class="eb156-9" d="M18,24h1V23H18Z"/><path class="eb156-10" d="M17,24V23H16v1Z"/><path class="eb156-9" d="M16,24v1h1V24Z"/><path class="eb156-10" d="M13,24V23H12v1Z"/><path class="eb156-9" d="M13,24H12v1h1Z"/><path class="eb156-10" d="M11,22H10v1h1Z"/><path class="eb156-9" d="M11,23H10v1h1Z"/><path class="eb156-2" d="M14,19H13v1h3V19H14Z"/><path class="eb156-2" d="M16,18v1h1V18Z"/><path class="eb156-11" d="M20,12V11H19v1Z"/><rect class="eb156-11" x="18" y="10" width="1" height="1"/><path class="eb156-11" d="M12,11h1V10h3v1h1V10h1V9H11v1h1Z"/><rect class="eb156-11" x="17" y="11" width="1" height="1"/><path class="eb156-11" d="M11,12h1V11H11Z"/><rect class="eb156-11" x="10" y="10" width="1" height="1"/><path class="eb156-11" d="M10,11H9v1h1Z"/></svg>