<svg xmlns="http://www.w3.org/2000/svg" viewBox="0 0 29 33"><defs><style>polygon,rect,path{shape-rendering:crispedges;}.wa133-1{fill:#b4bd09;}.wa133-2{fill:#000000;}.wa133-3{fill:#00774c;}.wa133-4{fill:#b2622b;}.wa133-5{fill:#4fdb7d;}.wa133-6{fill:#ffffff;}.wa133-7{fill:#b23b00;}.wa133-8{fill:#b23b00;}.wa133-9{fill:#ff1d99;}.wa133-10{fill:#009b97;}</style></defs><path class="wa133-1" d="M0,33H6V26H7V25H8V21h2v1h1V20H10V19H9V16H8V15H9V10h1V9h1V8h7V9h1v1h1v5h1v1H20v3H19v1H18v2h1v3h2v1h1v1h1v6h6V0H0Z"/><polygon class="wa133-1" points="10 24 10 23 9 23 9 25 10 25 10 24"/><path class="wa133-2" d="M7,30V26H6v7H7V30Z"/><path class="wa133-2" d="M23,27H22v6h1V27Z"/><rect class="wa133-2" x="21" y="26" width="1" height="1"/><path class="wa133-3" d="M21,28h1V27H21Z"/><path class="wa133-3" d="M21,31v1h1V30H21Z"/><rect class="wa133-2" x="9" y="25" width="1" height="1"/><path class="wa133-2" d="M21,31V27H20v4H14V27H13v4H9V28H8v5H9V32H20v1h1V31Z"/><path class="wa133-2" d="M20,26h1V25H19v1Z"/><path class="wa133-3" d="M19,32v1h1V32Z"/><path class="wa133-3" d="M10,32v1h1V32Z"/><path class="wa133-3" d="M16,32v1h1V32Z"/><path class="wa133-3" d="M13,32v1h1V32Z"/><path class="wa133-2" d="M18,24v1h1V22H18v2Z"/><path class="wa133-2" d="M17,22h1V21H17Z"/><path class="wa133-2" d="M17,24V22H16v2Z"/><rect class="wa133-3" x="20" y="26" width="1" height="1"/><path class="wa133-3" d="M17,23h1V22H17Z"/><path class="wa133-3" d="M18,24H16v1h1v1h1v2h1v1h1V27H19V25H18Z"/><path class="wa133-3" d="M15,30V28H14v3h2V30Z"/><path class="wa133-3" d="M18,30V28H17V27H16V25H15v3h1v1h1v2h2V30Z"/><rect class="wa133-2" x="15" y="24" width="1" height="1"/><path class="wa133-2" d="M15,26V25H14v2h1Z"/><path class="wa133-4" d="M14,24v1h1V24h1V23H13v1Z"/><rect class="wa133-2" x="13" y="24" width="1" height="1"/><path class="wa133-2" d="M13,24V22H12v2Z"/><path class="wa133-2" d="M12,21H11v1h1Z"/><path class="wa133-2" d="M10,24v1h1V22H10v2Z"/><path class="wa133-3" d="M9,30v1h1V30Z"/><path class="wa133-3" d="M12,29V28H11V27H10V26H9v2h1v1h1v2h2V30H12Z"/><path class="wa133-3" d="M12,23V22H11v1Z"/><path class="wa133-3" d="M12,25V24H11v2h1v2h1V25Z"/><path class="wa133-3" d="M7,27v2H8V27Z"/><path class="wa133-3" d="M7,31v2H8V31Z"/><rect class="wa133-2" x="20" y="15" width="1" height="1"/><path class="wa133-2" d="M19,15h1V14H19Z"/><path class="wa133-4" d="M10,17v1h1v1h1V18h2v1h1V18h2v1h1V18h1V16h1V15H16V14h2V13H16V12h2V11H17V10H12v1H11v1h1v1h1v2H9v1h1Zm4-1h1v1H14Z"/><rect class="wa133-4" x="15" y="20" width="1" height="1"/><rect class="wa133-4" x="13" y="20" width="1" height="1"/><rect class="wa133-4" x="18" y="12" width="1" height="1"/><path class="wa133-4" d="M10,14h2V13H10Z"/><path class="wa133-2" d="M19,17h1V16H19Z"/><path class="wa133-2" d="M10,16H9v1h1Z"/><rect class="wa133-2" x="8" y="15" width="1" height="1"/><rect class="wa133-2" x="14" y="16" width="1" height="1"/><path class="wa133-5" d="M19,28H18v2h1v1h1V29H19Z"/><path class="wa133-5" d="M21,32v1h1V32Z"/><path class="wa133-5" d="M17,27v1h1V26H17V25H16v2Z"/><path class="wa133-5" d="M19,26v1h1V26Z"/><path class="wa133-5" d="M21,29v1h1V28H21Z"/><path class="wa133-5" d="M18,32H17v1h2V32Z"/><path class="wa133-5" d="M16,29V28H15v2h1v1h1V29Z"/><path class="wa133-5" d="M15,27H14v1h1Z"/><path class="wa133-5" d="M13,25v2h1V25Z"/><path class="wa133-5" d="M15,32H14v1h2V32Z"/><path class="wa133-5" d="M12,29v1h1V28H12Z"/><rect class="wa133-5" x="12" y="24" width="1" height="1"/><path class="wa133-5" d="M10,27h1v1h1V26H11V25H10v2Z"/><path class="wa133-5" d="M12,32H11v1h2V32Z"/><path class="wa133-5" d="M10,29V28H9v2h1v1h1V29Z"/><path class="wa133-5" d="M9,32v1h1V32Z"/><path class="wa133-5" d="M7,30v1H8V29H7Z"/><path class="wa133-5" d="M12,23H11v1h1Z"/><path class="wa133-5" d="M18,24V23H17v1Z"/><path class="wa133-6" d="M18,14v1h1V14Z"/><path class="wa133-6" d="M12,15h1V14H12Z"/><path class="wa133-2" d="M17,14H16v1h2V14Z"/><path class="wa133-2" d="M12,15V14H9v1h3Z"/><rect class="wa133-7" x="18" y="13" width="1" height="1"/><rect class="wa133-7" x="16" y="12" width="2" height="1"/><path class="wa133-7" d="M13,14V13H12v1Z"/><path class="wa133-7" d="M10,13h2V12H10Z"/><path class="wa133-8" d="M12,22h1v1h3V22h1V21h1V20h1V19h1V17H19v1H18v1H17V18H15v1h1v2H15V20H14v1H13V19h1V18H12v1H11V18H10V17H9v2h1v1h1v1h1Z"/><path class="wa133-2" d="M13,19v1h3V19H13Z"/><path class="wa133-9" d="M10,13V12h1V11h1V10h5v1h1v1h1v2h1V10H19V9H18V8H11V9H10v1H9v4h1Z"/><path class="wa133-10" d="M9,26V21H8v5Z"/><path class="wa133-6" d="M10,23V21H9v2Z"/><path class="wa133-10" d="M8,27v1H9V27Z"/><path class="wa133-4" d="M8,27H9V26H7v1Z"/><path class="wa133-2" d="M8,25H7v1H8Z"/></svg>