<svg xmlns="http://www.w3.org/2000/svg" viewBox="0 0 29 33"><defs><style>polygon,rect,path{shape-rendering:crispedges;}.cb75-1{fill:#e55b35;}.cb75-2{fill:#000000;}.cb75-3{fill:#9b8100;}.cb75-4{fill:#ffffff;}.cb75-5{fill:#efcaaf;}.cb75-6{fill:#8e4717;}.cb75-7{fill:#8e4717;}.cb75-8{fill:#6e12ff;}.cb75-9{fill:#c6e5e4;}</style></defs><path class="cb75-1" d="M0,33H6V27H7V26H8V25h2V24h1V23h1V21H11V20H10V19H9V16H8V15H9V11h1V10h1V9h1V8h5V9h2v1h1v1h1v3H20v1h1v1H20v3H19v1H18v1H17v2h1v1h1v1h2V23h2V22H22V21H21V20h1V19h3v1h1v1H25v1H24v1h1v1H24v7H23v1H21v1h8V0H0Z"/><path class="cb75-2" d="M7,27H6v6H7V27Z"/><rect class="cb75-2" x="7" y="26" width="1" height="1"/><path class="cb75-3" d="M8,27H7v6H8V27Z"/><path class="cb75-2" d="M9,27H8v6H9V27Z"/><path class="cb75-2" d="M10,25H8v1h2Z"/><path class="cb75-3" d="M12,29H11V25H10v1H8v1H9v6h3V29Z"/><path class="cb75-2" d="M11,26v3h1V26h1V25H12V24h1V23h1v1H13v1h3V24H15V23h1v1h1v1H16v1h1v3h1V25h1V24H18V23H17V21H16v1H13V21H12v2H11v1H10v1h1Z"/><rect class="cb75-4" x="12" y="24" width="1" height="1"/><path class="cb75-2" d="M13,29H12v4h1V29Z"/><rect class="cb75-4" x="13" y="23" width="1" height="1"/><path class="cb75-4" d="M16,29h1V26H16V25H13v1H12v3h1v4h1V32h1v1h1V29Zm-1,2H14V30h1Zm0-2H14V28h1Zm0-2H14V26h1Z"/><rect class="cb75-2" x="14" y="26" width="1" height="1"/><rect class="cb75-2" x="14" y="28" width="1" height="1"/><rect class="cb75-2" x="14" y="30" width="1" height="1"/><rect class="cb75-2" x="14" y="32" width="1" height="1"/><rect class="cb75-4" x="15" y="23" width="1" height="1"/><rect class="cb75-4" x="16" y="24" width="1" height="1"/><path class="cb75-2" d="M17,29H16v4h1V29Z"/><path class="cb75-3" d="M20,27h1V26H19V25H18v4H17v4h3V27Z"/><path class="cb75-2" d="M22,32h1V31H22V23H21v2H19v1h2v1H20v6h1V32Z"/><path class="cb75-4" d="M23,24H22v1h1Z"/><path class="cb75-3" d="M23,25H22v6h1V25Z"/><path class="cb75-2" d="M23,25v6h1V24H23Z"/><rect class="cb75-2" x="20" y="15" width="1" height="1"/><rect class="cb75-5" x="15" y="20" width="1" height="1"/><rect class="cb75-5" x="19" y="15" width="1" height="1"/><path class="cb75-5" d="M18,14h1V13H17v1Z"/><rect class="cb75-5" x="16" y="19" width="1" height="1"/><rect class="cb75-5" x="13" y="20" width="1" height="1"/><rect class="cb75-5" x="12" y="19" width="1" height="1"/><rect class="cb75-5" x="9" y="15" width="1" height="1"/><path class="cb75-5" d="M12,19V18h5v1h2V16H16V13h1V11H15V10H11v1H10v2h1V12h2v1H11v1h2v2H10v3h2Zm2-3h1v1H14Z"/><path class="cb75-2" d="M19,17v2h1V16H19Z"/><path class="cb75-2" d="M18,20h1V19H18Z"/><rect class="cb75-2" x="17" y="20" width="1" height="1"/><rect class="cb75-2" x="11" y="20" width="1" height="1"/><path class="cb75-2" d="M10,19v1h1V19Z"/><path class="cb75-2" d="M10,16H9v3h1V16Z"/><rect class="cb75-2" x="8" y="15" width="1" height="1"/><rect class="cb75-2" x="14" y="16" width="1" height="1"/><path class="cb75-4" d="M10,15v1h1V14H10Z"/><path class="cb75-4" d="M13,16V14H12v2Z"/><path class="cb75-4" d="M16,14v2h1V14Z"/><path class="cb75-4" d="M19,14H18v2h1V14Z"/><path class="cb75-2" d="M12,16V14H11v2Z"/><path class="cb75-2" d="M17,14v2h1V14Z"/><rect class="cb75-6" x="10" y="13" width="1" height="1"/><rect class="cb75-6" x="11" y="12" width="2" height="1"/><path class="cb75-6" d="M17,13H16v1h1Z"/><path class="cb75-6" d="M18,12H17v1h1Z"/><path class="cb75-7" d="M17,19v1h1V19Z"/><rect class="cb75-7" x="16" y="20" width="1" height="1"/><path class="cb75-7" d="M15,20H14v1H13v1h3V21H15Z"/><path class="cb75-7" d="M14,19h3V18H13v1Z"/><rect class="cb75-7" x="12" y="20" width="1" height="1"/><path class="cb75-7" d="M12,19H11v1h1Z"/><path class="cb75-2" d="M15,20h1V19H13v1h2Z"/><path class="cb75-2" d="M13,18H12v1h1Z"/><path class="cb75-8" d="M10,14V11H9v4h1Z"/><rect class="cb75-8" x="10" y="10" width="1" height="1"/><path class="cb75-8" d="M15,10v1h2v1h1v1h1v2h1V14h1V11H20V10H19V9H17V8H12V9H11v1h4Z"/><path class="cb75-4" d="M25,22V21h1V20H25V19H23v1h1v1H23v1h2Z"/><path class="cb75-9" d="M24,21V20H23V19H22v1H21v1h1v1h1V21Z"/><path class="cb75-9" d="M24,22H23v1h1Z"/><path class="cb75-5" d="M23,24h1V23H22v1Z"/><rect class="cb75-2" x="24" y="23" width="1" height="1"/></svg>