<svg xmlns="http://www.w3.org/2000/svg" viewBox="0 0 29 33"><defs><style>polygon,rect,path{shape-rendering:crispedges;}.ta15-1{fill:#d14646;}.ta15-2{fill:#000000;}.ta15-3{fill:#5a2de2;}.ta15-4{fill:#a56e49;}.ta15-5{fill:#5a2de2;}.ta15-6{fill:#ffffff;}.ta15-7{fill:#7f5018;}.ta15-8{fill:#5a2de2;}.ta15-9{fill:#7f5018;}.ta15-10{fill:#455054;}.ta15-11{fill:#900;}.ta15-12{fill:#0068ff;}</style></defs><rect class="ta15-1" x="8" y="21" width="1" height="1"/><path class="ta15-1" d="M10,23V22H9v2H8v1h2V24h1V23Z"/><path class="ta15-2" d="M6,24V22H5v9H6V24Z"/><path class="ta15-2" d="M23,27H22v6h1V27Z"/><path class="ta15-3" d="M22,27H21v6h1V27Z"/><rect class="ta15-2" x="21" y="26" width="1" height="1"/><path class="ta15-2" d="M21,27H20v6h1V27Z"/><path class="ta15-3" d="M20,27h1V26H19V25H18V24H16v1h1v3h2v1H17v2h1V30h1v2H16V25H13v3h2v4H12V25h1V24H11v1H10v1H8v1H9v6H20V27Zm-9,2v3H10V28h1Z"/><path class="ta15-2" d="M20,26h1V25H19v1Z"/><rect class="ta15-2" x="18" y="24" width="1" height="1"/><path class="ta15-2" d="M16,24h2V23H16Z"/><path class="ta15-2" d="M13,24v1h3V24H13Z"/><path class="ta15-4" d="M15,23H13v1h3V23Z"/><path class="ta15-2" d="M12,23H11v1h2V23Z"/><rect class="ta15-2" x="10" y="24" width="1" height="1"/><path class="ta15-2" d="M9,27H8V26h2V25H8V24H7v7H6v1H8v1H9V27Z"/><path class="ta15-3" d="M7,30V24H6v7H7Z"/><path class="ta15-3" d="M14,31V29H13v2Z"/><path class="ta15-5" d="M14,29v2H13V30H12v2h3V28H13v1Z"/><path class="ta15-5" d="M10,29v3h1V28H10Z"/><path class="ta15-5" d="M18,29h1V28H17v1Z"/><path class="ta15-5" d="M16,31v1h3V30H18v1H17V30H16Z"/><path class="ta15-2" d="M12,26v4h1V25H12Z"/><path class="ta15-2" d="M16,30h1V25H16v5Z"/><path class="ta15-4" d="M16,22V21h1V20h1V19h1V16H16V14h3V13H16V12h1V11H12v1H11v1h2v3H10v3h1v1h1v1h1v1h3Zm-2-6h1v1H14Zm-2,3V18h5v1H16v1H13V19Z"/><rect class="ta15-2" x="14" y="16" width="1" height="1"/><path class="ta15-6" d="M10,14v2h1V14Z"/><path class="ta15-6" d="M12,15v1h1V14H12Z"/><path class="ta15-6" d="M16,14v2h1V14Z"/><path class="ta15-6" d="M18,14v2h1V14Z"/><path class="ta15-2" d="M12,14H11v2h1V14Z"/><path class="ta15-2" d="M17,14v2h1V14Z"/><path class="ta15-7" d="M17,12H16v1h3V12H17Z"/><path class="ta15-7" d="M10,14h3V13H10Z"/><path class="ta15-8" d="M11,13V12H10v1Z"/><path class="ta15-3" d="M8,15v5H9v1h1v1h1v1h2V22H12V21H11V20H10V19H9V12h1V11h2V10h5v1h2v1h1v7H19v1H18v1H17v1H16v1h2V22h1V21h1V20h1V11H20V10H19V9H18V8H11V9H10v1H9v1H8v4Z"/><rect class="ta15-2" x="10" y="8" width="1" height="1"/><rect class="ta15-2" x="9" y="9" width="1" height="1"/><rect class="ta15-2" x="8" y="10" width="1" height="1"/><path class="ta15-2" d="M8,15V11H7v5H8Z"/><rect class="ta15-2" x="8" y="20" width="1" height="1"/><rect class="ta15-2" x="9" y="21" width="1" height="1"/><rect class="ta15-2" x="10" y="22" width="1" height="1"/><rect class="ta15-2" x="18" y="22" width="1" height="1"/><rect class="ta15-2" x="19" y="21" width="1" height="1"/><rect class="ta15-2" x="20" y="20" width="1" height="1"/><path class="ta15-2" d="M21,20h1V11H21v9Z"/><rect class="ta15-2" x="20" y="10" width="1" height="1"/><rect class="ta15-2" x="19" y="9" width="1" height="1"/><rect class="ta15-2" x="18" y="8" width="1" height="1"/><path class="ta15-2" d="M18,8V7H11V8h7Z"/><path class="ta15-2" d="M12,12V11H10v1h2Z"/><path class="ta15-2" d="M10,16V12H9v7h1V16Z"/><rect class="ta15-2" x="10" y="19" width="1" height="1"/><rect class="ta15-2" x="11" y="20" width="1" height="1"/><rect class="ta15-2" x="12" y="21" width="1" height="1"/><path class="ta15-2" d="M16,23V22H13v1h3Z"/><rect class="ta15-2" x="16" y="21" width="1" height="1"/><rect class="ta15-2" x="17" y="20" width="1" height="1"/><rect class="ta15-2" x="18" y="19" width="1" height="1"/><path class="ta15-2" d="M19,14v5h1V12H19v2Z"/><path class="ta15-2" d="M18,12h1V11H17v1Z"/><path class="ta15-2" d="M17,11V10H12v1h5Z"/><path class="ta15-1" d="M0,7V33H8V32H6V31H5V22H6V21H7V20H5v1H2V17H5V16H7V11H8V10H9V9h1V8h1V7h7V8h1V9h1v1h1v1h1v9H21v1H20v1H19v1H18v1h1v1h2v1h1v1h1v6h6V0H0Z"/><path class="ta15-9" d="M16,18H12v1h4Z"/><path class="ta15-2" d="M16,20V19H13v1Z"/><path class="ta15-2" d="M17,19V18H16v1Z"/><path class="ta15-4" d="M7,24H8V22H6v2Z"/><path class="ta15-10" d="M8,22V20H7v2Z"/><path class="ta15-2" d="M7,21H6v1H7Z"/><path class="ta15-2" d="M9,22H8v2H9Z"/><path class="ta15-6" d="M8,19V16H7v1H6v2H7v1H8Z"/><path class="ta15-6" d="M6,16H5v1H6Z"/><path class="ta15-6" d="M5,19v1H6V19Z"/><rect class="ta15-11" x="4" y="18" width="1" height="1"/><path class="ta15-6" d="M5,18V17H4v1Z"/><path class="ta15-6" d="M4,21H5V20H4Z"/><path class="ta15-6" d="M4,20V18H3V17H2v4H3V20Z"/><path class="ta15-12" d="M5,19H6V18H5Z"/><path class="ta15-12" d="M4,19v1H5V19Z"/><path class="ta15-11" d="M6,18V17H5v1Z"/><path class="ta15-2" d="M7,17V16H6v1Z"/><path class="ta15-2" d="M6,19v1H7V19Z"/><path class="ta15-2" d="M4,18V17H3v1Z"/><path class="ta15-2" d="M3,20v1H4V20Z"/></svg>