<svg xmlns="http://www.w3.org/2000/svg" viewBox="0 0 29 33"><defs><style>polygon,rect,path{shape-rendering:crispedges;}.ea41-1{fill:#397d98;}.ea41-2{fill:#000000;}.ea41-3{fill:#a7af69;}.ea41-4{fill:#e8b795;}.ea41-5{fill:#ffffff;}.ea41-6{fill:#99004d;}.ea41-7{fill:#99004d;}.ea41-8{fill:#a06415;}</style></defs><path class="ea41-1" d="M0,33H6V27H7V26H8V25h2V24h2V22H10V20H9V16H8V15H9V11h1V10h1V9h7v1h1v1h1v4h1v1H20v4H19v1H18v1H17v2h2v1h2v1h1v1h1v6h6V0H0Z"/><path class="ea41-2" d="M23,27H22v3H21V27H20v6h1V31h1v2h1V27Z"/><rect class="ea41-2" x="21" y="26" width="1" height="1"/><path class="ea41-3" d="M21,28v2h1V27H21Z"/><path class="ea41-4" d="M21,31v2h1V31Z"/><path class="ea41-2" d="M20,26h1V25H19v1Z"/><path class="ea41-3" d="M20,27h1V26H19V25H17v1H16v1H13V26H12V25H10v1H8v1H9v6H20V27Z"/><path class="ea41-2" d="M18,25h1V24H17v1Z"/><rect class="ea41-2" x="16" y="25" width="1" height="1"/><path class="ea41-2" d="M13,26v1h3V26H13Z"/><path class="ea41-2" d="M13,23V22H12v2h1Z"/><path class="ea41-4" d="M13,25v1h3V25h1V24H16V23H13v1H12v1Z"/><rect class="ea41-2" x="12" y="25" width="1" height="1"/><path class="ea41-2" d="M12,24H10v1h2Z"/><path class="ea41-2" d="M10,25H8v1h2Z"/><path class="ea41-2" d="M9,27H8v3H7V27H6v6H7V31H8v2H9V27Z"/><rect class="ea41-2" x="7" y="26" width="1" height="1"/><path class="ea41-3" d="M7,30H8V27H7v3Z"/><path class="ea41-4" d="M7,31v2H8V31Z"/><rect class="ea41-2" x="20" y="15" width="1" height="1"/><path class="ea41-2" d="M19,13v2h1V11H19v2Z"/><rect class="ea41-4" x="13" y="20" width="1" height="1"/><path class="ea41-4" d="M12,15H11v1h2V15Z"/><path class="ea41-4" d="M18,14h1V13H17v1Z"/><rect class="ea41-4" x="10" y="16" width="1" height="1"/><rect class="ea41-4" x="15" y="20" width="1" height="1"/><path class="ea41-4" d="M11,13V12h2v2h1v2h1v1H14V16H13v1H11v2h1V18h2v1h1V18h2v1h1V18h1V16h1V15H16V13h1V12h2V11H18V10H11v1H10v2Z"/><rect class="ea41-4" x="9" y="15" width="1" height="1"/><rect class="ea41-2" x="18" y="10" width="1" height="1"/><path class="ea41-2" d="M16,23v1h1V22H16Z"/><path class="ea41-2" d="M18,10V9H11v1h7Z"/><rect class="ea41-2" x="10" y="10" width="1" height="1"/><path class="ea41-2" d="M10,14V11H9v4h1Z"/><rect class="ea41-2" x="8" y="15" width="1" height="1"/><rect class="ea41-2" x="14" y="16" width="1" height="1"/><rect class="ea41-5" x="12" y="14" width="1" height="1"/><path class="ea41-5" d="M18,14v1h1V14Z"/><path class="ea41-5" d="M16,14v1h1V14Z"/><rect class="ea41-2" x="11" y="14" width="1" height="1"/><path class="ea41-2" d="M17,14v1h1V14Z"/><path class="ea41-6" d="M11,13H10v1h1Z"/><path class="ea41-6" d="M13,12H11v1h2Z"/><path class="ea41-6" d="M17,13H16v1h1Z"/><path class="ea41-6" d="M19,12H17v1h2Z"/><path class="ea41-7" d="M14,18H13v1h1Z"/><path class="ea41-7" d="M13,23h3V22h2V21h1V20h1V16H19v2H18v1H17V18H15v1h1v2H15V20H14v1H13V19H11v3h2Z"/><path class="ea41-7" d="M10,17V16H9v4h1V17Z"/><path class="ea41-2" d="M13,19v1h3V19H13Z"/><path class="ea41-2" d="M12,18v1h1V18Z"/><path class="ea41-8" d="M13,16h1V14H13v2Z"/><path class="ea41-8" d="M12,14h1V13H11v1Z"/><path class="ea41-8" d="M13,16H11v1h2Z"/><polygon class="ea41-8" points="11 15 11 14 10 14 10 15 10 16 11 16 11 15"/><path class="ea41-8" d="M11,19V17H10v5h1V19Z"/></svg>