<svg xmlns="http://www.w3.org/2000/svg" viewBox="0 0 29 33"><defs><style>polygon,rect,path{shape-rendering:crispedges;}.la33-1{fill:#7a982c;}.la33-2{fill:#000000;}.la33-3{fill:#5a2de2;}.la33-4{fill:#e8b795;}.la33-5{fill:#ff6c77;}.la33-6{fill:#ffffff;}.la33-7{fill:#0068ff;}.la33-8{fill:#ff1f4a;}.la33-9{fill:#ff1d99;}.la33-10{fill:#e281bf;}.la33-11{fill:#9dba8b;}</style></defs><path class="la33-1" d="M11,24h1V22H11V21H9v4h1V24Z"/><path class="la33-2" d="M23,27H22v6h1V27Z"/><rect class="la33-2" x="21" y="26" width="1" height="1"/><path class="la33-3" d="M22,27H21v6h1V27Z"/><path class="la33-2" d="M21,27H20v6h1V27Z"/><path class="la33-2" d="M20,26h1V25H19v1Z"/><path class="la33-3" d="M20,27h1V26H19V25H16v1H13V25H10v1H9v7H20V27Z"/><path class="la33-2" d="M9,26H8v7H9V26Z"/><rect class="la33-2" x="9" y="25" width="1" height="1"/><path class="la33-4" d="M8,27V26H9V25H7v2Z"/><path class="la33-3" d="M8,27H7v6H8V27Z"/><path class="la33-2" d="M7,27V25H6v8H7V27Z"/><rect class="la33-4" x="13" y="20" width="3" height="1"/><rect class="la33-5" x="19" y="20" width="1"/><rect class="la33-5" x="10" y="21" width="1"/><rect class="la33-5" x="20" y="17" width="1"/><rect class="la33-5" x="18" y="10" width="1"/><rect class="la33-5" x="19" y="11" width="1"/><rect class="la33-5" x="20" y="15" width="1"/><path class="la33-5" d="M18,9Z"/><rect class="la33-5" x="9" y="11" width="1"/><rect class="la33-5" x="10" y="10" width="1"/><rect class="la33-5" x="8" y="15" width="1"/><path class="la33-1" d="M0,9V33H6V25H7V24H8V22H7v1H6v1H3V23H2V22H1V19H2V18H3V17H6v1H7v1H9V17H8V15H9V11h1V10h1V9h7v1h1v1h1v4h1v2H20v3H19v1H18v1H17v2h2v1h2v1h1v1h1v6h6V0H0Z"/><rect class="la33-1" x="8" y="20" width="1"/><rect class="la33-1" x="2" y="20" width="1"/><path class="la33-1" d="M3,19Z"/><path class="la33-2" d="M10,20v1h1v1h1v2H10v1h3v1h3V25h3V24H17V22h1V21h1V20h1V17h1V15H20v1H15V15H14v1H9V15H8v2H9v3Zm3,0h3v1H13Z"/><path class="la33-2" d="M14,13v1h1V13h5V11H19V10H18V9H11v1H10v1H9v2h5Z"/><path class="la33-6" d="M9,16h5V15h1v1h5V15h0V13H15v1H14V13H9v2H9Zm7-2h3v1H16Zm-6,0h3v1H10Z"/><path class="la33-7" d="M19,15V14H16v1h3Z"/><path class="la33-8" d="M13,15V14H10v1h3Z"/><polygon class="la33-9" points="9 21 10 21 10 20 9 20 9 20 9 21"/><path class="la33-9" d="M9,20V19H8v1Z"/><rect class="la33-10" x="7" y="20" width="1" height="1"/><path class="la33-9" d="M9,25V21H8v4Z"/><path class="la33-2" d="M8,24H7v1H8Z"/><polygon class="la33-11" points="3 18 2 18 2 19 3 19 3 18"/><path class="la33-11" d="M7,21V20H8V19H7V18H6V17H3v1H5v1H3v1H2V19H1v3H2v1H3v1H6V23H7V22H8V21Z"/><polygon class="la33-11" points="9 20 8 20 8 21 9 21 9 21 9 20"/><polygon class="la33-6" points="3 20 3 19 3 19 2 19 2 19 2 20 3 20"/><path class="la33-6" d="M4,19H5V18H3v1Z"/></svg>