<svg xmlns="http://www.w3.org/2000/svg" viewBox="0 0 29 33"><defs><style>polygon,rect,path{shape-rendering:crispedges;}.ga88-1{fill:#31a09d;}.ga88-2{fill:#000000;}.ga88-3{fill:#825fff;}.ga88-4{fill:#ce8452;}.ga88-5{fill:#825fff;}.ga88-6{fill:#473a35;}.ga88-7{fill:#ff6c77;}.ga88-8{fill:#db5800;}.ga88-9{fill:#ff6aa5;}.ga88-10{fill:#ad5a21;}.ga88-11{fill:#ffffff;}</style></defs><path class="ga88-1" d="M0,33H6V27H7V26H8V25h2V24h2V21H11V20H10V19H9V16H8V15H9V11h1V10h1V9h2V7h1V6h2V5h2V6H17V7h1V9h1v2h1v4h1v1H20v3H19v1H18v1H17v2h1V22h3v1h1v2h1v8h6V0H0Z"/><path class="ga88-2" d="M7,27H6v6H7V27Z"/><rect class="ga88-2" x="7" y="26" width="1" height="1"/><path class="ga88-3" d="M8,27H7v6H8V27Z"/><path class="ga88-2" d="M9,31V27H8v6H9V31Z"/><path class="ga88-2" d="M10,25H8v1h2Z"/><path class="ga88-3" d="M19,32V31H18v1H17V29h1V28h1v1h1V27H18V26H16v1H13V26H12V25H10v1H8v1H9v2h1V28h1v1h1v3H11V31H10v1H9v1H20V32Zm-3-2v1H15v1H13V28h2v1h1Z"/><path class="ga88-3" d="M15,29H14v2h1V29Z"/><rect class="ga88-3" x="10" y="29" width="1" height="1"/><rect class="ga88-3" x="18" y="29" width="1" height="1"/><path class="ga88-2" d="M12,24H10v1h2Z"/><path class="ga88-2" d="M13,23h3v1h1V21H16v1H13V21H12v3h1Z"/><rect class="ga88-2" x="12" y="25" width="1" height="1"/><path class="ga88-2" d="M13,26v1h3V26H13Z"/><path class="ga88-4" d="M13,25v1h3V25h1V24H16V23H13v1H12v1Z"/><path class="ga88-2" d="M16,25v1h1V25Z"/><path class="ga88-2" d="M21,27H20v6h1V27Z"/><path class="ga88-3" d="M22,27H21v6h1V27Z"/><path class="ga88-2" d="M23,25H22v8h1V25Z"/><path class="ga88-5" d="M19,30H18V29H17v3h1V31h1v1h1V29H19Z"/><rect class="ga88-5" x="18" y="28" width="1" height="1"/><path class="ga88-5" d="M15,30v1h1V29H15Z"/><path class="ga88-5" d="M14,30V29h1V28H13v4h2V31H14Z"/><path class="ga88-5" d="M9,32h1V31h1v1h1V29H11v1H10V29H9v3Z"/><rect class="ga88-5" x="10" y="28" width="1" height="1"/><rect class="ga88-2" x="20" y="15" width="1" height="1"/><path class="ga88-2" d="M19,13H15v1h4v1h1V11H19v2Z"/><rect class="ga88-4" x="9" y="15" width="1" height="1"/><path class="ga88-4" d="M13,22h3V21h1V20h1V19h1V16H16V15H13v1H10v3h1v1h1v1h1Zm1-6h1v1H14Zm-2,3V18h1v1h3v1H13V19Z"/><path class="ga88-4" d="M11,13V12h2v1h1v1h1V13h2V12h2V11H18V10H15v1H13V10H11v1H10v2Z"/><rect class="ga88-4" x="19" y="15" width="1" height="1"/><path class="ga88-2" d="M19,17v2h1V16H19Z"/><path class="ga88-2" d="M18,11h1V10H18Z"/><rect class="ga88-2" x="18" y="19" width="1" height="1"/><rect class="ga88-2" x="17" y="20" width="1" height="1"/><path class="ga88-2" d="M13,9H11v1h2Z"/><path class="ga88-2" d="M16,10h2V9H16Z"/><rect class="ga88-2" x="11" y="20" width="1" height="1"/><rect class="ga88-2" x="10" y="10" width="1" height="1"/><rect class="ga88-2" x="10" y="19" width="1" height="1"/><path class="ga88-2" d="M10,16H9v3h1V16Z"/><rect class="ga88-2" x="8" y="15" width="1" height="1"/><rect class="ga88-2" x="14" y="16" width="1" height="1"/><path class="ga88-6" d="M11,12v1h2V12Z"/><path class="ga88-6" d="M19,12H17v1h2Z"/><rect class="ga88-2" x="13" y="19" width="3" height="1"/><rect class="ga88-2" x="12" y="18" width="1" height="1"/><path class="ga88-7" d="M13,11h2V10h1V9h2V7H17V6h1V5H16V6H14V7H13v4Z"/><path class="ga88-7" d="M19,10V9H18v1Z"/><path class="ga88-8" d="M13,14H10v2h3V15h1V14Z"/><path class="ga88-8" d="M19,14H15v1h1v1h3V14Z"/><path class="ga88-2" d="M10,14h4V13H10V11H9v4h1Z"/><path class="ga88-2" d="M14,14v1h1V14Z"/><path class="ga88-4" d="M20,25v2h2V25H20Z"/><path class="ga88-9" d="M22,24V23H21v1Z"/><path class="ga88-9" d="M21,23V22H20v1Z"/><path class="ga88-9" d="M19,22H18v1h1Z"/><path class="ga88-9" d="M20,26V25H18v1h2Z"/><rect class="ga88-9" x="17" y="24" width="1" height="1"/><path class="ga88-10" d="M18,25h1V24h1v1h1V23H18v2Z"/><path class="ga88-10" d="M19,26H18v1h2V26Z"/><path class="ga88-11" d="M21,25h1V24H21Z"/><path class="ga88-11" d="M20,23V22H19v1Z"/><path class="ga88-11" d="M18,24V23H17v1Z"/><path class="ga88-11" d="M17,25v1h1V25Z"/><path class="ga88-2" d="M20,24H19v1h1Z"/><rect class="ga88-7" x="18" y="9" width="1" height="1"></rect></svg>