<svg xmlns="http://www.w3.org/2000/svg" viewBox="0 0 29 33"><defs><style>polygon,rect,path{shape-rendering:crispedges;}polygon,rect,path{shape-rendering:crispedges;}.lb53-1{fill:#a9a9a9;}.lb53-2{fill:#000000;}.lb53-3{fill:#bbbbbb;}.lb53-4{fill:#04263a;}.lb53-5{fill:#0068f5;}.lb53-6{fill:#008dff;}.lb53-7{fill:#008b4c;}.lb53-8{fill:#ffffff;}.lb53-9{fill:#004480;}.lb53-10{fill:#efcaaf;}.lb53-11{fill:#cc3232;}.lb53-12{fill:#7f5018;}.lb53-13{fill:#7f5018;}.lb53-14{fill:#6c9302;}.lb53-15{fill:#fad000;}.lb53-16{fill:#000000;}.lb53-17{fill:#455054;}.lb53-18{fill:#94d4ff;}.lb53-19{fill:#e5ac2e;}</style></defs><path class="lb53-1" d="M28,25H27v1h2V24H28Z"/><path class="lb53-2" d="M0,0V23H4V22H5v9H6V22H7V20H5v1H2V17H5V16H8v5h2V20H9V17h1V16H9V11h1V10h1V9h1V8h5V9h2v1h1v1h1v3H20v2H19v1h1v3H19v1h2v1h5v1h3V0H0ZM27,5V7H22V6H21V5H20V4h1V3h1V2h3V3h1V4h1Z"/><path class="lb53-1" d="M27,32H26V31H23v2h5V32Z"/><path class="lb53-1" d="M25,27v1H24v2h4v1h1V27H25Z"/><path class="lb53-3" d="M22,23H21v1h1v1H21v1h2V24h1V23h2V22H23v1Z"/><path class="lb53-3" d="M21,24H19v1h2Z"/><path class="lb53-3" d="M2,24H4v1H5V22H4v1H1v1Z"/><path class="lb53-3" d="M4,32V31H5V26H2V25H1V24H0v2H1v1H3v1H4v2H2v1H0v2H3V32Z"/><path class="lb53-3" d="M7,32H6v1H8V32Z"/><path class="lb53-3" d="M9,24H8v1h2V24Z"/><path class="lb53-3" d="M27,24H26v1H25v1H23v5h3v1h2v1h1V31H28V30H24V28h1V27h4V26H27V25h1V24h1V23H27Z"/><path class="lb53-3" d="M17,22h4V21H17Z"/><path class="lb53-4" d="M26,7h1V6H26Z"/><path class="lb53-5" d="M26,5V6h1V4H26Z"/><path class="lb53-5" d="M25,6V7h1V6Z"/><rect class="lb53-6" x="25" y="5" width="1" height="1"/><rect class="lb53-7" x="25" y="4" width="1" height="1"/><rect class="lb53-8" x="25" y="3" width="1" height="1"/><path class="lb53-1" d="M24,24H23v2h2V25h1V24h1V23H24Z"/><path class="lb53-7" d="M24,5H23V6h2V5Z"/><rect class="lb53-8" x="24" y="4" width="1" height="1"/><rect class="lb53-5" x="24" y="3" width="1" height="1"/><path class="lb53-9" d="M24,6H23V7h2V6Z"/><rect class="lb53-6" x="23" y="4" width="1" height="1"/><path class="lb53-1" d="M22,27h1V26H22Z"/><path class="lb53-4" d="M22,6V7h1V6Z"/><rect class="lb53-6" x="22" y="5" width="1" height="1"/><rect class="lb53-5" x="22" y="4" width="1" height="1"/><path class="lb53-7" d="M23,4h1V3h1V2H23V3H22V4Z"/><path class="lb53-6" d="M23,2H22V3h1Z"/><rect class="lb53-1" x="21" y="24" width="1" height="1"/><rect class="lb53-9" x="21" y="5" width="1" height="1"/><rect class="lb53-7" x="21" y="4" width="1" height="1"/><rect class="lb53-8" x="21" y="3" width="1" height="1"/><rect class="lb53-5" x="20" y="4" width="1" height="1"/><path class="lb53-1" d="M18,22v1h1v1h2V23h2V22H18Z"/><path class="lb53-1" d="M10,24V23h1V22H9v2Z"/><path class="lb53-1" d="M6,31H4v1H3v1H6V31Z"/><path class="lb53-1" d="M2,30H4V28H3V27H1V26H0v5H2Z"/><path class="lb53-1" d="M4,24H1v1H2v1H5V25H4Z"/><path class="lb53-1" d="M1,23H0v1H1Z"/><path class="lb53-2" d="M23,27H22v6h1V27Z"/><path class="lb53-2" d="M21,26v1h1V26Z"/><path class="lb53-10" d="M22,27H21v6h1V27Z"/><rect class="lb53-10" x="20" y="26" width="1" height="1"/><path class="lb53-2" d="M21,27H20v6h1V27Z"/><path class="lb53-2" d="M21,25H19v1h2Z"/><path class="lb53-11" d="M20,27V26H19V25H18v1H17v1H16v2H15v1H14V29H13V27H12V26H11V25H10v1H9v7H20V27Z"/><path class="lb53-10" d="M13,23v2h1V24h1v1h1V23Z"/><path class="lb53-10" d="M8,27H9V26H8Z"/><path class="lb53-2" d="M9,27H8V26h2V25H8V24H7v7H6v1H8v1H9V27Z"/><path class="lb53-10" d="M12,12v1h4V12h1V11H15V10H11v1H10v1Z"/><path class="lb53-10" d="M11,18v2h1v1h1v1h3V21h1V20h1V18h1V16h1V15H18v1H16V15H15V14H14v1H13v1H11V15H9v1h1v2Zm3-2h1v1H14Zm-1,3h3V18h1v1H16v1H13Z"/><rect class="lb53-10" x="10" y="13" width="1" height="1"/><rect class="lb53-2" x="14" y="16" width="1" height="1"/><path class="lb53-12" d="M18,18v2H17v1h2V20h1V17H19v1Z"/><path class="lb53-12" d="M12,20H11V18H10V17H9v3h1v1h2Z"/><rect class="lb53-13" x="18" y="13" width="1" height="1"/><path class="lb53-13" d="M17,12H16v1h2V12Z"/><path class="lb53-13" d="M10,12v1h2V12Z"/><rect class="lb53-2" x="13" y="19" width="3" height="1"/><rect class="lb53-2" x="16" y="18" width="1" height="1"/><path class="lb53-14" d="M10,13V11H9v3h1Z"/><rect class="lb53-14" x="10" y="10" width="1" height="1"/><path class="lb53-14" d="M15,10v1h2v1h1v1h1v1h2V11H20V10H19V9H17V8H12V9H11v1h4Z"/><rect class="lb53-2" x="14" y="29" width="1" height="1"/><rect class="lb53-2" x="12" y="26" width="1" height="1"/><path class="lb53-2" d="M15,28v1h1V27H15Z"/><rect class="lb53-2" x="16" y="26" width="1" height="1"/><path class="lb53-2" d="M13,27v2h1V27Z"/><rect class="lb53-2" x="17" y="25" width="1" height="1"/><rect class="lb53-2" x="11" y="25" width="1" height="1"/><rect class="lb53-2" x="14" y="24" width="1" height="1"/><rect class="lb53-2" x="13" y="25" width="1" height="1"/><rect class="lb53-2" x="15" y="25" width="1" height="1"/><rect class="lb53-15" x="16" y="25" width="1" height="1"/><path class="lb53-15" d="M15,26V25H14v1H13v1h1v2h1V27h1V26Z"/><rect class="lb53-15" x="12" y="25" width="1" height="1"/><path class="lb53-15" d="M12,24V23H11v2h1Z"/><path class="lb53-15" d="M17,23v2h1V23Z"/><path class="lb53-2" d="M19,23H18v2h1V23Z"/><path class="lb53-2" d="M10,23v2h1V23Z"/><path class="lb53-2" d="M12,23v2h1V23h3v2h1V23h1V22H17V21H16v1H13V21H12v1H11v1Z"/><path class="lb53-16" d="M11,16h2V15h1V14h1v1h1v1h2V15h2V14H18V13H11v1H9v1h2Z"/><path class="lb53-2" d="M11,16h2V15h1V14h1v1h1v1h2V15h2V14H18V13H11v1H9v1h2Z"/><path class="lb53-10" d="M7,24H8V22H6v9H7Z"/><path class="lb53-17" d="M8,21V20H7v2H8Z"/><path class="lb53-2" d="M9,22H8v2H9Z"/><path class="lb53-8" d="M4,19V18H2v2H5V19Z"/><path class="lb53-8" d="M6,18v1H8V17H5v1Z"/><path class="lb53-18" d="M5,18V17H2v1H5Z"/><path class="lb53-18" d="M2,20v1H5V20H2Z"/><path class="lb53-18" d="M8,17V16H5v1H8Z"/><path class="lb53-18" d="M8,19H5v1H8Z"/><path class="lb53-19" d="M5,18H4v1H6V18Z"/><path class="lb53-3" d="M9,22h3V21H8v1Z"/></svg>