<svg xmlns="http://www.w3.org/2000/svg" viewBox="0 0 29 33"><defs><style>polygon,rect,path{shape-rendering:crispedges;}.fa89-1{fill:#d14646;}.fa89-2{fill:#000000;}.fa89-3{fill:#5a2de2;}.fa89-4{fill:#c18d59;}.fa89-5{fill:#b8a4ff;}.fa89-6{fill:#ffffff;}.fa89-7{fill:#8e4717;}.fa89-8{fill:#00e070;}.fa89-9{fill:#a06415;}.fa89-10{fill:#eaeaea;}</style></defs><path class="fa89-1" d="M6,32V27H7V26H8V25h2V24h2V22H9V21H8V20H7V19H8V12H9V10h1V9h1V8h7V9h1v1h1v2h1v7h2v1h1v6H23v7h6V0H0V33H6Z"/><rect class="fa89-1" x="19" y="24" width="1" height="1"/><path class="fa89-1" d="M18,22H17v2h1Z"/><path class="fa89-2" d="M9,31V27H8v2H7V27H6v6H7V30H8v3H9V31Z"/><rect class="fa89-2" x="7" y="26" width="1" height="1"/><path class="fa89-2" d="M10,25H8v1h2Z"/><path class="fa89-2" d="M12,24H10v1h2Z"/><path class="fa89-2" d="M13,23h3v1h1V21H16v1H13V21H12v3h1Z"/><path class="fa89-2" d="M18,24H17v1h2V24Z"/><path class="fa89-2" d="M21,26H20v7h1V26Z"/><path class="fa89-2" d="M23,26H22v7h1V26Z"/><rect class="fa89-3" x="18" y="29" width="1" height="1"/><path class="fa89-3" d="M15,29H14v2h1V29Z"/><rect class="fa89-3" x="10" y="29" width="1" height="1"/><path class="fa89-3" d="M19,32V31H18v1H17V29h1V28h1v1h1V26H19V25H17v1H16v1H13V26H12V25H10v1H8v1H9v2h1V28h1v1h1v3H11V31H10v1H9v1H20V32Zm-3-2v1H15v1H13V28h2v1h1Z"/><path class="fa89-3" d="M8,29V27H7v2Z"/><path class="fa89-4" d="M22,26h1V25H20v1h1v7h1V26Z"/><path class="fa89-4" d="M13,25v1h3V25h1V24H16V23H13v1H12v1Z"/><path class="fa89-2" d="M13,26v1h3V26H13Z"/><path class="fa89-4" d="M8,30H7v3H8V30Z"/><rect class="fa89-2" x="16" y="25" width="1" height="1"/><rect class="fa89-2" x="12" y="25" width="1" height="1"/><path class="fa89-5" d="M19,30H18V29H17v3h1V31h1v1h1V29H19Z"/><rect class="fa89-5" x="18" y="28" width="1" height="1"/><path class="fa89-5" d="M15,30v1h1V29H15Z"/><path class="fa89-5" d="M14,30V29h1V28H13v4h2V31H14Z"/><path class="fa89-5" d="M9,32h1V31h1v1h1V29H11v1H10V29H9v3Z"/><rect class="fa89-5" x="10" y="28" width="1" height="1"/><path class="fa89-2" d="M20,16h1V15H20Z"/><rect class="fa89-2" x="19" y="14" width="1" height="1"/><path class="fa89-4" d="M12,15H11v1h2V15Z"/><rect class="fa89-4" x="17" y="13" width="1" height="1"/><rect class="fa89-4" x="10" y="16" width="1" height="1"/><rect class="fa89-4" x="9" y="15" width="1" height="1"/><path class="fa89-4" d="M18,20V19h1V16h1V15H16V13h1V11H16V10H13v1H12v1h1v2h1v2h1v1H14V16H13v1H11v3h1v1h1v1h3V21h1V20Zm-2,0H13V19h3Z"/><path class="fa89-2" d="M19,17v2h1V16H19Z"/><rect class="fa89-2" x="18" y="19" width="1" height="1"/><rect class="fa89-2" x="17" y="20" width="1" height="1"/><rect class="fa89-2" x="11" y="20" width="1" height="1"/><rect class="fa89-2" x="9" y="14" width="1" height="1"/><path class="fa89-2" d="M9,16v3h1V16Z"/><path class="fa89-2" d="M9,15H8v1H9Z"/><rect class="fa89-2" x="14" y="16" width="1" height="1"/><rect class="fa89-6" x="12" y="14" width="1" height="1"/><path class="fa89-6" d="M19,15V14H18v1Z"/><path class="fa89-6" d="M16,14v1h1V14Z"/><rect class="fa89-2" x="11" y="14" width="1" height="1"/><path class="fa89-2" d="M17,15h1V14H17Z"/><path class="fa89-7" d="M13,12H11v1h2Z"/><path class="fa89-7" d="M17,13H16v1h1Z"/><path class="fa89-7" d="M18,13V12H17v1Z"/><rect class="fa89-2" x="13" y="19" width="3" height="1"/><path class="fa89-8" d="M20,17v2h1V16H20Z"/><path class="fa89-8" d="M9,14h2V12h1V11h1V10h3v1h1v1h1v2h2v1h1V12H20V10H19V9H18V8H11V9H10v1H9v2H8v3H9Z"/><path class="fa89-8" d="M10,19H9V16H8v3H7v1H8v1H9v1h1V19Z"/><path class="fa89-8" d="M11,21v1h1V21Z"/><path class="fa89-8" d="M18,21H17v1h1Z"/><path class="fa89-9" d="M13,16h1V14H13v2Z"/><path class="fa89-9" d="M13,14V13H11v1h2Z"/><path class="fa89-9" d="M13,16H11v1h2Z"/><path class="fa89-9" d="M10,16h1V14H10v2Z"/><path class="fa89-9" d="M11,20V17H10v5h1V20Z"/><path class="fa89-2" d="M23,26h1V25H23Z"/><rect class="fa89-2" x="19" y="25" width="1" height="1"/><path class="fa89-2" d="M23,22h1V21H23Z"/><path class="fa89-2" d="M21,22h1V21H20v1Z"/><path class="fa89-6" d="M23,23h1V22H23Z"/><path class="fa89-6" d="M23,23H22v1H21v1h3V24H23Z"/><path class="fa89-10" d="M20,24v1h1V24Z"/><path class="fa89-10" d="M19,19v1H18v4h2V23H19V21h1V20h3V19H19Z"/><rect class="fa89-2" x="22" y="22" width="1" height="1"/><rect class="fa89-2" x="21" y="23" width="1" height="1"/><path class="fa89-2" d="M23,24h1V23H23Z"/><path class="fa89-6" d="M20,20v1h2v1h1V21h1V20H20Z"/><path class="fa89-6" d="M21,23h1V22H20V21H19v2h1v1h1Z"/></svg>