<svg xmlns="http://www.w3.org/2000/svg" viewBox="0 0 29 33"><defs><style>polygon,rect,path{shape-rendering:crispedges;}.ca247-1{fill:#b4bd09;}.ca247-2{fill:#000000;}.ca247-3{fill:#ce8452;}.ca247-4{fill:#00af68;}.ca247-5{fill:#9fffc6;}.ca247-6{fill:#ffffff;}.ca247-7{fill:#8e4717;}.ca247-8{fill:#00774c;}</style></defs><path class="ca247-1" d="M0,33H6V24H7V23H8v1H9v1h1V22H9V16H8V15H9V10h1V9h1V8h7V9h1v1h1v5h1v1H20v8H19v1h2v1h1v1h1v6h6V0H0Z"/><path class="ca247-2" d="M23,27H22v6h1V27Z"/><rect class="ca247-2" x="21" y="26" width="1" height="1"/><path class="ca247-3" d="M22,27H21v6h1V27Z"/><rect class="ca247-3" x="20" y="26" width="1" height="1"/><path class="ca247-2" d="M21,27H20v6h1V27Z"/><path class="ca247-2" d="M20,26h1V25H19v1Z"/><rect class="ca247-4" x="13" y="30" width="1" height="2"/><path class="ca247-4" d="M20,27V26H19v1H18V26H17v1H16v1H13V27H12V26H11V25H10v2H9v6h1V29h1v4h1V29h3v4h1V29h3v1H17v2h1V31h1v2h1V27Z"/><path class="ca247-2" d="M13,23h3v1h1V21H16v1H13V21H12v3h1Z"/><path class="ca247-2" d="M9,27H8v6H9V27Z"/><path class="ca247-3" d="M8,27H9V25H8V24H7v9H8V27Z"/><path class="ca247-2" d="M7,24H6v9H7V24Z"/><rect class="ca247-2" x="12" y="26" width="1" height="1"/><rect class="ca247-2" x="16" y="26" width="1" height="1"/><rect class="ca247-2" x="17" y="25" width="1" height="1"/><path class="ca247-2" d="M13,27v1h3V27H13Z"/><path class="ca247-3" d="M17,24H16V23H13v1H12v2h1v1h3V26h1V24Z"/><path class="ca247-5" d="M12,29v4h3V29Zm2,3H13V30h1Z"/><path class="ca247-5" d="M11,29H10v4h1V29Z"/><path class="ca247-5" d="M18,31v1H17V30h2V29H16v4h3V31Z"/><rect class="ca247-2" x="20" y="15" width="1" height="1"/><path class="ca247-3" d="M17,14h2V13H17Z"/><path class="ca247-3" d="M18,15H16V13h1V12h1V11H17V10H14v1H12v1h1v1H11v1h2v1H10v4h1v1h1v1h1v1h3V21h1V20h1V19h1V16h1V15H18Zm-4,1h1v1H14Zm2,4H13V19H12V18h1v1h3Z"/><path class="ca247-2" d="M19,17v2h1V16H19Z"/><rect class="ca247-2" x="18" y="19" width="1" height="1"/><rect class="ca247-2" x="17" y="20" width="1" height="1"/><rect class="ca247-2" x="11" y="20" width="1" height="1"/><rect class="ca247-2" x="10" y="19" width="1" height="1"/><path class="ca247-2" d="M10,18V16H9v3h1Z"/><rect class="ca247-2" x="8" y="15" width="1" height="1"/><rect class="ca247-2" x="14" y="16" width="1" height="1"/><path class="ca247-6" d="M13,15V14H12v1Z"/><path class="ca247-6" d="M11,14H10v1h1Z"/><path class="ca247-6" d="M18,15h1V14H18Z"/><path class="ca247-6" d="M16,14v1h1V14Z"/><path class="ca247-2" d="M12,15V14H11v1Z"/><path class="ca247-2" d="M17,14v1h1V14Z"/><path class="ca247-7" d="M13,12H11v1h2Z"/><path class="ca247-7" d="M17,13H16v1h1Z"/><path class="ca247-7" d="M17,13h1V12H17Z"/><rect class="ca247-2" x="13" y="19" width="3" height="1"/><rect class="ca247-2" x="12" y="18" width="1" height="1"/><path class="ca247-2" d="M10,27V25H9v2Z"/><rect class="ca247-2" x="8" y="24" width="1" height="1"/><rect class="ca247-2" x="7" y="23" width="1" height="1"/><path class="ca247-8" d="M19,20H18v1H17v4h1v2h1V24h1V19H19Z"/><path class="ca247-8" d="M10,15V14h1V12h1V11h2V10h3v1h1v2h1v2h1V10H19V9H18V8H11V9H10v1H9v6h1Z"/><path class="ca247-8" d="M11,26h1V21H11V20H10V19H9v3h1v3h1Z"/></svg>