<svg xmlns="http://www.w3.org/2000/svg" viewBox="0 0 29 33"><defs><style>polygon,rect,path{shape-rendering:crispedges;}.cb92-1{fill:#db5a8e;}.cb92-2{fill:#000000;}.cb92-3{fill:#875070;}.cb92-4{fill:#ffffff;}.cb92-5{fill:#c18d59;}.cb92-6{fill:#e2e2e2;}.cb92-7{fill:#e2e2e2;}.cb92-8{fill:#00e2b7;}.cb92-9{fill:#dfdfdf;}.cb92-10{fill:#a89969;}</style></defs><path class="cb92-1" d="M6,32V27H7V26H8V25h2V24h1V23h1V21H11V20H10V19H9V16H8V15H9V13H7V12H5V11H7v1H9V10h1V8h1V7h2V8h3V7h2V8h1V7h1V6h2V8H21V9H20v3h2V11h2v1H22v1H20v2h1v1H20v3H19v1H18v1H17v2h1v1h1v1h2v1h1v1h1v6h6V0H0V33H6Z"/><path class="cb92-2" d="M23,27H22v6h1V27Z"/><path class="cb92-3" d="M22,27H21v6h1V27Z"/><rect class="cb92-2" x="21" y="26" width="1" height="1"/><path class="cb92-2" d="M21,27H20v6h1V27Z"/><path class="cb92-3" d="M20,27h1V26H19V25H18v4H17v4h3V27Z"/><path class="cb92-2" d="M20,26h1V25H19v1Z"/><path class="cb92-2" d="M17,29H16v4h1V29Z"/><rect class="cb92-4" x="16" y="24" width="1" height="1"/><path class="cb92-4" d="M16,29h1V26H16V25H13v1H12v3h1v4h1V32h1v1h1V29Zm-1,2H14V30h1Zm0-2H14V28h1Zm0-2H14V26h1Z"/><rect class="cb92-4" x="15" y="23" width="1" height="1"/><rect class="cb92-2" x="14" y="32" width="1" height="1"/><rect class="cb92-2" x="14" y="30" width="1" height="1"/><rect class="cb92-2" x="14" y="28" width="1" height="1"/><rect class="cb92-2" x="14" y="26" width="1" height="1"/><rect class="cb92-4" x="13" y="23" width="1" height="1"/><path class="cb92-2" d="M13,29H12v4h1V29Z"/><rect class="cb92-4" x="12" y="24" width="1" height="1"/><path class="cb92-3" d="M12,29H11V25H10v1H8v1H9v6h3V29Z"/><path class="cb92-2" d="M11,26v3h1V26h1V25H12V24h1V23h1v1H13v1h3V24H15V23h1v1h1v1H16v1h1v3h1V25h1V24H18V23H17V21H16v1H13V21H12v2H11v1H10v1h1Z"/><path class="cb92-2" d="M10,25H8v1h2Z"/><path class="cb92-2" d="M9,27H8v6H9V27Z"/><path class="cb92-3" d="M8,27H7v6H8V27Z"/><rect class="cb92-2" x="7" y="26" width="1" height="1"/><path class="cb92-2" d="M7,27H6v6H7V27Z"/><rect class="cb92-2" x="20" y="15" width="1" height="1"/><path class="cb92-2" d="M19,15h1V14H19Z"/><path class="cb92-5" d="M13,22h3V21h1V20h1V19h1V16h1V15H16V14h2V13H13v2H9v1h1v3h1v1h1v1h1Zm1-6h1v1H14Zm-2,3V18h5v1H15v1H14V19Z"/><path class="cb92-5" d="M12,14V13H10v1h2Z"/><path class="cb92-2" d="M19,17v2h1V16H19Z"/><rect class="cb92-2" x="18" y="19" width="1" height="1"/><rect class="cb92-2" x="17" y="20" width="1" height="1"/><rect class="cb92-2" x="11" y="20" width="1" height="1"/><rect class="cb92-2" x="10" y="19" width="1" height="1"/><path class="cb92-2" d="M10,14H9v1h1Z"/><path class="cb92-2" d="M10,16H9v3h1V16Z"/><rect class="cb92-2" x="8" y="15" width="1" height="1"/><rect class="cb92-2" x="14" y="16" width="1" height="1"/><path class="cb92-4" d="M12,15h1V14H12Z"/><path class="cb92-4" d="M10,14v1h1V14Z"/><path class="cb92-4" d="M18,14v1h1V14Z"/><path class="cb92-4" d="M16,14v1h1V14Z"/><path class="cb92-2" d="M11,14v1h1V14Z"/><path class="cb92-2" d="M17,14v1h1V14Z"/><rect class="cb92-6" x="18" y="13" width="1" height="1"/><path class="cb92-6" d="M12,14h1V13H12Z"/><path class="cb92-7" d="M15,19h2V18H12v1h3Z"/><path class="cb92-2" d="M14,20h1V19H14Z"/><path class="cb92-8" d="M19,14h1V13H19Z"/><path class="cb92-8" d="M10,13H9v1h1Z"/><path class="cb92-2" d="M24,11H22v1h2Z"/><path class="cb92-9" d="M21,8h1V7H21Z"/><path class="cb92-2" d="M11,13H22V12H20V11H19v1H10V11H9v1H7v1h4Z"/><rect class="cb92-9" x="20" y="8" width="1" height="1"/><path class="cb92-10" d="M19,11h1V10H19Z"/><path class="cb92-4" d="M18,11h1V10h1V8h1V7h1V6H20V7H19V8H18v3Z"/><path class="cb92-10" d="M17,11H10v1h9V11H17Z"/><path class="cb92-2" d="M11,11h7V7H16V8H13V7H11V8H10v3Z"/><path class="cb92-10" d="M10,10H9v1h1Z"/><path class="cb92-2" d="M6,11H5v1H7V11Z"/></svg>