<svg xmlns="http://www.w3.org/2000/svg" viewBox="0 0 29 33"><defs><style>polygon,rect,path{shape-rendering:crispedges;}.ib267-1{fill:#29834f;}.ib267-2{fill:#000000;}.ib267-3{fill:#512a24;}.ib267-4{fill:#99004d;}.ib267-5{fill:#cbed03;}.ib267-6{fill:#f9e100;}.ib267-7{fill:#893a1f;}.ib267-8{fill:#dfdfdf;}.ib267-9{fill:#b2622b;}.ib267-10{fill:#ffffff;}</style></defs><path class="ib267-1" d="M0,33H6V27H7V26H8V25h2V24h2V21H11V20H10V19H9V16H8V15H9V13H7V12H5V11H7v1H9V10h1V8h1V7h2V8h3V7h2V8h1V7h1V6h2V8H21V9H20v3h2V11h2v1H22v1H20v2h1v1H20v3H19v1H18v1H17v3h2v1h2v1h1v1h1v6h6V0H0Z"/><path class="ib267-2" d="M23,27H22v6h1V27Z"/><path class="ib267-3" d="M22,27H21v6h1V27Z"/><rect class="ib267-2" x="21" y="26" width="1" height="1"/><path class="ib267-2" d="M21,27H20v6h1V27Z"/><path class="ib267-3" d="M20,27h1V26H19V25H17V24H16V23H13v1H12v1H10v1H8v1H9v6h5V29h1v4h5V27Zm-8,2H11V28h1Zm6,0H17V28h1Z"/><path class="ib267-2" d="M20,26h1V25H19v1Z"/><rect class="ib267-2" x="17" y="28" width="1" height="1"/><path class="ib267-2" d="M18,25h1V24H17v1Z"/><path class="ib267-2" d="M15,29H14v4h1V29Z"/><path class="ib267-2" d="M13,23V22H12v2h1Z"/><rect class="ib267-2" x="11" y="28" width="1" height="1"/><path class="ib267-2" d="M12,24H10v1h2Z"/><path class="ib267-2" d="M10,25H8v1h2Z"/><path class="ib267-2" d="M9,27H8v6H9V27Z"/><path class="ib267-3" d="M8,27H7v6H8V27Z"/><rect class="ib267-2" x="7" y="26" width="1" height="1"/><path class="ib267-2" d="M7,27H6v6H7V27Z"/><rect class="ib267-2" x="20" y="15" width="1" height="1"/><rect class="ib267-3" x="19" y="15" width="1" height="1"/><path class="ib267-3" d="M13,21h3V20H13Z"/><rect class="ib267-3" x="14" y="13" width="1" height="1"/><rect class="ib267-3" x="16" y="19" width="1" height="1"/><path class="ib267-3" d="M16,16V15H13v1H10v2h1v1h1v1h1V19h3V18h1v1h1V18h1V16H16Zm-1,1H14V16h1Z"/><rect class="ib267-3" x="9" y="15" width="1" height="1"/><path class="ib267-2" d="M16,23v1h1V22H16Z"/><rect class="ib267-2" x="8" y="15" width="1" height="1"/><rect class="ib267-2" x="14" y="16" width="1" height="1"/><path class="ib267-4" d="M13,23h3V22h1V21h1V20h1V19h1V16H19v2H18v1H17v1H16v1H13V20H12V19H11V18H10V16H9v3h1v1h1v1h1v1h1Z"/><rect class="ib267-2" x="13" y="19" width="3" height="1"/><rect class="ib267-2" x="16" y="18" width="1" height="1"/><path class="ib267-5" d="M19,14h1V13H19Z"/><path class="ib267-5" d="M10,13H9v1h1Z"/><path class="ib267-6" d="M13,16V15h1V14H10v2h3Z"/><path class="ib267-6" d="M19,14H15v1h1v1h3V14Z"/><path class="ib267-2" d="M16,14h3V13H15v1Z"/><path class="ib267-2" d="M14,14V13H10v1h4Z"/><path class="ib267-2" d="M19,15h1V14H19Z"/><path class="ib267-2" d="M10,14H9v1h1Z"/><path class="ib267-2" d="M14,15h1V14H14Z"/><path class="ib267-7" d="M24,11H22v1h2Z"/><path class="ib267-8" d="M21,8h1V7H21Z"/><path class="ib267-7" d="M11,13H22V12H20V11H19v1H10V11H9v1H7v1h4Z"/><rect class="ib267-8" x="20" y="8" width="1" height="1"/><path class="ib267-9" d="M19,11h1V10H19Z"/><path class="ib267-10" d="M18,11h1V10h1V8h1V7h1V6H20V7H19V8H18v3Z"/><path class="ib267-9" d="M17,11H10v1h9V11H17Z"/><path class="ib267-7" d="M11,11h7V7H16V8H13V7H11V8H10v3Z"/><path class="ib267-9" d="M10,10H9v1h1Z"/><path class="ib267-7" d="M6,11H5v1H7V11Z"/></svg>