<svg xmlns="http://www.w3.org/2000/svg" viewBox="0 0 29 33"><defs><style>polygon,rect,path{shape-rendering:crispedges;}.ia78-1{fill:#29834f;}.ia78-2{fill:#000000;}.ia78-3{fill:#333333;}.ia78-4{fill:#c18d59;}.ia78-5{fill:#ffffff;}.ia78-6{fill:#5e362f;}.ia78-7{fill:#990000;}.ia78-8{fill:#ff1d99;}.ia78-9{fill:#6e12ff;}.ia78-10{fill:#ffffff;}.ia78-11{fill:#fad000;}</style></defs><path class="ia78-1" d="M21,21H20v1H19V21H17v3h2v1h2V21Z"/><path class="ia78-1" d="M28,3H27V5H26V6H25V7H24V8h1V9H24v5H23v6H22v1h1v1h1v9H23v1H21v1h8V0H28Z"/><path class="ia78-1" d="M6,27H7V26H8V25h2V24h2V21H10v1H9V21H8V20H9V17H8V12H9V10h1V9h1V8h7V9h1v1h1v2h1v6H20v2h2V14h1V9H22V8h1V7H22V6H21V5H20V3H19V0H0V33H6V27Z"/><path class="ia78-2" d="M23,29v2h1V22H23v7Z"/><path class="ia78-3" d="M23,24H22v7h1V24Z"/><path class="ia78-2" d="M22,32h1V31H22V23H21v2H19v1h2v1H20v6h1V32Z"/><path class="ia78-3" d="M19,32V31H18v1H17V29h1V28h1v1h1V27h1V26H19V25H17v1H16v1H13V26H12V25H10v1H8v1H9v2h1V28h1v1h1v3H11V31H10v1H9v1H20V32Zm-3-2v1H15v1H13V28h2v1h1Z"/><path class="ia78-3" d="M15,29H14v2h1V29Z"/><rect class="ia78-3" x="10" y="29" width="1" height="1"/><rect class="ia78-3" x="18" y="29" width="1" height="1"/><path class="ia78-2" d="M18,24H17v1h2V24Z"/><rect class="ia78-2" x="16" y="25" width="1" height="1"/><path class="ia78-2" d="M13,26v1h3V26H13Z"/><path class="ia78-2" d="M13,23h3v1h1V21H16v1H13V21H12v3h1Z"/><path class="ia78-4" d="M16,24V23H13v1H12v1h1v1h3V25h1V24Z"/><rect class="ia78-2" x="12" y="25" width="1" height="1"/><path class="ia78-2" d="M11,24H10v1h2V24Z"/><path class="ia78-2" d="M8,26h2V25H8Z"/><path class="ia78-2" d="M9,31V27H8v6H9V31Z"/><rect class="ia78-2" x="7" y="26" width="1" height="1"/><path class="ia78-3" d="M8,27H7v6H8V27Z"/><path class="ia78-2" d="M7,27H6v6H7V27Z"/><path class="ia78-5" d="M19,30H18V29H17v3h1V31h1v1h1V29H19Z"/><rect class="ia78-5" x="18" y="28" width="1" height="1"/><path class="ia78-5" d="M15,30v1h1V29H15Z"/><path class="ia78-5" d="M14,30V29h1V28H13v4h2V31H14Z"/><path class="ia78-5" d="M9,32h1V31h1v1h1V29H11v1H10V29H9v3Z"/><rect class="ia78-5" x="10" y="28" width="1" height="1"/><rect class="ia78-4" x="14" y="15" width="1" height="1"/><path class="ia78-4" d="M13,22h3V21h1V20h1V19h1V17H16V16H15v1H14V16H13v1H10v2h1v1h1v1h1Zm-1-3V18h1v1h3v1H13V19Z"/><path class="ia78-4" d="M14,14h2V13h1V11H16V10H15v1H14v1H13v2Z"/><path class="ia78-2" d="M19,16v3h1V16Z"/><rect class="ia78-2" x="18" y="19" width="1" height="1"/><path class="ia78-2" d="M17,20v1h1V20Z"/><path class="ia78-2" d="M11,20v1h1V20Z"/><rect class="ia78-2" x="10" y="19" width="1" height="1"/><path class="ia78-2" d="M10,18H9v1h1Z"/><rect class="ia78-2" x="14" y="16" width="1" height="1"/><path class="ia78-6" d="M18,13V12H17v1Z"/><rect class="ia78-2" x="13" y="19" width="3" height="1"/><rect class="ia78-2" x="12" y="18" width="1" height="1"/><path class="ia78-7" d="M19,20H18v1h1v1h1V21h1V20H20V19H19Z"/><path class="ia78-7" d="M10,20V19H9v1H8v1H9v1h1V21h1V20Z"/><path class="ia78-7" d="M20,16v2h1V15H20Z"/><path class="ia78-7" d="M10,13h3V12h1V11h1V10h1v1h1v1h1v1h1v1h2V12H20V10H19V9H18V8H11V9H10v1H9v2H8v2h2Z"/><path class="ia78-7" d="M10,17V16H9V15H8v2H9v1h1Z"/><path class="ia78-8" d="M19,16h1V15h1V14H19Z"/><path class="ia78-8" d="M16,13v1h3V13H16Z"/><path class="ia78-9" d="M19,16V14H16v2h3Z"/><path class="ia78-8" d="M18,16H16v1h3V16Z"/><path class="ia78-8" d="M14,14H13v2h1V15h1v1h1V14Z"/><path class="ia78-8" d="M13,14V13H10v1h3Z"/><path class="ia78-9" d="M12,14H10v2h3V14Z"/><path class="ia78-8" d="M10,16v1h3V16H10Z"/><path class="ia78-8" d="M9,16h1V14H8v1H9Z"/><path class="ia78-10" d="M23,9v5h1V8H23Z"/><rect class="ia78-10" x="22" y="14" width="1" height="6"/><path class="ia78-10" d="M21,21v1h1V20H21Z"/><rect class="ia78-11" x="22" y="8" width="1" height="1"/><path class="ia78-11" d="M25,9V8H24V9Z"/><path class="ia78-11" d="M20,3V5h1V6h1V7h1V8h1V7h1V6h1V5h1V3h1V0H19V3Z"/><path class="ia78-4" d="M21,22v1h1v1h1V22H21Z"/><path class="ia78-2" d="M23,22V21H22v1Z"/></svg>