<svg xmlns="http://www.w3.org/2000/svg" viewBox="0 0 29 33"><defs><style>polygon,rect,path{shape-rendering:crispedges;}.bb285-1{fill:#31a09d;}.bb285-2{fill:#000000;}.bb285-3{fill:#685432;}.bb285-4{fill:#ffffff;}.bb285-5{fill:#e8b795;}.bb285-6{fill:#99004d;}.bb285-7{fill:#99004d;}.bb285-8{fill:#a7af69;}</style></defs><rect class="bb285-1" x="16" y="8" width="1" height="1"/><path class="bb285-1" d="M0,33H6V27H7V26H8V25h2V24h1V23h1V21H11V20H10V19H9V16H8V15H9V10h1V9h1V8h1V9h1V8h3V7h1V8h2V9h1v1H19v1h1v4h1v1H20v3H19v1H18v1H17v2h1v1h1v1h2v1h1v1h1v6h6V0H0Z"/><path class="bb285-2" d="M23,27H22v6h1V27Z"/><path class="bb285-3" d="M22,27H21v6h1V27Z"/><rect class="bb285-2" x="21" y="26" width="1" height="1"/><path class="bb285-2" d="M21,27H20v6h1V27Z"/><path class="bb285-3" d="M20,27h1V26H19V25H18v4H17v4h3V27Z"/><path class="bb285-2" d="M20,26h1V25H19v1Z"/><path class="bb285-2" d="M17,29H16v4h1V29Z"/><rect class="bb285-4" x="16" y="24" width="1" height="1"/><path class="bb285-4" d="M16,29h1V26H16V25H13v1H12v3h1v4h1V32h1v1h1V29Zm-1,2H14V30h1Zm0-2H14V28h1Zm0-2H14V26h1Z"/><rect class="bb285-4" x="15" y="23" width="1" height="1"/><rect class="bb285-2" x="14" y="32" width="1" height="1"/><rect class="bb285-2" x="14" y="30" width="1" height="1"/><rect class="bb285-2" x="14" y="28" width="1" height="1"/><rect class="bb285-2" x="14" y="26" width="1" height="1"/><rect class="bb285-4" x="13" y="23" width="1" height="1"/><path class="bb285-2" d="M13,29H12v4h1V29Z"/><rect class="bb285-4" x="12" y="24" width="1" height="1"/><path class="bb285-3" d="M12,29H11V25H10v1H8v1H9v6h3V29Z"/><path class="bb285-2" d="M11,26v3h1V26h1V25H12V24h1V23h1v1H13v1h3V24H15V23h1v1h1v1H16v1h1v3h1V25h1V24H18V23H17V21H16v1H13V21H12v2H11v1H10v1h1Z"/><path class="bb285-2" d="M10,25H8v1h2Z"/><path class="bb285-2" d="M9,27H8v6H9V27Z"/><path class="bb285-3" d="M8,27H7v6H8V27Z"/><rect class="bb285-2" x="7" y="26" width="1" height="1"/><path class="bb285-2" d="M7,27H6v6H7V27Z"/><rect class="bb285-2" x="20" y="15" width="1" height="1"/><path class="bb285-5" d="M13,20v2h3V20Z"/><rect class="bb285-5" x="14" y="15" width="1" height="1"/><path class="bb285-5" d="M17,13v1h2V13Z"/><path class="bb285-5" d="M12,19V18h5v2h1V19h1V16H18v1H16V16H15v1H14V16H13v1H11V16H10v3h1v1h1Z"/><rect class="bb285-5" x="9" y="15" width="1" height="1"/><path class="bb285-5" d="M17,13V12h1V11H13V10H12v1H11v1h2v1H11v1h5V13Z"/><rect class="bb285-5" x="19" y="15" width="1" height="1"/><rect class="bb285-5" x="10" y="12" width="1" height="1"/><path class="bb285-2" d="M19,17v2h1V16H19Z"/><rect class="bb285-2" x="18" y="19" width="1" height="1"/><rect class="bb285-2" x="17" y="20" width="1" height="1"/><rect class="bb285-2" x="11" y="20" width="1" height="1"/><rect class="bb285-2" x="10" y="19" width="1" height="1"/><path class="bb285-2" d="M10,16H9v3h1V16Z"/><rect class="bb285-2" x="8" y="15" width="1" height="1"/><rect class="bb285-2" x="14" y="16" width="1" height="1"/><rect class="bb285-6" x="10" y="13" width="1" height="1"/><rect class="bb285-6" x="11" y="12" width="2" height="1"/><rect class="bb285-6" x="16" y="13" width="1" height="1"/><path class="bb285-6" d="M17,13h2V12H17Z"/><path class="bb285-7" d="M17,19V18H13v1h3v2h1V19Z"/><path class="bb285-7" d="M13,20V19H12v2h1Z"/><path class="bb285-2" d="M16,19H13v1h3Z"/><path class="bb285-2" d="M12,18v1h1V18Z"/><path class="bb285-8" d="M10,13V12h1V11h1V10h1v1h5v1h1v2h1V11H19V10h1V9H19V8H17V9H16V8H13V9H12V8H11V9H10v1H9v4h1Z"/><rect class="bb285-8" x="16" y="7" width="1" height="1"/><path class="bb285-2" d="M10,16h1v1h2V16h1V15h1v1h1v1h2V16h1V15h1V14H9v1h1Z"/></svg>