<svg xmlns="http://www.w3.org/2000/svg" viewBox="0 0 29 33"><defs><style>polygon,rect,path{shape-rendering:crispedges;}.fb111-1{fill:#d4a122;}.fb111-2{fill:#000000;}.fb111-3{fill:#875070;}.fb111-4{fill:#ffffff;}.fb111-5{fill:#a56e49;}.fb111-6{fill:#90a2a3;}.fb111-7{fill:#ffffff;}.fb111-8{fill:#893a1f;}.fb111-9{fill:#893a1f;}.fb111-10{fill:#e70059;}.fb111-11{fill:#9b8100;}</style></defs><path class="fb111-1" d="M0,33H6V24H7V23H8v1h2V23h1V22h1V21H11V20H10V19H9V16H8V15H9V11h1V10h1V7h1V6H11V5h2V6h2V7h1V9h2v1h1v1h1v4h1v1H20v3H19v1H18v1H17v1h1v1h1v1h1v1h1v1h1v1h1v6h6V0H0Z"/><path class="fb111-2" d="M23,27H22v6h1V27Z"/><path class="fb111-3" d="M22,27H21v6h1V27Z"/><path class="fb111-2" d="M21,27h1V26H21V25H20v2H17v1h2v1h1v4h1V27Z"/><rect class="fb111-2" x="19" y="24" width="1" height="1"/><path class="fb111-3" d="M20,29H19v1H18v1H17v1H16v1h4V29Z"/><rect class="fb111-2" x="18" y="23" width="1" height="1"/><path class="fb111-3" d="M18,25H17v1H16v5h1V30h1V29h1V28H17V27h2V26h1V25H19V24H18Z"/><rect class="fb111-3" x="17" y="23" width="1" height="1"/><rect class="fb111-2" x="17" y="24" width="1" height="1"/><rect class="fb111-2" x="18" y="29" width="1" height="1"/><rect class="fb111-2" x="16" y="25" width="1" height="1"/><path class="fb111-4" d="M15,27H14v6h1V27Z"/><path class="fb111-2" d="M12,24h1V22H11v1h1Z"/><path class="fb111-5" d="M17,25V24H16V23H13v1H12v1h1v1h3V25Z"/><rect class="fb111-2" x="12" y="25" width="1" height="1"/><path class="fb111-3" d="M12,32V31H11V30H10V29H9v4h4V32Z"/><rect class="fb111-3" x="11" y="23" width="1" height="1"/><rect class="fb111-2" x="11" y="24" width="1" height="1"/><rect class="fb111-2" x="11" y="30" width="1" height="1"/><rect class="fb111-2" x="10" y="23" width="1" height="1"/><path class="fb111-3" d="M10,27h2v1H10v1h1v1h1v1h1V26H12V25H11V24H10v3Z"/><path class="fb111-2" d="M9,29h1V28h2V27H10V24H8v1H9v2H8v6H9V29Z"/><path class="fb111-3" d="M8,27H7v6H8V27Z"/><path class="fb111-2" d="M7,27V24H6v9H7V27Z"/><rect class="fb111-2" x="10" y="29" width="1" height="1"/><rect class="fb111-2" x="17" y="30" width="1" height="1"/><path class="fb111-2" d="M17,32V31H16V26H13v5H12v1h1v1h1V27h1v6h1V32Z"/><path class="fb111-6" d="M19,27h1V26H19Z"/><rect class="fb111-2" x="20" y="15" width="1" height="1"/><path class="fb111-2" d="M19,14v1h1V11H19v3Z"/><rect class="fb111-5" x="15" y="20" width="1" height="1"/><rect class="fb111-5" x="13" y="20" width="1" height="1"/><path class="fb111-5" d="M10,17v1h1v1h1V18h5v1h1V18h1V16h1V15H16V13h3V11H18V10H16v1H14V10H11v1H10v1h3v1H10v1h3v1H9v1h1Zm4-1h1v1H14Z"/><path class="fb111-2" d="M19,17h1V16H19Z"/><rect class="fb111-2" x="18" y="10" width="1" height="1"/><path class="fb111-2" d="M16,23v1h1V23h1V22H16Z"/><path class="fb111-2" d="M13,9H11v1h2Z"/><path class="fb111-2" d="M17,10h1V9H16v1Z"/><rect class="fb111-2" x="10" y="10" width="1" height="1"/><path class="fb111-2" d="M10,16H9v1h1Z"/><rect class="fb111-2" x="8" y="15" width="1" height="1"/><rect class="fb111-2" x="14" y="16" width="1" height="1"/><path class="fb111-7" d="M18,14v1h1V14Z"/><path class="fb111-7" d="M13,15V14H12v1Z"/><path class="fb111-2" d="M17,14H16v1h2V14Z"/><path class="fb111-2" d="M12,15V14H10V11H9v4h3Z"/><path class="fb111-8" d="M13,13V12H10v1Z"/><path class="fb111-8" d="M18,14h1V13H16v1h2Z"/><path class="fb111-9" d="M13,23h3V22h1V21h1V20h1V19h1V17H19v1H18v1H16v2H15V20H14v1H13V19H11V18H10V17H9v2h1v1h1v1h1v1h1Z"/><path class="fb111-2" d="M12,18v1h1V18Z"/><path class="fb111-2" d="M16,18v1h1V18Z"/><path class="fb111-2" d="M15,20h1V19H15Z"/><path class="fb111-2" d="M15,19V18H14v1Z"/><path class="fb111-2" d="M13,19v1h1V19Z"/><path class="fb111-7" d="M14,18H13v1h1Z"/><path class="fb111-7" d="M15,18v1h1V18Z"/><rect class="fb111-10" x="14" y="19" width="1" height="1"/><path class="fb111-5" d="M7,27H9V25H8V24H7v3Z"/><rect class="fb111-2" x="7" y="23" width="1" height="1"/><path class="fb111-11" d="M13,10h1v1h2V7H15V6H13V5H11V6h1V7H11V9h2Z"/><rect class="fb111-11" x="10" y="9" width="1" height="1"></rect></svg>