<svg xmlns="http://www.w3.org/2000/svg" viewBox="0 0 29 33"><defs><style>polygon,rect,path{shape-rendering:crispedges;}.ra245-1{fill:#db5a8e;}.ra245-2{fill:#000000;}.ra245-3{fill:#68aa7b;}.ra245-4{fill:#a56e49;}.ra245-5{fill:#68aa7b;}.ra245-6{fill:#990000;}.ra245-7{fill:#cbed03;}.ra245-8{fill:#00e070;}.ra245-9{fill:#c9a717;}</style></defs><path class="ra245-1" d="M0,33H6V27H7V26H8V25h2V24h1V23H10V22h1V20H9V19H8V13H4V12H6V11H8V10h2V9h1V8h1V7h1V6h1V5h1V6h1V7h1V8h1V9h1v1h2v1h2v1h2v1H21v6H20v1H18v2h1v1H18v1h1v1h1V24h1V23h1v1h1v9h6V0H0Z"/><path class="ra245-2" d="M7,27H6v6H7V27Z"/><path class="ra245-3" d="M8,27H7v6H8V27Z"/><rect class="ra245-2" x="7" y="26" width="1" height="1"/><path class="ra245-2" d="M9,27H8v6H9V27Z"/><path class="ra245-3" d="M20,27H19V25H18V24H16v1h1v4h1v1h1v3h1V27Z"/><path class="ra245-3" d="M10,30h1V29h1V25h1V24H11v1H10v1H8v1H9v6h1V30Z"/><path class="ra245-2" d="M10,25H8v1h2Z"/><rect class="ra245-2" x="10" y="24" width="1" height="1"/><rect class="ra245-2" x="10" y="22" width="1" height="1"/><rect class="ra245-3" x="11" y="22" width="1" height="1"/><path class="ra245-2" d="M13,23h3v1h2V23H17V22h1V20H17v1H16v1H13V21H12V20H11v2h1v1H11v1h2Z"/><path class="ra245-2" d="M13,24v1h3V24H13Z"/><path class="ra245-4" d="M15,23H13v1h3V23Z"/><rect class="ra245-3" x="17" y="22" width="1" height="1"/><rect class="ra245-2" x="18" y="24" width="1" height="1"/><rect class="ra245-2" x="18" y="22" width="1" height="1"/><path class="ra245-2" d="M21,27H20v6h1V27Z"/><path class="ra245-3" d="M22,27H21v6h1V27Z"/><path class="ra245-2" d="M23,24H22v9h1V24Z"/><path class="ra245-3" d="M13,25v3h3V25H13Z"/><path class="ra245-3" d="M16,32H12v1h5V32Z"/><rect class="ra245-3" x="12" y="30" width="1" height="1"/><rect class="ra245-3" x="16" y="30" width="1" height="1"/><path class="ra245-5" d="M19,30H18V29H17v2H16V28H13v3H12V29H11v1H10v3h2V32h5v1h2V30Z"/><path class="ra245-2" d="M13,25H12v5h1V25Z"/><path class="ra245-2" d="M16,28v2h1V25H16v3Z"/><rect class="ra245-4" x="14" y="15" width="1" height="1"/><path class="ra245-4" d="M12,21h1v1h3V21h1V20h1V19h1V17H16V16H15v1H14V16H13v1H10v2h1v1h1Zm0-3h1v1h3v1H13V19H12Z"/><path class="ra245-2" d="M20,16H19v3h1V16Z"/><path class="ra245-2" d="M18,19v1h1V19Z"/><path class="ra245-2" d="M10,19v1h1V19Z"/><path class="ra245-2" d="M10,18V16H9v3h1Z"/><rect class="ra245-2" x="14" y="16" width="1" height="1"/><rect class="ra245-2" x="13" y="19" width="3" height="1"/><rect class="ra245-2" x="12" y="18" width="1" height="1"/><path class="ra245-4" d="M21,27h1V24H21v1H20v2Z"/><path class="ra245-2" d="M20,27V25H19v2Z"/><rect class="ra245-2" x="20" y="24" width="1" height="1"/><rect class="ra245-2" x="21" y="23" width="1" height="1"/><path class="ra245-6" d="M9,16V15H8v4H9V16Z"/><path class="ra245-6" d="M20,16v3h1V15H20Z"/><path class="ra245-6" d="M9,19v1h1V19Z"/><path class="ra245-6" d="M19,20h1V19H19Z"/><path class="ra245-7" d="M19,16h1V15h1V14H19Z"/><path class="ra245-8" d="M19,16V14H16v2h3Z"/><path class="ra245-7" d="M18,16H16v1h3V16Z"/><path class="ra245-7" d="M13,14v2h1V15h1v1h1V14Z"/><path class="ra245-8" d="M10,14v2h3V14Z"/><path class="ra245-7" d="M10,16v1h3V16H10Z"/><path class="ra245-7" d="M9,16h1V14H8v1H9Z"/><path class="ra245-9" d="M13,14h8V13h4V12H23V11H21V10H19V9H18V8H17V7H16V6H15V5H14V6H13V7H12V8H11V9H10v1H8v1H6v1H4v1H8v1h5Z"/></svg>