<svg xmlns="http://www.w3.org/2000/svg" viewBox="0 0 29 33"><defs><style>polygon,rect,path{shape-rendering:crispedges;}.hb69-1{fill:#397d98;}.hb69-2{fill:#000000;}.hb69-3{fill:#ce8452;}.hb69-4{fill:#ffffff;}.hb69-5{fill:#00774c;}.hb69-6{fill:#45ba00;}.hb69-7{fill:#cc3232;}</style></defs><path class="hb69-1" d="M0,33H6V27H7V26H8V25h2V24h2V21H11V20H10V19H9V16H8V15H9V10h1V9h1V8h7V9h1v1h1v5h1v1H20v3H19v1H18v1H17v3h2v1h2v1h1v1h1v6h6V0H0Z"/><path class="hb69-2" d="M23,27H22v6h1V27Z"/><path class="hb69-3" d="M22,27H21v6h1V27Z"/><rect class="hb69-2" x="21" y="26" width="1" height="1"/><path class="hb69-2" d="M21,27H20v6h1V27Z"/><path class="hb69-3" d="M20,27h1V26H19V25H17V24H16V23H13v1H12v1H10v1H8v1H9v6h5V29h1v4h5V27Zm-8,2H11V28h1Zm6,0H17V28h1Z"/><path class="hb69-2" d="M20,26h1V25H19v1Z"/><rect class="hb69-2" x="17" y="28" width="1" height="1"/><path class="hb69-2" d="M18,25h1V24H17v1Z"/><path class="hb69-2" d="M15,29H14v4h1V29Z"/><path class="hb69-2" d="M13,23h3v1h1V21H16v1H13V21H12v3h1Z"/><rect class="hb69-2" x="11" y="28" width="1" height="1"/><path class="hb69-2" d="M12,24H10v1h2Z"/><path class="hb69-2" d="M10,25H8v1h2Z"/><path class="hb69-2" d="M9,27H8v6H9V27Z"/><path class="hb69-3" d="M8,27H7v6H8V27Z"/><rect class="hb69-2" x="7" y="26" width="1" height="1"/><path class="hb69-2" d="M7,27H6v6H7V27Z"/><rect class="hb69-2" x="20" y="15" width="1" height="1"/><path class="hb69-3" d="M12,19V18h5v2h1V19h1V16h1V15H16V14h3V13H16V12h3V11H18V10H17v1H16V10H15v1H12V10H11v1H10v1h3v1H10v1h3v1H9v1h1v3h1v1h1Zm2-3h1v1H14Z"/><path class="hb69-3" d="M15,19v1H14V19H13v3h3V19Z"/><path class="hb69-2" d="M19,17v2h1V16H19Z"/><rect class="hb69-2" x="18" y="19" width="1" height="1"/><rect class="hb69-2" x="17" y="20" width="1" height="1"/><rect class="hb69-2" x="11" y="20" width="1" height="1"/><rect class="hb69-2" x="10" y="19" width="1" height="1"/><path class="hb69-2" d="M10,14H9v1h1Z"/><path class="hb69-2" d="M10,16H9v3h1V16Z"/><rect class="hb69-2" x="8" y="15" width="1" height="1"/><rect class="hb69-2" x="14" y="16" width="1" height="1"/><path class="hb69-4" d="M11,15V14H10v1Z"/><path class="hb69-4" d="M16,14v1h1V14Z"/><path class="hb69-2" d="M12,15h1V14H11v1Z"/><path class="hb69-2" d="M18,14H17v1h3V14H18Z"/><rect class="hb69-5" x="10" y="12" width="3" height="1"/><rect class="hb69-5" x="16" y="12" width="3" height="1"/><path class="hb69-6" d="M13,19h3v2h1V18H12v3h1Z"/><path class="hb69-2" d="M15,20V19H14v1Z"/><path class="hb69-7" d="M10,13V11h1V10h1v1h3V10h1v1h1V10h1v1h1v3h1V10H19V9H18V8H11V9H10v1H9v4h1Z"/></svg>