<svg xmlns="http://www.w3.org/2000/svg" viewBox="0 0 29 33"><defs><style>polygon,rect,path{shape-rendering:crispedges;}.ja136-1{fill:#e55b35;}.ja136-2{fill:#000000;}.ja136-3{fill:#66334f;}.ja136-4{fill:#b2622b;}.ja136-5{fill:#ffffff;}.ja136-6{fill:#8e4717;}.ja136-7{fill:#8e4717;}.ja136-8{fill:#ff6c77;}</style></defs><path class="ja136-1" d="M0,33H6V25H7V21h3v3h2V21H11V20H10V19H9V16H8V15H9V11h1V10h1V9h7v1h1v1h1v4h1v1H20v3H19v1H18v1H17v3h2v1h2v1h1v1h1v6h6V0H0Z"/><path class="ja136-2" d="M23,27H22v6h1V27Z"/><rect class="ja136-2" x="21" y="26" width="1" height="1"/><path class="ja136-3" d="M22,27H21v6h1V27Z"/><path class="ja136-2" d="M21,27H20v6h1V27Z"/><path class="ja136-2" d="M20,26h1V25H19v1Z"/><path class="ja136-3" d="M20,27h1V26H19V25H17V24H16V23H13v1H12v1H10v1H9v7H20V27Z"/><path class="ja136-2" d="M18,25h1V24H17v1Z"/><path class="ja136-2" d="M13,23h3v1h1V21H16v1H13V21H12v3h1Z"/><path class="ja136-2" d="M11,25h1V24H10v1Z"/><path class="ja136-2" d="M9,26H8v7H9V26Z"/><path class="ja136-4" d="M8,27V26H9V25H7v2Z"/><path class="ja136-3" d="M8,27H7v6H8V27Z"/><path class="ja136-2" d="M7,27V25H6v8H7V27Z"/><rect class="ja136-2" x="20" y="15" width="1" height="1"/><path class="ja136-2" d="M19,13v2h1V12H19Z"/><path class="ja136-4" d="M13,22h3V21h1V20h1V19h1V16h1V15H16V14h2V13H16V12h1V11H16V10H13v1H12v2h1v2H9v1h1v3h1v1h1v1h1Zm1-6h1v1H14Zm-2,3V18h5v1H16v1H13V19Z"/><rect class="ja136-4" x="11" y="10" width="1" height="1"/><rect class="ja136-4" x="17" y="10" width="1" height="1"/><path class="ja136-4" d="M18,12v1h1V11H18Z"/><rect class="ja136-4" x="10" y="11" width="1" height="1"/><path class="ja136-4" d="M10,14h2V13H10Z"/><path class="ja136-2" d="M19,17v2h1V16H19Z"/><rect class="ja136-2" x="18" y="19" width="1" height="1"/><rect class="ja136-2" x="17" y="20" width="1" height="1"/><rect class="ja136-2" x="11" y="20" width="1" height="1"/><rect class="ja136-2" x="10" y="19" width="1" height="1"/><path class="ja136-2" d="M10,14V12H9v3h1Z"/><path class="ja136-2" d="M10,16H9v3h1V16Z"/><rect class="ja136-2" x="8" y="15" width="1" height="1"/><rect class="ja136-2" x="14" y="16" width="1" height="1"/><path class="ja136-5" d="M12,15h1V14H12Z"/><path class="ja136-5" d="M10,14v1h1V14Z"/><path class="ja136-5" d="M18,14v1h1V14Z"/><path class="ja136-5" d="M16,14v1h1V14Z"/><path class="ja136-2" d="M11,14v1h1V14Z"/><path class="ja136-2" d="M17,14v1h1V14Z"/><path class="ja136-6" d="M19,13H18v1h1Z"/><polygon class="ja136-6" points="17 12 16 12 16 13 18 13 18 12 17 12"/><path class="ja136-6" d="M13,14V13H12v1Z"/><path class="ja136-6" d="M10,12v1h2V12H10Z"/><path class="ja136-7" d="M16,19h1V18H12v1h4Z"/><path class="ja136-2" d="M13,20h3V19H13Z"/><path class="ja136-8" d="M20,12V11H19v1Z"/><rect class="ja136-8" x="18" y="10" width="1" height="1"/><path class="ja136-8" d="M12,11h1V10h3v1h1V10h1V9H11v1h1Z"/><rect class="ja136-8" x="17" y="11" width="1" height="1"/><path class="ja136-8" d="M11,12h1V11H11Z"/><rect class="ja136-8" x="10" y="10" width="1" height="1"/><path class="ja136-8" d="M10,11H9v1h1Z"/><rect class="ja136-2" x="8" y="22" width="1" height="1"/><path class="ja136-5" d="M9,26h1V21H7v4H9ZM8,23V22H9v1Z"/></svg>