<svg xmlns="http://www.w3.org/2000/svg" viewBox="0 0 29 33"><defs><style>polygon,rect,path{shape-rendering:crispedges;}.oa91-1{fill:#6b4f99;}.oa91-2{fill:#000000;}.oa91-3{fill:#4fdb7d;}.oa91-4{fill:#ffffff;}.oa91-5{fill:#e8b795;}.oa91-6{fill:#825fff;}.oa91-7{fill:#fad000;}.oa91-8{fill:#c9a717;}</style></defs><path class="oa91-1" d="M0,33H6V27H7V26H8V25h2V24h2V21H11V20H10V19H9V16H8V13H4V12H6V11H8V10h2V9h1V8h1V7h1V6h1V5h1V6h1V7h1V8h1V9h1v1h2v1h2v1h2v1H21v5H20v1H19v1H18v1H17v3h2v1h2v1h1v1h1v6h6V0H0Z"/><path class="oa91-2" d="M23,27H22v6h1V27Z"/><rect class="oa91-2" x="21" y="26" width="1" height="1"/><path class="oa91-3" d="M22,27H21v6h1V27Z"/><path class="oa91-2" d="M21,27H20v6h1V27Z"/><path class="oa91-3" d="M20,27h1V26H19V25H18v8h2V27Z"/><path class="oa91-2" d="M20,26h1V25H19v1Z"/><path class="oa91-2" d="M18,25h1V24H17v1H16v1h1v7h1V25Z"/><path class="oa91-4" d="M17,26H16v1H13V26H12v7h5V26Z"/><path class="oa91-2" d="M13,26v1h3V26H13Z"/><path class="oa91-2" d="M13,23h3v1h1V21H16v1H13V21H12v3h1Z"/><path class="oa91-5" d="M13,25v1h3V25h1V24H16V23H13v1H12v1Z"/><path class="oa91-2" d="M12,26h1V25H12V24H10v1h1v8h1V26Z"/><path class="oa91-3" d="M11,25H10v1H8v1H9v6h2V25Z"/><path class="oa91-2" d="M10,25H8v1h2Z"/><path class="oa91-2" d="M9,27H8v6H9V27Z"/><rect class="oa91-2" x="7" y="26" width="1" height="1"/><path class="oa91-3" d="M8,27H7v6H8V27Z"/><path class="oa91-2" d="M7,27H6v6H7V27Z"/><rect class="oa91-5" x="14" y="15" width="1" height="1"/><path class="oa91-5" d="M13,22h3V21h1V20h1V19h1V17H16V16H15v1H14V16H13v1H10v2h1v1h1v1h1Zm0-3h3V18h1v1H16v1H13Z"/><path class="oa91-2" d="M19,16v3h1V16Z"/><rect class="oa91-2" x="18" y="19" width="1" height="1"/><rect class="oa91-2" x="17" y="20" width="1" height="1"/><rect class="oa91-2" x="11" y="20" width="1" height="1"/><rect class="oa91-2" x="10" y="19" width="1" height="1"/><path class="oa91-2" d="M10,16H9v3h1V16Z"/><path class="oa91-2" d="M8,15v1H9V15Z"/><rect class="oa91-2" x="14" y="16" width="1" height="1"/><rect class="oa91-2" x="13" y="19" width="3" height="1"/><rect class="oa91-2" x="16" y="18" width="1" height="1"/><path class="oa91-6" d="M20,16v2h1V15H20Z"/><path class="oa91-7" d="M19,16h1V15h1V14H19Z"/><path class="oa91-2" d="M19,16V14H16v2h3Z"/><path class="oa91-7" d="M18,16H16v1h3V16Z"/><path class="oa91-7" d="M13,14v2h1V15h1v1h1V14Z"/><path class="oa91-2" d="M10,14v2h3V14Z"/><path class="oa91-7" d="M10,16v1h3V16H10Z"/><path class="oa91-7" d="M10,15V14H8v1H9v1h1Z"/><path class="oa91-8" d="M13,14h8V13h4V12H23V11H21V10H19V9H18V8H17V7H16V6H15V5H14V6H13V7H12V8H11V9H10v1H8v1H6v1H4v1H8v1h5Z"/></svg>