<svg xmlns="http://www.w3.org/2000/svg" viewBox="0 0 29 33"><defs><style>polygon,rect,path{shape-rendering:crispedges;}.cb20-1{fill:#7a982c;}.cb20-2{fill:#000000;}.cb20-3{fill:#333333;}.cb20-4{fill:#ffffff;}.cb20-5{fill:#efcaaf;}.cb20-6{fill:#473a35;}.cb20-7{fill:#473a35;}.cb20-8{fill:#cc3232;}.cb20-9{fill:#0068ff;}.cb20-10{fill:#455054;}.cb20-11{fill:#ffffff;}.cb20-12{fill:#ff1f4a;}</style></defs><path class="cb20-1" d="M8,18v4H9v2H8v1h2V24h1V23h1V21H11V20H10V19H9V16H8v2Z"/><path class="cb20-1" d="M8,32H6V31H5V22H6V21H7V20H5v1H2V17H5V16H8V15H9V14H8V12H9V11H8V10H9V9H8V8h2V7h1V8h1V6h1V7h1V8h1V7h1V6h1V7h1V8h1V7h1V8H19V9h2v2H20v1h1v1H20v1h1v2H20v3H19v1H18v1H17v2h1v1h1v1h2v1h1v1h1v6h6V0H0V33H8Z"/><path class="cb20-2" d="M23,27H22v6h1V27Z"/><rect class="cb20-2" x="21" y="26" width="1" height="1"/><path class="cb20-3" d="M22,27H21v6h1V27Z"/><path class="cb20-2" d="M21,27H20v6h1V27Z"/><path class="cb20-2" d="M20,26h1V25H19v1Z"/><path class="cb20-3" d="M20,27h1V26H19V25H18v4H17v4h3V27Z"/><rect class="cb20-4" x="16" y="24" width="1" height="1"/><path class="cb20-2" d="M17,29H16v4h1V29Z"/><rect class="cb20-4" x="15" y="23" width="1" height="1"/><path class="cb20-4" d="M16,29h1V26H16V25H13v1H12v3h1v4h1V32h1v1h1V29Zm-1,2H14V30h1Zm0-2H14V28h1Zm0-2H14V26h1Z"/><rect class="cb20-2" x="14" y="26" width="1" height="1"/><rect class="cb20-2" x="14" y="28" width="1" height="1"/><rect class="cb20-2" x="14" y="30" width="1" height="1"/><rect class="cb20-2" x="14" y="32" width="1" height="1"/><rect class="cb20-4" x="13" y="23" width="1" height="1"/><rect class="cb20-4" x="12" y="24" width="1" height="1"/><path class="cb20-2" d="M13,29H12v4h1V29Z"/><path class="cb20-3" d="M12,29H11V25H10v1H8v1H9v6h3V29Z"/><path class="cb20-2" d="M9,27H8V26h2V25H8V24H7v7H6v1H8v1H9V27Z"/><path class="cb20-4" d="M6,25H7V24H6Z"/><path class="cb20-3" d="M7,30V25H6v6H7Z"/><path class="cb20-2" d="M6,25V22H5v9H6V25Z"/><path class="cb20-2" d="M20,16h1V15H20Z"/><path class="cb20-5" d="M16,13H13v1h5V13Z"/><rect class="cb20-5" x="19" y="15" width="1" height="1"/><rect class="cb20-5" x="14" y="10" width="1" height="1"/><rect class="cb20-5" x="9" y="15" width="1" height="1"/><rect class="cb20-5" x="11" y="10" width="1" height="1"/><rect class="cb20-5" x="17" y="10" width="1" height="1"/><path class="cb20-5" d="M19,16H18v1H16V16H15v1H14V16H13v1H11V16H10v3h1v1h1v1h2V20H13V19h3V18h1v1H16v1H15v1h2V20h1V19h1V16Z"/><path class="cb20-5" d="M11,13H10v1h2V13Z"/><rect class="cb20-5" x="14" y="15" width="1" height="1"/><path class="cb20-2" d="M19,17v2h1V16H19Z"/><rect class="cb20-2" x="18" y="19" width="1" height="1"/><rect class="cb20-2" x="17" y="20" width="1" height="1"/><path class="cb20-2" d="M16,22H13V21H12v2H11v1H10v1h1v4h1V26h1V25H12V24h1V23h1v1H13v1h3V24H15V23h1v1h1v1H16v1h1v3h1V25h1V24H18V23H17V21H16Z"/><rect class="cb20-2" x="11" y="20" width="1" height="1"/><rect class="cb20-2" x="10" y="19" width="1" height="1"/><path class="cb20-2" d="M10,16H9v3h1V16Z"/><rect class="cb20-2" x="8" y="15" width="1" height="1"/><rect class="cb20-2" x="14" y="16" width="1" height="1"/><rect class="cb20-6" x="18" y="13" width="1" height="1"/><rect class="cb20-6" x="12" y="13" width="1" height="1"/><path class="cb20-7" d="M14,22h2V21H15V20H14v1H13v1Z"/><polygon class="cb20-2" points="16 20 16 19 13 19 13 20 14 20 15 20 16 20"/><rect class="cb20-2" x="16" y="18" width="1" height="1"/><rect class="cb20-8" x="20" y="12" width="1" height="1"/><path class="cb20-8" d="M21,15V14H20v1Z"/><rect class="cb20-8" x="19" y="13" width="1" height="1"/><path class="cb20-8" d="M11,10h1v1h2V10h1v1h2V10h1v1h3V9H19V8H18V7H17V6H16V7H15V8H14V7H13V6H12V8H11V7H10V8H8V9H9v1H8v1h3Z"/><path class="cb20-8" d="M10,13H9V12H8v2h2Z"/><rect class="cb20-8" x="19" y="7" width="1" height="1"/><path class="cb20-2" d="M10,16h1v1h2V16h1V15h1v1h1v1h2V16h1V15h1V14H9v1h1Z"/><path class="cb20-4" d="M20,12V11H9v1H20Z"/><path class="cb20-9" d="M10,13H20V12H9v1Z"/><path class="cb20-5" d="M7,24H8V22H6v2Z"/><path class="cb20-10" d="M8,22V20H7v2Z"/><path class="cb20-2" d="M7,21H6v1H7Z"/><path class="cb20-2" d="M9,22H8v2H9Z"/><path class="cb20-11" d="M5,17H2v1H5Z"/><path class="cb20-11" d="M8,16H5v1H8Z"/><path class="cb20-12" d="M8,19H5v1H8Z"/><path class="cb20-12" d="M2,21H5V20H2Z"/><path class="cb20-9" d="M8,19V17H5v1H2v2H5V19Z"/></svg>