<svg xmlns="http://www.w3.org/2000/svg" viewBox="0 0 29 33"><defs><style>polygon,rect,path{shape-rendering:crispedges;}.ja196-1{fill:#d4a122;}.ja196-2{fill:#000000;}.ja196-3{fill:#cc2f76;}.ja196-4{fill:#7a982c;}.ja196-5{fill:#e8b795;}.ja196-6{fill:#ffffff;}.ja196-7{fill:#893a1f;}.ja196-8{fill:#893a1f;}.ja196-9{fill:#ff5e17;}</style></defs><path class="ja196-1" d="M0,33H6V27H7V26H8V25h2V24h2V21H11V20H10V19H9V16H8V15H9V11h1V10h1V9h7v1h1v1h1v4h1v1H20v3H19v1H18v1H17v3h2v1h2v1h1v1h1v6h6V0H0Z"/><path class="ja196-2" d="M23,27H22v6h1V27Z"/><rect class="ja196-2" x="21" y="26" width="1" height="1"/><path class="ja196-3" d="M21,31v1h1V30H21Z"/><path class="ja196-3" d="M21,28h1V27H21Z"/><path class="ja196-2" d="M21,31V27H20v6h1V31Z"/><path class="ja196-2" d="M20,26h1V25H19v1Z"/><path class="ja196-3" d="M19,31V30H18V28H17V27H16V25H15V24H14V23H13v2h1v1h1v2h1v1h1v2h1v1h1v1h1V31Z"/><rect class="ja196-3" x="16" y="24" width="1" height="1"/><path class="ja196-3" d="M10,31V30H9v2h1v1h1V31Z"/><path class="ja196-3" d="M16,31V30H15V28H14V27H13V25H11v1h1v2h1v1h1v2h1v1h1v1h1V31Z"/><path class="ja196-3" d="M17,25v1h1v2h1v1h1V27H19V25H17Z"/><path class="ja196-3" d="M13,31V30H12V28H11V27H10V26H9v2h1v1h1v2h1v1h1v1h1V31Z"/><path class="ja196-2" d="M18,25h1V24H17v1Z"/><path class="ja196-2" d="M13,23h3v1h1V21H16v1H13V21H12v3h1Z"/><path class="ja196-2" d="M12,25V24H10v1h2Z"/><path class="ja196-2" d="M10,26V25H8v1h2Z"/><path class="ja196-2" d="M9,31V27H8v6H9V31Z"/><rect class="ja196-2" x="7" y="26" width="1" height="1"/><path class="ja196-3" d="M7,31v2H8V31Z"/><path class="ja196-3" d="M8,29V27H7v2Z"/><path class="ja196-2" d="M7,30V27H6v6H7V30Z"/><path class="ja196-4" d="M21,29v1h1V28H21Z"/><path class="ja196-4" d="M21,32v1h1V32Z"/><path class="ja196-4" d="M19,26v1h2V26H19Z"/><path class="ja196-4" d="M19,28H18v2h1v1h1V29H19Z"/><path class="ja196-4" d="M17,26V25H16v2h1v1h1V26Z"/><path class="ja196-4" d="M18,32V31H17v2h2V32Z"/><path class="ja196-4" d="M16,30v1h1V29H16V28H15v2Z"/><path class="ja196-4" d="M16,23H14v1h1v1h1V23Z"/><path class="ja196-4" d="M14,27v1h1V26H14V25H13v2Z"/><path class="ja196-4" d="M15,32V31H14v2h2V32Z"/><path class="ja196-4" d="M13,30v1h1V29H13V28H12v2Z"/><path class="ja196-4" d="M13,25V24H12v1Z"/><path class="ja196-4" d="M10,27h1v1h1V26H11V25H10v2Z"/><path class="ja196-4" d="M12,32V31H11v2h2V32Z"/><path class="ja196-4" d="M10,30v1h1V29H10V28H9v2Z"/><path class="ja196-4" d="M9,32v1h1V32Z"/><path class="ja196-4" d="M9,27V26H8v1Z"/><path class="ja196-4" d="M7,30v1H8V29H7Z"/><rect class="ja196-2" x="20" y="15" width="1" height="1"/><path class="ja196-2" d="M19,13v2h1V12H19Z"/><rect class="ja196-5" x="10" y="11" width="1" height="1"/><rect class="ja196-5" x="16" y="19" width="1" height="1"/><rect class="ja196-5" x="13" y="20" width="1" height="1"/><rect class="ja196-5" x="15" y="20" width="1" height="1"/><rect class="ja196-5" x="11" y="10" width="1" height="1"/><rect class="ja196-5" x="17" y="10" width="1" height="1"/><rect class="ja196-5" x="12" y="19" width="1" height="1"/><path class="ja196-5" d="M10,14h2V13H10Z"/><path class="ja196-5" d="M18,12v1h1V11H18Z"/><path class="ja196-5" d="M12,19V18h5v1h2V16h1V15H16V14h2V13H16V12h1V11H16V10H13v1H12v2h1v2H9v1h1v3h2Zm2-3h1v1H14Z"/><path class="ja196-2" d="M19,17v2h1V16H19Z"/><path class="ja196-2" d="M18,20h1V19H18Z"/><rect class="ja196-2" x="17" y="20" width="1" height="1"/><rect class="ja196-2" x="11" y="20" width="1" height="1"/><path class="ja196-2" d="M10,19v1h1V19Z"/><path class="ja196-2" d="M10,14V12H9v3h1Z"/><path class="ja196-2" d="M10,16H9v3h1V16Z"/><rect class="ja196-2" x="8" y="15" width="1" height="1"/><rect class="ja196-2" x="14" y="16" width="1" height="1"/><path class="ja196-6" d="M12,15h1V14H12Z"/><path class="ja196-6" d="M10,14v1h1V14Z"/><path class="ja196-6" d="M18,14v1h1V14Z"/><path class="ja196-6" d="M16,14v1h1V14Z"/><path class="ja196-2" d="M11,14v1h1V14Z"/><path class="ja196-2" d="M17,14v1h1V14Z"/><path class="ja196-7" d="M19,13H18v1h1Z"/><polygon class="ja196-7" points="17 12 16 12 16 13 18 13 18 12 17 12"/><path class="ja196-7" d="M13,14V13H12v1Z"/><path class="ja196-7" d="M10,12v1h2V12H10Z"/><path class="ja196-8" d="M17,19v1h1V19Z"/><rect class="ja196-8" x="16" y="20" width="1" height="1"/><path class="ja196-8" d="M15,20H14v1H13v1h3V21H15Z"/><path class="ja196-8" d="M14,19h2V18H12v1h2Z"/><rect class="ja196-8" x="12" y="20" width="1" height="1"/><path class="ja196-8" d="M12,19H11v1h1Z"/><path class="ja196-2" d="M15,20h1V19H13v1h2Z"/><path class="ja196-2" d="M17,19V18H16v1Z"/><path class="ja196-9" d="M20,12V11H19v1Z"/><rect class="ja196-9" x="18" y="10" width="1" height="1"/><path class="ja196-9" d="M12,11h1V10h3v1h1V10h1V9H11v1h1Z"/><rect class="ja196-9" x="17" y="11" width="1" height="1"/><path class="ja196-9" d="M11,12h1V11H11Z"/><rect class="ja196-9" x="10" y="10" width="1" height="1"/><path class="ja196-9" d="M10,11H9v1h1Z"/></svg>