<svg xmlns="http://www.w3.org/2000/svg" viewBox="0 0 29 33"><defs><style>polygon,rect,path{shape-rendering:crispedges;}.ib279-1{fill:#6b4f99;}.ib279-2{fill:#000000;}.ib279-3{fill:#6d3e35;}.ib279-4{fill:#cbed03;}.ib279-5{fill:#ffce00;}.ib279-6{fill:#ff1d99;}.ib279-7{fill:#6e12ff;}.ib279-8{fill:#fafafa;}</style></defs><path class="ib279-1" d="M0,33H6V27H7V26H8V25h2V24h2V21H11V20H9V18H8V13H9V11h1V10h1V9h7v1h1v1h1v1h1v6H20v2h4v1h1v1h1v4H25v1H24v1H23v5h6V0H0Z"/><path class="ib279-1" d="M18,20v1H17v3h2V21h1V20H18Z"/><path class="ib279-2" d="M23,28h1V27H20v6h1V28h1v5h1V28Z"/><path class="ib279-3" d="M22,28H21v5h1V28Z"/><path class="ib279-3" d="M20,27h4V26H21V25h3v1h1V24H20v2H19V25H17V24H16V23H13v1H12v1H10v1H8v1H9v6h5V29h1v4h5V27Zm-8,2H11V28h1Zm6,0H17V28h1Z"/><rect class="ib279-2" x="17" y="28" width="1" height="1"/><path class="ib279-2" d="M15,29H14v4h1V29Z"/><path class="ib279-2" d="M13,23h3v1h1V21H16v1H13V21H12v3h1Z"/><rect class="ib279-2" x="11" y="28" width="1" height="1"/><path class="ib279-2" d="M12,24H10v1h2Z"/><path class="ib279-2" d="M10,25H8v1h2Z"/><path class="ib279-2" d="M9,27H8v6H9V27Z"/><path class="ib279-3" d="M8,27H7v6H8V27Z"/><rect class="ib279-2" x="7" y="26" width="1" height="1"/><path class="ib279-2" d="M7,27H6v6H7V27Z"/><rect class="ib279-3" x="14" y="15" width="1" height="1"/><path class="ib279-3" d="M18,12V11H17v2h1Z"/><path class="ib279-3" d="M16,13V12H15V11H14v3h2Z"/><path class="ib279-3" d="M13,12H11v1h2Z"/><path class="ib279-3" d="M13,22h3V21h1V20h1V19h1V18H18V17H16V16H15v1H14V16H13v1H11v1H10v1h1v1h1v1h1Zm-1-3V18h5v1H15v1H14V19Z"/><path class="ib279-2" d="M19,16v2h1V16Z"/><path class="ib279-2" d="M19,19H18v1h1Z"/><rect class="ib279-2" x="17" y="20" width="1" height="1"/><rect class="ib279-2" x="11" y="20" width="1" height="1"/><path class="ib279-2" d="M10,19v1h1V19Z"/><path class="ib279-2" d="M10,17V16H9v2h1Z"/><rect class="ib279-2" x="14" y="16" width="1" height="1"/><path class="ib279-4" d="M15,19h2V18H12v1h3Z"/><path class="ib279-2" d="M14,20h1V19H14Z"/><path class="ib279-5" d="M9,15H8v3H9V15Z"/><path class="ib279-5" d="M20,16v2h1V15H20Z"/><rect class="ib279-5" x="10" y="17" width="1" height="1"/><path class="ib279-5" d="M18,17v1h1V17Z"/><path class="ib279-5" d="M10,13h1V12h2v2h1V11h1v1h1v1h1V11h1v2h1v1h2V12H20V11H19V10H18V9H11v1H10v1H9v2H8v1h2Z"/><path class="ib279-5" d="M19,19v1h1V18H19Z"/><path class="ib279-5" d="M10,18H9v2h1V18Z"/><path class="ib279-6" d="M19,16h1V15h1V14H19Z"/><path class="ib279-6" d="M17,14h2V13H16v1Z"/><path class="ib279-7" d="M19,16V14H16v2h3Z"/><path class="ib279-6" d="M19,16H16v1h3Z"/><path class="ib279-6" d="M14,14H13v2h1V15h1v1h1V14Z"/><path class="ib279-6" d="M13,14V13H10v1h3Z"/><path class="ib279-7" d="M12,14H10v2h3V14Z"/><path class="ib279-6" d="M10,16v1h3V16H10Z"/><path class="ib279-6" d="M9,16h1V14H8v1H9Z"/><path class="ib279-8" d="M23,23v1h1V23Z"/><path class="ib279-8" d="M20,23v1h1V23Z"/><rect class="ib279-3" x="24" y="22" width="1" height="1"/><rect class="ib279-3" x="20" y="21" width="1" height="1"/><polygon class="ib279-3" points="22 23 23 23 23 21 22 21 22 22 21 22 21 23 22 23"/><path class="ib279-2" d="M23.25,25H21v1h3V25Z"/><path class="ib279-2" d="M21,23v1h1V23Z"/><path class="ib279-2" d="M24,23v1h1V23Z"/><rect class="ib279-2" x="24" y="26" width="1" height="1"/><path class="ib279-2" d="M25,26h1V25H25Z"/><path class="ib279-5" d="M21,23V22H20V21H19v4h1V23Z"/><path class="ib279-5" d="M21,21v1h1V21h1v2h1V22h1V21H24V20H20v1Z"/><path class="ib279-5" d="M25,24v1h1V22H25v2Z"/><path class="ib279-5" d="M22,23v1h1V23Z"/><path class="ib279-2" d="M18,24H17v1h2V24Z"/><path class="ib279-2" d="M19,26h1V25H19Z"/></svg>