<svg xmlns="http://www.w3.org/2000/svg" viewBox="0 0 29 33"><defs><style>polygon,rect,path{shape-rendering:crispedges;}.ia246-1{fill:#000000;}.ia246-2{fill:#00686d;}.ia246-3{fill:#72dd40;}.ia246-4{fill:#e8b795;}.ia246-5{fill:#ffffff;}.ia246-6{fill:#db5a8e;}.ia246-7{fill:#a06415;}</style></defs><path class="ia246-1" d="M23,24v7h1V23H23Z"/><path class="ia246-2" d="M23,24H22v7h1V24Z"/><path class="ia246-1" d="M22,32h1V31H22V23H21v2H19v1h2v1H20v6h1V32Z"/><path class="ia246-2" d="M19,32V31H18v1H17V29h1V28h1v1h1V27h1V26H19V25H17v1H16v1H13V26H12V25H10v1H8v1H9v2h1V28h1v1h1v3H11V31H10v1H9v1H20V32Zm-3-2v1H15v1H13V28h2v1h1Z"/><path class="ia246-2" d="M15,29H14v2h1V29Z"/><rect class="ia246-2" x="10" y="29" width="1" height="1"/><rect class="ia246-2" x="18" y="29" width="1" height="1"/><path class="ia246-1" d="M12,26h1v1h3V26h1V25h2V24H17V22h1V21h1V20h1V17h1V15H20V11H19V10H18V9H11v1H10v1H9v4H8v2H9v3h1V17h1V16H10V14h1V13h2v1h1v2H13v1H11v5h1v2H10v1h2Zm4-11V14h1v1h1V14h1v2H16Zm-3,5h3v1H13Z"/><path class="ia246-1" d="M10,25H8v1h2Z"/><path class="ia246-1" d="M9,31V27H8v6H9V31Z"/><rect class="ia246-1" x="7" y="26" width="1" height="1"/><path class="ia246-2" d="M8,27H7v6H8V27Z"/><path class="ia246-1" d="M7,27H6v6H7V27Z"/><path class="ia246-3" d="M19,30H18V29H17v3h1V31h1v1h1V29H19Z"/><rect class="ia246-3" x="18" y="28" width="1" height="1"/><path class="ia246-3" d="M15,30v1h1V29H15Z"/><path class="ia246-3" d="M14,30V29h1V28H13v4h2V31H14Z"/><path class="ia246-3" d="M9,32h1V31h1v1h1V29H11v1H10V29H9v3Z"/><rect class="ia246-3" x="10" y="28" width="1" height="1"/><rect class="ia246-4" x="13" y="20" width="3" height="1"/><path class="ia246-4" d="M13,15H11v1h2Z"/><path class="ia246-4" d="M19,15H16v1h3Z"/><path class="ia246-5" d="M12,15h1V14H12Z"/><path class="ia246-5" d="M19,14H18v1h1Z"/><path class="ia246-5" d="M17,14H16v1h1Z"/><path class="ia246-1" d="M12,15V14H11v1Z"/><path class="ia246-1" d="M20,21v2h1V21Z"/><rect class="ia246-1" x="21" y="20" width="1" height="1"/><rect class="ia246-1" x="22" y="19" width="2" height="1"/><path class="ia246-1" d="M24,23h1V20H24v3Z"/><path class="ia246-4" d="M22,24h1V23h1V20H22v1H21v2h1Z"/><path class="ia246-6" d="M0,9V33H6V27H7V26H8V25h2V24h2V22H10V20H9V17H8V15H9V11h1V10h1V9h7v1h1v1h1v4h1v2H20v3H19v1H18v1H17v2h2v1h2V23H20V21h1V20h1V19h2v1h1v3H24v8H23v1H21v1h8V0H0Z"/><path class="ia246-7" d="M13,16h1V14H13v2Z"/><path class="ia246-7" d="M13,14V13H11v1h2Z"/><path class="ia246-7" d="M13,16H11v1h2Z"/><path class="ia246-7" d="M11,14H10v2h1V14Z"/><path class="ia246-7" d="M11,17H10v5h1V17Z"/></svg>