<svg xmlns="http://www.w3.org/2000/svg" viewBox="0 0 29 33"><defs><style>polygon,rect,path{shape-rendering:crispedges;}.za140-1{fill:#397d98;}.za140-2{fill:#000000;}.za140-3{fill:#45ba00;}.za140-4{fill:#b2622b;}.za140-5{fill:#99ce09;}.za140-6{fill:#ffffff;}.za140-7{fill:#b23b00;}.za140-8{fill:#b23b00;}.za140-9{fill:#004a77;}.za140-10{fill:#ff6aa5;}.za140-11{fill:#ff1f4a;}.za140-12{fill:#ff791f;}.za140-13{fill:#fad000;}.za140-14{fill:#b6dc00;}.za140-15{fill:#00af68;}.za140-16{fill:#38a6e8;}.za140-17{fill:#0068ff;}.za140-18{fill:#6e12ff;}.za140-19{fill:#ff1d99;}.za140-20{fill:#cc2f76;}</style></defs><rect class="za140-1" x="10" y="23" width="1" height="1"/><rect class="za140-1" x="11" y="22" width="1" height="1"/><rect class="za140-1" x="9" y="24" width="1" height="1"/><path class="za140-1" d="M6,32V26H7V25H8V24H7V23H6V20H7V19H9V16H8V15H9V14H8V12H9V11H8V10H9V9H8V8h2V7h1V8h1V6h1V7h1V8h1V7h1V6h1V7h1V8h1V7h1V8H19V9h2v2H20v1h1v1H20v1h1v2H20v4H19v1H18v1H17v1h1v1h1v1h2v1h1v1h1v6h6V0H0V33H6Z"/><path class="za140-2" d="M23,27H22v6h1V27Z"/><path class="za140-3" d="M21,32v1h1V32Z"/><path class="za140-3" d="M21,28h1V27H21Z"/><path class="za140-3" d="M21,30v1h1V29H21Z"/><rect class="za140-2" x="21" y="26" width="1" height="1"/><path class="za140-2" d="M21,31V27H20v6h1V31Z"/><path class="za140-3" d="M19,32v1h1V32Z"/><path class="za140-3" d="M17,32V31h1V30h1v1h1V29H19V28h1V27h1V26H19v1H18V26H15v1H14V26H11v1H10v2H9v2h1V30h1v1h1v1H11v1h3V32H13V31h1V30h1v1h1v1H15v1h3V32Zm-2-3H13v1H12V29H11V28h1V27h1v1h3V27h1v1h1v1H17v1H16V29Z"/><rect class="za140-3" x="9" y="32" width="1" height="1"/><path class="za140-2" d="M20,26h1V25H19v1Z"/><rect class="za140-3" x="16" y="24" width="1" height="1"/><rect class="za140-2" x="15" y="24" width="1" height="1"/><rect class="za140-2" x="14" y="32" width="1" height="1"/><rect class="za140-2" x="14" y="30" width="1" height="1"/><path class="za140-2" d="M14,28v1h1V28Z"/><path class="za140-2" d="M14,25v2h1V25Z"/><rect class="za140-2" x="13" y="24" width="1" height="1"/><path class="za140-4" d="M14,24v1h1V24h1V23H13v1Z"/><rect class="za140-3" x="12" y="24" width="1" height="1"/><path class="za140-2" d="M12,25V24h1V22H12v1H11v1H10v1h1v1h2V25Z"/><path class="za140-2" d="M9,25v3h1V25Z"/><path class="za140-2" d="M9,31V28H8v5H9V31Z"/><path class="za140-3" d="M7,30v1H8V29H7Z"/><path class="za140-3" d="M7,32v1H8V32Z"/><path class="za140-2" d="M7,31V26H6v7H7V31Z"/><path class="za140-5" d="M12,32V31H11V30H10v1H9v1h1v1h1V32Z"/><path class="za140-5" d="M13,28V27H12v1H11v1h1v1h1V29h1V28Z"/><path class="za140-5" d="M10,25v2h1V25Z"/><path class="za140-5" d="M15,25v1h1V25Z"/><path class="za140-5" d="M13,25v1h1V25Z"/><path class="za140-5" d="M17,30V29h1V28H17V27H16v1H15v1h1v1Z"/><polygon class="za140-5" points="18 26 18 27 19 27 19 26 19 25 18 25 18 26"/><path class="za140-5" d="M7,29H8V28H7Z"/><path class="za140-5" d="M9,29h1V28H9Z"/><path class="za140-5" d="M21,29h1V28H21Z"/><path class="za140-5" d="M19,29h1V28H19Z"/><path class="za140-5" d="M21,32h1V31H21Z"/><path class="za140-5" d="M7,32H8V31H7Z"/><polygon class="za140-5" points="16 32 16 31 15 31 14 31 13 31 13 32 14 32 15 32 16 32"/><path class="za140-5" d="M20,32V31H19V30H18v1H17v1h1v1h1V32Z"/><path class="za140-2" d="M20,16h1V15H20Z"/><path class="za140-4" d="M10,17v1h1v1h1V18h2v1h1V18h2v1h1V18h1V16h1V15H16V14h2V13H16V12H15V10H14v1H13v1H12v1h1v2H9v1h1Zm4-1h1v1H14Z"/><rect class="za140-4" x="15" y="20" width="1" height="1"/><rect class="za140-4" x="13" y="20" width="1" height="1"/><polygon class="za140-4" points="18 11 18 10 17 10 17 11 16 11 16 12 18 12 18 11"/><rect class="za140-4" x="11" y="10" width="1" height="1"/><path class="za140-4" d="M10,13v1h2V13H10Z"/><rect class="za140-4" x="10" y="11" width="1" height="1"/><path class="za140-2" d="M16,23v1h1v1H16v1h2V25h1V24H18V23H17V22H16Z"/><rect class="za140-2" x="8" y="15" width="1" height="1"/><rect class="za140-2" x="14" y="16" width="1" height="1"/><path class="za140-6" d="M18,14v1h1V14Z"/><path class="za140-6" d="M12,15h1V14H12Z"/><path class="za140-2" d="M17,14H16v1h2V14Z"/><path class="za140-2" d="M11,14H10v1h2V14Z"/><rect class="za140-7" x="18" y="13" width="1" height="1"/><rect class="za140-7" x="16" y="12" width="2" height="1"/><path class="za140-7" d="M13,14V13H12v1Z"/><path class="za140-7" d="M11,13h1V12H11Z"/><path class="za140-8" d="M15,18v1h1V18Z"/><path class="za140-8" d="M10,20h1v2h2v1h3V22h2V21h1V20h1V16H19v2H18v1H16v2H15V20H14v1H13V19h1V18H12v1H11V18H10V16H9v3h1Z"/><path class="za140-2" d="M14,19H13v1h3V19H14Z"/><path class="za140-2" d="M16,18v1h1V18Z"/><path class="za140-9" d="M10,14V13h1V12H10V11h1V10h1v1H11v1h2V11h1V10h1v2h1V11h1V10h1v3h1v2h2V14H20V13h1V12H20V11h1V9H19V8H18V7H17V6H16V7H15V8H14V7H13V6H12V8H11V7H10V8H8V9H9v1H8v1H9v1H8v2H9v1h1Z"/><rect class="za140-9" x="19" y="7" width="1" height="1"/><path class="za140-6" d="M9,26V24H8v2Z"/><rect class="za140-10" x="8" y="21" width="1" height="1"/><path class="za140-11" d="M10,24V23H8v1h2Z"/><rect class="za140-12" x="7" y="23" width="1" height="1"/><path class="za140-13" d="M7,21V20H6v2H7Z"/><path class="za140-14" d="M9,19H7v1H9Z"/><rect class="za140-15" x="9" y="19" width="1" height="1"/><path class="za140-15" d="M11,21V20H10v1Z"/><path class="za140-16" d="M11,22V21H10v2h1Z"/><path class="za140-17" d="M9,22H8v1h2V22Z"/><path class="za140-18" d="M8,22V21H7v2H8Z"/><path class="za140-19" d="M8,21H9V20H7v1Z"/><path class="za140-20" d="M10,22V20H9v2Z"/><path class="za140-12" d="M6,22v1H7V22Z"/><path class="za140-2" d="M8,25H7v1H8Z"/><path class="za140-4" d="M8,28H9V26H7v2Z"/></svg>