<svg xmlns="http://www.w3.org/2000/svg" viewBox="0 0 29 33"><defs><style>polygon,rect,path{shape-rendering:crispedges;}.ca286-1{fill:#7a982c;}.ca286-2{fill:#000000;}.ca286-3{fill:#6d3e35;}.ca286-4{fill:#0079bc;}.ca286-5{fill:#94d4ff;}.ca286-6{fill:#8e703c;}.ca286-7{fill:#990000;}.ca286-8{fill:#cbed03;}.ca286-9{fill:#00e070;}</style></defs><path class="ca286-1" d="M0,33H6V27H7V26H8V25h2V24h2V21H11V20H10V19H9V18H8V12H9V10h1V9h1V8h7V9h1v1h1v4h1v2H20v3H19v1H18v1H17v3h2v1h2v1h1v1h1v6h6V0H0Z"/><path class="ca286-2" d="M23,27H22v6h1V27Z"/><rect class="ca286-2" x="21" y="26" width="1" height="1"/><path class="ca286-3" d="M22,27H21v6h1V27Z"/><rect class="ca286-3" x="20" y="26" width="1" height="1"/><path class="ca286-2" d="M21,27H20v6h1V27Z"/><path class="ca286-2" d="M20,26h1V25H19v1Z"/><path class="ca286-4" d="M10,30h1V29h1V28h1V27H12V26H11V25H10v1H9v7h1V30Z"/><rect class="ca286-4" x="12" y="30" width="1" height="1"/><path class="ca286-4" d="M20,27V26H19V25H18v1H17v1H16v1h1v1h1v1h1v3h1V27Z"/><rect class="ca286-4" x="16" y="30" width="1" height="1"/><path class="ca286-4" d="M16,32H12v1h5V32Z"/><path class="ca286-2" d="M18,26V25h1V24H17v2Z"/><rect class="ca286-2" x="16" y="26" width="1" height="1"/><path class="ca286-2" d="M13,27v1h3V27H13Z"/><path class="ca286-2" d="M13,23h3v1h1V21H16v1H13V21H12v3h1Z"/><path class="ca286-3" d="M13,26v1h3V26h1V24H16V23H13v1H12v2Z"/><rect class="ca286-2" x="12" y="26" width="1" height="1"/><path class="ca286-2" d="M11,26h1V24H10v1h1Z"/><path class="ca286-2" d="M10,26V25H8v1h2Z"/><path class="ca286-3" d="M9,27V26H8v1Z"/><path class="ca286-2" d="M9,27H8v6H9V27Z"/><rect class="ca286-2" x="7" y="26" width="1" height="1"/><path class="ca286-3" d="M8,27H7v6H8V27Z"/><path class="ca286-2" d="M7,27H6v6H7V27Z"/><path class="ca286-5" d="M19,30H18V29H17V28H12v1H11v1H10v3h2V32h5v1h2V30Zm-6,1H12V30h1Zm4,0H16V30h1Z"/><path class="ca286-2" d="M20,16h1V15H20Z"/><path class="ca286-3" d="M13,22h3V21h1V20h1V19h1V17H16V16H15v1H14V16H13v1H10v2h1v1h1v1h1Zm-1-3V18h1v1h3v1H13V19Z"/><rect class="ca286-3" x="14" y="15" width="1" height="1"/><path class="ca286-3" d="M14,14h2V13h1V12h2V11H18V10H16v1H14v1H13v2Z"/><path class="ca286-2" d="M19,17v2h1V16H19Z"/><rect class="ca286-2" x="18" y="19" width="1" height="1"/><rect class="ca286-2" x="17" y="20" width="1" height="1"/><rect class="ca286-2" x="11" y="20" width="1" height="1"/><rect class="ca286-2" x="10" y="19" width="1" height="1"/><path class="ca286-2" d="M10,16H9v3h1V16Z"/><rect class="ca286-2" x="14" y="16" width="1" height="1"/><path class="ca286-6" d="M17,13h2V12H17Z"/><rect class="ca286-2" x="13" y="19" width="3" height="1"/><rect class="ca286-2" x="12" y="18" width="1" height="1"/><path class="ca286-7" d="M9,15H8v3H9V15Z"/><path class="ca286-7" d="M10,13h3V12h1V11h2V10h2v1h1v3h1V10H19V9H18V8H11V9H10v1H9v2H8v2h2Z"/><path class="ca286-8" d="M19,15v1h1V15h1V14H19Z"/><path class="ca286-8" d="M16,13v1h3V13H16Z"/><path class="ca286-9" d="M19,16V14H16v2h3Z"/><path class="ca286-8" d="M18,16H16v1h3V16Z"/><path class="ca286-8" d="M14,14H13v2h1V15h1v1h1V14Z"/><path class="ca286-8" d="M13,14V13H10v1h3Z"/><path class="ca286-9" d="M12,14H10v2h3V14Z"/><path class="ca286-8" d="M10,16v1h3V16H10Z"/><path class="ca286-8" d="M9,16h1V14H8v1H9Z"/></svg>