<svg xmlns="http://www.w3.org/2000/svg" viewBox="0 0 29 33"><defs><style>polygon,rect,path{shape-rendering:crispedges;}.ab185-1{fill:#29834f;}.ab185-2{fill:#000000;}.ab185-3{fill:#d8be00;}.ab185-4{fill:#e8b795;}.ab185-5{fill:#9b8100;}.ab185-6{fill:#ffffff;}.ab185-7{fill:#893a1f;}.ab185-8{fill:#ff6c77;}.ab185-9{fill:#e5ac2e;}.ab185-10{fill:#ff1f4a;}.ab185-11{fill:#fad000;}.ab185-12{fill:#00e070;}.ab185-13{fill:#ff1d99;}.ab185-14{fill:#10bcff;}.ab185-15{fill:#6e12ff;}.ab185-16{fill:#900;}.ab185-17{fill:#eaeaea;}.ab185-18{fill:#c10f7e;}</style></defs><path class="ab185-1" d="M0,33H6V27H7V26H8V25h2V24h1V23h1V21H11V20H9V19H8V12H9V8h1V9h1V7h1V8h2V7H13V6h1V5h1V6h1V7H15V8h2V7h1V9h1V8h1v4h1v7H20v1H18v1H17v2h1v1h1v1h1V23H19V21h2v4h1v1h1v7h6V0H0Z"/><path class="ab185-2" d="M7,30V27H6v6H7V30Z"/><path class="ab185-3" d="M8,28V27H7v1Z"/><path class="ab185-3" d="M7,31H8V30H7Z"/><rect class="ab185-2" x="7" y="26" width="1" height="1"/><path class="ab185-2" d="M9,30V27H8v6H9V30Z"/><path class="ab185-3" d="M9,30v1h5V30Z"/><rect class="ab185-3" x="15" y="30" width="5" height="1"/><path class="ab185-3" d="M19,27H9v1H20V27Z"/><path class="ab185-2" d="M10,25H8v1h2Z"/><rect class="ab185-3" x="12" y="24" width="1" height="1"/><path class="ab185-2" d="M11,26h2V25H12V24h1V23h3v1h1v1H16v1h2V25h1V24H18V23H17V21H16v1H13V21H12v2H11v1H10v1h1Z"/><rect class="ab185-2" x="13" y="24" width="1" height="1"/><rect class="ab185-2" x="14" y="32" width="1" height="1"/><rect class="ab185-2" x="14" y="30" width="1" height="1"/><path class="ab185-2" d="M15,29V28H14v1Z"/><path class="ab185-2" d="M15,26V25H14v2h1Z"/><rect class="ab185-2" x="15" y="24" width="1" height="1"/><path class="ab185-4" d="M15,24h1V23H13v1h1v1h1Z"/><rect class="ab185-3" x="16" y="24" width="1" height="1"/><path class="ab185-2" d="M21,30V28H20v5h1V30Z"/><rect class="ab185-2" x="19" y="25" width="1" height="1"/><path class="ab185-3" d="M21,31h1V30H21Z"/><rect class="ab185-3" x="21" y="27" width="1" height="1"/><path class="ab185-2" d="M23,26H22v7h1V26Z"/><path class="ab185-5" d="M15,31H9v2h5V32h1v1h5V31Z"/><path class="ab185-5" d="M15,29H14V28H9v2H20V28H15Z"/><path class="ab185-5" d="M18,26H16V25H15v2h5V26H19V25H18Z"/><path class="ab185-5" d="M9,27h5V25H13v1H11V25H10v1H8v1Z"/><path class="ab185-5" d="M7,29v1H8V28H7Z"/><path class="ab185-5" d="M7,31v2H8V31Z"/><path class="ab185-5" d="M21,31v2h1V31Z"/><path class="ab185-5" d="M21,29v1h1V28H21Z"/><path class="ab185-4" d="M18,14h1V13H17v1Z"/><path class="ab185-4" d="M13,22h3V21h1V20h1V19h1V16h1V15H16V13h1V12H13v1H11v1h2v1H9v1h1v3h1v1h1v1h1Zm1-6h1v1H14Zm-2,3V18h1v1h3v1H13V19Z"/><path class="ab185-2" d="M20,16H19v3h1V16Z"/><path class="ab185-2" d="M18,19v1h1V19Z"/><rect class="ab185-2" x="17" y="20" width="1" height="1"/><rect class="ab185-2" x="11" y="20" width="1" height="1"/><path class="ab185-2" d="M10,19v1h1V19Z"/><path class="ab185-2" d="M10,18V16H9v3h1Z"/><rect class="ab185-2" x="14" y="16" width="1" height="1"/><path class="ab185-6" d="M10,15h1V14H10Z"/><path class="ab185-6" d="M16,14v1h1V14Z"/><path class="ab185-2" d="M12,15h1V14H11v1Z"/><path class="ab185-2" d="M18,14H17v1h2V14Z"/><path class="ab185-7" d="M12,13h1V12H12Z"/><path class="ab185-7" d="M17,13H16v1h1Z"/><rect class="ab185-2" x="13" y="19" width="3" height="1"/><rect class="ab185-2" x="12" y="18" width="1" height="1"/><path class="ab185-8" d="M9,16V15h1V14h1V13h1V12H8v7H9V16Z"/><path class="ab185-8" d="M18,12H17v1h2v2h1v4h1V12H18Z"/><path class="ab185-8" d="M9,19v1h1V19Z"/><path class="ab185-8" d="M19,20h1V19H19Z"/><rect class="ab185-1" x="17" y="9" width="1" height="1"/><rect class="ab185-9" x="12" y="10" width="1" height="1"/><rect class="ab185-9" x="16" y="10" width="1" height="1"/><rect class="ab185-1" x="11" y="9" width="1" height="1"/><rect class="ab185-10" x="14" y="10" width="1" height="1"/><rect class="ab185-10" x="13" y="9" width="1" height="1"/><path class="ab185-6" d="M12,7H11V8h1Z"/><path class="ab185-6" d="M13,9V8H12V9Z"/><path class="ab185-6" d="M17,9V8H16V9Z"/><rect class="ab185-6" x="18" y="9" width="1" height="1"/><rect class="ab185-6" x="10" y="9" width="1" height="1"/><path class="ab185-6" d="M10,8H9V9h1Z"/><path class="ab185-6" d="M18,7H17V8h1Z"/><rect class="ab185-11" x="16" y="9" width="1" height="1"/><rect class="ab185-11" x="12" y="9" width="1" height="1"/><rect class="ab185-12" x="11" y="10" width="1" height="1"/><path class="ab185-11" d="M12,8H11V9h1Z"/><path class="ab185-11" d="M18,9V8H17V9Z"/><path class="ab185-13" d="M10,10H9v1h1Z"/><rect class="ab185-14" x="17" y="10" width="1" height="1"/><path class="ab185-11" d="M19,12V10H18v1H16V10H15v1H14V10H13v1H11V10H10v2h9Z"/><path class="ab185-15" d="M19,11h1V10H19Z"/><path class="ab185-6" d="M20,8H19V9h1Z"/><rect class="ab185-10" x="15" y="9" width="1" height="1"/><rect class="ab185-10" x="14" y="8" width="1" height="1"/><rect class="ab185-16" x="14" y="9" width="1" height="1"/><path class="ab185-11" d="M14,9V8H13V9Z"/><path class="ab185-11" d="M16,9V8H15V9Z"/><rect class="ab185-17" x="14" y="6" width="1" height="1"/><rect class="ab185-6" x="14" y="7" width="1" height="1"/><rect class="ab185-6" x="13" y="6" width="1" height="1"/><rect class="ab185-6" x="15" y="6" width="1" height="1"/><rect class="ab185-6" x="14" y="5" width="1" height="1"/><path class="ab185-9" d="M10,11H9v1h1Z"/><path class="ab185-9" d="M19,12h1V11H19Z"/><path class="ab185-9" d="M20,10V9H19v1Z"/><path class="ab185-9" d="M10,9H9v1h1Z"/><path class="ab185-18" d="M21,26V21H20v5Z"/><path class="ab185-6" d="M19,21v2h1V21Z"/><rect class="ab185-18" x="20" y="27" width="1" height="1"/><path class="ab185-4" d="M20,26v1h2V26H20Z"/><path class="ab185-2" d="M22,26V25H21v1Z"/></svg>