<svg xmlns="http://www.w3.org/2000/svg" viewBox="0 0 29 33"><defs><style>polygon,rect,path{shape-rendering:crispedges;}.ka276-1{fill:#397d98;}.ka276-2{fill:#000000;}.ka276-3{fill:#5a2de2;}.ka276-4{fill:#9fffc6;}.ka276-5{fill:#b2622b;}.ka276-6{fill:#473a35;}.ka276-7{fill:#473a35;}.ka276-8{fill:#72dd40;}</style></defs><rect class="ka276-1" x="11" y="19"/><polygon class="ka276-1" points="14 16 15 16 15 17 15 17 15 16 14 16 14 16"/><path class="ka276-1" d="M0,33H29V0H0ZM9,7h1V8H9ZM6,32V27H7V26H8V25h2V24h2V21H11V20H10V19H9V17H8V16H8V15H7V14H9V13H7V12H9V11H8V9H9v1h2V9H10V8h1V7h1V8h1V7h2V8h1V7h1V8h1V9h1V8h2V9H20v2h1V10h1v2H21v2h1v1H21v2H20v2H19v1H18v1H17v3h2v1h2v1h1v1h1v6H6Z"/><rect class="ka276-1" x="19" y="16" width="1"/><path class="ka276-1" d="M10,16h0v2h0V16Z"/><rect class="ka276-1" x="13" y="21"/><path class="ka276-2" d="M22,29v4h1V27H22v2Z"/><rect class="ka276-2" x="21" y="26" width="1" height="1"/><path class="ka276-3" d="M21,31h1V30H21Z"/><path class="ka276-3" d="M21,28h1V27H21Z"/><path class="ka276-2" d="M21,30V27H20v6h1V30Z"/><path class="ka276-2" d="M20,26h1V25H19v1Z"/><path class="ka276-3" d="M9,31H20V30H9Z"/><path class="ka276-3" d="M20,28V27H9v1Z"/><path class="ka276-3" d="M17,25V24H12v1Z"/><path class="ka276-2" d="M18,25h1V24H17v1Z"/><path class="ka276-2" d="M13,23V22H12v2h1Z"/><path class="ka276-2" d="M12,24H10v1h2Z"/><path class="ka276-2" d="M10,25H8v1h2Z"/><path class="ka276-2" d="M9,30V27H8v6H9V30Z"/><rect class="ka276-2" x="7" y="26" width="1" height="1"/><path class="ka276-3" d="M8,28V27H7v1Z"/><path class="ka276-3" d="M8,30H7v1H8Z"/><path class="ka276-2" d="M7,32V27H6v6H7Z"/><path class="ka276-4" d="M9,31v2H20V31Z"/><path class="ka276-4" d="M9,29v1H20V28H9Z"/><path class="ka276-4" d="M9,27H21V26H19V25H10v1H8v1Z"/><path class="ka276-4" d="M15,23H13v1h3V23Z"/><path class="ka276-4" d="M8,29V28H7v2H8Z"/><path class="ka276-4" d="M7,31v2H8V31Z"/><path class="ka276-4" d="M21,31v2h1V31Z"/><path class="ka276-4" d="M22,30V28H21v2Z"/><polygon class="ka276-5" points="13 21 13 21 13 21 14 21 14 20 13 20 13 21"/><rect class="ka276-5" x="15" y="20" width="1" height="1"/><polygon class="ka276-5" points="18 12 18 11 17 11 17 12 16 12 16 13 17 13 17 12 18 12"/><path class="ka276-5" d="M19,16h1V15H18v1H16V15H15V14H14v1H13v1H11V15H9v1h1v2h1v1h1V18h2v1h1V18h2v1h1V18h1V16Zm-4,1H14V16h1Z"/><rect class="ka276-5" x="13" y="10" width="1" height="1"/><rect class="ka276-5" x="10" y="13" width="1"/><rect class="ka276-5" x="11" y="13" height="1"/><path class="ka276-5" d="M14,12H13v1h2V12Z"/><path class="ka276-2" d="M19,16v1h1V16Z"/><path class="ka276-2" d="M16,23v1h1V22H16Z"/><rect class="ka276-2" x="11" y="9" height="1"/><path class="ka276-2" d="M10,16H9v1h1Z"/><rect class="ka276-2" x="8" y="15" height="1"/><polygon class="ka276-2" points="14 16 14 16 14 17 15 17 15 17 15 16 14 16"/><rect class="ka276-6" x="10" y="13" width="1" height="1"/><rect class="ka276-6" x="11" y="13"/><rect class="ka276-6" x="12" y="12" width="1" height="1"/><rect class="ka276-6" x="17" y="12" width="1" height="1"/><path class="ka276-7" d="M14,18H13v1h1Z"/><path class="ka276-7" d="M13,23h3V22h1V21h1V20h1V19h1V17H19v1H18v1H17V18H15v1h1v2H15V20H14v1H13V19H11V18H10V17H9v2h1v1h1v1h1v1h1Z"/><path class="ka276-2" d="M13,19v1h3V19H13Z"/><path class="ka276-2" d="M12,18v1h1V18Z"/><path class="ka276-8" d="M9,16H9V14H7v1H8v2H9Z"/><path class="ka276-8" d="M10,13h2V12h3v1h1V12h1V11h1v3h1V13h1v3h0v1h1V15h1V14H21V12h1V10H21v1H20V9h1V8H19V9H18V8H17V7H16V8H15V7H13V8H12V7H11V8H10V9h1v1H9V9H8v2H9v1H7v1H9v1h1Zm3-3h1v1H13Z"/><rect class="ka276-8" x="9" y="7" width="1" height="1"/><path class="ka276-2" d="M10,15h1v1h2V15h1V14h1v1h1v1h2V15h2V13H19v1H18V13H11v1H9v1Z"/></svg>