<svg xmlns="http://www.w3.org/2000/svg" viewBox="0 0 29 33"><defs><style>polygon,rect,path{shape-rendering:crispedges;}.ya15-1{fill:#6b4f99;}.ya15-2{fill:#000000;}.ya15-3{fill:#009b97;}.ya15-4{fill:#c18d59;}.ya15-5{fill:#ffffff;}.ya15-6{fill:#663228;}.ya15-7{fill:#663228;}.ya15-8{fill:#9b8100;}.ya15-9{fill:#455054;}.ya15-10{fill:#ffffff;}.ya15-11{fill:#900;}</style></defs><path class="ya15-1" d="M0,33H8V32H6V31H5V22H6V21H7V20H5v1H2V17H5V16H8V15H9V11h1V10H9V9h1V8h2V7h1V8h3V9h1V8h1V9h1v1h1v5h1v1H20v3H19v1H18v1H17v2h1v1h1v1h2v1h1v1h1v6h6V0H0Z"/><path class="ya15-1" d="M8,19v3H9v2H8v1h2V24h1V23h1V21H11V20H10V19H9V16H8v3Z"/><rect class="ya15-1" x="12" y="8" width="1" height="1"/><path class="ya15-2" d="M6,24V22H5v9H6V24Z"/><path class="ya15-2" d="M23,27H22v6h1V27Z"/><path class="ya15-3" d="M22,27H21v6h1V27Z"/><rect class="ya15-2" x="21" y="26" width="1" height="1"/><path class="ya15-2" d="M21,27H20v6h1V27Z"/><path class="ya15-3" d="M20,27h1V26H19V25H18v1H16V25H15v2H14V25H13v1H11V25H10v1H8v1H9v6h5V32h1v1h5V27Zm-5,4H14V30h1Zm0-2H14V28h1Z"/><path class="ya15-2" d="M20,26h1V25H19v1Z"/><rect class="ya15-3" x="16" y="24" width="1" height="1"/><rect class="ya15-2" x="15" y="24" width="1" height="1"/><rect class="ya15-2" x="14" y="32" width="1" height="1"/><rect class="ya15-2" x="14" y="30" width="1" height="1"/><rect class="ya15-2" x="14" y="28" width="1" height="1"/><path class="ya15-2" d="M14,26v1h1V25H14Z"/><rect class="ya15-2" x="13" y="24" width="1" height="1"/><path class="ya15-4" d="M16,24V23H13v1h1v1h1V24Z"/><rect class="ya15-3" x="12" y="24" width="1" height="1"/><path class="ya15-2" d="M9,27H8V26h2V25H8V24H7v7H6v1H8v1H9V27Z"/><path class="ya15-3" d="M7,30V24H6v7H7Z"/><rect class="ya15-2" x="20" y="15" width="1" height="1"/><path class="ya15-4" d="M10,14h2V13H10Z"/><rect class="ya15-4" x="18" y="12" width="1" height="1"/><path class="ya15-4" d="M10,16v3h1v1h1v1h1v1h3V21h1V20h1V19h1V16h1V15H16V14h2V13H16V12h2V11H17V10H16v1H11v1h1v1h1v2H9v1Zm4,0h1v1H14Zm-2,2h5v1H16v1H13V19H12Z"/><path class="ya15-2" d="M19,17v2h1V16H19Z"/><rect class="ya15-2" x="18" y="19" width="1" height="1"/><rect class="ya15-2" x="17" y="20" width="1" height="1"/><path class="ya15-2" d="M16,22H13V21H12v2H11v1H10v1h1v1h2V25H12V24h1V23h3v1h1v1H16v1h2V25h1V24H18V23H17V21H16Z"/><rect class="ya15-2" x="11" y="20" width="1" height="1"/><rect class="ya15-2" x="10" y="19" width="1" height="1"/><path class="ya15-2" d="M10,14H9v1h1Z"/><path class="ya15-2" d="M10,16H9v3h1V16Z"/><rect class="ya15-2" x="8" y="15" width="1" height="1"/><rect class="ya15-2" x="14" y="16" width="1" height="1"/><path class="ya15-5" d="M12,15h1V14H12Z"/><path class="ya15-5" d="M10,14v1h1V14Z"/><path class="ya15-5" d="M18,14v1h1V14Z"/><path class="ya15-5" d="M16,14v1h1V14Z"/><path class="ya15-2" d="M11,14v1h1V14Z"/><path class="ya15-2" d="M17,14v1h1V14Z"/><rect class="ya15-6" x="18" y="13" width="1" height="1"/><rect class="ya15-6" x="16" y="12" width="2" height="1"/><path class="ya15-6" d="M13,14V13H12v1Z"/><path class="ya15-6" d="M10,13h2V12H10Z"/><path class="ya15-7" d="M16,19h1V18H12v1h4Z"/><path class="ya15-2" d="M13,20h3V19H13Z"/><path class="ya15-8" d="M10,13V12h1V11h5V10h1v1h1v1h1v3h1V10H19V9H18V8H17V9H16V8H13V9H12V8H10V9H9v1h1v1H9v3h1Z"/><rect class="ya15-8" x="12" y="7" width="1" height="1"/><path class="ya15-4" d="M7,24H8V22H6v2Z"/><path class="ya15-9" d="M8,22V20H7v2Z"/><path class="ya15-10" d="M4,19V18H5V17H2v4H5V20H4Z"/><path class="ya15-10" d="M8,19V16H5v1H6v2H5v1H8Z"/><path class="ya15-2" d="M7,21H6v1H7Z"/><path class="ya15-2" d="M9,22H8v2H9Z"/><path class="ya15-11" d="M6,19V17H5v1H4v2H5V19Z"/></svg>