<svg xmlns="http://www.w3.org/2000/svg" viewBox="0 0 29 33"><defs><style>polygon,rect,path{shape-rendering:crispedges;}.ga123-1{fill:#db5a8e;}.ga123-2{fill:#000000;}.ga123-3{fill:#7eaa7e;}.ga123-4{fill:#a56e49;}.ga123-5{fill:#7eaa7e;}.ga123-6{fill:#ffffff;}.ga123-7{fill:#7f5018;}.ga123-8{fill:#00686d;}.ga123-9{fill:#00af68;}</style></defs><path class="ga123-1" d="M0,33H6V27H7V26H8V25h2V24h2V21H11V20H9V18H8V12H9V11h1V10h1V9h7v1h1v1h1v2h1v5H20v2H18v1H17v3h2v1h2v1h1v1h1v6h6V0H0Z"/><path class="ga123-2" d="M23,27H22v6h1V27Z"/><rect class="ga123-2" x="21" y="26" width="1" height="1"/><path class="ga123-3" d="M22,27H21v6h1V27Z"/><path class="ga123-2" d="M21,27H20v6h1V27Z"/><path class="ga123-2" d="M20,26h1V25H19v1Z"/><rect class="ga123-3" x="10" y="29" width="1" height="1"/><path class="ga123-3" d="M15,29H14v2h1V29Z"/><path class="ga123-3" d="M19,32V31H18v1H17V29h1V28h1v1h1V27h1V26H19V25H17v1H16v1H13V26H12V25H10v1H9v3h1V28h1v1h1v3H11V31H10v1H9v1H20V32Zm-3-2v1H15v1H13V28h2v1h1Z"/><rect class="ga123-3" x="18" y="29" width="1" height="1"/><path class="ga123-2" d="M18,25h1V24H17v1Z"/><rect class="ga123-2" x="16" y="25" width="1" height="1"/><path class="ga123-2" d="M13,26v1h3V26H13Z"/><path class="ga123-2" d="M13,23h3v1h1V21H16v1H13V21H12v3h1Z"/><path class="ga123-4" d="M13,25v1h3V25h1V24H16V23H13v1H12v1Z"/><rect class="ga123-2" x="12" y="25" width="1" height="1"/><path class="ga123-2" d="M12,24H10v1h2Z"/><path class="ga123-2" d="M9,31V26h1V25H8v1H7v1H8v6H9V31Z"/><path class="ga123-3" d="M8,27H7v6H8V27Z"/><path class="ga123-2" d="M7,27H6v6H7V27Z"/><path class="ga123-5" d="M19,30H18V29H17v3h1V31h1v1h1V29H19Z"/><rect class="ga123-5" x="18" y="28" width="1" height="1"/><path class="ga123-5" d="M15,30v1h1V29H15Z"/><path class="ga123-5" d="M14,30V29h1V28H13v4h2V31H14Z"/><path class="ga123-5" d="M9,32h1V31h1v1h1V29H11v1H10V29H9v3Z"/><rect class="ga123-5" x="10" y="28" width="1" height="1"/><rect class="ga123-4" x="9" y="15" width="1" height="1"/><rect class="ga123-4" x="11" y="13" width="1" height="1"/><rect class="ga123-4" x="16" y="12" width="1" height="1"/><path class="ga123-4" d="M13,22h3V21h1V20h1V19h1V18H18V15H17v2H16V15H15V11H14v1H13v2h1v2h1v1H14V16H13V15H11v3H10v1h1v1h1v1h1Zm-1-3V18h5v1H16v1H13V19Z"/><rect class="ga123-4" x="19" y="15" width="1" height="1"/><rect class="ga123-4" x="17" y="13" width="1" height="1"/><rect class="ga123-4" x="11" y="11" width="1" height="1"/><path class="ga123-2" d="M19,16v2h1V16Z"/><path class="ga123-2" d="M18,19v1h1V19Z"/><rect class="ga123-2" x="17" y="20" width="1" height="1"/><rect class="ga123-2" x="11" y="20" width="1" height="1"/><path class="ga123-2" d="M10,19v1h1V19Z"/><rect class="ga123-2" x="9" y="14" width="1" height="1"/><path class="ga123-2" d="M10,17V16H9v2h1Z"/><rect class="ga123-2" x="14" y="16" width="1" height="1"/><path class="ga123-6" d="M12,15h1V14H12Z"/><rect class="ga123-6" x="16" y="14" width="1" height="1"/><path class="ga123-2" d="M11,14v1h1V14Z"/><rect class="ga123-2" x="17" y="14" width="1" height="1"/><rect class="ga123-7" x="11" y="12" width="1" height="1"/><rect class="ga123-7" x="16" y="13" width="1" height="1"/><rect class="ga123-7" x="17" y="12" width="1" height="1"/><path class="ga123-8" d="M16,19h1V18H13v1Z"/><rect class="ga123-2" x="13" y="19" width="3" height="1"/><path class="ga123-2" d="M13,18H12v1h1Z"/><path class="ga123-9" d="M9,15V14h1v4h1V11h1v3h1V12h1V11h1v4h1V12h2v6h1V15h1v3h1V13H20V11H19V10H18V9H11v1H10v1H9v1H8v6H9V15Z"/><path class="ga123-9" d="M10,18H9v2h1V18Z"/><path class="ga123-9" d="M13,16h1V14H13v2Z"/><path class="ga123-9" d="M16,16v1h1V15H16Z"/><path class="ga123-9" d="M19,19v1h1V18H19Z"/></svg>