<svg xmlns="http://www.w3.org/2000/svg" viewBox="0 0 29 33"><defs><style>polygon,rect,path{shape-rendering:crispedges;}.na139-1{fill:#29834f;}.na139-2{fill:#000000;}.na139-3{fill:#a37e94;}.na139-4{fill:#99ce09;}.na139-5{fill:#c18d59;}.na139-6{fill:#ffffff;}.na139-7{fill:#990000;}.na139-8{fill:#990000;}.na139-9{fill:#db5800;}.na139-10{fill:#ff1d99;}.na139-11{fill:#e281bf;}.na139-12{fill:#8ab5a3;}</style></defs><path class="na139-1" d="M12,21H9v4h1V24h2V21Z"/><path class="na139-1" d="M0,33H6V25H7V24H8V22H7v1H6v1H3V23H2V22H1V19H2V18H3V17H6v1H7v1H9V18H8V12H9V11h1V10h1V9h7v1h1v1h1v2h1v5H20v2H19v1H17v3h2v1h2v1h1v1h1v6h6V0H0Z"/><path class="na139-2" d="M23,27H22v6h1V27Z"/><path class="na139-3" d="M22,27H21v6h1V27Z"/><rect class="na139-2" x="21" y="26" width="1" height="1"/><path class="na139-2" d="M21,27H20v6h1V27Z"/><path class="na139-3" d="M20,27h1V26H19V25H18v8h2V27Z"/><path class="na139-2" d="M20,26h1V25H19v1Z"/><path class="na139-2" d="M18,25h1V24H17v1H16v1h1v7h1V25Z"/><path class="na139-4" d="M17,26H16v1H13V26H12v7h5V26Z"/><path class="na139-2" d="M13,26v1h3V26H13Z"/><path class="na139-5" d="M16,23H13v1H12v1h1v1h3V25h1V24H16Z"/><path class="na139-2" d="M12,26h1V25H12V24H10v1h1v8h1V26Z"/><path class="na139-3" d="M11,25H10v1H9v7h2V25Z"/><rect class="na139-2" x="9" y="25" width="1" height="1"/><path class="na139-2" d="M9,26H8v7H9V26Z"/><path class="na139-3" d="M8,27H7v6H8V27Z"/><path class="na139-5" d="M8,27V26H9V25H7v2Z"/><path class="na139-2" d="M7,27V25H6v8H7V27Z"/><path class="na139-5" d="M18,13H16v1h2Z"/><path class="na139-5" d="M18,20V15H17v2H16V15H15V11H14v1H13v2h1v2h1v1H14V16H13V15H11v5h1v1h1v1h3V21h1V20Zm-2-1v1H13V19h3V18h1v1Z"/><rect class="na139-5" x="11" y="13" width="1" height="1"/><rect class="na139-5" x="11" y="11" width="1" height="1"/><rect class="na139-5" x="19" y="15" width="1" height="1"/><rect class="na139-5" x="9" y="15" width="1" height="1"/><rect class="na139-2" x="19" y="16" width="1" height="1"/><path class="na139-2" d="M16,22H13V21H12v3h1V23h3v1h1V21H16Z"/><rect class="na139-2" x="9" y="14" width="1" height="1"/><rect class="na139-2" x="9" y="16" width="1" height="1"/><rect class="na139-2" x="14" y="16" width="1" height="1"/><path class="na139-6" d="M13,15V14H12v1Z"/><path class="na139-2" d="M18,15V14H16v1h2Z"/><path class="na139-2" d="M12,14H11v1h1Z"/><rect class="na139-7" x="11" y="12" width="1" height="1"/><path class="na139-7" d="M18,12H16v1h2Z"/><path class="na139-8" d="M19,18H18v2H17v1h2V18Z"/><rect class="na139-8" x="19" y="17" width="1" height="1"/><path class="na139-8" d="M11,21h1V20H11V18H10v3Z"/><rect class="na139-8" x="9" y="17" width="1" height="1"/><rect class="na139-2" x="13" y="19" width="3" height="1"/><rect class="na139-2" x="16" y="18" width="1" height="1"/><path class="na139-9" d="M9,16V14h1v4h1V11h1v3h1V12h1V11h1v4h1V12h2v6h1V15h1v3h1V13H20V11H19V10H18V9H11v1H10v1H9v1H8v6H9V16Z"/><path class="na139-9" d="M10,20V18H9v2Z"/><path class="na139-9" d="M13,16h1V14H13v2Z"/><path class="na139-9" d="M17,17V15H16v2Z"/><path class="na139-9" d="M19,19v1h1V18H19Z"/><path class="na139-10" d="M10,20H9v1h1Z"/><path class="na139-10" d="M9,20V19H8v1Z"/><rect class="na139-11" x="7" y="20" width="1" height="1"/><path class="na139-10" d="M9,25V21H8v4Z"/><path class="na139-2" d="M8,24H7v1H8Z"/><rect class="na139-12" x="2" y="18" width="1" height="1"/><path class="na139-12" d="M7,21V20H8V19H7V18H6V17H3v1H5v1H3v1H2V19H1v3H2v1H3v1H6V23H7V22H8V21Z"/><rect class="na139-12" x="8" y="20" width="1" height="1"/><rect class="na139-6" x="2" y="19" width="1" height="1"/><path class="na139-6" d="M4,19H5V18H3v1Z"/></svg>