<svg xmlns="http://www.w3.org/2000/svg" viewBox="0 0 29 33"><defs><style>polygon,rect,path{shape-rendering:crispedges;}.ua203-1{fill:#29834f;}.ua203-2{fill:#000000;}.ua203-3{fill:#ff6c77;}.ua203-4{fill:#e8b795;}.ua203-5{fill:#ffffff;}.ua203-6{fill:#b23b00;}.ua203-7{fill:#d8be00;}.ua203-8{fill:#fad000;}</style></defs><path class="ua203-1" d="M6,32V27H7V26H8V25h2V24h1V23H10V22H9V21H8V20H7V11H8V10H9V9h1V8h1V7h7V8h1V9h1v1h1v1h1v9H21v1H20v1H19v1H18v1h1v1h2v1h1v1h1v6h6V0H0V33H6Z"/><path class="ua203-2" d="M23,27H22v6h1V27Z"/><path class="ua203-3" d="M22,27H21v6h1V27Z"/><rect class="ua203-2" x="21" y="26" width="1" height="1"/><path class="ua203-2" d="M21,27H20v6h1V27Z"/><path class="ua203-3" d="M20,27h1V26H18v1H17v3H16V29H13v1H12V27H11V26H8v1H9v6H20V27Z"/><path class="ua203-4" d="M13,23v1h3V23H13Z"/><path class="ua203-2" d="M11,26V24H10v1H8v1h3Z"/><path class="ua203-2" d="M9,27H8v6H9V27Z"/><path class="ua203-3" d="M8,27H7v6H8V27Z"/><rect class="ua203-2" x="7" y="26" width="1" height="1"/><path class="ua203-2" d="M7,27H6v6H7V27Z"/><path class="ua203-3" d="M16,26V25H13v1h3Z"/><path class="ua203-4" d="M16,22V21h1V20h1V19h1V15H16V14h3V13H16V12h1V11H14v1H13v3H10v4h1v1h1v1h1v1h3Zm-2-6h1v1H14Zm-2,3V18h1v1h3v1H13V19Z"/><rect class="ua203-2" x="14" y="16" width="1" height="1"/><path class="ua203-5" d="M12,15h1V14H12Z"/><path class="ua203-5" d="M10,14v1h1V14Z"/><path class="ua203-5" d="M18,14v1h1V14Z"/><path class="ua203-5" d="M16,14v1h1V14Z"/><path class="ua203-2" d="M11,14v1h1V14Z"/><path class="ua203-2" d="M17,14v1h1V14Z"/><path class="ua203-6" d="M17,12H16v1h2V12Z"/><path class="ua203-6" d="M12,14h1V13H12Z"/><path class="ua203-7" d="M18,13h1V12H18Z"/><path class="ua203-7" d="M11,14h1V13h1V12h1V11H12v1H10v2Z"/><path class="ua203-3" d="M13,22H12V21H11V20H10V19H9V12h1V11h2V10h5v1h2v1h1v7H19v1H18v1H17v1H16v1h2V22h1V21h1V20h1V11H20V10H19V9H18V8H11V9H10v1H9v1H8v9H9v1h1v1h1v1h2Z"/><rect class="ua203-2" x="10" y="8" width="1" height="1"/><rect class="ua203-2" x="9" y="9" width="1" height="1"/><rect class="ua203-2" x="8" y="10" width="1" height="1"/><path class="ua203-2" d="M8,11H7v9H8V11Z"/><rect class="ua203-2" x="8" y="20" width="1" height="1"/><rect class="ua203-2" x="9" y="21" width="1" height="1"/><rect class="ua203-2" x="10" y="22" width="1" height="1"/><rect class="ua203-2" x="18" y="22" width="1" height="1"/><rect class="ua203-2" x="19" y="21" width="1" height="1"/><rect class="ua203-2" x="20" y="20" width="1" height="1"/><path class="ua203-2" d="M21,20h1V11H21v9Z"/><rect class="ua203-2" x="20" y="10" width="1" height="1"/><rect class="ua203-2" x="19" y="9" width="1" height="1"/><rect class="ua203-2" x="18" y="8" width="1" height="1"/><path class="ua203-2" d="M18,8V7H11V8h7Z"/><path class="ua203-2" d="M12,11H10v1h2Z"/><path class="ua203-2" d="M10,15V12H9v7h1V15Z"/><rect class="ua203-2" x="10" y="19" width="1" height="1"/><rect class="ua203-2" x="11" y="20" width="1" height="1"/><rect class="ua203-2" x="12" y="21" width="1" height="1"/><path class="ua203-2" d="M15,22H13v1h3V22Z"/><rect class="ua203-2" x="16" y="21" width="1" height="1"/><rect class="ua203-2" x="17" y="20" width="1" height="1"/><rect class="ua203-2" x="18" y="19" width="1" height="1"/><path class="ua203-2" d="M19,14v5h1V12H19v2Z"/><path class="ua203-2" d="M18,12h1V11H17v1Z"/><path class="ua203-2" d="M17,11V10H12v1h5Z"/><path class="ua203-2" d="M18,26h3V25H19V24H18v2Z"/><rect class="ua203-2" x="17" y="26" width="1" height="1"/><path class="ua203-8" d="M17,25v1h1V25Z"/><path class="ua203-5" d="M17,25h1V24H17Z"/><path class="ua203-2" d="M16,28H13V27H12v3h1V29h3v1h1V27H16Z"/><rect class="ua203-5" x="16" y="26" width="1" height="1"/><path class="ua203-8" d="M15,28h1V27H15Z"/><path class="ua203-5" d="M14,27v1h1V27Z"/><path class="ua203-8" d="M13,27v1h1V27Z"/><path class="ua203-2" d="M14,27h2V26H13v1Z"/><rect class="ua203-5" x="12" y="26" width="1" height="1"/><path class="ua203-2" d="M12,25v1h1V25h3v1h1V24h1V23H16v1H13V23H11v1h1Z"/><rect class="ua203-2" x="11" y="26" width="1" height="1"/><path class="ua203-8" d="M12,25H11v1h1Z"/><path class="ua203-5" d="M12,25V24H11v1Z"/><rect class="ua203-2" x="13" y="19" width="3" height="1"/><rect class="ua203-2" x="12" y="18" width="1" height="1"/></svg>