<svg xmlns="http://www.w3.org/2000/svg" viewBox="0 0 29 33"><defs><style>polygon,rect,path{shape-rendering:crispedges;}.qa182-1{fill:#e55b35;}.qa182-2{fill:#000000;}.qa182-3{fill:#ffffff;}.qa182-4{fill:#e8b795;}.qa182-5{fill:#00e070;}.qa182-6{fill:#ffffff;}.qa182-7{fill:#8e4717;}.qa182-8{fill:#6e12ff;}.qa182-9{fill:#dfdfdf;}.qa182-10{fill:#a89969;}.qa182-11{fill:#00bc55;}.qa182-12{fill:#cc3232;}</style></defs><rect class="qa182-1" x="18" y="23" width="1" height="1"/><path class="qa182-1" d="M6,32V27H7V26H8V25h2V24h1V23H10V22h1V21H9V20H8V19H9V16H8V15H9V13H7V12H5V11H7v1H9V10h1V8h1V7h2V8h3V7h2V8h1V7h1V6h2V8H21V9H20v3h2V11h2v1H22v1H20v2h1v1H20v3h1v1H20v1H18v1h1v1h1V22h3v1h1v3H23v7h6V0H0V33H6Z"/><path class="qa182-2" d="M7,27H6v6H7V27Z"/><path class="qa182-3" d="M8,27H7v6H8V27Z"/><rect class="qa182-2" x="7" y="26" width="1" height="1"/><path class="qa182-2" d="M9,31V27H8v6H9V31Z"/><path class="qa182-3" d="M9,27v2h1V28h1v1h1V25h1V24H11v1H10v1H8v1Z"/><path class="qa182-3" d="M19,32V31H18v1H17V30H16v1H15v1H13V30H12v2H11V31H10v1H9v1H20V32Z"/><rect class="qa182-3" x="18" y="29" width="1" height="1"/><path class="qa182-3" d="M19,25H18V24H16v1h1v4h1V28h1v1h1V26H19Z"/><rect class="qa182-3" x="10" y="29" width="1" height="1"/><path class="qa182-2" d="M10,25H8v1h2Z"/><rect class="qa182-2" x="10" y="24" width="1" height="1"/><rect class="qa182-2" x="10" y="22" width="1" height="1"/><rect class="qa182-3" x="11" y="22" width="1" height="1"/><path class="qa182-2" d="M13,23h3v1h2V23H17V22h1V20H17v1H16v1H13V21H12V20H11v2h1v1H11v1h2Z"/><path class="qa182-2" d="M16,25V24H13v1h3Z"/><path class="qa182-4" d="M16,24V23H13v1h3Z"/><rect class="qa182-3" x="17" y="22" width="1" height="1"/><rect class="qa182-2" x="18" y="24" width="1" height="1"/><rect class="qa182-2" x="18" y="22" width="1" height="1"/><path class="qa182-2" d="M21,27V26H20v7h1V27Z"/><path class="qa182-3" d="M22,27H21v6h1V27Z"/><path class="qa182-2" d="M23,26H22v7h1V26Z"/><path class="qa182-3" d="M13,28h2v1h1V25H13v3Z"/><path class="qa182-3" d="M14,29v2h1V29Z"/><path class="qa182-5" d="M19,30H18V29H17v3h1V31h1v1h1V29H19Z"/><rect class="qa182-5" x="18" y="28" width="1" height="1"/><path class="qa182-5" d="M15,29v2h1V29Z"/><path class="qa182-5" d="M14,30V29h1V28H13v4h2V31H14Z"/><path class="qa182-5" d="M11,29v1H10V29H9v3h1V31h1v1h1V29Z"/><rect class="qa182-5" x="10" y="28" width="1" height="1"/><path class="qa182-2" d="M13,27V25H12v5h1V27Z"/><path class="qa182-2" d="M17,28V25H16v5h1V28Z"/><rect class="qa182-2" x="20" y="15" width="1" height="1"/><path class="qa182-2" d="M19,15h1V14H19Z"/><path class="qa182-4" d="M10,17v1h1v1h1V18h1v1h3v1H13V19H12v2h1v1h3V21h1V19h1V18h1V16h1V15H16V14h3V13H10v1h3v1H9v1h1Zm4-1h1v1H14Z"/><path class="qa182-2" d="M10,14H9v1h1Z"/><rect class="qa182-2" x="8" y="15" width="1" height="1"/><rect class="qa182-2" x="14" y="16" width="1" height="1"/><path class="qa182-6" d="M13,15V14H12v1Z"/><path class="qa182-6" d="M11,15V14H10v1Z"/><path class="qa182-6" d="M18,14v1h1V14Z"/><path class="qa182-6" d="M16,14v1h1V14Z"/><path class="qa182-2" d="M12,15V14H11v1Z"/><path class="qa182-2" d="M17,14v1h1V14Z"/><path class="qa182-7" d="M19,17v1H18v1H17v1h1v1h2V20h1V19H20V16H19Z"/><path class="qa182-7" d="M12,20V19H11V18H10V16H9v3H8v1H9v1h2V20Z"/><rect class="qa182-2" x="13" y="19" width="3" height="1"/><rect class="qa182-2" x="12" y="18" width="1" height="1"/><path class="qa182-8" d="M19,14h1V13H19Z"/><path class="qa182-8" d="M10,13H9v1h1Z"/><path class="qa182-2" d="M24,11H22v1h2Z"/><path class="qa182-9" d="M21,8h1V7H21Z"/><path class="qa182-2" d="M11,13H22V12H20V11H19v1H10V11H9v1H7v1h4Z"/><rect class="qa182-9" x="20" y="8" width="1" height="1"/><path class="qa182-10" d="M19,11h1V10H19Z"/><path class="qa182-6" d="M18,11h1V10h1V8h1V7h1V6H20V7H19V8H18v3Z"/><path class="qa182-10" d="M17,11H10v1h9V11H17Z"/><path class="qa182-2" d="M11,11h7V7H16V8H13V7H11V8H10v3Z"/><path class="qa182-10" d="M10,10H9v1h1Z"/><path class="qa182-2" d="M6,11H5v1H7V11Z"/><path class="qa182-11" d="M21,24h1V23h1V22H20v1h1Z"/><path class="qa182-11" d="M19,25h1V23H19v2Z"/><path class="qa182-2" d="M21,24V23H20v1Z"/><rect class="qa182-2" x="22" y="23" width="1" height="1"/><path class="qa182-11" d="M23,25h1V23H23v2Z"/><path class="qa182-4" d="M22,25H20v1h1v1h1V26h1V25Z"/><path class="qa182-12" d="M23,25V24H20v1h3Z"/><path class="qa182-2" d="M23,26h1V25H23Z"/><rect class="qa182-2" x="19" y="25" width="1" height="1"/></svg>