<svg xmlns="http://www.w3.org/2000/svg" viewBox="0 0 29 33"><defs><style>polygon,rect,path{shape-rendering:crispedges;}.ja142-1{fill:#397d98;}.ja142-2{fill:#000000;}.ja142-3{fill:#3e5e00;}.ja142-4{fill:#a56e49;}.ja142-5{fill:#473a35;}.ja142-6{fill:#ffffff;}.ja142-7{fill:#fad000;}.ja142-8{fill:#473a35;}.ja142-9{fill:#cbed03;}.ja142-10{fill:#841f00;}.ja142-11{fill:#b23b00;}</style></defs><path class="ja142-1" d="M6,32V27H7V26H8V25h2V23h1V22h1V21H11V20H10V19H9V16H8V15H9V10h1V9h1V8h7V9h1v1h1v5h1v1H20v3H19v1H18v1H17v1h1v1h1v2h2v1h1v1h1v6h6V0H0V33H6Z"/><path class="ja142-2" d="M23,27H22v6h1V27Z"/><rect class="ja142-2" x="21" y="26" width="1" height="1"/><path class="ja142-3" d="M22,27H21v6h1V27Z"/><path class="ja142-2" d="M21,27H20v6h1V27Z"/><path class="ja142-2" d="M20,26h1V25H19v1Z"/><path class="ja142-3" d="M20,27h1V26H19V25H18v1H17v1H16v2H15v1H14V29H13V27H12V26H11V25H10v1H8v1H9v6H20V27Z"/><path class="ja142-3" d="M14,24h1v1h1V23H13v2h1Z"/><path class="ja142-2" d="M10,25H8v1h2Z"/><path class="ja142-2" d="M9,27H8v6H9V27Z"/><rect class="ja142-2" x="7" y="26" width="1" height="1"/><path class="ja142-3" d="M8,27H7v6H8V27Z"/><path class="ja142-2" d="M7,27H6v6H7V27Z"/><rect class="ja142-2" x="20" y="15" width="1" height="1"/><path class="ja142-4" d="M13,20v2h3V20Z"/><path class="ja142-4" d="M12,19V18h5v2h1V19h1V16h1V15H19V13H17v1h1v1H16v1H15v1H14V16H13v1H12V16H11V15H9v1h1v3h1v1h1Z"/><path class="ja142-2" d="M19,17v2h1V16H19Z"/><rect class="ja142-2" x="18" y="19" width="1" height="1"/><rect class="ja142-2" x="17" y="20" width="1" height="1"/><rect class="ja142-2" x="11" y="20" width="1" height="1"/><rect class="ja142-2" x="10" y="19" width="1" height="1"/><path class="ja142-2" d="M10,14H9v1h1Z"/><path class="ja142-2" d="M10,16H9v3h1V16Z"/><rect class="ja142-2" x="8" y="15" width="1" height="1"/><path class="ja142-5" d="M18,15V14H17v1Z"/><rect class="ja142-5" x="16" y="13" width="1" height="1"/><rect class="ja142-2" x="14" y="14" width="1" height="1"/><path class="ja142-6" d="M16,13H14v1h1v1H14V14H13v2h3V15h1V14H16Z"/><path class="ja142-2" d="M14,17h1V16H14Z"/><rect class="ja142-2" x="14" y="29" width="1" height="1"/><rect class="ja142-2" x="12" y="26" width="1" height="1"/><path class="ja142-2" d="M15,28v1h1V27H15Z"/><rect class="ja142-2" x="16" y="26" width="1" height="1"/><path class="ja142-2" d="M13,27v2h1V27Z"/><rect class="ja142-2" x="17" y="25" width="1" height="1"/><rect class="ja142-2" x="11" y="25" width="1" height="1"/><rect class="ja142-2" x="14" y="24" width="1" height="1"/><rect class="ja142-2" x="13" y="25" width="1" height="1"/><rect class="ja142-2" x="15" y="25" width="1" height="1"/><path class="ja142-2" d="M12,24v1h1V23h3v2h1V23h1V22H17V21H16v1H13V21H12v1H11v1h1Z"/><rect class="ja142-7" x="16" y="25" width="1" height="1"/><path class="ja142-7" d="M15,26V25H14v1H13v1h1v2h1V27h1V26Z"/><rect class="ja142-7" x="12" y="25" width="1" height="1"/><path class="ja142-7" d="M11,25h1V23H11v2Z"/><path class="ja142-7" d="M17,24v1h1V23H17Z"/><path class="ja142-2" d="M19,25V23H18v2Z"/><path class="ja142-2" d="M11,24V23H10v2h1Z"/><path class="ja142-8" d="M13,20V19h3v2h1V18H12v3h1Z"/><path class="ja142-2" d="M16,19H13v1h3Z"/><path class="ja142-9" d="M19,14v1h1V13H19Z"/><path class="ja142-9" d="M10,15h1v1h1v1h1V14h1V13H9v1h1Z"/><path class="ja142-10" d="M19,12v1h1V11H19Z"/><path class="ja142-11" d="M10,12v1h1V11h1v2h1V11h1v2h1V11h1v2h1V11h1v2h1V11h1V10H19V9H18V8H11V9H10v1H9v1h1Z"/><path class="ja142-10" d="M17,11v2h1V11Z"/><path class="ja142-10" d="M16,12V11H15v2h1Z"/><path class="ja142-10" d="M13,11v2h1V11Z"/><path class="ja142-10" d="M11,11v2h1V11Z"/><path class="ja142-10" d="M10,12V11H9v2h1Z"/></svg>