<svg xmlns="http://www.w3.org/2000/svg" viewBox="0 0 29 33"><defs><style>polygon,rect,path{shape-rendering:crispedges;}.va85-1{fill:#29834f;}.va85-2{fill:#000000;}.va85-3{fill:#508e91;}.va85-4{fill:#efcaaf;}.va85-5{fill:#68aaad;}.va85-6{fill:#ffffff;}.va85-7{fill:#663228;}.va85-8{fill:#663228;}.va85-9{fill:#cbed03;}.va85-10{fill:#304400;}.va85-11{fill:#db5800;}.va85-12{fill:#ff1d99;}.va85-13{fill:#e281bf;}.va85-14{fill:#8ab5a3;}</style></defs><path class="va85-1" d="M24,18h0Z"/><rect class="va85-1" x="20" y="21" width="1"/><path class="va85-1" d="M18,21v1h1v3h1V21H18Z"/><rect class="va85-1" x="26" y="19" width="1"/><rect class="va85-1" x="26" y="19" height="1"/><rect class="va85-1" x="16" y="8" width="1" height="1"/><path class="va85-1" d="M0,0V33H29V0ZM28,22H27v1H26v1H23V23H22V22H21v2h1v1h1v8H6V27H7V26H8V25h2V22h1V21H10V20H9V16H8V15H9V10h1V9h1V8h1V9h1V8h3V7h1V8h2V9h1v1H19v1h1v4h1v1H20v3h2V18h1V17h3v1h1v1h1Z"/><path class="va85-2" d="M22,28v5h1V25H22v3Z"/><path class="va85-2" d="M7,30V27H6v6H7V30Z"/><rect class="va85-2" x="7" y="26" width="1" height="1"/><path class="va85-3" d="M8,29V27H7v2Z"/><path class="va85-3" d="M7,31v2H8V31Z"/><rect class="va85-2" x="19" y="25" width="1" height="1"/><path class="va85-2" d="M21,31V26H20v5H14V27H13v4H9V27H8v6H9V32H20v1h1V31Z"/><path class="va85-2" d="M10,26V25H8v1h2Z"/><path class="va85-3" d="M19,32v1h1V32Z"/><path class="va85-3" d="M16,32v1h1V32Z"/><path class="va85-3" d="M13,32v1h1V32Z"/><path class="va85-3" d="M10,32v1h1V32Z"/><path class="va85-2" d="M11,24V22H10v3h1Z"/><path class="va85-2" d="M13,24V22H12v2Z"/><path class="va85-3" d="M12,29V28H11V27H10V26H9v2h1v1h1v2h2V30H12Z"/><path class="va85-3" d="M9,30v1h1V30Z"/><path class="va85-3" d="M12,23V22H11v1Z"/><path class="va85-3" d="M12,25V24H11v2h1v2h1V25Z"/><rect class="va85-2" x="13" y="24" width="1" height="1"/><path class="va85-2" d="M15,26V25H14v2h1Z"/><path class="va85-4" d="M14,24v1h1V24h1V23H13v1Z"/><rect class="va85-2" x="15" y="24" width="1" height="1"/><path class="va85-2" d="M17,24V22H16v2Z"/><path class="va85-2" d="M18,24v1h1V22H18v2Z"/><path class="va85-3" d="M19,26V25H18V24H16v1h1v1h1v2h1v1h1V27H19Z"/><path class="va85-3" d="M15,30V28H14v3h2V30Z"/><path class="va85-3" d="M18,23V22H17v1Z"/><path class="va85-3" d="M18,30V28H17V27H16V25H15v3h1v1h1v2h2V30Z"/><path class="va85-3" d="M22,28V27H21v1Z"/><path class="va85-3" d="M21,31v1h1V30H21Z"/><rect class="va85-2" x="20" y="15" width="1" height="1"/><path class="va85-2" d="M19,15h1V14H19Z"/><path class="va85-4" d="M18,15H16V14h2V13H16V12h2V11H15v4H14v1h1v1H14V16H13v1H11V16H10v2h1v1h1V18h2v1h1V18h2v1h1V18h1V16h1V15H18Z"/><rect class="va85-4" x="18" y="12" width="1" height="1"/><rect class="va85-4" x="15" y="20" width="1" height="1"/><rect class="va85-4" x="13" y="20" width="1" height="1"/><rect class="va85-4" x="9" y="15" width="1" height="1"/><rect class="va85-2" x="8" y="15" width="1" height="1"/><rect class="va85-2" x="14" y="16" width="1" height="1"/><path class="va85-5" d="M19,28H18v2h1v1h1V29H19Z"/><path class="va85-5" d="M21,32v1h1V32Z"/><path class="va85-5" d="M17,27v1h1V26H17V25H16v2Z"/><path class="va85-5" d="M19,27h1V26H19Z"/><path class="va85-5" d="M21,29v1h1V28H21Z"/><path class="va85-5" d="M18,32H17v1h2V32Z"/><path class="va85-5" d="M16,29V28H15v2h1v1h1V29Z"/><path class="va85-5" d="M13,25v2h1V25Z"/><path class="va85-5" d="M15,27H14v1h1Z"/><path class="va85-5" d="M15,32H14v1h2V32Z"/><path class="va85-5" d="M12,29v1h1V28H12Z"/><rect class="va85-5" x="12" y="24" width="1" height="1"/><path class="va85-5" d="M10,27h1v1h1V26H11V25H10v2Z"/><path class="va85-5" d="M12,32H11v1h2V32Z"/><path class="va85-5" d="M10,29V28H9v2h1v1h1V29Z"/><path class="va85-5" d="M9,32v1h1V32Z"/><path class="va85-5" d="M9,27V26H8v1Z"/><path class="va85-5" d="M7,30v1H8V29H7Z"/><path class="va85-5" d="M12,23H11v1h1Z"/><path class="va85-5" d="M17,23v1h1V23Z"/><path class="va85-6" d="M18,15h1V14H18Z"/><path class="va85-6" d="M16,14v1h1V14Z"/><path class="va85-2" d="M17,14v1h1V14Z"/><rect class="va85-7" x="18" y="13" width="1" height="1"/><rect class="va85-7" x="16" y="12" width="2" height="1"/><path class="va85-8" d="M14,18H13v1h1Z"/><path class="va85-8" d="M13,22v1h3V22h2V21h1V20h1V16H19v2H18v1H17V18H15v1h1v2H15V20H14v1H13V19H11V18H10V16H9v4h1v1h1v1h2Z"/><path class="va85-2" d="M13,19v1h3V19H13Z"/><path class="va85-2" d="M12,18v1h1V18Z"/><path class="va85-9" d="M13,15V13H11v2h2Z"/><path class="va85-10" d="M13,13v2h1V13Z"/><path class="va85-10" d="M12,15H11v1h2V15Z"/><path class="va85-10" d="M11,14V13H10v2h1Z"/><rect class="va85-10" x="11" y="12" width="2" height="1"/><rect class="va85-2" x="10" y="15" width="1" height="1"/><rect class="va85-2" x="11" y="16" width="2" height="1"/><rect class="va85-2" x="13" y="15" width="1" height="1"/><path class="va85-2" d="M13,13h1v2h1V11H13V10H12v1H11v1h2Z"/><rect class="va85-2" x="10" y="12" width="1" height="1"/><path class="va85-11" d="M10,14V12h1V11h1V10h1v1h5v1h1v2h1V11H19V10h1V9H19V8H17V9H16V8H13V9H12V8H11V9H10v1H9v5h1Z"/><rect class="va85-11" x="16" y="7" width="1" height="1"/><path class="va85-12" d="M20,20H19v1h1Z"/><path class="va85-12" d="M21,20V19H20v1Z"/><rect class="va85-13" x="21" y="20" width="1" height="1"/><path class="va85-12" d="M20,21v4h1V21Z"/><path class="va85-4" d="M20,25v1h1v1h1V25H20Z"/><path class="va85-2" d="M22,25V24H21v1Z"/><polygon class="va85-14" points="26 18 26 19 27 19 27 18 26 18 26 18 26 18"/><path class="va85-14" d="M27,19h0v1H26V19H24V18h2V17H23v1H22v1H21v1h1v1H21v1h1v1h1v1h3V23h1V22h1V19Z"/><polygon class="va85-14" points="20 20 20 21 21 21 21 20 20 20 20 20"/><polygon class="va85-6" points="26 20 26 20 27 20 27 19 27 19 26 19 26 20"/><path class="va85-6" d="M26,19V18H24v1Z"/></svg>