<svg xmlns="http://www.w3.org/2000/svg" viewBox="0 0 29 33"><defs><style>polygon,rect,path{shape-rendering:crispedges;}.na255-1{fill:#d4a122;}.na255-2{fill:#000000;}.na255-3{fill:#ffffff;}.na255-4{fill:#db5800;}.na255-5{fill:#ce8452;}.na255-6{fill:#cbed03;}.na255-7{fill:#ffffff;}.na255-8{fill:#e2e2e2;}.na255-9{fill:#e2e2e2;}.na255-10{fill:#c8a715;}.na255-11{fill:#0068ff;}</style></defs><path class="na255-1" d="M12,22H11v2h1V22Z"/><path class="na255-1" d="M18,22H17v2h1V22Z"/><path class="na255-1" d="M0,33H6V27H7V26H8V25h2V20H9V16H8V15H9V14H8V11H9V10h1V9h2V8h5V9h1v1h1v1h1v4h1v1H20v4H19v5h2v1h1v1h1v6h6V0H0Z"/><path class="na255-2" d="M23,27H22v6h1V27Z"/><rect class="na255-2" x="21" y="26" width="1" height="1"/><path class="na255-3" d="M21,28h1V27H21Z"/><path class="na255-3" d="M21,31h1V30H21Z"/><path class="na255-2" d="M21,30V27H20v6h1V30Z"/><path class="na255-3" d="M18,31h2V30H18Z"/><path class="na255-3" d="M18,28h2V27H18Z"/><path class="na255-2" d="M20,26h1V25H19v1Z"/><path class="na255-2" d="M18,30V25h1V24H17v1H16v1h1v7h1V30Z"/><path class="na255-4" d="M17,26H16v1H13V26H12v7h5V26Z"/><path class="na255-2" d="M13,26v1h3V26H13Z"/><path class="na255-5" d="M16,23H13v3h3V23Z"/><path class="na255-2" d="M12,26h1V25H12V24H10v1h1v8h1V26Z"/><path class="na255-3" d="M9,28h2V27H9Z"/><path class="na255-3" d="M9,31h2V30H9Z"/><path class="na255-2" d="M10,25H8v1h2Z"/><path class="na255-2" d="M9,30V27H8v6H9V30Z"/><rect class="na255-2" x="7" y="26" width="1" height="1"/><path class="na255-3" d="M8,28V27H7v1Z"/><path class="na255-3" d="M7,31H8V30H7Z"/><path class="na255-2" d="M7,30V27H6v6H7V30Z"/><path class="na255-6" d="M9,31v2h2V31Z"/><path class="na255-6" d="M18,31v2h2V31Z"/><path class="na255-6" d="M18,29v1h2V28H18Z"/><path class="na255-6" d="M9,29v1h2V28H9Z"/><path class="na255-6" d="M18,26v1h3V26H19V25H18Z"/><path class="na255-6" d="M9,27h2V25H10v1H8v1Z"/><path class="na255-6" d="M7,29v1H8V28H7Z"/><path class="na255-6" d="M7,31v2H8V31Z"/><path class="na255-6" d="M21,31v2h1V31Z"/><path class="na255-6" d="M21,29v1h1V28H21Z"/><rect class="na255-2" x="20" y="15" width="1" height="1"/><path class="na255-5" d="M10,17v1h1v1h1V18h2v1h1V18h2v1h1V18h1V16h1V15H16V14h3V13H16V12h3V11H18V10H14v1H12v1H11v1h2v2H9v1h1Zm4-1h1v1H14Z"/><polygon class="na255-5" points="13 21 14 21 14 22 15 22 15 21 16 21 16 20 13 20 13 21"/><path class="na255-2" d="M19,17h1V16H19Z"/><path class="na255-2" d="M10,16H9v1h1Z"/><rect class="na255-2" x="8" y="15" width="1" height="1"/><rect class="na255-2" x="14" y="16" width="1" height="1"/><path class="na255-7" d="M12,15h1V14H12Z"/><path class="na255-7" d="M10,14v1h1V14Z"/><path class="na255-7" d="M18,14v1h1V14Z"/><path class="na255-7" d="M16,14v1h1V14Z"/><path class="na255-2" d="M11,14v1h1V14Z"/><path class="na255-2" d="M17,14v1h1V14Z"/><rect class="na255-8" x="16" y="12" width="3" height="1"/><path class="na255-8" d="M10,14h3V13H10Z"/><path class="na255-9" d="M12,22v1h5V22h2V20h1V17H19v1H18v1H16v2H15v1H14V21H13V19h1V18H12v1H11V18H10V17H9v3h1v2h2Z"/><path class="na255-9" d="M15,18v1h1V18Z"/><path class="na255-10" d="M18,23h1V22H18Z"/><path class="na255-9" d="M18,24h1V23H18Z"/><path class="na255-10" d="M16,23v1h1V23Z"/><path class="na255-9" d="M16,25h1V24H16Z"/><path class="na255-10" d="M13,23H12v1h1Z"/><path class="na255-9" d="M12,24v1h1V24Z"/><path class="na255-10" d="M11,22H10v1h1Z"/><path class="na255-9" d="M11,23H10v1h1Z"/><path class="na255-2" d="M14,19H13v1h3V19H14Z"/><path class="na255-2" d="M16,18v1h1V18Z"/><path class="na255-11" d="M19,13v2h1V11H19v2Z"/><rect class="na255-11" x="18" y="10" width="1" height="1"/><path class="na255-11" d="M10,14V13h1V12h1V11h2V10h4V9H17V8H12V9H10v1H9v1H8v3H9v1h1Z"/></svg>