<svg xmlns="http://www.w3.org/2000/svg" viewBox="0 0 29 33"><defs><style>polygon,rect,path{shape-rendering:crispedges;}.ib119-1{fill:#6b4f99;}.ib119-2{fill:#000000;}.ib119-3{fill:#ce8452;}.ib119-4{fill:#ffffff;}.ib119-5{fill:#7f5018;}.ib119-6{fill:#7f5018;}.ib119-7{fill:#d2d8b8;}.ib119-8{fill:#455054;}.ib119-9{fill:#ff1f4a;}.ib119-10{fill:#fad000;}.ib119-11{fill:#900;}</style></defs><path class="ib119-1" d="M8,32H6V31H5V22H6V21H7V20H5v1H2V17H5V16H8V12H9V11h1V10h1V9h7v1h1v1h1v2h1v5H20v2H18v1H17v3h2v1h2v1h1v1h1v6h6V0H0V33H8Z"/><path class="ib119-1" d="M12,21H11V20H9V18H8v4H9v2H8v1h2V24h2V21Z"/><path class="ib119-2" d="M6,22H5v9H6V22Z"/><path class="ib119-2" d="M23,27H22v6h1V27Z"/><path class="ib119-3" d="M22,27H21v6h1V27Z"/><rect class="ib119-2" x="21" y="26" width="1" height="1"/><path class="ib119-2" d="M21,27H20v6h1V27Z"/><path class="ib119-3" d="M20,27h1V26H19V25H17V24H16V23H13v1H12v1H10v1H8v1H9v6h5V29h1v4h5V27Zm-8,2H11V28h1Zm6,0H17V28h1Z"/><path class="ib119-2" d="M20,26h1V25H19v1Z"/><rect class="ib119-2" x="17" y="28" width="1" height="1"/><path class="ib119-2" d="M18,25h1V24H17v1Z"/><path class="ib119-2" d="M15,29H14v4h1V29Z"/><rect class="ib119-2" x="11" y="28" width="1" height="1"/><path class="ib119-2" d="M10,25h2V24H10Z"/><path class="ib119-2" d="M9,27H8V26h2V25H8V24H7v7H6v1H8v1H9V27Z"/><path class="ib119-3" d="M7,30V24H8V22H6v9H7Z"/><path class="ib119-3" d="M11,19h1V18h5v1h2V18H18V15H17v2H16V15H15V11H14v1H13v2h1v2h1v1H14V16H13V15H11v3H10v1Z"/><rect class="ib119-3" x="19" y="15" width="1" height="1"/><rect class="ib119-3" x="16" y="19" width="1" height="1"/><path class="ib119-3" d="M18,13H16v1h2Z"/><rect class="ib119-3" x="13" y="20" width="1" height="1"/><rect class="ib119-3" x="15" y="20" width="1" height="1"/><rect class="ib119-3" x="9" y="15" width="1" height="1"/><rect class="ib119-3" x="11" y="13" width="1" height="1"/><rect class="ib119-3" x="12" y="19" width="1" height="1"/><rect class="ib119-3" x="11" y="11" width="1" height="1"/><path class="ib119-2" d="M19,16v2h1V16Z"/><path class="ib119-2" d="M18,19v1h1V19Z"/><rect class="ib119-2" x="17" y="20" width="1" height="1"/><path class="ib119-2" d="M16,22H13V21H12v3h1V23h3v1h1V21H16Z"/><rect class="ib119-2" x="11" y="20" width="1" height="1"/><path class="ib119-2" d="M10,19v1h1V19Z"/><rect class="ib119-2" x="9" y="14" width="1" height="1"/><path class="ib119-2" d="M10,17V16H9v2h1Z"/><rect class="ib119-2" x="14" y="16" width="1" height="1"/><path class="ib119-4" d="M13,15V14H12v1Z"/><path class="ib119-2" d="M18,15V14H16v1h2Z"/><path class="ib119-2" d="M12,14H11v1h1Z"/><rect class="ib119-5" x="11" y="12" width="1" height="1"/><path class="ib119-5" d="M18,12H16v1h2Z"/><path class="ib119-6" d="M17,19v1h1V19Z"/><rect class="ib119-6" x="16" y="20" width="1" height="1"/><path class="ib119-6" d="M15,20H14v1H13v1h3V21H15Z"/><path class="ib119-6" d="M14,19h2V18H12v1h2Z"/><rect class="ib119-6" x="12" y="20" width="1" height="1"/><rect class="ib119-6" x="11" y="19" width="1" height="1"/><path class="ib119-2" d="M15,19H13v1h3V19Z"/><path class="ib119-2" d="M16,18v1h1V18Z"/><path class="ib119-7" d="M8,18H9V14h1v4h1V11h1v3h1V12h1V11h1v4h1V12h2v6h1V15h1v3h1V13H20V11H19V10H18V9H11v1H10v1H9v1H8v6Z"/><path class="ib119-7" d="M10,20V18H9v2Z"/><path class="ib119-7" d="M13,16h1V14H13v2Z"/><path class="ib119-7" d="M17,17V15H16v2Z"/><path class="ib119-7" d="M19,19v1h1V18H19Z"/><path class="ib119-8" d="M8,22V20H7v2Z"/><path class="ib119-2" d="M7,21H6v1H7Z"/><path class="ib119-2" d="M9,22H8v2H9Z"/><path class="ib119-9" d="M4,18H5V17H2v1H4Z"/><path class="ib119-9" d="M8,16H5v1H8Z"/><path class="ib119-9" d="M3,20H2v1H5V20H3Z"/><path class="ib119-9" d="M8,19H5v1H8Z"/><path class="ib119-10" d="M8,19V17H5v1H4v2H5V19Z"/><path class="ib119-11" d="M3,20H4V19H3Z"/><path class="ib119-11" d="M3,18H2v1H3Z"/><path class="ib119-4" d="M3,19H4V18H3Z"/><path class="ib119-10" d="M3,19H2v1H3Z"/></svg>