<svg xmlns="http://www.w3.org/2000/svg" viewBox="0 0 29 33"><defs><style>polygon,rect,path{shape-rendering:crispedges;}.ja205-1{fill:#e55b35;}.ja205-2{fill:#000000;}.ja205-3{fill:#004a77;}.ja205-4{fill:#ce8452;}.ja205-5{fill:#ffffff;}.ja205-6{fill:#00774c;}.ja205-7{fill:#72dd40;}.ja205-8{fill:#c9a717;}</style></defs><path class="ja205-1" d="M0,33H6V27H7V26H8V25h2V24h2V21H10V20H9V16H8V15H9V14H8V13H4V12H6V11H8V10h2V9h1V8h1V7h1V6h1V5h1V6h1V7h1V8h1V9h1v1h2v1h2v1h2v1H21v1H20v1h1v1H20v4H19v1H17v3h2v1h2v1h1v1h1v6h6V0H0Z"/><path class="ja205-2" d="M23,27H22v6h1V27Z"/><rect class="ja205-2" x="21" y="26" width="1" height="1"/><path class="ja205-3" d="M22,27H21v6h1V27Z"/><path class="ja205-2" d="M21,27H20v6h1V27Z"/><path class="ja205-2" d="M20,26h1V25H19v1Z"/><path class="ja205-3" d="M20,27h1V26H19V25H17V24H16V23H13v1H12v1H10v1H8v1H9v6H20V27Z"/><path class="ja205-2" d="M18,25h1V24H17v1Z"/><path class="ja205-2" d="M13,23h3v1h1V21H16v1H13V21H12v3h1Z"/><path class="ja205-2" d="M12,24H10v1h2Z"/><path class="ja205-2" d="M10,25H8v1h2Z"/><path class="ja205-2" d="M9,27H8v6H9V27Z"/><rect class="ja205-2" x="7" y="26" width="1" height="1"/><path class="ja205-3" d="M8,27H7v6H8V27Z"/><path class="ja205-2" d="M7,27H6v6H7V27Z"/><rect class="ja205-2" x="20" y="15" width="1" height="1"/><path class="ja205-4" d="M13,22h3V21h1V20h1V18h1V16h1V15H16V14H13v1H9v1h1v2h1v2h1v1h1Zm1-6h1v1H14Zm-1,3h3v1H13Z"/><path class="ja205-2" d="M19,17h1V16H19Z"/><path class="ja205-2" d="M10,16H9v1h1Z"/><rect class="ja205-2" x="8" y="15" width="1" height="1"/><rect class="ja205-2" x="14" y="16" width="1" height="1"/><path class="ja205-5" d="M10,14v1h1V14Z"/><path class="ja205-5" d="M16,14v1h1V14Z"/><path class="ja205-2" d="M11,15h2V14H11Z"/><path class="ja205-2" d="M17,14v1h3V14H17Z"/><path class="ja205-6" d="M19,18H18v2H17v1h2V20h1V17H19Z"/><path class="ja205-6" d="M11,20V18H10V17H9v3h1v1h2V20Z"/><rect class="ja205-2" x="13" y="19" width="3" height="1"/><path class="ja205-7" d="M10,14H9v1h1Z"/><path class="ja205-8" d="M11,14H21V13h4V12H23V11H21V10H19V9H18V8H17V7H16V6H15V5H14V6H13V7H12V8H11V9H10v1H8v1H6v1H4v1H8v1h3Z"/></svg>