<svg xmlns="http://www.w3.org/2000/svg" viewBox="0 0 29 33"><defs><style>polygon,rect,path{shape-rendering:crispedges;}.oa106-1{fill:#d4a122;}.oa106-2{fill:#000000;}.oa106-3{fill:#68aa7b;}.oa106-4{fill:#317f03;}.oa106-5{fill:#efcaaf;}.oa106-6{fill:#4922aa;}.oa106-7{fill:#ffffff;}.oa106-8{fill:#663434;}.oa106-9{fill:#fad000;}.oa106-10{fill:#b23b00;}</style></defs><path class="oa106-1" d="M0,33H6V27H7V26H8V25h2V23h1V22h1V21H11V20H10V19H9V18H8V12H9V10h1V9h1V8h7V9h1v1h1v5h1v1H20v3H19v1H18v1H17v1h1v1h1v2h2v1h1v1h1v6h6V0H0Z"/><path class="oa106-2" d="M23,27H22v6h1V27Z"/><rect class="oa106-2" x="21" y="26" width="1" height="1"/><path class="oa106-3" d="M21,28h1V27H21Z"/><path class="oa106-3" d="M21,31v1h1V30H21Z"/><path class="oa106-2" d="M21,31V27H20v6h1V31Z"/><path class="oa106-3" d="M18,26v2h1v1h1V27H19V25H18Z"/><path class="oa106-3" d="M19,31V30H18v2h1v1h1V31Z"/><path class="oa106-2" d="M20,26h1V25H19v1Z"/><path class="oa106-2" d="M18,31V25H17v1H16v1h1v6h1V31Z"/><path class="oa106-4" d="M17,27H16v1H13V27H12v6h5V27Z"/><path class="oa106-5" d="M16,25V23H13v2h3Z"/><path class="oa106-2" d="M12,27h1V26H12V25H11v8h1V27Z"/><path class="oa106-3" d="M10,31V30H9v2h1v1h1V31Z"/><path class="oa106-3" d="M10,26H9v2h1v1h1V27H10Z"/><path class="oa106-2" d="M10,26V25H8v1h2Z"/><path class="oa106-2" d="M9,31V27H8v6H9V31Z"/><rect class="oa106-2" x="7" y="26" width="1" height="1"/><path class="oa106-3" d="M8,29V27H7v2Z"/><path class="oa106-3" d="M7,31v2H8V31Z"/><path class="oa106-2" d="M7,30V27H6v6H7V30Z"/><path class="oa106-6" d="M21,29v1h1V28H21Z"/><path class="oa106-6" d="M21,32v1h1V32Z"/><path class="oa106-6" d="M19,26v1h2V26H19Z"/><path class="oa106-6" d="M19,28H18v2h1v1h1V29H19Z"/><path class="oa106-6" d="M18,32v1h1V32Z"/><path class="oa106-6" d="M10,27h1V25H10v2Z"/><path class="oa106-6" d="M10,28H9v2h1v1h1V29H10Z"/><path class="oa106-6" d="M9,32v1h1V32Z"/><path class="oa106-6" d="M9,27V26H8v1Z"/><path class="oa106-6" d="M7,30v1H8V29H7Z"/><rect class="oa106-2" x="20" y="15" width="1" height="1"/><path class="oa106-5" d="M13,22h3V21h1V20h1V19h1V16h1V15H16V13h1V12h2V11H18V10H16v1H14v1H13v1H11v1h2v1H9v1h1v3h1v1h1v1h1Zm1-6h1v1H14Zm-2,3V18h1v1h3v1H13V19Z"/><polygon class="oa106-5" points="18 14 19 14 19 13 17 13 17 14 18 14"/><path class="oa106-2" d="M19,17v2h1V16H19Z"/><rect class="oa106-2" x="18" y="19" width="1" height="1"/><rect class="oa106-2" x="17" y="20" width="1" height="1"/><rect class="oa106-2" x="11" y="20" width="1" height="1"/><rect class="oa106-2" x="10" y="19" width="1" height="1"/><path class="oa106-2" d="M10,16H9v3h1V16Z"/><rect class="oa106-2" x="14" y="16" width="1" height="1"/><path class="oa106-7" d="M10,15h1V14H10Z"/><path class="oa106-7" d="M16,14v1h1V14Z"/><path class="oa106-2" d="M12,15h1V14H11v1Z"/><path class="oa106-2" d="M18,14H17v1h2V14Z"/><path class="oa106-8" d="M17,13H16v1h1Z"/><rect class="oa106-8" x="17" y="12" width="2" height="1"/><path class="oa106-2" d="M18,25h1V23H18v2Z"/><path class="oa106-9" d="M17,24v1h1V24Z"/><path class="oa106-7" d="M17,24h1V23H17Z"/><rect class="oa106-7" x="16" y="25" width="1" height="1"/><rect class="oa106-9" x="15" y="26" width="1" height="1"/><path class="oa106-2" d="M14,27H13v1h3V27H14Z"/><path class="oa106-7" d="M15,27V26H14v1Z"/><rect class="oa106-9" x="13" y="26" width="1" height="1"/><path class="oa106-2" d="M15,25H13v1h3V25Z"/><rect class="oa106-7" x="12" y="25" width="1" height="1"/><path class="oa106-2" d="M12,24v1h1V23h3v2h1V23h1V22H17V21H16v1H13V21H12v1H11v1h1Z"/><rect class="oa106-9" x="11" y="24" width="1" height="1"/><rect class="oa106-7" x="11" y="23" width="1" height="1"/><path class="oa106-2" d="M11,24V23H10v2h1Z"/><rect class="oa106-2" x="13" y="19" width="3" height="1"/><rect class="oa106-2" x="12" y="18" width="1" height="1"/><path class="oa106-10" d="M9,15h1V14h1V13h2V12h1V11h2V10h2v1h1v4h1V10H19V9H18V8H11V9H10v1H9v2H8v6H9V15Z"/></svg>