<svg xmlns="http://www.w3.org/2000/svg" viewBox="0 0 29 33"><defs><style>polygon,rect,path{shape-rendering:crispedges;}.ma259-1{fill:#db5a8e;}.ma259-2{fill:#000000;}.ma259-3{fill:#99ce09;}.ma259-4{fill:#004a77;}.ma259-5{fill:#c18d59;}.ma259-6{fill:#3e5e00;}.ma259-7{fill:#ffffff;}.ma259-8{fill:#99582c;}.ma259-9{fill:#99582c;}.ma259-10{fill:#ff5e17;}.ma259-11{fill:#ff1f4a;}.ma259-12{fill:#560000;}</style></defs><path class="ma259-1" d="M6,32V27H7V26H8V25h2V24h2V21H9V20H8V19H9V18H8V13H9V11h1V10h1V9h7v1h1v1h1v1h1v6H20v1h1v1H20v1H17v3h2v1h2v1h1v1h1v6h6V0H0V33H6Z"/><path class="ma259-2" d="M23,27H22v6h1V27Z"/><rect class="ma259-2" x="21" y="26" width="1" height="1"/><path class="ma259-3" d="M21,31v2h1V31Z"/><path class="ma259-3" d="M21,28v2h1V27H21Z"/><path class="ma259-2" d="M21,30V27H20v6h1V30Z"/><path class="ma259-3" d="M20,32V26H19V25H18v3h1v1H18v4h1V32Z"/><path class="ma259-2" d="M20,26h1V25H19v1Z"/><path class="ma259-2" d="M18,29V25h1V24H17v1H16v1h1v7h1V29Z"/><path class="ma259-4" d="M17,26H16v1H13V26H12v7h5V26Z"/><path class="ma259-2" d="M13,26v1h3V26H13Z"/><path class="ma259-2" d="M13,23h3v1h1V21H16v1H13V21H12v3h1Z"/><path class="ma259-5" d="M13,25v1h3V25h1V24H16V23H13v1H12v1Z"/><path class="ma259-2" d="M12,26h1V25H12V24H10v1h1v8h1V26Z"/><path class="ma259-3" d="M11,29H10V28h1V25H10v1H9v6h1v1h1V29Z"/><path class="ma259-2" d="M10,26V25H8v1h2Z"/><path class="ma259-2" d="M9,31V27H8v6H9V31Z"/><rect class="ma259-2" x="7" y="26" width="1" height="1"/><path class="ma259-3" d="M7,31v2H8V31Z"/><path class="ma259-3" d="M7,30H8V27H7v3Z"/><path class="ma259-2" d="M7,30V27H6v6H7V30Z"/><path class="ma259-6" d="M10,29h1V28H10Z"/><path class="ma259-6" d="M19,29V28H18v1Z"/><path class="ma259-6" d="M9,27V26H8v1Z"/><path class="ma259-6" d="M19,32v1h1V32Z"/><path class="ma259-6" d="M9,32v1h1V32Z"/><path class="ma259-6" d="M7,31H8V30H7Z"/><path class="ma259-6" d="M21,31h1V30H21Z"/><path class="ma259-6" d="M20,27h1V26H20Z"/><rect class="ma259-2" x="19" y="14" width="1" height="1"/><path class="ma259-5" d="M13,22h3V21h1V19h1V16H15v1H14V16H13v1H11v2h1v2h1Zm0-3h3v1H13Z"/><rect class="ma259-5" x="19" y="15" width="1" height="1"/><rect class="ma259-5" x="9" y="15" width="1" height="1"/><rect class="ma259-5" x="17" y="13" width="1" height="1"/><rect class="ma259-5" x="17" y="11" width="1" height="1"/><rect class="ma259-5" x="14" y="15" width="1" height="1"/><polygon class="ma259-5" points="16 13 16 12 15 12 15 14 16 14 16 13"/><path class="ma259-2" d="M17,20v1h1V20Z"/><path class="ma259-2" d="M11,20v1h1V20Z"/><rect class="ma259-2" x="14" y="16" width="1" height="1"/><path class="ma259-7" d="M16,14v2h1V14Z"/><path class="ma259-2" d="M17,14v2h1V14Z"/><rect class="ma259-8" x="17" y="12" width="1" height="1"/><rect class="ma259-9" x="20" y="19" width="1" height="1"/><path class="ma259-9" d="M19,16v2h1V16Z"/><path class="ma259-9" d="M19,19V18H18v1H17v1h1v1h2V20H19Z"/><rect class="ma259-9" x="8" y="19" width="1" height="1"/><path class="ma259-9" d="M12,20V19H11V18H10v2H9v1h2V20Z"/><path class="ma259-9" d="M10,17V16H9v2h1Z"/><rect class="ma259-2" x="13" y="19" width="3" height="1"/><path class="ma259-10" d="M9,15V13H8v5H9V15Z"/><path class="ma259-10" d="M15,12h1v2h1V11h1v7h1V14h1v4h1V12H20V11H19V10H18V9H15v3Z"/><path class="ma259-10" d="M10,16v2h1V16Z"/><polygon class="ma259-10" points="19 19 19 20 20 20 20 19 20 18 19 18 19 19"/><path class="ma259-10" d="M15,14v2h1V14Z"/><path class="ma259-10" d="M10,19V18H9v2h1Z"/><path class="ma259-11" d="M11,15h2V13H11v2Z"/><path class="ma259-12" d="M14,15V13H13v2Z"/><path class="ma259-12" d="M12,15H11v1h2V15Z"/><path class="ma259-12" d="M11,14V13H10v2h1Z"/><path class="ma259-12" d="M13,12H11v1h2Z"/><rect class="ma259-2" x="10" y="15" width="1" height="1"/><path class="ma259-2" d="M11,17h2V16H11Z"/><rect class="ma259-2" x="13" y="15" width="1" height="1"/><path class="ma259-2" d="M10,15V13h1V12h2v1h1v2h1V9H11v1H10v1H9v4Z"/></svg>