<svg xmlns="http://www.w3.org/2000/svg" viewBox="0 0 29 33"><defs><style>polygon,rect,path{shape-rendering:crispedges;}.ma240-1{fill:#db5a8e;}.ma240-2{fill:#000000;}.ma240-3{fill:#34e0cb;}.ma240-4{fill:#9e6969;}.ma240-5{fill:#c18d59;}.ma240-6{fill:#9b8100;}.ma240-7{fill:#ffffff;}.ma240-8{fill:#893a1f;}.ma240-9{fill:#893a1f;}.ma240-10{fill:#e70059;}.ma240-11{fill:#10bcff;}.ma240-12{fill:#e5ac2e;}.ma240-13{fill:#ff1f4a;}.ma240-14{fill:#fad000;}.ma240-15{fill:#00e070;}.ma240-16{fill:#ff1d99;}.ma240-17{fill:#10bcff;}.ma240-18{fill:#6e12ff;}.ma240-19{fill:#900;}.ma240-20{fill:#eaeaea;}</style></defs><path class="ma240-1" d="M0,33H6V27H7V26H8V25h2V24h2V21H11V20H10V19H9V16H8V14H9V9h1v1h1V8h1V9h2V8H13V7h1V6h1V7h1V8H15V9h2V8h1v2h1V9h1v5h1v2H20v3H19v1H18v1H17v3h2v1h2v1h1v1h1v6h6V0H0Z"/><path class="ma240-2" d="M23,27H22v6h1V27Z"/><rect class="ma240-2" x="21" y="26" width="1" height="1"/><path class="ma240-3" d="M21,28h1V27H21Z"/><path class="ma240-3" d="M21,31h1V30H21Z"/><path class="ma240-2" d="M21,30V27H20v6h1V30Z"/><path class="ma240-3" d="M18,31h2V30H18Z"/><path class="ma240-3" d="M18,28h2V27H18Z"/><path class="ma240-2" d="M20,26h1V25H19v1Z"/><path class="ma240-2" d="M18,30V25h1V24H17v1H16v1h1v7h1V30Z"/><path class="ma240-4" d="M17,26H16v1H13V26H12v7h5V26Z"/><path class="ma240-2" d="M13,26v1h3V26H13Z"/><path class="ma240-2" d="M13,23h3v1h1V21H16v1H13V21H12v3h1Z"/><path class="ma240-5" d="M13,25v1h3V25h1V24H16V23H13v1H12v1Z"/><path class="ma240-2" d="M12,26h1V25H12V24H10v1h1v8h1V26Z"/><path class="ma240-3" d="M9,31h2V30H9Z"/><path class="ma240-3" d="M9,28h2V27H9Z"/><path class="ma240-2" d="M10,25H8v1h2Z"/><path class="ma240-2" d="M9,30V27H8v6H9V30Z"/><rect class="ma240-2" x="7" y="26" width="1" height="1"/><path class="ma240-3" d="M7,31H8V30H7Z"/><path class="ma240-3" d="M8,28V27H7v1Z"/><path class="ma240-2" d="M7,30V27H6v6H7V30Z"/><path class="ma240-6" d="M9,31v2h2V31Z"/><path class="ma240-6" d="M18,31v2h2V31Z"/><path class="ma240-6" d="M18,29v1h2V28H18Z"/><path class="ma240-6" d="M9,29v1h2V28H9Z"/><path class="ma240-6" d="M18,26v1h3V26H19V25H18Z"/><path class="ma240-6" d="M9,27h2V25H10v1H8v1Z"/><path class="ma240-6" d="M7,29v1H8V28H7Z"/><path class="ma240-6" d="M7,31v2H8V31Z"/><path class="ma240-6" d="M21,31v2h1V31Z"/><path class="ma240-6" d="M21,29v1h1V28H21Z"/><path class="ma240-2" d="M20,16h1V15H20Z"/><rect class="ma240-2" x="19" y="14" width="1" height="1"/><path class="ma240-5" d="M14,21V20H13V19H12V18h5v1H16v1H15v1h2V20h1V19h1V16h1V15H16V14h2V13H13v2H9v1h1v3h1v1h1v1h2Zm0-5h1v1H14Z"/><path class="ma240-5" d="M11,13H10v1h2V13Z"/><path class="ma240-2" d="M19,17v2h1V16H19Z"/><rect class="ma240-2" x="18" y="19" width="1" height="1"/><rect class="ma240-2" x="17" y="20" width="1" height="1"/><rect class="ma240-2" x="11" y="20" width="1" height="1"/><rect class="ma240-2" x="10" y="19" width="1" height="1"/><path class="ma240-2" d="M10,15h2V14H9v1Z"/><path class="ma240-2" d="M10,16H9v3h1V16Z"/><path class="ma240-2" d="M8,15v1H9V15Z"/><rect class="ma240-2" x="14" y="16" width="1" height="1"/><path class="ma240-7" d="M18,14v1h1V14Z"/><path class="ma240-7" d="M12,15h1V14H12Z"/><path class="ma240-2" d="M17,14H16v1h2V14Z"/><rect class="ma240-8" x="18" y="13" width="1" height="1"/><path class="ma240-8" d="M12,14h1V13H12Z"/><path class="ma240-9" d="M15,20H14v1H13v1h3V21H15Z"/><path class="ma240-2" d="M12,18v1h1V18Z"/><path class="ma240-2" d="M17,19V18H16v1Z"/><rect class="ma240-2" x="15" y="19" width="1" height="1"/><path class="ma240-2" d="M15,19V18H14v1Z"/><rect class="ma240-2" x="13" y="19" width="1" height="1"/><path class="ma240-7" d="M14,18H13v1h1Z"/><path class="ma240-7" d="M16,19V18H15v1Z"/><rect class="ma240-10" x="14" y="19" width="1" height="1"/><path class="ma240-11" d="M19,14h1V13H19Z"/><path class="ma240-11" d="M10,13H9v1h1Z"/><path class="ma240-11" d="M21,15V14H20v1Z"/><path class="ma240-11" d="M9,14H8v1H9Z"/><rect class="ma240-1" x="17" y="10" width="1" height="1"/><rect class="ma240-12" x="12" y="11" width="1" height="1"/><rect class="ma240-12" x="16" y="11" width="1" height="1"/><rect class="ma240-1" x="11" y="10" width="1" height="1"/><rect class="ma240-13" x="14" y="11" width="1" height="1"/><rect class="ma240-13" x="13" y="10" width="1" height="1"/><path class="ma240-7" d="M12,8H11V9h1Z"/><path class="ma240-7" d="M13,10V9H12v1Z"/><path class="ma240-7" d="M17,10V9H16v1Z"/><rect class="ma240-7" x="18" y="10" width="1" height="1"/><rect class="ma240-7" x="10" y="10" width="1" height="1"/><path class="ma240-7" d="M10,9H9v1h1Z"/><path class="ma240-7" d="M18,8H17V9h1Z"/><rect class="ma240-14" x="16" y="10" width="1" height="1"/><rect class="ma240-14" x="12" y="10" width="1" height="1"/><rect class="ma240-15" x="11" y="11" width="1" height="1"/><path class="ma240-14" d="M12,9H11v1h1Z"/><path class="ma240-14" d="M18,10V9H17v1Z"/><path class="ma240-16" d="M10,11H9v1h1Z"/><rect class="ma240-17" x="17" y="11" width="1" height="1"/><path class="ma240-14" d="M19,12V11H18v1H16V11H15v1H14V11H13v1H11V11H10v2h9Z"/><path class="ma240-18" d="M19,12h1V11H19Z"/><path class="ma240-7" d="M20,9H19v1h1Z"/><rect class="ma240-13" x="15" y="10" width="1" height="1"/><rect class="ma240-13" x="14" y="9" width="1" height="1"/><rect class="ma240-19" x="14" y="10" width="1" height="1"/><path class="ma240-14" d="M14,10V9H13v1Z"/><path class="ma240-14" d="M16,10V9H15v1Z"/><rect class="ma240-20" x="14" y="7" width="1" height="1"/><rect class="ma240-7" x="14" y="8" width="1" height="1"/><rect class="ma240-7" x="13" y="7" width="1" height="1"/><rect class="ma240-7" x="15" y="7" width="1" height="1"/><rect class="ma240-7" x="14" y="6" width="1" height="1"/><path class="ma240-12" d="M10,12H9v1h1Z"/><path class="ma240-12" d="M19,13h1V12H19Z"/><path class="ma240-12" d="M20,11V10H19v1Z"/><path class="ma240-12" d="M10,10H9v1h1Z"/></svg>