<svg xmlns="http://www.w3.org/2000/svg" viewBox="0 0 29 33"><defs><style>polygon,rect,path{shape-rendering:crispedges;}.da65-1{fill:#d14646;}.da65-2{fill:#000000;}.da65-3{fill:#184226;}.da65-4{fill:#ce8452;}.da65-5{fill:#ffffff;}.da65-6{fill:#663228;}.da65-7{fill:#990000;}</style></defs><path class="da65-1" d="M0,33H6V24H7V23H8v1H9v1h1V24h2V21H11V20H10V19H9V16H8V15H9V11h1V10h1V9h2V7h1V5h1V6h1V8h1V9h1v1h1v1h1v4h1v1H20v3H19v1H18v1H17v3h2v1h2v1h1v1h1v6h6V0H0Z"/><path class="da65-2" d="M23,27H22v2H21V27H20v6h1V30h1v3h1V27Z"/><rect class="da65-2" x="21" y="26" width="1" height="1"/><path class="da65-2" d="M20,26h1V25H19v1Z"/><path class="da65-2" d="M18,25h1V24H17v1Z"/><path class="da65-2" d="M13,23h3v1h1V21H16v1H13V21H12v3h1Z"/><path class="da65-2" d="M12,24H10v1h2Z"/><path class="da65-2" d="M9,27H8v6H9V27Z"/><path class="da65-2" d="M7,24H6v9H7V24Z"/><path class="da65-3" d="M20,27h1V26H19V25H17v1H16v1H13V26H12V25H10v2H9v6H20V27Z"/><path class="da65-3" d="M21,28v1h1V27H21Z"/><path class="da65-4" d="M8,27H9V25H8V24H7v9H8V27Z"/><path class="da65-4" d="M13,25v1h3V25h1V24H16V23H13v1H12v1Z"/><path class="da65-2" d="M13,26v1h3V26H13Z"/><path class="da65-4" d="M22,30H21v3h1V30Z"/><rect class="da65-2" x="12" y="25" width="1" height="1"/><rect class="da65-2" x="16" y="25" width="1" height="1"/><rect class="da65-2" x="20" y="15" width="1" height="1"/><path class="da65-2" d="M19,14v1h1V11H19v3Z"/><path class="da65-4" d="M10,14h2V13H10Z"/><path class="da65-4" d="M13,22h3V21h1V20h1V19h1V16h1V15H16V14h2V13H16V12h2v1h1V11H18V10H14v1H13V10H11v1H10v1h2v1h1v2H9v1h1v3h1v1h1v1h1Zm1-6h1v1H14Zm-1,3h3V18h1v1H16v1H13Z"/><path class="da65-2" d="M19,17v2h1V16H19Z"/><rect class="da65-2" x="18" y="10" width="1" height="1"/><rect class="da65-2" x="18" y="19" width="1" height="1"/><rect class="da65-2" x="17" y="20" width="1" height="1"/><path class="da65-2" d="M13,9H11v1h2Z"/><path class="da65-2" d="M15,10h3V9H15Z"/><rect class="da65-2" x="11" y="20" width="1" height="1"/><rect class="da65-2" x="10" y="10" width="1" height="1"/><rect class="da65-2" x="10" y="19" width="1" height="1"/><path class="da65-2" d="M10,16H9v3h1V16Z"/><rect class="da65-2" x="8" y="15" width="1" height="1"/><rect class="da65-2" x="14" y="16" width="1" height="1"/><path class="da65-5" d="M18,14v1h1V14Z"/><path class="da65-5" d="M12,15h1V14H12Z"/><path class="da65-2" d="M17,14H16v1h2V14Z"/><path class="da65-2" d="M12,15V14H10V11H9v4h3Z"/><path class="da65-6" d="M19,13H18v1h1Z"/><rect class="da65-6" x="16" y="12" width="2" height="1"/><path class="da65-6" d="M13,14V13H12v1Z"/><path class="da65-6" d="M12,13V12H10v1Z"/><rect class="da65-2" x="13" y="19" width="3" height="1"/><rect class="da65-2" x="16" y="18" width="1" height="1"/><path class="da65-2" d="M10,27V25H9v2Z"/><rect class="da65-2" x="8" y="24" width="1" height="1"/><rect class="da65-2" x="7" y="23" width="1" height="1"/><path class="da65-7" d="M13,11h1V10h1V9h2V8H16V6H15V5H14V7H13v4Z"/></svg>