<svg xmlns="http://www.w3.org/2000/svg" viewBox="0 0 29 33"><defs><style>polygon,rect,path{shape-rendering:crispedges;}.va105-1{fill:#d4a122;}.va105-2{fill:#333333;}.va105-3{fill:#000000;}.va105-4{fill:#e8b795;}.va105-5{fill:#ffffff;}.va105-6{fill:#8e4717;}.va105-7{fill:#99004d;}.va105-8{fill:#317f03;}</style></defs><rect class="va105-1" x="16" y="8" width="1" height="1"/><path class="va105-1" d="M0,33H6V27H7V26H8V25h2V22h1V21H9V20H8V19H9V16H8V15H9V10h1V9h1V8h1V9h1V8h3V7h1V8h2V9h1v1H19v1h1v4h1v1H20v3h1v1H20v1H18v1h1v3h2v1h1v1h1v6h6V0H0Z"/><path class="va105-2" d="M17,23v1H16v1H15v2H14v4h6V27h1V26H19V25H18V22H17Z"/><path class="va105-2" d="M22,27H21v6h1V27Z"/><path class="va105-2" d="M19,32H9v1H20V32Z"/><path class="va105-2" d="M8,27H7v6H8V27Z"/><path class="va105-2" d="M9,27v4h4V27h1V25H13V24H12V22H11v3H10v1H8v1Z"/><path class="va105-3" d="M23,27H22v6h1V27Z"/><rect class="va105-3" x="21" y="26" width="1" height="1"/><path class="va105-3" d="M21,27H20v4H14V27H13v4H9V27H8v6H9V32H20v1h1V27Z"/><path class="va105-3" d="M20,26h1V25H19v1Z"/><path class="va105-3" d="M18,25h1V22H18v3Z"/><rect class="va105-3" x="15" y="24" width="1" height="1"/><path class="va105-3" d="M15,26V25H14v2h1Z"/><rect class="va105-3" x="13" y="24" width="1" height="1"/><path class="va105-4" d="M15,24h1V23H13v1h1v1h1Z"/><path class="va105-3" d="M11,24V22H10v3h1Z"/><path class="va105-3" d="M10,25H8v1h2Z"/><rect class="va105-3" x="7" y="26" width="1" height="1"/><path class="va105-3" d="M7,27H6v6H7V27Z"/><rect class="va105-3" x="20" y="15" width="1" height="1"/><path class="va105-3" d="M19,15h1V14H19Z"/><rect class="va105-4" x="19" y="15" width="1" height="1"/><rect class="va105-4" x="18" y="12" width="1" height="1"/><rect class="va105-4" x="9" y="15" width="1" height="1"/><rect class="va105-4" x="10" y="12" width="1" height="1"/><path class="va105-4" d="M18,19V18h1V16H16V14h2V13H16V12h2V11H13V10H12v1H11v1h2v1H11v1h2v2H10v2h1v1h1V18h1v1h3v1H13V19H12v2h1v1h3V21h1V19Zm-3-2H14V16h1Z"/><path class="va105-3" d="M12,23v1h1V23h3v1h1V22h1V20H17v1H16v1H13V21H12V20H11v2h1Z"/><rect class="va105-3" x="8" y="15" width="1" height="1"/><rect class="va105-3" x="14" y="16" width="1" height="1"/><path class="va105-5" d="M11,15V14H10v2h1Z"/><path class="va105-5" d="M13,16V14H12v2Z"/><path class="va105-5" d="M16,14v2h1V14Z"/><path class="va105-5" d="M18,15v1h1V14H18Z"/><path class="va105-3" d="M11,16h1V14H11v2Z"/><path class="va105-3" d="M18,14H17v2h1V14Z"/><rect class="va105-6" x="18" y="13" width="1" height="1"/><rect class="va105-6" x="16" y="12" width="2" height="1"/><rect class="va105-6" x="10" y="13" width="1" height="1"/><rect class="va105-6" x="11" y="12" width="2" height="1"/><path class="va105-7" d="M19,17v1H18v1H17v1h1v1h2V20h1V19H20V16H19Z"/><path class="va105-7" d="M12,20V19H11V18H10V16H9v3H8v1H9v1h2V20Z"/><rect class="va105-3" x="13" y="19" width="3" height="1"/><rect class="va105-3" x="12" y="18" width="1" height="1"/><path class="va105-8" d="M10,14V12h1V11h1V10h1v1h5v1h1v2h1V11H19V10h1V9H19V8H17V9H16V8H13V9H12V8H11V9H10v1H9v5h1Z"/><rect class="va105-8" x="16" y="7" width="1" height="1"/></svg>