<svg xmlns="http://www.w3.org/2000/svg" viewBox="0 0 29 33"><defs><style>polygon,rect,path{shape-rendering:crispedges;}.ia196-1{fill:#29834f;}.ia196-2{fill:#000000;}.ia196-3{fill:#590035;}.ia196-4{fill:#ce8452;}.ia196-5{fill:#ffffff;}.ia196-6{fill:#000000;}.ia196-7{fill:#fad000;}.ia196-8{fill:#f9e100;}</style></defs><path class="ia196-1" d="M0,33H6V27H7V26H8V25h2V23h1V22h1V21H11V20H10V19H9V16H8V15H9V10h1V9h1V8h7V9h1v1h1v2h1v6H20v1H19v1H18v1H17v1h1v1h1v2h2v1h1v1h1v6h6V0H0Z"/><path class="ia196-2" d="M23,27H22v6h1V27Z"/><rect class="ia196-2" x="21" y="26" width="1" height="1"/><path class="ia196-3" d="M22,27H21v6h1V27Z"/><path class="ia196-2" d="M21,27H20v6h1V27Z"/><path class="ia196-2" d="M20,26h1V25H19v1Z"/><path class="ia196-3" d="M20,27h1V26H19V25H18v1H17v1H16v2H15v1H14V29H13V27H12V26H11V25H10v1H9v7H20V27Z"/><path class="ia196-4" d="M14,24h1v1h1V23H13v2h1Z"/><path class="ia196-2" d="M9,26h1V25H8v1H7v1H8v6H9V26Z"/><path class="ia196-3" d="M8,27H7v6H8V27Z"/><path class="ia196-2" d="M7,27H6v6H7V27Z"/><path class="ia196-4" d="M10,14h2V13H10Z"/><rect class="ia196-4" x="9" y="15" width="1" height="1"/><rect class="ia196-4" x="19" y="15" width="1" height="1"/><path class="ia196-4" d="M13,22h3V21h1V20h1V19h1V16H16V14h2V13H16V12H15V11H13V10H11v1H10v1h2v1h1v3H10v3h1v1h1v1h1Zm1-6h1v1H14Zm-1,3h3V18h1v1H16v1H13Z"/><path class="ia196-2" d="M19,16v3h1V16Z"/><rect class="ia196-2" x="18" y="19" width="1" height="1"/><rect class="ia196-2" x="17" y="20" width="1" height="1"/><rect class="ia196-2" x="11" y="20" width="1" height="1"/><rect class="ia196-2" x="10" y="19" width="1" height="1"/><path class="ia196-2" d="M10,16H9v3h1V16Z"/><rect class="ia196-2" x="8" y="15" width="1" height="1"/><rect class="ia196-2" x="14" y="16" width="1" height="1"/><path class="ia196-5" d="M10,14v2h1V14Z"/><path class="ia196-5" d="M12,15v1h1V14H12Z"/><path class="ia196-5" d="M16,14v2h1V14Z"/><path class="ia196-5" d="M19,14H18v2h1V14Z"/><path class="ia196-2" d="M12,14H11v2h1V14Z"/><path class="ia196-2" d="M17,14v2h1V14Z"/><path class="ia196-6" d="M13,14V13H12v1Z"/><rect class="ia196-6" x="10" y="12" width="2" height="1"/><rect class="ia196-2" x="14" y="29" width="1" height="1"/><rect class="ia196-2" x="12" y="26" width="1" height="1"/><path class="ia196-2" d="M15,28v1h1V27H15Z"/><rect class="ia196-2" x="16" y="26" width="1" height="1"/><path class="ia196-2" d="M13,27v2h1V27Z"/><rect class="ia196-2" x="17" y="25" width="1" height="1"/><rect class="ia196-2" x="11" y="25" width="1" height="1"/><rect class="ia196-2" x="14" y="24" width="1" height="1"/><rect class="ia196-2" x="13" y="25" width="1" height="1"/><rect class="ia196-2" x="15" y="25" width="1" height="1"/><path class="ia196-2" d="M12,24v1h1V23h3v2h1V23h1V22H17V21H16v1H13V21H12v1H11v1h1Z"/><rect class="ia196-7" x="16" y="25" width="1" height="1"/><path class="ia196-7" d="M15,26V25H14v1H13v1h1v2h1V27h1V26Z"/><rect class="ia196-7" x="12" y="25" width="1" height="1"/><path class="ia196-7" d="M11,25h1V23H11v2Z"/><path class="ia196-7" d="M17,24v1h1V23H17Z"/><path class="ia196-2" d="M19,25V23H18v2Z"/><path class="ia196-2" d="M11,24V23H10v2h1Z"/><rect class="ia196-2" x="13" y="19" width="3" height="1"/><rect class="ia196-2" x="16" y="18" width="1" height="1"/><path class="ia196-8" d="M10,14V11h1V10h2v1h2v1h1v1h2v1h1v1h1v3h1V12H20V10H19V9H18V8H11V9H10v1H9v5h1Z"/></svg>