<svg xmlns="http://www.w3.org/2000/svg" viewBox="0 0 29 33"><defs><style>polygon,rect,path{shape-rendering:crispedges;}.pa133-1{fill:#db5a8e;}.pa133-2{fill:#000000;}.pa133-3{fill:#d8be00;}.pa133-4{fill:#b2622b;}.pa133-5{fill:#00af68;}.pa133-6{fill:#ffffff;}.pa133-7{fill:#7f5018;}.pa133-8{fill:#7f5018;}.pa133-9{fill:#6e12ff;}.pa133-10{fill:#c10f7e;}</style></defs><polygon class="pa133-1" points="10 23 9 23 9 25 10 25 10 24 11 24 11 23 10 23"/><path class="pa133-1" d="M6,32V26H7V25H8V21h2v1h1V20H10V19H9V16H8V15H9V11h1V10h1V9h7v1h1v1h1v4h1v1H20v3H19v1H18v2h1v1H18v1h1v1h2v1h1v1h1v6h6V0H0V33H6Z"/><path class="pa133-2" d="M23,27H22v6h1V27Z"/><path class="pa133-3" d="M22,27H21v6h1V27Z"/><rect class="pa133-2" x="21" y="26" width="1" height="1"/><path class="pa133-2" d="M21,27H20v6h1V27Z"/><path class="pa133-3" d="M20,27h1V26H19V25H18V24H16v1h1v3h2v1H17v2h1V30h1v2H16V25H13v3h2v4H12V25h1V24H11v1H10v1H9v7H20V27Zm-9,2v3H10V28h1Z"/><path class="pa133-2" d="M20,26h1V25H19v1Z"/><rect class="pa133-2" x="18" y="24" width="1" height="1"/><rect class="pa133-2" x="18" y="22" width="1" height="1"/><rect class="pa133-3" x="17" y="22" width="1" height="1"/><path class="pa133-2" d="M17,22h1V21H17Z"/><path class="pa133-2" d="M13,24v1h3V24H13Z"/><path class="pa133-4" d="M15,23H13v1h3V23Z"/><rect class="pa133-3" x="11" y="22" width="1" height="1"/><path class="pa133-2" d="M12,21H11v1h1Z"/><rect class="pa133-2" x="10" y="24" width="1" height="1"/><rect class="pa133-2" x="10" y="22" width="1" height="1"/><path class="pa133-2" d="M9,28H8v5H9V28Z"/><rect class="pa133-2" x="9" y="25" width="1" height="1"/><path class="pa133-3" d="M8,28V27H7v6H8V28Z"/><path class="pa133-2" d="M7,27V26H6v7H7V27Z"/><path class="pa133-3" d="M14,31V29H13v2Z"/><path class="pa133-5" d="M14,29v2H13V30H12v2h3V28H13v1Z"/><path class="pa133-5" d="M10,29v3h1V28H10Z"/><path class="pa133-5" d="M18,29h1V28H17v1Z"/><path class="pa133-5" d="M16,31v1h3V30H18v1H17V30H16Z"/><path class="pa133-2" d="M12,26v4h1V25H12Z"/><path class="pa133-2" d="M16,30h1V25H16v5Z"/><rect class="pa133-2" x="20" y="15" width="1" height="1"/><rect class="pa133-4" x="13" y="20" width="1" height="1"/><rect class="pa133-4" x="19" y="15" width="1" height="1"/><rect class="pa133-4" x="15" y="20" width="1" height="1"/><path class="pa133-4" d="M10,17v1h1v1h1V18h2v1h1V18h2v1h1V18h1V17H18V16H16V15H15v2H14V15H9v1h1Z"/><path class="pa133-2" d="M19,17h1V16H19Z"/><path class="pa133-2" d="M17,22H16v2h2V23H17Z"/><path class="pa133-2" d="M13,22H12v1H11v1h2V22Z"/><path class="pa133-2" d="M10,16H9v1h1Z"/><rect class="pa133-2" x="8" y="15" width="1" height="1"/><path class="pa133-2" d="M14,17h1V16H14Z"/><path class="pa133-6" d="M12,14v1h1V14Z"/><path class="pa133-2" d="M11,14H10v1h2V14Z"/><rect class="pa133-7" x="12" y="13" width="1" height="1"/><path class="pa133-8" d="M15,18v1h1V18Z"/><path class="pa133-8" d="M12,22h1v1h3V22h1V21h1V20h1V19h1V17H19v1H18v1H16v2H15V20H14v1H13V19h1V18H12v1H11V18H10V17H9v2h1v1h1v1h1Z"/><path class="pa133-2" d="M14,19H13v1h3V19H14Z"/><path class="pa133-2" d="M16,18v1h1V18Z"/><path class="pa133-9" d="M10,14h2V13h1v2h1v1h1V15h1v1h2v1h1V15h1V11H19V10H18V9H11v1H10v1H9v4h1Z"/><path class="pa133-10" d="M9,26V21H8v5Z"/><path class="pa133-6" d="M10,23V21H9v2Z"/><path class="pa133-10" d="M8,28H9V27H8Z"/><path class="pa133-4" d="M8,27H9V26H7v1Z"/><path class="pa133-2" d="M8,25H7v1H8Z"/></svg>