<svg xmlns="http://www.w3.org/2000/svg" viewBox="0 0 29 33"><defs><style>polygon,rect,path{shape-rendering:crispedges;}.bb91-1{fill:#6b4f99;}.bb91-2{fill:#000000;}.bb91-3{fill:#3e5e00;}.bb91-4{fill:#ffffff;}.bb91-5{fill:#e8b795;}.bb91-6{fill:#8e4717;}.bb91-7{fill:#8e4717;}.bb91-8{fill:#dfdfdf;}.bb91-9{fill:#a89969;}</style></defs><path class="bb91-1" d="M0,33H6V27H7V26H8V25h2V24h1V23h1V21H11V20H10V19H9V16H8V15H9V13H7V12H5V11H7v1H9V10h1V8h1V7h2V8h3V7h2V8h1V7h1V6h2V8H21V9H20v3h2V11h2v1H22v1H20v2h1v1H20v3H19v1H18v1H17v2h1v1h1v1h2v1h1v1h1v6h6V0H0Z"/><path class="bb91-2" d="M23,27H22v6h1V27Z"/><path class="bb91-3" d="M22,27H21v6h1V27Z"/><rect class="bb91-2" x="21" y="26" width="1" height="1"/><path class="bb91-2" d="M21,27H20v6h1V27Z"/><path class="bb91-3" d="M20,27h1V26H19V25H18v4H17v4h3V27Z"/><path class="bb91-2" d="M20,26h1V25H19v1Z"/><path class="bb91-2" d="M17,29H16v4h1V29Z"/><rect class="bb91-4" x="16" y="24" width="1" height="1"/><path class="bb91-4" d="M16,29h1V26H16V25H13v1H12v3h1v4h1V32h1v1h1V29Zm-1,2H14V30h1Zm0-2H14V28h1Zm0-2H14V26h1Z"/><rect class="bb91-4" x="15" y="23" width="1" height="1"/><rect class="bb91-2" x="14" y="32" width="1" height="1"/><rect class="bb91-2" x="14" y="30" width="1" height="1"/><rect class="bb91-2" x="14" y="28" width="1" height="1"/><rect class="bb91-2" x="14" y="26" width="1" height="1"/><path class="bb91-2" d="M15,24V23H14v1H13v1h3V24Z"/><rect class="bb91-4" x="13" y="23" width="1" height="1"/><path class="bb91-2" d="M13,29H12v4h1V29Z"/><rect class="bb91-4" x="12" y="24" width="1" height="1"/><path class="bb91-3" d="M12,29H11V25H10v1H8v1H9v6h3V29Z"/><path class="bb91-2" d="M11,26v3h1V26h1V25H12V24h1V22H12v1H11v1H10v1h1Z"/><path class="bb91-2" d="M10,25H8v1h2Z"/><path class="bb91-2" d="M9,27H8v6H9V27Z"/><path class="bb91-3" d="M8,27H7v6H8V27Z"/><rect class="bb91-2" x="7" y="26" width="1" height="1"/><path class="bb91-2" d="M7,27H6v6H7V27Z"/><rect class="bb91-2" x="20" y="15" width="1" height="1"/><path class="bb91-5" d="M17,16H16V13H13v3H10v2h1v1h1v1h1v1h3V20h1V19h1V18h1V16H17Zm-2,4H14V19h1Zm0-3H14V16h1Z"/><rect class="bb91-5" x="19" y="15" width="1" height="1"/><rect class="bb91-5" x="9" y="15" width="1" height="1"/><path class="bb91-2" d="M16,23v1h1v1H16v1h1v3h1V25h1V24H18V23H17V22H16Z"/><path class="bb91-2" d="M10,14V13h9v2h1V13h2V12H20V11H19v1H10V11H9v1H7v1H9v2h1Z"/><rect class="bb91-2" x="8" y="15" width="1" height="1"/><rect class="bb91-2" x="14" y="16" width="1" height="1"/><path class="bb91-4" d="M11,15V14H10v2h1Z"/><path class="bb91-4" d="M12,15v1h1V14H12Z"/><path class="bb91-4" d="M17,14H16v2h1V14Z"/><path class="bb91-4" d="M19,14H18v2h1V14Z"/><path class="bb91-2" d="M12,14H11v2h1V14Z"/><path class="bb91-2" d="M17,15v1h1V14H17Z"/><path class="bb91-6" d="M12,14h1V13H10v1h2Z"/><path class="bb91-6" d="M17,14h2V13H16v1Z"/><path class="bb91-7" d="M13,23h3V22h1V21h1V20h1V19h1V16H19v2H18v1H17v1H16v1H13V20H12V19H11V18H10V16H9v3h1v1h1v1h1v1h1Z"/><rect class="bb91-2" x="14" y="19" width="1" height="1"/><path class="bb91-2" d="M24,11H22v1h2Z"/><path class="bb91-8" d="M21,8h1V7H21Z"/><rect class="bb91-8" x="20" y="8" width="1" height="1"/><path class="bb91-9" d="M19,11h1V10H19Z"/><path class="bb91-4" d="M18,11h1V10h1V8h1V7h1V6H20V7H19V8H18v3Z"/><path class="bb91-9" d="M17,11H10v1h9V11H17Z"/><path class="bb91-2" d="M11,11h7V7H16V8H13V7H11V8H10v3Z"/><path class="bb91-9" d="M10,10H9v1h1Z"/><path class="bb91-2" d="M6,11H5v1H7V11Z"/></svg>