<svg xmlns="http://www.w3.org/2000/svg" viewBox="0 0 29 33"><defs><style>polygon,rect,path{shape-rendering:crispedges;}.hb37-1{fill:#d4a122;}.hb37-2{fill:#6d3e35;}.hb37-3{fill:#000000;}.hb37-4{fill:#ffffff;}.hb37-5{fill:#00774c;}.hb37-6{fill:#00774c;}.hb37-7{fill:#825fff;}.hb37-8{fill:#0068ff;}.hb37-9{fill:#45ba00;}</style></defs><rect class="hb37-1" x="10" y="20" width="1" height="1"/><rect class="hb37-1" x="9" y="19" width="1" height="1"/><path class="hb37-1" d="M12,21H11v3h1V21Z"/><path class="hb37-1" d="M0,33H6V27H5V26H6V25H5V24H4V21H5V20H6V19H9V16H8V15H9V11h1V10h1V9h2V7h1V5h1V6h1V8h1V9h1v1h1v1h1v4h1v1H20v3H19v1H18v1H17v3h2v1h2v1h1v1h1v6h6V0H0Z"/><path class="hb37-2" d="M8,27H9V26H6v1H7v6H8V27Z"/><path class="hb37-3" d="M7,27H6v6H7V27Z"/><path class="hb37-3" d="M23,27H22v6h1V27Z"/><path class="hb37-2" d="M22,27H21v6h1V27Z"/><rect class="hb37-3" x="21" y="26" width="1" height="1"/><path class="hb37-3" d="M21,27H20v6h1V27Z"/><path class="hb37-2" d="M20,27h1V26H19V25H17V24H16V23H13v1H12v1H10v2H9v6h5V29h1v4h5V27Zm-8,2H11V28h1Zm6,0H17V28h1Z"/><path class="hb37-3" d="M20,26h1V25H19v1Z"/><rect class="hb37-3" x="17" y="28" width="1" height="1"/><path class="hb37-3" d="M18,25h1V24H17v1Z"/><path class="hb37-3" d="M15,29H14v4h1V29Z"/><rect class="hb37-3" x="11" y="28" width="1" height="1"/><path class="hb37-3" d="M10,24v1h2V24H10Z"/><path class="hb37-3" d="M9,27H8v6H9V27Z"/><path class="hb37-3" d="M9,26v1h1V25H9Z"/><rect class="hb37-3" x="20" y="15" width="1" height="1"/><path class="hb37-3" d="M19,14v1h1V11H19v3Z"/><path class="hb37-2" d="M10,14h2V13H10Z"/><path class="hb37-2" d="M10,17v2h1v1h1v1h1v1h3V21h1V20h1V19h1V16h1V15H16V14h2V13H16V12h2v1h1V11H18V10H14v1H13V10H11v1H10v1h2v1h1v2H9v1h1Zm4-1h1v1H14Zm-2,2h5v1H16v1H13V19H12Z"/><path class="hb37-3" d="M19,17v2h1V16H19Z"/><rect class="hb37-3" x="18" y="10" width="1" height="1"/><rect class="hb37-3" x="18" y="19" width="1" height="1"/><rect class="hb37-3" x="17" y="20" width="1" height="1"/><path class="hb37-3" d="M16,22H13V21H12v3h1V23h3v1h1V21H16Z"/><path class="hb37-3" d="M15,10h3V9H15Z"/><path class="hb37-3" d="M13,9H11v1h2Z"/><rect class="hb37-3" x="11" y="20" width="1" height="1"/><rect class="hb37-3" x="10" y="10" width="1" height="1"/><rect class="hb37-3" x="10" y="19" width="1" height="1"/><path class="hb37-3" d="M10,18V16H9v3h1Z"/><rect class="hb37-3" x="8" y="15" width="1" height="1"/><rect class="hb37-3" x="14" y="16" width="1" height="1"/><path class="hb37-4" d="M18,14v1h1V14Z"/><path class="hb37-4" d="M12,15h1V14H12Z"/><path class="hb37-3" d="M17,14H16v1h2V14Z"/><path class="hb37-3" d="M12,15V14H10V11H9v4h3Z"/><path class="hb37-5" d="M19,13H18v1h1Z"/><rect class="hb37-5" x="16" y="12" width="2" height="1"/><path class="hb37-5" d="M13,14V13H12v1Z"/><path class="hb37-5" d="M12,13V12H10v1Z"/><path class="hb37-6" d="M16,19V18H12v1h4Z"/><path class="hb37-3" d="M13,20h3V19H13Z"/><path class="hb37-3" d="M17,19V18H16v1Z"/><path class="hb37-7" d="M13,11h1V10h1V9h2V8H16V6H15V5H14V7H13v4Z"/><rect class="hb37-3" x="5" y="26" width="1" height="1"/><path class="hb37-8" d="M7,20v1H9V19H8v1Z"/><path class="hb37-8" d="M5,23H6V21H4v1H5Z"/><path class="hb37-8" d="M7,26H8V25H9V23h2V21H9v1H8v2H6v1H7Z"/><path class="hb37-9" d="M7,24H8V22H9V21H7V20H8V19H6v1H5v1H6v2H5v2H6V24Z"/><path class="hb37-9" d="M11,24V23H9v2h1V24Z"/><path class="hb37-9" d="M8,25v1H9V25Z"/><path class="hb37-8" d="M4,23v1H5V23Z"/><path class="hb37-9" d="M9,20v1h1V20Z"/><path class="hb37-9" d="M7,25H6v1H7Z"/><path class="hb37-9" d="M5,22H4v1H5Z"/></svg>