<svg xmlns="http://www.w3.org/2000/svg" viewBox="0 0 29 33"><defs><style>polygon,rect,path{shape-rendering:crispedges;}.ca67-1{fill:#db5a8e;}.ca67-2{fill:#000000;}.ca67-3{fill:#b2622b;}.ca67-4{fill:#cbed03;}.ca67-5{fill:#cbed03;}.ca67-6{fill:#ffffff;}.ca67-7{fill:#5e362f;}.ca67-8{fill:#d8be00;}.ca67-9{fill:#fad000;}.ca67-10{fill:#455054;}.ca67-11{fill:#ff1f4a;}.ca67-12{fill:#ffffff;}.ca67-13{fill:#0068ff;}</style></defs><path class="ca67-1" d="M8,19v3H9V16H8v3Z"/><path class="ca67-1" d="M0,33H8V32H6V31H5V22H6V21H7V20H5v1H2V17H5V16H8V15H9V10h1V9h1V8h7V9h1v1h1v5h1v1H20v6H19v3h2v1h1v1h1v6h6V0H0ZM11,5h1V4h5V5h1V6H17V7H12V6H11Z"/><path class="ca67-1" d="M13,6h4V5H12V6Z"/><path class="ca67-1" d="M9,24H8v1h2V24Z"/><path class="ca67-2" d="M23,27H22v6h1V27Z"/><rect class="ca67-2" x="21" y="26" width="1" height="1"/><path class="ca67-3" d="M22,27H21v6h1V27Z"/><rect class="ca67-3" x="20" y="26" width="1" height="1"/><path class="ca67-2" d="M21,27H20v6h1V27Z"/><path class="ca67-2" d="M20,26h1V25H19v1Z"/><path class="ca67-4" d="M20,27V26H19V25H18v1H17v1H16v1H13V27H12V26H11v1H10V26H9v7h1V29h1v4h1V29h3v4h1V29h3v1H17v2h1V31h1v2h1V27Z"/><rect class="ca67-4" x="13" y="30" width="1" height="2"/><rect class="ca67-2" x="16" y="26" width="1" height="1"/><path class="ca67-2" d="M13,27v1h3V27H13Z"/><path class="ca67-3" d="M16,24V23H13v1H12v2h1v1h3V26h1V24Z"/><rect class="ca67-2" x="12" y="26" width="1" height="1"/><path class="ca67-2" d="M11,25v1h1V25Z"/><path class="ca67-3" d="M8,27H9V26H8Z"/><path class="ca67-2" d="M9,27H8V26h2V25H8V24H7v7H6v1H8v1H9V27Z"/><path class="ca67-3" d="M7,30V24H8V22H6v9H7Z"/><path class="ca67-2" d="M6,22H5v9H6V22Z"/><path class="ca67-5" d="M12,29v4h3V29Zm2,3H13V30h1Z"/><path class="ca67-5" d="M11,29H10v4h1V29Z"/><path class="ca67-5" d="M18,31v1H17V30h2V29H16v4h3V31Z"/><rect class="ca67-2" x="20" y="15" width="1" height="1"/><path class="ca67-3" d="M10,13v1h2V13H10Z"/><path class="ca67-3" d="M10,16v3h1v1h1v1h1v1h3V21h1V20h1V19h1V15H16V14h2V13H16V12h1V11H15V10H12v1H11v1h1v1h1v2H9v1Zm4,0h1v1H14Zm-1,3h3V18h1v1H16v1H13Z"/><path class="ca67-2" d="M19,17v2h1V16H19Z"/><rect class="ca67-2" x="18" y="19" width="1" height="1"/><rect class="ca67-2" x="17" y="20" width="1" height="1"/><path class="ca67-2" d="M12,24h1V23h3v1h1V21H16v1H13V21H12v3Z"/><rect class="ca67-2" x="11" y="20" width="1" height="1"/><rect class="ca67-2" x="10" y="19" width="1" height="1"/><path class="ca67-2" d="M10,18V16H9v3h1Z"/><rect class="ca67-2" x="8" y="15" width="1" height="1"/><rect class="ca67-2" x="14" y="16" width="1" height="1"/><path class="ca67-6" d="M12,15h1V14H12Z"/><path class="ca67-6" d="M10,14v1h1V14Z"/><path class="ca67-6" d="M18,14v1h1V14Z"/><path class="ca67-6" d="M16,14v1h1V14Z"/><path class="ca67-2" d="M11,14v1h1V14Z"/><path class="ca67-2" d="M17,14v1h1V14Z"/><polygon class="ca67-7" points="17 12 16 12 16 13 18 13 18 12 17 12"/><path class="ca67-7" d="M13,14V13H12v1Z"/><path class="ca67-7" d="M12,13V12H11v1Z"/><rect class="ca67-2" x="13" y="19" width="3" height="1"/><rect class="ca67-2" x="16" y="18" width="1" height="1"/><path class="ca67-8" d="M12,25V21H11V20H10V19H9v5h1v3h1V25Z"/><path class="ca67-8" d="M10,14V13h1V11h1V10h3v1h2v1h1v2h1v2h1V10H19V9H18V8H11V9H10v1H9v5h1Z"/><path class="ca67-8" d="M19,20H18v1H17v5h1V25h1V22h1V19H19Z"/><rect class="ca67-9" x="17" y="5" width="1" height="1"/><path class="ca67-9" d="M13,6H12V7h5V6H13Z"/><path class="ca67-9" d="M17,5V4H12V5h5Z"/><rect class="ca67-9" x="11" y="5" width="1" height="1"/><path class="ca67-10" d="M8,22V20H7v2Z"/><path class="ca67-11" d="M5,17H2v1H5Z"/><path class="ca67-11" d="M2,19v1H5V19Z"/><path class="ca67-12" d="M2,21H5V20H2Z"/><path class="ca67-13" d="M6,18H8V16H5v2Z"/><path class="ca67-12" d="M5,18H2v1H5Z"/><path class="ca67-11" d="M7,18H5v1H8V18Z"/><path class="ca67-12" d="M8,19H5v1H8Z"/><path class="ca67-2" d="M7,21H6v1H7Z"/><path class="ca67-2" d="M9,22H8v2H9Z"/></svg>