<svg xmlns="http://www.w3.org/2000/svg" viewBox="0 0 29 33"><defs><style>polygon,rect,path{shape-rendering:crispedges;}.ja26-1{fill:#6b4f99;}.ja26-2{fill:#000000;}.ja26-3{fill:#508e91;}.ja26-4{fill:#00774c;}.ja26-5{fill:#e8b795;}.ja26-6{fill:#ffffff;}.ja26-7{fill:#9b8100;}.ja26-8{fill:#9b8100;}.ja26-9{fill:#ff1f4a;}</style></defs><path class="ja26-1" d="M0,33H6V27H7V26H8V25h2V24h2V21H11V20H9V18H8V13H9V11h1V10h1V9h7v1h1v1h1v1h1v6H20v2H18v1H17v3h2v1h2v1h1v1h1v6h6V0H0Z"/><path class="ja26-2" d="M23,27H22v6h1V27Z"/><rect class="ja26-2" x="21" y="26" width="1" height="1"/><path class="ja26-3" d="M21,31h1V30H21Z"/><path class="ja26-3" d="M21,28h1V27H21Z"/><path class="ja26-2" d="M21,30V27H20v6h1V30Z"/><path class="ja26-2" d="M20,26h1V25H19v1Z"/><path class="ja26-3" d="M9,31H20V30H9Z"/><path class="ja26-3" d="M9,27v1H20V27H9Z"/><path class="ja26-3" d="M17,25V24H12v1Z"/><path class="ja26-2" d="M18,25h1V24H17v1Z"/><path class="ja26-2" d="M13,23V22H12v2h1Z"/><path class="ja26-2" d="M12,24H10v1h2Z"/><path class="ja26-2" d="M10,25H8v1h2Z"/><path class="ja26-2" d="M9,30V27H8v6H9V30Z"/><rect class="ja26-2" x="7" y="26" width="1" height="1"/><path class="ja26-3" d="M7,31H8V30H7Z"/><path class="ja26-3" d="M8,28V27H7v1Z"/><path class="ja26-2" d="M7,30V27H6v6H7V30Z"/><path class="ja26-4" d="M9,31v2H20V31Z"/><path class="ja26-4" d="M9,29v1H20V28H9Z"/><path class="ja26-4" d="M9,27H21V26H19V25H10v1H8v1Z"/><path class="ja26-4" d="M15,23H13v1h3V23Z"/><path class="ja26-4" d="M7,29v1H8V28H7Z"/><path class="ja26-4" d="M7,31v2H8V31Z"/><path class="ja26-4" d="M21,31v2h1V31Z"/><path class="ja26-4" d="M21,29v1h1V28H21Z"/><rect class="ja26-2" x="19" y="14" width="1" height="1"/><rect class="ja26-5" x="9" y="15" width="1" height="1"/><rect class="ja26-5" x="19" y="15" width="1" height="1"/><rect class="ja26-5" x="12" y="12" width="1" height="1"/><path class="ja26-5" d="M18,15H16v1H15v1H14V16h1V14h1V12H15V11H14v4H13v2H12V15H11v4h1V18h2v1h1V18h2v1h1V15Z"/><rect class="ja26-5" x="11" y="13" width="1" height="1"/><rect class="ja26-5" x="13" y="20" width="1" height="1"/><rect class="ja26-5" x="17" y="11" width="1" height="1"/><rect class="ja26-5" x="15" y="20" width="1" height="1"/><rect class="ja26-5" x="17" y="13" width="1" height="1"/><rect class="ja26-2" x="19" y="16" width="1" height="1"/><path class="ja26-2" d="M16,23v1h1V22H16Z"/><rect class="ja26-2" x="9" y="16" width="1" height="1"/><rect class="ja26-2" x="14" y="16" width="1" height="1"/><rect class="ja26-6" x="12" y="14" width="1" height="1"/><path class="ja26-6" d="M17,15V14H16v1Z"/><rect class="ja26-2" x="11" y="14" width="1" height="1"/><path class="ja26-2" d="M18,15V14H17v1Z"/><rect class="ja26-7" x="17" y="12" width="1" height="1"/><rect class="ja26-7" x="12" y="13" width="1" height="1"/><rect class="ja26-7" x="11" y="12" width="1" height="1"/><rect class="ja26-8" x="19" y="17" width="1" height="1"/><path class="ja26-8" d="M13,23h3V22h1V21h1V20h1V18H18v1H17V18H15v1h1v2H15V20H14v1H13V19h1V18H12v1H11V18H10v2h1v1h1v1h1Z"/><rect class="ja26-8" x="9" y="17" width="1" height="1"/><path class="ja26-2" d="M13,19v1h3V19H13Z"/><path class="ja26-9" d="M9,16V15h1v3h1V12h2v3h1V11h1v1h1v2h1V11h1v7h1V14h1v4h1V12H20V11H19V10H18V9H11v1H10v1H9v2H8v5H9V16Z"/><path class="ja26-9" d="M19,19v1h1V18H19Z"/><path class="ja26-9" d="M15,15v1h1V14H15Z"/><path class="ja26-9" d="M12,16v1h1V15H12Z"/><path class="ja26-9" d="M9,18v2h1V18Z"/></svg>