<svg xmlns="http://www.w3.org/2000/svg" viewBox="0 0 29 33"><defs><style>polygon,rect,path{shape-rendering:crispedges;}.ea204-1{fill:#31a09d;}.ea204-2{fill:#000000;}.ea204-3{fill:#317f03;}.ea204-4{fill:#c18d59;}.ea204-5{fill:#72dd40;}.ea204-6{fill:#99582c;}.ea204-7{fill:#99004d;}.ea204-8{fill:#ff1f4a;}.ea204-9{fill:#c9a717;}</style></defs><path class="ea204-1" d="M6,27H7V26H8V25h2V24h2V21H9V20H8V19H9V16H8V15H9V13H8V12H4V11H6V10H8V9h2V8h1V7h1V6h1V5h1V4h1V5h1V6h1V7h1V8h1V9h2v1h2v1h2v1H21v1H20v2h1v1H20v3h1v1H20v1H17v3h2v1h2v1h1v1h1v6h6V0H0V33H6V27Z"/><rect class="ea204-1" x="14" y="17" width="1"/><path class="ea204-2" d="M23,27H22v3H21V27H20v6h1V31h1v2h1V27Z"/><rect class="ea204-2" x="21" y="26" width="1" height="1"/><path class="ea204-3" d="M21,28v2h1V27H21Z"/><path class="ea204-4" d="M21,31v2h1V31Z"/><path class="ea204-2" d="M20,26h1V25H19v1Z"/><path class="ea204-3" d="M20,27h1V26H19V25H17v1H16v1H13V26H12V25H10v1H8v1H9v6h1V30h1V29h1V28h5v1h1v1h1v3h1V27Z"/><rect class="ea204-3" x="12" y="30" width="1" height="1"/><rect class="ea204-3" x="16" y="30" width="1" height="1"/><path class="ea204-3" d="M16,32H12v1h5V32Z"/><path class="ea204-2" d="M18,25h1V24H17v1Z"/><rect class="ea204-2" x="16" y="25" width="1" height="1"/><path class="ea204-2" d="M13,26v1h3V26H13Z"/><path class="ea204-2" d="M13,23h3v1h1V21H16v1H13V21H12v3h1Z"/><path class="ea204-4" d="M13,25v1h3V25h1V24H16V23H13v1H12v1Z"/><rect class="ea204-2" x="12" y="25" width="1" height="1"/><path class="ea204-2" d="M12,24H10v1h2Z"/><path class="ea204-2" d="M10,25H8v1h2Z"/><path class="ea204-2" d="M7,32V31H8v2H9V27H8v3H7V27H6v6H7Z"/><rect class="ea204-2" x="7" y="26" width="1" height="1"/><path class="ea204-3" d="M7,28v2H8V27H7Z"/><path class="ea204-4" d="M7,31v2H8V31Z"/><path class="ea204-5" d="M19,30H18V29H17V28H12v1H11v1H10v3h2V32h5v1h2V30Zm-6,1H12V30h1Zm4,0H16V30h1Z"/><path class="ea204-4" d="M19,13H10v1h1V13h8Z"/><path class="ea204-4" d="M13,21v1h3V21h1V19h1V18h1V16h1V15H18v1H16V15H15V14H14v1H13v1H11V15H9v1h1v2h1v1h1v2Zm1-4V16h1v1H14Zm-1,2h3v1H13Z"/><path class="ea204-2" d="M17,20v1h1V20Z"/><path class="ea204-2" d="M11,20v1h1V20Z"/><polygon class="ea204-2" points="15 16 15 16 14 16 14 17 15 17 15 16"/><path class="ea204-6" d="M18,13v1h1V13Z"/><path class="ea204-7" d="M19,16v2H18v1H17v1h1v1h2V20h1V19H20V16Z"/><path class="ea204-7" d="M12,20V19H11V18H10V16H9v3H8v1H9v1h2V20Z"/><rect class="ea204-2" x="13" y="19" width="3" height="1"/><path class="ea204-8" d="M19,13v1h1V13H19Z"/><path class="ea204-8" d="M10,13H9v1h1Z"/><path class="ea204-2" d="M10,15h1v1h2V15h1V14h1v1h1v1h2V15h2v1h1V15H20V14H18V13H11v1H9v1H8v1H9V15Z"/><path class="ea204-9" d="M19,13h2V12h4V11H23V10H21V9H19V8H18V7H17V6H16V5H15V4H14V5H13V6H12V7H11V8H10V9H8v1H6v1H4v1H8v1H19Z"/></svg>