<svg xmlns="http://www.w3.org/2000/svg" viewBox="0 0 29 33"><defs><style>polygon,rect,path{shape-rendering:crispedges;}.qa184-1{fill:#6b4f99;}.qa184-2{fill:#000000;}.qa184-3{fill:#ffffff;}.qa184-4{fill:#ce8452;}.qa184-5{fill:#cbed03;}.qa184-6{fill:#ffffff;}.qa184-7{fill:#893a1f;}.qa184-8{fill:#893a1f;}.qa184-9{fill:#9b8100;}.qa184-10{fill:#c10f7e;}</style></defs><rect class="qa184-1" x="18" y="21" width="1" height="1"/><path class="qa184-1" d="M20,23H18v1h1v1h1Z"/><path class="qa184-1" d="M0,33H6V27H7V26H8V25h2V24h1V23H10V22h1V21H10V20H9V16H8V15H9V13H8V9H9V8h1V7h1V6h7V7h1V8h1V9h1v4H20v2h1v1H20v4H19v1h2v4h1v1h1v7h6V0H0Z"/><path class="qa184-2" d="M7,27H6v6H7V27Z"/><path class="qa184-3" d="M8,27H7v6H8V27Z"/><rect class="qa184-2" x="7" y="26" width="1" height="1"/><path class="qa184-2" d="M9,27H8v6H9V27Z"/><path class="qa184-3" d="M20,28V26H19V25H18V24H16v1h1v4h1v1h1v3h1V28Z"/><path class="qa184-3" d="M10,30h1V29h1V25h1V24H11v1H10v1H8v1H9v6h1V30Z"/><path class="qa184-2" d="M10,25H8v1h2Z"/><rect class="qa184-2" x="10" y="24" width="1" height="1"/><rect class="qa184-2" x="10" y="22" width="1" height="1"/><rect class="qa184-3" x="11" y="22" width="1" height="1"/><path class="qa184-2" d="M13,23V22H12v1H11v1h2Z"/><path class="qa184-2" d="M13,24v1h3V24H13Z"/><path class="qa184-4" d="M15,23H13v1h3V23Z"/><path class="qa184-2" d="M17,23V22H16v2h2V23Z"/><rect class="qa184-3" x="17" y="22" width="1" height="1"/><rect class="qa184-2" x="18" y="24" width="1" height="1"/><path class="qa184-2" d="M19,23V22H18v1Z"/><path class="qa184-2" d="M21,28H20v5h1V28Z"/><rect class="qa184-2" x="19" y="25" width="1" height="1"/><path class="qa184-3" d="M22,27H21v6h1V27Z"/><path class="qa184-2" d="M23,26H22v7h1V26Z"/><path class="qa184-3" d="M13,25v3h3V25H13Z"/><path class="qa184-3" d="M16,32H12v1h5V32Z"/><rect class="qa184-3" x="12" y="30" width="1" height="1"/><rect class="qa184-3" x="16" y="30" width="1" height="1"/><path class="qa184-5" d="M19,30H18V29H17v2H16V28H13v3H12V29H11v1H10v3h2V32h5v1h2V30Z"/><path class="qa184-2" d="M13,25H12v5h1V25Z"/><path class="qa184-2" d="M16,28v2h1V25H16v3Z"/><rect class="qa184-2" x="20" y="15" width="1" height="1"/><rect class="qa184-4" x="15" y="20" width="1" height="1"/><path class="qa184-4" d="M10,17v1h1v1h1V18h5v1h1V18h1V16h1V15H16V13h3V12H18V11H11v1h2v1H10v1h3v1H9v1h1Zm4-1h1v1H14Z"/><rect class="qa184-4" x="13" y="20" width="1" height="1"/><path class="qa184-2" d="M10,14H9v1h1Z"/><rect class="qa184-2" x="8" y="15" width="1" height="1"/><rect class="qa184-2" x="14" y="16" width="1" height="1"/><path class="qa184-6" d="M11,15V14H10v1Z"/><path class="qa184-6" d="M16,14v1h1V14Z"/><path class="qa184-2" d="M12,15h1V14H11v1Z"/><path class="qa184-2" d="M18,14H17v1h3V14H18Z"/><path class="qa184-7" d="M10,13h3V12H10Z"/><path class="qa184-7" d="M18,14h1V13H16v1h2Z"/><path class="qa184-8" d="M13,22v1h3V22h2V21h1V20h1V16H19v2H18v1H16v2H15V20H14v1H13V19H11V18H10V16H9v4h1v1h1v1h2Z"/><path class="qa184-2" d="M16,18H12v1h1v1h3V19h1V18Z"/><path class="qa184-9" d="M10,13V12h1V11h7v1h1v2h1V13h1V9H20V8H19V7H18V6H11V7H10V8H9V9H8v4H9v1h1Z"/><path class="qa184-10" d="M20,25v1h1V21H20v4Z"/><path class="qa184-6" d="M19,23h1V21H19v2Z"/><path class="qa184-10" d="M20,28h1V27H20Z"/><path class="qa184-4" d="M20,26v1h2V26H20Z"/><path class="qa184-2" d="M22,26V25H21v1Z"/></svg>