<svg xmlns="http://www.w3.org/2000/svg" viewBox="0 0 29 33"><defs><style>polygon,rect,path{shape-rendering:crispedges;}.ua158-1{fill:#000000;}.ua158-2{fill:#ffffff;}.ua158-3{fill:#ffffff;}.ua158-4{fill:#a56e49;}.ua158-5{fill:#ffffff;}.ua158-6{fill:#d4a122;}.ua158-7{fill:#fad000;}</style></defs><path class="ua158-1" d="M23,27H22v6h1V27Z"/><path class="ua158-2" d="M22,27H21v6h1V27Z"/><rect class="ua158-1" x="21" y="26" width="1" height="1"/><path class="ua158-1" d="M21,27H20v6h1V27Z"/><path class="ua158-2" d="M20,27h1V26H18v1H17v1h2v1H17v2h1V30h1v2H16V30H15v2H12V27H11V26H8v1H9v6H20V27Zm-9,2v3H10V28h1Z"/><path class="ua158-1" d="M11,26V24H10v1H8v1h3Z"/><path class="ua158-1" d="M9,27H8v6H9V27Z"/><path class="ua158-2" d="M8,27H7v6H8V27Z"/><rect class="ua158-1" x="7" y="26" width="1" height="1"/><path class="ua158-1" d="M7,27H6v6H7V27Z"/><rect class="ua158-2" x="13" y="30" width="1" height="1"/><rect class="ua158-2" x="13" y="25" width="1" height="1"/><rect class="ua158-2" x="15" y="25" width="1" height="1"/><path class="ua158-3" d="M13,31V30H12v2h3V31H13Z"/><path class="ua158-3" d="M10,29v3h1V28H10Z"/><path class="ua158-3" d="M18,29h1V28H17v1Z"/><path class="ua158-3" d="M16,31v1h3V30H18v1H17V30H16Z"/><rect class="ua158-4" x="13" y="20" width="3" height="1"/><path class="ua158-4" d="M13,15H10v1h3Z"/><path class="ua158-4" d="M19,15H16v1h3Z"/><path class="ua158-5" d="M13,14H12v1h1Z"/><path class="ua158-5" d="M11,14H10v1h1Z"/><path class="ua158-5" d="M19,14H18v1h1Z"/><rect class="ua158-5" x="16" y="14" width="1" height="1"/><path class="ua158-2" d="M13,22H12V21H11V20H10V19H9V12h1V11h2V10h5v1h2v1h1v7H19v1H18v1H17v1H16v1h2V22h1V21h1V20h1V11H20V10H19V9H18V8H11V9H10v1H9v1H8v9H9v1h1v1h1v1h2Z"/><rect class="ua158-1" x="10" y="8" width="1" height="1"/><rect class="ua158-1" x="9" y="9" width="1" height="1"/><rect class="ua158-1" x="8" y="10" width="1" height="1"/><path class="ua158-1" d="M8,11H7v9H8V11Z"/><rect class="ua158-1" x="8" y="20" width="1" height="1"/><rect class="ua158-1" x="9" y="21" width="1" height="1"/><rect class="ua158-1" x="10" y="22" width="1" height="1"/><rect class="ua158-1" x="18" y="22" width="1" height="1"/><rect class="ua158-1" x="19" y="21" width="1" height="1"/><rect class="ua158-1" x="20" y="20" width="1" height="1"/><path class="ua158-1" d="M21,20h1V11H21v9Z"/><rect class="ua158-1" x="20" y="10" width="1" height="1"/><rect class="ua158-1" x="19" y="9" width="1" height="1"/><rect class="ua158-1" x="18" y="8" width="1" height="1"/><path class="ua158-1" d="M18,8V7H11V8h7Z"/><path class="ua158-6" d="M13,5h4V4H12V5Z"/><path class="ua158-6" d="M0,7V33H6V27H7V26H8V25h2V24h1V23H10V22H9V21H8V20H7V11H8V10H9V9h1V8h1V7h7V8h1V9h1v1h1v1h1v9H21v1H20v1H19v1H18v1h1v1h2v1h1v1h1v6h6V0H0ZM11,4h1V3h5V4h1V5H17V6H12V5H11Z"/><path class="ua158-1" d="M14,31h1V30H14Z"/><path class="ua158-1" d="M16,28H15v2h2V27H16Z"/><path class="ua158-1" d="M14,30V28H13V27H12v3h2Z"/><rect class="ua158-1" x="17" y="26" width="1" height="1"/><rect class="ua158-1" x="11" y="26" width="1" height="1"/><rect class="ua158-1" x="13" y="26" width="1" height="1"/><rect class="ua158-1" x="15" y="26" width="1" height="1"/><path class="ua158-1" d="M12,25v1h1V25h1v1h1V25h1v1h1V24h1V23H16V22h1V21h1V20h1V19h1V12H19V11H17V10H12v1H10v1H9v7h1v1h1v1h1v1h1v1H11v1h1Zm4-10V14h1v1h1V14h1v2H16Zm0,6H13V20h3Zm-4-5H10V14h1v1h1V14h1v2Z"/><rect class="ua158-7" x="16" y="26" width="1" height="1"/><path class="ua158-7" d="M16,28V27H15V26H14v1H13v1h1v2h1V28Z"/><rect class="ua158-7" x="12" y="26" width="1" height="1"/><path class="ua158-7" d="M12,26V24H11v2Z"/><path class="ua158-7" d="M17,25v1h1V24H17Z"/><path class="ua158-1" d="M21,26V25H19V24H18v2Z"/><rect class="ua158-7" x="17" y="4" width="1" height="1"/><path class="ua158-7" d="M13,5H12V6h5V5H13Z"/><path class="ua158-7" d="M17,4V3H12V4h5Z"/><rect class="ua158-7" x="11" y="4" width="1" height="1"/></svg>