<svg xmlns="http://www.w3.org/2000/svg" viewBox="0 0 29 33"><defs><style>polygon,rect,path{shape-rendering:crispedges;}.wa34-1{fill:#e55b35;}.wa34-2{fill:#000000;}.wa34-3{fill:#333333;}.wa34-4{fill:#e8b795;}.wa34-5{fill:#5a2de2;}.wa34-6{fill:#ffffff;}.wa34-7{fill:#ff1d99;}.wa34-8{fill:#ff1d99;}.wa34-9{fill:#5a2de2;}</style></defs><path class="wa34-1" d="M0,33H6V27H7V26H8V25h2V22h1V20H10V19H9V17H8V15H7V14H9V13H7V12H9V11H8V9H9v1h2V9H10V8H9V7h1V8h1V7h1V8h1V7h2V8h1V7h1V8h1V9h1V8h2V9H20v2h1V10h1v2H21v2h1v1H21v2H20v2H19v1H18v2h1v3h1V24h1V23h1v1h1v9h6V0H0Z"/><path class="wa34-2" d="M23,24H22v9h1V24Z"/><path class="wa34-2" d="M7,30V27H6v6H7V30Z"/><rect class="wa34-2" x="7" y="26" width="1" height="1"/><path class="wa34-3" d="M7,31v2H8V31Z"/><path class="wa34-3" d="M8,29V27H7v2Z"/><path class="wa34-2" d="M21,31V27H20v4H14V27H13v4H9V27H8v6H9V32H20v1h1V31Z"/><path class="wa34-2" d="M10,26V25H8v1h2Z"/><path class="wa34-3" d="M16,32v1h1V32Z"/><path class="wa34-3" d="M19,32v1h1V32Z"/><path class="wa34-3" d="M13,32v1h1V32Z"/><path class="wa34-3" d="M10,32v1h1V32Z"/><path class="wa34-2" d="M11,24V22H10v3h1Z"/><path class="wa34-3" d="M9,30v1h1V30Z"/><path class="wa34-3" d="M12,29V28H11V27H10V26H9v2h1v1h1v2h2V30H12Z"/><path class="wa34-3" d="M12,23V22H11v1Z"/><path class="wa34-3" d="M12,25V24H11v2h1v2h1V25Z"/><rect class="wa34-2" x="13" y="24" width="1" height="1"/><path class="wa34-2" d="M15,26V25H14v2h1Z"/><path class="wa34-4" d="M14,25h1V24h1V23H13v1h1Z"/><rect class="wa34-2" x="15" y="24" width="1" height="1"/><path class="wa34-2" d="M18,24v1h1V22H18v2Z"/><path class="wa34-3" d="M18,30V28H17V27H16V25H15v3h1v1h1v2h2V30Z"/><path class="wa34-3" d="M17,23h1V22H17Z"/><path class="wa34-3" d="M15,30V28H14v3h2V30Z"/><path class="wa34-3" d="M18,24H16v1h1v1h1v2h1v1h1V27H19V25H18Z"/><path class="wa34-3" d="M21,31v1h1V30H21Z"/><path class="wa34-3" d="M21,28h1V27H21Z"/><rect class="wa34-2" x="19" y="13" width="1" height="1"/><path class="wa34-4" d="M12,21h1v1h3V21h1V20h1V19h1V16h1V15H16V13H15V12H13v1H11v1h2v1H9v1h1v3h1v1h1Zm2-5h1v1H14Zm-2,2h5v1H16v1H13V19H12Z"/><rect class="wa34-4" x="13" y="10" width="1" height="1"/><rect class="wa34-4" x="16" y="12" width="1" height="1"/><rect class="wa34-4" x="17" y="11" width="1" height="1"/><path class="wa34-2" d="M19,16v3h1V16Z"/><rect class="wa34-2" x="18" y="19" width="1" height="1"/><path class="wa34-2" d="M12,23v1h1V23h3v1h1V22h1V20H17v1H16v1H13V21H12V20H11v2h1Z"/><rect class="wa34-2" x="10" y="19" width="1" height="1"/><path class="wa34-2" d="M10,16H9v3h1V16Z"/><rect class="wa34-2" x="14" y="16" width="1" height="1"/><path class="wa34-5" d="M19,28H18v2h1v1h1V29H19Z"/><path class="wa34-5" d="M21,32v1h1V32Z"/><path class="wa34-5" d="M17,27v1h1V26H17V25H16v2Z"/><path class="wa34-5" d="M21,29v1h1V28H21Z"/><path class="wa34-5" d="M18,32H17v1h2V32Z"/><path class="wa34-5" d="M16,29V28H15v2h1v1h1V29Z"/><path class="wa34-5" d="M13,25v2h1V25Z"/><path class="wa34-5" d="M15,27H14v1h1Z"/><path class="wa34-5" d="M15,32H14v1h2V32Z"/><path class="wa34-5" d="M12,29v1h1V28H12Z"/><rect class="wa34-5" x="12" y="24" width="1" height="1"/><path class="wa34-5" d="M10,27h1v1h1V26H11V25H10v2Z"/><path class="wa34-5" d="M12,32H11v1h2V32Z"/><path class="wa34-5" d="M10,29V28H9v2h1v1h1V29Z"/><path class="wa34-5" d="M9,32v1h1V32Z"/><path class="wa34-5" d="M9,27V26H8v1Z"/><path class="wa34-5" d="M7,30v1H8V29H7Z"/><path class="wa34-5" d="M12,23H11v1h1Z"/><path class="wa34-5" d="M18,23H17v1h1Z"/><path class="wa34-6" d="M10,15h1V14H10Z"/><path class="wa34-6" d="M16,14v1h1V14Z"/><path class="wa34-2" d="M12,15h1V14H11v1Z"/><path class="wa34-2" d="M18,14H17v1h2V14Z"/><rect class="wa34-7" x="10" y="13" width="1" height="1"/><path class="wa34-7" d="M12,13h1V12H12Z"/><path class="wa34-7" d="M17,13H16v1h1Z"/><rect class="wa34-7" x="17" y="12" width="1" height="1"/><path class="wa34-8" d="M16,19h1V18H13v1Z"/><rect class="wa34-2" x="13" y="19" width="3" height="1"/><path class="wa34-2" d="M13,18H12v1h1Z"/><path class="wa34-4" d="M21,27h1V24H21v1H20v2Z"/><path class="wa34-2" d="M20,27V25H19v2Z"/><rect class="wa34-2" x="20" y="24" width="1" height="1"/><rect class="wa34-2" x="21" y="23" width="1" height="1"/><path class="wa34-9" d="M9,15h1V13h2V12h3v1h1V12h1V11h1v2H17v1h2V13h1v1H19v1h1v2h1V15h1V14H21V12h1V10H21v1H20V9h1V8H19V9H18V8H17V7H16V8H15V7H13V8H12V7H11V8H10V9h1v1H9V9H8v2H9v1H7v1H9v1H7v1H8v2H9V15Zm4-5h1v1H13Z"/><rect class="wa34-9" x="9" y="7" width="1" height="1"/></svg>