<svg xmlns="http://www.w3.org/2000/svg" viewBox="0 0 29 33"><defs><style>polygon,rect,path{shape-rendering:crispedges;}.ga51-1{fill:#29834f;}.ga51-2{fill:#000000;}.ga51-3{fill:#333333;}.ga51-4{fill:#e8b795;}.ga51-5{fill:#ffffff;}.ga51-6{fill:#ffffff;}.ga51-7{fill:#8e4717;}.ga51-8{fill:#4922aa;}.ga51-9{fill:#c8a715;}.ga51-10{fill:#5a2de2;}</style></defs><path class="ga51-1" d="M18,24V22H17v2Z"/><path class="ga51-1" d="M0,33H6V27H7V26H8V25h2V20H9V16H8V15H9V11h1V10h1V9h1V8h1V6h1V5h1V7h1V9h2v1h1v1h1v4h1v1H20v4H19v5h2v1h1v1h1v6h6V0H0Z"/><path class="ga51-1" d="M12,22H11v2h1V22Z"/><path class="ga51-2" d="M23,27H22v6h1V27Z"/><rect class="ga51-2" x="21" y="26" width="1" height="1"/><path class="ga51-3" d="M22,27H21v6h1V27Z"/><path class="ga51-2" d="M21,27H20v6h1V27Z"/><path class="ga51-2" d="M20,26h1V25H19v1Z"/><rect class="ga51-3" x="18" y="29" width="1" height="1"/><rect class="ga51-3" x="10" y="29" width="1" height="1"/><path class="ga51-3" d="M19,32V31H18v1H17V29h1V28h1v1h1V27h1V26H19V25H17v1H16v1H13V26H12V25H10v1H9v3h1V28h1v1h1v3H11V31H10v1H9v1H20V32Zm-3-2v1H15v1H13V28h2v1h1Z"/><path class="ga51-3" d="M15,29H14v2h1V29Z"/><path class="ga51-2" d="M17,24v1h2V24H17Z"/><rect class="ga51-2" x="16" y="25" width="1" height="1"/><path class="ga51-2" d="M13,26v1h3V26H13Z"/><path class="ga51-4" d="M16,24V23H13v3h3V24Z"/><path class="ga51-2" d="M12,25v1h1V25Z"/><path class="ga51-2" d="M12,24H10v1h2Z"/><path class="ga51-2" d="M9,31V26h1V25H8v1H7v1H8v6H9V31Z"/><path class="ga51-3" d="M8,27H7v6H8V27Z"/><path class="ga51-2" d="M7,27H6v6H7V27Z"/><path class="ga51-5" d="M19,30H18V29H17v3h1V31h1v1h1V29H19Z"/><rect class="ga51-5" x="18" y="28" width="1" height="1"/><path class="ga51-5" d="M15,30v1h1V29H15Z"/><path class="ga51-5" d="M14,30V29h1V28H13v4h2V31H14Z"/><path class="ga51-5" d="M9,32h1V31h1v1h1V29H11v1H10V29H9v3Z"/><rect class="ga51-5" x="10" y="28" width="1" height="1"/><rect class="ga51-2" x="20" y="15" width="1" height="1"/><path class="ga51-2" d="M19,14H17v1h3V11H19v3Z"/><path class="ga51-4" d="M14,20V19H13v2h1v1h1V21h1V19H15v1Z"/><path class="ga51-4" d="M10,17v1h1v1h1V18h2v1h1V18h2v1h1V18h1V16h1V15H16V13h3V11H18V10H16v1H15V10H11v1H10v1h3v1H10v1h3v1H9v1h1Zm4-1h1v1H14Z"/><path class="ga51-2" d="M19,17h1V16H19Z"/><rect class="ga51-2" x="18" y="10" width="1" height="1"/><path class="ga51-2" d="M14,10V9H11v1h3Z"/><path class="ga51-2" d="M17,10h1V9H16v1Z"/><rect class="ga51-2" x="10" y="10" width="1" height="1"/><path class="ga51-2" d="M10,14V11H9v4h1Z"/><path class="ga51-2" d="M10,16H9v1h1Z"/><rect class="ga51-2" x="8" y="15" width="1" height="1"/><rect class="ga51-2" x="14" y="16" width="1" height="1"/><path class="ga51-6" d="M11,15V14H10v1Z"/><path class="ga51-6" d="M16,14v1h1V14Z"/><path class="ga51-2" d="M12,15h1V14H11v1Z"/><path class="ga51-7" d="M13,13V12H10v1Z"/><path class="ga51-7" d="M18,14h1V13H16v1h2Z"/><path class="ga51-8" d="M12,22v1h5V22h2V20h1V17H19v1H18v1H17V18H15v1h1v2H15v1H14V21H13V19h1V18H12v1H11V18H10V17H9v3h1v2h2Z"/><path class="ga51-9" d="M18,23h1V22H18Z"/><path class="ga51-8" d="M18,24h1V23H18Z"/><path class="ga51-9" d="M17,24V23H16v1Z"/><path class="ga51-8" d="M16,24v1h1V24Z"/><path class="ga51-9" d="M13,23H12v1h1Z"/><path class="ga51-8" d="M13,24H12v1h1Z"/><path class="ga51-9" d="M11,22H10v1h1Z"/><path class="ga51-8" d="M11,23H10v1h1Z"/><rect class="ga51-2" x="14" y="19" width="1" height="1"/><path class="ga51-10" d="M14,10h1v1h1V7H15V5H14V6H13V8H12V9h2Z"/></svg>