<svg xmlns="http://www.w3.org/2000/svg" viewBox="0 0 29 33"><defs><style>polygon,rect,path{shape-rendering:crispedges;}.va13-1{fill:#7a982c;}.va13-2{fill:#000000;}.va13-3{fill:#ffa9d0;}.va13-4{fill:#c18d59;}.va13-5{fill:#cc2f76;}.va13-6{fill:#ffffff;}.va13-7{fill:#7f5018;}.va13-8{fill:#c8a715;}.va13-9{fill:#990000;}.va13-10{fill:#455054;}.va13-11{fill:#002b4f;}.va13-12{fill:#ff1f4a;}</style></defs><path class="va13-1" d="M8,18v4H9v2H8v1h2V20H9V16H8v2Z"/><path class="va13-1" d="M8,32H6V31H5V22H6V21H7V20H5v1H2V17H5V16H8V15H9V11h1V10h1V9h7v1h1v1h1v4h1v1H20v4H19v5h2v1h1v1h1v6h6V0H0V33H8Z"/><path class="va13-2" d="M6,29V22H5v9H6V29Z"/><path class="va13-2" d="M23,27H22v6h1V27Z"/><path class="va13-3" d="M21,30v1h1V29H21Z"/><path class="va13-3" d="M21,28h1V27H21Z"/><path class="va13-3" d="M21,32v1h1V32Z"/><rect class="va13-2" x="21" y="26" width="1" height="1"/><path class="va13-2" d="M21,31V27H20v4H14V27H13v4H9V27H8V26h2V25H8V24H7v7H6v1H8v1H9V32H20v1h1V31Z"/><path class="va13-3" d="M19,32v1h1V32Z"/><path class="va13-3" d="M9,32v1h1V32Z"/><path class="va13-3" d="M13,32H11v1h3V32Z"/><path class="va13-3" d="M17,32H15v1h3V32Z"/><path class="va13-2" d="M20,26h1V25H19v1Z"/><path class="va13-2" d="M18,25h1V24H18Z"/><path class="va13-3" d="M17,25h1V23H17v2Z"/><path class="va13-3" d="M19,26v1H18V26H17V25H16v1H15v1H14v3h1v1h3V30h1v1h1V29H19V28h1V27h1V26H19Zm-1,3H17v1H16V29H15V28h1V27h1v1h1Z"/><rect class="va13-2" x="15" y="24" width="1" height="1"/><path class="va13-2" d="M15,26V25H14v2h1Z"/><rect class="va13-2" x="13" y="24" width="1" height="1"/><path class="va13-4" d="M14,24v1h1V24h1V23H13v1Z"/><path class="va13-2" d="M11,24H10v1h1Z"/><path class="va13-3" d="M13,26V25H12v1H11v1H10V26H8v1H9v1h1v1H9v2h1V30h1v1h2V30H12V29H11V28h1V27h2V26Z"/><path class="va13-3" d="M11,24v1h1V23H11Z"/><path class="va13-3" d="M6,28v2H7V27H6Z"/><rect class="va13-2" x="20" y="15" width="1" height="1"/><polygon class="va13-4" points="13 21 14 21 14 22 15 22 15 21 16 21 16 20 13 20 13 21"/><rect class="va13-4" x="19" y="15" width="1" height="1"/><path class="va13-4" d="M10,18h1v1h1V18h2v1h1V18h2v1h1V18h1V17H18V16H16V15H15v2H14V15H13v1H10v2Z"/><rect class="va13-4" x="12" y="13" width="1" height="1"/><rect class="va13-4" x="9" y="15" width="1" height="1"/><path class="va13-2" d="M19,17h1V16H19Z"/><path class="va13-2" d="M10,16H9v1h1Z"/><rect class="va13-2" x="8" y="15" width="1" height="1"/><path class="va13-2" d="M15,17V16H14v1Z"/><path class="va13-5" d="M10,32v1h1V32Z"/><path class="va13-5" d="M10,30v1h1V30Z"/><path class="va13-5" d="M10,28H9v1h1Z"/><path class="va13-5" d="M7,30H6v1H7Z"/><path class="va13-5" d="M6,25v2H7V24H6Z"/><path class="va13-5" d="M12,28H11v1h1v1h1V27H12Z"/><polygon class="va13-5" points="11 27 11 26 12 26 12 25 11 25 10 25 10 26 10 27 11 27"/><path class="va13-5" d="M13,26h1V25H13Z"/><rect class="va13-5" x="15" y="25" width="1" height="1"/><polygon class="va13-5" points="17 27 16 27 16 28 15 28 15 29 16 29 16 30 17 30 17 29 18 29 18 28 17 28 17 27"/><polygon class="va13-5" points="17 25 17 26 18 26 18 27 19 27 19 26 19 25 18 25 17 25"/><path class="va13-5" d="M21,29h1V28H21Z"/><path class="va13-5" d="M19,29h1V28H19Z"/><path class="va13-5" d="M21,32h1V31H21Z"/><path class="va13-5" d="M14,30v1h1V30Z"/><path class="va13-5" d="M14,32v1h1V32Z"/><path class="va13-5" d="M18,30v1h1V30Z"/><path class="va13-5" d="M18,32v1h1V32Z"/><rect class="va13-5" x="11" y="22" width="1" height="1"/><rect class="va13-5" x="17" y="22" width="1" height="1"/><path class="va13-6" d="M11,15V14H10v2h1Z"/><path class="va13-6" d="M13,16V14H12v2Z"/><path class="va13-2" d="M11,16h1V14H11v2Z"/><path class="va13-7" d="M15,18v1h1V18Z"/><path class="va13-7" d="M19,18H18v1H16v2H15v1H14V21H13V19h1V18H12v1H11V18H10V17H9v3h1v2h2v1h5V22h2V20h1V17H19Z"/><path class="va13-8" d="M18,23h1V22H18Z"/><path class="va13-7" d="M18,24h1V23H18Z"/><path class="va13-8" d="M17,24V23H16v1Z"/><path class="va13-7" d="M16,24v1h1V24Z"/><path class="va13-8" d="M13,24V23H12v1Z"/><path class="va13-7" d="M12,24v1h1V24Z"/><path class="va13-8" d="M11,22H10v1h1Z"/><path class="va13-7" d="M11,23H10v1h1Z"/><path class="va13-2" d="M14,19H13v1h3V19H14Z"/><path class="va13-2" d="M16,18v1h1V18Z"/><path class="va13-9" d="M10,14h2V13h1v2h1v1h1V15h1v1h2v1h1V15h1V11H19V10H18V9H11v1H10v1H9v4h1Z"/><path class="va13-4" d="M7,24H8V22H6v2Z"/><path class="va13-10" d="M8,22V20H7v2Z"/><path class="va13-2" d="M7,21H6v1H7Z"/><path class="va13-2" d="M9,22H8v2H9Z"/><path class="va13-11" d="M4,21H5V20H4Z"/><path class="va13-11" d="M5,18V17H4v1Z"/><path class="va13-11" d="M3,19V18H2v2H3Z"/><path class="va13-11" d="M5,19v1H6V19Z"/><path class="va13-11" d="M6,16H5v1H6Z"/><path class="va13-11" d="M8,17H7v2H8V17Z"/><path class="va13-12" d="M3,17H2v1H3Z"/><path class="va13-12" d="M6,17v1H3v2H4V19H7V17Z"/><path class="va13-12" d="M8,17V16H7v1Z"/><path class="va13-12" d="M8,19H7v1H8Z"/><path class="va13-12" d="M2,20v1H3V20Z"/><path class="va13-6" d="M3,20v1H4V20Z"/><path class="va13-6" d="M4,19v1H5V19Z"/><path class="va13-6" d="M4,18V17H3v1Z"/><path class="va13-6" d="M7,17V16H6v1Z"/><path class="va13-6" d="M6,18V17H5v1Z"/><path class="va13-6" d="M6,19v1H7V19Z"/></svg>