<svg xmlns="http://www.w3.org/2000/svg" viewBox="0 0 29 33"><defs><style>polygon,rect,path{shape-rendering:crispedges;}.sa234-1{fill:#000000;}.sa234-2{fill:#c4ea3b;}.sa234-3{fill:#e8b795;}.sa234-4{fill:#8e703c;}.sa234-5{fill:#31a09d;}.sa234-6{fill:#8e703c;}.sa234-7{fill:#ff1d99;}.sa234-8{fill:#6e12ff;}.sa234-9{fill:#ffffff;}.sa234-10{fill:#e70059;}</style></defs><path class="sa234-1" d="M23,27H22v6h1V27Z"/><path class="sa234-2" d="M22,27H21v6h1V27Z"/><rect class="sa234-1" x="21" y="26" width="1" height="1"/><path class="sa234-1" d="M21,27H20v6h1V27Z"/><path class="sa234-2" d="M20,27h1V26H19V25H18V24H16v1h1v5H16V25H13v5H12V25h1V24H11v1H10v1H8v1H9v6H20V27Z"/><path class="sa234-1" d="M20,26h1V25H19v1Z"/><rect class="sa234-1" x="18" y="24" width="1" height="1"/><path class="sa234-1" d="M16,24h2V23H16Z"/><path class="sa234-1" d="M13,24v1h3V24H13Z"/><path class="sa234-3" d="M15,23H13v1h3V23Z"/><path class="sa234-1" d="M13,23H11v1h2Z"/><rect class="sa234-1" x="10" y="24" width="1" height="1"/><path class="sa234-1" d="M10,25H8v1h2Z"/><path class="sa234-1" d="M9,27H8v6H9V27Z"/><path class="sa234-2" d="M8,27H7v6H8V27Z"/><rect class="sa234-1" x="7" y="26" width="1" height="1"/><path class="sa234-1" d="M7,27H6v6H7V27Z"/><path class="sa234-1" d="M12,26v4h1V25H12Z"/><path class="sa234-1" d="M16,30h1V25H16v5Z"/><path class="sa234-3" d="M16,17V16H15v1H14V16H13v1H10v1h1v1h1V18h5v1h1V18h1V17H16Z"/><path class="sa234-3" d="M13,12v2h3V12h1V11H12v1Z"/><rect class="sa234-3" x="16" y="19" width="1" height="1"/><rect class="sa234-3" x="12" y="19" width="1" height="1"/><path class="sa234-3" d="M14,20H13v1h3V20H14Z"/><rect class="sa234-3" x="14" y="15" width="1" height="1"/><rect class="sa234-1" x="14" y="16" width="1" height="1"/><path class="sa234-4" d="M11,13h2V12H10v1Z"/><path class="sa234-4" d="M17,12H16v1h3V12H17Z"/><path class="sa234-2" d="M21,15H20v4H19v1H18v1H17v1H16v1h2V22h1V21h1V20h1V15Z"/><path class="sa234-2" d="M8,14H9V12h1V11h2V10h5v1h2v1h1v2h1V11H20V10H19V9H18V8H11V9H10v1H9v1H8v3Z"/><path class="sa234-2" d="M13,22H12V21H11V20H10V19H9V15H8v5H9v1h1v1h1v1h2Z"/><rect class="sa234-1" x="10" y="8" width="1" height="1"/><rect class="sa234-1" x="9" y="9" width="1" height="1"/><rect class="sa234-1" x="8" y="10" width="1" height="1"/><path class="sa234-1" d="M8,15V11H7v9H8V15Z"/><rect class="sa234-1" x="8" y="20" width="1" height="1"/><rect class="sa234-1" x="9" y="21" width="1" height="1"/><rect class="sa234-1" x="10" y="22" width="1" height="1"/><rect class="sa234-1" x="18" y="22" width="1" height="1"/><rect class="sa234-1" x="19" y="21" width="1" height="1"/><rect class="sa234-1" x="20" y="20" width="1" height="1"/><path class="sa234-1" d="M21,14v6h1V11H21v3Z"/><rect class="sa234-1" x="20" y="10" width="1" height="1"/><rect class="sa234-1" x="19" y="9" width="1" height="1"/><rect class="sa234-1" x="18" y="8" width="1" height="1"/><path class="sa234-1" d="M18,8V7H11V8h7Z"/><path class="sa234-1" d="M12,11H10v1h2Z"/><path class="sa234-1" d="M10,13V12H9v2h1Z"/><path class="sa234-1" d="M19,14h1V12H19v2Z"/><path class="sa234-1" d="M18,12h1V11H17v1Z"/><path class="sa234-1" d="M17,11V10H12v1h5Z"/><path class="sa234-5" d="M0,7V33H6V27H7V26H8V25h2V24h1V23H10V22H9V21H8V20H7V11H8V10H9V9h1V8h1V7h7V8h1V9h1v1h1v1h1v9H21v1H20v1H19v1H18v1h1v1h2v1h1v1h1v6h6V0H0Z"/><path class="sa234-6" d="M16,23V22h1V21h1V20h1V19h1V16H19v2H18v1H17v1H16v1H13V20H12V19H11V18H10V16H9v3h1v1h1v1h1v1h1v1h3Z"/><path class="sa234-7" d="M19,15v1h1V15h1V14H19Z"/><path class="sa234-7" d="M19,14V13H16v1h3Z"/><path class="sa234-8" d="M19,14H16v2h3V14Z"/><path class="sa234-7" d="M16,16v1h3V16H16Z"/><path class="sa234-7" d="M14,16V15h1v1h1V14H13v2Z"/><path class="sa234-7" d="M13,14V13H10v1h3Z"/><path class="sa234-8" d="M13,16V14H10v2h3Z"/><path class="sa234-7" d="M13,17V16H10v1h3Z"/><path class="sa234-7" d="M10,15V14H8v1H9v1h1Z"/><path class="sa234-1" d="M13,18H12v1h1Z"/><path class="sa234-1" d="M16,18v1h1V18Z"/><path class="sa234-1" d="M15,19v1h1V19Z"/><path class="sa234-1" d="M15,19V18H14v1Z"/><rect class="sa234-1" x="13" y="19" width="1" height="1"/><path class="sa234-9" d="M14,19V18H13v1Z"/><path class="sa234-9" d="M16,19V18H15v1Z"/><path class="sa234-10" d="M14,20h1V19H14Z"/></svg>