<svg xmlns="http://www.w3.org/2000/svg" viewBox="0 0 29 33"><defs><style>polygon,rect,path{shape-rendering:crispedges;}.gb89-1{fill:#b4bd09;}.gb89-2{fill:#000000;}.gb89-3{fill:#9b8100;}.gb89-4{fill:#a7af69;}.gb89-5{fill:#ce8452;}.gb89-6{fill:#90a2a3;}.gb89-7{fill:#ffffff;}.gb89-8{fill:#316a6d;}.gb89-9{fill:#5a2de2;}.gb89-10{fill:#fad000;}.gb89-11{fill:#eaeaea;}</style></defs><path class="gb89-1" d="M6,32V27H7V26H8V25H9V24h1V23h1V21H10v1H9V21H8V20H7V19H8V12H9V10h1V9h1V8h7V9h1v1h1v2h1v7h2v1h1v6H23v7h6V0H0V33H6ZM11,5h1V4h5V5h1V6H17V7H12V6H11Z"/><path class="gb89-1" d="M13,6h4V5H12V6Z"/><path class="gb89-2" d="M7,27H6v6H7V27Z"/><path class="gb89-3" d="M8,27H7v6H8V27Z"/><path class="gb89-2" d="M9,29h1V28h2V27H9V25H8v1H7v1H8v6H9V29Z"/><rect class="gb89-2" x="9" y="24" width="1" height="1"/><path class="gb89-3" d="M12,32V31H11V30H10V29H9v4h4V32Z"/><rect class="gb89-2" x="10" y="23" width="1" height="1"/><path class="gb89-3" d="M10,26v1h2v1H10v1h1v1h1v1h1V26H12V25H11V24H10v1H9v1Z"/><rect class="gb89-3" x="11" y="23" width="1" height="1"/><rect class="gb89-2" x="11" y="24" width="1" height="1"/><rect class="gb89-2" x="10" y="29" width="1" height="1"/><path class="gb89-2" d="M12,24h1V23h3v1h1V23h1V22H17V21H16v1H13V21H12v1H11v1h1Z"/><rect class="gb89-2" x="12" y="25" width="1" height="1"/><path class="gb89-4" d="M15,27H14v6h1V27Z"/><path class="gb89-5" d="M17,25V24H16V23H13v1H12v1h1v1h3V25Z"/><rect class="gb89-2" x="16" y="25" width="1" height="1"/><path class="gb89-3" d="M20,29H19v1H18v1H17v1H16v1h4V29Z"/><rect class="gb89-3" x="17" y="23" width="1" height="1"/><rect class="gb89-2" x="17" y="24" width="1" height="1"/><rect class="gb89-2" x="17" y="30" width="1" height="1"/><path class="gb89-2" d="M20,24H19v2h1V24Z"/><path class="gb89-3" d="M19,25V24H18v1H17v1H16v5h1V30h1V29h1V28H17V27h2V25Z"/><path class="gb89-2" d="M21,27V26H20v1H17v1h2v1h1v4h1V27Z"/><path class="gb89-3" d="M22,27H21v6h1V27Z"/><path class="gb89-2" d="M23,26H22v7h1V26Z"/><rect class="gb89-2" x="18" y="29" width="1" height="1"/><rect class="gb89-2" x="11" y="30" width="1" height="1"/><path class="gb89-2" d="M17,32V31H16V26H13v5H12v1h1v1h1V27h1v6h1V32Z"/><path class="gb89-6" d="M19,27h1V26H19Z"/><path class="gb89-6" d="M9,26v1h1V26Z"/><path class="gb89-2" d="M20,16h1V15H20Z"/><rect class="gb89-2" x="19" y="14" width="1" height="1"/><path class="gb89-5" d="M18,20V19h1V16h1V15H16V13h1V11H16V10H13v1H12v1h1v1H11v1h2v1H9v1h1v3h1v1h1v1h1v1h3V21h1V20Zm-4-4h1v1H14Zm2,4H13V19H12V18h1v1h3Z"/><rect class="gb89-5" x="17" y="13" width="1" height="1"/><path class="gb89-2" d="M19,17v2h1V16H19Z"/><rect class="gb89-2" x="18" y="19" width="1" height="1"/><rect class="gb89-2" x="17" y="20" width="1" height="1"/><rect class="gb89-2" x="11" y="20" width="1" height="1"/><rect class="gb89-2" x="10" y="19" width="1" height="1"/><path class="gb89-2" d="M10,14H9v1h1Z"/><path class="gb89-2" d="M10,16H9v3h1V16Z"/><path class="gb89-2" d="M9,15H8v1H9Z"/><rect class="gb89-2" x="14" y="16" width="1" height="1"/><path class="gb89-7" d="M13,15V14H12v1Z"/><path class="gb89-7" d="M11,15V14H10v1Z"/><path class="gb89-7" d="M19,15V14H18v1Z"/><path class="gb89-7" d="M16,14v1h1V14Z"/><path class="gb89-2" d="M12,15V14H11v1Z"/><path class="gb89-2" d="M17,15h1V14H17Z"/><path class="gb89-8" d="M13,12H11v1h2Z"/><path class="gb89-8" d="M17,13H16v1h1Z"/><path class="gb89-8" d="M18,13V12H17v1Z"/><rect class="gb89-2" x="13" y="19" width="3" height="1"/><rect class="gb89-2" x="12" y="18" width="1" height="1"/><path class="gb89-9" d="M20,17v2h1V16H20Z"/><path class="gb89-9" d="M9,14h2V12h1V11h1V10h3v1h1v1h1v2h2v1h1V12H20V10H19V9H18V8H11V9H10v1H9v2H8v3H9Z"/><path class="gb89-9" d="M10,20V19H9V16H8v3H7v1H8v1H9v1h1V21h1V20Z"/><path class="gb89-9" d="M12,21H11v1h1Z"/><rect class="gb89-9" x="17" y="21" width="1" height="1"/><rect class="gb89-10" x="17" y="5" width="1" height="1"/><path class="gb89-10" d="M13,6H12V7h5V6H13Z"/><path class="gb89-10" d="M17,5V4H12V5h5Z"/><rect class="gb89-10" x="11" y="5" width="1" height="1"/><path class="gb89-5" d="M22,25H20v1h1v1h1V26h1V25Z"/><path class="gb89-2" d="M23,26h1V25H23Z"/><path class="gb89-2" d="M23,22h1V21H23Z"/><path class="gb89-2" d="M21,22h1V21H20v1Z"/><path class="gb89-7" d="M23,23h1V22H23Z"/><path class="gb89-7" d="M23,23H22v1H21v1h3V24H23Z"/><path class="gb89-11" d="M21,25V24H20v1Z"/><path class="gb89-11" d="M19,19v1H18v4h2V23H19V21h1V20h3V19H19Z"/><rect class="gb89-2" x="22" y="22" width="1" height="1"/><rect class="gb89-2" x="21" y="23" width="1" height="1"/><path class="gb89-2" d="M23,24h1V23H23Z"/><path class="gb89-7" d="M20,20v1h2v1h1V21h1V20H20Z"/><path class="gb89-7" d="M21,23h1V22H20V21H19v2h1v1h1Z"/></svg>