<svg xmlns="http://www.w3.org/2000/svg" viewBox="0 0 29 33"><defs><style>polygon,rect,path{shape-rendering:crispedges;}.wa300-1{fill:#e55b35;}.wa300-2{fill:#000000;}.wa300-3{fill:#b3ffa1;}.wa300-4{fill:#e8b795;}.wa300-5{fill:#45ba00;}.wa300-6{fill:#ffffff;}.wa300-7{fill:#ff1d99;}.wa300-8{fill:#ff1d99;}.wa300-9{fill:#c6e5e4;}</style></defs><path class="wa300-1" d="M0,33H29V0H0ZM19,7h1V8H19ZM4,20H5V19H7v1H8v1H9v2H8v2h2V22h1V20H10V19H9V16H8V15H9V14H8V12H9V11H8V10H9V9H8V8h2V7h1V8h1V6h1V7h1V8h1V7h1V6h1V7h1V8h1V9h2v2H20v1h1v1H20v1h1v1h0v1H20v3H19v1H18v2h1v3h2v1h1v1h1v6H8V32H6V31H5V23H4Z"/><path class="wa300-1" d="M19,17v1h0V16h0Z"/><rect class="wa300-1" x="20" y="15" height="1"/><path class="wa300-2" d="M6,29V23H5v8H6V29Z"/><path class="wa300-2" d="M22,29v4h1V27H22v2Z"/><path class="wa300-3" d="M22,30H21v1h1Z"/><path class="wa300-3" d="M21,28h1V27H21Z"/><rect class="wa300-2" x="21" y="26" width="1" height="1"/><path class="wa300-2" d="M7,24v7H6v1H8v1H9V32H20v1h1V27H20v4H14V27H13v4H9V27H8V26h2V25H8V23H7Z"/><path class="wa300-2" d="M20,26h1V25H19v1Z"/><path class="wa300-2" d="M18,25h1V22H18v3Z"/><path class="wa300-2" d="M17,22h1V21H17Z"/><path class="wa300-3" d="M14,27v1h6V27H14Z"/><path class="wa300-3" d="M14,31h6V30H14Z"/><path class="wa300-3" d="M16,25h2V24H16Z"/><path class="wa300-2" d="M17,24V22H16v2Z"/><rect class="wa300-2" x="15" y="24" width="1" height="1"/><path class="wa300-2" d="M15,26V25H14v2h1Z"/><rect class="wa300-2" x="13" y="24" width="1" height="1"/><path class="wa300-4" d="M15,24h1V23H13v1h1v1h1Z"/><path class="wa300-2" d="M13,23V22H12v2h1Z"/><path class="wa300-2" d="M12,21H11v1h1Z"/><path class="wa300-2" d="M11,24V22H10v3h1Z"/><path class="wa300-3" d="M9,28h4V27H9Z"/><polygon class="wa300-3" points="12 24 11 24 11 25 13 25 13 24 12 24"/><path class="wa300-3" d="M9,31h4V30H9Z"/><path class="wa300-3" d="M7,30H6v1H7Z"/><path class="wa300-3" d="M6,28H7V27H6Z"/><path class="wa300-3" d="M7,25V24H6v1Z"/><polygon class="wa300-2" points="20 16 21 16 21 15 21 15 20 15 20 16"/><rect class="wa300-4" x="9" y="15" width="1" height="1"/><rect class="wa300-4" x="16" y="19" width="1" height="1"/><path class="wa300-4" d="M15,12V10H14v1H13v1H12v1h4V12Z"/><path class="wa300-4" d="M19,16H16V15H15V14H14v1H13v1H10v2h1v1h1v1h1V19h3V18h1v1h1V18h1V16Zm-4,1H14V16h1Z"/><path class="wa300-4" d="M13,21h3V20H13Z"/><polygon class="wa300-4" points="19 15 19 16 19 16 20 16 20 15 19 15"/><rect class="wa300-4" x="11" y="10" width="1" height="1"/><rect class="wa300-4" x="10" y="13" width="1" height="1"/><rect class="wa300-4" x="10" y="11" width="1" height="1"/><polygon class="wa300-4" points="18 11 18 10 17 10 17 11 16 11 16 12 18 12 18 11"/><rect class="wa300-2" x="8" y="15" width="1" height="1"/><rect class="wa300-2" x="14" y="16" width="1" height="1"/><path class="wa300-5" d="M19,32H9v1H20V32Z"/><path class="wa300-5" d="M14,29v1h6V28H14Z"/><path class="wa300-5" d="M9,29v1h4V28H9Z"/><path class="wa300-5" d="M9,26H8v1h6V25H10v1Z"/><path class="wa300-5" d="M16,25H15v2h6V26H19V25H16Z"/><path class="wa300-5" d="M6,29v1H7V28H6Z"/><path class="wa300-5" d="M6,26v1H7V25H6Z"/><path class="wa300-5" d="M21,31v2h1V31Z"/><path class="wa300-5" d="M22,29V28H21v2h1Z"/><path class="wa300-5" d="M12,24V22H11v2Z"/><path class="wa300-5" d="M17,23v1h1V22H17Z"/><path class="wa300-6" d="M11,15H10v1h1Z"/><path class="wa300-6" d="M19,15H18v1h1Z"/><rect class="wa300-7" x="18" y="13" width="1" height="1"/><path class="wa300-7" d="M16,12v1h2V12Z"/><rect class="wa300-7" x="11" y="12" width="1" height="1"/><path class="wa300-8" d="M12,22h1v1h3V22h1V21h1V20h1V19h1V16H19v2H18v1H17v1H16v1H13V20H12V19H11V18H10V16H9v3h1v1h1v1h1Z"/><rect class="wa300-2" x="13" y="19" width="3" height="1"/><rect class="wa300-2" x="16" y="18" width="1" height="1"/><path class="wa300-2" d="M9,23V21H8v2Z"/><rect class="wa300-2" x="7" y="20" width="1" height="1"/><rect class="wa300-2" x="5" y="19" width="2" height="1"/><path class="wa300-2" d="M5,22V20H4v3H5Z"/><path class="wa300-4" d="M5,23H6v1H7V23H8V21H7V20H5v3Z"/><polygon class="wa300-9" points="20 15 21 15 21 14 20 14 20 15 20 15"/><path class="wa300-9" d="M10,13h1V12H10V11h1V10h1v1H11v1h2V11h1V10h1v2h1V11h1V10h1v3h1v1h1V13h1V12H20V11h1V9H19V8H18V7H17V6H16V7H15V8H14V7H13V6H12V8H11V7H10V8H8V9H9v1H8v1H9v1H8v2h2Z"/><rect class="wa300-9" x="19" y="7" width="1" height="1"/><path class="wa300-2" d="M11,15v1h2V15h1V14h1v1h1v1h2V15h2V14H18V13H11v1H9v1h2Z"/></svg>