<svg xmlns="http://www.w3.org/2000/svg" viewBox="0 0 29 33"><defs><style>polygon,rect,path{shape-rendering:crispedges;}.ya227-1{fill:#db5a8e;}.ya227-2{fill:#000000;}.ya227-3{fill:#ffa9d0;}.ya227-4{fill:#ce8452;}.ya227-5{fill:#00af68;}.ya227-6{fill:#ffffff;}.ya227-7{fill:#99582c;}.ya227-8{fill:#fad000;}.ya227-9{fill:#99582c;}.ya227-10{fill:#e5ac2e;}.ya227-11{fill:#ff1f4a;}.ya227-12{fill:#00e070;}.ya227-13{fill:#ff1d99;}.ya227-14{fill:#10bcff;}.ya227-15{fill:#6e12ff;}.ya227-16{fill:#900;}.ya227-17{fill:#eaeaea;}</style></defs><path class="ya227-1" d="M0,33H6V27H7V26H8V25h2V24h1V23h1V21H10V20H9V16H8V15H9V8h1V9h1V7h1V8h2V7H13V6h1V5h1V6h1V7H15V8h2V7h1V9h1V8h1v7h1v1H20v4H19v1H17v2h1v1h1v1h2v1h1v1h1v6h6V0H0Z"/><path class="ya227-2" d="M23,27H22v6h1V27Z"/><path class="ya227-3" d="M21,31v2h1V31Z"/><path class="ya227-3" d="M21,28v2h1V27H21Z"/><rect class="ya227-2" x="21" y="26" width="1" height="1"/><path class="ya227-2" d="M21,30V27H20v6h1V30Z"/><path class="ya227-3" d="M20,32V26H18v1H17v1H16v2h1v1H16V30H15v1H14V30H13v1H12V30h1V28H12V27H11V26H9v6h1v1h4V32h1v1h4V32Zm-9-3H10V28h1Zm7,0V28h1v1Z"/><rect class="ya227-3" x="15" y="25" width="1" height="1"/><rect class="ya227-3" x="13" y="25" width="1" height="1"/><rect class="ya227-2" x="14" y="32" width="1" height="1"/><path class="ya227-4" d="M15,24h1V23H13v1h1v1h1Z"/><path class="ya227-2" d="M10,26h1V24H10v1H8v1h2Z"/><path class="ya227-2" d="M9,31V27H8v6H9V31Z"/><path class="ya227-3" d="M7,31v2H8V31Z"/><path class="ya227-3" d="M7,30H8V27H7v3Z"/><rect class="ya227-2" x="7" y="26" width="1" height="1"/><path class="ya227-2" d="M7,30V27H6v6H7V30Z"/><rect class="ya227-5" x="10" y="28" width="1" height="1"/><rect class="ya227-5" x="12" y="30" width="1" height="1"/><rect class="ya227-5" x="16" y="30" width="1" height="1"/><rect class="ya227-5" x="18" y="28" width="1" height="1"/><path class="ya227-5" d="M9,27V26H8v1Z"/><path class="ya227-5" d="M19,32v1h1V32Z"/><path class="ya227-5" d="M9,32v1h1V32Z"/><path class="ya227-5" d="M7,31H8V30H7Z"/><path class="ya227-5" d="M21,31h1V30H21Z"/><path class="ya227-5" d="M20,27h1V26H20Z"/><rect class="ya227-2" x="20" y="15" width="1" height="1"/><path class="ya227-2" d="M19,13v2h1V12H19Z"/><path class="ya227-4" d="M13,22h3V21h1V20h1V18h1V16h1V15H16V13h1V12H13v1H11v1h2v1H9v1h1v2h1v2h1v1h1Zm1-6h1v1H14Zm-2,3V18h1v1h3v1H13V19Z"/><rect class="ya227-4" x="10" y="12" width="1" height="1"/><path class="ya227-4" d="M18,14h1V13H17v1Z"/><path class="ya227-2" d="M19,17h1V16H19Z"/><path class="ya227-2" d="M10,14V12H9v3h1Z"/><path class="ya227-2" d="M10,16H9v1h1Z"/><rect class="ya227-2" x="8" y="15" width="1" height="1"/><rect class="ya227-2" x="14" y="16" width="1" height="1"/><path class="ya227-6" d="M13,15V14H12v1Z"/><path class="ya227-6" d="M10,15h1V14H10Z"/><path class="ya227-6" d="M18,14v1h1V14Z"/><path class="ya227-6" d="M16,14v1h1V14Z"/><path class="ya227-2" d="M12,15V14H11v1Z"/><path class="ya227-2" d="M17,14v1h1V14Z"/><path class="ya227-7" d="M10,14h1V13H10Z"/><path class="ya227-7" d="M11,13h2V12H11Z"/><path class="ya227-7" d="M17,13H16v1h1Z"/><path class="ya227-7" d="M19,12H17v1h2Z"/><rect class="ya227-2" x="14" y="30" width="1" height="1"/><rect class="ya227-2" x="12" y="27" width="1" height="1"/><path class="ya227-2" d="M15,29v1h1V28H15Z"/><rect class="ya227-2" x="16" y="27" width="1" height="1"/><path class="ya227-2" d="M13,28v2h1V28Z"/><rect class="ya227-2" x="17" y="26" width="1" height="1"/><rect class="ya227-2" x="11" y="26" width="1" height="1"/><rect class="ya227-2" x="14" y="25" width="1" height="1"/><rect class="ya227-2" x="13" y="26" width="1" height="1"/><rect class="ya227-2" x="15" y="26" width="1" height="1"/><path class="ya227-2" d="M12,25v1h1V25h1V24H13V23h3v1H15v1h1v1h1V24h1V23H17V21H16v1H13V21H12v2H11v1h1Z"/><rect class="ya227-8" x="16" y="26" width="1" height="1"/><path class="ya227-8" d="M15,27V26H14v1H13v1h1v2h1V28h1V27Z"/><rect class="ya227-8" x="12" y="26" width="1" height="1"/><path class="ya227-8" d="M12,26V24H11v2Z"/><path class="ya227-8" d="M17,25v1h1V24H17Z"/><path class="ya227-2" d="M20,26h1V25H19V24H18v2Z"/><path class="ya227-9" d="M19,18H18v2H17v1h2V20h1V17H19Z"/><path class="ya227-9" d="M11,20V18H10V17H9v3h1v1h2V20Z"/><rect class="ya227-2" x="13" y="19" width="3" height="1"/><rect class="ya227-2" x="12" y="18" width="1" height="1"/><rect class="ya227-1" x="17" y="9" width="1" height="1"/><rect class="ya227-10" x="12" y="10" width="1" height="1"/><rect class="ya227-10" x="16" y="10" width="1" height="1"/><rect class="ya227-1" x="11" y="9" width="1" height="1"/><rect class="ya227-11" x="14" y="10" width="1" height="1"/><rect class="ya227-11" x="13" y="9" width="1" height="1"/><path class="ya227-6" d="M12,7H11V8h1Z"/><path class="ya227-6" d="M13,9V8H12V9Z"/><path class="ya227-6" d="M17,9V8H16V9Z"/><rect class="ya227-6" x="18" y="9" width="1" height="1"/><rect class="ya227-6" x="10" y="9" width="1" height="1"/><path class="ya227-6" d="M10,8H9V9h1Z"/><path class="ya227-6" d="M18,7H17V8h1Z"/><rect class="ya227-8" x="16" y="9" width="1" height="1"/><rect class="ya227-8" x="12" y="9" width="1" height="1"/><rect class="ya227-12" x="11" y="10" width="1" height="1"/><path class="ya227-8" d="M12,8H11V9h1Z"/><path class="ya227-8" d="M18,9V8H17V9Z"/><path class="ya227-13" d="M10,10H9v1h1Z"/><rect class="ya227-14" x="17" y="10" width="1" height="1"/><path class="ya227-8" d="M19,11V10H18v1H16V10H15v1H14V10H13v1H11V10H10v2h9Z"/><path class="ya227-15" d="M19,11h1V10H19Z"/><path class="ya227-6" d="M20,8H19V9h1Z"/><rect class="ya227-11" x="15" y="9" width="1" height="1"/><rect class="ya227-11" x="14" y="8" width="1" height="1"/><rect class="ya227-16" x="14" y="9" width="1" height="1"/><path class="ya227-8" d="M14,9V8H13V9Z"/><path class="ya227-8" d="M16,9V8H15V9Z"/><rect class="ya227-17" x="14" y="6" width="1" height="1"/><rect class="ya227-6" x="14" y="7" width="1" height="1"/><rect class="ya227-6" x="13" y="6" width="1" height="1"/><rect class="ya227-6" x="15" y="6" width="1" height="1"/><rect class="ya227-6" x="14" y="5" width="1" height="1"/><path class="ya227-10" d="M10,11H9v1h1Z"/><path class="ya227-10" d="M19,12h1V11H19Z"/><path class="ya227-10" d="M20,10V9H19v1Z"/><path class="ya227-10" d="M10,9H9v1h1Z"/></svg>