<svg xmlns="http://www.w3.org/2000/svg" viewBox="0 0 29 33"><defs><style>polygon,rect,path{shape-rendering:crispedges;}.qa136-1{fill:#b4bd09;}.qa136-2{fill:#000000;}.qa136-3{fill:#875070;}.qa136-4{fill:#ce8452;}.qa136-5{fill:#663228;}.qa136-6{fill:#ffffff;}.qa136-7{fill:#663228;}.qa136-8{fill:#990000;}</style></defs><rect class="qa136-1" x="10" y="23" width="1" height="1"/><path class="qa136-1" d="M0,33H6V25H7V21h3v1h1V20H10V19H9V17H8V15H7V14H8V12H7V10H8v1H9V9H8V8h2V9h1V8h1V7h1V8h1V7h2V8h1V7h1V8h1V7h1V8H19V9H18v1h2V9h1v2H20v1h2v1H20v1h2v1H21v2H20v2H19v1H18v2h1v1H18v1h1v1h2v1h1v1h1v6h6V0H0Z"/><path class="qa136-2" d="M23,27H22v6h1V27Z"/><path class="qa136-3" d="M22,27H21v6h1V27Z"/><rect class="qa136-2" x="21" y="26" width="1" height="1"/><path class="qa136-2" d="M21,27H20v6h1V27Z"/><path class="qa136-3" d="M20,27h1V26H19V25H18V24H16v1h1v5H16V25H13v5H12V25h1V24H11v1H10v1H9v7H20V27Z"/><path class="qa136-2" d="M20,26h1V25H19v1Z"/><rect class="qa136-2" x="18" y="24" width="1" height="1"/><rect class="qa136-2" x="18" y="22" width="1" height="1"/><rect class="qa136-3" x="17" y="22" width="1" height="1"/><path class="qa136-2" d="M13,24v1h3V24H13Z"/><path class="qa136-4" d="M15,23H13v1h3V23Z"/><rect class="qa136-3" x="11" y="22" width="1" height="1"/><rect class="qa136-2" x="10" y="24" width="1" height="1"/><rect class="qa136-2" x="10" y="22" width="1" height="1"/><path class="qa136-2" d="M9,26H8v7H9V26Z"/><path class="qa136-3" d="M8,27H7v6H8V27Z"/><path class="qa136-4" d="M8,27V26H9V25H7v2Z"/><path class="qa136-2" d="M7,27V25H6v8H7V27Z"/><path class="qa136-2" d="M12,26v4h1V25H12Z"/><path class="qa136-2" d="M16,30h1V25H16v5Z"/><path class="qa136-4" d="M12,21h1v1h3V21h1V20h1V19h1V16h1V15H19V13H17v1h1v1H16v1H15v1H14V16H13V15H11V14H10v1H9v1h1v3h1v1h1Zm0-3h5v1H16v1H13V19H12Z"/><rect class="qa136-4" x="15" y="10" width="1" height="1"/><path class="qa136-2" d="M19,16v3h1V16Z"/><rect class="qa136-2" x="18" y="19" width="1" height="1"/><path class="qa136-2" d="M12,23H11v1h2V23h3v1h2V23H17V22h1V20H17v1H16v1H13V21H12V20H11v2h1Z"/><rect class="qa136-2" x="10" y="19" width="1" height="1"/><rect class="qa136-2" x="9" y="13" width="1" height="1"/><path class="qa136-2" d="M10,16H9v3h1V16Z"/><path class="qa136-5" d="M18,15V14H17v1Z"/><rect class="qa136-5" x="16" y="13" width="1" height="1"/><rect class="qa136-2" x="14" y="14" width="1" height="1"/><path class="qa136-6" d="M16,13H13v1H12v1h1v1h3V15h1V14H16Zm-1,2H14V14h1Z"/><path class="qa136-5" d="M16,12H14v1h2Z"/><rect class="qa136-5" x="12" y="13" width="1" height="1"/><path class="qa136-5" d="M11,14v1h1V14Z"/><path class="qa136-2" d="M14,17h1V16H14Z"/><path class="qa136-4" d="M13,12H12V11H11v2h2Z"/><rect class="qa136-4" x="16" y="12" width="1" height="1"/><path class="qa136-7" d="M16,19V18H12v1h4Z"/><path class="qa136-2" d="M13,20h3V19H13Z"/><rect class="qa136-2" x="16" y="18" width="1" height="1"/><path class="qa136-8" d="M9,15h1V14H9V13h1v1h2V13H11V11h1v1h1v1h1V12h3v1h2v2h1v2h1V15h1V14H20V13h2V12H20V11h1V9H20v1H18V9h1V8H18V7H17V8H16V7H14V8H13V7H12V8H11V9H10V8H8V9H9v2H8V10H7v2H8v2H7v1H8v2H9V15Zm6-5h1v1H15Z"/><rect class="qa136-8" x="19" y="7" width="1" height="1"/><rect class="qa136-2" x="8" y="22" width="1" height="1"/><path class="qa136-6" d="M9,26h1V21H7v4H9ZM8,23V22H9v1Z"/></svg>