<svg xmlns="http://www.w3.org/2000/svg" viewBox="0 0 29 33"><defs><style>polygon,rect,path{shape-rendering:crispedges;}.hb115-1{fill:#b4bd09;}.hb115-2{fill:#000000;}.hb115-3{fill:#e8b795;}.hb115-4{fill:#ffffff;}.hb115-5{fill:#316a6d;}.hb115-6{fill:#316a6d;}.hb115-7{fill:#cc3232;}.hb115-8{fill:#455054;}.hb115-9{fill:#94d4ff;}.hb115-10{fill:#e5ac2e;}</style></defs><path class="hb115-1" d="M0,33H8V32H6V31H5V22H6V21H7V20H5v1H2V17H5V16H8V15H9V11h1V10H9V9h1V8h2V7h1V8h3V9h1V8h1V9h1v1h1v5h1v1H20v4H19v1H18v1H17v2h2v1h2v1h1v1h1v6h6V0H0Z"/><rect class="hb115-1" x="12" y="8" width="1" height="1"/><path class="hb115-1" d="M8,18v4H9v2H8v1h2V24h2V22H11V21H10V20H9V16H8v2Z"/><path class="hb115-2" d="M6,22H5v9H6V22Z"/><path class="hb115-2" d="M23,27H22v6h1V27Z"/><path class="hb115-3" d="M22,27H21v6h1V27Z"/><rect class="hb115-2" x="21" y="26" width="1" height="1"/><path class="hb115-2" d="M21,27H20v6h1V27Z"/><path class="hb115-3" d="M20,27h1V26H19V25H17V24H16V23H13v1H12v1H10v1H8v1H9v6h5V29h1v4h5V27Zm-8,2H11V28h1Zm6,0H17V28h1Z"/><path class="hb115-2" d="M20,26h1V25H19v1Z"/><rect class="hb115-2" x="17" y="28" width="1" height="1"/><path class="hb115-2" d="M18,25h1V24H17v1Z"/><path class="hb115-2" d="M16,24h1V23H16Z"/><path class="hb115-2" d="M15,29H14v4h1V29Z"/><path class="hb115-2" d="M12,24h1V23H12Z"/><rect class="hb115-2" x="11" y="28" width="1" height="1"/><path class="hb115-2" d="M10,25h2V24H10Z"/><path class="hb115-2" d="M9,27H8V26h2V25H8V24H7v7H6v1H8v1H9V27Z"/><path class="hb115-3" d="M7,30V24H8V22H6v9H7Z"/><rect class="hb115-2" x="20" y="15" width="1" height="1"/><rect class="hb115-3" x="10" y="12" width="1" height="1"/><rect class="hb115-3" x="19" y="15" width="1" height="1"/><path class="hb115-3" d="M11,17v1h1v1h1V18h5V17h1V16H16V14h2V13H16V12h2V11H17V10H16v1H11v1h2v1H11v1h2v2H10v1Zm3-1h1v1H14Z"/><rect class="hb115-3" x="18" y="12" width="1" height="1"/><rect class="hb115-3" x="9" y="15" width="1" height="1"/><path class="hb115-2" d="M10,14H9v1h1Z"/><rect class="hb115-2" x="8" y="15" width="1" height="1"/><rect class="hb115-2" x="14" y="16" width="1" height="1"/><path class="hb115-4" d="M11,15V14H10v2h1Z"/><path class="hb115-4" d="M13,16V14H12v2Z"/><path class="hb115-4" d="M16,14v2h1V14Z"/><path class="hb115-4" d="M18,15v1h1V14H18Z"/><path class="hb115-2" d="M11,16h1V14H11v2Z"/><path class="hb115-2" d="M18,14H17v2h1V14Z"/><rect class="hb115-5" x="18" y="13" width="1" height="1"/><rect class="hb115-5" x="16" y="12" width="2" height="1"/><rect class="hb115-5" x="10" y="13" width="1" height="1"/><rect class="hb115-5" x="11" y="12" width="2" height="1"/><path class="hb115-6" d="M15,18H13v1h3V18Z"/><path class="hb115-6" d="M19,17H18v1H17v1H16v1H13V19H12V18H11V17H10V16H9v4h1v1h1v1h1v1h5V22h1V21h1V20h1V16H19Z"/><rect class="hb115-2" x="13" y="19" width="3" height="1"/><path class="hb115-2" d="M16,19h1V18H16Z"/><path class="hb115-7" d="M10,13V12h1V11h5V10h1v1h1v1h1v3h1V10H19V9H18V8H17V9H16V8H13V9H12V8H10V9H9v1h1v1H9v3h1Z"/><rect class="hb115-7" x="12" y="7" width="1" height="1"/><path class="hb115-8" d="M8,22V20H7v2Z"/><path class="hb115-2" d="M7,21H6v1H7Z"/><path class="hb115-2" d="M9,22H8v2H9Z"/><path class="hb115-4" d="M4,19V18H2v2H5V19Z"/><path class="hb115-4" d="M6,18v1H8V17H5v1Z"/><path class="hb115-9" d="M5,18V17H2v1H5Z"/><path class="hb115-9" d="M2,20v1H5V20H2Z"/><path class="hb115-9" d="M8,17V16H5v1H8Z"/><path class="hb115-9" d="M8,19H5v1H8Z"/><path class="hb115-10" d="M5,18H4v1H6V18Z"/></svg>