<svg xmlns="http://www.w3.org/2000/svg" viewBox="0 0 29 33"><defs><style>polygon,rect,path{shape-rendering:crispedges;}.ya256-1{fill:#d4a122;}.ya256-2{fill:#000000;}.ya256-3{fill:#cc2f76;}.ya256-4{fill:#efcaaf;}.ya256-5{fill:#ffffff;}.ya256-6{fill:#ffffff;}.ya256-7{fill:#6f7032;}.ya256-8{fill:#6f7032;}.ya256-9{fill:#ff1f4a;}.ya256-10{fill:#560000;}.ya256-11{fill:#db5800;}.ya256-12{fill:#ccc;}</style></defs><path class="ya256-1" d="M0,33H6V27H7V26H8V24H6V23H5V21H4V20H3V19H8v1H9v2h1v2h1V23h1V21H11V20H10V19H9V16H8V15H9V11h1V10h1V9h7v1h1v1h1v4h1v1H20v3H19v1H18v1H17v2h1v1h1V22h1V20h1V19h5v1H25v1H24v2H23v1H21v2h1v1h1v6h6V0H0Z"/><path class="ya256-2" d="M23,27H22v6h1V27Z"/><path class="ya256-3" d="M21,31v2h1V31Z"/><path class="ya256-3" d="M21,28v2h1V27H21Z"/><rect class="ya256-2" x="21" y="26" width="1" height="1"/><path class="ya256-2" d="M21,30V27H20v6h1V30Z"/><path class="ya256-3" d="M20,32V26H19V25H18v1H17v1H16V25H15v2H14V25H13v2H12V26H11V25H10v1H9v6h1v1h4V32h1v1h4V32Zm-9-3H10V28h1Zm2,2H12V30h1Zm2,0H14V30h1Zm0-2H14V28h1Zm2,2H16V30h1Zm1-2V28h1v1Z"/><path class="ya256-2" d="M19,25v1h2V25H19Z"/><rect class="ya256-3" x="16" y="24" width="1" height="1"/><rect class="ya256-2" x="15" y="24" width="1" height="1"/><rect class="ya256-2" x="14" y="32" width="1" height="1"/><rect class="ya256-2" x="14" y="30" width="1" height="1"/><rect class="ya256-2" x="14" y="28" width="1" height="1"/><path class="ya256-2" d="M14,26v1h1V25H14Z"/><rect class="ya256-2" x="13" y="24" width="1" height="1"/><path class="ya256-4" d="M16,24V23H13v1h1v1h1V24Z"/><rect class="ya256-3" x="12" y="24" width="1" height="1"/><path class="ya256-2" d="M11,25v1h2V25H12V24h1V22H12v1H11v1H10v1Z"/><path class="ya256-2" d="M10,26V25H8v1h2Z"/><path class="ya256-2" d="M9,31V27H8v6H9V31Z"/><path class="ya256-3" d="M7,30H8V27H7v3Z"/><path class="ya256-3" d="M7,31v2H8V31Z"/><rect class="ya256-2" x="7" y="26" width="1" height="1"/><path class="ya256-2" d="M7,30V27H6v6H7V30Z"/><rect class="ya256-5" x="10" y="28" width="1" height="1"/><rect class="ya256-5" x="12" y="30" width="1" height="1"/><path class="ya256-5" d="M12,27h1V26H12Z"/><rect class="ya256-5" x="16" y="30" width="1" height="1"/><rect class="ya256-5" x="18" y="28" width="1" height="1"/><path class="ya256-5" d="M16,27h1V26H16Z"/><path class="ya256-5" d="M9,27V26H8v1Z"/><path class="ya256-5" d="M19,32v1h1V32Z"/><path class="ya256-5" d="M9,32v1h1V32Z"/><path class="ya256-5" d="M7,31H8V30H7Z"/><path class="ya256-5" d="M21,31h1V30H21Z"/><path class="ya256-5" d="M20,27h1V26H20Z"/><rect class="ya256-2" x="20" y="15" width="1" height="1"/><path class="ya256-2" d="M19,13v2h1V12H19Z"/><path class="ya256-4" d="M13,21h3V20H13Z"/><rect class="ya256-4" x="17" y="10" width="1" height="1"/><path class="ya256-4" d="M18,12H17V11H16V10H15v5H14v1h1v1H14V16H13v1H11V16H10v2h1v1h1v1h1V19h3V18h1v1h1V18h1V16h1V15H16V13h3V11H18Z"/><rect class="ya256-4" x="9" y="15" width="1" height="1"/><rect class="ya256-4" x="16" y="19" width="1" height="1"/><path class="ya256-2" d="M16,23v1h1v1H16v1h2V25h1V24H18V23H17V22H16Z"/><rect class="ya256-2" x="8" y="15" width="1" height="1"/><rect class="ya256-2" x="14" y="16" width="1" height="1"/><path class="ya256-6" d="M18,14v1h1V14Z"/><path class="ya256-2" d="M17,14H16v1h2V14Z"/><path class="ya256-7" d="M18,14h1V13H16v1h2Z"/><path class="ya256-8" d="M13,23h3V22h1V21h1V20h1V19h1V16H19v2H18v1H17v1H16v1H13V20H12V19H11V18H10V16H9v3h1v1h1v1h1v1h1Z"/><rect class="ya256-2" x="13" y="19" width="3" height="1"/><rect class="ya256-2" x="16" y="18" width="1" height="1"/><path class="ya256-9" d="M12,15h1V13H11v2Z"/><path class="ya256-10" d="M13,13v2h1V13Z"/><path class="ya256-10" d="M12,15H11v1h2V15Z"/><path class="ya256-10" d="M11,13H10v2h1Z"/><path class="ya256-10" d="M13,12H11v1h2Z"/><rect class="ya256-2" x="10" y="15" width="1" height="1"/><rect class="ya256-2" x="11" y="16" width="2" height="1"/><rect class="ya256-2" x="13" y="15" width="1" height="1"/><path class="ya256-2" d="M13,12v1h1v2h1V10H13v1H12v1Z"/><rect class="ya256-2" x="11" y="10" width="1" height="1"/><path class="ya256-2" d="M10,14V13h1V11H10v1H9v3h1Z"/><path class="ya256-11" d="M20,12V11H19v1Z"/><rect class="ya256-11" x="18" y="10" width="1" height="1"/><path class="ya256-11" d="M12,11h1V10h3v1h1V10h1V9H11v1h1Z"/><rect class="ya256-11" x="17" y="11" width="1" height="1"/><path class="ya256-11" d="M12,11H11v1h1Z"/><rect class="ya256-11" x="10" y="10" width="1" height="1"/><path class="ya256-11" d="M10,11H9v1h1Z"/><path class="ya256-6" d="M10,22H9V20H8V19H3v1H7v1H5v1H8v1H6v1h4Z"/><path class="ya256-12" d="M8,22H5v1H8Z"/><path class="ya256-12" d="M7,20H4v1H7Z"/><path class="ya256-12" d="M22,20v1h3V20H22Z"/><path class="ya256-12" d="M21,22v1h3V22H21Z"/><path class="ya256-6" d="M23,24V23H21V22h3V21H22V20h4V19H21v1H20v2H19v2h4Z"/><path class="ya256-12" d="M10,24H8v1h2Z"/><path class="ya256-12" d="M20,25h1V24H19v1Z"/></svg>