<svg xmlns="http://www.w3.org/2000/svg" viewBox="0 0 29 33"><defs><style>polygon,rect,path{shape-rendering:crispedges;}.ma64-1{fill:#29834f;}.ma64-2{fill:#000000;}.ma64-3{fill:#ffffff;}.ma64-4{fill:#ffffff;}.ma64-5{fill:#6d3e35;}.ma64-6{fill:#ffffff;}.ma64-7{fill:#7f5018;}.ma64-8{fill:#990000;}.ma64-9{fill:#a7af69;}</style></defs><path class="ma64-1" d="M0,33H6V27H7V26H8V25h2V24h2V21H10V20H9V16H8V15H9V10h1V9h1V8h7V9h1v1h1v5h1v1H20v4H19v1H17v3h2v1h2v1h1v1h1v6h6V0H0Z"/><path class="ma64-2" d="M23,27H22v6h1V27Z"/><rect class="ma64-2" x="21" y="26" width="1" height="1"/><path class="ma64-3" d="M22,27H21v6h1V27Z"/><path class="ma64-2" d="M21,27H20v6h1V27Z"/><path class="ma64-3" d="M20,27h1V26H19V25H18v8h2V27Z"/><path class="ma64-2" d="M20,26h1V25H19v1Z"/><path class="ma64-2" d="M18,25h1V24H17v1H16v1h1v7h1V25Z"/><path class="ma64-4" d="M17,26H16v1H13V26H12v7h5V26Z"/><path class="ma64-2" d="M13,26v1h3V26H13Z"/><path class="ma64-2" d="M13,23h3v1h1V21H16v1H13V21H12v3h1Z"/><path class="ma64-5" d="M13,25v1h3V25h1V24H16V23H13v1H12v1Z"/><path class="ma64-2" d="M12,26h1V25H12V24H10v1h1v8h1V26Z"/><path class="ma64-3" d="M11,25H10v1H8v1H9v6h2V25Z"/><path class="ma64-2" d="M10,25H8v1h2Z"/><path class="ma64-2" d="M9,27H8v6H9V27Z"/><rect class="ma64-2" x="7" y="26" width="1" height="1"/><path class="ma64-3" d="M8,27H7v6H8V27Z"/><path class="ma64-2" d="M7,27H6v6H7V27Z"/><rect class="ma64-2" x="20" y="15" width="1" height="1"/><path class="ma64-2" d="M19,15h1V14H19Z"/><path class="ma64-5" d="M13,22h3V21h1V20h1V18h1V16h1V15H16V13h3V11H18V10H17v1H14V10H13v1H12V10H11v1H10v1h3v1H10v1h3v1H9v1h1v2h1v2h1v1h1Zm1-6h1v1H14Zm-1,3h3V18h1v1H16v1H13Z"/><path class="ma64-2" d="M19,17h1V16H19Z"/><path class="ma64-2" d="M10,14H9v1h1Z"/><path class="ma64-2" d="M10,16H9v1h1Z"/><rect class="ma64-2" x="8" y="15" width="1" height="1"/><rect class="ma64-2" x="14" y="16" width="1" height="1"/><path class="ma64-6" d="M13,15V14H12v1Z"/><path class="ma64-6" d="M11,15V14H10v1Z"/><path class="ma64-6" d="M18,14v1h1V14Z"/><path class="ma64-6" d="M16,14v1h1V14Z"/><path class="ma64-2" d="M12,15V14H11v1Z"/><path class="ma64-2" d="M17,14v1h1V14Z"/><rect class="ma64-7" x="10" y="12" width="3" height="1"/><path class="ma64-7" d="M18,14h1V13H16v1h2Z"/><path class="ma64-8" d="M19,18H18v2H17v1h2V20h1V17H19Z"/><path class="ma64-8" d="M11,20V18H10V17H9v3h1v1h2V20Z"/><rect class="ma64-2" x="13" y="19" width="3" height="1"/><rect class="ma64-2" x="16" y="18" width="1" height="1"/><path class="ma64-9" d="M10,13V11h1V10h1v1h1V10h1v1h3V10h1v1h1v3h1V10H19V9H18V8H11V9H10v1H9v4h1Z"/></svg>