<svg xmlns="http://www.w3.org/2000/svg" viewBox="0 0 29 33"><defs><style>polygon,rect,path{shape-rendering:crispedges;}.ma268-1{fill:#397d98;}.ma268-2{fill:#000000;}.ma268-3{fill:#875070;}.ma268-4{fill:#00686d;}.ma268-5{fill:#e8b795;}.ma268-6{fill:#5e362f;}.ma268-7{fill:#009b97;}.ma268-8{fill:#a7af69;}</style></defs><rect class="ma268-1" x="12" y="21" width="1"/><path class="ma268-1" d="M0,33H6V27H7V26H8V25h2V24h2V21H11V20H10V19H9V16H8V15H9V11h1V9h1V7h1V6H11V5h2V6h2V7h1V9h2v1h1v1h1v4h1v1H20v3H19v1H18v1H17v3h2v1h2v1h1v1h1v6h6V0H0Z"/><polygon class="ma268-1" points="14 16 15 16 15 16 14 16 14 17 14 17 14 16"/><rect class="ma268-1" x="11" y="20" width="1"/><rect class="ma268-1" x="18" y="19" width="1"/><rect class="ma268-1" x="19" y="16" width="1"/><rect class="ma268-1" x="9" y="16" width="1"/><path class="ma268-1" d="M13,22Z"/><rect class="ma268-1" x="16" y="21" width="1"/><rect class="ma268-1" x="17" y="20" width="1"/><rect class="ma268-1" x="10" y="19" width="1"/><path class="ma268-2" d="M23,27H22v6h1V27Z"/><rect class="ma268-2" x="21" y="26" width="1" height="1"/><path class="ma268-3" d="M22,27H21v6h1V27Z"/><path class="ma268-2" d="M21,27H20v6h1V27Z"/><path class="ma268-3" d="M20,27h1V26H19V25H18v8h2V27Z"/><path class="ma268-2" d="M20,26h1V25H19v1Z"/><path class="ma268-2" d="M18,25h1V24H17v1H16v1h1v7h1V25Z"/><path class="ma268-4" d="M17,26H16v1H13V26H12v7h5V26Z"/><path class="ma268-2" d="M13,26v1h3V26H13Z"/><path class="ma268-2" d="M13,23h3v1h1V21H16v1H13V21H12v3h1Z"/><path class="ma268-5" d="M13,25v1h3V25h1V24H16V23H13v1H12v1Z"/><path class="ma268-2" d="M12,26h1V25H12V24H10v1h1v8h1V26Z"/><path class="ma268-3" d="M11,25H10v1H8v1H9v6h2V25Z"/><path class="ma268-2" d="M10,25H8v1h2Z"/><path class="ma268-2" d="M9,27H8v6H9V27Z"/><rect class="ma268-2" x="7" y="26" width="1" height="1"/><path class="ma268-3" d="M8,27H7v6H8V27Z"/><path class="ma268-2" d="M7,27H6v6H7V27Z"/><polygon class="ma268-2" points="20 16 20 16 21 16 21 15 20 15 20 16 20 16"/><rect class="ma268-5" x="18" y="10"/><path class="ma268-5" d="M9,16h1v3h1v1h1v1h1v1h3V21h1V20h1V19h1V16h1V15H18v1H16V15H15V14H14v1H13v1H11V15H9Zm5,0h1v1H14Zm-2,2h5v1H16v1H13V19H12Z"/><path class="ma268-5" d="M11,13h8V11H18V10H16v1H14V10H11v1H10v2Z"/><path class="ma268-2" d="M19,16v3h1V16Z"/><polygon class="ma268-2" points="18 11 19 11 19 11 19 10 18 10 18 10 18 11"/><polygon class="ma268-2" points="18 19 18 20 18 20 19 20 19 19 18 19 18 19"/><polygon class="ma268-2" points="17 20 17 21 17 21 18 21 18 20 17 20 17 20"/><path class="ma268-2" d="M18,10h0V9H16v1Z"/><path class="ma268-2" d="M13,10V9H11v1Z"/><polygon class="ma268-2" points="12 20 12 20 11 20 11 21 12 21 12 21 12 20"/><path class="ma268-2" d="M11,11V10H10v1h1Z"/><polygon class="ma268-2" points="11 19 11 19 10 19 10 20 11 20 11 20 11 19"/><path class="ma268-2" d="M10,18V16H9v3h1Z"/><polygon class="ma268-2" points="9 15 9 15 8 15 8 16 9 16 9 16 9 15"/><polygon class="ma268-2" points="14 17 14 17 15 17 15 16 15 16 14 16 14 17"/><path class="ma268-6" d="M10,14h1V13H10Z"/><path class="ma268-6" d="M18,14h1V13H18Z"/><path class="ma268-7" d="M16,19V18H12v1h4Z"/><path class="ma268-2" d="M13,20h3V19H13Z"/><path class="ma268-2" d="M17,19V18H16v1Z"/><path class="ma268-8" d="M13,10h1v1h2V7H15V6H13V5H11V6h1V7H11V9h2Z"/><path class="ma268-8" d="M11,9H10v1h1Z"/><path class="ma268-2" d="M11,16h2V15h1V14h1v1h1v1h2V15h2V11H19v3H18V13H11v1H10V11H9v4h2Z"/><rect class="ma268-8" x="10" y="9" width="1" height="1"></rect></svg>