<svg xmlns="http://www.w3.org/2000/svg" viewBox="0 0 29 33"><defs><style>polygon,rect,path{shape-rendering:crispedges;}.ja199-1{fill:#7a982c;}.ja199-2{fill:#000000;}.ja199-3{fill:#b23b00;}.ja199-4{fill:#ff791f;}.ja199-5{fill:#e8b795;}.ja199-6{fill:#ffffff;}.ja199-7{fill:#893a1f;}.ja199-8{fill:#fad000;}.ja199-9{fill:#893a1f;}.ja199-10{fill:#0079bc;}</style></defs><path class="ja199-1" d="M6,32V27H7V26H8V25h2V23h1V22h1V21H11V20H9V18H8V13H9V11h1V10h1V9h7v1h1v1h1v1h1v6H20v2H18v1H17v1h1v1h1v2h2v1h1v1h1v6h6V0H0V33H6Z"/><path class="ja199-2" d="M23,27H22v6h1V27Z"/><rect class="ja199-2" x="21" y="26" width="1" height="1"/><path class="ja199-3" d="M21,31h1V30H21Z"/><path class="ja199-3" d="M21,28h1V27H21Z"/><path class="ja199-2" d="M21,30V27H20v6h1V30Z"/><path class="ja199-2" d="M20,26h1V25H19v1Z"/><path class="ja199-3" d="M13,27H9v1h4Z"/><rect class="ja199-3" x="13" y="24" width="1" height="1"/><path class="ja199-3" d="M14,30H9v1H20V30H14Z"/><path class="ja199-3" d="M16,27v1h4V27H16Z"/><rect class="ja199-3" x="15" y="24" width="1" height="1"/><path class="ja199-2" d="M10,25H8v1h2Z"/><path class="ja199-2" d="M9,30V27H8v6H9V30Z"/><rect class="ja199-2" x="7" y="26" width="1" height="1"/><path class="ja199-3" d="M8,28V27H7v1Z"/><path class="ja199-3" d="M7,31H8V30H7Z"/><path class="ja199-2" d="M7,30V27H6v6H7V30Z"/><path class="ja199-4" d="M9,31v2H20V31Z"/><path class="ja199-4" d="M16,29H15v1h5V28H16Z"/><path class="ja199-4" d="M14,29H13V28H9v2h5Z"/><path class="ja199-4" d="M9,27h3V26H11V25H10v1H8v1Z"/><path class="ja199-4" d="M18,26H17v1h4V26H19V25H18Z"/><path class="ja199-4" d="M15,24h1V23H13v1h2Z"/><path class="ja199-4" d="M7,29v1H8V28H7Z"/><path class="ja199-4" d="M7,31v2H8V31Z"/><path class="ja199-4" d="M21,31v2h1V31Z"/><path class="ja199-4" d="M21,29v1h1V28H21Z"/><rect class="ja199-2" x="19" y="14" width="1" height="1"/><rect class="ja199-5" x="15" y="20" width="1" height="1"/><rect class="ja199-5" x="13" y="20" width="1" height="1"/><rect class="ja199-5" x="19" y="15" width="1" height="1"/><path class="ja199-5" d="M18,15H16v1H15v1H14V16h1V14h1V12H15V11H14v4H13v2H12V15H11v4h1V18h2v1h1V18h2v1h1V15Z"/><rect class="ja199-5" x="11" y="13" width="1" height="1"/><rect class="ja199-5" x="9" y="15" width="1" height="1"/><rect class="ja199-5" x="12" y="12" width="1" height="1"/><rect class="ja199-5" x="17" y="13" width="1" height="1"/><rect class="ja199-5" x="17" y="11" width="1" height="1"/><rect class="ja199-2" x="19" y="16" width="1" height="1"/><path class="ja199-2" d="M16,23v2h1V23h1V22H16Z"/><rect class="ja199-2" x="9" y="16" width="1" height="1"/><rect class="ja199-2" x="14" y="16" width="1" height="1"/><rect class="ja199-6" x="12" y="14" width="1" height="1"/><path class="ja199-6" d="M17,15V14H16v1Z"/><rect class="ja199-2" x="11" y="14" width="1" height="1"/><path class="ja199-2" d="M18,15V14H17v1Z"/><rect class="ja199-7" x="17" y="12" width="1" height="1"/><rect class="ja199-7" x="12" y="13" width="1" height="1"/><rect class="ja199-7" x="11" y="12" width="1" height="1"/><path class="ja199-2" d="M14,30h1V29H14Z"/><path class="ja199-2" d="M13,26H12v1h1Z"/><polygon class="ja199-2" points="15 28 15 29 16 29 16 28 16 27 15 27 15 28"/><rect class="ja199-2" x="16" y="26" width="1" height="1"/><path class="ja199-2" d="M13,27v2h1V27Z"/><rect class="ja199-2" x="17" y="25" width="1" height="1"/><rect class="ja199-2" x="11" y="25" width="1" height="1"/><path class="ja199-2" d="M15,24H14v1h1Z"/><rect class="ja199-2" x="13" y="25" width="1" height="1"/><rect class="ja199-2" x="15" y="25" width="1" height="1"/><path class="ja199-2" d="M12,24v1h1V22H11v1h1Z"/><rect class="ja199-8" x="16" y="25" width="1" height="1"/><path class="ja199-8" d="M15,26V25H14v1H13v1h1v2h1V27h1V26Z"/><rect class="ja199-8" x="12" y="25" width="1" height="1"/><path class="ja199-8" d="M11,25h1V23H11v2Z"/><path class="ja199-8" d="M17,24v1h1V23H17Z"/><path class="ja199-2" d="M19,25V23H18v2Z"/><path class="ja199-2" d="M11,24V23H10v2h1Z"/><rect class="ja199-9" x="19" y="17" width="1" height="1"/><path class="ja199-9" d="M13,23h3V22h1V21h1V20h1V18H18v1H17V18H15v1h1v2H15V20H14v1H13V19h1V18H12v1H11V18H10v2h1v1h1v1h1Z"/><rect class="ja199-9" x="9" y="17" width="1" height="1"/><path class="ja199-2" d="M13,19v1h3V19H13Z"/><path class="ja199-10" d="M9,16V15h1v3h1V12h2v3h1V11h1v1h1v2h1V11h1v7h1V14h1v4h1V12H20V11H19V10H18V9H11v1H10v1H9v2H8v5H9V16Z"/><path class="ja199-10" d="M19,19v1h1V18H19Z"/><path class="ja199-10" d="M15,15v1h1V14H15Z"/><path class="ja199-10" d="M12,16v1h1V15H12Z"/><path class="ja199-10" d="M9,18v2h1V18Z"/></svg>