<svg xmlns="http://www.w3.org/2000/svg" viewBox="0 0 29 33"><defs><style>polygon,rect,path{shape-rendering:crispedges;}.ga249-1{fill:#7a982c;}.ga249-2{fill:#000000;}.ga249-3{fill:#508e5d;}.ga249-4{fill:#ce8452;}.ga249-5{fill:#99004d;}.ga249-6{fill:#99004d;}.ga249-7{fill:#990000;}</style></defs><path class="ga249-1" d="M6,32V27H7V26H8V25h2V24h2V21H10V20H9V18H8V12H9V11h1V10h1V9h7v1h1v1h1v2h1v5H20v2H19v1H17v3h2v1h1V24h1V23h1v1h1v9h6V0H0V33H6Z"/><path class="ga249-2" d="M7,27H6v6H7V27Z"/><rect class="ga249-2" x="7" y="26" width="1" height="1"/><path class="ga249-3" d="M8,27H7v6H8V27Z"/><path class="ga249-2" d="M9,27H8v6H9V27Z"/><path class="ga249-2" d="M10,25H8v1h2Z"/><path class="ga249-3" d="M20,27H19V25H17v1H16v1H13V26H12V25H10v1H8v1H9v6H20V27Z"/><path class="ga249-2" d="M12,24H10v1h2Z"/><path class="ga249-2" d="M13,23h3v1h1V21H16v1H13V21H12v3h1Z"/><rect class="ga249-2" x="12" y="25" width="1" height="1"/><path class="ga249-2" d="M13,26v1h3V26H13Z"/><path class="ga249-4" d="M13,25v1h3V25h1V24H16V23H13v1H12v1Z"/><rect class="ga249-2" x="16" y="25" width="1" height="1"/><path class="ga249-2" d="M18,25h1V24H17v1Z"/><path class="ga249-2" d="M21,27H20v6h1V27Z"/><path class="ga249-3" d="M22,27H21v6h1V27Z"/><path class="ga249-2" d="M23,24H22v9h1V24Z"/><rect class="ga249-4" x="11" y="13" width="1" height="1"/><rect class="ga249-4" x="19" y="15" width="1" height="1"/><rect class="ga249-4" x="11" y="11" width="1" height="1"/><rect class="ga249-4" x="16" y="12" width="1" height="1"/><rect class="ga249-4" x="14" y="15" width="1" height="1"/><path class="ga249-4" d="M15,11H14v1H13v2h2Z"/><rect class="ga249-4" x="9" y="15" width="1" height="1"/><path class="ga249-4" d="M13,22h3V21h1V20h1V17H16V16H15v1H14V16H13v1H11v3h1v1h1Zm-1-3V18h1v1h3v1H13V19Z"/><rect class="ga249-4" x="17" y="13" width="1" height="1"/><rect class="ga249-2" x="19" y="16" width="1" height="1"/><rect class="ga249-2" x="9" y="16" width="1" height="1"/><rect class="ga249-2" x="14" y="16" width="1" height="1"/><rect class="ga249-5" x="11" y="12" width="1" height="1"/><rect class="ga249-5" x="16" y="13" width="1" height="1"/><rect class="ga249-5" x="17" y="12" width="1" height="1"/><path class="ga249-6" d="M19,18H18v2H17v1h2V18Z"/><rect class="ga249-6" x="19" y="17" width="1" height="1"/><path class="ga249-6" d="M11,20V18H10v3h2V20Z"/><rect class="ga249-6" x="9" y="17" width="1" height="1"/><rect class="ga249-2" x="13" y="19" width="3" height="1"/><rect class="ga249-2" x="12" y="18" width="1" height="1"/><path class="ga249-4" d="M21,27h1V24H21v1H20v2Z"/><path class="ga249-2" d="M20,27V25H19v2Z"/><rect class="ga249-2" x="20" y="24" width="1" height="1"/><rect class="ga249-2" x="21" y="23" width="1" height="1"/><path class="ga249-7" d="M9,16V14h2V11h1v3h1V12h1V11h1v3h1V12h2v2h2v4h1V13H20V11H19V10H18V9H11v1H10v1H9v1H8v6H9V16Z"/><path class="ga249-7" d="M19,17V16H18v2h1Z"/><path class="ga249-7" d="M10,16v2h1V16Z"/><path class="ga249-7" d="M9,18v2h1V18Z"/><path class="ga249-7" d="M19,19v1h1V18H19Z"/><path class="ga249-2" d="M19,16V15h1V14H9v1h1v1h1v1h2V16h1V15h1v1h1v1h2V16Z"/></svg>