<svg xmlns="http://www.w3.org/2000/svg" viewBox="0 0 29 33"><defs><style>polygon,rect,path{shape-rendering:crispedges;}.ta194-1{fill:#000000;}.ta194-2{fill:#508e5d;}.ta194-3{fill:#c18d59;}.ta194-4{fill:#ffffff;}.ta194-5{fill:#ffffff;}.ta194-6{fill:#7f5018;}.ta194-7{fill:#db5a8e;}.ta194-8{fill:#7f5018;}</style></defs><path class="ta194-1" d="M23,27H22v6h1V27Z"/><path class="ta194-2" d="M22,27H21v6h1V27Z"/><rect class="ta194-1" x="21" y="26" width="1" height="1"/><path class="ta194-1" d="M21,27H20v6h1V27Z"/><rect class="ta194-2" x="18" y="29" width="1" height="1"/><rect class="ta194-2" x="10" y="29" width="1" height="1"/><path class="ta194-2" d="M16,25h1v4h1V28h1v1h1V27h1V26H19V25H18V24H16Z"/><path class="ta194-2" d="M19,32V31H18v1H17V30H16v1H15v1H13V30H12v2H11V31H10v1H9v1H20V32Z"/><path class="ta194-2" d="M9,27v2h1V28h1v1h1V25h1V24H11v1H10v1H8v1Z"/><path class="ta194-1" d="M20,26h1V25H19v1Z"/><rect class="ta194-1" x="18" y="24" width="1" height="1"/><path class="ta194-1" d="M16,24h2V23H16Z"/><path class="ta194-1" d="M16,25V24H13v1h3Z"/><path class="ta194-3" d="M16,24V23H13v1h3Z"/><path class="ta194-1" d="M13,23H11v1h2Z"/><rect class="ta194-1" x="10" y="24" width="1" height="1"/><path class="ta194-1" d="M10,25H8v1h2Z"/><path class="ta194-1" d="M9,31V27H8v6H9V31Z"/><path class="ta194-2" d="M8,27H7v6H8V27Z"/><rect class="ta194-1" x="7" y="26" width="1" height="1"/><path class="ta194-1" d="M7,27H6v6H7V27Z"/><path class="ta194-2" d="M14,29v2h1V29Z"/><path class="ta194-2" d="M13,28h2v1h1V25H13v3Z"/><path class="ta194-4" d="M19,30H18V29H17v3h1V31h1v1h1V29H19Z"/><rect class="ta194-4" x="18" y="28" width="1" height="1"/><path class="ta194-4" d="M15,29v2h1V29Z"/><path class="ta194-4" d="M14,30V29h1V28H13v4h2V31H14Z"/><path class="ta194-4" d="M11,29v1H10V29H9v3h1V31h1v1h1V29Z"/><rect class="ta194-4" x="10" y="28" width="1" height="1"/><path class="ta194-1" d="M13,27V25H12v5h1V27Z"/><path class="ta194-1" d="M17,28V25H16v5h1V28Z"/><path class="ta194-3" d="M16,22V21h1V20h1V18h1V15H16V13h3V12H17V11H12v1h1v1H10v1h3v1H10v3h1v2h1v1h1v1h3Zm-2-6h1v1H14Zm-1,3h3V18h1v1H16v1H13Z"/><rect class="ta194-1" x="14" y="16" width="1" height="1"/><path class="ta194-5" d="M13,15V14H12v1Z"/><path class="ta194-5" d="M11,15V14H10v1Z"/><path class="ta194-5" d="M18,14v1h1V14Z"/><path class="ta194-5" d="M16,14v1h1V14Z"/><path class="ta194-1" d="M12,15V14H11v1Z"/><path class="ta194-1" d="M17,14v1h1V14Z"/><path class="ta194-6" d="M13,13V12H10v1Z"/><path class="ta194-6" d="M18,14h1V13H16v1h2Z"/><rect class="ta194-2" x="9" y="20" width="1" height="1"/><rect class="ta194-2" x="19" y="20" width="1" height="1"/><path class="ta194-2" d="M18,21H17v1H16v1h2V22h1V21Z"/><path class="ta194-2" d="M9,19V12h1V11h2V10h5v1h2v1h1v8h1V11H20V10H19V9H18V8H11V9H10v1H9v1H8v9H9Z"/><path class="ta194-2" d="M13,22H12V21H10v1h1v1h2Z"/><rect class="ta194-1" x="10" y="8" width="1" height="1"/><rect class="ta194-1" x="9" y="9" width="1" height="1"/><rect class="ta194-1" x="8" y="10" width="1" height="1"/><path class="ta194-1" d="M8,11H7v9H8V11Z"/><rect class="ta194-1" x="8" y="20" width="1" height="1"/><rect class="ta194-1" x="9" y="21" width="1" height="1"/><rect class="ta194-1" x="10" y="22" width="1" height="1"/><rect class="ta194-1" x="18" y="22" width="1" height="1"/><rect class="ta194-1" x="19" y="21" width="1" height="1"/><rect class="ta194-1" x="20" y="20" width="1" height="1"/><path class="ta194-1" d="M21,20h1V11H21v9Z"/><rect class="ta194-1" x="20" y="10" width="1" height="1"/><rect class="ta194-1" x="19" y="9" width="1" height="1"/><rect class="ta194-1" x="18" y="8" width="1" height="1"/><path class="ta194-1" d="M18,8V7H11V8h7Z"/><path class="ta194-1" d="M12,11H10v1h2Z"/><path class="ta194-1" d="M10,16V12H9v5h1Z"/><rect class="ta194-1" x="12" y="21" width="1" height="1"/><path class="ta194-1" d="M16,23V22H13v1h3Z"/><rect class="ta194-1" x="16" y="21" width="1" height="1"/><path class="ta194-1" d="M19,14v3h1V12H19v2Z"/><path class="ta194-1" d="M18,12h1V11H17v1Z"/><path class="ta194-1" d="M17,11V10H12v1h5Z"/><path class="ta194-7" d="M0,7V33H6V27H7V26H8V25h2V24h1V23H10V22H9V21H8V20H7V11H8V10H9V9h1V8h1V7h7V8h1V9h1v1h1v1h1v9H21v1H20v1H19v1H18v1h1v1h2v1h1v1h1v6h6V0H0Z"/><path class="ta194-8" d="M19,18H18v2H17v1h2V20h1V17H19Z"/><path class="ta194-8" d="M11,20V18H10V17H9v3h1v1h2V20Z"/><rect class="ta194-1" x="13" y="19" width="3" height="1"/><rect class="ta194-1" x="16" y="18" width="1" height="1"/></svg>