<svg xmlns="http://www.w3.org/2000/svg" viewBox="0 0 29 33"><defs><style>polygon,rect,path{shape-rendering:crispedges;}.ca236-1{fill:#7a982c;}.ca236-2{fill:#000000;}.ca236-3{fill:#a56e49;}.ca236-4{fill:#685432;}.ca236-5{fill:#a89969;}.ca236-6{fill:#ffffff;}.ca236-7{fill:#8e4717;}.ca236-8{fill:#e70059;}.ca236-9{fill:#990000;}</style></defs><path class="ca236-1" d="M0,33H6V27H7V26H8V25h2V24h2V21H11V20H10V19H9V16H8V15H9V10h1V9h1V8h7V9h1v1h1v2h1v6H20v1H19v1H18v1H17v3h2v1h2v1h1v1h1v6h6V0H0Z"/><path class="ca236-2" d="M23,27H22v6h1V27Z"/><rect class="ca236-2" x="21" y="26" width="1" height="1"/><path class="ca236-3" d="M22,27H21v6h1V27Z"/><rect class="ca236-3" x="20" y="26" width="1" height="1"/><path class="ca236-2" d="M21,27H20v6h1V27Z"/><path class="ca236-2" d="M20,26h1V25H19v1Z"/><path class="ca236-4" d="M20,27V26H19V25H18v1H17v1H16v1H13V27H12V26H11V25H10v1H9v7h1V29h1v4h1V29h3v4h1V29h3v1H17v2h1V31h1v2h1V27Z"/><rect class="ca236-4" x="13" y="30" width="1" height="2"/><path class="ca236-2" d="M18,26V25h1V24H17v2Z"/><rect class="ca236-2" x="16" y="26" width="1" height="1"/><path class="ca236-2" d="M13,27v1h3V27H13Z"/><path class="ca236-2" d="M13,23h3v1h1V21H16v1H13V21H12v3h1Z"/><path class="ca236-3" d="M13,26v1h3V26h1V24H16V23H13v1H12v2Z"/><rect class="ca236-2" x="12" y="26" width="1" height="1"/><path class="ca236-2" d="M11,26h1V24H10v1h1Z"/><path class="ca236-2" d="M10,26V25H8v1h2Z"/><path class="ca236-3" d="M9,27V26H8v1Z"/><path class="ca236-2" d="M9,27H8v6H9V27Z"/><rect class="ca236-2" x="7" y="26" width="1" height="1"/><path class="ca236-3" d="M8,27H7v6H8V27Z"/><path class="ca236-2" d="M7,27H6v6H7V27Z"/><path class="ca236-5" d="M12,29v4h3V29Zm2,3H13V30h1Z"/><path class="ca236-5" d="M11,29H10v4h1V29Z"/><path class="ca236-5" d="M18,31v1H17V30h2V29H16v4h3V31Z"/><rect class="ca236-3" x="19" y="15" width="1" height="1"/><rect class="ca236-3" x="9" y="15" width="1" height="1"/><path class="ca236-3" d="M18,14V13H16v1h2Z"/><path class="ca236-3" d="M16,13V12H15V11H13V10H11v1H10v1h2v1h1v1h1V13Z"/><path class="ca236-3" d="M12,13H10v1h2Z"/><path class="ca236-3" d="M13,22h3V21h1V20h1V19h1V16H16V14H14v2h1v1H14V16H13v1H11V16H10v3h1v1h1v1h1Zm-1-3V18h5v1H16v1H13V19Z"/><path class="ca236-2" d="M19,16v3h1V16Z"/><rect class="ca236-2" x="18" y="19" width="1" height="1"/><rect class="ca236-2" x="17" y="20" width="1" height="1"/><rect class="ca236-2" x="11" y="20" width="1" height="1"/><rect class="ca236-2" x="10" y="19" width="1" height="1"/><path class="ca236-2" d="M10,16H9v3h1V16Z"/><rect class="ca236-2" x="8" y="15" width="1" height="1"/><rect class="ca236-2" x="14" y="16" width="1" height="1"/><path class="ca236-6" d="M16,14v2h1V14Z"/><path class="ca236-6" d="M19,14H18v2h1V14Z"/><path class="ca236-2" d="M17,14v2h1V14Z"/><rect class="ca236-7" x="12" y="13" width="1" height="1"/><rect class="ca236-7" x="10" y="12" width="2" height="1"/><path class="ca236-2" d="M13,18H12v1h1Z"/><path class="ca236-2" d="M17,19V18H16v1Z"/><path class="ca236-2" d="M15,20h1V19H15Z"/><path class="ca236-2" d="M15,19V18H14v1Z"/><path class="ca236-2" d="M13,19v1h1V19Z"/><path class="ca236-6" d="M14,19V18H13v1Z"/><path class="ca236-6" d="M16,19V18H15v1Z"/><path class="ca236-8" d="M14,19v1h1V19Z"/><path class="ca236-9" d="M19,12H18v2h1v1h1v3h1V12H20V11H19Z"/><path class="ca236-9" d="M10,14H9v1h1Z"/><path class="ca236-9" d="M10,12V11h1V10h2v1h2v1h3V11h1V9H18V8H11V9H10v1H9v3h1Z"/><path class="ca236-2" d="M12,14H10v2h1v1h2V16h1V14H12Z"/><rect class="ca236-2" x="14" y="13" width="2" height="1"/><path class="ca236-2" d="M18,13V12H16v1Z"/><rect class="ca236-2" x="18" y="11" width="1" height="1"/><path class="ca236-2" d="M20,11V10H19v1Z"/><path class="ca236-2" d="M10,13H9v1h1Z"/></svg>