<svg xmlns="http://www.w3.org/2000/svg" viewBox="0 0 29 33"><defs><style>polygon,rect,path{shape-rendering:crispedges;}.na25-1{fill:#6b4f99;}.na25-2{fill:#000000;}.na25-3{fill:#ff1d99;}.na25-4{fill:#db5800;}.na25-5{fill:#ffffff;}.na25-6{fill:#b2622b;}.na25-7{fill:#0068ff;}.na25-8{fill:#ffffff;}.na25-9{fill:#0068ff;}.na25-10{fill:#ff1f4a;}.na25-11{fill:#a3531d;}.na25-12{fill:#c3b3ce;}</style></defs><path class="na25-1" d="M19,25h2V24H19Z"/><path class="na25-1" d="M6,27H7V26H8V25h2V24h2V22H11V21H10V20H9V17H8V15H9V11h1V10h1V9h7v1h1v1h1v4h1v2H20v3H19v1h3v1h1v1h1v8H23v1H21v1h8V0H0V33H6V27Z"/><path class="na25-2" d="M23,25v6h1V23H23v2Z"/><path class="na25-2" d="M7,32V27H6v6H7Z"/><path class="na25-3" d="M8,30V29H7v2H8Z"/><rect class="na25-3" x="7" y="32" width="1" height="1"/><path class="na25-3" d="M8,27H7v1H8Z"/><rect class="na25-2" x="7" y="26" width="1" height="1"/><path class="na25-2" d="M9,31V27H8v6H9V31Z"/><path class="na25-3" d="M9,32v1h1V32Z"/><path class="na25-3" d="M9,27v1h1v1H9v2h1V30h1V27H10V26H8v1Z"/><path class="na25-2" d="M10,25H8v1h2Z"/><path class="na25-4" d="M17,26H16v1H13V26H12v7h5V26Z"/><path class="na25-2" d="M18,30V25h1V24H17V22h1V21h1V20h1V17h1V15H20v1H15V15H14v1H9V15H8v2H9v3h1v1h1v1h1v2H10v1h1v8h1V26h1v1h3V26h1v7h1V30Zm-2-9H13V20h3Z"/><rect class="na25-3" x="19" y="32" width="1" height="1"/><path class="na25-3" d="M18,27v3h1v1h1V29H19V28h1V27h1V26H19v1Z"/><path class="na25-2" d="M22,32h1V31H22V24H21v1H19v1h2v1H20v6h1V32Z"/><path class="na25-3" d="M23,29V27H22v3h1Z"/><path class="na25-5" d="M20,32V31H19V30H18v3h1V32Z"/><path class="na25-5" d="M22,30v1h1V30Z"/><path class="na25-5" d="M23,26V24H22v3h1Z"/><path class="na25-5" d="M18,26v1h1V25H18Z"/><path class="na25-5" d="M10,27h1V25H10v2Z"/><path class="na25-5" d="M19,29h1V28H19Z"/><path class="na25-5" d="M8,28H7v1H8Z"/><path class="na25-5" d="M10,28H9v1h1Z"/><path class="na25-5" d="M8,31H7v1H8Z"/><path class="na25-5" d="M11,30H10v1H9v1h1v1h1V30Z"/><path class="na25-6" d="M13,21h3V20H13Z"/><rect class="na25-7" x="18" y="10" width="1"/><path class="na25-7" d="M17,9Z"/><rect class="na25-7" x="19" y="11" width="1"/><path class="na25-1" d="M18,22H17v2h2V21H18Z"/><path class="na25-2" d="M14,13v1h1V13h5V11H19V10H18V9H11v1H10v1H9v2h5Z"/><path class="na25-8" d="M14,16V15h1v1h5V13H15v1H14V13H9v3Zm2-2h3v1H16Zm-6,0h3v1H10Z"/><path class="na25-9" d="M19,15V14H16v1h3Z"/><path class="na25-10" d="M13,15V14H10v1h3Z"/><path class="na25-11" d="M20,23H19v1h2V23Z"/><path class="na25-12" d="M20,23h2V21H19v2Z"/><path class="na25-6" d="M21,23v1h2V23H21Z"/><path class="na25-2" d="M23,23V22H22v1Z"/></svg>