<svg xmlns="http://www.w3.org/2000/svg" viewBox="0 0 29 33"><defs><style>polygon,rect,path{shape-rendering:crispedges;}.ya101-1{fill:#397d98;}.ya101-2{fill:#000000;}.ya101-3{fill:#333333;}.ya101-4{fill:#efcaaf;}.ya101-5{fill:#ffffff;}.ya101-6{fill:#7f5018;}.ya101-7{fill:#7f5018;}.ya101-8{fill:#c8a715;}.ya101-9{fill:#00e070;}.ya101-10{fill:#fafafa;}</style></defs><rect class="ya101-1" x="11" y="22" width="1" height="1"/><rect class="ya101-1" x="17" y="22" width="1" height="1"/><rect class="ya101-1" x="19" y="20" width="1" height="1"/><path class="ya101-1" d="M0,33H6V27H7V26H8V25h2V20H9V16H8V15H9V10h1V9h1V8h7V9h1v2h1v4h1v1H20v4h4v1h1v1h1v4H25v1H24v1H23v5h6V0H0Z"/><path class="ya101-2" d="M23,28h1V27H20v6h1V28h1v5h1V28Z"/><path class="ya101-3" d="M22,28H21v5h1V28Z"/><path class="ya101-3" d="M20,27H19V25H18v1H16V25H15v2H14V25H13v1H11V25H10v1H8v1H9v6h5V32h1v1h5V27Zm-5,4H14V30h1Zm0-2H14V28h1Z"/><rect class="ya101-2" x="15" y="24" width="1" height="1"/><rect class="ya101-2" x="14" y="32" width="1" height="1"/><rect class="ya101-2" x="14" y="30" width="1" height="1"/><rect class="ya101-2" x="14" y="28" width="1" height="1"/><path class="ya101-2" d="M14,26v1h1V25H14Z"/><rect class="ya101-2" x="13" y="24" width="1" height="1"/><path class="ya101-4" d="M16,24V23H13v1h1v1h1V24Z"/><path class="ya101-2" d="M11,26h2V25H12V23H11v1H10v1h1Z"/><path class="ya101-2" d="M10,25H8v1h2Z"/><path class="ya101-2" d="M9,27H8v6H9V27Z"/><path class="ya101-3" d="M8,27H7v6H8V27Z"/><rect class="ya101-2" x="7" y="26" width="1" height="1"/><path class="ya101-2" d="M7,27H6v6H7V27Z"/><rect class="ya101-2" x="20" y="15" width="1" height="1"/><path class="ya101-2" d="M19,13v2h1V11H19v2Z"/><polygon class="ya101-4" points="13 21 14 21 14 22 15 22 15 21 16 21 16 20 13 20 13 21"/><path class="ya101-4" d="M18,14h1V13H17v1Z"/><path class="ya101-4" d="M10,17v1h1v1h1V18h2v1h1V18h2v1h1V18h1V16h1V15H16V13h1V12h2V11H18V10H17v1H16V10H15v1H14V10H13v1H12V10H11v1H10v2h1V12h2v1H11v1h2v1H9v1h1Zm4-1h1v1H14Z"/><path class="ya101-2" d="M19,17h1V16H19Z"/><rect class="ya101-2" x="15" y="9" width="1" height="1"/><rect class="ya101-2" x="13" y="9" width="1" height="1"/><rect class="ya101-2" x="17" y="9" width="1" height="1"/><rect class="ya101-2" x="11" y="9" width="1" height="1"/><rect class="ya101-2" x="10" y="10" width="1" height="1"/><path class="ya101-2" d="M10,14V11H9v4h1Z"/><path class="ya101-2" d="M10,16H9v1h1Z"/><rect class="ya101-2" x="8" y="15" width="1" height="1"/><rect class="ya101-2" x="14" y="16" width="1" height="1"/><path class="ya101-5" d="M13,15V14H12v1Z"/><path class="ya101-5" d="M10,15h1V14H10Z"/><path class="ya101-5" d="M18,14v1h1V14Z"/><path class="ya101-5" d="M16,14v1h1V14Z"/><path class="ya101-2" d="M12,15V14H11v1Z"/><path class="ya101-2" d="M17,14v1h1V14Z"/><path class="ya101-6" d="M11,14V13H10v1Z"/><rect class="ya101-6" x="11" y="12" width="2" height="1"/><path class="ya101-6" d="M17,13H16v1h1Z"/><path class="ya101-6" d="M19,12H17v1h2Z"/><path class="ya101-7" d="M12,22v1h5V22h2V20h1V17H19v1H18v1H17V18H15v1h1v2H15v1H14V21H13V19H11V18H10V17H9v3h1v2h2Z"/><path class="ya101-7" d="M14,18H13v1h1Z"/><path class="ya101-8" d="M19,23V22H18v1Z"/><rect class="ya101-7" x="18" y="23" width="1" height="1"/><path class="ya101-8" d="M17,24V23H16v1Z"/><rect class="ya101-7" x="16" y="24" width="1" height="1"/><path class="ya101-8" d="M13,23H12v1h1Z"/><path class="ya101-7" d="M12,24v1h1V24Z"/><path class="ya101-8" d="M11,22H10v1h1Z"/><path class="ya101-7" d="M11,23H10v1h1Z"/><path class="ya101-2" d="M13,19v1h3V19H13Z"/><path class="ya101-2" d="M12,18v1h1V18Z"/><path class="ya101-9" d="M18,11h1V9H18v2Z"/><path class="ya101-9" d="M12,10v1h1V9h1v2h1V9h1v2h1V9h1V8H11V9h1Z"/><rect class="ya101-9" x="10" y="9" width="1" height="1"/><path class="ya101-9" d="M10,10H9v1h1Z"/><rect class="ya101-10" x="23" y="23" width="1" height="1"/><rect class="ya101-10" x="20" y="23" width="1" height="1"/><path class="ya101-4" d="M25,24H23V23h1V22H23V21H20v2h2v1H19v1h1v1H19v1h5V26H21V25h3v1h1V24Z"/><path class="ya101-2" d="M23.25,25H21v1h3V25Z"/><path class="ya101-2" d="M22,24V23H21v1Z"/><path class="ya101-2" d="M25,24V23H24v1Z"/><path class="ya101-2" d="M19,24h1V22H19v2Z"/><rect class="ya101-2" x="24" y="26" width="1" height="1"/><path class="ya101-2" d="M25,25v1h1V24H25Z"/><path class="ya101-9" d="M20,21H19v1h1Z"/><path class="ya101-9" d="M21,21h2v1h1v1h1v1h1V22H25V21H24V20H20v1Z"/><path class="ya101-2" d="M20,25H19v1h1Z"/><path class="ya101-2" d="M18,24V23H17v2H16v1h2V25h1V24Z"/></svg>