<svg xmlns="http://www.w3.org/2000/svg" viewBox="0 0 29 33"><defs><style>polygon,rect,path{shape-rendering:crispedges;}.xa31-1{fill:#e55b35;}.xa31-2{fill:#000000;}.xa31-3{fill:#00af68;}.xa31-4{fill:#ce8452;}.xa31-5{fill:#00774c;}.xa31-6{fill:#ffffff;}.xa31-7{fill:#99582c;}.xa31-8{fill:#99ce09;}.xa31-9{fill:#ff1d99;}.xa31-10{fill:#e281bf;}.xa31-11{fill:#b5a38a;}</style></defs><rect class="xa31-1" x="3" y="18" height="1"/><rect class="xa31-1" x="9" y="19" width="1" height="1"/><path class="xa31-1" d="M0,33H6V25H7V24H8V21H8v1H7v1H6v1H3V23H2V22H1V19H2V18H3V17H6v1H7v1H8v1H9v1H9V20H8V19H9V16H8V15H9V10h1V9h1V8h7V9h1v1h1v2h1v6H20v1H19v1H18v2h1v3h2v1h1v1h1v6h6V0H0Z"/><rect class="xa31-1" x="2" y="20" width="1"/><path class="xa31-1" d="M10,25V22h1V20H10v1H9v4Z"/><path class="xa31-1" d="M3,19Z"/><path class="xa31-2" d="M7,30V25H6v8H7V30Z"/><path class="xa31-2" d="M23,27H22v6h1V27Z"/><rect class="xa31-2" x="21" y="26" width="1" height="1"/><path class="xa31-3" d="M21,31h1V30H21Z"/><path class="xa31-3" d="M21,28h1V27H21Z"/><path class="xa31-2" d="M21,30V27H20v4H14V27H13v4H9V26H8v7H9V32H20v1h1V30Z"/><rect class="xa31-2" x="9" y="25" width="1" height="1"/><path class="xa31-2" d="M20,26h1V25H19v1Z"/><path class="xa31-2" d="M18,25h1V22H18v3Z"/><path class="xa31-3" d="M14,27v1h6V27H14Z"/><path class="xa31-3" d="M18,25V24H16v1Z"/><path class="xa31-3" d="M14,31h6V30H14Z"/><rect class="xa31-2" x="15" y="24" width="1" height="1"/><path class="xa31-2" d="M15,26V25H14v2h1Z"/><path class="xa31-4" d="M14,25h1V24h1V23H13v1h1Z"/><rect class="xa31-2" x="13" y="24" width="1" height="1"/><path class="xa31-2" d="M11,24V22H10v3h1Z"/><path class="xa31-3" d="M9,31h4V30H9Z"/><path class="xa31-3" d="M11,25h2V24H11Z"/><path class="xa31-3" d="M9,28h4V27H9Z"/><path class="xa31-4" d="M8,27V26H9V25H7v2Z"/><path class="xa31-3" d="M7,28H8V27H7Z"/><path class="xa31-3" d="M7,31H8V30H7Z"/><path class="xa31-4" d="M19,16H16V14h2V13H16V12H15V11H13V10H11v1H10v1h2v1h1v3H10v3h1v1h1v1h1v1h3V21h1V20h1V19h1V16Zm-5,0h1v1H14Zm3,3H16v1H13V19h3V18h1Z"/><rect class="xa31-4" x="9" y="15" width="1" height="1"/><path class="xa31-4" d="M12,14V13H10v1h2Z"/><rect class="xa31-4" x="19" y="15" width="1" height="1"/><path class="xa31-2" d="M19,16v3h1V16Z"/><rect class="xa31-2" x="18" y="19" width="1" height="1"/><path class="xa31-2" d="M17,21H16v1H13V21H12V20H11v2h1v2h1V23h3v1h1V22h1V20H17Z"/><rect class="xa31-2" x="10" y="19" width="1" height="1"/><path class="xa31-2" d="M10,18V16H9v3h1Z"/><rect class="xa31-2" x="8" y="15" width="1" height="1"/><rect class="xa31-2" x="14" y="16" width="1" height="1"/><path class="xa31-5" d="M19,32H9v1H20V32Z"/><path class="xa31-5" d="M14,29v1h6V28H14Z"/><path class="xa31-5" d="M9,29v1h4V28H9Z"/><path class="xa31-5" d="M13,25H10v1H9v1h5V25Z"/><path class="xa31-5" d="M16,25H15v2h6V26H19V25H16Z"/><path class="xa31-5" d="M7,29v1H8V28H7Z"/><path class="xa31-5" d="M7,31v2H8V31Z"/><path class="xa31-5" d="M21,31v2h1V31Z"/><path class="xa31-5" d="M21,29v1h1V28H21Z"/><path class="xa31-5" d="M12,24V22H11v2Z"/><path class="xa31-5" d="M17,23v1h1V22H17Z"/><path class="xa31-6" d="M11,15V14H10v2h1Z"/><path class="xa31-6" d="M12,15v1h1V14H12Z"/><path class="xa31-6" d="M17,14H16v2h1V14Z"/><path class="xa31-6" d="M19,16V14H18v2Z"/><path class="xa31-2" d="M12,14H11v2h1V14Z"/><path class="xa31-2" d="M17,15v1h1V14H17Z"/><path class="xa31-7" d="M13,14V13H12v1Z"/><rect class="xa31-7" x="10" y="12" width="2" height="1"/><rect class="xa31-2" x="13" y="19" width="3" height="1"/><rect class="xa31-2" x="16" y="18" width="1" height="1"/><path class="xa31-8" d="M10,14V11h1V10h2v1h2v1h1v1h2v1h1v1h1v3h1V12H20V10H19V9H18V8H11V9H10v1H9v5h1Z"/><rect class="xa31-9" x="9" y="20" width="1" height="1"/><rect class="xa31-9" x="8" y="19" width="1" height="1"/><rect class="xa31-10" x="7" y="20" width="1" height="1"/><path class="xa31-9" d="M9,25V21H8v4Z"/><path class="xa31-2" d="M8,24H7v1H8Z"/><polygon class="xa31-11" points="3 18 2 18 2 19 3 19 3 18"/><path class="xa31-11" d="M7,20H8V19H7V18H6V17H3v1H5v1H3v1H2V19H1v3H2v1H3v1H6V23H7V22H8V21H7Z"/><polygon class="xa31-11" points="9 21 9 20 8 20 8 21 8 21 9 21 9 21"/><polygon class="xa31-6" points="3 20 3 20 3 19 3 19 3 19 2 19 2 19 2 20 3 20"/><path class="xa31-6" d="M4,19H5V18H3v1Z"/></svg>