<svg xmlns="http://www.w3.org/2000/svg" viewBox="0 0 29 33"><defs><style>polygon,rect,path{shape-rendering:crispedges;}.sa134-1{fill:#b4bd09;}.sa134-2{fill:#000000;}.sa134-3{fill:#3f2f17;}.sa134-4{fill:#c18d59;}.sa134-5{fill:#b23b00;}.sa134-6{fill:#ffffff;}.sa134-7{fill:#492a23;}.sa134-8{fill:#99004d;}.sa134-9{fill:#c8a715;}.sa134-10{fill:#b6c699;}</style></defs><rect class="sa134-1" x="9" y="22" width="1" height="1"/><rect class="sa134-1" x="7" y="22" width="1" height="1"/><rect class="sa134-1" x="8" y="21" width="1" height="1"/><path class="sa134-2" d="M23,27H22v6h1V27Z"/><path class="sa134-3" d="M22,27H21v6h1V27Z"/><path class="sa134-2" d="M21,27h1V26H21V25H19v1h1v7h1V27Z"/><rect class="sa134-3" x="11" y="24" width="1" height="1"/><path class="sa134-3" d="M20,26H19V25H18V24H17v4h2v1H17v2h1V30h1v2H16V25H13v3h2v4H12V29H11v3H10V30H9v3H20V26Z"/><rect class="sa134-2" x="18" y="24" width="1" height="1"/><rect class="sa134-2" x="17" y="23" width="1" height="1"/><path class="sa134-2" d="M15,24H13v1h3V24Z"/><path class="sa134-4" d="M14,24h2V23H13v1Z"/><rect class="sa134-2" x="11" y="23" width="1" height="1"/><rect class="sa134-2" x="10" y="24" width="1" height="1"/><path class="sa134-2" d="M9,30H8v3H9V30Z"/><path class="sa134-3" d="M8,30V29H7v4H8V30Z"/><path class="sa134-2" d="M7,29V28H6v5H7V29Z"/><path class="sa134-3" d="M14,31V29H13v2Z"/><path class="sa134-5" d="M14,29v2H13V30H12v2h3V28H13v1Z"/><path class="sa134-5" d="M10,31v1h1V30H10Z"/><path class="sa134-5" d="M18,29h1V28H17v1Z"/><path class="sa134-5" d="M16,31v1h3V30H18v1H17V30H16Z"/><path class="sa134-2" d="M12,26v4h1V25H12Z"/><path class="sa134-2" d="M16,26v4h1V25H16Z"/><polygon class="sa134-4" points="13 21 14 21 14 22 15 22 15 21 16 21 16 20 13 20 13 21"/><rect class="sa134-4" x="18" y="12" width="1" height="1"/><path class="sa134-4" d="M12,13h1v2H10v3h1v1h1V18h2v1h1V18h2v1h1V18h1V15H16V14h2V13H16V12h1V11H12v2Zm2,3h1v1H14Z"/><path class="sa134-4" d="M10,13v1h2V13Z"/><rect class="sa134-2" x="14" y="16" width="1" height="1"/><path class="sa134-6" d="M18,14v1h1V14Z"/><path class="sa134-6" d="M13,14H12v1h1Z"/><path class="sa134-2" d="M17,14H16v1h2V14Z"/><rect class="sa134-7" x="18" y="13" width="1" height="1"/><polygon class="sa134-7" points="17 12 16 12 16 13 18 13 18 12 17 12"/><path class="sa134-7" d="M13,13H12v1h1Z"/><path class="sa134-7" d="M12,13V12H10v1Z"/><path class="sa134-3" d="M8,19v1H9V12h1V11h2V10h5v1h2v1h1v8h1V11H20V10H19V9H18V8H11V9H10v1H9v1H8v8Z"/><rect class="sa134-3" x="19" y="20" width="1" height="1"/><rect class="sa134-3" x="9" y="20" width="1" height="1"/><rect class="sa134-3" x="17" y="22" width="1" height="1"/><rect class="sa134-3" x="11" y="22" width="1" height="1"/><rect class="sa134-2" x="10" y="8" width="1" height="1"/><rect class="sa134-2" x="9" y="9" width="1" height="1"/><rect class="sa134-2" x="8" y="10" width="1" height="1"/><path class="sa134-2" d="M8,19V11H7v9H8Z"/><rect class="sa134-2" x="8" y="20" width="1" height="1"/><rect class="sa134-2" x="9" y="21" width="1" height="1"/><rect class="sa134-2" x="19" y="21" width="1" height="1"/><rect class="sa134-2" x="20" y="20" width="1" height="1"/><path class="sa134-2" d="M21,20h1V11H21v9Z"/><rect class="sa134-2" x="20" y="10" width="1" height="1"/><rect class="sa134-2" x="19" y="9" width="1" height="1"/><rect class="sa134-2" x="18" y="8" width="1" height="1"/><path class="sa134-2" d="M18,8V7H11V8h7Z"/><path class="sa134-2" d="M12,11H10v1h2Z"/><path class="sa134-2" d="M10,16V15h2V14H10V12H9v5h1Z"/><path class="sa134-2" d="M19,14v3h1V12H19v2Z"/><path class="sa134-2" d="M18,12h1V11H17v1Z"/><path class="sa134-2" d="M17,11V10H12v1h5Z"/><path class="sa134-1" d="M0,7H0V33H6V28H5V26H6V25h4V24H9v1H8V24H7V23H6V22H5V21H6V20H5V19H6v1H7V11H8V10H9V9h1V8h1V7h7V8h1V9h1v1h1v1h1v9H21v1H20v1H19v3h2v1h1v1h1v6h6V7h0V0H0ZM4,17H5v1H4ZM3,19H4v1H3Z"/><path class="sa134-8" d="M15,18v1h1V18Z"/><path class="sa134-8" d="M19,20h1V17H19v1H18v1H16v2H15v1H14V21H13V19h1V18H12v1H11V18H10V17H9v3h1v2h2v1h5V22h2V20Z"/><path class="sa134-9" d="M18,23h1V22H18Z"/><path class="sa134-8" d="M18,24h1V23H18Z"/><path class="sa134-9" d="M16,23v1h1V23Z"/><path class="sa134-8" d="M16,25h1V24H16Z"/><path class="sa134-9" d="M13,24V23H12v1Z"/><rect class="sa134-8" x="12" y="24" width="1" height="1"/><path class="sa134-9" d="M10,22v1h1V22Z"/><rect class="sa134-8" x="10" y="23" width="1" height="1"/><path class="sa134-2" d="M14,19H13v1h3V19H14Z"/><path class="sa134-2" d="M16,18v1h1V18Z"/><path class="sa134-6" d="M7.5,26H8v2H7v1H8v1h3V29h1V25H7v1Z"/><rect class="sa134-10" x="3" y="19" width="1" height="1"/><rect class="sa134-10" x="4" y="17" width="1" height="1"/><rect class="sa134-10" x="5" y="19" width="1" height="1"/><polygon class="sa134-10" points="8 22 8 21 8 20 7 20 6 20 6 21 5 21 5 22 6 22 6 23 7 23 7 22 8 22"/><polygon class="sa134-10" points="9 23 9 22 8 22 8 23 7 23 7 24 8 24 8 25 9 25 9 24 10 24 10 23 9 23"/><path class="sa134-4" d="M8,28V26H6v2H8Z"/><path class="sa134-2" d="M7,25H6v1H7Z"/><path class="sa134-2" d="M5,26v2H6V26Z"/></svg>