<svg xmlns="http://www.w3.org/2000/svg" viewBox="0 0 29 33"><defs><style>polygon,rect,path{shape-rendering:crispedges;}.ab198-1{fill:#6b4f99;}.ab198-2{fill:#000000;}.ab198-3{fill:#3e5e00;}.ab198-4{fill:#6d3e35;}.ab198-5{fill:#99ce09;}.ab198-6{fill:#ffffff;}.ab198-7{fill:#af8423;}.ab198-8{fill:#fafafa;}.ab198-9{fill:#cc3232;}.ab198-10{fill:#dfdfdf;}.ab198-11{fill:#a89969;}</style></defs><path class="ab198-1" d="M0,33H6V27H7V26H8V25h2V24h1V23h1V21H10v1H9V21H8V20H9V17H8V13H7V12H5V11H7v1H9V10h1V8h1V7h2V8h3V7h2V8h1V7h1V6h2V8H21V9H20v3h2V11h2v1H22v1H21v5H20v2h4v1h1v1h1v4H25v2H24v1H23v4h6V0H0Z"/><path class="ab198-1" d="M19,21H17v2h1v1h1V21Z"/><path class="ab198-2" d="M23,29V28h1V27H21v1h1v5h1V29Z"/><path class="ab198-3" d="M21,31v1h1V30H21Z"/><path class="ab198-2" d="M21,31V28H20v5h1V31Z"/><path class="ab198-3" d="M19,27V25H18v3h1Z"/><path class="ab198-3" d="M10,31V30H9v2h1v1h1V31Z"/><rect class="ab198-3" x="14" y="29" width="1" height="1"/><path class="ab198-3" d="M14,31H13V30H12V28H11V27H10V26H9v2h1v1h1v2h1v1h1v1h1V31Z"/><path class="ab198-3" d="M16,31V30H15v2h1v1h1V31Z"/><path class="ab198-3" d="M19,31V30H18V28H17V27H16V25H15v3h1v1h1v2h1v1h1v1h1V31Z"/><path class="ab198-3" d="M13,29h1V27H13V26H12v2h1Z"/><rect class="ab198-3" x="16" y="24" width="1" height="1"/><rect class="ab198-2" x="15" y="24" width="1" height="1"/><path class="ab198-2" d="M14,32v1h1V32Z"/><path class="ab198-2" d="M14,31h1V30H14Z"/><path class="ab198-2" d="M14,29h1V28H14Z"/><path class="ab198-2" d="M14,26v1h1V25H14Z"/><rect class="ab198-2" x="13" y="24" width="1" height="1"/><path class="ab198-4" d="M16,24V23H13v1h1v1h1V24Z"/><path class="ab198-2" d="M11,26h2V25H12V24h1V23h3v1h1v1H16v1h2V25h1V24H18V23H17V21H16v1H13V21H12v2H11v1H10v1h1Z"/><path class="ab198-2" d="M10,26V25H8v1h2Z"/><path class="ab198-2" d="M9,31V27H8v6H9V31Z"/><path class="ab198-3" d="M8,29V27H7v2Z"/><path class="ab198-3" d="M7,31v2H8V31Z"/><rect class="ab198-2" x="7" y="26" width="1" height="1"/><path class="ab198-2" d="M7,30V27H6v6H7V30Z"/><path class="ab198-5" d="M22,30V28H21v2Z"/><path class="ab198-5" d="M21,32v1h1V32Z"/><path class="ab198-5" d="M19,28H18v2h1v1h1V29H19Z"/><path class="ab198-5" d="M16,26v1h1v1h1V26Z"/><path class="ab198-5" d="M18,32V31H17v2h2V32Z"/><path class="ab198-5" d="M15,30h1v1h1V29H16V28H15v2Z"/><path class="ab198-5" d="M14,28h1V27H14Z"/><polygon class="ab198-5" points="14 27 14 26 14 25 13 25 13 26 13 27 14 27"/><path class="ab198-5" d="M14,32h1V31H14Z"/><rect class="ab198-5" x="15" y="32" width="1" height="1"/><path class="ab198-5" d="M14,29H13V28H12v2h1v1h1V29Z"/><rect class="ab198-5" x="12" y="24" width="1" height="1"/><path class="ab198-5" d="M10,27h1v1h1V26H11V25H10v2Z"/><path class="ab198-5" d="M12,32V31H11v2h2V32Z"/><path class="ab198-5" d="M10,30v1h1V29H10V28H9v2Z"/><path class="ab198-5" d="M9,32v1h1V32Z"/><path class="ab198-5" d="M9,27V26H8v1Z"/><path class="ab198-5" d="M7,30v1H8V29H7Z"/><path class="ab198-4" d="M13,22h3V21h1V20h1V19h1V16H16V14h2V13H13v3H10v3h1v1h1v1h1Zm1-6h1v1H14Zm-1,3h3V18h1v1H16v1H13Z"/><rect class="ab198-4" x="19" y="15" width="1" height="1"/><path class="ab198-2" d="M19,16v3h1V16Z"/><rect class="ab198-2" x="18" y="19" width="1" height="1"/><path class="ab198-2" d="M18,20H17v1h1Z"/><path class="ab198-2" d="M11,20v1h1V20Z"/><rect class="ab198-2" x="10" y="19" width="1" height="1"/><path class="ab198-2" d="M10,18H9v1h1Z"/><rect class="ab198-2" x="14" y="16" width="1" height="1"/><path class="ab198-6" d="M10,14v2h1V14Z"/><path class="ab198-6" d="M12,15v1h1V14H12Z"/><path class="ab198-6" d="M16,14v2h1V14Z"/><path class="ab198-6" d="M19,14H18v2h1V14Z"/><path class="ab198-2" d="M12,14H11v2h1V14Z"/><path class="ab198-2" d="M17,14v2h1V14Z"/><rect class="ab198-7" x="18" y="13" width="1" height="1"/><path class="ab198-7" d="M12,14h1V13H12Z"/><rect class="ab198-2" x="13" y="19" width="3" height="1"/><rect class="ab198-2" x="16" y="18" width="1" height="1"/><rect class="ab198-8" x="23" y="23" width="1" height="1"/><rect class="ab198-8" x="20" y="23" width="1" height="1"/><path class="ab198-2" d="M23.25,25H21v1h3V25Z"/><rect class="ab198-2" x="21" y="23" width="1" height="1"/><rect class="ab198-2" x="24" y="23" width="1" height="1"/><path class="ab198-2" d="M24,27h1V26H24Z"/><path class="ab198-9" d="M24,28h1V27H24Z"/><path class="ab198-9" d="M23,29h1V28H23Z"/><path class="ab198-4" d="M24,24H23V22H21v1h1v1H20v3h4V26H21V25h3v1h1V24Z"/><path class="ab198-9" d="M19,20H18v1h1v8h1V28h1V27H20V23h1V22h2v1h2v3h1V22H25V21H24V20H20V19H19Z"/><path class="ab198-9" d="M10,20V19H9v1H8v1H9v1h1V21h1V20Z"/><path class="ab198-9" d="M19,14v1h1v3h1V13H19Z"/><path class="ab198-9" d="M10,17V14h2V13H8v4H9v1h1Z"/><path class="ab198-2" d="M24,11H22v1h2Z"/><path class="ab198-10" d="M21,8h1V7H21Z"/><path class="ab198-2" d="M12,13H22V12H20V11H19v1H10V11H9v1H7v1h5Z"/><rect class="ab198-10" x="20" y="8" width="1" height="1"/><path class="ab198-11" d="M19,11h1V10H19Z"/><path class="ab198-6" d="M18,11h1V10h1V8h1V7h1V6H20V7H19V8H18v3Z"/><path class="ab198-11" d="M17,11H10v1h9V11H17Z"/><path class="ab198-2" d="M11,11h7V7H16V8H13V7H11V8H10v3Z"/><path class="ab198-11" d="M10,10H9v1h1Z"/><path class="ab198-2" d="M6,11H5v1H7V11Z"/></svg>