<svg xmlns="http://www.w3.org/2000/svg" viewBox="0 0 29 33"><defs><style>polygon,rect,path{shape-rendering:crispedges;}.qa129-1{fill:#e55b35;}.qa129-2{fill:#000000;}.qa129-3{fill:#e8b795;}.qa129-4{fill:#00af68;}.qa129-5{fill:#9fffc6;}.qa129-6{fill:#ffffff;}.qa129-7{fill:#8e4717;}.qa129-8{fill:#8e4717;}.qa129-9{fill:#ccc;}.qa129-10{fill:#c4ea3b;}.qa129-11{fill:#a3531d;}.qa129-12{fill:#cebfb3;}.qa129-13{fill:#d6e5e2;}.qa129-14{fill:#e5f4f1;}</style></defs><rect class="qa129-1" x="10" y="23" width="1" height="1"/><polygon class="qa129-1" points="19 24 19 24 19 23 18 23 18 24 19 24 19 24"/><path class="qa129-1" d="M10,22h1V21H10V20H9v2Z"/><path class="qa129-1" d="M0,33H6V27H7V26H8V24H6V23H5V21H4V20H3V19H8v1H9V18H8V13H9V11h1V10h1V9h7v1h1v1h1v1h1v6H20v2h1V19h5v1H25v1H24v2h0v8H23v1H21v1h8V0H0Z"/><rect class="qa129-1" x="19" y="20" width="1" height="1"/><rect class="qa129-1" x="18" y="21" width="1" height="1"/><path class="qa129-2" d="M23,24h0v7h1V23H23v1Z"/><path class="qa129-3" d="M23,24H22V23H21v1h2Z"/><path class="qa129-2" d="M7,27H6v6H7V27Z"/><path class="qa129-4" d="M8,27H7v6H8V27Z"/><rect class="qa129-2" x="7" y="26" width="1" height="1"/><path class="qa129-2" d="M9,27H8v6H9V27Z"/><path class="qa129-4" d="M20,27h1V26H19V25H18V24H16v1h1v3h2v1H17v2h1V30h1v2H16V25H13v3h2v4H12V25h1V24H11v1H10v1H8v1H9v6H20V27Zm-9,4v1H10V28h1Z"/><path class="qa129-2" d="M10,25H8v1h2Z"/><rect class="qa129-2" x="10" y="24" width="1" height="1"/><path class="qa129-2" d="M11,22H10v1h1Z"/><rect class="qa129-4" x="11" y="22" width="1" height="1"/><path class="qa129-2" d="M13,24v1h3V24H13Z"/><path class="qa129-3" d="M15,23H13v1h3V23Z"/><path class="qa129-2" d="M17,23V22H16v2h2V23Z"/><rect class="qa129-4" x="17" y="22" width="1" height="1"/><rect class="qa129-2" x="18" y="24" width="1" height="1"/><polygon class="qa129-2" points="19 22 18 22 18 23 19 23 19 23 19 22"/><path class="qa129-2" d="M22,32h1V31H22V24H21v1H19v1h2v1H20v6h1V32Z"/><path class="qa129-4" d="M23,24H22v7h1V24Z"/><path class="qa129-4" d="M14,31V29H13v2Z"/><path class="qa129-5" d="M14,29v2H13V30H12v2h3V28H13v1Z"/><path class="qa129-5" d="M10,31v1h1V28H10Z"/><path class="qa129-5" d="M18,29h1V28H17v1Z"/><path class="qa129-5" d="M16,31v1h3V30H18v1H17V30H16Z"/><path class="qa129-2" d="M12,26v4h1V25H12Z"/><path class="qa129-2" d="M16,30h1V25H16v5Z"/><rect class="qa129-2" x="19" y="14" width="1" height="1"/><rect class="qa129-3" x="17" y="11" width="1" height="1"/><rect class="qa129-3" x="9" y="15" width="1" height="1"/><path class="qa129-3" d="M12,19V18h5v1h1V15H16v1H15v1H14V16h1V14h1V12H15V11H14v4H13v2H12V15H11v4Z"/><rect class="qa129-3" x="13" y="20" width="1" height="1"/><path class="qa129-3" d="M13,14V13H11v1h2Z"/><rect class="qa129-3" x="17" y="13" width="1" height="1"/><rect class="qa129-3" x="19" y="15" width="1" height="1"/><rect class="qa129-3" x="15" y="20" width="1" height="1"/><path class="qa129-2" d="M13,22H12v1H11v1h2V22Z"/><rect class="qa129-2" x="14" y="16" width="1" height="1"/><path class="qa129-6" d="M12,15h1V14H12Z"/><path class="qa129-6" d="M17,15V14H16v1Z"/><path class="qa129-2" d="M12,14H11v1h1Z"/><path class="qa129-2" d="M18,15V14H17v1Z"/><path class="qa129-7" d="M13,12H11v1h2Z"/><rect class="qa129-7" x="17" y="12" width="1" height="1"/><path class="qa129-8" d="M19,16v2h1V16Z"/><path class="qa129-8" d="M13,22v1h3V22h2V21h1V18H18v1H16v2H15V20H14v1H13V19H11V18H10v3h1v1h2Z"/><path class="qa129-8" d="M10,17V16H9v2h1Z"/><path class="qa129-2" d="M16,18H12v1h1v1h3V19h1V18Z"/><path class="qa129-6" d="M10,23V22H9V20H8V19H3v1H7v1H5v1H8v1H6v1h4Z"/><path class="qa129-9" d="M8,22H5v1H8Z"/><path class="qa129-9" d="M7,20H4v1H7Z"/><path class="qa129-9" d="M22,20v1h3V20H22Z"/><path class="qa129-9" d="M23,23h1V22H23Z"/><path class="qa129-6" d="M22,21v1h2V21H22Z"/><path class="qa129-6" d="M20,21h2V20h4V19H21v1H20Z"/><path class="qa129-6" d="M21,23H19v1h0V23Z"/><polygon class="qa129-6" points="23 23 22 23 22 24 23 24 23 24 23 23 23 23 23 23 23 23"/><path class="qa129-9" d="M10,24H8v1h2Z"/><path class="qa129-9" d="M19,25h2V24H19Z"/><path class="qa129-10" d="M9,15h1v3h1V12h2v3h1V11h1v1h1v2h1V11h1v7h1V14h1v4h1V12H20V11H19V10H18V9H11v1H10v1H9v2H8v5H9V15Z"/><path class="qa129-10" d="M19,19v1h1V18H19Z"/><path class="qa129-10" d="M15,15v1h1V14H15Z"/><path class="qa129-10" d="M12,16v1h1V15H12Z"/><path class="qa129-10" d="M10,19V18H9v2h1Z"/><path class="qa129-11" d="M19,23v1h2V23Z"/><polygon class="qa129-12" points="19 21 19 22 19 22 20 22 20 21 19 21 19 21"/><rect class="qa129-13" x="21" y="22" width="1" height="1"/><path class="qa129-14" d="M19,22h0v1h2V22h1V21H20v1Z"/><path class="qa129-2" d="M22,23h1V22H22Z"/></svg>