<svg xmlns="http://www.w3.org/2000/svg" viewBox="0 0 29 33"><defs><style>polygon,rect,path{shape-rendering:crispedges;}.ua296-1{fill:#000000;}.ua296-2{fill:#014731;}.ua296-3{fill:#b2622b;}.ua296-4{fill:#4922aa;}.ua296-5{fill:#db5800;}.ua296-6{fill:#d4a122;}.ua296-7{fill:#fad000;}.ua296-8{fill:#ffffff;}.ua296-9{fill:#0068ff;}.ua296-10{fill:#ff1f4a;}</style></defs><path class="ua296-1" d="M7,27H6v6H7V27Z"/><path class="ua296-2" d="M8,27H7v6H8V27Z"/><rect class="ua296-1" x="7" y="26" width="1" height="1"/><path class="ua296-1" d="M9,27H8v6H9V27Z"/><path class="ua296-2" d="M20,27H19V26H18v1H17v3H16V29H13v1H12V27H11V26H8v1H9v6H20V27Z"/><path class="ua296-1" d="M11,26V24H10v1H8v1h3Z"/><path class="ua296-3" d="M13,23v1h3V23H13Z"/><path class="ua296-1" d="M21,27H20v6h1V27Z"/><path class="ua296-2" d="M22,27H21v6h1V27Z"/><path class="ua296-1" d="M23,24H22v9h1V24Z"/><path class="ua296-2" d="M16,26V25H13v1h3Z"/><rect class="ua296-3" x="14" y="15" width="1" height="1"/><path class="ua296-3" d="M16,22V21h1V20h1V19h1V16H15v1H14V16H10v3h1v1h1v1h1v1h3Zm-3-3h3V18h1v1H16v1H13Z"/><path class="ua296-3" d="M14,11v1H13v1h1v1h1V13h1V12h1V11H14Z"/><rect class="ua296-1" x="14" y="16" width="1" height="1"/><path class="ua296-4" d="M17,12H16v1h3V12H17Z"/><path class="ua296-3" d="M21,27h1V24H21v1H20v2Z"/><rect class="ua296-1" x="20" y="24" width="1" height="1"/><rect class="ua296-1" x="21" y="23" width="1" height="1"/><path class="ua296-5" d="M11,13h2V12h1V11H12v1H10v1Z"/><path class="ua296-2" d="M13,22H12V21H11V20H10V19H9V12h1V11h2V10h5v1h2v1h1v7H19v1H18v1H17v1H16v1h2V22h1V21h1V20h1V11H20V10H19V9H18V8H11V9H10v1H9v1H8v9H9v1h1v1h1v1h2Z"/><rect class="ua296-1" x="10" y="8" width="1" height="1"/><rect class="ua296-1" x="9" y="9" width="1" height="1"/><rect class="ua296-1" x="8" y="10" width="1" height="1"/><path class="ua296-1" d="M8,11H7v9H8V11Z"/><rect class="ua296-1" x="8" y="20" width="1" height="1"/><rect class="ua296-1" x="9" y="21" width="1" height="1"/><rect class="ua296-1" x="10" y="22" width="1" height="1"/><rect class="ua296-1" x="18" y="22" width="1" height="1"/><rect class="ua296-1" x="19" y="21" width="1" height="1"/><rect class="ua296-1" x="20" y="20" width="1" height="1"/><path class="ua296-1" d="M21,20h1V11H21v9Z"/><rect class="ua296-1" x="20" y="10" width="1" height="1"/><rect class="ua296-1" x="19" y="9" width="1" height="1"/><rect class="ua296-1" x="18" y="8" width="1" height="1"/><path class="ua296-1" d="M18,8V7H11V8h7Z"/><path class="ua296-1" d="M12,11H10v1h2Z"/><path class="ua296-1" d="M10,16H9v3h1V16Z"/><path class="ua296-1" d="M10,12H9v1h1Z"/><rect class="ua296-1" x="10" y="19" width="1" height="1"/><rect class="ua296-1" x="11" y="20" width="1" height="1"/><rect class="ua296-1" x="12" y="21" width="1" height="1"/><path class="ua296-1" d="M15,22H13v1h3V22Z"/><rect class="ua296-1" x="16" y="21" width="1" height="1"/><rect class="ua296-1" x="17" y="20" width="1" height="1"/><rect class="ua296-1" x="18" y="19" width="1" height="1"/><path class="ua296-1" d="M19,17v2h1V16H19Z"/><path class="ua296-1" d="M20,13V12H19v1Z"/><path class="ua296-1" d="M18,12h1V11H17v1Z"/><path class="ua296-1" d="M15,11h2V10H12v1h3Z"/><path class="ua296-6" d="M0,7V33H6V27H7V26H8V25h2V24h1V23H10V22H9V21H8V20H7V11H8V10H9V9h1V8h1V7h7V8h1V9h1v1h1v1h1v9H21v1H20v1H19v1H18v1h1v1h1V24h1V23h1v1h1v9h6V0H0Z"/><path class="ua296-1" d="M18,26h1v1h1V25H19V24H18v2Z"/><rect class="ua296-1" x="17" y="26" width="1" height="1"/><path class="ua296-7" d="M17,25v1h1V25Z"/><path class="ua296-8" d="M17,25h1V24H17Z"/><path class="ua296-1" d="M16,28H13V27H12v3h1V29h3v1h1V27H16Z"/><rect class="ua296-8" x="16" y="26" width="1" height="1"/><path class="ua296-7" d="M15,28h1V27H15Z"/><path class="ua296-8" d="M14,27v1h1V27Z"/><path class="ua296-7" d="M13,27v1h1V27Z"/><path class="ua296-1" d="M14,27h2V26H13v1Z"/><rect class="ua296-8" x="12" y="26" width="1" height="1"/><path class="ua296-1" d="M12,25v1h1V25h3v1h1V24h1V23H16v1H13V23H11v1h1Z"/><rect class="ua296-1" x="11" y="26" width="1" height="1"/><path class="ua296-7" d="M12,25H11v1h1Z"/><path class="ua296-8" d="M12,25V24H11v1Z"/><path class="ua296-8" d="M11,16h3V15h1v1h5V13H15v1H14V13H9v3h2Zm5-2h3v1H16Zm-6,0h3v1H10Z"/><path class="ua296-9" d="M19,15V14H16v1h3Z"/><path class="ua296-10" d="M13,15V14H10v1h3Z"/><rect class="ua296-1" x="13" y="19" width="3" height="1"/><rect class="ua296-1" x="16" y="18" width="1" height="1"/></svg>