<svg xmlns="http://www.w3.org/2000/svg" viewBox="0 0 29 33"><defs><style>polygon,rect,path{shape-rendering:crispedges;}.na184-1{fill:#29834f;}.na184-2{fill:#000000;}.na184-3{fill:#b23b00;}.na184-4{fill:#4922aa;}.na184-5{fill:#b2622b;}.na184-6{fill:#825fff;}.na184-7{fill:#ffffff;}.na184-8{fill:#990000;}.na184-9{fill:#990000;}</style></defs><path class="na184-1" d="M0,33H6V24H7V23H8v1H9v1h1V24h2V22H11V21H10V20H9V16H8V15H9V11h1V10h1V9h7v1h1v1h1v4h1v1H20v4H19v1H18v1H17v2h2v1h2v1h1v1h1v6h6V0H0Z"/><path class="na184-2" d="M23,27H22v6h1V27Z"/><path class="na184-3" d="M21,31v1h1V30H21Z"/><path class="na184-3" d="M21,28h1V27H21Z"/><rect class="na184-2" x="21" y="26" width="1" height="1"/><path class="na184-2" d="M21,31V27H20v6h1V31Z"/><path class="na184-3" d="M18,26v2h1v1h1V27H19V25H18Z"/><path class="na184-3" d="M19,31V30H18v2h1v1h1V31Z"/><rect class="na184-3" x="20" y="26" width="1" height="1"/><path class="na184-2" d="M20,26h1V25H19v1Z"/><path class="na184-2" d="M18,31V25h1V24H17v1H16v1h1v7h1V31Z"/><path class="na184-4" d="M17,26H16v1H13V26H12v7h5V26Z"/><path class="na184-2" d="M16,24h1V23H16Z"/><path class="na184-2" d="M13,26v1h3V26H13Z"/><path class="na184-5" d="M13,25v1h3V25h1V24H16V23H13v1H12v1Z"/><path class="na184-2" d="M13,23H12v1h1Z"/><path class="na184-2" d="M12,26h1V25H12V24H10v1h1v8h1V26Z"/><path class="na184-3" d="M9,27v1h1v1h1V27H9Z"/><path class="na184-3" d="M10,31V30H9v2h1v1h1V31Z"/><path class="na184-2" d="M9,31V27H8v6H9V31Z"/><path class="na184-3" d="M7,31v2H8V31Z"/><path class="na184-3" d="M7,28v1H8V27H7Z"/><path class="na184-2" d="M7,30V24H6v9H7V30Z"/><path class="na184-6" d="M19,28H18v2h1v1h1V29H19Z"/><path class="na184-6" d="M21,32v1h1V32Z"/><path class="na184-6" d="M19,26v1h1V26Z"/><path class="na184-6" d="M21,29v1h1V28H21Z"/><path class="na184-6" d="M18,32v1h1V32Z"/><path class="na184-6" d="M11,27V25H10v2Z"/><path class="na184-6" d="M10,28H9v2h1v1h1V29H10Z"/><path class="na184-6" d="M9,32v1h1V32Z"/><path class="na184-6" d="M7,30v1H8V29H7Z"/><rect class="na184-2" x="20" y="15" width="1" height="1"/><path class="na184-2" d="M19,14v1h1V11H19v3Z"/><path class="na184-5" d="M10,17h1v1h1v1h1V18h5V17h1V16h1V15H16V14h2V13H16V12h2v1h1V11H18V10H11v1H10v1h2v1h1v2H9v1h1Zm4-1h1v1H14Z"/><path class="na184-5" d="M10,14h2V13H10Z"/><rect class="na184-2" x="18" y="10" width="1" height="1"/><path class="na184-2" d="M18,10V9H11v1h7Z"/><rect class="na184-2" x="10" y="10" width="1" height="1"/><path class="na184-2" d="M10,14V11H9v4h1Z"/><rect class="na184-2" x="8" y="15" width="1" height="1"/><rect class="na184-2" x="14" y="16" width="1" height="1"/><path class="na184-7" d="M12,15h1V14H12Z"/><path class="na184-7" d="M10,14v1h1V14Z"/><path class="na184-7" d="M18,14v1h1V14Z"/><path class="na184-7" d="M16,14v1h1V14Z"/><path class="na184-2" d="M11,14v1h1V14Z"/><path class="na184-2" d="M17,14v1h1V14Z"/><path class="na184-8" d="M19,13H18v1h1Z"/><rect class="na184-8" x="16" y="12" width="2" height="1"/><path class="na184-8" d="M13,14V13H12v1Z"/><path class="na184-8" d="M12,13V12H10v1Z"/><path class="na184-9" d="M15,18H13v1h3V18Z"/><path class="na184-9" d="M14,23h3V22h1V21h1V20h1V16H19v1H18v1H17v1H16v1H13V19H12V18H11V17H10V16H9v4h1v1h1v1h1v1h2Z"/><rect class="na184-2" x="13" y="19" width="3" height="1"/><path class="na184-2" d="M16,19h1V18H16Z"/><path class="na184-5" d="M7,27H9V25H8V24H7v3Z"/><path class="na184-2" d="M10,27V25H9v2Z"/><rect class="na184-2" x="8" y="24" width="1" height="1"/><rect class="na184-2" x="7" y="23" width="1" height="1"/></svg>