<svg xmlns="http://www.w3.org/2000/svg" viewBox="0 0 29 33"><defs><style>polygon,rect,path{shape-rendering:crispedges;}.ga121-1{fill:#31a09d;}.ga121-2{fill:#000000;}.ga121-3{fill:#4922aa;}.ga121-4{fill:#ce8452;}.ga121-5{fill:#825fff;}.ga121-6{fill:#ffffff;}.ga121-7{fill:#492a23;}.ga121-8{fill:#cbed03;}.ga121-9{fill:#ff5e17;}</style></defs><path class="ga121-1" d="M0,33H6V27H7V26H8V25h2V24h2V21H11V20H10V19H9V16H8V15H9V11h1V10h1V9h2V7h1V5h1V6h1V8h1V9h1v1h1v1h1v4h1v1H20v3H19v1H18v1H17v3h2v1h2v1h1v1h1v6h6V0H0Z"/><path class="ga121-2" d="M23,27H22v6h1V27Z"/><rect class="ga121-2" x="21" y="26" width="1" height="1"/><path class="ga121-3" d="M22,27H21v6h1V27Z"/><path class="ga121-2" d="M21,27H20v6h1V27Z"/><path class="ga121-2" d="M20,26h1V25H19v1Z"/><rect class="ga121-3" x="18" y="29" width="1" height="1"/><rect class="ga121-3" x="10" y="29" width="1" height="1"/><path class="ga121-3" d="M19,32V31H18v1H17V29h1V28h1v1h1V27h1V26H19V25H17v1H16v1H13V26H12V25H10v1H9v3h1V28h1v1h1v3H11V31H10v1H9v1H20V32Zm-3-2v1H15v1H13V28h2v1h1Z"/><path class="ga121-3" d="M15,29H14v2h1V29Z"/><path class="ga121-2" d="M18,25h1V24H17v1Z"/><rect class="ga121-2" x="16" y="25" width="1" height="1"/><path class="ga121-2" d="M13,26v1h3V26H13Z"/><path class="ga121-2" d="M13,23V22H12v2h1Z"/><path class="ga121-4" d="M13,25v1h3V25h1V24H16V23H13v1H12v1Z"/><rect class="ga121-2" x="12" y="25" width="1" height="1"/><path class="ga121-2" d="M12,24H10v1h2Z"/><path class="ga121-2" d="M9,31V26h1V25H8v1H7v1H8v6H9V31Z"/><path class="ga121-3" d="M8,27H7v6H8V27Z"/><path class="ga121-2" d="M7,27H6v6H7V27Z"/><path class="ga121-5" d="M19,30H18V29H17v3h1V31h1v1h1V29H19Z"/><rect class="ga121-5" x="18" y="28" width="1" height="1"/><path class="ga121-5" d="M15,30v1h1V29H15Z"/><path class="ga121-5" d="M14,30V29h1V28H13v4h2V31H14Z"/><path class="ga121-5" d="M9,32h1V31h1v1h1V29H11v1H10V29H9v3Z"/><rect class="ga121-5" x="10" y="28" width="1" height="1"/><rect class="ga121-2" x="20" y="15" width="1" height="1"/><path class="ga121-2" d="M19,14v1h1V11H19v3Z"/><path class="ga121-4" d="M10,14h2V13H10Z"/><path class="ga121-4" d="M13,21h3V20H13Z"/><path class="ga121-4" d="M10,17v1h1v1h1v1h1V19h3v1h1V19h1V18h1V16h1V15H16V14h2V13H16V12h2v1h1V11H18V10H14v1H13V10H11v1H10v1h2v1h1v2H9v1h1Zm4-1h1v1H14Z"/><rect class="ga121-2" x="18" y="10" width="1" height="1"/><path class="ga121-2" d="M16,23v1h1V22H16Z"/><path class="ga121-2" d="M15,10h3V9H15Z"/><path class="ga121-2" d="M13,9H11v1h2Z"/><rect class="ga121-2" x="10" y="10" width="1" height="1"/><rect class="ga121-2" x="8" y="15" width="1" height="1"/><rect class="ga121-2" x="14" y="16" width="1" height="1"/><path class="ga121-6" d="M18,14v1h1V14Z"/><path class="ga121-6" d="M12,15h1V14H12Z"/><path class="ga121-2" d="M17,14H16v1h2V14Z"/><path class="ga121-2" d="M12,15V14H10V11H9v4h3Z"/><path class="ga121-7" d="M19,13H18v1h1Z"/><rect class="ga121-7" x="16" y="12" width="2" height="1"/><path class="ga121-7" d="M13,14V13H12v1Z"/><path class="ga121-7" d="M12,13V12H10v1Z"/><path class="ga121-8" d="M13,23h3V22h1V21h1V20h1V19h1V16H19v2H18v1H17v1H16v1H13V20H12V19H11V18H10V16H9v3h1v1h1v1h1v1h1Z"/><rect class="ga121-2" x="13" y="19" width="3" height="1"/><path class="ga121-9" d="M13,11h1V10h1V9h2V8H16V6H15V5H14V7H13v4Z"/></svg>