<svg xmlns="http://www.w3.org/2000/svg" viewBox="0 0 29 33"><defs><style>polygon,rect,path{shape-rendering:crispedges;}.hb225-1{fill:#d4a122;}.hb225-2{fill:#000000;}.hb225-3{fill:#b2622b;}.hb225-4{fill:#492a23;}.hb225-5{fill:#fad000;}.hb225-6{fill:#00774c;}.hb225-7{fill:#ffffff;}.hb225-8{fill:#9b8100;}.hb225-9{fill:#99004d;}.hb225-10{fill:#cc2f76;}</style></defs><path class="hb225-1" d="M0,33H6V27H7V26H8V25h2V23h1V21H10V20H9V16H8V15H9V10h1V9h1V8h1V9h1V8h3V7h1V8h2V9h1v1H19v1h1v4h1v1H20v4H19v1H18v2h1v2h2v1h1v1h1v6h6V0H0Z"/><rect class="hb225-1" x="16" y="8" width="1" height="1"/><path class="hb225-2" d="M23,27H22v6h1V27Z"/><path class="hb225-3" d="M22,27H21v6h1V27Z"/><rect class="hb225-2" x="21" y="26" width="1" height="1"/><path class="hb225-2" d="M21,27H20v6h1V27Z"/><path class="hb225-3" d="M14,29H13V27H12V26H11V25H10v1H8v1H9v6h5V29Zm-2,0H11V28h1Z"/><path class="hb225-3" d="M13,25h1V24h1v1h1V23H13v2Z"/><path class="hb225-3" d="M20,27h1V26H19V25H18v1H17v1H16v2H15v4h5V27Zm-2,2H17V28h1Z"/><path class="hb225-2" d="M20,26h1V25H19v1Z"/><rect class="hb225-2" x="17" y="28" width="1" height="1"/><path class="hb225-2" d="M15,29H14v4h1V29Z"/><rect class="hb225-2" x="11" y="28" width="1" height="1"/><path class="hb225-2" d="M10,25H8v1h2Z"/><path class="hb225-2" d="M9,27H8v6H9V27Z"/><path class="hb225-3" d="M8,27H7v6H8V27Z"/><rect class="hb225-2" x="7" y="26" width="1" height="1"/><path class="hb225-2" d="M7,27H6v6H7V27Z"/><rect class="hb225-2" x="20" y="15" width="1" height="1"/><path class="hb225-3" d="M10,17h1v1h7V17h1V16h1V15H18v1H16V15H15V14H14v1H13v1H11V15H9v1h1Zm4-1h1v1H14Z"/><rect class="hb225-3" x="10" y="13" width="1" height="1"/><path class="hb225-3" d="M13,13h6V12H18V11H13V10H12v1H11v1h2Z"/><rect class="hb225-2" x="8" y="15" width="1" height="1"/><rect class="hb225-2" x="14" y="16" width="1" height="1"/><path class="hb225-4" d="M12,13h1V12H10v1h2Z"/><path class="hb225-4" d="M18,14h1V13H18Z"/><rect class="hb225-2" x="12" y="26" width="1" height="1"/><path class="hb225-2" d="M15,28v1h1V27H15Z"/><rect class="hb225-2" x="16" y="26" width="1" height="1"/><path class="hb225-2" d="M13,27v2h1V27Z"/><rect class="hb225-2" x="17" y="25" width="1" height="1"/><rect class="hb225-2" x="11" y="25" width="1" height="1"/><rect class="hb225-2" x="14" y="24" width="1" height="1"/><rect class="hb225-2" x="13" y="25" width="1" height="1"/><rect class="hb225-2" x="15" y="25" width="1" height="1"/><path class="hb225-2" d="M17,25V23H16v2Z"/><path class="hb225-2" d="M13,24V23H12v2h1Z"/><rect class="hb225-5" x="16" y="25" width="1" height="1"/><path class="hb225-5" d="M15,26V25H14v1H13v1h1v2h1V27h1V26Z"/><rect class="hb225-5" x="12" y="25" width="1" height="1"/><path class="hb225-5" d="M11,25h1V23H11v2Z"/><path class="hb225-5" d="M17,24v1h1V23H17Z"/><path class="hb225-2" d="M19,25V23H18v2Z"/><path class="hb225-2" d="M11,24V23H10v2h1Z"/><path class="hb225-2" d="M17,23h1V22H17Z"/><path class="hb225-2" d="M12,22H11v1h1Z"/><path class="hb225-6" d="M12,23h5V22h1V21h1V20h1V16H19v1H18v1H17v1H16v1H13V19H12V18H11V17H10V16H9v4h1v1h1v1h1Z"/><path class="hb225-2" d="M12,18v1h1V18Z"/><path class="hb225-2" d="M16,19h1V18H16Z"/><path class="hb225-2" d="M15,18H14v1H13v1h3V19H15Z"/><path class="hb225-7" d="M14,18H13v1h1Z"/><path class="hb225-7" d="M15,18v1h1V18Z"/><path class="hb225-8" d="M10,13V12h1V11h1V10h1v1h5v1h1v2h1V11H19V10h1V9H19V8H17V9H16V8H13V9H12V8H11V9H10v1H9v4h1Z"/><rect class="hb225-8" x="16" y="7" width="1" height="1"/><path class="hb225-9" d="M12,14H11v1h2V14Z"/><path class="hb225-9" d="M17,14H16v1h2V14Z"/><path class="hb225-10" d="M11,16h2V15H11Z"/><path class="hb225-2" d="M18,14v1h2V14H18Z"/><path class="hb225-2" d="M11,14H9v1h2Z"/><path class="hb225-2" d="M17,14h1V13H11v1h2v1h1V14h1v1h1V14Z"/><path class="hb225-10" d="M16,16h2V15H16Z"/></svg>