<svg xmlns="http://www.w3.org/2000/svg" viewBox="0 0 29 33"><defs><style>polygon,rect,path{shape-rendering:crispedges;}.gb200-1{fill:#397d98;}.gb200-2{fill:#000000;}.gb200-3{fill:#875070;}.gb200-4{fill:#ffffff;}.gb200-5{fill:#c18d59;}.gb200-6{fill:#90a2a3;}.gb200-7{fill:#ffffff;}.gb200-8{fill:#b23b00;}.gb200-9{fill:#db5800;}</style></defs><path class="gb200-1" d="M6,32V27H7V26H8V25H9V24h1V23h1V22h1V21H11V20H9V19H8V11H9V10h1V9h1V8h7V9h1v1h1v1h1v8H20v1H18v1H17v1h1v1h1v1h1v1h1v1h1v1h1v6h6V0H0V33H6Z"/><path class="gb200-2" d="M23,27H22v6h1V27Z"/><path class="gb200-3" d="M22,27H21v6h1V27Z"/><path class="gb200-2" d="M21,27h1V26H21V25H20v2H17v1h2v1h1v4h1V27Z"/><rect class="gb200-2" x="19" y="24" width="1" height="1"/><path class="gb200-3" d="M20,29H19v1H18v1H17v1H16v1h4V29Z"/><rect class="gb200-2" x="18" y="23" width="1" height="1"/><path class="gb200-3" d="M18,25H17v1H16v5h1V30h1V29h1V28H17V27h2V26h1V25H19V24H18Z"/><rect class="gb200-3" x="17" y="23" width="1" height="1"/><rect class="gb200-2" x="17" y="24" width="1" height="1"/><rect class="gb200-2" x="18" y="29" width="1" height="1"/><rect class="gb200-2" x="16" y="25" width="1" height="1"/><path class="gb200-4" d="M15,27H14v6h1V27Z"/><path class="gb200-2" d="M12,24h1V23h3v1h1V23h1V22H17V21H16v1H13V21H12v1H11v1h1Z"/><path class="gb200-5" d="M17,25V24H16V23H13v1H12v1h1v1h3V25Z"/><rect class="gb200-2" x="12" y="25" width="1" height="1"/><path class="gb200-3" d="M12,32V31H11V30H10V29H9v4h4V32Z"/><rect class="gb200-3" x="11" y="23" width="1" height="1"/><rect class="gb200-2" x="11" y="24" width="1" height="1"/><rect class="gb200-2" x="11" y="30" width="1" height="1"/><rect class="gb200-2" x="10" y="23" width="1" height="1"/><rect class="gb200-2" x="9" y="24" width="1" height="1"/><path class="gb200-3" d="M10,26v1h2v1H10v1h1v1h1v1h1V26H12V25H11V24H10v1H9v1Z"/><path class="gb200-2" d="M9,29h1V28h2V27H9V25H8v1H7v1H8v6H9V29Z"/><path class="gb200-3" d="M8,27H7v6H8V27Z"/><path class="gb200-2" d="M7,27H6v6H7V27Z"/><rect class="gb200-2" x="10" y="29" width="1" height="1"/><rect class="gb200-2" x="17" y="30" width="1" height="1"/><path class="gb200-2" d="M17,32V31H16V26H13v5H12v1h1v1h1V27h1v6h1V32Z"/><path class="gb200-6" d="M9,26v1h1V26Z"/><path class="gb200-6" d="M19,27h1V26H19Z"/><path class="gb200-5" d="M13,22h3V21h1V20h1V19h1V16h1V15H16V14h2V13H16V12h1V11H15V10H14v1H13v1H12v1h1v2H9v1h1v3h1v1h1v1h1Zm1-6h1v1H14Zm-1,3h3V18h1v1H16v1H13Z"/><rect class="gb200-5" x="11" y="13" width="1" height="1"/><path class="gb200-2" d="M20,16H19v3h1V16Z"/><path class="gb200-2" d="M18,19v1h1V19Z"/><rect class="gb200-2" x="17" y="20" width="1" height="1"/><rect class="gb200-2" x="11" y="20" width="1" height="1"/><path class="gb200-2" d="M10,19v1h1V19Z"/><path class="gb200-2" d="M10,18V16H9v3h1Z"/><rect class="gb200-2" x="14" y="16" width="1" height="1"/><path class="gb200-7" d="M18,14v1h1V14Z"/><path class="gb200-7" d="M12,15h1V14H12Z"/><path class="gb200-2" d="M17,14H16v1h2V14Z"/><path class="gb200-2" d="M11,14H10v1h2V14Z"/><rect class="gb200-8" x="18" y="13" width="1" height="1"/><path class="gb200-8" d="M16,12v1h1V12Z"/><path class="gb200-8" d="M13,14V13H12v1Z"/><rect class="gb200-2" x="13" y="19" width="3" height="1"/><rect class="gb200-2" x="16" y="18" width="1" height="1"/><path class="gb200-9" d="M9,16V15h1V14h1V13h1V12h1V11h1V10h1v1h2v2h2v2h1v4h1V11H20V10H19V9H18V8H11V9H10v1H9v1H8v8H9V16Z"/><path class="gb200-9" d="M9,19v1h1V19Z"/><path class="gb200-9" d="M19,20h1V19H19Z"/></svg>