<svg xmlns="http://www.w3.org/2000/svg" viewBox="0 0 29 33"><defs><style>polygon,rect,path{shape-rendering:crispedges;}.hb230-1{fill:#d14646;}.hb230-2{fill:#000000;}.hb230-3{fill:#ce8452;}.hb230-4{fill:#5e362f;}.hb230-5{fill:#5e362f;}.hb230-6{fill:#e1ff85;}.hb230-7{fill:#f9e100;}</style></defs><path class="hb230-1" d="M6,32V27H7V26H8V25h2V24h2V21H11V20H10V19H9V16H8V14H9V12H8v1H7V12H8V11H9V10h1V9h2V8h5V9h2v1h1v1h1v1h1v1H21V12H20v2h1v2H20v3H19v1H18v1H17v3h2v1h2v1h1v1h1v6h6V0H0V33H6Z"/><path class="hb230-2" d="M23,27H22v6h1V27Z"/><path class="hb230-3" d="M22,27H21v6h1V27Z"/><rect class="hb230-2" x="21" y="26" width="1" height="1"/><path class="hb230-2" d="M21,27H20v6h1V27Z"/><path class="hb230-3" d="M20,27h1V26H19V25H17V24H16V23H13v1H12v1H10v1H8v1H9v6h5V29h1v4h5V27Zm-8,2H11V28h1Zm6,0H17V28h1Z"/><path class="hb230-2" d="M20,26h1V25H19v1Z"/><rect class="hb230-2" x="17" y="28" width="1" height="1"/><path class="hb230-2" d="M18,25h1V24H17v1Z"/><path class="hb230-2" d="M15,29H14v4h1V29Z"/><path class="hb230-2" d="M13,23h3v1h1V21H16v1H13V21H12v3h1Z"/><rect class="hb230-2" x="11" y="28" width="1" height="1"/><path class="hb230-2" d="M12,24H10v1h2Z"/><path class="hb230-2" d="M10,25H8v1h2Z"/><path class="hb230-2" d="M9,27H8v6H9V27Z"/><path class="hb230-3" d="M8,27H7v6H8V27Z"/><rect class="hb230-2" x="7" y="26" width="1" height="1"/><path class="hb230-2" d="M7,27H6v6H7V27Z"/><path class="hb230-2" d="M20,16h1V15H20Z"/><rect class="hb230-3" x="19" y="15" width="1" height="1"/><polygon class="hb230-3" points="14 13 14 14 15 14 15 13 16 13 16 12 15 12 15 11 14 11 14 12 13 12 13 13 14 13"/><path class="hb230-3" d="M12,19V18h5v2h1V19h1V16H16V15H13v1H10v3h1v1h1Zm2-3h1v1H14Z"/><path class="hb230-3" d="M13,20v2h3V20Z"/><rect class="hb230-3" x="9" y="15" width="1" height="1"/><path class="hb230-2" d="M19,17v2h1V16H19Z"/><rect class="hb230-2" x="18" y="19" width="1" height="1"/><rect class="hb230-2" x="17" y="20" width="1" height="1"/><rect class="hb230-2" x="11" y="20" width="1" height="1"/><rect class="hb230-2" x="10" y="19" width="1" height="1"/><path class="hb230-2" d="M10,16H9v3h1V16Z"/><path class="hb230-2" d="M8,15v1H9V15Z"/><rect class="hb230-2" x="14" y="16" width="1" height="1"/><rect class="hb230-4" x="16" y="12" width="1" height="1"/><rect class="hb230-4" x="12" y="12" width="1" height="1"/><path class="hb230-5" d="M17,19V18H13v1h3v2h1V19Z"/><path class="hb230-5" d="M13,20V19H12v2h1Z"/><path class="hb230-2" d="M16,19H13v1h3Z"/><path class="hb230-2" d="M12,18v1h1V18Z"/><rect class="hb230-6" x="21" y="12" width="1" height="1"/><path class="hb230-6" d="M10,13h2V12h2V11h1v1h2v1h2v1h1V12h1V11H20V10H19V9H17V8H12V9H10v1H9v1H8v1H9v2h1Z"/><path class="hb230-6" d="M21,15V14H20v1Z"/><path class="hb230-6" d="M9,14H8v1H9Z"/><rect class="hb230-6" x="7" y="12" width="1" height="1"/><path class="hb230-7" d="M13,14H10v2h3V15h1V14Z"/><path class="hb230-7" d="M19,14H15v1h1v1h3V14Z"/><path class="hb230-2" d="M15,13v1h4V13H15Z"/><path class="hb230-2" d="M13,14h1V13H10v1h3Z"/><path class="hb230-2" d="M19,15h1V14H19Z"/><path class="hb230-2" d="M10,15V14H9v1Z"/><path class="hb230-2" d="M14,14v1h1V14Z"/></svg>