<svg xmlns="http://www.w3.org/2000/svg" viewBox="0 0 29 33"><defs><style>polygon,rect,path{shape-rendering:crispedges;}.ta99-1{fill:#31a09d;}.ta99-2{fill:#000000;}.ta99-3{fill:#ff791f;}.ta99-4{fill:#c18d59;}.ta99-5{fill:#492a23;}.ta99-6{fill:#0068ff;}.ta99-7{fill:#ffffff;}.ta99-8{fill:#0068ff;}.ta99-9{fill:#ff1f4a;}</style></defs><path class="ta99-1" d="M6,32V27H7V26H8V25h2V24h1V23H10V22H9V21H8V20H7V11H8V10H9V9h1V8h1V7h7V8h1V9h1v1h1v1h1v9H21v1H20v1H19v1H18v1h1v1h2v1h1v1h1v6h6V0H0V33H6Z"/><path class="ta99-2" d="M23,27H22v6h1V27Z"/><path class="ta99-3" d="M22,27H21v6h1V27Z"/><rect class="ta99-2" x="21" y="26" width="1" height="1"/><path class="ta99-2" d="M21,27H20v6h1V27Z"/><path class="ta99-3" d="M20,27h1V26H19V25H18V24H16v1h1v5H16V25H13v5H12V25h1V24H11v1H10v1H8v1H9v6H20V27Z"/><path class="ta99-2" d="M20,26h1V25H19v1Z"/><rect class="ta99-2" x="18" y="24" width="1" height="1"/><path class="ta99-2" d="M16,24h2V23H16Z"/><path class="ta99-2" d="M13,24v1h3V24H13Z"/><path class="ta99-4" d="M15,23H13v1h3V23Z"/><path class="ta99-2" d="M13,23H11v1h2Z"/><rect class="ta99-2" x="10" y="24" width="1" height="1"/><path class="ta99-2" d="M10,25H8v1h2Z"/><path class="ta99-2" d="M9,27H8v6H9V27Z"/><path class="ta99-3" d="M8,27H7v6H8V27Z"/><rect class="ta99-2" x="7" y="26" width="1" height="1"/><path class="ta99-2" d="M7,27H6v6H7V27Z"/><path class="ta99-2" d="M12,26v4h1V25H12Z"/><path class="ta99-2" d="M16,30h1V25H16v5Z"/><rect class="ta99-4" x="14" y="15" width="1" height="1"/><path class="ta99-4" d="M14,11v1H13v1h1v1h1V11Z"/><path class="ta99-4" d="M16,22V21h1V20h1V19h1V18H18V16H17v1H16V16H15v1H14V16H11v2H10v1h1v1h1v1h1v1h3Zm-3-3h3V18h1v1H16v1H13Z"/><rect class="ta99-2" x="14" y="16" width="1" height="1"/><path class="ta99-5" d="M17,12H16v1h2V12Z"/><rect class="ta99-5" x="11" y="12" width="1" height="1"/><path class="ta99-6" d="M10,17v1h1V16H10Z"/><path class="ta99-6" d="M19,16H18v2h1V16Z"/><path class="ta99-6" d="M12,13h1V12h1V11H12v2Z"/><rect class="ta99-6" x="18" y="12" width="1" height="1"/><path class="ta99-6" d="M15,13h1V12h1V11H15Z"/><rect class="ta99-6" x="10" y="12" width="1" height="1"/><rect class="ta99-6" x="16" y="16" width="1" height="1"/><path class="ta99-3" d="M13,22H12V21H11V20H10V19H9V12h1V11h2V10h5v1h2v1h1v7H19v1H18v1H17v1H16v1h2V22h1V21h1V20h1V11H20V10H19V9H18V8H11V9H10v1H9v1H8v9H9v1h1v1h1v1h2Z"/><rect class="ta99-2" x="10" y="8" width="1" height="1"/><rect class="ta99-2" x="9" y="9" width="1" height="1"/><rect class="ta99-2" x="8" y="10" width="1" height="1"/><path class="ta99-2" d="M8,11H7v9H8V11Z"/><rect class="ta99-2" x="8" y="20" width="1" height="1"/><rect class="ta99-2" x="9" y="21" width="1" height="1"/><rect class="ta99-2" x="10" y="22" width="1" height="1"/><rect class="ta99-2" x="18" y="22" width="1" height="1"/><rect class="ta99-2" x="19" y="21" width="1" height="1"/><rect class="ta99-2" x="20" y="20" width="1" height="1"/><path class="ta99-2" d="M21,20h1V11H21v9Z"/><rect class="ta99-2" x="20" y="10" width="1" height="1"/><rect class="ta99-2" x="19" y="9" width="1" height="1"/><rect class="ta99-2" x="18" y="8" width="1" height="1"/><path class="ta99-2" d="M18,8V7H11V8h7Z"/><path class="ta99-2" d="M12,12V11H10v1h2Z"/><path class="ta99-2" d="M10,17V16H9v3h1V17Z"/><path class="ta99-2" d="M10,12H9v1h1Z"/><rect class="ta99-2" x="10" y="19" width="1" height="1"/><rect class="ta99-2" x="11" y="20" width="1" height="1"/><rect class="ta99-2" x="12" y="21" width="1" height="1"/><path class="ta99-2" d="M16,23V22H13v1h3Z"/><rect class="ta99-2" x="16" y="21" width="1" height="1"/><rect class="ta99-2" x="17" y="20" width="1" height="1"/><rect class="ta99-2" x="18" y="19" width="1" height="1"/><path class="ta99-2" d="M19,17v2h1V16H19Z"/><path class="ta99-2" d="M20,13V12H19v1Z"/><path class="ta99-2" d="M18,12h1V11H17v1Z"/><path class="ta99-2" d="M15,11h2V10H12v1h3Z"/><path class="ta99-7" d="M11,16h3V15h1v1h5V13H15v1H14V13H9v3h2Zm5-2h3v1H16Zm-6,0h3v1H10Z"/><path class="ta99-8" d="M19,15V14H16v1h3Z"/><path class="ta99-9" d="M13,15V14H10v1h3Z"/><rect class="ta99-2" x="13" y="19" width="3" height="1"/><rect class="ta99-2" x="16" y="18" width="1" height="1"/></svg>