<svg xmlns="http://www.w3.org/2000/svg" viewBox="0 0 29 33"><defs><style>polygon,rect,path{shape-rendering:crispedges;}.xa142-1{fill:#e55b35;}.xa142-2{fill:#9b8100;}.xa142-3{fill:#000000;}.xa142-4{fill:#6d3e35;}.xa142-5{fill:#f9e100;}.xa142-6{fill:#ffffff;}.xa142-7{fill:#8e703c;}.xa142-8{fill:#825fff;}</style></defs><path class="xa142-1" d="M6,32V27H7V26H8V25h2V22H9V16H8V15H9V10h1V9h1V8h7V9h1v1h1v5h1v1H20v8H19v1h2v1h1v1h1v6h6V0H0V33H6Z"/><path class="xa142-2" d="M19,26v1H18V26H17V24H16v2H15v1H14v3h1v1h3V30h1v1h1V29H19V28h1V27h1V26H19Zm-1,3H17v1H16V29H15V28h1V27h1v1h1Z"/><rect class="xa142-2" x="21" y="27" width="1" height="1"/><path class="xa142-2" d="M21,30v1h1V29H21Z"/><rect class="xa142-2" x="21" y="32" width="1" height="1"/><path class="xa142-2" d="M17,32H15v1h3V32Z"/><rect class="xa142-2" x="9" y="32" width="1" height="1"/><path class="xa142-2" d="M13,32H11v1h3V32Z"/><rect class="xa142-2" x="19" y="32" width="1" height="1"/><path class="xa142-2" d="M7,30v1H8V29H7Z"/><rect class="xa142-2" x="7" y="32" width="1" height="1"/><rect class="xa142-2" x="7" y="27" width="1" height="1"/><path class="xa142-2" d="M9,27v1h1v1H9v2h1V30h1v1h2V30H12V29H11V28h1V27h2V26H13V24H12v2H11v1H10V26H8v1Z"/><path class="xa142-3" d="M23,27H22v6h1V27Z"/><rect class="xa142-3" x="21" y="26" width="1" height="1"/><path class="xa142-3" d="M21,31V27H20v4H14V27H13v4H9V27H8v6H9V32H20v1h1V31Z"/><path class="xa142-3" d="M20,26h1V25H19v1Z"/><path class="xa142-3" d="M15,25h1V24H15Z"/><path class="xa142-3" d="M15,26V25H14v2h1Z"/><path class="xa142-3" d="M14,24H13v1h1Z"/><path class="xa142-4" d="M14,25h1V24h1V23H13v1h1Z"/><path class="xa142-3" d="M10,25H8v1h2Z"/><rect class="xa142-3" x="7" y="26" width="1" height="1"/><path class="xa142-3" d="M7,31V27H6v6H7V31Z"/><rect class="xa142-3" x="20" y="15" width="1" height="1"/><path class="xa142-4" d="M18,15H16V13h2V11H17V10H14v1H12v1h1v1H11v1h2v1H10v4h1v1h1v1h1v1h3V21h1V20h1V19h1V16h1V15H18Zm-4,1h1v1H14Zm2,4H13V19h3Z"/><path class="xa142-3" d="M19,17v2h1V16H19Z"/><rect class="xa142-3" x="18" y="19" width="1" height="1"/><rect class="xa142-3" x="17" y="20" width="1" height="1"/><path class="xa142-3" d="M14,23h2v1h1V21H16v1H13V21H12v3h1V23Z"/><rect class="xa142-3" x="11" y="20" width="1" height="1"/><rect class="xa142-3" x="10" y="19" width="1" height="1"/><path class="xa142-3" d="M10,18V16H9v3h1Z"/><rect class="xa142-3" x="8" y="15" width="1" height="1"/><rect class="xa142-3" x="14" y="16" width="1" height="1"/><path class="xa142-5" d="M10,30v1h1V30Z"/><path class="xa142-5" d="M10,32v1h1V32Z"/><path class="xa142-5" d="M12,28H11v1h1v1h1V27H12Z"/><path class="xa142-5" d="M10,27h1V25H10v2Z"/><path class="xa142-5" d="M15,26h1V25H15Z"/><path class="xa142-5" d="M13,25v1h1V25Z"/><polygon class="xa142-5" points="17 27 16 27 16 28 15 28 15 29 16 29 16 30 17 30 17 29 18 29 18 28 17 28 17 27"/><path class="xa142-5" d="M18,26V25H17v1Z"/><path class="xa142-5" d="M7,29H8V28H7Z"/><path class="xa142-5" d="M10,28H9v1h1Z"/><path class="xa142-5" d="M21,29h1V28H21Z"/><path class="xa142-5" d="M19,29h1V28H19Z"/><path class="xa142-5" d="M21,32h1V31H21Z"/><path class="xa142-5" d="M7,32H8V31H7Z"/><path class="xa142-5" d="M14,30v1h1V30Z"/><path class="xa142-5" d="M14,32v1h1V32Z"/><path class="xa142-5" d="M18,30v1h1V30Z"/><path class="xa142-5" d="M18,32v1h1V32Z"/><path class="xa142-6" d="M11,14H10v1h1Z"/><path class="xa142-6" d="M16,14v1h1V14Z"/><path class="xa142-3" d="M12,15h1V14H11v1Z"/><path class="xa142-3" d="M17,15h2V14H17Z"/><path class="xa142-7" d="M13,12H11v1h2Z"/><path class="xa142-7" d="M16,14h3V13H16Z"/><rect class="xa142-3" x="13" y="19" width="3" height="1"/><path class="xa142-8" d="M19,20H18v1H17v4h1v2h1V24h1V19H19Z"/><path class="xa142-8" d="M10,15V14h1V12h1V11h2V10h3v1h1v2h1v2h1V10H19V9H18V8H11V9H10v1H9v6h1Z"/><path class="xa142-8" d="M11,26h1V21H11V20H10V19H9v3h1v3h1Z"/></svg>