<svg xmlns="http://www.w3.org/2000/svg" viewBox="0 0 29 33"><defs><style>polygon,rect,path{shape-rendering:crispedges;}.cb41-1{fill:#29834f;}.cb41-2{fill:#000000;}.cb41-3{fill:#333333;}.cb41-4{fill:#ffffff;}.cb41-5{fill:#b2622b;}.cb41-6{fill:#316a6d;}.cb41-7{fill:#cc2f76;}.cb41-8{fill:#cbed03;}.cb41-9{fill:#304400;}.cb41-10{fill:#fafafa;}.cb41-11{fill:#ff791f;}</style></defs><path class="cb41-1" d="M18,23v1h1V21H18v1H17v1Z"/><rect class="cb41-1" x="19" y="20" width="1" height="1"/><path class="cb41-1" d="M0,33H6V27H7V26H8V25h2V24h1V23h1V22H11V21H10V20H9V16H8V15H9V11h1V10h1V9h7v1h1v1h1v4h1v1H20v4h1V19h1V18h1v2h1v1h1v1h1v4H25v1H24v1H23v5h6V0H0Z"/><path class="cb41-2" d="M23,28h1V27H20v6h1V28h1v5h1V28Z"/><path class="cb41-3" d="M22,28H21v5h1V28Z"/><path class="cb41-3" d="M20,27H19V25H18v4H17v4h3V27Z"/><path class="cb41-2" d="M17,29H16v4h1V29Z"/><rect class="cb41-4" x="16" y="24" width="1" height="1"/><path class="cb41-4" d="M16,29h1V26H16V25H13v1H12v3h1v4h1V32h1v1h1V29Zm-1,2H14V30h1Zm0-2H14V28h1Zm0-2H14V26h1Z"/><rect class="cb41-4" x="15" y="23" width="1" height="1"/><rect class="cb41-2" x="14" y="32" width="1" height="1"/><rect class="cb41-2" x="14" y="30" width="1" height="1"/><rect class="cb41-2" x="14" y="28" width="1" height="1"/><rect class="cb41-2" x="14" y="26" width="1" height="1"/><path class="cb41-2" d="M15,24V23H14v1H13v1h3V24Z"/><rect class="cb41-4" x="13" y="23" width="1" height="1"/><path class="cb41-2" d="M13,29H12v4h1V29Z"/><rect class="cb41-4" x="12" y="24" width="1" height="1"/><path class="cb41-3" d="M12,29H11V25H10v1H8v1H9v6h3V29Z"/><path class="cb41-2" d="M11,26v3h1V26h1V25H12V24h1V22H12v1H11v1H10v1h1Z"/><path class="cb41-2" d="M10,25H8v1h2Z"/><path class="cb41-2" d="M9,27H8v6H9V27Z"/><path class="cb41-3" d="M8,27H7v6H8V27Z"/><rect class="cb41-2" x="7" y="26" width="1" height="1"/><path class="cb41-2" d="M7,27H6v6H7V27Z"/><rect class="cb41-2" x="20" y="15" width="1" height="1"/><path class="cb41-2" d="M19,13v2h1V11H19v2Z"/><rect class="cb41-5" x="13" y="20" width="1" height="1"/><rect class="cb41-5" x="15" y="20" width="1" height="1"/><rect class="cb41-5" x="9" y="15" width="1" height="1"/><rect class="cb41-5" x="19" y="15" width="1" height="1"/><path class="cb41-5" d="M18,14h1V13H17v1Z"/><path class="cb41-5" d="M15,10v5H14v1h1v1H14V16H13v1H11V16H10v2h1v1h1V18h2v1h1V18h2v1h1V18h1V16H16V13h1V12h2V11H18V10H15Z"/><rect class="cb41-2" x="18" y="10" width="1" height="1"/><rect class="cb41-2" x="8" y="15" width="1" height="1"/><rect class="cb41-2" x="14" y="16" width="1" height="1"/><path class="cb41-4" d="M16,14v2h1V14Z"/><path class="cb41-4" d="M19,14H18v2h1V14Z"/><path class="cb41-2" d="M17,14v2h1V14Z"/><path class="cb41-6" d="M17,13H16v1h1Z"/><path class="cb41-6" d="M19,12H17v1h2Z"/><path class="cb41-7" d="M14,18H13v1h1Z"/><path class="cb41-7" d="M13,23h3V22h2V21h1V20h1V16H19v2H18v1H17V18H15v1h1v2H15V20H14v1H13V19H11V18H10V16H9v4h1v1h1v1h2Z"/><path class="cb41-2" d="M13,19v1h3V19H13Z"/><path class="cb41-2" d="M12,18v1h1V18Z"/><path class="cb41-8" d="M11,15h2V13H11v2Z"/><path class="cb41-9" d="M14,15V13H13v2Z"/><path class="cb41-9" d="M11,15v1h2V15Z"/><path class="cb41-9" d="M11,14V13H10v2h1Z"/><rect class="cb41-9" x="11" y="12" width="2" height="1"/><rect class="cb41-2" x="10" y="15" width="1" height="1"/><path class="cb41-2" d="M11,17h2V16H11Z"/><rect class="cb41-2" x="13" y="15" width="1" height="1"/><path class="cb41-2" d="M10,14V13h1V12h2v1h1v2h1V10h3V9H11v1H10v1H9v4h1Z"/><rect class="cb41-10" x="23" y="23" width="1" height="1"/><rect class="cb41-10" x="20" y="23" width="1" height="1"/><path class="cb41-5" d="M23,22H22V21H20v2h2v1H19v1h1v1H19v1h5V26H21V25h3v1h1V24H23V23h2V22H24V21H23Z"/><path class="cb41-2" d="M23.25,25H21v1h3V25Z"/><path class="cb41-2" d="M22,24V23H21v1Z"/><path class="cb41-2" d="M24,23v1h1v2h1V22H25v1Z"/><path class="cb41-2" d="M19,24h1V21H19v3Z"/><path class="cb41-2" d="M21,21V20H20v1Z"/><rect class="cb41-2" x="23" y="20" width="1" height="1"/><rect class="cb41-2" x="24" y="21" width="1" height="1"/><rect class="cb41-2" x="24" y="26" width="1" height="1"/><path class="cb41-11" d="M22,21v1h1V18H22v1H21v2Z"/><path class="cb41-2" d="M18,24V23H17V22H16v2h1v1H16v1h1v3h1V25h1V24Z"/><path class="cb41-2" d="M20,25H19v1h1Z"/></svg>