<svg xmlns="http://www.w3.org/2000/svg" viewBox="0 0 29 33"><defs><style>polygon,rect,path{shape-rendering:crispedges;}.ha128-1{fill:#6b4f99;}.ha128-2{fill:#000000;}.ha128-3{fill:#ffed9f;}.ha128-4{fill:#e8b795;}.ha128-5{fill:#ffed9f;}.ha128-6{fill:#ffffff;}.ha128-7{fill:#99004d;}.ha128-8{fill:#99004d;}.ha128-9{fill:#ff1d99;}.ha128-10{fill:#6d5800;}.ha128-11{fill:#fad000;}.ha128-12{fill:#ea1500;}</style></defs><path class="ha128-1" d="M0,33H6V27H7V26H8V25h2V24h2V21H10V20H9V16H8V15H9V11h1V10h1V9h2V7h1V6h2V5h2V6H17V7h1v3h1v1h1v4h1v1H20v4H19v1H17v3h2v1h2V23h1V22H21V19h1v1h1V18h1V17h3v5H26v1H25v1H24v7H23v1H21v1h8V0H0Z"/><path class="ha128-2" d="M23,25v6h1V24H23Z"/><path class="ha128-3" d="M23,25V24H22v7h1V25Z"/><path class="ha128-2" d="M22,32h1V31H22V23H21v2H19v1h2v1H20v6h1V32Z"/><path class="ha128-3" d="M20,27h1V26H19V25H17v1H16v1H13V26H12V25H10v1H8v1H9v6H20V27Zm-9,2v3H10V28h1Zm4,3H12V28h3Zm4-3H17v2h1V30h1v2H16V28h3Z"/><rect class="ha128-3" x="13" y="29" width="1" height="2"/><path class="ha128-2" d="M18,25h1V24H17v1Z"/><rect class="ha128-2" x="16" y="25" width="1" height="1"/><path class="ha128-2" d="M13,26v1h3V26H13Z"/><path class="ha128-2" d="M13,23h3v1h1V21H16v1H13V21H12v3h1Z"/><path class="ha128-4" d="M13,25v1h3V25h1V24H16V23H13v1H12v1Z"/><rect class="ha128-2" x="12" y="25" width="1" height="1"/><path class="ha128-2" d="M12,24H10v1h2Z"/><path class="ha128-2" d="M10,25H8v1h2Z"/><path class="ha128-2" d="M9,27H8v6H9V27Z"/><rect class="ha128-2" x="7" y="26" width="1" height="1"/><path class="ha128-3" d="M8,27H7v6H8V27Z"/><path class="ha128-2" d="M7,27H6v6H7V27Z"/><path class="ha128-5" d="M12,32h3V28H12Zm1-3h1v2H13Z"/><path class="ha128-5" d="M10,29v3h1V28H10Z"/><path class="ha128-5" d="M16,28v4h3V30H18v1H17V29h2V28H16Z"/><rect class="ha128-2" x="20" y="15" width="1" height="1"/><path class="ha128-2" d="M19,13v2h1V11H19v2Z"/><path class="ha128-4" d="M18,14h1V13H17v1Z"/><path class="ha128-4" d="M13,22h3V21h1V20h1V18h1V16h1V15H16V13h1V12h2V11H18V10H15v1H13V10H11v1H10v2h1V12h2v1H11v1h2v1H9v1h1v2h1v2h1v1h1Zm1-6h1v1H14Zm-2,3V18h1v1h3v1H13V19Z"/><path class="ha128-2" d="M19,17h1V16H19Z"/><rect class="ha128-2" x="18" y="10" width="1" height="1"/><path class="ha128-2" d="M16,10h2V9H16Z"/><path class="ha128-2" d="M13,9H11v1h2Z"/><rect class="ha128-2" x="10" y="10" width="1" height="1"/><path class="ha128-2" d="M10,14V11H9v4h1Z"/><path class="ha128-2" d="M10,16H9v1h1Z"/><rect class="ha128-2" x="8" y="15" width="1" height="1"/><rect class="ha128-2" x="14" y="16" width="1" height="1"/><path class="ha128-6" d="M13,15V14H12v1Z"/><path class="ha128-6" d="M10,15h1V14H10Z"/><path class="ha128-6" d="M18,14v1h1V14Z"/><path class="ha128-6" d="M16,14v1h1V14Z"/><path class="ha128-2" d="M12,15V14H11v1Z"/><path class="ha128-2" d="M17,14v1h1V14Z"/><path class="ha128-7" d="M11,14V13H10v1Z"/><rect class="ha128-7" x="11" y="12" width="2" height="1"/><path class="ha128-7" d="M17,13H16v1h1Z"/><path class="ha128-7" d="M19,12H17v1h2Z"/><path class="ha128-8" d="M19,18H18v2H17v1h2V20h1V17H19Z"/><path class="ha128-8" d="M11,20V18H10V17H9v3h1v1h2V20Z"/><rect class="ha128-2" x="13" y="19" width="3" height="1"/><rect class="ha128-2" x="12" y="18" width="1" height="1"/><path class="ha128-9" d="M13,11h2V10h1V9h2V7H17V6h1V5H16V6H14V7H13v4Z"/><path class="ha128-10" d="M21,21v1h1V21Z"/><path class="ha128-11" d="M24,21h1v1H24v1h2V22h1V20H25V19H24V18H23v2H22V19H21v2h1v1h2Z"/><path class="ha128-4" d="M23,24h1V23H22v1Z"/><path class="ha128-10" d="M24,22H22v1h2Z"/><path class="ha128-2" d="M24,24h1V23H24Z"/><rect class="ha128-10" x="24" y="21" width="1" height="1"/><rect class="ha128-2" x="24" y="18" width="1" height="1"/><path class="ha128-12" d="M25,19v1h2V19H25Z"/><path class="ha128-11" d="M25,19h1V18h1V17H24v1h1Z"/><path class="ha128-2" d="M26,19h1V18H26Z"/><rect class="ha128-9" x="18" y="9" width="1" height="1"></rect></svg>