<svg xmlns="http://www.w3.org/2000/svg" viewBox="0 0 29 33"><defs><style>polygon,rect,path{shape-rendering:crispedges;}.gb34-1{fill:#7a982c;}.gb34-2{fill:#000000;}.gb34-3{fill:#333333;}.gb34-4{fill:#ffffff;}.gb34-5{fill:#6d3e35;}.gb34-6{fill:#90a2a3;}.gb34-7{fill:#af8423;}.gb34-8{fill:#ffffff;}.gb34-9{fill:#ff791f;}.gb34-10{fill:#ff6aa5;}.gb34-11{fill:#ff1f4a;}.gb34-12{fill:#ff791f;}.gb34-13{fill:#fad000;}.gb34-14{fill:#b6dc00;}.gb34-15{fill:#00af68;}.gb34-16{fill:#38a6e8;}.gb34-17{fill:#0068ff;}.gb34-18{fill:#6e12ff;}.gb34-19{fill:#ff1d99;}.gb34-20{fill:#cc2f76;}</style></defs><path class="gb34-1" d="M0,33H6V26H7V25H8V24H7V23H6V20H7V19H8V12H9V10h1V9h1V8h7V9h1v1h1v2h1v7h1v1H21v1H20v1H19V21H18v2h1v1h1v1h1v1h1v1h1v6h6V0H0Z"/><path class="gb34-2" d="M23,27H22v6h1V27Z"/><path class="gb34-3" d="M22,27H21v6h1V27Z"/><path class="gb34-2" d="M21,27h1V26H21V25H20v2H17v1h2v1h1v4h1V27Z"/><rect class="gb34-2" x="19" y="24" width="1" height="1"/><path class="gb34-3" d="M20,29H19v1H18v1H17v1H16v1h4V29Z"/><rect class="gb34-2" x="18" y="23" width="1" height="1"/><path class="gb34-3" d="M18,25H17v1H16v5h1V30h1V29h1V28H17V27h2V26h1V25H19V24H18Z"/><rect class="gb34-3" x="17" y="23" width="1" height="1"/><rect class="gb34-2" x="17" y="24" width="1" height="1"/><rect class="gb34-2" x="18" y="29" width="1" height="1"/><rect class="gb34-2" x="16" y="25" width="1" height="1"/><path class="gb34-4" d="M15,27H14v6h1V27Z"/><path class="gb34-5" d="M17,25V24H16V23H13v1H12v1h1v1h3V25Z"/><rect class="gb34-2" x="12" y="25" width="1" height="1"/><path class="gb34-3" d="M12,32V31H11V30H10V29H9v4h4V32Z"/><rect class="gb34-3" x="11" y="23" width="1" height="1"/><rect class="gb34-2" x="11" y="24" width="1" height="1"/><rect class="gb34-2" x="11" y="30" width="1" height="1"/><rect class="gb34-2" x="10" y="23" width="1" height="1"/><rect class="gb34-2" x="9" y="24" width="1" height="1"/><path class="gb34-3" d="M12,25H11V24H10v1H9v1h1v1h2v1H10v1h1v1h1v1h1V26H12Z"/><path class="gb34-2" d="M9,29h1V28h2V27H10V26H9v2H8v5H9V29Z"/><path class="gb34-3" d="M8,28H7v5H8V28Z"/><path class="gb34-2" d="M7,28V26H6v7H7V28Z"/><rect class="gb34-2" x="10" y="29" width="1" height="1"/><rect class="gb34-2" x="17" y="30" width="1" height="1"/><path class="gb34-2" d="M17,32V31H16V26H13v5H12v1h1v1h1V27h1v6h1V32Z"/><path class="gb34-6" d="M19,27h1V26H19Z"/><path class="gb34-2" d="M20,16h1V15H20Z"/><rect class="gb34-2" x="19" y="14" width="1" height="1"/><path class="gb34-5" d="M10,17v2h1v1h1v1h1v1h3V21h1V20h1V19h1V16h1V15H19V14H18v1H16v1H15v1H14V16H13V15H11V14H10v1H9v1h1Zm3,2h3V18h1v1H16v1H13Z"/><path class="gb34-2" d="M19,17v2h1V16H19Z"/><rect class="gb34-2" x="18" y="19" width="1" height="1"/><rect class="gb34-2" x="17" y="20" width="1" height="1"/><path class="gb34-2" d="M17,21H16v1H13V21H12v1H11v1h1v1h1V23h3v1h1V23h1V22H17Z"/><rect class="gb34-2" x="11" y="20" width="1" height="1"/><rect class="gb34-2" x="10" y="19" width="1" height="1"/><rect class="gb34-2" x="9" y="14" width="1" height="1"/><path class="gb34-2" d="M10,18V16H9v3h1Z"/><path class="gb34-2" d="M9,15H8v1H9Z"/><path class="gb34-7" d="M17,15h1V14H17Z"/><rect class="gb34-7" x="16" y="13" width="1" height="1"/><rect class="gb34-2" x="14" y="14" width="1" height="1"/><path class="gb34-8" d="M16,14V13H13v1H12v1h1v1h3V15h1V14Zm-1,1H14V14h1Z"/><path class="gb34-7" d="M16,13V12H13v1h3Z"/><rect class="gb34-7" x="12" y="13" width="1" height="1"/><path class="gb34-7" d="M12,15V14H11v1Z"/><path class="gb34-2" d="M14,17h1V16H14Z"/><path class="gb34-5" d="M12,13h1V12h3v1h1v1h1V12H17V11H16V10H13v1H12v1H11v2h1Z"/><rect class="gb34-2" x="13" y="19" width="3" height="1"/><rect class="gb34-2" x="16" y="18" width="1" height="1"/><path class="gb34-9" d="M20,17v2H19v1H18v1h1v1h1V21h1V20h1V19H21V16H20Z"/><path class="gb34-9" d="M9,14h2V12h1V11h1V10h3v1h1v1h1v2h2v1h1V12H20V10H19V9H18V8H11V9H10v1H9v2H8v3H9Z"/><path class="gb34-9" d="M9,18V16H8v3H9Z"/><rect class="gb34-9" x="11" y="21" width="1" height="1"/><path class="gb34-9" d="M17,22h1V21H17Z"/><path class="gb34-8" d="M9,26V24H8v2Z"/><rect class="gb34-10" x="8" y="21" width="1" height="1"/><path class="gb34-11" d="M10,24V23H8v1h2Z"/><rect class="gb34-12" x="7" y="23" width="1" height="1"/><path class="gb34-13" d="M7,21V20H6v2H7Z"/><path class="gb34-14" d="M9,19H7v1H9Z"/><rect class="gb34-15" x="9" y="19" width="1" height="1"/><rect class="gb34-15" x="10" y="20" width="1" height="1"/><path class="gb34-16" d="M11,22V21H10v2h1Z"/><path class="gb34-17" d="M9,22H8v1h2V22Z"/><path class="gb34-18" d="M8,22V21H7v2H8Z"/><path class="gb34-19" d="M8,21H9V20H7v1Z"/><path class="gb34-20" d="M10,22V20H9v2Z"/><path class="gb34-12" d="M6,22v1H7V22Z"/><path class="gb34-2" d="M8,25H7v1H8Z"/><path class="gb34-5" d="M8,28H9V26H7v2Z"/></svg>