<svg xmlns="http://www.w3.org/2000/svg" viewBox="0 0 29 33"><defs><style>polygon,rect,path{shape-rendering:crispedges;}.gb130-1{fill:#db5a8e;}.gb130-2{fill:#000000;}.gb130-3{fill:#326b43;}.gb130-4{fill:#6c9302;}.gb130-5{fill:#efcaaf;}.gb130-6{fill:#90a2a3;}.gb130-7{fill:#ffffff;}.gb130-8{fill:#fad000;}</style></defs><path class="gb130-1" d="M6,32V27H7V26H8V25H9V24h1V23h1V21H10V20H9V17H8V15H9V11h1V10h1V9h7v1h1v1h1v4h1v2H20v3H19v1H18v2h1v1h1v1h1V20h1V14h1V9H22V8h1V7H22V6H21V5H20V3H19V0H0V33H6Z"/><path class="gb130-2" d="M7,27H6v6H7V27Z"/><path class="gb130-3" d="M8,27H7v6H8V27Z"/><path class="gb130-2" d="M9,29h1V28h2V27H9V25H8v1H7v1H8v6H9V29Z"/><rect class="gb130-2" x="9" y="24" width="1" height="1"/><path class="gb130-3" d="M12,32V31H11V30H10V29H9v4h4V32Z"/><rect class="gb130-2" x="10" y="23" width="1" height="1"/><path class="gb130-3" d="M10,26v1h2v1H10v1h1v1h1v1h1V26H12V25H11V24H10v1H9v1Z"/><rect class="gb130-2" x="10" y="29" width="1" height="1"/><rect class="gb130-3" x="11" y="23" width="1" height="1"/><rect class="gb130-2" x="11" y="30" width="1" height="1"/><path class="gb130-2" d="M17,32V31H16V26h1V25h1V24H17V23h1V21h1V20h1V16h1V15H20V11H19V10H18V9H11v1H10v1H9v4H8v1H9v4h1v1h1v2h1v1H11v1h1v1h1v5H12v1h1v1h1V27h1v6h1V32ZM16,15V14h1v1h2v1H16Zm-4,1H10V14h1v1h2v1Zm1,5V20h3v1Z"/><path class="gb130-4" d="M15,27H14v6h1V27Z"/><path class="gb130-3" d="M20,29H19v1H18v1H17v1H16v1h4V29Z"/><rect class="gb130-3" x="17" y="23" width="1" height="1"/><rect class="gb130-2" x="17" y="30" width="1" height="1"/><rect class="gb130-2" x="18" y="23" width="1" height="1"/><rect class="gb130-2" x="18" y="29" width="1" height="1"/><rect class="gb130-2" x="19" y="24" width="1" height="1"/><path class="gb130-3" d="M18,25H17v1H16v5h1V30h1V29h1V28H17V27h2V26h1V25H19V24H18Z"/><path class="gb130-2" d="M22,32h1V31H22V23H21v2H20v2H17v1h2v1h1v4h1V32Z"/><path class="gb130-5" d="M22,24h1V22H21v1h1Z"/><path class="gb130-3" d="M23,24H22v7h1V24Z"/><path class="gb130-2" d="M23,29v2h1V22H23v7Z"/><path class="gb130-6" d="M19,27h1V26H19Z"/><path class="gb130-6" d="M9,26v1h1V26Z"/><rect class="gb130-5" x="13" y="20" width="3" height="1"/><path class="gb130-5" d="M19,15H16v1h3Z"/><path class="gb130-5" d="M13,15H10v1h3Z"/><path class="gb130-7" d="M11,14H10v1h1Z"/><path class="gb130-7" d="M17,14H16v1h1Z"/><path class="gb130-1" d="M27,3V5H26V6H25V7H24V8h1V9H24v5H23v6H22v1h1v1h1v9H23v1H21v1h8V0H28V3Z"/><path class="gb130-8" d="M20,17h1V16H20Z"/><path class="gb130-8" d="M8,16v1H9V16Z"/><path class="gb130-7" d="M24,9V8H23v6h1Z"/><rect class="gb130-7" x="22" y="14" width="1" height="6"/><path class="gb130-7" d="M22,21V20H21v2h1Z"/><path class="gb130-8" d="M22,8V9h1V8Z"/><rect class="gb130-8" x="24" y="8" width="1" height="1"/><path class="gb130-8" d="M20,3V5h1V6h1V7h1V8h1V7h1V6h1V5h1V3h1V0H19V3Z"/><path class="gb130-2" d="M23,22V21H22v1Z"/></svg>