<svg xmlns="http://www.w3.org/2000/svg" viewBox="0 0 29 33"><defs><style>polygon,rect,path{shape-rendering:crispedges;}.oa249-1{fill:#6b4f99;}.oa249-2{fill:#000000;}.oa249-3{fill:#326b43;}.oa249-4{fill:#333333;}.oa249-5{fill:#e8b795;}.oa249-6{fill:#7f5018;}.oa249-7{fill:#ff5e17;}.oa249-8{fill:#ffffff;}.oa249-9{fill:#0068ff;}.oa249-10{fill:#ff1f4a;}</style></defs><path class="oa249-1" d="M20,22H19V21H18v1H17v2h2v1h2V23H20Z"/><path class="oa249-1" d="M0,33H6V27H7V26H8V25h2V24h2V22H11V21H10v1H9V21H8V20H7V19H8V12H9V10h1V9h1V8h7V9h1v1h1v2h1v7h3v1h1v3H24v8H23v1H21v1h8V0H0Z"/><path class="oa249-2" d="M23,24v7h1V23H23Z"/><path class="oa249-2" d="M7,27H6v6H7V27Z"/><path class="oa249-3" d="M8,27H7v6H8V27Z"/><rect class="oa249-2" x="7" y="26" width="1" height="1"/><path class="oa249-2" d="M9,27H8v6H9V27Z"/><path class="oa249-3" d="M11,25H10v1H8v1H9v6h2V25Z"/><path class="oa249-2" d="M10,25H8v1h2Z"/><path class="oa249-2" d="M12,26h1V25H12V24H10v1h1v8h1V26Z"/><path class="oa249-4" d="M17,26H16v1H13V26H12v7h5V26Z"/><path class="oa249-2" d="M13,23h3v1h1V21H16v1H13V21H12v3h1Z"/><path class="oa249-2" d="M13,26v1h3V26H13Z"/><path class="oa249-5" d="M13,25v1h3V25h1V24H16V23H13v1H12v1Z"/><path class="oa249-2" d="M18,25h1V24H17v1H16v1h1v7h1V25Z"/><path class="oa249-3" d="M20,27h1V26H19V25H18v8h2V27Z"/><path class="oa249-2" d="M22,32h1V31H22V23H21v2H19v1h2v1H20v6h1V32Z"/><path class="oa249-3" d="M23,24H22v7h1V24Z"/><path class="oa249-2" d="M20,16h1V15H20Z"/><rect class="oa249-5" x="14" y="15" width="1" height="1"/><path class="oa249-5" d="M18,20V19h1V16H15v1H14V16H10v3h1v1h1v1h1v1h3V21h1V20Zm-2-1v1H13V19H12V18h5v1Z"/><path class="oa249-5" d="M13,13h1v1h1V13h2V11H16V10H13v1H12v1h1Z"/><path class="oa249-2" d="M19,17v2h1V16H19Z"/><rect class="oa249-2" x="18" y="19" width="1" height="1"/><rect class="oa249-2" x="17" y="20" width="1" height="1"/><rect class="oa249-2" x="11" y="20" width="1" height="1"/><rect class="oa249-2" x="10" y="19" width="1" height="1"/><path class="oa249-2" d="M10,16H9v3h1V16Z"/><path class="oa249-2" d="M9,15H8v1H9Z"/><rect class="oa249-2" x="14" y="16" width="1" height="1"/><path class="oa249-6" d="M13,12H11v1h2Z"/><path class="oa249-6" d="M18,13V12H17v1Z"/><polygon class="oa249-2" points="17 18 12 18 12 19 13 19 13 20 16 20 16 19 17 19 17 18"/><path class="oa249-2" d="M20,21v2h1V21Z"/><rect class="oa249-2" x="21" y="20" width="1" height="1"/><path class="oa249-2" d="M24,20V19H22v1Z"/><path class="oa249-2" d="M24,23h1V20H24v3Z"/><path class="oa249-5" d="M22,21H21v2h1v1h1V23h1V20H22Z"/><path class="oa249-7" d="M20,17v2H19v1H18v1h1v1h1V21h1V20h1V19H21V16H20Z"/><path class="oa249-7" d="M9,14V13h2V12h1V11h1V10h3v1h1v1h1v1h2v2h1V12H20V10H19V9H18V8H11V9H10v1H9v2H8v3H9Z"/><path class="oa249-7" d="M10,20V19H9V16H8v3H7v1H8v1H9v1h1V21h1V20Z"/><path class="oa249-7" d="M11,21v1h1V21Z"/><path class="oa249-7" d="M18,21H17v1h1Z"/><path class="oa249-8" d="M11,16h3V15h1v1h5V13H15v1H14V13H9v3h2Zm5-2h3v1H16Zm-6,0h3v1H10Z"/><path class="oa249-9" d="M19,15V14H16v1h3Z"/><path class="oa249-10" d="M13,15V14H10v1h3Z"/></svg>