<svg xmlns="http://www.w3.org/2000/svg" viewBox="0 0 29 33"><defs><style>polygon,rect,path{shape-rendering:crispedges;}.ka229-1{fill:#6b4f99;}.ka229-2{fill:#000000;}.ka229-3{fill:#0079bc;}.ka229-4{fill:#e8b795;}.ka229-5{fill:#7f5018;}.ka229-6{fill:#7f5018;}.ka229-7{fill:#317f03;}.ka229-8{fill:#f9e100;}</style></defs><path class="ka229-1" d="M6,32V27H7V26H8V25h2V24h2V21H11V20H9V18H8V13H9V11h1V10h1V9h7v1h1v1h1v1h1v6H20v2H18v1H17v3h2v1h2v1h1v1h1v6h6V0H0V33H6Z"/><path class="ka229-2" d="M23,27H22v6h1V27Z"/><rect class="ka229-2" x="21" y="26" width="1" height="1"/><path class="ka229-3" d="M22,27H21v6h1V27Z"/><path class="ka229-2" d="M21,27H20v6h1V27Z"/><path class="ka229-2" d="M20,26h1V25H19v1Z"/><path class="ka229-3" d="M20,27h1V26H19V25H17V24H16V23H13v1H12v1H10v1H8v1H9v6H20V27Z"/><path class="ka229-2" d="M18,25h1V24H17v1Z"/><path class="ka229-2" d="M13,23h3v1h1V21H16v1H13V21H12v3h1Z"/><path class="ka229-2" d="M12,24H10v1h2Z"/><path class="ka229-2" d="M10,25H8v1h2Z"/><path class="ka229-2" d="M9,27H8v6H9V27Z"/><rect class="ka229-2" x="7" y="26" width="1" height="1"/><path class="ka229-3" d="M8,27H7v6H8V27Z"/><path class="ka229-2" d="M7,27H6v6H7V27Z"/><rect class="ka229-4" x="19" y="15" width="1" height="1"/><path class="ka229-4" d="M14,21V20H13V19H12V18h1v1h3v1H15v1h2V20h1V19h1V18H18V16H15v1H14V16h1V15H13v2H12V16H11v2H10v1h1v1h1v1h2Z"/><rect class="ka229-4" x="9" y="15" width="1" height="1"/><path class="ka229-4" d="M15,14V13h1V12H15V11H14v3Z"/><rect class="ka229-4" x="17" y="11" width="1" height="1"/><path class="ka229-2" d="M19,16v2h1V16Z"/><path class="ka229-2" d="M18,19v1h1V19Z"/><rect class="ka229-2" x="17" y="20" width="1" height="1"/><rect class="ka229-2" x="11" y="20" width="1" height="1"/><path class="ka229-2" d="M10,19v1h1V19Z"/><path class="ka229-2" d="M10,17V16H9v2h1Z"/><rect class="ka229-2" x="14" y="16" width="1" height="1"/><path class="ka229-5" d="M13,12H11v1h2Z"/><rect class="ka229-5" x="17" y="12" width="1" height="1"/><path class="ka229-6" d="M15,20H14v1H13v1h3V21H15Z"/><polygon class="ka229-2" points="16 20 16 19 13 19 13 20 14 20 15 20 16 20"/><rect class="ka229-2" x="12" y="18" width="1" height="1"/><path class="ka229-7" d="M9,15V14h1V13h1V12h2v1h1V11h1v1h1v1h1V11h1v2h1v1h1v4h1V12H20V11H19V10H18V9H11v1H10v1H9v2H8v5H9V15Z"/><path class="ka229-7" d="M10,17v1h1V16H10Z"/><path class="ka229-7" d="M18,16v2h1V16Z"/><path class="ka229-7" d="M19,19v1h1V18H19Z"/><path class="ka229-7" d="M15,15v1h1V15Z"/><path class="ka229-7" d="M12,17h1V16H12Z"/><path class="ka229-7" d="M10,18H9v2h1V18Z"/><path class="ka229-8" d="M13,14H10v2h3V15h1V14Z"/><path class="ka229-8" d="M19,15V14H15v1h1v1h3Z"/><path class="ka229-2" d="M15,14h4V13H15Z"/><path class="ka229-2" d="M13,14h1V13H10v1h3Z"/><path class="ka229-2" d="M20,15V14H19v1Z"/><path class="ka229-2" d="M10,14H9v1h1Z"/><path class="ka229-2" d="M14,14v1h1V14Z"/></svg>