<svg xmlns="http://www.w3.org/2000/svg" viewBox="0 0 29 33"><defs><style>polygon,rect,path{shape-rendering:crispedges;}.la28-1{fill:#d4a122;}.la28-2{fill:#000000;}.la28-3{fill:#c6e5e4;}.la28-4{fill:#508e91;}.la28-5{fill:#e8b795;}.la28-6{fill:#893a1f;}.la28-7{fill:#6c9302;}.la28-8{fill:#00bc55;}.la28-9{fill:#ffffff;}.la28-10{fill:#ea1500;}.la28-11{fill:#005e12;}.la28-12{fill:#008e21;}</style></defs><path class="la28-1" d="M20,18V16h0v2Z"/><path class="la28-1" d="M0,33H6V27H7V26H8V25h2V24h2V21H10v1H9V21H8V20H9V18H9V17H8V12H9V10h1V9h1V8h7V9h1v1h1v2h1v5h3v1h1v5H24v8H23v1H21v1h8V0H0Z"/><polygon class="la28-1" points="15 17 14 17 14 16 14 16 14 17 15 17 15 17"/><path class="la28-1" d="M20,23V22H19V21H17v3h2v1h2V23Z"/><path class="la28-2" d="M23,26v5h1V25H23Z"/><path class="la28-3" d="M23,27H22v1h1Z"/><path class="la28-3" d="M22,30v1h1V30Z"/><path class="la28-2" d="M22,32h1V31H22V25H19v1h2v1H20v6h1V32Z"/><path class="la28-3" d="M17,25V24H12v1Z"/><path class="la28-3" d="M9,31H20V30H9Z"/><path class="la28-3" d="M9,27v1H20V27H9Z"/><path class="la28-2" d="M18,24H17v1h2V24Z"/><path class="la28-2" d="M13,23h3v1h1V21H16v1H13V21H12v3h1Z"/><path class="la28-2" d="M12,24H10v1h2Z"/><path class="la28-2" d="M10,25H8v1h2Z"/><path class="la28-2" d="M9,30V27H8v6H9V30Z"/><rect class="la28-2" x="7" y="26" width="1" height="1"/><path class="la28-3" d="M7,31H8V30H7Z"/><path class="la28-3" d="M8,28V27H7v1Z"/><path class="la28-2" d="M7,30V27H6v6H7V30Z"/><path class="la28-4" d="M9,31v2H20V31Z"/><path class="la28-4" d="M9,29v1H20V28H9Z"/><path class="la28-4" d="M9,27H21V26H19V25H10v1H8v1Z"/><path class="la28-4" d="M15,23H13v1h3V23Z"/><path class="la28-4" d="M23,29V28H22v2h1Z"/><path class="la28-4" d="M23,26V25H22v2h1Z"/><path class="la28-4" d="M7,31v2H8V31Z"/><path class="la28-4" d="M7,29v1H8V28H7Z"/><path class="la28-5" d="M13,13h4V12h0V11H16V10H15v1H14v1H13Z"/><polygon class="la28-5" points="18 13 18 14 19 14 19 13 19 13 19 13 18 13"/><path class="la28-5" d="M13,22h3V21h1V20h1V19h1V16h1V15H18v1H16V15H15V14H14v1H13v1H11V15H10v1h0v3h1v1h1v1h1Zm1-6h1v1H14Zm-1,3h3v1H13Z"/><path class="la28-2" d="M20,18V16H19v3h1Z"/><rect class="la28-2" x="18" y="19" width="1" height="1"/><path class="la28-2" d="M18,20H17v1h1Z"/><polygon class="la28-2" points="16 10 16 10 15 10 15 10 16 10 16 10"/><path class="la28-2" d="M11,20v1h1V20Z"/><rect class="la28-2" x="10" y="19" width="1" height="1"/><path class="la28-2" d="M10,16h0v2H9v1h1Z"/><polygon class="la28-2" points="15 17 15 17 15 16 14 16 14 16 14 17 15 17"/><rect class="la28-6" x="13" y="12" height="1"/><rect class="la28-6" x="17" y="12" width="1" height="1"/><rect class="la28-6" x="18" y="13" width="1"/><rect class="la28-2" x="13" y="19" width="3" height="1"/><path class="la28-7" d="M19,21v1h1V19H19v1H18v1Z"/><path class="la28-7" d="M10,20V19H9v1H8v1H9v1h1V21h1V20Z"/><path class="la28-7" d="M10,17V15H9V14h2V13h2V12h1V11h1V10h1v1h1v1h1v1h1v1h1v4h1V17h0V12H20V10H19V9H18V8H11V9H10v1H9v2H8v5H9v1h1Z"/><path class="la28-2" d="M19,14H18V13H11v1H9v1h2v1h2V15h1V14h1v1h1v1h2V15h2V14Z"/><path class="la28-8" d="M21,18h1v2H21v1h3V20H23V18h1V17H21Z"/><path class="la28-8" d="M20,19v1h1V18H20Z"/><path class="la28-9" d="M22,19V18H21v1Z"/><path class="la28-2" d="M21,20h1V19H21Z"/><path class="la28-9" d="M23,19h1V18H23Z"/><path class="la28-2" d="M23,19v1h1V19Z"/><path class="la28-10" d="M24,22V21H21v1Z"/><path class="la28-8" d="M21,22v1h3V22Z"/><path class="la28-8" d="M24,20h1V18H24v2Z"/><path class="la28-11" d="M21,23v2h3V23H21Z"/><path class="la28-10" d="M24,20.333V21h1V20H24Z"/><path class="la28-10" d="M20,20.333V21h1V20H20Z"/><path class="la28-12" d="M20,22v1h1V21H20Z"/><path class="la28-12" d="M24,21.222V23h1V21H24Z"/></svg>