<svg xmlns="http://www.w3.org/2000/svg" viewBox="0 0 29 33"><defs><style>polygon,rect,path{shape-rendering:crispedges;}.cb257-1{fill:#db5a8e;}.cb257-2{fill:#000000;}.cb257-3{fill:#3e5e00;}.cb257-4{fill:#ffffff;}.cb257-5{fill:#ce8452;}.cb257-6{fill:#316a6d;}.cb257-7{fill:#316a6d;}.cb257-8{fill:#a7af69;}</style></defs><path class="cb257-1" d="M0,33H6V27H7V26H8V25h2V24h1V23h1V21H11V20H10V19H9V16H8V15H9V11h1V9h1V8h7V9h1v1h1v5h1v1H20v3H19v1H18v1H17v2h1v1h1v1h2v1h1v1h1v6h6V0H0Z"/><path class="cb257-2" d="M23,27H22v6h1V27Z"/><path class="cb257-3" d="M22,27H21v6h1V27Z"/><rect class="cb257-2" x="21" y="26" width="1" height="1"/><path class="cb257-2" d="M21,27H20v6h1V27Z"/><path class="cb257-3" d="M20,27h1V26H19V25H18v4H17v4h3V27Z"/><path class="cb257-2" d="M20,26h1V25H19v1Z"/><path class="cb257-2" d="M17,29H16v4h1V29Z"/><rect class="cb257-4" x="16" y="24" width="1" height="1"/><path class="cb257-4" d="M16,29h1V26H16V25H13v1H12v3h1v4h1V32h1v1h1V29Zm-1,2H14V30h1Zm0-2H14V28h1Zm0-2H14V26h1Z"/><rect class="cb257-4" x="15" y="23" width="1" height="1"/><rect class="cb257-2" x="14" y="32" width="1" height="1"/><rect class="cb257-2" x="14" y="30" width="1" height="1"/><rect class="cb257-2" x="14" y="28" width="1" height="1"/><rect class="cb257-2" x="14" y="26" width="1" height="1"/><rect class="cb257-4" x="13" y="23" width="1" height="1"/><path class="cb257-2" d="M13,29H12v4h1V29Z"/><rect class="cb257-4" x="12" y="24" width="1" height="1"/><path class="cb257-3" d="M12,29H11V25H10v1H8v1H9v6h3V29Z"/><path class="cb257-2" d="M11,26v3h1V26h1V25H12V24h1V23h1v1H13v1h3V24H15V23h1v1h1v1H16v1h1v3h1V25h1V24H18V23H17V21H16v1H13V21H12v2H11v1H10v1h1Z"/><path class="cb257-2" d="M10,25H8v1h2Z"/><path class="cb257-2" d="M9,27H8v6H9V27Z"/><path class="cb257-3" d="M8,27H7v6H8V27Z"/><rect class="cb257-2" x="7" y="26" width="1" height="1"/><path class="cb257-2" d="M7,27H6v6H7V27Z"/><rect class="cb257-2" x="20" y="15" width="1" height="1"/><path class="cb257-5" d="M10,13v1h2V13Z"/><rect class="cb257-5" x="9" y="15" width="1" height="1"/><path class="cb257-5" d="M12,12v1h1v1h5V13H15V12H14V11H13V10H11v1H10v1Z"/><rect class="cb257-5" x="14" y="15" width="1" height="1"/><rect class="cb257-5" x="19" y="15" width="1" height="1"/><path class="cb257-5" d="M13,22h3V21h1V20h1V19h1V16H18v1H16V16H15v1H14V16H13v1H11V16H10v3h1v1h1v1h1Zm-1-3V18h5v1H16v1H13V19Z"/><path class="cb257-2" d="M19,17v2h1V16H19Z"/><rect class="cb257-2" x="18" y="19" width="1" height="1"/><rect class="cb257-2" x="17" y="20" width="1" height="1"/><rect class="cb257-2" x="11" y="20" width="1" height="1"/><rect class="cb257-2" x="10" y="19" width="1" height="1"/><path class="cb257-2" d="M10,16H9v3h1V16Z"/><rect class="cb257-2" x="8" y="15" width="1" height="1"/><rect class="cb257-2" x="14" y="16" width="1" height="1"/><rect class="cb257-6" x="12" y="13" width="1" height="1"/><rect class="cb257-6" x="10" y="12" width="2" height="1"/><path class="cb257-7" d="M16,19h1V18H12v1h4Z"/><path class="cb257-2" d="M13,20h3V19H13Z"/><path class="cb257-8" d="M11,10h2v1h1v1h1v1h3v1h2V10H19V9H18V8H11V9H10v2h1Z"/><path class="cb257-8" d="M10,13V11H9v3h1Z"/><path class="cb257-2" d="M10,16h1v1h2V16h1V15h1v1h1v1h2V16h1V15h1V14H9v1h1Z"/></svg>