<svg xmlns="http://www.w3.org/2000/svg" viewBox="0 0 29 33"><defs><style>polygon,rect,path{shape-rendering:crispedges;}.na260-1{fill:#000000;}.na260-2{fill:#b4bd09;}.na260-3{fill:#333333;}.na260-4{fill:#c18d59;}.na260-5{fill:#34e0cb;}.na260-6{fill:#663228;}.na260-7{fill:#8e9350;}.na260-8{fill:#009b97;}.na260-9{fill:#ffffff;}.na260-10{fill:#893a1f;}.na260-11{fill:#dfdfdf;}.na260-12{fill:#b2622b;}.na260-13{fill:#d14646;}</style></defs><path class="na260-1" d="M23,27H22v6h1V27Z"/><rect class="na260-1" x="21" y="26" width="1" height="1"/><path class="na260-2" d="M21,28h1V27H21Z"/><path class="na260-2" d="M21,31h1V30H21Z"/><path class="na260-1" d="M21,30V27H20v6h1V30Z"/><path class="na260-2" d="M18,31h2V30H18Z"/><path class="na260-2" d="M18,28h2V27H18Z"/><path class="na260-1" d="M20,26h1V25H19v1Z"/><path class="na260-1" d="M18,30V25h1V24H17v1H16v1h1v7h1V30Z"/><path class="na260-3" d="M17,26H16v1H13V26H12v7h5V26Z"/><path class="na260-1" d="M13,26v1h3V26H13Z"/><path class="na260-1" d="M13,23h3v1h1V21H16v1H13V21H12v3h1Z"/><path class="na260-4" d="M13,25v1h3V25h1V24H16V23H13v1H12v1Z"/><path class="na260-1" d="M12,26h1V25H12V24H10v1h1v8h1V26Z"/><path class="na260-2" d="M9,31h2V30H9Z"/><path class="na260-2" d="M9,28h2V27H9Z"/><path class="na260-1" d="M10,25H8v1h2Z"/><path class="na260-1" d="M9,30V27H8v6H9V30Z"/><rect class="na260-1" x="7" y="26" width="1" height="1"/><path class="na260-2" d="M7,31H8V30H7Z"/><path class="na260-2" d="M8,28V27H7v1Z"/><path class="na260-1" d="M7,30V27H6v6H7V30Z"/><path class="na260-5" d="M9,31v2h2V31Z"/><path class="na260-5" d="M18,31v2h2V31Z"/><path class="na260-5" d="M18,29v1h2V28H18Z"/><path class="na260-5" d="M9,29v1h2V28H9Z"/><path class="na260-5" d="M18,26v1h3V26H19V25H18Z"/><path class="na260-5" d="M9,27h2V25H10v1H8v1Z"/><path class="na260-5" d="M7,29v1H8V28H7Z"/><path class="na260-5" d="M7,31v2H8V31Z"/><path class="na260-5" d="M21,31v2h1V31Z"/><path class="na260-5" d="M21,29v1h1V28H21Z"/><rect class="na260-1" x="20" y="15" width="1" height="1"/><rect class="na260-4" x="10" y="13" width="1" height="1"/><path class="na260-4" d="M14,14h2V13H13v1Z"/><path class="na260-4" d="M13,22h3V21h1V20h1V18h1V16H18v1H16V16H15v1H14V16H13v1H11V16H10v2h1v2h1v1h1Zm0-3h3v1H13Z"/><rect class="na260-4" x="9" y="15" width="1" height="1"/><rect class="na260-4" x="19" y="15" width="1" height="1"/><rect class="na260-4" x="14" y="15" width="1" height="1"/><path class="na260-1" d="M19,17h1V16H19Z"/><path class="na260-1" d="M10,16H9v1h1Z"/><rect class="na260-1" x="8" y="15" width="1" height="1"/><rect class="na260-1" x="14" y="16" width="1" height="1"/><rect class="na260-6" x="18" y="13" width="1" height="1"/><path class="na260-7" d="M19,18H18v2H17v1h2V20h1V17H19Z"/><path class="na260-7" d="M11,20V18H10V17H9v3h1v1h2V20Z"/><rect class="na260-1" x="13" y="19" width="3" height="1"/><polygon class="na260-8" points="19 14 19 15 20 15 21 15 21 14 20 14 20 13 19 13 19 14"/><path class="na260-8" d="M10,14V13H8v1H9v1h1Z"/><path class="na260-9" d="M12,14h1V13H11v1Z"/><path class="na260-9" d="M11,17h2V16H11Z"/><path class="na260-9" d="M10,14v2h1V14Z"/><path class="na260-1" d="M12,14H11v2h2V14Z"/><path class="na260-9" d="M19,14H18v2h1V14Z"/><path class="na260-9" d="M17,14h1V13H16v1Z"/><path class="na260-9" d="M16,17h2V16H16Z"/><path class="na260-9" d="M14,14H13v2h1V15h1v1h1V14Z"/><path class="na260-1" d="M17,14H16v2h2V14Z"/><path class="na260-10" d="M24,11H22v1h2Z"/><rect class="na260-11" x="21" y="7" width="1" height="1"/><path class="na260-10" d="M11,13H22V12H20V11H19v1H10V11H9v1H7v1h4Z"/><rect class="na260-11" x="20" y="8" width="1" height="1"/><rect class="na260-12" x="19" y="10" width="1" height="1"/><path class="na260-9" d="M18,11h1V10h1V8h1V7h1V6H20V7H19V8H18v3Z"/><path class="na260-12" d="M17,11H10v1h9V11H17Z"/><path class="na260-10" d="M11,11h7V7H16V8H13V7H11V8H10v3Z"/><path class="na260-12" d="M10,10H9v1h1Z"/><path class="na260-10" d="M6,11H5v1H7V11Z"/><path class="na260-13" d="M0,33H6V27H7V26H8V25h2V24h2V21H10V20H9V16H8V15H9V14H8V13H7V12H5V11H7v1H9V10h1V8h1V7h2V8h3V7h2V8h1V7h1V6h2V8H21V9H20v3h2V11h2v1H22v1H20v1h1v2H20v4H19v1H17v3h2v1h2v1h1v1h1v6h6V0H0Z"/></svg>