<svg xmlns="http://www.w3.org/2000/svg" viewBox="0 0 29 33"><defs><style>polygon,rect,path{shape-rendering:crispedges;}.cb288-1{fill:#7a982c;}.cb288-2{fill:#000000;}.cb288-3{fill:#875070;}.cb288-4{fill:#ffffff;}.cb288-5{fill:#e8b795;}.cb288-6{fill:#663228;}.cb288-7{fill:#663228;}.cb288-8{fill:#c8a715;}.cb288-9{fill:#4922aa;}</style></defs><rect class="cb288-1" x="17" y="22" width="1" height="1"/><rect class="cb288-1" x="11" y="22" width="1" height="1"/><path class="cb288-1" d="M0,33H6V27H7V26H8V25h2V20H9V16H8V15H9V11h1V10h1V9h2V7h1V6h2V5h2V6H17V7h1v3h1v1h1v4h1v1H20v4H19v5h2v1h1v1h1v6h6V0H0Z"/><path class="cb288-2" d="M23,27H22v6h1V27Z"/><path class="cb288-3" d="M22,27H21v6h1V27Z"/><rect class="cb288-2" x="21" y="26" width="1" height="1"/><path class="cb288-2" d="M21,27H20v6h1V27Z"/><path class="cb288-3" d="M20,27h1V26H19V25H18v4H17v4h3V27Z"/><path class="cb288-2" d="M20,26h1V25H19v1Z"/><path class="cb288-2" d="M17,29H16v4h1V29Z"/><path class="cb288-2" d="M18,23H17v2H16v1h1v3h1V25h1V24H18Z"/><path class="cb288-4" d="M16,29h1V26H16V25H13v1H12v3h1v4h1V32h1v1h1V29Zm-1,2H14V30h1Zm0-2H14V28h1Zm0-2H14V26h1Z"/><rect class="cb288-4" x="15" y="23" width="1" height="1"/><rect class="cb288-2" x="14" y="32" width="1" height="1"/><rect class="cb288-2" x="14" y="30" width="1" height="1"/><rect class="cb288-2" x="14" y="28" width="1" height="1"/><rect class="cb288-2" x="14" y="26" width="1" height="1"/><path class="cb288-2" d="M15,24V23H14v1H13v1h3V24Z"/><rect class="cb288-4" x="13" y="23" width="1" height="1"/><path class="cb288-2" d="M13,29H12v4h1V29Z"/><path class="cb288-3" d="M12,29H11V25H10v1H8v1H9v6h3V29Z"/><path class="cb288-2" d="M11,26v3h1V26h1V25H12V23H11v1H10v1h1Z"/><path class="cb288-2" d="M10,25H8v1h2Z"/><path class="cb288-2" d="M9,27H8v6H9V27Z"/><path class="cb288-3" d="M8,27H7v6H8V27Z"/><rect class="cb288-2" x="7" y="26" width="1" height="1"/><path class="cb288-2" d="M7,27H6v6H7V27Z"/><rect class="cb288-2" x="20" y="15" width="1" height="1"/><rect class="cb288-5" x="19" y="15" width="1" height="1"/><rect class="cb288-5" x="9" y="15" width="1" height="1"/><path class="cb288-5" d="M13,12v1H10v1h6V13h3V11H18V10H15v1H13V10H11v1H10v1Z"/><rect class="cb288-5" x="14" y="15" width="1" height="1"/><polygon class="cb288-5" points="13 21 14 21 14 22 15 22 15 21 16 21 16 20 13 20 13 21"/><path class="cb288-5" d="M18,16v1H16V16H15v1H14V16H13v1H11V16H10v2h1v1h1V18h2v1h1V18h2v1h1V18h1V16Z"/><path class="cb288-2" d="M19,17h1V16H19Z"/><rect class="cb288-2" x="18" y="10" width="1" height="1"/><path class="cb288-2" d="M16,10h2V9H16Z"/><path class="cb288-2" d="M13,9H11v1h2Z"/><rect class="cb288-2" x="10" y="10" width="1" height="1"/><path class="cb288-2" d="M10,16H9v1h1Z"/><rect class="cb288-2" x="8" y="15" width="1" height="1"/><rect class="cb288-2" x="14" y="16" width="1" height="1"/><rect class="cb288-6" x="10" y="12" width="3" height="1"/><path class="cb288-6" d="M16,14h3V13H16Z"/><path class="cb288-7" d="M12,22v1h5V22h2V20h1V17H19v1H18v1H17V18H15v1h1v2H15v1H14V21H13V19H11V18H10V17H9v3h1v2h2Z"/><path class="cb288-7" d="M14,18H13v1h1Z"/><path class="cb288-8" d="M18,23h1V22H18Z"/><path class="cb288-7" d="M18,24h1V23H18Z"/><path class="cb288-8" d="M17,24V23H16v1Z"/><path class="cb288-7" d="M17,24H16v1h1Z"/><path class="cb288-8" d="M13,23H12v1h1Z"/><path class="cb288-7" d="M12,24v1h1V24Z"/><path class="cb288-8" d="M11,22H10v1h1Z"/><path class="cb288-7" d="M11,23H10v1h1Z"/><path class="cb288-2" d="M13,19v1h3V19H13Z"/><path class="cb288-2" d="M12,18v1h1V18Z"/><path class="cb288-9" d="M13,11h2V10h1V9h2V7H17V6h1V5H16V6H14V7H13v4Z"/><path class="cb288-2" d="M10,16h1v1h2V16h1V15h1v1h1v1h2V16h1V15h1V11H19v3H10V11H9v4h1Z"/><rect class="cb288-9" x="18" y="9" width="1" height="1"></rect></svg>