<svg xmlns="http://www.w3.org/2000/svg" viewBox="0 0 29 33"><defs><style>polygon,rect,path{shape-rendering:crispedges;}.ha271-1{fill:#e55b35;}.ha271-2{fill:#000000;}.ha271-3{fill:#68aa7b;}.ha271-4{fill:#c18d59;}.ha271-5{fill:#326b43;}.ha271-6{fill:#326b43;}.ha271-7{fill:#a06415;}.ha271-8{fill:#841f00;}.ha271-9{fill:#b23b00;}</style></defs><path class="ha271-1" d="M0,33H6V27H7V26H8V25h2V24h2V21H10V20H9V16H8V15H9V10h1V9h1V8h7V9h1v1h1v5h1v1H20v4H19v1H17v3h2v1h2v1h1v1h1v6h6V0H0Z"/><path class="ha271-2" d="M23,27H22v6h1V27Z"/><rect class="ha271-2" x="21" y="26" width="1" height="1"/><path class="ha271-3" d="M22,27H21v6h1V27Z"/><path class="ha271-2" d="M21,27H20v6h1V27Z"/><path class="ha271-2" d="M20,26h1V25H19v1Z"/><path class="ha271-3" d="M20,27h1V26H19V25H17v1H16v1H13V26H12V25H10v1H9v7H20V27Z"/><path class="ha271-2" d="M18,25h1V24H17v1Z"/><rect class="ha271-2" x="16" y="25" width="1" height="1"/><path class="ha271-2" d="M13,26v1h3V26H13Z"/><path class="ha271-2" d="M13,23h3v1h1V21H16v1H13V21H12v3h1Z"/><path class="ha271-4" d="M13,25v1h3V25h1V24H16V23H13v1H12v1Z"/><rect class="ha271-2" x="12" y="25" width="1" height="1"/><path class="ha271-2" d="M12,24H10v1h2Z"/><path class="ha271-2" d="M9,26h1V25H8v1H7v1H8v6H9V26Z"/><path class="ha271-3" d="M8,27H7v6H8V27Z"/><path class="ha271-2" d="M7,27H6v6H7V27Z"/><rect class="ha271-2" x="20" y="15" width="1" height="1"/><path class="ha271-2" d="M19,14v1h1V13H19Z"/><rect class="ha271-4" x="19" y="15" width="1" height="1"/><path class="ha271-4" d="M14,14h2V13H13v1Z"/><rect class="ha271-4" x="14" y="15" width="1" height="1"/><rect class="ha271-4" x="18" y="13" width="1" height="1"/><path class="ha271-4" d="M13,22h3V21h1V20h1V18h1V16H18v1H16V16H15v1H14V16H13v1H11V16H10v2h1v2h1v1h1Zm-1-3V18h1v1h3v1H13V19Z"/><rect class="ha271-4" x="9" y="15" width="1" height="1"/><path class="ha271-2" d="M19,17h1V16H19Z"/><path class="ha271-2" d="M10,14V13H9v2h1Z"/><path class="ha271-2" d="M10,16H9v1h1Z"/><rect class="ha271-2" x="8" y="15" width="1" height="1"/><rect class="ha271-2" x="14" y="16" width="1" height="1"/><rect class="ha271-5" x="10" y="13" width="1" height="1"/><path class="ha271-6" d="M19,18H18v2H17v1h2V20h1V17H19Z"/><path class="ha271-6" d="M11,20V18H10V17H9v3h1v1h2V20Z"/><rect class="ha271-2" x="13" y="19" width="3" height="1"/><rect class="ha271-2" x="12" y="18" width="1" height="1"/><path class="ha271-7" d="M12,14h1V13H11v1Z"/><path class="ha271-7" d="M11,17h2V16H11Z"/><path class="ha271-7" d="M10,14v2h1V14Z"/><path class="ha271-2" d="M12,14H11v2h2V14Z"/><path class="ha271-7" d="M19,14H18v2h1V14Z"/><path class="ha271-7" d="M17,14h1V13H16v1Z"/><path class="ha271-7" d="M16,17h2V16H16Z"/><path class="ha271-7" d="M14,14H13v2h1V15h1v1h1V14Z"/><path class="ha271-2" d="M17,14H16v2h2V14Z"/><path class="ha271-8" d="M18,12V11H17v2h1Z"/><path class="ha271-9" d="M10,12v1h1V11h1v2h1V11h1v2h1V11h1v2h1V11h1v2h1V11h1V10H19V9H18V8H11V9H10v1H9v1h1Z"/><path class="ha271-8" d="M16,12V11H15v2h1Z"/><path class="ha271-8" d="M14,12V11H13v2h1Z"/><path class="ha271-8" d="M12,12V11H11v2h1Z"/><path class="ha271-8" d="M10,12V11H9v2h1Z"/><path class="ha271-8" d="M19,12v1h1V11H19Z"/></svg>