<svg xmlns="http://www.w3.org/2000/svg" viewBox="0 0 29 33"><defs><style>polygon,rect,path{shape-rendering:crispedges;}.cb297-1{fill:#6b4f99;}.cb297-2{fill:#000000;}.cb297-3{fill:#685432;}.cb297-4{fill:#ffffff;}.cb297-5{fill:#ce8452;}.cb297-6{fill:#492a23;}.cb297-7{fill:#e70059;}.cb297-8{fill:#317f03;}.cb297-9{fill:#fad000;}</style></defs><path class="cb297-1" d="M0,33H6V24H7V23H8v1H9v1h1V24h1V23h1V21H11V20H10V19H9V16H8V14H9V11h1V9h1V8h7V9h1v1h1v4h1v2H20v3H19v1H18v1H17v2h1v1h1v1h2v1h1v1h1v6h6V0H0Z"/><path class="cb297-2" d="M23,27H22v6h1V27Z"/><rect class="cb297-2" x="21" y="26" width="1" height="1"/><path class="cb297-3" d="M22,27H21v6h1V27Z"/><path class="cb297-2" d="M21,27H20v6h1V27Z"/><path class="cb297-2" d="M20,26h1V25H19v1Z"/><path class="cb297-3" d="M20,27h1V26H19V25H18v4H17v4h3V27Z"/><rect class="cb297-4" x="16" y="24" width="1" height="1"/><path class="cb297-2" d="M17,29H16v4h1V29Z"/><rect class="cb297-4" x="15" y="23" width="1" height="1"/><path class="cb297-4" d="M16,29h1V26H16V25H13v1H12v3h1v4h1V32h1v1h1V29Zm-1,2H14V30h1Zm0-2H14V28h1Zm0-2H14V26h1Z"/><rect class="cb297-2" x="14" y="26" width="1" height="1"/><rect class="cb297-2" x="14" y="28" width="1" height="1"/><rect class="cb297-2" x="14" y="30" width="1" height="1"/><rect class="cb297-2" x="14" y="32" width="1" height="1"/><rect class="cb297-4" x="13" y="23" width="1" height="1"/><rect class="cb297-4" x="12" y="24" width="1" height="1"/><path class="cb297-2" d="M13,29H12v4h1V29Z"/><path class="cb297-2" d="M11,26v3h1V26h1V25H12V24h1V23h1v1H13v1h3V24H15V23h1v1h1v1H16v1h1v3h1V25h1V24H18V23H17V21H16v1H13V21H12v2H11v1H10v1h1Z"/><path class="cb297-3" d="M12,29H11V25H10v2H9v6h3V29Z"/><path class="cb297-2" d="M9,27H8v6H9V27Z"/><path class="cb297-4" d="M7,28H8V27H7Z"/><path class="cb297-3" d="M8,28H7v5H8V28Z"/><path class="cb297-2" d="M7,28V24H6v9H7V28Z"/><path class="cb297-2" d="M20,16h1V15H20Z"/><rect class="cb297-5" x="14" y="15" width="1" height="1"/><path class="cb297-5" d="M12,12v1h1v1h3V13H15V12H14V11H13V10H11v1H10v1Z"/><path class="cb297-5" d="M13,22h3V21h1V20h1V19h1V17H16V16H15v1H14V16H13v1H10v2h1v1h1v1h1Zm-1-3V18h5v1H16v1H13V19Z"/><path class="cb297-2" d="M19,17v2h1V16H19Z"/><rect class="cb297-2" x="18" y="19" width="1" height="1"/><rect class="cb297-2" x="17" y="20" width="1" height="1"/><rect class="cb297-2" x="11" y="20" width="1" height="1"/><rect class="cb297-2" x="10" y="19" width="1" height="1"/><path class="cb297-2" d="M10,16H9v3h1V16Z"/><path class="cb297-2" d="M8,15v1H9V15Z"/><rect class="cb297-2" x="14" y="16" width="1" height="1"/><path class="cb297-6" d="M12,12H10v1h2Z"/><path class="cb297-2" d="M13,18H12v1h1Z"/><path class="cb297-2" d="M17,19V18H16v1Z"/><path class="cb297-2" d="M15,20h1V19H15Z"/><path class="cb297-2" d="M15,19V18H14v1Z"/><path class="cb297-2" d="M13,19v1h1V19Z"/><path class="cb297-4" d="M14,19V18H13v1Z"/><path class="cb297-4" d="M16,19V18H15v1Z"/><path class="cb297-7" d="M14,19v1h1V19Z"/><path class="cb297-5" d="M7,27H9V25H8V24H7v3Z"/><path class="cb297-2" d="M10,27V25H9v2Z"/><rect class="cb297-2" x="8" y="24" width="1" height="1"/><rect class="cb297-2" x="7" y="23" width="1" height="1"/><path class="cb297-8" d="M11,10h2v1h1v1h1v1h4v1h1V10H19V9H18V8H11V9H10v2h1Z"/><path class="cb297-8" d="M10,13V11H9v3h1Z"/><path class="cb297-9" d="M19,15v1h1V15h1V14H19Z"/><path class="cb297-9" d="M19,14V13H16v1h3Z"/><path class="cb297-2" d="M19,16V14H16v2h3Z"/><path class="cb297-9" d="M18,16H16v1h3V16Z"/><path class="cb297-9" d="M13,14v2h1V15h1v1h1V14Z"/><path class="cb297-9" d="M13,14V13H10v1h3Z"/><path class="cb297-2" d="M12,14H10v2h3V14Z"/><path class="cb297-9" d="M10,16v1h3V16H10Z"/><path class="cb297-9" d="M10,15V14H8v1H9v1h1Z"/></svg>