<svg xmlns="http://www.w3.org/2000/svg" viewBox="0 0 29 33"><defs><style>polygon,rect,path{shape-rendering:crispedges;}.qa155-1{fill:#000000;}.qa155-2{fill:#ffffff;}.qa155-3{fill:#a56e49;}.qa155-4{fill:#00e070;}.qa155-5{fill:#ffffff;}.qa155-6{fill:#492a23;}.qa155-7{fill:#45ba00;}.qa155-8{fill:#38a6e8;}.qa155-9{fill:#841f00;}.qa155-10{fill:#b23b00;}.qa155-11{fill:#29834f;}</style></defs><path class="qa155-1" d="M23,27H22v6h1V27Z"/><path class="qa155-2" d="M22,27H21v6h1V27Z"/><rect class="qa155-1" x="21" y="26" width="1" height="1"/><path class="qa155-1" d="M21,27H20v6h1V27Z"/><path class="qa155-2" d="M19,32V31H18v1H17V30H16v1H15v1H13V30H12v2H11V31H10v1H9v1H20V32Z"/><path class="qa155-2" d="M16,25h1v4h1V28h1v1h1V27h1V26H19V25H18V24H16Z"/><rect class="qa155-2" x="18" y="29" width="1" height="1"/><path class="qa155-2" d="M9,27v2h1V28h1v1h1V25h1V24H11v1H10v1H8v1Z"/><rect class="qa155-2" x="10" y="29" width="1" height="1"/><path class="qa155-1" d="M20,26h1V25H19v1Z"/><rect class="qa155-1" x="18" y="24" width="1" height="1"/><rect class="qa155-1" x="18" y="22" width="1" height="1"/><rect class="qa155-2" x="17" y="22" width="1" height="1"/><rect class="qa155-1" x="17" y="21" width="1" height="1"/><path class="qa155-1" d="M16,25V24H13v1h3Z"/><path class="qa155-3" d="M16,24V23H13v1h3Z"/><path class="qa155-1" d="M13,23V22H12v1H11v1h2Z"/><rect class="qa155-2" x="11" y="22" width="1" height="1"/><rect class="qa155-1" x="11" y="21" width="1" height="1"/><rect class="qa155-1" x="10" y="24" width="1" height="1"/><rect class="qa155-1" x="10" y="22" width="1" height="1"/><path class="qa155-1" d="M10,25H8v1h2Z"/><path class="qa155-1" d="M9,31V27H8v6H9V31Z"/><path class="qa155-2" d="M8,27H7v6H8V27Z"/><rect class="qa155-1" x="7" y="26" width="1" height="1"/><path class="qa155-1" d="M7,27H6v6H7V27Z"/><path class="qa155-2" d="M13,28h2v1h1V25H13v3Z"/><path class="qa155-2" d="M14,29v2h1V29Z"/><path class="qa155-4" d="M19,30H18V29H17v3h1V31h1v1h1V29H19Z"/><rect class="qa155-4" x="18" y="28" width="1" height="1"/><path class="qa155-4" d="M15,29v2h1V29Z"/><path class="qa155-4" d="M14,30V29h1V28H13v4h2V31H14Z"/><path class="qa155-4" d="M11,29v1H10V29H9v3h1V31h1v1h1V29Z"/><rect class="qa155-4" x="10" y="28" width="1" height="1"/><path class="qa155-1" d="M13,27V25H12v5h1V27Z"/><path class="qa155-1" d="M17,28V25H16v5h1V28Z"/><rect class="qa155-1" x="20" y="15" width="1" height="1"/><path class="qa155-3" d="M13,19v2h1V19Z"/><path class="qa155-3" d="M12,14V13H10v1h2Z"/><path class="qa155-3" d="M15,21h1V19H15v2Z"/><path class="qa155-3" d="M10,17v1h1v1h1V18h2v1h1V18h2v1h1V18h1V16h1V15H16V14h2V13H13v2H9v1h1Zm4-1h1v1H14Z"/><path class="qa155-1" d="M19,17h1V16H19Z"/><path class="qa155-1" d="M17,22H16v2h2V23H17Z"/><rect class="qa155-1" x="9" y="16" width="1" height="1"/><rect class="qa155-1" x="8" y="15" width="1" height="1"/><rect class="qa155-1" x="14" y="16" width="1" height="1"/><path class="qa155-5" d="M18,14v1h1V14Z"/><path class="qa155-5" d="M12,15h1V14H12Z"/><path class="qa155-1" d="M17,14H16v1h2V14Z"/><path class="qa155-1" d="M11,14H10v1h2V14Z"/><rect class="qa155-6" x="18" y="13" width="1" height="1"/><path class="qa155-6" d="M12,14h1V13H12Z"/><path class="qa155-7" d="M12,22h1v1h3V22h1V21h1V20h1V19h1V17H19v1H18v1H17V18H15v1h1v2H15V20H14v1H13V19h1V18H12v1H11V18H10V17H9v2h1v1h1v1h1Z"/><path class="qa155-1" d="M14,20h1V19H14Z"/><path class="qa155-8" d="M19,14v1h1V13H19Z"/><path class="qa155-8" d="M10,14V13H8v1H9v1h1Z"/><path class="qa155-9" d="M19,12v1h1V11H19Z"/><path class="qa155-10" d="M10,12v1h1V11h1v2h1V11h1v2h1V11h1v2h1V11h1v2h1V11h1V10H19V9H18V8H11V9H10v1H9v1h1Z"/><path class="qa155-9" d="M17,11v2h1V11Z"/><path class="qa155-9" d="M15,11v2h1V11Z"/><path class="qa155-9" d="M13,11v2h1V11Z"/><path class="qa155-9" d="M12,12V11H11v2h1Z"/><path class="qa155-9" d="M10,12V11H9v2h1Z"/><path class="qa155-11" d="M0,8V33H6V27H7V26H8V25h2V24h1V23H10V22h1V20H10V19H9V16H8V15H9V14H8V13H9V10h1V9h1V8h7V9h1v1h1v5h1v1H20v3H19v1H18v2h1v1H18v1h1v1h2v1h1v1h1v6h6V0H0Z"/></svg>