<svg xmlns="http://www.w3.org/2000/svg" viewBox="0 0 29 33"><defs><style>polygon,rect,path{shape-rendering:crispedges;}.hb36-1{fill:#d4a122;}.hb36-2{fill:#c18d59;}.hb36-3{fill:#000000;}.hb36-4{fill:#ffffff;}.hb36-5{fill:#00774c;}.hb36-6{fill:#00774c;}.hb36-7{fill:#cc2f76;}.hb36-8{fill:#ff6aa5;}.hb36-9{fill:#ff1f4a;}.hb36-10{fill:#ff791f;}.hb36-11{fill:#fad000;}.hb36-12{fill:#b6dc00;}.hb36-13{fill:#00af68;}.hb36-14{fill:#38a6e8;}.hb36-15{fill:#0068ff;}.hb36-16{fill:#6e12ff;}.hb36-17{fill:#ff1d99;}.hb36-18{fill:#cc2f76;}</style></defs><path class="hb36-1" d="M0,33H6V26H7V25H8V24H7V23H6V20H7V19H9V16H8V15H9V11h1V10h1V9h7v1h1v1h1v4h1v1H20v3H19v1H18v1H17v3h2v1h2v1h1v1h1v6h6V0H0Z"/><rect class="hb36-1" x="9" y="24" width="1" height="1"/><path class="hb36-1" d="M12,21H11v2H10v1h2V21Z"/><path class="hb36-2" d="M8,28H9V26H7v7H8V28Z"/><path class="hb36-3" d="M7,26H6v7H7V26Z"/><path class="hb36-3" d="M23,27H22v6h1V27Z"/><path class="hb36-2" d="M22,27H21v6h1V27Z"/><rect class="hb36-3" x="21" y="26" width="1" height="1"/><path class="hb36-3" d="M21,27H20v6h1V27Z"/><path class="hb36-2" d="M20,27h1V26H19V25H17V24H16V23H13v1H12v1H10v3H9v5h5V29h1v4h5V27Zm-8,2H11V28h1Zm6,0H17V28h1Z"/><path class="hb36-3" d="M20,26h1V25H19v1Z"/><rect class="hb36-3" x="17" y="28" width="1" height="1"/><path class="hb36-3" d="M18,25h1V24H17v1Z"/><path class="hb36-3" d="M15,29H14v4h1V29Z"/><rect class="hb36-3" x="11" y="28" width="1" height="1"/><path class="hb36-3" d="M10,25h2V24H10Z"/><path class="hb36-3" d="M9,28H8v5H9V28Z"/><path class="hb36-3" d="M9,26v2h1V25H9Z"/><rect class="hb36-3" x="20" y="15" width="1" height="1"/><path class="hb36-3" d="M19,13v2h1V12H19Z"/><path class="hb36-2" d="M13,21h3V20H13Z"/><path class="hb36-2" d="M10,14h2V13H10Z"/><rect class="hb36-2" x="16" y="19" width="1" height="1"/><rect class="hb36-2" x="10" y="11" width="1" height="1"/><rect class="hb36-2" x="11" y="10" width="1" height="1"/><path class="hb36-2" d="M18,12v1h1V11H18Z"/><rect class="hb36-2" x="17" y="10" width="1" height="1"/><path class="hb36-2" d="M10,17v1h1v1h1v1h1V19h3V18h1v1h1V18h1V16h1V15H16V14h2V13H16V12h1V11H16V10H13v1H12v2h1v2H9v1h1Zm4-1h1v1H14Z"/><path class="hb36-3" d="M12,22v2h1V22Z"/><path class="hb36-3" d="M16,23v1h1V22H16Z"/><path class="hb36-3" d="M10,14V12H9v3h1Z"/><rect class="hb36-3" x="8" y="15" width="1" height="1"/><rect class="hb36-3" x="14" y="16" width="1" height="1"/><path class="hb36-4" d="M12,15h1V14H12Z"/><path class="hb36-4" d="M10,14v1h1V14Z"/><path class="hb36-4" d="M18,14v1h1V14Z"/><path class="hb36-4" d="M16,14v1h1V14Z"/><path class="hb36-3" d="M11,14v1h1V14Z"/><path class="hb36-3" d="M17,14v1h1V14Z"/><path class="hb36-5" d="M19,13H18v1h1Z"/><polygon class="hb36-5" points="17 12 16 12 16 13 18 13 18 12 17 12"/><path class="hb36-5" d="M13,14V13H12v1Z"/><path class="hb36-5" d="M10,12v1h2V12H10Z"/><path class="hb36-6" d="M10,20h1v1h1v1h1v1h3V22h1V21h1V20h1V19h1V16H19v2H18v1H17v1H16v1H13V20H12V19H11V18H10V16H9v3h1Z"/><rect class="hb36-3" x="13" y="19" width="3" height="1"/><rect class="hb36-3" x="16" y="18" width="1" height="1"/><path class="hb36-7" d="M20,12V11H19v1Z"/><rect class="hb36-7" x="18" y="10" width="1" height="1"/><path class="hb36-7" d="M12,11h1V10h3v1h1V10h1V9H11v1h1Z"/><rect class="hb36-7" x="17" y="11" width="1" height="1"/><path class="hb36-7" d="M11,12h1V11H11Z"/><rect class="hb36-7" x="10" y="10" width="1" height="1"/><path class="hb36-7" d="M10,11H9v1h1Z"/><path class="hb36-4" d="M9,26V24H8v2Z"/><rect class="hb36-8" x="8" y="21" width="1" height="1"/><path class="hb36-9" d="M10,24V23H8v1h2Z"/><rect class="hb36-10" x="7" y="23" width="1" height="1"/><path class="hb36-11" d="M7,21V20H6v2H7Z"/><path class="hb36-12" d="M9,19H7v1H9Z"/><rect class="hb36-13" x="9" y="19" width="1" height="1"/><rect class="hb36-13" x="10" y="20" width="1" height="1"/><path class="hb36-14" d="M11,22V21H10v2h1Z"/><path class="hb36-15" d="M9,22H8v1h2V22Z"/><path class="hb36-16" d="M8,22V21H7v2H8Z"/><path class="hb36-17" d="M8,21H9V20H7v1Z"/><path class="hb36-18" d="M10,22V20H9v2Z"/><path class="hb36-10" d="M6,22v1H7V22Z"/><path class="hb36-3" d="M8,25H7v1H8Z"/></svg>