<svg xmlns="http://www.w3.org/2000/svg" viewBox="0 0 29 33"><defs><style>polygon,rect,path{shape-rendering:crispedges;}.na195-1{fill:#000000;}.na195-2{fill:#99004d;}.na195-3{fill:#9e6969;}.na195-4{fill:#b2622b;}.na195-5{fill:#99ce09;}.na195-6{fill:#ffffff;}.na195-7{fill:#663228;}.na195-8{fill:#663228;}.na195-9{fill:#dbc6d2;}.na195-10{fill:#dfdfdf;}.na195-11{fill:#a89969;}.na195-12{fill:#7a982c;}</style></defs><path class="na195-1" d="M23,27H22v6h1V27Z"/><rect class="na195-1" x="21" y="26" width="1" height="1"/><path class="na195-2" d="M21,30v1h1V29H21Z"/><path class="na195-2" d="M21,28h1V27H21Z"/><path class="na195-2" d="M21,32v1h1V32Z"/><path class="na195-1" d="M21,31V27H20v6h1V31Z"/><path class="na195-2" d="M19,32v1h1V32Z"/><path class="na195-2" d="M19,26v1H18v3h1v1h1V29H19V28h1V27h1V26H19Z"/><path class="na195-1" d="M20,26h1V25H19v1Z"/><path class="na195-1" d="M18,30V25h1V24H17v1H16v1h1v7h1V30Z"/><path class="na195-3" d="M17,26H16v1H13V26H12v7h5V26Z"/><path class="na195-1" d="M13,26v1h3V26H13Z"/><path class="na195-1" d="M13,23V22H12v2h1Z"/><path class="na195-4" d="M13,25v1h3V25h1V24H16V23H13v1H12v1Z"/><path class="na195-1" d="M12,26h1V25H12V24H10v1h1v8h1V26Z"/><path class="na195-2" d="M9,27v1h1v1H9v2h1V30h1V27H10V26H8v1Z"/><rect class="na195-2" x="9" y="32" width="1" height="1"/><path class="na195-1" d="M10,25H8v1h2Z"/><path class="na195-1" d="M9,31V27H8v6H9V31Z"/><rect class="na195-1" x="7" y="26" width="1" height="1"/><path class="na195-2" d="M7,30v1H8V29H7Z"/><path class="na195-2" d="M8,28V27H7v1Z"/><path class="na195-2" d="M7,32v1H8V32Z"/><path class="na195-1" d="M7,31V27H6v6H7V31Z"/><path class="na195-5" d="M11,30H10v1H9v1h1v1h1V30Z"/><path class="na195-5" d="M10,27h1V25H10v2Z"/><path class="na195-5" d="M18,26v1h1V25H18Z"/><path class="na195-5" d="M7,29H8V28H7Z"/><path class="na195-5" d="M10,28H9v1h1Z"/><path class="na195-5" d="M21,29h1V28H21Z"/><path class="na195-5" d="M19,29h1V28H19Z"/><path class="na195-5" d="M21,32h1V31H21Z"/><path class="na195-5" d="M7,32H8V31H7Z"/><path class="na195-5" d="M20,32V31H19V30H18v3h1V32Z"/><rect class="na195-1" x="20" y="15" width="1" height="1"/><rect class="na195-4" x="13" y="20" width="1" height="1"/><rect class="na195-4" x="15" y="20" width="1" height="1"/><path class="na195-4" d="M12,14V13H10v1h2Z"/><path class="na195-4" d="M10,17v1h1v1h1V18h2v1h1V18h2v1h1V18h1V16h1V15H16V14h2V13H13v2H9v1h1Zm4-1h1v1H14Z"/><path class="na195-1" d="M16,23v1h1V22H16Z"/><rect class="na195-1" x="8" y="15" width="1" height="1"/><rect class="na195-1" x="14" y="16" width="1" height="1"/><path class="na195-6" d="M12,15h1V14H12Z"/><path class="na195-6" d="M10,14v1h1V14Z"/><path class="na195-6" d="M18,14v1h1V14Z"/><path class="na195-6" d="M16,14v1h1V14Z"/><path class="na195-1" d="M11,14v1h1V14Z"/><path class="na195-1" d="M17,14v1h1V14Z"/><rect class="na195-7" x="18" y="13" width="1" height="1"/><path class="na195-7" d="M12,14h1V13H12Z"/><path class="na195-8" d="M15,18v1h1V18Z"/><path class="na195-8" d="M13,23h3V22h2V21h1V20h1V16H19v2H18v1H16v2H15V20H14v1H13V19h1V18H12v1H11V18H10V16H9v4h1v1h1v1h2Z"/><path class="na195-1" d="M14,19H13v1h3V19H14Z"/><path class="na195-1" d="M16,18v1h1V18Z"/><path class="na195-9" d="M19,14v1h1V13H19Z"/><path class="na195-9" d="M10,14V13H8v1H9v1h1Z"/><path class="na195-1" d="M24,11H22v1h2Z"/><rect class="na195-10" x="21" y="7" width="1" height="1"/><path class="na195-1" d="M12,13H22V12H20V11H19v1H10V11H9v1H7v1h5Z"/><rect class="na195-10" x="20" y="8" width="1" height="1"/><rect class="na195-11" x="19" y="10" width="1" height="1"/><path class="na195-6" d="M18,11h1V10h1V8h1V7h1V6H20V7H19V8H18v3Z"/><path class="na195-11" d="M17,11H10v1h9V11H17Z"/><path class="na195-1" d="M11,11h7V7H16V8H13V7H11V8H10v3Z"/><path class="na195-11" d="M10,10H9v1h1Z"/><path class="na195-1" d="M6,11H5v1H7V11Z"/><path class="na195-12" d="M0,33H6V27H7V26H8V25h2V24h2V22H11V21H10V20H9V16H8V15H9V14H8V13H7V12H5V11H7v1H9V10h1V8h1V7h2V8h3V7h2V8h1V7h1V6h2V8H21V9H20v3h2V11h2v1H22v1H20v2h1v1H20v4H19v1H18v1H17v2h2v1h2v1h1v1h1v6h6V0H0Z"/></svg>