<svg xmlns="http://www.w3.org/2000/svg" viewBox="0 0 29 33"><defs><style>polygon,rect,path{shape-rendering:crispedges;}.ga107-1{fill:#397d98;}.ga107-2{fill:#000000;}.ga107-3{fill:#ffffff;}.ga107-4{fill:#e8b795;}.ga107-5{fill:#ffffff;}.ga107-6{fill:#b23b00;}.ga107-7{fill:#fad000;}.ga107-8{fill:#b23b00;}.ga107-9{fill:#00af68;}</style></defs><path class="ga107-1" d="M0,33H6V27H7V26H8V25h2V23h1V21H10V20H9V16H8V15H9V11h1V10h1V9h1V8h1V6h1V5h1V7h1V9h2v1h1v1h1v4h1v1H20v4H19v1H18v2h1v2h2v1h1v1h1v6h6V0H0Z"/><path class="ga107-2" d="M23,27H22v6h1V27Z"/><rect class="ga107-2" x="21" y="26" width="1" height="1"/><path class="ga107-3" d="M22,27H21v6h1V27Z"/><path class="ga107-2" d="M21,27H20v6h1V27Z"/><path class="ga107-2" d="M20,26h1V25H19v1Z"/><path class="ga107-3" d="M20,27h1V26H19V25H18v1H17v1H16v2H15v1H14V29H13V27H12V26H11V25H10v1H9v7H20V27Z"/><path class="ga107-4" d="M14,24h1v1h1V23H13v2h1Z"/><path class="ga107-2" d="M9,26h1V25H8v1H7v1H8v6H9V26Z"/><path class="ga107-3" d="M8,27H7v6H8V27Z"/><path class="ga107-2" d="M7,27H6v6H7V27Z"/><rect class="ga107-2" x="20" y="15" width="1" height="1"/><path class="ga107-2" d="M19,13v2h1V11H19v2Z"/><rect class="ga107-4" x="15" y="20" width="1" height="1"/><path class="ga107-4" d="M18,14h1V13H17v1Z"/><rect class="ga107-4" x="13" y="20" width="1" height="1"/><path class="ga107-4" d="M10,17v1h1v1h1V18h2v1h1V18h2v1h1V18h1V16h1V15H16V13h1V12h2V11H18V10H16v1H15V10H11v1H10v2h1V12h2v1H11v1h2v1H9v1h1Zm4-1h1v1H14Z"/><rect class="ga107-2" x="18" y="10" width="1" height="1"/><path class="ga107-2" d="M16,23v2h1V23h1V22H16Z"/><path class="ga107-2" d="M17,10h1V9H16v1Z"/><path class="ga107-2" d="M14,10V9H11v1h3Z"/><rect class="ga107-2" x="10" y="10" width="1" height="1"/><path class="ga107-2" d="M10,14V11H9v4h1Z"/><rect class="ga107-2" x="8" y="15" width="1" height="1"/><rect class="ga107-2" x="14" y="16" width="1" height="1"/><path class="ga107-5" d="M13,15V14H12v1Z"/><path class="ga107-5" d="M10,15h1V14H10Z"/><path class="ga107-5" d="M18,14v1h1V14Z"/><path class="ga107-5" d="M16,14v1h1V14Z"/><path class="ga107-2" d="M12,15V14H11v1Z"/><path class="ga107-2" d="M17,14v1h1V14Z"/><path class="ga107-6" d="M11,14V13H10v1Z"/><rect class="ga107-6" x="11" y="12" width="2" height="1"/><path class="ga107-6" d="M17,13H16v1h1Z"/><path class="ga107-6" d="M19,12H17v1h2Z"/><rect class="ga107-2" x="14" y="29" width="1" height="1"/><rect class="ga107-2" x="12" y="26" width="1" height="1"/><path class="ga107-2" d="M15,28v1h1V27H15Z"/><rect class="ga107-2" x="16" y="26" width="1" height="1"/><path class="ga107-2" d="M13,27v2h1V27Z"/><rect class="ga107-2" x="17" y="25" width="1" height="1"/><rect class="ga107-2" x="11" y="25" width="1" height="1"/><rect class="ga107-2" x="14" y="24" width="1" height="1"/><rect class="ga107-2" x="13" y="25" width="1" height="1"/><rect class="ga107-2" x="15" y="25" width="1" height="1"/><path class="ga107-2" d="M12,24v1h1V22H11v1h1Z"/><rect class="ga107-7" x="16" y="25" width="1" height="1"/><path class="ga107-7" d="M15,26V25H14v1H13v1h1v2h1V27h1V26Z"/><rect class="ga107-7" x="12" y="25" width="1" height="1"/><path class="ga107-7" d="M11,25h1V23H11v2Z"/><path class="ga107-7" d="M17,24v1h1V23H17Z"/><path class="ga107-2" d="M19,25V23H18v2Z"/><path class="ga107-2" d="M11,24V23H10v2h1Z"/><path class="ga107-8" d="M14,18H13v1h1Z"/><path class="ga107-8" d="M13,23h3V22h2V21h1V20h1V16H19v2H18v1H17V18H15v1h1v2H15V20H14v1H13V19H11V18H10V16H9v4h1v1h1v1h2Z"/><path class="ga107-2" d="M13,19v1h3V19H13Z"/><path class="ga107-2" d="M12,18v1h1V18Z"/><path class="ga107-9" d="M14,10h1v1h1V7H15V5H14V6H13V8H12V9h2Z"/></svg>