<svg xmlns="http://www.w3.org/2000/svg" viewBox="0 0 29 33"><defs><style>polygon,rect,path{shape-rendering:crispedges;}.pa264-1{fill:#29834f;}.pa264-2{fill:#000000;}.pa264-3{fill:#db5800;}.pa264-4{fill:#e8b795;}.pa264-5{fill:#db5800;}.pa264-6{fill:#ffffff;}.pa264-7{fill:#00686d;}.pa264-8{fill:#5a2de2;}</style></defs><path class="pa264-1" d="M0,33H6V27H7V26H8V25h2V24h1V23H10V22h1V20H10V19H9V16H8V15H9V10h1V9h1V8h7V9h1v1h1v5h1v1H20v3H19v1H18v2h1v1H18v1h1v1h2v1h1v1h1v6h6V0H0Z"/><path class="pa264-2" d="M23,27H22v6h1V27Z"/><path class="pa264-3" d="M22,27H21v6h1V27Z"/><rect class="pa264-2" x="21" y="26" width="1" height="1"/><path class="pa264-2" d="M21,27H20v6h1V27Z"/><path class="pa264-3" d="M20,27h1V26H19V25H18V24H16v1h1v3h2v1H17v2h1V30h1v2H16V25H13v3h2v4H12V25h1V24H11v1H10v1H8v1H9v6H20V27Zm-9,2v3H10V28h1Z"/><path class="pa264-2" d="M20,26h1V25H19v1Z"/><rect class="pa264-2" x="18" y="24" width="1" height="1"/><rect class="pa264-2" x="18" y="22" width="1" height="1"/><rect class="pa264-3" x="17" y="22" width="1" height="1"/><path class="pa264-2" d="M13,24v1h3V24H13Z"/><path class="pa264-4" d="M15,23H13v1h3V23Z"/><path class="pa264-2" d="M13,23h3v1h2V23H17V22h1V20H17v1H16v1H13V21H12V20H11v2h1v1H11v1h2Z"/><rect class="pa264-3" x="11" y="22" width="1" height="1"/><rect class="pa264-2" x="10" y="24" width="1" height="1"/><rect class="pa264-2" x="10" y="22" width="1" height="1"/><path class="pa264-2" d="M10,25H8v1h2Z"/><path class="pa264-2" d="M9,27H8v6H9V27Z"/><path class="pa264-3" d="M8,27H7v6H8V27Z"/><rect class="pa264-2" x="7" y="26" width="1" height="1"/><path class="pa264-2" d="M7,27H6v6H7V27Z"/><path class="pa264-3" d="M14,31V29H13v2Z"/><path class="pa264-5" d="M14,29v2H13V30H12v2h3V28H13v1Z"/><path class="pa264-5" d="M10,29v3h1V28H10Z"/><path class="pa264-5" d="M18,29h1V28H17v1Z"/><path class="pa264-5" d="M16,31v1h3V30H18v1H17V30H16Z"/><path class="pa264-2" d="M12,26v4h1V25H12Z"/><path class="pa264-2" d="M16,30h1V25H16v5Z"/><rect class="pa264-2" x="20" y="15" width="1" height="1"/><path class="pa264-2" d="M19,15h1V14H19Z"/><path class="pa264-4" d="M18,14V13H16v1h2Z"/><path class="pa264-4" d="M12,21h1v1h3V21h1V20h1V19h1V16h1V15H16V14H14v2h1v1H14V16H13v1H11V16H10v3h1v1h1Zm1-2h3V18h1v1H16v1H13Z"/><path class="pa264-4" d="M16,13V12h2V10H17v1H14V10H13v1H12V10H11v1H10v1h2v1h1v1h1V13Z"/><rect class="pa264-4" x="18" y="12" width="1" height="1"/><path class="pa264-4" d="M10,13v1h2V13Z"/><rect class="pa264-4" x="9" y="15" width="1" height="1"/><path class="pa264-2" d="M19,17v2h1V16H19Z"/><rect class="pa264-2" x="18" y="19" width="1" height="1"/><rect class="pa264-2" x="10" y="19" width="1" height="1"/><path class="pa264-2" d="M10,16H9v3h1V16Z"/><rect class="pa264-2" x="8" y="15" width="1" height="1"/><rect class="pa264-2" x="14" y="16" width="1" height="1"/><path class="pa264-6" d="M18,14v1h1V14Z"/><path class="pa264-2" d="M17,14H16v1h2V14Z"/><rect class="pa264-7" x="18" y="13" width="1" height="1"/><rect class="pa264-7" x="12" y="13" width="1" height="1"/><rect class="pa264-7" x="10" y="12" width="2" height="1"/><rect class="pa264-2" x="13" y="19" width="3" height="1"/><rect class="pa264-2" x="16" y="18" width="1" height="1"/><path class="pa264-8" d="M19,12v2h1V11H19Z"/><path class="pa264-8" d="M10,12V11h1V10h1v1h1V10h1v1h3V10h1v1h1V9H18V8H11V9H10v1H9v3h1Z"/><path class="pa264-2" d="M10,16h1v1h2V16h1V14H10V13H9v2h1Z"/><rect class="pa264-2" x="14" y="13" width="2" height="1"/><rect class="pa264-2" x="16" y="12" width="2" height="1"/><path class="pa264-2" d="M19,12V11H18v1Z"/><path class="pa264-2" d="M20,11V10H19v1Z"/></svg>