<svg xmlns="http://www.w3.org/2000/svg" viewBox="0 0 29 33"><defs><style>polygon,rect,path{shape-rendering:crispedges;}.hb8-1{fill:#db5a8e;}.hb8-2{fill:#000000;}.hb8-3{fill:#c18d59;}.hb8-4{fill:#663228;}.hb8-5{fill:#663228;}.hb8-6{fill:#ff1d99;}.hb8-7{fill:#cbed03;}.hb8-8{fill:#00e070;}</style></defs><path class="hb8-1" d="M0,33H6V27H7V26H8V25h2V24h2V22H11V21H10V20H9V16H8V14H9V11h1V10h1V9h2V7h1V6h2V5h2V6H17V7h1V9h1v2h1v3h1v2H20v4H19v1H18v1H17v2h2v1h2v1h1v1h1v6h6V0H0Z"/><path class="hb8-2" d="M23,27H22v6h1V27Z"/><path class="hb8-3" d="M22,27H21v6h1V27Z"/><rect class="hb8-2" x="21" y="26" width="1" height="1"/><path class="hb8-2" d="M21,27H20v6h1V27Z"/><path class="hb8-3" d="M20,27h1V26H19V25H17V24H16V23H13v1H12v1H10v1H8v1H9v6h5V29h1v4h5V27Zm-8,2H11V28h1Zm6,0H17V28h1Z"/><path class="hb8-2" d="M20,26h1V25H19v1Z"/><rect class="hb8-2" x="17" y="28" width="1" height="1"/><path class="hb8-2" d="M18,25h1V24H17v1Z"/><path class="hb8-2" d="M15,29H14v4h1V29Z"/><path class="hb8-2" d="M13,23V22H12v2h1Z"/><rect class="hb8-2" x="11" y="28" width="1" height="1"/><path class="hb8-2" d="M12,24H10v1h2Z"/><path class="hb8-2" d="M10,25H8v1h2Z"/><path class="hb8-2" d="M9,27H8v6H9V27Z"/><path class="hb8-3" d="M8,27H7v6H8V27Z"/><rect class="hb8-2" x="7" y="26" width="1" height="1"/><path class="hb8-2" d="M7,27H6v6H7V27Z"/><path class="hb8-2" d="M20,16h1V15H20Z"/><path class="hb8-2" d="M19,13v1h1V11H19v2Z"/><rect class="hb8-3" x="13" y="20" width="1" height="1"/><rect class="hb8-3" x="14" y="15" width="1" height="1"/><path class="hb8-3" d="M16,17V16H15v1H14V16H13v1H10v1h1v1h1V18h5v1h1V18h1V17H16Z"/><rect class="hb8-3" x="15" y="20" width="1" height="1"/><path class="hb8-3" d="M11,13V12h2v2h3V13h1V12h2V11H18V10H15v1H13V10H11v1H10v2Z"/><path class="hb8-2" d="M18,11h1V10H18Z"/><path class="hb8-2" d="M16,23v1h1V22H16Z"/><path class="hb8-2" d="M16,10h2V9H16Z"/><path class="hb8-2" d="M13,9H11v1h2Z"/><rect class="hb8-2" x="10" y="10" width="1" height="1"/><path class="hb8-2" d="M10,13V11H9v3h1Z"/><path class="hb8-2" d="M8,15v1H9V15Z"/><rect class="hb8-2" x="14" y="16" width="1" height="1"/><path class="hb8-4" d="M13,12H11v1h2Z"/><path class="hb8-4" d="M19,12H17v1h2Z"/><path class="hb8-5" d="M13,23h3V22h2V21h1V20h1V16H19v2H18v1H16v2H15V20H14v1H13V19H11V18H10V16H9v4h1v1h1v1h2Z"/><path class="hb8-2" d="M16,18H12v1h1v1h3V19h1V18Z"/><path class="hb8-6" d="M13,11h2V10h1V9h2V7H17V6h1V5H16V6H14V7H13v4Z"/><path class="hb8-6" d="M19,10V9H18v1Z"/><path class="hb8-7" d="M19,15v1h1V15h1V14H19Z"/><path class="hb8-7" d="M19,14V13H16v1h3Z"/><path class="hb8-8" d="M19,14H16v2h3V14Z"/><path class="hb8-7" d="M16,16v1h3V16H16Z"/><path class="hb8-7" d="M14,16V15h1v1h1V14H13v2Z"/><path class="hb8-7" d="M13,14V13H10v1h3Z"/><path class="hb8-8" d="M13,16V14H10v2h3Z"/><path class="hb8-7" d="M13,17V16H10v1h3Z"/><path class="hb8-7" d="M10,15V14H8v1H9v1h1Z"/><rect class="hb8-6" x="18" y="9" width="1" height="1"></rect></svg>