<svg xmlns="http://www.w3.org/2000/svg" viewBox="0 0 29 33"><defs><style>polygon,rect,path{shape-rendering:crispedges;}.xa186-1{fill:#397d98;}.xa186-2{fill:#000000;}.xa186-3{fill:#00774c;}.xa186-4{fill:#c18d59;}.xa186-5{fill:#00af68;}.xa186-6{fill:#5e362f;}.xa186-7{fill:#ffffff;}.xa186-8{fill:#ff1f4a;}.xa186-9{fill:#fad000;}.xa186-10{fill:#ff1d99;}.xa186-11{fill:#9b005c;}</style></defs><path class="xa186-1" d="M13,6h4V5H12V6Z"/><path class="xa186-1" d="M0,33H6V27H7V26H8V25h2V22h1V20H10V19H9V18H8V12H9V10h1V9h1V8h7V9h1v1h1v5h1v1H20v3H19v1H18v2h1v3h2V24H20V23h1V22h1v1h1v1H22v1h1v8h6V0H0ZM11,5h1V4h5V5h1V6H17V7H12V6H11Z"/><path class="xa186-2" d="M23,25H22v8h1V25Z"/><path class="xa186-2" d="M7,30V27H6v6H7V30Z"/><rect class="xa186-2" x="7" y="26" width="1" height="1"/><path class="xa186-3" d="M8,29V27H7v2Z"/><path class="xa186-3" d="M7,31v2H8V31Z"/><path class="xa186-2" d="M21,31V25H19v1h1v5H14V27H13v4H9V27H8v6H9V32H20v1h1V31Z"/><path class="xa186-2" d="M10,26V25H8v1h2Z"/><path class="xa186-3" d="M13,32v1h1V32Z"/><path class="xa186-3" d="M10,32v1h1V32Z"/><path class="xa186-3" d="M19,32v1h1V32Z"/><path class="xa186-3" d="M16,32v1h1V32Z"/><path class="xa186-2" d="M11,24V22H10v3h1Z"/><path class="xa186-3" d="M12,25V24H11v2h1v2h1V25Z"/><path class="xa186-3" d="M12,23V22H11v1Z"/><path class="xa186-3" d="M12,29V28H11V27H10V26H9v2h1v1h1v2h2V30H12Z"/><path class="xa186-3" d="M9,30v1h1V30Z"/><rect class="xa186-2" x="13" y="24" width="1" height="1"/><path class="xa186-2" d="M15,26V25H14v2h1Z"/><path class="xa186-4" d="M14,25h1V24h1V23H13v1h1Z"/><rect class="xa186-2" x="15" y="24" width="1" height="1"/><path class="xa186-2" d="M18,24v1h1V22H18v2Z"/><path class="xa186-3" d="M15,30V28H14v3h2V30Z"/><path class="xa186-3" d="M18,24H16v1h1v1h1v2h1v1h1V27H19V25H18Z"/><path class="xa186-3" d="M18,30V28H17V27H16V25H15v3h1v1h1v2h2V30Z"/><path class="xa186-3" d="M17,23h1V22H17Z"/><path class="xa186-4" d="M22,27V25H21v2Z"/><path class="xa186-3" d="M21,28h1V27H21Z"/><path class="xa186-3" d="M21,31v1h1V30H21Z"/><rect class="xa186-2" x="20" y="15" width="1" height="1"/><path class="xa186-4" d="M12,21h1v1h3V21h1V20h1V19h1V16h1V15H19V11H18V10H16v1H14v1h2v1h1v1h1v1H16v1H15v1H14V16H13V15H11V14H10v1H9v1h1v3h1v1h1Zm0-3h1v1h3v1H13V19H12Z"/><path class="xa186-2" d="M19,17v2h1V16H19Z"/><rect class="xa186-2" x="18" y="19" width="1" height="1"/><path class="xa186-2" d="M12,23v1h1V23h3v1h1V22h1V20H17v1H16v1H13V21H12V20H11v2h1Z"/><rect class="xa186-2" x="10" y="19" width="1" height="1"/><path class="xa186-2" d="M10,16H9v3h1V16Z"/><path class="xa186-5" d="M19,28H18v2h1v1h1V29H19Z"/><path class="xa186-5" d="M21,32v1h1V32Z"/><path class="xa186-5" d="M17,27v1h1V26H17V25H16v2Z"/><path class="xa186-5" d="M20,27V26H19v1Z"/><path class="xa186-5" d="M21,29v1h1V28H21Z"/><path class="xa186-5" d="M18,32H17v1h2V32Z"/><path class="xa186-5" d="M16,29V28H15v2h1v1h1V29Z"/><path class="xa186-5" d="M13,25v2h1V25Z"/><path class="xa186-5" d="M15,27H14v1h1Z"/><path class="xa186-5" d="M15,32H14v1h2V32Z"/><path class="xa186-5" d="M12,29v1h1V28H12Z"/><rect class="xa186-5" x="12" y="24" width="1" height="1"/><path class="xa186-5" d="M10,27h1v1h1V26H11V25H10v2Z"/><path class="xa186-5" d="M12,32H11v1h2V32Z"/><path class="xa186-5" d="M10,29V28H9v2h1v1h1V29Z"/><path class="xa186-5" d="M9,32v1h1V32Z"/><path class="xa186-5" d="M9,27V26H8v1Z"/><path class="xa186-5" d="M7,30v1H8V29H7Z"/><path class="xa186-5" d="M12,23H11v1h1Z"/><path class="xa186-5" d="M18,23H17v1h1Z"/><path class="xa186-6" d="M18,15V14H17v1Z"/><rect class="xa186-6" x="16" y="13" width="1" height="1"/><rect class="xa186-2" x="14" y="14" width="1" height="1"/><path class="xa186-7" d="M13,13v1H12v1h1v1h3V15h1V14H16V13H13Zm2,2H14V14h1Z"/><path class="xa186-6" d="M13,13h3V12H13Z"/><rect class="xa186-6" x="12" y="13" width="1" height="1"/><path class="xa186-6" d="M11,14v1h1V14Z"/><path class="xa186-2" d="M14,17h1V16H14Z"/><rect class="xa186-4" x="11" y="13" width="1" height="1"/><rect class="xa186-2" x="13" y="19" width="3" height="1"/><rect class="xa186-2" x="12" y="18" width="1" height="1"/><path class="xa186-8" d="M9,15h1V14h1V13h2V12h1V11h2V10h2v1h1v4h1V10H19V9H18V8H11V9H10v1H9v2H8v6H9V15Z"/><rect class="xa186-9" x="17" y="5" width="1" height="1"/><path class="xa186-9" d="M13,6H12V7h5V6H13Z"/><path class="xa186-9" d="M17,5V4H12V5h5Z"/><rect class="xa186-9" x="11" y="5" width="1" height="1"/><rect class="xa186-10" x="21" y="22" width="1" height="1"/><rect class="xa186-10" x="20" y="23" width="1" height="1"/><rect class="xa186-10" x="22" y="23" width="1" height="1"/><path class="xa186-10" d="M22,24.5V24H21v1h1Z"/><rect class="xa186-11" x="21" y="23" width="1" height="1"/></svg>