<svg xmlns="http://www.w3.org/2000/svg" viewBox="0 0 29 33"><defs><style>polygon,rect,path{shape-rendering:crispedges;}.ha294-1{fill:#db5a8e;}.ha294-2{fill:#000000;}.ha294-3{fill:#00774c;}.ha294-4{fill:#b2622b;}.ha294-5{fill:#4fdb7d;}.ha294-6{fill:#ffffff;}.ha294-7{fill:#6f7032;}.ha294-8{fill:#00686d;}.ha294-9{fill:#e70059;}.ha294-10{fill:#ffce00;}</style></defs><path class="ha294-1" d="M0,33H8V32H6V31H5V23H4V20H5V19H7v1H8v1H9v2H8v2h2V24h2V22H11V21H10V20H9V16H8V15H9V13H8V9H9V8h1V7h1V6h7V7h1V8h1V9h1v4H20v2h1v1H20v4H19v1H18v1H17v2h2v1h2v1h1v1h1v6h6V0H0Z"/><path class="ha294-2" d="M6,24V23H5v8H6V24Z"/><path class="ha294-3" d="M7,30V24H6v7H7Z"/><path class="ha294-2" d="M9,31V27H8V26h2V25H8V23H7v8H6v1H8v1H9V31Z"/><path class="ha294-3" d="M15,29H14v2h1V29Z"/><path class="ha294-3" d="M19,32V31H18v1H17V29h1V28h1v1h1V27h1V26H19V25H17v1H16v1H13V26H12V25H10v1H8v1H9v2h1V28h1v1h1v3H11V31H10v1H9v1H20V32Zm-3-2v1H15v1H13V28h2v1h1Z"/><rect class="ha294-3" x="10" y="29" width="1" height="1"/><rect class="ha294-3" x="18" y="29" width="1" height="1"/><path class="ha294-2" d="M12,24H10v1h2Z"/><path class="ha294-2" d="M13,23V22H12v2h1Z"/><rect class="ha294-2" x="12" y="25" width="1" height="1"/><path class="ha294-2" d="M13,26v1h3V26H13Z"/><path class="ha294-4" d="M13,25v1h3V25h1V24H16V23H13v1H12v1Z"/><rect class="ha294-2" x="16" y="25" width="1" height="1"/><path class="ha294-2" d="M18,25h1V24H17v1Z"/><path class="ha294-2" d="M20,26h1V25H19v1Z"/><path class="ha294-2" d="M21,27H20v6h1V27Z"/><rect class="ha294-2" x="21" y="26" width="1" height="1"/><path class="ha294-3" d="M22,27H21v6h1V27Z"/><path class="ha294-2" d="M23,27H22v6h1V27Z"/><path class="ha294-5" d="M19,30H18V29H17v3h1V31h1v1h1V29H19Z"/><rect class="ha294-5" x="18" y="28" width="1" height="1"/><path class="ha294-5" d="M15,30v1h1V29H15Z"/><path class="ha294-5" d="M14,30V29h1V28H13v4h2V31H14Z"/><path class="ha294-5" d="M9,32h1V31h1v1h1V29H11v1H10V29H9v3Z"/><rect class="ha294-5" x="10" y="28" width="1" height="1"/><rect class="ha294-2" x="20" y="15" width="1" height="1"/><path class="ha294-2" d="M19,15h1V14H19Z"/><rect class="ha294-4" x="13" y="20" width="1" height="1"/><path class="ha294-4" d="M10,17v1h1v1h1V18h5v1h1V18h1V16h1V15H16V14h2V13H16V12h2V11H11v1h2v1H11v1h2v1H9v1h1Zm4-1h1v1H14Z"/><rect class="ha294-4" x="18" y="12" width="1" height="1"/><rect class="ha294-4" x="10" y="12" width="1" height="1"/><rect class="ha294-4" x="15" y="20" width="1" height="1"/><path class="ha294-2" d="M16,23v1h1V22H16Z"/><path class="ha294-2" d="M10,14H9v1h1Z"/><rect class="ha294-2" x="8" y="15" width="1" height="1"/><rect class="ha294-2" x="14" y="16" width="1" height="1"/><path class="ha294-6" d="M13,15V14H12v1Z"/><path class="ha294-6" d="M10,15h1V14H10Z"/><path class="ha294-6" d="M18,14v1h1V14Z"/><path class="ha294-6" d="M16,14v1h1V14Z"/><path class="ha294-2" d="M12,15V14H11v1Z"/><path class="ha294-2" d="M17,14v1h1V14Z"/><rect class="ha294-7" x="18" y="13" width="1" height="1"/><rect class="ha294-7" x="16" y="12" width="2" height="1"/><rect class="ha294-7" x="10" y="13" width="1" height="1"/><rect class="ha294-7" x="11" y="12" width="2" height="1"/><path class="ha294-8" d="M13,23h3V22h2V21h1V20h1V16H19v2H18v1H16v2H15V20H14v1H13V19H11V18H10V16H9v4h1v1h1v1h2Z"/><path class="ha294-2" d="M12,18v1h1V18Z"/><path class="ha294-2" d="M16,18v1h1V18Z"/><path class="ha294-2" d="M15,20h1V19H15Z"/><path class="ha294-2" d="M15,19V18H14v1Z"/><path class="ha294-2" d="M13,19v1h1V19Z"/><path class="ha294-6" d="M14,18H13v1h1Z"/><path class="ha294-6" d="M15,18v1h1V18Z"/><rect class="ha294-9" x="14" y="19" width="1" height="1"/><path class="ha294-2" d="M9,23V21H8v2Z"/><rect class="ha294-2" x="7" y="20" width="1" height="1"/><rect class="ha294-2" x="5" y="19" width="2" height="1"/><path class="ha294-2" d="M5,20H4v3H5V20Z"/><path class="ha294-4" d="M6,24H7V23H8V21H7V20H5v3H6Z"/><path class="ha294-10" d="M10,13V12h1V11h7v1h1v2h1V13h1V9H20V8H19V7H18V6H11V7H10V8H9V9H8v4H9v1h1Z"/></svg>