<svg xmlns="http://www.w3.org/2000/svg" viewBox="0 0 29 33"><defs><style>polygon,rect,path{shape-rendering:crispedges;}.sa81-1{fill:#d4a122;}.sa81-2{fill:#000000;}.sa81-3{fill:#ffa9d0;}.sa81-4{fill:#e8b795;}.sa81-5{fill:#ffffff;}.sa81-6{fill:#6e12ff;}.sa81-7{fill:#317f03;}.sa81-8{fill:#db5800;}.sa81-9{fill:#d4c468;}</style></defs><rect class="sa81-1" x="21" y="22" width="1" height="1"/><path class="sa81-2" d="M7,31V27H6v6H7Z"/><path class="sa81-3" d="M7,33H8V27H7v6Z"/><path class="sa81-2" d="M8,31v2H9V26h1V25H8v1H7v1H8Z"/><path class="sa81-3" d="M16,25h2V24H16Z"/><path class="sa81-3" d="M9,26v7H20V30H18V29H17v1H16V25H13v5H12V25h1V24H11v1H10v1Z"/><rect class="sa81-2" x="10" y="24" width="1" height="1"/><path class="sa81-2" d="M13,23H11v1h2Z"/><path class="sa81-2" d="M14,24H13v1h3V24Z"/><path class="sa81-4" d="M16,24V23H13v1h3Z"/><path class="sa81-2" d="M16,24h2V23H16Z"/><rect class="sa81-2" x="18" y="24" width="1" height="1"/><path class="sa81-2" d="M21,30H20v3h1V30Z"/><path class="sa81-3" d="M22,29H21v4h1V29Z"/><path class="sa81-2" d="M22,29v4h1V28H22Z"/><path class="sa81-2" d="M12,26v4h1V25H12Z"/><path class="sa81-2" d="M16,25v5h1V25Z"/><path class="sa81-4" d="M16,22V21h1V20h1V19h1V16H16V15H13v1H10v3h1v1h1v1h1v1h3Zm-2-6h1v1H14Zm-2,3V18h5v1H16v1H13V19Z"/><rect class="sa81-4" x="14" y="13" width="1" height="1"/><rect class="sa81-2" x="14" y="16" width="1" height="1"/><path class="sa81-5" d="M13,12h4V11H12v1Z"/><path class="sa81-6" d="M11,13h8V12H10v1Z"/><path class="sa81-3" d="M13,22H12V21H11V20H10V19H9V12h1V11h2V10h5v1h2v1h1v7H19v1H18v1H17v1H16v1h2V22h1V21h1V20h1V11H20V10H19V9H18V8H11V9H10v1H9v1H8v9H9v1h1v1h1v1h2Z"/><rect class="sa81-2" x="10" y="8" width="1" height="1"/><rect class="sa81-2" x="9" y="9" width="1" height="1"/><rect class="sa81-2" x="8" y="10" width="1" height="1"/><path class="sa81-2" d="M8,11H7v9H8V11Z"/><rect class="sa81-2" x="8" y="20" width="1" height="1"/><rect class="sa81-2" x="9" y="21" width="1" height="1"/><rect class="sa81-2" x="10" y="22" width="1" height="1"/><rect class="sa81-2" x="18" y="22" width="1" height="1"/><rect class="sa81-2" x="19" y="21" width="1" height="1"/><rect class="sa81-2" x="20" y="20" width="1" height="1"/><path class="sa81-2" d="M21,20h1V11H21v9Z"/><rect class="sa81-2" x="20" y="10" width="1" height="1"/><rect class="sa81-2" x="19" y="9" width="1" height="1"/><rect class="sa81-2" x="18" y="8" width="1" height="1"/><path class="sa81-2" d="M18,8V7H11V8h7Z"/><path class="sa81-2" d="M12,11H10v1h2Z"/><path class="sa81-2" d="M10,16V14h4V13H10V12H9v7h1V16Z"/><rect class="sa81-2" x="10" y="19" width="1" height="1"/><rect class="sa81-2" x="11" y="20" width="1" height="1"/><rect class="sa81-2" x="12" y="21" width="1" height="1"/><path class="sa81-2" d="M16,23V22H13v1h3Z"/><rect class="sa81-2" x="16" y="21" width="1" height="1"/><rect class="sa81-2" x="17" y="20" width="1" height="1"/><rect class="sa81-2" x="18" y="19" width="1" height="1"/><path class="sa81-2" d="M18,12h1V11H17v1Z"/><path class="sa81-2" d="M17,11V10H12v1h5Z"/><path class="sa81-1" d="M0,7V33H29V0H0ZM26,20H25V19h1Zm-2-3h1v1H24ZM6,27H7V26H8V25h2V24h1V23H10V22H9V21H8V20H7V11H8V10H9V9h1V8h1V7h7V8h1V9h1v1h1v1h1v9h1V19h1v1H23v1h1v1H23v1H22v1H21v1H20V24H19V23h1V22h1V20h0v1H20v1H19v1H18v1h1v1h4v1h1v2H23v5H6Z"/><path class="sa81-7" d="M17,19V18H13v1h4Z"/><path class="sa81-8" d="M13,14H10v2h3V15h1V14Z"/><path class="sa81-8" d="M15,14v1h1v1h3V14Z"/><path class="sa81-2" d="M18,13H15v1h4v5h1V12H19v1Z"/><path class="sa81-2" d="M14,14v1h1V14Z"/><path class="sa81-2" d="M16,20V19H13v1Z"/><path class="sa81-2" d="M12,18v1h1V18Z"/><path class="sa81-5" d="M17,25v4h1v1h3V29h1V28H21V26h1V25H17Z"/><rect class="sa81-9" x="25" y="19" width="1" height="1"/><rect class="sa81-9" x="24" y="17" width="1" height="1"/><rect class="sa81-9" x="23" y="19" width="1" height="1"/><path class="sa81-9" d="M21,20v2h1v1h1V22h1V21H23V20H21Z"/><polygon class="sa81-9" points="21 22 20 22 20 23 19 23 19 24 20 24 20 25 21 25 21 24 22 24 22 23 21 23 21 22"/><path class="sa81-4" d="M22,26H21v2h2V26H22Z"/><path class="sa81-2" d="M22.5,26H23V25H22v1Z"/><path class="sa81-2" d="M24,28V26H23v2Z"/></svg>