<svg xmlns="http://www.w3.org/2000/svg" viewBox="0 0 29 33"><defs><style>polygon,rect,path{shape-rendering:crispedges;}.na277-1{fill:#397d98;}.na277-2{fill:#000000;}.na277-3{fill:#ffffff;}.na277-4{fill:#cc2f76;}.na277-5{fill:#efcaaf;}.na277-6{fill:#a37e94;}.na277-7{fill:#893a1f;}.na277-8{fill:#893a1f;}.na277-9{fill:#c8a715;}.na277-10{fill:#a7af69;}.na277-11{fill:#a06415;}.na277-12{fill:#841f00;}.na277-13{fill:#b23b00;}</style></defs><path class="na277-1" d="M18,22H17v2h1V22Z"/><path class="na277-1" d="M0,33H6V27H7V26H8V25h2V20H9V16H8V15H9V10h1V9h1V8h7V9h1v1h1v5h1v1H20v4H19v5h2v1h1v1h1v6h6V0H0Z"/><path class="na277-1" d="M12,22H11v2h1V22Z"/><path class="na277-2" d="M23,27H22v6h1V27Z"/><rect class="na277-2" x="21" y="26" width="1" height="1"/><path class="na277-3" d="M21,31h1V30H21Z"/><path class="na277-3" d="M21,28h1V27H21Z"/><path class="na277-2" d="M21,30V27H20v6h1V30Z"/><path class="na277-3" d="M18,31h2V30H18Z"/><path class="na277-3" d="M18,28h2V27H18Z"/><path class="na277-2" d="M20,26h1V25H19v1Z"/><path class="na277-2" d="M18,30V25h1V24H17v1H16v1h1v7h1V30Z"/><path class="na277-4" d="M17,26H16v1H13V26H12v7h5V26Z"/><path class="na277-2" d="M13,26v1h3V26H13Z"/><path class="na277-5" d="M16,23H13v3h3V23Z"/><path class="na277-2" d="M12,26h1V25H12V24H10v1h1v8h1V26Z"/><path class="na277-3" d="M9,31h2V30H9Z"/><path class="na277-3" d="M9,28h2V27H9Z"/><path class="na277-2" d="M10,25H8v1h2Z"/><path class="na277-2" d="M9,30V27H8v6H9V30Z"/><rect class="na277-2" x="7" y="26" width="1" height="1"/><path class="na277-3" d="M8,28V27H7v1Z"/><path class="na277-3" d="M7,31H8V30H7Z"/><path class="na277-2" d="M7,30V27H6v6H7V30Z"/><path class="na277-6" d="M9,31v2h2V31Z"/><path class="na277-6" d="M18,31v2h2V31Z"/><path class="na277-6" d="M18,29v1h2V28H18Z"/><path class="na277-6" d="M9,29v1h2V28H9Z"/><path class="na277-6" d="M18,26v1h3V26H19V25H18Z"/><path class="na277-6" d="M9,27h2V25H10v1H8v1Z"/><path class="na277-6" d="M7,29v1H8V28H7Z"/><path class="na277-6" d="M7,31v2H8V31Z"/><path class="na277-6" d="M21,31v2h1V31Z"/><path class="na277-6" d="M21,29v1h1V28H21Z"/><rect class="na277-2" x="20" y="15" width="1" height="1"/><polygon class="na277-5" points="13 21 14 21 14 22 15 22 15 21 16 21 16 20 13 20 13 21"/><rect class="na277-5" x="14" y="15" width="1" height="1"/><path class="na277-5" d="M18,16v1H16V16H15v1H14V16H13v1H11V16H10v2h1v1h1V18h2v1h1V18h2v1h1V18h1V16Z"/><path class="na277-5" d="M14,14h2V13H13v1Z"/><rect class="na277-5" x="9" y="15" width="1" height="1"/><rect class="na277-5" x="19" y="15" width="1" height="1"/><path class="na277-2" d="M19,17h1V16H19Z"/><path class="na277-2" d="M10,16H9v1h1Z"/><rect class="na277-2" x="8" y="15" width="1" height="1"/><rect class="na277-2" x="14" y="16" width="1" height="1"/><rect class="na277-7" x="18" y="13" width="1" height="1"/><path class="na277-8" d="M12,22v1h5V22h2V20h1V17H19v1H18v1H17V18H15v1h1v2H15v1H14V21H13V19H11V18H10V17H9v3h1v2h2Z"/><path class="na277-8" d="M14,18H13v1h1Z"/><path class="na277-9" d="M18,23h1V22H18Z"/><path class="na277-8" d="M18,24h1V23H18Z"/><path class="na277-9" d="M16,23v1h1V23Z"/><path class="na277-8" d="M16,25h1V24H16Z"/><path class="na277-9" d="M13,23H12v1h1Z"/><path class="na277-8" d="M12,24v1h1V24Z"/><path class="na277-9" d="M11,22H10v1h1Z"/><path class="na277-8" d="M11,23H10v1h1Z"/><path class="na277-2" d="M13,19v1h3V19H13Z"/><path class="na277-2" d="M12,18v1h1V18Z"/><path class="na277-10" d="M10,14h1V13H9v2h1Z"/><path class="na277-10" d="M19,14v1h1V13H19Z"/><path class="na277-11" d="M13,13H11v1h2Z"/><path class="na277-11" d="M11,17h2V16H11Z"/><polygon class="na277-11" points="11 15 11 14 10 14 10 15 10 16 11 16 11 15"/><path class="na277-2" d="M11,16h2V14H11v2Z"/><polygon class="na277-11" points="18 15 18 16 19 16 19 15 19 14 18 14 18 15"/><path class="na277-11" d="M17,14h1V13H16v1Z"/><path class="na277-11" d="M16,17h2V16H16Z"/><path class="na277-11" d="M14,14H13v2h1V15h1v1h1V14Z"/><path class="na277-2" d="M18,14H16v2h2V14Z"/><path class="na277-12" d="M18,12V11H17v2h1Z"/><path class="na277-13" d="M10,12v1h1V11h1v2h1V11h1v2h1V11h1v2h1V11h1v2h1V11h1V10H19V9H18V8H11V9H10v1H9v1h1Z"/><path class="na277-12" d="M16,12V11H15v2h1Z"/><path class="na277-12" d="M14,12V11H13v2h1Z"/><path class="na277-12" d="M12,12V11H11v2h1Z"/><path class="na277-12" d="M10,12V11H9v2h1Z"/><path class="na277-12" d="M19,12v1h1V11H19Z"/></svg>