<svg xmlns="http://www.w3.org/2000/svg" viewBox="0 0 29 33"><defs><style>polygon,rect,path{shape-rendering:crispedges;}.eb184-1{fill:#29834f;}.eb184-2{fill:#000000;}.eb184-3{fill:#8c7850;}.eb184-4{fill:#333333;}.eb184-5{fill:#e8b795;}.eb184-6{fill:#90a2a3;}.eb184-7{fill:#ffffff;}.eb184-8{fill:#473a35;}.eb184-9{fill:#00686d;}.eb184-10{fill:#b23b00;}.eb184-11{fill:#d5eae6;}.eb184-12{fill:#d7ebe7;}.eb184-13{fill:#d1e6db;}.eb184-14{fill:#c7dad6;}.eb184-15{fill:#e8b100;}.eb184-16{fill:#d39200;}</style></defs><path class="eb184-1" d="M6,27H7V26H8V25H9V24h1V23h1V21H10V20H9V16H8V15H9V10h1V9h1V8h7V9h1v1h1v5h1v1H20v4H19v1H18v2h1v1h1V23h3v1h1v6H23v3h6V0H0V33H6V27Z"/><path class="eb184-2" d="M7,32V27H6v6H7Z"/><path class="eb184-3" d="M8,27H7v6H8V27Z"/><path class="eb184-2" d="M9,29h1V28h2V27H9V25H8v1H7v1H8v6H9V29Z"/><rect class="eb184-2" x="9" y="24" width="1" height="1"/><path class="eb184-3" d="M12,32V31H11V30H10V29H9v4h4V32Z"/><rect class="eb184-2" x="10" y="23" width="1" height="1"/><path class="eb184-3" d="M10,26v1h2v1H10v1h1v1h1v1h1V26H12V25H11V24H10v1H9v1Z"/><rect class="eb184-3" x="11" y="23" width="1" height="1"/><rect class="eb184-2" x="11" y="24" width="1" height="1"/><rect class="eb184-2" x="10" y="29" width="1" height="1"/><path class="eb184-2" d="M12,24h1V22H11v1h1Z"/><rect class="eb184-2" x="12" y="25" width="1" height="1"/><path class="eb184-4" d="M15,27H14v6h1V27Z"/><path class="eb184-5" d="M17,25V24H16V23H13v1H12v1h1v1h3V25Z"/><rect class="eb184-2" x="16" y="25" width="1" height="1"/><path class="eb184-3" d="M20,30H18v1H17v1H16v1h4V30Z"/><rect class="eb184-3" x="17" y="23" width="1" height="1"/><rect class="eb184-2" x="17" y="24" width="1" height="1"/><rect class="eb184-2" x="17" y="30" width="1" height="1"/><rect class="eb184-2" x="18" y="23" width="1" height="1"/><path class="eb184-3" d="M18,25H17v1H16v5h1V30h1V29h1V28H17V27h2V24H18Z"/><path class="eb184-2" d="M20,31v2h1V31Z"/><path class="eb184-2" d="M18,27H17v1h2V27Z"/><path class="eb184-3" d="M21,31v2h1V31Z"/><path class="eb184-2" d="M22,31v2h1V31Z"/><path class="eb184-2" d="M18,29v1h1V29Z"/><rect class="eb184-2" x="11" y="30" width="1" height="1"/><path class="eb184-2" d="M17,32V31H16V26H13v5H12v1h1v1h1V27h1v6h1V32Z"/><path class="eb184-6" d="M9,26v1h1V26Z"/><rect class="eb184-2" x="20" y="15" width="1" height="1"/><path class="eb184-2" d="M19,15h1V14H19Z"/><path class="eb184-5" d="M10,17v1h1v1h1V18h5v1h1V18h1V16h1V15H16V13h1V12h2V11H18V10H17v1H16V10H15v1H12V10H11v1H10v2h1V12h2v1H11v1h2v1H9v1h1Zm4-1h1v1H14Z"/><rect class="eb184-5" x="13" y="20" width="1" height="1"/><polygon class="eb184-5" points="18 14 19 14 19 13 17 13 17 14 18 14"/><rect class="eb184-5" x="15" y="20" width="1" height="1"/><path class="eb184-2" d="M16,23v1h1V23h1V22H16Z"/><path class="eb184-2" d="M10,14H9v1h1Z"/><rect class="eb184-2" x="8" y="15" width="1" height="1"/><rect class="eb184-2" x="14" y="16" width="1" height="1"/><path class="eb184-7" d="M13,15V14H12v1Z"/><path class="eb184-7" d="M10,15h1V14H10Z"/><path class="eb184-7" d="M18,14v1h1V14Z"/><path class="eb184-7" d="M16,14v1h1V14Z"/><path class="eb184-2" d="M12,15V14H11v1Z"/><path class="eb184-2" d="M17,14v1h1V14Z"/><rect class="eb184-8" x="10" y="13" width="1" height="1"/><rect class="eb184-8" x="11" y="12" width="2" height="1"/><path class="eb184-8" d="M17,13H16v1h1Z"/><rect class="eb184-8" x="17" y="12" width="2" height="1"/><path class="eb184-9" d="M13,23h3V22h2V21h1V20h1V16H19v2H18v1H16v2H15V20H14v1H13V19H11V18H10V16H9v4h1v1h1v1h2Z"/><path class="eb184-2" d="M16,18H12v1h1v1h3V19h1V18Z"/><path class="eb184-10" d="M10,13V11h1V10h1v1h3V10h1v1h1V10h1v1h1v3h1V10H19V9H18V8H11V9H10v1H9v4h1Z"/><polygon class="eb184-11" points="20.667 30 20 30 20 31 21 31 21 30 20.667 30"/><rect class="eb184-12" x="21" y="30" width="1" height="1"/><path class="eb184-11" d="M22,30v1h1V30H22Z"/><polygon class="eb184-13" points="21 25 22 25 22 24 20 24 20 25 21 25"/><path class="eb184-14" d="M20,25V24H19v1Z"/><path class="eb184-15" d="M23,26H22V25H20v5h3V26Z"/><path class="eb184-16" d="M23,26v4h1V25H23Z"/><path class="eb184-16" d="M20,25H19v5h1V25Z"/><path class="eb184-7" d="M22,25v1h1V25h1V24H23V23H20v1h2Z"/></svg>