<svg xmlns="http://www.w3.org/2000/svg" viewBox="0 0 29 33"><defs><style>polygon,rect,path{shape-rendering:crispedges;}.da209-1{fill:#db5a8e;}.da209-2{fill:#000000;}.da209-3{fill:#014731;}.da209-4{fill:#e8b795;}.da209-5{fill:#00af68;}.da209-6{fill:#ffffff;}.da209-7{fill:#893a1f;}.da209-8{fill:#ff5e17;}</style></defs><path class="da209-1" d="M6,32V27H7V26H8V25h2V24h2V21H11V20H9V18H8V12H9V11h1V10h1V9h7v1h1v1h1v2h1v5H20v2H18v1H17v3h2v1h2v1h1v1h1v6h6V0H0V33H6Z"/><path class="da209-2" d="M23,27H22v3H21V27H20v6h1V31h1v2h1V27Z"/><rect class="da209-2" x="21" y="26" width="1" height="1"/><path class="da209-3" d="M21,28v2h1V27H21Z"/><path class="da209-4" d="M21,31v2h1V31Z"/><path class="da209-2" d="M20,26h1V25H19v1Z"/><rect class="da209-3" x="12" y="30" width="1" height="1"/><rect class="da209-3" x="16" y="30" width="1" height="1"/><path class="da209-3" d="M16,32H12v1h5V32Z"/><path class="da209-3" d="M20,27h1V26H19V25H17v1H16v1H13V26H12V25H10v1H8v1H9v6h1V30h1V29h1V28h5v1h1v1h1v3h1V27Z"/><path class="da209-2" d="M18,25h1V24H17v1Z"/><rect class="da209-2" x="16" y="25" width="1" height="1"/><path class="da209-2" d="M13,26v1h3V26H13Z"/><path class="da209-2" d="M13,23h3v1h1V21H16v1H13V21H12v3h1Z"/><path class="da209-4" d="M13,25v1h3V25h1V24H16V23H13v1H12v1Z"/><rect class="da209-2" x="12" y="25" width="1" height="1"/><path class="da209-2" d="M12,24H10v1h2Z"/><path class="da209-2" d="M10,25H8v1h2Z"/><path class="da209-2" d="M9,27H8v3H7V27H6v6H7V31H8v2H9V27Z"/><rect class="da209-2" x="7" y="26" width="1" height="1"/><path class="da209-3" d="M7,30H8V27H7v3Z"/><path class="da209-4" d="M7,31v2H8V31Z"/><path class="da209-5" d="M19,30H18V29H17V28H12v1H11v1H10v3h2V32h5v1h2V30Zm-6,1H12V30h1Zm4,0H16V30h1Z"/><rect class="da209-4" x="9" y="15" width="1" height="1"/><path class="da209-4" d="M13,22h3V21h1V20h1V19h1V18H18V15H17v2H16V15H15V11H14v1H13v2h1v2h1v1H14V16H13V15H11v3H10v1h1v1h1v1h1Zm-1-3V18h1v1h3v1H13V19Z"/><rect class="da209-4" x="16" y="12" width="1" height="1"/><rect class="da209-4" x="19" y="15" width="1" height="1"/><rect class="da209-4" x="17" y="13" width="1" height="1"/><rect class="da209-4" x="11" y="11" width="1" height="1"/><rect class="da209-4" x="11" y="13" width="1" height="1"/><path class="da209-2" d="M19,16v2h1V16Z"/><path class="da209-2" d="M18,19v1h1V19Z"/><rect class="da209-2" x="17" y="20" width="1" height="1"/><rect class="da209-2" x="11" y="20" width="1" height="1"/><path class="da209-2" d="M10,19v1h1V19Z"/><rect class="da209-2" x="9" y="14" width="1" height="1"/><path class="da209-2" d="M10,17V16H9v2h1Z"/><rect class="da209-2" x="14" y="16" width="1" height="1"/><rect class="da209-6" x="16" y="14" width="1" height="1"/><path class="da209-2" d="M11,14v1h2V14H11Z"/><rect class="da209-2" x="17" y="14" width="1" height="1"/><rect class="da209-7" x="11" y="12" width="1" height="1"/><rect class="da209-7" x="16" y="13" width="1" height="1"/><rect class="da209-7" x="17" y="12" width="1" height="1"/><rect class="da209-2" x="13" y="19" width="3" height="1"/><rect class="da209-2" x="12" y="18" width="1" height="1"/><path class="da209-8" d="M9,15V14h1v4h1V11h1v3h1V12h1V11h1v4h1V12h2v6h1V15h1v3h1V13H20V11H19V10H18V9H11v1H10v1H9v1H8v6H9V15Z"/><path class="da209-8" d="M10,18H9v2h1V18Z"/><path class="da209-8" d="M13,16h1V14H13v2Z"/><path class="da209-8" d="M16,16v1h1V15H16Z"/><path class="da209-8" d="M19,19v1h1V18H19Z"/></svg>