<svg xmlns="http://www.w3.org/2000/svg" viewBox="0 0 29 33"><defs><style>polygon,rect,path{shape-rendering:crispedges;}.pa266-1{fill:#31a09d;}.pa266-2{fill:#000000;}.pa266-3{fill:#e1ff85;}.pa266-4{fill:#e8b795;}.pa266-5{fill:#99004d;}.pa266-6{fill:#99004d;}.pa266-7{fill:#c8a715;}.pa266-8{fill:#0068ff;}.pa266-9{fill:#ffffff;}</style></defs><path class="pa266-1" d="M0,33H6V27H7V26H8V25h2V20H9V16H8V14H9V11h1V10h1V9h7v1h1v1h1v3h1v2H20v4H19v5h2v1h1v1h1v6h6V0H0Z"/><path class="pa266-2" d="M23,27H22v6h1V27Z"/><path class="pa266-3" d="M22,27H21v6h1V27Z"/><rect class="pa266-2" x="21" y="26" width="1" height="1"/><path class="pa266-2" d="M21,27H20v6h1V27Z"/><path class="pa266-3" d="M20,27h1V26H19V25H18V24H17v6H16V25H13v5H12V24H11v1H10v1H8v1H9v6H20V27Z"/><path class="pa266-2" d="M20,26h1V25H19v1Z"/><path class="pa266-2" d="M18,25h1V24H18Z"/><rect class="pa266-3" x="17" y="22" width="1" height="1"/><rect class="pa266-2" x="17" y="23" width="1" height="1"/><path class="pa266-2" d="M15,24H13v1h3V24Z"/><path class="pa266-4" d="M14,24h2V23H13v1Z"/><rect class="pa266-2" x="11" y="23" width="1" height="1"/><rect class="pa266-3" x="11" y="22" width="1" height="1"/><path class="pa266-2" d="M11,24H10v1h1Z"/><path class="pa266-2" d="M10,25H8v1h2Z"/><path class="pa266-2" d="M9,27H8v6H9V27Z"/><path class="pa266-3" d="M8,27H7v6H8V27Z"/><rect class="pa266-2" x="7" y="26" width="1" height="1"/><path class="pa266-2" d="M7,27H6v6H7V27Z"/><path class="pa266-2" d="M12,26v4h1V25H12Z"/><path class="pa266-2" d="M16,26v4h1V25H16Z"/><path class="pa266-2" d="M20,16h1V15H20Z"/><path class="pa266-2" d="M19,13v1h1V12H19Z"/><path class="pa266-4" d="M16,17V16H15v1H14V16H13v1H10v1h1v1h1V18h2v1h1V18h2v1h1V18h1V17H16Z"/><rect class="pa266-4" x="14" y="15" width="1" height="1"/><path class="pa266-4" d="M12,13h1v1h3V12h1V11H16V10H13v1H12v2Z"/><polygon class="pa266-4" points="13 21 14 21 14 22 15 22 15 21 16 21 16 20 13 20 13 21"/><rect class="pa266-4" x="10" y="11" width="1" height="1"/><path class="pa266-4" d="M18,12v1h1V11H18Z"/><rect class="pa266-4" x="11" y="10" width="1" height="1"/><rect class="pa266-4" x="17" y="10" width="1" height="1"/><path class="pa266-2" d="M19,17h1V16H19Z"/><path class="pa266-2" d="M10,13V12H9v2h1Z"/><path class="pa266-2" d="M10,16H9v1h1Z"/><path class="pa266-2" d="M8,15v1H9V15Z"/><rect class="pa266-2" x="14" y="16" width="1" height="1"/><path class="pa266-5" d="M16,12v1h2V12H16Z"/><path class="pa266-5" d="M12,12H10v1h2Z"/><path class="pa266-6" d="M12,22v1h5V22h2V20h1V17H19v1H18v1H17V18H15v1h1v2H15v1H14V21H13V19h1V18H12v1H11V18H10V17H9v3h1v2h2Z"/><path class="pa266-7" d="M18,23h1V22H18Z"/><path class="pa266-6" d="M18,24h1V23H18Z"/><path class="pa266-7" d="M16,23v1h1V23Z"/><path class="pa266-6" d="M16,25h1V24H16Z"/><path class="pa266-7" d="M13,23H12v1h1Z"/><path class="pa266-6" d="M12,24v1h1V24Z"/><path class="pa266-7" d="M11,22H10v1h1Z"/><path class="pa266-6" d="M11,23H10v1h1Z"/><path class="pa266-2" d="M13,19v1h3V19H13Z"/><path class="pa266-8" d="M20,12V11H19v1Z"/><rect class="pa266-8" x="18" y="10" width="1" height="1"/><path class="pa266-8" d="M12,11h1V10h3v1h1V10h1V9H11v1h1Z"/><path class="pa266-8" d="M18,12V11H17v1Z"/><path class="pa266-8" d="M12,11H11v1h1Z"/><rect class="pa266-8" x="10" y="10" width="1" height="1"/><path class="pa266-8" d="M10,11H9v1h1Z"/><path class="pa266-9" d="M19,15v1h1V15h1V14H19Z"/><path class="pa266-9" d="M16,14h3V13H16Z"/><path class="pa266-2" d="M16,14v2h3V14H16Z"/><path class="pa266-9" d="M18,16H16v1h3V16Z"/><path class="pa266-9" d="M13,14v2h1V15h1v1h1V14Z"/><path class="pa266-9" d="M13,14V13H10v1h3Z"/><path class="pa266-2" d="M13,16V14H10v2h3Z"/><path class="pa266-9" d="M13,17V16H10v1h3Z"/><path class="pa266-9" d="M10,15V14H8v1H9v1h1Z"/></svg>