<svg xmlns="http://www.w3.org/2000/svg" viewBox="0 0 29 33"><defs><style>polygon,rect,path{shape-rendering:crispedges;}.aa243-1{fill:#397d98;}.aa243-2{fill:#000000;}.aa243-3{fill:#e8b795;}.aa243-4{fill:#8e9350;}.aa243-5{fill:#ffffff;}.aa243-6{fill:#ffffff;}.aa243-7{fill:#8e4717;}.aa243-8{fill:#8e4717;}.aa243-9{fill:#ff6aa5;}</style></defs><path class="aa243-1" d="M0,33H6V27H7V26H8V25h2V24h2V21H11V20H10V19H9V16H8V15H9V11h1V10h1V9h7v1h1v1h1v4h1v1H20v3H19v1H18v1H17v3h2v1h2V23H20V21h1V20h1V19h2v1h1v3H24v8H23v1H21v1h8V0H0Z"/><path class="aa243-2" d="M7,31V27H6v6H7Z"/><rect class="aa243-2" x="7" y="26" width="1" height="1"/><path class="aa243-3" d="M8,31V27H7v6H8Z"/><rect class="aa243-3" x="8" y="26" width="1" height="1"/><path class="aa243-2" d="M9,31V27H8v6H9Z"/><path class="aa243-2" d="M10,26V25H8v1Z"/><rect class="aa243-4" x="18" y="32" width="1" height="1"/><path class="aa243-4" d="M14,31v1h1V30H14Z"/><rect class="aa243-4" x="10" y="30" width="1" height="1"/><rect class="aa243-4" x="10" y="32" width="1" height="1"/><rect class="aa243-4" x="18" y="30" width="1" height="1"/><path class="aa243-4" d="M17,31V30h1V29h1v1h1V26H19V25H18v1H17v1H16v1H13V27H12V26H11V25H10v1H9v4h1V29h1v1h1v3h1V29h2v1h1v2H15v1h2Z"/><path class="aa243-2" d="M13,23V22H12v2h1Z"/><rect class="aa243-3" x="20" y="26" width="1" height="1"/><path class="aa243-2" d="M22,32h1V31H22V23H21v2H19v1h2v1H20v6h1V32Z"/><path class="aa243-2" d="M23,24v7h1V23H23Z"/><path class="aa243-2" d="M11,26h1V24H10v1h1Z"/><rect class="aa243-2" x="12" y="26" width="1" height="1"/><rect class="aa243-2" x="16" y="26" width="1" height="1"/><path class="aa243-2" d="M17,26h1V25h1V24H17Z"/><path class="aa243-2" d="M14,27H13v1h3V27Z"/><path class="aa243-3" d="M12,26h1v1h3V26h1V24H16V23H13v1H12Z"/><path class="aa243-5" d="M20,31V30H19v1H18V30H17v3h1V32h1v1h1Z"/><rect class="aa243-5" x="18" y="29" width="1" height="1"/><path class="aa243-5" d="M15,32h1V30H15Z"/><path class="aa243-5" d="M14,32V30h1V29H13v4h2V32Z"/><path class="aa243-5" d="M12,31V30H11v1H10V30H9v3h1V32h1v1h1Z"/><rect class="aa243-5" x="10" y="29" width="1" height="1"/><rect class="aa243-2" x="20" y="15" width="1" height="1"/><path class="aa243-3" d="M18,15H15v2H14V15H13v1H11v1H10v1h1v1h1V18h2v1h1V18h2v1h1V18h1V16h1V15Z"/><rect class="aa243-3" x="13" y="20" width="1" height="1"/><rect class="aa243-3" x="9" y="15" width="1" height="1"/><rect class="aa243-3" x="15" y="20" width="1" height="1"/><rect class="aa243-2" x="19" y="16" width="1" height="1"/><path class="aa243-2" d="M16,23v1h1V22H16Z"/><rect class="aa243-2" x="9" y="16" width="1" height="1"/><rect class="aa243-2" x="8" y="15" width="1" height="1"/><rect class="aa243-2" x="14" y="16" width="1" height="1"/><rect class="aa243-6" x="18" y="14" width="1" height="1"/><rect class="aa243-6" x="16" y="14" width="1" height="1"/><rect class="aa243-2" x="17" y="14" width="1" height="1"/><rect class="aa243-7" x="16" y="13" width="1" height="1"/><rect class="aa243-8" x="13" y="18" width="1" height="1"/><path class="aa243-8" d="M13,23h3V22h1V21h1V20h1V19h1V17H19v1H18v1H17V18H15v1h1v2H15V20H14v1H13V19H11V18H10V17H9v2h1v1h1v1h1v1h1Z"/><path class="aa243-2" d="M13,19v1h3V19Z"/><rect class="aa243-2" x="12" y="18" width="1" height="1"/><path class="aa243-2" d="M21,21H20v2h1Z"/><rect class="aa243-2" x="21" y="20" width="1" height="1"/><rect class="aa243-2" x="22" y="19" width="2" height="1"/><path class="aa243-2" d="M24,22v1h1V20H24Z"/><path class="aa243-3" d="M22,24v7h1V23h1V20H22v1H21v2h1Z"/><path class="aa243-9" d="M10,16v1h1V16h2V15h1v1h1V15h1V13h1v1h2v1h1V11H19V10H18V9H11v1H10v1H9v4h1Z"/></svg>