<svg xmlns="http://www.w3.org/2000/svg" viewBox="0 0 29 33"><defs><style>polygon,rect,path{shape-rendering:crispedges;}.ib185-1{fill:#db5a8e;}.ib185-2{fill:#000000;}.ib185-3{fill:#ce8452;}.ib185-4{fill:#ffffff;}.ib185-5{fill:#9b8100;}.ib185-6{fill:#ff1f4a;}.ib185-7{fill:#10bcff;}</style></defs><path class="ib185-1" d="M7,27H7v6H7V27Z"/><path class="ib185-1" d="M29,0H0V22H0V33H6V26H5V24H8v1h2V24h2V22H11V21H10V20H9V17H8V15H9V11h1V10h1V9h7v1h1v1h1v4h1v2H20v3H19v1H18v1H17v2h2v1h2V24h3v2H23v7h6V22h0V0Z"/><path class="ib185-2" d="M23,26H22v7h1V26Z"/><path class="ib185-2" d="M7,27V26H6v7H7V27Z"/><path class="ib185-2" d="M9,26h1V25H8v2H8v6H9V26Z"/><path class="ib185-3" d="M20,26H19V25H16v1H13V25H10v1H9v7h5V29h1v4h5V26Zm-8,3H11V28h1Zm6,0H17V28h1Z"/><rect class="ib185-2" x="11" y="28" width="1" height="1"/><path class="ib185-2" d="M13,25v1h3V25h3V24H17V22h1V21h1V20h1V17h1V15H20V11H19V10H18V9H11v1H10v1H9v4H8v2H9v3h1v1h1v1h1v2H10v1h3Zm3-10V14h1v1h1V14h1v2H16Zm-1,5h1v1H13V20h2Zm-4-4H10V14h1v1h1V14h1v2Z"/><path class="ib185-2" d="M15,29H14v4h1V29Z"/><rect class="ib185-2" x="17" y="28" width="1" height="1"/><path class="ib185-2" d="M21,25H19v1h1v7h1V25Z"/><path class="ib185-3" d="M16,21V20H15v1Z"/><path class="ib185-3" d="M13,15H10v1h3Z"/><path class="ib185-3" d="M13,21h1V20H13Z"/><path class="ib185-3" d="M19,15H16v1h3Z"/><path class="ib185-4" d="M13,14H12v1h1Z"/><path class="ib185-4" d="M11,14H10v1h1Z"/><path class="ib185-4" d="M19,14H18v1h1Z"/><path class="ib185-4" d="M17,14H16v1h1Z"/><path class="ib185-5" d="M15,21V20H14v1Z"/><path class="ib185-2" d="M23,26h1V25H23Z"/><path class="ib185-2" d="M22,24H21v1h1Z"/><path class="ib185-6" d="M23,25h1V24H22v1Z"/><path class="ib185-2" d="M8,25V24H7v1Z"/><path class="ib185-2" d="M5,25v1H6V25Z"/><path class="ib185-7" d="M7,25V24H5v1H7Z"/><path class="ib185-3" d="M22,26h1V25H21v8h1V26Z"/><path class="ib185-3" d="M8,27H8V25H6v1H7v1H7v6H8V27Z"/></svg>