<svg xmlns="http://www.w3.org/2000/svg" viewBox="0 0 29 33"><defs><style>polygon,rect,path{shape-rendering:crispedges;}.oa75-1{fill:#db5a8e;}.oa75-2{fill:#000000;}.oa75-3{fill:#a37e94;}.oa75-4{fill:#9b8100;}.oa75-5{fill:#efcaaf;}.oa75-6{fill:#ffffff;}.oa75-7{fill:#317f03;}.oa75-8{fill:#ff1f4a;}.oa75-9{fill:#6d5800;}.oa75-10{fill:#fad000;}.oa75-11{fill:#ea1500;}</style></defs><rect class="oa75-1" x="17" y="20" width="1"/><rect class="oa75-1" x="18" y="19" width="1"/><rect class="oa75-1" x="14" y="16" width="1"/><path class="oa75-1" d="M13,21H12V20H11V19H10V16h0v3h1v1h1v1Z"/><rect class="oa75-1" x="16" y="21" width="1"/><rect class="oa75-1" x="19" y="16" width="1"/><path class="oa75-1" d="M13,22Z"/><path class="oa75-1" d="M0,0V33H29V0ZM27,18v4H26v1H25v1H24v7H23v1H21v1H6V27H7V26H8V25h2V24h2V21H11V20H9V19H8V16H8V15H8V11H9V10h1V9h1V8h7V9h1v1h1v1h1v8H20v1H18v1H17v3h2v1h2V23h1V22H21V19h1v1h1V18h1V17h3Z"/><path class="oa75-2" d="M23,25v6h1V24H23Z"/><path class="oa75-2" d="M7,30V27H6v6H7V30Z"/><path class="oa75-3" d="M8,28V27H7v1Z"/><path class="oa75-3" d="M7,31H8V30H7Z"/><rect class="oa75-2" x="7" y="26" width="1" height="1"/><path class="oa75-2" d="M9,30V27H8v6H9V30Z"/><path class="oa75-3" d="M9,31h2V30H9Z"/><path class="oa75-3" d="M9,28h2V27H9Z"/><path class="oa75-2" d="M10,25H8v1h2Z"/><path class="oa75-2" d="M12,26h1V25H12V24H10v1h1v8h1V26Z"/><path class="oa75-4" d="M17,26H16v1H13V26H12v7h5V26Z"/><path class="oa75-2" d="M13,23h3v1h1V21H16v1H13V21H12v3h1Z"/><path class="oa75-2" d="M13,26v1h3V26H13Z"/><path class="oa75-5" d="M13,25v1h3V25h1V24H16V23H13v1H12v1Z"/><path class="oa75-2" d="M18,30V25h1V24H17v1H16v1h1v7h1V30Z"/><path class="oa75-3" d="M18,31h2V30H18Z"/><path class="oa75-3" d="M18,28h2V27H18Z"/><path class="oa75-2" d="M22,30V23H21v2H19v1h2v1H20v6h1V32h2V31H22Z"/><path class="oa75-3" d="M22,28h1V27H22Z"/><path class="oa75-3" d="M23,25V24H22v1Z"/><path class="oa75-3" d="M22,30v1h1V30Z"/><path class="oa75-6" d="M18,31v2h2V31Z"/><path class="oa75-6" d="M9,31v2h2V31Z"/><path class="oa75-6" d="M9,29v1h2V28H9Z"/><path class="oa75-6" d="M18,29v1h2V28H18Z"/><path class="oa75-6" d="M9,27h2V25H10v1H8v1Z"/><path class="oa75-6" d="M18,26v1h3V26H19V25H18Z"/><path class="oa75-6" d="M22,29v1h1V28H22Z"/><path class="oa75-6" d="M22,26v1h1V25H22Z"/><path class="oa75-6" d="M7,31v2H8V31Z"/><path class="oa75-6" d="M7,29v1H8V28H7Z"/><path class="oa75-5" d="M13,13h3V12h1V11H15V10H14v1H13v1h0Z"/><rect class="oa75-5" x="18" y="13" width="1"/><path class="oa75-5" d="M17,21V20h1V19h1V16h1V15H18v1H16V15H15V14H14v1H13v1H11V15H9v1h1v3h1v1h1v1h1v1h3V21h1Zm-3-4V16h1v1H14Zm-1,3V19H12V18h1v1h3v1Z"/><path class="oa75-2" d="M20,16H19v3h1V16Z"/><path class="oa75-2" d="M18,19v1h1V19Z"/><polygon class="oa75-2" points="17 21 17 21 18 21 18 20 17 20 17 21"/><rect class="oa75-2" x="14" y="10" width="1"/><rect class="oa75-2" x="11" y="20" width="1" height="1"/><path class="oa75-2" d="M10,19v1h1V19Z"/><path class="oa75-2" d="M10,18V16H9v3h1Z"/><rect class="oa75-2" x="8" y="15" height="1"/><polygon class="oa75-2" points="15 17 15 16 14 16 14 17 14 17 15 17 15 17"/><rect class="oa75-7" x="18" y="13" width="1" height="1"/><rect class="oa75-7" x="16" y="12" width="1" height="1"/><rect class="oa75-7" x="12" y="12" width="1" height="1"/><rect class="oa75-2" x="13" y="19" width="3" height="1"/><rect class="oa75-2" x="12" y="18" width="1" height="1"/><path class="oa75-8" d="M9,18V16H9V14h2V13h1V12h1V11h1V10h1v1h2v2h2v1h1v2h0v3h1V11H20V10H19V9H18V8H11V9H10v1H9v1H8v8H9Z"/><path class="oa75-8" d="M9,19v1h1V19Z"/><path class="oa75-8" d="M19,20h1V19H19Z"/><path class="oa75-2" d="M11,16h2V15h1V14h1v1h1v1h2V15h2V14H18V13H11v1H9v1h2Z"/><path class="oa75-9" d="M21,21v1h1V21Z"/><path class="oa75-10" d="M25,19H24V18H23v2H22V19H21v2h1v1h2V21h1v1H24v1h2V22h1V20H25Z"/><path class="oa75-5" d="M23,23H22v1h2V23Z"/><path class="oa75-9" d="M24,23V22H22v1h2Z"/><path class="oa75-2" d="M24,24h1V23H24Z"/><rect class="oa75-9" x="24" y="21" width="1" height="1"/><rect class="oa75-2" x="24" y="18" width="1" height="1"/><path class="oa75-11" d="M25,19v1h2V19H25Z"/><path class="oa75-10" d="M24,17v1h1v1h1V18h1V17H24Z"/><path class="oa75-2" d="M26,19h1V18H26Z"/></svg>