<svg xmlns="http://www.w3.org/2000/svg" viewBox="0 0 29 33"><defs><style>polygon,rect,path{shape-rendering:crispedges;}.oa7-1{fill:#31a09d;}.oa7-2{fill:#000000;}.oa7-3{fill:#d8be00;}.oa7-4{fill:#ffffff;}.oa7-5{fill:#c18d59;}.oa7-6{fill:#875070;}.oa7-7{fill:#ffffff;}.oa7-8{fill:#cc3232;}.oa7-9{fill:#c9a717;}</style></defs><path class="oa7-1" d="M0,33H6V27H7V26H8V25h2V22H9V16H8V15H9V14H8V13H4V12H6V11H8V10h2V9h1V8h1V7h1V6h1V5h1V6h1V7h1V8h1V9h1v1h2v1h2v1h2v1H21v1H20v1h1v1H20v8H19v1h2v1h1v1h1v6h6V0H0Z"/><path class="oa7-2" d="M23,27H22v6h1V27Z"/><rect class="oa7-2" x="21" y="26" width="1" height="1"/><path class="oa7-3" d="M21,31h1V30H21Z"/><path class="oa7-3" d="M21,28h1V27H21Z"/><path class="oa7-2" d="M21,30V27H20v6h1V30Z"/><path class="oa7-3" d="M18,31h2V30H18Z"/><path class="oa7-3" d="M18,27v1h2V27H18Z"/><path class="oa7-2" d="M20,26h1V25H19v1Z"/><path class="oa7-2" d="M18,30V25H16v1h1v7h1V30Z"/><path class="oa7-4" d="M17,26H16v1H13V26H12v7h5V26Z"/><path class="oa7-2" d="M13,26v1h3V26H13Z"/><path class="oa7-2" d="M13,23h3v1h1V21H16v1H13V21H12v3h1Z"/><path class="oa7-5" d="M16,24V23H13v1H12v1h1v1h3V25h1V24Z"/><rect class="oa7-2" x="12" y="25" width="1" height="1"/><path class="oa7-2" d="M12,26H11v7h1V26Z"/><path class="oa7-3" d="M9,31h2V30H9Z"/><path class="oa7-3" d="M9,28h2V27H9Z"/><path class="oa7-2" d="M10,25H8v1h2Z"/><path class="oa7-2" d="M9,30V27H8v6H9V30Z"/><rect class="oa7-2" x="7" y="26" width="1" height="1"/><path class="oa7-3" d="M8,28V27H7v1Z"/><path class="oa7-3" d="M7,31H8V30H7Z"/><path class="oa7-2" d="M7,30V27H6v6H7V30Z"/><path class="oa7-6" d="M9,31v2h2V31Z"/><path class="oa7-6" d="M18,31v2h2V31Z"/><path class="oa7-6" d="M18,29v1h2V28H18Z"/><path class="oa7-6" d="M9,29v1h2V28H9Z"/><path class="oa7-6" d="M19,26v1h2V26H19Z"/><path class="oa7-6" d="M9,27h2V25H10v1H8v1Z"/><path class="oa7-6" d="M7,29v1H8V28H7Z"/><path class="oa7-6" d="M7,31v2H8V31Z"/><path class="oa7-6" d="M21,31v2h1V31Z"/><path class="oa7-6" d="M21,29v1h1V28H21Z"/><rect class="oa7-2" x="20" y="15" width="1" height="1"/><path class="oa7-5" d="M18,15H16V14H13v1H10v4h1v1h1v1h1v1h3V21h1V20h1V19h1V16h1V15H18Zm-4,1h1v1H14Zm2,4H13V19H12V18h1v1h3Z"/><path class="oa7-2" d="M19,17v2h1V16H19Z"/><rect class="oa7-2" x="18" y="19" width="1" height="1"/><rect class="oa7-2" x="17" y="20" width="1" height="1"/><rect class="oa7-2" x="11" y="20" width="1" height="1"/><rect class="oa7-2" x="10" y="19" width="1" height="1"/><path class="oa7-2" d="M10,18V16H9v3h1Z"/><rect class="oa7-2" x="8" y="15" width="1" height="1"/><rect class="oa7-2" x="14" y="16" width="1" height="1"/><path class="oa7-7" d="M11,14H10v1h1Z"/><path class="oa7-7" d="M17,15V14H16v1Z"/><path class="oa7-2" d="M12,15h1V14H11v1Z"/><path class="oa7-2" d="M18,15h1V14H17v1Z"/><rect class="oa7-2" x="13" y="19" width="3" height="1"/><rect class="oa7-2" x="12" y="18" width="1" height="1"/><path class="oa7-8" d="M19,20H18v1H17v4h1v2h1V24h1V19H19Z"/><path class="oa7-8" d="M19,15h1V14H19Z"/><path class="oa7-8" d="M10,15V14H9v2h1Z"/><path class="oa7-8" d="M11,26h1V21H11V20H10V19H9v3h1v3h1Z"/><path class="oa7-9" d="M11,14H21V13h4V12H23V11H21V10H19V9H18V8H17V7H16V6H15V5H14V6H13V7H12V8H11V9H10v1H8v1H6v1H4v1H8v1h3Z"/></svg>