<svg xmlns="http://www.w3.org/2000/svg" viewBox="0 0 29 33"><defs><style>polygon,rect,path{shape-rendering:crispedges;}.la200-1{fill:#000000;}.la200-2{fill:#2e1572;}.la200-3{fill:#5a2de2;}.la200-4{fill:#e8b795;}.la200-5{fill:#ffffff;}.la200-6{fill:#fad000;}.la200-7{fill:#d4a122;}</style></defs><path class="la200-1" d="M23,27H22v6h1V27Z"/><rect class="la200-1" x="21" y="26" width="1" height="1"/><path class="la200-2" d="M21,31v1h1V30H21Z"/><path class="la200-2" d="M21,28h1V27H21Z"/><path class="la200-1" d="M21,31V27H20v6h1V31Z"/><path class="la200-1" d="M20,26h1V25H19v1Z"/><path class="la200-2" d="M16,31V30H15V28H13v1h1v2h1v1h1v1h1V31Z"/><path class="la200-2" d="M10,31V30H9v2h1v1h1V31Z"/><path class="la200-2" d="M13,31V30H12V28H11V27H10V26H9v2h1v1h1v2h1v1h1v1h1V31Z"/><path class="la200-2" d="M19,31V30H18V28H17V27H16v2h1v2h1v1h1v1h1V31Z"/><path class="la200-2" d="M18,26v2h1v1h1V27H19V25H18Z"/><rect class="la200-2" x="12" y="27" width="1" height="1"/><path class="la200-1" d="M10,26V25H8v1h2Z"/><path class="la200-1" d="M9,31V27H8v6H9V31Z"/><rect class="la200-1" x="7" y="26" width="1" height="1"/><path class="la200-2" d="M8,29V27H7v2Z"/><path class="la200-2" d="M7,31v2H8V31Z"/><path class="la200-1" d="M7,30V27H6v6H7V30Z"/><path class="la200-3" d="M21,29v1h1V28H21Z"/><path class="la200-3" d="M21,32v1h1V32Z"/><path class="la200-3" d="M19,26v1h2V26H19Z"/><path class="la200-3" d="M19,28H18v2h1v1h1V29H19Z"/><path class="la200-3" d="M17,26v2h1V26Z"/><path class="la200-3" d="M18,32V31H17v2h2V32Z"/><path class="la200-3" d="M15,29v1h1v1h1V29H16V28H15Z"/><path class="la200-3" d="M15,32V31H14v2h2V32Z"/><path class="la200-3" d="M12,29v1h1v1h1V29H13V28H12Z"/><path class="la200-3" d="M10,27h1v1h1V26H11V25H10v2Z"/><path class="la200-3" d="M12,32V31H11v2h2V32Z"/><path class="la200-3" d="M10,30v1h1V29H10V28H9v2Z"/><path class="la200-3" d="M9,32v1h1V32Z"/><path class="la200-3" d="M9,27V26H8v1Z"/><path class="la200-3" d="M7,30v1H8V29H7Z"/><path class="la200-4" d="M19,15H16v1h3Z"/><rect class="la200-4" x="13" y="20" width="3" height="1"/><path class="la200-4" d="M13,15H10v1h3Z"/><path class="la200-5" d="M13,14H12v1h1Z"/><path class="la200-5" d="M11,14H10v1h1Z"/><path class="la200-5" d="M19,14H18v1h1Z"/><rect class="la200-5" x="16" y="14" width="1" height="1"/><path class="la200-1" d="M18,25h1V23H18v2Z"/><rect class="la200-1" x="17" y="25" width="1" height="1"/><path class="la200-6" d="M18,24H17v1h1Z"/><path class="la200-5" d="M17,24h1V23H17Z"/><path class="la200-1" d="M16,26v1h1V26Z"/><rect class="la200-5" x="16" y="25" width="1" height="1"/><rect class="la200-6" x="15" y="26" width="1" height="1"/><path class="la200-1" d="M14,27H13v1h3V27H14Z"/><path class="la200-5" d="M15,27V26H14v1Z"/><rect class="la200-6" x="13" y="26" width="1" height="1"/><path class="la200-1" d="M13,26H12v1h1Z"/><rect class="la200-5" x="12" y="25" width="1" height="1"/><rect class="la200-1" x="11" y="25" width="1" height="1"/><rect class="la200-6" x="11" y="24" width="1" height="1"/><rect class="la200-5" x="11" y="23" width="1" height="1"/><path class="la200-1" d="M11,24V23H10v2h1Z"/><path class="la200-7" d="M0,9V33H6V27H7V26H8V25h2V23h1V21H10V20H9V17H8V15H9V11h1V10h1V9h7v1h1v1h1v4h1v2H20v3H19v1H18v2h1v2h2v1h1v1h1v6h6V0H0Z"/><path class="la200-1" d="M12,24v1h1v1h3V25h1V23h1V21h1V20h1V17h1V15H20V11H19V10H18V9H11v1H10v1H9v4H8v2H9v3h1v1h1v2h1Zm4-9V14h1v1h1V14h1v2H16Zm0,6H13V20h3Zm-5-5H10V14h1v1h1V14h1v2Z"/></svg>