<svg xmlns="http://www.w3.org/2000/svg" viewBox="0 0 29 33"><defs><style>polygon,rect,path{shape-rendering:crispedges;}.ja229-1{fill:#31a09d;}.ja229-2{fill:#000000;}.ja229-3{fill:#db5800;}.ja229-4{fill:#ffa9d0;}.ja229-5{fill:#6d3e35;}.ja229-6{fill:#af8423;}.ja229-7{fill:#8e4717;}.ja229-8{fill:#ffffff;}.ja229-9{fill:#b23b00;}</style></defs><path class="ja229-1" d="M0,33H6V27H7V26H8V25h2V24h2V21H11V20H9V18H8V12H9V11h1V10h1V9h7v1h1v1h1v2h1v5H20v2H18v1H17v3h2v1h2v1h1v1h1v6h6V0H0Z"/><path class="ja229-2" d="M23,27H22v6h1V27Z"/><rect class="ja229-2" x="21" y="26" width="1" height="1"/><path class="ja229-3" d="M21,28v2h1V27H21Z"/><path class="ja229-3" d="M21,31v2h1V31Z"/><path class="ja229-2" d="M21,30V27H20v6h1V30Z"/><path class="ja229-2" d="M20,26h1V25H19v1Z"/><path class="ja229-3" d="M20,32V26H19V25H17V24H16V23H13v1H12v1H10v1H9v6h1v1h4V32h1v1h4V32Zm-9-3H10V28h1Zm2,2H12V30h1Zm0-4H12V26h1Zm2,2H14V28h1Zm0-4H14V24h1Zm2,6H16V30h1Zm0-4H16V26h1Zm1,2V28h1v1Z"/><path class="ja229-2" d="M18,25h1V24H17v1Z"/><path class="ja229-2" d="M13,23h3v1h1V21H16v1H13V21H12v3h1Z"/><path class="ja229-2" d="M12,24H10v1h2Z"/><path class="ja229-2" d="M10,26V25H8v1h2Z"/><path class="ja229-2" d="M9,31V27H8v6H9V31Z"/><rect class="ja229-2" x="7" y="26" width="1" height="1"/><path class="ja229-3" d="M7,30H8V27H7v3Z"/><path class="ja229-3" d="M7,31v2H8V31Z"/><path class="ja229-2" d="M7,30V27H6v6H7V30Z"/><rect class="ja229-4" x="10" y="28" width="1" height="1"/><rect class="ja229-4" x="12" y="30" width="1" height="1"/><rect class="ja229-4" x="14" y="28" width="1" height="1"/><rect class="ja229-4" x="14" y="32" width="1" height="1"/><rect class="ja229-4" x="12" y="26" width="1" height="1"/><rect class="ja229-4" x="16" y="30" width="1" height="1"/><rect class="ja229-4" x="18" y="28" width="1" height="1"/><rect class="ja229-4" x="16" y="26" width="1" height="1"/><rect class="ja229-4" x="14" y="24" width="1" height="1"/><path class="ja229-4" d="M9,27V26H8v1Z"/><path class="ja229-4" d="M19,32v1h1V32Z"/><path class="ja229-4" d="M9,32v1h1V32Z"/><path class="ja229-4" d="M7,31H8V30H7Z"/><path class="ja229-4" d="M21,31h1V30H21Z"/><path class="ja229-4" d="M20,27h1V26H20Z"/><path class="ja229-5" d="M14,21V20H13V19H12V18h5v1H16v1H15v1h2V20h1V19h1V18H18V17H16V16H15v1H14V16H13v1H11v1H10v1h1v1h1v1h2Z"/><rect class="ja229-5" x="14" y="15" width="1" height="1"/><rect class="ja229-5" x="9" y="15" width="1" height="1"/><path class="ja229-5" d="M14,14h1V11H14v1H13v2Z"/><rect class="ja229-5" x="16" y="12" width="1" height="1"/><rect class="ja229-5" x="11" y="11" width="1" height="1"/><rect class="ja229-5" x="19" y="15" width="1" height="1"/><path class="ja229-2" d="M19,16v2h1V16Z"/><path class="ja229-2" d="M18,19v1h1V19Z"/><rect class="ja229-2" x="17" y="20" width="1" height="1"/><rect class="ja229-2" x="11" y="20" width="1" height="1"/><path class="ja229-2" d="M10,19v1h1V19Z"/><rect class="ja229-2" x="9" y="14" width="1" height="1"/><path class="ja229-2" d="M10,17V16H9v2h1Z"/><rect class="ja229-2" x="14" y="16" width="1" height="1"/><rect class="ja229-6" x="11" y="12" width="1" height="1"/><rect class="ja229-6" x="17" y="12" width="1" height="1"/><path class="ja229-7" d="M15,20H14v1H13v1h3V21H15Z"/><path class="ja229-2" d="M12,18v1h1V18Z"/><path class="ja229-2" d="M17,19V18H16v1Z"/><path class="ja229-2" d="M16,20V19H15V18H14v1H13v1h3Z"/><path class="ja229-8" d="M14,18H13v1h1Z"/><path class="ja229-8" d="M16,19V18H15v1Z"/><path class="ja229-9" d="M9,15V14h2V11h1v2h1V12h1V11h1v3h1V12h2v2h1v1h1v3h1V13H20V11H19V10H18V9H11v1H10v1H9v1H8v6H9V15Z"/><path class="ja229-9" d="M18,16v2h1V16Z"/><path class="ja229-9" d="M10,16v2h1V16Z"/><path class="ja229-9" d="M10,18H9v2h1V18Z"/><path class="ja229-9" d="M19,19v1h1V18H19Z"/><path class="ja229-8" d="M13,13H11v1h2Z"/><path class="ja229-8" d="M11,17h2V16H11Z"/><path class="ja229-8" d="M11,15V14H10v2h1Z"/><path class="ja229-2" d="M11,14v2h2V14Z"/><path class="ja229-8" d="M19,16V14H18v2Z"/><path class="ja229-8" d="M18,13H16v1h2Z"/><path class="ja229-8" d="M17,16H16v1h2V16Z"/><path class="ja229-8" d="M15,14H13v2h1V15h1v1h1V14Z"/><path class="ja229-2" d="M18,16V14H16v2h2Z"/></svg>