<svg xmlns="http://www.w3.org/2000/svg" viewBox="0 0 29 33"><defs><style>polygon,rect,path{shape-rendering:crispedges;}.fa46-1{fill:#e55b35;}.fa46-2{fill:#000000;}.fa46-3{fill:#5a2de2;}.fa46-4{fill:#efcaaf;}.fa46-5{fill:#5a2de2;}.fa46-6{fill:#ffffff;}.fa46-7{fill:#8e703c;}.fa46-8{fill:#cbed03;}</style></defs><path class="fa46-1" d="M0,33H6V27H7V26H8V25h2V24h2V21H11V20H10V19H9V18H8V12H9V10h1V9h1V8h7V9h1v1h1v5h1v1H20v3H19v1H18v1H17v3h2v1h2v1h1v1h1v6h6V0H0Z"/><path class="fa46-2" d="M23,27H22v3H21V27H20v6h1V31h1v2h1V27Z"/><rect class="fa46-2" x="21" y="26" width="1" height="1"/><path class="fa46-3" d="M21,28v2h1V27H21Z"/><path class="fa46-4" d="M21,31v2h1V31Z"/><path class="fa46-2" d="M20,26h1V25H19v1Z"/><rect class="fa46-3" x="13" y="29" width="1" height="2"/><path class="fa46-3" d="M20,27h1V26H19V25H17v1H16v1H13V26H12V25H10v1H8v1H9v6H20V27Zm-9,2v3H10V28h1Zm4,3H12V28h3Zm4-3H17v2h1V30h1v2H16V28h3Z"/><path class="fa46-2" d="M18,25h1V24H17v1Z"/><rect class="fa46-2" x="16" y="25" width="1" height="1"/><path class="fa46-2" d="M13,26v1h3V26H13Z"/><path class="fa46-2" d="M13,23h3v1h1V21H16v1H13V21H12v3h1Z"/><path class="fa46-4" d="M13,25v1h3V25h1V24H16V23H13v1H12v1Z"/><rect class="fa46-2" x="12" y="25" width="1" height="1"/><path class="fa46-2" d="M12,24H10v1h2Z"/><path class="fa46-2" d="M10,25H8v1h2Z"/><path class="fa46-2" d="M9,27H8v3H7V27H6v6H7V31H8v2H9V27Z"/><rect class="fa46-2" x="7" y="26" width="1" height="1"/><path class="fa46-3" d="M7,30H8V27H7v3Z"/><path class="fa46-4" d="M7,31v2H8V31Z"/><path class="fa46-5" d="M12,32h3V28H12Zm1-3h1v2H13Z"/><path class="fa46-5" d="M10,29v3h1V28H10Z"/><path class="fa46-5" d="M16,28v4h3V30H18v1H17V29h2V28H16Z"/><rect class="fa46-2" x="20" y="15" width="1" height="1"/><path class="fa46-4" d="M13,22h3V21h1V20h1V19h1V16h1V15H16V13h1V12h2V11H18V10H16v1H14v1H13v1H11v1h2v1H9v1h1v3h1v1h1v1h1Zm1-6h1v1H14Zm-2,3V18h5v1H16v1H13V19Z"/><polygon class="fa46-4" points="18 14 19 14 19 13 17 13 17 14 18 14"/><path class="fa46-2" d="M19,17v2h1V16H19Z"/><rect class="fa46-2" x="18" y="19" width="1" height="1"/><rect class="fa46-2" x="17" y="20" width="1" height="1"/><rect class="fa46-2" x="11" y="20" width="1" height="1"/><rect class="fa46-2" x="10" y="19" width="1" height="1"/><path class="fa46-2" d="M10,16H9v3h1V16Z"/><rect class="fa46-2" x="14" y="16" width="1" height="1"/><path class="fa46-6" d="M10,15h1V14H10Z"/><path class="fa46-6" d="M16,14v1h1V14Z"/><path class="fa46-2" d="M12,15h1V14H11v1Z"/><path class="fa46-2" d="M18,14H17v1h2V14Z"/><path class="fa46-7" d="M17,13H16v1h1Z"/><rect class="fa46-7" x="17" y="12" width="2" height="1"/><path class="fa46-2" d="M13,18H12v1h1Z"/><path class="fa46-2" d="M17,19V18H16v1Z"/><path class="fa46-2" d="M13,19v1h3V19H15V18H14v1Z"/><path class="fa46-6" d="M14,19V18H13v1Z"/><path class="fa46-6" d="M16,19V18H15v1Z"/><path class="fa46-8" d="M9,15h1V14h1V13h2V12h1V11h2V10h2v1h1v4h1V10H19V9H18V8H11V9H10v1H9v2H8v6H9V15Z"/></svg>