<svg xmlns="http://www.w3.org/2000/svg" viewBox="0 0 29 33"><defs><style>polygon,rect,path{shape-rendering:crispedges;}.na50-1{fill:#397d98;}.na50-2{fill:#000000;}.na50-3{fill:#5a2de2;}.na50-4{fill:#5a2de2;}.na50-5{fill:#e8b795;}.na50-6{fill:#b8a4ff;}.na50-7{fill:#66334f;}.na50-8{fill:#66334f;}.na50-9{fill:#ffffff;}.na50-10{fill:#009b97;}.na50-11{fill:#cbed03;}.na50-12{fill:#00e070;}</style></defs><path class="na50-1" d="M0,33H6V27H7V26H8V25h2V24h2V21H9V20H8V19H9V16H8V12H9V11H8V10H9V9H8V8h2V7h1V8h1V6h1V7h1V8h1V7h1V6h1V7h1V8h1V7h1V8H19V9h2v2H20v1h1v1H20v1h1v2H20v3h1v1H20v1H17v3h2v1h2v1h1v1h1v6h6V0H0Z"/><path class="na50-2" d="M23,27H22v6h1V27Z"/><rect class="na50-2" x="21" y="26" width="1" height="1"/><path class="na50-3" d="M21,28v2h1V27H21Z"/><path class="na50-3" d="M21,31v2h1V31Z"/><path class="na50-2" d="M21,30V27H20v6h1V30Z"/><path class="na50-3" d="M20,32V26H19V25H18v3h1v1H18v4h1V32Z"/><path class="na50-2" d="M20,26h1V25H19v1Z"/><path class="na50-2" d="M18,29V25h1V24H17v1H16v1h1v7h1V29Z"/><path class="na50-4" d="M17,26H16v1H13V26H12v7h5V26Z"/><path class="na50-2" d="M13,26v1h3V26H13Z"/><path class="na50-2" d="M13,23h3v1h1V21H16v1H13V21H12v3h1Z"/><path class="na50-5" d="M13,25v1h3V25h1V24H16V23H13v1H12v1Z"/><path class="na50-2" d="M12,26h1V25H12V24H10v1h1v8h1V26Z"/><path class="na50-3" d="M11,29H10V28h1V25H10v1H9v6h1v1h1V29Z"/><path class="na50-2" d="M10,26V25H8v1h2Z"/><path class="na50-2" d="M9,31V27H8v6H9V31Z"/><rect class="na50-2" x="7" y="26" width="1" height="1"/><path class="na50-3" d="M7,30H8V27H7v3Z"/><path class="na50-3" d="M7,31v2H8V31Z"/><path class="na50-2" d="M7,30V27H6v6H7V30Z"/><path class="na50-6" d="M10,29h1V28H10Z"/><path class="na50-6" d="M19,29V28H18v1Z"/><path class="na50-6" d="M9,27V26H8v1Z"/><path class="na50-6" d="M19,32v1h1V32Z"/><path class="na50-6" d="M9,32v1h1V32Z"/><path class="na50-6" d="M7,31H8V30H7Z"/><path class="na50-6" d="M21,31h1V30H21Z"/><path class="na50-6" d="M20,27h1V26H20Z"/><path class="na50-2" d="M20,16h1V15H20Z"/><rect class="na50-5" x="11" y="10" width="1" height="1"/><rect class="na50-5" x="10" y="11" width="1" height="1"/><path class="na50-5" d="M13,14h3V13h1V12h1V10H17v1H16v1H15V10H14v1H13v3Z"/><path class="na50-5" d="M13,22h3V21h1V19H16v1H13V19H12v2h1Z"/><rect class="na50-5" x="14" y="15" width="1" height="1"/><path class="na50-5" d="M18,18h1V17H16V16H15v1H14V16H13v1H10v1h1v1h1V18h5v1h1Z"/><path class="na50-2" d="M17,20v1h1V20Z"/><path class="na50-2" d="M11,20v1h1V20Z"/><path class="na50-2" d="M8,15v1H9V15Z"/><rect class="na50-2" x="14" y="16" width="1" height="1"/><path class="na50-7" d="M13,12H11v1h2Z"/><rect class="na50-7" x="17" y="12" width="1" height="1"/><path class="na50-8" d="M19,17v1H18v1H17v1h1v1h2V20h1V19H20V16H19Z"/><path class="na50-8" d="M12,20V19H11V18H10V16H9v3H8v1H9v1h2V20Z"/><path class="na50-2" d="M12,18v1h1V18Z"/><path class="na50-2" d="M16,18v1h1V18Z"/><path class="na50-2" d="M15,18H14v1H13v1h3V19H15Z"/><path class="na50-9" d="M14,18H13v1h1Z"/><path class="na50-9" d="M15,18v1h1V18Z"/><path class="na50-10" d="M10,13h1V12H10V11h1V10h1v1H11v1h2V11h1V10h1v2h1V11h1V10h1v3h1v1h1V13h1V12H20V11h1V9H19V8H18V7H17V6H16V7H15V8H14V7H13V6H12V8H11V7H10V8H8V9H9v1H8v1H9v1H8v2h2Z"/><rect class="na50-10" x="19" y="7" width="1" height="1"/><path class="na50-11" d="M19,15v1h1V15h1V14H19Z"/><path class="na50-11" d="M16,13v1h3V13H16Z"/><path class="na50-12" d="M16,14v2h3V14H16Z"/><path class="na50-11" d="M16,16v1h3V16H16Z"/><path class="na50-11" d="M13,14v2h1V15h1v1h1V14Z"/><path class="na50-11" d="M13,14V13H10v1h3Z"/><path class="na50-12" d="M13,16V14H10v2h3Z"/><path class="na50-11" d="M13,17V16H10v1h3Z"/><path class="na50-11" d="M10,15V14H8v1H9v1h1Z"/></svg>