<svg xmlns="http://www.w3.org/2000/svg" viewBox="0 0 29 33"><defs><style>polygon,rect,path{shape-rendering:crispedges;}.na187-1{fill:#e55b35;}.na187-2{fill:#000000;}.na187-3{fill:#e1ff85;}.na187-4{fill:#68aaad;}.na187-5{fill:#e8b795;}.na187-6{fill:#009b97;}.na187-7{fill:#ffffff;}.na187-8{fill:#685432;}.na187-9{fill:#fad000;}.na187-10{fill:#0068ff;}.na187-11{fill:#ff1f4a;}.na187-12{fill:#10bcff;}</style></defs><path class="na187-1" d="M8,27H8v6H8V27Z"/><path class="na187-1" d="M21,31V27h0v6h0V31Z"/><path class="na187-1" d="M0,33H6V26H5V24H8v1h2V23h1V22h1V21H11V20H10V19H9V16H8V15H9V10h1V9h1V8h7V9h1v2h1v4h1v1H20v3H19v1H18v1H17v1h1v1h1v2h2V24h3v2H23v7h6V0H0Z"/><path class="na187-2" d="M7,30V27H7V26H6v7H7V30Z"/><path class="na187-2" d="M9,31V26h1V25H8v8H9V31Z"/><path class="na187-3" d="M11,29H10V28h1V25H10v1H9v6h1v1h1V29Z"/><path class="na187-2" d="M12,27h1V26H12V25H11v8h1V27Z"/><path class="na187-4" d="M17,27H16v2H15v1H14V29H13V27H12v6h5V27Z"/><path class="na187-5" d="M14,24h1v1h1V23H13v2h1Z"/><path class="na187-2" d="M18,29V25H17v1H16v1h1v6h1V29Z"/><path class="na187-3" d="M20,32V26H19V25H18v3h1v1H18v4h1V32Z"/><path class="na187-2" d="M21,27V25H19v1h1v7h1V27Z"/><path class="na187-2" d="M23,26H22v7h1V26Z"/><path class="na187-6" d="M10,29h1V28H10Z"/><path class="na187-6" d="M19,29V28H18v1Z"/><path class="na187-6" d="M19,32v1h1V32Z"/><path class="na187-6" d="M9,32v1h1V32Z"/><rect class="na187-2" x="20" y="15" width="1" height="1"/><polygon class="na187-5" points="18 14 19 14 19 13 17 13 17 14 18 14"/><path class="na187-5" d="M13,22h3V21h1V20h1V19h1V16h1V15H16V13h1V12h2V11H18V10H16v1H15v1H14v1H11v1h2v1H9v1h1v3h1v1h1v1h1Zm1-6h1v1H14Zm-2,3V18h5v1H16v1H13V19Z"/><path class="na187-2" d="M19,17v2h1V16H19Z"/><rect class="na187-2" x="18" y="19" width="1" height="1"/><rect class="na187-2" x="17" y="20" width="1" height="1"/><rect class="na187-2" x="11" y="20" width="1" height="1"/><rect class="na187-2" x="10" y="19" width="1" height="1"/><path class="na187-2" d="M10,16H9v3h1V16Z"/><rect class="na187-2" x="8" y="15" width="1" height="1"/><rect class="na187-2" x="14" y="16" width="1" height="1"/><path class="na187-7" d="M13,15V14H12v1Z"/><path class="na187-7" d="M10,15h1V14H10Z"/><path class="na187-7" d="M18,14v1h1V14Z"/><path class="na187-7" d="M16,14v1h1V14Z"/><path class="na187-2" d="M12,15V14H11v1Z"/><path class="na187-2" d="M17,14v1h1V14Z"/><path class="na187-8" d="M17,13H16v1h1Z"/><rect class="na187-8" x="17" y="12" width="2" height="1"/><rect class="na187-2" x="14" y="29" width="1" height="1"/><path class="na187-2" d="M15,28v1h1V27H15Z"/><path class="na187-2" d="M13,27v2h1V27Z"/><rect class="na187-2" x="14" y="24" width="1" height="1"/><rect class="na187-2" x="13" y="25" width="1" height="1"/><rect class="na187-2" x="15" y="25" width="1" height="1"/><path class="na187-2" d="M12,24v1h1V23h3v2h1V23h1V22H17V21H16v1H13V21H12v1H11v1h1Z"/><rect class="na187-9" x="16" y="25" width="1" height="1"/><path class="na187-9" d="M15,25H14v1H13v1h1v2h1V27h1V26H15Z"/><rect class="na187-9" x="12" y="25" width="1" height="1"/><path class="na187-9" d="M11,25h1V23H11v2Z"/><path class="na187-9" d="M17,24v1h1V23H17Z"/><path class="na187-2" d="M19,25V23H18v2Z"/><path class="na187-2" d="M11,24V23H10v2h1Z"/><polygon class="na187-2" points="13 20 16 20 16 19 17 19 17 18 12 18 12 19 13 19 13 20"/><path class="na187-10" d="M10,14h1V13h3V12h1V11h1V10h2v1h1V9H18V8H11V9H10v1H9v5h1Z"/><path class="na187-10" d="M19,13v2h1V11H19v2Z"/><path class="na187-2" d="M23,26h1V25H23Z"/><path class="na187-2" d="M22,24H21v1h1Z"/><path class="na187-11" d="M23,25h1V24H22v1Z"/><path class="na187-2" d="M8,25V24H7v1Z"/><path class="na187-2" d="M5,25v1H6V25Z"/><path class="na187-5" d="M21,27h1V26h1V25H21v2Z"/><path class="na187-5" d="M7,27H8V25H6v1H7Z"/><path class="na187-12" d="M7,25V24H5v1H7Z"/><path class="na187-3" d="M21,32v1h1V32Z"/><path class="na187-3" d="M21,29v2h1V28H21Z"/><path class="na187-6" d="M21,28h1V27H21Z"/><path class="na187-6" d="M21,32h1V31H21Z"/><path class="na187-3" d="M7,31v2H8V31Z"/><path class="na187-3" d="M7,27v3H8V27Z"/><path class="na187-6" d="M7,31H8V30H7Z"/></svg>