<svg xmlns="http://www.w3.org/2000/svg" viewBox="0 0 29 33"><defs><style>polygon,rect,path{shape-rendering:crispedges;}.ma56-1{fill:#e55b35;}.ma56-2{fill:#000000;}.ma56-3{fill:#508e91;}.ma56-4{fill:#00686d;}.ma56-5{fill:#e8b795;}.ma56-6{fill:#c6e5e4;}.ma56-7{fill:#ffffff;}.ma56-8{fill:#e2e2e2;}.ma56-9{fill:#e2e2e2;}.ma56-10{fill:#ff1f4a;}.ma56-11{fill:#560000;}.ma56-12{fill:#e5ac2e;}.ma56-13{fill:#fad000;}.ma56-14{fill:#00e070;}.ma56-15{fill:#ff1d99;}.ma56-16{fill:#10bcff;}.ma56-17{fill:#6e12ff;}.ma56-18{fill:#900;}.ma56-19{fill:#eaeaea;}</style></defs><path class="ma56-1" d="M0,33H6V27H7V26H8V25h2V24h2V21H11V20H10V19H9V16H8V15H9V8h1V9h1V7h1V8h2V7H13V6h1V5h1V6h1V7H15V8h2V7h1V9h1V8h1v7h1v1H20v3H19v1H18v1H17v3h2v1h2v1h1v1h1v6h6V0H0Z"/><path class="ma56-2" d="M23,27H22v6h1V27Z"/><rect class="ma56-2" x="21" y="26" width="1" height="1"/><path class="ma56-3" d="M21,31v1h1V30H21Z"/><path class="ma56-3" d="M21,28h1V27H21Z"/><path class="ma56-2" d="M21,31V27H20v6h1V31Z"/><path class="ma56-3" d="M19,31V30H18v2h1v1h1V31Z"/><path class="ma56-3" d="M18,26v2h1v1h1V27H19V25H18Z"/><path class="ma56-2" d="M20,26h1V25H19v1Z"/><path class="ma56-2" d="M18,31V25h1V24H17v1H16v1h1v7h1V31Z"/><path class="ma56-4" d="M17,26H16v1H13V26H12v7h5V26Z"/><path class="ma56-2" d="M13,26v1h3V26H13Z"/><path class="ma56-2" d="M13,23V22H12v2h1Z"/><path class="ma56-5" d="M13,25v1h3V25h1V24H16V23H13v1H12v1Z"/><path class="ma56-2" d="M12,26h1V25H12V24H10v1h1v8h1V26Z"/><path class="ma56-3" d="M10,26H9v2h1v1h1V27H10Z"/><path class="ma56-3" d="M10,31V30H9v2h1v1h1V31Z"/><path class="ma56-2" d="M10,26V25H8v1h2Z"/><path class="ma56-2" d="M9,31V27H8v6H9V31Z"/><rect class="ma56-2" x="7" y="26" width="1" height="1"/><path class="ma56-3" d="M8,29V27H7v2Z"/><path class="ma56-3" d="M7,31v2H8V31Z"/><path class="ma56-2" d="M7,30V27H6v6H7V30Z"/><path class="ma56-6" d="M21,29v1h1V28H21Z"/><path class="ma56-6" d="M21,32v1h1V32Z"/><path class="ma56-6" d="M19,26v1h2V26H19Z"/><path class="ma56-6" d="M19,28H18v2h1v1h1V29H19Z"/><path class="ma56-6" d="M18,32v1h1V32Z"/><path class="ma56-6" d="M10,27h1V25H10v2Z"/><path class="ma56-6" d="M10,28H9v2h1v1h1V29H10Z"/><path class="ma56-6" d="M9,32v1h1V32Z"/><path class="ma56-6" d="M9,27V26H8v1Z"/><path class="ma56-6" d="M7,30v1H8V29H7Z"/><rect class="ma56-2" x="20" y="15" width="1" height="1"/><path class="ma56-2" d="M19,13v2h1V12H19Z"/><rect class="ma56-5" x="15" y="20" width="1" height="1"/><rect class="ma56-5" x="13" y="20" width="1" height="1"/><rect class="ma56-5" x="18" y="12" width="1" height="1"/><rect class="ma56-5" x="9" y="15" width="1" height="1"/><path class="ma56-5" d="M18,15H16V14h2V13H16V12H15v3H14v1h1v1H14V16H13v1H11V16H10v2h1v1h1V18h2v1h1V18h2v1h1V18h1V16h1V15H18Z"/><path class="ma56-2" d="M19,17h1V16H19Z"/><path class="ma56-2" d="M16,23v1h1V22H16Z"/><path class="ma56-2" d="M10,16H9v1h1Z"/><rect class="ma56-2" x="8" y="15" width="1" height="1"/><rect class="ma56-2" x="14" y="16" width="1" height="1"/><path class="ma56-7" d="M18,15h1V14H18Z"/><path class="ma56-7" d="M16,14v1h1V14Z"/><path class="ma56-2" d="M17,14v1h1V14Z"/><path class="ma56-8" d="M18,14h1V13H18Z"/><polygon class="ma56-8" points="17 12 16 12 16 13 18 13 18 12 17 12"/><path class="ma56-9" d="M15,18v1h1V18Z"/><path class="ma56-9" d="M13,23h3V22h1V21h1V20h1V19h1V17H19v1H18v1H16v2H15V20H14v1H13V19h1V18H12v1H11V18H10V17H9v2h1v1h1v1h1v1h1Z"/><path class="ma56-2" d="M14,19H13v1h3V19H14Z"/><path class="ma56-2" d="M16,18v1h1V18Z"/><path class="ma56-10" d="M11,15h2V13H11v2Z"/><path class="ma56-11" d="M13,13v2h1V13Z"/><path class="ma56-11" d="M12,15H11v1h2V15Z"/><path class="ma56-11" d="M11,14V13H10v2h1Z"/><path class="ma56-11" d="M13,12H11v1h2Z"/><rect class="ma56-2" x="10" y="15" width="1" height="1"/><rect class="ma56-2" x="11" y="16" width="2" height="1"/><rect class="ma56-2" x="13" y="15" width="1" height="1"/><path class="ma56-2" d="M13,13h1v2h1V12H13Z"/><path class="ma56-2" d="M10,14V13h1V12H9v3h1Z"/><rect class="ma56-1" x="17" y="9" width="1" height="1"/><rect class="ma56-12" x="12" y="10" width="1" height="1"/><rect class="ma56-12" x="16" y="10" width="1" height="1"/><rect class="ma56-1" x="11" y="9" width="1" height="1"/><rect class="ma56-10" x="14" y="10" width="1" height="1"/><rect class="ma56-10" x="13" y="9" width="1" height="1"/><path class="ma56-7" d="M12,7H11V8h1Z"/><path class="ma56-7" d="M13,9V8H12V9Z"/><path class="ma56-7" d="M17,9V8H16V9Z"/><rect class="ma56-7" x="18" y="9" width="1" height="1"/><rect class="ma56-7" x="10" y="9" width="1" height="1"/><path class="ma56-7" d="M10,8H9V9h1Z"/><path class="ma56-7" d="M18,7H17V8h1Z"/><rect class="ma56-13" x="16" y="9" width="1" height="1"/><rect class="ma56-13" x="12" y="9" width="1" height="1"/><rect class="ma56-14" x="11" y="10" width="1" height="1"/><path class="ma56-13" d="M12,8H11V9h1Z"/><path class="ma56-13" d="M18,9V8H17V9Z"/><path class="ma56-15" d="M10,10H9v1h1Z"/><rect class="ma56-16" x="17" y="10" width="1" height="1"/><path class="ma56-13" d="M15,12h4V10H18v1H16V10H15v1H14V10H13v1H11V10H10v2h5Z"/><path class="ma56-17" d="M19,11h1V10H19Z"/><path class="ma56-7" d="M20,8H19V9h1Z"/><rect class="ma56-10" x="15" y="9" width="1" height="1"/><rect class="ma56-10" x="14" y="8" width="1" height="1"/><rect class="ma56-18" x="14" y="9" width="1" height="1"/><path class="ma56-13" d="M14,9V8H13V9Z"/><path class="ma56-13" d="M16,9V8H15V9Z"/><rect class="ma56-19" x="14" y="6" width="1" height="1"/><rect class="ma56-7" x="14" y="7" width="1" height="1"/><rect class="ma56-7" x="13" y="6" width="1" height="1"/><rect class="ma56-7" x="15" y="6" width="1" height="1"/><rect class="ma56-7" x="14" y="5" width="1" height="1"/><path class="ma56-12" d="M10,11H9v1h1Z"/><path class="ma56-12" d="M19,12h1V11H19Z"/><path class="ma56-12" d="M20,10V9H19v1Z"/><path class="ma56-12" d="M10,9H9v1h1Z"/></svg>