<svg xmlns="http://www.w3.org/2000/svg" viewBox="0 0 29 33"><defs><style>polygon,rect,path{shape-rendering:crispedges;}.ya34-1{fill:#d4a122;}.ya34-2{fill:#000000;}.ya34-3{fill:#cc3232;}.ya34-4{fill:#a56e49;}.ya34-5{fill:#45ba00;}.ya34-6{fill:#ffffff;}.ya34-7{fill:#893a1f;}.ya34-8{fill:#893a1f;}.ya34-9{fill:#5a2de2;}</style></defs><path class="ya34-1" d="M0,33H6V27H7V26H8V25h2V24h1V23h1V21H11V20H10V19H9V16H8V15H9V10h1V9h1V8h7V9h1v1h1v5h1v1H20v3H19v1H18v1H17v2h1v1h1v1h2v1h1v1h1v6h6V0H0Z"/><path class="ya34-2" d="M23,27H22v6h1V27Z"/><path class="ya34-3" d="M21,28v2h1V27H21Z"/><path class="ya34-3" d="M21,31v2h1V31Z"/><rect class="ya34-2" x="21" y="26" width="1" height="1"/><path class="ya34-2" d="M21,30V27H20v6h1V30Z"/><path class="ya34-3" d="M20,32V26H19V25H18v1H17v1H16V25H15v2H14V25H13v2H12V26H11V25H10v1H9v6h1v1h4V32h1v1h4V32Zm-9-3H10V28h1Zm2,2H12V30h1Zm2,0H14V30h1Zm0-2H14V28h1Zm2,2H16V30h1Zm1-2V28h1v1Z"/><path class="ya34-2" d="M20,26h1V25H19v1Z"/><rect class="ya34-3" x="16" y="24" width="1" height="1"/><rect class="ya34-2" x="15" y="24" width="1" height="1"/><rect class="ya34-2" x="14" y="32" width="1" height="1"/><rect class="ya34-2" x="14" y="30" width="1" height="1"/><rect class="ya34-2" x="14" y="28" width="1" height="1"/><path class="ya34-2" d="M14,26v1h1V25H14Z"/><rect class="ya34-2" x="13" y="24" width="1" height="1"/><path class="ya34-4" d="M16,24V23H13v1h1v1h1V24Z"/><rect class="ya34-3" x="12" y="24" width="1" height="1"/><path class="ya34-2" d="M11,26h2V25H12V24h1V23h3v1h1v1H16v1h2V25h1V24H18V23H17V21H16v1H13V21H12v2H11v1H10v1h1Z"/><path class="ya34-2" d="M10,26V25H8v1h2Z"/><path class="ya34-2" d="M9,31V27H8v6H9V31Z"/><path class="ya34-3" d="M7,30H8V27H7v3Z"/><path class="ya34-3" d="M7,31v2H8V31Z"/><rect class="ya34-2" x="7" y="26" width="1" height="1"/><path class="ya34-2" d="M7,30V27H6v6H7V30Z"/><rect class="ya34-5" x="10" y="28" width="1" height="1"/><rect class="ya34-5" x="12" y="30" width="1" height="1"/><path class="ya34-5" d="M12,27h1V26H12Z"/><rect class="ya34-5" x="16" y="30" width="1" height="1"/><rect class="ya34-5" x="18" y="28" width="1" height="1"/><path class="ya34-5" d="M16,27h1V26H16Z"/><path class="ya34-5" d="M9,27V26H8v1Z"/><path class="ya34-5" d="M19,32v1h1V32Z"/><path class="ya34-5" d="M9,32v1h1V32Z"/><path class="ya34-5" d="M7,31H8V30H7Z"/><path class="ya34-5" d="M21,31h1V30H21Z"/><path class="ya34-5" d="M20,27h1V26H20Z"/><rect class="ya34-2" x="20" y="15" width="1" height="1"/><path class="ya34-2" d="M19,15h1V14H19Z"/><rect class="ya34-4" x="13" y="20" width="1" height="1"/><path class="ya34-4" d="M12,19V18h5v1h2V16h1V15H18v1H17v1H16V14H15V12H14V11H13V10H11v1H10v1h2v1h1v2H9v1h1v3h2Zm2-3h1v1H14Z"/><rect class="ya34-4" x="15" y="20" width="1" height="1"/><path class="ya34-4" d="M10,14h2V13H10Z"/><rect class="ya34-4" x="16" y="19" width="1" height="1"/><rect class="ya34-4" x="12" y="19" width="1" height="1"/><path class="ya34-2" d="M19,17v2h1V16H19Z"/><path class="ya34-2" d="M18,20h1V19H18Z"/><rect class="ya34-2" x="17" y="20" width="1" height="1"/><rect class="ya34-2" x="11" y="20" width="1" height="1"/><path class="ya34-2" d="M10,19v1h1V19Z"/><path class="ya34-2" d="M10,16H9v3h1V16Z"/><rect class="ya34-2" x="8" y="15" width="1" height="1"/><rect class="ya34-2" x="14" y="16" width="1" height="1"/><path class="ya34-6" d="M12,15h1V14H12Z"/><path class="ya34-6" d="M10,14v1h1V14Z"/><path class="ya34-2" d="M11,14v1h1V14Z"/><path class="ya34-7" d="M13,14V13H12v1Z"/><rect class="ya34-7" x="10" y="12" width="2" height="1"/><path class="ya34-8" d="M17,19v1h1V19Z"/><rect class="ya34-8" x="16" y="20" width="1" height="1"/><path class="ya34-8" d="M15,20H14v1H13v1h3V21H15Z"/><path class="ya34-8" d="M14,19h2V18H12v1h2Z"/><rect class="ya34-8" x="12" y="20" width="1" height="1"/><path class="ya34-8" d="M12,19H11v1h1Z"/><path class="ya34-2" d="M15,20h1V19H13v1h2Z"/><path class="ya34-2" d="M17,19V18H16v1Z"/><path class="ya34-9" d="M10,14V11h1V10h2v1h1v1h1v2h1v3h1V16h1V15h1V14h1V10H19V9H18V8H11V9H10v1H9v5h1Z"/></svg>