<svg xmlns="http://www.w3.org/2000/svg" viewBox="0 0 29 33"><defs><style>polygon,rect,path{shape-rendering:crispedges;}.la12-1{fill:#29834f;}.la12-2{fill:#000000;}.la12-3{fill:#381616;}.la12-4{fill:#844f4f;}.la12-5{fill:#e8b795;}.la12-6{fill:#ffffff;}.la12-7{fill:#e2e2e2;}.la12-8{fill:#45ba00;}.la12-9{fill:#508e91;}.la12-10{fill:#455054;}.la12-11{fill:#0079bc;}.la12-12{fill:#ffce00;}</style></defs><path class="la12-1" d="M8,18v4H9V16H8v2Z"/><path class="la12-1" d="M9,24H8v1h2V24Z"/><path class="la12-1" d="M8,32H6V31H5V22H6V21H7V20H5v1H2V17H5V16H8V14H9V10h1V9h1V8h7V9h1v1h1v4h1v2H20v6H19v3h2v1h1v1h1v6h6V0H0V33H8Z"/><path class="la12-2" d="M23,27H22v6h1V27Z"/><rect class="la12-2" x="21" y="26" width="1" height="1"/><path class="la12-3" d="M21,31h1V30H21Z"/><path class="la12-3" d="M21,28h1V27H21Z"/><path class="la12-2" d="M21,30V27H20v6h1V30Z"/><path class="la12-2" d="M20,26h1V25H19v1Z"/><path class="la12-3" d="M10,27H9v1H20V27H10Z"/><path class="la12-3" d="M9,31H20V30H9Z"/><path class="la12-3" d="M13,24H12v1h5V24H13Z"/><path class="la12-2" d="M9,30V27H8V26h2V25H8V24H7v7H6v1H8v1H9V30Z"/><path class="la12-3" d="M6,28H7V27H6Z"/><path class="la12-3" d="M7,30H6v1H7Z"/><path class="la12-3" d="M6,25H7V24H6Z"/><path class="la12-2" d="M6,29V22H5v9H6V29Z"/><path class="la12-4" d="M9,31v2H20V31Z"/><path class="la12-4" d="M9,29v1H20V28H9Z"/><path class="la12-4" d="M18,26H17V25H11v2H21V26H19V25H18Z"/><path class="la12-4" d="M10,26H8v1h2Z"/><path class="la12-4" d="M16,23H13v1h3Z"/><path class="la12-4" d="M6,29v1H7V28H6Z"/><path class="la12-4" d="M6,26v1H7V25H6Z"/><path class="la12-4" d="M21,31v2h1V31Z"/><path class="la12-4" d="M21,29v1h1V28H21Z"/><path class="la12-2" d="M20,16h1V15H20Z"/><path class="la12-5" d="M17,15H16v1h3V15H17Z"/><path class="la12-5" d="M13,16V15H10v1h3Z"/><path class="la12-5" d="M12,13h1v1h3V12h1V11H15V10H12v1H11v1h1Z"/><rect class="la12-5" x="14" y="15" width="1" height="1"/><path class="la12-5" d="M16,17V16H15v1H14V16H13v1H10v2h1v1h1v1h1v1h3V21h1V20h1V19h1V17H16Zm1,2H16v1H13V19h3V18h1Z"/><path class="la12-2" d="M19,17v2h1V16H19Z"/><rect class="la12-2" x="18" y="19" width="1" height="1"/><rect class="la12-2" x="17" y="20" width="1" height="1"/><path class="la12-2" d="M16,22H13V21H12v3h1V23h3v1h1V21H16Z"/><rect class="la12-2" x="11" y="20" width="1" height="1"/><rect class="la12-2" x="10" y="19" width="1" height="1"/><path class="la12-2" d="M10,18V16H9v3h1Z"/><path class="la12-2" d="M9,15H8v1H9Z"/><rect class="la12-2" x="14" y="16" width="1" height="1"/><path class="la12-6" d="M12,14v1h1V14Z"/><path class="la12-6" d="M11,14H10v1h1Z"/><path class="la12-6" d="M18,15h1V14H18Z"/><rect class="la12-6" x="16" y="14" width="1" height="1"/><path class="la12-2" d="M11,14v1h1V14Z"/><path class="la12-2" d="M18,15V14H17v1Z"/><path class="la12-7" d="M16,13h2V12H16Z"/><rect class="la12-7" x="11" y="12" width="1" height="1"/><rect class="la12-2" x="13" y="19" width="3" height="1"/><rect class="la12-2" x="16" y="18" width="1" height="1"/><path class="la12-8" d="M11,27V25h1V21H11V20H10V19H9v5h1v3Z"/><path class="la12-8" d="M10,13h1V11h1V10h3v1h2v1h1v1h1v1h1V10H19V9H18V8H11V9H10v1H9v4h1Z"/><path class="la12-8" d="M19,20H18v1H17v5h1V25h1V22h1V19H19Z"/><path class="la12-9" d="M19,15v1h1V15h1V14H19Z"/><path class="la12-9" d="M16,16v1h3V16H16Z"/><polygon class="la12-9" points="12 14 13 14 13 13 12 13 11 13 10 13 10 14 11 14 12 14"/><path class="la12-9" d="M16,14h3V13H16Z"/><path class="la12-9" d="M14,15h1v1h1V14H13v2h1Z"/><path class="la12-9" d="M11,17h2V16H10v1Z"/><path class="la12-9" d="M9,16h1V14H8v1H9Z"/><path class="la12-5" d="M7,24H8V22H6v2Z"/><path class="la12-10" d="M8,22V20H7v2Z"/><path class="la12-2" d="M7,21H6v1H7Z"/><path class="la12-2" d="M9,22H8v2H9Z"/><path class="la12-11" d="M5,17H2v1H5Z"/><path class="la12-11" d="M6,16H5v1H6Z"/><path class="la12-11" d="M8,17V16H7v1Z"/><path class="la12-11" d="M5,18v1H2v2H5V20H6V18Z"/><path class="la12-11" d="M8,19V18H7v2H8Z"/><path class="la12-12" d="M8,18V17H7V16H6v1H5v1H6v2H7V18Z"/><path class="la12-12" d="M5,19V18H2v1H5Z"/></svg>