<svg xmlns="http://www.w3.org/2000/svg" viewBox="0 0 29 33"><defs><style>polygon,rect,path{shape-rendering:crispedges;}.la16-1{fill:#31a09d;}.la16-2{fill:#000000;}.la16-3{fill:#72dd40;}.la16-4{fill:#e8b795;}.la16-5{fill:#e2e2e2;}.la16-6{fill:#db5800;}.la16-7{fill:#ffffff;}.la16-8{fill:#0068ff;}.la16-9{fill:#ff1f4a;}.la16-10{fill:#455054;}.la16-11{fill:#ffffff;}</style></defs><path class="la16-1" d="M8,19v3H9v2H8v1h2V24h2V21H11V20H10V19H9V16H8v3Z"/><path class="la16-1" d="M0,33H8V32H6V31H5V22H6V21H7V20H5v1H2V17H5V16H8V15H9V10h1V9h1V8h7V9h1v1h1v2h1v6H20v1H19v1H18v1H17v3h2v1h2v1h1v1h1v6h6V0H0Z"/><path class="la16-2" d="M23,27H22v6h1V27Z"/><rect class="la16-2" x="21" y="26" width="1" height="1"/><path class="la16-3" d="M22,27H21v6h1V27Z"/><path class="la16-2" d="M21,27H20v6h1V27Z"/><path class="la16-2" d="M20,26h1V25H19v1Z"/><path class="la16-3" d="M20,27h1V26H19V25H17V24H16V23H13v1H12v1H10v1H8v1H9v6H20V27Z"/><path class="la16-2" d="M18,25h1V24H17v1Z"/><path class="la16-2" d="M10,25h2V24H10Z"/><path class="la16-2" d="M9,27H8V26h2V25H8V24H7v7H6v1H8v1H9V27Z"/><path class="la16-3" d="M7,30V24H6v7H7Z"/><path class="la16-2" d="M6,24V22H5v9H6V24Z"/><path class="la16-4" d="M15,12V11H13V10H11v1H10v1h2v1h2v1h1V13h1V12Z"/><rect class="la16-4" x="14" y="15" width="1" height="1"/><path class="la16-4" d="M19,16H15v1H14V16H10v3h1v1h1v1h1v1h3V21h1V20h1V19h1V16Zm-2,3H16v1H13V19h3V18h1Z"/><path class="la16-2" d="M19,16v3h1V16Z"/><rect class="la16-2" x="18" y="19" width="1" height="1"/><rect class="la16-2" x="17" y="20" width="1" height="1"/><path class="la16-2" d="M16,22H13V21H12v3h1V23h3v1h1V21H16Z"/><rect class="la16-2" x="11" y="20" width="1" height="1"/><rect class="la16-2" x="10" y="19" width="1" height="1"/><path class="la16-2" d="M10,16H9v3h1V16Z"/><rect class="la16-2" x="8" y="15" width="1" height="1"/><rect class="la16-2" x="14" y="16" width="1" height="1"/><path class="la16-5" d="M10,12v1h2V12Z"/><rect class="la16-2" x="13" y="19" width="3" height="1"/><rect class="la16-2" x="16" y="18" width="1" height="1"/><path class="la16-6" d="M10,12V11h1V10h2v1h2v1h1v1h4v5h1V12H20V10H19V9H18V8H11V9H10v1H9v3h1Z"/><path class="la16-7" d="M10,16h4V15h1v1h5V13H15v1H14V13H9v3Zm6-2h3v1H16Zm-6,0h3v1H10Z"/><path class="la16-8" d="M19,15V14H16v1h3Z"/><path class="la16-9" d="M13,15V14H10v1h3Z"/><path class="la16-4" d="M7,24H8V22H6v2Z"/><path class="la16-10" d="M8,22V20H7v2Z"/><path class="la16-9" d="M5,17H2v1H5Z"/><path class="la16-9" d="M2,19v1H5V19Z"/><path class="la16-11" d="M2,21H5V20H2Z"/><path class="la16-8" d="M6,18H8V16H5v2Z"/><path class="la16-11" d="M5,18H2v1H5Z"/><path class="la16-9" d="M7,18H5v1H8V18Z"/><path class="la16-11" d="M8,19H5v1H8Z"/><path class="la16-2" d="M7,21H6v1H7Z"/><path class="la16-2" d="M9,22H8v2H9Z"/></svg>