<svg xmlns="http://www.w3.org/2000/svg" viewBox="0 0 29 33"><defs><style>polygon,rect,path{shape-rendering:crispedges;}.ib183-1{fill:#6b4f99;}.ib183-2{fill:#000000;}.ib183-3{fill:#e8b795;}.ib183-4{fill:#ffffff;}.ib183-5{fill:#316a6d;}.ib183-6{fill:#685432;}.ib183-7{fill:#c8a715;}.ib183-8{fill:#ff5e17;}</style></defs><path class="ib183-1" d="M0,33H6V27H7V26H8V25h2V20H9V16H8V15H9V11h1V10h1V9h7v1h1v1h1v4h1v1H20v4H19v5h2v1h1v1h1v6h6V0H0Z"/><path class="ib183-1" d="M12,22H11v2h1V22Z"/><path class="ib183-1" d="M18,24V22H17v2Z"/><path class="ib183-2" d="M23,27H22v6h1V27Z"/><path class="ib183-3" d="M22,27H21v6h1V27Z"/><rect class="ib183-2" x="21" y="26" width="1" height="1"/><path class="ib183-2" d="M21,27H20v6h1V27Z"/><path class="ib183-3" d="M20,27h1V26H19V25H16V23H13v2H10v1H8v1H9v6h5V29h1v4h5V27Zm-8,2H11V28h1Zm6,0H17V28h1Z"/><path class="ib183-2" d="M20,26h1V25H19v1Z"/><rect class="ib183-2" x="17" y="28" width="1" height="1"/><path class="ib183-2" d="M17,24v1h2V24H17Z"/><path class="ib183-2" d="M15,29H14v4h1V29Z"/><rect class="ib183-2" x="11" y="28" width="1" height="1"/><path class="ib183-2" d="M12,24H10v1h2Z"/><path class="ib183-2" d="M10,25H8v1h2Z"/><path class="ib183-2" d="M9,27H8v6H9V27Z"/><path class="ib183-3" d="M8,27H7v6H8V27Z"/><rect class="ib183-2" x="7" y="26" width="1" height="1"/><path class="ib183-2" d="M7,27H6v6H7V27Z"/><rect class="ib183-2" x="20" y="15" width="1" height="1"/><path class="ib183-2" d="M19,15h1V14H19Z"/><polygon class="ib183-3" points="18 14 19 14 19 13 17 13 17 14 18 14"/><path class="ib183-3" d="M10,17v1h1v1h1V18h5v1h1V18h1V16h1V15H16V13h1V12h2V11H18V10H11v1H10v2h1V12h2v1H11v1h2v1H9v1h1Zm4-1h1v1H14Z"/><polygon class="ib183-3" points="13 21 14 21 14 22 15 22 15 21 16 21 16 20 13 20 13 21"/><path class="ib183-2" d="M19,17h1V16H19Z"/><path class="ib183-2" d="M10,14H9v1h1Z"/><path class="ib183-2" d="M10,16H9v1h1Z"/><rect class="ib183-2" x="8" y="15" width="1" height="1"/><rect class="ib183-2" x="14" y="16" width="1" height="1"/><path class="ib183-4" d="M13,15V14H12v1Z"/><path class="ib183-4" d="M10,15h1V14H10Z"/><path class="ib183-4" d="M18,14v1h1V14Z"/><path class="ib183-4" d="M16,14v1h1V14Z"/><path class="ib183-2" d="M12,15V14H11v1Z"/><path class="ib183-2" d="M17,14v1h1V14Z"/><rect class="ib183-5" x="10" y="13" width="1" height="1"/><rect class="ib183-5" x="11" y="12" width="2" height="1"/><path class="ib183-5" d="M17,13H16v1h1Z"/><rect class="ib183-5" x="17" y="12" width="2" height="1"/><path class="ib183-6" d="M12,22v1h5V22h2V20h1V17H19v1H18v1H16v2H15v1H14V21H13V19H11V18H10V17H9v3h1v2h2Z"/><path class="ib183-7" d="M18,23h1V22H18Z"/><path class="ib183-6" d="M18,24h1V23H18Z"/><path class="ib183-7" d="M17,23H16v1h1Z"/><path class="ib183-6" d="M16,24v1h1V24Z"/><path class="ib183-7" d="M12,24h1V23H12Z"/><path class="ib183-6" d="M12,25h1V24H12Z"/><path class="ib183-7" d="M11,22H10v1h1Z"/><path class="ib183-6" d="M11,23H10v1h1Z"/><path class="ib183-2" d="M12,18v1h1V18Z"/><path class="ib183-2" d="M16,18v1h1V18Z"/><path class="ib183-2" d="M15,18H14v1H13v1h3V19H15Z"/><path class="ib183-4" d="M14,18H13v1h1Z"/><path class="ib183-4" d="M15,18v1h1V18Z"/><path class="ib183-8" d="M19,13v1h1V11H19v2Z"/><rect class="ib183-8" x="18" y="10" width="1" height="1"/><path class="ib183-8" d="M18,10V9H11v1h7Z"/><rect class="ib183-8" x="10" y="10" width="1" height="1"/><path class="ib183-8" d="M10,13V11H9v3h1Z"/></svg>