<svg xmlns="http://www.w3.org/2000/svg" viewBox="0 0 29 33"><defs><style>polygon,rect,path{shape-rendering:crispedges;}.ha118-1{fill:#d4a122;}.ha118-2{fill:#000000;}.ha118-3{fill:#db5800;}.ha118-4{fill:#c18d59;}.ha118-5{fill:#ffb38d;}.ha118-6{fill:#ffffff;}.ha118-7{fill:#8e4717;}.ha118-8{fill:#8e4717;}.ha118-9{fill:#00af68;}.ha118-10{fill:#455054;}.ha118-11{fill:#29834f;}.ha118-12{fill:#ff791f;}</style></defs><path class="ha118-1" d="M8,19v3H9v2H8v1h2V24h2V22H11V21H10V20H9V16H8v3Z"/><path class="ha118-1" d="M0,33H8V32H6V31H5V22H6V21H7V20H5v1H2V17H5V16H8V15H9V11h1V10h1V7h1V6H11V5h2V6h2V7h1V9h2v1h1v1h1v4h1v1H20v4H19v1H18v1H17v2h2v1h2v1h1v1h1v6h6V0H0Z"/><path class="ha118-2" d="M6,24V22H5v9H6V24Z"/><path class="ha118-3" d="M7,30V24H6v7H7Z"/><path class="ha118-2" d="M9,27H8V26h2V25H8V24H7v7H6v1H8v1H9V27Z"/><rect class="ha118-3" x="16" y="30" width="1" height="1"/><path class="ha118-3" d="M20,27h1V26H19V25H17v1H16v1H13V26H12V25H10v1H8v1H9v6h1V30h1V29h1V28h5v1h1v1h1v3h1V27Z"/><rect class="ha118-3" x="12" y="30" width="1" height="1"/><path class="ha118-3" d="M16,32H12v1h5V32Z"/><path class="ha118-2" d="M11,24H10v1h2V24Z"/><path class="ha118-2" d="M13,23V22H12v2h1Z"/><rect class="ha118-2" x="12" y="25" width="1" height="1"/><path class="ha118-2" d="M13,26v1h3V26H13Z"/><path class="ha118-4" d="M16,23H13v1H12v1h1v1h3V25h1V24H16Z"/><rect class="ha118-2" x="16" y="25" width="1" height="1"/><path class="ha118-2" d="M18,25h1V24H17v1Z"/><path class="ha118-2" d="M20,26h1V25H19v1Z"/><path class="ha118-2" d="M21,27H20v6h1V27Z"/><rect class="ha118-2" x="21" y="26" width="1" height="1"/><path class="ha118-3" d="M22,27H21v6h1V27Z"/><path class="ha118-2" d="M23,27H22v6h1V27Z"/><path class="ha118-5" d="M19,30H18V29H17V28H12v1H11v1H10v3h2V32h5v1h2V30Zm-6,1H12V30h1Zm4,0H16V30h1Z"/><rect class="ha118-2" x="20" y="15" width="1" height="1"/><path class="ha118-2" d="M19,13v2h1V11H19v2Z"/><rect class="ha118-4" x="15" y="20" width="1" height="1"/><path class="ha118-4" d="M10,16v2h1v1h1V18h2v1h1V18h2v1h1V18h1V16h1V15H16V14h3V13H16V12h3V11H18V10H16v1H14V10H11v1H10v1h3v1H10v1h3v1H9v1Zm4,0h1v1H14Z"/><rect class="ha118-4" x="13" y="20" width="1" height="1"/><rect class="ha118-2" x="18" y="10" width="1" height="1"/><path class="ha118-2" d="M16,23v1h1V22H16Z"/><path class="ha118-2" d="M13,9H11v1h2Z"/><path class="ha118-2" d="M17,10h1V9H16v1Z"/><rect class="ha118-2" x="10" y="10" width="1" height="1"/><path class="ha118-2" d="M10,14V11H9v4h1Z"/><rect class="ha118-2" x="8" y="15" width="1" height="1"/><rect class="ha118-2" x="14" y="16" width="1" height="1"/><path class="ha118-6" d="M13,15V14H12v1Z"/><path class="ha118-6" d="M11,15V14H10v1Z"/><path class="ha118-6" d="M18,14v1h1V14Z"/><path class="ha118-6" d="M16,14v1h1V14Z"/><path class="ha118-2" d="M12,15V14H11v1Z"/><path class="ha118-2" d="M17,14v1h1V14Z"/><path class="ha118-7" d="M13,13V12H10v1Z"/><path class="ha118-7" d="M16,12v1h3V12Z"/><path class="ha118-8" d="M16,18H15v1h1Z"/><path class="ha118-8" d="M19,17v1H18v1H16v2H15V20H14v1H13V19h1V18H12v1H11V18H10V16H9v4h1v1h1v1h2v1h3V22h2V21h1V20h1V16H19Z"/><path class="ha118-2" d="M13,20h3V19H13Z"/><path class="ha118-2" d="M17,19V18H16v1Z"/><path class="ha118-9" d="M13,10h1v1h2V7H15V6H13V5H11V6h1V7H11V9h2Z"/><path class="ha118-4" d="M7,24H8V22H6v2Z"/><path class="ha118-10" d="M8,22V20H7v2Z"/><path class="ha118-2" d="M7,21H6v1H7Z"/><path class="ha118-2" d="M9,22H8v2H9Z"/><path class="ha118-11" d="M4,17H2v4H4V17Z"/><path class="ha118-12" d="M8,19V16H6v4H8Z"/><path class="ha118-6" d="M6,16H5v1H4v4H5V20H6V16Z"/><rect class="ha118-9" x="10" y="9" width="1" height="1"></rect></svg>