<svg xmlns="http://www.w3.org/2000/svg" viewBox="0 0 29 33"><defs><style>polygon,rect,path{shape-rendering:crispedges;}.ka16-1{fill:#6b4f99;}.ka16-2{fill:#000000;}.ka16-3{fill:#002b4f;}.ka16-4{fill:#0079bc;}.ka16-5{fill:#e8b795;}.ka16-6{fill:#ffffff;}.ka16-7{fill:#5e362f;}.ka16-8{fill:#5e362f;}.ka16-9{fill:#ff1f4a;}.ka16-10{fill:#560000;}.ka16-11{fill:#cbed03;}.ka16-12{fill:#455054;}.ka16-13{fill:#002b4f;}</style></defs><path class="ka16-1" d="M12,22H11V21H10V20H9V17H8v5H9v2H8v1h2V24h2V22Z"/><path class="ka16-1" d="M0,33H8V32H6V31H5V22H6V21H7V20H5v1H2V17H5V16H8V15H7V14H8V12H7V10H8v1H9V9H8V8h2V9h1V8h1V7h1V8h1V7h2V8h1V7h1V8h1V7h1V8H19V9H18v1h2V9h1v2H20v1h2v1H20v1h2v1H21v2H20v3H19v1H18v1H17v2h2v1h2v1h1v1h1v6h6V0H0Z"/><path class="ka16-2" d="M23,27H22v6h1V27Z"/><rect class="ka16-2" x="21" y="26" width="1" height="1"/><path class="ka16-3" d="M21,28v2h1V27H21Z"/><path class="ka16-3" d="M21,31v2h1V31Z"/><path class="ka16-2" d="M21,30V27H20v6h1V30Z"/><path class="ka16-2" d="M20,26h1V25H19v1Z"/><path class="ka16-3" d="M20,32V26H19V25H17V24H16V23H13v1H12v1H10v1H9v6h1v1h4V32h1v1h4V32Zm-9-3H10V28h1Zm2,2H12V30h1Zm0-4H12V26h1Zm2,2H14V28h1Zm0-4H14V24h1Zm2,6H16V30h1Zm0-4H16V26h1Zm1,2V28h1v1Z"/><path class="ka16-2" d="M18,25h1V24H17v1Z"/><path class="ka16-2" d="M16,24h1V23H16Z"/><path class="ka16-2" d="M12,24h1V23H12Z"/><path class="ka16-2" d="M10,25h2V24H10Z"/><path class="ka16-2" d="M9,31V27H8V26h2V25H8V24H7v7H6v1H8v1H9V31Z"/><path class="ka16-3" d="M6,25H7V24H6Z"/><path class="ka16-3" d="M6,27v2H7V26H6Z"/><path class="ka16-3" d="M7,30H6v1H7Z"/><path class="ka16-2" d="M6,29V22H5v9H6V29Z"/><rect class="ka16-4" x="10" y="28" width="1" height="1"/><rect class="ka16-4" x="12" y="30" width="1" height="1"/><rect class="ka16-4" x="14" y="28" width="1" height="1"/><rect class="ka16-4" x="14" y="32" width="1" height="1"/><rect class="ka16-4" x="12" y="26" width="1" height="1"/><rect class="ka16-4" x="16" y="30" width="1" height="1"/><rect class="ka16-4" x="18" y="28" width="1" height="1"/><rect class="ka16-4" x="16" y="26" width="1" height="1"/><rect class="ka16-4" x="14" y="24" width="1" height="1"/><path class="ka16-4" d="M8,27H9V26H8Z"/><path class="ka16-4" d="M19,32v1h1V32Z"/><path class="ka16-4" d="M9,32v1h1V32Z"/><path class="ka16-4" d="M6,30H7V29H6Z"/><path class="ka16-4" d="M6,26H7V25H6Z"/><path class="ka16-4" d="M21,31h1V30H21Z"/><path class="ka16-4" d="M20,27h1V26H20Z"/><rect class="ka16-5" x="9" y="15" width="1" height="1"/><rect class="ka16-5" x="10" y="16" width="1" height="1"/><path class="ka16-5" d="M14,15v1h1v1H14V16H13v1H11v1h1v1h1V18h5V17h1V16h1V15H16V13h1V12H15v3Z"/><rect class="ka16-5" x="15" y="10" width="1" height="1"/><rect class="ka16-2" x="14" y="16" width="1" height="1"/><path class="ka16-6" d="M18,15h1V14H18Z"/><path class="ka16-6" d="M16,14v1h1V14Z"/><path class="ka16-2" d="M17,14v1h1V14Z"/><path class="ka16-7" d="M16,14h3V13H16Z"/><path class="ka16-8" d="M15,18H13v1h3V18Z"/><path class="ka16-8" d="M19,16v1H18v1H17v1H16v1H13V19H12V18H11V17H10V16H9v4h1v1h1v1h1v1h5V22h1V21h1V20h1V16Z"/><rect class="ka16-2" x="13" y="19" width="3" height="1"/><path class="ka16-2" d="M16,19h1V18H16Z"/><path class="ka16-9" d="M12,15h1V13H12v1H11v1Z"/><path class="ka16-10" d="M14,15V13H13v2Z"/><polygon class="ka16-10" points="13 15 12 15 11 15 11 16 13 16 13 15"/><rect class="ka16-10" x="10" y="14" width="1" height="1"/><path class="ka16-10" d="M13,12H11v1h2Z"/><rect class="ka16-2" x="10" y="15" width="1" height="1"/><rect class="ka16-2" x="11" y="16" width="2" height="1"/><rect class="ka16-2" x="13" y="15" width="1" height="1"/><path class="ka16-2" d="M12,11H11v1h1Z"/><path class="ka16-2" d="M15,15V12H14v3Z"/><rect class="ka16-2" x="9" y="13" width="1" height="1"/><path class="ka16-11" d="M9,17V15h1V14H9V13h1v1h2V13H11V11h1v1h1v1h1V12h3v1h2v2h1v2h1V15h1V14H20V13h2V12H20V11h1V9H20v1H18V9h1V8H18V7H17V8H16V7H14V8H13V7H12V8H11V9H10V8H8V9H9v2H8V10H7v2H8v2H7v1H8v2Zm6-7h1v1H15Z"/><rect class="ka16-11" x="19" y="7" width="1" height="1"/><path class="ka16-5" d="M7,24H8V22H6v2Z"/><path class="ka16-12" d="M8,22V20H7v2Z"/><path class="ka16-2" d="M7,21H6v1H7Z"/><path class="ka16-2" d="M9,22H8v2H9Z"/><path class="ka16-13" d="M4,21H5V20H4Z"/><path class="ka16-13" d="M5,18V17H4v1Z"/><path class="ka16-13" d="M3,19V18H2v2H3Z"/><path class="ka16-13" d="M5,19v1H6V19Z"/><path class="ka16-13" d="M6,16H5v1H6Z"/><path class="ka16-13" d="M7,17v2H8V17Z"/><path class="ka16-9" d="M3,17H2v1H3Z"/><path class="ka16-9" d="M6,17v1H3v2H4V19H7V17Z"/><path class="ka16-9" d="M8,17V16H7v1Z"/><path class="ka16-9" d="M8,19H7v1H8Z"/><path class="ka16-9" d="M2,20v1H3V20Z"/><path class="ka16-6" d="M3,20v1H4V20Z"/><path class="ka16-6" d="M4,19v1H5V19Z"/><path class="ka16-6" d="M4,18V17H3v1Z"/><path class="ka16-6" d="M7,17V16H6v1Z"/><path class="ka16-6" d="M6,18V17H5v1Z"/><path class="ka16-6" d="M6,19v1H7V19Z"/></svg>