<svg xmlns="http://www.w3.org/2000/svg" viewBox="0 0 29 33"><defs><style>polygon,rect,path{shape-rendering:crispedges;}.ga190-1{fill:#db5a8e;}.ga190-2{fill:#000000;}.ga190-3{fill:#cbed03;}.ga190-4{fill:#b2622b;}.ga190-5{fill:#cbed03;}.ga190-6{fill:#ffffff;}.ga190-7{fill:#00774c;}.ga190-8{fill:#00774c;}.ga190-9{fill:#a7af69;}.ga190-10{fill:#fad000;}</style></defs><path class="ga190-1" d="M17,22v2h3V23H19V22H18V21H17Z"/><path class="ga190-1" d="M6,32V27H7V26H8V25h2V24h2V21H11V20H10V19H9V16H8V14H9V12H8v1H7V12H8V11H9V10h1V9h2V8h5V9h2v1h1v1h1v1h1v1H21V12H20v2h1v2H20v3H19v1H18v1h2v1h1v1h1v1h2v1h1v2H24V26H23v7h6V0H0V33H6Z"/><path class="ga190-2" d="M7,27H6v6H7V27Z"/><rect class="ga190-2" x="7" y="26" width="1" height="1"/><path class="ga190-3" d="M8,27H7v6H8V27Z"/><path class="ga190-2" d="M9,31V27H8v6H9V31Z"/><path class="ga190-2" d="M10,25H8v1h2Z"/><path class="ga190-3" d="M15,29H14v2h1V29Z"/><rect class="ga190-3" x="18" y="29" width="1" height="1"/><rect class="ga190-3" x="10" y="29" width="1" height="1"/><path class="ga190-3" d="M19,32V31H18v1H17V29h1V28h1v1h1V27H19V25H18v1H16v1H13V26H12V25H10v1H8v1H9v2h1V28h1v1h1v3H11V31H10v1H9v1H20V32Zm-3-2v1H15v1H13V28h2v1h1Z"/><path class="ga190-2" d="M12,24H10v1h2Z"/><path class="ga190-2" d="M13,23V22H12v2h1Z"/><rect class="ga190-2" x="12" y="25" width="1" height="1"/><path class="ga190-2" d="M13,26v1h3V26H13Z"/><path class="ga190-4" d="M13,25v1h3V25h1V24H16V23H13v1H12v1Z"/><path class="ga190-2" d="M16,25v1h1V25Z"/><path class="ga190-2" d="M17,24v1h1V24Z"/><path class="ga190-2" d="M21,27H20v6h1V27Z"/><path class="ga190-3" d="M22,27H21v6h1V27Z"/><path class="ga190-2" d="M23,26V25H22v8h1V26Z"/><path class="ga190-5" d="M19,30H18V29H17v3h1V31h1v1h1V29H19Z"/><rect class="ga190-5" x="18" y="28" width="1" height="1"/><path class="ga190-5" d="M15,30v1h1V29H15Z"/><path class="ga190-5" d="M14,30V29h1V28H13v4h2V31H14Z"/><path class="ga190-5" d="M9,32h1V31h1v1h1V29H11v1H10V29H9v3Z"/><rect class="ga190-5" x="10" y="28" width="1" height="1"/><path class="ga190-2" d="M20,16h1V15H20Z"/><rect class="ga190-2" x="19" y="14" width="1" height="1"/><path class="ga190-4" d="M10,17v1h1v1h1V18h1v1h3v1h1V19h1V18h1V16h1V15H16V14h3V13H16V12H15V11H14v1H13v1H10v1h3v1H9v1h1Zm4-1h1v1H14Z"/><path class="ga190-4" d="M13,21h3V20H13Z"/><rect class="ga190-4" x="12" y="19" width="1" height="1"/><path class="ga190-2" d="M16,22v2h1V22Z"/><path class="ga190-2" d="M10,15V14H9v1Z"/><path class="ga190-2" d="M8,15v1H9V15Z"/><rect class="ga190-2" x="14" y="16" width="1" height="1"/><path class="ga190-6" d="M13,15V14H12v1Z"/><path class="ga190-6" d="M11,15V14H10v1Z"/><path class="ga190-6" d="M18,14v1h1V14Z"/><path class="ga190-6" d="M16,14v1h1V14Z"/><path class="ga190-2" d="M12,15V14H11v1Z"/><path class="ga190-2" d="M17,14v1h1V14Z"/><path class="ga190-7" d="M12,13h1V12H12Z"/><path class="ga190-7" d="M16,12v1h1V12Z"/><path class="ga190-8" d="M13,23h3V22h1V21h1V20h1V19h1V16H19v2H18v1H17v1H16v1H13V20H12V19H11V18H10V16H9v3h1v1h1v1h1v1h1Z"/><rect class="ga190-2" x="13" y="19" width="3" height="1"/><rect class="ga190-2" x="12" y="18" width="1" height="1"/><rect class="ga190-9" x="21" y="12" width="1" height="1"/><path class="ga190-9" d="M10,13h2V12h2V11h1v1h2v1h2v1h1V12h1V11H20V10H19V9H17V8H12V9H10v1H9v1H8v1H9v2h1Z"/><path class="ga190-9" d="M21,15V14H20v1Z"/><path class="ga190-9" d="M9,14H8v1H9Z"/><rect class="ga190-9" x="7" y="12" width="1" height="1"/><path class="ga190-10" d="M23,25v1h1v1h1V25H24V24H22v1Z"/><path class="ga190-6" d="M19,22v1h1v2h2V23H21V22H20V21H18v1Z"/><path class="ga190-4" d="M20,27h2V25H20Z"/><path class="ga190-10" d="M20,24H18v1h2Z"/><path class="ga190-10" d="M17,26h1V25H17Z"/><path class="ga190-2" d="M19,25v2h1V25Z"/></svg>