<svg xmlns="http://www.w3.org/2000/svg" viewBox="0 0 29 33"><defs><style>polygon,rect,path{shape-rendering:crispedges;}.qa279-1{fill:#29834f;}.qa279-2{fill:#000000;}.qa279-3{fill:#0079bc;}.qa279-4{fill:#c18d59;}.qa279-5{fill:#94d4ff;}.qa279-6{fill:#e2e2e2;}.qa279-7{fill:#ffffff;}.qa279-8{fill:#e2e2e2;}.qa279-9{fill:#b23b00;}</style></defs><path class="qa279-1" d="M0,33H6V27H7V26H8V25h2V24h1V23H10V22h1V20H9V18H8V13H9V11h1V10h1V9h7v1h1v1h1v1h1v6H20v2H18v2h1v1H18v1h1v1h2v1h1v1h1v6h6V0H0Z"/><path class="qa279-2" d="M23,27H22v6h1V27Z"/><path class="qa279-3" d="M22,27H21v6h1V27Z"/><rect class="qa279-2" x="21" y="26" width="1" height="1"/><path class="qa279-2" d="M21,27H20v6h1V27Z"/><rect class="qa279-3" x="10" y="29" width="1" height="1"/><path class="qa279-3" d="M19,32V31H18v1H17V30H16v1H15v1H13V30H12v2H11V31H10v1H9v1H20V32Z"/><path class="qa279-3" d="M16,25h1v4h1V28h1v1h1V27h1V26H19V25H18V24H16Z"/><path class="qa279-3" d="M9,27v2h1V28h1v1h1V25h1V24H11v1H10v1H8v1Z"/><rect class="qa279-3" x="18" y="29" width="1" height="1"/><path class="qa279-2" d="M20,26h1V25H19v1Z"/><rect class="qa279-2" x="18" y="24" width="1" height="1"/><rect class="qa279-2" x="18" y="22" width="1" height="1"/><rect class="qa279-3" x="17" y="22" width="1" height="1"/><path class="qa279-2" d="M16,25V24H13v1h3Z"/><path class="qa279-4" d="M16,24V23H13v1h3Z"/><path class="qa279-2" d="M13,23h3v1h2V23H17V22h1V20H17v1H16v1H13V21H12V20H11v2h1v1H11v1h2Z"/><rect class="qa279-3" x="11" y="22" width="1" height="1"/><rect class="qa279-2" x="10" y="24" width="1" height="1"/><rect class="qa279-2" x="10" y="22" width="1" height="1"/><path class="qa279-2" d="M10,25H8v1h2Z"/><path class="qa279-2" d="M9,31V27H8v6H9V31Z"/><path class="qa279-3" d="M8,27H7v6H8V27Z"/><rect class="qa279-2" x="7" y="26" width="1" height="1"/><path class="qa279-2" d="M7,27H6v6H7V27Z"/><path class="qa279-3" d="M13,28h2v1h1V25H13v3Z"/><path class="qa279-3" d="M14,29v2h1V29Z"/><path class="qa279-5" d="M19,30H18V29H17v3h1V31h1v1h1V29H19Z"/><rect class="qa279-5" x="18" y="28" width="1" height="1"/><path class="qa279-5" d="M15,29v2h1V29Z"/><path class="qa279-5" d="M14,30V29h1V28H13v4h2V31H14Z"/><path class="qa279-5" d="M11,29v1H10V29H9v3h1V31h1v1h1V29Z"/><rect class="qa279-5" x="10" y="28" width="1" height="1"/><path class="qa279-2" d="M13,27V25H12v5h1V27Z"/><path class="qa279-2" d="M17,28V25H16v5h1V28Z"/><rect class="qa279-2" x="19" y="14" width="1" height="1"/><rect class="qa279-4" x="9" y="15" width="1" height="1"/><rect class="qa279-4" x="19" y="15" width="1" height="1"/><path class="qa279-4" d="M12,21h1v1h3V21h1V20h1V19h1V18H18V15H16v1H15v1H14V16H13v1H12V15H11v3H10v1h1v1h1Zm0-3h5v1H16v1H13V19H12Z"/><path class="qa279-2" d="M19,16v2h1V16Z"/><path class="qa279-2" d="M18,19v1h1V19Z"/><path class="qa279-2" d="M10,19v1h1V19Z"/><path class="qa279-2" d="M10,17V16H9v2h1Z"/><path class="qa279-6" d="M17,14v1h1V14Z"/><rect class="qa279-2" x="14" y="14" width="1" height="1"/><path class="qa279-7" d="M16,14V13H14v1h2Z"/><path class="qa279-7" d="M14,15H13v1h2V15Z"/><rect class="qa279-7" x="12" y="14" width="1" height="1"/><path class="qa279-7" d="M16,14v1h1V14Z"/><path class="qa279-6" d="M16,12H14v1h2Z"/><rect class="qa279-6" x="12" y="13" width="1" height="1"/><rect class="qa279-6" x="11" y="14" width="1" height="1"/><path class="qa279-2" d="M14,17h1V16H14Z"/><path class="qa279-4" d="M15,11H14v1h1Z"/><path class="qa279-4" d="M12,13h1V12H11v2h1Z"/><path class="qa279-4" d="M18,13V11H17v3h1Z"/><polygon class="qa279-8" points="16 19 17 19 17 18 13 18 13 19 16 19"/><rect class="qa279-2" x="13" y="19" width="3" height="1"/><rect class="qa279-2" x="12" y="18" width="1" height="1"/><path class="qa279-9" d="M9,15h1v3h1V12h2v3h1V11h1v1h1v2h1V11h1v7h1V14h1v4h1V12H20V11H19V10H18V9H11v1H10v1H9v2H8v5H9V15Z"/><path class="qa279-9" d="M19,19v1h1V18H19Z"/><path class="qa279-9" d="M15,14v2h1V14Z"/><path class="qa279-9" d="M12,15v2h1V15Z"/><path class="qa279-9" d="M10,18H9v2h1V18Z"/></svg>