<svg xmlns="http://www.w3.org/2000/svg" viewBox="0 0 29 33"><defs><style>polygon,rect,path{shape-rendering:crispedges;}.ka294-1{fill:#e55b35;}.ka294-2{fill:#000000;}.ka294-3{fill:#c5e2d0;}.ka294-4{fill:#508e5d;}.ka294-5{fill:#b2622b;}.ka294-6{fill:#4922aa;}.ka294-7{fill:#4922aa;}.ka294-8{fill:#d2d8b8;}.ka294-9{fill:#68aaad;}</style></defs><path class="ka294-1" d="M0,33H6V24H7V23H8v1H9v1h1V24h2V22H11V21H10V20H9V16H8V15H9V13H8V9H9V8h1V7h1V6h7V7h1V8h1V9h1v4H20v2h1v1H20v4H19v1H18v1H17v2h2v1h1V24h1V23h1v1h1v9h6V0H0Z"/><path class="ka294-2" d="M7,30V24H6v9H7V30Z"/><path class="ka294-3" d="M7,31v2H8V31Z"/><path class="ka294-3" d="M7,28v2H8V27H7Z"/><path class="ka294-2" d="M9,31V27H8v6H9V31Z"/><path class="ka294-3" d="M20,32V27H19V25H17V24H16V23H13v1H12v1H10v2H9v5h1v1h4V32h1v1h4V32Zm-9-3H10V28h1Zm2,2H12V30h1Zm0-4H12V26h1Zm2,2H14V28h1Zm0-4H14V24h1Zm2,6H16V30h1Zm0-4H16V26h1Zm1,2V28h1v1Z"/><path class="ka294-2" d="M12,24H10v1h2Z"/><path class="ka294-2" d="M13,23V22H12v2h1Z"/><path class="ka294-2" d="M18,25h1V24H17v1Z"/><path class="ka294-2" d="M21,31V27H20v6h1V31Z"/><path class="ka294-3" d="M21,29v2h1V28H21Z"/><path class="ka294-3" d="M21,32v1h1V32Z"/><path class="ka294-2" d="M23,24H22v9h1V24Z"/><rect class="ka294-4" x="10" y="28" width="1" height="1"/><rect class="ka294-4" x="12" y="30" width="1" height="1"/><rect class="ka294-4" x="14" y="28" width="1" height="1"/><rect class="ka294-4" x="14" y="32" width="1" height="1"/><rect class="ka294-4" x="12" y="26" width="1" height="1"/><rect class="ka294-4" x="16" y="30" width="1" height="1"/><rect class="ka294-4" x="18" y="28" width="1" height="1"/><path class="ka294-4" d="M21,28h1V27H21Z"/><rect class="ka294-4" x="16" y="26" width="1" height="1"/><rect class="ka294-4" x="14" y="24" width="1" height="1"/><path class="ka294-4" d="M19,32v1h1V32Z"/><path class="ka294-4" d="M9,32v1h1V32Z"/><path class="ka294-4" d="M7,31H8V30H7Z"/><path class="ka294-4" d="M21,32h1V31H21Z"/><rect class="ka294-2" x="20" y="15" width="1" height="1"/><rect class="ka294-5" x="15" y="20" width="1" height="1"/><rect class="ka294-5" x="18" y="12" width="1" height="1"/><path class="ka294-5" d="M12,13h2v1h1V13h1V12h2V11H11v1h1Z"/><rect class="ka294-5" x="9" y="15" width="1" height="1"/><rect class="ka294-5" x="19" y="15" width="1" height="1"/><path class="ka294-5" d="M16,16V15H13v1H10v2h1v1h1V18h2v1h1V18h2v1h1V18h1V16H16Zm-1,1H14V16h1Z"/><rect class="ka294-5" x="13" y="20" width="1" height="1"/><path class="ka294-2" d="M16,23v1h1V22H16Z"/><rect class="ka294-2" x="8" y="15" width="1" height="1"/><rect class="ka294-2" x="14" y="16" width="1" height="1"/><path class="ka294-6" d="M16,13h2V12H16Z"/><path class="ka294-6" d="M12,12H10v1h2Z"/><path class="ka294-7" d="M15,18v1h1V18Z"/><path class="ka294-7" d="M13,23h3V22h2V21h1V20h1V16H19v2H18v1H16v2H15V20H14v1H13V19h1V18H12v1H11V18H10V16H9v4h1v1h1v1h2Z"/><path class="ka294-2" d="M14,19H13v1h3V19H14Z"/><path class="ka294-2" d="M16,18v1h1V18Z"/><path class="ka294-5" d="M21,27h1V24H21v1H20v2Z"/><path class="ka294-2" d="M20,27V25H19v2Z"/><rect class="ka294-2" x="20" y="24" width="1" height="1"/><rect class="ka294-2" x="21" y="23" width="1" height="1"/><path class="ka294-5" d="M7,27H9V25H8V24H7v3Z"/><path class="ka294-2" d="M10,27V25H9v2Z"/><rect class="ka294-2" x="8" y="24" width="1" height="1"/><rect class="ka294-2" x="7" y="23" width="1" height="1"/><path class="ka294-8" d="M10,13V12h1V11h7v1h1v2h1V13h1V9H20V8H19V7H18V6H11V7H10V8H9V9H8v4H9v1h1Z"/><path class="ka294-9" d="M13,16V15h1V14H10v2h3Z"/><path class="ka294-9" d="M19,14H15v1h1v1h3V14Z"/><path class="ka294-2" d="M17,13H15v1h4V13H17Z"/><path class="ka294-2" d="M14,14V13H10v1h4Z"/><path class="ka294-2" d="M19,15h1V14H19Z"/><path class="ka294-2" d="M10,14H9v1h1Z"/><path class="ka294-2" d="M14,15h1V14H14Z"/></svg>