<svg xmlns="http://www.w3.org/2000/svg" viewBox="0 0 29 33"><defs><style>polygon,rect,path{shape-rendering:crispedges;}.ba292-1{fill:#29834f;}.ba292-2{fill:#000000;}.ba292-3{fill:#efcaaf;}.ba292-4{fill:#9b8100;}.ba292-5{fill:#ffffff;}.ba292-6{fill:#ffffff;}.ba292-7{fill:#8e4717;}.ba292-8{fill:#8e4717;}.ba292-9{fill:#e70059;}.ba292-10{fill:#db5800;}.ba292-11{fill:#ff1f4a;}.ba292-12{fill:#560000;}</style></defs><path class="ba292-1" d="M11,24h1V21H9v2H8v2h2V24Z"/><rect class="ba292-1" x="8" y="20" width="1" height="1"/><path class="ba292-1" d="M0,33H8V32H6V31H5V23H4V20H5V19H7v1H8V19H9V16H8V15H9V11h1V10h1V9h7v1h1v1h1v4h1v1H20v3h1v1H20v1H17v3h2v1h2v1h1v1h1v6h6V0H0Z"/><path class="ba292-2" d="M23,27H22v6h1V27Z"/><rect class="ba292-2" x="21" y="26" width="1" height="1"/><path class="ba292-3" d="M22,27H21v6h1V27Z"/><rect class="ba292-3" x="20" y="26" width="1" height="1"/><path class="ba292-2" d="M21,27H20v6h1V27Z"/><path class="ba292-2" d="M20,26h1V25H19v1Z"/><rect class="ba292-4" x="10" y="30" width="1" height="1"/><path class="ba292-4" d="M17,30h1V29h1v1h1V26H19V25H18v1H17v1H16v1H13V27H12V26H11V25H10v1H9v4h1V29h1v1h1v3h1V29h2v1h1v2H15v1h2V30Z"/><rect class="ba292-4" x="18" y="30" width="1" height="1"/><path class="ba292-4" d="M14,31v1h1V30H14Z"/><rect class="ba292-4" x="10" y="32" width="1" height="1"/><rect class="ba292-4" x="18" y="32" width="1" height="1"/><path class="ba292-2" d="M11,24H10v1h1v1h1V24Z"/><path class="ba292-3" d="M8,27H9V26H8Z"/><path class="ba292-2" d="M9,30V27H8V26h2V25H8V23H7v8H6v1H8v1H9V30Z"/><path class="ba292-3" d="M7,30V23H8V21H7V20H5v3H6v8H7Z"/><path class="ba292-2" d="M6,23H5v8H6V23Z"/><rect class="ba292-2" x="12" y="26" width="1" height="1"/><rect class="ba292-2" x="16" y="26" width="1" height="1"/><path class="ba292-2" d="M18,26V25h1V24H17v2Z"/><path class="ba292-2" d="M13,27v1h3V27H13Z"/><path class="ba292-3" d="M16,23H13v1H12v2h1v1h3V26h1V24H16Z"/><path class="ba292-5" d="M20,30H19v1H18V30H17v3h1V32h1v1h1V30Z"/><rect class="ba292-5" x="18" y="29" width="1" height="1"/><path class="ba292-5" d="M16,32V30H15v2Z"/><path class="ba292-5" d="M14,32V30h1V29H13v4h2V32Z"/><path class="ba292-5" d="M12,30H11v1H10V30H9v3h1V32h1v1h1V30Z"/><rect class="ba292-5" x="10" y="29" width="1" height="1"/><rect class="ba292-2" x="20" y="15" width="1" height="1"/><path class="ba292-2" d="M19,15h1V14H19Z"/><rect class="ba292-3" x="9" y="15" width="1" height="1"/><path class="ba292-3" d="M15,10v5H14v1h1v1H14V16H13v1H11V16H10v2h1v1h1V18h5v1h1V18h1V16h1V15H16V14h2V13H16V12h2v1h1V11H18V10H15Z"/><path class="ba292-3" d="M17,19H16v1H13V19H12v2h1v1h3V21h1V19Z"/><path class="ba292-2" d="M17,20v1h1V20Z"/><path class="ba292-2" d="M16,22H13V21H12v3h1V23h3v1h1V21H16Z"/><path class="ba292-2" d="M12,20H11v1h1Z"/><rect class="ba292-2" x="8" y="15" width="1" height="1"/><rect class="ba292-2" x="14" y="16" width="1" height="1"/><path class="ba292-6" d="M18,14v1h1V14Z"/><path class="ba292-6" d="M16,14v1h1V14Z"/><path class="ba292-2" d="M17,14v1h1V14Z"/><rect class="ba292-7" x="18" y="13" width="1" height="1"/><rect class="ba292-7" x="16" y="12" width="2" height="1"/><path class="ba292-8" d="M19,17v1H18v1H17v1h1v1h2V20h1V19H20V16H19Z"/><path class="ba292-8" d="M9,21h2V20h1V19H11V18H10V16H9v3H8v1H9Z"/><path class="ba292-2" d="M13,18H12v1h1Z"/><path class="ba292-2" d="M17,19V18H16v1Z"/><path class="ba292-2" d="M15,20h1V19H15Z"/><path class="ba292-2" d="M15,19V18H14v1Z"/><path class="ba292-2" d="M13,19v1h1V19Z"/><path class="ba292-6" d="M14,19V18H13v1Z"/><path class="ba292-6" d="M16,19V18H15v1Z"/><path class="ba292-9" d="M14,19v1h1V19Z"/><path class="ba292-2" d="M9,21H8v2H9Z"/><rect class="ba292-2" x="7" y="20" width="1" height="1"/><rect class="ba292-2" x="5" y="19" width="2" height="1"/><path class="ba292-2" d="M5,20H4v3H5V20Z"/><path class="ba292-10" d="M19,14h1V11H19v3Z"/><rect class="ba292-10" x="18" y="10" width="1" height="1"/><path class="ba292-10" d="M16,10h2V9H15v1Z"/><path class="ba292-11" d="M11,15h2V13H11v2Z"/><path class="ba292-12" d="M14,15V13H13v2Z"/><path class="ba292-12" d="M12,15H11v1h2V15Z"/><path class="ba292-12" d="M11,14V13H10v2h1Z"/><path class="ba292-12" d="M13,12H11v1h2Z"/><rect class="ba292-2" x="10" y="15" width="1" height="1"/><rect class="ba292-2" x="11" y="16" width="2" height="1"/><rect class="ba292-2" x="13" y="15" width="1" height="1"/><path class="ba292-2" d="M10,14V13h1V12h2v1h1v2h1V9H11v1H10v1H9v4h1Z"/></svg>