<svg xmlns="http://www.w3.org/2000/svg" viewBox="0 0 29 33"><defs><style>polygon,rect,path{shape-rendering:crispedges;}.ka94-1{fill:#31a09d;}.ka94-2{fill:#000000;}.ka94-3{fill:#ff6aa5;}.ka94-4{fill:#00774c;}.ka94-5{fill:#c18d59;}.ka94-6{fill:#b23b00;}.ka94-7{fill:#b23b00;}.ka94-8{fill:#317f03;}</style></defs><path class="ka94-1" d="M0,33H6V27H7V26H8V25h2V24h2V21H9V20H8V19H9V16H8V15H9V13H8V9H9V8h1V7h1V6h7V7h1V8h1V9h1v4H20v2h1v1H20v3h1v1H20v1H17v3h2v1h2v1h1v1h1v6h6V0H0Z"/><path class="ka94-2" d="M23,27H22v6h1V27Z"/><rect class="ka94-2" x="21" y="26" width="1" height="1"/><path class="ka94-3" d="M21,31h1V30H21Z"/><path class="ka94-3" d="M21,28h1V27H21Z"/><path class="ka94-2" d="M21,30V27H20v6h1V30Z"/><path class="ka94-2" d="M20,26h1V25H19v1Z"/><path class="ka94-3" d="M9,31H20V30H9Z"/><path class="ka94-3" d="M9,27v1H20V27H9Z"/><path class="ka94-3" d="M17,25V24H12v1Z"/><path class="ka94-2" d="M18,25h1V24H17v1Z"/><path class="ka94-2" d="M13,23h3v1h1V21H16v1H13V21H12v3h1Z"/><path class="ka94-2" d="M12,24H10v1h2Z"/><path class="ka94-2" d="M10,25H8v1h2Z"/><path class="ka94-2" d="M9,30V27H8v6H9V30Z"/><rect class="ka94-2" x="7" y="26" width="1" height="1"/><path class="ka94-3" d="M7,31H8V30H7Z"/><path class="ka94-3" d="M8,28V27H7v1Z"/><path class="ka94-2" d="M7,30V27H6v6H7V30Z"/><path class="ka94-4" d="M9,31v2H20V31Z"/><path class="ka94-4" d="M9,29v1H20V28H9Z"/><path class="ka94-4" d="M9,27H21V26H19V25H10v1H8v1Z"/><path class="ka94-4" d="M15,23H13v1h3V23Z"/><path class="ka94-4" d="M7,29v1H8V28H7Z"/><path class="ka94-4" d="M7,31v2H8V31Z"/><path class="ka94-4" d="M21,31v2h1V31Z"/><path class="ka94-4" d="M21,29v1h1V28H21Z"/><rect class="ka94-2" x="20" y="15" width="1" height="1"/><rect class="ka94-5" x="19" y="15" width="1" height="1"/><path class="ka94-5" d="M16,13V12h2V11H11v1h1v1h1v1h5V13Z"/><path class="ka94-5" d="M10,13v1h2V13Z"/><path class="ka94-5" d="M13,22h3V21h1V19h1V18h1V16H18v1H16V16H15v1H14V16H13v1H11V16H10v2h1v1h1v2h1Zm1-3h1v1H14Z"/><rect class="ka94-5" x="9" y="15" width="1" height="1"/><rect class="ka94-5" x="14" y="15" width="1" height="1"/><rect class="ka94-5" x="18" y="12" width="1" height="1"/><path class="ka94-2" d="M17,20v1h1V20Z"/><path class="ka94-2" d="M11,20v1h1V20Z"/><rect class="ka94-2" x="8" y="15" width="1" height="1"/><rect class="ka94-2" x="14" y="16" width="1" height="1"/><rect class="ka94-6" x="18" y="13" width="1" height="1"/><rect class="ka94-6" x="16" y="12" width="2" height="1"/><rect class="ka94-6" x="12" y="13" width="1" height="1"/><path class="ka94-6" d="M12,12H10v1h2Z"/><path class="ka94-7" d="M19,17v1H18v1H17v1h1v1h2V20h1V19H20V16H19Z"/><path class="ka94-7" d="M12,20V19H11V18H10V16H9v3H8v1H9v1h2V20Z"/><rect class="ka94-2" x="14" y="19" width="1" height="1"/><path class="ka94-8" d="M10,13V12h1V11h7v1h1v2h1V13h1V9H20V8H19V7H18V6H11V7H10V8H9V9H8v4H9v1h1Z"/><path class="ka94-2" d="M10,16h1v1h2V16h1V15h1v1h1v1h2V16h1V15h1V14H9v1h1Z"/></svg>