<svg xmlns="http://www.w3.org/2000/svg" viewBox="0 0 29 33"><defs><style>polygon,rect,path{shape-rendering:crispedges;}.ea171-1{fill:#b4bd09;}.ea171-2{fill:#000000;}.ea171-3{fill:#b23b00;}.ea171-4{fill:#efcaaf;}.ea171-5{fill:#ff791f;}.ea171-6{fill:#ffffff;}.ea171-7{fill:#004a77;}.ea171-8{fill:#004a77;}.ea171-9{fill:#e70059;}.ea171-10{fill:#fad000;}</style></defs><path class="ea171-1" d="M6,27H7V26H8V25h2V24h2V21H9V20H8V19H9V16H8V15H9V11h1V10h1V9h7v1h1v1h1v4h1v1H20v3h1v1h1V14h1V9H22V8h1V7H22V6H21V5H20V3H19V0H0V33H6V27Z"/><path class="ea171-1" d="M21,20H20v1H17v3h2v1h2V20Z"/><path class="ea171-1" d="M28,3H27V5H26V6H25V7H24V8h1V9H24v5H23v6H22v1h1v1h1v9H23v1H21v1h8V0H28Z"/><rect class="ea171-2" x="7" y="26" width="1" height="1"/><path class="ea171-2" d="M9,27H8v3H7V27H6v6H7V31H8v2H9V27Z"/><path class="ea171-2" d="M8,26h2V25H8Z"/><path class="ea171-2" d="M11,24H10v1h2V24Z"/><path class="ea171-2" d="M13,23h3v1h1V21H16v1H13V21H12v3h1Z"/><path class="ea171-2" d="M18,24H17v1h2V24Z"/><path class="ea171-2" d="M22,32h1V31H22V23H21v2H19v1h2v1H20v6h1V32Z"/><path class="ea171-2" d="M23,31h1V22H23v9Z"/><path class="ea171-3" d="M20,27h1V26H19V25H17v1H16v1H13V26H12V25H10v1H8v1H9v6h1V30h1V29h1V28h5v1h1v1h1v3h1V27Z"/><rect class="ea171-3" x="16" y="30" width="1" height="1"/><path class="ea171-3" d="M16,32H12v1h5V32Z"/><rect class="ea171-3" x="12" y="30" width="1" height="1"/><path class="ea171-2" d="M13,26v1h3V26H13Z"/><path class="ea171-4" d="M16,24V23H13v1H12v1h1v1h3V25h1V24Z"/><path class="ea171-3" d="M7,28v2H8V27H7Z"/><path class="ea171-4" d="M7,31v2H8V31Z"/><rect class="ea171-2" x="16" y="25" width="1" height="1"/><rect class="ea171-2" x="12" y="25" width="1" height="1"/><path class="ea171-5" d="M19,30H18V29H17V28H12v1H11v1H10v3h2V32h5v1h2V30Zm-6,1H12V30h1Zm4,0H16V30h1Z"/><rect class="ea171-2" x="20" y="15" width="1" height="1"/><path class="ea171-2" d="M19,13v2h1V11H19v2Z"/><path class="ea171-4" d="M18,14h1V13H17v1Z"/><path class="ea171-4" d="M13,22h3V21h1V19H16v1H13V19H12v2h1Z"/><path class="ea171-4" d="M10,17v1h1v1h1V18h5v1h1V18h1V16h1V15H16V13h1V12h2V11H18V10H11v1H10v2h1V12h2v1H11v1h2v1H9v1h1Zm4-1h1v1H14Z"/><rect class="ea171-2" x="18" y="10" width="1" height="1"/><path class="ea171-2" d="M17,20v1h1V20Z"/><path class="ea171-2" d="M18,10V9H11v1h7Z"/><path class="ea171-2" d="M11,20v1h1V20Z"/><rect class="ea171-2" x="10" y="10" width="1" height="1"/><path class="ea171-2" d="M10,14V11H9v4h1Z"/><rect class="ea171-2" x="8" y="15" width="1" height="1"/><rect class="ea171-2" x="14" y="16" width="1" height="1"/><path class="ea171-6" d="M13,15V14H12v1Z"/><path class="ea171-6" d="M10,15h1V14H10Z"/><path class="ea171-6" d="M18,14v1h1V14Z"/><path class="ea171-6" d="M16,14v1h1V14Z"/><path class="ea171-2" d="M12,15V14H11v1Z"/><path class="ea171-2" d="M17,14v1h1V14Z"/><path class="ea171-7" d="M11,14V13H10v1Z"/><rect class="ea171-7" x="11" y="12" width="2" height="1"/><path class="ea171-7" d="M17,13H16v1h1Z"/><path class="ea171-7" d="M19,12H17v1h2Z"/><path class="ea171-8" d="M19,17v1H18v1H17v1h1v1h2V20h1V19H20V16H19Z"/><path class="ea171-8" d="M12,20V19H11V18H10V16H9v3H8v1H9v1h2V20Z"/><path class="ea171-2" d="M12,18v1h1V18Z"/><path class="ea171-2" d="M16,18v1h1V18Z"/><path class="ea171-2" d="M15,20h1V19H15Z"/><path class="ea171-2" d="M15,19V18H14v1Z"/><path class="ea171-2" d="M13,19v1h1V19Z"/><path class="ea171-6" d="M14,18H13v1h1Z"/><path class="ea171-6" d="M15,18v1h1V18Z"/><path class="ea171-9" d="M14,19v1h1V19Z"/><path class="ea171-6" d="M23,9v5h1V8H23Z"/><rect class="ea171-6" x="22" y="14" width="1" height="6"/><path class="ea171-6" d="M21,22h1V20H21Z"/><rect class="ea171-10" x="22" y="8" width="1" height="1"/><path class="ea171-10" d="M25,9V8H24V9Z"/><path class="ea171-10" d="M20,3V5h1V6h1V7h1V8h1V7h1V6h1V5h1V3h1V0H19V3Z"/><path class="ea171-4" d="M21,22v1h1v8h1V22H21Z"/><path class="ea171-2" d="M23,22V21H22v1Z"/></svg>