<svg xmlns="http://www.w3.org/2000/svg" viewBox="0 0 29 33"><defs><style>polygon,rect,path{shape-rendering:crispedges;}.hb153-1{fill:#7a982c;}.hb153-2{fill:#000000;}.hb153-3{fill:#c18d59;}.hb153-4{fill:#ffffff;}.hb153-5{fill:#663228;}.hb153-6{fill:#5a2de2;}.hb153-7{fill:#dbc6d2;}.hb153-8{fill:#ccc;}</style></defs><path class="hb153-1" d="M6,32V27H7V26H8V25h2V24h2V21H11V20H10V19H9V18H7V14H8V11H9V10h1V9h1V8h7V9h1v1h1v1h1v3h1v4H20v1H19v1H18v1H17v3h2v1h2v1h1v1h1v6h6V0H0V33H6Z"/><path class="hb153-2" d="M23,27H22v6h1V27Z"/><path class="hb153-3" d="M22,27H21v6h1V27Z"/><rect class="hb153-2" x="21" y="26" width="1" height="1"/><path class="hb153-2" d="M21,27H20v6h1V27Z"/><path class="hb153-3" d="M20,27h1V26H19V25H17V24H16V23H13v1H12v1H10v1H8v1H9v6h5V29h1v4h5V27Zm-8,2H11V28h1Zm6,0H17V28h1Z"/><path class="hb153-2" d="M20,26h1V25H19v1Z"/><rect class="hb153-2" x="17" y="28" width="1" height="1"/><path class="hb153-2" d="M18,25h1V24H17v1Z"/><path class="hb153-2" d="M15,29H14v4h1V29Z"/><path class="hb153-2" d="M13,23h3v1h1V21H16v1H13V21H12v3h1Z"/><rect class="hb153-2" x="11" y="28" width="1" height="1"/><path class="hb153-2" d="M12,24H10v1h2Z"/><path class="hb153-2" d="M10,25H8v1h2Z"/><path class="hb153-2" d="M9,27H8v6H9V27Z"/><path class="hb153-3" d="M8,27H7v6H8V27Z"/><rect class="hb153-2" x="7" y="26" width="1" height="1"/><path class="hb153-2" d="M7,27H6v6H7V27Z"/><path class="hb153-3" d="M13,20v2h3V20Z"/><path class="hb153-3" d="M12,19V18h5v2h1V19h1V17H18V16H16V15H15v2H14V15H10v4h1v1h1Z"/><path class="hb153-2" d="M19,17v2h1V17Z"/><rect class="hb153-2" x="18" y="19" width="1" height="1"/><rect class="hb153-2" x="17" y="20" width="1" height="1"/><rect class="hb153-2" x="11" y="20" width="1" height="1"/><rect class="hb153-2" x="10" y="19" width="1" height="1"/><path class="hb153-2" d="M9,17v2h1V17Z"/><path class="hb153-2" d="M14,17h1V16H14Z"/><path class="hb153-4" d="M12,14v1h1V14Z"/><path class="hb153-4" d="M10,14v1h1V14Z"/><path class="hb153-2" d="M11,14v1h1V14Z"/><rect class="hb153-5" x="12" y="13" width="1" height="1"/><path class="hb153-6" d="M13,20V19h3V18H12v3h1Z"/><path class="hb153-6" d="M17,19H16v2h1V19Z"/><path class="hb153-2" d="M16,19H13v1h3Z"/><path class="hb153-2" d="M17,18H16v1h1Z"/><path class="hb153-7" d="M9,14h3V13h1v2h1v1h1V15h1v1h2v1h1V14h1V11H19V10H18V9H11v1H10v1H9v3Z"/><path class="hb153-4" d="M9,16V11H8v3H7v3H8v1H9V16Z"/><rect class="hb153-4" x="9" y="10" width="1" height="1"/><rect class="hb153-4" x="10" y="9" width="1" height="1"/><path class="hb153-4" d="M18,9V8H11V9h7Z"/><rect class="hb153-4" x="18" y="9" width="1" height="1"/><rect class="hb153-4" x="19" y="10" width="1" height="1"/><path class="hb153-8" d="M9,14v3h1V14Z"/><path class="hb153-4" d="M20,14v4h1V17h1V14H21V11H20v3Z"/><path class="hb153-8" d="M20,16V14H19v3h1Z"/><path class="hb153-8" d="M7,17v1H8V17Z"/><path class="hb153-8" d="M21,18h1V17H21Z"/></svg>