<svg xmlns="http://www.w3.org/2000/svg" viewBox="0 0 29 33"><defs><style>polygon,rect,path{shape-rendering:crispedges;}.ma138-1{fill:#7a982c;}.ma138-2{fill:#000000;}.ma138-3{fill:#99ce09;}.ma138-4{fill:#68aaad;}.ma138-5{fill:#efcaaf;}.ma138-6{fill:#ffb3c0;}.ma138-7{fill:#ffffff;}.ma138-8{fill:#492a23;}.ma138-9{fill:#5a2de2;}.ma138-10{fill:#99004d;}.ma138-11{fill:#ff1d99;}.ma138-12{fill:#e281bf;}.ma138-13{fill:#9dba8b;}</style></defs><rect class="ma138-1" x="9" y="20" height="1"/><path class="ma138-1" d="M12,21H9v4h1V24h2V21Z"/><path class="ma138-1" d="M0,33H6V25H7V24H8V21H8v1H7v1H6v1H3V23H2V22H1V19H2V18H3V17H6v1H7v1H8v1H8V19H9V16H8V15H9V11h1V9h1V7h1V6H11V5h2V6h2V7h1V9h2v1h1v1h1v4h1v1H20v3h1v1H20v1H17v3h2v1h2v1h1v1h1v6h6V0H0Z"/><path class="ma138-2" d="M23,27H22v6h1V27Z"/><path class="ma138-3" d="M21,31h1V30H21Z"/><path class="ma138-3" d="M21,28h1V27H21Z"/><rect class="ma138-2" x="21" y="26" width="1" height="1"/><path class="ma138-2" d="M21,31V27H20v6h1V31Z"/><path class="ma138-3" d="M18,28h2V27H18Z"/><path class="ma138-3" d="M18,31h2V30H18Z"/><path class="ma138-2" d="M20,26h1V25H19v1Z"/><path class="ma138-2" d="M18,31V25h1V24H17v1H16v1h1v7h1V31Z"/><path class="ma138-4" d="M17,26H16v1H13V26H12v7h5V26Z"/><path class="ma138-2" d="M13,26v1h3V26H13Z"/><path class="ma138-5" d="M16,23H13v1H12v1h1v1h3V25h1V24H16Z"/><path class="ma138-2" d="M12,26h1V25H12V24H10v1h1v8h1V26Z"/><path class="ma138-3" d="M9,31h2V30H9Z"/><path class="ma138-3" d="M9,28h2V27H9Z"/><rect class="ma138-2" x="9" y="25" width="1" height="1"/><path class="ma138-2" d="M9,31V27H8v6H9V31Z"/><path class="ma138-3" d="M7,31H8V30H7Z"/><path class="ma138-3" d="M7,28H8V27H7Z"/><path class="ma138-5" d="M8,27V26H9V25H7v2Z"/><path class="ma138-2" d="M7,31V25H6v8H7V31Z"/><path class="ma138-6" d="M11,31H9v2h2V31Z"/><path class="ma138-6" d="M20,31H18v2h2V31Z"/><path class="ma138-6" d="M18,29v1h2V28H18Z"/><path class="ma138-6" d="M9,29v1h2V28H9Z"/><path class="ma138-6" d="M18,26v1h3V26H19V25H18Z"/><path class="ma138-6" d="M9,26H8v1h3V25H10v1Z"/><path class="ma138-6" d="M7,29v1H8V28H7Z"/><path class="ma138-6" d="M8,31H7v2H8V31Z"/><path class="ma138-6" d="M22,31H21v2h1V31Z"/><path class="ma138-6" d="M21,29v1h1V28H21Z"/><rect class="ma138-2" x="20" y="15" width="1" height="1"/><path class="ma138-2" d="M19,14v1h1V11H19v3Z"/><path class="ma138-5" d="M10,14h2V13H10Z"/><path class="ma138-5" d="M10,17v1h1v1h1v2h1v1h3V21h1V19H16v1H13V19h3V18h1v1h1V18h1V16h1V15H16V14h2V13H16V12h2v1h1V11H18V10H16v1H14V10H11v1H10v1h2v1h1v2H9v1h1Zm4-1h1v1H14Z"/><rect class="ma138-2" x="18" y="10" width="1" height="1"/><path class="ma138-2" d="M17,20v1h1V20Z"/><path class="ma138-2" d="M16,22H13V21H12v3h1V23h3v1h1V21H16Z"/><path class="ma138-2" d="M17,10h1V9H16v1Z"/><path class="ma138-2" d="M12,10h1V9H11v1Z"/><path class="ma138-2" d="M12,20H11v1h1Z"/><path class="ma138-2" d="M11,10H10v1h1Z"/><rect class="ma138-2" x="8" y="15" width="1" height="1"/><rect class="ma138-2" x="14" y="16" width="1" height="1"/><path class="ma138-7" d="M18,14v1h1V14Z"/><path class="ma138-7" d="M12,15h1V14H12Z"/><path class="ma138-2" d="M17,14H16v1h2V14Z"/><path class="ma138-2" d="M12,15V14H10V11H9v4h3Z"/><path class="ma138-8" d="M19,13H18v1h1Z"/><rect class="ma138-8" x="16" y="12" width="2" height="1"/><path class="ma138-8" d="M13,14V13H12v1Z"/><path class="ma138-8" d="M12,13V12H10v1Z"/><path class="ma138-9" d="M19,17v1H18v1H17v1h1v1h2V20h1V19H20V16H19Z"/><path class="ma138-9" d="M10,20v1h1V20h1V19H11V18H10V16H9v4Z"/><rect class="ma138-2" x="13" y="19" width="3" height="1"/><rect class="ma138-2" x="16" y="18" width="1" height="1"/><path class="ma138-10" d="M13,10h1v1h2V7H15V6H13V5H11V6h1V7H11V9h2Z"/><path class="ma138-10" d="M11,9H10v1h1Z"/><path class="ma138-11" d="M10,20H9v1h1Z"/><path class="ma138-11" d="M9,20V19H8v1Z"/><rect class="ma138-12" x="7" y="20" width="1" height="1"/><path class="ma138-11" d="M9,25V21H8v4Z"/><path class="ma138-2" d="M8,24H7v1H8Z"/><rect class="ma138-13" x="2" y="18" width="1" height="1"/><path class="ma138-13" d="M7,20H8V19H7V18H6V17H3v1H5v1H3v1H2V19H1v3H2v1H3v1H6V23H7V22H8V21H7Z"/><polygon class="ma138-13" points="9 20 8 20 8 20 8 21 8 21 9 21 9 20"/><rect class="ma138-7" x="2" y="19" width="1" height="1"/><path class="ma138-7" d="M4,19H5V18H3v1Z"/><rect class="ma138-10" x="10" y="9" width="1" height="1"></rect></svg>