<svg xmlns="http://www.w3.org/2000/svg" viewBox="0 0 29 33"><defs><style>polygon,rect,path{shape-rendering:crispedges;}.eb49-1{fill:#6b4f99;}.eb49-2{fill:#000000;}.eb49-3{fill:#3e5e00;}.eb49-4{fill:#b23b00;}.eb49-5{fill:#e8b795;}.eb49-6{fill:#90a2a3;}.eb49-7{fill:#ffffff;}.eb49-8{fill:#00774c;}.eb49-9{fill:#00774c;}.eb49-10{fill:#5a2de2;}</style></defs><path class="eb49-1" d="M6,32V27H7V26H8V25H9V24h1V23h1V21H10V20H9V18H8V12H9V11h1V10h1V9h7v1h1v1h1v2h1v5H20v2H19v1H18v2h1v1h1v1h1v1h1v1h1v6h6V0H0V33H6Z"/><path class="eb49-2" d="M23,27H22v6h1V27Z"/><path class="eb49-3" d="M22,27H21v6h1V27Z"/><path class="eb49-2" d="M21,27h1V26H21V25H20v2H17v1h2v1h1v4h1V27Z"/><rect class="eb49-2" x="19" y="24" width="1" height="1"/><path class="eb49-3" d="M20,29H19v1H18v1H17v1H16v1h4V29Z"/><rect class="eb49-2" x="18" y="23" width="1" height="1"/><path class="eb49-3" d="M18,25H17v1H16v5h1V30h1V29h1V28H17V27h2V26h1V25H19V24H18Z"/><path class="eb49-2" d="M17,23h1V22H17Z"/><rect class="eb49-3" x="17" y="23" width="1" height="1"/><rect class="eb49-2" x="17" y="24" width="1" height="1"/><rect class="eb49-2" x="18" y="29" width="1" height="1"/><rect class="eb49-2" x="16" y="23" width="1" height="1"/><rect class="eb49-2" x="16" y="25" width="1" height="1"/><path class="eb49-4" d="M15,27H14v6h1V27Z"/><rect class="eb49-2" x="12" y="23" width="1" height="1"/><path class="eb49-5" d="M17,25V24H16V23H13v1H12v1h1v1h3V25Z"/><rect class="eb49-2" x="12" y="25" width="1" height="1"/><path class="eb49-3" d="M12,32V31H11V30H10V29H9v4h4V32Z"/><path class="eb49-2" d="M12,22H11v1h1Z"/><rect class="eb49-3" x="11" y="23" width="1" height="1"/><rect class="eb49-2" x="11" y="24" width="1" height="1"/><rect class="eb49-2" x="11" y="30" width="1" height="1"/><rect class="eb49-2" x="10" y="23" width="1" height="1"/><rect class="eb49-2" x="9" y="24" width="1" height="1"/><path class="eb49-3" d="M10,26v1h2v1H10v1h1v1h1v1h1V26H12V25H11V24H10v1H9v1Z"/><path class="eb49-2" d="M9,29h1V28h2V27H9V25H8v1H7v1H8v6H9V29Z"/><path class="eb49-3" d="M8,27H7v6H8V27Z"/><path class="eb49-2" d="M7,27H6v6H7V27Z"/><rect class="eb49-2" x="10" y="29" width="1" height="1"/><rect class="eb49-2" x="17" y="30" width="1" height="1"/><path class="eb49-2" d="M17,32V31H16V26H13v5H12v1h1v1h1V27h1v6h1V32Z"/><path class="eb49-6" d="M9,26v1h1V26Z"/><path class="eb49-6" d="M19,27h1V26H19Z"/><rect class="eb49-5" x="11" y="13" width="1" height="1"/><rect class="eb49-5" x="9" y="15" width="1" height="1"/><rect class="eb49-5" x="17" y="13" width="1" height="1"/><rect class="eb49-5" x="16" y="12" width="1" height="1"/><rect class="eb49-5" x="11" y="11" width="1" height="1"/><rect class="eb49-5" x="19" y="15" width="1" height="1"/><path class="eb49-5" d="M18,15H17v2H16V15H15V11H14v1H13v2h1v2h1v1H14V16H13V15H11v3h5v1h1V18h1V15Z"/><rect class="eb49-2" x="9" y="14" width="1" height="1"/><rect class="eb49-2" x="14" y="16" width="1" height="1"/><path class="eb49-7" d="M13,15V14H12v1Z"/><rect class="eb49-7" x="16" y="14" width="1" height="1"/><path class="eb49-2" d="M12,14H11v1h1Z"/><rect class="eb49-2" x="17" y="14" width="1" height="1"/><rect class="eb49-8" x="11" y="12" width="1" height="1"/><rect class="eb49-8" x="16" y="13" width="1" height="1"/><rect class="eb49-8" x="17" y="12" width="1" height="1"/><path class="eb49-9" d="M15,18H13v1h3V18Z"/><path class="eb49-9" d="M19,16v2h1V16Z"/><path class="eb49-9" d="M12,23h5V22h1V21h1V18H17v1H16v1H13V19H12V18H10v3h1v1h1Z"/><path class="eb49-9" d="M10,17V16H9v2h1Z"/><rect class="eb49-2" x="13" y="19" width="3" height="1"/><path class="eb49-2" d="M12,18v1h1V18Z"/><path class="eb49-10" d="M9,15V14h1v4h1V11h1v3h1V12h1V11h1v4h1V12h2v6h1V15h1v3h1V13H20V11H19V10H18V9H11v1H10v1H9v1H8v6H9V15Z"/><path class="eb49-10" d="M9,18v2h1V18Z"/><path class="eb49-10" d="M13,16h1V14H13v2Z"/><path class="eb49-10" d="M17,17V15H16v2Z"/><path class="eb49-10" d="M19,19v1h1V18H19Z"/></svg>