<svg xmlns="http://www.w3.org/2000/svg" viewBox="0 0 29 33"><defs><style>polygon,rect,path{shape-rendering:crispedges;}.ea2-1{fill:#7a982c;}.ea2-2{fill:#000000;}.ea2-3{fill:#184144;}.ea2-4{fill:#e8b795;}.ea2-5{fill:#c6e5e4;}.ea2-6{fill:#492a23;}.ea2-7{fill:#00686d;}.ea2-8{fill:#c8a715;}.ea2-9{fill:#004a77;}.ea2-10{fill:#db5800;}</style></defs><path class="ea2-1" d="M6,32V27H7V26H8V25h2V20H9V16H8V15H9V11h1V10h1V9h7v1h1v1h1v4h1v1H20v4H19v5h2v1h1v1h1v6h6V0H0V33H6Z"/><path class="ea2-1" d="M12,22H11v2h1V22Z"/><path class="ea2-1" d="M18,24V22H17v2Z"/><path class="ea2-2" d="M23,27H22v3H21V27H20v6h1V31h1v2h1V27Z"/><rect class="ea2-2" x="21" y="26" width="1" height="1"/><path class="ea2-3" d="M21,28v2h1V27H21Z"/><path class="ea2-4" d="M21,31v2h1V31Z"/><path class="ea2-2" d="M20,26h1V25H19v1Z"/><rect class="ea2-3" x="12" y="30" width="1" height="1"/><rect class="ea2-3" x="16" y="30" width="1" height="1"/><path class="ea2-3" d="M16,32H12v1h5V32Z"/><path class="ea2-3" d="M20,27h1V26H19V25H17v1H16v1H13V26H12V25H10v1H8v1H9v6h1V30h1V29h1V28h5v1h1v1h1v3h1V27Z"/><path class="ea2-2" d="M17,24v1h2V24H17Z"/><rect class="ea2-2" x="16" y="25" width="1" height="1"/><path class="ea2-2" d="M13,26v1h3V26H13Z"/><path class="ea2-4" d="M16,24V23H13v3h3V24Z"/><path class="ea2-2" d="M12,25v1h1V25Z"/><path class="ea2-2" d="M12,24H10v1h2Z"/><path class="ea2-2" d="M10,25H8v1h2Z"/><path class="ea2-2" d="M9,27H8v3H7V27H6v6H7V31H8v2H9V27Z"/><rect class="ea2-2" x="7" y="26" width="1" height="1"/><path class="ea2-3" d="M7,30H8V27H7v3Z"/><path class="ea2-4" d="M7,31v2H8V31Z"/><path class="ea2-5" d="M19,30H18V29H17V28H12v1H11v1H10v3h2V32h5v1h2V30Zm-6,1H12V30h1Zm4,0H16V30h1Z"/><rect class="ea2-2" x="20" y="15" width="1" height="1"/><path class="ea2-4" d="M18,16H16V15H13v1H10v2h1v1h1V18h2v1h1V18h2v1h1V18h1V16Zm-3,1H14V16h1Z"/><rect class="ea2-4" x="9" y="15" width="1" height="1"/><path class="ea2-4" d="M11,13V12h2v1h1v1h1V13h2V12h2V11H18V10H11v1H10v2Z"/><polygon class="ea2-4" points="13 21 14 21 14 22 15 22 15 21 16 21 16 20 13 20 13 21"/><rect class="ea2-4" x="19" y="15" width="1" height="1"/><path class="ea2-2" d="M19,17h1V16H19Z"/><path class="ea2-2" d="M10,16H9v1h1Z"/><rect class="ea2-2" x="8" y="15" width="1" height="1"/><rect class="ea2-2" x="14" y="16" width="1" height="1"/><path class="ea2-6" d="M13,12H11v1h2Z"/><path class="ea2-6" d="M19,12H17v1h2Z"/><path class="ea2-7" d="M12,22v1h5V22h2V20h1V17H19v1H18v1H17V18H15v1h1v2H15v1H14V21H13V19H11V18H10V17H9v3h1v2h2Z"/><path class="ea2-7" d="M14,18H13v1h1Z"/><path class="ea2-8" d="M18,23h1V22H18Z"/><path class="ea2-7" d="M18,24h1V23H18Z"/><path class="ea2-8" d="M17,24V23H16v1Z"/><path class="ea2-7" d="M16,24v1h1V24Z"/><path class="ea2-8" d="M13,23H12v1h1Z"/><path class="ea2-7" d="M13,24H12v1h1Z"/><path class="ea2-8" d="M11,22H10v1h1Z"/><path class="ea2-7" d="M11,23H10v1h1Z"/><path class="ea2-2" d="M13,19v1h3V19H13Z"/><path class="ea2-2" d="M12,18v1h1V18Z"/><path class="ea2-9" d="M19,13v1h1V11H19v2Z"/><rect class="ea2-9" x="18" y="10" width="1" height="1"/><path class="ea2-9" d="M18,10V9H11v1h7Z"/><rect class="ea2-9" x="10" y="10" width="1" height="1"/><path class="ea2-9" d="M10,13V11H9v3h1Z"/><path class="ea2-10" d="M13,16V15h1V14H10v2h3Z"/><path class="ea2-10" d="M16,15v1h3V14H15v1Z"/><path class="ea2-2" d="M19,14V13H15v1h4Z"/><path class="ea2-2" d="M14,14V13H10v1h4Z"/><path class="ea2-2" d="M19,15h1V14H19Z"/><path class="ea2-2" d="M10,14H9v1h1Z"/><path class="ea2-2" d="M15,15V14H14v1Z"/></svg>