<svg xmlns="http://www.w3.org/2000/svg" viewBox="0 0 29 33"><defs><style>polygon,rect,path{shape-rendering:crispedges;}.hb135-1{fill:#6d3e35;}.hb135-2{fill:#000000;}.hb135-3{fill:#ffffff;}.hb135-4{fill:#af8423;}.hb135-5{fill:#af8423;}.hb135-6{fill:#317f03;}.hb135-7{fill:#841f00;}.hb135-8{fill:#b23b00;}.hb135-9{fill:#31a09d;}.hb135-10{fill:#ff1d99;}.hb135-11{fill:#9b005c;}</style></defs><path class="hb135-1" d="M8,25H7v8H8V25Z"/><path class="hb135-2" d="M7,25H6v8H7V25Z"/><path class="hb135-2" d="M23,27H22v6h1V27Z"/><path class="hb135-1" d="M22,27H21v6h1V27Z"/><rect class="hb135-2" x="21" y="26" width="1" height="1"/><path class="hb135-2" d="M21,27H20v6h1V27Z"/><path class="hb135-1" d="M20,27h1V26H19V25H17V24H16V23H13v1H12v1H10v1H9v7h5V29h1v4h5V27Zm-8,2H11V28h1Zm6,0H17V28h1Z"/><path class="hb135-2" d="M20,26h1V25H19v1Z"/><rect class="hb135-2" x="17" y="28" width="1" height="1"/><path class="hb135-2" d="M18,25h1V24H17v1Z"/><path class="hb135-2" d="M15,29H14v4h1V29Z"/><path class="hb135-2" d="M13,23V22H12v2h1Z"/><rect class="hb135-2" x="11" y="28" width="1" height="1"/><path class="hb135-2" d="M12,24H10v1h2Z"/><path class="hb135-2" d="M9,26h1V25H8v8H9V26Z"/><rect class="hb135-2" x="20" y="15" width="1" height="1"/><rect class="hb135-1" x="16" y="19" width="1" height="1"/><path class="hb135-1" d="M12,14V13H10v1h2Z"/><path class="hb135-1" d="M10,17v1h1v1h1v1h1V19h3V18h1v1h1V18h1V16h1V15H16V14h2V13H13v2H9v1h1Zm4-1h1v1H14Z"/><path class="hb135-1" d="M13,21h3V20H13Z"/><path class="hb135-2" d="M16,23v1h1V22H16Z"/><path class="hb135-2" d="M10,14H9v1h1Z"/><rect class="hb135-2" x="8" y="15" width="1" height="1"/><rect class="hb135-2" x="14" y="16" width="1" height="1"/><path class="hb135-3" d="M12,15h1V14H12Z"/><path class="hb135-3" d="M10,14v1h1V14Z"/><path class="hb135-3" d="M18,14v1h1V14Z"/><path class="hb135-3" d="M16,14v1h1V14Z"/><path class="hb135-2" d="M11,14v1h1V14Z"/><path class="hb135-2" d="M17,14v1h1V14Z"/><rect class="hb135-4" x="18" y="13" width="1" height="1"/><path class="hb135-4" d="M12,14h1V13H12Z"/><path class="hb135-5" d="M13,23h3V22h1V21h1V20h1V19h1V16H19v2H18v1H17v1H16v1H13V20H12V19H11V18H10V16H9v3h1v1h1v1h1v1h1Z"/><rect class="hb135-2" x="13" y="19" width="3" height="1"/><rect class="hb135-2" x="16" y="18" width="1" height="1"/><path class="hb135-6" d="M19,14v1h1V13H19Z"/><rect class="hb135-6" x="9" y="13" width="1" height="1"/><path class="hb135-7" d="M19,12v1h1V11H19Z"/><path class="hb135-8" d="M10,12v1h1V11h1v2h1V11h1v2h1V11h1v2h1V11h1v2h1V11h1V10H19V9H18V8H11V9H10v1H9v1h1Z"/><path class="hb135-7" d="M17,11v2h1V11Z"/><path class="hb135-7" d="M15,11v2h1V11Z"/><path class="hb135-7" d="M13,11v2h1V11Z"/><path class="hb135-7" d="M12,12V11H11v2h1Z"/><path class="hb135-7" d="M10,12V11H9v2h1Z"/><path class="hb135-9" d="M0,8V33H6V25H7V24H6V23H7V22H8v1H9v1H8v1h2V24h2V21H11V20H10V19H9V16H8V15H9V10h1V9h1V8h7V9h1v1h1v5h1v1H20v3H19v1H18v1H17v3h2v1h2v1h1v1h1v6h6V0H0Z"/><rect class="hb135-10" x="7" y="22" width="1" height="1"/><rect class="hb135-10" x="6" y="23" width="1" height="1"/><rect class="hb135-10" x="8" y="23" width="1" height="1"/><path class="hb135-10" d="M8,24.5V24H7v1H8Z"/><rect class="hb135-11" x="7" y="23" width="1" height="1"/></svg>