<svg xmlns="http://www.w3.org/2000/svg" viewBox="0 0 29 33"><defs><style>polygon,rect,path{shape-rendering:crispedges;}.aa16-1{fill:#b4bd09;}.aa16-2{fill:#000000;}.aa16-3{fill:#ce8452;}.aa16-4{fill:#990000;}.aa16-5{fill:#ff6c77;}.aa16-6{fill:#e2e2e2;}.aa16-7{fill:#e2e2e2;}.aa16-8{fill:#00af68;}.aa16-9{fill:#ffffff;}.aa16-10{fill:#455054;}.aa16-11{fill:#ffffff;}.aa16-12{fill:#ff1f4a;}.aa16-13{fill:#0068ff;}</style></defs><path class="aa16-1" d="M8,18v4H9v2H8v1h2V24h2V22H11V21H10V20H9V16H8Z"/><path class="aa16-1" d="M0,33H8V32H6V31H5V22H6V21H7V20H5v1H2V17H5V16H8V15H9V11h1V10h1V9h7v1h1v1h1v4h1v1H20v4H19v1H18v1H17v2h2v1h2v1h1v1h1v6h6V0H0Z"/><path class="aa16-2" d="M23,31V27H22v6h1Z"/><rect class="aa16-2" x="21" y="26" width="1" height="1"/><path class="aa16-3" d="M22,31V27H21v6h1Z"/><rect class="aa16-3" x="20" y="26" width="1" height="1"/><path class="aa16-2" d="M21,31V27H20v6h1Z"/><path class="aa16-2" d="M20,26h1V25H19v1Z"/><rect class="aa16-4" x="13" y="30" width="1" height="2"/><path class="aa16-4" d="M20,31V26H19V25H18v1H17v1H16v1H13V27H12V26H11V25H10v1H9v7h1V29h1v4h1V29h3v4h1V29h3v1H17v2h1V31h1v2h1Z"/><path class="aa16-2" d="M17,26h1V25h1V24H17Z"/><rect class="aa16-2" x="16" y="23" width="1" height="1"/><rect class="aa16-2" x="16" y="26" width="1" height="1"/><path class="aa16-2" d="M14,27H13v1h3V27Z"/><rect class="aa16-2" x="12" y="23" width="1" height="1"/><path class="aa16-3" d="M16,23H13v1H12v2h1v1h3V26h1V24H16Z"/><rect class="aa16-2" x="12" y="26" width="1" height="1"/><path class="aa16-2" d="M12,24H10v1h1v1h1Z"/><rect class="aa16-3" x="8" y="26" width="1" height="1"/><path class="aa16-2" d="M9,31V27H8V26h2V25H8V24H7v7H6v1H8v1H9Z"/><path class="aa16-3" d="M7,30V24H8V22H6v9H7Z"/><path class="aa16-2" d="M6,29V22H5v9H6Z"/><path class="aa16-5" d="M12,29v4h3V29Zm2,3H13V30h1Z"/><path class="aa16-5" d="M11,31V29H10v4h1Z"/><path class="aa16-5" d="M19,31H18v1H17V30h2V29H16v4h3Z"/><rect class="aa16-2" x="20" y="15" width="1" height="1"/><path class="aa16-2" d="M19,13v2h1V12H19Z"/><path class="aa16-3" d="M12,13h1v1h3V12h1V11H16V10H13v1H12Z"/><rect class="aa16-3" x="14" y="15" width="1" height="1"/><rect class="aa16-3" x="11" y="10" width="1" height="1"/><path class="aa16-3" d="M18,12v1h1V11H18Z"/><rect class="aa16-3" x="19" y="15" width="1" height="1"/><rect class="aa16-3" x="10" y="11" width="1" height="1"/><rect class="aa16-3" x="9" y="15" width="1" height="1"/><rect class="aa16-3" x="17" y="10" width="1" height="1"/><path class="aa16-3" d="M16,17V16H15v1H14V16H13v1H11v1h1v1h1V18h5V17Z"/><rect class="aa16-3" x="18" y="16" width="1" height="1"/><rect class="aa16-3" x="10" y="13" width="1" height="1"/><rect class="aa16-3" x="10" y="16" width="1" height="1"/><path class="aa16-2" d="M10,14V12H9v3h1Z"/><rect class="aa16-2" x="8" y="15" width="1" height="1"/><rect class="aa16-2" x="14" y="16" width="1" height="1"/><rect class="aa16-6" x="18" y="13" width="1" height="1"/><path class="aa16-6" d="M16,12v1h2V12Z"/><path class="aa16-6" d="M12,13V12H10v1Z"/><path class="aa16-7" d="M15,18H13v1h3V18Z"/><path class="aa16-7" d="M19,17H18v1H17v1H16v1H13V19H12V18H11V17H10V16H9v4h1v1h1v1h1v1h5V22h1V21h1V20h1V16H19Z"/><rect class="aa16-2" x="13" y="19" width="3" height="1"/><rect class="aa16-2" x="16" y="18" width="1" height="1"/><rect class="aa16-8" x="19" y="11" width="1" height="1"/><rect class="aa16-8" x="18" y="10" width="1" height="1"/><path class="aa16-8" d="M12,11h1V10h3v1h1V10h1V9H11v1h1Z"/><rect class="aa16-8" x="17" y="11" width="1" height="1"/><rect class="aa16-8" x="11" y="11" width="1" height="1"/><rect class="aa16-8" x="10" y="10" width="1" height="1"/><rect class="aa16-8" x="9" y="11" width="1" height="1"/><path class="aa16-9" d="M13,14V13H11v1Z"/><path class="aa16-9" d="M13,17V16H11v1Z"/><path class="aa16-9" d="M11,15V14H10v2h1Z"/><path class="aa16-2" d="M13,16V14H11v2Z"/><path class="aa16-9" d="M18,15v1h1V14H18Z"/><path class="aa16-9" d="M16,13v1h2V13Z"/><path class="aa16-9" d="M17,16H16v1h2V16Z"/><path class="aa16-9" d="M13,16h1V15h1v1h1V14H13Z"/><path class="aa16-2" d="M16,16h2V14H16Z"/><path class="aa16-10" d="M8,22V20H7v2Z"/><rect class="aa16-2" x="6" y="21" width="1" height="1"/><path class="aa16-2" d="M9,22H8v2H9Z"/><path class="aa16-11" d="M5,17H2v1H5Z"/><path class="aa16-11" d="M8,16H5v1H8Z"/><path class="aa16-12" d="M8,19H5v1H8Z"/><path class="aa16-12" d="M2,21H5V20H2Z"/><path class="aa16-13" d="M8,19V17H5v1H2v2H5V19Z"/></svg>