<svg xmlns="http://www.w3.org/2000/svg" viewBox="0 0 29 33"><defs><style>polygon,rect,path{shape-rendering:crispedges;}.sa62-1{fill:#db5a8e;}.sa62-2{fill:#000000;}.sa62-3{fill:#184144;}.sa62-4{fill:#ce8452;}.sa62-5{fill:#8c7850;}.sa62-6{fill:#99004d;}.sa62-7{fill:#a0688d;}.sa62-8{fill:#99004d;}.sa62-9{fill:#ffffff;}.sa62-10{fill:#455054;}.sa62-11{fill:#ff1f4a;}.sa62-12{fill:#002b4f;}</style></defs><path class="sa62-1" d="M8,32H6V31H5V22H6V21H7V20H5v1H2V17H5V16H7V11H8V10H9V9h1V8h1V7h7V8h1V9h1v1h1v1h1v9H21v1H20v1H19v1H18v1h1v1h2v1h1v1h1v6h6V0H0V33H8Z"/><path class="sa62-1" d="M11,24V23H10V22H9v2H8v1h2V24Z"/><rect class="sa62-1" x="8" y="21" width="1" height="1"/><path class="sa62-2" d="M6,24V22H5v9H6V24Z"/><path class="sa62-2" d="M23,27H22v6h1V27Z"/><path class="sa62-3" d="M22,27H21v6h1V27Z"/><rect class="sa62-2" x="21" y="26" width="1" height="1"/><path class="sa62-2" d="M21,27H20v6h1V27Z"/><rect class="sa62-3" x="10" y="29" width="1" height="1"/><rect class="sa62-3" x="18" y="29" width="1" height="1"/><path class="sa62-3" d="M16,25h1v4h1V28h1v1h1V27h1V26H19V25H18V24H16Z"/><path class="sa62-3" d="M19,32V31H18v1H17V30H16v1H15v1H13V30H12v2H11V31H10v1H9v1H20V32Z"/><path class="sa62-3" d="M10,28h1v1h1V25h1V24H11v1H10v1H8v1H9v2h1Z"/><path class="sa62-2" d="M20,26h1V25H19v1Z"/><rect class="sa62-2" x="18" y="24" width="1" height="1"/><path class="sa62-2" d="M16,24h2V23H16Z"/><path class="sa62-2" d="M13,24v1h3V24H13Z"/><path class="sa62-4" d="M13,23v1h3V23H13Z"/><path class="sa62-2" d="M12,23H11v1h2V23Z"/><rect class="sa62-2" x="10" y="24" width="1" height="1"/><path class="sa62-2" d="M9,31V27H8V26h2V25H8V24H7v7H6v1H8v1H9V31Z"/><path class="sa62-3" d="M7,30V24H6v7H7Z"/><path class="sa62-3" d="M14,29v2h1V29Z"/><path class="sa62-3" d="M13,25v3h2v1h1V25H13Z"/><path class="sa62-5" d="M19,30H18V29H17v3h1V31h1v1h1V29H19Z"/><rect class="sa62-5" x="18" y="28" width="1" height="1"/><path class="sa62-5" d="M15,29v2h1V29Z"/><path class="sa62-5" d="M14,30V29h1V28H13v4h2V31H14Z"/><path class="sa62-5" d="M11,29v1H10V29H9v3h1V31h1v1h1V29Z"/><rect class="sa62-5" x="10" y="28" width="1" height="1"/><path class="sa62-2" d="M13,25H12v5h1V25Z"/><path class="sa62-2" d="M17,28V25H16v5h1V28Z"/><path class="sa62-4" d="M18,20V18h1V17H16V16H15v1H14V16H13v1H10v1h1v2h1v1h1v1h3V21h1V20Zm-2-1v1H13V19H12V18h5v1Z"/><rect class="sa62-4" x="14" y="15" width="1" height="1"/><path class="sa62-4" d="M12,13h1v1h2V12H14V11H12v2Z"/><rect class="sa62-2" x="14" y="16" width="1" height="1"/><path class="sa62-6" d="M11,13h1V12H10v1Z"/><path class="sa62-7" d="M14,11v1h1v2h1V13h3V12H17V11H14Z"/><path class="sa62-3" d="M21,15H20v5h1V15Z"/><path class="sa62-3" d="M9,19V15H8v5H9Z"/><path class="sa62-3" d="M18,21H17v1H16v1h2V22h1V21Z"/><rect class="sa62-3" x="9" y="20" width="1" height="1"/><rect class="sa62-3" x="19" y="20" width="1" height="1"/><path class="sa62-3" d="M8,14H9V12h1V11h2V10h5v1h2v1h1v2h1V11H20V10H19V9H18V8H11V9H10v1H9v1H8v3Z"/><path class="sa62-3" d="M13,23V22H12V21H10v1h1v1h2Z"/><rect class="sa62-2" x="10" y="8" width="1" height="1"/><rect class="sa62-2" x="9" y="9" width="1" height="1"/><rect class="sa62-2" x="8" y="10" width="1" height="1"/><path class="sa62-2" d="M8,15V11H7v5H8Z"/><rect class="sa62-2" x="8" y="20" width="1" height="1"/><rect class="sa62-2" x="9" y="21" width="1" height="1"/><rect class="sa62-2" x="10" y="22" width="1" height="1"/><rect class="sa62-2" x="18" y="22" width="1" height="1"/><rect class="sa62-2" x="19" y="21" width="1" height="1"/><rect class="sa62-2" x="20" y="20" width="1" height="1"/><path class="sa62-2" d="M21,14v6h1V11H21v3Z"/><rect class="sa62-2" x="20" y="10" width="1" height="1"/><rect class="sa62-2" x="19" y="9" width="1" height="1"/><rect class="sa62-2" x="18" y="8" width="1" height="1"/><path class="sa62-2" d="M18,8V7H11V8h7Z"/><path class="sa62-2" d="M12,11H10v1h2Z"/><path class="sa62-2" d="M10,16H9v1h1Z"/><path class="sa62-2" d="M10,13V12H9v2h1Z"/><rect class="sa62-2" x="12" y="21" width="1" height="1"/><path class="sa62-2" d="M13,22v1h3V22H13Z"/><rect class="sa62-2" x="16" y="21" width="1" height="1"/><path class="sa62-2" d="M19,17h1V16H19Z"/><path class="sa62-2" d="M19,14h1V12H19v2Z"/><path class="sa62-2" d="M18,12h1V11H17v1Z"/><path class="sa62-2" d="M15,11h2V10H12v1h3Z"/><path class="sa62-8" d="M19,18H18v2H17v1h2V20h1V17H19Z"/><path class="sa62-8" d="M10,21h2V20H11V18H10V17H9v3h1Z"/><path class="sa62-9" d="M19,15v1h1V15h1V14H19Z"/><path class="sa62-9" d="M19,14V13H16v1h3Z"/><path class="sa62-2" d="M17,16h2V14H16v2Z"/><path class="sa62-9" d="M16,16v1h3V16H16Z"/><path class="sa62-9" d="M14,16V15h1v1h1V14H13v2Z"/><path class="sa62-9" d="M13,14V13H10v1h3Z"/><path class="sa62-2" d="M13,16V14H10v2h3Z"/><path class="sa62-9" d="M11,17h2V16H10v1Z"/><path class="sa62-9" d="M9,16h1V14H8v1H9Z"/><polygon class="sa62-2" points="17 18 12 18 12 19 13 19 13 20 16 20 16 19 17 19 17 18"/><path class="sa62-4" d="M7,24H8V22H6v2Z"/><path class="sa62-10" d="M8,22V20H7v2Z"/><path class="sa62-2" d="M7,21H6v1H7Z"/><path class="sa62-2" d="M9,22H8v2H9Z"/><path class="sa62-11" d="M5,17H2v1H5Z"/><path class="sa62-11" d="M2,21H5V20H2Z"/><path class="sa62-11" d="M5,19v1H6V19Z"/><path class="sa62-11" d="M8,19H7v1H8Z"/><path class="sa62-12" d="M7,18H8V17H7V16H6v1H5v1H6v2H7V18Z"/><path class="sa62-12" d="M5,19V18H2v1H5Z"/><path class="sa62-11" d="M6,16H5v1H6Z"/><path class="sa62-9" d="M6,19V18H5v1Z"/><path class="sa62-9" d="M4,19H2v1H5V19Z"/><path class="sa62-9" d="M7,18v1H8V18Z"/><path class="sa62-9" d="M8,17V16H7v1Z"/></svg>