<svg xmlns="http://www.w3.org/2000/svg" viewBox="0 0 29 33"><defs><style>polygon,rect,path{shape-rendering:crispedges;}.ab23-1{fill:#d4a122;}.ab23-2{fill:#000000;}.ab23-3{fill:#ffb38d;}.ab23-4{fill:#e8b795;}.ab23-5{fill:#cc3232;}.ab23-6{fill:#6f7032;}.ab23-7{fill:#db5800;}.ab23-8{fill:#fad000;}.ab23-9{fill:#6d5800;}.ab23-10{fill:#ea1500;}</style></defs><path class="ab23-1" d="M0,33H6V27H7V26H8V25h2V24h1V23h1V21H10v1H9V21H8V20H9V17H8V12H9V10h1V9h1V8h7V9h1v1h1v2h1v3h0v2h0v1H20v2h1V19h1v1h1V18h1V17h3v5H26v1H25v1H24v7H23v1H21v1h8V0H0Z"/><path class="ab23-1" d="M19,18V16h0v3h0Z"/><rect class="ab23-1" x="18" y="19" height="1"/><rect class="ab23-1" x="14" y="17" width="1"/><rect class="ab23-1" x="17" y="20" height="1"/><path class="ab23-1" d="M21,22V21H20v1H19V21H17v2h1v1h1v1h2V23h1V22Z"/><path class="ab23-2" d="M23,25v6h1V24H23Z"/><path class="ab23-2" d="M7,30V27H6v6H7V30Z"/><path class="ab23-3" d="M7,31v2H8V31Z"/><path class="ab23-3" d="M8,29V27H7v2Z"/><rect class="ab23-2" x="7" y="26" width="1" height="1"/><path class="ab23-2" d="M9,31V27H8v6H9V31Z"/><path class="ab23-3" d="M10,31V30H9v2h1v1h1V31Z"/><path class="ab23-3" d="M18,26v2h1v1h1V27H19V25H18Z"/><path class="ab23-3" d="M19,31V30H18V28H17V27H16V25H15v3h1v1h1v2h1v1h1v1h1V31Z"/><rect class="ab23-3" x="14" y="29" width="1" height="1"/><path class="ab23-3" d="M13,29h1V27H13V26H12v2h1Z"/><path class="ab23-3" d="M14,31H13V30H12V28H11V27H10V26H9v2h1v1h1v2h1v1h1v1h1V31Z"/><path class="ab23-3" d="M16,31V30H15v2h1v1h1V31Z"/><path class="ab23-2" d="M10,26V25H8v1h2Z"/><path class="ab23-2" d="M11,26h2V25H12V24h1V23h3v1h1v1H16v1h2V25h1V24H18V23H17V21H16v1H13V21H12v2H11v1H10v1h1Z"/><rect class="ab23-2" x="13" y="24" width="1" height="1"/><path class="ab23-2" d="M14,32v1h1V32Z"/><path class="ab23-2" d="M14,31h1V30H14Z"/><path class="ab23-2" d="M14,29h1V28H14Z"/><path class="ab23-2" d="M14,26v1h1V25H14Z"/><rect class="ab23-2" x="15" y="24" width="1" height="1"/><path class="ab23-4" d="M16,24V23H13v1h1v1h1V24Z"/><rect class="ab23-3" x="16" y="24" width="1" height="1"/><path class="ab23-2" d="M22,32h1V31H22V23H21v2H19v1h2v1H20v6h1V32Z"/><path class="ab23-3" d="M23,28V27H22v2h1Z"/><path class="ab23-3" d="M23,24H22v1h1Z"/><path class="ab23-5" d="M19,28H18v2h1v1h1V29H19Z"/><path class="ab23-5" d="M16,26v1h1v1h1V26Z"/><path class="ab23-5" d="M22,29v2h1V29Z"/><path class="ab23-5" d="M20,27h1V26H19v1Z"/><path class="ab23-5" d="M23,26V25H22v2h1Z"/><path class="ab23-5" d="M18,32V31H17v2h2V32Z"/><path class="ab23-5" d="M15,30h1v1h1V29H16V28H15v2Z"/><path class="ab23-5" d="M14,28h1V27H14Z"/><polygon class="ab23-5" points="14 27 14 26 14 25 13 25 13 26 13 27 14 27"/><rect class="ab23-5" x="15" y="32" width="1" height="1"/><path class="ab23-5" d="M14,32h1V31H14Z"/><path class="ab23-5" d="M14,29H13V28H12v2h1v1h1V29Z"/><rect class="ab23-5" x="12" y="24" width="1" height="1"/><path class="ab23-5" d="M10,27h1v1h1V26H11V25H10v2Z"/><path class="ab23-5" d="M12,32V31H11v2h2V32Z"/><path class="ab23-5" d="M10,30v1h1V29H10V28H9v2Z"/><path class="ab23-5" d="M9,32v1h1V32Z"/><path class="ab23-5" d="M9,27V26H8v1Z"/><path class="ab23-5" d="M7,30v1H8V29H7Z"/><path class="ab23-2" d="M21,16V15h0v1Z"/><path class="ab23-4" d="M17,13V12h0V11H16V10H15v1H14v1H13v1h4Z"/><rect class="ab23-4" x="18" y="13" width="1" height="1"/><path class="ab23-4" d="M13,22h3V21h1V20h1V19h1V16h1V15H18v1H16V15H15V14H14v1H13v1H11V15H10v3h0v1h1v1h1v1h1Zm1-5V16h1v1H14Zm-2,2V18h1v1h3v1H13V19Z"/><path class="ab23-2" d="M20,17V16H19v3h1V18h0Z"/><polygon class="ab23-2" points="19 20 19 19 19 19 18 19 18 19 18 20 19 20"/><path class="ab23-2" d="M18,20H17v1h1Z"/><rect class="ab23-2" x="15" y="10" width="1"/><path class="ab23-2" d="M11,20v1h1V20Z"/><rect class="ab23-2" x="10" y="19" width="1" height="1"/><path class="ab23-2" d="M10,18H9v1h1Z"/><polygon class="ab23-2" points="15 16 15 16 14 16 14 17 15 17 15 16"/><rect class="ab23-6" x="18" y="13" width="1"/><rect class="ab23-6" x="17" y="12" width="1" height="1"/><rect class="ab23-2" x="13" y="19" width="3" height="1"/><rect class="ab23-2" x="12" y="18" width="1" height="1"/><path class="ab23-7" d="M19,20H18v1h1v1h1V21h1V20H20V19H19Z"/><path class="ab23-7" d="M10,20V19H9v1H8v1H9v1h1V21h1V20Z"/><path class="ab23-7" d="M10,18V15H9V14h2V13h2V12h1V11h1V10h1v1h1v1h1v1h1v1h1v4h1V17H20V16h1V12H20V10H19V9H18V8H11V9H10v1H9v2H8v4H9v1H9v1Z"/><path class="ab23-8" d="M20,16v1h1V16H20Z"/><path class="ab23-8" d="M9,16H8v1H9Z"/><path class="ab23-2" d="M19,14H18V13H11v1H9v1h2v1h2V15h1V14h1v1h1v1h2V15h2V14Z"/><rect class="ab23-9" x="21" y="21" width="1" height="1"/><path class="ab23-8" d="M22,21v1h2V21h1v1H24v1h2V22h1V20H25V19H24V18H23v2H22V19H21v2Z"/><path class="ab23-4" d="M23,23H22v1h2V23Z"/><path class="ab23-9" d="M24,23V22H22v1h2Z"/><path class="ab23-2" d="M24,24h1V23H24Z"/><rect class="ab23-9" x="24" y="21" width="1" height="1"/><rect class="ab23-2" x="24" y="18" width="1" height="1"/><path class="ab23-10" d="M25,19v1h2V19H25Z"/><path class="ab23-8" d="M25,19h1V18h1V17H24v1h1Z"/><path class="ab23-2" d="M26,19h1V18H26Z"/></svg>