<svg xmlns="http://www.w3.org/2000/svg" viewBox="0 0 29 33"><defs><style>polygon,rect,path{shape-rendering:crispedges;}.oa88-1{fill:#6b4f99;}.oa88-2{fill:#000000;}.oa88-3{fill:#94d4ff;}.oa88-4{fill:#9b8100;}.oa88-5{fill:#ce8452;}.oa88-6{fill:#99ce09;}.oa88-7{fill:#6c9302;}.oa88-8{fill:#ffffff;}.oa88-9{fill:#ccc;}.oa88-10{fill:#ffce00;}.oa88-11{fill:#cbed03;}.oa88-12{fill:#00e070;}.oa88-13{fill:#0068ff;}.oa88-14{fill:#45ba00;}</style></defs><path class="oa88-1" d="M0,33H6V27H7V26H8V24H6V23H5V21H4V20H3V19H8v1H9V17H8V12H9V10h1V9h1V8h7V9h1v1h1v2h1v6H20v1h6v1H25v4H24v1H23v1h1v1H23v6h6V0H0Z"/><path class="oa88-1" d="M12,21H10v3h2V21Z"/><path class="oa88-1" d="M18,22V21H17v3h1V22Z"/><path class="oa88-2" d="M7,30V27H6v6H7V30Z"/><path class="oa88-3" d="M8,29V27H7v2Z"/><path class="oa88-3" d="M7,31v2H8V31Z"/><rect class="oa88-2" x="7" y="26" width="1" height="1"/><path class="oa88-2" d="M9,31V27H8v6H9V31Z"/><path class="oa88-3" d="M10,26H9v2h1v1h1V27H10Z"/><path class="oa88-3" d="M10,31V30H9v2h1v1h1V31Z"/><path class="oa88-2" d="M10,26V25H8v1h2Z"/><path class="oa88-2" d="M12,26h1V25H12V24H10v1h1v8h1V26Z"/><path class="oa88-4" d="M17,26H16v1H13V26H12v7h5V26Z"/><path class="oa88-2" d="M13,26v1h3V26H13Z"/><path class="oa88-5" d="M16,23H13v1H12v1h1v1h3V25h1V24H16Z"/><path class="oa88-2" d="M18,31V25h1V24H17v1H16v1h1v7h1V31Z"/><path class="oa88-3" d="M19,31V30H18v2h1v1h1V31Z"/><path class="oa88-3" d="M19,26V25H18v3h1v1h1V27H19Z"/><path class="oa88-2" d="M20,25H19v2h1V25Z"/><path class="oa88-2" d="M21,31V27H20v6h1V31Z"/><path class="oa88-3" d="M21,31v1h1V30H21Z"/><path class="oa88-2" d="M23,27H22v6h1V27Z"/><path class="oa88-6" d="M19,28H18v2h1v1h1V29H19Z"/><path class="oa88-6" d="M21,32v1h1V32Z"/><path class="oa88-6" d="M21,29v1h1V28H21Z"/><path class="oa88-6" d="M18,32v1h1V32Z"/><path class="oa88-6" d="M10,27h1V25H10v2Z"/><path class="oa88-6" d="M10,28H9v2h1v1h1V29H10Z"/><path class="oa88-6" d="M9,32v1h1V32Z"/><path class="oa88-6" d="M9,27V26H8v1Z"/><path class="oa88-6" d="M7,30v1H8V29H7Z"/><path class="oa88-5" d="M12,21h1v1h3V21h1V20h1V19h1V17H16V16H15v1H14V16H13v1H10v2h1v1h1Zm1-2h3v1H13Z"/><path class="oa88-5" d="M14,14h2V13h1V11H16V10H15v1H14v1H13v2Z"/><rect class="oa88-5" x="14" y="15" width="1" height="1"/><path class="oa88-2" d="M19,16v3h1V16Z"/><rect class="oa88-2" x="18" y="19" width="1" height="1"/><rect class="oa88-2" x="17" y="20" width="1" height="1"/><path class="oa88-2" d="M17,21H16v1H13V21H12v3h1V23h3v1h1V21Z"/><path class="oa88-2" d="M12,20H11v1h1Z"/><rect class="oa88-2" x="10" y="19" width="1" height="1"/><path class="oa88-2" d="M10,18H9v1h1Z"/><rect class="oa88-2" x="14" y="16" width="1" height="1"/><path class="oa88-7" d="M18,13V12H17v1Z"/><rect class="oa88-2" x="13" y="19" width="3" height="1"/><path class="oa88-8" d="M10,22H9V21H8V19H3v1H7v1H5v1H8v1H6v1h4Z"/><path class="oa88-9" d="M8,22H5v1H8Z"/><path class="oa88-9" d="M7,20H4v1H7Z"/><path class="oa88-9" d="M24,21h1V20H24Z"/><path class="oa88-8" d="M24,20h2V19H23v1Z"/><path class="oa88-9" d="M10,24H8v1h2Z"/><rect class="oa88-10" x="19" y="19" width="1" height="1"/><rect class="oa88-10" x="18" y="20" width="1" height="1"/><path class="oa88-10" d="M9,21v1h1V21h1V20H10V19H9v1H8v1Z"/><path class="oa88-10" d="M20,16v2h1V15H20Z"/><path class="oa88-10" d="M10,13h3V12h1V11h1V10h1v1h1v1h1v1h1v1h2V12H20V10H19V9H18V8H11V9H10v1H9v2H8v2h2Z"/><path class="oa88-10" d="M10,17V16H9V15H8v2H9v1h1Z"/><path class="oa88-11" d="M19,16h1V15h1V14H19Z"/><path class="oa88-11" d="M16,13v1h3V13H16Z"/><path class="oa88-12" d="M16,14v2h3V14H16Z"/><path class="oa88-11" d="M16,16v1h3V16H16Z"/><path class="oa88-11" d="M14,14H13v2h1V15h1v1h1V14Z"/><path class="oa88-11" d="M13,14V13H10v1h3Z"/><path class="oa88-12" d="M13,16V14H10v2h3Z"/><path class="oa88-11" d="M13,17V16H10v1h3Z"/><path class="oa88-11" d="M9,16h1V14H8v1H9Z"/><path class="oa88-5" d="M21,26H20v1h1v1h1V27h1V26H21Z"/><rect class="oa88-2" x="23" y="26" width="1" height="1"/><path class="oa88-13" d="M20,21h2V20H21V19H20v2Z"/><path class="oa88-13" d="M23,21v2h1V22h1V21H23Z"/><path class="oa88-13" d="M22,24H21V22H20V21H18v2h2v2h1v1h1V25h1V24Z"/><path class="oa88-14" d="M22,20v1H20v1h1v2h2v1h1V23H23V21h1V20H23V19H21v1Z"/><path class="oa88-14" d="M20,24V23H18v1h1v1h1Z"/><path class="oa88-14" d="M21,26V25H20v1Z"/><path class="oa88-13" d="M24,24h1V23H24Z"/><path class="oa88-14" d="M20,21V20H19v1Z"/><path class="oa88-14" d="M22,26h1V25H22Z"/><path class="oa88-14" d="M24,23h1V22H24Z"/></svg>