<svg xmlns="http://www.w3.org/2000/svg" viewBox="0 0 29 33"><defs><style>polygon,rect,path{shape-rendering:crispedges;}.ea264-1{fill:#7a982c;}.ea264-2{fill:#000000;}.ea264-3{fill:#cc3232;}.ea264-4{fill:#e8b795;}.ea264-5{fill:#ffb3c0;}.ea264-6{fill:#ffffff;}.ea264-7{fill:#4922aa;}.ea264-8{fill:#0068ff;}.ea264-9{fill:#508e91;}</style></defs><path class="ea264-1" d="M0,33H6V27H7V26H8V25h2V24h2V21H11V20H10V19H9V16H8V14H9V13H8V9H9V8h1V7h1V6h7V7h1V8h1V9h1v4H20v1h1v2H20v3H19v1H18v1H17v3h2v1h2v1h1v1h1v6h6V0H0Z"/><path class="ea264-2" d="M23,27H22v3H21V27H20v6h1V31h1v2h1V27Z"/><rect class="ea264-2" x="21" y="26" width="1" height="1"/><path class="ea264-3" d="M21,28v2h1V27H21Z"/><path class="ea264-4" d="M21,31v2h1V31Z"/><path class="ea264-2" d="M20,26h1V25H19v1Z"/><rect class="ea264-3" x="16" y="30" width="1" height="1"/><path class="ea264-3" d="M20,27h1V26H19V25H17v1H16v1H13V26H12V25H10v1H8v1H9v6h1V30h1V29h1V28h5v1h1v1h1v3h1V27Z"/><path class="ea264-3" d="M16,32H12v1h5V32Z"/><rect class="ea264-3" x="12" y="30" width="1" height="1"/><path class="ea264-2" d="M18,25h1V24H17v1Z"/><rect class="ea264-2" x="16" y="25" width="1" height="1"/><path class="ea264-2" d="M13,26v1h3V26H13Z"/><path class="ea264-2" d="M13,23h3v1h1V21H16v1H13V21H12v3h1Z"/><path class="ea264-4" d="M13,25v1h3V25h1V24H16V23H13v1H12v1Z"/><rect class="ea264-2" x="12" y="25" width="1" height="1"/><path class="ea264-2" d="M12,24H10v1h2Z"/><path class="ea264-2" d="M10,25H8v1h2Z"/><path class="ea264-2" d="M9,27H8v3H7V27H6v6H7V31H8v2H9V27Z"/><rect class="ea264-2" x="7" y="26" width="1" height="1"/><path class="ea264-3" d="M7,30H8V27H7v3Z"/><path class="ea264-4" d="M7,31v2H8V31Z"/><path class="ea264-5" d="M19,30H18V29H17V28H12v1H11v1H10v3h2V32h5v1h2V30Zm-6,1H12V30h1Zm4,0H16V30h1Z"/><path class="ea264-2" d="M20,16h1V15H20Z"/><path class="ea264-4" d="M13,22h3V21h1V20h1V19h1V17H16V16H15v1H14V16H13v1H10v2h1v1h1v1h1Zm0-3h3V18h1v1H16v1H13Z"/><path class="ea264-4" d="M12,15H10v1h3V15Z"/><rect class="ea264-4" x="14" y="15" width="1" height="1"/><rect class="ea264-4" x="18" y="12" width="1" height="1"/><path class="ea264-4" d="M12,13h1v1h3V12h2V11H11v1h1Z"/><path class="ea264-4" d="M19,16V15H16v1h3Z"/><path class="ea264-2" d="M19,17v2h1V16H19Z"/><rect class="ea264-2" x="18" y="19" width="1" height="1"/><rect class="ea264-2" x="17" y="20" width="1" height="1"/><rect class="ea264-2" x="11" y="20" width="1" height="1"/><rect class="ea264-2" x="10" y="19" width="1" height="1"/><path class="ea264-2" d="M10,16H9v3h1V16Z"/><path class="ea264-2" d="M8,15v1H9V15Z"/><rect class="ea264-2" x="14" y="16" width="1" height="1"/><path class="ea264-6" d="M18,15h1V14H18Z"/><rect class="ea264-6" x="12" y="14" width="1" height="1"/><path class="ea264-2" d="M17,14H16v1h2V14Z"/><path class="ea264-2" d="M12,14H10v1h2Z"/><path class="ea264-7" d="M16,13h2V12H16Z"/><path class="ea264-7" d="M12,12H10v1h2Z"/><rect class="ea264-2" x="13" y="19" width="3" height="1"/><rect class="ea264-2" x="16" y="18" width="1" height="1"/><path class="ea264-8" d="M10,13V12h1V11h7v1h1v2h1V13h1V9H20V8H19V7H18V6H11V7H10V8H9V9H8v4H9v1h1Z"/><path class="ea264-9" d="M19,15v1h1V15h1V14H19Z"/><path class="ea264-9" d="M18,16H16v1h3V16Z"/><path class="ea264-9" d="M13,14V13H10v1h3Z"/><path class="ea264-9" d="M17,13H16v1h3V13H17Z"/><path class="ea264-9" d="M16,14H13v2h1V15h1v1h1V14Z"/><path class="ea264-9" d="M10,16v1h3V16H10Z"/><path class="ea264-9" d="M10,15V14H8v1H9v1h1Z"/></svg>