<svg xmlns="http://www.w3.org/2000/svg" viewBox="0 0 29 33"><defs><style>polygon,rect,path{shape-rendering:crispedges;}.ka138-1{fill:#29834f;}.ka138-2{fill:#000000;}.ka138-3{fill:#cc3232;}.ka138-4{fill:#ce8452;}.ka138-5{fill:#ffffff;}.ka138-6{fill:#492a23;}.ka138-7{fill:#00774c;}.ka138-8{fill:#00686d;}.ka138-9{fill:#ff1d99;}.ka138-10{fill:#e281bf;}.ka138-11{fill:#8ab5a3;}</style></defs><rect class="ka138-1" x="9" y="20" height="1"/><path class="ka138-1" d="M0,33H6V25H7V24H8V21H8v1H7v1H6v1H3V23H2V22H1V19H2V18H3V17H6v1H7v1H8v1H8V19H9V16H8V15H9V11h1V10h1V7h1V6H11V5h2V6h2V7h1V9h2v1h1v1h1v4h1v1H20v3h1v1H20v1H17v3h2v1h2v1h1v1h1v6h6V0H0Z"/><path class="ka138-1" d="M12,21H9v4h1V24h2V21Z"/><path class="ka138-2" d="M23,27H22v6h1V27Z"/><rect class="ka138-2" x="21" y="26" width="1" height="1"/><path class="ka138-3" d="M22,27H21v6h1V27Z"/><path class="ka138-2" d="M21,27H20v6h1V27Z"/><path class="ka138-2" d="M20,26h1V25H19v1Z"/><path class="ka138-3" d="M20,27h1V26H19V25H17V24H16V23H13v1H12v1H10v1H9v7H20V27Z"/><path class="ka138-2" d="M18,25h1V24H17v1Z"/><path class="ka138-2" d="M10,25h2V24H10Z"/><path class="ka138-2" d="M9,26H8v7H9V26Z"/><rect class="ka138-2" x="9" y="25" width="1" height="1"/><path class="ka138-4" d="M8,27V26H9V25H7v2Z"/><path class="ka138-3" d="M8,27H7v6H8V27Z"/><path class="ka138-2" d="M7,27V25H6v8H7V27Z"/><rect class="ka138-2" x="20" y="15" width="1" height="1"/><path class="ka138-2" d="M19,14v1h1V11H19v3Z"/><path class="ka138-4" d="M10,14h2V13H10Z"/><path class="ka138-4" d="M10,17v1h1v1h1v2h1v1h3V21h1V19H16v1H13V19h3V18h1v1h1V18h1V16h1V15H16V14h2V13H16V12h2v1h1V11H18V10H16v1H14V10H11v1H10v1h2v1h1v2H9v1h1Zm4-1h1v1H14Z"/><rect class="ka138-2" x="18" y="10" width="1" height="1"/><path class="ka138-2" d="M17,20v1h1V20Z"/><path class="ka138-2" d="M16,22H13V21H12v3h1V23h3v1h1V21H16Z"/><path class="ka138-2" d="M13,9H11v1h2Z"/><path class="ka138-2" d="M17,10h1V9H16v1Z"/><path class="ka138-2" d="M12,20H11v1h1Z"/><rect class="ka138-2" x="10" y="10" width="1" height="1"/><rect class="ka138-2" x="8" y="15" width="1" height="1"/><rect class="ka138-2" x="14" y="16" width="1" height="1"/><path class="ka138-5" d="M18,14v1h1V14Z"/><path class="ka138-5" d="M12,15h1V14H12Z"/><path class="ka138-2" d="M17,14H16v1h2V14Z"/><path class="ka138-2" d="M12,15V14H10V11H9v4h3Z"/><path class="ka138-6" d="M19,13H18v1h1Z"/><rect class="ka138-6" x="16" y="12" width="2" height="1"/><path class="ka138-6" d="M13,14V13H12v1Z"/><path class="ka138-6" d="M12,13V12H10v1Z"/><path class="ka138-7" d="M19,17v1H18v1H17v1h1v1h2V20h1V19H20V16H19Z"/><path class="ka138-7" d="M10,20v1h1V20h1V19H11V18H10V16H9v4Z"/><rect class="ka138-2" x="13" y="19" width="3" height="1"/><rect class="ka138-2" x="16" y="18" width="1" height="1"/><path class="ka138-8" d="M13,10h1v1h2V7H15V6H13V5H11V6h1V7H11V9h2Z"/><path class="ka138-9" d="M10,20H9v1h1Z"/><path class="ka138-9" d="M9,20V19H8v1Z"/><rect class="ka138-10" x="7" y="20" width="1" height="1"/><path class="ka138-9" d="M9,25V21H8v4Z"/><path class="ka138-2" d="M8,24H7v1H8Z"/><rect class="ka138-11" x="2" y="18" width="1" height="1"/><path class="ka138-11" d="M7,20H8V19H7V18H6V17H3v1H5v1H3v1H2V19H1v3H2v1H3v1H6V23H7V22H8V21H7Z"/><polygon class="ka138-11" points="9 20 8 20 8 20 8 21 8 21 9 21 9 20"/><rect class="ka138-5" x="2" y="19" width="1" height="1"/><path class="ka138-5" d="M4,19H5V18H3v1Z"/><rect class="ka138-8" x="10" y="9" width="1" height="1"></rect></svg>