<svg xmlns="http://www.w3.org/2000/svg" viewBox="0 0 29 33"><defs><style>polygon,rect,path{shape-rendering:crispedges;}.ea285-1{fill:#31a09d;}.ea285-2{fill:#000000;}.ea285-3{fill:#00af68;}.ea285-4{fill:#b2622b;}.ea285-5{fill:#9fffc6;}.ea285-6{fill:#7f5018;}.ea285-7{fill:#00686d;}.ea285-8{fill:#317f03;}.ea285-9{fill:#ffffff;}.ea285-10{fill:#0068ff;}.ea285-11{fill:#ff1f4a;}</style></defs><path class="ea285-1" d="M0,33H6V27H7V26H8V25h2V24h2V21H11V20H10V19H9V16H8V15H9V11h1V10h1V9h1V8h5V9h2v1h1v1h1v3H20v1h1v1H20v3H19v1H18v1H17v3h2v1h2v1h1v1h1v6h6V0H0Z"/><path class="ea285-2" d="M23,27H22v3H21V27H20v6h1V31h1v2h1V27Z"/><rect class="ea285-2" x="21" y="26" width="1" height="1"/><path class="ea285-3" d="M21,28v2h1V27H21Z"/><path class="ea285-4" d="M21,31v2h1V31Z"/><path class="ea285-2" d="M20,26h1V25H19v1Z"/><path class="ea285-3" d="M20,27h1V26H19V25H17v1H16v1H13V26H12V25H10v1H8v1H9v6H20V27Zm-9,2v3H10V28h1Zm4,3H12V28h3Zm4-3H17v2h1V30h1v2H16V28h3Z"/><rect class="ea285-3" x="13" y="29" width="1" height="2"/><path class="ea285-2" d="M18,25h1V24H17v1Z"/><rect class="ea285-2" x="16" y="25" width="1" height="1"/><path class="ea285-2" d="M13,26v1h3V26H13Z"/><path class="ea285-2" d="M13,23h3v1h1V21H16v1H13V21H12v3h1Z"/><path class="ea285-4" d="M13,25v1h3V25h1V24H16V23H13v1H12v1Z"/><rect class="ea285-2" x="12" y="25" width="1" height="1"/><path class="ea285-2" d="M12,24H10v1h2Z"/><path class="ea285-2" d="M10,25H8v1h2Z"/><path class="ea285-2" d="M9,27H8v3H7V27H6v6H7V31H8v2H9V27Z"/><rect class="ea285-2" x="7" y="26" width="1" height="1"/><path class="ea285-3" d="M7,30H8V27H7v3Z"/><path class="ea285-4" d="M7,31v2H8V31Z"/><path class="ea285-5" d="M12,32h3V28H12Zm1-3h1v2H13Z"/><path class="ea285-5" d="M10,29v3h1V28H10Z"/><path class="ea285-5" d="M16,28v4h3V30H18v1H17V29h2V28H16Z"/><rect class="ea285-2" x="20" y="15" width="1" height="1"/><path class="ea285-4" d="M13,20v2h3V20Z"/><path class="ea285-4" d="M12,19V18h5v2h1V19h1V16H15v1H14V16H10v3h1v1h1Z"/><path class="ea285-4" d="M10,13h1V12h2v1h1v1h1V13h2V11H15V10H11v1H10v2Z"/><rect class="ea285-4" x="14" y="15" width="1" height="1"/><path class="ea285-2" d="M19,17v2h1V16H19Z"/><rect class="ea285-2" x="18" y="19" width="1" height="1"/><rect class="ea285-2" x="17" y="20" width="1" height="1"/><rect class="ea285-2" x="11" y="20" width="1" height="1"/><rect class="ea285-2" x="10" y="19" width="1" height="1"/><path class="ea285-2" d="M10,16H9v3h1V16Z"/><rect class="ea285-2" x="8" y="15" width="1" height="1"/><rect class="ea285-2" x="14" y="16" width="1" height="1"/><path class="ea285-6" d="M11,12v1h2V12Z"/><path class="ea285-6" d="M17,12v1h1V12Z"/><path class="ea285-7" d="M17,19V18H13v1h3v2h1V19Z"/><path class="ea285-7" d="M13,20V19H12v2h1Z"/><path class="ea285-2" d="M16,19H13v1h3Z"/><path class="ea285-2" d="M12,18v1h1V18Z"/><path class="ea285-8" d="M10,12V11H9v2h1Z"/><rect class="ea285-8" x="10" y="10" width="1" height="1"/><path class="ea285-8" d="M15,10v1h2v1h1v1h2v1h1V11H20V10H19V9H17V8H12V9H11v1h4Z"/><path class="ea285-9" d="M11,16h3V15h1v1h5V13H15v1H14V13H9v3h2Zm5-2h3v1H16Zm-6,0h3v1H10Z"/><path class="ea285-10" d="M19,15V14H16v1h3Z"/><path class="ea285-11" d="M13,15V14H10v1h3Z"/></svg>