<svg xmlns="http://www.w3.org/2000/svg" viewBox="0 0 29 33"><defs><style>polygon,rect,path{shape-rendering:crispedges;}.ma249-1{fill:#d4a122;}.ma249-2{fill:#000000;}.ma249-3{fill:#95f9ed;}.ma249-4{fill:#317f03;}.ma249-5{fill:#ce8452;}.ma249-6{fill:#009b97;}.ma249-7{fill:#ffffff;}.ma249-8{fill:#492a23;}.ma249-9{fill:#492a23;}.ma249-10{fill:#cc3232;}</style></defs><path class="ma249-1" d="M6,32V24H7V23H8v1H9v1h1V24h2V21H10V20H9V18H8V12H9V11h1V10h1V9h7v1h1v1h1v2h1v5H20v2H19v1H17v3h2v1h2v1h1v1h1v6h6V0H0V33H6Z"/><path class="ma249-2" d="M23,27H22v6h1V27Z"/><path class="ma249-3" d="M21,30v1h1V29H21Z"/><path class="ma249-3" d="M21,32v1h1V32Z"/><path class="ma249-3" d="M21,28h1V27H21Z"/><rect class="ma249-2" x="21" y="26" width="1" height="1"/><path class="ma249-2" d="M21,31V27H20v6h1V31Z"/><path class="ma249-3" d="M19,26v1H18v3h1v1h1V29H19V28h1V27h1V26H19Z"/><path class="ma249-3" d="M19,32v1h1V32Z"/><path class="ma249-2" d="M20,26h1V25H19v1Z"/><path class="ma249-2" d="M18,30V25h1V24H17v1H16v1h1v7h1V30Z"/><path class="ma249-4" d="M17,26H16v1H13V26H12v7h5V26Z"/><path class="ma249-2" d="M13,26v1h3V26H13Z"/><path class="ma249-5" d="M13,25v1h3V25h1V24H16V23H13v1H12v1Z"/><path class="ma249-2" d="M13,23h3v1h1V21H16v1H13V21H12v3h1Z"/><path class="ma249-2" d="M12,26h1V25H12V24H10v1h1v8h1V26Z"/><rect class="ma249-3" x="9" y="32" width="1" height="1"/><path class="ma249-3" d="M9,27v1h1v1H9v2h1V30h1V27H9Z"/><path class="ma249-2" d="M9,31V27H8v6H9V31Z"/><path class="ma249-3" d="M7,32v1H8V32Z"/><path class="ma249-3" d="M7,30v1H8V29H7Z"/><path class="ma249-3" d="M7,28H8V27H7Z"/><path class="ma249-2" d="M7,31V24H6v9H7V31Z"/><path class="ma249-6" d="M11,30H10v1H9v1h1v1h1V30Z"/><path class="ma249-6" d="M11,27V25H10v2Z"/><path class="ma249-6" d="M18,26v1h1V25H18Z"/><path class="ma249-6" d="M7,29H8V28H7Z"/><path class="ma249-6" d="M10,28H9v1h1Z"/><path class="ma249-6" d="M21,29h1V28H21Z"/><path class="ma249-6" d="M19,29h1V28H19Z"/><path class="ma249-6" d="M21,32h1V31H21Z"/><path class="ma249-6" d="M7,32H8V31H7Z"/><path class="ma249-6" d="M20,32V31H19V30H18v3h1V32Z"/><rect class="ma249-5" x="16" y="12" width="1" height="1"/><rect class="ma249-5" x="11" y="11" width="1" height="1"/><rect class="ma249-5" x="17" y="13" width="1" height="1"/><rect class="ma249-5" x="11" y="13" width="1" height="1"/><rect class="ma249-5" x="9" y="15" width="1" height="1"/><rect class="ma249-5" x="19" y="15" width="1" height="1"/><path class="ma249-5" d="M13,22h3V21h1V20h1V15H17v2H16V15H15V11H14v1H13v2h1v2h1v1H14V16H13V15H11v5h1v1h1Zm-1-3V18h5v1H16v1H13V19Z"/><rect class="ma249-2" x="19" y="16" width="1" height="1"/><rect class="ma249-2" x="9" y="14" width="1" height="1"/><rect class="ma249-2" x="9" y="16" width="1" height="1"/><rect class="ma249-2" x="14" y="16" width="1" height="1"/><path class="ma249-7" d="M12,15h1V14H12Z"/><rect class="ma249-7" x="16" y="14" width="1" height="1"/><path class="ma249-2" d="M11,14v1h1V14Z"/><rect class="ma249-2" x="17" y="14" width="1" height="1"/><rect class="ma249-8" x="11" y="12" width="1" height="1"/><rect class="ma249-8" x="16" y="13" width="1" height="1"/><rect class="ma249-8" x="17" y="12" width="1" height="1"/><path class="ma249-9" d="M19,18H18v2H17v1h2V18Z"/><rect class="ma249-9" x="19" y="17" width="1" height="1"/><path class="ma249-9" d="M11,20V18H10v3h2V20Z"/><rect class="ma249-9" x="9" y="17" width="1" height="1"/><polygon class="ma249-2" points="13 20 16 20 16 19 17 19 17 18 12 18 12 19 13 19 13 20"/><path class="ma249-5" d="M7,27H9V25H8V24H7v3Z"/><path class="ma249-2" d="M10,27V25H9v2Z"/><rect class="ma249-2" x="8" y="24" width="1" height="1"/><rect class="ma249-2" x="7" y="23" width="1" height="1"/><path class="ma249-10" d="M9,16V14h1v4h1V11h1v3h1V12h1V11h1v4h1V12h2v6h1V15h1v3h1V13H20V11H19V10H18V9H11v1H10v1H9v1H8v6H9V16Z"/><path class="ma249-10" d="M9,18v2h1V18Z"/><path class="ma249-10" d="M13,16h1V14H13v2Z"/><path class="ma249-10" d="M16,16v1h1V15H16Z"/><path class="ma249-10" d="M19,19v1h1V18H19Z"/></svg>