<svg xmlns="http://www.w3.org/2000/svg" viewBox="0 0 29 33"><defs><style>polygon,rect,path{shape-rendering:crispedges;}.ia123-1{fill:#d4a122;}.ia123-2{fill:#000000;}.ia123-3{fill:#db5800;}.ia123-4{fill:#b2622b;}.ia123-5{fill:#db5800;}.ia123-6{fill:#ffffff;}.ia123-7{fill:#5e362f;}.ia123-8{fill:#d2d8b8;}.ia123-9{fill:#c9936f;}.ia123-10{fill:#e8b592;}.ia123-11{fill:#9b005c;}.ia123-12{fill:#fad000;}.ia123-13{fill:#ff1d99;}</style></defs><path class="ia123-1" d="M6,32V27H7V26H8V25h2V24h2V21H10v1H9V21H8V20H9V17H8V12H9V10h1V9h1V8h7V9h1v1h1v2h1v4h1v1h1V16h1v2h1v5H24v8H23v1H21v1h8V0H0V33H6Z"/><path class="ia123-1" d="M20,23V22H19V21H17v3h2v1h2V23Z"/><path class="ia123-2" d="M23,26v5h1V25H23Z"/><path class="ia123-3" d="M23,26V25H22v6h1V26Z"/><path class="ia123-2" d="M22,32h1V31H22V25H19v1h2v1H20v6h1V32Z"/><rect class="ia123-3" x="13" y="29" width="1" height="2"/><path class="ia123-3" d="M20,27h1V26H19V25H17v1H16v1H13V26H12V25H10v1H8v1H9v6H20V27Zm-9,2v3H10V28h1Zm4,3H12V28h3Zm4-3H17v2h1V30h1v2H16V28h3Z"/><path class="ia123-2" d="M18,24H17v1h2V24Z"/><rect class="ia123-2" x="16" y="25" width="1" height="1"/><path class="ia123-2" d="M13,26v1h3V26H13Z"/><path class="ia123-2" d="M13,23h3v1h1V21H16v1H13V21H12v3h1Z"/><path class="ia123-4" d="M13,25v1h3V25h1V24H16V23H13v1H12v1Z"/><rect class="ia123-2" x="12" y="25" width="1" height="1"/><path class="ia123-2" d="M12,24H10v1h2Z"/><path class="ia123-2" d="M10,25H8v1h2Z"/><path class="ia123-2" d="M9,27H8v6H9V27Z"/><rect class="ia123-2" x="7" y="26" width="1" height="1"/><path class="ia123-3" d="M8,27H7v6H8V27Z"/><path class="ia123-2" d="M7,27H6v6H7V27Z"/><path class="ia123-5" d="M12,32h3V28H12Zm1-3h1v2H13Z"/><path class="ia123-5" d="M10,29v3h1V28H10Z"/><path class="ia123-5" d="M16,28v4h3V30H18v1H17V29h2V28H16Z"/><path class="ia123-4" d="M13,22h3V21h1V20h1V19h1V16h1V15H16V13h1V11H16V10H15v1H14v1H13v1H12v1h1v1H10v4h1v1h1v1h1Zm1-6h1v1H14Zm-2,3V18h1v1h3v1H13V19Z"/><path class="ia123-4" d="M18,14h1V13H17v1Z"/><path class="ia123-2" d="M20,18V16H19v3h1Z"/><rect class="ia123-2" x="18" y="19" width="1" height="1"/><path class="ia123-2" d="M18,20H17v1h1Z"/><path class="ia123-2" d="M11,20v1h1V20Z"/><rect class="ia123-2" x="10" y="19" width="1" height="1"/><path class="ia123-2" d="M10,18H9v1h1Z"/><rect class="ia123-2" x="14" y="16" width="1" height="1"/><path class="ia123-6" d="M13,15V14H12v1Z"/><path class="ia123-6" d="M10,14v1h1V14Z"/><path class="ia123-6" d="M18,14v1h1V14Z"/><path class="ia123-6" d="M16,14v1h1V14Z"/><path class="ia123-2" d="M11,15h1V14H11Z"/><path class="ia123-2" d="M17,14v1h1V14Z"/><path class="ia123-7" d="M17,13H16v1h1Z"/><path class="ia123-7" d="M18,12H17v1h1Z"/><rect class="ia123-2" x="13" y="19" width="3" height="1"/><rect class="ia123-2" x="12" y="18" width="1" height="1"/><path class="ia123-8" d="M19,21v1h1V19H19v1H18v1Z"/><path class="ia123-8" d="M10,20V19H9v1H8v1H9v1h1V21h1V20Z"/><path class="ia123-8" d="M10,17V14h2V13h1V12h1V11h1V10h1v1h1v1h1v1h1v2h1v3h1V12H20V10H19V9H18V8H11V9H10v1H9v2H8v5H9v1h1Z"/><rect class="ia123-9" x="20" y="22" width="1" height="1"/><path class="ia123-9" d="M24,22.111V23h1V22H24Z"/><rect class="ia123-2" x="21" y="19" width="1" height="1"/><rect class="ia123-2" x="23" y="19" width="1" height="1"/><path class="ia123-10" d="M24,22H21v1h3V22Z"/><path class="ia123-10" d="M24,21V20H23V19H22v1H21v1h3Z"/><path class="ia123-11" d="M21,23v2h3V23H21Z"/><path class="ia123-6" d="M22,18h2V16H23v1H22V16H21v2Z"/><path class="ia123-12" d="M21,18H20v4h1V19h3v3h1V18H21Z"/><path class="ia123-13" d="M24,22V21H21v1h3Z"/></svg>