<svg xmlns="http://www.w3.org/2000/svg" viewBox="0 0 29 33"><defs><style>polygon,rect,path{shape-rendering:crispedges;}.fb85-1{fill:#6b4f99;}.fb85-2{fill:#000000;}.fb85-3{fill:#9b8100;}.fb85-4{fill:#ffffff;}.fb85-5{fill:#ce8452;}.fb85-6{fill:#90a2a3;}.fb85-7{fill:#00686d;}.fb85-8{fill:#00686d;}.fb85-9{fill:#ff5e17;}.fb85-10{fill:#ffffff;}</style></defs><path class="fb85-1" d="M18,22v1h1V21H18Z"/><path class="fb85-1" d="M0,33H6V27H7V26H8V25H9V24h1V23h1V21H10V20H9V16H8V15H9V11h1V10h1V9h1V8h5V9h2v1h1v1h1v3H20v1h1v1H20v4H19v1h3v4h1v8h6V0H0Z"/><path class="fb85-2" d="M7,27H6v6H7V27Z"/><path class="fb85-3" d="M8,27H7v6H8V27Z"/><path class="fb85-2" d="M9,29h1V28h2V27H9V25H8v1H7v1H8v6H9V29Z"/><rect class="fb85-2" x="9" y="24" width="1" height="1"/><path class="fb85-3" d="M12,32V31H11V30H10V29H9v4h4V32Z"/><rect class="fb85-2" x="10" y="23" width="1" height="1"/><path class="fb85-3" d="M10,26v1h2v1H10v1h1v1h1v1h1V26H12V25H11V24H10v1H9v1Z"/><rect class="fb85-3" x="11" y="23" width="1" height="1"/><rect class="fb85-2" x="11" y="24" width="1" height="1"/><rect class="fb85-2" x="10" y="29" width="1" height="1"/><path class="fb85-2" d="M12,24h1V22H11v1h1Z"/><rect class="fb85-2" x="12" y="25" width="1" height="1"/><path class="fb85-4" d="M15,27H14v6h1V27Z"/><path class="fb85-2" d="M17,24V23h1V22H16v2Z"/><path class="fb85-5" d="M17,25V24H16V23H13v1H12v1h1v1h3V25Z"/><rect class="fb85-2" x="16" y="25" width="1" height="1"/><path class="fb85-3" d="M20,29H19v1H18v1H17v1H16v1h4V29Z"/><rect class="fb85-3" x="17" y="23" width="1" height="1"/><rect class="fb85-2" x="17" y="24" width="1" height="1"/><rect class="fb85-2" x="17" y="30" width="1" height="1"/><rect class="fb85-2" x="18" y="23" width="1" height="1"/><path class="fb85-3" d="M19,25V24H18v1H17v1H16v5h1V30h1V29h1V28H17V27h2V25Z"/><path class="fb85-2" d="M21,27V26H20v1H17v1h2v1h1v4h1V27Z"/><path class="fb85-3" d="M22,27H21v6h1V27Z"/><path class="fb85-2" d="M23,25H22v8h1V25Z"/><rect class="fb85-2" x="18" y="29" width="1" height="1"/><rect class="fb85-2" x="11" y="30" width="1" height="1"/><path class="fb85-2" d="M17,32V31H16V26H13v5H12v1h1v1h1V27h1v6h1V32Z"/><path class="fb85-6" d="M19,27h1V26H19Z"/><path class="fb85-6" d="M9,26v1h1V26Z"/><rect class="fb85-2" x="20" y="15" width="1" height="1"/><path class="fb85-5" d="M11,13V12h2v1H11v1h5V13h1V11H15V10H11v1H10v2Z"/><path class="fb85-5" d="M18,17H16V16H15v1H14V16H13v1H11V16H10v2h1v1h1V18h2v1h1V18h2v1h1V18h1V16H18Z"/><path class="fb85-5" d="M18,13H17v1h2V13Z"/><rect class="fb85-5" x="15" y="20" width="1" height="1"/><rect class="fb85-5" x="14" y="15" width="1" height="1"/><rect class="fb85-5" x="9" y="15" width="1" height="1"/><rect class="fb85-5" x="13" y="20" width="1" height="1"/><rect class="fb85-5" x="19" y="15" width="1" height="1"/><rect class="fb85-2" x="8" y="15" width="1" height="1"/><rect class="fb85-2" x="14" y="16" width="1" height="1"/><rect class="fb85-7" x="10" y="13" width="1" height="1"/><rect class="fb85-7" x="11" y="12" width="2" height="1"/><rect class="fb85-7" x="16" y="13" width="1" height="1"/><path class="fb85-7" d="M18,12H17v1h1Z"/><path class="fb85-8" d="M14,18H13v1h1Z"/><path class="fb85-8" d="M13,23h3V22h2V21h1V20h1V16H19v2H18v1H17V18H15v1h1v2H15V20H14v1H13V19H11V18H10V16H9v4h1v1h1v1h2Z"/><path class="fb85-2" d="M13,19v1h3V19H13Z"/><path class="fb85-2" d="M12,18v1h1V18Z"/><path class="fb85-9" d="M10,13V11H9v3h1Z"/><rect class="fb85-9" x="10" y="10" width="1" height="1"/><path class="fb85-9" d="M15,10v1h2v1h1v1h1v1h2V11H20V10H19V9H17V8H12V9H11v1h4Z"/><path class="fb85-2" d="M10,16h1v1h2V16h1V15h1v1h1v1h2V16h1V15h1V14H9v1h1Z"/><rect class="fb85-2" x="20" y="22" width="1" height="1"/><path class="fb85-10" d="M19,24v2h1V25h2V21H19v3Zm1-2h1v1H20Z"/><path class="fb85-5" d="M20,26h1v1h1V25H20Z"/></svg>