<svg xmlns="http://www.w3.org/2000/svg" viewBox="0 0 29 33"><defs><style>polygon,rect,path{shape-rendering:crispedges;}.la260-1{fill:#d4a122;}.la260-2{fill:#000000;}.la260-3{fill:#ffb38d;}.la260-4{fill:#e8b795;}.la260-5{fill:#ffffff;}.la260-6{fill:#6c9302;}.la260-7{fill:#db5800;}.la260-8{fill:#508e91;}</style></defs><path class="la260-1" d="M0,33H6V27H7V26H8V25h2V24h2V21H11V20H9V19H8V11H9V10h1V9h1V8h7V9h1v1h1v1h1v8H20v1H18v1H17v3h2v1h2v1h1v1h1v6h6V0H0Z"/><path class="la260-2" d="M23,27H22v6h1V27Z"/><rect class="la260-2" x="21" y="26" width="1" height="1"/><path class="la260-3" d="M22,27H21v6h1V27Z"/><path class="la260-2" d="M21,27H20v6h1V27Z"/><path class="la260-2" d="M20,26h1V25H19v1Z"/><path class="la260-3" d="M20,27h1V26H19V25H17V24H16V23H13v1H12v1H10v1H8v1H9v6H20V27Z"/><path class="la260-2" d="M18,25h1V24H17v1Z"/><path class="la260-2" d="M13,23h3v1h1V21H16v1H13V21H12v3h1Z"/><path class="la260-2" d="M12,24H10v1h2Z"/><path class="la260-2" d="M10,25H8v1h2Z"/><path class="la260-2" d="M9,27H8v6H9V27Z"/><rect class="la260-2" x="7" y="26" width="1" height="1"/><path class="la260-3" d="M8,27H7v6H8V27Z"/><path class="la260-2" d="M7,27H6v6H7V27Z"/><path class="la260-4" d="M13,14h3V12h1V11H15V10H14v1H13v1H12v1h1Z"/><path class="la260-4" d="M12,15H10v1h3V15Z"/><path class="la260-4" d="M13,22h3V21h1V20h1V19h1V17H16V16H15v1H14V16H13v1H10v2h1v1h1v1h1Zm0-3h3V18h1v1H16v1H13Z"/><path class="la260-4" d="M19,16V15H16v1h3Z"/><rect class="la260-4" x="14" y="15" width="1" height="1"/><path class="la260-2" d="M20,16H19v3h1V16Z"/><path class="la260-2" d="M18,19v1h1V19Z"/><rect class="la260-2" x="17" y="20" width="1" height="1"/><rect class="la260-2" x="11" y="20" width="1" height="1"/><path class="la260-2" d="M10,19v1h1V19Z"/><path class="la260-2" d="M10,18V16H9v3h1Z"/><rect class="la260-2" x="14" y="16" width="1" height="1"/><rect class="la260-5" x="12" y="14" width="1" height="1"/><path class="la260-5" d="M11,14H10v1h1Z"/><path class="la260-5" d="M18,15h1V14H18Z"/><path class="la260-5" d="M16,14v1h1V14Z"/><path class="la260-2" d="M11,14v1h1V14Z"/><path class="la260-2" d="M17,14v1h1V14Z"/><path class="la260-6" d="M16,13h1V12H16Z"/><rect class="la260-2" x="13" y="19" width="3" height="1"/><rect class="la260-2" x="16" y="18" width="1" height="1"/><path class="la260-7" d="M9,16V15H8v4H9V16Z"/><path class="la260-7" d="M20,16v3h1V15H20Z"/><path class="la260-7" d="M10,13h2V12h1V11h1V10h1v1h2v2h2v1h2V11H20V10H19V9H18V8H11V9H10v1H9v1H8v3h2Z"/><path class="la260-7" d="M9,19v1h1V19Z"/><path class="la260-7" d="M19,20h1V19H19Z"/><path class="la260-8" d="M19,15v1h1V15h1V14H19Z"/><path class="la260-8" d="M18,16H16v1h3V16Z"/><path class="la260-8" d="M12,14h1V13H10v1h2Z"/><path class="la260-8" d="M16,14h3V13H16Z"/><path class="la260-8" d="M16,14H13v2h1V15h1v1h1V14Z"/><path class="la260-8" d="M10,16v1h3V16H10Z"/><path class="la260-8" d="M9,16h1V14H8v1H9Z"/></svg>