<svg xmlns="http://www.w3.org/2000/svg" viewBox="0 0 29 33"><defs><style>polygon,rect,path{shape-rendering:crispedges;}.ib94-1{fill:#b4bd09;}.ib94-2{fill:#000000;}.ib94-3{fill:#b2622b;}.ib94-4{fill:#ffffff;}.ib94-5{fill:#4922aa;}.ib94-6{fill:#4922aa;}.ib94-7{fill:#00e070;}</style></defs><rect class="ib94-1" x="9" y="16" width="1"/><rect class="ib94-1" x="19" y="16" width="1"/><rect class="ib94-1" x="16" y="21" width="1"/><rect class="ib94-1" x="14" y="16" width="1"/><rect class="ib94-1" x="12" y="21" width="1"/><path class="ib94-1" d="M0,33H29V0H0Zm6-1V27H7V26H8V25h2V24h2V21H9V20H8V19H9V16H8V15H9V13H8V9H9V8h1V7h1V6h7V7h1V8h1V9h1v4H20v2h1v1H20v3h1v1H20v1H17v3h2v1h2v1h1v1h1v6H6Z"/><path class="ib94-1" d="M13,22Z"/><path class="ib94-2" d="M22,33h1V27H22v6Z"/><path class="ib94-3" d="M21,28v5h1V27H21Z"/><rect class="ib94-2" x="21" y="26" width="1" height="1"/><path class="ib94-2" d="M21,28V27H20v6h1V28Z"/><path class="ib94-3" d="M9,27v6h5V29h1v4h5V27h1V26H19V25H17V24H16V23H13v1H12v1H10v1H8v1Zm8,1h1v1H17Zm-6,0h1v1H11Z"/><path class="ib94-2" d="M20,26h1V25H19v1Z"/><rect class="ib94-2" x="17" y="28" width="1" height="1"/><path class="ib94-2" d="M18,25h1V24H17v1Z"/><path class="ib94-2" d="M15,29H14v4h1V29Z"/><path class="ib94-2" d="M13,23h3v1h1V21H16v1H13V21H12v3h1Z"/><rect class="ib94-2" x="11" y="28" width="1" height="1"/><path class="ib94-2" d="M12,24H10v1h2Z"/><path class="ib94-2" d="M10,25H8v1h2Z"/><path class="ib94-2" d="M9,27H8v6H9V27Z"/><path class="ib94-3" d="M7,32v1H8V27H7v5Z"/><rect class="ib94-2" x="7" y="26" width="1" height="1"/><path class="ib94-2" d="M7,32V27H6v6H7Z"/><polygon class="ib94-2" points="20 16 21 16 21 15 20 15 20 16 20 16"/><polygon class="ib94-3" points="10 16 10 15 9 15 9 15 9 16 10 16"/><rect class="ib94-3" x="18" y="12" width="1" height="1"/><path class="ib94-3" d="M17,21V19h1V18h1V16H16V15H15V14H14v1H13v1H10v2h1v1h1v2h1v1h3V21h1Zm-2-1H14V19h1Zm0-4v1H14V16h1Z"/><polygon class="ib94-3" points="19 16 20 16 20 15 20 15 19 15 19 16"/><rect class="ib94-3" x="10" y="13" width="1" height="1"/><path class="ib94-3" d="M18,12V11H11v1h1v1h4V12Z"/><path class="ib94-2" d="M17,20v1h1V20Z"/><path class="ib94-2" d="M12,20H11v1h1Z"/><polygon class="ib94-2" points="9 15 8 15 8 16 9 16 9 16 9 15"/><polygon class="ib94-2" points="14 17 14 17 15 17 15 16 14 16 14 17"/><path class="ib94-4" d="M11,15H10v1h1Z"/><path class="ib94-4" d="M19,15H18v1h1Z"/><rect class="ib94-5" x="18" y="13" width="1" height="1"/><path class="ib94-5" d="M16,12v1h2V12Z"/><path class="ib94-5" d="M11,12H10v1h2V12Z"/><path class="ib94-6" d="M19,17v1H18v1H17v1h1v1h2V20h1V19H20V16H19Z"/><path class="ib94-6" d="M12,20V19H11V18H10V16H9v3H8v1H9v1h2V20Z"/><rect class="ib94-2" x="14" y="19" width="1" height="1"/><path class="ib94-7" d="M10,13V12h1V11h7v1h1v2h1V13h1V9H20V8H19V7H18V6H11V7H10V8H9V9H8v4H9v1h1Z"/><path class="ib94-2" d="M11,15v1h2V15h1V14h1v1h1v1h2V15h2V14H18V13H11v1H9v1h2Z"/></svg>