<svg xmlns="http://www.w3.org/2000/svg" viewBox="0 0 29 33"><defs><style>polygon,rect,path{shape-rendering:crispedges;}.na152-1{fill:#7a982c;}.na152-2{fill:#000000;}.na152-3{fill:#b23b00;}.na152-4{fill:#9b8100;}.na152-5{fill:#efcaaf;}.na152-6{fill:#ffffff;}.na152-7{fill:#492a23;}.na152-8{fill:#492a23;}.na152-9{fill:#ffce00;}.na152-10{fill:#fad000;}.na152-11{fill:#841f00;}.na152-12{fill:#b23b00;}</style></defs><path class="na152-1" d="M6,32V27H7V26H8V25h2V24h2V21H11V20H10V19H9V17H8V15H9V10h1V9h1V8h7V9h1v1h1v5h1v2H20v2H19v1H18v1H17v3h2v1h2v1h1v1h1v6h6V0H0V33H6Z"/><path class="na152-2" d="M23,27H22v6h1V27Z"/><rect class="na152-2" x="21" y="26" width="1" height="1"/><path class="na152-3" d="M22,27H21v6h1V27Z"/><path class="na152-2" d="M21,27H20v6h1V27Z"/><path class="na152-3" d="M20,27h1V26H19V25H18v8h2V27Z"/><path class="na152-2" d="M20,26h1V25H19v1Z"/><path class="na152-2" d="M18,25h1V24H17v1H16v1h1v7h1V25Z"/><path class="na152-4" d="M17,26H16v1H13V26H12v7h5V26Z"/><path class="na152-2" d="M13,26v1h3V26H13Z"/><path class="na152-2" d="M13,23h3v1h1V21H16v1H13V21H12v3h1Z"/><path class="na152-5" d="M13,25v1h3V25h1V24H16V23H13v1H12v1Z"/><path class="na152-2" d="M12,26h1V25H12V24H10v1h1v8h1V26Z"/><path class="na152-3" d="M11,25H10v1H8v1H9v6h2V25Z"/><path class="na152-2" d="M10,25H8v1h2Z"/><path class="na152-2" d="M9,27H8v6H9V27Z"/><rect class="na152-2" x="7" y="26" width="1" height="1"/><path class="na152-3" d="M8,27H7v6H8V27Z"/><path class="na152-2" d="M7,27H6v6H7V27Z"/><path class="na152-2" d="M21,16V15H20v1Z"/><path class="na152-2" d="M19,15h1V14H19Z"/><rect class="na152-5" x="12" y="19" width="1" height="1"/><path class="na152-5" d="M12,19V18h5v1h2V16h1V15H16V14h2V13H13v2H9v1h1v3h2Zm2-3h1v1H14Z"/><path class="na152-5" d="M12,14V13H10v1h2Z"/><rect class="na152-5" x="13" y="20" width="1" height="1"/><rect class="na152-5" x="16" y="19" width="1" height="1"/><rect class="na152-5" x="15" y="20" width="1" height="1"/><path class="na152-2" d="M19,16v3h1V16Z"/><path class="na152-2" d="M18,20h1V19H18Z"/><rect class="na152-2" x="17" y="20" width="1" height="1"/><rect class="na152-2" x="11" y="20" width="1" height="1"/><path class="na152-2" d="M10,19v1h1V19Z"/><path class="na152-2" d="M10,14H9v1h1Z"/><path class="na152-2" d="M10,16H9v3h1V16Z"/><path class="na152-2" d="M9,15H8v1H9Z"/><rect class="na152-2" x="14" y="16" width="1" height="1"/><path class="na152-6" d="M12,15h1V14H12Z"/><path class="na152-6" d="M10,14v1h1V14Z"/><path class="na152-6" d="M18,14v1h1V14Z"/><path class="na152-6" d="M16,14v1h1V14Z"/><path class="na152-2" d="M11,14v1h1V14Z"/><path class="na152-2" d="M17,14v1h1V14Z"/><rect class="na152-7" x="18" y="13" width="1" height="1"/><path class="na152-7" d="M12,14h1V13H12Z"/><path class="na152-8" d="M17,19v1h1V19Z"/><rect class="na152-8" x="16" y="20" width="1" height="1"/><path class="na152-8" d="M15,20H14v1H13v1h3V21H15Z"/><path class="na152-8" d="M14,19h2V18H12v1h2Z"/><rect class="na152-8" x="12" y="20" width="1" height="1"/><path class="na152-8" d="M12,19H11v1h1Z"/><path class="na152-2" d="M15,20h1V19H13v1h2Z"/><path class="na152-2" d="M17,19V18H16v1Z"/><path class="na152-9" d="M19,14h1V13H19Z"/><path class="na152-9" d="M10,13H9v1h1Z"/><path class="na152-10" d="M20,17h1V16H20Z"/><path class="na152-10" d="M8,16v1H9V16Z"/><path class="na152-11" d="M19,12v1h1V11H19Z"/><path class="na152-12" d="M10,12v1h1V11h1v2h1V11h1v2h1V11h1v2h1V11h1v2h1V11h1V10H19V9H18V8H11V9H10v1H9v1h1Z"/><path class="na152-11" d="M17,11v2h1V11Z"/><path class="na152-11" d="M15,11v2h1V11Z"/><path class="na152-11" d="M13,11v2h1V11Z"/><path class="na152-11" d="M12,12V11H11v2h1Z"/><path class="na152-11" d="M10,12V11H9v2h1Z"/></svg>