<svg xmlns="http://www.w3.org/2000/svg" viewBox="0 0 29 33"><defs><style>polygon,rect,path{shape-rendering:crispedges;}.ib59-1{fill:#31a09d;}.ib59-2{fill:#000000;}.ib59-3{fill:#6d3e35;}.ib59-4{fill:#99004d;}.ib59-5{fill:#72dd40;}.ib59-6{fill:#fad000;}</style></defs><path class="ib59-1" d="M6,32V27H7V26H8V25h2V24h2V21H11V20H9V18H8V12H9V11h1V10h1V9h7v1h1v1h1v2h1v5H20v2H18v1H17v3h2v1h2v1h1v1h1v6h6V0H0V33H6Z"/><path class="ib59-2" d="M23,27H22v6h1V27Z"/><path class="ib59-3" d="M22,27H21v6h1V27Z"/><rect class="ib59-2" x="21" y="26" width="1" height="1"/><path class="ib59-2" d="M21,27H20v6h1V27Z"/><path class="ib59-3" d="M20,27h1V26H19V25H17V24H16V23H13v1H12v1H10v1H8v1H9v6h5V29h1v4h5V27Zm-8,2H11V28h1Zm6,0H17V28h1Z"/><path class="ib59-2" d="M20,26h1V25H19v1Z"/><rect class="ib59-2" x="17" y="28" width="1" height="1"/><path class="ib59-2" d="M18,25h1V24H17v1Z"/><path class="ib59-2" d="M15,29H14v4h1V29Z"/><path class="ib59-2" d="M13,23h3v1h1V21H16v1H13V21H12v3h1Z"/><rect class="ib59-2" x="11" y="28" width="1" height="1"/><path class="ib59-2" d="M12,24H10v1h2Z"/><path class="ib59-2" d="M10,25H8v1h2Z"/><path class="ib59-2" d="M9,27H8v6H9V27Z"/><path class="ib59-3" d="M8,27H7v6H8V27Z"/><rect class="ib59-2" x="7" y="26" width="1" height="1"/><path class="ib59-2" d="M7,27H6v6H7V27Z"/><rect class="ib59-3" x="14" y="15" width="1" height="1"/><path class="ib59-3" d="M14,14h1V11H14v1H13v2Z"/><path class="ib59-3" d="M13,22h3V21h1V20h1V19h1V18H18V17H16V16H15v1H14V16H13v1H11v1H10v1h1v1h1v1h1Zm-1-3V18h5v1H16v1H13V19Z"/><path class="ib59-3" d="M18,12H16v1h2Z"/><path class="ib59-3" d="M12,12V11H11v2h1Z"/><path class="ib59-2" d="M19,16v2h1V16Z"/><path class="ib59-2" d="M18,19v1h1V19Z"/><rect class="ib59-2" x="17" y="20" width="1" height="1"/><rect class="ib59-2" x="11" y="20" width="1" height="1"/><path class="ib59-2" d="M10,19v1h1V19Z"/><path class="ib59-2" d="M10,17V16H9v2h1Z"/><rect class="ib59-2" x="14" y="16" width="1" height="1"/><path class="ib59-4" d="M16,19V18H12v1h4Z"/><path class="ib59-2" d="M13,20h3V19H13Z"/><path class="ib59-2" d="M17,19V18H16v1Z"/><path class="ib59-5" d="M9,15H8v3H9V15Z"/><path class="ib59-5" d="M20,16v2h1V15H20Z"/><rect class="ib59-5" x="10" y="17" width="1" height="1"/><path class="ib59-5" d="M18,17v1h1V17Z"/><path class="ib59-5" d="M10,13h1V11h1v2h1V12h1V11h1v3h1V12h2v1h1v1h2V13H20V11H19V10H18V9H11v1H10v1H9v1H8v2h2Z"/><path class="ib59-5" d="M10,18H9v2h1V18Z"/><path class="ib59-5" d="M19,19v1h1V18H19Z"/><path class="ib59-6" d="M19,16h1V15h1V14H19Z"/><path class="ib59-6" d="M19,14V13H16v1h3Z"/><path class="ib59-2" d="M19,16V14H16v2h3Z"/><path class="ib59-6" d="M19,16H16v1h3Z"/><path class="ib59-6" d="M15,14H13v2h1V15h1v1h1V14Z"/><path class="ib59-6" d="M13,14V13H10v1h3Z"/><path class="ib59-2" d="M12,14H10v2h3V14Z"/><path class="ib59-6" d="M10,16v1h3V16H10Z"/><path class="ib59-6" d="M9,16h1V14H8v1H9Z"/></svg>