<svg xmlns="http://www.w3.org/2000/svg" viewBox="0 0 29 33"><defs><style>polygon,rect,path{shape-rendering:crispedges;}.ua194-1{fill:#000000;}.ua194-2{fill:#d2d8b8;}.ua194-3{fill:#6d3e35;}.ua194-4{fill:#d2d8b8;}.ua194-5{fill:#00774c;}.ua194-6{fill:#ffffff;}.ua194-7{fill:#00af68;}.ua194-8{fill:#d4a122;}.ua194-9{fill:#fad000;}</style></defs><path class="ua194-1" d="M23,27H22v6h1V27Z"/><path class="ua194-2" d="M22,27H21v6h1V27Z"/><rect class="ua194-1" x="21" y="26" width="1" height="1"/><path class="ua194-1" d="M21,27H20v6h1V27Z"/><path class="ua194-2" d="M19,32V31H18v1H17V30H16v1H15v1H13V30H12v2H11V31H10v1H9v1H20V32Z"/><rect class="ua194-2" x="18" y="29" width="1" height="1"/><path class="ua194-2" d="M18,26v1H17v2h1V28h1v1h1V27h1V26H18Z"/><rect class="ua194-2" x="10" y="29" width="1" height="1"/><path class="ua194-2" d="M9,27v2h1V28h1v1h1V27H11V26H8v1Z"/><path class="ua194-3" d="M13,23v1h3V23H13Z"/><path class="ua194-1" d="M11,26V24H10v1H8v1h3Z"/><path class="ua194-1" d="M9,31V27H8v6H9V31Z"/><path class="ua194-2" d="M8,27H7v6H8V27Z"/><rect class="ua194-1" x="7" y="26" width="1" height="1"/><path class="ua194-1" d="M7,27H6v6H7V27Z"/><rect class="ua194-2" x="13" y="25" width="1" height="1"/><rect class="ua194-2" x="15" y="25" width="1" height="1"/><path class="ua194-4" d="M19,30H18V29H17v3h1V31h1v1h1V29H19Z"/><rect class="ua194-4" x="18" y="28" width="1" height="1"/><rect class="ua194-4" x="15" y="30" width="1" height="1"/><path class="ua194-4" d="M14,30H13v2h2V31H14Z"/><path class="ua194-4" d="M11,29v1H10V29H9v3h1V31h1v1h1V29Z"/><rect class="ua194-4" x="10" y="28" width="1" height="1"/><path class="ua194-1" d="M17,28V27H16v1H15v2h2V28Z"/><path class="ua194-3" d="M16,22V21h1V20h1V19h1V14H18v1H16v1H15v1H14V16H13V15H11V14H10v5h1v1h1v1h1v1h3Zm-3-3h3v1H13Z"/><path class="ua194-5" d="M17,15h1V14H17Z"/><rect class="ua194-5" x="16" y="13" width="1" height="1"/><rect class="ua194-1" x="14" y="14" width="1" height="1"/><path class="ua194-6" d="M16,14V13H13v1H12v1h1v1h3V15h1V14Zm-1,1H14V14h1Z"/><path class="ua194-5" d="M16,13V12H13v1h3Z"/><rect class="ua194-5" x="12" y="13" width="1" height="1"/><path class="ua194-5" d="M11,14v1h1V14Z"/><path class="ua194-1" d="M14,17h1V16H14Z"/><path class="ua194-3" d="M11,12v2h1V13h1V12h3v1h1v1h1V12H17V11H12v1Z"/><path class="ua194-7" d="M11,14V12H10v2Z"/><path class="ua194-7" d="M18,13v1h1V12H18Z"/><path class="ua194-2" d="M13,22H12V21H11V20H10V19H9V12h1V11h2V10h5v1h2v1h1v7H19v1H18v1H17v1H16v1h2V22h1V21h1V20h1V11H20V10H19V9H18V8H11V9H10v1H9v1H8v9H9v1h1v1h1v1h2Z"/><rect class="ua194-1" x="10" y="8" width="1" height="1"/><rect class="ua194-1" x="9" y="9" width="1" height="1"/><rect class="ua194-1" x="8" y="10" width="1" height="1"/><path class="ua194-1" d="M8,11H7v9H8V11Z"/><rect class="ua194-1" x="8" y="20" width="1" height="1"/><rect class="ua194-1" x="9" y="21" width="1" height="1"/><rect class="ua194-1" x="10" y="22" width="1" height="1"/><rect class="ua194-1" x="18" y="22" width="1" height="1"/><rect class="ua194-1" x="19" y="21" width="1" height="1"/><rect class="ua194-1" x="20" y="20" width="1" height="1"/><path class="ua194-1" d="M21,20h1V11H21v9Z"/><rect class="ua194-1" x="20" y="10" width="1" height="1"/><rect class="ua194-1" x="19" y="9" width="1" height="1"/><rect class="ua194-1" x="18" y="8" width="1" height="1"/><path class="ua194-1" d="M18,8V7H11V8h7Z"/><path class="ua194-1" d="M12,12V11H10v1h2Z"/><path class="ua194-1" d="M10,14V12H9v7h1V14Z"/><rect class="ua194-1" x="10" y="19" width="1" height="1"/><rect class="ua194-1" x="11" y="20" width="1" height="1"/><rect class="ua194-1" x="12" y="21" width="1" height="1"/><path class="ua194-1" d="M15,22H13v1h3V22Z"/><rect class="ua194-1" x="16" y="21" width="1" height="1"/><rect class="ua194-1" x="17" y="20" width="1" height="1"/><rect class="ua194-1" x="18" y="19" width="1" height="1"/><path class="ua194-1" d="M19,19h1V12H19v7Z"/><path class="ua194-1" d="M18,12h1V11H17v1Z"/><path class="ua194-1" d="M17,11V10H12v1h5Z"/><path class="ua194-8" d="M0,7V33H6V27H7V26H8V25h2V24h1V23H10V22H9V21H8V20H7V11H8V10H9V9h1V8h1V7h7V8h1V9h1v1h1v1h1v9H21v1H20v1H19v1H18v1h1v1h2v1h1v1h1v6h6V0H0Z"/><rect class="ua194-1" x="14" y="30" width="1" height="1"/><path class="ua194-1" d="M14,29V28H13V27H12v3h2Z"/><rect class="ua194-1" x="17" y="26" width="1" height="1"/><rect class="ua194-1" x="11" y="26" width="1" height="1"/><rect class="ua194-1" x="13" y="26" width="1" height="1"/><rect class="ua194-1" x="15" y="26" width="1" height="1"/><path class="ua194-1" d="M12,25v1h1V25h1v1h1V25h1v1h1V24h1V23H16v1H13V23H11v1h1Z"/><rect class="ua194-9" x="16" y="26" width="1" height="1"/><path class="ua194-9" d="M13,27v1h1v2h1V28h1V27H15V26H14v1Z"/><rect class="ua194-9" x="12" y="26" width="1" height="1"/><path class="ua194-9" d="M12,26V24H11v2Z"/><path class="ua194-9" d="M17,25v1h1V24H17Z"/><path class="ua194-1" d="M19,26h2V25H19V24H18v2Z"/><rect class="ua194-1" x="13" y="19" width="3" height="1"/></svg>