<svg xmlns="http://www.w3.org/2000/svg" viewBox="0 0 29 33"><defs><style>polygon,rect,path{shape-rendering:crispedges;}.oa165-1{fill:#7a982c;}.oa165-2{fill:#000000;}.oa165-3{fill:#ffed9f;}.oa165-4{fill:#ffffff;}.oa165-5{fill:#6d3e35;}.oa165-6{fill:#ffffff;}.oa165-7{fill:#316a6d;}.oa165-8{fill:#00774c;}.oa165-9{fill:#ccc;}.oa165-10{fill:#455054;}.oa165-11{fill:#ff1f4a;}.oa165-12{fill:#00af68;}.oa165-13{fill:#ffce00;}.oa165-14{fill:#38a6e8;}</style></defs><path class="oa165-1" d="M12,21H11V20H9V19H8v3H9v2H8v1h2V24h2V21Z"/><path class="oa165-1" d="M0,33H8V32H6V31H5V22H6V21H7V20H5v1H2V17H5V16H7V14H8V11H9V10h1V9h1V8h7V9h1v1h1v1h1v3h1v4H21v1H20v1H18v1H17v3h2v1h2v1h1v1h1v6h6V0H0Z"/><path class="oa165-2" d="M6,24V22H5v9H6V24Z"/><path class="oa165-2" d="M23,27H22v6h1V27Z"/><path class="oa165-3" d="M22,27H21v6h1V27Z"/><rect class="oa165-2" x="21" y="26" width="1" height="1"/><path class="oa165-2" d="M21,27H20v6h1V27Z"/><path class="oa165-3" d="M20,27h1V26H19V25H18v8h2V27Z"/><path class="oa165-2" d="M20,26h1V25H19v1Z"/><path class="oa165-2" d="M18,25h1V24H17v1H16v1h1v7h1V25Z"/><path class="oa165-4" d="M17,26H16v1H13V26H12v7h5V26Z"/><path class="oa165-2" d="M13,26v1h3V26H13Z"/><path class="oa165-5" d="M16,23H13v1H12v1h1v1h3V25h1V24H16Z"/><path class="oa165-2" d="M12,26h1V25H12V24H10v1h1v8h1V26Z"/><path class="oa165-3" d="M11,25H10v1H8v1H9v6h2V25Z"/><path class="oa165-2" d="M9,27H8V26h2V25H8V24H7v7H6v1H8v1H9V27Z"/><path class="oa165-3" d="M7,30V24H6v7H7Z"/><rect class="oa165-5" x="11" y="13" width="1" height="1"/><path class="oa165-5" d="M19,19V15H16V14h2V13H16V12h1V11H15V10H14v1H13v1H12v1h1v2H10v4h1v1h1v1h1v1h3V21h1V20h1V19Zm-5-3h1v1H14Zm3,3H16v1H13V19h3V18h1Z"/><path class="oa165-2" d="M20,17H19v2h1V17Z"/><path class="oa165-2" d="M18,19v1h1V19Z"/><rect class="oa165-2" x="17" y="20" width="1" height="1"/><path class="oa165-2" d="M16,22H13V21H12v3h1V23h3v1h1V21H16Z"/><rect class="oa165-2" x="11" y="20" width="1" height="1"/><path class="oa165-2" d="M11,20V19H10v1Z"/><path class="oa165-2" d="M10,19V17H9v2Z"/><rect class="oa165-2" x="14" y="16" width="1" height="1"/><path class="oa165-6" d="M12,15h1V14H12Z"/><path class="oa165-6" d="M11,15V14H10v1Z"/><path class="oa165-6" d="M18,15h1V14H18Z"/><path class="oa165-6" d="M16,14v1h1V14Z"/><path class="oa165-2" d="M12,15V14H11v1Z"/><path class="oa165-2" d="M17,14v1h1V14Z"/><rect class="oa165-7" x="18" y="13" width="1" height="1"/><path class="oa165-7" d="M16,13h1V12H16Z"/><path class="oa165-7" d="M13,14V13H12v1Z"/><rect class="oa165-2" x="13" y="19" width="3" height="1"/><rect class="oa165-2" x="16" y="18" width="1" height="1"/><path class="oa165-8" d="M20,19h1V18H20Z"/><path class="oa165-8" d="M9,18H8v1H9Z"/><path class="oa165-8" d="M9,14h2V13h1V12h1V11h1V10h1v1h2v2h2v1h1V11H19V10H18V9H11v1H10v1H9v3Z"/><path class="oa165-8" d="M9,20h1V19H9Z"/><path class="oa165-8" d="M19,20h1V19H19Z"/><path class="oa165-6" d="M8,17v1H9V11H8v3H7v2H8Z"/><rect class="oa165-6" x="9" y="10" width="1" height="1"/><rect class="oa165-6" x="10" y="9" width="1" height="1"/><path class="oa165-6" d="M18,9V8H11V9h7Z"/><rect class="oa165-6" x="18" y="9" width="1" height="1"/><rect class="oa165-6" x="19" y="10" width="1" height="1"/><path class="oa165-9" d="M10,16V14H9v3h1Z"/><path class="oa165-6" d="M20,14v4h1V17h1V14H21V11H20v3Z"/><path class="oa165-9" d="M19,16v1h1V14H19v2Z"/><path class="oa165-9" d="M21,18h1V17H21Z"/><path class="oa165-5" d="M7,24H8V22H6v2Z"/><path class="oa165-10" d="M8,22V20H7v2Z"/><path class="oa165-11" d="M3,20H2v1H5V20H3Z"/><path class="oa165-11" d="M8,19H5v1H8Z"/><path class="oa165-2" d="M7,21H6v1H7Z"/><path class="oa165-2" d="M9,22H8v2H9Z"/><path class="oa165-12" d="M7,17H8V16H5v1H7Z"/><path class="oa165-12" d="M5,18V17H2v1H5Z"/><path class="oa165-13" d="M8,17H6v2H8V17Z"/><path class="oa165-13" d="M4,20V18H2v2H4Z"/><path class="oa165-14" d="M6,19V17H5v1H4v2H5V19Z"/></svg>