<svg xmlns="http://www.w3.org/2000/svg" viewBox="0 0 29 33"><defs><style>polygon,rect,path{shape-rendering:crispedges;}.eb5-1{fill:#d14646;}.eb5-2{fill:#000000;}.eb5-3{fill:#3e5e00;}.eb5-4{fill:#ffffff;}.eb5-5{fill:#e8b795;}.eb5-6{fill:#90a2a3;}.eb5-7{fill:#ffffff;}.eb5-8{fill:#893a1f;}.eb5-9{fill:#5a2de2;}.eb5-10{fill:#004a77;}</style></defs><rect class="eb5-1" x="16" y="8" width="1" height="1"/><path class="eb5-1" d="M0,33H6V27H7V26H8V25H9V24h1V23h1V21H10V20H9V16H8V15H9V10h1V9h1V8h1V9h1V8h3V7h1V8h2V9h1v1H19v1h1v4h1v1H20v4H19v1H18v2h1v1h1v1h1v1h1v1h1v6h6V0H0Z"/><path class="eb5-2" d="M23,27H22v6h1V27Z"/><path class="eb5-3" d="M22,27H21v6h1V27Z"/><path class="eb5-2" d="M21,27h1V26H21V25H20v2H17v1h2v1h1v4h1V27Z"/><rect class="eb5-2" x="19" y="24" width="1" height="1"/><path class="eb5-3" d="M20,29H19v1H18v1H17v1H16v1h4V29Z"/><rect class="eb5-2" x="18" y="23" width="1" height="1"/><path class="eb5-3" d="M18,25H17v1H16v5h1V30h1V29h1V28H17V27h2V26h1V25H19V24H18Z"/><path class="eb5-2" d="M17,23h1V22H17Z"/><rect class="eb5-3" x="17" y="23" width="1" height="1"/><rect class="eb5-2" x="17" y="24" width="1" height="1"/><rect class="eb5-2" x="18" y="29" width="1" height="1"/><rect class="eb5-2" x="16" y="23" width="1" height="1"/><rect class="eb5-2" x="16" y="25" width="1" height="1"/><path class="eb5-4" d="M15,27H14v6h1V27Z"/><rect class="eb5-2" x="12" y="23" width="1" height="1"/><path class="eb5-5" d="M17,25V24H16V23H13v1H12v1h1v1h3V25Z"/><rect class="eb5-2" x="12" y="25" width="1" height="1"/><path class="eb5-3" d="M12,32V31H11V30H10V29H9v4h4V32Z"/><path class="eb5-2" d="M12,22H11v1h1Z"/><rect class="eb5-3" x="11" y="23" width="1" height="1"/><rect class="eb5-2" x="11" y="24" width="1" height="1"/><rect class="eb5-2" x="11" y="30" width="1" height="1"/><rect class="eb5-2" x="10" y="23" width="1" height="1"/><rect class="eb5-2" x="9" y="24" width="1" height="1"/><path class="eb5-3" d="M10,26v1h2v1H10v1h1v1h1v1h1V26H12V25H11V24H10v1H9v1Z"/><path class="eb5-2" d="M9,29h1V28h2V27H9V25H8v1H7v1H8v6H9V29Z"/><path class="eb5-3" d="M8,27H7v6H8V27Z"/><path class="eb5-2" d="M7,27H6v6H7V27Z"/><rect class="eb5-2" x="10" y="29" width="1" height="1"/><rect class="eb5-2" x="17" y="30" width="1" height="1"/><path class="eb5-2" d="M17,32V31H16V26H13v5H12v1h1v1h1V27h1v6h1V32Z"/><path class="eb5-6" d="M9,26v1h1V26Z"/><path class="eb5-6" d="M19,27h1V26H19Z"/><rect class="eb5-2" x="20" y="15" width="1" height="1"/><rect class="eb5-5" x="10" y="12" width="1" height="1"/><polygon class="eb5-5" points="18 14 19 14 19 13 17 13 17 14 18 14"/><path class="eb5-5" d="M10,17h1v1h5v1h1V18h1V17h1V16h1V15H16V13h1V12h1V11H13V10H12v1H11v1h2v1H11v1h2v1H9v1h1Zm4-1h1v1H14Z"/><rect class="eb5-2" x="8" y="15" width="1" height="1"/><rect class="eb5-2" x="14" y="16" width="1" height="1"/><path class="eb5-7" d="M10,15h1V14H10Z"/><path class="eb5-7" d="M16,14v1h1V14Z"/><path class="eb5-2" d="M12,15h1V14H11v1Z"/><path class="eb5-2" d="M18,14H17v1h3V14H18Z"/><rect class="eb5-8" x="10" y="13" width="1" height="1"/><rect class="eb5-8" x="11" y="12" width="2" height="1"/><path class="eb5-8" d="M17,13H16v1h1Z"/><path class="eb5-8" d="M19,12H17v1h2Z"/><path class="eb5-9" d="M15,18H13v1h3V18Z"/><path class="eb5-9" d="M12,23h5V22h1V21h1V20h1V16H19v1H18v1H17v1H16v1H13V19H12V18H11V17H10V16H9v4h1v1h1v1h1Z"/><rect class="eb5-2" x="13" y="19" width="3" height="1"/><path class="eb5-2" d="M12,18v1h1V18Z"/><path class="eb5-10" d="M10,14V12h1V11h1V10h1v1h5v1h1v2h1V11H19V10h1V9H19V8H17V9H16V8H13V9H12V8H11V9H10v1H9v5h1Z"/><rect class="eb5-10" x="16" y="7" width="1" height="1"/></svg>