<svg xmlns="http://www.w3.org/2000/svg" viewBox="0 0 29 33"><defs><style>polygon,rect,path{shape-rendering:crispedges;}.aa86-1{fill:#29834f;}.aa86-2{fill:#000000;}.aa86-3{fill:#efcaaf;}.aa86-4{fill:#db5800;}.aa86-5{fill:#ffb38d;}.aa86-6{fill:#ffffff;}.aa86-7{fill:#8e4717;}.aa86-8{fill:#8e4717;}.aa86-9{fill:#0068ff;}.aa86-10{fill:#ff6aa5;}.aa86-11{fill:#ad5a21;}</style></defs><path class="aa86-1" d="M0,33H6V27H7V26H8V25h2V24h2V21H11V20H10V19H9V16H8V15H9V11h1V10h1V9h7v1h2v5h1v1H20v3H19v1H18v1H17v2h1V22h3v1h1v2h1v8h6V0H0Z"/><path class="aa86-2" d="M7,31V27H6v6H7Z"/><rect class="aa86-2" x="7" y="26" width="1" height="1"/><path class="aa86-3" d="M8,31V27H7v6H8Z"/><rect class="aa86-3" x="8" y="26" width="1" height="1"/><path class="aa86-2" d="M9,31V27H8v6H9Z"/><path class="aa86-2" d="M10,26V25H8v1Z"/><rect class="aa86-4" x="18" y="30" width="1" height="1"/><rect class="aa86-4" x="10" y="30" width="1" height="1"/><rect class="aa86-4" x="18" y="32" width="1" height="1"/><path class="aa86-4" d="M14,31v1h1V30H14Z"/><path class="aa86-4" d="M17,31V30h1V29h1v1h1V27H18V26H17v1H16v1H13V27H12V26H11V25H10v1H9v4h1V29h1v1h1v3h1V29h2v1h1v2H15v1h2Z"/><rect class="aa86-4" x="10" y="32" width="1" height="1"/><path class="aa86-2" d="M13,23h3v1h1V21H16v1H13V21H12v3h1Z"/><path class="aa86-2" d="M21,31V27H20v6h1Z"/><path class="aa86-3" d="M22,31V25H20v2h1v6h1Z"/><path class="aa86-2" d="M23,31V25H22v8h1Z"/><path class="aa86-2" d="M11,26h1V24H10v1h1Z"/><rect class="aa86-2" x="12" y="26" width="1" height="1"/><rect class="aa86-2" x="16" y="26" width="1" height="1"/><path class="aa86-2" d="M14,27H13v1h3V27Z"/><path class="aa86-3" d="M12,26h1v1h3V26h1V24H16V23H13v1H12Z"/><path class="aa86-5" d="M20,31V30H19v1H18V30H17v3h1V32h1v1h1Z"/><rect class="aa86-5" x="18" y="29" width="1" height="1"/><path class="aa86-5" d="M15,32h1V30H15Z"/><path class="aa86-5" d="M14,32V30h1V29H13v4h2V32Z"/><path class="aa86-5" d="M12,31V30H11v1H10V30H9v3h1V32h1v1h1Z"/><rect class="aa86-5" x="10" y="29" width="1" height="1"/><rect class="aa86-2" x="20" y="15" width="1" height="1"/><path class="aa86-2" d="M19,13v2h1V12H19Z"/><rect class="aa86-3" x="15" y="20" width="1" height="1"/><path class="aa86-3" d="M10,13h1V11H10Z"/><rect class="aa86-3" x="16" y="19" width="1" height="1"/><path class="aa86-3" d="M16,13V12h1V11H16V10H13v1H12v1h1v1H11v1h3V13Z"/><rect class="aa86-3" x="17" y="10" width="1" height="1"/><path class="aa86-3" d="M12,19V18h5v1h2V16h1V15H16V14H14v2h1v1H14V16H13v1H11V16H10v3Z"/><path class="aa86-3" d="M17,13v1h2V13Z"/><rect class="aa86-3" x="13" y="20" width="1" height="1"/><rect class="aa86-3" x="9" y="15" width="1" height="1"/><rect class="aa86-3" x="11" y="10" width="1" height="1"/><rect class="aa86-3" x="12" y="19" width="1" height="1"/><path class="aa86-2" d="M19,17v2h1V16H19Z"/><rect class="aa86-2" x="18" y="19" width="1" height="1"/><rect class="aa86-2" x="17" y="20" width="1" height="1"/><rect class="aa86-2" x="11" y="20" width="1" height="1"/><rect class="aa86-2" x="10" y="19" width="1" height="1"/><path class="aa86-2" d="M10,17V16H9v3h1Z"/><rect class="aa86-2" x="8" y="15" width="1" height="1"/><rect class="aa86-2" x="14" y="16" width="1" height="1"/><rect class="aa86-6" x="18" y="14" width="1" height="1"/><rect class="aa86-6" x="16" y="14" width="1" height="1"/><rect class="aa86-2" x="17" y="14" width="1" height="1"/><rect class="aa86-7" x="10" y="13" width="1" height="1"/><path class="aa86-7" d="M13,12H11v1h2Z"/><rect class="aa86-7" x="16" y="13" width="1" height="1"/><rect class="aa86-7" x="18" y="12" width="1" height="1"/><rect class="aa86-8" x="17" y="19" width="1" height="1"/><rect class="aa86-8" x="16" y="20" width="1" height="1"/><path class="aa86-8" d="M15,20H14v1H13v1h3V21H15Z"/><path class="aa86-8" d="M14,19h3V18H13v1Z"/><rect class="aa86-8" x="12" y="20" width="1" height="1"/><rect class="aa86-8" x="11" y="19" width="1" height="1"/><path class="aa86-2" d="M15,20h1V19H13v1Z"/><rect class="aa86-2" x="12" y="18" width="1" height="1"/><rect class="aa86-9" x="19" y="11" width="1" height="1"/><rect class="aa86-9" x="18" y="10" width="1" height="1"/><path class="aa86-9" d="M12,11h1V10h3v1h1V10h1V9H11v1h1Z"/><rect class="aa86-9" x="17" y="11" width="1" height="1"/><rect class="aa86-9" x="11" y="11" width="1" height="1"/><rect class="aa86-9" x="10" y="10" width="1" height="1"/><rect class="aa86-9" x="9" y="11" width="1" height="1"/><path class="aa86-2" d="M10,16h1v1h2V16h1V14H10V12H9v3h1Z"/><rect class="aa86-2" x="14" y="13" width="2" height="1"/><path class="aa86-2" d="M18,12H16v1h2Z"/><rect class="aa86-2" x="18" y="11" width="1" height="1"/><rect class="aa86-2" x="19" y="10" width="1" height="1"/><rect class="aa86-10" x="21" y="23" width="1" height="1"/><rect class="aa86-10" x="20" y="22" width="1" height="1"/><rect class="aa86-10" x="18" y="22" width="1" height="1"/><path class="aa86-10" d="M18,25v1h2V25Z"/><rect class="aa86-10" x="17" y="24" width="1" height="1"/><path class="aa86-11" d="M18,25h1V24h1v1h1V23H18Z"/><path class="aa86-11" d="M18,26v1h2V26Z"/><rect class="aa86-6" x="21" y="24" width="1" height="1"/><rect class="aa86-6" x="19" y="22" width="1" height="1"/><rect class="aa86-6" x="17" y="23" width="1" height="1"/><rect class="aa86-6" x="17" y="25" width="1" height="1"/><rect class="aa86-2" x="19" y="24" width="1" height="1"/></svg>