<svg xmlns="http://www.w3.org/2000/svg" viewBox="0 0 29 33"><defs><style>polygon,rect,path{shape-rendering:crispedges;}.ma236-1{fill:#d14646;}.ma236-2{fill:#000000;}.ma236-3{fill:#66334f;}.ma236-4{fill:#db5800;}.ma236-5{fill:#efcaaf;}.ma236-6{fill:#ffffff;}.ma236-7{fill:#af8423;}.ma236-8{fill:#af8423;}.ma236-9{fill:#ffffff;}.ma236-10{fill:#e70059;}.ma236-11{fill:#5a2de2;}.ma236-12{fill:#ff1d99;}.ma236-13{fill:#6e12ff;}</style></defs><path class="ma236-1" d="M0,33H6V27H7V26H8V25h2V24h2V22H11V21H10V20H9V16H8V14H9V11h1V10h1V9h7v1h1v1h1v3h1v2H20v4H19v1H18v1H17v2h2v1h2v1h1v1h1v6h6V0H0Z"/><path class="ma236-2" d="M23,27H22v6h1V27Z"/><rect class="ma236-2" x="21" y="26" width="1" height="1"/><path class="ma236-3" d="M21,28v2h1V27H21Z"/><path class="ma236-3" d="M21,31v2h1V31Z"/><path class="ma236-2" d="M21,30V27H20v6h1V30Z"/><path class="ma236-3" d="M20,32V26H19V25H18v3h1v1H18v4h1V32Z"/><path class="ma236-2" d="M20,26h1V25H19v1Z"/><path class="ma236-2" d="M18,29V25h1V24H17v1H16v1h1v7h1V29Z"/><path class="ma236-4" d="M17,26H16v1H13V26H12v7h5V26Z"/><path class="ma236-2" d="M16,24h1V23H16Z"/><path class="ma236-2" d="M13,26v1h3V26H13Z"/><path class="ma236-2" d="M13,23H12v1h1Z"/><path class="ma236-5" d="M13,25v1h3V25h1V24H16V23H13v1H12v1Z"/><path class="ma236-2" d="M12,26h1V25H12V24H10v1h1v8h1V26Z"/><path class="ma236-3" d="M11,29H10V28h1V25H10v1H9v6h1v1h1V29Z"/><path class="ma236-2" d="M10,26V25H8v1h2Z"/><path class="ma236-2" d="M9,31V27H8v6H9V31Z"/><rect class="ma236-2" x="7" y="26" width="1" height="1"/><path class="ma236-3" d="M7,31v2H8V31Z"/><path class="ma236-3" d="M7,30H8V27H7v3Z"/><path class="ma236-2" d="M7,30V27H6v6H7V30Z"/><path class="ma236-6" d="M10,29h1V28H10Z"/><path class="ma236-6" d="M19,29V28H18v1Z"/><path class="ma236-6" d="M9,27V26H8v1Z"/><path class="ma236-6" d="M19,32v1h1V32Z"/><path class="ma236-6" d="M9,32v1h1V32Z"/><path class="ma236-6" d="M7,31H8V30H7Z"/><path class="ma236-6" d="M21,31h1V30H21Z"/><path class="ma236-6" d="M20,27h1V26H20Z"/><path class="ma236-2" d="M20,16h1V15H20Z"/><path class="ma236-2" d="M19,13v1h1V12H19Z"/><path class="ma236-5" d="M16,16H15v1H14V16H13v1H11v1h7V17H16Z"/><path class="ma236-5" d="M12,13h1v1h3V12h1V11H16V10H13v1H12v2Z"/><rect class="ma236-5" x="14" y="15" width="1" height="1"/><rect class="ma236-5" x="10" y="11" width="1" height="1"/><path class="ma236-5" d="M18,12v1h1V11H18Z"/><rect class="ma236-5" x="17" y="10" width="1" height="1"/><rect class="ma236-5" x="11" y="10" width="1" height="1"/><path class="ma236-2" d="M10,13V12H9v2h1Z"/><path class="ma236-2" d="M8,15v1H9V15Z"/><rect class="ma236-2" x="14" y="16" width="1" height="1"/><path class="ma236-7" d="M16,12v1h2V12H16Z"/><path class="ma236-7" d="M12,12H10v1h2Z"/><path class="ma236-8" d="M14,23h3V22h1V21h1V20h1V16H19v1H18v1H17v1H16v1H13V19H12V18H11V17H10V16H9v4h1v1h1v1h1v1h2Z"/><path class="ma236-2" d="M12,18v1h1V18Z"/><path class="ma236-2" d="M16,19h1V18H16Z"/><path class="ma236-2" d="M15,20h1V19H15Z"/><path class="ma236-2" d="M15,19V18H14v1Z"/><path class="ma236-2" d="M13,19v1h1V19Z"/><path class="ma236-9" d="M14,18H13v1h1Z"/><path class="ma236-9" d="M15,18v1h1V18Z"/><path class="ma236-10" d="M14,19v1h1V19Z"/><path class="ma236-11" d="M20,12V11H19v1Z"/><rect class="ma236-11" x="18" y="10" width="1" height="1"/><path class="ma236-11" d="M12,11h1V10h3v1h1V10h1V9H11v1h1Z"/><path class="ma236-11" d="M18,12V11H17v1Z"/><path class="ma236-11" d="M12,11H11v1h1Z"/><rect class="ma236-11" x="10" y="10" width="1" height="1"/><path class="ma236-11" d="M10,11H9v1h1Z"/><path class="ma236-12" d="M19,15v1h1V15h1V14H19Z"/><path class="ma236-12" d="M16,14h3V13H16Z"/><path class="ma236-13" d="M19,14H16v2h3V14Z"/><path class="ma236-12" d="M16,16v1h3V16H16Z"/><path class="ma236-12" d="M13,14v2h1V15h1v1h1V14H13Z"/><path class="ma236-12" d="M13,14V13H10v1h3Z"/><path class="ma236-13" d="M13,16V14H10v2h3Z"/><path class="ma236-12" d="M13,16H10v1h3Z"/><path class="ma236-12" d="M10,15V14H8v1H9v1h1Z"/></svg>