<svg xmlns="http://www.w3.org/2000/svg" viewBox="0 0 29 33"><defs><style>polygon,rect,path{shape-rendering:crispedges;}.va241-1{fill:#e55b35;}.va241-2{fill:#ff1d99;}.va241-3{fill:#000000;}.va241-4{fill:#e8b795;}.va241-5{fill:#ffffff;}.va241-6{fill:#473a35;}.va241-7{fill:#0068ff;}.va241-8{fill:#00af68;}</style></defs><path class="va241-1" d="M0,33H8V32H6V31H5V23H4V20H5V19H7v1H8v1H9v2H8v2h2V22h1V20H10V19H9V16H8V15H9V10h1V9h1V8h7V9h1v2h1v4h1v1H20v3H19v1H18v2h1v3h2V23H20V21h1V20h1V19h2v1h1v3H24v8H23v1H21v1h8V0H0Z"/><path class="va241-2" d="M19,32H9v1H20V32Z"/><path class="va241-3" d="M18,25h1V22H18v3Z"/><path class="va241-2" d="M17,23v1H16v1H15v2H14v4h6V27h1V26H19V25H18V22H17Z"/><rect class="va241-3" x="15" y="24" width="1" height="1"/><path class="va241-3" d="M15,26V25H14v2h1Z"/><rect class="va241-3" x="13" y="24" width="1" height="1"/><path class="va241-4" d="M15,24h1V23H13v1h1v1h1Z"/><path class="va241-3" d="M11,24V22H10v3h1Z"/><path class="va241-2" d="M9,26H8v1H9v4h4V27h1V25H13V24H12V22H11v3H10v1Z"/><path class="va241-3" d="M6,24V23H5v8H6V24Z"/><path class="va241-2" d="M7,30V24H6v7H7Z"/><path class="va241-3" d="M23,24v7h1V23H23Z"/><path class="va241-3" d="M22,32h1V31H22V23H21v2H19v1h2v1H20v4H14V27H13v4H9V27H8V26h2V25H8V23H7v8H6v1H8v1H9V32H20v1h1V32Z"/><path class="va241-2" d="M23,24H22v7h1V24Z"/><rect class="va241-3" x="20" y="15" width="1" height="1"/><path class="va241-3" d="M19,14v1h1V11H19v3Z"/><path class="va241-4" d="M12,19V18h5v2h1V19h1V16h1V15H16V14h2V13H16V12h2v1h1V11H18V10H17v1H16V10H15v1H14V10H13v1H12V10H11v1H10v2h1V12h2v1H11v1h2v1H9v1h1v3h1v1h1Zm2-3h1v1H14Z"/><path class="va241-4" d="M13,20v2h3V20Z"/><path class="va241-3" d="M19,17v2h1V16H19Z"/><rect class="va241-3" x="18" y="19" width="1" height="1"/><path class="va241-3" d="M12,23v1h1V23h3v1h1V22h1V20H17v1H16v1H13V21H12V20H11v2h1Z"/><rect class="va241-3" x="13" y="9" width="1" height="1"/><rect class="va241-3" x="17" y="9" width="1" height="1"/><rect class="va241-3" x="15" y="9" width="1" height="1"/><rect class="va241-3" x="11" y="9" width="1" height="1"/><rect class="va241-3" x="10" y="10" width="1" height="1"/><rect class="va241-3" x="10" y="19" width="1" height="1"/><path class="va241-3" d="M10,14V11H9v4h1Z"/><path class="va241-3" d="M10,16H9v3h1V16Z"/><rect class="va241-3" x="8" y="15" width="1" height="1"/><rect class="va241-3" x="14" y="16" width="1" height="1"/><path class="va241-5" d="M13,15V14H12v1Z"/><path class="va241-5" d="M10,15h1V14H10Z"/><path class="va241-5" d="M18,14v1h1V14Z"/><path class="va241-5" d="M16,14v1h1V14Z"/><path class="va241-3" d="M12,15V14H11v1Z"/><path class="va241-3" d="M17,14v1h1V14Z"/><path class="va241-6" d="M19,13H18v1h1Z"/><rect class="va241-6" x="16" y="12" width="2" height="1"/><path class="va241-6" d="M11,14V13H10v1Z"/><rect class="va241-6" x="11" y="12" width="2" height="1"/><path class="va241-7" d="M13,18v1h3v2h1V18Z"/><path class="va241-7" d="M13,19H12v2h1V19Z"/><path class="va241-3" d="M16,20V19H13v1Z"/><path class="va241-3" d="M13,18H12v1h1Z"/><path class="va241-3" d="M20,21v2h1V21Z"/><rect class="va241-3" x="21" y="20" width="1" height="1"/><rect class="va241-3" x="22" y="19" width="2" height="1"/><path class="va241-3" d="M24,23h1V20H24v3Z"/><path class="va241-4" d="M22,24h1V23h1V20H22v1H21v2h1Z"/><path class="va241-3" d="M9,23V21H8v2Z"/><rect class="va241-3" x="7" y="20" width="1" height="1"/><rect class="va241-3" x="5" y="19" width="2" height="1"/><path class="va241-3" d="M5,20H4v3H5V20Z"/><path class="va241-4" d="M6,24H7V23H8V21H7V20H5v3H6Z"/><path class="va241-8" d="M18,11h1V9H18v2Z"/><path class="va241-8" d="M12,10v1h1V9h1v2h1V9h1v2h1V9h1V8H11V9h1Z"/><rect class="va241-8" x="10" y="9" width="1" height="1"/><path class="va241-8" d="M10,10H9v1h1Z"/></svg>