<svg xmlns="http://www.w3.org/2000/svg" viewBox="0 0 29 33"><defs><style>polygon,rect,path{shape-rendering:crispedges;}.pa114-1{fill:#db5a8e;}.pa114-2{fill:#000000;}.pa114-3{fill:#db5800;}.pa114-4{fill:#e8b795;}.pa114-5{fill:#ffffff;}.pa114-6{fill:#473a35;}.pa114-7{fill:#473a35;}.pa114-8{fill:#4922aa;}</style></defs><path class="pa114-1" d="M0,33H6V24H7V23H8v1H9v1h1V24h1V23H10V22h1V21H10V20H9V16H8V14H9V12H8v1H7V12H8V11H9V10h1V9h2V8h5V9h2v1h1v1h1v1h1v1H21V12H20v2h1v2H20v4H19v1H18v1h1v1H18v1h1v1h2v1h1v1h1v6h6V0H0Z"/><path class="pa114-2" d="M23,27H22v6h1V27Z"/><path class="pa114-3" d="M22,27H21v6h1V27Z"/><rect class="pa114-2" x="21" y="26" width="1" height="1"/><path class="pa114-2" d="M21,27H20v6h1V27Z"/><path class="pa114-3" d="M20,27h1V26H19V25H18V24H16v1h1v5H16V25H13v5H12V25h1V24H11v1H10v2H9v6H20V27Z"/><path class="pa114-2" d="M20,26h1V25H19v1Z"/><rect class="pa114-2" x="18" y="24" width="1" height="1"/><rect class="pa114-2" x="18" y="22" width="1" height="1"/><rect class="pa114-3" x="17" y="22" width="1" height="1"/><path class="pa114-2" d="M13,24v1h3V24H13Z"/><path class="pa114-4" d="M15,23H13v1h3V23Z"/><path class="pa114-2" d="M13,23V22H12v1H11v1h2Z"/><rect class="pa114-3" x="11" y="22" width="1" height="1"/><rect class="pa114-2" x="10" y="24" width="1" height="1"/><rect class="pa114-2" x="10" y="22" width="1" height="1"/><path class="pa114-2" d="M9,27H8v6H9V27Z"/><path class="pa114-3" d="M8,27H7v6H8V27Z"/><path class="pa114-2" d="M7,27V24H6v9H7V27Z"/><path class="pa114-2" d="M12,26v4h1V25H12Z"/><path class="pa114-2" d="M16,30h1V25H16v5Z"/><path class="pa114-2" d="M20,16h1V15H20Z"/><rect class="pa114-2" x="19" y="14" width="1" height="1"/><path class="pa114-4" d="M10,17v1h1v1h1V18h5v1h1V18h1V16h1V15H16V13h1V12H15V11H14v1H13v1H11v1h2v1H9v1h1Zm4-1h1v1H14Z"/><path class="pa114-4" d="M18,14h1V13H17v1Z"/><rect class="pa114-4" x="13" y="20" width="1" height="1"/><rect class="pa114-4" x="15" y="20" width="1" height="1"/><path class="pa114-2" d="M17,22H16v2h2V23H17Z"/><path class="pa114-2" d="M10,15V14H9v1Z"/><path class="pa114-2" d="M8,15v1H9V15Z"/><rect class="pa114-2" x="14" y="16" width="1" height="1"/><path class="pa114-5" d="M13,15V14H12v1Z"/><path class="pa114-5" d="M10,15h1V14H10Z"/><path class="pa114-5" d="M18,14v1h1V14Z"/><path class="pa114-5" d="M16,14v1h1V14Z"/><path class="pa114-2" d="M12,15V14H11v1Z"/><path class="pa114-2" d="M17,14v1h1V14Z"/><rect class="pa114-6" x="10" y="13" width="1" height="1"/><path class="pa114-6" d="M12,13h1V12H12Z"/><path class="pa114-6" d="M17,13H16v1h1Z"/><path class="pa114-7" d="M13,22v1h3V22h2V21h1V20h1V16H19v2H18v1H16v2H15V20H14v1H13V19H11V18H10V16H9v4h1v1h1v1h2Z"/><path class="pa114-2" d="M16,18H12v1h1v1h3V19h1V18Z"/><path class="pa114-4" d="M7,27H9V25H8V24H7v3Z"/><path class="pa114-2" d="M10,27V25H9v2Z"/><rect class="pa114-2" x="8" y="24" width="1" height="1"/><rect class="pa114-2" x="7" y="23" width="1" height="1"/><rect class="pa114-8" x="21" y="12" width="1" height="1"/><path class="pa114-8" d="M10,13h2V12h2V11h1v1h2v1h2v1h1V12h1V11H20V10H19V9H17V8H12V9H10v1H9v1H8v1H9v2h1Z"/><path class="pa114-8" d="M21,15V14H20v1Z"/><path class="pa114-8" d="M9,14H8v1H9Z"/><rect class="pa114-8" x="7" y="12" width="1" height="1"/></svg>