<svg xmlns="http://www.w3.org/2000/svg" viewBox="0 0 29 33"><defs><style>polygon,rect,path{shape-rendering:crispedges;}.sa221-1{fill:#6b4f99;}.sa221-2{fill:#000000;}.sa221-3{fill:#cc2f76;}.sa221-4{fill:#512a24;}.sa221-5{fill:#ffffff;}.sa221-6{fill:#317f03;}.sa221-7{fill:#317f03;}</style></defs><polygon class="sa221-1" points="10 20 10 19 10 19 10 20 11 20 11 20 10 20"/><polygon class="sa221-1" points="18 21 18 21 18 21 18 20 18 20 18 21"/><polygon class="sa221-1" points="11 20 11 20 11 21 11 21 11 21 11 20"/><polygon class="sa221-1" points="14 16 15 16 15 17 14 17 14 17 15 17 15 16 14 16 14 16"/><polygon class="sa221-1" points="19 20 18 20 18 20 19 20 19 19 19 19 19 20"/><path class="sa221-2" d="M23,27H22v6h1V27Z"/><path class="sa221-3" d="M22,27H21v6h1V27Z"/><rect class="sa221-2" x="21" y="26" width="1" height="1"/><path class="sa221-2" d="M21,27H20v6h1V27Z"/><path class="sa221-3" d="M20,27h1V26H19V25H18V24H16v1h1v3h2v1H17v2h1V30h1v2H16V25H13v3h2v4H12V25h1V24H11v1H10v1H8v1H9v6H20V27Zm-9,2v3H10V28h1Z"/><path class="sa221-2" d="M20,26h1V25H19v1Z"/><rect class="sa221-2" x="18" y="24" width="1" height="1"/><rect class="sa221-2" x="17" y="21" height="1"/><rect class="sa221-2" x="17" y="21" width="1"/><path class="sa221-2" d="M16,22h0v2h2V23H16Z"/><path class="sa221-2" d="M13,24v1h3V24H13Z"/><path class="sa221-4" d="M15,23H13v1h3V23Z"/><path class="sa221-2" d="M13,23H11v1h2Z"/><rect class="sa221-2" x="12" y="21" height="1"/><rect class="sa221-2" x="11" y="21" width="1"/><rect class="sa221-2" x="10" y="24" width="1" height="1"/><path class="sa221-2" d="M10,25H8v1h2Z"/><path class="sa221-2" d="M9,27H8v6H9V27Z"/><path class="sa221-3" d="M8,27H7v6H8V27Z"/><rect class="sa221-2" x="7" y="26" width="1" height="1"/><path class="sa221-2" d="M7,27H6v6H7V27Z"/><path class="sa221-3" d="M14,31V29H13v2Z"/><path class="sa221-5" d="M14,29v2H13V30H12v2h3V28H13v1Z"/><path class="sa221-5" d="M10,29v3h1V28H10Z"/><path class="sa221-5" d="M18,29h1V28H17v1Z"/><path class="sa221-5" d="M16,31v1h3V30H18v1H17V30H16Z"/><path class="sa221-2" d="M12,26v4h1V25H12Z"/><path class="sa221-2" d="M16,30h1V25H16v5Z"/><rect class="sa221-4" x="19" y="19"/><rect class="sa221-4" x="11" y="20"/><rect class="sa221-4" x="18" y="20"/><path class="sa221-4" d="M10,14V13h1V12H10v2Z"/><rect class="sa221-4" x="13" y="20" width="1" height="1"/><path class="sa221-4" d="M13,12v1h4V11H12v1Z"/><rect class="sa221-4" x="10" y="19"/><rect class="sa221-4" x="15" y="20" width="1" height="1"/><path class="sa221-4" d="M19,16V15H18v1H16V15H15V14H14v1H13v1H11V15H10v1h0v2h1v1h1V18h2v1h1V18h2v1h1V18h1V16Zm-4,1H14V16h1Z"/><path class="sa221-4" d="M18,13v1h1V12h0v1Z"/><rect class="sa221-4" x="17" y="21"/><rect class="sa221-4" x="12" y="21"/><rect class="sa221-2" x="12" y="22" width="1"/><polygon class="sa221-2" points="15 16 14 16 14 16 14 17 14 17 15 17 15 16"/><rect class="sa221-6" x="10" y="13" width="1" height="1"/><path class="sa221-6" d="M12,12H11v1h2V12Z"/><path class="sa221-6" d="M17,12v1h2V12H17Z"/><rect class="sa221-3" x="20" y="21"/><rect class="sa221-3" x="10" y="22"/><rect class="sa221-3" x="9" y="21"/><rect class="sa221-3" x="21" y="20"/><rect class="sa221-3" x="8" y="20"/><rect class="sa221-3" x="19" y="22"/><path class="sa221-3" d="M13,23h0V22H12V21H11V20H10V19H9V12h1V11h2V10h5v1h2v1h1v7H19v1H18v1H17v1H16v1h2V22h1V21h1V20h1V11H20V10H19V9H18V8H11V9H10v1H9v1H8v9H9v1h1v1h1v1h2Z"/><rect class="sa221-2" x="10" y="8" width="1" height="1"/><rect class="sa221-2" x="9" y="9" width="1" height="1"/><rect class="sa221-2" x="8" y="10" width="1" height="1"/><path class="sa221-2" d="M8,19V11H7v9H8Z"/><polygon class="sa221-2" points="9 20 8 20 8 20 8 21 9 21 9 21 9 20"/><polygon class="sa221-2" points="10 21 9 21 9 21 9 22 10 22 10 22 10 21"/><polygon class="sa221-2" points="11 22 10 22 10 22 10 23 11 23 11 23 11 22"/><polygon class="sa221-2" points="18 22 18 23 18 23 19 23 19 22 19 22 18 22"/><polygon class="sa221-2" points="19 21 19 22 19 22 20 22 20 21 20 21 19 21"/><polygon class="sa221-2" points="20 20 20 21 20 21 21 21 21 20 21 20 20 20"/><path class="sa221-2" d="M21,20h1V11H21v9Z"/><rect class="sa221-2" x="20" y="10" width="1" height="1"/><rect class="sa221-2" x="19" y="9" width="1" height="1"/><rect class="sa221-2" x="18" y="8" width="1" height="1"/><path class="sa221-2" d="M18,8V7H11V8h7Z"/><path class="sa221-2" d="M12,12V11H10v1h2Z"/><path class="sa221-2" d="M9,19V17h1V16h0V15h1v1h2V15h1V14h1v1h1v1h2V15h1v1h0v1h1v2h0V12H19v2H18V13H11v1H10V12H9v7H9Z"/><path class="sa221-2" d="M18,12h1V11H17v1Z"/><path class="sa221-2" d="M17,11V10H12v1h5Z"/><path class="sa221-1" d="M0,7V33H6V27H7V26H8V25h2V24h1V23H10V22H9V21H8V20H7V11H8V10H9V9h1V8h1V7h7V8h1V9h1v1h1v1h1v9H21v1H20v1H19v1H18v1h1v1h2v1h1v1h1v6h6V0H0Z"/><path class="sa221-7" d="M14,18H13v1h1Z"/><path class="sa221-7" d="M16,23V22h1V21h1V20h1V19h1V17H19v1H18v1H17V18H15v1h1v2H15V20H14v1H13V19H11V18H10V17H9v2h1v1h1v1h1v1h1v1h3Z"/><path class="sa221-2" d="M13,19v1h3V19H13Z"/><path class="sa221-2" d="M12,18v1h1V18Z"/></svg>