<svg xmlns="http://www.w3.org/2000/svg" viewBox="0 0 29 33"><defs><style>polygon,rect,path{shape-rendering:crispedges;}.eb167-1{fill:#b4bd09;}.eb167-2{fill:#000000;}.eb167-3{fill:#326b43;}.eb167-4{fill:#333333;}.eb167-5{fill:#a56e49;}.eb167-6{fill:#90a2a3;}.eb167-7{fill:#ffffff;}.eb167-8{fill:#9b8100;}.eb167-9{fill:#9b8100;}.eb167-10{fill:#c8a715;}.eb167-11{fill:#db5800;}.eb167-12{fill:#455054;}.eb167-13{fill:#ff1f4a;}.eb167-14{fill:#002b4f;}</style></defs><rect class="eb167-1" x="8" y="24" width="1" height="1"/><path class="eb167-1" d="M0,33H8V32H6V31H5V22H6V21H7V20H5v1H2V17H5V16H8V15H9V11h1V10h1V9h2V7h1V5h1V6h1V8h1V9h1v1h1v1h1v4h1v1H20v4H19v4h1v1h1v1h1v1h1v6h6V0H0Z"/><path class="eb167-1" d="M8,18v4H9v2h1V20H9V16H8v2Z"/><path class="eb167-2" d="M23,27H22v6h1V27Z"/><path class="eb167-3" d="M22,27H21v6h1V27Z"/><path class="eb167-2" d="M21,27h1V26H21V25H20v2H17v1h2v1h1v4h1V27Z"/><rect class="eb167-2" x="19" y="24" width="1" height="1"/><path class="eb167-3" d="M20,29H19v1H18v1H17v1H16v1h4V29Z"/><path class="eb167-3" d="M18,25H17v1H16v5h1V30h1V29h1V28H17V27h2V26h1V25H19V24H18Z"/><rect class="eb167-2" x="18" y="29" width="1" height="1"/><rect class="eb167-2" x="17" y="22" width="1" height="1"/><rect class="eb167-3" x="17" y="23" width="1" height="1"/><rect class="eb167-2" x="17" y="24" width="1" height="1"/><rect class="eb167-2" x="17" y="30" width="1" height="1"/><rect class="eb167-2" x="16" y="25" width="1" height="1"/><path class="eb167-2" d="M17,32V31H16V26H13v5H12v1h1v1h1V27h1v6h1V32Z"/><path class="eb167-4" d="M15,27H14v6h1V27Z"/><path class="eb167-5" d="M16,24V23H13v3h3V24Z"/><path class="eb167-2" d="M12,25v1h1V25Z"/><path class="eb167-3" d="M12,32V31H11V30H10V29H9v4h4V32Z"/><rect class="eb167-2" x="11" y="22" width="1" height="1"/><rect class="eb167-3" x="11" y="23" width="1" height="1"/><rect class="eb167-2" x="11" y="24" width="1" height="1"/><rect class="eb167-2" x="11" y="30" width="1" height="1"/><rect class="eb167-2" x="10" y="29" width="1" height="1"/><rect class="eb167-2" x="9" y="24" width="1" height="1"/><path class="eb167-3" d="M12,25H11V24H10v1H9v1h1v1h2v1H10v1h1v1h1v1h1V26H12Z"/><path class="eb167-2" d="M9,29h1V28h2V27H9V25H8V24H7v7H6v1H8v1H9V29Z"/><path class="eb167-3" d="M7,30V24H6v7H7Z"/><path class="eb167-2" d="M6,24V22H5v9H6V24Z"/><path class="eb167-6" d="M9,26v1h1V26Z"/><path class="eb167-6" d="M19,27h1V26H19Z"/><rect class="eb167-2" x="20" y="15" width="1" height="1"/><path class="eb167-2" d="M19,14v1h1V11H19v3Z"/><rect class="eb167-5" x="19" y="15" width="1" height="1"/><path class="eb167-5" d="M12,14V13H10v1h2Z"/><polygon class="eb167-5" points="13 21 14 21 14 22 15 22 15 21 16 21 16 20 13 20 13 21"/><rect class="eb167-5" x="9" y="15" width="1" height="1"/><path class="eb167-5" d="M12,12v1h1v3H10v2h1v1h1V18h2v1h1V18h2v1h1V18h1V16H16V14h2V13H16V12h2v1h1V11H18V10H14v1H13V10H11v1H10v1Zm2,4h1v1H14Z"/><path class="eb167-2" d="M19,17h1V16H19Z"/><rect class="eb167-2" x="18" y="10" width="1" height="1"/><path class="eb167-2" d="M15,10h3V9H15Z"/><path class="eb167-2" d="M13,9H11v1h2Z"/><rect class="eb167-2" x="10" y="10" width="1" height="1"/><path class="eb167-2" d="M10,14V11H9v4h1Z"/><path class="eb167-2" d="M10,16H9v1h1Z"/><rect class="eb167-2" x="8" y="15" width="1" height="1"/><rect class="eb167-2" x="14" y="16" width="1" height="1"/><path class="eb167-7" d="M11,15V14H10v2h1Z"/><path class="eb167-7" d="M12,15v1h1V14H12Z"/><path class="eb167-7" d="M16,14v2h1V14Z"/><path class="eb167-7" d="M19,14H18v2h1V14Z"/><path class="eb167-2" d="M12,14H11v2h1V14Z"/><path class="eb167-2" d="M17,14v2h1V14Z"/><path class="eb167-8" d="M19,13H18v1h1Z"/><rect class="eb167-8" x="16" y="12" width="2" height="1"/><path class="eb167-8" d="M13,14V13H12v1Z"/><path class="eb167-8" d="M12,12H10v1h2Z"/><path class="eb167-9" d="M16,18H15v1h1Z"/><path class="eb167-9" d="M19,18H18v1H16v2H15v1H14V21H13V19h1V18H12v1H11V18H10V17H9v3h1v2h2v1h5V22h2V20h1V17H19Z"/><path class="eb167-10" d="M18,23h1V22H18Z"/><path class="eb167-9" d="M18,24h1V23H18Z"/><path class="eb167-10" d="M17,24V23H16v1Z"/><path class="eb167-9" d="M16,24v1h1V24Z"/><path class="eb167-10" d="M13,24V23H12v1Z"/><path class="eb167-9" d="M12,25h1V24H12Z"/><path class="eb167-10" d="M11,22H10v1h1Z"/><path class="eb167-9" d="M11,23H10v1h1Z"/><path class="eb167-2" d="M13,20h3V19H13Z"/><path class="eb167-2" d="M17,19V18H16v1Z"/><path class="eb167-11" d="M13,11h1V10h1V9h2V8H16V6H15V5H14V7H13v4Z"/><path class="eb167-5" d="M7,24H8V22H6v2Z"/><path class="eb167-12" d="M8,22V20H7v2Z"/><path class="eb167-2" d="M7,21H6v1H7Z"/><path class="eb167-2" d="M9,22H8v2H9Z"/><path class="eb167-13" d="M5,17H2v1H5Z"/><path class="eb167-13" d="M8,16H5v1H8Z"/><path class="eb167-13" d="M2,21H5V20H2Z"/><path class="eb167-13" d="M8,19H5v1H8Z"/><path class="eb167-7" d="M5,19V18H2v1H5Z"/><path class="eb167-7" d="M6,18H8V17H5v1Z"/><path class="eb167-14" d="M6,18H5v1H8V18Z"/><path class="eb167-14" d="M4,19H2v1H5V19Z"/></svg>