<svg xmlns="http://www.w3.org/2000/svg" viewBox="0 0 29 33"><defs><style>polygon,rect,path{shape-rendering:crispedges;}.ib73-1{fill:#db5a8e;}.ib73-2{fill:#000000;}.ib73-3{fill:#c18d59;}.ib73-4{fill:#ffffff;}.ib73-5{fill:#9b8100;}.ib73-6{fill:#fad000;}.ib73-7{fill:#45ba00;}.ib73-8{fill:#5a2de2;}.ib73-9{fill:#efc075;}.ib73-10{fill:#2aa8e8;}.ib73-11{fill:#d8aa68;}.ib73-12{fill:#563e1b;}</style></defs><path class="ib73-1" d="M21,25V16H20v4H19v1H17v1h1v1h1v2h2Z"/><path class="ib73-1" d="M6,32V28H5V27H4V25H5V24H8v1h2V23h1V22h1V21H10V20H9V16H8V15H9V10h1V9h1V8h7V9h1v1h1v5h1V14h1v8h1v1h1v8H23v1H22v1h7V0H0V33H6Z"/><path class="ib73-2" d="M23,31h1V23H23v8Z"/><path class="ib73-2" d="M7,27H5v1H6v5H7V27Z"/><path class="ib73-3" d="M8,26H7V25H5v2H7v6H8V26Z"/><path class="ib73-2" d="M9,26h1V25H8v8H9V26Z"/><path class="ib73-3" d="M14,29H13V27H12V26H11V25H10v1H9v7h5V29Zm-2,0H11V28h1Z"/><path class="ib73-3" d="M20,27h1V26H19V25H18v1H17v1H16v2H15v4h5V27Zm-2,2H17V28h1Z"/><path class="ib73-3" d="M14,24h1v1h1V23H13v2h1Z"/><rect class="ib73-2" x="11" y="28" width="1" height="1"/><path class="ib73-2" d="M15,29H14v4h1V29Z"/><rect class="ib73-2" x="17" y="28" width="1" height="1"/><path class="ib73-2" d="M21,29V27H20v6h1V29Z"/><rect class="ib73-2" x="22" y="31" width="1" height="1"/><path class="ib73-2" d="M20,25H19v1h2V25Z"/><rect class="ib73-2" x="20" y="15" width="1" height="1"/><path class="ib73-2" d="M19,15h1V14H19Z"/><path class="ib73-3" d="M13,22h3V21h1V20h1V18h1V16h1V15H16V13h1V12h1V11H17V10H12v1H11v1h2v1H11v1h2v1H9v1h1v2h1v2h1v1h1Zm1-6h1v1H14Zm-2,3V18h1v1h3v1H13V19Z"/><rect class="ib73-3" x="10" y="12" width="1" height="1"/><polygon class="ib73-3" points="18 14 19 14 19 13 17 13 17 14 18 14"/><path class="ib73-2" d="M20,16H19v1h1Z"/><path class="ib73-2" d="M10,14H9v1h1Z"/><path class="ib73-2" d="M10,16H9v1h1Z"/><rect class="ib73-2" x="8" y="15" width="1" height="1"/><rect class="ib73-2" x="14" y="16" width="1" height="1"/><path class="ib73-4" d="M13,15V14H12v1Z"/><path class="ib73-4" d="M10,15h1V14H10Z"/><path class="ib73-4" d="M18,14v1h1V14Z"/><path class="ib73-4" d="M16,14v1h1V14Z"/><path class="ib73-2" d="M12,15V14H11v1Z"/><path class="ib73-2" d="M17,14v1h1V14Z"/><rect class="ib73-5" x="10" y="13" width="1" height="1"/><rect class="ib73-5" x="11" y="12" width="2" height="1"/><path class="ib73-5" d="M17,13H16v1h1Z"/><path class="ib73-5" d="M19,12H17v1h2Z"/><rect class="ib73-2" x="12" y="26" width="1" height="1"/><path class="ib73-2" d="M15,28v1h1V27H15Z"/><rect class="ib73-2" x="16" y="26" width="1" height="1"/><path class="ib73-2" d="M13,27v2h1V27Z"/><rect class="ib73-2" x="17" y="25" width="1" height="1"/><rect class="ib73-2" x="11" y="25" width="1" height="1"/><rect class="ib73-2" x="14" y="24" width="1" height="1"/><rect class="ib73-2" x="13" y="25" width="1" height="1"/><rect class="ib73-2" x="15" y="25" width="1" height="1"/><path class="ib73-2" d="M12,24v1h1V23h3v2h1V23h1V22H17V21H16v1H13V21H12v1H11v1h1Z"/><rect class="ib73-6" x="16" y="25" width="1" height="1"/><path class="ib73-6" d="M15,26V25H14v1H13v1h1v2h1V27h1V26Z"/><rect class="ib73-6" x="12" y="25" width="1" height="1"/><path class="ib73-6" d="M11,25h1V23H11v2Z"/><path class="ib73-6" d="M17,23v2h1V23Z"/><path class="ib73-2" d="M18,23v2h1V23Z"/><path class="ib73-2" d="M11,24V23H10v2h1Z"/><path class="ib73-7" d="M19,20h1V17H19v1H18v2H17v1h2Z"/><path class="ib73-7" d="M11,20V18H10V17H9v3h1v1h2V20Z"/><rect class="ib73-2" x="13" y="19" width="3" height="1"/><rect class="ib73-2" x="12" y="18" width="1" height="1"/><path class="ib73-8" d="M10,13V12h1V11h1V10h5v1h1v1h1v2h1V10H19V9H18V8H11V9H10v1H9v4h1Z"/><path class="ib73-9" d="M21,27v2h1V27Z"/><path class="ib73-9" d="M21,20v1h1V19H21Z"/><path class="ib73-9" d="M21,17h1V15H21v2Z"/><path class="ib73-10" d="M22,14H21v1h1Z"/><path class="ib73-3" d="M21,23v2h1v6h1V23H21Z"/><path class="ib73-11" d="M22,26V25H21v2h1Z"/><path class="ib73-11" d="M21,23h1V21H21Z"/><path class="ib73-11" d="M21,18v1h1V17H21Z"/><path class="ib73-4" d="M7,26H8V24H5v1H7Z"/><path class="ib73-12" d="M22,31V29H21v4h1V31Z"/><path class="ib73-2" d="M23,23V22H22v1Z"/><path class="ib73-2" d="M4,25v2H5V25Z"/></svg>