<svg xmlns="http://www.w3.org/2000/svg" viewBox="0 0 29 33"><defs><style>polygon,rect,path{shape-rendering:crispedges;}.ga144-1{fill:#d4a122;}.ga144-2{fill:#000000;}.ga144-3{fill:#e1ff85;}.ga144-4{fill:#c18d59;}.ga144-5{fill:#ffffff;}.ga144-6{fill:#317f03;}.ga144-7{fill:#8e4717;}.ga144-8{fill:#99ce09;}</style></defs><path class="ga144-1" d="M0,33H6V27H7V26H8V25h2V24h2V21H10V20H9V16H8V14H9V12H8v1H7V12H8V11H9V10h1V9h2V8h5V9h2v1h1v1h1v1h1v1H21V12H20v2h1v2H20v4H19v1H17v3h2v1h2v1h1v1h1v6h6V0H0Z"/><path class="ga144-2" d="M23,27H22v6h1V27Z"/><rect class="ga144-2" x="21" y="26" width="1" height="1"/><path class="ga144-3" d="M22,27H21v6h1V27Z"/><path class="ga144-2" d="M21,27H20v6h1V27Z"/><path class="ga144-2" d="M20,26h1V25H19v1Z"/><path class="ga144-3" d="M20,27h1V26H19V25H17v1H16v1H13V26H12V25H10v1H9v7H20V27Z"/><path class="ga144-2" d="M18,25h1V24H17v1Z"/><rect class="ga144-2" x="16" y="25" width="1" height="1"/><path class="ga144-2" d="M13,26v1h3V26H13Z"/><path class="ga144-2" d="M13,23h3v1h1V21H16v1H13V21H12v3h1Z"/><path class="ga144-4" d="M13,25v1h3V25h1V24H16V23H13v1H12v1Z"/><rect class="ga144-2" x="12" y="25" width="1" height="1"/><path class="ga144-2" d="M12,24H10v1h2Z"/><path class="ga144-2" d="M9,26h1V25H8v1H7v1H8v6H9V26Z"/><path class="ga144-3" d="M8,27H7v6H8V27Z"/><path class="ga144-2" d="M7,27H6v6H7V27Z"/><path class="ga144-2" d="M20,16h1V15H20Z"/><rect class="ga144-2" x="19" y="14" width="1" height="1"/><path class="ga144-4" d="M10,14h2V13H10Z"/><path class="ga144-4" d="M13,22h3V21h1V20h1V18h1V16h1V15H16V14h2V13H16V12H15V11H14v1H12v1h1v2H9v1h1v2h1v2h1v1h1Zm1-6h1v1H14Zm-1,3h3V18h1v1H16v1H13Z"/><path class="ga144-2" d="M19,17h1V16H19Z"/><path class="ga144-2" d="M10,15V14H9v1Z"/><path class="ga144-2" d="M10,16H9v1h1Z"/><path class="ga144-2" d="M8,15v1H9V15Z"/><rect class="ga144-2" x="14" y="16" width="1" height="1"/><path class="ga144-5" d="M12,15h1V14H12Z"/><path class="ga144-5" d="M10,14v1h1V14Z"/><path class="ga144-5" d="M18,14v1h1V14Z"/><path class="ga144-5" d="M16,14v1h1V14Z"/><path class="ga144-2" d="M11,14v1h1V14Z"/><path class="ga144-2" d="M17,14v1h1V14Z"/><rect class="ga144-6" x="18" y="13" width="1" height="1"/><path class="ga144-6" d="M16,12v1h1V12Z"/><path class="ga144-6" d="M13,14V13H12v1Z"/><path class="ga144-7" d="M19,18H18v2H17v1h2V20h1V17H19Z"/><path class="ga144-7" d="M11,20V18H10V17H9v3h1v1h2V20Z"/><rect class="ga144-2" x="13" y="19" width="3" height="1"/><rect class="ga144-2" x="16" y="18" width="1" height="1"/><rect class="ga144-8" x="21" y="12" width="1" height="1"/><path class="ga144-8" d="M10,13h2V12h2V11h1v1h2v1h2v1h1V12h1V11H20V10H19V9H17V8H12V9H10v1H9v1H8v1H9v2h1Z"/><path class="ga144-8" d="M21,15V14H20v1Z"/><path class="ga144-8" d="M9,14H8v1H9Z"/><rect class="ga144-8" x="7" y="12" width="1" height="1"/></svg>