<svg xmlns="http://www.w3.org/2000/svg" viewBox="0 0 29 33"><defs><style>polygon,rect,path{shape-rendering:crispedges;}.bb125-1{fill:#d14646;}.bb125-2{fill:#000000;}.bb125-3{fill:#326b43;}.bb125-4{fill:#ffffff;}.bb125-5{fill:#e8b795;}.bb125-6{fill:#b23b00;}.bb125-7{fill:#99004d;}.bb125-8{fill:#4fdb7d;}</style></defs><path class="bb125-1" d="M0,33H6V27H7V26H8V25h2V24h1V23h1V21H10V20H9V16H8V15H9V11h1V10h1V9h1V8h1V6h1V5h1V7h1V9h2v1h1v1h1v4h1v1H20v4H19v1H17v2h1v1h1v1h2v1h1v1h1v6h6V0H0Z"/><path class="bb125-2" d="M23,27H22v6h1V27Z"/><path class="bb125-3" d="M22,27H21v6h1V27Z"/><rect class="bb125-2" x="21" y="26" width="1" height="1"/><path class="bb125-2" d="M21,27H20v6h1V27Z"/><path class="bb125-3" d="M20,27h1V26H19V25H18v4H17v4h3V27Z"/><path class="bb125-2" d="M20,26h1V25H19v1Z"/><path class="bb125-2" d="M17,29H16v4h1V29Z"/><rect class="bb125-4" x="16" y="24" width="1" height="1"/><path class="bb125-4" d="M16,29h1V26H16V25H13v1H12v3h1v4h1V32h1v1h1V29Zm-1,2H14V30h1Zm0-2H14V28h1Zm0-2H14V26h1Z"/><rect class="bb125-4" x="15" y="23" width="1" height="1"/><rect class="bb125-2" x="14" y="32" width="1" height="1"/><rect class="bb125-2" x="14" y="30" width="1" height="1"/><rect class="bb125-2" x="14" y="28" width="1" height="1"/><rect class="bb125-2" x="14" y="26" width="1" height="1"/><rect class="bb125-4" x="13" y="23" width="1" height="1"/><path class="bb125-2" d="M13,29H12v4h1V29Z"/><rect class="bb125-4" x="12" y="24" width="1" height="1"/><path class="bb125-3" d="M12,29H11V25H10v1H8v1H9v6h3V29Z"/><path class="bb125-2" d="M11,26v3h1V26h1V25H12V24h1V23h1v1H13v1h3V24H15V23h1v1h1v1H16v1h1v3h1V25h1V24H18V23H17V21H16v1H13V21H12v2H11v1H10v1h1Z"/><path class="bb125-2" d="M10,25H8v1h2Z"/><path class="bb125-2" d="M9,27H8v6H9V27Z"/><path class="bb125-3" d="M8,27H7v6H8V27Z"/><rect class="bb125-2" x="7" y="26" width="1" height="1"/><path class="bb125-2" d="M7,27H6v6H7V27Z"/><rect class="bb125-2" x="20" y="15" width="1" height="1"/><path class="bb125-2" d="M19,13v2h1V11H19v2Z"/><path class="bb125-5" d="M18,14h1V13H17v1Z"/><path class="bb125-5" d="M13,22h3V21h1V20h1V18h1V16h1V15H16V13h1V12h2V11H18V10H16v1H15V10H11v1H10v2h1V12h2v1H11v1h2v1H9v1h1v2h1v2h1v1h1Zm1-6h1v1H14Zm-2,3V18h5v1H16v1H13V19Z"/><path class="bb125-2" d="M19,17h1V16H19Z"/><rect class="bb125-2" x="18" y="10" width="1" height="1"/><path class="bb125-2" d="M17,10h1V9H16v1Z"/><path class="bb125-2" d="M14,10V9H11v1h3Z"/><rect class="bb125-2" x="10" y="10" width="1" height="1"/><path class="bb125-2" d="M10,14V11H9v4h1Z"/><path class="bb125-2" d="M10,16H9v1h1Z"/><rect class="bb125-2" x="8" y="15" width="1" height="1"/><rect class="bb125-2" x="14" y="16" width="1" height="1"/><path class="bb125-4" d="M13,15V14H12v1Z"/><path class="bb125-4" d="M10,15h1V14H10Z"/><path class="bb125-4" d="M18,14v1h1V14Z"/><path class="bb125-4" d="M16,14v1h1V14Z"/><path class="bb125-2" d="M12,15V14H11v1Z"/><path class="bb125-2" d="M17,14v1h1V14Z"/><path class="bb125-6" d="M11,14V13H10v1Z"/><rect class="bb125-6" x="11" y="12" width="2" height="1"/><path class="bb125-6" d="M17,13H16v1h1Z"/><path class="bb125-6" d="M19,12H17v1h2Z"/><path class="bb125-7" d="M19,18H18v2H17v1h2V20h1V17H19Z"/><path class="bb125-7" d="M11,20V18H10V17H9v3h1v1h2V20Z"/><path class="bb125-2" d="M13,18H12v1h1Z"/><path class="bb125-2" d="M17,19V18H16v1Z"/><path class="bb125-2" d="M13,19v1h3V19H15V18H14v1Z"/><path class="bb125-4" d="M14,19V18H13v1Z"/><path class="bb125-4" d="M16,19V18H15v1Z"/><path class="bb125-8" d="M14,10h1v1h1V7H15V5H14V6H13V8H12V9h2Z"/></svg>