<svg xmlns="http://www.w3.org/2000/svg" viewBox="0 0 29 33"><defs><style>polygon,rect,path{shape-rendering:crispedges;}.hb18-1{fill:#d14646;}.hb18-2{fill:#000000;}.hb18-3{fill:#e8b795;}.hb18-4{fill:#ffffff;}.hb18-5{fill:#000000;}.hb18-6{fill:#c9a717;}.hb18-7{fill:#455054;}.hb18-8{fill:#ffffff;}.hb18-9{fill:#900;}</style></defs><path class="hb18-1" d="M0,33H8V32H6V31H5V22H6V21H7V20H5v1H2V17H5V16H8V15H9V14H8V13H4V12H6V11H8V10h2V9h1V8h1V7h1V6h1V5h1V6h1V7h1V8h1V9h1v1h2v1h2v1h2v1H21v1H20v1h1v1H20v4H19v1H17v3h2v1h2v1h1v1h1v6h6V0H0Z"/><path class="hb18-1" d="M8,19v3H9v2H8v1h2V24h2V21H10V20H9V16H8v3Z"/><path class="hb18-2" d="M6,22H5v9H6V22Z"/><path class="hb18-2" d="M23,27H22v6h1V27Z"/><path class="hb18-3" d="M22,27H21v6h1V27Z"/><rect class="hb18-2" x="21" y="26" width="1" height="1"/><path class="hb18-2" d="M21,27H20v6h1V27Z"/><path class="hb18-3" d="M20,27h1V26H19V25H17V24H16V23H13v1H12v1H10v1H8v1H9v6h5V29h1v4h5V27Zm-8,2H11V28h1Zm6,0H17V28h1Z"/><path class="hb18-2" d="M20,26h1V25H19v1Z"/><rect class="hb18-2" x="17" y="28" width="1" height="1"/><path class="hb18-2" d="M18,25h1V24H17v1Z"/><path class="hb18-2" d="M15,29H14v4h1V29Z"/><rect class="hb18-2" x="11" y="28" width="1" height="1"/><path class="hb18-2" d="M10,25h2V24H10Z"/><path class="hb18-2" d="M9,27H8V26h2V25H8V24H7v7H6v1H8v1H9V27Z"/><path class="hb18-3" d="M7,30V24H8V22H6v9H7Z"/><rect class="hb18-2" x="20" y="15" width="1" height="1"/><rect class="hb18-2" x="19" y="14" width="1" height="1"/><path class="hb18-3" d="M10,16v2h1v2h1v1h1v1h3V21h1V20h1V18h1V16h1V15H16V14H13v1H9v1Zm4,0h1v1H14Zm-1,3h3v1H13Z"/><path class="hb18-2" d="M19,17h1V16H19Z"/><path class="hb18-2" d="M16,22H13V21H12v3h1V23h3v1h1V21H16Z"/><path class="hb18-2" d="M10,14H9v1h1Z"/><path class="hb18-2" d="M10,16H9v1h1Z"/><rect class="hb18-2" x="8" y="15" width="1" height="1"/><rect class="hb18-2" x="14" y="16" width="1" height="1"/><path class="hb18-4" d="M12,15h1V14H12Z"/><path class="hb18-4" d="M10,14v1h1V14Z"/><path class="hb18-4" d="M18,14v1h1V14Z"/><path class="hb18-4" d="M16,14v1h1V14Z"/><path class="hb18-2" d="M11,14v1h1V14Z"/><path class="hb18-2" d="M17,14v1h1V14Z"/><path class="hb18-5" d="M19,18H18v2H17v1h2V20h1V17H19Z"/><path class="hb18-5" d="M11,20V18H10V17H9v3h1v1h2V20Z"/><rect class="hb18-2" x="13" y="19" width="3" height="1"/><path class="hb18-6" d="M11,14H21V13h4V12H23V11H21V10H19V9H18V8H17V7H16V6H15V5H14V6H13V7H12V8H11V9H10v1H8v1H6v1H4v1H8v1h3Z"/><path class="hb18-7" d="M8,22V20H7v2Z"/><path class="hb18-8" d="M4,19V18H5V17H2v4H5V20H4Z"/><path class="hb18-8" d="M8,19V16H5v1H6v2H5v1H8Z"/><path class="hb18-2" d="M7,21H6v1H7Z"/><path class="hb18-2" d="M9,22H8v2H9Z"/><path class="hb18-9" d="M6,19V17H5v1H4v2H5V19Z"/></svg>