<svg xmlns="http://www.w3.org/2000/svg" viewBox="0 0 29 33"><defs><style>polygon,rect,path{shape-rendering:crispedges;}.ga115-1{fill:#d4a122;}.ga115-2{fill:#000000;}.ga115-3{fill:#ff1d99;}.ga115-4{fill:#e8b795;}.ga115-5{fill:#ffffff;}.ga115-6{fill:#ffffff;}.ga115-7{fill:#af8423;}.ga115-8{fill:#af8423;}.ga115-9{fill:#990000;}.ga115-10{fill:#455054;}.ga115-11{fill:#0068ff;}.ga115-12{fill:#ffce00;}.ga115-13{fill:#ff1f4a;}</style></defs><rect class="ga115-1" x="12" y="8" width="1" height="1"/><path class="ga115-1" d="M8,19v3H9v2H8v1h2V24h2V22H11V21H10V20H9V16H8v3Z"/><path class="ga115-1" d="M0,33H8V32H6V31H5V22H6V21H7V20H5v1H2V17H5V16H8V15H9V11h1V10H9V9h1V8h2V7h1V8h3V9h1V8h1V9h1v1h1v5h1v1H20v4H19v1H18v1H17v2h2v1h2v1h1v1h1v6h6V0H0Z"/><path class="ga115-2" d="M6,24V22H5v9H6V24Z"/><path class="ga115-3" d="M7,30V24H6v7H7Z"/><path class="ga115-2" d="M9,31V27H8V26h2V25H8V24H7v7H6v1H8v1H9V31Z"/><rect class="ga115-3" x="18" y="29" width="1" height="1"/><path class="ga115-3" d="M15,29H14v2h1V29Z"/><path class="ga115-3" d="M19,32V31H18v1H17V29h1V28h1v1h1V27h1V26H19V25H17v1H16v1H13V26H12V25H10v1H8v1H9v2h1V28h1v1h1v3H11V31H10v1H9v1H20V32Zm-3-2v1H15v1H13V28h2v1h1Z"/><rect class="ga115-3" x="10" y="29" width="1" height="1"/><path class="ga115-2" d="M11,24H10v1h2V24Z"/><path class="ga115-2" d="M13,23H12v1h1Z"/><rect class="ga115-2" x="12" y="25" width="1" height="1"/><path class="ga115-2" d="M13,26v1h3V26H13Z"/><path class="ga115-2" d="M16,24h1V23H16Z"/><path class="ga115-4" d="M16,23H13v1H12v1h1v1h3V25h1V24H16Z"/><rect class="ga115-2" x="16" y="25" width="1" height="1"/><path class="ga115-2" d="M18,25h1V24H17v1Z"/><path class="ga115-2" d="M20,26h1V25H19v1Z"/><path class="ga115-2" d="M21,27H20v6h1V27Z"/><rect class="ga115-2" x="21" y="26" width="1" height="1"/><path class="ga115-3" d="M22,27H21v6h1V27Z"/><path class="ga115-2" d="M23,27H22v6h1V27Z"/><path class="ga115-5" d="M19,30H18V29H17v3h1V31h1v1h1V29H19Z"/><rect class="ga115-5" x="18" y="28" width="1" height="1"/><path class="ga115-5" d="M15,30v1h1V29H15Z"/><path class="ga115-5" d="M14,30V29h1V28H13v4h2V31H14Z"/><path class="ga115-5" d="M9,32h1V31h1v1h1V29H11v1H10V29H9v3Z"/><rect class="ga115-5" x="10" y="28" width="1" height="1"/><rect class="ga115-2" x="20" y="15" width="1" height="1"/><rect class="ga115-4" x="19" y="15" width="1" height="1"/><path class="ga115-4" d="M11,17v1h1v1h1V18h5V17h1V16H16V14h2V13H16V12h2V11H17V10H16v1H11v1h2v1H11v1h2v2H10v1Zm3-1h1v1H14Z"/><rect class="ga115-4" x="9" y="15" width="1" height="1"/><rect class="ga115-4" x="10" y="12" width="1" height="1"/><rect class="ga115-4" x="18" y="12" width="1" height="1"/><path class="ga115-2" d="M10,14H9v1h1Z"/><rect class="ga115-2" x="8" y="15" width="1" height="1"/><rect class="ga115-2" x="14" y="16" width="1" height="1"/><path class="ga115-6" d="M11,15V14H10v2h1Z"/><path class="ga115-6" d="M13,16V14H12v2Z"/><path class="ga115-6" d="M16,14v2h1V14Z"/><path class="ga115-6" d="M18,15v1h1V14H18Z"/><path class="ga115-2" d="M11,16h1V14H11v2Z"/><path class="ga115-2" d="M18,14H17v2h1V14Z"/><rect class="ga115-7" x="18" y="13" width="1" height="1"/><rect class="ga115-7" x="16" y="12" width="2" height="1"/><rect class="ga115-7" x="10" y="13" width="1" height="1"/><rect class="ga115-7" x="11" y="12" width="2" height="1"/><path class="ga115-8" d="M15,18H13v1h3V18Z"/><path class="ga115-8" d="M19,17H18v1H17v1H16v1H13V19H12V18H11V17H10V16H9v4h1v1h1v1h1v1h5V22h1V21h1V20h1V16H19Z"/><rect class="ga115-2" x="13" y="19" width="3" height="1"/><path class="ga115-2" d="M16,19h1V18H16Z"/><path class="ga115-9" d="M10,13V12h1V11h5V10h1v1h1v1h1v3h1V10H19V9H18V8H17V9H16V8H13V9H12V8H10V9H9v1h1v1H9v3h1Z"/><rect class="ga115-9" x="12" y="7" width="1" height="1"/><path class="ga115-4" d="M7,24H8V22H6v2Z"/><path class="ga115-10" d="M8,22V20H7v2Z"/><path class="ga115-2" d="M7,21H6v1H7Z"/><path class="ga115-2" d="M9,22H8v2H9Z"/><path class="ga115-11" d="M8,19V16H6v4H8Z"/><path class="ga115-12" d="M6,16H5v1H4v4H5V20H6V16Z"/><path class="ga115-13" d="M4,17H2v4H4V17Z"/></svg>