<svg xmlns="http://www.w3.org/2000/svg" viewBox="0 0 29 33"><defs><style>polygon,rect,path{shape-rendering:crispedges;}.da205-1{fill:#7a982c;}.da205-2{fill:#000000;}.da205-3{fill:#cc2f76;}.da205-4{fill:#e8b795;}.da205-5{fill:#ffa9d0;}.da205-6{fill:#990000;}.da205-7{fill:#990000;}.da205-8{fill:#6e12ff;}</style></defs><rect class="da205-1" x="16" y="8" width="1" height="1"/><path class="da205-1" d="M0,33H6V27H7V26H8V25h2V24h2V21H10V20H9V16H8V15H9V10h1V9h1V8h1V9h1V8h3V7h1V8h2V9h1v1H19v1h1v4h1v1H20v4H19v1H17v3h2v1h2v1h1v1h1v6h6V0H0Z"/><path class="da205-2" d="M23,27H22v3H21V27H20v6h1V31h1v2h1V27Z"/><rect class="da205-2" x="21" y="26" width="1" height="1"/><path class="da205-3" d="M21,28v2h1V27H21Z"/><path class="da205-4" d="M21,31v2h1V31Z"/><path class="da205-2" d="M20,26h1V25H19v1Z"/><path class="da205-3" d="M19,32V31H18v1H17V29h1V28h1v1h1V27h1V26H19V25H17v1H16v1H13V26H12V25H10v1H8v1H9v2h1V28h1v1h1v3H11V31H10v1H9v1H20V32Zm-3-2v1H15v1H13V28h2v1h1Z"/><path class="da205-3" d="M15,29H14v2h1V29Z"/><rect class="da205-3" x="10" y="29" width="1" height="1"/><rect class="da205-3" x="18" y="29" width="1" height="1"/><path class="da205-2" d="M18,25h1V24H17v1Z"/><rect class="da205-2" x="16" y="25" width="1" height="1"/><path class="da205-2" d="M13,26v1h3V26H13Z"/><path class="da205-2" d="M13,23h3v1h1V21H16v1H13V21H12v3h1Z"/><path class="da205-4" d="M13,25v1h3V25h1V24H16V23H13v1H12v1Z"/><rect class="da205-2" x="12" y="25" width="1" height="1"/><path class="da205-2" d="M12,24H10v1h2Z"/><path class="da205-2" d="M10,25H8v1h2Z"/><path class="da205-2" d="M9,31V27H8v3H7V27H6v6H7V31H8v2H9V31Z"/><rect class="da205-2" x="7" y="26" width="1" height="1"/><path class="da205-3" d="M7,30H8V27H7v3Z"/><path class="da205-4" d="M7,31v2H8V31Z"/><path class="da205-5" d="M19,30H18V29H17v3h1V31h1v1h1V29H19Z"/><rect class="da205-5" x="18" y="28" width="1" height="1"/><path class="da205-5" d="M15,30v1h1V29H15Z"/><path class="da205-5" d="M14,30V29h1V28H13v4h2V31H14Z"/><path class="da205-5" d="M9,32h1V31h1v1h1V29H11v1H10V29H9v3Z"/><rect class="da205-5" x="10" y="28" width="1" height="1"/><rect class="da205-2" x="20" y="15" width="1" height="1"/><path class="da205-4" d="M17,13V12h1V11H13V10H12v1H11v1h2v1H11v1h5V13Z"/><rect class="da205-4" x="9" y="15" width="1" height="1"/><rect class="da205-4" x="14" y="15" width="1" height="1"/><path class="da205-4" d="M13,22h3V21h1V20h1V18h1V16H18v1H16V16H15v1H14V16H13v1H11V16H10v2h1v2h1v1h1Zm-1-3V18h1v1h3v1H13V19Z"/><path class="da205-4" d="M17,13v1h2V13Z"/><rect class="da205-4" x="10" y="12" width="1" height="1"/><rect class="da205-4" x="19" y="15" width="1" height="1"/><path class="da205-2" d="M19,17h1V16H19Z"/><path class="da205-2" d="M10,16H9v1h1Z"/><rect class="da205-2" x="8" y="15" width="1" height="1"/><rect class="da205-2" x="14" y="16" width="1" height="1"/><rect class="da205-6" x="10" y="13" width="1" height="1"/><rect class="da205-6" x="11" y="12" width="2" height="1"/><rect class="da205-6" x="16" y="13" width="1" height="1"/><path class="da205-6" d="M17,13h2V12H17Z"/><path class="da205-7" d="M19,18H18v2H17v1h2V20h1V17H19Z"/><path class="da205-7" d="M11,20V18H10V17H9v3h1v1h2V20Z"/><rect class="da205-2" x="13" y="19" width="3" height="1"/><rect class="da205-2" x="12" y="18" width="1" height="1"/><path class="da205-8" d="M10,13V12h1V11h1V10h1v1h5v1h1v2h1V11H19V10h1V9H19V8H17V9H16V8H13V9H12V8H11V9H10v1H9v4h1Z"/><rect class="da205-8" x="16" y="7" width="1" height="1"/><path class="da205-2" d="M10,16h1v1h2V16h1V15h1v1h1v1h2V16h1V15h1V14H9v1h1Z"/></svg>