<svg xmlns="http://www.w3.org/2000/svg" viewBox="0 0 29 33"><defs><style>polygon,rect,path{shape-rendering:crispedges;}.ja239-1{fill:#29834f;}.ja239-2{fill:#000000;}.ja239-3{fill:#ff6aa5;}.ja239-4{fill:#99004d;}.ja239-5{fill:#ce8452;}.ja239-6{fill:#473a35;}.ja239-7{fill:#473a35;}.ja239-8{fill:#ffffff;}.ja239-9{fill:#e70059;}.ja239-10{fill:#6e12ff;}.ja239-11{fill:#ff1d99;}.ja239-12{fill:#6e12ff;}</style></defs><path class="ja239-1" d="M0,33H6V27H7V26H8V25h2V24h2V22H11V21H10V20H9V18H8V13H9V11h1V10h1V9h7v1h1v1h1v1h1v6H20v2H19v1H18v1H17v2h2v1h2v1h1v1h1v6h6V0H0Z"/><path class="ja239-2" d="M23,27H22v6h1V27Z"/><rect class="ja239-2" x="21" y="26" width="1" height="1"/><path class="ja239-3" d="M21,28h1V27H21Z"/><path class="ja239-3" d="M21,31h1V30H21Z"/><path class="ja239-2" d="M21,30V27H20v6h1V30Z"/><path class="ja239-2" d="M20,26h1V25H19v1Z"/><path class="ja239-3" d="M9,31H20V30H9Z"/><path class="ja239-3" d="M17,25V24H12v1Z"/><path class="ja239-3" d="M9,27v1H20V27H9Z"/><path class="ja239-2" d="M18,25h1V24H17v1Z"/><path class="ja239-2" d="M13,23V22H12v2h1Z"/><path class="ja239-2" d="M12,24H10v1h2Z"/><path class="ja239-2" d="M10,25H8v1h2Z"/><path class="ja239-2" d="M9,30V27H8v6H9V30Z"/><rect class="ja239-2" x="7" y="26" width="1" height="1"/><path class="ja239-3" d="M8,28V27H7v1Z"/><path class="ja239-3" d="M7,31H8V30H7Z"/><path class="ja239-2" d="M7,30V27H6v6H7V30Z"/><path class="ja239-4" d="M9,31v2H20V31Z"/><path class="ja239-4" d="M9,29v1H20V28H9Z"/><path class="ja239-4" d="M9,27H21V26H19V25H10v1H8v1Z"/><path class="ja239-4" d="M15,23H13v1h3V23Z"/><path class="ja239-4" d="M7,29v1H8V28H7Z"/><path class="ja239-4" d="M7,31v2H8V31Z"/><path class="ja239-4" d="M21,31v2h1V31Z"/><path class="ja239-4" d="M21,29v1h1V28H21Z"/><rect class="ja239-5" x="13" y="20" width="1" height="1"/><path class="ja239-5" d="M17,17H16V16H15v1H14V16H13v1H11v2h1V18h5v1h1V17Z"/><rect class="ja239-5" x="17" y="11" width="1" height="1"/><rect class="ja239-5" x="15" y="20" width="1" height="1"/><rect class="ja239-5" x="14" y="15" width="1" height="1"/><path class="ja239-5" d="M16,13V12H15V11H14v3h2Z"/><rect class="ja239-5" x="12" y="12" width="1" height="1"/><path class="ja239-2" d="M16,23v1h1V22H16Z"/><rect class="ja239-2" x="14" y="16" width="1" height="1"/><rect class="ja239-6" x="17" y="12" width="1" height="1"/><rect class="ja239-6" x="11" y="12" width="1" height="1"/><path class="ja239-7" d="M19,16v2h1V16Z"/><path class="ja239-7" d="M13,23h3V22h2V21h1V18H18v1H16v2H15V20H14v1H13V19H11V18H10v3h1v1h2Z"/><path class="ja239-7" d="M10,17V16H9v2h1Z"/><path class="ja239-2" d="M12,18v1h1V18Z"/><path class="ja239-2" d="M16,18v1h1V18Z"/><path class="ja239-2" d="M15,20h1V19H15Z"/><path class="ja239-2" d="M15,19V18H14v1Z"/><path class="ja239-2" d="M13,19v1h1V19Z"/><path class="ja239-8" d="M14,18H13v1h1Z"/><path class="ja239-8" d="M15,18v1h1V18Z"/><rect class="ja239-9" x="14" y="19" width="1" height="1"/><path class="ja239-10" d="M9,15H8v3H9V15Z"/><path class="ja239-10" d="M20,16v2h1V15H20Z"/><path class="ja239-10" d="M10,17v1h1V17Z"/><path class="ja239-10" d="M18,17v1h1V17Z"/><path class="ja239-10" d="M10,13h1V12h2v2h1V11h1v1h1v1h1V11h1v2h1v1h2V12H20V11H19V10H18V9H11v1H10v1H9v2H8v1h2Z"/><path class="ja239-10" d="M19,19v1h1V18H19Z"/><path class="ja239-10" d="M9,18v2h1V18Z"/><path class="ja239-11" d="M19,16h1V15h1V14H19Z"/><path class="ja239-11" d="M17,14h2V13H16v1Z"/><path class="ja239-12" d="M16,14v2h3V14H16Z"/><path class="ja239-11" d="M16,16v1h3V16H16Z"/><path class="ja239-11" d="M14,16V15h1v1h1V14H13v2Z"/><path class="ja239-11" d="M13,14V13H10v1h3Z"/><path class="ja239-12" d="M13,16V14H10v2h3Z"/><path class="ja239-11" d="M12,17h1V16H10v1h2Z"/><path class="ja239-11" d="M9,16h1V14H8v1H9Z"/></svg>