<svg xmlns="http://www.w3.org/2000/svg" viewBox="0 0 29 33"><defs><style>polygon,rect,path{shape-rendering:crispedges;}.ib162-1{fill:#b4bd09;}.ib162-2{fill:#6d3e35;}.ib162-3{fill:#000000;}.ib162-4{fill:#ffffff;}.ib162-5{fill:#990000;}.ib162-6{fill:#990000;}.ib162-7{fill:#f9e100;}</style></defs><path class="ib162-1" d="M0,33H6V24H7V23H8v1H9v1h1V24h2V21H9V20H8V19H9V16H8V15H9V11h1V10h1V9h7v1h1v1h1v4h1v1H20v3h1v1H20v1H17v3h2v1h1V24h1V23h1v1h1v9h6V0H0Z"/><path class="ib162-2" d="M22,24H21v1H20v2h1v6h1V24Z"/><path class="ib162-3" d="M23,24H22v9h1V24Z"/><path class="ib162-3" d="M7,24H6v9H7V24Z"/><path class="ib162-2" d="M8,27H9V25H8V24H7v9H8V27Z"/><path class="ib162-3" d="M9,27H8v6H9V27Z"/><path class="ib162-2" d="M20,27H19V25H17V24H16V23H13v1H12v1H10v2H9v6h5V29h1v4h5V27Zm-8,2H11V28h1Zm6,0H17V28h1Z"/><rect class="ib162-3" x="11" y="28" width="1" height="1"/><path class="ib162-3" d="M12,24H10v1h2Z"/><path class="ib162-3" d="M13,23h3v1h1V21H16v1H13V21H12v3h1Z"/><path class="ib162-3" d="M15,29H14v4h1V29Z"/><rect class="ib162-3" x="17" y="28" width="1" height="1"/><path class="ib162-3" d="M18,25h1V24H17v1Z"/><path class="ib162-3" d="M21,27H20v6h1V27Z"/><rect class="ib162-3" x="20" y="15" width="1" height="1"/><path class="ib162-3" d="M19,15h1V14H19Z"/><path class="ib162-2" d="M10,14h2V13H10Z"/><path class="ib162-2" d="M13,22h3V21h1V19H16v1H13V19h3V18h1v1h1V18h1V16h1V15H16V14h2V13H16V12h2v1h1V11H18V10H11v1H10v1h2v1h1v2H9v1h1v2h1v1h1v2h1Zm1-6h1v1H14Z"/><path class="ib162-3" d="M17,20v1h1V20Z"/><path class="ib162-3" d="M11,20v1h1V20Z"/><path class="ib162-3" d="M10,14H9v1h1Z"/><rect class="ib162-3" x="8" y="15" width="1" height="1"/><rect class="ib162-3" x="14" y="16" width="1" height="1"/><path class="ib162-4" d="M12,15h1V14H12Z"/><path class="ib162-4" d="M10,14v1h1V14Z"/><path class="ib162-4" d="M18,14v1h1V14Z"/><path class="ib162-4" d="M16,14v1h1V14Z"/><path class="ib162-3" d="M11,14v1h1V14Z"/><path class="ib162-3" d="M17,14v1h1V14Z"/><rect class="ib162-5" x="18" y="13" width="1" height="1"/><rect class="ib162-5" x="16" y="12" width="2" height="1"/><path class="ib162-5" d="M13,14V13H12v1Z"/><rect class="ib162-5" x="10" y="12" width="2" height="1"/><path class="ib162-6" d="M19,17v1H18v1H17v1h1v1h2V20h1V19H20V16H19Z"/><path class="ib162-6" d="M12,20V19H11V18H10V16H9v3H8v1H9v1h2V20Z"/><rect class="ib162-3" x="13" y="19" width="3" height="1"/><rect class="ib162-3" x="16" y="18" width="1" height="1"/><path class="ib162-3" d="M20,27V25H19v2Z"/><rect class="ib162-3" x="20" y="24" width="1" height="1"/><rect class="ib162-3" x="21" y="23" width="1" height="1"/><path class="ib162-3" d="M10,27V25H9v2Z"/><rect class="ib162-3" x="8" y="24" width="1" height="1"/><rect class="ib162-3" x="7" y="23" width="1" height="1"/><path class="ib162-7" d="M19,14h1V11H19v3Z"/><rect class="ib162-7" x="18" y="10" width="1" height="1"/><path class="ib162-7" d="M18,10V9H11v1h7Z"/><rect class="ib162-7" x="10" y="10" width="1" height="1"/><path class="ib162-7" d="M10,13V11H9v3h1Z"/></svg>