<svg xmlns="http://www.w3.org/2000/svg" viewBox="0 0 29 33"><defs><style>polygon,rect,path{shape-rendering:crispedges;}.ma115-1{fill:#b4bd09;}.ma115-2{fill:#ffffff;}.ma115-3{fill:#ccc;}.ma115-4{fill:#000000;}.ma115-5{fill:#94d4ff;}.ma115-6{fill:#333333;}.ma115-7{fill:#efcaaf;}.ma115-8{fill:#8e4717;}.ma115-9{fill:#5a2de2;}.ma115-10{fill:#000000;}.ma115-11{fill:#455054;}.ma115-12{fill:#ff1f4a;}.ma115-13{fill:#ffce00;}.ma115-14{fill:#002b4f;}</style></defs><path class="ma115-1" d="M19,21H18v1H17v2h2V22h1V20H19Z"/><rect class="ma115-1" x="12" y="8" width="1" height="1"/><path class="ma115-1" d="M8,19v1H9V16H8v3Z"/><path class="ma115-1" d="M12,22H11V21H10V20H9v2h1v2h2V22Z"/><path class="ma115-1" d="M0,33H8V32H6V31H5V21H2V17H5V16H8V15H9V11h1V10H9V9h1V8h2V7h1V8h3V9h1V8h1V9h1v1h1v5h1v1H20v4h1V19h5v1H25v1H24v2H23v1H21v2h1v1h1v6h6V0H0Z"/><path class="ma115-2" d="M9,22V20H8v2Z"/><path class="ma115-2" d="M6,21H5v1H6Z"/><path class="ma115-2" d="M9,22v2h1V22Z"/><path class="ma115-3" d="M7,21V20H5v1H7Z"/><path class="ma115-3" d="M22,20v1h3V20H22Z"/><path class="ma115-3" d="M21,22v1h3V22H21Z"/><path class="ma115-2" d="M19,22v2h4V23H21V22h3V21H22V20h4V19H21v1H20v2Z"/><path class="ma115-3" d="M8,24v1h2V24H8Z"/><path class="ma115-3" d="M19,25h2V24H19Z"/><path class="ma115-4" d="M6,24V22H5v9H6V24Z"/><path class="ma115-4" d="M23,27H22v6h1V27Z"/><path class="ma115-5" d="M22,27H21v6h1V27Z"/><rect class="ma115-4" x="21" y="26" width="1" height="1"/><path class="ma115-4" d="M21,27H20v6h1V27Z"/><path class="ma115-5" d="M20,27h1V26H19V25H18v8h2V27Z"/><path class="ma115-4" d="M19,26h2V25H19Z"/><path class="ma115-4" d="M18,25h1V24H17v1H16v1h1v7h1V25Z"/><path class="ma115-6" d="M17,26H16v1H13V26H12v7h5V26Z"/><path class="ma115-4" d="M16,23v1h1V23Z"/><path class="ma115-4" d="M13,26v1h3V26H13Z"/><path class="ma115-7" d="M16,23H13v1H12v1h1v1h3V25h1V24H16Z"/><path class="ma115-4" d="M13,23H12v1h1Z"/><path class="ma115-4" d="M12,26h1V25H12V24H10v1h1v8h1V26Z"/><path class="ma115-5" d="M11,25H10v1H8v1H9v6h2V25Z"/><path class="ma115-4" d="M9,27H8V26h2V25H8V24H7v7H6v1H8v1H9V27Z"/><path class="ma115-5" d="M7,30V24H6v7H7Z"/><rect class="ma115-4" x="20" y="15" width="1" height="1"/><path class="ma115-7" d="M10,14h2V13H10Z"/><rect class="ma115-7" x="18" y="12" width="1" height="1"/><path class="ma115-7" d="M10,16v1h1v1h1v1h1V18h5V17h1V16h1V15H16V14h2V13H16V12h2V11H17V10H16v1H11v1h1v1h1v2H9v1Zm4,0h1v1H14Z"/><path class="ma115-4" d="M10,14H9v1h1Z"/><rect class="ma115-4" x="8" y="15" width="1" height="1"/><rect class="ma115-4" x="14" y="16" width="1" height="1"/><path class="ma115-2" d="M12,15h1V14H12Z"/><path class="ma115-2" d="M10,14v1h1V14Z"/><path class="ma115-2" d="M18,14v1h1V14Z"/><path class="ma115-2" d="M16,14v1h1V14Z"/><path class="ma115-4" d="M11,14v1h1V14Z"/><path class="ma115-4" d="M17,14v1h1V14Z"/><rect class="ma115-8" x="18" y="13" width="1" height="1"/><rect class="ma115-8" x="16" y="12" width="2" height="1"/><path class="ma115-8" d="M13,14V13H12v1Z"/><path class="ma115-8" d="M10,13h2V12H10Z"/><path class="ma115-9" d="M16,18H13v1h3Z"/><path class="ma115-9" d="M19,17H18v1H17v1H16v1H13V19H12V18H11V17H10V16H9v4h1v1h1v1h1v1h5V22h1V21h1V20h1V16H19Z"/><rect class="ma115-4" x="13" y="19" width="3" height="1"/><path class="ma115-4" d="M17,19V18H16v1Z"/><path class="ma115-10" d="M10,13V12h1V11h5V10h1v1h1v1h1v3h1V10H19V9H18V8H17V9H16V8H13V9H12V8H10V9H9v1h1v1H9v3h1Z"/><rect class="ma115-10" x="12" y="7" width="1" height="1"/><path class="ma115-7" d="M7,22H6v2H8V22Z"/><path class="ma115-11" d="M8,22V20H7v2Z"/><path class="ma115-4" d="M7,21H6v1H7Z"/><path class="ma115-4" d="M9,22H8v2H9Z"/><path class="ma115-12" d="M4,20H2v1H5V20Z"/><path class="ma115-12" d="M8,19H5v1H8Z"/><path class="ma115-13" d="M5,19V18H8V16H5v1H2v2H5Z"/><path class="ma115-14" d="M5,20V19H2v1H5Z"/><path class="ma115-14" d="M8,19V18H5v1H8Z"/></svg>