<svg xmlns="http://www.w3.org/2000/svg" viewBox="0 0 29 33"><defs><style>polygon,rect,path{shape-rendering:crispedges;}.ka277-1{fill:#29834f;}.ka277-2{fill:#000000;}.ka277-3{fill:#663434;}.ka277-4{fill:#9e6969;}.ka277-5{fill:#e8b795;}.ka277-6{fill:#004a77;}.ka277-7{fill:#004a77;}.ka277-8{fill:#c8a715;}.ka277-9{fill:#b23b00;}.ka277-10{fill:#68aaad;}</style></defs><path class="ka277-1" d="M0,33H6V27H7V26H8V25h2V20H9V16H8V15H9V10h1V9h1V8h7V9h1v2h1v4h1v1H20v4H19v5h2v1h1v1h1v6h6V0H0Z"/><path class="ka277-1" d="M18,24V22H17v2Z"/><path class="ka277-1" d="M12,22H11v2h1V22Z"/><path class="ka277-2" d="M23,27H22v6h1V27Z"/><rect class="ka277-2" x="21" y="26" width="1" height="1"/><path class="ka277-3" d="M21,28v2h1V27H21Z"/><path class="ka277-3" d="M21,31v2h1V31Z"/><path class="ka277-2" d="M21,30V27H20v6h1V30Z"/><path class="ka277-2" d="M20,26h1V25H19v1Z"/><path class="ka277-3" d="M20,32V26H19V25H16V23H13v2H10v1H9v6h1v1h4V32h1v1h4V32Zm-9-3H10V28h1Zm2,2H12V30h1Zm0-4H12V26h1Zm2,2H14V28h1Zm0-4H14V24h1Zm2,6H16V30h1Zm0-4H16V26h1Zm1,2V28h1v1Z"/><path class="ka277-2" d="M17,24v1h2V24H17Z"/><path class="ka277-2" d="M12,24H10v1h2Z"/><path class="ka277-2" d="M10,26V25H8v1h2Z"/><path class="ka277-2" d="M9,31V27H8v6H9V31Z"/><rect class="ka277-2" x="7" y="26" width="1" height="1"/><path class="ka277-3" d="M7,31v2H8V31Z"/><path class="ka277-3" d="M7,30H8V27H7v3Z"/><path class="ka277-2" d="M7,30V27H6v6H7V30Z"/><rect class="ka277-4" x="10" y="28" width="1" height="1"/><rect class="ka277-4" x="12" y="30" width="1" height="1"/><rect class="ka277-4" x="14" y="28" width="1" height="1"/><rect class="ka277-4" x="14" y="32" width="1" height="1"/><rect class="ka277-4" x="12" y="26" width="1" height="1"/><rect class="ka277-4" x="16" y="30" width="1" height="1"/><rect class="ka277-4" x="18" y="28" width="1" height="1"/><rect class="ka277-4" x="16" y="26" width="1" height="1"/><rect class="ka277-4" x="14" y="24" width="1" height="1"/><path class="ka277-4" d="M9,27V26H8v1Z"/><path class="ka277-4" d="M19,32v1h1V32Z"/><path class="ka277-4" d="M9,32v1h1V32Z"/><path class="ka277-4" d="M7,31H8V30H7Z"/><path class="ka277-4" d="M21,31h1V30H21Z"/><path class="ka277-4" d="M20,27h1V26H20Z"/><rect class="ka277-2" x="20" y="15" width="1" height="1"/><path class="ka277-5" d="M18,10H16v1H15v1H14v2h1V13h2V12h2V11H18Z"/><rect class="ka277-5" x="9" y="15" width="1" height="1"/><polygon class="ka277-5" points="13 21 14 21 14 22 15 22 15 21 16 21 16 20 13 20 13 21"/><path class="ka277-5" d="M18,16H16V15H13v1H10v2h1v1h1V18h2v1h1V18h2v1h1V18h1V16Zm-3,1H14V16h1Z"/><rect class="ka277-5" x="19" y="15" width="1" height="1"/><path class="ka277-2" d="M19,17h1V16H19Z"/><path class="ka277-2" d="M10,16H9v1h1Z"/><rect class="ka277-2" x="8" y="15" width="1" height="1"/><rect class="ka277-2" x="14" y="16" width="1" height="1"/><path class="ka277-6" d="M19,12H17v1h2Z"/><path class="ka277-7" d="M12,22v1h5V22h2V20h1V17H19v1H18v1H17V18H15v1h1v2H15v1H14V21H13V19H11V18H10V17H9v3h1v2h2Z"/><path class="ka277-7" d="M14,18H13v1h1Z"/><path class="ka277-8" d="M18,23h1V22H18Z"/><path class="ka277-7" d="M18,24h1V23H18Z"/><path class="ka277-8" d="M17,23H16v1h1Z"/><path class="ka277-7" d="M16,24v1h1V24Z"/><path class="ka277-8" d="M12,24h1V23H12Z"/><path class="ka277-7" d="M12,25h1V24H12Z"/><path class="ka277-8" d="M11,22H10v1h1Z"/><path class="ka277-7" d="M11,23H10v1h1Z"/><path class="ka277-2" d="M13,19v1h3V19H13Z"/><path class="ka277-2" d="M12,18v1h1V18Z"/><path class="ka277-9" d="M10,13h4V12h1V11h1V10h2v1h1V9H18V8H11V9H10v1H9v4h1Z"/><path class="ka277-9" d="M19,13v1h1V11H19v2Z"/><path class="ka277-10" d="M13,16V15h1V14H10v2h3Z"/><path class="ka277-10" d="M16,15v1h3V14H15v1Z"/><path class="ka277-2" d="M19,14V13H15v1h4Z"/><path class="ka277-2" d="M14,14V13H10v1h4Z"/><path class="ka277-2" d="M19,15h1V14H19Z"/><path class="ka277-2" d="M10,14H9v1h1Z"/><path class="ka277-2" d="M15,15V14H14v1Z"/></svg>