<svg xmlns="http://www.w3.org/2000/svg" viewBox="0 0 29 33"><defs><style>polygon,rect,path{shape-rendering:crispedges;}.fb164-1{fill:#29834f;}.fb164-2{fill:#000000;}.fb164-3{fill:#333333;}.fb164-4{fill:#ffffff;}.fb164-5{fill:#e8b795;}.fb164-6{fill:#90a2a3;}.fb164-7{fill:#ffffff;}.fb164-8{fill:#5e362f;}.fb164-9{fill:#cc3232;}.fb164-10{fill:#6e12ff;}.fb164-11{fill:#455054;}.fb164-12{fill:#ff5e17;}.fb164-13{fill:#00af68;}.fb164-14{fill:#002b4f;}</style></defs><rect class="fb164-1" x="8" y="24" width="1" height="1"/><path class="fb164-1" d="M8,18v4H9v2h1V23h1V22h1V21H11V20H10V19H9V16H8v2Z"/><path class="fb164-1" d="M0,33H8V32H6V31H5V22H6V21H7V20H5v1H2V17H5V16H8V15H9V13H8V9H9V8h1V7h1V6h7V7h1V8h1V9h1v4H20v2h1v1H20v3H19v1H18v1H17v1h1v1h1v1h1v1h1v1h1v1h1v6h6V0H0Z"/><path class="fb164-2" d="M23,27H22v6h1V27Z"/><path class="fb164-3" d="M22,27H21v6h1V27Z"/><path class="fb164-2" d="M21,27h1V26H21V25H20v2H17v1h2v1h1v4h1V27Z"/><rect class="fb164-2" x="19" y="24" width="1" height="1"/><path class="fb164-3" d="M20,29H19v1H18v1H17v1H16v1h4V29Z"/><rect class="fb164-2" x="18" y="23" width="1" height="1"/><path class="fb164-3" d="M18,25H17v1H16v5h1V30h1V29h1V28H17V27h2V26h1V25H19V24H18Z"/><rect class="fb164-2" x="18" y="29" width="1" height="1"/><rect class="fb164-3" x="17" y="23" width="1" height="1"/><rect class="fb164-2" x="17" y="24" width="1" height="1"/><rect class="fb164-2" x="17" y="30" width="1" height="1"/><rect class="fb164-2" x="16" y="25" width="1" height="1"/><path class="fb164-2" d="M17,32V31H16V26H13v5H12v1h1v1h1V27h1v6h1V32Z"/><path class="fb164-4" d="M15,27H14v6h1V27Z"/><path class="fb164-5" d="M17,25V24H16V23H13v1H12v1h1v1h3V25Z"/><rect class="fb164-2" x="12" y="25" width="1" height="1"/><path class="fb164-3" d="M12,32V31H11V30H10V29H9v4h4V32Z"/><rect class="fb164-3" x="11" y="23" width="1" height="1"/><rect class="fb164-2" x="11" y="24" width="1" height="1"/><rect class="fb164-2" x="11" y="30" width="1" height="1"/><rect class="fb164-2" x="10" y="23" width="1" height="1"/><rect class="fb164-2" x="10" y="29" width="1" height="1"/><rect class="fb164-2" x="9" y="24" width="1" height="1"/><path class="fb164-3" d="M12,25H11V24H10v1H9v1h1v1h2v1H10v1h1v1h1v1h1V26H12Z"/><path class="fb164-2" d="M9,29h1V28h2V27H9V25H8V24H7v7H6v1H8v1H9V29Z"/><path class="fb164-3" d="M7,30V24H6v7H7Z"/><path class="fb164-2" d="M6,24V22H5v9H6V24Z"/><path class="fb164-6" d="M9,26v1h1V26Z"/><path class="fb164-6" d="M19,27h1V26H19Z"/><rect class="fb164-2" x="20" y="15" width="1" height="1"/><path class="fb164-2" d="M19,15h1V14H19Z"/><path class="fb164-5" d="M13,21v1h3V20H13Z"/><path class="fb164-5" d="M10,16v3h1v1h1V18h5v2h1V19h1V16h1V15H16V14h2V13H16V12h2V11H11v1h1v1h1v2H9v1Zm4,0h1v1H14Z"/><path class="fb164-5" d="M10,14h2V13H10Z"/><rect class="fb164-5" x="18" y="12" width="1" height="1"/><path class="fb164-2" d="M19,17v2h1V16H19Z"/><rect class="fb164-2" x="18" y="19" width="1" height="1"/><rect class="fb164-2" x="17" y="20" width="1" height="1"/><path class="fb164-2" d="M16,22H13V21H12v1H11v1h1v1h1V23h3v1h1V23h1V22H17V21H16Z"/><rect class="fb164-2" x="11" y="20" width="1" height="1"/><rect class="fb164-2" x="10" y="19" width="1" height="1"/><path class="fb164-2" d="M10,14H9v1h1Z"/><path class="fb164-2" d="M10,16H9v3h1V16Z"/><rect class="fb164-2" x="8" y="15" width="1" height="1"/><rect class="fb164-2" x="14" y="16" width="1" height="1"/><path class="fb164-7" d="M12,15h1V14H12Z"/><path class="fb164-7" d="M10,14v1h1V14Z"/><path class="fb164-7" d="M18,14v1h1V14Z"/><path class="fb164-7" d="M16,14v1h1V14Z"/><path class="fb164-2" d="M11,14v1h1V14Z"/><path class="fb164-2" d="M17,14v1h1V14Z"/><rect class="fb164-8" x="18" y="13" width="1" height="1"/><rect class="fb164-8" x="16" y="12" width="2" height="1"/><path class="fb164-8" d="M13,14V13H12v1Z"/><path class="fb164-8" d="M10,13h2V12H10Z"/><path class="fb164-9" d="M17,19H16v2h1V19Z"/><path class="fb164-9" d="M13,20V19h3V18H12v3h1Z"/><path class="fb164-2" d="M13,20h3V19H13Z"/><path class="fb164-2" d="M17,19V18H16v1Z"/><path class="fb164-10" d="M10,13V12h1V11h7v1h1v2h1V13h1V9H20V8H19V7H18V6H11V7H10V8H9V9H8v4H9v1h1Z"/><path class="fb164-5" d="M7,24H8V22H6v2Z"/><path class="fb164-11" d="M8,22V20H7v2Z"/><path class="fb164-2" d="M7,21H6v1H7Z"/><path class="fb164-2" d="M9,22H8v2H9Z"/><path class="fb164-12" d="M5,18V17H2v1H5Z"/><path class="fb164-7" d="M4,19V18H2v2H5V19Z"/><path class="fb164-7" d="M6,18v1H8V17H5v1Z"/><path class="fb164-12" d="M8,17V16H5v1H8Z"/><path class="fb164-13" d="M2,20v1H5V20H2Z"/><path class="fb164-13" d="M8,19H5v1H8Z"/><path class="fb164-14" d="M5,18H4v1H6V18Z"/></svg>