<svg xmlns="http://www.w3.org/2000/svg" viewBox="0 0 29 33"><defs><style>polygon,rect,path{shape-rendering:crispedges;}.ib212-1{fill:#b4bd09;}.ib212-2{fill:#000000;}.ib212-3{fill:#6d3e35;}.ib212-4{fill:#ffffff;}.ib212-5{fill:#00686d;}.ib212-6{fill:#00686d;}.ib212-7{fill:#6e12ff;}.ib212-8{fill:#ff1f4a;}.ib212-9{fill:#560000;}</style></defs><path class="ib212-1" d="M6,32V27H7V26H8V25h2V24h2V21H11V20H10V19H9V16H8V15H9V11h1V10h1V9h7v1h1v1h1v4h1v1H20v3H19v1H18v1H17v3h2v1h2v1h1v1h1v6h6V0H0V33H6Z"/><path class="ib212-2" d="M23,27H22v6h1V27Z"/><path class="ib212-3" d="M22,27H21v6h1V27Z"/><rect class="ib212-2" x="21" y="26" width="1" height="1"/><path class="ib212-2" d="M21,27H20v6h1V27Z"/><path class="ib212-3" d="M20,27h1V26H19V25H17V24H16V23H13v1H12v1H10v1H8v1H9v6h5V29h1v4h5V27Zm-8,2H11V28h1Zm6,0H17V28h1Z"/><path class="ib212-2" d="M20,26h1V25H19v1Z"/><rect class="ib212-2" x="17" y="28" width="1" height="1"/><path class="ib212-2" d="M18,25h1V24H17v1Z"/><path class="ib212-2" d="M15,29H14v4h1V29Z"/><path class="ib212-2" d="M13,23V22H12v2h1Z"/><rect class="ib212-2" x="11" y="28" width="1" height="1"/><path class="ib212-2" d="M12,24H10v1h2Z"/><path class="ib212-2" d="M10,25H8v1h2Z"/><path class="ib212-2" d="M9,27H8v6H9V27Z"/><path class="ib212-3" d="M8,27H7v6H8V27Z"/><rect class="ib212-2" x="7" y="26" width="1" height="1"/><path class="ib212-2" d="M7,27H6v6H7V27Z"/><rect class="ib212-2" x="20" y="15" width="1" height="1"/><path class="ib212-2" d="M19,15h1V14H19Z"/><rect class="ib212-3" x="9" y="15" width="1" height="1"/><path class="ib212-3" d="M15,10v5H14v1h1v1H14V16H13v1H11V16H10v2h1v1h1v1h1v1h3V20h1V19h1V18h1V16h1V15H16V14h2V13H16V12h2v1h1V11H18V10H15Zm0,10H14V19h1Z"/><path class="ib212-2" d="M16,23v1h1V22H16Z"/><rect class="ib212-2" x="8" y="15" width="1" height="1"/><rect class="ib212-2" x="14" y="16" width="1" height="1"/><path class="ib212-4" d="M18,14v1h1V14Z"/><path class="ib212-2" d="M17,14H16v1h2V14Z"/><rect class="ib212-5" x="18" y="13" width="1" height="1"/><rect class="ib212-5" x="16" y="12" width="2" height="1"/><path class="ib212-6" d="M13,23h3V22h1V21h1V20h1V19h1V16H19v2H18v1H17v1H16v1H13V20H12V19H11V18H10V16H9v3h1v1h1v1h1v1h1Z"/><rect class="ib212-2" x="14" y="19" width="1" height="1"/><path class="ib212-7" d="M19,14h1V11H19v3Z"/><rect class="ib212-7" x="18" y="10" width="1" height="1"/><path class="ib212-7" d="M16,10h2V9H15v1Z"/><path class="ib212-8" d="M12,15h1V13H11v2Z"/><path class="ib212-9" d="M14,15V13H13v2Z"/><path class="ib212-9" d="M12,15H11v1h2V15Z"/><path class="ib212-9" d="M11,13H10v2h1Z"/><path class="ib212-9" d="M13,12H11v1h2Z"/><rect class="ib212-2" x="10" y="15" width="1" height="1"/><rect class="ib212-2" x="11" y="16" width="2" height="1"/><rect class="ib212-2" x="13" y="15" width="1" height="1"/><path class="ib212-2" d="M10,14V13h1V12h2v1h1v2h1V9H11v1H10v1H9v4h1Z"/></svg>