<svg xmlns="http://www.w3.org/2000/svg" viewBox="0 0 29 33"><defs><style>polygon,rect,path{shape-rendering:crispedges;}.xa176-1{fill:#d14646;}.xa176-2{fill:#000000;}.xa176-3{fill:#00af68;}.xa176-4{fill:#a56e49;}.xa176-5{fill:#ffffff;}.xa176-6{fill:#ffffff;}.xa176-7{fill:#316a6d;}.xa176-8{fill:#e70059;}.xa176-9{fill:#0068ff;}.xa176-10{fill:#002d44;}.xa176-11{fill:#ff6c77;}.xa176-12{fill:#fad000;}.xa176-13{fill:#cc2f76;}.xa176-14{fill:#9b005c;}.xa176-15{fill:#9b8100;}.xa176-16{fill:#00686d;}.xa176-17{fill:#00423f;}.xa176-18{fill:#074949;}.xa176-19{fill:#ce8452;}</style></defs><path class="xa176-1" d="M0,33H6V27H7V26H8V25h2V22h1V20H10V19H9V18H8V12H9V10h1V9h1V8h7V9h1v1h1v5h1v1H20v3H19v1H18v2h1v1h2V22h1V21h2v1h1v1h1v9H21v1h8V0H0Z"/><path class="xa176-2" d="M7,31V27H6v6H7V31Z"/><path class="xa176-3" d="M7,30v1H8V29H7Z"/><path class="xa176-3" d="M7,32v1H8V32Z"/><path class="xa176-3" d="M8,28V27H7v1Z"/><rect class="xa176-2" x="7" y="26" width="1" height="1"/><path class="xa176-3" d="M9,27v1h1v1H9v2h1V30h1v1h2V30H12V29H11V28h1V27h2V26H13V24H12V23H11v2h1v1H11v1H10V26H8v1Z"/><path class="xa176-2" d="M10,25H8v1h2Z"/><path class="xa176-2" d="M11,24V22H10v3h1Z"/><path class="xa176-2" d="M14,24H13v1h1Z"/><path class="xa176-4" d="M14,25h1V24h1V23H13v1h1Z"/><path class="xa176-2" d="M15,26V25H14v2h1Z"/><rect class="xa176-2" x="15" y="24" width="1" height="1"/><path class="xa176-3" d="M19,30V27H18V26H17V25h1V23H17v1H16v2H15v1H14v3h1v1h3V30Zm-2-1v1H16V29H15V28h1V27h1v1h1v1Z"/><path class="xa176-2" d="M18,24v1h1V22H18v2Z"/><rect class="xa176-3" x="19" y="32" width="1" height="1"/><path class="xa176-3" d="M17,32H15v1h3V32Z"/><rect class="xa176-3" x="9" y="32" width="1" height="1"/><path class="xa176-3" d="M13,32H11v1h3V32Z"/><rect class="xa176-2" x="20" y="32" width="1" height="1"/><path class="xa176-2" d="M10,32h9V31H14V27H13v4H9V27H8v6H9V32Z"/><rect class="xa176-2" x="20" y="15" width="1" height="1"/><path class="xa176-4" d="M12,21h1v1h3V21h1V20h1V19h1V16h1V15H16V13h1V12h2V11H18V10H16v1H14v1H13v1H11v1h2v1H9v1h1v3h1v1h1Zm2-5h1v1H14Zm-2,2h5v1H16v1H13V19H12Z"/><polygon class="xa176-4" points="18 14 19 14 19 13 17 13 17 14 18 14"/><path class="xa176-2" d="M19,17v2h1V16H19Z"/><rect class="xa176-2" x="18" y="19" width="1" height="1"/><path class="xa176-2" d="M12,23v1h1V23h3v1h1V22h1V20H17v1H16v1H13V21H12V20H11v2h1Z"/><rect class="xa176-2" x="10" y="19" width="1" height="1"/><path class="xa176-2" d="M10,16H9v3h1V16Z"/><rect class="xa176-2" x="14" y="16" width="1" height="1"/><path class="xa176-5" d="M18,32v1h1V32Z"/><path class="xa176-5" d="M18,30v1h1V30Z"/><polygon class="xa176-5" points="18 28 17 28 17 27 16 27 16 28 15 28 15 29 16 29 16 30 17 30 17 29 18 29 18 28"/><path class="xa176-5" d="M17,26h1v1h1V25H17Z"/><path class="xa176-5" d="M15,26h1V25H15Z"/><path class="xa176-5" d="M13,25v1h1V25Z"/><path class="xa176-5" d="M12,28H11v1h1v1h1V27H12Z"/><polygon class="xa176-5" points="10 27 11 27 11 26 12 26 12 25 11 25 10 25 10 26 10 27"/><path class="xa176-5" d="M7,29H8V28H7Z"/><path class="xa176-5" d="M10,28H9v1h1Z"/><path class="xa176-5" d="M7,32H8V31H7Z"/><path class="xa176-5" d="M14,30v1h1V30Z"/><path class="xa176-5" d="M14,32v1h1V32Z"/><path class="xa176-5" d="M10,30v1h1V30Z"/><path class="xa176-5" d="M10,32v1h1V32Z"/><path class="xa176-5" d="M12,23V22H11v1Z"/><path class="xa176-5" d="M17,23h1V22H17Z"/><path class="xa176-6" d="M10,15h1V14H10Z"/><path class="xa176-6" d="M16,14v1h1V14Z"/><path class="xa176-2" d="M12,15h1V14H11v1Z"/><path class="xa176-2" d="M18,14H17v1h2V14Z"/><path class="xa176-7" d="M17,13H16v1h1Z"/><rect class="xa176-7" x="17" y="12" width="2" height="1"/><path class="xa176-2" d="M13,18H12v1h1Z"/><path class="xa176-2" d="M17,19V18H16v1Z"/><path class="xa176-2" d="M15,20h1V19H15Z"/><path class="xa176-2" d="M15,19V18H14v1Z"/><path class="xa176-2" d="M13,19v1h1V19Z"/><path class="xa176-6" d="M14,19V18H13v1Z"/><path class="xa176-6" d="M16,19V18H15v1Z"/><path class="xa176-8" d="M14,19v1h1V19Z"/><path class="xa176-9" d="M9,15h1V14h1V13h2V12h1V11h2V10h2v1h1v4h1V10H19V9H18V8H11V9H10v1H9v2H8v6H9V15Z"/><path class="xa176-2" d="M24,21H22v1h2Z"/><rect class="xa176-2" x="21" y="22" width="1" height="1"/><rect class="xa176-2" x="24" y="22" width="1" height="1"/><path class="xa176-10" d="M20,30h1V29h1V28H19v3h1Z"/><path class="xa176-11" d="M21,27v1h1V27Z"/><rect class="xa176-11" x="23" y="27" width="1" height="1"/><rect class="xa176-12" x="22" y="27" width="1" height="1"/><rect class="xa176-11" x="22" y="26" width="1" height="1"/><path class="xa176-13" d="M25,26H24V25H23v2h1v1h2V27H25Z"/><path class="xa176-13" d="M19,27v1h2V27h1V25H21v1H20v1Z"/><path class="xa176-14" d="M25,27h1V26H25Z"/><path class="xa176-14" d="M19,27h1V26H19Z"/><path class="xa176-14" d="M20,25v1h1V25h1v1h1V25h1v1h1V25h1V23H24v1H22V23H19v2Z"/><path class="xa176-4" d="M22,24h2V22H22v2Z"/><rect class="xa176-15" x="22" y="28" width="1" height="1"/><rect class="xa176-16" x="23" y="29" width="1" height="1"/><rect class="xa176-16" x="21" y="29" width="1" height="1"/><rect class="xa176-16" x="22" y="30" width="1" height="1"/><rect class="xa176-16" x="24" y="30" width="1" height="1"/><rect class="xa176-16" x="20" y="30" width="1" height="1"/><rect class="xa176-17" x="21" y="30" width="1" height="1"/><rect class="xa176-17" x="23" y="30" width="1" height="1"/><path class="xa176-10" d="M23,28v1h1v1h1v1h1V28H23Z"/><rect class="xa176-18" x="22" y="29" width="1" height="1"/><path class="xa176-19" d="M24,31H19v1h7V31H24Z"/><path class="xa176-13" d="M20,26V25H19v1Z"/><path class="xa176-13" d="M25,26h1V25H25Z"/></svg>