<svg xmlns="http://www.w3.org/2000/svg" viewBox="0 0 29 33"><defs><style>polygon,rect,path{shape-rendering:crispedges;}.qa259-1{fill:#6b4f99;}.qa259-2{fill:#000000;}.qa259-3{fill:#508e5d;}.qa259-4{fill:#a56e49;}.qa259-5{fill:#c5e2d0;}.qa259-6{fill:#6f7032;}.qa259-7{fill:#6f7032;}.qa259-8{fill:#b23b00;}.qa259-9{fill:#ffffff;}</style></defs><path class="qa259-1" d="M0,33H6V27H7V26H8V25h2V24h1V23H10V22h1V21H9V20H8V19H9V18H8V12H9V11h1V10h1V9h7v1h1v1h1v2h1v5H20v1h1v1H20v1H18v1h1v1H18v1h1v1h2v1h1v1h1v6h6V0H0Z"/><path class="qa259-2" d="M23,27H22v6h1V27Z"/><path class="qa259-3" d="M22,27H21v6h1V27Z"/><rect class="qa259-2" x="21" y="26" width="1" height="1"/><path class="qa259-2" d="M21,27H20v6h1V27Z"/><path class="qa259-3" d="M19,32V31H18v1H17V30H16v1H15v1H13V30H12v2H11V31H10v1H9v1H20V32Z"/><rect class="qa259-3" x="10" y="29" width="1" height="1"/><path class="qa259-3" d="M9,27v2h1V28h1v1h1V25h1V24H11v1H10v1H8v1Z"/><rect class="qa259-3" x="18" y="29" width="1" height="1"/><path class="qa259-3" d="M16,25h1v4h1V28h1v1h1V27h1V26H19V25H18V24H16Z"/><path class="qa259-2" d="M20,26h1V25H19v1Z"/><rect class="qa259-2" x="18" y="24" width="1" height="1"/><rect class="qa259-2" x="18" y="22" width="1" height="1"/><rect class="qa259-3" x="17" y="22" width="1" height="1"/><path class="qa259-2" d="M16,25V24H13v1h3Z"/><path class="qa259-4" d="M16,24V23H13v1h3Z"/><path class="qa259-2" d="M13,23h3v1h2V23H17V22h1V20H17v1H16v1H13V21H12V20H11v2h1v1H11v1h2Z"/><rect class="qa259-3" x="11" y="22" width="1" height="1"/><rect class="qa259-2" x="10" y="24" width="1" height="1"/><rect class="qa259-2" x="10" y="22" width="1" height="1"/><path class="qa259-2" d="M10,25H8v1h2Z"/><path class="qa259-2" d="M9,31V27H8v6H9V31Z"/><path class="qa259-3" d="M8,27H7v6H8V27Z"/><rect class="qa259-2" x="7" y="26" width="1" height="1"/><path class="qa259-2" d="M7,27H6v6H7V27Z"/><path class="qa259-3" d="M14,29v2h1V29Z"/><path class="qa259-3" d="M13,28h2v1h1V25H13v3Z"/><path class="qa259-5" d="M19,30H18V29H17v3h1V31h1v1h1V29H19Z"/><rect class="qa259-5" x="18" y="28" width="1" height="1"/><path class="qa259-5" d="M15,29v2h1V29Z"/><path class="qa259-5" d="M14,30V29h1V28H13v4h2V31H14Z"/><path class="qa259-5" d="M11,29v1H10V29H9v3h1V31h1v1h1V29Z"/><rect class="qa259-5" x="10" y="28" width="1" height="1"/><path class="qa259-2" d="M13,27V25H12v5h1V27Z"/><path class="qa259-2" d="M17,28V25H16v5h1V28Z"/><rect class="qa259-4" x="19" y="15" width="1" height="1"/><rect class="qa259-4" x="11" y="11" width="1" height="1"/><rect class="qa259-4" x="14" y="15" width="1" height="1"/><path class="qa259-4" d="M16,19v1H13V19h3V18h1v1h1V17H16V16H15v1H14V16H13v1H11v2h1v2h1v1h3V21h1V19Z"/><path class="qa259-4" d="M14,14h1V11H14v1H13v2Z"/><rect class="qa259-4" x="9" y="15" width="1" height="1"/><rect class="qa259-2" x="9" y="14" width="1" height="1"/><rect class="qa259-2" x="14" y="16" width="1" height="1"/><path class="qa259-6" d="M18,12H16v1h2Z"/><rect class="qa259-6" x="11" y="12" width="1" height="1"/><rect class="qa259-7" x="20" y="19" width="1" height="1"/><path class="qa259-7" d="M19,16v2h1V16Z"/><path class="qa259-7" d="M19,19V18H18v1H17v1h1v1h2V20H19Z"/><rect class="qa259-7" x="8" y="19" width="1" height="1"/><path class="qa259-7" d="M12,20V19H11V18H10v2H9v1h2V20Z"/><path class="qa259-7" d="M10,17V16H9v2h1Z"/><rect class="qa259-2" x="13" y="19" width="3" height="1"/><rect class="qa259-2" x="16" y="18" width="1" height="1"/><path class="qa259-8" d="M9,15V14h2V11h1v2h1V12h1V11h1v3h1V12h2v2h1v1h1v3h1V13H20V11H19V10H18V9H11v1H10v1H9v1H8v6H9V15Z"/><path class="qa259-8" d="M11,16H10v2h1V16Z"/><path class="qa259-8" d="M18,17v1h1V16H18Z"/><path class="qa259-8" d="M10,19V18H9v2h1Z"/><polygon class="qa259-8" points="19 19 19 20 20 20 20 19 20 18 19 18 19 19"/><path class="qa259-9" d="M13,13H11v1h2Z"/><path class="qa259-9" d="M11,17h2V16H11Z"/><path class="qa259-9" d="M11,15V14H10v2h1Z"/><path class="qa259-2" d="M11,16h2V14H11v2Z"/><path class="qa259-9" d="M19,16V14H18v2Z"/><path class="qa259-9" d="M18,13H16v1h2Z"/><path class="qa259-9" d="M17,16H16v1h2V16Z"/><path class="qa259-9" d="M13,14v2h1V15h1v1h1V14H13Z"/><path class="qa259-2" d="M17,16h1V14H16v2Z"/></svg>