<svg xmlns="http://www.w3.org/2000/svg" viewBox="0 0 29 33"><defs><style>polygon,rect,path{shape-rendering:crispedges;}.ma270-1{fill:#b4bd09;}.ma270-2{fill:#000000;}.ma270-3{fill:#0068ff;}.ma270-4{fill:#cc2f76;}.ma270-5{fill:#e8b795;}.ma270-6{fill:#ffffff;}.ma270-7{fill:#893a1f;}.ma270-8{fill:#fad000;}.ma270-9{fill:#ffffff;}.ma270-10{fill:#893a1f;}.ma270-11{fill:#ff1d99;}.ma270-12{fill:#0068ff;}.ma270-13{fill:#ff1f4a;}</style></defs><path class="ma270-1" d="M0,33H6V27H7V26H8V25h2V23h1V22h1V21H9V20H8V19H9V16H8V14H9V12H8v1H7V12H8V11H9V10h1V9h2V8h5V9h2v1h1v1h1v1h1v1H21V12H20v2h1v2H20v3h1v1H20v1H17v1h1v1h1v2h2v1h1v1h1v6h6V0H0Z"/><path class="ma270-2" d="M23,27H22v6h1V27Z"/><rect class="ma270-2" x="21" y="26" width="1" height="1"/><path class="ma270-3" d="M21,28v2h1V27H21Z"/><path class="ma270-3" d="M21,31v2h1V31Z"/><path class="ma270-2" d="M21,30V27H20v6h1V30Z"/><path class="ma270-3" d="M20,32V26H19V25H18v3h1v1H18v4h1V32Z"/><path class="ma270-2" d="M20,26h1V25H19v1Z"/><path class="ma270-2" d="M18,29V25H17v1H16v1h1v6h1V29Z"/><path class="ma270-4" d="M17,27H16v1H13V27H12v6h5V27Z"/><path class="ma270-5" d="M16,25V23H13v2h3Z"/><path class="ma270-2" d="M12,27h1V26H12V25H11v8h1V27Z"/><path class="ma270-3" d="M11,29H10V28h1V25H10v1H9v6h1v1h1V29Z"/><path class="ma270-2" d="M10,26V25H8v1h2Z"/><path class="ma270-2" d="M9,31V27H8v6H9V31Z"/><rect class="ma270-2" x="7" y="26" width="1" height="1"/><path class="ma270-3" d="M7,30H8V27H7v3Z"/><path class="ma270-3" d="M7,31v2H8V31Z"/><path class="ma270-2" d="M7,30V27H6v6H7V30Z"/><path class="ma270-6" d="M10,29h1V28H10Z"/><path class="ma270-6" d="M19,29V28H18v1Z"/><path class="ma270-6" d="M9,27V26H8v1Z"/><path class="ma270-6" d="M19,32v1h1V32Z"/><path class="ma270-6" d="M9,32v1h1V32Z"/><path class="ma270-6" d="M7,31H8V30H7Z"/><path class="ma270-6" d="M21,31h1V30H21Z"/><path class="ma270-6" d="M20,27h1V26H20Z"/><path class="ma270-2" d="M20,16h1V15H20Z"/><path class="ma270-5" d="M15,12V11H14v1H12v1h2v1h1V13h1V12Z"/><rect class="ma270-5" x="14" y="15" width="1" height="1"/><path class="ma270-5" d="M13,22h3V21h1V19H16v1H13V19h3V18h1v1h1V18h1V16H15v1H14V16H10v2h1v1h1v2h1Z"/><path class="ma270-2" d="M17,20v1h1V20Z"/><path class="ma270-2" d="M11,20v1h1V20Z"/><path class="ma270-2" d="M8,15v1H9V15Z"/><rect class="ma270-2" x="14" y="16" width="1" height="1"/><rect class="ma270-7" x="16" y="12" width="1" height="1"/><path class="ma270-2" d="M18,25h1V23H18v2Z"/><path class="ma270-8" d="M17,24v1h1V24Z"/><path class="ma270-9" d="M17,24h1V23H17Z"/><rect class="ma270-9" x="16" y="25" width="1" height="1"/><rect class="ma270-8" x="15" y="26" width="1" height="1"/><path class="ma270-2" d="M14,27H13v1h3V27H14Z"/><path class="ma270-9" d="M15,27V26H14v1Z"/><rect class="ma270-8" x="13" y="26" width="1" height="1"/><path class="ma270-2" d="M15,25H13v1h3V25Z"/><rect class="ma270-9" x="12" y="25" width="1" height="1"/><path class="ma270-2" d="M12,24v1h1V23h3v2h1V23h1V22H17V21H16v1H13V21H12v1H11v1h1Z"/><rect class="ma270-8" x="11" y="24" width="1" height="1"/><rect class="ma270-9" x="11" y="23" width="1" height="1"/><path class="ma270-2" d="M11,24V23H10v2h1Z"/><path class="ma270-10" d="M19,17v1H18v1H17v1h1v1h2V20h1V19H20V16H19Z"/><path class="ma270-10" d="M12,20V19H11V18H10V16H9v3H8v1H9v1h2V20Z"/><rect class="ma270-2" x="13" y="19" width="3" height="1"/><rect class="ma270-2" x="16" y="18" width="1" height="1"/><rect class="ma270-11" x="21" y="12" width="1" height="1"/><path class="ma270-11" d="M12,13V12h2V11h1v1h2v1h3V12h1V11H20V10H19V9H17V8H12V9H10v1H9v1H8v1H9v1h3Z"/><path class="ma270-11" d="M21,15V14H20v1Z"/><path class="ma270-11" d="M9,14H8v1H9Z"/><rect class="ma270-11" x="7" y="12" width="1" height="1"/><path class="ma270-9" d="M11,16h3V15h1v1h5V13H15v1H14V13H9v3h2Zm5-2h3v1H16Zm-6,0h3v1H10Z"/><path class="ma270-12" d="M19,15V14H16v1h3Z"/><path class="ma270-13" d="M13,15V14H10v1h3Z"/></svg>