<svg xmlns="http://www.w3.org/2000/svg" viewBox="0 0 29 33"><defs><style>polygon,rect,path{shape-rendering:crispedges;}.ha284-1{fill:#db5a8e;}.ha284-2{fill:#000000;}.ha284-3{fill:#333333;}.ha284-4{fill:#b2622b;}.ha284-5{fill:#844f4f;}.ha284-6{fill:#326b43;}.ha284-7{fill:#326b43;}.ha284-8{fill:#ffffff;}.ha284-9{fill:#6e12ff;}.ha284-10{fill:#0068ff;}.ha284-11{fill:#ff1f4a;}</style></defs><path class="ha284-1" d="M0,33H6V27H7V26H8V25h2V24h2V21H11V20H10V19H9V16H8V15H9V13H8V9H9V8h1V7h1V6h7V7h1V8h1V9h1v4H20v2h1v1H20v3H19v1H18v1H17v3h2v1h2v1h1v1h1v6h6V0H0Z"/><path class="ha284-2" d="M23,27H22v6h1V27Z"/><rect class="ha284-2" x="21" y="26" width="1" height="1"/><path class="ha284-3" d="M22,27H21v6h1V27Z"/><path class="ha284-2" d="M21,27H20v6h1V27Z"/><path class="ha284-2" d="M20,26h1V25H19v1Z"/><rect class="ha284-3" x="10" y="29" width="1" height="1"/><path class="ha284-3" d="M15,29H14v2h1V29Z"/><rect class="ha284-3" x="18" y="29" width="1" height="1"/><path class="ha284-3" d="M19,32V31H18v1H17V29h1V28h1v1h1V27h1V26H19V25H17v1H16v1H13V26H12V25H10v1H9v3h1V28h1v1h1v3H11V31H10v1H9v1H20V32Zm-3-2v1H15v1H13V28h2v1h1Z"/><path class="ha284-2" d="M18,25h1V24H17v1Z"/><rect class="ha284-2" x="16" y="25" width="1" height="1"/><path class="ha284-2" d="M13,26v1h3V26H13Z"/><path class="ha284-2" d="M13,23h3v1h1V21H16v1H13V21H12v3h1Z"/><path class="ha284-4" d="M13,25v1h3V25h1V24H16V23H13v1H12v1Z"/><rect class="ha284-2" x="12" y="25" width="1" height="1"/><path class="ha284-2" d="M12,24H10v1h2Z"/><path class="ha284-2" d="M9,31V26h1V25H8v1H7v1H8v6H9V31Z"/><path class="ha284-3" d="M8,27H7v6H8V27Z"/><path class="ha284-2" d="M7,27H6v6H7V27Z"/><path class="ha284-5" d="M19,30H18V29H17v3h1V31h1v1h1V29H19Z"/><rect class="ha284-5" x="18" y="28" width="1" height="1"/><path class="ha284-5" d="M15,30v1h1V29H15Z"/><path class="ha284-5" d="M14,30V29h1V28H13v4h2V31H14Z"/><path class="ha284-5" d="M9,32h1V31h1v1h1V29H11v1H10V29H9v3Z"/><rect class="ha284-5" x="10" y="28" width="1" height="1"/><rect class="ha284-2" x="20" y="15" width="1" height="1"/><path class="ha284-4" d="M18,12V11H11v1h2v1h1v1h1V13h2V12Z"/><rect class="ha284-4" x="10" y="12" width="1" height="1"/><path class="ha284-4" d="M12,19V18h5v1h2V16H15v1H14V16H10v3h2Z"/><rect class="ha284-4" x="14" y="15" width="1" height="1"/><rect class="ha284-4" x="12" y="19" width="1" height="1"/><rect class="ha284-4" x="13" y="20" width="1" height="1"/><rect class="ha284-4" x="16" y="19" width="1" height="1"/><rect class="ha284-4" x="15" y="20" width="1" height="1"/><path class="ha284-2" d="M19,17v2h1V16H19Z"/><path class="ha284-2" d="M18,20h1V19H18Z"/><rect class="ha284-2" x="17" y="20" width="1" height="1"/><rect class="ha284-2" x="11" y="20" width="1" height="1"/><path class="ha284-2" d="M10,19v1h1V19Z"/><path class="ha284-2" d="M10,16H9v3h1V16Z"/><rect class="ha284-2" x="8" y="15" width="1" height="1"/><rect class="ha284-2" x="14" y="16" width="1" height="1"/><path class="ha284-6" d="M11,12v1h2V12Z"/><path class="ha284-6" d="M18,12H17v1h2V12Z"/><path class="ha284-7" d="M17,19v1h1V19Z"/><rect class="ha284-7" x="16" y="20" width="1" height="1"/><path class="ha284-7" d="M15,20H14v1H13v1h3V21H15Z"/><rect class="ha284-7" x="12" y="20" width="1" height="1"/><path class="ha284-7" d="M12,19H11v1h1Z"/><path class="ha284-2" d="M13,18H12v1h1Z"/><path class="ha284-2" d="M17,19V18H16v1Z"/><path class="ha284-2" d="M15,20h1V19H15V18H14v1H13v1h2Z"/><path class="ha284-8" d="M14,19V18H13v1Z"/><path class="ha284-8" d="M16,19V18H15v1Z"/><path class="ha284-9" d="M10,12h1V11h7v1h1v1h2V9H20V8H19V7H18V6H11V7H10V8H9V9H8v4h2Z"/><path class="ha284-8" d="M11,16h3V15h1v1h5V13H15v1H14V13H9v3h2Zm5-2h3v1H16Zm-6,0h3v1H10Z"/><path class="ha284-10" d="M19,15V14H16v1h3Z"/><path class="ha284-11" d="M13,15V14H10v1h3Z"/></svg>