<svg xmlns="http://www.w3.org/2000/svg" viewBox="0 0 29 33"><defs><style>polygon,rect,path{shape-rendering:crispedges;}.ja105-1{fill:#397d98;}.ja105-2{fill:#000000;}.ja105-3{fill:#ff791f;}.ja105-4{fill:#b23b00;}.ja105-5{fill:#e8b795;}.ja105-6{fill:#ffffff;}.ja105-7{fill:#492a23;}.ja105-8{fill:#492a23;}.ja105-9{fill:#ff1d99;}</style></defs><path class="ja105-1" d="M0,33H6V27H7V26H8V25h2V24h2V21H9V20H8V19H9V16H8V15H9V10h1V9h1V8h1V9h1V8h3V7h1V8h2V9h1v1H19v1h1v4h1v1H20v3h1v1H20v1H17v3h2v1h2v1h1v1h1v6h6V0H0Z"/><rect class="ja105-1" x="16" y="8" width="1" height="1"/><path class="ja105-2" d="M23,27H22v6h1V27Z"/><rect class="ja105-2" x="21" y="26" width="1" height="1"/><path class="ja105-3" d="M21,31v2h1V31Z"/><path class="ja105-3" d="M21,28v2h1V27H21Z"/><path class="ja105-2" d="M21,30V27H20v6h1V30Z"/><path class="ja105-2" d="M20,26h1V25H19v1Z"/><path class="ja105-3" d="M20,32V26H19V25H17V24H16V23H13v1H12v1H10v1H9v6h1v1h4V32h1v1h4V32Zm-9-3H10V28h1Zm2,2H12V30h1Zm0-4H12V26h1Zm2,2H14V28h1Zm0-4H14V24h1Zm2,6H16V30h1Zm0-4H16V26h1Zm1,2V28h1v1Z"/><path class="ja105-2" d="M18,25h1V24H17v1Z"/><path class="ja105-2" d="M13,23h3v1h1V21H16v1H13V21H12v3h1Z"/><path class="ja105-2" d="M12,24H10v1h2Z"/><path class="ja105-2" d="M10,26V25H8v1h2Z"/><path class="ja105-2" d="M9,31V27H8v6H9V31Z"/><rect class="ja105-2" x="7" y="26" width="1" height="1"/><path class="ja105-3" d="M7,31v2H8V31Z"/><path class="ja105-3" d="M7,30H8V27H7v3Z"/><path class="ja105-2" d="M7,30V27H6v6H7V30Z"/><rect class="ja105-4" x="10" y="28" width="1" height="1"/><rect class="ja105-4" x="12" y="30" width="1" height="1"/><rect class="ja105-4" x="14" y="28" width="1" height="1"/><rect class="ja105-4" x="14" y="32" width="1" height="1"/><rect class="ja105-4" x="12" y="26" width="1" height="1"/><rect class="ja105-4" x="16" y="30" width="1" height="1"/><rect class="ja105-4" x="18" y="28" width="1" height="1"/><rect class="ja105-4" x="16" y="26" width="1" height="1"/><rect class="ja105-4" x="14" y="24" width="1" height="1"/><path class="ja105-4" d="M9,27V26H8v1Z"/><path class="ja105-4" d="M19,32v1h1V32Z"/><path class="ja105-4" d="M9,32v1h1V32Z"/><path class="ja105-4" d="M7,31H8V30H7Z"/><path class="ja105-4" d="M21,31h1V30H21Z"/><path class="ja105-4" d="M20,27h1V26H20Z"/><rect class="ja105-2" x="20" y="15" width="1" height="1"/><path class="ja105-2" d="M19,15h1V14H19Z"/><polygon class="ja105-5" points="18 14 19 14 19 13 17 13 17 14 18 14"/><path class="ja105-5" d="M13,22h3V21h1V19h1V18h1V16h1V15H16V13h1V12h1V11H13V10H12v1H11v1h2v1H11v1h2v1H9v1h1v2h1v1h1V18h1v1h3v1H13V19H12v2h1Zm2-5H14V16h1Z"/><rect class="ja105-5" x="10" y="12" width="1" height="1"/><path class="ja105-2" d="M17,20v1h1V20Z"/><path class="ja105-2" d="M11,20v1h1V20Z"/><rect class="ja105-2" x="8" y="15" width="1" height="1"/><rect class="ja105-2" x="14" y="16" width="1" height="1"/><path class="ja105-6" d="M13,15V14H12v1Z"/><path class="ja105-6" d="M10,15h1V14H10Z"/><path class="ja105-6" d="M18,14v1h1V14Z"/><path class="ja105-6" d="M16,14v1h1V14Z"/><path class="ja105-2" d="M12,15V14H11v1Z"/><path class="ja105-2" d="M17,14v1h1V14Z"/><rect class="ja105-7" x="10" y="13" width="1" height="1"/><rect class="ja105-7" x="11" y="12" width="2" height="1"/><path class="ja105-7" d="M17,13H16v1h1Z"/><path class="ja105-7" d="M19,12H17v1h2Z"/><path class="ja105-8" d="M19,17v1H18v1H17v1h1v1h2V20h1V19H20V16H19Z"/><path class="ja105-8" d="M12,20V19H11V18H10V16H9v3H8v1H9v1h2V20Z"/><rect class="ja105-2" x="13" y="19" width="3" height="1"/><rect class="ja105-2" x="12" y="18" width="1" height="1"/><path class="ja105-9" d="M10,14V12h1V11h1V10h1v1h5v1h1v2h1V11H19V10h1V9H19V8H17V9H16V8H13V9H12V8H11V9H10v1H9v5h1Z"/><rect class="ja105-9" x="16" y="7" width="1" height="1"/></svg>