<svg xmlns="http://www.w3.org/2000/svg" viewBox="0 0 29 33"><defs><style>polygon,rect,path{shape-rendering:crispedges;}.bb69-1{fill:#d14646;}.bb69-2{fill:#000000;}.bb69-3{fill:#333333;}.bb69-4{fill:#ffffff;}.bb69-5{fill:#ce8452;}.bb69-6{fill:#99582c;}.bb69-7{fill:#99582c;}.bb69-8{fill:#d8be00;}.bb69-9{fill:#455054;}.bb69-10{fill:#002b4f;}.bb69-11{fill:#ff1f4a;}</style></defs><path class="bb69-1" d="M11,24V23h1V21H11V20H9V18H8v4H9v2H8v1h2V24Z"/><path class="bb69-1" d="M8,32H6V31H5V22H6V21H7V20H5v1H2V17H5V16H8V13H9V11h1V10h1V9h7v1h1v1h1v1h1v6H20v2H18v1H17v2h1v1h1v1h2v1h1v1h1v6h6V0H0V33H8Z"/><path class="bb69-2" d="M23,27H22v6h1V27Z"/><rect class="bb69-2" x="21" y="26" width="1" height="1"/><path class="bb69-3" d="M22,27H21v6h1V27Z"/><path class="bb69-2" d="M21,27H20v6h1V27Z"/><path class="bb69-2" d="M20,26h1V25H19v1Z"/><path class="bb69-3" d="M20,27h1V26H19V25H18v4H17v4h3V27Z"/><rect class="bb69-4" x="16" y="24" width="1" height="1"/><path class="bb69-2" d="M17,29H16v4h1V29Z"/><rect class="bb69-4" x="15" y="23" width="1" height="1"/><path class="bb69-4" d="M16,29h1V26H16V25H13v1H12v3h1v4h1V32h1v1h1V29Zm-1,2H14V30h1Zm0-2H14V28h1Zm0-2H14V26h1Z"/><rect class="bb69-2" x="14" y="26" width="1" height="1"/><rect class="bb69-2" x="14" y="28" width="1" height="1"/><rect class="bb69-2" x="14" y="30" width="1" height="1"/><rect class="bb69-2" x="14" y="32" width="1" height="1"/><rect class="bb69-4" x="13" y="23" width="1" height="1"/><path class="bb69-2" d="M15,24V23H14v1H13v1h3V24Z"/><rect class="bb69-4" x="12" y="24" width="1" height="1"/><path class="bb69-2" d="M13,29H12v4h1V29Z"/><path class="bb69-2" d="M12,24h1V22H12v1H11v1H10v1h1v4h1V26h1V25H12Z"/><path class="bb69-3" d="M12,29H11V25H10v1H8v1H9v6h3V29Z"/><path class="bb69-2" d="M9,27H8V26h2V25H8V24H7v7H6v1H8v1H9V27Z"/><path class="bb69-4" d="M6,25H7V24H6Z"/><path class="bb69-3" d="M7,30V25H6v6H7Z"/><path class="bb69-2" d="M6,25V22H5v9H6V25Z"/><rect class="bb69-2" x="19" y="14" width="1" height="1"/><rect class="bb69-5" x="16" y="19" width="1" height="1"/><rect class="bb69-5" x="19" y="15" width="1" height="1"/><rect class="bb69-5" x="17" y="13" width="1" height="1"/><rect class="bb69-5" x="12" y="19" width="1" height="1"/><path class="bb69-5" d="M13,21h3V20H13Z"/><rect class="bb69-5" x="11" y="13" width="1" height="1"/><rect class="bb69-5" x="17" y="11" width="1" height="1"/><rect class="bb69-5" x="9" y="15" width="1" height="1"/><path class="bb69-5" d="M12,19V18h5v1h1V15H16v1H15v1H14V16h1V14h1V12H15V11H14v4H13v2H12V15H11v4Z"/><rect class="bb69-5" x="12" y="12" width="1" height="1"/><path class="bb69-2" d="M16,23v1h1v1H16v1h1v3h1V25h1V24H18V23H17V22H16Z"/><rect class="bb69-2" x="14" y="16" width="1" height="1"/><rect class="bb69-4" x="12" y="14" width="1" height="1"/><path class="bb69-4" d="M17,15V14H16v1Z"/><rect class="bb69-2" x="11" y="14" width="1" height="1"/><path class="bb69-2" d="M18,15V14H17v1Z"/><rect class="bb69-6" x="17" y="12" width="1" height="1"/><rect class="bb69-6" x="12" y="13" width="1" height="1"/><rect class="bb69-6" x="11" y="12" width="1" height="1"/><path class="bb69-7" d="M19,18H18v1H17v1H16v1H13V20H12V19H11V18H10v2h1v1h1v1h1v1h3V22h1V21h1V20h1V18Z"/><path class="bb69-7" d="M19,16v2h1V16Z"/><path class="bb69-7" d="M10,17V16H9v2h1Z"/><polygon class="bb69-2" points="12 18 12 19 13 19 13 20 16 20 16 19 17 19 17 18 12 18"/><path class="bb69-8" d="M8,18H9V15h1v3h1V12h2v3h1V11h1v1h1v2h1V11h1v7h1V14h1v4h1V12H20V11H19V10H18V9H11v1H10v1H9v2H8v5Z"/><path class="bb69-8" d="M19,19v1h1V18H19Z"/><path class="bb69-8" d="M15,15v1h1V14H15Z"/><path class="bb69-8" d="M12,16v1h1V15H12Z"/><path class="bb69-8" d="M10,20V18H9v2Z"/><path class="bb69-5" d="M7,24H8V22H6v2Z"/><path class="bb69-9" d="M8,22V20H7v2Z"/><path class="bb69-2" d="M7,21H6v1H7Z"/><path class="bb69-2" d="M9,22H8v2H9Z"/><path class="bb69-10" d="M4,21H5V20H4Z"/><path class="bb69-10" d="M5,18V17H4v1Z"/><path class="bb69-10" d="M3,19V18H2v2H3Z"/><path class="bb69-10" d="M5,19v1H6V19Z"/><path class="bb69-10" d="M6,16H5v1H6Z"/><path class="bb69-10" d="M8,17H7v2H8V17Z"/><path class="bb69-11" d="M3,17H2v1H3Z"/><path class="bb69-11" d="M6,17v1H3v2H4V19H7V17Z"/><path class="bb69-11" d="M8,17V16H7v1Z"/><path class="bb69-11" d="M8,19H7v1H8Z"/><path class="bb69-11" d="M2,20v1H3V20Z"/><path class="bb69-4" d="M3,20v1H4V20Z"/><path class="bb69-4" d="M4,19v1H5V19Z"/><path class="bb69-4" d="M4,18V17H3v1Z"/><path class="bb69-4" d="M7,17V16H6v1Z"/><path class="bb69-4" d="M6,18V17H5v1Z"/><path class="bb69-4" d="M6,19v1H7V19Z"/></svg>