<svg xmlns="http://www.w3.org/2000/svg" viewBox="0 0 29 33"><defs><style>polygon,rect,path{shape-rendering:crispedges;}.ib241-1{fill:#b2622b;}.ib241-2{fill:#000000;}.ib241-3{fill:#ffffff;}.ib241-4{fill:#e55b35;}</style></defs><path class="ib241-1" d="M22,24H21v1H20v2h1v6h1V24Z"/><path class="ib241-2" d="M23,24H22v9h1V24Z"/><path class="ib241-2" d="M7,24H6v9H7V24Z"/><path class="ib241-1" d="M8,27H9V25H8V24H7v9H8V27Z"/><path class="ib241-2" d="M9,27H8v6H9V27Z"/><path class="ib241-1" d="M20,27H19V25H16v1H13V25H10v2H9v6h5V29h1v4h5V27Zm-8,2H11V28h1Zm6,0H17V28h1Z"/><rect class="ib241-2" x="11" y="28" width="1" height="1"/><path class="ib241-2" d="M13,25v1h3V25h3V24H17V22h1V21h1V20h1V17h1V15H20V11H19V10H18V9H11v1H10v1H9v4H8v2H9v3h1v1h1v1h1v2H10v1h3Zm3-10V14h1v1h2v1H16Zm0,6H13V20h3Zm-5-5H10V14h1v1h2v1Z"/><path class="ib241-2" d="M15,29H14v4h1V29Z"/><rect class="ib241-2" x="17" y="28" width="1" height="1"/><path class="ib241-2" d="M21,27H20v6h1V27Z"/><path class="ib241-1" d="M19,15H16v1h3Z"/><rect class="ib241-1" x="13" y="20" width="3" height="1"/><path class="ib241-1" d="M13,15H10v1h3Z"/><path class="ib241-3" d="M11,14H10v1h1Z"/><path class="ib241-3" d="M17,14H16v1h1Z"/><path class="ib241-2" d="M20,27V25H19v2Z"/><rect class="ib241-2" x="20" y="24" width="1" height="1"/><rect class="ib241-2" x="21" y="23" width="1" height="1"/><path class="ib241-2" d="M10,27V25H9v2Z"/><rect class="ib241-2" x="8" y="24" width="1" height="1"/><rect class="ib241-2" x="7" y="23" width="1" height="1"/><path class="ib241-4" d="M0,9V33H6V24H7V23H8v1H9v1h1V24h2V22H11V21H10V20H9V17H8V15H9V11h1V10h1V9h7v1h1v1h1v4h1v2H20v3H19v1H18v1H17v2h2v1h1V24h1V23h1v1h1v9h6V0H0Z"/></svg>