<svg xmlns="http://www.w3.org/2000/svg" viewBox="0 0 29 33"><defs><style>polygon,rect,path{shape-rendering:crispedges;}.ab173-1{fill:#397d98;}.ab173-2{fill:#000000;}.ab173-3{fill:#0079bc;}.ab173-4{fill:#b2622b;}.ab173-5{fill:#db5800;}.ab173-6{fill:#ffffff;}.ab173-7{fill:#6c9302;}.ab173-8{fill:#ffce00;}</style></defs><path class="ab173-1" d="M0,33H6V27H7V26H8V25h2V24h1V23h1V21H10v1H9V21H8V20H9V17H8V12H9V10h1V9h1V8h7V9h1v1h1v2h1v6H20v2h1v1H20v1H19V21H17v2h1v1h1v1h2v1h1v1h1v6h6V0H0Z"/><path class="ab173-2" d="M23,27H22v6h1V27Z"/><path class="ab173-3" d="M21,28h1V27H21Z"/><path class="ab173-3" d="M21,31v1h1V30H21Z"/><rect class="ab173-2" x="21" y="26" width="1" height="1"/><path class="ab173-2" d="M21,31V27H20v6h1V31Z"/><path class="ab173-3" d="M16,31V30H15v2h1v1h1V31Z"/><path class="ab173-3" d="M10,31V30H9v2h1v1h1V31Z"/><path class="ab173-3" d="M14,31H13V30H12V28H11V27H10V26H9v2h1v1h1v2h1v1h1v1h1V31Z"/><path class="ab173-3" d="M19,31V30H18V28H17V27H16V25H15v3h1v1h1v2h1v1h1v1h1V31Z"/><path class="ab173-3" d="M18,26v2h1v1h1V27H19V25H18Z"/><path class="ab173-3" d="M13,29h1V27H13V26H12v2h1Z"/><rect class="ab173-3" x="14" y="29" width="1" height="1"/><path class="ab173-2" d="M20,26h1V25H19v1Z"/><rect class="ab173-3" x="16" y="24" width="1" height="1"/><rect class="ab173-2" x="15" y="24" width="1" height="1"/><path class="ab173-2" d="M14,32v1h1V32Z"/><path class="ab173-2" d="M14,31h1V30H14Z"/><path class="ab173-2" d="M14,29h1V28H14Z"/><path class="ab173-2" d="M14,26v1h1V25H14Z"/><rect class="ab173-2" x="13" y="24" width="1" height="1"/><path class="ab173-4" d="M16,24V23H13v1h1v1h1V24Z"/><path class="ab173-2" d="M11,26h2V25H12V24h1V23h3v1h1v1H16v1h2V25h1V24H18V23H17V21H16v1H13V21H12v2H11v1H10v1h1Z"/><path class="ab173-2" d="M10,26V25H8v1h2Z"/><path class="ab173-2" d="M9,31V27H8v6H9V31Z"/><path class="ab173-3" d="M7,31v2H8V31Z"/><path class="ab173-3" d="M8,29V27H7v2Z"/><rect class="ab173-2" x="7" y="26" width="1" height="1"/><path class="ab173-2" d="M7,30V27H6v6H7V30Z"/><path class="ab173-5" d="M21,29v1h1V28H21Z"/><path class="ab173-5" d="M21,32v1h1V32Z"/><path class="ab173-5" d="M19,26v1h2V26H19Z"/><path class="ab173-5" d="M19,28H18v2h1v1h1V29H19Z"/><path class="ab173-5" d="M16,26v1h1v1h1V26Z"/><path class="ab173-5" d="M18,32V31H17v2h2V32Z"/><path class="ab173-5" d="M15,30h1v1h1V29H16V28H15v2Z"/><path class="ab173-5" d="M14,28h1V27H14Z"/><polygon class="ab173-5" points="14 27 14 26 14 25 13 25 13 26 13 27 14 27"/><path class="ab173-5" d="M14,32h1V31H14Z"/><rect class="ab173-5" x="15" y="32" width="1" height="1"/><path class="ab173-5" d="M14,29H13V28H12v2h1v1h1V29Z"/><rect class="ab173-5" x="12" y="24" width="1" height="1"/><path class="ab173-5" d="M10,27h1v1h1V26H11V25H10v2Z"/><path class="ab173-5" d="M12,32V31H11v2h2V32Z"/><path class="ab173-5" d="M10,30v1h1V29H10V28H9v2Z"/><path class="ab173-5" d="M9,32v1h1V32Z"/><path class="ab173-5" d="M9,27V26H8v1Z"/><path class="ab173-5" d="M7,30v1H8V29H7Z"/><path class="ab173-4" d="M13,22h3V21h1V20h1V19h1V16h1V15H16V14h3V13H16V12h1V11H16V10H15v1H14v1H13v3H10v4h1v1h1v1h1Zm1-6h1v1H14Zm-1,3h3V18h1v1H16v1H13Z"/><path class="ab173-2" d="M19,16v3h1V16Z"/><rect class="ab173-2" x="18" y="19" width="1" height="1"/><path class="ab173-2" d="M17,20v1h1V20Z"/><path class="ab173-2" d="M11,20v1h1V20Z"/><rect class="ab173-2" x="10" y="19" width="1" height="1"/><path class="ab173-2" d="M10,18H9v1h1Z"/><rect class="ab173-2" x="14" y="16" width="1" height="1"/><path class="ab173-6" d="M12,15h1V14H12Z"/><path class="ab173-6" d="M10,14v1h1V14Z"/><path class="ab173-6" d="M18,14v1h1V14Z"/><path class="ab173-6" d="M16,14v1h1V14Z"/><path class="ab173-2" d="M11,14v1h1V14Z"/><path class="ab173-2" d="M17,14v1h1V14Z"/><path class="ab173-7" d="M17,12H16v1h2V12Z"/><path class="ab173-7" d="M12,14h1V13H12Z"/><rect class="ab173-2" x="13" y="19" width="3" height="1"/><rect class="ab173-2" x="16" y="18" width="1" height="1"/><path class="ab173-8" d="M19,20H18v1h1v1h1V21h1V20H20V19H19Z"/><path class="ab173-8" d="M10,20V19H9v1H8v1H9v1h1V21h1V20Z"/><path class="ab173-8" d="M10,17V14h2V13h1V12h1V11h1V10h1v1h1v1h1v1h1v2h1v3h1V12H20V10H19V9H18V8H11V9H10v1H9v2H8v5H9v1h1Z"/></svg>