<svg xmlns="http://www.w3.org/2000/svg" viewBox="0 0 29 33"><defs><style>polygon,rect,path{shape-rendering:crispedges;}.ka59-1{fill:#d14646;}.ka59-2{fill:#000000;}.ka59-3{fill:#45ba00;}.ka59-4{fill:#b2622b;}.ka59-5{fill:#5e362f;}.ka59-6{fill:#fad000;}.ka59-7{fill:#5e362f;}.ka59-8{fill:#0079bc;}.ka59-9{fill:#ffffff;}</style></defs><path class="ka59-1" d="M6,32V27H7V26H8V25h2V23h1V22h1V21H11V20H9V18H8V12H9V11h1V10h1V9h7v1h1v1h1v2h1v5H20v2H18v1H17v1h1v1h1v2h2v1h1v1h1v6h6V0H0V33H6Z"/><path class="ka59-2" d="M23,27H22v6h1V27Z"/><rect class="ka59-2" x="21" y="26" width="1" height="1"/><path class="ka59-3" d="M22,27H21v6h1V27Z"/><path class="ka59-2" d="M21,27H20v6h1V27Z"/><path class="ka59-2" d="M20,26h1V25H19v1Z"/><path class="ka59-3" d="M14,24h1v1h1V23H13v2h1Z"/><path class="ka59-3" d="M20,27h1V26H19V25H18v1H17v1H16v2H15v1H14V29H13V27H12V26H11V25H10v1H8v1H9v6H20V27Z"/><path class="ka59-2" d="M10,25H8v1h2Z"/><path class="ka59-2" d="M9,27H8v6H9V27Z"/><rect class="ka59-2" x="7" y="26" width="1" height="1"/><path class="ka59-3" d="M8,27H7v6H8V27Z"/><path class="ka59-2" d="M7,27H6v6H7V27Z"/><rect class="ka59-4" x="19" y="15" width="1" height="1"/><rect class="ka59-4" x="11" y="11" width="1" height="1"/><path class="ka59-4" d="M13,22h3V21h1V20h1V19h1V18H18V17H16V16H15v1H14V16H13v1H11v1H10v1h1v1h1v1h1Zm-1-3V18h5v1H16v1H13V19Z"/><rect class="ka59-4" x="14" y="15" width="1" height="1"/><rect class="ka59-4" x="9" y="15" width="1" height="1"/><path class="ka59-4" d="M14,14h1V11H14v1H13v2Z"/><path class="ka59-2" d="M19,16v2h1V16Z"/><path class="ka59-2" d="M18,19v1h1V19Z"/><rect class="ka59-2" x="17" y="20" width="1" height="1"/><rect class="ka59-2" x="11" y="20" width="1" height="1"/><path class="ka59-2" d="M10,19v1h1V19Z"/><rect class="ka59-2" x="9" y="14" width="1" height="1"/><path class="ka59-2" d="M10,17V16H9v2h1Z"/><rect class="ka59-2" x="14" y="16" width="1" height="1"/><path class="ka59-5" d="M18,12H16v1h2Z"/><rect class="ka59-5" x="11" y="12" width="1" height="1"/><rect class="ka59-2" x="14" y="29" width="1" height="1"/><rect class="ka59-2" x="12" y="26" width="1" height="1"/><path class="ka59-2" d="M15,28v1h1V27H15Z"/><rect class="ka59-2" x="16" y="26" width="1" height="1"/><path class="ka59-2" d="M13,27v2h1V27Z"/><rect class="ka59-2" x="17" y="25" width="1" height="1"/><rect class="ka59-2" x="11" y="25" width="1" height="1"/><rect class="ka59-2" x="14" y="24" width="1" height="1"/><rect class="ka59-2" x="13" y="25" width="1" height="1"/><rect class="ka59-2" x="15" y="25" width="1" height="1"/><path class="ka59-2" d="M12,24v1h1V23h3v2h1V23h1V22H17V21H16v1H13V21H12v1H11v1h1Z"/><rect class="ka59-6" x="16" y="25" width="1" height="1"/><path class="ka59-6" d="M15,26V25H14v1H13v1h1v2h1V27h1V26Z"/><rect class="ka59-6" x="12" y="25" width="1" height="1"/><path class="ka59-6" d="M11,25h1V23H11v2Z"/><path class="ka59-6" d="M17,24v1h1V23H17Z"/><path class="ka59-2" d="M19,25V23H18v2Z"/><path class="ka59-2" d="M11,24V23H10v2h1Z"/><path class="ka59-7" d="M16,19V18H12v1h4Z"/><path class="ka59-2" d="M13,20h3V19H13Z"/><path class="ka59-2" d="M17,19V18H16v1Z"/><path class="ka59-8" d="M9,15V14h2V11h1v2h1V12h1V11h1v3h1V12h2v2h1v1h1v3h1V13H20V11H19V10H18V9H11v1H10v1H9v1H8v6H9V15Z"/><path class="ka59-8" d="M18,16v2h1V16Z"/><path class="ka59-8" d="M10,16v2h1V16Z"/><path class="ka59-8" d="M10,18H9v2h1V18Z"/><path class="ka59-8" d="M19,19v1h1V18H19Z"/><path class="ka59-9" d="M13,13H11v1h2Z"/><path class="ka59-9" d="M11,17h2V16H11Z"/><path class="ka59-9" d="M11,15V14H10v2h1Z"/><path class="ka59-2" d="M11,14v2h2V14Z"/><path class="ka59-9" d="M19,16V14H18v2Z"/><path class="ka59-9" d="M18,13H16v1h2Z"/><path class="ka59-9" d="M17,16H16v1h2V16Z"/><path class="ka59-9" d="M15,14H13v2h1V15h1v1h1V14Z"/><path class="ka59-2" d="M18,16V14H16v2h2Z"/></svg>