<svg xmlns="http://www.w3.org/2000/svg" viewBox="0 0 29 33"><defs><style>polygon,rect,path{shape-rendering:crispedges;}.na247-1{fill:#d4a122;}.na247-2{fill:#000000;}.na247-3{fill:#8c7850;}.na247-4{fill:#a0688d;}.na247-5{fill:#b2622b;}.na247-6{fill:#893a1f;}.na247-7{fill:#893a1f;}.na247-8{fill:#004a77;}</style></defs><path class="na247-1" d="M0,33H6V27H7V26H8V25h2V24h2V22H11V21H10V20H9V16H8V15H9V10h1V9h1V8h7V9h1v2h1v4h1v1H20v4H19v1H18v1H17v2h2v1h2V23H20V21h1V20h1V19h2v1h1v3H24v8H23v1H21v1h8V0H0Z"/><path class="na247-2" d="M23,24v7h1V23H23Z"/><path class="na247-2" d="M7,27H6v6H7V27Z"/><path class="na247-3" d="M8,27H7v6H8V27Z"/><rect class="na247-2" x="7" y="26" width="1" height="1"/><path class="na247-2" d="M9,27H8v6H9V27Z"/><path class="na247-3" d="M11,25H10v1H8v1H9v6h2V25Z"/><path class="na247-2" d="M10,25H8v1h2Z"/><path class="na247-2" d="M12,26h1V25H12V24H10v1h1v8h1V26Z"/><path class="na247-4" d="M17,26H16v1H13V26H12v7h5V26Z"/><path class="na247-2" d="M13,23H12v1h1Z"/><path class="na247-2" d="M13,26v1h3V26H13Z"/><path class="na247-5" d="M13,25v1h3V25h1V24H16V23H13v1H12v1Z"/><path class="na247-2" d="M16,24h1V23H16Z"/><path class="na247-2" d="M18,25h1V24H17v1H16v1h1v7h1V25Z"/><path class="na247-3" d="M20,27h1V26H19V25H18v8h2V27Z"/><path class="na247-2" d="M22,32h1V31H22V23H21v2H19v1h2v1H20v6h1V32Z"/><path class="na247-3" d="M23,24H22v7h1V24Z"/><rect class="na247-2" x="20" y="15" width="1" height="1"/><path class="na247-5" d="M17,13v1h2V13Z"/><path class="na247-5" d="M18,10H16v1H15v1H14v1H11v1h5V13h1V12h2V11H18Z"/><rect class="na247-5" x="18" y="16" width="1" height="1"/><rect class="na247-5" x="19" y="15" width="1" height="1"/><rect class="na247-5" x="9" y="15" width="1" height="1"/><rect class="na247-5" x="14" y="15" width="1" height="1"/><rect class="na247-5" x="10" y="16" width="1" height="1"/><path class="na247-5" d="M16,16H15v1H14V16H13v1H11v1h5v1h1V18h1V17H16Z"/><rect class="na247-2" x="8" y="15" width="1" height="1"/><rect class="na247-2" x="14" y="16" width="1" height="1"/><rect class="na247-6" x="16" y="13" width="1" height="1"/><rect class="na247-6" x="17" y="12" width="2" height="1"/><path class="na247-7" d="M15,18H13v1h3V18Z"/><path class="na247-7" d="M14,23h3V22h1V21h1V20h1V16H19v1H18v1H17v1H16v1H13V19H12V18H11V17H10V16H9v4h1v1h1v1h1v1h2Z"/><rect class="na247-2" x="13" y="19" width="3" height="1"/><path class="na247-2" d="M12,18v1h1V18Z"/><path class="na247-2" d="M20,21v2h1V21Z"/><rect class="na247-2" x="21" y="20" width="1" height="1"/><rect class="na247-2" x="22" y="19" width="2" height="1"/><path class="na247-2" d="M24,23h1V20H24v3Z"/><path class="na247-5" d="M22,24h1V23h1V20H22v1H21v2h1Z"/><path class="na247-8" d="M11,13h3V12h1V11h1V10h2v1h1V9H18V8H11V9H10v1H9v4h2Z"/><path class="na247-8" d="M19,13v1h1V11H19v2Z"/><path class="na247-2" d="M10,16h1v1h2V16h1V15h1v1h1v1h2V16h1V15h1V14H9v1h1Z"/></svg>