<svg xmlns="http://www.w3.org/2000/svg" viewBox="0 0 29 33"><defs><style>polygon,rect,path{shape-rendering:crispedges;}.za83-1{fill:#29834f;}.za83-2{fill:#000000;}.za83-3{fill:#cc3232;}.za83-4{fill:#a56e49;}.za83-5{fill:#2e1572;}.za83-6{fill:#b23b00;}.za83-7{fill:#ff791f;}.za83-8{fill:#db5800;}.za83-9{fill:#474718;}.za83-10{fill:#6f7032;}.za83-11{fill:#ffffff;}</style></defs><path class="za83-1" d="M19,21H17v2h1v1h1V21Z"/><path class="za83-1" d="M6,32V27H7V26H8V25h2V24h1V23h1V21H9V20H8V19H9V16H8V15H9V10h1V9h1V8h7V9h1v1h1v5h1v1H20v3h1v1H20v1h2v4h1v8h6V0H0V33H6Z"/><path class="za83-2" d="M7,30V27H6v6H7V30Z"/><path class="za83-3" d="M7,31v2H8V31Z"/><path class="za83-3" d="M8,29V27H7v2Z"/><rect class="za83-2" x="7" y="26" width="1" height="1"/><path class="za83-2" d="M9,31V27H8v6H9V31Z"/><path class="za83-3" d="M14,31H13V30H12V28H11V27H10V26H9v2h1v1h1v2h1v1h1v1h1V31Z"/><path class="za83-3" d="M10,31V30H9v2h1v1h1V31Z"/><rect class="za83-3" x="14" y="29" width="1" height="1"/><path class="za83-3" d="M13,29h1V27H13V26H12v2h1Z"/><path class="za83-3" d="M16,31V30H15v2h1v1h1V31Z"/><path class="za83-3" d="M19,31V30H18V28H17V27H16V25H15v3h1v1h1v2h1v1h1v1h1V31Z"/><path class="za83-3" d="M19,26V25H18v3h1v1h1V27H19Z"/><path class="za83-2" d="M10,26V25H8v1h2Z"/><path class="za83-2" d="M11,26h2V25H12V24h1V23h3v1h1v1H16v1h2V25h1V24H18V23H17V21H16v1H13V21H12v2H11v1H10v1h1Z"/><rect class="za83-2" x="13" y="24" width="1" height="1"/><path class="za83-2" d="M14,32v1h1V32Z"/><path class="za83-2" d="M14,31h1V30H14Z"/><path class="za83-2" d="M14,29h1V28H14Z"/><path class="za83-2" d="M14,26v1h1V25H14Z"/><rect class="za83-2" x="15" y="24" width="1" height="1"/><path class="za83-4" d="M16,24V23H13v1h1v1h1V24Z"/><rect class="za83-3" x="16" y="24" width="1" height="1"/><path class="za83-2" d="M21,31V26H20v7h1V31Z"/><path class="za83-3" d="M21,28h1V27H21Z"/><path class="za83-3" d="M21,31v1h1V30H21Z"/><path class="za83-2" d="M23,25H22v8h1V25Z"/><path class="za83-5" d="M19,28H18v2h1v1h1V29H19Z"/><path class="za83-5" d="M21,32v1h1V32Z"/><path class="za83-5" d="M16,26v1h1v1h1V26Z"/><path class="za83-5" d="M19,27h1V26H19Z"/><path class="za83-5" d="M21,29v1h1V28H21Z"/><path class="za83-5" d="M18,32V31H17v2h2V32Z"/><path class="za83-5" d="M15,30h1v1h1V29H16V28H15v2Z"/><polygon class="za83-5" points="14 27 14 26 14 25 13 25 13 26 13 27 14 27"/><path class="za83-5" d="M14,28h1V27H14Z"/><rect class="za83-5" x="15" y="32" width="1" height="1"/><path class="za83-5" d="M14,32h1V31H14Z"/><path class="za83-5" d="M14,29H13V28H12v2h1v1h1V29Z"/><rect class="za83-5" x="12" y="24" width="1" height="1"/><path class="za83-5" d="M10,27h1v1h1V26H11V25H10v2Z"/><path class="za83-5" d="M12,32V31H11v2h2V32Z"/><path class="za83-5" d="M10,30v1h1V29H10V28H9v2Z"/><path class="za83-5" d="M9,32v1h1V32Z"/><path class="za83-5" d="M9,27V26H8v1Z"/><path class="za83-5" d="M7,30v1H8V29H7Z"/><rect class="za83-2" x="20" y="15" width="1" height="1"/><rect class="za83-4" x="9" y="15" width="1" height="1"/><rect class="za83-4" x="14" y="13" width="1" height="1"/><rect class="za83-4" x="19" y="15" width="1" height="1"/><path class="za83-4" d="M13,22h3V21h1V19h1V18h1V16H16V15H13v1H10v2h1v1h1V18h1v1h3v1H13V19H12v2h1Zm2-5H14V16h1Z"/><path class="za83-2" d="M18,20H17v1h1Z"/><path class="za83-2" d="M11,20v1h1V20Z"/><rect class="za83-2" x="8" y="15" width="1" height="1"/><rect class="za83-2" x="14" y="16" width="1" height="1"/><path class="za83-6" d="M19,17v1H18v1H17v1h1v1h2V20h1V19H20V16H19Z"/><path class="za83-6" d="M12,20V19H11V18H10V16H9v3H8v1H9v1h2V20Z"/><rect class="za83-2" x="13" y="19" width="3" height="1"/><rect class="za83-2" x="12" y="18" width="1" height="1"/><path class="za83-7" d="M19,14h1V13H19Z"/><path class="za83-7" d="M10,13H9v1h1Z"/><path class="za83-8" d="M13,14H10v2h3V15h1V14Z"/><path class="za83-8" d="M19,14H15v1h1v1h3V14Z"/><path class="za83-2" d="M16,14h3V13H15v1Z"/><path class="za83-2" d="M13,14h1V13H10v1h3Z"/><path class="za83-2" d="M19,15h1V14H19Z"/><path class="za83-2" d="M10,14H9v1h1Z"/><path class="za83-2" d="M14,14v1h1V14Z"/><path class="za83-9" d="M19,12v1h1V11H19Z"/><path class="za83-10" d="M10,12v1h1V11h1v2h1V11h1v2h1V11h1v2h1V11h1v2h1V11h1V10H19V9H18V8H11V9H10v1H9v1h1Z"/><path class="za83-9" d="M18,12V11H17v2h1Z"/><path class="za83-9" d="M16,12V11H15v2h1Z"/><path class="za83-9" d="M14,12V11H13v2h1Z"/><path class="za83-9" d="M12,12V11H11v2h1Z"/><path class="za83-9" d="M10,12V11H9v2h1Z"/><rect class="za83-2" x="20" y="22" width="1" height="1"/><path class="za83-11" d="M19,22v4h1V25h2V21H19Zm1,0h1v1H20Z"/><path class="za83-4" d="M20,26h1v1h1V25H20Z"/></svg>