<svg xmlns="http://www.w3.org/2000/svg" viewBox="0 0 29 33"><defs><style>polygon,rect,path{shape-rendering:crispedges;}.qa273-1{fill:#6b4f99;}.qa273-2{fill:#000000;}.qa273-3{fill:#ffb38d;}.qa273-4{fill:#e8b795;}.qa273-5{fill:#ffb38d;}.qa273-6{fill:#99004d;}.qa273-7{fill:#fad000;}.qa273-8{fill:#99004d;}.qa273-9{fill:#ff1d99;}</style></defs><rect class="qa273-1" x="10" y="19" width="1"/><path class="qa273-1" d="M0,33H29V0H0Zm6-1V27H7V26H8V25h2V24h1V23H10V22h1V20H10V19H9V16H8V15H9V10h1V9h1V8h7V9h1v1h1v6H19v3h0V16h1V15h1v1H20v3H19v1H18v2h1v1H18v1h1v1h2v1h1v1h1v6H6Z"/><rect class="qa273-1" x="17" y="20"/><rect class="qa273-1" x="9" y="16" width="1"/><rect class="qa273-1" x="14" y="16" width="1"/><path class="qa273-2" d="M22,33h1V27H22v6Z"/><path class="qa273-3" d="M21,28v5h1V27H21Z"/><rect class="qa273-2" x="21" y="26" width="1" height="1"/><path class="qa273-2" d="M21,28V27H20v6h1V28Z"/><rect class="qa273-3" x="10" y="29" width="1" height="1"/><rect class="qa273-3" x="18" y="29" width="1" height="1"/><path class="qa273-3" d="M18,26v1H17v2h1V28h1v1h1V27h1V26H18Z"/><path class="qa273-3" d="M19,32V31H18v1H17V30H16v1H15v1H13V30H12v2H11V31H10v1H9v1H20V32Z"/><path class="qa273-3" d="M9,27v2h1V28h1v1h1V27H11V26H8v1Z"/><rect class="qa273-2" x="18" y="22" width="1" height="1"/><rect class="qa273-3" x="17" y="22" width="1" height="1"/><path class="qa273-4" d="M16,24V23H13v1h3Z"/><rect class="qa273-3" x="11" y="22" width="1" height="1"/><rect class="qa273-2" x="10" y="22" width="1" height="1"/><path class="qa273-2" d="M11,26V24H10v1H8v1h3Z"/><path class="qa273-2" d="M9,31V27H8v6H9V31Z"/><path class="qa273-3" d="M7,32v1H8V27H7v5Z"/><rect class="qa273-2" x="7" y="26" width="1" height="1"/><path class="qa273-2" d="M7,32V27H6v6H7Z"/><rect class="qa273-3" x="15" y="25" width="1" height="1"/><rect class="qa273-3" x="13" y="25" width="1" height="1"/><path class="qa273-5" d="M17,31v1h1V31h1v1h1V29H19v1H18V29H17v2Z"/><rect class="qa273-5" x="18" y="28" width="1" height="1"/><rect class="qa273-5" x="15" y="30" width="1" height="1"/><path class="qa273-5" d="M14,30H13v2h2V31H14Z"/><path class="qa273-5" d="M9,32h1V31h1v1h1V29H11v1H10V29H9v3Z"/><rect class="qa273-5" x="10" y="28" width="1" height="1"/><path class="qa273-2" d="M13,30h1V28H13V27H12v3Z"/><rect class="qa273-2" x="20" y="15" width="1" height="1"/><path class="qa273-4" d="M14,20V19H12v1h1v1h1Z"/><rect class="qa273-4" x="18" y="13" height="1"/><path class="qa273-4" d="M10,16h0v3h2V18h5v1h2V16h1V15H18v1H16V15H15V14H14v1H13v1H11V15H9v1Zm4,1V16h1v1H14Z"/><path class="qa273-4" d="M18,12v1h1V12H18V11H17V10H12v1H11v1H10v1h1V12h2v1h3V12Z"/><path class="qa273-4" d="M17,20h0V19H15v2h1V20Z"/><path class="qa273-2" d="M20,18V16H19v3h1Z"/><polygon class="qa273-2" points="19 20 19 19 18 19 18 20 19 20"/><rect class="qa273-2" x="10" y="19" width="1" height="1"/><path class="qa273-2" d="M10,18V16H9v3h1Z"/><polygon class="qa273-2" points="9 15 8 15 8 16 9 16 9 16 9 15"/><polygon class="qa273-2" points="15 17 15 16 14 16 14 17 14 17 15 17 15 17"/><rect class="qa273-6" x="18" y="13" width="1" height="1"/><path class="qa273-6" d="M18,12H16v1h2Z"/><rect class="qa273-6" x="10" y="13" width="1" height="1"/><path class="qa273-6" d="M11,12v1h2V12Z"/><rect class="qa273-2" x="14" y="30" width="1" height="1"/><path class="qa273-2" d="M16,28H15v2h2V27H16Z"/><rect class="qa273-2" x="17" y="26" width="1" height="1"/><rect class="qa273-2" x="11" y="26" width="1" height="1"/><rect class="qa273-2" x="13" y="26" width="1" height="1"/><rect class="qa273-2" x="15" y="26" width="1" height="1"/><path class="qa273-2" d="M12,25v1h1V25h1v1h1V25h1v1h1V24h1V23H17V22h1V20H17v1H16v1H13V21H12V20H11v2h1v1H11v1h1Zm1-2h3v1H13Z"/><rect class="qa273-7" x="16" y="26" width="1" height="1"/><path class="qa273-7" d="M13,27v1h1v2h1V28h1V27H15V26H14v1Z"/><rect class="qa273-7" x="12" y="26" width="1" height="1"/><path class="qa273-7" d="M12,26V24H11v2Z"/><path class="qa273-7" d="M17,25v1h1V24H17Z"/><path class="qa273-2" d="M19,26h2V25H19V24H18v2Z"/><polygon class="qa273-8" points="17 20 17 20 18 20 18 19 18 19 17 19 17 20"/><polygon class="qa273-8" points="16 20 16 21 17 21 17 20 17 20 16 20"/><path class="qa273-8" d="M15,20H14v1H13v1h3V21H15Z"/><path class="qa273-8" d="M15,19h2V18H12v1h3Z"/><polygon class="qa273-8" points="12 20 12 21 13 21 13 20 12 20"/><polygon class="qa273-8" points="12 20 12 19 11 19 11 20 12 20 12 20"/><path class="qa273-2" d="M14,20h1V19H14Z"/><path class="qa273-9" d="M10,13V12h1V11h1V10h5v1h1v1h1v2h1V10H19V9H18V8H11V9H10v1H9v4h1Z"/><path class="qa273-2" d="M11,16h2V15h1V14h1v1h1v1h2V15h2V14H18V13H11v1H9v1h2Z"/></svg>