<svg xmlns="http://www.w3.org/2000/svg" viewBox="0 0 29 33"><defs><style>polygon,rect,path{shape-rendering:crispedges;}.ib211-1{fill:#e55b35;}.ib211-2{fill:#000000;}.ib211-3{fill:#c18d59;}.ib211-4{fill:#99582c;}.ib211-5{fill:#fad000;}.ib211-6{fill:#ffffff;}.ib211-7{fill:#99582c;}.ib211-8{fill:#c8a715;}</style></defs><path class="ib211-1" d="M0,33H6V27H7V26H8V25h2V20H9V16H8V15H9V11h1V10h1V9h7v1h1v1h1v4h1v1H20v4H19v5h2v1h1v1h1v6h6V0H0Z"/><path class="ib211-2" d="M23,27H22v6h1V27Z"/><path class="ib211-3" d="M22,27H21v6h1V27Z"/><rect class="ib211-2" x="21" y="26" width="1" height="1"/><path class="ib211-2" d="M21,27H20v6h1V27Z"/><path class="ib211-3" d="M20,27h1V26H19V25H18v1H17v1H16v1H13V27H12V26H11V25H10v1H8v1H9v6h5V29h1v4h5V27Zm-8,2H11V28h1Zm6,0H17V28h1Z"/><path class="ib211-3" d="M13,25h3V23H13v2Z"/><path class="ib211-2" d="M20,26h1V25H19v1Z"/><rect class="ib211-2" x="17" y="28" width="1" height="1"/><path class="ib211-2" d="M15,29H14v4h1V29Z"/><rect class="ib211-2" x="11" y="28" width="1" height="1"/><path class="ib211-2" d="M10,25H8v1h2Z"/><path class="ib211-2" d="M9,27H8v6H9V27Z"/><path class="ib211-3" d="M8,27H7v6H8V27Z"/><rect class="ib211-2" x="7" y="26" width="1" height="1"/><path class="ib211-2" d="M7,27H6v6H7V27Z"/><rect class="ib211-2" x="20" y="15" width="1" height="1"/><path class="ib211-3" d="M18,16v1H16V16H15v1H14V16H13v1H11V16H10v2h1v1h1V18h2v1h1V18h2v1h1V18h1V16Z"/><path class="ib211-3" d="M12,12v1h1v1h5V13H16V12h2v1h1V11H18V10H11v1H10v1Z"/><polygon class="ib211-3" points="13 21 14 21 14 22 15 22 15 21 16 21 16 20 13 20 13 21"/><rect class="ib211-3" x="19" y="15" width="1" height="1"/><rect class="ib211-3" x="14" y="15" width="1" height="1"/><path class="ib211-3" d="M10,13v1h2V13Z"/><rect class="ib211-3" x="9" y="15" width="1" height="1"/><path class="ib211-2" d="M19,17h1V16H19Z"/><rect class="ib211-2" x="18" y="10" width="1" height="1"/><path class="ib211-2" d="M18,10V9H11v1h7Z"/><rect class="ib211-2" x="10" y="10" width="1" height="1"/><path class="ib211-2" d="M10,16H9v1h1Z"/><rect class="ib211-2" x="8" y="15" width="1" height="1"/><rect class="ib211-2" x="14" y="16" width="1" height="1"/><rect class="ib211-4" x="18" y="13" width="1" height="1"/><rect class="ib211-4" x="16" y="12" width="2" height="1"/><rect class="ib211-4" x="12" y="13" width="1" height="1"/><rect class="ib211-4" x="10" y="12" width="2" height="1"/><path class="ib211-2" d="M18,25h1V24H18Z"/><rect class="ib211-2" x="17" y="25" width="1" height="1"/><rect class="ib211-5" x="17" y="24" width="1" height="1"/><rect class="ib211-6" x="17" y="23" width="1" height="1"/><rect class="ib211-2" x="17" y="22" width="1" height="1"/><rect class="ib211-2" x="16" y="26" width="1" height="1"/><rect class="ib211-6" x="16" y="25" width="1" height="1"/><rect class="ib211-5" x="15" y="26" width="1" height="1"/><path class="ib211-2" d="M14,27H13v1h3V27H14Z"/><path class="ib211-6" d="M14,27h1V26H14Z"/><rect class="ib211-5" x="13" y="26" width="1" height="1"/><path class="ib211-2" d="M13,25v1h3V25H13Z"/><rect class="ib211-2" x="12" y="26" width="1" height="1"/><rect class="ib211-6" x="12" y="25" width="1" height="1"/><rect class="ib211-2" x="11" y="25" width="1" height="1"/><rect class="ib211-5" x="11" y="24" width="1" height="1"/><rect class="ib211-6" x="11" y="23" width="1" height="1"/><rect class="ib211-2" x="11" y="22" width="1" height="1"/><path class="ib211-2" d="M11,24H10v1h1Z"/><path class="ib211-7" d="M12,22v1h5V22h2V20h1V17H19v1H18v1H16v2H15v1H14V21H13V19h1V18H12v1H11V18H10V17H9v3h1v2h2Z"/><path class="ib211-7" d="M15,18v1h1V18Z"/><path class="ib211-8" d="M18,23h1V22H18Z"/><path class="ib211-7" d="M18,24h1V23H18Z"/><path class="ib211-8" d="M17,24V23H16v1Z"/><path class="ib211-7" d="M16,25h1V24H16Z"/><path class="ib211-8" d="M13,24V23H12v1Z"/><path class="ib211-7" d="M12,24v1h1V24Z"/><path class="ib211-8" d="M11,22H10v1h1Z"/><path class="ib211-7" d="M11,23H10v1h1Z"/><path class="ib211-2" d="M14,19H13v1h3V19H14Z"/><path class="ib211-2" d="M16,18v1h1V18Z"/><path class="ib211-2" d="M10,16h1v1h2V16h1V15h1v1h1v1h2V16h1V15h1V11H19v3H10V11H9v4h1Z"/></svg>