<svg xmlns="http://www.w3.org/2000/svg" viewBox="0 0 29 33"><defs><style>polygon,rect,path{shape-rendering:crispedges;}.ba189-1{fill:#7a982c;}.ba189-2{fill:#000000;}.ba189-3{fill:#e8b795;}.ba189-4{fill:#ffffff;}.ba189-5{fill:#ffffff;}.ba189-6{fill:#ffffff;}.ba189-7{fill:#893a1f;}.ba189-8{fill:#893a1f;}.ba189-9{fill:#c8a715;}.ba189-10{fill:#cbed03;}.ba189-11{fill:#fad000;}</style></defs><path class="ba189-1" d="M0,33H6V27H7V26H8V25h2V20H9V18H8V13H9V11h1V10h1V9h7v1h1v1h1v1h1v6H20v2H19v1h1v1h1v1h1v1h2v1h1v2H24V26H23v7h6V0H0Z"/><path class="ba189-1" d="M18,24V22H17v2Z"/><rect class="ba189-1" x="19" y="23" width="1" height="1"/><path class="ba189-1" d="M12,22H11v2h1V22Z"/><path class="ba189-2" d="M7,27H6v6H7V27Z"/><rect class="ba189-2" x="7" y="26" width="1" height="1"/><path class="ba189-3" d="M8,27H7v6H8V27Z"/><rect class="ba189-3" x="8" y="26" width="1" height="1"/><path class="ba189-2" d="M9,30V27H8v6H9V30Z"/><path class="ba189-2" d="M10,26V25H8v1h2Z"/><rect class="ba189-4" x="10" y="30" width="1" height="1"/><rect class="ba189-4" x="10" y="32" width="1" height="1"/><path class="ba189-4" d="M17,30h1V29h1v1h1V27H19V25H18v1H17v1H16v1H13V27H12V26H11V25H10v1H9v4h1V29h1v1h1v3h1V29h2v1h1v2H15v1h2V30Z"/><rect class="ba189-4" x="18" y="32" width="1" height="1"/><rect class="ba189-4" x="18" y="30" width="1" height="1"/><path class="ba189-4" d="M14,31v1h1V30H14Z"/><rect class="ba189-2" x="17" y="24" width="1" height="1"/><path class="ba189-2" d="M21,27H20v6h1V27Z"/><path class="ba189-3" d="M22,25H20v2h1v6h1V25Z"/><path class="ba189-2" d="M23,26V25H22v8h1V26Z"/><path class="ba189-2" d="M11,26h1V24H10v1h1Z"/><rect class="ba189-2" x="12" y="26" width="1" height="1"/><rect class="ba189-2" x="16" y="26" width="1" height="1"/><path class="ba189-2" d="M13,27v1h3V27H13Z"/><path class="ba189-3" d="M16,25V23H13v2H12v1h1v1h3V26h1V25Z"/><path class="ba189-5" d="M20,30H19v1H18V30H17v3h1V32h1v1h1V30Z"/><rect class="ba189-5" x="18" y="29" width="1" height="1"/><path class="ba189-5" d="M16,32V30H15v2Z"/><path class="ba189-5" d="M14,32V30h1V29H13v4h2V32Z"/><path class="ba189-5" d="M12,30H11v1H10V30H9v3h1V32h1v1h1V30Z"/><rect class="ba189-5" x="10" y="29" width="1" height="1"/><rect class="ba189-2" x="19" y="14" width="1" height="1"/><rect class="ba189-3" x="17" y="13" width="1" height="1"/><rect class="ba189-3" x="17" y="11" width="1" height="1"/><path class="ba189-3" d="M13,14V13H11v1h2Z"/><rect class="ba189-3" x="19" y="15" width="1" height="1"/><polygon class="ba189-3" points="13 21 14 21 14 22 15 22 15 21 16 21 16 20 13 20 13 21"/><path class="ba189-3" d="M18,15H16v1H15v1H14V16h1V14h1V12H15V11H14v4H13v2H12V15H11v4h1V18h2v1h1V18h2v1h1V15Z"/><rect class="ba189-3" x="9" y="15" width="1" height="1"/><rect class="ba189-2" x="19" y="16" width="1" height="1"/><rect class="ba189-2" x="9" y="16" width="1" height="1"/><rect class="ba189-2" x="14" y="16" width="1" height="1"/><path class="ba189-6" d="M12,15h1V14H12Z"/><path class="ba189-6" d="M17,15V14H16v1Z"/><path class="ba189-2" d="M12,14H11v1h1Z"/><path class="ba189-2" d="M18,15V14H17v1Z"/><path class="ba189-7" d="M13,12H11v1h2Z"/><rect class="ba189-7" x="17" y="12" width="1" height="1"/><path class="ba189-8" d="M12,22v1h5V22h1V21h1V18H18v1H17V18H15v1h1v2H15v1H14V21H13V19H11V18H10v4h2Z"/><path class="ba189-8" d="M14,18H13v1h1Z"/><rect class="ba189-8" x="19" y="17" width="1" height="1"/><rect class="ba189-8" x="9" y="17" width="1" height="1"/><path class="ba189-9" d="M19,23V22H18v1Z"/><path class="ba189-8" d="M18,24h1V23H18Z"/><path class="ba189-9" d="M17,24V23H16v1Z"/><path class="ba189-8" d="M16,25h1V24H16Z"/><path class="ba189-9" d="M13,23H12v1h1Z"/><path class="ba189-8" d="M13,24H12v1h1Z"/><path class="ba189-9" d="M11,22H10v1h1Z"/><path class="ba189-8" d="M11,23H10v1h1Z"/><path class="ba189-2" d="M13,19v1h3V19H13Z"/><path class="ba189-2" d="M12,18v1h1V18Z"/><path class="ba189-10" d="M9,16V15h1v3h1V12h2v3h1V11h1v1h1v2h1V11h1v7h1V14h1v4h1V12H20V11H19V10H18V9H11v1H10v1H9v2H8v5H9V16Z"/><path class="ba189-10" d="M19,19v1h1V18H19Z"/><path class="ba189-10" d="M15,15v1h1V14H15Z"/><path class="ba189-10" d="M12,16v1h1V15H12Z"/><path class="ba189-10" d="M9,18v2h1V18Z"/><path class="ba189-11" d="M23,25v1h1v1h1V25H24V24H22v1Z"/><path class="ba189-6" d="M18,22h1v1h1v2h2V23H21V22H20V21H18Z"/><path class="ba189-11" d="M19,24H18v1h2V24Z"/><rect class="ba189-11" x="17" y="25" width="1" height="1"/><path class="ba189-2" d="M19,26v1h1V25H19Z"/></svg>