<svg xmlns="http://www.w3.org/2000/svg" viewBox="0 0 29 33"><defs><style>polygon,rect,path{shape-rendering:crispedges;}.aa149-1{fill:#b4bd09;}.aa149-2{fill:#000000;}.aa149-3{fill:#e8b795;}.aa149-4{fill:#8e9350;}.aa149-5{fill:#ffffff;}.aa149-6{fill:#00774c;}.aa149-7{fill:#00774c;}.aa149-8{fill:#99004d;}</style></defs><path class="aa149-1" d="M0,33H6V27H7V26H8V25h2V24h2V21H9V20H8V19H9V18H8V12H9V11h1V10h1V9h7v1h1v1h1v2h1v5H20v1h1v1H20v1H17v3h2v1h2v1h1v1h1v6h6V0H0Z"/><path class="aa149-2" d="M23,31V27H22v6h1Z"/><rect class="aa149-2" x="21" y="26" width="1" height="1"/><path class="aa149-3" d="M22,31V27H21v6h1Z"/><rect class="aa149-3" x="20" y="26" width="1" height="1"/><path class="aa149-2" d="M21,31V27H20v6h1Z"/><path class="aa149-2" d="M20,26h1V25H19v1Z"/><path class="aa149-4" d="M20,31V26H19V25H18v1H17v1H16v1H13V27H12V26H11V25H10v1H9v7H20Z"/><path class="aa149-2" d="M17,26h1V25h1V24H17Z"/><rect class="aa149-2" x="16" y="26" width="1" height="1"/><path class="aa149-2" d="M14,27H13v1h3V27Z"/><path class="aa149-2" d="M13,23h3v1h1V21H16v1H13V21H12v3h1Z"/><path class="aa149-3" d="M12,26h1v1h3V26h1V24H16V23H13v1H12Z"/><rect class="aa149-2" x="12" y="26" width="1" height="1"/><path class="aa149-2" d="M11,26h1V24H10v1h1Z"/><path class="aa149-2" d="M10,26V25H8v1Z"/><rect class="aa149-3" x="8" y="26" width="1" height="1"/><path class="aa149-2" d="M9,31V27H8v6H9Z"/><rect class="aa149-2" x="7" y="26" width="1" height="1"/><path class="aa149-3" d="M8,31V27H7v6H8Z"/><path class="aa149-2" d="M7,31V27H6v6H7Z"/><rect class="aa149-3" x="9" y="15" width="1" height="1"/><path class="aa149-3" d="M13,22h3V21h1V19h1V15H17v2H16V15H15V11H14v1H13v2h1v2h1v1H14V16H13V15H11v4h1V18h1v1h3v1H13V19H12v2h1Z"/><rect class="aa149-3" x="19" y="15" width="1" height="1"/><path class="aa149-3" d="M18,14V13H16v1Z"/><rect class="aa149-3" x="11" y="13" width="1" height="1"/><rect class="aa149-3" x="11" y="11" width="1" height="1"/><rect class="aa149-2" x="17" y="20" width="1" height="1"/><rect class="aa149-2" x="11" y="20" width="1" height="1"/><rect class="aa149-2" x="9" y="14" width="1" height="1"/><rect class="aa149-2" x="14" y="16" width="1" height="1"/><rect class="aa149-5" x="12" y="14" width="1" height="1"/><rect class="aa149-5" x="16" y="14" width="1" height="1"/><rect class="aa149-2" x="11" y="14" width="1" height="1"/><rect class="aa149-2" x="17" y="14" width="1" height="1"/><rect class="aa149-6" x="11" y="12" width="1" height="1"/><path class="aa149-6" d="M18,12H16v1h2Z"/><rect class="aa149-7" x="20" y="19" width="1" height="1"/><path class="aa149-7" d="M20,16H19v2h1Z"/><path class="aa149-7" d="M19,19V18H18v1H17v1h1v1h2V20H19Z"/><rect class="aa149-7" x="8" y="19" width="1" height="1"/><path class="aa149-7" d="M12,20V19H11V18H10v2H9v1h2V20Z"/><path class="aa149-7" d="M10,17V16H9v2h1Z"/><rect class="aa149-2" x="13" y="19" width="3" height="1"/><rect class="aa149-2" x="12" y="18" width="1" height="1"/><path class="aa149-8" d="M9,16V14h1v4h1V11h1v3h1V12h1V11h1v4h1V12h2v6h1V15h1v3h1V13H20V11H19V10H18V9H11v1H10v1H9v1H8v6H9Z"/><path class="aa149-8" d="M10,19V18H9v2h1Z"/><path class="aa149-8" d="M13,16h1V14H13Z"/><path class="aa149-8" d="M16,16v1h1V15H16Z"/><path class="aa149-8" d="M19,19v1h1V18H19Z"/></svg>