<svg xmlns="http://www.w3.org/2000/svg" viewBox="0 0 29 33"><defs><style>polygon,rect,path{shape-rendering:crispedges;}.ja39-1{fill:#b4bd09;}.ja39-2{fill:#000000;}.ja39-3{fill:#dbc6d2;}.ja39-4{fill:#ce8452;}.ja39-5{fill:#ffffff;}.ja39-6{fill:#b23b00;}.ja39-7{fill:#fad000;}.ja39-8{fill:#b23b00;}.ja39-9{fill:#5a2de2;}.ja39-10{fill:#00bc55;}.ja39-11{fill:#cc3232;}</style></defs><path class="ja39-1" d="M6,32V26H5V23H6V22H9v1h2V22h1V21H9V20H8V19H9V18H8V13H9V11h1V10h1V9h7v1h1v1h1v1h1v6H20v1h1v1H20v1H17v1h1v1h1v2h2v1h1v1h1v6h6V0H0V33H6Z"/><path class="ja39-2" d="M23,27H22v6h1V27Z"/><rect class="ja39-2" x="21" y="26" width="1" height="1"/><path class="ja39-3" d="M22,27H21v6h1V27Z"/><path class="ja39-2" d="M21,27H20v6h1V27Z"/><path class="ja39-2" d="M20,26h1V25H19v1Z"/><path class="ja39-3" d="M20,27h1V26H19V25H18v1H17v1H16v2H15v1H14V29H13V27H12V26H11V25H10v1H9v7H20V27Z"/><path class="ja39-3" d="M14,24h1v1h1V23H13v2h1Z"/><path class="ja39-2" d="M9,26H8v7H9V26Z"/><path class="ja39-4" d="M7,27H8V26H9V25H6v1H7Z"/><path class="ja39-3" d="M8,27H7v6H8V27Z"/><path class="ja39-2" d="M7,27V26H6v7H7V27Z"/><rect class="ja39-2" x="19" y="14" width="1" height="1"/><rect class="ja39-4" x="9" y="15" width="1" height="1"/><rect class="ja39-4" x="17" y="11" width="1" height="1"/><rect class="ja39-4" x="12" y="12" width="1" height="1"/><rect class="ja39-4" x="17" y="13" width="1" height="1"/><rect class="ja39-4" x="11" y="13" width="1" height="1"/><rect class="ja39-4" x="19" y="15" width="1" height="1"/><path class="ja39-4" d="M13,22h3V21h1V19H16v1H13V19h3V18h1v1h1V15H16v1H15v1H14V16h1V14h1V12H15V11H14v4H13v2H12V15H11v4h1v2h1Z"/><path class="ja39-2" d="M17,20v1h1V20Z"/><path class="ja39-2" d="M11,20v1h1V20Z"/><rect class="ja39-2" x="14" y="16" width="1" height="1"/><rect class="ja39-5" x="12" y="14" width="1" height="1"/><path class="ja39-5" d="M16,14v1h1V14Z"/><rect class="ja39-2" x="11" y="14" width="1" height="1"/><path class="ja39-2" d="M17,14v1h1V14Z"/><rect class="ja39-6" x="17" y="12" width="1" height="1"/><rect class="ja39-6" x="12" y="13" width="1" height="1"/><rect class="ja39-6" x="11" y="12" width="1" height="1"/><rect class="ja39-2" x="14" y="29" width="1" height="1"/><rect class="ja39-2" x="12" y="26" width="1" height="1"/><path class="ja39-2" d="M15,28v1h1V27H15Z"/><rect class="ja39-2" x="16" y="26" width="1" height="1"/><path class="ja39-2" d="M13,27v2h1V27Z"/><rect class="ja39-2" x="17" y="25" width="1" height="1"/><rect class="ja39-2" x="11" y="25" width="1" height="1"/><rect class="ja39-2" x="14" y="24" width="1" height="1"/><rect class="ja39-2" x="13" y="25" width="1" height="1"/><rect class="ja39-2" x="15" y="25" width="1" height="1"/><path class="ja39-2" d="M12,24v1h1V23h3v2h1V23h1V22H17V21H16v1H13V21H12v1H11v1h1Z"/><rect class="ja39-7" x="16" y="25" width="1" height="1"/><path class="ja39-7" d="M15,26V25H14v1H13v1h1v2h1V27h1V26Z"/><rect class="ja39-7" x="12" y="25" width="1" height="1"/><path class="ja39-7" d="M12,25V23H11v2Z"/><path class="ja39-7" d="M17,24v1h1V23H17Z"/><path class="ja39-2" d="M19,25V23H18v2Z"/><path class="ja39-2" d="M11,25V23H10v2Z"/><rect class="ja39-8" x="20" y="19" width="1" height="1"/><path class="ja39-8" d="M19,16v2h1V16Z"/><path class="ja39-8" d="M19,19V18H18v1H17v1h1v1h2V20H19Z"/><rect class="ja39-8" x="8" y="19" width="1" height="1"/><path class="ja39-8" d="M12,20V19H11V18H10v2H9v1h2V20Z"/><path class="ja39-8" d="M10,17V16H9v2h1Z"/><rect class="ja39-2" x="13" y="19" width="3" height="1"/><rect class="ja39-2" x="16" y="18" width="1" height="1"/><path class="ja39-9" d="M9,15h1v3h1V12h2v3h1V11h1v1h1v2h1V11h1v7h1V14h1v4h1V12H20V11H19V10H18V9H11v1H10v1H9v2H8v5H9V15Z"/><polygon class="ja39-9" points="19 19 19 20 20 20 20 19 20 18 19 18 19 19"/><path class="ja39-9" d="M15,14v2h1V14Z"/><path class="ja39-9" d="M12,16v1h1V15H12Z"/><path class="ja39-9" d="M10,19V18H9v2h1Z"/><path class="ja39-10" d="M7,24H8V23H9V22H6v1H7Z"/><path class="ja39-10" d="M6,24V23H5v2H6Z"/><rect class="ja39-2" x="6" y="23" width="1" height="1"/><rect class="ja39-2" x="8" y="23" width="1" height="1"/><path class="ja39-10" d="M9,25h1V23H9v2Z"/><path class="ja39-11" d="M8,24H6v1H9V24Z"/><rect class="ja39-2" x="9" y="25" width="1" height="1"/><path class="ja39-2" d="M5,25v1H6V25Z"/></svg>