<svg xmlns="http://www.w3.org/2000/svg" viewBox="0 0 29 33"><defs><style>polygon,rect,path{shape-rendering:crispedges;}.aa76-1{fill:#b4bd09;}.aa76-2{fill:#000000;}.aa76-3{fill:#b2622b;}.aa76-4{fill:#38a6e8;}.aa76-5{fill:#38a6e8;}.aa76-6{fill:#473a35;}.aa76-7{fill:#e2e2e2;}.aa76-8{fill:#ff5e17;}.aa76-9{fill:#68aaad;}.aa76-10{fill:#a3531d;}.aa76-11{fill:#c6ceb3;}</style></defs><path class="aa76-1" d="M0,33H29V0H0Zm6-1V27H7V26H8V25h2V24h2V21H11V20H10V19H9V16H8V15H9V11h1V10h1V9h7v1h1v1h1v4h1v1H20v3H19v1H18v1H17v3h2V23h0V21h3v1h1v1h1v8H23v1H21v1H6Z"/><path class="aa76-1" d="M20,25h1V24H19v1Z"/><path class="aa76-2" d="M7,32V27H6v6H7Z"/><rect class="aa76-2" x="7" y="26" width="1" height="1"/><path class="aa76-3" d="M7,29v4H8V27H7Z"/><rect class="aa76-3" x="8" y="26" width="1" height="1"/><path class="aa76-2" d="M9,31V27H8v6H9Z"/><path class="aa76-2" d="M10,26V25H8v1Z"/><rect class="aa76-4" x="13" y="30" width="1" height="2"/><path class="aa76-4" d="M9,26v7h1V29h1v4h1V29h3v4h1V29h3v1H17v2h1V31h1v2h1V26H19V25H18v1H17v1H16v1H13V27H12V26H11V25H10v1Z"/><path class="aa76-2" d="M11,26h1V24H10v1h1Z"/><path class="aa76-2" d="M13,23h3v1h1V21H16v1H13V21H12v3h1Z"/><rect class="aa76-2" x="12" y="26" width="1" height="1"/><path class="aa76-2" d="M14,27H13v1h3V27Z"/><path class="aa76-3" d="M12,26h1v1h3V26h1V24H16V23H13v1H12Z"/><rect class="aa76-2" x="16" y="26" width="1" height="1"/><path class="aa76-2" d="M17,26h1V25h1V24H17Z"/><rect class="aa76-3" x="20" y="26" width="1" height="1"/><path class="aa76-2" d="M22,30V24H21v1H19v1h2v1H20v6h1V32h2V31H22Z"/><path class="aa76-2" d="M23,25v6h1V23H23Z"/><path class="aa76-5" d="M12,29v4h3V29Zm2,3H13V30h1Z"/><path class="aa76-5" d="M11,31V29H10v4h1Z"/><path class="aa76-5" d="M19,31H18v1H17V30h2V29H16v4h3Z"/><rect class="aa76-2" x="20" y="15" width="1" height="1"/><path class="aa76-2" d="M19,13H15v1h4v1h1V12H19Z"/><path class="aa76-3" d="M15,13h1V12h1V11H16V10H13v1H12v1h1v1h1v1h1Z"/><rect class="aa76-3" x="10" y="11" width="1" height="1"/><rect class="aa76-3" x="11" y="10" width="1" height="1"/><path class="aa76-3" d="M12,19V18h5v2h1V19h1V16H16V15H13v1H10v3h1v1h1Zm2-3h1v1H14Z"/><rect class="aa76-3" x="17" y="10" width="1" height="1"/><rect class="aa76-3" x="19" y="15" width="1" height="1"/><rect class="aa76-3" x="18" y="11" width="1" height="1"/><rect class="aa76-3" x="9" y="15" width="1" height="1"/><path class="aa76-3" d="M13,20v2h3V20Z"/><path class="aa76-2" d="M19,17v2h1V16H19Z"/><rect class="aa76-2" x="18" y="19" width="1" height="1"/><rect class="aa76-2" x="17" y="20" width="1" height="1"/><rect class="aa76-2" x="11" y="20" width="1" height="1"/><rect class="aa76-2" x="10" y="19" width="1" height="1"/><path class="aa76-2" d="M10,17V16H9v3h1Z"/><rect class="aa76-2" x="8" y="15" width="1" height="1"/><rect class="aa76-2" x="14" y="16" width="1" height="1"/><path class="aa76-6" d="M12,12H10v1h3V12Z"/><path class="aa76-6" d="M16,12v1h3V12Z"/><path class="aa76-7" d="M17,19V18H13v1h3v2h1Z"/><path class="aa76-7" d="M13,20V19H12v2h1Z"/><path class="aa76-2" d="M16,19H13v1h3Z"/><rect class="aa76-2" x="12" y="18" width="1" height="1"/><rect class="aa76-8" x="19" y="11" width="1" height="1"/><rect class="aa76-8" x="18" y="10" width="1" height="1"/><path class="aa76-8" d="M12,11h1V10h3v1h1V10h1V9H11v1h1Z"/><rect class="aa76-8" x="17" y="11" width="1" height="1"/><rect class="aa76-8" x="11" y="11" width="1" height="1"/><rect class="aa76-8" x="10" y="10" width="1" height="1"/><rect class="aa76-8" x="9" y="11" width="1" height="1"/><path class="aa76-9" d="M13,14H10v2h3V15h1V14Z"/><path class="aa76-9" d="M19,14H15v1h1v1h3Z"/><path class="aa76-2" d="M10,14h4V13H10V12H9v3h1Z"/><rect class="aa76-2" x="14" y="14" width="1" height="1"/><path class="aa76-10" d="M21,24V23H19v1Z"/><path class="aa76-11" d="M22,22V21H19v2h3Z"/><path class="aa76-3" d="M22,24v7h1V23H21v1Z"/><rect class="aa76-2" x="22" y="22" width="1" height="1"/></svg>