<svg xmlns="http://www.w3.org/2000/svg" viewBox="0 0 29 33"><defs><style>polygon,rect,path{shape-rendering:crispedges;}.ia77-1{fill:#397d98;}.ia77-2{fill:#000000;}.ia77-3{fill:#225600;}.ia77-4{fill:#c18d59;}.ia77-5{fill:#225600;}.ia77-6{fill:#ffffff;}.ia77-7{fill:#00e2b7;}.ia77-8{fill:#c9a717;}.ia77-9{fill:#a3531d;}.ia77-10{fill:#b3bbce;}.ia77-11{fill:#B3BBCE;}</style></defs><rect class="ia77-1" x="18" y="20" height="1"/><rect class="ia77-1" x="19" y="19" height="1"/><path class="ia77-1" d="M17,24h0V21h0v3Z"/><path class="ia77-1" d="M0,33H29V0H0ZM4,12H6V11H8V10h2V9h1V8h1V7h1V6h1V5h1V6h1V7h1V8h1V9h1v1h2v1h2v1h2v1H21v1H20v1h1v1H20v3h0v2h2v1h1v1h1v8H23v1H21v1H6V27H7V26H8V25h2V22H9V16H8V15H9V14H8V13H4Z"/><path class="ia77-1" d="M22,23Z"/><path class="ia77-1" d="M21,24H19v1h2Z"/><path class="ia77-2" d="M23,25v6h1V23H23v2Z"/><path class="ia77-3" d="M23,25V24H22v7h1V25Z"/><path class="ia77-2" d="M22,30V24H21v1H19v1h2v1H20v6h1V32h2V31H22Z"/><rect class="ia77-3" x="10" y="29" width="1" height="1"/><path class="ia77-3" d="M15,29H14v2h1V29Z"/><rect class="ia77-3" x="18" y="29" width="1" height="1"/><path class="ia77-3" d="M19,32V31H18v1H17V29h1V28h1v1h1V27h1V26H19v1H18V25H17v1H16v1H13V26H11V25H10v1H8v1H9v2h1V28h1v1h1v3H11V31H10v1H9v1H20V32Zm-3-2v1H15v1H13V28h2v1h1Z"/><rect class="ia77-2" x="17" y="24" height="1"/><rect class="ia77-2" x="16" y="25" width="1" height="1"/><path class="ia77-2" d="M13,26v1h3V26H13Z"/><path class="ia77-4" d="M16,24V23H13v1H12v1h1v1h3V25h1V24Z"/><path class="ia77-2" d="M12,25v1h1V25Z"/><path class="ia77-2" d="M10,25H8v1h2Z"/><path class="ia77-2" d="M9,31V27H8v6H9V31Z"/><rect class="ia77-2" x="7" y="26" width="1" height="1"/><path class="ia77-3" d="M8,27H7v6H8V27Z"/><path class="ia77-2" d="M7,27H6v6H7V27Z"/><path class="ia77-5" d="M19,30H18V29H17v3h1V31h1v1h1V29H19Z"/><rect class="ia77-5" x="18" y="28" width="1" height="1"/><path class="ia77-5" d="M15,30v1h1V29H15Z"/><path class="ia77-5" d="M14,30V29h1V28H13v4h2V31H14Z"/><path class="ia77-5" d="M9,32h1V31h1v1h1V29H11v1H10V29H9v3Z"/><rect class="ia77-5" x="10" y="28" width="1" height="1"/><rect class="ia77-2" x="20" y="15" width="1" height="1"/><path class="ia77-4" d="M18,15H16V14H13v1H10v4h1v1h1v1h1v1h3V21h1V20h1V19h1V16h1V15H18Zm-4,1h1v1H14Zm2,4H13V19H12V18h1v1h3Z"/><path class="ia77-2" d="M19,17v2h1V16H19Z"/><polygon class="ia77-2" points="18 20 19 20 19 19 18 19 18 20 18 20 18 20"/><polygon class="ia77-2" points="17 21 18 21 18 20 17 20 17 21 17 21 17 21"/><path class="ia77-2" d="M12,24h1V23h3v1h1V21H16v1H13V21H12v3Z"/><rect class="ia77-2" x="11" y="20" width="1" height="1"/><rect class="ia77-2" x="10" y="19" width="1" height="1"/><path class="ia77-2" d="M10,18V16H9v3h1Z"/><rect class="ia77-2" x="8" y="15" width="1" height="1"/><rect class="ia77-2" x="14" y="16" width="1" height="1"/><path class="ia77-6" d="M13,15V14H12v1Z"/><path class="ia77-6" d="M11,15V14H10v1Z"/><path class="ia77-6" d="M19,15V14H18v1Z"/><path class="ia77-6" d="M17,15V14H16v1Z"/><path class="ia77-2" d="M12,15V14H11v1Z"/><path class="ia77-2" d="M18,15V14H17v1Z"/><rect class="ia77-2" x="13" y="19" width="3" height="1"/><rect class="ia77-2" x="12" y="18" width="1" height="1"/><path class="ia77-7" d="M19,19v1H18v1H17v4h1v2h1V24h0V23h0V21h1V19H19Z"/><path class="ia77-7" d="M19,15h1V14H19Z"/><path class="ia77-7" d="M10,15V14H9v2h1Z"/><path class="ia77-7" d="M11,26h1V21H11V20H10V19H9v3h1v3h1Z"/><path class="ia77-8" d="M8,13v1H21V13h4V12H23V11H21V10H19V9H18V8H17V7H16V6H15V5H14V6H13V7H12V8H11V9H10v1H8v1H6v1H4v1H8Z"/><path class="ia77-9" d="M21,23H19v1h2Z"/><path class="ia77-10" d="M22,23V21H20v2Z"/><path class="ia77-11" d="M19,22v1h1V21H19Z"/><path class="ia77-4" d="M21,23v1h2V23H21Z"/><path class="ia77-2" d="M22,23h1V22H22v1Z"/></svg>