<svg xmlns="http://www.w3.org/2000/svg" viewBox="0 0 29 33"><defs><style>polygon,rect,path{shape-rendering:crispedges;}.fb204-1{fill:#db5a8e;}.fb204-2{fill:#000000;}.fb204-3{fill:#6f7032;}.fb204-4{fill:#5a2de2;}.fb204-5{fill:#512a24;}.fb204-6{fill:#90a2a3;}.fb204-7{fill:#000000;}.fb204-8{fill:#000000;}.fb204-9{fill:#004a77;}.fb204-10{fill:#cbed03;}.fb204-11{fill:#00e070;}</style></defs><path class="fb204-1" d="M0,33H6V27H7V26H8V25H9V24h1V23h1V22h1V21H9V20H8V19H9V16H8V14H9V13H8V9H9V8h1V7h1V6h7V7h1V8h1V9h1v4H20v1h1v2H20v3h1v1H20v1H17v1h1v1h1v1h1v1h1v1h1v1h1v6h6V0H0Z"/><path class="fb204-2" d="M23,27H22v6h1V27Z"/><path class="fb204-3" d="M22,27H21v6h1V27Z"/><path class="fb204-2" d="M21,27h1V26H21V25H20v2H17v1h2v1h1v4h1V27Z"/><rect class="fb204-2" x="19" y="24" width="1" height="1"/><path class="fb204-3" d="M20,29H19v1H18v1H17v1H16v1h4V29Z"/><rect class="fb204-2" x="18" y="23" width="1" height="1"/><path class="fb204-3" d="M18,25H17v1H16v5h1V30h1V29h1V28H17V27h2V26h1V25H19V24H18Z"/><rect class="fb204-3" x="17" y="23" width="1" height="1"/><rect class="fb204-2" x="17" y="24" width="1" height="1"/><rect class="fb204-2" x="18" y="29" width="1" height="1"/><rect class="fb204-2" x="16" y="25" width="1" height="1"/><path class="fb204-4" d="M15,27H14v6h1V27Z"/><path class="fb204-2" d="M12,24h1V23h3v1h1V23h1V22H17V21H16v1H13V21H12v1H11v1h1Z"/><path class="fb204-5" d="M17,25V24H16V23H13v1H12v1h1v1h3V25Z"/><rect class="fb204-2" x="12" y="25" width="1" height="1"/><path class="fb204-3" d="M12,32V31H11V30H10V29H9v4h4V32Z"/><rect class="fb204-3" x="11" y="23" width="1" height="1"/><rect class="fb204-2" x="11" y="24" width="1" height="1"/><rect class="fb204-2" x="11" y="30" width="1" height="1"/><rect class="fb204-2" x="10" y="23" width="1" height="1"/><rect class="fb204-2" x="9" y="24" width="1" height="1"/><path class="fb204-3" d="M10,26v1h2v1H10v1h1v1h1v1h1V26H12V25H11V24H10v1H9v1Z"/><path class="fb204-2" d="M9,29h1V28h2V27H9V25H8v1H7v1H8v6H9V29Z"/><path class="fb204-3" d="M8,27H7v6H8V27Z"/><path class="fb204-2" d="M7,27H6v6H7V27Z"/><rect class="fb204-2" x="10" y="29" width="1" height="1"/><rect class="fb204-2" x="17" y="30" width="1" height="1"/><path class="fb204-2" d="M17,32V31H16V26H13v5H12v1h1v1h1V27h1v6h1V32Z"/><path class="fb204-6" d="M9,26v1h1V26Z"/><path class="fb204-6" d="M19,27h1V26H19Z"/><path class="fb204-2" d="M20,16h1V15H20Z"/><path class="fb204-5" d="M13,22h3V21h1V19h1V18h1V17H16V16H15v1H14V16H13v1H10v1h1v1h1V18h1v1h3v1H13V19H12v2h1Z"/><rect class="fb204-5" x="14" y="15" width="1" height="1"/><path class="fb204-5" d="M13,13v1h3V13h3V12H18V11H11v1h2Z"/><path class="fb204-2" d="M17,20v1h1V20Z"/><path class="fb204-2" d="M11,20v1h1V20Z"/><path class="fb204-2" d="M8,15v1H9V15Z"/><rect class="fb204-2" x="14" y="16" width="1" height="1"/><path class="fb204-7" d="M13,13V12H10v1h3Z"/><path class="fb204-8" d="M19,17v1H18v1H17v1h1v1h2V20h1V19H20V16H19Z"/><path class="fb204-8" d="M12,20V19H11V18H10V16H9v3H8v1H9v1h2V20Z"/><rect class="fb204-2" x="13" y="19" width="3" height="1"/><rect class="fb204-2" x="12" y="18" width="1" height="1"/><path class="fb204-9" d="M10,13V12h1V11h7v1h1v2h1V13h1V9H20V8H19V7H18V6H11V7H10V8H9V9H8v4H9v1h1Z"/><path class="fb204-10" d="M19,15v1h1V15h1V14H19Z"/><path class="fb204-10" d="M16,13v1h3V13H16Z"/><path class="fb204-11" d="M19,16V14H16v2h3Z"/><path class="fb204-10" d="M18,16H16v1h3V16Z"/><path class="fb204-10" d="M13,14v2h1V15h1v1h1V14Z"/><path class="fb204-10" d="M13,14V13H10v1h3Z"/><path class="fb204-11" d="M12,14H10v2h3V14Z"/><path class="fb204-10" d="M10,16v1h3V16H10Z"/><path class="fb204-10" d="M10,15V14H8v1H9v1h1Z"/></svg>