<svg xmlns="http://www.w3.org/2000/svg" viewBox="0 0 29 33"><defs><style>polygon,rect,path{shape-rendering:crispedges;}.bb242-1{fill:#d14646;}.bb242-2{fill:#000000;}.bb242-3{fill:#333333;}.bb242-4{fill:#ffffff;}.bb242-5{fill:#e8b795;}.bb242-6{fill:#492a23;}.bb242-7{fill:#ff5e17;}</style></defs><path class="bb242-1" d="M0,33H6V27H7V26H8V25h2V24h1V23h1V21H11V20H10V19H9V16H8V15H9V10h1V9h1V8h7V9h1v1h1v5h1v1H20v3H19v1H18v1H17v2h1v1h1v1h2V23H20V21h1V20h1V19h2v1h1v3H24v8H23v1H21v1h8V0H0Z"/><path class="bb242-2" d="M7,27H6v6H7V27Z"/><rect class="bb242-2" x="7" y="26" width="1" height="1"/><path class="bb242-3" d="M8,27H7v6H8V27Z"/><path class="bb242-2" d="M9,27H8v6H9V27Z"/><path class="bb242-2" d="M10,25H8v1h2Z"/><path class="bb242-3" d="M12,29H11V25H10v1H8v1H9v6h3V29Z"/><path class="bb242-2" d="M11,26v3h1V26h1V25H12V24h1V23h1v1H13v1h3V24H15V23h1v1h1v1H16v1h1v3h1V25h1V24H18V23H17V21H16v1H13V21H12v2H11v1H10v1h1Z"/><rect class="bb242-4" x="12" y="24" width="1" height="1"/><path class="bb242-2" d="M13,29H12v4h1V29Z"/><rect class="bb242-4" x="13" y="23" width="1" height="1"/><path class="bb242-4" d="M16,29h1V26H16V25H13v1H12v3h1v4h1V32h1v1h1V29Zm-1,2H14V30h1Zm0-2H14V28h1Zm0-2H14V26h1Z"/><rect class="bb242-2" x="14" y="26" width="1" height="1"/><rect class="bb242-2" x="14" y="28" width="1" height="1"/><rect class="bb242-2" x="14" y="30" width="1" height="1"/><rect class="bb242-2" x="14" y="32" width="1" height="1"/><rect class="bb242-4" x="15" y="23" width="1" height="1"/><rect class="bb242-4" x="16" y="24" width="1" height="1"/><path class="bb242-2" d="M17,29H16v4h1V29Z"/><path class="bb242-3" d="M20,27h1V26H19V25H18v4H17v4h3V27Z"/><path class="bb242-2" d="M22,32h1V31H22V23H21v2H19v1h2v1H20v6h1V32Z"/><path class="bb242-4" d="M23,24H22v1h1Z"/><path class="bb242-3" d="M23,25H22v6h1V25Z"/><path class="bb242-2" d="M23,24v7h1V23H23Z"/><rect class="bb242-2" x="20" y="15" width="1" height="1"/><path class="bb242-5" d="M13,22h3V21h1V20h1V19h1V16h1V15H19V11H18V10H16v1H15v1h1v1h1v1h1v1H16v1H15v1H14V16H13v1H12V16H11V15H9v1h1v3h1v1h1v1h1Zm-1-3V18h5v1H16v1H13V19Z"/><path class="bb242-2" d="M19,17v2h1V16H19Z"/><rect class="bb242-2" x="18" y="19" width="1" height="1"/><rect class="bb242-2" x="17" y="20" width="1" height="1"/><rect class="bb242-2" x="11" y="20" width="1" height="1"/><rect class="bb242-2" x="10" y="19" width="1" height="1"/><path class="bb242-2" d="M10,14H9v1h1Z"/><path class="bb242-2" d="M10,16H9v3h1V16Z"/><rect class="bb242-2" x="8" y="15" width="1" height="1"/><path class="bb242-6" d="M18,15V14H17v1Z"/><rect class="bb242-6" x="16" y="13" width="1" height="1"/><rect class="bb242-2" x="14" y="14" width="1" height="1"/><path class="bb242-4" d="M14,14h1v1H14V14H13v2h3V15h1V14H16V13H14Z"/><path class="bb242-6" d="M14,13h2V12H14Z"/><path class="bb242-2" d="M14,17h1V16H14Z"/><polygon class="bb242-2" points="13 20 16 20 16 19 17 19 17 18 12 18 12 19 13 19 13 20"/><path class="bb242-2" d="M20,21v2h1V21Z"/><rect class="bb242-2" x="21" y="20" width="1" height="1"/><rect class="bb242-2" x="22" y="19" width="2" height="1"/><path class="bb242-2" d="M24,23h1V20H24v3Z"/><path class="bb242-5" d="M22,24h1V23h1V20H22v1H21v2h1Z"/><path class="bb242-7" d="M10,15h1v1h1v1h1V14h1V12h1V11h1V10h2v1h1v4h1V10H19V9H18V8H11V9H10v1H9v4h1Z"/></svg>