<svg xmlns="http://www.w3.org/2000/svg" viewBox="0 0 29 33"><defs><style>polygon,rect,path{shape-rendering:crispedges;}.da204-1{fill:#e55b35;}.da204-2{fill:#000000;}.da204-3{fill:#3e5e00;}.da204-4{fill:#e8b795;}.da204-5{fill:#ffffff;}.da204-6{fill:#8e703c;}.da204-7{fill:#8e703c;}.da204-8{fill:#5a2de2;}.da204-9{fill:#ccc;}</style></defs><path class="da204-1" d="M0,33H6V27H7V26H8V25h2V24h2V21H9V20H8V19H9V18H7V14H8V11H9V10h1V9h1V8h7V9h1v1h1v1h1v3h1v4H20v1h1v1H20v1H17v3h2v1h2v1h1v1h1v6h6V0H0Z"/><path class="da204-2" d="M23,27H22v3H21V27H20v6h1V31h1v2h1V27Z"/><rect class="da204-2" x="21" y="26" width="1" height="1"/><path class="da204-3" d="M21,28v2h1V27H21Z"/><path class="da204-4" d="M21,31v2h1V31Z"/><path class="da204-2" d="M20,26h1V25H19v1Z"/><path class="da204-3" d="M20,27h1V26H19V25H17v1H16v1H13V26H12V25H10v1H8v1H9v6H20V27Z"/><path class="da204-2" d="M18,25h1V24H17v1Z"/><rect class="da204-2" x="16" y="25" width="1" height="1"/><path class="da204-2" d="M13,26v1h3V26H13Z"/><path class="da204-2" d="M13,23h3v1h1V21H16v1H13V21H12v3h1Z"/><path class="da204-4" d="M13,25v1h3V25h1V24H16V23H13v1H12v1Z"/><rect class="da204-2" x="12" y="25" width="1" height="1"/><path class="da204-2" d="M12,24H10v1h2Z"/><path class="da204-2" d="M10,25H8v1h2Z"/><path class="da204-2" d="M9,27H8v3H7V27H6v6H7V31H8v2H9V27Z"/><rect class="da204-2" x="7" y="26" width="1" height="1"/><path class="da204-3" d="M7,30H8V27H7v3Z"/><path class="da204-4" d="M7,31v2H8V31Z"/><polygon class="da204-4" points="18 14 19 14 19 13 17 13 17 14 18 14"/><path class="da204-4" d="M13,22h3V21h1V19h1V18h1V15H16V13h1V12h2V11H18V10H17v1H16V10H15v1H12V10H11v1H10v2h1V12h2v1H11v1h2v1H10v3h1v1h1V18h1v1h3v1H13V19H12v2h1Zm2-5H14V16h1Z"/><path class="da204-2" d="M17,20v1h1V20Z"/><path class="da204-2" d="M11,20v1h1V20Z"/><rect class="da204-2" x="14" y="16" width="1" height="1"/><path class="da204-5" d="M13,15V14H12v1Z"/><path class="da204-5" d="M10,15h1V14H10Z"/><path class="da204-5" d="M18,14v1h1V14Z"/><path class="da204-5" d="M16,14v1h1V14Z"/><path class="da204-2" d="M12,15V14H11v1Z"/><path class="da204-2" d="M17,14v1h1V14Z"/><rect class="da204-6" x="10" y="13" width="1" height="1"/><rect class="da204-6" x="11" y="12" width="2" height="1"/><path class="da204-6" d="M17,13H16v1h1Z"/><rect class="da204-6" x="17" y="12" width="2" height="1"/><path class="da204-7" d="M19,17v1H18v1H17v1h1v1h2V20h1V19H20V17Z"/><path class="da204-7" d="M12,20V19H11V18H10V17H9v2H8v1H9v1h2V20Z"/><rect class="da204-2" x="13" y="19" width="3" height="1"/><rect class="da204-2" x="12" y="18" width="1" height="1"/><path class="da204-8" d="M19,12v2h1V11H19Z"/><rect class="da204-8" x="18" y="10" width="1" height="1"/><path class="da204-8" d="M12,10v1h3V10h1v1h1V10h1V9H11v1Z"/><rect class="da204-8" x="10" y="10" width="1" height="1"/><path class="da204-8" d="M9,14h1V11H9v3Z"/><path class="da204-5" d="M9,16V11H8v3H7v3H8v1H9V16Z"/><rect class="da204-5" x="9" y="10" width="1" height="1"/><rect class="da204-5" x="10" y="9" width="1" height="1"/><path class="da204-5" d="M18,9V8H11V9h7Z"/><rect class="da204-5" x="18" y="9" width="1" height="1"/><rect class="da204-5" x="19" y="10" width="1" height="1"/><path class="da204-9" d="M9,14v3h1V14Z"/><path class="da204-5" d="M20,14v4h1V17h1V14H21V11H20v3Z"/><path class="da204-9" d="M20,16V14H19v3h1Z"/><path class="da204-9" d="M7,17v1H8V17Z"/><path class="da204-9" d="M21,18h1V17H21Z"/></svg>