<svg xmlns="http://www.w3.org/2000/svg" viewBox="0 0 29 33"><defs><style>polygon,rect,path{shape-rendering:crispedges;}.ma227-1{fill:#e55b35;}.ma227-2{fill:#000000;}.ma227-3{fill:#8ab2b2;}.ma227-4{fill:#4922aa;}.ma227-5{fill:#e8b795;}.ma227-6{fill:#ffffff;}.ma227-7{fill:#00686d;}.ma227-8{fill:#00686d;}.ma227-9{fill:#f9e100;}.ma227-10{fill:#ffffff;}.ma227-11{fill:#0068ff;}</style></defs><path class="ma227-1" d="M0,33H6V27H7V26H8V25h2V24h2V21H10V20H9V16H8V15H9V11h1V10h1V9h1V8h1V6h1V5h1V7h1V9h2v1h1v1h1v4h1v1H20v4H19v1H17v3h2v1h2v1h1v1h1v6h6V0H0Z"/><path class="ma227-2" d="M23,27H22v6h1V27Z"/><rect class="ma227-2" x="21" y="26" width="1" height="1"/><path class="ma227-3" d="M21,32v1h1V32Z"/><path class="ma227-3" d="M21,28h1V27H21Z"/><path class="ma227-3" d="M21,30v1h1V29H21Z"/><path class="ma227-2" d="M21,31V27H20v6h1V31Z"/><path class="ma227-3" d="M19,26v1H18v3h1v1h1V29H19V28h1V27h1V26H19Z"/><path class="ma227-3" d="M19,32v1h1V32Z"/><path class="ma227-2" d="M20,26h1V25H19v1Z"/><path class="ma227-2" d="M18,30V25h1V24H17v1H16v1h1v7h1V30Z"/><path class="ma227-4" d="M17,26H16v1H13V26H12v7h5V26Z"/><path class="ma227-2" d="M13,26v1h3V26H13Z"/><path class="ma227-2" d="M13,23h3v1h1V21H16v1H13V21H12v3h1Z"/><path class="ma227-5" d="M13,25v1h3V25h1V24H16V23H13v1H12v1Z"/><path class="ma227-2" d="M12,26h1V25H12V24H10v1h1v8h1V26Z"/><rect class="ma227-3" x="9" y="32" width="1" height="1"/><path class="ma227-3" d="M9,27v1h1v1H9v2h1V30h1V27H10V26H8v1Z"/><path class="ma227-2" d="M10,25H8v1h2Z"/><path class="ma227-2" d="M9,31V27H8v6H9V31Z"/><rect class="ma227-2" x="7" y="26" width="1" height="1"/><path class="ma227-3" d="M8,28V27H7v1Z"/><path class="ma227-3" d="M7,30v1H8V29H7Z"/><path class="ma227-3" d="M7,32v1H8V32Z"/><path class="ma227-2" d="M7,31V27H6v6H7V31Z"/><path class="ma227-6" d="M11,30H10v1H9v1h1v1h1V30Z"/><path class="ma227-6" d="M10,27h1V25H10v2Z"/><path class="ma227-6" d="M18,26v1h1V25H18Z"/><path class="ma227-6" d="M7,29H8V28H7Z"/><path class="ma227-6" d="M10,28H9v1h1Z"/><path class="ma227-6" d="M21,29h1V28H21Z"/><path class="ma227-6" d="M19,29h1V28H19Z"/><path class="ma227-6" d="M21,32h1V31H21Z"/><path class="ma227-6" d="M7,32H8V31H7Z"/><path class="ma227-6" d="M20,32V31H19V30H18v3h1V32Z"/><rect class="ma227-2" x="20" y="15" width="1" height="1"/><rect class="ma227-5" x="9" y="15" width="1" height="1"/><rect class="ma227-5" x="14" y="15" width="1" height="1"/><path class="ma227-5" d="M17,14h2V13H17Z"/><rect class="ma227-5" x="19" y="15" width="1" height="1"/><path class="ma227-5" d="M16,10v1h2V10H16Z"/><path class="ma227-5" d="M13,13H11v1h5V13Z"/><path class="ma227-5" d="M13,11h2V10H11v1Z"/><path class="ma227-5" d="M13,22h3V21h1V20h1V18h1V16H18v1H16V16H15v1H14V16H13v1H11V16H10v2h1v2h1v1h1Zm-1-3V18h1v1h3v1H13V19Z"/><path class="ma227-2" d="M19,17h1V16H19Z"/><rect class="ma227-2" x="18" y="10" width="1" height="1"/><path class="ma227-2" d="M17,10h1V9H16v1Z"/><path class="ma227-2" d="M14,10V9H11v1h3Z"/><rect class="ma227-2" x="10" y="10" width="1" height="1"/><path class="ma227-2" d="M10,16H9v1h1Z"/><rect class="ma227-2" x="8" y="15" width="1" height="1"/><rect class="ma227-2" x="14" y="16" width="1" height="1"/><rect class="ma227-7" x="10" y="13" width="1" height="1"/><rect class="ma227-7" x="16" y="13" width="1" height="1"/><path class="ma227-8" d="M19,18H18v2H17v1h2V20h1V17H19Z"/><path class="ma227-8" d="M11,20V18H10V17H9v3h1v1h2V20Z"/><rect class="ma227-2" x="13" y="19" width="3" height="1"/><rect class="ma227-2" x="12" y="18" width="1" height="1"/><path class="ma227-9" d="M14,10h1v1h1V7H15V5H14V6H13V8H12V9h2Z"/><path class="ma227-2" d="M10,16h1v1h2V16h1V15h1v1h1v1h2V16h1V15h1V13H19v1H10V13H9v2h1Z"/><path class="ma227-10" d="M20,12V11H9v1H20Z"/><path class="ma227-11" d="M11,13h9V12H9v1h2Z"/></svg>