<svg xmlns="http://www.w3.org/2000/svg" viewBox="0 0 29 33"><defs><style>polygon,rect,path{shape-rendering:crispedges;}.oa237-1{fill:#397d98;}.oa237-2{fill:#000000;}.oa237-3{fill:#ff1f4a;}.oa237-4{fill:#333333;}.oa237-5{fill:#ce8452;}.oa237-6{fill:#ffffff;}.oa237-7{fill:#b23b00;}.oa237-8{fill:#6f7032;}</style></defs><path class="oa237-1" d="M0,33H6V27H7V26H8V25h2V24H9V16H8V15H9V10h1V9h1V8h7V9h1v1h1v5h1v1H20v6H19v3h2v1h1v1h1v6h6V0H0Z"/><path class="oa237-2" d="M23,27H22v6h1V27Z"/><rect class="oa237-2" x="21" y="26" width="1" height="1"/><path class="oa237-3" d="M21,28h1V27H21Z"/><path class="oa237-3" d="M21,30v1h1V29H21Z"/><path class="oa237-3" d="M21,32v1h1V32Z"/><path class="oa237-2" d="M21,31V27H20v6h1V31Z"/><path class="oa237-3" d="M19,26v1H18v3h1v1h1V29H19V28h1V27h1V26H19Z"/><path class="oa237-3" d="M19,32v1h1V32Z"/><path class="oa237-2" d="M20,26h1V25H19v1Z"/><rect class="oa237-2" x="16" y="25" width="1" height="1"/><path class="oa237-2" d="M18,30V26H17v7h1V30Z"/><path class="oa237-4" d="M17,26H16v1H13V26H12v7h5V26Z"/><path class="oa237-2" d="M13,26v1h3V26H13Z"/><path class="oa237-2" d="M13,23h3v1h1V21H16v1H13V21H12v3h1Z"/><path class="oa237-5" d="M17,25V24H16V23H13v1H12v1h1v1h3V25Z"/><path class="oa237-2" d="M12,26h1V25H11v8h1V26Z"/><path class="oa237-3" d="M9,27v1h1v1H9v2h1V30h1V27H10V26H8v1Z"/><rect class="oa237-3" x="9" y="32" width="1" height="1"/><path class="oa237-2" d="M10,25H8v1h2Z"/><path class="oa237-2" d="M9,31V27H8v6H9V31Z"/><rect class="oa237-2" x="7" y="26" width="1" height="1"/><path class="oa237-3" d="M7,30v1H8V29H7Z"/><path class="oa237-3" d="M7,32v1H8V32Z"/><path class="oa237-3" d="M8,28V27H7v1Z"/><path class="oa237-2" d="M7,31V27H6v6H7V31Z"/><path class="oa237-6" d="M11,30H10v1H9v1h1v1h1V30Z"/><path class="oa237-6" d="M18,26v1h1V25H18Z"/><path class="oa237-6" d="M7,29H8V28H7Z"/><path class="oa237-6" d="M10,28H9v1h1Z"/><path class="oa237-6" d="M21,29h1V28H21Z"/><path class="oa237-6" d="M19,29h1V28H19Z"/><path class="oa237-6" d="M21,32h1V31H21Z"/><path class="oa237-6" d="M7,32H8V31H7Z"/><path class="oa237-6" d="M20,32V31H19V30H18v3h1V32Z"/><rect class="oa237-2" x="20" y="15" width="1" height="1"/><path class="oa237-5" d="M18,13V12H17V11H15V10H12v1H11v2h2v1h3V13Z"/><rect class="oa237-5" x="9" y="15" width="1" height="1"/><rect class="oa237-5" x="14" y="15" width="1" height="1"/><path class="oa237-5" d="M13,22h3V21h1V20h1V19h1V16H18v1H16V16H15v1H14V16H13v1H11V16H10v3h1v1h1v1h1Zm0-3h3V18h1v1H16v1H13Z"/><path class="oa237-2" d="M19,17v2h1V16H19Z"/><rect class="oa237-2" x="18" y="19" width="1" height="1"/><rect class="oa237-2" x="17" y="20" width="1" height="1"/><rect class="oa237-2" x="11" y="20" width="1" height="1"/><rect class="oa237-2" x="10" y="19" width="1" height="1"/><path class="oa237-2" d="M10,18V16H9v3h1Z"/><rect class="oa237-2" x="8" y="15" width="1" height="1"/><rect class="oa237-2" x="14" y="16" width="1" height="1"/><path class="oa237-7" d="M11,13H10v1h3V13Z"/><path class="oa237-7" d="M16,13v1h2V13Z"/><rect class="oa237-2" x="13" y="19" width="3" height="1"/><rect class="oa237-2" x="16" y="18" width="1" height="1"/><path class="oa237-8" d="M10,27h1V25h1V21H11V20H10V19H9v5h1v3Z"/><rect class="oa237-8" x="19" y="15" width="1" height="1"/><path class="oa237-8" d="M10,13h1V11h1V10h3v1h2v1h1v2h2V10H19V9H18V8H11V9H10v1H9v4h1Z"/><path class="oa237-8" d="M19,20H18v1H17v5h1V25h1V22h1V19H19Z"/><path class="oa237-2" d="M10,16h1v1h2V16h1V15h1v1h1v1h2V16h1V15h1V14H9v1h1Z"/></svg>