<svg xmlns="http://www.w3.org/2000/svg" viewBox="0 0 29 33"><defs><style>polygon,rect,path{shape-rendering:crispedges;}.oa147-1{fill:#e55b35;}.oa147-2{fill:#000000;}.oa147-3{fill:#99ce09;}.oa147-4{fill:#ffffff;}.oa147-5{fill:#c18d59;}.oa147-6{fill:#ffffff;}.oa147-7{fill:#893a1f;}.oa147-8{fill:#00686d;}.oa147-9{fill:#841f00;}.oa147-10{fill:#b23b00;}</style></defs><path class="oa147-1" d="M0,33H6V27H7V26H8V25h2V22H9V16H8V15H9V10h1V9h1V8h7V9h1v1h1v5h1v1H20v8H19v1h2v1h1v1h1v6h6V0H0Z"/><path class="oa147-2" d="M23,27H22v6h1V27Z"/><rect class="oa147-2" x="21" y="26" width="1" height="1"/><path class="oa147-3" d="M22,27H21v6h1V27Z"/><path class="oa147-2" d="M21,27H20v6h1V27Z"/><path class="oa147-3" d="M20,27h1V26H19v1H18v6h2V27Z"/><path class="oa147-2" d="M20,26h1V25H19v1Z"/><path class="oa147-2" d="M18,27V25H16v1h1v7h1V27Z"/><path class="oa147-4" d="M17,26H16v1H13V26H12v7h5V26Z"/><path class="oa147-2" d="M13,26v1h3V26H13Z"/><path class="oa147-2" d="M13,23h3v1h1V21H16v1H13V21H12v3h1Z"/><path class="oa147-5" d="M16,24V23H13v1H12v1h1v1h3V25h1V24Z"/><rect class="oa147-2" x="12" y="25" width="1" height="1"/><path class="oa147-2" d="M12,26H11v7h1V26Z"/><path class="oa147-3" d="M11,26V25H10v1H8v1H9v6h2V26Z"/><path class="oa147-2" d="M10,25H8v1h2Z"/><path class="oa147-2" d="M9,27H8v6H9V27Z"/><rect class="oa147-2" x="7" y="26" width="1" height="1"/><path class="oa147-3" d="M8,27H7v6H8V27Z"/><path class="oa147-2" d="M7,27H6v6H7V27Z"/><rect class="oa147-2" x="20" y="15" width="1" height="1"/><path class="oa147-5" d="M18,15H16V14h2V13H11v1h2v1H10v4h1v1h1v1h1v1h3V21h1V20h1V19h1V16h1V15H18Zm-4,1h1v1H14Zm2,4H13V19h3Z"/><path class="oa147-2" d="M19,17v2h1V16H19Z"/><rect class="oa147-2" x="18" y="19" width="1" height="1"/><rect class="oa147-2" x="17" y="20" width="1" height="1"/><rect class="oa147-2" x="11" y="20" width="1" height="1"/><rect class="oa147-2" x="10" y="19" width="1" height="1"/><path class="oa147-2" d="M10,18V16H9v3h1Z"/><rect class="oa147-2" x="8" y="15" width="1" height="1"/><rect class="oa147-2" x="14" y="16" width="1" height="1"/><path class="oa147-6" d="M13,15V14H12v1Z"/><path class="oa147-6" d="M11,14H10v1h1Z"/><path class="oa147-6" d="M18,15h1V14H18Z"/><path class="oa147-6" d="M16,14v1h1V14Z"/><path class="oa147-2" d="M12,15V14H11v1Z"/><path class="oa147-2" d="M17,14v1h1V14Z"/><rect class="oa147-7" x="18" y="13" width="1" height="1"/><rect class="oa147-2" x="13" y="19" width="3" height="1"/><path class="oa147-8" d="M19,20H18v1H17v4h1v2h1V24h1V19H19Z"/><path class="oa147-8" d="M19,14v1h1V13H19Z"/><path class="oa147-8" d="M10,15V14h1V13H9v3h1Z"/><path class="oa147-8" d="M11,26h1V21H11V20H10V19H9v3h1v3h1Z"/><path class="oa147-9" d="M19,12v1h1V11H19Z"/><path class="oa147-10" d="M10,12v1h1V11h1v2h1V11h1v2h1V11h1v2h1V11h1v2h1V11h1V10H19V9H18V8H11V9H10v1H9v1h1Z"/><path class="oa147-9" d="M18,12V11H17v2h1Z"/><path class="oa147-9" d="M16,12V11H15v2h1Z"/><path class="oa147-9" d="M14,12V11H13v2h1Z"/><path class="oa147-9" d="M12,12V11H11v2h1Z"/><path class="oa147-9" d="M10,12V11H9v2h1Z"/></svg>