<svg xmlns="http://www.w3.org/2000/svg" viewBox="0 0 29 33"><defs><style>polygon,rect,path{shape-rendering:crispedges;}.na44-1{fill:#e55b35;}.na44-2{fill:#000000;}.na44-3{fill:#ffffff;}.na44-4{fill:#317f03;}.na44-5{fill:#efcaaf;}.na44-6{fill:#00e070;}.na44-7{fill:#e2e2e2;}.na44-8{fill:#10bcff;}</style></defs><path class="na44-1" d="M0,33H6V27H7V26H8V25h2V24h2V21H11V20H10V19H9V16H8V15H9V13H8V9H9V8h1V7h1V6h7V7h1V8h1V9h1v4H20v2h1v1H20v3H19v1H18v1H17v3h2v1h2v1h1v1h1v6h6V0H0Z"/><path class="na44-2" d="M23,27H22v6h1V27Z"/><rect class="na44-2" x="21" y="26" width="1" height="1"/><path class="na44-3" d="M21,28h1V27H21Z"/><path class="na44-3" d="M21,31h1V30H21Z"/><path class="na44-2" d="M21,30V27H20v6h1V30Z"/><path class="na44-3" d="M18,28h2V27H18Z"/><path class="na44-3" d="M18,31h2V30H18Z"/><path class="na44-2" d="M20,26h1V25H19v1Z"/><path class="na44-2" d="M18,30V25h1V24H17v1H16v1h1v7h1V30Z"/><path class="na44-4" d="M17,26H16v1H13V26H12v7h5V26Z"/><path class="na44-2" d="M13,26v1h3V26H13Z"/><path class="na44-2" d="M13,23h3v1h1V21H16v1H13V21H12v3h1Z"/><path class="na44-5" d="M13,25v1h3V25h1V24H16V23H13v1H12v1Z"/><path class="na44-2" d="M12,26h1V25H12V24H10v1h1v8h1V26Z"/><path class="na44-3" d="M9,28h2V27H9Z"/><path class="na44-3" d="M9,31h2V30H9Z"/><path class="na44-2" d="M10,25H8v1h2Z"/><path class="na44-2" d="M9,30V27H8v6H9V30Z"/><rect class="na44-2" x="7" y="26" width="1" height="1"/><path class="na44-3" d="M7,31H8V30H7Z"/><path class="na44-3" d="M8,28V27H7v1Z"/><path class="na44-2" d="M7,30V27H6v6H7V30Z"/><path class="na44-6" d="M9,31v2h2V31Z"/><path class="na44-6" d="M18,31v2h2V31Z"/><path class="na44-6" d="M18,29v1h2V28H18Z"/><path class="na44-6" d="M9,29v1h2V28H9Z"/><path class="na44-6" d="M18,26v1h3V26H19V25H18Z"/><path class="na44-6" d="M9,27h2V25H10v1H8v1Z"/><path class="na44-6" d="M7,29v1H8V28H7Z"/><path class="na44-6" d="M7,31v2H8V31Z"/><path class="na44-6" d="M21,31v2h1V31Z"/><path class="na44-6" d="M21,29v1h1V28H21Z"/><rect class="na44-2" x="20" y="15" width="1" height="1"/><rect class="na44-5" x="9" y="15" width="1" height="1"/><rect class="na44-5" x="14" y="15" width="1" height="1"/><path class="na44-5" d="M13,22h3V21h1V20h1V19h1V16H18v1H16V16H15v1H14V16H13v1H11V16H10v3h1v1h1v1h1Zm-1-3V18h1v1h3v1H13V19Z"/><rect class="na44-5" x="19" y="15" width="1" height="1"/><path class="na44-5" d="M16,13V12h2V11H11v1h2v1H10v1h9V13Z"/><path class="na44-2" d="M19,17v2h1V16H19Z"/><rect class="na44-2" x="18" y="19" width="1" height="1"/><rect class="na44-2" x="17" y="20" width="1" height="1"/><rect class="na44-2" x="11" y="20" width="1" height="1"/><rect class="na44-2" x="10" y="19" width="1" height="1"/><path class="na44-2" d="M10,16H9v3h1V16Z"/><rect class="na44-2" x="8" y="15" width="1" height="1"/><rect class="na44-2" x="14" y="16" width="1" height="1"/><path class="na44-7" d="M13,12H10v1h3Z"/><path class="na44-7" d="M16,13h3V12H16Z"/><rect class="na44-2" x="13" y="19" width="3" height="1"/><rect class="na44-2" x="12" y="18" width="1" height="1"/><path class="na44-8" d="M10,13V12h1V11h7v1h1v2h1V13h1V9H20V8H19V7H18V6H11V7H10V8H9V9H8v4H9v1h1Z"/><path class="na44-2" d="M10,16h1v1h2V16h1V15h1v1h1v1h2V16h1V15h1V14H9v1h1Z"/></svg>