<svg xmlns="http://www.w3.org/2000/svg" viewBox="0 0 29 33"><defs><style>polygon,rect,path{shape-rendering:crispedges;}.pa45-1{fill:#000000;}.pa45-2{fill:#508e5d;}.pa45-3{fill:#508e5d;}.pa45-4{fill:#e8b795;}.pa45-5{fill:#ffffff;}.pa45-6{fill:#663228;}.pa45-7{fill:#d14646;}.pa45-8{fill:#c9a717;}</style></defs><path class="pa45-1" d="M23,27H22v6h1V27Z"/><path class="pa45-2" d="M22,27H21v6h1V27Z"/><rect class="pa45-1" x="21" y="26" width="1" height="1"/><path class="pa45-1" d="M21,27H20v6h1V27Z"/><path class="pa45-2" d="M19,32V31H18v1H17V30H16v1H15v1H13V30H12v2H11V31H10v1H9v1H20V32Z"/><rect class="pa45-2" x="10" y="29" width="1" height="1"/><path class="pa45-2" d="M9,27v2h1V28h1v1h1V25h1V24H11v1H10v1H8v1Z"/><path class="pa45-2" d="M16,25h1v4h1V28h1v1h1V27h1V26H19V25H18V24H16Z"/><rect class="pa45-2" x="18" y="29" width="1" height="1"/><path class="pa45-1" d="M20,26h1V25H19v1Z"/><rect class="pa45-1" x="18" y="24" width="1" height="1"/><rect class="pa45-1" x="18" y="22" width="1" height="1"/><rect class="pa45-2" x="17" y="22" width="1" height="1"/><path class="pa45-1" d="M13,25h3V24h2V23H17V22h1V21h1V20h1V17h1V15H20V14H17v1h2v1H16V14H11v1h2v1H10V14H9v1H8v2H9v3h1v1h1v1h1v1H11v1h2Zm0-5h3v1H13Z"/><rect class="pa45-2" x="11" y="22" width="1" height="1"/><rect class="pa45-1" x="10" y="24" width="1" height="1"/><rect class="pa45-1" x="10" y="22" width="1" height="1"/><path class="pa45-1" d="M10,25H8v1h2Z"/><path class="pa45-1" d="M9,31V27H8v6H9V31Z"/><path class="pa45-2" d="M8,27H7v6H8V27Z"/><rect class="pa45-1" x="7" y="26" width="1" height="1"/><path class="pa45-1" d="M7,27H6v6H7V27Z"/><path class="pa45-2" d="M14,29v2h1V29Z"/><path class="pa45-2" d="M13,28h2v1h1V25H13v3Z"/><path class="pa45-3" d="M19,30H18V29H17v3h1V31h1v1h1V29H19Z"/><rect class="pa45-3" x="18" y="28" width="1" height="1"/><path class="pa45-3" d="M15,29v2h1V29Z"/><path class="pa45-3" d="M14,30V29h1V28H13v4h2V31H14Z"/><path class="pa45-3" d="M11,29v1H10V29H9v3h1V31h1v1h1V29Z"/><rect class="pa45-3" x="10" y="28" width="1" height="1"/><path class="pa45-1" d="M13,27V25H12v5h1V27Z"/><path class="pa45-1" d="M17,28V25H16v5h1V28Z"/><path class="pa45-4" d="M16,21V20H15v1Z"/><path class="pa45-4" d="M14,20H13v1h1Z"/><path class="pa45-4" d="M10,16h3V15H10Z"/><path class="pa45-4" d="M16,16h3V15H16Z"/><path class="pa45-5" d="M10,15h1V14H10Z"/><path class="pa45-5" d="M16,15h1V14H16Z"/><path class="pa45-6" d="M15,21V20H14v1Z"/><path class="pa45-7" d="M0,9V33H6V27H7V26H8V25h2V24h1V23H10V22h1V21H10V20H9V17H8V15H9V14H8V13H4V12H6V11H8V10h2V9h1V8h1V7h1V6h1V5h1V6h1V7h1V8h1V9h1v1h2v1h2v1h2v1H21v1H20v1h1v2H20v3H19v1H18v1h1v1H18v1h1v1h2v1h1v1h1v6h6V0H0Z"/><path class="pa45-8" d="M11,14H21V13h4V12H23V11H21V10H19V9H18V8H17V7H16V6H15V5H14V6H13V7H12V8H11V9H10v1H8v1H6v1H4v1H8v1h3Z"/></svg>