<svg xmlns="http://www.w3.org/2000/svg" viewBox="0 0 29 33"><defs><style>polygon,rect,path{shape-rendering:crispedges;}.oa6-1{fill:#db5a8e;}.oa6-2{fill:#000000;}.oa6-3{fill:#c5e2d0;}.oa6-4{fill:#68aa7b;}.oa6-5{fill:#c18d59;}.oa6-6{fill:#6c9302;}.oa6-7{fill:#ff1f4a;}.oa6-8{fill:#316a6d;}.oa6-9{fill:#508e91;}</style></defs><path class="oa6-1" d="M0,33H6V27H7V26H8V25h2V24h2V21H11V20H10V19H9V18H8V12H9V10h1V9h1V8h7V9h1v1h1v5h1v1H20v3H19v1H18v1H17v3h2v1h2v1h1v1h1v6h6V0H0Z"/><path class="oa6-2" d="M23,27H22v6h1V27Z"/><rect class="oa6-2" x="21" y="26" width="1" height="1"/><path class="oa6-3" d="M22,27H21v6h1V27Z"/><path class="oa6-2" d="M21,27H20v6h1V27Z"/><path class="oa6-3" d="M20,27h1V26H19V25H18v8h2V27Z"/><path class="oa6-2" d="M20,26h1V25H19v1Z"/><path class="oa6-2" d="M18,25h1V24H17v1H16v1h1v7h1V25Z"/><path class="oa6-4" d="M17,26H16v1H13V26H12v7h5V26Z"/><path class="oa6-2" d="M13,26v1h3V26H13Z"/><path class="oa6-2" d="M13,23h3v1h1V21H16v1H13V21H12v3h1Z"/><path class="oa6-5" d="M13,25v1h3V25h1V24H16V23H13v1H12v1Z"/><path class="oa6-2" d="M12,26h1V25H12V24H10v1h1v8h1V26Z"/><path class="oa6-3" d="M11,25H10v1H8v1H9v6h2V25Z"/><path class="oa6-2" d="M10,25H8v1h2Z"/><path class="oa6-2" d="M9,27H8v6H9V27Z"/><rect class="oa6-2" x="7" y="26" width="1" height="1"/><path class="oa6-3" d="M8,27H7v6H8V27Z"/><path class="oa6-2" d="M7,27H6v6H7V27Z"/><rect class="oa6-2" x="20" y="15" width="1" height="1"/><path class="oa6-5" d="M13,22h3V21h1V20h1V19h1V16h1V15H18v1H16V15H15V14H14v1H13v1H11V15H9v1h1v3h1v1h1v1h1Zm1-6h1v1H14Zm-2,3V18h1v1h3v1H13V19Z"/><path class="oa6-5" d="M18,13h1V11H18V10H16v1H14v1H13v1h5Z"/><path class="oa6-2" d="M19,17v2h1V16H19Z"/><rect class="oa6-2" x="18" y="19" width="1" height="1"/><rect class="oa6-2" x="17" y="20" width="1" height="1"/><rect class="oa6-2" x="11" y="20" width="1" height="1"/><rect class="oa6-2" x="10" y="19" width="1" height="1"/><path class="oa6-2" d="M10,16H9v3h1V16Z"/><rect class="oa6-2" x="14" y="16" width="1" height="1"/><path class="oa6-6" d="M18,14h1V13H18Z"/><rect class="oa6-2" x="13" y="19" width="3" height="1"/><rect class="oa6-2" x="12" y="18" width="1" height="1"/><path class="oa6-7" d="M9,15V14h2V13h2V12h1V11h2V10h2v1h1v3h1V10H19V9H18V8H11V9H10v1H9v2H8v6H9V15Z"/><path class="oa6-8" d="M12,14H11v1h2V14Z"/><path class="oa6-8" d="M17,14H16v1h2V14Z"/><path class="oa6-9" d="M11,16h2V15H11Z"/><path class="oa6-2" d="M18,14v1h2V14H18Z"/><path class="oa6-2" d="M10,14H9v1h2V14Z"/><path class="oa6-2" d="M17,14h1V13H11v1h2v1h1V14h1v1h1V14Z"/><path class="oa6-9" d="M16,16h2V15H16Z"/></svg>