<svg xmlns="http://www.w3.org/2000/svg" viewBox="0 0 29 33"><defs><style>polygon,rect,path{shape-rendering:crispedges;}.wa241-1{fill:#6b4f99;}.wa241-2{fill:#000000;}.wa241-3{fill:#8c7850;}.wa241-4{fill:#e8b795;}.wa241-5{fill:#dbc6d2;}.wa241-6{fill:#316a6d;}.wa241-7{fill:#fad000;}.wa241-8{fill:#316a6d;}.wa241-9{fill:#e5ac2e;}.wa241-10{fill:#ff1f4a;}.wa241-11{fill:#ffffff;}.wa241-12{fill:#00e070;}.wa241-13{fill:#ff1d99;}.wa241-14{fill:#10bcff;}.wa241-15{fill:#6e12ff;}.wa241-16{fill:#900;}.wa241-17{fill:#eaeaea;}</style></defs><rect class="wa241-1" x="17" y="20" width="1"/><rect class="wa241-1" x="9" y="16" width="1"/><rect class="wa241-1" x="19" y="16" width="1"/><polygon class="wa241-1" points="15 17 15 17 15 16 14 16 14 16 15 16 15 17"/><rect class="wa241-1" x="18" y="19" width="1"/><path class="wa241-1" d="M0,33H6V27H7V26H8V25h2V22h1V20H10V19H9V16H8V15H9V12H9V8h1V9h1V7h1V8h2V7H13V6h1V5h1V6h1V7H15V8h2V7h1V9h1V8h1v4h0v3h1v1H20v3H19v1H18v2h1v3h2V23H20V21h1V20h1V19h2v1h1v3H24v8H23v1H21v1h8V0H0Z"/><rect class="wa241-1" x="13" y="21" height="1"/><rect class="wa241-1" x="11" y="20" width="1"/><rect class="wa241-1" x="10" y="19" width="1"/><path class="wa241-2" d="M7,30V27H6v6H7V30Z"/><path class="wa241-3" d="M8,29V27H7v2Z"/><path class="wa241-3" d="M7,31v2H8V31Z"/><rect class="wa241-2" x="7" y="26" width="1" height="1"/><path class="wa241-3" d="M9,28h1v1h1v2h2V30H12V28H11V27H10V26H9v2Z"/><rect class="wa241-3" x="11" y="22" width="1" height="1"/><rect class="wa241-3" x="9" y="30" width="1" height="1"/><path class="wa241-4" d="M15,24h1V23H13v1h1v1h1Z"/><rect class="wa241-3" x="17" y="22" width="1" height="1"/><rect class="wa241-3" x="15" y="30" width="1" height="1"/><path class="wa241-3" d="M18,28h1v1h1V27H19V26H18v2Z"/><path class="wa241-3" d="M18,30V28H16v1h1v2h2V30Z"/><rect class="wa241-3" x="15" y="25" width="1" height="1"/><rect class="wa241-3" x="19" y="32" width="1" height="1"/><rect class="wa241-3" x="10" y="32" width="1" height="1"/><rect class="wa241-3" x="16" y="32" width="1" height="1"/><rect class="wa241-3" x="13" y="32" width="1" height="1"/><path class="wa241-2" d="M22,32h1V31H22V23H21v2H19V22H18v1H17V22h1V20H17v1H16v1H13V21H12V20H11v2h1v1H11V22H10v3H8v1h3V24h1v2h1V25h1V24H13V23h3v1H15v1h1v1h1V24h1v2h3v1H20v4H15V30H14V28H13v3H9V27H8v6H9V32H20v1h1V32Z"/><path class="wa241-3" d="M23,28V27H22v2h1Z"/><path class="wa241-3" d="M23,24H22v1h1Z"/><path class="wa241-2" d="M23,24v7h1V23H23Z"/><polygon class="wa241-2" points="20 16 20 16 21 16 21 15 20 15 20 16 20 16"/><path class="wa241-4" d="M9,16h1v3h1v1h1V18h5v2h1V19h1V16h1V15H18v1H16V15H15V14H14v1H13v1H11V15H9Zm5,0h1v1H14Z"/><path class="wa241-4" d="M19,13H18v1h1V12h0Z"/><path class="wa241-4" d="M16,12H13v1h4V12Z"/><path class="wa241-4" d="M10,12h0v2h0V13h1V12Z"/><path class="wa241-4" d="M13,20v1h0v1h3V20Z"/><rect class="wa241-4" x="12" y="21"/><rect class="wa241-4" x="17" y="21"/><path class="wa241-2" d="M19,16v3h1V16Z"/><polygon class="wa241-2" points="18 19 18 20 18 20 19 20 19 19 18 19 18 19"/><polygon class="wa241-2" points="11 19 11 19 10 19 10 20 11 20 11 20 11 19"/><path class="wa241-2" d="M10,18V16H9v3h1Z"/><polygon class="wa241-2" points="9 15 9 15 8 15 8 16 9 16 9 16 9 15"/><polygon class="wa241-2" points="15 17 15 16 14 16 14 16 14 17 15 17 15 17"/><path class="wa241-5" d="M19,28H18v2h1v1h1V29H19Z"/><path class="wa241-5" d="M18,28V27H17v1Z"/><path class="wa241-5" d="M22,29v2h1V29Z"/><path class="wa241-5" d="M20,27h1V26H19v1Z"/><path class="wa241-5" d="M23,26V25H22v2h1Z"/><path class="wa241-5" d="M18,32H17v1h2V32Z"/><path class="wa241-5" d="M16,29v2h1V29Z"/><rect class="wa241-5" x="13" y="25" width="1" height="1"/><path class="wa241-5" d="M15,32H14v1h2V32Z"/><path class="wa241-5" d="M12,29v1h1V28H12Z"/><path class="wa241-5" d="M11,27V26H10v1Z"/><rect class="wa241-5" x="11" y="27" width="1" height="1"/><path class="wa241-5" d="M12,32H11v1h2V32Z"/><path class="wa241-5" d="M10,29V28H9v2h1v1h1V29Z"/><path class="wa241-5" d="M9,32v1h1V32Z"/><path class="wa241-5" d="M9,27V26H8v1Z"/><path class="wa241-5" d="M7,30v1H8V29H7Z"/><rect class="wa241-6" x="10" y="13" width="1" height="1"/><path class="wa241-6" d="M12,12H11v1h2V12Z"/><path class="wa241-6" d="M19,12H17v1h2Z"/><rect class="wa241-2" x="12" y="27" width="1" height="1"/><path class="wa241-2" d="M16,29V28H15v2h1Z"/><path class="wa241-2" d="M17,28V27H16v1Z"/><path class="wa241-2" d="M18,27V26H17v1Z"/><rect class="wa241-2" x="11" y="26" width="1" height="1"/><rect class="wa241-2" x="14" y="25" width="1" height="1"/><rect class="wa241-2" x="13" y="26" width="1" height="1"/><rect class="wa241-2" x="15" y="26" width="1" height="1"/><rect class="wa241-7" x="16" y="26" width="1" height="1"/><path class="wa241-7" d="M16,28V27H15V26H14v1H13v1h1v2h1V28Z"/><rect class="wa241-7" x="12" y="26" width="1" height="1"/><path class="wa241-7" d="M12,25V24H11v2h1Z"/><path class="wa241-7" d="M18,25V24H17v2h1Z"/><path class="wa241-8" d="M13,18v1h3v2h1V18Z"/><path class="wa241-8" d="M13,19H12v2h1V19Z"/><path class="wa241-2" d="M16,20V19H13v1Z"/><path class="wa241-2" d="M13,18H12v1h1Z"/><path class="wa241-2" d="M20,21v2h1V21Z"/><rect class="wa241-2" x="21" y="20" width="1" height="1"/><rect class="wa241-2" x="22" y="19" width="2" height="1"/><path class="wa241-2" d="M24,23h1V20H24v3Z"/><path class="wa241-4" d="M22,24h1V23h1V20H22v1H21v2h1Z"/><path class="wa241-2" d="M11,16h2V15h1V14h1v1h1v1h2V15h2V12H19v2H18V13H11v1H10V12H9v3h2Z"/><rect class="wa241-1" x="17" y="9" width="1" height="1"/><rect class="wa241-9" x="12" y="10" width="1" height="1"/><rect class="wa241-9" x="16" y="10" width="1" height="1"/><rect class="wa241-1" x="11" y="9" width="1" height="1"/><rect class="wa241-10" x="14" y="10" width="1" height="1"/><rect class="wa241-10" x="13" y="9" width="1" height="1"/><path class="wa241-11" d="M12,7H11V8h1Z"/><path class="wa241-11" d="M13,9V8H12V9Z"/><path class="wa241-11" d="M17,9V8H16V9Z"/><rect class="wa241-11" x="18" y="9" width="1" height="1"/><rect class="wa241-11" x="10" y="9" width="1" height="1"/><path class="wa241-11" d="M10,8H9V9h1Z"/><path class="wa241-11" d="M18,7H17V8h1Z"/><rect class="wa241-7" x="16" y="9" width="1" height="1"/><rect class="wa241-7" x="12" y="9" width="1" height="1"/><rect class="wa241-12" x="11" y="10" width="1" height="1"/><path class="wa241-7" d="M12,8H11V9h1Z"/><path class="wa241-7" d="M18,9V8H17V9Z"/><path class="wa241-13" d="M10,10H9v1h1Z"/><rect class="wa241-14" x="17" y="10" width="1" height="1"/><path class="wa241-7" d="M12,12h7V10H18v1H16V10H15v1H14V10H13v1H11V10H10v2h2Z"/><path class="wa241-15" d="M19,11h1V10H19Z"/><path class="wa241-11" d="M20,8H19V9h1Z"/><rect class="wa241-10" x="15" y="9" width="1" height="1"/><rect class="wa241-10" x="14" y="8" width="1" height="1"/><rect class="wa241-16" x="14" y="9" width="1" height="1"/><path class="wa241-7" d="M14,9V8H13V9Z"/><path class="wa241-7" d="M16,9V8H15V9Z"/><rect class="wa241-17" x="14" y="6" width="1" height="1"/><rect class="wa241-11" x="14" y="7" width="1" height="1"/><rect class="wa241-11" x="13" y="6" width="1" height="1"/><rect class="wa241-11" x="15" y="6" width="1" height="1"/><rect class="wa241-11" x="14" y="5" width="1" height="1"/><path class="wa241-9" d="M10,12V11H9v1Z"/><path class="wa241-9" d="M19,12h1V11H19Z"/><path class="wa241-9" d="M20,10V9H19v1Z"/><path class="wa241-9" d="M10,9H9v1h1Z"/></svg>