<svg xmlns="http://www.w3.org/2000/svg" viewBox="0 0 29 33"><defs><style>polygon,rect,path{shape-rendering:crispedges;}.na165-1{fill:#6b4f99;}.na165-2{fill:#000000;}.na165-3{fill:#ffffff;}.na165-4{fill:#a7af69;}.na165-5{fill:#e8b795;}.na165-6{fill:#6e12ff;}.na165-7{fill:#ffffff;}.na165-8{fill:#473a35;}.na165-9{fill:#fad000;}.na165-10{fill:#a7af69;}.na165-11{fill:#455054;}.na165-12{fill:#ff1f4a;}</style></defs><path class="na165-1" d="M8,19v3H9v2H8v1h2V23h1V22h1V21H11V20H10V19H9V16H8v3Z"/><path class="na165-1" d="M0,33H8V32H6V31H5V22H6V21H7V20H5v1H2V17H5V16H8V15H9V14H8V11H9V10h1V9h2V8h5V9h1v1h1v1h1v4h1v1H20v3H19v1H18v1H17v1h1v1h1v2h2v1h1v1h1v6h6V0H0Z"/><path class="na165-2" d="M6,29V22H5v9H6V29Z"/><path class="na165-2" d="M23,27H22v6h1V27Z"/><path class="na165-3" d="M21,28v2h1V27H21Z"/><path class="na165-3" d="M21,31v2h1V31Z"/><rect class="na165-2" x="21" y="26" width="1" height="1"/><path class="na165-2" d="M21,30V27H20v6h1V30Z"/><path class="na165-3" d="M20,32V26H19V25H18v3h1v1H18v4h1V32Z"/><path class="na165-2" d="M20,26h1V25H19v1Z"/><path class="na165-2" d="M18,29V25H17v1H16v1h1v6h1V29Z"/><path class="na165-4" d="M17,27H16v1H13V27H12v6h5V27Z"/><path class="na165-5" d="M16,25V23H13v2h3Z"/><path class="na165-2" d="M12,27h1V26H12V25H11v8h1V27Z"/><path class="na165-3" d="M11,29H10V28h1V25H10v1H9v6h1v1h1V29Z"/><path class="na165-2" d="M9,31V27H8V26h2V25H8V24H7v7H6v1H8v1H9V31Z"/><path class="na165-3" d="M7,30H6v1H7Z"/><path class="na165-3" d="M6,27v2H7V26H6Z"/><path class="na165-3" d="M6,25H7V24H6Z"/><path class="na165-6" d="M10,29h1V28H10Z"/><path class="na165-6" d="M19,29V28H18v1Z"/><path class="na165-6" d="M8,27H9V26H8Z"/><path class="na165-6" d="M19,32v1h1V32Z"/><path class="na165-6" d="M9,32v1h1V32Z"/><path class="na165-6" d="M6,30H7V29H6Z"/><path class="na165-6" d="M6,26H7V25H6Z"/><path class="na165-6" d="M21,31h1V30H21Z"/><path class="na165-6" d="M20,27h1V26H20Z"/><rect class="na165-2" x="20" y="15" width="1" height="1"/><path class="na165-5" d="M10,13v1h2V13H10Z"/><path class="na165-5" d="M10,16v3h1v1h1v1h1v1h3V21h1V20h1V19h1V16h1V15H16V14h2V13H16V12h2v1h1V11H18V10H14v1H12v2h1v2H9v1Zm4,0h1v1H14Zm-1,3h3V18h1v1H16v1H13Z"/><path class="na165-2" d="M19,17v2h1V16H19Z"/><rect class="na165-2" x="18" y="19" width="1" height="1"/><rect class="na165-2" x="17" y="20" width="1" height="1"/><path class="na165-2" d="M16,22H13V21H12v1H11v1h1v2h1V23h3v2h1V23h1V22H17V21H16Z"/><rect class="na165-2" x="11" y="20" width="1" height="1"/><rect class="na165-2" x="10" y="19" width="1" height="1"/><path class="na165-2" d="M10,16H9v3h1V16Z"/><rect class="na165-2" x="8" y="15" width="1" height="1"/><rect class="na165-2" x="14" y="16" width="1" height="1"/><path class="na165-7" d="M18,14v1h1V14Z"/><path class="na165-7" d="M12,15h1V14H12Z"/><path class="na165-2" d="M17,14H16v1h2V14Z"/><path class="na165-2" d="M11,14H10v1h2V14Z"/><rect class="na165-8" x="18" y="13" width="1" height="1"/><rect class="na165-8" x="16" y="12" width="2" height="1"/><path class="na165-8" d="M13,14V13H12v1Z"/><path class="na165-8" d="M11,13h1V12H11Z"/><path class="na165-2" d="M18,25h1V23H18v2Z"/><path class="na165-9" d="M17,24v1h1V24Z"/><path class="na165-7" d="M17,24h1V23H17Z"/><rect class="na165-7" x="16" y="25" width="1" height="1"/><rect class="na165-9" x="15" y="26" width="1" height="1"/><path class="na165-2" d="M14,27H13v1h3V27H14Z"/><path class="na165-7" d="M15,27V26H14v1Z"/><rect class="na165-9" x="13" y="26" width="1" height="1"/><path class="na165-2" d="M15,25H13v1h3V25Z"/><rect class="na165-7" x="12" y="25" width="1" height="1"/><path class="na165-9" d="M11,24v1h1V24Z"/><path class="na165-7" d="M12,24V23H11v1Z"/><path class="na165-2" d="M11,23H10v2h1V23Z"/><rect class="na165-2" x="13" y="19" width="3" height="1"/><rect class="na165-2" x="16" y="18" width="1" height="1"/><path class="na165-10" d="M19,14v1h1V11H19v3Z"/><rect class="na165-10" x="18" y="10" width="1" height="1"/><path class="na165-10" d="M10,14V13h1V12h1V11h2V10h4V9H17V8H12V9H10v1H9v1H8v3H9v1h1Z"/><path class="na165-5" d="M7,24H8V22H6v2Z"/><path class="na165-11" d="M8,22V20H7v2Z"/><path class="na165-2" d="M7,21H6v1H7Z"/><path class="na165-2" d="M9,22H8v2H9Z"/><path class="na165-7" d="M4,19V18H5V17H3v4H5V20H4Z"/><path class="na165-7" d="M6,16H5v1H6v2H5v1H7V16Z"/><path class="na165-12" d="M2,17v4H3V17Z"/><path class="na165-12" d="M8,19V16H7v4H8Z"/><path class="na165-12" d="M6,19V17H5v1H4v2H5V19Z"/></svg>