<svg xmlns="http://www.w3.org/2000/svg" viewBox="0 0 29 33"><defs><style>polygon,rect,path{shape-rendering:crispedges;}.ab110-1{fill:#31a09d;}.ab110-2{fill:#000000;}.ab110-3{fill:#990000;}.ab110-4{fill:#ce8452;}.ab110-5{fill:#ffffff;}.ab110-6{fill:#6c9302;}.ab110-7{fill:#c4ea3b;}</style></defs><path class="ab110-1" d="M6,32V27H7V26H8V25h2V24h1V23h1V21H11V20H9V19H8V11H9V10h1V9h1V8h7V9h1v1h1v1h1v8H20v1H18v1H17v2h1v1h1v1h2v1h1v1h1v6h6V0H0V33H6Z"/><path class="ab110-2" d="M23,27H22v6h1V27Z"/><path class="ab110-3" d="M22,27H21v6h1V27Z"/><rect class="ab110-2" x="21" y="26" width="1" height="1"/><path class="ab110-2" d="M21,27H20v6h1V27Z"/><path class="ab110-3" d="M20,27h1V26H19V25H18v1H16V25H15v2H14V25H13v1H11V25H10v1H8v1H9v6h5V32h1v1h5V27Zm-5,4H14V30h1Zm0-2H14V28h1Z"/><path class="ab110-2" d="M20,26h1V25H19v1Z"/><rect class="ab110-3" x="16" y="24" width="1" height="1"/><rect class="ab110-2" x="15" y="24" width="1" height="1"/><rect class="ab110-2" x="14" y="32" width="1" height="1"/><rect class="ab110-2" x="14" y="30" width="1" height="1"/><rect class="ab110-2" x="14" y="28" width="1" height="1"/><path class="ab110-2" d="M14,26v1h1V25H14Z"/><rect class="ab110-2" x="13" y="24" width="1" height="1"/><path class="ab110-4" d="M16,24V23H13v1h1v1h1V24Z"/><rect class="ab110-3" x="12" y="24" width="1" height="1"/><path class="ab110-2" d="M11,26h2V25H12V24h1V23h3v1h1v1H16v1h2V25h1V24H18V23H17V21H16v1H13V21H12v2H11v1H10v1h1Z"/><path class="ab110-2" d="M10,25H8v1h2Z"/><path class="ab110-2" d="M9,27H8v6H9V27Z"/><path class="ab110-3" d="M8,27H7v6H8V27Z"/><rect class="ab110-2" x="7" y="26" width="1" height="1"/><path class="ab110-2" d="M7,27H6v6H7V27Z"/><path class="ab110-4" d="M13,22h3V21h1V20h1V19h1V16h1V15H16V13h1V11H15V10H14v1H13v2H11v1h2v1H9v1h1v3h1v1h1v1h1Zm1-6h1v1H14Zm-2,3V18h1v1h3v1H13V19Z"/><path class="ab110-2" d="M20,16H19v3h1V16Z"/><path class="ab110-2" d="M18,19v1h1V19Z"/><rect class="ab110-2" x="17" y="20" width="1" height="1"/><rect class="ab110-2" x="11" y="20" width="1" height="1"/><path class="ab110-2" d="M10,19v1h1V19Z"/><path class="ab110-2" d="M10,18V16H9v3h1Z"/><rect class="ab110-2" x="14" y="16" width="1" height="1"/><path class="ab110-5" d="M10,15h1V14H10Z"/><path class="ab110-5" d="M16,14v1h1V14Z"/><path class="ab110-2" d="M12,15h1V14H11v1Z"/><path class="ab110-2" d="M18,14H17v1h2V14Z"/><path class="ab110-6" d="M12,13h1V12H12Z"/><path class="ab110-6" d="M18,14h1V13H16v1h2Z"/><rect class="ab110-2" x="13" y="19" width="3" height="1"/><rect class="ab110-2" x="12" y="18" width="1" height="1"/><path class="ab110-7" d="M9,16V15h1V14h1V13h1V12h1V11h1V10h1v1h2v2h2v2h1v4h1V11H20V10H19V9H18V8H11V9H10v1H9v1H8v8H9V16Z"/><path class="ab110-7" d="M9,19v1h1V19Z"/><path class="ab110-7" d="M19,20h1V19H19Z"/></svg>