<svg xmlns="http://www.w3.org/2000/svg" viewBox="0 0 29 33"><defs><style>polygon,rect,path{shape-rendering:crispedges;}.ca66-1{fill:#db5a8e;}.ca66-2{fill:#000000;}.ca66-3{fill:#e8b795;}.ca66-4{fill:#a0688d;}.ca66-5{fill:#ffffff;}.ca66-6{fill:#893a1f;}.ca66-7{fill:#72dd40;}.ca66-8{fill:#ffffff;}.ca66-9{fill:#455054;}.ca66-10{fill:#002b4f;}.ca66-11{fill:#ff1f4a;}</style></defs><path class="ca66-1" d="M8,19v3H9v2H8v1h2V24h2V21H11V20H10V19H9V16H8v3Z"/><path class="ca66-1" d="M0,33H8V32H6V31H5V22H6V21H7V20H5v1H2V17H5V16H8V14H9V10h1V9h1V8h7V9h1v1h1v2h1v6H20v1H19v1H18v1H17v3h2v1h2v1h1v1h1v6h6V0H0Z"/><path class="ca66-2" d="M23,27H22v6h1V27Z"/><rect class="ca66-2" x="21" y="26" width="1" height="1"/><path class="ca66-3" d="M22,27H21v6h1V27Z"/><rect class="ca66-3" x="20" y="26" width="1" height="1"/><path class="ca66-2" d="M21,27H20v6h1V27Z"/><path class="ca66-2" d="M20,26h1V25H19v1Z"/><rect class="ca66-4" x="18" y="32" width="1" height="1"/><path class="ca66-4" d="M17,30h1V29h1v1h1V26H19V25H18v1H17v1H16v1H13V27H12V26H11V25H10v1H9v4h1V29h1v1h1v3h1V29h2v1h1v2H15v1h2V30Z"/><rect class="ca66-4" x="18" y="30" width="1" height="1"/><rect class="ca66-4" x="10" y="32" width="1" height="1"/><path class="ca66-4" d="M14,31v1h1V30H14Z"/><rect class="ca66-4" x="10" y="30" width="1" height="1"/><path class="ca66-2" d="M18,26V25h1V24H17v2Z"/><rect class="ca66-2" x="16" y="26" width="1" height="1"/><path class="ca66-2" d="M13,27v1h3V27H13Z"/><path class="ca66-3" d="M16,23H13v1H12v2h1v1h3V26h1V24H16Z"/><rect class="ca66-2" x="12" y="26" width="1" height="1"/><path class="ca66-2" d="M10,24v1h1v1h1V24Z"/><path class="ca66-3" d="M8,27H9V26H8Z"/><path class="ca66-2" d="M9,30V27H8V26h2V25H8V24H7v7H6v1H8v1H9V30Z"/><path class="ca66-3" d="M7,30V24H8V22H6v9H7Z"/><path class="ca66-2" d="M6,22H5v9H6V22Z"/><path class="ca66-5" d="M20,30H19v1H18V30H17v3h1V32h1v1h1V30Z"/><rect class="ca66-5" x="18" y="29" width="1" height="1"/><path class="ca66-5" d="M16,32V30H15v2Z"/><path class="ca66-5" d="M14,32V30h1V29H13v4h2V32Z"/><path class="ca66-5" d="M12,30H11v1H10V30H9v3h1V32h1v1h1V30Z"/><rect class="ca66-5" x="10" y="29" width="1" height="1"/><rect class="ca66-3" x="14" y="15" width="1" height="1"/><path class="ca66-3" d="M12,13h1v1h3V12H15V11H13V10H11v1H10v1h2Z"/><path class="ca66-3" d="M16,17V16H15v1H14V16H13v1H10v2h1v1h1v1h1v1h3V21h1V20h1V19h1V17Zm1,2H16v1H13V19h3V18h1Z"/><path class="ca66-2" d="M19,16v3h1V16Z"/><rect class="ca66-2" x="18" y="19" width="1" height="1"/><rect class="ca66-2" x="17" y="20" width="1" height="1"/><path class="ca66-2" d="M16,22H13V21H12v3h1V23h3v1h1V21H16Z"/><rect class="ca66-2" x="11" y="20" width="1" height="1"/><rect class="ca66-2" x="10" y="19" width="1" height="1"/><path class="ca66-2" d="M10,16H9v3h1V16Z"/><path class="ca66-2" d="M9,15H8v1H9Z"/><rect class="ca66-2" x="14" y="16" width="1" height="1"/><path class="ca66-6" d="M12,12H10v1h2Z"/><rect class="ca66-2" x="13" y="19" width="3" height="1"/><rect class="ca66-2" x="16" y="18" width="1" height="1"/><path class="ca66-7" d="M20,16v2h1V15H20Z"/><path class="ca66-7" d="M10,13V11h1V10h2v1h2v1h1v1h3v1h2V12H20V10H19V9H18V8H11V9H10v1H9v4h1Z"/><path class="ca66-8" d="M19,16h1V15h1V14H19Z"/><path class="ca66-8" d="M17,14h2V13H16v1Z"/><path class="ca66-2" d="M16,14v2h3V14H16Z"/><path class="ca66-8" d="M16,16v1h3V16H16Z"/><path class="ca66-8" d="M13,14v2h1V15h1v1h1V14Z"/><path class="ca66-8" d="M13,14V13H10v1h3Z"/><path class="ca66-2" d="M13,16V14H10v2h3Z"/><path class="ca66-8" d="M11,17h2V16H10v1Z"/><path class="ca66-8" d="M9,16h1V14H8v1H9Z"/><path class="ca66-9" d="M8,22V20H7v2Z"/><path class="ca66-2" d="M7,21H6v1H7Z"/><path class="ca66-2" d="M9,22H8v2H9Z"/><path class="ca66-10" d="M3,17H2v4H4V17Z"/><path class="ca66-11" d="M8,19V16H6v4H8Z"/><path class="ca66-8" d="M5,16v1H4v4H5V20H6V16Z"/></svg>