<svg xmlns="http://www.w3.org/2000/svg" viewBox="0 0 29 33"><defs><style>polygon,rect,path{shape-rendering:crispedges;}.xa131-1{fill:#29834f;}.xa131-2{fill:#000000;}.xa131-3{fill:#d8be00;}.xa131-4{fill:#b2622b;}.xa131-5{fill:#f9e100;}.xa131-6{fill:#ffffff;}.xa131-7{fill:#004a77;}.xa131-8{fill:#009b97;}.xa131-9{fill:#ff1f4a;}.xa131-10{fill:#009b97;}</style></defs><polygon class="xa131-1" points="10 24 10 23 9 23 9 25 10 25 10 24"/><path class="xa131-1" d="M0,33H6V26H7V25H8V21h2v1h1V20H10V19H9V16H8V15H9V10h1V9h1V8h7V9h1v1h1v2h1v6H20v1H19v1H18v2h1v3h2v1h1v1h1v6h6V0H0Z"/><path class="xa131-2" d="M7,31V26H6v7H7V31Z"/><path class="xa131-2" d="M23,27H22v6h1V27Z"/><rect class="xa131-2" x="21" y="26" width="1" height="1"/><path class="xa131-3" d="M21,28h1V27H21Z"/><path class="xa131-3" d="M21,30v1h1V29H21Z"/><path class="xa131-3" d="M21,32v1h1V32Z"/><path class="xa131-2" d="M21,31V27H20v4H14V27H13v4H9V28H8v5H9V32H20v1h1V31Z"/><rect class="xa131-2" x="9" y="25" width="1" height="1"/><path class="xa131-2" d="M20,26h1V25H19v1Z"/><path class="xa131-3" d="M19,32v1h1V32Z"/><path class="xa131-3" d="M9,32v1h1V32Z"/><path class="xa131-3" d="M17,32H15v1h3V32Z"/><path class="xa131-3" d="M13,32H11v1h3V32Z"/><path class="xa131-2" d="M18,24v1h1V22H18v2Z"/><path class="xa131-3" d="M19,26v1H18V26H17V25h1V23H17v1H16v2H15v1H14v3h1v1h3V30h1v1h1V29H19V28h1V27h1V26H19Zm-1,3H17v1H16V29H15V28h1V27h1v1h1Z"/><path class="xa131-2" d="M15,25h1V24H15Z"/><path class="xa131-2" d="M15,26V25H14v2h1Z"/><path class="xa131-4" d="M14,25h1V24h1V23H13v1h1Z"/><rect class="xa131-2" x="13" y="24" width="1" height="1"/><path class="xa131-2" d="M10,24v1h1V22H10v2Z"/><path class="xa131-3" d="M13,26V24H12V23H11v2h1v1H11v1H10V26H9v2h1v1H9v2h1V30h1v1h2V30H12V29H11V28h1V27h2V26Z"/><path class="xa131-3" d="M7,30v1H8V29H7Z"/><path class="xa131-3" d="M7,32v1H8V32Z"/><path class="xa131-3" d="M7,27v1H8V27Z"/><path class="xa131-4" d="M17,14h1V13H16V12H15V11H13V10H11v1H10v1h2v1h1v2h3V14Z"/><path class="xa131-4" d="M12,21h1v1h3V21h1V20h1V19h1V16h1V15H16v3h1v1H16v1H13V19h3V18H13V15H9v1h1v3h1v1h1Z"/><path class="xa131-4" d="M12,14V13H10v1h2Z"/><path class="xa131-2" d="M19,16v3h1V16Z"/><rect class="xa131-2" x="18" y="19" width="1" height="1"/><path class="xa131-2" d="M12,23v1h1V23h3v1h1V22h1V20H17v1H16v1H13V21H12V20H11v2h1Z"/><rect class="xa131-2" x="10" y="19" width="1" height="1"/><path class="xa131-2" d="M10,16H9v3h1V16Z"/><rect class="xa131-2" x="8" y="15" width="1" height="1"/><path class="xa131-5" d="M10,30v1h1V30Z"/><path class="xa131-5" d="M10,32v1h1V32Z"/><path class="xa131-5" d="M12,28H11v1h1v1h1V27H12Z"/><polygon class="xa131-5" points="10 27 11 27 11 26 12 26 12 25 11 25 10 25 10 26 10 27"/><path class="xa131-5" d="M15,26h1V25H15Z"/><path class="xa131-5" d="M13,26h1V25H13Z"/><polygon class="xa131-5" points="17 27 16 27 16 28 15 28 15 29 16 29 16 30 17 30 17 29 18 29 18 28 17 28 17 27"/><polygon class="xa131-5" points="17 25 17 26 18 26 18 27 19 27 19 26 19 25 18 25 17 25"/><path class="xa131-5" d="M7,29H8V28H7Z"/><path class="xa131-5" d="M10,28H9v1h1Z"/><path class="xa131-5" d="M21,29h1V28H21Z"/><path class="xa131-5" d="M19,29h1V28H19Z"/><path class="xa131-5" d="M21,32h1V31H21Z"/><path class="xa131-5" d="M7,32H8V31H7Z"/><path class="xa131-5" d="M14,30v1h1V30Z"/><path class="xa131-5" d="M14,32v1h1V32Z"/><path class="xa131-5" d="M18,30v1h1V30Z"/><path class="xa131-5" d="M18,32v1h1V32Z"/><path class="xa131-5" d="M12,23V22H11v1Z"/><path class="xa131-5" d="M17,23h1V22H17Z"/><path class="xa131-6" d="M18,14v1h1V14Z"/><path class="xa131-6" d="M12,14v1h1V14Z"/><path class="xa131-2" d="M17,14H16v1h2V14Z"/><path class="xa131-2" d="M11,14H10v1h2V14Z"/><path class="xa131-7" d="M13,14V13H12v1Z"/><rect class="xa131-7" x="10" y="12" width="2" height="1"/><rect class="xa131-2" x="13" y="19" width="3" height="1"/><rect class="xa131-2" x="16" y="18" width="1" height="1"/><path class="xa131-8" d="M10,14V11h1V10h2v1h2v1h1v1h2v1h1v1h1v3h1V12H20V10H19V9H18V8H11V9H10v1H9v5h1Z"/><path class="xa131-9" d="M13,15v3h3V15H13Z"/><path class="xa131-10" d="M9,26V21H8v5Z"/><path class="xa131-6" d="M10,23V21H9v2Z"/><path class="xa131-10" d="M8,27v1H9V27Z"/><path class="xa131-4" d="M8,27H9V26H7v1Z"/><path class="xa131-2" d="M8,25H7v1H8Z"/></svg>