<svg xmlns="http://www.w3.org/2000/svg" viewBox="0 0 29 33"><defs><style>polygon,rect,path{shape-rendering:crispedges;}.da165-1{fill:#7a982c;}.da165-2{fill:#000000;}.da165-3{fill:#ffb38d;}.da165-4{fill:#a56e49;}.da165-5{fill:#ffb38d;}.da165-6{fill:#ffffff;}.da165-7{fill:#473a35;}.da165-8{fill:#473a35;}.da165-9{fill:#0068ff;}</style></defs><path class="da165-1" d="M0,33H6V27H7V26H8V25h2V24h2V21H11V20H10V19H9V16H8V15H9V10h1V9h1V8h7V9h1v1h1v5h1v1H20v3H19v1H18v1H17v3h2v1h2v1h1v1h1v6h6V0H0Z"/><path class="da165-2" d="M23,27H22v3H21V27H20v6h1V31h1v2h1V27Z"/><rect class="da165-2" x="21" y="26" width="1" height="1"/><path class="da165-3" d="M21,28v2h1V27H21Z"/><path class="da165-4" d="M21,31v2h1V31Z"/><path class="da165-2" d="M20,26h1V25H19v1Z"/><rect class="da165-3" x="18" y="29" width="1" height="1"/><rect class="da165-3" x="10" y="29" width="1" height="1"/><path class="da165-3" d="M19,32V31H18v1H17V29h1V28h1v1h1V27h1V26H19V25H17v1H16v1H13V26H12V25H10v1H8v1H9v2h1V28h1v1h1v3H11V31H10v1H9v1H20V32Zm-3-2v1H15v1H13V28h2v1h1Z"/><path class="da165-3" d="M15,29H14v2h1V29Z"/><path class="da165-2" d="M18,25h1V24H17v1Z"/><rect class="da165-2" x="16" y="25" width="1" height="1"/><path class="da165-2" d="M13,26v1h3V26H13Z"/><path class="da165-2" d="M13,23V22H12v2h1Z"/><path class="da165-4" d="M13,25v1h3V25h1V24H16V23H13v1H12v1Z"/><rect class="da165-2" x="12" y="25" width="1" height="1"/><path class="da165-2" d="M12,24H10v1h2Z"/><path class="da165-2" d="M10,25H8v1h2Z"/><path class="da165-2" d="M9,31V27H8v3H7V27H6v6H7V31H8v2H9V31Z"/><rect class="da165-2" x="7" y="26" width="1" height="1"/><path class="da165-3" d="M7,30H8V27H7v3Z"/><path class="da165-4" d="M7,31v2H8V31Z"/><path class="da165-5" d="M19,30H18V29H17v3h1V31h1v1h1V29H19Z"/><rect class="da165-5" x="18" y="28" width="1" height="1"/><path class="da165-5" d="M15,30v1h1V29H15Z"/><path class="da165-5" d="M14,30V29h1V28H13v4h2V31H14Z"/><path class="da165-5" d="M9,32h1V31h1v1h1V29H11v1H10V29H9v3Z"/><rect class="da165-5" x="10" y="28" width="1" height="1"/><rect class="da165-2" x="20" y="15" width="1" height="1"/><path class="da165-2" d="M19,15h1V14H19Z"/><path class="da165-4" d="M10,14h2V13H10Z"/><path class="da165-4" d="M10,17v1h1v1h1v1h1V19h3V18h1v1h1V18h1V16h1V15H16V14h2V13H16V12h2v1h1V11H18V10H17v1H14V10H13v1H12V10H11v1H10v1h2v1h1v2H9v1h1Zm4-1h1v1H14Z"/><path class="da165-4" d="M13,21h3V20H13Z"/><rect class="da165-4" x="16" y="19" width="1" height="1"/><path class="da165-2" d="M16,23v1h1V22H16Z"/><rect class="da165-2" x="8" y="15" width="1" height="1"/><rect class="da165-2" x="14" y="16" width="1" height="1"/><path class="da165-6" d="M18,14v1h1V14Z"/><path class="da165-6" d="M12,15h1V14H12Z"/><path class="da165-2" d="M17,14H16v1h2V14Z"/><path class="da165-2" d="M12,15V14H9v1h3Z"/><rect class="da165-7" x="18" y="13" width="1" height="1"/><rect class="da165-7" x="16" y="12" width="2" height="1"/><path class="da165-7" d="M13,14V13H12v1Z"/><rect class="da165-7" x="10" y="12" width="2" height="1"/><path class="da165-8" d="M13,23h3V22h1V21h1V20h1V19h1V16H19v2H18v1H17v1H16v1H13V20H12V19H11V18H10V16H9v3h1v1h1v1h1v1h1Z"/><rect class="da165-2" x="13" y="19" width="3" height="1"/><rect class="da165-2" x="16" y="18" width="1" height="1"/><path class="da165-9" d="M10,13V11h1V10h1v1h1V10h1v1h3V10h1v1h1v3h1V10H19V9H18V8H11V9H10v1H9v4h1Z"/></svg>