<svg xmlns="http://www.w3.org/2000/svg" viewBox="0 0 29 33"><defs><style>polygon,rect,path{shape-rendering:crispedges;}.xa14-1{fill:#7a982c;}.xa14-2{fill:#000000;}.xa14-3{fill:#94d4ff;}.xa14-4{fill:#c18d59;}.xa14-5{fill:#0079bc;}.xa14-6{fill:#663228;}.xa14-7{fill:#00774c;}.xa14-8{fill:#ffffff;}.xa14-9{fill:#455054;}.xa14-10{fill:#ff1f4a;}.xa14-11{fill:#ffffff;}.xa14-12{fill:#0068ff;}</style></defs><path class="xa14-1" d="M0,33H8V32H6V31H5V22H6V21H7V20H5v1H2V17H5V16H8V12H9V10h1V9h1V8h7V9h1v1h1v2h1v7h1v1H21v1H20v1H19v3h2v1h1v1h1v6h6V0H0Z"/><rect class="xa14-1" x="10" y="21" width="1" height="1"/><rect class="xa14-1" x="8" y="21" width="1" height="1"/><path class="xa14-1" d="M10,22H9v2H8v1h2V22Z"/><rect class="xa14-1" x="18" y="21" width="1" height="1"/><path class="xa14-2" d="M6,29V22H5v9H6V29Z"/><path class="xa14-2" d="M23,27H22v6h1V27Z"/><path class="xa14-3" d="M21,31h1V30H21Z"/><path class="xa14-3" d="M21,28h1V27H21Z"/><rect class="xa14-2" x="21" y="26" width="1" height="1"/><path class="xa14-2" d="M21,30V27H20v4H14V27H13v4H9V27H8V26h2V25H8V24H7v7H6v1H8v1H9V32H20v1h1V30Z"/><path class="xa14-2" d="M20,26h1V25H19v1Z"/><path class="xa14-2" d="M18,23v2h1V22H18Z"/><path class="xa14-3" d="M16,24v1h2V24H16Z"/><path class="xa14-3" d="M14,27v1h6V27H14Z"/><path class="xa14-3" d="M14,31h6V30H14Z"/><rect class="xa14-2" x="15" y="24" width="1" height="1"/><path class="xa14-2" d="M15,26V25H14v2h1Z"/><rect class="xa14-2" x="13" y="24" width="1" height="1"/><path class="xa14-4" d="M16,24V23H13v1h1v1h1V24Z"/><path class="xa14-2" d="M12,24h1V23h3v1h1V21H16v1H13V21H12v3Z"/><path class="xa14-2" d="M11,24V22H10v3h1Z"/><path class="xa14-3" d="M9,31h4V30H9Z"/><path class="xa14-3" d="M9,28h4V27H9Z"/><polygon class="xa14-3" points="12 24 11 24 11 25 13 25 13 24 12 24"/><path class="xa14-3" d="M6,25H7V24H6Z"/><path class="xa14-3" d="M6,28H7V27H6Z"/><path class="xa14-3" d="M7,30H6v1H7Z"/><path class="xa14-2" d="M20,16h1V15H20Z"/><rect class="xa14-2" x="19" y="14" width="1" height="1"/><rect class="xa14-4" x="14" y="15" width="1" height="1"/><path class="xa14-4" d="M13,13v1h3V12h1V11H16V10H13v1H12v2Z"/><rect class="xa14-4" x="9" y="15" width="1" height="1"/><path class="xa14-4" d="M12,21h1v1h3V21h1V20h1V19h1V16H18v1H16V16H15v1H14V16H13v1H11V16H10v3h1v1h1Zm1-2h3v1H13Z"/><rect class="xa14-4" x="19" y="15" width="1" height="1"/><path class="xa14-2" d="M19,17v2h1V16H19Z"/><rect class="xa14-2" x="18" y="19" width="1" height="1"/><rect class="xa14-2" x="17" y="20" width="1" height="1"/><rect class="xa14-2" x="11" y="20" width="1" height="1"/><rect class="xa14-2" x="10" y="19" width="1" height="1"/><rect class="xa14-2" x="9" y="14" width="1" height="1"/><path class="xa14-2" d="M10,16H9v3h1V16Z"/><path class="xa14-2" d="M9,15H8v1H9Z"/><rect class="xa14-2" x="14" y="16" width="1" height="1"/><path class="xa14-5" d="M19,32H9v1H20V32Z"/><path class="xa14-5" d="M14,29v1h6V28H14Z"/><path class="xa14-5" d="M9,29v1h4V28H9Z"/><path class="xa14-5" d="M13,25H10v1H8v1h6V25Z"/><path class="xa14-5" d="M16,25H15v2h6V26H19V25H16Z"/><path class="xa14-5" d="M6,29v1H7V28H6Z"/><path class="xa14-5" d="M6,26v1H7V25H6Z"/><path class="xa14-5" d="M21,31v2h1V31Z"/><path class="xa14-5" d="M21,29v1h1V28H21Z"/><path class="xa14-5" d="M12,23V22H11v2h1Z"/><path class="xa14-5" d="M17,23v1h1V22H17Z"/><path class="xa14-6" d="M16,13h2V12H16Z"/><path class="xa14-6" d="M12,12H11v1h1Z"/><rect class="xa14-2" x="13" y="19" width="3" height="1"/><path class="xa14-7" d="M20,17v2H19v1H18v1h1v1h1V21h1V20h1V19H21V16H20Z"/><path class="xa14-7" d="M9,14h2V12h1V11h1V10h3v1h1v1h1v2h2v1h1V12H20V10H19V9H18V8H11V9H10v1H9v2H8v3H9Z"/><path class="xa14-7" d="M8,19v2H9v1h1V21h1V20H10V19H9V16H8v3Z"/><path class="xa14-7" d="M12,22V21H11v1Z"/><path class="xa14-7" d="M17,22h1V21H17Z"/><path class="xa14-8" d="M13,13H11v1h2Z"/><path class="xa14-8" d="M11,17h2V16H11Z"/><path class="xa14-8" d="M10,16h1V14H10v2Z"/><path class="xa14-2" d="M13,16V14H11v2Z"/><path class="xa14-8" d="M19,16V14H18v2Z"/><path class="xa14-8" d="M16,14h2V13H16Z"/><path class="xa14-8" d="M16,17h2V16H16Z"/><path class="xa14-8" d="M13,14v2h1V15h1v1h1V14Z"/><path class="xa14-2" d="M16,16h2V14H16Z"/><path class="xa14-4" d="M7,24H8V22H6v2Z"/><path class="xa14-9" d="M8,22V20H7v2Z"/><path class="xa14-10" d="M5,17H2v1H5Z"/><path class="xa14-10" d="M2,19v1H5V19Z"/><path class="xa14-11" d="M2,21H5V20H2Z"/><path class="xa14-12" d="M6,18H8V16H5v2Z"/><path class="xa14-11" d="M5,18H2v1H5Z"/><path class="xa14-10" d="M7,18H5v1H8V18Z"/><path class="xa14-11" d="M8,19H5v1H8Z"/><path class="xa14-2" d="M7,21H6v1H7Z"/><path class="xa14-2" d="M9,22H8v2H9Z"/></svg>