<svg xmlns="http://www.w3.org/2000/svg" viewBox="0 0 29 33"><defs><style>polygon,rect,path{shape-rendering:crispedges;}.hb114-1{fill:#d4a122;}.hb114-2{fill:#000000;}.hb114-3{fill:#c18d59;}.hb114-4{fill:#ffffff;}.hb114-5{fill:#893a1f;}.hb114-6{fill:#893a1f;}.hb114-7{fill:#0079bc;}.hb114-8{fill:#455054;}.hb114-9{fill:#29834f;}.hb114-10{fill:#ff1f4a;}</style></defs><path class="hb114-1" d="M8,19v3H9v2H8v1h2V24h2V21H11V20H10V19H9V16H8v3Z"/><path class="hb114-1" d="M0,33H8V32H6V31H5V22H6V21H7V20H5v1H2V17H5V16H8V15H9V10h1V9h1V8h7V9h1v1h1v5h1v1H20v3H19v1H18v1H17v3h2v1h2v1h1v1h1v6h6V0H0Z"/><path class="hb114-2" d="M6,22H5v9H6V22Z"/><path class="hb114-2" d="M23,27H22v6h1V27Z"/><path class="hb114-3" d="M22,27H21v6h1V27Z"/><rect class="hb114-2" x="21" y="26" width="1" height="1"/><path class="hb114-2" d="M21,27H20v6h1V27Z"/><path class="hb114-3" d="M20,27h1V26H19V25H17V24H16V23H13v1H12v1H10v1H8v1H9v6h5V29h1v4h5V27Zm-8,2H11V28h1Zm6,0H17V28h1Z"/><path class="hb114-2" d="M20,26h1V25H19v1Z"/><rect class="hb114-2" x="17" y="28" width="1" height="1"/><path class="hb114-2" d="M18,25h1V24H17v1Z"/><path class="hb114-2" d="M15,29H14v4h1V29Z"/><rect class="hb114-2" x="11" y="28" width="1" height="1"/><path class="hb114-2" d="M10,25h2V24H10Z"/><path class="hb114-2" d="M9,27H8V26h2V25H8V24H7v7H6v1H8v1H9V27Z"/><path class="hb114-3" d="M7,30V24H8V22H6v9H7Z"/><rect class="hb114-2" x="20" y="15" width="1" height="1"/><path class="hb114-2" d="M19,15h1V14H19Z"/><path class="hb114-3" d="M19,16H16V14h2V13H16V12h2v1h1V11H18V10H17v1H14V10H13v1H12V10H11v1H10v1h2v1h1v3H10v3h1v1h1v1h1v1h3V21h1V20h1V19h1V16Zm-5,0h1v1H14Zm3,3H16v1H13V19H12V18h5Z"/><rect class="hb114-3" x="9" y="15" width="1" height="1"/><path class="hb114-3" d="M12,14V13H10v1h2Z"/><rect class="hb114-3" x="19" y="15" width="1" height="1"/><path class="hb114-2" d="M19,17v2h1V16H19Z"/><rect class="hb114-2" x="18" y="19" width="1" height="1"/><rect class="hb114-2" x="17" y="20" width="1" height="1"/><path class="hb114-2" d="M16,22H13V21H12v3h1V23h3v1h1V21H16Z"/><rect class="hb114-2" x="11" y="20" width="1" height="1"/><rect class="hb114-2" x="10" y="19" width="1" height="1"/><path class="hb114-2" d="M10,14H9v1h1Z"/><path class="hb114-2" d="M10,16H9v3h1V16Z"/><rect class="hb114-2" x="8" y="15" width="1" height="1"/><rect class="hb114-2" x="14" y="16" width="1" height="1"/><path class="hb114-4" d="M11,15V14H10v2h1Z"/><path class="hb114-4" d="M12,15v1h1V14H12Z"/><path class="hb114-4" d="M16,14v2h1V14Z"/><path class="hb114-4" d="M18,15v1h1V14H18Z"/><path class="hb114-2" d="M12,14H11v2h1V14Z"/><path class="hb114-2" d="M18,14H17v2h1V14Z"/><rect class="hb114-5" x="18" y="13" width="1" height="1"/><rect class="hb114-5" x="16" y="12" width="2" height="1"/><path class="hb114-5" d="M13,14V13H12v1Z"/><rect class="hb114-5" x="10" y="12" width="2" height="1"/><path class="hb114-6" d="M12,18v1h4V18Z"/><path class="hb114-2" d="M13,20h3V19H13Z"/><path class="hb114-2" d="M16,19h1V18H16Z"/><path class="hb114-7" d="M10,13V11h1V10h1v1h1V10h1v1h3V10h1v1h1v3h1V10H19V9H18V8H11V9H10v1H9v4h1Z"/><path class="hb114-8" d="M8,22V20H7v2Z"/><path class="hb114-2" d="M7,21H6v1H7Z"/><path class="hb114-2" d="M9,22H8v2H9Z"/><path class="hb114-9" d="M4,17H2v4H4V17Z"/><path class="hb114-10" d="M8,19V16H6v4H8Z"/><path class="hb114-4" d="M6,16H5v1H4v4H5V20H6V16Z"/></svg>