<svg xmlns="http://www.w3.org/2000/svg" viewBox="0 0 29 33"><defs><style>polygon,rect,path{shape-rendering:crispedges;}.ma248-1{fill:#d14646;}.ma248-2{fill:#000000;}.ma248-3{fill:#009b97;}.ma248-4{fill:#99004d;}.ma248-5{fill:#e8b795;}.ma248-6{fill:#3e5e00;}.ma248-7{fill:#ffffff;}.ma248-8{fill:#8e703c;}.ma248-9{fill:#8e703c;}.ma248-10{fill:#45ba00;}.ma248-11{fill:#6e12ff;}</style></defs><path class="ma248-1" d="M0,33H8V32H6V31H5V23H4V20H5V19H7v1H8V19H9V16H8V15H9V11h1V10h1V9h2V7h1V6h2V5h2V6H17V7h1V9h1v2h1v4h1v1H20v3h1v1h1V19h2v1h1v3H24v8H23v1H21v1h8V0H0Z"/><path class="ma248-1" d="M20,21H17v3h2v1h2V23H20Z"/><path class="ma248-1" d="M12,21H9v2H8v2h2V24h2V21Z"/><rect class="ma248-1" x="20" y="20" width="1" height="1"/><rect class="ma248-1" x="8" y="20" width="1" height="1"/><path class="ma248-2" d="M23,24v7h1V23H23Z"/><path class="ma248-2" d="M6,28V23H5v8H6V28Z"/><path class="ma248-3" d="M23,24H22v1h1Z"/><path class="ma248-3" d="M23,28V27H22v2h1Z"/><path class="ma248-2" d="M22,32h1V31H22V23H21v2H19v1h2v1H20v6h1V32Z"/><path class="ma248-3" d="M18,26v2h1v1h1V27H19V25H18Z"/><path class="ma248-3" d="M19,31V30H18v2h1v1h1V31Z"/><path class="ma248-2" d="M18,31V25h1V24H17v1H16v1h1v7h1V31Z"/><path class="ma248-4" d="M17,26H16v1H13V26H12v7h5V26Z"/><path class="ma248-2" d="M13,26v1h3V26H13Z"/><path class="ma248-5" d="M16,23H13v1H12v1h1v1h3V25h1V24H16Z"/><path class="ma248-2" d="M12,26h1V25H12V24H10v1h1v8h1V26Z"/><path class="ma248-3" d="M10,31V30H9v2h1v1h1V31Z"/><path class="ma248-3" d="M10,26H9v2h1v1h1V27H10Z"/><path class="ma248-2" d="M9,31V27H8V26h2V25H8V23H7v8H6v1H8v1H9V31Z"/><path class="ma248-3" d="M6,28v1H7V27H6Z"/><path class="ma248-3" d="M6,25H7V24H6Z"/><path class="ma248-6" d="M19,28H18v2h1v1h1V29H19Z"/><path class="ma248-6" d="M22,29v2h1V29Z"/><path class="ma248-6" d="M20,27h1V26H19v1Z"/><path class="ma248-6" d="M23,26V25H22v2h1Z"/><path class="ma248-6" d="M18,32v1h1V32Z"/><path class="ma248-6" d="M10,27h1V25H10v2Z"/><path class="ma248-6" d="M10,28H9v2h1v1h1V29H10Z"/><path class="ma248-6" d="M9,32v1h1V32Z"/><path class="ma248-6" d="M8,26v1H9V26Z"/><path class="ma248-6" d="M7,30V29H6v2H7Z"/><path class="ma248-6" d="M6,26v1H7V25H6Z"/><rect class="ma248-2" x="20" y="15" width="1" height="1"/><path class="ma248-2" d="M19,14H17v1h3V13H19Z"/><path class="ma248-5" d="M13,11V10H11v1Z"/><path class="ma248-5" d="M18,14h1V13H17v1Z"/><path class="ma248-5" d="M17,10H15v1h3V10Z"/><path class="ma248-5" d="M10,17v1h1v1h1V18h1v1h3v1H13V19H12v2h1v1h3V21h1V19h1V18h1V16h1V15H16V13H11v1h2v1H9v1h1Zm4-1h1v1H14Z"/><path class="ma248-2" d="M18,11h1V10H18Z"/><path class="ma248-2" d="M18,20H17v1h1Z"/><path class="ma248-2" d="M17,21H16v1H13V21H12v3h1V23h3v1h1V21Z"/><path class="ma248-2" d="M16,10h2V9H16Z"/><path class="ma248-2" d="M13,9H11v1h2Z"/><path class="ma248-2" d="M12,20H11v1h1Z"/><rect class="ma248-2" x="10" y="10" width="1" height="1"/><path class="ma248-2" d="M10,14V13H9v2h1Z"/><rect class="ma248-2" x="8" y="15" width="1" height="1"/><rect class="ma248-2" x="14" y="16" width="1" height="1"/><path class="ma248-7" d="M10,15h1V14H10Z"/><path class="ma248-7" d="M16,14v1h1V14Z"/><path class="ma248-2" d="M12,15h1V14H11v1Z"/><rect class="ma248-8" x="10" y="13" width="1" height="1"/><path class="ma248-8" d="M17,13H16v1h1Z"/><path class="ma248-9" d="M19,17v1H18v1H17v1h1v1h2V20h1V19H20V16H19Z"/><path class="ma248-9" d="M9,21h2V20h1V19H11V18H10V16H9v3H8v1H9Z"/><rect class="ma248-2" x="13" y="19" width="3" height="1"/><rect class="ma248-2" x="12" y="18" width="1" height="1"/><path class="ma248-2" d="M20,21v2h1V21Z"/><rect class="ma248-2" x="21" y="20" width="1" height="1"/><rect class="ma248-2" x="22" y="19" width="2" height="1"/><path class="ma248-2" d="M24,23h1V20H24v3Z"/><path class="ma248-5" d="M21,21v2h1v1h1V23h1V20H22v1Z"/><path class="ma248-2" d="M9,21H8v2H9Z"/><rect class="ma248-2" x="7" y="20" width="1" height="1"/><rect class="ma248-2" x="5" y="19" width="2" height="1"/><path class="ma248-2" d="M5,20H4v3H5V20Z"/><path class="ma248-5" d="M6,24H7V23H8V21H7V20H5v3H6Z"/><path class="ma248-10" d="M13,11h2V10h1V9h2V7H17V6h1V5H16V6H14V7H13v4Z"/><path class="ma248-10" d="M19,10V9H18v1Z"/><path class="ma248-7" d="M20,12V11H9v1H20Z"/><path class="ma248-11" d="M11,13h9V12H9v1h2Z"/><rect class="ma248-10" x="18" y="9" width="1" height="1"></rect></svg>