<svg xmlns="http://www.w3.org/2000/svg" viewBox="0 0 29 33"><defs><style>polygon,rect,path{shape-rendering:crispedges;}.ia181-1{fill:#6b4f99;}.ia181-2{fill:#000000;}.ia181-3{fill:#f9e100;}.ia181-4{fill:#b2622b;}.ia181-5{fill:#f9e100;}.ia181-6{fill:#ffffff;}.ia181-7{fill:#e2e2e2;}.ia181-8{fill:#990000;}.ia181-9{fill:#381616;}.ia181-10{fill:#fad000;}</style></defs><path class="ia181-1" d="M0,33H6V27H7V26H8V25h2V24h2V21H11V20H10V19H9V18H8V12H9V10h1V9h1V8h7V9h1v1h1v5h1v1H20v3H19v1H18v1H17v3h2V21h1V20h3v1h1v3H23v1h1v1H23v7h6V0H0Z"/><rect class="ia181-1" x="19" y="24" width="1" height="1"/><path class="ia181-2" d="M7,27H6v6H7V27Z"/><rect class="ia181-2" x="7" y="26" width="1" height="1"/><path class="ia181-3" d="M8,27H7v6H8V27Z"/><path class="ia181-2" d="M9,31V27H8v6H9V31Z"/><path class="ia181-2" d="M10,25H8v1h2Z"/><rect class="ia181-3" x="18" y="29" width="1" height="1"/><rect class="ia181-3" x="10" y="29" width="1" height="1"/><path class="ia181-3" d="M19,32V31H18v1H17V29h1V28h1v1h1V26H19V25H17v1H16v1H13V26H12V25H10v1H8v1H9v2h1V28h1v1h1v3H11V31H10v1H9v1H20V32Zm-3-2v1H15v1H13V28h2v1h1Z"/><path class="ia181-3" d="M15,29H14v2h1V29Z"/><path class="ia181-2" d="M12,24H10v1h2Z"/><path class="ia181-2" d="M13,23h3v1h1V21H16v1H13V21H12v3h1Z"/><rect class="ia181-2" x="12" y="25" width="1" height="1"/><path class="ia181-2" d="M13,26v1h3V26H13Z"/><path class="ia181-4" d="M13,25v1h3V25h1V24H16V23H13v1H12v1Z"/><rect class="ia181-2" x="16" y="25" width="1" height="1"/><path class="ia181-2" d="M18,25h1V24H17v1Z"/><path class="ia181-2" d="M21,27V26H20v7h1V27Z"/><path class="ia181-3" d="M22,27H21v6h1V27Z"/><path class="ia181-2" d="M23,26H22v7h1V26Z"/><path class="ia181-5" d="M19,30H18V29H17v3h1V31h1v1h1V29H19Z"/><rect class="ia181-5" x="18" y="28" width="1" height="1"/><path class="ia181-5" d="M15,30v1h1V29H15Z"/><path class="ia181-5" d="M14,30V29h1V28H13v4h2V31H14Z"/><path class="ia181-5" d="M9,32h1V31h1v1h1V29H11v1H10V29H9v3Z"/><rect class="ia181-5" x="10" y="28" width="1" height="1"/><rect class="ia181-2" x="20" y="15" width="1" height="1"/><path class="ia181-4" d="M13,22h3V21h1V20h1V19h1V16h1V15H16V13h1V12h2V11H18V10H16v1H14v1H13v1H11v1h2v1H9v1h1v3h1v1h1v1h1Zm1-6h1v1H14Zm-2,3V18h1v1h3v1H13V19Z"/><polygon class="ia181-4" points="18 14 19 14 19 13 17 13 17 14 18 14"/><path class="ia181-2" d="M19,17v2h1V16H19Z"/><rect class="ia181-2" x="18" y="19" width="1" height="1"/><rect class="ia181-2" x="17" y="20" width="1" height="1"/><rect class="ia181-2" x="11" y="20" width="1" height="1"/><rect class="ia181-2" x="10" y="19" width="1" height="1"/><path class="ia181-2" d="M10,16H9v3h1V16Z"/><rect class="ia181-2" x="14" y="16" width="1" height="1"/><path class="ia181-6" d="M13,15V14H12v1Z"/><path class="ia181-6" d="M10,15h1V14H10Z"/><path class="ia181-6" d="M18,14v1h1V14Z"/><path class="ia181-6" d="M16,14v1h1V14Z"/><path class="ia181-2" d="M12,15V14H11v1Z"/><path class="ia181-2" d="M17,14v1h1V14Z"/><path class="ia181-7" d="M17,13H16v1h1Z"/><rect class="ia181-7" x="17" y="12" width="2" height="1"/><rect class="ia181-2" x="13" y="19" width="3" height="1"/><rect class="ia181-2" x="12" y="18" width="1" height="1"/><path class="ia181-8" d="M9,15h1V14h1V13h2V12h1V11h2V10h2v1h1v4h1V10H19V9H18V8H11V9H10v1H9v2H8v6H9V15Z"/><path class="ia181-4" d="M20,26h1v1h1V26h1V25H20Z"/><rect class="ia181-2" x="23" y="25" width="1" height="1"/><rect class="ia181-2" x="19" y="25" width="1" height="1"/><path class="ia181-9" d="M24,22V21H23v1Z"/><path class="ia181-10" d="M20,25h3V24H21V23H20V22h1V21h1v1H21v1h3V22H23V20H20v1H19v3h1Z"/><rect class="ia181-9" x="21" y="21" width="1" height="1"/><path class="ia181-9" d="M21,23v1h3V23H21Z"/><rect class="ia181-9" x="20" y="22" width="1" height="1"/></svg>