<svg xmlns="http://www.w3.org/2000/svg" viewBox="0 0 29 33"><defs><style>polygon,rect,path{shape-rendering:crispedges;}.bb297-1{fill:#397d98;}.bb297-2{fill:#000000;}.bb297-3{fill:#6f7032;}.bb297-4{fill:#ffffff;}.bb297-5{fill:#ce8452;}.bb297-6{fill:#990000;}.bb297-7{fill:#b23b00;}.bb297-8{fill:#0068ff;}.bb297-9{fill:#ff1f4a;}</style></defs><path class="bb297-1" d="M0,33H6V27H7V26H8V25h2V24h1V23h1V21H11V20H10V19H9V16H8V15H9V11h1V10h1V9h2V7h1V5h1V6h1V8h1V9h1v1h1v1h1v4h1v1H20v3H19v1H18v1H17v2h1v1h1v1h1V24h1V23h1v1h1v9h6V0H0Z"/><path class="bb297-2" d="M7,27H6v6H7V27Z"/><rect class="bb297-2" x="7" y="26" width="1" height="1"/><path class="bb297-3" d="M8,27H7v6H8V27Z"/><path class="bb297-2" d="M9,27H8v6H9V27Z"/><path class="bb297-2" d="M10,25H8v1h2Z"/><path class="bb297-3" d="M12,29H11V25H10v1H8v1H9v6h3V29Z"/><path class="bb297-2" d="M11,26v3h1V26h1V25H12V24h1V23h1v1H13v1h3V24H15V23h1v1h1v1H16v1h1v3h1V25h1V24H18V23H17V21H16v1H13V21H12v2H11v1H10v1h1Z"/><rect class="bb297-4" x="12" y="24" width="1" height="1"/><path class="bb297-2" d="M13,29H12v4h1V29Z"/><rect class="bb297-4" x="13" y="23" width="1" height="1"/><path class="bb297-4" d="M16,29h1V26H16V25H13v1H12v3h1v4h1V32h1v1h1V29Zm-1,2H14V30h1Zm0-2H14V28h1Zm0-2H14V26h1Z"/><rect class="bb297-2" x="14" y="26" width="1" height="1"/><rect class="bb297-2" x="14" y="28" width="1" height="1"/><rect class="bb297-2" x="14" y="30" width="1" height="1"/><rect class="bb297-2" x="14" y="32" width="1" height="1"/><rect class="bb297-4" x="15" y="23" width="1" height="1"/><rect class="bb297-4" x="16" y="24" width="1" height="1"/><path class="bb297-2" d="M17,29H16v4h1V29Z"/><path class="bb297-3" d="M20,27H19V25H18v4H17v4h3V27Z"/><path class="bb297-2" d="M21,28V27H20v6h1V28Z"/><path class="bb297-4" d="M21,28h1V27H21Z"/><path class="bb297-3" d="M22,28H21v5h1V28Z"/><path class="bb297-2" d="M23,24H22v9h1V24Z"/><rect class="bb297-2" x="20" y="15" width="1" height="1"/><path class="bb297-2" d="M19,13h1V11H19v2Z"/><path class="bb297-5" d="M13,12v1h1v1h1V13h1V12h3V11H18V10H14v1H13V10H11v1H10v1Z"/><path class="bb297-5" d="M13,22h3V21h1V20h1V19h1V16H15v1H14V16H10v3h1v1h1v1h1Zm0-3h3V18h1v1H16v1H13Z"/><rect class="bb297-5" x="14" y="15" width="1" height="1"/><path class="bb297-2" d="M19,17v2h1V16H19Z"/><rect class="bb297-2" x="18" y="10" width="1" height="1"/><rect class="bb297-2" x="18" y="19" width="1" height="1"/><rect class="bb297-2" x="17" y="20" width="1" height="1"/><path class="bb297-2" d="M13,9H11v1h2Z"/><path class="bb297-2" d="M15,10h3V9H15Z"/><rect class="bb297-2" x="11" y="20" width="1" height="1"/><rect class="bb297-2" x="10" y="10" width="1" height="1"/><rect class="bb297-2" x="10" y="19" width="1" height="1"/><path class="bb297-2" d="M10,12V11H9v2h1Z"/><path class="bb297-2" d="M10,16H9v3h1V16Z"/><rect class="bb297-2" x="8" y="15" width="1" height="1"/><rect class="bb297-2" x="14" y="16" width="1" height="1"/><path class="bb297-6" d="M10,12v1h3V12Z"/><path class="bb297-6" d="M16,12v1h3V12Z"/><rect class="bb297-2" x="13" y="19" width="3" height="1"/><rect class="bb297-2" x="16" y="18" width="1" height="1"/><path class="bb297-5" d="M21,27h1V24H21v1H20v2Z"/><path class="bb297-2" d="M20,27V25H19v2Z"/><rect class="bb297-2" x="20" y="24" width="1" height="1"/><rect class="bb297-2" x="21" y="23" width="1" height="1"/><path class="bb297-7" d="M13,11h1V10h1V9h2V8H16V6H15V5H14V7H13v4Z"/><path class="bb297-4" d="M11,16h3V15h1v1h5V13H15v1H14V13H9v3h2Zm5-2h3v1H16Zm-6,0h3v1H10Z"/><path class="bb297-8" d="M19,15V14H16v1h3Z"/><path class="bb297-9" d="M13,15V14H10v1h3Z"/></svg>