<svg xmlns="http://www.w3.org/2000/svg" viewBox="0 0 29 33"><defs><style>polygon,rect,path{shape-rendering:crispedges;}.ja52-1{fill:#29834f;}.ja52-2{fill:#000000;}.ja52-3{fill:#316a6d;}.ja52-4{fill:#ce8452;}.ja52-5{fill:#ffffff;}.ja52-6{fill:#893a1f;}.ja52-7{fill:#ccc;}.ja52-8{fill:#9b8100;}.ja52-9{fill:#c9a717;}</style></defs><path class="ja52-1" d="M6,32V27H7V26H8V24H6V23H5V21H4V20H3V19H8v1H9V16H8V15H9V14H8V13H4V12H6V11H8V10h2V9h1V8h1V7h1V6h1V5h1V6h1V7h1V8h1V9h1v1h2v1h2v1h2v1H21v1H20v1h1v1H20v4h1V19h5v1H25v1H24v2H23v1H21v2h1v1h1v6h6V0H0V33H6Z"/><path class="ja52-1" d="M19,21H18v1H17v2h2V22h1V20H19Z"/><path class="ja52-1" d="M10,22v2h2V22H11V21H10V20H9v2Z"/><path class="ja52-2" d="M23,27H22v6h1V27Z"/><rect class="ja52-2" x="21" y="26" width="1" height="1"/><path class="ja52-3" d="M22,27H21v6h1V27Z"/><path class="ja52-2" d="M21,27H20v6h1V27Z"/><path class="ja52-2" d="M19,26h2V25H19Z"/><path class="ja52-3" d="M20,27h1V26H19V25H17V24H16V23H13v1H12v1H10v1H8v1H9v6H20V27Z"/><path class="ja52-2" d="M18,24H17v1h2V24Z"/><path class="ja52-2" d="M10,25h2V24H10Z"/><path class="ja52-2" d="M10,25H8v1h2Z"/><path class="ja52-2" d="M9,27H8v6H9V27Z"/><rect class="ja52-2" x="7" y="26" width="1" height="1"/><path class="ja52-3" d="M8,27H7v6H8V27Z"/><path class="ja52-2" d="M7,27H6v6H7V27Z"/><rect class="ja52-2" x="20" y="15" width="1" height="1"/><rect class="ja52-2" x="19" y="14" width="1" height="1"/><path class="ja52-4" d="M10,17v1h1v1h1V18h2v1h1V18h2v1h1V18h1V16h1V15H18v1H17v1H16V14H13v1H9v1h1Zm4-1h1v1H14Z"/><rect class="ja52-4" x="13" y="20" width="1" height="1"/><rect class="ja52-4" x="15" y="20" width="1" height="1"/><path class="ja52-2" d="M12,22v2h1V22Z"/><path class="ja52-2" d="M16,22v2h1V22Z"/><rect class="ja52-2" x="8" y="15" width="1" height="1"/><rect class="ja52-2" x="14" y="16" width="1" height="1"/><path class="ja52-5" d="M12,15h1V14H12Z"/><path class="ja52-5" d="M10,14v1h1V14Z"/><path class="ja52-2" d="M11,14v1h1V14Z"/><path class="ja52-6" d="M10,21h1v1h2v1h3V22h2V21h1V20h1V16H19v2H18v1H16v2H15V20H14v1H13V19h1V18H12v1H11V18H10V16H9v4h1Z"/><path class="ja52-6" d="M15,18v1h1V18Z"/><path class="ja52-2" d="M14,19H13v1h3V19H14Z"/><path class="ja52-2" d="M16,18v1h1V18Z"/><path class="ja52-5" d="M10,22H9V20H8V19H3v1H7v1H5v1H8v1H6v1h4Z"/><path class="ja52-7" d="M8,22H5v1H8Z"/><path class="ja52-7" d="M7,20H4v1H7Z"/><path class="ja52-7" d="M22,20v1h3V20H22Z"/><path class="ja52-7" d="M21,22v1h3V22H21Z"/><path class="ja52-5" d="M19,22v2h4V23H21V22h3V21H22V20h4V19H21v1H20v2Z"/><path class="ja52-7" d="M10,24H8v1h2Z"/><path class="ja52-7" d="M19,25h2V24H19Z"/><path class="ja52-8" d="M10,14H9v1h1Z"/><path class="ja52-8" d="M18,14H16v3h1V16h1V15h1V14Z"/><path class="ja52-9" d="M11,14H21V13h4V12H23V11H21V10H19V9H18V8H17V7H16V6H15V5H14V6H13V7H12V8H11V9H10v1H8v1H6v1H4v1H8v1h3Z"/></svg>