<svg xmlns="http://www.w3.org/2000/svg" viewBox="0 0 29 33"><defs><style>polygon,rect,path{shape-rendering:crispedges;}.ab219-1{fill:#7a982c;}.ab219-2{fill:#000000;}.ab219-3{fill:#db5800;}.ab219-4{fill:#e8b795;}.ab219-5{fill:#990000;}.ab219-6{fill:#ffffff;}.ab219-7{fill:#8e4717;}.ab219-8{fill:#6e12ff;}</style></defs><path class="ab219-1" d="M0,33H6V27H7V26H8V25h2V24h1V23h1V22H11V21H10v1H9V21H8V20H7V19H8V12H9V10h1V9h1V8h7V9h1v1h1v2h1v7h1v1H21v1H20v1H19V21H18v1H17v1h1v1h1v1h2v1h1v1h1v6h6V0H0Z"/><path class="ab219-2" d="M23,27H22v6h1V27Z"/><path class="ab219-3" d="M21,31h1V30H21Z"/><path class="ab219-3" d="M21,28h1V27H21Z"/><rect class="ab219-2" x="21" y="26" width="1" height="1"/><path class="ab219-2" d="M21,30V27H20v6h1V30Z"/><rect class="ab219-3" x="9" y="30" width="5" height="1"/><path class="ab219-3" d="M15,31h5V30H15Z"/><path class="ab219-3" d="M14,27H9v1H20V27H14Z"/><path class="ab219-2" d="M20,26h1V25H19v1Z"/><rect class="ab219-3" x="16" y="24" width="1" height="1"/><rect class="ab219-2" x="15" y="24" width="1" height="1"/><rect class="ab219-2" x="14" y="32" width="1" height="1"/><rect class="ab219-2" x="14" y="30" width="1" height="1"/><path class="ab219-2" d="M15,29V28H14v1Z"/><path class="ab219-2" d="M15,26V25H14v2h1Z"/><rect class="ab219-2" x="13" y="24" width="1" height="1"/><path class="ab219-4" d="M15,24h1V23H13v1h1v1h1Z"/><rect class="ab219-3" x="12" y="24" width="1" height="1"/><path class="ab219-2" d="M11,26h2V25H12V24h1V23h3v1h1v1H16v1h2V25h1V24H18V23H17V21H16v1H13V21H12v2H11v1H10v1h1Z"/><path class="ab219-2" d="M10,25H8v1h2Z"/><path class="ab219-2" d="M9,30V27H8v6H9V30Z"/><path class="ab219-3" d="M8,28V27H7v1Z"/><path class="ab219-3" d="M7,31H8V30H7Z"/><rect class="ab219-2" x="7" y="26" width="1" height="1"/><path class="ab219-2" d="M7,30V27H6v6H7V30Z"/><path class="ab219-5" d="M15,31H9v2h5V32h1v1h5V31Z"/><path class="ab219-5" d="M15,29H14V28H9v2H20V28H15Z"/><path class="ab219-5" d="M18,26H16V25H15v2h6V26H19V25H18Z"/><path class="ab219-5" d="M9,27h5V25H13v1H11V25H10v1H8v1Z"/><path class="ab219-5" d="M7,29v1H8V28H7Z"/><path class="ab219-5" d="M7,31v2H8V31Z"/><path class="ab219-5" d="M21,31v2h1V31Z"/><path class="ab219-5" d="M21,29v1h1V28H21Z"/><path class="ab219-2" d="M20,16h1V15H20Z"/><rect class="ab219-2" x="19" y="14" width="1" height="1"/><path class="ab219-4" d="M18,20V19h1V16h1V15H16V14h2V13H16V12h1V11H16V10H13v1H12v2h1v2H9v1h1v3h1v1h1v1h1v1h3V21h1V20Zm-4-4h1v1H14Zm2,3v1H13V19h3V18h1v1Z"/><rect class="ab219-4" x="11" y="13" width="1" height="1"/><path class="ab219-2" d="M19,17v2h1V16H19Z"/><rect class="ab219-2" x="18" y="19" width="1" height="1"/><rect class="ab219-2" x="17" y="20" width="1" height="1"/><rect class="ab219-2" x="11" y="20" width="1" height="1"/><rect class="ab219-2" x="10" y="19" width="1" height="1"/><path class="ab219-2" d="M10,16H9v3h1V16Z"/><path class="ab219-2" d="M9,15H8v1H9Z"/><rect class="ab219-2" x="14" y="16" width="1" height="1"/><path class="ab219-6" d="M19,15V14H18v1Z"/><path class="ab219-6" d="M12,15h1V14H12Z"/><path class="ab219-2" d="M16,15h2V14H16Z"/><path class="ab219-2" d="M12,15V14H9v1h3Z"/><path class="ab219-7" d="M16,13h2V12H16Z"/><path class="ab219-7" d="M13,14V13H12v1Z"/><path class="ab219-7" d="M12,12H11v1h1Z"/><rect class="ab219-2" x="13" y="19" width="3" height="1"/><rect class="ab219-2" x="16" y="18" width="1" height="1"/><path class="ab219-8" d="M20,17v2H19v1H18v1h1v1h1V21h1V20h1V19H21V16H20Z"/><path class="ab219-8" d="M9,14h2V12h1V11h1V10h3v1h1v1h1v2h2v1h1V12H20V10H19V9H18V8H11V9H10v1H9v2H8v3H9Z"/><path class="ab219-8" d="M10,20V19H9V16H8v3H7v1H8v1H9v1h1V21h1V20Z"/><path class="ab219-8" d="M11,21v1h1V21Z"/><path class="ab219-8" d="M17,22h1V21H17Z"/></svg>