<svg xmlns="http://www.w3.org/2000/svg" viewBox="0 0 29 33"><defs><style>polygon,rect,path{shape-rendering:crispedges;}.la170-1{fill:#db5a8e;}.la170-2{fill:#000000;}.la170-3{fill:#8c7850;}.la170-4{fill:#e0dbc6;}.la170-5{fill:#e8b795;}.la170-6{fill:#ffffff;}.la170-7{fill:#492a23;}.la170-8{fill:#00686d;}</style></defs><path class="la170-1" d="M0,33H6V27H7V26H8V25h2V24h2V21H11V20H10V19H9V18H8V12H9V10h1V9h1V8h7V9h1v1h1v5h1v1H20v3H19v1H18v1H17v3h2v1h2v1h1v1h1v6h6V0H0Z"/><path class="la170-2" d="M23,27H22v6h1V27Z"/><rect class="la170-2" x="21" y="26" width="1" height="1"/><path class="la170-3" d="M21,28v2h1V27H21Z"/><path class="la170-3" d="M21,31v2h1V31Z"/><path class="la170-2" d="M21,30V27H20v6h1V30Z"/><path class="la170-2" d="M20,26h1V25H19v1Z"/><path class="la170-3" d="M20,32V26H19V25H17V24H16V23H13v1H12v1H10v1H9v6h1v1h4V32h1v1h4V32Zm-9-3H10V28h1Zm2,2H12V30h1Zm0-4H12V26h1Zm2,2H14V28h1Zm0-4H14V24h1Zm2,6H16V30h1Zm0-4H16V26h1Zm1,2V28h1v1Z"/><path class="la170-2" d="M18,25h1V24H17v1Z"/><path class="la170-2" d="M13,23h3v1h1V21H16v1H13V21H12v3h1Z"/><path class="la170-2" d="M12,24H10v1h2Z"/><path class="la170-2" d="M10,26V25H8v1h2Z"/><path class="la170-2" d="M9,31V27H8v6H9V31Z"/><rect class="la170-2" x="7" y="26" width="1" height="1"/><path class="la170-3" d="M7,31v2H8V31Z"/><path class="la170-3" d="M7,30H8V27H7v3Z"/><path class="la170-2" d="M7,30V27H6v6H7V30Z"/><rect class="la170-4" x="10" y="28" width="1" height="1"/><rect class="la170-4" x="12" y="30" width="1" height="1"/><rect class="la170-4" x="14" y="28" width="1" height="1"/><rect class="la170-4" x="14" y="32" width="1" height="1"/><rect class="la170-4" x="12" y="26" width="1" height="1"/><rect class="la170-4" x="16" y="30" width="1" height="1"/><rect class="la170-4" x="18" y="28" width="1" height="1"/><rect class="la170-4" x="16" y="26" width="1" height="1"/><rect class="la170-4" x="14" y="24" width="1" height="1"/><path class="la170-4" d="M9,27V26H8v1Z"/><path class="la170-4" d="M19,32v1h1V32Z"/><path class="la170-4" d="M9,32v1h1V32Z"/><path class="la170-4" d="M7,31H8V30H7Z"/><path class="la170-4" d="M21,31h1V30H21Z"/><path class="la170-4" d="M20,27h1V26H20Z"/><rect class="la170-2" x="20" y="15" width="1" height="1"/><path class="la170-5" d="M13,22h3V21h1V20h1V19h1V16h1V15H16V13h1V12h2V11H18V10H16v1H14v1H13v1H11v1h2v1H9v1h1v3h1v1h1v1h1Zm1-6h1v1H14Zm-2,3V18h1v1h3v1H13V19Z"/><polygon class="la170-5" points="18 14 19 14 19 13 17 13 17 14 18 14"/><path class="la170-2" d="M19,17v2h1V16H19Z"/><rect class="la170-2" x="18" y="19" width="1" height="1"/><rect class="la170-2" x="17" y="20" width="1" height="1"/><rect class="la170-2" x="11" y="20" width="1" height="1"/><rect class="la170-2" x="10" y="19" width="1" height="1"/><path class="la170-2" d="M10,16H9v3h1V16Z"/><rect class="la170-2" x="14" y="16" width="1" height="1"/><path class="la170-6" d="M13,15V14H12v1Z"/><path class="la170-6" d="M10,15h1V14H10Z"/><path class="la170-6" d="M18,14v1h1V14Z"/><path class="la170-6" d="M16,14v1h1V14Z"/><path class="la170-2" d="M12,15V14H11v1Z"/><path class="la170-2" d="M17,14v1h1V14Z"/><path class="la170-7" d="M17,13H16v1h1Z"/><rect class="la170-7" x="17" y="12" width="2" height="1"/><rect class="la170-2" x="13" y="19" width="3" height="1"/><rect class="la170-2" x="12" y="18" width="1" height="1"/><path class="la170-8" d="M9,15h1V14h1V13h2V12h1V11h2V10h2v1h1v4h1V10H19V9H18V8H11V9H10v1H9v2H8v6H9V15Z"/></svg>