<svg xmlns="http://www.w3.org/2000/svg" viewBox="0 0 29 33"><defs><style>polygon,rect,path{shape-rendering:crispedges;}.aa259-1{fill:#b4bd09;}.aa259-2{fill:#000000;}.aa259-3{fill:#b2622b;}.aa259-4{fill:#72dd40;}.aa259-5{fill:#72dd40;}.aa259-6{fill:#ffffff;}.aa259-7{fill:#492a23;}.aa259-8{fill:#492a23;}.aa259-9{fill:#6e12ff;}</style></defs><path class="aa259-1" d="M0,33H6V27H7V26H8V25h2V24h2V21H9V20H8V19H9V18H8V13H9V11h1V10h1V9h7v1h1v1h1v1h1v6H20v1h1v1H20v1H17v3h2v1h2v1h1v1h1v6h6V0H0Z"/><path class="aa259-2" d="M23,31V27H22v6h1Z"/><rect class="aa259-2" x="21" y="26" width="1" height="1"/><path class="aa259-3" d="M22,31V27H21v6h1Z"/><rect class="aa259-3" x="20" y="26" width="1" height="1"/><path class="aa259-2" d="M21,31V27H20v6h1Z"/><path class="aa259-2" d="M20,26h1V25H19v1Z"/><rect class="aa259-4" x="18" y="32" width="1" height="1"/><path class="aa259-4" d="M17,31V30h1V29h1v1h1V26H19V25H18v1H17v1H16v1H13V27H12V26H11V25H10v1H9v4h1V29h1v1h1v3h1V29h2v1h1v2H15v1h2Z"/><path class="aa259-4" d="M14,31v1h1V30H14Z"/><rect class="aa259-4" x="10" y="32" width="1" height="1"/><rect class="aa259-4" x="10" y="30" width="1" height="1"/><rect class="aa259-4" x="18" y="30" width="1" height="1"/><path class="aa259-2" d="M17,26h1V25h1V24H17Z"/><rect class="aa259-2" x="16" y="26" width="1" height="1"/><path class="aa259-2" d="M14,27H13v1h3V27Z"/><path class="aa259-2" d="M13,23h3v1h1V21H16v1H13V21H12v3h1Z"/><path class="aa259-3" d="M12,26h1v1h3V26h1V24H16V23H13v1H12Z"/><rect class="aa259-2" x="12" y="26" width="1" height="1"/><path class="aa259-2" d="M11,26h1V24H10v1h1Z"/><path class="aa259-2" d="M10,26V25H8v1Z"/><rect class="aa259-3" x="8" y="26" width="1" height="1"/><path class="aa259-2" d="M9,31V27H8v6H9Z"/><rect class="aa259-2" x="7" y="26" width="1" height="1"/><path class="aa259-3" d="M8,31V27H7v6H8Z"/><path class="aa259-2" d="M7,31V27H6v6H7Z"/><path class="aa259-5" d="M20,31V30H19v1H18V30H17v3h1V32h1v1h1Z"/><rect class="aa259-5" x="18" y="29" width="1" height="1"/><path class="aa259-5" d="M15,32h1V30H15Z"/><path class="aa259-5" d="M14,32V30h1V29H13v4h2V32Z"/><path class="aa259-5" d="M12,31V30H11v1H10V30H9v3h1V32h1v1h1Z"/><rect class="aa259-5" x="10" y="29" width="1" height="1"/><rect class="aa259-2" x="19" y="14" width="1" height="1"/><rect class="aa259-3" x="9" y="15" width="1" height="1"/><rect class="aa259-3" x="12" y="12" width="1" height="1"/><rect class="aa259-3" x="11" y="13" width="1" height="1"/><rect class="aa259-3" x="17" y="13" width="1" height="1"/><rect class="aa259-3" x="17" y="11" width="1" height="1"/><path class="aa259-3" d="M13,22h3V21h1V19h1V15H16v1H15v1H14V16h1V14h1V12H15V11H14v4H13v2H12V15H11v4h1v2h1Zm0-3h3v1H13Z"/><rect class="aa259-3" x="19" y="15" width="1" height="1"/><rect class="aa259-2" x="17" y="20" width="1" height="1"/><rect class="aa259-2" x="11" y="20" width="1" height="1"/><rect class="aa259-2" x="14" y="16" width="1" height="1"/><rect class="aa259-6" x="12" y="14" width="1" height="1"/><rect class="aa259-6" x="16" y="14" width="1" height="1"/><rect class="aa259-2" x="11" y="14" width="1" height="1"/><rect class="aa259-2" x="17" y="14" width="1" height="1"/><rect class="aa259-7" x="17" y="12" width="1" height="1"/><rect class="aa259-7" x="12" y="13" width="1" height="1"/><rect class="aa259-7" x="11" y="12" width="1" height="1"/><rect class="aa259-8" x="20" y="19" width="1" height="1"/><path class="aa259-8" d="M20,16H19v2h1Z"/><path class="aa259-8" d="M19,19V18H18v1H17v1h1v1h2V20H19Z"/><rect class="aa259-8" x="8" y="19" width="1" height="1"/><path class="aa259-8" d="M12,20V19H11V18H10v2H9v1h2V20Z"/><path class="aa259-8" d="M10,17V16H9v2h1Z"/><rect class="aa259-2" x="13" y="19" width="3" height="1"/><path class="aa259-9" d="M9,16V15h1v3h1V12h2v3h1V11h1v1h1v2h1V11h1v7h1V14h1v4h1V12H20V11H19V10H18V9H11v1H10v1H9v2H8v5H9Z"/><path class="aa259-9" d="M19,19v1h1V18H19Z"/><path class="aa259-9" d="M15,14v2h1V14Z"/><path class="aa259-9" d="M12,16v1h1V15H12Z"/><path class="aa259-9" d="M10,19V18H9v2h1Z"/></svg>