<svg xmlns="http://www.w3.org/2000/svg" viewBox="0 0 29 33"><defs><style>polygon,rect,path{shape-rendering:crispedges;}.ja166-1{fill:#397d98;}.ja166-2{fill:#000000;}.ja166-3{fill:#e2d93b;}.ja166-4{fill:#ffffff;}.ja166-5{fill:#ce8452;}.ja166-6{fill:#ffffff;}.ja166-7{fill:#004a77;}.ja166-8{fill:#004a77;}.ja166-9{fill:#5a2de2;}.ja166-10{fill:#455054;}.ja166-11{fill:#ff1f4a;}.ja166-12{fill:#002b4f;}</style></defs><path class="ja166-1" d="M0,33H8V32H6V31H5V22H6V21H7V20H5v1H2V17H5V16H8V15H9V11h1V10h1V9h7v1h1v1h1v4h1v1H20v3H19v1H18v1H17v3h2v1h2v1h1v1h1v6h6V0H0Z"/><path class="ja166-1" d="M8,18v4H9v2H8v1h2V24h2V21H11V20H10V19H9V16H8v2Z"/><path class="ja166-2" d="M23,27H22v6h1V27Z"/><rect class="ja166-2" x="21" y="26" width="1" height="1"/><path class="ja166-3" d="M21,31h1V30H21Z"/><path class="ja166-3" d="M21,28h1V27H21Z"/><path class="ja166-2" d="M21,30V27H20v6h1V30Z"/><path class="ja166-2" d="M20,26h1V25H19v1Z"/><path class="ja166-3" d="M9,27v1H20V27H9Z"/><path class="ja166-3" d="M13,24H12v1h5V24H13Z"/><path class="ja166-3" d="M9,31H20V30H9Z"/><path class="ja166-2" d="M18,25h1V24H17v1Z"/><path class="ja166-2" d="M13,23V22H12v2h1Z"/><path class="ja166-2" d="M12,24H10v1h2Z"/><path class="ja166-2" d="M9,30V27H8V26h2V25H8V24H7v7H6v1H8v1H9V30Z"/><path class="ja166-3" d="M6,28H7V27H6Z"/><path class="ja166-3" d="M6,25H7V24H6Z"/><path class="ja166-3" d="M7,30H6v1H7Z"/><path class="ja166-2" d="M6,29V22H5v9H6V29Z"/><path class="ja166-4" d="M9,31v2H20V31Z"/><path class="ja166-4" d="M9,29v1H20V28H9Z"/><path class="ja166-4" d="M17,25H10v1H8v1H21V26H19V25H17Z"/><path class="ja166-4" d="M16,24V23H13v1Z"/><path class="ja166-4" d="M6,29v1H7V28H6Z"/><path class="ja166-4" d="M6,26v1H7V25H6Z"/><path class="ja166-4" d="M21,31v2h1V31Z"/><path class="ja166-4" d="M21,29v1h1V28H21Z"/><rect class="ja166-2" x="20" y="15" width="1" height="1"/><path class="ja166-2" d="M19,13v2h1V12H19Z"/><path class="ja166-5" d="M10,14h2V13H10Z"/><rect class="ja166-5" x="15" y="20" width="1" height="1"/><rect class="ja166-5" x="13" y="20" width="1" height="1"/><rect class="ja166-5" x="10" y="11" width="1" height="1"/><rect class="ja166-5" x="11" y="10" width="1" height="1"/><rect class="ja166-5" x="17" y="10" width="1" height="1"/><path class="ja166-5" d="M10,16v2h1v1h1V18h5v1h1V18h1V16h1V15H16V14h2V13H16V12h1V11H16V10H13v1H12v2h1v2H9v1Zm4,0h1v1H14Z"/><path class="ja166-5" d="M18,12v1h1V11H18Z"/><path class="ja166-2" d="M19,17h1V16H19Z"/><path class="ja166-2" d="M16,23v1h1V22H16Z"/><path class="ja166-2" d="M10,16H9v1h1Z"/><rect class="ja166-2" x="8" y="15" width="1" height="1"/><rect class="ja166-2" x="14" y="16" width="1" height="1"/><path class="ja166-6" d="M18,14v1h1V14Z"/><path class="ja166-6" d="M12,15h1V14H12Z"/><path class="ja166-2" d="M17,14H16v1h2V14Z"/><path class="ja166-2" d="M12,15V14H10V12H9v3h3Z"/><path class="ja166-7" d="M19,13H18v1h1Z"/><polygon class="ja166-7" points="17 12 16 12 16 13 18 13 18 12 17 12"/><path class="ja166-7" d="M13,14V13H12v1Z"/><path class="ja166-7" d="M10,12v1h2V12H10Z"/><path class="ja166-8" d="M19,18H18v1H16v2H15V20H14v1H13V19H11V18H10V17H9v2h1v1h1v1h1v1h1v1h3V22h1V21h1V20h1V19h1V17H19Z"/><path class="ja166-2" d="M13,18H12v1h1Z"/><path class="ja166-2" d="M17,19V18H16v1Z"/><path class="ja166-2" d="M13,19v1h3V19H15V18H14v1Z"/><path class="ja166-6" d="M14,19V18H13v1Z"/><path class="ja166-6" d="M16,19V18H15v1Z"/><path class="ja166-9" d="M20,12V11H19v1Z"/><rect class="ja166-9" x="18" y="10" width="1" height="1"/><path class="ja166-9" d="M12,11h1V10h3v1h1V10h1V9H11v1h1Z"/><rect class="ja166-9" x="17" y="11" width="1" height="1"/><path class="ja166-9" d="M11,12h1V11H11Z"/><rect class="ja166-9" x="10" y="10" width="1" height="1"/><path class="ja166-9" d="M10,11H9v1h1Z"/><path class="ja166-5" d="M7,24H8V22H6v2Z"/><path class="ja166-10" d="M8,22V20H7v2Z"/><path class="ja166-2" d="M7,21H6v1H7Z"/><path class="ja166-2" d="M9,22H8v2H9Z"/><path class="ja166-11" d="M5,17H2v1H5Z"/><path class="ja166-11" d="M8,16H5v1H8Z"/><path class="ja166-11" d="M2,21H5V20H2Z"/><path class="ja166-11" d="M8,19H5v1H8Z"/><path class="ja166-6" d="M5,19V18H2v1H5Z"/><path class="ja166-6" d="M6,18H8V17H5v1Z"/><path class="ja166-12" d="M6,18H5v1H8V18Z"/><path class="ja166-12" d="M4,19H2v1H5V19Z"/></svg>