<svg xmlns="http://www.w3.org/2000/svg" viewBox="0 0 29 33"><defs><style>polygon,rect,path{shape-rendering:crispedges;}.ra41-1{fill:#397d98;}.ra41-2{fill:#000000;}.ra41-3{fill:#ff1d99;}.ra41-4{fill:#ce8452;}.ra41-5{fill:#c6e5e4;}.ra41-6{fill:#ffffff;}.ra41-7{fill:#8e4717;}.ra41-8{fill:#0068ff;}.ra41-9{fill:#fafafa;}</style></defs><path class="ra41-1" d="M0,33H6V28H5V27H4V26H3V22H4V21H5V20H9v1h1v1h1V20H10V19H9V18H8V12H9V10h1V9h1V8h7V9h1v1h1v5h1v1H20v3H19v1H18v2h1v1H18v1h1v1h2v1h1v1h1v6h6V0H0Z"/><rect class="ra41-1" x="10" y="23" width="1" height="1"/><path class="ra41-2" d="M23,27H22v6h1V27Z"/><path class="ra41-3" d="M22,27H21v6h1V27Z"/><rect class="ra41-2" x="21" y="26" width="1" height="1"/><path class="ra41-2" d="M21,27H20v6h1V27Z"/><path class="ra41-3" d="M10,28h1v1h1V25h1V24H11v1H10v2H9v2h1Z"/><path class="ra41-3" d="M19,32V31H18v1H17V30H16v1H15v1H13V30H12v2H11V31H10v1H9v1H20V32Z"/><rect class="ra41-3" x="10" y="29" width="1" height="1"/><path class="ra41-3" d="M16,25h1v4h1V28h1v1h1V27h1V26H19V25H18V24H16Z"/><rect class="ra41-3" x="18" y="29" width="1" height="1"/><path class="ra41-2" d="M20,26h1V25H19v1Z"/><rect class="ra41-2" x="18" y="24" width="1" height="1"/><rect class="ra41-2" x="18" y="22" width="1" height="1"/><rect class="ra41-3" x="17" y="22" width="1" height="1"/><path class="ra41-2" d="M14,25h2V24H13v1Z"/><path class="ra41-4" d="M16,24V23H13v1h3Z"/><rect class="ra41-3" x="11" y="22" width="1" height="1"/><rect class="ra41-2" x="10" y="22" width="1" height="1"/><path class="ra41-2" d="M9,31V27H5v1H6v5H7V28H8v5H9V31Z"/><path class="ra41-3" d="M8,28H7v5H8V28Z"/><path class="ra41-3" d="M14,29v2h1V29Z"/><path class="ra41-3" d="M13,25v3h2v1h1V25H13Z"/><path class="ra41-5" d="M19,30H18V29H17v3h1V31h1v1h1V29H19Z"/><rect class="ra41-5" x="18" y="28" width="1" height="1"/><path class="ra41-5" d="M15,29v2h1V29Z"/><path class="ra41-5" d="M14,30V29h1V28H13v4h2V31H14Z"/><path class="ra41-5" d="M11,29v1H10V29H9v3h1V31h1v1h1V29Z"/><rect class="ra41-5" x="10" y="28" width="1" height="1"/><path class="ra41-2" d="M13,25H12v5h1V25Z"/><path class="ra41-2" d="M17,28V25H16v5h1V28Z"/><rect class="ra41-2" x="20" y="15" width="1" height="1"/><path class="ra41-4" d="M12,21h1v1h3V21h1V20h1V19h1V16H16V13h1V12h2V11H18V10H16v1H14v1H13v1H11v1h2v2H10v3h1v1h1Zm2-5h1v1H14Zm-2,2h1v1h3v1H13V19H12Z"/><rect class="ra41-4" x="19" y="15" width="1" height="1"/><polygon class="ra41-4" points="18 14 19 14 19 13 17 13 17 14 18 14"/><rect class="ra41-4" x="9" y="15" width="1" height="1"/><path class="ra41-2" d="M19,17v2h1V16H19Z"/><rect class="ra41-2" x="18" y="19" width="1" height="1"/><path class="ra41-2" d="M12,23H11v1h2V23h3v1h2V23H17V22h1V20H17v1H16v1H13V21H12V20H11v2h1Z"/><rect class="ra41-2" x="10" y="19" width="1" height="1"/><path class="ra41-2" d="M10,16H9v3h1V16Z"/><rect class="ra41-2" x="14" y="16" width="1" height="1"/><path class="ra41-6" d="M10,15v1h1V14H10Z"/><path class="ra41-6" d="M13,16V14H12v2Z"/><path class="ra41-6" d="M16,14v2h1V14Z"/><path class="ra41-6" d="M19,14H18v2h1V14Z"/><path class="ra41-2" d="M12,16V14H11v2Z"/><path class="ra41-2" d="M17,14v2h1V14Z"/><path class="ra41-7" d="M17,13H16v1h1Z"/><rect class="ra41-7" x="17" y="12" width="2" height="1"/><rect class="ra41-2" x="13" y="19" width="3" height="1"/><rect class="ra41-2" x="12" y="18" width="1" height="1"/><path class="ra41-8" d="M9,15h1V14h1V13h2V12h1V11h2V10h2v1h1v4h1V10H19V9H18V8H11V9H10v1H9v2H8v6H9V15Z"/><rect class="ra41-9" x="5" y="23" width="1" height="1"/><rect class="ra41-9" x="8" y="23" width="1" height="1"/><path class="ra41-4" d="M9,27h1V26H9V24H7V23H9V21H7v1H6v2H4v2H5V25H8v1H5v1H9Z"/><path class="ra41-2" d="M8,26V25H5v1H8Z"/><path class="ra41-2" d="M7,23v1H8V23Z"/><path class="ra41-2" d="M4,23v1H5V23Z"/><rect class="ra41-2" x="4" y="26" width="1" height="1"/><path class="ra41-2" d="M3,25v1H4V25Z"/><path class="ra41-8" d="M9,24v1h1V21H9v3Z"/><path class="ra41-8" d="M4,24V23H6V22H7V21H9V20H5v1H4v1H3v3H4Z"/><path class="ra41-2" d="M11,24H10v1h1Z"/><path class="ra41-2" d="M9,25v1h1V25Z"/></svg>