<svg xmlns="http://www.w3.org/2000/svg" viewBox="0 0 29 33"><defs><style>polygon,rect,path{shape-rendering:crispedges;}.ab266-1{fill:#397d98;}.ab266-2{fill:#000000;}.ab266-3{fill:#d8be00;}.ab266-4{fill:#e8b795;}.ab266-5{fill:#db5800;}.ab266-6{fill:#ffffff;}.ab266-7{fill:#6f7032;}.ab266-8{fill:#db5800;}</style></defs><path class="ab266-1" d="M0,33H6V27H7V26H8V25h2V24H9V16H8V15H9V10h1V9h1V8h7V9h1v1h1v5h1v1H20v6H19v3h2v1h1v1h1v6h6V0H0Z"/><path class="ab266-2" d="M23,27H22v6h1V27Z"/><path class="ab266-3" d="M21,28h1V27H21Z"/><path class="ab266-3" d="M21,31v1h1V30H21Z"/><rect class="ab266-2" x="21" y="26" width="1" height="1"/><path class="ab266-2" d="M21,31V27H20v6h1V31Z"/><path class="ab266-3" d="M18,26v2h1v1h1V27H19V25H18Z"/><path class="ab266-3" d="M14,31H13V30H12V28H11V27H10V26H9v2h1v1h1v2h1v1h1v1h1V31Z"/><path class="ab266-3" d="M13,29h1V27H13V26H12v2h1Z"/><path class="ab266-3" d="M10,31V30H9v2h1v1h1V31Z"/><path class="ab266-3" d="M16,31V30H15v2h1v1h1V31Z"/><rect class="ab266-3" x="14" y="29" width="1" height="1"/><path class="ab266-3" d="M19,31V30H18V28H17V27H16V25H15v3h1v1h1v2h1v1h1v1h1V31Z"/><path class="ab266-2" d="M20,26h1V25H19v1Z"/><rect class="ab266-3" x="16" y="24" width="1" height="1"/><path class="ab266-2" d="M17,25H16v1h1Z"/><rect class="ab266-2" x="15" y="24" width="1" height="1"/><path class="ab266-2" d="M14,32v1h1V32Z"/><path class="ab266-2" d="M14,31h1V30H14Z"/><path class="ab266-2" d="M14,29h1V28H14Z"/><path class="ab266-2" d="M14,26v1h1V25H14Z"/><rect class="ab266-2" x="13" y="24" width="1" height="1"/><path class="ab266-4" d="M16,24V23H13v1h1v1h1V24Z"/><path class="ab266-2" d="M13,26V25H11v1h2Z"/><path class="ab266-2" d="M13,23h3v1h1V21H16v1H13V21H12v3h1Z"/><path class="ab266-2" d="M10,26V25H8v1h2Z"/><path class="ab266-2" d="M9,31V27H8v6H9V31Z"/><path class="ab266-3" d="M8,29V27H7v2Z"/><path class="ab266-3" d="M7,31v2H8V31Z"/><rect class="ab266-2" x="7" y="26" width="1" height="1"/><path class="ab266-2" d="M7,30V27H6v6H7V30Z"/><path class="ab266-5" d="M21,29v1h1V28H21Z"/><path class="ab266-5" d="M21,32v1h1V32Z"/><path class="ab266-5" d="M19,26v1h2V26H19Z"/><path class="ab266-5" d="M19,28H18v2h1v1h1V29H19Z"/><path class="ab266-5" d="M17,26H16v1h1v1h1V26Z"/><path class="ab266-5" d="M18,32V31H17v2h2V32Z"/><path class="ab266-5" d="M15,30h1v1h1V29H16V28H15v2Z"/><path class="ab266-5" d="M14,28h1V27H14Z"/><polygon class="ab266-5" points="13 26 13 27 14 27 14 26 14 25 13 25 13 26"/><path class="ab266-5" d="M14,32h1V31H14Z"/><rect class="ab266-5" x="15" y="32" width="1" height="1"/><path class="ab266-5" d="M14,29H13V28H12v2h1v1h1V29Z"/><path class="ab266-5" d="M13,24H12v1h1Z"/><path class="ab266-5" d="M11,26v2h1V26Z"/><path class="ab266-5" d="M12,32V31H11v2h2V32Z"/><path class="ab266-5" d="M10,30v1h1V29H10V28H9v2Z"/><path class="ab266-5" d="M9,32v1h1V32Z"/><path class="ab266-5" d="M9,27V26H8v1Z"/><path class="ab266-5" d="M7,30v1H8V29H7Z"/><rect class="ab266-2" x="20" y="15" width="1" height="1"/><path class="ab266-4" d="M10,17v2h1v1h1v1h1v1h3V21h1V20h1V19h1V15H16V14h2V13H16V12h1V11H15V10H12v1H11v1h2v1H11v1h2v1H9v1h1Zm4-1h1v1H14Zm-1,3h3V18h1v1H16v1H13Z"/><path class="ab266-2" d="M19,17v2h1V16H19Z"/><rect class="ab266-2" x="18" y="19" width="1" height="1"/><rect class="ab266-2" x="17" y="20" width="1" height="1"/><rect class="ab266-2" x="11" y="20" width="1" height="1"/><rect class="ab266-2" x="10" y="19" width="1" height="1"/><path class="ab266-2" d="M10,18V16H9v3h1Z"/><rect class="ab266-2" x="8" y="15" width="1" height="1"/><rect class="ab266-2" x="14" y="16" width="1" height="1"/><path class="ab266-6" d="M13,15V14H12v1Z"/><path class="ab266-6" d="M10,15h1V14H10Z"/><path class="ab266-6" d="M18,14v1h1V14Z"/><path class="ab266-6" d="M16,14v1h1V14Z"/><path class="ab266-2" d="M12,15V14H11v1Z"/><path class="ab266-2" d="M17,14v1h1V14Z"/><polygon class="ab266-7" points="17 12 16 12 16 13 18 13 18 12 17 12"/><rect class="ab266-7" x="10" y="13" width="1" height="1"/><rect class="ab266-7" x="11" y="12" width="2" height="1"/><rect class="ab266-2" x="13" y="19" width="3" height="1"/><rect class="ab266-2" x="16" y="18" width="1" height="1"/><path class="ab266-8" d="M10,27h1V25h1V21H11V20H10V19H9v5h1v3Z"/><path class="ab266-8" d="M10,14V13h1V11h1V10h3v1h2v1h1v2h1v2h1V10H19V9H18V8H11V9H10v1H9v5h1Z"/><path class="ab266-8" d="M19,20H18v1H17v5h1V25h1V22h1V19H19Z"/></svg>