<svg xmlns="http://www.w3.org/2000/svg" viewBox="0 0 29 33"><defs><style>polygon,rect,path{shape-rendering:crispedges;}.ba68-1{fill:#db5a8e;}.ba68-2{fill:#000000;}.ba68-3{fill:#b2622b;}.ba68-4{fill:#508e91;}.ba68-5{fill:#00774c;}.ba68-6{fill:#00774c;}.ba68-7{fill:#c8a715;}.ba68-8{fill:#4922aa;}.ba68-9{fill:#455054;}.ba68-10{fill:#ffffff;}.ba68-11{fill:#900;}</style></defs><path class="ba68-1" d="M0,33H8V32H6V31H5V22H6V21H7V20H5v1H2V17H5V16H8V15H9V11h1V10h1V7h1V6H11V5h2V6h2V7h1V9h2v1h1v1h1v4h1v1H20v4H19v5h2v1h1v1h1v6h6V0H0Z"/><path class="ba68-1" d="M8,19v3H9v2H8v1h2V20H9V16H8v3Z"/><path class="ba68-1" d="M18,24V22H17v2Z"/><path class="ba68-1" d="M11,24h1V22H11v2Z"/><path class="ba68-2" d="M23,27H22v6h1V27Z"/><rect class="ba68-2" x="21" y="26" width="1" height="1"/><path class="ba68-3" d="M22,27H21v6h1V27Z"/><rect class="ba68-3" x="20" y="26" width="1" height="1"/><path class="ba68-2" d="M21,27H20v6h1V27Z"/><path class="ba68-2" d="M20,26h1V25H19v1Z"/><path class="ba68-4" d="M20,27V26H19V25H18v1H17v1H16v1H13V27H12V26H11V25H10v1H9v7H20V27Z"/><path class="ba68-2" d="M17,24v2h1V25h1V24H17Z"/><rect class="ba68-2" x="16" y="26" width="1" height="1"/><path class="ba68-2" d="M13,27v1h3V27H13Z"/><path class="ba68-3" d="M16,25V23H13v2H12v1h1v1h3V26h1V25Z"/><rect class="ba68-2" x="12" y="26" width="1" height="1"/><path class="ba68-2" d="M12,24H10v1h1v1h1V24Z"/><path class="ba68-3" d="M8,27H9V26H8Z"/><path class="ba68-2" d="M9,27H8V26h2V25H8V24H7v7H6v1H8v1H9V27Z"/><path class="ba68-3" d="M7,30V24H8V22H6v9H7Z"/><path class="ba68-2" d="M6,22H5v9H6V22Z"/><rect class="ba68-2" x="20" y="15" width="1" height="1"/><rect class="ba68-3" x="19" y="15" width="1" height="1"/><polygon class="ba68-3" points="13 21 14 21 14 22 15 22 15 21 16 21 16 20 13 20 13 21"/><rect class="ba68-3" x="14" y="15" width="1" height="1"/><path class="ba68-3" d="M13,12v1H10v1h6V13h3V11H18V10H16v1H14V10H11v1H10v1Z"/><path class="ba68-3" d="M10,18h1v1h1V18h2v1h1V18h2v1h1V18h1V16H18v1H16V16H15v1H14V16H13v1H11V16H10v2Z"/><rect class="ba68-3" x="9" y="15" width="1" height="1"/><path class="ba68-2" d="M19,17h1V16H19Z"/><rect class="ba68-2" x="18" y="10" width="1" height="1"/><path class="ba68-2" d="M17,10h1V9H16v1Z"/><path class="ba68-2" d="M13,9H11v1h2Z"/><rect class="ba68-2" x="10" y="10" width="1" height="1"/><path class="ba68-2" d="M10,16H9v1h1Z"/><rect class="ba68-2" x="8" y="15" width="1" height="1"/><rect class="ba68-2" x="14" y="16" width="1" height="1"/><rect class="ba68-5" x="10" y="12" width="3" height="1"/><path class="ba68-5" d="M16,14h3V13H16Z"/><path class="ba68-6" d="M15,18v1h1V18Z"/><path class="ba68-6" d="M19,18H18v1H16v2H15v1H14V21H13V19h1V18H12v1H11V18H10V17H9v3h1v2h2v1h5V22h2V20h1V17H19Z"/><path class="ba68-7" d="M18,23h1V22H18Z"/><path class="ba68-6" d="M18,24h1V23H18Z"/><path class="ba68-7" d="M17,24V23H16v1Z"/><path class="ba68-6" d="M16,25h1V24H16Z"/><path class="ba68-7" d="M13,24V23H12v1Z"/><path class="ba68-6" d="M12,25h1V24H12Z"/><path class="ba68-7" d="M11,22H10v1h1Z"/><path class="ba68-6" d="M11,23H10v1h1Z"/><path class="ba68-2" d="M14,19H13v1h3V19H14Z"/><path class="ba68-2" d="M16,18v1h1V18Z"/><path class="ba68-8" d="M13,10h1v1h2V7H15V6H13V5H11V6h1V7H11V9h2Z"/><path class="ba68-2" d="M10,16h1v1h2V16h1V15h1v1h1v1h2V16h1V15h1V11H19v3H10V11H9v4h1Z"/><path class="ba68-9" d="M8,22V20H7v2Z"/><path class="ba68-10" d="M4,19V18H5V17H2v4H5V20H4Z"/><path class="ba68-10" d="M8,19V16H5v1H6v2H5v1H8Z"/><path class="ba68-2" d="M7,21H6v1H7Z"/><path class="ba68-2" d="M9,22H8v2H9Z"/><path class="ba68-11" d="M6,19V17H5v1H4v2H5V19Z"/><rect class="ba68-8" x="10" y="9" width="1" height="1"></rect></svg>