<svg xmlns="http://www.w3.org/2000/svg" viewBox="0 0 29 33"><defs><style>polygon,rect,path{shape-rendering:crispedges;}.ja108-1{fill:#7a982c;}.ja108-2{fill:#000000;}.ja108-3{fill:#508e91;}.ja108-4{fill:#a56e49;}.ja108-5{fill:#ffffff;}.ja108-6{fill:#8e703c;}.ja108-7{fill:#8e703c;}.ja108-8{fill:#00686d;}</style></defs><path class="ja108-1" d="M0,33H6V27H7V26H8V25h2V24h2V21H11V20H10V19H9V16H8V15H9V11h1V10h1V9h2V7h1V6h2V5h2V6H17V7h1V9h1v2h1v4h1v1H20v3H19v1H18v1H17v3h2v1h2v1h1v1h1v6h6V0H0Z"/><path class="ja108-2" d="M23,27H22v6h1V27Z"/><rect class="ja108-2" x="21" y="26" width="1" height="1"/><path class="ja108-3" d="M22,27H21v6h1V27Z"/><path class="ja108-2" d="M21,27H20v6h1V27Z"/><path class="ja108-2" d="M20,26h1V25H19v1Z"/><path class="ja108-3" d="M20,27h1V26H19V25H17V24H16V23H13v1H12v1H10v1H8v1H9v6H20V27Z"/><path class="ja108-2" d="M18,25h1V24H17v1Z"/><path class="ja108-2" d="M13,23h3v1h1V21H16v1H13V21H12v3h1Z"/><path class="ja108-2" d="M12,24H10v1h2Z"/><path class="ja108-2" d="M10,25H8v1h2Z"/><path class="ja108-2" d="M9,27H8v6H9V27Z"/><rect class="ja108-2" x="7" y="26" width="1" height="1"/><path class="ja108-3" d="M8,27H7v6H8V27Z"/><path class="ja108-2" d="M7,27H6v6H7V27Z"/><rect class="ja108-2" x="20" y="15" width="1" height="1"/><path class="ja108-2" d="M19,13v2h1V11H19v2Z"/><path class="ja108-4" d="M18,14h1V13H17v1Z"/><path class="ja108-4" d="M12,19V18h5v1h2V16h1V15H16V13h1V12h2V11H18V10H15v1H13V10H11v1H10v2h1V12h2v1H11v1h2v1H9v1h1v3h2Zm2-3h1v1H14Z"/><rect class="ja108-4" x="16" y="19" width="1" height="1"/><rect class="ja108-4" x="15" y="20" width="1" height="1"/><rect class="ja108-4" x="12" y="19" width="1" height="1"/><rect class="ja108-4" x="13" y="20" width="1" height="1"/><path class="ja108-2" d="M19,17v2h1V16H19Z"/><path class="ja108-2" d="M18,11h1V10H18Z"/><path class="ja108-2" d="M18,20h1V19H18Z"/><rect class="ja108-2" x="17" y="20" width="1" height="1"/><path class="ja108-2" d="M13,9H11v1h2Z"/><path class="ja108-2" d="M16,10h2V9H16Z"/><rect class="ja108-2" x="11" y="20" width="1" height="1"/><rect class="ja108-2" x="10" y="10" width="1" height="1"/><path class="ja108-2" d="M10,19v1h1V19Z"/><path class="ja108-2" d="M10,14V11H9v4h1Z"/><path class="ja108-2" d="M10,16H9v3h1V16Z"/><rect class="ja108-2" x="8" y="15" width="1" height="1"/><rect class="ja108-2" x="14" y="16" width="1" height="1"/><path class="ja108-5" d="M13,15V14H12v1Z"/><path class="ja108-5" d="M10,15h1V14H10Z"/><path class="ja108-5" d="M18,14v1h1V14Z"/><path class="ja108-5" d="M16,14v1h1V14Z"/><path class="ja108-2" d="M12,15V14H11v1Z"/><path class="ja108-2" d="M17,14v1h1V14Z"/><path class="ja108-6" d="M11,14V13H10v1Z"/><rect class="ja108-6" x="11" y="12" width="2" height="1"/><path class="ja108-6" d="M17,13H16v1h1Z"/><path class="ja108-6" d="M19,12H17v1h2Z"/><path class="ja108-7" d="M17,19v1h1V19Z"/><rect class="ja108-7" x="16" y="20" width="1" height="1"/><path class="ja108-7" d="M15,20H14v1H13v1h3V21H15Z"/><path class="ja108-7" d="M14,19h3V18H13v1Z"/><rect class="ja108-7" x="12" y="20" width="1" height="1"/><path class="ja108-7" d="M12,19H11v1h1Z"/><path class="ja108-2" d="M15,20h1V19H13v1h2Z"/><path class="ja108-2" d="M13,18H12v1h1Z"/><path class="ja108-8" d="M13,11h2V10h1V9h2V7H17V6h1V5H16V6H14V7H13v4Z"/><path class="ja108-8" d="M19,10V9H18v1Z"/><rect class="ja108-8" x="18" y="9" width="1" height="1"></rect></svg>