<svg xmlns="http://www.w3.org/2000/svg" viewBox="0 0 29 33"><defs><style>polygon,rect,path{shape-rendering:crispedges;}.qa51-1{fill:#29834f;}.qa51-2{fill:#000000;}.qa51-3{fill:#ff791f;}.qa51-4{fill:#e8b795;}.qa51-5{fill:#ff791f;}.qa51-6{fill:#ffffff;}.qa51-7{fill:#cc3232;}.qa51-8{fill:#508e91;}.qa51-9{fill:#c9a717;}</style></defs><path class="qa51-1" d="M0,33H6V27H7V26H8V25h2V24h1V23H10V22h1V21H10V20H9V16H8V13H4V12H6V11H8V10h2V9h1V8h1V7h1V6h1V5h1V6h1V7h1V8h1V9h1v1h2v1h2v1h2v1H21v3H20v4H19v1H18v1h1v1H18v1h1v1h2v1h1v1h1v6h6V0H0Z"/><path class="qa51-2" d="M23,27H22v6h1V27Z"/><path class="qa51-3" d="M22,27H21v6h1V27Z"/><rect class="qa51-2" x="21" y="26" width="1" height="1"/><path class="qa51-2" d="M21,27H20v6h1V27Z"/><path class="qa51-3" d="M16,25h1v4h1V28h1v1h1V27h1V26H19V25H18V24H16Z"/><path class="qa51-3" d="M9,27v2h1V28h1v1h1V25h1V24H11v1H10v1H8v1Z"/><rect class="qa51-3" x="18" y="29" width="1" height="1"/><rect class="qa51-3" x="10" y="29" width="1" height="1"/><path class="qa51-3" d="M19,32V31H18v1H17V30H16v1H15v1H13V30H12v2H11V31H10v1H9v1H20V32Z"/><path class="qa51-2" d="M20,26h1V25H19v1Z"/><rect class="qa51-2" x="18" y="24" width="1" height="1"/><rect class="qa51-2" x="18" y="22" width="1" height="1"/><rect class="qa51-3" x="17" y="22" width="1" height="1"/><path class="qa51-2" d="M16,25V24H13v1h3Z"/><path class="qa51-4" d="M16,24V23H13v1h3Z"/><path class="qa51-2" d="M13,23h3v1h2V23H17V22h1V21H16v1H13V21H11v1h1v1H11v1h2Z"/><rect class="qa51-3" x="11" y="22" width="1" height="1"/><rect class="qa51-2" x="10" y="24" width="1" height="1"/><rect class="qa51-2" x="10" y="22" width="1" height="1"/><path class="qa51-2" d="M10,25H8v1h2Z"/><path class="qa51-2" d="M9,31V27H8v6H9V31Z"/><path class="qa51-3" d="M8,27H7v6H8V27Z"/><rect class="qa51-2" x="7" y="26" width="1" height="1"/><path class="qa51-2" d="M7,27H6v6H7V27Z"/><path class="qa51-3" d="M13,28h2v1h1V25H13v3Z"/><path class="qa51-3" d="M14,29v2h1V29Z"/><path class="qa51-5" d="M19,30H18V29H17v3h1V31h1v1h1V29H19Z"/><rect class="qa51-5" x="18" y="28" width="1" height="1"/><path class="qa51-5" d="M15,29v2h1V29Z"/><path class="qa51-5" d="M14,30V29h1V28H13v4h2V31H14Z"/><path class="qa51-5" d="M11,29v1H10V29H9v3h1V31h1v1h1V29Z"/><rect class="qa51-5" x="10" y="28" width="1" height="1"/><path class="qa51-2" d="M13,27V25H12v5h1V27Z"/><path class="qa51-2" d="M17,28V25H16v5h1V28Z"/><path class="qa51-2" d="M20,16h1V15H20Z"/><path class="qa51-4" d="M18,20V18h1V17H16V16H15v1H14V16H13v1H10v1h1v2h1v1h1v1h3V21h1V20Zm-2-1v1H13V19h3V18h1v1Z"/><path class="qa51-4" d="M13,16V15H10v1h3Z"/><rect class="qa51-4" x="14" y="15" width="1" height="1"/><path class="qa51-4" d="M17,15H16v1h3V15H17Z"/><path class="qa51-2" d="M19,17h1V16H19Z"/><path class="qa51-2" d="M10,16H9v1h1Z"/><path class="qa51-2" d="M8,15v1H9V15Z"/><rect class="qa51-2" x="14" y="16" width="1" height="1"/><path class="qa51-6" d="M13,15V14H12v1Z"/><path class="qa51-6" d="M11,14H10v1h1Z"/><path class="qa51-6" d="M19,15V14H18v1Z"/><rect class="qa51-6" x="16" y="14" width="1" height="1"/><path class="qa51-2" d="M12,15V14H11v1Z"/><path class="qa51-2" d="M18,15V14H17v1Z"/><path class="qa51-7" d="M19,18H18v2H17v1h2V20h1V17H19Z"/><path class="qa51-7" d="M12,20H11V18H10V17H9v3h1v1h2Z"/><rect class="qa51-2" x="13" y="19" width="3" height="1"/><rect class="qa51-2" x="16" y="18" width="1" height="1"/><path class="qa51-8" d="M19,15v1h1V15h1V14H19Z"/><path class="qa51-8" d="M16,16v1h3V16H16Z"/><path class="qa51-8" d="M13,16h1V15h1v1h1V14H13v2Z"/><path class="qa51-8" d="M13,17V16H10v1h3Z"/><path class="qa51-8" d="M10,15V14H8v1H9v1h1Z"/><path class="qa51-9" d="M11,14H21V13h4V12H23V11H21V10H19V9H18V8H17V7H16V6H15V5H14V6H13V7H12V8H11V9H10v1H8v1H6v1H4v1H8v1h3Z"/></svg>