<svg xmlns="http://www.w3.org/2000/svg" viewBox="0 0 29 33"><defs><style>polygon,rect,path{shape-rendering:crispedges;}.ib299-1{fill:#b4bd09;}.ib299-2{fill:#c18d59;}.ib299-3{fill:#000000;}.ib299-4{fill:#99004d;}.ib299-5{fill:#c8a715;}.ib299-6{fill:#ffffff;}.ib299-7{fill:#e70059;}.ib299-8{fill:#34e0cb;}.ib299-9{fill:#0068ff;}.ib299-10{fill:#ff1f4a;}.ib299-11{fill:#474718;}.ib299-12{fill:#6f7032;}</style></defs><path class="ib299-1" d="M12,22H11v2h1V22Z"/><path class="ib299-1" d="M18,24V22H17v2Z"/><path class="ib299-2" d="M8,27H9V25H8V24H7v9H8V27Z"/><path class="ib299-3" d="M7,24H6v9H7V24Z"/><path class="ib299-3" d="M23,27H22v6h1V27Z"/><path class="ib299-2" d="M22,27H21v6h1V27Z"/><rect class="ib299-3" x="21" y="26" width="1" height="1"/><path class="ib299-3" d="M21,27H20v6h1V27Z"/><path class="ib299-2" d="M20,27h1V26H19V25H16V23H13v2H10v2H9v6h5V29h1v4h5V27Zm-8,2H11V28h1Zm6,0H17V28h1Z"/><path class="ib299-3" d="M20,26h1V25H19v1Z"/><rect class="ib299-3" x="17" y="28" width="1" height="1"/><path class="ib299-3" d="M17,24v1h2V24H17Z"/><path class="ib299-3" d="M15,29H14v4h1V29Z"/><rect class="ib299-3" x="11" y="28" width="1" height="1"/><path class="ib299-3" d="M12,24H10v1h2Z"/><path class="ib299-3" d="M9,27H8v6H9V27Z"/><path class="ib299-2" d="M14,20H13v1h1v1h1V21h1V20H14Z"/><rect class="ib299-2" x="14" y="15" width="1" height="1"/><path class="ib299-2" d="M17,16v1H16V16H15v1H14V16H11v3h1V18h5v1h1V16Z"/><rect class="ib299-2" x="14" y="13" width="1" height="1"/><rect class="ib299-3" x="19" y="16" width="1" height="1"/><rect class="ib299-3" x="9" y="16" width="1" height="1"/><rect class="ib299-3" x="14" y="16" width="1" height="1"/><path class="ib299-4" d="M12,22v1h5V22h2V18H18v1H16v2H15v1H14V21H13V19H11V18H10v4h2Z"/><rect class="ib299-4" x="19" y="17" width="1" height="1"/><rect class="ib299-4" x="9" y="17" width="1" height="1"/><path class="ib299-5" d="M18,23h1V22H18Z"/><path class="ib299-4" d="M18,24h1V23H18Z"/><path class="ib299-5" d="M17,23H16v1h1Z"/><path class="ib299-4" d="M16,24v1h1V24Z"/><path class="ib299-5" d="M12,24h1V23H12Z"/><path class="ib299-4" d="M12,25h1V24H12Z"/><path class="ib299-5" d="M11,22H10v1h1Z"/><path class="ib299-4" d="M11,23H10v1h1Z"/><path class="ib299-3" d="M12,18v1h1V18Z"/><path class="ib299-3" d="M16,18v1h1V18Z"/><path class="ib299-3" d="M15,20h1V19H15Z"/><path class="ib299-3" d="M15,19V18H14v1Z"/><path class="ib299-3" d="M14,19H13v1h1Z"/><path class="ib299-6" d="M14,18H13v1h1Z"/><path class="ib299-6" d="M15,18v1h1V18Z"/><path class="ib299-7" d="M14,20h1V19H14Z"/><path class="ib299-3" d="M10,27V25H9v2Z"/><rect class="ib299-3" x="8" y="24" width="1" height="1"/><rect class="ib299-3" x="7" y="23" width="1" height="1"/><path class="ib299-8" d="M9,16V13H8v5H9V16Z"/><path class="ib299-8" d="M20,16v2h1V13H20v3Z"/><path class="ib299-8" d="M10,16v2h1V16Z"/><path class="ib299-8" d="M19,16H18v2h1V16Z"/><path class="ib299-8" d="M9,18v2h1V18Z"/><rect class="ib299-8" x="16" y="16" width="1" height="1"/><path class="ib299-8" d="M19,19v1h1V18H19Z"/><path class="ib299-6" d="M9,16h5V15h1v1h5V13H15v1H14V13H9v3Zm7-2h3v1H16Zm-6,0h3v1H10Z"/><path class="ib299-9" d="M19,15V14H16v1h3Z"/><path class="ib299-10" d="M13,15V14H10v1h3Z"/><path class="ib299-11" d="M19,12v1h1V11H19Z"/><path class="ib299-12" d="M10,12v1h1V11h1v2h1V11h1v2h1V11h1v2h1V11h1v2h1V11h1V10H19V9H18V8H11V9H10v1H9v1h1Z"/><path class="ib299-11" d="M17,11v2h1V11Z"/><path class="ib299-11" d="M15,11v2h1V11Z"/><path class="ib299-11" d="M13,11v2h1V11Z"/><path class="ib299-11" d="M11,11v2h1V11Z"/><path class="ib299-11" d="M10,12V11H9v2h1Z"/><path class="ib299-1" d="M0,8V33H6V24H7V23H8v1H9v1h1V20H9V18H8V13H9V10h1V9h1V8h7V9h1v1h1v3h1v5H20v2H19v5h2v1h1v1h1v6h6V0H0Z"/></svg>