<svg xmlns="http://www.w3.org/2000/svg" viewBox="0 0 29 33"><defs><style>polygon,rect,path{shape-rendering:crispedges;}polygon,rect,path{shape-rendering:crispedges;}.lb6-1{fill:#a9a9a9;}.lb6-2{fill:#000000;}.lb6-3{fill:#bbbbbb;}.lb6-4{fill:#04263a;}.lb6-5{fill:#0068f5;}.lb6-6{fill:#008dff;}.lb6-7{fill:#008b4c;}.lb6-8{fill:#ffffff;}.lb6-9{fill:#004480;}.lb6-10{fill:#b23b00;}.lb6-11{fill:#e8b795;}.lb6-12{fill:#00af68;}.lb6-13{fill:#663434;}.lb6-14{fill:#663434;}.lb6-15{fill:#f9e100;}.lb6-16{fill:#455054;}.lb6-17{fill:#002b4f;}.lb6-18{fill:#ff1f4a;}</style></defs><path class="lb6-1" d="M28,25H27v1h2V24H28Z"/><path class="lb6-2" d="M0,0V23H4V22H5v9H6V22H7V20H5v1H2V17H5V16H8v5h4V20H11V19H10V16H9V15h1V12H9V11h1V10h1V9h7v1h1v1h1v1H19v3h1v1H19v3H18v1H17v1h4v1h5v1h3V0H0ZM27,5V7H22V6H21V5H20V4h1V3h1V2h3V3h1V4h1Z"/><path class="lb6-1" d="M27,32H26V31H23v2h5V32Z"/><path class="lb6-1" d="M25,27v1H24v2h4v1h1V27H25Z"/><path class="lb6-3" d="M27,24H26v1H25v1H23v5h3v1h2v1h1V31H28V30H24V28h1V27h4V26H27V25h1V24h1V23H27Z"/><path class="lb6-3" d="M22,23H21v1h1v1H21v1h2V24h1V23h2V22H23v1Z"/><path class="lb6-3" d="M18,22h3V21H17v1Z"/><path class="lb6-3" d="M4,32V31H5V26H2V25H1V24H0v2H1v1H3v1H4v2H2v1H0v2H3V32Z"/><path class="lb6-3" d="M2,24H4v1H5V22H4v1H1v1Z"/><path class="lb6-3" d="M9,24H8v1h2V24Z"/><path class="lb6-3" d="M7,32H6v1H8V32Z"/><path class="lb6-3" d="M21,25V24H19v1h2Z"/><path class="lb6-3" d="M19,24V23H17v1h2Z"/><path class="lb6-3" d="M10,24h2V23H10Z"/><path class="lb6-4" d="M26,7h1V6H26Z"/><path class="lb6-5" d="M26,5V6h1V4H26Z"/><path class="lb6-5" d="M25,6V7h1V6Z"/><rect class="lb6-6" x="25" y="5" width="1" height="1"/><rect class="lb6-7" x="25" y="4" width="1" height="1"/><rect class="lb6-8" x="25" y="3" width="1" height="1"/><path class="lb6-1" d="M24,24H23v2h2V25h1V24h1V23H24Z"/><path class="lb6-7" d="M24,5H23V6h2V5Z"/><rect class="lb6-8" x="24" y="4" width="1" height="1"/><rect class="lb6-5" x="24" y="3" width="1" height="1"/><path class="lb6-9" d="M24,6H23V7h2V6Z"/><rect class="lb6-6" x="23" y="4" width="1" height="1"/><path class="lb6-1" d="M22,27h1V26H22Z"/><path class="lb6-4" d="M22,6V7h1V6Z"/><rect class="lb6-6" x="22" y="5" width="1" height="1"/><rect class="lb6-5" x="22" y="4" width="1" height="1"/><path class="lb6-7" d="M23,4h1V3h1V2H23V3H22V4Z"/><path class="lb6-6" d="M23,2H22V3h1Z"/><rect class="lb6-1" x="21" y="24" width="1" height="1"/><rect class="lb6-9" x="21" y="5" width="1" height="1"/><rect class="lb6-7" x="21" y="4" width="1" height="1"/><rect class="lb6-8" x="21" y="3" width="1" height="1"/><rect class="lb6-5" x="20" y="4" width="1" height="1"/><path class="lb6-1" d="M18,22H17v1h2v1h2V23h2V22H18Z"/><path class="lb6-1" d="M10,24V23h2V22H9v2Z"/><path class="lb6-1" d="M6,31H4v1H3v1H6V31Z"/><path class="lb6-1" d="M2,30H4V28H3V27H1V26H0v5H2Z"/><path class="lb6-1" d="M4,24H1v1H2v1H5V25H4Z"/><path class="lb6-1" d="M1,23H0v1H1Z"/><path class="lb6-2" d="M21,26v1h1V26Z"/><path class="lb6-2" d="M23,27H22v3H21V27H20v6h1V31h1v2h1V27Z"/><path class="lb6-2" d="M20,25H19v1h2V25Z"/><path class="lb6-2" d="M18,24H17v1h2V24Z"/><path class="lb6-2" d="M11,24H10v1h2V24Z"/><path class="lb6-2" d="M9,31V27H8V26h2V25H8V24H7v7H6v1H8v1H9V31Z"/><rect class="lb6-10" x="10" y="29" width="1" height="1"/><rect class="lb6-10" x="18" y="29" width="1" height="1"/><path class="lb6-10" d="M19,32V31H18v1H17V29h1V28h1v1h1V27h1V26H19V25H17v1H16v1H13V26H12V25H10v1H8v1H9v2h1V28h1v1h1v3H11V31H10v1H9v1H20V32Zm-3-1H15v1H13V28h2v1h1Z"/><path class="lb6-10" d="M14,29v2h1V29Z"/><path class="lb6-2" d="M13,26v1h3V26H13Z"/><path class="lb6-11" d="M16,24V23H13v1H12v1h1v1h3V25h1V24Z"/><path class="lb6-10" d="M21,28v2h1V27H21Z"/><path class="lb6-11" d="M21,31v2h1V31Z"/><rect class="lb6-2" x="12" y="25" width="1" height="1"/><rect class="lb6-2" x="16" y="25" width="1" height="1"/><rect class="lb6-11" x="10" y="11" width="1" height="1"/><path class="lb6-11" d="M11,13H10v1h1Z"/><rect class="lb6-11" x="9" y="15" width="1" height="1"/><rect class="lb6-11" x="19" y="15" width="1" height="1"/><path class="lb6-11" d="M14,21V20H13V19H12V18h5v1H16v1H15v1h2V20h1V19h1V16H18v1H16V16H15v1H14V16H13v1H11V16H10v3h1v1h1v1h2Z"/><rect class="lb6-11" x="14" y="15" width="1" height="1"/><path class="lb6-11" d="M13,14h3V12h1V11H16V10H13v1H12v2h1Z"/><rect class="lb6-11" x="17" y="10" width="1" height="1"/><path class="lb6-11" d="M18,12v1h1V11H18Z"/><rect class="lb6-11" x="11" y="10" width="1" height="1"/><path class="lb6-2" d="M12,23v1h1V23h3v1h1V21H16v1H13V21H12v2Z"/><rect class="lb6-2" x="14" y="16" width="1" height="1"/><path class="lb6-12" d="M19,30H18V29H17v3h1V31h1v1h1V29H19Z"/><rect class="lb6-12" x="18" y="28" width="1" height="1"/><path class="lb6-12" d="M15,31h1V29H15Z"/><path class="lb6-12" d="M14,30V29h1V28H13v4h2V31H14Z"/><path class="lb6-12" d="M9,32h1V31h1v1h1V29H11v1H10V29H9v3Z"/><rect class="lb6-12" x="10" y="28" width="1" height="1"/><path class="lb6-13" d="M15,20H14v1H13v1h3V21H15Z"/><path class="lb6-14" d="M18,14h1V13H18Z"/><polygon class="lb6-14" points="16 12 16 13 18 13 18 12 17 12 16 12"/><path class="lb6-14" d="M12,13V12H10v1h2Z"/><path class="lb6-2" d="M16,20V19h1V18H12v1h1v1h3Z"/><path class="lb6-15" d="M20,12V11H19v1Z"/><rect class="lb6-15" x="18" y="10" width="1" height="1"/><path class="lb6-15" d="M12,11h1V10h3v1h1V10h1V9H11v1h1Z"/><rect class="lb6-15" x="17" y="11" width="1" height="1"/><path class="lb6-15" d="M11,11v1h1V11Z"/><rect class="lb6-15" x="10" y="10" width="1" height="1"/><rect class="lb6-15" x="9" y="11" width="1" height="1"/><path class="lb6-11" d="M7,24H8V22H6v9H7Z"/><path class="lb6-16" d="M8,21V20H7v2H8Z"/><path class="lb6-2" d="M9,22H8v2H9Z"/><path class="lb6-17" d="M4,21H5V20H4Z"/><path class="lb6-17" d="M5,18V17H4v1Z"/><path class="lb6-17" d="M3,19V18H2v2H3Z"/><path class="lb6-17" d="M5,19v1H6V19Z"/><path class="lb6-17" d="M6,16H5v1H6Z"/><path class="lb6-17" d="M7,18v1H8V17H7Z"/><path class="lb6-18" d="M3,17H2v1H3Z"/><path class="lb6-18" d="M7,17H6v1H3v2H4V19H7V17Z"/><path class="lb6-18" d="M8,17V16H7v1Z"/><path class="lb6-18" d="M8,19H7v1H8Z"/><path class="lb6-18" d="M2,20v1H3V20Z"/><path class="lb6-8" d="M3,20v1H4V20Z"/><path class="lb6-8" d="M4,19v1H5V19Z"/><path class="lb6-8" d="M4,18V17H3v1Z"/><path class="lb6-8" d="M7,17V16H6v1Z"/><path class="lb6-8" d="M6,18V17H5v1Z"/><path class="lb6-8" d="M6.8,19H6v1H7V19Z"/><path class="lb6-3" d="M9,22h3V21H8v1Z"/><path class="lb6-8" d="M13,14V13H11v1h2Z"/><path class="lb6-8" d="M11,17h2V16H11Z"/><path class="lb6-8" d="M11,15V14H10v2h1Z"/><path class="lb6-2" d="M13,14H11v2h2V14Z"/><path class="lb6-8" d="M18,15v1h1V14H18Z"/><path class="lb6-8" d="M16,14h2V13H16Z"/><path class="lb6-8" d="M16,17h2V16H16Z"/><path class="lb6-8" d="M16,14H13v2h1V15h1v1h1V14Z"/><path class="lb6-2" d="M18,14H16v2h2V14Z"/></svg>