<svg xmlns="http://www.w3.org/2000/svg" viewBox="0 0 29 33"><defs><style>polygon,rect,path{shape-rendering:crispedges;}.aa222-1{fill:#397d98;}.aa222-2{fill:#000000;}.aa222-3{fill:#efcaaf;}.aa222-4{fill:#5a2de2;}.aa222-5{fill:#b8a4ff;}.aa222-6{fill:#af8423;}.aa222-7{fill:#af8423;}.aa222-8{fill:#c8a715;}.aa222-9{fill:#ffffff;}.aa222-10{fill:#cc2f76;}</style></defs><path class="aa222-1" d="M18,24V22H17v2Z"/><path class="aa222-1" d="M0,33H6V27H7V26H8V25h2V20H9V16H8V15H9V10h1V9h1V8h7V9h1v1h1v5h1v1H20v4H19v5h2v1h1v1h1v6h6V0H0Z"/><path class="aa222-1" d="M12,22H11v2h1Z"/><path class="aa222-2" d="M23,31V27H22v6h1Z"/><rect class="aa222-2" x="21" y="26" width="1" height="1"/><path class="aa222-3" d="M22,31V27H21v6h1Z"/><rect class="aa222-3" x="20" y="26" width="1" height="1"/><path class="aa222-2" d="M21,31V27H20v6h1Z"/><path class="aa222-2" d="M20,26h1V25H19v1Z"/><rect class="aa222-4" x="18" y="30" width="1" height="1"/><path class="aa222-4" d="M14,31v1h1V30H14Z"/><rect class="aa222-4" x="18" y="32" width="1" height="1"/><path class="aa222-4" d="M17,31V30h1V29h1v1h1V26H19V25H18v1H17v1H16v1H13V27H12V26H11V25H10v1H9v4h1V29h1v1h1v3h1V29h2v1h1v2H15v1h2Z"/><rect class="aa222-4" x="10" y="32" width="1" height="1"/><rect class="aa222-4" x="10" y="30" width="1" height="1"/><path class="aa222-2" d="M17,24v2h1V25h1V24Z"/><rect class="aa222-2" x="16" y="26" width="1" height="1"/><path class="aa222-2" d="M14,27H13v1h3V27Z"/><path class="aa222-3" d="M16,25V23H13v2H12v1h1v1h3V26h1V25Z"/><rect class="aa222-2" x="12" y="26" width="1" height="1"/><path class="aa222-2" d="M11,26h1V24H10v1h1Z"/><path class="aa222-2" d="M10,26V25H8v1Z"/><rect class="aa222-3" x="8" y="26" width="1" height="1"/><path class="aa222-2" d="M9,31V27H8v6H9Z"/><rect class="aa222-2" x="7" y="26" width="1" height="1"/><path class="aa222-3" d="M8,31V27H7v6H8Z"/><path class="aa222-2" d="M7,31V27H6v6H7Z"/><path class="aa222-5" d="M20,31V30H19v1H18V30H17v3h1V32h1v1h1Z"/><rect class="aa222-5" x="18" y="29" width="1" height="1"/><path class="aa222-5" d="M15,32h1V30H15Z"/><path class="aa222-5" d="M14,32V30h1V29H13v4h2V32Z"/><path class="aa222-5" d="M12,31V30H11v1H10V30H9v3h1V32h1v1h1Z"/><rect class="aa222-5" x="10" y="29" width="1" height="1"/><rect class="aa222-2" x="20" y="15" width="1" height="1"/><rect class="aa222-3" x="18" y="13" width="1" height="1"/><rect class="aa222-3" x="14" y="15" width="1" height="1"/><path class="aa222-3" d="M16,14V13h1V12h2V11H18V10H16v1H15v1H14v2Z"/><polygon class="aa222-3" points="13 21 14 21 14 22 15 22 15 21 16 21 16 20 13 20 13 21"/><rect class="aa222-3" x="19" y="15" width="1" height="1"/><rect class="aa222-3" x="9" y="15" width="1" height="1"/><path class="aa222-3" d="M18,16v1H16V16H15v1H14V16H13v1H11V16H10v2h1v1h1V18h5v1h1V18h1V16Z"/><rect class="aa222-2" x="19" y="16" width="1" height="1"/><rect class="aa222-2" x="9" y="14" width="1" height="1"/><rect class="aa222-2" x="9" y="16" width="1" height="1"/><rect class="aa222-2" x="8" y="15" width="1" height="1"/><rect class="aa222-2" x="14" y="16" width="1" height="1"/><path class="aa222-6" d="M17,13h2V12H17Z"/><path class="aa222-7" d="M12,22v1h5V22h2V20h1V17H19v1H18v1H16v2H15v1H14V21H13V19H11V18H10V17H9v3h1v2Z"/><rect class="aa222-8" x="18" y="22" width="1" height="1"/><rect class="aa222-7" x="18" y="23" width="1" height="1"/><rect class="aa222-8" x="16" y="23" width="1" height="1"/><rect class="aa222-7" x="16" y="24" width="1" height="1"/><rect class="aa222-8" x="12" y="23" width="1" height="1"/><rect class="aa222-7" x="12" y="24" width="1" height="1"/><rect class="aa222-8" x="10" y="22" width="1" height="1"/><rect class="aa222-7" x="10" y="23" width="1" height="1"/><rect class="aa222-2" x="12" y="18" width="1" height="1"/><rect class="aa222-2" x="16" y="18" width="1" height="1"/><polygon class="aa222-2" points="15 18 14 18 14 19 13 19 13 20 16 20 16 19 15 19 15 18"/><rect class="aa222-9" x="13" y="18" width="1" height="1"/><rect class="aa222-9" x="15" y="18" width="1" height="1"/><path class="aa222-10" d="M11,14V13h2v1h1V12h1V11h1V10h2v1h1v4h1V10H19V9H18V8H11V9H10v1H9v4Z"/><path class="aa222-9" d="M13,14V13H11v1Z"/><path class="aa222-9" d="M11,16v1h2V16Z"/><path class="aa222-9" d="M11,15V14H10v2h1Z"/><path class="aa222-2" d="M11,16h2V14H11Z"/><path class="aa222-9" d="M18,15v1h1V14H18Z"/><path class="aa222-9" d="M18,14V13H16v1Z"/><path class="aa222-9" d="M16,16v1h2V16Z"/><path class="aa222-9" d="M13,16h1V15h1v1h1V14H13Z"/><path class="aa222-2" d="M18,14H16v2h2Z"/></svg>