<svg xmlns="http://www.w3.org/2000/svg" viewBox="0 0 29 33"><defs><style>polygon,rect,path{shape-rendering:crispedges;}.ja225-1{fill:#7a982c;}.ja225-2{fill:#000000;}.ja225-3{fill:#00774c;}.ja225-4{fill:#f9e100;}.ja225-5{fill:#ce8452;}.ja225-6{fill:#b23b00;}.ja225-7{fill:#b23b00;}.ja225-8{fill:#ffffff;}.ja225-9{fill:#004a77;}</style></defs><rect class="ja225-1" x="16" y="8" width="1" height="1"/><path class="ja225-1" d="M0,33H6V27H7V26H8V25h2V24h2V22H11V21H10V20H9V16H8V14H9V10h1V9h1V8h1V9h1V8h3V7h1V8h2V9h1v1H19v1h1v3h1v2H20v4H19v1H18v1H17v2h2v1h2v1h1v1h1v6h6V0H0Z"/><path class="ja225-2" d="M23,27H22v6h1V27Z"/><rect class="ja225-2" x="21" y="26" width="1" height="1"/><path class="ja225-3" d="M21,31v1h1V30H21Z"/><path class="ja225-3" d="M21,28h1V27H21Z"/><path class="ja225-2" d="M21,31V27H20v6h1V31Z"/><path class="ja225-2" d="M20,26h1V25H19v1Z"/><path class="ja225-3" d="M17,25v1h1v2h1v1h1V27H19V25H17Z"/><path class="ja225-3" d="M10,31V30H9v2h1v1h1V31Z"/><rect class="ja225-3" x="16" y="24" width="1" height="1"/><path class="ja225-3" d="M19,31V30H18V28H17V27H16V25H15V24H14V23H13v2h1v1h1v2h1v1h1v2h1v1h1v1h1V31Z"/><path class="ja225-3" d="M16,31V30H15V28H14V27H13V25H11v1h1v2h1v1h1v2h1v1h1v1h1V31Z"/><path class="ja225-3" d="M13,31V30H12V28H11V27H10V26H9v2h1v1h1v2h1v1h1v1h1V31Z"/><path class="ja225-2" d="M18,25h1V24H17v1Z"/><path class="ja225-2" d="M16,24h1V23H16Z"/><path class="ja225-2" d="M13,23H12v1h1Z"/><path class="ja225-2" d="M12,25V24H10v1h2Z"/><path class="ja225-2" d="M10,26V25H8v1h2Z"/><path class="ja225-2" d="M9,31V27H8v6H9V31Z"/><rect class="ja225-2" x="7" y="26" width="1" height="1"/><path class="ja225-3" d="M8,29V27H7v2Z"/><path class="ja225-3" d="M7,31v2H8V31Z"/><path class="ja225-2" d="M7,30V27H6v6H7V30Z"/><path class="ja225-4" d="M21,29v1h1V28H21Z"/><path class="ja225-4" d="M21,32v1h1V32Z"/><path class="ja225-4" d="M19,26v1h2V26H19Z"/><path class="ja225-4" d="M19,28H18v2h1v1h1V29H19Z"/><path class="ja225-4" d="M17,26V25H16v2h1v1h1V26Z"/><path class="ja225-4" d="M18,32V31H17v2h2V32Z"/><path class="ja225-4" d="M16,30v1h1V29H16V28H15v2Z"/><path class="ja225-4" d="M16,23H14v1h1v1h1V23Z"/><path class="ja225-4" d="M14,27v1h1V26H14V25H13v2Z"/><path class="ja225-4" d="M15,32V31H14v2h2V32Z"/><path class="ja225-4" d="M13,30v1h1V29H13V28H12v2Z"/><path class="ja225-4" d="M13,25V24H12v1Z"/><path class="ja225-4" d="M10,27h1v1h1V26H11V25H10v2Z"/><path class="ja225-4" d="M12,32V31H11v2h2V32Z"/><path class="ja225-4" d="M10,30v1h1V29H10V28H9v2Z"/><path class="ja225-4" d="M9,32v1h1V32Z"/><path class="ja225-4" d="M9,27V26H8v1Z"/><path class="ja225-4" d="M7,30v1H8V29H7Z"/><path class="ja225-2" d="M20,16h1V15H20Z"/><rect class="ja225-5" x="10" y="12" width="1" height="1"/><path class="ja225-5" d="M13,13v1h3V13h1V12h1V11H13V10H12v1H11v1h2Z"/><path class="ja225-5" d="M16,16H15v1H14V16H13v1H11v1h7V17H16Z"/><rect class="ja225-5" x="14" y="15" width="1" height="1"/><path class="ja225-2" d="M8,15v1H9V15Z"/><rect class="ja225-2" x="14" y="16" width="1" height="1"/><polygon class="ja225-6" points="12 13 13 13 13 12 11 12 11 13 12 13"/><path class="ja225-6" d="M17,13h2V12H17Z"/><path class="ja225-7" d="M14,23h3V22h1V21h1V20h1V16H19v1H18v1H17v1H16v1H13V19H12V18H11V17H10V16H9v4h1v1h1v1h1v1h2Z"/><path class="ja225-2" d="M12,18v1h1V18Z"/><path class="ja225-2" d="M16,19h1V18H16Z"/><path class="ja225-2" d="M15,18H14v1H13v1h3V19H15Z"/><path class="ja225-8" d="M14,18H13v1h1Z"/><path class="ja225-8" d="M15,18v1h1V18Z"/><path class="ja225-9" d="M10,13V12h1V11h1V10h1v1h5v1h1v2h1V11H19V10h1V9H19V8H17V9H16V8H13V9H12V8H11V9H10v1H9v4h1Z"/><rect class="ja225-9" x="16" y="7" width="1" height="1"/><path class="ja225-8" d="M19,15v1h1V15h1V14H19Z"/><path class="ja225-8" d="M16,13v1h3V13H16Z"/><path class="ja225-2" d="M19,14H16v2h3V14Z"/><path class="ja225-8" d="M16,16v1h3V16H16Z"/><path class="ja225-8" d="M13,14v2h1V15h1v1h1V14H13Z"/><path class="ja225-8" d="M13,14V13H10v1h3Z"/><path class="ja225-2" d="M13,16V14H10v2h3Z"/><path class="ja225-8" d="M13,16H10v1h3Z"/><path class="ja225-8" d="M10,15V14H8v1H9v1h1Z"/></svg>