<svg xmlns="http://www.w3.org/2000/svg" viewBox="0 0 29 33"><defs><style>polygon,rect,path{shape-rendering:crispedges;}.ta272-1{fill:#d14646;}.ta272-2{fill:#000000;}.ta272-3{fill:#333333;}.ta272-4{fill:#ce8452;}.ta272-5{fill:#333333;}.ta272-6{fill:#8e4717;}.ta272-7{fill:#ff6c77;}.ta272-8{fill:#841f00;}.ta272-9{fill:#b23b00;}.ta272-10{fill:#fad000;}.ta272-11{fill:#8e4717;}</style></defs><rect class="ta272-1" x="16" y="21"/><rect class="ta272-1" x="10" y="22" width="1"/><rect class="ta272-1" x="18" y="19"/><rect class="ta272-1" x="9" y="21" width="1"/><rect class="ta272-1" x="19" y="21" width="1"/><rect class="ta272-1" x="18" y="22" width="1"/><rect class="ta272-1" x="20" y="20" width="1"/><polygon class="ta272-1" points="15 16 15 16 14 16 14 17 14 17 14 16 15 16"/><rect class="ta272-1" x="8" y="20" width="1"/><path class="ta272-2" d="M22,31v2h1V27H22v4Z"/><path class="ta272-3" d="M21,31v2h1V27H21Z"/><rect class="ta272-2" x="21" y="26" width="1" height="1"/><path class="ta272-2" d="M21,27H20v6h1V27Z"/><path class="ta272-3" d="M18,27H17v2h1v1h1v3h1V27h1V26H18Z"/><path class="ta272-3" d="M9,27v6h1V30h1V29h1V27H11V26H8v1Z"/><polygon class="ta272-3" points="17 22 16 22 16 23 17 23 17 23 18 23 18 22 17 22"/><path class="ta272-4" d="M13,23v1h3V23H13Z"/><path class="ta272-3" d="M12,23h1V22H11v1Z"/><path class="ta272-2" d="M11,26V24H10v1H8v1h3Z"/><path class="ta272-2" d="M9,27H8v6H9V27Z"/><path class="ta272-3" d="M7,33H8V27H7v6Z"/><rect class="ta272-2" x="7" y="26" width="1" height="1"/><path class="ta272-2" d="M7,31V27H6v6H7Z"/><path class="ta272-3" d="M16,32H12v1h5V32Z"/><rect class="ta272-3" x="13" y="25" width="1" height="1"/><rect class="ta272-3" x="15" y="25" width="1" height="1"/><rect class="ta272-3" x="16" y="30" width="1" height="1"/><rect class="ta272-3" x="12" y="30" width="1" height="1"/><path class="ta272-5" d="M19,30H18V29H17v2H16V30H15v1H14V30H13v1H12V29H11v1H10v3h2V32h5v1h2V30Z"/><polygon class="ta272-4" points="15 21 16 21 16 21 16 21 16 20 15 20 15 21"/><polygon class="ta272-4" points="18 13 18 13 18 14 19 14 19 13 18 13"/><path class="ta272-4" d="M18,15v1H16V15H15V14H14v1H13v1H11V15H10v1h0v2h1v1h1V18h2v1h1V18h2v1h1V18h1V16h0V15Zm-3,2H14V16h1Z"/><rect class="ta272-4" x="13" y="20" width="1" height="1"/><polygon class="ta272-2" points="14 16 14 17 14 17 15 17 15 16 15 16 14 16"/><rect class="ta272-6" x="10" y="13" width="1" height="1"/><rect class="ta272-7" x="19" y="13" height="1"/><rect class="ta272-8" x="19" y="12" height="1"/><polygon class="ta272-9" points="11 13 11 13 11 13 11 12 10 12 10 13 11 13"/><path class="ta272-9" d="M16,13h1V11H16Z"/><path class="ta272-9" d="M14,11v2h1V11Z"/><path class="ta272-9" d="M12,13h1V11H12v2Z"/><rect class="ta272-9" x="18" y="12" width="1" height="1"/><path class="ta272-8" d="M18,12H17v1h1Z"/><path class="ta272-8" d="M15,11v2h1V11Z"/><path class="ta272-8" d="M13,11v2h1V11Z"/><path class="ta272-8" d="M11,12v1h1V12Z"/><polygon class="ta272-3" points="10 21 10 22 11 22 11 22 11 22 11 21 10 21"/><rect class="ta272-3" x="18" y="21" width="1" height="1"/><polygon class="ta272-3" points="19 21 19 21 19 21 20 21 20 20 19 20 19 21"/><rect class="ta272-3" x="9" y="20" width="1" height="1"/><polygon class="ta272-2" points="11 8 10 8 10 9 11 9 11 8"/><rect class="ta272-2" x="9" y="9" width="1" height="1"/><rect class="ta272-2" x="8" y="10" width="1" height="1"/><path class="ta272-2" d="M8,19V11H7v9H8Z"/><polygon class="ta272-2" points="9 20 8 20 8 21 9 21 9 21 9 20"/><polygon class="ta272-2" points="10 21 9 21 9 22 10 22 10 22 10 21"/><polygon class="ta272-2" points="11 22 10 22 10 23 11 23 11 22 11 22"/><rect class="ta272-2" x="18" y="22" width="1" height="1"/><polygon class="ta272-2" points="19 21 19 22 19 22 20 22 20 21 19 21 19 21"/><polygon class="ta272-2" points="20 20 20 21 20 21 21 21 21 20 20 20 20 20"/><path class="ta272-2" d="M21,20h1V11H21v9Z"/><polygon class="ta272-2" points="20 11 21 11 21 10 20 10 20 11 20 11"/><polygon class="ta272-2" points="19 10 20 10 20 9 19 9 19 10 19 10"/><rect class="ta272-2" x="18" y="8" width="1" height="1"/><path class="ta272-2" d="M18,8V7H11V8h7Z"/><path class="ta272-2" d="M12,12V11H10v1h2Z"/><path class="ta272-2" d="M10,16V15h1v1h2V15h1V14h1v1h1v1h2V15h1v1h1v3h0V12H19v2H18V13H11v1H10V12H9v4Z"/><path class="ta272-2" d="M18,12h1V11H17v1Z"/><path class="ta272-2" d="M14,11h3V10H12v1h2Z"/><path class="ta272-1" d="M0,33H29V0H0Zm6-6H7V26H8V25h2V24h1V23H10V22H9V21H8V20H7V11H8V10H9V9h1V8h1V7h7V8h1V9h1v1h1v1h1v9H21v1H20v1H19v1H18v1h1v1h2v1h1v1h1v6H6Z"/><rect class="ta272-2" x="14" y="30" width="1" height="1"/><path class="ta272-2" d="M16,28H15v2h2V27H16Z"/><path class="ta272-2" d="M13,30h1V28H13V27H12v3Z"/><rect class="ta272-2" x="17" y="26" width="1" height="1"/><rect class="ta272-2" x="11" y="26" width="1" height="1"/><rect class="ta272-2" x="13" y="26" width="1" height="1"/><rect class="ta272-2" x="15" y="26" width="1" height="1"/><path class="ta272-2" d="M12,25v1h1V25h1v1h1V25h1v1h1V24h1V23H16v1H13V22h0v1H11v1h1Z"/><rect class="ta272-10" x="16" y="26" width="1" height="1"/><path class="ta272-10" d="M13,27v1h1v2h1V28h1V27H15V26H14v1Z"/><rect class="ta272-10" x="12" y="26" width="1" height="1"/><path class="ta272-10" d="M12,26V24H11v2Z"/><path class="ta272-10" d="M17,25v1h1V24H17Z"/><path class="ta272-2" d="M21,26V25H19V24H18v2Z"/><path class="ta272-11" d="M14,18H13v1h1Z"/><path class="ta272-11" d="M17,22h1V21h1V20h1V16H19v2H18v1H17V18H15v1h1v2H15V20H14v1H13V19H11V18H10V16H9v4h1v1h1v1h2v1h3V22Z"/><path class="ta272-3" d="M8,19v1H9V12h1V11h2V10h5v1h2v1h1v7h0v1h1V11H20V10H19V9H18V8H11V9H10v1H9v1H8v8Z"/><path class="ta272-2" d="M13,19v1h3V19H13Z"/><path class="ta272-2" d="M12,18v1h1V18Z"/></svg>