<svg xmlns="http://www.w3.org/2000/svg" viewBox="0 0 29 33"><defs><style>polygon,rect,path{shape-rendering:crispedges;}.ya296-1{fill:#b4bd09;}.ya296-2{fill:#000000;}.ya296-3{fill:#94d4ff;}.ya296-4{fill:#e8b795;}.ya296-5{fill:#0079bc;}.ya296-6{fill:#ffffff;}.ya296-7{fill:#8e4717;}.ya296-8{fill:#8e4717;}.ya296-9{fill:#f9e100;}</style></defs><rect class="ya296-1" x="17" y="20" width="1"/><rect class="ya296-1" x="15" y="16" height="1"/><path class="ya296-1" d="M13,22V21h0v1h0Z"/><polygon class="ya296-1" points="12 20 11 20 11 19 11 19 11 20 12 20 12 20"/><path class="ya296-1" d="M0,33H29V0H0Zm6-1V27H7V26H8V25h2V24h1V23h1V21H11V20H10V19H9V16H8V15H9v1H9V12H9V11h1V10h1V9h7v1h1v1h1v4h1v1H20v3H19v1H18v1H17v2h1v1h1v1h1V24h1V23h1v1h1v9H6Z"/><path class="ya296-1" d="M10,18V16h0v3h0Z"/><rect class="ya296-1" x="11" y="10" height="1"/><path class="ya296-2" d="M7,32V27H6v6H7Z"/><path class="ya296-3" d="M7,31v2H8V31Z"/><path class="ya296-3" d="M8,29V27H7v2Z"/><rect class="ya296-2" x="7" y="26" width="1" height="1"/><path class="ya296-2" d="M9,31V27H8v6H9V31Z"/><path class="ya296-3" d="M10,31V30H9v2h1v1h1V31Z"/><path class="ya296-3" d="M16,31V30H15v2h1v1h1V31Z"/><path class="ya296-3" d="M14,31H13V30H12V28H11V27H10V26H9v2h1v1h1v2h1v1h1v1h1V31Z"/><rect class="ya296-3" x="14" y="29" width="1" height="1"/><path class="ya296-3" d="M19,31V30H18V28H17V27H16V25H15v3h1v1h1v2h1v1h1v1h1V31Z"/><path class="ya296-3" d="M13,29h1V27H13V26H12v2h1Z"/><path class="ya296-3" d="M18,26v2h1v1h1V27H19V25H18Z"/><path class="ya296-2" d="M10,26V25H8v1h2Z"/><path class="ya296-2" d="M11,26h2V25H12V24h1V23h3v1h1v1H16v1h2V25h1V24H18V23H17V21H16v1H13V21H12v2H11v1H10v1h1Z"/><rect class="ya296-2" x="13" y="24" width="1" height="1"/><path class="ya296-2" d="M14,32v1h1V32Z"/><path class="ya296-2" d="M14,31h1V30H14Z"/><path class="ya296-2" d="M14,29h1V28H14Z"/><path class="ya296-2" d="M14,26v1h1V25H14Z"/><rect class="ya296-2" x="15" y="24" width="1" height="1"/><path class="ya296-4" d="M14,25h1V24h1V23H13v1h1Z"/><rect class="ya296-3" x="16" y="24" width="1" height="1"/><path class="ya296-2" d="M21,31V27H20v6h1V31Z"/><path class="ya296-3" d="M22,28V27H21v1Z"/><path class="ya296-3" d="M21,31v1h1V30H21Z"/><path class="ya296-5" d="M19,30v1h1V29H19V28H18v2Z"/><path class="ya296-5" d="M21,32v1h1V32Z"/><path class="ya296-5" d="M17,27v1h1V26H16v1Z"/><path class="ya296-5" d="M21,29v1h1V28H21Z"/><path class="ya296-5" d="M18,32V31H17v2h2V32Z"/><path class="ya296-5" d="M15,30h1v1h1V29H16V28H15v2Z"/><polygon class="ya296-5" points="14 27 14 26 14 25 13 25 13 26 13 27 14 27"/><path class="ya296-5" d="M14,28h1V27H14Z"/><path class="ya296-5" d="M15,32v1h1V32Z"/><path class="ya296-5" d="M14,32h1V31H14Z"/><path class="ya296-5" d="M13,30v1h1V29H13V28H12v2Z"/><rect class="ya296-5" x="12" y="24" width="1" height="1"/><path class="ya296-5" d="M10,27h1v1h1V26H11V25H10v2Z"/><path class="ya296-5" d="M12,32V31H11v2h2V32Z"/><path class="ya296-5" d="M10,30v1h1V29H10V28H9v2Z"/><path class="ya296-5" d="M9,32v1h1V32Z"/><path class="ya296-5" d="M9,27V26H8v1Z"/><path class="ya296-5" d="M8,30V29H7v2H8Z"/><rect class="ya296-2" x="20" y="15" width="1" height="1"/><rect class="ya296-4" x="17" y="10" width="1" height="1"/><rect class="ya296-4" x="18" y="11" width="1" height="1"/><path class="ya296-4" d="M10,16V15H9v1Z"/><path class="ya296-4" d="M17,12V11H16V10H13v1H12v1h1v1h3V12Z"/><rect class="ya296-4" x="18" y="13" width="1" height="1"/><path class="ya296-4" d="M13,20v1h0v1h3V20Z"/><path class="ya296-4" d="M19,16H16V15H15V14H14v1H13v1H10v3h1v1h1V18h5v2h1V19h1V16Zm-4,1H14V16h1Z"/><rect class="ya296-4" x="10" y="13" width="1" height="1"/><rect class="ya296-4" x="10" y="11" width="1" height="1"/><rect class="ya296-4" x="11" y="10" width="1" height="1"/><rect class="ya296-4" x="19" y="15" width="1" height="1"/><path class="ya296-2" d="M19,17v2h1V16H19Z"/><polygon class="ya296-2" points="18 20 18 20 19 20 19 19 18 19 18 20"/><polygon class="ya296-2" points="17 21 17 21 18 21 18 20 17 20 17 21"/><rect class="ya296-2" x="11" y="20" width="1" height="1"/><polygon class="ya296-2" points="10 19 10 19 10 20 11 20 11 19 10 19"/><rect class="ya296-2" x="10" y="11" height="1"/><path class="ya296-2" d="M10,16H9v3h1V16Z"/><rect class="ya296-2" x="8" y="15" width="1" height="1"/><polygon class="ya296-2" points="14 16 14 16 14 17 15 17 15 16 14 16"/><path class="ya296-6" d="M11,15H10v1h1Z"/><path class="ya296-6" d="M19,15H18v1h1Z"/><path class="ya296-7" d="M12,12H10v1h3V12Z"/><path class="ya296-7" d="M17,12H16v1h3V12H17Z"/><path class="ya296-8" d="M13,21V19h3V18H12v2h0v1Z"/><path class="ya296-8" d="M17,20h0V19H16v2h1Z"/><path class="ya296-2" d="M16,19H13v1h3Z"/><path class="ya296-2" d="M17,18H16v1h1Z"/><path class="ya296-4" d="M21,27h1V24H21v1H20v2Z"/><path class="ya296-2" d="M20,27V25H19v2Z"/><path class="ya296-2" d="M22,27v6h1V24H22v3Z"/><rect class="ya296-2" x="20" y="24" width="1" height="1"/><rect class="ya296-2" x="21" y="23" width="1" height="1"/><path class="ya296-9" d="M20,12V11H19v1Z"/><rect class="ya296-9" x="18" y="10" width="1" height="1"/><path class="ya296-9" d="M12,10v1h1V10h3v1h1V10h1V9H11v1h1Z"/><path class="ya296-9" d="M18,12V11H17v1Z"/><path class="ya296-9" d="M12,12V11H11v1Z"/><polygon class="ya296-9" points="11 11 11 10 10 10 10 11 10 11 11 11"/><polygon class="ya296-9" points="10 11 9 11 9 12 9 12 10 12 10 11"/><path class="ya296-2" d="M11,15v1h2V15h1V14h1v1h1v1h2V15h2V12H19v2H18V13H11v1H10V13h0V12H9v3h2Z"/></svg>