<svg xmlns="http://www.w3.org/2000/svg" viewBox="0 0 29 33"><defs><style>polygon,rect,path{shape-rendering:crispedges;}.sa65-1{fill:#6b4f99;}.sa65-2{fill:#000000;}.sa65-3{fill:#34e0cb;}.sa65-4{fill:#efcaaf;}.sa65-5{fill:#316a6d;}.sa65-6{fill:#316a6d;}.sa65-7{fill:#ffffff;}.sa65-8{fill:#0068ff;}.sa65-9{fill:#ff1f4a;}.sa65-10{fill:#455054;}.sa65-11{fill:#ffffff;}</style></defs><path class="sa65-1" d="M10,23V22H9v2H8v1h2V24h1V23Z"/><rect class="sa65-1" x="8" y="21" width="1" height="1"/><path class="sa65-2" d="M6,24V22H5v9H6V24Z"/><path class="sa65-2" d="M23,27H22v6h1V27Z"/><path class="sa65-3" d="M22,27H21v6h1V27Z"/><rect class="sa65-2" x="21" y="26" width="1" height="1"/><path class="sa65-2" d="M21,27H20v6h1V27Z"/><path class="sa65-3" d="M20,27h1V26H19V25H18V24H16v1h1v5H16V25H13v5H12V25h1V24H11v1H10v1H8v1H9v6H20V27Z"/><path class="sa65-2" d="M20,26h1V25H19v1Z"/><rect class="sa65-2" x="18" y="24" width="1" height="1"/><path class="sa65-2" d="M16,24h2V23H16Z"/><path class="sa65-2" d="M13,24v1h3V24H13Z"/><path class="sa65-4" d="M15,23H13v1h3V23Z"/><path class="sa65-2" d="M12,23H11v1h2V23Z"/><rect class="sa65-2" x="10" y="24" width="1" height="1"/><path class="sa65-2" d="M9,27H8V26h2V25H8V24H7v7H6v1H8v1H9V27Z"/><path class="sa65-3" d="M7,30V24H6v7H7Z"/><path class="sa65-2" d="M12,26v4h1V25H12Z"/><path class="sa65-2" d="M16,30h1V25H16v5Z"/><rect class="sa65-4" x="14" y="15" width="1" height="1"/><rect class="sa65-4" x="18" y="12" width="1" height="1"/><path class="sa65-4" d="M16,22V20H13v2h3Z"/><path class="sa65-4" d="M12,13h2v1h1V13h1V12h1V11H12v2Z"/><path class="sa65-4" d="M12,19V18h5v2h1V19h1V16H15v1H14V16H10v3h1v1h1Z"/><rect class="sa65-2" x="14" y="16" width="1" height="1"/><path class="sa65-5" d="M17,12H16v1h2V12Z"/><path class="sa65-5" d="M11,13h1V12H10v1Z"/><path class="sa65-3" d="M8,15v5H9v1h1v1h1v1h2V22H12V21H11V20H10V19H9V12h1V11h2V10h5v1h2v1h1v7H19v1H18v1H17v1H16v1h2V22h1V21h1V20h1V11H20V10H19V9H18V8H11V9H10v1H9v1H8v4Z"/><rect class="sa65-2" x="10" y="8" width="1" height="1"/><rect class="sa65-2" x="9" y="9" width="1" height="1"/><rect class="sa65-2" x="8" y="10" width="1" height="1"/><path class="sa65-2" d="M8,15V11H7v5H8Z"/><rect class="sa65-2" x="8" y="20" width="1" height="1"/><rect class="sa65-2" x="9" y="21" width="1" height="1"/><rect class="sa65-2" x="10" y="22" width="1" height="1"/><rect class="sa65-2" x="18" y="22" width="1" height="1"/><rect class="sa65-2" x="19" y="21" width="1" height="1"/><rect class="sa65-2" x="20" y="20" width="1" height="1"/><path class="sa65-2" d="M21,20h1V11H21v9Z"/><rect class="sa65-2" x="20" y="10" width="1" height="1"/><rect class="sa65-2" x="19" y="9" width="1" height="1"/><rect class="sa65-2" x="18" y="8" width="1" height="1"/><path class="sa65-2" d="M18,8V7H11V8h7Z"/><path class="sa65-2" d="M12,11H10v1h2Z"/><path class="sa65-2" d="M10,16H9v3h1V16Z"/><path class="sa65-2" d="M10,12H9v1h1Z"/><rect class="sa65-2" x="10" y="19" width="1" height="1"/><rect class="sa65-2" x="11" y="20" width="1" height="1"/><path class="sa65-2" d="M12,21v1h1V21Z"/><path class="sa65-2" d="M16,23V22H13v1h3Z"/><path class="sa65-2" d="M16,22h1V21H16Z"/><rect class="sa65-2" x="17" y="20" width="1" height="1"/><rect class="sa65-2" x="18" y="19" width="1" height="1"/><path class="sa65-2" d="M19,17v2h1V16H19Z"/><path class="sa65-2" d="M20,13V12H19v1Z"/><path class="sa65-2" d="M18,12h1V11H17v1Z"/><path class="sa65-2" d="M17,11V10H12v1h5Z"/><path class="sa65-1" d="M0,7V33H8V32H6V31H5V22H6V21H7V20H5v1H2V17H5V16H7V11H8V10H9V9h1V8h1V7h7V8h1V9h1v1h1v1h1v9H21v1H20v1H19v1H18v1h1v1h2v1h1v1h1v6h6V0H0Z"/><path class="sa65-6" d="M17,19H16v2h1V19Z"/><path class="sa65-6" d="M13,20V19h3V18H12v3h1Z"/><path class="sa65-7" d="M11,16h3V15h1v1h5V13H15v1H14V13H9v3h2Zm5-2h3v1H16Zm-6,0h3v1H10Z"/><path class="sa65-8" d="M19,15V14H16v1h3Z"/><path class="sa65-9" d="M13,15V14H10v1h3Z"/><path class="sa65-2" d="M15,19H13v1h3V19Z"/><path class="sa65-2" d="M17,18H16v1h1Z"/><path class="sa65-4" d="M7,24H8V22H6v2Z"/><path class="sa65-10" d="M8,22V20H7v2Z"/><path class="sa65-9" d="M5,17H2v1H5Z"/><path class="sa65-9" d="M2,19v1H5V19Z"/><path class="sa65-11" d="M2,21H5V20H2Z"/><path class="sa65-8" d="M6,18H8V16H5v2Z"/><path class="sa65-11" d="M5,18H2v1H5Z"/><path class="sa65-9" d="M7,18H5v1H8V18Z"/><path class="sa65-11" d="M8,19H5v1H8Z"/><path class="sa65-2" d="M7,21H6v1H7Z"/><path class="sa65-2" d="M9,22H8v2H9Z"/></svg>