<svg xmlns="http://www.w3.org/2000/svg" viewBox="0 0 29 33"><defs><style>polygon,rect,path{shape-rendering:crispedges;}.ya192-1{fill:#db5a8e;}.ya192-2{fill:#000000;}.ya192-3{fill:#d8be00;}.ya192-4{fill:#ce8452;}.ya192-5{fill:#6c9302;}.ya192-6{fill:#ffffff;}.ya192-7{fill:#473a35;}.ya192-8{fill:#473a35;}.ya192-9{fill:#d8be00;}.ya192-10{fill:#fad000;}</style></defs><path class="ya192-1" d="M6,32V27H7V26H8V25h2V24h1V23h1V22H11V21H10V20H9V17H8V15H9V10h1V9h1V8h7V9h1v1h1v5h1v2H20v3H19v1H18v1H17v1h1v1h1v1h2v1h1v1h1v6h6V0H0V33H6Z"/><path class="ya192-2" d="M23,27H22v6h1V27Z"/><path class="ya192-3" d="M21,28h1V27H21Z"/><path class="ya192-3" d="M21,31h1V30H21Z"/><rect class="ya192-2" x="21" y="26" width="1" height="1"/><path class="ya192-2" d="M21,30V27H20v6h1V30Z"/><path class="ya192-3" d="M14,27H9v1H20V27H14Z"/><path class="ya192-3" d="M15,31h5V30H15Z"/><rect class="ya192-3" x="9" y="30" width="5" height="1"/><path class="ya192-2" d="M20,26h1V25H19v1Z"/><rect class="ya192-3" x="16" y="24" width="1" height="1"/><path class="ya192-2" d="M16,24h1v1H16v1h2V25h1V24H18V23H16Z"/><rect class="ya192-2" x="15" y="24" width="1" height="1"/><rect class="ya192-2" x="14" y="32" width="1" height="1"/><rect class="ya192-2" x="14" y="30" width="1" height="1"/><path class="ya192-2" d="M15,29V28H14v1Z"/><path class="ya192-2" d="M15,26V25H14v2h1Z"/><rect class="ya192-2" x="13" y="24" width="1" height="1"/><path class="ya192-4" d="M15,24h1V23H13v1h1v1h1Z"/><rect class="ya192-3" x="12" y="24" width="1" height="1"/><path class="ya192-2" d="M11,26h2V25H12V24h1V23H11v1H10v1h1Z"/><path class="ya192-2" d="M10,25H8v1h2Z"/><path class="ya192-2" d="M9,30V27H8v6H9V30Z"/><path class="ya192-3" d="M7,31H8V30H7Z"/><path class="ya192-3" d="M8,28V27H7v1Z"/><rect class="ya192-2" x="7" y="26" width="1" height="1"/><path class="ya192-2" d="M7,30V27H6v6H7V30Z"/><path class="ya192-5" d="M15,31H9v2h5V32h1v1h5V31Z"/><path class="ya192-5" d="M15,29H14V28H9v2H20V28H15Z"/><path class="ya192-5" d="M18,26H16V25H15v2h6V26H19V25H18Z"/><path class="ya192-5" d="M9,27h5V25H13v1H11V25H10v1H8v1Z"/><path class="ya192-5" d="M7,29v1H8V28H7Z"/><path class="ya192-5" d="M7,31v2H8V31Z"/><path class="ya192-5" d="M21,31v2h1V31Z"/><path class="ya192-5" d="M21,29v1h1V28H21Z"/><path class="ya192-2" d="M21,16V15H20v1Z"/><path class="ya192-2" d="M19,15h1V14H19Z"/><path class="ya192-4" d="M10,14h2V13H10Z"/><path class="ya192-4" d="M10,16v1h1v1h1v1h1V18h3v1h1V18h1V17h1V16h1V15H18v1H17v1H16V14H15V12H14V11H13V10H11v1H10v1h2v1h1v2H9v1Zm4,0h1v1H14Z"/><path class="ya192-2" d="M9,15H8v1H9Z"/><rect class="ya192-2" x="14" y="16" width="1" height="1"/><path class="ya192-6" d="M12,15h1V14H12Z"/><path class="ya192-6" d="M10,14v1h1V14Z"/><path class="ya192-2" d="M11,14v1h1V14Z"/><path class="ya192-7" d="M13,14V13H12v1Z"/><rect class="ya192-7" x="10" y="12" width="2" height="1"/><path class="ya192-8" d="M15,18H13v1h3V18Z"/><path class="ya192-8" d="M14,23h3V22h1V21h1V20h1V16H19v1H18v1H17v1H16v1H13V19H12V18H11V17H10V16H9v4h1v1h1v1h1v1h2Z"/><rect class="ya192-2" x="13" y="19" width="3" height="1"/><path class="ya192-9" d="M10,14V11h1V10h2v1h1v1h1v2h1v3h1V16h1V15h1V14h1V10H19V9H18V8H11V9H10v1H9v5h1Z"/><path class="ya192-10" d="M20,17h1V16H20Z"/><path class="ya192-10" d="M8,16v1H9V16Z"/></svg>