<svg xmlns="http://www.w3.org/2000/svg" viewBox="0 0 29 33"><defs><style>polygon,rect,path{shape-rendering:crispedges;}.fa129-1{fill:#b4bd09;}.fa129-2{fill:#000000;}.fa129-3{fill:#ff1d99;}.fa129-4{fill:#b2622b;}.fa129-5{fill:#ffffff;}.fa129-6{fill:#ffffff;}.fa129-7{fill:#8e4717;}.fa129-8{fill:#d2d8b8;}.fa129-9{fill:#a3531d;}.fa129-10{fill:#c6ceb3;}.fa129-11{fill:#C6CEB3;}</style></defs><path class="fa129-1" d="M19,25h2V24H19Z"/><path class="fa129-1" d="M19,24V23h0V21H18v1H17v2h2Z"/><path class="fa129-1" d="M0,33H6V27H7V26H8V25h2V24h2V22H11V21H10v1H9V21H8V20H7V19H8V12H9V10h1V9h1V8h7V9h1v1h1v2h1v4h0v3h1v1H21v1h1v1h1v1h1v8H23v1H21v1h8V0H0Z"/><rect class="fa129-2" x="7" y="26" width="1" height="1"/><path class="fa129-2" d="M9,27H8v3H7V27H6v6H7V31H8v2H9V27Z"/><path class="fa129-2" d="M10,25H8v1h2Z"/><path class="fa129-2" d="M12,24H10v1h2Z"/><path class="fa129-2" d="M13,23h3v1h1V21H16v1H13V21H12v3h1Z"/><path class="fa129-2" d="M18,24H17v1h2V24Z"/><path class="fa129-2" d="M22,32h1V31H22V24H21v1H19v1h2v1H20v6h1V32Z"/><path class="fa129-2" d="M23,31h1V23H23v8Z"/><path class="fa129-3" d="M20,27h1V26H19V25H17v1H16v1H13V26H12V25H10v1H8v1H9v6h1V30h1V29h1V28h5v1h1v1h1v3h1V27Z"/><rect class="fa129-3" x="12" y="30" width="1" height="1"/><path class="fa129-3" d="M16,32H12v1h5V32Z"/><rect class="fa129-3" x="16" y="30" width="1" height="1"/><path class="fa129-2" d="M13,26v1h3V26H13Z"/><path class="fa129-4" d="M13,25v1h3V25h1V24H16V23H13v1H12v1Z"/><path class="fa129-3" d="M7,30H8V27H7v3Z"/><path class="fa129-4" d="M7,31v2H8V31Z"/><rect class="fa129-2" x="16" y="25" width="1" height="1"/><rect class="fa129-2" x="12" y="25" width="1" height="1"/><path class="fa129-5" d="M19,30H18V29H17V28H12v1H11v1H10v3h2V32h5v1h2V30Zm-6,1H12V30h1Zm4,0H16V30h1Z"/><path class="fa129-2" d="M20,16h1V15H20Z"/><rect class="fa129-2" x="19" y="14" width="1" height="1"/><path class="fa129-4" d="M18,20h0V19h1V16h1V15H16V13h1V11H16V10H13v1H12v1h1v1H11v1h2v1H9v1h1v3h1v1h1v1h1v1h3V21h1V20Zm-4-4h1v1H14Zm2,4H13V19H12V18h1v1h3Z"/><rect class="fa129-4" x="17" y="13" width="1" height="1"/><path class="fa129-2" d="M19,17v2h1V16H19Z"/><polygon class="fa129-2" points="18 20 19 20 19 19 18 19 18 20"/><rect class="fa129-2" x="17" y="20" width="1" height="1"/><rect class="fa129-2" x="11" y="20" width="1" height="1"/><rect class="fa129-2" x="10" y="19" width="1" height="1"/><path class="fa129-2" d="M10,14H9v1h1Z"/><path class="fa129-2" d="M10,16H9v3h1V16Z"/><path class="fa129-2" d="M9,15H8v1H9Z"/><rect class="fa129-2" x="14" y="16" width="1" height="1"/><path class="fa129-6" d="M13,15V14H12v1Z"/><path class="fa129-6" d="M11,15V14H10v1Z"/><path class="fa129-6" d="M19,15V14H18v1Z"/><path class="fa129-6" d="M16,14v1h1V14Z"/><path class="fa129-2" d="M12,15V14H11v1Z"/><path class="fa129-2" d="M17,15h1V14H17Z"/><path class="fa129-7" d="M13,12H11v1h2Z"/><path class="fa129-7" d="M17,13H16v1h1Z"/><path class="fa129-7" d="M18,13V12H17v1Z"/><rect class="fa129-2" x="13" y="19" width="3" height="1"/><rect class="fa129-2" x="12" y="18" width="1" height="1"/><path class="fa129-8" d="M20,16v3H19v1H18v1H17v1h1V21h3V20h1V19H21V16Z"/><path class="fa129-8" d="M9,14h2V12h1V11h1V10h3v1h1v1h1v2h2v1h1V12H20V10H19V9H18V8H11V9H10v1H9v2H8v3H9Z"/><path class="fa129-8" d="M10,20V19H9V16H8v3H7v1H8v1H9v1h1V21h1V20Z"/><path class="fa129-8" d="M11,21v1h1V21Z"/><path class="fa129-9" d="M20,23H19v1h2V23Z"/><path class="fa129-10" d="M20,22H19v1h3V22h0V21H20Z"/><path class="fa129-11" d="M20,22V21H19v1Z"/><path class="fa129-4" d="M21,23v1h1v7h1V23H21Z"/><path class="fa129-2" d="M22,23h1V22H22Z"/></svg>