<svg xmlns="http://www.w3.org/2000/svg" viewBox="0 0 29 33"><defs><style>polygon,rect,path{shape-rendering:crispedges;}.pa94-1{fill:#000000;}.pa94-2{fill:#6f7032;}.pa94-3{fill:#6f7032;}.pa94-4{fill:#b2622b;}.pa94-5{fill:#ffffff;}.pa94-6{fill:#e55b35;}.pa94-7{fill:#6e12ff;}</style></defs><path class="pa94-1" d="M23,27H22v6h1V27Z"/><path class="pa94-2" d="M22,27H21v6h1V27Z"/><rect class="pa94-1" x="21" y="26" width="1" height="1"/><path class="pa94-1" d="M21,27H20v6h1V27Z"/><path class="pa94-2" d="M9,27v2h1V28h1v1h1V25h1V24H11v1H10v1H8v1Z"/><rect class="pa94-2" x="18" y="29" width="1" height="1"/><rect class="pa94-2" x="10" y="29" width="1" height="1"/><path class="pa94-2" d="M19,32V31H18v1H17V30H16v1H15v1H13V30H12v2H11V31H10v1H9v1H20V32Z"/><path class="pa94-2" d="M16,25h1v4h1V28h1v1h1V27h1V26H19V25H18V24H16Z"/><path class="pa94-1" d="M20,26h1V25H19v1Z"/><rect class="pa94-1" x="18" y="24" width="1" height="1"/><rect class="pa94-1" x="18" y="22" width="1" height="1"/><rect class="pa94-2" x="17" y="22" width="1" height="1"/><path class="pa94-1" d="M13,25h3V24h2V23H17V22h1V21h1V20h1V17h1V15H20V13H9v2H8v2H9v3h1v1h1v1h1v1H11v1h2Zm3-10h2V14h1v2H16Zm0,6H13V20h3Zm-5-5H10V15h2V14h1v2Z"/><rect class="pa94-2" x="11" y="22" width="1" height="1"/><rect class="pa94-1" x="10" y="24" width="1" height="1"/><rect class="pa94-1" x="10" y="22" width="1" height="1"/><path class="pa94-1" d="M10,25H8v1h2Z"/><path class="pa94-1" d="M9,31V27H8v6H9V31Z"/><path class="pa94-2" d="M8,27H7v6H8V27Z"/><rect class="pa94-1" x="7" y="26" width="1" height="1"/><path class="pa94-1" d="M7,27H6v6H7V27Z"/><path class="pa94-2" d="M13,28h2v1h1V25H13v3Z"/><path class="pa94-2" d="M14,29v2h1V29Z"/><path class="pa94-3" d="M19,30H18V29H17v3h1V31h1v1h1V29H19Z"/><rect class="pa94-3" x="18" y="28" width="1" height="1"/><path class="pa94-3" d="M15,29v2h1V29Z"/><path class="pa94-3" d="M14,30V29h1V28H13v4h2V31H14Z"/><path class="pa94-3" d="M11,29v1H10V29H9v3h1V31h1v1h1V29Z"/><rect class="pa94-3" x="10" y="28" width="1" height="1"/><path class="pa94-1" d="M13,27V25H12v5h1V27Z"/><path class="pa94-1" d="M17,28V25H16v5h1V28Z"/><path class="pa94-4" d="M13,15H10v1h3Z"/><rect class="pa94-4" x="13" y="20" width="3" height="1"/><path class="pa94-4" d="M19,15H16v1h3Z"/><path class="pa94-5" d="M19,14H18v1h1Z"/><path class="pa94-5" d="M13,14H12v1h1Z"/><path class="pa94-6" d="M0,9V33H6V27H7V26H8V25h2V24h1V23H10V22h1V21H10V20H9V17H8V15H9V11h1V10h1V9h7v1h1v1h1v4h1v2H20v3H19v1H18v1h1v1H18v1h1v1h2v1h1v1h1v6h6V0H0Z"/><path class="pa94-1" d="M19,11V10H18V9H11v1H10v1h9Z"/><path class="pa94-5" d="M20,12V11H9v1H20Z"/><path class="pa94-7" d="M20,13V12H9v1H20Z"/></svg>