<svg xmlns="http://www.w3.org/2000/svg" viewBox="0 0 29 33"><defs><style>polygon,rect,path{shape-rendering:crispedges;}.pa223-1{fill:#31a09d;}.pa223-2{fill:#000000;}.pa223-3{fill:#ff1d99;}.pa223-4{fill:#b2622b;}.pa223-5{fill:#ff1d99;}.pa223-6{fill:#e2e2e2;}.pa223-7{fill:#ffffff;}.pa223-8{fill:#5a2de2;}.pa223-9{fill:#f9e100;}</style></defs><path class="pa223-1" d="M6,32V27H7V26H8V25h2V24h1V23H10V22h1V20H10V19H9V16H8V15H9V11h1V10h1V9h7v1h1v1h1v4h1v1H20v3H19v1H18v2h1v1H18v1h1v1h2v1h1v1h1v6h6V0H0V33H6Z"/><path class="pa223-2" d="M23,27H22v6h1V27Z"/><path class="pa223-3" d="M22,27H21v6h1V27Z"/><rect class="pa223-2" x="21" y="26" width="1" height="1"/><path class="pa223-2" d="M21,27H20v6h1V27Z"/><rect class="pa223-3" x="10" y="29" width="1" height="1"/><path class="pa223-3" d="M9,27v2h1V28h1v1h1V25h1V24H11v1H10v1H8v1Z"/><path class="pa223-3" d="M16,25h1v4h1V28h1v1h1V27h1V26H19V25H18V24H16Z"/><rect class="pa223-3" x="18" y="29" width="1" height="1"/><path class="pa223-3" d="M19,32V31H18v1H17V30H16v1H15v1H13V30H12v2H11V31H10v1H9v1H20V32Z"/><path class="pa223-2" d="M20,26h1V25H19v1Z"/><rect class="pa223-2" x="18" y="24" width="1" height="1"/><rect class="pa223-2" x="18" y="22" width="1" height="1"/><rect class="pa223-3" x="17" y="22" width="1" height="1"/><path class="pa223-2" d="M17,22h1V21H17Z"/><path class="pa223-2" d="M16,25V24H13v1h3Z"/><path class="pa223-4" d="M16,24V23H13v1h3Z"/><path class="pa223-2" d="M13,23V22H12v1H11v1h2Z"/><rect class="pa223-3" x="11" y="22" width="1" height="1"/><path class="pa223-2" d="M12,21H11v1h1Z"/><rect class="pa223-2" x="10" y="24" width="1" height="1"/><rect class="pa223-2" x="10" y="22" width="1" height="1"/><path class="pa223-2" d="M10,25H8v1h2Z"/><path class="pa223-2" d="M9,31V27H8v6H9V31Z"/><path class="pa223-3" d="M8,27H7v6H8V27Z"/><rect class="pa223-2" x="7" y="26" width="1" height="1"/><path class="pa223-2" d="M7,27H6v6H7V27Z"/><path class="pa223-3" d="M13,28h2v1h1V25H13v3Z"/><path class="pa223-3" d="M14,29v2h1V29Z"/><path class="pa223-5" d="M19,30H18V29H17v3h1V31h1v1h1V29H19Z"/><rect class="pa223-5" x="18" y="28" width="1" height="1"/><path class="pa223-5" d="M15,29v2h1V29Z"/><path class="pa223-5" d="M14,30V29h1V28H13v4h2V31H14Z"/><path class="pa223-5" d="M11,29v1H10V29H9v3h1V31h1v1h1V29Z"/><rect class="pa223-5" x="10" y="28" width="1" height="1"/><path class="pa223-2" d="M13,27V25H12v5h1V27Z"/><path class="pa223-2" d="M17,28V25H16v5h1V28Z"/><rect class="pa223-2" x="20" y="15" width="1" height="1"/><rect class="pa223-4" x="12" y="19" width="1" height="1"/><rect class="pa223-4" x="16" y="19" width="1" height="1"/><path class="pa223-4" d="M16,16V15H15v2H14V15H13v1H11v1H10v1h1v1h1V18h5v1h1V18h1V16H16Z"/><rect class="pa223-4" x="19" y="15" width="1" height="1"/><path class="pa223-4" d="M13,21h3V20H13Z"/><rect class="pa223-4" x="9" y="15" width="1" height="1"/><path class="pa223-2" d="M17,22H16v2h2V23H17Z"/><rect class="pa223-2" x="8" y="15" width="1" height="1"/><path class="pa223-2" d="M14,17h1V16H14Z"/><path class="pa223-6" d="M12,22h1v1h3V22h1V21h1V20h1V19h1V16H19v2H18v1H17v1H16v1H13V20H12V19H11V18H10V16H9v3h1v1h1v1h1Z"/><path class="pa223-2" d="M13,18H12v1h1Z"/><path class="pa223-2" d="M16,18v1h1V18Z"/><path class="pa223-2" d="M15,19V18H14v1H13v1h3V19Z"/><path class="pa223-7" d="M14,19V18H13v1Z"/><path class="pa223-7" d="M16,19V18H15v1Z"/><path class="pa223-8" d="M11,16H10v1h1Z"/><path class="pa223-8" d="M14,16h1V15H14Z"/><path class="pa223-8" d="M10,13h4v1h1V13h4v1h1V11H19V10H18V9H11v1H10v1H9v3h1Z"/><path class="pa223-9" d="M12,16h1V15h1V14H10v2h2Z"/><path class="pa223-9" d="M19,14H15v1h1v1h3V14Z"/><path class="pa223-2" d="M19,14V13H15v1h4Z"/><path class="pa223-2" d="M14,14V13H10v1h4Z"/><path class="pa223-2" d="M19,15h1V14H19Z"/><path class="pa223-2" d="M10,14H9v1h1Z"/><rect class="pa223-2" x="14" y="14" width="1" height="1"/></svg>