<svg xmlns="http://www.w3.org/2000/svg" viewBox="0 0 29 33"><defs><style>polygon,rect,path{shape-rendering:crispedges;}.aa250-1{fill:#d4a122;}.aa250-2{fill:#000000;}.aa250-3{fill:#b2622b;}.aa250-4{fill:#8c7850;}.aa250-5{fill:#8c7850;}.aa250-6{fill:#663228;}.aa250-7{fill:#ffffff;}.aa250-8{fill:#004a77;}.aa250-9{fill:#990000;}</style></defs><path class="aa250-1" d="M0,33H8V32H6V31H5V23H4V20H5V19H7v1H8v1H9v2H8v2h2V24h2V22H11V21H10V20H9V16H8V14H9V12H8v1H7V12H8V11H9V10h1V9h2V8h5V9h2v1h1v1h1v1h1v1H21V12H20v2h1v2H20v4H19v1H18v1H17v2h2v1h2v1h1v1h1v6h6V0H0Z"/><path class="aa250-2" d="M23,31V27H22v6h1Z"/><rect class="aa250-2" x="21" y="26" width="1" height="1"/><path class="aa250-3" d="M22,31V27H21v6h1Z"/><rect class="aa250-3" x="20" y="26" width="1" height="1"/><path class="aa250-2" d="M21,31V27H20v6h1Z"/><path class="aa250-2" d="M20,26h1V25H19v1Z"/><path class="aa250-4" d="M14,31v1h1V30H14Z"/><rect class="aa250-4" x="10" y="30" width="1" height="1"/><path class="aa250-4" d="M17,31V30h1V29h1v1h1V26H19V25H18v1H17v1H16v1H13V27H12V26H11V25H10v1H9v4h1V29h1v1h1v3h1V29h2v1h1v2H15v1h2Z"/><rect class="aa250-4" x="18" y="32" width="1" height="1"/><rect class="aa250-4" x="10" y="32" width="1" height="1"/><rect class="aa250-4" x="18" y="30" width="1" height="1"/><path class="aa250-2" d="M13,23V22H12v2h1Z"/><rect class="aa250-3" x="8" y="26" width="1" height="1"/><path class="aa250-2" d="M9,31V27H8V26h2V25H8V23H7v8H6v1H8v1H9Z"/><path class="aa250-3" d="M7,30V23H8V21H7V20H5v3H6v8H7Z"/><path class="aa250-2" d="M6,29V23H5v8H6Z"/><path class="aa250-2" d="M11,26h1V24H10v1h1Z"/><rect class="aa250-2" x="12" y="26" width="1" height="1"/><rect class="aa250-2" x="16" y="26" width="1" height="1"/><path class="aa250-2" d="M17,26h1V25h1V24H17Z"/><path class="aa250-2" d="M14,27H13v1h3V27Z"/><path class="aa250-3" d="M12,26h1v1h3V26h1V24H16V23H13v1H12Z"/><path class="aa250-5" d="M20,31V30H19v1H18V30H17v3h1V32h1v1h1Z"/><rect class="aa250-5" x="18" y="29" width="1" height="1"/><path class="aa250-5" d="M15,32h1V30H15Z"/><path class="aa250-5" d="M14,32V30h1V29H13v4h2V32Z"/><path class="aa250-5" d="M12,31V30H11v1H10V30H9v3h1V32h1v1h1Z"/><rect class="aa250-5" x="10" y="29" width="1" height="1"/><rect class="aa250-2" x="20" y="15" width="1" height="1"/><rect class="aa250-2" x="19" y="14" width="1" height="1"/><path class="aa250-3" d="M10,17v1h1v1h1V18h2v1h1V18h2v1h1V18h1V16h1V15H19V13H17v1h1v1H16v1H15v1H14V16H13V15H11V14h1V13H10v2H9v1h1Z"/><rect class="aa250-3" x="15" y="20" width="1" height="1"/><rect class="aa250-3" x="13" y="20" width="1" height="1"/><path class="aa250-2" d="M16,23v1h1V22H16Z"/><rect class="aa250-2" x="9" y="14" width="1" height="1"/><rect class="aa250-2" x="8" y="15" width="1" height="1"/><rect class="aa250-6" x="17" y="14" width="1" height="1"/><rect class="aa250-6" x="16" y="13" width="1" height="1"/><rect class="aa250-2" x="14" y="14" width="1" height="1"/><path class="aa250-7" d="M16,13H13v1H12v1h1v1h3V15h1V14H16Zm-1,2H14V14h1Z"/><path class="aa250-6" d="M14,13h2V12H13v1Z"/><rect class="aa250-6" x="12" y="13" width="1" height="1"/><rect class="aa250-6" x="11" y="14" width="1" height="1"/><rect class="aa250-2" x="14" y="16" width="1" height="1"/><rect class="aa250-3" x="14" y="11" width="1" height="1"/><rect class="aa250-3" x="16" y="12" width="1" height="1"/><rect class="aa250-3" x="12" y="12" width="1" height="1"/><rect class="aa250-8" x="13" y="18" width="1" height="1"/><path class="aa250-8" d="M13,23h3V22h2V21h1V20h1V16H19v2H18v1H17V18H15v1h1v2H15V20H14v1H13V19H11V18H10V16H9v4h1v1h1v1h2Z"/><path class="aa250-2" d="M13,19v1h3V19Z"/><rect class="aa250-2" x="12" y="18" width="1" height="1"/><path class="aa250-2" d="M8,23H9V21H8Z"/><rect class="aa250-2" x="7" y="20" width="1" height="1"/><rect class="aa250-2" x="5" y="19" width="2" height="1"/><path class="aa250-2" d="M5,21V20H4v3H5Z"/><rect class="aa250-9" x="21" y="12" width="1" height="1"/><path class="aa250-9" d="M10,13h2V12h2V11h1v1h2v1h2v1h1V12h1V11H20V10H19V9H17V8H12V9H10v1H9v1H8v1H9v2h1Z"/><rect class="aa250-9" x="20" y="14" width="1" height="1"/><rect class="aa250-9" x="8" y="14" width="1" height="1"/><rect class="aa250-9" x="7" y="12" width="1" height="1"/></svg>