<svg xmlns="http://www.w3.org/2000/svg" viewBox="0 0 29 33"><defs><style>polygon,rect,path{shape-rendering:crispedges;}.oa70-1{fill:#d4a122;}.oa70-2{fill:#000000;}.oa70-3{fill:#b8a4ff;}.oa70-4{fill:#ffffff;}.oa70-5{fill:#efcaaf;}.oa70-6{fill:#5a2de2;}.oa70-7{fill:#ffffff;}.oa70-8{fill:#6f7032;}.oa70-9{fill:#ff1d99;}</style></defs><path class="oa70-1" d="M0,33H6V27H7V26H8V25h2V24h2V21H10v1H9V21H8V20H9V17H8V12H9V10h1V9h1V8h7V9h1v1h1v2h1v6H20v2h1v1H20v1H19V21H17v3h2v1h2v1h1v1h1v6h6V0H0Z"/><path class="oa70-2" d="M23,27H22v6h1V27Z"/><rect class="oa70-2" x="21" y="26" width="1" height="1"/><path class="oa70-3" d="M21,30v1h1V29H21Z"/><path class="oa70-3" d="M21,28h1V27H21Z"/><path class="oa70-3" d="M21,32v1h1V32Z"/><path class="oa70-2" d="M21,31V27H20v6h1V31Z"/><path class="oa70-3" d="M19,26v1H18v3h1v1h1V29H19V28h1V27h1V26H19Z"/><path class="oa70-3" d="M19,32v1h1V32Z"/><path class="oa70-2" d="M20,26h1V25H19v1Z"/><path class="oa70-2" d="M18,30V25h1V24H17v1H16v1h1v7h1V30Z"/><path class="oa70-4" d="M17,26H16v1H13V26H12v7h5V26Z"/><path class="oa70-2" d="M13,26v1h3V26H13Z"/><path class="oa70-2" d="M13,23h3v1h1V21H16v1H13V21H12v3h1Z"/><path class="oa70-5" d="M13,25v1h3V25h1V24H16V23H13v1H12v1Z"/><path class="oa70-2" d="M12,26h1V25H12V24H10v1h1v8h1V26Z"/><path class="oa70-3" d="M9,27v1h1v1H9v2h1V30h1V27H10V26H8v1Z"/><rect class="oa70-3" x="9" y="32" width="1" height="1"/><path class="oa70-2" d="M10,25H8v1h2Z"/><path class="oa70-2" d="M9,31V27H8v6H9V31Z"/><rect class="oa70-2" x="7" y="26" width="1" height="1"/><path class="oa70-3" d="M8,28V27H7v1Z"/><path class="oa70-3" d="M7,32v1H8V32Z"/><path class="oa70-3" d="M7,30v1H8V29H7Z"/><path class="oa70-2" d="M7,31V27H6v6H7V31Z"/><path class="oa70-6" d="M11,30H10v1H9v1h1v1h1V30Z"/><path class="oa70-6" d="M10,27h1V25H10v2Z"/><path class="oa70-6" d="M18,26v1h1V25H18Z"/><path class="oa70-6" d="M7,29H8V28H7Z"/><path class="oa70-6" d="M10,28H9v1h1Z"/><path class="oa70-6" d="M21,29h1V28H21Z"/><path class="oa70-6" d="M19,29h1V28H19Z"/><path class="oa70-6" d="M21,32h1V31H21Z"/><path class="oa70-6" d="M7,32H8V31H7Z"/><path class="oa70-6" d="M20,32V31H19V30H18v3h1V32Z"/><path class="oa70-5" d="M13,22h3V21h1V20h1V19h1V16h1V15H16V13h1V11H16V10H15v1H14v1H13v1H12v1h1v1H10v4h1v1h1v1h1Zm1-6h1v1H14Zm-2,3V18h1v1h3v1H13V19Z"/><path class="oa70-5" d="M18,14h1V13H17v1Z"/><path class="oa70-2" d="M19,16v3h1V16Z"/><rect class="oa70-2" x="18" y="19" width="1" height="1"/><path class="oa70-2" d="M17,20v1h1V20Z"/><path class="oa70-2" d="M11,20v1h1V20Z"/><rect class="oa70-2" x="10" y="19" width="1" height="1"/><path class="oa70-2" d="M10,18H9v1h1Z"/><rect class="oa70-2" x="14" y="16" width="1" height="1"/><path class="oa70-7" d="M10,14v1h1V14Z"/><path class="oa70-7" d="M16,14v1h1V14Z"/><path class="oa70-2" d="M11,15h2V14H11Z"/><path class="oa70-2" d="M18,14H17v1h2V14Z"/><path class="oa70-8" d="M17,13H16v1h1Z"/><path class="oa70-8" d="M18,12H17v1h1Z"/><rect class="oa70-2" x="13" y="19" width="3" height="1"/><rect class="oa70-2" x="12" y="18" width="1" height="1"/><path class="oa70-9" d="M19,20H18v1h1v1h1V21h1V20H20V19H19Z"/><path class="oa70-9" d="M10,20V19H9v1H8v1H9v1h1V21h1V20Z"/><path class="oa70-9" d="M10,17V14h2V13h1V12h1V11h1V10h1v1h1v1h1v1h1v2h1v3h1V12H20V10H19V9H18V8H11V9H10v1H9v2H8v5H9v1h1Z"/></svg>