<svg xmlns="http://www.w3.org/2000/svg" viewBox="0 0 29 33"><defs><style>polygon,rect,path{shape-rendering:crispedges;}.pa100-1{fill:#d4a122;}.pa100-2{fill:#000000;}.pa100-3{fill:#004a77;}.pa100-4{fill:#a56e49;}.pa100-5{fill:#ff791f;}.pa100-6{fill:#ffffff;}.pa100-7{fill:#663228;}.pa100-8{fill:#fad000;}.pa100-9{fill:#663228;}.pa100-10{fill:#ff1f4a;}.pa100-11{fill:#560000;}.pa100-12{fill:#825fff;}</style></defs><path class="pa100-1" d="M6,32V27H7V26H8V25h2V24h1V23H10V22h1V20H10V19H9V16H8V14H9V12H8v1H7V12H8V11H9V10h1V9h2V8h5V9h2v1h1v1h1v1h1v1H21V12H20v2h1v2H20v3H19v1H18v2h1v1H18v1h1v1h2v1h1v1h1v6h6V0H0V33H6Z"/><path class="pa100-2" d="M23,27H22v6h1V27Z"/><path class="pa100-3" d="M22,27H21v6h1V27Z"/><rect class="pa100-2" x="21" y="26" width="1" height="1"/><path class="pa100-2" d="M21,27H20v6h1V27Z"/><rect class="pa100-3" x="10" y="29" width="1" height="1"/><path class="pa100-3" d="M18,26v1H17v2h1V28h1v1h1V27h1V26H18Z"/><path class="pa100-3" d="M19,32V31H18v1H17V30H16v1H15v1H13V30H12v2H11V31H10v1H9v1H20V32Z"/><rect class="pa100-3" x="18" y="29" width="1" height="1"/><path class="pa100-3" d="M9,27v2h1V28h1v1h1V27H11V26H8v1Z"/><rect class="pa100-2" x="18" y="22" width="1" height="1"/><rect class="pa100-3" x="17" y="22" width="1" height="1"/><path class="pa100-2" d="M17,22h1V21H17Z"/><path class="pa100-4" d="M13,23v1h3V23H13Z"/><rect class="pa100-3" x="11" y="22" width="1" height="1"/><path class="pa100-2" d="M12,21H11v1h1Z"/><rect class="pa100-2" x="10" y="22" width="1" height="1"/><path class="pa100-2" d="M11,26V24H10v1H8v1h3Z"/><path class="pa100-2" d="M9,31V27H8v6H9V31Z"/><path class="pa100-3" d="M8,27H7v6H8V27Z"/><rect class="pa100-2" x="7" y="26" width="1" height="1"/><path class="pa100-2" d="M7,27H6v6H7V27Z"/><rect class="pa100-3" x="13" y="25" width="1" height="1"/><rect class="pa100-3" x="15" y="25" width="1" height="1"/><path class="pa100-5" d="M19,30H18V29H17v3h1V31h1v1h1V29H19Z"/><rect class="pa100-5" x="18" y="28" width="1" height="1"/><rect class="pa100-5" x="15" y="30" width="1" height="1"/><path class="pa100-5" d="M14,30H13v2h2V31H14Z"/><path class="pa100-5" d="M11,29v1H10V29H9v3h1V31h1v1h1V29Z"/><rect class="pa100-5" x="10" y="28" width="1" height="1"/><path class="pa100-2" d="M17,28V27H16v1H15v2h2V28Z"/><path class="pa100-2" d="M20,16h1V15H20Z"/><rect class="pa100-2" x="19" y="14" width="1" height="1"/><path class="pa100-4" d="M19,15H16V13h1V12H15v3H14v1h1v1H14V16H13v1H11V16H10v2h1v1h1V18h2v1h1V18h2v1h1V18h1V16h1V15Z"/><rect class="pa100-4" x="9" y="15" width="1" height="1"/><rect class="pa100-4" x="15" y="20" width="1" height="1"/><rect class="pa100-4" x="13" y="20" width="1" height="1"/><path class="pa100-2" d="M19,17h1V16H19Z"/><path class="pa100-2" d="M10,16H9v1h1Z"/><path class="pa100-2" d="M8,15v1H9V15Z"/><rect class="pa100-2" x="14" y="16" width="1" height="1"/><path class="pa100-6" d="M18,15h1V14H18Z"/><path class="pa100-2" d="M17,14H16v1h2V14Z"/><path class="pa100-7" d="M16,14h3V13H16Z"/><rect class="pa100-2" x="14" y="30" width="1" height="1"/><path class="pa100-2" d="M14,29V28H13V27H12v3h2Z"/><rect class="pa100-2" x="17" y="26" width="1" height="1"/><rect class="pa100-2" x="11" y="26" width="1" height="1"/><rect class="pa100-2" x="13" y="26" width="1" height="1"/><rect class="pa100-2" x="15" y="26" width="1" height="1"/><path class="pa100-2" d="M12,25v1h1V25h1v1h1V25h1v1h1V24h1V23H17V22H16v2H13V22H12v1H11v1h1Z"/><rect class="pa100-8" x="16" y="26" width="1" height="1"/><path class="pa100-8" d="M13,27v1h1v2h1V28h1V27H15V26H14v1Z"/><rect class="pa100-8" x="12" y="26" width="1" height="1"/><path class="pa100-8" d="M12,26V24H11v2Z"/><path class="pa100-8" d="M17,25v1h1V24H17Z"/><path class="pa100-2" d="M19,26h2V25H19V24H18v2Z"/><path class="pa100-9" d="M15,18v1h1V18Z"/><path class="pa100-9" d="M12,22h1v1h3V22h1V21h1V20h1V19h1V17H19v1H18v1H16v2H15V20H14v1H13V19h1V18H12v1H11V18H10V17H9v2h1v1h1v1h1Z"/><path class="pa100-2" d="M14,19H13v1h3V19H14Z"/><path class="pa100-2" d="M16,18v1h1V18Z"/><path class="pa100-10" d="M12,15h1V13H11v2Z"/><path class="pa100-11" d="M13,13v2h1V13Z"/><path class="pa100-11" d="M12,15H11v1h2V15Z"/><path class="pa100-11" d="M11,13H10v2h1Z"/><path class="pa100-11" d="M13,12H12v1h1Z"/><rect class="pa100-2" x="10" y="15" width="1" height="1"/><rect class="pa100-2" x="11" y="16" width="2" height="1"/><rect class="pa100-2" x="13" y="15" width="1" height="1"/><path class="pa100-2" d="M14,13v2h1V11H14v1H13v1Z"/><path class="pa100-2" d="M10,15V14H9v1Z"/><rect class="pa100-12" x="21" y="12" width="1" height="1"/><path class="pa100-12" d="M10,13h2V12h2V11h1v1h2v1h2v1h1V12h1V11H20V10H19V9H17V8H12V9H10v1H9v1H8v1H9v2h1Z"/><path class="pa100-12" d="M21,15V14H20v1Z"/><path class="pa100-12" d="M9,14H8v1H9Z"/><rect class="pa100-12" x="7" y="12" width="1" height="1"/></svg>