<svg xmlns="http://www.w3.org/2000/svg" viewBox="0 0 29 33"><defs><style>polygon,rect,path{shape-rendering:crispedges;}.aa230-1{fill:#31a09d;}.aa230-2{fill:#000000;}.aa230-3{fill:#ce8452;}.aa230-4{fill:#d8be00;}.aa230-5{fill:#ffed9f;}.aa230-6{fill:#492a23;}.aa230-7{fill:#492a23;}.aa230-8{fill:#990000;}</style></defs><path class="aa230-1" d="M0,33H6V27H7V26H8V25h2V24h2V21H11V20H10V19H9V16H8V14H9V12H8V11H9V10h1V9h2V8h5V9h2v1h1v1h1v1H20v4H19v3h0V16h1V14h1v2H20v3H19v1H18v1H17v3h2v1h2v1h1v1h1v6h6V0H0ZM21,12h1v1H21ZM7,12H8v1H7Z"/><rect class="aa230-1" x="9" y="16" width="1"/><rect class="aa230-1" x="14" y="16" width="1"/><rect class="aa230-1" x="14" y="17" width="1"/><path class="aa230-2" d="M23,31V27H22v6h1Z"/><rect class="aa230-2" x="21" y="26" width="1" height="1"/><path class="aa230-3" d="M22,31V27H21v6h1Z"/><rect class="aa230-3" x="20" y="26" width="1" height="1"/><path class="aa230-2" d="M21,31V27H20v6h1Z"/><path class="aa230-2" d="M20,26h1V25H19v1Z"/><rect class="aa230-4" x="12" y="30" width="1" height="1"/><path class="aa230-4" d="M10,31V30h1V29h1V28h1V27H12V26H11V25H10v1H9v7h1Z"/><path class="aa230-4" d="M16,32H12v1h5V32Z"/><rect class="aa230-4" x="16" y="30" width="1" height="1"/><path class="aa230-4" d="M20,31V26H19V25H18v1H17v1H16v1h1v1h1v1h1v3h1Z"/><path class="aa230-2" d="M17,26h1V25h1V24H17Z"/><rect class="aa230-2" x="16" y="26" width="1" height="1"/><path class="aa230-2" d="M14,27H13v1h3V27Z"/><path class="aa230-2" d="M13,23h3v1h1V21H16v1H13V21H12v3h1Z"/><path class="aa230-3" d="M12,26h1v1h3V26h1V24H16V23H13v1H12Z"/><rect class="aa230-2" x="12" y="26" width="1" height="1"/><path class="aa230-2" d="M11,26h1V24H10v1h1Z"/><path class="aa230-2" d="M10,26V25H8v1Z"/><rect class="aa230-3" x="8" y="26" width="1" height="1"/><path class="aa230-2" d="M9,31V27H8v6H9Z"/><rect class="aa230-2" x="7" y="26" width="1" height="1"/><path class="aa230-3" d="M8,31V27H7v6H8Z"/><path class="aa230-2" d="M7,31V27H6v6H7Z"/><path class="aa230-5" d="M19,31V30H18V29H17V28H12v1H11v1H10v3h2V32h5v1h2Zm-6,0H12V30h1Zm4,0H16V30h1Z"/><rect class="aa230-2" x="20" y="15" width="1" height="1"/><rect class="aa230-3" x="10" y="13" width="1"/><path class="aa230-3" d="M12,19V18h5v2h1V19h1V16h1V15H18v1H16V15H15V14H14v1H13v1H11V15H9v1h1v3h1v1h1Zm2-2V16h1v1Z"/><rect class="aa230-3" x="18" y="13" width="1" height="1"/><path class="aa230-3" d="M17,12H15V11H14v1H13v1h4Z"/><path class="aa230-3" d="M13,20v2h3V20Z"/><path class="aa230-2" d="M20,18V16H19v3h1Z"/><polygon class="aa230-2" points="18 19 18 20 19 20 19 19 18 19 18 19"/><polygon class="aa230-2" points="17 20 17 21 18 21 18 20 17 20 17 20"/><polygon class="aa230-2" points="12 20 11 20 11 21 12 21 12 20"/><polygon class="aa230-2" points="11 19 10 19 10 20 11 20 11 19"/><path class="aa230-2" d="M10,18V16H9v3h1Z"/><polygon class="aa230-2" points="9 15 8 15 8 16 9 16 9 15"/><rect class="aa230-2" x="14" y="16" width="1" height="1"/><rect class="aa230-6" x="10" y="13" width="1" height="1"/><rect class="aa230-6" x="12" y="12" width="1" height="1"/><rect class="aa230-6" x="18" y="13" width="1"/><path class="aa230-7" d="M13,20V19H12v2h1Z"/><path class="aa230-7" d="M17,20V18H13v1h3v2h1Z"/><path class="aa230-2" d="M16,19H13v1h3Z"/><rect class="aa230-2" x="12" y="18" width="1" height="1"/><rect class="aa230-8" x="21" y="12" width="1" height="1"/><path class="aa230-8" d="M10,13h2V12h2V11h1v1h2v1h2v1h1V12h1V11H20V10H19V9H17V8H12V9H10v1H9v1H8v1H9v2h1Z"/><rect class="aa230-8" x="20" y="14" width="1" height="1"/><polygon class="aa230-8" points="9 15 9 14 8 14 8 15 9 15 9 15"/><rect class="aa230-8" x="7" y="12" width="1" height="1"/><path class="aa230-2" d="M10,15h1v1h2V15h1V14h1v1h1v1h2V15h2V14H18V13H11v1H9v1Z"/></svg>