<svg xmlns="http://www.w3.org/2000/svg" viewBox="0 0 29 33"><defs><style>polygon,rect,path{shape-rendering:crispedges;}.bb269-1{fill:#b4bd09;}.bb269-2{fill:#000000;}.bb269-3{fill:#333333;}.bb269-4{fill:#ffffff;}.bb269-5{fill:#e8b795;}.bb269-6{fill:#66334f;}.bb269-7{fill:#66334f;}.bb269-8{fill:#0068ff;}.bb269-9{fill:#dfdfdf;}.bb269-10{fill:#a89969;}</style></defs><path class="bb269-1" d="M0,33H6V27H7V26H8V25h2V24h1V23h1V22H11V21H10V20H9V18H8V13H7V12H5V11H7v1H9V10h1V8h1V7h2V8h3V7h2V8h1V7h1V6h2V8H21V9H20v3h2V11h2v1H22v1H21v5H20v2H19v1H18v1H17v1h1v1h1v1h2v1h1v1h1v6h6V0H0Z"/><path class="bb269-2" d="M23,27H22v6h1V27Z"/><path class="bb269-3" d="M22,27H21v6h1V27Z"/><rect class="bb269-2" x="21" y="26" width="1" height="1"/><path class="bb269-2" d="M21,27H20v6h1V27Z"/><path class="bb269-3" d="M20,27h1V26H19V25H18v4H17v4h3V27Z"/><path class="bb269-2" d="M20,26h1V25H19v1Z"/><path class="bb269-2" d="M17,29H16v4h1V29Z"/><rect class="bb269-4" x="16" y="24" width="1" height="1"/><path class="bb269-2" d="M16,24h1v1H16v1h1v3h1V25h1V24H18V23H16Z"/><path class="bb269-4" d="M16,29h1V26H16V25H13v1H12v3h1v4h1V32h1v1h1V29Zm-1,2H14V30h1Zm0-2H14V28h1Zm0-2H14V26h1Z"/><rect class="bb269-4" x="15" y="23" width="1" height="1"/><rect class="bb269-2" x="14" y="32" width="1" height="1"/><rect class="bb269-2" x="14" y="30" width="1" height="1"/><rect class="bb269-2" x="14" y="28" width="1" height="1"/><rect class="bb269-2" x="14" y="26" width="1" height="1"/><path class="bb269-2" d="M15,24V23H14v1H13v1h3V24Z"/><rect class="bb269-4" x="13" y="23" width="1" height="1"/><path class="bb269-2" d="M13,29H12v4h1V29Z"/><rect class="bb269-4" x="12" y="24" width="1" height="1"/><path class="bb269-3" d="M12,29H11V25H10v1H8v1H9v6h3V29Z"/><path class="bb269-2" d="M11,26v3h1V26h1V25H12V24h1V23H11v1H10v1h1Z"/><path class="bb269-2" d="M10,25H8v1h2Z"/><path class="bb269-2" d="M9,27H8v6H9V27Z"/><path class="bb269-3" d="M8,27H7v6H8V27Z"/><rect class="bb269-2" x="7" y="26" width="1" height="1"/><path class="bb269-2" d="M7,27H6v6H7V27Z"/><rect class="bb269-2" x="19" y="14" width="1" height="1"/><rect class="bb269-5" x="9" y="15" width="1" height="1"/><rect class="bb269-5" x="11" y="13" width="1" height="1"/><rect class="bb269-5" x="17" y="13" width="1" height="1"/><rect class="bb269-5" x="19" y="15" width="1" height="1"/><path class="bb269-5" d="M18,15H16v1H15v1H14V16h1V14h1V13H14v2H13v2H12V15H11v3h1v1h1V18h5V15Z"/><rect class="bb269-2" x="14" y="16" width="1" height="1"/><rect class="bb269-4" x="12" y="14" width="1" height="1"/><path class="bb269-4" d="M16,14v1h1V14Z"/><rect class="bb269-2" x="11" y="14" width="1" height="1"/><path class="bb269-2" d="M17,15h1V14H17Z"/><rect class="bb269-6" x="12" y="13" width="1" height="1"/><path class="bb269-7" d="M15,18H13v1h3V18Z"/><path class="bb269-7" d="M19,16v2h1V16Z"/><path class="bb269-7" d="M14,23h3V22h1V21h1V18H17v1H16v1H13V19H12V18H10v3h1v1h1v1h2Z"/><path class="bb269-7" d="M10,17V16H9v2h1Z"/><rect class="bb269-2" x="13" y="19" width="3" height="1"/><path class="bb269-2" d="M16,19h1V18H16Z"/><path class="bb269-8" d="M9,15h1v3h1V13H8v5H9V15Z"/><path class="bb269-8" d="M18,13v5h1V14h1v4h1V13H18Z"/><rect class="bb269-8" x="16" y="13" width="1" height="1"/><path class="bb269-8" d="M13,15h1V13H13v2Z"/><path class="bb269-8" d="M19,19v1h1V18H19Z"/><path class="bb269-8" d="M15,14v2h1V14Z"/><path class="bb269-8" d="M12,16v1h1V15H12Z"/><path class="bb269-8" d="M9,18v2h1V18Z"/><path class="bb269-2" d="M24,11H22v1h2Z"/><path class="bb269-9" d="M21,8h1V7H21Z"/><path class="bb269-2" d="M11,13H22V12H20V11H19v1H10V11H9v1H7v1h4Z"/><rect class="bb269-9" x="20" y="8" width="1" height="1"/><path class="bb269-10" d="M19,11h1V10H19Z"/><path class="bb269-4" d="M18,11h1V10h1V8h1V7h1V6H20V7H19V8H18v3Z"/><path class="bb269-10" d="M17,11H10v1h9V11H17Z"/><path class="bb269-2" d="M11,11h7V7H16V8H13V7H11V8H10v3Z"/><path class="bb269-10" d="M10,10H9v1h1Z"/><path class="bb269-2" d="M6,11H5v1H7V11Z"/></svg>