<svg xmlns="http://www.w3.org/2000/svg" viewBox="0 0 29 33"><defs><style>polygon,rect,path{shape-rendering:crispedges;}.ya249-1{fill:#d14646;}.ya249-2{fill:#000000;}.ya249-3{fill:#825fff;}.ya249-4{fill:#c18d59;}.ya249-5{fill:#5a2de2;}.ya249-6{fill:#000000;}.ya249-7{fill:#000000;}.ya249-8{fill:#ff6c77;}.ya249-9{fill:#fad000;}.ya249-10{fill:#db5800;}</style></defs><path class="ya249-1" d="M8,32H6V31H5V23H4V20H5V19H7v1H8v1H9v2H8v2h2V24h1V23h1V21H10V20H9V18H8V12H9V11h1V10h1V9h7v1h1v1h1v2h1v5H20v2H19v1H17v2h1v1h1v1h2v1h1v1h1v6h6V0H0V33H8Z"/><path class="ya249-2" d="M6,29V23H5v8H6V29Z"/><path class="ya249-2" d="M23,27H22v6h1V27Z"/><path class="ya249-3" d="M21,31v2h1V31Z"/><path class="ya249-3" d="M21,28v2h1V27H21Z"/><rect class="ya249-2" x="21" y="26" width="1" height="1"/><path class="ya249-2" d="M21,30V27H20v6h1V30Z"/><path class="ya249-3" d="M20,32V26H19V25H18v1H17v1H16V25H15v2H14V25H13v2H12V26H11V25H10v1H9v6h1v1h4V32h1v1h4V32Zm-9-3H10V28h1Zm2,2H12V30h1Zm2,0H14V30h1Zm0-2H14V28h1Zm2,2H16V30h1Zm1-2V28h1v1Z"/><path class="ya249-2" d="M20,26h1V25H19v1Z"/><rect class="ya249-3" x="16" y="24" width="1" height="1"/><rect class="ya249-2" x="15" y="24" width="1" height="1"/><rect class="ya249-2" x="14" y="32" width="1" height="1"/><rect class="ya249-2" x="14" y="30" width="1" height="1"/><rect class="ya249-2" x="14" y="28" width="1" height="1"/><path class="ya249-2" d="M14,26v1h1V25H14Z"/><rect class="ya249-2" x="13" y="24" width="1" height="1"/><path class="ya249-4" d="M16,24V23H13v1h1v1h1V24Z"/><rect class="ya249-3" x="12" y="24" width="1" height="1"/><path class="ya249-2" d="M11,26h2V25H12V24h1V23h3v1h1v1H16v1h2V25h1V24H18V23H17V21H16v1H13V21H12v2H11v1H10v1h1Z"/><path class="ya249-2" d="M9,31V27H8V26h2V25H8V23H7v8H6v1H8v1H9V31Z"/><path class="ya249-3" d="M6,27v2H7V26H6Z"/><path class="ya249-3" d="M7,30H6v1H7Z"/><path class="ya249-3" d="M6,25H7V24H6Z"/><rect class="ya249-5" x="10" y="28" width="1" height="1"/><rect class="ya249-5" x="12" y="30" width="1" height="1"/><path class="ya249-5" d="M12,27h1V26H12Z"/><rect class="ya249-5" x="16" y="30" width="1" height="1"/><rect class="ya249-5" x="18" y="28" width="1" height="1"/><path class="ya249-5" d="M16,27h1V26H16Z"/><path class="ya249-5" d="M8,27H9V26H8Z"/><path class="ya249-5" d="M19,32v1h1V32Z"/><path class="ya249-5" d="M9,32v1h1V32Z"/><path class="ya249-5" d="M6,30H7V29H6Z"/><path class="ya249-5" d="M6,26H7V25H6Z"/><path class="ya249-5" d="M21,31h1V30H21Z"/><path class="ya249-5" d="M20,27h1V26H20Z"/><rect class="ya249-4" x="11" y="11" width="1" height="1"/><rect class="ya249-4" x="16" y="12" width="1" height="1"/><path class="ya249-4" d="M13,22h3V21h1V20h1V16H17v1H16V15H14v1h1v1H14V16H11v4h1v1h1Zm-1-3V18h5v1H16v1H13V19Z"/><rect class="ya249-4" x="9" y="15" width="1" height="1"/><rect class="ya249-4" x="19" y="15" width="1" height="1"/><path class="ya249-4" d="M14,14h1V11H14v1H13v1h1Z"/><rect class="ya249-2" x="19" y="16" width="1" height="1"/><rect class="ya249-2" x="9" y="16" width="1" height="1"/><rect class="ya249-2" x="14" y="16" width="1" height="1"/><rect class="ya249-6" x="11" y="12" width="1" height="1"/><rect class="ya249-6" x="17" y="12" width="1" height="1"/><path class="ya249-7" d="M19,18H18v2H17v1h2V18Z"/><rect class="ya249-7" x="19" y="17" width="1" height="1"/><path class="ya249-7" d="M11,20V18H10v3h2V20Z"/><rect class="ya249-7" x="9" y="17" width="1" height="1"/><polygon class="ya249-2" points="13 20 16 20 16 19 17 19 17 18 12 18 12 19 13 19 13 20"/><path class="ya249-2" d="M9,23V21H8v2Z"/><rect class="ya249-2" x="7" y="20" width="1" height="1"/><rect class="ya249-2" x="5" y="19" width="2" height="1"/><path class="ya249-2" d="M5,20H4v3H5V20Z"/><path class="ya249-4" d="M6,24H7V23H8V21H7V20H5v3H6Z"/><path class="ya249-8" d="M8,17v1H9V17Z"/><path class="ya249-8" d="M20,18h1V17H20Z"/><path class="ya249-8" d="M10,17v1h1V16H10Z"/><path class="ya249-8" d="M19,17V16H18v2h1Z"/><path class="ya249-8" d="M9,15V14h1V13h1V11h1v2h1V12h1V11h1v2h1V12h2v1h1v1h1v2h1V13H20V11H19V10H18V9H11v1H10v1H9v1H8v4H9Z"/><path class="ya249-8" d="M9,18v2h1V18Z"/><path class="ya249-8" d="M13,16h1V15H13Z"/><path class="ya249-8" d="M16,17h1V16H16Z"/><path class="ya249-8" d="M19,19v1h1V18H19Z"/><path class="ya249-9" d="M20,17h1V16H20Z"/><path class="ya249-9" d="M9,16H8v1H9Z"/><path class="ya249-10" d="M13,14H10v2h3V15h1V14Z"/><path class="ya249-10" d="M19,15V14H15v1h1v1h3Z"/><path class="ya249-2" d="M16,14h3V13H15v1Z"/><path class="ya249-2" d="M13,14h1V13H10v1h3Z"/><path class="ya249-2" d="M20,15V14H19v1Z"/><path class="ya249-2" d="M10,14H9v1h1Z"/><path class="ya249-2" d="M14,14v1h1V14Z"/></svg>