<svg xmlns="http://www.w3.org/2000/svg" viewBox="0 0 29 33"><defs><style>polygon,rect,path{shape-rendering:crispedges;}.ib99-1{fill:#d4a122;}.ib99-2{fill:#000000;}.ib99-3{fill:#b2622b;}.ib99-4{fill:#ffffff;}.ib99-5{fill:#9b8100;}.ib99-6{fill:#fad000;}.ib99-7{fill:#00686d;}.ib99-8{fill:#ff1f4a;}.ib99-9{fill:#560000;}</style></defs><path class="ib99-1" d="M6,32V27H7V26H8V25h2V23h1V22h1V21H11V20H9V18H8V12H9V11h1V10h1V9h7v1h1v1h1v2h1v5H20v2H18v1H17v1h1v1h1v2h2v1h1v1h1v6h6V0H0V33H6Z"/><path class="ib99-2" d="M23,27H22v6h1V27Z"/><path class="ib99-3" d="M22,27H21v6h1V27Z"/><rect class="ib99-2" x="21" y="26" width="1" height="1"/><path class="ib99-2" d="M21,27H20v6h1V27Z"/><path class="ib99-3" d="M20,27h1V26H19V25H18v1H17v1H16v2H15v4h5V27Zm-2,2H17V28h1Z"/><path class="ib99-3" d="M14,29H13V27H12V26H11V25H10v1H8v1H9v6h5V29Zm-2,0H11V28h1Z"/><path class="ib99-3" d="M14,24h1v1h1V23H13v2h1Z"/><path class="ib99-2" d="M20,26h1V25H19v1Z"/><rect class="ib99-2" x="17" y="28" width="1" height="1"/><path class="ib99-2" d="M15,29H14v4h1V29Z"/><rect class="ib99-2" x="11" y="28" width="1" height="1"/><path class="ib99-2" d="M10,25H8v1h2Z"/><path class="ib99-2" d="M9,27H8v6H9V27Z"/><path class="ib99-3" d="M8,27H7v6H8V27Z"/><rect class="ib99-2" x="7" y="26" width="1" height="1"/><path class="ib99-2" d="M7,27H6v6H7V27Z"/><rect class="ib99-3" x="19" y="15" width="1" height="1"/><path class="ib99-3" d="M18,14V13H16v1h2Z"/><rect class="ib99-3" x="9" y="15" width="1" height="1"/><path class="ib99-3" d="M13,22h3V21h1V20h1V19h1V18H18V15H17v2H16V15H14v1h1v1H14V16H13v1H11v1H10v1h1v1h1v1h1Zm0-3h3V18h1v1H16v1H13Z"/><path class="ib99-2" d="M19,16v2h1V16Z"/><path class="ib99-2" d="M18,19v1h1V19Z"/><rect class="ib99-2" x="17" y="20" width="1" height="1"/><rect class="ib99-2" x="11" y="20" width="1" height="1"/><path class="ib99-2" d="M10,19v1h1V19Z"/><path class="ib99-2" d="M10,17V16H9v2h1Z"/><rect class="ib99-2" x="14" y="16" width="1" height="1"/><path class="ib99-4" d="M16,14v1h1V14Z"/><path class="ib99-2" d="M17,14v1h1V14Z"/><path class="ib99-5" d="M18,12H16v1h2Z"/><rect class="ib99-2" x="12" y="26" width="1" height="1"/><path class="ib99-2" d="M15,28v1h1V27H15Z"/><rect class="ib99-2" x="16" y="26" width="1" height="1"/><path class="ib99-2" d="M13,27v2h1V27Z"/><rect class="ib99-2" x="17" y="25" width="1" height="1"/><rect class="ib99-2" x="11" y="25" width="1" height="1"/><rect class="ib99-2" x="14" y="24" width="1" height="1"/><rect class="ib99-2" x="13" y="25" width="1" height="1"/><rect class="ib99-2" x="15" y="25" width="1" height="1"/><path class="ib99-2" d="M12,24v1h1V23h3v2h1V23h1V22H17V21H16v1H13V21H12v1H11v1h1Z"/><rect class="ib99-6" x="16" y="25" width="1" height="1"/><path class="ib99-6" d="M15,26V25H14v1H13v1h1v2h1V27h1V26Z"/><rect class="ib99-6" x="12" y="25" width="1" height="1"/><path class="ib99-6" d="M11,25h1V23H11v2Z"/><path class="ib99-6" d="M17,24v1h1V23H17Z"/><path class="ib99-2" d="M19,25V23H18v2Z"/><path class="ib99-2" d="M11,24V23H10v2h1Z"/><rect class="ib99-2" x="13" y="19" width="3" height="1"/><rect class="ib99-2" x="16" y="18" width="1" height="1"/><path class="ib99-7" d="M9,15V12H8v6H9V15Z"/><path class="ib99-7" d="M10,16v2h1V16Z"/><path class="ib99-7" d="M15,15h1V12h2v6h1V15h1v3h1V13H20V11H19V10H18V9H15v6Z"/><path class="ib99-7" d="M10,18H9v2h1V18Z"/><path class="ib99-7" d="M16,16v1h1V15H16Z"/><path class="ib99-7" d="M19,19v1h1V18H19Z"/><path class="ib99-8" d="M11,15h2V13H11v2Z"/><path class="ib99-9" d="M13,13v2h1V13Z"/><path class="ib99-9" d="M12,15H11v1h2V15Z"/><path class="ib99-9" d="M11,14V13H10v2h1Z"/><rect class="ib99-9" x="11" y="12" width="2" height="1"/><rect class="ib99-2" x="10" y="15" width="1" height="1"/><path class="ib99-2" d="M11,17h2V16H11Z"/><rect class="ib99-2" x="13" y="15" width="1" height="1"/><path class="ib99-2" d="M9,15h1V13h1V12h2v1h1v2h1V9H11v1H10v1H9v4Z"/></svg>