<svg xmlns="http://www.w3.org/2000/svg" viewBox="0 0 29 33"><defs><style>polygon,rect,path{shape-rendering:crispedges;}.bb287-1{fill:#d4a122;}.bb287-2{fill:#000000;}.bb287-3{fill:#8c7850;}.bb287-4{fill:#ffffff;}.bb287-5{fill:#efcaaf;}.bb287-6{fill:#8e4717;}.bb287-7{fill:#a06415;}.bb287-8{fill:#b18518;}</style></defs><path class="bb287-1" d="M0,33H6V27H7V26H8V25h2V24h1V23h1V21H11v1H10V19H9V16H8V15H9V14H8V13H4V12H6V11H8V10h2V9h1V8h1V7h1V6h1V5h1V6h1V7h1V8h1V9h1v1h2v1h2v1h2v1H21v1H20v1h1v1H20v3H19v1H18v1H17v2h1v1h1v1h2v1h1v1h1v6h6V0H0Z"/><path class="bb287-2" d="M23,27H22v6h1V27Z"/><path class="bb287-3" d="M22,27H21v6h1V27Z"/><rect class="bb287-2" x="21" y="26" width="1" height="1"/><path class="bb287-2" d="M21,27H20v6h1V27Z"/><path class="bb287-3" d="M20,27h1V26H19V25H18v4H17v4h3V27Z"/><path class="bb287-2" d="M20,26h1V25H19v1Z"/><path class="bb287-2" d="M17,29H16v4h1V29Z"/><rect class="bb287-4" x="16" y="24" width="1" height="1"/><path class="bb287-4" d="M16,29h1V26H16V25H13v1H12v3h1v4h1V32h1v1h1V29Zm-1,2H14V30h1Zm0-2H14V28h1Zm0-2H14V26h1Z"/><rect class="bb287-4" x="15" y="23" width="1" height="1"/><rect class="bb287-2" x="14" y="32" width="1" height="1"/><rect class="bb287-2" x="14" y="30" width="1" height="1"/><rect class="bb287-2" x="14" y="28" width="1" height="1"/><rect class="bb287-2" x="14" y="26" width="1" height="1"/><path class="bb287-2" d="M15,24V23H14v1H13v1h3V24Z"/><rect class="bb287-4" x="13" y="23" width="1" height="1"/><path class="bb287-2" d="M13,29H12v4h1V29Z"/><rect class="bb287-4" x="12" y="24" width="1" height="1"/><path class="bb287-3" d="M12,29H11V25H10v1H8v1H9v6h3V29Z"/><path class="bb287-2" d="M11,26v3h1V26h1V25H12V24h1V22H12v1H11v1H10v1h1Z"/><path class="bb287-2" d="M10,25H8v1h2Z"/><path class="bb287-2" d="M9,27H8v6H9V27Z"/><path class="bb287-3" d="M8,27H7v6H8V27Z"/><rect class="bb287-2" x="7" y="26" width="1" height="1"/><path class="bb287-2" d="M7,27H6v6H7V27Z"/><rect class="bb287-2" x="20" y="15" width="1" height="1"/><rect class="bb287-2" x="19" y="14" width="1" height="1"/><path class="bb287-5" d="M18,15H16V14H14v2h1v1H14V16H13v1H11v2h1V18h2v1h1V18h2v1h1V18h1V16h1V15H18Z"/><rect class="bb287-5" x="9" y="15" width="1" height="1"/><rect class="bb287-5" x="15" y="20" width="1" height="1"/><path class="bb287-5" d="M12,15H11v1h2V15Z"/><rect class="bb287-5" x="13" y="20" width="1" height="1"/><rect class="bb287-5" x="10" y="16" width="1" height="1"/><path class="bb287-2" d="M19,17h1V16H19Z"/><path class="bb287-2" d="M16,23v1h1v1H16v1h1v3h1V25h1V24H18V23H17V22H16Z"/><rect class="bb287-2" x="9" y="14" width="1" height="1"/><path class="bb287-2" d="M10,16H9v1h1Z"/><rect class="bb287-2" x="8" y="15" width="1" height="1"/><rect class="bb287-2" x="14" y="16" width="1" height="1"/><rect class="bb287-4" x="12" y="14" width="1" height="1"/><path class="bb287-4" d="M19,15V14H18v1Z"/><path class="bb287-4" d="M17,15V14H16v1Z"/><rect class="bb287-2" x="11" y="14" width="1" height="1"/><path class="bb287-2" d="M18,15V14H17v1Z"/><path class="bb287-6" d="M14,18H13v1h1Z"/><path class="bb287-6" d="M13,23h3V22h1V21h1V20h1V19h1V17H19v1H18v1H17V18H15v1h1v2H15V20H14v1H13V19H11v2h1v1h1Z"/><path class="bb287-6" d="M9,17v2h1V17Z"/><path class="bb287-2" d="M13,19v1h3V19H13Z"/><path class="bb287-2" d="M12,18v1h1V18Z"/><path class="bb287-7" d="M13,16h1V14H13v2Z"/><path class="bb287-7" d="M13,16H11v1h2Z"/><polygon class="bb287-7" points="11 15 11 14 10 14 10 15 10 16 11 16 11 15"/><path class="bb287-7" d="M11,17H10v5h1V17Z"/><path class="bb287-8" d="M11,14H21V13h4V12H23V11H21V10H19V9H18V8H17V7H16V6H15V5H14V6H13V7H12V8H11V9H10v1H8v1H6v1H4v1H8v1h3Z"/></svg>