<svg xmlns="http://www.w3.org/2000/svg" viewBox="0 0 29 33"><defs><style>polygon,rect,path{shape-rendering:crispedges;}.aa181-1{fill:#d4a122;}.aa181-2{fill:#000000;}.aa181-3{fill:#512a24;}.aa181-4{fill:#014731;}.aa181-5{fill:#ffffff;}.aa181-6{fill:#9b8100;}.aa181-7{fill:#474718;}.aa181-8{fill:#6f7032;}.aa181-9{fill:#f62;}.aa181-10{fill:#f9db00;}.aa181-11{fill:#1261ff;}.aa181-12{fill:#00c650;}.aa181-13{fill:#e20026;}</style></defs><path class="aa181-1" d="M0,33H6V27H7V26H8V25h2V24h2V22H11V21H10V20H9V16H8V15H9V10h1V9h1V8h7V9h1v1h1v5h1v1H20v4H19v1H18v1H17v2h2v1h1V22h3v3h1v1H23v7h6V0H0Z"/><path class="aa181-2" d="M7,31V27H6v6H7Z"/><rect class="aa181-2" x="7" y="26" width="1" height="1"/><path class="aa181-3" d="M8,31V27H7v6H8Z"/><rect class="aa181-3" x="8" y="26" width="1" height="1"/><path class="aa181-2" d="M9,31V27H8v6H9Z"/><path class="aa181-2" d="M10,26V25H8v1Z"/><path class="aa181-4" d="M20,31V26H19V25H18v1H17v1H16v1H13V27H12V26H11V25H10v1H9v7H20Z"/><rect class="aa181-2" x="12" y="23" width="1" height="1"/><rect class="aa181-2" x="16" y="23" width="1" height="1"/><path class="aa181-2" d="M21,31V26H20v7h1Z"/><path class="aa181-3" d="M22,31V26h1V25H20v1h1v7h1Z"/><path class="aa181-2" d="M23,31V26H22v7h1Z"/><path class="aa181-2" d="M11,26h1V24H10v1h1Z"/><rect class="aa181-2" x="12" y="26" width="1" height="1"/><rect class="aa181-2" x="16" y="26" width="1" height="1"/><path class="aa181-2" d="M17,26h1V25h1V24H17Z"/><path class="aa181-2" d="M14,27H13v1h3V27Z"/><path class="aa181-3" d="M12,26h1v1h3V26h1V24H16V23H13v1H12Z"/><rect class="aa181-2" x="20" y="15" width="1" height="1"/><path class="aa181-2" d="M19,14H17v1h3V13H19Z"/><path class="aa181-3" d="M10,17h1v1h5v1h1V18h1V17h1V16h1V15H16V14h3V13H10v1h3v1H9v1h1Zm4-1h1v1H14Z"/><path class="aa181-2" d="M10,14V13H9v2h1Z"/><rect class="aa181-2" x="8" y="15" width="1" height="1"/><rect class="aa181-2" x="14" y="16" width="1" height="1"/><rect class="aa181-5" x="10" y="14" width="1" height="1"/><rect class="aa181-5" x="16" y="14" width="1" height="1"/><path class="aa181-2" d="M12,15h1V14H11v1Z"/><path class="aa181-6" d="M15,18H13v1h3V18Z"/><path class="aa181-6" d="M14,23h3V22h1V21h1V20h1V16H19v1H18v1H17v1H16v1H13V19H12V18H11V17H10V16H9v4h1v1h1v1h1v1Z"/><rect class="aa181-2" x="13" y="19" width="3" height="1"/><rect class="aa181-2" x="12" y="18" width="1" height="1"/><path class="aa181-7" d="M19,12v1h1V11H19Z"/><path class="aa181-8" d="M10,12v1h1V11h1v2h1V11h1v2h1V11h1v2h1V11h1v2h1V11h1V10H19V9H18V8H11V9H10v1H9v1h1Z"/><path class="aa181-7" d="M18,11H17v2h1Z"/><path class="aa181-7" d="M16,11H15v2h1Z"/><path class="aa181-7" d="M14,11H13v2h1Z"/><path class="aa181-7" d="M12,11H11v2h1Z"/><path class="aa181-7" d="M10,12V11H9v2h1Z"/><rect class="aa181-9" x="22" y="22" width="1" height="1"/><rect class="aa181-5" x="21" y="22" width="1" height="1"/><rect class="aa181-10" x="20" y="23" width="1" height="1"/><rect class="aa181-11" x="22" y="24" width="1" height="1"/><rect class="aa181-9" x="20" y="24" width="1" height="1"/><rect class="aa181-12" x="21" y="23" width="1" height="1"/><path class="aa181-10" d="M21,24v1h1V24Z"/><rect class="aa181-13" x="22" y="23" width="1" height="1"/><rect class="aa181-13" x="20" y="22" width="1" height="1"/><rect class="aa181-2" x="23" y="25" width="1" height="1"/><rect class="aa181-2" x="19" y="25" width="1" height="1"/></svg>