<svg xmlns="http://www.w3.org/2000/svg" viewBox="0 0 29 33"><defs><style>polygon,rect,path{shape-rendering:crispedges;}.wa164-1{fill:#d4a122;}.wa164-2{fill:#844f4f;}.wa164-3{fill:#000000;}.wa164-4{fill:#ce8452;}.wa164-5{fill:#ff1f4a;}.wa164-6{fill:#ffffff;}.wa164-7{fill:#990000;}.wa164-8{fill:#990000;}.wa164-9{fill:#0079bc;}</style></defs><path class="wa164-1" d="M0,33H6V27H7V26H8V25h2V22h1V20H10V19H9V16H8V15H9V13H8V9H9V8h1V7h1V6h7V7h1V8h1V9h1v4H20v2h1v1H20v3H19v1H18v2h1v3h2v1h1v1h1v6h6V0H0Z"/><path class="wa164-2" d="M18,25V24H16v1Z"/><path class="wa164-2" d="M14,27v1h6V27H14Z"/><path class="wa164-2" d="M14,31h6V30H14Z"/><rect class="wa164-2" x="21" y="30" width="1" height="1"/><rect class="wa164-2" x="21" y="27" width="1" height="1"/><rect class="wa164-2" x="7" y="30" width="1" height="1"/><rect class="wa164-2" x="7" y="27" width="1" height="1"/><path class="wa164-2" d="M9,28h4V27H9Z"/><polygon class="wa164-2" points="12 24 11 24 11 25 13 25 13 24 12 24"/><path class="wa164-2" d="M9,31h4V30H9Z"/><path class="wa164-3" d="M23,27H22v6h1V27Z"/><rect class="wa164-3" x="21" y="26" width="1" height="1"/><path class="wa164-3" d="M21,30V27H20v4H14V27H13v4H9V27H8v6H9V32H20v1h1V30Z"/><path class="wa164-3" d="M20,26h1V25H19v1Z"/><path class="wa164-3" d="M18,25h1V22H18v3Z"/><rect class="wa164-3" x="15" y="24" width="1" height="1"/><path class="wa164-3" d="M15,26V25H14v2h1Z"/><rect class="wa164-3" x="13" y="24" width="1" height="1"/><path class="wa164-4" d="M15,24h1V23H13v1h1v1h1Z"/><path class="wa164-3" d="M11,24V22H10v3h1Z"/><path class="wa164-3" d="M10,25H8v1h2Z"/><rect class="wa164-3" x="7" y="26" width="1" height="1"/><path class="wa164-3" d="M7,30V27H6v6H7V30Z"/><rect class="wa164-3" x="20" y="15" width="1" height="1"/><path class="wa164-3" d="M19,15h1V14H19Z"/><rect class="wa164-4" x="15" y="20" width="1" height="1"/><rect class="wa164-4" x="16" y="19" width="1" height="1"/><rect class="wa164-4" x="10" y="12" width="1" height="1"/><rect class="wa164-4" x="12" y="19" width="1" height="1"/><polygon class="wa164-4" points="18 14 19 14 19 13 17 13 17 14 18 14"/><rect class="wa164-4" x="13" y="20" width="1" height="1"/><path class="wa164-4" d="M12,19V18h5v1h2V16h1V15H16V13h1V12h1V11H11v1h2v1H11v1h2v1H9v1h1v3h2Zm2-3h1v1H14Z"/><path class="wa164-3" d="M19,17v2h1V16H19Z"/><path class="wa164-3" d="M18,20h1V19H18Z"/><path class="wa164-3" d="M12,23v1h1V23h3v1h1V22h1V20H17v1H16v1H13V21H12V20H11v2h1Z"/><path class="wa164-3" d="M10,19v1h1V19Z"/><path class="wa164-3" d="M10,14H9v1h1Z"/><path class="wa164-3" d="M10,16H9v3h1V16Z"/><rect class="wa164-3" x="8" y="15" width="1" height="1"/><rect class="wa164-3" x="14" y="16" width="1" height="1"/><path class="wa164-5" d="M19,32H9v1H20V32Z"/><path class="wa164-5" d="M14,29v1h6V28H14Z"/><path class="wa164-5" d="M9,29v1h4V28H9Z"/><path class="wa164-5" d="M9,27h5V25H10v1H8v1Z"/><path class="wa164-5" d="M16,25H15v2h6V26H19V25H16Z"/><path class="wa164-5" d="M7,29v1H8V28H7Z"/><path class="wa164-5" d="M7,31v2H8V31Z"/><path class="wa164-5" d="M21,31v2h1V31Z"/><path class="wa164-5" d="M21,29v1h1V28H21Z"/><path class="wa164-5" d="M12,24V22H11v2Z"/><path class="wa164-5" d="M17,23v1h1V22H17Z"/><path class="wa164-6" d="M13,15V14H12v1Z"/><path class="wa164-6" d="M10,15h1V14H10Z"/><path class="wa164-6" d="M18,14v1h1V14Z"/><path class="wa164-6" d="M16,14v1h1V14Z"/><path class="wa164-3" d="M12,15V14H11v1Z"/><path class="wa164-3" d="M17,14v1h1V14Z"/><rect class="wa164-7" x="10" y="13" width="1" height="1"/><rect class="wa164-7" x="11" y="12" width="2" height="1"/><path class="wa164-7" d="M17,13H16v1h1Z"/><path class="wa164-7" d="M19,12H17v1h2Z"/><path class="wa164-8" d="M17,19v1h1V19Z"/><rect class="wa164-8" x="16" y="20" width="1" height="1"/><path class="wa164-8" d="M15,20H14v1H13v1h3V21H15Z"/><path class="wa164-8" d="M14,19h3V18H13v1Z"/><rect class="wa164-8" x="12" y="20" width="1" height="1"/><path class="wa164-8" d="M12,19H11v1h1Z"/><path class="wa164-3" d="M13,19v1h3V19H13Z"/><path class="wa164-3" d="M13,18H12v1h1Z"/><path class="wa164-9" d="M10,13V12h1V11h7v1h1v2h1V13h1V9H20V8H19V7H18V6H11V7H10V8H9V9H8v4H9v1h1Z"/></svg>