<svg xmlns="http://www.w3.org/2000/svg" viewBox="0 0 29 33"><defs><style>polygon,rect,path{shape-rendering:crispedges;}.fb221-1{fill:#29834f;}.fb221-2{fill:#000000;}.fb221-3{fill:#333333;}.fb221-4{fill:#ffffff;}.fb221-5{fill:#e8b795;}.fb221-6{fill:#90a2a3;}.fb221-7{fill:#f9e100;}.fb221-8{fill:#72dd40;}.fb221-9{fill:#38a6e8;}.fb221-10{fill:#ff6aa5;}.fb221-11{fill:#e2e2e2;}.fb221-12{fill:#ffffff;}.fb221-13{fill:#841f00;}.fb221-14{fill:#b23b00;}</style></defs><path class="fb221-1" d="M0,33H6V27H7V26H8V25H9V24h1V23h1V22h1V21H11V20H10V19H9V16H8V14H9V10h1V9h1V8h7V9h1v1h1v4h1v2H20v3H19v1H18v1H17v1h1v1h1v1h1v1h1v1h1v1h1v6h6V0H0Z"/><path class="fb221-2" d="M23,27H22v6h1V27Z"/><path class="fb221-3" d="M22,27H21v6h1V27Z"/><path class="fb221-2" d="M21,27h1V26H21V25H20v2H17v1h2v1h1v4h1V27Z"/><path class="fb221-3" d="M20,29H19v1H18v1H17v1H16v1h4V29Z"/><path class="fb221-3" d="M18,26H17v1h2V26h1V25H18Z"/><path class="fb221-3" d="M16,28v3h1V30h1V29h1V28H17V27H16Z"/><rect class="fb221-2" x="18" y="29" width="1" height="1"/><path class="fb221-4" d="M15,28H14v5h1V28Z"/><path class="fb221-5" d="M16,25V23H13v2h3Z"/><path class="fb221-3" d="M12,32V31H11V30H10V29H9v4h4V32Z"/><rect class="fb221-2" x="11" y="30" width="1" height="1"/><path class="fb221-3" d="M10,26v1h2V26H11V25H9v1Z"/><path class="fb221-3" d="M12,28H10v1h1v1h1v1h1V27H12Z"/><path class="fb221-2" d="M9,29h1V28h2V27H9V25H8v1H7v1H8v6H9V29Z"/><path class="fb221-3" d="M8,27H7v6H8V27Z"/><path class="fb221-2" d="M7,27H6v6H7V27Z"/><rect class="fb221-2" x="10" y="29" width="1" height="1"/><rect class="fb221-2" x="17" y="30" width="1" height="1"/><path class="fb221-2" d="M17,32V31H16V27H13v4H12v1h1v1h1V28h1v5h1V32Z"/><path class="fb221-6" d="M9,26v1h1V26Z"/><path class="fb221-6" d="M19,27h1V26H19Z"/><path class="fb221-2" d="M20,16h1V15H20Z"/><path class="fb221-2" d="M19,14h1V13H19Z"/><path class="fb221-5" d="M16,17V16H15v1H14V16H13v1H10v1h1v1h1V18h5v1h1V18h1V17H16Z"/><rect class="fb221-5" x="14" y="15" width="1" height="1"/><path class="fb221-5" d="M14,14h2V13H13v1Z"/><rect class="fb221-5" x="13" y="20" width="1" height="1"/><rect class="fb221-5" x="15" y="20" width="1" height="1"/><path class="fb221-2" d="M19,17h1V16H19Z"/><path class="fb221-2" d="M16,23v2h1V23h1V22H16Z"/><path class="fb221-2" d="M10,13H9v1h1Z"/><path class="fb221-2" d="M10,16H9v1h1Z"/><path class="fb221-2" d="M8,15v1H9V15Z"/><rect class="fb221-2" x="14" y="16" width="1" height="1"/><rect class="fb221-7" x="11" y="24" width="1" height="1"/><rect class="fb221-8" x="12" y="25" width="1" height="1"/><path class="fb221-9" d="M13,26v1h1V26Z"/><rect class="fb221-8" x="16" y="25" width="1" height="1"/><path class="fb221-10" d="M14,26v1h1V26Z"/><path class="fb221-7" d="M15,26v1h1V26Z"/><path class="fb221-9" d="M18,24H17v1h1Z"/><rect class="fb221-10" x="11" y="23" width="1" height="1"/><path class="fb221-10" d="M17,24h1V23H17Z"/><path class="fb221-2" d="M12,24v1h1V22H11v1h1Z"/><path class="fb221-2" d="M14,26h2V25H13v1Z"/><path class="fb221-2" d="M18,25h2V24H19V23H18v2Z"/><rect class="fb221-2" x="17" y="25" width="1" height="1"/><rect class="fb221-2" x="16" y="26" width="1" height="1"/><rect class="fb221-2" x="12" y="26" width="1" height="1"/><rect class="fb221-2" x="11" y="25" width="1" height="1"/><path class="fb221-2" d="M11,24V23H10v1H9v1h2Z"/><path class="fb221-11" d="M13,23h3V22h1V21h1V20h1V19h1V17H19v1H18v1H16v2H15V20H14v1H13V19H11V18H10V17H9v2h1v1h1v1h1v1h1Z"/><path class="fb221-2" d="M12,18v1h1V18Z"/><path class="fb221-2" d="M16,18v1h1V18Z"/><path class="fb221-2" d="M15,18H14v1H13v1h3V19H15Z"/><path class="fb221-12" d="M14,18H13v1h1Z"/><path class="fb221-12" d="M15,18v1h1V18Z"/><path class="fb221-12" d="M19,15v1h1V15h1V14H19Z"/><path class="fb221-12" d="M17,14h2V13H16v1Z"/><path class="fb221-2" d="M16,14v2h3V14H16Z"/><path class="fb221-12" d="M18,16H16v1h3V16Z"/><path class="fb221-12" d="M14,14H13v2h1V15h1v1h1V14Z"/><path class="fb221-12" d="M13,14V13H10v1h3Z"/><path class="fb221-2" d="M13,16V14H10v2h3Z"/><path class="fb221-12" d="M13,17V16H10v1h3Z"/><path class="fb221-12" d="M10,15V14H8v1H9v1h1Z"/><path class="fb221-13" d="M19,12v1h1V11H19Z"/><path class="fb221-14" d="M10,12v1h1V11h1v2h1V11h1v2h1V11h1v2h1V11h1v2h1V11h1V10H19V9H18V8H11V9H10v1H9v1h1Z"/><path class="fb221-13" d="M18,12V11H17v2h1Z"/><path class="fb221-13" d="M16,12V11H15v2h1Z"/><path class="fb221-13" d="M14,12V11H13v2h1Z"/><path class="fb221-13" d="M12,12V11H11v2h1Z"/><path class="fb221-13" d="M10,12V11H9v2h1Z"/></svg>