<svg xmlns="http://www.w3.org/2000/svg" viewBox="0 0 29 33"><defs><style>polygon,rect,path{shape-rendering:crispedges;}.ca146-1{fill:#e55b35;}.ca146-2{fill:#000000;}.ca146-3{fill:#efcaaf;}.ca146-4{fill:#ffffff;}.ca146-5{fill:#ff791f;}.ca146-6{fill:#ffffff;}.ca146-7{fill:#893a1f;}.ca146-8{fill:#00686d;}</style></defs><path class="ca146-1" d="M0,33H6V27H7V26H8V25h2V24h2V21H11V20H10V19H9V18H8V12H9V10h1V9h1V8h7V9h1v1h1v5h1v1H20v3H19v1H18v1H17v3h2v1h2v1h1v1h1v6h6V0H0Z"/><path class="ca146-2" d="M23,27H22v6h1V27Z"/><rect class="ca146-2" x="21" y="26" width="1" height="1"/><path class="ca146-3" d="M22,27H21v6h1V27Z"/><rect class="ca146-3" x="20" y="26" width="1" height="1"/><path class="ca146-2" d="M21,27H20v6h1V27Z"/><path class="ca146-2" d="M20,26h1V25H19v1Z"/><rect class="ca146-4" x="10" y="32" width="1" height="1"/><rect class="ca146-4" x="18" y="32" width="1" height="1"/><path class="ca146-4" d="M17,30h1V29h1v1h1V26H19V25H18v1H17v1H16v1H13V27H12V26H11V25H10v1H9v4h1V29h1v1h1v3h1V29h2v1h1v2H15v1h2V30Z"/><path class="ca146-4" d="M14,31v1h1V30H14Z"/><rect class="ca146-4" x="18" y="30" width="1" height="1"/><rect class="ca146-4" x="10" y="30" width="1" height="1"/><path class="ca146-2" d="M18,26V25h1V24H17v2Z"/><rect class="ca146-2" x="16" y="26" width="1" height="1"/><path class="ca146-2" d="M13,27v1h3V27H13Z"/><path class="ca146-2" d="M13,23h3v1h1V21H16v1H13V21H12v3h1Z"/><path class="ca146-3" d="M13,26v1h3V26h1V24H16V23H13v1H12v2Z"/><rect class="ca146-2" x="12" y="26" width="1" height="1"/><path class="ca146-2" d="M11,26h1V24H10v1h1Z"/><path class="ca146-2" d="M10,26V25H8v1h2Z"/><path class="ca146-3" d="M9,27V26H8v1Z"/><path class="ca146-2" d="M9,30V27H8v6H9V30Z"/><rect class="ca146-2" x="7" y="26" width="1" height="1"/><path class="ca146-3" d="M8,27H7v6H8V27Z"/><path class="ca146-2" d="M7,27H6v6H7V27Z"/><path class="ca146-5" d="M20,30H19v1H18V30H17v3h1V32h1v1h1V30Z"/><rect class="ca146-5" x="18" y="29" width="1" height="1"/><path class="ca146-5" d="M16,32V30H15v2Z"/><path class="ca146-5" d="M14,32V30h1V29H13v4h2V32Z"/><path class="ca146-5" d="M12,30H11v1H10V30H9v3h1V32h1v1h1V30Z"/><rect class="ca146-5" x="10" y="29" width="1" height="1"/><rect class="ca146-2" x="20" y="15" width="1" height="1"/><path class="ca146-3" d="M13,22h3V21h1V20h1V19h1V16h1V15H16V13h1V12h2V11H18V10H16v1H14v1H13v1H11v1h2v1H9v1h1v3h1v1h1v1h1Zm1-6h1v1H14Zm-2,3V18h1v1h3v1H13V19Z"/><polygon class="ca146-3" points="18 14 19 14 19 13 17 13 17 14 18 14"/><path class="ca146-2" d="M19,17v2h1V16H19Z"/><rect class="ca146-2" x="18" y="19" width="1" height="1"/><rect class="ca146-2" x="17" y="20" width="1" height="1"/><rect class="ca146-2" x="11" y="20" width="1" height="1"/><rect class="ca146-2" x="10" y="19" width="1" height="1"/><path class="ca146-2" d="M10,16H9v3h1V16Z"/><rect class="ca146-2" x="14" y="16" width="1" height="1"/><path class="ca146-6" d="M13,15V14H12v1Z"/><path class="ca146-6" d="M10,15h1V14H10Z"/><path class="ca146-6" d="M18,14v1h1V14Z"/><path class="ca146-6" d="M16,14v1h1V14Z"/><path class="ca146-2" d="M12,15V14H11v1Z"/><path class="ca146-2" d="M17,14v1h1V14Z"/><path class="ca146-7" d="M17,13H16v1h1Z"/><rect class="ca146-7" x="17" y="12" width="2" height="1"/><rect class="ca146-2" x="13" y="19" width="3" height="1"/><rect class="ca146-2" x="12" y="18" width="1" height="1"/><path class="ca146-8" d="M9,15h1V14h1V13h2V12h1V11h2V10h2v1h1v4h1V10H19V9H18V8H11V9H10v1H9v2H8v6H9V15Z"/></svg>