<svg xmlns="http://www.w3.org/2000/svg" viewBox="0 0 29 33"><defs><style>polygon,rect,path{shape-rendering:crispedges;}.ea101-1{fill:#29834f;}.ea101-2{fill:#000000;}.ea101-3{fill:#db5800;}.ea101-4{fill:#efcaaf;}.ea101-5{fill:#ffffff;}.ea101-6{fill:#66334f;}.ea101-7{fill:#fad000;}.ea101-8{fill:#b23b00;}.ea101-9{fill:#c8a715;}</style></defs><path class="ea101-1" d="M0,33H6V27H7V26H8V25h2V20H9V16H8V15H9V11h1V10h1V9h7v1h1v1h1v4h1v1H20v4H19v5h2v1h1v1h1v6h6V0H0ZM11,6h1V5h5V6h1V7H17V8H12V7H11Z"/><path class="ea101-1" d="M13,7h4V6H12V7Z"/><path class="ea101-2" d="M23,27H22v3H21V27H20v6h1V31h1v2h1V27Z"/><rect class="ea101-2" x="21" y="26" width="1" height="1"/><path class="ea101-3" d="M21,28v2h1V27H21Z"/><path class="ea101-4" d="M21,31v2h1V31Z"/><path class="ea101-2" d="M20,26h1V25H19v1Z"/><path class="ea101-3" d="M20,27h1V26H19V25H18v1H17v1H16v2H15v1H14V29H13V27H12V26H11V25H10v1H8v1H9v6H20V27Z"/><path class="ea101-4" d="M13,25h1V24h1v1h1V23H13v2Z"/><path class="ea101-2" d="M10,25H8v1h2Z"/><path class="ea101-2" d="M9,27H8v3H7V27H6v6H7V31H8v2H9V27Z"/><rect class="ea101-2" x="7" y="26" width="1" height="1"/><path class="ea101-3" d="M7,30H8V27H7v3Z"/><path class="ea101-4" d="M7,31v2H8V31Z"/><rect class="ea101-2" x="20" y="15" width="1" height="1"/><path class="ea101-2" d="M19,13v2h1V11H19v2Z"/><polygon class="ea101-4" points="13 21 14 21 14 22 15 22 15 21 16 21 16 20 13 20 13 21"/><path class="ea101-4" d="M18,14h1V13H17v1Z"/><path class="ea101-4" d="M10,17v1h1v1h1V18h2v1h1V18h2v1h1V18h1V16h1V15H16V13h1V12h2V11H18V10H11v1H10v2h1V12h2v1H11v1h2v1H9v1h1Zm4-1h1v1H14Z"/><path class="ea101-2" d="M19,17h1V16H19Z"/><rect class="ea101-2" x="18" y="10" width="1" height="1"/><path class="ea101-2" d="M18,10V9H11v1h7Z"/><rect class="ea101-2" x="10" y="10" width="1" height="1"/><path class="ea101-2" d="M10,14V11H9v4h1Z"/><path class="ea101-2" d="M10,16H9v1h1Z"/><rect class="ea101-2" x="8" y="15" width="1" height="1"/><rect class="ea101-2" x="14" y="16" width="1" height="1"/><path class="ea101-5" d="M13,15V14H12v1Z"/><path class="ea101-5" d="M10,15h1V14H10Z"/><path class="ea101-5" d="M18,14v1h1V14Z"/><path class="ea101-5" d="M16,14v1h1V14Z"/><path class="ea101-2" d="M12,15V14H11v1Z"/><path class="ea101-2" d="M17,14v1h1V14Z"/><path class="ea101-6" d="M11,14V13H10v1Z"/><rect class="ea101-6" x="11" y="12" width="2" height="1"/><path class="ea101-6" d="M17,13H16v1h1Z"/><path class="ea101-6" d="M19,12H17v1h2Z"/><rect class="ea101-2" x="14" y="29" width="1" height="1"/><rect class="ea101-2" x="12" y="26" width="1" height="1"/><path class="ea101-2" d="M15,28v1h1V27H15Z"/><rect class="ea101-2" x="16" y="26" width="1" height="1"/><path class="ea101-2" d="M13,27v2h1V27Z"/><rect class="ea101-2" x="17" y="25" width="1" height="1"/><rect class="ea101-2" x="11" y="25" width="1" height="1"/><rect class="ea101-2" x="14" y="24" width="1" height="1"/><rect class="ea101-2" x="13" y="25" width="1" height="1"/><rect class="ea101-2" x="15" y="25" width="1" height="1"/><rect class="ea101-7" x="16" y="25" width="1" height="1"/><path class="ea101-7" d="M15,26V25H14v1H13v1h1v2h1V27h1V26Z"/><rect class="ea101-7" x="12" y="25" width="1" height="1"/><path class="ea101-7" d="M12,24V23H11v2h1Z"/><path class="ea101-7" d="M18,23H17v2h1V23Z"/><path class="ea101-2" d="M18,25h1V24H18Z"/><path class="ea101-2" d="M11,24H10v1h1Z"/><rect class="ea101-2" x="17" y="22" width="1" height="1"/><rect class="ea101-2" x="11" y="22" width="1" height="1"/><path class="ea101-8" d="M12,22v1h5V22h2V20h1V17H19v1H18v1H17V18H15v1h1v2H15v1H14V21H13V19H11V18H10V17H9v3h1v2h2Z"/><path class="ea101-8" d="M14,18H13v1h1Z"/><path class="ea101-9" d="M18,23h1V22H18Z"/><path class="ea101-8" d="M18,24h1V23H18Z"/><path class="ea101-9" d="M17,24V23H16v1Z"/><path class="ea101-8" d="M16,25h1V24H16Z"/><path class="ea101-9" d="M13,24V23H12v1Z"/><path class="ea101-8" d="M12,24v1h1V24Z"/><path class="ea101-9" d="M11,22H10v1h1Z"/><path class="ea101-8" d="M11,23H10v1h1Z"/><path class="ea101-2" d="M13,19v1h3V19H13Z"/><path class="ea101-2" d="M12,18v1h1V18Z"/><rect class="ea101-7" x="17" y="6" width="1" height="1"/><path class="ea101-7" d="M13,7H12V8h5V7H13Z"/><path class="ea101-7" d="M17,6V5H12V6h5Z"/><rect class="ea101-7" x="11" y="6" width="1" height="1"/></svg>