<svg xmlns="http://www.w3.org/2000/svg" viewBox="0 0 29 33"><defs><style>polygon,rect,path{shape-rendering:crispedges;}.ba79-1{fill:#e55b35;}.ba79-2{fill:#000000;}.ba79-3{fill:#c18d59;}.ba79-4{fill:#009b97;}.ba79-5{fill:#ffffff;}.ba79-6{fill:#492a23;}.ba79-7{fill:#492a23;}.ba79-8{fill:#c8a715;}.ba79-9{fill:#d8be00;}.ba79-10{fill:#fad000;}.ba79-11{fill:#6d5800;}.ba79-12{fill:#9b8100;}.ba79-13{fill:#ffffff;}.ba79-14{fill:#e70059;}</style></defs><path class="ba79-1" d="M20,23V20H19v5h2V23Z"/><path class="ba79-1" d="M0,33H6V27H7V26H8V25h2V20H9V18H8V13H9V11h1V10h1V9h7v1h1v1h1v1h1v5h1V16h1v1h1v1h1v5H24v8H23v1H21v1h8V0H0Z"/><path class="ba79-1" d="M12,22H11v2h1V22Z"/><path class="ba79-1" d="M18,24V22H17v2Z"/><path class="ba79-2" d="M7,27H6v6H7V27Z"/><rect class="ba79-2" x="7" y="26" width="1" height="1"/><path class="ba79-3" d="M8,27H7v6H8V27Z"/><rect class="ba79-3" x="8" y="26" width="1" height="1"/><path class="ba79-2" d="M9,27H8v6H9V27Z"/><path class="ba79-2" d="M10,26V25H8v1h2Z"/><path class="ba79-4" d="M20,27V26H19V25H18v1H17v1H16v1H13V27H12V26H11V25H10v1H9v7H20V27Z"/><path class="ba79-2" d="M11,26h1V24H10v1h1Z"/><rect class="ba79-2" x="12" y="26" width="1" height="1"/><path class="ba79-2" d="M13,27v1h3V27H13Z"/><path class="ba79-3" d="M16,25V23H13v2H12v1h1v1h3V26h1V25Z"/><rect class="ba79-2" x="16" y="26" width="1" height="1"/><path class="ba79-2" d="M18,24H17v2h1V25h1V24Z"/><path class="ba79-3" d="M21,27V26H20v1Z"/><path class="ba79-2" d="M22,32h1V31H22V25H19v1h2v1H20v6h1V32Z"/><path class="ba79-3" d="M23,26V25H22v6h1V26Z"/><path class="ba79-2" d="M23,26v5h1V25H23Z"/><rect class="ba79-2" x="19" y="14" width="1" height="1"/><rect class="ba79-3" x="17" y="11" width="1" height="1"/><rect class="ba79-3" x="9" y="15" width="1" height="1"/><path class="ba79-3" d="M18,15H16v1H15v1H14V16h1V14h1V12H15V11H14v4H13v2H12V15H11v4h1V18h2v1h1V18h2v1h1V15Z"/><path class="ba79-3" d="M13,14V13H11v1h2Z"/><rect class="ba79-3" x="19" y="15" width="1" height="1"/><polygon class="ba79-3" points="13 21 14 21 14 22 15 22 15 21 16 21 16 20 13 20 13 21"/><rect class="ba79-3" x="17" y="13" width="1" height="1"/><rect class="ba79-2" x="19" y="16" width="1" height="1"/><rect class="ba79-2" x="9" y="16" width="1" height="1"/><rect class="ba79-2" x="14" y="16" width="1" height="1"/><path class="ba79-5" d="M12,15h1V14H12Z"/><path class="ba79-5" d="M17,15V14H16v1Z"/><path class="ba79-2" d="M12,14H11v1h1Z"/><path class="ba79-2" d="M18,15V14H17v1Z"/><path class="ba79-6" d="M13,12H11v1h2Z"/><rect class="ba79-6" x="17" y="12" width="1" height="1"/><path class="ba79-7" d="M12,22v1h5V22h2V18H18v1H17V18H15v1h1v2H15v1H14V21H13V19h1V18H12v1H11V18H10v4h2Z"/><rect class="ba79-7" x="19" y="17" width="1" height="1"/><rect class="ba79-7" x="9" y="17" width="1" height="1"/><path class="ba79-8" d="M19,23V22H18v1Z"/><path class="ba79-7" d="M18,24h1V23H18Z"/><path class="ba79-8" d="M17,24V23H16v1Z"/><path class="ba79-7" d="M16,25h1V24H16Z"/><path class="ba79-8" d="M13,23H12v1h1Z"/><path class="ba79-7" d="M13,24H12v1h1Z"/><path class="ba79-8" d="M11,22H10v1h1Z"/><path class="ba79-7" d="M11,23H10v1h1Z"/><path class="ba79-2" d="M13,19v1h3V19H13Z"/><path class="ba79-9" d="M9,16V15h1v3h1V12h2v3h1V11h1v1h1v2h1V11h1v7h1V14h1v4h1V12H20V11H19V10H18V9H11v1H10v1H9v2H8v5H9V16Z"/><path class="ba79-9" d="M20,19V18H19v2h1Z"/><path class="ba79-9" d="M15,15v1h1V14H15Z"/><path class="ba79-9" d="M12,16v1h1V15H12Z"/><path class="ba79-9" d="M9,18v2h1V18Z"/><path class="ba79-10" d="M23,20V18H22v2H21V18H20v3h5V18H24v2Z"/><path class="ba79-2" d="M22,20V18H21v2Z"/><path class="ba79-2" d="M23,19v1h1V18H23Z"/><path class="ba79-11" d="M22,23H21v2h3V23H22Z"/><path class="ba79-12" d="M21,23V21H20v2Z"/><path class="ba79-12" d="M24,21.222V23h1V21H24Z"/><path class="ba79-2" d="M23,22V21H22v1Z"/><path class="ba79-13" d="M22,22V21H21v1Z"/><path class="ba79-13" d="M24,22V21H23v1Z"/><path class="ba79-10" d="M22,18V17H21v1Z"/><rect class="ba79-10" x="23" y="17" width="1" height="1"/><polygon class="ba79-12" points="23 18 23 17 23 16 22 16 22 17 22 18 23 18"/><path class="ba79-14" d="M22,23h1V22H22Z"/><path class="ba79-2" d="M21,22v1h1V22Z"/><path class="ba79-2" d="M23,22v1h1V22Z"/></svg>