<svg xmlns="http://www.w3.org/2000/svg" viewBox="0 0 29 33"><defs><style>polygon,rect,path{shape-rendering:crispedges;}.za218-1{fill:#db5a8e;}.za218-2{fill:#000000;}.za218-3{fill:#c4ea3b;}.za218-4{fill:#e8b795;}.za218-5{fill:#6c9302;}.za218-6{fill:#ffffff;}.za218-7{fill:#7f5018;}.za218-8{fill:#7f5018;}.za218-9{fill:#c4ea3b;}.za218-10{fill:#508e91;}</style></defs><path class="za218-1" d="M0,33H6V27H7V26H8V25h2V24h1V23h1V21H11V20H10V19H9V16H8V14H9V11h1V10h1V7h1V6H11V5h2V6h2V7h1V9h2v1h1v1h1v3h1v2H20v3H19v1H18v1H17v2h1v1h1v1h2v1h1v1h1v6h6V0H0Z"/><path class="za218-2" d="M23,27H22v6h1V27Z"/><path class="za218-3" d="M21,31v2h1V31Z"/><path class="za218-3" d="M21,28v2h1V27H21Z"/><rect class="za218-2" x="21" y="26" width="1" height="1"/><path class="za218-2" d="M21,30V27H20v6h1V30Z"/><path class="za218-3" d="M20,32V26H19V25H18v1H17v1H16V25H15v2H14V25H13v2H12V26H11V25H10v1H9v6h1v1h4V32h1v1h4V32Zm-9-3H10V28h1Zm2,2H12V30h1Zm2,0H14V30h1Zm0-2H14V28h1Zm2,2H16V30h1Zm1-2V28h1v1Z"/><path class="za218-2" d="M20,26h1V25H19v1Z"/><rect class="za218-3" x="16" y="24" width="1" height="1"/><rect class="za218-2" x="15" y="24" width="1" height="1"/><rect class="za218-2" x="14" y="32" width="1" height="1"/><rect class="za218-2" x="14" y="30" width="1" height="1"/><rect class="za218-2" x="14" y="28" width="1" height="1"/><path class="za218-2" d="M14,26v1h1V25H14Z"/><rect class="za218-2" x="13" y="24" width="1" height="1"/><path class="za218-4" d="M16,24V23H13v1h1v1h1V24Z"/><rect class="za218-3" x="12" y="24" width="1" height="1"/><path class="za218-2" d="M11,26h2V25H12V24h1V23h3v1h1v1H16v1h2V25h1V24H18V23H17V21H16v1H13V21H12v2H11v1H10v1h1Z"/><path class="za218-2" d="M10,26V25H8v1h2Z"/><path class="za218-2" d="M9,31V27H8v6H9V31Z"/><path class="za218-3" d="M7,31v2H8V31Z"/><path class="za218-3" d="M7,30H8V27H7v3Z"/><rect class="za218-2" x="7" y="26" width="1" height="1"/><path class="za218-2" d="M7,30V27H6v6H7V30Z"/><rect class="za218-5" x="10" y="28" width="1" height="1"/><rect class="za218-5" x="12" y="30" width="1" height="1"/><path class="za218-5" d="M12,27h1V26H12Z"/><rect class="za218-5" x="16" y="30" width="1" height="1"/><rect class="za218-5" x="18" y="28" width="1" height="1"/><path class="za218-5" d="M16,27h1V26H16Z"/><path class="za218-5" d="M9,27V26H8v1Z"/><path class="za218-5" d="M19,32v1h1V32Z"/><path class="za218-5" d="M9,32v1h1V32Z"/><path class="za218-5" d="M7,31H8V30H7Z"/><path class="za218-5" d="M21,31h1V30H21Z"/><path class="za218-5" d="M20,27h1V26H20Z"/><path class="za218-2" d="M20,16h1V15H20Z"/><path class="za218-2" d="M19,14h1V11H19v3Z"/><rect class="za218-4" x="14" y="15" width="1" height="1"/><path class="za218-4" d="M12,12v1h1v1h3V12h2v1h1V11H18V10H16v1H14V10H11v1H10v1Z"/><path class="za218-4" d="M14,21V20H13V19h3V18h1v1H16v1H15v1h2V20h1V19h1V17H16V16H15v1H14V16H13v1H10v2h1v1h1v1h2Z"/><path class="za218-2" d="M19,17v2h1V16H19Z"/><rect class="za218-2" x="18" y="10" width="1" height="1"/><rect class="za218-2" x="18" y="19" width="1" height="1"/><rect class="za218-2" x="17" y="20" width="1" height="1"/><path class="za218-2" d="M13,9H11v1h2Z"/><path class="za218-2" d="M17,10h1V9H16v1Z"/><rect class="za218-2" x="11" y="20" width="1" height="1"/><rect class="za218-2" x="10" y="10" width="1" height="1"/><rect class="za218-2" x="10" y="19" width="1" height="1"/><path class="za218-2" d="M10,13V11H9v3h1Z"/><path class="za218-2" d="M10,16H9v3h1V16Z"/><path class="za218-2" d="M8,15v1H9V15Z"/><rect class="za218-2" x="14" y="16" width="1" height="1"/><path class="za218-6" d="M11,15V14H10v2h1Z"/><path class="za218-6" d="M12,14v2h1V14Z"/><path class="za218-6" d="M17,15V14H16v2h1Z"/><path class="za218-6" d="M18,15v1h1V14H18Z"/><path class="za218-2" d="M11,15v1h1V14H11Z"/><polygon class="za218-2" points="18 14 17 14 17 15 17 16 18 16 18 15 18 14"/><path class="za218-7" d="M18,12H16v1h2Z"/><path class="za218-7" d="M12,12H10v1h2Z"/><path class="za218-8" d="M15,20H14v1H13v1h3V21H15Z"/><polygon class="za218-2" points="16 20 16 19 13 19 13 20 14 20 15 20 16 20"/><rect class="za218-2" x="16" y="18" width="1" height="1"/><path class="za218-9" d="M13,10h1v1h2V7H15V6H13V5H11V6h1V7H11V9h2Z"/><path class="za218-10" d="M19,15v1h1V15h1V14H19Z"/><path class="za218-10" d="M18,16H16v1h3V16Z"/><path class="za218-10" d="M12,14h1V13H10v1h2Z"/><path class="za218-10" d="M18,14h1V13H16v1h2Z"/><path class="za218-10" d="M13,14v2h1V15h1v1h1V14Z"/><path class="za218-10" d="M11,16H10v1h3V16H11Z"/><path class="za218-10" d="M10,15V14H8v1H9v1h1Z"/><rect class="za218-9" x="10" y="9" width="1" height="1"></rect></svg>