<svg xmlns="http://www.w3.org/2000/svg" viewBox="0 0 29 33"><defs><style>polygon,rect,path{shape-rendering:crispedges;}.ba2-1{fill:#db5a8e;}.ba2-2{fill:#000000;}.ba2-3{fill:#efcaaf;}.ba2-4{fill:#841f00;}.ba2-5{fill:#316a6d;}.ba2-6{fill:#316a6d;}.ba2-7{fill:#c8a715;}.ba2-8{fill:#009b97;}.ba2-9{fill:#841f00;}.ba2-10{fill:#b23b00;}</style></defs><path class="ba2-1" d="M18,24V22H17v2Z"/><path class="ba2-1" d="M0,33H6V27H7V26H8V25h2V20H9V16H8V15H9V10h1V9h1V8h7V9h1v1h1v5h1v1H20v4H19v5h2v1h1v1h1v6h6V0H0Z"/><path class="ba2-1" d="M12,22H11v2h1V22Z"/><path class="ba2-2" d="M23,27H22v6h1V27Z"/><rect class="ba2-2" x="21" y="26" width="1" height="1"/><path class="ba2-3" d="M22,27H21v6h1V27Z"/><rect class="ba2-3" x="20" y="26" width="1" height="1"/><path class="ba2-2" d="M21,27H20v6h1V27Z"/><path class="ba2-2" d="M20,26h1V25H19v1Z"/><path class="ba2-4" d="M20,27V26H19V25H18v1H17v1H16v1H13V27H12V26H11V25H10v1H9v7H20V27Z"/><path class="ba2-2" d="M17,24v2h1V25h1V24H17Z"/><rect class="ba2-2" x="16" y="26" width="1" height="1"/><path class="ba2-2" d="M13,27v1h3V27H13Z"/><path class="ba2-3" d="M16,25V23H13v2H12v1h1v1h3V26h1V25Z"/><rect class="ba2-2" x="12" y="26" width="1" height="1"/><path class="ba2-2" d="M11,26h1V24H10v1h1Z"/><path class="ba2-2" d="M10,26V25H8v1h2Z"/><path class="ba2-3" d="M9,27V26H8v1Z"/><path class="ba2-2" d="M9,27H8v6H9V27Z"/><rect class="ba2-2" x="7" y="26" width="1" height="1"/><path class="ba2-3" d="M8,27H7v6H8V27Z"/><path class="ba2-2" d="M7,27H6v6H7V27Z"/><rect class="ba2-2" x="20" y="15" width="1" height="1"/><path class="ba2-3" d="M10,17v1h1v1h1V18h5v1h1V18h1V16h1V15H18v1H16V15H15V14H14v1H13v1H11V15H9v1h1Zm4-1h1v1H14Z"/><polygon class="ba2-3" points="13 21 14 21 14 22 15 22 15 21 16 21 16 20 13 20 13 21"/><rect class="ba2-3" x="18" y="13" width="1" height="1"/><path class="ba2-2" d="M19,17h1V16H19Z"/><path class="ba2-2" d="M10,16H9v1h1Z"/><rect class="ba2-2" x="8" y="15" width="1" height="1"/><rect class="ba2-2" x="14" y="16" width="1" height="1"/><rect class="ba2-5" x="10" y="13" width="1" height="1"/><path class="ba2-6" d="M12,22v1h5V22h2V20h1V17H19v1H18v1H16v2H15v1H14V21H13V19H11V18H10V17H9v3h1v2h2Z"/><path class="ba2-7" d="M18,23h1V22H18Z"/><path class="ba2-6" d="M18,24h1V23H18Z"/><path class="ba2-7" d="M17,24V23H16v1Z"/><path class="ba2-6" d="M16,25h1V24H16Z"/><path class="ba2-7" d="M13,23H12v1h1Z"/><path class="ba2-6" d="M13,24H12v1h1Z"/><path class="ba2-7" d="M11,22H10v1h1Z"/><path class="ba2-6" d="M11,23H10v1h1Z"/><path class="ba2-2" d="M16,18H12v1h1v1h3V19h1V18Z"/><path class="ba2-8" d="M19,14h1V13H19Z"/><path class="ba2-8" d="M10,13H9v1h1Z"/><path class="ba2-2" d="M11,16h2V15h1V14h1v1h1v1h2V15h2V14H18V13H11v1H9v1h2Z"/><path class="ba2-9" d="M19,12v1h1V11H19Z"/><path class="ba2-10" d="M10,12v1h1V11h1v2h1V11h1v2h1V11h1v2h1V11h1v2h1V11h1V10H19V9H18V8H11V9H10v1H9v1h1Z"/><path class="ba2-9" d="M17,11v2h1V11Z"/><path class="ba2-9" d="M15,11v2h1V11Z"/><path class="ba2-9" d="M13,11v2h1V11Z"/><path class="ba2-9" d="M11,11v2h1V11Z"/><path class="ba2-9" d="M10,12V11H9v2h1Z"/></svg>