<svg xmlns="http://www.w3.org/2000/svg" viewBox="0 0 29 33"><defs><style>polygon,rect,path{shape-rendering:crispedges;}.ba185-1{fill:#29834f;}.ba185-2{fill:#000000;}.ba185-3{fill:#e8b795;}.ba185-4{fill:#00e2b7;}.ba185-5{fill:#ffffff;}.ba185-6{fill:#ffffff;}.ba185-7{fill:#8e4717;}.ba185-8{fill:#8e4717;}.ba185-9{fill:#db5800;}.ba185-10{fill:#c10f7e;}</style></defs><path class="ba185-1" d="M0,33H6V27H7V26H8V25h2V24h2V21H11V20H10V19H9V16H8V15H9V11h1V10h1V9h1V8h5V9h2v1h1v1h1v3H20v1h1v1H20v3H19v1H18v1H17v3h2v1h1V23H19V21h2v4h1v1h1v7h6V0H0Z"/><path class="ba185-2" d="M7,27H6v6H7V27Z"/><path class="ba185-3" d="M8,27H7v6H8V27Z"/><path class="ba185-2" d="M9,30V26h1V25H8v1H7v1H8v6H9V30Z"/><rect class="ba185-4" x="10" y="30" width="1" height="1"/><path class="ba185-4" d="M14,31v1h1V30H14Z"/><rect class="ba185-4" x="10" y="32" width="1" height="1"/><path class="ba185-4" d="M17,30h1V29h1v1h1V26H19V25H18v1H17v1H16v1H13V27H12V26H11V25H10v1H9v4h1V29h1v1h1v3h1V29h2v1h1v2H15v1h2V30Z"/><rect class="ba185-4" x="18" y="32" width="1" height="1"/><rect class="ba185-4" x="18" y="30" width="1" height="1"/><path class="ba185-2" d="M13,23h3v1h1V21H16v1H13V21H12v3h1Z"/><path class="ba185-2" d="M21,28H20v5h1V28Z"/><rect class="ba185-2" x="19" y="25" width="1" height="1"/><path class="ba185-3" d="M22,26H20v1h1v6h1V26Z"/><path class="ba185-2" d="M23,26H22v7h1V26Z"/><path class="ba185-2" d="M11,26h1V24H10v1h1Z"/><rect class="ba185-2" x="12" y="26" width="1" height="1"/><rect class="ba185-2" x="16" y="26" width="1" height="1"/><path class="ba185-2" d="M18,26V25h1V24H17v2Z"/><path class="ba185-2" d="M13,27v1h3V27H13Z"/><path class="ba185-3" d="M13,26v1h3V26h1V24H16V23H13v1H12v2Z"/><path class="ba185-5" d="M20,30H19v1H18V30H17v3h1V32h1v1h1V30Z"/><rect class="ba185-5" x="18" y="29" width="1" height="1"/><path class="ba185-5" d="M16,32V30H15v2Z"/><path class="ba185-5" d="M14,32V30h1V29H13v4h2V32Z"/><path class="ba185-5" d="M12,30H11v1H10V30H9v3h1V32h1v1h1V30Z"/><rect class="ba185-5" x="10" y="29" width="1" height="1"/><rect class="ba185-2" x="20" y="15" width="1" height="1"/><rect class="ba185-3" x="13" y="20" width="1" height="1"/><rect class="ba185-3" x="16" y="19" width="1" height="1"/><rect class="ba185-3" x="12" y="19" width="1" height="1"/><path class="ba185-3" d="M18,14h1V13H17v1Z"/><path class="ba185-3" d="M12,19V18h5v1h2V16h1V15H16V13h1V11H15V10H11v1H10v2h1V12h2v1H11v1h2v1H9v1h1v3h2Zm2-3h1v1H14Z"/><rect class="ba185-3" x="15" y="20" width="1" height="1"/><path class="ba185-2" d="M19,17v2h1V16H19Z"/><path class="ba185-2" d="M18,20h1V19H18Z"/><rect class="ba185-2" x="17" y="20" width="1" height="1"/><rect class="ba185-2" x="11" y="20" width="1" height="1"/><path class="ba185-2" d="M10,19v1h1V19Z"/><path class="ba185-2" d="M10,16H9v3h1V16Z"/><rect class="ba185-2" x="8" y="15" width="1" height="1"/><rect class="ba185-2" x="14" y="16" width="1" height="1"/><path class="ba185-6" d="M10,15h1V14H10Z"/><path class="ba185-6" d="M16,14v1h1V14Z"/><path class="ba185-2" d="M12,15h1V14H11v1Z"/><path class="ba185-2" d="M18,14H17v1h2V14Z"/><rect class="ba185-7" x="10" y="13" width="1" height="1"/><rect class="ba185-7" x="11" y="12" width="2" height="1"/><path class="ba185-7" d="M17,13H16v1h1Z"/><path class="ba185-7" d="M18,12H17v1h1Z"/><path class="ba185-8" d="M17,19v1h1V19Z"/><rect class="ba185-8" x="16" y="20" width="1" height="1"/><path class="ba185-8" d="M15,20H14v1H13v1h3V21H15Z"/><path class="ba185-8" d="M14,19h3V18H13v1Z"/><rect class="ba185-8" x="12" y="20" width="1" height="1"/><path class="ba185-8" d="M12,19H11v1h1Z"/><path class="ba185-2" d="M15,20h1V19H13v1h2Z"/><path class="ba185-2" d="M13,18H12v1h1Z"/><path class="ba185-9" d="M10,14V11H9v4h1Z"/><rect class="ba185-9" x="10" y="10" width="1" height="1"/><path class="ba185-9" d="M15,10v1h2v1h1v1h1v2h1V14h1V11H20V10H19V9H17V8H12V9H11v1h4Z"/><path class="ba185-10" d="M21,26V21H20v5Z"/><path class="ba185-6" d="M19,21v2h1V21Z"/><path class="ba185-10" d="M21,28V27H20v1Z"/><path class="ba185-2" d="M22,26V25H21v1Z"/></svg>