<svg xmlns="http://www.w3.org/2000/svg" viewBox="0 0 29 33"><defs><style>polygon,rect,path{shape-rendering:crispedges;}.ba59-1{fill:#397d98;}.ba59-2{fill:#000000;}.ba59-3{fill:#e8b795;}.ba59-4{fill:#d8be00;}.ba59-5{fill:#ffed9f;}.ba59-6{fill:#ffffff;}.ba59-7{fill:#6f7032;}.ba59-8{fill:#6f7032;}.ba59-9{fill:#db5800;}</style></defs><path class="ba59-1" d="M0,33H6V27H7V26H8V25h2V24h2V21H11V20H9V18H8V12H9V11h1V10h1V9h7v1h1v1h1v2h1v5H20v2H18v1H17v3h2v1h2v1h1v1h1v6h6V0H0Z"/><path class="ba59-2" d="M23,27H22v6h1V27Z"/><rect class="ba59-2" x="21" y="26" width="1" height="1"/><path class="ba59-3" d="M22,27H21v6h1V27Z"/><rect class="ba59-3" x="20" y="26" width="1" height="1"/><path class="ba59-2" d="M21,27H20v6h1V27Z"/><path class="ba59-2" d="M20,26h1V25H19v1Z"/><path class="ba59-4" d="M14,31v1h1V30H14Z"/><rect class="ba59-4" x="18" y="32" width="1" height="1"/><path class="ba59-4" d="M17,30h1V29h1v1h1V26H19V25H18v1H17v1H16v1H13V27H12V26H11V25H10v1H9v4h1V29h1v1h1v3h1V29h2v1h1v2H15v1h2V30Z"/><rect class="ba59-4" x="18" y="30" width="1" height="1"/><rect class="ba59-4" x="10" y="30" width="1" height="1"/><rect class="ba59-4" x="10" y="32" width="1" height="1"/><path class="ba59-2" d="M18,26V25h1V24H17v2Z"/><rect class="ba59-2" x="16" y="26" width="1" height="1"/><path class="ba59-2" d="M13,27v1h3V27H13Z"/><path class="ba59-2" d="M13,23h3v1h1V21H16v1H13V21H12v3h1Z"/><path class="ba59-3" d="M13,26v1h3V26h1V24H16V23H13v1H12v2Z"/><rect class="ba59-2" x="12" y="26" width="1" height="1"/><path class="ba59-2" d="M11,26h1V24H10v1h1Z"/><path class="ba59-2" d="M10,26V25H8v1h2Z"/><path class="ba59-3" d="M9,27V26H8v1Z"/><path class="ba59-2" d="M9,30V27H8v6H9V30Z"/><rect class="ba59-2" x="7" y="26" width="1" height="1"/><path class="ba59-3" d="M8,27H7v6H8V27Z"/><path class="ba59-2" d="M7,27H6v6H7V27Z"/><path class="ba59-5" d="M20,30H19v1H18V30H17v3h1V32h1v1h1V30Z"/><rect class="ba59-5" x="18" y="29" width="1" height="1"/><path class="ba59-5" d="M16,32V30H15v2Z"/><path class="ba59-5" d="M14,32V30h1V29H13v4h2V32Z"/><path class="ba59-5" d="M12,30H11v1H10V30H9v3h1V32h1v1h1V30Z"/><rect class="ba59-5" x="10" y="29" width="1" height="1"/><path class="ba59-3" d="M18,14V13H16v1h2Z"/><rect class="ba59-3" x="11" y="13" width="1" height="1"/><rect class="ba59-3" x="11" y="11" width="1" height="1"/><path class="ba59-3" d="M13,22h3V21h1V20h1V19h1V18H18V15H17v2H16V15H15V11H14v1H13v2h1v2h1v1H14V16H13V15H11v3H10v1h1v1h1v1h1Zm-1-3V18h5v1H16v1H13V19Z"/><rect class="ba59-3" x="19" y="15" width="1" height="1"/><rect class="ba59-3" x="9" y="15" width="1" height="1"/><path class="ba59-2" d="M19,16v2h1V16Z"/><path class="ba59-2" d="M18,19v1h1V19Z"/><rect class="ba59-2" x="17" y="20" width="1" height="1"/><rect class="ba59-2" x="11" y="20" width="1" height="1"/><path class="ba59-2" d="M10,19v1h1V19Z"/><rect class="ba59-2" x="9" y="14" width="1" height="1"/><path class="ba59-2" d="M10,17V16H9v2h1Z"/><rect class="ba59-2" x="14" y="16" width="1" height="1"/><path class="ba59-6" d="M12,15h1V14H12Z"/><path class="ba59-6" d="M16,14v1h1V14Z"/><path class="ba59-2" d="M11,14v1h1V14Z"/><path class="ba59-2" d="M17,14v1h1V14Z"/><path class="ba59-7" d="M18,12H16v1h2Z"/><rect class="ba59-7" x="11" y="12" width="1" height="1"/><path class="ba59-8" d="M16,19V18H12v1h4Z"/><path class="ba59-2" d="M13,20h3V19H13Z"/><path class="ba59-2" d="M17,19V18H16v1Z"/><path class="ba59-9" d="M9,15V14h1v4h1V11h1v3h1V12h1V11h1v4h1V12h2v6h1V15h1v3h1V13H20V11H19V10H18V9H11v1H10v1H9v1H8v6H9V15Z"/><path class="ba59-9" d="M10,18H9v2h1V18Z"/><path class="ba59-9" d="M13,16h1V14H13v2Z"/><path class="ba59-9" d="M16,16v1h1V15H16Z"/><path class="ba59-9" d="M19,19v1h1V18H19Z"/></svg>