<svg xmlns="http://www.w3.org/2000/svg" viewBox="0 0 29 33"><defs><style>polygon,rect,path{shape-rendering:crispedges;}.ha250-1{fill:#7a982c;}.ha250-2{fill:#000000;}.ha250-3{fill:#00774c;}.ha250-4{fill:#e8b795;}.ha250-5{fill:#492a23;}.ha250-6{fill:#fad000;}.ha250-7{fill:#492a23;}.ha250-8{fill:#a7af69;}.ha250-9{fill:#ffffff;}.ha250-10{fill:#0068ff;}.ha250-11{fill:#ff1f4a;}</style></defs><path class="ha250-1" d="M0,33H6V27H7V26H8V25h2V23h1V21H10V20H9V16H8V15H9V14H8V12H9V11H8V10H9V9H8V8h2V7h1V8h1V6h1V7h1V8h1V7h1V6h1V7h1V8h1V7h1V8H19V9h2v2H20v1h1v1H20v1h1v2H20v4H19v1H18v2h1v2h1V24h1V23h1v1h1v9h6V0H0Z"/><path class="ha250-2" d="M7,27H6v6H7V27Z"/><rect class="ha250-2" x="7" y="26" width="1" height="1"/><path class="ha250-3" d="M8,27H7v6H8V27Z"/><path class="ha250-2" d="M9,27H8v6H9V27Z"/><path class="ha250-2" d="M10,25H8v1h2Z"/><path class="ha250-3" d="M20,27H19V25H18v1H17v1H16v2H15v1H14V29H13V27H12V26H11V25H10v1H8v1H9v6H20V27Z"/><path class="ha250-4" d="M14,24h1v1h1V23H13v2h1Z"/><path class="ha250-2" d="M21,27H20v6h1V27Z"/><path class="ha250-3" d="M22,27H21v6h1V27Z"/><path class="ha250-2" d="M23,24H22v9h1V24Z"/><path class="ha250-2" d="M20,16h1V15H20Z"/><path class="ha250-4" d="M18,12V10H17v1H16v1H15V10H14v1H13v2h1v1h1V13h2V12Z"/><rect class="ha250-4" x="10" y="11" width="1" height="1"/><path class="ha250-4" d="M15,16v1H14V16H10v2h1v1h1V18h2v1h1V18h2v1h1V18h1V16H15Z"/><rect class="ha250-4" x="11" y="10" width="1" height="1"/><rect class="ha250-4" x="15" y="20" width="1" height="1"/><rect class="ha250-4" x="14" y="15" width="1" height="1"/><rect class="ha250-4" x="13" y="20" width="1" height="1"/><path class="ha250-2" d="M16,23v2h1V23h1V22H16Z"/><rect class="ha250-2" x="8" y="15" width="1" height="1"/><rect class="ha250-2" x="14" y="16" width="1" height="1"/><path class="ha250-5" d="M12,12H11v1h2V12Z"/><rect class="ha250-5" x="17" y="12" width="1" height="1"/><rect class="ha250-2" x="14" y="29" width="1" height="1"/><rect class="ha250-2" x="12" y="26" width="1" height="1"/><path class="ha250-2" d="M15,28v1h1V27H15Z"/><rect class="ha250-2" x="16" y="26" width="1" height="1"/><path class="ha250-2" d="M13,27v2h1V27Z"/><rect class="ha250-2" x="17" y="25" width="1" height="1"/><rect class="ha250-2" x="11" y="25" width="1" height="1"/><rect class="ha250-2" x="14" y="24" width="1" height="1"/><rect class="ha250-2" x="13" y="25" width="1" height="1"/><rect class="ha250-2" x="15" y="25" width="1" height="1"/><path class="ha250-2" d="M12,24v1h1V22H11v1h1Z"/><rect class="ha250-6" x="16" y="25" width="1" height="1"/><path class="ha250-6" d="M15,26V25H14v1H13v1h1v2h1V27h1V26Z"/><rect class="ha250-6" x="12" y="25" width="1" height="1"/><path class="ha250-6" d="M11,25h1V23H11v2Z"/><path class="ha250-6" d="M17,24v1h1V23H17Z"/><path class="ha250-2" d="M19,25V23H18v2Z"/><path class="ha250-2" d="M11,24V23H10v2h1Z"/><path class="ha250-7" d="M14,18H13v1h1Z"/><path class="ha250-7" d="M13,23h3V22h2V21h1V20h1V16H19v2H18v1H17V18H15v1h1v2H15V20H14v1H13V19H11V18H10V16H9v4h1v1h1v1h2Z"/><path class="ha250-2" d="M13,19v1h3V19H13Z"/><path class="ha250-2" d="M12,18v1h1V18Z"/><path class="ha250-4" d="M21,27h1V24H21v1H20v2Z"/><path class="ha250-2" d="M20,27V25H19v2Z"/><rect class="ha250-2" x="20" y="24" width="1" height="1"/><rect class="ha250-2" x="21" y="23" width="1" height="1"/><path class="ha250-8" d="M21,15V14H20v1Z"/><path class="ha250-8" d="M10,13h1V12H10V11h1V10h1v1H11v1h2V11h1V10h1v2h1V11h1V10h1v3h3V12H20V11h1V9H19V8H18V7H17V6H16V7H15V8H14V7H13V6H12V8H11V7H10V8H8V9H9v1H8v1H9v1H8v2H9V13Z"/><rect class="ha250-8" x="19" y="7" width="1" height="1"/><path class="ha250-9" d="M11,16h3V15h1v1h5V13H15v1H14V13H9v3h2Zm5-2h3v1H16Zm-6,0h3v1H10Z"/><path class="ha250-10" d="M19,15V14H16v1h3Z"/><path class="ha250-11" d="M13,15V14H10v1h3Z"/></svg>