<svg xmlns="http://www.w3.org/2000/svg" viewBox="0 0 29 33"><defs><style>polygon,rect,path{shape-rendering:crispedges;}.ka197-1{fill:#6b4f99;}.ka197-2{fill:#000000;}.ka197-3{fill:#d8be00;}.ka197-4{fill:#6d5800;}.ka197-5{fill:#ce8452;}.ka197-6{fill:#ffffff;}.ka197-7{fill:#99582c;}.ka197-8{fill:#99582c;}.ka197-9{fill:#d8be00;}</style></defs><path class="ka197-1" d="M0,33H6V27H7V26H8V25h2V24h2V21H11V20H10V19H9V16H8V15H9V11h1V9h1V8h7V9h1v1h1v5h1v1H20v3H19v1H18v1H17v3h2v1h2v1h1v1h1v6h6V0H0Z"/><path class="ka197-2" d="M23,27H22v6h1V27Z"/><rect class="ka197-2" x="21" y="26" width="1" height="1"/><path class="ka197-3" d="M21,28v2h1V27H21Z"/><path class="ka197-3" d="M21,31v2h1V31Z"/><path class="ka197-2" d="M21,30V27H20v6h1V30Z"/><path class="ka197-2" d="M20,26h1V25H19v1Z"/><path class="ka197-3" d="M20,32V26H19V25H17V24H16V23H13v1H12v1H10v1H9v6h1v1h4V32h1v1h4V32Zm-9-3H10V28h1Zm2,2H12V30h1Zm0-4H12V26h1Zm2,2H14V28h1Zm0-4H14V24h1Zm2,6H16V30h1Zm0-4H16V26h1Zm1,2V28h1v1Z"/><path class="ka197-2" d="M18,25h1V24H17v1Z"/><path class="ka197-2" d="M13,23h3v1h1V21H16v1H13V21H12v3h1Z"/><path class="ka197-2" d="M12,24H10v1h2Z"/><path class="ka197-2" d="M10,26V25H8v1h2Z"/><path class="ka197-2" d="M9,31V27H8v6H9V31Z"/><rect class="ka197-2" x="7" y="26" width="1" height="1"/><path class="ka197-3" d="M7,30H8V27H7v3Z"/><path class="ka197-3" d="M7,31v2H8V31Z"/><path class="ka197-2" d="M7,30V27H6v6H7V30Z"/><rect class="ka197-4" x="10" y="28" width="1" height="1"/><rect class="ka197-4" x="12" y="30" width="1" height="1"/><rect class="ka197-4" x="14" y="28" width="1" height="1"/><rect class="ka197-4" x="14" y="32" width="1" height="1"/><rect class="ka197-4" x="12" y="26" width="1" height="1"/><rect class="ka197-4" x="16" y="30" width="1" height="1"/><rect class="ka197-4" x="18" y="28" width="1" height="1"/><rect class="ka197-4" x="16" y="26" width="1" height="1"/><rect class="ka197-4" x="14" y="24" width="1" height="1"/><path class="ka197-4" d="M9,27V26H8v1Z"/><path class="ka197-4" d="M19,32v1h1V32Z"/><path class="ka197-4" d="M9,32v1h1V32Z"/><path class="ka197-4" d="M7,31H8V30H7Z"/><path class="ka197-4" d="M21,31h1V30H21Z"/><path class="ka197-4" d="M20,27h1V26H20Z"/><rect class="ka197-2" x="20" y="15" width="1" height="1"/><rect class="ka197-5" x="19" y="15" width="1" height="1"/><path class="ka197-5" d="M13,20v2h3V20Z"/><path class="ka197-5" d="M12,19V18h5v2h1V19h1V16H16V14h2V13H15V12H14V11H13V10H11v1H10v1h2v1h1v3H10v3h1v1h1Zm2-3h1v1H14Z"/><path class="ka197-5" d="M10,14h2V13H10Z"/><rect class="ka197-5" x="9" y="15" width="1" height="1"/><path class="ka197-2" d="M19,17v2h1V16H19Z"/><rect class="ka197-2" x="18" y="19" width="1" height="1"/><rect class="ka197-2" x="17" y="20" width="1" height="1"/><rect class="ka197-2" x="11" y="20" width="1" height="1"/><rect class="ka197-2" x="10" y="19" width="1" height="1"/><path class="ka197-2" d="M10,16H9v3h1V16Z"/><rect class="ka197-2" x="8" y="15" width="1" height="1"/><rect class="ka197-2" x="14" y="16" width="1" height="1"/><path class="ka197-6" d="M10,14v2h1V14Z"/><path class="ka197-6" d="M12,15v1h1V14H12Z"/><path class="ka197-6" d="M16,14v2h1V14Z"/><path class="ka197-6" d="M19,14H18v2h1V14Z"/><path class="ka197-2" d="M12,14H11v2h1V14Z"/><path class="ka197-2" d="M17,14v2h1V14Z"/><path class="ka197-7" d="M13,14V13H12v1Z"/><rect class="ka197-7" x="10" y="12" width="2" height="1"/><path class="ka197-8" d="M17,19H16v2h1V19Z"/><path class="ka197-8" d="M13,20V19h3V18H12v3h1Z"/><path class="ka197-2" d="M16,19H13v1h3Z"/><path class="ka197-2" d="M17,18H16v1h1Z"/><path class="ka197-9" d="M11,10h2v1h1v1h1v1h3v1h1v1h1V10H19V9H18V8H11V9H10v2h1Z"/><path class="ka197-9" d="M10,14V11H9v4h1Z"/></svg>