<svg xmlns="http://www.w3.org/2000/svg" viewBox="0 0 29 33"><defs><style>polygon,rect,path{shape-rendering:crispedges;}.ma153-1{fill:#d14646;}.ma153-2{fill:#000000;}.ma153-3{fill:#00686d;}.ma153-4{fill:#9e6969;}.ma153-5{fill:#a56e49;}.ma153-6{fill:#34e0cb;}.ma153-7{fill:#ffffff;}.ma153-8{fill:#492a23;}.ma153-9{fill:#492a23;}.ma153-10{fill:#4922aa;}</style></defs><path class="ma153-1" d="M6,32V27H7V26H8V25h2V24h2V21H11V20H10V19H9V16H8V15H9V11h1V10h1V9h7v1h1v1h1v4h1v1H20v3H19v1H18v1H17v3h2v1h2v1h1v1h1v6h6V0H0V33H6Z"/><path class="ma153-2" d="M23,27H22v6h1V27Z"/><rect class="ma153-2" x="21" y="26" width="1" height="1"/><path class="ma153-3" d="M21,31v1h1V30H21Z"/><path class="ma153-3" d="M21,28h1V27H21Z"/><path class="ma153-2" d="M21,31V27H20v6h1V31Z"/><path class="ma153-3" d="M18,26v2h1v1h1V27H19V25H18Z"/><path class="ma153-3" d="M19,31V30H18v2h1v1h1V31Z"/><path class="ma153-2" d="M20,26h1V25H19v1Z"/><path class="ma153-2" d="M18,31V25h1V24H17v1H16v1h1v7h1V31Z"/><path class="ma153-4" d="M17,26H16v1H13V26H12v7h5V26Z"/><path class="ma153-2" d="M13,26v1h3V26H13Z"/><path class="ma153-2" d="M13,23h3v1h1V21H16v1H13V21H12v3h1Z"/><path class="ma153-5" d="M13,25v1h3V25h1V24H16V23H13v1H12v1Z"/><path class="ma153-2" d="M12,26h1V25H12V24H10v1h1v8h1V26Z"/><path class="ma153-3" d="M10,31V30H9v2h1v1h1V31Z"/><path class="ma153-3" d="M10,26H9v2h1v1h1V27H10Z"/><path class="ma153-2" d="M10,26V25H8v1h2Z"/><path class="ma153-2" d="M9,31V27H8v6H9V31Z"/><rect class="ma153-2" x="7" y="26" width="1" height="1"/><path class="ma153-3" d="M8,29V27H7v2Z"/><path class="ma153-3" d="M7,31v2H8V31Z"/><path class="ma153-2" d="M7,30V27H6v6H7V30Z"/><path class="ma153-6" d="M21,29v1h1V28H21Z"/><path class="ma153-6" d="M21,32v1h1V32Z"/><path class="ma153-6" d="M19,26v1h2V26H19Z"/><path class="ma153-6" d="M19,28H18v2h1v1h1V29H19Z"/><path class="ma153-6" d="M18,32v1h1V32Z"/><path class="ma153-6" d="M10,27h1V25H10v2Z"/><path class="ma153-6" d="M10,28H9v2h1v1h1V29H10Z"/><path class="ma153-6" d="M9,32v1h1V32Z"/><path class="ma153-6" d="M9,27V26H8v1Z"/><path class="ma153-6" d="M7,30v1H8V29H7Z"/><rect class="ma153-2" x="20" y="15" width="1" height="1"/><path class="ma153-5" d="M12,19V18h5v2h1V19h1V17H18V16H16V15H15v2H14V15H9v1h1v3h1v1h1Z"/><path class="ma153-5" d="M15,19v1H14V19H13v3h3V19Z"/><rect class="ma153-5" x="19" y="15" width="1" height="1"/><path class="ma153-2" d="M19,17v2h1V16H19Z"/><rect class="ma153-2" x="18" y="19" width="1" height="1"/><rect class="ma153-2" x="17" y="20" width="1" height="1"/><rect class="ma153-2" x="11" y="20" width="1" height="1"/><rect class="ma153-2" x="10" y="19" width="1" height="1"/><path class="ma153-2" d="M10,16H9v3h1V16Z"/><rect class="ma153-2" x="8" y="15" width="1" height="1"/><path class="ma153-2" d="M14,17h1V16H14Z"/><path class="ma153-7" d="M12,14v1h1V14Z"/><path class="ma153-2" d="M11,14H10v1h2V14Z"/><rect class="ma153-8" x="12" y="13" width="1" height="1"/><path class="ma153-9" d="M13,19h3v2h1V18H12v3h1Z"/><path class="ma153-2" d="M15,20V19H14v1Z"/><path class="ma153-10" d="M10,14h2V13h1v2h1v1h1V15h1v1h2v1h1V15h1V11H19V10H18V9H11v1H10v1H9v4h1Z"/></svg>