<svg xmlns="http://www.w3.org/2000/svg" viewBox="0 0 29 33"><defs><style>polygon,rect,path{shape-rendering:crispedges;}.oa231-1{fill:#6b4f99;}.oa231-2{fill:#000000;}.oa231-3{fill:#508e5d;}.oa231-4{fill:#ffffff;}.oa231-5{fill:#e8b795;}.oa231-6{fill:#7eaa7e;}.oa231-7{fill:#ffffff;}.oa231-8{fill:#7f5018;}.oa231-9{fill:#fad000;}.oa231-10{fill:#10bcff;}.oa231-11{fill:#508e91;}</style></defs><path class="oa231-1" d="M0,33H6V27H7V26H8V25h2V23h1V22h1V21H11V20H10V19H9V16H8V14H9V10h1V9h1V8h7V9h1v1h1v2h1v6H20v1H19v1H18v1H17v1h1v1h1v2h2v1h1v1h1v6h6V0H0Z"/><path class="oa231-2" d="M23,27H22v6h1V27Z"/><rect class="oa231-2" x="21" y="26" width="1" height="1"/><path class="oa231-3" d="M21,31v1h1V30H21Z"/><path class="oa231-3" d="M21,28h1V27H21Z"/><path class="oa231-2" d="M21,31V27H20v6h1V31Z"/><path class="oa231-3" d="M19,31V30H18v2h1v1h1V31Z"/><path class="oa231-3" d="M18,26v2h1v1h1V27H19V25H18Z"/><path class="oa231-2" d="M20,26h1V25H19v1Z"/><path class="oa231-2" d="M18,31V25H17v1H16v1h1v6h1V31Z"/><path class="oa231-4" d="M17,27H16v2H15v1H14V29H13V27H12v6h5V27Z"/><path class="oa231-5" d="M14,24h1v1h1V23H13v2h1Z"/><path class="oa231-2" d="M12,27h1V26H12V25H11v8h1V27Z"/><path class="oa231-3" d="M10,26H9v2h1v1h1V27H10Z"/><path class="oa231-3" d="M10,31V30H9v2h1v1h1V31Z"/><path class="oa231-2" d="M10,26V25H8v1h2Z"/><path class="oa231-2" d="M9,31V27H8v6H9V31Z"/><rect class="oa231-2" x="7" y="26" width="1" height="1"/><path class="oa231-3" d="M8,29V27H7v2Z"/><path class="oa231-3" d="M7,31v2H8V31Z"/><path class="oa231-2" d="M7,30V27H6v6H7V30Z"/><path class="oa231-6" d="M21,29v1h1V28H21Z"/><path class="oa231-6" d="M21,32v1h1V32Z"/><path class="oa231-6" d="M19,26v1h2V26H19Z"/><path class="oa231-6" d="M19,28H18v2h1v1h1V29H19Z"/><path class="oa231-6" d="M18,32v1h1V32Z"/><path class="oa231-6" d="M10,27h1V25H10v2Z"/><path class="oa231-6" d="M10,28H9v2h1v1h1V29H10Z"/><path class="oa231-6" d="M9,32v1h1V32Z"/><path class="oa231-6" d="M9,27V26H8v1Z"/><path class="oa231-6" d="M7,30v1H8V29H7Z"/><path class="oa231-5" d="M13,22h3V21h1V20h1V19h1V17H16V16H15v1H14V16H13v1H10v2h1v1h1v1h1Zm0-3h3V18h1v1H16v1H13Z"/><path class="oa231-5" d="M19,16V15H16v1h3Z"/><path class="oa231-5" d="M12,15H10v1h3V15Z"/><rect class="oa231-5" x="14" y="15" width="1" height="1"/><path class="oa231-5" d="M11,12h2v2h3V12H15V11H13V10H11v1H10v2h1Z"/><path class="oa231-2" d="M19,16v3h1V16Z"/><rect class="oa231-2" x="18" y="19" width="1" height="1"/><rect class="oa231-2" x="17" y="20" width="1" height="1"/><rect class="oa231-2" x="11" y="20" width="1" height="1"/><rect class="oa231-2" x="10" y="19" width="1" height="1"/><path class="oa231-2" d="M10,16H9v3h1V16Z"/><path class="oa231-2" d="M8,15v1H9V15Z"/><rect class="oa231-2" x="14" y="16" width="1" height="1"/><rect class="oa231-7" x="12" y="14" width="1" height="1"/><path class="oa231-7" d="M11,14H10v1h1Z"/><path class="oa231-7" d="M18,15h1V14H18Z"/><path class="oa231-7" d="M16,14v1h1V14Z"/><path class="oa231-2" d="M11,14v1h1V14Z"/><path class="oa231-2" d="M17,14v1h1V14Z"/><path class="oa231-8" d="M11,12v1h2V12Z"/><rect class="oa231-2" x="14" y="29" width="1" height="1"/><path class="oa231-2" d="M15,28v1h1V27H15Z"/><path class="oa231-2" d="M13,27v2h1V27Z"/><rect class="oa231-2" x="14" y="24" width="1" height="1"/><rect class="oa231-2" x="13" y="25" width="1" height="1"/><rect class="oa231-2" x="15" y="25" width="1" height="1"/><path class="oa231-2" d="M12,24v1h1V23h3v2h1V23h1V22H17V21H16v1H13V21H12v1H11v1h1Z"/><rect class="oa231-9" x="16" y="25" width="1" height="1"/><path class="oa231-9" d="M15,25H14v1H13v1h1v2h1V27h1V26H15Z"/><rect class="oa231-9" x="12" y="25" width="1" height="1"/><path class="oa231-9" d="M11,25h1V23H11v2Z"/><path class="oa231-9" d="M17,24v1h1V23H17Z"/><path class="oa231-2" d="M19,25V23H18v2Z"/><path class="oa231-2" d="M11,24V23H10v2h1Z"/><rect class="oa231-2" x="13" y="19" width="3" height="1"/><rect class="oa231-2" x="16" y="18" width="1" height="1"/><path class="oa231-10" d="M20,16v2h1V15H20Z"/><path class="oa231-10" d="M10,13V11h1V10h2v1h2v1h1v1h3v1h2V12H20V10H19V9H18V8H11V9H10v1H9v4h1Z"/><path class="oa231-11" d="M19,15v1h1V15h1V14H19Z"/><path class="oa231-11" d="M18,16H16v1h3V16Z"/><path class="oa231-11" d="M12,14h1V13H10v1h2Z"/><path class="oa231-11" d="M17,14h2V13H16v1Z"/><path class="oa231-11" d="M16,14H13v2h1V15h1v1h1V14Z"/><path class="oa231-11" d="M10,16v1h3V16H10Z"/><path class="oa231-11" d="M10,15V14H8v1H9v1h1Z"/></svg>