<svg xmlns="http://www.w3.org/2000/svg" viewBox="0 0 29 33"><defs><style>polygon,rect,path{shape-rendering:crispedges;}.la127-1{fill:#397d98;}.la127-2{fill:#000000;}.la127-3{fill:#6f7032;}.la127-4{fill:#a7af69;}.la127-5{fill:#e8b795;}.la127-6{fill:#ffffff;}.la127-7{fill:#000000;}.la127-8{fill:#5a2de2;}</style></defs><path class="la127-1" d="M0,33H6V27H7V26H8V25h2V24h2V21H10v1H9V21H8V20H9V17H8V12H9V10h1V9h1V8h7V9h1v1h1v2h1v6H20v2h1v1H20v1H19V21H17v3h2v1h2v1h1v1h1v6h6V0H0Z"/><path class="la127-2" d="M23,27H22v6h1V27Z"/><rect class="la127-2" x="21" y="26" width="1" height="1"/><path class="la127-3" d="M21,28h1V27H21Z"/><path class="la127-3" d="M21,31v1h1V30H21Z"/><path class="la127-2" d="M21,31V27H20v6h1V31Z"/><path class="la127-2" d="M20,26h1V25H19v1Z"/><path class="la127-3" d="M16,31V30H15V28H14V27H13V25H11v1h1v2h1v1h1v2h1v1h1v1h1V31Z"/><path class="la127-3" d="M19,31V30H18V28H17V27H16V25H15V24H14V23H13v2h1v1h1v2h1v1h1v2h1v1h1v1h1V31Z"/><path class="la127-3" d="M10,31V30H9v2h1v1h1V31Z"/><path class="la127-3" d="M13,31V30H12V28H11V27H10V26H9v2h1v1h1v2h1v1h1v1h1V31Z"/><path class="la127-3" d="M17,25v1h1v2h1v1h1V27H19V25H17Z"/><rect class="la127-3" x="16" y="24" width="1" height="1"/><path class="la127-2" d="M18,25h1V24H17v1Z"/><path class="la127-2" d="M13,23h3v1h1V21H16v1H13V21H12v3h1Z"/><path class="la127-2" d="M12,25V24H10v1h2Z"/><path class="la127-2" d="M10,26V25H8v1h2Z"/><path class="la127-2" d="M9,31V27H8v6H9V31Z"/><rect class="la127-2" x="7" y="26" width="1" height="1"/><path class="la127-3" d="M7,31v2H8V31Z"/><path class="la127-3" d="M8,29V27H7v2Z"/><path class="la127-2" d="M7,30V27H6v6H7V30Z"/><path class="la127-4" d="M21,29v1h1V28H21Z"/><path class="la127-4" d="M21,32v1h1V32Z"/><path class="la127-4" d="M19,26v1h2V26H19Z"/><path class="la127-4" d="M19,28H18v2h1v1h1V29H19Z"/><path class="la127-4" d="M17,26V25H16v2h1v1h1V26Z"/><path class="la127-4" d="M18,32V31H17v2h2V32Z"/><path class="la127-4" d="M16,30v1h1V29H16V28H15v2Z"/><path class="la127-4" d="M16,23H14v1h1v1h1V23Z"/><path class="la127-4" d="M14,27v1h1V26H14V25H13v2Z"/><path class="la127-4" d="M15,32V31H14v2h2V32Z"/><path class="la127-4" d="M13,30v1h1V29H13V28H12v2Z"/><path class="la127-4" d="M13,25V24H12v1Z"/><path class="la127-4" d="M10,27h1v1h1V26H11V25H10v2Z"/><path class="la127-4" d="M12,32V31H11v2h2V32Z"/><path class="la127-4" d="M10,30v1h1V29H10V28H9v2Z"/><path class="la127-4" d="M9,32v1h1V32Z"/><path class="la127-4" d="M9,27V26H8v1Z"/><path class="la127-4" d="M7,30v1H8V29H7Z"/><path class="la127-5" d="M13,22h3V21h1V20h1V19h1V16h1V15H16V14h2V13H16V12h1V11H16V10H15v1H14v1H13v3H10v4h1v1h1v1h1Zm1-6h1v1H14Zm-1,3h3V18h1v1H16v1H13Z"/><path class="la127-2" d="M19,16v3h1V16Z"/><rect class="la127-2" x="18" y="19" width="1" height="1"/><path class="la127-2" d="M17,20v1h1V20Z"/><path class="la127-2" d="M11,20v1h1V20Z"/><rect class="la127-2" x="10" y="19" width="1" height="1"/><path class="la127-2" d="M10,18H9v1h1Z"/><rect class="la127-2" x="14" y="16" width="1" height="1"/><path class="la127-6" d="M12,15h1V14H12Z"/><path class="la127-6" d="M10,14v1h1V14Z"/><path class="la127-6" d="M18,14v1h1V14Z"/><path class="la127-6" d="M16,14v1h1V14Z"/><path class="la127-2" d="M11,14v1h1V14Z"/><path class="la127-2" d="M17,14v1h1V14Z"/><rect class="la127-7" x="18" y="13" width="1" height="1"/><polygon class="la127-7" points="17 12 16 12 16 13 18 13 18 12 17 12"/><path class="la127-7" d="M12,14h1V13H12Z"/><rect class="la127-2" x="13" y="19" width="3" height="1"/><rect class="la127-2" x="16" y="18" width="1" height="1"/><path class="la127-8" d="M19,20H18v1h1v1h1V21h1V20H20V19H19Z"/><path class="la127-8" d="M10,20V19H9v1H8v1H9v1h1V21h1V20Z"/><path class="la127-8" d="M10,17V14h2V13h1V12h1V11h1V10h1v1h1v1h1v1h1v2h1v3h1V12H20V10H19V9H18V8H11V9H10v1H9v2H8v5H9v1h1Z"/></svg>