<svg xmlns="http://www.w3.org/2000/svg" viewBox="0 0 29 33"><defs><style>polygon,rect,path{shape-rendering:crispedges;}.ga281-1{fill:#b4bd09;}.ga281-2{fill:#000000;}.ga281-3{fill:#00774c;}.ga281-4{fill:#b2622b;}.ga281-5{fill:#990000;}.ga281-6{fill:#fad000;}.ga281-7{fill:#ffffff;}.ga281-8{fill:#990000;}.ga281-9{fill:#4922aa;}.ga281-10{fill:#0068ff;}.ga281-11{fill:#ff1f4a;}</style></defs><path class="ga281-1" d="M0,33H6V27H7V26H8V25h2V23h1V22h1V21H9V20H8V19H9V16H8V15H9V10h1V9h1V8h7V9h1v2h1v4h1v1H20v3h1v1H20v1H17v1h1v1h1v2h2v1h1v1h1v6h6V0H0Z"/><path class="ga281-2" d="M23,27H22v6h1V27Z"/><rect class="ga281-2" x="21" y="26" width="1" height="1"/><path class="ga281-3" d="M22,27H21v6h1V27Z"/><path class="ga281-2" d="M21,27H20v6h1V27Z"/><path class="ga281-2" d="M20,26h1V25H19v1Z"/><path class="ga281-3" d="M20,27h1V26H19V25H18v1H17v1H16v1H13V27H12V26H11V25H10v1H9v7H20V27Z"/><path class="ga281-4" d="M16,25V23H13v2h3Z"/><path class="ga281-2" d="M9,26h1V25H8v1H7v1H8v6H9V26Z"/><path class="ga281-3" d="M8,27H7v6H8V27Z"/><path class="ga281-2" d="M7,27H6v6H7V27Z"/><rect class="ga281-2" x="20" y="15" width="1" height="1"/><path class="ga281-2" d="M19,13h1V11H19v2Z"/><rect class="ga281-4" x="14" y="15" width="1" height="1"/><path class="ga281-4" d="M18,10H17v1H16V10H15v1H14V10H13v1H12V10H11v1H10v2h1V12h2v1h1v1h1V13h2V12h2V11H18Z"/><path class="ga281-4" d="M13,22h3V21h1V19h1V18h1V16H15v1H14V16H10v2h1v1h1V18h1v1h3v1H13V19H12v2h1Z"/><path class="ga281-2" d="M17,20v1h1V20Z"/><rect class="ga281-2" x="11" y="9" width="1" height="1"/><rect class="ga281-2" x="15" y="9" width="1" height="1"/><rect class="ga281-2" x="17" y="9" width="1" height="1"/><rect class="ga281-2" x="13" y="9" width="1" height="1"/><path class="ga281-2" d="M11,20v1h1V20Z"/><rect class="ga281-2" x="10" y="10" width="1" height="1"/><path class="ga281-2" d="M10,12V11H9v2h1Z"/><rect class="ga281-2" x="8" y="15" width="1" height="1"/><rect class="ga281-2" x="14" y="16" width="1" height="1"/><path class="ga281-5" d="M11,12v1h2V12Z"/><path class="ga281-5" d="M17,12v1h2V12Z"/><path class="ga281-2" d="M18,25h1V23H18v2Z"/><rect class="ga281-2" x="17" y="25" width="1" height="1"/><path class="ga281-6" d="M17,24v1h1V24Z"/><path class="ga281-7" d="M17,24h1V23H17Z"/><rect class="ga281-2" x="16" y="26" width="1" height="1"/><rect class="ga281-7" x="16" y="25" width="1" height="1"/><rect class="ga281-6" x="15" y="26" width="1" height="1"/><path class="ga281-2" d="M14,27H13v1h3V27H14Z"/><path class="ga281-7" d="M14,27h1V26H14Z"/><rect class="ga281-6" x="13" y="26" width="1" height="1"/><path class="ga281-2" d="M14,26h2V25H13v1Z"/><rect class="ga281-2" x="12" y="26" width="1" height="1"/><rect class="ga281-7" x="12" y="25" width="1" height="1"/><path class="ga281-2" d="M12,24v1h1V23h3v2h1V23h1V22H17V21H16v1H13V21H12v1H11v1h1Z"/><rect class="ga281-2" x="11" y="25" width="1" height="1"/><rect class="ga281-6" x="11" y="24" width="1" height="1"/><rect class="ga281-7" x="11" y="23" width="1" height="1"/><path class="ga281-2" d="M11,24V23H10v2h1Z"/><path class="ga281-8" d="M19,17v1H18v1H17v1h1v1h2V20h1V19H20V16H19Z"/><path class="ga281-8" d="M12,20V19H11V18H10V16H9v3H8v1H9v1h2V20Z"/><rect class="ga281-2" x="13" y="19" width="3" height="1"/><rect class="ga281-2" x="12" y="18" width="1" height="1"/><path class="ga281-9" d="M18,11h1V9H18v2Z"/><path class="ga281-9" d="M12,10v1h1V9h1v2h1V9h1v2h1V9h1V8H11V9h1Z"/><rect class="ga281-9" x="10" y="9" width="1" height="1"/><path class="ga281-9" d="M10,10H9v1h1Z"/><path class="ga281-7" d="M11,16h3V15h1v1h5V13H15v1H14V13H9v3h2Zm5-2h3v1H16Zm-6,0h3v1H10Z"/><path class="ga281-10" d="M19,15V14H16v1h3Z"/><path class="ga281-11" d="M13,15V14H10v1h3Z"/></svg>