<svg xmlns="http://www.w3.org/2000/svg" viewBox="0 0 29 33"><defs><style>polygon,rect,path{shape-rendering:crispedges;}.eb127-1{fill:#31a09d;}.eb127-2{fill:#000000;}.eb127-3{fill:#333333;}.eb127-4{fill:#ffffff;}.eb127-5{fill:#e8b795;}.eb127-6{fill:#90a2a3;}.eb127-7{fill:#ffffff;}.eb127-8{fill:#492a23;}.eb127-9{fill:#ff1d99;}.eb127-10{fill:#ff1d99;}.eb127-11{fill:#efc075;}.eb127-12{fill:#2aa8e8;}.eb127-13{fill:#d8aa68;}.eb127-14{fill:#563e1b;}</style></defs><path class="eb127-1" d="M21,21V20H20v1H17v1h1v1h1v1h1v1h1V21Z"/><path class="eb127-1" d="M0,33H6V28H5V27H4V25H5V24H8v1H9V24h1V23h1V22h1V21H9V20H8V19H9V16H8V15H9V11h1V10h1V9h1V8h1V6h1V5h1V7h1V9h2v1h1v1h1v4h1V14h1v8h1v1h1v8H23v1H22v1h7V0H0Z"/><path class="eb127-1" d="M20,19h1V16H20v3Z"/><path class="eb127-2" d="M7,27H5v1H6v5H7V27Z"/><path class="eb127-3" d="M8,27H7v6H8V27Z"/><path class="eb127-2" d="M9,29h1V28h2V27H9V25H8v8H9V29Z"/><rect class="eb127-2" x="9" y="24" width="1" height="1"/><path class="eb127-3" d="M12,32V31H11V30H10V29H9v4h4V32Z"/><rect class="eb127-2" x="10" y="23" width="1" height="1"/><path class="eb127-3" d="M10,26v1h2v1H10v1h1v1h1v1h1V26H12V25H11V24H10v1H9v1Z"/><rect class="eb127-2" x="10" y="29" width="1" height="1"/><rect class="eb127-3" x="11" y="23" width="1" height="1"/><rect class="eb127-2" x="11" y="24" width="1" height="1"/><rect class="eb127-2" x="11" y="30" width="1" height="1"/><path class="eb127-2" d="M12,24h1V23h3v1h1V23h1V22H17V21H16v1H13V21H12v1H11v1h1Z"/><rect class="eb127-2" x="12" y="25" width="1" height="1"/><path class="eb127-2" d="M17,32V31H16V26H13v5H12v1h1v1h1V27h1v6h1V32Z"/><path class="eb127-4" d="M15,27H14v6h1V27Z"/><path class="eb127-5" d="M17,25V24H16V23H13v1H12v1h1v1h3V25Z"/><rect class="eb127-2" x="16" y="25" width="1" height="1"/><path class="eb127-3" d="M20,29H19v1H18v1H17v1H16v1h4V29Z"/><rect class="eb127-3" x="17" y="23" width="1" height="1"/><rect class="eb127-2" x="17" y="24" width="1" height="1"/><rect class="eb127-2" x="17" y="30" width="1" height="1"/><rect class="eb127-2" x="18" y="23" width="1" height="1"/><rect class="eb127-2" x="18" y="29" width="1" height="1"/><rect class="eb127-2" x="19" y="24" width="1" height="1"/><path class="eb127-3" d="M19,24H18v1H17v1H16v5h1V30h1V29h1V28H17V27h2V26h1V25H19Z"/><path class="eb127-2" d="M21,29V25H20v2H17v1h2v1h1v4h1V29Z"/><rect class="eb127-2" x="22" y="31" width="1" height="1"/><path class="eb127-3" d="M23,25H22v6h1V25Z"/><path class="eb127-2" d="M23,29v2h1V23H23v6Z"/><path class="eb127-6" d="M19,27h1V26H19Z"/><path class="eb127-6" d="M9,26v1h1V26Z"/><rect class="eb127-2" x="20" y="15" width="1" height="1"/><path class="eb127-2" d="M19,14v1h1V11H19v3Z"/><path class="eb127-5" d="M13,22h3V21h1V19h1V18h1V16h1V15H16V14h2V13H16V12h2v1h1V11H18V10H16v1H15V10H11v1H10v2h1V12h2v1H11v1h2v1H9v1h1v2h1v1h1V18h1v1h3v1H13V19H12v2h1Zm2-5H14V16h1Z"/><rect class="eb127-2" x="18" y="10" width="1" height="1"/><path class="eb127-2" d="M18,20H17v1h1Z"/><path class="eb127-2" d="M14,10V9H11v1h3Z"/><path class="eb127-2" d="M17,10h1V9H16v1Z"/><path class="eb127-2" d="M11,20v1h1V20Z"/><rect class="eb127-2" x="10" y="10" width="1" height="1"/><path class="eb127-2" d="M10,14V11H9v4h1Z"/><rect class="eb127-2" x="8" y="15" width="1" height="1"/><rect class="eb127-2" x="14" y="16" width="1" height="1"/><path class="eb127-7" d="M13,15V14H12v1Z"/><path class="eb127-7" d="M10,15h1V14H10Z"/><path class="eb127-7" d="M18,14v1h1V14Z"/><path class="eb127-7" d="M16,14v1h1V14Z"/><path class="eb127-2" d="M12,15V14H11v1Z"/><path class="eb127-2" d="M17,14v1h1V14Z"/><path class="eb127-8" d="M19,13H18v1h1Z"/><rect class="eb127-8" x="16" y="12" width="2" height="1"/><path class="eb127-8" d="M11,14V13H10v1Z"/><rect class="eb127-8" x="11" y="12" width="2" height="1"/><path class="eb127-9" d="M18,21h2V20h1V19H20V16H19v2H18v1H17v1h1Z"/><path class="eb127-9" d="M12,20V19H11V18H10V16H9v3H8v1H9v1h2V20Z"/><rect class="eb127-2" x="13" y="19" width="3" height="1"/><rect class="eb127-2" x="12" y="18" width="1" height="1"/><path class="eb127-10" d="M14,10h1v1h1V7H15V5H14V6H13V8H12V9h2Z"/><path class="eb127-11" d="M21,27v2h1V27Z"/><path class="eb127-11" d="M21,20v1h1V19H21Z"/><path class="eb127-11" d="M21,17h1V15H21v2Z"/><path class="eb127-12" d="M22,14H21v1h1Z"/><path class="eb127-5" d="M21,23v2h2V23H21Z"/><path class="eb127-13" d="M22,26V25H21v2h1Z"/><path class="eb127-13" d="M21,23h1V21H21Z"/><path class="eb127-13" d="M21,18v1h1V17H21Z"/><path class="eb127-7" d="M7,26H8V24H5v1H7Z"/><path class="eb127-5" d="M8,27V26H7V25H5v2H8Z"/><path class="eb127-14" d="M22,31V29H21v4h1V31Z"/><path class="eb127-2" d="M23,23V22H22v1Z"/><path class="eb127-2" d="M4,25v2H5V25Z"/></svg>