<svg xmlns="http://www.w3.org/2000/svg" viewBox="0 0 29 33"><defs><style>polygon,rect,path{shape-rendering:crispedges;}.ya251-1{fill:#b4bd09;}.ya251-2{fill:#000000;}.ya251-3{fill:#009b97;}.ya251-4{fill:#ce8452;}.ya251-5{fill:#ffffff;}.ya251-6{fill:#99582c;}.ya251-7{fill:#99582c;}.ya251-8{fill:#893a1f;}.ya251-9{fill:#dfdfdf;}.ya251-10{fill:#b2622b;}.ya251-11{fill:#ffffff;}</style></defs><rect class="ya251-1" x="13" y="21"/><rect class="ya251-1" x="9" y="16" width="1"/><rect class="ya251-1" x="10" y="19" width="1"/><rect class="ya251-1" x="18" y="19" width="1"/><rect class="ya251-1" x="19" y="16" width="1"/><polygon class="ya251-1" points="15 17 15 17 15 16 14 16 14 16 15 16 15 17"/><path class="ya251-1" d="M0,33H6V27H7V26H8V25h2V24h1V23h1V21H11V20H10V19H9V16H8V15H9V13H7V12H5V11H7v1H9V11H9V10h1V8h1V7h2V8h3V7h2V8h1V7h1V6h2V8H21V9H20v2h0v1h2V11h2v1H22v1H20v2h1v1H20v3H19v1H18v1H17v2h1v1h1v1h2v1h1v1h1v6h6V0H0Z"/><path class="ya251-2" d="M23,27H22v6h1V27Z"/><path class="ya251-3" d="M21,28v2h1V27H21Z"/><path class="ya251-3" d="M21,31v2h1V31Z"/><rect class="ya251-2" x="21" y="26" width="1" height="1"/><path class="ya251-2" d="M21,30V27H20v6h1V30Z"/><path class="ya251-3" d="M20,32V26H19V25H18v1H17v1H16V25H15v2H14V25H13v2H12V26H11V25H10v1H9v6h1v1h4V32h1v1h4V32Zm-9-3H10V28h1Zm2,2H12V30h1Zm2,0H14V30h1Zm0-2H14V28h1Zm2,2H16V30h1Zm1-2V28h1v1Z"/><path class="ya251-2" d="M20,26h1V25H19v1Z"/><rect class="ya251-3" x="16" y="24" width="1" height="1"/><rect class="ya251-2" x="15" y="24" width="1" height="1"/><rect class="ya251-2" x="14" y="32" width="1" height="1"/><rect class="ya251-2" x="14" y="30" width="1" height="1"/><rect class="ya251-2" x="14" y="28" width="1" height="1"/><path class="ya251-2" d="M14,26v1h1V25H14Z"/><rect class="ya251-2" x="13" y="24" width="1" height="1"/><path class="ya251-4" d="M16,24V23H13v1h1v1h1V24Z"/><rect class="ya251-3" x="12" y="24" width="1" height="1"/><path class="ya251-2" d="M11,26h2V25H12V24h1V23h3v1h1v1H16v1h2V25h1V24H18V23H17V21H16v1H13V21H12v2H11v1H10v1h1Z"/><path class="ya251-2" d="M10,26V25H8v1h2Z"/><path class="ya251-2" d="M9,31V27H8v6H9V31Z"/><path class="ya251-3" d="M7,30H8V27H7v3Z"/><path class="ya251-3" d="M7,31v2H8V31Z"/><rect class="ya251-2" x="7" y="26" width="1" height="1"/><path class="ya251-2" d="M7,30V27H6v6H7V30Z"/><rect class="ya251-5" x="10" y="28" width="1" height="1"/><rect class="ya251-5" x="12" y="30" width="1" height="1"/><path class="ya251-5" d="M12,27h1V26H12Z"/><rect class="ya251-5" x="16" y="30" width="1" height="1"/><rect class="ya251-5" x="18" y="28" width="1" height="1"/><path class="ya251-5" d="M16,27h1V26H16Z"/><path class="ya251-5" d="M9,27V26H8v1Z"/><path class="ya251-5" d="M19,32v1h1V32Z"/><path class="ya251-5" d="M9,32v1h1V32Z"/><path class="ya251-5" d="M7,31H8V30H7Z"/><path class="ya251-5" d="M21,31h1V30H21Z"/><path class="ya251-5" d="M20,27h1V26H20Z"/><polygon class="ya251-2" points="20 16 20 16 21 16 21 15 20 15 20 16 20 16"/><polygon class="ya251-2" points="20 12 20 12 20 11 20 11 20 11 20 12"/><rect class="ya251-4" x="10" y="13" height="1"/><rect class="ya251-4" x="19" y="13" height="1"/><rect class="ya251-4" x="12" y="19" width="1" height="1"/><rect class="ya251-4" x="16" y="19" width="1" height="1"/><polygon class="ya251-4" points="13 21 14 21 14 20 13 20 13 21 13 21 13 21"/><path class="ya251-4" d="M9,16h1v3h2V18h5v1h2V16h1V15H18v1H16V15H15V14H14v1H13v1H11V15H9Zm5,0h1v1H14Z"/><rect class="ya251-4" x="15" y="20" width="1" height="1"/><path class="ya251-2" d="M19,16v3h1V16Z"/><polygon class="ya251-2" points="18 19 18 20 19 20 19 19 18 19 18 19"/><rect class="ya251-2" x="17" y="20" width="1" height="1"/><rect class="ya251-2" x="11" y="20" width="1" height="1"/><polygon class="ya251-2" points="11 19 10 19 10 20 11 20 11 19 11 19"/><polygon class="ya251-2" points="9 11 9 11 9 11 9 12 9 12 9 11"/><path class="ya251-2" d="M10,18V16H9v3h1Z"/><polygon class="ya251-2" points="9 15 9 15 8 15 8 16 9 16 9 16 9 15"/><polygon class="ya251-2" points="15 17 15 16 14 16 14 16 14 17 15 17 15 17"/><rect class="ya251-6" x="18" y="13" width="1" height="1"/><rect class="ya251-6" x="10" y="13" width="1" height="1"/><polygon class="ya251-7" points="17 19 17 20 18 20 18 19 17 19"/><rect class="ya251-7" x="16" y="20" width="1" height="1"/><path class="ya251-7" d="M15,20H14v1H13v1h3V21H15Z"/><path class="ya251-7" d="M14,19h3V18H12v1h2Z"/><polygon class="ya251-7" points="13 21 13 20 12 20 12 21 13 21 13 21"/><polygon class="ya251-7" points="12 19 11 19 11 20 12 20 12 19"/><path class="ya251-2" d="M15,20h1V19H13v1h2Z"/><path class="ya251-2" d="M11,16h2V15h1V14h1v1h1v1h2V15h2V13H19v1H18V13H11v1H10V13H9v2h2Z"/><path class="ya251-8" d="M24,11H22v1h2Z"/><path class="ya251-9" d="M21,8h1V7H21Z"/><path class="ya251-8" d="M10,13H22V12H20V11H19v1H10V11H9v1H7v1h3Z"/><rect class="ya251-9" x="20" y="8" width="1" height="1"/><path class="ya251-10" d="M19,11h1V10H19Z"/><path class="ya251-11" d="M18,11h1V10h1V8h1V7h1V6H20V7H19V8H18v3Z"/><path class="ya251-10" d="M17,11H10v1h9V11H17Z"/><path class="ya251-8" d="M17,11h1V7H16V8H13V7H11V8H10v3Z"/><path class="ya251-10" d="M10,11V10H9v1h1Z"/><path class="ya251-8" d="M6,11H5v1H7V11Z"/></svg>