<svg xmlns="http://www.w3.org/2000/svg" viewBox="0 0 29 33"><defs><style>polygon,rect,path{shape-rendering:crispedges;}.eb119-1{fill:#d4a122;}.eb119-2{fill:#000000;}.eb119-3{fill:#6f7032;}.eb119-4{fill:#333333;}.eb119-5{fill:#c18d59;}.eb119-6{fill:#90a2a3;}.eb119-7{fill:#ffffff;}.eb119-8{fill:#7f5018;}.eb119-9{fill:#7f5018;}.eb119-10{fill:#6c9302;}.eb119-11{fill:#455054;}.eb119-12{fill:#29834f;}.eb119-13{fill:#ff791f;}</style></defs><path class="eb119-1" d="M9,24h1V23h1V22h1V21H11V20H9V18H8v4H9Z"/><path class="eb119-1" d="M0,33H8V32H6V31H5V22H6V21H7V20H5v1H2V17H5V16H8V13H9V11h1V10h1V9h7v1h1v1h1v1h1v6H20v2H18v1H17v1h1v1h1v1h1v1h1v1h1v1h1v6h6V0H0Z"/><rect class="eb119-1" x="8" y="24" width="1" height="1"/><path class="eb119-2" d="M23,27H22v6h1V27Z"/><path class="eb119-3" d="M22,27H21v6h1V27Z"/><path class="eb119-2" d="M21,27h1V26H21V25H20v2H17v1h2v1h1v4h1V27Z"/><rect class="eb119-2" x="19" y="24" width="1" height="1"/><path class="eb119-3" d="M20,29H19v1H18v1H17v1H16v1h4V29Z"/><rect class="eb119-2" x="18" y="23" width="1" height="1"/><path class="eb119-3" d="M18,25H17v1H16v5h1V30h1V29h1V28H17V27h2V26h1V25H19V24H18Z"/><rect class="eb119-2" x="18" y="29" width="1" height="1"/><rect class="eb119-3" x="17" y="23" width="1" height="1"/><rect class="eb119-2" x="17" y="24" width="1" height="1"/><rect class="eb119-2" x="17" y="30" width="1" height="1"/><rect class="eb119-2" x="16" y="25" width="1" height="1"/><path class="eb119-2" d="M17,32V31H16V26H13v5H12v1h1v1h1V27h1v6h1V32Z"/><path class="eb119-4" d="M15,27H14v6h1V27Z"/><path class="eb119-5" d="M17,25V24H16V23H13v1H12v1h1v1h3V25Z"/><rect class="eb119-2" x="12" y="25" width="1" height="1"/><path class="eb119-3" d="M12,32V31H11V30H10V29H9v4h4V32Z"/><rect class="eb119-3" x="11" y="23" width="1" height="1"/><rect class="eb119-2" x="11" y="24" width="1" height="1"/><rect class="eb119-2" x="11" y="30" width="1" height="1"/><rect class="eb119-2" x="10" y="23" width="1" height="1"/><rect class="eb119-2" x="10" y="29" width="1" height="1"/><rect class="eb119-2" x="9" y="24" width="1" height="1"/><path class="eb119-3" d="M12,25H11V24H10v1H9v1h1v1h2v1H10v1h1v1h1v1h1V26H12Z"/><path class="eb119-2" d="M9,29h1V28h2V27H9V25H8V24H7v7H6v1H8v1H9V29Z"/><path class="eb119-3" d="M7,30V24H6v7H7Z"/><path class="eb119-2" d="M6,24V22H5v9H6V24Z"/><path class="eb119-6" d="M9,26v1h1V26Z"/><path class="eb119-6" d="M19,27h1V26H19Z"/><rect class="eb119-2" x="19" y="14" width="1" height="1"/><rect class="eb119-5" x="12" y="19" width="1" height="1"/><rect class="eb119-5" x="17" y="13" width="1" height="1"/><rect class="eb119-5" x="17" y="11" width="1" height="1"/><rect class="eb119-5" x="16" y="19" width="1" height="1"/><rect class="eb119-5" x="15" y="20" width="1" height="1"/><path class="eb119-5" d="M11,19h1V18h5v1h2V18H18V15H16v1H15v1H14V16h1V14h1V12H15V11H14v4H13v2H12V15H11v3H10v1Z"/><rect class="eb119-5" x="9" y="15" width="1" height="1"/><rect class="eb119-5" x="12" y="12" width="1" height="1"/><rect class="eb119-5" x="11" y="13" width="1" height="1"/><rect class="eb119-5" x="13" y="20" width="1" height="1"/><rect class="eb119-5" x="19" y="15" width="1" height="1"/><path class="eb119-2" d="M19,16v2h1V16Z"/><path class="eb119-2" d="M18,19v1h1V19Z"/><rect class="eb119-2" x="17" y="20" width="1" height="1"/><path class="eb119-2" d="M16,22H13V21H12v1H11v1h1v1h1V23h3v1h1V23h1V22H17V21H16Z"/><rect class="eb119-2" x="11" y="20" width="1" height="1"/><path class="eb119-2" d="M10,19v1h1V19Z"/><path class="eb119-2" d="M10,17V16H9v2h1Z"/><rect class="eb119-2" x="14" y="16" width="1" height="1"/><rect class="eb119-7" x="12" y="14" width="1" height="1"/><path class="eb119-7" d="M17,15V14H16v1Z"/><rect class="eb119-2" x="11" y="14" width="1" height="1"/><path class="eb119-2" d="M18,15V14H17v1Z"/><rect class="eb119-8" x="17" y="12" width="1" height="1"/><rect class="eb119-8" x="12" y="13" width="1" height="1"/><rect class="eb119-8" x="11" y="12" width="1" height="1"/><path class="eb119-9" d="M17,19v1h1V19Z"/><rect class="eb119-9" x="16" y="20" width="1" height="1"/><path class="eb119-9" d="M15,20H14v1H13v1h3V21H15Z"/><path class="eb119-9" d="M14,19h2V18H12v1h2Z"/><rect class="eb119-9" x="12" y="20" width="1" height="1"/><rect class="eb119-9" x="11" y="19" width="1" height="1"/><path class="eb119-2" d="M15,19H13v1h3V19Z"/><path class="eb119-2" d="M16,18v1h1V18Z"/><path class="eb119-10" d="M9,18V15h1v3h1V12h2v3h1V11h1v1h1v2h1V11h1v7h1V14h1v4h1V12H20V11H19V10H18V9H11v1H10v1H9v2H8v5Z"/><path class="eb119-10" d="M19,19v1h1V18H19Z"/><path class="eb119-10" d="M15,15v1h1V14H15Z"/><path class="eb119-10" d="M12,16v1h1V15H12Z"/><path class="eb119-10" d="M10,20V18H9v2Z"/><path class="eb119-5" d="M7,24H8V22H6v2Z"/><path class="eb119-11" d="M8,22V20H7v2Z"/><path class="eb119-2" d="M7,21H6v1H7Z"/><path class="eb119-2" d="M9,22H8v2H9Z"/><path class="eb119-12" d="M4,17H2v4H4V17Z"/><path class="eb119-13" d="M8,19V16H6v4H8Z"/><path class="eb119-7" d="M6,16H5v1H4v4H5V20H6V16Z"/></svg>