<svg xmlns="http://www.w3.org/2000/svg" viewBox="0 0 29 33"><defs><style>polygon,rect,path{shape-rendering:crispedges;}.za46-1{fill:#397d98;}.za46-2{fill:#000000;}.za46-3{fill:#cc3232;}.za46-4{fill:#b2622b;}.za46-5{fill:#508e5d;}.za46-6{fill:#ffffff;}.za46-7{fill:#99582c;}.za46-8{fill:#99582c;}.za46-9{fill:#c8a715;}.za46-10{fill:#5a2de2;}.za46-11{fill:#508e91;}</style></defs><rect class="za46-1" x="17" y="22" width="1" height="1"/><path class="za46-1" d="M0,33H6V27H7V26H8V25h2V20H9V17H8V15H7V14H9V13H7V12H9V11H8V9H9v1h2V9H10V8H9V7h1V8h1V7h1V8h1V7h2V8h1V7h1V8h1V9h1V8h2V9H20v2h1V10h1v2H21v2h1v1H21v2H20v3H19v5h2v1h1v1h1v6h6V0H0Z"/><rect class="za46-1" x="11" y="22" width="1" height="1"/><path class="za46-2" d="M23,27H22v6h1V27Z"/><path class="za46-3" d="M21,31h1V30H21Z"/><path class="za46-3" d="M21,28h1V27H21Z"/><rect class="za46-2" x="21" y="26" width="1" height="1"/><path class="za46-2" d="M21,30V27H20v6h1V30Z"/><rect class="za46-3" x="9" y="30" width="5" height="1"/><path class="za46-3" d="M15,31h5V30H15Z"/><path class="za46-3" d="M14,27H9v1H20V27H14Z"/><path class="za46-2" d="M20,26h1V25H19v1Z"/><path class="za46-2" d="M18,23H17v2H16v1h2V25h1V24H18Z"/><rect class="za46-2" x="15" y="24" width="1" height="1"/><rect class="za46-2" x="14" y="32" width="1" height="1"/><rect class="za46-2" x="14" y="30" width="1" height="1"/><path class="za46-2" d="M15,29V28H14v1Z"/><path class="za46-2" d="M15,26V25H14v2h1Z"/><rect class="za46-2" x="13" y="24" width="1" height="1"/><path class="za46-4" d="M15,24h1V23H13v1h1v1h1Z"/><path class="za46-2" d="M11,26h2V25H12V23H11v1H10v1h1Z"/><path class="za46-2" d="M10,25H8v1h2Z"/><path class="za46-2" d="M9,30V27H8v6H9V30Z"/><path class="za46-3" d="M7,31H8V30H7Z"/><path class="za46-3" d="M8,28V27H7v1Z"/><rect class="za46-2" x="7" y="26" width="1" height="1"/><path class="za46-2" d="M7,30V27H6v6H7V30Z"/><path class="za46-5" d="M15,31H9v2h5V32h1v1h5V31Z"/><path class="za46-5" d="M15,29H14V28H9v2H20V28H15Z"/><path class="za46-5" d="M18,26H16V25H15v2h6V26H19V25H18Z"/><path class="za46-5" d="M9,27h5V25H13v1H11V25H10v1H8v1Z"/><path class="za46-5" d="M7,29v1H8V28H7Z"/><path class="za46-5" d="M7,31v2H8V31Z"/><path class="za46-5" d="M21,31v2h1V31Z"/><path class="za46-5" d="M21,29v1h1V28H21Z"/><rect class="za46-2" x="19" y="13" width="1" height="1"/><path class="za46-4" d="M16,17V16H15v1H14V16H13v1H10v1h1v1h1V18h5v1h1V18h1V17H16Z"/><rect class="za46-4" x="17" y="11" width="1" height="1"/><polygon class="za46-4" points="13 21 14 21 14 22 15 22 15 21 16 21 16 20 13 20 13 21"/><rect class="za46-4" x="13" y="10" width="1" height="1"/><path class="za46-4" d="M13,14h3V13H15V12H13v2Z"/><rect class="za46-4" x="16" y="12" width="1" height="1"/><path class="za46-4" d="M13,16V15H10v1h3Z"/><path class="za46-4" d="M16,15v1h3V15H16Z"/><rect class="za46-4" x="14" y="15" width="1" height="1"/><rect class="za46-2" x="19" y="16" width="1" height="1"/><rect class="za46-2" x="9" y="16" width="1" height="1"/><rect class="za46-2" x="14" y="16" width="1" height="1"/><path class="za46-6" d="M11,14H10v1h1Z"/><rect class="za46-6" x="16" y="14" width="1" height="1"/><path class="za46-2" d="M12,14H11v1h2V14Z"/><path class="za46-2" d="M17,15h2V14H17Z"/><path class="za46-7" d="M13,12H12v1h1Z"/><rect class="za46-7" x="17" y="12" width="1" height="1"/><path class="za46-8" d="M12,22v1h5V22h2V20h1V17H19v1H18v1H16v2H15v1H14V21H13V19H11V18H10V17H9v3h1v2h2Z"/><path class="za46-9" d="M18,23h1V22H18Z"/><path class="za46-8" d="M18,24h1V23H18Z"/><path class="za46-9" d="M17,24V23H16v1Z"/><path class="za46-8" d="M16,25h1V24H16Z"/><path class="za46-9" d="M13,23H12v1h1Z"/><path class="za46-8" d="M12,24v1h1V24Z"/><path class="za46-9" d="M11,22H10v1h1Z"/><path class="za46-8" d="M11,23H10v1h1Z"/><path class="za46-2" d="M12,18v1h1V18Z"/><path class="za46-2" d="M16,18v1h1V18Z"/><path class="za46-2" d="M15,18H14v1H13v1h3V19H15Z"/><path class="za46-6" d="M14,18H13v1h1Z"/><path class="za46-6" d="M15,18v1h1V18Z"/><path class="za46-10" d="M7,14v1H8V14Z"/><rect class="za46-10" x="21" y="14" width="1" height="1"/><path class="za46-10" d="M20,16v1h1V15H20Z"/><path class="za46-10" d="M10,13h2V12h3v1h1V12h1V11h1v2h2v1h1V12h1V10H21v1H20V9h1V8H19V9H18V8H17V7H16V8H15V7H13V8H12V7H11V8H10V9h1v1H9V9H8v2H9v1H7v1H9v1h1Zm3-3h1v1H13Z"/><path class="za46-10" d="M9,15H8v2H9V15Z"/><rect class="za46-10" x="9" y="7" width="1" height="1"/><polygon class="za46-11" points="19 14 19 15 19 16 20 16 20 15 21 15 21 14 20 14 19 14"/><path class="za46-11" d="M18,16H16v1h3V16Z"/><path class="za46-11" d="M12,14h1V13H10v1h2Z"/><path class="za46-11" d="M17,14h2V13H16v1Z"/><path class="za46-11" d="M16,14H13v2h1V15h1v1h1V14Z"/><path class="za46-11" d="M13,17V16H10v1h3Z"/><path class="za46-11" d="M9,16h1V14H8v1H9Z"/></svg>