<svg xmlns="http://www.w3.org/2000/svg" viewBox="0 0 29 33"><defs><style>polygon,rect,path{shape-rendering:crispedges;}.da284-1{fill:#29834f;}.da284-2{fill:#000000;}.da284-3{fill:#cc3232;}.da284-4{fill:#e8b795;}.da284-5{fill:#ffb3c0;}.da284-6{fill:#4922aa;}.da284-7{fill:#4922aa;}.da284-8{fill:#4922aa;}</style></defs><path class="da284-1" d="M0,33H6V27H7V26H8V25h2V24h2V21H11V20H10V19H9V16H8V15H9V10h1V9h1V8h7V9h1v1h1v5h1v1H20v3H19v1H18v1H17v3h2v1h2v1h1v1h1v6h6V0H0Z"/><path class="da284-2" d="M23,27H22v3H21V27H20v6h1V31h1v2h1V27Z"/><rect class="da284-2" x="21" y="26" width="1" height="1"/><path class="da284-3" d="M21,28v2h1V27H21Z"/><path class="da284-4" d="M21,31v2h1V31Z"/><path class="da284-2" d="M20,26h1V25H19v1Z"/><rect class="da284-3" x="13" y="29" width="1" height="2"/><path class="da284-3" d="M20,27h1V26H19V25H17v1H16v1H13V26H12V25H10v1H8v1H9v6H20V27Zm-9,2v3H10V28h1Zm4,3H12V28h3Zm4-3H17v2h1V30h1v2H16V28h3Z"/><path class="da284-2" d="M18,25h1V24H17v1Z"/><rect class="da284-2" x="16" y="25" width="1" height="1"/><path class="da284-2" d="M13,26v1h3V26H13Z"/><path class="da284-2" d="M13,23h3v1h1V21H16v1H13V21H12v3h1Z"/><path class="da284-4" d="M13,25v1h3V25h1V24H16V23H13v1H12v1Z"/><rect class="da284-2" x="12" y="25" width="1" height="1"/><path class="da284-2" d="M12,24H10v1h2Z"/><path class="da284-2" d="M10,25H8v1h2Z"/><path class="da284-2" d="M9,27H8v3H7V27H6v6H7V31H8v2H9V27Z"/><rect class="da284-2" x="7" y="26" width="1" height="1"/><path class="da284-3" d="M7,30H8V27H7v3Z"/><path class="da284-4" d="M7,31v2H8V31Z"/><path class="da284-5" d="M12,32h3V28H12Zm1-3h1v2H13Z"/><path class="da284-5" d="M10,29v3h1V28H10Z"/><path class="da284-5" d="M16,28v4h3V30H18v1H17V29h2V28H16Z"/><rect class="da284-2" x="20" y="15" width="1" height="1"/><rect class="da284-4" x="14" y="15" width="1" height="1"/><rect class="da284-4" x="12" y="19" width="1" height="1"/><path class="da284-4" d="M12,19V18h5v1h2V16H18v1H16V16H15v1H14V16H13v1H11V16H10v3h2Z"/><rect class="da284-4" x="19" y="15" width="1" height="1"/><rect class="da284-4" x="13" y="20" width="1" height="1"/><rect class="da284-4" x="9" y="15" width="1" height="1"/><rect class="da284-4" x="16" y="19" width="1" height="1"/><rect class="da284-4" x="15" y="20" width="1" height="1"/><path class="da284-4" d="M16,13V12h2v1h1V11H18V10H17v1H16V10H15v1H12V10H11v1H10v2h1V12h2v1H11v1h7V13Z"/><path class="da284-2" d="M19,17v2h1V16H19Z"/><path class="da284-2" d="M18,20h1V19H18Z"/><rect class="da284-2" x="17" y="20" width="1" height="1"/><rect class="da284-2" x="11" y="20" width="1" height="1"/><path class="da284-2" d="M10,19v1h1V19Z"/><path class="da284-2" d="M10,16H9v3h1V16Z"/><rect class="da284-2" x="8" y="15" width="1" height="1"/><rect class="da284-2" x="14" y="16" width="1" height="1"/><rect class="da284-6" x="18" y="13" width="1" height="1"/><rect class="da284-6" x="16" y="12" width="2" height="1"/><rect class="da284-6" x="10" y="13" width="1" height="1"/><rect class="da284-6" x="11" y="12" width="2" height="1"/><path class="da284-7" d="M17,19v1h1V19Z"/><rect class="da284-7" x="16" y="20" width="1" height="1"/><path class="da284-7" d="M15,20H14v1H13v1h3V21H15Z"/><path class="da284-7" d="M14,19h3V18H13v1Z"/><rect class="da284-7" x="12" y="20" width="1" height="1"/><path class="da284-7" d="M12,19H11v1h1Z"/><path class="da284-2" d="M15,20h1V19H13v1h2Z"/><path class="da284-2" d="M13,18H12v1h1Z"/><path class="da284-8" d="M10,13V11h1V10h1v1h3V10h1v1h1V10h1v1h1v3h1V10H19V9H18V8H11V9H10v1H9v4h1Z"/><path class="da284-2" d="M10,16h1v1h2V16h1V15h1v1h1v1h2V16h1V15h1V14H9v1h1Z"/></svg>