<svg xmlns="http://www.w3.org/2000/svg" viewBox="0 0 29 33"><defs><style>polygon,rect,path{shape-rendering:crispedges;}.aa151-1{fill:#6b4f99;}.aa151-2{fill:#000000;}.aa151-3{fill:#e8b795;}.aa151-4{fill:#cc3232;}.aa151-5{fill:#ffffff;}.aa151-6{fill:#ffffff;}.aa151-7{fill:#317f03;}.aa151-8{fill:#b23b00;}.aa151-9{fill:#d8be00;}</style></defs><path class="aa151-1" d="M0,33H6V27H7V26H8V25h2V24h2V22H11V21H10V20H9V16H8V15H9V11h1V9h1V8h7V9h1v1h1v5h1v1H20v4H19v1H18v1H17v2h2v1h2v1h1v1h1v6h6V0H0Z"/><path class="aa151-2" d="M23,31V27H22v6h1Z"/><rect class="aa151-2" x="21" y="26" width="1" height="1"/><path class="aa151-3" d="M22,31V27H21v6h1Z"/><rect class="aa151-3" x="20" y="26" width="1" height="1"/><path class="aa151-2" d="M21,31V27H20v6h1Z"/><path class="aa151-2" d="M20,26h1V25H19v1Z"/><rect class="aa151-4" x="18" y="32" width="1" height="1"/><path class="aa151-4" d="M17,31V30h1V29h1v1h1V26H19V25H18v1H17v1H16v1H13V27H12V26H11V25H10v1H9v4h1V29h1v1h1v3h1V29h2v1h1v2H15v1h2Z"/><rect class="aa151-4" x="10" y="32" width="1" height="1"/><rect class="aa151-4" x="18" y="30" width="1" height="1"/><rect class="aa151-4" x="10" y="30" width="1" height="1"/><path class="aa151-4" d="M14,31v1h1V30H14Z"/><path class="aa151-2" d="M17,26h1V25h1V24H17Z"/><rect class="aa151-2" x="16" y="26" width="1" height="1"/><path class="aa151-2" d="M14,27H13v1h3V27Z"/><path class="aa151-2" d="M13,23V22H12v2h1Z"/><path class="aa151-3" d="M12,26h1v1h3V26h1V24H16V23H13v1H12Z"/><rect class="aa151-2" x="12" y="26" width="1" height="1"/><path class="aa151-2" d="M11,26h1V24H10v1h1Z"/><path class="aa151-2" d="M10,26V25H8v1Z"/><rect class="aa151-3" x="8" y="26" width="1" height="1"/><path class="aa151-2" d="M9,31V27H8v6H9Z"/><rect class="aa151-2" x="7" y="26" width="1" height="1"/><path class="aa151-3" d="M8,31V27H7v6H8Z"/><path class="aa151-2" d="M7,31V27H6v6H7Z"/><path class="aa151-5" d="M20,31V30H19v1H18V30H17v3h1V32h1v1h1Z"/><rect class="aa151-5" x="18" y="29" width="1" height="1"/><path class="aa151-5" d="M15,32h1V30H15Z"/><path class="aa151-5" d="M14,32V30h1V29H13v4h2V32Z"/><path class="aa151-5" d="M12,31V30H11v1H10V30H9v3h1V32h1v1h1Z"/><rect class="aa151-5" x="10" y="29" width="1" height="1"/><rect class="aa151-2" x="20" y="15" width="1" height="1"/><path class="aa151-2" d="M19,12v3h1V11H19Z"/><rect class="aa151-3" x="15" y="20" width="1" height="1"/><path class="aa151-3" d="M10,17v1h1v1h1V18h2v1h1V18h2v1h1V18h1V16h1V15H16V14h2V13H16V12h2v1h1V11H18V10H17v1H16V10H15v1H14V10H13v1H12V10H11v1H10v1h2v1h1v2H9v1h1Zm4-1h1v1H14Z"/><rect class="aa151-3" x="13" y="20" width="1" height="1"/><path class="aa151-3" d="M10,14h2V13H10Z"/><rect class="aa151-2" x="18" y="10" width="1" height="1"/><path class="aa151-2" d="M16,23v1h1V22H16Z"/><rect class="aa151-2" x="15" y="9" width="1" height="1"/><rect class="aa151-2" x="17" y="9" width="1" height="1"/><rect class="aa151-2" x="13" y="9" width="1" height="1"/><rect class="aa151-2" x="11" y="9" width="1" height="1"/><path class="aa151-2" d="M10,14V11H9v4h1Z"/><rect class="aa151-2" x="8" y="15" width="1" height="1"/><rect class="aa151-2" x="14" y="16" width="1" height="1"/><rect class="aa151-6" x="12" y="14" width="1" height="1"/><rect class="aa151-6" x="10" y="14" width="1" height="1"/><rect class="aa151-6" x="18" y="14" width="1" height="1"/><rect class="aa151-6" x="16" y="14" width="1" height="1"/><rect class="aa151-2" x="11" y="14" width="1" height="1"/><rect class="aa151-2" x="17" y="14" width="1" height="1"/><rect class="aa151-7" x="18" y="13" width="1" height="1"/><rect class="aa151-7" x="16" y="12" width="2" height="1"/><rect class="aa151-7" x="12" y="13" width="1" height="1"/><rect class="aa151-7" x="10" y="12" width="2" height="1"/><rect class="aa151-8" x="15" y="18" width="1" height="1"/><path class="aa151-8" d="M13,23h3V22h2V21h1V20h1V16H19v2H18v1H16v2H15V20H14v1H13V19h1V18H12v1H11V18H10V16H9v4h1v1h1v1h2Z"/><path class="aa151-2" d="M14,19H13v1h3V19Z"/><rect class="aa151-2" x="16" y="18" width="1" height="1"/><path class="aa151-9" d="M11,10V9H10v2h1Z"/><path class="aa151-9" d="M12,10v1h1V9h1v2h1V9h1v2h1V9h1V8H11V9h1Z"/><rect class="aa151-9" x="18" y="9" width="1" height="1"/><rect class="aa151-9" x="19" y="10" width="1" height="1"/></svg>