<svg xmlns="http://www.w3.org/2000/svg" viewBox="0 0 29 33"><defs><style>polygon,rect,path{shape-rendering:crispedges;}.fb23-1{fill:#29834f;}.fb23-2{fill:#000000;}.fb23-3{fill:#594589;}.fb23-4{fill:#ffffff;}.fb23-5{fill:#a56e49;}.fb23-6{fill:#90a2a3;}.fb23-7{fill:#66334f;}.fb23-8{fill:#db5800;}.fb23-9{fill:#45ba00;}.fb23-10{fill:#ffffff;}.fb23-11{fill:#c6e5e4;}</style></defs><path class="fb23-1" d="M6,32V27H7V26H8V25H9V24h1V23h1V22h1V21H11V20H10V19H9V16H8V15H9V10h1V9h1V8h7V9h1v1h1v5h1v1H20v3H19v1H18v1H17v1h1v1h1v1h1v1h1V23h2V22H22V21H21V20h1V19h3v1h1v1H25v1H24v1h1v1H24v7H23v1H21v1h8V0H0V33H6Z"/><path class="fb23-2" d="M7,27H6v6H7V27Z"/><path class="fb23-3" d="M8,27H7v6H8V27Z"/><path class="fb23-2" d="M9,29h1V28h2V27H9V25H8v1H7v1H8v6H9V29Z"/><rect class="fb23-2" x="9" y="24" width="1" height="1"/><path class="fb23-3" d="M12,32V31H11V30H10V29H9v4h4V32Z"/><rect class="fb23-2" x="10" y="23" width="1" height="1"/><path class="fb23-3" d="M10,26v1h2v1H10v1h1v1h1v1h1V26H12V25H11V24H10v1H9v1Z"/><rect class="fb23-2" x="10" y="29" width="1" height="1"/><rect class="fb23-3" x="11" y="23" width="1" height="1"/><rect class="fb23-2" x="11" y="24" width="1" height="1"/><rect class="fb23-2" x="11" y="30" width="1" height="1"/><path class="fb23-2" d="M12,24h1V22H11v1h1Z"/><rect class="fb23-2" x="12" y="25" width="1" height="1"/><path class="fb23-2" d="M17,32V31H16V26H13v5H12v1h1v1h1V27h1v6h1V32Z"/><path class="fb23-4" d="M15,27H14v6h1V27Z"/><path class="fb23-5" d="M17,25V24H16V23H13v1H12v1h1v1h3V25Z"/><rect class="fb23-2" x="16" y="25" width="1" height="1"/><path class="fb23-3" d="M20,29H19v1H18v1H17v1H16v1h4V29Z"/><rect class="fb23-3" x="17" y="23" width="1" height="1"/><rect class="fb23-2" x="17" y="24" width="1" height="1"/><rect class="fb23-2" x="17" y="30" width="1" height="1"/><rect class="fb23-2" x="18" y="23" width="1" height="1"/><rect class="fb23-2" x="18" y="29" width="1" height="1"/><rect class="fb23-2" x="19" y="24" width="1" height="1"/><path class="fb23-3" d="M18,25H17v1H16v5h1V30h1V29h1V28H17V27h2V26h1V25H19V24H18Z"/><path class="fb23-2" d="M22,32h1V31H22V23H21v2H20v2H17v1h2v1h1v4h1V32Z"/><path class="fb23-3" d="M23,25V24H22v7h1V25Z"/><path class="fb23-2" d="M23,25v6h1V24H23Z"/><path class="fb23-6" d="M19,27h1V26H19Z"/><path class="fb23-6" d="M9,26v1h1V26Z"/><rect class="fb23-2" x="20" y="15" width="1" height="1"/><rect class="fb23-5" x="19" y="15" width="1" height="1"/><path class="fb23-5" d="M18,16v1H16V16H15v1H14V16H13v1H11V16H10v2h1v1h1V18h2v1h1V18h2v1h1V18h1V16Z"/><path class="fb23-5" d="M16,13V12h2V11H17V10H12v1H11v1h2v1H10v1h9V13Z"/><rect class="fb23-5" x="15" y="20" width="1" height="1"/><rect class="fb23-5" x="14" y="15" width="1" height="1"/><rect class="fb23-5" x="9" y="15" width="1" height="1"/><rect class="fb23-5" x="13" y="20" width="1" height="1"/><path class="fb23-2" d="M19,17h1V16H19Z"/><path class="fb23-2" d="M16,23v1h1V23h1V22H16Z"/><path class="fb23-2" d="M10,16H9v1h1Z"/><rect class="fb23-2" x="8" y="15" width="1" height="1"/><rect class="fb23-2" x="14" y="16" width="1" height="1"/><path class="fb23-7" d="M13,12H10v1h3Z"/><path class="fb23-7" d="M16,13h3V12H16Z"/><path class="fb23-8" d="M14,18H13v1h1Z"/><path class="fb23-8" d="M13,23h3V22h1V21h1V20h1V19h1V17H19v1H18v1H17V18H15v1h1v2H15V20H14v1H13V19H11V18H10V17H9v2h1v1h1v1h1v1h1Z"/><path class="fb23-2" d="M13,19v1h3V19H13Z"/><path class="fb23-2" d="M12,18v1h1V18Z"/><path class="fb23-9" d="M10,13V12h1V11h1V10h5v1h1v1h1v2h1V10H19V9H18V8H11V9H10v1H9v4h1Z"/><path class="fb23-2" d="M10,16h1v1h2V16h1V15h1v1h1v1h2V16h1V15h1V14H9v1h1Z"/><path class="fb23-10" d="M25,22V21h1V20H25V19H23v1h1v1H23v1h2Z"/><path class="fb23-11" d="M24,21V20H23V19H22v1H21v1h1v1h1V21Z"/><path class="fb23-11" d="M24,22H23v1h1Z"/><path class="fb23-5" d="M23,24h1V23H22v1Z"/><rect class="fb23-2" x="24" y="23" width="1" height="1"/></svg>