<svg xmlns="http://www.w3.org/2000/svg" viewBox="0 0 29 33"><defs><style>polygon,rect,path{shape-rendering:crispedges;}.da196-1{fill:#397d98;}.da196-2{fill:#000000;}.da196-3{fill:#00af68;}.da196-4{fill:#c18d59;}.da196-5{fill:#00af68;}.da196-6{fill:#66334f;}.da196-7{fill:#ffffff;}.da196-8{fill:#66334f;}.da196-9{fill:#ff1d99;}</style></defs><path class="da196-1" d="M0,33H6V27H7V26H8V25h2V24h2V21H11V20H10V19H9V16H8V15H9V11h1V10h1V9h7v1h1v1h1v4h1v1H20v3H19v1H18v1H17v3h2v1h2v1h1v1h1v6h6V0H0Z"/><path class="da196-2" d="M23,27H22v3H21V27H20v6h1V31h1v2h1V27Z"/><rect class="da196-2" x="21" y="26" width="1" height="1"/><path class="da196-3" d="M21,28v2h1V27H21Z"/><path class="da196-4" d="M21,31v2h1V31Z"/><path class="da196-2" d="M20,26h1V25H19v1Z"/><rect class="da196-3" x="18" y="29" width="1" height="1"/><rect class="da196-3" x="10" y="29" width="1" height="1"/><path class="da196-3" d="M15,29H14v2h1V29Z"/><path class="da196-3" d="M19,32V31H18v1H17V29h1V28h1v1h1V27h1V26H19V25H17v1H16v1H13V26H12V25H10v1H8v1H9v2h1V28h1v1h1v3H11V31H10v1H9v1H20V32Zm-3-2v1H15v1H13V28h2v1h1Z"/><path class="da196-2" d="M18,25h1V24H17v1Z"/><rect class="da196-2" x="16" y="25" width="1" height="1"/><path class="da196-2" d="M13,26v1h3V26H13Z"/><path class="da196-2" d="M13,23h3v1h1V21H16v1H13V21H12v3h1Z"/><path class="da196-4" d="M13,25v1h3V25h1V24H16V23H13v1H12v1Z"/><rect class="da196-2" x="12" y="25" width="1" height="1"/><path class="da196-2" d="M12,24H10v1h2Z"/><path class="da196-2" d="M10,25H8v1h2Z"/><path class="da196-2" d="M9,31V27H8v3H7V27H6v6H7V31H8v2H9V31Z"/><rect class="da196-2" x="7" y="26" width="1" height="1"/><path class="da196-3" d="M7,30H8V27H7v3Z"/><path class="da196-4" d="M7,31v2H8V31Z"/><path class="da196-5" d="M19,30H18V29H17v3h1V31h1v1h1V29H19Z"/><rect class="da196-5" x="18" y="28" width="1" height="1"/><path class="da196-5" d="M15,30v1h1V29H15Z"/><path class="da196-5" d="M14,30V29h1V28H13v4h2V31H14Z"/><path class="da196-5" d="M9,32h1V31h1v1h1V29H11v1H10V29H9v3Z"/><rect class="da196-5" x="10" y="28" width="1" height="1"/><rect class="da196-2" x="20" y="15" width="1" height="1"/><path class="da196-2" d="M19,13v2h1V12H19Z"/><path class="da196-4" d="M12,19V18h5v1h2V16h1V15H19V11H18v1H17V11H16V10H13v1H12v1H11V11H10v4H9v1h1v3h2Zm-1-5h1V13h1V12h3v1h1v1h1v1H16v1H15v1H14V16H13V15H11Z"/><rect class="da196-4" x="11" y="10" width="1" height="1"/><rect class="da196-4" x="16" y="19" width="1" height="1"/><rect class="da196-4" x="13" y="20" width="1" height="1"/><rect class="da196-4" x="15" y="20" width="1" height="1"/><rect class="da196-4" x="17" y="10" width="1" height="1"/><rect class="da196-4" x="12" y="19" width="1" height="1"/><path class="da196-2" d="M19,17v2h1V16H19Z"/><path class="da196-2" d="M18,20h1V19H18Z"/><rect class="da196-2" x="17" y="20" width="1" height="1"/><rect class="da196-2" x="11" y="20" width="1" height="1"/><path class="da196-2" d="M10,19v1h1V19Z"/><path class="da196-2" d="M10,14V12H9v3h1Z"/><path class="da196-2" d="M10,16H9v3h1V16Z"/><rect class="da196-2" x="8" y="15" width="1" height="1"/><path class="da196-6" d="M18,15V14H17v1Z"/><rect class="da196-6" x="16" y="13" width="1" height="1"/><rect class="da196-2" x="14" y="14" width="1" height="1"/><path class="da196-7" d="M13,15v1h3V15h1V14H16V13H13v1H12v1Zm1-1h1v1H14Z"/><path class="da196-6" d="M16,13V12H13v1h3Z"/><rect class="da196-6" x="12" y="13" width="1" height="1"/><path class="da196-6" d="M12,14H11v1h1Z"/><path class="da196-2" d="M14,17h1V16H14Z"/><path class="da196-8" d="M17,19v1h1V19Z"/><rect class="da196-8" x="16" y="20" width="1" height="1"/><path class="da196-8" d="M15,20H14v1H13v1h3V21H15Z"/><path class="da196-8" d="M14,19h2V18H12v1h2Z"/><rect class="da196-8" x="12" y="20" width="1" height="1"/><path class="da196-8" d="M12,19H11v1h1Z"/><path class="da196-2" d="M15,20h1V19H13v1h2Z"/><path class="da196-2" d="M17,19V18H16v1Z"/><path class="da196-9" d="M20,12V11H19v1Z"/><rect class="da196-9" x="18" y="10" width="1" height="1"/><path class="da196-9" d="M12,11h1V10h3v1h1V10h1V9H11v1h1Z"/><rect class="da196-9" x="17" y="11" width="1" height="1"/><rect class="da196-9" x="11" y="11" width="1" height="1"/><rect class="da196-9" x="10" y="10" width="1" height="1"/><path class="da196-9" d="M10,11H9v1h1Z"/></svg>