<svg xmlns="http://www.w3.org/2000/svg" viewBox="0 0 29 33"><defs><style>polygon,rect,path{shape-rendering:crispedges;}.sa139-1{fill:#e55b35;}.sa139-2{fill:#000000;}.sa139-3{fill:#00e070;}.sa139-4{fill:#a56e49;}.sa139-5{fill:#ffffff;}.sa139-6{fill:#ffffff;}.sa139-7{fill:#9b8100;}.sa139-8{fill:#990000;}.sa139-9{fill:#fad000;}.sa139-10{fill:#5a2de2;}.sa139-11{fill:#ff6aa5;}.sa139-12{fill:#ad5a21;}</style></defs><path class="sa139-1" d="M6,32V25H7V23H8V22H9V21H8V20H7V11H8V10H9V9h1V8h1V7h7V8h1V9h1v1h1v1h1v9H21v1H20v1H19v1H18v1h1v1h2v1h1v1h1v6h6V0H0V33H6Z"/><path class="sa139-2" d="M23,27H22v6h1V27Z"/><path class="sa139-3" d="M22,27H21v6h1V27Z"/><rect class="sa139-2" x="21" y="26" width="1" height="1"/><path class="sa139-2" d="M21,27H20v6h1V27Z"/><path class="sa139-3" d="M19,32V31H18v1H17V30H16v1H15v1H13V30H12v2H11V31H10v1H9v1H20V32Z"/><rect class="sa139-3" x="10" y="29" width="1" height="1"/><path class="sa139-3" d="M18,26v1H17v2h1V28h1v1h1V27h1V26H18Z"/><path class="sa139-3" d="M10,28h1v1h1V27H9v2h1Z"/><rect class="sa139-3" x="18" y="29" width="1" height="1"/><path class="sa139-2" d="M16,24H13V23H12v3h1V25h3v1h1V24h1V23H16Z"/><path class="sa139-4" d="M13,23v1h3V23H13Z"/><path class="sa139-2" d="M9,31V27H8v6H9V31Z"/><path class="sa139-3" d="M8,27H7v6H8V27Z"/><path class="sa139-2" d="M7,27V25H6v8H7V27Z"/><path class="sa139-3" d="M16,26V25H13v1h3Z"/><path class="sa139-3" d="M14,29v2h1V29Z"/><path class="sa139-5" d="M19,30H18V29H17v3h1V31h1v1h1V29H19Z"/><rect class="sa139-5" x="18" y="28" width="1" height="1"/><path class="sa139-5" d="M15,29v2h1V29Z"/><path class="sa139-5" d="M14,30V29H13v3h2V31H14Z"/><path class="sa139-5" d="M11,29v1H10V29H9v3h1V31h1v1h1V29Z"/><rect class="sa139-5" x="10" y="28" width="1" height="1"/><path class="sa139-2" d="M17,28V27H16v1H13V27H12v3h1V29h3v1h1V28Z"/><rect class="sa139-4" x="11" y="13" width="1" height="1"/><path class="sa139-4" d="M18,20V15H16v1H15v1H14V16h1V14h1V12H15V11H14v4H13v2H12V15H11v5h1v1h1v1h3V21h1V20Zm-2,0H13V19h3Z"/><rect class="sa139-4" x="12" y="12" width="1" height="1"/><rect class="sa139-4" x="17" y="13" width="1" height="1"/><rect class="sa139-2" x="14" y="16" width="1" height="1"/><rect class="sa139-6" x="12" y="14" width="1" height="1"/><path class="sa139-6" d="M17,15V14H16v1Z"/><rect class="sa139-2" x="11" y="14" width="1" height="1"/><path class="sa139-2" d="M18,15V14H17v1Z"/><rect class="sa139-7" x="17" y="12" width="1" height="1"/><rect class="sa139-7" x="12" y="13" width="1" height="1"/><rect class="sa139-7" x="11" y="12" width="1" height="1"/><path class="sa139-8" d="M18,13v5h1V12H18Z"/><path class="sa139-8" d="M13,12v3h1V11H12v1Z"/><path class="sa139-8" d="M15,12h1v2h1V11H15Z"/><path class="sa139-8" d="M10,16v2h1V12H10v4Z"/><path class="sa139-8" d="M15,15v1h1V14H15Z"/><path class="sa139-8" d="M12,16v1h1V15H12Z"/><path class="sa139-3" d="M9,19V12h1V11h2V10h5v1h2v1h1v8h1V11H20V10H19V9H18V8H11V9H10v1H9v1H8v9H9Z"/><rect class="sa139-3" x="19" y="20" width="1" height="1"/><rect class="sa139-3" x="9" y="20" width="1" height="1"/><path class="sa139-3" d="M18,21H17v1H16v1h2V22h1V21Z"/><path class="sa139-3" d="M13,23V22H12V21H10v1h1v1h2Z"/><rect class="sa139-2" x="10" y="8" width="1" height="1"/><rect class="sa139-2" x="9" y="9" width="1" height="1"/><rect class="sa139-2" x="8" y="10" width="1" height="1"/><path class="sa139-2" d="M8,11H7v9H8V11Z"/><rect class="sa139-2" x="8" y="20" width="1" height="1"/><rect class="sa139-2" x="9" y="21" width="1" height="1"/><rect class="sa139-2" x="18" y="22" width="1" height="1"/><rect class="sa139-2" x="19" y="21" width="1" height="1"/><rect class="sa139-2" x="20" y="20" width="1" height="1"/><path class="sa139-2" d="M21,20h1V11H21v9Z"/><rect class="sa139-2" x="20" y="10" width="1" height="1"/><rect class="sa139-2" x="19" y="9" width="1" height="1"/><rect class="sa139-2" x="18" y="8" width="1" height="1"/><path class="sa139-2" d="M18,8V7H11V8h7Z"/><path class="sa139-2" d="M12,12V11H10v1h2Z"/><path class="sa139-2" d="M10,16V12H9v5h1Z"/><rect class="sa139-2" x="12" y="21" width="1" height="1"/><path class="sa139-2" d="M13,22v1h3V22H13Z"/><rect class="sa139-2" x="16" y="21" width="1" height="1"/><path class="sa139-2" d="M19,17h1V12H19v5Z"/><path class="sa139-2" d="M18,12h1V11H17v1Z"/><path class="sa139-2" d="M15,11h2V10H12v1h3Z"/><path class="sa139-2" d="M18,26h3V25H19V24H18v2Z"/><rect class="sa139-2" x="17" y="26" width="1" height="1"/><path class="sa139-9" d="M18,25H17v1h1Z"/><path class="sa139-6" d="M17,25h1V24H17Z"/><rect class="sa139-6" x="16" y="26" width="1" height="1"/><path class="sa139-9" d="M15,28h1V27H15Z"/><path class="sa139-6" d="M14,27v1h1V27Z"/><path class="sa139-9" d="M13,27v1h1V27Z"/><path class="sa139-2" d="M14,27h2V26H13v1Z"/><rect class="sa139-6" x="12" y="26" width="1" height="1"/><path class="sa139-2" d="M11,27h1V26H11Z"/><path class="sa139-10" d="M19,18H18v2H17v1h2V20h1V17H19Z"/><path class="sa139-10" d="M12,20H11V18H10V17H9v3h1v1h2Z"/><rect class="sa139-2" x="13" y="19" width="3" height="1"/><path class="sa139-4" d="M8,27H9V25H7v2Z"/><path class="sa139-11" d="M8,23H7v1H8Z"/><rect class="sa139-11" x="8" y="22" width="1" height="1"/><rect class="sa139-11" x="10" y="22" width="1" height="1"/><path class="sa139-11" d="M11,25H9v1h2Z"/><path class="sa139-11" d="M12,24H11v1h1Z"/><path class="sa139-12" d="M8,25H9V24h1v1h1V23H8v2Z"/><path class="sa139-12" d="M11,26H9v1h2Z"/><path class="sa139-6" d="M8,24H7v1H8Z"/><path class="sa139-6" d="M10,23V22H9v1Z"/><path class="sa139-6" d="M12,23H11v1h1Z"/><path class="sa139-6" d="M12,26V25H11v1Z"/><path class="sa139-2" d="M10,24H9v1h1Z"/></svg>