<svg xmlns="http://www.w3.org/2000/svg" viewBox="0 0 29 33"><defs><style>polygon,rect,path{shape-rendering:crispedges;}.la266-1{fill:#d4a122;}.la266-2{fill:#000000;}.la266-3{fill:#d8c5c5;}.la266-4{fill:#e8b795;}.la266-5{fill:#473a35;}.la266-6{fill:#0079bc;}.la266-7{fill:#f9e100;}</style></defs><path class="la266-1" d="M0,33H6V27H7V26H8V25h2V24h2V21H11V20H10V19H9V16H8V15H9V10h1V9h1V8h7V9h1v1h1v2h1v6H20v1H19v1H18v1H17v3h2v1h2v1h1v1h1v6h6V0H0Z"/><path class="la266-2" d="M23,27H22v6h1V27Z"/><rect class="la266-2" x="21" y="26" width="1" height="1"/><path class="la266-3" d="M22,27H21v6h1V27Z"/><path class="la266-2" d="M21,27H20v6h1V27Z"/><path class="la266-2" d="M20,26h1V25H19v1Z"/><path class="la266-3" d="M20,27h1V26H19V25H17V24H16V23H13v1H12v1H10v1H8v1H9v6H20V27Z"/><path class="la266-2" d="M18,25h1V24H17v1Z"/><path class="la266-2" d="M13,23h3v1h1V21H16v1H13V21H12v3h1Z"/><path class="la266-2" d="M12,24H10v1h2Z"/><path class="la266-2" d="M10,25H8v1h2Z"/><path class="la266-2" d="M9,27H8v6H9V27Z"/><rect class="la266-2" x="7" y="26" width="1" height="1"/><path class="la266-3" d="M8,27H7v6H8V27Z"/><path class="la266-2" d="M7,27H6v6H7V27Z"/><path class="la266-4" d="M13,22h3V21h1V20h1V19h1V16H16V15H13v1H10v3h1v1h1v1h1Zm1-6h1v1H14Zm-1,3h3V18h1v1H16v1H13Z"/><path class="la266-4" d="M12,13h2v1h1V13h1V12H15V11H13V10H11v1H10v1h2Z"/><rect class="la266-4" x="19" y="15" width="1" height="1"/><rect class="la266-4" x="9" y="15" width="1" height="1"/><path class="la266-2" d="M19,16v3h1V16Z"/><rect class="la266-2" x="18" y="19" width="1" height="1"/><rect class="la266-2" x="17" y="20" width="1" height="1"/><rect class="la266-2" x="11" y="20" width="1" height="1"/><rect class="la266-2" x="10" y="19" width="1" height="1"/><path class="la266-2" d="M10,16H9v3h1V16Z"/><rect class="la266-2" x="8" y="15" width="1" height="1"/><rect class="la266-2" x="14" y="16" width="1" height="1"/><path class="la266-5" d="M12,12H10v1h2Z"/><rect class="la266-2" x="13" y="19" width="3" height="1"/><rect class="la266-2" x="16" y="18" width="1" height="1"/><path class="la266-6" d="M10,13V11h1V10h2v1h2v1h1v1h3v1h1v4h1V12H20V10H19V9H18V8H11V9H10v1H9v4h1Z"/><path class="la266-7" d="M13,14H10v2h3V15h1V14Z"/><path class="la266-7" d="M19,14H15v1h1v1h3V14Z"/><path class="la266-2" d="M15,14h4V13H15Z"/><path class="la266-2" d="M13,14h1V13H10v1h3Z"/><path class="la266-2" d="M20,15V14H19v1Z"/><path class="la266-2" d="M10,14H9v1h1Z"/><path class="la266-2" d="M14,14v1h1V14Z"/></svg>