<svg xmlns="http://www.w3.org/2000/svg" viewBox="0 0 29 33"><defs><style>polygon,rect,path{shape-rendering:crispedges;}.ja99-1{fill:#6b4f99;}.ja99-2{fill:#000000;}.ja99-3{fill:#99ce09;}.ja99-4{fill:#3e5e00;}.ja99-5{fill:#e8b795;}.ja99-6{fill:#7f5018;}.ja99-7{fill:#f9e100;}</style></defs><rect class="ja99-1" x="11" y="20" width="1"/><polygon class="ja99-1" points="14 17 14 17 14 16 15 16 15 16 14 16 14 17"/><rect class="ja99-1" x="10" y="19" width="1"/><rect class="ja99-1" x="9" y="16" width="1"/><path class="ja99-1" d="M19,19V16h0v3H18v1H17v1H16v1h0V21h1V20h1V19Z"/><rect class="ja99-1" x="12" y="21" width="1"/><path class="ja99-1" d="M0,33H29V0H0Zm6-1V27H7V26H8V25h2V24h2V21H11V20H9V18H8V13H9V11h1V10h1V9h7v1h1v1h1v1h1v3h0v1h0v2H20v2H18v1H17v3h2v1h2v1h1v1h1v6H6Z"/><path class="ja99-2" d="M22,29v4h1V27H22v2Z"/><rect class="ja99-2" x="21" y="26" width="1" height="1"/><path class="ja99-3" d="M21,28h1V27H21Z"/><path class="ja99-3" d="M21,31v1h1V30H21Z"/><path class="ja99-2" d="M21,31V27H20v6h1V31Z"/><path class="ja99-2" d="M20,26h1V25H19v1Z"/><path class="ja99-3" d="M10,31V30H9v2h1v1h1V31Z"/><path class="ja99-3" d="M13,31V30H12V28H11V27H10V26H9v2h1v1h1v2h1v1h1v1h1V31Z"/><path class="ja99-3" d="M19,31V30H18V28H17V27H16V25H15V24H14V23H13v2h1v1h1v2h1v1h1v2h1v1h1v1h1V31Z"/><path class="ja99-3" d="M16,31V30H15V28H14V27H13V25H11v1h1v2h1v1h1v2h1v1h1v1h1V31Z"/><rect class="ja99-3" x="16" y="24" width="1" height="1"/><path class="ja99-3" d="M17,25v1h1v2h1v1h1V27H19V25H17Z"/><path class="ja99-2" d="M18,25h1V24H17v1Z"/><path class="ja99-2" d="M13,23h3v1h1V21H16v1H13V21H12v3h1Z"/><path class="ja99-2" d="M12,25V24H10v1h2Z"/><path class="ja99-2" d="M10,26V25H8v1h2Z"/><path class="ja99-2" d="M9,31V27H8v6H9V31Z"/><rect class="ja99-2" x="7" y="26" width="1" height="1"/><path class="ja99-3" d="M7,31v2H8V31Z"/><path class="ja99-3" d="M8,29V27H7v2Z"/><path class="ja99-2" d="M7,32V27H6v6H7Z"/><path class="ja99-4" d="M22,30V28H21v2Z"/><path class="ja99-4" d="M21,32v1h1V32Z"/><path class="ja99-4" d="M19,26v1h2V26H19Z"/><path class="ja99-4" d="M19,30v1h1V29H19V28H18v2Z"/><path class="ja99-4" d="M17,27v1h1V26H17V25H16v2Z"/><path class="ja99-4" d="M18,32V31H17v2h2V32Z"/><path class="ja99-4" d="M16,30v1h1V29H16V28H15v2Z"/><path class="ja99-4" d="M15,24v1h1V23H14v1Z"/><path class="ja99-4" d="M14,27v1h1V26H14V25H13v2Z"/><path class="ja99-4" d="M15,32V31H14v2h2V32Z"/><path class="ja99-4" d="M13,30v1h1V29H13V28H12v2Z"/><path class="ja99-4" d="M13,25V24H12v1Z"/><path class="ja99-4" d="M10,27h1v1h1V26H11V25H10v2Z"/><path class="ja99-4" d="M12,32V31H11v2h2V32Z"/><path class="ja99-4" d="M10,30v1h1V29H10V28H9v2Z"/><path class="ja99-4" d="M9,32v1h1V32Z"/><path class="ja99-4" d="M9,27V26H8v1Z"/><path class="ja99-4" d="M8,30V29H7v2H8Z"/><rect class="ja99-2" x="21" y="15" height="1"/><path class="ja99-5" d="M16,22V21h1V20h1V19h1V18H18V16H15v1H14V16h1V14H14v1H13v2H12V16H11v2H10v1h1v1h1v1h1v1h3Zm-3-3h3V18h1v1H16v1H13Z"/><path class="ja99-5" d="M16,12H15V11H14v2h2Z"/><path class="ja99-5" d="M13,12H11v1h2Z"/><rect class="ja99-5" x="9" y="15" width="1" height="1"/><rect class="ja99-5" x="19" y="15" width="1" height="1"/><rect class="ja99-5" x="17" y="11" width="1" height="1"/><path class="ja99-2" d="M20,17V16H19v2h1Z"/><rect class="ja99-2" x="19" y="10" height="1"/><path class="ja99-2" d="M18,19v1h1V19Z"/><rect class="ja99-2" x="17" y="20" width="1" height="1"/><rect class="ja99-2" x="18" y="9" height="1"/><polygon class="ja99-2" points="12 20 12 20 11 20 11 21 12 21 12 21 12 20"/><path class="ja99-2" d="M11,19H10v1h1Z"/><path class="ja99-2" d="M10,18V16H9v2h1Z"/><polygon class="ja99-2" points="14 17 14 17 15 17 15 16 15 16 14 16 14 17"/><rect class="ja99-6" x="17" y="12" width="1" height="1"/><rect class="ja99-2" x="13" y="19" width="3" height="1"/><rect class="ja99-2" x="16" y="18" width="1" height="1"/><path class="ja99-7" d="M9,16H9V14h2V12h2v1h1V11h1v1h1v1h1V11h1v3h2v2h0v2h1V12H20V11H19V10H18V9H11v1H10v1H9v2H8v5H9V16Z"/><path class="ja99-7" d="M18,15v3h1V15Z"/><path class="ja99-7" d="M11,17V15H10v1h0v2h1Z"/><path class="ja99-7" d="M19,19v1h1V18H19Z"/><path class="ja99-7" d="M15,15v1h1V15Z"/><path class="ja99-7" d="M12,17h1V16H12Z"/><path class="ja99-7" d="M10,19V18H9v2h1V19Z"/><path class="ja99-2" d="M11,15v1h2V15h1V14h1v1h1v1h2V15h2V14H18V13H11v1H9v1h2Z"/></svg>