<svg xmlns="http://www.w3.org/2000/svg" viewBox="0 0 29 33"><defs><style>polygon,rect,path{shape-rendering:crispedges;}.ra275-1{fill:#000000;}.ra275-2{fill:#333333;}.ra275-3{fill:#c18d59;}.ra275-4{fill:#333333;}.ra275-5{fill:#ffffff;}.ra275-6{fill:#99582c;}.ra275-7{fill:#5a2de2;}.ra275-8{fill:#dfdfdf;}.ra275-9{fill:#a89969;}.ra275-10{fill:#397d98;}</style></defs><path class="ra275-1" d="M23,27H22v6h1V27Z"/><path class="ra275-2" d="M22,27H21v6h1V27Z"/><rect class="ra275-1" x="21" y="26" width="1" height="1"/><path class="ra275-1" d="M21,27H20v6h1V27Z"/><path class="ra275-2" d="M16,25h1v4h1V28h1v1h1V27h1V26H19V25H18V24H16Z"/><path class="ra275-2" d="M9,27v2h1V28h1v1h1V25h1V24H11v1H10v1H8v1Z"/><rect class="ra275-2" x="18" y="29" width="1" height="1"/><rect class="ra275-2" x="10" y="29" width="1" height="1"/><path class="ra275-2" d="M19,32V31H18v1H17V30H16v1H15v1H13V30H12v2H11V31H10v1H9v1H20V32Z"/><path class="ra275-1" d="M20,26h1V25H19v1Z"/><rect class="ra275-1" x="18" y="24" width="1" height="1"/><rect class="ra275-1" x="18" y="22" width="1" height="1"/><rect class="ra275-2" x="17" y="22" width="1" height="1"/><path class="ra275-1" d="M16,25V24H13v1h3Z"/><path class="ra275-3" d="M16,24V23H13v1h3Z"/><path class="ra275-1" d="M13,23h3v1h2V23H17V22h1V20H17v1H16v1H13V21H12V20H11v2h1v1H11v1h2Z"/><rect class="ra275-2" x="11" y="22" width="1" height="1"/><rect class="ra275-1" x="10" y="24" width="1" height="1"/><rect class="ra275-1" x="10" y="22" width="1" height="1"/><path class="ra275-1" d="M10,25H8v1h2Z"/><path class="ra275-1" d="M9,31V27H8v6H9V31Z"/><path class="ra275-2" d="M8,27H7v6H8V27Z"/><rect class="ra275-1" x="7" y="26" width="1" height="1"/><path class="ra275-1" d="M7,27H6v6H7V27Z"/><path class="ra275-2" d="M14,29v2h1V29Z"/><path class="ra275-2" d="M13,28h2v1h1V25H13v3Z"/><path class="ra275-4" d="M19,30H18V29H17v3h1V31h1v1h1V29H19Z"/><rect class="ra275-4" x="18" y="28" width="1" height="1"/><path class="ra275-4" d="M15,29v2h1V29Z"/><path class="ra275-4" d="M14,30V29h1V28H13v4h2V31H14Z"/><path class="ra275-4" d="M11,29v1H10V29H9v3h1V31h1v1h1V29Z"/><rect class="ra275-4" x="10" y="28" width="1" height="1"/><path class="ra275-1" d="M13,27V25H12v5h1V27Z"/><path class="ra275-1" d="M17,28V25H16v5h1V28Z"/><path class="ra275-3" d="M18,14h1V13H17v1Z"/><path class="ra275-3" d="M12,21h1v1h3V21h1V20h1V19h1V16h1V15H16V13H11v1h2v1H9v1h1v3h1v1h1Zm2-5h1v1H14Zm-2,2h1v1h3v1H13V19H12Z"/><path class="ra275-1" d="M20,16H19v3h1V16Z"/><rect class="ra275-1" x="18" y="19" width="1" height="1"/><rect class="ra275-1" x="10" y="19" width="1" height="1"/><path class="ra275-1" d="M10,18V16H9v3h1Z"/><rect class="ra275-1" x="14" y="16" width="1" height="1"/><path class="ra275-5" d="M13,15V14H12v1Z"/><path class="ra275-5" d="M10,15h1V14H10Z"/><path class="ra275-5" d="M18,14v1h1V14Z"/><path class="ra275-5" d="M16,14v1h1V14Z"/><path class="ra275-1" d="M12,15V14H11v1Z"/><path class="ra275-1" d="M17,14v1h1V14Z"/><path class="ra275-6" d="M17,13H16v1h1Z"/><rect class="ra275-1" x="13" y="19" width="3" height="1"/><rect class="ra275-1" x="12" y="18" width="1" height="1"/><path class="ra275-7" d="M9,16V15h1V14h1V13H8v6H9V16Z"/><path class="ra275-7" d="M19,14v1h1v4h1V13H19Z"/><rect class="ra275-7" x="9" y="19" width="1" height="1"/><rect class="ra275-7" x="19" y="19" width="1" height="1"/><path class="ra275-1" d="M24,11H22v1h2Z"/><rect class="ra275-8" x="21" y="7" width="1" height="1"/><path class="ra275-1" d="M11,13H22V12H20V11H19v1H10V11H9v1H7v1h4Z"/><rect class="ra275-8" x="20" y="8" width="1" height="1"/><rect class="ra275-9" x="19" y="10" width="1" height="1"/><path class="ra275-5" d="M18,11h1V10h1V8h1V7h1V6H20V7H19V8H18v3Z"/><path class="ra275-9" d="M17,11H10v1h9V11H17Z"/><path class="ra275-1" d="M11,11h7V7H16V8H13V7H11V8H10v3Z"/><path class="ra275-9" d="M10,10H9v1h1Z"/><path class="ra275-1" d="M6,11H5v1H7V11Z"/><path class="ra275-10" d="M0,33H6V27H7V26H8V25h2V24h1V23H10V22h1V20H9V19H8V13H7V12H5V11H7v1H9V10h1V8h1V7h2V8h3V7h2V8h1V7h1V6h2V8H21V9H20v3h2V11h2v1H22v1H21v6H20v1H18v2h1v1H18v1h1v1h2v1h1v1h1v6h6V0H0Z"/></svg>