<svg xmlns="http://www.w3.org/2000/svg" viewBox="0 0 29 33"><defs><style>polygon,rect,path{shape-rendering:crispedges;}.aa8-1{fill:#db5a8e;}.aa8-2{fill:#000000;}.aa8-3{fill:#e8b795;}.aa8-4{fill:#508e5d;}.aa8-5{fill:#ffffff;}.aa8-6{fill:#ffffff;}.aa8-7{fill:#99004d;}.aa8-8{fill:#99004d;}.aa8-9{fill:#317f03;}.aa8-10{fill:#508e91;}</style></defs><path class="aa8-1" d="M0,33H6V27H7V26H8V25h2V24h2V22H11V21H10V20H9V16H8V14H9V11h1V10h1V9h2V7h1V6h2V5h2V6H17V7h1V9h1v2h1v3h1v2H20v4H19v1H18v1H17v2h2v1h2v1h1v1h1v6h6V0H0Z"/><path class="aa8-2" d="M23,31V27H22v6h1Z"/><rect class="aa8-2" x="21" y="26" width="1" height="1"/><path class="aa8-3" d="M22,31V27H21v6h1Z"/><rect class="aa8-3" x="20" y="26" width="1" height="1"/><path class="aa8-2" d="M21,31V27H20v6h1Z"/><path class="aa8-2" d="M20,26h1V25H19v1Z"/><rect class="aa8-4" x="10" y="32" width="1" height="1"/><rect class="aa8-4" x="10" y="30" width="1" height="1"/><rect class="aa8-4" x="18" y="32" width="1" height="1"/><rect class="aa8-4" x="18" y="30" width="1" height="1"/><path class="aa8-4" d="M17,31V30h1V29h1v1h1V26H19V25H18v1H17v1H16v1H13V27H12V26H11V25H10v1H9v4h1V29h1v1h1v3h1V29h2v1h1v2H15v1h2Z"/><path class="aa8-4" d="M14,31v1h1V30H14Z"/><path class="aa8-2" d="M17,26h1V25h1V24H17Z"/><rect class="aa8-2" x="16" y="26" width="1" height="1"/><path class="aa8-2" d="M14,27H13v1h3V27Z"/><path class="aa8-2" d="M13,23V22H12v2h1Z"/><path class="aa8-3" d="M12,26h1v1h3V26h1V24H16V23H13v1H12Z"/><rect class="aa8-2" x="12" y="26" width="1" height="1"/><path class="aa8-2" d="M11,26h1V24H10v1h1Z"/><path class="aa8-2" d="M10,26V25H8v1Z"/><rect class="aa8-3" x="8" y="26" width="1" height="1"/><path class="aa8-2" d="M9,31V27H8v6H9Z"/><rect class="aa8-2" x="7" y="26" width="1" height="1"/><path class="aa8-3" d="M8,31V27H7v6H8Z"/><path class="aa8-2" d="M7,31V27H6v6H7Z"/><path class="aa8-5" d="M20,31V30H19v1H18V30H17v3h1V32h1v1h1Z"/><rect class="aa8-5" x="18" y="29" width="1" height="1"/><path class="aa8-5" d="M15,32h1V30H15Z"/><path class="aa8-5" d="M14,32V30h1V29H13v4h2V32Z"/><path class="aa8-5" d="M12,31V30H11v1H10V30H9v3h1V32h1v1h1Z"/><rect class="aa8-5" x="10" y="29" width="1" height="1"/><rect class="aa8-2" x="20" y="15" width="1" height="1"/><path class="aa8-2" d="M19,13v1h1V11H19Z"/><path class="aa8-3" d="M10,13h1V12h2v2h3V13h1V12h2V11H18V10H15v1H13V10H11v1H10Z"/><rect class="aa8-3" x="14" y="15" width="1" height="1"/><path class="aa8-3" d="M12,16h1V15H10v1Z"/><path class="aa8-3" d="M18,15H16v1h3V15Z"/><rect class="aa8-3" x="15" y="20" width="1" height="1"/><rect class="aa8-3" x="13" y="20" width="1" height="1"/><path class="aa8-3" d="M17,17H16V16H15v1H14V16H13v1H10v1h1v1h1V18h2v1h1V18h2v1h1V18h1V17Z"/><rect class="aa8-2" x="18" y="10" width="1" height="1"/><path class="aa8-2" d="M16,23v1h1V22H16Z"/><path class="aa8-2" d="M16,9v1h2V9Z"/><path class="aa8-2" d="M13,10V9H11v1Z"/><rect class="aa8-2" x="10" y="10" width="1" height="1"/><path class="aa8-2" d="M10,13V11H9v3h1Z"/><rect class="aa8-2" x="8" y="15" width="1" height="1"/><rect class="aa8-2" x="14" y="16" width="1" height="1"/><rect class="aa8-6" x="12" y="14" width="1" height="1"/><rect class="aa8-6" x="10" y="14" width="1" height="1"/><rect class="aa8-6" x="18" y="14" width="1" height="1"/><rect class="aa8-6" x="16" y="14" width="1" height="1"/><rect class="aa8-2" x="11" y="14" width="1" height="1"/><rect class="aa8-2" x="17" y="14" width="1" height="1"/><path class="aa8-7" d="M13,13V12H11v1Z"/><path class="aa8-7" d="M19,13V12H17v1Z"/><rect class="aa8-8" x="13" y="18" width="1" height="1"/><path class="aa8-8" d="M13,23h3V22h2V21h1V20h1V16H19v2H18v1H17V18H15v1h1v2H15V20H14v1H13V19H11V18H10V16H9v4h1v1h1v1h2Z"/><path class="aa8-2" d="M13,19v1h3V19Z"/><rect class="aa8-2" x="12" y="18" width="1" height="1"/><path class="aa8-9" d="M13,11h2V10h1V9h2V7H17V6h1V5H16V6H14V7H13Z"/><rect class="aa8-9" x="18" y="9" width="1" height="1"/><path class="aa8-10" d="M19,15v1h1V15h1V14H19Z"/><path class="aa8-10" d="M17,16H16v1h3V16Z"/><path class="aa8-10" d="M12,14h1V13H10v1Z"/><path class="aa8-10" d="M18,14h1V13H16v1Z"/><path class="aa8-10" d="M13,16h1V15h1v1h1V14H13Z"/><path class="aa8-10" d="M12,17h1V16H10v1Z"/><path class="aa8-10" d="M10,15V14H8v1H9v1h1Z"/><rect class="aa8-9" x="18" y="9" width="1" height="1"></rect></svg>