<svg xmlns="http://www.w3.org/2000/svg" viewBox="0 0 29 33"><defs><style>polygon,rect,path{shape-rendering:crispedges;}.pa145-1{fill:#6b4f99;}.pa145-2{fill:#000000;}.pa145-3{fill:#ffb38d;}.pa145-4{fill:#ce8452;}.pa145-5{fill:#db5800;}.pa145-6{fill:#317f03;}.pa145-7{fill:#ffffff;}.pa145-8{fill:#317f03;}.pa145-9{fill:#c8a715;}.pa145-10{fill:#00686d;}</style></defs><rect class="pa145-1" x="16" y="8" width="1" height="1"/><path class="pa145-1" d="M0,33H6V27H7V26H8V25h2V20H9V16H8V15H9V10h1V9h1V8h1V9h1V8h3V7h1V8h2V9h1v1H19v1h1v4h1v1H20v4H19v5h2v1h1v1h1v6h6V0H0Z"/><path class="pa145-2" d="M23,27H22v6h1V27Z"/><path class="pa145-3" d="M22,27H21v6h1V27Z"/><rect class="pa145-2" x="21" y="26" width="1" height="1"/><path class="pa145-2" d="M21,27H20v6h1V27Z"/><path class="pa145-3" d="M20,27h1V26H19V25H18V24H17v5h1v1h1v3h1V27Z"/><path class="pa145-3" d="M10,30h1V29h1V24H11v1H10v1H8v1H9v6h1V30Z"/><path class="pa145-2" d="M20,26h1V25H19v1Z"/><path class="pa145-2" d="M18,25h1V24H18Z"/><rect class="pa145-3" x="17" y="22" width="1" height="1"/><rect class="pa145-2" x="17" y="23" width="1" height="1"/><path class="pa145-2" d="M13,24v1h3V24H13Z"/><path class="pa145-4" d="M14,24h2V23H13v1Z"/><rect class="pa145-2" x="11" y="23" width="1" height="1"/><rect class="pa145-3" x="11" y="22" width="1" height="1"/><path class="pa145-2" d="M11,24H10v1h1Z"/><path class="pa145-2" d="M10,25H8v1h2Z"/><path class="pa145-2" d="M9,27H8v6H9V27Z"/><path class="pa145-3" d="M8,27H7v6H8V27Z"/><rect class="pa145-2" x="7" y="26" width="1" height="1"/><path class="pa145-2" d="M7,27H6v6H7V27Z"/><path class="pa145-3" d="M16,25H13v3h3V25Z"/><path class="pa145-3" d="M16,32H12v1h5V32Z"/><rect class="pa145-3" x="16" y="30" width="1" height="1"/><rect class="pa145-3" x="12" y="30" width="1" height="1"/><path class="pa145-5" d="M19,30H18V29H17v2H16V28H13v3H12V29H11v1H10v3h2V32h5v1h2V30Z"/><path class="pa145-2" d="M13,25H12v5h1V25Z"/><path class="pa145-2" d="M16,26v4h1V25H16Z"/><rect class="pa145-2" x="20" y="15" width="1" height="1"/><path class="pa145-2" d="M19,15h1V14H19Z"/><path class="pa145-4" d="M10,17v1h1v1h1V18h2v1h1V18h2v1h1V18h1V16h1V15H19V12H18V11H13V10H12v1H11v1H10v3H9v1h1Zm1-3h1V13h1V12h3v1h1v1h1v1H16v1H15v1H14V16H13V15H11Z"/><polygon class="pa145-4" points="13 21 14 21 14 22 15 22 15 21 16 21 16 20 13 20 13 21"/><path class="pa145-2" d="M19,17h1V16H19Z"/><path class="pa145-2" d="M10,16H9v1h1Z"/><rect class="pa145-2" x="8" y="15" width="1" height="1"/><path class="pa145-6" d="M18,15V14H17v1Z"/><rect class="pa145-6" x="16" y="13" width="1" height="1"/><rect class="pa145-2" x="14" y="14" width="1" height="1"/><path class="pa145-7" d="M13,15v1h3V15h1V14H16V13H13v1H12v1Zm1-1h1v1H14Z"/><path class="pa145-6" d="M16,13V12H13v1h3Z"/><rect class="pa145-6" x="12" y="13" width="1" height="1"/><path class="pa145-6" d="M12,14H11v1h1Z"/><path class="pa145-2" d="M14,17h1V16H14Z"/><path class="pa145-8" d="M12,22v1h5V22h2V20h1V17H19v1H18v1H17V18H15v1h1v2H15v1H14V21H13V19H11V18H10V17H9v3h1v2h2Z"/><path class="pa145-8" d="M14,18H13v1h1Z"/><path class="pa145-9" d="M18,23h1V22H18Z"/><path class="pa145-8" d="M18,24h1V23H18Z"/><path class="pa145-9" d="M16,23v1h1V23Z"/><path class="pa145-8" d="M16,25h1V24H16Z"/><path class="pa145-9" d="M13,23H12v1h1Z"/><path class="pa145-8" d="M13,24H12v1h1Z"/><path class="pa145-9" d="M11,22H10v1h1Z"/><path class="pa145-8" d="M11,23H10v1h1Z"/><path class="pa145-2" d="M13,19v1h3V19H13Z"/><path class="pa145-2" d="M12,18v1h1V18Z"/><path class="pa145-10" d="M10,14V12h1V11h1V10h1v1h5v1h1v2h1V11H19V10h1V9H19V8H17V9H16V8H13V9H12V8H11V9H10v1H9v5h1Z"/><rect class="pa145-10" x="16" y="7" width="1" height="1"/></svg>