<svg xmlns="http://www.w3.org/2000/svg" viewBox="0 0 29 33"><defs><style>polygon,rect,path{shape-rendering:crispedges;}.ib205-1{fill:#e55b35;}.ib205-2{fill:#000000;}.ib205-3{fill:#b2622b;}.ib205-4{fill:#ffffff;}.ib205-5{fill:#6c9302;}.ib205-6{fill:#6c9302;}.ib205-7{fill:#45ba00;}.ib205-8{fill:#fafafa;}</style></defs><rect class="ib205-1" x="9" y="20" width="1" height="1"/><path class="ib205-1" d="M12,21H10v3h2V21Z"/><path class="ib205-1" d="M0,33H6V28H5V27H4V26H3V22H4V21H5V20H9V16H8V15H9V11h1V10h1V9h1V8h5V9h2v1h1v1h1v3H20v1h1v1H20v4H19v1H17v3h2v1h2v1h1v1h1v6h6V0H0Z"/><path class="ib205-2" d="M23,27H22v6h1V27Z"/><path class="ib205-3" d="M22,27H21v6h1V27Z"/><rect class="ib205-2" x="21" y="26" width="1" height="1"/><path class="ib205-2" d="M21,27H20v6h1V27Z"/><path class="ib205-3" d="M20,27h1V26H19V25H17V24H16V23H13v1H12v1H10v1H9V24H4v2H5V25H8v1H5v1H9v6h5V29h1v4h5V27Zm-8,2H11V28h1Zm6,0H17V28h1Z"/><path class="ib205-2" d="M20,26h1V25H19v1Z"/><rect class="ib205-2" x="17" y="28" width="1" height="1"/><path class="ib205-2" d="M18,25h1V24H17v1Z"/><path class="ib205-2" d="M15,29H14v4h1V29Z"/><rect class="ib205-2" x="11" y="28" width="1" height="1"/><path class="ib205-2" d="M9,27H5v1H6v5H7V28H8v5H9V27Z"/><path class="ib205-3" d="M8,28H7v5H8V28Z"/><rect class="ib205-2" x="20" y="15" width="1" height="1"/><path class="ib205-3" d="M10,17v1h1v2h1v1h1v1h3V21h1V20h1V18h1V16h1V15H16V13h2V12H17V11H15V10H11v1H10v1h3v1H10v1h3v1H9v1h1Zm4-1h1v1H14Zm-2,2h1v1h3v1H13V19H12Z"/><path class="ib205-2" d="M19,17h1V16H19Z"/><path class="ib205-2" d="M16,22H13V21H12v3h1V23h3v1h1V21H16Z"/><path class="ib205-2" d="M10,16H9v1h1Z"/><rect class="ib205-2" x="8" y="15" width="1" height="1"/><rect class="ib205-2" x="14" y="16" width="1" height="1"/><path class="ib205-4" d="M11,15V14H10v1Z"/><path class="ib205-4" d="M16,14v1h1V14Z"/><path class="ib205-2" d="M12,15h1V14H11v1Z"/><path class="ib205-2" d="M18,14H17v1h2V14Z"/><rect class="ib205-5" x="10" y="12" width="3" height="1"/><path class="ib205-5" d="M18,14h1V13H16v1h2Z"/><path class="ib205-6" d="M19,18H18v2H17v1h2V20h1V17H19Z"/><path class="ib205-6" d="M10,21h2V20H11V18H10V17H9v3h1Z"/><rect class="ib205-2" x="13" y="19" width="3" height="1"/><rect class="ib205-2" x="12" y="18" width="1" height="1"/><path class="ib205-7" d="M10,14V11H9v4h1Z"/><rect class="ib205-7" x="10" y="10" width="1" height="1"/><path class="ib205-7" d="M15,10v1h2v1h1v1h1v2h1V14h1V11H20V10H19V9H17V8H12V9H11v1h4Z"/><path class="ib205-8" d="M5,23v1H6V23Z"/><path class="ib205-8" d="M8,23v1H9V23Z"/><rect class="ib205-3" x="4" y="22" width="1" height="1"/><rect class="ib205-3" x="8" y="21" width="1" height="1"/><path class="ib205-3" d="M8,23V22H7V21H6v2H8Z"/><path class="ib205-2" d="M8,26V25H5v1H8Z"/><path class="ib205-2" d="M7,23v1H8V23Z"/><path class="ib205-2" d="M4,23v1H5V23Z"/><rect class="ib205-2" x="4" y="26" width="1" height="1"/><path class="ib205-2" d="M3,25v1H4V25Z"/><path class="ib205-7" d="M10,23V21H9v1H8v1H9v2h1V23Z"/><path class="ib205-7" d="M5,23H6V21H7v1H8V21H9V20H5v1H4v1H5Z"/><path class="ib205-7" d="M4,24V22H3v3H4Z"/><path class="ib205-7" d="M6,23v1H7V23Z"/><path class="ib205-2" d="M10,25h2V24H10Z"/><path class="ib205-2" d="M9,26h1V25H9Z"/></svg>