<svg xmlns="http://www.w3.org/2000/svg" viewBox="0 0 29 33"><defs><style>polygon,rect,path{shape-rendering:crispedges;}.aa35-1{fill:#db5a8e;}.aa35-2{fill:#000000;}.aa35-3{fill:#efcaaf;}.aa35-4{fill:#317f03;}.aa35-5{fill:#c4ea3b;}.aa35-6{fill:#ffffff;}.aa35-7{fill:#8e703c;}.aa35-8{fill:#8e703c;}.aa35-9{fill:#c8a715;}.aa35-10{fill:#ff1f4a;}.aa35-11{fill:#560000;}.aa35-12{fill:#00e070;}.aa35-13{fill:#0068ff;}.aa35-14{fill:#45ba00;}</style></defs><path class="aa35-1" d="M18,24V22H17v2Z"/><rect class="aa35-1" x="12" y="8" width="1" height="1"/><path class="aa35-1" d="M0,33H6V27H5V26H6V25H5V24H4V21H5V20H6V19H9V16H8V15H9V11h1V10H9V9h1V8h2V7h1V8h3V9h1V8h1V9h1v1h1v5h1v1H20v4H19v5h2v1h1v1h1v6h6V0H0Z"/><path class="aa35-1" d="M12,24V22H11v2Z"/><path class="aa35-2" d="M23,31V27H22v6h1Z"/><rect class="aa35-2" x="21" y="26" width="1" height="1"/><path class="aa35-3" d="M22,31V27H21v6h1Z"/><rect class="aa35-3" x="20" y="26" width="1" height="1"/><path class="aa35-2" d="M21,31V27H20v6h1Z"/><path class="aa35-2" d="M20,26h1V25H19v1Z"/><rect class="aa35-4" x="10" y="32" width="1" height="1"/><path class="aa35-4" d="M17,31V30h1V29h1v1h1V26H19V25H18v1H17v1H16v1H13V27H12V26H11V25H10v2H9v3h1V29h1v1h1v3h1V29h2v1h1v2H15v1h2Z"/><rect class="aa35-4" x="18" y="32" width="1" height="1"/><rect class="aa35-4" x="18" y="30" width="1" height="1"/><rect class="aa35-4" x="10" y="30" width="1" height="1"/><path class="aa35-4" d="M14,31v1h1V30H14Z"/><path class="aa35-2" d="M17,24v2h1V25h1V24Z"/><path class="aa35-2" d="M12,24H10v1h1v1h1Z"/><path class="aa35-2" d="M9,26v1h1V25H9Z"/><path class="aa35-2" d="M9,31V27H8v6H9Z"/><path class="aa35-3" d="M8,31V27H9V26H6v1H7v6H8Z"/><path class="aa35-2" d="M7,31V27H6v6H7Z"/><rect class="aa35-2" x="12" y="26" width="1" height="1"/><rect class="aa35-2" x="16" y="26" width="1" height="1"/><path class="aa35-2" d="M14,27H13v1h3V27Z"/><path class="aa35-3" d="M16,25V23H13v2H12v1h1v1h3V26h1V25Z"/><path class="aa35-5" d="M20,31V30H19v1H18V30H17v3h1V32h1v1h1Z"/><rect class="aa35-5" x="18" y="29" width="1" height="1"/><path class="aa35-5" d="M15,32h1V30H15Z"/><path class="aa35-5" d="M14,32V30h1V29H13v4h2V32Z"/><path class="aa35-5" d="M12,31V30H11v1H10V30H9v3h1V32h1v1h1Z"/><rect class="aa35-5" x="10" y="29" width="1" height="1"/><rect class="aa35-2" x="20" y="15" width="1" height="1"/><path class="aa35-3" d="M18,16H16V14h2V13H16V12h2V11H17V10H16v1H15v4H14v1h1v1H14V16H13v1H11V16H10v2h1v1h1V18h2v1h1V18h2v1h1V18h1V16Z"/><rect class="aa35-3" x="19" y="15" width="1" height="1"/><path class="aa35-3" d="M14,20V19H13v2h1v1h1V21h1V19H15v1Z"/><rect class="aa35-3" x="18" y="12" width="1" height="1"/><rect class="aa35-3" x="9" y="15" width="1" height="1"/><rect class="aa35-2" x="19" y="16" width="1" height="1"/><rect class="aa35-2" x="9" y="16" width="1" height="1"/><rect class="aa35-2" x="8" y="15" width="1" height="1"/><rect class="aa35-2" x="14" y="16" width="1" height="1"/><path class="aa35-6" d="M17,14H16v2h1Z"/><path class="aa35-6" d="M18,15v1h1V14H18Z"/><path class="aa35-2" d="M18,14H17v2h1Z"/><rect class="aa35-7" x="18" y="13" width="1" height="1"/><rect class="aa35-7" x="16" y="12" width="2" height="1"/><path class="aa35-8" d="M10,20v1h1v1h1v1h5V22h2V20h1V17H19v1H18v1H17V18H15v1h1v2H15v1H14V21H13V19h1V18H12v1H11V18H10V17H9v3Z"/><rect class="aa35-9" x="18" y="22" width="1" height="1"/><rect class="aa35-8" x="18" y="23" width="1" height="1"/><rect class="aa35-9" x="16" y="23" width="1" height="1"/><rect class="aa35-8" x="16" y="24" width="1" height="1"/><rect class="aa35-9" x="12" y="23" width="1" height="1"/><rect class="aa35-8" x="12" y="24" width="1" height="1"/><rect class="aa35-2" x="14" y="19" width="1" height="1"/><path class="aa35-10" d="M13,15V13H11v2Z"/><path class="aa35-11" d="M13,13v2h1V13Z"/><path class="aa35-11" d="M12,15H11v1h2V15Z"/><path class="aa35-11" d="M11,14V13H10v2h1Z"/><path class="aa35-11" d="M12,13h1V12H11v1Z"/><rect class="aa35-2" x="10" y="15" width="1" height="1"/><path class="aa35-2" d="M11,16v1h2V16Z"/><rect class="aa35-2" x="13" y="15" width="1" height="1"/><path class="aa35-2" d="M13,12v1h1v2h1V11H11v1Z"/><rect class="aa35-2" x="9" y="14" width="1" height="1"/><rect class="aa35-2" x="10" y="12" width="1" height="1"/><path class="aa35-12" d="M10,13V12h1V11h5V10h1v1h1v1h1v3h1V10H19V9H18V8H17V9H16V8H13V9H12V8H10V9H9v1h1v1H9v3h1Z"/><rect class="aa35-12" x="12" y="7" width="1" height="1"/><rect class="aa35-2" x="5" y="26" width="1" height="1"/><path class="aa35-13" d="M7,20v1H9V19H8v1Z"/><path class="aa35-13" d="M5,23H6V21H4v1H5Z"/><path class="aa35-13" d="M7,26H8V25H9V23h2V21H9v1H8v2H6v1H7Z"/><path class="aa35-14" d="M7,24H8V22H9V21H7V20H8V19H6v1H5v1H6v2H5v2H6V24Z"/><path class="aa35-14" d="M11,24V23H9v2h1V24Z"/><rect class="aa35-14" x="8" y="25" width="1" height="1"/><rect class="aa35-13" x="4" y="23" width="1" height="1"/><rect class="aa35-14" x="9" y="20" width="1" height="1"/><rect class="aa35-14" x="6" y="25" width="1" height="1"/><rect class="aa35-14" x="4" y="22" width="1" height="1"/></svg>