<svg xmlns="http://www.w3.org/2000/svg" viewBox="0 0 29 33"><defs><style>polygon,rect,path{shape-rendering:crispedges;}.za28-1{fill:#31a09d;}.za28-2{fill:#000000;}.za28-3{fill:#5a2de2;}.za28-4{fill:#e8b795;}.za28-5{fill:#ffffff;}.za28-6{fill:#8e703c;}.za28-7{fill:#8e703c;}.za28-8{fill:#cc2f76;}.za28-9{fill:#00997c;}.za28-10{fill:#00e2b7;}.za28-11{fill:#00755f;}</style></defs><path class="za28-1" d="M0,33H6V27H7V26H8V25h2V24h1V23h1V21H9V20H8V19H9V16H8V15H9V11h1V10h1V9h2V7h1V6h2V5h2V6H17V7h1v3h1v1h1v4h1v1H20v2h1V17h3v1h1V17h1v1H25v5H24v8H23v1H21v1h8V0H0Z"/><path class="za28-1" d="M20,23V21H17v2h1v1h1v1h2V23Z"/><path class="za28-2" d="M23,26v5h1V25H23Z"/><path class="za28-2" d="M7,27H6v6H7V27Z"/><path class="za28-3" d="M8,27H7v6H8V27Z"/><rect class="za28-2" x="7" y="26" width="1" height="1"/><path class="za28-2" d="M9,27H8v6H9V27Z"/><path class="za28-3" d="M20,27h1V26H19V25H18v1H16V25H15v2H14V25H13v1H11V25H10v1H8v1H9v6h5V32h1v1h5V27Zm-5,4H14V30h1Zm0-2H14V28h1Z"/><path class="za28-2" d="M10,25H8v1h2Z"/><rect class="za28-3" x="12" y="24" width="1" height="1"/><path class="za28-2" d="M11,26h2V25H12V24h1V23h3v1h1v1H16v1h2V25h1V24H18V23H17V21H16v1H13V21H12v2H11v1H10v1h1Z"/><rect class="za28-2" x="13" y="24" width="1" height="1"/><rect class="za28-2" x="14" y="32" width="1" height="1"/><rect class="za28-2" x="14" y="30" width="1" height="1"/><rect class="za28-2" x="14" y="28" width="1" height="1"/><path class="za28-2" d="M14,26v1h1V25H14Z"/><rect class="za28-2" x="15" y="24" width="1" height="1"/><path class="za28-4" d="M16,24V23H13v1h1v1h1V24Z"/><rect class="za28-3" x="16" y="24" width="1" height="1"/><path class="za28-2" d="M22,32h1V31H22V25H19v1h2v1H20v6h1V32Z"/><path class="za28-3" d="M23,26V25H22v6h1V26Z"/><rect class="za28-2" x="20" y="15" width="1" height="1"/><path class="za28-2" d="M19,14H17v1h3V11H19v3Z"/><path class="za28-4" d="M13,22h3V21h1V19h1V18h1V16h1V15H16V13h3V11H18V10H15v1H13V10H11v1H10v2h3v2H9v1h1v2h1v1h1V18h1v1h3v1H13V19H12v2h1Zm2-5H14V16h1Z"/><rect class="za28-2" x="18" y="10" width="1" height="1"/><path class="za28-2" d="M18,20H17v1h1Z"/><path class="za28-2" d="M16,10h2V9H16Z"/><path class="za28-2" d="M13,9H11v1h2Z"/><path class="za28-2" d="M11,20v1h1V20Z"/><rect class="za28-2" x="10" y="10" width="1" height="1"/><path class="za28-2" d="M10,14V11H9v4h1Z"/><rect class="za28-2" x="8" y="15" width="1" height="1"/><rect class="za28-2" x="14" y="16" width="1" height="1"/><path class="za28-5" d="M10,14v1h1V14Z"/><path class="za28-5" d="M16,14v1h1V14Z"/><path class="za28-2" d="M11,15h2V14H11Z"/><path class="za28-6" d="M11,14h2V13H10v1Z"/><path class="za28-6" d="M18,14h1V13H16v1h2Z"/><path class="za28-7" d="M18,18v1H17v1h1v1h2V18H18Z"/><path class="za28-7" d="M19,17h1V16H19Z"/><path class="za28-7" d="M12,20V19H11V18H10V16H9v3H8v1H9v1h2V20Z"/><rect class="za28-2" x="13" y="19" width="3" height="1"/><rect class="za28-2" x="12" y="18" width="1" height="1"/><path class="za28-8" d="M13,11h2V10h1V9h2V7H17V6h1V5H16V6H14V7H13v4Z"/><path class="za28-9" d="M21,23V21H20v2Z"/><path class="za28-2" d="M22,20V18H21v2Z"/><path class="za28-2" d="M23,19v1h1V18H23Z"/><rect class="za28-2" x="22" y="21" width="1" height="1"/><path class="za28-10" d="M23,22H21v1h3V22Z"/><path class="za28-10" d="M20,21h2V20H21V18H20v3Z"/><path class="za28-10" d="M22,19v1h1V18h1V17H21v1h1Z"/><path class="za28-10" d="M23,20v1h2V18H24v2Z"/><path class="za28-11" d="M21,23v2h3V23H21Z"/><path class="za28-9" d="M24,21.222V23h1V21H24Z"/><path class="za28-10" d="M19,18h1V17H19Z"/><rect class="za28-10" x="25" y="17" width="1" height="1"/><rect class="za28-9" x="22" y="20" width="1" height="1"/><path class="za28-5" d="M22,22V21H21v1Z"/><path class="za28-5" d="M24,22V21H23v1Z"/><rect class="za28-8" x="18" y="9" width="1" height="1"></rect></svg>