<svg xmlns="http://www.w3.org/2000/svg" viewBox="0 0 29 33"><defs><style>polygon,rect,path{shape-rendering:crispedges;}.cb270-1{fill:#000000;}.cb270-2{fill:#6f7032;}.cb270-3{fill:#ffffff;}.cb270-4{fill:#e8b795;}.cb270-5{fill:#7f5018;}.cb270-6{fill:#cbed03;}.cb270-7{fill:#b23b00;}.cb270-8{fill:#dfdfdf;}.cb270-9{fill:#a89969;}.cb270-10{fill:#d14646;}</style></defs><path class="cb270-1" d="M23,27H22v6h1V27Z"/><path class="cb270-2" d="M22,27H21v6h1V27Z"/><rect class="cb270-1" x="21" y="26" width="1" height="1"/><path class="cb270-1" d="M21,27H20v6h1V27Z"/><path class="cb270-2" d="M20,27h1V26H19V25H18v4H17v4h3V27Z"/><path class="cb270-1" d="M20,26h1V25H19v1Z"/><path class="cb270-1" d="M17,29H16v4h1V29Z"/><rect class="cb270-3" x="16" y="24" width="1" height="1"/><path class="cb270-3" d="M16,29h1V26H16V25H13v1H12v3h1v4h1V32h1v1h1V29Zm-1,2H14V30h1Zm0-2H14V28h1Zm0-2H14V26h1Z"/><rect class="cb270-3" x="15" y="23" width="1" height="1"/><rect class="cb270-1" x="14" y="32" width="1" height="1"/><rect class="cb270-1" x="14" y="30" width="1" height="1"/><rect class="cb270-1" x="14" y="28" width="1" height="1"/><rect class="cb270-1" x="14" y="26" width="1" height="1"/><rect class="cb270-3" x="13" y="23" width="1" height="1"/><path class="cb270-1" d="M13,29H12v4h1V29Z"/><rect class="cb270-3" x="12" y="24" width="1" height="1"/><path class="cb270-2" d="M12,29H11V25H10v1H8v1H9v6h3V29Z"/><path class="cb270-1" d="M11,26v3h1V26h1V25H12V24h1V23h1v1H13v1h3V24H15V23h1v1h1v1H16v1h1v3h1V25h1V24H18V23H17V21H16v1H13V21H12v2H11v1H10v1h1Z"/><path class="cb270-1" d="M10,25H8v1h2Z"/><path class="cb270-1" d="M9,27H8v6H9V27Z"/><path class="cb270-2" d="M8,27H7v6H8V27Z"/><rect class="cb270-1" x="7" y="26" width="1" height="1"/><path class="cb270-1" d="M7,27H6v6H7V27Z"/><rect class="cb270-1" x="20" y="15" width="1" height="1"/><rect class="cb270-4" x="19" y="15" width="1" height="1"/><path class="cb270-4" d="M13,22h3V21h1V19H16v1H13V19h3V18h1v1h1V18h1V16H18v1H16V16H15v1H14V16H13v1H11V16H10v2h1v1h1v2h1Z"/><path class="cb270-4" d="M14,14h2V13H13v1Z"/><rect class="cb270-4" x="10" y="13" width="1" height="1"/><rect class="cb270-4" x="9" y="15" width="1" height="1"/><rect class="cb270-4" x="14" y="15" width="1" height="1"/><path class="cb270-1" d="M17,20v1h1V20Z"/><path class="cb270-1" d="M11,20v1h1V20Z"/><rect class="cb270-1" x="8" y="15" width="1" height="1"/><rect class="cb270-1" x="14" y="16" width="1" height="1"/><rect class="cb270-5" x="18" y="13" width="1" height="1"/><path class="cb270-6" d="M19,17v1H18v1H17v1h1v1h2V20h1V19H20V16H19Z"/><path class="cb270-6" d="M12,20V19H11V18H10V16H9v3H8v1H9v1h2V20Z"/><rect class="cb270-1" x="13" y="19" width="3" height="1"/><rect class="cb270-1" x="16" y="18" width="1" height="1"/><polygon class="cb270-7" points="19 14 19 15 20 15 21 15 21 14 20 14 20 13 19 13 19 14"/><path class="cb270-7" d="M10,14V13H8v1H9v1h1Z"/><path class="cb270-3" d="M12,14h1V13H11v1Z"/><path class="cb270-3" d="M11,17h2V16H11Z"/><path class="cb270-3" d="M10,14v2h1V14Z"/><path class="cb270-1" d="M12,14H11v2h2V14Z"/><path class="cb270-3" d="M19,14H18v2h1V14Z"/><path class="cb270-3" d="M17,14h1V13H16v1Z"/><path class="cb270-3" d="M16,17h2V16H16Z"/><path class="cb270-3" d="M14,14H13v2h1V15h1v1h1V14Z"/><path class="cb270-1" d="M17,14H16v2h2V14Z"/><path class="cb270-1" d="M24,11H22v1h2Z"/><rect class="cb270-8" x="21" y="7" width="1" height="1"/><path class="cb270-1" d="M11,13H22V12H20V11H19v1H10V11H9v1H7v1h4Z"/><rect class="cb270-8" x="20" y="8" width="1" height="1"/><rect class="cb270-9" x="19" y="10" width="1" height="1"/><path class="cb270-3" d="M18,11h1V10h1V8h1V7h1V6H20V7H19V8H18v3Z"/><path class="cb270-9" d="M17,11H10v1h9V11H17Z"/><path class="cb270-1" d="M11,11h7V7H16V8H13V7H11V8H10v3Z"/><path class="cb270-9" d="M10,10H9v1h1Z"/><path class="cb270-1" d="M6,11H5v1H7V11Z"/><path class="cb270-10" d="M0,33H6V27H7V26H8V25h2V24h1V23h1V21H9V20H8V19H9V16H8V15H9V14H8V13H7V12H5V11H7v1H9V10h1V8h1V7h2V8h3V7h2V8h1V7h1V6h2V8H21V9H20v3h2V11h2v1H22v1H20v1h1v2H20v3h1v1H20v1H17v2h1v1h1v1h2v1h1v1h1v6h6V0H0Z"/></svg>