<svg xmlns="http://www.w3.org/2000/svg" viewBox="0 0 29 33"><defs><style>polygon,rect,path{shape-rendering:crispedges;}.ma184-1{fill:#db5a8e;}.ma184-2{fill:#000000;}.ma184-3{fill:#9b8100;}.ma184-4{fill:#99004d;}.ma184-5{fill:#b2622b;}.ma184-6{fill:#f9e100;}.ma184-7{fill:#ffffff;}.ma184-8{fill:#6c9302;}.ma184-9{fill:#99582c;}.ma184-10{fill:#b23b00;}</style></defs><path class="ma184-1" d="M0,33H6V27H7V26H8V25h2V24h2V21H11V20H10V19H9V16H8V15H9V11h1V10h1V9h2V7h1V5h1V6h1V8h1V9h1v1h1v1h1v4h1v1H20v3H19v1H18v1H17v3h2v1h2v1h1v1h1v6h6V0H0Z"/><path class="ma184-2" d="M23,27H22v6h1V27Z"/><rect class="ma184-2" x="21" y="26" width="1" height="1"/><path class="ma184-3" d="M21,30v1h1V29H21Z"/><path class="ma184-3" d="M21,28h1V27H21Z"/><path class="ma184-3" d="M21,32v1h1V32Z"/><path class="ma184-2" d="M21,31V27H20v6h1V31Z"/><path class="ma184-3" d="M19,26v1H18v3h1v1h1V29H19V28h1V27h1V26H19Z"/><path class="ma184-3" d="M19,32v1h1V32Z"/><path class="ma184-2" d="M20,26h1V25H19v1Z"/><path class="ma184-2" d="M18,30V25h1V24H17v1H16v1h1v7h1V30Z"/><path class="ma184-4" d="M17,26H16v1H13V26H12v7h5V26Z"/><path class="ma184-2" d="M13,26v1h3V26H13Z"/><path class="ma184-2" d="M13,23V22H12v2h1Z"/><path class="ma184-5" d="M13,25v1h3V25h1V24H16V23H13v1H12v1Z"/><path class="ma184-2" d="M12,26h1V25H12V24H10v1h1v8h1V26Z"/><rect class="ma184-3" x="9" y="32" width="1" height="1"/><path class="ma184-3" d="M9,27v1h1v1H9v2h1V30h1V27H10V26H8v1Z"/><path class="ma184-2" d="M10,25H8v1h2Z"/><path class="ma184-2" d="M9,31V27H8v6H9V31Z"/><rect class="ma184-2" x="7" y="26" width="1" height="1"/><path class="ma184-3" d="M8,28V27H7v1Z"/><path class="ma184-3" d="M7,30v1H8V29H7Z"/><path class="ma184-3" d="M7,32v1H8V32Z"/><path class="ma184-2" d="M7,31V27H6v6H7V31Z"/><path class="ma184-6" d="M11,30H10v1H9v1h1v1h1V30Z"/><path class="ma184-6" d="M10,27h1V25H10v2Z"/><path class="ma184-6" d="M18,26v1h1V25H18Z"/><path class="ma184-6" d="M7,29H8V28H7Z"/><path class="ma184-6" d="M10,28H9v1h1Z"/><path class="ma184-6" d="M21,29h1V28H21Z"/><path class="ma184-6" d="M19,29h1V28H19Z"/><path class="ma184-6" d="M21,32h1V31H21Z"/><path class="ma184-6" d="M7,32H8V31H7Z"/><path class="ma184-6" d="M20,32V31H19V30H18v3h1V32Z"/><rect class="ma184-2" x="20" y="15" width="1" height="1"/><path class="ma184-2" d="M19,14v1h1V11H19v3Z"/><path class="ma184-5" d="M13,21h3V20H13Z"/><rect class="ma184-5" x="16" y="19" width="1" height="1"/><path class="ma184-5" d="M10,17v1h1v1h1v1h1V19h3V18h1v1h1V18h1V16h1V15H16V13h3V11H18V10H14v1H13V10H11v1H10v1h3v1H10v1h3v1H9v1h1Zm4-1h1v1H14Z"/><rect class="ma184-2" x="18" y="10" width="1" height="1"/><path class="ma184-2" d="M16,23v1h1V22H16Z"/><path class="ma184-2" d="M15,10h3V9H15Z"/><path class="ma184-2" d="M13,9H11v1h2Z"/><rect class="ma184-2" x="10" y="10" width="1" height="1"/><path class="ma184-2" d="M10,14V11H9v4h1Z"/><rect class="ma184-2" x="8" y="15" width="1" height="1"/><rect class="ma184-2" x="14" y="16" width="1" height="1"/><path class="ma184-7" d="M13,15V14H12v1Z"/><path class="ma184-7" d="M11,15V14H10v1Z"/><path class="ma184-7" d="M18,14v1h1V14Z"/><path class="ma184-7" d="M16,14v1h1V14Z"/><path class="ma184-2" d="M12,15V14H11v1Z"/><path class="ma184-2" d="M17,14v1h1V14Z"/><path class="ma184-8" d="M13,13V12H10v1Z"/><path class="ma184-8" d="M18,14h1V13H16v1h2Z"/><path class="ma184-9" d="M13,23h3V22h1V21h1V20h1V19h1V16H19v2H18v1H17v1H16v1H13V20H12V19H11V18H10V16H9v3h1v1h1v1h1v1h1Z"/><rect class="ma184-2" x="13" y="19" width="3" height="1"/><rect class="ma184-2" x="16" y="18" width="1" height="1"/><path class="ma184-10" d="M13,11h1V10h1V9h2V8H16V6H15V5H14V7H13v4Z"/></svg>