<svg xmlns="http://www.w3.org/2000/svg" viewBox="0 0 29 33"><defs><style>polygon,rect,path{shape-rendering:crispedges;}.ma83-1{fill:#29834f;}.ma83-2{fill:#000000;}.ma83-3{fill:#ffa9d0;}.ma83-4{fill:#6c9302;}.ma83-5{fill:#b2622b;}.ma83-6{fill:#009b97;}.ma83-7{fill:#ffffff;}.ma83-8{fill:#4922aa;}.ma83-9{fill:#4922aa;}.ma83-10{fill:#ff791f;}.ma83-11{fill:#fad000;}</style></defs><path class="ma83-1" d="M6,32V27H7V26H8V25h2V24h2V21H9V20H8V19H9V16H8V15H9V11h1V10h1V9h7v1h1v1h1v4h1v1H20v3h1v1H20v2h1v1h1v1h2v1h1v2H24V26H23v7h6V0H0V33H6Z"/><path class="ma83-1" d="M19,24h1V23H19V22H18V21H17v3h2Z"/><path class="ma83-2" d="M7,30V27H6v6H7V30Z"/><path class="ma83-3" d="M7,31v2H8V31Z"/><path class="ma83-3" d="M7,30H8V27H7v3Z"/><rect class="ma83-2" x="7" y="26" width="1" height="1"/><path class="ma83-2" d="M9,31V27H8v6H9V31Z"/><path class="ma83-3" d="M11,29H10V28h1V25H10v1H9v6h1v1h1V29Z"/><path class="ma83-2" d="M10,26V25H8v1h2Z"/><path class="ma83-2" d="M12,26h1V25H12V24H10v1h1v8h1V26Z"/><path class="ma83-4" d="M17,26H16v1H13V26H12v7h5V26Z"/><path class="ma83-2" d="M13,23h3v1h1V21H16v1H13V21H12v3h1Z"/><path class="ma83-2" d="M13,26v1h3V26H13Z"/><path class="ma83-5" d="M13,25v1h3V25h1V24H16V23H13v1H12v1Z"/><path class="ma83-2" d="M17,24v1h1V24Z"/><rect class="ma83-2" x="16" y="25" width="1" height="1"/><path class="ma83-2" d="M18,29V26H17v7h1V29Z"/><path class="ma83-3" d="M20,32V27H19V25H18v3h1v1H18v4h1V32Z"/><path class="ma83-2" d="M21,31V27H20v6h1V31Z"/><path class="ma83-3" d="M21,29v2h1V28H21Z"/><path class="ma83-3" d="M21,32v1h1V32Z"/><path class="ma83-2" d="M23,26V25H22v8h1V26Z"/><path class="ma83-6" d="M10,29h1V28H10Z"/><path class="ma83-6" d="M19,29V28H18v1Z"/><path class="ma83-6" d="M21,28h1V27H21Z"/><path class="ma83-6" d="M9,27V26H8v1Z"/><path class="ma83-6" d="M19,32v1h1V32Z"/><path class="ma83-6" d="M9,32v1h1V32Z"/><path class="ma83-6" d="M7,31H8V30H7Z"/><path class="ma83-6" d="M21,32h1V31H21Z"/><rect class="ma83-2" x="20" y="15" width="1" height="1"/><path class="ma83-5" d="M13,22h3V21h1V19h1V18h1V16h1V15H15v2H14V15H13v1H11v1H10v1h1v1h1V18h1v1h3v1H13V19H12v2h1Z"/><rect class="ma83-5" x="9" y="15" width="1" height="1"/><path class="ma83-2" d="M18,20H17v1h1Z"/><path class="ma83-2" d="M11,20v1h1V20Z"/><rect class="ma83-2" x="8" y="15" width="1" height="1"/><path class="ma83-2" d="M14,17h1V16H14Z"/><path class="ma83-7" d="M16,14v1h1V14Z"/><path class="ma83-2" d="M18,14H17v1h2V14Z"/><rect class="ma83-8" x="16" y="13" width="1" height="1"/><path class="ma83-9" d="M19,17v1H18v1H17v1h1v1h2V20h1V19H20V16H19Z"/><path class="ma83-9" d="M12,20V19H11V18H10V16H9v3H8v1H9v1h2V20Z"/><rect class="ma83-2" x="13" y="19" width="3" height="1"/><rect class="ma83-2" x="12" y="18" width="1" height="1"/><path class="ma83-10" d="M10,16v1h1V16h2V15h1v1h1V15h1V13h1v1h2v1h1V11H19V10H18V9H11v1H10v1H9v4h1Z"/><path class="ma83-11" d="M23,25v1h1v1h1V25H24V24H22v1Z"/><path class="ma83-7" d="M18,22h1v1h1v2h2V23H21V22H20V21H18Z"/><path class="ma83-5" d="M20,27h2V25H20Z"/><path class="ma83-11" d="M20,24H18v1h2Z"/><path class="ma83-11" d="M17,26h1V25H17Z"/><path class="ma83-2" d="M19,25v2h1V25Z"/></svg>