<svg xmlns="http://www.w3.org/2000/svg" viewBox="0 0 29 33"><defs><style>polygon,rect,path{shape-rendering:crispedges;}.ba42-1{fill:#31a09d;}.ba42-2{fill:#000000;}.ba42-3{fill:#e8b795;}.ba42-4{fill:#9b8100;}.ba42-5{fill:#f9e100;}.ba42-6{fill:#ffffff;}.ba42-7{fill:#b23b00;}.ba42-8{fill:#c9a717;}</style></defs><path class="ba42-1" d="M0,33H6V27H7V26H8V25h2V24h2V21H11V20H10V19H9V16H8V15H9V14H8V13H4V12H6V11H8V10h2V9h1V8h1V7h1V6h1V5h1V6h1V7h1V8h1V9h1v1h2v1h2v1h2v1H21v1H20v1h1v1H20v3H19v1H18v1H17v3h2v1h2v1h1v1h1v6h6V0H0Z"/><path class="ba42-2" d="M23,27H22v6h1V27Z"/><rect class="ba42-2" x="21" y="26" width="1" height="1"/><path class="ba42-3" d="M22,27H21v6h1V27Z"/><rect class="ba42-3" x="20" y="26" width="1" height="1"/><path class="ba42-2" d="M21,27H20v6h1V27Z"/><path class="ba42-2" d="M20,26h1V25H19v1Z"/><rect class="ba42-4" x="10" y="32" width="1" height="1"/><rect class="ba42-4" x="10" y="30" width="1" height="1"/><path class="ba42-4" d="M17,30h1V29h1v1h1V26H19V25H18v1H17v1H16v1H13V27H12V26H11V25H10v1H9v4h1V29h1v1h1v3h1V29h2v1h1v2H15v1h2V30Z"/><rect class="ba42-4" x="18" y="30" width="1" height="1"/><rect class="ba42-4" x="18" y="32" width="1" height="1"/><path class="ba42-4" d="M14,31v1h1V30H14Z"/><path class="ba42-2" d="M18,26V25h1V24H17v2Z"/><rect class="ba42-2" x="16" y="26" width="1" height="1"/><path class="ba42-2" d="M13,27v1h3V27H13Z"/><path class="ba42-2" d="M13,23h3v1h1V21H16v1H13V21H12v3h1Z"/><path class="ba42-3" d="M13,26v1h3V26h1V24H16V23H13v1H12v2Z"/><rect class="ba42-2" x="12" y="26" width="1" height="1"/><path class="ba42-2" d="M11,26h1V24H10v1h1Z"/><path class="ba42-2" d="M10,26V25H8v1h2Z"/><path class="ba42-3" d="M9,27V26H8v1Z"/><path class="ba42-2" d="M9,30V27H8v6H9V30Z"/><rect class="ba42-2" x="7" y="26" width="1" height="1"/><path class="ba42-3" d="M8,27H7v6H8V27Z"/><path class="ba42-2" d="M7,27H6v6H7V27Z"/><path class="ba42-5" d="M20,30H19v1H18V30H17v3h1V32h1v1h1V30Z"/><rect class="ba42-5" x="18" y="29" width="1" height="1"/><path class="ba42-5" d="M16,32V30H15v2Z"/><path class="ba42-5" d="M14,32V30h1V29H13v4h2V32Z"/><path class="ba42-5" d="M12,30H11v1H10V30H9v3h1V32h1v1h1V30Z"/><rect class="ba42-5" x="10" y="29" width="1" height="1"/><rect class="ba42-2" x="20" y="15" width="1" height="1"/><rect class="ba42-2" x="19" y="14" width="1" height="1"/><rect class="ba42-3" x="12" y="19" width="1" height="1"/><path class="ba42-3" d="M12,19V18h5v1h2V16H16V14H13v2H10v3h2Zm2-3h1v1H14Z"/><rect class="ba42-3" x="13" y="20" width="1" height="1"/><rect class="ba42-3" x="16" y="19" width="1" height="1"/><rect class="ba42-3" x="15" y="20" width="1" height="1"/><rect class="ba42-3" x="19" y="15" width="1" height="1"/><rect class="ba42-3" x="9" y="15" width="1" height="1"/><path class="ba42-2" d="M19,17v2h1V16H19Z"/><path class="ba42-2" d="M18,20h1V19H18Z"/><rect class="ba42-2" x="17" y="20" width="1" height="1"/><rect class="ba42-2" x="11" y="20" width="1" height="1"/><path class="ba42-2" d="M10,19v1h1V19Z"/><rect class="ba42-2" x="9" y="14" width="1" height="1"/><path class="ba42-2" d="M10,16H9v3h1V16Z"/><rect class="ba42-2" x="8" y="15" width="1" height="1"/><rect class="ba42-2" x="14" y="16" width="1" height="1"/><path class="ba42-6" d="M10,14v2h1V14Z"/><path class="ba42-6" d="M12,15v1h1V14H12Z"/><path class="ba42-6" d="M16,14v2h1V14Z"/><path class="ba42-6" d="M19,14H18v2h1V14Z"/><path class="ba42-2" d="M12,14H11v2h1V14Z"/><path class="ba42-2" d="M17,14v2h1V14Z"/><path class="ba42-7" d="M17,19v1h1V19Z"/><rect class="ba42-7" x="16" y="20" width="1" height="1"/><path class="ba42-7" d="M15,20H14v1H13v1h3V21H15Z"/><rect class="ba42-7" x="12" y="20" width="1" height="1"/><path class="ba42-7" d="M12,19H11v1h1Z"/><path class="ba42-2" d="M13,18H12v1h1Z"/><path class="ba42-2" d="M17,19V18H16v1Z"/><path class="ba42-2" d="M15,20h1V19H15V18H14v1H13v1h2Z"/><path class="ba42-6" d="M14,19V18H13v1Z"/><path class="ba42-6" d="M16,19V18H15v1Z"/><path class="ba42-8" d="M11,14H21V13h4V12H23V11H21V10H19V9H18V8H17V7H16V6H15V5H14V6H13V7H12V8H11V9H10v1H8v1H6v1H4v1H8v1h3Z"/></svg>