<svg xmlns="http://www.w3.org/2000/svg" viewBox="0 0 29 33"><defs><style>polygon,rect,path{shape-rendering:crispedges;}.ab283-1{fill:#e55b35;}.ab283-2{fill:#000000;}.ab283-3{fill:#333333;}.ab283-4{fill:#e8b795;}.ab283-5{fill:#ffffff;}.ab283-6{fill:#ffffff;}.ab283-7{fill:#326b43;}.ab283-8{fill:#ff791f;}</style></defs><path class="ab283-1" d="M0,33H6V27H7V26H8V25h2V24h1V23h1V21H10v1H9V21H8V20H9V17H8V12H9V10h1V9h1V8h7V9h1v1h1v2h1v6H20v2h1v1H20v1H19V21H17v2h1v1h1v1h2v1h1v1h1v6h6V0H0Z"/><path class="ab283-2" d="M23,27H22v6h1V27Z"/><path class="ab283-3" d="M21,28v2h1V27H21Z"/><path class="ab283-3" d="M21,31v2h1V31Z"/><rect class="ab283-2" x="21" y="26" width="1" height="1"/><path class="ab283-2" d="M21,30V27H20v6h1V30Z"/><path class="ab283-3" d="M20,32V26H19V25H18v1H17v1H16V25H15v2H14V25H13v2H12V26H11V25H10v1H9v6h1v1h4V32h1v1h4V32Zm-9-3H10V28h1Zm2,2H12V30h1Zm2,0H14V30h1Zm0-2H14V28h1Zm2,2H16V30h1Zm1-2V28h1v1Z"/><path class="ab283-2" d="M20,26h1V25H19v1Z"/><rect class="ab283-3" x="16" y="24" width="1" height="1"/><rect class="ab283-2" x="15" y="24" width="1" height="1"/><rect class="ab283-2" x="14" y="32" width="1" height="1"/><rect class="ab283-2" x="14" y="30" width="1" height="1"/><rect class="ab283-2" x="14" y="28" width="1" height="1"/><path class="ab283-2" d="M14,26v1h1V25H14Z"/><rect class="ab283-2" x="13" y="24" width="1" height="1"/><path class="ab283-4" d="M16,24V23H13v1h1v1h1V24Z"/><rect class="ab283-3" x="12" y="24" width="1" height="1"/><path class="ab283-2" d="M11,26h2V25H12V24h1V23h3v1h1v1H16v1h2V25h1V24H18V23H17V21H16v1H13V21H12v2H11v1H10v1h1Z"/><path class="ab283-2" d="M10,26V25H8v1h2Z"/><path class="ab283-2" d="M9,31V27H8v6H9V31Z"/><path class="ab283-3" d="M7,31v2H8V31Z"/><path class="ab283-3" d="M7,30H8V27H7v3Z"/><rect class="ab283-2" x="7" y="26" width="1" height="1"/><path class="ab283-2" d="M7,30V27H6v6H7V30Z"/><rect class="ab283-5" x="10" y="28" width="1" height="1"/><rect class="ab283-5" x="12" y="30" width="1" height="1"/><path class="ab283-5" d="M12,27h1V26H12Z"/><rect class="ab283-5" x="16" y="30" width="1" height="1"/><rect class="ab283-5" x="18" y="28" width="1" height="1"/><path class="ab283-5" d="M16,27h1V26H16Z"/><path class="ab283-5" d="M9,27V26H8v1Z"/><path class="ab283-5" d="M19,32v1h1V32Z"/><path class="ab283-5" d="M9,32v1h1V32Z"/><path class="ab283-5" d="M7,31H8V30H7Z"/><path class="ab283-5" d="M21,31h1V30H21Z"/><path class="ab283-5" d="M20,27h1V26H20Z"/><path class="ab283-4" d="M13,22h3V21h1V20h1V19h1V16h1V15H16V14h2V13H16V12h1V11H16V10H15v1H14v1H13v1H12v1h1v1H10v4h1v1h1v1h1Zm1-6h1v1H14Zm-2,3V18h1v1h3v1H13V19Z"/><path class="ab283-2" d="M19,16v3h1V16Z"/><rect class="ab283-2" x="18" y="19" width="1" height="1"/><path class="ab283-2" d="M17,20v1h1V20Z"/><path class="ab283-2" d="M11,20v1h1V20Z"/><rect class="ab283-2" x="10" y="19" width="1" height="1"/><path class="ab283-2" d="M10,18H9v1h1Z"/><rect class="ab283-2" x="14" y="16" width="1" height="1"/><path class="ab283-6" d="M13,15V14H12v1Z"/><path class="ab283-6" d="M10,14v1h1V14Z"/><path class="ab283-6" d="M18,14v1h1V14Z"/><path class="ab283-6" d="M16,14v1h1V14Z"/><path class="ab283-2" d="M11,15h1V14H11Z"/><path class="ab283-2" d="M17,14v1h1V14Z"/><rect class="ab283-7" x="18" y="13" width="1" height="1"/><polygon class="ab283-7" points="17 12 16 12 16 13 18 13 18 12 17 12"/><rect class="ab283-2" x="13" y="19" width="3" height="1"/><rect class="ab283-2" x="12" y="18" width="1" height="1"/><path class="ab283-8" d="M19,20H18v1h1v1h1V21h1V20H20V19H19Z"/><path class="ab283-8" d="M10,20V19H9v1H8v1H9v1h1V21h1V20Z"/><path class="ab283-8" d="M10,17V14h2V13h1V12h1V11h1V10h1v1h1v1h1v1h1v2h1v3h1V12H20V10H19V9H18V8H11V9H10v1H9v2H8v5H9v1h1Z"/></svg>