<svg xmlns="http://www.w3.org/2000/svg" viewBox="0 0 29 33"><defs><style>polygon,rect,path{shape-rendering:crispedges;}.oa79-1{fill:#e55b35;}.oa79-2{fill:#000000;}.oa79-3{fill:#333333;}.oa79-4{fill:#a7af69;}.oa79-5{fill:#512a24;}.oa79-6{fill:#ffffff;}.oa79-7{fill:#ffffff;}.oa79-8{fill:#492a23;}.oa79-9{fill:#d8be00;}</style></defs><path class="oa79-1" d="M0,33H6V27H7V26H8V25h2V24h2V22H11V21H10v1H9V21H8V20H7V19H8V12H9V10h1V9h1V8h7V9h1v1h1v2h1v7h1v1H21v1H20v1H19V21H18v1H17v2h2v1h1V24h1V23h1v1h1v9h6V0H0Z"/><path class="oa79-2" d="M7,31V27H6v6H7V31Z"/><path class="oa79-3" d="M7,30v1H8V29H7Z"/><path class="oa79-3" d="M8,28V27H7v1Z"/><path class="oa79-3" d="M7,32v1H8V32Z"/><rect class="oa79-2" x="7" y="26" width="1" height="1"/><path class="oa79-2" d="M9,31V27H8v6H9V31Z"/><path class="oa79-3" d="M9,32v1h1V32Z"/><path class="oa79-3" d="M9,27v1h1v1H9v2h1V30h1V27H10V26H8v1Z"/><path class="oa79-2" d="M10,25H8v1h2Z"/><path class="oa79-2" d="M12,26h1V25H12V24H10v1h1v8h1V26Z"/><path class="oa79-4" d="M17,26H16v1H13V26H12v7h5V26Z"/><path class="oa79-2" d="M13,23h3v1h1V21H16v1H13V21H12v3h1Z"/><path class="oa79-2" d="M13,26v1h3V26H13Z"/><path class="oa79-5" d="M13,25v1h3V25h1V24H16V23H13v1H12v1Z"/><path class="oa79-2" d="M18,30V25h1V24H17v1H16v1h1v7h1V30Z"/><path class="oa79-3" d="M18,27v3h1v1h1V29H19V28h1V27H18Z"/><rect class="oa79-3" x="19" y="32" width="1" height="1"/><path class="oa79-2" d="M21,31V27H20v6h1V31Z"/><path class="oa79-3" d="M21,32v1h1V32Z"/><path class="oa79-3" d="M21,30v1h1V29H21Z"/><path class="oa79-3" d="M21,28h1V27H21Z"/><path class="oa79-2" d="M23,24H22v9h1V24Z"/><path class="oa79-6" d="M11,30H10v1H9v1h1v1h1V30Z"/><path class="oa79-6" d="M10,27h1V25H10v2Z"/><path class="oa79-6" d="M18,26v1h1V25H18Z"/><path class="oa79-6" d="M7,29H8V28H7Z"/><path class="oa79-6" d="M10,28H9v1h1Z"/><path class="oa79-6" d="M21,29h1V28H21Z"/><path class="oa79-6" d="M19,29h1V28H19Z"/><path class="oa79-6" d="M21,32h1V31H21Z"/><path class="oa79-6" d="M7,32H8V31H7Z"/><path class="oa79-6" d="M20,32V31H19V30H18v3h1V32Z"/><path class="oa79-2" d="M20,16h1V15H20Z"/><rect class="oa79-2" x="19" y="14" width="1" height="1"/><path class="oa79-5" d="M18,20V19h1V16h1V15H16V14h2V13H16V12h1V11H16V10H13v1H12v1h1v1H11v1h2v1H9v1h1v3h1v1h1v1h1v1h3V21h1V20Zm-4-4h1v1H14Zm2,3v1H13V19h3V18h1v1Z"/><path class="oa79-2" d="M19,17v2h1V16H19Z"/><rect class="oa79-2" x="18" y="19" width="1" height="1"/><rect class="oa79-2" x="17" y="20" width="1" height="1"/><rect class="oa79-2" x="11" y="20" width="1" height="1"/><rect class="oa79-2" x="10" y="19" width="1" height="1"/><path class="oa79-2" d="M10,14H9v1h1Z"/><path class="oa79-2" d="M10,16H9v3h1V16Z"/><path class="oa79-2" d="M9,15H8v1H9Z"/><rect class="oa79-2" x="14" y="16" width="1" height="1"/><path class="oa79-7" d="M13,15V14H12v1Z"/><path class="oa79-7" d="M11,15V14H10v1Z"/><path class="oa79-7" d="M19,15V14H18v1Z"/><path class="oa79-7" d="M16,14v1h1V14Z"/><path class="oa79-2" d="M12,15V14H11v1Z"/><path class="oa79-2" d="M17,15h1V14H17Z"/><path class="oa79-8" d="M16,13h2V12H16Z"/><path class="oa79-8" d="M13,12H11v1h2Z"/><rect class="oa79-2" x="13" y="19" width="3" height="1"/><rect class="oa79-2" x="16" y="18" width="1" height="1"/><path class="oa79-5" d="M21,27h1V24H21v1H20v2Z"/><path class="oa79-2" d="M20,27V25H19v2Z"/><rect class="oa79-2" x="20" y="24" width="1" height="1"/><rect class="oa79-2" x="21" y="23" width="1" height="1"/><path class="oa79-9" d="M20,17v2H19v1H18v1h1v1h1V21h1V20h1V19H21V16H20Z"/><path class="oa79-9" d="M9,14h2V12h1V11h1V10h3v1h1v1h1v2h2v1h1V12H20V10H19V9H18V8H11V9H10v1H9v2H8v3H9Z"/><path class="oa79-9" d="M10,20V19H9V16H8v3H7v1H8v1H9v1h1V21h1V20Z"/><path class="oa79-9" d="M11,21v1h1V21Z"/><path class="oa79-9" d="M17,22h1V21H17Z"/></svg>