<svg xmlns="http://www.w3.org/2000/svg" viewBox="0 0 29 33"><defs><style>polygon,rect,path{shape-rendering:crispedges;}.wa4-1{fill:#d4a122;}.wa4-2{fill:#38a6e8;}.wa4-3{fill:#000000;}.wa4-4{fill:#e8b795;}.wa4-5{fill:#6c9302;}.wa4-6{fill:#893a1f;}.wa4-7{fill:#893a1f;}.wa4-8{fill:#990000;}</style></defs><rect class="wa4-1" x="14" y="17" width="1"/><path class="wa4-1" d="M6,32V27H7V26H8V25h2V22h1V20H10V19H9V16H8V15H9V13H8V9H9V8h1V7h1V6h7V7h1V8h1V9h1v4H20v2h1v1H20v3H19v1H18v2h1v3h2v1h1v1h1v6h6V0H0V33H6Z"/><path class="wa4-2" d="M19,26v1H18V26H17V25h1V23H17v1H16v2H15v1H14v3h1v1h3V30h1v1h1V29H19V28h1V27h1V26H19Zm-1,3H17v1H16V29H15V28h1V27h1v1h1Z"/><path class="wa4-2" d="M21,30v1h1V29H21Z"/><rect class="wa4-2" x="21" y="32" width="1" height="1"/><rect class="wa4-2" x="21" y="27" width="1" height="1"/><path class="wa4-2" d="M13,32H11v1h3V32Z"/><rect class="wa4-2" x="19" y="32" width="1" height="1"/><rect class="wa4-2" x="9" y="32" width="1" height="1"/><path class="wa4-2" d="M17,32H15v1h3V32Z"/><rect class="wa4-2" x="7" y="32" width="1" height="1"/><rect class="wa4-2" x="7" y="27" width="1" height="1"/><path class="wa4-2" d="M7,30v1H8V29H7Z"/><path class="wa4-2" d="M9,27v1h1v1H9v2h1V30h1v1h2V30H12V29H11V28h1V27h2V26H13V24H12V23H11v2h1v1H11v1H10V26H8v1Z"/><path class="wa4-3" d="M23,27H22v6h1V27Z"/><rect class="wa4-3" x="21" y="26" width="1" height="1"/><path class="wa4-3" d="M21,31V27H20v4H14V27H13v4H9V27H8v6H9V32H20v1h1V31Z"/><path class="wa4-3" d="M20,26h1V25H19v1Z"/><path class="wa4-3" d="M18,24v1h1V22H18v2Z"/><path class="wa4-3" d="M15,25h1V24H15Z"/><path class="wa4-3" d="M15,26V25H14v2h1Z"/><path class="wa4-3" d="M14,24H13v1h1Z"/><path class="wa4-4" d="M14,25h1V24h1V23H13v1h1Z"/><path class="wa4-3" d="M11,24V22H10v3h1Z"/><path class="wa4-3" d="M10,25H8v1h2Z"/><rect class="wa4-3" x="7" y="26" width="1" height="1"/><path class="wa4-3" d="M7,31V27H6v6H7V31Z"/><rect class="wa4-4" x="10" y="12" width="1" height="1"/><path class="wa4-4" d="M17,13V12h1V11H11v1h2v1h5v1h1V13Z"/><path class="wa4-4" d="M12,20v1h1v1h3V21h1V20h1V19h1V16h1V15H18v1H16V15H15V14H14v1H13v1H11V15H9v1h1v3h1v1Zm2-3V16h1v1H14Zm-2,1h5v1H16v1H13V19H12Z"/><rect class="wa4-4" x="10" y="14" width="1"/><path class="wa4-3" d="M19,16v3h1V16Z"/><polygon class="wa4-3" points="18 19 18 20 19 20 19 19 18 19 18 19"/><path class="wa4-3" d="M12,23v1h1V23h3v1h1V22h1V20H17v1H16v1H13V21H12V20H11v2h1Z"/><rect class="wa4-3" x="10" y="19" width="1" height="1"/><path class="wa4-3" d="M10,16H9v3h1V16Z"/><polygon class="wa4-3" points="15 16 15 16 14 16 14 17 15 17 15 16"/><path class="wa4-5" d="M10,30v1h1V30Z"/><path class="wa4-5" d="M10,32v1h1V32Z"/><path class="wa4-5" d="M12,28H11v1h1v1h1V27H12Z"/><polygon class="wa4-5" points="10 27 11 27 11 26 12 26 12 25 11 25 10 25 10 26 10 27"/><path class="wa4-5" d="M15,26h1V25H15Z"/><path class="wa4-5" d="M13,25v1h1V25Z"/><polygon class="wa4-5" points="17 27 16 27 16 28 15 28 15 29 16 29 16 30 17 30 17 29 18 29 18 28 17 28 17 27"/><polygon class="wa4-5" points="17 25 17 26 18 26 18 27 19 27 19 26 19 25 18 25 17 25"/><path class="wa4-5" d="M7,29H8V28H7Z"/><path class="wa4-5" d="M10,28H9v1h1Z"/><path class="wa4-5" d="M21,29h1V28H21Z"/><path class="wa4-5" d="M19,29h1V28H19Z"/><path class="wa4-5" d="M21,32h1V31H21Z"/><path class="wa4-5" d="M7,32H8V31H7Z"/><path class="wa4-5" d="M14,30v1h1V30Z"/><path class="wa4-5" d="M14,32v1h1V32Z"/><path class="wa4-5" d="M18,30v1h1V30Z"/><path class="wa4-5" d="M18,32v1h1V32Z"/><path class="wa4-5" d="M12,23V22H11v1Z"/><path class="wa4-5" d="M17,23h1V22H17Z"/><polygon class="wa4-6" points="10 13 10 14 11 14 11 13 11 13 10 13"/><polygon class="wa4-6" points="13 13 13 12 11 12 11 12 11 13 13 13"/><polygon class="wa4-6" points="17 13 19 13 19 12 18 12 18 12 17 12 17 13"/><path class="wa4-7" d="M16,19h1V18H13v1Z"/><rect class="wa4-3" x="13" y="19" width="3" height="1"/><path class="wa4-3" d="M13,18H12v1h1Z"/><path class="wa4-8" d="M10,14V12h1V11h7v1h1v2h1V13h1V9H20V8H19V7H18V6H11V7H10V8H9V9H8v4H9v1Z"/><path class="wa4-3" d="M10,15h1v1h2V15h1V14h1v1h1v1h2V15h2v1h1V15H20V14H18V13H11v1H9v1H8v1H9V15Z"/></svg>