<svg xmlns="http://www.w3.org/2000/svg" viewBox="0 0 29 33"><defs><style>polygon,rect,path{shape-rendering:crispedges;}.ha15-1{fill:#31a09d;}.ha15-2{fill:#000000;}.ha15-3{fill:#ffa9d0;}.ha15-4{fill:#e8b795;}.ha15-5{fill:#ffffff;}.ha15-6{fill:#99004d;}.ha15-7{fill:#99004d;}.ha15-8{fill:#5a2de2;}.ha15-9{fill:#455054;}.ha15-10{fill:#002b4f;}.ha15-11{fill:#ff1f4a;}</style></defs><path class="ha15-1" d="M8,18v4H9v2H8v1h2V24h2V21H11V20H10V19H9V16H8v2Z"/><path class="ha15-1" d="M0,33H8V32H6V31H5V22H6V21H7V20H5v1H2V17H5V16H8V15H9V14H8V11H9V10h1V9h2V8h5V9h1v1h1v1h1v4h1v1H20v3H19v1H18v1H17v3h2v1h2v1h1v1h1v6h6V0H0Z"/><path class="ha15-2" d="M6,24V22H5v9H6V24Z"/><path class="ha15-3" d="M7,30V24H6v7H7Z"/><path class="ha15-2" d="M9,27H8V26h2V25H8V24H7v7H6v1H8v1H9V27Z"/><path class="ha15-3" d="M20,27h1V26H19V25H17v1H16v1H13V26H12V25H10v1H8v1H9v6H20V27Z"/><path class="ha15-2" d="M11,24H10v1h2V24Z"/><rect class="ha15-2" x="12" y="25" width="1" height="1"/><path class="ha15-2" d="M13,26v1h3V26H13Z"/><path class="ha15-4" d="M16,23H13v1H12v1h1v1h3V25h1V24H16Z"/><rect class="ha15-2" x="16" y="25" width="1" height="1"/><path class="ha15-2" d="M18,25h1V24H17v1Z"/><path class="ha15-2" d="M20,26h1V25H19v1Z"/><path class="ha15-2" d="M21,27H20v6h1V27Z"/><rect class="ha15-2" x="21" y="26" width="1" height="1"/><path class="ha15-3" d="M22,27H21v6h1V27Z"/><path class="ha15-2" d="M23,27H22v6h1V27Z"/><rect class="ha15-2" x="20" y="15" width="1" height="1"/><path class="ha15-4" d="M10,13v1h2V13H10Z"/><path class="ha15-4" d="M10,16v3h1v1h1v1h1v1h3V21h1V20h1V19h1V16h1V15H16V14h2V13H16V12h2v1h1V11H18V10H14v1H12v2h1v2H9v1Zm4,0h1v1H14Zm-2,2h5v1H16v1H13V19H12Z"/><path class="ha15-2" d="M19,17v2h1V16H19Z"/><rect class="ha15-2" x="18" y="19" width="1" height="1"/><rect class="ha15-2" x="17" y="20" width="1" height="1"/><path class="ha15-2" d="M16,22H13V21H12v3h1V23h3v1h1V21H16Z"/><rect class="ha15-2" x="11" y="20" width="1" height="1"/><rect class="ha15-2" x="10" y="19" width="1" height="1"/><path class="ha15-2" d="M10,16H9v3h1V16Z"/><rect class="ha15-2" x="8" y="15" width="1" height="1"/><rect class="ha15-2" x="14" y="16" width="1" height="1"/><path class="ha15-5" d="M12,15h1V14H12Z"/><path class="ha15-5" d="M10,14v1h1V14Z"/><path class="ha15-5" d="M18,14v1h1V14Z"/><path class="ha15-5" d="M16,14v1h1V14Z"/><path class="ha15-2" d="M11,14v1h1V14Z"/><path class="ha15-2" d="M17,14v1h1V14Z"/><rect class="ha15-6" x="18" y="13" width="1" height="1"/><rect class="ha15-6" x="16" y="12" width="2" height="1"/><path class="ha15-6" d="M13,14V13H12v1Z"/><path class="ha15-6" d="M11,13h1V12H11Z"/><path class="ha15-7" d="M16,19V18H12v1h4Z"/><path class="ha15-2" d="M13,20h3V19H13Z"/><path class="ha15-2" d="M17,19V18H16v1Z"/><path class="ha15-8" d="M19,14v1h1V11H19v3Z"/><rect class="ha15-8" x="18" y="10" width="1" height="1"/><path class="ha15-8" d="M10,14V13h1V12h1V11h2V10h4V9H17V8H12V9H10v1H9v1H8v3H9v1h1Z"/><path class="ha15-4" d="M7,24H8V22H6v2Z"/><path class="ha15-9" d="M8,22V20H7v2Z"/><path class="ha15-2" d="M7,21H6v1H7Z"/><path class="ha15-2" d="M9,22H8v2H9Z"/><path class="ha15-10" d="M4,21H5V20H4Z"/><path class="ha15-10" d="M5,18V17H4v1Z"/><path class="ha15-10" d="M3,19V18H2v2H3Z"/><path class="ha15-10" d="M5,19v1H6V19Z"/><path class="ha15-10" d="M6,16H5v1H6Z"/><path class="ha15-10" d="M8,17H7v2H8V17Z"/><path class="ha15-11" d="M3,17H2v1H3Z"/><path class="ha15-11" d="M6,17v1H3v2H4V19H7V17Z"/><path class="ha15-11" d="M8,17V16H7v1Z"/><path class="ha15-11" d="M8,19H7v1H8Z"/><path class="ha15-11" d="M2,20v1H3V20Z"/><path class="ha15-5" d="M3,20v1H4V20Z"/><path class="ha15-5" d="M4,19v1H5V19Z"/><path class="ha15-5" d="M4,18V17H3v1Z"/><path class="ha15-5" d="M7,17V16H6v1Z"/><path class="ha15-5" d="M6,18V17H5v1Z"/><path class="ha15-5" d="M6,19v1H7V19Z"/></svg>