<svg xmlns="http://www.w3.org/2000/svg" viewBox="0 0 29 33"><defs><style>polygon,rect,path{shape-rendering:crispedges;}.na291-1{fill:#db5a8e;}.na291-2{fill:#000000;}.na291-3{fill:#009b97;}.na291-4{fill:#00686d;}.na291-5{fill:#e8b795;}.na291-6{fill:#003b3f;}.na291-7{fill:#8e4717;}.na291-8{fill:#8e4717;}</style></defs><path class="na291-1" d="M0,33H29V0H0Zm6-1V24H7V23H8v1H9v1h1V24h2V22H11V21H10V20H9V16H8V15H9V11h1V10h1V9h7v1h1v1h1v4h1v1H20v4H19v1H18v1H17v2h2v1h2v1h1v1h1v6H6Z"/><rect class="na291-1" x="15" y="16" height="1"/><path class="na291-2" d="M22,29v4h1V27H22v2Z"/><path class="na291-3" d="M21,28h1V27H21Z"/><path class="na291-3" d="M21,31v1h1V30H21Z"/><rect class="na291-2" x="21" y="26" width="1" height="1"/><path class="na291-2" d="M21,31V27H20v6h1V31Z"/><path class="na291-3" d="M18,26v2h1v1h1V27H19V25H18Z"/><path class="na291-3" d="M19,31V30H18v2h1v1h1V31Z"/><rect class="na291-3" x="20" y="26" width="1" height="1"/><path class="na291-2" d="M20,26h1V25H19v1Z"/><path class="na291-2" d="M16,25v1h1v7h1V25h1V24H17v1Z"/><path class="na291-4" d="M17,26H16v1H13V26H12v7h5V26Z"/><path class="na291-2" d="M16,24h1V23H16Z"/><path class="na291-2" d="M14,27h2V26H13v1Z"/><path class="na291-5" d="M13,25v1h3V25h1V24H16V23H13v1H12v1Z"/><path class="na291-2" d="M13,23H12v1h1Z"/><path class="na291-2" d="M11,26v7h1V26h1V25H12V24H10v1h1Z"/><path class="na291-3" d="M10,31V30H9v2h1v1h1V31Z"/><path class="na291-3" d="M10,28v1h1V27H9v1Z"/><path class="na291-2" d="M9,31V27H8v6H9V31Z"/><path class="na291-3" d="M7,31v2H8V31Z"/><path class="na291-3" d="M8,28V27H7v2H8Z"/><path class="na291-2" d="M7,32V24H6v9H7Z"/><path class="na291-6" d="M19,31h1V29H19V28H18v2h1Z"/><path class="na291-6" d="M21,32v1h1V32Z"/><path class="na291-6" d="M19,26v1h1V26Z"/><path class="na291-6" d="M22,30V28H21v2Z"/><path class="na291-6" d="M18,32v1h1V32Z"/><path class="na291-6" d="M11,27V25H10v2Z"/><path class="na291-6" d="M10,28H9v2h1v1h1V29H10Z"/><path class="na291-6" d="M9,32v1h1V32Z"/><path class="na291-6" d="M8,30V29H7v2H8Z"/><polygon class="na291-2" points="21 16 21 15 20 15 20 16 21 16"/><path class="na291-5" d="M10,14h1V13H10V12h2v1h4V12h2v1h1v1h0V11H18V10H11v1H10v3Z"/><path class="na291-5" d="M10,17h1v1h1v1h1V18h5V17h1V16h1V15H18v1H16V15H15V14H14v1H13v1H11V15H9v1h1Zm4-1h1v1H14Z"/><polygon class="na291-2" points="18 11 19 11 19 10 18 10 18 11 18 11"/><path class="na291-2" d="M18,10V9H11v1h7Z"/><polygon class="na291-2" points="11 10 10 10 10 11 11 11 11 10"/><polygon class="na291-2" points="15 16 14 16 14 17 15 17 15 16"/><polygon class="na291-7" points="18 13 18 14 19 14 19 13 18 13"/><path class="na291-7" d="M16,12v1h2V12Z"/><path class="na291-7" d="M10,12v1h2V12Z"/><path class="na291-8" d="M15,18H13v1h3V18Z"/><path class="na291-8" d="M14,23h3V22h1V21h1V20h1V16H19v1H18v1H17v1H16v1H13V19H12V18H11V17H10V16H9v4h1v1h1v1h1v1h2Z"/><rect class="na291-2" x="13" y="19" width="3" height="1"/><path class="na291-2" d="M16,19h1V18H16Z"/><path class="na291-5" d="M7,27H9V25H8V24H7v3Z"/><path class="na291-2" d="M10,27V25H9v2Z"/><rect class="na291-2" x="8" y="24" width="1" height="1"/><rect class="na291-2" x="7" y="23" width="1" height="1"/><path class="na291-2" d="M10,15h1v1h2V15h1V14h1v1h1v1h2V15h2V11H19v3H18V13H11v1H10V11H9v4H8v1H9V15Z"/></svg>