<svg xmlns="http://www.w3.org/2000/svg" viewBox="0 0 29 33"><defs><style>polygon,rect,path{shape-rendering:crispedges;}.bb52-1{fill:#6b4f99;}.bb52-2{fill:#000000;}.bb52-3{fill:#8c7850;}.bb52-4{fill:#ffffff;}.bb52-5{fill:#512a24;}.bb52-6{fill:#af8423;}.bb52-7{fill:#e70059;}.bb52-8{fill:#d8be00;}.bb52-9{fill:#ff1f4a;}.bb52-10{fill:#560000;}</style></defs><path class="bb52-1" d="M6,32V27H7V26H8V25h2V24h1V23h1V22H11V21H10V20H9V16H8V15H9V10h1V9h1V8h7V9h1v1h1v5h1v1H20v4H19v1H18v1H17v1h1v1h1v1h2v1h1v1h1v6h6V0H0V33H6Z"/><path class="bb52-2" d="M23,27H22v6h1V27Z"/><path class="bb52-3" d="M22,27H21v6h1V27Z"/><rect class="bb52-2" x="21" y="26" width="1" height="1"/><path class="bb52-2" d="M21,27H20v6h1V27Z"/><path class="bb52-3" d="M20,27h1V26H19V25H18v4H17v4h3V27Z"/><path class="bb52-2" d="M20,26h1V25H19v1Z"/><path class="bb52-2" d="M17,29H16v4h1V29Z"/><rect class="bb52-4" x="16" y="24" width="1" height="1"/><path class="bb52-4" d="M16,29h1V26H16V25H13v1H12v3h1v4h1V32h1v1h1V29Zm-1,2H14V30h1Zm0-2H14V28h1Zm0-2H14V26h1Z"/><rect class="bb52-4" x="15" y="23" width="1" height="1"/><rect class="bb52-2" x="14" y="32" width="1" height="1"/><rect class="bb52-2" x="14" y="30" width="1" height="1"/><rect class="bb52-2" x="14" y="28" width="1" height="1"/><rect class="bb52-2" x="14" y="26" width="1" height="1"/><path class="bb52-2" d="M15,24V23H14v1H13v1h3V24Z"/><rect class="bb52-4" x="13" y="23" width="1" height="1"/><path class="bb52-2" d="M13,29H12v4h1V29Z"/><rect class="bb52-4" x="12" y="24" width="1" height="1"/><path class="bb52-3" d="M12,29H11V25H10v1H8v1H9v6h3V29Z"/><path class="bb52-2" d="M11,26v3h1V26h1V25H12V24h1V22H12v1H11v1H10v1h1Z"/><path class="bb52-2" d="M10,25H8v1h2Z"/><path class="bb52-2" d="M9,27H8v6H9V27Z"/><path class="bb52-3" d="M8,27H7v6H8V27Z"/><rect class="bb52-2" x="7" y="26" width="1" height="1"/><path class="bb52-2" d="M7,27H6v6H7V27Z"/><rect class="bb52-2" x="20" y="15" width="1" height="1"/><path class="bb52-2" d="M19,15h1V14H19Z"/><path class="bb52-5" d="M18,15v1H17v1H16V14H15v1H14v1h1v1H14V16H13v1H11V16H10v2h1v1h1V18h5v1h1V18h1V16h1V15H18Z"/><rect class="bb52-5" x="13" y="20" width="1" height="1"/><rect class="bb52-5" x="15" y="20" width="1" height="1"/><rect class="bb52-5" x="9" y="15" width="1" height="1"/><path class="bb52-2" d="M16,23v1h1v1H16v1h1v3h1V25h1V24H18V23H17V22H16Z"/><rect class="bb52-2" x="8" y="15" width="1" height="1"/><rect class="bb52-2" x="14" y="16" width="1" height="1"/><path class="bb52-6" d="M13,23h3V22h2V21h1V20h1V16H19v2H18v1H16v2H15V20H14v1H13V19H11V18H10V16H9v4h1v1h1v1h2Z"/><path class="bb52-2" d="M12,18v1h1V18Z"/><path class="bb52-2" d="M16,18v1h1V18Z"/><path class="bb52-2" d="M15,20h1V19H15Z"/><path class="bb52-2" d="M15,19V18H14v1Z"/><path class="bb52-2" d="M13,19v1h1V19Z"/><path class="bb52-4" d="M14,18H13v1h1Z"/><path class="bb52-4" d="M15,18v1h1V18Z"/><rect class="bb52-7" x="14" y="19" width="1" height="1"/><path class="bb52-8" d="M10,10H9v1h1Z"/><rect class="bb52-8" x="10" y="9" width="1" height="1"/><path class="bb52-8" d="M15,9v5h1v3h1V16h1V15h1V14h1V10H19V9H18V8H11V9h4Z"/><path class="bb52-9" d="M11,15h2V13H11v2Z"/><path class="bb52-10" d="M14,15V13H13v2Z"/><path class="bb52-10" d="M12,15H11v1h2V15Z"/><path class="bb52-10" d="M11,14V13H10v2h1Z"/><path class="bb52-10" d="M13,12H11v1h2Z"/><rect class="bb52-2" x="10" y="15" width="1" height="1"/><rect class="bb52-2" x="11" y="16" width="2" height="1"/><rect class="bb52-2" x="13" y="15" width="1" height="1"/><path class="bb52-2" d="M10,14V13h1V12h2v1h1v2h1V9H11v1H10v1H9v4h1Z"/></svg>