<svg xmlns="http://www.w3.org/2000/svg" viewBox="0 0 29 33"><defs><style>polygon,rect,path{shape-rendering:crispedges;}.oa260-1{fill:#db5a8e;}.oa260-2{fill:#000000;}.oa260-3{fill:#99004d;}.oa260-4{fill:#99ce09;}.oa260-5{fill:#6d3e35;}.oa260-6{fill:#ff6aa5;}.oa260-7{fill:#ffffff;}.oa260-8{fill:#ccc;}.oa260-9{fill:#4fdb7d;}.oa260-10{fill:#fad000;}.oa260-11{fill:#474718;}.oa260-12{fill:#6f7032;}</style></defs><rect class="oa260-1" x="20" y="19" width="1" height="1"/><path class="oa260-1" d="M12,21H11V20H9v2h1v2h2V21Z"/><path class="oa260-1" d="M20,22V20H18v1H17v3h2V22Z"/><rect class="oa260-1" x="8" y="19" width="1" height="1"/><path class="oa260-2" d="M23,27H22v6h1V27Z"/><rect class="oa260-2" x="21" y="26" width="1" height="1"/><path class="oa260-3" d="M21,30v1h1V29H21Z"/><path class="oa260-3" d="M21,32v1h1V32Z"/><path class="oa260-3" d="M21,28h1V27H21Z"/><path class="oa260-2" d="M21,31V27H20v6h1V31Z"/><path class="oa260-3" d="M19,32v1h1V32Z"/><path class="oa260-3" d="M19,27H18v3h1v1h1V29H19V28h1V27h1V26H19Z"/><path class="oa260-2" d="M19,26h2V25H19Z"/><path class="oa260-2" d="M18,30V25h1V24H17v1H16v1h1v7h1V30Z"/><path class="oa260-4" d="M17,26H16v1H13V26H12v7h5V26Z"/><path class="oa260-2" d="M13,26v1h3V26H13Z"/><path class="oa260-5" d="M16,23H13v1H12v1h1v1h3V25h1V24H16Z"/><path class="oa260-2" d="M12,26h1V25H12V24H10v1h1v8h1V26Z"/><path class="oa260-3" d="M9,27v1h1v1H9v2h1V30h1V27H10V26H8v1Z"/><rect class="oa260-3" x="9" y="32" width="1" height="1"/><path class="oa260-2" d="M10,25H8v1h2Z"/><path class="oa260-2" d="M9,31V27H8v6H9V31Z"/><rect class="oa260-2" x="7" y="26" width="1" height="1"/><path class="oa260-3" d="M7,32v1H8V32Z"/><path class="oa260-3" d="M7,30v1H8V29H7Z"/><path class="oa260-3" d="M8,28V27H7v1Z"/><path class="oa260-2" d="M7,31V27H6v6H7V31Z"/><path class="oa260-6" d="M11,30H10v1H9v1h1v1h1V30Z"/><path class="oa260-6" d="M10,27h1V25H10v2Z"/><path class="oa260-6" d="M19,26V25H18v2h1Z"/><path class="oa260-6" d="M7,29H8V28H7Z"/><path class="oa260-6" d="M10,28H9v1h1Z"/><path class="oa260-6" d="M21,29h1V28H21Z"/><path class="oa260-6" d="M19,29h1V28H19Z"/><path class="oa260-6" d="M21,32h1V31H21Z"/><path class="oa260-6" d="M7,32H8V31H7Z"/><path class="oa260-6" d="M20,32V31H19V30H18v3h1V32Z"/><path class="oa260-5" d="M19,19V17H16V16H15v1H14V16H13v1H10v2h1v1h1v1h1v1h3V21h1V20h1V19Zm-2,0H16v1H13V19h3V18h1Z"/><rect class="oa260-5" x="14" y="15" width="1" height="1"/><path class="oa260-5" d="M14,14h2V13H13v1Z"/><path class="oa260-2" d="M19,18v1h1V16H19v2Z"/><path class="oa260-2" d="M18,19v1h1V19Z"/><rect class="oa260-2" x="17" y="20" width="1" height="1"/><path class="oa260-2" d="M17,21H16v1H13V21H12v3h1V23h3v1h1V21Z"/><rect class="oa260-2" x="11" y="20" width="1" height="1"/><path class="oa260-2" d="M10,19v1h1V19Z"/><path class="oa260-2" d="M10,18V16H9v3h1Z"/><rect class="oa260-2" x="14" y="16" width="1" height="1"/><rect class="oa260-2" x="13" y="19" width="3" height="1"/><rect class="oa260-2" x="16" y="18" width="1" height="1"/><path class="oa260-7" d="M10,22H9V20H8V19H3v1H7v1H5v1H8v1H6v1h4Z"/><path class="oa260-8" d="M8,22H5v1H8Z"/><path class="oa260-8" d="M7,20H4v1H7Z"/><path class="oa260-8" d="M22,20v1h3V20H22Z"/><path class="oa260-8" d="M21,22v1h3V22H21Z"/><path class="oa260-7" d="M20,20v2H19v2h4V23H21V22h3V21H22V20h4V19H21v1Z"/><path class="oa260-8" d="M10,24H8v1h2Z"/><path class="oa260-8" d="M19,25h2V24H19Z"/><path class="oa260-9" d="M9,18V15H8v4H9Z"/><path class="oa260-9" d="M20,16v3h1V15H20Z"/><path class="oa260-9" d="M19,14h2V13H19Z"/><path class="oa260-9" d="M10,13H8v1h2Z"/><path class="oa260-9" d="M10,19H9v1h1Z"/><path class="oa260-9" d="M19,20h1V19H19Z"/><path class="oa260-10" d="M19,16h1V15h1V14H19Z"/><path class="oa260-10" d="M17,14h2V13H16v1Z"/><path class="oa260-2" d="M16,14v2h3V14H16Z"/><path class="oa260-10" d="M16,16v1h3V16H16Z"/><path class="oa260-10" d="M14,15h1v1h1V14H13v2h1Z"/><path class="oa260-10" d="M13,14V13H10v1h3Z"/><path class="oa260-2" d="M13,16V14H10v2h3Z"/><path class="oa260-10" d="M11,17h2V16H10v1Z"/><path class="oa260-10" d="M9,16h1V14H8v1H9Z"/><path class="oa260-11" d="M18,12V11H17v2h1Z"/><path class="oa260-12" d="M10,12v1h1V11h1v2h1V11h1v2h1V11h1v2h1V11h1v2h1V11h1V10H19V9H18V8H11V9H10v1H9v1h1Z"/><path class="oa260-11" d="M16,12V11H15v2h1Z"/><path class="oa260-11" d="M14,12V11H13v2h1Z"/><path class="oa260-11" d="M12,12V11H11v2h1Z"/><path class="oa260-11" d="M10,12V11H9v2h1Z"/><path class="oa260-11" d="M19,12v1h1V11H19Z"/><path class="oa260-1" d="M0,8V33H6V27H7V26H8V24H6V23H5V21H4V20H3V19H8V13H9V10h1V9h1V8h7V9h1v1h1v3h1v6h5v1H25v1H24v2H23v1H21v2h1v1h1v6h6V0H0Z"/></svg>