<svg xmlns="http://www.w3.org/2000/svg" viewBox="0 0 29 33"><defs><style>polygon,rect,path{shape-rendering:crispedges;}.da229-1{fill:#e55b35;}.da229-2{fill:#000000;}.da229-3{fill:#508e91;}.da229-4{fill:#c18d59;}.da229-5{fill:#508e91;}.da229-6{fill:#66334f;}.da229-7{fill:#66334f;}.da229-8{fill:#00686d;}.da229-9{fill:#ffffff;}.da229-10{fill:#ccc;}</style></defs><path class="da229-1" d="M0,33H6V27H7V26H8V25h2V24h2V21H11V20H9V18H7V14H8V11H9V10h1V9h1V8h7V9h1v1h1v1h1v3h1v4H20v2H18v1H17v3h2v1h2v1h1v1h1v6h6V0H0Z"/><polygon class="da229-1" points="20 12 20 13 20 13 20 11 20 11 20 12"/><path class="da229-1" d="M19,18V16h0v3h0Z"/><rect class="da229-1" x="18" y="19" height="1"/><polygon class="da229-1" points="15 17 15 17 14 17 14 16 15 16 15 16 14 16 14 17 15 17"/><rect class="da229-1" x="17" y="20" height="1"/><path class="da229-2" d="M23,27H22v3H21V27H20v6h1V31h1v2h1V27Z"/><rect class="da229-2" x="21" y="26" width="1" height="1"/><path class="da229-3" d="M21,28v2h1V27H21Z"/><path class="da229-4" d="M21,31v2h1V31Z"/><path class="da229-2" d="M20,26h1V25H19v1Z"/><path class="da229-3" d="M15,29H14v2h1V29Z"/><path class="da229-3" d="M19,32V31H18v1H17V29h1V28h1v1h1V27h1V26H19V25H17v1H16v1H13V26H12V25H10v1H8v1H9v2h1V28h1v1h1v3H11V31H10v1H9v1H20V32Zm-3-2v1H15v1H13V28h2v1h1Z"/><rect class="da229-3" x="18" y="29" width="1" height="1"/><rect class="da229-3" x="10" y="29" width="1" height="1"/><path class="da229-2" d="M18,25h1V24H17v1Z"/><rect class="da229-2" x="16" y="25" width="1" height="1"/><path class="da229-2" d="M13,26v1h3V26H13Z"/><path class="da229-2" d="M13,23h3v1h1V21H16v1H13V21H12v3h1Z"/><path class="da229-4" d="M13,25v1h3V25h1V24H16V23H13v1H12v1Z"/><rect class="da229-2" x="12" y="25" width="1" height="1"/><path class="da229-2" d="M12,24H10v1h2Z"/><path class="da229-2" d="M10,25H8v1h2Z"/><path class="da229-2" d="M9,31V27H8v3H7V27H6v6H7V31H8v2H9V31Z"/><rect class="da229-2" x="7" y="26" width="1" height="1"/><path class="da229-3" d="M7,30H8V27H7v3Z"/><path class="da229-4" d="M7,31v2H8V31Z"/><path class="da229-5" d="M19,30H18V29H17v3h1V31h1v1h1V29H19Z"/><rect class="da229-5" x="18" y="28" width="1" height="1"/><path class="da229-5" d="M15,30v1h1V29H15Z"/><path class="da229-5" d="M14,30V29h1V28H13v4h2V31H14Z"/><path class="da229-5" d="M9,32h1V31h1v1h1V29H11v1H10V29H9v3Z"/><rect class="da229-5" x="10" y="28" width="1" height="1"/><rect class="da229-4" x="19" y="15" height="1"/><path class="da229-4" d="M12,21h2V20H13V19H12V18h1v1h3v1H15v1h2V20h1V19h1V18H18V16H17v1H16V15H15V14H14v2h1v1H14V16H11v2H10v1h1v1h1Z"/><path class="da229-4" d="M17,12H16v1h1Z"/><path class="da229-4" d="M13,13h2V11H14v1H13Z"/><polygon class="da229-4" points="12 12 12 11 11 11 11 12 12 12 12 12"/><rect class="da229-4" x="12" y="21"/><path class="da229-2" d="M19,18h1V17H19Z"/><rect class="da229-2" x="19" y="10" height="1"/><path class="da229-2" d="M19,19H18v1h1V19Z"/><polygon class="da229-2" points="17 20 17 20 17 21 18 21 18 20 18 20 17 20"/><rect class="da229-2" x="18" y="9" height="1"/><polygon class="da229-2" points="12 20 11 20 11 21 12 21 12 21 12 20"/><path class="da229-2" d="M10,19v1h1V19Z"/><polygon class="da229-2" points="9 17 9 18 10 18 10 17 9 17 9 17"/><polygon class="da229-2" points="14 17 15 17 15 17 15 16 15 16 14 16 14 17"/><rect class="da229-6" x="11" y="12" width="1" height="1"/><rect class="da229-6" x="13" y="12" height="1"/><rect class="da229-6" x="17" y="12" width="1" height="1"/><path class="da229-7" d="M15,20H14v1H13v1h3V21H15Z"/><polygon class="da229-2" points="16 20 16 19 13 19 13 20 14 20 15 20 16 20"/><rect class="da229-2" x="12" y="18" width="1" height="1"/><path class="da229-8" d="M19,15H18v3h1V15Z"/><path class="da229-8" d="M20,17h0v1H19v2h1V18h0Z"/><path class="da229-8" d="M9,14h2V11h1v1h0v1h1V12h1V11h1v2h1V12h2v2h2V13h0V11H19V10H18V9H11v1H10v1H9v3Z"/><path class="da229-8" d="M10,18h1V15H10v3H9v2h1V18Z"/><path class="da229-8" d="M13,16h1V15H13Z"/><path class="da229-8" d="M16,17h1V16H16Z"/><path class="da229-2" d="M19,15h0V14H18V13H11v1H10v1h1v1h2V15h1V14h1v1h1v1h2V15Z"/><path class="da229-9" d="M9,17H9V14H9V11H8v3H7v3H8v1H9Z"/><polygon class="da229-9" points="10 11 10 10 9 10 9 11 10 11 10 11"/><polygon class="da229-9" points="11 10 11 9 10 9 10 10 11 10 11 10"/><path class="da229-9" d="M18,9h0V8H11V9h7Z"/><polygon class="da229-9" points="18 10 19 10 19 10 19 9 18 9 18 10 18 10"/><polygon class="da229-9" points="19 11 20 11 20 11 20 10 19 10 19 11 19 11"/><path class="da229-10" d="M9,14v3h1V14Z"/><path class="da229-9" d="M20,14v4h1V17h1V14H21V11H20v3Z"/><path class="da229-10" d="M19,15v2h1V14H19Z"/><path class="da229-10" d="M7,17v1H8V17Z"/><path class="da229-10" d="M21,18h1V17H21Z"/></svg>