<svg xmlns="http://www.w3.org/2000/svg" viewBox="0 0 29 33"><defs><style>polygon,rect,path{shape-rendering:crispedges;}.eb267-1{fill:#d4a122;}.eb267-2{fill:#000000;}.eb267-3{fill:#663434;}.eb267-4{fill:#ffffff;}.eb267-5{fill:#efcaaf;}.eb267-6{fill:#90a2a3;}.eb267-7{fill:#7f5018;}.eb267-8{fill:#7f5018;}.eb267-9{fill:#99004d;}.eb267-10{fill:#ffffff;}.eb267-11{fill:#cc3232;}</style></defs><path class="eb267-1" d="M0,33H6V27H7V26H8V25H9V24h1V23h1V22h1V21H11V20H10V19H9V16H8V15H9V11h1V10h1V9h2V7h1V5h1V6h1V8h1V9h1v1h1v1h1v4h1v1H20v3H19v1H18v1H17v1h1v1h1v1h1v1h1v1h1v1h1v6h6V0H0Z"/><path class="eb267-2" d="M23,27H22v6h1V27Z"/><path class="eb267-3" d="M22,27H21v6h1V27Z"/><path class="eb267-2" d="M21,27h1V26H21V25H20v2H17v1h2v1h1v4h1V27Z"/><rect class="eb267-2" x="19" y="24" width="1" height="1"/><path class="eb267-3" d="M20,29H19v1H18v1H17v1H16v1h4V29Z"/><rect class="eb267-2" x="18" y="23" width="1" height="1"/><path class="eb267-3" d="M18,25H17v1H16v5h1V30h1V29h1V28H17V27h2V26h1V25H19V24H18Z"/><rect class="eb267-3" x="17" y="23" width="1" height="1"/><rect class="eb267-2" x="17" y="24" width="1" height="1"/><rect class="eb267-2" x="18" y="29" width="1" height="1"/><rect class="eb267-2" x="16" y="25" width="1" height="1"/><path class="eb267-4" d="M15,27H14v6h1V27Z"/><path class="eb267-2" d="M12,24h1V22H11v1h1Z"/><path class="eb267-5" d="M17,25V24H16V23H13v1H12v1h1v1h3V25Z"/><rect class="eb267-2" x="12" y="25" width="1" height="1"/><path class="eb267-3" d="M12,32V31H11V30H10V29H9v4h4V32Z"/><rect class="eb267-3" x="11" y="23" width="1" height="1"/><rect class="eb267-2" x="11" y="24" width="1" height="1"/><rect class="eb267-2" x="11" y="30" width="1" height="1"/><rect class="eb267-2" x="10" y="23" width="1" height="1"/><rect class="eb267-2" x="9" y="24" width="1" height="1"/><path class="eb267-3" d="M10,26v1h2v1H10v1h1v1h1v1h1V26H12V25H11V24H10v1H9v1Z"/><path class="eb267-2" d="M9,29h1V28h2V27H9V25H8v1H7v1H8v6H9V29Z"/><path class="eb267-3" d="M8,27H7v6H8V27Z"/><path class="eb267-2" d="M7,27H6v6H7V27Z"/><rect class="eb267-2" x="10" y="29" width="1" height="1"/><rect class="eb267-2" x="17" y="30" width="1" height="1"/><path class="eb267-2" d="M17,32V31H16V26H13v5H12v1h1v1h1V27h1v6h1V32Z"/><path class="eb267-6" d="M9,26v1h1V26Z"/><path class="eb267-6" d="M19,27h1V26H19Z"/><rect class="eb267-2" x="20" y="15" width="1" height="1"/><path class="eb267-2" d="M19,14v1h1V13H19Z"/><path class="eb267-5" d="M13,11V10H11v1Z"/><path class="eb267-5" d="M15,10H14v1h4V10H15Z"/><path class="eb267-5" d="M13,21h3V20H13Z"/><rect class="eb267-5" x="10" y="13" width="1" height="1"/><path class="eb267-5" d="M14,14h2V13H13v1Z"/><path class="eb267-5" d="M18,17H16V16H15v1H14V16H13v1H11V16H10v2h1v1h1v1h1V19h3v1h1V19h1V18h1V16H18Z"/><rect class="eb267-5" x="14" y="15" width="1" height="1"/><rect class="eb267-5" x="19" y="15" width="1" height="1"/><rect class="eb267-5" x="9" y="15" width="1" height="1"/><rect class="eb267-2" x="18" y="10" width="1" height="1"/><path class="eb267-2" d="M16,23v1h1V23h1V22H16Z"/><path class="eb267-2" d="M15,10h3V9H15Z"/><path class="eb267-2" d="M13,9H11v1h2Z"/><rect class="eb267-2" x="10" y="10" width="1" height="1"/><path class="eb267-2" d="M10,14V13H9v2h1Z"/><rect class="eb267-2" x="8" y="15" width="1" height="1"/><rect class="eb267-2" x="14" y="16" width="1" height="1"/><rect class="eb267-7" x="18" y="13" width="1" height="1"/><path class="eb267-8" d="M13,23h3V22h1V21h1V20h1V19h1V16H19v2H18v1H17v1H16v1H13V20H12V19H11V18H10V16H9v3h1v1h1v1h1v1h1Z"/><rect class="eb267-2" x="13" y="19" width="3" height="1"/><path class="eb267-9" d="M13,11h1V10h1V9h2V8H16V6H15V5H14V7H13v4Z"/><path class="eb267-10" d="M12,14h1V13H11v1Z"/><path class="eb267-10" d="M11,17h2V16H11Z"/><polygon class="eb267-10" points="11 15 11 14 10 14 10 15 10 16 11 16 11 15"/><path class="eb267-2" d="M12,14H11v2h2V14Z"/><path class="eb267-10" d="M19,14H18v2h1V14Z"/><path class="eb267-10" d="M17,14h1V13H16v1Z"/><path class="eb267-10" d="M16,17h2V16H16Z"/><path class="eb267-10" d="M14,14H13v2h1V15h1v1h1V14Z"/><path class="eb267-2" d="M16,14v2h2V14H16Z"/><path class="eb267-10" d="M20,12V11H9v1H20Z"/><path class="eb267-11" d="M11,13h9V12H9v1h2Z"/></svg>