<svg xmlns="http://www.w3.org/2000/svg" viewBox="0 0 29 33"><defs><style>polygon,rect,path{shape-rendering:crispedges;}.aa25-1{fill:#7a982c;}.aa25-2{fill:#000000;}.aa25-3{fill:#b2622b;}.aa25-4{fill:#590035;}.aa25-5{fill:#590035;}.aa25-6{fill:#ffffff;}.aa25-7{fill:#663228;}.aa25-8{fill:#663228;}.aa25-9{fill:#0068ff;}.aa25-10{fill:#fad000;}.aa25-11{fill:#6d5800;}.aa25-12{fill:#9b8100;}.aa25-13{fill:#ffffff;}.aa25-14{fill:#e70059;}</style></defs><path class="aa25-1" d="M0,33H6V27H7V26H8V25h2V24h2V21H11V20H10V19H9V16H8V15H9V10h1V9h1V8h1V9h1V8h3V7h1V8h2V9h1v1H19v1h1v4h1v1H20v2h1V17h1V16h1v1h1v1h1v5H24v8H23v1H21v1h8V0H0Z"/><rect class="aa25-1" x="16" y="8" width="1" height="1"/><path class="aa25-1" d="M21,23H20V19H19v1H18v1H17v3h2v1h2Z"/><path class="aa25-2" d="M7,31V27H6v6H7Z"/><rect class="aa25-2" x="7" y="26" width="1" height="1"/><path class="aa25-3" d="M8,31V27H7v6H8Z"/><rect class="aa25-3" x="8" y="26" width="1" height="1"/><path class="aa25-2" d="M9,31V27H8v6H9Z"/><path class="aa25-2" d="M10,26V25H8v1Z"/><rect class="aa25-4" x="18" y="30" width="1" height="1"/><path class="aa25-4" d="M14,31v1h1V30H14Z"/><rect class="aa25-4" x="10" y="32" width="1" height="1"/><rect class="aa25-4" x="18" y="32" width="1" height="1"/><rect class="aa25-4" x="10" y="30" width="1" height="1"/><path class="aa25-4" d="M17,31V30h1V29h1v1h1V26H19V25H18v1H17v1H16v1H13V27H12V26H11V25H10v1H9v4h1V29h1v1h1v3h1V29h2v1h1v2H15v1h2Z"/><path class="aa25-2" d="M11,26h1V24H10v1h1Z"/><path class="aa25-2" d="M13,23V22H12v2h1Z"/><rect class="aa25-2" x="12" y="26" width="1" height="1"/><path class="aa25-2" d="M14,27H13v1h3V27Z"/><path class="aa25-3" d="M12,26h1v1h3V26h1V24H16V23H13v1H12Z"/><rect class="aa25-2" x="16" y="26" width="1" height="1"/><path class="aa25-2" d="M18,24H17v2h1V25h1V24Z"/><rect class="aa25-3" x="20" y="26" width="1" height="1"/><path class="aa25-2" d="M22,32h1V31H22V25H19v1h2v1H20v6h1V32Z"/><path class="aa25-3" d="M23,29V25H22v6h1Z"/><path class="aa25-2" d="M23,26v5h1V25H23Z"/><path class="aa25-5" d="M20,31V30H19v1H18V30H17v3h1V32h1v1h1Z"/><rect class="aa25-5" x="18" y="29" width="1" height="1"/><path class="aa25-5" d="M15,32h1V30H15Z"/><path class="aa25-5" d="M14,32V30h1V29H13v4h2V32Z"/><path class="aa25-5" d="M12,31V30H11v1H10V30H9v3h1V32h1v1h1Z"/><rect class="aa25-5" x="10" y="29" width="1" height="1"/><rect class="aa25-2" x="20" y="15" width="1" height="1"/><path class="aa25-3" d="M13,21h3V20H13Z"/><path class="aa25-3" d="M10,17v1h1v1h1v1h1V19h3v1h1V19h1V18h1V16h1V15H16V14h3V13H16V12h2V11H13V10H12v1H11v1h2v1H10v1h3v1H9v1h1Zm4-1h1v1H14Z"/><path class="aa25-2" d="M17,22H16v2h1Z"/><rect class="aa25-2" x="8" y="15" width="1" height="1"/><rect class="aa25-2" x="14" y="16" width="1" height="1"/><rect class="aa25-6" x="10" y="14" width="1" height="1"/><rect class="aa25-6" x="16" y="14" width="1" height="1"/><path class="aa25-2" d="M12,15h1V14H11v1Z"/><path class="aa25-2" d="M18,14H17v1h3V14Z"/><path class="aa25-7" d="M10,13h3V12H10Z"/><polygon class="aa25-7" points="18 12 16 12 16 13 19 13 19 12 18 12"/><path class="aa25-8" d="M13,23h3V22h1V21h1V20h1V19h1V16H19v2H18v1H17v1H16v1H13V20H12V19H11V18H10V16H9v3h1v1h1v1h1v1h1Z"/><rect class="aa25-2" x="13" y="19" width="3" height="1"/><path class="aa25-9" d="M10,14V12h1V11h1V10h1v1h5v1h1v2h1V11H19V10h1V9H19V8H17V9H16V8H13V9H12V8H11V9H10v1H9v5h1Z"/><rect class="aa25-9" x="16" y="7" width="1" height="1"/><path class="aa25-10" d="M20,20v1h5V18H24v2H23V18H22v2H21V18H20Z"/><path class="aa25-2" d="M21,20h1V18H21Z"/><path class="aa25-2" d="M23,19v1h1V18H23Z"/><path class="aa25-11" d="M22,23H21v2h3V23Z"/><path class="aa25-12" d="M20,23h1V21H20Z"/><path class="aa25-12" d="M24,21.222V23h1V21H24Z"/><rect class="aa25-2" x="22" y="21" width="1" height="1"/><path class="aa25-13" d="M21,22h1V21H21Z"/><path class="aa25-13" d="M24,22V21H23v1Z"/><rect class="aa25-10" x="21" y="17" width="1" height="1"/><rect class="aa25-10" x="23" y="17" width="1" height="1"/><path class="aa25-12" d="M23,18V16H22v2Z"/><rect class="aa25-14" x="22" y="22" width="1" height="1"/><rect class="aa25-2" x="21" y="22" width="1" height="1"/><rect class="aa25-2" x="23" y="22" width="1" height="1"/></svg>