<svg xmlns="http://www.w3.org/2000/svg" viewBox="0 0 29 33"><defs><style>polygon,rect,path{shape-rendering:crispedges;}.aa179-1{fill:#db5a8e;}.aa179-2{fill:#000000;}.aa179-3{fill:#c18d59;}.aa179-4{fill:#333333;}.aa179-5{fill:#333333;}.aa179-6{fill:#ffffff;}.aa179-7{fill:#66334f;}.aa179-8{fill:#66334f;}.aa179-9{fill:#d8be00;}.aa179-10{fill:#efc075;}.aa179-11{fill:#2aa8e8;}.aa179-12{fill:#d8aa68;}.aa179-13{fill:#563e1b;}</style></defs><path class="aa179-1" d="M0,33H6V28H5V27H4V25H5V24H8v1h2V24h2V21H11V20H9V18H8V12H9V11h1V10h1V9h7v1h1v1h1v2h1v1h1v8h1v1h1v8H23v1H22v1h7V0H0Z"/><path class="aa179-1" d="M21,25V18H20v2H18v1H17v3h2v1Z"/><path class="aa179-2" d="M7,31V27H5v1H6v5H7Z"/><path class="aa179-3" d="M8,31V26H7V25H5v2H7v6H8Z"/><path class="aa179-2" d="M9,31V26h1V25H8v8H9Z"/><rect class="aa179-4" x="18" y="30" width="1" height="1"/><path class="aa179-4" d="M17,31V30h1V29h1v1h1V26H19V25H18v1H17v1H16v1H13V27H12V26H11V25H10v1H9v4h1V29h1v1h1v3h1V29h2v1h1v2H15v1h2Z"/><path class="aa179-4" d="M14,31v1h1V30H14Z"/><rect class="aa179-4" x="10" y="32" width="1" height="1"/><rect class="aa179-4" x="18" y="32" width="1" height="1"/><rect class="aa179-4" x="10" y="30" width="1" height="1"/><path class="aa179-2" d="M11,26h1V24H10v1h1Z"/><path class="aa179-2" d="M13,23V22H12v2h1Z"/><rect class="aa179-2" x="12" y="26" width="1" height="1"/><path class="aa179-2" d="M14,27H13v1h3V27Z"/><path class="aa179-3" d="M12,26h1v1h3V26h1V24H16V23H13v1H12Z"/><rect class="aa179-2" x="16" y="26" width="1" height="1"/><path class="aa179-2" d="M18,24H17v2h1V25h1V24Z"/><rect class="aa179-3" x="20" y="26" width="1" height="1"/><rect class="aa179-2" x="22" y="31" width="1" height="1"/><path class="aa179-2" d="M21,31V27H20v6h1Z"/><path class="aa179-2" d="M21,25H19v1h2Z"/><path class="aa179-2" d="M23,25v6h1V23H23Z"/><path class="aa179-5" d="M20,31V30H19v1H18V30H17v3h1V32h1v1h1Z"/><rect class="aa179-5" x="18" y="29" width="1" height="1"/><path class="aa179-5" d="M15,32h1V30H15Z"/><path class="aa179-5" d="M14,32V30h1V29H13v4h2V32Z"/><path class="aa179-5" d="M12,31V30H11v1H10V30H9v3h1V32h1v1h1Z"/><rect class="aa179-5" x="10" y="29" width="1" height="1"/><path class="aa179-3" d="M13,21h3V20H13Z"/><rect class="aa179-3" x="12" y="19" width="1" height="1"/><rect class="aa179-3" x="16" y="12" width="1" height="1"/><rect class="aa179-3" x="9" y="15" width="1" height="1"/><rect class="aa179-3" x="17" y="13" width="1" height="1"/><rect class="aa179-3" x="11" y="11" width="1" height="1"/><rect class="aa179-3" x="11" y="13" width="1" height="1"/><path class="aa179-3" d="M18,16V15H17v2H16V15H15V11H14v1H13v2h1v2h1v1H14V16H13V15H11v4h1V18h1v1h3v1h1V19h1Z"/><rect class="aa179-3" x="19" y="15" width="1" height="1"/><path class="aa179-2" d="M17,22H16v2h1Z"/><rect class="aa179-2" x="9" y="14" width="1" height="1"/><rect class="aa179-2" x="14" y="16" width="1" height="1"/><rect class="aa179-6" x="16" y="14" width="1" height="1"/><path class="aa179-2" d="M13,15V14H11v1Z"/><rect class="aa179-2" x="17" y="14" width="1" height="1"/><rect class="aa179-7" x="11" y="12" width="1" height="1"/><rect class="aa179-7" x="16" y="13" width="1" height="1"/><rect class="aa179-7" x="17" y="12" width="1" height="1"/><path class="aa179-8" d="M20,17V16H19v2h1Z"/><path class="aa179-8" d="M13,23h3V22h1V21h1V20h1V18H18v1H17v1H16v1H13V20H12V19H11V18H10v2h1v1h1v1h1Z"/><path class="aa179-8" d="M10,17V16H9v2h1Z"/><rect class="aa179-2" x="13" y="19" width="3" height="1"/><rect class="aa179-2" x="12" y="18" width="1" height="1"/><path class="aa179-9" d="M9,16V14h1v4h1V11h1v3h1V12h1V11h1v4h1V12h2v6h1V15h1v3h1V13H20V11H19V10H18V9H11v1H10v1H9v1H8v6H9Z"/><path class="aa179-9" d="M10,18H9v2h1Z"/><path class="aa179-9" d="M13,16h1V14H13Z"/><path class="aa179-9" d="M16,17h1V15H16Z"/><path class="aa179-9" d="M20,19V18H19v2h1Z"/><path class="aa179-10" d="M22,27H21v2h1Z"/><path class="aa179-10" d="M21,20v1h1V19H21Z"/><polygon class="aa179-10" points="21 16 21 17 22 17 22 15 21 15 21 16"/><rect class="aa179-11" x="21" y="14" width="1" height="1"/><path class="aa179-3" d="M21,23v2h1v6h1V23Z"/><path class="aa179-12" d="M22,26V25H21v2h1Z"/><path class="aa179-12" d="M21,23h1V21H21Z"/><path class="aa179-12" d="M21,18v1h1V17H21Z"/><path class="aa179-6" d="M7,25v1H8V24H5v1Z"/><path class="aa179-13" d="M22,31V29H21v4h1Z"/><rect class="aa179-2" x="22" y="22" width="1" height="1"/><path class="aa179-2" d="M5,25H4v2H5Z"/></svg>