<svg xmlns="http://www.w3.org/2000/svg" viewBox="0 0 29 33"><defs><style>polygon,rect,path{shape-rendering:crispedges;}.eb277-1{fill:#6b4f99;}.eb277-2{fill:#000000;}.eb277-3{fill:#9b8100;}.eb277-4{fill:#ffffff;}.eb277-5{fill:#b2622b;}.eb277-6{fill:#90a2a3;}.eb277-7{fill:#00774c;}.eb277-8{fill:#00774c;}.eb277-9{fill:#c8a715;}.eb277-10{fill:#cc3232;}.eb277-11{fill:#ff1d99;}.eb277-12{fill:#6e12ff;}</style></defs><path class="eb277-1" d="M0,33H6V27H7V26H8V25H9V24h1V20H9V16H8V14H9V11h1V10h1V9h1V8h1V6h1V5h1V7h1V9h2v1h1v1h1v3h1v2H20v4H19v4h1v1h1v1h1v1h1v6h6V0H0Z"/><path class="eb277-2" d="M23,27H22v6h1V27Z"/><path class="eb277-3" d="M22,27H21v6h1V27Z"/><path class="eb277-2" d="M21,27h1V26H21V25H20v2H17v1h2v1h1v4h1V27Z"/><rect class="eb277-2" x="19" y="24" width="1" height="1"/><path class="eb277-3" d="M20,29H19v1H18v1H17v1H16v1h4V29Z"/><path class="eb277-3" d="M18,25H17v1H16v5h1V30h1V29h1V28H17V27h2V26h1V25H19V24H18Z"/><rect class="eb277-2" x="17" y="22" width="1" height="1"/><rect class="eb277-3" x="17" y="23" width="1" height="1"/><rect class="eb277-2" x="17" y="24" width="1" height="1"/><rect class="eb277-2" x="18" y="29" width="1" height="1"/><rect class="eb277-2" x="16" y="25" width="1" height="1"/><path class="eb277-4" d="M15,27H14v6h1V27Z"/><path class="eb277-5" d="M16,24V23H13v3h3V24Z"/><path class="eb277-2" d="M12,25v1h1V25Z"/><path class="eb277-3" d="M12,32V31H11V30H10V29H9v4h4V32Z"/><rect class="eb277-2" x="11" y="22" width="1" height="1"/><rect class="eb277-3" x="11" y="23" width="1" height="1"/><rect class="eb277-2" x="11" y="24" width="1" height="1"/><rect class="eb277-2" x="11" y="30" width="1" height="1"/><rect class="eb277-2" x="9" y="24" width="1" height="1"/><path class="eb277-3" d="M10,26v1h2v1H10v1h1v1h1v1h1V26H12V25H11V24H10v1H9v1Z"/><path class="eb277-2" d="M9,29h1V28h2V27H9V25H8v1H7v1H8v6H9V29Z"/><path class="eb277-3" d="M8,27H7v6H8V27Z"/><path class="eb277-2" d="M7,27H6v6H7V27Z"/><rect class="eb277-2" x="10" y="29" width="1" height="1"/><rect class="eb277-2" x="17" y="30" width="1" height="1"/><path class="eb277-2" d="M17,32V31H16V26H13v5H12v1h1v1h1V27h1v6h1V32Z"/><path class="eb277-6" d="M9,26v1h1V26Z"/><path class="eb277-6" d="M19,27h1V26H19Z"/><path class="eb277-2" d="M20,16h1V15H20Z"/><path class="eb277-2" d="M19,13v1h1V11H19v2Z"/><path class="eb277-5" d="M14,20V19H13v2h1v1h1V21h1V19H15v1Z"/><path class="eb277-5" d="M11,13V12h2v2h3V13h1V12h2V11H18V10H16v1H15V10H11v1H10v2Z"/><rect class="eb277-5" x="14" y="15" width="1" height="1"/><path class="eb277-5" d="M16,17V16H15v1H14V16H13v1H10v1h1v1h1V18h2v1h1V18h2v1h1V18h1V17H16Z"/><path class="eb277-2" d="M19,17h1V16H19Z"/><rect class="eb277-2" x="18" y="10" width="1" height="1"/><path class="eb277-2" d="M14,10V9H11v1h3Z"/><path class="eb277-2" d="M17,10h1V9H16v1Z"/><rect class="eb277-2" x="10" y="10" width="1" height="1"/><path class="eb277-2" d="M10,13V11H9v3h1Z"/><path class="eb277-2" d="M10,16H9v1h1Z"/><path class="eb277-2" d="M8,15v1H9V15Z"/><rect class="eb277-2" x="14" y="16" width="1" height="1"/><path class="eb277-7" d="M13,12H11v1h2Z"/><path class="eb277-7" d="M19,12H17v1h2Z"/><path class="eb277-8" d="M12,22v1h5V22h2V20h1V17H19v1H18v1H17V18H15v1h1v2H15v1H14V21H13V19h1V18H12v1H11V18H10V17H9v3h1v2h2Z"/><path class="eb277-9" d="M18,23h1V22H18Z"/><path class="eb277-8" d="M18,24h1V23H18Z"/><path class="eb277-9" d="M17,24V23H16v1Z"/><path class="eb277-8" d="M16,24v1h1V24Z"/><path class="eb277-9" d="M13,24V23H12v1Z"/><path class="eb277-8" d="M13,24H12v1h1Z"/><path class="eb277-9" d="M11,22H10v1h1Z"/><path class="eb277-8" d="M11,23H10v1h1Z"/><rect class="eb277-2" x="14" y="19" width="1" height="1"/><path class="eb277-10" d="M14,10h1v1h1V7H15V5H14V6H13V8H12V9h2Z"/><path class="eb277-11" d="M19,15v1h1V15h1V14H19Z"/><path class="eb277-11" d="M19,14V13H16v1h3Z"/><path class="eb277-12" d="M18,16h1V14H16v2Z"/><path class="eb277-11" d="M18,16H16v1h3V16Z"/><path class="eb277-11" d="M14,16V15h1v1h1V14H13v2Z"/><path class="eb277-11" d="M13,14V13H10v1h3Z"/><path class="eb277-12" d="M13,16V14H10v2h3Z"/><path class="eb277-11" d="M13,17V16H10v1h3Z"/><path class="eb277-11" d="M10,15V14H8v1H9v1h1Z"/></svg>