<svg xmlns="http://www.w3.org/2000/svg" viewBox="0 0 29 33"><defs><style>polygon,rect,path{shape-rendering:crispedges;}.na106-1{fill:#6b4f99;}.na106-2{fill:#000000;}.na106-3{fill:#508e5d;}.na106-4{fill:#4922aa;}.na106-5{fill:#b2622b;}.na106-6{fill:#ffffff;}.na106-7{fill:#8e4717;}.na106-8{fill:#8e4717;}.na106-9{fill:#cc3232;}</style></defs><path class="na106-1" d="M0,33H6V27H7V26H8V25h2V24h2V21H10V20H9V17H8V15H7V14H9V13H7V12H9V11H8V9H9v1h2V9H10V8H9V7h1V8h1V7h1V8h1V7h2V8h1V7h1V8h1V9h1V8h2V9H20v2h1V10h1v2H21v2h1v1H21v2H20v3H19v1H17v3h2v1h2v1h1v1h1v6h6V0H0Z"/><path class="na106-2" d="M23,27H22v6h1V27Z"/><rect class="na106-2" x="21" y="26" width="1" height="1"/><path class="na106-3" d="M22,27H21v6h1V27Z"/><path class="na106-2" d="M21,27H20v6h1V27Z"/><path class="na106-3" d="M20,27h1V26H19V25H18v8h2V27Z"/><path class="na106-2" d="M20,26h1V25H19v1Z"/><path class="na106-2" d="M18,25h1V24H17v1H16v1h1v7h1V25Z"/><path class="na106-4" d="M17,26H16v1H13V26H12v7h5V26Z"/><path class="na106-2" d="M13,26v1h3V26H13Z"/><path class="na106-2" d="M13,23h3v1h1V21H16v1H13V21H12v3h1Z"/><path class="na106-5" d="M13,25v1h3V25h1V24H16V23H13v1H12v1Z"/><path class="na106-2" d="M12,26h1V25H12V24H10v1h1v8h1V26Z"/><path class="na106-3" d="M11,25H10v1H8v1H9v6h2V25Z"/><path class="na106-2" d="M10,25H8v1h2Z"/><path class="na106-2" d="M9,27H8v6H9V27Z"/><rect class="na106-2" x="7" y="26" width="1" height="1"/><path class="na106-3" d="M8,27H7v6H8V27Z"/><path class="na106-2" d="M7,27H6v6H7V27Z"/><rect class="na106-2" x="19" y="13" width="1" height="1"/><rect class="na106-5" x="17" y="11" width="1" height="1"/><rect class="na106-5" x="16" y="12" width="1" height="1"/><path class="na106-5" d="M13,22h3V21h1V20h1V18h1V16h1V15H16V13H15V12H13v1H11v1h2v1H9v1h1v2h1v2h1v1h1Zm1-6h1v1H14Zm-2,3V18h1v1h3v1H13V19Z"/><rect class="na106-5" x="13" y="10" width="1" height="1"/><path class="na106-2" d="M19,16v1h1V16Z"/><path class="na106-2" d="M10,16H9v1h1Z"/><rect class="na106-2" x="14" y="16" width="1" height="1"/><path class="na106-6" d="M13,15V14H12v1Z"/><path class="na106-6" d="M10,15h1V14H10Z"/><path class="na106-6" d="M18,14v1h1V14Z"/><path class="na106-6" d="M16,14v1h1V14Z"/><path class="na106-2" d="M12,15V14H11v1Z"/><path class="na106-2" d="M17,14v1h1V14Z"/><rect class="na106-7" x="10" y="13" width="1" height="1"/><path class="na106-7" d="M12,13h1V12H12Z"/><path class="na106-7" d="M17,13H16v1h1Z"/><rect class="na106-7" x="17" y="12" width="1" height="1"/><path class="na106-8" d="M19,18H18v2H17v1h2V20h1V17H19Z"/><path class="na106-8" d="M11,20V18H10V17H9v3h1v1h2V20Z"/><rect class="na106-2" x="13" y="19" width="3" height="1"/><rect class="na106-2" x="12" y="18" width="1" height="1"/><path class="na106-9" d="M9,15h1V13h2V12h3v1h1V12h1V11h1v2H17v1h2V13h1v1H19v1h1v2h1V15h1V14H21V12h1V10H21v1H20V9h1V8H19V9H18V8H17V7H16V8H15V7H13V8H12V7H11V8H10V9h1v1H9V9H8v2H9v1H7v1H9v1H7v1H8v2H9V15Zm4-5h1v1H13Z"/><rect class="na106-9" x="9" y="7" width="1" height="1"/></svg>