<svg xmlns="http://www.w3.org/2000/svg" viewBox="0 0 29 33"><defs><style>polygon,rect,path{shape-rendering:crispedges;}.ja155-1{fill:#db5a8e;}.ja155-2{fill:#000000;}.ja155-3{fill:#685432;}.ja155-4{fill:#a89969;}.ja155-5{fill:#ce8452;}.ja155-6{fill:#ffffff;}.ja155-7{fill:#7f5018;}.ja155-8{fill:#7f5018;}.ja155-9{fill:#6e12ff;}.ja155-10{fill:#ccc;}</style></defs><rect class="ja155-1" x="16" y="8" width="1" height="1"/><path class="ja155-1" d="M0,33H6V27H7V26H8V25h2V24h2V21H11V20H10V19H9V17H7V13H8V10H9V9h1V8h1V7h7V8h1V9h1v1h1v3h1v4H20v2H19v1H18v1H17v3h2v1h2v1h1v1h1v6h6V0H0Z"/><rect class="ja155-1" x="9" y="10" width="1" height="1"/><rect class="ja155-1" x="12" y="8" width="1" height="1"/><path class="ja155-2" d="M23,27H22v6h1V27Z"/><rect class="ja155-2" x="21" y="26" width="1" height="1"/><path class="ja155-3" d="M21,31h1V30H21Z"/><path class="ja155-3" d="M21,28h1V27H21Z"/><path class="ja155-2" d="M21,30V27H20v6h1V30Z"/><path class="ja155-2" d="M20,26h1V25H19v1Z"/><path class="ja155-3" d="M9,27v1H20V27H9Z"/><path class="ja155-3" d="M9,31H20V30H9Z"/><path class="ja155-3" d="M17,25V24H12v1Z"/><path class="ja155-2" d="M18,25h1V24H17v1Z"/><path class="ja155-2" d="M13,23V22H12v2h1Z"/><path class="ja155-2" d="M12,24H10v1h2Z"/><path class="ja155-2" d="M10,25H8v1h2Z"/><path class="ja155-2" d="M9,30V27H8v6H9V30Z"/><rect class="ja155-2" x="7" y="26" width="1" height="1"/><path class="ja155-3" d="M8,28V27H7v1Z"/><path class="ja155-3" d="M7,31H8V30H7Z"/><path class="ja155-2" d="M7,30V27H6v6H7V30Z"/><path class="ja155-4" d="M9,31v2H20V31Z"/><path class="ja155-4" d="M9,29v1H20V28H9Z"/><path class="ja155-4" d="M9,27H21V26H19V25H10v1H8v1Z"/><path class="ja155-4" d="M15,23H13v1h3V23Z"/><path class="ja155-4" d="M7,29v1H8V28H7Z"/><path class="ja155-4" d="M7,31v2H8V31Z"/><path class="ja155-4" d="M21,31v2h1V31Z"/><path class="ja155-4" d="M21,29v1h1V28H21Z"/><path class="ja155-5" d="M19,15H16V14h2V13H16V12h2V11H17V10H16v1H11v1h1v1h1v2H10v3h1v1h1V18h2v1h1V18h2v1h1V18h1V15Zm-4,2H14V16h1Z"/><rect class="ja155-5" x="18" y="12" width="1" height="1"/><polygon class="ja155-5" points="11 14 12 14 12 13 10 13 10 14 11 14"/><rect class="ja155-5" x="15" y="20" width="1" height="1"/><rect class="ja155-5" x="13" y="20" width="1" height="1"/><path class="ja155-2" d="M19,16v1h1V16Z"/><path class="ja155-2" d="M16,23v1h1V22H16Z"/><path class="ja155-2" d="M10,16H9v1h1Z"/><rect class="ja155-2" x="14" y="16" width="1" height="1"/><path class="ja155-6" d="M18,14v1h1V14Z"/><path class="ja155-6" d="M12,15h1V14H12Z"/><path class="ja155-2" d="M17,14H16v1h2V14Z"/><path class="ja155-2" d="M11,14H10v1h2V14Z"/><rect class="ja155-7" x="18" y="13" width="1" height="1"/><rect class="ja155-7" x="16" y="12" width="2" height="1"/><path class="ja155-7" d="M13,14V13H12v1Z"/><path class="ja155-7" d="M12,12H10v1h2Z"/><path class="ja155-8" d="M15,18v1h1V18Z"/><path class="ja155-8" d="M13,23h3V22h1V21h1V20h1V19h1V17H19v1H18v1H16v2H15V20H14v1H13V19h1V18H12v1H11V18H10V17H9v2h1v1h1v1h1v1h1Z"/><path class="ja155-2" d="M14,19H13v1h3V19H14Z"/><path class="ja155-2" d="M16,18v1h1V18Z"/><path class="ja155-9" d="M10,11H9v2h1V12h1V11h5V10h1v1h1v1h1v1h1V10H19V9H18V8H17V9H16V8H13V9H12V8H11V9H10v2Z"/><path class="ja155-6" d="M9,15V10H8v3H7v3H8v1H9V15Z"/><path class="ja155-6" d="M10,9H9v1h1Z"/><rect class="ja155-6" x="10" y="8" width="1" height="1"/><path class="ja155-6" d="M13,8h5V7H11V8h2Z"/><rect class="ja155-6" x="18" y="8" width="1" height="1"/><rect class="ja155-6" x="19" y="9" width="1" height="1"/><path class="ja155-10" d="M10,14V13H9v3h1V14Z"/><path class="ja155-6" d="M20,13v4h1V16h1V13H21V10H20v3Z"/><path class="ja155-10" d="M19,15v1h1V13H19v2Z"/><path class="ja155-10" d="M7,16v1H8V16Z"/><path class="ja155-10" d="M21,17h1V16H21Z"/></svg>