<svg xmlns="http://www.w3.org/2000/svg" viewBox="0 0 29 33"><defs><style>polygon,rect,path{shape-rendering:crispedges;}.ca211-1{fill:#e55b35;}.ca211-2{fill:#000000;}.ca211-3{fill:#e8b795;}.ca211-4{fill:#ffed9f;}.ca211-5{fill:#d8be00;}.ca211-6{fill:#99582c;}.ca211-7{fill:#ffce00;}</style></defs><polygon class="ca211-1" points="14 17 14 17 15 17 15 16 15 16 15 17 14 17"/><path class="ca211-1" d="M0,33H6V27H7V26H8V25h2V24h2V21H11V20H10V19H9V16H8V15H9V14H9V10h1V9h1V8h7V9h1v1h1v2h1v6H20V16h0v3H19v1H18v1H17v3h2v1h2v1h1v1h1v6h6V0H0Z"/><rect class="ca211-1" x="13" y="21" height="1"/><path class="ca211-2" d="M23,27H22v6h1V27Z"/><rect class="ca211-2" x="21" y="26" width="1" height="1"/><path class="ca211-3" d="M22,27H21v6h1V27Z"/><rect class="ca211-3" x="20" y="26" width="1" height="1"/><path class="ca211-2" d="M21,27H20v6h1V27Z"/><path class="ca211-2" d="M20,26h1V25H19v1Z"/><path class="ca211-4" d="M14,31v1h1V30H14Z"/><rect class="ca211-4" x="10" y="30" width="1" height="1"/><rect class="ca211-4" x="10" y="32" width="1" height="1"/><rect class="ca211-4" x="18" y="30" width="1" height="1"/><path class="ca211-4" d="M17,30h1V29h1v1h1V26H19V25H18v1H17v1H16v1H13V27H12V26H11V25H10v1H9v4h1V29h1v1h1v3h1V29h2v1h1v2H15v1h2V30Z"/><rect class="ca211-4" x="18" y="32" width="1" height="1"/><path class="ca211-2" d="M18,26V25h1V24H17v2Z"/><rect class="ca211-2" x="16" y="26" width="1" height="1"/><path class="ca211-2" d="M13,27v1h3V27H13Z"/><path class="ca211-2" d="M13,23h3v1h1V21H16v1H13V21H12v3h1Z"/><path class="ca211-3" d="M13,26v1h3V26h1V24H16V23H13v1H12v2Z"/><rect class="ca211-2" x="12" y="26" width="1" height="1"/><path class="ca211-2" d="M11,26h1V24H10v1h1Z"/><path class="ca211-2" d="M10,26V25H8v1h2Z"/><path class="ca211-3" d="M9,27V26H8v1Z"/><path class="ca211-2" d="M9,30V27H8v6H9V30Z"/><rect class="ca211-2" x="7" y="26" width="1" height="1"/><path class="ca211-3" d="M8,27H7v6H8V27Z"/><path class="ca211-2" d="M7,27H6v6H7V27Z"/><path class="ca211-5" d="M20,30H19v1H18V30H17v3h1V32h1v1h1V30Z"/><rect class="ca211-5" x="18" y="29" width="1" height="1"/><path class="ca211-5" d="M16,32V30H15v2Z"/><path class="ca211-5" d="M14,32V30h1V29H13v4h2V32Z"/><path class="ca211-5" d="M12,30H11v1H10V30H9v3h1V32h1v1h1V30Z"/><rect class="ca211-5" x="10" y="29" width="1" height="1"/><rect class="ca211-3" x="18" y="20"/><rect class="ca211-3" x="11" y="10"/><rect class="ca211-3" x="9" y="16"/><rect class="ca211-3" x="17" y="21"/><rect class="ca211-3" x="19" y="19"/><path class="ca211-3" d="M10,12h2v1h4V12H15V11H13V10H11v1H10v3h1V13H10Z"/><rect class="ca211-3" x="11" y="20"/><rect class="ca211-3" x="10" y="19"/><rect class="ca211-3" x="12" y="21"/><path class="ca211-3" d="M19,15H18v1H16V15H15V14H14v1H13v1H11V15H9v1h1v3h1v1h1v1h1v1h3V21h1V20h1V19h1V16h1V15Zm-5,1h1v1H14Zm3,3H16v1H13V19h3V18h1Z"/><path class="ca211-2" d="M19,16v3h1V16H19Z"/><polygon class="ca211-2" points="18 19 18 20 18 20 19 20 19 19 19 19 18 19"/><polygon class="ca211-2" points="17 20 17 21 17 21 18 21 18 20 18 20 17 20"/><path class="ca211-2" d="M12,10h0Z"/><polygon class="ca211-2" points="12 20 11 20 11 20 11 21 12 21 12 21 12 20"/><polygon class="ca211-2" points="11 11 11 10 11 10 11 11 10 11 10 11 11 11"/><polygon class="ca211-2" points="11 19 10 19 10 19 10 20 11 20 11 20 11 19"/><path class="ca211-2" d="M10,18V16H9v3h1Z"/><polygon class="ca211-2" points="9 15 9 15 9 15 8 15 8 16 9 16 9 16 9 15"/><polygon class="ca211-2" points="15 17 15 16 15 16 14 16 14 17 14 17 15 17"/><rect class="ca211-6" x="16" y="12" height="1"/><polygon class="ca211-6" points="12 13 12 13 12 12 10 12 10 13 11 13 11 13 11 13 12 13"/><rect class="ca211-2" x="13" y="19" width="3" height="1"/><rect class="ca211-2" x="16" y="18" width="1" height="1"/><path class="ca211-7" d="M10,13V11h1V10h2v1h2v1h1v1h2v1h2v1h0v3h1V12H20V10H19V9H18V8H11V9H10v1H9v4h1Z"/><path class="ca211-2" d="M11,15h0v1h2V15h1V14h1v1h1v1h2V15h2V14H18V13H11v1H9v1h2Z"/><path class="ca211-3" d="M10,14h0Z"/><path class="ca211-2" d="M10,14h0Z"/><path class="ca211-3" d="M15,13h0Z"/><path class="ca211-2" d="M15,13h0Z"/><rect class="ca211-6" x="16" y="13"/><rect class="ca211-2" x="16" y="13"/><path class="ca211-6" d="M12,13h0Z"/><path class="ca211-2" d="M12,13h0Z"/><path class="ca211-7" d="M10,14h0Z"/><path class="ca211-2" d="M10,14h0Z"/><path class="ca211-7" d="M17,13h0Z"/><path class="ca211-2" d="M17,13h0Z"/><path class="ca211-7" d="M19,14h0Z"/><path class="ca211-2" d="M19,14h0Z"/></svg>