<svg xmlns="http://www.w3.org/2000/svg" viewBox="0 0 29 33"><defs><style>polygon,rect,path{shape-rendering:crispedges;}.pa43-1{fill:#29834f;}.pa43-2{fill:#000000;}.pa43-3{fill:#db5800;}.pa43-4{fill:#ce8452;}.pa43-5{fill:#db5800;}.pa43-6{fill:#ffffff;}.pa43-7{fill:#fad000;}.pa43-8{fill:#009b97;}.pa43-9{fill:#004a77;}</style></defs><path class="pa43-1" d="M6,32V27H7V26H8V25h2V24h1V23H10V22h1V20H10V19H9V16H8V15H9V11h1V10h1V9h7v1h1v1h1v4h1v1H20v3H19v1H18v2h1v1H18v1h1v1h2v1h1v1h1v6h6V0H0V33H6Z"/><path class="pa43-2" d="M23,27H22v6h1V27Z"/><path class="pa43-3" d="M22,27H21v6h1V27Z"/><rect class="pa43-2" x="21" y="26" width="1" height="1"/><path class="pa43-2" d="M21,27H20v6h1V27Z"/><path class="pa43-3" d="M9,27v2h1V28h1v1h1V27H11V26H8v1Z"/><path class="pa43-3" d="M19,32V31H18v1H17V30H16v1H15v1H13V30H12v2H11V31H10v1H9v1H20V32Z"/><rect class="pa43-3" x="18" y="29" width="1" height="1"/><rect class="pa43-3" x="10" y="29" width="1" height="1"/><path class="pa43-3" d="M18,26v1H17v2h1V28h1v1h1V27h1V26H18Z"/><rect class="pa43-2" x="18" y="22" width="1" height="1"/><rect class="pa43-3" x="17" y="22" width="1" height="1"/><path class="pa43-4" d="M16,24V23H13v1h3Z"/><rect class="pa43-3" x="11" y="22" width="1" height="1"/><rect class="pa43-2" x="10" y="22" width="1" height="1"/><path class="pa43-2" d="M11,26V24H10v1H8v1h3Z"/><path class="pa43-2" d="M9,31V27H8v6H9V31Z"/><path class="pa43-3" d="M8,27H7v6H8V27Z"/><rect class="pa43-2" x="7" y="26" width="1" height="1"/><path class="pa43-2" d="M7,27H6v6H7V27Z"/><rect class="pa43-3" x="13" y="25" width="1" height="1"/><rect class="pa43-3" x="15" y="25" width="1" height="1"/><path class="pa43-5" d="M19,30H18V29H17v3h1V31h1v1h1V29H19Z"/><rect class="pa43-5" x="18" y="28" width="1" height="1"/><rect class="pa43-5" x="15" y="30" width="1" height="1"/><path class="pa43-5" d="M14,30H13v2h2V31H14Z"/><path class="pa43-5" d="M11,29v1H10V29H9v3h1V31h1v1h1V29Z"/><rect class="pa43-5" x="10" y="28" width="1" height="1"/><path class="pa43-2" d="M17,28V27H16v1H15v2h2V28Z"/><rect class="pa43-2" x="20" y="15" width="1" height="1"/><rect class="pa43-4" x="16" y="13" width="1" height="1"/><rect class="pa43-4" x="9" y="15" width="1" height="1"/><path class="pa43-4" d="M13,20v2h3V20Z"/><path class="pa43-4" d="M12,19V18h5v2h1V19h1V16h1V15H15v2H14V15H13v1H11v1H10v2h1v1h1Z"/><path class="pa43-2" d="M19,17v2h1V16H19Z"/><rect class="pa43-2" x="18" y="19" width="1" height="1"/><rect class="pa43-2" x="10" y="19" width="1" height="1"/><path class="pa43-2" d="M10,16H9v3h1V16Z"/><rect class="pa43-2" x="8" y="15" width="1" height="1"/><path class="pa43-2" d="M14,17h1V16H14Z"/><path class="pa43-6" d="M18,14v1h1V14Z"/><path class="pa43-6" d="M16,14v1h1V14Z"/><path class="pa43-2" d="M17,14v1h1V14Z"/><rect class="pa43-2" x="14" y="30" width="1" height="1"/><path class="pa43-2" d="M14,29V28H13V27H12v3h2Z"/><rect class="pa43-2" x="17" y="26" width="1" height="1"/><rect class="pa43-2" x="11" y="26" width="1" height="1"/><rect class="pa43-2" x="13" y="26" width="1" height="1"/><rect class="pa43-2" x="15" y="26" width="1" height="1"/><path class="pa43-2" d="M12,25v1h1V25h1v1h1V25h1v1h1V24h1V23H17V22h1V20H17v1H16v1H13V21H12V20H11v2h1v1H11v1h1Zm1-2h3v1H13Z"/><rect class="pa43-7" x="16" y="26" width="1" height="1"/><path class="pa43-7" d="M13,27v1h1v2h1V28h1V27H15V26H14v1Z"/><rect class="pa43-7" x="12" y="26" width="1" height="1"/><path class="pa43-7" d="M12,26V24H11v2Z"/><path class="pa43-7" d="M17,25v1h1V24H17Z"/><path class="pa43-2" d="M19,26h2V25H19V24H18v2Z"/><path class="pa43-8" d="M13,18v1h3v2h1V18Z"/><path class="pa43-8" d="M13,19H12v2h1V19Z"/><path class="pa43-2" d="M16,20V19H13v1Z"/><path class="pa43-2" d="M13,18H12v1h1Z"/><path class="pa43-9" d="M10,16v1h1V16h2V15h1v1h1V15h1V13h1v1h2v1h1V11H19V10H18V9H11v1H10v1H9v4h1Z"/></svg>