<svg xmlns="http://www.w3.org/2000/svg" viewBox="0 0 29 33"><defs><style>polygon,rect,path{shape-rendering:crispedges;}.da247-1{fill:#31a09d;}.da247-2{fill:#000000;}.da247-3{fill:#9b8100;}.da247-4{fill:#e8b795;}.da247-5{fill:#9b8100;}.da247-6{fill:#99004d;}.da247-7{fill:#5a2de2;}.da247-8{fill:#db5800;}</style></defs><path class="da247-1" d="M0,33H6V24H7V23H8v1H9v1h1V24h2V22H11V21H10V20H9V16H8V15H9V11h1V10h1V9h1V8h1V6h1V5h1V7h1V9h2v1h1v1h1v4h1v1H20v4H19v1H18v1H17v2h2v1h2v1h1v1h1v6h6V0H0Z"/><path class="da247-2" d="M23,27H22v2H21V27H20v6h1V30h1v3h1V27Z"/><rect class="da247-2" x="21" y="26" width="1" height="1"/><path class="da247-2" d="M20,26h1V25H19v1Z"/><path class="da247-2" d="M18,25h1V24H17v1Z"/><path class="da247-2" d="M16,24h1V23H16Z"/><path class="da247-2" d="M13,23H12v1h1Z"/><path class="da247-2" d="M12,24H10v1h2Z"/><path class="da247-2" d="M9,27H8v6H9V27Z"/><path class="da247-2" d="M7,24H6v9H7V24Z"/><rect class="da247-3" x="12" y="30" width="1" height="1"/><path class="da247-3" d="M20,27h1V26H19V25H17v1H16v1H13V26H12V25H10v2H9v6h1V30h1V29h1V28h5v1h1v1h1v3h1V27Z"/><rect class="da247-3" x="16" y="30" width="1" height="1"/><path class="da247-3" d="M16,32H12v1h5V32Z"/><path class="da247-3" d="M21,28v1h1V27H21Z"/><path class="da247-4" d="M8,27H9V25H8V24H7v9H8V27Z"/><path class="da247-4" d="M13,25v1h3V25h1V24H16V23H13v1H12v1Z"/><path class="da247-2" d="M13,26v1h3V26H13Z"/><path class="da247-4" d="M22,30H21v3h1V30Z"/><rect class="da247-2" x="12" y="25" width="1" height="1"/><rect class="da247-2" x="16" y="25" width="1" height="1"/><path class="da247-5" d="M19,30H18V29H17V28H12v1H11v1H10v3h2V32h5v1h2V30Zm-6,1H12V30h1Zm4,0H16V30h1Z"/><rect class="da247-2" x="20" y="15" width="1" height="1"/><path class="da247-2" d="M15,13v1h4v1h1V11H19v2Z"/><path class="da247-4" d="M16,16V15H13v1H10v1h1v1h5v1h1V18h1V17h1V16H16Zm-1,1H14V16h1Z"/><rect class="da247-4" x="9" y="15" width="1" height="1"/><rect class="da247-4" x="19" y="15" width="1" height="1"/><path class="da247-4" d="M14,13v1h1V13h4V11H18V10H16v1H15V10H11v1H10v2Z"/><rect class="da247-2" x="18" y="10" width="1" height="1"/><path class="da247-2" d="M17,10h1V9H16v1Z"/><path class="da247-2" d="M14,10V9H11v1h3Z"/><rect class="da247-2" x="10" y="10" width="1" height="1"/><rect class="da247-2" x="8" y="15" width="1" height="1"/><rect class="da247-2" x="14" y="16" width="1" height="1"/><path class="da247-6" d="M15,18H13v1h3V18Z"/><path class="da247-6" d="M14,23h3V22h1V21h1V20h1V16H19v1H18v1H17v1H16v1H13V19H12V18H11V17H10V16H9v4h1v1h1v1h1v1h2Z"/><rect class="da247-2" x="13" y="19" width="3" height="1"/><path class="da247-2" d="M12,18v1h1V18Z"/><path class="da247-2" d="M10,27V25H9v2Z"/><rect class="da247-2" x="8" y="24" width="1" height="1"/><rect class="da247-2" x="7" y="23" width="1" height="1"/><path class="da247-7" d="M14,10h1v1h1V7H15V5H14V6H13V8H12V9h2Z"/><path class="da247-8" d="M13,16V15h1V14H10v2h3Z"/><path class="da247-8" d="M19,14H15v1h1v1h3V14Z"/><path class="da247-2" d="M10,14h4V13H10V11H9v4h1Z"/><path class="da247-2" d="M15,15V14H14v1Z"/></svg>