<svg xmlns="http://www.w3.org/2000/svg" viewBox="0 0 29 33"><defs><style>polygon,rect,path{shape-rendering:crispedges;}.sa24-1{fill:#6b4f99;}.sa24-2{fill:#000000;}.sa24-3{fill:#184226;}.sa24-4{fill:#e8b795;}.sa24-5{fill:#184226;}.sa24-6{fill:#893a1f;}.sa24-7{fill:#ffffff;}.sa24-8{fill:#893a1f;}.sa24-9{fill:#c8a715;}.sa24-10{fill:#fad000;}</style></defs><path class="sa24-1" d="M6,27H7V26H8V25h2V22H9V21H8V20H7V11H8V10H9V9h1V8h1V7h7V8h1V9h1v1h1v1h1v3h1V9H22V8h1V7H22V6H21V5H20V3H19V0H0V33H6V27Z"/><path class="sa24-1" d="M21,21H20v1H19v3h2V21Z"/><path class="sa24-2" d="M23,29v2h1V22H23v7Z"/><path class="sa24-2" d="M7,27H6v6H7V27Z"/><path class="sa24-3" d="M8,27H7v6H8V27Z"/><rect class="sa24-2" x="7" y="26" width="1" height="1"/><path class="sa24-2" d="M9,31V27H8v6H9V31Z"/><rect class="sa24-3" x="10" y="29" width="1" height="1"/><path class="sa24-3" d="M10,28h1v1h1V24H11v1H10v1H8v1H9v2h1Z"/><path class="sa24-3" d="M18,24H17v5h1V28h1v1h1V27h1V26H19V25H18Z"/><rect class="sa24-3" x="18" y="29" width="1" height="1"/><path class="sa24-3" d="M19,32V31H18v1H17V30H16v1H15v1H13V30H12v2H11V31H10v1H9v1H20V32Z"/><path class="sa24-2" d="M10,25H8v1h2Z"/><path class="sa24-2" d="M11,24H10v1h1Z"/><rect class="sa24-2" x="11" y="23" width="1" height="1"/><path class="sa24-2" d="M15,24H13v1h3V24Z"/><path class="sa24-4" d="M14,24h2V23H13v1Z"/><rect class="sa24-2" x="17" y="23" width="1" height="1"/><path class="sa24-2" d="M18,24v1h1V24Z"/><path class="sa24-2" d="M22,32h1V31H22V23H21v2H19v1h2v1H20v6h1V32Z"/><path class="sa24-3" d="M23,24H22v7h1V24Z"/><path class="sa24-3" d="M14,29v2h1V29Z"/><path class="sa24-3" d="M13,25v3h2v1h1V25H13Z"/><path class="sa24-5" d="M19,30H18V29H17v3h1V31h1v1h1V29H19Z"/><rect class="sa24-5" x="18" y="28" width="1" height="1"/><path class="sa24-5" d="M15,29v2h1V29Z"/><path class="sa24-5" d="M14,30V29h1V28H13v4h2V31H14Z"/><path class="sa24-5" d="M11,29v1H10V29H9v3h1V31h1v1h1V29Z"/><rect class="sa24-5" x="10" y="28" width="1" height="1"/><path class="sa24-2" d="M13,25H12v5h1V25Z"/><path class="sa24-2" d="M17,28V25H16v5h1V28Z"/><polygon class="sa24-4" points="13 21 14 21 14 22 15 22 15 21 16 21 16 20 13 20 13 21"/><rect class="sa24-6" x="17" y="14" width="1" height="1"/><rect class="sa24-6" x="16" y="13" width="1" height="1"/><rect class="sa24-2" x="14" y="14" width="1" height="1"/><path class="sa24-7" d="M16,14V13H13v1H12v1h1v1h3V15h1V14Zm-1,1H14V14h1Z"/><path class="sa24-6" d="M16,13V12H13v1h3Z"/><rect class="sa24-6" x="12" y="13" width="1" height="1"/><rect class="sa24-6" x="11" y="14" width="1" height="1"/><path class="sa24-2" d="M14,17h1V16H14Z"/><path class="sa24-4" d="M19,12H17V11H12v1H10v6h1v1h1V18h2v1h1V18h2v1h1V18h1V12Zm-1,3H16v1H15v1H14V16H13V15H11V14h1V13h1V12h3v1h1v1h1Z"/><rect class="sa24-3" x="19" y="20" width="1" height="1"/><rect class="sa24-3" x="9" y="20" width="1" height="1"/><path class="sa24-3" d="M9,19V12h1V11h2V10h5v1h2v1h1v8h1V11H20V10H19V9H18V8H11V9H10v1H9v1H8v9H9Z"/><rect class="sa24-3" x="11" y="22" width="1" height="1"/><rect class="sa24-3" x="17" y="22" width="1" height="1"/><rect class="sa24-2" x="10" y="8" width="1" height="1"/><rect class="sa24-2" x="9" y="9" width="1" height="1"/><rect class="sa24-2" x="8" y="10" width="1" height="1"/><path class="sa24-2" d="M8,11H7v9H8V11Z"/><rect class="sa24-2" x="8" y="20" width="1" height="1"/><rect class="sa24-2" x="9" y="21" width="1" height="1"/><rect class="sa24-2" x="19" y="21" width="1" height="1"/><rect class="sa24-2" x="20" y="20" width="1" height="1"/><path class="sa24-2" d="M22,15V11H21v9h1V15Z"/><rect class="sa24-2" x="20" y="10" width="1" height="1"/><rect class="sa24-2" x="19" y="9" width="1" height="1"/><rect class="sa24-2" x="18" y="8" width="1" height="1"/><path class="sa24-2" d="M18,8V7H11V8h7Z"/><path class="sa24-2" d="M12,11H10v1h2Z"/><path class="sa24-2" d="M10,12H9v5h1V12Z"/><path class="sa24-2" d="M20,12H19v5h1V12Z"/><path class="sa24-2" d="M18,12h1V11H17v1Z"/><path class="sa24-2" d="M17,11V10H12v1h5Z"/><path class="sa24-1" d="M28,3H27V5H26V6H25V7H24V8h1V9H24v5H23v6H22v1h1v1h1v9H23v1H21v1h8V0H28Z"/><path class="sa24-8" d="M14,18H13v1h1Z"/><path class="sa24-8" d="M12,22v1h5V22h2V20h1V17H19v1H18v1H17V18H15v1h1v2H15v1H14V21H13V19H11V18H10V17H9v3h1v2h2Z"/><path class="sa24-9" d="M18,23h1V22H18Z"/><path class="sa24-8" d="M18,24h1V23H18Z"/><path class="sa24-9" d="M16,23v1h1V23Z"/><path class="sa24-8" d="M16,25h1V24H16Z"/><path class="sa24-9" d="M13,23H12v1h1Z"/><path class="sa24-8" d="M12,24v1h1V24Z"/><path class="sa24-9" d="M11,22H10v1h1Z"/><path class="sa24-8" d="M11,23H10v1h1Z"/><path class="sa24-2" d="M13,19v1h3V19H13Z"/><path class="sa24-2" d="M12,18v1h1V18Z"/><path class="sa24-7" d="M23,9v5h1V8H23Z"/><path class="sa24-7" d="M22,15v5h1V14H22Z"/><path class="sa24-7" d="M21,21v1h1V20H21Z"/><rect class="sa24-10" x="22" y="8" width="1" height="1"/><path class="sa24-10" d="M25,9V8H24V9Z"/><path class="sa24-10" d="M20,3V5h1V6h1V7h1V8h1V7h1V6h1V5h1V3h1V0H19V3Z"/><path class="sa24-4" d="M21,22v1h1v1h1V22H21Z"/><path class="sa24-2" d="M23,22V21H22v1Z"/></svg>