<svg xmlns="http://www.w3.org/2000/svg" viewBox="0 0 29 33"><defs><style>polygon,rect,path{shape-rendering:crispedges;}.hb262-1{fill:#31a09d;}.hb262-2{fill:#000000;}.hb262-3{fill:#ce8452;}.hb262-4{fill:#4922aa;}.hb262-5{fill:#4922aa;}.hb262-6{fill:#825fff;}.hb262-7{fill:#ffffff;}</style></defs><path class="hb262-1" d="M0,33H6V27H7V26H8V25h2V24h2V21H11V20H10V19H9V16H8V14H9V10h1V9h1V8h7V9h1v1h1v4h1v2H20v3H19v1H18v1H17v3h2v1h2v1h1v1h1v6h6V0H0Z"/><path class="hb262-2" d="M23,27H22v6h1V27Z"/><path class="hb262-3" d="M22,27H21v6h1V27Z"/><rect class="hb262-2" x="21" y="26" width="1" height="1"/><path class="hb262-2" d="M21,27H20v6h1V27Z"/><path class="hb262-3" d="M20,27h1V26H19V25H17V24H16V23H13v1H12v1H10v1H8v1H9v6h5V29h1v4h5V27Zm-8,2H11V28h1Zm6,0H17V28h1Z"/><path class="hb262-2" d="M20,26h1V25H19v1Z"/><rect class="hb262-2" x="17" y="28" width="1" height="1"/><path class="hb262-2" d="M18,25h1V24H17v1Z"/><path class="hb262-2" d="M15,29H14v4h1V29Z"/><path class="hb262-2" d="M13,23h3v1h1V21H16v1H13V21H12v3h1Z"/><rect class="hb262-2" x="11" y="28" width="1" height="1"/><path class="hb262-2" d="M12,24H10v1h2Z"/><path class="hb262-2" d="M10,25H8v1h2Z"/><path class="hb262-2" d="M9,27H8v6H9V27Z"/><path class="hb262-3" d="M8,27H7v6H8V27Z"/><rect class="hb262-2" x="7" y="26" width="1" height="1"/><path class="hb262-2" d="M7,27H6v6H7V27Z"/><path class="hb262-2" d="M20,16h1V15H20Z"/><rect class="hb262-3" x="13" y="20" width="1" height="1"/><rect class="hb262-3" x="15" y="20" width="1" height="1"/><rect class="hb262-3" x="12" y="19" width="1" height="1"/><path class="hb262-3" d="M12,19V18h5v1h2V17H16V16H15v1H14V16H13v1H10v2h2Z"/><rect class="hb262-3" x="16" y="19" width="1" height="1"/><path class="hb262-3" d="M12,13h1v1h2V12H14V11H13V10H11v1H10v1h2Z"/><rect class="hb262-3" x="14" y="15" width="1" height="1"/><path class="hb262-2" d="M19,17v2h1V16H19Z"/><path class="hb262-2" d="M18,20h1V19H18Z"/><rect class="hb262-2" x="17" y="20" width="1" height="1"/><rect class="hb262-2" x="11" y="20" width="1" height="1"/><path class="hb262-2" d="M10,19v1h1V19Z"/><path class="hb262-2" d="M10,16H9v3h1V16Z"/><path class="hb262-2" d="M8,15v1H9V15Z"/><rect class="hb262-2" x="14" y="16" width="1" height="1"/><path class="hb262-4" d="M12,12H10v1h2Z"/><path class="hb262-5" d="M17,19v1h1V19Z"/><rect class="hb262-5" x="16" y="20" width="1" height="1"/><path class="hb262-5" d="M15,20H14v1H13v1h3V21H15Z"/><path class="hb262-5" d="M14,19h2V18H12v1h2Z"/><rect class="hb262-5" x="12" y="20" width="1" height="1"/><path class="hb262-5" d="M12,19H11v1h1Z"/><path class="hb262-2" d="M15,20h1V19H13v1h2Z"/><path class="hb262-2" d="M17,19V18H16v1Z"/><path class="hb262-6" d="M10,13V11h1V10h2v1h1v1h1v2h1V13h3v1h1V10H19V9H18V8H11V9H10v1H9v4h1Z"/><path class="hb262-7" d="M19,15v1h1V15h1V14H19Z"/><path class="hb262-7" d="M19,14V13H16v1h3Z"/><path class="hb262-2" d="M19,16V14H16v2h3Z"/><path class="hb262-7" d="M18,16H16v1h3V16Z"/><path class="hb262-7" d="M15,14H13v2h1V15h1v1h1V14Z"/><path class="hb262-7" d="M13,14V13H10v1h3Z"/><path class="hb262-2" d="M12,14H10v2h3V14Z"/><path class="hb262-7" d="M10,16v1h3V16H10Z"/><path class="hb262-7" d="M10,15V14H8v1H9v1h1Z"/></svg>