<svg xmlns="http://www.w3.org/2000/svg" viewBox="0 0 29 33"><defs><style>polygon,rect,path{shape-rendering:crispedges;}.da119-1{fill:#7a982c;}.da119-2{fill:#000000;}.da119-3{fill:#e8b795;}.da119-4{fill:#844f4f;}.da119-5{fill:#d8c5c5;}.da119-6{fill:#ffffff;}.da119-7{fill:#8e4717;}.da119-8{fill:#8e4717;}.da119-9{fill:#e70059;}.da119-10{fill:#ff791f;}.da119-11{fill:#455054;}.da119-12{fill:#ff1f4a;}.da119-13{fill:#002b4f;}</style></defs><path class="da119-1" d="M11,24h1V21H11V20H9V18H8v4H9v2H8v1h2V24Z"/><path class="da119-1" d="M8,32H6V31H5V22H6V21H7V20H5v1H2V17H5V16H8V13H9V11h1V10h1V9h7v1h1v1h1v1h1v6H20v2H18v1H17v3h2v1h2v1h1v1h1v6h6V0H0V33H8Z"/><rect class="da119-2" x="21" y="26" width="1" height="1"/><path class="da119-2" d="M23,27H22v3H21V27H20v6h1V31h1v2h1V27Z"/><path class="da119-2" d="M20,26h1V25H19v1Z"/><path class="da119-2" d="M18,25h1V24H17v1Z"/><path class="da119-2" d="M11,24H10v1h2V24Z"/><path class="da119-2" d="M9,31V27H8V26h2V25H8V24H7v7H6v1H8v1H9V31Z"/><path class="da119-2" d="M6,22H5v9H6V22Z"/><path class="da119-3" d="M7,30V24H8V22H6v9H7Z"/><path class="da119-4" d="M15,29H14v2h1V29Z"/><rect class="da119-4" x="18" y="29" width="1" height="1"/><rect class="da119-4" x="10" y="29" width="1" height="1"/><path class="da119-4" d="M19,32V31H18v1H17V29h1V28h1v1h1V27h1V26H19V25H17v1H16v1H13V26H12V25H10v1H8v1H9v2h1V28h1v1h1v3H11V31H10v1H9v1H20V32Zm-3-2v1H15v1H13V28h2v1h1Z"/><path class="da119-2" d="M13,26v1h3V26H13Z"/><path class="da119-3" d="M16,23H13v1H12v1h1v1h3V25h1V24H16Z"/><path class="da119-4" d="M21,28v2h1V27H21Z"/><path class="da119-3" d="M21,31v2h1V31Z"/><rect class="da119-2" x="12" y="25" width="1" height="1"/><rect class="da119-2" x="16" y="25" width="1" height="1"/><path class="da119-5" d="M19,30H18V29H17v3h1V31h1v1h1V29H19Z"/><rect class="da119-5" x="18" y="28" width="1" height="1"/><path class="da119-5" d="M15,30v1h1V29H15Z"/><path class="da119-5" d="M14,30V29h1V28H13v4h2V31H14Z"/><path class="da119-5" d="M9,32h1V31h1v1h1V29H11v1H10V29H9v3Z"/><rect class="da119-5" x="10" y="28" width="1" height="1"/><rect class="da119-2" x="19" y="14" width="1" height="1"/><rect class="da119-3" x="16" y="19" width="1" height="1"/><rect class="da119-3" x="11" y="13" width="1" height="1"/><rect class="da119-3" x="9" y="15" width="1" height="1"/><rect class="da119-3" x="17" y="11" width="1" height="1"/><rect class="da119-3" x="12" y="12" width="1" height="1"/><rect class="da119-3" x="17" y="13" width="1" height="1"/><rect class="da119-3" x="12" y="19" width="1" height="1"/><rect class="da119-3" x="15" y="20" width="1" height="1"/><path class="da119-3" d="M11,19h1V18h5v1h2V18H18V15H16v1H15v1H14V16h1V14h1V12H15V11H14v4H13v2H12V15H11v3H10v1Z"/><rect class="da119-3" x="13" y="20" width="1" height="1"/><rect class="da119-3" x="19" y="15" width="1" height="1"/><path class="da119-2" d="M19,16v2h1V16Z"/><path class="da119-2" d="M18,19v1h1V19Z"/><rect class="da119-2" x="17" y="20" width="1" height="1"/><path class="da119-2" d="M16,22H13V21H12v3h1V23h3v1h1V21H16Z"/><rect class="da119-2" x="11" y="20" width="1" height="1"/><path class="da119-2" d="M10,19v1h1V19Z"/><path class="da119-2" d="M10,17V16H9v2h1Z"/><rect class="da119-2" x="14" y="16" width="1" height="1"/><rect class="da119-6" x="12" y="14" width="1" height="1"/><path class="da119-6" d="M17,15V14H16v1Z"/><rect class="da119-2" x="11" y="14" width="1" height="1"/><path class="da119-2" d="M18,15V14H17v1Z"/><rect class="da119-7" x="17" y="12" width="1" height="1"/><rect class="da119-7" x="12" y="13" width="1" height="1"/><rect class="da119-7" x="11" y="12" width="1" height="1"/><path class="da119-8" d="M17,19v1h1V19Z"/><rect class="da119-8" x="16" y="20" width="1" height="1"/><path class="da119-8" d="M15,20H14v1H13v1h3V21H15Z"/><rect class="da119-8" x="12" y="20" width="1" height="1"/><rect class="da119-8" x="11" y="19" width="1" height="1"/><path class="da119-2" d="M13,18H12v1h1Z"/><path class="da119-2" d="M16,18v1h1V18Z"/><rect class="da119-2" x="15" y="19" width="1" height="1"/><path class="da119-2" d="M15,19V18H14v1Z"/><rect class="da119-2" x="13" y="19" width="1" height="1"/><path class="da119-6" d="M14,19V18H13v1Z"/><path class="da119-6" d="M16,19V18H15v1Z"/><rect class="da119-9" x="14" y="19" width="1" height="1"/><path class="da119-10" d="M8,18H9V15h1v3h1V12h2v3h1V11h1v1h1v2h1V11h1v7h1V14h1v4h1V12H20V11H19V10H18V9H11v1H10v1H9v2H8v5Z"/><path class="da119-10" d="M19,19v1h1V18H19Z"/><path class="da119-10" d="M15,15v1h1V14H15Z"/><path class="da119-10" d="M12,16v1h1V15H12Z"/><path class="da119-10" d="M10,20V18H9v2Z"/><path class="da119-11" d="M8,22V20H7v2Z"/><path class="da119-2" d="M7,21H6v1H7Z"/><path class="da119-2" d="M9,22H8v2H9Z"/><path class="da119-12" d="M5,17H2v1H5Z"/><path class="da119-12" d="M2,21H5V20H2Z"/><path class="da119-12" d="M5,19v1H6V19Z"/><path class="da119-12" d="M8,19H7v1H8Z"/><path class="da119-13" d="M7,18H8V17H7V16H6v1H5v1H6v2H7V18Z"/><path class="da119-13" d="M5,19V18H2v1H5Z"/><path class="da119-12" d="M6,16H5v1H6Z"/><path class="da119-6" d="M6,19V18H5v1Z"/><path class="da119-6" d="M4,19H2v1H5V19Z"/><path class="da119-6" d="M7,18v1H8V18Z"/><path class="da119-6" d="M8,17V16H7v1Z"/></svg>