<svg xmlns="http://www.w3.org/2000/svg" viewBox="0 0 29 33"><defs><style>polygon,rect,path{shape-rendering:crispedges;}.ia154-1{fill:#db5a8e;}.ia154-2{fill:#000000;}.ia154-3{fill:#326b43;}.ia154-4{fill:#e8b795;}.ia154-5{fill:#ffffff;}.ia154-6{fill:#ffffff;}.ia154-7{fill:#000000;}.ia154-8{fill:#99004d;}</style></defs><path class="ia154-1" d="M0,33H6V27H7V26H8V25h2V24h2V22H11V21H10v1H9V21H8V20H7V19H8V12H9V10h1V9h1V8h7V9h1v1h1v2h1v7h1v1H21v1H20v1H19V21H18v1H17v2h2v1h2v1h1v1h1v6h6V0H0Z"/><path class="ia154-2" d="M23,27H22v6h1V27Z"/><rect class="ia154-2" x="21" y="26" width="1" height="1"/><path class="ia154-3" d="M22,27H21v6h1V27Z"/><path class="ia154-2" d="M21,27H20v6h1V27Z"/><path class="ia154-2" d="M20,26h1V25H19v1Z"/><path class="ia154-3" d="M19,32V31H18v1H17V29h1V28h1v1h1V27h1V26H19V25H17v1H16v1H13V26H12V25H10v1H9v3h1V28h1v1h1v3H11V31H10v1H9v1H20V32Zm-3-2v1H15v1H13V28h2v1h1Z"/><path class="ia154-3" d="M15,29H14v2h1V29Z"/><rect class="ia154-3" x="10" y="29" width="1" height="1"/><rect class="ia154-3" x="18" y="29" width="1" height="1"/><path class="ia154-2" d="M18,25h1V24H17v1Z"/><rect class="ia154-2" x="16" y="25" width="1" height="1"/><path class="ia154-2" d="M13,26v1h3V26H13Z"/><path class="ia154-2" d="M13,23h3v1h1V21H16v1H13V21H12v3h1Z"/><path class="ia154-4" d="M13,25v1h3V25h1V24H16V23H13v1H12v1Z"/><rect class="ia154-2" x="12" y="25" width="1" height="1"/><path class="ia154-2" d="M12,24H10v1h2Z"/><path class="ia154-2" d="M9,31V26h1V25H8v1H7v1H8v6H9V31Z"/><path class="ia154-3" d="M8,27H7v6H8V27Z"/><path class="ia154-2" d="M7,27H6v6H7V27Z"/><path class="ia154-5" d="M19,30H18V29H17v3h1V31h1v1h1V29H19Z"/><rect class="ia154-5" x="18" y="28" width="1" height="1"/><path class="ia154-5" d="M15,30v1h1V29H15Z"/><path class="ia154-5" d="M14,30V29h1V28H13v4h2V31H14Z"/><path class="ia154-5" d="M9,32h1V31h1v1h1V29H11v1H10V29H9v3Z"/><rect class="ia154-5" x="10" y="28" width="1" height="1"/><path class="ia154-2" d="M20,16h1V15H20Z"/><rect class="ia154-2" x="19" y="14" width="1" height="1"/><rect class="ia154-4" x="11" y="13" width="1" height="1"/><path class="ia154-4" d="M18,20V19h1V16h1V15H16V14h2V13H16V12h1V11H16V10H13v1H12v2h1v2H9v1h1v3h1v1h1v1h1v1h3V21h1V20Zm-4-4h1v1H14Zm2,3v1H13V19h3V18h1v1Z"/><path class="ia154-2" d="M19,17v2h1V16H19Z"/><rect class="ia154-2" x="18" y="19" width="1" height="1"/><rect class="ia154-2" x="17" y="20" width="1" height="1"/><rect class="ia154-2" x="11" y="20" width="1" height="1"/><rect class="ia154-2" x="10" y="19" width="1" height="1"/><path class="ia154-2" d="M10,14H9v1h1Z"/><path class="ia154-2" d="M10,16H9v3h1V16Z"/><path class="ia154-2" d="M9,15H8v1H9Z"/><rect class="ia154-2" x="14" y="16" width="1" height="1"/><path class="ia154-6" d="M12,15h1V14H12Z"/><path class="ia154-6" d="M11,15V14H10v1Z"/><path class="ia154-6" d="M19,15V14H18v1Z"/><path class="ia154-6" d="M16,14v1h1V14Z"/><path class="ia154-2" d="M12,15V14H11v1Z"/><path class="ia154-2" d="M17,15h1V14H17Z"/><path class="ia154-7" d="M16,13h2V12H16Z"/><path class="ia154-7" d="M13,14V13H12v1Z"/><path class="ia154-7" d="M12,12H11v1h1Z"/><rect class="ia154-2" x="13" y="19" width="3" height="1"/><rect class="ia154-2" x="16" y="18" width="1" height="1"/><path class="ia154-8" d="M20,17v2H19v1H18v1h1v1h1V21h1V20h1V19H21V16H20Z"/><path class="ia154-8" d="M9,14h2V12h1V11h1V10h3v1h1v1h1v2h2v1h1V12H20V10H19V9H18V8H11V9H10v1H9v2H8v3H9Z"/><path class="ia154-8" d="M10,20V19H9V16H8v3H7v1H8v1H9v1h1V21h1V20Z"/><path class="ia154-8" d="M11,21v1h1V21Z"/><path class="ia154-8" d="M17,22h1V21H17Z"/></svg>