<svg xmlns="http://www.w3.org/2000/svg" viewBox="0 0 29 33"><defs><style>polygon,rect,path{shape-rendering:crispedges;}.qa54-1{fill:#db5a8e;}.qa54-2{fill:#000000;}.qa54-3{fill:#3f2f17;}.qa54-4{fill:#6d3e35;}.qa54-5{fill:#af8423;}.qa54-6{fill:#af8423;}.qa54-7{fill:#a0688d;}.qa54-8{fill:#68aaad;}</style></defs><path class="qa54-1" d="M0,33H6V27H7V26H8V25h2V24h1V23H10V22h1V20H10V19H9V16H8V15H9V13H8V9H9V8h1V7h1V6h7V7h1V8h1V9h1v4H20v2h1v1H20v3H19v1H18v2h1v1H18v1h1v1h2v1h1v1h1v6h6V0H0Z"/><path class="qa54-2" d="M23,27H22v6h1V27Z"/><path class="qa54-3" d="M22,27H21v6h1V27Z"/><rect class="qa54-2" x="21" y="26" width="1" height="1"/><path class="qa54-2" d="M21,27H20v6h1V27Z"/><path class="qa54-3" d="M20,27h1V26H19V25H18V24H16v1h1v5H16V25H13v5H12V25h1V24H11v1H10v1H8v1H9v6H20V27Z"/><path class="qa54-2" d="M20,26h1V25H19v1Z"/><rect class="qa54-2" x="18" y="24" width="1" height="1"/><rect class="qa54-2" x="18" y="22" width="1" height="1"/><rect class="qa54-3" x="17" y="22" width="1" height="1"/><path class="qa54-2" d="M13,24v1h3V24H13Z"/><path class="qa54-4" d="M15,23H13v1h3V23Z"/><path class="qa54-2" d="M13,23h3v1h2V23H17V22h1V20H17v1H16v1H13V21H12V20H11v2h1v1H11v1h2Z"/><rect class="qa54-3" x="11" y="22" width="1" height="1"/><rect class="qa54-2" x="10" y="24" width="1" height="1"/><rect class="qa54-2" x="10" y="22" width="1" height="1"/><path class="qa54-2" d="M10,25H8v1h2Z"/><path class="qa54-2" d="M9,27H8v6H9V27Z"/><path class="qa54-3" d="M8,27H7v6H8V27Z"/><rect class="qa54-2" x="7" y="26" width="1" height="1"/><path class="qa54-2" d="M7,27H6v6H7V27Z"/><path class="qa54-2" d="M12,26v4h1V25H12Z"/><path class="qa54-2" d="M16,30h1V25H16v5Z"/><rect class="qa54-2" x="20" y="15" width="1" height="1"/><rect class="qa54-4" x="18" y="12" width="1" height="1"/><rect class="qa54-4" x="9" y="15" width="1" height="1"/><rect class="qa54-4" x="10" y="12" width="1" height="1"/><path class="qa54-4" d="M13,13h1v1h1V13h1V12h2V11H11v1h2Z"/><path class="qa54-4" d="M12,19V18h5v2h1V19h1V16H16V15H13v1H10v3h1v1h1Zm2-3h1v1H14Z"/><rect class="qa54-4" x="19" y="15" width="1" height="1"/><path class="qa54-4" d="M13,20v2h3V20Z"/><path class="qa54-2" d="M19,17v2h1V16H19Z"/><rect class="qa54-2" x="18" y="19" width="1" height="1"/><rect class="qa54-2" x="10" y="19" width="1" height="1"/><path class="qa54-2" d="M10,16H9v3h1V16Z"/><rect class="qa54-2" x="8" y="15" width="1" height="1"/><rect class="qa54-2" x="14" y="16" width="1" height="1"/><path class="qa54-5" d="M16,13h2V12H16Z"/><polygon class="qa54-5" points="12 13 13 13 13 12 11 12 11 13 12 13"/><path class="qa54-6" d="M13,19h3V18H12v3h1V19Z"/><path class="qa54-6" d="M16,19v2h1V19Z"/><path class="qa54-2" d="M13,20h3V19H13Z"/><path class="qa54-2" d="M17,19V18H16v1Z"/><path class="qa54-7" d="M10,13V12h1V11h7v1h1v2h1V13h1V9H20V8H19V7H18V6H11V7H10V8H9V9H8v4H9v1h1Z"/><path class="qa54-8" d="M13,14H10v2h3V15h1V14Z"/><path class="qa54-8" d="M19,14H15v1h1v1h3V14Z"/><path class="qa54-2" d="M17,13H15v1h4V13H17Z"/><path class="qa54-2" d="M13,14h1V13H10v1h3Z"/><path class="qa54-2" d="M19,15h1V14H19Z"/><path class="qa54-2" d="M10,14H9v1h1Z"/><path class="qa54-2" d="M14,14v1h1V14Z"/></svg>