<svg xmlns="http://www.w3.org/2000/svg" viewBox="0 0 29 33"><defs><style>polygon,rect,path{shape-rendering:crispedges;}.eb38-1{fill:#6b4f99;}.eb38-2{fill:#000000;}.eb38-3{fill:#3e5e00;}.eb38-4{fill:#ffffff;}.eb38-5{fill:#e8b795;}.eb38-6{fill:#90a2a3;}.eb38-7{fill:#893a1f;}.eb38-8{fill:#ffffff;}.eb38-9{fill:#893a1f;}.eb38-10{fill:#e5ac2e;}.eb38-11{fill:#ff1f4a;}.eb38-12{fill:#fad000;}.eb38-13{fill:#00e070;}.eb38-14{fill:#ff1d99;}.eb38-15{fill:#10bcff;}.eb38-16{fill:#6e12ff;}.eb38-17{fill:#900;}.eb38-18{fill:#eaeaea;}.eb38-19{fill:#381616;}</style></defs><rect class="eb38-1" x="9" y="20" width="1" height="1"/><path class="eb38-1" d="M11,22V21H10v2h1Z"/><path class="eb38-1" d="M0,33H6V26H5V25H6V24H5V21H6V20H9V16H8V15H9V8h1V9h1V7h1V8h2V7H13V6h1V5h1V6h1V7H15V8h2V7h1V9h1V8h1v7h1v1H20v4H19v1H18v2h1v1h1v1h1v1h1v1h1v6h6V0H0Z"/><path class="eb38-2" d="M23,27H22v6h1V27Z"/><path class="eb38-3" d="M22,27H21v6h1V27Z"/><path class="eb38-2" d="M21,27h1V26H21V25H20v2H17v1h2v1h1v4h1V27Z"/><rect class="eb38-2" x="19" y="24" width="1" height="1"/><path class="eb38-3" d="M20,29H19v1H18v1H17v1H16v1h4V29Z"/><rect class="eb38-2" x="18" y="23" width="1" height="1"/><path class="eb38-3" d="M18,25H17v1H16v5h1V30h1V29h1V28H17V27h2V26h1V25H19V24H18Z"/><path class="eb38-2" d="M17,23h1V22H17Z"/><rect class="eb38-3" x="17" y="23" width="1" height="1"/><rect class="eb38-2" x="17" y="24" width="1" height="1"/><rect class="eb38-2" x="18" y="29" width="1" height="1"/><rect class="eb38-2" x="16" y="23" width="1" height="1"/><rect class="eb38-2" x="16" y="25" width="1" height="1"/><path class="eb38-4" d="M15,27H14v6h1V27Z"/><rect class="eb38-2" x="12" y="23" width="1" height="1"/><path class="eb38-5" d="M17,25V24H16V23H13v1H12v1h1v1h3V25Z"/><rect class="eb38-2" x="12" y="25" width="1" height="1"/><path class="eb38-3" d="M12,32V31H11V30H10V29H9v4h4V32Z"/><rect class="eb38-2" x="11" y="22" width="1" height="1"/><rect class="eb38-3" x="11" y="23" width="1" height="1"/><rect class="eb38-2" x="11" y="24" width="1" height="1"/><rect class="eb38-2" x="11" y="30" width="1" height="1"/><rect class="eb38-2" x="10" y="23" width="1" height="1"/><path class="eb38-3" d="M12,25H11V24H10v3h2v1H10v1h1v1h1v1h1V26H12Z"/><path class="eb38-2" d="M9,29h1V28h2V27H9V26H8v7H9V29Z"/><path class="eb38-3" d="M8,27H7v6H8V27Z"/><path class="eb38-2" d="M7,27V26H6v7H7V27Z"/><rect class="eb38-2" x="10" y="29" width="1" height="1"/><rect class="eb38-2" x="17" y="30" width="1" height="1"/><path class="eb38-2" d="M17,32V31H16V26H13v5H12v1h1v1h1V27h1v6h1V32Z"/><path class="eb38-5" d="M7,27H8V26H9V25H6v1H7Z"/><path class="eb38-6" d="M9,26v1h1V26Z"/><path class="eb38-6" d="M19,27h1V26H19Z"/><rect class="eb38-2" x="20" y="15" width="1" height="1"/><path class="eb38-2" d="M19,13v2h1V12H19Z"/><path class="eb38-5" d="M10,17h1v1h1v1h1V18h5V17h1V16h1V15H19V12H16v1h1v1h1v1H16v1H15v1H14V16H13V15H11V14h1V13h1V12H10v3H9v1h1Z"/><path class="eb38-2" d="M10,14V12H9v3h1Z"/><rect class="eb38-2" x="8" y="15" width="1" height="1"/><path class="eb38-7" d="M18,15V14H17v1Z"/><rect class="eb38-7" x="16" y="13" width="1" height="1"/><rect class="eb38-2" x="14" y="14" width="1" height="1"/><path class="eb38-8" d="M13,13v1H12v1h1v1h3V15h1V14H16V13H13Zm2,2H14V14h1Z"/><path class="eb38-7" d="M13,12v1h3V12H13Z"/><rect class="eb38-7" x="12" y="13" width="1" height="1"/><path class="eb38-7" d="M11,14v1h1V14Z"/><path class="eb38-2" d="M14,17h1V16H14Z"/><path class="eb38-9" d="M10,21h1v1h1v1h5V22h1V21h1V20h1V16H19v1H18v1H17v1H16v1H13V19H12V18H11V17H10V16H9v4h1Z"/><path class="eb38-9" d="M15,18H13v1h3V18Z"/><rect class="eb38-2" x="13" y="19" width="3" height="1"/><path class="eb38-2" d="M16,19h1V18H16Z"/><rect class="eb38-1" x="17" y="9" width="1" height="1"/><rect class="eb38-10" x="12" y="10" width="1" height="1"/><rect class="eb38-10" x="16" y="10" width="1" height="1"/><rect class="eb38-1" x="11" y="9" width="1" height="1"/><rect class="eb38-11" x="14" y="10" width="1" height="1"/><rect class="eb38-11" x="13" y="9" width="1" height="1"/><path class="eb38-8" d="M12,7H11V8h1Z"/><path class="eb38-8" d="M13,9V8H12V9Z"/><path class="eb38-8" d="M17,9V8H16V9Z"/><rect class="eb38-8" x="18" y="9" width="1" height="1"/><rect class="eb38-8" x="10" y="9" width="1" height="1"/><path class="eb38-8" d="M10,8H9V9h1Z"/><path class="eb38-8" d="M18,7H17V8h1Z"/><rect class="eb38-12" x="16" y="9" width="1" height="1"/><rect class="eb38-12" x="12" y="9" width="1" height="1"/><rect class="eb38-13" x="11" y="10" width="1" height="1"/><path class="eb38-12" d="M12,8H11V9h1Z"/><path class="eb38-12" d="M18,9V8H17V9Z"/><path class="eb38-14" d="M10,10H9v1h1Z"/><rect class="eb38-15" x="17" y="10" width="1" height="1"/><path class="eb38-12" d="M19,10H18v1H16V10H15v1H14V10H13v1H11V10H10v2h9V10Z"/><path class="eb38-16" d="M19,11h1V10H19Z"/><path class="eb38-8" d="M20,8H19V9h1Z"/><rect class="eb38-11" x="15" y="9" width="1" height="1"/><rect class="eb38-11" x="14" y="8" width="1" height="1"/><rect class="eb38-17" x="14" y="9" width="1" height="1"/><path class="eb38-12" d="M14,9V8H13V9Z"/><path class="eb38-12" d="M16,9V8H15V9Z"/><rect class="eb38-18" x="14" y="6" width="1" height="1"/><rect class="eb38-8" x="14" y="7" width="1" height="1"/><rect class="eb38-8" x="13" y="6" width="1" height="1"/><rect class="eb38-8" x="15" y="6" width="1" height="1"/><rect class="eb38-8" x="14" y="5" width="1" height="1"/><path class="eb38-10" d="M10,11H9v1h1Z"/><path class="eb38-10" d="M19,12h1V11H19Z"/><path class="eb38-10" d="M20,10V9H19v1Z"/><path class="eb38-10" d="M10,9H9v1h1Z"/><rect class="eb38-2" x="5" y="25" width="1" height="1"/><path class="eb38-2" d="M10,25V24H9v2h1Z"/><path class="eb38-19" d="M6,21H5v1H6Z"/><path class="eb38-12" d="M9,24h1V21H9V20H6v2H5v1H8V22H7V21H8v1H9v1H8v1H6v1H9Z"/><rect class="eb38-19" x="7" y="21" width="1" height="1"/><path class="eb38-19" d="M8,23H5v1H8Z"/><rect class="eb38-19" x="8" y="22" width="1" height="1"/></svg>