<svg xmlns="http://www.w3.org/2000/svg" viewBox="0 0 29 33"><defs><style>polygon,rect,path{shape-rendering:crispedges;}.ua29-1{fill:#6b4f99;}.ua29-2{fill:#000000;}.ua29-3{fill:#99ce09;}.ua29-4{fill:#c18d59;}.ua29-5{fill:#8e4717;}.ua29-6{fill:#38a6e8;}.ua29-7{fill:#ffffff;}.ua29-8{fill:#900;}.ua29-9{fill:#ea1500;}.ua29-10{fill:#a0a0a0;}.ua29-11{fill:#ccc;}</style></defs><path class="ua29-1" d="M20,23V22H19v1H18v1h1v1h2V23Z"/><path class="ua29-1" d="M6,32V27H7V26H8V25h2V24h1V23H10V22H9V21H8V20H7V11H8V10H9V9h1V8h1V7h7V8h1V9h1v1h1v1h1v5h1v1h1v1h1v5H24v8H23v1H21v1h8V0H0V33H6Z"/><path class="ua29-2" d="M23,26v5h1V25H23Z"/><path class="ua29-2" d="M7,27H6v6H7V27Z"/><path class="ua29-3" d="M8,27H7v6H8V27Z"/><rect class="ua29-2" x="7" y="26" width="1" height="1"/><path class="ua29-2" d="M9,27H8v6H9V27Z"/><path class="ua29-3" d="M20,27h1V26H19V25H18V24H16v1h1v5H16V25H13v5H12V25h1V24H11v1H10v1H8v1H9v6H20V27Z"/><path class="ua29-2" d="M10,25H8v1h2Z"/><rect class="ua29-2" x="10" y="24" width="1" height="1"/><path class="ua29-2" d="M13,23H11v1h2Z"/><path class="ua29-2" d="M13,24v1h3V24H13Z"/><path class="ua29-4" d="M15,23H13v1h3V23Z"/><path class="ua29-2" d="M17,23H16v1h2V23Z"/><rect class="ua29-2" x="18" y="24" width="1" height="1"/><path class="ua29-2" d="M22,32h1V31H22V25H19v1h2v1H20v6h1V32Z"/><path class="ua29-3" d="M23,26V25H22v6h1V26Z"/><path class="ua29-2" d="M12,26v4h1V25H12Z"/><path class="ua29-2" d="M16,30h1V25H16v5Z"/><path class="ua29-4" d="M13,12v2h3V13h1V11H12v1Z"/><path class="ua29-4" d="M16,22V21h1V20h1V19h1V16H18v1H16V16H15v1H14V16H13v1H11V16H10v3h1v1h1v1h1v1h3Zm-4-3V18h1v1h3v1H13V19Z"/><rect class="ua29-4" x="14" y="15" width="1" height="1"/><rect class="ua29-2" x="14" y="16" width="1" height="1"/><path class="ua29-5" d="M13,12H11v1h2Z"/><path class="ua29-5" d="M18,12H17v1h1Z"/><path class="ua29-6" d="M11,14V12H10v2Z"/><path class="ua29-6" d="M18,13v1h1V12H18Z"/><path class="ua29-3" d="M13,22H12V21H11V20H10V19H9V12h1V11h2V10h5v1h2v1h1v6h1V11H20V10H19V9H18V8H11V9H10v1H9v1H8v9H9v1h1v1h1v1h2Z"/><path class="ua29-3" d="M20,21V19H19v1H18v1H17v1H16v1h2V22h1V21Z"/><rect class="ua29-2" x="10" y="8" width="1" height="1"/><rect class="ua29-2" x="9" y="9" width="1" height="1"/><rect class="ua29-2" x="8" y="10" width="1" height="1"/><path class="ua29-2" d="M8,11H7v9H8V11Z"/><rect class="ua29-2" x="8" y="20" width="1" height="1"/><rect class="ua29-2" x="9" y="21" width="1" height="1"/><rect class="ua29-2" x="10" y="22" width="1" height="1"/><rect class="ua29-2" x="18" y="22" width="1" height="1"/><rect class="ua29-2" x="19" y="21" width="1" height="1"/><path class="ua29-2" d="M21,17h1V11H21v6Z"/><rect class="ua29-2" x="20" y="10" width="1" height="1"/><rect class="ua29-2" x="19" y="9" width="1" height="1"/><rect class="ua29-2" x="18" y="8" width="1" height="1"/><path class="ua29-2" d="M18,8V7H11V8h7Z"/><path class="ua29-2" d="M12,12V11H10v1h2Z"/><path class="ua29-2" d="M10,16V12H9v7h1V16Z"/><rect class="ua29-2" x="10" y="19" width="1" height="1"/><rect class="ua29-2" x="11" y="20" width="1" height="1"/><rect class="ua29-2" x="12" y="21" width="1" height="1"/><path class="ua29-2" d="M16,23V22H13v1h3Z"/><rect class="ua29-2" x="16" y="21" width="1" height="1"/><rect class="ua29-2" x="17" y="20" width="1" height="1"/><rect class="ua29-2" x="18" y="19" width="1" height="1"/><path class="ua29-2" d="M19,16v3h1V12H19v4Z"/><path class="ua29-2" d="M18,12h1V11H17v1Z"/><path class="ua29-2" d="M17,11V10H12v1h5Z"/><path class="ua29-7" d="M13,13H11v1h2Z"/><path class="ua29-7" d="M11,17h2V16H11Z"/><path class="ua29-7" d="M10,14v2h1V14Z"/><path class="ua29-2" d="M11,14v2h2V14Z"/><path class="ua29-7" d="M18,14v2h1V14Z"/><path class="ua29-7" d="M18,13H16v1h2Z"/><path class="ua29-7" d="M16,17h2V16H16Z"/><path class="ua29-7" d="M13,14v2h1V15h1v1h1V14Z"/><path class="ua29-2" d="M16,14v2h2V14Z"/><rect class="ua29-2" x="13" y="19" width="3" height="1"/><rect class="ua29-2" x="12" y="18" width="1" height="1"/><path class="ua29-7" d="M20,20v1h1V18H20v2Z"/><path class="ua29-7" d="M23,20V18H22v2Z"/><path class="ua29-7" d="M24,21h1V18H24v3Z"/><path class="ua29-2" d="M22,20V18H21v2Z"/><path class="ua29-8" d="M21,21v1h3V21H21Z"/><path class="ua29-9" d="M21,20v1h3V20H21Z"/><path class="ua29-7" d="M21,22v1h3V22Z"/><path class="ua29-10" d="M21,23v2h3V23H21Z"/><path class="ua29-9" d="M22,18h1V16H22v2Z"/><path class="ua29-7" d="M24,18V17H23v1Z"/><path class="ua29-7" d="M22,17H21v1h1Z"/><path class="ua29-2" d="M23,19v1h1V18H23Z"/><path class="ua29-11" d="M24,21.222V23h1V21H24Z"/><path class="ua29-11" d="M20,21v2h1V21Z"/></svg>