<svg xmlns="http://www.w3.org/2000/svg" viewBox="0 0 29 33"><defs><style>polygon,rect,path{shape-rendering:crispedges;}.ia237-1{fill:#e55b35;}.ia237-2{fill:#000000;}.ia237-3{fill:#184226;}.ia237-4{fill:#c18d59;}.ia237-5{fill:#508e5d;}.ia237-6{fill:#99004d;}.ia237-7{fill:#ff1f4a;}</style></defs><rect class="ia237-1" x="13" y="21" height="1"/><polygon class="ia237-1" points="15 17 15 17 15 16 14 16 14 16 15 16 15 17"/><rect class="ia237-1" x="19" y="16" width="1"/><rect class="ia237-1" x="12" y="20" height="1"/><path class="ia237-1" d="M10,17v2h0V16h0Z"/><path class="ia237-1" d="M0,33H6V27H7V26H8V25h2V24H9V16H8V15H9V10h1V9h1V8h7V9h1v1h1v5h1v1H20v6H19v3h2v1h1v1h1v6h6V0H0Z"/><rect class="ia237-1" x="11" y="19" height="1"/><path class="ia237-2" d="M23,27H22v6h1V27Z"/><rect class="ia237-2" x="21" y="26" width="1" height="1"/><path class="ia237-3" d="M22,27H21v6h1V27Z"/><path class="ia237-2" d="M21,27H20v6h1V27Z"/><path class="ia237-2" d="M20,26h1V25H19v1Z"/><rect class="ia237-3" x="18" y="29" width="1" height="1"/><path class="ia237-3" d="M15,29H14v2h1V29Z"/><path class="ia237-3" d="M19,32V31H18v1H17V29h1V28h1v1h1V27h1V26H19V25H18v1H16v1H13V26H12V25H11v2H10V26H9v3h1V28h1v1h1v3H11V31H10v1H9v1H20V32Zm-3-2v1H15v1H13V28h2v1h1Z"/><rect class="ia237-3" x="10" y="29" width="1" height="1"/><path class="ia237-2" d="M16,25v1h1V25Z"/><path class="ia237-2" d="M13,26v1h3V26H13Z"/><path class="ia237-2" d="M13,23h3v1h1V21H16v1H13V21H12v3h1Z"/><path class="ia237-4" d="M17,25V24H16V23H13v1H12v1h1v1h3V25Z"/><rect class="ia237-2" x="12" y="25" width="1" height="1"/><path class="ia237-2" d="M9,31V26h1V25H8v1H7v1H8v6H9V31Z"/><path class="ia237-3" d="M8,27H7v6H8V27Z"/><path class="ia237-2" d="M7,27H6v6H7V27Z"/><path class="ia237-5" d="M19,30H18V29H17v3h1V31h1v1h1V29H19Z"/><rect class="ia237-5" x="18" y="28" width="1" height="1"/><path class="ia237-5" d="M15,30v1h1V29H15Z"/><path class="ia237-5" d="M14,30V29h1V28H13v4h2V31H14Z"/><path class="ia237-5" d="M9,32h1V31h1v1h1V29H11v1H10V29H9v3Z"/><rect class="ia237-5" x="10" y="28" width="1" height="1"/><polygon class="ia237-2" points="20 16 20 16 21 16 21 15 20 15 20 16 20 16"/><rect class="ia237-4" x="10" y="13" width="1" height="1"/><path class="ia237-4" d="M17,12V11H15V10H12v1H11v1h1v1h4V12h2v1h0V12Z"/><path class="ia237-4" d="M9,16h1v3h1v1h1v1h1v1h3V21h1V20h1V19h1V16h0V15H18v1H16V15H15V14H14v1H13v1H11V15H9Zm5,0h1v1H14Zm-1,3h3V18h1v1H16v1H13Z"/><path class="ia237-2" d="M19,16v3h1V16Z"/><rect class="ia237-2" x="18" y="19" width="1" height="1"/><rect class="ia237-2" x="17" y="20" width="1" height="1"/><path class="ia237-2" d="M15,10Z"/><polygon class="ia237-2" points="12 20 11 20 11 20 11 21 12 21 12 20 12 20"/><polygon class="ia237-2" points="11 19 10 19 10 19 10 20 11 20 11 19 11 19"/><path class="ia237-2" d="M10,18V16H9v3h1Z"/><polygon class="ia237-2" points="9 15 9 15 8 15 8 16 9 16 9 16 9 15"/><polygon class="ia237-2" points="15 17 15 16 14 16 14 16 14 17 15 17 15 17"/><path class="ia237-6" d="M16,12v1h2V12Z"/><rect class="ia237-6" x="11" y="12" width="1" height="1"/><rect class="ia237-6" x="10" y="13" width="1"/><rect class="ia237-2" x="13" y="19" width="3" height="1"/><rect class="ia237-2" x="16" y="18" width="1" height="1"/><path class="ia237-7" d="M10,27h1V25h1V21H11V20H10V19H9v5h1v3Z"/><polygon class="ia237-7" points="19 16 20 16 20 16 20 15 20 15 19 15 19 16"/><path class="ia237-7" d="M10,13h1V11h1V10h3v1h2v1h1v2h2V10H19V9H18V8H11V9H10v1H9v4h1Z"/><path class="ia237-7" d="M19,20H18v1H17v5h1V25h1V22h1V19H19Z"/><path class="ia237-2" d="M11,16h2V15h1V14h1v1h1v1h2V15h2V14H18V13H11v1H9v1h2Z"/></svg>