<svg xmlns="http://www.w3.org/2000/svg" viewBox="0 0 29 33"><defs><style>polygon,rect,path{shape-rendering:crispedges;}.pa174-1{fill:#b4bd09;}.pa174-2{fill:#000000;}.pa174-3{fill:#cc3232;}.pa174-4{fill:#e8b795;}.pa174-5{fill:#ffffff;}.pa174-6{fill:#ffffff;}.pa174-7{fill:#8e703c;}.pa174-8{fill:#8e703c;}.pa174-9{fill:#000000;}</style></defs><path class="pa174-1" d="M0,33H6V27H7V26H8V25h2V24h1V23H10V22h1V20H10V19H9V16H8V15H9V11h1V10h1V9h7v1h1v1h1v4h1v1H20v3H19v1H18v2h1v1H18v1h1v1h1V24h1V23h1v1h1v9h6V0H0Z"/><path class="pa174-2" d="M7,27H6v6H7V27Z"/><path class="pa174-3" d="M8,27H7v6H8V27Z"/><rect class="pa174-2" x="7" y="26" width="1" height="1"/><path class="pa174-2" d="M9,27H8v6H9V27Z"/><path class="pa174-3" d="M20,27H19V25H18V24H16v1h1v4h1v1h1v3h1V27Z"/><path class="pa174-3" d="M10,30h1V29h1V25h1V24H11v1H10v1H8v1H9v6h1V30Z"/><path class="pa174-2" d="M10,25H8v1h2Z"/><rect class="pa174-2" x="10" y="24" width="1" height="1"/><rect class="pa174-2" x="10" y="22" width="1" height="1"/><rect class="pa174-3" x="11" y="22" width="1" height="1"/><path class="pa174-2" d="M12,21H11v1h1Z"/><path class="pa174-2" d="M13,23V22H12v1H11v1h2Z"/><path class="pa174-2" d="M13,24v1h3V24H13Z"/><path class="pa174-4" d="M15,23H13v1h3V23Z"/><rect class="pa174-3" x="17" y="22" width="1" height="1"/><path class="pa174-2" d="M17,22h1V21H17Z"/><rect class="pa174-2" x="18" y="24" width="1" height="1"/><rect class="pa174-2" x="18" y="22" width="1" height="1"/><path class="pa174-2" d="M21,27H20v6h1V27Z"/><path class="pa174-3" d="M22,27H21v6h1V27Z"/><path class="pa174-2" d="M23,24H22v9h1V24Z"/><path class="pa174-3" d="M16,32H12v1h5V32Z"/><path class="pa174-3" d="M13,25v3h3V25H13Z"/><rect class="pa174-3" x="12" y="30" width="1" height="1"/><rect class="pa174-3" x="16" y="30" width="1" height="1"/><path class="pa174-5" d="M19,30H18V29H17v2H16V28H13v3H12V29H11v1H10v3h2V32h5v1h2V30Z"/><path class="pa174-2" d="M13,25H12v5h1V25Z"/><path class="pa174-2" d="M16,28v2h1V25H16v3Z"/><rect class="pa174-2" x="20" y="15" width="1" height="1"/><rect class="pa174-4" x="9" y="15" width="1" height="1"/><rect class="pa174-4" x="13" y="20" width="1" height="1"/><rect class="pa174-4" x="15" y="20" width="1" height="1"/><path class="pa174-4" d="M18,15H15v2H14V15H13v1H11v1H10v1h1v1h1V18h2v1h1V18h2v1h1V18h1V16h1V15H18Z"/><path class="pa174-2" d="M19,17h1V16H19Z"/><path class="pa174-2" d="M17,22H16v2h2V23H17Z"/><path class="pa174-2" d="M10,16H9v1h1Z"/><rect class="pa174-2" x="8" y="15" width="1" height="1"/><path class="pa174-2" d="M15,17V16H14v1Z"/><path class="pa174-6" d="M17,14H16v1h1Z"/><path class="pa174-2" d="M18,15h1V14H17v1Z"/><rect class="pa174-7" x="16" y="13" width="1" height="1"/><path class="pa174-8" d="M14,18H13v1h1Z"/><path class="pa174-8" d="M12,22h1v1h3V22h1V21h1V20h1V19h1V17H19v1H18v1H17V18H15v1h1v2H15V20H14v1H13V19H11V18H10V17H9v2h1v1h1v1h1Z"/><path class="pa174-2" d="M13,19v1h3V19H13Z"/><path class="pa174-2" d="M12,18v1h1V18Z"/><path class="pa174-4" d="M21,27h1V24H21v1H20v2Z"/><path class="pa174-2" d="M20,27V25H19v2Z"/><rect class="pa174-2" x="20" y="24" width="1" height="1"/><rect class="pa174-2" x="21" y="23" width="1" height="1"/><path class="pa174-9" d="M10,16v1h1V16h2V15h1v1h1V15h1V13h1v1h2v1h1V11H19V10H18V9H11v1H10v1H9v4h1Z"/></svg>