<svg xmlns="http://www.w3.org/2000/svg" viewBox="0 0 29 33"><defs><style>polygon,rect,path{shape-rendering:crispedges;}.na4-1{fill:#d14646;}.na4-2{fill:#000000;}.na4-3{fill:#0068ff;}.na4-4{fill:#5a2de2;}.na4-5{fill:#b2622b;}.na4-6{fill:#ffffff;}.na4-7{fill:#5e362f;}.na4-8{fill:#5e362f;}.na4-9{fill:#c4ea3b;}.na4-10{fill:#508e91;}</style></defs><path class="na4-1" d="M0,33H6V27H7V26H8V25h2V24h2V21H11V20H10V19H9V16H8V14H9V13H8V9H9V8h1V7h1V6h7V7h1V8h1V9h1v4H20v1h1v2H20v3H19v1H18v1H17v3h2v1h2v1h1v1h1v6h6V0H0Z"/><path class="na4-2" d="M23,27H22v6h1V27Z"/><rect class="na4-2" x="21" y="26" width="1" height="1"/><path class="na4-3" d="M22,27H21v6h1V27Z"/><path class="na4-2" d="M21,27H20v6h1V27Z"/><path class="na4-3" d="M20,27h1V26H19V25H18v8h2V27Z"/><path class="na4-2" d="M20,26h1V25H19v1Z"/><path class="na4-2" d="M18,25h1V24H17v1H16v1h1v7h1V25Z"/><path class="na4-4" d="M17,26H16v1H13V26H12v7h5V26Z"/><path class="na4-2" d="M13,26v1h3V26H13Z"/><path class="na4-2" d="M13,23h3v1h1V21H16v1H13V21H12v3h1Z"/><path class="na4-5" d="M13,25v1h3V25h1V24H16V23H13v1H12v1Z"/><path class="na4-2" d="M12,26h1V25H12V24H10v1h1v8h1V26Z"/><path class="na4-3" d="M11,25H10v1H8v1H9v6h2V25Z"/><path class="na4-2" d="M10,25H8v1h2Z"/><path class="na4-2" d="M9,27H8v6H9V27Z"/><rect class="na4-2" x="7" y="26" width="1" height="1"/><path class="na4-3" d="M8,27H7v6H8V27Z"/><path class="na4-2" d="M7,27H6v6H7V27Z"/><path class="na4-2" d="M20,16h1V15H20Z"/><path class="na4-5" d="M19,16V15H16v1h3Z"/><path class="na4-5" d="M13,22h3V21h1V20h1V19h1V17H16V16H15v1H14V16H13v1H10v2h1v1h1v1h1Zm-1-3V18h5v1H16v1H13V19Z"/><path class="na4-5" d="M13,13v1h3V13h1V12h1V11H11v1h2Z"/><rect class="na4-5" x="14" y="15" width="1" height="1"/><path class="na4-5" d="M12,15H10v1h3V15Z"/><rect class="na4-5" x="10" y="12" width="1" height="1"/><path class="na4-2" d="M19,17v2h1V16H19Z"/><rect class="na4-2" x="18" y="19" width="1" height="1"/><rect class="na4-2" x="17" y="20" width="1" height="1"/><rect class="na4-2" x="11" y="20" width="1" height="1"/><rect class="na4-2" x="10" y="19" width="1" height="1"/><path class="na4-2" d="M10,16H9v3h1V16Z"/><path class="na4-2" d="M8,15v1H9V15Z"/><rect class="na4-2" x="14" y="16" width="1" height="1"/><rect class="na4-6" x="12" y="14" width="1" height="1"/><path class="na4-6" d="M11,14H10v1h1Z"/><path class="na4-6" d="M18,15h1V14H18Z"/><path class="na4-6" d="M16,14v1h1V14Z"/><path class="na4-2" d="M11,14v1h1V14Z"/><path class="na4-2" d="M17,14v1h1V14Z"/><polygon class="na4-7" points="12 13 13 13 13 12 11 12 11 13 12 13"/><path class="na4-7" d="M17,13h2V12H17Z"/><path class="na4-8" d="M16,19h1V18H13v1Z"/><rect class="na4-2" x="13" y="19" width="3" height="1"/><path class="na4-2" d="M13,18H12v1h1Z"/><path class="na4-9" d="M10,13V12h1V11h7v1h1v2h1V13h1V9H20V8H19V7H18V6H11V7H10V8H9V9H8v4H9v1h1Z"/><path class="na4-10" d="M19,15v1h1V15h1V14H19Z"/><path class="na4-10" d="M18,16H16v1h3V16Z"/><polygon class="na4-10" points="12 14 13 14 13 13 12 13 11 13 10 13 10 14 11 14 12 14"/><path class="na4-10" d="M16,13v1h3V13H16Z"/><path class="na4-10" d="M16,14H13v2h1V15h1v1h1V14Z"/><path class="na4-10" d="M10,16v1h3V16H10Z"/><path class="na4-10" d="M10,15V14H8v1H9v1h1Z"/></svg>