<svg xmlns="http://www.w3.org/2000/svg" viewBox="0 0 29 33"><defs><style>polygon,rect,path{shape-rendering:crispedges;}.da47-1{fill:#397d98;}.da47-2{fill:#000000;}.da47-3{fill:#333333;}.da47-4{fill:#e8b795;}.da47-5{fill:#ffffff;}.da47-6{fill:#663434;}.da47-7{fill:#8e703c;}.da47-8{fill:#ff6c77;}</style></defs><path class="da47-1" d="M0,33H6V27H7V26H8V25h2V24h2V21H11V20H10V19H9V16H8V15H9V11h1V10h1V9h1V8h1V6h1V5h1V7h1V9h2v1h1v1h1v4h1v1H20v3H19v1H18v1H17v3h2v1h2v1h1v1h1v6h6V0H0Z"/><path class="da47-2" d="M23,27H22v3H21V27H20v6h1V31h1v2h1V27Z"/><rect class="da47-2" x="21" y="26" width="1" height="1"/><path class="da47-3" d="M21,28v2h1V27H21Z"/><path class="da47-4" d="M21,31v2h1V31Z"/><path class="da47-2" d="M20,26h1V25H19v1Z"/><rect class="da47-3" x="18" y="29" width="1" height="1"/><path class="da47-3" d="M19,32V31H18v1H17V29h1V28h1v1h1V27h1V26H19V25H17v1H16v1H13V26H12V25H10v1H8v1H9v2h1V28h1v1h1v3H11V31H10v1H9v1H20V32Zm-3-2v1H15v1H13V28h2v1h1Z"/><rect class="da47-3" x="10" y="29" width="1" height="1"/><path class="da47-3" d="M15,29H14v2h1V29Z"/><path class="da47-2" d="M18,25h1V24H17v1Z"/><rect class="da47-2" x="16" y="25" width="1" height="1"/><path class="da47-2" d="M13,26v1h3V26H13Z"/><path class="da47-2" d="M13,23V22H12v2h1Z"/><path class="da47-4" d="M13,25v1h3V25h1V24H16V23H13v1H12v1Z"/><rect class="da47-2" x="12" y="25" width="1" height="1"/><path class="da47-2" d="M12,24H10v1h2Z"/><path class="da47-2" d="M10,25H8v1h2Z"/><path class="da47-2" d="M9,31V27H8v3H7V27H6v6H7V31H8v2H9V31Z"/><rect class="da47-2" x="7" y="26" width="1" height="1"/><path class="da47-3" d="M7,30H8V27H7v3Z"/><path class="da47-4" d="M7,31v2H8V31Z"/><path class="da47-5" d="M19,30H18V29H17v3h1V31h1v1h1V29H19Z"/><rect class="da47-5" x="18" y="28" width="1" height="1"/><path class="da47-5" d="M15,30v1h1V29H15Z"/><path class="da47-5" d="M14,30V29h1V28H13v4h2V31H14Z"/><path class="da47-5" d="M9,32h1V31h1v1h1V29H11v1H10V29H9v3Z"/><rect class="da47-5" x="10" y="28" width="1" height="1"/><rect class="da47-2" x="20" y="15" width="1" height="1"/><path class="da47-4" d="M18,17H16V16H15v1H14V16H13v1H11V16H10v2h1v1h1V18h1v1h3v1h1V19h1V18h1V16H18Z"/><rect class="da47-4" x="12" y="19" width="1" height="1"/><rect class="da47-4" x="19" y="15" width="1" height="1"/><rect class="da47-4" x="9" y="15" width="1" height="1"/><path class="da47-4" d="M13,21h3V20H13Z"/><rect class="da47-4" x="14" y="15" width="1" height="1"/><path class="da47-4" d="M11,13V12h2v1H11v1h5V13h1V12h2V11H18V10H16v1H15V10H11v1H10v2Z"/><path class="da47-4" d="M17,14h2V13H17Z"/><rect class="da47-2" x="18" y="10" width="1" height="1"/><path class="da47-2" d="M16,23v1h1V22H16Z"/><path class="da47-2" d="M14,10V9H11v1h3Z"/><path class="da47-2" d="M17,10h1V9H16v1Z"/><rect class="da47-2" x="10" y="10" width="1" height="1"/><rect class="da47-2" x="8" y="15" width="1" height="1"/><rect class="da47-2" x="14" y="16" width="1" height="1"/><rect class="da47-6" x="10" y="13" width="1" height="1"/><rect class="da47-6" x="11" y="12" width="2" height="1"/><rect class="da47-6" x="16" y="13" width="1" height="1"/><rect class="da47-6" x="17" y="12" width="2" height="1"/><path class="da47-7" d="M13,23h3V22h1V21h1V20h1V19h1V16H19v2H18v1H17v1H16v1H13V20H12V19H11V18H10V16H9v3h1v1h1v1h1v1h1Z"/><rect class="da47-2" x="13" y="19" width="3" height="1"/><rect class="da47-2" x="12" y="18" width="1" height="1"/><path class="da47-8" d="M14,10h1v1h1V7H15V5H14V6H13V8H12V9h2Z"/><path class="da47-2" d="M10,16h1v1h2V16h1V15h1v1h1v1h2V16h1V15h1V11H19v3H10V11H9v4h1Z"/></svg>