<svg xmlns="http://www.w3.org/2000/svg" viewBox="0 0 29 33"><defs><style>polygon,rect,path{shape-rendering:crispedges;}.ha203-1{fill:#db5a8e;}.ha203-2{fill:#000000;}.ha203-3{fill:#b23b00;}.ha203-4{fill:#c18d59;}.ha203-5{fill:#ff791f;}.ha203-6{fill:#66334f;}.ha203-7{fill:#66334f;}.ha203-8{fill:#d8be00;}</style></defs><rect class="ha203-1" x="14" y="17" width="1"/><path class="ha203-1" d="M0,33H6V27H7V26H8V25h2V24h2V22H11V21H10V20H9V16H8V15H9V10h1V9h1V8h7V9h1v1h1v6h0V15h1v1H20v4H19v1H18v1H17v2h2v1h2v1h1v1h1v6h6V0H0Z"/><rect class="ha203-1" x="19" y="16" height="1"/><path class="ha203-2" d="M23,27H22v6h1V27Z"/><rect class="ha203-2" x="21" y="26" width="1" height="1"/><path class="ha203-3" d="M22,27H21v6h1V27Z"/><path class="ha203-2" d="M21,27H20v6h1V27Z"/><path class="ha203-2" d="M20,26h1V25H19v1Z"/><path class="ha203-3" d="M15,29H14v2h1V29Z"/><path class="ha203-3" d="M19,32V31H18v1H17V29h1V28h1v1h1V27h1V26H19V25H17v1H16v1H13V26H12V25H10v1H9v3h1V28h1v1h1v3H11V31H10v1H9v1H20V32Zm-3-2v1H15v1H13V28h2v1h1Z"/><rect class="ha203-3" x="18" y="29" width="1" height="1"/><rect class="ha203-3" x="10" y="29" width="1" height="1"/><path class="ha203-2" d="M18,25h1V24H17v1Z"/><path class="ha203-2" d="M16,24h1V23H16Z"/><rect class="ha203-2" x="16" y="25" width="1" height="1"/><path class="ha203-2" d="M13,26v1h3V26H13Z"/><path class="ha203-2" d="M13,23H12v1h1Z"/><path class="ha203-4" d="M13,25v1h3V25h1V24H16V23H13v1H12v1Z"/><rect class="ha203-2" x="12" y="25" width="1" height="1"/><path class="ha203-2" d="M12,24H10v1h2Z"/><path class="ha203-2" d="M9,31V26h1V25H8v1H7v1H8v6H9V31Z"/><path class="ha203-3" d="M8,27H7v6H8V27Z"/><path class="ha203-2" d="M7,27H6v6H7V27Z"/><path class="ha203-5" d="M19,30H18V29H17v3h1V31h1v1h1V29H19Z"/><rect class="ha203-5" x="18" y="28" width="1" height="1"/><path class="ha203-5" d="M15,30v1h1V29H15Z"/><path class="ha203-5" d="M14,30V29h1V28H13v4h2V31H14Z"/><path class="ha203-5" d="M9,32h1V31h1v1h1V29H11v1H10V29H9v3Z"/><rect class="ha203-5" x="10" y="28" width="1" height="1"/><rect class="ha203-2" x="20" y="15" width="1" height="1"/><path class="ha203-4" d="M10,16v1h1v1h5v1h1V18h1V17h1V16h1V15H18v1H16V15H15V14H14v1H13v1H11V15H9v1Zm4,1V16h1v1H14Z"/><path class="ha203-4" d="M16,13V12h2V11H17V10H12v1H11v1h2v1H10v1h1V13h7v1h1V13Z"/><path class="ha203-2" d="M17,10Z"/><polygon class="ha203-2" points="15 16 15 16 14 16 14 17 15 17 15 16"/><polygon class="ha203-6" points="13 12 11 12 11 12 10 12 10 13 13 13 13 12"/><polygon class="ha203-6" points="16 13 19 13 19 12 18 12 18 12 16 12 16 13"/><path class="ha203-7" d="M15,18H13v1h3V18Z"/><path class="ha203-7" d="M14,23h3V22h1V21h1V20h1V16H19v1H18v1H17v1H16v1H13V19H12V18H11V17H10V16H9v4h1v1h1v1h1v1h2Z"/><rect class="ha203-2" x="13" y="19" width="3" height="1"/><path class="ha203-2" d="M12,18v1h1V18Z"/><path class="ha203-8" d="M10,13h0V12h1V11h1V10h5v1h1v1h1v2h1V10H19V9H18V8H11V9H10v1H9v4h1Z"/><path class="ha203-2" d="M10,15h1v1h2V15h1V14h1v1h1v1h2V15h2V14H18V13H11v1H9v1H8v1H9V15Z"/></svg>