<svg xmlns="http://www.w3.org/2000/svg" viewBox="0 0 29 33"><defs><style>polygon,rect,path{shape-rendering:crispedges;}.qa61-1{fill:#7a982c;}.qa61-2{fill:#000000;}.qa61-3{fill:#990000;}.qa61-4{fill:#a56e49;}.qa61-5{fill:#990000;}.qa61-6{fill:#ffffff;}.qa61-7{fill:#5e362f;}.qa61-8{fill:#5e362f;}.qa61-9{fill:#cbed03;}.qa61-10{fill:#304400;}.qa61-11{fill:#455054;}.qa61-12{fill:#0079bc;}.qa61-13{fill:#ffce00;}</style></defs><path class="qa61-1" d="M8,18v1H9V16H8v2Z"/><path class="qa61-1" d="M0,33H8V32H6V31H5V22H6V21H7V20H5v1H2V17H5V16H8V15H9V11h1V10h1V9h7v1h1v1h1v4h1v1H20v3h1v1H20v1H18v1h1v1H18v1h1v1h2v1h1v1h1v6h6V0H0Z"/><path class="qa61-1" d="M11,24V23H10V22h1V21H9V20H8v2H9v2H8v1h2V24Z"/><path class="qa61-2" d="M6,24V22H5v9H6V24Z"/><path class="qa61-2" d="M23,27H22v6h1V27Z"/><path class="qa61-3" d="M22,27H21v6h1V27Z"/><rect class="qa61-2" x="21" y="26" width="1" height="1"/><path class="qa61-2" d="M21,27H20v6h1V27Z"/><path class="qa61-3" d="M10,28h1v1h1V25h1V24H11v1H10v1H8v1H9v2h1Z"/><rect class="qa61-3" x="10" y="29" width="1" height="1"/><path class="qa61-3" d="M19,32V31H18v1H17V30H16v1H15v1H13V30H12v2H11V31H10v1H9v1H20V32Z"/><rect class="qa61-3" x="18" y="29" width="1" height="1"/><path class="qa61-3" d="M16,25h1v4h1V28h1v1h1V27h1V26H19V25H18V24H16Z"/><path class="qa61-2" d="M20,26h1V25H19v1Z"/><rect class="qa61-2" x="18" y="24" width="1" height="1"/><rect class="qa61-2" x="18" y="22" width="1" height="1"/><rect class="qa61-3" x="17" y="22" width="1" height="1"/><path class="qa61-2" d="M14,25h2V24H13v1Z"/><path class="qa61-4" d="M16,24V23H13v1h3Z"/><rect class="qa61-3" x="11" y="22" width="1" height="1"/><rect class="qa61-2" x="10" y="24" width="1" height="1"/><rect class="qa61-2" x="10" y="22" width="1" height="1"/><path class="qa61-2" d="M9,31V27H8V26h2V25H8V24H7v7H6v1H8v1H9V31Z"/><path class="qa61-3" d="M7,30V24H6v7H7Z"/><path class="qa61-3" d="M13,25v3h2v1h1V25H13Z"/><path class="qa61-3" d="M14,29v2h1V29Z"/><path class="qa61-5" d="M19,30H18V29H17v3h1V31h1v1h1V29H19Z"/><rect class="qa61-5" x="18" y="28" width="1" height="1"/><path class="qa61-5" d="M15,29v2h1V29Z"/><path class="qa61-5" d="M14,30V29h1V28H13v4h2V31H14Z"/><path class="qa61-5" d="M11,29v1H10V29H9v3h1V31h1v1h1V29Z"/><rect class="qa61-5" x="10" y="28" width="1" height="1"/><path class="qa61-2" d="M13,25H12v5h1V25Z"/><path class="qa61-2" d="M17,28V25H16v5h1V28Z"/><rect class="qa61-2" x="20" y="15" width="1" height="1"/><path class="qa61-2" d="M19,14v1h1V11H19v3Z"/><path class="qa61-4" d="M15,10v5H14v1h1v1H14V16H13v1H11V16H10v2h1v1h1v2h1v1h3V21h1V19H16v1H13V19h3V18h1v1h1V18h1V16H16V14h2V13H16V12h2v1h1V11H18V10H15Z"/><rect class="qa61-4" x="9" y="15" width="1" height="1"/><rect class="qa61-4" x="19" y="15" width="1" height="1"/><rect class="qa61-2" x="18" y="10" width="1" height="1"/><path class="qa61-2" d="M17,20v1H16v1H13V21H12V20H11v2h1v1H11v1h2V23h3v1h2V23H17V22h1V20Z"/><rect class="qa61-2" x="8" y="15" width="1" height="1"/><rect class="qa61-2" x="14" y="16" width="1" height="1"/><path class="qa61-6" d="M16,14v2h1V14Z"/><path class="qa61-6" d="M19,14H18v2h1V14Z"/><path class="qa61-2" d="M17,14v2h1V14Z"/><path class="qa61-7" d="M19,13H18v1h1Z"/><rect class="qa61-7" x="16" y="12" width="2" height="1"/><path class="qa61-8" d="M19,17v1H18v1H17v1h1v1h2V20h1V19H20V16H19Z"/><path class="qa61-8" d="M9,21h2V20h1V19H11V18H10V16H9v3H8v1H9Z"/><rect class="qa61-2" x="13" y="19" width="3" height="1"/><rect class="qa61-2" x="16" y="18" width="1" height="1"/><path class="qa61-9" d="M11,15h2V13H11v2Z"/><path class="qa61-10" d="M14,15V13H13v2Z"/><path class="qa61-10" d="M11,15v1h2V15Z"/><path class="qa61-10" d="M11,14V13H10v2h1Z"/><path class="qa61-10" d="M13,12H11v1h2Z"/><rect class="qa61-2" x="10" y="15" width="1" height="1"/><path class="qa61-2" d="M11,17h2V16H11Z"/><rect class="qa61-2" x="13" y="15" width="1" height="1"/><path class="qa61-2" d="M10,14V13h1V12h2v1h1v2h1V10h3V9H11v1H10v1H9v4h1Z"/><path class="qa61-4" d="M7,24H8V22H6v2Z"/><path class="qa61-11" d="M8,22V20H7v2Z"/><path class="qa61-2" d="M7,21H6v1H7Z"/><path class="qa61-2" d="M9,22H8v2H9Z"/><path class="qa61-12" d="M5,17H2v1H5Z"/><path class="qa61-12" d="M6,16H5v1H6Z"/><path class="qa61-12" d="M8,17V16H7v1Z"/><path class="qa61-12" d="M5,18v1H2v2H5V20H6V18Z"/><polygon class="qa61-12" points="8 19 8 18 7 18 7 20 8 20 8 19"/><path class="qa61-13" d="M8,18V17H7V16H6v1H5v1H6v2H7V18Z"/><path class="qa61-13" d="M5,19V18H2v1H5Z"/></svg>