<svg xmlns="http://www.w3.org/2000/svg" viewBox="0 0 29 33"><defs><style>polygon,rect,path{shape-rendering:crispedges;}.ma13-1{fill:#e55b35;}.ma13-2{fill:#000000;}.ma13-3{fill:#c6e5e4;}.ma13-4{fill:#00686d;}.ma13-5{fill:#ce8452;}.ma13-6{fill:#508e91;}.ma13-7{fill:#ffffff;}.ma13-8{fill:#663228;}.ma13-9{fill:#663228;}.ma13-10{fill:#c8a715;}.ma13-11{fill:#5a2de2;}</style></defs><path class="ma13-1" d="M0,33H6V27H7V26H8V25h2V20H9V16H8V15H9V11h1V9h1V8h7V9h1v1h1v5h1v1H20v4H19v5h2v1h1v1h1v6h6V0H0Z"/><path class="ma13-1" d="M12,22H11v2h1V22Z"/><path class="ma13-1" d="M18,22H17v2h1V22Z"/><path class="ma13-2" d="M23,27H22v6h1V27Z"/><rect class="ma13-2" x="21" y="26" width="1" height="1"/><path class="ma13-3" d="M21,28h1V27H21Z"/><path class="ma13-3" d="M21,30v1h1V29H21Z"/><path class="ma13-3" d="M21,32v1h1V32Z"/><path class="ma13-2" d="M21,31V27H20v6h1V31Z"/><path class="ma13-3" d="M19,32v1h1V32Z"/><path class="ma13-3" d="M19,26v1H18v3h1v1h1V29H19V28h1V27h1V26H19Z"/><path class="ma13-2" d="M20,26h1V25H19v1Z"/><path class="ma13-2" d="M18,30V25h1V24H17v1H16v1h1v7h1V30Z"/><path class="ma13-4" d="M17,26H16v1H13V26H12v7h5V26Z"/><path class="ma13-2" d="M13,26v1h3V26H13Z"/><path class="ma13-5" d="M16,23H13v3h3V23Z"/><path class="ma13-2" d="M12,26h1V25H12V24H10v1h1v8h1V26Z"/><path class="ma13-3" d="M9,27v1h1v1H9v2h1V30h1V27H10V26H8v1Z"/><rect class="ma13-3" x="9" y="32" width="1" height="1"/><path class="ma13-2" d="M10,25H8v1h2Z"/><path class="ma13-2" d="M9,31V27H8v6H9V31Z"/><rect class="ma13-2" x="7" y="26" width="1" height="1"/><path class="ma13-3" d="M7,32v1H8V32Z"/><path class="ma13-3" d="M8,28V27H7v1Z"/><path class="ma13-3" d="M7,30v1H8V29H7Z"/><path class="ma13-2" d="M7,31V27H6v6H7V31Z"/><path class="ma13-6" d="M11,30H10v1H9v1h1v1h1V30Z"/><path class="ma13-6" d="M10,27h1V25H10v2Z"/><path class="ma13-6" d="M18,26v1h1V25H18Z"/><path class="ma13-6" d="M7,29H8V28H7Z"/><path class="ma13-6" d="M10,28H9v1h1Z"/><path class="ma13-6" d="M21,29h1V28H21Z"/><path class="ma13-6" d="M19,29h1V28H19Z"/><path class="ma13-6" d="M21,32h1V31H21Z"/><path class="ma13-6" d="M7,32H8V31H7Z"/><path class="ma13-6" d="M20,32V31H19V30H18v3h1V32Z"/><rect class="ma13-2" x="20" y="15" width="1" height="1"/><path class="ma13-2" d="M19,12v3h1V11H19Z"/><path class="ma13-5" d="M10,17v1h1v1h1V18h2v1h1V18h2v1h1V18h1V16h1V15H16V14h2V13H16V12h2v1h1V11H18V10H17v1H16V10H15v1H14V10H13v1H12V10H11v1H10v2h1V12h2v1H11v1h2v1H9v1h1Zm4-1h1v1H14Z"/><polygon class="ma13-5" points="13 21 14 21 14 22 15 22 15 21 16 21 16 20 13 20 13 21"/><path class="ma13-2" d="M19,17h1V16H19Z"/><rect class="ma13-2" x="18" y="10" width="1" height="1"/><rect class="ma13-2" x="15" y="9" width="1" height="1"/><rect class="ma13-2" x="17" y="9" width="1" height="1"/><rect class="ma13-2" x="13" y="9" width="1" height="1"/><rect class="ma13-2" x="11" y="9" width="1" height="1"/><path class="ma13-2" d="M10,14V11H9v4h1Z"/><path class="ma13-2" d="M10,16H9v1h1Z"/><rect class="ma13-2" x="8" y="15" width="1" height="1"/><rect class="ma13-2" x="14" y="16" width="1" height="1"/><path class="ma13-7" d="M13,15V14H12v1Z"/><path class="ma13-7" d="M10,15h1V14H10Z"/><path class="ma13-7" d="M18,14v1h1V14Z"/><path class="ma13-7" d="M16,14v1h1V14Z"/><path class="ma13-2" d="M12,15V14H11v1Z"/><path class="ma13-2" d="M17,14v1h1V14Z"/><path class="ma13-8" d="M19,13H18v1h1Z"/><rect class="ma13-8" x="16" y="12" width="2" height="1"/><path class="ma13-8" d="M11,14V13H10v1Z"/><rect class="ma13-8" x="11" y="12" width="2" height="1"/><path class="ma13-9" d="M12,22v1h5V22h2V20h1V17H19v1H18v1H16v2H15v1H14V21H13V19h1V18H12v1H11V18H10V17H9v3h1v2h2Z"/><path class="ma13-9" d="M15,18v1h1V18Z"/><path class="ma13-10" d="M18,23h1V22H18Z"/><path class="ma13-9" d="M18,24h1V23H18Z"/><path class="ma13-10" d="M16,23v1h1V23Z"/><path class="ma13-9" d="M16,25h1V24H16Z"/><path class="ma13-10" d="M13,23H12v1h1Z"/><path class="ma13-9" d="M12,24v1h1V24Z"/><path class="ma13-10" d="M11,22H10v1h1Z"/><path class="ma13-9" d="M11,23H10v1h1Z"/><path class="ma13-2" d="M14,19H13v1h3V19H14Z"/><path class="ma13-2" d="M16,18v1h1V18Z"/><path class="ma13-11" d="M11,10V9H10v2h1Z"/><path class="ma13-11" d="M12,10v1h1V9h1v2h1V9h1v2h1V9h1V8H11V9h1Z"/><rect class="ma13-11" x="18" y="9" width="1" height="1"/><path class="ma13-11" d="M20,11V10H19v1Z"/></svg>