<svg xmlns="http://www.w3.org/2000/svg" viewBox="0 0 29 33"><defs><style>polygon,rect,path{shape-rendering:crispedges;}.cb279-1{fill:#db5a8e;}.cb279-2{fill:#000000;}.cb279-3{fill:#9b8100;}.cb279-4{fill:#ffffff;}.cb279-5{fill:#b2622b;}.cb279-6{fill:#9b8100;}.cb279-7{fill:#45ba00;}.cb279-8{fill:#004a77;}</style></defs><path class="cb279-1" d="M0,33H6V27H7V26H8V25h2V24h1V23h1V21H11V20H9V18H8V13H9V11h1V10h1V9h7v1h1v1h1v1h1v6H20v2H18v1H17v2h1v1h1v1h2v1h1v1h1v6h6V0H0Z"/><path class="cb279-2" d="M23,27H22v6h1V27Z"/><path class="cb279-3" d="M22,27H21v6h1V27Z"/><rect class="cb279-2" x="21" y="26" width="1" height="1"/><path class="cb279-2" d="M21,27H20v6h1V27Z"/><path class="cb279-3" d="M20,27h1V26H19V25H18v4H17v4h3V27Z"/><path class="cb279-2" d="M20,26h1V25H19v1Z"/><path class="cb279-2" d="M17,29H16v4h1V29Z"/><rect class="cb279-4" x="16" y="24" width="1" height="1"/><path class="cb279-4" d="M16,29h1V26H16V25H13v1H12v3h1v4h1V32h1v1h1V29Zm-1,2H14V30h1Zm0-2H14V28h1Zm0-2H14V26h1Z"/><rect class="cb279-4" x="15" y="23" width="1" height="1"/><rect class="cb279-2" x="14" y="32" width="1" height="1"/><rect class="cb279-2" x="14" y="30" width="1" height="1"/><rect class="cb279-2" x="14" y="28" width="1" height="1"/><rect class="cb279-2" x="14" y="26" width="1" height="1"/><rect class="cb279-4" x="13" y="23" width="1" height="1"/><path class="cb279-2" d="M13,29H12v4h1V29Z"/><rect class="cb279-4" x="12" y="24" width="1" height="1"/><path class="cb279-3" d="M12,29H11V25H10v1H8v1H9v6h3V29Z"/><path class="cb279-2" d="M11,26v3h1V26h1V25H12V24h1V23h1v1H13v1h3V24H15V23h1v1h1v1H16v1h1v3h1V25h1V24H18V23H17V21H16v1H13V21H12v2H11v1H10v1h1Z"/><path class="cb279-2" d="M10,25H8v1h2Z"/><path class="cb279-2" d="M9,27H8v6H9V27Z"/><path class="cb279-3" d="M8,27H7v6H8V27Z"/><rect class="cb279-2" x="7" y="26" width="1" height="1"/><path class="cb279-2" d="M7,27H6v6H7V27Z"/><rect class="cb279-2" x="19" y="14" width="1" height="1"/><path class="cb279-5" d="M13,14V13H11v1h2Z"/><rect class="cb279-5" x="9" y="15" width="1" height="1"/><rect class="cb279-5" x="17" y="13" width="1" height="1"/><rect class="cb279-5" x="19" y="15" width="1" height="1"/><rect class="cb279-5" x="17" y="11" width="1" height="1"/><path class="cb279-5" d="M13,22h3V21h1V20h1V19h1V18H18V15H16v1H15v1H14V16h1V14h1V12H15V11H14v4H13v2H12V15H11v3H10v1h1v1h1v1h1Zm-1-3V18h5v1H16v1H13V19Z"/><path class="cb279-2" d="M19,16v2h1V16Z"/><path class="cb279-2" d="M18,19v1h1V19Z"/><rect class="cb279-2" x="17" y="20" width="1" height="1"/><rect class="cb279-2" x="11" y="20" width="1" height="1"/><path class="cb279-2" d="M10,19v1h1V19Z"/><path class="cb279-2" d="M10,17V16H9v2h1Z"/><rect class="cb279-2" x="14" y="16" width="1" height="1"/><path class="cb279-4" d="M16,14v1h1V14Z"/><path class="cb279-2" d="M12,14H11v1h2V14Z"/><path class="cb279-2" d="M17,14v1h1V14Z"/><path class="cb279-6" d="M13,12H11v1h2Z"/><rect class="cb279-6" x="17" y="12" width="1" height="1"/><path class="cb279-7" d="M16,19h1V18H13v1Z"/><rect class="cb279-2" x="13" y="19" width="3" height="1"/><path class="cb279-2" d="M13,18H12v1h1Z"/><path class="cb279-8" d="M9,15h1v3h1V12h2v3h1V11h1v1h1v2h1V11h1v7h1V14h1v4h1V12H20V11H19V10H18V9H11v1H10v1H9v2H8v5H9V15Z"/><path class="cb279-8" d="M19,19v1h1V18H19Z"/><path class="cb279-8" d="M15,14v2h1V14Z"/><path class="cb279-8" d="M12,16v1h1V15H12Z"/><path class="cb279-8" d="M10,18H9v2h1V18Z"/></svg>