<svg xmlns="http://www.w3.org/2000/svg" viewBox="0 0 29 33"><defs><style>polygon,rect,path{shape-rendering:crispedges;}.ka44-1{fill:#db5a8e;}.ka44-2{fill:#000000;}.ka44-3{fill:#225600;}.ka44-4{fill:#45ba00;}.ka44-5{fill:#b2622b;}.ka44-6{fill:#893a1f;}.ka44-7{fill:#990000;}.ka44-8{fill:#ffffff;}.ka44-9{fill:#0068ff;}.ka44-10{fill:#ff1f4a;}</style></defs><path class="ka44-1" d="M0,33H6V27H7V26H8V25h2V24h2V21H11V20H10V19H9V16H8V15H9V13H8V9H9V8h1V7h1V6h7V7h1V8h1V9h1v4H20v2h1v1H20v3H19v1H18v1H17v3h2v1h2v1h1v1h1v6h6V0H0Z"/><path class="ka44-2" d="M23,27H22v6h1V27Z"/><rect class="ka44-2" x="21" y="26" width="1" height="1"/><path class="ka44-3" d="M21,31v2h1V31Z"/><path class="ka44-3" d="M21,28v2h1V27H21Z"/><path class="ka44-2" d="M21,30V27H20v6h1V30Z"/><path class="ka44-2" d="M20,26h1V25H19v1Z"/><path class="ka44-3" d="M20,32V26H19V25H17V24H16V23H13v1H12v1H10v1H9v6h1v1h4V32h1v1h4V32Zm-9-3H10V28h1Zm2,2H12V30h1Zm0-4H12V26h1Zm2,2H14V28h1Zm0-4H14V24h1Zm2,6H16V30h1Zm0-4H16V26h1Zm1,2V28h1v1Z"/><path class="ka44-2" d="M18,25h1V24H17v1Z"/><path class="ka44-2" d="M13,23h3v1h1V21H16v1H13V21H12v3h1Z"/><path class="ka44-2" d="M12,24H10v1h2Z"/><path class="ka44-2" d="M10,26V25H8v1h2Z"/><path class="ka44-2" d="M9,31V27H8v6H9V31Z"/><rect class="ka44-2" x="7" y="26" width="1" height="1"/><path class="ka44-3" d="M7,31v2H8V31Z"/><path class="ka44-3" d="M7,30H8V27H7v3Z"/><path class="ka44-2" d="M7,30V27H6v6H7V30Z"/><rect class="ka44-4" x="10" y="28" width="1" height="1"/><rect class="ka44-4" x="12" y="30" width="1" height="1"/><rect class="ka44-4" x="14" y="28" width="1" height="1"/><rect class="ka44-4" x="14" y="32" width="1" height="1"/><rect class="ka44-4" x="12" y="26" width="1" height="1"/><rect class="ka44-4" x="16" y="30" width="1" height="1"/><rect class="ka44-4" x="18" y="28" width="1" height="1"/><rect class="ka44-4" x="16" y="26" width="1" height="1"/><rect class="ka44-4" x="14" y="24" width="1" height="1"/><path class="ka44-4" d="M9,27V26H8v1Z"/><path class="ka44-4" d="M19,32v1h1V32Z"/><path class="ka44-4" d="M9,32v1h1V32Z"/><path class="ka44-4" d="M7,31H8V30H7Z"/><path class="ka44-4" d="M21,31h1V30H21Z"/><path class="ka44-4" d="M20,27h1V26H20Z"/><rect class="ka44-2" x="20" y="15" width="1" height="1"/><path class="ka44-5" d="M13,22h3V21h1V20h1V19h1V16H15v1H14V16H10v3h1v1h1v1h1Zm-1-3V18h1v1h3v1H13V19Z"/><path class="ka44-5" d="M18,12V11H11v1h2v1h1v1h1V13h2V12Z"/><rect class="ka44-5" x="14" y="15" width="1" height="1"/><rect class="ka44-5" x="10" y="12" width="1" height="1"/><path class="ka44-2" d="M19,17v2h1V16H19Z"/><rect class="ka44-2" x="18" y="19" width="1" height="1"/><rect class="ka44-2" x="17" y="20" width="1" height="1"/><rect class="ka44-2" x="11" y="20" width="1" height="1"/><rect class="ka44-2" x="10" y="19" width="1" height="1"/><path class="ka44-2" d="M10,16H9v3h1V16Z"/><rect class="ka44-2" x="8" y="15" width="1" height="1"/><rect class="ka44-2" x="14" y="16" width="1" height="1"/><path class="ka44-6" d="M11,12v1h2V12Z"/><path class="ka44-6" d="M18,12H17v1h2V12Z"/><rect class="ka44-2" x="13" y="19" width="3" height="1"/><rect class="ka44-2" x="12" y="18" width="1" height="1"/><path class="ka44-7" d="M10,12h1V11h7v1h1v1h2V9H20V8H19V7H18V6H11V7H10V8H9V9H8v4h2Z"/><path class="ka44-8" d="M11,16h3V15h1v1h5V13H15v1H14V13H9v3h2Zm5-2h3v1H16Zm-6,0h3v1H10Z"/><path class="ka44-9" d="M19,15V14H16v1h3Z"/><path class="ka44-10" d="M13,15V14H10v1h3Z"/></svg>