<svg xmlns="http://www.w3.org/2000/svg" viewBox="0 0 29 33"><defs><style>polygon,rect,path{shape-rendering:crispedges;}.ra44-1{fill:#e55b35;}.ra44-2{fill:#000000;}.ra44-3{fill:#508e91;}.ra44-4{fill:#e8b795;}.ra44-5{fill:#8e4717;}.ra44-6{fill:#6e12ff;}.ra44-7{fill:#db5800;}</style></defs><rect class="ra44-1" x="10" y="21" width="1" height="1"/><rect class="ra44-1" x="18" y="21" width="1" height="1"/><path class="ra44-1" d="M0,33H6V27H7V26H8V25h2V24h1V23H10V22H9V21H8V20H7V19H8V12H9V10h1V9h1V8h7V9h1v1h1v2h1v7h1v1H21v1H20v1H19v1H18v1h1v1h2v1h1v1h1v6h6V0H0Z"/><path class="ra44-2" d="M23,27H22v6h1V27Z"/><path class="ra44-3" d="M22,27H21v6h1V27Z"/><rect class="ra44-2" x="21" y="26" width="1" height="1"/><path class="ra44-2" d="M21,27H20v6h1V27Z"/><path class="ra44-3" d="M20,27h1V26H19V25H18V24H16v1h1v5H16V25H13v5H12V25h1V24H11v1H10v1H8v1H9v6H20V27Z"/><path class="ra44-2" d="M20,26h1V25H19v1Z"/><rect class="ra44-2" x="18" y="24" width="1" height="1"/><rect class="ra44-2" x="18" y="22" width="1" height="1"/><rect class="ra44-3" x="17" y="22" width="1" height="1"/><path class="ra44-2" d="M13,24v1h3V24H13Z"/><path class="ra44-4" d="M15,23H13v1h3V23Z"/><path class="ra44-2" d="M13,23h3v1h2V23H17V21H16v1H13V21H12v2H11v1h2Z"/><path class="ra44-3" d="M12,22H11v1h1Z"/><rect class="ra44-2" x="10" y="24" width="1" height="1"/><rect class="ra44-2" x="10" y="22" width="1" height="1"/><path class="ra44-2" d="M10,25H8v1h2Z"/><path class="ra44-2" d="M9,27H8v6H9V27Z"/><path class="ra44-3" d="M8,27H7v6H8V27Z"/><rect class="ra44-2" x="7" y="26" width="1" height="1"/><path class="ra44-2" d="M7,27H6v6H7V27Z"/><path class="ra44-2" d="M12,26v4h1V25H12Z"/><path class="ra44-2" d="M16,30h1V25H16v5Z"/><path class="ra44-2" d="M20,16h1V15H20Z"/><path class="ra44-4" d="M13,13h1v1h1V13h2V11H16V10H13v1H12v1h1Z"/><rect class="ra44-4" x="9" y="15" width="1" height="1"/><rect class="ra44-4" x="19" y="15" width="1" height="1"/><path class="ra44-4" d="M18,20V19h1V16H16V15H13v1H10v3h1v1h1v1h1v1h3V21h1V20Zm-4-4h1v1H14Zm2,4H13V19H12V18h1v1h3Z"/><path class="ra44-2" d="M19,17v2h1V16H19Z"/><rect class="ra44-2" x="18" y="19" width="1" height="1"/><rect class="ra44-2" x="17" y="20" width="1" height="1"/><rect class="ra44-2" x="11" y="20" width="1" height="1"/><rect class="ra44-2" x="10" y="19" width="1" height="1"/><path class="ra44-2" d="M10,16H9v3h1V16Z"/><path class="ra44-2" d="M9,15H8v1H9Z"/><rect class="ra44-2" x="14" y="16" width="1" height="1"/><path class="ra44-5" d="M13,12H11v1h2Z"/><path class="ra44-5" d="M18,13V12H17v1Z"/><rect class="ra44-2" x="13" y="19" width="3" height="1"/><rect class="ra44-2" x="12" y="18" width="1" height="1"/><path class="ra44-6" d="M20,17v2H19v1H18v1h1v1h1V21h1V20h1V19H21V16H20Z"/><path class="ra44-6" d="M9,14h1V13h1V12h1V11h1V10h3v1h1v1h1v1h1v1h1v1h1V12H20V10H19V9H18V8H11V9H10v1H9v2H8v3H9Z"/><path class="ra44-6" d="M11,21V20H10V19H9V16H8v3H7v1H8v1H9v1h1V21Z"/><path class="ra44-6" d="M11,22h1V21H11Z"/><path class="ra44-6" d="M18,21H17v1h1Z"/><path class="ra44-7" d="M10,16h3V15h1V14H10v2Z"/><path class="ra44-7" d="M15,14v1h1v1h3V14H15Z"/><path class="ra44-2" d="M16,13H15v1h4V13H16Z"/><path class="ra44-2" d="M14,14V13H10v1h4Z"/><path class="ra44-2" d="M20,15V14H19v1Z"/><path class="ra44-2" d="M10,14H9v1h1Z"/><path class="ra44-2" d="M14,14v1h1V14Z"/></svg>