<svg xmlns="http://www.w3.org/2000/svg" viewBox="0 0 29 33"><defs><style>polygon,rect,path{shape-rendering:crispedges;}.ra112-1{fill:#b4bd09;}.ra112-2{fill:#000000;}.ra112-3{fill:#184226;}.ra112-4{fill:#ce8452;}.ra112-5{fill:#ffffff;}.ra112-6{fill:#ffffff;}.ra112-7{fill:#473a35;}.ra112-8{fill:#cbed03;}.ra112-9{fill:#455054;}.ra112-10{fill:#ff1f4a;}.ra112-11{fill:#ffce00;}.ra112-12{fill:#002b4f;}</style></defs><path class="ra112-1" d="M9,24H8v1h2V24Z"/><path class="ra112-1" d="M8,32H6V31H5V22H6V21H7V20H5v1H2V17H5V16H8V15H9V10h1V9h1V8h7V9h1v1h1v5h1v1H20v6H19v3h2v1h1v1h1v6h6V0H0V33H8Z"/><path class="ra112-1" d="M8,19v3H9V16H8v3Z"/><path class="ra112-2" d="M6,24V22H5v9H6V24Z"/><path class="ra112-2" d="M23,27H22v6h1V27Z"/><path class="ra112-3" d="M22,27H21v6h1V27Z"/><rect class="ra112-2" x="21" y="26" width="1" height="1"/><path class="ra112-2" d="M21,27H20v6h1V27Z"/><path class="ra112-3" d="M19,32V31H18v1H17V30H16v1H15v1H13V30H12v2H11V31H10v1H9v1H20V32Z"/><path class="ra112-3" d="M18,26H17v3h1V28h1v1h1V27h1V26H19V25H18Z"/><rect class="ra112-3" x="16" y="24" width="1" height="1"/><rect class="ra112-3" x="18" y="29" width="1" height="1"/><path class="ra112-3" d="M10,28h1v1h1V25H11v2H10V26H8v1H9v2h1Z"/><rect class="ra112-3" x="10" y="29" width="1" height="1"/><rect class="ra112-3" x="12" y="24" width="1" height="1"/><path class="ra112-2" d="M20,26h1V25H19v1Z"/><path class="ra112-2" d="M15,24H13v1h3V24Z"/><path class="ra112-4" d="M16,24V23H13v1h3Z"/><path class="ra112-2" d="M9,31V27H8V26h2V25H8V24H7v7H6v1H8v1H9V31Z"/><path class="ra112-3" d="M7,30V24H6v7H7Z"/><path class="ra112-3" d="M14,29v2h1V29Z"/><path class="ra112-3" d="M13,25v3h2v1h1V25H13Z"/><path class="ra112-5" d="M19,30H18V29H17v3h1V31h1v1h1V29H19Z"/><rect class="ra112-5" x="18" y="28" width="1" height="1"/><path class="ra112-5" d="M15,29v2h1V29Z"/><path class="ra112-5" d="M14,30V29h1V28H13v4h2V31H14Z"/><path class="ra112-5" d="M11,29v1H10V29H9v3h1V31h1v1h1V29Z"/><rect class="ra112-5" x="10" y="28" width="1" height="1"/><path class="ra112-2" d="M13,25H12v5h1V25Z"/><path class="ra112-2" d="M17,28V25H16v5h1V28Z"/><rect class="ra112-2" x="20" y="15" width="1" height="1"/><path class="ra112-4" d="M10,13v1h2V13H10Z"/><path class="ra112-4" d="M10,16v3h1v1h1v1h1v1h3V21h1V20h1V19h1V15H16V14h2V13H16V12h1V11H15V10H12v1H11v1h1v1h1v2H9v1Zm4,0h1v1H14Zm-1,3h3V18h1v1H16v1H13Z"/><path class="ra112-2" d="M19,17v2h1V16H19Z"/><rect class="ra112-2" x="18" y="19" width="1" height="1"/><rect class="ra112-2" x="17" y="20" width="1" height="1"/><path class="ra112-2" d="M12,24h1V23h3v1h1V21H16v1H13V21H12v3Z"/><rect class="ra112-2" x="11" y="20" width="1" height="1"/><rect class="ra112-2" x="10" y="19" width="1" height="1"/><path class="ra112-2" d="M10,18V16H9v3h1Z"/><rect class="ra112-2" x="8" y="15" width="1" height="1"/><rect class="ra112-2" x="14" y="16" width="1" height="1"/><path class="ra112-6" d="M12,15h1V14H12Z"/><path class="ra112-6" d="M10,14v1h1V14Z"/><path class="ra112-6" d="M18,14v1h1V14Z"/><path class="ra112-6" d="M16,14v1h1V14Z"/><path class="ra112-2" d="M11,14v1h1V14Z"/><path class="ra112-2" d="M17,14v1h1V14Z"/><polygon class="ra112-7" points="17 12 16 12 16 13 18 13 18 12 17 12"/><path class="ra112-7" d="M13,14V13H12v1Z"/><path class="ra112-7" d="M12,13V12H11v1Z"/><rect class="ra112-2" x="13" y="19" width="3" height="1"/><rect class="ra112-2" x="16" y="18" width="1" height="1"/><path class="ra112-8" d="M11,27V25h1V21H11V20H10V19H9v5h1v3Z"/><path class="ra112-8" d="M10,14V13h1V11h1V10h3v1h2v1h1v2h1v2h1V10H19V9H18V8H11V9H10v1H9v5h1Z"/><path class="ra112-8" d="M19,20H18v1H17v5h1V25h1V22h1V19H19Z"/><path class="ra112-4" d="M7,24H8V22H6v2Z"/><path class="ra112-9" d="M8,22V20H7v2Z"/><path class="ra112-2" d="M7,21H6v1H7Z"/><path class="ra112-2" d="M9,22H8v2H9Z"/><path class="ra112-10" d="M2,20v1H5V20H2Z"/><path class="ra112-10" d="M8,19H5v1H8Z"/><path class="ra112-11" d="M5,19V18H8V16H5v1H2v2H5Z"/><path class="ra112-12" d="M4,19H2v1H5V19Z"/><path class="ra112-12" d="M6,18H5v1H8V18Z"/></svg>