<svg xmlns="http://www.w3.org/2000/svg" viewBox="0 0 29 33"><defs><style>polygon,rect,path{shape-rendering:crispedges;}.pa57-1{fill:#b4bd09;}.pa57-2{fill:#000000;}.pa57-3{fill:#8ab2b2;}.pa57-4{fill:#e8b795;}.pa57-5{fill:#ffffff;}.pa57-6{fill:#ffffff;}.pa57-7{fill:#893a1f;}.pa57-8{fill:#893a1f;}.pa57-9{fill:#c8a715;}.pa57-10{fill:#990000;}</style></defs><path class="pa57-1" d="M0,33H6V27H7V26H8V25h2V20H9V16H8V15H9V11h1V10h1V9h2V7h1V5h1V6h1V8h1V9h1v1h1v1h1v4h1v1H20v4H19v5h2v1h1v1h1v6h6V0H0Z"/><path class="pa57-2" d="M23,27H22v6h1V27Z"/><path class="pa57-3" d="M22,27H21v6h1V27Z"/><rect class="pa57-2" x="21" y="26" width="1" height="1"/><path class="pa57-2" d="M21,27H20v6h1V27Z"/><path class="pa57-3" d="M20,27h1V26H19V25H18V24H17v4h2v1H17v2h1V30h1v2H16V25H13v3h2v4H12V24H11v1H10v1H8v1H9v6H20V27Zm-9,2v3H10V28h1Z"/><path class="pa57-2" d="M20,26h1V25H19v1Z"/><path class="pa57-2" d="M18,25h1V24H18Z"/><rect class="pa57-3" x="17" y="22" width="1" height="1"/><rect class="pa57-2" x="17" y="23" width="1" height="1"/><path class="pa57-2" d="M15,24H13v1h3V24Z"/><path class="pa57-4" d="M14,24h2V23H13v1Z"/><rect class="pa57-2" x="11" y="23" width="1" height="1"/><rect class="pa57-3" x="11" y="22" width="1" height="1"/><path class="pa57-2" d="M11,24H10v1h1Z"/><path class="pa57-2" d="M10,25H8v1h2Z"/><path class="pa57-2" d="M9,27H8v6H9V27Z"/><path class="pa57-3" d="M8,27H7v6H8V27Z"/><rect class="pa57-2" x="7" y="26" width="1" height="1"/><path class="pa57-2" d="M7,27H6v6H7V27Z"/><path class="pa57-3" d="M14,31V29H13v2Z"/><path class="pa57-5" d="M14,29v2H13V30H12v2h3V28H13v1Z"/><path class="pa57-5" d="M10,29v3h1V28H10Z"/><path class="pa57-5" d="M18,29h1V28H17v1Z"/><path class="pa57-5" d="M16,31v1h3V30H18v1H17V30H16Z"/><path class="pa57-2" d="M12,26v4h1V25H12Z"/><path class="pa57-2" d="M16,26v4h1V25H16Z"/><rect class="pa57-2" x="20" y="15" width="1" height="1"/><path class="pa57-2" d="M19,14v1h1V11H19v3Z"/><path class="pa57-4" d="M10,17v1h1v1h1V18h2v1h1V18h2v1h1V18h1V16h1V15H16V14h2V13H16V12h2v1h1V11H18V10H14v1H13V10H11v1H10v1h2v1h1v2H9v1h1Zm4-1h1v1H14Z"/><polygon class="pa57-4" points="13 21 14 21 14 22 15 22 15 21 16 21 16 20 13 20 13 21"/><path class="pa57-4" d="M10,14h2V13H10Z"/><path class="pa57-2" d="M19,17h1V16H19Z"/><rect class="pa57-2" x="18" y="10" width="1" height="1"/><path class="pa57-2" d="M15,10h3V9H15Z"/><path class="pa57-2" d="M13,9H11v1h2Z"/><rect class="pa57-2" x="10" y="10" width="1" height="1"/><path class="pa57-2" d="M10,14V11H9v4h1Z"/><path class="pa57-2" d="M10,16H9v1h1Z"/><rect class="pa57-2" x="8" y="15" width="1" height="1"/><rect class="pa57-2" x="14" y="16" width="1" height="1"/><path class="pa57-6" d="M12,15h1V14H12Z"/><path class="pa57-6" d="M10,14v1h1V14Z"/><path class="pa57-6" d="M18,14v1h1V14Z"/><path class="pa57-6" d="M16,14v1h1V14Z"/><path class="pa57-2" d="M11,14v1h1V14Z"/><path class="pa57-2" d="M17,14v1h1V14Z"/><path class="pa57-7" d="M19,13H18v1h1Z"/><rect class="pa57-7" x="16" y="12" width="2" height="1"/><path class="pa57-7" d="M13,14V13H12v1Z"/><path class="pa57-7" d="M12,13V12H10v1Z"/><path class="pa57-8" d="M12,22v1h5V22h2V20h1V17H19v1H18v1H16v2H15v1H14V21H13V19h1V18H12v1H11V18H10V17H9v3h1v2h2Z"/><path class="pa57-8" d="M15,18v1h1V18Z"/><path class="pa57-9" d="M18,23h1V22H18Z"/><path class="pa57-8" d="M18,24h1V23H18Z"/><path class="pa57-9" d="M16,23v1h1V23Z"/><path class="pa57-8" d="M16,25h1V24H16Z"/><path class="pa57-9" d="M13,23H12v1h1Z"/><path class="pa57-8" d="M12,24v1h1V24Z"/><path class="pa57-9" d="M11,22H10v1h1Z"/><path class="pa57-8" d="M11,23H10v1h1Z"/><path class="pa57-2" d="M14,19H13v1h3V19H14Z"/><path class="pa57-2" d="M16,18v1h1V18Z"/><path class="pa57-10" d="M13,11h1V10h1V9h2V8H16V6H15V5H14V7H13v4Z"/></svg>