<svg xmlns="http://www.w3.org/2000/svg" viewBox="0 0 29 33"><defs><style>polygon,rect,path{shape-rendering:crispedges;}.oa281-1{fill:#397d98;}.oa281-2{fill:#000000;}.oa281-3{fill:#c6e5e4;}.oa281-4{fill:#333333;}.oa281-5{fill:#e8b795;}.oa281-6{fill:#9fffc6;}.oa281-7{fill:#004a77;}.oa281-8{fill:#ffffff;}.oa281-9{fill:#ff5e17;}</style></defs><rect class="oa281-1" x="16" y="21" width="1"/><rect class="oa281-1" x="10" y="19" width="1"/><rect class="oa281-1" x="17" y="20" width="1"/><rect class="oa281-1" x="18" y="19" width="1"/><rect class="oa281-1" x="11" y="20" width="1"/><path class="oa281-1" d="M0,33H29V0H0Zm6-1V27H7V26H8V25h2V24h2V21H11V20H10V19H9V16H9v2H8V12H9V10h1V9h1V8h7V9h1v1h1v5h1v1H20v3H19v1H18v1H17v3h2v1h2v1h1v1h1v6H6Z"/><rect class="oa281-1" x="15" y="16" height="1"/><path class="oa281-1" d="M13,22h0V21h0Z"/><path class="oa281-2" d="M22,30v3h1V27H22v3Z"/><rect class="oa281-2" x="21" y="26" width="1" height="1"/><path class="oa281-3" d="M21,31v2h1V31Z"/><path class="oa281-3" d="M21,28v2h1V27H21Z"/><path class="oa281-2" d="M21,30V27H20v6h1V30Z"/><path class="oa281-3" d="M18,26v2h1v1H18v4h1V32h1V26H19V25H18Z"/><path class="oa281-2" d="M20,26h1V25H19v1Z"/><path class="oa281-2" d="M16,25v1h1v7h1V25h1V24H17v1Z"/><path class="oa281-4" d="M17,26H16v1H13V26H12v7h5V26Z"/><path class="oa281-2" d="M14,27h2V26H13v1Z"/><path class="oa281-2" d="M13,23h3v1h1V21H16v1H13V21H12v3h1Z"/><path class="oa281-5" d="M13,25v1h3V25h1V24H16V23H13v1H12v1Z"/><path class="oa281-2" d="M11,26v7h1V26h1V25H12V24H10v1h1Z"/><path class="oa281-3" d="M9,26v6h1v1h1V29H10V28h1V25H10v1Z"/><path class="oa281-2" d="M10,26V25H8v1h2Z"/><path class="oa281-2" d="M9,31V27H8v6H9V31Z"/><rect class="oa281-2" x="7" y="26" width="1" height="1"/><path class="oa281-3" d="M7,30H8V27H7v3Z"/><path class="oa281-3" d="M7,31v2H8V31Z"/><path class="oa281-2" d="M7,32V27H6v6H7Z"/><path class="oa281-6" d="M10,28v1h1V28Z"/><path class="oa281-6" d="M19,28H18v1h1Z"/><path class="oa281-6" d="M9,27V26H8v1Z"/><path class="oa281-6" d="M19,32v1h1V32Z"/><path class="oa281-6" d="M9,32v1h1V32Z"/><path class="oa281-6" d="M8,30H7v1H8Z"/><path class="oa281-6" d="M22,31V30H21v1Z"/><path class="oa281-6" d="M20,27h1V26H20Z"/><polygon class="oa281-2" points="21 16 21 15 20 15 20 16 21 16"/><path class="oa281-5" d="M19,11H18V10H16v1H14v1H13v1h4V12h2v1H18v1h1V11Z"/><path class="oa281-5" d="M10,18v1h1v1h1v1h1v1h3V21h1V20h1V19h1V16h1V15H18v1H16V15H15V14H14v1H13v1H11V15H9v1h1Zm4-2h1v1H14Zm-2,2h5v1H16v1H13V19H12Z"/><path class="oa281-2" d="M19,19h1V16H19Z"/><rect class="oa281-2" x="18" y="10" height="1"/><polygon class="oa281-2" points="18 19 18 20 18 20 19 20 19 19 18 19 18 19"/><polygon class="oa281-2" points="17 20 17 21 17 21 18 21 18 20 17 20 17 20"/><polygon class="oa281-2" points="12 20 12 20 11 20 11 21 12 21 12 21 12 20"/><polygon class="oa281-2" points="11 19 11 19 10 19 10 20 11 20 11 20 11 19"/><path class="oa281-2" d="M10,18V16H9v3h1Z"/><polygon class="oa281-2" points="15 16 14 16 14 17 15 17 15 16"/><path class="oa281-7" d="M19,12H17v1h2Z"/><path class="oa281-2" d="M13,18H12v1h1Z"/><path class="oa281-2" d="M17,19V18H16v1Z"/><path class="oa281-2" d="M13,19v1h3V19H15V18H14v1Z"/><path class="oa281-8" d="M14,19V18H13v1Z"/><path class="oa281-8" d="M16,19V18H15v1Z"/><path class="oa281-9" d="M11,14V13h2V12h1V11h2V10h2v1h1v3h1V10H19V9H18V8H11V9H10v1H9v2H8v6H9V14Z"/><path class="oa281-2" d="M10,15h1v1h2V15h1V14h1v1h1v1h2V15h2V14H18V13H11v1H9v2H9V15Z"/></svg>