<svg xmlns="http://www.w3.org/2000/svg" viewBox="0 0 29 33"><defs><style>polygon,rect,path{shape-rendering:crispedges;}.za98-1{fill:#29834f;}.za98-2{fill:#000000;}.za98-3{fill:#4fdb7d;}.za98-4{fill:#ce8452;}.za98-5{fill:#ffffff;}.za98-6{fill:#ff1d99;}.za98-7{fill:#ff1d99;}.za98-8{fill:#ff5e17;}.za98-9{fill:#ffffff;}.za98-10{fill:#0068ff;}.za98-11{fill:#ff1f4a;}</style></defs><path class="za98-1" d="M0,33H6V27H7V26H8V25h2V24h1V23h1V21H11V20H10V19H9V16H8V15H9V11h1V10h1V7h1V6H11V5h2V6h2V7h1V9h2v1h1v1h1v4h1v1H20v3H19v1H18v1H17v2h1v1h1v1h2v1h1v1h1v6h6V0H0Z"/><path class="za98-2" d="M23,27H22v6h1V27Z"/><path class="za98-3" d="M21,31v2h1V31Z"/><path class="za98-3" d="M21,28v2h1V27H21Z"/><rect class="za98-2" x="21" y="26" width="1" height="1"/><path class="za98-2" d="M21,30V27H20v6h1V30Z"/><path class="za98-3" d="M20,32V26H19V25H18v1H17v1H16V25H15v2H14V25H13v2H12V26H11V25H10v1H9v6h1v1h4V32h1v1h4V32Zm-9-3H10V28h1Zm2,2H12V30h1Zm2,0H14V30h1Zm0-2H14V28h1Zm2,2H16V30h1Zm1-2V28h1v1Z"/><path class="za98-2" d="M20,26h1V25H19v1Z"/><rect class="za98-3" x="16" y="24" width="1" height="1"/><rect class="za98-2" x="15" y="24" width="1" height="1"/><rect class="za98-2" x="14" y="32" width="1" height="1"/><rect class="za98-2" x="14" y="30" width="1" height="1"/><rect class="za98-2" x="14" y="28" width="1" height="1"/><path class="za98-2" d="M14,26v1h1V25H14Z"/><rect class="za98-2" x="13" y="24" width="1" height="1"/><path class="za98-4" d="M16,24V23H13v1h1v1h1V24Z"/><rect class="za98-3" x="12" y="24" width="1" height="1"/><path class="za98-2" d="M11,26h2V25H12V24h1V23h3v1h1v1H16v1h2V25h1V24H18V23H17V21H16v1H13V21H12v2H11v1H10v1h1Z"/><path class="za98-2" d="M10,26V25H8v1h2Z"/><path class="za98-2" d="M9,31V27H8v6H9V31Z"/><path class="za98-3" d="M7,30H8V27H7v3Z"/><path class="za98-3" d="M7,31v2H8V31Z"/><rect class="za98-2" x="7" y="26" width="1" height="1"/><path class="za98-2" d="M7,30V27H6v6H7V30Z"/><rect class="za98-5" x="10" y="28" width="1" height="1"/><rect class="za98-5" x="12" y="30" width="1" height="1"/><path class="za98-5" d="M12,27h1V26H12Z"/><rect class="za98-5" x="16" y="30" width="1" height="1"/><rect class="za98-5" x="18" y="28" width="1" height="1"/><path class="za98-5" d="M16,27h1V26H16Z"/><path class="za98-5" d="M9,27V26H8v1Z"/><path class="za98-5" d="M19,32v1h1V32Z"/><path class="za98-5" d="M9,32v1h1V32Z"/><path class="za98-5" d="M7,31H8V30H7Z"/><path class="za98-5" d="M21,31h1V30H21Z"/><path class="za98-5" d="M20,27h1V26H20Z"/><rect class="za98-2" x="20" y="15" width="1" height="1"/><path class="za98-2" d="M19,13h1V11H19v2Z"/><rect class="za98-4" x="14" y="15" width="1" height="1"/><path class="za98-4" d="M13,12v1h1v1h1V13h1V12h3V11H18V10H16v1H14V10H11v1H10v1Z"/><path class="za98-4" d="M12,19V18h5v2h1V19h1V16H15v1H14V16H10v3h1v1h1Z"/><path class="za98-4" d="M13,20v2h3V20Z"/><path class="za98-2" d="M19,17v2h1V16H19Z"/><rect class="za98-2" x="18" y="10" width="1" height="1"/><rect class="za98-2" x="18" y="19" width="1" height="1"/><rect class="za98-2" x="17" y="20" width="1" height="1"/><path class="za98-2" d="M13,9H11v1h2Z"/><path class="za98-2" d="M17,10h1V9H16v1Z"/><rect class="za98-2" x="11" y="20" width="1" height="1"/><rect class="za98-2" x="10" y="10" width="1" height="1"/><rect class="za98-2" x="10" y="19" width="1" height="1"/><path class="za98-2" d="M10,12V11H9v2h1Z"/><path class="za98-2" d="M10,16H9v3h1V16Z"/><rect class="za98-2" x="8" y="15" width="1" height="1"/><rect class="za98-2" x="14" y="16" width="1" height="1"/><path class="za98-6" d="M10,12v1h3V12Z"/><path class="za98-6" d="M16,12v1h3V12Z"/><path class="za98-7" d="M17,19H16v2h1V19Z"/><path class="za98-7" d="M13,20V19h3V18H12v3h1Z"/><path class="za98-2" d="M16,19H13v1h3Z"/><path class="za98-2" d="M17,18H16v1h1Z"/><path class="za98-8" d="M13,10h1v1h2V7H15V6H13V5H11V6h1V7H11V9h2Z"/><path class="za98-9" d="M11,16h3V15h1v1h5V13H15v1H14V13H9v3h2Zm5-2h3v1H16Zm-6,0h3v1H10Z"/><path class="za98-10" d="M19,15V14H16v1h3Z"/><path class="za98-11" d="M13,15V14H10v1h3Z"/><rect class="za98-8" x="10" y="9" width="1" height="1"></rect></svg>