<svg xmlns="http://www.w3.org/2000/svg" viewBox="0 0 29 33"><defs><style>polygon,rect,path{shape-rendering:crispedges;}.ga127-1{fill:#db5a8e;}.ga127-2{fill:#000000;}.ga127-3{fill:#8e9350;}.ga127-4{fill:#a56e49;}.ga127-5{fill:#ffffff;}.ga127-6{fill:#5e362f;}.ga127-7{fill:#5e362f;}.ga127-8{fill:#825fff;}</style></defs><path class="ga127-1" d="M0,33H6V24H7V23H8v1H9v1h1V24h2V21H9V20H8V19H9V16H8V15H9V10h1V9h1V8h7V9h1v1h1v5h1v1H20v3h1v1H20v1H17v3h2v1h1V24h1V23h1v1h1v9h6V0H0Z"/><path class="ga127-2" d="M7,27V24H6v9H7V27Z"/><path class="ga127-3" d="M8,27H7v6H8V27Z"/><path class="ga127-2" d="M9,27H8v6H9V27Z"/><path class="ga127-3" d="M20,27H19V25H17v1H16v1H13V26H12V25H10v2H9v6H20V27Z"/><path class="ga127-2" d="M12,24H10v1h2Z"/><path class="ga127-2" d="M13,23h3v1h1V21H16v1H13V21H12v3h1Z"/><rect class="ga127-2" x="12" y="25" width="1" height="1"/><path class="ga127-2" d="M13,26v1h3V26H13Z"/><path class="ga127-4" d="M13,25v1h3V25h1V24H16V23H13v1H12v1Z"/><rect class="ga127-2" x="16" y="25" width="1" height="1"/><path class="ga127-2" d="M18,25h1V24H17v1Z"/><path class="ga127-2" d="M21,27H20v6h1V27Z"/><path class="ga127-3" d="M22,27H21v6h1V27Z"/><path class="ga127-2" d="M23,24H22v9h1V24Z"/><rect class="ga127-2" x="20" y="15" width="1" height="1"/><path class="ga127-2" d="M19,15h1V14H19Z"/><path class="ga127-4" d="M10,14h2V13H10Z"/><path class="ga127-4" d="M13,22h3V21h1V19H16v1H13V19h3V18h1v1h1V18h1V16h1V15H18v1H17v1H16V14H15V12H14V11H13V10H11v1H10v1h2v1h1v2H9v1h1v2h1v1h1v2h1Zm1-6h1v1H14Z"/><path class="ga127-2" d="M17,20v1h1V20Z"/><path class="ga127-2" d="M11,20v1h1V20Z"/><rect class="ga127-2" x="8" y="15" width="1" height="1"/><rect class="ga127-2" x="14" y="16" width="1" height="1"/><path class="ga127-5" d="M12,15h1V14H12Z"/><path class="ga127-2" d="M11,14H10v1h2V14Z"/><path class="ga127-6" d="M13,14V13H12v1Z"/><rect class="ga127-6" x="10" y="12" width="2" height="1"/><path class="ga127-7" d="M19,17v1H18v1H17v1h1v1h2V20h1V19H20V16H19Z"/><path class="ga127-7" d="M12,20V19H11V18H10V16H9v3H8v1H9v1h2V20Z"/><rect class="ga127-2" x="13" y="19" width="3" height="1"/><rect class="ga127-2" x="16" y="18" width="1" height="1"/><path class="ga127-4" d="M21,27h1V24H21v1H20v2Z"/><path class="ga127-2" d="M20,27V25H19v2Z"/><rect class="ga127-2" x="20" y="24" width="1" height="1"/><rect class="ga127-2" x="21" y="23" width="1" height="1"/><path class="ga127-4" d="M7,27H9V25H8V24H7v3Z"/><path class="ga127-2" d="M10,27V25H9v2Z"/><rect class="ga127-2" x="8" y="24" width="1" height="1"/><rect class="ga127-2" x="7" y="23" width="1" height="1"/><path class="ga127-8" d="M10,14V11h1V10h2v1h1v1h1v2h1v3h1V16h1V15h1V14h1V10H19V9H18V8H11V9H10v1H9v5h1Z"/></svg>