<svg xmlns="http://www.w3.org/2000/svg" viewBox="0 0 29 33"><defs><style>polygon,rect,path{shape-rendering:crispedges;}.ba22-1{fill:#29834f;}.ba22-2{fill:#000000;}.ba22-3{fill:#e8b795;}.ba22-4{fill:#ffffff;}.ba22-5{fill:#0068ff;}.ba22-6{fill:#8e703c;}.ba22-7{fill:#99004d;}.ba22-8{fill:#ffffff;}.ba22-9{fill:#c6e5e4;}</style></defs><path class="ba22-1" d="M0,33H6V27H7V26H8V25h2V24h2V21H11V20H10V19H9V16H8V15H9V11h1V10h1V9h7v1h1v1h1v4h1v1H20v3H19v1H18v1H17v3h2v1h2V23h2V22H22V21H21V20h1V19h3v1h1v1H25v1H24v1h1v1H24v7H23v1H21v1h8V0H0Z"/><path class="ba22-2" d="M7,27H6v6H7V27Z"/><rect class="ba22-2" x="7" y="26" width="1" height="1"/><path class="ba22-3" d="M8,27H7v6H8V27Z"/><rect class="ba22-3" x="8" y="26" width="1" height="1"/><path class="ba22-2" d="M9,27H8v6H9V27Z"/><path class="ba22-2" d="M10,26V25H8v1h2Z"/><path class="ba22-4" d="M20,27V26H19V25H18v1H17v1H16v1H13V27H12V26H11V25H10v1H9v7h1V29h1v4h1V29h3v4h1V29h3v1H17v2h1V31h1v2h1V27Z"/><rect class="ba22-4" x="13" y="30" width="1" height="2"/><path class="ba22-2" d="M11,26h1V24H10v1h1Z"/><path class="ba22-2" d="M13,23h3v1h1V21H16v1H13V21H12v3h1Z"/><rect class="ba22-2" x="12" y="26" width="1" height="1"/><path class="ba22-2" d="M13,27v1h3V27H13Z"/><path class="ba22-3" d="M13,26v1h3V26h1V24H16V23H13v1H12v2Z"/><rect class="ba22-2" x="16" y="26" width="1" height="1"/><path class="ba22-2" d="M18,26V25h1V24H17v2Z"/><path class="ba22-3" d="M21,27V26H20v1Z"/><path class="ba22-2" d="M22,32h1V31H22V23H21v2H19v1h2v1H20v6h1V32Z"/><path class="ba22-3" d="M22,31h1V24h1V23H22v8Z"/><path class="ba22-2" d="M23,25v6h1V24H23Z"/><path class="ba22-5" d="M12,29v4h3V29Zm2,3H13V30h1Z"/><path class="ba22-5" d="M11,29H10v4h1V29Z"/><path class="ba22-5" d="M18,31v1H17V30h2V29H16v4h3V31Z"/><rect class="ba22-2" x="20" y="15" width="1" height="1"/><path class="ba22-2" d="M19,15h1V14H19Z"/><path class="ba22-3" d="M13,22h3V21h1V20h1V19h1V16H18v1H16V16H15v1H14V16H13v1H11V16H10v3h1v1h1v1h1Zm0-3h3v1H13Z"/><path class="ba22-3" d="M11,13V12h2v2h3V13h1V12h2V11H18V10H11v1H10v2Z"/><rect class="ba22-3" x="19" y="15" width="1" height="1"/><rect class="ba22-3" x="14" y="15" width="1" height="1"/><rect class="ba22-3" x="18" y="13" width="1" height="1"/><rect class="ba22-3" x="9" y="15" width="1" height="1"/><path class="ba22-2" d="M19,17v2h1V16H19Z"/><rect class="ba22-2" x="18" y="19" width="1" height="1"/><rect class="ba22-2" x="17" y="20" width="1" height="1"/><rect class="ba22-2" x="11" y="20" width="1" height="1"/><rect class="ba22-2" x="10" y="19" width="1" height="1"/><path class="ba22-2" d="M10,14H9v1h1Z"/><path class="ba22-2" d="M10,16H9v3h1V16Z"/><rect class="ba22-2" x="8" y="15" width="1" height="1"/><rect class="ba22-2" x="14" y="16" width="1" height="1"/><rect class="ba22-6" x="10" y="13" width="1" height="1"/><path class="ba22-6" d="M13,12H11v1h2Z"/><path class="ba22-6" d="M19,13V12H17v1h2Z"/><rect class="ba22-2" x="13" y="19" width="3" height="1"/><path class="ba22-7" d="M19,13v1h1V11H19v2Z"/><rect class="ba22-7" x="18" y="10" width="1" height="1"/><path class="ba22-7" d="M18,10V9H11v1h7Z"/><rect class="ba22-7" x="10" y="10" width="1" height="1"/><path class="ba22-7" d="M10,13V11H9v3h1Z"/><path class="ba22-8" d="M12,14h1V13H11v1Z"/><path class="ba22-8" d="M11,17h2V16H11Z"/><path class="ba22-8" d="M10,14v2h1V14Z"/><path class="ba22-2" d="M12,14H11v2h2V14Z"/><path class="ba22-8" d="M19,14H18v2h1V14Z"/><path class="ba22-8" d="M18,13H16v1h2Z"/><path class="ba22-8" d="M16,17h2V16H16Z"/><path class="ba22-8" d="M13,14v2h1V15h1v1h1V14Z"/><path class="ba22-2" d="M16,14v2h2V14Z"/><path class="ba22-8" d="M25,22V21h1V20H25V19H23v1h1v1H23v1h2Z"/><path class="ba22-9" d="M24,21V20H23V19H22v1H21v1h1v1h1V21Z"/><path class="ba22-9" d="M24,22H23v1h1Z"/><rect class="ba22-2" x="24" y="23" width="1" height="1"/></svg>