<svg xmlns="http://www.w3.org/2000/svg" viewBox="0 0 29 33"><defs><style>polygon,rect,path{shape-rendering:crispedges;}.za263-1{fill:#d14646;}.za263-2{fill:#000000;}.za263-3{fill:#72dd40;}.za263-4{fill:#a56e49;}.za263-5{fill:#317f03;}.za263-6{fill:#ffffff;}.za263-7{fill:#00686d;}.za263-8{fill:#c9a717;}</style></defs><path class="za263-1" d="M0,33H6V27H7V26H8V25h2V24h1V23h1V21H11V20H10V19H9V16H8V15H9V14H8V13H4V12H6V11H8V10h2V9h1V8h1V7h1V6h1V5h1V6h1V7h1V8h1V9h1v1h2v1h2v1h2v1H21v1H20v1h1v1H20v3H19v1H18v1H17v2h1v1h1v1h2v1h1v1h1v6h6V0H0Z"/><path class="za263-2" d="M23,27H22v6h1V27Z"/><path class="za263-3" d="M21,28h1V27H21Z"/><path class="za263-3" d="M21,31h1V30H21Z"/><rect class="za263-2" x="21" y="26" width="1" height="1"/><path class="za263-2" d="M21,30V27H20v6h1V30Z"/><rect class="za263-3" x="9" y="30" width="5" height="1"/><path class="za263-3" d="M15,31h5V30H15Z"/><path class="za263-3" d="M14,27H9v1H20V27H14Z"/><path class="za263-2" d="M20,26h1V25H19v1Z"/><rect class="za263-3" x="16" y="24" width="1" height="1"/><rect class="za263-2" x="15" y="24" width="1" height="1"/><rect class="za263-2" x="14" y="32" width="1" height="1"/><rect class="za263-2" x="14" y="30" width="1" height="1"/><path class="za263-2" d="M15,29V28H14v1Z"/><path class="za263-2" d="M15,26V25H14v2h1Z"/><rect class="za263-2" x="13" y="24" width="1" height="1"/><path class="za263-4" d="M15,24h1V23H13v1h1v1h1Z"/><rect class="za263-3" x="12" y="24" width="1" height="1"/><path class="za263-2" d="M11,26h2V25H12V24h1V23h3v1h1v1H16v1h2V25h1V24H18V23H17V21H16v1H13V21H12v2H11v1H10v1h1Z"/><path class="za263-2" d="M10,25H8v1h2Z"/><path class="za263-2" d="M9,30V27H8v6H9V30Z"/><path class="za263-3" d="M8,28V27H7v1Z"/><path class="za263-3" d="M7,31H8V30H7Z"/><rect class="za263-2" x="7" y="26" width="1" height="1"/><path class="za263-2" d="M7,30V27H6v6H7V30Z"/><path class="za263-5" d="M15,31H9v2h5V32h1v1h5V31Z"/><path class="za263-5" d="M15,29H14V28H9v2H20V28H15Z"/><path class="za263-5" d="M18,26H16V25H15v2h6V26H19V25H18Z"/><path class="za263-5" d="M9,27h5V25H13v1H11V25H10v1H8v1Z"/><path class="za263-5" d="M7,29v1H8V28H7Z"/><path class="za263-5" d="M7,31v2H8V31Z"/><path class="za263-5" d="M21,31v2h1V31Z"/><path class="za263-5" d="M21,29v1h1V28H21Z"/><rect class="za263-2" x="20" y="15" width="1" height="1"/><rect class="za263-2" x="19" y="14" width="1" height="1"/><path class="za263-4" d="M12,19V18h5v2h1V19h1V16h1V15H16V14H13v1H9v1h1v3h1v1h1Zm2-3h1v1H14Z"/><path class="za263-4" d="M13,20v2h3V20Z"/><path class="za263-2" d="M19,17v2h1V16H19Z"/><rect class="za263-2" x="18" y="19" width="1" height="1"/><rect class="za263-2" x="17" y="20" width="1" height="1"/><rect class="za263-2" x="11" y="20" width="1" height="1"/><rect class="za263-2" x="10" y="19" width="1" height="1"/><path class="za263-2" d="M10,14H9v1h1Z"/><path class="za263-2" d="M10,16H9v3h1V16Z"/><rect class="za263-2" x="8" y="15" width="1" height="1"/><rect class="za263-2" x="14" y="16" width="1" height="1"/><path class="za263-6" d="M12,15h1V14H12Z"/><path class="za263-6" d="M10,14v1h1V14Z"/><path class="za263-6" d="M18,14v1h1V14Z"/><path class="za263-6" d="M16,14v1h1V14Z"/><path class="za263-2" d="M11,14v1h1V14Z"/><path class="za263-2" d="M17,14v1h1V14Z"/><path class="za263-7" d="M13,20V19h3V18H12v3h1Z"/><path class="za263-7" d="M17,19H16v2h1V19Z"/><path class="za263-2" d="M16,19H13v1h3Z"/><path class="za263-2" d="M17,18H16v1h1Z"/><path class="za263-8" d="M11,14H21V13h4V12H23V11H21V10H19V9H18V8H17V7H16V6H15V5H14V6H13V7H12V8H11V9H10v1H8v1H6v1H4v1H8v1h3Z"/></svg>