<svg xmlns="http://www.w3.org/2000/svg" viewBox="0 0 29 33"><defs><style>polygon,rect,path{shape-rendering:crispedges;}.na82-1{fill:#e55b35;}.na82-2{fill:#000000;}.na82-3{fill:#34e0cb;}.na82-4{fill:#db5800;}.na82-5{fill:#b2622b;}.na82-6{fill:#00686d;}.na82-7{fill:#ffffff;}.na82-8{fill:#6c9302;}.na82-9{fill:#6c9302;}.na82-10{fill:#cbed03;}.na82-11{fill:#ff1d99;}.na82-12{fill:#9b005c;}</style></defs><path class="na82-1" d="M6,32V27H7V26H8V25h2V24h2V22H11V21H10V20H9V16H8V15H9V11h1V10h1V9h7v1h2v5h1v1H20v4H19v1H18v1H17v2h2v1h2V24H20V23h1V22h1v1h1v1H22v1h1v8h6V0H0V33H6Z"/><path class="na82-2" d="M7,31V27H6v6H7V31Z"/><path class="na82-3" d="M7,32v1H8V32Z"/><path class="na82-3" d="M8,28V27H7v1Z"/><path class="na82-3" d="M7,30v1H8V29H7Z"/><rect class="na82-2" x="7" y="26" width="1" height="1"/><path class="na82-2" d="M9,31V27H8v6H9V31Z"/><path class="na82-3" d="M9,32v1h1V32Z"/><path class="na82-3" d="M9,27v1h1v1H9v2h1V30h1V27H10V26H8v1Z"/><path class="na82-2" d="M10,25H8v1h2Z"/><path class="na82-2" d="M12,26h1V25H12V24H10v1h1v8h1V26Z"/><path class="na82-4" d="M17,26H16v1H13V26H12v7h5V26Z"/><path class="na82-2" d="M13,23H12v1h1Z"/><path class="na82-2" d="M13,26v1h3V26H13Z"/><path class="na82-5" d="M13,25v1h3V25h1V24H16V23H13v1H12v1Z"/><path class="na82-2" d="M16,24h1V23H16Z"/><path class="na82-2" d="M18,30V25h1V24H17v1H16v1h1v7h1V30Z"/><path class="na82-3" d="M18,27v3h1v1h1V29H19V28h1V26H19v1Z"/><rect class="na82-3" x="19" y="32" width="1" height="1"/><path class="na82-2" d="M21,31V25H19v1h1v7h1V31Z"/><path class="na82-3" d="M21,28h1V27H21Z"/><path class="na82-3" d="M21,32v1h1V32Z"/><path class="na82-3" d="M21,30v1h1V29H21Z"/><path class="na82-5" d="M22,27V25H21v2Z"/><path class="na82-2" d="M23,25H22v8h1V25Z"/><path class="na82-6" d="M11,30H10v1H9v1h1v1h1V30Z"/><path class="na82-6" d="M10,27h1V25H10v2Z"/><path class="na82-6" d="M18,26v1h1V25H18Z"/><path class="na82-6" d="M7,29H8V28H7Z"/><path class="na82-6" d="M10,28H9v1h1Z"/><path class="na82-6" d="M21,29h1V28H21Z"/><path class="na82-6" d="M19,29h1V28H19Z"/><path class="na82-6" d="M21,32h1V31H21Z"/><path class="na82-6" d="M7,32H8V31H7Z"/><path class="na82-6" d="M20,32V31H19V30H18v3h1V32Z"/><rect class="na82-2" x="20" y="15" width="1" height="1"/><path class="na82-2" d="M19,15h1V14H19Z"/><path class="na82-5" d="M17,13v1h2V13H17Z"/><path class="na82-5" d="M17,16H16V14H14v2h1v1H14V16H13v1H11v1h5v1h1V18h1V17h1V16H17Z"/><path class="na82-5" d="M10,13h1V12h2v1H11v1h3V13h2V12h2V10H11v1H10v2Z"/><rect class="na82-5" x="19" y="15" width="1" height="1"/><rect class="na82-5" x="10" y="16" width="1" height="1"/><rect class="na82-5" x="9" y="15" width="1" height="1"/><rect class="na82-2" x="8" y="15" width="1" height="1"/><rect class="na82-2" x="14" y="16" width="1" height="1"/><path class="na82-7" d="M17,14H16v2h1V14Z"/><path class="na82-7" d="M19,14H18v2h1V14Z"/><path class="na82-2" d="M17,15v1h1V14H17Z"/><rect class="na82-8" x="10" y="13" width="1" height="1"/><rect class="na82-8" x="11" y="12" width="2" height="1"/><rect class="na82-8" x="16" y="13" width="1" height="1"/><path class="na82-8" d="M19,13V12H18v1Z"/><path class="na82-9" d="M15,18H13v1h3V18Z"/><path class="na82-9" d="M14,23h3V22h1V21h1V20h1V16H19v1H18v1H17v1H16v1H13V19H12V18H11V17H10V16H9v4h1v1h1v1h1v1h2Z"/><rect class="na82-2" x="13" y="19" width="3" height="1"/><path class="na82-2" d="M12,18v1h1V18Z"/><path class="na82-10" d="M19,12v2h1V11H19Z"/><path class="na82-10" d="M19,11V10H18v1Z"/><path class="na82-10" d="M18,10V9H11v1h7Z"/><rect class="na82-10" x="10" y="10" width="1" height="1"/><path class="na82-10" d="M10,12V11H9v2h1Z"/><path class="na82-2" d="M10,16h1v1h2V16h1V14H10V13H9v2h1Z"/><rect class="na82-2" x="14" y="13" width="2" height="1"/><path class="na82-2" d="M18,13V12H16v1h2Z"/><path class="na82-2" d="M19,11H18v1h1Z"/><path class="na82-2" d="M20,11V10H19v1Z"/><rect class="na82-11" x="21" y="22" width="1" height="1"/><rect class="na82-11" x="20" y="23" width="1" height="1"/><rect class="na82-11" x="22" y="23" width="1" height="1"/><path class="na82-11" d="M22,24.5V24H21v1h1Z"/><rect class="na82-12" x="21" y="23" width="1" height="1"/></svg>