<svg xmlns="http://www.w3.org/2000/svg" viewBox="0 0 29 33"><defs><style>polygon,rect,path{shape-rendering:crispedges;}.ca182-1{fill:#db5a8e;}.ca182-2{fill:#000000;}.ca182-3{fill:#e8b795;}.ca182-4{fill:#6d5800;}.ca182-5{fill:#d8be00;}.ca182-6{fill:#ffffff;}.ca182-7{fill:#cc2f76;}.ca182-8{fill:#0079bc;}.ca182-9{fill:#381616;}.ca182-10{fill:#fad000;}</style></defs><path class="ca182-1" d="M6,32V27H7V26H8V25h2V22H9V16H8V15H9V10h1V9h1V8h7V9h1v1h1v5h1v1H20v4h3v1h1v3H23v1h1v1H23v7h6V0H0V33H6Z"/><rect class="ca182-1" x="19" y="24" width="1" height="1"/><path class="ca182-2" d="M7,27H6v6H7V27Z"/><rect class="ca182-2" x="7" y="26" width="1" height="1"/><path class="ca182-3" d="M8,27H7v6H8V27Z"/><rect class="ca182-3" x="8" y="26" width="1" height="1"/><path class="ca182-2" d="M9,27H8v6H9V27Z"/><path class="ca182-2" d="M10,26V25H8v1h2Z"/><path class="ca182-4" d="M16,32H12v1h5V32Z"/><path class="ca182-4" d="M20,26H19v1H18V26H17v1H16v1h1v1h1v1h1v3h1V26Z"/><rect class="ca182-4" x="12" y="30" width="1" height="1"/><path class="ca182-4" d="M10,30h1V29h1V28h1V27H12V26H11V25H10v1H9v7h1V30Z"/><rect class="ca182-4" x="16" y="30" width="1" height="1"/><path class="ca182-2" d="M13,23h3v1h1V21H16v1H13V21H12v3h1Z"/><path class="ca182-2" d="M21,26H20v7h1V26Z"/><path class="ca182-3" d="M22,26h1V25H20v1h1v7h1V26Z"/><path class="ca182-2" d="M23,26H22v7h1V26Z"/><rect class="ca182-2" x="12" y="26" width="1" height="1"/><rect class="ca182-2" x="16" y="26" width="1" height="1"/><rect class="ca182-2" x="17" y="25" width="1" height="1"/><path class="ca182-2" d="M13,27v1h3V27H13Z"/><path class="ca182-3" d="M17,24H16V23H13v1H12v2h1v1h3V26h1V24Z"/><path class="ca182-5" d="M19,30H18V29H17V28H12v1H11v1H10v3h2V32h5v1h2V30Zm-6,1H12V30h1Zm4,0H16V30h1Z"/><rect class="ca182-2" x="20" y="15" width="1" height="1"/><path class="ca182-3" d="M18,15H16V14h3V13H16V12h2V11H17V10H14v1H12v1H11v1h2v2H10v4h1v1h1v1h1v1h3V21h1V20h1V19h1V16h1V15H18Zm-4,1h1v1H14Zm3,3H16v1H13V19H12V18h5Z"/><path class="ca182-2" d="M19,17v2h1V16H19Z"/><rect class="ca182-2" x="18" y="19" width="1" height="1"/><rect class="ca182-2" x="17" y="20" width="1" height="1"/><rect class="ca182-2" x="11" y="20" width="1" height="1"/><rect class="ca182-2" x="10" y="19" width="1" height="1"/><path class="ca182-2" d="M10,18V16H9v3h1Z"/><rect class="ca182-2" x="8" y="15" width="1" height="1"/><rect class="ca182-2" x="14" y="16" width="1" height="1"/><path class="ca182-6" d="M12,15h1V14H12Z"/><path class="ca182-6" d="M11,14H10v1h1Z"/><path class="ca182-6" d="M18,15h1V14H18Z"/><path class="ca182-6" d="M16,14v1h1V14Z"/><path class="ca182-2" d="M12,15V14H11v1Z"/><path class="ca182-2" d="M17,14v1h1V14Z"/><path class="ca182-7" d="M16,13h2V12H16Z"/><path class="ca182-7" d="M13,14V13H11v1h2Z"/><polygon class="ca182-2" points="12 19 13 19 13 20 16 20 16 19 17 19 17 18 12 18 12 19"/><path class="ca182-8" d="M19,20H18v1H17v4h1v2h1V21h1V19H19Z"/><path class="ca182-8" d="M10,15V14h1V12h1V11h2V10h3v1h1v2h1v2h1V10H19V9H18V8H11V9H10v1H9v6h1Z"/><path class="ca182-8" d="M11,26h1V21H11V20H10V19H9v3h1v3h1Z"/><rect class="ca182-2" x="23" y="25" width="1" height="1"/><path class="ca182-2" d="M19,26h1V25H19Z"/><path class="ca182-9" d="M24,22V21H23v1Z"/><path class="ca182-10" d="M19,21v3h1v1h3V24H21V23H20V22h1V21h1v1H21v1h3V22H23V20H20v1Z"/><rect class="ca182-9" x="21" y="21" width="1" height="1"/><path class="ca182-9" d="M21,23v1h3V23H21Z"/><rect class="ca182-9" x="20" y="22" width="1" height="1"/></svg>