<svg xmlns="http://www.w3.org/2000/svg" viewBox="0 0 29 33"><defs><style>polygon,rect,path{shape-rendering:crispedges;}.ja32-1{fill:#397d98;}.ja32-2{fill:#000000;}.ja32-3{fill:#990000;}.ja32-4{fill:#ff791f;}.ja32-5{fill:#c18d59;}.ja32-6{fill:#ffffff;}.ja32-7{fill:#4922aa;}.ja32-8{fill:#4922aa;}.ja32-9{fill:#cbed03;}</style></defs><path class="ja32-1" d="M0,33H6V27H7V26H8V25h2V24h2V21H11V20H10V19H9V16H8V15H9V11h1V10h1V9h7v1h1v1h1v4h1v1H20v3H19v1H18v1H17v3h2v1h2V23H20V21h1V20h1V19h2v1h1v3H24v8H23v1H21v1h8V0H0Z"/><path class="ja32-2" d="M23,24v7h1V23H23Z"/><path class="ja32-3" d="M23,28V26H22v3h1Z"/><path class="ja32-3" d="M22,30v1h1V30Z"/><path class="ja32-3" d="M23,24H22v1h1Z"/><path class="ja32-2" d="M22,32h1V31H22V23H21v2H19v1h2v1H20v6h1V32Z"/><path class="ja32-3" d="M20,32V26H19V25H17V24H16V23H13v1H12v1H10v1H9v6h1v1h4V32h1v1h4V32Zm-9-3H10V28h1Zm2,2H12V30h1Zm0-4H12V26h1Zm2,2H14V28h1Zm0-4H14V24h1Zm2,6H16V30h1Zm0-4H16V26h1Zm1,2V28h1v1Z"/><path class="ja32-2" d="M18,25h1V24H17v1Z"/><path class="ja32-2" d="M13,23h3v1h1V21H16v1H13V21H12v3h1Z"/><path class="ja32-2" d="M12,24H10v1h2Z"/><path class="ja32-2" d="M10,26V25H8v1h2Z"/><path class="ja32-2" d="M9,31V27H8v6H9V31Z"/><rect class="ja32-2" x="7" y="26" width="1" height="1"/><path class="ja32-3" d="M7,30H8V27H7v3Z"/><path class="ja32-3" d="M7,31v2H8V31Z"/><path class="ja32-2" d="M7,30V27H6v6H7V30Z"/><rect class="ja32-4" x="18" y="28" width="1" height="1"/><rect class="ja32-4" x="16" y="30" width="1" height="1"/><rect class="ja32-4" x="14" y="28" width="1" height="1"/><rect class="ja32-4" x="14" y="32" width="1" height="1"/><rect class="ja32-4" x="16" y="26" width="1" height="1"/><rect class="ja32-4" x="12" y="30" width="1" height="1"/><rect class="ja32-4" x="10" y="28" width="1" height="1"/><rect class="ja32-4" x="12" y="26" width="1" height="1"/><rect class="ja32-4" x="14" y="24" width="1" height="1"/><path class="ja32-4" d="M21,27V26H20v1Z"/><path class="ja32-4" d="M9,32v1h1V32Z"/><path class="ja32-4" d="M19,32v1h1V32Z"/><path class="ja32-4" d="M23,29H22v1h1Z"/><path class="ja32-4" d="M23,25H22v1h1Z"/><path class="ja32-4" d="M7,31H8V30H7Z"/><path class="ja32-4" d="M9,27V26H8v1Z"/><rect class="ja32-2" x="20" y="15" width="1" height="1"/><path class="ja32-2" d="M19,13v2h1V12H19Z"/><rect class="ja32-5" x="11" y="10" width="1" height="1"/><rect class="ja32-5" x="18" y="11" width="1" height="1"/><path class="ja32-5" d="M10,13h1V11H10v2Z"/><path class="ja32-5" d="M13,22h3V21h1V20h1V19h1V16h1V15H16V13h1V11H16V10H13v1H12v1h1v1H11v1h2v1H9v1h1v3h1v1h1v1h1Zm1-6h1v1H14Zm-2,3V18h5v1H16v1H13V19Z"/><path class="ja32-5" d="M18,14h1V13H17v1Z"/><rect class="ja32-5" x="17" y="10" width="1" height="1"/><path class="ja32-2" d="M19,17v2h1V16H19Z"/><rect class="ja32-2" x="18" y="19" width="1" height="1"/><rect class="ja32-2" x="17" y="20" width="1" height="1"/><rect class="ja32-2" x="11" y="20" width="1" height="1"/><rect class="ja32-2" x="10" y="19" width="1" height="1"/><path class="ja32-2" d="M10,14V12H9v3h1Z"/><path class="ja32-2" d="M10,16H9v3h1V16Z"/><rect class="ja32-2" x="8" y="15" width="1" height="1"/><rect class="ja32-2" x="14" y="16" width="1" height="1"/><path class="ja32-6" d="M13,15V14H12v1Z"/><path class="ja32-6" d="M10,15h1V14H10Z"/><path class="ja32-6" d="M18,14v1h1V14Z"/><path class="ja32-6" d="M16,14v1h1V14Z"/><path class="ja32-2" d="M12,15V14H11v1Z"/><path class="ja32-2" d="M17,14v1h1V14Z"/><path class="ja32-7" d="M10,14h1V13H10Z"/><path class="ja32-7" d="M11,13h2V12H11Z"/><path class="ja32-7" d="M17,13H16v1h1Z"/><path class="ja32-7" d="M19,12H17v1h2Z"/><path class="ja32-8" d="M16,19h1V18H13v1Z"/><rect class="ja32-2" x="13" y="19" width="3" height="1"/><path class="ja32-2" d="M13,18H12v1h1Z"/><path class="ja32-2" d="M20,21v2h1V21Z"/><rect class="ja32-2" x="21" y="20" width="1" height="1"/><rect class="ja32-2" x="22" y="19" width="2" height="1"/><path class="ja32-2" d="M24,23h1V20H24v3Z"/><path class="ja32-5" d="M22,24h1V23h1V20H22v1H21v2h1Z"/><path class="ja32-9" d="M20,12V11H19v1Z"/><rect class="ja32-9" x="18" y="10" width="1" height="1"/><path class="ja32-9" d="M12,11h1V10h3v1h1V10h1V9H11v1h1Z"/><path class="ja32-9" d="M18,11H17v1h1Z"/><path class="ja32-9" d="M11,12h1V11H11Z"/><rect class="ja32-9" x="10" y="10" width="1" height="1"/><path class="ja32-9" d="M10,11H9v1h1Z"/></svg>