<svg xmlns="http://www.w3.org/2000/svg" viewBox="0 0 29 33"><defs><style>polygon,rect,path{shape-rendering:crispedges;}.hb24-1{fill:#e55b35;}.hb24-2{fill:#000000;}.hb24-3{fill:#b2622b;}.hb24-4{fill:#ffffff;}.hb24-5{fill:#00686d;}.hb24-6{fill:#00686d;}.hb24-7{fill:#c8a715;}.hb24-8{fill:#cc2f76;}.hb24-9{fill:#508e91;}.hb24-10{fill:#6d5800;}.hb24-11{fill:#fad000;}.hb24-12{fill:#ea1500;}</style></defs><path class="hb24-1" d="M18,24V22H17v2Z"/><path class="hb24-1" d="M0,33H6V27H7V26H8V25h2V20H9V16H8V14H9V10h1V9h1V8h7V9h1v1h1v4h1v2H20v4H19v5h2V23h1V22H21V19h1v1h1V18h1V17h3v5H26v1H25v1H24v7H23v1H21v1h8V0H0Z"/><path class="hb24-1" d="M12,22H11v2h1V22Z"/><path class="hb24-2" d="M23,25v6h1V24H23Z"/><path class="hb24-2" d="M7,27H6v6H7V27Z"/><path class="hb24-3" d="M8,27H7v6H8V27Z"/><rect class="hb24-2" x="7" y="26" width="1" height="1"/><path class="hb24-2" d="M9,27H8v6H9V27Z"/><path class="hb24-3" d="M20,27h1V26H19V25H16V23H13v2H10v1H8v1H9v6h5V29h1v4h5V27Zm-8,2H11V28h1Zm6,0H17V28h1Z"/><path class="hb24-2" d="M10,25H8v1h2Z"/><rect class="hb24-2" x="11" y="28" width="1" height="1"/><path class="hb24-2" d="M12,24H10v1h2Z"/><path class="hb24-2" d="M15,29H14v4h1V29Z"/><rect class="hb24-2" x="17" y="28" width="1" height="1"/><path class="hb24-2" d="M17,24v1h2V24H17Z"/><path class="hb24-2" d="M22,32h1V31H22V23H21v2H19v1h2v1H20v6h1V32Z"/><path class="hb24-3" d="M22,31h1V24h1V23H22v8Z"/><path class="hb24-2" d="M20,16h1V15H20Z"/><rect class="hb24-3" x="14" y="15" width="1" height="1"/><path class="hb24-3" d="M13,13v1h3V12h3V11H18V10H17v1H16V10H15v1H12V10H11v1H10v1h3Z"/><path class="hb24-3" d="M16,17V16H15v1H14V16H13v1H10v1h1v1h1V18h2v1h1V18h2v1h1V18h1V17H16Z"/><polygon class="hb24-3" points="13 21 14 21 14 22 15 22 15 21 16 21 16 20 13 20 13 21"/><path class="hb24-2" d="M19,17h1V16H19Z"/><path class="hb24-2" d="M10,16H9v1h1Z"/><path class="hb24-2" d="M8,15v1H9V15Z"/><rect class="hb24-2" x="14" y="16" width="1" height="1"/><path class="hb24-4" d="M11,15V14H10v2h1Z"/><path class="hb24-4" d="M12,14v2h1V14Z"/><path class="hb24-4" d="M16,14v2h1V14Z"/><path class="hb24-4" d="M18,15v1h1V14H18Z"/><path class="hb24-2" d="M11,14v2h1V14Z"/><path class="hb24-2" d="M18,14H17v2h1V14Z"/><path class="hb24-5" d="M13,13V12H10v1h3Z"/><path class="hb24-5" d="M16,13h3V12H16Z"/><path class="hb24-6" d="M12,22v1h5V22h2V20h1V17H19v1H18v1H17V18H15v1h1v2H15v1H14V21H13V19h1V18H12v1H11V18H10V17H9v3h1v2h2Z"/><path class="hb24-7" d="M18,23h1V22H18Z"/><path class="hb24-6" d="M18,24h1V23H18Z"/><path class="hb24-7" d="M17,23H16v1h1Z"/><path class="hb24-6" d="M16,24v1h1V24Z"/><path class="hb24-7" d="M12,24h1V23H12Z"/><path class="hb24-6" d="M12,25h1V24H12Z"/><path class="hb24-7" d="M11,22H10v1h1Z"/><path class="hb24-6" d="M11,23H10v1h1Z"/><path class="hb24-2" d="M13,19v1h3V19H13Z"/><path class="hb24-8" d="M10,13V11h1V10h1v1h3V10h1v1h1V10h1v1h1v3h1V10H19V9H18V8H11V9H10v1H9v4h1Z"/><path class="hb24-9" d="M19,15v1h1V15h1V14H19Z"/><path class="hb24-9" d="M18,16H16v1h3V16Z"/><path class="hb24-9" d="M12,14h1V13H10v1h2Z"/><path class="hb24-9" d="M16,13v1h3V13H16Z"/><path class="hb24-9" d="M13,14v2h1V15h1v1h1V14Z"/><path class="hb24-9" d="M13,17V16H10v1h3Z"/><path class="hb24-9" d="M10,15V14H8v1H9v1h1Z"/><path class="hb24-10" d="M21,21v1h1V21Z"/><path class="hb24-11" d="M24,21h1v1H24v1h2V22h1V20H25V19H24V18H23v2H22V19H21v2h1v1h2Z"/><path class="hb24-10" d="M24,22H22v1h2Z"/><path class="hb24-2" d="M24,24h1V23H24Z"/><rect class="hb24-10" x="24" y="21" width="1" height="1"/><rect class="hb24-2" x="24" y="18" width="1" height="1"/><path class="hb24-12" d="M25,19v1h2V19H25Z"/><path class="hb24-11" d="M25,19h1V18h1V17H24v1h1Z"/><path class="hb24-2" d="M26,19h1V18H26Z"/></svg>