<svg xmlns="http://www.w3.org/2000/svg" viewBox="0 0 29 33"><defs><style>polygon,rect,path{shape-rendering:crispedges;}.fb32-1{fill:#e55b35;}.fb32-2{fill:#000000;}.fb32-3{fill:#6f7032;}.fb32-4{fill:#ffffff;}.fb32-5{fill:#e8b795;}.fb32-6{fill:#90a2a3;}.fb32-7{fill:#492a23;}.fb32-8{fill:#492a23;}.fb32-9{fill:#4fdb7d;}.fb32-10{fill:#ff1d99;}.fb32-11{fill:#6e12ff;}.fb32-12{fill:#ffffff;}</style></defs><path class="fb32-1" d="M6,32V25H7V21h3v2h1V22h1V21H11V20H10V19H9V16H8V14H9V11h1V10h1V9h7v1h1v1h1v3h1v2H20v3H19v1H18v1H17v1h1v1h1v1h1v1h1v1h1v1h1v6h6V0H0V33H6Z"/><path class="fb32-2" d="M23,27H22v6h1V27Z"/><path class="fb32-3" d="M22,27H21v6h1V27Z"/><path class="fb32-2" d="M21,27h1V26H21V25H20v2H17v1h2v1h1v4h1V27Z"/><rect class="fb32-2" x="19" y="24" width="1" height="1"/><path class="fb32-3" d="M20,29H19v1H18v1H17v1H16v1h4V29Z"/><rect class="fb32-2" x="18" y="23" width="1" height="1"/><path class="fb32-3" d="M18,25H17v1H16v5h1V30h1V29h1V28H17V27h2V26h1V25H19V24H18Z"/><rect class="fb32-3" x="17" y="23" width="1" height="1"/><rect class="fb32-2" x="17" y="24" width="1" height="1"/><rect class="fb32-2" x="18" y="29" width="1" height="1"/><rect class="fb32-2" x="16" y="25" width="1" height="1"/><path class="fb32-4" d="M15,27H14v6h1V27Z"/><path class="fb32-2" d="M12,24h1V23h3v1h1V23h1V22H17V21H16v1H13V21H12v1H11v1h1Z"/><path class="fb32-5" d="M17,25V24H16V23H13v1H12v1h1v1h3V25Z"/><rect class="fb32-2" x="12" y="25" width="1" height="1"/><path class="fb32-3" d="M12,32V31H11V30H10V29H9v4h4V32Z"/><rect class="fb32-3" x="11" y="23" width="1" height="1"/><rect class="fb32-2" x="11" y="24" width="1" height="1"/><rect class="fb32-2" x="11" y="30" width="1" height="1"/><rect class="fb32-2" x="10" y="23" width="1" height="1"/><path class="fb32-3" d="M12,25H11V24H10v3h2v1H10v1h1v1h1v1h1V26H12Z"/><path class="fb32-2" d="M9,29h1V28h2V27H9V26H8v7H9V29Z"/><path class="fb32-3" d="M8,27H7v6H8V27Z"/><path class="fb32-2" d="M7,27V25H6v8H7V27Z"/><rect class="fb32-2" x="10" y="29" width="1" height="1"/><rect class="fb32-2" x="17" y="30" width="1" height="1"/><path class="fb32-2" d="M17,32V31H16V26H13v5H12v1h1v1h1V27h1v6h1V32Z"/><path class="fb32-5" d="M8,27V26H9V25H7v2Z"/><path class="fb32-6" d="M9,26v1h1V26Z"/><path class="fb32-6" d="M19,27h1V26H19Z"/><path class="fb32-2" d="M20,16h1V15H20Z"/><path class="fb32-5" d="M12,12v1h1v1h3V12h2v1h1V11H18V10H11v1H10v1Z"/><path class="fb32-5" d="M12,19V18h5v2h1V19h1V17H16V16H15v1H14V16H13v1H10v2h1v1h1Z"/><rect class="fb32-5" x="14" y="15" width="1" height="1"/><path class="fb32-5" d="M13,20v2h3V20Z"/><path class="fb32-2" d="M19,17v2h1V16H19Z"/><rect class="fb32-2" x="18" y="19" width="1" height="1"/><rect class="fb32-2" x="17" y="20" width="1" height="1"/><rect class="fb32-2" x="11" y="20" width="1" height="1"/><rect class="fb32-2" x="10" y="19" width="1" height="1"/><path class="fb32-2" d="M10,16H9v3h1V16Z"/><path class="fb32-2" d="M8,15v1H9V15Z"/><rect class="fb32-2" x="14" y="16" width="1" height="1"/><path class="fb32-7" d="M18,12H16v1h2Z"/><path class="fb32-7" d="M12,12H10v1h2Z"/><path class="fb32-8" d="M17,19H16v2h1V19Z"/><path class="fb32-8" d="M13,20V19h3V18H12v3h1Z"/><path class="fb32-2" d="M16,19H13v1h3Z"/><path class="fb32-2" d="M17,18H16v1h1Z"/><path class="fb32-9" d="M19,14h1V11H19v3Z"/><rect class="fb32-9" x="18" y="10" width="1" height="1"/><path class="fb32-9" d="M18,10V9H11v1h7Z"/><rect class="fb32-9" x="10" y="10" width="1" height="1"/><path class="fb32-9" d="M10,13V11H9v3h1Z"/><path class="fb32-10" d="M19,15v1h1V15h1V14H19Z"/><path class="fb32-10" d="M19,14V13H16v1h3Z"/><path class="fb32-11" d="M19,16V14H16v2h3Z"/><path class="fb32-10" d="M18,16H16v1h3V16Z"/><path class="fb32-10" d="M13,14v2h1V15h1v1h1V14Z"/><path class="fb32-10" d="M13,14V13H10v1h3Z"/><path class="fb32-11" d="M12,14H10v2h3V14Z"/><path class="fb32-10" d="M10,16v1h3V16H10Z"/><path class="fb32-10" d="M10,15V14H8v1H9v1h1Z"/><rect class="fb32-2" x="8" y="22" width="1" height="1"/><path class="fb32-12" d="M9,26h1V21H7v4H9ZM8,23V22H9v1Z"/></svg>