<svg xmlns="http://www.w3.org/2000/svg" viewBox="0 0 29 33"><defs><style>polygon,rect,path{shape-rendering:crispedges;}.ba118-1{fill:#db5a8e;}.ba118-2{fill:#000000;}.ba118-3{fill:#e8b795;}.ba118-4{fill:#ff791f;}.ba118-5{fill:#b23b00;}.ba118-6{fill:#ffffff;}.ba118-7{fill:#8e4717;}.ba118-8{fill:#8e4717;}.ba118-9{fill:#0068ff;}.ba118-10{fill:#455054;}.ba118-11{fill:#0079bc;}.ba118-12{fill:#ffce00;}</style></defs><path class="ba118-1" d="M8,18v4H9v2H8v1h2V24h2V22H11V21H10V20H9V16H8v2Z"/><path class="ba118-1" d="M0,33H8V32H6V31H5V22H6V21H7V20H5v1H2V17H5V16H8V15H9V11h1V10h1V7h1V6H11V5h2V6h2V7h1V9h2v1h1v1h1v4h1v1H20v4H19v1H18v1H17v2h2v1h2v1h1v1h1v6h6V0H0Z"/><path class="ba118-2" d="M23,27H22v6h1V27Z"/><rect class="ba118-2" x="21" y="26" width="1" height="1"/><path class="ba118-3" d="M22,27H21v6h1V27Z"/><rect class="ba118-3" x="20" y="26" width="1" height="1"/><path class="ba118-2" d="M21,27H20v6h1V27Z"/><path class="ba118-2" d="M20,26h1V25H19v1Z"/><path class="ba118-4" d="M14,31v1h1V30H14Z"/><rect class="ba118-4" x="18" y="30" width="1" height="1"/><rect class="ba118-4" x="18" y="32" width="1" height="1"/><rect class="ba118-4" x="10" y="32" width="1" height="1"/><rect class="ba118-4" x="10" y="30" width="1" height="1"/><path class="ba118-4" d="M17,30h1V29h1v1h1V26H19V25H18v1H17v1H16v1H13V27H12V26H11V25H10v1H9v4h1V29h1v1h1v3h1V29h2v1h1v2H15v1h2V30Z"/><path class="ba118-2" d="M18,26V25h1V24H17v2Z"/><rect class="ba118-2" x="16" y="26" width="1" height="1"/><path class="ba118-2" d="M13,27v1h3V27H13Z"/><path class="ba118-2" d="M13,23V22H12v2h1Z"/><path class="ba118-3" d="M16,23H13v1H12v2h1v1h3V26h1V24H16Z"/><rect class="ba118-2" x="12" y="26" width="1" height="1"/><path class="ba118-2" d="M10,24v1h1v1h1V24Z"/><path class="ba118-3" d="M8,27H9V26H8Z"/><path class="ba118-2" d="M9,30V27H8V26h2V25H8V24H7v7H6v1H8v1H9V30Z"/><path class="ba118-3" d="M7,30V24H8V22H6v9H7Z"/><path class="ba118-2" d="M6,22H5v9H6V22Z"/><path class="ba118-5" d="M20,30H19v1H18V30H17v3h1V32h1v1h1V30Z"/><rect class="ba118-5" x="18" y="29" width="1" height="1"/><path class="ba118-5" d="M16,32V30H15v2Z"/><path class="ba118-5" d="M14,32V30h1V29H13v4h2V32Z"/><path class="ba118-5" d="M12,30H11v1H10V30H9v3h1V32h1v1h1V30Z"/><rect class="ba118-5" x="10" y="29" width="1" height="1"/><rect class="ba118-2" x="20" y="15" width="1" height="1"/><path class="ba118-2" d="M19,14v1h1V11H19v3Z"/><path class="ba118-3" d="M10,16v2h1v1h1V18h2v1h1V18h2v1h1V18h1V16h1V15H16V14h2V13H16V12h2v1h1V11H18V10H16v1H14V10H11v1H10v1h2v1h1v2H9v1Zm4,0h1v1H14Z"/><path class="ba118-3" d="M10,14h2V13H10Z"/><rect class="ba118-3" x="13" y="20" width="1" height="1"/><rect class="ba118-3" x="15" y="20" width="1" height="1"/><rect class="ba118-2" x="18" y="10" width="1" height="1"/><path class="ba118-2" d="M16,23v1h1V22H16Z"/><path class="ba118-2" d="M17,10h1V9H16v1Z"/><path class="ba118-2" d="M13,9H11v1h2Z"/><rect class="ba118-2" x="10" y="10" width="1" height="1"/><path class="ba118-2" d="M10,14V11H9v4h1Z"/><rect class="ba118-2" x="8" y="15" width="1" height="1"/><rect class="ba118-2" x="14" y="16" width="1" height="1"/><path class="ba118-6" d="M12,15h1V14H12Z"/><path class="ba118-6" d="M10,14v1h1V14Z"/><path class="ba118-6" d="M18,14v1h1V14Z"/><path class="ba118-6" d="M16,14v1h1V14Z"/><path class="ba118-2" d="M11,14v1h1V14Z"/><path class="ba118-2" d="M17,14v1h1V14Z"/><path class="ba118-7" d="M19,13H18v1h1Z"/><rect class="ba118-7" x="16" y="12" width="2" height="1"/><path class="ba118-7" d="M13,14V13H12v1Z"/><path class="ba118-7" d="M12,13V12H10v1Z"/><path class="ba118-8" d="M16,18H15v1h1Z"/><path class="ba118-8" d="M19,17v1H18v1H16v2H15V20H14v1H13V19h1V18H12v1H11V18H10V16H9v4h1v1h1v1h2v1h3V22h2V21h1V20h1V16H19Z"/><path class="ba118-2" d="M13,20h3V19H13Z"/><path class="ba118-2" d="M17,19V18H16v1Z"/><path class="ba118-9" d="M13,10h1v1h2V7H15V6H13V5H11V6h1V7H11V9h2Z"/><path class="ba118-10" d="M8,22V20H7v2Z"/><path class="ba118-2" d="M7,21H6v1H7Z"/><path class="ba118-2" d="M9,22H8v2H9Z"/><path class="ba118-11" d="M5,17H2v1H5Z"/><path class="ba118-11" d="M6,16H5v1H6Z"/><path class="ba118-11" d="M8,17V16H7v1Z"/><path class="ba118-11" d="M5,18v1H2v2H5V20H6V18Z"/><path class="ba118-11" d="M8,19V18H7v2H8Z"/><path class="ba118-12" d="M8,18V17H7V16H6v1H5v1H6v2H7V18Z"/><path class="ba118-12" d="M5,19V18H2v1H5Z"/><rect class="ba118-9" x="10" y="9" width="1" height="1"></rect></svg>