<svg xmlns="http://www.w3.org/2000/svg" viewBox="0 0 29 33"><defs><style>polygon,rect,path{shape-rendering:crispedges;}.ga13-1{fill:#29834f;}.ga13-2{fill:#000000;}.ga13-3{fill:#cbed03;}.ga13-4{fill:#ce8452;}.ga13-5{fill:#cbed03;}.ga13-6{fill:#7f5018;}.ga13-7{fill:#c8a715;}.ga13-8{fill:#ff1d99;}.ga13-9{fill:#ffffff;}.ga13-10{fill:#0068ff;}.ga13-11{fill:#ff1f4a;}.ga13-12{fill:#841f00;}.ga13-13{fill:#b23b00;}.ga13-14{fill:#455054;}.ga13-15{fill:#ffffff;}</style></defs><path class="ga13-1" d="M18,24V22H17v2Z"/><path class="ga13-1" d="M11,24h1V22H11v2Z"/><path class="ga13-1" d="M8,32H6V31H5V22H6V21H7V20H5v1H2V17H5V16H8V15H9V10h1V9h1V8h7V9h1v1h1v5h1v1H20v4H19v5h2v1h1v1h1v6h6V0H0V33H8Z"/><path class="ga13-1" d="M8,19v3H9v2H8v1h2V20H9V16H8v3Z"/><path class="ga13-2" d="M6,24V22H5v9H6V24Z"/><path class="ga13-3" d="M7,30V24H6v7H7Z"/><path class="ga13-2" d="M9,27H8V26h2V25H8V24H7v7H6v1H8v1H9V27Z"/><path class="ga13-3" d="M20,27h1V26H19V25H17v1H16v1H13V26H12V25H10v1H8v1H9v6h1V30h1V29h1V28h5v1h1v1h1v3h1V27Z"/><rect class="ga13-3" x="12" y="30" width="1" height="1"/><rect class="ga13-3" x="16" y="30" width="1" height="1"/><path class="ga13-3" d="M16,32H12v1h5V32Z"/><path class="ga13-2" d="M11,24H10v1h2V24Z"/><rect class="ga13-2" x="12" y="25" width="1" height="1"/><path class="ga13-2" d="M13,26v1h3V26H13Z"/><path class="ga13-4" d="M16,24V23H13v3h3V24Z"/><path class="ga13-2" d="M16,26h1V25H16Z"/><path class="ga13-2" d="M17,24v1h2V24H17Z"/><path class="ga13-2" d="M20,26h1V25H19v1Z"/><path class="ga13-2" d="M21,27H20v6h1V27Z"/><rect class="ga13-2" x="21" y="26" width="1" height="1"/><path class="ga13-3" d="M22,27H21v6h1V27Z"/><path class="ga13-2" d="M23,27H22v6h1V27Z"/><path class="ga13-5" d="M19,30H18V29H17V28H12v1H11v1H10v3h2V32h5v1h2V30Zm-6,1H12V30h1Zm4,0H16V30h1Z"/><rect class="ga13-2" x="20" y="15" width="1" height="1"/><path class="ga13-4" d="M10,18h1v1h1V18h2v1h1V18h2v1h1V18h1V17H18V16H15v1H14V16H10v2Z"/><polygon class="ga13-4" points="13 21 14 21 14 22 15 22 15 21 16 21 16 20 13 20 13 21"/><path class="ga13-2" d="M19,17h1V16H19Z"/><path class="ga13-2" d="M10,16H9v1h1Z"/><rect class="ga13-2" x="8" y="15" width="1" height="1"/><rect class="ga13-2" x="14" y="16" width="1" height="1"/><path class="ga13-6" d="M19,18H18v1H17V18H15v1h1v2H15v1H14V21H13V19h1V18H12v1H11V18H10V17H9v3h1v2h2v1h5V22h2V20h1V17H19Z"/><path class="ga13-7" d="M18,23h1V22H18Z"/><path class="ga13-6" d="M18,24h1V23H18Z"/><path class="ga13-7" d="M17,24V23H16v1Z"/><path class="ga13-6" d="M16,24v1h1V24Z"/><path class="ga13-7" d="M13,24V23H12v1Z"/><path class="ga13-6" d="M13,24H12v1h1Z"/><path class="ga13-7" d="M11,22H10v1h1Z"/><path class="ga13-6" d="M11,23H10v1h1Z"/><path class="ga13-2" d="M13,19v1h3V19H13Z"/><rect class="ga13-8" x="14" y="13" width="1" height="1"/><rect class="ga13-8" x="18" y="16" width="1" height="1"/><rect class="ga13-8" x="14" y="15" width="1" height="1"/><path class="ga13-9" d="M10,16h4V15h1v1h5V13H15v1H14V13H9v3Zm6-2h3v1H16Zm-6,0h3v1H10Z"/><path class="ga13-10" d="M19,15V14H16v1h3Z"/><path class="ga13-11" d="M13,15V14H10v1h3Z"/><path class="ga13-12" d="M19,12v1h1V11H19Z"/><path class="ga13-13" d="M10,12v1h1V11h1v2h1V11h1v2h1V11h1v2h1V11h1v2h1V11h1V10H19V9H18V8H11V9H10v1H9v1h1Z"/><path class="ga13-12" d="M17,11v2h1V11Z"/><path class="ga13-12" d="M15,11v2h1V11Z"/><path class="ga13-12" d="M13,11v2h1V11Z"/><path class="ga13-12" d="M11,11v2h1V11Z"/><path class="ga13-12" d="M10,12V11H9v2h1Z"/><path class="ga13-4" d="M7,24H8V22H6v2Z"/><path class="ga13-14" d="M8,22V20H7v2Z"/><path class="ga13-11" d="M5,17H2v1H5Z"/><path class="ga13-11" d="M2,19v1H5V19Z"/><path class="ga13-15" d="M2,21H5V20H2Z"/><path class="ga13-10" d="M6,18H8V16H5v2Z"/><path class="ga13-15" d="M5,18H2v1H5Z"/><path class="ga13-11" d="M7,18H5v1H8V18Z"/><path class="ga13-15" d="M8,19H5v1H8Z"/><path class="ga13-2" d="M7,21H6v1H7Z"/><path class="ga13-2" d="M9,22H8v2H9Z"/></svg>