<svg xmlns="http://www.w3.org/2000/svg" viewBox="0 0 29 33"><defs><style>polygon,rect,path{shape-rendering:crispedges;}.za69-1{fill:#db5a8e;}.za69-2{fill:#000000;}.za69-3{fill:#95f9ed;}.za69-4{fill:#a56e49;}.za69-5{fill:#009b97;}.za69-6{fill:#8e4717;}.za69-7{fill:#8e4717;}.za69-8{fill:#004a77;}.za69-9{fill:#455054;}.za69-10{fill:#002b4f;}.za69-11{fill:#ff1f4a;}.za69-12{fill:#ffffff;}</style></defs><path class="za69-1" d="M11,24V23h1V21H11V20H9V18H8v4H9v2H8v1h2V24Z"/><path class="za69-1" d="M8,32H6V31H5V22H6V21H7V20H5v1H2V17H5V16H8V12H9V11h1V10h1V9h7v1h1v1h1v2h1v5H20v2H18v1H17v2h1v1h1v1h2v1h1v1h1v6h6V0H0V33H8Z"/><path class="za69-2" d="M6,29V22H5v9H6V29Z"/><path class="za69-2" d="M23,27H22v6h1V27Z"/><path class="za69-3" d="M21,28h1V27H21Z"/><path class="za69-3" d="M21,31h1V30H21Z"/><rect class="za69-2" x="21" y="26" width="1" height="1"/><path class="za69-2" d="M21,30V27H20v6h1V30Z"/><path class="za69-3" d="M14,27H9v1H20V27H14Z"/><rect class="za69-3" x="9" y="30" width="5" height="1"/><path class="za69-3" d="M15,31h5V30H15Z"/><path class="za69-2" d="M20,26h1V25H19v1Z"/><rect class="za69-3" x="16" y="24" width="1" height="1"/><rect class="za69-2" x="15" y="24" width="1" height="1"/><rect class="za69-2" x="14" y="32" width="1" height="1"/><rect class="za69-2" x="14" y="30" width="1" height="1"/><path class="za69-2" d="M15,29V28H14v1Z"/><path class="za69-2" d="M14,26v1h1V25H14Z"/><rect class="za69-2" x="13" y="24" width="1" height="1"/><path class="za69-4" d="M14,24v1h1V24h1V23H13v1Z"/><rect class="za69-3" x="12" y="24" width="1" height="1"/><path class="za69-2" d="M11,26h2V25H12V24h1V22H12v1H11v1H10v1h1Z"/><path class="za69-2" d="M9,30V27H8V26h2V25H8V24H7v7H6v1H8v1H9V30Z"/><path class="za69-3" d="M7,30H6v1H7Z"/><path class="za69-3" d="M6,28H7V27H6Z"/><path class="za69-3" d="M6,25H7V24H6Z"/><path class="za69-5" d="M15,31H9v2h5V32h1v1h5V31Z"/><path class="za69-5" d="M15,29H14V28H9v2H20V28H15Z"/><path class="za69-5" d="M18,26H16V25H15v2h6V26H19V25H18Z"/><path class="za69-5" d="M14,26V25H13v1H11V25H10v1H8v1h6Z"/><path class="za69-5" d="M6,29v1H7V28H6Z"/><path class="za69-5" d="M6,26v1H7V25H6Z"/><path class="za69-5" d="M21,31v2h1V31Z"/><path class="za69-5" d="M21,29v1h1V28H21Z"/><rect class="za69-4" x="9" y="15" width="1" height="1"/><rect class="za69-4" x="14" y="15" width="1" height="1"/><path class="za69-4" d="M17,17H16V16H15v1H14V16H13v1H11v2h1V18h5v1h1V17Z"/><rect class="za69-4" x="11" y="13" width="1" height="1"/><path class="za69-4" d="M13,21h3V20H13Z"/><rect class="za69-4" x="12" y="19" width="1" height="1"/><rect class="za69-4" x="16" y="19" width="1" height="1"/><rect class="za69-4" x="19" y="15" width="1" height="1"/><path class="za69-4" d="M18,13H16v1h2Z"/><rect class="za69-4" x="11" y="11" width="1" height="1"/><path class="za69-4" d="M15,11H14v1H13v2h2Z"/><path class="za69-2" d="M16,23v1h1v1H16v1h2V25h1V24H18V23H17V22H16Z"/><rect class="za69-2" x="14" y="16" width="1" height="1"/><path class="za69-6" d="M18,12H16v1h2Z"/><rect class="za69-6" x="11" y="12" width="1" height="1"/><path class="za69-7" d="M19,18H18v1H17v1H16v1H13V20H12V19H11V18H10v2h1v1h1v1h1v1h3V22h1V21h1V20h1V18Z"/><path class="za69-7" d="M19,16v2h1V16Z"/><path class="za69-7" d="M10,17V16H9v2h1Z"/><polygon class="za69-2" points="12 18 12 19 13 19 13 20 16 20 16 19 17 19 17 18 12 18"/><path class="za69-8" d="M8,18H9V14h2V11h1v3h1V12h1V11h1v3h1V12h2v2h2v4h1V13H20V11H19V10H18V9H11v1H10v1H9v1H8v6Z"/><path class="za69-8" d="M11,16H10v2h1V16Z"/><path class="za69-8" d="M18,17v1h1V16H18Z"/><path class="za69-8" d="M10,20V18H9v2Z"/><path class="za69-8" d="M19,19v1h1V18H19Z"/><path class="za69-2" d="M10,16h1v1h2V16h1V15h1v1h1v1h2V16h1V15h1V14H9v1h1Z"/><path class="za69-4" d="M7,24H8V22H6v2Z"/><path class="za69-9" d="M8,22V20H7v2Z"/><path class="za69-2" d="M7,21H6v1H7Z"/><path class="za69-2" d="M9,22H8v2H9Z"/><path class="za69-10" d="M4,21H5V20H4Z"/><path class="za69-10" d="M5,18V17H4v1Z"/><path class="za69-10" d="M3,19V18H2v2H3Z"/><path class="za69-10" d="M5,19v1H6V19Z"/><path class="za69-10" d="M6,16H5v1H6Z"/><path class="za69-10" d="M8,17H7v2H8V17Z"/><path class="za69-11" d="M3,17H2v1H3Z"/><path class="za69-11" d="M6,17v1H3v2H4V19H7V17Z"/><path class="za69-11" d="M8,17V16H7v1Z"/><path class="za69-11" d="M8,19H7v1H8Z"/><path class="za69-11" d="M2,20v1H3V20Z"/><path class="za69-12" d="M3,20v1H4V20Z"/><path class="za69-12" d="M4,19v1H5V19Z"/><path class="za69-12" d="M4,18V17H3v1Z"/><path class="za69-12" d="M7,17V16H6v1Z"/><path class="za69-12" d="M6,18V17H5v1Z"/><path class="za69-12" d="M6,19v1H7V19Z"/></svg>