<svg xmlns="http://www.w3.org/2000/svg" viewBox="0 0 29 33"><defs><style>polygon,rect,path{shape-rendering:crispedges;}.fb260-1{fill:#6b4f99;}.fb260-2{fill:#000000;}.fb260-3{fill:#326b43;}.fb260-4{fill:#ffffff;}.fb260-5{fill:#ce8452;}.fb260-6{fill:#90a2a3;}.fb260-7{fill:#ffffff;}.fb260-8{fill:#99004d;}.fb260-9{fill:#fad000;}.fb260-10{fill:#99004d;}.fb260-11{fill:#c4ea3b;}</style></defs><path class="fb260-1" d="M0,33H6V27H7V26H8V25H9V24h1V23h1V22h1V21H10V20H9V16H8V15H9V14H8V12H9V11H8V10H9V9H8V8h2V7h1V8h1V6h1V7h1V8h1V7h1V6h1V7h1V8h1V7h1V8H19V9h2v2H20v1h1v1H20v1h1v2H20v4H19v1H17v1h1v1h1v1h1v1h1v1h1v1h1v6h6V0H0Z"/><path class="fb260-2" d="M23,27H22v6h1V27Z"/><path class="fb260-3" d="M22,27H21v6h1V27Z"/><path class="fb260-2" d="M21,27h1V26H21V25H20v2H17v1h2v1h1v4h1V27Z"/><path class="fb260-3" d="M20,29H19v1H18v1H17v1H16v1h4V29Z"/><path class="fb260-3" d="M16,28v3h1V30h1V29h1V28H17V27H16Z"/><path class="fb260-3" d="M18,26H17v1h2V26h1V25H18Z"/><rect class="fb260-2" x="18" y="29" width="1" height="1"/><path class="fb260-4" d="M15,30H14v3h1V30Z"/><path class="fb260-5" d="M14,24h1v1h1V23H13v2h1Z"/><path class="fb260-3" d="M12,32V31H11V30H10V29H9v4h4V32Z"/><rect class="fb260-2" x="11" y="30" width="1" height="1"/><path class="fb260-3" d="M10,26v1h2V26H11V25H9v1Z"/><path class="fb260-3" d="M12,28H10v1h1v1h1v1h1V27H12Z"/><path class="fb260-2" d="M9,29h1V28h2V27H9V25H8v1H7v1H8v6H9V29Z"/><path class="fb260-3" d="M8,27H7v6H8V27Z"/><path class="fb260-2" d="M7,27H6v6H7V27Z"/><rect class="fb260-2" x="10" y="29" width="1" height="1"/><rect class="fb260-2" x="17" y="30" width="1" height="1"/><path class="fb260-2" d="M17,32V31H16V27H15v2H14V27H13v4H12v1h1v1h1V30h1v3h1V32Z"/><path class="fb260-6" d="M9,26v1h1V26Z"/><path class="fb260-6" d="M19,27h1V26H19Z"/><path class="fb260-2" d="M20,16h1V15H20Z"/><rect class="fb260-5" x="10" y="11" width="1" height="1"/><path class="fb260-5" d="M10,13v1h2V13H10Z"/><path class="fb260-5" d="M13,22h3V21h1V20h1V18h1V16h1V15H16V14h2V13H16V12H15V10H14v1H13v1H12v1h1v2H9v1h1v2h1v2h1v1h1Zm1-6h1v1H14Zm-1,3h3V18h1v1H16v1H13Z"/><rect class="fb260-5" x="11" y="10" width="1" height="1"/><polygon class="fb260-5" points="18 11 18 10 17 10 17 11 16 11 16 12 18 12 18 11"/><path class="fb260-2" d="M19,17h1V16H19Z"/><path class="fb260-2" d="M10,16H9v1h1Z"/><rect class="fb260-2" x="8" y="15" width="1" height="1"/><rect class="fb260-2" x="14" y="16" width="1" height="1"/><path class="fb260-7" d="M12,15h1V14H12Z"/><path class="fb260-7" d="M10,14v1h1V14Z"/><path class="fb260-7" d="M18,14v1h1V14Z"/><path class="fb260-7" d="M16,14v1h1V14Z"/><path class="fb260-2" d="M11,14v1h1V14Z"/><path class="fb260-2" d="M17,14v1h1V14Z"/><rect class="fb260-8" x="18" y="13" width="1" height="1"/><rect class="fb260-8" x="16" y="12" width="2" height="1"/><path class="fb260-8" d="M13,14V13H12v1Z"/><path class="fb260-8" d="M11,13h1V12H11Z"/><rect class="fb260-2" x="12" y="26" width="1" height="1"/><rect class="fb260-2" x="16" y="26" width="1" height="1"/><rect class="fb260-2" x="17" y="25" width="1" height="1"/><rect class="fb260-2" x="11" y="25" width="1" height="1"/><rect class="fb260-2" x="14" y="24" width="1" height="1"/><rect class="fb260-2" x="13" y="25" width="1" height="1"/><rect class="fb260-2" x="15" y="25" width="1" height="1"/><path class="fb260-2" d="M12,24v1h1V23h3v2h1V23h1V22H17V21H16v1H13V21H12v1H11v1h1Z"/><rect class="fb260-9" x="16" y="25" width="1" height="1"/><path class="fb260-9" d="M15,26V25H14v1H13v1h1v2h1V27h1V26Z"/><rect class="fb260-9" x="12" y="25" width="1" height="1"/><path class="fb260-9" d="M12,25V23H11v2Z"/><path class="fb260-9" d="M17,24v1h1V23H17Z"/><path class="fb260-2" d="M20,25V24H19V23H18v2Z"/><path class="fb260-2" d="M11,23H10v1H9v1h2Z"/><path class="fb260-10" d="M19,18H18v2H17v1h2V20h1V17H19Z"/><path class="fb260-10" d="M11,20V18H10V17H9v3h1v1h2V20Z"/><rect class="fb260-2" x="13" y="19" width="3" height="1"/><rect class="fb260-2" x="16" y="18" width="1" height="1"/><path class="fb260-11" d="M10,14V13h1V12H10V11h1V10h1v1H11v1h2V11h1V10h1v2h1V11h1V10h1v3h1v2h2V14H20V13h1V12H20V11h1V9H19V8H18V7H17V6H16V7H15V8H14V7H13V6H12V8H11V7H10V8H8V9H9v1H8v1H9v1H8v2H9v1h1Z"/><rect class="fb260-11" x="19" y="7" width="1" height="1"/></svg>