<svg xmlns="http://www.w3.org/2000/svg" viewBox="0 0 29 33"><defs><style>polygon,rect,path{shape-rendering:crispedges;}.ba181-1{fill:#d14646;}.ba181-2{fill:#000000;}.ba181-3{fill:#e8b795;}.ba181-4{fill:#38a6e8;}.ba181-5{fill:#38a6e8;}.ba181-6{fill:#ffffff;}.ba181-7{fill:#8e4717;}.ba181-8{fill:#8e4717;}.ba181-9{fill:#381616;}.ba181-10{fill:#fad000;}</style></defs><rect class="ba181-1" x="19" y="24" width="1" height="1"/><rect class="ba181-1" x="19" y="20" width="1" height="1"/><path class="ba181-1" d="M19,24V21H18v1H17v2h2Z"/><path class="ba181-1" d="M0,33H6V27H7V26H8V25h2V24h2V22H11V21H10V20H9V16H8V15H9V11h1V10h1V9h7v1h1v1h1v4h1v1H20v4h3v1h1v3H23v1h1v1H23v7h6V0H0Z"/><path class="ba181-2" d="M7,27H6v6H7V27Z"/><rect class="ba181-2" x="7" y="26" width="1" height="1"/><path class="ba181-3" d="M8,27H7v6H8V27Z"/><rect class="ba181-3" x="8" y="26" width="1" height="1"/><path class="ba181-2" d="M9,27H8v6H9V27Z"/><path class="ba181-2" d="M10,26V25H8v1h2Z"/><path class="ba181-4" d="M16,32H12v1h5V32Z"/><path class="ba181-4" d="M10,30h1V29h1V28h1V27H12V26H11V25H10v1H9v7h1V30Z"/><path class="ba181-4" d="M20,26H19V25H18v1H17v1H16v1h1v1h1v1h1v3h1V26Z"/><rect class="ba181-4" x="16" y="30" width="1" height="1"/><rect class="ba181-4" x="12" y="30" width="1" height="1"/><path class="ba181-2" d="M13,23H12v1h1Z"/><path class="ba181-2" d="M16,23v1h1V23Z"/><path class="ba181-2" d="M18,24H17v2h1V25h1V24Z"/><path class="ba181-2" d="M21,26H20v7h1V26Z"/><path class="ba181-3" d="M22,26h1V25H20v1h1v7h1V26Z"/><path class="ba181-2" d="M23,26H22v7h1V26Z"/><path class="ba181-2" d="M11,26h1V24H10v1h1Z"/><rect class="ba181-2" x="12" y="26" width="1" height="1"/><rect class="ba181-2" x="16" y="26" width="1" height="1"/><path class="ba181-2" d="M13,27v1h3V27H13Z"/><path class="ba181-3" d="M13,26v1h3V26h1V24H16V23H13v1H12v2Z"/><path class="ba181-5" d="M19,30H18V29H17V28H12v1H11v1H10v3h2V32h5v1h2V30Zm-6,1H12V30h1Zm4,0H16V30h1Z"/><rect class="ba181-2" x="20" y="15" width="1" height="1"/><path class="ba181-2" d="M19,13v2h1V11H19v2Z"/><path class="ba181-3" d="M10,17h1v1h5v1h1V18h1V17h1V16h1V15H16V13h1V12h2V11H18V10H11v1H10v2h1V12h2v1H11v1h2v1H9v1h1Zm4-1h1v1H14Z"/><path class="ba181-3" d="M18,14h1V13H17v1Z"/><rect class="ba181-2" x="18" y="10" width="1" height="1"/><path class="ba181-2" d="M18,10V9H11v1h7Z"/><rect class="ba181-2" x="10" y="10" width="1" height="1"/><path class="ba181-2" d="M10,14V11H9v4h1Z"/><rect class="ba181-2" x="8" y="15" width="1" height="1"/><rect class="ba181-2" x="14" y="16" width="1" height="1"/><path class="ba181-6" d="M13,15V14H12v1Z"/><path class="ba181-6" d="M10,15h1V14H10Z"/><path class="ba181-6" d="M18,14v1h1V14Z"/><path class="ba181-6" d="M16,14v1h1V14Z"/><path class="ba181-2" d="M12,15V14H11v1Z"/><path class="ba181-2" d="M17,14v1h1V14Z"/><path class="ba181-7" d="M11,14V13H10v1Z"/><rect class="ba181-7" x="11" y="12" width="2" height="1"/><path class="ba181-7" d="M17,13H16v1h1Z"/><path class="ba181-7" d="M19,12H17v1h2Z"/><path class="ba181-8" d="M15,18H13v1h3V18Z"/><path class="ba181-8" d="M14,23h3V22h1V21h1V20h1V16H19v1H18v1H17v1H16v1H13V19H12V18H11V17H10V16H9v4h1v1h1v1h1v1h2Z"/><rect class="ba181-2" x="13" y="19" width="3" height="1"/><path class="ba181-2" d="M12,18v1h1V18Z"/><rect class="ba181-2" x="23" y="25" width="1" height="1"/><rect class="ba181-2" x="19" y="25" width="1" height="1"/><path class="ba181-9" d="M24,22V21H23v1Z"/><path class="ba181-10" d="M19,21v3h1v1h3V24H21V23H20V22h1V21h1v1H21v1h3V22H23V20H20v1Z"/><rect class="ba181-9" x="21" y="21" width="1" height="1"/><path class="ba181-9" d="M21,23v1h3V23H21Z"/><rect class="ba181-9" x="20" y="22" width="1" height="1"/></svg>