<svg xmlns="http://www.w3.org/2000/svg" viewBox="0 0 29 33"><defs><style>polygon,rect,path{shape-rendering:crispedges;}.ma187-1{fill:#7a982c;}.ma187-2{fill:#000000;}.ma187-3{fill:#cc3232;}.ma187-4{fill:#ffffff;}.ma187-5{fill:#b2622b;}.ma187-6{fill:#45ba00;}.ma187-7{fill:#ffffff;}.ma187-8{fill:#663434;}.ma187-9{fill:#e5ac2e;}.ma187-10{fill:#ff1f4a;}.ma187-11{fill:#fad000;}.ma187-12{fill:#00e070;}.ma187-13{fill:#ff1d99;}.ma187-14{fill:#10bcff;}.ma187-15{fill:#6e12ff;}.ma187-16{fill:#900;}.ma187-17{fill:#eaeaea;}.ma187-18{fill:#9b005c;}</style></defs><path class="ma187-1" d="M0,33H6V27H7V26H8V25h2V24h2V21H11V20H10V19H9V16H8V15H9V8h1V9h1V7h1V8h2V7H13V6h1V5h1V6h1V7H15V8h2V7h1V9h1V8h1v7h1v1H20v3H19v1H18v1H17v3h2v1h2V24H20V23h1V22h1v1h1v1H22v1h1v8h6V0H0Z"/><path class="ma187-2" d="M7,31V27H6v6H7V31Z"/><path class="ma187-3" d="M7,30v1H8V29H7Z"/><path class="ma187-3" d="M7,32v1H8V32Z"/><path class="ma187-3" d="M8,28V27H7v1Z"/><rect class="ma187-2" x="7" y="26" width="1" height="1"/><path class="ma187-2" d="M9,31V27H8v6H9V31Z"/><path class="ma187-3" d="M9,27v1h1v1H9v2h1V30h1V27H10V26H8v1Z"/><path class="ma187-3" d="M9,32v1h1V32Z"/><path class="ma187-2" d="M10,25H8v1h2Z"/><path class="ma187-2" d="M12,26h1V25H12V24H10v1h1v8h1V26Z"/><path class="ma187-4" d="M17,26H16v1H13V26H12v7h5V26Z"/><path class="ma187-2" d="M13,23h3v1h1V21H16v1H13V21H12v3h1Z"/><path class="ma187-2" d="M13,26v1h3V26H13Z"/><path class="ma187-5" d="M13,25v1h3V25h1V24H16V23H13v1H12v1Z"/><path class="ma187-2" d="M18,30V25h1V24H17v1H16v1h1v7h1V30Z"/><path class="ma187-3" d="M18,27v3h1v1h1V29H19V28h1V26H19v1Z"/><rect class="ma187-3" x="19" y="32" width="1" height="1"/><path class="ma187-2" d="M21,31V25H19v1h1v7h1V31Z"/><path class="ma187-3" d="M21,28h1V27H21Z"/><path class="ma187-3" d="M21,32v1h1V32Z"/><path class="ma187-3" d="M21,30v1h1V29H21Z"/><path class="ma187-5" d="M22,27V25H21v2Z"/><path class="ma187-2" d="M23,25H22v8h1V25Z"/><path class="ma187-6" d="M11,30H10v1H9v1h1v1h1V30Z"/><path class="ma187-6" d="M10,27h1V25H10v2Z"/><path class="ma187-6" d="M18,26v1h1V25H18Z"/><path class="ma187-6" d="M7,29H8V28H7Z"/><path class="ma187-6" d="M10,28H9v1h1Z"/><path class="ma187-6" d="M21,29h1V28H21Z"/><path class="ma187-6" d="M19,29h1V28H19Z"/><path class="ma187-6" d="M21,32h1V31H21Z"/><path class="ma187-6" d="M7,32H8V31H7Z"/><path class="ma187-6" d="M20,32V31H19V30H18v3h1V32Z"/><rect class="ma187-2" x="20" y="15" width="1" height="1"/><path class="ma187-2" d="M19,13v2h1V12H19Z"/><path class="ma187-5" d="M18,14h1V13H17v1Z"/><rect class="ma187-5" x="10" y="12" width="1" height="1"/><path class="ma187-5" d="M13,22h3V21h1V20h1V19h1V16h1V15H16V13h1V12H13v1H11v1h2v1H9v1h1v3h1v1h1v1h1Zm1-6h1v1H14Zm-2,3V18h1v1h3v1H13V19Z"/><path class="ma187-2" d="M19,17v2h1V16H19Z"/><rect class="ma187-2" x="18" y="19" width="1" height="1"/><rect class="ma187-2" x="17" y="20" width="1" height="1"/><rect class="ma187-2" x="11" y="20" width="1" height="1"/><rect class="ma187-2" x="10" y="19" width="1" height="1"/><path class="ma187-2" d="M10,14V12H9v3h1Z"/><path class="ma187-2" d="M10,16H9v3h1V16Z"/><rect class="ma187-2" x="8" y="15" width="1" height="1"/><rect class="ma187-2" x="14" y="16" width="1" height="1"/><path class="ma187-7" d="M13,15V14H12v1Z"/><path class="ma187-7" d="M10,15h1V14H10Z"/><path class="ma187-7" d="M18,14v1h1V14Z"/><path class="ma187-7" d="M16,14v1h1V14Z"/><path class="ma187-2" d="M12,15V14H11v1Z"/><path class="ma187-2" d="M17,14v1h1V14Z"/><path class="ma187-8" d="M10,14h1V13H10Z"/><path class="ma187-8" d="M11,13h2V12H11Z"/><path class="ma187-8" d="M17,13H16v1h1Z"/><path class="ma187-8" d="M19,12H17v1h2Z"/><rect class="ma187-2" x="13" y="19" width="3" height="1"/><rect class="ma187-2" x="12" y="18" width="1" height="1"/><rect class="ma187-1" x="17" y="9" width="1" height="1"/><rect class="ma187-9" x="12" y="10" width="1" height="1"/><rect class="ma187-9" x="16" y="10" width="1" height="1"/><rect class="ma187-1" x="11" y="9" width="1" height="1"/><rect class="ma187-10" x="14" y="10" width="1" height="1"/><rect class="ma187-10" x="13" y="9" width="1" height="1"/><path class="ma187-7" d="M12,7H11V8h1Z"/><path class="ma187-7" d="M13,9V8H12V9Z"/><path class="ma187-7" d="M17,9V8H16V9Z"/><rect class="ma187-7" x="18" y="9" width="1" height="1"/><rect class="ma187-7" x="10" y="9" width="1" height="1"/><path class="ma187-7" d="M10,8H9V9h1Z"/><path class="ma187-7" d="M18,7H17V8h1Z"/><rect class="ma187-11" x="16" y="9" width="1" height="1"/><rect class="ma187-11" x="12" y="9" width="1" height="1"/><rect class="ma187-12" x="11" y="10" width="1" height="1"/><path class="ma187-11" d="M12,8H11V9h1Z"/><path class="ma187-11" d="M18,9V8H17V9Z"/><path class="ma187-13" d="M10,10H9v1h1Z"/><rect class="ma187-14" x="17" y="10" width="1" height="1"/><path class="ma187-11" d="M19,11V10H18v1H16V10H15v1H14V10H13v1H11V10H10v2h9Z"/><path class="ma187-15" d="M19,11h1V10H19Z"/><path class="ma187-7" d="M20,8H19V9h1Z"/><rect class="ma187-10" x="15" y="9" width="1" height="1"/><rect class="ma187-10" x="14" y="8" width="1" height="1"/><rect class="ma187-16" x="14" y="9" width="1" height="1"/><path class="ma187-11" d="M14,9V8H13V9Z"/><path class="ma187-11" d="M16,9V8H15V9Z"/><rect class="ma187-17" x="14" y="6" width="1" height="1"/><rect class="ma187-7" x="14" y="7" width="1" height="1"/><rect class="ma187-7" x="13" y="6" width="1" height="1"/><rect class="ma187-7" x="15" y="6" width="1" height="1"/><rect class="ma187-7" x="14" y="5" width="1" height="1"/><path class="ma187-9" d="M10,11H9v1h1Z"/><path class="ma187-9" d="M19,12h1V11H19Z"/><path class="ma187-9" d="M20,10V9H19v1Z"/><path class="ma187-9" d="M10,9H9v1h1Z"/><rect class="ma187-13" x="21" y="22" width="1" height="1"/><rect class="ma187-13" x="20" y="23" width="1" height="1"/><rect class="ma187-13" x="22" y="23" width="1" height="1"/><path class="ma187-13" d="M22,24.5V24H21v1h1Z"/><rect class="ma187-18" x="21" y="23" width="1" height="1"/></svg>