<svg xmlns="http://www.w3.org/2000/svg" viewBox="0 0 29 33"><defs><style>polygon,rect,path{shape-rendering:crispedges;}.na7-1{fill:#6b4f99;}.na7-2{fill:#000000;}.na7-3{fill:#d8be00;}.na7-4{fill:#9b8100;}.na7-5{fill:#e8b795;}.na7-6{fill:#cc2f76;}.na7-7{fill:#00686d;}.na7-8{fill:#00686d;}.na7-9{fill:#45ba00;}.na7-10{fill:#db5800;}</style></defs><path class="na7-1" d="M0,33H6V27H7V26H8V25h2V24h2V21H10V20H9V16H8V15H9V10h1V9h1V8h7V9h1v2h1v4h1v1H20v4H19v1H17v3h2v1h2v1h1v1h1v6h6V0H0Z"/><path class="na7-2" d="M23,27H22v6h1V27Z"/><rect class="na7-2" x="21" y="26" width="1" height="1"/><path class="na7-3" d="M21,28h1V27H21Z"/><path class="na7-3" d="M21,31v1h1V30H21Z"/><path class="na7-2" d="M21,31V27H20v6h1V31Z"/><path class="na7-3" d="M19,31V30H18v2h1v1h1V31Z"/><path class="na7-3" d="M18,26v2h1v1h1V27H19V25H18Z"/><path class="na7-2" d="M20,26h1V25H19v1Z"/><path class="na7-2" d="M18,31V25h1V24H17v1H16v1h1v7h1V31Z"/><path class="na7-4" d="M17,26H16v1H13V26H12v7h5V26Z"/><path class="na7-2" d="M13,26v1h3V26H13Z"/><path class="na7-2" d="M13,23h3v1h1V21H16v1H13V21H12v3h1Z"/><path class="na7-5" d="M13,25v1h3V25h1V24H16V23H13v1H12v1Z"/><path class="na7-2" d="M12,26h1V25H12V24H10v1h1v8h1V26Z"/><path class="na7-3" d="M10,26H9v2h1v1h1V27H10Z"/><path class="na7-3" d="M10,31V30H9v2h1v1h1V31Z"/><path class="na7-2" d="M10,26V25H8v1h2Z"/><path class="na7-2" d="M9,31V27H8v6H9V31Z"/><rect class="na7-2" x="7" y="26" width="1" height="1"/><path class="na7-3" d="M7,31v2H8V31Z"/><path class="na7-3" d="M8,29V27H7v2Z"/><path class="na7-2" d="M7,30V27H6v6H7V30Z"/><path class="na7-6" d="M21,29v1h1V28H21Z"/><path class="na7-6" d="M21,32v1h1V32Z"/><path class="na7-6" d="M19,26v1h2V26H19Z"/><path class="na7-6" d="M19,28H18v2h1v1h1V29H19Z"/><path class="na7-6" d="M18,32v1h1V32Z"/><path class="na7-6" d="M10,27h1V25H10v2Z"/><path class="na7-6" d="M10,28H9v2h1v1h1V29H10Z"/><path class="na7-6" d="M9,32v1h1V32Z"/><path class="na7-6" d="M9,27V26H8v1Z"/><path class="na7-6" d="M7,30v1H8V29H7Z"/><rect class="na7-2" x="20" y="15" width="1" height="1"/><rect class="na7-5" x="19" y="15" width="1" height="1"/><path class="na7-5" d="M18,10H16v1H15v1H14v2h1V13h2V12h2V11H18Z"/><path class="na7-5" d="M13,22h3V21h1V20h1V18h1V16H16V15H13v1H10v2h1v2h1v1h1Zm1-6h1v1H14Zm-2,3V18h1v1h3v1H13V19Z"/><rect class="na7-5" x="9" y="15" width="1" height="1"/><path class="na7-2" d="M19,17h1V16H19Z"/><path class="na7-2" d="M10,16H9v1h1Z"/><rect class="na7-2" x="8" y="15" width="1" height="1"/><rect class="na7-2" x="14" y="16" width="1" height="1"/><path class="na7-7" d="M19,12H17v1h2Z"/><path class="na7-8" d="M19,18H18v2H17v1h2V20h1V17H19Z"/><path class="na7-8" d="M11,20V18H10V17H9v3h1v1h2V20Z"/><rect class="na7-2" x="13" y="19" width="3" height="1"/><rect class="na7-2" x="12" y="18" width="1" height="1"/><path class="na7-9" d="M10,13h4V12h1V11h1V10h2v1h1V9H18V8H11V9H10v1H9v4h1Z"/><path class="na7-9" d="M19,13v1h1V11H19v2Z"/><path class="na7-10" d="M13,14H10v2h3V15h1V14Z"/><path class="na7-10" d="M19,14H15v1h1v1h3V14Z"/><path class="na7-2" d="M19,14V13H15v1h4Z"/><path class="na7-2" d="M13,14h1V13H10v1h3Z"/><path class="na7-2" d="M19,15h1V14H19Z"/><path class="na7-2" d="M10,14H9v1h1Z"/><path class="na7-2" d="M14,14v1h1V14Z"/></svg>