<svg xmlns="http://www.w3.org/2000/svg" viewBox="0 0 29 33"><defs><style>polygon,rect,path{shape-rendering:crispedges;}.da72-1{fill:#d4a122;}.da72-2{fill:#000000;}.da72-3{fill:#68aaad;}.da72-4{fill:#e8b795;}.da72-5{fill:#ffffff;}.da72-6{fill:#663434;}.da72-7{fill:#663434;}.da72-8{fill:#004a77;}</style></defs><path class="da72-1" d="M0,33H6V24H7V23H8v1H9v1h1V24h2V22H11V21H10V20H9V16H8V15H9V11h1V9h1V8h7V9h1v1h1v5h1v1H20v4H19v1H18v1H17v2h2v1h1V24h1V23h1v1h1v9h6V0H0Z"/><path class="da72-2" d="M9,27H8v6H9V27Z"/><path class="da72-2" d="M12,24H10v1h2Z"/><path class="da72-2" d="M13,23H12v1h1Z"/><path class="da72-2" d="M16,24h1V23H16Z"/><path class="da72-2" d="M18,25h1V24H17v1Z"/><path class="da72-2" d="M21,27H20v6h1V27Z"/><path class="da72-2" d="M23,24H22v9h1V24Z"/><path class="da72-3" d="M20,27H19V25H17v1H16v1H13V26H12V25H10v2H9v6H20V27Z"/><path class="da72-4" d="M22,24H21v1H20v2h1v6h1V24Z"/><path class="da72-4" d="M13,25v1h3V25h1V24H16V23H13v1H12v1Z"/><path class="da72-2" d="M13,26v1h3V26H13Z"/><rect class="da72-2" x="16" y="25" width="1" height="1"/><rect class="da72-2" x="12" y="25" width="1" height="1"/><rect class="da72-2" x="20" y="15" width="1" height="1"/><path class="da72-2" d="M19,12v3h1V11H19Z"/><path class="da72-4" d="M10,14h2V13H10Z"/><path class="da72-4" d="M10,17h1v1h1v1h1V18h5V17h1V16h1V15H16V14h2V13H16V12h2v1h1V11H18V10H17v1H16V10H15v1H14V10H13v1H12V10H11v1H10v1h2v1h1v2H9v1h1Zm4-1h1v1H14Z"/><rect class="da72-2" x="18" y="10" width="1" height="1"/><rect class="da72-2" x="17" y="9" width="1" height="1"/><rect class="da72-2" x="15" y="9" width="1" height="1"/><rect class="da72-2" x="11" y="9" width="1" height="1"/><rect class="da72-2" x="13" y="9" width="1" height="1"/><rect class="da72-2" x="8" y="15" width="1" height="1"/><rect class="da72-2" x="14" y="16" width="1" height="1"/><path class="da72-5" d="M18,14v1h1V14Z"/><path class="da72-5" d="M12,15h1V14H12Z"/><path class="da72-2" d="M17,14H16v1h2V14Z"/><path class="da72-2" d="M12,15V14H10V11H9v4h3Z"/><path class="da72-6" d="M19,13H18v1h1Z"/><rect class="da72-6" x="16" y="12" width="2" height="1"/><path class="da72-6" d="M13,14V13H12v1Z"/><path class="da72-6" d="M12,13V12H10v1Z"/><path class="da72-7" d="M15,18H13v1h3V18Z"/><path class="da72-7" d="M14,23h3V22h1V21h1V20h1V16H19v1H18v1H17v1H16v1H13V19H12V18H11V17H10V16H9v4h1v1h1v1h1v1h2Z"/><rect class="da72-2" x="13" y="19" width="3" height="1"/><path class="da72-2" d="M16,19h1V18H16Z"/><path class="da72-2" d="M20,27V25H19v2Z"/><rect class="da72-2" x="20" y="24" width="1" height="1"/><rect class="da72-2" x="21" y="23" width="1" height="1"/><path class="da72-4" d="M9,27V25H8V24H7v9H8V27Z"/><path class="da72-2" d="M10,27V25H9v2Z"/><path class="da72-2" d="M7,24H6v9H7V24Z"/><rect class="da72-2" x="8" y="24" width="1" height="1"/><rect class="da72-2" x="7" y="23" width="1" height="1"/><path class="da72-8" d="M11,10V9H10v2h1Z"/><path class="da72-8" d="M12,10v1h1V9h1v2h1V9h1v2h1V9h1V8H11V9h1Z"/><rect class="da72-8" x="18" y="9" width="1" height="1"/><path class="da72-8" d="M20,11V10H19v1Z"/></svg>