<svg xmlns="http://www.w3.org/2000/svg" viewBox="0 0 29 33"><defs><style>polygon,rect,path{shape-rendering:crispedges;}.hb278-1{fill:#6b4f99;}.hb278-2{fill:#000000;}.hb278-3{fill:#a56e49;}.hb278-4{fill:#316a6d;}.hb278-5{fill:#cbed03;}.hb278-6{fill:#fad000;}.hb278-7{fill:#68aaad;}</style></defs><path class="hb278-1" d="M0,33H6V27H7V26H8V25h2V24h2V21H11V20H10V19H9V17H8V15H9V11h1V10h1V9h2V7h1V6h2V5h2V6H17V7h1V9h1v2h1v4h1v2H20v2H19v1H18v1H17v3h2v1h2v1h1v1h1v6h6V0H0Z"/><path class="hb278-2" d="M23,27H22v6h1V27Z"/><path class="hb278-3" d="M22,27H21v6h1V27Z"/><rect class="hb278-2" x="21" y="26" width="1" height="1"/><path class="hb278-2" d="M21,27H20v6h1V27Z"/><path class="hb278-3" d="M20,27h1V26H19V25H17V24H16V23H13v1H12v1H10v1H8v1H9v6h5V29h1v4h5V27Zm-8,2H11V28h1Zm6,0H17V28h1Z"/><path class="hb278-2" d="M20,26h1V25H19v1Z"/><rect class="hb278-2" x="17" y="28" width="1" height="1"/><path class="hb278-2" d="M18,25h1V24H17v1Z"/><path class="hb278-2" d="M15,29H14v4h1V29Z"/><path class="hb278-2" d="M13,23V22H12v2h1Z"/><rect class="hb278-2" x="11" y="28" width="1" height="1"/><path class="hb278-2" d="M12,24H10v1h2Z"/><path class="hb278-2" d="M10,25H8v1h2Z"/><path class="hb278-2" d="M9,27H8v6H9V27Z"/><path class="hb278-3" d="M8,27H7v6H8V27Z"/><rect class="hb278-2" x="7" y="26" width="1" height="1"/><path class="hb278-2" d="M7,27H6v6H7V27Z"/><path class="hb278-2" d="M21,16V15H20v1Z"/><path class="hb278-2" d="M15,13v1h4v1h1V11H19v2Z"/><rect class="hb278-3" x="19" y="15" width="1" height="1"/><path class="hb278-3" d="M16,16V15H13v1H10v2h1v1h1v1h1v1h3V20h1V19h1V18h1V16H16Zm-1,4H14V19h1Zm0-3H14V16h1Z"/><path class="hb278-3" d="M14,13v1h1V13h4V11H18V10H15v1H13V10H11v1H10v2Z"/><rect class="hb278-3" x="9" y="15" width="1" height="1"/><path class="hb278-2" d="M18,11h1V10H18Z"/><path class="hb278-2" d="M16,23v1h1V22H16Z"/><path class="hb278-2" d="M16,10h2V9H16Z"/><path class="hb278-2" d="M13,9H11v1h2Z"/><rect class="hb278-2" x="10" y="10" width="1" height="1"/><path class="hb278-2" d="M9,15H8v1H9Z"/><rect class="hb278-2" x="14" y="16" width="1" height="1"/><path class="hb278-4" d="M13,23h3V22h1V21h1V20h1V19h1V16H19v2H18v1H17v1H16v1H13V20H12V19H11V18H10V16H9v3h1v1h1v1h1v1h1Z"/><rect class="hb278-2" x="14" y="19" width="1" height="1"/><path class="hb278-5" d="M13,11h2V10h1V9h2V7H17V6h1V5H16V6H14V7H13v4Z"/><path class="hb278-5" d="M19,10V9H18v1Z"/><path class="hb278-6" d="M20,17h1V16H20Z"/><path class="hb278-6" d="M8,16v1H9V16Z"/><path class="hb278-7" d="M13,16V15h1V14H10v2h3Z"/><path class="hb278-7" d="M19,14H15v1h1v1h3V14Z"/><path class="hb278-2" d="M10,14h4V13H10V11H9v4h1Z"/><path class="hb278-2" d="M15,15V14H14v1Z"/><rect class="hb278-5" x="18" y="9" width="1" height="1"></rect></svg>