<svg xmlns="http://www.w3.org/2000/svg" viewBox="0 0 29 33"><defs><style>polygon,rect,path{shape-rendering:crispedges;}.ab280-1{fill:#000000;}.ab280-2{fill:#841f00;}.ab280-3{fill:#e8b795;}.ab280-4{fill:#4922aa;}.ab280-5{fill:#ffffff;}.ab280-6{fill:#fad000;}.ab280-7{fill:#5a2de2;}.ab280-8{fill:#474718;}.ab280-9{fill:#6f7032;}.ab280-10{fill:#b4bd09;}</style></defs><path class="ab280-1" d="M23,27H22v6h1V27Z"/><path class="ab280-2" d="M22,27H21v6h1V27Z"/><rect class="ab280-1" x="21" y="26" width="1" height="1"/><path class="ab280-1" d="M21,27H20v6h1V27Z"/><rect class="ab280-2" x="15" y="25" width="1" height="1"/><rect class="ab280-2" x="13" y="25" width="1" height="1"/><path class="ab280-2" d="M20,27h1V26H18v1H17v1H16v2H15v1H14V30H13V28H12V27H11V26H8v1H9v6h5V32h1v1h5V27Z"/><rect class="ab280-1" x="14" y="32" width="1" height="1"/><path class="ab280-3" d="M15,24h1V23H13v1h1v1h1Z"/><path class="ab280-1" d="M11,26V24H10v1H8v1h3Z"/><path class="ab280-1" d="M9,27H8v6H9V27Z"/><path class="ab280-2" d="M8,27H7v6H8V27Z"/><rect class="ab280-1" x="7" y="26" width="1" height="1"/><path class="ab280-1" d="M7,27H6v6H7V27Z"/><path class="ab280-3" d="M13,22h3V21h1V20h1V19h1V16h1V15H19V13H17v1h1v1H16v1H15v1H14V16H13V15H11V14H10v1H9v1h1v3h1v1h1v1h1Zm-1-3V18h1v1h3v1H13V19Z"/><path class="ab280-1" d="M20,16H19v3h1V16Z"/><rect class="ab280-1" x="18" y="19" width="1" height="1"/><rect class="ab280-1" x="17" y="20" width="1" height="1"/><rect class="ab280-1" x="11" y="20" width="1" height="1"/><rect class="ab280-1" x="10" y="19" width="1" height="1"/><path class="ab280-1" d="M10,18V16H9v3h1Z"/><path class="ab280-4" d="M18,15V14H17v1Z"/><rect class="ab280-4" x="16" y="13" width="1" height="1"/><rect class="ab280-1" x="14" y="14" width="1" height="1"/><path class="ab280-5" d="M16,13H13v1H12v1h1v1h3V15h1V14H16Zm-1,2H14V14h1Z"/><rect class="ab280-4" x="12" y="13" width="1" height="1"/><path class="ab280-4" d="M11,14v1h1V14Z"/><path class="ab280-1" d="M14,17h1V16H14Z"/><rect class="ab280-3" x="11" y="13" width="1" height="1"/><rect class="ab280-1" x="14" y="30" width="1" height="1"/><rect class="ab280-1" x="12" y="27" width="1" height="1"/><path class="ab280-1" d="M15,29v1h1V28H15Z"/><rect class="ab280-1" x="16" y="27" width="1" height="1"/><path class="ab280-1" d="M13,28v2h1V28Z"/><rect class="ab280-1" x="17" y="26" width="1" height="1"/><rect class="ab280-1" x="11" y="26" width="1" height="1"/><rect class="ab280-1" x="14" y="25" width="1" height="1"/><rect class="ab280-1" x="13" y="26" width="1" height="1"/><rect class="ab280-1" x="15" y="26" width="1" height="1"/><path class="ab280-1" d="M12,25v1h1V25h1V24H13V23h3v1H15v1h1v1h1V24h1V23H17V21H16v1H13V21H12v2H11v1h1Z"/><rect class="ab280-6" x="16" y="26" width="1" height="1"/><path class="ab280-6" d="M15,27V26H14v1H13v1h1v2h1V28h1V27Z"/><rect class="ab280-6" x="12" y="26" width="1" height="1"/><path class="ab280-6" d="M12,26V24H11v2Z"/><path class="ab280-6" d="M17,25v1h1V24H17Z"/><path class="ab280-1" d="M21,26V25H19V24H18v2Z"/><rect class="ab280-1" x="13" y="19" width="3" height="1"/><rect class="ab280-1" x="12" y="18" width="1" height="1"/><path class="ab280-7" d="M9,16V15h1V14h1V13H8v6H9V16Z"/><path class="ab280-7" d="M19,14v1h1v4h1V13H19Z"/><rect class="ab280-7" x="9" y="19" width="1" height="1"/><rect class="ab280-7" x="19" y="19" width="1" height="1"/><path class="ab280-8" d="M17,11v2h1V11Z"/><path class="ab280-9" d="M10,12v1h1V11h1v2h1V11h1v2h1V11h1v2h1V11h1v2h1V11h1V10H19V9H18V8H11V9H10v1H9v1h1Z"/><path class="ab280-8" d="M16,12V11H15v2h1Z"/><path class="ab280-8" d="M14,12V11H13v2h1Z"/><path class="ab280-8" d="M12,12V11H11v2h1Z"/><path class="ab280-8" d="M10,12V11H9v2h1Z"/><path class="ab280-8" d="M19,12v1h1V11H19Z"/><path class="ab280-10" d="M0,8V33H6V27H7V26H8V25h2V24h1V23h1V21H11V20H9V19H8V13H9V10h1V9h1V8h7V9h1v1h1v3h1v6H20v1H18v1H17v2h1v1h1v1h2v1h1v1h1v6h6V0H0Z"/></svg>