<svg xmlns="http://www.w3.org/2000/svg" viewBox="0 0 29 33"><defs><style>polygon,rect,path{shape-rendering:crispedges;}.ra146-1{fill:#000000;}.ra146-2{fill:#cc3232;}.ra146-3{fill:#cc3232;}.ra146-4{fill:#e8b795;}.ra146-5{fill:#ffffff;}.ra146-6{fill:#7a982c;}</style></defs><path class="ra146-1" d="M23,27H22v6h1V27Z"/><path class="ra146-2" d="M22,27H21v6h1V27Z"/><rect class="ra146-1" x="21" y="26" width="1" height="1"/><path class="ra146-1" d="M21,27H20v6h1V27Z"/><path class="ra146-2" d="M20,27h1V26H19V25H18V24H16v1h1v3h2v1H17v2h1V30h1v2H16V25H13v3h2v4H12V25h1V24H11v1H10v1H8v1H9v6H20V27Zm-9,2v3H10V28h1Z"/><path class="ra146-1" d="M20,26h1V25H19v1Z"/><rect class="ra146-1" x="18" y="24" width="1" height="1"/><rect class="ra146-1" x="18" y="22" width="1" height="1"/><rect class="ra146-2" x="17" y="22" width="1" height="1"/><path class="ra146-1" d="M13,25h3V24h2V23H17V22h1V21h1V20h1V17h1V15H20V11H19V10H18V9H11v1H10v1H9v4H8v2H9v3h1v1h1v1h1v1H11v1h2Zm3-10V14h1v1h2v1H16Zm0,6H13V20h3Zm-5-5H10V14h1v1h2v1Z"/><rect class="ra146-2" x="11" y="22" width="1" height="1"/><rect class="ra146-1" x="10" y="24" width="1" height="1"/><rect class="ra146-1" x="10" y="22" width="1" height="1"/><path class="ra146-1" d="M10,25H8v1h2Z"/><path class="ra146-1" d="M9,27H8v6H9V27Z"/><path class="ra146-2" d="M8,27H7v6H8V27Z"/><rect class="ra146-1" x="7" y="26" width="1" height="1"/><path class="ra146-1" d="M7,27H6v6H7V27Z"/><path class="ra146-2" d="M14,31V29H13v2Z"/><path class="ra146-3" d="M14,29v2H13V30H12v2h3V28H13v1Z"/><path class="ra146-3" d="M10,29v3h1V28H10Z"/><path class="ra146-3" d="M18,29h1V28H17v1Z"/><path class="ra146-3" d="M16,31v1h3V30H18v1H17V30H16Z"/><path class="ra146-1" d="M12,26v4h1V25H12Z"/><path class="ra146-1" d="M16,30h1V25H16v5Z"/><path class="ra146-4" d="M19,15H16v1h3Z"/><rect class="ra146-4" x="13" y="20" width="3" height="1"/><path class="ra146-4" d="M13,15H10v1h3Z"/><path class="ra146-5" d="M11,14H10v1h1Z"/><path class="ra146-5" d="M17,14H16v1h1Z"/><path class="ra146-6" d="M0,9V33H6V27H7V26H8V25h2V24h1V23H10V22h1V21H10V20H9V17H8V15H9V11h1V10h1V9h7v1h1v1h1v4h1v2H20v3H19v1H18v1h1v1H18v1h1v1h2v1h1v1h1v6h6V0H0Z"/></svg>