<svg xmlns="http://www.w3.org/2000/svg" viewBox="0 0 29 33"><defs><style>polygon,rect,path{shape-rendering:crispedges;}.da199-1{fill:#31a09d;}.da199-2{fill:#000000;}.da199-3{fill:#ffb38d;}.da199-4{fill:#ce8452;}.da199-5{fill:#7f5018;}.da199-6{fill:#ffffff;}.da199-7{fill:#990000;}.da199-8{fill:#c4ea3b;}</style></defs><path class="da199-1" d="M6,32V27H7V26H8V25h2V24h2V21H11V20H9V18H8V13H9V11h1V10h1V9h7v1h1v1h1v1h1v6H20v2H18v1H17v3h2v1h2v1h1v1h1v6h6V0H0V33H6Z"/><path class="da199-2" d="M23,27H22v3H21V27H20v6h1V31h1v2h1V27Z"/><rect class="da199-2" x="21" y="26" width="1" height="1"/><path class="da199-3" d="M21,28v2h1V27H21Z"/><path class="da199-4" d="M21,31v2h1V31Z"/><path class="da199-2" d="M20,26h1V25H19v1Z"/><path class="da199-3" d="M20,27h1V26H19V25H17v1H16v1H13V26H12V25H10v1H8v1H9v6H20V27Z"/><path class="da199-2" d="M18,25h1V24H17v1Z"/><rect class="da199-2" x="16" y="25" width="1" height="1"/><path class="da199-2" d="M13,26v1h3V26H13Z"/><path class="da199-2" d="M13,23V22H12v2h1Z"/><path class="da199-4" d="M13,25v1h3V25h1V24H16V23H13v1H12v1Z"/><rect class="da199-2" x="12" y="25" width="1" height="1"/><path class="da199-2" d="M12,24H10v1h2Z"/><path class="da199-2" d="M10,25H8v1h2Z"/><path class="da199-2" d="M9,27H8v3H7V27H6v6H7V31H8v2H9V27Z"/><rect class="da199-2" x="7" y="26" width="1" height="1"/><path class="da199-3" d="M7,30H8V27H7v3Z"/><path class="da199-4" d="M7,31v2H8V31Z"/><rect class="da199-2" x="19" y="14" width="1" height="1"/><path class="da199-4" d="M18,15H16v1H15v1H14V16H13v1H12V15H11v4h1V18h2v1h1V18h2v1h1V15Z"/><rect class="da199-4" x="15" y="20" width="1" height="1"/><rect class="da199-4" x="19" y="15" width="1" height="1"/><rect class="da199-4" x="9" y="15" width="1" height="1"/><rect class="da199-4" x="13" y="20" width="1" height="1"/><rect class="da199-2" x="19" y="16" width="1" height="1"/><path class="da199-2" d="M16,23v1h1V22H16Z"/><rect class="da199-2" x="9" y="16" width="1" height="1"/><path class="da199-5" d="M18,15V14H17v1Z"/><rect class="da199-2" x="14" y="14" width="1" height="1"/><path class="da199-6" d="M16,14V13H14v1h2Z"/><path class="da199-6" d="M14,16h1V15H13v1Z"/><rect class="da199-6" x="12" y="14" width="1" height="1"/><path class="da199-6" d="M17,15V14H16v1Z"/><path class="da199-5" d="M16,12H14v1h2Z"/><rect class="da199-5" x="12" y="13" width="1" height="1"/><rect class="da199-5" x="11" y="14" width="1" height="1"/><rect class="da199-2" x="14" y="16" width="1" height="1"/><path class="da199-4" d="M15,11H14v1h1Z"/><path class="da199-4" d="M12,13h1V12H11v2h1Z"/><path class="da199-4" d="M18,13V11H17v3h1Z"/><path class="da199-7" d="M15,18v1h1V18Z"/><rect class="da199-7" x="19" y="17" width="1" height="1"/><path class="da199-7" d="M13,23h3V22h1V21h1V20h1V18H18v1H16v2H15V20H14v1H13V19h1V18H12v1H11V18H10v2h1v1h1v1h1Z"/><rect class="da199-7" x="9" y="17" width="1" height="1"/><path class="da199-2" d="M14,19H13v1h3V19H14Z"/><path class="da199-2" d="M16,18v1h1V18Z"/><path class="da199-8" d="M9,16V15h1v3h1V12h2v3h1V11h1v1h1v2h1V11h1v7h1V14h1v4h1V12H20V11H19V10H18V9H11v1H10v1H9v2H8v5H9V16Z"/><path class="da199-8" d="M19,19v1h1V18H19Z"/><path class="da199-8" d="M15,15v1h1V14H15Z"/><path class="da199-8" d="M12,16v1h1V15H12Z"/><path class="da199-8" d="M9,18v2h1V18Z"/></svg>