<svg xmlns="http://www.w3.org/2000/svg" viewBox="0 0 29 33"><defs><style>polygon,rect,path{shape-rendering:crispedges;}.ta43-1{fill:#29834f;}.ta43-2{fill:#000000;}.ta43-3{fill:#841f00;}.ta43-4{fill:#b2622b;}.ta43-5{fill:#00af68;}.ta43-6{fill:#ffffff;}.ta43-7{fill:#316a6d;}.ta43-8{fill:#316a6d;}.ta43-9{fill:#cbed03;}.ta43-10{fill:#304400;}</style></defs><path class="ta43-1" d="M6,32V27H7V26H8V25h2V24h1V23H10V22H9V21H8V20H7V11H8V10H9V9h1V8h1V7h7V8h1V9h1v1h1v1h1v9H21v1H20v1H19v1H18v1h1v1h2v1h1v1h1v6h6V0H0V33H6Z"/><path class="ta43-2" d="M23,27H22v6h1V27Z"/><path class="ta43-3" d="M22,27H21v6h1V27Z"/><rect class="ta43-2" x="21" y="26" width="1" height="1"/><path class="ta43-2" d="M21,27H20v6h1V27Z"/><path class="ta43-3" d="M20,27h1V26H19V25H18V24H16v1h1v4h1v1h1v3h1V27Z"/><path class="ta43-3" d="M10,30h1V29h1V25h1V24H11v1H10v1H8v1H9v6h1V30Z"/><path class="ta43-2" d="M20,26h1V25H19v1Z"/><rect class="ta43-2" x="18" y="24" width="1" height="1"/><path class="ta43-2" d="M16,24h2V23H16Z"/><path class="ta43-2" d="M13,24v1h3V24H13Z"/><path class="ta43-4" d="M15,23H13v1h3V23Z"/><path class="ta43-2" d="M13,23H11v1h2Z"/><rect class="ta43-2" x="10" y="24" width="1" height="1"/><path class="ta43-2" d="M10,25H8v1h2Z"/><path class="ta43-2" d="M9,27H8v6H9V27Z"/><path class="ta43-3" d="M8,27H7v6H8V27Z"/><rect class="ta43-2" x="7" y="26" width="1" height="1"/><path class="ta43-2" d="M7,27H6v6H7V27Z"/><path class="ta43-3" d="M16,32H12v1h5V32Z"/><path class="ta43-3" d="M13,25v3h3V25H13Z"/><rect class="ta43-3" x="16" y="30" width="1" height="1"/><rect class="ta43-3" x="12" y="30" width="1" height="1"/><path class="ta43-5" d="M19,30H18V29H17v2H16V28H13v3H12V29H11v1H10v3h2V32h5v1h2V30Z"/><path class="ta43-2" d="M13,25H12v5h1V25Z"/><path class="ta43-2" d="M16,28v2h1V25H16v3Z"/><path class="ta43-4" d="M12,19V18h5v2h1V19h1V16H16V13h1V11H15v4H14v1h1v1H14V16H13v1H11V16H10v3h1v1h1Z"/><path class="ta43-4" d="M16,22V20H13v2h3Z"/><polygon class="ta43-4" points="18 14 19 14 19 13 17 13 17 14 18 14"/><rect class="ta43-2" x="14" y="16" width="1" height="1"/><path class="ta43-6" d="M16,14v2h1V14Z"/><path class="ta43-6" d="M18,14v2h1V14Z"/><path class="ta43-2" d="M17,14v2h1V14Z"/><path class="ta43-7" d="M17,13H16v1h1Z"/><path class="ta43-7" d="M17,12v1h2V12H17Z"/><path class="ta43-3" d="M13,22H12V21H11V20H10V19H9V12h1V11h2V10h5v1h2v1h1v7H19v1H18v1H17v1H16v1h2V22h1V21h1V20h1V11H20V10H19V9H18V8H11V9H10v1H9v1H8v9H9v1h1v1h1v1h2Z"/><rect class="ta43-2" x="10" y="8" width="1" height="1"/><rect class="ta43-2" x="9" y="9" width="1" height="1"/><rect class="ta43-2" x="8" y="10" width="1" height="1"/><path class="ta43-2" d="M8,11H7v9H8V11Z"/><rect class="ta43-2" x="8" y="20" width="1" height="1"/><rect class="ta43-2" x="9" y="21" width="1" height="1"/><rect class="ta43-2" x="10" y="22" width="1" height="1"/><rect class="ta43-2" x="18" y="22" width="1" height="1"/><rect class="ta43-2" x="19" y="21" width="1" height="1"/><rect class="ta43-2" x="20" y="20" width="1" height="1"/><path class="ta43-2" d="M21,20h1V11H21v9Z"/><rect class="ta43-2" x="20" y="10" width="1" height="1"/><rect class="ta43-2" x="19" y="9" width="1" height="1"/><rect class="ta43-2" x="18" y="8" width="1" height="1"/><path class="ta43-2" d="M18,8V7H11V8h7Z"/><path class="ta43-2" d="M10,16h1V15H10V13h1V12h2v1h1v2h1V11h2V10H12v1H10v1H9v7h1V16Z"/><rect class="ta43-2" x="10" y="19" width="1" height="1"/><rect class="ta43-2" x="11" y="20" width="1" height="1"/><path class="ta43-2" d="M12,21v1h1V21Z"/><path class="ta43-2" d="M16,23V22H13v1h3Z"/><path class="ta43-2" d="M16,22h1V21H16Z"/><rect class="ta43-2" x="17" y="20" width="1" height="1"/><rect class="ta43-2" x="18" y="19" width="1" height="1"/><path class="ta43-8" d="M13,20V19H12v2h1Z"/><path class="ta43-8" d="M17,19V18H13v1h3v2h1V19Z"/><path class="ta43-9" d="M13,13H11v2h2Z"/><path class="ta43-10" d="M13,13v2h1V13Z"/><path class="ta43-10" d="M11,15v1h2V15Z"/><path class="ta43-10" d="M10,13v2h1V13Z"/><path class="ta43-10" d="M13,12H11v1h2Z"/><path class="ta43-2" d="M11,17h2V16H11Z"/><rect class="ta43-2" x="13" y="15" width="1" height="1"/><path class="ta43-2" d="M18,12h1V11H17v1Z"/><path class="ta43-2" d="M19,14v5h1V12H19v2Z"/><path class="ta43-2" d="M15,19H13v1h3V19Z"/><path class="ta43-2" d="M12,18v1h1V18Z"/></svg>