<svg xmlns="http://www.w3.org/2000/svg" viewBox="0 0 29 33"><defs><style>polygon,rect,path{shape-rendering:crispedges;}.ea77-1{fill:#d4a122;}.ea77-2{fill:#000000;}.ea77-3{fill:#a56e49;}.ea77-4{fill:#3e5e00;}.ea77-5{fill:#3e5e00;}.ea77-6{fill:#66334f;}.ea77-7{fill:#99ce09;}.ea77-8{fill:#6d5800;}.ea77-9{fill:#fad000;}.ea77-10{fill:#ea1500;}</style></defs><path class="ea77-1" d="M0,33H29V0H0Zm6-1V27H7V26H8V25h2V24h2V21H11V20H10V19H9V16H8V15H9V10h1V9h1V8h7V9h1v2h1v4h1v1H20v3H19v1H18v1H17v3h2v1h2V23h1V22H21V19h1v1h1V18h1V17h3v5H26v1H25v1H24v7H23v1H21v1H6Z"/><path class="ea77-1" d="M13,22h0V21H12V20H11V19H10V16h0v3h1v1h1v1h1Z"/><rect class="ea77-1" x="16" y="21" width="1"/><polygon class="ea77-1" points="15 17 15 17 15 16 14 16 14 16 15 16 15 17"/><rect class="ea77-1" x="19" y="16" width="1"/><rect class="ea77-1" x="18" y="19" width="1"/><rect class="ea77-1" x="17" y="20" width="1"/><rect class="ea77-2" x="7" y="26" width="1" height="1"/><path class="ea77-2" d="M7,32V31H8v2H9V27H8v3H7V27H6v6H7Z"/><path class="ea77-2" d="M10,25H8v1h2Z"/><path class="ea77-2" d="M12,24H10v1h2Z"/><path class="ea77-2" d="M13,23h3v1h1V21H16v1H13V21H12v3h1Z"/><path class="ea77-2" d="M18,25h1V24H17v1Z"/><path class="ea77-2" d="M20,26h1v1H20v6h1V32h2V31H22V23H21v2H19v1Z"/><path class="ea77-2" d="M23,25v6h1V24H23Z"/><path class="ea77-3" d="M22,31h1V24h1V23H22v8Z"/><rect class="ea77-4" x="18" y="29" width="1" height="1"/><path class="ea77-4" d="M9,27v2h1V28h1v1h1v3H11V31H10v1H9v1H20V32H19V31H18v1H17V29h1V28h1v1h1V27h1V26H19V25H17v1H16v1H13V26H12V25H10v1H8v1Zm4,4V28h2v1h1v2H15v1H13Z"/><rect class="ea77-4" x="10" y="29" width="1" height="1"/><path class="ea77-4" d="M14,30v1h1V29H14Z"/><path class="ea77-2" d="M13,26v1h3V26H13Z"/><path class="ea77-3" d="M13,25v1h3V25h1V24H16V23H13v1H12v1Z"/><path class="ea77-4" d="M7,30H8V27H7v3Z"/><path class="ea77-3" d="M7,31v2H8V31Z"/><rect class="ea77-2" x="16" y="25" width="1" height="1"/><rect class="ea77-2" x="12" y="25" width="1" height="1"/><path class="ea77-5" d="M20,29H19v1H18V29H17v3h1V31h1v1h1V29Z"/><rect class="ea77-5" x="18" y="28" width="1" height="1"/><path class="ea77-5" d="M16,31V29H15v2Z"/><path class="ea77-5" d="M15,31H14V29h1V28H13v4h2Z"/><path class="ea77-5" d="M10,31h1v1h1V29H11v1H10V29H9v3h1Z"/><rect class="ea77-5" x="10" y="28" width="1" height="1"/><polygon class="ea77-2" points="20 16 20 16 21 16 21 15 20 15 20 16 20 16"/><path class="ea77-3" d="M9,16h1v3h1v1h1v1h1v1h3V21h1V20h1V19h1V16h1V15H18v1H16V15H15V14H14v1H13v1H11V15H9Zm5,0h1v1H14Zm-2,2h1v1h3v1H13V19H12Z"/><path class="ea77-3" d="M19,11H18V10H16v1H15v1H14v1h2V12h3v1H18v1h1V11Z"/><rect class="ea77-3" x="18" y="10"/><path class="ea77-2" d="M19,16v3h1V16Z"/><polygon class="ea77-2" points="18 11 19 11 19 11 18 11 18 10 18 10 18 11"/><polygon class="ea77-2" points="18 19 18 20 18 20 19 20 19 19 18 19 18 19"/><polygon class="ea77-2" points="17 20 17 21 17 21 18 21 18 20 17 20 17 20"/><path class="ea77-2" d="M18,10h0Z"/><rect class="ea77-2" x="11" y="20" width="1" height="1"/><rect class="ea77-2" x="10" y="19" width="1" height="1"/><path class="ea77-2" d="M10,16H9v3h1V16Z"/><polygon class="ea77-2" points="9 15 9 15 8 15 8 16 9 16 9 16 9 15"/><polygon class="ea77-2" points="15 17 15 16 14 16 14 16 14 17 15 17 15 17"/><path class="ea77-6" d="M19,12H16v1h3Z"/><rect class="ea77-2" x="13" y="19" width="3" height="1"/><rect class="ea77-2" x="12" y="18" width="1" height="1"/><path class="ea77-7" d="M11,13h3V12h1V11h1V10h2v1h1V9H18V8H11V9H10v1H9v4h2Z"/><path class="ea77-7" d="M19,14h1V11H19v3Z"/><path class="ea77-2" d="M11,16h2V15h1V14h1v1h1v1h2V15h2V14H18V13H11v1H9v1h2Z"/><path class="ea77-8" d="M21,21v1h1V21Z"/><path class="ea77-9" d="M24,21h1v1H24v1h2V22h1V20H25V19H24V18H23v2H22V19H21v2h1v1h2Z"/><path class="ea77-8" d="M24,22H22v1h2Z"/><path class="ea77-2" d="M24,24h1V23H24Z"/><rect class="ea77-8" x="24" y="21" width="1" height="1"/><rect class="ea77-2" x="24" y="18" width="1" height="1"/><path class="ea77-10" d="M25,19v1h2V19H25Z"/><path class="ea77-9" d="M25,19h1V18h1V17H24v1h1Z"/><path class="ea77-2" d="M26,19h1V18H26Z"/></svg>