<svg xmlns="http://www.w3.org/2000/svg" viewBox="0 0 29 33"><defs><style>polygon,rect,path{shape-rendering:crispedges;}.ab182-1{fill:#d4a122;}.ab182-2{fill:#000000;}.ab182-3{fill:#c5e2d0;}.ab182-4{fill:#e8b795;}.ab182-5{fill:#45ba00;}.ab182-6{fill:#ffffff;}.ab182-7{fill:#316a6d;}.ab182-8{fill:#38a6e8;}.ab182-9{fill:#dfdfdf;}.ab182-10{fill:#a89969;}.ab182-11{fill:#f62;}.ab182-12{fill:#f9db00;}.ab182-13{fill:#1261ff;}.ab182-14{fill:#00c650;}.ab182-15{fill:#e20026;}</style></defs><path class="ab182-1" d="M6,32V27H7V26H8V25h2V22H9V16H8V15H9V13H7V12H5V11H7v1H9V10h1V8h1V7h2V8h3V7h2V8h1V7h1V6h2V8H21V9H20v3h2V11h2v1H22v1H20v2h1v1H20v6h3v3h1v1H23v7h6V0H0V33H6Z"/><rect class="ab182-1" x="19" y="24" width="1" height="1"/><path class="ab182-2" d="M7,30V27H6v6H7V30Z"/><path class="ab182-3" d="M8,29V27H7v2Z"/><path class="ab182-3" d="M7,31v2H8V31Z"/><rect class="ab182-2" x="7" y="26" width="1" height="1"/><path class="ab182-2" d="M9,31V27H8v6H9V31Z"/><path class="ab182-3" d="M14,31H13V30H12V28H11V27H10V26H9v2h1v1h1v2h1v1h1v1h1V31Z"/><path class="ab182-3" d="M18,27v1h1v1h1V27H18Z"/><path class="ab182-3" d="M16,31V30H15v2h1v1h1V31Z"/><path class="ab182-3" d="M10,31V30H9v2h1v1h1V31Z"/><path class="ab182-3" d="M13,29h1V27H13V26H12v2h1Z"/><rect class="ab182-3" x="14" y="29" width="1" height="1"/><path class="ab182-3" d="M19,31V30H18V28H17V27H16V25H15v3h1v1h1v2h1v1h1v1h1V31Z"/><path class="ab182-2" d="M10,26V25H8v1h2Z"/><path class="ab182-2" d="M13,23h3v1h1V21H16v1H13V21H12v3h1Z"/><rect class="ab182-2" x="12" y="25" width="1" height="1"/><rect class="ab182-2" x="13" y="24" width="1" height="1"/><path class="ab182-2" d="M14,32v1h1V32Z"/><path class="ab182-2" d="M14,31h1V30H14Z"/><path class="ab182-2" d="M14,29h1V28H14Z"/><path class="ab182-2" d="M14,26v1h1V25H14Z"/><rect class="ab182-2" x="15" y="24" width="1" height="1"/><path class="ab182-4" d="M16,24V23H13v1h1v1h1V24Z"/><rect class="ab182-3" x="16" y="24" width="1" height="1"/><path class="ab182-2" d="M18,25H16v1h2Z"/><path class="ab182-2" d="M21,31V26H20v7h1V31Z"/><path class="ab182-3" d="M21,28h1V27H21Z"/><path class="ab182-3" d="M21,31v1h1V30H21Z"/><path class="ab182-2" d="M23,26H22v7h1V26Z"/><path class="ab182-5" d="M19,28H18v2h1v1h1V29H19Z"/><path class="ab182-5" d="M21,32v1h1V32Z"/><path class="ab182-5" d="M18,26H16v1h1v1h1V26Z"/><path class="ab182-5" d="M19,27h1V26H19Z"/><path class="ab182-5" d="M21,29v1h1V28H21Z"/><path class="ab182-5" d="M18,32V31H17v2h2V32Z"/><path class="ab182-5" d="M15,30h1v1h1V29H16V28H15v2Z"/><polygon class="ab182-5" points="13 26 13 27 14 27 14 26 14 25 13 25 13 26"/><path class="ab182-5" d="M14,28h1V27H14Z"/><rect class="ab182-5" x="15" y="32" width="1" height="1"/><path class="ab182-5" d="M14,32h1V31H14Z"/><path class="ab182-5" d="M14,29H13V28H12v2h1v1h1V29Z"/><rect class="ab182-5" x="12" y="24" width="1" height="1"/><path class="ab182-5" d="M10,27h1v1h1V26H11V25H10v2Z"/><path class="ab182-5" d="M12,32V31H11v2h2V32Z"/><path class="ab182-5" d="M10,30v1h1V29H10V28H9v2Z"/><path class="ab182-5" d="M9,32v1h1V32Z"/><path class="ab182-5" d="M9,27V26H8v1Z"/><path class="ab182-5" d="M7,30v1H8V29H7Z"/><rect class="ab182-2" x="20" y="15" width="1" height="1"/><path class="ab182-4" d="M18,15H16V13H11v1h2v1H10v4h1v1h1v1h1v1h3V21h1V20h1V19h1V16h1V15H18Zm-4,1h1v1H14Zm3,3H16v1H13V19H12V18h5Z"/><path class="ab182-4" d="M18,14h1V13H17v1Z"/><path class="ab182-2" d="M19,17v2h1V16H19Z"/><rect class="ab182-2" x="18" y="19" width="1" height="1"/><rect class="ab182-2" x="17" y="20" width="1" height="1"/><rect class="ab182-2" x="11" y="20" width="1" height="1"/><rect class="ab182-2" x="10" y="19" width="1" height="1"/><path class="ab182-2" d="M10,18V16H9v3h1Z"/><rect class="ab182-2" x="8" y="15" width="1" height="1"/><rect class="ab182-2" x="14" y="16" width="1" height="1"/><path class="ab182-6" d="M11,14H10v1h1Z"/><path class="ab182-6" d="M16,14v1h1V14Z"/><path class="ab182-2" d="M12,15h1V14H11v1Z"/><path class="ab182-2" d="M17,14v1h2V14H17Z"/><path class="ab182-7" d="M17,14V13H16v1Z"/><polygon class="ab182-2" points="12 19 13 19 13 20 16 20 16 19 17 19 17 18 12 18 12 19"/><path class="ab182-8" d="M19,20H18v1H17v4h1v2h1V24h1V19H19Z"/><path class="ab182-8" d="M19,14v1h1V13H19Z"/><path class="ab182-8" d="M10,15V14h1V13H9v3h1Z"/><path class="ab182-8" d="M11,26h1V21H11V20H10V19H9v3h1v3h1Z"/><path class="ab182-2" d="M24,11H22v1h2Z"/><path class="ab182-9" d="M21,8h1V7H21Z"/><path class="ab182-2" d="M16,13h6V12H20V11H19v1H10V11H9v1H7v1h9Z"/><rect class="ab182-9" x="20" y="8" width="1" height="1"/><path class="ab182-10" d="M19,11h1V10H19Z"/><path class="ab182-6" d="M18,11h1V10h1V8h1V7h1V6H20V7H19V8H18v3Z"/><path class="ab182-10" d="M17,11H10v1h9V11H17Z"/><path class="ab182-2" d="M11,11h7V7H16V8H13V7H11V8H10v3Z"/><path class="ab182-10" d="M10,10H9v1h1Z"/><path class="ab182-2" d="M6,11H5v1H7V11Z"/><path class="ab182-11" d="M23,23V22H22v1Z"/><path class="ab182-6" d="M22,23V22H21v1Z"/><path class="ab182-12" d="M21,23H20v1h1Z"/><path class="ab182-13" d="M22,25h1V24H22Z"/><rect class="ab182-11" x="20" y="24" width="1" height="1"/><rect class="ab182-14" x="21" y="23" width="1" height="1"/><path class="ab182-12" d="M21,25h1V24H21Z"/><path class="ab182-15" d="M22,24h1V23H22Z"/><path class="ab182-15" d="M21,23V22H20v1Z"/><path class="ab182-4" d="M21.5,25H20v1h1v1h1V26h1V25H21.5Z"/><rect class="ab182-2" x="23" y="25" width="1" height="1"/><path class="ab182-2" d="M19,25v1h1V25Z"/></svg>