<svg xmlns="http://www.w3.org/2000/svg" viewBox="0 0 29 33"><defs><style>polygon,rect,path{shape-rendering:crispedges;}.ab68-1{fill:#29834f;}.ab68-2{fill:#000000;}.ab68-3{fill:#00e2b7;}.ab68-4{fill:#c18d59;}.ab68-5{fill:#9fffc6;}.ab68-6{fill:#004a77;}.ab68-7{fill:#cc2f76;}.ab68-8{fill:#455054;}.ab68-9{fill:#002b4f;}.ab68-10{fill:#ff1f4a;}.ab68-11{fill:#ffffff;}</style></defs><rect class="ab68-1" x="11" y="20" width="1"/><rect class="ab68-1" x="8" y="21" width="1" height="1"/><path class="ab68-1" d="M11,24V23h1V21H10v1H9v2H8v1h2V24Z"/><rect class="ab68-1" x="12" y="21" width="1"/><rect class="ab68-1" x="18" y="19" width="1"/><path class="ab68-1" d="M9,19V18H9V17H8v3H9Z"/><rect class="ab68-1" x="16" y="21" width="1"/><rect class="ab68-1" x="17" y="20" width="1"/><polygon class="ab68-1" points="14 16 15 16 15 16 14 16 14 17 14 17 14 16"/><path class="ab68-1" d="M0,33H8V32H6V31H5V22H6V21H7V20H5v1H2V17H5V16H8V12H9V10h1V9h1V8h7V9h1v1h1v2h1v6H20V16h0v4h1v1H20v1H19V21H17v2h1v1h1v1h2v1h1v1h1v6h6V0H0Z"/><rect class="ab68-1" x="19" y="16" width="1"/><rect class="ab68-1" x="10" y="19" width="1"/><path class="ab68-2" d="M6,29V22H5v9H6V29Z"/><path class="ab68-2" d="M23,27H22v6h1V27Z"/><path class="ab68-3" d="M21,31v1h1V30H21Z"/><path class="ab68-3" d="M21,28h1V27H21Z"/><rect class="ab68-2" x="21" y="26" width="1" height="1"/><path class="ab68-2" d="M21,31V27H20v6h1V31Z"/><path class="ab68-3" d="M13,29h1V27H13V26H12v2h1Z"/><path class="ab68-3" d="M18,26v2h1v1h1V27H19V25H18Z"/><path class="ab68-3" d="M19,31V30H18V28H17V27H16V25H15v3h1v1h1v2h1v1h1v1h1V31Z"/><rect class="ab68-3" x="14" y="29" width="1" height="1"/><path class="ab68-3" d="M10,31V30H9v2h1v1h1V31Z"/><path class="ab68-3" d="M14,31H13V30H12V28H11V27H10V26H9v2h1v1h1v2h1v1h1v1h1V31Z"/><path class="ab68-3" d="M16,31V30H15v2h1v1h1V31Z"/><path class="ab68-2" d="M20,26h1V25H19v1Z"/><rect class="ab68-3" x="16" y="24" width="1" height="1"/><rect class="ab68-2" x="15" y="24" width="1" height="1"/><path class="ab68-2" d="M14,32v1h1V32Z"/><path class="ab68-2" d="M14,31h1V30H14Z"/><path class="ab68-2" d="M14,29h1V28H14Z"/><path class="ab68-2" d="M14,26v1h1V25H14Z"/><rect class="ab68-2" x="13" y="24" width="1" height="1"/><path class="ab68-4" d="M16,24V23H13v1h1v1h1V24Z"/><path class="ab68-2" d="M9,31V27H8V26h2V25H8V24H7v7H6v1H8v1H9V31Z"/><path class="ab68-3" d="M7,30H6v1H7Z"/><path class="ab68-3" d="M6,26v2H7V25H6Z"/><path class="ab68-5" d="M19,28H18v2h1v1h1V29H19Z"/><path class="ab68-5" d="M21,29v1h1V28H21Z"/><path class="ab68-5" d="M21,32v1h1V32Z"/><path class="ab68-5" d="M16,26v1h1v1h1V26Z"/><path class="ab68-5" d="M19,26v1h2V26H19Z"/><path class="ab68-5" d="M18,32V31H17v2h2V32Z"/><path class="ab68-5" d="M15,30h1v1h1V29H16V28H15v2Z"/><path class="ab68-5" d="M14,28h1V27H14Z"/><path class="ab68-5" d="M14,27V25H13v2Z"/><path class="ab68-5" d="M14,32h1V31H14Z"/><rect class="ab68-5" x="15" y="32" width="1" height="1"/><path class="ab68-5" d="M14,29H13V28H12v2h1v1h1V29Z"/><rect class="ab68-5" x="12" y="24" width="1" height="1"/><path class="ab68-5" d="M11,26V25H10v2h1v1h1V26Z"/><path class="ab68-5" d="M12,32V31H11v2h2V32Z"/><path class="ab68-5" d="M10,30v1h1V29H10V28H9v2Z"/><path class="ab68-5" d="M6,25H7V24H6Z"/><path class="ab68-5" d="M6,29v1H7V28H6Z"/><path class="ab68-5" d="M9,32v1h1V32Z"/><path class="ab68-5" d="M8,27H9V26H8Z"/><rect class="ab68-2" x="20" y="16"/><path class="ab68-4" d="M10,17v2h1v1h1v1h1v1h3V21h1V20h1V19h1V16h1V15H18v1H16V15H15V14H14v1H13v1H11V15H10v1h0Zm4-1h1v1H14Zm-2,2h5v1H16v1H13V19H12Z"/><path class="ab68-4" d="M13,13h5V12H17V11H16V10H15v1H14v1H13Z"/><path class="ab68-2" d="M19,16v3h1V16Z"/><polygon class="ab68-2" points="18 19 18 20 18 20 19 20 19 19 18 19 18 19"/><path class="ab68-2" d="M17,20h0v1h1V20Z"/><path class="ab68-2" d="M16,21v1H13V21H12v2H11v1H10v1h1v1h2V25H12V24h1V23h3v1h1v1H16v1h2V25h1V24H18V23H17V21Z"/><polygon class="ab68-2" points="16 10 16 10 15 10 15 10 16 10 16 10"/><path class="ab68-2" d="M12,20H11v1h1Z"/><polygon class="ab68-2" points="11 19 11 19 10 19 10 20 11 20 11 20 11 19"/><path class="ab68-2" d="M10,19h0V16h0v2H9v1Z"/><polygon class="ab68-2" points="14 17 14 17 15 17 15 16 15 16 14 16 14 17"/><rect class="ab68-6" x="13" y="12" height="1"/><rect class="ab68-6" x="18" y="13" width="1" height="1"/><polygon class="ab68-2" points="13 20 16 20 16 19 17 19 17 18 12 18 12 19 13 19 13 20"/><path class="ab68-7" d="M19,20H18v1h1v1h1V21h1V20H20V19H19Z"/><path class="ab68-7" d="M9,22h1V21h1V20H10V19H9v1H8v1H9Z"/><path class="ab68-7" d="M8,17H9v1h1V15H9V14h2V13h2V12h1V11h1V10h1v1h1v1h1v1h1v1h1v2h0v2h1V12H20V10H19V9H18V8H11V9H10v1H9v2H8v4H8Z"/><path class="ab68-2" d="M11,16h2V15h1V14h1v1h1v1h2V15h2V14H18V13H11v1H9v1h2Z"/><path class="ab68-4" d="M7,24H8V22H6v2Z"/><path class="ab68-8" d="M8,22V20H7v2Z"/><path class="ab68-2" d="M7,21H6v1H7Z"/><path class="ab68-2" d="M9,22H8v2H9Z"/><path class="ab68-9" d="M3,17H2v4H4V17Z"/><path class="ab68-10" d="M8,19V16H6v4H8Z"/><path class="ab68-11" d="M5,16v1H4v4H5V20H6V16Z"/></svg>