<svg xmlns="http://www.w3.org/2000/svg" viewBox="0 0 29 33"><defs><style>polygon,rect,path{shape-rendering:crispedges;}.va176-1{fill:#29834f;}.va176-2{fill:#000000;}.va176-3{fill:#dbc6d2;}.va176-4{fill:#e8b795;}.va176-5{fill:#875070;}.va176-6{fill:#ffffff;}.va176-7{fill:#4922aa;}.va176-8{fill:#e70059;}.va176-9{fill:#ff1d99;}.va176-10{fill:#c9936f;}.va176-11{fill:#e8b592;}.va176-12{fill:#9b005c;}.va176-13{fill:#fad000;}.va176-14{fill:#ff1d99;}</style></defs><path class="va176-1" d="M20,17v1h1V16H20Z"/><path class="va176-1" d="M20,23V19H19v1H18v2h1v3h2V23Z"/><path class="va176-1" d="M0,33H6V27H7V26H8V25h2V22h1V20H10V19H9V16H8V15H9V11h1V10h1V9h7v1h1v1h1v4h1v1h1v1h1V16h1v2h1v5H24v8H23v1H21v1h8V0H0Z"/><path class="va176-2" d="M7,30V27H6v6H7V30Z"/><path class="va176-3" d="M8,29V27H7v2Z"/><path class="va176-3" d="M7,31v2H8V31Z"/><rect class="va176-2" x="7" y="26" width="1" height="1"/><rect class="va176-3" x="9" y="30" width="1" height="1"/><rect class="va176-3" x="11" y="22" width="1" height="1"/><path class="va176-3" d="M12,29V28H11V27H10V26H9v2h1v1h1v2h2V30H12Z"/><path class="va176-3" d="M12,25V24H11v2h1v2h1V25Z"/><path class="va176-2" d="M10,26V25H8v1h2Z"/><path class="va176-2" d="M11,24V22H10v3h1Z"/><rect class="va176-2" x="13" y="24" width="1" height="1"/><path class="va176-4" d="M14,25h1V24h1V23H13v1h1Z"/><path class="va176-2" d="M15,26V25H14v2h1Z"/><rect class="va176-2" x="15" y="24" width="1" height="1"/><path class="va176-3" d="M15,30V28H14v3h2V30Z"/><path class="va176-3" d="M18,24H16v1h1v1h1v2h1v1h1V27H19V25H18Z"/><path class="va176-3" d="M18,30V28H17V27H16V25H15v3h1v1h1v2h2V30Z"/><rect class="va176-3" x="17" y="22" width="1" height="1"/><path class="va176-2" d="M19,22H18v3h1V22Z"/><rect class="va176-3" x="16" y="32" width="1" height="1"/><rect class="va176-3" x="13" y="32" width="1" height="1"/><rect class="va176-3" x="19" y="32" width="1" height="1"/><rect class="va176-3" x="10" y="32" width="1" height="1"/><path class="va176-2" d="M22,32h1V31H22V25H19v1h2v1H20v4H14V27H13v4H9V27H8v6H9V32H20v1h1V32Z"/><path class="va176-3" d="M23,28V27H22v2h1Z"/><path class="va176-2" d="M23,26v5h1V25H23Z"/><rect class="va176-2" x="20" y="15" width="1" height="1"/><path class="va176-2" d="M19,13v2h1V12H19Z"/><path class="va176-4" d="M10,13h1V11H10v2Z"/><path class="va176-4" d="M18,14h1V13H17v1Z"/><rect class="va176-4" x="17" y="10" width="1" height="1"/><rect class="va176-4" x="18" y="11" width="1" height="1"/><rect class="va176-4" x="11" y="10" width="1" height="1"/><path class="va176-4" d="M12,21h1v1h3V21h1V20h1V19h1V16h1V15H16V13h1V11H16V10H13v1H12v1h1v1H11v1h2v1H9v1h1v3h1v1h1Zm2-5h1v1H14Zm-2,2h5v1H16v1H13V19H12Z"/><path class="va176-2" d="M20,18V16H19v3h1Z"/><rect class="va176-2" x="18" y="19" width="1" height="1"/><path class="va176-2" d="M12,23v1h1V23h3v1h1V22h1V20H17v1H16v1H13V21H12V20H11v2h1Z"/><rect class="va176-2" x="10" y="19" width="1" height="1"/><path class="va176-2" d="M10,14V12H9v3h1Z"/><path class="va176-2" d="M10,16H9v3h1V16Z"/><rect class="va176-2" x="8" y="15" width="1" height="1"/><rect class="va176-2" x="14" y="16" width="1" height="1"/><path class="va176-5" d="M19,28H18v2h1v1h1V29H19Z"/><path class="va176-5" d="M17,27v1h1V26H17V25H16v2Z"/><path class="va176-5" d="M22,29v2h1V29Z"/><path class="va176-5" d="M20,27h1V26H19v1Z"/><path class="va176-5" d="M23,26V25H22v2h1Z"/><path class="va176-5" d="M18,32H17v1h2V32Z"/><path class="va176-5" d="M16,29V28H15v2h1v1h1V29Z"/><path class="va176-5" d="M13,25v2h1V25Z"/><path class="va176-5" d="M15,27H14v1h1Z"/><path class="va176-5" d="M15,32H14v1h2V32Z"/><path class="va176-5" d="M12,29v1h1V28H12Z"/><rect class="va176-5" x="12" y="24" width="1" height="1"/><path class="va176-5" d="M10,27h1v1h1V26H11V25H10v2Z"/><path class="va176-5" d="M12,32H11v1h2V32Z"/><path class="va176-5" d="M10,29V28H9v2h1v1h1V29Z"/><path class="va176-5" d="M9,32v1h1V32Z"/><path class="va176-5" d="M9,27V26H8v1Z"/><path class="va176-5" d="M7,30v1H8V29H7Z"/><path class="va176-5" d="M12,23H11v1h1Z"/><path class="va176-5" d="M18,23H17v1h1Z"/><path class="va176-6" d="M13,15V14H12v1Z"/><path class="va176-6" d="M10,15h1V14H10Z"/><path class="va176-6" d="M18,14v1h1V14Z"/><path class="va176-6" d="M16,14v1h1V14Z"/><path class="va176-2" d="M12,15V14H11v1Z"/><path class="va176-2" d="M17,14v1h1V14Z"/><path class="va176-7" d="M10,14h1V13H10Z"/><path class="va176-7" d="M11,13h2V12H11Z"/><path class="va176-7" d="M17,13H16v1h1Z"/><path class="va176-7" d="M19,12H17v1h2Z"/><path class="va176-2" d="M13,18H12v1h1Z"/><path class="va176-2" d="M17,19V18H16v1Z"/><path class="va176-2" d="M15,20h1V19H15Z"/><path class="va176-2" d="M15,19V18H14v1Z"/><path class="va176-2" d="M13,19v1h1V19Z"/><path class="va176-6" d="M14,19V18H13v1Z"/><path class="va176-6" d="M16,19V18H15v1Z"/><path class="va176-8" d="M14,19v1h1V19Z"/><path class="va176-9" d="M20,12V11H19v1Z"/><rect class="va176-9" x="18" y="10" width="1" height="1"/><path class="va176-9" d="M12,11h1V10h3v1h1V10h1V9H11v1h1Z"/><path class="va176-9" d="M18,11H17v1h1Z"/><path class="va176-9" d="M11,12h1V11H11Z"/><rect class="va176-9" x="10" y="10" width="1" height="1"/><path class="va176-9" d="M10,11H9v1h1Z"/><path class="va176-10" d="M21,23V22H20v1Z"/><path class="va176-10" d="M24,22.111V23h1V22H24Z"/><rect class="va176-2" x="21" y="19" width="1" height="1"/><rect class="va176-2" x="23" y="19" width="1" height="1"/><path class="va176-11" d="M24,22H21v1h3V22Z"/><path class="va176-11" d="M24,21V20H23V19H22v1H21v1h3Z"/><path class="va176-12" d="M21,23v2h3V23H21Z"/><path class="va176-6" d="M22,18h2V16H23v1H22V16H21v2Z"/><path class="va176-13" d="M21,18H20v4h1V19h3v3h1V18H21Z"/><path class="va176-14" d="M24,22V21H21v1h3Z"/></svg>