<svg xmlns="http://www.w3.org/2000/svg" viewBox="0 0 29 33"><defs><style>polygon,rect,path{shape-rendering:crispedges;}.pa56-1{fill:#e55b35;}.pa56-2{fill:#000000;}.pa56-3{fill:#00af68;}.pa56-4{fill:#e8b795;}.pa56-5{fill:#ffffff;}.pa56-6{fill:#ffffff;}.pa56-7{fill:#99582c;}.pa56-8{fill:#99582c;}.pa56-9{fill:#e70059;}.pa56-10{fill:#0068ff;}</style></defs><path class="pa56-1" d="M0,33H6V27H7V26H8V25h2V24h1V23H10V22h1V20H10V19H9V16H8V15H9V11h1V10h1V9h7v1h1v1h1v4h1v1H20v3H19v1H18v2h1v1H18v1h1v1h2v1h1v1h1v6h6V0H0Z"/><path class="pa56-2" d="M23,27H22v6h1V27Z"/><path class="pa56-3" d="M22,27H21v6h1V27Z"/><rect class="pa56-2" x="21" y="26" width="1" height="1"/><path class="pa56-2" d="M21,27H20v6h1V27Z"/><path class="pa56-3" d="M16,25h1v4h1V28h1v1h1V27h1V26H19V25H18V24H16Z"/><rect class="pa56-3" x="18" y="29" width="1" height="1"/><path class="pa56-3" d="M19,32V31H18v1H17V30H16v1H15v1H13V30H12v2H11V31H10v1H9v1H20V32Z"/><path class="pa56-3" d="M9,27v2h1V28h1v1h1V25h1V24H11v1H10v1H8v1Z"/><rect class="pa56-3" x="10" y="29" width="1" height="1"/><path class="pa56-2" d="M20,26h1V25H19v1Z"/><rect class="pa56-2" x="18" y="24" width="1" height="1"/><rect class="pa56-2" x="18" y="22" width="1" height="1"/><rect class="pa56-3" x="17" y="22" width="1" height="1"/><path class="pa56-2" d="M17,22h1V21H17Z"/><path class="pa56-2" d="M16,25V24H13v1h3Z"/><path class="pa56-4" d="M16,24V23H13v1h3Z"/><path class="pa56-2" d="M13,23V22H12v1H11v1h2Z"/><rect class="pa56-3" x="11" y="22" width="1" height="1"/><path class="pa56-2" d="M12,21H11v1h1Z"/><rect class="pa56-2" x="10" y="24" width="1" height="1"/><rect class="pa56-2" x="10" y="22" width="1" height="1"/><path class="pa56-2" d="M10,25H8v1h2Z"/><path class="pa56-2" d="M9,31V27H8v6H9V31Z"/><path class="pa56-3" d="M8,27H7v6H8V27Z"/><rect class="pa56-2" x="7" y="26" width="1" height="1"/><path class="pa56-2" d="M7,27H6v6H7V27Z"/><path class="pa56-3" d="M13,28h2v1h1V25H13v3Z"/><path class="pa56-3" d="M14,29v2h1V29Z"/><path class="pa56-5" d="M19,30H18V29H17v3h1V31h1v1h1V29H19Z"/><rect class="pa56-5" x="18" y="28" width="1" height="1"/><path class="pa56-5" d="M15,29v2h1V29Z"/><path class="pa56-5" d="M14,30V29h1V28H13v4h2V31H14Z"/><path class="pa56-5" d="M11,29v1H10V29H9v3h1V31h1v1h1V29Z"/><rect class="pa56-5" x="10" y="28" width="1" height="1"/><path class="pa56-2" d="M13,27V25H12v5h1V27Z"/><path class="pa56-2" d="M17,28V25H16v5h1V28Z"/><rect class="pa56-2" x="20" y="15" width="1" height="1"/><path class="pa56-2" d="M19,13v2h1V12H19Z"/><path class="pa56-4" d="M18,12v1h1V11H18Z"/><rect class="pa56-4" x="13" y="20" width="1" height="1"/><rect class="pa56-4" x="10" y="11" width="1" height="1"/><rect class="pa56-4" x="15" y="20" width="1" height="1"/><rect class="pa56-4" x="11" y="10" width="1" height="1"/><path class="pa56-4" d="M10,17v1h1v1h1V18h5v1h1V18h1V16h1V15H16V14h2V13H16V12h1V11H16V10H13v1H12v2h1v2H9v1h1Zm4-1h1v1H14Z"/><rect class="pa56-4" x="17" y="10" width="1" height="1"/><path class="pa56-4" d="M10,14h2V13H10Z"/><path class="pa56-2" d="M19,17h1V16H19Z"/><path class="pa56-2" d="M17,22H16v2h2V23H17Z"/><path class="pa56-2" d="M10,14V12H9v3h1Z"/><path class="pa56-2" d="M10,16H9v1h1Z"/><rect class="pa56-2" x="8" y="15" width="1" height="1"/><rect class="pa56-2" x="14" y="16" width="1" height="1"/><path class="pa56-6" d="M12,15h1V14H12Z"/><path class="pa56-6" d="M10,14v1h1V14Z"/><path class="pa56-6" d="M18,14v1h1V14Z"/><path class="pa56-6" d="M16,14v1h1V14Z"/><path class="pa56-2" d="M11,14v1h1V14Z"/><path class="pa56-2" d="M17,14v1h1V14Z"/><path class="pa56-7" d="M19,13H18v1h1Z"/><polygon class="pa56-7" points="17 12 16 12 16 13 18 13 18 12 17 12"/><path class="pa56-7" d="M13,14V13H12v1Z"/><path class="pa56-7" d="M10,12v1h2V12H10Z"/><path class="pa56-8" d="M12,22h1v1h3V22h1V21h1V20h1V19h1V17H19v1H18v1H16v2H15V20H14v1H13V19H11V18H10V17H9v2h1v1h1v1h1Z"/><path class="pa56-2" d="M12,18v1h1V18Z"/><path class="pa56-2" d="M16,18v1h1V18Z"/><path class="pa56-2" d="M15,20h1V19H15Z"/><path class="pa56-2" d="M15,19V18H14v1Z"/><path class="pa56-2" d="M13,19v1h1V19Z"/><path class="pa56-6" d="M14,18H13v1h1Z"/><path class="pa56-6" d="M15,18v1h1V18Z"/><rect class="pa56-9" x="14" y="19" width="1" height="1"/><path class="pa56-10" d="M20,12V11H19v1Z"/><rect class="pa56-10" x="18" y="10" width="1" height="1"/><path class="pa56-10" d="M12,11h1V10h3v1h1V10h1V9H11v1h1Z"/><rect class="pa56-10" x="17" y="11" width="1" height="1"/><path class="pa56-10" d="M11,12h1V11H11Z"/><rect class="pa56-10" x="10" y="10" width="1" height="1"/><path class="pa56-10" d="M10,11H9v1h1Z"/></svg>