<svg xmlns="http://www.w3.org/2000/svg" viewBox="0 0 29 33"><defs><style>polygon,rect,path{shape-rendering:crispedges;}.na36-1{fill:#db5a8e;}.na36-2{fill:#000000;}.na36-3{fill:#f9e100;}.na36-4{fill:#00774c;}.na36-5{fill:#6d3e35;}.na36-6{fill:#b23b00;}.na36-7{fill:#b23b00;}.na36-8{fill:#b23b00;}.na36-9{fill:#ff5e17;}.na36-10{fill:#ff1d99;}.na36-11{fill:#6e12ff;}.na36-12{fill:#ffffff;}.na36-13{fill:#ff6aa5;}.na36-14{fill:#ff1f4a;}.na36-15{fill:#ff791f;}.na36-16{fill:#fad000;}.na36-17{fill:#b6dc00;}.na36-18{fill:#00af68;}.na36-19{fill:#38a6e8;}.na36-20{fill:#0068ff;}.na36-21{fill:#cc2f76;}</style></defs><path class="na36-1" d="M12,21H11v2H10v1h2V21Z"/><path class="na36-1" d="M0,33H6V26H7V25H8V24H7V23H6V20H7V19H9V17H8V15H7V14H8V12H7V10H8v1H9V9H8V8h2V9h1V8h1V7h1V8h1V7h2V8h1V7h1V8h1V7h1V8H19V9H18v1h2V9h1v2H20v1h2v1H20v1h2v1H21v2H20v2H19v1H18v1H17v3h2v1h2v1h1v1h1v6h6V0H0Z"/><rect class="na36-1" x="9" y="24" width="1" height="1"/><path class="na36-2" d="M23,27H22v6h1V27Z"/><path class="na36-3" d="M21,32v1h1V32Z"/><path class="na36-3" d="M21,28h1V27H21Z"/><path class="na36-3" d="M21,30v1h1V29H21Z"/><rect class="na36-2" x="21" y="26" width="1" height="1"/><path class="na36-2" d="M21,31V27H20v6h1V31Z"/><path class="na36-3" d="M19,26v1H18v3h1v1h1V29H19V28h1V27h1V26H19Z"/><path class="na36-3" d="M19,32v1h1V32Z"/><path class="na36-2" d="M20,26h1V25H19v1Z"/><path class="na36-2" d="M18,30V25h1V24H17v1H16v1h1v7h1V30Z"/><path class="na36-4" d="M17,26H16v1H13V26H12v7h5V26Z"/><path class="na36-2" d="M13,26v1h3V26H13Z"/><path class="na36-5" d="M16,23H13v1H12v1h1v1h3V25h1V24H16Z"/><path class="na36-2" d="M13,23V22H12v2h1Z"/><path class="na36-2" d="M12,26h1V25H12V24H10v1h1v8h1V26Z"/><rect class="na36-3" x="9" y="32" width="1" height="1"/><path class="na36-3" d="M10,28v1H9v2h1V30h1V27H10Z"/><path class="na36-2" d="M9,31V28H8v5H9V31Z"/><path class="na36-2" d="M9,26v2h1V25H9Z"/><path class="na36-3" d="M7,30v1H8V29H7Z"/><path class="na36-3" d="M7,32v1H8V32Z"/><path class="na36-2" d="M7,31V26H6v7H7V31Z"/><path class="na36-6" d="M11,30H10v1H9v1h1v1h1V30Z"/><path class="na36-6" d="M11,27V25H10v2Z"/><path class="na36-6" d="M18,26v1h1V25H18Z"/><path class="na36-6" d="M7,29H8V28H7Z"/><path class="na36-6" d="M10,28H9v1h1Z"/><path class="na36-6" d="M21,29h1V28H21Z"/><path class="na36-6" d="M19,29h1V28H19Z"/><path class="na36-6" d="M21,32h1V31H21Z"/><path class="na36-6" d="M7,32H8V31H7Z"/><path class="na36-6" d="M20,32V31H19V30H18v3h1V32Z"/><rect class="na36-5" x="15" y="10" width="1" height="1"/><rect class="na36-5" x="12" y="12" width="1" height="1"/><rect class="na36-5" x="14" y="15" width="1" height="1"/><path class="na36-5" d="M14,14h2V12H14v1H13v1Z"/><rect class="na36-5" x="11" y="11" width="1" height="1"/><path class="na36-5" d="M16,17V16H15v1H14V16H13v1H10v1h1v1h1v1h1v1h3V20h1V19h1V18h1V17H16Zm-1,3H14V19h1Z"/><path class="na36-2" d="M16,23v1h1V22H16Z"/><rect class="na36-2" x="9" y="13" width="1" height="1"/><rect class="na36-2" x="14" y="16" width="1" height="1"/><path class="na36-7" d="M17,13V12H16v1Z"/><rect class="na36-7" x="11" y="12" width="1" height="1"/><path class="na36-8" d="M10,20h1v1h1v1h1v1h3V22h1V21h1V20h1V19h1V16H19v2H18v1H17v1H16v1H13V20H12V19H11V18H10V16H9v3h1Z"/><rect class="na36-2" x="14" y="19" width="1" height="1"/><rect class="na36-9" x="7" y="14" width="1" height="1"/><path class="na36-9" d="M9,13h2V11h1v1h1v1h1V12h3v1h2v1h1V13h2V12H20V11h1V9H20v1H18V9h1V8H18V7H17V8H16V7H14V8H13V7H12V8H11V9H10V8H8V9H9v2H8V10H7v2H8v2H9Zm6-3h1v1H15Z"/><path class="na36-9" d="M22,15V14H21v1Z"/><path class="na36-9" d="M20,16v1h1V15H20Z"/><path class="na36-9" d="M9,15H8v2H9V15Z"/><rect class="na36-9" x="19" y="7" width="1" height="1"/><path class="na36-10" d="M19,15v1h1V15h1V14H19Z"/><path class="na36-10" d="M16,14h3V13H16Z"/><path class="na36-11" d="M19,14H16v2h3V14Z"/><path class="na36-10" d="M16,16v1h3V16H16Z"/><path class="na36-10" d="M13,14v2h1V15h1v1h1V14H13Z"/><path class="na36-10" d="M13,14V13H10v1h3Z"/><path class="na36-11" d="M13,16V14H10v2h3Z"/><path class="na36-10" d="M13,17V16H10v1h3Z"/><path class="na36-10" d="M9,16h1V14H8v1H9Z"/><path class="na36-12" d="M9,26V24H8v2Z"/><rect class="na36-13" x="8" y="21" width="1" height="1"/><path class="na36-14" d="M10,24V23H8v1h2Z"/><rect class="na36-15" x="7" y="23" width="1" height="1"/><path class="na36-16" d="M7,21V20H6v2H7Z"/><path class="na36-17" d="M9,19H7v1H9Z"/><rect class="na36-18" x="9" y="19" width="1" height="1"/><rect class="na36-18" x="10" y="20" width="1" height="1"/><path class="na36-19" d="M11,22V21H10v2h1Z"/><path class="na36-20" d="M9,22H8v1h2V22Z"/><path class="na36-11" d="M8,22V21H7v2H8Z"/><path class="na36-10" d="M8,21H9V20H7v1Z"/><path class="na36-21" d="M10,22V20H9v2Z"/><path class="na36-15" d="M6,22v1H7V22Z"/><path class="na36-2" d="M8,25H7v1H8Z"/><path class="na36-5" d="M8,28H9V26H7v2Z"/></svg>