<svg xmlns="http://www.w3.org/2000/svg" viewBox="0 0 29 33"><defs><style>polygon,rect,path{shape-rendering:crispedges;}.oa65-1{fill:#6b4f99;}.oa65-2{fill:#000000;}.oa65-3{fill:#b3ffa1;}.oa65-4{fill:#ffffff;}.oa65-5{fill:#a56e49;}.oa65-6{fill:#45ba00;}.oa65-7{fill:#ffffff;}.oa65-8{fill:#e2e2e2;}.oa65-9{fill:#0079bc;}</style></defs><path class="oa65-1" d="M0,33H6V27H7V26H8V25h2V24H9V16H8V15H9V10h1V9h1V8h7V9h1v1h1v5h1v1H20v6H19v3h2v1h1v1h1v6h6V0H0Z"/><path class="oa65-2" d="M23,27H22v6h1V27Z"/><rect class="oa65-2" x="21" y="26" width="1" height="1"/><path class="oa65-3" d="M21,31h1V30H21Z"/><path class="oa65-3" d="M21,28h1V27H21Z"/><path class="oa65-2" d="M21,30V27H20v6h1V30Z"/><path class="oa65-3" d="M18,28h2V27H18Z"/><path class="oa65-3" d="M18,31h2V30H18Z"/><path class="oa65-2" d="M20,26h1V25H19v1Z"/><path class="oa65-2" d="M18,30V26H17v7h1V30Z"/><rect class="oa65-2" x="16" y="25" width="1" height="1"/><path class="oa65-4" d="M17,26H16v1H13V26H12v7h5V26Z"/><path class="oa65-2" d="M13,26v1h3V26H13Z"/><path class="oa65-2" d="M13,23h3v1h1V21H16v1H13V21H12v3h1Z"/><path class="oa65-5" d="M17,25V24H16V23H13v1H12v1h1v1h3V25Z"/><path class="oa65-2" d="M12,26h1V25H11v8h1V26Z"/><path class="oa65-3" d="M9,27v1h2V27H9Z"/><path class="oa65-3" d="M9,31h2V30H9Z"/><path class="oa65-2" d="M10,25H8v1h2Z"/><path class="oa65-2" d="M9,30V27H8v6H9V30Z"/><rect class="oa65-2" x="7" y="26" width="1" height="1"/><path class="oa65-3" d="M8,28V27H7v1Z"/><path class="oa65-3" d="M7,31H8V30H7Z"/><path class="oa65-2" d="M7,30V27H6v6H7V30Z"/><path class="oa65-6" d="M9,31v2h2V31Z"/><path class="oa65-6" d="M18,31v2h2V31Z"/><path class="oa65-6" d="M18,29v1h2V28H18Z"/><path class="oa65-6" d="M9,29v1h2V28H9Z"/><path class="oa65-6" d="M18,26v1h3V26H19V25H18Z"/><path class="oa65-6" d="M9,27h1V26H8v1Z"/><path class="oa65-6" d="M7,29v1H8V28H7Z"/><path class="oa65-6" d="M7,31v2H8V31Z"/><path class="oa65-6" d="M21,31v2h1V31Z"/><path class="oa65-6" d="M21,29v1h1V28H21Z"/><rect class="oa65-2" x="20" y="15" width="1" height="1"/><path class="oa65-5" d="M10,13v1h2V13H10Z"/><path class="oa65-5" d="M10,17v2h1v1h1v1h1v1h3V21h1V20h1V19h1V15H16V14h2V13H16V12h1V11H15V10H12v1H11v1h1v1h1v2H9v1h1Zm4-1h1v1H14Zm-1,3h3V18h1v1H16v1H13Z"/><path class="oa65-2" d="M19,17v2h1V16H19Z"/><rect class="oa65-2" x="18" y="19" width="1" height="1"/><rect class="oa65-2" x="17" y="20" width="1" height="1"/><rect class="oa65-2" x="11" y="20" width="1" height="1"/><rect class="oa65-2" x="10" y="19" width="1" height="1"/><path class="oa65-2" d="M10,18V16H9v3h1Z"/><rect class="oa65-2" x="8" y="15" width="1" height="1"/><rect class="oa65-2" x="14" y="16" width="1" height="1"/><path class="oa65-7" d="M12,15h1V14H12Z"/><path class="oa65-7" d="M10,14v1h1V14Z"/><path class="oa65-7" d="M18,14v1h1V14Z"/><path class="oa65-7" d="M16,14v1h1V14Z"/><path class="oa65-2" d="M11,14v1h1V14Z"/><path class="oa65-2" d="M17,14v1h1V14Z"/><polygon class="oa65-8" points="17 12 16 12 16 13 18 13 18 12 17 12"/><path class="oa65-8" d="M13,14V13H12v1Z"/><path class="oa65-8" d="M12,13V12H11v1Z"/><rect class="oa65-2" x="13" y="19" width="3" height="1"/><rect class="oa65-2" x="16" y="18" width="1" height="1"/><path class="oa65-9" d="M10,27h1V25h1V21H11V20H10V19H9v5h1v3Z"/><path class="oa65-9" d="M10,14V13h1V11h1V10h3v1h2v1h1v2h1v2h1V10H19V9H18V8H11V9H10v1H9v5h1Z"/><path class="oa65-9" d="M19,20H18v1H17v5h1V25h1V22h1V19H19Z"/></svg>