<svg xmlns="http://www.w3.org/2000/svg" viewBox="0 0 29 33"><defs><style>polygon,rect,path{shape-rendering:crispedges;}.eb155-1{fill:#397d98;}.eb155-2{fill:#000000;}.eb155-3{fill:#6f7032;}.eb155-4{fill:#a89969;}.eb155-5{fill:#efcaaf;}.eb155-6{fill:#90a2a3;}.eb155-7{fill:#ffffff;}.eb155-8{fill:#990000;}.eb155-9{fill:#990000;}.eb155-10{fill:#99ce09;}.eb155-11{fill:#fad000;}.eb155-12{fill:#fafafa;}</style></defs><path class="eb155-1" d="M0,33H6V27H7V26H8V25H9V24h1V23h1V22h1V21H11V20H10V19H9V17H8V15H9V11h1V10H9V9h1V8h2V7h1V8h3V9h1V8h1V9h1v1h1v5h1v2H20v2H19v1H18v1H17v1h1v1h1v1h1V21h1V20h1V19h1V18h1v2h1v1h1v1h1v4H26v1H25v1H23v5h6V0H0Z"/><rect class="eb155-1" x="12" y="8" width="1" height="1"/><path class="eb155-2" d="M23,28h2V27H17v1h2v1h1v4h1V28h1v5h1V28Z"/><path class="eb155-3" d="M22,28H21v5h1V28Z"/><path class="eb155-3" d="M20,29H19v1H18v1H17v1H16v1h4V29Z"/><rect class="eb155-2" x="18" y="23" width="1" height="1"/><path class="eb155-3" d="M18,25H17v1H16v5h1V30h1V29h1V28H17V27h2V26h1V25H19V24H18Z"/><rect class="eb155-3" x="17" y="23" width="1" height="1"/><rect class="eb155-2" x="17" y="24" width="1" height="1"/><rect class="eb155-2" x="18" y="29" width="1" height="1"/><rect class="eb155-2" x="16" y="25" width="1" height="1"/><path class="eb155-4" d="M15,27H14v6h1V27Z"/><path class="eb155-2" d="M12,24h1V22H11v1h1Z"/><path class="eb155-5" d="M17,25V24H16V23H13v1H12v1h1v1h3V25Z"/><rect class="eb155-2" x="12" y="25" width="1" height="1"/><path class="eb155-3" d="M12,32V31H11V30H10V29H9v4h4V32Z"/><rect class="eb155-3" x="11" y="23" width="1" height="1"/><rect class="eb155-2" x="11" y="24" width="1" height="1"/><rect class="eb155-2" x="11" y="30" width="1" height="1"/><rect class="eb155-2" x="10" y="23" width="1" height="1"/><rect class="eb155-2" x="9" y="24" width="1" height="1"/><path class="eb155-3" d="M10,26v1h2v1H10v1h1v1h1v1h1V26H12V25H11V24H10v1H9v1Z"/><path class="eb155-2" d="M9,29h1V28h2V27H9V25H8v1H7v1H8v6H9V29Z"/><path class="eb155-3" d="M8,27H7v6H8V27Z"/><path class="eb155-2" d="M7,27H6v6H7V27Z"/><rect class="eb155-2" x="10" y="29" width="1" height="1"/><rect class="eb155-2" x="17" y="30" width="1" height="1"/><path class="eb155-2" d="M17,32V31H16V26H13v5H12v1h1v1h1V27h1v6h1V32Z"/><path class="eb155-6" d="M9,26v1h1V26Z"/><path class="eb155-6" d="M19,26v1h1V26Z"/><path class="eb155-2" d="M21,16V15H20v1Z"/><rect class="eb155-5" x="18" y="12" width="1" height="1"/><path class="eb155-5" d="M10,14h2V13H10Z"/><path class="eb155-5" d="M10,16v2h1v1h1V18h2v1h1V18h2v1h1V18h1V16h1V15H16V14h2V13H16V12h2V11H17V10H16v1H11v1h1v1h1v2H9v1Zm4,0h1v1H14Z"/><path class="eb155-5" d="M13,19v2h1V19Z"/><path class="eb155-5" d="M15,21h1V19H15v2Z"/><path class="eb155-2" d="M19,16v1h1V16Z"/><path class="eb155-2" d="M16,23v1h1V23h1V22H16Z"/><path class="eb155-2" d="M10,14H9v1h1Z"/><path class="eb155-2" d="M10,16H9v1h1Z"/><path class="eb155-2" d="M9,15H8v1H9Z"/><rect class="eb155-2" x="14" y="16" width="1" height="1"/><path class="eb155-7" d="M12,15h1V14H12Z"/><path class="eb155-7" d="M10,14v1h1V14Z"/><path class="eb155-7" d="M18,14v1h1V14Z"/><path class="eb155-7" d="M16,14v1h1V14Z"/><path class="eb155-2" d="M11,14v1h1V14Z"/><path class="eb155-2" d="M17,14v1h1V14Z"/><rect class="eb155-8" x="18" y="13" width="1" height="1"/><rect class="eb155-8" x="16" y="12" width="2" height="1"/><path class="eb155-8" d="M13,14V13H12v1Z"/><path class="eb155-8" d="M10,13h2V12H10Z"/><path class="eb155-9" d="M13,23h3V22h1V21h1V20h1V19h1V17H19v1H18v1H17V18H15v1h1v2H15V20H14v1H13V19h1V18H12v1H11V18H10V17H9v2h1v1h1v1h1v1h1Z"/><path class="eb155-2" d="M14,20h1V19H14Z"/><path class="eb155-10" d="M10,13V12h1V11h5V10h1v1h1v1h1v3h1V10H19V9H18V8H17V9H16V8H13V9H12V8H10V9H9v1h1v1H9v3h1Z"/><rect class="eb155-10" x="12" y="7" width="1" height="1"/><path class="eb155-11" d="M20,17h1V16H20Z"/><path class="eb155-11" d="M8,16v1H9V16Z"/><rect class="eb155-12" x="24" y="23" width="1" height="1"/><rect class="eb155-12" x="21" y="23" width="1" height="1"/><path class="eb155-5" d="M21,25v1H20v1h5V26H22V25h3v1h1V24H24V23h2V22H25V21H24v1H23V21H21v2h2v1H20v1Z"/><path class="eb155-2" d="M24.25,25H22v1h3V25Z"/><path class="eb155-2" d="M23,24V23H22v1Z"/><path class="eb155-2" d="M25,23v1h1v2h1V22H26v1Z"/><path class="eb155-2" d="M21,23V21H20v3h1Z"/><path class="eb155-2" d="M22,20H21v1h1Z"/><rect class="eb155-2" x="24" y="20" width="1" height="1"/><rect class="eb155-2" x="25" y="21" width="1" height="1"/><rect class="eb155-2" x="25" y="26" width="1" height="1"/><path class="eb155-10" d="M23,21v1h1V18H23v1H22v2Z"/><rect class="eb155-2" x="19" y="24" width="1" height="1"/><rect class="eb155-2" x="20" y="25" width="1" height="1"/></svg>