<svg xmlns="http://www.w3.org/2000/svg" viewBox="0 0 29 33"><defs><style>polygon,rect,path{shape-rendering:crispedges;}.ra159-1{fill:#d14646;}.ra159-2{fill:#000000;}.ra159-3{fill:#014731;}.ra159-4{fill:#b2622b;}.ra159-5{fill:#ffffff;}.ra159-6{fill:#317f03;}.ra159-7{fill:#ff5e17;}</style></defs><rect class="ra159-1" x="18" y="21" width="1" height="1"/><path class="ra159-1" d="M6,32V27H7V26H8V25h2V24h1V23H10V22H9V21H8V20H7V19H8V12H9V10h1V9h1V8h7V9h1v1h1v2h1v7h1v1H21v1H20v1H19v1H18v1h1v1h2v1h1v1h1v6h6V0H0V33H6Z"/><rect class="ra159-1" x="10" y="21" width="1" height="1"/><path class="ra159-2" d="M23,27H22v6h1V27Z"/><path class="ra159-3" d="M22,27H21v6h1V27Z"/><rect class="ra159-2" x="21" y="26" width="1" height="1"/><path class="ra159-2" d="M21,27H20v6h1V27Z"/><path class="ra159-3" d="M20,27h1V26H19V25H18V24H16v1h1v5H16V25H13v5H12V25h1V24H11v1H10v1H8v1H9v6H20V27Z"/><path class="ra159-2" d="M20,26h1V25H19v1Z"/><rect class="ra159-2" x="18" y="24" width="1" height="1"/><rect class="ra159-2" x="18" y="22" width="1" height="1"/><rect class="ra159-3" x="17" y="22" width="1" height="1"/><path class="ra159-2" d="M13,24v1h3V24H13Z"/><path class="ra159-4" d="M15,23H13v1h3V23Z"/><path class="ra159-2" d="M13,23h3v1h2V23H17V21H16v1H13V21H12v2H11v1h2Z"/><path class="ra159-3" d="M12,22H11v1h1Z"/><rect class="ra159-2" x="10" y="24" width="1" height="1"/><rect class="ra159-2" x="10" y="22" width="1" height="1"/><path class="ra159-2" d="M10,25H8v1h2Z"/><path class="ra159-2" d="M9,27H8v6H9V27Z"/><path class="ra159-3" d="M8,27H7v6H8V27Z"/><rect class="ra159-2" x="7" y="26" width="1" height="1"/><path class="ra159-2" d="M7,27H6v6H7V27Z"/><path class="ra159-2" d="M12,26v4h1V25H12Z"/><path class="ra159-2" d="M16,30h1V25H16v5Z"/><path class="ra159-2" d="M20,16h1V15H20Z"/><rect class="ra159-2" x="19" y="14" width="1" height="1"/><path class="ra159-4" d="M18,20V19h1V16h1V15H16V14h2V13H16V12h1V11H16V10H13v1H12v1h1v1H11v1h2v1H9v1h1v3h1v1h1v1h1v1h3V21h1V20Zm-4-4h1v1H14Zm2,3v1H13V19h3V18h1v1Z"/><path class="ra159-2" d="M19,17v2h1V16H19Z"/><rect class="ra159-2" x="18" y="19" width="1" height="1"/><rect class="ra159-2" x="17" y="20" width="1" height="1"/><rect class="ra159-2" x="11" y="20" width="1" height="1"/><rect class="ra159-2" x="10" y="19" width="1" height="1"/><path class="ra159-2" d="M10,16H9v3h1V16Z"/><path class="ra159-2" d="M9,15H8v1H9Z"/><rect class="ra159-2" x="14" y="16" width="1" height="1"/><path class="ra159-5" d="M19,15V14H18v1Z"/><path class="ra159-5" d="M13,15V14H12v1Z"/><path class="ra159-2" d="M16,15h2V14H16Z"/><path class="ra159-2" d="M12,15V14H9v1h3Z"/><path class="ra159-6" d="M13,12H11v1h2Z"/><path class="ra159-6" d="M16,13h2V12H16Z"/><rect class="ra159-2" x="13" y="19" width="3" height="1"/><rect class="ra159-2" x="16" y="18" width="1" height="1"/><path class="ra159-7" d="M20,17v2H19v1H18v1h1v1h1V21h1V20h1V19H21V16H20Z"/><path class="ra159-7" d="M9,14h2V12h1V11h1V10h3v1h1v1h1v2h2v1h1V12H20V10H19V9H18V8H11V9H10v1H9v2H8v3H9Z"/><path class="ra159-7" d="M11,21V20H10V19H9V16H8v3H7v1H8v1H9v1h1V21Z"/><path class="ra159-7" d="M11,22h1V21H11Z"/><path class="ra159-7" d="M18,21H17v1h1Z"/></svg>