<svg xmlns="http://www.w3.org/2000/svg" viewBox="0 0 29 33"><defs><style>polygon,rect,path{shape-rendering:crispedges;}.aa107-1{fill:#d14646;}.aa107-2{fill:#000000;}.aa107-3{fill:#a56e49;}.aa107-4{fill:#a0688d;}.aa107-5{fill:#a0688d;}.aa107-6{fill:#ffffff;}.aa107-7{fill:#4922aa;}.aa107-8{fill:#4922aa;}.aa107-9{fill:#0068ff;}</style></defs><path class="aa107-1" d="M0,33H6V27H7V26H8V25h2V24h2V22H11V21H10V20H9V16H8V15H9V11h1V10h1V9h1V8h1V6h1V5h1V7h1V9h2v1h1v1h1v4h1v1H20v4H19v1H18v1H17v2h2v1h2v1h1v1h1v6h6V0H0Z"/><path class="aa107-2" d="M23,31V27H22v6h1Z"/><rect class="aa107-2" x="21" y="26" width="1" height="1"/><path class="aa107-3" d="M22,31V27H21v6h1Z"/><rect class="aa107-3" x="20" y="26" width="1" height="1"/><path class="aa107-2" d="M21,31V27H20v6h1Z"/><path class="aa107-2" d="M20,26h1V25H19v1Z"/><path class="aa107-4" d="M14,31v1h1V30H14Z"/><rect class="aa107-4" x="18" y="30" width="1" height="1"/><rect class="aa107-4" x="18" y="32" width="1" height="1"/><rect class="aa107-4" x="10" y="32" width="1" height="1"/><path class="aa107-4" d="M17,31V30h1V29h1v1h1V26H19V25H18v1H17v1H16v1H13V27H12V26H11V25H10v1H9v4h1V29h1v1h1v3h1V29h2v1h1v2H15v1h2Z"/><rect class="aa107-4" x="10" y="30" width="1" height="1"/><path class="aa107-2" d="M17,26h1V25h1V24H17Z"/><rect class="aa107-2" x="16" y="26" width="1" height="1"/><path class="aa107-2" d="M14,27H13v1h3V27Z"/><path class="aa107-2" d="M13,23V22H12v2h1Z"/><path class="aa107-3" d="M12,26h1v1h3V26h1V24H16V23H13v1H12Z"/><rect class="aa107-2" x="12" y="26" width="1" height="1"/><path class="aa107-2" d="M11,26h1V24H10v1h1Z"/><path class="aa107-2" d="M10,26V25H8v1Z"/><rect class="aa107-3" x="8" y="26" width="1" height="1"/><path class="aa107-2" d="M9,31V27H8v6H9Z"/><rect class="aa107-2" x="7" y="26" width="1" height="1"/><path class="aa107-3" d="M8,31V27H7v6H8Z"/><path class="aa107-2" d="M7,31V27H6v6H7Z"/><path class="aa107-5" d="M20,31V30H19v1H18V30H17v3h1V32h1v1h1Z"/><rect class="aa107-5" x="18" y="29" width="1" height="1"/><path class="aa107-5" d="M15,32h1V30H15Z"/><path class="aa107-5" d="M14,32V30h1V29H13v4h2V32Z"/><path class="aa107-5" d="M12,31V30H11v1H10V30H9v3h1V32h1v1h1Z"/><rect class="aa107-5" x="10" y="29" width="1" height="1"/><rect class="aa107-2" x="20" y="15" width="1" height="1"/><path class="aa107-2" d="M19,13v2h1V11H19Z"/><rect class="aa107-3" x="15" y="20" width="1" height="1"/><path class="aa107-3" d="M10,17v1h1v1h1V18h2v1h1V18h2v1h1V18h1V16h1V15H16V13h1V12h2V11H18V10H16v1H15V10H11v1H10v2h1V12h2v1H11v1h2v1H9v1h1Zm4-1h1v1H14Z"/><rect class="aa107-3" x="13" y="20" width="1" height="1"/><polygon class="aa107-3" points="18 14 19 14 19 13 17 13 17 14 18 14"/><rect class="aa107-2" x="18" y="10" width="1" height="1"/><path class="aa107-2" d="M16,23v1h1V22H16Z"/><path class="aa107-2" d="M17,10h1V9H16v1Z"/><path class="aa107-2" d="M13,10h1V9H11v1Z"/><rect class="aa107-2" x="10" y="10" width="1" height="1"/><path class="aa107-2" d="M10,14V11H9v4h1Z"/><rect class="aa107-2" x="8" y="15" width="1" height="1"/><rect class="aa107-2" x="14" y="16" width="1" height="1"/><rect class="aa107-6" x="12" y="14" width="1" height="1"/><rect class="aa107-6" x="10" y="14" width="1" height="1"/><rect class="aa107-6" x="18" y="14" width="1" height="1"/><rect class="aa107-6" x="16" y="14" width="1" height="1"/><rect class="aa107-2" x="11" y="14" width="1" height="1"/><rect class="aa107-2" x="17" y="14" width="1" height="1"/><rect class="aa107-7" x="10" y="13" width="1" height="1"/><rect class="aa107-7" x="11" y="12" width="2" height="1"/><rect class="aa107-7" x="16" y="13" width="1" height="1"/><rect class="aa107-7" x="17" y="12" width="2" height="1"/><rect class="aa107-8" x="13" y="18" width="1" height="1"/><path class="aa107-8" d="M13,23h3V22h2V21h1V20h1V16H19v2H18v1H17V18H15v1h1v2H15V20H14v1H13V19H11V18H10V16H9v4h1v1h1v1h2Z"/><path class="aa107-2" d="M13,19v1h3V19Z"/><rect class="aa107-2" x="12" y="18" width="1" height="1"/><path class="aa107-9" d="M14,9v1h1v1h1V7H15V5H14V6H13V8H12V9Z"/></svg>