<svg xmlns="http://www.w3.org/2000/svg" viewBox="0 0 29 33"><defs><style>polygon,rect,path{shape-rendering:crispedges;}.gb145-1{fill:#000000;}.gb145-2{fill:#333333;}.gb145-3{fill:#ffffff;}.gb145-4{fill:#ce8452;}.gb145-5{fill:#90a2a3;}.gb145-6{fill:#7f5018;}.gb145-7{fill:#ffffff;}.gb145-8{fill:#b23b00;}.gb145-9{fill:#841f00;}.gb145-10{fill:#b23b00;}.gb145-11{fill:#b4bd09;}</style></defs><path class="gb145-1" d="M23,27H22v6h1V27Z"/><path class="gb145-2" d="M22,27H21v6h1V27Z"/><path class="gb145-1" d="M21,27h1V26H21V25H20v2H17v1h2v1h1v4h1V27Z"/><rect class="gb145-1" x="19" y="24" width="1" height="1"/><path class="gb145-2" d="M20,29H19v1H18v1H17v1H16v1h4V29Z"/><rect class="gb145-1" x="18" y="23" width="1" height="1"/><path class="gb145-2" d="M18,25H17v1H16v5h1V30h1V29h1V28H17V27h2V26h1V25H19V24H18Z"/><rect class="gb145-2" x="17" y="23" width="1" height="1"/><rect class="gb145-1" x="17" y="24" width="1" height="1"/><rect class="gb145-1" x="18" y="29" width="1" height="1"/><rect class="gb145-1" x="16" y="25" width="1" height="1"/><path class="gb145-3" d="M15,27H14v6h1V27Z"/><path class="gb145-1" d="M12,24h1V23h3v1h1V23h1V22H17V21H16v1H13V21H12v1H11v1h1Z"/><path class="gb145-4" d="M17,25V24H16V23H13v1H12v1h1v1h3V25Z"/><rect class="gb145-1" x="12" y="25" width="1" height="1"/><path class="gb145-2" d="M12,32V31H11V30H10V29H9v4h4V32Z"/><rect class="gb145-2" x="11" y="23" width="1" height="1"/><rect class="gb145-1" x="11" y="24" width="1" height="1"/><rect class="gb145-1" x="11" y="30" width="1" height="1"/><rect class="gb145-1" x="10" y="23" width="1" height="1"/><rect class="gb145-1" x="9" y="24" width="1" height="1"/><path class="gb145-2" d="M10,26v1h2v1H10v1h1v1h1v1h1V26H12V25H11V24H10v1H9v1Z"/><path class="gb145-1" d="M9,29h1V28h2V27H9V25H8v1H7v1H8v6H9V29Z"/><path class="gb145-2" d="M8,27H7v6H8V27Z"/><path class="gb145-1" d="M7,27H6v6H7V27Z"/><rect class="gb145-1" x="10" y="29" width="1" height="1"/><rect class="gb145-1" x="17" y="30" width="1" height="1"/><path class="gb145-1" d="M17,32V31H16V26H13v5H12v1h1v1h1V27h1v6h1V32Z"/><path class="gb145-5" d="M9,26v1h1V26Z"/><path class="gb145-5" d="M19,27h1V26H19Z"/><path class="gb145-4" d="M13,22h3V21h1V20h1V19h1V16h1V15H19V13H17v1h1v1H16v1H15v1H14V16H13V15H11V14H10v1H9v1h1v3h1v1h1v1h1Zm0-3h3v1H13Z"/><path class="gb145-1" d="M20,16H19v3h1V16Z"/><rect class="gb145-1" x="18" y="19" width="1" height="1"/><rect class="gb145-1" x="17" y="20" width="1" height="1"/><rect class="gb145-1" x="11" y="20" width="1" height="1"/><rect class="gb145-1" x="10" y="19" width="1" height="1"/><path class="gb145-1" d="M10,18V16H9v3h1Z"/><path class="gb145-6" d="M18,15V14H17v1Z"/><rect class="gb145-6" x="16" y="13" width="1" height="1"/><rect class="gb145-1" x="14" y="14" width="1" height="1"/><path class="gb145-7" d="M16,13H13v1H12v1h1v1h3V15h1V14H16Zm-1,2H14V14h1Z"/><rect class="gb145-6" x="12" y="13" width="1" height="1"/><path class="gb145-6" d="M11,14v1h1V14Z"/><path class="gb145-1" d="M14,17h1V16H14Z"/><rect class="gb145-4" x="11" y="13" width="1" height="1"/><rect class="gb145-1" x="13" y="19" width="3" height="1"/><path class="gb145-8" d="M9,16V15h1V14h1V13H8v6H9V16Z"/><path class="gb145-8" d="M19,14v1h1v4h1V13H19Z"/><rect class="gb145-8" x="9" y="19" width="1" height="1"/><rect class="gb145-8" x="19" y="19" width="1" height="1"/><path class="gb145-9" d="M19,12v1h1V11H19Z"/><path class="gb145-10" d="M10,12v1h1V11h1v2h1V11h1v2h1V11h1v2h1V11h1v2h1V11h1V10H19V9H18V8H11V9H10v1H9v1h1Z"/><path class="gb145-9" d="M17,11v2h1V11Z"/><path class="gb145-9" d="M16,12V11H15v2h1Z"/><path class="gb145-9" d="M14,12V11H13v2h1Z"/><path class="gb145-9" d="M12,12V11H11v2h1Z"/><path class="gb145-9" d="M10,12V11H9v2h1Z"/><path class="gb145-11" d="M0,8V33H6V27H7V26H8V25H9V24h1V23h1V22h1V21H11V20H9V19H8V13H9V10h1V9h1V8h7V9h1v1h1v3h1v6H20v1H18v1H17v1h1v1h1v1h1v1h1v1h1v1h1v6h6V0H0Z"/></svg>