<svg xmlns="http://www.w3.org/2000/svg" viewBox="0 0 29 33"><defs><style>polygon,rect,path{shape-rendering:crispedges;}.ga288-1{fill:#6b4f99;}.ga288-2{fill:#000000;}.ga288-3{fill:#c5e2d0;}.ga288-4{fill:#e8b795;}.ga288-5{fill:#c5e2d0;}.ga288-6{fill:#ffffff;}.ga288-7{fill:#8e4717;}.ga288-8{fill:#8e4717;}.ga288-9{fill:#c8a715;}.ga288-10{fill:#ff6aa5;}.ga288-11{fill:#508e91;}</style></defs><path class="ga288-1" d="M0,33H6V27H7V26H8V25h2V20H9V16H8V14H9V11h1V10h1V9h2V7h1V6h2V5h2V6H17V7h1V9h1v2h1v3h1v2H20v4H19v5h2v1h1v1h1v6h6V0H0Z"/><path class="ga288-1" d="M12,22H11v2h1V22Z"/><path class="ga288-1" d="M18,24V22H17v2Z"/><path class="ga288-2" d="M23,27H22v6h1V27Z"/><rect class="ga288-2" x="21" y="26" width="1" height="1"/><path class="ga288-3" d="M22,27H21v6h1V27Z"/><path class="ga288-2" d="M21,27H20v6h1V27Z"/><path class="ga288-2" d="M20,26h1V25H19v1Z"/><rect class="ga288-3" x="10" y="29" width="1" height="1"/><rect class="ga288-3" x="18" y="29" width="1" height="1"/><path class="ga288-3" d="M19,32V31H18v1H17V29h1V28h1v1h1V27h1V26H19V25H17v1H16v1H13V26H12V25H10v1H9v3h1V28h1v1h1v3H11V31H10v1H9v1H20V32Zm-3-2v1H15v1H13V28h2v1h1Z"/><path class="ga288-3" d="M15,29H14v2h1V29Z"/><path class="ga288-2" d="M17,24v1h2V24H17Z"/><rect class="ga288-2" x="16" y="25" width="1" height="1"/><path class="ga288-2" d="M13,26v1h3V26H13Z"/><path class="ga288-4" d="M16,24V23H13v3h3V24Z"/><path class="ga288-2" d="M12,25v1h1V25Z"/><path class="ga288-2" d="M12,24H10v1h2Z"/><path class="ga288-2" d="M9,31V26h1V25H8v1H7v1H8v6H9V31Z"/><path class="ga288-3" d="M8,27H7v6H8V27Z"/><path class="ga288-2" d="M7,27H6v6H7V27Z"/><path class="ga288-5" d="M19,30H18V29H17v3h1V31h1v1h1V29H19Z"/><rect class="ga288-5" x="18" y="28" width="1" height="1"/><path class="ga288-5" d="M15,30v1h1V29H15Z"/><path class="ga288-5" d="M14,30V29h1V28H13v4h2V31H14Z"/><path class="ga288-5" d="M9,32h1V31h1v1h1V29H11v1H10V29H9v3Z"/><rect class="ga288-5" x="10" y="28" width="1" height="1"/><path class="ga288-2" d="M20,16h1V15H20Z"/><path class="ga288-2" d="M19,13v1h1V11H19v2Z"/><path class="ga288-4" d="M16,17V16H15v1H14V16H13v1H10v1h1v1h1V18h2v1h1V18h2v1h1V18h1V17H16Z"/><path class="ga288-4" d="M13,16V15H10v1h3Z"/><polygon class="ga288-4" points="13 21 14 21 14 22 15 22 15 21 16 21 16 20 13 20 13 21"/><rect class="ga288-4" x="14" y="15" width="1" height="1"/><path class="ga288-4" d="M16,15v1h3V15H16Z"/><path class="ga288-4" d="M11,13V12h2v2h3V13h1V12h2V11H18V10H15v1H13V10H11v1H10v2Z"/><path class="ga288-2" d="M19,17h1V16H19Z"/><path class="ga288-2" d="M18,11h1V10H18Z"/><path class="ga288-2" d="M16,10h2V9H16Z"/><path class="ga288-2" d="M13,9H11v1h2Z"/><rect class="ga288-2" x="10" y="10" width="1" height="1"/><path class="ga288-2" d="M10,13V11H9v3h1Z"/><path class="ga288-2" d="M10,16H9v1h1Z"/><path class="ga288-2" d="M8,15v1H9V15Z"/><rect class="ga288-2" x="14" y="16" width="1" height="1"/><path class="ga288-6" d="M11,14H10v1h1Z"/><rect class="ga288-6" x="16" y="14" width="1" height="1"/><path class="ga288-2" d="M11,14v1h2V14H11Z"/><path class="ga288-2" d="M17,14v1h2V14H17Z"/><path class="ga288-7" d="M13,12H11v1h2Z"/><path class="ga288-7" d="M19,12H17v1h2Z"/><path class="ga288-8" d="M12,22v1h5V22h2V20h1V17H19v1H18v1H17V18H15v1h1v2H15v1H14V21H13V19H11V18H10V17H9v3h1v2h2Z"/><path class="ga288-8" d="M14,18H13v1h1Z"/><path class="ga288-9" d="M18,23h1V22H18Z"/><path class="ga288-8" d="M18,24h1V23H18Z"/><path class="ga288-9" d="M17,24V23H16v1Z"/><path class="ga288-8" d="M16,24v1h1V24Z"/><path class="ga288-9" d="M13,23H12v1h1Z"/><path class="ga288-8" d="M13,24H12v1h1Z"/><path class="ga288-9" d="M11,22H10v1h1Z"/><path class="ga288-8" d="M11,23H10v1h1Z"/><path class="ga288-2" d="M13,19v1h3V19H13Z"/><path class="ga288-2" d="M12,18v1h1V18Z"/><path class="ga288-10" d="M13,11h2V10h1V9h2V7H17V6h1V5H16V6H14V7H13v4Z"/><path class="ga288-10" d="M19,10V9H18v1Z"/><path class="ga288-11" d="M19,15v1h1V15h1V14H19Z"/><path class="ga288-11" d="M18,16H16v1h3V16Z"/><path class="ga288-11" d="M12,14h1V13H10v1h2Z"/><path class="ga288-11" d="M18,14h1V13H16v1h2Z"/><path class="ga288-11" d="M13,16h1V15h1v1h1V14H13v2Z"/><path class="ga288-11" d="M13,17V16H10v1h3Z"/><path class="ga288-11" d="M10,15V14H8v1H9v1h1Z"/><rect class="ga288-10" x="18" y="9" width="1" height="1"></rect></svg>