<svg xmlns="http://www.w3.org/2000/svg" viewBox="0 0 29 33"><defs><style>polygon,rect,path{shape-rendering:crispedges;}.ga182-1{fill:#6b4f99;}.ga182-2{fill:#000000;}.ga182-3{fill:#6d5800;}.ga182-4{fill:#e8b795;}.ga182-5{fill:#99ce09;}.ga182-6{fill:#ffffff;}.ga182-7{fill:#6c9302;}.ga182-8{fill:#4fdb7d;}.ga182-9{fill:#dfdfdf;}.ga182-10{fill:#a89969;}.ga182-11{fill:#381616;}.ga182-12{fill:#fad000;}</style></defs><rect class="ga182-1" x="19" y="24" width="1" height="1"/><path class="ga182-1" d="M19,24V21H17v3h2Z"/><path class="ga182-1" d="M6,32V27H7V26H8V25h2V24h2V21H9V20H8V19H9V16H8V15H9V13H7V12H5V11H7v1H9V10h1V8h1V7h2V8h3V7h2V8h1V7h1V6h2V8H21V9H20v3h2V11h2v1H22v1H20v2h1v1H20v3h1v1h2v1h1v3H23v1h1v1H23v7h6V0H0V33H6Z"/><path class="ga182-2" d="M7,27H6v6H7V27Z"/><rect class="ga182-2" x="7" y="26" width="1" height="1"/><path class="ga182-3" d="M8,27H7v6H8V27Z"/><path class="ga182-2" d="M9,27H8v6H9V27Z"/><path class="ga182-2" d="M10,25H8v1h2Z"/><path class="ga182-3" d="M16,32H12v1h5V32Z"/><rect class="ga182-3" x="12" y="30" width="1" height="1"/><path class="ga182-3" d="M20,26H19V25H17v1H16v1H13V26H12V25H10v1H8v1H9v6h1V30h1V29h1V28h5v1h1v1h1v3h1V26Z"/><rect class="ga182-3" x="16" y="30" width="1" height="1"/><path class="ga182-2" d="M12,24H10v1h2Z"/><path class="ga182-2" d="M13,23h3v1h1V21H16v1H13V21H12v3h1Z"/><rect class="ga182-2" x="12" y="25" width="1" height="1"/><path class="ga182-2" d="M13,26v1h3V26H13Z"/><path class="ga182-4" d="M13,25v1h3V25h1V24H16V23H13v1H12v1Z"/><rect class="ga182-2" x="16" y="25" width="1" height="1"/><path class="ga182-2" d="M18,24H17v1h2V24Z"/><path class="ga182-2" d="M21,27V26H20v7h1V27Z"/><path class="ga182-3" d="M22,27H21v6h1V27Z"/><path class="ga182-2" d="M23,26H22v7h1V26Z"/><path class="ga182-5" d="M19,30H18V29H17V28H12v1H11v1H10v3h2V32h5v1h2V30Zm-6,1H12V30h1Zm4,0H16V30h1Z"/><rect class="ga182-2" x="20" y="15" width="1" height="1"/><path class="ga182-4" d="M13,22h3V21h1V19h1V18h1V16h1V15H16V14h3V13H14v1H13v3H12V16H11V15H9v1h1v2h1v1h1V18h1v1h3v1H13V19H12v2h1Zm2-5H14V16h1Z"/><path class="ga182-2" d="M18,20H17v1h1Z"/><path class="ga182-2" d="M11,20v1h1V20Z"/><path class="ga182-2" d="M10,14H9v1h1Z"/><rect class="ga182-2" x="8" y="15" width="1" height="1"/><rect class="ga182-2" x="14" y="16" width="1" height="1"/><path class="ga182-6" d="M18,14v1h1V14Z"/><path class="ga182-6" d="M16,14v1h1V14Z"/><path class="ga182-2" d="M17,14v1h1V14Z"/><path class="ga182-7" d="M19,17v1H18v1H17v1h1v1h2V20h1V19H20V16H19Z"/><path class="ga182-7" d="M12,20V19H11V18H10V16H9v3H8v1H9v1h2V20Z"/><rect class="ga182-2" x="13" y="19" width="3" height="1"/><rect class="ga182-2" x="12" y="18" width="1" height="1"/><path class="ga182-8" d="M19,14v1h1V13H19Z"/><path class="ga182-8" d="M10,15h1v1h1v1h1V14h1V13H9v1h1Z"/><path class="ga182-2" d="M24,11H22v1h2Z"/><path class="ga182-9" d="M21,8h1V7H21Z"/><path class="ga182-2" d="M14,13h8V12H20V11H19v1H10V11H9v1H7v1h7Z"/><rect class="ga182-9" x="20" y="8" width="1" height="1"/><path class="ga182-10" d="M19,11h1V10H19Z"/><path class="ga182-6" d="M18,11h1V10h1V8h1V7h1V6H20V7H19V8H18v3Z"/><path class="ga182-10" d="M17,11H10v1h9V11H17Z"/><path class="ga182-2" d="M11,11h7V7H16V8H13V7H11V8H10v3Z"/><path class="ga182-10" d="M10,10H9v1h1Z"/><path class="ga182-2" d="M6,11H5v1H7V11Z"/><path class="ga182-4" d="M20,26h1v1h1V26h1V25H20Z"/><rect class="ga182-2" x="23" y="25" width="1" height="1"/><rect class="ga182-2" x="19" y="25" width="1" height="1"/><path class="ga182-11" d="M24,22V21H23v1Z"/><path class="ga182-12" d="M20,21H19v3h1v1h3V24H21V23H20V22h1V21h1v1H21v1h3V22H23V20H20Z"/><rect class="ga182-11" x="21" y="21" width="1" height="1"/><path class="ga182-11" d="M21,23v1h3V23H21Z"/><rect class="ga182-11" x="20" y="22" width="1" height="1"/></svg>