<svg xmlns="http://www.w3.org/2000/svg" viewBox="0 0 29 33"><defs><style>polygon,rect,path{shape-rendering:crispedges;}.ua121-1{fill:#d14646;}.ua121-2{fill:#000000;}.ua121-3{fill:#508e5d;}.ua121-4{fill:#e8b795;}.ua121-5{fill:#ffffff;}.ua121-6{fill:#492a23;}.ua121-7{fill:#cc2f76;}.ua121-8{fill:#900;}.ua121-9{fill:#ea1500;}.ua121-10{fill:#a0a0a0;}.ua121-11{fill:#ccc;}</style></defs><path class="ua121-1" d="M20,23V22H19v1H18v1h1v1h2V23Z"/><path class="ua121-2" d="M23,26v5h1V25H23Z"/><path class="ua121-2" d="M7,27H6v6H7V27Z"/><path class="ua121-3" d="M8,27H7v6H8V27Z"/><rect class="ua121-2" x="7" y="26" width="1" height="1"/><path class="ua121-2" d="M9,27H8v6H9V27Z"/><path class="ua121-3" d="M20,27h1V26H19V25H18V24H16v1h1v5H16V25H13v5H12V25h1V24H11v1H10v1H8v1H9v6H20V27Z"/><path class="ua121-2" d="M10,25H8v1h2Z"/><rect class="ua121-2" x="10" y="24" width="1" height="1"/><path class="ua121-2" d="M13,23H11v1h2Z"/><path class="ua121-2" d="M13,24v1h3V24H13Z"/><path class="ua121-4" d="M15,23H13v1h3V23Z"/><path class="ua121-2" d="M17,23H16v1h2V23Z"/><rect class="ua121-2" x="18" y="24" width="1" height="1"/><path class="ua121-2" d="M22,32h1V31H22V25H19v1h2v1H20v6h1V32Z"/><path class="ua121-3" d="M23,26V25H22v6h1V26Z"/><path class="ua121-2" d="M12,26v4h1V25H12Z"/><path class="ua121-2" d="M16,30h1V25H16v5Z"/><path class="ua121-4" d="M16,22V21h1V20h1V19h1V15H16V13h1V11H14v1H13v1H11v1h2v1H10v4h1v1h1v1h1v1h3Zm-2-6h1v1H14Zm-2,3V18h5v1H16v1H13V19Z"/><polygon class="ua121-4" points="18 14 19 14 19 13 17 13 17 14 18 14"/><rect class="ua121-2" x="14" y="16" width="1" height="1"/><path class="ua121-5" d="M13,15V14H12v1Z"/><path class="ua121-5" d="M10,15h1V14H10Z"/><path class="ua121-5" d="M18,14v1h1V14Z"/><path class="ua121-5" d="M16,14v1h1V14Z"/><path class="ua121-2" d="M12,15V14H11v1Z"/><path class="ua121-2" d="M17,14v1h1V14Z"/><path class="ua121-6" d="M17,13H16v1h1Z"/><path class="ua121-6" d="M17,12v1h2V12H17Z"/><path class="ua121-7" d="M11,14V13h2V12h1V11H12v1H10v2Z"/><path class="ua121-3" d="M20,21V19H19v1H18v1H17v1H16v1h2V22h1V21Z"/><path class="ua121-3" d="M13,22H12V21H11V20H10V19H9V12h1V11h2V10h5v1h2v1h1v6h1V11H20V10H19V9H18V8H11V9H10v1H9v1H8v9H9v1h1v1h1v1h2Z"/><rect class="ua121-2" x="10" y="8" width="1" height="1"/><rect class="ua121-2" x="9" y="9" width="1" height="1"/><rect class="ua121-2" x="8" y="10" width="1" height="1"/><path class="ua121-2" d="M8,11H7v9H8V11Z"/><rect class="ua121-2" x="8" y="20" width="1" height="1"/><rect class="ua121-2" x="9" y="21" width="1" height="1"/><rect class="ua121-2" x="10" y="22" width="1" height="1"/><rect class="ua121-2" x="18" y="22" width="1" height="1"/><rect class="ua121-2" x="19" y="21" width="1" height="1"/><path class="ua121-2" d="M21,17h1V11H21v6Z"/><rect class="ua121-2" x="20" y="10" width="1" height="1"/><rect class="ua121-2" x="19" y="9" width="1" height="1"/><rect class="ua121-2" x="18" y="8" width="1" height="1"/><path class="ua121-2" d="M18,8V7H11V8h7Z"/><path class="ua121-2" d="M12,11H10v1h2Z"/><path class="ua121-2" d="M10,15V12H9v7h1V15Z"/><rect class="ua121-2" x="10" y="19" width="1" height="1"/><rect class="ua121-2" x="11" y="20" width="1" height="1"/><rect class="ua121-2" x="12" y="21" width="1" height="1"/><path class="ua121-2" d="M16,23V22H13v1h3Z"/><rect class="ua121-2" x="16" y="21" width="1" height="1"/><rect class="ua121-2" x="17" y="20" width="1" height="1"/><rect class="ua121-2" x="18" y="19" width="1" height="1"/><path class="ua121-2" d="M19,14v5h1V12H19v2Z"/><path class="ua121-2" d="M18,12h1V11H17v1Z"/><path class="ua121-2" d="M17,11V10H12v1h5Z"/><path class="ua121-1" d="M0,7V33H6V27H7V26H8V25h2V24h1V23H10V22H9V21H8V20H7V11H8V10H9V9h1V8h1V7h7V8h1V9h1v1h1v1h1v5h1v1h1v1h1v5H24v8H23v1H21v1h8V0H0Z"/><polygon class="ua121-2" points="16 20 16 19 17 19 17 18 12 18 12 19 13 19 13 20 16 20"/><path class="ua121-5" d="M20,20v1h1V18H20v2Z"/><path class="ua121-5" d="M23,20V18H22v2Z"/><path class="ua121-5" d="M24,21h1V18H24v3Z"/><path class="ua121-2" d="M22,20V18H21v2Z"/><path class="ua121-8" d="M21,21v1h3V21H21Z"/><path class="ua121-9" d="M21,20v1h3V20H21Z"/><path class="ua121-5" d="M21,22v1h3V22Z"/><path class="ua121-10" d="M21,23v2h3V23H21Z"/><path class="ua121-9" d="M22,18h1V16H22v2Z"/><path class="ua121-5" d="M24,18V17H23v1Z"/><path class="ua121-5" d="M22,17H21v1h1Z"/><path class="ua121-2" d="M23,19v1h1V18H23Z"/><path class="ua121-11" d="M24,21.222V23h1V21H24Z"/><path class="ua121-11" d="M20,21v2h1V21Z"/></svg>