<svg xmlns="http://www.w3.org/2000/svg" viewBox="0 0 29 33"><defs><style>polygon,rect,path{shape-rendering:crispedges;}.da139-1{fill:#b4bd09;}.da139-2{fill:#000000;}.da139-3{fill:#ffffff;}.da139-4{fill:#b2622b;}.da139-5{fill:#ffffff;}.da139-6{fill:#326b43;}.da139-7{fill:#fad000;}.da139-8{fill:#326b43;}.da139-9{fill:#cc2f76;}.da139-10{fill:#280000;}.da139-11{fill:#ff5e17;}.da139-12{fill:#0f0000;}.da139-13{fill:#560000;}.da139-14{fill:#900;}</style></defs><path class="da139-1" d="M6,32V27H5V26H6V25H5V24H4V21H5V20H6V19H9V18H8V13H9V11h1V10h1V9h7v1h1v1h1v1h1v6H20v2H19v1H17v1h1v1h1v2h2v1h1v1h1v6h6V0H0V33H6Z"/><polygon class="da139-1" points="11 22 11 22 12 22 12 21 11 21 11 22"/><rect class="da139-1" x="9" y="25" width="1"/><path class="da139-2" d="M23,27H22v2H21V27H20v6h1V30h1v3h1V27Z"/><rect class="da139-2" x="21" y="26" width="1" height="1"/><path class="da139-2" d="M20,26h1V25H19v1Z"/><path class="da139-2" d="M9,26v1h1V25H9Z"/><path class="da139-2" d="M9,27H8v6H9V27Z"/><path class="da139-2" d="M7,27H6v6H7V27Z"/><path class="da139-3" d="M20,27h1V26H19V25H18v1H17v1H16v2H15v1H14V29H13V27H12V26H11V25H10v2H9v6H20V27Z"/><path class="da139-3" d="M21,28v1h1V27H21Z"/><path class="da139-4" d="M8,27H9V26H6v1H7v6H8V27Z"/><path class="da139-4" d="M14,24h1v1h1V23H13v2h1Z"/><path class="da139-4" d="M22,30H21v3h1V30Z"/><rect class="da139-2" x="19" y="14" width="1" height="1"/><path class="da139-4" d="M18,20V15H16v1H15v1H14V16h1V14h1V12H15V11H14v4H13v2H12V15H11v5h1v1h1v1h3V21h1V20Zm-2-1v1H13V19h3V18h1v1Z"/><rect class="da139-4" x="17" y="13" width="1" height="1"/><rect class="da139-4" x="19" y="15" width="1" height="1"/><rect class="da139-4" x="11" y="13" width="1" height="1"/><rect class="da139-4" x="12" y="12" width="1" height="1"/><rect class="da139-4" x="17" y="11" width="1" height="1"/><rect class="da139-4" x="9" y="15" width="1" height="1"/><rect class="da139-2" x="19" y="16" width="1" height="1"/><path class="da139-2" d="M16,22H13V21H12v1H11v1h1v2h1V23h3v2h1V23h1V22H17V21H16Z"/><rect class="da139-2" x="9" y="16" width="1" height="1"/><rect class="da139-2" x="14" y="16" width="1" height="1"/><rect class="da139-5" x="12" y="14" width="1" height="1"/><path class="da139-5" d="M17,15V14H16v1Z"/><rect class="da139-2" x="11" y="14" width="1" height="1"/><path class="da139-2" d="M18,15V14H17v1Z"/><rect class="da139-6" x="17" y="12" width="1" height="1"/><rect class="da139-6" x="12" y="13" width="1" height="1"/><rect class="da139-6" x="11" y="12" width="1" height="1"/><rect class="da139-2" x="14" y="29" width="1" height="1"/><rect class="da139-2" x="12" y="26" width="1" height="1"/><path class="da139-2" d="M15,28v1h1V27H15Z"/><rect class="da139-2" x="16" y="26" width="1" height="1"/><path class="da139-2" d="M13,27v2h1V27Z"/><rect class="da139-2" x="17" y="25" width="1" height="1"/><rect class="da139-2" x="11" y="25" width="1" height="1"/><rect class="da139-2" x="14" y="24" width="1" height="1"/><rect class="da139-2" x="13" y="25" width="1" height="1"/><rect class="da139-2" x="15" y="25" width="1" height="1"/><rect class="da139-7" x="16" y="25" width="1" height="1"/><path class="da139-7" d="M15,26V25H14v1H13v1h1v2h1V27h1V26Z"/><rect class="da139-7" x="12" y="25" width="1" height="1"/><path class="da139-7" d="M12,24V23H11v2h1Z"/><path class="da139-7" d="M17,24v1h1V23H17Z"/><path class="da139-2" d="M19,25V23H18v2Z"/><path class="da139-2" d="M10,24v1h1V24Z"/><path class="da139-8" d="M19,18H18v2H17v1h2V18Z"/><rect class="da139-8" x="19" y="17" width="1" height="1"/><path class="da139-8" d="M11,21h1V20H11V18H10v3Z"/><rect class="da139-8" x="9" y="17" width="1" height="1"/><rect class="da139-2" x="13" y="19" width="3" height="1"/><rect class="da139-2" x="16" y="18" width="1" height="1"/><path class="da139-9" d="M9,16V15h1v3h1V12h2v3h1V11h1v1h1v2h1V11h1v7h1V14h1v4h1V12H20V11H19V10H18V9H11v1H10v1H9v2H8v5H9V16Z"/><path class="da139-9" d="M19,19v1h1V18H19Z"/><path class="da139-9" d="M15,15v1h1V14H15Z"/><path class="da139-9" d="M12,16v1h1V15H12Z"/><path class="da139-9" d="M10,20V18H9v2Z"/><polygon class="da139-2" points="5 26 5 27 6 27 6 26 5 26"/><path class="da139-10" d="M6,22V21H7V19H6v1H5v2Z"/><path class="da139-10" d="M9,25h1V23H9v1H8v2H9V25Z"/><rect class="da139-11" x="6" y="24" width="1" height="1"/><path class="da139-12" d="M10,21V20H9v1Z"/><polygon class="da139-12" points="10 22 11 22 11 21 11 21 10 21 10 21 10 22"/><path class="da139-13" d="M10,22v2h1V22H10Z"/><path class="da139-14" d="M10,21H9v2h1V21Z"/><polygon class="da139-11" points="9 21 9 20 8 20 8 21 9 21"/><path class="da139-13" d="M5,22V21H4v2H5Z"/><path class="da139-14" d="M6,23V22H5v2H6Z"/><path class="da139-2" d="M7,25v1H8V25Z"/><path class="da139-2" d="M8,20V19H7v1Z"/><path class="da139-7" d="M8,20H7v1H8Z"/><polygon class="da139-7" points="6 21 6 22 6 23 6 24 7 24 7 21 6 21"/><path class="da139-7" d="M8,24H7v1H8Z"/><path class="da139-7" d="M8,21v3H9V21Z"/><rect class="da139-13" x="7" y="21" width="1" height="3"/><path class="da139-12" d="M9,20V19H8v1Z"/><path class="da139-12" d="M7,25H6v1H7Z"/><rect class="da139-12" x="5" y="24" width="1" height="1"/><path class="da139-12" d="M4,23v1H5V23Z"/></svg>