<svg xmlns="http://www.w3.org/2000/svg" viewBox="0 0 29 33"><defs><style>polygon,rect,path{shape-rendering:crispedges;}.aa75-1{fill:#d14646;}.aa75-2{fill:#000000;}.aa75-3{fill:#e8b795;}.aa75-4{fill:#508e91;}.aa75-5{fill:#508e91;}.aa75-6{fill:#6f7032;}.aa75-7{fill:#6f7032;}.aa75-8{fill:#00af68;}.aa75-9{fill:#6d5800;}.aa75-10{fill:#fad000;}.aa75-11{fill:#ea1500;}</style></defs><rect class="aa75-1" x="16" y="8" width="1" height="1"/><rect class="aa75-1" x="18" y="19" width="1"/><path class="aa75-1" d="M0,0V33H29V0ZM27,18v4H26v1H25v1H24v7H23v1H21v1H6V27H7V26H8V25h2V24h2V21H11V20H10V19H9V16H8V15H9v1h1v3h0V16H9V10h1V9h1V8h1V9h1V8h3V7h1V8h2V9h1v1H19v1h1v4h1v1H20v3H19v1H18v1H17v3h2v1h2V23h1V22H21V19h1v1h1V18h1V17h3Z"/><rect class="aa75-1" x="14" y="16" width="1"/><rect class="aa75-1" x="19" y="16" width="1"/><rect class="aa75-1" x="12" y="20"/><path class="aa75-2" d="M7,31V27H6v6H7Z"/><rect class="aa75-2" x="7" y="26" width="1" height="1"/><path class="aa75-3" d="M8,31V27H7v6H8Z"/><rect class="aa75-3" x="8" y="26" width="1" height="1"/><path class="aa75-2" d="M9,31V27H8v6H9Z"/><path class="aa75-2" d="M10,26V25H8v1Z"/><rect class="aa75-4" x="10" y="30" width="1" height="1"/><path class="aa75-4" d="M17,31V30h1V29h1v1h1V26H19V25H18v1H17v1H16v1H13V27H12V26H11V25H10v1H9v4h1V29h1v1h1v3h1V29h2v1h1v2H15v1h2Z"/><rect class="aa75-4" x="18" y="30" width="1" height="1"/><rect class="aa75-4" x="18" y="32" width="1" height="1"/><rect class="aa75-4" x="10" y="32" width="1" height="1"/><path class="aa75-4" d="M14,31v1h1V30H14Z"/><path class="aa75-2" d="M11,26h1V24H10v1h1Z"/><path class="aa75-2" d="M13,23h3v1h1V21H16v1H13V21H12v3h1Z"/><rect class="aa75-2" x="12" y="26" width="1" height="1"/><path class="aa75-2" d="M14,27H13v1h3V27Z"/><path class="aa75-3" d="M12,26h1v1h3V26h1V24H16V23H13v1H12Z"/><rect class="aa75-2" x="16" y="26" width="1" height="1"/><path class="aa75-2" d="M17,26h1V25h1V24H17Z"/><rect class="aa75-3" x="20" y="26" width="1" height="1"/><path class="aa75-2" d="M22,30V23H21v2H19v1h2v1H20v6h1V32h2V31H22Z"/><path class="aa75-2" d="M23,25v6h1V24H23Z"/><path class="aa75-5" d="M20,31V30H19v1H18V30H17v3h1V32h1v1h1Z"/><rect class="aa75-5" x="18" y="29" width="1" height="1"/><path class="aa75-5" d="M15,32h1V30H15Z"/><path class="aa75-5" d="M14,32V30h1V29H13v4h2V32Z"/><path class="aa75-5" d="M12,31V30H11v1H10V30H9v3h1V32h1v1h1Z"/><rect class="aa75-5" x="10" y="29" width="1" height="1"/><polygon class="aa75-2" points="20 16 21 16 21 15 20 15 20 16"/><path class="aa75-3" d="M12,18h5v1h2V16h1V15H18v1H16V15H15V14H14v1H13v1H11V15H9v1h1v3h2Zm2-1V16h1v1Z"/><polygon class="aa75-3" points="16 20 15 20 15 21 16 21 16 20"/><polygon class="aa75-3" points="12 19 12 20 12 20 12 20 13 20 13 19 12 19"/><rect class="aa75-3" x="16" y="19" width="1" height="1"/><rect class="aa75-3" x="13" y="20" width="1" height="1"/><path class="aa75-3" d="M19,13V12H18V11H13V10H12v1H11v1H10v1h1V12h2v1h3V12h2v1Z"/><rect class="aa75-3" x="11" y="13" height="1"/><path class="aa75-2" d="M19,17v2h1V16H19Z"/><polygon class="aa75-2" points="18 20 18 20 19 20 19 19 18 19 18 20"/><polygon class="aa75-2" points="17 21 17 21 18 21 18 20 17 20 17 21"/><rect class="aa75-2" x="12" y="10" width="1"/><rect class="aa75-2" x="11" y="20" width="1" height="1"/><rect class="aa75-2" x="10" y="19" width="1" height="1"/><path class="aa75-2" d="M10,17V16H9v3h1Z"/><rect class="aa75-2" x="8" y="15" width="1" height="1"/><polygon class="aa75-2" points="15 17 15 16 14 16 14 17 15 17 15 17"/><rect class="aa75-6" x="18" y="13" width="1" height="1"/><path class="aa75-6" d="M16,12v1h2V12Z"/><rect class="aa75-6" x="10" y="13" width="1" height="1"/><path class="aa75-6" d="M11,12v1h2V12Z"/><polygon class="aa75-7" points="18 19 17 19 17 20 18 20 18 19"/><polygon class="aa75-7" points="17 20 16 20 16 21 17 21 17 20"/><path class="aa75-7" d="M15,20H14v1H13v1h3V21H15Z"/><path class="aa75-7" d="M14,19h3V18H13v1Z"/><polygon class="aa75-7" points="13 21 13 20 12 20 12 21 13 21 13 21"/><polygon class="aa75-7" points="12 20 12 19 11 19 11 20 12 20 12 20"/><path class="aa75-2" d="M15,20h1V19H13v1Z"/><rect class="aa75-2" x="12" y="18" width="1" height="1"/><path class="aa75-8" d="M10,13V12h1V11h1V10h1v1h5v1h1v2h1V11H19V10h1V9H19V8H17V9H16V8H13V9H12V8H11V9H10v1H9v4h1Z"/><rect class="aa75-8" x="16" y="7" width="1" height="1"/><path class="aa75-2" d="M11,15v1h2V15h1V14h1v1h1v1h2V15h2V14H18V13H11v1H9v1Z"/><rect class="aa75-9" x="21" y="21" width="1" height="1"/><path class="aa75-10" d="M25,20V19H24V18H23v2H22V19H21v2h1v1h2V21h1v1H24v1h2V22h1V20Z"/><path class="aa75-3" d="M23,23H22v8h1V24h1V23Z"/><path class="aa75-9" d="M24,23V22H22v1Z"/><rect class="aa75-2" x="24" y="23" width="1" height="1"/><rect class="aa75-9" x="24" y="21" width="1" height="1"/><rect class="aa75-2" x="24" y="18" width="1" height="1"/><path class="aa75-11" d="M25,19v1h2V19Z"/><path class="aa75-10" d="M25,17H24v1h1v1h1V18h1V17Z"/><rect class="aa75-2" x="26" y="18" width="1" height="1"/></svg>