<svg xmlns="http://www.w3.org/2000/svg" viewBox="0 0 29 33"><defs><style>polygon,rect,path{shape-rendering:crispedges;}.bb288-1{fill:#db5a8e;}.bb288-2{fill:#000000;}.bb288-3{fill:#685432;}.bb288-4{fill:#ffffff;}.bb288-5{fill:#e8b795;}.bb288-6{fill:#326b43;}.bb288-7{fill:#fad000;}.bb288-8{fill:#326b43;}.bb288-9{fill:#c8a715;}.bb288-10{fill:#34e0cb;}</style></defs><rect class="bb288-1" x="11" y="22" width="1" height="1"/><rect class="bb288-1" x="17" y="22" width="1" height="1"/><path class="bb288-1" d="M0,33H6V27H7V26H8V25h2V20H9V16H8V15H9V11h1V10h1V9h2V7h1V6h2V5h2V6H17V7h1V9h1v2h1v4h1v1H20v4H19v5h2v1h1v1h1v6h6V0H0Z"/><path class="bb288-2" d="M23,27H22v6h1V27Z"/><path class="bb288-3" d="M22,27H21v6h1V27Z"/><rect class="bb288-2" x="21" y="26" width="1" height="1"/><path class="bb288-2" d="M21,27H20v6h1V27Z"/><path class="bb288-3" d="M20,27h1V26H18v3H17v4h3V27Z"/><path class="bb288-2" d="M17,29H16V28H15v2h1v3h1V29Z"/><rect class="bb288-4" x="12" y="28" width="1" height="1"/><rect class="bb288-4" x="15" y="25" width="1" height="1"/><path class="bb288-4" d="M16,30H15v1H14V30H13v3h1V32h1v1h1V30Z"/><rect class="bb288-4" x="13" y="25" width="1" height="1"/><rect class="bb288-4" x="16" y="28" width="1" height="1"/><rect class="bb288-4" x="15" y="23" width="1" height="1"/><rect class="bb288-2" x="14" y="32" width="1" height="1"/><polygon class="bb288-2" points="13 24 13 25 14 25 14 26 15 26 15 25 16 25 16 24 15 24 15 23 14 23 14 24 13 24"/><rect class="bb288-4" x="13" y="23" width="1" height="1"/><path class="bb288-2" d="M13,30h1V28H13v1H12v4h1V30Z"/><path class="bb288-3" d="M12,29H11V26H8v1H9v6h3V29Z"/><path class="bb288-2" d="M11,26V24H10v1H8v1h3Z"/><path class="bb288-2" d="M9,27H8v6H9V27Z"/><path class="bb288-3" d="M8,27H7v6H8V27Z"/><rect class="bb288-2" x="7" y="26" width="1" height="1"/><path class="bb288-2" d="M7,27H6v6H7V27Z"/><rect class="bb288-2" x="20" y="15" width="1" height="1"/><path class="bb288-2" d="M19,13v2h1V11H19v2Z"/><polygon class="bb288-5" points="13 21 14 21 14 22 15 22 15 21 16 21 16 20 13 20 13 21"/><path class="bb288-5" d="M18,14h1V13H17v1Z"/><path class="bb288-5" d="M10,17v1h1v1h1V18h2v1h1V18h2v1h1V18h1V16h1V15H16V13h1V12h2V11H18V10H15v1H13V10H11v1H10v2h1V12h2v1H11v1h2v1H9v1h1Zm4-1h1v1H14Z"/><path class="bb288-2" d="M19,17h1V16H19Z"/><path class="bb288-2" d="M18,11h1V10H18Z"/><path class="bb288-2" d="M13,9H11v1h2Z"/><path class="bb288-2" d="M16,10h2V9H16Z"/><rect class="bb288-2" x="10" y="10" width="1" height="1"/><path class="bb288-2" d="M10,14V11H9v4h1Z"/><path class="bb288-2" d="M10,16H9v1h1Z"/><rect class="bb288-2" x="8" y="15" width="1" height="1"/><rect class="bb288-2" x="14" y="16" width="1" height="1"/><path class="bb288-4" d="M13,15V14H12v1Z"/><path class="bb288-4" d="M10,15h1V14H10Z"/><path class="bb288-4" d="M18,14v1h1V14Z"/><path class="bb288-4" d="M16,14v1h1V14Z"/><path class="bb288-2" d="M12,15V14H11v1Z"/><path class="bb288-2" d="M17,14v1h1V14Z"/><path class="bb288-6" d="M11,14V13H10v1Z"/><rect class="bb288-6" x="11" y="12" width="2" height="1"/><path class="bb288-6" d="M17,13H16v1h1Z"/><path class="bb288-6" d="M19,12H17v1h2Z"/><rect class="bb288-2" x="14" y="30" width="1" height="1"/><path class="bb288-2" d="M12,27V26H11v3h1V28h1V27Z"/><path class="bb288-2" d="M17,27H16v1h1v1h1V26H17Z"/><rect class="bb288-2" x="13" y="26" width="1" height="1"/><rect class="bb288-2" x="15" y="26" width="1" height="1"/><rect class="bb288-2" x="16" y="25" width="1" height="1"/><rect class="bb288-2" x="12" y="25" width="1" height="1"/><rect class="bb288-7" x="16" y="26" width="1" height="1"/><path class="bb288-7" d="M15,27V26H14v1H13v1h1v2h1V28h1V27Z"/><rect class="bb288-7" x="12" y="26" width="1" height="1"/><path class="bb288-7" d="M12,25V24H11v2h1Z"/><path class="bb288-7" d="M18,24H17v2h1V24Z"/><path class="bb288-2" d="M18,25v1h3V25H19V24H18Z"/><rect class="bb288-2" x="17" y="23" width="1" height="1"/><rect class="bb288-2" x="11" y="23" width="1" height="1"/><path class="bb288-8" d="M12,22v1h5V22h2V20h1V17H19v1H18v1H17V18H15v1h1v2H15v1H14V21H13V19H11V18H10V17H9v3h1v2h2Z"/><path class="bb288-8" d="M14,18H13v1h1Z"/><path class="bb288-9" d="M18,23h1V22H18Z"/><path class="bb288-8" d="M18,24h1V23H18Z"/><path class="bb288-9" d="M17,24V23H16v1Z"/><path class="bb288-8" d="M16,25h1V24H16Z"/><path class="bb288-9" d="M13,24V23H12v1Z"/><rect class="bb288-8" x="12" y="24" width="1" height="1"/><path class="bb288-9" d="M11,22H10v1h1Z"/><path class="bb288-8" d="M11,23H10v1h1Z"/><path class="bb288-2" d="M13,19v1h3V19H13Z"/><path class="bb288-2" d="M12,18v1h1V18Z"/><path class="bb288-10" d="M13,11h2V10h1V9h2V7H17V6h1V5H16V6H14V7H13v4Z"/><path class="bb288-10" d="M19,10V9H18v1Z"/><rect class="bb288-10" x="18" y="9" width="1" height="1"></rect></svg>