<svg xmlns="http://www.w3.org/2000/svg" viewBox="0 0 29 33"><defs><style>polygon,rect,path{shape-rendering:crispedges;}.bb128-1{fill:#d4a122;}.bb128-2{fill:#000000;}.bb128-3{fill:#333333;}.bb128-4{fill:#ffffff;}.bb128-5{fill:#e8b795;}.bb128-6{fill:#685432;}.bb128-7{fill:#cc3232;}.bb128-8{fill:#009b97;}.bb128-9{fill:#6d5800;}.bb128-10{fill:#fad000;}.bb128-11{fill:#ea1500;}</style></defs><path class="bb128-1" d="M0,33H6V27H7V26H8V25h2V24h1V23h1V21H10V20H9V16H8V15H9V11h1V10h1V9h2V7h1V6h2V5h2V6H17V7h1V9h1v2h1v4h1v1H20v4H19v1H17v2h1v1h1v1h2V23h1V22H21V19h1v1h1V18h1V17h3v5H26v1H25v1H24v7H23v1H21v1h8V0H0Z"/><path class="bb128-2" d="M7,27H6v6H7V27Z"/><rect class="bb128-2" x="7" y="26" width="1" height="1"/><path class="bb128-3" d="M8,27H7v6H8V27Z"/><path class="bb128-2" d="M9,27H8v6H9V27Z"/><path class="bb128-2" d="M10,25H8v1h2Z"/><path class="bb128-3" d="M12,29H11V25H10v1H8v1H9v6h3V29Z"/><path class="bb128-2" d="M11,26v3h1V26h1V25H12V24h1V23h1v1H13v1h3V24H15V23h1v1h1v1H16v1h1v3h1V25h1V24H18V23H17V21H16v1H13V21H12v2H11v1H10v1h1Z"/><rect class="bb128-4" x="12" y="24" width="1" height="1"/><path class="bb128-2" d="M13,29H12v4h1V29Z"/><rect class="bb128-4" x="13" y="23" width="1" height="1"/><path class="bb128-4" d="M16,29h1V26H16V25H13v1H12v3h1v4h1V32h1v1h1V29Zm-1,2H14V30h1Zm0-2H14V28h1Zm0-2H14V26h1Z"/><rect class="bb128-2" x="14" y="26" width="1" height="1"/><rect class="bb128-2" x="14" y="28" width="1" height="1"/><rect class="bb128-2" x="14" y="30" width="1" height="1"/><rect class="bb128-2" x="14" y="32" width="1" height="1"/><rect class="bb128-4" x="15" y="23" width="1" height="1"/><rect class="bb128-4" x="16" y="24" width="1" height="1"/><path class="bb128-2" d="M17,29H16v4h1V29Z"/><path class="bb128-3" d="M20,27h1V26H19V25H18v4H17v4h3V27Z"/><path class="bb128-2" d="M22,32h1V31H22V23H21v2H19v1h2v1H20v6h1V32Z"/><path class="bb128-4" d="M23,24H22v1h1Z"/><path class="bb128-3" d="M23,25H22v6h1V25Z"/><path class="bb128-2" d="M23,25v6h1V24H23Z"/><rect class="bb128-2" x="20" y="15" width="1" height="1"/><path class="bb128-2" d="M19,13v2h1V11H19v2Z"/><path class="bb128-5" d="M13,22h3V21h1V20h1V18h1V16h1V15H16V13h1V12h2V11H18V10H15v1H13V10H11v1H10v2h1V12h2v1H11v1h2v1H9v1h1v2h1v2h1v1h1Zm1-6h1v1H14Zm-2,3V18h5v1H16v1H13V19Z"/><path class="bb128-5" d="M18,14h1V13H17v1Z"/><path class="bb128-2" d="M19,17h1V16H19Z"/><path class="bb128-2" d="M18,11h1V10H18Z"/><path class="bb128-2" d="M16,10h2V9H16Z"/><path class="bb128-2" d="M13,9H11v1h2Z"/><rect class="bb128-2" x="10" y="10" width="1" height="1"/><path class="bb128-2" d="M10,14V11H9v4h1Z"/><path class="bb128-2" d="M10,16H9v1h1Z"/><rect class="bb128-2" x="8" y="15" width="1" height="1"/><rect class="bb128-2" x="14" y="16" width="1" height="1"/><path class="bb128-4" d="M13,15V14H12v1Z"/><path class="bb128-4" d="M10,15h1V14H10Z"/><path class="bb128-4" d="M18,14v1h1V14Z"/><path class="bb128-4" d="M16,14v1h1V14Z"/><path class="bb128-2" d="M12,15V14H11v1Z"/><path class="bb128-2" d="M17,14v1h1V14Z"/><path class="bb128-6" d="M11,14V13H10v1Z"/><rect class="bb128-6" x="11" y="12" width="2" height="1"/><path class="bb128-6" d="M17,13H16v1h1Z"/><path class="bb128-6" d="M19,12H17v1h2Z"/><path class="bb128-7" d="M19,18H18v2H17v1h2V20h1V17H19Z"/><path class="bb128-7" d="M11,20V18H10V17H9v3h1v1h2V20Z"/><polygon class="bb128-2" points="13 20 16 20 16 19 17 19 17 18 12 18 12 19 13 19 13 20"/><path class="bb128-8" d="M13,11h2V10h1V9h2V7H17V6h1V5H16V6H14V7H13v4Z"/><path class="bb128-8" d="M19,10V9H18v1Z"/><path class="bb128-9" d="M21,21v1h1V21Z"/><path class="bb128-10" d="M24,21h1v1H24v1h2V22h1V20H25V19H24V18H23v2H22V19H21v2h1v1h2Z"/><path class="bb128-5" d="M23,24h1V23H22v1Z"/><path class="bb128-9" d="M24,22H22v1h2Z"/><path class="bb128-2" d="M24,24h1V23H24Z"/><rect class="bb128-9" x="24" y="21" width="1" height="1"/><rect class="bb128-2" x="24" y="18" width="1" height="1"/><path class="bb128-11" d="M25,19v1h2V19H25Z"/><path class="bb128-10" d="M25,19h1V18h1V17H24v1h1Z"/><path class="bb128-2" d="M26,19h1V18H26Z"/><rect class="bb128-8" x="18" y="9" width="1" height="1"></rect></svg>