<svg xmlns="http://www.w3.org/2000/svg" viewBox="0 0 29 33"><defs><style>polygon,rect,path{shape-rendering:crispedges;}.oa293-1{fill:#b4bd09;}.oa293-2{fill:#000000;}.oa293-3{fill:#cc3232;}.oa293-4{fill:#ffffff;}.oa293-5{fill:#e8b795;}.oa293-6{fill:#ff6c77;}.oa293-7{fill:#ffffff;}.oa293-8{fill:#6f7032;}.oa293-9{fill:#fad000;}.oa293-10{fill:#db5800;}</style></defs><path class="oa293-1" d="M0,33H6V24H7V23H8v1H9v1h1V23h1V22h1V21H10v1H9V21H8V20H9V17H8V12H9V10h1V9h1V8h7V9h1v1h1v2h1v6H20v2h1v1H20v1H19V21H17v1h1v1h1v2h2v1h1v1h1v6h6V0H0Z"/><path class="oa293-2" d="M23,27H22v6h1V27Z"/><path class="oa293-3" d="M21,28h1V27H21Z"/><path class="oa293-3" d="M21,31v1h1V30H21Z"/><rect class="oa293-2" x="21" y="26" width="1" height="1"/><path class="oa293-2" d="M21,31V27H20v6h1V31Z"/><path class="oa293-3" d="M18,26v2h1v1h1V27H19V25H18Z"/><path class="oa293-3" d="M19,31V30H18v2h1v1h1V31Z"/><path class="oa293-2" d="M20,26h1V25H19v1Z"/><path class="oa293-2" d="M18,31V25H17v1H16v1h1v6h1V31Z"/><path class="oa293-4" d="M17,27H16v2H15v1H14V29H13V27H12v6h5V27Z"/><path class="oa293-5" d="M14,24h1v1h1V23H13v2h1Z"/><path class="oa293-2" d="M12,27h1V26H12V25H11v8h1V27Z"/><path class="oa293-3" d="M9,27v1h1v1h1V27H9Z"/><path class="oa293-3" d="M10,31V30H9v2h1v1h1V31Z"/><path class="oa293-2" d="M9,31V27H8v6H9V31Z"/><path class="oa293-3" d="M7,31v2H8V31Z"/><path class="oa293-3" d="M7,28v1H8V27H7Z"/><path class="oa293-2" d="M7,30V24H6v9H7V30Z"/><path class="oa293-6" d="M19,28H18v2h1v1h1V29H19Z"/><path class="oa293-6" d="M21,32v1h1V32Z"/><path class="oa293-6" d="M21,29v1h1V28H21Z"/><path class="oa293-6" d="M18,32v1h1V32Z"/><path class="oa293-6" d="M11,27V25H10v2Z"/><path class="oa293-6" d="M10,28H9v2h1v1h1V29H10Z"/><path class="oa293-6" d="M9,32v1h1V32Z"/><path class="oa293-6" d="M7,30v1H8V29H7Z"/><path class="oa293-6" d="M19,26v1h2V26H19Z"/><path class="oa293-5" d="M13,22h3V21h1V20h1V19h1V16h1V15H16V14h2V13H16V12h1V11H16V10H15v1H14v1H13v3H10v4h1v1h1v1h1Zm1-6h1v1H14Zm-1,3h3V18h1v1H16v1H13Z"/><path class="oa293-2" d="M19,16v3h1V16Z"/><rect class="oa293-2" x="18" y="19" width="1" height="1"/><path class="oa293-2" d="M17,20v1h1V20Z"/><path class="oa293-2" d="M11,20v1h1V20Z"/><rect class="oa293-2" x="10" y="19" width="1" height="1"/><path class="oa293-2" d="M10,18H9v1h1Z"/><rect class="oa293-2" x="14" y="16" width="1" height="1"/><path class="oa293-7" d="M18,14v1h1V14Z"/><path class="oa293-7" d="M12,15h1V14H12Z"/><path class="oa293-2" d="M17,14H16v1h2V14Z"/><path class="oa293-2" d="M11,14H10v1h2V14Z"/><rect class="oa293-8" x="18" y="13" width="1" height="1"/><polygon class="oa293-8" points="17 12 16 12 16 13 18 13 18 12 17 12"/><path class="oa293-8" d="M12,14h1V13H12Z"/><rect class="oa293-2" x="14" y="29" width="1" height="1"/><path class="oa293-2" d="M15,28v1h1V27H15Z"/><path class="oa293-2" d="M13,27v2h1V27Z"/><rect class="oa293-2" x="14" y="24" width="1" height="1"/><rect class="oa293-2" x="13" y="25" width="1" height="1"/><rect class="oa293-2" x="15" y="25" width="1" height="1"/><path class="oa293-2" d="M12,24v1h1V23h3v2h1V23h1V22H17V21H16v1H13V21H12v1H11v1h1Z"/><rect class="oa293-9" x="16" y="25" width="1" height="1"/><path class="oa293-9" d="M15,25H14v1H13v1h1v2h1V27h1V26H15Z"/><rect class="oa293-9" x="12" y="25" width="1" height="1"/><path class="oa293-9" d="M11,25h1V23H11v2Z"/><path class="oa293-9" d="M17,24v1h1V23H17Z"/><path class="oa293-2" d="M19,25V23H18v2Z"/><path class="oa293-2" d="M11,24V23H10v2h1Z"/><rect class="oa293-2" x="13" y="19" width="3" height="1"/><rect class="oa293-2" x="16" y="18" width="1" height="1"/><path class="oa293-5" d="M7,27H9V25H8V24H7v3Z"/><path class="oa293-2" d="M10,27V25H9v2Z"/><rect class="oa293-2" x="8" y="24" width="1" height="1"/><rect class="oa293-2" x="7" y="23" width="1" height="1"/><path class="oa293-10" d="M19,20H18v1h1v1h1V21h1V20H20V19H19Z"/><path class="oa293-10" d="M10,20V19H9v1H8v1H9v1h1V21h1V20Z"/><path class="oa293-10" d="M10,17V14h2V13h1V12h1V11h1V10h1v1h1v1h1v1h1v2h1v3h1V12H20V10H19V9H18V8H11V9H10v1H9v2H8v5H9v1h1Z"/></svg>