<svg xmlns="http://www.w3.org/2000/svg" viewBox="0 0 29 33"><defs><style>polygon,rect,path{shape-rendering:crispedges;}.ba288-1{fill:#29834f;}.ba288-2{fill:#000000;}.ba288-3{fill:#ce8452;}.ba288-4{fill:#00e070;}.ba288-5{fill:#00e070;}.ba288-6{fill:#663228;}.ba288-7{fill:#fad000;}.ba288-8{fill:#663228;}.ba288-9{fill:#c8a715;}.ba288-10{fill:#004a77;}</style></defs><path class="ba288-1" d="M0,33H6V27H7V26H8V25h2V20H9V16H8V15H9V11h1V10h1V9h2V7h1V6h2V5h2V6H17V7h1v3h1v1h1v4h1v1H20v4H19v5h2v1h1v1h1v6h6V0H0Z"/><path class="ba288-2" d="M23,27H22v6h1V27Z"/><rect class="ba288-2" x="21" y="26" width="1" height="1"/><path class="ba288-3" d="M22,27H21v6h1V27Z"/><rect class="ba288-3" x="20" y="26" width="1" height="1"/><path class="ba288-2" d="M21,27H20v6h1V27Z"/><path class="ba288-2" d="M20,26h1V25H19v1Z"/><path class="ba288-4" d="M13,29V27H12V26H11V25H10v1H9v4h1V29h1v1h1v3h1V29Z"/><path class="ba288-4" d="M17,30h1V29h1v1h1V26H19V25H18v1H17v1H16v2H15v1h1v2H15v1h2V30Z"/><path class="ba288-4" d="M14,31v1h1V30H14Z"/><rect class="ba288-4" x="18" y="32" width="1" height="1"/><rect class="ba288-4" x="18" y="30" width="1" height="1"/><rect class="ba288-4" x="10" y="30" width="1" height="1"/><rect class="ba288-4" x="10" y="32" width="1" height="1"/><path class="ba288-3" d="M13,25h1V24h1v1h1V23H13v2Z"/><path class="ba288-2" d="M10,26V25H8v1h2Z"/><path class="ba288-3" d="M9,27V26H8v1Z"/><path class="ba288-2" d="M9,30V27H8v6H9V30Z"/><rect class="ba288-2" x="7" y="26" width="1" height="1"/><path class="ba288-3" d="M8,27H7v6H8V27Z"/><path class="ba288-2" d="M7,27H6v6H7V27Z"/><path class="ba288-5" d="M20,30H19v1H18V30H17v3h1V32h1v1h1V30Z"/><rect class="ba288-5" x="18" y="29" width="1" height="1"/><path class="ba288-5" d="M16,32V30H15v2Z"/><path class="ba288-5" d="M14,32V29H13v4h2V32Z"/><path class="ba288-5" d="M12,30H11v1H10V30H9v3h1V32h1v1h1V30Z"/><rect class="ba288-5" x="10" y="29" width="1" height="1"/><rect class="ba288-2" x="20" y="15" width="1" height="1"/><path class="ba288-3" d="M13,12v1H10v1h6V13h3V11H18V10H15v1H13V10H11v1H10v1Z"/><rect class="ba288-3" x="19" y="15" width="1" height="1"/><rect class="ba288-3" x="9" y="15" width="1" height="1"/><path class="ba288-3" d="M18,16v1H16V16H15v1H14V16H13v1H11V16H10v2h1v1h1V18h2v1h1V18h2v1h1V18h1V16Z"/><polygon class="ba288-3" points="13 21 14 21 14 22 15 22 15 21 16 21 16 20 13 20 13 21"/><rect class="ba288-3" x="14" y="15" width="1" height="1"/><path class="ba288-2" d="M19,17h1V16H19Z"/><rect class="ba288-2" x="18" y="10" width="1" height="1"/><path class="ba288-2" d="M13,9H11v1h2Z"/><path class="ba288-2" d="M16,10h2V9H16Z"/><rect class="ba288-2" x="10" y="10" width="1" height="1"/><path class="ba288-2" d="M10,16H9v1h1Z"/><rect class="ba288-2" x="8" y="15" width="1" height="1"/><rect class="ba288-2" x="14" y="16" width="1" height="1"/><rect class="ba288-6" x="10" y="12" width="3" height="1"/><path class="ba288-6" d="M16,14h3V13H16Z"/><path class="ba288-2" d="M14,30h1V29H14Z"/><rect class="ba288-2" x="12" y="26" width="1" height="1"/><path class="ba288-2" d="M15,28v1h1V27H15Z"/><rect class="ba288-2" x="16" y="26" width="1" height="1"/><path class="ba288-2" d="M13,27v2h1V27Z"/><rect class="ba288-2" x="17" y="25" width="1" height="1"/><rect class="ba288-2" x="11" y="25" width="1" height="1"/><rect class="ba288-2" x="14" y="24" width="1" height="1"/><rect class="ba288-2" x="13" y="25" width="1" height="1"/><rect class="ba288-2" x="15" y="25" width="1" height="1"/><rect class="ba288-7" x="16" y="25" width="1" height="1"/><path class="ba288-7" d="M15,26V25H14v1H13v1h1v2h1V27h1V26Z"/><rect class="ba288-7" x="12" y="25" width="1" height="1"/><path class="ba288-7" d="M12,24V23H11v2h1Z"/><path class="ba288-7" d="M18,23H17v2h1V23Z"/><path class="ba288-2" d="M18,25h1V24H18Z"/><path class="ba288-2" d="M11,24H10v1h1Z"/><rect class="ba288-2" x="17" y="22" width="1" height="1"/><rect class="ba288-2" x="11" y="22" width="1" height="1"/><path class="ba288-8" d="M12,22v1h5V22h2V20h1V17H19v1H18v1H17V18H15v1h1v2H15v1H14V21H13V19H11V18H10V17H9v3h1v2h2Z"/><path class="ba288-8" d="M14,18H13v1h1Z"/><path class="ba288-9" d="M18,23h1V22H18Z"/><path class="ba288-8" d="M18,24h1V23H18Z"/><path class="ba288-9" d="M17,24V23H16v1Z"/><path class="ba288-8" d="M16,25h1V24H16Z"/><path class="ba288-9" d="M13,24V23H12v1Z"/><path class="ba288-8" d="M12,24v1h1V24Z"/><path class="ba288-9" d="M11,22H10v1h1Z"/><path class="ba288-8" d="M11,23H10v1h1Z"/><path class="ba288-2" d="M13,19v1h3V19H13Z"/><path class="ba288-2" d="M12,18v1h1V18Z"/><path class="ba288-10" d="M13,11h2V10h1V9h2V7H17V6h1V5H16V6H14V7H13v4Z"/><path class="ba288-2" d="M10,16h1v1h2V16h1V15h1v1h1v1h2V16h1V15h1V11H19v3H10V11H9v4h1Z"/><rect class="ba288-10" x="18" y="9" width="1" height="1"></rect></svg>