<svg xmlns="http://www.w3.org/2000/svg" viewBox="0 0 29 33"><defs><style>polygon,rect,path{shape-rendering:crispedges;}.ab299-1{fill:#d4a122;}.ab299-2{fill:#000000;}.ab299-3{fill:#a7af69;}.ab299-4{fill:#c18d59;}.ab299-5{fill:#e55b35;}.ab299-6{fill:#ffffff;}.ab299-7{fill:#8e703c;}.ab299-8{fill:#e70059;}.ab299-9{fill:#ff1f4a;}</style></defs><path class="ab299-1" d="M0,33H6V27H7V26H8V25h2V24h1V23h1V22H11V21H10v1H9V21H8V20H7V19H8V12H9V10h1V9h1V8h7V9h1v1h1v2h1v7h1v1H21v1H20v1H19V21H18v1H17v1h1v1h1v1h1V24h1V23h1v1h1v9h6V0H0Z"/><path class="ab299-2" d="M7,30V27H6v6H7V30Z"/><path class="ab299-3" d="M7,31v2H8V31Z"/><path class="ab299-3" d="M7,30H8V27H7v3Z"/><rect class="ab299-2" x="7" y="26" width="1" height="1"/><path class="ab299-2" d="M9,31V27H8v6H9V31Z"/><path class="ab299-3" d="M20,32V27H19V25H18v1H17v1H16V25H15v2H14V25H13v2H12V26H11V25H10v1H9v6h1v1h4V32h1v1h4V32Zm-9-3H10V28h1Zm2,2H12V30h1Zm2,0H14V30h1Zm0-2H14V28h1Zm2,2H16V30h1Zm1-2V28h1v1Z"/><path class="ab299-2" d="M10,26V25H8v1h2Z"/><rect class="ab299-3" x="12" y="24" width="1" height="1"/><path class="ab299-2" d="M11,26h2V25H12V24h1V23h3v1h1v1H16v1h2V25h1V24H18V23H17V21H16v1H13V21H12v2H11v1H10v1h1Z"/><rect class="ab299-2" x="13" y="24" width="1" height="1"/><rect class="ab299-2" x="14" y="32" width="1" height="1"/><rect class="ab299-2" x="14" y="30" width="1" height="1"/><rect class="ab299-2" x="14" y="28" width="1" height="1"/><path class="ab299-2" d="M14,26v1h1V25H14Z"/><rect class="ab299-2" x="15" y="24" width="1" height="1"/><path class="ab299-4" d="M16,24V23H13v1h1v1h1V24Z"/><rect class="ab299-3" x="16" y="24" width="1" height="1"/><path class="ab299-2" d="M21,31V27H20v6h1V31Z"/><path class="ab299-3" d="M21,29v2h1V28H21Z"/><path class="ab299-3" d="M21,32v1h1V32Z"/><path class="ab299-2" d="M23,24H22v9h1V24Z"/><rect class="ab299-5" x="10" y="28" width="1" height="1"/><rect class="ab299-5" x="12" y="30" width="1" height="1"/><path class="ab299-5" d="M12,27h1V26H12Z"/><rect class="ab299-5" x="16" y="30" width="1" height="1"/><rect class="ab299-5" x="18" y="28" width="1" height="1"/><path class="ab299-5" d="M21,28h1V27H21Z"/><path class="ab299-5" d="M16,27h1V26H16Z"/><path class="ab299-5" d="M9,27V26H8v1Z"/><path class="ab299-5" d="M19,32v1h1V32Z"/><path class="ab299-5" d="M9,32v1h1V32Z"/><path class="ab299-5" d="M7,31H8V30H7Z"/><path class="ab299-5" d="M21,32h1V31H21Z"/><path class="ab299-2" d="M20,16h1V15H20Z"/><rect class="ab299-2" x="19" y="14" width="1" height="1"/><path class="ab299-4" d="M18,20V19h1V16h1V15H16V14h2V13H16V12h1V11H16V10H13v1H12v2h1v2H9v1h1v3h1v1h1v1h1v1h3V21h1V20Zm-4-4h1v1H14Zm2,3v1H13V19H12V18h5v1Z"/><rect class="ab299-4" x="11" y="13" width="1" height="1"/><path class="ab299-2" d="M19,17v2h1V16H19Z"/><rect class="ab299-2" x="18" y="19" width="1" height="1"/><rect class="ab299-2" x="17" y="20" width="1" height="1"/><rect class="ab299-2" x="11" y="20" width="1" height="1"/><rect class="ab299-2" x="10" y="19" width="1" height="1"/><path class="ab299-2" d="M10,14H9v1h1Z"/><path class="ab299-2" d="M10,16H9v3h1V16Z"/><path class="ab299-2" d="M9,15H8v1H9Z"/><rect class="ab299-2" x="14" y="16" width="1" height="1"/><path class="ab299-6" d="M12,15h1V14H12Z"/><path class="ab299-6" d="M11,15V14H10v1Z"/><path class="ab299-6" d="M19,15V14H18v1Z"/><path class="ab299-6" d="M16,14v1h1V14Z"/><path class="ab299-2" d="M12,15V14H11v1Z"/><path class="ab299-2" d="M17,15h1V14H17Z"/><path class="ab299-7" d="M16,13h2V12H16Z"/><path class="ab299-7" d="M13,14V13H12v1Z"/><path class="ab299-7" d="M12,12H11v1h1Z"/><path class="ab299-2" d="M12,18v1h1V18Z"/><path class="ab299-2" d="M17,18H16v1h1Z"/><path class="ab299-2" d="M15,20h1V19H15Z"/><path class="ab299-2" d="M15,19V18H14v1Z"/><path class="ab299-2" d="M13,19v1h1V19Z"/><path class="ab299-6" d="M14,18H13v1h1Z"/><path class="ab299-6" d="M15,18v1h1V18Z"/><path class="ab299-8" d="M14,19v1h1V19Z"/><path class="ab299-4" d="M21,27h1V24H21v1H20v2Z"/><path class="ab299-2" d="M20,27V25H19v2Z"/><rect class="ab299-2" x="20" y="24" width="1" height="1"/><rect class="ab299-2" x="21" y="23" width="1" height="1"/><path class="ab299-9" d="M20,17v2H19v1H18v1h1v1h1V21h1V20h1V19H21V16H20Z"/><path class="ab299-9" d="M9,14h2V12h1V11h1V10h3v1h1v1h1v2h2v1h1V12H20V10H19V9H18V8H11V9H10v1H9v2H8v3H9Z"/><path class="ab299-9" d="M10,20V19H9V16H8v3H7v1H8v1H9v1h1V21h1V20Z"/><path class="ab299-9" d="M11,21v1h1V21Z"/><path class="ab299-9" d="M17,22h1V21H17Z"/></svg>