<svg xmlns="http://www.w3.org/2000/svg" viewBox="0 0 29 33"><defs><style>polygon,rect,path{shape-rendering:crispedges;}.ib289-1{fill:#000000;}.ib289-2{fill:#6d3e35;}.ib289-3{fill:#ffffff;}.ib289-4{fill:#000000;}.ib289-5{fill:#6e12ff;}.ib289-6{fill:#adb48a;}.ib289-7{fill:#d2d8b8;}.ib289-8{fill:#397d98;}</style></defs><path class="ib289-1" d="M23,27H22v6h1V27Z"/><path class="ib289-2" d="M22,27H21v6h1V27Z"/><rect class="ib289-1" x="21" y="26" width="1" height="1"/><path class="ib289-1" d="M21,27H20v6h1V27Z"/><path class="ib289-2" d="M20,27h1V26H19V25H17V24H16V23H13v1H12v1H10v1H8v1H9v6h5V29h1v4h5V27Zm-8,2H11V28h1Zm6,0H17V28h1Z"/><path class="ib289-1" d="M20,26h1V25H19v1Z"/><rect class="ib289-1" x="17" y="28" width="1" height="1"/><path class="ib289-1" d="M18,25h1V24H17v1Z"/><path class="ib289-1" d="M15,29H14v4h1V29Z"/><path class="ib289-1" d="M13,23V22H12v2h1Z"/><rect class="ib289-1" x="11" y="28" width="1" height="1"/><path class="ib289-1" d="M12,24H10v1h2Z"/><path class="ib289-1" d="M10,25H8v1h2Z"/><path class="ib289-1" d="M9,27H8v6H9V27Z"/><path class="ib289-2" d="M8,27H7v6H8V27Z"/><rect class="ib289-1" x="7" y="26" width="1" height="1"/><path class="ib289-1" d="M7,27H6v6H7V27Z"/><rect class="ib289-1" x="19" y="14" width="1" height="1"/><rect class="ib289-2" x="17" y="13" width="1" height="1"/><path class="ib289-2" d="M13,13H11v1h2Z"/><rect class="ib289-2" x="16" y="19" width="1" height="1"/><rect class="ib289-2" x="19" y="15" width="1" height="1"/><rect class="ib289-2" x="12" y="19" width="1" height="1"/><path class="ib289-2" d="M18,15H16v1H15v1H14V16h1V14h1V13H14v2H13v2H12V15H11v4h1V18h5v1h1V15Z"/><path class="ib289-2" d="M13,21h3V20H13Z"/><rect class="ib289-2" x="9" y="15" width="1" height="1"/><path class="ib289-1" d="M16,23v1h1V22H16Z"/><rect class="ib289-1" x="14" y="16" width="1" height="1"/><path class="ib289-3" d="M16,14v1h1V14Z"/><path class="ib289-1" d="M13,15V14H11v1h2Z"/><path class="ib289-1" d="M17,15h1V14H17Z"/><path class="ib289-4" d="M19,16v2h1V16Z"/><path class="ib289-4" d="M13,23h3V22h1V21h1V20h1V18H18v1H17v1H16v1H13V20H12V19H11V18H10v2h1v1h1v1h1Z"/><path class="ib289-4" d="M10,17V16H9v2h1Z"/><path class="ib289-1" d="M13,18H12v1h1Z"/><path class="ib289-1" d="M16,18v1h1V18Z"/><path class="ib289-1" d="M15,19V18H14v1H13v1h3V19Z"/><path class="ib289-3" d="M14,19V18H13v1Z"/><path class="ib289-3" d="M16,19V18H15v1Z"/><path class="ib289-5" d="M9,15h1v3h1V13H8v5H9V15Z"/><path class="ib289-5" d="M13,15h1V13H13v2Z"/><path class="ib289-5" d="M18,13v5h1V14h1v4h1V13H18Z"/><rect class="ib289-5" x="16" y="13" width="1" height="1"/><path class="ib289-5" d="M19,19v1h1V18H19Z"/><path class="ib289-5" d="M15,14v2h1V14Z"/><path class="ib289-5" d="M12,16v1h1V15H12Z"/><path class="ib289-5" d="M9,18v2h1V18Z"/><path class="ib289-6" d="M19,12v1h1V11H19Z"/><path class="ib289-7" d="M10,12v1h1V11h1v2h1V11h1v2h1V11h1v2h1V11h1v2h1V11h1V10H19V9H18V8H11V9H10v1H9v1h1Z"/><path class="ib289-6" d="M18,12V11H17v2h1Z"/><path class="ib289-6" d="M16,12V11H15v2h1Z"/><path class="ib289-6" d="M14,12V11H13v2h1Z"/><path class="ib289-6" d="M12,12V11H11v2h1Z"/><path class="ib289-6" d="M10,12V11H9v2h1Z"/><path class="ib289-8" d="M0,8V33H6V27H7V26H8V25h2V24h2V21H11V20H9V18H8V13H9V10h1V9h1V8h7V9h1v1h1v3h1v5H20v2H18v1H17v3h2v1h2v1h1v1h1v6h6V0H0Z"/></svg>