<svg xmlns="http://www.w3.org/2000/svg" viewBox="0 0 29 33"><defs><style>polygon,rect,path{shape-rendering:crispedges;}.ab135-1{fill:#d4a122;}.ab135-2{fill:#000000;}.ab135-3{fill:#9b8100;}.ab135-4{fill:#efcaaf;}.ab135-5{fill:#d8be00;}.ab135-6{fill:#ffffff;}.ab135-7{fill:#7f5018;}.ab135-8{fill:#00af68;}.ab135-9{fill:#d4c468;}</style></defs><rect class="ab135-1" x="7" y="22" width="1" height="1"/><path class="ab135-1" d="M6,28H5V26H6V25h4V24H9v1H8V24H7V23H6V22H5V21H6V20H5V19H6v1H8v2H9v1h1v1h1V23h1V21H11V20H9V19H8V11H9V10h1V9h1V8h7V9h1v1h1v1h1v8H20v1H18v1H17v2h1v1h1v1h2v1h1v1h1v6h6V0H0V33H6V28ZM4,20H3V19H4Zm0-3H5v1H4Z"/><path class="ab135-2" d="M23,27H22v6h1V27Z"/><path class="ab135-3" d="M21,28v2h1V27H21Z"/><path class="ab135-3" d="M22,31H21v2h1V31Z"/><rect class="ab135-2" x="21" y="26" width="1" height="1"/><path class="ab135-2" d="M21,31V27H20v6h1V31Z"/><path class="ab135-3" d="M20,32V26H19V25H18v1H17v1H16V25H15v2H14V25H13v2H12v2H11v1H9v2h1v1h4V32h1v1h4V32Zm-7-1H12V30h1Zm2,0H14V30h1Zm0-2H14V28h1Zm2,2H16V30h1Zm1-2V28h1v1Z"/><path class="ab135-2" d="M20,26h1V25H19v1Z"/><rect class="ab135-3" x="16" y="24" width="1" height="1"/><rect class="ab135-2" x="15" y="24" width="1" height="1"/><rect class="ab135-2" x="14" y="32" width="1" height="1"/><rect class="ab135-2" x="14" y="30" width="1" height="1"/><rect class="ab135-2" x="14" y="28" width="1" height="1"/><path class="ab135-2" d="M14,26v1h1V25H14Z"/><rect class="ab135-2" x="13" y="24" width="1" height="1"/><path class="ab135-4" d="M16,24V23H13v1h1v1h1V24Z"/><rect class="ab135-3" x="12" y="24" width="1" height="1"/><path class="ab135-2" d="M12,26h1V25H12Z"/><path class="ab135-2" d="M12,24h1V23h3v1h1v1H16v1h2V25h1V24H18V23H17V21H16v1H13V21H12v2H11v1H10v1h2Z"/><path class="ab135-2" d="M9,30H8v3H9V30Z"/><path class="ab135-3" d="M7,32v1H8V32Z"/><path class="ab135-3" d="M8,30V29H7v2H8Z"/><path class="ab135-2" d="M7,33V28H6v5H7Z"/><rect class="ab135-5" x="18" y="28" width="1" height="1"/><rect class="ab135-5" x="16" y="30" width="1" height="1"/><path class="ab135-5" d="M16,27h1V26H16Z"/><rect class="ab135-5" x="12" y="30" width="1" height="1"/><path class="ab135-5" d="M12,27h1V26H12Z"/><path class="ab135-5" d="M20,27h1V26H20Z"/><rect class="ab135-5" x="9" y="32" width="1" height="1"/><path class="ab135-5" d="M19,32v1h1V32Z"/><path class="ab135-5" d="M21,31h1V30H21Z"/><path class="ab135-5" d="M8,31H7v1H8Z"/><rect class="ab135-4" x="19" y="15" width="1" height="1"/><path class="ab135-4" d="M13,22h3V21h1V20h1V19h1V16H16V14h2V13H16V12h1V11H15V10H14v1H13v1H12v1h1v3H10v3h1v1h1v1h1Zm1-6h1v1H14Zm-1,3h3V18h1v1H16v1H13Z"/><rect class="ab135-4" x="11" y="13" width="1" height="1"/><rect class="ab135-4" x="9" y="15" width="1" height="1"/><path class="ab135-2" d="M20,16H19v3h1V16Z"/><path class="ab135-2" d="M18,19v1h1V19Z"/><rect class="ab135-2" x="17" y="20" width="1" height="1"/><rect class="ab135-2" x="11" y="20" width="1" height="1"/><path class="ab135-2" d="M10,19v1h1V19Z"/><path class="ab135-2" d="M10,18V16H9v3h1Z"/><rect class="ab135-2" x="14" y="16" width="1" height="1"/><path class="ab135-6" d="M10,14v2h1V14Z"/><path class="ab135-6" d="M12,15v1h1V14H12Z"/><path class="ab135-6" d="M16,14v2h1V14Z"/><path class="ab135-6" d="M19,14H18v2h1V14Z"/><path class="ab135-2" d="M12,14H11v2h1V14Z"/><path class="ab135-2" d="M17,14v2h1V14Z"/><rect class="ab135-7" x="18" y="13" width="1" height="1"/><path class="ab135-7" d="M16,12v1h1V12Z"/><path class="ab135-7" d="M13,14V13H12v1Z"/><rect class="ab135-2" x="13" y="19" width="3" height="1"/><rect class="ab135-2" x="16" y="18" width="1" height="1"/><path class="ab135-8" d="M9,16V15h1V14h1V13h1V12h1V11h1V10h1v1h2v2h2v2h1v4h1V11H20V10H19V9H18V8H11V9H10v1H9v1H8v8H9V16Z"/><path class="ab135-8" d="M9,19v1h1V19Z"/><path class="ab135-8" d="M19,20h1V19H19Z"/><path class="ab135-6" d="M8,30h3V29h1V25H7v1H8v2H7v1H8Z"/><rect class="ab135-9" x="3" y="19" width="1" height="1"/><rect class="ab135-9" x="4" y="17" width="1" height="1"/><rect class="ab135-9" x="5" y="19" width="1" height="1"/><path class="ab135-9" d="M8,22V20H6v1H5v1H6v1H7V22Z"/><polygon class="ab135-9" points="10 23 9 23 9 22 8 22 8 23 7 23 7 24 8 24 8 25 9 25 9 24 10 24 10 24 10 23"/><path class="ab135-4" d="M8,26H6v2H8Z"/><path class="ab135-2" d="M7,25H6v1H7Z"/><path class="ab135-2" d="M5,26v2H6V26Z"/></svg>