<svg xmlns="http://www.w3.org/2000/svg" viewBox="0 0 29 33"><defs><style>polygon,rect,path{shape-rendering:crispedges;}.ma81-1{fill:#d14646;}.ma81-2{fill:#000000;}.ma81-3{fill:#68aa7b;}.ma81-4{fill:#00686d;}.ma81-5{fill:#b2622b;}.ma81-6{fill:#4922aa;}.ma81-7{fill:#4922aa;}.ma81-8{fill:#4fdb7d;}.ma81-9{fill:#cbed03;}.ma81-10{fill:#00e070;}.ma81-11{fill:#ff1d99;}.ma81-12{fill:#9b005c;}</style></defs><path class="ma81-1" d="M0,33H6V27H7V26H8V25h2V24h2V21H11V20H10V19H9V16H8V14H9V10h1V9h1V8h7V9h1v2h1v3h1v2H20v3H19v1H18v1H17v3h2v1h2V24H20V23h1V22h1v1h1v1H22v1h1v8h6V0H0Z"/><path class="ma81-2" d="M7,27H6v6H7V27Z"/><path class="ma81-3" d="M8,27H7v6H8V27Z"/><rect class="ma81-2" x="7" y="26" width="1" height="1"/><path class="ma81-2" d="M9,27H8v6H9V27Z"/><path class="ma81-3" d="M11,25H10v1H8v1H9v6h2V25Z"/><path class="ma81-2" d="M10,25H8v1h2Z"/><path class="ma81-2" d="M12,26h1V25H12V24H10v1h1v8h1V26Z"/><path class="ma81-4" d="M17,26H16v1H13V26H12v7h5V26Z"/><path class="ma81-2" d="M13,23h3v1h1V21H16v1H13V21H12v3h1Z"/><path class="ma81-2" d="M13,26v1h3V26H13Z"/><path class="ma81-5" d="M13,25v1h3V25h1V24H16V23H13v1H12v1Z"/><path class="ma81-2" d="M18,25h1V24H17v1H16v1h1v7h1V25Z"/><path class="ma81-3" d="M20,26H19V25H18v8h2V26Z"/><path class="ma81-2" d="M21,27V25H19v1h1v7h1V27Z"/><path class="ma81-3" d="M22,27H21v6h1V27Z"/><path class="ma81-5" d="M22,27V25H21v2Z"/><path class="ma81-2" d="M23,25H22v8h1V25Z"/><path class="ma81-2" d="M20,16h1V15H20Z"/><path class="ma81-2" d="M19,13v1h1V11H19v2Z"/><rect class="ma81-5" x="14" y="15" width="1" height="1"/><path class="ma81-5" d="M18,10H17v1H16V10H15v1H14V10H13v1H12V10H11v1H10v2h1V12h2v2h3V13h1V12h2V11H18Z"/><path class="ma81-5" d="M13,22h3V21h1V20h1V19h1V17H16V16H15v1H14V16H13v1H10v2h1v1h1v1h1Zm-1-3V18h5v1H16v1H13V19Z"/><path class="ma81-2" d="M19,17v2h1V16H19Z"/><rect class="ma81-2" x="18" y="19" width="1" height="1"/><rect class="ma81-2" x="17" y="20" width="1" height="1"/><rect class="ma81-2" x="11" y="9" width="1" height="1"/><rect class="ma81-2" x="13" y="9" width="1" height="1"/><rect class="ma81-2" x="15" y="9" width="1" height="1"/><rect class="ma81-2" x="17" y="9" width="1" height="1"/><rect class="ma81-2" x="11" y="20" width="1" height="1"/><rect class="ma81-2" x="10" y="10" width="1" height="1"/><rect class="ma81-2" x="10" y="19" width="1" height="1"/><path class="ma81-2" d="M10,13V11H9v3h1Z"/><path class="ma81-2" d="M10,16H9v3h1V16Z"/><path class="ma81-2" d="M8,15v1H9V15Z"/><rect class="ma81-2" x="14" y="16" width="1" height="1"/><path class="ma81-6" d="M13,12H11v1h2Z"/><path class="ma81-6" d="M19,12H17v1h2Z"/><path class="ma81-7" d="M16,19h1V18H13v1Z"/><rect class="ma81-2" x="13" y="19" width="3" height="1"/><path class="ma81-2" d="M13,18H12v1h1Z"/><path class="ma81-8" d="M18,11h1V9H18v2Z"/><path class="ma81-8" d="M12,10v1h1V9h1v2h1V9h1v2h1V9h1V8H11V9h1Z"/><rect class="ma81-8" x="10" y="9" width="1" height="1"/><path class="ma81-8" d="M10,10H9v1h1Z"/><path class="ma81-9" d="M19,15v1h1V15h1V14H19Z"/><path class="ma81-9" d="M19,14V13H16v1h3Z"/><path class="ma81-10" d="M19,16V14H16v2h3Z"/><path class="ma81-9" d="M18,16H16v1h3V16Z"/><path class="ma81-9" d="M13,14v2h1V15h1v1h1V14Z"/><path class="ma81-9" d="M13,14V13H10v1h3Z"/><path class="ma81-10" d="M12,14H10v2h3V14Z"/><path class="ma81-9" d="M10,16v1h3V16H10Z"/><path class="ma81-9" d="M10,15V14H8v1H9v1h1Z"/><rect class="ma81-11" x="21" y="22" width="1" height="1"/><rect class="ma81-11" x="20" y="23" width="1" height="1"/><rect class="ma81-11" x="22" y="23" width="1" height="1"/><path class="ma81-11" d="M22,24.5V24H21v1h1Z"/><rect class="ma81-12" x="21" y="23" width="1" height="1"/></svg>