<svg xmlns="http://www.w3.org/2000/svg" viewBox="0 0 29 33"><defs><style>polygon,rect,path{shape-rendering:crispedges;}.fa192-1{fill:#d4a122;}.fa192-2{fill:#000000;}.fa192-3{fill:#b3ffa1;}.fa192-4{fill:#c18d59;}.fa192-5{fill:#b3ffa1;}.fa192-6{fill:#ffffff;}.fa192-7{fill:#5e362f;}.fa192-8{fill:#825fff;}.fa192-9{fill:#474718;}.fa192-10{fill:#6f7032;}</style></defs><path class="fa192-1" d="M6,32V27H7V26H8V25h2V24H9V16H8V15H9V10h1V9h1V8h7V9h1v1h1v5h1v1H20v6H19v3h2v1h1v1h1v6h6V0H0V33H6Z"/><path class="fa192-2" d="M23,27H22v3H21V27H20v6h1V31h1v2h1V27Z"/><rect class="fa192-2" x="21" y="26" width="1" height="1"/><path class="fa192-3" d="M21,28v2h1V27H21Z"/><path class="fa192-4" d="M21,31v2h1V31Z"/><path class="fa192-2" d="M20,26h1V25H19v1Z"/><path class="fa192-3" d="M15,29H14v2h1V29Z"/><rect class="fa192-3" x="10" y="29" width="1" height="1"/><path class="fa192-3" d="M19,32V31H18v1H17V29h1V28h1v1h1V27h1V26H19V25H18v1H16v1H13V26H12V25H11v2H10V26H8v1H9v2h1V28h1v1h1v3H11V31H10v1H9v1H20V32Zm-3-2v1H15v1H13V28h2v1h1Z"/><rect class="fa192-3" x="18" y="29" width="1" height="1"/><path class="fa192-2" d="M16,25v1h1V25Z"/><path class="fa192-2" d="M13,26v1h3V26H13Z"/><path class="fa192-2" d="M13,23h3v1h1V21H16v1H13V21H12v3h1Z"/><path class="fa192-4" d="M17,25V24H16V23H13v1H12v1h1v1h3V25Z"/><rect class="fa192-2" x="12" y="25" width="1" height="1"/><path class="fa192-2" d="M10,25H8v1h2Z"/><path class="fa192-2" d="M9,31V27H8v3H7V27H6v6H7V31H8v2H9V31Z"/><rect class="fa192-2" x="7" y="26" width="1" height="1"/><path class="fa192-3" d="M7,30H8V27H7v3Z"/><path class="fa192-4" d="M7,31v2H8V31Z"/><path class="fa192-5" d="M19,30H18V29H17v3h1V31h1v1h1V29H19Z"/><rect class="fa192-5" x="18" y="28" width="1" height="1"/><path class="fa192-5" d="M15,30v1h1V29H15Z"/><path class="fa192-5" d="M14,30V29h1V28H13v4h2V31H14Z"/><path class="fa192-5" d="M9,32h1V31h1v1h1V29H11v1H10V29H9v3Z"/><rect class="fa192-5" x="10" y="28" width="1" height="1"/><rect class="fa192-2" x="20" y="15" width="1" height="1"/><path class="fa192-4" d="M12,14V13H10v1h2Z"/><path class="fa192-4" d="M10,17v2h1v1h1v1h1v1h3V21h1V20h1V19h1V15H16V14h2V13H13v2H9v1h1Zm4-1h1v1H14Zm-1,3h3V18h1v1H16v1H13Z"/><path class="fa192-2" d="M19,17v2h1V16H19Z"/><rect class="fa192-2" x="18" y="19" width="1" height="1"/><rect class="fa192-2" x="17" y="20" width="1" height="1"/><rect class="fa192-2" x="11" y="20" width="1" height="1"/><rect class="fa192-2" x="10" y="19" width="1" height="1"/><path class="fa192-2" d="M10,18V16H9v3h1Z"/><rect class="fa192-2" x="8" y="15" width="1" height="1"/><rect class="fa192-2" x="14" y="16" width="1" height="1"/><path class="fa192-6" d="M12,15h1V14H12Z"/><path class="fa192-6" d="M10,14v1h1V14Z"/><path class="fa192-6" d="M18,14v1h1V14Z"/><path class="fa192-6" d="M16,14v1h1V14Z"/><path class="fa192-2" d="M11,14v1h1V14Z"/><path class="fa192-2" d="M17,14v1h1V14Z"/><path class="fa192-7" d="M12,14h1V13H12Z"/><rect class="fa192-2" x="13" y="19" width="3" height="1"/><rect class="fa192-2" x="16" y="18" width="1" height="1"/><path class="fa192-8" d="M10,27h1V25h1V21H11V20H10V19H9v5h1v3Z"/><path class="fa192-8" d="M10,14V13H9v2h1Z"/><path class="fa192-8" d="M18,13v1h1v2h1V13H18Z"/><path class="fa192-8" d="M19,20H18v1H17v5h1V25h1V22h1V19H19Z"/><path class="fa192-9" d="M19,12v1h1V11H19Z"/><path class="fa192-10" d="M10,12v1h1V11h1v2h1V11h1v2h1V11h1v2h1V11h1v2h1V11h1V10H19V9H18V8H11V9H10v1H9v1h1Z"/><path class="fa192-9" d="M17,11v2h1V11Z"/><path class="fa192-9" d="M15,11v2h1V11Z"/><path class="fa192-9" d="M13,11v2h1V11Z"/><path class="fa192-9" d="M12,12V11H11v2h1Z"/><path class="fa192-9" d="M10,12V11H9v2h1Z"/></svg>