<svg xmlns="http://www.w3.org/2000/svg" viewBox="0 0 29 33"><defs><style>polygon,rect,path{shape-rendering:crispedges;}.ha280-1{fill:#e55b35;}.ha280-2{fill:#000000;}.ha280-3{fill:#e0dbc6;}.ha280-4{fill:#efcaaf;}.ha280-5{fill:#8c7850;}.ha280-6{fill:#8e703c;}.ha280-7{fill:#8e703c;}.ha280-8{fill:#cbed03;}.ha280-9{fill:#68aaad;}</style></defs><path class="ha280-1" d="M0,33H6V27H7V26H8V25h2V24h2V22H11V21H10V20H9V16H8V15H9V14H8V12H9V11H8V10H9V9H8V8h2V7h1V8h1V6h1V7h1V8h1V7h1V6h1V7h1V8h1V7h1V8H19V9h2v2H20v1h1v1H20v1h1v2H20v4H19v1H18v1H17v2h2v1h2v1h1v1h1v6h6V0H0Z"/><path class="ha280-2" d="M23,27H22v6h1V27Z"/><rect class="ha280-2" x="21" y="26" width="1" height="1"/><path class="ha280-3" d="M22,27H21v6h1V27Z"/><path class="ha280-2" d="M21,27H20v6h1V27Z"/><path class="ha280-2" d="M20,26h1V25H19v1Z"/><rect class="ha280-3" x="10" y="29" width="1" height="1"/><path class="ha280-3" d="M19,32V31H18v1H17V29h1V28h1v1h1V27h1V26H19V25H17v1H16v1H13V26H12V25H10v1H9v3h1V28h1v1h1v3H11V31H10v1H9v1H20V32Zm-3-2v1H15v1H13V28h2v1h1Z"/><rect class="ha280-3" x="18" y="29" width="1" height="1"/><path class="ha280-3" d="M15,29H14v2h1V29Z"/><path class="ha280-2" d="M18,25h1V24H17v1Z"/><path class="ha280-2" d="M16,24h1V23H16Z"/><rect class="ha280-2" x="16" y="25" width="1" height="1"/><path class="ha280-2" d="M13,26v1h3V26H13Z"/><path class="ha280-2" d="M13,23H12v1h1Z"/><path class="ha280-4" d="M13,25v1h3V25h1V24H16V23H13v1H12v1Z"/><rect class="ha280-2" x="12" y="25" width="1" height="1"/><path class="ha280-2" d="M12,24H10v1h2Z"/><path class="ha280-2" d="M9,31V26h1V25H8v1H7v1H8v6H9V31Z"/><path class="ha280-3" d="M8,27H7v6H8V27Z"/><path class="ha280-2" d="M7,27H6v6H7V27Z"/><path class="ha280-5" d="M19,30H18V29H17v3h1V31h1v1h1V29H19Z"/><rect class="ha280-5" x="18" y="28" width="1" height="1"/><path class="ha280-5" d="M15,30v1h1V29H15Z"/><path class="ha280-5" d="M14,30V29h1V28H13v4h2V31H14Z"/><path class="ha280-5" d="M9,32h1V31h1v1h1V29H11v1H10V29H9v3Z"/><rect class="ha280-5" x="10" y="28" width="1" height="1"/><path class="ha280-2" d="M20,16h1V15H20Z"/><rect class="ha280-4" x="10" y="11" width="1" height="1"/><path class="ha280-4" d="M14,13v1h1V13h2V12h1V10H17v1H16v1H15V10H14v1H13v2Z"/><rect class="ha280-4" x="11" y="10" width="1" height="1"/><rect class="ha280-4" x="9" y="15" width="1" height="1"/><path class="ha280-4" d="M16,16V15H13v1H10v1h1v1h5v1h1V18h1V17h1V16H16Zm-1,1H14V16h1Z"/><rect class="ha280-4" x="19" y="15" width="1" height="1"/><rect class="ha280-2" x="8" y="15" width="1" height="1"/><rect class="ha280-2" x="14" y="16" width="1" height="1"/><path class="ha280-6" d="M13,12H11v1h2Z"/><rect class="ha280-6" x="17" y="12" width="1" height="1"/><path class="ha280-7" d="M15,18H13v1h3V18Z"/><path class="ha280-7" d="M14,23h3V22h1V21h1V20h1V16H19v1H18v1H17v1H16v1H13V19H12V18H11V17H10V16H9v4h1v1h1v1h1v1h2Z"/><rect class="ha280-2" x="13" y="19" width="3" height="1"/><path class="ha280-2" d="M12,18v1h1V18Z"/><path class="ha280-8" d="M21,15V14H20v1Z"/><path class="ha280-8" d="M10,13h1V12H10V11h1V10h1v1H11v1h2V11h1V10h1v2h1V11h1V10h1v3h1v1h1V13h1V12H20V11h1V9H19V8H18V7H17V6H16V7H15V8H14V7H13V6H12V8H11V7H10V8H8V9H9v1H8v1H9v1H8v2h2Z"/><rect class="ha280-8" x="19" y="7" width="1" height="1"/><path class="ha280-9" d="M13,16V15h1V14H10v2h3Z"/><path class="ha280-9" d="M19,14H15v1h1v1h3V14Z"/><path class="ha280-2" d="M16,13H15v1h4V13H16Z"/><path class="ha280-2" d="M14,14V13H10v1h4Z"/><path class="ha280-2" d="M19,15h1V14H19Z"/><path class="ha280-2" d="M10,14H9v1h1Z"/><path class="ha280-2" d="M14,15h1V14H14Z"/></svg>