<svg xmlns="http://www.w3.org/2000/svg" viewBox="0 0 29 33"><defs><style>polygon,rect,path{shape-rendering:crispedges;}.ib35-1{fill:#6b4f99;}.ib35-2{fill:#512a24;}.ib35-3{fill:#000000;}.ib35-4{fill:#ffffff;}.ib35-5{fill:#00686d;}.ib35-6{fill:#00686d;}.ib35-7{fill:#c8a715;}.ib35-8{fill:#317f03;}.ib35-9{fill:#0068ff;}.ib35-10{fill:#45ba00;}</style></defs><path class="ib35-1" d="M0,33H6V27H5V26H6V25H5V24H4V21H5V20H6V19H9V16H8V15H9V14H8V11H9V10h1V9h2V8h5V9h1v1h1v1h1v4h1v1H20v4H19v5h2v1h1v1h1v6h6V0H0Z"/><path class="ib35-1" d="M12,24V22H11v2Z"/><path class="ib35-1" d="M18,24V22H17v2Z"/><path class="ib35-2" d="M8,27H9V26H6v1H7v6H8V27Z"/><path class="ib35-3" d="M7,27H6v6H7V27Z"/><path class="ib35-3" d="M23,27H22v6h1V27Z"/><path class="ib35-2" d="M22,27H21v6h1V27Z"/><rect class="ib35-3" x="21" y="26" width="1" height="1"/><path class="ib35-3" d="M21,27H20v6h1V27Z"/><path class="ib35-2" d="M20,27h1V26H19V25H16V23H13v2H10v2H9v6h5V29h1v4h5V27Zm-8,2H11V28h1Zm6,0H17V28h1Z"/><path class="ib35-3" d="M20,26h1V25H19v1Z"/><rect class="ib35-3" x="17" y="28" width="1" height="1"/><path class="ib35-3" d="M17,24v1h2V24H17Z"/><path class="ib35-3" d="M15,29H14v4h1V29Z"/><rect class="ib35-3" x="11" y="28" width="1" height="1"/><path class="ib35-3" d="M11,24H10v1h2V24Z"/><path class="ib35-3" d="M9,27H8v6H9V27Z"/><path class="ib35-3" d="M9,26v1h1V25H9Z"/><rect class="ib35-3" x="20" y="15" width="1" height="1"/><rect class="ib35-2" x="9" y="15" width="1" height="1"/><rect class="ib35-2" x="19" y="15" width="1" height="1"/><path class="ib35-2" d="M14,20V19H13v2h1v1h1V21h1V19H15v1Z"/><path class="ib35-2" d="M14,10v1H12v2h1v3H10v2h1v1h1V18h2v1h1V18h2v1h1V18h1V16H16V14h2V13H16V12h2v1h1V11H18V10H14Zm1,7H14V16h1Z"/><path class="ib35-2" d="M12,14V13H10v1h2Z"/><path class="ib35-3" d="M19,17h1V16H19Z"/><path class="ib35-3" d="M10,16H9v1h1Z"/><rect class="ib35-3" x="8" y="15" width="1" height="1"/><rect class="ib35-3" x="14" y="16" width="1" height="1"/><path class="ib35-4" d="M11,15V14H10v2h1Z"/><path class="ib35-4" d="M12,15v1h1V14H12Z"/><path class="ib35-4" d="M16,14v2h1V14Z"/><path class="ib35-4" d="M19,14H18v2h1V14Z"/><path class="ib35-3" d="M12,14H11v2h1V14Z"/><path class="ib35-3" d="M17,14v2h1V14Z"/><rect class="ib35-5" x="18" y="13" width="1" height="1"/><rect class="ib35-5" x="16" y="12" width="2" height="1"/><path class="ib35-5" d="M13,14V13H12v1Z"/><path class="ib35-5" d="M12,12H11v1h1Z"/><path class="ib35-6" d="M10,20v1h1v1h1v1h5V22h2V20h1V17H19v1H18v1H17V18H15v1h1v2H15v1H14V21H13V19h1V18H12v1H11V18H10V17H9v3Z"/><path class="ib35-7" d="M18,23h1V22H18Z"/><path class="ib35-6" d="M18,24h1V23H18Z"/><path class="ib35-7" d="M17,23H16v1h1Z"/><path class="ib35-6" d="M16,24v1h1V24Z"/><path class="ib35-7" d="M12,24h1V23H12Z"/><path class="ib35-6" d="M12,25h1V24H12Z"/><rect class="ib35-3" x="14" y="19" width="1" height="1"/><path class="ib35-8" d="M19,14v1h1V11H19v3Z"/><rect class="ib35-8" x="18" y="10" width="1" height="1"/><path class="ib35-8" d="M10,14V13h1V12h1V11h2V10h4V9H17V8H12V9H10v1H9v1H8v3H9v1h1Z"/><rect class="ib35-3" x="5" y="26" width="1" height="1"/><path class="ib35-9" d="M7,20v1H9V19H8v1Z"/><path class="ib35-9" d="M5,23H6V21H4v1H5Z"/><path class="ib35-9" d="M7,26H8V25H9V23h2V21H9v1H8v2H6v1H7Z"/><path class="ib35-10" d="M7,24H8V22H9V21H7V20H8V19H6v1H5v1H6v2H5v2H6V24Z"/><path class="ib35-10" d="M11,24V23H9v2h1V24Z"/><path class="ib35-10" d="M8,25v1H9V25Z"/><path class="ib35-9" d="M4,23v1H5V23Z"/><path class="ib35-10" d="M9,20v1h1V20Z"/><path class="ib35-10" d="M7,25H6v1H7Z"/><path class="ib35-10" d="M5,22H4v1H5Z"/></svg>