<svg xmlns="http://www.w3.org/2000/svg" viewBox="0 0 29 33"><defs><style>polygon,rect,path{shape-rendering:crispedges;}.fa255-1{fill:#6b4f99;}.fa255-2{fill:#000000;}.fa255-3{fill:#ffb38d;}.fa255-4{fill:#6d3e35;}.fa255-5{fill:#b23b00;}.fa255-6{fill:#4922aa;}.fa255-7{fill:#fad000;}</style></defs><path class="fa255-1" d="M13,21H12V20H11V19H10V16h0v3h1v1h1v1Z"/><rect class="fa255-1" x="17" y="20" width="1"/><path class="fa255-1" d="M6,27H7V26H8V25h2V24h2V21H11V20H9V19H8V17H8V15H8V11H9V10h1V9h1V8h7V9h1v1h1v1h1v8H20v1H18v1H17v3h2v1h2v1h1v1h1v6h6V0H0V33H6V27Z"/><rect class="fa255-1" x="18" y="19" width="1"/><rect class="fa255-1" x="19" y="16" width="1"/><path class="fa255-1" d="M13,22Z"/><rect class="fa255-1" x="14" y="16" width="1"/><rect class="fa255-1" x="16" y="21" width="1"/><path class="fa255-2" d="M23,27H22v3H21V27H20v6h1V31h1v2h1V27Z"/><rect class="fa255-2" x="21" y="26" width="1" height="1"/><path class="fa255-3" d="M21,28v2h1V27H21Z"/><path class="fa255-4" d="M21,31v2h1V31Z"/><path class="fa255-2" d="M20,26h1V25H19v1Z"/><path class="fa255-3" d="M20,27h1V26H19V25H17v1H16v1H13V26H12V25H10v1H8v1H9v6H20V27Z"/><path class="fa255-2" d="M18,25h1V24H17v1Z"/><rect class="fa255-2" x="16" y="25" width="1" height="1"/><path class="fa255-2" d="M13,26v1h3V26H13Z"/><path class="fa255-2" d="M13,23h3v1h1V21H16v1H13V21H12v3h1Z"/><path class="fa255-4" d="M13,25v1h3V25h1V24H16V23H13v1H12v1Z"/><rect class="fa255-2" x="12" y="25" width="1" height="1"/><path class="fa255-2" d="M12,24H10v1h2Z"/><path class="fa255-2" d="M10,25H8v1h2Z"/><path class="fa255-2" d="M7,32V31H8v2H9V27H8v3H7V27H6v6H7Z"/><rect class="fa255-2" x="7" y="26" width="1" height="1"/><path class="fa255-3" d="M7,28v2H8V27H7Z"/><path class="fa255-4" d="M7,31v2H8V31Z"/><path class="fa255-4" d="M17,21V20h1V19h1V16h1V15H18v1H16V15H15V14H14v1H13v1H11V15H9v1h1v3h1v1h1v1h1v1h3V21h1Zm-3-4V16h1v1H14Zm-1,3V19h3V18h1v1H16v1Z"/><rect class="fa255-4" x="18" y="13" width="1" height="1"/><path class="fa255-4" d="M13,13h3V12h1V11H15V10H14v1H13v1h0Z"/><path class="fa255-2" d="M20,17V16H19v3h1V17Z"/><path class="fa255-2" d="M18,19v1h1V19Z"/><polygon class="fa255-2" points="17 21 17 21 18 21 18 20 17 20 17 21"/><rect class="fa255-2" x="14" y="10" width="1"/><rect class="fa255-2" x="11" y="20" width="1" height="1"/><path class="fa255-2" d="M10,19v1h1V19Z"/><path class="fa255-2" d="M10,18V16H9v3h1Z"/><path class="fa255-2" d="M8,16V15H8v1Z"/><polygon class="fa255-2" points="15 17 15 16 14 16 14 17 14 17 15 17 15 17"/><rect class="fa255-5" x="12" y="12" width="1" height="1"/><rect class="fa255-5" x="18" y="13" width="1"/><rect class="fa255-5" x="16" y="12" width="1" height="1"/><rect class="fa255-2" x="13" y="19" width="3" height="1"/><rect class="fa255-2" x="16" y="18" width="1" height="1"/><path class="fa255-6" d="M20,18v1h1V17H20Z"/><path class="fa255-6" d="M9,18V16H9V14h2V13h1V12h1V11h1V10h1v1h2v2h2v1h1v2h1V11H20V10H19V9H18V8H11V9H10v1H9v1H8v5H9v1H8v2H9Z"/><path class="fa255-6" d="M9,19v1h1V19Z"/><path class="fa255-6" d="M19,20h1V19H19Z"/><path class="fa255-7" d="M20,17h1V16H20Z"/><path class="fa255-7" d="M9,16H8v1H9Z"/><path class="fa255-2" d="M11,16h2V15h1V14h1v1h1v1h2V15h2V14H18V13H11v1H9v1h2Z"/></svg>