<svg xmlns="http://www.w3.org/2000/svg" viewBox="0 0 29 33"><defs><style>polygon,rect,path{shape-rendering:crispedges;}.ca212-1{fill:#e55b35;}.ca212-2{fill:#000000;}.ca212-3{fill:#c18d59;}.ca212-4{fill:#685432;}.ca212-5{fill:#a89969;}.ca212-6{fill:#ffffff;}.ca212-7{fill:#99582c;}.ca212-8{fill:#990000;}.ca212-9{fill:#ff1f4a;}</style></defs><path class="ca212-1" d="M6,32V27H7V26H8V25h2V24H9V16H8V15H9V10h1V9h1V8h7V9h1v1h1v5h1v1H20v6H19v3h2v1h1v1h1v6h6V0H0V33H6Z"/><path class="ca212-2" d="M23,27H22v6h1V27Z"/><rect class="ca212-2" x="21" y="26" width="1" height="1"/><path class="ca212-3" d="M22,27H21v6h1V27Z"/><rect class="ca212-3" x="20" y="26" width="1" height="1"/><path class="ca212-2" d="M21,27H20v6h1V27Z"/><path class="ca212-2" d="M20,26h1V25H19v1Z"/><rect class="ca212-4" x="10" y="32" width="1" height="1"/><rect class="ca212-4" x="18" y="32" width="1" height="1"/><path class="ca212-4" d="M14,31v1h1V30H14Z"/><rect class="ca212-4" x="10" y="30" width="1" height="1"/><path class="ca212-4" d="M17,30h1V29h1v1h1V26H19V25H18v1H17v1H16v1H13V27H12V26H11v1H10V26H9v4h1V29h1v1h1v3h1V29h2v1h1v2H15v1h2V30Z"/><rect class="ca212-4" x="18" y="30" width="1" height="1"/><rect class="ca212-2" x="16" y="26" width="1" height="1"/><path class="ca212-2" d="M13,27v1h3V27H13Z"/><path class="ca212-2" d="M13,23h3v1h1V21H16v1H13V21H12v3h1Z"/><path class="ca212-3" d="M16,24V23H13v1H12v2h1v1h3V26h1V24Z"/><rect class="ca212-2" x="12" y="26" width="1" height="1"/><path class="ca212-2" d="M11,25v1h1V25Z"/><path class="ca212-2" d="M10,26V25H8v1h2Z"/><path class="ca212-3" d="M9,27V26H8v1Z"/><path class="ca212-2" d="M9,30V27H8v6H9V30Z"/><rect class="ca212-2" x="7" y="26" width="1" height="1"/><path class="ca212-3" d="M8,27H7v6H8V27Z"/><path class="ca212-2" d="M7,27H6v6H7V27Z"/><path class="ca212-5" d="M20,30H19v1H18V30H17v3h1V32h1v1h1V30Z"/><rect class="ca212-5" x="18" y="29" width="1" height="1"/><path class="ca212-5" d="M16,32V30H15v2Z"/><path class="ca212-5" d="M14,32V30h1V29H13v4h2V32Z"/><path class="ca212-5" d="M12,30H11v1H10V30H9v3h1V32h1v1h1V30Z"/><rect class="ca212-5" x="10" y="29" width="1" height="1"/><rect class="ca212-2" x="20" y="15" width="1" height="1"/><path class="ca212-3" d="M10,17v2h1v1h1v1h1v1h3V21h1V20h1V19h1V15H16v3H13V15H9v1h1Zm4,2h1v1H14Z"/><path class="ca212-3" d="M12,14V13H10v1h2Z"/><path class="ca212-3" d="M17,14h1V13H16V12h1V11H15V10H12v1H11v1h1v1h1v2h3V14Z"/><path class="ca212-2" d="M19,17v2h1V16H19Z"/><rect class="ca212-2" x="18" y="19" width="1" height="1"/><rect class="ca212-2" x="17" y="20" width="1" height="1"/><rect class="ca212-2" x="11" y="20" width="1" height="1"/><rect class="ca212-2" x="10" y="19" width="1" height="1"/><path class="ca212-2" d="M10,18V16H9v3h1Z"/><rect class="ca212-2" x="8" y="15" width="1" height="1"/><path class="ca212-6" d="M12,14v1h1V14Z"/><path class="ca212-6" d="M10,14v1h1V14Z"/><path class="ca212-6" d="M18,14v1h1V14Z"/><path class="ca212-6" d="M16,14v1h1V14Z"/><path class="ca212-2" d="M11,14v1h1V14Z"/><path class="ca212-2" d="M17,14v1h1V14Z"/><path class="ca212-7" d="M16,13h2V12H16Z"/><path class="ca212-7" d="M13,14V13H12v1Z"/><path class="ca212-7" d="M12,12H11v1h1Z"/><rect class="ca212-2" x="14" y="19" width="1" height="1"/><path class="ca212-8" d="M10,27h1V25h1V21H11V20H10V19H9v5h1v3Z"/><path class="ca212-8" d="M10,14V13h1V11h1V10h3v1h2v1h1v2h1v2h1V10H19V9H18V8H11V9H10v1H9v5h1Z"/><path class="ca212-8" d="M19,20H18v1H17v5h1V25h1V22h1V19H19Z"/><path class="ca212-9" d="M13,15v3h3V15H13Z"/></svg>