<svg xmlns="http://www.w3.org/2000/svg" viewBox="0 0 29 33"><defs><style>polygon,rect,path{shape-rendering:crispedges;}.ma176-1{fill:#e55b35;}.ma176-2{fill:#000000;}.ma176-3{fill:#99ce09;}.ma176-4{fill:#ffffff;}.ma176-5{fill:#e8b795;}.ma176-6{fill:#e1ff85;}.ma176-7{fill:#ffffff;}.ma176-8{fill:#492a23;}.ma176-9{fill:#5a2de2;}.ma176-10{fill:#c9936f;}.ma176-11{fill:#e8b592;}.ma176-12{fill:#9b005c;}.ma176-13{fill:#fad000;}.ma176-14{fill:#ff1d99;}</style></defs><path class="ma176-1" d="M0,33H6V27H7V26H8V25h2V24h2V21H11V20H10V19H9V16H8V15H9V11h1V10h1V9h7v1h1v1h1v4h1v1h1v1h1V16h1v2h1v5H24v8H23v1H21v1h8V0H0Z"/><path class="ma176-1" d="M20,17v1h1V16H20Z"/><path class="ma176-1" d="M20,23V19H19v1H18v1H17v3h2v1h2V23Z"/><path class="ma176-2" d="M23,26v5h1V25H23Z"/><path class="ma176-2" d="M7,31V27H6v6H7V31Z"/><path class="ma176-3" d="M8,28V27H7v1Z"/><path class="ma176-3" d="M7,30v1H8V29H7Z"/><path class="ma176-3" d="M7,32v1H8V32Z"/><rect class="ma176-2" x="7" y="26" width="1" height="1"/><path class="ma176-2" d="M9,31V27H8v6H9V31Z"/><path class="ma176-3" d="M9,27v1h1v1H9v2h1V30h1V27H10V26H8v1Z"/><path class="ma176-3" d="M9,32v1h1V32Z"/><path class="ma176-2" d="M10,25H8v1h2Z"/><path class="ma176-2" d="M12,26h1V25H12V24H10v1h1v8h1V26Z"/><path class="ma176-4" d="M17,26H16v1H13V26H12v7h5V26Z"/><path class="ma176-2" d="M13,23h3v1h1V21H16v1H13V21H12v3h1Z"/><path class="ma176-2" d="M13,26v1h3V26H13Z"/><path class="ma176-5" d="M13,25v1h3V25h1V24H16V23H13v1H12v1Z"/><path class="ma176-2" d="M18,30V25h1V24H17v1H16v1h1v7h1V30Z"/><rect class="ma176-3" x="19" y="32" width="1" height="1"/><path class="ma176-3" d="M18,27v3h1v1h1V29H19V28h1V27h1V26H19v1Z"/><path class="ma176-2" d="M22,32h1V31H22V25H19v1h2v1H20v6h1V32Z"/><path class="ma176-3" d="M23,29V27H22v3h1Z"/><path class="ma176-6" d="M20,32V31H19V30H18v3h1V32Z"/><path class="ma176-6" d="M22,30v1h1V30Z"/><path class="ma176-6" d="M23,26V25H22v2h1Z"/><path class="ma176-6" d="M18,26v1h1V25H18Z"/><path class="ma176-6" d="M10,27h1V25H10v2Z"/><path class="ma176-6" d="M19,29h1V28H19Z"/><path class="ma176-6" d="M7,29H8V28H7Z"/><path class="ma176-6" d="M10,28H9v1h1Z"/><path class="ma176-6" d="M7,32H8V31H7Z"/><path class="ma176-6" d="M11,30H10v1H9v1h1v1h1V30Z"/><rect class="ma176-2" x="20" y="15" width="1" height="1"/><path class="ma176-2" d="M19,13v2h1V12H19Z"/><rect class="ma176-5" x="11" y="10" width="1" height="1"/><path class="ma176-5" d="M10,13h1V11H10v2Z"/><rect class="ma176-5" x="17" y="10" width="1" height="1"/><rect class="ma176-5" x="18" y="11" width="1" height="1"/><path class="ma176-5" d="M18,14h1V13H17v1Z"/><path class="ma176-5" d="M13,22h3V21h1V20h1V19h1V16h1V15H16V13h1V11H16V10H13v1H12v1h1v1H11v1h2v1H9v1h1v3h1v1h1v1h1Zm1-6h1v1H14Zm-2,3V18h1v1h3v1H13V19Z"/><path class="ma176-2" d="M20,18V16H19v3h1Z"/><rect class="ma176-2" x="18" y="19" width="1" height="1"/><rect class="ma176-2" x="17" y="20" width="1" height="1"/><rect class="ma176-2" x="11" y="20" width="1" height="1"/><rect class="ma176-2" x="10" y="19" width="1" height="1"/><path class="ma176-2" d="M10,14V12H9v3h1Z"/><path class="ma176-2" d="M10,16H9v3h1V16Z"/><rect class="ma176-2" x="8" y="15" width="1" height="1"/><rect class="ma176-2" x="14" y="16" width="1" height="1"/><path class="ma176-7" d="M13,15V14H12v1Z"/><path class="ma176-7" d="M10,15h1V14H10Z"/><path class="ma176-7" d="M18,14v1h1V14Z"/><path class="ma176-7" d="M16,14v1h1V14Z"/><path class="ma176-2" d="M12,15V14H11v1Z"/><path class="ma176-2" d="M17,14v1h1V14Z"/><path class="ma176-8" d="M10,14h1V13H10Z"/><path class="ma176-8" d="M11,13h2V12H11Z"/><path class="ma176-8" d="M17,13H16v1h1Z"/><path class="ma176-8" d="M19,12H17v1h2Z"/><rect class="ma176-2" x="13" y="19" width="3" height="1"/><rect class="ma176-2" x="12" y="18" width="1" height="1"/><path class="ma176-9" d="M20,12V11H19v1Z"/><rect class="ma176-9" x="18" y="10" width="1" height="1"/><path class="ma176-9" d="M12,11h1V10h3v1h1V10h1V9H11v1h1Z"/><path class="ma176-9" d="M18,11H17v1h1Z"/><path class="ma176-9" d="M11,12h1V11H11Z"/><rect class="ma176-9" x="10" y="10" width="1" height="1"/><path class="ma176-9" d="M10,11H9v1h1Z"/><path class="ma176-10" d="M21,23V22H20v1Z"/><path class="ma176-10" d="M24,22.111V23h1V22H24Z"/><rect class="ma176-2" x="21" y="19" width="1" height="1"/><rect class="ma176-2" x="23" y="19" width="1" height="1"/><path class="ma176-11" d="M24,22H21v1h3V22Z"/><path class="ma176-11" d="M24,21V20H23V19H22v1H21v1h3Z"/><path class="ma176-12" d="M21,23v2h3V23H21Z"/><path class="ma176-7" d="M22,18h2V16H23v1H22V16H21v2Z"/><path class="ma176-13" d="M21,18H20v4h1V19h3v3h1V18H21Z"/><path class="ma176-14" d="M24,22V21H21v1h3Z"/></svg>