<svg xmlns="http://www.w3.org/2000/svg" viewBox="0 0 29 33"><defs><style>polygon,rect,path{shape-rendering:crispedges;}.sa268-1{fill:#000000;}.sa268-2{fill:#00e070;}.sa268-3{fill:#ce8452;}.sa268-4{fill:#ffffff;}.sa268-5{fill:#99582c;}.sa268-6{fill:#6b4f99;}.sa268-7{fill:#fad000;}.sa268-8{fill:#ffffff;}.sa268-9{fill:#99582c;}.sa268-10{fill:#0068ff;}.sa268-11{fill:#ff1f4a;}</style></defs><path class="sa268-1" d="M23,27H22v6h1V27Z"/><path class="sa268-2" d="M22,27H21v6h1V27Z"/><rect class="sa268-1" x="21" y="26" width="1" height="1"/><path class="sa268-1" d="M21,27H20v6h1V27Z"/><path class="sa268-2" d="M9,27v2h1V28h1v1h1V27H11V26H8v1Z"/><rect class="sa268-2" x="10" y="29" width="1" height="1"/><path class="sa268-2" d="M19,32V31H18v1H17V30H16v1H15v1H13V30H12v2H11V31H10v1H9v1H20V32Z"/><path class="sa268-2" d="M18,26v1H17v2h1V28h1v1h1V27h1V26H18Z"/><rect class="sa268-2" x="18" y="29" width="1" height="1"/><path class="sa268-3" d="M13,23v1h3V23H13Z"/><path class="sa268-1" d="M11,26V24H10v1H8v1h3Z"/><path class="sa268-1" d="M9,31V27H8v6H9V31Z"/><path class="sa268-2" d="M8,27H7v6H8V27Z"/><rect class="sa268-1" x="7" y="26" width="1" height="1"/><path class="sa268-1" d="M7,27H6v6H7V27Z"/><path class="sa268-2" d="M16,26V25H13v1h3Z"/><path class="sa268-2" d="M14,29v2h1V29Z"/><path class="sa268-4" d="M19,30H18V29H17v3h1V31h1v1h1V29H19Z"/><rect class="sa268-4" x="18" y="28" width="1" height="1"/><path class="sa268-4" d="M15,29v2h1V29Z"/><path class="sa268-4" d="M14,30V29H13v3h2V31H14Z"/><path class="sa268-4" d="M11,29v1H10V29H9v3h1V31h1v1h1V29Z"/><rect class="sa268-4" x="10" y="28" width="1" height="1"/><path class="sa268-1" d="M17,28V27H16v1H13V27H12v3h1V29h3v1h1V28Z"/><path class="sa268-3" d="M12,13h2v1h1V13h1V12h1V11H12v2Z"/><rect class="sa268-3" x="14" y="15" width="1" height="1"/><path class="sa268-3" d="M16,22V21h1V20h1V19h1V16H15v1H14V16H10v3h1v1h1v1h1v1h3Zm-4-3V18h5v1H16v1H13V19Z"/><rect class="sa268-3" x="18" y="12" width="1" height="1"/><rect class="sa268-1" x="14" y="16" width="1" height="1"/><path class="sa268-5" d="M17,12H16v1h2V12Z"/><path class="sa268-5" d="M11,13h1V12H10v1Z"/><path class="sa268-2" d="M13,22H12V21H11V20H10V19H9V12h1V11h2V10h5v1h2v1h1v7H19v1H18v1H17v1H16v1h2V22h1V21h1V20h1V11H20V10H19V9H18V8H11V9H10v1H9v1H8v9H9v1h1v1h1v1h2Z"/><rect class="sa268-1" x="10" y="8" width="1" height="1"/><rect class="sa268-1" x="9" y="9" width="1" height="1"/><rect class="sa268-1" x="8" y="10" width="1" height="1"/><path class="sa268-1" d="M8,11H7v9H8V11Z"/><rect class="sa268-1" x="8" y="20" width="1" height="1"/><rect class="sa268-1" x="9" y="21" width="1" height="1"/><rect class="sa268-1" x="10" y="22" width="1" height="1"/><rect class="sa268-1" x="18" y="22" width="1" height="1"/><rect class="sa268-1" x="19" y="21" width="1" height="1"/><rect class="sa268-1" x="20" y="20" width="1" height="1"/><path class="sa268-1" d="M21,20h1V11H21v9Z"/><rect class="sa268-1" x="20" y="10" width="1" height="1"/><rect class="sa268-1" x="19" y="9" width="1" height="1"/><rect class="sa268-1" x="18" y="8" width="1" height="1"/><path class="sa268-1" d="M18,8V7H11V8h7Z"/><path class="sa268-1" d="M12,11H10v1h2Z"/><path class="sa268-1" d="M10,12H9v1h1Z"/><path class="sa268-1" d="M10,16H9v3h1V16Z"/><rect class="sa268-1" x="10" y="19" width="1" height="1"/><rect class="sa268-1" x="11" y="20" width="1" height="1"/><rect class="sa268-1" x="12" y="21" width="1" height="1"/><path class="sa268-1" d="M15,22H13v1h3V22Z"/><rect class="sa268-1" x="16" y="21" width="1" height="1"/><rect class="sa268-1" x="17" y="20" width="1" height="1"/><rect class="sa268-1" x="18" y="19" width="1" height="1"/><path class="sa268-1" d="M20,13V12H19v1Z"/><path class="sa268-1" d="M19,17v2h1V16H19Z"/><path class="sa268-1" d="M18,12h1V11H17v1Z"/><path class="sa268-1" d="M17,11V10H12v1h5Z"/><path class="sa268-6" d="M0,7V33H6V27H7V26H8V25h2V24h1V23H10V22H9V21H8V20H7V11H8V10H9V9h1V8h1V7h7V8h1V9h1v1h1v1h1v9H21v1H20v1H19v1H18v1h1v1h2v1h1v1h1v6h6V0H0Z"/><path class="sa268-1" d="M18,26h3V25H19V24H18v2Z"/><rect class="sa268-1" x="17" y="26" width="1" height="1"/><path class="sa268-7" d="M18,25H17v1h1Z"/><path class="sa268-8" d="M17,25h1V24H17Z"/><rect class="sa268-8" x="16" y="26" width="1" height="1"/><path class="sa268-7" d="M15,28h1V27H15Z"/><path class="sa268-8" d="M14,27v1h1V27Z"/><path class="sa268-7" d="M13,27v1h1V27Z"/><path class="sa268-1" d="M14,27h2V26H13v1Z"/><rect class="sa268-8" x="12" y="26" width="1" height="1"/><path class="sa268-1" d="M12,25v1h1V25h3v1h1V24h1V23H16v1H13V23H11v1h1Z"/><rect class="sa268-1" x="11" y="26" width="1" height="1"/><path class="sa268-7" d="M12,25H11v1h1Z"/><path class="sa268-8" d="M12,25V24H11v1Z"/><path class="sa268-9" d="M16,18H12v1h4Z"/><path class="sa268-8" d="M11,16h3V15h1v1h5V13H15v1H14V13H9v3h2Zm5-2h3v1H16Zm-6,0h3v1H10Z"/><path class="sa268-10" d="M19,15V14H16v1h3Z"/><path class="sa268-11" d="M13,15V14H10v1h3Z"/><path class="sa268-1" d="M16,20V19H13v1Z"/><path class="sa268-1" d="M17,19V18H16v1Z"/></svg>