<svg xmlns="http://www.w3.org/2000/svg" viewBox="0 0 29 33"><defs><style>polygon,rect,path{shape-rendering:crispedges;}.ja18-1{fill:#b4bd09;}.ja18-2{fill:#000000;}.ja18-3{fill:#6c9302;}.ja18-4{fill:#6d3e35;}.ja18-5{fill:#ffffff;}.ja18-6{fill:#b23b00;}.ja18-7{fill:#b23b00;}.ja18-8{fill:#b23b00;}</style></defs><rect class="ja18-1" x="16" y="8" width="1" height="1"/><path class="ja18-1" d="M0,33H6V27H7V26H8V25h2V24h2V21H10V20H9V16H8V15H9V10h1V9h1V8h1V9h1V8h3V7h1V8h2V9h1v1H19v1h1v4h1v1H20v4H19v1H17v3h2v1h2v1h1v1h1v6h6V0H0Z"/><path class="ja18-2" d="M23,27H22v6h1V27Z"/><rect class="ja18-2" x="21" y="26" width="1" height="1"/><path class="ja18-3" d="M22,27H21v6h1V27Z"/><path class="ja18-2" d="M21,27H20v6h1V27Z"/><path class="ja18-2" d="M20,26h1V25H19v1Z"/><path class="ja18-3" d="M20,27h1V26H19V25H17V24H16V23H13v1H12v1H10v1H8v1H9v6H20V27Z"/><path class="ja18-2" d="M18,25h1V24H17v1Z"/><path class="ja18-2" d="M13,23h3v1h1V21H16v1H13V21H12v3h1Z"/><path class="ja18-2" d="M12,24H10v1h2Z"/><path class="ja18-2" d="M10,25H8v1h2Z"/><path class="ja18-2" d="M9,27H8v6H9V27Z"/><rect class="ja18-2" x="7" y="26" width="1" height="1"/><path class="ja18-3" d="M8,27H7v6H8V27Z"/><path class="ja18-2" d="M7,27H6v6H7V27Z"/><rect class="ja18-2" x="20" y="15" width="1" height="1"/><path class="ja18-4" d="M13,22h3V21h1V20h1V18h1V16h1V15H16V13h3V12H18V11H13V10H12v1H11v1h2v1H10v1h3v1H9v1h1v2h1v2h1v1h1Zm1-6h1v1H14Zm-1,3h3v1H13Z"/><path class="ja18-2" d="M19,17h1V16H19Z"/><path class="ja18-2" d="M10,16H9v1h1Z"/><rect class="ja18-2" x="8" y="15" width="1" height="1"/><rect class="ja18-2" x="14" y="16" width="1" height="1"/><path class="ja18-5" d="M11,15V14H10v1Z"/><path class="ja18-5" d="M16,14v1h1V14Z"/><path class="ja18-2" d="M12,15h1V14H11v1Z"/><path class="ja18-2" d="M18,14H17v1h3V14H18Z"/><path class="ja18-6" d="M10,13h3V12H10Z"/><path class="ja18-6" d="M18,14h1V13H16v1h2Z"/><path class="ja18-7" d="M19,18H18v2H17v1h2V20h1V17H19Z"/><path class="ja18-7" d="M11,20V18H10V17H9v3h1v1h2V20Z"/><rect class="ja18-2" x="13" y="19" width="3" height="1"/><path class="ja18-8" d="M10,14V12h1V11h1V10h1v1h5v1h1v2h1V11H19V10h1V9H19V8H17V9H16V8H13V9H12V8H11V9H10v1H9v5h1Z"/><rect class="ja18-8" x="16" y="7" width="1" height="1"/></svg>