<svg xmlns="http://www.w3.org/2000/svg" viewBox="0 0 29 33"><defs><style>polygon,rect,path{shape-rendering:crispedges;}.za267-1{fill:#29834f;}.za267-2{fill:#000000;}.za267-3{fill:#ffffff;}.za267-4{fill:#e8b795;}.za267-5{fill:#893a1f;}.za267-6{fill:#893a1f;}.za267-7{fill:#45ba00;}.za267-8{fill:#ffffff;}</style></defs><path class="za267-1" d="M0,33H6V27H7V26H8V25h2V24h1V23h1V21H11V20H10V19H9V16H8V14H9V11h1V9h1V8h7V9h1v1h1v4h1v2H20v3H19v1H18v1H17v2h1v1h1v1h2v1h1v1h1v6h6V0H0Z"/><path class="za267-2" d="M23,27H22v6h1V27Z"/><path class="za267-3" d="M22,27H21v6h1V27Z"/><rect class="za267-2" x="21" y="26" width="1" height="1"/><path class="za267-2" d="M21,27H20v6h1V27Z"/><path class="za267-3" d="M20,27h1V26H19V25H18v1H16V25H15v2H14V25H13v1H11V25H10v1H8v1H9v6h5V32h1v1h5V27Zm-5,4H14V30h1Zm0-2H14V28h1Z"/><path class="za267-2" d="M20,26h1V25H19v1Z"/><rect class="za267-3" x="16" y="24" width="1" height="1"/><rect class="za267-2" x="15" y="24" width="1" height="1"/><rect class="za267-2" x="14" y="32" width="1" height="1"/><rect class="za267-2" x="14" y="30" width="1" height="1"/><rect class="za267-2" x="14" y="28" width="1" height="1"/><path class="za267-2" d="M14,26v1h1V25H14Z"/><rect class="za267-2" x="13" y="24" width="1" height="1"/><path class="za267-4" d="M16,24V23H13v1h1v1h1V24Z"/><rect class="za267-3" x="12" y="24" width="1" height="1"/><path class="za267-2" d="M11,26h2V25H12V24h1V22H12v1H11v1H10v1h1Z"/><path class="za267-2" d="M10,25H8v1h2Z"/><path class="za267-2" d="M9,27H8v6H9V27Z"/><path class="za267-3" d="M8,27H7v6H8V27Z"/><rect class="za267-2" x="7" y="26" width="1" height="1"/><path class="za267-2" d="M7,27H6v6H7V27Z"/><path class="za267-2" d="M20,16h1V15H20Z"/><rect class="za267-4" x="16" y="19" width="1" height="1"/><path class="za267-4" d="M16,17V16H15v1H14V16H13v1H10v1h1v1h1v1h1V19h3V18h1v1h1V18h1V17H16Z"/><path class="za267-4" d="M13,21h3V20H13Z"/><rect class="za267-4" x="14" y="15" width="1" height="1"/><path class="za267-4" d="M12,12v1h1v1h3V13H15V12H14V11H13V10H11v1H10v1Z"/><path class="za267-2" d="M16,23v1h1v1H16v1h2V25h1V24H18V23H17V22H16Z"/><path class="za267-2" d="M8,15v1H9V15Z"/><rect class="za267-2" x="14" y="16" width="1" height="1"/><path class="za267-5" d="M12,12H10v1h2Z"/><path class="za267-6" d="M13,23h3V22h1V21h1V20h1V19h1V16H19v2H18v1H17v1H16v1H13V20H12V19H11V18H10V16H9v3h1v1h1v1h1v1h1Z"/><rect class="za267-2" x="13" y="19" width="3" height="1"/><rect class="za267-2" x="16" y="18" width="1" height="1"/><path class="za267-7" d="M11,10h2v1h1v1h1v1h4v1h1V10H19V9H18V8H11V9H10v2h1Z"/><path class="za267-7" d="M10,13V11H9v3h1Z"/><path class="za267-8" d="M19,15v1h1V15h1V14H19Z"/><path class="za267-8" d="M19,14V13H16v1h3Z"/><path class="za267-2" d="M19,14H16v2h3V14Z"/><path class="za267-8" d="M16,16v1h3V16H16Z"/><path class="za267-8" d="M14,16V15h1v1h1V14H13v2Z"/><path class="za267-8" d="M13,14V13H10v1h3Z"/><path class="za267-2" d="M13,16V14H10v2h3Z"/><path class="za267-8" d="M13,17V16H10v1h3Z"/><path class="za267-8" d="M10,15V14H8v1H9v1h1Z"/></svg>