<svg xmlns="http://www.w3.org/2000/svg" viewBox="0 0 29 33"><defs><style>polygon,rect,path{shape-rendering:crispedges;}.ja217-1{fill:#29834f;}.ja217-2{fill:#000000;}.ja217-3{fill:#ff1f4a;}.ja217-4{fill:#ffffff;}.ja217-5{fill:#b2622b;}.ja217-6{fill:#ffffff;}.ja217-7{fill:#004a77;}.ja217-8{fill:#004a77;}.ja217-9{fill:#ff1f4a;}.ja217-10{fill:#560000;}.ja217-11{fill:#e5ac2e;}.ja217-12{fill:#fad000;}.ja217-13{fill:#00e070;}.ja217-14{fill:#ff1d99;}.ja217-15{fill:#10bcff;}.ja217-16{fill:#6e12ff;}.ja217-17{fill:#900;}.ja217-18{fill:#eaeaea;}</style></defs><path class="ja217-1" d="M0,33H6V27H7V26H8V25h2V24h2V22H11V21H10V20H9V16H8V15H9V8h1V9h1V7h1V8h2V7H13V6h1V5h1V6h1V7H15V8h2V7h1V9h1V8h1v7h1v1H20v4H19v1H18v1H17v2h2v1h2v1h1v1h1v6h6V0H0Z"/><path class="ja217-2" d="M23,27H22v6h1V27Z"/><rect class="ja217-2" x="21" y="26" width="1" height="1"/><path class="ja217-3" d="M21,31h1V30H21Z"/><path class="ja217-3" d="M21,28h1V27H21Z"/><path class="ja217-2" d="M21,30V27H20v6h1V30Z"/><path class="ja217-2" d="M20,26h1V25H19v1Z"/><path class="ja217-3" d="M17,25V24H12v1Z"/><path class="ja217-3" d="M9,27v1H20V27H9Z"/><path class="ja217-3" d="M9,31H20V30H9Z"/><path class="ja217-2" d="M18,25h1V24H17v1Z"/><path class="ja217-2" d="M13,23V22H12v2h1Z"/><path class="ja217-2" d="M12,24H10v1h2Z"/><path class="ja217-2" d="M10,25H8v1h2Z"/><path class="ja217-2" d="M9,30V27H8v6H9V30Z"/><rect class="ja217-2" x="7" y="26" width="1" height="1"/><path class="ja217-3" d="M7,31H8V30H7Z"/><path class="ja217-3" d="M8,28V27H7v1Z"/><path class="ja217-2" d="M7,30V27H6v6H7V30Z"/><path class="ja217-4" d="M9,31v2H20V31Z"/><path class="ja217-4" d="M9,29v1H20V28H9Z"/><path class="ja217-4" d="M9,27H21V26H19V25H10v1H8v1Z"/><path class="ja217-4" d="M15,23H13v1h3V23Z"/><path class="ja217-4" d="M7,29v1H8V28H7Z"/><path class="ja217-4" d="M7,31v2H8V31Z"/><path class="ja217-4" d="M21,31v2h1V31Z"/><path class="ja217-4" d="M21,29v1h1V28H21Z"/><rect class="ja217-2" x="20" y="15" width="1" height="1"/><path class="ja217-2" d="M19,13v2h1V12H19Z"/><rect class="ja217-5" x="9" y="15" width="1" height="1"/><path class="ja217-5" d="M17,16H16V14h2V13H16V12H15v3H14v1h1v1H14V16H13v1H11V16H10v2h1v1h1V18h2v1h1V18h2v1h1V18h1V16H17Z"/><rect class="ja217-5" x="19" y="15" width="1" height="1"/><rect class="ja217-5" x="13" y="20" width="1" height="1"/><rect class="ja217-5" x="18" y="12" width="1" height="1"/><rect class="ja217-5" x="15" y="20" width="1" height="1"/><path class="ja217-2" d="M16,23v1h1V22H16Z"/><rect class="ja217-2" x="8" y="15" width="1" height="1"/><rect class="ja217-2" x="14" y="16" width="1" height="1"/><path class="ja217-6" d="M17,14H16v2h1V14Z"/><path class="ja217-6" d="M19,14H18v2h1V14Z"/><path class="ja217-2" d="M17,15v1h1V14H17Z"/><path class="ja217-7" d="M18,14h1V13H18Z"/><polygon class="ja217-7" points="17 12 16 12 16 13 18 13 18 12 17 12"/><path class="ja217-8" d="M15,18v1h1V18Z"/><path class="ja217-8" d="M13,23h3V22h2V21h1V20h1V16H19v2H18v1H16v2H15V20H14v1H13V19h1V18H12v1H11V18H10V16H9v4h1v1h1v1h2Z"/><path class="ja217-2" d="M14,19H13v1h3V19H14Z"/><path class="ja217-2" d="M16,18v1h1V18Z"/><path class="ja217-9" d="M11,15h2V13H11v2Z"/><path class="ja217-10" d="M13,13v2h1V13Z"/><path class="ja217-10" d="M11,15v1h2V15Z"/><path class="ja217-10" d="M11,14V13H10v2h1Z"/><path class="ja217-10" d="M13,12H11v1h2Z"/><rect class="ja217-2" x="10" y="15" width="1" height="1"/><path class="ja217-2" d="M11,17h2V16H11Z"/><rect class="ja217-2" x="13" y="15" width="1" height="1"/><path class="ja217-2" d="M13,13h1v2h1V12H13Z"/><path class="ja217-2" d="M10,14V13h1V12H9v3h1Z"/><rect class="ja217-1" x="17" y="9" width="1" height="1"/><rect class="ja217-11" x="12" y="10" width="1" height="1"/><rect class="ja217-11" x="16" y="10" width="1" height="1"/><rect class="ja217-1" x="11" y="9" width="1" height="1"/><rect class="ja217-9" x="14" y="10" width="1" height="1"/><rect class="ja217-9" x="13" y="9" width="1" height="1"/><path class="ja217-6" d="M12,7H11V8h1Z"/><path class="ja217-6" d="M13,9V8H12V9Z"/><path class="ja217-6" d="M17,9V8H16V9Z"/><rect class="ja217-6" x="18" y="9" width="1" height="1"/><rect class="ja217-6" x="10" y="9" width="1" height="1"/><path class="ja217-6" d="M10,8H9V9h1Z"/><path class="ja217-6" d="M18,7H17V8h1Z"/><rect class="ja217-12" x="16" y="9" width="1" height="1"/><rect class="ja217-12" x="12" y="9" width="1" height="1"/><rect class="ja217-13" x="11" y="10" width="1" height="1"/><path class="ja217-12" d="M12,8H11V9h1Z"/><path class="ja217-12" d="M18,9V8H17V9Z"/><path class="ja217-14" d="M10,10H9v1h1Z"/><rect class="ja217-15" x="17" y="10" width="1" height="1"/><path class="ja217-12" d="M15,12h4V10H18v1H16V10H15v1H14V10H13v1H11V10H10v2h5Z"/><path class="ja217-16" d="M19,11h1V10H19Z"/><path class="ja217-6" d="M20,8H19V9h1Z"/><rect class="ja217-9" x="15" y="9" width="1" height="1"/><rect class="ja217-9" x="14" y="8" width="1" height="1"/><rect class="ja217-17" x="14" y="9" width="1" height="1"/><path class="ja217-12" d="M14,9V8H13V9Z"/><path class="ja217-12" d="M16,9V8H15V9Z"/><rect class="ja217-18" x="14" y="6" width="1" height="1"/><rect class="ja217-6" x="14" y="7" width="1" height="1"/><rect class="ja217-6" x="13" y="6" width="1" height="1"/><rect class="ja217-6" x="15" y="6" width="1" height="1"/><rect class="ja217-6" x="14" y="5" width="1" height="1"/><path class="ja217-11" d="M10,11H9v1h1Z"/><path class="ja217-11" d="M19,12h1V11H19Z"/><path class="ja217-11" d="M20,10V9H19v1Z"/><path class="ja217-11" d="M10,9H9v1h1Z"/></svg>