<svg xmlns="http://www.w3.org/2000/svg" viewBox="0 0 29 33"><defs><style>polygon,rect,path{shape-rendering:crispedges;}.ya293-1{fill:#6b4f99;}.ya293-2{fill:#326b43;}.ya293-3{fill:#000000;}.ya293-4{fill:#c18d59;}.ya293-5{fill:#4922aa;}.ya293-6{fill:#0068ff;}</style></defs><path class="ya293-1" d="M0,33H8V32H6V31H5V23H4V20H5V19H7v1H8v1H9v2H8v2h2V24h1V23h1V21H10V20H9V16H8V15H9V11h1V10h1V9h7v1h2v5h1v1H20v4H19v1H17v2h1v1h1v1h2V23H20V21h1V20h1V19h2v1h1v3H24v8H23v1H21v1h8V0H0Z"/><path class="ya293-2" d="M20,27h1V26H19V25H18v1H16V25H15v2H14V25H13v1H11V25H10v1H8v1H9v6h5V32h1v1h5V27Zm-5,4H14V30h1Zm0-2H14V28h1Z"/><rect class="ya293-2" x="16" y="24" width="1" height="1"/><rect class="ya293-3" x="15" y="24" width="1" height="1"/><rect class="ya293-3" x="14" y="32" width="1" height="1"/><rect class="ya293-3" x="14" y="30" width="1" height="1"/><rect class="ya293-3" x="14" y="28" width="1" height="1"/><path class="ya293-3" d="M14,26v1h1V25H14Z"/><rect class="ya293-3" x="13" y="24" width="1" height="1"/><path class="ya293-4" d="M16,24V23H13v1h1v1h1V24Z"/><rect class="ya293-2" x="12" y="24" width="1" height="1"/><path class="ya293-3" d="M11,26h2V25H12V24h1V23h3v1h1v1H16v1h2V25h1V24H18V23H17V21H16v1H13V21H12v2H11v1H10v1h1Z"/><path class="ya293-3" d="M6,24V23H5v8H6V24Z"/><path class="ya293-3" d="M9,27H8V26h2V25H8V23H7v8H6v1H8v1H9V27Z"/><path class="ya293-2" d="M7,30V24H6v7H7Z"/><path class="ya293-3" d="M23,24v7h1V23H23Z"/><path class="ya293-3" d="M22,32h1V31H22V23H21v2H19v1h2v1H20v6h1V32Z"/><path class="ya293-2" d="M23,24H22v7h1V24Z"/><rect class="ya293-3" x="20" y="15" width="1" height="1"/><rect class="ya293-4" x="9" y="15" width="1" height="1"/><rect class="ya293-4" x="12" y="13" width="1" height="1"/><path class="ya293-4" d="M13,22h3V21h1V20h1V18h1V17H18V16H16V15H15v2H14V16H13v1H11V16H10v2h1v2h1v1h1Zm0-3h3V18h1v1H16v1H13Z"/><rect class="ya293-4" x="19" y="15" width="1" height="1"/><path class="ya293-3" d="M19,17h1V16H19Z"/><path class="ya293-3" d="M10,16H9v1h1Z"/><rect class="ya293-3" x="8" y="15" width="1" height="1"/><path class="ya293-3" d="M14,17h1V16H14Z"/><path class="ya293-5" d="M19,18H18v2H17v1h2V20h1V17H19Z"/><path class="ya293-5" d="M11,20V18H10V17H9v3h1v1h2V20Z"/><rect class="ya293-3" x="13" y="19" width="3" height="1"/><rect class="ya293-3" x="16" y="18" width="1" height="1"/><path class="ya293-3" d="M20,21v2h1V21Z"/><rect class="ya293-3" x="21" y="20" width="1" height="1"/><rect class="ya293-3" x="22" y="19" width="2" height="1"/><path class="ya293-3" d="M24,23h1V20H24v3Z"/><path class="ya293-4" d="M22,24h1V23h1V20H22v1H21v2h1Z"/><path class="ya293-3" d="M9,23V21H8v2Z"/><rect class="ya293-3" x="7" y="20" width="1" height="1"/><rect class="ya293-3" x="5" y="19" width="2" height="1"/><path class="ya293-3" d="M5,20H4v3H5V20Z"/><path class="ya293-4" d="M6,24H7V23H8V21H7V20H5v3H6Z"/><path class="ya293-6" d="M19,12H18v1H16v1H14v2h1V15h1v1h2v1h1V15h1V11H19Z"/><path class="ya293-6" d="M10,14H9v1h1Z"/><path class="ya293-6" d="M10,14h2V13h1v1h1V13h2V12h2V11h1V10H18V9H11v1H10v1H9v2h1Z"/><path class="ya293-3" d="M13,14H10v2h1v1h2V16h1V14Z"/><rect class="ya293-3" x="14" y="13" width="2" height="1"/><rect class="ya293-3" x="16" y="12" width="2" height="1"/><rect class="ya293-3" x="18" y="11" width="1" height="1"/><path class="ya293-3" d="M20,11V10H19v1Z"/><path class="ya293-3" d="M10,13H9v1h1Z"/></svg>