<svg xmlns="http://www.w3.org/2000/svg" viewBox="0 0 29 33"><defs><style>polygon,rect,path{shape-rendering:crispedges;}.ya86-1{fill:#d4a122;}.ya86-2{fill:#000000;}.ya86-3{fill:#cc3232;}.ya86-4{fill:#ce8452;}.ya86-5{fill:#f9e100;}.ya86-6{fill:#492a23;}.ya86-7{fill:#ffffff;}.ya86-8{fill:#8c7850;}.ya86-9{fill:#4922aa;}.ya86-10{fill:#ff1d99;}.ya86-11{fill:#e281bf;}.ya86-12{fill:#b5b58a;}</style></defs><path class="ya86-1" d="M20,22V21H19V20H18v1H17v2h1v1h1v1h1Z"/><rect class="ya86-1" x="26" y="19" width="1"/><path class="ya86-1" d="M0,33H29V0H0Zm6-1V27H7V26H8V25h2V24h1V23h1V21H11V20H10V19H9V16H8V15H9V11h1V10h1V9h7v1h1v1h1v4h1v1H20v3h2V18h1V17h3v1h1v1h1v3H27v1H26v1H23V23H22V22H21v2h1v1h1v8H6Z"/><path class="ya86-1" d="M24,18h0Z"/><polygon class="ya86-1" points="19 20 20 20 20 20 20 19 19 19 19 20"/><rect class="ya86-1" x="20" y="21" width="1"/><path class="ya86-2" d="M7,32V27H6v6H7Z"/><path class="ya86-3" d="M8,29V27H7v2Z"/><path class="ya86-3" d="M7,31v2H8V31Z"/><rect class="ya86-2" x="7" y="26" width="1" height="1"/><path class="ya86-2" d="M9,31V27H8v6H9V31Z"/><path class="ya86-3" d="M10,31V30H9v2h1v1h1V31Z"/><path class="ya86-3" d="M14,31H13V30H12V28H11V27H10V26H9v2h1v1h1v2h1v1h1v1h1V31Z"/><path class="ya86-3" d="M16,31V30H15v2h1v1h1V31Z"/><path class="ya86-3" d="M19,31V30H18V28H17V27H16V25H15v3h1v1h1v2h1v1h1v1h1V31Z"/><path class="ya86-3" d="M13,29h1V27H13V26H12v2h1Z"/><path class="ya86-3" d="M19,28v1h1V27H19V25H18v3Z"/><rect class="ya86-3" x="14" y="29" width="1" height="1"/><path class="ya86-2" d="M10,26V25H8v1h2Z"/><path class="ya86-2" d="M11,26h2V25H12V24h1V23h3v1h1v1H16v1h2V25h1V24H18V23H17V21H16v1H13V21H12v2H11v1H10v1h1Z"/><rect class="ya86-2" x="13" y="24" width="1" height="1"/><path class="ya86-2" d="M14,32v1h1V32Z"/><path class="ya86-2" d="M14,31h1V30H14Z"/><path class="ya86-2" d="M14,29h1V28H14Z"/><path class="ya86-2" d="M14,26v1h1V25H14Z"/><rect class="ya86-2" x="15" y="24" width="1" height="1"/><path class="ya86-4" d="M14,25h1V24h1V23H13v1h1Z"/><rect class="ya86-3" x="16" y="24" width="1" height="1"/><path class="ya86-2" d="M21,31V26H20v7h1V31Z"/><path class="ya86-2" d="M20,26V25H19v1Z"/><path class="ya86-3" d="M22,28V27H21v1Z"/><path class="ya86-3" d="M21,31v1h1V30H21Z"/><path class="ya86-2" d="M22,28v5h1V25H22v3Z"/><path class="ya86-5" d="M19,28H18v2h1v1h1V29H19Z"/><path class="ya86-5" d="M21,32v1h1V32Z"/><path class="ya86-5" d="M17,27v1h1V26H16v1Z"/><path class="ya86-5" d="M19,27h1V26H19Z"/><path class="ya86-5" d="M21,29v1h1V28H21Z"/><path class="ya86-5" d="M18,32V31H17v2h2V32Z"/><path class="ya86-5" d="M15,30h1v1h1V29H16V28H15v2Z"/><polygon class="ya86-5" points="14 27 14 26 14 25 13 25 13 26 13 27 14 27"/><path class="ya86-5" d="M14,28h1V27H14Z"/><path class="ya86-5" d="M15,32v1h1V32Z"/><path class="ya86-5" d="M14,32h1V31H14Z"/><path class="ya86-5" d="M13,30v1h1V29H13V28H12v2Z"/><rect class="ya86-5" x="12" y="24" width="1" height="1"/><path class="ya86-5" d="M10,27h1v1h1V26H11V25H10v2Z"/><path class="ya86-5" d="M12,32V31H11v2h2V32Z"/><path class="ya86-5" d="M10,30v1h1V29H10V28H9v2Z"/><path class="ya86-5" d="M9,32v1h1V32Z"/><path class="ya86-5" d="M9,27V26H8v1Z"/><path class="ya86-5" d="M8,30V29H7v2H8Z"/><rect class="ya86-2" x="20" y="15" width="1" height="1"/><path class="ya86-2" d="M19,13v2h1V12H19Z"/><rect class="ya86-4" x="11" y="10" width="1" height="1"/><rect class="ya86-4" x="16" y="19" width="1" height="1"/><rect class="ya86-4" x="15" y="20" width="1" height="1"/><rect class="ya86-4" x="12" y="19" width="1" height="1"/><rect class="ya86-4" x="17" y="10" width="1" height="1"/><rect class="ya86-4" x="13" y="20" width="1" height="1"/><path class="ya86-4" d="M12,19V18h5v1h2V16h1V15H19V11H18v1H17V11H16V10H13v1H12v1H11V11H10v4H9v1h1v3h2Zm-1-5h1V13h1V12h3v1h1v1h1v1H16v1H15v1H14V16H13V15H11Z"/><path class="ya86-2" d="M19,17v2h1V16H19Z"/><path class="ya86-2" d="M19,20V19H18v1Z"/><rect class="ya86-2" x="17" y="20" width="1" height="1"/><rect class="ya86-2" x="11" y="20" width="1" height="1"/><path class="ya86-2" d="M10,19v1h1V19Z"/><path class="ya86-2" d="M10,14V12H9v3h1Z"/><path class="ya86-2" d="M10,16H9v3h1V16Z"/><rect class="ya86-2" x="8" y="15" width="1" height="1"/><path class="ya86-6" d="M18,15V14H17v1Z"/><rect class="ya86-6" x="16" y="13" width="1" height="1"/><rect class="ya86-2" x="14" y="14" width="1" height="1"/><path class="ya86-7" d="M13,15v1h3V15h1V14H16V13H13v1H12v1Zm1-1h1v1H14Z"/><path class="ya86-6" d="M16,13V12H13v1h3Z"/><rect class="ya86-6" x="12" y="13" width="1" height="1"/><rect class="ya86-6" x="11" y="14" width="1" height="1"/><path class="ya86-2" d="M14,17h1V16H14Z"/><path class="ya86-8" d="M18,20V19H17v1Z"/><rect class="ya86-8" x="16" y="20" width="1" height="1"/><path class="ya86-8" d="M15,20H14v1H13v1h3V21H15Z"/><path class="ya86-8" d="M14,19h3V18H13v1Z"/><rect class="ya86-8" x="12" y="20" width="1" height="1"/><path class="ya86-8" d="M12,19H11v1h1Z"/><path class="ya86-2" d="M15,20h1V19H13v1h2Z"/><path class="ya86-2" d="M13,18H12v1h1Z"/><path class="ya86-9" d="M20,12V11H19v1Z"/><rect class="ya86-9" x="18" y="10" width="1" height="1"/><path class="ya86-9" d="M12,11h1V10h3v1h1V10h1V9H11v1h1Z"/><rect class="ya86-9" x="17" y="11" width="1" height="1"/><rect class="ya86-9" x="11" y="11" width="1" height="1"/><rect class="ya86-9" x="10" y="10" width="1" height="1"/><path class="ya86-9" d="M10,11H9v1h1Z"/><polygon class="ya86-10" points="20 21 20 21 20 20 19 20 19 21 20 21"/><polygon class="ya86-10" points="21 20 21 19 20 19 20 20 21 20"/><rect class="ya86-11" x="21" y="20" width="1" height="1"/><path class="ya86-10" d="M20,21v4h1V21Z"/><path class="ya86-4" d="M20,25v1h1v1h1V25H20Z"/><path class="ya86-2" d="M22,25V24H21v1Z"/><polygon class="ya86-12" points="26 19 27 19 27 18 26 18 26 18 26 19"/><path class="ya86-12" d="M22,20v1H21v1h1v1h1v1h3V23h1V22h1V19H27v1H26V19H24V18h2V17H23v1H22v1H21v1Z"/><polygon class="ya86-12" points="21 21 21 20 20 20 20 20 20 21 21 21"/><polygon class="ya86-7" points="26 20 26 20 27 20 27 19 26 19 26 20"/><path class="ya86-7" d="M26,18H24v1h2Z"/></svg>