<svg xmlns="http://www.w3.org/2000/svg" viewBox="0 0 29 33"><defs><style>polygon,rect,path{shape-rendering:crispedges;}.ja190-1{fill:#d4a122;}.ja190-2{fill:#000000;}.ja190-3{fill:#99ce09;}.ja190-4{fill:#e1ff85;}.ja190-5{fill:#512a24;}.ja190-6{fill:#ffffff;}.ja190-7{fill:#4922aa;}.ja190-8{fill:#4922aa;}.ja190-9{fill:#0068ff;}.ja190-10{fill:#fad000;}.ja190-11{fill:#ff1d99;}.ja190-12{fill:#e281bf;}.ja190-13{fill:#b5b58a;}</style></defs><rect class="ja190-1" x="26" y="19" height="1"/><rect class="ja190-1" x="24" y="18" height="1"/><path class="ja190-1" d="M0,33H6V27H7V26H8V25h2V24h2V21H11V20H10V19H9V17H8V14H9V12H8v1H7V12H8V11H9V10h1V9h2V8h5V9h2v1h1v1h1v1h1v1H21V12H20v2h1v3H20v2h2V18h1V17h3v1h1v1h1v3H27v1H26v1H23V23H22V22H21v2h1v1h1v8h6V0H0Z"/><polygon class="ja190-1" points="19 20 20 20 20 20 20 19 19 19 19 20"/><path class="ja190-1" d="M18,24h1v1h1V21H19V20H18v1H17v3Z"/><path class="ja190-2" d="M7,30V27H6v6H7V30Z"/><rect class="ja190-2" x="7" y="26" width="1" height="1"/><path class="ja190-3" d="M8,29V27H7v2Z"/><path class="ja190-3" d="M7,31v2H8V31Z"/><path class="ja190-2" d="M9,31V27H8v6H9V31Z"/><path class="ja190-2" d="M10,26V25H8v1h2Z"/><path class="ja190-3" d="M19,26V25H17v1h1v2h1v1h1V27H19Z"/><path class="ja190-3" d="M10,31V30H9v2h1v1h1V31Z"/><path class="ja190-3" d="M19,31V30H18V28H17V27H16V25H15V24H14V23H13v2h1v1h1v2h1v1h1v2h1v1h1v1h1V31Z"/><path class="ja190-3" d="M13,31V30H12V28H11V27H10V26H9v2h1v1h1v2h1v1h1v1h1V31Z"/><rect class="ja190-3" x="16" y="24" width="1" height="1"/><path class="ja190-3" d="M16,31V30H15V28H14V27H13V25H11v1h1v2h1v1h1v2h1v1h1v1h1V31Z"/><path class="ja190-2" d="M12,25V24H10v1h2Z"/><path class="ja190-2" d="M13,23V22H12v2h1Z"/><path class="ja190-2" d="M17,24V22H16v2Z"/><path class="ja190-2" d="M18,24H17v1h2V24Z"/><path class="ja190-2" d="M21,31V26H20v7h1V31Z"/><rect class="ja190-2" x="19" y="25" width="1" height="1"/><path class="ja190-3" d="M21,31v1h1V30H21Z"/><path class="ja190-3" d="M21,28h1V27H21Z"/><path class="ja190-2" d="M23,25H22v8h1V25Z"/><path class="ja190-4" d="M19,28H18v2h1v1h1V29H19Z"/><path class="ja190-4" d="M21,32v1h1V32Z"/><path class="ja190-4" d="M17,26V25H16v2h1v1h1V26Z"/><path class="ja190-4" d="M19,27h1V26H19Z"/><path class="ja190-4" d="M21,29v1h1V28H21Z"/><path class="ja190-4" d="M18,32V31H17v2h2V32Z"/><path class="ja190-4" d="M16,30v1h1V29H16V28H15v2Z"/><path class="ja190-4" d="M16,23H14v1h1v1h1V23Z"/><path class="ja190-4" d="M14,27v1h1V26H14V25H13v2Z"/><path class="ja190-4" d="M15,32V31H14v2h2V32Z"/><path class="ja190-4" d="M13,30v1h1V29H13V28H12v2Z"/><path class="ja190-4" d="M13,25V24H12v1Z"/><path class="ja190-4" d="M10,27h1v1h1V26H11V25H10v2Z"/><path class="ja190-4" d="M12,32V31H11v2h2V32Z"/><path class="ja190-4" d="M10,30v1h1V29H10V28H9v2Z"/><path class="ja190-4" d="M9,32v1h1V32Z"/><path class="ja190-4" d="M9,27V26H8v1Z"/><path class="ja190-4" d="M7,30v1H8V29H7Z"/><path class="ja190-2" d="M20,16h1V15H20Z"/><rect class="ja190-2" x="19" y="14" width="1" height="1"/><rect class="ja190-5" x="12" y="19" width="1" height="1"/><rect class="ja190-5" x="19" y="15" width="1" height="1"/><rect class="ja190-5" x="9" y="15" width="1" height="1"/><path class="ja190-5" d="M13,21h3V20H13Z"/><path class="ja190-5" d="M17,16H16V14h2V13H16V12H15V11H14v1H13v1H11v1h2v2H10v2h1v1h1V18h1v1h3v1h1V19h1V18h1V16H17Zm-2,1H14V16h1Z"/><rect class="ja190-2" x="9" y="14" width="1" height="1"/><path class="ja190-2" d="M9,15H8v1H9Z"/><rect class="ja190-2" x="14" y="16" width="1" height="1"/><path class="ja190-6" d="M11,15V14H10v2h1Z"/><path class="ja190-6" d="M13,16V14H12v2Z"/><path class="ja190-6" d="M17,14H16v2h1V14Z"/><path class="ja190-6" d="M19,14H18v2h1V14Z"/><path class="ja190-2" d="M11,16h1V14H11v2Z"/><path class="ja190-2" d="M17,15v1h1V14H17Z"/><rect class="ja190-7" x="18" y="13" width="1" height="1"/><path class="ja190-7" d="M17,13V12H16v1Z"/><rect class="ja190-7" x="10" y="13" width="1" height="1"/><path class="ja190-7" d="M13,12H12v1h1Z"/><path class="ja190-8" d="M13,23h3V22h1V21h1V20h1V19h1V16H19v2H18v1H17v1H16v1H13V20H12V19H11V18H10V16H9v3h1v1h1v1h1v1h1Z"/><rect class="ja190-2" x="13" y="19" width="3" height="1"/><rect class="ja190-2" x="12" y="18" width="1" height="1"/><rect class="ja190-9" x="21" y="12" width="1" height="1"/><path class="ja190-9" d="M10,13h2V12h2V11h1v1h2v1h2v1h1V12h1V11H20V10H19V9H17V8H12V9H10v1H9v1H8v1H9v2h1Z"/><path class="ja190-9" d="M21,15V14H20v1Z"/><path class="ja190-9" d="M9,14H8v1H9Z"/><rect class="ja190-9" x="7" y="12" width="1" height="1"/><path class="ja190-10" d="M20,17h1V16H20Z"/><path class="ja190-10" d="M8,16v1H9V16Z"/><polygon class="ja190-11" points="20 21 20 20 19 20 19 21 20 21"/><path class="ja190-11" d="M21,20V19H20v1Z"/><polygon class="ja190-12" points="21 21 22 21 22 20 21 20 21 20 21 21 21 21"/><path class="ja190-11" d="M21,21H20v4h1V22h0Z"/><path class="ja190-5" d="M20,25v1h1v1h1V25H20Z"/><path class="ja190-2" d="M22,25V24H21v1Z"/><polygon class="ja190-13" points="27 19 27 18 26 18 26 19 27 19"/><path class="ja190-13" d="M21,20h1v1H21v1h1v1h1v1h3V23h1V22h1V19H27v1H26V19H24V18h2V17H23v1H22v1H21v1Z"/><polygon class="ja190-13" points="20 21 21 21 21 20 20 20 20 20 20 21 20 21"/><polygon class="ja190-6" points="26 20 27 20 27 19 27 19 26 19 26 20"/><path class="ja190-6" d="M24,19h2V18H24Z"/></svg>