<svg xmlns="http://www.w3.org/2000/svg" viewBox="0 0 29 33"><defs><style>polygon,rect,path{shape-rendering:crispedges;}.ea78-1{fill:#e55b35;}.ea78-2{fill:#000000;}.ea78-3{fill:#8e9350;}.ea78-4{fill:#efcaaf;}.ea78-5{fill:#8e9350;}.ea78-6{fill:#8e4717;}.ea78-7{fill:#663434;}.ea78-8{fill:#0068ff;}.ea78-9{fill:#68aaad;}.ea78-10{fill:#a3531d;}.ea78-11{fill:#cebfb3;}</style></defs><path class="ea78-1" d="M20,25h1V24H19v1Z"/><path class="ea78-1" d="M0,33H29V0H0Zm6-1V27H7V26H8V25h2V24h2V21H11V20H10V19H9V16H8V15H9V11h1V10h1V9h2V7h1V6h2V5h2V6H17V7h1v3h1v1h1v4h1v1H20v3H19v1H18v1H17v3h2V23h0V21h3v1h1v1h1v8H23v1H21v1H6Z"/><rect class="ea78-2" x="7" y="26" width="1" height="1"/><path class="ea78-2" d="M7,32V31H8v2H9V27H8v3H7V27H6v6H7Z"/><path class="ea78-2" d="M10,25H8v1h2Z"/><path class="ea78-2" d="M12,24H10v1h2Z"/><path class="ea78-2" d="M13,23V22H12v2h1Z"/><path class="ea78-2" d="M18,25h1V24H17v1Z"/><path class="ea78-2" d="M22,30V24H21v1H19v1h2v1H20v6h1V32h2V31H22Z"/><path class="ea78-2" d="M23,31h1V23H23v8Z"/><path class="ea78-3" d="M9,27v6H20V27h1V26H19V25H17v1H16v1H13V26H12V25H10v1H8v1Zm7,4V28h3v1H17v2h1V30h1v2H16Zm-4-3h3v4H12Zm-2,3V28h1v4H10Z"/><rect class="ea78-3" x="13" y="29" width="1" height="2"/><path class="ea78-2" d="M13,26v1h3V26H13Z"/><path class="ea78-4" d="M13,25v1h3V25h1V24H16V23H13v1H12v1Z"/><path class="ea78-3" d="M7,30H8V27H7v3Z"/><path class="ea78-4" d="M7,31v2H8V31Z"/><rect class="ea78-2" x="16" y="25" width="1" height="1"/><rect class="ea78-2" x="12" y="25" width="1" height="1"/><path class="ea78-5" d="M15,28H12v4h3Zm-1,3H13V29h1Z"/><path class="ea78-5" d="M11,31V28H10v4h1Z"/><path class="ea78-5" d="M19,32V30H18v1H17V29h2V28H16v4h3Z"/><rect class="ea78-2" x="20" y="15" width="1" height="1"/><path class="ea78-2" d="M15,13v1h4v1h1V11H19v2Z"/><rect class="ea78-4" x="15" y="20" width="1" height="1"/><rect class="ea78-4" x="13" y="20" width="1" height="1"/><path class="ea78-4" d="M13,12v1h1v1h1V13h4V11H18V10H15v1H13V10H11v1H10v1Z"/><rect class="ea78-4" x="19" y="15" width="1" height="1"/><path class="ea78-4" d="M18,16H16V15H13v1H10v2h1v1h1V18h2v1h1V18h2v1h1V18h1V16Zm-3,1H14V16h1Z"/><rect class="ea78-4" x="9" y="15" width="1" height="1"/><path class="ea78-2" d="M19,17h1V16H19Z"/><rect class="ea78-2" x="18" y="10" width="1" height="1"/><path class="ea78-2" d="M16,23v1h1V22H16Z"/><path class="ea78-2" d="M16,10h2V9H16Z"/><path class="ea78-2" d="M13,9H11v1h2Z"/><rect class="ea78-2" x="10" y="10" width="1" height="1"/><path class="ea78-2" d="M10,16H9v1h1Z"/><rect class="ea78-2" x="8" y="15" width="1" height="1"/><rect class="ea78-2" x="14" y="16" width="1" height="1"/><path class="ea78-6" d="M10,12v1h3V12Z"/><path class="ea78-7" d="M14,18H13v1h1Z"/><path class="ea78-7" d="M13,23h3V22h1V21h1V20h1V19h1V17H19v1H18v1H17V18H15v1h1v2H15V20H14v1H13V19H11V18H10V17H9v2h1v1h1v1h1v1h1Z"/><path class="ea78-2" d="M13,19v1h3V19H13Z"/><path class="ea78-2" d="M12,18v1h1V18Z"/><path class="ea78-8" d="M13,11h2V10h1V9h2V7H17V6h1V5H16V6H14V7H13v4Z"/><path class="ea78-9" d="M13,16V15h1V14H10v2h3Z"/><path class="ea78-9" d="M16,15v1h3V14H15v1Z"/><path class="ea78-2" d="M10,14h4V13H10V11H9v4h1Z"/><path class="ea78-2" d="M15,15V14H14v1Z"/><path class="ea78-10" d="M21,23H19v1h2Z"/><path class="ea78-11" d="M22,22V21H19v2h3V22Z"/><path class="ea78-4" d="M22,24v7h1V23H21v1Z"/><path class="ea78-2" d="M23,22H22v1h1Z"/><rect class="ea78-8" x="18" y="9" width="1" height="1"></rect></svg>