<svg xmlns="http://www.w3.org/2000/svg" viewBox="0 0 29 33"><defs><style>polygon,rect,path{shape-rendering:crispedges;}.qa24-1{fill:#d14646;}.qa24-2{fill:#000000;}.qa24-3{fill:#ffffff;}.qa24-4{fill:#c18d59;}.qa24-5{fill:#ffffff;}.qa24-6{fill:#ffffff;}.qa24-7{fill:#4922aa;}.qa24-8{fill:#4922aa;}.qa24-9{fill:#c8a715;}.qa24-10{fill:#685432;}.qa24-11{fill:#fad000;}</style></defs><path class="qa24-1" d="M28,3H27V5H26V6H25V7H24V8h1V9H24v5H23v6H22v1h1v1h1v9H23v1H21v1h8V0H28Z"/><path class="qa24-1" d="M6,27H7V26H8V25h2V20H9V16H8V15H9V13H8V9H9V8h1V7h1V6h7V7h1V8h1V9h1v4H20v2h1v1H20v4H19v5h2V20h1V14h1V9H22V8h1V7H22V6H21V5H20V3H19V0H0V33H6V27Z"/><path class="qa24-2" d="M23,29v2h1V22H23v7Z"/><path class="qa24-2" d="M7,27H6v6H7V27Z"/><path class="qa24-3" d="M8,27H7v6H8V27Z"/><rect class="qa24-2" x="7" y="26" width="1" height="1"/><path class="qa24-2" d="M9,31V27H8v6H9V31Z"/><rect class="qa24-3" x="10" y="29" width="1" height="1"/><path class="qa24-3" d="M18,24H17v5h1V28h1v1h1V27h1V26H19V25H18Z"/><path class="qa24-3" d="M19,32V31H18v1H17V30H16v1H15v1H13V30H12v2H11V31H10v1H9v1H20V32Z"/><rect class="qa24-3" x="18" y="29" width="1" height="1"/><path class="qa24-3" d="M10,28h1v1h1V24H11v1H10v1H8v1H9v2h1Z"/><path class="qa24-2" d="M10,25H8v1h2Z"/><path class="qa24-2" d="M11,24H10v1h1Z"/><rect class="qa24-3" x="11" y="22" width="1" height="1"/><rect class="qa24-2" x="11" y="23" width="1" height="1"/><path class="qa24-2" d="M15,24H13v1h3V24Z"/><path class="qa24-4" d="M14,24h2V23H13v1Z"/><rect class="qa24-2" x="17" y="23" width="1" height="1"/><rect class="qa24-3" x="17" y="22" width="1" height="1"/><path class="qa24-2" d="M18,24v1h1V24Z"/><path class="qa24-2" d="M22,32h1V31H22V23H21v2H19v1h2v1H20v6h1V32Z"/><path class="qa24-3" d="M23,24H22v7h1V24Z"/><path class="qa24-3" d="M14,29v2h1V29Z"/><path class="qa24-3" d="M13,25v3h2v1h1V25H13Z"/><path class="qa24-5" d="M19,30H18V29H17v3h1V31h1v1h1V29H19Z"/><rect class="qa24-5" x="18" y="28" width="1" height="1"/><path class="qa24-5" d="M15,29v2h1V29Z"/><path class="qa24-5" d="M14,30V29h1V28H13v4h2V31H14Z"/><path class="qa24-5" d="M11,29v1H10V29H9v3h1V31h1v1h1V29Z"/><rect class="qa24-5" x="10" y="28" width="1" height="1"/><path class="qa24-2" d="M13,25H12v5h1V25Z"/><path class="qa24-2" d="M17,28V25H16v5h1V28Z"/><rect class="qa24-2" x="20" y="15" width="1" height="1"/><path class="qa24-2" d="M19,15h1V14H19Z"/><polygon class="qa24-4" points="13 21 14 21 14 22 15 22 15 21 16 21 16 20 13 20 13 21"/><path class="qa24-4" d="M10,17v1h1v1h1V18h2v1h1V18h2v1h1V18h1V16h1V15H16V14h3V13H16V12h2V11H11v1h2v1H10v1h3v1H9v1h1Zm4-1h1v1H14Z"/><path class="qa24-2" d="M19,17h1V16H19Z"/><path class="qa24-2" d="M10,14H9v1h1Z"/><path class="qa24-2" d="M10,16H9v1h1Z"/><rect class="qa24-2" x="8" y="15" width="1" height="1"/><rect class="qa24-2" x="14" y="16" width="1" height="1"/><path class="qa24-6" d="M13,15V14H12v1Z"/><path class="qa24-6" d="M11,15V14H10v1Z"/><path class="qa24-6" d="M18,14v1h1V14Z"/><path class="qa24-6" d="M16,14v1h1V14Z"/><path class="qa24-2" d="M12,15V14H11v1Z"/><path class="qa24-2" d="M17,14v1h1V14Z"/><path class="qa24-7" d="M10,13h3V12H10Z"/><polygon class="qa24-7" points="18 12 16 12 16 13 19 13 19 12 18 12"/><path class="qa24-8" d="M12,22v1h5V22h2V20h1V17H19v1H18v1H17V18H15v1h1v2H15v1H14V21H13V19H11V18H10V17H9v3h1v2h2Z"/><path class="qa24-8" d="M14,18H13v1h1Z"/><path class="qa24-9" d="M18,23h1V22H18Z"/><path class="qa24-8" d="M18,24h1V23H18Z"/><path class="qa24-9" d="M16,23v1h1V23Z"/><path class="qa24-8" d="M16,25h1V24H16Z"/><path class="qa24-9" d="M13,23H12v1h1Z"/><path class="qa24-8" d="M12,24v1h1V24Z"/><path class="qa24-9" d="M11,22H10v1h1Z"/><path class="qa24-8" d="M11,23H10v1h1Z"/><path class="qa24-2" d="M13,19v1h3V19H13Z"/><path class="qa24-2" d="M12,18v1h1V18Z"/><path class="qa24-10" d="M10,13V12h1V11h7v1h1v2h1V13h1V9H20V8H19V7H18V6H11V7H10V8H9V9H8v4H9v1h1Z"/><path class="qa24-6" d="M23,9v5h1V8H23Z"/><rect class="qa24-6" x="22" y="14" width="1" height="6"/><path class="qa24-6" d="M21,22h1V20H21Z"/><rect class="qa24-11" x="22" y="8" width="1" height="1"/><path class="qa24-11" d="M25,9V8H24V9Z"/><path class="qa24-11" d="M20,3V5h1V6h1V7h1V8h1V7h1V6h1V5h1V3h1V0H19V3Z"/><path class="qa24-4" d="M21,22v1h1v1h1V22H21Z"/><path class="qa24-2" d="M23,22V21H22v1Z"/></svg>