<svg xmlns="http://www.w3.org/2000/svg" viewBox="0 0 29 33"><defs><style>polygon,rect,path{shape-rendering:crispedges;}.za248-1{fill:#d14646;}.za248-2{fill:#000000;}.za248-3{fill:#5a2de2;}.za248-4{fill:#a56e49;}.za248-5{fill:#34e0cb;}.za248-6{fill:#ffffff;}.za248-7{fill:#316a6d;}.za248-8{fill:#316a6d;}.za248-9{fill:#ff791f;}.za248-10{fill:#fad000;}</style></defs><path class="za248-1" d="M14,6H12V7h2Z"/><path class="za248-1" d="M0,33H6V24H7V23H8v1H9v1h1V24h1V23h1V21H9V20H8V19H9V16H8V15H9V11h1V10h1V9h2V8H12V7H11V6h1V5h6v5h1v1h1v4h1v1H20v3h1v1H20v1H17v2h1v1h1v1h1V24h1V23h1v1h1v9h6V0H0Z"/><path class="za248-2" d="M7,31V24H6v9H7V31Z"/><path class="za248-3" d="M7,32v1H8V32Z"/><path class="za248-3" d="M7,28H8V27H7Z"/><path class="za248-3" d="M7,30v1H8V29H7Z"/><path class="za248-2" d="M9,31V27H8v6H9V31Z"/><rect class="za248-3" x="19" y="32" width="1" height="1"/><path class="za248-3" d="M9,32v1h1V32Z"/><path class="za248-3" d="M17,32V31h1V30h1v1h1V29H19V28h1V27H18V26H15v1H14V26H11v1H9v1h1v1H9v2h1V30h1v1h1v1H11v1h3V32H13V31h1V30h1v1h1v1H15v1h3V32Zm-2-3H13v1H12V29H11V28h1V27h1v1h3V27h1v1h1v1H17v1H16V29Z"/><rect class="za248-3" x="12" y="24" width="1" height="1"/><path class="za248-2" d="M11,26h2V25H12V24h1V23h3v1h1v1H16v1h2V25h1V24H18V23H17V21H16v1H13V21H12v2H11v1H10v1h1Z"/><rect class="za248-2" x="13" y="24" width="1" height="1"/><rect class="za248-2" x="14" y="32" width="1" height="1"/><rect class="za248-2" x="14" y="30" width="1" height="1"/><path class="za248-2" d="M14,28v1h1V28Z"/><path class="za248-2" d="M14,25v2h1V25Z"/><rect class="za248-2" x="15" y="24" width="1" height="1"/><path class="za248-4" d="M14,25h1V24h1V23H13v1h1Z"/><rect class="za248-3" x="16" y="24" width="1" height="1"/><path class="za248-2" d="M21,31V27H20v6h1V31Z"/><path class="za248-3" d="M21,30v1h1V29H21Z"/><path class="za248-3" d="M21,28h1V27H21Z"/><path class="za248-3" d="M21,32v1h1V32Z"/><path class="za248-2" d="M23,24H22v9h1V24Z"/><path class="za248-5" d="M12,32V31H11V30H10v1H9v1h1v1h1V32Z"/><path class="za248-5" d="M13,28V27H12v1H11v1h1v1h1V29h1V28Z"/><path class="za248-5" d="M11,27V25H10v2Z"/><path class="za248-5" d="M15,25v1h1V25Z"/><path class="za248-5" d="M13,25v1h1V25Z"/><path class="za248-5" d="M17,30V29h1V28H17V27H16v1H15v1h1v1Z"/><path class="za248-5" d="M18,26v1h1V25H18Z"/><path class="za248-5" d="M7,29H8V28H7Z"/><path class="za248-5" d="M10,29V28H9v1Z"/><path class="za248-5" d="M21,29h1V28H21Z"/><path class="za248-5" d="M19,29h1V28H19Z"/><path class="za248-5" d="M21,32h1V31H21Z"/><path class="za248-5" d="M7,32H8V31H7Z"/><polygon class="za248-5" points="16 32 16 31 15 31 14 31 13 31 13 32 14 32 15 32 16 32"/><path class="za248-5" d="M20,32V31H19V30H18v1H17v1h1v1h1V32Z"/><rect class="za248-2" x="20" y="15" width="1" height="1"/><path class="za248-2" d="M19,13v2h1V11H19v2Z"/><path class="za248-4" d="M13,22h3V21h1V19h1V18h1V16H16V13h1V12h2V11H18V10H15v1H13V10H11v1H10v2h1V12h2v1H11v1h2v2H10v2h1v1h1V18h1v1h3v1H13V19H12v2h1Zm2-5H14V16h1Z"/><rect class="za248-4" x="19" y="15" width="1" height="1"/><rect class="za248-4" x="9" y="15" width="1" height="1"/><path class="za248-4" d="M18,14h1V13H17v1Z"/><rect class="za248-2" x="18" y="10" width="1" height="1"/><path class="za248-2" d="M17,20v1h1V20Z"/><path class="za248-2" d="M16,10h2V9H16Z"/><path class="za248-2" d="M13,9H11v1h2Z"/><path class="za248-2" d="M11,20v1h1V20Z"/><rect class="za248-2" x="10" y="10" width="1" height="1"/><path class="za248-2" d="M10,14V11H9v4h1Z"/><rect class="za248-2" x="8" y="15" width="1" height="1"/><rect class="za248-2" x="14" y="16" width="1" height="1"/><path class="za248-6" d="M10,15v1h1V14H10Z"/><path class="za248-6" d="M13,16V14H12v2Z"/><path class="za248-6" d="M16,14v2h1V14Z"/><path class="za248-6" d="M19,14H18v2h1V14Z"/><path class="za248-2" d="M12,16V14H11v2Z"/><path class="za248-2" d="M17,14v2h1V14Z"/><path class="za248-7" d="M11,14V13H10v1Z"/><rect class="za248-7" x="11" y="12" width="2" height="1"/><path class="za248-7" d="M17,13H16v1h1Z"/><path class="za248-7" d="M19,12H17v1h2Z"/><path class="za248-8" d="M19,17v1H18v1H17v1h1v1h2V20h1V19H20V16H19Z"/><path class="za248-8" d="M12,20V19H11V18H10V16H9v3H8v1H9v1h2V20Z"/><rect class="za248-2" x="13" y="19" width="3" height="1"/><rect class="za248-2" x="12" y="18" width="1" height="1"/><path class="za248-4" d="M21,27h1V24H21v1H20v2Z"/><path class="za248-2" d="M20,27V25H19v2Z"/><rect class="za248-2" x="20" y="24" width="1" height="1"/><rect class="za248-2" x="21" y="23" width="1" height="1"/><path class="za248-4" d="M7,27H9V25H8V24H7v3Z"/><path class="za248-2" d="M10,27V25H9v2Z"/><rect class="za248-2" x="8" y="24" width="1" height="1"/><rect class="za248-2" x="7" y="23" width="1" height="1"/><path class="za248-9" d="M18,6V5H17V6Z"/><path class="za248-9" d="M16,6H14V7h3V6Z"/><path class="za248-9" d="M13,11h2V10h1V9h2V7H17V8H13v3Z"/><path class="za248-10" d="M17,7h1V6H17Z"/><path class="za248-10" d="M17,8V7H12V8h5Z"/><path class="za248-10" d="M16,6h1V5H12V6h4Z"/><rect class="za248-10" x="11" y="6" width="1" height="1"/></svg>