<svg xmlns="http://www.w3.org/2000/svg" viewBox="0 0 29 33"><defs><style>polygon,rect,path{shape-rendering:crispedges;}.fa77-1{fill:#d4a122;}.fa77-2{fill:#000000;}.fa77-3{fill:#3e5e00;}.fa77-4{fill:#a56e49;}.fa77-5{fill:#3e5e00;}.fa77-6{fill:#ffffff;}.fa77-7{fill:#fad000;}.fa77-8{fill:#99ce09;}.fa77-9{fill:#474718;}.fa77-10{fill:#6f7032;}</style></defs><path class="fa77-1" d="M6,27H7V26H8V25h2V22H9V16H8V15H9V10h1V9h1V8h7V9h1v1h1v5h1v1H20v8H19v1h2V20h1V14h1V9H22V8h1V7H22V6H21V5H20V3H19V0H0V33H6V27Z"/><path class="fa77-1" d="M28,3H27V5H26V6H25V7H24V8h1V9H24v5H23v6H22v1h1v1h1v9H23v1H21v1h8V0H28Z"/><rect class="fa77-2" x="7" y="26" width="1" height="1"/><path class="fa77-2" d="M9,31V27H8v3H7V27H6v6H7V31H8v2H9V31Z"/><path class="fa77-2" d="M8,26h2V25H8Z"/><path class="fa77-2" d="M22,32h1V31H22V23H21v2H19v1h2v1H20v6h1V32Z"/><path class="fa77-2" d="M23,31h1V22H23v9Z"/><rect class="fa77-3" x="18" y="29" width="1" height="1"/><path class="fa77-3" d="M14,30v1h1V29H14Z"/><path class="fa77-3" d="M19,32V31H18v1H17V29h1V28h1v1h1V27h1V26H19v1H18V26H17v1H16v1H15v1h1v2H15v1H13V27H12V26H11V25H10v1H8v1H9v2h1V28h1v1h1v3H11V31H10v1H9v1H20V32Z"/><rect class="fa77-3" x="10" y="29" width="1" height="1"/><path class="fa77-4" d="M13,23v2h3V23Z"/><path class="fa77-3" d="M7,28v2H8V27H7Z"/><path class="fa77-4" d="M7,31v2H8V31Z"/><path class="fa77-5" d="M19,30H18V29H17v3h1V31h1v1h1V29H19Z"/><rect class="fa77-5" x="18" y="28" width="1" height="1"/><path class="fa77-5" d="M16,31V29H15v2Z"/><path class="fa77-5" d="M13,32h2V31H14V29h1V28H13Z"/><path class="fa77-5" d="M9,32h1V31h1v1h1V29H11v1H10V29H9v3Z"/><rect class="fa77-5" x="10" y="28" width="1" height="1"/><rect class="fa77-2" x="20" y="15" width="1" height="1"/><path class="fa77-4" d="M18,15H16V14h3V13H11v1h2v1H10v4h1v1h1v1h1v1h3V21h1V20h1V19h1V16h1V15H18Zm-4,1h1v1H14Zm2,4H13V19H12V18h1v1h3Z"/><path class="fa77-2" d="M19,17v2h1V16H19Z"/><rect class="fa77-2" x="18" y="19" width="1" height="1"/><rect class="fa77-2" x="17" y="20" width="1" height="1"/><path class="fa77-2" d="M16,22H13V21H12v4h1V23h3v2h1V21H16Z"/><rect class="fa77-2" x="11" y="20" width="1" height="1"/><rect class="fa77-2" x="10" y="19" width="1" height="1"/><path class="fa77-2" d="M10,18V16H9v3h1Z"/><rect class="fa77-2" x="8" y="15" width="1" height="1"/><rect class="fa77-2" x="14" y="16" width="1" height="1"/><path class="fa77-6" d="M11,14H10v1h1Z"/><path class="fa77-6" d="M16,14v1h1V14Z"/><path class="fa77-2" d="M12,15h1V14H11v1Z"/><path class="fa77-2" d="M17,15h2V14H17Z"/><rect class="fa77-2" x="17" y="25" width="1" height="1"/><rect class="fa77-2" x="16" y="26" width="1" height="1"/><rect class="fa77-6" x="16" y="25" width="1" height="1"/><rect class="fa77-7" x="15" y="26" width="1" height="1"/><path class="fa77-2" d="M14,27H13v1h3V27H14Z"/><path class="fa77-6" d="M14,27h1V26H14Z"/><rect class="fa77-7" x="13" y="26" width="1" height="1"/><path class="fa77-2" d="M13,25v1h3V25H13Z"/><rect class="fa77-2" x="12" y="26" width="1" height="1"/><rect class="fa77-6" x="12" y="25" width="1" height="1"/><rect class="fa77-2" x="13" y="19" width="3" height="1"/><rect class="fa77-2" x="12" y="18" width="1" height="1"/><path class="fa77-8" d="M20,24V19H19v1H18v1H17v4h1v2h1V24Z"/><path class="fa77-8" d="M19,14v1h1V13H19Z"/><path class="fa77-8" d="M10,15V14h1V13H9v3h1Z"/><path class="fa77-8" d="M12,24V21H11V20H10V19H9v3h1v3h1v1h1V24Z"/><path class="fa77-9" d="M19,12v1h1V11H19Z"/><path class="fa77-10" d="M10,12v1h1V11h1v2h1V11h1v2h1V11h1v2h1V11h1v2h1V11h1V10H19V9H18V8H11V9H10v1H9v1h1Z"/><path class="fa77-9" d="M18,12V11H17v2h1Z"/><path class="fa77-9" d="M16,12V11H15v2h1Z"/><path class="fa77-9" d="M14,12V11H13v2h1Z"/><path class="fa77-9" d="M12,12V11H11v2h1Z"/><path class="fa77-9" d="M10,12V11H9v2h1Z"/><path class="fa77-6" d="M23,9v5h1V8H23Z"/><rect class="fa77-6" x="22" y="14" width="1" height="6"/><path class="fa77-6" d="M21,22h1V20H21Z"/><rect class="fa77-7" x="22" y="8" width="1" height="1"/><path class="fa77-7" d="M25,9V8H24V9Z"/><path class="fa77-7" d="M20,3V5h1V6h1V7h1V8h1V7h1V6h1V5h1V3h1V0H19V3Z"/><path class="fa77-4" d="M21,22v1h1v8h1V22H21Z"/><path class="fa77-2" d="M23,22V21H22v1Z"/></svg>