<svg xmlns="http://www.w3.org/2000/svg" viewBox="0 0 29 33"><defs><style>polygon,rect,path{shape-rendering:crispedges;}.ma76-1{fill:#6b4f99;}.ma76-2{fill:#000000;}.ma76-3{fill:#184226;}.ma76-4{fill:#a7af69;}.ma76-5{fill:#b2622b;}.ma76-6{fill:#508e5d;}.ma76-7{fill:#ffffff;}.ma76-8{fill:#663228;}.ma76-9{fill:#663228;}.ma76-10{fill:#db5800;}.ma76-11{fill:#6d5800;}.ma76-12{fill:#fad000;}.ma76-13{fill:#ea1500;}</style></defs><path class="ma76-1" d="M0,33H6V27H7V26H8V25h2V24h2V21H11V20H10V19H9V16H8V15H9V11h1V10h1V9h7v1h2v5h1v1H20v3H19v1H18v1H17v3h2v1h2V23h1V22H21V19h1v1h1V18h1V17h3v5H26v1H25v1H24v7H23v1H21v1h8V0H0Z"/><path class="ma76-2" d="M23,25v6h1V24H23Z"/><path class="ma76-2" d="M7,30V27H6v6H7V30Z"/><path class="ma76-3" d="M8,28V27H7v1Z"/><path class="ma76-3" d="M7,31H8V30H7Z"/><rect class="ma76-2" x="7" y="26" width="1" height="1"/><path class="ma76-2" d="M9,30V27H8v6H9V30Z"/><path class="ma76-3" d="M9,28h2V27H9Z"/><path class="ma76-3" d="M9,31h2V30H9Z"/><path class="ma76-2" d="M10,25H8v1h2Z"/><path class="ma76-2" d="M12,26h1V25H12V24H10v1h1v8h1V26Z"/><path class="ma76-4" d="M17,26H16v1H13V26H12v7h5V26Z"/><path class="ma76-2" d="M13,23h3v1h1V21H16v1H13V21H12v3h1Z"/><path class="ma76-2" d="M13,26v1h3V26H13Z"/><path class="ma76-5" d="M13,25v1h3V25h1V24H16V23H13v1H12v1Z"/><path class="ma76-2" d="M18,30V25h1V24H17v1H16v1h1v7h1V30Z"/><path class="ma76-3" d="M18,28h2V27H18Z"/><path class="ma76-3" d="M18,31h2V30H18Z"/><path class="ma76-2" d="M22,32h1V31H22V23H21v2H19v1h2v1H20v6h1V32Z"/><path class="ma76-3" d="M23,24H22v1h1Z"/><path class="ma76-3" d="M22,30v1h1V30Z"/><path class="ma76-3" d="M23,27H22v1h1Z"/><path class="ma76-6" d="M18,31v2h2V31Z"/><path class="ma76-6" d="M9,31v2h2V31Z"/><path class="ma76-6" d="M9,29v1h2V28H9Z"/><path class="ma76-6" d="M18,29v1h2V28H18Z"/><path class="ma76-6" d="M9,27h2V25H10v1H8v1Z"/><path class="ma76-6" d="M18,26v1h3V26H19V25H18Z"/><path class="ma76-6" d="M23,29V28H22v2h1Z"/><path class="ma76-6" d="M23,26V25H22v2h1Z"/><path class="ma76-6" d="M7,31v2H8V31Z"/><path class="ma76-6" d="M7,29v1H8V28H7Z"/><rect class="ma76-2" x="20" y="15" width="1" height="1"/><path class="ma76-2" d="M19,13v2h1V12H19Z"/><path class="ma76-5" d="M13,20v2h3V20Z"/><path class="ma76-5" d="M17,13v1h2V13H17Z"/><path class="ma76-5" d="M10,13h1V11H10v2Z"/><path class="ma76-5" d="M16,13V12h1V11H16V10H13v1H12v1h1v1H11v1h3V13Z"/><path class="ma76-5" d="M12,19V18h5v2h1V19h1V16h1V15H16V14H14v2h1v1H14V16H13v1H11V16H10v3h1v1h1Z"/><rect class="ma76-5" x="17" y="10" width="1" height="1"/><rect class="ma76-5" x="11" y="10" width="1" height="1"/><rect class="ma76-5" x="9" y="15" width="1" height="1"/><path class="ma76-2" d="M19,17v2h1V16H19Z"/><rect class="ma76-2" x="18" y="19" width="1" height="1"/><rect class="ma76-2" x="17" y="20" width="1" height="1"/><rect class="ma76-2" x="11" y="20" width="1" height="1"/><rect class="ma76-2" x="10" y="19" width="1" height="1"/><path class="ma76-2" d="M10,16H9v3h1V16Z"/><rect class="ma76-2" x="8" y="15" width="1" height="1"/><rect class="ma76-2" x="14" y="16" width="1" height="1"/><path class="ma76-7" d="M18,14v1h1V14Z"/><path class="ma76-7" d="M16,14v1h1V14Z"/><path class="ma76-2" d="M17,14v1h1V14Z"/><rect class="ma76-8" x="10" y="13" width="1" height="1"/><path class="ma76-8" d="M13,12H11v1h2Z"/><rect class="ma76-8" x="16" y="13" width="1" height="1"/><path class="ma76-8" d="M18,13h1V12H18Z"/><path class="ma76-9" d="M17,19V18H13v1h3v2h1V19Z"/><path class="ma76-9" d="M13,20V19H12v2h1Z"/><path class="ma76-2" d="M16,19H13v1h3Z"/><path class="ma76-2" d="M12,18v1h1V18Z"/><path class="ma76-10" d="M19,12h1V11H19Z"/><path class="ma76-10" d="M19,11V10H18v1Z"/><path class="ma76-10" d="M12,11h1V10h3v1h1V10h1V9H11v1h1Z"/><rect class="ma76-10" x="17" y="11" width="1" height="1"/><path class="ma76-10" d="M12,11H11v1h1Z"/><rect class="ma76-10" x="10" y="10" width="1" height="1"/><path class="ma76-10" d="M10,11H9v1h1Z"/><path class="ma76-2" d="M10,16h1v1h2V16h1V14H10V12H9v3h1Z"/><rect class="ma76-2" x="14" y="13" width="2" height="1"/><path class="ma76-2" d="M18,12H16v1h2Z"/><rect class="ma76-2" x="18" y="11" width="1" height="1"/><path class="ma76-2" d="M20,11V10H19v1Z"/><path class="ma76-11" d="M21,21v1h1V21Z"/><path class="ma76-12" d="M24,21h1v1H24v1h2V22h1V20H25V19H24V18H23v2H22V19H21v2h1v1h2Z"/><path class="ma76-5" d="M23,24h1V23H22v1Z"/><path class="ma76-11" d="M24,22H22v1h2Z"/><path class="ma76-2" d="M24,24h1V23H24Z"/><rect class="ma76-11" x="24" y="21" width="1" height="1"/><rect class="ma76-2" x="24" y="18" width="1" height="1"/><path class="ma76-13" d="M25,19v1h2V19H25Z"/><path class="ma76-12" d="M25,19h1V18h1V17H24v1h1Z"/><path class="ma76-2" d="M26,19h1V18H26Z"/></svg>