<svg xmlns="http://www.w3.org/2000/svg" viewBox="0 0 29 33"><defs><style>polygon,rect,path{shape-rendering:crispedges;}.ga105-1{fill:#d4a122;}.ga105-2{fill:#000000;}.ga105-3{fill:#ff791f;}.ga105-4{fill:#ce8452;}.ga105-5{fill:#b23b00;}.ga105-6{fill:#ffffff;}.ga105-7{fill:#8e4717;}.ga105-8{fill:#8e4717;}.ga105-9{fill:#d2d8b8;}</style></defs><rect class="ga105-1" x="16" y="8" width="1" height="1"/><path class="ga105-1" d="M0,33H6V27H7V26H8V25h2V24h2V21H9V20H8V19H9V16H8V15H9V10h1V9h1V8h1V9h1V8h3V7h1V8h2V9h1v1H19v1h1v4h1v1H20v3h1v1H20v1H17v3h2v1h2v1h1v1h1v6h6V0H0Z"/><path class="ga105-2" d="M23,27H22v6h1V27Z"/><rect class="ga105-2" x="21" y="26" width="1" height="1"/><path class="ga105-3" d="M22,27H21v6h1V27Z"/><path class="ga105-2" d="M21,27H20v6h1V27Z"/><path class="ga105-2" d="M20,26h1V25H19v1Z"/><rect class="ga105-3" x="13" y="29" width="1" height="2"/><path class="ga105-3" d="M20,27h1V26H19V25H17v1H16v1H13V26H12V25H10v1H9v7H20V27Zm-9,2v3H10V28h1Zm4,3H12V28h3Zm4-3H17v2h1V30h1v2H16V28h3Z"/><path class="ga105-2" d="M18,25h1V24H17v1Z"/><rect class="ga105-2" x="16" y="25" width="1" height="1"/><path class="ga105-2" d="M13,26v1h3V26H13Z"/><path class="ga105-2" d="M13,23h3v1h1V21H16v1H13V21H12v3h1Z"/><path class="ga105-4" d="M13,25v1h3V25h1V24H16V23H13v1H12v1Z"/><rect class="ga105-2" x="12" y="25" width="1" height="1"/><path class="ga105-2" d="M12,24H10v1h2Z"/><path class="ga105-2" d="M9,26h1V25H8v1H7v1H8v6H9V26Z"/><path class="ga105-3" d="M8,27H7v6H8V27Z"/><path class="ga105-2" d="M7,27H6v6H7V27Z"/><path class="ga105-5" d="M12,32h3V28H12Zm1-3h1v2H13Z"/><path class="ga105-5" d="M10,29v3h1V28H10Z"/><path class="ga105-5" d="M16,28v4h3V30H18v1H17V29h2V28H16Z"/><rect class="ga105-2" x="20" y="15" width="1" height="1"/><rect class="ga105-4" x="10" y="12" width="1" height="1"/><polygon class="ga105-4" points="18 14 19 14 19 13 17 13 17 14 18 14"/><path class="ga105-4" d="M13,22h3V21h1V19h1V18h1V16h1V15H16V13h1V12h1V11H13V10H12v1H11v1h2v1H11v1h2v1H9v1h1v2h1v1h1V18h1v1h3v1H13V19H12v2h1Zm2-5H14V16h1Z"/><path class="ga105-2" d="M17,20v1h1V20Z"/><path class="ga105-2" d="M11,20v1h1V20Z"/><rect class="ga105-2" x="8" y="15" width="1" height="1"/><rect class="ga105-2" x="14" y="16" width="1" height="1"/><path class="ga105-6" d="M10,15h1V14H10Z"/><path class="ga105-6" d="M16,14v1h1V14Z"/><path class="ga105-2" d="M12,15h1V14H11v1Z"/><path class="ga105-2" d="M18,14H17v1h3V14H18Z"/><rect class="ga105-7" x="10" y="13" width="1" height="1"/><rect class="ga105-7" x="11" y="12" width="2" height="1"/><path class="ga105-7" d="M17,13H16v1h1Z"/><path class="ga105-7" d="M19,12H17v1h2Z"/><path class="ga105-8" d="M19,17v1H18v1H17v1h1v1h2V20h1V19H20V16H19Z"/><path class="ga105-8" d="M12,20V19H11V18H10V16H9v3H8v1H9v1h2V20Z"/><rect class="ga105-2" x="13" y="19" width="3" height="1"/><rect class="ga105-2" x="12" y="18" width="1" height="1"/><path class="ga105-9" d="M10,14V12h1V11h1V10h1v1h5v1h1v2h1V11H19V10h1V9H19V8H17V9H16V8H13V9H12V8H11V9H10v1H9v5h1Z"/><rect class="ga105-9" x="16" y="7" width="1" height="1"/></svg>