<svg xmlns="http://www.w3.org/2000/svg" viewBox="0 0 29 33"><defs><style>polygon,rect,path{shape-rendering:crispedges;}.ib137-1{fill:#d14646;}.ib137-2{fill:#c18d59;}.ib137-3{fill:#000000;}.ib137-4{fill:#ffffff;}.ib137-5{fill:#00686d;}.ib137-6{fill:#00686d;}.ib137-7{fill:#317f03;}.ib137-8{fill:#ff1d99;}.ib137-9{fill:#e281bf;}.ib137-10{fill:#b58f8a;}</style></defs><rect class="ib137-1" x="2" y="19" height="1"/><path class="ib137-1" d="M0,33H6V25H7V24H8V21H8v1H7v1H6v1H3V23H2V22H1V19H2V18H3V17H6v1H7v1H8v1H8V19H9V16H8V15H9V11h1V9h1V8h7V9h1v1h1v5h1v1H20v4H19v1H18v1H17v2h2v1h2v1h1v1h1v6h6V0H0Z"/><rect class="ib137-1" x="3" y="18" height="1"/><rect class="ib137-1" x="9" y="20" height="1"/><path class="ib137-1" d="M12,22H11V21H9v4h1V24h2V22Z"/><path class="ib137-2" d="M8,26H9V25H7v8H8V26Z"/><path class="ib137-3" d="M7,25H6v8H7V25Z"/><path class="ib137-3" d="M23,27H22v6h1V27Z"/><path class="ib137-2" d="M22,27H21v6h1V27Z"/><rect class="ib137-3" x="21" y="26" width="1" height="1"/><path class="ib137-3" d="M21,27H20v6h1V27Z"/><path class="ib137-2" d="M20,27h1V26H19V25H17V24H16V23H13v1H12v1H10v1H9v7h5V29h1v4h5V27Zm-8,2H11V28h1Zm6,0H17V28h1Z"/><path class="ib137-3" d="M20,26h1V25H19v1Z"/><rect class="ib137-3" x="17" y="28" width="1" height="1"/><path class="ib137-3" d="M18,25h1V24H17v1Z"/><path class="ib137-3" d="M16,24h1V23H16Z"/><path class="ib137-3" d="M15,29H14v4h1V29Z"/><path class="ib137-3" d="M12,24h1V23H12Z"/><rect class="ib137-3" x="11" y="28" width="1" height="1"/><path class="ib137-3" d="M10,25h2V24H10Z"/><path class="ib137-3" d="M9,26H8v7H9V26Z"/><rect class="ib137-3" x="9" y="25" width="1" height="1"/><rect class="ib137-3" x="20" y="15" width="1" height="1"/><path class="ib137-2" d="M10,14h2V13H10Z"/><path class="ib137-2" d="M10,17h1v1h1v1h1V18h3v1h1V18h1V17h1V16h1V15H16V14h2V13H15V12H14V11H13V10H11v1H10v1h2v1h1v2H9v1h1Zm4-1h1v1H14Z"/><rect class="ib137-3" x="8" y="15" width="1" height="1"/><rect class="ib137-3" x="14" y="16" width="1" height="1"/><path class="ib137-4" d="M18,14v1h1V14Z"/><path class="ib137-4" d="M12,15h1V14H12Z"/><path class="ib137-3" d="M17,14H16v1h2V14Z"/><path class="ib137-3" d="M11,14H10v1h2V14Z"/><path class="ib137-5" d="M13,14V13H12v1Z"/><rect class="ib137-5" x="10" y="12" width="2" height="1"/><path class="ib137-6" d="M10,20v1h1v1h1v1h5V22h1V21h1V20h1V16H19v1H18v1H17v1H16v1H13V19H12V18H11V17H10V16H9v4Z"/><path class="ib137-6" d="M15,18H13v1h3V18Z"/><rect class="ib137-3" x="13" y="19" width="3" height="1"/><path class="ib137-7" d="M11,10h2v1h1v1h1v1h3v1h1v1h1V10H19V9H18V8H11V9H10v2h1Z"/><path class="ib137-7" d="M10,14V11H9v4h1Z"/><path class="ib137-8" d="M10,20H9v1h1Z"/><path class="ib137-8" d="M9,20V19H8v1Z"/><rect class="ib137-9" x="7" y="20" width="1" height="1"/><path class="ib137-8" d="M9,25V21H8v4Z"/><path class="ib137-3" d="M8,24H7v1H8Z"/><polygon class="ib137-10" points="3 19 3 18 2 18 2 19 2 19 3 19"/><path class="ib137-10" d="M7,20H8V19H7V18H6V17H3v1H5v1H3v1H2V19H1v3H2v1H3v1H6V23H7V22H8V21H7Z"/><polygon class="ib137-10" points="9 20 8 20 8 20 8 21 8 21 9 21 9 20"/><polygon class="ib137-4" points="2 19 2 20 3 20 3 19 3 19 2 19"/><path class="ib137-4" d="M4,19H5V18H3v1Z"/></svg>