<svg xmlns="http://www.w3.org/2000/svg" viewBox="0 0 29 33"><defs><style>polygon,rect,path{shape-rendering:crispedges;}.hb260-1{fill:#31a09d;}.hb260-2{fill:#000000;}.hb260-3{fill:#b2622b;}.hb260-4{fill:#99004d;}.hb260-5{fill:#99004d;}.hb260-6{fill:#38a6e8;}.hb260-7{fill:#893a1f;}.hb260-8{fill:#dfdfdf;}.hb260-9{fill:#b2622b;}.hb260-10{fill:#ffffff;}</style></defs><rect class="hb260-1" x="14" y="16" width="1"/><rect class="hb260-1" x="11" y="20" width="1"/><path class="hb260-1" d="M13,22Z"/><rect class="hb260-1" x="16" y="21" width="1"/><rect class="hb260-1" x="12" y="21" width="1"/><rect class="hb260-1" x="9" y="16" width="1"/><rect class="hb260-1" x="17" y="20" width="1"/><path class="hb260-2" d="M23,27H22v6h1V27Z"/><path class="hb260-3" d="M22,27H21v6h1V27Z"/><rect class="hb260-2" x="21" y="26" width="1" height="1"/><path class="hb260-2" d="M21,27H20v6h1V27Z"/><path class="hb260-3" d="M20,27h1V26H19V25H17V24H16V23H13v1H12v1H10v1H8v1H9v6h5V29h1v4h5V27Zm-8,2H11V28h1Zm6,0H17V28h1Z"/><path class="hb260-2" d="M20,26h1V25H19v1Z"/><rect class="hb260-2" x="17" y="28" width="1" height="1"/><path class="hb260-2" d="M18,25h1V24H17v1Z"/><path class="hb260-2" d="M15,29H14v4h1V29Z"/><path class="hb260-2" d="M13,23h3v1h1V21H16v1H13V21H12v3h1Z"/><rect class="hb260-2" x="11" y="28" width="1" height="1"/><path class="hb260-2" d="M12,24H10v1h2Z"/><path class="hb260-2" d="M10,25H8v1h2Z"/><path class="hb260-2" d="M9,27H8v6H9V27Z"/><path class="hb260-3" d="M8,27H7v6H8V27Z"/><rect class="hb260-2" x="7" y="26" width="1" height="1"/><path class="hb260-2" d="M7,27H6v6H7V27Z"/><rect class="hb260-2" x="20" y="15" width="1" height="1"/><rect class="hb260-3" x="10" y="13" width="1" height="1"/><path class="hb260-3" d="M18,16H16V15H15V14H14v1H13v1H11V15H9v1h1v1h0v1h1v2h1v1h1v1h3V21h1V20h1V18h1V16h1V15H18Zm-4,1V16h1v1H14Zm3,2H16v1H13V19h3V18h1Z"/><rect class="hb260-2" x="19" y="16" width="1" height="1"/><path class="hb260-2" d="M10,17V16H9v1Z"/><polygon class="hb260-2" points="9 15 8 15 8 16 9 16 9 16 9 15"/><polygon class="hb260-2" points="15 17 15 16 14 16 14 17 14 17 15 17 15 17"/><rect class="hb260-4" x="18" y="13" width="1" height="1"/><path class="hb260-5" d="M18,19v1H17v1h2V20h1V17H19v1H18Z"/><path class="hb260-5" d="M12,20H11V18H10V17H9v3h1v1h2Z"/><rect class="hb260-2" x="13" y="19" width="3" height="1"/><rect class="hb260-2" x="16" y="18" width="1" height="1"/><rect class="hb260-6" x="9" y="13" width="1" height="1"/><rect class="hb260-6" x="19" y="13" width="1" height="1"/><rect class="hb260-6" x="20" y="14" width="1" height="1"/><polygon class="hb260-6" points="9 15 9 14 8 14 8 15 9 15 9 15"/><path class="hb260-2" d="M10,15h1v1h2V15h1V14h1v1h1v1h2V15h2V14H18V13H11v1H9v1Z"/><path class="hb260-7" d="M24,11H22v1h2Z"/><rect class="hb260-8" x="21" y="7" width="1" height="1"/><path class="hb260-7" d="M11,13H22V12H20V11H19v1H10V11H9v1H7v1h4Z"/><rect class="hb260-8" x="20" y="8" width="1" height="1"/><rect class="hb260-9" x="19" y="10" width="1" height="1"/><path class="hb260-10" d="M18,11h1V10h1V8h1V7h1V6H20V7H19V8H18v3Z"/><path class="hb260-9" d="M10,11v1h9V11H10Z"/><path class="hb260-7" d="M10,11h8V7H16V8H13V7H11V8H10v3Z"/><path class="hb260-9" d="M10,11V10H9v1Z"/><path class="hb260-7" d="M6,11H5v1H7V11Z"/><path class="hb260-1" d="M0,0V14H0V33H6V27H7V26H8V25h2V24h2V21H10V20H9V16H8V14H9V13H7V12H5V11H7v1H9V10h1V8h1V7h2V8h3V7h2V8h1V7h1V6h2V8H21V9H20v3h2V11h2v1H22v1H20v3H19v2h0V16h1V14h1v2H20v4H19v1H17v3h2v1h2v1h1v1h1v6h6V0H0Z"/></svg>