<svg xmlns="http://www.w3.org/2000/svg" viewBox="0 0 29 33"><defs><style>polygon,rect,path{shape-rendering:crispedges;}.ha84-1{fill:#29834f;}.ha84-2{fill:#000000;}.ha84-3{fill:#b23b00;}.ha84-4{fill:#c18d59;}.ha84-5{fill:#b23b00;}.ha84-6{fill:#ffffff;}.ha84-7{fill:#663228;}.ha84-8{fill:#663228;}.ha84-9{fill:#d8be00;}.ha84-10{fill:#ff1d99;}.ha84-11{fill:#e281bf;}.ha84-12{fill:#8ab5a3;}</style></defs><rect class="ha84-1" x="26" y="19" width="1"/><rect class="ha84-1" x="26" y="19" height="1"/><path class="ha84-1" d="M18,21H17v3h2v1h1V21H18Z"/><rect class="ha84-1" x="20" y="21" width="1"/><path class="ha84-1" d="M0,0V33H29V0ZM28,22H27v1H26v1H23V23H22V22H21v2h1v1h1v8H6V27H7V26H8V25h2V24h2V21H10V20H9V16H8V15H9V13H8V9H9V8h1V7h1V6h7V7h1V8h1V9h1v4H20v2h1v1H20v3h2V18h1V17h3v1h1v1h1Z"/><path class="ha84-1" d="M24,19h0V18h0Z"/><path class="ha84-2" d="M7,27H6v6H7V27Z"/><rect class="ha84-2" x="7" y="26" width="1" height="1"/><path class="ha84-3" d="M8,27H7v6H8V27Z"/><path class="ha84-2" d="M9,27H8v6H9V27Z"/><path class="ha84-2" d="M10,25H8v1h2Z"/><rect class="ha84-3" x="13" y="29" width="1" height="2"/><path class="ha84-3" d="M20,26H19V25H17v1H16v1H13V26H12V25H10v1H8v1H9v6H20V26Zm-9,3v3H10V28h1Zm4,3H12V28h3Zm4-3H17v2h1V30h1v2H16V28h3Z"/><path class="ha84-2" d="M12,24H10v1h2Z"/><path class="ha84-2" d="M13,23h3v1h1V21H16v1H13V21H12v3h1Z"/><rect class="ha84-2" x="12" y="25" width="1" height="1"/><path class="ha84-2" d="M13,26v1h3V26H13Z"/><path class="ha84-4" d="M13,25v1h3V25h1V24H16V23H13v1H12v1Z"/><rect class="ha84-2" x="16" y="25" width="1" height="1"/><path class="ha84-2" d="M18,24H17v1h2V24Z"/><rect class="ha84-2" x="19" y="25" width="1" height="1"/><path class="ha84-2" d="M21,27V26H20v7h1V27Z"/><path class="ha84-3" d="M22,27H21v6h1V27Z"/><path class="ha84-2" d="M22,31v2h1V25H22v6Z"/><path class="ha84-5" d="M12,32h3V28H12Zm1-3h1v2H13Z"/><path class="ha84-5" d="M10,29v3h1V28H10Z"/><path class="ha84-5" d="M16,28v4h3V30H18v1H17V29h2V28H16Z"/><rect class="ha84-2" x="20" y="15" width="1" height="1"/><path class="ha84-2" d="M19,15h1V14H19Z"/><path class="ha84-4" d="M13,22h3V21h1V20h1V18h1V16h1V15H16V13h1V12h1V11H11v1h2v1H11v1h2v1H9v1h1v2h1v2h1v1h1Zm1-6h1v1H14Zm-2,3V18h1v1h3v1H13V19Z"/><rect class="ha84-4" x="10" y="12" width="1" height="1"/><polygon class="ha84-4" points="18 14 19 14 19 13 17 13 17 14 18 14"/><path class="ha84-2" d="M19,17h1V16H19Z"/><path class="ha84-2" d="M10,14H9v1h1Z"/><path class="ha84-2" d="M10,16H9v1h1Z"/><rect class="ha84-2" x="8" y="15" width="1" height="1"/><rect class="ha84-2" x="14" y="16" width="1" height="1"/><path class="ha84-6" d="M13,15V14H12v1Z"/><path class="ha84-6" d="M10,15h1V14H10Z"/><path class="ha84-6" d="M18,14v1h1V14Z"/><path class="ha84-6" d="M16,14v1h1V14Z"/><path class="ha84-2" d="M12,15V14H11v1Z"/><path class="ha84-2" d="M17,14v1h1V14Z"/><rect class="ha84-7" x="10" y="13" width="1" height="1"/><rect class="ha84-7" x="11" y="12" width="2" height="1"/><path class="ha84-7" d="M17,13H16v1h1Z"/><path class="ha84-7" d="M19,12H17v1h2Z"/><path class="ha84-8" d="M19,18H18v2H17v1h2V20h1V17H19Z"/><path class="ha84-8" d="M11,20V18H10V17H9v3h1v1h2V20Z"/><rect class="ha84-2" x="13" y="19" width="3" height="1"/><rect class="ha84-2" x="12" y="18" width="1" height="1"/><path class="ha84-9" d="M10,13V12h1V11h7v1h1v2h1V13h1V9H20V8H19V7H18V6H11V7H10V8H9V9H8v4H9v1h1Z"/><path class="ha84-10" d="M20,20H19v1h1Z"/><path class="ha84-10" d="M21,20V19H20v1Z"/><rect class="ha84-11" x="21" y="20" width="1" height="1"/><path class="ha84-10" d="M20,21v4h1V21Z"/><path class="ha84-4" d="M20,25v1h1v1h1V25H20Z"/><path class="ha84-2" d="M22,25V24H21v1Z"/><polygon class="ha84-12" points="26 18 26 19 27 19 27 18 26 18 26 18 26 18"/><path class="ha84-12" d="M27,19h0v1H26V19H24V18h2V17H23v1H22v1H21v1h1v1H21v1h1v1h1v1h3V23h1V22h1V19Z"/><polygon class="ha84-12" points="20 20 20 21 21 21 21 20 20 20 20 20"/><polygon class="ha84-6" points="26 20 26 20 27 20 27 19 27 19 26 19 26 20"/><path class="ha84-6" d="M26,19V18H24v1h2Z"/></svg>