<svg xmlns="http://www.w3.org/2000/svg" viewBox="0 0 29 33"><defs><style>polygon,rect,path{shape-rendering:crispedges;}.xa276-1{fill:#31a09d;}.xa276-2{fill:#d8be00;}.xa276-3{fill:#000000;}.xa276-4{fill:#e8b795;}.xa276-5{fill:#ff6aa5;}.xa276-6{fill:#ffffff;}.xa276-7{fill:#99004d;}.xa276-8{fill:#5a2de2;}</style></defs><rect class="xa276-1" x="18" y="19" width="1"/><rect class="xa276-1" x="19" y="16" width="1"/><path class="xa276-1" d="M12,21h1v1h0V21H12V20H11V19H10V16h0v3h1v1h1Z"/><path class="xa276-1" d="M0,33H29V0H0Zm6-1V27H7V26H8V25h2V22h1V20H10V19H9V18H8V16H8V15H8V12H9V10h1V9h1V8h7V9h1v1h1v5h1v1H20v3H19v1H18v2h1v3h2v1h1v1h1v6H6Z"/><rect class="xa276-1" x="17" y="20" width="1"/><rect class="xa276-1" x="16" y="21" width="1"/><polygon class="xa276-1" points="15 17 15 17 15 16 14 16 14 16 15 16 15 17"/><rect class="xa276-2" x="17" y="22" width="1" height="1"/><path class="xa276-2" d="M18,24H16v1H15v2H14v1h1v1H14v2h2V30h1v1h3V26H19V25H18Zm-1,3H16V26h1Zm2,1v1H18V28Z"/><path class="xa276-2" d="M21,28v2h1V27H21Z"/><path class="xa276-2" d="M21,31v2h1V31Z"/><path class="xa276-2" d="M13,32H10v1h4V32Z"/><path class="xa276-2" d="M18,32H15v1h4V32Z"/><path class="xa276-2" d="M7,31v2H8V31Z"/><path class="xa276-2" d="M7,30H8V27H7v3Z"/><rect class="xa276-2" x="11" y="22" width="1" height="1"/><path class="xa276-2" d="M9,26v5h3V30h1V27H12V26h1v1h1V25H13V24H11v1H10v1Zm2,2v1H10V28Z"/><path class="xa276-3" d="M22,30v3h1V27H22v3Z"/><rect class="xa276-3" x="21" y="26" width="1" height="1"/><path class="xa276-3" d="M21,30V27H20v4H14V27H13v4H9V27H8v6H9V32H20v1h1V30Z"/><path class="xa276-3" d="M20,26h1V25H19v1Z"/><path class="xa276-3" d="M18,24v1h1V22H18v2Z"/><rect class="xa276-3" x="15" y="24" width="1" height="1"/><path class="xa276-3" d="M15,26V25H14v2h1Z"/><rect class="xa276-3" x="13" y="24" width="1" height="1"/><path class="xa276-4" d="M15,24h1V23H13v1h1v1h1Z"/><path class="xa276-3" d="M11,24V22H10v3h1Z"/><path class="xa276-3" d="M10,26V25H8v1h2Z"/><rect class="xa276-3" x="7" y="26" width="1" height="1"/><path class="xa276-3" d="M7,32V27H6v6H7Z"/><polygon class="xa276-3" points="20 16 21 16 21 15 20 15 20 16 20 16"/><polygon class="xa276-4" points="19 16 20 16 20 15 20 15 19 15 19 16"/><rect class="xa276-4" x="9" y="15" width="1" height="1"/><path class="xa276-4" d="M16,13V12h3V11H18V10H16v1H14v1H13v1h3Z"/><path class="xa276-4" d="M18,20V19h1V16H16V15H15V14H14v1H13v1H10v3h1v1h1v1h1v1h3V21h1V20h1Zm-4-4h1v1H14Zm2,4H13V19H12V18h1v1h3Z"/><rect class="xa276-4" x="18" y="13" width="1" height="1"/><path class="xa276-3" d="M19,17v2h1V16H19Z"/><polygon class="xa276-3" points="18 20 18 20 19 20 19 19 18 19 18 20"/><path class="xa276-3" d="M12,23v1h1V23h3v1h1V22h1V20H17v1H16v1H13V21H12V20H11v2h1Z"/><rect class="xa276-3" x="10" y="19" width="1" height="1"/><path class="xa276-3" d="M10,16H9v2H9v1h1V16Z"/><rect class="xa276-3" x="8" y="15" height="1"/><polygon class="xa276-3" points="15 17 15 16 14 16 14 16 14 17 15 17 15 17"/><rect class="xa276-5" x="10" y="28" width="1" height="1"/><path class="xa276-5" d="M13,30H12v1h1Z"/><path class="xa276-5" d="M15,29V28H14v1Z"/><path class="xa276-5" d="M14,32v1h1V32Z"/><rect class="xa276-5" x="12" y="26" width="1" height="1"/><path class="xa276-5" d="M17,30H16v1h1Z"/><rect class="xa276-5" x="18" y="28" width="1" height="1"/><rect class="xa276-5" x="16" y="26" width="1" height="1"/><path class="xa276-5" d="M9,27V26H8v1Z"/><path class="xa276-5" d="M19,32v1h1V32Z"/><path class="xa276-5" d="M9,32v1h1V32Z"/><path class="xa276-5" d="M8,30H7v1H8Z"/><path class="xa276-5" d="M22,31V30H21v1Z"/><path class="xa276-5" d="M20,27h1V26H20Z"/><path class="xa276-5" d="M11,23v1h1V23Z"/><path class="xa276-5" d="M18,23H17v1h1Z"/><path class="xa276-6" d="M11,15H10v1h1Z"/><path class="xa276-6" d="M19,15H18v1h1Z"/><path class="xa276-7" d="M16,13h3V12H16Z"/><rect class="xa276-3" x="13" y="19" width="3" height="1"/><rect class="xa276-3" x="12" y="18" width="1" height="1"/><path class="xa276-8" d="M9,16H9V14h2V13h2V12h1V11h2V10h2v1h1v3h1V10H19V9H18V8H11V9H10v1H9v2H8v6H9Z"/><path class="xa276-3" d="M18,14V13H11v1H9v1h2v1h2V15h1V14h1v1h1v1h2V15h2V14H18Z"/></svg>