<svg xmlns="http://www.w3.org/2000/svg" viewBox="0 0 29 33"><defs><style>polygon,rect,path{shape-rendering:crispedges;}.ja159-1{fill:#db5a8e;}.ja159-2{fill:#000000;}.ja159-3{fill:#cbed03;}.ja159-4{fill:#c18d59;}.ja159-5{fill:#ffffff;}.ja159-6{fill:#492a23;}.ja159-7{fill:#004a77;}.ja159-8{fill:#b23b00;}.ja159-9{fill:#fad000;}</style></defs><path class="ja159-1" d="M6,32V27H7V26H8V25h2V24h2V22H11V21H10V20H9V18H8V13H9V11h1V10h1V9h7v1h1v1h1v1h1v6H20v2H19v1H18v1H17v2h2v1h2v1h1v1h1v6h6V0H0V33H6Z"/><path class="ja159-2" d="M23,27H22v6h1V27Z"/><rect class="ja159-2" x="21" y="26" width="1" height="1"/><path class="ja159-3" d="M22,27H21v6h1V27Z"/><path class="ja159-2" d="M21,27H20v6h1V27Z"/><path class="ja159-2" d="M20,26h1V25H19v1Z"/><path class="ja159-3" d="M20,27h1V26H19V25H17V24H16V23H13v1H12v1H10v1H8v1H9v6H20V27Z"/><path class="ja159-2" d="M18,25h1V24H17v1Z"/><path class="ja159-2" d="M16,24h1V23H16Z"/><path class="ja159-2" d="M13,23H12v1h1Z"/><path class="ja159-2" d="M12,24H10v1h2Z"/><path class="ja159-2" d="M10,25H8v1h2Z"/><path class="ja159-2" d="M9,27H8v6H9V27Z"/><rect class="ja159-2" x="7" y="26" width="1" height="1"/><path class="ja159-3" d="M8,27H7v6H8V27Z"/><path class="ja159-2" d="M7,27H6v6H7V27Z"/><rect class="ja159-2" x="19" y="14" width="1" height="1"/><path class="ja159-4" d="M17,16H15v1H14V16h1V14h1V12H15V11H14v4H13v2H12V16H11v2h1v1h1V18h5V16Z"/><rect class="ja159-4" x="11" y="13" width="1" height="1"/><rect class="ja159-4" x="17" y="13" width="1" height="1"/><rect class="ja159-4" x="9" y="15" width="1" height="1"/><rect class="ja159-4" x="19" y="15" width="1" height="1"/><rect class="ja159-4" x="17" y="11" width="1" height="1"/><rect class="ja159-4" x="12" y="12" width="1" height="1"/><rect class="ja159-2" x="14" y="16" width="1" height="1"/><rect class="ja159-5" x="12" y="14" width="1" height="1"/><path class="ja159-5" d="M17,16V14H16v2Z"/><path class="ja159-2" d="M12,15V14H11v2h1Z"/><path class="ja159-2" d="M18,16V14H17v2Z"/><rect class="ja159-6" x="17" y="12" width="1" height="1"/><rect class="ja159-6" x="12" y="13" width="1" height="1"/><rect class="ja159-6" x="11" y="12" width="1" height="1"/><path class="ja159-7" d="M15,18H13v1h3V18Z"/><path class="ja159-7" d="M20,16H19v2h1V16Z"/><path class="ja159-7" d="M14,23h3V22h1V21h1V18H17v1H16v1H13V19H12V18H10v3h1v1h1v1h2Z"/><path class="ja159-7" d="M10,17V16H9v2h1Z"/><rect class="ja159-2" x="13" y="19" width="3" height="1"/><path class="ja159-2" d="M16,19h1V18H16Z"/><path class="ja159-8" d="M8,17v1H9V17Z"/><path class="ja159-8" d="M20,18h1V17H20Z"/><path class="ja159-8" d="M9,15h1v3h1V12h2v3h1V11h1v1h1v2h1V11h1v7h1V14h1v2h1V12H20V11H19V10H18V9H11v1H10v1H9v2H8v3H9Z"/><path class="ja159-8" d="M19,19v1h1V18H19Z"/><path class="ja159-8" d="M15,15v1h1V14H15Z"/><path class="ja159-8" d="M12,16v1h1V15H12Z"/><path class="ja159-8" d="M9,18v2h1V18Z"/><path class="ja159-9" d="M20,17h1V16H20Z"/><path class="ja159-9" d="M9,16H8v1H9Z"/></svg>