<svg xmlns="http://www.w3.org/2000/svg" viewBox="0 0 29 33"><defs><style>polygon,rect,path{shape-rendering:crispedges;}.da252-1{fill:#29834f;}.da252-2{fill:#000000;}.da252-3{fill:#4922aa;}.da252-4{fill:#e8b795;}.da252-5{fill:#825fff;}.da252-6{fill:#316a6d;}.da252-7{fill:#316a6d;}.da252-8{fill:#5a2de2;}.da252-9{fill:#ffffff;}</style></defs><path class="da252-1" d="M0,33H6V27H7V26H8V25h2V24h2V21H11V20H10V19H9V16H8V15H9V10h1V9h1V8h7V9h1v1h1v5h1v1H20v3H19v1H18v1H17v3h2v1h2v1h1v1h1v6h6V0H0Z"/><path class="da252-2" d="M23,27H22v3H21V27H20v6h1V31h1v2h1V27Z"/><rect class="da252-2" x="21" y="26" width="1" height="1"/><path class="da252-3" d="M21,28v2h1V27H21Z"/><path class="da252-4" d="M21,31v2h1V31Z"/><path class="da252-2" d="M20,26h1V25H19v1Z"/><path class="da252-3" d="M20,27h1V26H19V25H17v1H16v1H13V26H12V25H10v1H8v1H9v6h1V30h1V29h1V28h5v1h1v1h1v3h1V27Z"/><rect class="da252-3" x="16" y="30" width="1" height="1"/><rect class="da252-3" x="12" y="30" width="1" height="1"/><path class="da252-3" d="M16,32H12v1h5V32Z"/><path class="da252-2" d="M18,25h1V24H17v1Z"/><rect class="da252-2" x="16" y="25" width="1" height="1"/><path class="da252-2" d="M13,26v1h3V26H13Z"/><path class="da252-2" d="M13,23h3v1h1V21H16v1H13V21H12v3h1Z"/><path class="da252-4" d="M13,25v1h3V25h1V24H16V23H13v1H12v1Z"/><rect class="da252-2" x="12" y="25" width="1" height="1"/><path class="da252-2" d="M12,24H10v1h2Z"/><path class="da252-2" d="M10,25H8v1h2Z"/><path class="da252-2" d="M9,27H8v3H7V27H6v6H7V31H8v2H9V27Z"/><rect class="da252-2" x="7" y="26" width="1" height="1"/><path class="da252-3" d="M7,30H8V27H7v3Z"/><path class="da252-4" d="M7,31v2H8V31Z"/><path class="da252-5" d="M19,30H18V29H17V28H12v1H11v1H10v3h2V32h5v1h2V30Zm-6,1H12V30h1Zm4,0H16V30h1Z"/><rect class="da252-2" x="20" y="15" width="1" height="1"/><path class="da252-2" d="M19,15h1V14H19Z"/><path class="da252-4" d="M12,13h1v1h2V12H14V11H13V10H11v1H10v1h2Z"/><path class="da252-4" d="M13,20v2h3V20Z"/><rect class="da252-4" x="9" y="15" width="1" height="1"/><rect class="da252-4" x="10" y="13" width="1" height="1"/><rect class="da252-4" x="19" y="15" width="1" height="1"/><rect class="da252-4" x="14" y="15" width="1" height="1"/><path class="da252-4" d="M12,19V18h5v2h1V19h1V16H18v1H16V16H15v1H14V16H13v1H11V16H10v3h1v1h1Z"/><path class="da252-2" d="M19,17v2h1V16H19Z"/><rect class="da252-2" x="18" y="19" width="1" height="1"/><rect class="da252-2" x="17" y="20" width="1" height="1"/><rect class="da252-2" x="11" y="20" width="1" height="1"/><rect class="da252-2" x="10" y="19" width="1" height="1"/><path class="da252-2" d="M10,16H9v3h1V16Z"/><rect class="da252-2" x="8" y="15" width="1" height="1"/><rect class="da252-2" x="14" y="16" width="1" height="1"/><path class="da252-6" d="M12,13V12H10v1h2Z"/><path class="da252-7" d="M13,20V19h3v2h1V18H12v3h1Z"/><path class="da252-2" d="M16,19H13v1h3Z"/><path class="da252-8" d="M10,14V11h1V10h2v1h1v1h1v2h1V13h2v1h2V10H19V9H18V8H11V9H10v1H9v5h1Z"/><path class="da252-9" d="M12,13H11v1h2V13Z"/><path class="da252-9" d="M11,17h2V16H11Z"/><path class="da252-9" d="M10,14v2h1V14Z"/><path class="da252-2" d="M11,14v2h2V14Z"/><path class="da252-9" d="M19,14H18v2h1V14Z"/><path class="da252-9" d="M18,13H16v1h2Z"/><path class="da252-9" d="M16,17h2V16H16Z"/><path class="da252-9" d="M15,14H13v2h1V15h1v1h1V14Z"/><path class="da252-2" d="M16,14v2h2V14Z"/></svg>