<svg xmlns="http://www.w3.org/2000/svg" viewBox="0 0 29 33"><defs><style>polygon,rect,path{shape-rendering:crispedges;}.cb139-1{fill:#6b4f99;}.cb139-2{fill:#000000;}.cb139-3{fill:#6f7032;}.cb139-4{fill:#ffffff;}.cb139-5{fill:#e8b795;}.cb139-6{fill:#317f03;}.cb139-7{fill:#317f03;}.cb139-8{fill:#00e070;}.cb139-9{fill:#280000;}.cb139-10{fill:#ff5e17;}.cb139-11{fill:#560000;}.cb139-12{fill:#900;}.cb139-13{fill:#fad000;}</style></defs><path class="cb139-1" d="M11,22v1h1V21H11Z"/><rect class="cb139-1" x="10" y="24" width="1"/><path class="cb139-1" d="M6,32V27H5V26H6V25H5V24H4V21H5V20H6V19H9V18H8V12H9V11h1V10h1V9h7v1h1v1h1v2h1v5H20v2H19v1H17v2h1v1h1v1h2v1h1v1h1v6h6V0H0V33H6Z"/><rect class="cb139-1" x="9" y="25" width="1"/><path class="cb139-2" d="M23,27H22v6h1V27Z"/><rect class="cb139-2" x="21" y="26" width="1" height="1"/><path class="cb139-3" d="M22,27H21v6h1V27Z"/><path class="cb139-2" d="M21,27H20v6h1V27Z"/><path class="cb139-2" d="M20,26h1V25H19v1Z"/><path class="cb139-3" d="M20,27h1V26H19V25H18v4H17v4h3V27Z"/><rect class="cb139-4" x="16" y="24" width="1" height="1"/><path class="cb139-2" d="M17,29H16v4h1V29Z"/><rect class="cb139-4" x="15" y="23" width="1" height="1"/><path class="cb139-4" d="M16,29h1V26H16V25H13v1H12v3h1v4h1V32h1v1h1V29Zm-1,2H14V30h1Zm0-2H14V28h1Zm0-2H14V26h1Z"/><rect class="cb139-2" x="14" y="26" width="1" height="1"/><rect class="cb139-2" x="14" y="28" width="1" height="1"/><rect class="cb139-2" x="14" y="30" width="1" height="1"/><rect class="cb139-2" x="14" y="32" width="1" height="1"/><rect class="cb139-4" x="13" y="23" width="1" height="1"/><rect class="cb139-4" x="12" y="24" width="1" height="1"/><path class="cb139-2" d="M13,29H12v4h1V29Z"/><path class="cb139-3" d="M12,29H11V25H10v2H9v6h3V29Z"/><path class="cb139-2" d="M9,26v1h1V25H9Z"/><path class="cb139-2" d="M9,27H8v6H9V27Z"/><path class="cb139-4" d="M7,28v1H8V28Z"/><path class="cb139-3" d="M8,29H7v4H8V29Z"/><path class="cb139-2" d="M7,29V28H7V27H6v6H7V29Z"/><path class="cb139-5" d="M18,14V13H16v1h2Z"/><rect class="cb139-5" x="9" y="15" width="1" height="1"/><rect class="cb139-5" x="11" y="13" width="1" height="1"/><path class="cb139-5" d="M18,20V15H17v2H16V15H15V11H14v1H13v2h1v2h1v1H14V16H13V15H11v5h1v1h1v1h3V21h1V20Zm-2,0H13V19h3Z"/><rect class="cb139-5" x="11" y="11" width="1" height="1"/><rect class="cb139-5" x="19" y="15" width="1" height="1"/><rect class="cb139-2" x="19" y="16" width="1" height="1"/><path class="cb139-2" d="M16,22H13V21H12v2H11v1H10v1h1v4h1V26h1V25H12V24h1V23h1v1H13v1h3V24H15V23h1v1h1v1H16v1h1v3h1V25h1V24H18V23H17V21H16Z"/><rect class="cb139-2" x="9" y="14" width="1" height="1"/><rect class="cb139-2" x="9" y="16" width="1" height="1"/><rect class="cb139-2" x="14" y="16" width="1" height="1"/><path class="cb139-4" d="M13,15V14H12v1Z"/><path class="cb139-4" d="M17,14H16v1h1Z"/><path class="cb139-2" d="M12,14H11v1h1Z"/><path class="cb139-2" d="M17,15h1V14H17Z"/><path class="cb139-6" d="M18,12H16v1h2Z"/><rect class="cb139-6" x="11" y="12" width="1" height="1"/><path class="cb139-7" d="M19,18H18v2H17v1h2V18Z"/><rect class="cb139-7" x="19" y="17" width="1" height="1"/><path class="cb139-7" d="M11,21h1V20H11V18H10v3Z"/><rect class="cb139-7" x="9" y="17" width="1" height="1"/><rect class="cb139-2" x="13" y="19" width="3" height="1"/><path class="cb139-8" d="M9,16V14h1v4h1V11h1v3h1V12h1V11h1v4h1V12h2v6h1V15h1v3h1V13H20V11H19V10H18V9H11v1H10v1H9v1H8v6H9V16Z"/><path class="cb139-8" d="M10,20V18H9v2Z"/><path class="cb139-8" d="M13,16h1V14H13v2Z"/><path class="cb139-8" d="M17,17V15H16v2Z"/><path class="cb139-8" d="M19,19v1h1V18H19Z"/><path class="cb139-5" d="M7,27v1H8V27H9V26H6v1Z"/><polygon class="cb139-2" points="5 26 5 27 6 27 6 26 5 26"/><path class="cb139-9" d="M6,22V21H7V19H6v1H5v2Z"/><path class="cb139-9" d="M9,25h1V24h0V23H9v1H8v2H9V25Z"/><rect class="cb139-10" x="6" y="24" width="1" height="1"/><path class="cb139-2" d="M10,21V20H9v1Z"/><polygon class="cb139-2" points="10 22 11 22 11 21 11 21 10 21 10 21 10 22"/><path class="cb139-11" d="M10,22v2h1V22Z"/><path class="cb139-12" d="M10,21H9v2h1V21Z"/><polygon class="cb139-10" points="9 21 9 20 8 20 8 21 9 21"/><path class="cb139-11" d="M5,22V21H4v2H5Z"/><path class="cb139-12" d="M6,23V22H5v2H6Z"/><path class="cb139-2" d="M8,25H6v1H8Z"/><path class="cb139-2" d="M8,20H9V19H7v1Z"/><path class="cb139-13" d="M8,20H7v1H8Z"/><polygon class="cb139-13" points="6 21 6 22 6 23 6 24 7 24 7 21 6 21"/><path class="cb139-13" d="M7,24v1H8V24Z"/><path class="cb139-13" d="M8,21v3H9V21Z"/><rect class="cb139-11" x="7" y="21" width="1" height="3"/><rect class="cb139-2" x="5" y="24" width="1" height="1"/><path class="cb139-2" d="M4,23v1H5V23Z"/></svg>