<svg xmlns="http://www.w3.org/2000/svg" viewBox="0 0 29 33"><defs><style>polygon,rect,path{shape-rendering:crispedges;}.ba34-1{fill:#db5a8e;}.ba34-2{fill:#000000;}.ba34-3{fill:#a56e49;}.ba34-4{fill:#009b97;}.ba34-5{fill:#009b97;}.ba34-6{fill:#66334f;}.ba34-7{fill:#66334f;}.ba34-8{fill:#d8be00;}.ba34-9{fill:#68aaad;}.ba34-10{fill:#ff6aa5;}.ba34-11{fill:#ad5a21;}.ba34-12{fill:#ffffff;}</style></defs><path class="ba34-1" d="M0,33H6V25H7V23H8V22h3v1h1V21H11V20H10V19H9V16H8V15H9V13H8V9H9V8h1V7h1V6h7V7h1V8h1V9h1v4H20v2h1v1H20v3H19v1H18v1H17v3h2v1h2v1h1v1h1v6h6V0H0Z"/><path class="ba34-2" d="M23,27H22v6h1V27Z"/><rect class="ba34-2" x="21" y="26" width="1" height="1"/><path class="ba34-3" d="M22,27H21v6h1V27Z"/><rect class="ba34-3" x="20" y="26" width="1" height="1"/><path class="ba34-2" d="M21,27H20v6h1V27Z"/><path class="ba34-2" d="M20,26h1V25H19v1Z"/><path class="ba34-4" d="M10,30h1V29h1V28h1V27H12V26H11v1H9v6h1V30Z"/><rect class="ba34-4" x="16" y="30" width="1" height="1"/><path class="ba34-4" d="M20,27V26H19V25H18v1H17v1H16v1h1v1h1v1h1v3h1V27Z"/><rect class="ba34-4" x="12" y="30" width="1" height="1"/><path class="ba34-4" d="M16,32H12v1h5V32Z"/><path class="ba34-2" d="M13,24V22H12v2Z"/><path class="ba34-2" d="M9,27H8v6H9V27Z"/><path class="ba34-3" d="M8,27H9V25H7v8H8V27Z"/><path class="ba34-2" d="M7,25H6v8H7V25Z"/><rect class="ba34-2" x="12" y="26" width="1" height="1"/><rect class="ba34-2" x="16" y="26" width="1" height="1"/><path class="ba34-2" d="M18,26V25h1V24H17v2Z"/><path class="ba34-2" d="M13,27v1h3V27H13Z"/><path class="ba34-3" d="M16,23H13v1H12v2h1v1h3V26h1V24H16Z"/><path class="ba34-5" d="M19,30H18V29H17V28H12v1H11v1H10v3h2V32h5v1h2V30Zm-6,1H12V30h1Zm4,0H16V30h1Z"/><rect class="ba34-2" x="20" y="15" width="1" height="1"/><path class="ba34-3" d="M18,16H16V15H13v1H10v2h1v1h1V18h2v1h1V18h2v1h1V18h1V16Zm-3,1H14V16h1Z"/><rect class="ba34-3" x="19" y="15" width="1" height="1"/><rect class="ba34-3" x="15" y="20" width="1" height="1"/><path class="ba34-3" d="M13,13h1v1h1V13h1V12h2V11H11v1h2Z"/><rect class="ba34-3" x="13" y="20" width="1" height="1"/><rect class="ba34-3" x="9" y="15" width="1" height="1"/><path class="ba34-2" d="M19,17h1V16H19Z"/><path class="ba34-2" d="M16,23v1h1V22H16Z"/><path class="ba34-2" d="M10,16H9v1h1Z"/><rect class="ba34-2" x="8" y="15" width="1" height="1"/><rect class="ba34-2" x="14" y="16" width="1" height="1"/><path class="ba34-6" d="M13,13V12H10v1h3Z"/><path class="ba34-6" d="M16,13h3V12H16Z"/><path class="ba34-7" d="M15,18v1h1V18Z"/><path class="ba34-7" d="M13,23h3V22h1V21h1V20h1V19h1V17H19v1H18v1H16v2H15V20H14v1H13V19h1V18H12v1H11V18H10V17H9v2h1v1h1v1h1v1h1Z"/><path class="ba34-2" d="M14,19H13v1h3V19H14Z"/><path class="ba34-2" d="M16,18v1h1V18Z"/><path class="ba34-8" d="M10,13V12h1V11h7v1h1v2h1V13h1V9H20V8H19V7H18V6H11V7H10V8H9V9H8v4H9v1h1Z"/><path class="ba34-9" d="M13,16V15h1V14H10v2h3Z"/><path class="ba34-9" d="M15,14v1h1v1h3V14H15Z"/><path class="ba34-2" d="M16,13H15v1h4V13H16Z"/><path class="ba34-2" d="M14,14V13H10v1h4Z"/><path class="ba34-2" d="M19,15h1V14H19Z"/><path class="ba34-2" d="M10,14H9v1h1Z"/><path class="ba34-2" d="M14,14v1h1V14Z"/><path class="ba34-10" d="M8,23H7v1H8Z"/><path class="ba34-10" d="M9,22H8v1H9Z"/><path class="ba34-10" d="M11,23V22H10v1Z"/><path class="ba34-10" d="M10,25H9v1h2V25Z"/><path class="ba34-10" d="M12,24H11v1h1Z"/><path class="ba34-11" d="M8,25H9V24h1v1h1V23H8v2Z"/><path class="ba34-11" d="M9,27h2V26H9Z"/><path class="ba34-12" d="M8,24H7v1H8Z"/><path class="ba34-12" d="M10,23V22H9v1Z"/><path class="ba34-12" d="M12,24V23H11v1Z"/><path class="ba34-12" d="M11,25v1h1V25Z"/><rect class="ba34-2" x="9" y="24" width="1" height="1"/></svg>