<svg xmlns="http://www.w3.org/2000/svg" viewBox="0 0 29 33"><defs><style>polygon,rect,path{shape-rendering:crispedges;}.ma59-1{fill:#d4a122;}.ma59-2{fill:#000000;}.ma59-3{fill:#b23b00;}.ma59-4{fill:#68aa7b;}.ma59-5{fill:#ce8452;}.ma59-6{fill:#ff791f;}.ma59-7{fill:#ffffff;}.ma59-8{fill:#326b43;}.ma59-9{fill:#326b43;}.ma59-10{fill:#5a2de2;}</style></defs><path class="ma59-1" d="M6,32V27H7V26H8V25h2V24h2V21H11V20H9V18H8V13H9V11h1V10h1V9h7v1h2v2h1v6H20v2H18v1H17v3h2v1h2v1h1v1h1v6h6V0H0V33H6Z"/><path class="ma59-2" d="M23,27H22v6h1V27Z"/><rect class="ma59-2" x="21" y="26" width="1" height="1"/><path class="ma59-3" d="M21,31h1V30H21Z"/><path class="ma59-3" d="M21,28h1V27H21Z"/><path class="ma59-2" d="M21,30V27H20v6h1V30Z"/><path class="ma59-3" d="M18,28h2V27H18Z"/><path class="ma59-3" d="M18,31h2V30H18Z"/><path class="ma59-2" d="M20,26h1V25H19v1Z"/><path class="ma59-2" d="M18,30V25h1V24H17v1H16v1h1v7h1V30Z"/><path class="ma59-4" d="M17,26H16v1H13V26H12v7h5V26Z"/><path class="ma59-2" d="M13,26v1h3V26H13Z"/><path class="ma59-2" d="M13,23h3v1h1V21H16v1H13V21H12v3h1Z"/><path class="ma59-5" d="M13,25v1h3V25h1V24H16V23H13v1H12v1Z"/><path class="ma59-2" d="M12,26h1V25H12V24H10v1h1v8h1V26Z"/><path class="ma59-3" d="M9,28h2V27H9Z"/><path class="ma59-3" d="M9,31h2V30H9Z"/><path class="ma59-2" d="M10,25H8v1h2Z"/><path class="ma59-2" d="M9,30V27H8v6H9V30Z"/><rect class="ma59-2" x="7" y="26" width="1" height="1"/><path class="ma59-3" d="M7,31H8V30H7Z"/><path class="ma59-3" d="M8,28V27H7v1Z"/><path class="ma59-2" d="M7,30V27H6v6H7V30Z"/><path class="ma59-6" d="M9,31v2h2V31Z"/><path class="ma59-6" d="M18,31v2h2V31Z"/><path class="ma59-6" d="M18,29v1h2V28H18Z"/><path class="ma59-6" d="M9,29v1h2V28H9Z"/><path class="ma59-6" d="M18,26v1h3V26H19V25H18Z"/><path class="ma59-6" d="M9,27h2V25H10v1H8v1Z"/><path class="ma59-6" d="M7,29v1H8V28H7Z"/><path class="ma59-6" d="M7,31v2H8V31Z"/><path class="ma59-6" d="M21,31v2h1V31Z"/><path class="ma59-6" d="M21,29v1h1V28H21Z"/><rect class="ma59-2" x="19" y="14" width="1" height="1"/><rect class="ma59-5" x="19" y="15" width="1" height="1"/><path class="ma59-5" d="M13,22h3V21h1V20h1V19h1V18H18V15H16v1H15v1H14V16H13v1H11v1H10v1h1v1h1v1h1Zm-1-3V18h5v1H16v1H13V19Z"/><path class="ma59-5" d="M14,14v2h1V14Z"/><rect class="ma59-5" x="17" y="13" width="1" height="1"/><path class="ma59-5" d="M16,12H15V11H14v2h2Z"/><rect class="ma59-5" x="17" y="11" width="1" height="1"/><rect class="ma59-5" x="9" y="15" width="1" height="1"/><rect class="ma59-5" x="11" y="13" width="1" height="1"/><rect class="ma59-5" x="12" y="12" width="1" height="1"/><path class="ma59-2" d="M19,16v2h1V16Z"/><path class="ma59-2" d="M18,19v1h1V19Z"/><rect class="ma59-2" x="17" y="20" width="1" height="1"/><rect class="ma59-2" x="11" y="20" width="1" height="1"/><path class="ma59-2" d="M10,19v1h1V19Z"/><path class="ma59-2" d="M10,17V16H9v2h1Z"/><rect class="ma59-2" x="14" y="16" width="1" height="1"/><path class="ma59-7" d="M16,14v1h1V14Z"/><path class="ma59-2" d="M17,14v1h1V14Z"/><rect class="ma59-8" x="12" y="13" width="1" height="1"/><rect class="ma59-8" x="11" y="12" width="1" height="1"/><path class="ma59-9" d="M16,19V18H12v1h4Z"/><path class="ma59-2" d="M13,20h3V19H13Z"/><path class="ma59-2" d="M17,19V18H16v1Z"/><path class="ma59-10" d="M9,15h1V14H9V13H8v5H9V15Z"/><path class="ma59-10" d="M19,12H18v6h1V14h1v4h1V12H20V11H19Z"/><rect class="ma59-10" x="16" y="13" width="1" height="1"/><path class="ma59-10" d="M10,16v2h1V16Z"/><path class="ma59-10" d="M10,14h1V12h2v2h1V11h1v1h2V11h2V10H18V9H11v1H10v1H9v2h1Z"/><path class="ma59-10" d="M19,19v1h1V18H19Z"/><path class="ma59-10" d="M15,14v2h1V14Z"/><path class="ma59-10" d="M10,18H9v2h1V18Z"/><path class="ma59-2" d="M13,14H10v2h1v1h2V16h1V14Z"/><path class="ma59-2" d="M16,14V13H14v1h2Z"/><path class="ma59-2" d="M17,13h1V12H16v1Z"/><path class="ma59-2" d="M19,12V11H18v1Z"/><path class="ma59-2" d="M20,11V10H19v1Z"/><rect class="ma59-2" x="9" y="13" width="1" height="1"/></svg>