<svg xmlns="http://www.w3.org/2000/svg" viewBox="0 0 29 33"><defs><style>polygon,rect,path{shape-rendering:crispedges;}.eb227-1{fill:#397d98;}.eb227-2{fill:#000000;}.eb227-3{fill:#594589;}.eb227-4{fill:#ffffff;}.eb227-5{fill:#ce8452;}.eb227-6{fill:#90a2a3;}.eb227-7{fill:#ffffff;}.eb227-8{fill:#5e362f;}.eb227-9{fill:#5e362f;}.eb227-10{fill:#b23b00;}</style></defs><path class="eb227-1" d="M0,33H6V27H7V26H8V25H9V24h1V23h1V22h1V21H10V20H9V16H8V15H9V11h1V10h1V9h1V8h1V6h1V5h1V7h1V9h2v1h2v5h1v1H20v4H19v1H17v1h1v1h1v1h1v1h1v1h1v1h1v6h6V0H0Z"/><path class="eb227-2" d="M23,27H22v6h1V27Z"/><path class="eb227-3" d="M22,27H21v6h1V27Z"/><path class="eb227-2" d="M21,27h1V26H21V25H20v2H17v1h2v1h1v4h1V27Z"/><rect class="eb227-2" x="19" y="24" width="1" height="1"/><path class="eb227-3" d="M20,29H19v1H18v1H17v1H16v1h4V29Z"/><rect class="eb227-2" x="18" y="23" width="1" height="1"/><path class="eb227-3" d="M18,25H17v1H16v5h1V30h1V29h1V28H17V27h2V26h1V25H19V24H18Z"/><rect class="eb227-3" x="17" y="23" width="1" height="1"/><rect class="eb227-2" x="17" y="24" width="1" height="1"/><rect class="eb227-2" x="18" y="29" width="1" height="1"/><rect class="eb227-2" x="16" y="25" width="1" height="1"/><path class="eb227-4" d="M15,27H14v6h1V27Z"/><path class="eb227-2" d="M12,24h1V23h3v1h1V23h1V22H17V21H16v1H13V21H12v1H11v1h1Z"/><path class="eb227-5" d="M17,25V24H16V23H13v1H12v1h1v1h3V25Z"/><rect class="eb227-2" x="12" y="25" width="1" height="1"/><path class="eb227-3" d="M12,32V31H11V30H10V29H9v4h4V32Z"/><rect class="eb227-3" x="11" y="23" width="1" height="1"/><rect class="eb227-2" x="11" y="24" width="1" height="1"/><rect class="eb227-2" x="11" y="30" width="1" height="1"/><rect class="eb227-2" x="10" y="23" width="1" height="1"/><rect class="eb227-2" x="9" y="24" width="1" height="1"/><path class="eb227-3" d="M10,26v1h2v1H10v1h1v1h1v1h1V26H12V25H11V24H10v1H9v1Z"/><path class="eb227-2" d="M9,29h1V28h2V27H9V25H8v1H7v1H8v6H9V29Z"/><path class="eb227-3" d="M8,27H7v6H8V27Z"/><path class="eb227-2" d="M7,27H6v6H7V27Z"/><rect class="eb227-2" x="10" y="29" width="1" height="1"/><rect class="eb227-2" x="17" y="30" width="1" height="1"/><path class="eb227-2" d="M17,32V31H16V26H13v5H12v1h1v1h1V27h1v6h1V32Z"/><path class="eb227-6" d="M9,26v1h1V26Z"/><path class="eb227-6" d="M19,27h1V26H19Z"/><rect class="eb227-2" x="20" y="15" width="1" height="1"/><rect class="eb227-5" x="9" y="15" width="1" height="1"/><rect class="eb227-5" x="19" y="15" width="1" height="1"/><path class="eb227-5" d="M17,13v1h2V13H17Z"/><path class="eb227-5" d="M13,22h3V21h1V20h1V18h1V16H16V14H14v2h1v1H14V16H13v1H11V16H10v2h1v2h1v1h1Zm-1-3V18h1v1h3v1H13V19Z"/><path class="eb227-5" d="M11,13V12h2v1H11v1h3V13h2V12h2V10H16v1H15V10H11v1H10v2Z"/><path class="eb227-2" d="M19,17h1V16H19Z"/><path class="eb227-2" d="M17,10h1V9H16v1Z"/><path class="eb227-2" d="M14,10V9H11v1h3Z"/><rect class="eb227-2" x="10" y="10" width="1" height="1"/><path class="eb227-2" d="M10,16H9v1h1Z"/><rect class="eb227-2" x="8" y="15" width="1" height="1"/><rect class="eb227-2" x="14" y="16" width="1" height="1"/><path class="eb227-7" d="M16,14v2h1V14Z"/><path class="eb227-7" d="M19,14H18v2h1V14Z"/><path class="eb227-2" d="M17,14v2h1V14Z"/><rect class="eb227-8" x="10" y="13" width="1" height="1"/><rect class="eb227-8" x="11" y="12" width="2" height="1"/><rect class="eb227-8" x="16" y="13" width="1" height="1"/><path class="eb227-8" d="M19,13V12H18v1Z"/><path class="eb227-9" d="M19,18H18v2H17v1h2V20h1V17H19Z"/><path class="eb227-9" d="M11,20V18H10V17H9v3h1v1h2V20Z"/><rect class="eb227-2" x="13" y="19" width="3" height="1"/><rect class="eb227-2" x="12" y="18" width="1" height="1"/><path class="eb227-10" d="M14,10h1v1h1V7H15V5H14V6H13V8H12V9h2Z"/><path class="eb227-2" d="M10,16h1v1h2V16h1V14H10V11H9v4h1Z"/><rect class="eb227-2" x="14" y="13" width="2" height="1"/><path class="eb227-2" d="M18,13V12H16v1h2Z"/><path class="eb227-2" d="M19,12v3h1V10H18v2Z"/></svg>