<svg xmlns="http://www.w3.org/2000/svg" viewBox="0 0 29 33"><defs><style>polygon,rect,path{shape-rendering:crispedges;}.eb87-1{fill:#7a982c;}.eb87-2{fill:#000000;}.eb87-3{fill:#6f7032;}.eb87-4{fill:#333333;}.eb87-5{fill:#e8b795;}.eb87-6{fill:#90a2a3;}.eb87-7{fill:#ffffff;}.eb87-8{fill:#8e4717;}.eb87-9{fill:#8e4717;}.eb87-10{fill:#ff1f4a;}.eb87-11{fill:#ff6aa5;}.eb87-12{fill:#ad5a21;}</style></defs><path class="eb87-1" d="M0,33H6V27H7V26H8V25H9V24h1V23h1V22h1V21H11V20H10V19H9V16H8V15H9V11h1V10h1V9h1V8h1V6h1V5h1V7h1V9h2v1h1v1h1v4h1v1H20v3H19v1H18v1H17v1h4v1h1v2h1v8h6V0H0Z"/><path class="eb87-2" d="M7,27H6v6H7V27Z"/><path class="eb87-3" d="M8,27H7v6H8V27Z"/><path class="eb87-2" d="M9,29h1V28h2V27H9V25H8v1H7v1H8v6H9V29Z"/><rect class="eb87-2" x="9" y="24" width="1" height="1"/><path class="eb87-3" d="M12,32V31H11V30H10V29H9v4h4V32Z"/><rect class="eb87-2" x="10" y="23" width="1" height="1"/><path class="eb87-3" d="M10,26v1h2v1H10v1h1v1h1v1h1V26H12V25H11V24H10v1H9v1Z"/><rect class="eb87-3" x="11" y="23" width="1" height="1"/><rect class="eb87-2" x="11" y="24" width="1" height="1"/><rect class="eb87-2" x="10" y="29" width="1" height="1"/><path class="eb87-2" d="M12,24h1V23h3v1h1V23h1V22H17V21H16v1H13V21H12v1H11v1h1Z"/><rect class="eb87-2" x="12" y="25" width="1" height="1"/><path class="eb87-4" d="M15,27H14v6h1V27Z"/><path class="eb87-5" d="M17,25V24H16V23H13v1H12v1h1v1h3V25Z"/><rect class="eb87-2" x="16" y="25" width="1" height="1"/><path class="eb87-3" d="M20,29H19v1H18v1H17v1H16v1h4V29Z"/><rect class="eb87-2" x="17" y="30" width="1" height="1"/><path class="eb87-3" d="M17,26H16v5h1V30h1V29h1V28H17V27h1V26Z"/><path class="eb87-2" d="M21,27H17v1h2v1h1v4h1V27Z"/><path class="eb87-3" d="M22,27H21v6h1V27Z"/><path class="eb87-2" d="M23,25H22v8h1V25Z"/><rect class="eb87-2" x="18" y="29" width="1" height="1"/><rect class="eb87-2" x="11" y="30" width="1" height="1"/><path class="eb87-2" d="M17,32V31H16V26H13v5H12v1h1v1h1V27h1v6h1V32Z"/><path class="eb87-6" d="M9,26v1h1V26Z"/><rect class="eb87-2" x="20" y="15" width="1" height="1"/><path class="eb87-2" d="M19,13v2h1V11H19v2Z"/><path class="eb87-5" d="M12,19V18h5v2h1V19h1V16h1V15H16V14h3V13H16V12h3V11H18V10H16v1H15V10H11v1H10v1h3v1H10v1h3v1H9v1h1v3h1v1h1Zm2-3h1v1H14Z"/><path class="eb87-5" d="M13,20v2h3V20Z"/><path class="eb87-2" d="M19,17v2h1V16H19Z"/><rect class="eb87-2" x="18" y="10" width="1" height="1"/><rect class="eb87-2" x="18" y="19" width="1" height="1"/><rect class="eb87-2" x="17" y="20" width="1" height="1"/><path class="eb87-2" d="M17,10h1V9H16v1Z"/><path class="eb87-2" d="M14,10V9H11v1h3Z"/><rect class="eb87-2" x="11" y="20" width="1" height="1"/><rect class="eb87-2" x="10" y="10" width="1" height="1"/><rect class="eb87-2" x="10" y="19" width="1" height="1"/><path class="eb87-2" d="M10,14V11H9v4h1Z"/><path class="eb87-2" d="M10,16H9v3h1V16Z"/><rect class="eb87-2" x="8" y="15" width="1" height="1"/><rect class="eb87-2" x="14" y="16" width="1" height="1"/><path class="eb87-7" d="M13,15V14H12v1Z"/><path class="eb87-7" d="M11,15V14H10v1Z"/><path class="eb87-7" d="M18,14v1h1V14Z"/><path class="eb87-7" d="M16,14v1h1V14Z"/><path class="eb87-2" d="M12,15V14H11v1Z"/><path class="eb87-2" d="M17,14v1h1V14Z"/><path class="eb87-8" d="M13,13V12H10v1Z"/><path class="eb87-8" d="M16,12v1h3V12Z"/><path class="eb87-9" d="M17,19V18H13v1h3v2h1V19Z"/><path class="eb87-9" d="M13,20V19H12v2h1Z"/><path class="eb87-2" d="M16,19H13v1h3Z"/><path class="eb87-2" d="M12,18v1h1V18Z"/><path class="eb87-10" d="M14,10h1v1h1V7H15V5H14V6H13V8H12V9h2Z"/><path class="eb87-5" d="M20,25v2h2V25H20Z"/><path class="eb87-11" d="M22,24V23H21v1Z"/><path class="eb87-11" d="M21,23V22H20v1Z"/><path class="eb87-11" d="M19,23V22H18v1Z"/><path class="eb87-11" d="M19,26h1V25H18v1Z"/><rect class="eb87-11" x="17" y="24" width="1" height="1"/><path class="eb87-12" d="M19,23H18v2h1V24h1v1h1V23H19Z"/><path class="eb87-12" d="M19,26H18v1h2V26Z"/><path class="eb87-7" d="M21,25h1V24H21Z"/><path class="eb87-7" d="M20,23V22H19v1Z"/><path class="eb87-7" d="M18,23H17v1h1Z"/><rect class="eb87-7" x="17" y="25" width="1" height="1"/><path class="eb87-2" d="M20,24H19v1h1Z"/></svg>