<svg xmlns="http://www.w3.org/2000/svg" viewBox="0 0 29 33"><defs><style>polygon,rect,path{shape-rendering:crispedges;}.ia263-1{fill:#000000;}.ia263-2{fill:#cc3232;}.ia263-3{fill:#cc3232;}.ia263-4{fill:#efcaaf;}.ia263-5{fill:#ffffff;}.ia263-6{fill:#fad000;}.ia263-7{fill:#7a982c;}</style></defs><path class="ia263-1" d="M23,27H22v6h1V27Z"/><rect class="ia263-1" x="21" y="26" width="1" height="1"/><path class="ia263-2" d="M22,27H21v6h1V27Z"/><path class="ia263-1" d="M21,27H20v6h1V27Z"/><path class="ia263-1" d="M20,26h1V25H19v1Z"/><path class="ia263-2" d="M19,32V31H18v1H17V29h1V28h1v1h1V27h1V26H19V25H18v1H17v1H16v4H15v1H13V27H12V26H11V25H10v1H9v3h1V28h1v1h1v3H11V31H10v1H9v1H20V32Z"/><rect class="ia263-2" x="14" y="30" width="1" height="1"/><rect class="ia263-2" x="18" y="29" width="1" height="1"/><rect class="ia263-2" x="10" y="29" width="1" height="1"/><path class="ia263-1" d="M9,31V26h1V25H8v1H7v1H8v6H9V31Z"/><path class="ia263-2" d="M8,27H7v6H8V27Z"/><path class="ia263-1" d="M7,27H6v6H7V27Z"/><path class="ia263-3" d="M19,30H18V29H17v3h1V31h1v1h1V29H19Z"/><rect class="ia263-3" x="18" y="28" width="1" height="1"/><path class="ia263-3" d="M15,30v1h1V29H15Z"/><path class="ia263-3" d="M14,30V29H13v3h2V31H14Z"/><path class="ia263-3" d="M9,32h1V31h1v1h1V29H11v1H10V29H9v3Z"/><rect class="ia263-3" x="10" y="28" width="1" height="1"/><path class="ia263-4" d="M13,15H10v1h3Z"/><path class="ia263-4" d="M19,15H16v1h3Z"/><rect class="ia263-4" x="13" y="20" width="3" height="1"/><path class="ia263-5" d="M19,14H18v1h1Z"/><path class="ia263-5" d="M13,14H12v1h1Z"/><rect class="ia263-1" x="14" y="29" width="1" height="1"/><rect class="ia263-1" x="12" y="26" width="1" height="1"/><path class="ia263-1" d="M15,28v1h1V27H15Z"/><rect class="ia263-1" x="16" y="26" width="1" height="1"/><path class="ia263-1" d="M14,28V27H13v2h1Z"/><rect class="ia263-1" x="17" y="25" width="1" height="1"/><rect class="ia263-1" x="11" y="25" width="1" height="1"/><rect class="ia263-6" x="16" y="25" width="1" height="1"/><polygon class="ia263-6" points="15 26 15 25 14 25 14 26 13 26 13 27 14 27 14 28 14 29 15 29 15 28 15 27 16 27 16 26 15 26"/><rect class="ia263-6" x="12" y="25" width="1" height="1"/><path class="ia263-6" d="M11,25h1V23H11v2Z"/><path class="ia263-6" d="M17,24v1h1V23H17Z"/><path class="ia263-1" d="M19,25V23H18v2Z"/><path class="ia263-1" d="M11,24V23H10v2h1Z"/><path class="ia263-7" d="M0,9V33H6V27H7V26H8V25h2V23h1V21H10V20H9V17H8V15H9V11h1V10h1V9h7v1h1v1h1v4h1v2H20v3H19v1H18v2h1v2h2v1h1v1h1v6h6V0H0Z"/><path class="ia263-1" d="M12,24v1h1v1h1V25h1v1h1V25h1V23h1V21h1V20h1V17h1V15H20V11H19V10H18V9H11v1H10v1H9v4H8v2H9v3h1v1h1v2h1Zm4-9h2V14h1v2H16Zm0,6H13V20h3Zm-5-5H10V15h2V14h1v2Z"/></svg>