<svg xmlns="http://www.w3.org/2000/svg" viewBox="0 0 29 33"><defs><style>polygon,rect,path{shape-rendering:crispedges;}.ga181-1{fill:#397d98;}.ga181-2{fill:#000000;}.ga181-3{fill:#ffce00;}.ga181-4{fill:#a56e49;}.ga181-5{fill:#ffffff;}.ga181-6{fill:#ffffff;}.ga181-7{fill:#5e362f;}.ga181-8{fill:#5e362f;}.ga181-9{fill:#45ba00;}.ga181-10{fill:#eaeaea;}</style></defs><path class="ga181-1" d="M0,33H6V27H7V26H8V25h2V24h2V22H11V21H10V20H9V16H8V15H9V10h1V9h1V8h7V9h1v2h1v4h1v1H20v3h3v1h1v6H23v7h6V0H0Z"/><path class="ga181-1" d="M18,22H17v2h1Z"/><rect class="ga181-1" x="19" y="24" width="1" height="1"/><path class="ga181-2" d="M7,27H6v6H7V27Z"/><rect class="ga181-2" x="7" y="26" width="1" height="1"/><path class="ga181-3" d="M8,27H7v6H8V27Z"/><path class="ga181-2" d="M9,27H8v6H9V27Z"/><path class="ga181-2" d="M10,25H8v1h2Z"/><path class="ga181-3" d="M20,26H19V25H17v1H16v1H13V26H12V25H10v1H8v1H9v6H20V26Zm-9,3v3H10V28h1Zm4,3H12V28h3Zm4-3H17v2h1V30h1v2H16V28h3Z"/><rect class="ga181-3" x="13" y="29" width="1" height="2"/><path class="ga181-2" d="M12,24H10v1h2Z"/><path class="ga181-2" d="M13,23H12v1h1Z"/><rect class="ga181-2" x="12" y="25" width="1" height="1"/><path class="ga181-2" d="M13,26v1h3V26H13Z"/><path class="ga181-2" d="M16,23v1h1V23Z"/><path class="ga181-4" d="M13,25v1h3V25h1V24H16V23H13v1H12v1Z"/><rect class="ga181-2" x="16" y="25" width="1" height="1"/><path class="ga181-2" d="M18,24H17v1h2V24Z"/><path class="ga181-2" d="M21,27V26H20v7h1V27Z"/><path class="ga181-3" d="M22,27H21v6h1V27Z"/><path class="ga181-2" d="M23,26H22v7h1V26Z"/><path class="ga181-5" d="M12,32h3V28H12Zm1-3h1v2H13Z"/><path class="ga181-5" d="M10,29v3h1V28H10Z"/><path class="ga181-5" d="M16,28v4h3V30H18v1H17V29h2V28H16Z"/><rect class="ga181-2" x="20" y="15" width="1" height="1"/><path class="ga181-2" d="M19,13v2h1V11H19v2Z"/><path class="ga181-4" d="M10,17h1v1h5v1h1V18h1V17h1V16h1V15H16V14h3V13H16V12h3V11H18V10H17v1H16V10H15v1H14V10H13v1H12V10H11v1H10v1h3v1H10v1h3v1H9v1h1Zm4-1h1v1H14Z"/><rect class="ga181-2" x="17" y="9" width="1" height="1"/><rect class="ga181-2" x="15" y="9" width="1" height="1"/><rect class="ga181-2" x="11" y="9" width="1" height="1"/><rect class="ga181-2" x="13" y="9" width="1" height="1"/><rect class="ga181-2" x="10" y="10" width="1" height="1"/><path class="ga181-2" d="M10,14V11H9v4h1Z"/><rect class="ga181-2" x="8" y="15" width="1" height="1"/><rect class="ga181-2" x="14" y="16" width="1" height="1"/><path class="ga181-6" d="M13,15V14H12v1Z"/><path class="ga181-6" d="M11,15V14H10v1Z"/><path class="ga181-6" d="M18,14v1h1V14Z"/><path class="ga181-6" d="M16,14v1h1V14Z"/><path class="ga181-2" d="M12,15V14H11v1Z"/><path class="ga181-2" d="M17,14v1h1V14Z"/><path class="ga181-7" d="M13,13V12H10v1Z"/><path class="ga181-7" d="M16,12v1h3V12Z"/><path class="ga181-8" d="M15,18H13v1h3V18Z"/><path class="ga181-8" d="M14,23h3V22h1V20h1V19h1V16H19v1H18v1H17v1H16v1H13V19H12V18H11V17H10V16H9v4h1v1h1v1h1v1h2Z"/><rect class="ga181-2" x="13" y="19" width="3" height="1"/><path class="ga181-2" d="M12,18v1h1V18Z"/><path class="ga181-9" d="M18,11h1V9H18v2Z"/><path class="ga181-9" d="M12,10v1h1V9h1v2h1V9h1v2h1V9h1V8H11V9h1Z"/><rect class="ga181-9" x="10" y="9" width="1" height="1"/><path class="ga181-9" d="M10,10H9v1h1Z"/><path class="ga181-4" d="M22,25H20v1h1v1h1V26h1V25Z"/><path class="ga181-2" d="M23,26h1V25H23Z"/><rect class="ga181-2" x="19" y="25" width="1" height="1"/><path class="ga181-2" d="M23,22h1V21H23Z"/><path class="ga181-2" d="M21,22h1V21H20v1Z"/><path class="ga181-6" d="M23,23h1V22H23Z"/><path class="ga181-6" d="M23,23H22v1H21v1h3V24H23Z"/><path class="ga181-10" d="M21,25V24H20v1Z"/><path class="ga181-10" d="M19,20H18v4h2V23H19V21h1V20h3V19H19Z"/><rect class="ga181-2" x="22" y="22" width="1" height="1"/><rect class="ga181-2" x="21" y="23" width="1" height="1"/><path class="ga181-2" d="M23,24h1V23H23Z"/><path class="ga181-6" d="M20,20v1h2v1h1V21h1V20H20Z"/><path class="ga181-6" d="M21,23h1V22H20V21H19v2h1v1h1Z"/></svg>