<svg xmlns="http://www.w3.org/2000/svg" viewBox="0 0 29 33"><defs><style>polygon,rect,path{shape-rendering:crispedges;}.hb58-1{fill:#397d98;}.hb58-2{fill:#000000;}.hb58-3{fill:#6d3e35;}.hb58-4{fill:#af8423;}.hb58-5{fill:#af8423;}.hb58-6{fill:#ffffff;}.hb58-7{fill:#e70059;}.hb58-8{fill:#6c9302;}.hb58-9{fill:#68aaad;}</style></defs><path class="hb58-1" d="M0,33H6V27H7V26H8V25h2V24h2V21H11V20H10V19H9V16H8V15H9V11h1V9h1V7h1V6H11V5h2V6h2V7h1V9h2v1h1v1h1v4h1v1H20v3H19v1H18v1H17v3h2v1h2v1h1v1h1v6h6V0H0Z"/><path class="hb58-2" d="M23,27H22v6h1V27Z"/><path class="hb58-3" d="M22,27H21v6h1V27Z"/><rect class="hb58-2" x="21" y="26" width="1" height="1"/><path class="hb58-2" d="M21,27H20v6h1V27Z"/><path class="hb58-3" d="M20,27h1V26H19V25H17V24H16V23H13v1H12v1H10v1H8v1H9v6h5V29h1v4h5V27Zm-8,2H11V28h1Zm6,0H17V28h1Z"/><path class="hb58-2" d="M20,26h1V25H19v1Z"/><rect class="hb58-2" x="17" y="28" width="1" height="1"/><path class="hb58-2" d="M18,25h1V24H17v1Z"/><path class="hb58-2" d="M15,29H14v4h1V29Z"/><path class="hb58-2" d="M13,23V22H12v2h1Z"/><rect class="hb58-2" x="11" y="28" width="1" height="1"/><path class="hb58-2" d="M12,24H10v1h2Z"/><path class="hb58-2" d="M10,25H8v1h2Z"/><path class="hb58-2" d="M9,27H8v6H9V27Z"/><path class="hb58-3" d="M8,27H7v6H8V27Z"/><rect class="hb58-2" x="7" y="26" width="1" height="1"/><path class="hb58-2" d="M7,27H6v6H7V27Z"/><rect class="hb58-2" x="20" y="15" width="1" height="1"/><path class="hb58-2" d="M18,13H15v1h4v1h1V11H19v2Z"/><path class="hb58-3" d="M16,16V15H13v1H10v2h1v1h1V18h5v1h1V18h1V16H16Zm-1,1H14V16h1Z"/><rect class="hb58-3" x="19" y="15" width="1" height="1"/><path class="hb58-3" d="M12,12v1h2v1h1V13h1V12h2v1h1V11H18V10H16v1H14V10H11v1H10v1Z"/><rect class="hb58-3" x="16" y="19" width="1" height="1"/><rect class="hb58-3" x="12" y="19" width="1" height="1"/><path class="hb58-3" d="M14,20H13v1h3V20H14Z"/><rect class="hb58-3" x="9" y="15" width="1" height="1"/><rect class="hb58-2" x="18" y="10" width="1" height="1"/><path class="hb58-2" d="M16,23v1h1V22H16Z"/><path class="hb58-2" d="M12,10h1V9H11v1Z"/><path class="hb58-2" d="M17,10h1V9H16v1Z"/><path class="hb58-2" d="M11,10H10v1h1Z"/><rect class="hb58-2" x="8" y="15" width="1" height="1"/><rect class="hb58-2" x="14" y="16" width="1" height="1"/><path class="hb58-4" d="M18,12H16v1h2Z"/><path class="hb58-4" d="M10,12v1h2V12Z"/><path class="hb58-5" d="M13,23h3V22h1V21h1V20h1V19h1V16H19v2H18v1H17v1H16v1H13V20H12V19H11V18H10V16H9v3h1v1h1v1h1v1h1Z"/><path class="hb58-2" d="M13,18H12v1h1Z"/><path class="hb58-2" d="M16,18v1h1V18Z"/><path class="hb58-2" d="M15,19v1h1V19Z"/><path class="hb58-2" d="M15,19V18H14v1Z"/><rect class="hb58-2" x="13" y="19" width="1" height="1"/><path class="hb58-6" d="M14,19V18H13v1Z"/><path class="hb58-6" d="M16,19V18H15v1Z"/><path class="hb58-7" d="M14,20h1V19H14Z"/><path class="hb58-8" d="M13,10h1v1h2V7H15V6H13V5H11V6h1V7H11V9h2Z"/><path class="hb58-8" d="M11,9H10v1h1Z"/><path class="hb58-9" d="M13,16V15h1V14H10v2h3Z"/><path class="hb58-9" d="M19,14H15v1h1v1h3V14Z"/><path class="hb58-2" d="M10,14h4V13H10V11H9v4h1Z"/><path class="hb58-2" d="M15,15V14H14v1Z"/><rect class="hb58-8" x="10" y="9" width="1" height="1"></rect></svg>