<svg xmlns="http://www.w3.org/2000/svg" viewBox="0 0 29 33"><defs><style>polygon,rect,path{shape-rendering:crispedges;}.ga154-1{fill:#397d98;}.ga154-2{fill:#000000;}.ga154-3{fill:#f9e100;}.ga154-4{fill:#a56e49;}.ga154-5{fill:#ffffff;}.ga154-6{fill:#ffffff;}.ga154-7{fill:#685432;}.ga154-8{fill:#68aaad;}.ga154-9{fill:#fafafa;}</style></defs><path class="ga154-1" d="M0,33H6V29H5V28H4V27H3V23H4V22H5V21H6V19H7v1H8v1H9v1h1v2h2V21H11V20H10V19H9V16H8V15H9V10h1V9h1V8h7V9h1v1h1v5h1v1H20v3H19v1H18v1H17v3h2v1h2v1h1v1h1v6h6V0H0Z"/><path class="ga154-2" d="M23,27H22v6h1V27Z"/><rect class="ga154-2" x="21" y="26" width="1" height="1"/><path class="ga154-3" d="M22,27H21v6h1V27Z"/><path class="ga154-2" d="M21,27H20v6h1V27Z"/><path class="ga154-2" d="M20,26h1V25H19v1Z"/><rect class="ga154-3" x="13" y="29" width="1" height="2"/><path class="ga154-3" d="M20,27h1V26H19V25H17v1H16v1H13V26H12V25H11v1H10v2h1v4H10V28H9v5H20V27Zm-5,5H12V28h3Zm4-3H17v2h1V30h1v2H16V28h3Z"/><path class="ga154-2" d="M18,25h1V24H17v1Z"/><rect class="ga154-2" x="16" y="25" width="1" height="1"/><path class="ga154-2" d="M13,26v1h3V26H13Z"/><path class="ga154-2" d="M13,23h3v1h1V21H16v1H13V21H12v3h1Z"/><path class="ga154-4" d="M13,25v1h3V25h1V24H16V23H13v1H12v1Z"/><rect class="ga154-2" x="12" y="25" width="1" height="1"/><path class="ga154-2" d="M9,28H5v1H6v4H7V29H8v4H9V28Z"/><path class="ga154-3" d="M8,29H7v4H8V29Z"/><path class="ga154-5" d="M12,32h3V28H12Zm1-3h1v2H13Z"/><path class="ga154-5" d="M10,32h1V28H10v4Z"/><path class="ga154-5" d="M16,28v4h3V30H18v1H17V29h2V28H16Z"/><rect class="ga154-2" x="20" y="15" width="1" height="1"/><path class="ga154-2" d="M19,15h1V14H19Z"/><path class="ga154-4" d="M13,22h3V21h1V20h1V19h1V16h1V15H16V14h2V13H16V12h2v1h1V11H18V10H17v1H14V10H13v1H12V10H11v1H10v1h2v1h1v2H9v1h1v3h1v1h1v1h1Zm1-6h1v1H14Zm-1,3h3V18h1v1H16v1H13Z"/><path class="ga154-4" d="M10,14h2V13H10Z"/><path class="ga154-2" d="M19,17v2h1V16H19Z"/><rect class="ga154-2" x="18" y="19" width="1" height="1"/><rect class="ga154-2" x="17" y="20" width="1" height="1"/><rect class="ga154-2" x="11" y="20" width="1" height="1"/><rect class="ga154-2" x="10" y="19" width="1" height="1"/><path class="ga154-2" d="M10,16H9v3h1V16Z"/><rect class="ga154-2" x="8" y="15" width="1" height="1"/><rect class="ga154-2" x="14" y="16" width="1" height="1"/><path class="ga154-6" d="M18,14v1h1V14Z"/><path class="ga154-6" d="M12,15h1V14H12Z"/><path class="ga154-2" d="M17,14H16v1h2V14Z"/><path class="ga154-2" d="M12,15V14H9v1h3Z"/><rect class="ga154-7" x="18" y="13" width="1" height="1"/><rect class="ga154-7" x="16" y="12" width="2" height="1"/><path class="ga154-7" d="M13,14V13H12v1Z"/><rect class="ga154-7" x="10" y="12" width="2" height="1"/><rect class="ga154-2" x="13" y="19" width="3" height="1"/><rect class="ga154-2" x="16" y="18" width="1" height="1"/><path class="ga154-8" d="M10,13V11h1V10h1v1h1V10h1v1h3V10h1v1h1v3h1V10H19V9H18V8H11V9H10v1H9v4h1Z"/><rect class="ga154-9" x="5" y="24" width="1" height="1"/><rect class="ga154-9" x="8" y="24" width="1" height="1"/><path class="ga154-4" d="M9,28h1V27H9V26h1V25H7V24H9V22H7v1H6V22H5v1H4v1H6v1H4v2H5V26H8v1H5v1H9Z"/><path class="ga154-2" d="M8,27V26H5v1H8Z"/><path class="ga154-2" d="M7,24v1H8V24Z"/><path class="ga154-2" d="M9,25h1v1h1V25h1V24H10V22H9v3Z"/><path class="ga154-2" d="M9,22V21H8v1Z"/><rect class="ga154-2" x="5" y="21" width="1" height="1"/><rect class="ga154-2" x="4" y="22" width="1" height="1"/><rect class="ga154-2" x="4" y="27" width="1" height="1"/><path class="ga154-2" d="M5,25V24H4V23H3v4H4V25Z"/><path class="ga154-8" d="M6,23H7V22H8V20H7V19H6v4Z"/><path class="ga154-2" d="M9,27h1V26H9Z"/></svg>