<svg xmlns="http://www.w3.org/2000/svg" viewBox="0 0 29 33"><defs><style>polygon,rect,path{shape-rendering:crispedges;}.fb186-1{fill:#6b4f99;}.fb186-2{fill:#000000;}.fb186-3{fill:#3e5e00;}.fb186-4{fill:#333333;}.fb186-5{fill:#90a2a3;}.fb186-6{fill:#e8b795;}.fb186-7{fill:#ffffff;}.fb186-8{fill:#c10f7e;}</style></defs><rect class="fb186-1" x="19" y="23" width="1" height="1"/><path class="fb186-2" d="M7,27H6v6H7V27Z"/><path class="fb186-3" d="M8,27H7v6H8V27Z"/><path class="fb186-2" d="M9,29h1V28h2V27H9V25H8v1H7v1H8v6H9V29Z"/><rect class="fb186-2" x="9" y="24" width="1" height="1"/><path class="fb186-3" d="M12,32V31H11V30H10V29H9v4h4V32Z"/><rect class="fb186-2" x="10" y="23" width="1" height="1"/><path class="fb186-3" d="M10,26v1h2v1H10v1h1v1h1v1h1V26H12V25H11V24H10v1H9v1Z"/><rect class="fb186-3" x="11" y="23" width="1" height="1"/><rect class="fb186-2" x="10" y="29" width="1" height="1"/><path class="fb186-4" d="M15,27H14v6h1V27Z"/><path class="fb186-3" d="M20,29H19v1H18v1H17v1H16v1h4V29Z"/><rect class="fb186-3" x="17" y="23" width="1" height="1"/><rect class="fb186-2" x="17" y="30" width="1" height="1"/><rect class="fb186-2" x="18" y="23" width="1" height="1"/><rect class="fb186-2" x="19" y="24" width="1" height="1"/><path class="fb186-3" d="M20,26V25H19V24H18v1H17v1H16v5h1V30h1V29h1V28H17V27h2V26Z"/><path class="fb186-2" d="M21,28H20V27H17v1h2v1h1v4h1V28Z"/><path class="fb186-3" d="M22,27H21v6h1V27Z"/><path class="fb186-2" d="M23,26H22v7h1V26Z"/><rect class="fb186-2" x="18" y="29" width="1" height="1"/><rect class="fb186-2" x="11" y="30" width="1" height="1"/><path class="fb186-2" d="M17,32V31H16V26h1V25h1V24H17V23h1V21h1V20h1V17h1V15H20V11H19V10H18V9H11v1H10v1H9v4H8v2H9v3h1v1h1v2h1v1H11v1h1v1h1v5H12v1h1v1h1V27h1v6h1V32ZM16,15V14h1v1h2v1H16Zm-5,1H10V14h1v1h2v1Zm2,5V20h3v1Z"/><path class="fb186-5" d="M19,26v1h1V26Z"/><path class="fb186-5" d="M9,26v1h1V26Z"/><path class="fb186-6" d="M19,15H16v1h3Z"/><rect class="fb186-6" x="13" y="20" width="3" height="1"/><path class="fb186-6" d="M13,15H10v1h3Z"/><path class="fb186-7" d="M11,14H10v1h1Z"/><path class="fb186-7" d="M17,14H16v1h1Z"/><path class="fb186-1" d="M0,9V33H6V27H7V26H8V25H9V24h1V23h1V21H10V20H9V17H8V15H9V11h1V10h1V9h7v1h1v1h1v4h1v2H20v3H19v1h2v4h1v1h1v7h6V0H0Z"/><path class="fb186-1" d="M18,22v1h1V21H18Z"/><path class="fb186-8" d="M20,24v2h1V21H20v3Z"/><path class="fb186-7" d="M20,23V21H19v2Z"/><path class="fb186-8" d="M20,28h1V27H20Z"/><path class="fb186-6" d="M20,26v1h2V26H20Z"/><path class="fb186-2" d="M22,26V25H21v1Z"/></svg>