<svg xmlns="http://www.w3.org/2000/svg" viewBox="0 0 29 33"><defs><style>polygon,rect,path{shape-rendering:crispedges;}.ca138-1{fill:#29834f;}.ca138-2{fill:#000000;}.ca138-3{fill:#a56e49;}.ca138-4{fill:#cc3232;}.ca138-5{fill:#ffffff;}.ca138-6{fill:#ffffff;}.ca138-7{fill:#663228;}.ca138-8{fill:#825fff;}</style></defs><path class="ca138-1" d="M12,21H10v3h2Z"/><path class="ca138-1" d="M0,33H6V25H7V21H8V20H9V17H8V12H9V10h1V9h1V8h7V9h1v1h1v2h1v6H20v2h1v1H20v1H19V21H17v3h2v1h2v1h1v1h1v6h6V0H0Z"/><path class="ca138-2" d="M23,27H22v6h1V27Z"/><rect class="ca138-2" x="21" y="26" width="1" height="1"/><path class="ca138-3" d="M22,27H21v6h1V27Z"/><rect class="ca138-3" x="20" y="26" width="1" height="1"/><path class="ca138-2" d="M21,27H20v6h1V27Z"/><path class="ca138-2" d="M20,26h1V25H19v1Z"/><path class="ca138-4" d="M20,27V26H19V25H18v1H17v1H16v1H13V27H12V26H11V25H10v1H9v7h1V29h1v4h1V29h3v4h1V29h3v1H17v2h1V31h1v2h1V27Z"/><rect class="ca138-4" x="13" y="30" width="1" height="2"/><path class="ca138-2" d="M10,24v1h1v1h1V24Z"/><path class="ca138-2" d="M9,26H8v7H9V26Z"/><path class="ca138-3" d="M8,26H9V25H7v8H8V26Z"/><path class="ca138-2" d="M7,25H6v8H7V25Z"/><rect class="ca138-2" x="12" y="26" width="1" height="1"/><rect class="ca138-2" x="16" y="26" width="1" height="1"/><path class="ca138-2" d="M18,26V25h1V24H17v2Z"/><path class="ca138-2" d="M13,27v1h3V27H13Z"/><path class="ca138-3" d="M16,23H13v1H12v2h1v1h3V26h1V24H16Z"/><path class="ca138-5" d="M12,29v4h3V29Zm2,3H13V30h1Z"/><path class="ca138-5" d="M11,29H10v4h1V29Z"/><path class="ca138-5" d="M18,31v1H17V30h2V29H16v4h3V31Z"/><path class="ca138-3" d="M18,20V19h1V16h1V15H16V14h3V13H16V12h1V11H16V10H15v1H14v1H13v1H12v1h1v1H10v4h1v1h1v1h1v1h3V21h1V20Zm-4-4h1v1H14Zm2,3v1H13V19h3V18h1v1Z"/><path class="ca138-2" d="M19,16v3h1V16Z"/><rect class="ca138-2" x="18" y="19" width="1" height="1"/><path class="ca138-2" d="M17,20v1h1V20Z"/><path class="ca138-2" d="M16,22H13V21H12v3h1V23h3v1h1V21H16Z"/><path class="ca138-2" d="M12,20H11v1h1Z"/><rect class="ca138-2" x="10" y="19" width="1" height="1"/><path class="ca138-2" d="M10,18H9v1h1Z"/><rect class="ca138-2" x="14" y="16" width="1" height="1"/><path class="ca138-6" d="M13,15V14H12v1Z"/><path class="ca138-6" d="M11,14H10v1h1Z"/><path class="ca138-6" d="M18,15h1V14H18Z"/><path class="ca138-6" d="M16,14v1h1V14Z"/><path class="ca138-2" d="M12,15V14H11v1Z"/><path class="ca138-2" d="M17,14v1h1V14Z"/><path class="ca138-7" d="M16,13h2V12H16Z"/><rect class="ca138-2" x="13" y="19" width="3" height="1"/><rect class="ca138-2" x="16" y="18" width="1" height="1"/><path class="ca138-8" d="M19,20H18v1h1v1h1V21h1V20H20V19H19Z"/><path class="ca138-8" d="M11,21V20H10V19H9v1H8v1h3Z"/><path class="ca138-8" d="M10,17V14h2V13h1V12h1V11h1V10h1v1h1v1h1v1h1v2h1v3h1V12H20V10H19V9H18V8H11V9H10v1H9v2H8v5H9v1h1Z"/><rect class="ca138-2" x="8" y="22" width="1" height="1"/><path class="ca138-6" d="M9,26h1V21H7v4H9ZM8,23V22H9v1Z"/></svg>