<svg xmlns="http://www.w3.org/2000/svg" viewBox="0 0 29 33"><defs><style>polygon,rect,path{shape-rendering:crispedges;}.ua8-1{fill:#000000;}.ua8-2{fill:#a0688d;}.ua8-3{fill:#b2622b;}.ua8-4{fill:#a0688d;}.ua8-5{fill:#893a1f;}.ua8-6{fill:#cc3232;}.ua8-7{fill:#6b4f99;}.ua8-8{fill:#cbed03;}.ua8-9{fill:#00e070;}</style></defs><path class="ua8-1" d="M23,27H22v6h1V27Z"/><path class="ua8-2" d="M22,27H21v6h1V27Z"/><rect class="ua8-1" x="21" y="26" width="1" height="1"/><path class="ua8-1" d="M21,27H20v6h1V27Z"/><path class="ua8-2" d="M9,27v2h1V28h1v1h1V25h1V24H11v1H10v1H8v1Z"/><rect class="ua8-2" x="10" y="29" width="1" height="1"/><path class="ua8-2" d="M19,32V31H18v1H17V30H16v1H15v1H13V30H12v2H11V31H10v1H9v1H20V32Z"/><path class="ua8-2" d="M16,25h1v4h1V28h1v1h1V27h1V26H19V25H18V24H16Z"/><rect class="ua8-2" x="18" y="29" width="1" height="1"/><path class="ua8-1" d="M20,26h1V25H19v1Z"/><rect class="ua8-1" x="18" y="24" width="1" height="1"/><path class="ua8-1" d="M16,24h2V23H16Z"/><path class="ua8-1" d="M16,25V24H13v1h3Z"/><path class="ua8-3" d="M16,24V23H13v1h3Z"/><path class="ua8-1" d="M13,23H11v1h2Z"/><rect class="ua8-1" x="10" y="24" width="1" height="1"/><path class="ua8-1" d="M10,25H8v1h2Z"/><path class="ua8-1" d="M9,31V27H8v6H9V31Z"/><path class="ua8-2" d="M8,27H7v6H8V27Z"/><rect class="ua8-1" x="7" y="26" width="1" height="1"/><path class="ua8-1" d="M7,27H6v6H7V27Z"/><path class="ua8-2" d="M14,29v2h1V29Z"/><path class="ua8-2" d="M13,28h2v1h1V25H13v3Z"/><path class="ua8-4" d="M19,30H18V29H17v3h1V31h1v1h1V29H19Z"/><rect class="ua8-4" x="18" y="28" width="1" height="1"/><path class="ua8-4" d="M15,29v2h1V29Z"/><path class="ua8-4" d="M14,30V29h1V28H13v4h2V31H14Z"/><path class="ua8-4" d="M11,29v1H10V29H9v3h1V31h1v1h1V29Z"/><rect class="ua8-4" x="10" y="28" width="1" height="1"/><path class="ua8-1" d="M13,27V25H12v5h1V27Z"/><path class="ua8-1" d="M17,28V25H16v5h1V28Z"/><rect class="ua8-3" x="14" y="15" width="1" height="1"/><path class="ua8-3" d="M16,22V21h1V20h1V19h1V17H16V16H15v1H14V16H13v1H10v2h1v1h1v1h1v1h3Zm-4-3V18h1v1h3v1H13V19Z"/><path class="ua8-3" d="M14,11v1H13v2h3V13h1V11H14Z"/><rect class="ua8-1" x="14" y="16" width="1" height="1"/><path class="ua8-5" d="M18,12H17v1h1Z"/><path class="ua8-6" d="M11,13h2V12h1V11H12v1H10v1Z"/><rect class="ua8-6" x="18" y="12" width="1" height="1"/><path class="ua8-2" d="M21,15H20v4H19v1H18v1H17v1H16v1h2V22h1V21h1V20h1V15Z"/><path class="ua8-2" d="M13,22H12V21H11V20H10V19H9V15H8v5H9v1h1v1h1v1h2Z"/><path class="ua8-2" d="M8,14H9V12h1V11h2V10h5v1h2v1h1v2h1V11H20V10H19V9H18V8H11V9H10v1H9v1H8v3Z"/><rect class="ua8-1" x="10" y="8" width="1" height="1"/><rect class="ua8-1" x="9" y="9" width="1" height="1"/><rect class="ua8-1" x="8" y="10" width="1" height="1"/><path class="ua8-1" d="M8,15V11H7v9H8V15Z"/><rect class="ua8-1" x="8" y="20" width="1" height="1"/><rect class="ua8-1" x="9" y="21" width="1" height="1"/><rect class="ua8-1" x="10" y="22" width="1" height="1"/><rect class="ua8-1" x="18" y="22" width="1" height="1"/><rect class="ua8-1" x="19" y="21" width="1" height="1"/><rect class="ua8-1" x="20" y="20" width="1" height="1"/><path class="ua8-1" d="M21,14v6h1V11H21v3Z"/><rect class="ua8-1" x="20" y="10" width="1" height="1"/><rect class="ua8-1" x="19" y="9" width="1" height="1"/><rect class="ua8-1" x="18" y="8" width="1" height="1"/><path class="ua8-1" d="M18,8V7H11V8h7Z"/><path class="ua8-1" d="M12,11H10v1h2Z"/><path class="ua8-1" d="M10,13V12H9v2h1Z"/><path class="ua8-1" d="M10,16H9v3h1V16Z"/><rect class="ua8-1" x="10" y="19" width="1" height="1"/><rect class="ua8-1" x="11" y="20" width="1" height="1"/><rect class="ua8-1" x="12" y="21" width="1" height="1"/><path class="ua8-1" d="M16,23V22H13v1h3Z"/><rect class="ua8-1" x="16" y="21" width="1" height="1"/><rect class="ua8-1" x="17" y="20" width="1" height="1"/><rect class="ua8-1" x="18" y="19" width="1" height="1"/><path class="ua8-1" d="M19,17v2h1V16H19Z"/><path class="ua8-1" d="M19,14h1V12H19v2Z"/><path class="ua8-1" d="M18,12h1V11H17v1Z"/><path class="ua8-1" d="M15,11h2V10H12v1h3Z"/><path class="ua8-7" d="M0,7V33H6V27H7V26H8V25h2V24h1V23H10V22H9V21H8V20H7V11H8V10H9V9h1V8h1V7h7V8h1V9h1v1h1v1h1v9H21v1H20v1H19v1H18v1h1v1h2v1h1v1h1v6h6V0H0Z"/><path class="ua8-8" d="M19,15v1h1V15h1V14H19Z"/><path class="ua8-8" d="M19,14V13H16v1h3Z"/><path class="ua8-9" d="M19,16V14H16v2h3Z"/><path class="ua8-8" d="M18,16H16v1h3V16Z"/><path class="ua8-8" d="M13,14v2h1V15h1v1h1V14Z"/><path class="ua8-8" d="M13,14V13H10v1h3Z"/><path class="ua8-9" d="M12,14H10v2h3V14Z"/><path class="ua8-8" d="M10,16v1h3V16H10Z"/><path class="ua8-8" d="M10,15V14H8v1H9v1h1Z"/><rect class="ua8-1" x="13" y="19" width="3" height="1"/><rect class="ua8-1" x="12" y="18" width="1" height="1"/></svg>