<svg xmlns="http://www.w3.org/2000/svg" viewBox="0 0 29 33"><defs><style>polygon,rect,path{shape-rendering:crispedges;}.qa28-1{fill:#d14646;}.qa28-2{fill:#000000;}.qa28-3{fill:#333333;}.qa28-4{fill:#b2622b;}.qa28-5{fill:#ffffff;}.qa28-6{fill:#5e362f;}.qa28-7{fill:#ffffff;}.qa28-8{fill:#5e362f;}.qa28-9{fill:#cbed03;}.qa28-10{fill:#00997c;}.qa28-11{fill:#00e2b7;}.qa28-12{fill:#00755f;}</style></defs><path class="qa28-1" d="M0,33H6V27H7V26H8V25h2V24h1V23H10V22h1V21H9V20H8V19H9V16H8V15H9V11h1V10h1V9h2V7h1V6h2V5h2V6H17V7h1v3h1v1h1v4h1v1H20v2h1V17h3v1h1V17h1v1H25v5H24v8H23v1H21v1h8V0H0Z"/><path class="qa28-1" d="M20,23V21H18v1h1v1H18v1h1v1h2V23Z"/><path class="qa28-2" d="M23,26v5h1V25H23Z"/><path class="qa28-2" d="M7,27H6v6H7V27Z"/><path class="qa28-3" d="M8,27H7v6H8V27Z"/><rect class="qa28-2" x="7" y="26" width="1" height="1"/><path class="qa28-2" d="M9,31V27H8v6H9V31Z"/><path class="qa28-3" d="M19,32V31H18v1H17V30H16v1H15v1H13V30H12v2H11V31H10v1H9v1H20V32Z"/><rect class="qa28-3" x="10" y="29" width="1" height="1"/><path class="qa28-3" d="M9,27v2h1V28h1v1h1V25h1V24H11v1H10v1H8v1Z"/><rect class="qa28-3" x="18" y="29" width="1" height="1"/><path class="qa28-3" d="M18,24H16v1h1v4h1V28h1v1h1V27h1V26H19V25H18Z"/><path class="qa28-2" d="M10,25H8v1h2Z"/><rect class="qa28-2" x="10" y="24" width="1" height="1"/><rect class="qa28-2" x="10" y="22" width="1" height="1"/><rect class="qa28-3" x="11" y="22" width="1" height="1"/><path class="qa28-2" d="M13,23h3v1h2V23H17V22h1V20H17v1H16v1H13V21H12V20H11v2h1v1H11v1h2Z"/><path class="qa28-2" d="M16,25V24H13v1h3Z"/><path class="qa28-4" d="M16,24V23H13v1h3Z"/><rect class="qa28-3" x="17" y="22" width="1" height="1"/><rect class="qa28-2" x="18" y="24" width="1" height="1"/><rect class="qa28-2" x="18" y="22" width="1" height="1"/><path class="qa28-2" d="M22,32h1V31H22V25H19v1h2v1H20v6h1V32Z"/><path class="qa28-3" d="M23,26V25H22v6h1V26Z"/><path class="qa28-3" d="M13,28h2v1h1V25H13v3Z"/><path class="qa28-3" d="M14,29v2h1V29Z"/><path class="qa28-5" d="M19,30H18V29H17v3h1V31h1v1h1V29H19Z"/><rect class="qa28-5" x="18" y="28" width="1" height="1"/><path class="qa28-5" d="M15,29v2h1V29Z"/><path class="qa28-5" d="M14,30V29h1V28H13v4h2V31H14Z"/><path class="qa28-5" d="M11,29v1H10V29H9v3h1V31h1v1h1V29Z"/><rect class="qa28-5" x="10" y="28" width="1" height="1"/><path class="qa28-2" d="M13,27V25H12v5h1V27Z"/><path class="qa28-2" d="M17,28V25H16v5h1V28Z"/><rect class="qa28-2" x="20" y="15" width="1" height="1"/><path class="qa28-2" d="M19,15h1V11H19v4Z"/><path class="qa28-4" d="M10,17v1h1v1h1V18h1v1h3v1H13V19H12v2h1v1h3V21h1V19h1V18h1V16h1V15H19V11H18V10H15v1H13V10H11v1H10v4H9v1h1Zm1-3h1V13h1V12h3v1h1v1h1v1H16v1H15v1H14V16H13V15H11Z"/><rect class="qa28-2" x="18" y="10" width="1" height="1"/><path class="qa28-2" d="M13,9H11v1h2Z"/><path class="qa28-2" d="M16,10h2V9H16Z"/><rect class="qa28-2" x="10" y="10" width="1" height="1"/><path class="qa28-2" d="M10,14V11H9v4h1Z"/><rect class="qa28-2" x="8" y="15" width="1" height="1"/><path class="qa28-6" d="M18,15V14H17v1Z"/><rect class="qa28-6" x="16" y="13" width="1" height="1"/><rect class="qa28-2" x="14" y="14" width="1" height="1"/><path class="qa28-7" d="M13,15v1h3V15h1V14H16V13H13v1H12v1Zm1-1h1v1H14Z"/><path class="qa28-6" d="M16,13V12H13v1h3Z"/><rect class="qa28-6" x="12" y="13" width="1" height="1"/><rect class="qa28-6" x="11" y="14" width="1" height="1"/><path class="qa28-2" d="M14,17h1V16H14Z"/><path class="qa28-8" d="M18,18v1H17v1h1v1h2V18H18Z"/><path class="qa28-8" d="M19,17h1V16H19Z"/><path class="qa28-8" d="M12,20V19H11V18H10V16H9v3H8v1H9v1h2V20Z"/><rect class="qa28-2" x="13" y="19" width="3" height="1"/><rect class="qa28-2" x="12" y="18" width="1" height="1"/><path class="qa28-9" d="M13,11h2V10h1V9h2V7H17V6h1V5H16V6H14V7H13v4Z"/><path class="qa28-10" d="M21,23V21H20v2Z"/><path class="qa28-2" d="M22,20V18H21v2Z"/><path class="qa28-2" d="M23,19v1h1V18H23Z"/><rect class="qa28-2" x="22" y="21" width="1" height="1"/><path class="qa28-11" d="M23,22H21v1h3V22Z"/><path class="qa28-11" d="M20,21h2V20H21V18H20v3Z"/><path class="qa28-11" d="M22,19v1h1V18h1V17H21v1h1Z"/><path class="qa28-11" d="M23,20v1h2V18H24v2Z"/><path class="qa28-12" d="M21,23v2h3V23H21Z"/><path class="qa28-10" d="M24,21.222V23h1V21H24Z"/><path class="qa28-11" d="M19,18h1V17H19Z"/><rect class="qa28-11" x="25" y="17" width="1" height="1"/><rect class="qa28-10" x="22" y="20" width="1" height="1"/><path class="qa28-7" d="M22,22V21H21v1Z"/><path class="qa28-7" d="M24,22V21H23v1Z"/><rect class="qa28-9" x="18" y="9" width="1" height="1"></rect></svg>