<svg xmlns="http://www.w3.org/2000/svg" viewBox="0 0 29 33"><defs><style>polygon,rect,path{shape-rendering:crispedges;}polygon,rect,path{shape-rendering:crispedges;}.kb120-1{fill:#a9a9a9;}.kb120-2{fill:#bbbbbb;}.kb120-3{fill:#04263a;}.kb120-4{fill:#0068f5;}.kb120-5{fill:#008dff;}.kb120-6{fill:#008b4c;}.kb120-7{fill:#ffffff;}.kb120-8{fill:#004480;}.kb120-9{fill:#000000;}.kb120-10{fill:#333333;}.kb120-11{fill:#b2622b;}.kb120-12{fill:#ffffff;}.kb120-13{fill:#317f03;}.kb120-14{fill:#317f03;}.kb120-15{fill:#0068ff;}.kb120-16{fill:#ff1f4a;}</style></defs><polygon class="kb120-1" points="28 25 27 25 27 26 28 26 29 26 29 25 29 24 28 24 28 25"/><path class="kb120-9" d="M27,0H0V23H3V22H8V21H9V16H8V15H9V10h1V9h1V8h7V9h1v1h1v5h1v1H20v5h1v1h5v1h3V0H27Zm0,5V7H22V6H21V5H20V4h1V3h1V2h3V3h1V4h1Z"/><polygon class="kb120-1" points="27 32 26 32 26 31 25 31 24 31 23 31 23 32 23 33 24 33 25 33 26 33 27 33 28 33 28 32 27 32"/><polygon class="kb120-1" points="27 27 26 27 25 27 25 28 24 28 24 29 24 30 25 30 26 30 27 30 28 30 28 31 29 31 29 30 29 29 29 28 29 27 28 27 27 27"/><polygon class="kb120-2" points="21 25 21 24 20 24 19 24 19 25 20 25 21 25"/><polygon class="kb120-2" points="22 23 21 23 21 24 22 24 22 25 21 25 21 26 22 26 23 26 23 25 23 24 24 24 24 23 25 23 26 23 26 22 25 22 24 22 23 22 23 23 22 23"/><polygon class="kb120-2" points="4 32 4 31 5 31 6 31 6 30 5 30 5 29 6 29 6 28 5 28 5 27 6 27 7 27 7 26 8 26 8 25 7 25 6 25 6 24 5 24 5 23 6 23 7 23 7 22 6 22 5 22 4 22 3 22 3 23 2 23 1 23 1 24 2 24 3 24 4 24 4 25 5 25 5 26 4 26 3 26 2 26 2 25 1 25 1 24 0 24 0 25 0 26 1 26 1 27 2 27 3 27 3 28 4 28 4 29 4 30 3 30 2 30 2 31 1 31 0 31 0 32 0 33 1 33 2 33 3 33 3 32 4 32"/><polygon class="kb120-2" points="27 23 27 24 26 24 26 25 25 25 25 26 24 26 23 26 23 27 23 28 23 29 23 30 23 31 24 31 25 31 26 31 26 32 27 32 28 32 28 33 29 33 29 32 29 31 28 31 28 30 27 30 26 30 25 30 24 30 24 29 24 28 25 28 25 27 26 27 27 27 28 27 29 27 29 26 28 26 27 26 27 25 28 25 28 24 29 24 29 23 28 23 27 23"/><rect class="kb120-2" x="20" y="21" width="1" height="1"/><rect class="kb120-2" x="8" y="21" width="1" height="1"/><polygon class="kb120-2" points="10 25 10 24 9 24 8 24 8 25 9 25 10 25"/><rect class="kb120-3" x="26" y="6" width="1" height="1"/><polygon class="kb120-4" points="26 5 26 6 27 6 27 5 27 4 26 4 26 5"/><rect class="kb120-4" x="25" y="6" width="1" height="1"/><rect class="kb120-5" x="25" y="5" width="1" height="1"/><rect class="kb120-6" x="25" y="4" width="1" height="1"/><rect class="kb120-7" x="25" y="3" width="1" height="1"/><polygon class="kb120-1" points="24 23 24 24 23 24 23 25 23 26 24 26 25 26 25 25 26 25 26 24 27 24 27 23 26 23 25 23 24 23"/><polygon class="kb120-6" points="24 5 23 5 23 6 24 6 25 6 25 5 24 5"/><rect class="kb120-7" x="24" y="4" width="1" height="1"/><rect class="kb120-4" x="24" y="3" width="1" height="1"/><polygon class="kb120-8" points="24 6 23 6 23 7 24 7 25 7 25 6 24 6"/><rect class="kb120-5" x="23" y="4" width="1" height="1"/><rect class="kb120-1" x="22" y="26" width="1" height="1"/><rect class="kb120-3" x="22" y="6" width="1" height="1"/><rect class="kb120-5" x="22" y="5" width="1" height="1"/><rect class="kb120-4" x="22" y="4" width="1" height="1"/><polygon class="kb120-6" points="23 4 24 4 24 3 25 3 25 2 24 2 23 2 23 3 22 3 22 4 23 4"/><rect class="kb120-5" x="22" y="2" width="1" height="1"/><rect class="kb120-1" x="21" y="24" width="1" height="1"/><rect class="kb120-8" x="21" y="5" width="1" height="1"/><rect class="kb120-6" x="21" y="4" width="1" height="1"/><rect class="kb120-7" x="21" y="3" width="1" height="1"/><rect class="kb120-4" x="20" y="4" width="1" height="1"/><polygon class="kb120-1" points="19 22 19 23 19 24 20 24 21 24 21 23 22 23 23 23 23 22 22 22 21 22 20 22 19 22"/><rect class="kb120-1" x="5" y="27" width="1" height="1"/><polygon class="kb120-1" points="6 23 5 23 5 24 6 24 6 25 7 25 8 25 8 24 9 24 9 22 8 22 7 22 7 23 6 23"/><polygon class="kb120-1" points="6 31 5 31 4 31 4 32 3 32 3 33 4 33 5 33 6 33 6 32 6 31"/><rect class="kb120-1" x="5" y="29" width="1" height="1"/><polygon class="kb120-1" points="2 31 2 30 3 30 4 30 4 29 4 28 3 28 3 27 2 27 1 27 1 26 0 26 0 27 0 28 0 29 0 30 0 31 1 31 2 31"/><polygon class="kb120-1" points="2 25 2 26 3 26 4 26 5 26 5 25 4 25 4 24 3 24 2 24 1 24 1 25 2 25"/><rect class="kb120-1" y="23" width="1" height="1"/><polygon class="kb120-9" points="23 31 23 30 23 29 23 28 23 27 22 27 22 28 22 29 22 30 22 31 22 32 22 33 23 33 23 32 23 31"/><polygon class="kb120-10" points="22 31 22 30 22 29 22 28 22 27 21 27 21 28 21 29 21 30 21 31 21 32 21 33 22 33 22 32 22 31"/><rect class="kb120-9" x="21" y="26" width="1" height="1"/><polygon class="kb120-9" points="21 31 21 30 21 29 21 28 21 27 20 27 20 28 20 29 20 30 20 31 20 32 20 33 21 33 21 32 21 31"/><rect class="kb120-10" x="16" y="24" width="1" height="1"/><path class="kb120-10" d="M20,31V27h1V26H19V25H18v1H17v2h2v1H17v2h1V30h1v2H16V25H13v3h2v4H12V25H11v2H10V26H8v1H9v6H20V31Zm-9,1H10V28h1v4Z"/><rect class="kb120-10" x="12" y="24" width="1" height="1"/><polygon class="kb120-9" points="20 25 19 25 19 26 20 26 21 26 21 25 20 25"/><polygon class="kb120-9" points="15 24 14 24 13 24 13 25 14 25 15 25 16 25 16 24 15 24"/><polygon class="kb120-11" points="15 23 14 23 13 23 13 24 14 24 15 24 16 24 16 23 15 23"/><polygon class="kb120-9" points="13 23 14 23 15 23 16 23 16 24 17 24 17 23 17 22 17 21 16 21 16 22 15 22 14 22 13 22 13 21 12 21 12 22 12 23 12 24 13 24 13 23"/><polygon class="kb120-9" points="9 25 8 25 8 26 9 26 10 26 10 25 9 25"/><polygon class="kb120-9" points="9 31 9 30 9 29 9 28 9 27 8 27 8 28 8 29 8 30 8 31 8 32 8 33 9 33 9 32 9 31"/><polygon class="kb120-10" points="8 31 8 30 8 29 8 28 8 27 7 27 7 28 7 29 7 30 7 31 7 32 7 33 8 33 8 32 8 31"/><rect class="kb120-9" x="7" y="26" width="1" height="1"/><polygon class="kb120-9" points="7 31 7 30 7 29 7 28 7 27 6 27 6 28 6 29 6 30 6 31 6 32 6 33 7 33 7 32 7 31"/><polygon class="kb120-10" points="14 31 14 30 14 29 13 29 13 30 13 31 14 31"/><polygon class="kb120-12" points="14 29 14 30 14 31 13 31 13 30 12 30 12 31 12 32 15 32 15 28 14 28 13 28 13 29 14 29"/><polygon class="kb120-12" points="11 29 11 28 10 28 10 29 10 30 10 31 10 32 11 32 11 31 11 30 11 29"/><polygon class="kb120-12" points="18 29 19 29 19 28 18 28 17 28 17 29 18 29"/><polygon class="kb120-12" points="16 31 16 32 17 32 18 32 19 32 19 31 19 30 18 30 18 31 17 31 17 30 16 30 16 31"/><polygon class="kb120-9" points="12 26 12 27 12 28 12 29 12 30 13 30 13 29 13 28 13 27 13 26 13 25 12 25 12 26"/><polygon class="kb120-9" points="16 25 16 26 16 27 16 28 16 29 16 30 17 30 17 29 17 28 17 27 17 26 17 25 16 25"/><rect class="kb120-9" x="20" y="15" width="1" height="1"/><polygon class="kb120-11" points="17 12 17 11 16 11 15 11 15 10 14 10 13 10 12 10 12 11 11 11 11 12 12 12 12 13 13 13 14 13 14 14 15 14 15 13 16 13 16 12 17 12"/><path class="kb120-11" d="M13,22h3V21h1V20h1V19h1V16H15v1H14V16H10v3h1v1h1v1h1Zm1-3h1v1H14Z"/><rect class="kb120-11" x="14" y="15" width="1" height="1"/><polygon class="kb120-9" points="19 17 19 18 19 19 20 19 20 18 20 17 20 16 19 16 19 17"/><rect class="kb120-9" x="18" y="19" width="1" height="1"/><rect class="kb120-9" x="17" y="20" width="1" height="1"/><rect class="kb120-9" x="11" y="20" width="1" height="1"/><rect class="kb120-9" x="10" y="19" width="1" height="1"/><polygon class="kb120-9" points="10 18 10 17 10 16 9 16 9 17 9 18 9 19 10 19 10 18"/><rect class="kb120-9" x="8" y="15" width="1" height="1"/><rect class="kb120-9" x="14" y="16" width="1" height="1"/><polygon class="kb120-13" points="17 12 16 12 16 13 17 13 18 13 18 12 17 12"/><rect class="kb120-13" x="11" y="12" width="1" height="1"/><rect class="kb120-9" x="14" y="19" width="1" height="1"/><polygon class="kb120-14" points="9 24 10 24 10 25 10 26 10 27 11 27 11 26 11 25 12 25 12 24 12 23 12 22 12 21 11 21 11 20 10 20 10 19 9 19 9 20 9 21 9 22 9 24"/><polygon class="kb120-14" points="11 13 11 12 11 11 12 11 12 10 13 10 14 10 15 10 15 11 16 11 17 11 17 12 18 12 18 13 19 13 20 13 20 12 20 11 20 10 19 10 19 9 18 9 18 8 17 8 16 8 15 8 14 8 13 8 12 8 11 8 11 9 10 9 10 10 9 10 9 11 9 12 9 13 10 13 11 13"/><polygon class="kb120-14" points="19 20 18 20 18 21 17 21 17 22 17 23 17 24 17 25 17 26 18 26 18 25 19 25 19 24 19 23 19 22 20 22 20 21 20 20 20 19 19 19 19 20"/><path class="kb120-7" d="M11,16h3V15h1v1h5V13H15v1H14V13H9v3h2Zm5-2h3v1H16Zm-6,0h3v1H10Z"/><polygon class="kb120-15" points="18 15 19 15 19 14 18 14 17 14 16 14 16 15 17 15 18 15"/><polygon class="kb120-16" points="12 15 13 15 13 14 12 14 11 14 10 14 10 15 11 15 12 15"/></svg>