<svg xmlns="http://www.w3.org/2000/svg" viewBox="0 0 29 33"><defs><style>polygon,rect,path{shape-rendering:crispedges;}.ea96-1{fill:#db5a8e;}.ea96-2{fill:#000000;}.ea96-3{fill:#9fffc6;}.ea96-4{fill:#b2622b;}.ea96-5{fill:#317f03;}.ea96-6{fill:#fad000;}.ea96-7{fill:#00686d;}.ea96-8{fill:#f9e100;}.ea96-9{fill:#ffffff;}.ea96-10{fill:#0068ff;}.ea96-11{fill:#ff1f4a;}</style></defs><path class="ea96-1" d="M0,33H6V27H7V26H8V25h2V23h1V21H10V20H9V17H8V15H7V14H8V12H7V10H8v1H9V9H8V8h2V9h1V8h1V7h1V8h1V7h2V8h1V7h1V8h1V7h1V8H19V9H18v1h2V9h1v2H20v1h2v1H20v1h2v1H21v2H20v3H19v1H18v2h1v2h2v1h1v1h1v6h6V0H0Z"/><path class="ea96-2" d="M23,27H22v3H21V27H20v6h1V31h1v2h1V27Z"/><rect class="ea96-2" x="21" y="26" width="1" height="1"/><path class="ea96-3" d="M21,28v2h1V27H21Z"/><path class="ea96-4" d="M21,31v2h1V31Z"/><path class="ea96-2" d="M20,26h1V25H19v1Z"/><path class="ea96-3" d="M20,27h1V26H19V25H18v1H17v1H16v2H15v1H14V29H13V27H12V26H11V25H10v1H8v1H9v6H20V27Z"/><path class="ea96-4" d="M14,24h1v1h1V23H13v2h1Z"/><path class="ea96-2" d="M10,25H8v1h2Z"/><path class="ea96-2" d="M9,27H8v3H7V27H6v6H7V31H8v2H9V27Z"/><rect class="ea96-2" x="7" y="26" width="1" height="1"/><path class="ea96-3" d="M7,30H8V27H7v3Z"/><path class="ea96-4" d="M7,31v2H8V31Z"/><path class="ea96-4" d="M15,21h1V19H15v2Z"/><path class="ea96-4" d="M13,19v2h1V19Z"/><rect class="ea96-4" x="15" y="10" width="1" height="1"/><path class="ea96-4" d="M15,16v1H14V16H10v2h1v1h1V18h2v1h1V18h2v1h1V18h1V16H15Z"/><rect class="ea96-4" x="14" y="15" width="1" height="1"/><path class="ea96-4" d="M15,14V13h1V12H14v2Z"/><rect class="ea96-4" x="11" y="11" width="1" height="1"/><path class="ea96-2" d="M16,23v2h1V23h1V22H16Z"/><rect class="ea96-2" x="14" y="16" width="1" height="1"/><path class="ea96-5" d="M13,12H11v1h2Z"/><rect class="ea96-5" x="16" y="12" width="1" height="1"/><rect class="ea96-2" x="14" y="29" width="1" height="1"/><rect class="ea96-2" x="12" y="26" width="1" height="1"/><path class="ea96-2" d="M15,28v1h1V27H15Z"/><rect class="ea96-2" x="16" y="26" width="1" height="1"/><path class="ea96-2" d="M13,27v2h1V27Z"/><rect class="ea96-2" x="17" y="25" width="1" height="1"/><rect class="ea96-2" x="11" y="25" width="1" height="1"/><rect class="ea96-2" x="14" y="24" width="1" height="1"/><rect class="ea96-2" x="13" y="25" width="1" height="1"/><rect class="ea96-2" x="15" y="25" width="1" height="1"/><path class="ea96-2" d="M12,24v1h1V22H11v1h1Z"/><rect class="ea96-6" x="16" y="25" width="1" height="1"/><path class="ea96-6" d="M15,26V25H14v1H13v1h1v2h1V27h1V26Z"/><rect class="ea96-6" x="12" y="25" width="1" height="1"/><path class="ea96-6" d="M11,25h1V23H11v2Z"/><path class="ea96-6" d="M17,24v1h1V23H17Z"/><path class="ea96-2" d="M19,25V23H18v2Z"/><path class="ea96-2" d="M11,24V23H10v2h1Z"/><path class="ea96-7" d="M13,23h3V22h2V21h1V20h1V16H19v2H18v1H17V18H15v1h1v2H15V20H14v1H13V19h1V18H12v1H11V18H10V16H9v4h1v1h1v1h2Z"/><path class="ea96-2" d="M14,20h1V19H14Z"/><path class="ea96-8" d="M20,17h1V15h1V14H20v3Z"/><path class="ea96-8" d="M9,15V13h2V11h1v1h1v1h1V12h3v1h5V12H20V11h1V9H20v1H18V9h1V8H18V7H17V8H16V7H14V8H13V7H12V8H11V9H10V8H8V9H9v2H8V10H7v2H8v2H7v1H8v2H9V15Zm6-5h1v1H15Z"/><rect class="ea96-8" x="19" y="7" width="1" height="1"/><path class="ea96-9" d="M17,13H15v1H14V13H9v3h5V15h1v1h5V13H17Zm-4,2H10V14h3Zm6,0H16V14h3Z"/><path class="ea96-10" d="M16,14v1h3V14H16Z"/><path class="ea96-11" d="M10,14v1h3V14H10Z"/></svg>