<svg xmlns="http://www.w3.org/2000/svg" viewBox="0 0 29 33"><defs><style>polygon,rect,path{shape-rendering:crispedges;}.la264-1{fill:#29834f;}.la264-2{fill:#000000;}.la264-3{fill:#ff6c77;}.la264-4{fill:#990000;}.la264-5{fill:#e8b795;}.la264-6{fill:#d8be00;}.la264-7{fill:#ffffff;}.la264-8{fill:#893a1f;}.la264-9{fill:#dfdfdf;}.la264-10{fill:#b2622b;}</style></defs><path class="la264-1" d="M0,33H6V27H7V26H8V25h2V24h2V22H11V21H10v1H9V21H8V20H7V19H8V13H7V12H5V11H7v1H9V10h1V8h1V7h2V8h3V7h2V8h1V7h1V6h2V8H21V9H20v3h2V11h2v1H22v1H21v6h1v1H21v1H20v1H19V21H18v1H17v2h2v1h2v1h1v1h1v6h6V0H0Z"/><path class="la264-2" d="M23,27H22v6h1V27Z"/><rect class="la264-2" x="21" y="26" width="1" height="1"/><path class="la264-3" d="M21,28h1V27H21Z"/><path class="la264-3" d="M21,31v1h1V30H21Z"/><path class="la264-2" d="M21,31V27H20v6h1V31Z"/><path class="la264-2" d="M20,26h1V25H19v1Z"/><path class="la264-3" d="M10,31V30H9v2h1v1h1V31Z"/><rect class="la264-3" x="16" y="24" width="1" height="1"/><path class="la264-3" d="M16,31V30H15V28H14V27H13V25H11v1h1v2h1v1h1v2h1v1h1v1h1V31Z"/><path class="la264-3" d="M17,25v1h1v2h1v1h1V27H19V25H17Z"/><path class="la264-3" d="M13,31V30H12V28H11V27H10V26H9v2h1v1h1v2h1v1h1v1h1V31Z"/><path class="la264-3" d="M19,31V30H18V28H17V27H16V25H15V24H14V23H13v2h1v1h1v2h1v1h1v2h1v1h1v1h1V31Z"/><path class="la264-2" d="M18,25h1V24H17v1Z"/><path class="la264-2" d="M13,23h3v1h1V21H16v1H13V21H12v3h1Z"/><path class="la264-2" d="M12,25V24H10v1h2Z"/><path class="la264-2" d="M10,26V25H8v1h2Z"/><path class="la264-2" d="M9,31V27H8v6H9V31Z"/><rect class="la264-2" x="7" y="26" width="1" height="1"/><path class="la264-3" d="M7,31v2H8V31Z"/><path class="la264-3" d="M8,29V27H7v2Z"/><path class="la264-2" d="M7,30V27H6v6H7V30Z"/><path class="la264-4" d="M21,29v1h1V28H21Z"/><path class="la264-4" d="M21,32v1h1V32Z"/><path class="la264-4" d="M19,26v1h2V26H19Z"/><path class="la264-4" d="M19,28H18v2h1v1h1V29H19Z"/><path class="la264-4" d="M17,26V25H16v2h1v1h1V26Z"/><path class="la264-4" d="M18,32V31H17v2h2V32Z"/><path class="la264-4" d="M16,30v1h1V29H16V28H15v2Z"/><path class="la264-4" d="M16,23H14v1h1v1h1V23Z"/><path class="la264-4" d="M14,27v1h1V26H14V25H13v2Z"/><path class="la264-4" d="M15,32V31H14v2h2V32Z"/><path class="la264-4" d="M13,30v1h1V29H13V28H12v2Z"/><path class="la264-4" d="M13,25V24H12v1Z"/><path class="la264-4" d="M10,27h1v1h1V26H11V25H10v2Z"/><path class="la264-4" d="M12,32V31H11v2h2V32Z"/><path class="la264-4" d="M10,30v1h1V29H10V28H9v2Z"/><path class="la264-4" d="M9,32v1h1V32Z"/><path class="la264-4" d="M9,27V26H8v1Z"/><path class="la264-4" d="M7,30v1H8V29H7Z"/><path class="la264-2" d="M20,16h1V15H20Z"/><path class="la264-5" d="M14,14h2V13H13v1Z"/><path class="la264-5" d="M18,20V19h1V17H16V16H15v1H14V16H13v1H10v2h1v1h1v1h1v1h3V21h1V20Zm-2,0H13V19h3Z"/><rect class="la264-5" x="14" y="15" width="1" height="1"/><path class="la264-2" d="M19,18v1h1V16H19v2Z"/><rect class="la264-2" x="18" y="19" width="1" height="1"/><rect class="la264-2" x="17" y="20" width="1" height="1"/><rect class="la264-2" x="11" y="20" width="1" height="1"/><rect class="la264-2" x="10" y="19" width="1" height="1"/><path class="la264-2" d="M10,16H9v3h1V16Z"/><path class="la264-2" d="M9,15H8v1H9Z"/><rect class="la264-2" x="14" y="16" width="1" height="1"/><rect class="la264-2" x="13" y="19" width="3" height="1"/><path class="la264-6" d="M20,17v2H19v1H18v1h1v1h1V21h1V20h1V19H21V16H20Z"/><path class="la264-6" d="M19,14h2V13H19Z"/><path class="la264-6" d="M10,13H8v1h2Z"/><path class="la264-6" d="M10,20V19H9V16H8v3H7v1H8v1H9v1h1V21h1V20Z"/><path class="la264-6" d="M11,21v1h1V21Z"/><path class="la264-6" d="M17,22h1V21H17Z"/><path class="la264-7" d="M19,16h1V15h1V14H19Z"/><path class="la264-7" d="M17,14h2V13H16v1Z"/><path class="la264-2" d="M16,14v2h3V14H16Z"/><path class="la264-7" d="M16,16v1h3V16H16Z"/><path class="la264-7" d="M14,14H13v2h1V15h1v1h1V14Z"/><path class="la264-7" d="M13,14V13H10v1h3Z"/><path class="la264-2" d="M13,16V14H10v2h3Z"/><path class="la264-7" d="M11,17h2V16H10v1Z"/><path class="la264-7" d="M9,16h1V14H8v1H9Z"/><path class="la264-8" d="M24,11H22v1h2Z"/><path class="la264-9" d="M21,8h1V7H21Z"/><path class="la264-8" d="M13,13h9V12H20V11H19v1H10V11H9v1H7v1h6Z"/><rect class="la264-9" x="20" y="8" width="1" height="1"/><path class="la264-10" d="M19,11h1V10H19Z"/><path class="la264-7" d="M18,11h1V10h1V8h1V7h1V6H20V7H19V8H18v3Z"/><path class="la264-10" d="M17,11H10v1h9V11H17Z"/><path class="la264-8" d="M11,11h7V7H16V8H13V7H11V8H10v3Z"/><path class="la264-10" d="M10,10H9v1h1Z"/><path class="la264-8" d="M6,11H5v1H7V11Z"/></svg>