<svg xmlns="http://www.w3.org/2000/svg" viewBox="0 0 29 33"><defs><style>polygon,rect,path{shape-rendering:crispedges;}.ga291-1{fill:#6b4f99;}.ga291-2{fill:#000000;}.ga291-3{fill:#72dd40;}.ga291-4{fill:#6d3e35;}.ga291-5{fill:#00686d;}.ga291-6{fill:#00686d;}.ga291-7{fill:#ffffff;}.ga291-8{fill:#00686d;}.ga291-9{fill:#474718;}.ga291-10{fill:#6f7032;}.ga291-11{fill:#ccc;}</style></defs><path class="ga291-1" d="M0,33H6V27H7V26H8V25h2V24h2V22H11V21H10V20H9V17H7V13H8V10H9V9h1V8h1V7h7V8h1V9h1v1h1v3h1v4H20v3H19v1H18v1H17v2h2v1h1V24h1V23h1v1h1v9h6V0H0Z"/><path class="ga291-2" d="M7,27H6v6H7V27Z"/><rect class="ga291-2" x="7" y="26" width="1" height="1"/><path class="ga291-3" d="M8,27H7v6H8V27Z"/><path class="ga291-2" d="M9,27H8v6H9V27Z"/><path class="ga291-2" d="M10,25H8v1h2Z"/><path class="ga291-3" d="M16,32H12v1h5V32Z"/><path class="ga291-3" d="M20,27H19V25H17v1H16v1H13V26H12V25H10v1H8v1H9v6h1V30h1V29h1V28h5v1h1v1h1v3h1V27Z"/><rect class="ga291-3" x="12" y="30" width="1" height="1"/><rect class="ga291-3" x="16" y="30" width="1" height="1"/><path class="ga291-2" d="M12,24H10v1h2Z"/><path class="ga291-2" d="M13,23H12v1h1Z"/><rect class="ga291-2" x="12" y="25" width="1" height="1"/><path class="ga291-2" d="M13,26v1h3V26H13Z"/><path class="ga291-2" d="M16,24h1V23H16Z"/><path class="ga291-4" d="M13,25v1h3V25h1V24H16V23H13v1H12v1Z"/><rect class="ga291-2" x="16" y="25" width="1" height="1"/><path class="ga291-2" d="M18,25h1V24H17v1Z"/><path class="ga291-2" d="M21,27H20v6h1V27Z"/><path class="ga291-3" d="M22,27H21v6h1V27Z"/><path class="ga291-2" d="M23,24H22v9h1V24Z"/><path class="ga291-5" d="M19,30H18V29H17V28H12v1H11v1H10v3h2V32h5v1h2V30Zm-6,1H12V30h1Zm4,0H16V30h1Z"/><rect class="ga291-6" x="17" y="14" width="1" height="1"/><rect class="ga291-6" x="16" y="13" width="1" height="1"/><rect class="ga291-2" x="14" y="14" width="1" height="1"/><path class="ga291-7" d="M12,14v1h1v1h3V15h1V14H16V13H13v1Zm2,0h1v1H14Z"/><rect class="ga291-6" x="12" y="13" width="1" height="1"/><rect class="ga291-6" x="11" y="14" width="1" height="1"/><path class="ga291-2" d="M14,17h1V16H14Z"/><path class="ga291-4" d="M19,13H17v1h1v1H16v1H15v1H14V16H13V15H11V14h1V13H10v4h1v1h1v1h1V18h5V17h1V13Z"/><path class="ga291-8" d="M15,18H13v1h3V18Z"/><path class="ga291-8" d="M14,23h3V22h1V21h1V20h1V16H19v1H18v1H17v1H16v1H13V19H12V18H11V17H10V16H9v4h1v1h1v1h1v1h2Z"/><rect class="ga291-2" x="13" y="19" width="3" height="1"/><path class="ga291-2" d="M16,19h1V18H16Z"/><path class="ga291-4" d="M21,27h1V24H21v1H20v2Z"/><path class="ga291-2" d="M20,27V25H19v2Z"/><rect class="ga291-2" x="20" y="24" width="1" height="1"/><rect class="ga291-2" x="21" y="23" width="1" height="1"/><path class="ga291-9" d="M20,12V11H19v2h1Z"/><path class="ga291-10" d="M10,11v2h1V11h1v2h1V11h1v2h1V11h1v2h1V11h1v2h1V11h1V10H19V9H18V8H11V9H10v1H9v1Z"/><path class="ga291-9" d="M18,12V11H17v2h1Z"/><path class="ga291-9" d="M16,12V11H15v2h1Z"/><path class="ga291-9" d="M14,12V11H13v2h1Z"/><path class="ga291-9" d="M12,12V11H11v2h1Z"/><path class="ga291-9" d="M10,12V11H9v2h1Z"/><path class="ga291-7" d="M9,15V10H8v3H7v3H8v1H9V15Z"/><rect class="ga291-7" x="9" y="9" width="1" height="1"/><rect class="ga291-7" x="10" y="8" width="1" height="1"/><path class="ga291-7" d="M18,8V7H11V8h7Z"/><rect class="ga291-7" x="18" y="8" width="1" height="1"/><rect class="ga291-7" x="19" y="9" width="1" height="1"/><path class="ga291-11" d="M10,13H9v3h1V13Z"/><path class="ga291-7" d="M20,12v5h1V16h1V13H21V10H20v2Z"/><path class="ga291-11" d="M20,13H19v3h1V13Z"/><path class="ga291-11" d="M7,16v1H8V16Z"/><path class="ga291-11" d="M21,17h1V16H21Z"/></svg>