<svg xmlns="http://www.w3.org/2000/svg" viewBox="0 0 29 33"><defs><style>polygon,rect,path{shape-rendering:crispedges;}.qa239-1{fill:#d4a122;}.qa239-2{fill:#000000;}.qa239-3{fill:#ff6c77;}.qa239-4{fill:#c18d59;}.qa239-5{fill:#990000;}.qa239-6{fill:#316a6d;}.qa239-7{fill:#316a6d;}.qa239-8{fill:#d8be00;}</style></defs><path class="qa239-1" d="M20,16H19v2h0V16Z"/><rect class="qa239-1" x="9" y="16" width="1"/><path class="qa239-1" d="M0,33H6V27H7V26H8V25h2V24h1V23H10V22h1V21H10V20H9V18H8V12H9V11h1V10h1V9h7v1h1v1h1v2h1v2h0v1h0v2H20v2H19v1H18v1h1v1H18v1h1v1h2v1h1v1h1v6h6V0H0Z"/><polygon class="qa239-1" points="14 17 14 16 15 16 15 16 14 16 14 17 14 17"/><path class="qa239-2" d="M23,27H22v6h1V27Z"/><path class="qa239-3" d="M22,27H21v6h1V27Z"/><rect class="qa239-2" x="21" y="26" width="1" height="1"/><path class="qa239-2" d="M21,27H20v6h1V27Z"/><path class="qa239-3" d="M10,30h1V29h1V25h1V24H11v1H10v1H8v1H9v6h1V30Z"/><path class="qa239-3" d="M20,27h1V26H19V25H18V24H16v1h1v4h1v1h1v3h1V27Z"/><path class="qa239-2" d="M20,26h1V25H19v1Z"/><rect class="qa239-2" x="18" y="24" width="1" height="1"/><rect class="qa239-2" x="18" y="22" width="1" height="1"/><rect class="qa239-3" x="17" y="22" width="1" height="1"/><path class="qa239-2" d="M13,24v1h3V24H13Z"/><path class="qa239-4" d="M15,23H13v1h3V23Z"/><path class="qa239-2" d="M13,23V22H12v1H11v1h2Z"/><rect class="qa239-3" x="11" y="22" width="1" height="1"/><rect class="qa239-2" x="10" y="24" width="1" height="1"/><rect class="qa239-2" x="10" y="22" width="1" height="1"/><path class="qa239-2" d="M10,25H8v1h2Z"/><path class="qa239-2" d="M9,27H8v6H9V27Z"/><path class="qa239-3" d="M8,27H7v6H8V27Z"/><rect class="qa239-2" x="7" y="26" width="1" height="1"/><path class="qa239-2" d="M7,27H6v6H7V27Z"/><path class="qa239-3" d="M13,25v3h3V25H13Z"/><path class="qa239-3" d="M16,32H12v1h5V32Z"/><rect class="qa239-3" x="16" y="30" width="1" height="1"/><rect class="qa239-3" x="12" y="30" width="1" height="1"/><path class="qa239-5" d="M19,30H18V29H17v2H16V28H13v3H12V29H11v1H10v3h2V32h5v1h2V30Z"/><path class="qa239-2" d="M13,25H12v5h1V25Z"/><path class="qa239-2" d="M16,28v2h1V25H16v3Z"/><polygon class="qa239-2" points="21 16 21 15 21 15 21 16 21 16"/><rect class="qa239-4" x="13" y="20" width="1" height="1"/><path class="qa239-4" d="M16,12h0v1h0Z"/><path class="qa239-4" d="M15,11H14v1H13v1h2Z"/><rect class="qa239-4" x="15" y="20" width="1" height="1"/><polygon class="qa239-4" points="12 12 12 11 11 11 11 12 12 12 12 12"/><polygon class="qa239-4" points="10 15 9 15 9 16 10 16 10 15"/><path class="qa239-4" d="M18,18V16H17v1H16V15H15V14H14v2h1v1H14V16H11v2h0v1h1V18h2v1h1V18h2v1h1V18h0Z"/><rect class="qa239-4" x="19" y="15" width="1" height="1"/><rect class="qa239-2" x="19" y="10" height="1"/><path class="qa239-2" d="M17,22H16v2h2V23H17Z"/><rect class="qa239-2" x="18" y="9" height="1"/><polygon class="qa239-2" points="14 17 14 17 15 17 15 16 15 16 14 16 14 17"/><path class="qa239-6" d="M16,13h2V12H16Z"/><rect class="qa239-6" x="11" y="12" width="1" height="1"/><path class="qa239-7" d="M15,18v1h1V18Z"/><path class="qa239-7" d="M20,17V16H19v2h1Z"/><path class="qa239-7" d="M13,22v1h3V22h2V21h1V18H18v1H16v2H15V20H14v1H13V19h1V18H12v1H11V18H10v3h1v1h2Z"/><path class="qa239-7" d="M10,18V16H9v2h1Z"/><path class="qa239-2" d="M14,19H13v1h3V19H14Z"/><path class="qa239-2" d="M16,18v1h1V18Z"/><path class="qa239-8" d="M9,16H9V14h2V11h1v1h0v1h1V12h1V11h1v2h1V12h2v2h2v2h0v2h1V13H20V11H19V10H18V9H11v1H10v1H9v1H8v6H9V16Z"/><path class="qa239-8" d="M11,17V15H10v1h0v2h1Z"/><path class="qa239-8" d="M18,15v3h1V15Z"/><path class="qa239-8" d="M10,18H9v2h1V18Z"/><path class="qa239-8" d="M13,16h1V15H13Z"/><path class="qa239-8" d="M16,17h1V16H16Z"/><path class="qa239-8" d="M19,19v1h1V18H19Z"/><path class="qa239-2" d="M11,15v1h2V15h1V14h1v1h1v1h2V15h2V14H18V13H11v1H9v1h2Z"/></svg>