<svg xmlns="http://www.w3.org/2000/svg" viewBox="0 0 29 33"><defs><style>polygon,rect,path{shape-rendering:crispedges;}.qa275-1{fill:#000000;}.qa275-2{fill:#ff791f;}.qa275-3{fill:#e8b795;}.qa275-4{fill:#ffffff;}.qa275-5{fill:#6c9302;}.qa275-6{fill:#ffffff;}.qa275-7{fill:#0068ff;}.qa275-8{fill:#ff1f4a;}.qa275-9{fill:#893a1f;}.qa275-10{fill:#dfdfdf;}.qa275-11{fill:#b2622b;}.qa275-12{fill:#6b4f99;}</style></defs><path class="qa275-1" d="M23,27H22v6h1V27Z"/><path class="qa275-2" d="M22,27H21v6h1V27Z"/><rect class="qa275-1" x="21" y="26" width="1" height="1"/><path class="qa275-1" d="M21,27H20v6h1V27Z"/><rect class="qa275-2" x="18" y="29" width="1" height="1"/><rect class="qa275-2" x="10" y="29" width="1" height="1"/><path class="qa275-2" d="M16,25h1v4h1V28h1v1h1V27h1V26H19V25H18V24H16Z"/><path class="qa275-2" d="M9,27v2h1V28h1v1h1V25h1V24H11v1H10v1H8v1Z"/><path class="qa275-2" d="M19,32V31H18v1H17V30H16v1H15v1H13V30H12v2H11V31H10v1H9v1H20V32Z"/><path class="qa275-1" d="M20,26h1V25H19v1Z"/><rect class="qa275-1" x="18" y="24" width="1" height="1"/><rect class="qa275-1" x="18" y="22" width="1" height="1"/><rect class="qa275-2" x="17" y="22" width="1" height="1"/><path class="qa275-1" d="M16,25V24H13v1h3Z"/><path class="qa275-3" d="M16,24V23H13v1h3Z"/><path class="qa275-1" d="M13,23h3v1h2V23H17V22h1V20H17v1H16v1H13V21H12V20H11v2h1v1H11v1h2Z"/><rect class="qa275-2" x="11" y="22" width="1" height="1"/><rect class="qa275-1" x="10" y="24" width="1" height="1"/><rect class="qa275-1" x="10" y="22" width="1" height="1"/><path class="qa275-1" d="M10,25H8v1h2Z"/><path class="qa275-1" d="M9,31V27H8v6H9V31Z"/><path class="qa275-2" d="M8,27H7v6H8V27Z"/><rect class="qa275-1" x="7" y="26" width="1" height="1"/><path class="qa275-1" d="M7,27H6v6H7V27Z"/><path class="qa275-2" d="M14,29v2h1V29Z"/><path class="qa275-2" d="M13,28h2v1h1V25H13v3Z"/><path class="qa275-4" d="M19,30H18V29H17v3h1V31h1v1h1V29H19Z"/><rect class="qa275-4" x="18" y="28" width="1" height="1"/><path class="qa275-4" d="M15,29v2h1V29Z"/><path class="qa275-4" d="M14,30V29h1V28H13v4h2V31H14Z"/><path class="qa275-4" d="M11,29v1H10V29H9v3h1V31h1v1h1V29Z"/><rect class="qa275-4" x="10" y="28" width="1" height="1"/><path class="qa275-1" d="M13,27V25H12v5h1V27Z"/><path class="qa275-1" d="M17,28V25H16v5h1V28Z"/><rect class="qa275-1" x="20" y="15" width="1" height="1"/><rect class="qa275-3" x="14" y="15" width="1" height="1"/><rect class="qa275-3" x="14" y="13" width="1" height="1"/><path class="qa275-3" d="M12,21h1v1h3V21h1V20h1V19h1V16H15v1H14V16H10v3h1v1h1Zm0-3h1v1h3v1H13V19H12Z"/><path class="qa275-1" d="M19,17v2h1V16H19Z"/><rect class="qa275-1" x="18" y="19" width="1" height="1"/><rect class="qa275-1" x="10" y="19" width="1" height="1"/><path class="qa275-1" d="M10,16H9v3h1V16Z"/><rect class="qa275-1" x="8" y="15" width="1" height="1"/><rect class="qa275-1" x="14" y="16" width="1" height="1"/><rect class="qa275-1" x="13" y="19" width="3" height="1"/><rect class="qa275-1" x="12" y="18" width="1" height="1"/><rect class="qa275-5" x="20" y="13" width="1" height="1"/><path class="qa275-6" d="M11,16h3V15h1v1h5V13H15v1H14V13H9v3h2Zm5-2h3v1H16Zm-6,0h3v1H10Z"/><path class="qa275-7" d="M19,15V14H16v1h3Z"/><path class="qa275-8" d="M13,15V14H10v1h3Z"/><path class="qa275-9" d="M24,11H22v1h2Z"/><rect class="qa275-10" x="21" y="7" width="1" height="1"/><path class="qa275-9" d="M14,13h8V12H20V11H19v1H10V11H9v1H7v1h7Z"/><rect class="qa275-10" x="20" y="8" width="1" height="1"/><rect class="qa275-11" x="19" y="10" width="1" height="1"/><path class="qa275-6" d="M18,11h1V10h1V8h1V7h1V6H20V7H19V8H18v3Z"/><path class="qa275-11" d="M17,11H10v1h9V11H17Z"/><path class="qa275-9" d="M11,11h7V7H16V8H13V7H11V8H10v3Z"/><path class="qa275-11" d="M10,10H9v1h1Z"/><path class="qa275-9" d="M6,11H5v1H7V11Z"/><path class="qa275-12" d="M0,33H6V27H7V26H8V25h2V24h1V23H10V22h1V20H10V19H9V16H8V15H9V13H7V12H5V11H7v1H9V10h1V8h1V7h2V8h3V7h2V8h1V7h1V6h2V8H21V9H20v3h2V11h2v1H22v1H21v1H20v1h1v1H20v3H19v1H18v2h1v1H18v1h1v1h2v1h1v1h1v6h6V0H0Z"/></svg>