<svg xmlns="http://www.w3.org/2000/svg" viewBox="0 0 29 33"><defs><style>polygon,rect,path{shape-rendering:crispedges;}.da254-1{fill:#b4bd09;}.da254-2{fill:#000000;}.da254-3{fill:#cc3232;}.da254-4{fill:#e8b795;}.da254-5{fill:#ffa9d0;}.da254-6{fill:#ffffff;}.da254-7{fill:#8e703c;}.da254-8{fill:#8e703c;}.da254-9{fill:#ff1f4a;}.da254-10{fill:#560000;}.da254-11{fill:#ff5e17;}.da254-12{fill:#cc3232;}</style></defs><path class="da254-1" d="M0,33H6V27H7V26H8V25h2V24h2V21H11V20H10V19H9V16H8V15H9V10h1V9h1V8h7V9h1v1h1v5h1v1H20v3H19v1H18v1H17v3h2v1h2v1h1v1h1v6h6V0H0Z"/><path class="da254-2" d="M23,27H22v3H21V27H20v6h1V31h1v2h1V27Z"/><rect class="da254-2" x="21" y="26" width="1" height="1"/><path class="da254-3" d="M21,28v2h1V27H21Z"/><path class="da254-4" d="M21,31v2h1V31Z"/><path class="da254-2" d="M20,26h1V25H19v1Z"/><rect class="da254-3" x="10" y="29" width="1" height="1"/><path class="da254-3" d="M19,32V31H18v1H17V29h1V28h1v1h1V27h1V26H19V25H17v1H16v1H13V26H12V25H10v1H8v1H9v2h1V28h1v1h1v3H11V31H10v1H9v1H20V32Zm-3-2v1H15v1H13V28h2v1h1Z"/><rect class="da254-3" x="18" y="29" width="1" height="1"/><path class="da254-3" d="M15,29H14v2h1V29Z"/><path class="da254-2" d="M18,25h1V24H17v1Z"/><rect class="da254-2" x="16" y="25" width="1" height="1"/><path class="da254-2" d="M13,26v1h3V26H13Z"/><path class="da254-2" d="M13,23V22H12v2h1Z"/><path class="da254-4" d="M13,25v1h3V25h1V24H16V23H13v1H12v1Z"/><rect class="da254-2" x="12" y="25" width="1" height="1"/><path class="da254-2" d="M12,24H10v1h2Z"/><path class="da254-2" d="M10,25H8v1h2Z"/><path class="da254-2" d="M9,31V27H8v3H7V27H6v6H7V31H8v2H9V31Z"/><rect class="da254-2" x="7" y="26" width="1" height="1"/><path class="da254-3" d="M7,30H8V27H7v3Z"/><path class="da254-4" d="M7,31v2H8V31Z"/><path class="da254-5" d="M19,30H18V29H17v3h1V31h1v1h1V29H19Z"/><rect class="da254-5" x="18" y="28" width="1" height="1"/><path class="da254-5" d="M15,30v1h1V29H15Z"/><path class="da254-5" d="M14,30V29h1V28H13v4h2V31H14Z"/><path class="da254-5" d="M9,32h1V31h1v1h1V29H11v1H10V29H9v3Z"/><rect class="da254-5" x="10" y="28" width="1" height="1"/><rect class="da254-2" x="20" y="15" width="1" height="1"/><path class="da254-2" d="M19,15h1V14H19Z"/><rect class="da254-4" x="17" y="10" width="1" height="1"/><rect class="da254-4" x="13" y="20" width="1" height="1"/><rect class="da254-4" x="15" y="20" width="1" height="1"/><path class="da254-4" d="M18,15H16V14h2V13H15v2H14v1h1v1H14V16H13v1H11V16H10v2h1v1h1V18h2v1h1V18h2v1h1V18h1V16h1V15H18Z"/><rect class="da254-4" x="9" y="15" width="1" height="1"/><path class="da254-2" d="M19,17h1V16H19Z"/><path class="da254-2" d="M16,23v1h1V22H16Z"/><path class="da254-2" d="M10,16H9v1h1Z"/><rect class="da254-2" x="8" y="15" width="1" height="1"/><rect class="da254-2" x="14" y="16" width="1" height="1"/><path class="da254-6" d="M18,15h1V14H18Z"/><path class="da254-6" d="M16,14v1h1V14Z"/><path class="da254-2" d="M17,14v1h1V14Z"/><rect class="da254-7" x="18" y="13" width="1" height="1"/><path class="da254-8" d="M15,18v1h1V18Z"/><path class="da254-8" d="M13,23h3V22h1V21h1V20h1V19h1V17H19v1H18v1H16v2H15V20H14v1H13V19h1V18H12v1H11V18H10V17H9v2h1v1h1v1h1v1h1Z"/><path class="da254-2" d="M14,19H13v1h3V19H14Z"/><path class="da254-2" d="M16,18v1h1V18Z"/><path class="da254-9" d="M11,15h2V13H11v2Z"/><path class="da254-10" d="M14,15V13H13v2Z"/><path class="da254-10" d="M12,15H11v1h2V15Z"/><path class="da254-10" d="M11,14V13H10v2h1Z"/><rect class="da254-2" x="10" y="15" width="1" height="1"/><rect class="da254-2" x="11" y="16" width="2" height="1"/><rect class="da254-2" x="13" y="15" width="1" height="1"/><rect class="da254-2" x="11" y="10" width="1" height="1"/><rect class="da254-2" x="14" y="13" width="1" height="2"/><rect class="da254-2" x="13" y="10" width="1" height="1"/><path class="da254-2" d="M10,14H9v1h1Z"/><path class="da254-11" d="M19,14h1V13H19Z"/><path class="da254-11" d="M11,10h1v1h1V10h1v1h3V10h1v1h2V10H19V9H18V8H11V9H10v1H9v1h2Z"/><path class="da254-11" d="M10,13H9v1h1Z"/><path class="da254-6" d="M20,12V11H9v1H20Z"/><path class="da254-12" d="M11,13h9V12H9v1h2Z"/></svg>