<svg xmlns="http://www.w3.org/2000/svg" viewBox="0 0 29 33"><defs><style>polygon,rect,path{shape-rendering:crispedges;}.bb298-1{fill:#e55b35;}.bb298-2{fill:#000000;}.bb298-3{fill:#9b8100;}.bb298-4{fill:#ffffff;}.bb298-5{fill:#b2622b;}.bb298-6{fill:#e2e2e2;}.bb298-7{fill:#e2e2e2;}.bb298-8{fill:#68aaad;}</style></defs><path class="bb298-1" d="M0,33H6V27H7V26H8V25h2V24h1V23h1V21H11V20H10V19H9V16H8V15H9V11h1V9h1V7h1V6H11V5h2V6h2V7h1V9h2v1h1v1h1v4h1v1H20v3H19v1H18v1H17v2h1v1h1v1h1V24h1V23h1v1h1v9h6V0H0Z"/><path class="bb298-2" d="M7,27H6v6H7V27Z"/><rect class="bb298-2" x="7" y="26" width="1" height="1"/><path class="bb298-3" d="M8,27H7v6H8V27Z"/><path class="bb298-2" d="M9,27H8v6H9V27Z"/><path class="bb298-2" d="M10,25H8v1h2Z"/><path class="bb298-3" d="M12,29H11V25H10v1H8v1H9v6h3V29Z"/><path class="bb298-2" d="M11,26v3h1V26h1V25H12V24h1V22H12v1H11v1H10v1h1Z"/><rect class="bb298-4" x="12" y="24" width="1" height="1"/><path class="bb298-2" d="M13,29H12v4h1V29Z"/><path class="bb298-4" d="M14,23H13v1h1Z"/><path class="bb298-4" d="M16,29h1V26H16V25H13v1H12v3h1v4h1V32h1v1h1V29Zm-1,2H14V30h1Zm0-2H14V28h1Zm0-2H14V26h1Z"/><rect class="bb298-2" x="14" y="26" width="1" height="1"/><rect class="bb298-2" x="14" y="28" width="1" height="1"/><rect class="bb298-2" x="14" y="30" width="1" height="1"/><rect class="bb298-2" x="14" y="32" width="1" height="1"/><rect class="bb298-4" x="15" y="23" width="1" height="1"/><path class="bb298-2" d="M15,24V23H14v1H13v1h3V24Z"/><rect class="bb298-4" x="16" y="24" width="1" height="1"/><path class="bb298-2" d="M17,29H16v4h1V29Z"/><path class="bb298-3" d="M20,27H19V25H18v4H17v4h3V27Z"/><path class="bb298-2" d="M21,28V27H20v6h1V28Z"/><path class="bb298-4" d="M21,28h1V27H21Z"/><path class="bb298-3" d="M22,28H21v5h1V28Z"/><path class="bb298-2" d="M23,24H22v9h1V24Z"/><rect class="bb298-2" x="20" y="15" width="1" height="1"/><path class="bb298-2" d="M19,13v2h1V11H19v2Z"/><rect class="bb298-5" x="13" y="20" width="1" height="1"/><rect class="bb298-5" x="15" y="20" width="1" height="1"/><rect class="bb298-5" x="14" y="15" width="1" height="1"/><path class="bb298-5" d="M18,14h1V13H18Z"/><path class="bb298-5" d="M11,13h2v1h3V12h3V11H18V10H16v1H14V10H11v1H10v2Z"/><rect class="bb298-5" x="9" y="15" width="1" height="1"/><rect class="bb298-5" x="19" y="15" width="1" height="1"/><path class="bb298-5" d="M18,16v1H16V16H15v1H14V16H13v1H11V16H10v2h1v1h1V18h2v1h1V18h2v1h1V18h1V16Z"/><path class="bb298-2" d="M19,17h1V16H19Z"/><rect class="bb298-2" x="18" y="10" width="1" height="1"/><path class="bb298-2" d="M16,23v1h1v1H16v1h1v3h1V25h1V24H18V23H17V22H16Z"/><path class="bb298-2" d="M17,10h1V9H16v1Z"/><path class="bb298-2" d="M12,10h1V9H11v1Z"/><path class="bb298-2" d="M11,10H10v1h1Z"/><path class="bb298-2" d="M10,14V11H9v4h1Z"/><path class="bb298-2" d="M10,16H9v1h1Z"/><rect class="bb298-2" x="8" y="15" width="1" height="1"/><rect class="bb298-2" x="14" y="16" width="1" height="1"/><path class="bb298-6" d="M19,13V12H16v1h3Z"/><path class="bb298-6" d="M11,13H10v1h1Z"/><path class="bb298-7" d="M15,18v1h1V18Z"/><path class="bb298-7" d="M13,23h3V22h1V21h1V20h1V19h1V17H19v1H18v1H16v2H15V20H14v1H13V19h1V18H12v1H11V18H10V17H9v2h1v1h1v1h1v1h1Z"/><path class="bb298-2" d="M14,19H13v1h3V19H14Z"/><path class="bb298-2" d="M16,18v1h1V18Z"/><path class="bb298-5" d="M21,27h1V24H21v1H20v2Z"/><path class="bb298-2" d="M20,27V25H19v2Z"/><rect class="bb298-2" x="20" y="24" width="1" height="1"/><rect class="bb298-2" x="21" y="23" width="1" height="1"/><path class="bb298-8" d="M13,10h1v1h2V7H15V6H13V5H11V6h1V7H11V9h2Z"/><path class="bb298-8" d="M11,9H10v1h1Z"/><path class="bb298-4" d="M12,14h1V13H11v1Z"/><path class="bb298-4" d="M11,17h2V16H11Z"/><polygon class="bb298-4" points="11 15 11 14 10 14 10 15 10 16 11 16 11 15"/><path class="bb298-2" d="M11,14v2h2V14H11Z"/><path class="bb298-4" d="M18,15v1h1V14H18Z"/><path class="bb298-4" d="M18,13H16v1h2Z"/><path class="bb298-4" d="M16,17h2V16H16Z"/><path class="bb298-4" d="M14,16V15h1v1h1V14H13v2Z"/><path class="bb298-2" d="M18,16V14H16v2Z"/><rect class="bb298-8" x="10" y="9" width="1" height="1"></rect></svg>