<svg xmlns="http://www.w3.org/2000/svg" viewBox="0 0 29 33"><defs><style>polygon,rect,path{shape-rendering:crispedges;}.ma101-1{fill:#b4bd09;}.ma101-2{fill:#000000;}.ma101-3{fill:#316a6d;}.ma101-4{fill:#333333;}.ma101-5{fill:#ce8452;}.ma101-6{fill:#68aaad;}.ma101-7{fill:#ffffff;}.ma101-8{fill:#7f5018;}.ma101-9{fill:#7f5018;}.ma101-10{fill:#c8a715;}.ma101-11{fill:#ff6c77;}</style></defs><path class="ma101-1" d="M0,33H6V27H7V26H8V25h2V20H9V16H8V15H9V10h1V9h1V8h7V9h1v2h1v4h1v1H20v4H19v5h2v1h1v1h1v6h6V0H0Z"/><path class="ma101-1" d="M18,22H17v2h1V22Z"/><path class="ma101-1" d="M12,22H11v2h1V22Z"/><path class="ma101-2" d="M23,27H22v6h1V27Z"/><rect class="ma101-2" x="21" y="26" width="1" height="1"/><path class="ma101-3" d="M21,31v2h1V31Z"/><path class="ma101-3" d="M21,28v2h1V27H21Z"/><path class="ma101-2" d="M21,30V27H20v6h1V30Z"/><path class="ma101-3" d="M20,32V26H19V25H18v3h1v1H18v4h1V32Z"/><path class="ma101-2" d="M20,26h1V25H19v1Z"/><path class="ma101-2" d="M18,29V25h1V24H17v1H16v1h1v7h1V29Z"/><path class="ma101-4" d="M17,26H16v1H13V26H12v7h5V26Z"/><path class="ma101-2" d="M13,26v1h3V26H13Z"/><path class="ma101-5" d="M16,23H13v3h3V23Z"/><path class="ma101-2" d="M12,26h1V25H12V24H10v1h1v8h1V26Z"/><path class="ma101-3" d="M11,29H10V28h1V25H10v1H9v6h1v1h1V29Z"/><path class="ma101-2" d="M10,26V25H8v1h2Z"/><path class="ma101-2" d="M9,31V27H8v6H9V31Z"/><rect class="ma101-2" x="7" y="26" width="1" height="1"/><path class="ma101-3" d="M7,30H8V27H7v3Z"/><path class="ma101-3" d="M7,31v2H8V31Z"/><path class="ma101-2" d="M7,30V27H6v6H7V30Z"/><path class="ma101-6" d="M10,29h1V28H10Z"/><path class="ma101-6" d="M19,29V28H18v1Z"/><path class="ma101-6" d="M9,27V26H8v1Z"/><path class="ma101-6" d="M19,32v1h1V32Z"/><path class="ma101-6" d="M9,32v1h1V32Z"/><path class="ma101-6" d="M7,31H8V30H7Z"/><path class="ma101-6" d="M21,31h1V30H21Z"/><path class="ma101-6" d="M20,27h1V26H20Z"/><rect class="ma101-2" x="20" y="15" width="1" height="1"/><path class="ma101-2" d="M19,14v1h1V11H19v3Z"/><rect class="ma101-5" x="19" y="15" width="1" height="1"/><rect class="ma101-5" x="9" y="15" width="1" height="1"/><path class="ma101-5" d="M18,10H17v1H16V10H15v1H14V10H13v1H12V10H11v1H10v2h3v3H10v2h1v1h1V18h2v1h1V18h2v1h1V18h1V16H16V13h3V11H18Zm-3,7H14V16h1Z"/><polygon class="ma101-5" points="13 21 14 21 14 22 15 22 15 21 16 21 16 20 13 20 13 21"/><path class="ma101-2" d="M19,17h1V16H19Z"/><rect class="ma101-2" x="17" y="9" width="1" height="1"/><rect class="ma101-2" x="11" y="9" width="1" height="1"/><rect class="ma101-2" x="13" y="9" width="1" height="1"/><rect class="ma101-2" x="15" y="9" width="1" height="1"/><rect class="ma101-2" x="10" y="10" width="1" height="1"/><path class="ma101-2" d="M10,14V11H9v4h1Z"/><path class="ma101-2" d="M10,16H9v1h1Z"/><rect class="ma101-2" x="8" y="15" width="1" height="1"/><rect class="ma101-2" x="14" y="16" width="1" height="1"/><path class="ma101-7" d="M11,15V14H10v2h1Z"/><path class="ma101-7" d="M12,15v1h1V14H12Z"/><path class="ma101-7" d="M16,14v2h1V14Z"/><path class="ma101-7" d="M19,14H18v2h1V14Z"/><path class="ma101-2" d="M12,14H11v2h1V14Z"/><path class="ma101-2" d="M17,14v2h1V14Z"/><path class="ma101-8" d="M12,14h1V13H10v1h2Z"/><path class="ma101-8" d="M18,14h1V13H16v1h2Z"/><path class="ma101-9" d="M12,22v1h5V22h2V20h1V17H19v1H18v1H17V18H15v1h1v2H15v1H14V21H13V19H11V18H10V17H9v3h1v2h2Z"/><path class="ma101-9" d="M14,18H13v1h1Z"/><path class="ma101-10" d="M18,23h1V22H18Z"/><path class="ma101-9" d="M18,24h1V23H18Z"/><path class="ma101-10" d="M16,23v1h1V23Z"/><path class="ma101-9" d="M16,25h1V24H16Z"/><path class="ma101-10" d="M13,23H12v1h1Z"/><path class="ma101-9" d="M12,24v1h1V24Z"/><path class="ma101-10" d="M11,22H10v1h1Z"/><path class="ma101-9" d="M11,23H10v1h1Z"/><path class="ma101-2" d="M13,19v1h3V19H13Z"/><path class="ma101-2" d="M12,18v1h1V18Z"/><path class="ma101-11" d="M18,11h1V9H18v2Z"/><path class="ma101-11" d="M12,10v1h1V9h1v2h1V9h1v2h1V9h1V8H11V9h1Z"/><rect class="ma101-11" x="10" y="9" width="1" height="1"/><path class="ma101-11" d="M10,10H9v1h1Z"/></svg>