<svg xmlns="http://www.w3.org/2000/svg" viewBox="0 0 29 33"><defs><style>polygon,rect,path{shape-rendering:crispedges;}.aa92-1{fill:#31a09d;}.aa92-2{fill:#e8b795;}.aa92-3{fill:#000000;}.aa92-4{fill:#6d5800;}.aa92-5{fill:#d8be00;}.aa92-6{fill:#ffffff;}.aa92-7{fill:#8e703c;}.aa92-8{fill:#8e703c;}.aa92-9{fill:#ff6aa5;}.aa92-10{fill:#fafafa;}</style></defs><path class="aa92-1" d="M0,33H29V0H0Zm6-1V27H7V26H8V25h2V24h2V21H11V20H10V19H9V16H8V15H9V10h1V9h1V8h7V9h1v1h1v5h1v1H20v3H19v1H18v1H17v3h2V21h1V20h4v1h1v1h1v4H25v1H24v1H23v5H6Z"/><rect class="aa92-1" x="11" y="20" width="1"/><path class="aa92-1" d="M18,19v1H17v1H16v1h0V21h1V20h1V19h0Z"/><polygon class="aa92-1" points="14 16 15 16 15 16 14 16 14 17 14 17 14 16"/><rect class="aa92-1" x="19" y="16" width="1"/><rect class="aa92-1" x="9" y="16" width="1"/><rect class="aa92-1" x="12" y="21" width="1"/><rect class="aa92-1" x="10" y="19" width="1"/><path class="aa92-2" d="M22,31V28H21v5h1Z"/><rect class="aa92-3" x="19" y="25" width="1" height="1"/><path class="aa92-4" d="M9,26v7h1V29h1v4h1V29h3v4h1V29h3v1H17v2h1V31h1v2h1V27H19V25H18v1H17v1H16v1H13V27H12V26H11V25H10v1Z"/><rect class="aa92-4" x="13" y="30" width="1" height="2"/><path class="aa92-3" d="M17,26h1V25h1V24H17Z"/><rect class="aa92-3" x="16" y="26" width="1" height="1"/><path class="aa92-3" d="M14,27H13v1h3V27Z"/><path class="aa92-3" d="M13,23h3v1h1V21H16v1H13V21H12v3h1Z"/><path class="aa92-2" d="M12,26h1v1h3V26h1V24H16V23H13v1H12Z"/><rect class="aa92-3" x="12" y="26" width="1" height="1"/><path class="aa92-3" d="M11,26h1V24H10v1h1Z"/><path class="aa92-3" d="M10,26V25H8v1Z"/><rect class="aa92-2" x="8" y="26" width="1" height="1"/><path class="aa92-3" d="M9,31V27H8v6H9Z"/><rect class="aa92-3" x="7" y="26" width="1" height="1"/><path class="aa92-2" d="M7,29v4H8V27H7Z"/><path class="aa92-3" d="M7,32V27H6v6H7Z"/><path class="aa92-5" d="M12,29v4h3V29Zm2,3H13V30h1Z"/><path class="aa92-5" d="M11,31V29H10v4h1Z"/><path class="aa92-5" d="M19,31H18v1H17V30h2V29H16v4h3Z"/><polygon class="aa92-3" points="20 16 20 16 21 16 21 15 20 15 20 16 20 16"/><path class="aa92-2" d="M15,22h1V21h1V20h1V19h1V16H17v1H16V15H15V14H14v1H13v1H10v3h1v1h1v1h1v1Zm-1-6h1v1H14Zm-2,3V18h5v1H16v1H13V19Z"/><rect class="aa92-2" x="9" y="15" width="1" height="1"/><rect class="aa92-2" x="10" y="13" width="1" height="1"/><path class="aa92-2" d="M14,12V11H13V10H11v1H10v1h2v1h3V12Z"/><polygon class="aa92-2" points="19 16 20 16 20 15 19 15 19 16"/><path class="aa92-3" d="M19,16v3h1V16Z"/><rect class="aa92-3" x="18" y="19" width="1" height="1"/><rect class="aa92-3" x="17" y="20" width="1" height="1"/><polygon class="aa92-3" points="12 20 11 20 11 21 12 21 12 20"/><rect class="aa92-3" x="11" y="10" height="1"/><polygon class="aa92-3" points="11 19 10 19 10 20 11 20 11 19"/><path class="aa92-3" d="M10,18V16H9v3h1Z"/><polygon class="aa92-3" points="9 15 8 15 8 16 9 16 9 15"/><polygon class="aa92-3" points="14 17 14 17 15 17 15 16 14 16 14 17"/><rect class="aa92-6" x="10" y="15" width="1" height="1"/><rect class="aa92-6" x="18" y="15" width="1" height="1"/><path class="aa92-7" d="M10,12v1h2V12Z"/><path class="aa92-8" d="M16,18H12v1h4Z"/><rect class="aa92-3" x="13" y="19" width="3" height="1"/><rect class="aa92-3" x="16" y="18" width="1" height="1"/><rect class="aa92-9" x="16" y="16" width="1" height="1"/><path class="aa92-9" d="M10,13V11h1V10h2v1h1v1h1v1h3v1h2V10H19V9H18V8H11V9H10v1H9v4h1Z"/><path class="aa92-3" d="M11,15v1h2V15h1V14h1v1h1v1h2V15h2V14H18V13H11v1H9v1Z"/><rect class="aa92-10" x="23" y="23" width="1" height="1"/><rect class="aa92-10" x="20" y="23" width="1" height="1"/><path class="aa92-2" d="M20,25v1H19v1h5V26H21V25h3v1h1V24H23V23h1V22H23V21H20v2h2v1H19v1Z"/><path class="aa92-3" d="M23.25,25H21v1h3V25Z"/><rect class="aa92-3" x="21" y="23" width="1" height="1"/><rect class="aa92-3" x="24" y="23" width="1" height="1"/><path class="aa92-3" d="M20,23V22H19v2h1Z"/><rect class="aa92-3" x="24" y="26" width="1" height="1"/><path class="aa92-3" d="M25,25v1h1V24H25Z"/><rect class="aa92-9" x="19" y="21" width="1" height="1"/><path class="aa92-9" d="M22,21h1v1h1v1h1v1h1V22H25V21H24V20H20v1Z"/><path class="aa92-3" d="M22,27H20v6h1V28h1v5h1V28h1V27Z"/></svg>