<svg xmlns="http://www.w3.org/2000/svg" viewBox="0 0 29 33"><defs><style>polygon,rect,path{shape-rendering:crispedges;}.oa92-1{fill:#e55b35;}.oa92-2{fill:#000000;}.oa92-3{fill:#66334f;}.oa92-4{fill:#ffffff;}.oa92-5{fill:#e8b795;}.oa92-6{fill:#a0688d;}.oa92-7{fill:#ffffff;}.oa92-8{fill:#8e4717;}.oa92-9{fill:#ff1d99;}</style></defs><rect class="oa92-1" x="19" y="16" width="1"/><path class="oa92-1" d="M0,33H29V0H0Zm6-1V27H7V26H8V25h2V24H9V16H8V15H9V10h1V9h1V8h7V9h1v1h1v5h1v1H20v6H19v3h2v1h1v1h1v6H6Z"/><rect class="oa92-1" x="12" y="21" width="1"/><polygon class="oa92-1" points="14 16 15 16 15 16 14 16 14 17 14 17 14 16"/><rect class="oa92-1" x="9" y="16" width="1"/><path class="oa92-1" d="M18,20H17v1H16v1h0V21h1V20h1V19h0Z"/><rect class="oa92-1" x="11" y="20" width="1"/><rect class="oa92-1" x="10" y="19" width="1"/><path class="oa92-2" d="M22,29v4h1V27H22v2Z"/><rect class="oa92-2" x="21" y="26" width="1" height="1"/><path class="oa92-3" d="M21,31h1V30H21Z"/><path class="oa92-3" d="M21,28h1V27H21Z"/><path class="oa92-2" d="M21,30V27H20v6h1V30Z"/><path class="oa92-3" d="M18,31h2V30H18Z"/><path class="oa92-3" d="M20,28V27H18v1Z"/><path class="oa92-2" d="M20,26h1V25H19v1Z"/><path class="oa92-2" d="M18,30V26H17v7h1V30Z"/><rect class="oa92-2" x="16" y="25" width="1" height="1"/><path class="oa92-4" d="M17,26H16v1H13V26H12v7h5V26Z"/><path class="oa92-2" d="M13,26v1h3V26H13Z"/><path class="oa92-2" d="M13,23h3v1h1V21H16v1H13V21H12v3h1Z"/><path class="oa92-5" d="M13,26h3V25h1V24H16V23H13v1H12v1h1Z"/><path class="oa92-2" d="M12,26h1V25H11v8h1V26Z"/><path class="oa92-3" d="M9,31h2V30H9Z"/><path class="oa92-3" d="M11,28V27H9v1Z"/><path class="oa92-2" d="M10,25H8v1h2Z"/><path class="oa92-2" d="M9,30V27H8v6H9V30Z"/><rect class="oa92-2" x="7" y="26" width="1" height="1"/><path class="oa92-3" d="M8,30H7v1H8Z"/><path class="oa92-3" d="M8,28V27H7v1Z"/><path class="oa92-2" d="M7,32V27H6v6H7Z"/><path class="oa92-6" d="M9,31v2h2V31Z"/><path class="oa92-6" d="M18,31v2h2V31Z"/><path class="oa92-6" d="M18,29v1h2V28H18Z"/><path class="oa92-6" d="M9,29v1h2V28H9Z"/><path class="oa92-6" d="M18,26v1h3V26H19V25H18Z"/><path class="oa92-6" d="M9,27h1V26H8v1Z"/><path class="oa92-6" d="M8,29V28H7v2H8Z"/><path class="oa92-6" d="M7,31v2H8V31Z"/><path class="oa92-6" d="M21,31v2h1V31Z"/><path class="oa92-6" d="M22,30V28H21v2Z"/><polygon class="oa92-2" points="20 16 20 16 21 16 21 15 20 15 20 16 20 16"/><rect class="oa92-5" x="10" y="13" width="1" height="1"/><path class="oa92-5" d="M17,12V11H15V10H12v1H11v1h1v1h4V12Z"/><path class="oa92-5" d="M11,19h0v1h1v1h1v1h3V21h1V20h1V19h1V16H16V15H15V14H14v1H13v1H10v3Zm3-3h1v1H14Zm-1,3h3V18h1v1H16v1H13Z"/><polygon class="oa92-5" points="10 16 10 15 9 15 9 15 9 16 10 16"/><path class="oa92-2" d="M19,16v3h1V16Z"/><rect class="oa92-2" x="18" y="19" width="1" height="1"/><rect class="oa92-2" x="17" y="20" width="1" height="1"/><polygon class="oa92-2" points="12 20 12 20 11 20 11 21 12 21 12 21 12 20"/><polygon class="oa92-2" points="11 19 11 19 10 19 10 20 11 20 11 20 11 19"/><path class="oa92-2" d="M10,19V16H9v3Z"/><polygon class="oa92-2" points="9 15 8 15 8 16 9 16 9 16 9 15"/><polygon class="oa92-2" points="14 17 14 17 15 17 15 16 15 16 14 16 14 17"/><path class="oa92-7" d="M11,15H10v1h1Z"/><path class="oa92-7" d="M19,15H18v1h1Z"/><path class="oa92-8" d="M17,12H16v1h2V12Z"/><rect class="oa92-8" x="11" y="12" width="1" height="1"/><rect class="oa92-2" x="13" y="19" width="3" height="1"/><rect class="oa92-2" x="16" y="18" width="1" height="1"/><path class="oa92-9" d="M10,27h1V25h1V21H11V20H10V19H9v5h1v3Z"/><polygon class="oa92-9" points="19 16 20 16 20 16 20 15 20 15 19 15 19 16"/><path class="oa92-9" d="M10,13h1V11h1V10h3v1h2v1h1v2h2V10H19V9H18V8H11V9H10v1H9v4h1Z"/><path class="oa92-9" d="M19,20H18v1H17v5h1V25h1V22h1V19H19Z"/><path class="oa92-2" d="M11,15v1h2V15h1V14h1v1h1v1h2V15h2V14H18V13H11v1H9v1h2Z"/></svg>