<svg xmlns="http://www.w3.org/2000/svg" viewBox="0 0 29 33"><defs><style>polygon,rect,path{shape-rendering:crispedges;}.ab103-1{fill:#e55b35;}.ab103-2{fill:#000000;}.ab103-3{fill:#e1ff85;}.ab103-4{fill:#c18d59;}.ab103-5{fill:#009b97;}.ab103-6{fill:#5e362f;}.ab103-7{fill:#ffffff;}.ab103-8{fill:#fad000;}.ab103-9{fill:#6e12ff;}</style></defs><path class="ab103-1" d="M6,32V27H7V26H8V25h2V24h1V23h1V21H10v1H9V21H8V20H9V17H8V12H9V10h1V9h1V8h7V9h1v1h1v2h1v6H20v2h1v1H20v1H19V21H17v2h1v1h1v1h2v1h1v1h1v6h6V0H0V33H6Z"/><path class="ab103-2" d="M23,27H22v6h1V27Z"/><path class="ab103-3" d="M21,31v1h1V30H21Z"/><path class="ab103-3" d="M21,28h1V27H21Z"/><rect class="ab103-2" x="21" y="26" width="1" height="1"/><path class="ab103-2" d="M21,31V27H20v6h1V31Z"/><path class="ab103-3" d="M19,31V30H18V28H16v1h1v2h1v1h1v1h1V31Z"/><path class="ab103-3" d="M16,31V30H15v2h1v1h1V31Z"/><path class="ab103-3" d="M10,31V30H9v2h1v1h1V31Z"/><path class="ab103-3" d="M14,31H13V30H12V28H11V27H10V26H9v2h1v1h1v2h1v1h1v1h1V31Z"/><path class="ab103-3" d="M19,26H18v2h1v1h1V27H19Z"/><rect class="ab103-3" x="14" y="29" width="1" height="1"/><rect class="ab103-3" x="15" y="25" width="1" height="1"/><path class="ab103-2" d="M14,32v1h1V32Z"/><path class="ab103-2" d="M14,31h1V30H14Z"/><path class="ab103-4" d="M15,24h1V23H13v1h1v1h1Z"/><path class="ab103-2" d="M10,26h1V24H10v1H8v1h2Z"/><path class="ab103-2" d="M9,31V27H8v6H9V31Z"/><path class="ab103-3" d="M8,29V27H7v2Z"/><path class="ab103-3" d="M7,31v2H8V31Z"/><rect class="ab103-2" x="7" y="26" width="1" height="1"/><path class="ab103-2" d="M7,30V27H6v6H7V30Z"/><path class="ab103-5" d="M21,29v1h1V28H21Z"/><path class="ab103-5" d="M21,32v1h1V32Z"/><path class="ab103-5" d="M19,27h2V26H19Z"/><path class="ab103-5" d="M19,28H18v2h1v1h1V29H19Z"/><path class="ab103-5" d="M17,27v1h1V27Z"/><path class="ab103-5" d="M18,32V31H17v2h2V32Z"/><path class="ab103-5" d="M15,30h1v1h1V29H15Z"/><rect class="ab103-5" x="13" y="25" width="1" height="1"/><path class="ab103-5" d="M14,32h1V31H14Z"/><rect class="ab103-5" x="15" y="32" width="1" height="1"/><path class="ab103-5" d="M14,29H13V28H12v2h1v1h1V29Z"/><rect class="ab103-5" x="10" y="26" width="1" height="1"/><rect class="ab103-5" x="11" y="27" width="1" height="1"/><path class="ab103-5" d="M12,32V31H11v2h2V32Z"/><path class="ab103-5" d="M10,30v1h1V29H10V28H9v2Z"/><path class="ab103-5" d="M9,32v1h1V32Z"/><path class="ab103-5" d="M9,27V26H8v1Z"/><path class="ab103-5" d="M7,30v1H8V29H7Z"/><path class="ab103-4" d="M13,22h3V21h1V20h1V19h1V16h1V15H19V13H18V12H17V11H16V10H15v1H14v1h2v1h1v1h1v1H16v1H15v1H14V16H13V15H11V14H10v5h1v1h1v1h1Zm-1-3V18h1v1h3v1H13V19Z"/><path class="ab103-2" d="M19,16v3h1V16Z"/><rect class="ab103-2" x="18" y="19" width="1" height="1"/><path class="ab103-2" d="M17,20v1h1V20Z"/><path class="ab103-2" d="M11,20v1h1V20Z"/><rect class="ab103-2" x="10" y="19" width="1" height="1"/><path class="ab103-2" d="M10,18H9v1h1Z"/><path class="ab103-6" d="M18,15V14H17v1Z"/><rect class="ab103-6" x="16" y="13" width="1" height="1"/><rect class="ab103-2" x="14" y="14" width="1" height="1"/><path class="ab103-7" d="M13,13v1H12v1h1v1h3V15h1V14H16V13H13Zm2,2H14V14h1Z"/><path class="ab103-6" d="M13,13h3V12H13Z"/><rect class="ab103-6" x="12" y="13" width="1" height="1"/><path class="ab103-6" d="M11,14v1h1V14Z"/><path class="ab103-2" d="M14,17h1V16H14Z"/><path class="ab103-2" d="M18,26h3V25H19V24H18v2Z"/><path class="ab103-2" d="M18,27V26H17v1Z"/><path class="ab103-8" d="M18,25H17v1h1Z"/><path class="ab103-7" d="M17,25h1V24H17Z"/><path class="ab103-2" d="M16,27v1h1V27Z"/><rect class="ab103-7" x="16" y="26" width="1" height="1"/><rect class="ab103-8" x="15" y="27" width="1" height="1"/><path class="ab103-2" d="M14,28H13v1h3V28H14Z"/><path class="ab103-7" d="M14,28h1V27H14Z"/><rect class="ab103-8" x="13" y="27" width="1" height="1"/><polygon class="ab103-2" points="14 27 15 27 16 27 16 26 15 26 15 25 14 25 14 26 13 26 13 27 14 27"/><rect class="ab103-2" x="12" y="27" width="1" height="1"/><rect class="ab103-7" x="12" y="26" width="1" height="1"/><path class="ab103-2" d="M12,25v1h1V25h1V24H13V23h3v1H15v1h1v1h1V24h1V23H17V21H16v1H13V21H12v2H11v1h1Z"/><rect class="ab103-2" x="11" y="26" width="1" height="1"/><path class="ab103-8" d="M12,25H11v1h1Z"/><path class="ab103-7" d="M12,25V24H11v1Z"/><rect class="ab103-2" x="13" y="19" width="3" height="1"/><rect class="ab103-2" x="12" y="18" width="1" height="1"/><path class="ab103-9" d="M19,20H18v1h1v1h1V21h1V20H20V19H19Z"/><path class="ab103-9" d="M10,20V19H9v1H8v1H9v1h1V21h1V20Z"/><path class="ab103-9" d="M10,17V14h2V13h1V12h1V11h1V10h1v1h1v1h1v1h1v2h1v3h1V12H20V10H19V9H18V8H11V9H10v1H9v2H8v5H9v1h1Z"/></svg>