<svg xmlns="http://www.w3.org/2000/svg" viewBox="0 0 29 33"><defs><style>polygon,rect,path{shape-rendering:crispedges;}.ha19-1{fill:#7a982c;}.ha19-2{fill:#000000;}.ha19-3{fill:#ffb38d;}.ha19-4{fill:#e8b795;}.ha19-5{fill:#cc3232;}.ha19-6{fill:#ffffff;}.ha19-7{fill:#893a1f;}.ha19-8{fill:#893a1f;}.ha19-9{fill:#5a2de2;}.ha19-10{fill:#ff1f4a;}.ha19-11{fill:#560000;}.ha19-12{fill:#455054;}.ha19-13{fill:#ffffff;}.ha19-14{fill:#0068ff;}</style></defs><path class="ha19-1" d="M11,24h1V22H11V21H10V20H9V18H8v4H9v2H8v1h2V24Z"/><path class="ha19-1" d="M8,32H6V31H5V22H6V21H7V20H5v1H2V17H5V16H8V12H9V11h1V10h1V9h7v1h1v1h1v2h1v5H20v2H19v1H18v1H17v2h2v1h2v1h1v1h1v6h6V0H0V33H8Z"/><path class="ha19-2" d="M6,24V22H5v9H6V24Z"/><path class="ha19-3" d="M7,30V24H6v7H7Z"/><path class="ha19-2" d="M9,27H8V26h2V25H8V24H7v7H6v1H8v1H9V27Z"/><rect class="ha19-3" x="13" y="29" width="1" height="2"/><path class="ha19-3" d="M20,27h1V26H19V25H17v1H16v1H13V26H12V25H10v1H8v1H9v6H20V27Zm-9,2v3H10V28h1Zm4,3H12V28h3Zm4-3H17v2h1V30h1v2H16V28h3Z"/><path class="ha19-2" d="M11,24H10v1h2V24Z"/><path class="ha19-2" d="M13,24V22H12v2Z"/><rect class="ha19-2" x="12" y="25" width="1" height="1"/><path class="ha19-2" d="M13,26v1h3V26H13Z"/><path class="ha19-4" d="M16,23H13v1H12v1h1v1h3V25h1V24H16Z"/><rect class="ha19-2" x="16" y="25" width="1" height="1"/><path class="ha19-2" d="M18,25h1V24H17v1Z"/><path class="ha19-2" d="M20,26h1V25H19v1Z"/><path class="ha19-2" d="M21,27H20v6h1V27Z"/><rect class="ha19-2" x="21" y="26" width="1" height="1"/><path class="ha19-3" d="M22,27H21v6h1V27Z"/><path class="ha19-2" d="M23,27H22v6h1V27Z"/><path class="ha19-5" d="M12,32h3V28H12Zm1-3h1v2H13Z"/><path class="ha19-5" d="M10,29v3h1V28H10Z"/><path class="ha19-5" d="M16,28v4h3V30H18v1H17V29h2V28H16Z"/><path class="ha19-4" d="M18,14V13H16v1h2Z"/><rect class="ha19-4" x="9" y="15" width="1" height="1"/><path class="ha19-4" d="M15,16v1H14V16H13v1H11v2h1V18h2v1h1V18h2v1h1V15H17v2H16V15H14v1Z"/><rect class="ha19-4" x="15" y="20" width="1" height="1"/><rect class="ha19-4" x="19" y="15" width="1" height="1"/><rect class="ha19-4" x="13" y="20" width="1" height="1"/><path class="ha19-2" d="M16,23v1h1V22H16Z"/><rect class="ha19-2" x="14" y="16" width="1" height="1"/><path class="ha19-6" d="M17,14H16v1h1Z"/><path class="ha19-2" d="M17,15h1V14H17Z"/><path class="ha19-7" d="M18,12H16v1h2Z"/><path class="ha19-8" d="M15,18v1h1V18Z"/><path class="ha19-8" d="M19,18H18v1H16v2H15V20H14v1H13V19h1V18H12v1H11V18H10v3h1v1h2v1h3V22h2V21h1V18Z"/><path class="ha19-8" d="M19,16v2h1V16Z"/><path class="ha19-8" d="M10,17V16H9v2h1Z"/><path class="ha19-2" d="M14,19H13v1h3V19H14Z"/><path class="ha19-2" d="M16,18v1h1V18Z"/><path class="ha19-9" d="M8,18H9V12H8v6Z"/><path class="ha19-9" d="M11,16H10v2h1V16Z"/><path class="ha19-9" d="M15,15h1V12h2v6h1V15h1v3h1V13H20V11H19V10H18V9H15v6Z"/><path class="ha19-9" d="M10,20V18H9v2Z"/><path class="ha19-9" d="M17,17V15H16v2Z"/><path class="ha19-9" d="M19,19v1h1V18H19Z"/><path class="ha19-10" d="M11,15h2V13H11v2Z"/><path class="ha19-11" d="M14,15V13H13v2Z"/><path class="ha19-11" d="M13,15H11v1h2Z"/><path class="ha19-11" d="M11,14V13H10v2h1Z"/><path class="ha19-11" d="M13,12H11v1h2Z"/><rect class="ha19-2" x="10" y="15" width="1" height="1"/><path class="ha19-2" d="M13,17V16H11v1Z"/><rect class="ha19-2" x="13" y="15" width="1" height="1"/><path class="ha19-2" d="M9,15h1V13h1V12h2v1h1v2h1V9H11v1H10v1H9v4Z"/><path class="ha19-4" d="M7,24H8V22H6v2Z"/><path class="ha19-12" d="M8,22V20H7v2Z"/><path class="ha19-2" d="M7,21H6v1H7Z"/><path class="ha19-2" d="M9,22H8v2H9Z"/><path class="ha19-13" d="M5,17H2v1H5Z"/><path class="ha19-13" d="M8,16H5v1H8Z"/><path class="ha19-10" d="M8,19H5v1H8Z"/><path class="ha19-10" d="M2,21H5V20H2Z"/><path class="ha19-14" d="M8,19V17H5v1H2v2H5V19Z"/></svg>