<svg xmlns="http://www.w3.org/2000/svg" viewBox="0 0 29 33"><defs><style>polygon,rect,path{shape-rendering:crispedges;}.va272-1{fill:#7a982c;}.va272-2{fill:#ffffff;}.va272-3{fill:#000000;}.va272-4{fill:#e8b795;}.va272-5{fill:#00af68;}.va272-6{fill:#ffffff;}.va272-7{fill:#893a1f;}.va272-8{fill:#893a1f;}.va272-9{fill:#6e12ff;}</style></defs><path class="va272-1" d="M0,33H6V27H7V26H8V25h2V22h1V21H10V20H9V16H8V15H9V10h1V9h1V8h7V9h1v1h1v5h1v1H20v4H19v1H18v1h1v3h2v1h1v1h1v6h6V0H0Z"/><rect class="va272-2" x="17" y="22" width="1" height="1"/><path class="va272-2" d="M18,24H16v1H15v2H14v1h1v1H14v2h2V30h1v1h3V26H19V25H18Zm-1,3H16V26h1Zm2,1v1H18V28Z"/><path class="va272-2" d="M21,28v2h1V27H21Z"/><path class="va272-2" d="M21,31v2h1V31Z"/><path class="va272-2" d="M13,32H10v1h4V32Z"/><path class="va272-2" d="M18,32H15v1h4V32Z"/><path class="va272-2" d="M7,31v2H8V31Z"/><path class="va272-2" d="M7,30H8V27H7v3Z"/><rect class="va272-2" x="11" y="22" width="1" height="1"/><path class="va272-2" d="M9,26v5h3V30h1V27H12V26h1v1h1V25H13V24H11v1H10v1Zm2,2v1H10V28Z"/><path class="va272-3" d="M23,27H22v6h1V27Z"/><rect class="va272-3" x="21" y="26" width="1" height="1"/><path class="va272-3" d="M21,30V27H20v4H14V27H13v4H9V27H8v6H9V32H20v1h1V30Z"/><path class="va272-3" d="M20,26h1V25H19v1Z"/><path class="va272-3" d="M18,24v1h1V22H18v2Z"/><path class="va272-3" d="M17,24V22H16v2Z"/><rect class="va272-3" x="15" y="24" width="1" height="1"/><path class="va272-3" d="M15,26V25H14v2h1Z"/><rect class="va272-3" x="13" y="24" width="1" height="1"/><path class="va272-4" d="M15,24h1V23H13v1h1v1h1Z"/><path class="va272-3" d="M11,24V22H10v3h1Z"/><path class="va272-3" d="M10,26V25H8v1h2Z"/><rect class="va272-3" x="7" y="26" width="1" height="1"/><path class="va272-3" d="M7,30V27H6v6H7V30Z"/><rect class="va272-3" x="20" y="15" width="1" height="1"/><path class="va272-4" d="M10,17v1h1v1h1V18h2v1h1V18h2v1h1V18h1V16h1V15H16V13h1V12h2V11H18V10H16v1H15v1H14v2H13v3H12V16H11V15H9v1h1Zm4-1h1v1H14Z"/><rect class="va272-4" x="13" y="20" width="1" height="1"/><polygon class="va272-4" points="18 14 19 14 19 13 17 13 17 14 18 14"/><rect class="va272-4" x="15" y="20" width="1" height="1"/><path class="va272-3" d="M13,22H12v2h1V22Z"/><path class="va272-3" d="M10,14H9v1h1Z"/><rect class="va272-3" x="8" y="15" width="1" height="1"/><rect class="va272-3" x="14" y="16" width="1" height="1"/><rect class="va272-5" x="10" y="28" width="1" height="1"/><path class="va272-5" d="M12,31h1V30H12Z"/><path class="va272-5" d="M15,28H14v1h1Z"/><path class="va272-5" d="M14,32v1h1V32Z"/><rect class="va272-5" x="12" y="26" width="1" height="1"/><path class="va272-5" d="M16,30v1h1V30Z"/><rect class="va272-5" x="18" y="28" width="1" height="1"/><rect class="va272-5" x="16" y="26" width="1" height="1"/><path class="va272-5" d="M9,27V26H8v1Z"/><path class="va272-5" d="M19,32v1h1V32Z"/><path class="va272-5" d="M9,32v1h1V32Z"/><path class="va272-5" d="M7,31H8V30H7Z"/><path class="va272-5" d="M21,31h1V30H21Z"/><path class="va272-5" d="M20,27h1V26H20Z"/><path class="va272-5" d="M11,23v1h1V23Z"/><path class="va272-5" d="M18,24V23H17v1Z"/><path class="va272-6" d="M18,14v1h1V14Z"/><path class="va272-6" d="M16,14v1h1V14Z"/><path class="va272-3" d="M17,14v1h1V14Z"/><path class="va272-7" d="M17,13H16v1h1Z"/><rect class="va272-7" x="17" y="12" width="2" height="1"/><path class="va272-8" d="M14,18H13v1h1Z"/><path class="va272-8" d="M13,22v1h3V22h2V21h1V20h1V16H19v2H18v1H17V18H15v1h1v2H15V20H14v1H13V19H11V18H10V16H9v4h1v1h1v1h2Z"/><path class="va272-3" d="M13,19v1h3V19H13Z"/><path class="va272-3" d="M12,18v1h1V18Z"/><path class="va272-9" d="M10,15h1v1h1v1h1V14h1V12h1V11h1V10h2v1h1v4h1V10H19V9H18V8H11V9H10v1H9v4h1Z"/></svg>