<svg xmlns="http://www.w3.org/2000/svg" viewBox="0 0 29 33"><defs><style>polygon,rect,path{shape-rendering:crispedges;}.ta207-1{fill:#6b4f99;}.ta207-2{fill:#000000;}.ta207-3{fill:#326b43;}.ta207-4{fill:#e8b795;}.ta207-5{fill:#a89969;}.ta207-6{fill:#473a35;}.ta207-7{fill:#10bcff;}.ta207-8{fill:#db5800;}</style></defs><rect class="ta207-1" x="10" y="21" height="1"/><path class="ta207-1" d="M0,33H6V27H7V26H8V25h2V24h1V23H10V22H9V21H8V20H7V11H8V10H9V9h1V8h1V7h7V8h1V9h1v1h1v1h1v9H21v1H20v1H19v1H18v1h1v1h2v1h1v1h1v6h6V0H0Z"/><polygon class="ta207-1" points="19 20 18 20 18 20 19 20 19 19 19 19 19 20"/><polygon class="ta207-1" points="15 17 14 17 14 17 15 17 15 16 15 16 15 17"/><rect class="ta207-1" x="11" y="19" height="1"/><rect class="ta207-1" x="10" y="20" width="1"/><polygon class="ta207-1" points="18 21 18 21 18 21 18 20 18 20 18 21"/><rect class="ta207-1" x="12" y="20" height="1"/><path class="ta207-2" d="M23,27H22v6h1V27Z"/><path class="ta207-3" d="M22,27H21v6h1V27Z"/><rect class="ta207-2" x="21" y="26" width="1" height="1"/><path class="ta207-2" d="M21,27H20v6h1V27Z"/><path class="ta207-3" d="M10,30h1V29h1V25h1V24H11v1H10v1H8v1H9v6h1V30Z"/><path class="ta207-3" d="M20,27h1V26H19V25H18V24H16v1h1v4h1v1h1v3h1V27Z"/><path class="ta207-2" d="M20,26h1V25H19v1Z"/><rect class="ta207-2" x="18" y="24" width="1" height="1"/><path class="ta207-2" d="M16,23V22h1V21H16v1H13v1h3v1h2V23H16Z"/><path class="ta207-2" d="M13,24v1h3V24H13Z"/><path class="ta207-4" d="M15,23H13v1h3V23Z"/><path class="ta207-2" d="M13,23H11v1h2Z"/><rect class="ta207-2" x="10" y="24" width="1" height="1"/><path class="ta207-2" d="M10,25H8v1h2Z"/><path class="ta207-2" d="M9,27H8v6H9V27Z"/><path class="ta207-3" d="M8,27H7v6H8V27Z"/><rect class="ta207-2" x="7" y="26" width="1" height="1"/><path class="ta207-2" d="M7,27H6v6H7V27Z"/><path class="ta207-3" d="M16,32H12v1h5V32Z"/><path class="ta207-3" d="M13,25v3h3V25H13Z"/><rect class="ta207-3" x="16" y="30" width="1" height="1"/><rect class="ta207-3" x="12" y="30" width="1" height="1"/><path class="ta207-5" d="M19,30H18V29H17v2H16V28H13v3H12V29H11v1H10v3h2V32h5v1h2V30Z"/><path class="ta207-2" d="M13,25H12v5h1V25Z"/><path class="ta207-2" d="M16,28v2h1V25H16v3Z"/><rect class="ta207-4" x="19" y="19"/><path class="ta207-4" d="M15,12H14v1h4v1h1V12h0v1H17V11H15Z"/><path class="ta207-4" d="M18,20V19h1V16h0V15H18v1H16V15H15V14H14v1H13v1H11V15H10v4h1v1h1v1h2V20H13V19H12V18h1v1h3v1H15v1h2V20Zm-3-3H14V16h1Z"/><rect class="ta207-4" x="18" y="20"/><rect class="ta207-4" x="17" y="21"/><polygon class="ta207-2" points="15 16 15 16 14 16 14 17 14 17 15 17 15 16"/><path class="ta207-6" d="M17,12v1h2V12H17Z"/><path class="ta207-7" d="M10,14h1V13h3V12h1V11H12v1H10v2Z"/><rect class="ta207-3" x="8" y="20"/><rect class="ta207-3" x="9" y="21"/><rect class="ta207-3" x="21" y="20"/><rect class="ta207-3" x="20" y="21"/><path class="ta207-3" d="M13,23V22H12V21H11V20H10V19H9V12h1V11h2V10h5v1h2v1h1v7H19v1H18v1H17v1H16v1h2V22h1V21h1V20h1V11H20V10H19V9H18V8H11V9H10v1H9v1H8v9H9v1h1v1h1v1h2Z"/><rect class="ta207-2" x="10" y="8" width="1" height="1"/><rect class="ta207-2" x="9" y="9" width="1" height="1"/><rect class="ta207-2" x="8" y="10" width="1" height="1"/><path class="ta207-2" d="M8,19V11H7v9H8Z"/><polygon class="ta207-2" points="9 20 8 20 8 20 8 21 9 21 9 21 9 20"/><polygon class="ta207-2" points="10 21 9 21 9 21 9 22 10 22 10 21 10 21"/><polygon class="ta207-2" points="10 22 10 22 10 23 11 23 11 22 10 22"/><rect class="ta207-2" x="18" y="22" width="1" height="1"/><polygon class="ta207-2" points="19 21 19 22 20 22 20 21 20 21 19 21"/><polygon class="ta207-2" points="20 20 20 21 20 21 21 21 21 20 21 20 20 20"/><path class="ta207-2" d="M21,20h1V11H21v9Z"/><rect class="ta207-2" x="20" y="10" width="1" height="1"/><rect class="ta207-2" x="19" y="9" width="1" height="1"/><rect class="ta207-2" x="18" y="8" width="1" height="1"/><path class="ta207-2" d="M18,8V7H11V8h7Z"/><path class="ta207-2" d="M12,11H10v1h2Z"/><path class="ta207-2" d="M11,19H10V15h1v1h2V15h1V14h1v1h1v1h2V15h1v1h0v3h1V12H19v2H18V13H11v1H10V12H9v7h1v1h1Z"/><path class="ta207-2" d="M12,21h0V20H11v1h1v1h1V21Z"/><polygon class="ta207-2" points="18 20 18 20 17 20 17 21 17 21 17 21 18 21 18 21 18 20"/><polygon class="ta207-2" points="18 20 18 20 19 20 19 19 19 19 18 19 18 20"/><path class="ta207-2" d="M18,12h1V11H17v1Z"/><path class="ta207-2" d="M15,11h2V10H12v1h3Z"/><path class="ta207-8" d="M16,22V21H15V20H14v1H13v1h3Z"/><polygon class="ta207-2" points="16 19 13 19 13 20 14 20 15 20 16 20 16 19"/><rect class="ta207-2" x="12" y="18" width="1" height="1"/></svg>