<svg xmlns="http://www.w3.org/2000/svg" viewBox="0 0 29 33"><defs><style>polygon,rect,path{shape-rendering:crispedges;}.oa236-1{fill:#e55b35;}.oa236-2{fill:#000000;}.oa236-3{fill:#3f2f17;}.oa236-4{fill:#68aaad;}.oa236-5{fill:#c18d59;}.oa236-6{fill:#8c7850;}.oa236-7{fill:#8e4717;}.oa236-8{fill:#ffffff;}.oa236-9{fill:#e70059;}.oa236-10{fill:#99004d;}.oa236-11{fill:#a06415;}</style></defs><path class="oa236-1" d="M0,33H6V27H7V26H8V25h2V24h2V21H11V20H10V19H9V16H8V15H9V10h1V9h1V8h7V9h1v1h1v2h1v6H20v1H19v1H18v1H17v3h2v1h2v1h1v1h1v6h6V0H0Z"/><path class="oa236-2" d="M23,27H22v6h1V27Z"/><rect class="oa236-2" x="21" y="26" width="1" height="1"/><path class="oa236-3" d="M21,31v1h1V30H21Z"/><path class="oa236-3" d="M21,28h1V27H21Z"/><path class="oa236-2" d="M21,31V27H20v6h1V31Z"/><path class="oa236-3" d="M19,31V30H18v2h1v1h1V31Z"/><path class="oa236-3" d="M18,26v2h1v1h1V27H19V25H18Z"/><path class="oa236-2" d="M20,26h1V25H19v1Z"/><path class="oa236-2" d="M18,31V25h1V24H17v1H16v1h1v7h1V31Z"/><path class="oa236-4" d="M17,26H16v1H13V26H12v7h5V26Z"/><path class="oa236-2" d="M13,26v1h3V26H13Z"/><path class="oa236-2" d="M13,23h3v1h1V21H16v1H13V21H12v3h1Z"/><path class="oa236-5" d="M13,25v1h3V25h1V24H16V23H13v1H12v1Z"/><path class="oa236-2" d="M12,26h1V25H12V24H10v1h1v8h1V26Z"/><path class="oa236-3" d="M10,31V30H9v2h1v1h1V31Z"/><path class="oa236-3" d="M10,26H9v2h1v1h1V27H10Z"/><path class="oa236-2" d="M10,26V25H8v1h2Z"/><path class="oa236-2" d="M9,31V27H8v6H9V31Z"/><rect class="oa236-2" x="7" y="26" width="1" height="1"/><path class="oa236-3" d="M7,31v2H8V31Z"/><path class="oa236-3" d="M8,29V27H7v2Z"/><path class="oa236-2" d="M7,30V27H6v6H7V30Z"/><path class="oa236-6" d="M21,29v1h1V28H21Z"/><path class="oa236-6" d="M21,32v1h1V32Z"/><path class="oa236-6" d="M19,26v1h2V26H19Z"/><path class="oa236-6" d="M19,28H18v2h1v1h1V29H19Z"/><path class="oa236-6" d="M18,32v1h1V32Z"/><path class="oa236-6" d="M10,27h1V25H10v2Z"/><path class="oa236-6" d="M10,28H9v2h1v1h1V29H10Z"/><path class="oa236-6" d="M9,32v1h1V32Z"/><path class="oa236-6" d="M9,27V26H8v1Z"/><path class="oa236-6" d="M7,30v1H8V29H7Z"/><rect class="oa236-5" x="9" y="15" width="1" height="1"/><path class="oa236-5" d="M13,22h3V21h1V20h1V19h1V16H18v1H16V16H15v1H14V16H13v1H11V16H10v3h1v1h1v1h1Zm-1-3V18h5v1H16v1H13V19Z"/><rect class="oa236-5" x="10" y="13" width="1" height="1"/><rect class="oa236-5" x="14" y="15" width="1" height="1"/><rect class="oa236-5" x="19" y="15" width="1" height="1"/><path class="oa236-5" d="M13,13v1h3V12H15V11H13V10H11v1H10v1h3Z"/><path class="oa236-2" d="M19,16v3h1V16Z"/><rect class="oa236-2" x="18" y="19" width="1" height="1"/><rect class="oa236-2" x="17" y="20" width="1" height="1"/><rect class="oa236-2" x="11" y="20" width="1" height="1"/><rect class="oa236-2" x="10" y="19" width="1" height="1"/><path class="oa236-2" d="M10,16H9v3h1V16Z"/><rect class="oa236-2" x="8" y="15" width="1" height="1"/><rect class="oa236-2" x="14" y="16" width="1" height="1"/><path class="oa236-7" d="M12,13h1V12H10v1h2Z"/><path class="oa236-2" d="M13,18H12v1h1Z"/><path class="oa236-2" d="M17,19V18H16v1Z"/><path class="oa236-2" d="M15,20h1V19H15Z"/><path class="oa236-2" d="M15,19V18H14v1Z"/><path class="oa236-2" d="M13,19v1h1V19Z"/><path class="oa236-8" d="M14,19V18H13v1Z"/><path class="oa236-8" d="M16,19V18H15v1Z"/><path class="oa236-9" d="M14,19v1h1V19Z"/><path class="oa236-10" d="M10,14V11h1V10h2v1h2v1h1v1h2v1h1v1h1v3h1V12H20V10H19V9H18V8H11V9H10v1H9v5h1Z"/><path class="oa236-11" d="M12,13H11v1h2V13Z"/><path class="oa236-11" d="M11,17h2V16H11Z"/><path class="oa236-11" d="M10,14v2h1V14Z"/><path class="oa236-2" d="M11,14v2h2V14Z"/><path class="oa236-11" d="M19,14H18v2h1V14Z"/><path class="oa236-11" d="M17,14h1V13H16v1Z"/><path class="oa236-11" d="M16,17h2V16H16Z"/><path class="oa236-11" d="M13,14v2h1V15h1v1h1V14Z"/><path class="oa236-2" d="M17,14H16v2h2V14Z"/></svg>