<svg xmlns="http://www.w3.org/2000/svg" viewBox="0 0 29 33"><defs><style>polygon,rect,path{shape-rendering:crispedges;}.ma71-1{fill:#6b4f99;}.ma71-2{fill:#000000;}.ma71-3{fill:#cc2f76;}.ma71-4{fill:#9e6969;}.ma71-5{fill:#b2622b;}.ma71-6{fill:#ffffff;}.ma71-7{fill:#9b8100;}.ma71-8{fill:#9b8100;}.ma71-9{fill:#6c9302;}</style></defs><path class="ma71-1" d="M0,33H6V27H7V26H8V25h2V24h2V21H11V20H10V19H9V16H8V15H9V10h1V9h1V8h1V9h1V8h3V7h1V8h2V9h1v1H19v1h1v4h1v1H20v3H19v1H18v1H17v3h2v1h2v1h1v1h1v6h6V0H0Z"/><rect class="ma71-1" x="16" y="8" width="1" height="1"/><path class="ma71-2" d="M23,27H22v6h1V27Z"/><rect class="ma71-2" x="21" y="26" width="1" height="1"/><path class="ma71-3" d="M22,27H21v6h1V27Z"/><path class="ma71-2" d="M21,27H20v6h1V27Z"/><path class="ma71-3" d="M20,27h1V26H19V25H18v8h2V27Z"/><path class="ma71-2" d="M20,26h1V25H19v1Z"/><path class="ma71-2" d="M18,25h1V24H17v1H16v1h1v7h1V25Z"/><path class="ma71-4" d="M17,26H16v1H13V26H12v7h5V26Z"/><path class="ma71-2" d="M13,26v1h3V26H13Z"/><path class="ma71-2" d="M13,23h3v1h1V21H16v1H13V21H12v3h1Z"/><path class="ma71-5" d="M13,25v1h3V25h1V24H16V23H13v1H12v1Z"/><path class="ma71-2" d="M12,26h1V25H12V24H10v1h1v8h1V26Z"/><path class="ma71-3" d="M11,25H10v1H8v1H9v6h2V25Z"/><path class="ma71-2" d="M10,25H8v1h2Z"/><path class="ma71-2" d="M9,27H8v6H9V27Z"/><rect class="ma71-2" x="7" y="26" width="1" height="1"/><path class="ma71-3" d="M8,27H7v6H8V27Z"/><path class="ma71-2" d="M7,27H6v6H7V27Z"/><rect class="ma71-2" x="20" y="15" width="1" height="1"/><path class="ma71-2" d="M19,15h1V14H19Z"/><path class="ma71-5" d="M13,20v2h3V20Z"/><path class="ma71-5" d="M12,19V18h5v2h1V19h1V16h1V15H16V14h3V13H16V12h2V11H13V10H12v1H11v1h2v1H10v1h3v1H9v1h1v3h1v1h1Zm2-3h1v1H14Z"/><path class="ma71-2" d="M19,17v2h1V16H19Z"/><rect class="ma71-2" x="18" y="19" width="1" height="1"/><rect class="ma71-2" x="17" y="20" width="1" height="1"/><rect class="ma71-2" x="11" y="20" width="1" height="1"/><rect class="ma71-2" x="10" y="19" width="1" height="1"/><path class="ma71-2" d="M10,16H9v3h1V16Z"/><rect class="ma71-2" x="8" y="15" width="1" height="1"/><rect class="ma71-2" x="14" y="16" width="1" height="1"/><path class="ma71-6" d="M13,15V14H12v1Z"/><path class="ma71-6" d="M11,15V14H10v1Z"/><path class="ma71-6" d="M18,14v1h1V14Z"/><path class="ma71-6" d="M16,14v1h1V14Z"/><path class="ma71-2" d="M12,15V14H11v1Z"/><path class="ma71-2" d="M17,14v1h1V14Z"/><path class="ma71-7" d="M10,13h3V12H10Z"/><polygon class="ma71-7" points="18 12 16 12 16 13 19 13 19 12 18 12"/><path class="ma71-8" d="M17,19V18H13v1h3v2h1V19Z"/><path class="ma71-8" d="M13,20V19H12v2h1Z"/><path class="ma71-2" d="M16,19H13v1h3Z"/><path class="ma71-2" d="M12,18v1h1V18Z"/><path class="ma71-9" d="M10,14V12h1V11h1V10h1v1h5v1h1v2h1V11H19V10h1V9H19V8H17V9H16V8H13V9H12V8H11V9H10v1H9v5h1Z"/><rect class="ma71-9" x="16" y="7" width="1" height="1"/></svg>