<svg xmlns="http://www.w3.org/2000/svg" viewBox="0 0 29 33"><defs><style>polygon,rect,path{shape-rendering:crispedges;}.aa280-1{fill:#397d98;}.aa280-2{fill:#000000;}.aa280-3{fill:#ce8452;}.aa280-4{fill:#5a2de2;}.aa280-5{fill:#4922aa;}.aa280-6{fill:#fad000;}.aa280-7{fill:#4922aa;}.aa280-8{fill:#b23b00;}.aa280-9{fill:#ffffff;}.aa280-10{fill:#0068ff;}.aa280-11{fill:#ff1f4a;}</style></defs><path class="aa280-1" d="M0,33H6V27H7V26H8V25h2V23h1V21H10V20H9V16H8V14H9V12H8v1H7V12H8V11H9V10h1V9h2V8h5V9h2v1h1v1h1v1h1v1H21V12H20v2h1v2H20v4H19v1H18v2h1v2h2v1h1v1h1v6h6V0H0Z"/><path class="aa280-2" d="M23,31V27H22v6h1Z"/><rect class="aa280-2" x="21" y="26" width="1" height="1"/><path class="aa280-3" d="M22,31V27H21v6h1Z"/><rect class="aa280-3" x="20" y="26" width="1" height="1"/><path class="aa280-2" d="M21,31V27H20v6h1Z"/><path class="aa280-2" d="M20,26h1V25H19v1Z"/><path class="aa280-4" d="M20,31V26H19V25H18v1H17v1H16v2H15v1H14V29H13V27H12V26H11V25H10v1H9v7H20Z"/><path class="aa280-3" d="M13,25h1V24h1v1h1V23H13Z"/><path class="aa280-2" d="M10,26V25H8v1Z"/><rect class="aa280-3" x="8" y="26" width="1" height="1"/><path class="aa280-2" d="M9,31V27H8v6H9Z"/><rect class="aa280-2" x="7" y="26" width="1" height="1"/><path class="aa280-3" d="M8,31V27H7v6H8Z"/><path class="aa280-2" d="M7,31V27H6v6H7Z"/><rect class="aa280-2" x="20" y="15" width="1" height="1"/><path class="aa280-3" d="M17,16H15v1H14V16H10v1h1v1h5v1h1V18h1V17h1V16Z"/><path class="aa280-3" d="M16,12H15V11H14v1H13v1h1v1h1V13h2V12Z"/><rect class="aa280-3" x="14" y="15" width="1" height="1"/><rect class="aa280-2" x="8" y="15" width="1" height="1"/><rect class="aa280-2" x="14" y="16" width="1" height="1"/><rect class="aa280-5" x="12" y="12" width="1" height="1"/><rect class="aa280-2" x="14" y="29" width="1" height="1"/><rect class="aa280-2" x="12" y="26" width="1" height="1"/><path class="aa280-2" d="M15,28v1h1V27H15Z"/><rect class="aa280-2" x="16" y="26" width="1" height="1"/><path class="aa280-2" d="M14,27H13v2h1Z"/><rect class="aa280-2" x="17" y="25" width="1" height="1"/><rect class="aa280-2" x="11" y="25" width="1" height="1"/><rect class="aa280-2" x="14" y="24" width="1" height="1"/><rect class="aa280-2" x="13" y="25" width="1" height="1"/><rect class="aa280-2" x="15" y="25" width="1" height="1"/><path class="aa280-2" d="M16,25h1V23H16Z"/><path class="aa280-2" d="M13,24V23H12v2h1Z"/><rect class="aa280-6" x="16" y="25" width="1" height="1"/><path class="aa280-6" d="M15,26V25H14v1H13v1h1v2h1V27h1V26Z"/><rect class="aa280-6" x="12" y="25" width="1" height="1"/><path class="aa280-6" d="M11,25h1V23H11Z"/><path class="aa280-6" d="M17,24v1h1V23H17Z"/><path class="aa280-2" d="M18,25h1V23H18Z"/><path class="aa280-2" d="M11,24V23H10v2h1Z"/><rect class="aa280-2" x="17" y="22" width="1" height="1"/><rect class="aa280-2" x="11" y="22" width="1" height="1"/><path class="aa280-7" d="M15,18H13v1h3V18Z"/><path class="aa280-7" d="M12,23h5V22h1V21h1V20h1V16H19v1H18v1H17v1H16v1H13V19H12V18H11V17H10V16H9v4h1v1h1v1h1Z"/><rect class="aa280-2" x="13" y="19" width="3" height="1"/><rect class="aa280-2" x="12" y="18" width="1" height="1"/><rect class="aa280-8" x="21" y="12" width="1" height="1"/><path class="aa280-8" d="M11,13h1V12h2V11h1v1h2v1h3V12h1V11H20V10H19V9H17V8H12V9H10v1H9v1H8v1H9v1Z"/><rect class="aa280-8" x="20" y="14" width="1" height="1"/><rect class="aa280-8" x="8" y="14" width="1" height="1"/><rect class="aa280-8" x="7" y="12" width="1" height="1"/><path class="aa280-9" d="M11,16h3V15h1v1h5V13H15v1H14V13H9v3Zm5-2h3v1H16Zm-6,0h3v1H10Z"/><path class="aa280-10" d="M18,15h1V14H16v1Z"/><path class="aa280-11" d="M12,15h1V14H10v1Z"/></svg>