<svg xmlns="http://www.w3.org/2000/svg" viewBox="0 0 29 33"><defs><style>polygon,rect,path{shape-rendering:crispedges;}.ja96-1{fill:#29834f;}.ja96-2{fill:#000000;}.ja96-3{fill:#34e0cb;}.ja96-4{fill:#b2622b;}.ja96-5{fill:#ffffff;}.ja96-6{fill:#66334f;}.ja96-7{fill:#66334f;}.ja96-8{fill:#5a2de2;}</style></defs><path class="ja96-1" d="M0,33H6V27H7V26H8V25h2V24h2V22H11V21H10V20H9V16H8V15H9V11h1V10h1V9h7v1h2v5h1v1H20v4H19v1H18v1H17v2h2v1h2v1h1v1h1v6h6V0H0Z"/><path class="ja96-2" d="M23,27H22v6h1V27Z"/><rect class="ja96-2" x="21" y="26" width="1" height="1"/><path class="ja96-3" d="M22,27H21v6h1V27Z"/><path class="ja96-2" d="M21,27H20v6h1V27Z"/><path class="ja96-2" d="M20,26h1V25H19v1Z"/><path class="ja96-3" d="M20,27h1V26H19V25H17V24H16V23H13v1H12v1H10v1H8v1H9v6H20V27Z"/><path class="ja96-2" d="M18,25h1V24H17v1Z"/><path class="ja96-2" d="M13,23V22H12v2h1Z"/><path class="ja96-2" d="M12,24H10v1h2Z"/><path class="ja96-2" d="M10,25H8v1h2Z"/><path class="ja96-2" d="M9,27H8v6H9V27Z"/><rect class="ja96-2" x="7" y="26" width="1" height="1"/><path class="ja96-3" d="M8,27H7v6H8V27Z"/><path class="ja96-2" d="M7,27H6v6H7V27Z"/><rect class="ja96-2" x="20" y="15" width="1" height="1"/><path class="ja96-2" d="M19,13v2h1V12H19Z"/><rect class="ja96-4" x="11" y="10" width="1" height="1"/><rect class="ja96-4" x="9" y="15" width="1" height="1"/><rect class="ja96-4" x="17" y="10" width="1" height="1"/><rect class="ja96-4" x="13" y="20" width="1" height="1"/><rect class="ja96-4" x="15" y="20" width="1" height="1"/><path class="ja96-4" d="M10,13h1V11H10v2Z"/><path class="ja96-4" d="M18,14V13H16v1h2Z"/><rect class="ja96-4" x="18" y="12" width="1" height="1"/><path class="ja96-4" d="M16,13V12h1V11H16V10H13v1H12v1h1v1H11v1h3V13Z"/><path class="ja96-4" d="M18,15H16V14H14v2h1v1H14V16H13v1H11V16H10v2h1v1h1V18h2v1h1V18h2v1h1V18h1V16h1V15H18Z"/><path class="ja96-2" d="M16,23v1h1V22H16Z"/><rect class="ja96-2" x="8" y="15" width="1" height="1"/><rect class="ja96-2" x="14" y="16" width="1" height="1"/><path class="ja96-5" d="M18,15h1V14H18Z"/><path class="ja96-5" d="M16,14v1h1V14Z"/><path class="ja96-2" d="M17,14v1h1V14Z"/><path class="ja96-6" d="M18,14h1V13H18Z"/><rect class="ja96-6" x="10" y="13" width="1" height="1"/><path class="ja96-6" d="M13,12H11v1h2Z"/><path class="ja96-7" d="M15,18v1h1V18Z"/><path class="ja96-7" d="M13,23h3V22h2V21h1V20h1V16H19v2H18v1H16v2H15V20H14v1H13V19h1V18H12v1H11V18H10V16H9v4h1v1h1v1h2Z"/><path class="ja96-2" d="M14,19H13v1h3V19H14Z"/><path class="ja96-2" d="M16,18v1h1V18Z"/><path class="ja96-8" d="M19,12h1V11H19Z"/><path class="ja96-8" d="M19,11V10H18v1Z"/><path class="ja96-8" d="M12,11h1V10h3v1h1V10h1V9H11v1h1Z"/><rect class="ja96-8" x="17" y="11" width="1" height="1"/><path class="ja96-8" d="M12,11H11v1h1Z"/><rect class="ja96-8" x="10" y="10" width="1" height="1"/><path class="ja96-8" d="M10,11H9v1h1Z"/><path class="ja96-2" d="M10,16h1v1h2V16h1V14H10V12H9v3h1Z"/><rect class="ja96-2" x="14" y="13" width="2" height="1"/><polygon class="ja96-2" points="18 12 17 12 16 12 16 13 18 13 18 12"/><rect class="ja96-2" x="18" y="11" width="1" height="1"/><path class="ja96-2" d="M20,11V10H19v1Z"/></svg>