<svg xmlns="http://www.w3.org/2000/svg" viewBox="0 0 29 33"><defs><style>polygon,rect,path{shape-rendering:crispedges;}.va84-1{fill:#7a982c;}.va84-2{fill:#000000;}.va84-3{fill:#68aaad;}.va84-4{fill:#efcaaf;}.va84-5{fill:#ffffff;}.va84-6{fill:#8e4717;}.va84-7{fill:#8e4717;}.va84-8{fill:#ff791f;}.va84-9{fill:#ffffff;}</style></defs><path class="va84-1" d="M0,33H6V27H7V26H8V25h2V22h1V21H10V20H9V16H8V15H9V10h1V9h1V8h7V9h1v1h1v5h1v1H20v4H19v1h3v4h1v8h6V0H0Z"/><rect class="va84-1" x="18" y="21" width="1" height="1"/><path class="va84-2" d="M23,25H22v8h1V25Z"/><path class="va84-2" d="M7,30V27H6v6H7V30Z"/><rect class="va84-2" x="7" y="26" width="1" height="1"/><path class="va84-3" d="M7,31v2H8V31Z"/><path class="va84-3" d="M7,30H8V27H7v3Z"/><path class="va84-2" d="M21,31V26H20v5H14V27H13v4H9V27H8v6H9V32H20v1h1V31Z"/><path class="va84-2" d="M10,26V25H8v1h2Z"/><path class="va84-3" d="M13,32H10v1h4V32Z"/><path class="va84-3" d="M18,32H15v1h4V32Z"/><path class="va84-2" d="M11,24V22H10v3h1Z"/><path class="va84-3" d="M12,23V22H11v1Z"/><path class="va84-3" d="M9,26v5h3V30h1V27H12V26h1v1h1V25H13V24H11v1H10v1Zm2,2v1H10V28Z"/><rect class="va84-2" x="13" y="24" width="1" height="1"/><path class="va84-2" d="M15,26V25H14v2h1Z"/><path class="va84-4" d="M15,24h1V23H13v1h1v1h1Z"/><rect class="va84-2" x="15" y="24" width="1" height="1"/><path class="va84-2" d="M18,24v1h1V22H18v2Z"/><path class="va84-3" d="M19,25H18V24H16v1H15v2H14v1h1v1H14v2h2V30h1v1h3V26H19Zm-2,2H16V26h1Zm2,2H18V28h1Z"/><path class="va84-3" d="M18,22H17v1h1Z"/><path class="va84-3" d="M21,32v1h1V32Z"/><path class="va84-3" d="M21,29v2h1V28H21Z"/><rect class="va84-2" x="20" y="15" width="1" height="1"/><path class="va84-4" d="M16,13V12h2v1h1V11H18V10H17v1H16V10H15v1H12V10H11v1H10v2h1V12h2v1H11v1h7V13Z"/><rect class="va84-4" x="9" y="15" width="1" height="1"/><rect class="va84-4" x="19" y="15" width="1" height="1"/><path class="va84-4" d="M18,20V18h1V16H18v1H16V16H15v1H14V16H13v1H11V16H10v2h1v2h1v1h1v1h3V21h1V20Zm-2,0H13V19H12V18h1v1h3Z"/><rect class="va84-4" x="14" y="15" width="1" height="1"/><path class="va84-2" d="M19,17h1V16H19Z"/><path class="va84-2" d="M12,23v1h1V23h3v1h1V22h1V21H16v1H13V21H11v1h1Z"/><path class="va84-2" d="M10,16H9v1h1Z"/><rect class="va84-2" x="8" y="15" width="1" height="1"/><rect class="va84-2" x="14" y="16" width="1" height="1"/><rect class="va84-5" x="10" y="28" width="1" height="1"/><path class="va84-5" d="M12,31h1V30H12Z"/><path class="va84-5" d="M15,28H14v1h1Z"/><path class="va84-5" d="M14,32v1h1V32Z"/><rect class="va84-5" x="12" y="26" width="1" height="1"/><path class="va84-5" d="M16,30v1h1V30Z"/><rect class="va84-5" x="18" y="28" width="1" height="1"/><path class="va84-5" d="M21,28h1V27H21Z"/><rect class="va84-5" x="16" y="26" width="1" height="1"/><path class="va84-5" d="M9,27V26H8v1Z"/><path class="va84-5" d="M19,32v1h1V32Z"/><path class="va84-5" d="M9,32v1h1V32Z"/><path class="va84-5" d="M7,31H8V30H7Z"/><path class="va84-5" d="M21,32h1V31H21Z"/><path class="va84-5" d="M11,23v1h1V23Z"/><path class="va84-5" d="M18,23H17v1h1Z"/><rect class="va84-6" x="18" y="13" width="1" height="1"/><rect class="va84-6" x="16" y="12" width="2" height="1"/><rect class="va84-6" x="10" y="13" width="1" height="1"/><rect class="va84-6" x="11" y="12" width="2" height="1"/><path class="va84-7" d="M19,18H18v2H17v1h2V20h1V17H19Z"/><path class="va84-7" d="M12,20H11V18H10V17H9v3h1v1h2Z"/><rect class="va84-2" x="13" y="19" width="3" height="1"/><rect class="va84-2" x="12" y="18" width="1" height="1"/><path class="va84-8" d="M10,13V11h1V10h1v1h3V10h1v1h1V10h1v1h1v3h1V10H19V9H18V8H11V9H10v1H9v4h1Z"/><path class="va84-2" d="M10,16h1v1h2V16h1V15h1v1h1v1h2V16h1V15h1V14H9v1h1Z"/><rect class="va84-2" x="20" y="22" width="1" height="1"/><path class="va84-9" d="M19,23v3h1V25h2V21H19v2Zm1-1h1v1H20Z"/><path class="va84-4" d="M20,26h1v1h1V25H20Z"/></svg>