<svg xmlns="http://www.w3.org/2000/svg" viewBox="0 0 29 33"><defs><style>polygon,rect,path{shape-rendering:crispedges;}.ha156-1{fill:#7a982c;}.ha156-2{fill:#000000;}.ha156-3{fill:#db5800;}.ha156-4{fill:#e8b795;}.ha156-5{fill:#72dd40;}.ha156-6{fill:#893a1f;}.ha156-7{fill:#ffffff;}.ha156-8{fill:#893a1f;}.ha156-9{fill:#c8a715;}.ha156-10{fill:#5a2de2;}</style></defs><path class="ha156-1" d="M0,33H6V27H7V26H8V25h2V20H9V17H8V15H7V14H8V12H7V10H8v1H9V9H8V8h2V9h1V8h1V7h1V8h1V7h2V8h1V7h1V8h1V7h1V8H19V9H18v1h2V9h1v2H20v1h2v1H20v1h2v1H21v2H20v3H19v5h2v1h1v1h1v6h6V0H0Z"/><path class="ha156-1" d="M12,22H11v2h1V22Z"/><path class="ha156-1" d="M18,24V22H17v2Z"/><path class="ha156-2" d="M23,27H22v6h1V27Z"/><rect class="ha156-2" x="21" y="26" width="1" height="1"/><path class="ha156-3" d="M22,27H21v6h1V27Z"/><path class="ha156-2" d="M21,27H20v6h1V27Z"/><path class="ha156-2" d="M20,26h1V25H19v1Z"/><rect class="ha156-3" x="12" y="30" width="1" height="1"/><path class="ha156-3" d="M20,27h1V26H19V25H17v1H16v1H13V26H12V25H10v1H9v7h1V30h1V29h1V28h5v1h1v1h1v3h1V27Z"/><rect class="ha156-3" x="16" y="30" width="1" height="1"/><path class="ha156-3" d="M16,32H12v1h5V32Z"/><path class="ha156-2" d="M17,24v1h2V24H17Z"/><rect class="ha156-2" x="16" y="25" width="1" height="1"/><path class="ha156-2" d="M13,26v1h3V26H13Z"/><path class="ha156-4" d="M16,24V23H13v3h3V24Z"/><path class="ha156-2" d="M12,25v1h1V25Z"/><path class="ha156-2" d="M12,24H10v1h2Z"/><path class="ha156-2" d="M9,26h1V25H8v1H7v1H8v6H9V26Z"/><path class="ha156-3" d="M8,27H7v6H8V27Z"/><path class="ha156-2" d="M7,27H6v6H7V27Z"/><path class="ha156-5" d="M19,30H18V29H17V28H12v1H11v1H10v3h2V32h5v1h2V30Zm-6,1H12V30h1Zm4,0H16V30h1Z"/><path class="ha156-4" d="M14,20V19H13v2h1v1h1V21h1V19H15v1Z"/><rect class="ha156-4" x="15" y="10" width="1" height="1"/><path class="ha156-4" d="M20,16V15H19V13H17v1h1v1H16v1H15v1H14V16H13V15H11V14H10v1H9v1h1v2h1v1h1V18h2v1h1V18h2v1h1V18h1V16Z"/><path class="ha156-2" d="M19,16v1h1V16Z"/><rect class="ha156-2" x="9" y="13" width="1" height="1"/><path class="ha156-2" d="M10,16H9v1h1Z"/><path class="ha156-6" d="M18,15V14H17v1Z"/><rect class="ha156-6" x="16" y="13" width="1" height="1"/><rect class="ha156-2" x="14" y="14" width="1" height="1"/><path class="ha156-7" d="M13,15v1h3V15h1V14H16V13H13v1H12v1Zm1-1h1v1H14Z"/><path class="ha156-6" d="M16,12H14v1h2Z"/><rect class="ha156-6" x="12" y="13" width="1" height="1"/><path class="ha156-6" d="M12,15V14H11v1Z"/><path class="ha156-2" d="M14,17h1V16H14Z"/><path class="ha156-4" d="M13,12H12V11H11v2h2Z"/><rect class="ha156-4" x="16" y="12" width="1" height="1"/><path class="ha156-8" d="M12,22v1h5V22h2V20h1V17H19v1H18v1H17V18H15v1h1v2H15v1H14V21H13V19h1V18H12v1H11V18H10V17H9v3h1v2h2Z"/><path class="ha156-9" d="M18,23h1V22H18Z"/><path class="ha156-8" d="M18,24h1V23H18Z"/><path class="ha156-9" d="M17,24V23H16v1Z"/><path class="ha156-8" d="M16,24v1h1V24Z"/><path class="ha156-9" d="M13,23H12v1h1Z"/><path class="ha156-8" d="M13,24H12v1h1Z"/><path class="ha156-9" d="M11,22H10v1h1Z"/><path class="ha156-8" d="M11,23H10v1h1Z"/><rect class="ha156-2" x="14" y="19" width="1" height="1"/><path class="ha156-10" d="M9,15h1V14H9V13h1v1h2V13H11V11h1v1h1v1h1V12h3v1h2v2h1v2h1V15h1V14H20V13h2V12H20V11h1V9H20v1H18V9h1V8H18V7H17V8H16V7H14V8H13V7H12V8H11V9H10V8H8V9H9v2H8V10H7v2H8v2H7v1H8v2H9V15Zm6-5h1v1H15Z"/><rect class="ha156-10" x="19" y="7" width="1" height="1"/></svg>