<svg xmlns="http://www.w3.org/2000/svg" viewBox="0 0 29 33"><defs><style>polygon,rect,path{shape-rendering:crispedges;}.aa198-1{fill:#d4a122;}.aa198-2{fill:#000000;}.aa198-3{fill:#ce8452;}.aa198-4{fill:#4922aa;}.aa198-5{fill:#ffffff;}.aa198-6{fill:#b18518;}</style></defs><path class="aa198-1" d="M0,33H6V27H7V26H8V25h2V24h2V21H11V20H10V19H9V16H8V15H9V14H8V13H4V12H6V11H8V10h2V9h1V8h1V7h1V6h1V5h1V6h1V7h1V8h1V9h1v1h2v1h2v1h2v1H21v1H20v1h1v1H20v3H19v1H18v1H17v3h2v1h2v1h1v1h1v6h6V0H0Z"/><path class="aa198-2" d="M23,31V27H22v6h1Z"/><rect class="aa198-2" x="21" y="26" width="1" height="1"/><path class="aa198-3" d="M22,31V27H21v6h1Z"/><rect class="aa198-3" x="20" y="26" width="1" height="1"/><path class="aa198-2" d="M21,31V27H20v6h1Z"/><path class="aa198-2" d="M20,26h1V25H19v1Z"/><path class="aa198-4" d="M20,31V26H19V25H18v1H17v1H16v1H13V27H12V26H11V25H10v1H9v7H20Z"/><path class="aa198-2" d="M17,26h1V25h1V24H17Z"/><rect class="aa198-2" x="16" y="26" width="1" height="1"/><path class="aa198-2" d="M14,27H13v1h3V27Z"/><path class="aa198-2" d="M13,23h3v1h1V21H16v1H13V21H12v3h1Z"/><path class="aa198-3" d="M12,26h1v1h3V26h1V24H16V23H13v1H12Z"/><rect class="aa198-2" x="12" y="26" width="1" height="1"/><path class="aa198-2" d="M11,26h1V24H10v1h1Z"/><path class="aa198-2" d="M10,26V25H8v1Z"/><rect class="aa198-3" x="8" y="26" width="1" height="1"/><path class="aa198-2" d="M9,31V27H8v6H9Z"/><rect class="aa198-2" x="7" y="26" width="1" height="1"/><path class="aa198-3" d="M8,31V27H7v6H8Z"/><path class="aa198-2" d="M7,31V27H6v6H7Z"/><rect class="aa198-2" x="20" y="15" width="1" height="1"/><rect class="aa198-2" x="19" y="14" width="1" height="1"/><path class="aa198-3" d="M13,22h3V21h1V20h1V19h1V16h1V15H16V14H13v1H9v1h1v3h1v1h1v1h1Zm1-6h1v1H14Zm-1,3h3V18h1v1H16v1H13Z"/><path class="aa198-2" d="M19,17v2h1V16H19Z"/><rect class="aa198-2" x="18" y="19" width="1" height="1"/><rect class="aa198-2" x="17" y="20" width="1" height="1"/><rect class="aa198-2" x="11" y="20" width="1" height="1"/><rect class="aa198-2" x="10" y="19" width="1" height="1"/><rect class="aa198-2" x="9" y="14" width="1" height="1"/><path class="aa198-2" d="M10,17V16H9v3h1Z"/><rect class="aa198-2" x="8" y="15" width="1" height="1"/><rect class="aa198-2" x="14" y="16" width="1" height="1"/><rect class="aa198-5" x="12" y="14" width="1" height="1"/><rect class="aa198-5" x="10" y="14" width="1" height="1"/><rect class="aa198-5" x="18" y="14" width="1" height="1"/><rect class="aa198-5" x="16" y="14" width="1" height="1"/><rect class="aa198-2" x="11" y="14" width="1" height="1"/><rect class="aa198-2" x="17" y="14" width="1" height="1"/><rect class="aa198-2" x="13" y="19" width="3" height="1"/><rect class="aa198-2" x="16" y="18" width="1" height="1"/><path class="aa198-6" d="M11,14H21V13h4V12H23V11H21V10H19V9H18V8H17V7H16V6H15V5H14V6H13V7H12V8H11V9H10v1H8v1H6v1H4v1H8v1Z"/></svg>