<svg xmlns="http://www.w3.org/2000/svg" viewBox="0 0 29 33"><defs><style>polygon,rect,path{shape-rendering:crispedges;}.za59-1{fill:#29834f;}.za59-2{fill:#000000;}.za59-3{fill:#333333;}.za59-4{fill:#e8b795;}.za59-5{fill:#990000;}.za59-6{fill:#ffffff;}.za59-7{fill:#473a35;}.za59-8{fill:#473a35;}.za59-9{fill:#99ce09;}</style></defs><path class="za59-1" d="M6,32V27H7V26H8V25h2V24h1V23h1V21H11V20H9V18H8V12H9V11h1V10h1V9h7v1h1v1h1v2h1v5H20v2H18v1H17v2h1v1h1v1h2v1h1v1h1v6h6V0H0V33H6Z"/><path class="za59-2" d="M23,27H22v6h1V27Z"/><path class="za59-3" d="M21,28v2h1V27H21Z"/><path class="za59-3" d="M21,31v2h1V31Z"/><rect class="za59-2" x="21" y="26" width="1" height="1"/><path class="za59-2" d="M21,30V27H20v6h1V30Z"/><path class="za59-3" d="M20,32V26H19V25H18v1H17v1H16V25H15v2H14V25H13v2H12V26H11V25H10v1H9v6h1v1h4V32h1v1h4V32Zm-9-3H10V28h1Zm2,2H12V30h1Zm2,0H14V30h1Zm0-2H14V28h1Zm2,2H16V30h1Zm1-2V28h1v1Z"/><path class="za59-2" d="M20,26h1V25H19v1Z"/><rect class="za59-3" x="16" y="24" width="1" height="1"/><rect class="za59-2" x="15" y="24" width="1" height="1"/><rect class="za59-2" x="14" y="32" width="1" height="1"/><rect class="za59-2" x="14" y="30" width="1" height="1"/><rect class="za59-2" x="14" y="28" width="1" height="1"/><path class="za59-2" d="M14,26v1h1V25H14Z"/><rect class="za59-2" x="13" y="24" width="1" height="1"/><path class="za59-4" d="M16,24V23H13v1h1v1h1V24Z"/><rect class="za59-3" x="12" y="24" width="1" height="1"/><path class="za59-2" d="M11,26h2V25H12V24h1V23h3v1h1v1H16v1h2V25h1V24H18V23H17V21H16v1H13V21H12v2H11v1H10v1h1Z"/><path class="za59-2" d="M10,26V25H8v1h2Z"/><path class="za59-2" d="M9,31V27H8v6H9V31Z"/><path class="za59-3" d="M7,30H8V27H7v3Z"/><path class="za59-3" d="M7,31v2H8V31Z"/><rect class="za59-2" x="7" y="26" width="1" height="1"/><path class="za59-2" d="M7,30V27H6v6H7V30Z"/><rect class="za59-5" x="10" y="28" width="1" height="1"/><rect class="za59-5" x="12" y="30" width="1" height="1"/><path class="za59-5" d="M12,27h1V26H12Z"/><rect class="za59-5" x="16" y="30" width="1" height="1"/><rect class="za59-5" x="18" y="28" width="1" height="1"/><path class="za59-5" d="M16,27h1V26H16Z"/><path class="za59-5" d="M9,27V26H8v1Z"/><path class="za59-5" d="M19,32v1h1V32Z"/><path class="za59-5" d="M9,32v1h1V32Z"/><path class="za59-5" d="M7,31H8V30H7Z"/><path class="za59-5" d="M21,31h1V30H21Z"/><path class="za59-5" d="M20,27h1V26H20Z"/><path class="za59-4" d="M12,12V11H11v2h1Z"/><path class="za59-4" d="M18,12H16v1h2Z"/><rect class="za59-4" x="9" y="15" width="1" height="1"/><rect class="za59-4" x="19" y="15" width="1" height="1"/><path class="za59-4" d="M13,22h3V21h1V20h1V19h1V18H18V15H17v2H16V15H15V11H14v1H13v2h1v2h1v1H14V16H13V15H11v3H10v1h1v1h1v1h1Zm-1-3V18h5v1H16v1H13V19Z"/><path class="za59-2" d="M19,16v2h1V16Z"/><path class="za59-2" d="M18,19v1h1V19Z"/><rect class="za59-2" x="17" y="20" width="1" height="1"/><rect class="za59-2" x="11" y="20" width="1" height="1"/><path class="za59-2" d="M10,19v1h1V19Z"/><rect class="za59-2" x="9" y="14" width="1" height="1"/><path class="za59-2" d="M10,17V16H9v2h1Z"/><rect class="za59-2" x="14" y="16" width="1" height="1"/><path class="za59-6" d="M12,15h1V14H12Z"/><path class="za59-2" d="M17,14H16v1h2V14Z"/><path class="za59-2" d="M11,14v1h1V14Z"/><rect class="za59-7" x="11" y="13" width="1" height="1"/><polygon class="za59-7" points="18 14 18 13 16 13 16 14 17 14 18 14"/><path class="za59-8" d="M16,19V18H12v1h4Z"/><path class="za59-2" d="M13,20h3V19H13Z"/><path class="za59-2" d="M17,19V18H16v1Z"/><path class="za59-9" d="M9,15V14h1v4h1V11h1v3h1V12h1V11h1v4h1V12h2v6h1V15h1v3h1V13H20V11H19V10H18V9H11v1H10v1H9v1H8v6H9V15Z"/><path class="za59-9" d="M10,18H9v2h1V18Z"/><path class="za59-9" d="M13,16h1V14H13v2Z"/><path class="za59-9" d="M16,16v1h1V15H16Z"/><path class="za59-9" d="M19,19v1h1V18H19Z"/></svg>