<svg xmlns="http://www.w3.org/2000/svg" viewBox="0 0 29 33"><defs><style>polygon,rect,path{shape-rendering:crispedges;}.na125-1{fill:#d4a122;}.na125-2{fill:#000000;}.na125-3{fill:#b8a4ff;}.na125-4{fill:#00af68;}.na125-5{fill:#c18d59;}.na125-6{fill:#ffffff;}.na125-7{fill:#6c9302;}.na125-8{fill:#66334f;}.na125-9{fill:#f9e100;}</style></defs><path class="na125-1" d="M0,33H6V27H7V26H8V25h2V24h2V21H9V20H8V19H9V18H8V12H9V11h1V10h1V9h7v1h1v1h1v2h1v5H20v1h1v1H20v1H17v3h2v1h2v1h1v1h1v6h6V0H0Z"/><path class="na125-2" d="M23,27H22v6h1V27Z"/><rect class="na125-2" x="21" y="26" width="1" height="1"/><path class="na125-3" d="M22,27H21v6h1V27Z"/><path class="na125-2" d="M21,27H20v6h1V27Z"/><path class="na125-3" d="M20,27h1V26H19V25H18v8h2V27Z"/><path class="na125-2" d="M20,26h1V25H19v1Z"/><path class="na125-2" d="M18,25h1V24H17v1H16v1h1v7h1V25Z"/><path class="na125-4" d="M17,26H16v1H13V26H12v7h5V26Z"/><path class="na125-2" d="M13,26v1h3V26H13Z"/><path class="na125-2" d="M13,23h3v1h1V21H16v1H13V21H12v3h1Z"/><path class="na125-5" d="M13,25v1h3V25h1V24H16V23H13v1H12v1Z"/><path class="na125-2" d="M12,26h1V25H12V24H10v1h1v8h1V26Z"/><path class="na125-3" d="M11,25H10v1H8v1H9v6h2V25Z"/><path class="na125-2" d="M10,25H8v1h2Z"/><path class="na125-2" d="M9,27H8v6H9V27Z"/><rect class="na125-2" x="7" y="26" width="1" height="1"/><path class="na125-3" d="M8,27H7v6H8V27Z"/><path class="na125-2" d="M7,27H6v6H7V27Z"/><path class="na125-5" d="M13,22h3V21h1V19H16v1H13V19h3V18h1v1h1V15H17v2H16V15H15V11H14v1H13v2h1v2h1v1H14V16H13V15H11v4h1v2h1Z"/><rect class="na125-5" x="9" y="15" width="1" height="1"/><rect class="na125-5" x="11" y="11" width="1" height="1"/><rect class="na125-5" x="11" y="13" width="1" height="1"/><path class="na125-5" d="M18,14V13H16v1h2Z"/><rect class="na125-5" x="19" y="15" width="1" height="1"/><path class="na125-2" d="M17,20v1h1V20Z"/><path class="na125-2" d="M11,20v1h1V20Z"/><rect class="na125-2" x="9" y="14" width="1" height="1"/><rect class="na125-2" x="14" y="16" width="1" height="1"/><path class="na125-6" d="M12,15h1V14H12Z"/><path class="na125-2" d="M17,14H16v1h2V14Z"/><path class="na125-2" d="M11,14v1h1V14Z"/><path class="na125-7" d="M18,12H16v1h2Z"/><rect class="na125-7" x="11" y="12" width="1" height="1"/><rect class="na125-8" x="20" y="19" width="1" height="1"/><path class="na125-8" d="M19,16v2h1V16Z"/><path class="na125-8" d="M19,19V18H18v1H17v1h1v1h2V20H19Z"/><rect class="na125-8" x="8" y="19" width="1" height="1"/><path class="na125-8" d="M12,20V19H11V18H10v2H9v1h2V20Z"/><path class="na125-8" d="M10,17V16H9v2h1Z"/><rect class="na125-2" x="13" y="19" width="3" height="1"/><rect class="na125-2" x="16" y="18" width="1" height="1"/><path class="na125-9" d="M9,15V14h1v4h1V11h1v3h1V12h1V11h1v4h1V12h2v6h1V15h1v3h1V13H20V11H19V10H18V9H11v1H10v1H9v1H8v6H9V15Z"/><path class="na125-9" d="M10,19V18H9v2h1Z"/><path class="na125-9" d="M13,16h1V14H13v2Z"/><path class="na125-9" d="M16,16v1h1V15H16Z"/><polygon class="na125-9" points="19 19 19 20 20 20 20 19 20 18 19 18 19 19"/></svg>