<svg xmlns="http://www.w3.org/2000/svg" viewBox="0 0 29 33"><defs><style>polygon,rect,path{shape-rendering:crispedges;}.qa217-1{fill:#6b4f99;}.qa217-2{fill:#000000;}.qa217-3{fill:#9b8100;}.qa217-4{fill:#b2622b;}.qa217-5{fill:#ffffff;}.qa217-6{fill:#ffffff;}.qa217-7{fill:#5e362f;}.qa217-8{fill:#663228;}.qa217-9{fill:#9b8100;}</style></defs><path class="qa217-1" d="M0,33H6V27H7V26H8V25h2V24h1V23H10V22h1V21H10V20H9V16H8V15H9V11h1V9h1V8h7V9h1v1h1v5h1v1H20v4H19v1H18v1h1v1H18v1h1v1h2v1h1v1h1v6h6V0H0Z"/><path class="qa217-2" d="M23,27H22v6h1V27Z"/><path class="qa217-3" d="M22,27H21v6h1V27Z"/><rect class="qa217-2" x="21" y="26" width="1" height="1"/><path class="qa217-2" d="M21,27H20v6h1V27Z"/><path class="qa217-3" d="M10,30h1V29h1V25h1V24H11v1H10v1H8v1H9v6h1V30Z"/><path class="qa217-3" d="M20,27h1V26H19V25H18V24H16v1h1v4h1v1h1v3h1V27Z"/><path class="qa217-2" d="M20,26h1V25H19v1Z"/><rect class="qa217-2" x="18" y="24" width="1" height="1"/><rect class="qa217-2" x="18" y="22" width="1" height="1"/><rect class="qa217-3" x="17" y="22" width="1" height="1"/><path class="qa217-2" d="M13,24v1h3V24H13Z"/><path class="qa217-4" d="M15,23H13v1h3V23Z"/><path class="qa217-2" d="M13,23V22H12v1H11v1h2Z"/><rect class="qa217-3" x="11" y="22" width="1" height="1"/><rect class="qa217-2" x="10" y="24" width="1" height="1"/><rect class="qa217-2" x="10" y="22" width="1" height="1"/><path class="qa217-2" d="M10,25H8v1h2Z"/><path class="qa217-2" d="M9,27H8v6H9V27Z"/><path class="qa217-3" d="M8,27H7v6H8V27Z"/><rect class="qa217-2" x="7" y="26" width="1" height="1"/><path class="qa217-2" d="M7,27H6v6H7V27Z"/><path class="qa217-3" d="M16,32H12v1h5V32Z"/><path class="qa217-3" d="M13,25v3h3V25H13Z"/><rect class="qa217-3" x="16" y="30" width="1" height="1"/><rect class="qa217-3" x="12" y="30" width="1" height="1"/><path class="qa217-5" d="M19,30H18V29H17v2H16V28H13v3H12V29H11v1H10v3h2V32h5v1h2V30Z"/><path class="qa217-2" d="M13,25H12v5h1V25Z"/><path class="qa217-2" d="M16,28v2h1V25H16v3Z"/><rect class="qa217-2" x="20" y="15" width="1" height="1"/><path class="qa217-4" d="M12,12v1h1v3H10v2h1v1h1V18h2v1h1V18h2v1h1V18h1V16H16V14h2V13H15V12H14V11H13V10H11v1H10v1Zm2,4h1v1H14Z"/><path class="qa217-4" d="M12,14V13H10v1h2Z"/><rect class="qa217-4" x="9" y="15" width="1" height="1"/><rect class="qa217-4" x="15" y="20" width="1" height="1"/><rect class="qa217-4" x="19" y="15" width="1" height="1"/><rect class="qa217-4" x="13" y="20" width="1" height="1"/><path class="qa217-2" d="M17,22H16v2h2V23H17Z"/><rect class="qa217-2" x="8" y="15" width="1" height="1"/><rect class="qa217-2" x="14" y="16" width="1" height="1"/><path class="qa217-6" d="M11,15V14H10v2h1Z"/><path class="qa217-6" d="M12,15v1h1V14H12Z"/><path class="qa217-6" d="M16,14v2h1V14Z"/><path class="qa217-6" d="M19,14H18v2h1V14Z"/><path class="qa217-2" d="M12,14H11v2h1V14Z"/><path class="qa217-2" d="M17,14v2h1V14Z"/><path class="qa217-7" d="M13,14V13H12v1Z"/><rect class="qa217-7" x="10" y="12" width="2" height="1"/><path class="qa217-8" d="M15,18v1h1V18Z"/><path class="qa217-8" d="M13,22v1h3V22h2V21h1V20h1V16H19v2H18v1H16v2H15V20H14v1H13V19h1V18H12v1H11V18H10V16H9v4h1v1h1v1h2Z"/><path class="qa217-2" d="M14,19H13v1h3V19H14Z"/><path class="qa217-2" d="M16,18v1h1V18Z"/><path class="qa217-9" d="M11,10h2v1h1v1h1v1h3v1h1v1h1V10H19V9H18V8H11V9H10v2h1Z"/><path class="qa217-9" d="M10,14V11H9v4h1Z"/></svg>