<svg xmlns="http://www.w3.org/2000/svg" viewBox="0 0 29 33"><defs><style>polygon,rect,path{shape-rendering:crispedges;}.aa68-1{fill:#db5a8e;}.aa68-2{fill:#000000;}.aa68-3{fill:#e8b795;}.aa68-4{fill:#ffb38d;}.aa68-5{fill:#ffb38d;}.aa68-6{fill:#ffffff;}.aa68-7{fill:#8e703c;}.aa68-8{fill:#0079bc;}.aa68-9{fill:#d2d8b8;}</style></defs><path class="aa68-1" d="M0,33H6V27H7V26H8V25h2V24h2V21H11V20H9V18H8V13H9V11h1V10h1V9h7v1h1v1h1v1h1v6H20v2H18v1H17v3h2v1h2v1h1v1h1v6h6V0H0Z"/><path class="aa68-2" d="M23,27H22v6h1V27Z"/><rect class="aa68-2" x="21" y="26" width="1" height="1"/><path class="aa68-3" d="M22,27H21v6h1V27Z"/><rect class="aa68-3" x="20" y="26" width="1" height="1"/><path class="aa68-2" d="M21,27H20v6h1V27Z"/><path class="aa68-2" d="M20,26h1V25H19v1Z"/><path class="aa68-4" d="M20,27V26H19V25H18v1H17v1H16v1h1v1h1v1h1v3h1V27Z"/><rect class="aa68-4" x="16" y="30" width="1" height="1"/><rect class="aa68-4" x="12" y="30" width="1" height="1"/><path class="aa68-4" d="M16,32H12v1h5V32Z"/><path class="aa68-4" d="M10,30h1V29h1V28h1V27H12V26H11V25H10v1H9v7h1V30Z"/><path class="aa68-2" d="M18,26V25h1V24H17v2Z"/><rect class="aa68-2" x="16" y="26" width="1" height="1"/><path class="aa68-2" d="M13,27v1h3V27H13Z"/><path class="aa68-2" d="M13,23h3v1h1V21H16v1H13V21H12v3h1Z"/><path class="aa68-3" d="M13,26v1h3V26h1V24H16V23H13v1H12v2Z"/><rect class="aa68-2" x="12" y="26" width="1" height="1"/><path class="aa68-2" d="M11,26h1V24H10v1h1Z"/><path class="aa68-2" d="M10,26V25H8v1h2Z"/><path class="aa68-3" d="M9,27V26H8v1Z"/><path class="aa68-2" d="M9,27H8v6H9V27Z"/><rect class="aa68-2" x="7" y="26" width="1" height="1"/><path class="aa68-3" d="M8,27H7v6H8V27Z"/><path class="aa68-2" d="M7,27H6v6H7V27Z"/><path class="aa68-5" d="M19,30H18V29H17V28H12v1H11v1H10v3h2V32h5v1h2V30Zm-6,1H12V30h1Zm4,0H16V30h1Z"/><rect class="aa68-2" x="19" y="14" width="1" height="1"/><path class="aa68-3" d="M13,20v2h3V20Z"/><rect class="aa68-3" x="9" y="15" width="1" height="1"/><path class="aa68-3" d="M12,19V18h5v2h1V19h1V18H18V15H16v1H15v1H14V16h1V14h1V12H15V11H14v4H13v2H12V15H11v3H10v1h1v1h1Z"/><rect class="aa68-3" x="12" y="12" width="1" height="1"/><rect class="aa68-3" x="11" y="13" width="1" height="1"/><rect class="aa68-3" x="19" y="15" width="1" height="1"/><rect class="aa68-3" x="17" y="11" width="1" height="1"/><rect class="aa68-3" x="17" y="13" width="1" height="1"/><path class="aa68-2" d="M19,16v2h1V16Z"/><path class="aa68-2" d="M18,19v1h1V19Z"/><rect class="aa68-2" x="17" y="20" width="1" height="1"/><rect class="aa68-2" x="11" y="20" width="1" height="1"/><path class="aa68-2" d="M10,19v1h1V19Z"/><path class="aa68-2" d="M10,17V16H9v2h1Z"/><rect class="aa68-2" x="14" y="16" width="1" height="1"/><rect class="aa68-6" x="12" y="14" width="1" height="1"/><path class="aa68-6" d="M16,14v1h1V14Z"/><rect class="aa68-2" x="11" y="14" width="1" height="1"/><path class="aa68-2" d="M17,14v1h1V14Z"/><rect class="aa68-7" x="17" y="12" width="1" height="1"/><rect class="aa68-7" x="12" y="13" width="1" height="1"/><rect class="aa68-7" x="11" y="12" width="1" height="1"/><path class="aa68-8" d="M13,20V19h3V18H12v3h1Z"/><path class="aa68-8" d="M17,19H16v2h1V19Z"/><path class="aa68-2" d="M16,19H13v1h3Z"/><path class="aa68-2" d="M17,18H16v1h1Z"/><path class="aa68-9" d="M9,15h1v3h1V12h2v3h1V11h1v1h1v2h1V11h1v7h1V14h1v4h1V12H20V11H19V10H18V9H11v1H10v1H9v2H8v5H9V15Z"/><path class="aa68-9" d="M19,19v1h1V18H19Z"/><path class="aa68-9" d="M15,14v2h1V14Z"/><path class="aa68-9" d="M12,16v1h1V15H12Z"/><path class="aa68-9" d="M10,18H9v2h1V18Z"/></svg>