<svg xmlns="http://www.w3.org/2000/svg" viewBox="0 0 29 33"><defs><style>polygon,rect,path{shape-rendering:crispedges;}.ua26-1{fill:#db5a8e;}.ua26-2{fill:#000000;}.ua26-3{fill:#ffffff;}.ua26-4{fill:#b2622b;}.ua26-5{fill:#0068ff;}.ua26-6{fill:#316a6d;}.ua26-7{fill:#cbed03;}.ua26-8{fill:#ffffff;}.ua26-9{fill:#fad000;}</style></defs><path class="ua26-1" d="M21,21H20v1H19v1H18v1h1v1h2V21Z"/><path class="ua26-1" d="M8,19V16H8v4H8Z"/><rect class="ua26-1" x="13" y="21" height="1"/><rect class="ua26-1" x="9" y="20" height="1"/><rect class="ua26-1" x="12" y="20" height="1"/><rect class="ua26-1" x="10" y="21" height="1"/><path class="ua26-1" d="M8,15H8V12H8v3Z"/><rect class="ua26-1" x="10" y="20" width="1"/><polygon class="ua26-1" points="14 17 14 17 15 17 15 16 15 16 15 17 14 17"/><rect class="ua26-1" x="18" y="20" width="1"/><path class="ua26-1" d="M0,33H6V27H7V26H8V25h2V24h1V23H10V22H9V21H8V20H7V11H8V10H9V9h1V8h1V7h7V8h1V9h1v1h1v1h1v3h1V9H22V8h1V7H22V6H21V5H20V3H19V0h9V3H27V5H26V6H25V7H24V8h1V9H24v5H23v6H22v1h1v1h1v9H23v1H21v1h8V0H0Z"/><rect class="ua26-1" x="11" y="19" height="1"/><path class="ua26-2" d="M23,29v2h1V22H23v7Z"/><path class="ua26-2" d="M7,27H6v6H7V27Z"/><path class="ua26-3" d="M8,27H7v6H8V27Z"/><rect class="ua26-2" x="7" y="26" width="1" height="1"/><path class="ua26-2" d="M9,31V27H8v6H9V31Z"/><path class="ua26-3" d="M19,32V31H18v1H17V30H16v1H15v1H13V30H12v2H11V31H10v1H9v1H20V32Z"/><path class="ua26-3" d="M9,27v2h1V28h1v1h1V25h1V24H11v1H10v1H8v1Z"/><rect class="ua26-3" x="18" y="29" width="1" height="1"/><path class="ua26-3" d="M18,24H16v1h1v4h1V28h1v1h1V27h1V26H19V25H18Z"/><rect class="ua26-3" x="10" y="29" width="1" height="1"/><path class="ua26-2" d="M10,25H8v1h2Z"/><rect class="ua26-2" x="10" y="24" width="1" height="1"/><path class="ua26-2" d="M13,23H11v1h2Z"/><path class="ua26-2" d="M16,25V24H13v1h3Z"/><path class="ua26-4" d="M16,24V23H13v1h3Z"/><path class="ua26-2" d="M17,24h1V23H16v1Z"/><rect class="ua26-2" x="18" y="24" width="1" height="1"/><path class="ua26-2" d="M22,32h1V31H22V23H21v2H19v1h2v1H20v6h1V32Z"/><path class="ua26-3" d="M23,24H22v7h1V24Z"/><path class="ua26-3" d="M13,28h2v1h1V25H13v3Z"/><path class="ua26-3" d="M14,29v2h1V29Z"/><path class="ua26-5" d="M19,30H18V29H17v3h1V31h1v1h1V29H19Z"/><rect class="ua26-5" x="18" y="28" width="1" height="1"/><path class="ua26-5" d="M15,29v2h1V29Z"/><path class="ua26-5" d="M14,30V29h1V28H13v4h2V31H14Z"/><path class="ua26-5" d="M11,29v1H10V29H9v3h1V31h1v1h1V29Z"/><rect class="ua26-5" x="10" y="28" width="1" height="1"/><path class="ua26-2" d="M13,27V25H12v5h1V27Z"/><path class="ua26-2" d="M17,28V25H16v5h1V28Z"/><path class="ua26-4" d="M14,11v1H13v1h6V12H17V11H14Z"/><path class="ua26-4" d="M18,20V19h1V15H18v1H16V15H15V14H14v1H13v1H11V15H10v4h1v1h1v1h1v1h3V21h1V20Zm-4-4h1v1H14Zm2,4H13V19H12V18h1v1h3Z"/><polygon class="ua26-2" points="15 17 15 16 15 16 14 16 14 17 14 17 15 17"/><path class="ua26-6" d="M18,14h1V13H18Z"/><path class="ua26-7" d="M11,12H10v2h1V13h2V12h1V11H12v1Z"/><path class="ua26-3" d="M13,23V22H12V21H11V20H10V19H9V12h1V11h2V10h5v1h2v1h1v7H19v1H18v1H17v1H16v1h2V22h1V21h1V20h1V11H20V10H19V9H18V8H11V9H10v1H9v1H8v1H8v8H9v1h1v1h1v1h2Z"/><rect class="ua26-2" x="10" y="8" width="1" height="1"/><rect class="ua26-2" x="9" y="9" width="1" height="1"/><rect class="ua26-2" x="8" y="10" width="1" height="1"/><path class="ua26-2" d="M8,16H8V15H8V11H7v9H8V16Z"/><polygon class="ua26-2" points="9 20 8 20 8 20 8 21 9 21 9 20 9 20"/><polygon class="ua26-2" points="9 21 9 21 9 22 10 22 10 21 9 21"/><polygon class="ua26-2" points="10 22 10 22 10 23 11 23 11 22 10 22"/><rect class="ua26-2" x="18" y="22" width="1" height="1"/><rect class="ua26-2" x="19" y="21" width="1" height="1"/><polygon class="ua26-2" points="21 20 21 20 20 20 20 21 21 21 21 20"/><path class="ua26-2" d="M21,20h1V11H21v9Z"/><rect class="ua26-2" x="20" y="10" width="1" height="1"/><rect class="ua26-2" x="19" y="9" width="1" height="1"/><rect class="ua26-2" x="18" y="8" width="1" height="1"/><path class="ua26-2" d="M18,8V7H11V8h7Z"/><path class="ua26-2" d="M11,19H10V15h1v1h2V15h1V14h1v1h1v1h2V15h1v4H18v1h1V19h1V12H19v2H18V13H11v1H10V12h2V11H10v1H9v7h1v1h1Z"/><polygon class="ua26-2" points="12 20 11 20 11 20 11 20 11 21 12 21 12 20 12 20"/><polygon class="ua26-2" points="12 21 12 21 12 22 13 22 13 21 12 21"/><path class="ua26-2" d="M16,23V22H13v1h3Z"/><rect class="ua26-2" x="16" y="21" width="1" height="1"/><polygon class="ua26-2" points="17 20 17 21 18 21 18 20 18 20 17 20"/><path class="ua26-2" d="M18,12h1V11H17v1Z"/><path class="ua26-2" d="M14,11h3V10H12v1Z"/><rect class="ua26-2" x="13" y="19" width="3" height="1"/><rect class="ua26-2" x="12" y="18" width="1" height="1"/><path class="ua26-8" d="M24,10V8H23v6h1Z"/><path class="ua26-8" d="M22,20h1V14H22v6Z"/><path class="ua26-8" d="M21,20v2h1V20Z"/><path class="ua26-9" d="M22,8V9h1V8Z"/><path class="ua26-9" d="M25,9V8H24V9Z"/><path class="ua26-9" d="M24,7h1V6h1V5h1V3h1V0H19V3h1V5h1V6h1V7h1V8h1Z"/><path class="ua26-4" d="M21,22v1h1v1h1V22H21Z"/><path class="ua26-2" d="M23,22V21H22v1Z"/></svg>