<svg xmlns="http://www.w3.org/2000/svg" viewBox="0 0 29 33"><defs><style>polygon,rect,path{shape-rendering:crispedges;}.bb98-1{fill:#7a982c;}.bb98-2{fill:#000000;}.bb98-3{fill:#326b43;}.bb98-4{fill:#ffffff;}.bb98-5{fill:#ce8452;}.bb98-6{fill:#473a35;}.bb98-7{fill:#508e5d;}.bb98-8{fill:#99004d;}.bb98-9{fill:#a06415;}</style></defs><path class="bb98-1" d="M0,33H6V27H7V26H8V25h2V24h1V23h1V21H11v1H10V19H9V16H8V15H9V11h1V9h1V7h1V6H11V5h2V6h2V7h1V9h2v1h1v1h1v4h1v1H20v3H19v1H18v1H17v2h1v1h1v1h2v1h1v1h1v6h6V0H0Z"/><path class="bb98-2" d="M23,27H22v6h1V27Z"/><path class="bb98-3" d="M22,27H21v6h1V27Z"/><rect class="bb98-2" x="21" y="26" width="1" height="1"/><path class="bb98-2" d="M21,27H20v6h1V27Z"/><path class="bb98-3" d="M20,27h1V26H19V25H18v4H17v4h3V27Z"/><path class="bb98-2" d="M20,26h1V25H19v1Z"/><path class="bb98-2" d="M17,29H16v4h1V29Z"/><rect class="bb98-4" x="16" y="24" width="1" height="1"/><path class="bb98-4" d="M16,29h1V26H16V25H13v1H12v3h1v4h1V32h1v1h1V29Zm-1,2H14V30h1Zm0-2H14V28h1Zm0-2H14V26h1Z"/><rect class="bb98-4" x="15" y="23" width="1" height="1"/><rect class="bb98-2" x="14" y="32" width="1" height="1"/><rect class="bb98-2" x="14" y="30" width="1" height="1"/><rect class="bb98-2" x="14" y="28" width="1" height="1"/><rect class="bb98-2" x="14" y="26" width="1" height="1"/><rect class="bb98-4" x="13" y="23" width="1" height="1"/><path class="bb98-2" d="M13,29H12v4h1V29Z"/><rect class="bb98-4" x="12" y="24" width="1" height="1"/><path class="bb98-3" d="M12,29H11V25H10v1H8v1H9v6h3V29Z"/><path class="bb98-2" d="M11,26v3h1V26h1V25H12V24h1V23h1v1H13v1h3V24H15V23h1v1h1v1H16v1h1v3h1V25h1V24H18V23H17V21H16v1H13V21H12v2H11v1H10v1h1Z"/><path class="bb98-2" d="M10,25H8v1h2Z"/><path class="bb98-2" d="M9,27H8v6H9V27Z"/><path class="bb98-3" d="M8,27H7v6H8V27Z"/><rect class="bb98-2" x="7" y="26" width="1" height="1"/><path class="bb98-2" d="M7,27H6v6H7V27Z"/><rect class="bb98-2" x="20" y="15" width="1" height="1"/><path class="bb98-2" d="M19,13v2h1V11H19v2Z"/><rect class="bb98-5" x="9" y="15" width="1" height="1"/><path class="bb98-5" d="M12,15H11v1h2V15Z"/><path class="bb98-5" d="M13,12v2h1v2h1v1H14V16H13v1H11v3h1V18h5v2h1V19h1V16h1V15H16V14h3V13H16V12h3V11H18V10H16v1H14V10H11v1H10v1Z"/><rect class="bb98-5" x="10" y="16" width="1" height="1"/><path class="bb98-5" d="M13,20v2h3V20Z"/><rect class="bb98-5" x="10" y="13" width="1" height="1"/><path class="bb98-2" d="M19,17v2h1V16H19Z"/><rect class="bb98-2" x="18" y="10" width="1" height="1"/><rect class="bb98-2" x="18" y="19" width="1" height="1"/><rect class="bb98-2" x="17" y="20" width="1" height="1"/><path class="bb98-2" d="M12,10h1V9H11v1Z"/><path class="bb98-2" d="M17,10h1V9H16v1Z"/><rect class="bb98-2" x="11" y="20" width="1" height="1"/><path class="bb98-2" d="M11,10H10v1h1Z"/><path class="bb98-2" d="M10,14V11H9v4h1Z"/><path class="bb98-2" d="M10,16H9v3h1V16Z"/><rect class="bb98-2" x="8" y="15" width="1" height="1"/><rect class="bb98-2" x="14" y="16" width="1" height="1"/><path class="bb98-4" d="M18,14v1h1V14Z"/><rect class="bb98-4" x="12" y="14" width="1" height="1"/><path class="bb98-2" d="M17,14H16v1h2V14Z"/><rect class="bb98-2" x="11" y="14" width="1" height="1"/><path class="bb98-6" d="M12,13h1V12H10v1h2Z"/><path class="bb98-6" d="M16,12v1h3V12Z"/><path class="bb98-7" d="M13,20V19h3V18H12v3h1Z"/><path class="bb98-7" d="M17,19H16v2h1V19Z"/><path class="bb98-2" d="M16,19H13v1h3Z"/><path class="bb98-2" d="M17,18H16v1h1Z"/><path class="bb98-8" d="M13,10h1v1h2V7H15V6H13V5H11V6h1V7H11V9h2Z"/><path class="bb98-8" d="M11,9H10v1h1Z"/><path class="bb98-9" d="M13,16h1V14H13v2Z"/><path class="bb98-9" d="M11,13v1h2V13H11Z"/><path class="bb98-9" d="M13,16H11v1h2Z"/><polygon class="bb98-9" points="11 15 11 14 10 14 10 15 10 16 11 16 11 15"/><path class="bb98-9" d="M11,19V17H10v5h1V19Z"/><rect class="bb98-8" x="10" y="9" width="1" height="1"></rect></svg>