<svg xmlns="http://www.w3.org/2000/svg" viewBox="0 0 29 33"><defs><style>polygon,rect,path{shape-rendering:crispedges;}.qa20-1{fill:#7a982c;}.qa20-2{fill:#000000;}.qa20-3{fill:#ffffff;}.qa20-4{fill:#ce8452;}.qa20-5{fill:#ffffff;}.qa20-6{fill:#ffffff;}.qa20-7{fill:#00686d;}.qa20-8{fill:#00686d;}.qa20-9{fill:#db5800;}.qa20-10{fill:#455054;}.qa20-11{fill:#ff1f4a;}</style></defs><path class="qa20-1" d="M8,32H6V31H5V22H6V21H7V20H5v1H2V17H5V16H8V15H9V14H8V12H9V11H8V10H9V9H8V8h2V7h1V8h1V6h1V7h1V8h1V7h1V6h1V7h1V8h1V7h1V8H19V9h2v2H20v1h1v1H20v1h1v2H20v3H19v1H18v2h1v1H18v1h1v1h2v1h1v1h1v6h6V0H0V33H8Z"/><path class="qa20-1" d="M8,19v3H9v2H8v1h2V24h1V23H10V22h1V20H10V19H9V16H8v3Z"/><path class="qa20-2" d="M6,24V22H5v9H6V24Z"/><path class="qa20-2" d="M23,27H22v6h1V27Z"/><path class="qa20-3" d="M22,27H21v6h1V27Z"/><rect class="qa20-2" x="21" y="26" width="1" height="1"/><path class="qa20-2" d="M21,27H20v6h1V27Z"/><path class="qa20-3" d="M20,27h1V26H19V25H18V24H16v1h1v3h2v1H17v2h1V30h1v2H16V25H13v3h2v4H12V25h1V24H11v1H10v1H8v1H9v6H20V27Zm-9,2v3H10V28h1Z"/><path class="qa20-2" d="M20,26h1V25H19v1Z"/><rect class="qa20-2" x="18" y="24" width="1" height="1"/><rect class="qa20-2" x="18" y="22" width="1" height="1"/><rect class="qa20-3" x="17" y="22" width="1" height="1"/><path class="qa20-2" d="M13,24v1h3V24H13Z"/><path class="qa20-4" d="M15,23H13v1h3V23Z"/><rect class="qa20-3" x="11" y="22" width="1" height="1"/><rect class="qa20-2" x="10" y="24" width="1" height="1"/><rect class="qa20-2" x="10" y="22" width="1" height="1"/><path class="qa20-2" d="M9,27H8V26h2V25H8V24H7v7H6v1H8v1H9V27Z"/><path class="qa20-3" d="M7,30V24H6v7H7Z"/><path class="qa20-3" d="M14,31V29H13v2Z"/><path class="qa20-5" d="M14,29v2H13V30H12v2h3V28H13v1Z"/><path class="qa20-5" d="M10,29v3h1V28H10Z"/><path class="qa20-5" d="M18,29h1V28H17v1Z"/><path class="qa20-5" d="M16,31v1h3V30H18v1H17V30H16Z"/><path class="qa20-2" d="M12,26v4h1V25H12Z"/><path class="qa20-2" d="M16,30h1V25H16v5Z"/><path class="qa20-2" d="M20,16h1V15H20Z"/><path class="qa20-4" d="M10,13v1h2V13H10Z"/><polygon class="qa20-4" points="18 11 18 10 17 10 17 11 16 11 16 12 18 12 18 11"/><path class="qa20-4" d="M10,16v3h1v1h1v1h2V20H13V19h3V18h1v1H16v1H15v1h2V20h1V19h1V16h1V15H16V14h2V13H16V12H15V10H14v1H13v1H12v1h1v2H9v1Zm4,0h1v1H14Z"/><rect class="qa20-4" x="10" y="11" width="1" height="1"/><rect class="qa20-4" x="11" y="10" width="1" height="1"/><path class="qa20-2" d="M19,17v2h1V16H19Z"/><rect class="qa20-2" x="18" y="19" width="1" height="1"/><path class="qa20-2" d="M17,21H16v1H13V21H12V20H11v2h1v1H11v1h2V23h3v1h2V23H17V22h1V20H17Z"/><rect class="qa20-2" x="10" y="19" width="1" height="1"/><path class="qa20-2" d="M10,16H9v3h1V16Z"/><rect class="qa20-2" x="8" y="15" width="1" height="1"/><rect class="qa20-2" x="14" y="16" width="1" height="1"/><path class="qa20-6" d="M18,14v1h1V14Z"/><path class="qa20-6" d="M12,15h1V14H12Z"/><path class="qa20-2" d="M17,14H16v1h2V14Z"/><path class="qa20-2" d="M11,14H10v1h2V14Z"/><rect class="qa20-7" x="18" y="13" width="1" height="1"/><rect class="qa20-7" x="16" y="12" width="2" height="1"/><path class="qa20-7" d="M13,14V13H12v1Z"/><path class="qa20-7" d="M11,13h1V12H11Z"/><path class="qa20-8" d="M14,22h2V21H15V20H14v1H13v1Z"/><polygon class="qa20-2" points="16 20 16 19 13 19 13 20 14 20 15 20 16 20"/><rect class="qa20-2" x="16" y="18" width="1" height="1"/><path class="qa20-9" d="M10,14V13h1V12H10V11h1V10h1v1H11v1h2V11h1V10h1v2h1V11h1V10h1v3h1v2h2V14H20V13h1V12H20V11h1V9H19V8H18V7H17V6H16V7H15V8H14V7H13V6H12V8H11V7H10V8H8V9H9v1H8v1H9v1H8v2H9v1h1Z"/><rect class="qa20-9" x="19" y="7" width="1" height="1"/><path class="qa20-4" d="M7,24H8V22H6v2Z"/><path class="qa20-10" d="M8,22V20H7v2Z"/><path class="qa20-2" d="M7,21H6v1H7Z"/><path class="qa20-2" d="M9,22H8v2H9Z"/><path class="qa20-6" d="M4,19V18H5V17H3v4H5V20H4Z"/><path class="qa20-6" d="M6,16H5v1H6v2H5v1H7V16Z"/><path class="qa20-11" d="M2,17v4H3V17Z"/><path class="qa20-11" d="M8,19V16H7v4H8Z"/><path class="qa20-11" d="M6,19V17H5v1H4v2H5V19Z"/></svg>