<svg xmlns="http://www.w3.org/2000/svg" viewBox="0 0 29 33"><defs><style>polygon,rect,path{shape-rendering:crispedges;}.da82-1{fill:#db5a8e;}.da82-2{fill:#000000;}.da82-3{fill:#ffb38d;}.da82-4{fill:#b2622b;}.da82-5{fill:#db5800;}.da82-6{fill:#ffffff;}.da82-7{fill:#492a23;}.da82-8{fill:#fad000;}.da82-9{fill:#492a23;}.da82-10{fill:#dbc6d2;}.da82-11{fill:#c699ad;}</style></defs><path class="da82-1" d="M0,33H29V0H0ZM26,20H25V19h1Zm-2-3h1v1H24Zm-3,4V20h2V19h1v1H23v1h1v1H23v1H22v1H21v1H20V24H19V23h1V22h1ZM6,32V27H7V26H8V25h2V23h1V21H10V20H9V16H8V15H9V10h1V9h1V8h7V9h1v1h1v5h1v1H20v4H19v1H18v2h1v2h4v1h1v2H23v5H6Z"/><rect class="da82-1" x="21" y="22" width="1" height="1"/><path class="da82-2" d="M7,32V30H8v3H9V27H8v2H7V27H6v6H7Z"/><rect class="da82-2" x="7" y="26" width="1" height="1"/><path class="da82-2" d="M10,25H8v1h2Z"/><path class="da82-2" d="M21,30H20v3h1V30Z"/><path class="da82-2" d="M22,29v4h1V28H22Z"/><path class="da82-3" d="M13,31h1V29H13Z"/><path class="da82-3" d="M9,27v6H20V30H19v2H16V29H15v3H12V28h1V27H12V26H11V25H10v1H8v1Zm1,4V28h1v4H10Z"/><rect class="da82-3" x="16" y="27" width="1" height="1"/><path class="da82-3" d="M18,31V29H17v2Z"/><path class="da82-3" d="M8,29V27H7v2Z"/><path class="da82-4" d="M22,29H21v4h1V29Z"/><path class="da82-4" d="M13,25h1V24h1v1h1V23H13v2Z"/><path class="da82-4" d="M8,30H7v3H8V30Z"/><path class="da82-5" d="M14,31H13V28H12v4h3V30H14Z"/><path class="da82-5" d="M11,31V28H10v4h1Z"/><path class="da82-5" d="M18,31H17V28H16v4h3V30H18Z"/><rect class="da82-2" x="20" y="15" width="1" height="1"/><path class="da82-4" d="M10,17h1v1h5v1h1V18h1V17h1V16h1V15H16V13h1V12h2V11H18V10H16v1H15v1H14v2H13v3H12V16H11V15H9v1h1Zm4-1h1v1H14Z"/><polygon class="da82-4" points="18 14 19 14 19 13 17 13 17 14 18 14"/><path class="da82-2" d="M10,14H9v1h1Z"/><rect class="da82-2" x="8" y="15" width="1" height="1"/><rect class="da82-2" x="14" y="16" width="1" height="1"/><path class="da82-6" d="M18,14v1h1V14Z"/><path class="da82-6" d="M16,14v1h1V14Z"/><path class="da82-2" d="M17,14v1h1V14Z"/><path class="da82-7" d="M17,13H16v1h1Z"/><rect class="da82-7" x="17" y="12" width="2" height="1"/><path class="da82-2" d="M14,30h1V29H14Z"/><rect class="da82-2" x="12" y="26" width="1" height="1"/><path class="da82-2" d="M16,27H15v2h1V27Z"/><rect class="da82-2" x="16" y="26" width="1" height="1"/><path class="da82-2" d="M14,29V27H13v2Z"/><rect class="da82-2" x="11" y="25" width="1" height="1"/><rect class="da82-2" x="14" y="24" width="1" height="1"/><rect class="da82-2" x="13" y="25" width="1" height="1"/><rect class="da82-2" x="15" y="25" width="1" height="1"/><path class="da82-2" d="M17,25V23H16v2Z"/><path class="da82-2" d="M13,24V23H12v2h1Z"/><rect class="da82-8" x="16" y="25" width="1" height="1"/><path class="da82-8" d="M16,27V26H15V25H14v1H13v1h1v2h1V27Z"/><rect class="da82-8" x="12" y="25" width="1" height="1"/><path class="da82-8" d="M11,25h1V23H11v2Z"/><path class="da82-8" d="M17,24v1h1V23H17Z"/><path class="da82-2" d="M19,25V23H18v2Z"/><path class="da82-2" d="M11,24V23H10v2h1Z"/><path class="da82-2" d="M17,23h1V22H17Z"/><path class="da82-2" d="M12,22H11v1h1Z"/><path class="da82-9" d="M15,18H13v1h3V18Z"/><path class="da82-9" d="M12,23h5V22h1V21h1V20h1V16H19v1H18v1H17v1H16v1H13V19H12V18H11V17H10V16H9v4h1v1h1v1h1Z"/><rect class="da82-2" x="13" y="19" width="3" height="1"/><path class="da82-2" d="M12,18v1h1V18Z"/><path class="da82-10" d="M10,15h1v1h1v1h1V14h1V12h1V11h1V10h2v1h1v4h1V10H19V9H18V8H11V9H10v1H9v4h1Z"/><path class="da82-6" d="M17,25v4h1v1h3V29h1V28H21V26h1V25H17Z"/><rect class="da82-11" x="25" y="19" width="1" height="1"/><rect class="da82-11" x="24" y="17" width="1" height="1"/><rect class="da82-11" x="23" y="19" width="1" height="1"/><path class="da82-11" d="M22,23h1V22h1V21H23V20H21v2h1Z"/><polygon class="da82-11" points="20 23 19 23 19 24 20 24 20 25 21 25 21 24 22 24 22 23 21 23 21 22 20 22 20 23"/><path class="da82-4" d="M22,26H21v2h2V26H22Z"/><path class="da82-2" d="M22.5,26H23V25H22v1Z"/><path class="da82-2" d="M24,28V26H23v2Z"/></svg>