<svg xmlns="http://www.w3.org/2000/svg" viewBox="0 0 29 33"><defs><style>polygon,rect,path{shape-rendering:crispedges;}.ea265-1{fill:#db5a8e;}.ea265-2{fill:#000000;}.ea265-3{fill:#841f00;}.ea265-4{fill:#b2622b;}.ea265-5{fill:#7f5018;}.ea265-6{fill:#fad000;}.ea265-7{fill:#ffffff;}.ea265-8{fill:#317f03;}.ea265-9{fill:#72dd40;}</style></defs><path class="ea265-1" d="M0,33H6V27H7V26H8V25h2V23h1V22h1V21H11V20H10V19H9V16H8V11H9V10h1V9h2V8h5V9h1v1h1v1h1v3h1v2H20v3H19v1H18v1H17v1h1v1h1v2h2v1h1v1h1v6h6V0H0Z"/><path class="ea265-2" d="M23,27H22v3H21V27H20v6h1V31h1v2h1V27Z"/><rect class="ea265-2" x="21" y="26" width="1" height="1"/><path class="ea265-3" d="M21,28v2h1V27H21Z"/><path class="ea265-4" d="M21,31v2h1V31Z"/><path class="ea265-2" d="M20,26h1V25H19v1Z"/><path class="ea265-3" d="M20,27h1V26H19V25H18v1H17v1H16v1H13V27H12V26H11V25H10v1H8v1H9v6H20V27Z"/><path class="ea265-4" d="M16,25V23H13v2h3Z"/><path class="ea265-2" d="M10,25H8v1h2Z"/><path class="ea265-2" d="M9,27H8v3H7V27H6v6H7V31H8v2H9V27Z"/><rect class="ea265-2" x="7" y="26" width="1" height="1"/><path class="ea265-3" d="M7,30H8V27H7v3Z"/><path class="ea265-4" d="M7,31v2H8V31Z"/><path class="ea265-2" d="M20,16h1V15H20Z"/><path class="ea265-4" d="M14,10v1H12v2h1v1h3V12h2v1h1V11H18V10H14Z"/><path class="ea265-4" d="M16,17V16H15v1H14V16H13v1H10v1h1v1h1V18h2v1h1V18h2v1h1V18h1V17H16Z"/><rect class="ea265-4" x="15" y="20" width="1" height="1"/><rect class="ea265-4" x="13" y="20" width="1" height="1"/><rect class="ea265-4" x="14" y="15" width="1" height="1"/><path class="ea265-2" d="M19,17h1V16H19Z"/><path class="ea265-2" d="M16,23v2h1V23h1V22H16Z"/><path class="ea265-2" d="M10,16H9v1h1Z"/><path class="ea265-2" d="M8,15v1H9V15Z"/><rect class="ea265-2" x="14" y="16" width="1" height="1"/><path class="ea265-5" d="M18,12H16v1h2Z"/><path class="ea265-5" d="M12,12H11v1h1Z"/><path class="ea265-2" d="M18,25h1V23H18v2Z"/><rect class="ea265-2" x="17" y="25" width="1" height="1"/><path class="ea265-6" d="M17,24v1h1V24Z"/><path class="ea265-7" d="M17,24h1V23H17Z"/><rect class="ea265-2" x="16" y="26" width="1" height="1"/><rect class="ea265-7" x="16" y="25" width="1" height="1"/><rect class="ea265-6" x="15" y="26" width="1" height="1"/><path class="ea265-2" d="M14,27H13v1h3V27H14Z"/><path class="ea265-7" d="M14,27h1V26H14Z"/><rect class="ea265-6" x="13" y="26" width="1" height="1"/><path class="ea265-2" d="M14,26h2V25H13v1Z"/><rect class="ea265-2" x="12" y="26" width="1" height="1"/><rect class="ea265-7" x="12" y="25" width="1" height="1"/><path class="ea265-2" d="M12,24v1h1V22H11v1h1Z"/><rect class="ea265-2" x="11" y="25" width="1" height="1"/><rect class="ea265-6" x="11" y="24" width="1" height="1"/><rect class="ea265-7" x="11" y="23" width="1" height="1"/><path class="ea265-2" d="M11,24V23H10v2h1Z"/><path class="ea265-8" d="M15,18v1h1V18Z"/><path class="ea265-8" d="M13,23h3V22h1V21h1V20h1V19h1V17H19v1H18v1H16v2H15V20H14v1H13V19h1V18H12v1H11V18H10V17H9v2h1v1h1v1h1v1h1Z"/><path class="ea265-2" d="M14,19H13v1h3V19H14Z"/><path class="ea265-2" d="M16,18v1h1V18Z"/><path class="ea265-9" d="M19,14h1V11H19v3Z"/><rect class="ea265-9" x="18" y="10" width="1" height="1"/><path class="ea265-9" d="M10,13h1V12h1V11h2V10h4V9H17V8H12V9H10v1H9v1H8v3h2Z"/><path class="ea265-7" d="M19,15v1h1V15h1V14H19Z"/><path class="ea265-7" d="M19,14V13H16v1h3Z"/><path class="ea265-2" d="M18,16h1V14H16v2Z"/><path class="ea265-7" d="M18,16H16v1h3V16Z"/><path class="ea265-7" d="M14,16V15h1v1h1V14H13v2Z"/><path class="ea265-7" d="M13,14V13H10v1h3Z"/><path class="ea265-2" d="M13,16V14H10v2h3Z"/><path class="ea265-7" d="M13,17V16H10v1h3Z"/><path class="ea265-7" d="M10,15V14H8v1H9v1h1Z"/></svg>