<svg xmlns="http://www.w3.org/2000/svg" viewBox="0 0 29 33"><defs><style>polygon,rect,path{shape-rendering:crispedges;}.ca299-1{fill:#d14646;}.ca299-2{fill:#000000;}.ca299-3{fill:#efcaaf;}.ca299-4{fill:#875070;}.ca299-5{fill:#c6e5e4;}.ca299-6{fill:#ffffff;}.ca299-7{fill:#e70059;}.ca299-8{fill:#ff791f;}.ca299-9{fill:#508e91;}</style></defs><path class="ca299-1" d="M0,33H6V24H7V23H8v1H9v1h1V24h2V22H11V21H10v1H9V21H8V20H7V19H8V12H9V10h1V9h1V8h7V9h1v1h1v2h1v7h1v1H21v1H20v1H19V21H18v1H17v2h2v1h2v1h1v1h1v6h6V0H0Z"/><path class="ca299-2" d="M23,27H22v6h1V27Z"/><rect class="ca299-2" x="21" y="26" width="1" height="1"/><path class="ca299-3" d="M22,27H21v6h1V27Z"/><rect class="ca299-3" x="20" y="26" width="1" height="1"/><path class="ca299-2" d="M21,27H20v6h1V27Z"/><path class="ca299-2" d="M20,26h1V25H19v1Z"/><rect class="ca299-4" x="18" y="32" width="1" height="1"/><path class="ca299-4" d="M17,30h1V29h1v1h1V26H19V25H18v1H17v1H16v1H13V27H12V26H11V25H10v2H9v3h1V29h1v1h1v3h1V29h2v1h1v2H15v1h2V30Z"/><rect class="ca299-4" x="10" y="30" width="1" height="1"/><rect class="ca299-4" x="18" y="30" width="1" height="1"/><rect class="ca299-4" x="10" y="32" width="1" height="1"/><path class="ca299-4" d="M14,31v1h1V30H14Z"/><path class="ca299-2" d="M13,23h3v1h1V21H16v1H13V21H12v3h1Z"/><path class="ca299-2" d="M9,30V27H8v6H9V30Z"/><path class="ca299-3" d="M8,27H9V25H8V24H7v9H8V27Z"/><path class="ca299-2" d="M7,24H6v9H7V24Z"/><path class="ca299-2" d="M11,26h1V24H10v1h1Z"/><rect class="ca299-2" x="12" y="26" width="1" height="1"/><rect class="ca299-2" x="16" y="26" width="1" height="1"/><path class="ca299-2" d="M18,26V25h1V24H17v2Z"/><path class="ca299-2" d="M13,27v1h3V27H13Z"/><path class="ca299-3" d="M13,26v1h3V26h1V24H16V23H13v1H12v2Z"/><path class="ca299-5" d="M20,30H19v1H18V30H17v3h1V32h1v1h1V30Z"/><rect class="ca299-5" x="18" y="29" width="1" height="1"/><path class="ca299-5" d="M16,32V30H15v2Z"/><path class="ca299-5" d="M14,32V30h1V29H13v4h2V32Z"/><path class="ca299-5" d="M12,30H11v1H10V30H9v3h1V32h1v1h1V30Z"/><rect class="ca299-5" x="10" y="29" width="1" height="1"/><path class="ca299-2" d="M20,16h1V15H20Z"/><rect class="ca299-3" x="14" y="15" width="1" height="1"/><path class="ca299-3" d="M18,20V19h1V17H16V16H15v1H14V16H13v1H10v2h1v1h1v1h1v1h3V21h1V20Zm-2-1v1H13V19H12V18h5v1Z"/><path class="ca299-3" d="M13,14h3V13h2V12H17V11H16V10H13v1H12v1H11v1h2Z"/><path class="ca299-2" d="M19,18v1h1V16H19v2Z"/><rect class="ca299-2" x="18" y="19" width="1" height="1"/><rect class="ca299-2" x="17" y="20" width="1" height="1"/><rect class="ca299-2" x="11" y="20" width="1" height="1"/><rect class="ca299-2" x="10" y="19" width="1" height="1"/><path class="ca299-2" d="M10,16H9v3h1V16Z"/><path class="ca299-2" d="M9,15H8v1H9Z"/><rect class="ca299-2" x="14" y="16" width="1" height="1"/><path class="ca299-6" d="M11,15V14H10v2h1Z"/><path class="ca299-6" d="M12,14v2h1V14Z"/><path class="ca299-6" d="M17,15V14H16v2h1Z"/><path class="ca299-6" d="M18,15v1h1V14H18Z"/><path class="ca299-2" d="M11,14v2h1V14Z"/><polygon class="ca299-2" points="17 16 18 16 18 15 18 14 17 14 17 15 17 16"/><path class="ca299-2" d="M12,18v1h1V18Z"/><path class="ca299-2" d="M17,18H16v1h1Z"/><path class="ca299-2" d="M15,20h1V19H15Z"/><path class="ca299-2" d="M15,19V18H14v1Z"/><path class="ca299-2" d="M13,19v1h1V19Z"/><path class="ca299-6" d="M14,18H13v1h1Z"/><path class="ca299-6" d="M15,18v1h1V18Z"/><path class="ca299-7" d="M14,19v1h1V19Z"/><path class="ca299-2" d="M10,27V25H9v2Z"/><rect class="ca299-2" x="8" y="24" width="1" height="1"/><rect class="ca299-2" x="7" y="23" width="1" height="1"/><path class="ca299-8" d="M20,17v2H19v1H18v1h1v1h1V21h1V20h1V19H21V16H20Z"/><path class="ca299-8" d="M10,13h1V12h1V11h1V10h3v1h1v1h1v1h1v1h2V12H20V10H19V9H18V8H11V9H10v1H9v2H8v2h2Z"/><path class="ca299-8" d="M10,20V19H9V16H8v3H7v1H8v1H9v1h1V21h1V20Z"/><path class="ca299-8" d="M11,21v1h1V21Z"/><path class="ca299-8" d="M17,22h1V21H17Z"/><path class="ca299-9" d="M19,16h1V15h1V14H19Z"/><path class="ca299-9" d="M17,16H16v1h3V16H17Z"/><path class="ca299-9" d="M12,14h1V13H10v1h2Z"/><path class="ca299-9" d="M16,14h3V13H16Z"/><path class="ca299-9" d="M13,14v2h1V15h1v1h1V14Z"/><path class="ca299-9" d="M11,17h2V16H10v1Z"/><path class="ca299-9" d="M9,16h1V14H8v1H9Z"/></svg>