<svg xmlns="http://www.w3.org/2000/svg" viewBox="0 0 29 33"><defs><style>polygon,rect,path{shape-rendering:crispedges;}.da299-1{fill:#29834f;}.da299-2{fill:#000000;}.da299-3{fill:#cc3232;}.da299-4{fill:#ce8452;}.da299-5{fill:#cc3232;}.da299-6{fill:#ffffff;}.da299-7{fill:#316a6d;}.da299-8{fill:#fad000;}.da299-9{fill:#316a6d;}.da299-10{fill:#c8a715;}.da299-11{fill:#72dd40;}.da299-12{fill:#ff1f4a;}.da299-13{fill:#560000;}</style></defs><path class="da299-1" d="M0,33H6V27H7V26H8V25h2V20H9V18H8V13H9V11h1V10h1V9h7v1h1v1h1v1h1v6H20v2H19v5h1V24h1V23h1v1h1v9h6V0H0Z"/><path class="da299-2" d="M9,31V27H8v2H7V27H6v6H7V30H8v3H9V31Z"/><rect class="da299-2" x="7" y="26" width="1" height="1"/><path class="da299-2" d="M10,25H8v1h2Z"/><path class="da299-2" d="M21,27H20v6h1V27Z"/><path class="da299-2" d="M23,24H22v9h1V24Z"/><rect class="da299-3" x="10" y="29" width="1" height="1"/><rect class="da299-3" x="18" y="29" width="1" height="1"/><rect class="da299-3" x="14" y="30" width="1" height="1"/><path class="da299-3" d="M19,32V31H18v1H17V29h1V28h1v1h1V27H19V25H18v1H17v1H16v4H15v1H13V27H12V26H11V25H10v1H8v1H9v2h1V28h1v1h1v3H11V31H10v1H9v1H20V32Z"/><path class="da299-3" d="M8,29V27H7v2Z"/><path class="da299-4" d="M22,24H21v1H20v2h1v6h1V24Z"/><path class="da299-4" d="M13,25h1V24h1v1h1V23H13v2Z"/><path class="da299-4" d="M8,30H7v3H8V30Z"/><path class="da299-5" d="M19,30H18V29H17v3h1V31h1v1h1V29H19Z"/><rect class="da299-5" x="18" y="28" width="1" height="1"/><path class="da299-5" d="M15,30v1h1V29H15Z"/><path class="da299-5" d="M14,30V29H13v3h2V31H14Z"/><path class="da299-5" d="M9,32h1V31h1v1h1V29H11v1H10V29H9v3Z"/><rect class="da299-5" x="10" y="28" width="1" height="1"/><rect class="da299-2" x="19" y="14" width="1" height="1"/><rect class="da299-4" x="9" y="15" width="1" height="1"/><rect class="da299-4" x="14" y="15" width="1" height="1"/><rect class="da299-4" x="19" y="15" width="1" height="1"/><polygon class="da299-4" points="13 21 14 21 14 22 15 22 15 21 16 21 16 20 13 20 13 21"/><polygon class="da299-4" points="16 13 16 12 15 12 15 14 16 14 16 13"/><rect class="da299-4" x="17" y="11" width="1" height="1"/><rect class="da299-4" x="17" y="13" width="1" height="1"/><path class="da299-4" d="M18,15H16v1H15v1H14V16H13v1H11v2h1V18h2v1h1V18h2v1h1V15Z"/><rect class="da299-2" x="19" y="16" width="1" height="1"/><rect class="da299-2" x="9" y="16" width="1" height="1"/><rect class="da299-2" x="14" y="16" width="1" height="1"/><path class="da299-6" d="M17,15V14H16v1Z"/><path class="da299-2" d="M18,15V14H17v1Z"/><rect class="da299-7" x="17" y="12" width="1" height="1"/><rect class="da299-2" x="14" y="29" width="1" height="1"/><rect class="da299-2" x="12" y="26" width="1" height="1"/><path class="da299-2" d="M15,28v1h1V27H15Z"/><rect class="da299-2" x="16" y="26" width="1" height="1"/><path class="da299-2" d="M14,28V27H13v2h1Z"/><rect class="da299-2" x="17" y="25" width="1" height="1"/><rect class="da299-2" x="11" y="25" width="1" height="1"/><rect class="da299-2" x="14" y="24" width="1" height="1"/><rect class="da299-2" x="13" y="25" width="1" height="1"/><rect class="da299-2" x="15" y="25" width="1" height="1"/><rect class="da299-8" x="16" y="25" width="1" height="1"/><polygon class="da299-8" points="15 26 15 25 14 25 14 26 13 26 13 27 14 27 14 28 14 29 15 29 15 28 15 27 16 27 16 26 15 26"/><rect class="da299-8" x="12" y="25" width="1" height="1"/><path class="da299-8" d="M12,24V23H11v2h1Z"/><path class="da299-8" d="M18,23H17v2h1V23Z"/><path class="da299-2" d="M18,25h1V24H18Z"/><path class="da299-2" d="M11,24H10v1h1Z"/><rect class="da299-2" x="17" y="22" width="1" height="1"/><rect class="da299-2" x="11" y="22" width="1" height="1"/><path class="da299-9" d="M12,22v1h5V22h2V18H18v1H16v2H15v1H14V21H13V19h1V18H12v1H11V18H10v4h2Z"/><path class="da299-9" d="M15,18v1h1V18Z"/><rect class="da299-9" x="19" y="17" width="1" height="1"/><rect class="da299-9" x="9" y="17" width="1" height="1"/><path class="da299-10" d="M18,23h1V22H18Z"/><path class="da299-9" d="M18,24h1V23H18Z"/><path class="da299-10" d="M17,24V23H16v1Z"/><path class="da299-9" d="M16,25h1V24H16Z"/><path class="da299-10" d="M13,24V23H12v1Z"/><path class="da299-9" d="M12,24v1h1V24Z"/><path class="da299-10" d="M11,22H10v1h1Z"/><path class="da299-9" d="M11,23H10v1h1Z"/><path class="da299-2" d="M14,19H13v1h3V19H14Z"/><path class="da299-2" d="M16,18v1h1V18Z"/><path class="da299-2" d="M20,27V25H19v2Z"/><rect class="da299-2" x="20" y="24" width="1" height="1"/><rect class="da299-2" x="21" y="23" width="1" height="1"/><path class="da299-11" d="M9,16V13H8v5H9V16Z"/><path class="da299-11" d="M11,16H10v2h1V16Z"/><path class="da299-11" d="M15,12h1v2h1V11h1v7h1V14h1v4h1V12H20V11H19V10H18V9H15v3Z"/><path class="da299-11" d="M19,19v1h1V18H19Z"/><path class="da299-11" d="M16,16V14H15v2Z"/><path class="da299-11" d="M9,18v2h1V18Z"/><path class="da299-12" d="M11,15h2V13H11v2Z"/><path class="da299-13" d="M14,15V13H13v2Z"/><path class="da299-13" d="M12,15H11v1h2V15Z"/><path class="da299-13" d="M11,14V13H10v2h1Z"/><path class="da299-13" d="M13,12H11v1h2Z"/><rect class="da299-2" x="10" y="15" width="1" height="1"/><path class="da299-2" d="M11,17h2V16H11Z"/><rect class="da299-2" x="13" y="15" width="1" height="1"/><path class="da299-2" d="M10,15V13h1V12h2v1h1v2h1V9H11v1H10v1H9v4Z"/></svg>