<svg xmlns="http://www.w3.org/2000/svg" viewBox="0 0 29 33"><defs><style>polygon,rect,path{shape-rendering:crispedges;}.ab152-1{fill:#d4a122;}.ab152-2{fill:#000000;}.ab152-3{fill:#ffffff;}.ab152-4{fill:#e8b795;}.ab152-5{fill:#ffffff;}.ab152-6{fill:#ffffff;}.ab152-7{fill:#893a1f;}.ab152-8{fill:#ff5e17;}.ab152-9{fill:#fad000;}</style></defs><path class="ab152-1" d="M6,32V27H7V26H8V25h2V24H9V17H8V15H9V10h1V9h1V8h7V9h1v1h1v5h1v2H20v5H19v3h2v1h1v1h1v6h6V0H0V33H6Z"/><path class="ab152-2" d="M23,27H22v6h1V27Z"/><path class="ab152-3" d="M21,28h1V27H21Z"/><path class="ab152-3" d="M21,31h1V30H21Z"/><rect class="ab152-2" x="21" y="26" width="1" height="1"/><path class="ab152-2" d="M21,30V27H20v6h1V30Z"/><path class="ab152-3" d="M14,27H9v1H20V27H14Z"/><path class="ab152-3" d="M15,31h5V30H15Z"/><rect class="ab152-3" x="9" y="30" width="5" height="1"/><path class="ab152-2" d="M20,26h1V25H19v1Z"/><rect class="ab152-3" x="16" y="24" width="1" height="1"/><rect class="ab152-2" x="16" y="25" width="1" height="1"/><rect class="ab152-2" x="15" y="24" width="1" height="1"/><rect class="ab152-2" x="14" y="32" width="1" height="1"/><rect class="ab152-2" x="14" y="30" width="1" height="1"/><path class="ab152-2" d="M15,29V28H14v1Z"/><path class="ab152-2" d="M14,26v1h1V25H14Z"/><rect class="ab152-2" x="13" y="24" width="1" height="1"/><path class="ab152-4" d="M16,24V23H13v1h1v1h1V24Z"/><rect class="ab152-3" x="12" y="24" width="1" height="1"/><path class="ab152-2" d="M13,25H11v1h2Z"/><path class="ab152-2" d="M13,23h3v1h1V21H16v1H13V21H12v3h1Z"/><path class="ab152-2" d="M10,25H8v1h2Z"/><path class="ab152-2" d="M9,30V27H8v6H9V30Z"/><path class="ab152-3" d="M7,31H8V30H7Z"/><path class="ab152-3" d="M8,28V27H7v1Z"/><rect class="ab152-2" x="7" y="26" width="1" height="1"/><path class="ab152-2" d="M7,30V27H6v6H7V30Z"/><path class="ab152-5" d="M15,31H9v2h5V32h1v1h5V31Z"/><path class="ab152-5" d="M15,29H14V28H9v2H20V28H15Z"/><path class="ab152-5" d="M18,26H16V25H15v2h6V26H19V25H18Z"/><path class="ab152-5" d="M9,27h1V26H8v1Z"/><path class="ab152-5" d="M14,26V25H13v1H11v1h3Z"/><path class="ab152-5" d="M7,29v1H8V28H7Z"/><path class="ab152-5" d="M7,31v2H8V31Z"/><path class="ab152-5" d="M21,31v2h1V31Z"/><path class="ab152-5" d="M21,29v1h1V28H21Z"/><path class="ab152-2" d="M21,16V15H20v1Z"/><path class="ab152-4" d="M10,16v3h1v1h1v1h1v1h3V21h1V20h1V19h1V15H16V13h2V12H17V11H15V10H12v1H11v1h2v1H10v1h3v1H9v1Zm4,0h1v1H14Zm-1,3h3V18h1v1H16v1H13Z"/><path class="ab152-2" d="M19,16v3h1V16Z"/><rect class="ab152-2" x="18" y="19" width="1" height="1"/><rect class="ab152-2" x="17" y="20" width="1" height="1"/><rect class="ab152-2" x="11" y="20" width="1" height="1"/><rect class="ab152-2" x="10" y="19" width="1" height="1"/><path class="ab152-2" d="M10,18V16H9v3h1Z"/><path class="ab152-2" d="M9,15H8v1H9Z"/><rect class="ab152-2" x="14" y="16" width="1" height="1"/><path class="ab152-6" d="M13,15V14H12v1Z"/><path class="ab152-6" d="M11,15V14H10v1Z"/><path class="ab152-6" d="M18,14v1h1V14Z"/><path class="ab152-6" d="M16,14v1h1V14Z"/><path class="ab152-2" d="M12,15V14H11v1Z"/><path class="ab152-2" d="M17,14v1h1V14Z"/><path class="ab152-7" d="M13,13V12H11v1Z"/><path class="ab152-7" d="M18,14V13H16v1h2Z"/><rect class="ab152-2" x="13" y="19" width="3" height="1"/><rect class="ab152-2" x="16" y="18" width="1" height="1"/><path class="ab152-8" d="M10,27h1V25h1V21H11V20H10V19H9v5h1v3Z"/><path class="ab152-8" d="M10,14V13h1V11h1V10h3v1h2v1h1v2h1v2h1V10H19V9H18V8H11V9H10v1H9v5h1Z"/><path class="ab152-8" d="M19,20H18v1H17v5h1V25h1V22h1V19H19Z"/><path class="ab152-9" d="M20,17h1V16H20Z"/><path class="ab152-9" d="M8,16v1H9V16Z"/></svg>