<svg xmlns="http://www.w3.org/2000/svg" viewBox="0 0 29 33"><defs><style>polygon,rect,path{shape-rendering:crispedges;}.ka202-1{fill:#d14646;}.ka202-2{fill:#000000;}.ka202-3{fill:#45ba00;}.ka202-4{fill:#b2622b;}.ka202-5{fill:#ffffff;}.ka202-6{fill:#99582c;}.ka202-7{fill:#99582c;}.ka202-8{fill:#009b97;}.ka202-9{fill:#ccc;}</style></defs><path class="ka202-1" d="M6,32V27H7V26H8V25h2V24h2V21H11V20H10V19H9V18H7V14H8V11H9V10h1V9h1V8h7V9h1v1h1v1h1v3h1v4H20v1H19v1H18v1H17v3h2v1h2v1h1v1h1v6h6V0H0V33H6Z"/><path class="ka202-2" d="M23,27H22v6h1V27Z"/><rect class="ka202-2" x="21" y="26" width="1" height="1"/><path class="ka202-3" d="M22,27H21v6h1V27Z"/><path class="ka202-2" d="M21,27H20v6h1V27Z"/><path class="ka202-2" d="M20,26h1V25H19v1Z"/><path class="ka202-3" d="M20,27h1V26H19V25H17V24H16V23H13v1H12v1H10v1H8v1H9v6H20V27Z"/><path class="ka202-2" d="M18,25h1V24H17v1Z"/><path class="ka202-2" d="M13,23h3v1h1V21H16v1H13V21H12v3h1Z"/><path class="ka202-2" d="M12,24H10v1h2Z"/><path class="ka202-2" d="M10,25H8v1h2Z"/><path class="ka202-2" d="M9,27H8v6H9V27Z"/><rect class="ka202-2" x="7" y="26" width="1" height="1"/><path class="ka202-3" d="M8,27H7v6H8V27Z"/><path class="ka202-2" d="M7,27H6v6H7V27Z"/><polygon class="ka202-4" points="18 14 19 14 19 13 17 13 17 14 18 14"/><path class="ka202-4" d="M13,22h3V21h1V20h1V19h1V15H16V13h1V12h2V11H18V10H11v1H10v2h1V12h2v1H11v1h2v1H10v4h1v1h1v1h1Zm1-6h1v1H14Zm-2,3V18h5v1H16v1H13V19Z"/><path class="ka202-2" d="M19,17v2h1V17Z"/><rect class="ka202-2" x="18" y="19" width="1" height="1"/><rect class="ka202-2" x="17" y="20" width="1" height="1"/><rect class="ka202-2" x="11" y="20" width="1" height="1"/><rect class="ka202-2" x="10" y="19" width="1" height="1"/><path class="ka202-2" d="M9,17v2h1V17Z"/><rect class="ka202-2" x="14" y="16" width="1" height="1"/><path class="ka202-5" d="M13,15V14H12v1Z"/><path class="ka202-5" d="M10,15h1V14H10Z"/><path class="ka202-5" d="M18,14v1h1V14Z"/><path class="ka202-5" d="M16,14v1h1V14Z"/><path class="ka202-2" d="M12,15V14H11v1Z"/><path class="ka202-2" d="M17,14v1h1V14Z"/><rect class="ka202-6" x="10" y="13" width="1" height="1"/><rect class="ka202-6" x="11" y="12" width="2" height="1"/><path class="ka202-6" d="M17,13H16v1h1Z"/><rect class="ka202-6" x="17" y="12" width="2" height="1"/><path class="ka202-7" d="M16,19h1V18H12v1h4Z"/><path class="ka202-2" d="M13,20h3V19H13Z"/><path class="ka202-8" d="M19,12v2h1V11H19Z"/><rect class="ka202-8" x="18" y="10" width="1" height="1"/><path class="ka202-8" d="M12,10h6V9H11v1Z"/><rect class="ka202-8" x="10" y="10" width="1" height="1"/><path class="ka202-8" d="M9,14h1V11H9v3Z"/><path class="ka202-5" d="M9,16V11H8v3H7v3H8v1H9V16Z"/><rect class="ka202-5" x="9" y="10" width="1" height="1"/><rect class="ka202-5" x="10" y="9" width="1" height="1"/><path class="ka202-5" d="M18,9V8H11V9h7Z"/><rect class="ka202-5" x="18" y="9" width="1" height="1"/><rect class="ka202-5" x="19" y="10" width="1" height="1"/><path class="ka202-9" d="M9,14v3h1V14Z"/><path class="ka202-5" d="M20,14v4h1V17h1V14H21V11H20v3Z"/><path class="ka202-9" d="M20,16V14H19v3h1Z"/><path class="ka202-9" d="M7,17v1H8V17Z"/><path class="ka202-9" d="M21,18h1V17H21Z"/></svg>