<svg xmlns="http://www.w3.org/2000/svg" viewBox="0 0 29 33"><defs><style>polygon,rect,path{shape-rendering:crispedges;}.na183-1{fill:#db5a8e;}.na183-2{fill:#000000;}.na183-3{fill:#ffffff;}.na183-4{fill:#990000;}.na183-5{fill:#ce8452;}.na183-6{fill:#ffa9d0;}.na183-7{fill:#ffffff;}.na183-8{fill:#492a23;}.na183-9{fill:#492a23;}.na183-10{fill:#ffce00;}</style></defs><path class="na183-1" d="M0,33H6V27H7V26H8V25h2V24h2V21H11V20H10V19H9V16H8V15H9V11h1V10h1V9h7v1h1v1h1v4h1v1H20v3H19v1H18v1H17v3h2v1h2v1h1v1h1v6h6V0H0Z"/><path class="na183-2" d="M23,27H22v6h1V27Z"/><rect class="na183-2" x="21" y="26" width="1" height="1"/><path class="na183-3" d="M21,31h1V30H21Z"/><path class="na183-3" d="M21,28h1V27H21Z"/><path class="na183-2" d="M21,30V27H20v6h1V30Z"/><path class="na183-3" d="M18,28h2V27H18Z"/><path class="na183-3" d="M18,31h2V30H18Z"/><path class="na183-2" d="M20,26h1V25H19v1Z"/><path class="na183-2" d="M18,30V25h1V24H17v1H16v1h1v7h1V30Z"/><path class="na183-4" d="M17,26H16v1H13V26H12v7h5V26Z"/><path class="na183-2" d="M13,26v1h3V26H13Z"/><path class="na183-2" d="M13,23V22H12v2h1Z"/><path class="na183-5" d="M13,25v1h3V25h1V24H16V23H13v1H12v1Z"/><path class="na183-2" d="M12,26h1V25H12V24H10v1h1v8h1V26Z"/><path class="na183-3" d="M9,28h2V27H9Z"/><path class="na183-3" d="M9,31h2V30H9Z"/><path class="na183-2" d="M10,25H8v1h2Z"/><path class="na183-2" d="M9,30V27H8v6H9V30Z"/><rect class="na183-2" x="7" y="26" width="1" height="1"/><path class="na183-3" d="M7,31H8V30H7Z"/><path class="na183-3" d="M8,28V27H7v1Z"/><path class="na183-2" d="M7,30V27H6v6H7V30Z"/><path class="na183-6" d="M9,31v2h2V31Z"/><path class="na183-6" d="M18,31v2h2V31Z"/><path class="na183-6" d="M18,29v1h2V28H18Z"/><path class="na183-6" d="M9,29v1h2V28H9Z"/><path class="na183-6" d="M18,26v1h3V26H19V25H18Z"/><path class="na183-6" d="M9,27h2V25H10v1H8v1Z"/><path class="na183-6" d="M7,29v1H8V28H7Z"/><path class="na183-6" d="M7,31v2H8V31Z"/><path class="na183-6" d="M21,31v2h1V31Z"/><path class="na183-6" d="M21,29v1h1V28H21Z"/><rect class="na183-2" x="20" y="15" width="1" height="1"/><path class="na183-2" d="M19,15h1V14H19Z"/><rect class="na183-5" x="15" y="20" width="1" height="1"/><path class="na183-5" d="M10,14h2V13H10Z"/><rect class="na183-5" x="13" y="20" width="1" height="1"/><path class="na183-5" d="M10,17v1h1v1h1V18h2v1h1V18h2v1h1V18h1V16h1V15H16V14h2V13H16V12h2v1h1V11H18V10H11v1H10v1h2v1h1v2H9v1h1Zm4-1h1v1H14Z"/><path class="na183-2" d="M19,17h1V16H19Z"/><path class="na183-2" d="M16,23v1h1V22H16Z"/><path class="na183-2" d="M10,16H9v1h1Z"/><rect class="na183-2" x="8" y="15" width="1" height="1"/><rect class="na183-2" x="14" y="16" width="1" height="1"/><path class="na183-7" d="M18,14v1h1V14Z"/><path class="na183-7" d="M12,15h1V14H12Z"/><path class="na183-2" d="M17,14H16v1h2V14Z"/><path class="na183-2" d="M12,15V14H9v1h3Z"/><rect class="na183-8" x="18" y="13" width="1" height="1"/><rect class="na183-8" x="16" y="12" width="2" height="1"/><path class="na183-8" d="M13,14V13H12v1Z"/><rect class="na183-8" x="10" y="12" width="2" height="1"/><path class="na183-9" d="M15,18v1h1V18Z"/><path class="na183-9" d="M13,23h3V22h1V21h1V20h1V19h1V17H19v1H18v1H16v2H15V20H14v1H13V19h1V18H12v1H11V18H10V17H9v2h1v1h1v1h1v1h1Z"/><path class="na183-2" d="M14,19H13v1h3V19H14Z"/><path class="na183-2" d="M16,18v1h1V18Z"/><path class="na183-10" d="M19,14h1V11H19v3Z"/><rect class="na183-10" x="18" y="10" width="1" height="1"/><path class="na183-10" d="M18,10V9H11v1h7Z"/><rect class="na183-10" x="10" y="10" width="1" height="1"/><path class="na183-10" d="M10,13V11H9v3h1Z"/></svg>