<svg xmlns="http://www.w3.org/2000/svg" viewBox="0 0 29 33"><defs><style>polygon,rect,path{shape-rendering:crispedges;}.fb170-1{fill:#d4a122;}.fb170-2{fill:#000000;}.fb170-3{fill:#316a6d;}.fb170-4{fill:#ffffff;}.fb170-5{fill:#c18d59;}.fb170-6{fill:#90a2a3;}.fb170-7{fill:#ffffff;}.fb170-8{fill:#663228;}.fb170-9{fill:#663228;}.fb170-10{fill:#00af68;}.fb170-11{fill:#455054;}.fb170-12{fill:#ff1f4a;}.fb170-13{fill:#00af68;}.fb170-14{fill:#ffce00;}.fb170-15{fill:#38a6e8;}</style></defs><path class="fb170-1" d="M8,32H6V31H5V22H6V21H7V20H5v1H2V17H5V16H8V15H9V14H8V12H9V11H8V10H9V9H8V8h2V7h1V8h1V6h1V7h1V8h1V7h1V6h1V7h1V8h1V7h1V8H19V9h2v2H20v1h1v1H20v1h1v2H20v4H19v1H18v2h1v1h1v1h1v1h1v1h1v6h6V0H0V33H8Z"/><rect class="fb170-1" x="8" y="24" width="1" height="1"/><path class="fb170-1" d="M8,18v4H9v2h1V23h1V21H10V20H9V16H8v2Z"/><path class="fb170-2" d="M23,27H22v6h1V27Z"/><path class="fb170-3" d="M22,27H21v6h1V27Z"/><path class="fb170-2" d="M21,27h1V26H21V25H20v2H17v1h2v1h1v4h1V27Z"/><rect class="fb170-2" x="19" y="24" width="1" height="1"/><path class="fb170-3" d="M20,29H19v1H18v1H17v1H16v1h4V29Z"/><rect class="fb170-2" x="18" y="23" width="1" height="1"/><path class="fb170-3" d="M18,25H17v1H16v5h1V30h1V29h1V28H17V27h2V26h1V25H19V24H18Z"/><rect class="fb170-2" x="18" y="29" width="1" height="1"/><path class="fb170-2" d="M17,23h1V22H17Z"/><rect class="fb170-3" x="17" y="23" width="1" height="1"/><rect class="fb170-2" x="17" y="24" width="1" height="1"/><rect class="fb170-2" x="17" y="30" width="1" height="1"/><rect class="fb170-2" x="16" y="23" width="1" height="1"/><rect class="fb170-2" x="16" y="25" width="1" height="1"/><path class="fb170-2" d="M17,32V31H16V26H13v5H12v1h1v1h1V27h1v6h1V32Z"/><path class="fb170-4" d="M15,27H14v6h1V27Z"/><rect class="fb170-2" x="12" y="23" width="1" height="1"/><path class="fb170-5" d="M17,25V24H16V23H13v1H12v1h1v1h3V25Z"/><rect class="fb170-2" x="12" y="25" width="1" height="1"/><path class="fb170-3" d="M12,32V31H11V30H10V29H9v4h4V32Z"/><path class="fb170-2" d="M12,22H11v1h1Z"/><rect class="fb170-3" x="11" y="23" width="1" height="1"/><rect class="fb170-2" x="11" y="24" width="1" height="1"/><rect class="fb170-2" x="11" y="30" width="1" height="1"/><rect class="fb170-2" x="10" y="23" width="1" height="1"/><rect class="fb170-2" x="10" y="29" width="1" height="1"/><rect class="fb170-2" x="9" y="24" width="1" height="1"/><path class="fb170-3" d="M12,25H11V24H10v1H9v1h1v1h2v1H10v1h1v1h1v1h1V26H12Z"/><path class="fb170-2" d="M9,29h1V28h2V27H9V25H8V24H7v7H6v1H8v1H9V29Z"/><path class="fb170-3" d="M7,30V24H6v7H7Z"/><path class="fb170-2" d="M6,24V22H5v9H6V24Z"/><path class="fb170-6" d="M9,26v1h1V26Z"/><path class="fb170-6" d="M19,27h1V26H19Z"/><path class="fb170-2" d="M20,16h1V15H20Z"/><rect class="fb170-5" x="10" y="11" width="1" height="1"/><path class="fb170-5" d="M10,16v1h1v1h7V17h1V16h1V15H16V14h3V13H16V12H15V10H14v1H13v2H10v1h3v1H9v1Zm4,0h1v1H14Z"/><rect class="fb170-5" x="11" y="10" width="1" height="1"/><polygon class="fb170-5" points="18 11 18 10 17 10 17 11 16 11 16 12 18 12 18 11"/><rect class="fb170-2" x="8" y="15" width="1" height="1"/><rect class="fb170-2" x="14" y="16" width="1" height="1"/><path class="fb170-7" d="M13,15V14H12v1Z"/><path class="fb170-7" d="M11,15V14H10v1Z"/><path class="fb170-7" d="M18,14v1h1V14Z"/><path class="fb170-7" d="M16,14v1h1V14Z"/><path class="fb170-2" d="M12,15V14H11v1Z"/><path class="fb170-2" d="M17,14v1h1V14Z"/><path class="fb170-8" d="M11,13h2V12H11Z"/><path class="fb170-8" d="M16,12v1h2V12Z"/><path class="fb170-9" d="M19,17H18v1H17v1H16v1H13V19H12V18H11V17H10V16H9v4h1v1h1v1h1v1h5V22h1V21h1V20h1V16H19Z"/><path class="fb170-2" d="M13,19V18H12v1Z"/><path class="fb170-2" d="M17,19V18H16v1Z"/><path class="fb170-2" d="M13,19v1h3V19H15V18H14v1Z"/><path class="fb170-7" d="M14,19V18H13v1Z"/><path class="fb170-7" d="M16,19V18H15v1Z"/><path class="fb170-10" d="M10,14V13h1V12H10V11h1V10h1v1H11v1h2V11h1V10h1v2h1V11h1V10h1v3h1v2h2V14H20V13h1V12H20V11h1V9H19V8H18V7H17V6H16V7H15V8H14V7H13V6H12V8H11V7H10V8H8V9H9v1H8v1H9v1H8v2H9v1h1Z"/><rect class="fb170-10" x="19" y="7" width="1" height="1"/><path class="fb170-5" d="M7,24H8V22H6v2Z"/><path class="fb170-11" d="M8,22V20H7v2Z"/><path class="fb170-12" d="M3,20H2v1H5V20H3Z"/><path class="fb170-12" d="M8,19H5v1H8Z"/><path class="fb170-2" d="M7,21H6v1H7Z"/><path class="fb170-2" d="M9,22H8v2H9Z"/><path class="fb170-13" d="M7,17H8V16H5v1H7Z"/><path class="fb170-13" d="M5,18V17H2v1H5Z"/><path class="fb170-14" d="M8,17H6v2H8V17Z"/><path class="fb170-14" d="M4,20V18H2v2H4Z"/><path class="fb170-15" d="M6,19V17H5v1H4v2H5V19Z"/></svg>