<svg xmlns="http://www.w3.org/2000/svg" viewBox="0 0 29 33"><defs><style>polygon,rect,path{shape-rendering:crispedges;}.ja124-1{fill:#e55b35;}.ja124-2{fill:#000000;}.ja124-3{fill:#508e91;}.ja124-4{fill:#c4ea3b;}.ja124-5{fill:#b2622b;}.ja124-6{fill:#ffffff;}.ja124-7{fill:#8e4717;}.ja124-8{fill:#8e4717;}.ja124-9{fill:#5a2de2;}</style></defs><path class="ja124-1" d="M0,33H6V27H7V26H8V25h2V24h2V22H11V21H10V20H9V16H8V15H9V10h1V9h1V8h7V9h1v1h1v5h1v1H20v4H19v1H18v1H17v2h2v1h2v1h1v1h1v6h6V0H0Z"/><path class="ja124-2" d="M23,27H22v6h1V27Z"/><rect class="ja124-2" x="21" y="26" width="1" height="1"/><path class="ja124-3" d="M21,31v1h1V30H21Z"/><path class="ja124-3" d="M21,28h1V27H21Z"/><path class="ja124-2" d="M21,31V27H20v6h1V31Z"/><path class="ja124-2" d="M20,26h1V25H19v1Z"/><path class="ja124-3" d="M16,31V30H15V28H14V27H13V25H11v1h1v2h1v1h1v2h1v1h1v1h1V31Z"/><path class="ja124-3" d="M17,25v1h1v2h1v1h1V27H19V25H17Z"/><path class="ja124-3" d="M19,31V30H18V28H17V27H16V25H15V24H14V23H13v2h1v1h1v2h1v1h1v2h1v1h1v1h1V31Z"/><rect class="ja124-3" x="16" y="24" width="1" height="1"/><path class="ja124-3" d="M13,31V30H12V28H11V27H10V26H9v2h1v1h1v2h1v1h1v1h1V31Z"/><path class="ja124-3" d="M10,31V30H9v2h1v1h1V31Z"/><path class="ja124-2" d="M18,25h1V24H17v1Z"/><path class="ja124-2" d="M16,24h1V23H16Z"/><path class="ja124-2" d="M13,23H12v1h1Z"/><path class="ja124-2" d="M12,25V24H10v1h2Z"/><path class="ja124-2" d="M10,26V25H8v1h2Z"/><path class="ja124-2" d="M9,31V27H8v6H9V31Z"/><rect class="ja124-2" x="7" y="26" width="1" height="1"/><path class="ja124-3" d="M7,31v2H8V31Z"/><path class="ja124-3" d="M8,29V27H7v2Z"/><path class="ja124-2" d="M7,30V27H6v6H7V30Z"/><path class="ja124-4" d="M21,29v1h1V28H21Z"/><path class="ja124-4" d="M21,32v1h1V32Z"/><path class="ja124-4" d="M19,26v1h2V26H19Z"/><path class="ja124-4" d="M19,28H18v2h1v1h1V29H19Z"/><path class="ja124-4" d="M17,26V25H16v2h1v1h1V26Z"/><path class="ja124-4" d="M18,32V31H17v2h2V32Z"/><path class="ja124-4" d="M16,30v1h1V29H16V28H15v2Z"/><path class="ja124-4" d="M16,23H14v1h1v1h1V23Z"/><path class="ja124-4" d="M14,27v1h1V26H14V25H13v2Z"/><path class="ja124-4" d="M15,32V31H14v2h2V32Z"/><path class="ja124-4" d="M13,30v1h1V29H13V28H12v2Z"/><path class="ja124-4" d="M13,25V24H12v1Z"/><path class="ja124-4" d="M10,27h1v1h1V26H11V25H10v2Z"/><path class="ja124-4" d="M12,32V31H11v2h2V32Z"/><path class="ja124-4" d="M10,30v1h1V29H10V28H9v2Z"/><path class="ja124-4" d="M9,32v1h1V32Z"/><path class="ja124-4" d="M9,27V26H8v1Z"/><path class="ja124-4" d="M7,30v1H8V29H7Z"/><rect class="ja124-2" x="20" y="15" width="1" height="1"/><path class="ja124-2" d="M19,15h1V14H19Z"/><path class="ja124-5" d="M10,14h2V13H10Z"/><path class="ja124-5" d="M10,17h1v1h1v1h1V18h5V17h1V16h1V15H16V14h2V13H16V12h2v1h1V11H18V10H17v1H14V10H13v1H12V10H11v1H10v1h2v1h1v2H9v1h1Zm4-1h1v1H14Z"/><path class="ja124-2" d="M10,14H9v1h1Z"/><rect class="ja124-2" x="8" y="15" width="1" height="1"/><rect class="ja124-2" x="14" y="16" width="1" height="1"/><path class="ja124-6" d="M12,15h1V14H12Z"/><path class="ja124-6" d="M10,14v1h1V14Z"/><path class="ja124-6" d="M18,14v1h1V14Z"/><path class="ja124-6" d="M16,14v1h1V14Z"/><path class="ja124-2" d="M11,14v1h1V14Z"/><path class="ja124-2" d="M17,14v1h1V14Z"/><rect class="ja124-7" x="18" y="13" width="1" height="1"/><rect class="ja124-7" x="16" y="12" width="2" height="1"/><path class="ja124-7" d="M13,14V13H12v1Z"/><rect class="ja124-7" x="10" y="12" width="2" height="1"/><path class="ja124-8" d="M15,18H13v1h3V18Z"/><path class="ja124-8" d="M14,23h3V22h1V21h1V20h1V16H19v1H18v1H17v1H16v1H13V19H12V18H11V17H10V16H9v4h1v1h1v1h1v1h2Z"/><rect class="ja124-2" x="13" y="19" width="3" height="1"/><path class="ja124-2" d="M16,19h1V18H16Z"/><path class="ja124-9" d="M10,13V11h1V10h1v1h1V10h1v1h3V10h1v1h1v3h1V10H19V9H18V8H11V9H10v1H9v4h1Z"/></svg>