<svg xmlns="http://www.w3.org/2000/svg" viewBox="0 0 29 33"><defs><style>polygon,rect,path{shape-rendering:crispedges;}.ca232-1{fill:#6b4f99;}.ca232-2{fill:#000000;}.ca232-3{fill:#b2622b;}.ca232-4{fill:#ffffff;}.ca232-5{fill:#5e362f;}.ca232-6{fill:#ffffff;}.ca232-7{fill:#e70059;}.ca232-8{fill:#6e12ff;}</style></defs><path class="ca232-1" d="M6,32V27H7V26H8V25h2V24H9V16H8V15H9V10h1V9h1V8h7V9h1v1h1v5h1v1H20v6H19v3h2v1h1v1h1v6h6V0H0V33H6Z"/><path class="ca232-2" d="M23,27H22v6h1V27Z"/><rect class="ca232-2" x="21" y="26" width="1" height="1"/><path class="ca232-3" d="M22,27H21v6h1V27Z"/><rect class="ca232-3" x="20" y="26" width="1" height="1"/><path class="ca232-2" d="M21,27H20v6h1V27Z"/><path class="ca232-2" d="M20,26h1V25H19v1Z"/><path class="ca232-4" d="M20,27V26H19V25H18v1H17v1H16v1H13V27H12V26H11v1H10V26H9v7H20V27Z"/><rect class="ca232-2" x="16" y="26" width="1" height="1"/><path class="ca232-2" d="M13,27v1h3V27H13Z"/><path class="ca232-2" d="M13,23h3v1h1V21H16v1H13V21H12v3h1Z"/><path class="ca232-3" d="M16,24V23H13v1H12v2h1v1h3V26h1V24Z"/><rect class="ca232-2" x="12" y="26" width="1" height="1"/><path class="ca232-2" d="M11,25v1h1V25Z"/><path class="ca232-2" d="M10,26V25H8v1h2Z"/><path class="ca232-3" d="M9,27V26H8v1Z"/><path class="ca232-2" d="M9,27H8v6H9V27Z"/><rect class="ca232-2" x="7" y="26" width="1" height="1"/><path class="ca232-3" d="M8,27H7v6H8V27Z"/><path class="ca232-2" d="M7,27H6v6H7V27Z"/><rect class="ca232-2" x="20" y="15" width="1" height="1"/><path class="ca232-3" d="M11,13H10v1h2V13Z"/><path class="ca232-3" d="M16,13V12h1V11H15V10H12v1H11v1h1v1h1v1h5V13Z"/><path class="ca232-3" d="M13,22h3V21h1V20h1V19h1V16H18v1H16V16H15v1H14V16H13v1H11V16H10v3h1v1h1v1h1Zm-1-3V18h5v1H16v1H13V19Z"/><rect class="ca232-3" x="9" y="15" width="1" height="1"/><rect class="ca232-3" x="14" y="15" width="1" height="1"/><path class="ca232-2" d="M19,17v2h1V16H19Z"/><rect class="ca232-2" x="18" y="19" width="1" height="1"/><rect class="ca232-2" x="17" y="20" width="1" height="1"/><rect class="ca232-2" x="11" y="20" width="1" height="1"/><rect class="ca232-2" x="10" y="19" width="1" height="1"/><path class="ca232-2" d="M10,18V16H9v3h1Z"/><rect class="ca232-2" x="8" y="15" width="1" height="1"/><rect class="ca232-2" x="14" y="16" width="1" height="1"/><path class="ca232-5" d="M16,13h2V12H16Z"/><rect class="ca232-5" x="12" y="13" width="1" height="1"/><rect class="ca232-5" x="11" y="12" width="1" height="1"/><path class="ca232-2" d="M13,18H12v1h1Z"/><path class="ca232-2" d="M17,19V18H16v1Z"/><path class="ca232-2" d="M15,20h1V19H15Z"/><path class="ca232-2" d="M15,19V18H14v1Z"/><path class="ca232-2" d="M13,19v1h1V19Z"/><path class="ca232-6" d="M14,19V18H13v1Z"/><path class="ca232-6" d="M16,19V18H15v1Z"/><path class="ca232-7" d="M14,19v1h1V19Z"/><path class="ca232-8" d="M10,27h1V25h1V21H11V20H10V19H9v5h1v3Z"/><rect class="ca232-8" x="19" y="15" width="1" height="1"/><path class="ca232-8" d="M10,13h1V11h1V10h3v1h2v1h1v2h2V10H19V9H18V8H11V9H10v1H9v4h1Z"/><path class="ca232-8" d="M19,20H18v1H17v5h1V25h1V22h1V19H19Z"/><path class="ca232-2" d="M10,16h1v1h2V16h1V15h1v1h1v1h2V16h1V15h1V14H9v1h1Z"/></svg>