<svg xmlns="http://www.w3.org/2000/svg" viewBox="0 0 29 33"><defs><style>polygon,rect,path{shape-rendering:crispedges;}.ma281-1{fill:#d14646;}.ma281-2{fill:#000000;}.ma281-3{fill:#5a2de2;}.ma281-4{fill:#9e6969;}.ma281-5{fill:#e8b795;}.ma281-6{fill:#317f03;}.ma281-7{fill:#ffffff;}.ma281-8{fill:#7f5018;}.ma281-9{fill:#7f5018;}.ma281-10{fill:#00e2b7;}</style></defs><path class="ma281-1" d="M0,33H6V27H7V26H8V25h2V24h2V21H9V20H8V19H9V16H8V15H9V10h1V9h1V8h7V9h1v2h1v4h1v1H20v3h1v1H20v1H17v3h2v1h2v1h1v1h1v6h6V0H0Z"/><path class="ma281-2" d="M23,27H22v6h1V27Z"/><rect class="ma281-2" x="21" y="26" width="1" height="1"/><path class="ma281-3" d="M21,31h1V30H21Z"/><path class="ma281-3" d="M21,28h1V27H21Z"/><path class="ma281-2" d="M21,30V27H20v6h1V30Z"/><path class="ma281-3" d="M18,31h2V30H18Z"/><path class="ma281-3" d="M18,28h2V27H18Z"/><path class="ma281-2" d="M20,26h1V25H19v1Z"/><path class="ma281-2" d="M18,30V25h1V24H17v1H16v1h1v7h1V30Z"/><path class="ma281-4" d="M17,26H16v1H13V26H12v7h5V26Z"/><path class="ma281-2" d="M13,26v1h3V26H13Z"/><path class="ma281-2" d="M13,23h3v1h1V21H16v1H13V21H12v3h1Z"/><path class="ma281-5" d="M13,25v1h3V25h1V24H16V23H13v1H12v1Z"/><path class="ma281-2" d="M12,26h1V25H12V24H10v1h1v8h1V26Z"/><path class="ma281-3" d="M9,28h2V27H9Z"/><path class="ma281-3" d="M9,31h2V30H9Z"/><path class="ma281-2" d="M10,25H8v1h2Z"/><path class="ma281-2" d="M9,30V27H8v6H9V30Z"/><rect class="ma281-2" x="7" y="26" width="1" height="1"/><path class="ma281-3" d="M7,31H8V30H7Z"/><path class="ma281-3" d="M8,28V27H7v1Z"/><path class="ma281-2" d="M7,30V27H6v6H7V30Z"/><path class="ma281-6" d="M9,31v2h2V31Z"/><path class="ma281-6" d="M18,31v2h2V31Z"/><path class="ma281-6" d="M18,29v1h2V28H18Z"/><path class="ma281-6" d="M9,29v1h2V28H9Z"/><path class="ma281-6" d="M18,26v1h3V26H19V25H18Z"/><path class="ma281-6" d="M9,27h2V25H10v1H8v1Z"/><path class="ma281-6" d="M7,29v1H8V28H7Z"/><path class="ma281-6" d="M7,31v2H8V31Z"/><path class="ma281-6" d="M21,31v2h1V31Z"/><path class="ma281-6" d="M21,29v1h1V28H21Z"/><rect class="ma281-2" x="20" y="15" width="1" height="1"/><path class="ma281-2" d="M19,13v1H17v1h3V11H19v2Z"/><path class="ma281-5" d="M18,14h1V13H17v1Z"/><path class="ma281-5" d="M13,22h3V21h1V19H16v1H13V19H12v2h1Z"/><path class="ma281-5" d="M10,17v1h1v1h1V18h5v1h1V18h1V16h1V15H16V13h1V12h2V11H18V10H17v1H16V10H15v1H14V10H13v1H12V10H11v1H10v2h1V12h2v1H11v1h2v1H9v1h1Zm4-1h1v1H14Z"/><path class="ma281-2" d="M17,20v1h1V20Z"/><rect class="ma281-2" x="11" y="9" width="1" height="1"/><rect class="ma281-2" x="13" y="9" width="1" height="1"/><rect class="ma281-2" x="17" y="9" width="1" height="1"/><rect class="ma281-2" x="15" y="9" width="1" height="1"/><path class="ma281-2" d="M11,20v1h1V20Z"/><rect class="ma281-2" x="10" y="10" width="1" height="1"/><path class="ma281-2" d="M10,14V11H9v4h1Z"/><rect class="ma281-2" x="8" y="15" width="1" height="1"/><rect class="ma281-2" x="14" y="16" width="1" height="1"/><path class="ma281-7" d="M10,15h1V14H10Z"/><path class="ma281-7" d="M16,14v1h1V14Z"/><path class="ma281-2" d="M12,15h1V14H11v1Z"/><path class="ma281-8" d="M11,14V13H10v1Z"/><rect class="ma281-8" x="11" y="12" width="2" height="1"/><path class="ma281-8" d="M17,13H16v1h1Z"/><path class="ma281-8" d="M19,12H17v1h2Z"/><path class="ma281-9" d="M19,17v1H18v1H17v1h1v1h2V20h1V19H20V16H19Z"/><path class="ma281-9" d="M12,20V19H11V18H10V16H9v3H8v1H9v1h2V20Z"/><path class="ma281-2" d="M12,18v1h1V18Z"/><path class="ma281-2" d="M16,18v1h1V18Z"/><path class="ma281-2" d="M15,18H14v1H13v1h3V19H15Z"/><path class="ma281-7" d="M14,18H13v1h1Z"/><path class="ma281-7" d="M15,18v1h1V18Z"/><path class="ma281-10" d="M18,11h1V9H18v2Z"/><path class="ma281-10" d="M12,10v1h1V9h1v2h1V9h1v2h1V9h1V8H11V9h1Z"/><rect class="ma281-10" x="10" y="9" width="1" height="1"/><path class="ma281-10" d="M10,10H9v1h1Z"/></svg>