<svg xmlns="http://www.w3.org/2000/svg" viewBox="0 0 29 33"><defs><style>polygon,rect,path{shape-rendering:crispedges;}.da193-1{fill:#db5a8e;}.da193-2{fill:#000000;}.da193-3{fill:#333333;}.da193-4{fill:#e8b795;}.da193-5{fill:#ffffff;}.da193-6{fill:#99004d;}.da193-7{fill:#009b97;}.da193-8{fill:#00af68;}</style></defs><path class="da193-1" d="M6,32V27H7V26H8V25h2V24h2V21H9V20H8V19H9V16H8V15H9V11h1V10h1V9h7v1h1v1h1v4h1v1H20v3h1v1H20v1H17v3h2v1h2v1h1v1h1v6h6V0H0V33H6Z"/><path class="da193-2" d="M23,27H22v3H21V27H20v6h1V31h1v2h1V27Z"/><rect class="da193-2" x="21" y="26" width="1" height="1"/><path class="da193-3" d="M21,28v2h1V27H21Z"/><path class="da193-4" d="M21,31v2h1V31Z"/><path class="da193-2" d="M20,26h1V25H19v1Z"/><path class="da193-3" d="M20,27h1V26H19V25H17v1H16v1H13V26H12V25H10v1H8v1H9v6H20V27Z"/><path class="da193-2" d="M18,25h1V24H17v1Z"/><rect class="da193-2" x="16" y="25" width="1" height="1"/><path class="da193-2" d="M13,26v1h3V26H13Z"/><path class="da193-2" d="M13,23h3v1h1V21H16v1H13V21H12v3h1Z"/><path class="da193-4" d="M13,25v1h3V25h1V24H16V23H13v1H12v1Z"/><rect class="da193-2" x="12" y="25" width="1" height="1"/><path class="da193-2" d="M12,24H10v1h2Z"/><path class="da193-2" d="M10,25H8v1h2Z"/><path class="da193-2" d="M9,27H8v3H7V27H6v6H7V31H8v2H9V27Z"/><rect class="da193-2" x="7" y="26" width="1" height="1"/><path class="da193-3" d="M7,30H8V27H7v3Z"/><path class="da193-4" d="M7,31v2H8V31Z"/><rect class="da193-2" x="20" y="15" width="1" height="1"/><path class="da193-4" d="M13,22h3V21h1V19h1V18h1V17H18V16H16V15H15v2H14V15H9v1h1v2h1v1h1v2h1Zm0-3h3v1H13Z"/><rect class="da193-4" x="19" y="15" width="1" height="1"/><path class="da193-2" d="M17,20v1h1V20Z"/><path class="da193-2" d="M11,20v1h1V20Z"/><rect class="da193-2" x="8" y="15" width="1" height="1"/><path class="da193-2" d="M14,17h1V16H14Z"/><path class="da193-5" d="M12,14v1h1V14Z"/><path class="da193-5" d="M10,14v1h1V14Z"/><path class="da193-2" d="M11,14v1h1V14Z"/><rect class="da193-6" x="12" y="13" width="1" height="1"/><path class="da193-7" d="M19,17v1H18v1H17v1h1v1h2V20h1V19H20V16H19Z"/><path class="da193-7" d="M12,20V19H11V18H10V16H9v3H8v1H9v1h2V20Z"/><rect class="da193-2" x="13" y="19" width="3" height="1"/><path class="da193-8" d="M10,14h2V13h1v2h1v1h1V15h1v1h2v1h1V15h1V11H19V10H18V9H11v1H10v1H9v4h1Z"/></svg>