<svg xmlns="http://www.w3.org/2000/svg" viewBox="0 0 29 33"><defs><style>polygon,rect,path{shape-rendering:crispedges;}.ka157-1{fill:#d4a122;}.ka157-2{fill:#000000;}.ka157-3{fill:#ffffff;}.ka157-4{fill:#ff5e17;}.ka157-5{fill:#e8b795;}.ka157-6{fill:#ffffff;}.ka157-7{fill:#663228;}.ka157-8{fill:#fad000;}.ka157-9{fill:#663228;}.ka157-10{fill:#990000;}</style></defs><path class="ka157-1" d="M0,33H6V27H7V26H8V25h2V23h1V22h1V21H11V20H10V19H9V16H8V15H9V11h1V9h1V8h7V9h1v1h1v5h1v1H20v3H19v1H18v1H17v1h1v1h1v2h2v1h1v1h1v6h6V0H0Z"/><path class="ka157-2" d="M23,27H22v6h1V27Z"/><rect class="ka157-2" x="21" y="26" width="1" height="1"/><path class="ka157-3" d="M21,31h1V30H21Z"/><path class="ka157-3" d="M21,28h1V27H21Z"/><path class="ka157-2" d="M21,30V27H20v6h1V30Z"/><path class="ka157-2" d="M20,26h1V25H19v1Z"/><path class="ka157-3" d="M14,30H9v1H20V30H14Z"/><rect class="ka157-3" x="13" y="24" width="1" height="1"/><path class="ka157-3" d="M16,27v1h4V27H16Z"/><rect class="ka157-3" x="15" y="24" width="1" height="1"/><path class="ka157-3" d="M13,27H9v1h4Z"/><path class="ka157-2" d="M10,25H8v1h2Z"/><path class="ka157-2" d="M9,30V27H8v6H9V30Z"/><rect class="ka157-2" x="7" y="26" width="1" height="1"/><path class="ka157-3" d="M8,28V27H7v1Z"/><path class="ka157-3" d="M7,31H8V30H7Z"/><path class="ka157-2" d="M7,30V27H6v6H7V30Z"/><path class="ka157-4" d="M9,31v2H20V31Z"/><path class="ka157-4" d="M16,29H15v1h5V28H16Z"/><path class="ka157-4" d="M14,29H13V28H9v2h5Z"/><path class="ka157-4" d="M18,26H17v1h4V26H19V25H18Z"/><path class="ka157-4" d="M9,27h3V26H11V25H10v1H8v1Z"/><path class="ka157-4" d="M15,24h1V23H13v1h2Z"/><path class="ka157-4" d="M7,29v1H8V28H7Z"/><path class="ka157-4" d="M7,31v2H8V31Z"/><path class="ka157-4" d="M21,31v2h1V31Z"/><path class="ka157-4" d="M21,29v1h1V28H21Z"/><rect class="ka157-2" x="20" y="15" width="1" height="1"/><path class="ka157-5" d="M10,17v1h1v1h1v1h1v1h3V20h1V19h1V18h1V16h1V15H16V14h2V13H15V12H14V11H13V10H11v1H10v2h1V12h2v1H11v1h2v1H9v1h1Zm4-1h1v1H14Zm0,3h1v1H14Z"/><path class="ka157-2" d="M16,23v2h1V23h1V22H16Z"/><rect class="ka157-2" x="8" y="15" width="1" height="1"/><rect class="ka157-2" x="14" y="16" width="1" height="1"/><path class="ka157-6" d="M13,15V14H12v1Z"/><path class="ka157-6" d="M10,15h1V14H10Z"/><path class="ka157-6" d="M18,14v1h1V14Z"/><path class="ka157-6" d="M16,14v1h1V14Z"/><path class="ka157-2" d="M12,15V14H11v1Z"/><path class="ka157-2" d="M17,14v1h1V14Z"/><rect class="ka157-7" x="10" y="13" width="1" height="1"/><rect class="ka157-7" x="11" y="12" width="2" height="1"/><path class="ka157-2" d="M14,30h1V29H14Z"/><path class="ka157-2" d="M13,26H12v1h1Z"/><polygon class="ka157-2" points="15 28 15 29 16 29 16 28 16 27 15 27 15 28"/><rect class="ka157-2" x="16" y="26" width="1" height="1"/><path class="ka157-2" d="M13,27v2h1V27Z"/><rect class="ka157-2" x="17" y="25" width="1" height="1"/><rect class="ka157-2" x="11" y="25" width="1" height="1"/><path class="ka157-2" d="M15,24H14v1h1Z"/><rect class="ka157-2" x="13" y="25" width="1" height="1"/><rect class="ka157-2" x="15" y="25" width="1" height="1"/><path class="ka157-2" d="M12,24v1h1V22H11v1h1Z"/><rect class="ka157-8" x="16" y="25" width="1" height="1"/><path class="ka157-8" d="M15,26V25H14v1H13v1h1v2h1V27h1V26Z"/><rect class="ka157-8" x="12" y="25" width="1" height="1"/><path class="ka157-8" d="M11,25h1V23H11v2Z"/><path class="ka157-8" d="M17,24v1h1V23H17Z"/><path class="ka157-2" d="M19,25V23H18v2Z"/><path class="ka157-2" d="M11,24V23H10v2h1Z"/><path class="ka157-9" d="M13,23h3V22h1V21h1V20h1V19h1V16H19v2H18v1H17v1H16v1H13V20H12V19H11V18H10V16H9v3h1v1h1v1h1v1h1Z"/><rect class="ka157-2" x="14" y="19" width="1" height="1"/><path class="ka157-10" d="M11,10h2v1h1v1h1v1h3v1h1v1h1V10H19V9H18V8H11V9H10v2h1Z"/><path class="ka157-10" d="M10,14V11H9v4h1Z"/></svg>