<svg xmlns="http://www.w3.org/2000/svg" viewBox="0 0 29 33"><defs><style>polygon,rect,path{shape-rendering:crispedges;}.ca269-1{fill:#31a09d;}.ca269-2{fill:#000000;}.ca269-3{fill:#b2622b;}.ca269-4{fill:#95f9ed;}.ca269-5{fill:#009b97;}.ca269-6{fill:#5a2de2;}.ca269-7{fill:#ffffff;}.ca269-8{fill:#cc3232;}</style></defs><path class="ca269-1" d="M0,33H6V27H7V26H8V25h2V24h2V22H11V21H10v1H9V21H8V20H7V19H8V12H9V10h1V9h1V8h7V9h1v1h1v2h1v7h1v1H21v1H20v1H19V21H18v1H17v2h2v1h2v1h1v1h1v6h6V0H0Z"/><path class="ca269-2" d="M23,27H22v6h1V27Z"/><rect class="ca269-2" x="21" y="26" width="1" height="1"/><path class="ca269-3" d="M22,27H21v6h1V27Z"/><rect class="ca269-3" x="20" y="26" width="1" height="1"/><path class="ca269-2" d="M21,27H20v6h1V27Z"/><path class="ca269-2" d="M20,26h1V25H19v1Z"/><path class="ca269-4" d="M20,27V26H19V25H18v1H17v1H16v1H13V27H12V26H11V25H10v1H9v7h1V29h1v4h1V29h3v4h1V29h3v1H17v2h1V31h1v2h1V27Z"/><rect class="ca269-4" x="13" y="30" width="1" height="2"/><path class="ca269-2" d="M18,26V25h1V24H17v2Z"/><rect class="ca269-2" x="16" y="26" width="1" height="1"/><path class="ca269-2" d="M13,27v1h3V27H13Z"/><path class="ca269-2" d="M13,23h3v1h1V21H16v1H13V21H12v3h1Z"/><path class="ca269-3" d="M13,26v1h3V26h1V24H16V23H13v1H12v2Z"/><rect class="ca269-2" x="12" y="26" width="1" height="1"/><path class="ca269-2" d="M11,26h1V24H10v1h1Z"/><path class="ca269-2" d="M10,26V25H8v1h2Z"/><path class="ca269-3" d="M9,27V26H8v1Z"/><path class="ca269-2" d="M9,27H8v6H9V27Z"/><rect class="ca269-2" x="7" y="26" width="1" height="1"/><path class="ca269-3" d="M8,27H7v6H8V27Z"/><path class="ca269-2" d="M7,27H6v6H7V27Z"/><path class="ca269-5" d="M12,29v4h3V29Zm2,3H13V30h1Z"/><path class="ca269-5" d="M11,29H10v4h1V29Z"/><path class="ca269-5" d="M18,31v1H17V30h2V29H16v4h3V31Z"/><path class="ca269-2" d="M20,16h1V15H20Z"/><path class="ca269-3" d="M14,14h2V13H13v1Z"/><path class="ca269-3" d="M15,10H13v1h3V10Z"/><path class="ca269-3" d="M18,20V19h1V17H16V16H15v1H14V16H13v1H10v2h1v1h1v1h1v1h3V21h1V20Zm-2,0H13V19h3Z"/><rect class="ca269-3" x="14" y="15" width="1" height="1"/><path class="ca269-2" d="M19,18v1h1V16H19v2Z"/><rect class="ca269-2" x="18" y="19" width="1" height="1"/><rect class="ca269-2" x="17" y="20" width="1" height="1"/><rect class="ca269-2" x="11" y="20" width="1" height="1"/><rect class="ca269-2" x="10" y="19" width="1" height="1"/><path class="ca269-2" d="M10,16H9v3h1V16Z"/><path class="ca269-2" d="M9,15H8v1H9Z"/><rect class="ca269-2" x="14" y="16" width="1" height="1"/><rect class="ca269-2" x="13" y="19" width="3" height="1"/><path class="ca269-6" d="M20,17v2H19v1H18v1h1v1h1V21h1V20h1V19H21V16H20Z"/><path class="ca269-6" d="M19,13v1h2V12H20v1Z"/><path class="ca269-6" d="M13,11V10h3v1h4V10H19V9H18V8H11V9H10v1H9v1h4Z"/><path class="ca269-6" d="M10,13H9V12H8v2h2Z"/><path class="ca269-6" d="M10,20V19H9V16H8v3H7v1H8v1H9v1h1V21h1V20Z"/><path class="ca269-6" d="M11,21v1h1V21Z"/><path class="ca269-6" d="M17,22h1V21H17Z"/><path class="ca269-7" d="M19,16h1V15h1V14H19Z"/><path class="ca269-7" d="M17,14h2V13H16v1Z"/><path class="ca269-2" d="M16,14v2h3V14H16Z"/><path class="ca269-7" d="M16,16v1h3V16H16Z"/><path class="ca269-7" d="M14,14H13v2h1V15h1v1h1V14Z"/><path class="ca269-7" d="M13,14V13H10v1h3Z"/><path class="ca269-2" d="M13,16V14H10v2h3Z"/><path class="ca269-7" d="M11,17h2V16H10v1Z"/><path class="ca269-7" d="M9,16h1V14H8v1H9Z"/><path class="ca269-7" d="M20,12V11H9v1H20Z"/><path class="ca269-8" d="M10,13H20V12H9v1Z"/></svg>