<svg xmlns="http://www.w3.org/2000/svg" viewBox="0 0 29 33"><defs><style>polygon,rect,path{shape-rendering:crispedges;}.ea112-1{fill:#d4a122;}.ea112-2{fill:#000000;}.ea112-3{fill:#ffffff;}.ea112-4{fill:#e8b795;}.ea112-5{fill:#0068ff;}.ea112-6{fill:#ffffff;}.ea112-7{fill:#893a1f;}.ea112-8{fill:#a7af69;}</style></defs><path class="ea112-1" d="M0,33H6V27H7V26H8V25h2V24h2V21H11V20H10V19H9V16H8V15H9V10h1V9h1V8h7V9h1v1h1v5h1v1H20v3H19v1H18v1H17v3h2v1h2v1h1v1h1v6h6V0H0Z"/><path class="ea112-2" d="M23,27H22v3H21V27H20v6h1V31h1v2h1V27Z"/><rect class="ea112-2" x="21" y="26" width="1" height="1"/><path class="ea112-3" d="M21,28v2h1V27H21Z"/><path class="ea112-4" d="M21,31v2h1V31Z"/><path class="ea112-2" d="M20,26h1V25H19v1Z"/><path class="ea112-3" d="M20,27h1V26H19V25H17v1H16v1H13V26H12V25H10v1H8v1H9v6h1V30h1V29h1V28h5v1h1v1h1v3h1V27Z"/><rect class="ea112-3" x="12" y="30" width="1" height="1"/><rect class="ea112-3" x="16" y="30" width="1" height="1"/><path class="ea112-3" d="M16,32H12v1h5V32Z"/><path class="ea112-2" d="M18,25h1V24H17v1Z"/><rect class="ea112-2" x="16" y="25" width="1" height="1"/><path class="ea112-2" d="M13,26v1h3V26H13Z"/><path class="ea112-2" d="M13,23h3v1h1V21H16v1H13V21H12v3h1Z"/><path class="ea112-4" d="M13,25v1h3V25h1V24H16V23H13v1H12v1Z"/><rect class="ea112-2" x="12" y="25" width="1" height="1"/><path class="ea112-2" d="M12,24H10v1h2Z"/><path class="ea112-2" d="M10,25H8v1h2Z"/><path class="ea112-2" d="M9,27H8v3H7V27H6v6H7V31H8v2H9V27Z"/><rect class="ea112-2" x="7" y="26" width="1" height="1"/><path class="ea112-3" d="M7,30H8V27H7v3Z"/><path class="ea112-4" d="M7,31v2H8V31Z"/><path class="ea112-5" d="M19,30H18V29H17V28H12v1H11v1H10v3h2V32h5v1h2V30Zm-6,1H12V30h1Zm4,0H16V30h1Z"/><rect class="ea112-2" x="20" y="15" width="1" height="1"/><path class="ea112-2" d="M19,15h1V14H19Z"/><path class="ea112-4" d="M13,22h3V21h1V20h1V19h1V16h1V15H16V14h3V13H16V12h2V11H17V10H12v1H11v1h2v1H10v1h3v1H9v1h1v3h1v1h1v1h1Zm1-6h1v1H14Zm-1,3h3v1H13Z"/><path class="ea112-2" d="M19,17v2h1V16H19Z"/><rect class="ea112-2" x="18" y="19" width="1" height="1"/><rect class="ea112-2" x="17" y="20" width="1" height="1"/><rect class="ea112-2" x="11" y="20" width="1" height="1"/><rect class="ea112-2" x="10" y="19" width="1" height="1"/><path class="ea112-2" d="M10,16H9v3h1V16Z"/><rect class="ea112-2" x="8" y="15" width="1" height="1"/><rect class="ea112-2" x="14" y="16" width="1" height="1"/><path class="ea112-6" d="M18,14v1h1V14Z"/><path class="ea112-6" d="M13,15V14H12v1Z"/><path class="ea112-2" d="M17,14H16v1h2V14Z"/><path class="ea112-2" d="M12,15V14H9v1h3Z"/><path class="ea112-7" d="M10,13h3V12H10Z"/><polygon class="ea112-7" points="18 12 16 12 16 13 19 13 19 12 18 12"/><rect class="ea112-2" x="13" y="19" width="3" height="1"/><path class="ea112-8" d="M10,13V12h1V11h1V10h5v1h1v1h1v2h1V10H19V9H18V8H11V9H10v1H9v4h1Z"/></svg>