<svg xmlns="http://www.w3.org/2000/svg" viewBox="0 0 29 33"><defs><style>polygon,rect,path{shape-rendering:crispedges;}.cb119-1{fill:#e55b35;}.cb119-2{fill:#000000;}.cb119-3{fill:#333333;}.cb119-4{fill:#ffffff;}.cb119-5{fill:#b2622b;}.cb119-6{fill:#5e362f;}.cb119-7{fill:#5e362f;}.cb119-8{fill:#45ba00;}.cb119-9{fill:#455054;}.cb119-10{fill:#29834f;}.cb119-11{fill:#ff791f;}</style></defs><path class="cb119-1" d="M8,32H6V31H5V22H6V21H7V20H5v1H2V17H5V16H8V12H9V11h1V10h1V9h7v1h1v1h1v2h1v5H20v2H18v1H17v2h1v1h1v1h2v1h1v1h1v6h6V0H0V33H8Z"/><path class="cb119-1" d="M11,24V23h1V21H11V20H9V18H8v4H9v2H8v1h2V24Z"/><path class="cb119-2" d="M23,27H22v6h1V27Z"/><rect class="cb119-2" x="21" y="26" width="1" height="1"/><path class="cb119-3" d="M22,27H21v6h1V27Z"/><path class="cb119-2" d="M21,27H20v6h1V27Z"/><path class="cb119-2" d="M20,26h1V25H19v1Z"/><path class="cb119-3" d="M20,27h1V26H19V25H18v4H17v4h3V27Z"/><rect class="cb119-4" x="16" y="24" width="1" height="1"/><path class="cb119-2" d="M17,29H16v4h1V29Z"/><rect class="cb119-4" x="15" y="23" width="1" height="1"/><path class="cb119-4" d="M16,29h1V26H16V25H13v1H12v3h1v4h1V32h1v1h1V29Zm-1,2H14V30h1Zm0-2H14V28h1Zm0-2H14V26h1Z"/><rect class="cb119-2" x="14" y="26" width="1" height="1"/><rect class="cb119-2" x="14" y="28" width="1" height="1"/><rect class="cb119-2" x="14" y="30" width="1" height="1"/><rect class="cb119-2" x="14" y="32" width="1" height="1"/><rect class="cb119-4" x="13" y="23" width="1" height="1"/><rect class="cb119-4" x="12" y="24" width="1" height="1"/><path class="cb119-2" d="M13,29H12v4h1V29Z"/><path class="cb119-3" d="M12,29H11V25H10v1H8v1H9v6h3V29Z"/><path class="cb119-2" d="M9,27H8V26h2V25H8V24H7v7H6v1H8v1H9V27Z"/><path class="cb119-4" d="M6,25H7V24H6Z"/><path class="cb119-3" d="M7,30V25H6v6H7Z"/><path class="cb119-2" d="M6,25V22H5v9H6V25Z"/><rect class="cb119-5" x="19" y="15" width="1" height="1"/><path class="cb119-5" d="M18,14V13H16v1h2Z"/><path class="cb119-5" d="M11,19h1V18h5v1h2V18H18V15H17v2H16V15H15V11H14v1H13v2h1v2h1v1H14V16H13V15H11v3H10v1Z"/><rect class="cb119-5" x="11" y="11" width="1" height="1"/><rect class="cb119-5" x="11" y="13" width="1" height="1"/><rect class="cb119-5" x="15" y="20" width="1" height="1"/><rect class="cb119-5" x="13" y="20" width="1" height="1"/><rect class="cb119-5" x="12" y="19" width="1" height="1"/><rect class="cb119-5" x="16" y="19" width="1" height="1"/><rect class="cb119-5" x="9" y="15" width="1" height="1"/><path class="cb119-2" d="M19,16v2h1V16Z"/><path class="cb119-2" d="M18,19v1h1V19Z"/><rect class="cb119-2" x="17" y="20" width="1" height="1"/><path class="cb119-2" d="M16,22H13V21H12v2H11v1H10v1h1v4h1V26h1V25H12V24h1V23h1v1H13v1h3V24H15V23h1v1h1v1H16v1h1v3h1V25h1V24H18V23H17V21H16Z"/><rect class="cb119-2" x="11" y="20" width="1" height="1"/><path class="cb119-2" d="M10,19v1h1V19Z"/><rect class="cb119-2" x="9" y="14" width="1" height="1"/><path class="cb119-2" d="M10,17V16H9v2h1Z"/><rect class="cb119-2" x="14" y="16" width="1" height="1"/><path class="cb119-4" d="M13,15V14H12v1Z"/><path class="cb119-4" d="M17,14H16v1h1Z"/><path class="cb119-2" d="M12,14H11v1h1Z"/><path class="cb119-2" d="M17,15h1V14H17Z"/><path class="cb119-6" d="M18,12H16v1h2Z"/><rect class="cb119-6" x="11" y="12" width="1" height="1"/><path class="cb119-7" d="M17,19v1h1V19Z"/><rect class="cb119-7" x="16" y="20" width="1" height="1"/><path class="cb119-7" d="M15,20H14v1H13v1h3V21H15Z"/><path class="cb119-7" d="M14,19h2V18H12v1h2Z"/><rect class="cb119-7" x="12" y="20" width="1" height="1"/><rect class="cb119-7" x="11" y="19" width="1" height="1"/><path class="cb119-2" d="M15,19H13v1h3V19Z"/><path class="cb119-2" d="M16,18v1h1V18Z"/><path class="cb119-8" d="M9,18V14h1v4h1V11h1v3h1V12h1V11h1v4h1V12h2v6h1V15h1v3h1V13H20V11H19V10H18V9H11v1H10v1H9v1H8v6Z"/><path class="cb119-8" d="M10,20V18H9v2Z"/><path class="cb119-8" d="M13,16h1V14H13v2Z"/><path class="cb119-8" d="M17,17V15H16v2Z"/><path class="cb119-8" d="M19,19v1h1V18H19Z"/><path class="cb119-5" d="M7,24H8V22H6v2Z"/><path class="cb119-9" d="M8,22V20H7v2Z"/><path class="cb119-2" d="M7,21H6v1H7Z"/><path class="cb119-2" d="M9,22H8v2H9Z"/><path class="cb119-10" d="M4,17H2v4H4V17Z"/><path class="cb119-11" d="M8,19V16H6v4H8Z"/><path class="cb119-4" d="M6,16H5v1H4v4H5V20H6V16Z"/></svg>