<svg xmlns="http://www.w3.org/2000/svg" viewBox="0 0 29 33"><defs><style>polygon,rect,path{shape-rendering:crispedges;}.pa231-1{fill:#b4bd09;}.pa231-2{fill:#000000;}.pa231-3{fill:#4fdb7d;}.pa231-4{fill:#c18d59;}.pa231-5{fill:#00774c;}.pa231-6{fill:#ffffff;}.pa231-7{fill:#6c9302;}.pa231-8{fill:#cc3232;}</style></defs><path class="pa231-1" d="M0,33H6V27H7V26H8V25h2V24h1V23H10V22h1V20H10V19H9V16H8V15H9V11h1V9h1V8h7V9h1v1h1v5h1v1H20v3H19v1H18v2h1v1H18v1h1v1h2v1h1v1h1v6h6V0H0Z"/><path class="pa231-2" d="M23,27H22v6h1V27Z"/><path class="pa231-3" d="M22,27H21v6h1V27Z"/><rect class="pa231-2" x="21" y="26" width="1" height="1"/><path class="pa231-2" d="M21,27H20v6h1V27Z"/><path class="pa231-3" d="M20,27h1V26H19V25H18V24H16v1h1v3h2v1H17v2h1V30h1v2H16V25H13v3h2v4H12V25h1V24H11v1H10v1H8v1H9v6H20V27Zm-9,2v3H10V28h1Z"/><path class="pa231-2" d="M20,26h1V25H19v1Z"/><rect class="pa231-2" x="18" y="24" width="1" height="1"/><rect class="pa231-2" x="18" y="22" width="1" height="1"/><rect class="pa231-3" x="17" y="22" width="1" height="1"/><path class="pa231-2" d="M13,24v1h3V24H13Z"/><path class="pa231-4" d="M15,23H13v1h3V23Z"/><path class="pa231-2" d="M13,23h3v1h2V23H17V22h1V20H17v1H16v1H13V21H12V20H11v2h1v1H11v1h2Z"/><rect class="pa231-3" x="11" y="22" width="1" height="1"/><rect class="pa231-2" x="10" y="24" width="1" height="1"/><rect class="pa231-2" x="10" y="22" width="1" height="1"/><path class="pa231-2" d="M10,25H8v1h2Z"/><path class="pa231-2" d="M9,27H8v6H9V27Z"/><path class="pa231-3" d="M8,27H7v6H8V27Z"/><rect class="pa231-2" x="7" y="26" width="1" height="1"/><path class="pa231-2" d="M7,27H6v6H7V27Z"/><path class="pa231-3" d="M14,31V29H13v2Z"/><path class="pa231-5" d="M14,29v2H13V30H12v2h3V28H13v1Z"/><path class="pa231-5" d="M10,29v3h1V28H10Z"/><path class="pa231-5" d="M18,29h1V28H17v1Z"/><path class="pa231-5" d="M16,31v1h3V30H18v1H17V30H16Z"/><path class="pa231-2" d="M12,26v4h1V25H12Z"/><path class="pa231-2" d="M16,30h1V25H16v5Z"/><rect class="pa231-2" x="20" y="15" width="1" height="1"/><path class="pa231-2" d="M19,12v3h1V11H19Z"/><path class="pa231-4" d="M10,14h2V13H10Z"/><path class="pa231-4" d="M12,21h1v1h3V21h1V20h1V19h1V16h1V15H16V14h2V13H16V12h2v1h1V11H18V10H17v1H16V10H15v1H14V10H13v1H12V10H11v1H10v1h2v1h1v2H9v1h1v3h1v1h1Zm2-5h1v1H14Zm-1,3h3V18h1v1H16v1H13Z"/><path class="pa231-2" d="M19,17v2h1V16H19Z"/><rect class="pa231-2" x="18" y="10" width="1" height="1"/><rect class="pa231-2" x="18" y="19" width="1" height="1"/><rect class="pa231-2" x="13" y="9" width="1" height="1"/><rect class="pa231-2" x="15" y="9" width="1" height="1"/><rect class="pa231-2" x="11" y="9" width="1" height="1"/><rect class="pa231-2" x="17" y="9" width="1" height="1"/><rect class="pa231-2" x="10" y="19" width="1" height="1"/><path class="pa231-2" d="M10,14V11H9v4h1Z"/><path class="pa231-2" d="M10,16H9v3h1V16Z"/><rect class="pa231-2" x="8" y="15" width="1" height="1"/><rect class="pa231-2" x="14" y="16" width="1" height="1"/><path class="pa231-6" d="M12,15h1V14H12Z"/><path class="pa231-6" d="M10,14v1h1V14Z"/><path class="pa231-6" d="M18,14v1h1V14Z"/><path class="pa231-6" d="M16,14v1h1V14Z"/><path class="pa231-2" d="M11,14v1h1V14Z"/><path class="pa231-2" d="M17,14v1h1V14Z"/><path class="pa231-7" d="M19,13H18v1h1Z"/><rect class="pa231-7" x="16" y="12" width="2" height="1"/><path class="pa231-7" d="M13,14V13H12v1Z"/><path class="pa231-7" d="M12,13V12H10v1Z"/><rect class="pa231-2" x="13" y="19" width="3" height="1"/><rect class="pa231-2" x="16" y="18" width="1" height="1"/><path class="pa231-8" d="M11,10V9H10v2h1Z"/><path class="pa231-8" d="M12,10v1h1V9h1v2h1V9h1v2h1V9h1V8H11V9h1Z"/><rect class="pa231-8" x="18" y="9" width="1" height="1"/><path class="pa231-8" d="M20,11V10H19v1Z"/></svg>