<svg xmlns="http://www.w3.org/2000/svg" viewBox="0 0 29 33"><defs><style>polygon,rect,path{shape-rendering:crispedges;}.ab75-1{fill:#d4a122;}.ab75-2{fill:#000000;}.ab75-3{fill:#ff791f;}.ab75-4{fill:#ce8452;}.ab75-5{fill:#db5800;}.ab75-6{fill:#e2e2e2;}.ab75-7{fill:#825fff;}.ab75-8{fill:#ffffff;}.ab75-9{fill:#c6e5e4;}</style></defs><path class="ab75-1" d="M0,33H6V27H7V26H8V25h2V24h1V23h1V21H11V20H9V19H8V11H9V10h1V9h1V8h7V9h1v1h1v1h1v8H20v1H18v1H17v2h1v1h1v1h2V23h2V22H22V21H21V20h1V19h3v1h1v1H25v1H24v1h1v1H24v7H23v1H21v1h8V0H0Z"/><path class="ab75-2" d="M23,25v6h1V24H23Z"/><path class="ab75-2" d="M7,31V27H6v6H7V31Z"/><path class="ab75-3" d="M7,30v1H8V29H7Z"/><path class="ab75-3" d="M8,28V27H7v1Z"/><path class="ab75-3" d="M7,32v1H8V32Z"/><rect class="ab75-2" x="7" y="26" width="1" height="1"/><path class="ab75-2" d="M9,31V27H8v6H9V31Z"/><path class="ab75-3" d="M9,32v1h1V32Z"/><rect class="ab75-3" x="19" y="32" width="1" height="1"/><path class="ab75-3" d="M17,32V31h1V30h1v1h1V29H19V28h1V27h1V26H19v1H18V26H15v1H14V26H11v1H10V26H8v1H9v1h1v1H9v2h1V30h1v1h1v1H11v1h3V32H13V31h1V30h1v1h1v1H15v1h3V32Zm-2-3H13v1H12V29H11V28h1V27h1v1h3V27h1v1h1v1H17v1H16V29Z"/><path class="ab75-2" d="M10,25H8v1h2Z"/><rect class="ab75-3" x="12" y="24" width="1" height="1"/><path class="ab75-2" d="M11,26h2V25H12V24h1V23h3v1h1v1H16v1h2V25h1V24H18V23H17V21H16v1H13V21H12v2H11v1H10v1h1Z"/><rect class="ab75-2" x="13" y="24" width="1" height="1"/><rect class="ab75-2" x="14" y="32" width="1" height="1"/><rect class="ab75-2" x="14" y="30" width="1" height="1"/><path class="ab75-2" d="M14,28v1h1V28Z"/><path class="ab75-2" d="M14,25v2h1V25Z"/><rect class="ab75-2" x="15" y="24" width="1" height="1"/><path class="ab75-4" d="M14,25h1V24h1V23H13v1h1Z"/><rect class="ab75-3" x="16" y="24" width="1" height="1"/><path class="ab75-2" d="M22,32h1V31H22V23H21v2H19v1h2v1H20v6h1V32Z"/><path class="ab75-3" d="M23,29V27H22v3h1Z"/><path class="ab75-5" d="M20,32V31H19V30H18v1H17v1h1v1h1V32Z"/><path class="ab75-5" d="M22,30v1h1V30Z"/><path class="ab75-5" d="M23,26V24H22v3h1Z"/><path class="ab75-5" d="M17,30V29h1V28H17V27H16v1H15v1h1v1Z"/><polygon class="ab75-5" points="18 26 18 27 19 27 19 26 19 25 18 25 18 26"/><path class="ab75-5" d="M15,25v1h1V25Z"/><path class="ab75-5" d="M13,25v1h1V25Z"/><path class="ab75-5" d="M13,28V27H12v1H11v1h1v1h1V29h1V28Z"/><polygon class="ab75-5" points="10 27 11 27 11 26 11 25 10 25 10 26 10 27"/><path class="ab75-5" d="M19,29h1V28H19Z"/><path class="ab75-5" d="M7,29H8V28H7Z"/><path class="ab75-5" d="M10,29V28H9v1Z"/><path class="ab75-5" d="M7,32H8V31H7Z"/><polygon class="ab75-5" points="16 32 16 31 15 31 14 31 13 31 13 32 14 32 15 32 16 32"/><path class="ab75-5" d="M12,32V31H11V30H10v1H9v1h1v1h1V32Z"/><rect class="ab75-4" x="9" y="15" width="1" height="1"/><rect class="ab75-4" x="14" y="15" width="1" height="1"/><rect class="ab75-4" x="19" y="15" width="1" height="1"/><path class="ab75-4" d="M16,14V13h1V11H15V10H14v1H13v2H11v1h5Z"/><path class="ab75-4" d="M18,14h1V13H17v1Z"/><path class="ab75-4" d="M13,22h3V21h1V20h1V19h1V16H18v1H16V16H15v1H14V16H13v1H11V16H10v3h1v1h1v1h1Zm-1-3V18h1v1h3v1H13V19Z"/><path class="ab75-2" d="M20,16H19v3h1V16Z"/><path class="ab75-2" d="M18,19v1h1V19Z"/><rect class="ab75-2" x="17" y="20" width="1" height="1"/><rect class="ab75-2" x="11" y="20" width="1" height="1"/><path class="ab75-2" d="M10,19v1h1V19Z"/><path class="ab75-2" d="M10,18V16H9v3h1Z"/><rect class="ab75-2" x="14" y="16" width="1" height="1"/><path class="ab75-6" d="M13,12H12v1h1Z"/><rect class="ab75-6" x="16" y="13" width="1" height="1"/><rect class="ab75-2" x="13" y="19" width="3" height="1"/><rect class="ab75-2" x="12" y="18" width="1" height="1"/><path class="ab75-7" d="M9,16V14h2V13h1V12h1V11h1V10h1v1h2v2h2v1h1v5h1V11H20V10H19V9H18V8H11V9H10v1H9v1H8v8H9V16Z"/><path class="ab75-7" d="M9,19v1h1V19Z"/><path class="ab75-7" d="M19,20h1V19H19Z"/><path class="ab75-2" d="M20,15V14H9v1h1v1h1v1h2V16h1V15h1v1h1v1h2V16h1V15Z"/><path class="ab75-8" d="M25,22V21h1V20H25V19H23v1h1v1H23v1h2Z"/><path class="ab75-9" d="M24,21V20H23V19H22v1H21v1h1v1h1V21Z"/><path class="ab75-9" d="M24,22H23v1h1Z"/><path class="ab75-4" d="M23,24h1V23H22v1Z"/><rect class="ab75-2" x="24" y="23" width="1" height="1"/></svg>