<svg xmlns="http://www.w3.org/2000/svg" viewBox="0 0 29 33"><defs><style>polygon,rect,path{shape-rendering:crispedges;}.bb148-1{fill:#29834f;}.bb148-2{fill:#000000;}.bb148-3{fill:#333333;}.bb148-4{fill:#ffffff;}.bb148-5{fill:#e8b795;}.bb148-6{fill:#b23b00;}.bb148-7{fill:#b23b00;}.bb148-8{fill:#009b97;}</style></defs><path class="bb148-1" d="M0,33H6V27H7V26H8V25h2V24h1V23h1V22H11V21H10V20H9V16H8V15H9V11h1V10h1V9h2V7h1V6h2V5h2V6H17V7h1V9h1v2h1v4h1v1H20v4H19v1H18v1H17v1h1v1h1v1h2v1h1v1h1v6h6V0H0Z"/><path class="bb148-2" d="M23,27H22v6h1V27Z"/><path class="bb148-3" d="M22,27H21v6h1V27Z"/><rect class="bb148-2" x="21" y="26" width="1" height="1"/><path class="bb148-2" d="M21,27H20v6h1V27Z"/><path class="bb148-3" d="M20,27h1V26H19V25H18v4H17v4h3V27Z"/><path class="bb148-2" d="M20,26h1V25H19v1Z"/><path class="bb148-2" d="M17,29H16v4h1V29Z"/><rect class="bb148-4" x="16" y="24" width="1" height="1"/><path class="bb148-2" d="M16,24h1v1H16v1h1v3h1V25h1V24H18V23H16Z"/><path class="bb148-4" d="M16,29h1V26H16V25H13v1H12v3h1v4h1V32h1v1h1V29Zm-1,2H14V30h1Zm0-2H14V28h1Zm0-2H14V26h1Z"/><rect class="bb148-4" x="15" y="23" width="1" height="1"/><rect class="bb148-2" x="14" y="32" width="1" height="1"/><rect class="bb148-2" x="14" y="30" width="1" height="1"/><rect class="bb148-2" x="14" y="28" width="1" height="1"/><rect class="bb148-2" x="14" y="26" width="1" height="1"/><path class="bb148-2" d="M15,24V23H14v1H13v1h3V24Z"/><rect class="bb148-4" x="13" y="23" width="1" height="1"/><path class="bb148-2" d="M13,29H12v4h1V29Z"/><rect class="bb148-4" x="12" y="24" width="1" height="1"/><path class="bb148-3" d="M12,29H11V25H10v1H8v1H9v6h3V29Z"/><path class="bb148-2" d="M11,26v3h1V26h1V25H12V24h1V23H11v1H10v1h1Z"/><path class="bb148-2" d="M10,25H8v1h2Z"/><path class="bb148-2" d="M9,27H8v6H9V27Z"/><path class="bb148-3" d="M8,27H7v6H8V27Z"/><rect class="bb148-2" x="7" y="26" width="1" height="1"/><path class="bb148-2" d="M7,27H6v6H7V27Z"/><rect class="bb148-2" x="20" y="15" width="1" height="1"/><path class="bb148-2" d="M19,14H17v1h3V11H19v3Z"/><path class="bb148-5" d="M10,17h1v1h1v1h1V18h3v1h1V18h1V17h1V16h1V15H16V14h2V13H16V12h2v1h1V11H18V10H15v1H13V10H11v1H10v2h1V12h2v1H11v1h2v1H9v1h1Zm4-1h1v1H14Z"/><path class="bb148-2" d="M18,11h1V10H18Z"/><path class="bb148-2" d="M13,9H11v1h2Z"/><path class="bb148-2" d="M16,10h2V9H16Z"/><rect class="bb148-2" x="10" y="10" width="1" height="1"/><path class="bb148-2" d="M10,14V11H9v4h1Z"/><rect class="bb148-2" x="8" y="15" width="1" height="1"/><rect class="bb148-2" x="14" y="16" width="1" height="1"/><path class="bb148-4" d="M10,15h1V14H10Z"/><path class="bb148-4" d="M16,14v1h1V14Z"/><path class="bb148-2" d="M12,15h1V14H11v1Z"/><path class="bb148-6" d="M19,13H18v1h1Z"/><rect class="bb148-6" x="16" y="12" width="2" height="1"/><path class="bb148-6" d="M11,14V13H10v1Z"/><rect class="bb148-6" x="11" y="12" width="2" height="1"/><path class="bb148-7" d="M15,18H13v1h3V18Z"/><path class="bb148-7" d="M14,23h3V22h1V21h1V20h1V16H19v1H18v1H17v1H16v1H13V19H12V18H11V17H10V16H9v4h1v1h1v1h1v1h2Z"/><rect class="bb148-2" x="13" y="19" width="3" height="1"/><path class="bb148-8" d="M13,11h2V10h1V9h2V7H17V6h1V5H16V6H14V7H13v4Z"/><path class="bb148-8" d="M19,10V9H18v1Z"/><rect class="bb148-8" x="18" y="9" width="1" height="1"></rect></svg>