<svg xmlns="http://www.w3.org/2000/svg" viewBox="0 0 29 33"><defs><style>polygon,rect,path{shape-rendering:crispedges;}.ca63-1{fill:#d4a122;}.ca63-2{fill:#000000;}.ca63-3{fill:#e8b795;}.ca63-4{fill:#844f4f;}.ca63-5{fill:#dbc6d2;}.ca63-6{fill:#ffffff;}.ca63-7{fill:#8e703c;}.ca63-8{fill:#99004d;}</style></defs><path class="ca63-1" d="M0,33H6V27H7V26H8V25h2V24h2V21H10v1H9V21H8V20H9V17H8V12H9V10h1V9h1V8h7V9h1v1h1v2h1v6H20v2h1v1H20v1H19V21H17v3h2v1h2v1h1v1h1v6h6V0H0Z"/><path class="ca63-2" d="M23,27H22v6h1V27Z"/><rect class="ca63-2" x="21" y="26" width="1" height="1"/><path class="ca63-3" d="M22,27H21v6h1V27Z"/><rect class="ca63-3" x="20" y="26" width="1" height="1"/><path class="ca63-2" d="M21,27H20v6h1V27Z"/><path class="ca63-2" d="M20,26h1V25H19v1Z"/><rect class="ca63-4" x="13" y="30" width="1" height="2"/><path class="ca63-4" d="M20,27V26H19V25H18v1H17v1H16v1H13V27H12V26H11V25H10v1H9v7h1V29h1v4h1V29h3v4h1V29h3v1H17v2h1V31h1v2h1V27Z"/><path class="ca63-2" d="M18,26V25h1V24H17v2Z"/><rect class="ca63-2" x="16" y="26" width="1" height="1"/><path class="ca63-2" d="M13,27v1h3V27H13Z"/><path class="ca63-2" d="M13,23h3v1h1V21H16v1H13V21H12v3h1Z"/><path class="ca63-3" d="M13,26v1h3V26h1V24H16V23H13v1H12v2Z"/><rect class="ca63-2" x="12" y="26" width="1" height="1"/><path class="ca63-2" d="M11,26h1V24H10v1h1Z"/><path class="ca63-2" d="M10,26V25H8v1h2Z"/><path class="ca63-3" d="M9,27V26H8v1Z"/><path class="ca63-2" d="M9,27H8v6H9V27Z"/><rect class="ca63-2" x="7" y="26" width="1" height="1"/><path class="ca63-3" d="M8,27H7v6H8V27Z"/><path class="ca63-2" d="M7,27H6v6H7V27Z"/><path class="ca63-5" d="M12,29v4h3V29Zm2,3H13V30h1Z"/><path class="ca63-5" d="M11,29H10v4h1V29Z"/><path class="ca63-5" d="M18,31v1H17V30h2V29H16v4h3V31Z"/><path class="ca63-3" d="M13,22h3V21h1V20h1V19h1V16h1V15H16V14h2V13H16V12h1V11H16V10H15v1H14v1H13v3H10v4h1v1h1v1h1Zm1-6h1v1H14Zm-1,3h3V18h1v1H16v1H13Z"/><path class="ca63-2" d="M19,16v3h1V16Z"/><rect class="ca63-2" x="18" y="19" width="1" height="1"/><path class="ca63-2" d="M17,20v1h1V20Z"/><path class="ca63-2" d="M11,20v1h1V20Z"/><rect class="ca63-2" x="10" y="19" width="1" height="1"/><path class="ca63-2" d="M10,18H9v1h1Z"/><rect class="ca63-2" x="14" y="16" width="1" height="1"/><path class="ca63-6" d="M12,15h1V14H12Z"/><path class="ca63-6" d="M10,14v1h1V14Z"/><path class="ca63-6" d="M18,14v1h1V14Z"/><path class="ca63-6" d="M16,14v1h1V14Z"/><path class="ca63-2" d="M11,14v1h1V14Z"/><path class="ca63-2" d="M17,14v1h1V14Z"/><rect class="ca63-7" x="18" y="13" width="1" height="1"/><polygon class="ca63-7" points="17 12 16 12 16 13 18 13 18 12 17 12"/><path class="ca63-7" d="M12,14h1V13H12Z"/><rect class="ca63-2" x="13" y="19" width="3" height="1"/><rect class="ca63-2" x="16" y="18" width="1" height="1"/><path class="ca63-8" d="M19,20H18v1h1v1h1V21h1V20H20V19H19Z"/><path class="ca63-8" d="M10,20V19H9v1H8v1H9v1h1V21h1V20Z"/><path class="ca63-8" d="M10,17V14h2V13h1V12h1V11h1V10h1v1h1v1h1v1h1v2h1v3h1V12H20V10H19V9H18V8H11V9H10v1H9v2H8v5H9v1h1Z"/></svg>