<svg xmlns="http://www.w3.org/2000/svg" viewBox="0 0 29 33"><defs><style>polygon,rect,path{shape-rendering:crispedges;}.ua75-1{fill:#d14646;}.ua75-2{fill:#000000;}.ua75-3{fill:#a0688d;}.ua75-4{fill:#efcaaf;}.ua75-5{fill:#a0688d;}.ua75-6{fill:#893a1f;}.ua75-7{fill:#825fff;}.ua75-8{fill:#68aaad;}.ua75-9{fill:#efc075;}.ua75-10{fill:#2aa8e8;}.ua75-11{fill:#d8aa68;}.ua75-12{fill:#ffffff;}.ua75-13{fill:#563e1b;}</style></defs><path class="ua75-1" d="M19,24v1h2V21H20v1H19v1H18v1Z"/><path class="ua75-2" d="M23,29v2h1V23H23v6Z"/><path class="ua75-2" d="M7,27H5v1H6v5H7V27Z"/><path class="ua75-3" d="M8,27H7v6H8V27Z"/><path class="ua75-2" d="M9,31V26h1V25H8v8H9V31Z"/><path class="ua75-3" d="M20,26H19V25H18V24H16v1h1v4h1V28h1v1h1V27h1V26Z"/><path class="ua75-3" d="M9,26v3h1V28h1v1h1V25h1V24H11v1H10v1Z"/><rect class="ua75-3" x="10" y="29" width="1" height="1"/><rect class="ua75-3" x="18" y="29" width="1" height="1"/><path class="ua75-3" d="M19,32V31H18v1H17V30H16v1H15v1H13V30H12v2H11V31H10v1H9v1H20V32Z"/><rect class="ua75-2" x="10" y="24" width="1" height="1"/><path class="ua75-2" d="M13,23H11v1h2Z"/><path class="ua75-2" d="M16,25V24H13v1h3Z"/><path class="ua75-4" d="M16,24V23H13v1h3Z"/><path class="ua75-2" d="M17,24h1V23H16v1Z"/><rect class="ua75-2" x="18" y="24" width="1" height="1"/><path class="ua75-2" d="M19,26h2V25H19Z"/><rect class="ua75-2" x="22" y="31" width="1" height="1"/><path class="ua75-2" d="M21,29V27H20v6h1V29Z"/><path class="ua75-3" d="M23,25H22v6h1V25Z"/><path class="ua75-3" d="M13,28h2v1h1V25H13v3Z"/><path class="ua75-3" d="M14,29v2h1V29Z"/><path class="ua75-5" d="M19,30H18V29H17v3h1V31h1v1h1V29H19Z"/><rect class="ua75-5" x="18" y="28" width="1" height="1"/><path class="ua75-5" d="M15,29v2h1V29Z"/><path class="ua75-5" d="M14,30V29h1V28H13v4h2V31H14Z"/><path class="ua75-5" d="M11,29v1H10V29H9v3h1V31h1v1h1V29Z"/><rect class="ua75-5" x="10" y="28" width="1" height="1"/><path class="ua75-2" d="M13,27V25H12v5h1V27Z"/><path class="ua75-2" d="M17,28V25H16v5h1V28Z"/><path class="ua75-4" d="M16,22V21h1V20h1V19h1V16H16V15H13v1H10v3h1v1h1v1h1v1h3Zm-2-6h1v1H14Zm-2,3V18h1v1h3v1H13V19Z"/><path class="ua75-4" d="M14,11H13v2h1v1h1V13h1V12h1V11H14Z"/><rect class="ua75-2" x="14" y="16" width="1" height="1"/><path class="ua75-6" d="M12,12v1h1V12Z"/><rect class="ua75-6" x="16" y="12" width="1" height="1"/><path class="ua75-7" d="M13,12V11H12v1Z"/><path class="ua75-7" d="M11,13h1V12H10v1Z"/><path class="ua75-7" d="M17,12v1h2V12H17Z"/><path class="ua75-3" d="M13,22H12V21H11V20H10V19H9V12h1V11h2V10h5v1h2v1h1v7H19v1H18v1H17v1H16v1h2V22h1V21h1V20h1V11H20V10H19V9H18V8H11V9H10v1H9v1H8v9H9v1h1v1h1v1h2Z"/><rect class="ua75-2" x="10" y="8" width="1" height="1"/><rect class="ua75-2" x="9" y="9" width="1" height="1"/><rect class="ua75-2" x="8" y="10" width="1" height="1"/><path class="ua75-2" d="M8,11H7v9H8V11Z"/><rect class="ua75-2" x="8" y="20" width="1" height="1"/><rect class="ua75-2" x="9" y="21" width="1" height="1"/><rect class="ua75-2" x="10" y="22" width="1" height="1"/><rect class="ua75-2" x="18" y="22" width="1" height="1"/><rect class="ua75-2" x="19" y="21" width="1" height="1"/><rect class="ua75-2" x="20" y="20" width="1" height="1"/><path class="ua75-2" d="M21,14h1V11H21v3Z"/><rect class="ua75-2" x="20" y="10" width="1" height="1"/><rect class="ua75-2" x="19" y="9" width="1" height="1"/><rect class="ua75-2" x="18" y="8" width="1" height="1"/><path class="ua75-2" d="M18,8V7H11V8h7Z"/><path class="ua75-2" d="M12,11H10v1h2Z"/><path class="ua75-2" d="M10,16V14h4V13H10V12H9v7h1V16Z"/><rect class="ua75-2" x="10" y="19" width="1" height="1"/><rect class="ua75-2" x="11" y="20" width="1" height="1"/><rect class="ua75-2" x="12" y="21" width="1" height="1"/><path class="ua75-2" d="M16,23V22H13v1h3Z"/><rect class="ua75-2" x="16" y="21" width="1" height="1"/><rect class="ua75-2" x="17" y="20" width="1" height="1"/><rect class="ua75-2" x="18" y="19" width="1" height="1"/><path class="ua75-2" d="M18,12h1V11H17v1Z"/><path class="ua75-2" d="M14,11h3V10H12v1h2Z"/><path class="ua75-1" d="M0,7V33H6V28H5V27H4V25H5V24H8v1h2V24h1V23H10V22H9V21H8V20H7V11H8V10H9V9h1V8h1V7h7V8h1V9h1v1h1v1h1V22h1v1h1v8H23v1H22v1h7V0H0Z"/><path class="ua75-8" d="M13,14H10v2h3V15h1V14Z"/><path class="ua75-8" d="M15,14v1h1v1h3V14Z"/><path class="ua75-2" d="M18,13H15v1h4v5h1V12H19v1Z"/><path class="ua75-2" d="M14,14v1h1V14Z"/><rect class="ua75-2" x="13" y="19" width="3" height="1"/><rect class="ua75-2" x="12" y="18" width="1" height="1"/><path class="ua75-9" d="M21,27v2h1V27Z"/><path class="ua75-9" d="M21,20v1h1V19H21Z"/><path class="ua75-9" d="M21,16v1h1V15H21Z"/><path class="ua75-10" d="M21,15h1V14H21Z"/><path class="ua75-4" d="M21,23v2h2V23H21Z"/><path class="ua75-11" d="M22,26V25H21v2h1Z"/><path class="ua75-11" d="M21,23h1V21H21Z"/><path class="ua75-11" d="M21,18v1h1V17H21Z"/><path class="ua75-12" d="M7,26H8V24H5v1H7Z"/><path class="ua75-4" d="M8,27V26H7V25H5v2H8Z"/><path class="ua75-13" d="M22,31V29H21v4h1V31Z"/><path class="ua75-2" d="M23,23V22H22v1Z"/><path class="ua75-2" d="M4,25v2H5V25Z"/></svg>