<svg xmlns="http://www.w3.org/2000/svg" viewBox="0 0 29 33"><defs><style>polygon,rect,path{shape-rendering:crispedges;}.ta35-1{fill:#29834f;}.ta35-2{fill:#000000;}.ta35-3{fill:#9b8100;}.ta35-4{fill:#a56e49;}.ta35-5{fill:#ffffff;}.ta35-6{fill:#8e703c;}.ta35-7{fill:#5a2de2;}.ta35-8{fill:#5a2de2;}.ta35-9{fill:#c8a715;}.ta35-10{fill:#ffffff;}.ta35-11{fill:#ff6aa5;}.ta35-12{fill:#ff1f4a;}.ta35-13{fill:#ff791f;}.ta35-14{fill:#fad000;}.ta35-15{fill:#b6dc00;}.ta35-16{fill:#00af68;}.ta35-17{fill:#38a6e8;}.ta35-18{fill:#0068ff;}.ta35-19{fill:#6e12ff;}.ta35-20{fill:#ff1d99;}.ta35-21{fill:#cc2f76;}</style></defs><rect class="ta35-1" x="14" y="17" width="1"/><rect class="ta35-1" x="9" y="24" width="1" height="1"/><path class="ta35-1" d="M8,16H8v3H8V16Z"/><path class="ta35-1" d="M29,0H0V7H0V33H6V26H7V25H8V24H7V23H6V20H7V11H8V10H9V9h1V8h1V7h7V8h1V9h1v1h1v1h1v9H21v1H20v1H19v3h2v1h1v1h1v6h6V7h0V0Z"/><path class="ta35-1" d="M8,12H8v3H8V12Z"/><path class="ta35-2" d="M23,27H22v6h1V27Z"/><path class="ta35-3" d="M22,27H21v6h1V27Z"/><rect class="ta35-2" x="21" y="26" width="1" height="1"/><path class="ta35-2" d="M21,27H20v6h1V27Z"/><path class="ta35-3" d="M19,32V31H18v1H17V30H16v1H15v1H13V30H12v2H11V31H10v1H9v1H20V32Z"/><path class="ta35-3" d="M11,24v1H10v3h1v1h1V24Z"/><rect class="ta35-3" x="10" y="29" width="1" height="1"/><rect class="ta35-3" x="9" y="28" width="1" height="1"/><rect class="ta35-3" x="18" y="29" width="1" height="1"/><path class="ta35-3" d="M18,24H17v5h1V28h1v1h1V27h1V26H19V25H18Z"/><path class="ta35-2" d="M20,26h1V25H19v1Z"/><path class="ta35-2" d="M18,25h1V24H18Z"/><rect class="ta35-2" x="17" y="23" width="1" height="1"/><path class="ta35-2" d="M15,24H13v1h3V24Z"/><path class="ta35-4" d="M14,24h2V23H13v1Z"/><polygon class="ta35-2" points="11 24 12 24 12 23 11 23 11 24"/><polygon class="ta35-3" points="12 23 12 22 11 22 11 23 12 23"/><rect class="ta35-2" x="10" y="24" width="1" height="1"/><path class="ta35-2" d="M9,31V28H8v5H9V31Z"/><path class="ta35-3" d="M8,28H7v5H8V28Z"/><path class="ta35-2" d="M7,28V26H6v7H7V28Z"/><path class="ta35-3" d="M14,29v2h1V29Z"/><path class="ta35-3" d="M13,25v3h2v1h1V25H13Z"/><path class="ta35-5" d="M19,30H18V29H17v3h1V31h1v1h1V29H19Z"/><rect class="ta35-5" x="18" y="28" width="1" height="1"/><path class="ta35-5" d="M15,29v2h1V29Z"/><path class="ta35-5" d="M14,30V29h1V28H13v4h2V31H14Z"/><path class="ta35-5" d="M11,29v1H10V29H9v3h1V31h1v1h1V29Z"/><rect class="ta35-5" x="10" y="28" width="1" height="1"/><path class="ta35-2" d="M13,25H12v5h1V25Z"/><path class="ta35-2" d="M17,28V25H16v5h1V28Z"/><path class="ta35-4" d="M13,11H12v1h1v1h3V12h1V11H13Z"/><rect class="ta35-4" x="18" y="13" width="1" height="1"/><path class="ta35-4" d="M19,15H18v1H16V15H15V14H14v1H13v1H11V15H10v3h1v1h1V18h2v1h1V18h2v1h1V18h1V15Zm-4,1v1H14V16h1Z"/><rect class="ta35-4" x="10" y="13" width="1" height="1"/><polygon class="ta35-4" points="13 21 14 21 14 22 15 22 15 21 16 21 16 20 13 20 13 21"/><polygon class="ta35-2" points="14 16 14 17 15 17 15 16 15 16 14 16 14 16"/><rect class="ta35-6" x="10" y="13" width="1"/><path class="ta35-6" d="M12,12H11v1h2V12Z"/><path class="ta35-6" d="M17,12H16v1h3V12H17Z"/><rect class="ta35-7" x="12" y="11" height="1"/><polygon class="ta35-7" points="11 12 10 12 10 13 11 13 11 12 11 12"/><polygon class="ta35-3" points="20 20 19 20 19 21 20 21 20 20 20 20"/><polygon class="ta35-3" points="18 22 18 22 17 22 17 23 18 23 18 22"/><rect class="ta35-2" x="10" y="8" width="1" height="1"/><rect class="ta35-2" x="9" y="9" width="1" height="1"/><rect class="ta35-2" x="8" y="10" width="1" height="1"/><path class="ta35-2" d="M8,18V16H8V15H8V11H7v8H8Z"/><polygon class="ta35-2" points="19 21 19 22 20 22 20 21 19 21 19 21"/><polygon class="ta35-2" points="20 20 20 21 21 21 21 20 20 20 20 20"/><path class="ta35-2" d="M21,20h1V11H21v9Z"/><rect class="ta35-2" x="20" y="10" width="1" height="1"/><rect class="ta35-2" x="19" y="9" width="1" height="1"/><rect class="ta35-2" x="18" y="8" width="1" height="1"/><path class="ta35-2" d="M18,8V7H11V8h7Z"/><path class="ta35-2" d="M10,18h0V15h1v1h2V15h1V14h1v1h1v1h2V15h1v2h1V12H19v2H18V13H11v1H10V13h0V12h2V11H10v1H9v5h1Z"/><path class="ta35-2" d="M18,12h1V11H17v1Z"/><path class="ta35-2" d="M13,11h4V10H12v1h1Z"/><path class="ta35-8" d="M15,18v1h1V18Z"/><path class="ta35-8" d="M19,21V20h1V17H19v1H18v1H16v2H15v1H14V21H13V19h1V18H12v1H11V18H10V17H9v2h1v1h1v2h1v1h5V22h2V21Z"/><path class="ta35-9" d="M18,22v1h1V22Z"/><path class="ta35-8" d="M18,24h1V23H18Z"/><path class="ta35-9" d="M17,24V23H16v1Z"/><path class="ta35-8" d="M16,25h1V24H16Z"/><path class="ta35-9" d="M13,24V23H12v1Z"/><path class="ta35-8" d="M12,24v1h1V24Z"/><rect class="ta35-8" x="10" y="23" width="1" height="1"/><path class="ta35-3" d="M8,12v7H9V17H9V12h1V11h2V10h5v1h2v1h1v8h1V11H20V10H19V9H18V8H11V9H10v1H9v1H8v1Z"/><path class="ta35-2" d="M14,19H13v1h3V19H14Z"/><path class="ta35-2" d="M16,18v1h1V18Z"/><path class="ta35-10" d="M9,26V24H8v2Z"/><rect class="ta35-11" x="8" y="21" width="1" height="1"/><path class="ta35-12" d="M10,24V23H8v1h2Z"/><rect class="ta35-13" x="7" y="23" width="1" height="1"/><path class="ta35-14" d="M7,21V20H6v2H7Z"/><path class="ta35-15" d="M9,19H7v1H9Z"/><rect class="ta35-16" x="9" y="19" width="1" height="1"/><path class="ta35-16" d="M11,21V20H10v1Z"/><path class="ta35-17" d="M11,22V21H10v2h1Z"/><path class="ta35-18" d="M9,22H8v1h2V22Z"/><path class="ta35-19" d="M8,22V21H7v2H8Z"/><path class="ta35-20" d="M8,21H9V20H7v1Z"/><path class="ta35-21" d="M10,22V20H9v2Z"/><path class="ta35-13" d="M6,22v1H7V22Z"/><path class="ta35-2" d="M8,25H7v1H8Z"/><path class="ta35-4" d="M8,28H9V26H7v2Z"/><path class="ta35-2" d="M10,26V25H9v3h1Z"/></svg>