<svg xmlns="http://www.w3.org/2000/svg" viewBox="0 0 29 33"><defs><style>polygon,rect,path{shape-rendering:crispedges;}.oa13-1{fill:#e55b35;}.oa13-2{fill:#000000;}.oa13-3{fill:#72dd40;}.oa13-4{fill:#cc2f76;}.oa13-5{fill:#b2622b;}.oa13-6{fill:#4922aa;}.oa13-7{fill:#ffffff;}.oa13-8{fill:#5e362f;}.oa13-9{fill:#f9e100;}.oa13-10{fill:#455054;}.oa13-11{fill:#ffffff;}.oa13-12{fill:#900;}</style></defs><path class="oa13-1" d="M12,21H10v1H9v2H8v1h2V24h2V21Z"/><path class="oa13-1" d="M8,32H6V31H5V22H6V21H7V20H5v1H2V17H5V16H8V12H9V10h1V9h1V8h7V9h1v1h1v2h1v6H20v2h1v1H20v1H19V21H17v3h2v1h2v1h1v1h1v6h6V0H0V33H8Z"/><path class="oa13-1" d="M9,19V17H8v3H9Z"/><rect class="oa13-1" x="8" y="21" width="1" height="1"/><path class="oa13-2" d="M6,29V22H5v9H6V29Z"/><path class="oa13-2" d="M23,27H22v6h1V27Z"/><path class="oa13-3" d="M21,31h1V30H21Z"/><path class="oa13-3" d="M21,28h1V27H21Z"/><rect class="oa13-2" x="21" y="26" width="1" height="1"/><path class="oa13-2" d="M21,30V27H20v6h1V30Z"/><path class="oa13-3" d="M18,28h2V27H18Z"/><path class="oa13-3" d="M18,31h2V30H18Z"/><path class="oa13-2" d="M20,26h1V25H19v1Z"/><path class="oa13-2" d="M18,30V25h1V24H17v1H16v1h1v7h1V30Z"/><path class="oa13-4" d="M17,26H16v1H13V26H12v7h5V26Z"/><path class="oa13-2" d="M13,26v1h3V26H13Z"/><path class="oa13-5" d="M16,23H13v1H12v1h1v1h3V25h1V24H16Z"/><path class="oa13-2" d="M12,26h1V25H12V24H10v1h1v8h1V26Z"/><path class="oa13-3" d="M9,31h2V30H9Z"/><path class="oa13-3" d="M9,28h2V27H9Z"/><path class="oa13-2" d="M9,30V27H8V26h2V25H8V24H7v7H6v1H8v1H9V30Z"/><path class="oa13-3" d="M6,28H7V27H6Z"/><path class="oa13-3" d="M7,30H6v1H7Z"/><path class="oa13-3" d="M6,25H7V24H6Z"/><path class="oa13-6" d="M18,31v2h2V31Z"/><path class="oa13-6" d="M9,31v2h2V31Z"/><path class="oa13-6" d="M18,29v1h2V28H18Z"/><path class="oa13-6" d="M9,29v1h2V28H9Z"/><path class="oa13-6" d="M18,26v1h3V26H19V25H18Z"/><path class="oa13-6" d="M9,26H8v1h3V25H10v1Z"/><path class="oa13-6" d="M6,29v1H7V28H6Z"/><path class="oa13-6" d="M6,26v1H7V25H6Z"/><path class="oa13-6" d="M21,31v2h1V31Z"/><path class="oa13-6" d="M21,29v1h1V28H21Z"/><path class="oa13-5" d="M18,20V19h1V16h1V15H16V14h2V13H16V12h1V11H16V10H15v1H14v1H13v3H10v4h1v1h1v1h1v1h3V21h1V20Zm-4-4h1v1H14Zm2,3v1H13V19h3V18h1v1Z"/><path class="oa13-2" d="M19,16v3h1V16Z"/><rect class="oa13-2" x="18" y="19" width="1" height="1"/><path class="oa13-2" d="M17,20v1h1V20Z"/><path class="oa13-2" d="M16,22H13V21H12v3h1V23h3v1h1V21H16Z"/><path class="oa13-2" d="M12,21V20H11v1Z"/><rect class="oa13-2" x="10" y="19" width="1" height="1"/><path class="oa13-2" d="M10,19V18H9v1Z"/><rect class="oa13-2" x="14" y="16" width="1" height="1"/><path class="oa13-7" d="M13,15V14H12v1Z"/><path class="oa13-7" d="M11,14H10v1h1Z"/><path class="oa13-7" d="M18,15h1V14H18Z"/><path class="oa13-7" d="M16,14v1h1V14Z"/><path class="oa13-2" d="M12,15V14H11v1Z"/><path class="oa13-2" d="M17,14v1h1V14Z"/><rect class="oa13-8" x="18" y="13" width="1" height="1"/><path class="oa13-8" d="M16,13h2V12H16Z"/><path class="oa13-8" d="M13,13H12v1h1Z"/><rect class="oa13-2" x="13" y="19" width="3" height="1"/><rect class="oa13-2" x="16" y="18" width="1" height="1"/><path class="oa13-9" d="M19,20H18v1h1v1h1V21h1V20H20V19H19Z"/><path class="oa13-9" d="M9,22h1V21h1V20H10V19H9v1H8v1H9Z"/><path class="oa13-9" d="M9,17v1h1V14h2V13h1V12h1V11h1V10h1v1h1v1h1v1h1v2h1v3h1V12H20V10H19V9H18V8H11V9H10v1H9v2H8v5Z"/><path class="oa13-5" d="M7,24H8V22H6v2Z"/><path class="oa13-10" d="M8,22V20H7v2Z"/><path class="oa13-11" d="M4,19V18H5V17H2v4H5V20H4Z"/><path class="oa13-11" d="M8,19V16H5v1H6v2H5v1H8Z"/><path class="oa13-2" d="M7,21H6v1H7Z"/><path class="oa13-2" d="M9,22H8v2H9Z"/><path class="oa13-12" d="M6,19V17H5v1H4v2H5V19Z"/></svg>