<svg xmlns="http://www.w3.org/2000/svg" viewBox="0 0 29 33"><defs><style>polygon,rect,path{shape-rendering:crispedges;}.hb208-1{fill:#b4bd09;}.hb208-2{fill:#000000;}.hb208-3{fill:#c18d59;}.hb208-4{fill:#ffffff;}.hb208-5{fill:#ff1d99;}.hb208-6{fill:#b18518;}</style></defs><path class="hb208-1" d="M0,33H6V27H7V26H8V25h2V24h2V21H11V20H10V19H9V16H8V15H9V14H8V13H4V12H6V11H8V10h2V9h1V8h1V7h1V6h1V5h1V6h1V7h1V8h1V9h1v1h2v1h2v1h2v1H21v1H20v1h1v1H20v3H19v1H18v1H17v3h2v1h2v1h1v1h1v6h6V0H0Z"/><path class="hb208-2" d="M23,27H22v6h1V27Z"/><path class="hb208-3" d="M22,27H21v6h1V27Z"/><rect class="hb208-2" x="21" y="26" width="1" height="1"/><path class="hb208-2" d="M21,27H20v6h1V27Z"/><path class="hb208-3" d="M20,27h1V26H19V25H17V24H16V23H13v1H12v1H10v1H8v1H9v6h5V29h1v4h5V27Zm-8,2H11V28h1Zm6,0H17V28h1Z"/><path class="hb208-2" d="M20,26h1V25H19v1Z"/><rect class="hb208-2" x="17" y="28" width="1" height="1"/><path class="hb208-2" d="M18,25h1V24H17v1Z"/><path class="hb208-2" d="M15,29H14v4h1V29Z"/><path class="hb208-2" d="M13,23h3v1h1V21H16v1H13V21H12v3h1Z"/><rect class="hb208-2" x="11" y="28" width="1" height="1"/><path class="hb208-2" d="M12,24H10v1h2Z"/><path class="hb208-2" d="M10,25H8v1h2Z"/><path class="hb208-2" d="M9,27H8v6H9V27Z"/><path class="hb208-3" d="M8,27H7v6H8V27Z"/><rect class="hb208-2" x="7" y="26" width="1" height="1"/><path class="hb208-2" d="M7,27H6v6H7V27Z"/><rect class="hb208-2" x="20" y="15" width="1" height="1"/><rect class="hb208-2" x="19" y="14" width="1" height="1"/><path class="hb208-3" d="M12,19V18h5v2h1V19h1V16H16V14H13v2H10v3h1v1h1Zm2-3h1v1H14Z"/><path class="hb208-3" d="M13,20v2h3V20Z"/><rect class="hb208-3" x="9" y="15" width="1" height="1"/><rect class="hb208-3" x="19" y="15" width="1" height="1"/><path class="hb208-2" d="M19,17v2h1V16H19Z"/><rect class="hb208-2" x="18" y="19" width="1" height="1"/><rect class="hb208-2" x="17" y="20" width="1" height="1"/><rect class="hb208-2" x="11" y="20" width="1" height="1"/><rect class="hb208-2" x="10" y="19" width="1" height="1"/><rect class="hb208-2" x="9" y="14" width="1" height="1"/><path class="hb208-2" d="M10,16H9v3h1V16Z"/><rect class="hb208-2" x="8" y="15" width="1" height="1"/><rect class="hb208-2" x="14" y="16" width="1" height="1"/><path class="hb208-4" d="M10,14v2h1V14Z"/><path class="hb208-4" d="M12,15v1h1V14H12Z"/><path class="hb208-4" d="M16,14v2h1V14Z"/><path class="hb208-4" d="M19,14H18v2h1V14Z"/><path class="hb208-2" d="M12,14H11v2h1V14Z"/><path class="hb208-2" d="M17,14v2h1V14Z"/><path class="hb208-5" d="M17,19V18H13v1h3v2h1V19Z"/><path class="hb208-5" d="M13,20V19H12v2h1Z"/><path class="hb208-2" d="M16,19H13v1h3Z"/><path class="hb208-2" d="M12,18v1h1V18Z"/><path class="hb208-6" d="M11,14H21V13h4V12H23V11H21V10H19V9H18V8H17V7H16V6H15V5H14V6H13V7H12V8H11V9H10v1H8v1H6v1H4v1H8v1h3Z"/></svg>