<svg xmlns="http://www.w3.org/2000/svg" viewBox="0 0 29 33"><defs><style>polygon,rect,path{shape-rendering:crispedges;}.fa264-1{fill:#7a982c;}.fa264-2{fill:#000000;}.fa264-3{fill:#cc3232;}.fa264-4{fill:#e8b795;}.fa264-5{fill:#ffb3c0;}.fa264-6{fill:#ffffff;}.fa264-7{fill:#fad000;}.fa264-8{fill:#0068ff;}.fa264-9{fill:#c9a717;}</style></defs><path class="fa264-1" d="M0,33H6V27H7V26H8V25h2V23h1V21H10v1H9V21H8V20H7V19H8V13H4V12H6V11H8V10h2V9h1V8h1V7h1V6h1V5h1V6h1V7h1V8h1V9h1v1h2v1h2v1h2v1H21v6h1v1H21v1H20v1H19V21H18v2h1v2h2v1h1v1h1v6h6V0H0Z"/><path class="fa264-2" d="M23,27H22v3H21V27H20v6h1V31h1v2h1V27Z"/><rect class="fa264-2" x="21" y="26" width="1" height="1"/><path class="fa264-3" d="M21,28v2h1V27H21Z"/><path class="fa264-4" d="M21,31v2h1V31Z"/><path class="fa264-2" d="M20,26h1V25H19v1Z"/><path class="fa264-3" d="M13,31h1V29H13Z"/><path class="fa264-3" d="M20,27h1V26H19V25H18v1H17v1H16v1h3v1H17v2h1V30h1v2H16V29H15v3H12V28h1V27H12V26H11V25H10v1H8v1H9v6H20V27Zm-9,2v3H10V28h1Z"/><path class="fa264-4" d="M14,24h1v1h1V23H13v2h1Z"/><path class="fa264-2" d="M10,25H8v1h2Z"/><path class="fa264-2" d="M9,27H8v3H7V27H6v6H7V31H8v2H9V27Z"/><rect class="fa264-2" x="7" y="26" width="1" height="1"/><path class="fa264-3" d="M7,30H8V27H7v3Z"/><path class="fa264-4" d="M7,31v2H8V31Z"/><path class="fa264-5" d="M14,31H13V28H12v4h3V30H14Z"/><path class="fa264-5" d="M10,29v3h1V28H10Z"/><path class="fa264-5" d="M16,30v2h3V30H18v1H17V29h2V28H16v2Z"/><path class="fa264-2" d="M20,16h1V15H20Z"/><rect class="fa264-2" x="19" y="14" width="1" height="1"/><path class="fa264-4" d="M18,20V19h1V16h1V15H16V14H13v1H9v1h1v3h1v1h1v1h1v1h3V21h1V20Zm-4-4h1v1H14Zm2,3v1H13V19h3V18h1v1Z"/><path class="fa264-2" d="M19,17v2h1V16H19Z"/><rect class="fa264-2" x="18" y="19" width="1" height="1"/><rect class="fa264-2" x="17" y="20" width="1" height="1"/><rect class="fa264-2" x="11" y="20" width="1" height="1"/><rect class="fa264-2" x="10" y="19" width="1" height="1"/><path class="fa264-2" d="M10,14H9v1h1Z"/><path class="fa264-2" d="M10,16H9v3h1V16Z"/><path class="fa264-2" d="M9,15H8v1H9Z"/><rect class="fa264-2" x="14" y="16" width="1" height="1"/><path class="fa264-6" d="M13,15V14H12v1Z"/><path class="fa264-6" d="M11,15V14H10v1Z"/><path class="fa264-6" d="M19,15V14H18v1Z"/><path class="fa264-6" d="M17,15V14H16v1Z"/><path class="fa264-2" d="M12,15V14H11v1Z"/><path class="fa264-2" d="M18,15V14H17v1Z"/><path class="fa264-2" d="M14,30h1V29H14Z"/><rect class="fa264-2" x="12" y="26" width="1" height="1"/><path class="fa264-2" d="M15,28v1h1V27H15Z"/><rect class="fa264-2" x="16" y="26" width="1" height="1"/><path class="fa264-2" d="M14,29V27H13v2Z"/><rect class="fa264-2" x="17" y="25" width="1" height="1"/><rect class="fa264-2" x="11" y="25" width="1" height="1"/><rect class="fa264-2" x="14" y="24" width="1" height="1"/><rect class="fa264-2" x="13" y="25" width="1" height="1"/><rect class="fa264-2" x="15" y="25" width="1" height="1"/><path class="fa264-2" d="M12,24v1h1V23h3v2h1V23h1V22H17V21H16v1H13V21H12v1H11v1h1Z"/><rect class="fa264-7" x="16" y="25" width="1" height="1"/><path class="fa264-7" d="M15,26V25H14v1H13v1h1v2h1V27h1V26Z"/><rect class="fa264-7" x="12" y="25" width="1" height="1"/><path class="fa264-7" d="M11,25h1V23H11v2Z"/><path class="fa264-7" d="M17,24v1h1V23H17Z"/><path class="fa264-2" d="M19,25V23H18v2Z"/><path class="fa264-2" d="M11,24V23H10v2h1Z"/><rect class="fa264-2" x="13" y="19" width="3" height="1"/><rect class="fa264-2" x="16" y="18" width="1" height="1"/><path class="fa264-8" d="M20,17v2H19v1H18v1h1v1h1V21h1V20h1V19H21V16H20Z"/><path class="fa264-8" d="M9,14H8v1H9Z"/><path class="fa264-8" d="M20,15h1V14H20Z"/><path class="fa264-8" d="M10,20V19H9V16H8v3H7v1H8v1H9v1h1V21h1V20Z"/><path class="fa264-8" d="M12,21H11v1h1Z"/><path class="fa264-8" d="M17,22h1V21H17Z"/><path class="fa264-9" d="M10,14H21V13h4V12H23V11H21V10H19V9H18V8H17V7H16V6H15V5H14V6H13V7H12V8H11V9H10v1H8v1H6v1H4v1H8v1h2Z"/></svg>