<svg xmlns="http://www.w3.org/2000/svg" viewBox="0 0 29 33"><defs><style>polygon,rect,path{shape-rendering:crispedges;}.gb267-1{fill:#e55b35;}.gb267-2{fill:#000000;}.gb267-3{fill:#316a6d;}.gb267-4{fill:#a0688d;}.gb267-5{fill:#e8b795;}.gb267-6{fill:#90a2a3;}.gb267-7{fill:#ffffff;}.gb267-8{fill:#492a23;}.gb267-9{fill:#4fdb7d;}</style></defs><path class="gb267-1" d="M0,33H6V27H7V26H8V25H9V16H8V15H9V10h1V9h1V8h7V9h1v1h1v5h1v1H20v6H19v2h1v1h1v1h1v1h1v6h6V0H0Z"/><path class="gb267-2" d="M23,27H22v6h1V27Z"/><path class="gb267-3" d="M22,27H21v6h1V27Z"/><path class="gb267-2" d="M21,27h1V26H21V25H20v2H17v1h2v1h1v4h1V27Z"/><rect class="gb267-2" x="19" y="24" width="1" height="1"/><path class="gb267-3" d="M20,29H19v1H18v1H17v1H16v1h4V29Z"/><path class="gb267-3" d="M18,25v1H16v5h1V30h1V29h1V28H17V27h2V26h1V25H18Z"/><rect class="gb267-2" x="18" y="29" width="1" height="1"/><path class="gb267-2" d="M17,25H16v1h1Z"/><path class="gb267-4" d="M15,27H14v6h1V27Z"/><path class="gb267-2" d="M13,23h3v1h1V21H16v1H13V21H12v3h1Z"/><path class="gb267-5" d="M17,25V24H16V23H13v1H12v1h1v1h3V25Z"/><rect class="gb267-2" x="12" y="25" width="1" height="1"/><path class="gb267-3" d="M12,32V31H11V30H10V29H9v4h4V32Z"/><rect class="gb267-2" x="11" y="30" width="1" height="1"/><path class="gb267-2" d="M10,24H9v1h1Z"/><path class="gb267-3" d="M12,25H11v2h1v1H10v1h1v1h1v1h1V26H12Z"/><rect class="gb267-3" x="9" y="25" width="1" height="1"/><path class="gb267-2" d="M9,29h1V28h2V27H9V25H8v1H7v1H8v6H9V29Z"/><path class="gb267-3" d="M8,27H7v6H8V27Z"/><path class="gb267-2" d="M7,27H6v6H7V27Z"/><rect class="gb267-2" x="10" y="29" width="1" height="1"/><rect class="gb267-2" x="17" y="30" width="1" height="1"/><path class="gb267-2" d="M17,32V31H16V26H13v5H12v1h1v1h1V27h1v6h1V32Z"/><path class="gb267-6" d="M9,26v1h1V26Z"/><path class="gb267-6" d="M19,27h1V26H19Z"/><rect class="gb267-2" x="20" y="15" width="1" height="1"/><rect class="gb267-5" x="9" y="15" width="1" height="1"/><path class="gb267-5" d="M13,22h3V21h1V20h1V19h1V15H16V14H14v2h1v1H14V16H13v1H11V16H10v3h1v1h1v1h1Zm0-3h3v1H13Z"/><path class="gb267-5" d="M12,13h1v1h1V13h2V12h1V11H15V10H12v1H11v1h1Z"/><path class="gb267-5" d="M16,14h2V13H16Z"/><path class="gb267-5" d="M12,13H10v1h2Z"/><path class="gb267-2" d="M19,17v2h1V16H19Z"/><rect class="gb267-2" x="18" y="19" width="1" height="1"/><rect class="gb267-2" x="17" y="20" width="1" height="1"/><rect class="gb267-2" x="11" y="20" width="1" height="1"/><rect class="gb267-2" x="10" y="19" width="1" height="1"/><path class="gb267-2" d="M10,18V16H9v3h1Z"/><rect class="gb267-2" x="8" y="15" width="1" height="1"/><rect class="gb267-2" x="14" y="16" width="1" height="1"/><path class="gb267-7" d="M19,15V14H18v1Z"/><path class="gb267-7" d="M16,14v1h1V14Z"/><path class="gb267-2" d="M17,15h1V14H17Z"/><rect class="gb267-8" x="12" y="13" width="1" height="1"/><path class="gb267-8" d="M12,12H11v1h1Z"/><rect class="gb267-2" x="13" y="19" width="3" height="1"/><path class="gb267-9" d="M10,25v2h1V25h1V21H11V20H10V19H9v5h1Z"/><path class="gb267-9" d="M19,12H18v2h1v2h1V11H19Z"/><path class="gb267-9" d="M10,14H9v1h1Z"/><path class="gb267-9" d="M11,13V11h1V10h3v1h2v1h1V11h1V9H18V8H11V9H10v1H9v3h2Z"/><path class="gb267-9" d="M19,20H18v1H17v5h1V25h1V22h1V19H19Z"/><path class="gb267-2" d="M11,17h2V16h1V14H10v2h1Z"/><rect class="gb267-2" x="14" y="13" width="2" height="1"/><path class="gb267-2" d="M16,13h2V12H16Z"/><rect class="gb267-2" x="18" y="11" width="1" height="1"/><path class="gb267-2" d="M20,11V10H19v1Z"/><path class="gb267-2" d="M10,13H9v1h1Z"/></svg>