<svg xmlns="http://www.w3.org/2000/svg" viewBox="0 0 29 33"><defs><style>polygon,rect,path{shape-rendering:crispedges;}.cb1-1{fill:#6b4f99;}.cb1-2{fill:#000000;}.cb1-3{fill:#316a6d;}.cb1-4{fill:#ffffff;}.cb1-5{fill:#c18d59;}.cb1-6{fill:#317f03;}.cb1-7{fill:#317f03;}.cb1-8{fill:#cbed03;}.cb1-9{fill:#00e070;}</style></defs><path class="cb1-1" d="M0,33H6V27H7V26H8V25h2V24h1V23h1V21H11V20H10V19H9V16H8V14H9V11h1V10h1V9h7v1h1v1h1v3h1v2H20v3H19v1H18v1H17v2h1v1h1v1h2v1h1v1h1v6h6V0H0Z"/><path class="cb1-2" d="M23,27H22v6h1V27Z"/><path class="cb1-3" d="M22,27H21v6h1V27Z"/><rect class="cb1-2" x="21" y="26" width="1" height="1"/><path class="cb1-2" d="M21,27H20v6h1V27Z"/><path class="cb1-3" d="M20,27h1V26H19V25H18v4H17v4h3V27Z"/><path class="cb1-2" d="M20,26h1V25H19v1Z"/><path class="cb1-2" d="M17,29H16v4h1V29Z"/><rect class="cb1-4" x="16" y="24" width="1" height="1"/><path class="cb1-4" d="M16,29h1V26H16V25H13v1H12v3h1v4h1V32h1v1h1V29Zm-1,2H14V30h1Zm0-2H14V28h1Zm0-2H14V26h1Z"/><rect class="cb1-4" x="15" y="23" width="1" height="1"/><rect class="cb1-2" x="14" y="32" width="1" height="1"/><rect class="cb1-2" x="14" y="30" width="1" height="1"/><rect class="cb1-2" x="14" y="28" width="1" height="1"/><rect class="cb1-2" x="14" y="26" width="1" height="1"/><path class="cb1-2" d="M15,24V23H14v1H13v1h3V24Z"/><rect class="cb1-4" x="13" y="23" width="1" height="1"/><path class="cb1-2" d="M13,29H12v4h1V29Z"/><rect class="cb1-4" x="12" y="24" width="1" height="1"/><path class="cb1-3" d="M12,29H11V25H10v1H8v1H9v6h3V29Z"/><path class="cb1-2" d="M11,26v3h1V26h1V25H12V24h1V22H12v1H11v1H10v1h1Z"/><path class="cb1-2" d="M10,25H8v1h2Z"/><path class="cb1-2" d="M9,27H8v6H9V27Z"/><path class="cb1-3" d="M8,27H7v6H8V27Z"/><rect class="cb1-2" x="7" y="26" width="1" height="1"/><path class="cb1-2" d="M7,27H6v6H7V27Z"/><path class="cb1-2" d="M20,16h1V15H20Z"/><path class="cb1-2" d="M19,13v1h1V11H19v2Z"/><path class="cb1-5" d="M11,13V12h2v2h3V13h1V12h2V11H18V10H11v1H10v2Z"/><rect class="cb1-5" x="14" y="15" width="1" height="1"/><path class="cb1-5" d="M16,17V16H15v1H14V16H13v1H10v1h1v1h1V18h2v1h1V18h2v1h1V18h1V17H16Z"/><rect class="cb1-5" x="13" y="20" width="1" height="1"/><rect class="cb1-5" x="15" y="20" width="1" height="1"/><path class="cb1-2" d="M19,17h1V16H19Z"/><rect class="cb1-2" x="18" y="10" width="1" height="1"/><path class="cb1-2" d="M16,23v1h1v1H16v1h1v3h1V25h1V24H18V23H17V22H16Z"/><path class="cb1-2" d="M18,10V9H11v1h7Z"/><rect class="cb1-2" x="10" y="10" width="1" height="1"/><path class="cb1-2" d="M10,13V11H9v3h1Z"/><path class="cb1-2" d="M10,16H9v1h1Z"/><path class="cb1-2" d="M8,15v1H9V15Z"/><rect class="cb1-2" x="14" y="16" width="1" height="1"/><path class="cb1-6" d="M13,12H11v1h2Z"/><path class="cb1-6" d="M19,12H17v1h2Z"/><path class="cb1-7" d="M14,18H13v1h1Z"/><path class="cb1-7" d="M13,23h3V22h1V21h1V20h1V19h1V17H19v1H18v1H17V18H15v1h1v2H15V20H14v1H13V19H11V18H10V17H9v2h1v1h1v1h1v1h1Z"/><path class="cb1-2" d="M13,19v1h3V19H13Z"/><path class="cb1-2" d="M12,18v1h1V18Z"/><path class="cb1-8" d="M19,15v1h1V15h1V14H19Z"/><path class="cb1-8" d="M19,14V13H16v1h3Z"/><path class="cb1-9" d="M18,16h1V14H16v2Z"/><path class="cb1-8" d="M18,16H16v1h3V16Z"/><path class="cb1-8" d="M14,16V15h1v1h1V14H13v2Z"/><path class="cb1-8" d="M13,14V13H10v1h3Z"/><path class="cb1-9" d="M13,16V14H10v2h3Z"/><path class="cb1-8" d="M13,17V16H10v1h3Z"/><path class="cb1-8" d="M10,15V14H8v1H9v1h1Z"/></svg>