<svg xmlns="http://www.w3.org/2000/svg" viewBox="0 0 29 33"><defs><style>polygon,rect,path{shape-rendering:crispedges;}.va30-1{fill:#d4a122;}.va30-2{fill:#000000;}.va30-3{fill:#184226;}.va30-4{fill:#b2622b;}.va30-5{fill:#990000;}.va30-6{fill:#990000;}.va30-7{fill:#68aaad;}.va30-8{fill:#f9e100;}.va30-9{fill:#c9936f;}.va30-10{fill:#e8b592;}.va30-11{fill:#004b68;}.va30-12{fill:#fad000;}.va30-13{fill:#ffffff;}</style></defs><path class="va30-1" d="M20,23V20H19v1H18v1h1v3h2V23Z"/><path class="va30-1" d="M6,32V27H7V26H8V25h2V22h1V21H10V20H9V16H8V14H9V12H8v1H7V12H8V11H9V10h1V9h2V8h5V9h2v1h1v1h1v1h1v1H21V12H20v2h1v3h1V16h1v1h1V16h1v7H24v8H23v1H21v1h8V0H0V33H6Z"/><path class="va30-2" d="M7,27H6v6H7V27Z"/><path class="va30-3" d="M8,27H7v6H8V27Z"/><rect class="va30-2" x="7" y="26" width="1" height="1"/><path class="va30-3" d="M9,27v4h4V27h1V25H13V24H12V22H11v3H10v1H8v1Z"/><path class="va30-2" d="M10,25H8v1h2Z"/><path class="va30-2" d="M11,24V22H10v3h1Z"/><rect class="va30-2" x="13" y="24" width="1" height="1"/><path class="va30-4" d="M15,24h1V23H13v1h1v1h1Z"/><path class="va30-2" d="M15,26V25H14v2h1Z"/><rect class="va30-2" x="15" y="24" width="1" height="1"/><path class="va30-3" d="M18,24V22H17v2H16v1H15v2H14v4h6V27h1V26H19V25H18Z"/><path class="va30-2" d="M17,24V22H16v2Z"/><path class="va30-2" d="M19,22H18v3h1V22Z"/><path class="va30-3" d="M19,32H9v1H20V32Z"/><path class="va30-2" d="M22,32h1V31H22V25H19v1h2v1H20v4H14V27H13v4H9V27H8v6H9V32H20v1h1V32Z"/><path class="va30-3" d="M23,26V25H22v6h1V26Z"/><path class="va30-2" d="M23,26v5h1V25H23Z"/><path class="va30-2" d="M20,16h1V15H20Z"/><path class="va30-4" d="M14,13v1h1V13h2V12H15V11H14v1H13v1Z"/><rect class="va30-4" x="15" y="20" width="1" height="1"/><rect class="va30-4" x="19" y="15" width="1" height="1"/><rect class="va30-4" x="9" y="15" width="1" height="1"/><path class="va30-4" d="M16,16V15H13v1H10v2h1v1h1V18h2v1h1V18h2v1h1V18h1V16H16Zm-1,1H14V16h1Z"/><rect class="va30-4" x="13" y="20" width="1" height="1"/><path class="va30-2" d="M13,22H12v2h1V22Z"/><path class="va30-2" d="M8,15v1H9V15Z"/><rect class="va30-2" x="14" y="16" width="1" height="1"/><rect class="va30-5" x="12" y="12" width="1" height="1"/><path class="va30-6" d="M14,18H13v1h1Z"/><path class="va30-6" d="M13,22v1h3V22h2V21h1V20h1V16H19v2H18v1H17V18H15v1h1v2H15V20H14v1H13V19H11V18H10V16H9v4h1v1h1v1h2Z"/><path class="va30-2" d="M13,19v1h3V19H13Z"/><path class="va30-2" d="M12,18v1h1V18Z"/><rect class="va30-7" x="21" y="12" width="1" height="1"/><path class="va30-7" d="M10,13h2V12h2V11h1v1h2v1h2v1h1V12h1V11H20V10H19V9H17V8H12V9H10v1H9v1H8v1H9v2h1Z"/><path class="va30-7" d="M21,15V14H20v1Z"/><path class="va30-7" d="M9,14H8v1H9Z"/><rect class="va30-7" x="7" y="12" width="1" height="1"/><path class="va30-8" d="M13,16V15h1V14H10v2h3Z"/><path class="va30-8" d="M19,14H15v1h1v1h3V14Z"/><path class="va30-2" d="M15,14h4V13H15Z"/><path class="va30-2" d="M14,14V13H10v1h4Z"/><path class="va30-2" d="M19,15h1V14H19Z"/><path class="va30-2" d="M10,15V14H9v1Z"/><path class="va30-2" d="M14,15h1V14H14Z"/><path class="va30-9" d="M21,23V22H20v1Z"/><path class="va30-9" d="M24,22.111V23h1V22H24Z"/><rect class="va30-2" x="21" y="19" width="1" height="1"/><rect class="va30-2" x="23" y="19" width="1" height="1"/><path class="va30-10" d="M24,22H21v1h3V22Z"/><path class="va30-10" d="M23,20V19H22v1H20v2h1V21h3v1h1V20H23Z"/><path class="va30-11" d="M21,23v2h3V23H21Z"/><path class="va30-12" d="M20,18v2h1V19h3v1h1V18H20Z"/><path class="va30-2" d="M24,22V21H21v1h3Z"/><path class="va30-13" d="M20,17v1h5V16H24v1H23V16H22v1H21V16H20Z"/></svg>