<svg xmlns="http://www.w3.org/2000/svg" viewBox="0 0 29 33"><defs><style>polygon,rect,path{shape-rendering:crispedges;}.wa134-1{fill:#397d98;}.wa134-2{fill:#000000;}.wa134-3{fill:#e0dbc6;}.wa134-4{fill:#ce8452;}.wa134-5{fill:#990000;}.wa134-6{fill:#ffffff;}.wa134-7{fill:#b23b00;}.wa134-8{fill:#b23b00;}.wa134-9{fill:#c8a715;}.wa134-10{fill:#004a77;}.wa134-11{fill:#fad000;}.wa134-12{fill:#ff1f4a;}.wa134-13{fill:#10bcff;}</style></defs><path class="wa134-1" d="M6,26H5V24H8v1h2V20H9V17H8V15H9V13H8V9H9V8h1V7h1V6h7V7h1V8h1V9h1v4H20v2h1v2H20v3H19v5h2V24h3v2H23v7h6V0H0V33H6V26Z"/><path class="wa134-2" d="M7,31H7V29H7V28H7V27H7V26H6v7H7V31Z"/><path class="wa134-2" d="M23,33h0V26H22v7h1Z"/><path class="wa134-2" d="M21,31h0V29h0V28h0V27h0V25H19v1h1v5H14V27H13v4H9V26h1V25H8v8H9V32H20v1h1V31Z"/><path class="wa134-3" d="M15,32v1h3V32Z"/><path class="wa134-3" d="M9,32v1h1V32Z"/><path class="wa134-3" d="M19,32v1h1V32Z"/><path class="wa134-3" d="M11,32v1h3V32Z"/><path class="wa134-2" d="M18,24v1h1V24Z"/><path class="wa134-3" d="M18,27V26H17V25H16v1H15v1H14v3h1v1h3V30h1v1h1V29H19V28h1V26H19v1Zm0,2H17v1H16V29H15V28h1V27h1v1h1Z"/><path class="wa134-3" d="M17,23v2h1V23Z"/><rect class="wa134-2" x="15" y="24" width="1" height="1"/><path class="wa134-2" d="M15,26V25H14v2h1Z"/><path class="wa134-4" d="M16,24V23H13v1h1v1h1V24Z"/><rect class="wa134-2" x="13" y="24" width="1" height="1"/><path class="wa134-2" d="M11,24H10v1h1Z"/><path class="wa134-3" d="M13,26V25H12v1H11v1H10V26H9v2h1v1H9v2h1V30h1v1h2V30H12V29H11V28h1V27h2V26Z"/><path class="wa134-3" d="M12,23H11v2h1V23Z"/><path class="wa134-2" d="M21,16V15H20v1Z"/><path class="wa134-2" d="M19,15h1V14H19Z"/><rect class="wa134-4" x="18" y="12" width="1" height="1"/><path class="wa134-4" d="M10,14h2V13H10Z"/><path class="wa134-4" d="M10,16v2h1v1h1V18h2v1h1V18h2v1h1V18h1V16h1V15H16V14h2V13H16V12h2V11H11v1h1v1h1v2H9v1Zm4,0h1v1H14Z"/><polygon class="wa134-4" points="13 21 14 21 14 22 15 22 15 21 16 21 16 20 13 20 13 21"/><path class="wa134-2" d="M19,16v1h1V16Z"/><path class="wa134-2" d="M10,14H9v1h1Z"/><path class="wa134-2" d="M10,16H9v1h1Z"/><path class="wa134-2" d="M9,15H8v1H9Z"/><rect class="wa134-2" x="14" y="16" width="1" height="1"/><path class="wa134-5" d="M10,30v1h1V30Z"/><path class="wa134-5" d="M10,32v1h1V32Z"/><path class="wa134-5" d="M12,28H11v1h1v1h1V27H12Z"/><polygon class="wa134-5" points="11 27 11 26 12 26 12 25 11 25 10 25 10 26 10 27 11 27"/><rect class="wa134-5" x="15" y="25" width="1" height="1"/><path class="wa134-5" d="M13,26h1V25H13Z"/><polygon class="wa134-5" points="17 27 16 27 16 28 15 28 15 29 16 29 16 30 17 30 17 29 18 29 18 28 17 28 17 27"/><polygon class="wa134-5" points="17 25 17 26 18 26 18 27 19 27 19 26 19 25 18 25 17 25"/><path class="wa134-5" d="M10,28H9v1h1Z"/><path class="wa134-5" d="M19,29h1V28H19Z"/><path class="wa134-5" d="M14,30v1h1V30Z"/><path class="wa134-5" d="M14,32v1h1V32Z"/><path class="wa134-5" d="M18,30v1h1V30Z"/><path class="wa134-5" d="M18,32v1h1V32Z"/><rect class="wa134-5" x="11" y="22" width="1" height="1"/><rect class="wa134-5" x="17" y="22" width="1" height="1"/><path class="wa134-6" d="M12,15h1V14H12Z"/><path class="wa134-6" d="M10,14v1h1V14Z"/><path class="wa134-6" d="M18,14v1h1V14Z"/><path class="wa134-6" d="M16,14v1h1V14Z"/><path class="wa134-2" d="M11,14v1h1V14Z"/><path class="wa134-2" d="M17,14v1h1V14Z"/><rect class="wa134-7" x="18" y="13" width="1" height="1"/><rect class="wa134-7" x="16" y="12" width="2" height="1"/><path class="wa134-7" d="M13,14V13H12v1Z"/><path class="wa134-7" d="M10,13h2V12H10Z"/><path class="wa134-8" d="M12,22v1h5V22h2V20h1V17H19v1H18v1H16v2H15v1H14V21H13V19h1V18H12v1H11V18H10V17H9v3h1v2h2Z"/><path class="wa134-8" d="M15,18v1h1V18Z"/><path class="wa134-9" d="M18,23h1V22H18Z"/><path class="wa134-8" d="M18,24h1V23H18Z"/><path class="wa134-9" d="M17,24V23H16v1Z"/><path class="wa134-8" d="M16,24v1h1V24Z"/><path class="wa134-9" d="M13,24V23H12v1Z"/><path class="wa134-8" d="M12,24v1h1V24Z"/><path class="wa134-9" d="M11,22H10v1h1Z"/><path class="wa134-8" d="M11,23H10v1h1Z"/><path class="wa134-2" d="M14,19H13v1h3V19H14Z"/><path class="wa134-2" d="M16,18v1h1V18Z"/><path class="wa134-10" d="M10,13V12h1V11h7v1h1v2h1V13h1V9H20V8H19V7H18V6H11V7H10V8H9V9H8v4H9v1h1Z"/><path class="wa134-11" d="M20,17h1V16H20Z"/><path class="wa134-11" d="M8,16v1H9V16Z"/><path class="wa134-2" d="M24,25H23v1h1Z"/><path class="wa134-2" d="M22,24H21v1h1Z"/><path class="wa134-12" d="M23,25h1V24H22v1Z"/><path class="wa134-2" d="M7,24v1H8V24Z"/><path class="wa134-2" d="M5,25v1H6V25Z"/><path class="wa134-4" d="M22,25H21v2h1V26h1V25Z"/><path class="wa134-4" d="M6,25v1H7v1H8V25H6Z"/><path class="wa134-13" d="M7,25V24H5v1H7Z"/><path class="wa134-3" d="M21,32v1h1V32Z"/><path class="wa134-3" d="M21,29v2h1V29Z"/><path class="wa134-3" d="M21,27v1h1V27Z"/><path class="wa134-5" d="M21,28v1h1V28Z"/><path class="wa134-5" d="M21,31v1h1V31Z"/><path class="wa134-3" d="M7,32v1H8V32Z"/><path class="wa134-3" d="M7,29v2H8V29Z"/><path class="wa134-3" d="M7,27v1H8V27Z"/><path class="wa134-5" d="M7,28v1H8V28Z"/><path class="wa134-5" d="M7,31v1H8V31Z"/></svg>