<svg xmlns="http://www.w3.org/2000/svg" viewBox="0 0 29 33"><defs><style>polygon,rect,path{shape-rendering:crispedges;}.ca39-1{fill:#6b4f99;}.ca39-2{fill:#000000;}.ca39-3{fill:#c18d59;}.ca39-4{fill:#8ab2b2;}.ca39-5{fill:#ffffff;}.ca39-6{fill:#473a35;}.ca39-7{fill:#9b8100;}.ca39-8{fill:#a06415;}.ca39-9{fill:#381616;}.ca39-10{fill:#fad000;}</style></defs><path class="ca39-1" d="M12,22H11V21H10v3h2Z"/><path class="ca39-1" d="M6,32V26H5V25H6V24H5V21H6V20H7V19H8V12H9V10h1V9h1V8h7V9h1v1h1v2h1v7h1v1H21v1H20v1H19V21H18v1H17v2h2v1h2v1h1v1h1v6h6V0H0V33H6Z"/><rect class="ca39-1" x="9" y="24" width="1" height="1"/><path class="ca39-2" d="M23,27H22v6h1V27Z"/><rect class="ca39-2" x="21" y="26" width="1" height="1"/><path class="ca39-3" d="M22,27H21v6h1V27Z"/><rect class="ca39-3" x="20" y="26" width="1" height="1"/><path class="ca39-2" d="M21,27H20v6h1V27Z"/><path class="ca39-2" d="M20,26h1V25H19v1Z"/><path class="ca39-4" d="M17,30h1V29h1v1h1V26H19V25H18v1H17v1H16v1H13V27H12V26H11V25H10v1H9v4h1V29h1v1h1v3h1V29h2v1h1v2H15v1h2V30Z"/><rect class="ca39-4" x="18" y="30" width="1" height="1"/><path class="ca39-4" d="M14,31v1h1V30H14Z"/><rect class="ca39-4" x="10" y="30" width="1" height="1"/><rect class="ca39-4" x="10" y="32" width="1" height="1"/><rect class="ca39-4" x="18" y="32" width="1" height="1"/><path class="ca39-2" d="M10,24v1h1v1h1V24Z"/><path class="ca39-2" d="M9,30V26H8v7H9V30Z"/><path class="ca39-3" d="M8,26H9V25H6v1H7v7H8V26Z"/><path class="ca39-2" d="M7,26H6v7H7V26Z"/><rect class="ca39-2" x="12" y="26" width="1" height="1"/><rect class="ca39-2" x="16" y="26" width="1" height="1"/><path class="ca39-2" d="M18,26V25h1V24H17v2Z"/><path class="ca39-2" d="M13,27v1h3V27H13Z"/><path class="ca39-3" d="M16,23H13v1H12v2h1v1h3V26h1V24H16Z"/><path class="ca39-5" d="M20,30H19v1H18V30H17v3h1V32h1v1h1V30Z"/><rect class="ca39-5" x="18" y="29" width="1" height="1"/><path class="ca39-5" d="M16,32V30H15v2Z"/><path class="ca39-5" d="M14,32V30h1V29H13v4h2V32Z"/><path class="ca39-5" d="M12,30H11v1H10V30H9v3h1V32h1v1h1V30Z"/><rect class="ca39-5" x="10" y="29" width="1" height="1"/><path class="ca39-2" d="M20,16h1V15H20Z"/><rect class="ca39-2" x="19" y="14" width="1" height="1"/><path class="ca39-3" d="M13,13v1h3V12h1V11H16V10H13v1H12v2Z"/><rect class="ca39-3" x="9" y="15" width="1" height="1"/><path class="ca39-3" d="M12,21h1v1h3V21h1V20h1V19h1V16H18v1H16V16H15v1H14V16H13v1H11V16H10v3h1v1h1Zm2-2h1v1H14Z"/><rect class="ca39-3" x="14" y="15" width="1" height="1"/><rect class="ca39-3" x="19" y="15" width="1" height="1"/><path class="ca39-2" d="M19,17v2h1V16H19Z"/><rect class="ca39-2" x="18" y="19" width="1" height="1"/><rect class="ca39-2" x="17" y="20" width="1" height="1"/><path class="ca39-2" d="M16,21v1H13V21H12v3h1V23h3v1h1V21Z"/><rect class="ca39-2" x="11" y="20" width="1" height="1"/><rect class="ca39-2" x="10" y="19" width="1" height="1"/><rect class="ca39-2" x="9" y="14" width="1" height="1"/><path class="ca39-2" d="M10,16H9v3h1V16Z"/><path class="ca39-2" d="M9,15H8v1H9Z"/><rect class="ca39-2" x="14" y="16" width="1" height="1"/><path class="ca39-6" d="M16,13h2V12H16Z"/><path class="ca39-6" d="M12,12H11v1h1Z"/><rect class="ca39-2" x="14" y="19" width="1" height="1"/><path class="ca39-7" d="M20,17v2H19v1H18v1h1v1h1V21h1V20h1V19H21V16H20Z"/><path class="ca39-7" d="M9,14h2V12h1V11h1V10h3v1h1v1h1v2h2v1h1V12H20V10H19V9H18V8H11V9H10v1H9v2H8v3H9Z"/><path class="ca39-7" d="M9,21h2V20H10V19H9V16H8v3H7v1H9Z"/><path class="ca39-7" d="M12,22V21H11v1Z"/><path class="ca39-7" d="M17,22h1V21H17Z"/><path class="ca39-8" d="M13,13H11v1h2Z"/><path class="ca39-8" d="M11,17h2V16H11Z"/><path class="ca39-8" d="M10,16h1V14H10v2Z"/><path class="ca39-2" d="M13,16V14H11v2Z"/><path class="ca39-8" d="M19,16V14H18v2Z"/><path class="ca39-8" d="M16,14h2V13H16Z"/><path class="ca39-8" d="M16,17h2V16H16Z"/><path class="ca39-8" d="M13,14v2h1V15h1v1h1V14Z"/><path class="ca39-2" d="M16,16h2V14H16Z"/><rect class="ca39-2" x="5" y="25" width="1" height="1"/><rect class="ca39-2" x="9" y="25" width="1" height="1"/><path class="ca39-9" d="M6,21H5v1H6Z"/><path class="ca39-10" d="M9,24h1V21H9V20H6v2H5v1H8V22H7V21H8v1H9v1H8v1H6v1H9Z"/><rect class="ca39-9" x="7" y="21" width="1" height="1"/><path class="ca39-9" d="M8,23H5v1H8Z"/><rect class="ca39-9" x="8" y="22" width="1" height="1"/></svg>