<svg xmlns="http://www.w3.org/2000/svg" viewBox="0 0 29 33"><defs><style>polygon,rect,path{shape-rendering:crispedges;}.wa179-1{fill:#7a982c;}.wa179-2{fill:#ff6c77;}.wa179-3{fill:#000000;}.wa179-4{fill:#e8b795;}.wa179-5{fill:#990000;}.wa179-6{fill:#ffffff;}.wa179-7{fill:#7f5018;}.wa179-8{fill:#00e2b7;}</style></defs><path class="wa179-1" d="M0,33H8V32H6V31H5V23H4V20H5V19H7v1H8v1H9v2H8v2h2V22h1V20H10V19H9V16H8V15H9V11h1V10h1V9h7v1h1v1h1v4h1v1H20v3H19v1H18v2h1v3h2V23H20V21h1V20h1V19h2v1h1v3H24v8H23v1H21v1h8V0H0Z"/><rect class="wa179-2" x="19" y="32" width="1" height="1"/><rect class="wa179-2" x="9" y="32" width="1" height="1"/><path class="wa179-2" d="M17,32H15v1h3V32Z"/><path class="wa179-2" d="M13,32H11v1h3V32Z"/><path class="wa179-3" d="M18,24v1h1V22H18v2Z"/><path class="wa179-2" d="M18,27V26H17V25h1V23H17v1H16v2H15v1H14v3h1v1h3V30h1v1h1V29H19V28h1V27h1V26H19v1Zm0,2H17v1H16V29H15V28h1V27h1v1h1Z"/><path class="wa179-3" d="M15,25h1V24H15Z"/><path class="wa179-3" d="M15,26V25H14v2h1Z"/><rect class="wa179-3" x="13" y="24" width="1" height="1"/><path class="wa179-4" d="M14,25h1V24h1V23H13v1h1Z"/><path class="wa179-3" d="M11,24V22H10v3h1Z"/><path class="wa179-2" d="M13,26V24H12V23H11v2h1v1H11v1H10V26H8v1H9v1h1v1H9v2h1V30h1v1h2V30H12V29H11V28h1V27h2V26Z"/><path class="wa179-3" d="M6,29V23H5v8H6V29Z"/><path class="wa179-2" d="M6,28v2H7V27H6Z"/><path class="wa179-3" d="M23,24v7h1V23H23Z"/><path class="wa179-3" d="M22,32h1V31H22V23H21v2H19v1h2v1H20v4H14V27H13v4H9V27H8V26h2V25H8V23H7v8H6v1H8v1H9V32H20v1h1V32Z"/><path class="wa179-2" d="M23,29V27H22v3h1Z"/><rect class="wa179-3" x="20" y="15" width="1" height="1"/><path class="wa179-3" d="M19,15h1V14H19Z"/><path class="wa179-4" d="M12,21h1v1h3V21h1V20h1V19h1V16h1V15H16V13h1V12h2V11H18V10H11v1H10v2h1V12h2v1H11v1h2v1H9v1h1v3h1v1h1Zm2-5h1v1H14Zm-2,2h1v1h3v1H13V19H12Z"/><polygon class="wa179-4" points="18 14 19 14 19 13 17 13 17 14 18 14"/><path class="wa179-3" d="M19,17v2h1V16H19Z"/><rect class="wa179-3" x="18" y="19" width="1" height="1"/><path class="wa179-3" d="M12,23v1h1V23h3v1h1V22h1V20H17v1H16v1H13V21H12V20H11v2h1Z"/><rect class="wa179-3" x="10" y="19" width="1" height="1"/><path class="wa179-3" d="M10,14H9v1h1Z"/><path class="wa179-3" d="M10,16H9v3h1V16Z"/><rect class="wa179-3" x="8" y="15" width="1" height="1"/><rect class="wa179-3" x="14" y="16" width="1" height="1"/><path class="wa179-5" d="M18,32v1h1V32Z"/><path class="wa179-5" d="M18,30v1h1V30Z"/><path class="wa179-5" d="M22,30v1h1V30Z"/><path class="wa179-5" d="M23,26V24H22v3h1Z"/><path class="wa179-5" d="M7,30H6v1H7Z"/><path class="wa179-5" d="M6,25v2H7V24H6Z"/><polygon class="wa179-5" points="17 27 16 27 16 28 15 28 15 29 16 29 16 30 17 30 17 29 18 29 18 28 17 28 17 27"/><polygon class="wa179-5" points="17 25 17 26 18 26 18 27 19 27 19 26 19 25 18 25 17 25"/><path class="wa179-5" d="M15,26h1V25H15Z"/><path class="wa179-5" d="M13,26h1V25H13Z"/><path class="wa179-5" d="M12,28H11v1h1v1h1V27H12Z"/><polygon class="wa179-5" points="10 27 11 27 11 26 12 26 12 25 11 25 10 25 10 26 10 27"/><path class="wa179-5" d="M19,29h1V28H19Z"/><path class="wa179-5" d="M10,28H9v1h1Z"/><path class="wa179-5" d="M14,30v1h1V30Z"/><path class="wa179-5" d="M14,32v1h1V32Z"/><path class="wa179-5" d="M10,30v1h1V30Z"/><path class="wa179-5" d="M10,32v1h1V32Z"/><path class="wa179-5" d="M12,23V22H11v1Z"/><path class="wa179-5" d="M17,23h1V22H17Z"/><path class="wa179-6" d="M13,15V14H12v1Z"/><path class="wa179-6" d="M10,15h1V14H10Z"/><path class="wa179-6" d="M18,14v1h1V14Z"/><path class="wa179-6" d="M16,14v1h1V14Z"/><path class="wa179-3" d="M12,15V14H11v1Z"/><path class="wa179-3" d="M17,14v1h1V14Z"/><rect class="wa179-7" x="10" y="13" width="1" height="1"/><rect class="wa179-7" x="11" y="12" width="2" height="1"/><path class="wa179-7" d="M17,13H16v1h1Z"/><rect class="wa179-7" x="17" y="12" width="2" height="1"/><rect class="wa179-3" x="13" y="19" width="3" height="1"/><rect class="wa179-3" x="12" y="18" width="1" height="1"/><path class="wa179-3" d="M20,21v2h1V21Z"/><rect class="wa179-3" x="21" y="20" width="1" height="1"/><rect class="wa179-3" x="22" y="19" width="2" height="1"/><path class="wa179-3" d="M24,23h1V20H24v3Z"/><path class="wa179-4" d="M22,24h1V23h1V20H22v1H21v2h1Z"/><path class="wa179-3" d="M9,23V21H8v2Z"/><rect class="wa179-3" x="7" y="20" width="1" height="1"/><rect class="wa179-3" x="5" y="19" width="2" height="1"/><path class="wa179-3" d="M5,20H4v3H5V20Z"/><path class="wa179-4" d="M6,24H7V23H8V21H7V20H5v3H6Z"/><path class="wa179-8" d="M19,13v1h1V11H19v2Z"/><rect class="wa179-8" x="18" y="10" width="1" height="1"/><path class="wa179-8" d="M18,10V9H11v1h7Z"/><rect class="wa179-8" x="10" y="10" width="1" height="1"/><path class="wa179-8" d="M10,13V11H9v3h1Z"/></svg>