<svg xmlns="http://www.w3.org/2000/svg" viewBox="0 0 29 33"><defs><style>polygon,rect,path{shape-rendering:crispedges;}.ea85-1{fill:#31a09d;}.ea85-2{fill:#000000;}.ea85-3{fill:#68aa7b;}.ea85-4{fill:#e8b795;}.ea85-5{fill:#ffffff;}.ea85-6{fill:#000000;}.ea85-7{fill:#4922aa;}.ea85-8{fill:#316a6d;}.ea85-9{fill:#cbed03;}.ea85-10{fill:#304400;}.ea85-11{fill:#317f03;}</style></defs><path class="ea85-1" d="M18,22H17v2h2V21H18Z"/><path class="ea85-1" d="M0,33H6V27H7V26H8V25h2V24h2V22H11V21H10V20H9V16H8V15H9V11h1V10h1V9h1V8h5V9h2v1h1v1h1v3H20v1h1v1H20v4H19v1h3v4h1v8h6V0H0Z"/><path class="ea85-2" d="M9,27H8v2H7V27H6v6H7V30H8v3H9V27Z"/><rect class="ea85-2" x="7" y="26" width="1" height="1"/><path class="ea85-2" d="M10,25H8v1h2Z"/><path class="ea85-2" d="M12,24H10v1h2Z"/><path class="ea85-2" d="M13,23V22H12v2h1Z"/><path class="ea85-2" d="M18,24H17v1h2V24Z"/><path class="ea85-2" d="M21,26H20v7h1V26Z"/><path class="ea85-2" d="M23,25H22v8h1V25Z"/><path class="ea85-3" d="M20,26H19V25H17v1H16v1H13V26H12V25H10v1H8v1H9v6H20V26Z"/><path class="ea85-3" d="M8,29V27H7v2Z"/><path class="ea85-4" d="M22,25H20v1h1v7h1V25Z"/><path class="ea85-4" d="M13,25v1h3V25h1V24H16V23H13v1H12v1Z"/><path class="ea85-2" d="M13,26v1h3V26H13Z"/><path class="ea85-4" d="M8,30H7v3H8V30Z"/><rect class="ea85-2" x="16" y="25" width="1" height="1"/><rect class="ea85-2" x="12" y="25" width="1" height="1"/><rect class="ea85-2" x="20" y="15" width="1" height="1"/><path class="ea85-4" d="M17,14h2V13H17Z"/><path class="ea85-4" d="M17,16H16V13h1V11H15v4H14v1h1v1H14V16H13v1H11V16H10v2h1v1h1V18h2v1h1V18h2v1h1V18h1V16H17Z"/><rect class="ea85-4" x="19" y="15" width="1" height="1"/><rect class="ea85-4" x="13" y="20" width="1" height="1"/><polygon class="ea85-4" points="10 16 10 15 9 15 9 16 10 16 10 16"/><rect class="ea85-4" x="15" y="20" width="1" height="1"/><path class="ea85-2" d="M16,22v2h1V22Z"/><rect class="ea85-2" x="8" y="15" width="1" height="1"/><rect class="ea85-2" x="14" y="16" width="1" height="1"/><path class="ea85-5" d="M17,14H16v2h1V14Z"/><path class="ea85-5" d="M19,14H18v2h1V14Z"/><path class="ea85-2" d="M17,15v1h1V14H17Z"/><path class="ea85-6" d="M17,13H16v1h1Z"/><path class="ea85-6" d="M18,13V12H17v1Z"/><path class="ea85-7" d="M14,18H13v1h1Z"/><path class="ea85-7" d="M13,23h3V22h2V21h1V20h1V16H19v2H18v1H17V18H15v1h1v2H15V20H14v1H13V19H11V18H10V16H9v4h1v1h1v1h2Z"/><path class="ea85-2" d="M13,19v1h3V19H13Z"/><path class="ea85-2" d="M12,18v1h1V18Z"/><rect class="ea85-8" x="10" y="16" width="1"/><rect class="ea85-8" x="11" y="17" width="2"/><rect class="ea85-8" x="13" y="16" width="1"/><rect class="ea85-8" x="14" y="15" width="1"/><path class="ea85-9" d="M13,14V13H11v2h2Z"/><path class="ea85-10" d="M13,15h1V13H13v2Z"/><polygon class="ea85-10" points="13 15 11 15 11 15 11 16 13 16 13 15"/><path class="ea85-10" d="M11,14V13H10v2h1Z"/><polygon class="ea85-10" points="13 12 13 12 11 12 11 12 11 13 13 13 13 12"/><polygon class="ea85-2" points="11 15 11 15 10 15 10 15 10 16 11 16 11 15"/><polygon class="ea85-2" points="11 16 11 16 11 17 13 17 13 16 13 16 11 16"/><polygon class="ea85-2" points="13 15 13 16 14 16 14 15 14 15 13 15"/><rect class="ea85-2" x="10" y="10" width="1"/><polygon class="ea85-2" points="10 11 9 11 9 11 10 11 10 11"/><rect class="ea85-2" x="11" y="9" width="1"/><path class="ea85-2" d="M11,12h2v1h1v2h1V10H11v1H10v2h1Z"/><path class="ea85-11" d="M10,15V11H9v4Z"/><polygon class="ea85-11" points="11 11 11 10 10 10 10 11 10 11 11 11"/><path class="ea85-11" d="M12,10h3v1h2v1h1v1h1v2h1V14h1V11H20V10H19V9H17V8H12V9H11v1h1Z"/><rect class="ea85-2" x="20" y="22" width="1" height="1"/><path class="ea85-5" d="M19,24v2h1V25h2V21H19v3Zm1-2h1v1H20Z"/></svg>