<svg xmlns="http://www.w3.org/2000/svg" viewBox="0 0 29 33"><defs><style>polygon,rect,path{shape-rendering:crispedges;}.pa283-1{fill:#29834f;}.pa283-2{fill:#000000;}.pa283-3{fill:#990000;}.pa283-4{fill:#ce8452;}.pa283-5{fill:#ff6c77;}.pa283-6{fill:#66334f;}.pa283-7{fill:#5a2de2;}.pa283-8{fill:#cbed03;}.pa283-9{fill:#00e070;}</style></defs><path class="pa283-1" d="M0,33H6V27H7V26H8V25h2V24h1V23H10V22h1V21H10V20H9V16H8V14H9V11h1V10h1V9h7v1h1v1h1v3h1v2H20v4H19v1H18v1h1v1H18v1h1v1h2v1h1v1h1v6h6V0H0Z"/><path class="pa283-2" d="M23,27H22v6h1V27Z"/><path class="pa283-3" d="M22,27H21v6h1V27Z"/><rect class="pa283-2" x="21" y="26" width="1" height="1"/><path class="pa283-2" d="M21,27H20v6h1V27Z"/><rect class="pa283-3" x="10" y="29" width="1" height="1"/><path class="pa283-3" d="M19,32V31H18v1H17V30H16v1H15v1H13V30H12v2H11V31H10v1H9v1H20V32Z"/><path class="pa283-3" d="M16,25h1v4h1V28h1v1h1V27h1V26H19V25H18V24H16Z"/><rect class="pa283-3" x="18" y="29" width="1" height="1"/><path class="pa283-3" d="M9,27v2h1V28h1v1h1V25h1V24H11v1H10v1H8v1Z"/><path class="pa283-2" d="M20,26h1V25H19v1Z"/><rect class="pa283-2" x="18" y="24" width="1" height="1"/><rect class="pa283-2" x="18" y="22" width="1" height="1"/><rect class="pa283-3" x="17" y="22" width="1" height="1"/><path class="pa283-2" d="M16,25V24H13v1h3Z"/><path class="pa283-4" d="M16,24V23H13v1h3Z"/><path class="pa283-2" d="M13,23V22H12v1H11v1h2Z"/><rect class="pa283-3" x="11" y="22" width="1" height="1"/><rect class="pa283-2" x="10" y="24" width="1" height="1"/><rect class="pa283-2" x="10" y="22" width="1" height="1"/><path class="pa283-2" d="M10,25H8v1h2Z"/><path class="pa283-2" d="M9,31V27H8v6H9V31Z"/><path class="pa283-3" d="M8,27H7v6H8V27Z"/><rect class="pa283-2" x="7" y="26" width="1" height="1"/><path class="pa283-2" d="M7,27H6v6H7V27Z"/><path class="pa283-3" d="M13,28h2v1h1V25H13v3Z"/><path class="pa283-3" d="M14,29v2h1V29Z"/><path class="pa283-5" d="M19,30H18V29H17v3h1V31h1v1h1V29H19Z"/><rect class="pa283-5" x="18" y="28" width="1" height="1"/><path class="pa283-5" d="M15,29v2h1V29Z"/><path class="pa283-5" d="M14,30V29h1V28H13v4h2V31H14Z"/><path class="pa283-5" d="M11,29v1H10V29H9v3h1V31h1v1h1V29Z"/><rect class="pa283-5" x="10" y="28" width="1" height="1"/><path class="pa283-2" d="M13,27V25H12v5h1V27Z"/><path class="pa283-2" d="M17,28V25H16v5h1V28Z"/><path class="pa283-2" d="M20,16h1V15H20Z"/><path class="pa283-4" d="M16,17V16H15v1H14V16H13v1H10v1h1v1h1V18h2v1h1V18h2v1h1V18h1V17H16Z"/><rect class="pa283-4" x="13" y="20" width="1" height="1"/><rect class="pa283-4" x="15" y="20" width="1" height="1"/><path class="pa283-2" d="M17,22H16v2h2V23H17Z"/><path class="pa283-2" d="M8,15v1H9V15Z"/><rect class="pa283-2" x="14" y="16" width="1" height="1"/><path class="pa283-6" d="M14,18H13v1h1Z"/><path class="pa283-6" d="M13,22v1h3V22h2V21h1V20h1V16H19v2H18v1H17V18H15v1h1v2H15V20H14v1H13V19H11V18H10V16H9v4h1v1h1v1h2Z"/><path class="pa283-2" d="M13,19v1h3V19H13Z"/><path class="pa283-2" d="M12,18v1h1V18Z"/><rect class="pa283-7" x="14" y="15" width="1" height="1"/><path class="pa283-7" d="M10,13h3v1h3V13h3v1h1V11H19V10H18V9H11v1H10v1H9v3h1Z"/><path class="pa283-8" d="M19,15v1h1V15h1V14H19Z"/><path class="pa283-8" d="M19,14V13H16v1h3Z"/><path class="pa283-9" d="M19,14H16v2h3V14Z"/><path class="pa283-8" d="M16,16v1h3V16H16Z"/><path class="pa283-8" d="M14,16V15h1v1h1V14H13v2Z"/><path class="pa283-8" d="M13,14V13H10v1h3Z"/><path class="pa283-9" d="M13,16V14H10v2h3Z"/><path class="pa283-8" d="M13,17V16H10v1h3Z"/><path class="pa283-8" d="M10,15V14H8v1H9v1h1Z"/></svg>