<svg xmlns="http://www.w3.org/2000/svg" viewBox="0 0 29 33"><defs><style>polygon,rect,path{shape-rendering:crispedges;}.cb38-1{fill:#7a982c;}.cb38-2{fill:#000000;}.cb38-3{fill:#9b8100;}.cb38-4{fill:#ffffff;}.cb38-5{fill:#b2622b;}.cb38-6{fill:#492a23;}.cb38-7{fill:#ff1d99;}.cb38-8{fill:#ff6c77;}.cb38-9{fill:#fad000;}.cb38-10{fill:#381616;}</style></defs><path class="cb38-1" d="M0,33H6V26H5V25H6V24H5V21H6V20H9V16H8V15H9V11h1V10h1V7h1V6H11V5h2V6h2V7h1V9h2v1h1v1h1v4h1v1H20v4H19v1H18v1H17v1h1v1h1v1h2v1h1v1h1v6h6V0H0Z"/><rect class="cb38-1" x="9" y="20" width="1" height="1"/><rect class="cb38-1" x="9" y="24" width="1" height="1"/><path class="cb38-1" d="M11,23h1V22H11V21H10v3h1Z"/><path class="cb38-2" d="M23,27H22v6h1V27Z"/><rect class="cb38-2" x="21" y="26" width="1" height="1"/><path class="cb38-3" d="M22,27H21v6h1V27Z"/><path class="cb38-2" d="M21,27H20v6h1V27Z"/><path class="cb38-3" d="M20,27h1V26H18v3H17v4h3V27Z"/><path class="cb38-2" d="M16,24H15V23H14v1H13V23H11v1h1v2h1V25h1v1h1V25h1v1h1V24h1V23H16Z"/><path class="cb38-2" d="M17,29H16V28H15v2h1v3h1V29Z"/><rect class="cb38-4" x="15" y="23" width="1" height="1"/><rect class="cb38-4" x="13" y="25" width="1" height="1"/><path class="cb38-4" d="M16,30H15v1H14V30H13v3h1V32h1v1h1V30Z"/><rect class="cb38-4" x="12" y="28" width="1" height="1"/><rect class="cb38-4" x="16" y="28" width="1" height="1"/><rect class="cb38-4" x="15" y="25" width="1" height="1"/><rect class="cb38-2" x="14" y="32" width="1" height="1"/><rect class="cb38-4" x="13" y="23" width="1" height="1"/><path class="cb38-2" d="M13,30h1V28H13v1H12v4h1V30Z"/><path class="cb38-3" d="M12,29H11V26H9v7h3V29Z"/><path class="cb38-2" d="M9,26H8v7H9V26Z"/><path class="cb38-5" d="M7,27H8V26H9V25H6v1H7Z"/><path class="cb38-4" d="M7,28H8V27H7Z"/><path class="cb38-3" d="M8,28H7v5H8V28Z"/><path class="cb38-2" d="M7,28V26H6v7H7V28Z"/><rect class="cb38-2" x="20" y="15" width="1" height="1"/><path class="cb38-2" d="M19,14v1h1V11H19v3Z"/><path class="cb38-5" d="M10,17h1v1h1v1h1V18h5V17h1V16h1V15H16V13h3V11H18V10H16v1H14V10H11v1H10v2h3v2H9v1h1Zm4-1h1v1H14Z"/><rect class="cb38-2" x="18" y="10" width="1" height="1"/><path class="cb38-2" d="M13,9H11v1h2Z"/><path class="cb38-2" d="M17,10h1V9H16v1Z"/><rect class="cb38-2" x="10" y="10" width="1" height="1"/><path class="cb38-2" d="M10,14V11H9v4h1Z"/><rect class="cb38-2" x="8" y="15" width="1" height="1"/><rect class="cb38-2" x="14" y="16" width="1" height="1"/><path class="cb38-4" d="M12,15h1V14H12Z"/><path class="cb38-4" d="M10,14v1h1V14Z"/><path class="cb38-4" d="M18,14v1h1V14Z"/><path class="cb38-4" d="M16,14v1h1V14Z"/><path class="cb38-2" d="M11,14v1h1V14Z"/><path class="cb38-2" d="M17,14v1h1V14Z"/><path class="cb38-6" d="M11,14h2V13H10v1Z"/><path class="cb38-6" d="M18,14h1V13H16v1h2Z"/><path class="cb38-7" d="M10,21h1v1h1v1h5V22h1V21h1V20h1V16H19v1H18v1H17v1H16v1H13V19H12V18H11V17H10V16H9v4h1Z"/><path class="cb38-7" d="M15,18H13v1h3V18Z"/><rect class="cb38-2" x="13" y="19" width="3" height="1"/><path class="cb38-2" d="M16,19h1V18H16Z"/><path class="cb38-8" d="M13,10h1v1h2V7H15V6H13V5H11V6h1V7H11V9h2Z"/><rect class="cb38-2" x="14" y="30" width="1" height="1"/><path class="cb38-2" d="M12,27V26H11v3h1V28h1V27Z"/><path class="cb38-2" d="M17,27H16v1h1v1h1V26H17Z"/><rect class="cb38-2" x="13" y="26" width="1" height="1"/><rect class="cb38-2" x="15" y="26" width="1" height="1"/><rect class="cb38-9" x="16" y="26" width="1" height="1"/><path class="cb38-9" d="M15,27V26H14v1H13v1h1v2h1V28h1V27Z"/><rect class="cb38-9" x="12" y="26" width="1" height="1"/><path class="cb38-9" d="M12,25V24H11v2h1Z"/><path class="cb38-9" d="M17,25v1h1V24H17Z"/><path class="cb38-2" d="M21,26V25H19V24H18v2Z"/><path class="cb38-2" d="M10,24v1H9v1h2V24Z"/><rect class="cb38-2" x="5" y="25" width="1" height="1"/><path class="cb38-10" d="M6,21H5v1H6Z"/><path class="cb38-9" d="M9,24h1V21H9V20H6v2H5v1H8V22H7V21H8v1H9v1H8v1H6v1H9Z"/><rect class="cb38-10" x="7" y="21" width="1" height="1"/><path class="cb38-10" d="M8,23H5v1H8Z"/><rect class="cb38-10" x="8" y="22" width="1" height="1"/><rect class="cb38-8" x="10" y="9" width="1" height="1"></rect></svg>