<svg xmlns="http://www.w3.org/2000/svg" viewBox="0 0 29 33"><defs><style>polygon,rect,path{shape-rendering:crispedges;}.aa50-1{fill:#d14646;}.aa50-2{fill:#000000;}.aa50-3{fill:#a56e49;}.aa50-4{fill:#72dd40;}.aa50-5{fill:#317f03;}.aa50-6{fill:#ffffff;}.aa50-7{fill:#663228;}.aa50-8{fill:#663228;}.aa50-9{fill:#6e12ff;}</style></defs><path class="aa50-1" d="M6,32V27H7V26H8V25h2V24h2V21H9V20H8V19H9V16H8V14H9V12H8v1H7V12H8V11H9V10h1V9h2V8h5V9h2v1h1v1h1v1h1v1H21V12H20v2h1v2H20v3h1v1H20v1H17v3h2v1h2v1h1v1h1v6h6V0H0V33H6Z"/><path class="aa50-2" d="M23,31V27H22v6h1Z"/><rect class="aa50-2" x="21" y="26" width="1" height="1"/><path class="aa50-3" d="M22,31V27H21v6h1Z"/><rect class="aa50-3" x="20" y="26" width="1" height="1"/><path class="aa50-2" d="M21,31V27H20v6h1Z"/><path class="aa50-2" d="M20,26h1V25H19v1Z"/><rect class="aa50-4" x="12" y="30" width="1" height="1"/><path class="aa50-4" d="M16,32H12v1h5V32Z"/><rect class="aa50-4" x="16" y="30" width="1" height="1"/><path class="aa50-4" d="M20,31V26H19V25H18v1H17v1H16v1h1v1h1v1h1v3h1Z"/><path class="aa50-4" d="M10,31V30h1V29h1V28h1V27H12V26H11V25H10v1H9v7h1Z"/><path class="aa50-2" d="M17,26h1V25h1V24H17Z"/><rect class="aa50-2" x="16" y="26" width="1" height="1"/><path class="aa50-2" d="M14,27H13v1h3V27Z"/><path class="aa50-2" d="M13,23h3v1h1V21H16v1H13V21H12v3h1Z"/><path class="aa50-3" d="M12,26h1v1h3V26h1V24H16V23H13v1H12Z"/><rect class="aa50-2" x="12" y="26" width="1" height="1"/><path class="aa50-2" d="M11,26h1V24H10v1h1Z"/><path class="aa50-2" d="M10,26V25H8v1Z"/><rect class="aa50-3" x="8" y="26" width="1" height="1"/><path class="aa50-2" d="M9,31V27H8v6H9Z"/><rect class="aa50-2" x="7" y="26" width="1" height="1"/><path class="aa50-3" d="M8,31V27H7v6H8Z"/><path class="aa50-2" d="M7,31V27H6v6H7Z"/><path class="aa50-5" d="M19,31V30H18V29H17V28H12v1H11v1H10v3h2V32h5v1h2Zm-6,0H12V30h1Zm4,0H16V30h1Z"/><rect class="aa50-2" x="20" y="15" width="1" height="1"/><rect class="aa50-2" x="19" y="14" width="1" height="1"/><path class="aa50-3" d="M13,22h3V21h1V19h1V18h1V16h1V15H16V13h1V12H15V11H14v1H13v1H11v1h2v1H9v1h1v2h1v1h1V18h1v1h3v1H13V19H12v2h1Zm2-5H14V16h1Z"/><path class="aa50-3" d="M18,14h1V13H17v1Z"/><rect class="aa50-2" x="17" y="20" width="1" height="1"/><rect class="aa50-2" x="11" y="20" width="1" height="1"/><rect class="aa50-2" x="9" y="14" width="1" height="1"/><rect class="aa50-2" x="8" y="15" width="1" height="1"/><rect class="aa50-2" x="14" y="16" width="1" height="1"/><rect class="aa50-6" x="12" y="14" width="1" height="1"/><rect class="aa50-6" x="10" y="14" width="1" height="1"/><rect class="aa50-6" x="18" y="14" width="1" height="1"/><rect class="aa50-6" x="16" y="14" width="1" height="1"/><rect class="aa50-2" x="11" y="14" width="1" height="1"/><rect class="aa50-2" x="17" y="14" width="1" height="1"/><rect class="aa50-7" x="10" y="13" width="1" height="1"/><rect class="aa50-7" x="12" y="12" width="1" height="1"/><rect class="aa50-7" x="16" y="13" width="1" height="1"/><path class="aa50-8" d="M19,17v1H18v1H17v1h1v1h2V20h1V19H20V16H19Z"/><path class="aa50-8" d="M12,20V19H11V18H10V16H9v3H8v1H9v1h2V20Z"/><rect class="aa50-2" x="13" y="19" width="3" height="1"/><rect class="aa50-2" x="12" y="18" width="1" height="1"/><rect class="aa50-9" x="21" y="12" width="1" height="1"/><path class="aa50-9" d="M10,13h2V12h2V11h1v1h2v1h2v1h1V12h1V11H20V10H19V9H17V8H12V9H10v1H9v1H8v1H9v2h1Z"/><rect class="aa50-9" x="20" y="14" width="1" height="1"/><rect class="aa50-9" x="8" y="14" width="1" height="1"/><rect class="aa50-9" x="7" y="12" width="1" height="1"/></svg>