<svg xmlns="http://www.w3.org/2000/svg" viewBox="0 0 29 33"><defs><style>polygon,rect,path{shape-rendering:crispedges;}.la223-1{fill:#397d98;}.la223-2{fill:#000000;}.la223-3{fill:#c4ea3b;}.la223-4{fill:#990000;}.la223-5{fill:#e8b795;}.la223-6{fill:#ffffff;}.la223-7{fill:#8e4717;}.la223-8{fill:#db5800;}</style></defs><path class="la223-1" d="M0,33H6V27H7V26H8V25h2V24h2V21H11V20H10V19H9V16H8V15H9V10h1V9h1V8h7V9h1v1h1v2h1v6H20v1H19v1H18v1H17v3h2v1h2v1h1v1h1v6h6V0H0Z"/><path class="la223-2" d="M23,27H22v6h1V27Z"/><rect class="la223-2" x="21" y="26" width="1" height="1"/><path class="la223-3" d="M21,31h1V30H21Z"/><path class="la223-3" d="M21,28h1V27H21Z"/><path class="la223-2" d="M21,30V27H20v6h1V30Z"/><path class="la223-2" d="M20,26h1V25H19v1Z"/><path class="la223-3" d="M17,25V24H12v1Z"/><path class="la223-3" d="M9,27v1H20V27H9Z"/><path class="la223-3" d="M9,31H20V30H9Z"/><path class="la223-2" d="M18,25h1V24H17v1Z"/><path class="la223-2" d="M13,23h3v1h1V21H16v1H13V21H12v3h1Z"/><path class="la223-2" d="M12,24H10v1h2Z"/><path class="la223-2" d="M10,25H8v1h2Z"/><path class="la223-2" d="M9,30V27H8v6H9V30Z"/><rect class="la223-2" x="7" y="26" width="1" height="1"/><path class="la223-3" d="M7,31H8V30H7Z"/><path class="la223-3" d="M8,28V27H7v1Z"/><path class="la223-2" d="M7,30V27H6v6H7V30Z"/><path class="la223-4" d="M9,31v2H20V31Z"/><path class="la223-4" d="M9,29v1H20V28H9Z"/><path class="la223-4" d="M9,27H21V26H19V25H10v1H8v1Z"/><path class="la223-4" d="M15,23H13v1h3V23Z"/><path class="la223-4" d="M7,29v1H8V28H7Z"/><path class="la223-4" d="M7,31v2H8V31Z"/><path class="la223-4" d="M21,31v2h1V31Z"/><path class="la223-4" d="M21,29v1h1V28H21Z"/><path class="la223-5" d="M13,22h3V21h1V20h1V19h1V16h1V15H16V12H15V11H13V10H11v1H10v1h3v1H10v1h3v1H9v1h1v3h1v1h1v1h1Zm1-6h1v1H14Zm-1,3h3V18h1v1H16v1H13Z"/><path class="la223-2" d="M19,16v3h1V16Z"/><rect class="la223-2" x="18" y="19" width="1" height="1"/><rect class="la223-2" x="17" y="20" width="1" height="1"/><rect class="la223-2" x="11" y="20" width="1" height="1"/><rect class="la223-2" x="10" y="19" width="1" height="1"/><path class="la223-2" d="M10,16H9v3h1V16Z"/><rect class="la223-2" x="8" y="15" width="1" height="1"/><rect class="la223-2" x="14" y="16" width="1" height="1"/><path class="la223-6" d="M18,14v1h1V14Z"/><path class="la223-6" d="M13,15V14H12v1Z"/><path class="la223-2" d="M17,14H16v1h2V14Z"/><path class="la223-2" d="M11,15h1V14H10v1Z"/><rect class="la223-7" x="10" y="12" width="3" height="1"/><path class="la223-7" d="M18,14V13H16v1h2Z"/><rect class="la223-2" x="13" y="19" width="3" height="1"/><rect class="la223-2" x="16" y="18" width="1" height="1"/><path class="la223-8" d="M10,14V11h1V10h2v1h2v1h1v1h2v1h1v1h1v3h1V12H20V10H19V9H18V8H11V9H10v1H9v5h1Z"/></svg>