<svg xmlns="http://www.w3.org/2000/svg" viewBox="0 0 29 33"><defs><style>polygon,rect,path{shape-rendering:crispedges;}.hb137-1{fill:#e55b35;}.hb137-2{fill:#c18d59;}.hb137-3{fill:#000000;}.hb137-4{fill:#ffffff;}.hb137-5{fill:#473a35;}.hb137-6{fill:#473a35;}.hb137-7{fill:#00774c;}.hb137-8{fill:#fad000;}</style></defs><path class="hb137-1" d="M0,33H6V26H5v1H4V25H5V24H7V23H8V22H9V21h1V20H9V16H8V15H9V11h1V10h1V9h2V7h1V5h1V6h1V8h1V9h1v1h1v1h1v4h1v1H20v4H19v1H18v1H17v2h2v1h2v1h1v1h1v6h6V0H0Z"/><path class="hb137-1" d="M12,22H10v1H9v1h3V22Z"/><path class="hb137-2" d="M8,27H9V25H7v8H8V27Z"/><path class="hb137-3" d="M7,25H6v8H7V25Z"/><path class="hb137-3" d="M23,27H22v6h1V27Z"/><path class="hb137-2" d="M22,27H21v6h1V27Z"/><rect class="hb137-3" x="21" y="26" width="1" height="1"/><path class="hb137-3" d="M21,27H20v6h1V27Z"/><path class="hb137-2" d="M20,27h1V26H19V25H17V24H16V23H13v1H12v2H11V25H10v2H9v6h5V29h1v4h5V27Zm-8,2H11V28h1Zm6,0H17V28h1Z"/><path class="hb137-3" d="M20,26h1V25H19v1Z"/><rect class="hb137-3" x="17" y="28" width="1" height="1"/><path class="hb137-3" d="M18,25h1V24H17v1Z"/><path class="hb137-3" d="M16,24h1V23H16Z"/><path class="hb137-3" d="M15,29H14v4h1V29Z"/><path class="hb137-3" d="M12,24h1V23H12Z"/><rect class="hb137-3" x="11" y="28" width="1" height="1"/><path class="hb137-3" d="M11,25h1V24H11Z"/><path class="hb137-3" d="M9,27H8v6H9V27Z"/><rect class="hb137-3" x="20" y="15" width="1" height="1"/><path class="hb137-3" d="M19,14v1h1V11H19v3Z"/><path class="hb137-2" d="M10,17h1v1h1v1h1V18h5V17h1V16h1V15H16V14h2V13H16V12h2v1h1V11H18V10H14v1H13V10H11v1H10v2h1V12h2v1H11v1h2v1H9v1h1Zm4-1h1v1H14Z"/><rect class="hb137-3" x="18" y="10" width="1" height="1"/><path class="hb137-3" d="M13,9H11v1h2Z"/><path class="hb137-3" d="M15,10h3V9H15Z"/><rect class="hb137-3" x="10" y="10" width="1" height="1"/><path class="hb137-3" d="M10,14V11H9v4h1Z"/><rect class="hb137-3" x="8" y="15" width="1" height="1"/><rect class="hb137-3" x="14" y="16" width="1" height="1"/><path class="hb137-4" d="M13,15V14H12v1Z"/><path class="hb137-4" d="M10,15h1V14H10Z"/><path class="hb137-4" d="M18,14v1h1V14Z"/><path class="hb137-4" d="M16,14v1h1V14Z"/><path class="hb137-3" d="M12,15V14H11v1Z"/><path class="hb137-3" d="M17,14v1h1V14Z"/><path class="hb137-5" d="M19,13H18v1h1Z"/><rect class="hb137-5" x="16" y="12" width="2" height="1"/><path class="hb137-5" d="M11,14V13H10v1Z"/><rect class="hb137-5" x="11" y="12" width="2" height="1"/><path class="hb137-6" d="M11,22h1v1h5V22h1V21h1V20h1V16H19v1H18v1H17v1H16v1H13V19H12V18H11V17H10V16H9v4h1v1h1Z"/><path class="hb137-6" d="M15,18H13v1h3V18Z"/><rect class="hb137-3" x="13" y="19" width="3" height="1"/><path class="hb137-3" d="M16,19h1V18H16Z"/><path class="hb137-7" d="M13,11h1V10h1V9h2V8H16V6H15V5H14V7H13v4Z"/><path class="hb137-8" d="M7,25V24H5v1H4v2H5V26H6V25Z"/><path class="hb137-4" d="M8,25H9V23h1V22h1V21H9v1H8v1H7v2Z"/><path class="hb137-8" d="M10,24H9v1h2V24Z"/><path class="hb137-8" d="M11,26h1V25H11Z"/><path class="hb137-3" d="M9,26v1h1V25H9Z"/></svg>