<svg xmlns="http://www.w3.org/2000/svg" viewBox="0 0 29 33"><defs><style>polygon,rect,path{shape-rendering:crispedges;}.bb179-1{fill:#6b4f99;}.bb179-2{fill:#000000;}.bb179-3{fill:#9b8100;}.bb179-4{fill:#ffffff;}.bb179-5{fill:#b2622b;}.bb179-6{fill:#5e362f;}.bb179-7{fill:#5e362f;}.bb179-8{fill:#cc3232;}.bb179-9{fill:#efc075;}.bb179-10{fill:#2aa8e8;}.bb179-11{fill:#d8aa68;}.bb179-12{fill:#563e1b;}</style></defs><path class="bb179-1" d="M0,33H6V28H5V27H4V25H5V24H8v1h2V24h1V23h1V21H11V20H9V18H8V12H9V11h1V10h1V9h7v1h1v1h1v2h1v1h1v8h1v1h1v8H23v1H22v1h7V0H0Z"/><path class="bb179-1" d="M21,25V18H20v2H18v1H17v2h1v1h1v1h2Z"/><path class="bb179-2" d="M7,28V27H5v1H6v5H7V28Z"/><path class="bb179-3" d="M8,28H7v5H8V28Z"/><path class="bb179-2" d="M9,26h1V25H8v8H9V26Z"/><path class="bb179-3" d="M12,29H11V25H10v1H9v7h3V29Z"/><path class="bb179-2" d="M11,26v3h1V26h1V25H12V24h1V22H12v1H11v1H10v1h1Z"/><rect class="bb179-4" x="12" y="24" width="1" height="1"/><path class="bb179-2" d="M13,29H12v4h1V29Z"/><path class="bb179-4" d="M14,23H13v1h1Z"/><path class="bb179-4" d="M16,29h1V26H16V25H13v1H12v3h1v4h1V32h1v1h1V29Zm-1,2H14V30h1Zm0-2H14V28h1Zm0-2H14V26h1Z"/><rect class="bb179-2" x="14" y="26" width="1" height="1"/><rect class="bb179-2" x="14" y="28" width="1" height="1"/><rect class="bb179-2" x="14" y="30" width="1" height="1"/><rect class="bb179-2" x="14" y="32" width="1" height="1"/><rect class="bb179-4" x="15" y="23" width="1" height="1"/><path class="bb179-2" d="M15,24V23H14v1H13v1h3V24Z"/><rect class="bb179-4" x="16" y="24" width="1" height="1"/><path class="bb179-2" d="M17,29H16v4h1V29Z"/><path class="bb179-2" d="M18,24V23H17V22H16v2h1v1H16v1h1v3h1V25h1V24Z"/><path class="bb179-3" d="M20,27h1V26H19V25H18v4H17v4h3V27Z"/><path class="bb179-2" d="M20,25H19v1h2V25Z"/><path class="bb179-2" d="M21,29V27H20v6h1V29Z"/><rect class="bb179-2" x="22" y="31" width="1" height="1"/><path class="bb179-3" d="M23,26H22v5h1V26Z"/><path class="bb179-2" d="M23,26v5h1V23H23v3Z"/><rect class="bb179-5" x="11" y="11" width="1" height="1"/><path class="bb179-5" d="M18,15H17v2H16V15H15V11H14v1H13v2h1v2h1v1H14V16H13V15H11v4h1V18h1v1h3v1h1V19h1V15Z"/><rect class="bb179-5" x="9" y="15" width="1" height="1"/><rect class="bb179-5" x="12" y="19" width="1" height="1"/><rect class="bb179-5" x="16" y="12" width="1" height="1"/><rect class="bb179-5" x="17" y="13" width="1" height="1"/><rect class="bb179-5" x="11" y="13" width="1" height="1"/><rect class="bb179-5" x="19" y="15" width="1" height="1"/><path class="bb179-5" d="M13,21h3V20H13Z"/><rect class="bb179-2" x="9" y="14" width="1" height="1"/><rect class="bb179-2" x="14" y="16" width="1" height="1"/><rect class="bb179-4" x="16" y="14" width="1" height="1"/><path class="bb179-2" d="M13,14H11v1h2Z"/><rect class="bb179-2" x="17" y="14" width="1" height="1"/><rect class="bb179-6" x="11" y="12" width="1" height="1"/><rect class="bb179-6" x="16" y="13" width="1" height="1"/><rect class="bb179-6" x="17" y="12" width="1" height="1"/><path class="bb179-7" d="M20,17V16H19v2h1Z"/><path class="bb179-7" d="M13,23h3V22h1V21h1V20h1V18H18v1H17v1H16v1H13V20H12V19H11V18H10v2h1v1h1v1h1Z"/><path class="bb179-7" d="M10,17V16H9v2h1Z"/><rect class="bb179-2" x="13" y="19" width="3" height="1"/><rect class="bb179-2" x="12" y="18" width="1" height="1"/><path class="bb179-8" d="M9,15V14h1v4h1V11h1v3h1V12h1V11h1v4h1V12h2v6h1V15h1v3h1V13H20V11H19V10H18V9H11v1H10v1H9v1H8v6H9V15Z"/><path class="bb179-8" d="M9,18v2h1V18Z"/><path class="bb179-8" d="M13,16h1V14H13v2Z"/><path class="bb179-8" d="M17,17V15H16v2Z"/><path class="bb179-8" d="M20,19V18H19v2h1Z"/><path class="bb179-9" d="M21,27v2h1V27Z"/><path class="bb179-9" d="M21,20v1h1V19H21Z"/><path class="bb179-9" d="M21,16v1h1V15H21Z"/><path class="bb179-10" d="M22,15V14H21v1Z"/><path class="bb179-5" d="M21,23v2h2V23H21Z"/><path class="bb179-11" d="M22,26V25H21v2h1Z"/><path class="bb179-11" d="M21,23h1V21H21Z"/><path class="bb179-11" d="M21,18v1h1V17H21Z"/><path class="bb179-4" d="M7,26H8V24H5v1H7Z"/><path class="bb179-5" d="M8,27V26H7V25H5v2H8Z"/><path class="bb179-12" d="M22,31V29H21v4h1V31Z"/><path class="bb179-2" d="M23,23V22H22v1Z"/><path class="bb179-2" d="M4,25v2H5V25Z"/><path class="bb179-4" d="M23,26V25H22v1Z"/><path class="bb179-4" d="M7,28H8V27H7Z"/></svg>