<svg xmlns="http://www.w3.org/2000/svg" viewBox="0 0 29 33"><defs><style>polygon,rect,path{shape-rendering:crispedges;}.za129-1{fill:#db5a8e;}.za129-2{fill:#000000;}.za129-3{fill:#ff6aa5;}.za129-4{fill:#b2622b;}.za129-5{fill:#cc2f76;}.za129-6{fill:#ffffff;}.za129-7{fill:#663228;}.za129-8{fill:#00af68;}.za129-9{fill:#c9a717;}.za129-10{fill:#a3531d;}.za129-11{fill:#d1b4ca;}</style></defs><path class="za129-1" d="M19,25h2V24H19Z"/><path class="za129-1" d="M18,23v1h1V23h0V21H18v1H17v1Z"/><path class="za129-1" d="M0,33H6V27H7V26H8V25h2V24h1V23h1V22H11V21H10V20H9V18H8V13H4V12H6V11H8V10h2V9h1V8h1V7h1V6h1V5h1V6h1V7h1V8h1V9h1v1h2v1h2v1h2v1H21v5H20v2H19v1h3v1h1v1h1v8H23v1H21v1h8V0H0Z"/><path class="za129-2" d="M23,25v6h1V23H23v2Z"/><path class="za129-2" d="M7,31V27H6v6H7V31Z"/><path class="za129-3" d="M7,30v1H8V29H7Z"/><rect class="za129-3" x="7" y="32" width="1" height="1"/><path class="za129-3" d="M8,28V27H7v1Z"/><rect class="za129-2" x="7" y="26" width="1" height="1"/><path class="za129-2" d="M9,31V27H8v6H9V31Z"/><rect class="za129-3" x="9" y="32" width="1" height="1"/><path class="za129-3" d="M17,32V31h1V30h1v1h1V29H19V28h1V27h1V26H19v1H18V26H15v1H14V26H11v1H10V26H8v1H9v1h1v1H9v2h1V30h1v1h1v1H11v1h3V32H13V31h1V30h1v1h1v1H15v1h3V32Zm-2-3H13v1H12V29H11V28h1V27h1v1h3V27h1v1h1v1H17v1H16V29Z"/><rect class="za129-3" x="19" y="32" width="1" height="1"/><path class="za129-2" d="M10,25H8v1h2Z"/><rect class="za129-3" x="12" y="24" width="1" height="1"/><path class="za129-2" d="M11,26h2V25H12V24h1V22H12v1H11v1H10v1h1Z"/><rect class="za129-2" x="13" y="24" width="1" height="1"/><rect class="za129-2" x="14" y="32" width="1" height="1"/><rect class="za129-2" x="14" y="30" width="1" height="1"/><path class="za129-2" d="M14,28v1h1V28Z"/><path class="za129-2" d="M14,25v2h1V25Z"/><rect class="za129-2" x="15" y="24" width="1" height="1"/><path class="za129-4" d="M14,25h1V24h1V23H13v1h1Z"/><rect class="za129-3" x="16" y="24" width="1" height="1"/><path class="za129-2" d="M18,24V23H17V22H16v2h1v1H16v1h2V25h1V24Z"/><path class="za129-2" d="M22,32h1V31H22V24H21v1H19v1h2v1H20v6h1V32Z"/><path class="za129-3" d="M23,29V27H22v3h1Z"/><path class="za129-5" d="M20,32V31H19V30H18v1H17v1h1v1h1V32Z"/><path class="za129-5" d="M22,30v1h1V30Z"/><path class="za129-5" d="M23,26V24H22v3h1Z"/><path class="za129-5" d="M17,30V29h1V28H17V27H16v1H15v1h1v1Z"/><polygon class="za129-5" points="18 26 18 27 19 27 19 26 19 25 18 25 18 26"/><path class="za129-5" d="M15,25v1h1V25Z"/><path class="za129-5" d="M13,25v1h1V25Z"/><path class="za129-5" d="M13,28V27H12v1H11v1h1v1h1V29h1V28Z"/><polygon class="za129-5" points="10 27 11 27 11 26 11 25 10 25 10 26 10 27"/><path class="za129-5" d="M19,29h1V28H19Z"/><path class="za129-5" d="M7,29H8V28H7Z"/><path class="za129-5" d="M10,29V28H9v1Z"/><path class="za129-5" d="M7,32H8V31H7Z"/><polygon class="za129-5" points="16 32 16 31 15 31 14 31 13 31 13 32 14 32 15 32 16 32"/><path class="za129-5" d="M12,32V31H11V30H10v1H9v1h1v1h1V32Z"/><rect class="za129-2" x="19" y="14" width="1" height="1"/><rect class="za129-4" x="15" y="20" width="1" height="1"/><rect class="za129-4" x="19" y="15" width="1" height="1"/><rect class="za129-4" x="9" y="15" width="1" height="1"/><rect class="za129-4" x="13" y="20" width="1" height="1"/><path class="za129-4" d="M18,15H16v1H15v1H14V16h1V14H14v1H13v2H12V15H11v4h1V18h2v1h1V18h2v1h1V15Z"/><rect class="za129-2" x="14" y="16" width="1" height="1"/><rect class="za129-6" x="12" y="14" width="1" height="1"/><path class="za129-6" d="M17,15V14H16v1Z"/><rect class="za129-2" x="11" y="14" width="1" height="1"/><path class="za129-2" d="M18,15V14H17v1Z"/><path class="za129-7" d="M14,18H13v1h1Z"/><path class="za129-7" d="M19,16v2h1V16Z"/><path class="za129-7" d="M13,23h3V22h2V21h1V18H18v1H17V18H15v1h1v2H15V20H14v1H13V19H11V18H10v3h1v1h2Z"/><path class="za129-7" d="M10,17V16H9v2h1Z"/><path class="za129-2" d="M13,19v1h3V19H13Z"/><path class="za129-2" d="M12,18v1h1V18Z"/><path class="za129-8" d="M20,15v3h1V14H20Z"/><path class="za129-8" d="M9,15h1v3h1V14H8v4H9V15Z"/><path class="za129-8" d="M19,15V14H18v4h1V15Z"/><rect class="za129-8" x="13" y="14" width="1" height="1"/><path class="za129-8" d="M19,19v1h1V18H19Z"/><path class="za129-8" d="M16,16V14H15v2Z"/><path class="za129-8" d="M12,16v1h1V15H12Z"/><path class="za129-8" d="M9,18v2h1V18Z"/><path class="za129-9" d="M11,14H21V13h4V12H23V11H21V10H19V9H18V8H17V7H16V6H15V5H14V6H13V7H12V8H11V9H10v1H8v1H6v1H4v1H8v1h3Z"/><path class="za129-10" d="M20,23H19v1h2V23Z"/><path class="za129-11" d="M19,22v1h3V22h0V21H19Z"/><path class="za129-4" d="M21,23v1h2V23H21Z"/><path class="za129-2" d="M22,23h1V22H22Z"/></svg>