<svg xmlns="http://www.w3.org/2000/svg" viewBox="0 0 29 33"><defs><style>polygon,rect,path{shape-rendering:crispedges;}.fa230-1{fill:#6b4f99;}.fa230-2{fill:#000000;}.fa230-3{fill:#6d5800;}.fa230-4{fill:#e8b795;}.fa230-5{fill:#6d5800;}.fa230-6{fill:#ffffff;}.fa230-7{fill:#893a1f;}.fa230-8{fill:#cc3232;}.fa230-9{fill:#0068ff;}</style></defs><path class="fa230-1" d="M6,32V27H7V26H8V25h2V24h2V21H11V20H9V19H8V13H9V10h1V9h1V8h7V9h1v1h1v3h1v6H20v1H18v1H17v3h2v1h2v1h1v1h1v6h6V0H0V33H6Z"/><path class="fa230-2" d="M23,27H22v3H21V27H20v6h1V31h1v2h1V27Z"/><rect class="fa230-2" x="21" y="26" width="1" height="1"/><path class="fa230-3" d="M21,28v2h1V27H21Z"/><path class="fa230-4" d="M21,31v2h1V31Z"/><path class="fa230-2" d="M20,26h1V25H19v1Z"/><path class="fa230-3" d="M19,32V31H18v1H17V29h1V28h1v1h1V27h1V26H19V25H17v1H16v1H13V26H12V25H10v1H8v1H9v2h1V28h1v1h1v3H11V31H10v1H9v1H20V32Zm-3-2v1H15v1H13V28h2v1h1Z"/><rect class="fa230-3" x="18" y="29" width="1" height="1"/><path class="fa230-3" d="M15,29H14v2h1V29Z"/><rect class="fa230-3" x="10" y="29" width="1" height="1"/><path class="fa230-2" d="M18,25h1V24H17v1Z"/><rect class="fa230-2" x="16" y="25" width="1" height="1"/><path class="fa230-2" d="M13,26v1h3V26H13Z"/><path class="fa230-2" d="M13,23h3v1h1V21H16v1H13V21H12v3h1Z"/><path class="fa230-4" d="M13,25v1h3V25h1V24H16V23H13v1H12v1Z"/><rect class="fa230-2" x="12" y="25" width="1" height="1"/><path class="fa230-2" d="M12,24H10v1h2Z"/><path class="fa230-2" d="M10,25H8v1h2Z"/><path class="fa230-2" d="M9,31V27H8v3H7V27H6v6H7V31H8v2H9V31Z"/><rect class="fa230-2" x="7" y="26" width="1" height="1"/><path class="fa230-3" d="M7,30H8V27H7v3Z"/><path class="fa230-4" d="M7,31v2H8V31Z"/><path class="fa230-5" d="M19,30H18V29H17v3h1V31h1v1h1V29H19Z"/><rect class="fa230-5" x="18" y="28" width="1" height="1"/><path class="fa230-5" d="M15,30v1h1V29H15Z"/><path class="fa230-5" d="M14,30V29h1V28H13v4h2V31H14Z"/><path class="fa230-5" d="M9,32h1V31h1v1h1V29H11v1H10V29H9v3Z"/><rect class="fa230-5" x="10" y="28" width="1" height="1"/><path class="fa230-4" d="M18,14h1V13H17v1Z"/><path class="fa230-4" d="M13,22h3V21h1V20h1V19h1V16h1V15H16V13H11v1h2v1H9v1h1v3h1v1h1v1h1Zm1-6h1v1H14Zm-2,3V18h1v1h3v1H13V19Z"/><rect class="fa230-4" x="14" y="10" width="1" height="1"/><path class="fa230-2" d="M20,16H19v3h1V16Z"/><path class="fa230-2" d="M18,19v1h1V19Z"/><rect class="fa230-2" x="17" y="20" width="1" height="1"/><rect class="fa230-2" x="11" y="20" width="1" height="1"/><path class="fa230-2" d="M10,19v1h1V19Z"/><path class="fa230-2" d="M10,18V16H9v3h1Z"/><rect class="fa230-2" x="14" y="16" width="1" height="1"/><path class="fa230-6" d="M13,15V14H12v1Z"/><path class="fa230-6" d="M10,15h1V14H10Z"/><path class="fa230-6" d="M18,14v1h1V14Z"/><path class="fa230-6" d="M16,14v1h1V14Z"/><path class="fa230-2" d="M12,15V14H11v1Z"/><path class="fa230-2" d="M17,14v1h1V14Z"/><path class="fa230-7" d="M17,13H16v1h1Z"/><rect class="fa230-2" x="13" y="19" width="3" height="1"/><rect class="fa230-2" x="12" y="18" width="1" height="1"/><path class="fa230-8" d="M9,16V15h1V14h1V13H8v6H9V16Z"/><path class="fa230-8" d="M19,14v1h1v4h1V13H19Z"/><path class="fa230-8" d="M14,11V10h1v1h5V10H19V9H18V8H11V9H10v1H9v1h5Z"/><path class="fa230-8" d="M9,19v1h1V19Z"/><path class="fa230-8" d="M19,20h1V19H19Z"/><path class="fa230-6" d="M20,12V11H9v1H20Z"/><path class="fa230-9" d="M16,13h4V12H9v1h7Z"/></svg>