<svg xmlns="http://www.w3.org/2000/svg" viewBox="0 0 29 33"><defs><style>polygon,rect,path{shape-rendering:crispedges;}polygon,rect,path{shape-rendering:crispedges;}.lb61-1{fill:#a9a9a9;}.lb61-2{fill:#000000;}.lb61-3{fill:#bbbbbb;}.lb61-4{fill:#04263a;}.lb61-5{fill:#0068f5;}.lb61-6{fill:#008dff;}.lb61-7{fill:#008b4c;}.lb61-8{fill:#ffffff;}.lb61-9{fill:#004480;}.lb61-10{fill:#ff6aa5;}.lb61-11{fill:#c18d59;}.lb61-12{fill:#ffffff;}.lb61-13{fill:#893a1f;}.lb61-14{fill:#893a1f;}.lb61-15{fill:#5a2de2;}.lb61-16{fill:#fad000;}.lb61-17{fill:#455054;}.lb61-18{fill:#ff1f4a;}.lb61-19{fill:#002b4f;}</style></defs><path class="lb61-1" d="M28,25H27v1h2V24H28Z"/><path class="lb61-2" d="M0,0V23H4V22H5v9H6V22H7V20H5v1H2V17H5V16H8v5h4V20H11V19H10V16H9V15h1V14H9V10h1V9h1V8h7V9h1v1h1v4H19v1h1v1H19v3H18v1H17v1h4v1h5v1h3V0H0ZM27,5V7H22V6H21V5H20V4h1V3h1V2h3V3h1V4h1Z"/><path class="lb61-1" d="M27,32H26V31H23v2h5V32Z"/><path class="lb61-1" d="M25,27v1H24v2h4v1h1V27H25Z"/><path class="lb61-3" d="M22,23H21v1h1v1H21v1h2V24h1V23h2V22H23v1Z"/><path class="lb61-3" d="M20,25h1V24H19v1Z"/><path class="lb61-3" d="M2,24H4v1H5V22H4v1H1v1Z"/><path class="lb61-3" d="M4,32V31H5V26H2V25H1V24H0v2H1v1H3v1H4v2H2v1H0v2H3V32Z"/><path class="lb61-3" d="M7,32H6v1H8V32Z"/><path class="lb61-3" d="M18,22h3V21H17v1Z"/><path class="lb61-3" d="M9,24H8v1h2V24Z"/><path class="lb61-3" d="M27,24H26v1H25v1H23v5h3v1h2v1h1V31H28V30H24V28h1V27h4V26H27V25h1V24h1V23H27Z"/><path class="lb61-4" d="M26,7h1V6H26Z"/><path class="lb61-5" d="M26,5V6h1V4H26Z"/><path class="lb61-5" d="M25,6V7h1V6Z"/><rect class="lb61-6" x="25" y="5" width="1" height="1"/><rect class="lb61-7" x="25" y="4" width="1" height="1"/><rect class="lb61-8" x="25" y="3" width="1" height="1"/><path class="lb61-1" d="M24,24H23v2h2V25h1V24h1V23H24Z"/><path class="lb61-7" d="M24,5H23V6h2V5Z"/><rect class="lb61-8" x="24" y="4" width="1" height="1"/><rect class="lb61-5" x="24" y="3" width="1" height="1"/><path class="lb61-9" d="M24,6H23V7h2V6Z"/><rect class="lb61-6" x="23" y="4" width="1" height="1"/><path class="lb61-1" d="M22,27h1V26H22Z"/><path class="lb61-4" d="M22,6V7h1V6Z"/><rect class="lb61-6" x="22" y="5" width="1" height="1"/><rect class="lb61-5" x="22" y="4" width="1" height="1"/><path class="lb61-7" d="M23,4h1V3h1V2H23V3H22V4Z"/><path class="lb61-6" d="M23,2H22V3h1Z"/><rect class="lb61-1" x="21" y="24" width="1" height="1"/><rect class="lb61-9" x="21" y="5" width="1" height="1"/><rect class="lb61-7" x="21" y="4" width="1" height="1"/><rect class="lb61-8" x="21" y="3" width="1" height="1"/><rect class="lb61-5" x="20" y="4" width="1" height="1"/><path class="lb61-1" d="M18,22v1h1v1h2V23h2V22H18Z"/><path class="lb61-1" d="M10,24V23h1V22H9v2Z"/><path class="lb61-1" d="M6,31H4v1H3v1H6V31Z"/><path class="lb61-1" d="M2,30H4V28H3V27H1V26H0v5H2Z"/><path class="lb61-1" d="M4,24H1v1H2v1H5V25H4Z"/><path class="lb61-1" d="M1,23H0v1H1Z"/><path class="lb61-2" d="M23,27H22v6h1V27Z"/><path class="lb61-10" d="M21,28h1V27H21Z"/><path class="lb61-10" d="M21,31h1V30H21Z"/><path class="lb61-2" d="M21,26v1h1V26Z"/><path class="lb61-2" d="M21,30V27H20v6h1V30Z"/><path class="lb61-10" d="M11,30H9v1h5V30Z"/><path class="lb61-10" d="M13,27H9v1h4Z"/><path class="lb61-10" d="M15,30v1h5V30H15Z"/><path class="lb61-10" d="M17,27H16v1h4V27H17Z"/><path class="lb61-2" d="M19,25v1h2V25H19Z"/><rect class="lb61-2" x="14" y="32" width="1" height="1"/><rect class="lb61-2" x="14" y="30" width="1" height="1"/><path class="lb61-11" d="M14,25h1V24h1V23H13v1h1Z"/><path class="lb61-2" d="M9,30V27H8V26h2V25H8V24H7v7H6v1H8v1H9V30Z"/><path class="lb61-10" d="M7,30H6v1H7Z"/><path class="lb61-10" d="M7,27H6v1H7Z"/><path class="lb61-10" d="M7,24H6v1H7Z"/><path class="lb61-11" d="M12,14V13H10v1h2Z"/><path class="lb61-11" d="M13,22h3V21h1V20h1V19h1V16h1V15H16V14h2V13H16V12h2v1h1V11H18V10H17v1H16V10H15v1H12V10H11v1H10v1h2v1h1v2H9v1h1v3h1v1h1v1h1Zm1-6h1v1H14Zm-2,3V18h5v1H16v1H13V19Z"/><rect class="lb61-2" x="14" y="16" width="1" height="1"/><path class="lb61-12" d="M15,31H9v2h5V32h1v1h5V31Z"/><path class="lb61-12" d="M16,28H15v1H14V28H9v2H20V28H16Z"/><path class="lb61-12" d="M20,26H19V25H18v1H17v1h4V26Z"/><path class="lb61-12" d="M12,27V26H11V25H10v1H8v1h4Z"/><path class="lb61-12" d="M7,28H6v2H7Z"/><path class="lb61-12" d="M7,25H6v2H7Z"/><path class="lb61-12" d="M21,31v2h1V31Z"/><path class="lb61-12" d="M21,29v1h1V28H21Z"/><path class="lb61-13" d="M16,19V18H12v1h4Z"/><rect class="lb61-14" x="18" y="13" width="1" height="1"/><rect class="lb61-14" x="16" y="12" width="2" height="1"/><path class="lb61-14" d="M13,14V13H12v1Z"/><rect class="lb61-14" x="10" y="12" width="2" height="1"/><path class="lb61-8" d="M11,14H10v1h1Z"/><path class="lb61-8" d="M12,15h1V14H12Z"/><path class="lb61-8" d="M18,15h1V14H18Z"/><path class="lb61-8" d="M16,14v1h1V14Z"/><path class="lb61-2" d="M11,14v1h1V14Z"/><path class="lb61-2" d="M17,14v1h1V14Z"/><path class="lb61-2" d="M13,20h3V19H13Z"/><path class="lb61-2" d="M17,19V18H16v1Z"/><path class="lb61-15" d="M10,12V11h1V10h1v1h3V10h1v1h1V10h1v1h1v3h1V10H19V9H18V8H11V9H10v1H9v4h1V12Z"/><path class="lb61-2" d="M18,25h1V23H18v2Z"/><rect class="lb61-2" x="17" y="25" width="1" height="1"/><path class="lb61-16" d="M18,24H17v1h1Z"/><path class="lb61-8" d="M18,23H17v1h1Z"/><path class="lb61-2" d="M17,27V26H16v1Z"/><rect class="lb61-8" x="16" y="25" width="1" height="1"/><rect class="lb61-16" x="15" y="26" width="1" height="1"/><path class="lb61-2" d="M14,27H13v1h1v1h1V28h1V27H14Z"/><path class="lb61-8" d="M15,27V26H14v1Z"/><rect class="lb61-16" x="13" y="26" width="1" height="1"/><path class="lb61-2" d="M12,27h1V26H12Z"/><rect class="lb61-8" x="12" y="25" width="1" height="1"/><rect class="lb61-2" x="11" y="25" width="1" height="1"/><rect class="lb61-16" x="11" y="24" width="1" height="1"/><rect class="lb61-8" x="11" y="23" width="1" height="1"/><path class="lb61-2" d="M11,22v1h1v2h1v1h3V25h1V23h1V22H17V21H16v1H13V21H12v1Zm2,1h3v1H15v1H14V24H13Z"/><polygon class="lb61-2" points="11 24 11 23 10 23 10 24 10 25 11 25 11 24"/><path class="lb61-11" d="M8,24V22H6v2H8Z"/><path class="lb61-17" d="M8,21V20H7v2H8Z"/><path class="lb61-2" d="M9,22H8v2H9Z"/><path class="lb61-18" d="M5,17H2v1H5Z"/><path class="lb61-18" d="M8,16H5v1H8Z"/><path class="lb61-18" d="M2,21H5V20H2Z"/><path class="lb61-18" d="M8,19H5v1H8Z"/><path class="lb61-8" d="M5,18H2v1H5Z"/><path class="lb61-8" d="M6,18H8V17H5v1Z"/><path class="lb61-19" d="M5,18v1H8V18H5Z"/><path class="lb61-19" d="M2,19v1H5V19Z"/><path class="lb61-3" d="M9,22h3V21H8v1Z"/></svg>