<svg xmlns="http://www.w3.org/2000/svg" viewBox="0 0 29 33"><defs><style>polygon,rect,path{shape-rendering:crispedges;}.ta14-1{fill:#d4a122;}.ta14-2{fill:#000000;}.ta14-3{fill:#009b97;}.ta14-4{fill:#c18d59;}.ta14-5{fill:#009b97;}.ta14-6{fill:#ffffff;}.ta14-7{fill:#893a1f;}.ta14-8{fill:#b18518;}.ta14-9{fill:#455054;}.ta14-10{fill:#ffffff;}.ta14-11{fill:#900;}</style></defs><path class="ta14-1" d="M11,24V23H10V22H9v2H8v1h2V24Z"/><rect class="ta14-1" x="8" y="21" width="1" height="1"/><path class="ta14-2" d="M6,24V22H5v9H6V24Z"/><path class="ta14-2" d="M23,27H22v6h1V27Z"/><path class="ta14-3" d="M22,27H21v6h1V27Z"/><rect class="ta14-2" x="21" y="26" width="1" height="1"/><path class="ta14-2" d="M21,27H20v6h1V27Z"/><path class="ta14-3" d="M16,25h1v4h1V28h1v1h1V27h1V26H19V25H18V24H16Z"/><path class="ta14-3" d="M19,32V31H18v1H17V30H16v1H15v1H13V30H12v2H11V31H10v1H9v1H20V32Z"/><rect class="ta14-3" x="18" y="29" width="1" height="1"/><path class="ta14-3" d="M10,28h1v1h1V25h1V24H11v1H10v1H8v1H9v2h1Z"/><rect class="ta14-3" x="10" y="29" width="1" height="1"/><path class="ta14-2" d="M20,26h1V25H19v1Z"/><rect class="ta14-2" x="18" y="24" width="1" height="1"/><path class="ta14-2" d="M16,24h2V23H16Z"/><path class="ta14-2" d="M13,24v1h3V24H13Z"/><path class="ta14-4" d="M13,23v1h3V23H13Z"/><path class="ta14-2" d="M12,23H11v1h2V23Z"/><rect class="ta14-2" x="10" y="24" width="1" height="1"/><path class="ta14-2" d="M9,31V27H8V26h2V25H8V24H7v7H6v1H8v1H9V31Z"/><path class="ta14-3" d="M7,30V24H6v7H7Z"/><path class="ta14-3" d="M13,25v3h2v1h1V25H13Z"/><path class="ta14-3" d="M14,29v2h1V29Z"/><path class="ta14-5" d="M19,30H18V29H17v3h1V31h1v1h1V29H19Z"/><rect class="ta14-5" x="18" y="28" width="1" height="1"/><path class="ta14-5" d="M15,29v2h1V29Z"/><path class="ta14-5" d="M14,30V29h1V28H13v4h2V31H14Z"/><path class="ta14-5" d="M11,29v1H10V29H9v3h1V31h1v1h1V29Z"/><rect class="ta14-5" x="10" y="28" width="1" height="1"/><path class="ta14-2" d="M13,25H12v5h1V25Z"/><path class="ta14-2" d="M17,28V25H16v5h1V28Z"/><path class="ta14-4" d="M14,21h2V20H13v1Z"/><path class="ta14-4" d="M12,16H10v2h1v1h1v1h1V19h3v1h1V19h1V18h1V16H16V14H13v2Zm2,0h1v1H14Z"/><rect class="ta14-2" x="14" y="16" width="1" height="1"/><path class="ta14-6" d="M11,16V14H10v2Z"/><path class="ta14-6" d="M13,16V14H12v2Z"/><path class="ta14-6" d="M17,16V14H16v2Z"/><path class="ta14-6" d="M19,16V14H18v2Z"/><path class="ta14-2" d="M12,16V14H11v2Z"/><path class="ta14-2" d="M18,16V14H17v2Z"/><path class="ta14-3" d="M21,14H20v5H19v1H18v1H17v1H16v1h2V22h1V21h1V20h1V14Z"/><path class="ta14-3" d="M9,21h1v1h1v1h2V22H12V21H11V20H10V19H9V14H8v6H9Z"/><path class="ta14-2" d="M8,15V13H7v3H8Z"/><rect class="ta14-2" x="8" y="20" width="1" height="1"/><rect class="ta14-2" x="9" y="21" width="1" height="1"/><rect class="ta14-2" x="10" y="22" width="1" height="1"/><rect class="ta14-2" x="18" y="22" width="1" height="1"/><rect class="ta14-2" x="19" y="21" width="1" height="1"/><rect class="ta14-2" x="20" y="20" width="1" height="1"/><path class="ta14-2" d="M21,14v6h1V13H21Z"/><path class="ta14-2" d="M10,16V14H9v2Z"/><path class="ta14-2" d="M20,16V14H19v2Z"/><path class="ta14-1" d="M0,7V33H8V32H6V31H5V22H6V21H7V20H5v1H2V17H5V16H7V13H4V12H6V11H8V10h2V9h1V8h1V7h1V6h1V5h1V6h1V7h1V8h1V9h1v1h2v1h2v1h2v1H22v7H21v1H20v1H19v1H18v1h1v1h2v1h1v1h1v6h6V0H0Z"/><path class="ta14-7" d="M19,17v1H18v1H17v1H16v1H13V20H12V19H11V18H10V16H9v3h1v1h1v1h1v1h1v1h3V22h1V21h1V20h1V19h1V16H19Z"/><path class="ta14-8" d="M8,14H21V13h4V12H23V11H21V10H19V9H18V8H17V7H16V6H15V5H14V6H13V7H12V8H11V9H10v1H8v1H6v1H4v1H8Z"/><rect class="ta14-2" x="13" y="19" width="3" height="1"/><path class="ta14-4" d="M7,24H8V22H6v2Z"/><path class="ta14-9" d="M8,22V20H7v2Z"/><path class="ta14-10" d="M4,19V18H5V17H2v4H5V20H4Z"/><path class="ta14-10" d="M8,19V16H5v1H6v2H5v1H8Z"/><path class="ta14-2" d="M7,21H6v1H7Z"/><path class="ta14-2" d="M9,22H8v2H9Z"/><path class="ta14-11" d="M6,19V17H5v1H4v2H5V19Z"/></svg>