<svg xmlns="http://www.w3.org/2000/svg" viewBox="0 0 29 33"><defs><style>polygon,rect,path{shape-rendering:crispedges;}.za120-1{fill:#397d98;}.za120-2{fill:#000000;}.za120-3{fill:#9b8100;}.za120-4{fill:#6d3e35;}.za120-5{fill:#4fdb7d;}.za120-6{fill:#ffffff;}.za120-7{fill:#8e4717;}.za120-8{fill:#473a35;}.za120-9{fill:#6e12ff;}</style></defs><path class="za120-1" d="M0,33H6V27H7V26H8V25h2V24h1V23h1V22H11V21H10V20H9V18H8V12H9V11h1V10h1V9h7v1h1v1h1v2h1v5H20v2H19v1H18v1H17v1h1v1h1v1h2v1h1v1h1v6h6V0H0Z"/><path class="za120-2" d="M23,27H22v6h1V27Z"/><path class="za120-3" d="M21,31h1V30H21Z"/><path class="za120-3" d="M21,28h1V27H21Z"/><rect class="za120-2" x="21" y="26" width="1" height="1"/><path class="za120-2" d="M21,30V27H20v6h1V30Z"/><path class="za120-3" d="M14,27H9v1H20V27H14Z"/><rect class="za120-3" x="9" y="30" width="5" height="1"/><path class="za120-3" d="M15,31h5V30H15Z"/><path class="za120-2" d="M20,26h1V25H19v1Z"/><rect class="za120-3" x="16" y="24" width="1" height="1"/><rect class="za120-2" x="15" y="24" width="1" height="1"/><rect class="za120-2" x="14" y="32" width="1" height="1"/><rect class="za120-2" x="14" y="30" width="1" height="1"/><path class="za120-2" d="M15,29V28H14v1Z"/><path class="za120-2" d="M15,26V25H14v2h1Z"/><rect class="za120-2" x="13" y="24" width="1" height="1"/><path class="za120-4" d="M15,24h1V23H13v1h1v1h1Z"/><rect class="za120-3" x="12" y="24" width="1" height="1"/><path class="za120-2" d="M11,26h2V25H12V24h1V22H12v1H11v1H10v1h1Z"/><path class="za120-2" d="M10,25H8v1h2Z"/><path class="za120-2" d="M9,30V27H8v6H9V30Z"/><path class="za120-3" d="M8,28V27H7v1Z"/><path class="za120-3" d="M7,31H8V30H7Z"/><rect class="za120-2" x="7" y="26" width="1" height="1"/><path class="za120-2" d="M7,30V27H6v6H7V30Z"/><path class="za120-5" d="M15,31H9v2h5V32h1v1h5V31Z"/><path class="za120-5" d="M15,29H14V28H9v2H20V28H15Z"/><path class="za120-5" d="M18,26H16V25H15v2h6V26H19V25H18Z"/><path class="za120-5" d="M9,27h5V25H13v1H11V25H10v1H8v1Z"/><path class="za120-5" d="M7,29v1H8V28H7Z"/><path class="za120-5" d="M7,31v2H8V31Z"/><path class="za120-5" d="M21,31v2h1V31Z"/><path class="za120-5" d="M21,29v1h1V28H21Z"/><path class="za120-4" d="M18,13H16v1h2Z"/><rect class="za120-4" x="15" y="20" width="1" height="1"/><path class="za120-4" d="M18,15H17v2H16V15H15V11H14v1H13v2h1v2h1v1H14V16H13V15H11v4h1V18h2v1h1V18h2v1h1V15Z"/><rect class="za120-4" x="11" y="13" width="1" height="1"/><rect class="za120-4" x="13" y="20" width="1" height="1"/><rect class="za120-4" x="11" y="11" width="1" height="1"/><rect class="za120-4" x="9" y="15" width="1" height="1"/><rect class="za120-4" x="19" y="15" width="1" height="1"/><path class="za120-2" d="M16,23v1h1v1H16v1h2V25h1V24H18V23H17V22H16Z"/><rect class="za120-2" x="9" y="14" width="1" height="1"/><rect class="za120-2" x="14" y="16" width="1" height="1"/><path class="za120-6" d="M13,15V14H12v1Z"/><path class="za120-2" d="M18,15V14H16v1h2Z"/><path class="za120-2" d="M12,14H11v1h1Z"/><path class="za120-7" d="M18,12H16v1h2Z"/><rect class="za120-7" x="11" y="12" width="1" height="1"/><path class="za120-8" d="M15,18v1h1V18Z"/><path class="za120-8" d="M19,16v2h1V16Z"/><path class="za120-8" d="M13,23h3V22h2V21h1V18H18v1H16v2H15V20H14v1H13V19h1V18H12v1H11V18H10v3h1v1h2Z"/><path class="za120-8" d="M10,17V16H9v2h1Z"/><path class="za120-2" d="M14,19H13v1h3V19H14Z"/><path class="za120-2" d="M16,18v1h1V18Z"/><path class="za120-9" d="M9,15V14h1v4h1V11h1v3h1V12h1V11h1v4h1V12h2v6h1V15h1v3h1V13H20V11H19V10H18V9H11v1H10v1H9v1H8v6H9V15Z"/><path class="za120-9" d="M9,18v2h1V18Z"/><path class="za120-9" d="M13,16h1V14H13v2Z"/><path class="za120-9" d="M17,17V15H16v2Z"/><path class="za120-9" d="M19,19v1h1V18H19Z"/></svg>