<svg xmlns="http://www.w3.org/2000/svg" viewBox="0 0 29 33"><defs><style>polygon,rect,path{shape-rendering:crispedges;}.pa82-1{fill:#6b4f99;}.pa82-2{fill:#000000;}.pa82-3{fill:#d8be00;}.pa82-4{fill:#c18d59;}.pa82-5{fill:#d8be00;}.pa82-6{fill:#ffffff;}.pa82-7{fill:#663228;}.pa82-8{fill:#663228;}.pa82-9{fill:#ccc;}.pa82-10{fill:#45ba00;}.pa82-11{fill:#ff1d99;}.pa82-12{fill:#9b005c;}</style></defs><rect class="pa82-1" x="10" y="23" width="1" height="1"/><rect class="pa82-1" x="18" y="23" width="1" height="1"/><path class="pa82-1" d="M19,21H18v1h2V20H19Z"/><path class="pa82-1" d="M10,22h1V21H10V20H9v2Z"/><path class="pa82-1" d="M6,32V27H7V26H8V24H6V23H5V21H4V20H3V19H8v1H9V16H8V15H9V10h1V9h1V8h7V9h1v1h1v5h1v1H20v4h1V19h5v1H25v1H24v2H23v1H22v1h1v8h6V0H0V33H6Z"/><path class="pa82-2" d="M7,27H6v6H7V27Z"/><path class="pa82-3" d="M8,27H7v6H8V27Z"/><rect class="pa82-2" x="7" y="26" width="1" height="1"/><path class="pa82-2" d="M9,31V27H8v6H9V31Z"/><path class="pa82-3" d="M19,32V31H18v1H17V30H16v1H15v1H13V30H12v2H11V31H10v1H9v1H20V32Z"/><rect class="pa82-3" x="18" y="29" width="1" height="1"/><path class="pa82-3" d="M9,27v2h1V28h1v1h1V25h1V24H11v1H10v1H8v1Z"/><path class="pa82-3" d="M18,24H16v1h1v4h1V28h1v1h1V26H19V25H18Z"/><rect class="pa82-3" x="10" y="29" width="1" height="1"/><path class="pa82-2" d="M10,25H8v1h2Z"/><rect class="pa82-2" x="10" y="24" width="1" height="1"/><path class="pa82-2" d="M11,22H10v1h1Z"/><rect class="pa82-3" x="11" y="22" width="1" height="1"/><path class="pa82-2" d="M12,23H11v1h2V23Z"/><path class="pa82-2" d="M16,25V24H13v1h3Z"/><path class="pa82-4" d="M16,24V23H13v1h3Z"/><path class="pa82-2" d="M17,24h1V23H16v1Z"/><path class="pa82-3" d="M18,22H17v1h1Z"/><rect class="pa82-2" x="18" y="24" width="1" height="1"/><path class="pa82-2" d="M19,23V22H18v1Z"/><path class="pa82-2" d="M21,27V25H19v1h1v7h1V27Z"/><path class="pa82-3" d="M22,27H21v6h1V27Z"/><path class="pa82-2" d="M23,25H22v8h1V25Z"/><path class="pa82-3" d="M13,28h2v1h1V25H13v3Z"/><path class="pa82-3" d="M14,29v2h1V29Z"/><path class="pa82-5" d="M19,30H18V29H17v3h1V31h1v1h1V29H19Z"/><rect class="pa82-5" x="18" y="28" width="1" height="1"/><path class="pa82-5" d="M15,29v2h1V29Z"/><path class="pa82-5" d="M14,30V29h1V28H13v4h2V31H14Z"/><path class="pa82-5" d="M11,29v1H10V29H9v3h1V31h1v1h1V29Z"/><rect class="pa82-5" x="10" y="28" width="1" height="1"/><path class="pa82-2" d="M13,27V25H12v5h1V27Z"/><path class="pa82-2" d="M17,28V25H16v5h1V28Z"/><rect class="pa82-2" x="20" y="15" width="1" height="1"/><rect class="pa82-4" x="9" y="15" width="1" height="1"/><rect class="pa82-4" x="19" y="15" width="1" height="1"/><path class="pa82-4" d="M17,16H16V13h1V12h2V11H18V10H16v1H15v1H14v2H13v3H12V16H10v1h1v1h5v1h1V18h1V17h1V16H17Zm-2,1H14V16h1Z"/><path class="pa82-4" d="M17,14h2V13H17Z"/><path class="pa82-2" d="M10,14H9v1h1Z"/><rect class="pa82-2" x="8" y="15" width="1" height="1"/><rect class="pa82-2" x="14" y="16" width="1" height="1"/><path class="pa82-6" d="M11,15H10v1h1Z"/><path class="pa82-6" d="M17,14H16v2h1V14Z"/><path class="pa82-6" d="M19,14H18v2h1V14Z"/><path class="pa82-2" d="M17,15v1h1V14H17Z"/><path class="pa82-7" d="M17,13H16v1h1Z"/><rect class="pa82-7" x="17" y="12" width="2" height="1"/><path class="pa82-8" d="M10,21h1v1h1v1h5V22h1V21h1V20h1V16H19v1H18v1H17v1H16v1H13V19H12V18H11V17H10V16H9v4h1Z"/><path class="pa82-8" d="M15,18H13v1h3V18Z"/><rect class="pa82-2" x="13" y="19" width="3" height="1"/><path class="pa82-2" d="M12,18v1h1V18Z"/><path class="pa82-6" d="M10,23V22H9V20H8V19H3v1H7v1H5v1H8v1H6v1h4Z"/><path class="pa82-9" d="M8,22H5v1H8Z"/><path class="pa82-9" d="M7,20H4v1H7Z"/><path class="pa82-9" d="M22,20v1h3V20H22Z"/><path class="pa82-9" d="M22,23h2V22H22Z"/><path class="pa82-6" d="M19,22v2h1V23h1V22h3V21H22V20h4V19H21v1H20v2Z"/><path class="pa82-9" d="M10,24H8v1h2Z"/><path class="pa82-9" d="M21,24.125V24H19v1h2v-.875Z"/><path class="pa82-10" d="M10,15h1v1h1v1h1V14h1V12h1V11h1V10h2v1h1v4h1V10H19V9H18V8H11V9H10v1H9v4h1Z"/><path class="pa82-4" d="M21,26v1h1V25H21Z"/><path class="pa82-11" d="M22,22H21v1h1Z"/><path class="pa82-11" d="M21,23H20v1h1Z"/><path class="pa82-11" d="M22,24h1V23H22Z"/><path class="pa82-11" d="M21,24.125V25h1V24H21Z"/><rect class="pa82-12" x="21" y="23" width="1" height="1"/></svg>