<svg xmlns="http://www.w3.org/2000/svg" viewBox="0 0 29 33"><defs><style>polygon,rect,path{shape-rendering:crispedges;}.za254-1{fill:#6b4f99;}.za254-2{fill:#000000;}.za254-3{fill:#317f03;}.za254-4{fill:#b2622b;}.za254-5{fill:#45ba00;}.za254-6{fill:#8e4717;}.za254-7{fill:#8e4717;}.za254-8{fill:#ff5e17;}</style></defs><path class="za254-1" d="M6,27H7V26H8V25h2V24h1V23h1V21H11V20H10V19H9V16H8V15H9V13H8V9H9V8h1V7h1V6h7V7h1V8h1V9h1v4H20v2h1v1H20v3H19v1H18v1H17v2h1v1h1v1h2v1h1v1h1v6h6V0H0V33H6V27Z"/><rect class="za254-1" x="19" y="16" width="1"/><rect class="za254-1" x="14" y="16" width="1"/><rect class="za254-1" x="9" y="16" width="1"/><path class="za254-2" d="M23,27H22v6h1V27Z"/><path class="za254-3" d="M21,28h1V27H21Z"/><path class="za254-3" d="M21,31v1h1V30H21Z"/><rect class="za254-2" x="21" y="26" width="1" height="1"/><path class="za254-2" d="M21,31V27H20v6h1V31Z"/><path class="za254-3" d="M16,31V30H15v2h1v1h1V31Z"/><path class="za254-3" d="M13,29h1V27H13V26H12v2h1Z"/><rect class="za254-3" x="14" y="29" width="1" height="1"/><path class="za254-3" d="M19,31V30H18V28H17V27H16V25H15v3h1v1h1v2h1v1h1v1h1V31Z"/><path class="za254-3" d="M18,26v2h1v1h1V27H19V25H18Z"/><path class="za254-3" d="M10,31V30H9v2h1v1h1V31Z"/><path class="za254-3" d="M14,31H13V30H12V28H11V27H10V26H9v2h1v1h1v2h1v1h1v1h1V31Z"/><path class="za254-2" d="M20,26h1V25H19v1Z"/><rect class="za254-3" x="16" y="24" width="1" height="1"/><rect class="za254-2" x="15" y="24" width="1" height="1"/><path class="za254-2" d="M14,32v1h1V32Z"/><path class="za254-2" d="M14,31h1V30H14Z"/><path class="za254-2" d="M14,29h1V28H14Z"/><path class="za254-2" d="M14,26v1h1V25H14Z"/><rect class="za254-2" x="13" y="24" width="1" height="1"/><path class="za254-4" d="M16,24V23H13v1h1v1h1V24Z"/><path class="za254-2" d="M11,26h2V25H12V24h1V22H12v1H11v1H10v1h1Z"/><path class="za254-2" d="M10,26V25H8v1h2Z"/><path class="za254-2" d="M9,31V27H8v6H9V31Z"/><path class="za254-3" d="M7,31v2H8V31Z"/><path class="za254-3" d="M8,28V27H7v2H8Z"/><rect class="za254-2" x="7" y="26" width="1" height="1"/><path class="za254-2" d="M7,32V27H6v6H7Z"/><path class="za254-5" d="M21,29v1h1V28H21Z"/><path class="za254-5" d="M21,32v1h1V32Z"/><path class="za254-5" d="M19,26v1h2V26H19Z"/><path class="za254-5" d="M19,28H18v2h1v1h1V29H19Z"/><path class="za254-5" d="M16,26v1h1v1h1V26Z"/><path class="za254-5" d="M18,32V31H17v2h2V32Z"/><path class="za254-5" d="M15,30h1v1h1V29H16V28H15v2Z"/><path class="za254-5" d="M14,28h1V27H14Z"/><polygon class="za254-5" points="14 27 14 26 14 25 13 25 13 26 13 27 14 27"/><path class="za254-5" d="M14,32h1V31H14Z"/><rect class="za254-5" x="15" y="32" width="1" height="1"/><path class="za254-5" d="M14,29H13V28H12v2h1v1h1V29Z"/><rect class="za254-5" x="12" y="24" width="1" height="1"/><path class="za254-5" d="M10,27h1v1h1V26H11V25H10v2Z"/><path class="za254-5" d="M12,32V31H11v2h2V32Z"/><path class="za254-5" d="M10,30v1h1V29H10V28H9v2Z"/><path class="za254-5" d="M9,32v1h1V32Z"/><path class="za254-5" d="M9,27V26H8v1Z"/><path class="za254-5" d="M8,30V29H7v2H8Z"/><polygon class="za254-2" points="20 16 21 16 21 15 20 15 20 16 20 16"/><polygon class="za254-4" points="13 21 13 21 14 21 14 20 13 20 13 21"/><rect class="za254-4" x="10" y="13" width="1" height="1"/><rect class="za254-4" x="18" y="13" width="1" height="1"/><path class="za254-4" d="M10,16h0v1h0v1h1v1h1V18h2v1h1V18h2v1h1V18h1V17h0V16h1V15H18v1H16V15H15V14H14v1H13v1H11V15H9v1Zm4,1V16h1v1H14Z"/><path class="za254-4" d="M19,12H18V11H11v1h2v1h3V12Z"/><rect class="za254-4" x="15" y="20" width="1" height="1"/><path class="za254-2" d="M19,17h1V16H19Z"/><path class="za254-2" d="M16,23v1h1v1H16v1h2V25h1V24H18V23H17V22H16Z"/><path class="za254-2" d="M10,17V16H9v1Z"/><polygon class="za254-2" points="9 15 8 15 8 16 9 16 9 16 9 15"/><polygon class="za254-2" points="15 17 15 16 14 16 14 17 14 17 15 17 15 17"/><path class="za254-6" d="M10,12v1h3V12Z"/><path class="za254-6" d="M19,13V12H16v1h3Z"/><path class="za254-7" d="M15,18v1h1V18Z"/><path class="za254-7" d="M13,23h3V22h1V21h1V20h1V19h1V17H19v1H18v1H16v2H15V20H14v1H13V19h1V18H12v1H11V18H10V17H9v2h1v1h1v1h1v1h1Z"/><path class="za254-2" d="M14,19H13v1h3V19H14Z"/><path class="za254-2" d="M16,18v1h1V18Z"/><path class="za254-8" d="M10,13V12h1V11h7v1h1v1h0v1h1V13h1V9H20V8H19V7H18V6H11V7H10V8H9V9H8v4H9v1h1Z"/><path class="za254-2" d="M11,16h2V15h1V14h1v1h1v1h2V15h2V14H18V13H11v1H9v1h2Z"/></svg>