<svg xmlns="http://www.w3.org/2000/svg" viewBox="0 0 29 33"><defs><style>polygon,rect,path{shape-rendering:crispedges;}.sa241-1{fill:#000000;}.sa241-2{fill:#cc2f76;}.sa241-3{fill:#a56e49;}.sa241-4{fill:#cc2f76;}.sa241-5{fill:#ffffff;}.sa241-6{fill:#663228;}.sa241-7{fill:#b4bd09;}.sa241-8{fill:#663228;}</style></defs><path class="sa241-1" d="M23,27H22v6h1V27Z"/><path class="sa241-2" d="M22,27H21v6h1V27Z"/><rect class="sa241-1" x="21" y="26" width="1" height="1"/><path class="sa241-1" d="M21,27H20v6h1V27Z"/><path class="sa241-2" d="M16,25h1v4h1V28h1v1h1V27h1V26H19V25H18V24H16Z"/><path class="sa241-2" d="M19,32V31H18v1H17V30H16v1H15v1H13V30H12v2H11V31H10v1H9v1H20V32Z"/><path class="sa241-2" d="M9,27v2h1V28h1v1h1V25h1V24H11v1H10v2Z"/><rect class="sa241-2" x="10" y="29" width="1" height="1"/><rect class="sa241-2" x="18" y="29" width="1" height="1"/><path class="sa241-1" d="M20,26h1V25H19v1Z"/><rect class="sa241-1" x="18" y="24" width="1" height="1"/><path class="sa241-1" d="M16,24h2V23H16Z"/><path class="sa241-1" d="M16,25V24H13v1h3Z"/><path class="sa241-3" d="M16,24V23H13v1h3Z"/><path class="sa241-1" d="M13,23H11v1h2Z"/><rect class="sa241-1" x="10" y="24" width="1" height="1"/><path class="sa241-1" d="M9,31V27H8v6H9V31Z"/><path class="sa241-2" d="M8,27H7v6H8V27Z"/><path class="sa241-1" d="M7,27V24H6v9H7V27Z"/><path class="sa241-2" d="M14,29v2h1V29Z"/><path class="sa241-2" d="M13,28h2v1h1V25H13v3Z"/><path class="sa241-4" d="M19,30H18V29H17v3h1V31h1v1h1V29H19Z"/><rect class="sa241-4" x="18" y="28" width="1" height="1"/><path class="sa241-4" d="M15,29v2h1V29Z"/><path class="sa241-4" d="M14,30V29h1V28H13v4h2V31H14Z"/><path class="sa241-4" d="M11,29v1H10V29H9v3h1V31h1v1h1V29Z"/><rect class="sa241-4" x="10" y="28" width="1" height="1"/><path class="sa241-1" d="M13,27V25H12v5h1V27Z"/><path class="sa241-1" d="M17,28V25H16v5h1V28Z"/><path class="sa241-3" d="M12,19V18h5v2h1V19h1V15H16V13h1V11H12v1h1v1H11v1h2v1H10v4h1v1h1Zm2-3h1v1H14Z"/><polygon class="sa241-3" points="18 14 19 14 19 13 17 13 17 14 18 14"/><path class="sa241-3" d="M16,22V20H13v2h3Z"/><rect class="sa241-3" x="10" y="12" width="1" height="1"/><rect class="sa241-1" x="14" y="16" width="1" height="1"/><path class="sa241-5" d="M10,15h1V14H10Z"/><path class="sa241-5" d="M16,14v1h1V14Z"/><path class="sa241-1" d="M12,15h1V14H11v1Z"/><rect class="sa241-6" x="10" y="13" width="1" height="1"/><path class="sa241-6" d="M11,13h2V12H11Z"/><path class="sa241-6" d="M17,13H16v1h1Z"/><path class="sa241-6" d="M17,12v1h2V12H17Z"/><path class="sa241-3" d="M7,27H9V25H8V24H7v3Z"/><path class="sa241-1" d="M10,27V25H9v2Z"/><rect class="sa241-1" x="8" y="24" width="1" height="1"/><rect class="sa241-1" x="7" y="23" width="1" height="1"/><path class="sa241-2" d="M13,22H12V21H11V20H10V19H9V12h1V11h2V10h5v1h2v1h1v7H19v1H18v1H17v1H16v1h2V22h1V21h1V20h1V11H20V10H19V9H18V8H11V9H10v1H9v1H8v9H9v1h1v1h1v1h2Z"/><rect class="sa241-1" x="10" y="8" width="1" height="1"/><rect class="sa241-1" x="9" y="9" width="1" height="1"/><rect class="sa241-1" x="8" y="10" width="1" height="1"/><path class="sa241-1" d="M8,11H7v9H8V11Z"/><rect class="sa241-1" x="8" y="20" width="1" height="1"/><rect class="sa241-1" x="9" y="21" width="1" height="1"/><rect class="sa241-1" x="10" y="22" width="1" height="1"/><rect class="sa241-1" x="18" y="22" width="1" height="1"/><rect class="sa241-1" x="19" y="21" width="1" height="1"/><rect class="sa241-1" x="20" y="20" width="1" height="1"/><path class="sa241-1" d="M21,20h1V11H21v9Z"/><rect class="sa241-1" x="20" y="10" width="1" height="1"/><rect class="sa241-1" x="19" y="9" width="1" height="1"/><rect class="sa241-1" x="18" y="8" width="1" height="1"/><path class="sa241-1" d="M18,8V7H11V8h7Z"/><path class="sa241-1" d="M12,12V11H10v1h2Z"/><path class="sa241-1" d="M10,15V12H9v7h1V15Z"/><rect class="sa241-1" x="10" y="19" width="1" height="1"/><rect class="sa241-1" x="11" y="20" width="1" height="1"/><path class="sa241-1" d="M12,21v1h1V21Z"/><path class="sa241-1" d="M16,23V22H13v1h3Z"/><path class="sa241-1" d="M16,22h1V21H16Z"/><rect class="sa241-1" x="17" y="20" width="1" height="1"/><rect class="sa241-1" x="18" y="19" width="1" height="1"/><path class="sa241-1" d="M19,14H17v1h2v4h1V12H19v2Z"/><path class="sa241-1" d="M18,12h1V11H17v1Z"/><path class="sa241-1" d="M17,11V10H12v1h5Z"/><path class="sa241-7" d="M0,7V33H6V24H7V23H8v1H9v1h1V24h1V23H10V22H9V21H8V20H7V11H8V10H9V9h1V8h1V7h7V8h1V9h1v1h1v1h1v9H21v1H20v1H19v1H18v1h1v1h2v1h1v1h1v6h6V0H0Z"/><path class="sa241-8" d="M17,19V18H13v1h3v2h1V19Z"/><path class="sa241-8" d="M13,20V19H12v2h1Z"/><path class="sa241-1" d="M15,19H13v1h3V19Z"/><path class="sa241-1" d="M12,18v1h1V18Z"/></svg>