<svg xmlns="http://www.w3.org/2000/svg" viewBox="0 0 29 33"><defs><style>polygon,rect,path{shape-rendering:crispedges;}.ea123-1{fill:#d4a122;}.ea123-2{fill:#000000;}.ea123-3{fill:#db5800;}.ea123-4{fill:#e8b795;}.ea123-5{fill:#ffffff;}.ea123-6{fill:#4922aa;}.ea123-7{fill:#66334f;}.ea123-8{fill:#5a2de2;}</style></defs><path class="ea123-1" d="M0,33H6V27H7V26H8V25h2V24h2V21H10V20H9V16H8V15H9V10h1V9h1V8h7V9h1v2h1v4h1v1H20v4H19v1H17v3h2v1h2v1h1v1h1v6h6V0H0Z"/><path class="ea123-2" d="M23,27H22v3H21V27H20v6h1V31h1v2h1V27Z"/><rect class="ea123-2" x="21" y="26" width="1" height="1"/><path class="ea123-3" d="M21,28v2h1V27H21Z"/><path class="ea123-4" d="M21,31v2h1V31Z"/><path class="ea123-2" d="M20,26h1V25H19v1Z"/><path class="ea123-3" d="M20,27h1V26H19V25H17v1H16v1H13V26H12V25H10v1H8v1H9v6H20V27Z"/><path class="ea123-2" d="M18,25h1V24H17v1Z"/><rect class="ea123-2" x="16" y="25" width="1" height="1"/><path class="ea123-2" d="M13,26v1h3V26H13Z"/><path class="ea123-2" d="M13,23h3v1h1V21H16v1H13V21H12v3h1Z"/><path class="ea123-4" d="M13,25v1h3V25h1V24H16V23H13v1H12v1Z"/><rect class="ea123-2" x="12" y="25" width="1" height="1"/><path class="ea123-2" d="M12,24H10v1h2Z"/><path class="ea123-2" d="M10,25H8v1h2Z"/><path class="ea123-2" d="M9,27H8v3H7V27H6v6H7V31H8v2H9V27Z"/><rect class="ea123-2" x="7" y="26" width="1" height="1"/><path class="ea123-3" d="M7,30H8V27H7v3Z"/><path class="ea123-4" d="M7,31v2H8V31Z"/><rect class="ea123-2" x="20" y="15" width="1" height="1"/><path class="ea123-4" d="M13,22h3V21h1V20h1V18h1V16h1V15H16V13h1V12h2V11H18V10H16v1H15v1H14v1H11v1h2v1H9v1h1v2h1v2h1v1h1Zm1-6h1v1H14Zm-2,3V18h1v1h3v1H13V19Z"/><polygon class="ea123-4" points="18 14 19 14 19 13 17 13 17 14 18 14"/><path class="ea123-2" d="M19,17h1V16H19Z"/><path class="ea123-2" d="M10,16H9v1h1Z"/><rect class="ea123-2" x="8" y="15" width="1" height="1"/><rect class="ea123-2" x="14" y="16" width="1" height="1"/><path class="ea123-5" d="M13,15V14H12v1Z"/><path class="ea123-5" d="M10,15h1V14H10Z"/><path class="ea123-5" d="M18,14v1h1V14Z"/><path class="ea123-5" d="M16,14v1h1V14Z"/><path class="ea123-2" d="M12,15V14H11v1Z"/><path class="ea123-2" d="M17,14v1h1V14Z"/><path class="ea123-6" d="M17,13H16v1h1Z"/><rect class="ea123-6" x="17" y="12" width="2" height="1"/><path class="ea123-7" d="M19,18H18v2H17v1h2V20h1V17H19Z"/><path class="ea123-7" d="M11,20V18H10V17H9v3h1v1h2V20Z"/><rect class="ea123-2" x="13" y="19" width="3" height="1"/><rect class="ea123-2" x="12" y="18" width="1" height="1"/><path class="ea123-8" d="M10,14h1V13h3V12h1V11h1V10h2v1h1V9H18V8H11V9H10v1H9v5h1Z"/><path class="ea123-8" d="M19,13v2h1V11H19v2Z"/></svg>