<svg xmlns="http://www.w3.org/2000/svg" viewBox="0 0 29 33"><defs><style>polygon,rect,path{shape-rendering:crispedges;}.va283-1{fill:#e55b35;}.va283-2{fill:#009b97;}.va283-3{fill:#000000;}.va283-4{fill:#c18d59;}.va283-5{fill:#34e0cb;}.va283-6{fill:#5e362f;}.va283-7{fill:#4fdb7d;}</style></defs><rect class="va283-1" x="18" y="19"/><path class="va283-1" d="M19,17v1h0V16h0Z"/><path class="va283-1" d="M0,33H29V0H0Zm6-1V27H7V26H8V25h2V22h1V21H10V20H9V16H8V15H9V11h1V10h1V9h7v1h1v1h1v5h0V15h1v1H20v4H19v1H18v1h1v3h2v1h1v1h1v6H6Z"/><rect class="va283-2" x="17" y="22" width="1" height="1"/><path class="va283-2" d="M18,24H16v1H15v2H14v1h1v1H14v2h2V30h1v1h3V26H19V25H18Zm-1,3H16V26h1Zm2,1v1H18V28Z"/><path class="va283-2" d="M21,31v2h1V31Z"/><path class="va283-2" d="M21,28v2h1V27H21Z"/><path class="va283-2" d="M13,32H10v1h4V32Z"/><path class="va283-2" d="M18,32H15v1h4V32Z"/><path class="va283-2" d="M7,30H8V27H7v3Z"/><path class="va283-2" d="M7,31v2H8V31Z"/><rect class="va283-2" x="11" y="22" width="1" height="1"/><path class="va283-2" d="M9,26v5h3V30h1V27H12V26h1v1h1V25H13V24H11v1H10v1Zm2,2v1H10V28Z"/><path class="va283-3" d="M22,30v3h1V27H22v3Z"/><rect class="va283-3" x="21" y="26" width="1" height="1"/><path class="va283-3" d="M21,30V27H20v4H14V27H13v4H9V27H8v6H9V32H20v1h1V30Z"/><path class="va283-3" d="M20,26h1V25H19v1Z"/><path class="va283-3" d="M18,24v1h1V22H18v2Z"/><path class="va283-3" d="M17,24V22H16v2Z"/><rect class="va283-3" x="15" y="24" width="1" height="1"/><path class="va283-3" d="M15,26V25H14v2h1Z"/><rect class="va283-3" x="13" y="24" width="1" height="1"/><path class="va283-4" d="M15,24h1V23H13v1h1v1h1Z"/><path class="va283-3" d="M11,24V22H10v3h1Z"/><path class="va283-3" d="M10,26V25H8v1h2Z"/><rect class="va283-3" x="7" y="26" width="1" height="1"/><path class="va283-3" d="M7,32V27H6v6H7Z"/><rect class="va283-3" x="20" y="15" width="1" height="1"/><rect class="va283-4" x="9" y="15" width="1" height="1"/><polygon class="va283-4" points="13 21 13 21 14 21 14 20 13 20 13 21"/><rect class="va283-4" x="15" y="20" width="1" height="1"/><path class="va283-4" d="M18,16H16V15H15v2H14V15H13v1H11v1H10v1h1v1h1V18h2v1h1V18h2v1h1V18h1V16h1V15H18Z"/><rect class="va283-3" x="19" y="10" height="1"/><path class="va283-3" d="M13,22H12v2h1V22Z"/><rect class="va283-3" x="18" y="9" height="1"/><rect class="va283-3" x="8" y="15" width="1" height="1"/><path class="va283-3" d="M14,17h1V16H14Z"/><rect class="va283-5" x="10" y="28" width="1" height="1"/><path class="va283-5" d="M13,30H12v1h1Z"/><path class="va283-5" d="M15,29V28H14v1Z"/><path class="va283-5" d="M14,32v1h1V32Z"/><rect class="va283-5" x="12" y="26" width="1" height="1"/><path class="va283-5" d="M17,30H16v1h1Z"/><rect class="va283-5" x="18" y="28" width="1" height="1"/><rect class="va283-5" x="16" y="26" width="1" height="1"/><path class="va283-5" d="M9,27V26H8v1Z"/><path class="va283-5" d="M19,32v1h1V32Z"/><path class="va283-5" d="M9,32v1h1V32Z"/><path class="va283-5" d="M8,30H7v1H8Z"/><path class="va283-5" d="M22,31V30H21v1Z"/><path class="va283-5" d="M20,27h1V26H20Z"/><path class="va283-5" d="M11,23v1h1V23Z"/><path class="va283-5" d="M18,24V23H17v1Z"/><path class="va283-6" d="M14,18H13v1h1Z"/><path class="va283-6" d="M13,22v1h3V22h2V21h1V20h1V16H19v2H18v1H17V18H15v1h1v2H15V20H14v1H13V19H11V18H10V16H9v4h1v1h1v1h2Z"/><path class="va283-3" d="M13,19v1h3V19H13Z"/><path class="va283-3" d="M12,18v1h1V18Z"/><path class="va283-7" d="M15,16V14H14v2Z"/><path class="va283-7" d="M11,16V15H10v2h1Z"/><path class="va283-7" d="M11,13h7v1h2V11H19V10H18V9H11v1H10v1H9v3h2Z"/><path class="va283-3" d="M11,15v1h2V15h1V14h1v1h1v1h2V15h2V14H18V13H11v1H9v1h2Z"/></svg>