<svg xmlns="http://www.w3.org/2000/svg" viewBox="0 0 29 33"><defs><style>polygon,rect,path{shape-rendering:crispedges;}.xa75-1{fill:#6b4f99;}.xa75-2{fill:#000000;}.xa75-3{fill:#4922aa;}.xa75-4{fill:#e8b795;}.xa75-5{fill:#7f5018;}.xa75-6{fill:#00af68;}.xa75-7{fill:#ffffff;}.xa75-8{fill:#0068ff;}.xa75-9{fill:#ff1f4a;}.xa75-10{fill:#6d5800;}.xa75-11{fill:#fad000;}.xa75-12{fill:#ea1500;}</style></defs><path class="xa75-1" d="M20,20H18v2h1v3h2V23h1V22H21V19H20Z"/><path class="xa75-1" d="M0,33H6V27H7V26H8V25h2V22h1V20H9V19H8V11H9V10h1V9h1V8h7V9h1v1h1v1h1v8h1v1h1V18h1V17h3v5H26v1H25v1H24v7H23v1H21v1h8V0H0Z"/><path class="xa75-2" d="M7,27H6v6H7V27Z"/><path class="xa75-3" d="M8,27H7v6H8V27Z"/><rect class="xa75-2" x="7" y="26" width="1" height="1"/><path class="xa75-3" d="M9,27v4h4V27h1V25H13V24H12V22H11v3H10v1H8v1Z"/><path class="xa75-2" d="M10,25H8v1h2Z"/><path class="xa75-2" d="M11,24V22H10v3h1Z"/><rect class="xa75-2" x="13" y="24" width="1" height="1"/><path class="xa75-4" d="M15,24h1V23H13v1h1v1h1Z"/><path class="xa75-2" d="M15,26V25H14v2h1Z"/><rect class="xa75-2" x="15" y="24" width="1" height="1"/><path class="xa75-3" d="M18,24V22H17v2H16v1H15v2H14v4h6V27h1V26H19V25H18Z"/><path class="xa75-2" d="M19,22H18v3h1V22Z"/><path class="xa75-3" d="M19,32H9v1H20V32Z"/><path class="xa75-2" d="M22,32h1V31H22V23H21v2H19v1h2v1H20v4H14V27H13v4H9V27H8v6H9V32H20v1h1V32Z"/><path class="xa75-3" d="M23,25V24H22v7h1V25Z"/><path class="xa75-2" d="M23,25v6h1V24H23Z"/><path class="xa75-4" d="M14,13v1h1V13h1V12h1V11H15V10H14v1H13v2Z"/><path class="xa75-4" d="M12,21h1v1h3V21h1V20h1V19h1V16H15v1H14V16H10v3h1v1h1Zm0-3h1v1h3v1H13V19H12Z"/><rect class="xa75-4" x="14" y="15" width="1" height="1"/><path class="xa75-2" d="M20,18V16H19v3h1Z"/><path class="xa75-2" d="M19,19H18v1h1Z"/><path class="xa75-2" d="M12,23v1h1V23h3v1h1V22h1V20H17v1H16v1H13V21H12V20H11v2h1Z"/><path class="xa75-2" d="M10,19v1h1V19Z"/><path class="xa75-2" d="M10,18V16H9v3h1Z"/><rect class="xa75-2" x="14" y="16" width="1" height="1"/><rect class="xa75-5" x="16" y="12" width="1" height="1"/><path class="xa75-5" d="M13,12H12v1h1Z"/><rect class="xa75-2" x="13" y="19" width="3" height="1"/><rect class="xa75-2" x="12" y="18" width="1" height="1"/><path class="xa75-6" d="M9,16V13h3V12h1V11h1V10h1v1h2v2h3v6h1V11H20V10H19V9H18V8H11V9H10v1H9v1H8v8H9V16Z"/><path class="xa75-6" d="M9,19v1h1V19Z"/><path class="xa75-6" d="M20,20V19H19v1Z"/><path class="xa75-7" d="M20,15V13H15v1H14V13H9v3h5V15h1v1h5Zm-7,0H10V14h3Zm6,0H16V14h3Z"/><path class="xa75-8" d="M16,14v1h3V14H16Z"/><path class="xa75-9" d="M10,14v1h3V14H10Z"/><path class="xa75-10" d="M21,21v1h1V21Z"/><path class="xa75-11" d="M22,21v1h2V21h1v1H24v1h2V22h1V20H25V19H24V18H23v2H22V19H21v2Z"/><path class="xa75-4" d="M23,23H22v1h2V23Z"/><path class="xa75-10" d="M24,23V22H22v1h2Z"/><path class="xa75-2" d="M24,24h1V23H24Z"/><rect class="xa75-10" x="24" y="21" width="1" height="1"/><rect class="xa75-2" x="24" y="18" width="1" height="1"/><path class="xa75-12" d="M25,19v1h2V19H25Z"/><path class="xa75-11" d="M25,19h1V18h1V17H24v1h1Z"/><path class="xa75-2" d="M26,19h1V18H26Z"/></svg>