<svg xmlns="http://www.w3.org/2000/svg" viewBox="0 0 29 33"><defs><style>polygon,rect,path{shape-rendering:crispedges;}.ab243-1{fill:#29834f;}.ab243-2{fill:#000000;}.ab243-3{fill:#ffb3c0;}.ab243-4{fill:#e8b795;}.ab243-5{fill:#ffffff;}.ab243-6{fill:#4922aa;}.ab243-7{fill:#4922aa;}</style></defs><rect class="ab243-1" x="14" y="16" width="1"/><rect class="ab243-1" x="10" y="19" width="1"/><path class="ab243-1" d="M20,22H19V21H17v2h1v1h1v1h2V23H20Z"/><rect class="ab243-1" x="11" y="20" width="1"/><path class="ab243-1" d="M0,33H6V27H7V26H8V25h2V24h1V23h1V21H10v1H9V21H8V20H9V17H8V12H9V10h1V9h1V8h7V9h1v1h1v2h1v3h0v1h0v2H20v2h2V19h2v1h1v3H24v8H23v1H21v1h8V0H0Z"/><path class="ab243-1" d="M18,20V19h1V16h0v3H18v1H17v1h0V20Z"/><path class="ab243-2" d="M23,24v7h1V23H23Z"/><path class="ab243-2" d="M7,30V27H6v6H7V30Z"/><path class="ab243-3" d="M7,31v2H8V31Z"/><path class="ab243-3" d="M7,30H8V27H7v3Z"/><rect class="ab243-2" x="7" y="26" width="1" height="1"/><path class="ab243-2" d="M9,31V27H8v6H9V31Z"/><path class="ab243-3" d="M20,32V26H19V25H18v1H17v1H16V25H15v2H14V25H13v2H12V26H11V25H10v1H9v6h1v1h4V32h1v1h4V32Zm-9-3H10V28h1Zm2,2H12V30h1Zm2,0H14V30h1Zm0-2H14V28h1Zm2,2H16V30h1Zm1-2V28h1v1Z"/><path class="ab243-2" d="M10,26V25H8v1h2Z"/><rect class="ab243-3" x="12" y="24" width="1" height="1"/><path class="ab243-2" d="M11,26h2V25H12V24h1V23h3v1h1v1H16v1h2V25h1V24H18V23H17V21H16v1H13V21H12v2H11v1H10v1h1Z"/><rect class="ab243-2" x="13" y="24" width="1" height="1"/><rect class="ab243-2" x="14" y="32" width="1" height="1"/><rect class="ab243-2" x="14" y="30" width="1" height="1"/><rect class="ab243-2" x="14" y="28" width="1" height="1"/><path class="ab243-2" d="M14,26v1h1V25H14Z"/><rect class="ab243-2" x="15" y="24" width="1" height="1"/><path class="ab243-4" d="M16,24V23H13v1h1v1h1V24Z"/><rect class="ab243-3" x="16" y="24" width="1" height="1"/><path class="ab243-2" d="M22,32h1V31H22V23H21v2H19v1h2v1H20v6h1V32Z"/><path class="ab243-3" d="M23,24H22v1h1Z"/><path class="ab243-3" d="M23,28V26H22v3h1Z"/><path class="ab243-3" d="M22,30v1h1V30Z"/><rect class="ab243-5" x="18" y="28" width="1" height="1"/><rect class="ab243-5" x="16" y="30" width="1" height="1"/><path class="ab243-5" d="M16,27h1V26H16Z"/><rect class="ab243-5" x="12" y="30" width="1" height="1"/><rect class="ab243-5" x="10" y="28" width="1" height="1"/><path class="ab243-5" d="M12,27h1V26H12Z"/><path class="ab243-5" d="M21,27V26H20v1Z"/><path class="ab243-5" d="M9,32v1h1V32Z"/><path class="ab243-5" d="M19,32v1h1V32Z"/><path class="ab243-5" d="M23,29H22v1h1Z"/><path class="ab243-5" d="M23,25H22v1h1Z"/><path class="ab243-5" d="M7,31H8V30H7Z"/><path class="ab243-5" d="M9,27V26H8v1Z"/><polygon class="ab243-2" points="21 16 21 15 21 15 21 16 21 16"/><rect class="ab243-4" x="18" y="13" width="1" height="1"/><path class="ab243-4" d="M13,21v1h3V21h1V20h1V19h1V16h1V15H18v1H16V15H15V14H14v1H13v1H11V15H10v4h1v1h1v1Zm1-4V16h1v1H14Zm-2,2V18h1v1h3v1H13V19Z"/><path class="ab243-4" d="M16,13V12h1V11H16V10H15v1H14v1H13v1h3Z"/><path class="ab243-2" d="M20,17V16H19v3h1V18h0Z"/><rect class="ab243-2" x="18" y="19" width="1" height="1"/><path class="ab243-2" d="M18,20H17v1h1Z"/><rect class="ab243-2" x="15" y="10" width="1"/><path class="ab243-2" d="M11,20v1h1V20Z"/><polygon class="ab243-2" points="10 20 11 20 11 20 11 19 10 19 10 20"/><path class="ab243-2" d="M10,19V18H9v1Z"/><polygon class="ab243-2" points="15 17 15 16 14 16 14 17 14 17 15 17 15 17"/><path class="ab243-6" d="M16,13h2V12H16Z"/><rect class="ab243-6" x="18" y="13" width="1"/><rect class="ab243-2" x="13" y="19" width="3" height="1"/><rect class="ab243-2" x="12" y="18" width="1" height="1"/><path class="ab243-2" d="M20,21v2h1V21Z"/><path class="ab243-2" d="M22,21V20H21v1Z"/><rect class="ab243-2" x="22" y="19" width="2" height="1"/><path class="ab243-2" d="M24,23h1V20H24v3Z"/><path class="ab243-4" d="M21,21v2h1v1h1V23h1V20H22v1Z"/><path class="ab243-7" d="M19,20H18v1h1v1h1V21h1V20H20V19H19Z"/><path class="ab243-7" d="M10,20V19H9v1H8v1H9v1h1V21h1V20Z"/><path class="ab243-7" d="M10,17V15H9V14h2V13h2V12h1V11h1V10h1v1h1v1h1v1h1v1h1v2h0v2h1V12H20V10H19V9H18V8H11V9H10v1H9v2H8v5H9v1h1Z"/><path class="ab243-2" d="M19,14H18V13H11v1H9v1h2v1h2V15h1V14h1v1h1v1h2V15h2V14Z"/></svg>