<svg xmlns="http://www.w3.org/2000/svg" viewBox="0 0 29 33"><defs><style>polygon,rect,path{shape-rendering:crispedges;}.ab16-1{fill:#6b4f99;}.ab16-2{fill:#000000;}.ab16-3{fill:#68aa7b;}.ab16-4{fill:#ffffff;}.ab16-5{fill:#e8b795;}.ab16-6{fill:#ffffff;}.ab16-7{fill:#455054;}.ab16-8{fill:#002b4f;}.ab16-9{fill:#ff1f4a;}</style></defs><path class="ab16-1" d="M11,24V23h1V22H11V21H10V20H9V17H8v5H9v2H8v1h2V24Z"/><path class="ab16-2" d="M6,29V22H5v9H6V29Z"/><path class="ab16-2" d="M23,27H22v6h1V27Z"/><path class="ab16-3" d="M21,31v2h1V31Z"/><path class="ab16-3" d="M21,28v2h1V27H21Z"/><rect class="ab16-2" x="21" y="26" width="1" height="1"/><path class="ab16-2" d="M21,30V27H20v6h1V30Z"/><path class="ab16-3" d="M20,32V26H19V25H18v1H17v1H16V25H15v2H14V25H13v2H12V26H11V25H10v1H9v6h1v1h4V32h1v1h4V32Zm-9-3H10V28h1Zm2,2H12V30h1Zm2,0H14V30h1Zm0-2H14V28h1Zm2,2H16V30h1Zm1-2V28h1v1Z"/><path class="ab16-2" d="M20,26h1V25H19v1Z"/><rect class="ab16-3" x="16" y="24" width="1" height="1"/><rect class="ab16-2" x="14" y="32" width="1" height="1"/><rect class="ab16-2" x="14" y="30" width="1" height="1"/><rect class="ab16-2" x="14" y="28" width="1" height="1"/><rect class="ab16-3" x="12" y="24" width="1" height="1"/><path class="ab16-2" d="M9,31V27H8V26h2V25H8V24H7v7H6v1H8v1H9V31Z"/><path class="ab16-3" d="M7,30H6v1H7Z"/><path class="ab16-3" d="M6,25H7V24H6Z"/><path class="ab16-3" d="M6,27v2H7V26H6Z"/><rect class="ab16-4" x="10" y="28" width="1" height="1"/><rect class="ab16-4" x="12" y="30" width="1" height="1"/><path class="ab16-4" d="M12,27h1V26H12Z"/><rect class="ab16-4" x="16" y="30" width="1" height="1"/><rect class="ab16-4" x="18" y="28" width="1" height="1"/><path class="ab16-4" d="M16,27h1V26H16Z"/><path class="ab16-4" d="M8,27H9V26H8Z"/><path class="ab16-4" d="M19,32v1h1V32Z"/><path class="ab16-4" d="M9,32v1h1V32Z"/><path class="ab16-4" d="M6,30H7V29H6Z"/><path class="ab16-4" d="M6,26H7V25H6Z"/><path class="ab16-4" d="M21,31h1V30H21Z"/><path class="ab16-4" d="M20,27h1V26H20Z"/><path class="ab16-5" d="M13,16V15H10v1h3Z"/><rect class="ab16-5" x="13" y="20" width="3" height="1"/><path class="ab16-5" d="M19,15H16v1h3Z"/><path class="ab16-6" d="M13,14H12v1h1Z"/><path class="ab16-6" d="M11,14H10v1h1Z"/><path class="ab16-6" d="M19,14H18v1h1Z"/><rect class="ab16-6" x="16" y="14" width="1" height="1"/><path class="ab16-1" d="M0,9V33H8V32H6V31H5V22H6V21H7V20H5v1H2V17H5V16H8V15H9V11h1V10h1V9h7v1h1v1h1v4h1v2H20v3H19v1H18v1H17v1h1v1h1v1h2v1h1v1h1v6h6V0H0Z"/><path class="ab16-2" d="M9,17v3h1v1h1v1h1v1H11v1H10v1h1v1h2V25H12V24h1v1h1v2h1V25h1V24h1v1H16v1h2V25h1V24H18V23H17V22h1V21h1V20h1V17h1V15H20V11H19V10H18V9H11v1H10v1H9v4H8v2Zm7-2V14h1v1h1V14h1v2H16Zm0,6H13V20h3Zm-6-6V14h1v1h1V14h1v2H10Z"/><path class="ab16-5" d="M7,24H8V22H6v2Z"/><path class="ab16-7" d="M8,22V20H7v2Z"/><path class="ab16-2" d="M7,21H6v1H7Z"/><path class="ab16-2" d="M9,22H8v2H9Z"/><path class="ab16-8" d="M4,21H5V20H4Z"/><path class="ab16-8" d="M5,18V17H4v1Z"/><path class="ab16-8" d="M3,19V18H2v2H3Z"/><path class="ab16-8" d="M5,19v1H6V19Z"/><path class="ab16-8" d="M6,16H5v1H6Z"/><path class="ab16-8" d="M7,17v2H8V17Z"/><path class="ab16-9" d="M3,17H2v1H3Z"/><path class="ab16-9" d="M6,17v1H3v2H4V19H7V17Z"/><path class="ab16-9" d="M8,17V16H7v1Z"/><path class="ab16-9" d="M8,19H7v1H8Z"/><path class="ab16-9" d="M2,20v1H3V20Z"/><path class="ab16-6" d="M3,20v1H4V20Z"/><path class="ab16-6" d="M4,19v1H5V19Z"/><path class="ab16-6" d="M4,18V17H3v1Z"/><path class="ab16-6" d="M7,17V16H6v1Z"/><path class="ab16-6" d="M6,18V17H5v1Z"/><path class="ab16-6" d="M6,19v1H7V19Z"/></svg>