<svg xmlns="http://www.w3.org/2000/svg" viewBox="0 0 29 33"><defs><style>polygon,rect,path{shape-rendering:crispedges;}.pa20-1{fill:#b4bd09;}.pa20-2{fill:#000000;}.pa20-3{fill:#a8a07e;}.pa20-4{fill:#b2622b;}.pa20-5{fill:#ffffff;}.pa20-6{fill:#99004d;}.pa20-7{fill:#99004d;}.pa20-8{fill:#000000;}.pa20-9{fill:#455054;}.pa20-10{fill:#002b4f;}.pa20-11{fill:#ffffff;}.pa20-12{fill:#ff1f4a;}</style></defs><path class="pa20-1" d="M8,19v3H9v2H8v1h2V24h1V23H10V22h1V20H10V19H9V16H8v3Z"/><path class="pa20-1" d="M8,32H6V31H5V22H6V21H7V20H5v1H2V17H5V16H8V14H9V12H8v1H7V12H8V11H9V10h1V9h2V8h5V9h2v1h1v1h1v1h1v1H21V12H20v2h1v2H20v3H19v1H18v2h1v1H18v1h1v1h2v1h1v1h1v6h6V0H0V33H8Z"/><path class="pa20-2" d="M6,24V22H5v9H6V24Z"/><path class="pa20-2" d="M23,27H22v6h1V27Z"/><path class="pa20-3" d="M22,27H21v6h1V27Z"/><rect class="pa20-2" x="21" y="26" width="1" height="1"/><path class="pa20-2" d="M21,27H20v6h1V27Z"/><path class="pa20-3" d="M20,27h1V26H19V25H18V24H16v1h1v4h1v1h1v3h1V27Z"/><path class="pa20-3" d="M10,30h1V29h1V25h1V24H11v1H10v1H8v1H9v6h1V30Z"/><path class="pa20-2" d="M20,26h1V25H19v1Z"/><rect class="pa20-2" x="18" y="24" width="1" height="1"/><rect class="pa20-2" x="18" y="22" width="1" height="1"/><rect class="pa20-3" x="17" y="22" width="1" height="1"/><path class="pa20-2" d="M13,24v1h3V24H13Z"/><path class="pa20-4" d="M15,23H13v1h3V23Z"/><rect class="pa20-3" x="11" y="22" width="1" height="1"/><rect class="pa20-2" x="10" y="24" width="1" height="1"/><rect class="pa20-2" x="10" y="22" width="1" height="1"/><path class="pa20-2" d="M9,27H8V26h2V25H8V24H7v7H6v1H8v1H9V27Z"/><path class="pa20-3" d="M7,30V24H6v7H7Z"/><path class="pa20-3" d="M16,32H12v1h5V32Z"/><path class="pa20-3" d="M13,25v3h3V25H13Z"/><rect class="pa20-3" x="16" y="30" width="1" height="1"/><rect class="pa20-3" x="12" y="30" width="1" height="1"/><path class="pa20-5" d="M19,30H18V29H17v2H16V28H13v3H12V29H11v1H10v3h2V32h5v1h2V30Z"/><path class="pa20-2" d="M13,25H12v5h1V25Z"/><path class="pa20-2" d="M16,28v2h1V25H16v3Z"/><path class="pa20-2" d="M20,16h1V15H20Z"/><path class="pa20-4" d="M17,13H16V12H15V11H14v1H12v1h1v1h5V13Z"/><rect class="pa20-4" x="9" y="15" width="1" height="1"/><rect class="pa20-4" x="14" y="15" width="1" height="1"/><path class="pa20-4" d="M19,16H18v1H16V16H15v1H14V16H13v1H11V16H10v3h1v1h1v1h2V20H13V19h3v1H15v1h2V20h1V19h1V16Z"/><path class="pa20-4" d="M11,13H10v1h2V13Z"/><rect class="pa20-4" x="19" y="15" width="1" height="1"/><path class="pa20-2" d="M19,17v2h1V16H19Z"/><rect class="pa20-2" x="18" y="19" width="1" height="1"/><path class="pa20-2" d="M17,21H16v1H13V21H12V20H11v2h1v1H11v1h2V23h3v1h2V23H17V22h1V20H17Z"/><rect class="pa20-2" x="10" y="19" width="1" height="1"/><path class="pa20-2" d="M10,16H9v3h1V16Z"/><path class="pa20-2" d="M9,15H8v1H9Z"/><rect class="pa20-2" x="14" y="16" width="1" height="1"/><rect class="pa20-6" x="18" y="13" width="1" height="1"/><rect class="pa20-6" x="16" y="12" width="1" height="1"/><rect class="pa20-6" x="12" y="13" width="1" height="1"/><path class="pa20-7" d="M14,22h2V21H15V20H14v1H13v1Z"/><polygon class="pa20-2" points="16 20 16 19 13 19 13 20 14 20 15 20 16 20"/><rect class="pa20-8" x="21" y="12" width="1" height="1"/><path class="pa20-8" d="M10,13h2V12h2V11h1v1h2v1h2v1h1V12h1V11H20V10H19V9H17V8H12V9H10v1H9v1H8v1H9v2h1Z"/><path class="pa20-8" d="M21,15V14H20v1Z"/><path class="pa20-8" d="M9,14H8v1H9Z"/><rect class="pa20-8" x="7" y="12" width="1" height="1"/><path class="pa20-2" d="M10,15v1h1v1h2V16h1V15h1v1h1v1h2V16h1V15h1V14H9v1Z"/><path class="pa20-4" d="M7,24H8V22H6v2Z"/><path class="pa20-9" d="M8,22V20H7v2Z"/><path class="pa20-2" d="M7,21H6v1H7Z"/><path class="pa20-2" d="M9,22H8v2H9Z"/><path class="pa20-10" d="M8,19V16H5v1H4v3H3V19H2v2H5V20H8ZM7,18H6V17H7Z"/><path class="pa20-11" d="M3,17H2v1H3Z"/><path class="pa20-12" d="M3,18H2v1H3Z"/><path class="pa20-12" d="M4,18V17H3v1Z"/><path class="pa20-11" d="M3,19v1H4V18H3Z"/><rect class="pa20-11" x="6" y="17" width="1" height="1"/></svg>