<svg xmlns="http://www.w3.org/2000/svg" viewBox="0 0 29 33"><defs><style>polygon,rect,path{shape-rendering:crispedges;}.ra70-1{fill:#6b4f99;}.ra70-2{fill:#000000;}.ra70-3{fill:#db5800;}.ra70-4{fill:#e8b795;}.ra70-5{fill:#db5800;}.ra70-6{fill:#ff6aa5;}.ra70-7{fill:#ffffff;}.ra70-8{fill:#c9a717;}.ra70-9{fill:#455054;}.ra70-10{fill:#002b4f;}.ra70-11{fill:#ff1f4a;}</style></defs><path class="ra70-1" d="M10,23V22h1V20H9V19H8v3H9v2H8v1h2V24h1V23Z"/><path class="ra70-1" d="M8,32H6V31H5V22H6V21H7V20H5v1H2V17H5V16H8V13H4V12H6V11H8V10h2V9h1V8h1V7h1V6h1V5h1V6h1V7h1V8h1V9h1v1h2v1h2v1h2v1H21v6H20v1H18v2h1v1H18v1h1v1h2v1h1v1h1v6h6V0H0V33H8Z"/><path class="ra70-2" d="M6,24V22H5v9H6V24Z"/><path class="ra70-2" d="M23,27H22v6h1V27Z"/><path class="ra70-3" d="M22,27H21v6h1V27Z"/><rect class="ra70-2" x="21" y="26" width="1" height="1"/><path class="ra70-2" d="M21,27H20v6h1V27Z"/><path class="ra70-3" d="M20,27h1V26H19V25H18V24H16v1h1v3h2v1H17v2h1V30h1v2H16V25H13v3h2v4H12V25h1V24H11v1H10v1H8v1H9v6H20V27Zm-9,2v3H10V28h1Z"/><path class="ra70-2" d="M20,26h1V25H19v1Z"/><rect class="ra70-2" x="18" y="24" width="1" height="1"/><rect class="ra70-2" x="18" y="22" width="1" height="1"/><rect class="ra70-3" x="17" y="22" width="1" height="1"/><path class="ra70-2" d="M13,24v1h3V24H13Z"/><path class="ra70-4" d="M15,23H13v1h3V23Z"/><rect class="ra70-3" x="11" y="22" width="1" height="1"/><rect class="ra70-2" x="10" y="24" width="1" height="1"/><rect class="ra70-2" x="10" y="22" width="1" height="1"/><path class="ra70-2" d="M9,27H8V26h2V25H8V24H7v7H6v1H8v1H9V27Z"/><path class="ra70-3" d="M7,30V24H6v7H7Z"/><path class="ra70-3" d="M14,31V29H13v2Z"/><path class="ra70-5" d="M14,29v2H13V30H12v2h3V28H13v1Z"/><path class="ra70-5" d="M10,29v3h1V28H10Z"/><path class="ra70-5" d="M18,29h1V28H17v1Z"/><path class="ra70-5" d="M16,31v1h3V30H18v1H17V30H16Z"/><path class="ra70-2" d="M12,26v4h1V25H12Z"/><path class="ra70-2" d="M16,30h1V25H16v5Z"/><rect class="ra70-4" x="14" y="15" width="1" height="1"/><path class="ra70-4" d="M19,19V17H16V16H15v1H14V16H13v1H10v2h1v1h1v1h1v1h3V21h1V20h1V19Zm-2,0H16v1H13V19h3V18h1Z"/><path class="ra70-2" d="M20,16H19v3h1V16Z"/><path class="ra70-2" d="M18,19v1h1V19Z"/><path class="ra70-2" d="M17,21H16v1H13V21H12V20H11v2h1v1H11v1h2V23h3v1h2V23H17V22h1V20H17Z"/><path class="ra70-2" d="M11,20V19H10v1Z"/><path class="ra70-2" d="M10,18V16H9v3h1Z"/><rect class="ra70-2" x="14" y="16" width="1" height="1"/><rect class="ra70-2" x="13" y="19" width="3" height="1"/><rect class="ra70-2" x="16" y="18" width="1" height="1"/><path class="ra70-6" d="M8,19H9V15H8v4Z"/><path class="ra70-6" d="M20,16v3h1V15H20Z"/><path class="ra70-6" d="M10,20V19H9v1Z"/><path class="ra70-6" d="M19,20h1V19H19Z"/><path class="ra70-7" d="M19,16h1V15h1V14H19Z"/><path class="ra70-2" d="M17,16h2V14H16v2Z"/><path class="ra70-7" d="M16,16v1h3V16H16Z"/><path class="ra70-7" d="M14,16V15h1v1h1V14H13v2Z"/><path class="ra70-2" d="M13,16V14H10v2h3Z"/><path class="ra70-7" d="M11,17h2V16H10v1Z"/><path class="ra70-7" d="M9,16h1V14H8v1H9Z"/><path class="ra70-8" d="M13,14h8V13h4V12H23V11H21V10H19V9H18V8H17V7H16V6H15V5H14V6H13V7H12V8H11V9H10v1H8v1H6v1H4v1H8v1h5Z"/><path class="ra70-4" d="M7,24H8V22H6v2Z"/><path class="ra70-9" d="M8,22V20H7v2Z"/><path class="ra70-2" d="M7,21H6v1H7Z"/><path class="ra70-2" d="M9,22H8v2H9Z"/><path class="ra70-10" d="M8,19V16H5v1H4v3H3V19H2v2H5V20H8ZM7,18H6V17H7Z"/><path class="ra70-7" d="M3,17H2v1H3Z"/><path class="ra70-11" d="M3,18H2v1H3Z"/><path class="ra70-11" d="M4,18V17H3v1Z"/><path class="ra70-7" d="M3,19v1H4V18H3Z"/><rect class="ra70-7" x="6" y="17" width="1" height="1"/></svg>