<svg xmlns="http://www.w3.org/2000/svg" viewBox="0 0 29 33"><defs><style>polygon,rect,path{shape-rendering:crispedges;}.bb74-1{fill:#b4bd09;}.bb74-2{fill:#000000;}.bb74-3{fill:#6f7032;}.bb74-4{fill:#ffffff;}.bb74-5{fill:#c18d59;}.bb74-6{fill:#b23b00;}.bb74-7{fill:#b23b00;}.bb74-8{fill:#9b8100;}.bb74-9{fill:#c6e5e4;}</style></defs><path class="bb74-1" d="M0,33H6V27H7V26H8V25h2V24h1V23h1V22H11V21H10V20H9V16H8V15H9V10h1V9h1V8h7V9h1v1h1v5h1v1H20v4H19v1H18v1H17v1h1v1h1v1h2V23h2V22H22V21H21V20h1V19h3v1h1v1H25v1H24v1h1v1H24v7H23v1H21v1h8V0H0Z"/><path class="bb74-2" d="M7,27H6v6H7V27Z"/><rect class="bb74-2" x="7" y="26" width="1" height="1"/><path class="bb74-3" d="M8,27H7v6H8V27Z"/><path class="bb74-2" d="M9,27H8v6H9V27Z"/><path class="bb74-2" d="M10,25H8v1h2Z"/><path class="bb74-3" d="M12,29H11V25H10v1H8v1H9v6h3V29Z"/><path class="bb74-2" d="M11,26v3h1V26h1V25H12V24h1V22H12v1H11v1H10v1h1Z"/><rect class="bb74-4" x="12" y="24" width="1" height="1"/><path class="bb74-2" d="M13,29H12v4h1V29Z"/><path class="bb74-4" d="M14,23H13v1h1Z"/><path class="bb74-4" d="M16,29h1V26H16V25H13v1H12v3h1v4h1V32h1v1h1V29Zm-1,2H14V30h1Zm0-2H14V28h1Zm0-2H14V26h1Z"/><rect class="bb74-2" x="14" y="26" width="1" height="1"/><rect class="bb74-2" x="14" y="28" width="1" height="1"/><rect class="bb74-2" x="14" y="30" width="1" height="1"/><rect class="bb74-2" x="14" y="32" width="1" height="1"/><rect class="bb74-4" x="15" y="23" width="1" height="1"/><path class="bb74-2" d="M15,24V23H14v1H13v1h3V24Z"/><rect class="bb74-4" x="16" y="24" width="1" height="1"/><path class="bb74-2" d="M17,29H16v4h1V29Z"/><path class="bb74-3" d="M20,27h1V26H19V25H18v4H17v4h3V27Z"/><path class="bb74-2" d="M22,32h1V31H22V23H21v2H19v1h2v1H20v6h1V32Z"/><path class="bb74-4" d="M23,24H22v1h1Z"/><path class="bb74-3" d="M23,25H22v6h1V25Z"/><path class="bb74-2" d="M23,25v6h1V24H23Z"/><rect class="bb74-2" x="20" y="15" width="1" height="1"/><path class="bb74-5" d="M10,17v1h1v1h1V18h2v1h1V18h2v1h1V18h1V16h1V15H16V14h2V13H16V12h2v1h1V11H18V10H17v1H16V10H15v1H12V10H11v1H10v2h1V12h2v1H11v1h2v1H9v1h1Zm4-1h1v1H14Z"/><rect class="bb74-5" x="13" y="20" width="1" height="1"/><rect class="bb74-5" x="15" y="20" width="1" height="1"/><path class="bb74-2" d="M16,23v1h1v1H16v1h1v3h1V25h1V24H18V23H17V22H16Z"/><path class="bb74-2" d="M10,14H9v1h1Z"/><rect class="bb74-2" x="8" y="15" width="1" height="1"/><rect class="bb74-2" x="14" y="16" width="1" height="1"/><path class="bb74-4" d="M10,15h1V14H10Z"/><path class="bb74-4" d="M16,14v1h1V14Z"/><path class="bb74-2" d="M12,15h1V14H11v1Z"/><path class="bb74-2" d="M18,14H17v1h3V14H18Z"/><path class="bb74-6" d="M19,13H18v1h1Z"/><rect class="bb74-6" x="16" y="12" width="2" height="1"/><rect class="bb74-6" x="10" y="13" width="1" height="1"/><rect class="bb74-6" x="11" y="12" width="2" height="1"/><path class="bb74-7" d="M14,18H13v1h1Z"/><path class="bb74-7" d="M13,23h3V22h2V21h1V20h1V16H19v2H18v1H17V18H15v1h1v2H15V20H14v1H13V19H11V18H10V16H9v4h1v1h1v1h2Z"/><path class="bb74-2" d="M13,19v1h3V19H13Z"/><path class="bb74-2" d="M12,18v1h1V18Z"/><path class="bb74-8" d="M10,13V11h1V10h1v1h3V10h1v1h1V10h1v1h1v3h1V10H19V9H18V8H11V9H10v1H9v4h1Z"/><path class="bb74-4" d="M25,22V21h1V20H25V19H23v1h1v1H23v1h2Z"/><path class="bb74-9" d="M24,21V20H23V19H22v1H21v1h1v1h1V21Z"/><path class="bb74-9" d="M24,22H23v1h1Z"/><path class="bb74-5" d="M23,24h1V23H22v1Z"/><rect class="bb74-2" x="24" y="23" width="1" height="1"/></svg>