<svg xmlns="http://www.w3.org/2000/svg" viewBox="0 0 29 33"><defs><style>polygon,rect,path{shape-rendering:crispedges;}.wa283-1{fill:#db5a8e;}.wa283-2{fill:#508e5d;}.wa283-3{fill:#000000;}.wa283-4{fill:#e8b795;}.wa283-5{fill:#316a6d;}.wa283-6{fill:#ffffff;}.wa283-7{fill:#316a6d;}.wa283-8{fill:#0068ff;}</style></defs><path class="wa283-1" d="M0,33H6V27H7V26H8V25h2V22h1V21H10V20H9V16H8V15H9V10h1V9h1V8h7V9h1v1h1v5h1v1H20v4H19v1H18v1h1v3h2v1h1v1h1v6h6V0H0Z"/><path class="wa283-2" d="M17,23v1H16v1H15v2H14v4h6V27h1V26H19V25H18V22H17Z"/><path class="wa283-2" d="M22,27H21v6h1V27Z"/><path class="wa283-2" d="M19,32H9v1H20V32Z"/><path class="wa283-2" d="M8,27H7v6H8V27Z"/><path class="wa283-2" d="M9,27v4h4V27h1V25H13V24H12V22H11v3H10v1H8v1Z"/><path class="wa283-3" d="M23,27H22v6h1V27Z"/><rect class="wa283-3" x="21" y="26" width="1" height="1"/><path class="wa283-3" d="M21,27H20v4H14V27H13v4H9V27H8v6H9V32H20v1h1V27Z"/><path class="wa283-3" d="M20,26h1V25H19v1Z"/><path class="wa283-3" d="M18,25h1V22H18v3Z"/><path class="wa283-3" d="M17,24V22H16v2Z"/><rect class="wa283-3" x="15" y="24" width="1" height="1"/><path class="wa283-3" d="M15,26V25H14v2h1Z"/><rect class="wa283-3" x="13" y="24" width="1" height="1"/><path class="wa283-4" d="M15,24h1V23H13v1h1v1h1Z"/><path class="wa283-3" d="M11,24V22H10v3h1Z"/><path class="wa283-3" d="M10,25H8v1h2Z"/><rect class="wa283-3" x="7" y="26" width="1" height="1"/><path class="wa283-3" d="M7,27H6v6H7V27Z"/><rect class="wa283-3" x="20" y="15" width="1" height="1"/><path class="wa283-3" d="M19,15h1V14H19Z"/><path class="wa283-4" d="M10,17v1h1v1h1V18h2v1h1V18h2v1h1V18h1V16h1V15H19V12H18V11H17V10H12v1H11v1H10v3H9v1h1Zm1-3h1V13h1V12h3v1h1v1h1v1H16v1H15v1H14V16H13V15H11Z"/><rect class="wa283-4" x="13" y="20" width="1" height="1"/><rect class="wa283-4" x="15" y="20" width="1" height="1"/><path class="wa283-3" d="M13,22H12v2h1V22Z"/><path class="wa283-3" d="M10,14H9v1h1Z"/><rect class="wa283-3" x="8" y="15" width="1" height="1"/><path class="wa283-5" d="M18,15V14H17v1Z"/><rect class="wa283-5" x="16" y="13" width="1" height="1"/><rect class="wa283-3" x="14" y="14" width="1" height="1"/><path class="wa283-6" d="M13,15v1h3V15h1V14H16V13H13v1H12v1Zm1-1h1v1H14Z"/><path class="wa283-5" d="M16,13V12H13v1h3Z"/><rect class="wa283-5" x="12" y="13" width="1" height="1"/><rect class="wa283-5" x="11" y="14" width="1" height="1"/><path class="wa283-3" d="M14,17h1V16H14Z"/><path class="wa283-7" d="M14,18H13v1h1Z"/><path class="wa283-7" d="M13,22v1h3V22h2V21h1V20h1V16H19v2H18v1H17V18H15v1h1v2H15V20H14v1H13V19H11V18H10V16H9v4h1v1h1v1h2Z"/><path class="wa283-3" d="M13,19v1h3V19H13Z"/><path class="wa283-3" d="M12,18v1h1V18Z"/><path class="wa283-8" d="M10,13V12h1V11h1V10h5v1h1v1h1v2h1V10H19V9H18V8H11V9H10v1H9v4h1Z"/></svg>