<svg xmlns="http://www.w3.org/2000/svg" viewBox="0 0 29 33"><defs><style>polygon,rect,path{shape-rendering:crispedges;}.aa106-1{fill:#397d98;}.aa106-2{fill:#000000;}.aa106-3{fill:#efcaaf;}.aa106-4{fill:#d8be00;}.aa106-5{fill:#ffed9f;}.aa106-6{fill:#ffffff;}.aa106-7{fill:#8e703c;}.aa106-8{fill:#8e703c;}.aa106-9{fill:#cbed03;}</style></defs><path class="aa106-1" d="M0,33H6V27H7V26H8V25h2V24h2V21H10V20H9V16H8V15H9V11h1V10h1V9h7v1h1v1h1v4h1v1H20v4H19v1H17v3h2v1h2v1h1v1h1v6h6V0H0Z"/><path class="aa106-2" d="M23,31V27H22v6h1Z"/><rect class="aa106-2" x="21" y="26" width="1" height="1"/><path class="aa106-3" d="M22,31V27H21v6h1Z"/><rect class="aa106-3" x="20" y="26" width="1" height="1"/><path class="aa106-2" d="M21,31V27H20v6h1Z"/><path class="aa106-2" d="M20,26h1V25H19v1Z"/><path class="aa106-4" d="M17,31V30h1V29h1v1h1V26H19V25H18v1H17v1H16v1H13V27H12V26H11V25H10v1H9v4h1V29h1v1h1v3h1V29h2v1h1v2H15v1h2Z"/><path class="aa106-4" d="M14,31v1h1V30H14Z"/><rect class="aa106-4" x="10" y="30" width="1" height="1"/><rect class="aa106-4" x="18" y="30" width="1" height="1"/><rect class="aa106-4" x="18" y="32" width="1" height="1"/><rect class="aa106-4" x="10" y="32" width="1" height="1"/><path class="aa106-2" d="M17,26h1V25h1V24H17Z"/><rect class="aa106-2" x="16" y="26" width="1" height="1"/><path class="aa106-2" d="M14,27H13v1h3V27Z"/><path class="aa106-2" d="M13,23h3v1h1V21H16v1H13V21H12v3h1Z"/><path class="aa106-3" d="M12,26h1v1h3V26h1V24H16V23H13v1H12Z"/><rect class="aa106-2" x="12" y="26" width="1" height="1"/><path class="aa106-2" d="M11,26h1V24H10v1h1Z"/><path class="aa106-2" d="M10,26V25H8v1Z"/><rect class="aa106-3" x="8" y="26" width="1" height="1"/><path class="aa106-2" d="M9,31V27H8v6H9Z"/><rect class="aa106-2" x="7" y="26" width="1" height="1"/><path class="aa106-3" d="M8,31V27H7v6H8Z"/><path class="aa106-2" d="M7,31V27H6v6H7Z"/><path class="aa106-5" d="M20,31V30H19v1H18V30H17v3h1V32h1v1h1Z"/><rect class="aa106-5" x="18" y="29" width="1" height="1"/><path class="aa106-5" d="M15,32h1V30H15Z"/><path class="aa106-5" d="M14,32V30h1V29H13v4h2V32Z"/><path class="aa106-5" d="M12,31V30H11v1H10V30H9v3h1V32h1v1h1Z"/><rect class="aa106-5" x="10" y="29" width="1" height="1"/><rect class="aa106-2" x="20" y="15" width="1" height="1"/><path class="aa106-2" d="M19,13v1H17v1h3V12H19Z"/><path class="aa106-3" d="M10,13h1V11H10Z"/><polygon class="aa106-3" points="18 14 19 14 19 13 17 13 17 14 18 14"/><path class="aa106-3" d="M13,22h3V21h1V20h1V18h1V16h1V15H16V13h1V11H16V10H13v1H12v1h1v1H11v1h2v1H9v1h1v2h1v2h1v1h1Zm1-6h1v1H14Zm-2,3V18h1v1h3v1H13V19Z"/><rect class="aa106-3" x="11" y="10" width="1" height="1"/><rect class="aa106-3" x="17" y="10" width="1" height="1"/><rect class="aa106-3" x="18" y="11" width="1" height="1"/><rect class="aa106-2" x="19" y="16" width="1" height="1"/><path class="aa106-2" d="M10,14V12H9v3h1Z"/><rect class="aa106-2" x="9" y="16" width="1" height="1"/><rect class="aa106-2" x="8" y="15" width="1" height="1"/><rect class="aa106-2" x="14" y="16" width="1" height="1"/><rect class="aa106-6" x="10" y="14" width="1" height="1"/><rect class="aa106-6" x="16" y="14" width="1" height="1"/><path class="aa106-2" d="M12,15h1V14H11v1Z"/><rect class="aa106-7" x="10" y="13" width="1" height="1"/><path class="aa106-7" d="M11,13h2V12H11Z"/><rect class="aa106-7" x="16" y="13" width="1" height="1"/><path class="aa106-7" d="M19,12H17v1h2Z"/><path class="aa106-8" d="M19,18H18v2H17v1h2V20h1V17H19Z"/><path class="aa106-8" d="M11,20V18H10V17H9v3h1v1h2V20Z"/><rect class="aa106-2" x="13" y="19" width="3" height="1"/><rect class="aa106-2" x="12" y="18" width="1" height="1"/><rect class="aa106-9" x="19" y="11" width="1" height="1"/><rect class="aa106-9" x="18" y="10" width="1" height="1"/><path class="aa106-9" d="M12,11h1V10h3v1h1V10h1V9H11v1h1Z"/><rect class="aa106-9" x="17" y="11" width="1" height="1"/><rect class="aa106-9" x="11" y="11" width="1" height="1"/><rect class="aa106-9" x="10" y="10" width="1" height="1"/><rect class="aa106-9" x="9" y="11" width="1" height="1"/></svg>