<svg xmlns="http://www.w3.org/2000/svg" viewBox="0 0 29 33"><defs><style>polygon,rect,path{shape-rendering:crispedges;}.bb50-1{fill:#7a982c;}.bb50-2{fill:#000000;}.bb50-3{fill:#6f7032;}.bb50-4{fill:#ffffff;}.bb50-5{fill:#b2622b;}.bb50-6{fill:#8e4717;}.bb50-7{fill:#8e4717;}.bb50-8{fill:#ff5e17;}.bb50-9{fill:#a06415;}</style></defs><path class="bb50-1" d="M6,32V27H7V26H8V25h2V24h1V23h1V21H11v1H10V21H9V20H8V19H9V16H8V14H9V12H8v1H7V12H8V11H9V10h1V9h2V8h5V9h2v1h1v1h1v1h1v1H21V12H20v2h1v2H20v3h1v1H20v1H17v2h1v1h1v1h2v1h1v1h1v6h6V0H0V33H6Z"/><path class="bb50-2" d="M23,27H22v6h1V27Z"/><path class="bb50-3" d="M22,27H21v6h1V27Z"/><rect class="bb50-2" x="21" y="26" width="1" height="1"/><path class="bb50-2" d="M21,27H20v6h1V27Z"/><path class="bb50-3" d="M20,27h1V26H19V25H18v4H17v4h3V27Z"/><path class="bb50-2" d="M20,26h1V25H19v1Z"/><path class="bb50-2" d="M17,29H16v4h1V29Z"/><rect class="bb50-4" x="16" y="24" width="1" height="1"/><path class="bb50-4" d="M16,29h1V26H16V25H13v1H12v3h1v4h1V32h1v1h1V29Zm-1,2H14V30h1Zm0-2H14V28h1Zm0-2H14V26h1Z"/><rect class="bb50-4" x="15" y="23" width="1" height="1"/><rect class="bb50-2" x="14" y="32" width="1" height="1"/><rect class="bb50-2" x="14" y="30" width="1" height="1"/><rect class="bb50-2" x="14" y="28" width="1" height="1"/><rect class="bb50-2" x="14" y="26" width="1" height="1"/><rect class="bb50-4" x="13" y="23" width="1" height="1"/><path class="bb50-2" d="M13,29H12v4h1V29Z"/><rect class="bb50-4" x="12" y="24" width="1" height="1"/><path class="bb50-3" d="M12,29H11V25H10v1H8v1H9v6h3V29Z"/><path class="bb50-2" d="M11,26v3h1V26h1V25H12V24h1V23h1v1H13v1h3V24H15V23h1v1h1v1H16v1h1v3h1V25h1V24H18V23H17V21H16v1H13V21H12v2H11v1H10v1h1Z"/><path class="bb50-2" d="M10,25H8v1h2Z"/><path class="bb50-2" d="M9,27H8v6H9V27Z"/><path class="bb50-3" d="M8,27H7v6H8V27Z"/><rect class="bb50-2" x="7" y="26" width="1" height="1"/><path class="bb50-2" d="M7,27H6v6H7V27Z"/><path class="bb50-2" d="M20,16h1V15H20Z"/><rect class="bb50-2" x="19" y="14" width="1" height="1"/><rect class="bb50-5" x="9" y="15" width="1" height="1"/><path class="bb50-5" d="M13,22h3V21h1V19H16v1H13V19H12v2h1Z"/><rect class="bb50-5" x="10" y="16" width="1" height="1"/><path class="bb50-5" d="M19,15H16V13h1V12H15V11H14v1H13v2h1v2h1v1H14V16H13v1H11v2h1V18h5v1h1V18h1V16h1V15Z"/><path class="bb50-5" d="M12,15H11v1h2V15Z"/><path class="bb50-5" d="M18,14h1V13H17v1Z"/><path class="bb50-2" d="M17,20v1h1V20Z"/><path class="bb50-2" d="M11,20v1h1V20Z"/><rect class="bb50-2" x="9" y="14" width="1" height="1"/><path class="bb50-2" d="M8,15v1H9V15Z"/><rect class="bb50-2" x="14" y="16" width="1" height="1"/><rect class="bb50-4" x="12" y="14" width="1" height="1"/><path class="bb50-4" d="M18,15h1V14H18Z"/><path class="bb50-4" d="M16,14v1h1V14Z"/><rect class="bb50-2" x="11" y="14" width="1" height="1"/><path class="bb50-2" d="M17,14v1h1V14Z"/><rect class="bb50-6" x="10" y="13" width="1" height="1"/><path class="bb50-6" d="M13,12H12v1h1Z"/><path class="bb50-6" d="M16,14h1V13H16Z"/><path class="bb50-7" d="M19,17v1H18v1H17v1h1v1h2V20h1V19H20V16H19Z"/><path class="bb50-7" d="M10,17V16H9v3H8v1H9v1h1V17Z"/><path class="bb50-7" d="M11,20h1V19H11Z"/><path class="bb50-2" d="M12,18v1h1V18Z"/><path class="bb50-2" d="M16,18v1h1V18Z"/><path class="bb50-2" d="M15,18H14v1H13v1h3V19H15Z"/><path class="bb50-4" d="M14,18H13v1h1Z"/><path class="bb50-4" d="M15,18v1h1V18Z"/><rect class="bb50-8" x="21" y="12" width="1" height="1"/><path class="bb50-8" d="M10,13h2V12h2V11h1v1h2v1h2v1h1V12h1V11H20V10H19V9H17V8H12V9H10v1H9v1H8v1H9v2h1Z"/><path class="bb50-8" d="M21,15V14H20v1Z"/><path class="bb50-8" d="M9,14H8v1H9Z"/><rect class="bb50-8" x="7" y="12" width="1" height="1"/><path class="bb50-9" d="M13,16h1V14H13v2Z"/><path class="bb50-9" d="M12,14h1V13H11v1Z"/><path class="bb50-9" d="M13,16H11v1h2Z"/><polygon class="bb50-9" points="11 15 11 14 10 14 10 15 10 16 11 16 11 15"/><path class="bb50-9" d="M11,19V17H10v5h1V19Z"/></svg>