<svg xmlns="http://www.w3.org/2000/svg" viewBox="0 0 29 33"><defs><style>polygon,rect,path{shape-rendering:crispedges;}.ya95-1{fill:#29834f;}.ya95-2{fill:#000000;}.ya95-3{fill:#ff5e17;}.ya95-4{fill:#e8b795;}.ya95-5{fill:#5a2de2;}.ya95-6{fill:#8e4717;}.ya95-7{fill:#8e4717;}.ya95-8{fill:#5a2de2;}.ya95-9{fill:#ffffff;}.ya95-10{fill:#0068ff;}.ya95-11{fill:#ff1f4a;}</style></defs><path class="ya95-1" d="M0,33H6V27H7V26H8V25h2V24h1V23h1V21H10V20H9V16H8V15H9V11h1V10H9V9h1V8h2V7h1V8h3V9h1V8h1V9h1v1h1v5h1v1H20v4H19v1H17v2h1v1h1v1h2v1h1v1h1v6h6V0H0Z"/><rect class="ya95-1" x="12" y="8" width="1" height="1"/><path class="ya95-2" d="M23,27H22v6h1V27Z"/><path class="ya95-3" d="M21,31h1V30H21Z"/><path class="ya95-3" d="M21,28h1V27H21Z"/><rect class="ya95-2" x="21" y="26" width="1" height="1"/><path class="ya95-2" d="M21,30V27H20v6h1V30Z"/><path class="ya95-3" d="M15,31h5V30H15Z"/><rect class="ya95-3" x="9" y="30" width="5" height="1"/><path class="ya95-3" d="M14,27H9v1H20V27H14Z"/><path class="ya95-2" d="M20,26h1V25H19v1Z"/><rect class="ya95-3" x="16" y="24" width="1" height="1"/><rect class="ya95-2" x="15" y="24" width="1" height="1"/><rect class="ya95-2" x="14" y="32" width="1" height="1"/><rect class="ya95-2" x="14" y="30" width="1" height="1"/><path class="ya95-2" d="M15,29V28H14v1Z"/><path class="ya95-2" d="M15,26V25H14v2h1Z"/><rect class="ya95-2" x="13" y="24" width="1" height="1"/><path class="ya95-4" d="M15,24h1V23H13v1h1v1h1Z"/><rect class="ya95-3" x="12" y="24" width="1" height="1"/><path class="ya95-2" d="M11,26h2V25H12V24h1V23h3v1h1v1H16v1h2V25h1V24H18V23H17V21H16v1H13V21H12v2H11v1H10v1h1Z"/><path class="ya95-2" d="M10,25H8v1h2Z"/><path class="ya95-2" d="M9,30V27H8v6H9V30Z"/><path class="ya95-3" d="M8,28V27H7v1Z"/><path class="ya95-3" d="M7,31H8V30H7Z"/><rect class="ya95-2" x="7" y="26" width="1" height="1"/><path class="ya95-2" d="M7,30V27H6v6H7V30Z"/><path class="ya95-5" d="M15,31H9v2h5V32h1v1h5V31Z"/><path class="ya95-5" d="M15,29H14V28H9v2H20V28H15Z"/><path class="ya95-5" d="M18,26H16V25H15v2h6V26H19V25H18Z"/><path class="ya95-5" d="M9,27h5V25H13v1H11V25H10v1H8v1Z"/><path class="ya95-5" d="M7,29v1H8V28H7Z"/><path class="ya95-5" d="M7,31v2H8V31Z"/><path class="ya95-5" d="M21,31v2h1V31Z"/><path class="ya95-5" d="M21,29v1h1V28H21Z"/><rect class="ya95-2" x="20" y="15" width="1" height="1"/><path class="ya95-4" d="M18,12V11H17V10H16v1H11v1h2v1h1v1h1V13h1V12Z"/><rect class="ya95-4" x="18" y="12" width="1" height="1"/><path class="ya95-4" d="M13,22h3V21h1V20h1V18h1V16H15v1H14V16H10v2h1v2h1v1h1Zm0-3h3V18h1v1H16v1H13Z"/><rect class="ya95-4" x="14" y="15" width="1" height="1"/><rect class="ya95-4" x="10" y="12" width="1" height="1"/><path class="ya95-2" d="M19,17h1V16H19Z"/><path class="ya95-2" d="M10,16H9v1h1Z"/><rect class="ya95-2" x="8" y="15" width="1" height="1"/><rect class="ya95-2" x="14" y="16" width="1" height="1"/><path class="ya95-6" d="M16,12v1h2V12Z"/><path class="ya95-6" d="M11,12v1h2V12Z"/><path class="ya95-7" d="M19,18H18v2H17v1h2V20h1V17H19Z"/><path class="ya95-7" d="M11,20V18H10V17H9v3h1v1h2V20Z"/><rect class="ya95-2" x="13" y="19" width="3" height="1"/><rect class="ya95-2" x="16" y="18" width="1" height="1"/><path class="ya95-8" d="M10,12h1V11h5V10h1v1h1v1h1v1h1V10H19V9H18V8H17V9H16V8H13V9H12V8H10V9H9v1h1v1H9v2h1Z"/><rect class="ya95-8" x="12" y="7" width="1" height="1"/><path class="ya95-9" d="M11,16h3V15h1v1h5V13H15v1H14V13H9v3h2Zm5-2h3v1H16Zm-6,0h3v1H10Z"/><path class="ya95-10" d="M19,15V14H16v1h3Z"/><path class="ya95-11" d="M13,15V14H10v1h3Z"/></svg>