<svg xmlns="http://www.w3.org/2000/svg" viewBox="0 0 29 33"><defs><style>polygon,rect,path{shape-rendering:crispedges;}.ia297-1{fill:#e55b35;}.ia297-2{fill:#000000;}.ia297-3{fill:#ffffff;}.ia297-4{fill:#e8b795;}.ia297-5{fill:#ffffff;}.ia297-6{fill:#ffffff;}.ia297-7{fill:#e70059;}.ia297-8{fill:#00af68;}.ia297-9{fill:#c9a717;}</style></defs><path class="ia297-1" d="M20,22H19v3h2V23H20Z"/><path class="ia297-1" d="M0,33H6V27H7V26H8V25h2V24H9V16H8V15H9V14H8V13H4V12H6V11H8V10h2V9h1V8h1V7h1V6h1V5h1V6h1V7h1V8h1V9h1v1h2v1h2v1h2v1H21v1H20v1h1v1H20v5h1V20h1V19h2v1h1v3H24v8H23v1H21v1h8V0H0Z"/><path class="ia297-2" d="M23,24v7h1V23H23Z"/><path class="ia297-3" d="M23,24H22v7h1V24Z"/><path class="ia297-2" d="M22,32h1V31H22V23H21v2H19v1h2v1H20v6h1V32Z"/><rect class="ia297-3" x="10" y="29" width="1" height="1"/><path class="ia297-3" d="M15,29H14v2h1V29Z"/><path class="ia297-3" d="M19,32V31H18v1H17V29h1V28h1v1h1V27h1V26H19V25H18v1H16v1H13V26H12V25H11v2H10V26H8v1H9v2h1V28h1v1h1v3H11V31H10v1H9v1H20V32Zm-3-2v1H15v1H13V28h2v1h1Z"/><rect class="ia297-3" x="18" y="29" width="1" height="1"/><path class="ia297-2" d="M16,25v1h1V25Z"/><path class="ia297-2" d="M13,26v1h3V26H13Z"/><path class="ia297-2" d="M13,23h3v1h1V21H16v1H13V21H12v3h1Z"/><path class="ia297-4" d="M17,25V24H16V23H13v1H12v1h1v1h3V25Z"/><rect class="ia297-2" x="12" y="25" width="1" height="1"/><path class="ia297-2" d="M10,25H8v1h2Z"/><path class="ia297-2" d="M9,31V27H8v6H9V31Z"/><rect class="ia297-2" x="7" y="26" width="1" height="1"/><path class="ia297-3" d="M8,27H7v6H8V27Z"/><path class="ia297-2" d="M7,27H6v6H7V27Z"/><path class="ia297-5" d="M19,30H18V29H17v3h1V31h1v1h1V29H19Z"/><rect class="ia297-5" x="18" y="28" width="1" height="1"/><path class="ia297-5" d="M15,30v1h1V29H15Z"/><path class="ia297-5" d="M14,30V29h1V28H13v4h2V31H14Z"/><path class="ia297-5" d="M9,32h1V31h1v1h1V29H11v1H10V29H9v3Z"/><rect class="ia297-5" x="10" y="28" width="1" height="1"/><rect class="ia297-2" x="20" y="15" width="1" height="1"/><path class="ia297-4" d="M10,17v2h1v1h1v1h1v1h3V21h1V20h1V19h1V15H16V14H13v1H9v1h1Zm4-1h1v1H14Zm-2,2h5v1H16v1H13V19H12Z"/><path class="ia297-2" d="M19,17v2h1V16H19Z"/><rect class="ia297-2" x="18" y="19" width="1" height="1"/><rect class="ia297-2" x="17" y="20" width="1" height="1"/><rect class="ia297-2" x="11" y="20" width="1" height="1"/><rect class="ia297-2" x="10" y="19" width="1" height="1"/><path class="ia297-2" d="M10,18V16H9v3h1Z"/><rect class="ia297-2" x="8" y="15" width="1" height="1"/><rect class="ia297-2" x="14" y="16" width="1" height="1"/><path class="ia297-6" d="M18,14v1h1V14Z"/><path class="ia297-6" d="M12,15h1V14H12Z"/><path class="ia297-2" d="M17,14H16v1h2V14Z"/><path class="ia297-2" d="M11,14H10v1h2V14Z"/><path class="ia297-2" d="M13,18H12v1h1Z"/><path class="ia297-2" d="M17,19V18H16v1Z"/><path class="ia297-2" d="M15,20h1V19H15Z"/><path class="ia297-2" d="M15,19V18H14v1Z"/><path class="ia297-2" d="M13,19v1h1V19Z"/><path class="ia297-6" d="M14,19V18H13v1Z"/><path class="ia297-6" d="M16,19V18H15v1Z"/><path class="ia297-7" d="M14,19v1h1V19Z"/><path class="ia297-2" d="M20,23h1V21H20v2Z"/><rect class="ia297-2" x="21" y="20" width="1" height="1"/><rect class="ia297-2" x="22" y="19" width="2" height="1"/><path class="ia297-2" d="M24,23h1V20H24v3Z"/><path class="ia297-4" d="M22,23v1h1V23h1V20H22v1H21v2Z"/><path class="ia297-8" d="M10,27h1V25h1V21H11V20H10V19H9v5h1v3Z"/><path class="ia297-8" d="M19,15v1h1V14H19Z"/><path class="ia297-8" d="M10,14H9v1h1Z"/><path class="ia297-8" d="M19,20H18v1H17v5h1V25h1V22h1V19H19Z"/><path class="ia297-9" d="M11,14H21V13h4V12H23V11H21V10H19V9H18V8H17V7H16V6H15V5H14V6H13V7H12V8H11V9H10v1H8v1H6v1H4v1H8v1h3Z"/></svg>