<svg xmlns="http://www.w3.org/2000/svg" viewBox="0 0 29 33"><defs><style>polygon,rect,path{shape-rendering:crispedges;}.ba65-1{fill:#d4a122;}.ba65-2{fill:#000000;}.ba65-3{fill:#b2622b;}.ba65-4{fill:#825fff;}.ba65-5{fill:#ffffff;}.ba65-6{fill:#ffffff;}.ba65-7{fill:#99004d;}.ba65-8{fill:#99004d;}.ba65-9{fill:#000000;}.ba65-10{fill:#455054;}.ba65-11{fill:#002b4f;}.ba65-12{fill:#ff1f4a;}</style></defs><path class="ba65-1" d="M0,33H8V32H6V31H5V22H6V21H7V20H5v1H2V17H5V16H8V15H9V14H8V11H9V10h1V9h2V8h5V9h1v1h1v1h1v4h1v1H20v3H19v1H18v1H17v3h2v1h2v1h1v1h1v6h6V0H0Z"/><path class="ba65-1" d="M8,19v3H9v2H8v1h2V24h2V21H11V20H10V19H9V16H8v3Z"/><path class="ba65-2" d="M23,27H22v6h1V27Z"/><rect class="ba65-2" x="21" y="26" width="1" height="1"/><path class="ba65-3" d="M22,27H21v6h1V27Z"/><rect class="ba65-3" x="20" y="26" width="1" height="1"/><path class="ba65-2" d="M21,27H20v6h1V27Z"/><path class="ba65-2" d="M20,26h1V25H19v1Z"/><rect class="ba65-4" x="10" y="30" width="1" height="1"/><path class="ba65-4" d="M14,31v1h1V30H14Z"/><rect class="ba65-4" x="10" y="32" width="1" height="1"/><rect class="ba65-4" x="18" y="32" width="1" height="1"/><rect class="ba65-4" x="18" y="30" width="1" height="1"/><path class="ba65-4" d="M17,30h1V29h1v1h1V26H19V25H18v1H17v1H16v1H13V27H12V26H11V25H10v1H9v4h1V29h1v1h1v3h1V29h2v1h1v2H15v1h2V30Z"/><path class="ba65-2" d="M18,26V25h1V24H17v2Z"/><rect class="ba65-2" x="16" y="26" width="1" height="1"/><path class="ba65-2" d="M13,27v1h3V27H13Z"/><path class="ba65-3" d="M16,23H13v1H12v2h1v1h3V26h1V24H16Z"/><rect class="ba65-2" x="12" y="26" width="1" height="1"/><path class="ba65-2" d="M10,24v1h1v1h1V24Z"/><path class="ba65-3" d="M8,27H9V26H8Z"/><path class="ba65-2" d="M9,30V27H8V26h2V25H8V24H7v7H6v1H8v1H9V30Z"/><path class="ba65-3" d="M7,30V24H8V22H6v9H7Z"/><path class="ba65-2" d="M6,22H5v9H6V22Z"/><path class="ba65-5" d="M20,30H19v1H18V30H17v3h1V32h1v1h1V30Z"/><rect class="ba65-5" x="18" y="29" width="1" height="1"/><path class="ba65-5" d="M16,32V30H15v2Z"/><path class="ba65-5" d="M14,32V30h1V29H13v4h2V32Z"/><path class="ba65-5" d="M12,30H11v1H10V30H9v3h1V32h1v1h1V30Z"/><rect class="ba65-5" x="10" y="29" width="1" height="1"/><rect class="ba65-2" x="20" y="15" width="1" height="1"/><path class="ba65-3" d="M13,21v1h3V20H13Z"/><path class="ba65-3" d="M10,16v3h1v1h1V18h5v2h1V19h1V16h1V15H16V14h3V13H16V12h3V11H18V10H14v1H12v1h1v1H10v1h3v1H9v1Zm4,0h1v1H14Z"/><path class="ba65-2" d="M19,17v2h1V16H19Z"/><rect class="ba65-2" x="18" y="19" width="1" height="1"/><rect class="ba65-2" x="17" y="20" width="1" height="1"/><path class="ba65-2" d="M16,22H13V21H12v3h1V23h3v1h1V21H16Z"/><rect class="ba65-2" x="11" y="20" width="1" height="1"/><rect class="ba65-2" x="10" y="19" width="1" height="1"/><path class="ba65-2" d="M10,16H9v3h1V16Z"/><rect class="ba65-2" x="8" y="15" width="1" height="1"/><rect class="ba65-2" x="14" y="16" width="1" height="1"/><path class="ba65-6" d="M18,14v1h1V14Z"/><path class="ba65-6" d="M13,15V14H12v1Z"/><path class="ba65-2" d="M17,14H16v1h2V14Z"/><path class="ba65-2" d="M11,15h1V14H10v1Z"/><path class="ba65-7" d="M11,13h2V12H11Z"/><rect class="ba65-7" x="16" y="12" width="3" height="1"/><path class="ba65-8" d="M13,20V19h3V18H12v3h1Z"/><path class="ba65-8" d="M17,19H16v2h1V19Z"/><path class="ba65-2" d="M13,20h3V19H13Z"/><path class="ba65-2" d="M17,19V18H16v1Z"/><path class="ba65-9" d="M19,13v2h1V11H19v2Z"/><rect class="ba65-9" x="18" y="10" width="1" height="1"/><path class="ba65-9" d="M10,14V13h1V12h1V11h2V10h4V9H17V8H12V9H10v1H9v1H8v3H9v1h1Z"/><path class="ba65-10" d="M8,22V20H7v2Z"/><path class="ba65-2" d="M7,21H6v1H7Z"/><path class="ba65-2" d="M9,22H8v2H9Z"/><path class="ba65-11" d="M3,17H2v4H4V17Z"/><path class="ba65-12" d="M8,19V16H6v4H8Z"/><path class="ba65-6" d="M5,16v1H4v4H5V20H6V16Z"/></svg>