<svg xmlns="http://www.w3.org/2000/svg" viewBox="0 0 29 33"><defs><style>polygon,rect,path{shape-rendering:crispedges;}.ma94-1{fill:#e55b35;}.ma94-2{fill:#000000;}.ma94-3{fill:#508e91;}.ma94-4{fill:#99ce09;}.ma94-5{fill:#c18d59;}.ma94-6{fill:#c6e5e4;}.ma94-7{fill:#ffffff;}.ma94-8{fill:#99004d;}.ma94-9{fill:#99004d;}.ma94-10{fill:#d8be00;}</style></defs><path class="ma94-1" d="M0,33H6V27H7V26H8V25h2V24h2V21H9V20H8V19H9V16H8V15H9V10h1V9h1V8h7V9h1v1h1v5h1v1H20v3h1v1H20v1H17v3h2v1h2v1h1v1h1v6h6V0H0Z"/><path class="ma94-2" d="M23,27H22v6h1V27Z"/><rect class="ma94-2" x="21" y="26" width="1" height="1"/><path class="ma94-3" d="M21,31v2h1V31Z"/><path class="ma94-3" d="M21,28v2h1V27H21Z"/><path class="ma94-2" d="M21,30V27H20v6h1V30Z"/><path class="ma94-3" d="M20,32V26H19V25H18v3h1v1H18v4h1V32Z"/><path class="ma94-2" d="M20,26h1V25H19v1Z"/><path class="ma94-2" d="M18,29V25h1V24H17v1H16v1h1v7h1V29Z"/><path class="ma94-4" d="M17,26H16v1H13V26H12v7h5V26Z"/><path class="ma94-2" d="M13,26v1h3V26H13Z"/><path class="ma94-2" d="M13,23h3v1h1V21H16v1H13V21H12v3h1Z"/><path class="ma94-5" d="M13,25v1h3V25h1V24H16V23H13v1H12v1Z"/><path class="ma94-2" d="M12,26h1V25H12V24H10v1h1v8h1V26Z"/><path class="ma94-3" d="M11,29H10V28h1V25H10v1H9v6h1v1h1V29Z"/><path class="ma94-2" d="M10,26V25H8v1h2Z"/><path class="ma94-2" d="M9,31V27H8v6H9V31Z"/><rect class="ma94-2" x="7" y="26" width="1" height="1"/><path class="ma94-3" d="M7,30H8V27H7v3Z"/><path class="ma94-3" d="M7,31v2H8V31Z"/><path class="ma94-2" d="M7,30V27H6v6H7V30Z"/><path class="ma94-6" d="M10,29h1V28H10Z"/><path class="ma94-6" d="M19,29V28H18v1Z"/><path class="ma94-6" d="M9,27V26H8v1Z"/><path class="ma94-6" d="M19,32v1h1V32Z"/><path class="ma94-6" d="M9,32v1h1V32Z"/><path class="ma94-6" d="M7,31H8V30H7Z"/><path class="ma94-6" d="M21,31h1V30H21Z"/><path class="ma94-6" d="M20,27h1V26H20Z"/><rect class="ma94-2" x="20" y="15" width="1" height="1"/><path class="ma94-2" d="M19,15h1V14H19Z"/><path class="ma94-5" d="M10,14h2V13H10Z"/><path class="ma94-5" d="M13,22h3V21h1V19h1V18h1V16h1V15H16V14h2V13H16V12h2v1h1V11H18V10H17v1H14V10H13v1H12V10H11v1H10v1h2v1h1v2H9v1h1v2h1v1h1v2h1Zm1-6h1v1H14Zm0,3h1v1H14Z"/><path class="ma94-2" d="M17,20v1h1V20Z"/><path class="ma94-2" d="M11,20v1h1V20Z"/><path class="ma94-2" d="M10,14H9v1h1Z"/><rect class="ma94-2" x="8" y="15" width="1" height="1"/><rect class="ma94-2" x="14" y="16" width="1" height="1"/><path class="ma94-7" d="M12,15h1V14H12Z"/><path class="ma94-7" d="M10,14v1h1V14Z"/><path class="ma94-7" d="M18,14v1h1V14Z"/><path class="ma94-7" d="M16,14v1h1V14Z"/><path class="ma94-2" d="M11,14v1h1V14Z"/><path class="ma94-2" d="M17,14v1h1V14Z"/><rect class="ma94-8" x="18" y="13" width="1" height="1"/><rect class="ma94-8" x="16" y="12" width="2" height="1"/><path class="ma94-8" d="M13,14V13H12v1Z"/><rect class="ma94-8" x="10" y="12" width="2" height="1"/><path class="ma94-9" d="M19,17v1H18v1H17v1h1v1h2V20h1V19H20V16H19Z"/><path class="ma94-9" d="M12,20V19H11V18H10V16H9v3H8v1H9v1h2V20Z"/><rect class="ma94-2" x="14" y="19" width="1" height="1"/><path class="ma94-10" d="M10,13V11h1V10h1v1h1V10h1v1h3V10h1v1h1v3h1V10H19V9H18V8H11V9H10v1H9v4h1Z"/></svg>