<svg xmlns="http://www.w3.org/2000/svg" viewBox="0 0 29 33"><defs><style>polygon,rect,path{shape-rendering:crispedges;}.eb252-1{fill:#e55b35;}.eb252-2{fill:#000000;}.eb252-3{fill:#316a6d;}.eb252-4{fill:#ffffff;}.eb252-5{fill:#e8b795;}.eb252-6{fill:#90a2a3;}.eb252-7{fill:#893a1f;}.eb252-8{fill:#10bcff;}.eb252-9{fill:#ffffff;}.eb252-10{fill:#0068ff;}.eb252-11{fill:#ff1f4a;}.eb252-12{fill:#474718;}.eb252-13{fill:#6f7032;}</style></defs><path class="eb252-1" d="M0,33H6V27H7V26H8V25H9V24h1V23h1V22h1V21H11V20H10V19H9V16H8V15H9V10h1V9h1V8h7V9h1v1h1v5h1v1H20v3H19v1H18v1H17v1h1v1h1v1h1v1h1v1h1v1h1v6h6V0H0Z"/><path class="eb252-2" d="M23,27H22v6h1V27Z"/><path class="eb252-3" d="M22,27H21v6h1V27Z"/><path class="eb252-2" d="M21,27h1V26H21V25H20v2H17v1h2v1h1v4h1V27Z"/><rect class="eb252-2" x="19" y="24" width="1" height="1"/><path class="eb252-3" d="M20,29H19v1H18v1H17v1H16v1h4V29Z"/><rect class="eb252-2" x="18" y="23" width="1" height="1"/><path class="eb252-3" d="M18,25H17v1H16v5h1V30h1V29h1V28H17V27h2V26h1V25H19V24H18Z"/><rect class="eb252-3" x="17" y="23" width="1" height="1"/><rect class="eb252-2" x="17" y="24" width="1" height="1"/><rect class="eb252-2" x="18" y="29" width="1" height="1"/><rect class="eb252-2" x="16" y="25" width="1" height="1"/><path class="eb252-4" d="M15,27H14v6h1V27Z"/><path class="eb252-2" d="M12,24h1V23h3v1h1V23h1V22H17V21H16v1H13V21H12v1H11v1h1Z"/><path class="eb252-5" d="M17,25V24H16V23H13v1H12v1h1v1h3V25Z"/><rect class="eb252-2" x="12" y="25" width="1" height="1"/><path class="eb252-3" d="M12,32V31H11V30H10V29H9v4h4V32Z"/><rect class="eb252-3" x="11" y="23" width="1" height="1"/><rect class="eb252-2" x="11" y="24" width="1" height="1"/><rect class="eb252-2" x="11" y="30" width="1" height="1"/><rect class="eb252-2" x="10" y="23" width="1" height="1"/><rect class="eb252-2" x="9" y="24" width="1" height="1"/><path class="eb252-3" d="M10,26v1h2v1H10v1h1v1h1v1h1V26H12V25H11V24H10v1H9v1Z"/><path class="eb252-2" d="M9,29h1V28h2V27H9V25H8v1H7v1H8v6H9V29Z"/><path class="eb252-3" d="M8,27H7v6H8V27Z"/><path class="eb252-2" d="M7,27H6v6H7V27Z"/><rect class="eb252-2" x="10" y="29" width="1" height="1"/><rect class="eb252-2" x="17" y="30" width="1" height="1"/><path class="eb252-2" d="M17,32V31H16V26H13v5H12v1h1v1h1V27h1v6h1V32Z"/><path class="eb252-6" d="M9,26v1h1V26Z"/><path class="eb252-6" d="M19,27h1V26H19Z"/><rect class="eb252-2" x="20" y="15" width="1" height="1"/><path class="eb252-5" d="M12,19V18h5v2h1V19h1V16H17v1H16V16H15v1H14V16H10v3h1v1h1Z"/><rect class="eb252-5" x="14" y="13" width="1" height="1"/><rect class="eb252-5" x="14" y="15" width="1" height="1"/><path class="eb252-5" d="M13,20v2h3V20Z"/><path class="eb252-2" d="M19,17v2h1V16H19Z"/><rect class="eb252-2" x="18" y="19" width="1" height="1"/><rect class="eb252-2" x="17" y="20" width="1" height="1"/><rect class="eb252-2" x="11" y="20" width="1" height="1"/><rect class="eb252-2" x="10" y="19" width="1" height="1"/><path class="eb252-2" d="M10,16H9v3h1V16Z"/><rect class="eb252-2" x="8" y="15" width="1" height="1"/><rect class="eb252-2" x="14" y="16" width="1" height="1"/><path class="eb252-7" d="M13,20V19h3V18H12v3h1Z"/><path class="eb252-7" d="M17,19H16v2h1V19Z"/><path class="eb252-2" d="M16,19H13v1h3Z"/><path class="eb252-2" d="M17,18H16v1h1Z"/><rect class="eb252-8" x="16" y="16" width="1" height="1"/><path class="eb252-9" d="M11,16h3V15h1v1h5V13H15v1H14V13H9v3h2Zm5-2h3v1H16Zm-6,0h3v1H10Z"/><path class="eb252-10" d="M19,15V14H16v1h3Z"/><path class="eb252-11" d="M13,15V14H10v1h3Z"/><path class="eb252-12" d="M17,11v2h1V11Z"/><path class="eb252-13" d="M10,12v1h1V11h1v2h1V11h1v2h1V11h1v2h1V11h1v2h1V11h1V10H19V9H18V8H11V9H10v1H9v1h1Z"/><path class="eb252-12" d="M15,11v2h1V11Z"/><path class="eb252-12" d="M13,11v2h1V11Z"/><path class="eb252-12" d="M11,11v2h1V11Z"/><path class="eb252-12" d="M10,12V11H9v2h1Z"/><path class="eb252-12" d="M19,12v1h1V11H19Z"/></svg>