<svg xmlns="http://www.w3.org/2000/svg" viewBox="0 0 29 33"><defs><style>polygon,rect,path{shape-rendering:crispedges;}polygon,rect,path{shape-rendering:crispedges;}.lb1-1{fill:#a9a9a9;}.lb1-2{fill:#000000;}.lb1-3{fill:#bbbbbb;}.lb1-4{fill:#04263a;}.lb1-5{fill:#0068f5;}.lb1-6{fill:#008dff;}.lb1-7{fill:#008b4c;}.lb1-8{fill:#ffffff;}.lb1-9{fill:#004480;}.lb1-10{fill:#b23b00;}.lb1-11{fill:#c18d59;}.lb1-12{fill:#ff791f;}.lb1-13{fill:#4922aa;}.lb1-14{fill:#473a35;}.lb1-15{fill:#d8be00;}.lb1-16{fill:#fad000;}.lb1-17{fill:#0068ff;}.lb1-18{fill:#ff1f4a;}.lb1-19{fill:#455054;}</style></defs><path class="lb1-1" d="M28,25H27v1h2V24H28Z"/><path class="lb1-2" d="M0,0V23H4V22H5v9H6V22H7V20H5v1H2V17H5V16H8v5h4V20H11V19H10V16H9V13h1V11H9V10h1V9h1V8h7V9h1v4h1v3H19v3H18v1H17v1h4v1h5v1h3V0H0ZM27,5V7H22V6H21V5H20V4h1V3h1V2h3V3h1V4h1Z"/><path class="lb1-1" d="M27,32H26V31H23v2h5V32Z"/><path class="lb1-1" d="M25,27v1H24v2h4v1h1V27H25Z"/><path class="lb1-3" d="M27,24H26v1H25v1H23v5h3v1h2v1h1V31H28V30H24V28h1V27h4V26H27V25h1V24h1V23H27Z"/><path class="lb1-3" d="M21,25V24H19v1h2Z"/><path class="lb1-3" d="M9,24H8v1h2V24Z"/><path class="lb1-3" d="M2,24H4v1H5V22H4v1H1v1Z"/><path class="lb1-3" d="M7,32H6v1H8V32Z"/><path class="lb1-3" d="M22,23H21v1h1v1H21v1h2V24h1V23h2V22H23v1Z"/><path class="lb1-3" d="M18,22h3V21H17v1Z"/><path class="lb1-3" d="M4,32V31H5V26H2V25H1V24H0v2H1v1H3v1H4v2H2v1H0v2H3V32Z"/><path class="lb1-4" d="M26,7h1V6H26Z"/><path class="lb1-5" d="M26,5V6h1V4H26Z"/><path class="lb1-5" d="M25,6V7h1V6Z"/><rect class="lb1-6" x="25" y="5" width="1" height="1"/><rect class="lb1-7" x="25" y="4" width="1" height="1"/><rect class="lb1-8" x="25" y="3" width="1" height="1"/><path class="lb1-1" d="M24,24H23v2h2V25h1V24h1V23H24Z"/><path class="lb1-7" d="M24,5H23V6h2V5Z"/><rect class="lb1-8" x="24" y="4" width="1" height="1"/><rect class="lb1-5" x="24" y="3" width="1" height="1"/><path class="lb1-9" d="M24,6H23V7h2V6Z"/><rect class="lb1-6" x="23" y="4" width="1" height="1"/><path class="lb1-1" d="M22,27h1V26H22Z"/><path class="lb1-4" d="M22,6V7h1V6Z"/><rect class="lb1-6" x="22" y="5" width="1" height="1"/><rect class="lb1-5" x="22" y="4" width="1" height="1"/><path class="lb1-7" d="M23,4h1V3h1V2H23V3H22V4Z"/><path class="lb1-6" d="M23,2H22V3h1Z"/><rect class="lb1-1" x="21" y="24" width="1" height="1"/><rect class="lb1-9" x="21" y="5" width="1" height="1"/><rect class="lb1-7" x="21" y="4" width="1" height="1"/><rect class="lb1-8" x="21" y="3" width="1" height="1"/><rect class="lb1-5" x="20" y="4" width="1" height="1"/><path class="lb1-1" d="M18,22v1h1v1h2V23h2V22H18Z"/><path class="lb1-1" d="M10,24V23h1V22H9v2Z"/><path class="lb1-1" d="M6,31H4v1H3v1H6V31Z"/><path class="lb1-1" d="M2,30H4V28H3V27H1V26H0v5H2Z"/><path class="lb1-1" d="M4,24H1v1H2v1H5V25H4Z"/><path class="lb1-1" d="M1,23H0v1H1Z"/><path class="lb1-2" d="M21,26v1h1V26Z"/><path class="lb1-2" d="M23,27H22v3H21V27H20v6h1V31h1v2h1V27Z"/><path class="lb1-2" d="M20,25H19v1h2V25Z"/><path class="lb1-2" d="M9,31V27H8V26h2V25H8V24H7v7H6v1H8v1H9V31Z"/><rect class="lb1-10" x="10" y="29" width="1" height="1"/><rect class="lb1-10" x="18" y="29" width="1" height="1"/><rect class="lb1-10" x="14" y="30" width="1" height="1"/><path class="lb1-10" d="M19,32V31H18v1H17V29h1V28h1v1h1V27h1V26H19V25H18v1H17v1H16v4H15v1H13V27H12V26H11V25H10v1H8v1H9v2h1V28h1v1h1v3H11V31H10v1H9v1H20V32Z"/><path class="lb1-11" d="M14,24h1v1h1V23H13v2h1Z"/><path class="lb1-10" d="M21,28v2h1V27H21Z"/><path class="lb1-11" d="M21,31v2h1V31Z"/><path class="lb1-11" d="M12,13h2v1h1V13h1V12h2v1h1V11H18V10H17v1H16V10H15v1H14V10H13v1H12V10H11v1H10v1h2Z"/><rect class="lb1-11" x="14" y="15" width="1" height="1"/><path class="lb1-11" d="M13,22h3V21h1V20h1V19h1V16H15v1H14V16H10v3h1v1h1v1h1Zm-1-3V18h5v1H16v1H13V19Z"/><rect class="lb1-2" x="15" y="9" width="1" height="1"/><rect class="lb1-2" x="13" y="9" width="1" height="1"/><rect class="lb1-2" x="17" y="9" width="1" height="1"/><rect class="lb1-2" x="11" y="9" width="1" height="1"/><rect class="lb1-2" x="10" y="10" width="1" height="1"/><rect class="lb1-2" x="14" y="16" width="1" height="1"/><path class="lb1-12" d="M19,30H18V29H17v3h1V31h1v1h1V29H19Z"/><rect class="lb1-12" x="18" y="28" width="1" height="1"/><path class="lb1-12" d="M15,30v1h1V29H15Z"/><path class="lb1-12" d="M14,30V29H13v3h2V31H14Z"/><path class="lb1-12" d="M9,32h1V31h1v1h1V29H11v1H10V29H9v3Z"/><rect class="lb1-12" x="10" y="28" width="1" height="1"/><path class="lb1-13" d="M16,19V18H12v1h4Z"/><path class="lb1-14" d="M16,12v1h2V12Z"/><path class="lb1-14" d="M12,12H10v1h2Z"/><path class="lb1-2" d="M13,20h3V19H13Z"/><path class="lb1-2" d="M17,19V18H16v1Z"/><path class="lb1-15" d="M18,11h1V9H18v2Z"/><path class="lb1-15" d="M12,10v1h1V9h1v2h1V9h1v2h1V9h1V8H11V9h1Z"/><rect class="lb1-15" x="10" y="9" width="1" height="1"/><rect class="lb1-15" x="9" y="10" width="1" height="1"/><rect class="lb1-2" x="14" y="29" width="1" height="1"/><rect class="lb1-2" x="12" y="26" width="1" height="1"/><path class="lb1-2" d="M15,28v1h1V27H15Z"/><rect class="lb1-2" x="16" y="26" width="1" height="1"/><path class="lb1-2" d="M14,28V27H13v2h1Z"/><rect class="lb1-2" x="17" y="25" width="1" height="1"/><rect class="lb1-2" x="11" y="25" width="1" height="1"/><rect class="lb1-2" x="14" y="24" width="1" height="1"/><rect class="lb1-2" x="13" y="25" width="1" height="1"/><rect class="lb1-2" x="15" y="25" width="1" height="1"/><rect class="lb1-16" x="16" y="25" width="1" height="1"/><polygon class="lb1-16" points="15 26 15 25 14 25 14 26 13 26 13 27 14 27 14 28 14 29 15 29 15 28 15 27 16 27 16 26 15 26"/><rect class="lb1-16" x="12" y="25" width="1" height="1"/><path class="lb1-16" d="M12,24V23H11v2h1Z"/><path class="lb1-16" d="M17,23v2h1V23Z"/><path class="lb1-2" d="M19,23H18v2h1V23Z"/><path class="lb1-2" d="M10,23v2h1V23Z"/><path class="lb1-2" d="M11,22v1h1v2h1V23h3v2h1V23h1V22H17V21H16v1H13V21H12v1Z"/><path class="lb1-8" d="M14,16V15h1v1h5V13H15v1H14V13H9v3h5Zm2-2h3v1H16Zm-6,0h3v1H10Z"/><path class="lb1-17" d="M19,15V14H16v1h3Z"/><path class="lb1-18" d="M13,15V14H10v1h3Z"/><path class="lb1-11" d="M7,24H8V22H6v9H7Z"/><path class="lb1-19" d="M8,21V20H7v2H8Z"/><path class="lb1-18" d="M5,17H2v1H5Z"/><path class="lb1-18" d="M2,19v1H5V19Z"/><path class="lb1-8" d="M2,21H5V20H2Z"/><path class="lb1-17" d="M6,18H8V16H5v2Z"/><path class="lb1-8" d="M5,18H2v1H5Z"/><path class="lb1-18" d="M5,18v1H8V18H5Z"/><path class="lb1-8" d="M8,19H5v1H8Z"/><path class="lb1-2" d="M9,22H8v2H9Z"/><path class="lb1-3" d="M9,22h3V21H8v1Z"/></svg>