<svg xmlns="http://www.w3.org/2000/svg" viewBox="0 0 29 33"><defs><style>polygon,rect,path{shape-rendering:crispedges;}.ea183-1{fill:#29834f;}.ea183-2{fill:#000000;}.ea183-3{fill:#0068ff;}.ea183-4{fill:#b2622b;}.ea183-5{fill:#ffffff;}.ea183-6{fill:#663434;}.ea183-7{fill:#8e4717;}.ea183-8{fill:#ff1f4a;}.ea183-9{fill:#f62;}.ea183-10{fill:#f9db00;}.ea183-11{fill:#1261ff;}.ea183-12{fill:#00c650;}.ea183-13{fill:#e20026;}</style></defs><path class="ea183-1" d="M6,32V27H7V26H8V25h2V24h2V21H10V20H9V16H8V15H9V10h1V9h1V8h7V9h1v1h1v5h1v1H20v4H19v1H17v3h2v1h1V22h3v3h1v1H23v7h6V0H0V33H6Z"/><path class="ea183-2" d="M9,27H8v2H7V27H6v6H7V30H8v3H9V27Z"/><rect class="ea183-2" x="7" y="26" width="1" height="1"/><path class="ea183-2" d="M10,25H8v1h2Z"/><path class="ea183-2" d="M12,24H10v1h2Z"/><path class="ea183-2" d="M13,23h3v1h1V21H16v1H13V21H12v3h1Z"/><path class="ea183-2" d="M18,25h1V24H17v1Z"/><path class="ea183-2" d="M21,26H20v7h1V26Z"/><path class="ea183-2" d="M23,26H22v7h1V26Z"/><path class="ea183-3" d="M20,26H19V25H17v1H16v1H13V26H12V25H10v1H8v1H9v6H20V26Z"/><path class="ea183-3" d="M8,29V27H7v2Z"/><path class="ea183-4" d="M22,26h1V25H20v1h1v7h1V26Z"/><path class="ea183-4" d="M13,25v1h3V25h1V24H16V23H13v1H12v1Z"/><path class="ea183-2" d="M13,26v1h3V26H13Z"/><path class="ea183-4" d="M8,30H7v3H8V30Z"/><rect class="ea183-2" x="16" y="25" width="1" height="1"/><rect class="ea183-2" x="12" y="25" width="1" height="1"/><rect class="ea183-2" x="20" y="15" width="1" height="1"/><path class="ea183-4" d="M13,22h3V21h1V20h1V18h1V16h1V15H16V13h3V12H18V11H17V10H12v1H11v1h2v1H10v1h3v1H9v1h1v2h1v2h1v1h1Zm1-6h1v1H14Zm-2,3V18h1v1h3v1H13V19Z"/><path class="ea183-2" d="M19,17h1V16H19Z"/><path class="ea183-2" d="M10,14H9v1h1Z"/><path class="ea183-2" d="M10,16H9v1h1Z"/><rect class="ea183-2" x="8" y="15" width="1" height="1"/><rect class="ea183-2" x="14" y="16" width="1" height="1"/><path class="ea183-5" d="M11,15V14H10v1Z"/><path class="ea183-5" d="M16,14v1h1V14Z"/><path class="ea183-2" d="M12,15h1V14H11v1Z"/><path class="ea183-2" d="M18,14H17v1h3V14H18Z"/><path class="ea183-6" d="M10,13h3V12H10Z"/><path class="ea183-6" d="M18,14h1V13H16v1h2Z"/><path class="ea183-7" d="M19,18H18v2H17v1h2V20h1V17H19Z"/><path class="ea183-7" d="M11,20V18H10V17H9v3h1v1h2V20Z"/><rect class="ea183-2" x="13" y="19" width="3" height="1"/><rect class="ea183-2" x="12" y="18" width="1" height="1"/><path class="ea183-8" d="M10,13V12h1V11h1V10h5v1h1v1h1v2h1V10H19V9H18V8H11V9H10v1H9v4h1Z"/><path class="ea183-9" d="M23,23V22H22v1Z"/><path class="ea183-5" d="M22,23V22H21v1Z"/><path class="ea183-10" d="M21,23H20v1h1Z"/><path class="ea183-11" d="M22,25h1V24H22Z"/><path class="ea183-9" d="M21,24H20v1h1Z"/><rect class="ea183-12" x="21" y="23" width="1" height="1"/><path class="ea183-10" d="M21,24v1h1V24Z"/><path class="ea183-13" d="M22,24h1V23H22Z"/><path class="ea183-13" d="M21,22H20v1h1Z"/><rect class="ea183-2" x="23" y="25" width="1" height="1"/><rect class="ea183-2" x="19" y="25" width="1" height="1"/></svg>