<svg xmlns="http://www.w3.org/2000/svg" viewBox="0 0 29 33"><defs><style>polygon,rect,path{shape-rendering:crispedges;}.pa75-1{fill:#d4a122;}.pa75-2{fill:#000000;}.pa75-3{fill:#ffffff;}.pa75-4{fill:#e8b795;}.pa75-5{fill:#ffffff;}.pa75-6{fill:#7f5018;}.pa75-7{fill:#7f5018;}.pa75-8{fill:#00686d;}.pa75-9{fill:#efc075;}.pa75-10{fill:#2aa8e8;}.pa75-11{fill:#d8aa68;}.pa75-12{fill:#563e1b;}</style></defs><path class="pa75-1" d="M21,25V16H20v3H19v1H18v2h1v1H18v1h1v1h2Z"/><path class="pa75-1" d="M0,33H6V28H5V27H4V25H5V24H8v1h2V24h1V23H10V22h1V20H10V19H9V16H8V15H9V10h1V9h1V8h1V9h1V8h3V7h1V8h2V9h1v6h1V14h1v8h1v1h1v8H23v1H22v1h7V0H0Z"/><rect class="pa75-1" x="16" y="8" width="1" height="1"/><path class="pa75-2" d="M23,29v2h1V23H23v6Z"/><path class="pa75-2" d="M7,27H5v1H6v5H7V27Z"/><path class="pa75-3" d="M8,27H7v6H8V27Z"/><path class="pa75-2" d="M9,26h1V25H8v8H9V26Z"/><path class="pa75-3" d="M20,27h1V26H19V25H18V24H16v1h1v5H16V25H13v5H12V25h1V24H11v1H10v1H9v7H20V27Z"/><rect class="pa75-2" x="10" y="24" width="1" height="1"/><rect class="pa75-2" x="10" y="22" width="1" height="1"/><rect class="pa75-3" x="11" y="22" width="1" height="1"/><path class="pa75-2" d="M13,23h3v1h2V23H17V22h1V20H17v1H16v1H13V21H12V20H11v2h1v1H11v1h2Z"/><path class="pa75-2" d="M13,24v1h3V24H13Z"/><path class="pa75-4" d="M15,23H13v1h3V23Z"/><rect class="pa75-3" x="17" y="22" width="1" height="1"/><rect class="pa75-2" x="18" y="24" width="1" height="1"/><rect class="pa75-2" x="18" y="22" width="1" height="1"/><rect class="pa75-2" x="22" y="31" width="1" height="1"/><path class="pa75-2" d="M20,25H19v1h2V25Z"/><path class="pa75-2" d="M21,29V27H20v6h1V29Z"/><path class="pa75-3" d="M23,25H22v6h1V25Z"/><path class="pa75-2" d="M12,26v4h1V25H12Z"/><path class="pa75-2" d="M16,30h1V25H16v5Z"/><rect class="pa75-2" x="20" y="15" width="1" height="1"/><path class="pa75-2" d="M19,15h1V14H19Z"/><rect class="pa75-4" x="9" y="15" width="1" height="1"/><path class="pa75-4" d="M18,14h1V13H16v1h2Z"/><rect class="pa75-4" x="13" y="20" width="1" height="1"/><rect class="pa75-4" x="16" y="19" width="1" height="1"/><rect class="pa75-4" x="15" y="20" width="1" height="1"/><rect class="pa75-4" x="12" y="19" width="1" height="1"/><path class="pa75-4" d="M12,19V18h5v1h2V16h1V15H16V14H14v2h1v1H14V16H13v1H11V16H10v3h2Z"/><path class="pa75-4" d="M16,13V12h2V11H13V10H12v1H11v1h2v1H10v1h4V13Z"/><path class="pa75-2" d="M20,18V16H19v3h1Z"/><path class="pa75-2" d="M19,19H18v1h1Z"/><path class="pa75-2" d="M10,19v1h1V19Z"/><path class="pa75-2" d="M10,16H9v3h1V16Z"/><rect class="pa75-2" x="8" y="15" width="1" height="1"/><rect class="pa75-2" x="14" y="16" width="1" height="1"/><path class="pa75-5" d="M18,14v1h1V14Z"/><path class="pa75-5" d="M16,14v1h1V14Z"/><path class="pa75-2" d="M17,14v1h1V14Z"/><path class="pa75-6" d="M13,12H10v1h3Z"/><path class="pa75-6" d="M18,13h1V12H18Z"/><path class="pa75-7" d="M17,19v1h1V19Z"/><rect class="pa75-7" x="16" y="20" width="1" height="1"/><path class="pa75-7" d="M15,20H14v1H13v1h3V21H15Z"/><path class="pa75-7" d="M14,19h3V18H12v1h2Z"/><rect class="pa75-7" x="12" y="20" width="1" height="1"/><path class="pa75-7" d="M12,19H11v1h1Z"/><path class="pa75-2" d="M13,19v1h3V19H13Z"/><path class="pa75-8" d="M19,12v2h1V11H19Z"/><path class="pa75-8" d="M10,12h1V11h1V10h1v1h6V10h1V9H19V8H17V9H16V8H13V9H12V8H11V9H10v1H9v3h1Z"/><path class="pa75-8" d="M10,14H9v1h1Z"/><rect class="pa75-8" x="16" y="7" width="1" height="1"/><path class="pa75-2" d="M10,14v2h1v1h2V16h1V14H10Z"/><rect class="pa75-2" x="14" y="13" width="2" height="1"/><path class="pa75-2" d="M16,12v1h2V12Z"/><path class="pa75-2" d="M19,12V11H18v1Z"/><path class="pa75-2" d="M19,11h1V10H19Z"/><path class="pa75-2" d="M10,13H9v1h1Z"/><path class="pa75-9" d="M21,27v2h1V27Z"/><path class="pa75-9" d="M21,20v1h1V19H21Z"/><path class="pa75-9" d="M21,17h1V15H21v2Z"/><path class="pa75-10" d="M22,14H21v1h1Z"/><path class="pa75-4" d="M21,23v2h2V23H21Z"/><path class="pa75-11" d="M22,26V25H21v2h1Z"/><path class="pa75-11" d="M21,23h1V21H21Z"/><path class="pa75-11" d="M21,18v1h1V17H21Z"/><path class="pa75-5" d="M7,26H8V24H5v1H7Z"/><path class="pa75-4" d="M8,27V26H7V25H5v2H8Z"/><path class="pa75-12" d="M22,31V29H21v4h1V31Z"/><path class="pa75-2" d="M23,23V22H22v1Z"/><path class="pa75-2" d="M4,25v2H5V25Z"/></svg>