<svg xmlns="http://www.w3.org/2000/svg" viewBox="0 0 29 33"><defs><style>polygon,rect,path{shape-rendering:crispedges;}.ha228-1{fill:#29834f;}.ha228-2{fill:#000000;}.ha228-3{fill:#ffffff;}.ha228-4{fill:#e8b795;}.ha228-5{fill:#ffffff;}.ha228-6{fill:#004a77;}.ha228-7{fill:#fad000;}.ha228-8{fill:#004a77;}.ha228-9{fill:#9b8100;}</style></defs><path class="ha228-1" d="M0,33H6V27H7V26H8V25h2V23h1V21H10V20H9V16H8V15H9V11h1V10h1V9h2V7h1V6h2V5h2V6H17V7h1v3h2v5h1v1H20v4H19v1H18v2h1v2h2v1h1v1h1v6h6V0H0Z"/><path class="ha228-2" d="M23,27H22v6h1V27Z"/><rect class="ha228-2" x="21" y="26" width="1" height="1"/><path class="ha228-3" d="M22,27H21v6h1V27Z"/><path class="ha228-2" d="M21,27H20v6h1V27Z"/><path class="ha228-2" d="M20,26h1V25H19v1Z"/><path class="ha228-3" d="M20,27h1V26H19V25H18v1H17v1H16v1H13V27H12V26H11V25H10v1H9v7H20V27Z"/><path class="ha228-4" d="M16,25V23H13v2h3Z"/><path class="ha228-2" d="M9,26h1V25H8v1H7v1H8v6H9V26Z"/><path class="ha228-3" d="M8,27H7v6H8V27Z"/><path class="ha228-2" d="M7,27H6v6H7V27Z"/><rect class="ha228-2" x="20" y="15" width="1" height="1"/><path class="ha228-4" d="M17,13v1h2V13H17Z"/><rect class="ha228-4" x="15" y="20" width="1" height="1"/><path class="ha228-4" d="M11,13V12h2v1H11v1h3V13h2V12h2V10H15v1H13V10H11v1H10v2Z"/><path class="ha228-4" d="M18,15H16V14H14v2h1v1H14V16H13v1H11V16H10v2h1v1h1V18h2v1h1V18h2v1h1V18h1V16h1V15H18Z"/><rect class="ha228-4" x="13" y="20" width="1" height="1"/><rect class="ha228-4" x="9" y="15" width="1" height="1"/><path class="ha228-2" d="M16,23v2h1V23h1V22H16Z"/><path class="ha228-2" d="M13,9H11v1h2Z"/><path class="ha228-2" d="M16,10h2V9H16Z"/><rect class="ha228-2" x="10" y="10" width="1" height="1"/><rect class="ha228-2" x="8" y="15" width="1" height="1"/><rect class="ha228-2" x="14" y="16" width="1" height="1"/><path class="ha228-5" d="M18,15h1V14H18Z"/><path class="ha228-5" d="M16,14v1h1V14Z"/><path class="ha228-2" d="M17,14v1h1V14Z"/><rect class="ha228-6" x="10" y="13" width="1" height="1"/><rect class="ha228-6" x="11" y="12" width="2" height="1"/><rect class="ha228-6" x="16" y="13" width="1" height="1"/><path class="ha228-6" d="M19,13V12H18v1Z"/><path class="ha228-2" d="M18,25h1V23H18v2Z"/><rect class="ha228-2" x="17" y="25" width="1" height="1"/><path class="ha228-7" d="M17,24v1h1V24Z"/><path class="ha228-5" d="M17,24h1V23H17Z"/><rect class="ha228-2" x="16" y="26" width="1" height="1"/><rect class="ha228-5" x="16" y="25" width="1" height="1"/><rect class="ha228-7" x="15" y="26" width="1" height="1"/><path class="ha228-2" d="M14,27H13v1h3V27H14Z"/><path class="ha228-5" d="M14,27h1V26H14Z"/><rect class="ha228-7" x="13" y="26" width="1" height="1"/><path class="ha228-2" d="M14,26h2V25H13v1Z"/><rect class="ha228-2" x="12" y="26" width="1" height="1"/><rect class="ha228-5" x="12" y="25" width="1" height="1"/><path class="ha228-2" d="M12,24v1h1V22H11v1h1Z"/><rect class="ha228-2" x="11" y="25" width="1" height="1"/><rect class="ha228-7" x="11" y="24" width="1" height="1"/><rect class="ha228-5" x="11" y="23" width="1" height="1"/><path class="ha228-2" d="M11,24V23H10v2h1Z"/><path class="ha228-8" d="M14,18H13v1h1Z"/><path class="ha228-8" d="M13,23h3V22h2V21h1V20h1V16H19v2H18v1H17V18H15v1h1v2H15V20H14v1H13V19H11V18H10V16H9v4h1v1h1v1h2Z"/><path class="ha228-2" d="M13,19v1h3V19H13Z"/><path class="ha228-2" d="M12,18v1h1V18Z"/><path class="ha228-9" d="M13,11h2V10h1V9h2V7H17V6h1V5H16V6H14V7H13v4Z"/><path class="ha228-2" d="M10,16h1v1h2V16h1V14H10V11H9v4h1Z"/><rect class="ha228-2" x="14" y="13" width="2" height="1"/><path class="ha228-2" d="M18,13V12H16v1h2Z"/><path class="ha228-2" d="M19,12v3h1V10H18v2Z"/><rect class="ha228-9" x="18" y="9" width="1" height="1"></rect></svg>