<svg xmlns="http://www.w3.org/2000/svg" viewBox="0 0 29 33"><defs><style>polygon,rect,path{shape-rendering:crispedges;}.cb89-1{fill:#e55b35;}.cb89-2{fill:#000000;}.cb89-3{fill:#3e5e00;}.cb89-4{fill:#ffffff;}.cb89-5{fill:#b2622b;}.cb89-6{fill:#473a35;}.cb89-7{fill:#990000;}.cb89-8{fill:#99ce09;}.cb89-9{fill:#0068ff;}.cb89-10{fill:#45ba00;}</style></defs><path class="cb89-1" d="M6,32V27H7V26H8V25h2V24h1V23h1V21H11V20H9V18H8V13H9V11h1V10h1V9h7v1h2v2h1v6H20v1h3v1h1v1h1v3H24v1H23v1h1v1H23v6h6V0H0V33H6Z"/><rect class="cb89-1" x="18" y="20" width="1" height="1"/><path class="cb89-1" d="M18,23V21H17v2Z"/><path class="cb89-2" d="M7,27H6v6H7V27Z"/><rect class="cb89-2" x="7" y="26" width="1" height="1"/><path class="cb89-3" d="M8,27H7v6H8V27Z"/><path class="cb89-2" d="M9,27H8v6H9V27Z"/><path class="cb89-2" d="M10,25H8v1h2Z"/><path class="cb89-3" d="M12,29H11V25H10v1H8v1H9v6h3V29Z"/><path class="cb89-2" d="M11,26v3h1V26h1V25H12V24h1V22H12v1H11v1H10v1h1Z"/><rect class="cb89-4" x="12" y="24" width="1" height="1"/><path class="cb89-2" d="M13,29H12v4h1V29Z"/><path class="cb89-4" d="M14,23H13v1h1Z"/><path class="cb89-4" d="M16,29h1V26H16V25H13v1H12v3h1v4h1V32h1v1h1V29Zm-1,2H14V30h1Zm0-2H14V28h1Zm0-2H14V26h1Z"/><rect class="cb89-2" x="14" y="26" width="1" height="1"/><rect class="cb89-2" x="14" y="28" width="1" height="1"/><rect class="cb89-2" x="14" y="30" width="1" height="1"/><rect class="cb89-2" x="14" y="32" width="1" height="1"/><rect class="cb89-4" x="15" y="23" width="1" height="1"/><path class="cb89-2" d="M15,24V23H14v1H13v1h3V24Z"/><rect class="cb89-4" x="16" y="24" width="1" height="1"/><path class="cb89-2" d="M17,29H16v4h1V29Z"/><path class="cb89-2" d="M18,24V23H17V22H16v2h1v1H16v1h1v3h1V25h1V24Z"/><path class="cb89-3" d="M20,27H19V25H18v4H17v4h3V27Z"/><path class="cb89-2" d="M21,29V27H20v6h1V29Z"/><path class="cb89-2" d="M20,25H19v2h1V25Z"/><path class="cb89-3" d="M22,29H21v4h1V29Z"/><path class="cb89-2" d="M23,27H22v6h1V27Z"/><rect class="cb89-2" x="19" y="14" width="1" height="1"/><rect class="cb89-5" x="17" y="11" width="1" height="1"/><rect class="cb89-5" x="15" y="20" width="1" height="1"/><rect class="cb89-5" x="13" y="20" width="1" height="1"/><path class="cb89-5" d="M15,16V14H14v2Z"/><path class="cb89-5" d="M16,12H15V11H14v2h2Z"/><rect class="cb89-5" x="19" y="15" width="1" height="1"/><path class="cb89-5" d="M18,15H16v1H15v1H14V16H13v1H11v2h1V18h2v1h1V18h2v1h1V15Z"/><rect class="cb89-5" x="9" y="15" width="1" height="1"/><path class="cb89-5" d="M13,13H11v1h2Z"/><rect class="cb89-2" x="19" y="16" width="1" height="1"/><rect class="cb89-2" x="9" y="16" width="1" height="1"/><rect class="cb89-2" x="14" y="16" width="1" height="1"/><path class="cb89-4" d="M16,14v1h1V14Z"/><path class="cb89-2" d="M17,15h1V14H17Z"/><path class="cb89-6" d="M13,12H11v1h2Z"/><rect class="cb89-6" x="17" y="13" width="1" height="1"/><path class="cb89-7" d="M14,18H13v1h1Z"/><rect class="cb89-7" x="19" y="17" width="1" height="1"/><path class="cb89-7" d="M13,23h3V22h1V21h1V20h1V18H18v1H17V18H15v1h1v2H15V20H14v1H13V19H11V18H10v2h1v1h1v1h1Z"/><rect class="cb89-7" x="9" y="17" width="1" height="1"/><path class="cb89-2" d="M13,19v1h3V19H13Z"/><path class="cb89-2" d="M12,18v1h1V18Z"/><path class="cb89-8" d="M9,16V15h1V14H9V13H8v5H9V16Z"/><path class="cb89-8" d="M19,12H18v6h1V14h1v4h1V12H20V11H19Z"/><path class="cb89-8" d="M10,14h1V12h2v2h1V11h1v1h2V11h2V10H18V9H11v1H10v1H9v2h1Z"/><path class="cb89-8" d="M11,16H10v2h1V16Z"/><rect class="cb89-8" x="16" y="13" width="1" height="1"/><path class="cb89-8" d="M19,19v1h1V18H19Z"/><path class="cb89-8" d="M15,14v2h1V14Z"/><path class="cb89-8" d="M9,18v2h1V18Z"/><path class="cb89-2" d="M11,16v1h2V16h1V14H10v2Z"/><path class="cb89-2" d="M16,14V13H14v1h2Z"/><path class="cb89-2" d="M17,13h1V12H16v1Z"/><path class="cb89-2" d="M19,12V11H18v1Z"/><path class="cb89-2" d="M20,11V10H19v1Z"/><rect class="cb89-2" x="9" y="13" width="1" height="1"/><path class="cb89-5" d="M21,26H20v1h1v1h1V27h1V26H21Z"/><rect class="cb89-2" x="23" y="26" width="1" height="1"/><path class="cb89-9" d="M20,21h2V20H21V19H20v2Z"/><path class="cb89-9" d="M23,22v1h1V22h1V21H23Z"/><path class="cb89-9" d="M22,24H21V22H20V21H18v2h2v2h1v1h1V25h1V24Z"/><path class="cb89-10" d="M22,20v1H20v1h1v2h2v1h1V23H23V21h1V20H23V19H21v1Z"/><path class="cb89-10" d="M20,24V23H18v1h1v1h1Z"/><path class="cb89-10" d="M21,26V25H20v1Z"/><path class="cb89-9" d="M24,24h1V23H24Z"/><path class="cb89-10" d="M20,21V20H19v1Z"/><path class="cb89-10" d="M22,26h1V25H22Z"/><path class="cb89-10" d="M24,23h1V22H24Z"/><path class="cb89-4" d="M21,29h1V28H21Z"/></svg>