<svg xmlns="http://www.w3.org/2000/svg" viewBox="0 0 29 33"><defs><style>polygon,rect,path{shape-rendering:crispedges;}polygon,rect,path{shape-rendering:crispedges;}.lb88-1{fill:#a9a9a9;}.lb88-2{fill:#000000;}.lb88-3{fill:#bbbbbb;}.lb88-4{fill:#04263a;}.lb88-5{fill:#0068f5;}.lb88-6{fill:#008dff;}.lb88-7{fill:#008b4c;}.lb88-8{fill:#ffffff;}.lb88-9{fill:#004480;}.lb88-10{fill:#8c7850;}.lb88-11{fill:#b2622b;}.lb88-12{fill:#e0dbc6;}.lb88-13{fill:#9b8100;}.lb88-14{fill:#00774c;}.lb88-15{fill:#b23b00;}.lb88-16{fill:#455054;}.lb88-17{fill:#0068ff;}.lb88-18{fill:#ffce00;}</style></defs><path class="lb88-1" d="M28,25H27v1h2V24H28Z"/><path class="lb88-2" d="M0,0V23H4V22H5v9H6V22H7V20H5v1H2V17H5V16H8v5h3V20H10V19H9V17h1V16H9V15h1V14H9V11h1V10h1V9h7v1h1v1h1v3H19v1h1v1H19v1h1v2H19v1H18v1h3v1h5v1h3V0H0ZM27,5V7H22V6H21V5H20V4h1V3h1V2h3V3h1V4h1Z"/><path class="lb88-1" d="M27,32H26V31H23v2h5V32Z"/><path class="lb88-1" d="M25,27v1H24v2h4v1h1V27H25Z"/><path class="lb88-3" d="M2,24H4v1H5V22H4v1H1v1Z"/><path class="lb88-3" d="M11,23H10v1h2V23Z"/><path class="lb88-3" d="M4,32V31H5V26H2V25H1V24H0v2H1v1H3v1H4v2H2v1H0v2H3V32Z"/><path class="lb88-3" d="M7,32H6v1H8V32Z"/><path class="lb88-3" d="M18,24h1V23H17v1Z"/><path class="lb88-3" d="M9,24H8v1h2V24Z"/><path class="lb88-3" d="M27,24H26v1H25v1H23v5h3v1h2v1h1V31H28V30H24V28h1V27h4V26H27V25h1V24h1V23H27Z"/><path class="lb88-3" d="M22,23H21v1h1v1H21v1h2V24h1V23h2V22H23v1Z"/><path class="lb88-3" d="M21,25V24H19v1h2Z"/><path class="lb88-3" d="M17,22h4V21H17Z"/><path class="lb88-4" d="M26,7h1V6H26Z"/><path class="lb88-5" d="M26,5V6h1V4H26Z"/><path class="lb88-5" d="M25,6V7h1V6Z"/><rect class="lb88-6" x="25" y="5" width="1" height="1"/><rect class="lb88-7" x="25" y="4" width="1" height="1"/><rect class="lb88-8" x="25" y="3" width="1" height="1"/><path class="lb88-1" d="M24,24H23v2h2V25h1V24h1V23H24Z"/><path class="lb88-7" d="M24,5H23V6h2V5Z"/><rect class="lb88-8" x="24" y="4" width="1" height="1"/><rect class="lb88-5" x="24" y="3" width="1" height="1"/><path class="lb88-9" d="M24,6H23V7h2V6Z"/><rect class="lb88-6" x="23" y="4" width="1" height="1"/><path class="lb88-1" d="M22,27h1V26H22Z"/><path class="lb88-4" d="M22,6V7h1V6Z"/><rect class="lb88-6" x="22" y="5" width="1" height="1"/><rect class="lb88-5" x="22" y="4" width="1" height="1"/><path class="lb88-7" d="M23,4h1V3h1V2H23V3H22V4Z"/><path class="lb88-6" d="M23,2H22V3h1Z"/><rect class="lb88-1" x="21" y="24" width="1" height="1"/><rect class="lb88-9" x="21" y="5" width="1" height="1"/><rect class="lb88-7" x="21" y="4" width="1" height="1"/><rect class="lb88-8" x="21" y="3" width="1" height="1"/><rect class="lb88-5" x="20" y="4" width="1" height="1"/><path class="lb88-1" d="M17,22v1h2v1h2V23h2V22H17Z"/><path class="lb88-1" d="M10,24V23h2V22H9v2Z"/><path class="lb88-1" d="M6,31H4v1H3v1H6V31Z"/><path class="lb88-1" d="M2,30H4V28H3V27H1V26H0v5H2Z"/><path class="lb88-1" d="M4,24H1v1H2v1H5V25H4Z"/><path class="lb88-1" d="M1,23H0v1H1Z"/><path class="lb88-2" d="M21,26v1h1V26Z"/><path class="lb88-2" d="M23,27H22v3H21V27H20v6h1V31h1v2h1V27Z"/><path class="lb88-2" d="M20,25H19v1h2V25Z"/><path class="lb88-2" d="M18,24H17v1h2V24Z"/><path class="lb88-2" d="M17,24V22H16v2Z"/><path class="lb88-2" d="M12,24h1V22H12v2Z"/><path class="lb88-2" d="M11,24H10v1h2V24Z"/><path class="lb88-2" d="M9,31V27H8V26h2V25H8V24H7v7H6v1H8v1H9V31Z"/><rect class="lb88-10" x="18" y="29" width="1" height="1"/><rect class="lb88-10" x="10" y="29" width="1" height="1"/><path class="lb88-10" d="M19,32V31H18v1H17V29h1V28h1v1h1V27h1V26H19V25H17v1H16v1H13V26H12V25H10v1H8v1H9v2h1V28h1v1h1v3H11V31H10v1H9v1H20V32Zm-3-1H15v1H13V28h2v1h1Z"/><path class="lb88-10" d="M14,29v2h1V29Z"/><path class="lb88-2" d="M13,26v1h3V26H13Z"/><path class="lb88-11" d="M16,24V23H13v1H12v1h1v1h3V25h1V24Z"/><path class="lb88-10" d="M21,28v2h1V27H21Z"/><path class="lb88-11" d="M21,31v2h1V31Z"/><rect class="lb88-2" x="12" y="25" width="1" height="1"/><rect class="lb88-2" x="16" y="25" width="1" height="1"/><rect class="lb88-11" x="13" y="20" width="1" height="1"/><path class="lb88-11" d="M12,14V13H10v1h2Z"/><rect class="lb88-11" x="15" y="20" width="1" height="1"/><path class="lb88-11" d="M11,18v1h1V18h2v1h1V18h2v1h1V18h1V16h1V15H16V14h2V13H16V12h2v1h1V11H18V10H11v1H10v1h2v1h1v2H9v1h1v2Zm3-2h1v1H14Z"/><rect class="lb88-2" x="14" y="16" width="1" height="1"/><path class="lb88-12" d="M19,30H18V29H17v3h1V31h1v1h1V29H19Z"/><rect class="lb88-12" x="18" y="28" width="1" height="1"/><path class="lb88-12" d="M15,31h1V29H15Z"/><path class="lb88-12" d="M14,30V29h1V28H13v4h2V31H14Z"/><path class="lb88-12" d="M9,32h1V31h1v1h1V29H11v1H10V29H9v3Z"/><rect class="lb88-12" x="10" y="28" width="1" height="1"/><path class="lb88-13" d="M15,18v1h1V18Z"/><path class="lb88-13" d="M12,22h1v1h3V22h1V21h1V20h1V19h1V17H19v1H18v1H16v2H15V20H14v1H13V19h1V18H12v1H11V18H10V17H9v2h1v1h1v1h1Z"/><rect class="lb88-14" x="18" y="13" width="1" height="1"/><rect class="lb88-14" x="16" y="12" width="2" height="1"/><path class="lb88-14" d="M13,14V13H12v1Z"/><rect class="lb88-14" x="10" y="12" width="2" height="1"/><path class="lb88-8" d="M11,14H10v1h1Z"/><path class="lb88-8" d="M12,15h1V14H12Z"/><path class="lb88-8" d="M18,15h1V14H18Z"/><path class="lb88-8" d="M16,14v1h1V14Z"/><path class="lb88-2" d="M11,14v1h1V14Z"/><path class="lb88-2" d="M17,14v1h1V14Z"/><path class="lb88-2" d="M14,19H13v1h3V19H14Z"/><path class="lb88-2" d="M16,18v1h1V18Z"/><path class="lb88-15" d="M19,14h1V11H19v3Z"/><rect class="lb88-15" x="18" y="10" width="1" height="1"/><path class="lb88-15" d="M18,10V9H11v1h7Z"/><rect class="lb88-15" x="10" y="10" width="1" height="1"/><path class="lb88-15" d="M10,12V11H9v3h1V12Z"/><path class="lb88-11" d="M7,24H8V22H6v9H7Z"/><path class="lb88-16" d="M8,21V20H7v2H8Z"/><path class="lb88-2" d="M9,22H8v2H9Z"/><path class="lb88-17" d="M5,19V18H8V16H5v1H2v2H5Z"/><path class="lb88-18" d="M8,18H5v1H2v2H5V20H8Z"/><path class="lb88-3" d="M9,22h3V21H8v1Z"/></svg>