<svg xmlns="http://www.w3.org/2000/svg" viewBox="0 0 29 33"><defs><style>polygon,rect,path{shape-rendering:crispedges;}.ab181-1{fill:#db5a8e;}.ab181-2{fill:#000000;}.ab181-3{fill:#ffed9f;}.ab181-4{fill:#c18d59;}.ab181-5{fill:#9b8100;}.ab181-6{fill:#ffffff;}.ab181-7{fill:#8e4717;}.ab181-8{fill:#cbed03;}.ab181-9{fill:#381616;}.ab181-10{fill:#fad000;}</style></defs><rect class="ab181-1" x="19" y="24" width="1" height="1"/><path class="ab181-1" d="M0,33H6V27H7V26H8V25h2V24h1V23h1V21H11V20H10V19H9V18H8V12H9V10h1V9h1V8h7V9h1v1h1v5h1v1H20v3H19v1H18v1H17v2h1v1h1V21h1V20h3v1h1v3H23v1h1v1H23v7h6V0H0Z"/><path class="ab181-2" d="M7,30V27H6v6H7V30Z"/><path class="ab181-3" d="M7,30H8V27H7v3Z"/><path class="ab181-3" d="M7,31v2H8V31Z"/><rect class="ab181-2" x="7" y="26" width="1" height="1"/><path class="ab181-2" d="M9,31V27H8v6H9V31Z"/><path class="ab181-3" d="M20,32V26H19V25H18v1H17v1H16V25H15v2H14V25H13v2H12V26H11V25H10v1H9v6h1v1h4V32h1v1h4V32Zm-9-3H10V28h1Zm2,2H12V30h1Zm2,0H14V30h1Zm0-2H14V28h1Zm2,2H16V30h1Zm1-2V28h1v1Z"/><path class="ab181-2" d="M10,26V25H8v1h2Z"/><rect class="ab181-3" x="12" y="24" width="1" height="1"/><path class="ab181-2" d="M11,26h2V25H12V24h1V23h3v1h1v1H16v1h2V25h1V24H18V23H17V21H16v1H13V21H12v2H11v1H10v1h1Z"/><rect class="ab181-2" x="13" y="24" width="1" height="1"/><rect class="ab181-2" x="14" y="32" width="1" height="1"/><rect class="ab181-2" x="14" y="30" width="1" height="1"/><rect class="ab181-2" x="14" y="28" width="1" height="1"/><path class="ab181-2" d="M14,26v1h1V25H14Z"/><rect class="ab181-2" x="15" y="24" width="1" height="1"/><path class="ab181-4" d="M16,24V23H13v1h1v1h1V24Z"/><rect class="ab181-3" x="16" y="24" width="1" height="1"/><path class="ab181-2" d="M21,31V26H20v7h1V31Z"/><path class="ab181-3" d="M21,29v2h1V28H21Z"/><path class="ab181-3" d="M21,32v1h1V32Z"/><path class="ab181-2" d="M23,26H22v7h1V26Z"/><rect class="ab181-5" x="10" y="28" width="1" height="1"/><rect class="ab181-5" x="12" y="30" width="1" height="1"/><path class="ab181-5" d="M12,27h1V26H12Z"/><rect class="ab181-5" x="16" y="30" width="1" height="1"/><rect class="ab181-5" x="18" y="28" width="1" height="1"/><path class="ab181-5" d="M21,28h1V27H21Z"/><path class="ab181-5" d="M16,27h1V26H16Z"/><path class="ab181-5" d="M9,27V26H8v1Z"/><path class="ab181-5" d="M19,32v1h1V32Z"/><path class="ab181-5" d="M9,32v1h1V32Z"/><path class="ab181-5" d="M7,31H8V30H7Z"/><path class="ab181-5" d="M21,32h1V31H21Z"/><rect class="ab181-2" x="20" y="15" width="1" height="1"/><path class="ab181-4" d="M13,22h3V21h1V20h1V19h1V16h1V15H16V13h1V12h2V11H18V10H16v1H14v1H13v1H11v1h2v1H9v1h1v3h1v1h1v1h1Zm1-6h1v1H14Zm-2,3V18h1v1h3v1H13V19Z"/><polygon class="ab181-4" points="18 14 19 14 19 13 17 13 17 14 18 14"/><path class="ab181-2" d="M19,17v2h1V16H19Z"/><rect class="ab181-2" x="18" y="19" width="1" height="1"/><rect class="ab181-2" x="17" y="20" width="1" height="1"/><rect class="ab181-2" x="11" y="20" width="1" height="1"/><rect class="ab181-2" x="10" y="19" width="1" height="1"/><path class="ab181-2" d="M10,16H9v3h1V16Z"/><rect class="ab181-2" x="14" y="16" width="1" height="1"/><path class="ab181-6" d="M13,15V14H12v1Z"/><path class="ab181-6" d="M10,15h1V14H10Z"/><path class="ab181-6" d="M18,14v1h1V14Z"/><path class="ab181-6" d="M16,14v1h1V14Z"/><path class="ab181-2" d="M12,15V14H11v1Z"/><path class="ab181-2" d="M17,14v1h1V14Z"/><path class="ab181-7" d="M17,13H16v1h1Z"/><rect class="ab181-7" x="17" y="12" width="2" height="1"/><rect class="ab181-2" x="13" y="19" width="3" height="1"/><rect class="ab181-2" x="12" y="18" width="1" height="1"/><path class="ab181-8" d="M9,15h1V14h1V13h2V12h1V11h2V10h2v1h1v4h1V10H19V9H18V8H11V9H10v1H9v2H8v6H9V15Z"/><path class="ab181-4" d="M20,26h1v1h1V26h1V25H20Z"/><rect class="ab181-2" x="23" y="25" width="1" height="1"/><rect class="ab181-2" x="19" y="25" width="1" height="1"/><path class="ab181-9" d="M24,22V21H23v1Z"/><path class="ab181-10" d="M20,25h3V24H21V23H20V22h1V21h1v1H21v1h3V22H23V20H20v1H19v3h1Z"/><rect class="ab181-9" x="21" y="21" width="1" height="1"/><path class="ab181-9" d="M21,23v1h3V23H21Z"/><rect class="ab181-9" x="20" y="22" width="1" height="1"/></svg>