<svg xmlns="http://www.w3.org/2000/svg" viewBox="0 0 29 33"><defs><style>polygon,rect,path{shape-rendering:crispedges;}.ha163-1{fill:#d14646;}.ha163-2{fill:#000000;}.ha163-3{fill:#0068ff;}.ha163-4{fill:#b2622b;}.ha163-5{fill:#ffffff;}.ha163-6{fill:#00774c;}.ha163-7{fill:#00774c;}.ha163-8{fill:#e70059;}.ha163-9{fill:#72dd40;}</style></defs><path class="ha163-1" d="M0,33H6V27H7V26H8V25h2V24h2V22H11V21H10V20H9V18H8V12H9V11h1V10h1V9h7v1h1v1h1v2h1v5H20v2H19v1H18v1H17v2h2v1h2v1h1v1h1v6h6V0H0Z"/><path class="ha163-2" d="M23,27H22v6h1V27Z"/><rect class="ha163-2" x="21" y="26" width="1" height="1"/><path class="ha163-3" d="M22,27H21v6h1V27Z"/><path class="ha163-2" d="M21,27H20v6h1V27Z"/><path class="ha163-2" d="M20,26h1V25H19v1Z"/><path class="ha163-3" d="M20,27h1V26H19V25H17v1H16v1H13V26H12V25H10v1H9v7H20V27Z"/><path class="ha163-2" d="M18,25h1V24H17v1Z"/><rect class="ha163-2" x="16" y="25" width="1" height="1"/><path class="ha163-2" d="M13,26v1h3V26H13Z"/><path class="ha163-2" d="M13,23V22H12v2h1Z"/><path class="ha163-4" d="M13,25v1h3V25h1V24H16V23H13v1H12v1Z"/><rect class="ha163-2" x="12" y="25" width="1" height="1"/><path class="ha163-2" d="M12,24H10v1h2Z"/><path class="ha163-2" d="M9,26h1V25H8v1H7v1H8v6H9V26Z"/><path class="ha163-3" d="M8,27H7v6H8V27Z"/><path class="ha163-2" d="M7,27H6v6H7V27Z"/><path class="ha163-4" d="M18,15H17v2H16V15H15V11H14v1H13v2h1v2h1v1H14V16H13V15H11v4h1V18h5v1h1V15Z"/><rect class="ha163-4" x="11" y="13" width="1" height="1"/><rect class="ha163-4" x="13" y="20" width="1" height="1"/><rect class="ha163-4" x="11" y="11" width="1" height="1"/><rect class="ha163-4" x="9" y="15" width="1" height="1"/><rect class="ha163-4" x="15" y="20" width="1" height="1"/><path class="ha163-4" d="M18,13H16v1h2Z"/><rect class="ha163-4" x="19" y="15" width="1" height="1"/><path class="ha163-2" d="M16,23v1h1V22H16Z"/><rect class="ha163-2" x="9" y="14" width="1" height="1"/><rect class="ha163-2" x="14" y="16" width="1" height="1"/><path class="ha163-5" d="M13,15V14H12v1Z"/><path class="ha163-2" d="M18,15V14H16v1h2Z"/><path class="ha163-2" d="M12,14H11v1h1Z"/><path class="ha163-6" d="M18,12H16v1h2Z"/><rect class="ha163-6" x="11" y="12" width="1" height="1"/><path class="ha163-7" d="M19,16v2h1V16Z"/><path class="ha163-7" d="M13,23h3V22h2V21h1V18H18v1H16v2H15V20H14v1H13V19H11V18H10v3h1v1h2Z"/><path class="ha163-7" d="M10,17V16H9v2h1Z"/><path class="ha163-2" d="M12,18v1h1V18Z"/><path class="ha163-2" d="M16,18v1h1V18Z"/><path class="ha163-2" d="M15,20h1V19H15Z"/><path class="ha163-2" d="M15,19V18H14v1Z"/><path class="ha163-2" d="M13,19v1h1V19Z"/><path class="ha163-5" d="M14,18H13v1h1Z"/><path class="ha163-5" d="M15,18v1h1V18Z"/><rect class="ha163-8" x="14" y="19" width="1" height="1"/><path class="ha163-9" d="M9,15V14h1v4h1V11h1v3h1V12h1V11h1v4h1V12h2v6h1V15h1v3h1V13H20V11H19V10H18V9H11v1H10v1H9v1H8v6H9V15Z"/><path class="ha163-9" d="M9,18v2h1V18Z"/><path class="ha163-9" d="M13,16h1V14H13v2Z"/><path class="ha163-9" d="M17,17V15H16v2Z"/><path class="ha163-9" d="M19,19v1h1V18H19Z"/></svg>