<svg xmlns="http://www.w3.org/2000/svg" viewBox="0 0 29 33"><defs><style>polygon,rect,path{shape-rendering:crispedges;}.aa294-1{fill:#397d98;}.aa294-2{fill:#000000;}.aa294-3{fill:#b2622b;}.aa294-4{fill:#a8a07e;}.aa294-5{fill:#a8a07e;}.aa294-6{fill:#8e4717;}.aa294-7{fill:#fad000;}.aa294-8{fill:#ffffff;}.aa294-9{fill:#8e4717;}.aa294-10{fill:#6e12ff;}</style></defs><path class="aa294-1" d="M0,33H6V27H7V26H8V25h2V23h1V21H10V20H9V16H8V14H9V10h1V9h1V8h7V9h1v1h1v4h1v2H20v4H19v1H18v2h1v2h2V23H20V21h1V20h1V19h2v1h1v3H24v8H23v1H21v1h8V0H0Z"/><path class="aa294-2" d="M7,31V27H6v6H7Z"/><rect class="aa294-2" x="7" y="26" width="1" height="1"/><path class="aa294-3" d="M8,31V27H7v6H8Z"/><rect class="aa294-3" x="8" y="26" width="1" height="1"/><path class="aa294-2" d="M9,31V27H8v6H9Z"/><path class="aa294-2" d="M10,26V25H8v1Z"/><rect class="aa294-4" x="13" y="30" width="1" height="2"/><path class="aa294-4" d="M20,31V26H19V25H18v1H17v1H16v1H13V27H12V26H11V25H10v1H9v7h1V29h1v4h1V29h3v4h1V29h3v1H17v2h1V31h1v2h1Z"/><rect class="aa294-3" x="20" y="26" width="1" height="1"/><path class="aa294-2" d="M22,32h1V31H22V23H21v2H19v1h2v1H20v6h1V32Z"/><path class="aa294-2" d="M23,24v7h1V23H23Z"/><path class="aa294-3" d="M15,25h1V23H13v2Z"/><path class="aa294-5" d="M12,29v4h3V29Zm2,3H13V30h1Z"/><path class="aa294-5" d="M11,31V29H10v4h1Z"/><path class="aa294-5" d="M19,31H18v1H17V30h2V29H16v4h3Z"/><rect class="aa294-2" x="20" y="15" width="1" height="1"/><rect class="aa294-3" x="14" y="15" width="1" height="1"/><rect class="aa294-3" x="13" y="20" width="1" height="1"/><path class="aa294-3" d="M17,17H16V16H15v1H14V16H13v1H10v1h1v1h1V18h2v1h1V18h2v1h1V18h1V17Z"/><path class="aa294-3" d="M11,12h2v2h3V12h2v1h1V11H18V10H17v1H14V10H13v1H12V10H11v1H10v2h1Z"/><rect class="aa294-3" x="15" y="20" width="1" height="1"/><path class="aa294-2" d="M16,22v3h1V23h1V22Z"/><rect class="aa294-2" x="8" y="15" width="1" height="1"/><rect class="aa294-2" x="14" y="16" width="1" height="1"/><path class="aa294-6" d="M18,13V12H16v1Z"/><path class="aa294-6" d="M11,12v1h2V12Z"/><path class="aa294-2" d="M18,25h1V23H18Z"/><rect class="aa294-2" x="17" y="25" width="1" height="1"/><rect class="aa294-7" x="17" y="24" width="1" height="1"/><rect class="aa294-8" x="17" y="23" width="1" height="1"/><rect class="aa294-2" x="16" y="26" width="1" height="1"/><rect class="aa294-8" x="16" y="25" width="1" height="1"/><rect class="aa294-7" x="15" y="26" width="1" height="1"/><path class="aa294-2" d="M14,27H13v1h3V27Z"/><rect class="aa294-8" x="14" y="26" width="1" height="1"/><rect class="aa294-7" x="13" y="26" width="1" height="1"/><path class="aa294-2" d="M14,26h2V25H13v1Z"/><rect class="aa294-2" x="12" y="26" width="1" height="1"/><rect class="aa294-8" x="12" y="25" width="1" height="1"/><path class="aa294-2" d="M12,24v1h1V22H11v1h1Z"/><rect class="aa294-2" x="11" y="25" width="1" height="1"/><rect class="aa294-7" x="11" y="24" width="1" height="1"/><rect class="aa294-8" x="11" y="23" width="1" height="1"/><path class="aa294-2" d="M11,24V23H10v2h1Z"/><rect class="aa294-9" x="15" y="18" width="1" height="1"/><path class="aa294-9" d="M13,22v1h3V22h2V21h1V20h1V16H19v2H18v1H16v2H15V20H14v1H13V19h1V18H12v1H11V18H10V16H9v4h1v1h1v1Z"/><path class="aa294-2" d="M14,19H13v1h3V19Z"/><rect class="aa294-2" x="16" y="18" width="1" height="1"/><path class="aa294-2" d="M21,21H20v2h1Z"/><rect class="aa294-2" x="21" y="20" width="1" height="1"/><rect class="aa294-2" x="22" y="19" width="2" height="1"/><path class="aa294-2" d="M24,22v1h1V20H24Z"/><path class="aa294-3" d="M22,24v7h1V23h1V20H22v1H21v2h1Z"/><path class="aa294-10" d="M10,13V11h1V10h1v1h1V10h1v1h3V10h1v1h1v3h1V10H19V9H18V8H11V9H10v1H9v4h1Z"/><path class="aa294-7" d="M19,15v1h1V15h1V14H19Z"/><path class="aa294-7" d="M17,13H16v1h3V13Z"/><path class="aa294-2" d="M19,14H16v2h3Z"/><path class="aa294-7" d="M17,16H16v1h3V16Z"/><path class="aa294-7" d="M14,14H13v2h1V15h1v1h1V14Z"/><path class="aa294-7" d="M12,14h1V13H10v1Z"/><path class="aa294-2" d="M12,16h1V14H10v2Z"/><path class="aa294-7" d="M12,17h1V16H10v1Z"/><path class="aa294-7" d="M10,15V14H8v1H9v1h1Z"/></svg>