<svg xmlns="http://www.w3.org/2000/svg" viewBox="0 0 29 33"><defs><style>polygon,rect,path{shape-rendering:crispedges;}.aa139-1{fill:#d4a122;}.aa139-2{fill:#000000;}.aa139-3{fill:#ce8452;}.aa139-4{fill:#4922aa;}.aa139-5{fill:#c4ea3b;}.aa139-6{fill:#ffffff;}.aa139-7{fill:#6f7032;}.aa139-8{fill:#6f7032;}.aa139-9{fill:#ff5e17;}.aa139-10{fill:#ff6aa5;}.aa139-11{fill:#ad5a21;}</style></defs><path class="aa139-1" d="M0,33H6V25H7V23H8V22h3v1h1V21H10V20H9V18H8V13H9V11h1V10h1V9h7v1h1v1h1v1h1v6H20v2H19v1H17v3h2v1h2v1h1v1h1v6h6V0H0Z"/><path class="aa139-2" d="M23,31V27H22v6h1Z"/><rect class="aa139-2" x="21" y="26" width="1" height="1"/><path class="aa139-3" d="M22,31V27H21v6h1Z"/><rect class="aa139-3" x="20" y="26" width="1" height="1"/><path class="aa139-2" d="M21,31V27H20v6h1Z"/><path class="aa139-2" d="M20,26h1V25H19v1Z"/><rect class="aa139-4" x="18" y="30" width="1" height="1"/><path class="aa139-4" d="M14,31v1h1V30H14Z"/><rect class="aa139-4" x="10" y="30" width="1" height="1"/><path class="aa139-4" d="M17,31V30h1V29h1v1h1V26H19V25H18v1H17v1H16v1H13V27H12V26H11v1H9v3h1V29h1v1h1v3h1V29h2v1h1v2H15v1h2Z"/><rect class="aa139-4" x="10" y="32" width="1" height="1"/><rect class="aa139-4" x="18" y="32" width="1" height="1"/><path class="aa139-2" d="M13,24V23h3v1h1V21H16v1H13V21H12v3Z"/><path class="aa139-2" d="M9,31V27H8v6H9Z"/><path class="aa139-3" d="M8,31V27H9V25H7v8H8Z"/><path class="aa139-2" d="M7,31V25H6v8H7Z"/><rect class="aa139-2" x="12" y="26" width="1" height="1"/><rect class="aa139-2" x="16" y="26" width="1" height="1"/><path class="aa139-2" d="M17,26h1V25h1V24H17Z"/><path class="aa139-2" d="M14,27H13v1h3V27Z"/><path class="aa139-3" d="M16,23H13v1H12v2h1v1h3V26h1V24H16Z"/><path class="aa139-5" d="M20,31V30H19v1H18V30H17v3h1V32h1v1h1Z"/><rect class="aa139-5" x="18" y="29" width="1" height="1"/><path class="aa139-5" d="M15,32h1V30H15Z"/><path class="aa139-5" d="M14,32V30h1V29H13v4h2V32Z"/><path class="aa139-5" d="M12,31V30H11v1H10V30H9v3h1V32h1v1h1Z"/><rect class="aa139-5" x="10" y="29" width="1" height="1"/><rect class="aa139-2" x="19" y="14" width="1" height="1"/><rect class="aa139-3" x="17" y="13" width="1" height="1"/><rect class="aa139-3" x="17" y="11" width="1" height="1"/><rect class="aa139-3" x="12" y="12" width="1" height="1"/><rect class="aa139-3" x="11" y="13" width="1" height="1"/><path class="aa139-3" d="M13,22h3V21h1V20h1V15H16v1H15v1H14V16h1V14h1V12H15V11H14v4H13v2H12V15H11v5h1v1h1Zm0-3h3V18h1v1H16v1H13Z"/><rect class="aa139-3" x="19" y="15" width="1" height="1"/><rect class="aa139-3" x="9" y="15" width="1" height="1"/><rect class="aa139-2" x="19" y="16" width="1" height="1"/><rect class="aa139-2" x="9" y="16" width="1" height="1"/><rect class="aa139-2" x="14" y="16" width="1" height="1"/><rect class="aa139-6" x="12" y="14" width="1" height="1"/><rect class="aa139-6" x="16" y="14" width="1" height="1"/><rect class="aa139-2" x="11" y="14" width="1" height="1"/><rect class="aa139-2" x="17" y="14" width="1" height="1"/><rect class="aa139-7" x="17" y="12" width="1" height="1"/><rect class="aa139-7" x="12" y="13" width="1" height="1"/><rect class="aa139-7" x="11" y="12" width="1" height="1"/><path class="aa139-8" d="M19,18H18v2H17v1h2Z"/><rect class="aa139-8" x="19" y="17" width="1" height="1"/><path class="aa139-8" d="M11,20V18H10v3h2V20Z"/><rect class="aa139-8" x="9" y="17" width="1" height="1"/><rect class="aa139-2" x="13" y="19" width="3" height="1"/><rect class="aa139-2" x="16" y="18" width="1" height="1"/><path class="aa139-9" d="M9,16V15h1v3h1V12h2v3h1V11h1v1h1v2h1V11h1v7h1V14h1v4h1V12H20V11H19V10H18V9H11v1H10v1H9v2H8v5H9Z"/><path class="aa139-9" d="M19,19v1h1V18H19Z"/><path class="aa139-9" d="M15,14v2h1V14Z"/><path class="aa139-9" d="M12,16v1h1V15H12Z"/><path class="aa139-9" d="M10,18H9v2h1Z"/><rect class="aa139-10" x="7" y="23" width="1" height="1"/><rect class="aa139-10" x="8" y="22" width="1" height="1"/><rect class="aa139-10" x="10" y="22" width="1" height="1"/><path class="aa139-10" d="M10,25H9v1h2V25Z"/><rect class="aa139-10" x="11" y="24" width="1" height="1"/><path class="aa139-11" d="M8,25H9V24h1v1h1V23H8Z"/><path class="aa139-11" d="M9,26v1h2V26Z"/><rect class="aa139-6" x="7" y="24" width="1" height="1"/><rect class="aa139-6" x="9" y="22" width="1" height="1"/><rect class="aa139-6" x="11" y="23" width="1" height="1"/><rect class="aa139-6" x="11" y="25" width="1" height="1"/><rect class="aa139-2" x="9" y="24" width="1" height="1"/></svg>