<svg xmlns="http://www.w3.org/2000/svg" viewBox="0 0 29 33"><defs><style>polygon,rect,path{shape-rendering:crispedges;}.ja174-1{fill:#29834f;}.ja174-2{fill:#000000;}.ja174-3{fill:#9b8100;}.ja174-4{fill:#f9e100;}.ja174-5{fill:#e8b795;}.ja174-6{fill:#ffffff;}.ja174-7{fill:#5e362f;}.ja174-8{fill:#5e362f;}.ja174-9{fill:#99004d;}.ja174-10{fill:#c9936f;}.ja174-11{fill:#e8b592;}.ja174-12{fill:#004b68;}.ja174-13{fill:#fad000;}</style></defs><path class="ja174-1" d="M20,23V19H19v1H18v1H17v3h2v1h2V23Z"/><path class="ja174-1" d="M0,33H6V27H7V26H8V25h2V24h2V21H11V20H10V19H9V16H8V15H9V10h1V9h1V8h7V9h1v1h1v5h1v2h1V16h1v1h1V16h1v7H24v8H23v1H21v1h8V0H0Z"/><path class="ja174-2" d="M23,26v5h1V25H23Z"/><path class="ja174-3" d="M23,28V27H22v2h1Z"/><path class="ja174-2" d="M22,32h1V31H22V25H19v1h2v1H20v6h1V32Z"/><path class="ja174-3" d="M17,26h1v2h1v1h1V27H19V25H17Z"/><path class="ja174-3" d="M16,31V30H15V28H14V27H13V25H11v1h1v2h1v1h1v2h1v1h1v1h1V31Z"/><rect class="ja174-3" x="16" y="24" width="1" height="1"/><path class="ja174-3" d="M13,31V30H12V28H11V27H10V26H9v2h1v1h1v2h1v1h1v1h1V31Z"/><path class="ja174-3" d="M19,31V30H18V28H17V27H16V25H15V24H14V23H13v2h1v1h1v2h1v1h1v2h1v1h1v1h1V31Z"/><path class="ja174-3" d="M10,31V30H9v2h1v1h1V31Z"/><path class="ja174-2" d="M18,24H17v1h2V24Z"/><path class="ja174-2" d="M13,23h3v1h1V21H16v1H13V21H12v3h1Z"/><path class="ja174-2" d="M12,25V24H10v1h2Z"/><path class="ja174-2" d="M10,26V25H8v1h2Z"/><path class="ja174-2" d="M9,31V27H8v6H9V31Z"/><rect class="ja174-2" x="7" y="26" width="1" height="1"/><path class="ja174-3" d="M8,29V27H7v2Z"/><path class="ja174-3" d="M7,31v2H8V31Z"/><path class="ja174-2" d="M7,30V27H6v6H7V30Z"/><path class="ja174-4" d="M19,28H18v2h1v1h1V29H19Z"/><path class="ja174-4" d="M17,26V25H16v2h1v1h1V26Z"/><path class="ja174-4" d="M22,29v2h1V29Z"/><path class="ja174-4" d="M20,27h1V26H19v1Z"/><path class="ja174-4" d="M23,26V25H22v2h1Z"/><path class="ja174-4" d="M18,32V31H17v2h2V32Z"/><path class="ja174-4" d="M16,30v1h1V29H16V28H15v2Z"/><path class="ja174-4" d="M16,23H14v1h1v1h1V23Z"/><path class="ja174-4" d="M14,27v1h1V26H14V25H13v2Z"/><path class="ja174-4" d="M15,32V31H14v2h2V32Z"/><path class="ja174-4" d="M13,30v1h1V29H13V28H12v2Z"/><path class="ja174-4" d="M13,25V24H12v1Z"/><path class="ja174-4" d="M10,27h1v1h1V26H11V25H10v2Z"/><path class="ja174-4" d="M12,32V31H11v2h2V32Z"/><path class="ja174-4" d="M10,30v1h1V29H10V28H9v2Z"/><path class="ja174-4" d="M9,32v1h1V32Z"/><path class="ja174-4" d="M9,27V26H8v1Z"/><path class="ja174-4" d="M7,30v1H8V29H7Z"/><path class="ja174-2" d="M21,16V15H20v1Z"/><path class="ja174-2" d="M19,15h1V14H19Z"/><path class="ja174-5" d="M12,19V18h5v1h2V16h1V15H16V13h1V12h2V11H18V10H17v1H16V10H15v1H12V10H11v1H10v2h1V12h2v1H11v1h2v1H9v1h1v3h2Zm2-3h1v1H14Z"/><polygon class="ja174-5" points="18 14 19 14 19 13 17 13 17 14 18 14"/><rect class="ja174-5" x="15" y="20" width="1" height="1"/><rect class="ja174-5" x="13" y="20" width="1" height="1"/><rect class="ja174-5" x="12" y="19" width="1" height="1"/><rect class="ja174-5" x="16" y="19" width="1" height="1"/><path class="ja174-2" d="M20,18V16H19v3h1Z"/><path class="ja174-2" d="M19,20V19H18v1Z"/><rect class="ja174-2" x="17" y="20" width="1" height="1"/><rect class="ja174-2" x="11" y="20" width="1" height="1"/><path class="ja174-2" d="M10,19v1h1V19Z"/><path class="ja174-2" d="M10,14H9v1h1Z"/><path class="ja174-2" d="M10,16H9v3h1V16Z"/><rect class="ja174-2" x="8" y="15" width="1" height="1"/><rect class="ja174-2" x="14" y="16" width="1" height="1"/><path class="ja174-6" d="M13,15V14H12v1Z"/><path class="ja174-6" d="M10,15h1V14H10Z"/><path class="ja174-6" d="M18,14v1h1V14Z"/><path class="ja174-6" d="M16,14v1h1V14Z"/><path class="ja174-2" d="M12,15V14H11v1Z"/><path class="ja174-2" d="M17,14v1h1V14Z"/><rect class="ja174-7" x="10" y="13" width="1" height="1"/><rect class="ja174-7" x="11" y="12" width="2" height="1"/><path class="ja174-7" d="M17,13H16v1h1Z"/><rect class="ja174-7" x="17" y="12" width="2" height="1"/><path class="ja174-8" d="M18,20V19H17v1Z"/><rect class="ja174-8" x="16" y="20" width="1" height="1"/><path class="ja174-8" d="M15,20H14v1H13v1h3V21H15Z"/><path class="ja174-8" d="M14,19h3V18H13v1Z"/><rect class="ja174-8" x="12" y="20" width="1" height="1"/><path class="ja174-8" d="M12,19H11v1h1Z"/><path class="ja174-2" d="M15,20h1V19H13v1h2Z"/><path class="ja174-2" d="M13,18H12v1h1Z"/><path class="ja174-9" d="M10,13V11h1V10h1v1h3V10h1v1h1V10h1v1h1v3h1V10H19V9H18V8H11V9H10v1H9v4h1Z"/><path class="ja174-10" d="M21,23V22H20v1Z"/><path class="ja174-10" d="M24,22.111V23h1V22H24Z"/><rect class="ja174-2" x="21" y="19" width="1" height="1"/><rect class="ja174-2" x="23" y="19" width="1" height="1"/><path class="ja174-11" d="M24,22H21v1h3V22Z"/><path class="ja174-11" d="M23,20V19H22v1H20v2h1V21h3v1h1V20H23Z"/><path class="ja174-12" d="M21,23v2h3V23H21Z"/><path class="ja174-13" d="M20,18v2h1V19h3v1h1V18H20Z"/><path class="ja174-2" d="M24,22V21H21v1h3Z"/><path class="ja174-6" d="M20,17v1h5V16H24v1H23V16H22v1H21V16H20Z"/></svg>