<svg xmlns="http://www.w3.org/2000/svg" viewBox="0 0 29 33"><defs><style>polygon,rect,path{shape-rendering:crispedges;}.pa76-1{fill:#6b4f99;}.pa76-2{fill:#000000;}.pa76-3{fill:#f9e100;}.pa76-4{fill:#c18d59;}.pa76-5{fill:#f9e100;}.pa76-6{fill:#ffffff;}.pa76-7{fill:#66334f;}.pa76-8{fill:#d8be00;}.pa76-9{fill:#ff1f4a;}.pa76-10{fill:#508e91;}.pa76-11{fill:#c6e5e4;}</style></defs><path class="pa76-1" d="M0,33H6V27H7V26H8V25h2V24h1V23H10V22h1V20H10V19H9V16H8V14H9V11h1V10h1V9h7v1h1v1h1v3h1v2H20v3H19v1H18v2h1v1H18v1h1v1h2V23h2V22H22V21H21V20h1V19h3v1h1v1H25v1H24v1h1v1H24v7H23v1H21v1h8V0H0Z"/><path class="pa76-2" d="M23,25v6h1V24H23Z"/><path class="pa76-2" d="M7,27H6v6H7V27Z"/><path class="pa76-3" d="M8,27H7v6H8V27Z"/><rect class="pa76-2" x="7" y="26" width="1" height="1"/><path class="pa76-2" d="M9,31V27H8v6H9V31Z"/><rect class="pa76-3" x="10" y="29" width="1" height="1"/><rect class="pa76-3" x="18" y="29" width="1" height="1"/><path class="pa76-3" d="M9,27v2h1V28h1v1h1V25h1V24H11v1H10v1H8v1Z"/><path class="pa76-3" d="M16,25h1v4h1V28h1v1h1V27h1V26H19V25H18V24H16Z"/><path class="pa76-3" d="M19,32V31H18v1H17V30H16v1H15v1H13V30H12v2H11V31H10v1H9v1H20V32Z"/><path class="pa76-2" d="M10,25H8v1h2Z"/><rect class="pa76-2" x="10" y="24" width="1" height="1"/><rect class="pa76-2" x="10" y="22" width="1" height="1"/><rect class="pa76-3" x="11" y="22" width="1" height="1"/><path class="pa76-2" d="M13,23h3v1h2V23H17V22h1V20H17v1H16v1H13V21H12V20H11v2h1v1H11v1h2Z"/><path class="pa76-2" d="M16,25V24H13v1h3Z"/><path class="pa76-4" d="M16,24V23H13v1h3Z"/><rect class="pa76-3" x="17" y="22" width="1" height="1"/><rect class="pa76-2" x="18" y="24" width="1" height="1"/><rect class="pa76-2" x="18" y="22" width="1" height="1"/><path class="pa76-2" d="M22,32h1V31H22V23H21v2H19v1h2v1H20v6h1V32Z"/><path class="pa76-3" d="M23,25V24H22v7h1V25Z"/><path class="pa76-3" d="M14,29v2h1V29Z"/><path class="pa76-3" d="M13,28h2v1h1V25H13v3Z"/><path class="pa76-5" d="M19,30H18V29H17v3h1V31h1v1h1V29H19Z"/><rect class="pa76-5" x="18" y="28" width="1" height="1"/><path class="pa76-5" d="M15,29v2h1V29Z"/><path class="pa76-5" d="M14,30V29h1V28H13v4h2V31H14Z"/><path class="pa76-5" d="M11,29v1H10V29H9v3h1V31h1v1h1V29Z"/><rect class="pa76-5" x="10" y="28" width="1" height="1"/><path class="pa76-2" d="M13,27V25H12v5h1V27Z"/><path class="pa76-2" d="M17,28V25H16v5h1V28Z"/><path class="pa76-2" d="M20,16h1V15H20Z"/><path class="pa76-2" d="M19,13v1h1V12H19Z"/><path class="pa76-4" d="M19,16V15H16v1h3Z"/><rect class="pa76-4" x="11" y="10" width="1" height="1"/><path class="pa76-4" d="M13,20v2h3V20Z"/><rect class="pa76-4" x="17" y="10" width="1" height="1"/><rect class="pa76-4" x="10" y="11" width="1" height="1"/><path class="pa76-4" d="M12,19V18h5v2h1V19h1V17H16V16H15v1H14V16H13v1H10v2h1v1h1Z"/><rect class="pa76-4" x="18" y="11" width="1" height="1"/><path class="pa76-4" d="M13,12v2h3V12h1V11H16V10H13v1H12v1Z"/><path class="pa76-4" d="M12,15H10v1h3V15Z"/><rect class="pa76-4" x="14" y="15" width="1" height="1"/><path class="pa76-2" d="M19,17v2h1V16H19Z"/><rect class="pa76-2" x="18" y="19" width="1" height="1"/><rect class="pa76-2" x="10" y="19" width="1" height="1"/><path class="pa76-2" d="M10,13V12H9v2h1Z"/><path class="pa76-2" d="M10,16H9v3h1V16Z"/><path class="pa76-2" d="M8,15v1H9V15Z"/><rect class="pa76-2" x="14" y="16" width="1" height="1"/><path class="pa76-6" d="M11,14H10v1h1Z"/><path class="pa76-6" d="M16,14v1h1V14Z"/><path class="pa76-2" d="M11,14v1h2V14H11Z"/><path class="pa76-2" d="M17,15h2V14H17Z"/><path class="pa76-7" d="M13,13V12H10v1h3Z"/><path class="pa76-7" d="M16,12v1h3V12H16Z"/><path class="pa76-8" d="M13,18v1h3v2h1V18Z"/><path class="pa76-8" d="M13,19H12v2h1V19Z"/><path class="pa76-2" d="M16,20V19H13v1Z"/><path class="pa76-2" d="M13,18H12v1h1Z"/><path class="pa76-9" d="M20,12V11H19v1Z"/><rect class="pa76-9" x="18" y="10" width="1" height="1"/><path class="pa76-9" d="M12,11h1V10h3v1h1V10h1V9H11v1h1Z"/><path class="pa76-9" d="M18,12V11H17v1Z"/><path class="pa76-9" d="M12,11H11v1h1Z"/><rect class="pa76-9" x="10" y="10" width="1" height="1"/><path class="pa76-9" d="M10,11H9v1h1Z"/><path class="pa76-10" d="M19,15v1h1V15h1V14H19Z"/><path class="pa76-10" d="M18,16H16v1h3V16Z"/><path class="pa76-10" d="M12,14h1V13H10v1h2Z"/><path class="pa76-10" d="M16,13v1h3V13H16Z"/><path class="pa76-10" d="M16,14H13v2h1V15h1v1h1V14Z"/><path class="pa76-10" d="M10,16v1h3V16H10Z"/><path class="pa76-10" d="M10,15V14H8v1H9v1h1Z"/><path class="pa76-6" d="M25,22V21h1V20H25V19H23v1h1v1H23v1h2Z"/><path class="pa76-11" d="M24,21V20H23V19H22v1H21v1h1v1h1V21Z"/><path class="pa76-11" d="M24,22H23v1h1Z"/><path class="pa76-4" d="M23,24h1V23H22v1Z"/><rect class="pa76-2" x="24" y="23" width="1" height="1"/></svg>