<svg xmlns="http://www.w3.org/2000/svg" viewBox="0 0 29 33"><defs><style>polygon,rect,path{shape-rendering:crispedges;}.wa57-1{fill:#29834f;}.wa57-2{fill:#cc3232;}.wa57-3{fill:#000000;}.wa57-4{fill:#ce8452;}.wa57-5{fill:#333333;}.wa57-6{fill:#ffffff;}.wa57-7{fill:#66334f;}.wa57-8{fill:#c8a715;}.wa57-9{fill:#ff1f4a;}.wa57-10{fill:#560000;}.wa57-11{fill:#cc3232;}</style></defs><path class="wa57-1" d="M0,33H6V27H7V26H8V25h2V20H9V16H8V15H9V11h1V9h1V8h7V9h1v1h1v5h1v1H20v4H19v5h2v1h1v1h1v6h6V0H0Z"/><rect class="wa57-2" x="17" y="24" width="1" height="1"/><path class="wa57-2" d="M14,27v1h6V27H14Z"/><path class="wa57-2" d="M14,31h6V30H14Z"/><rect class="wa57-2" x="21" y="30" width="1" height="1"/><rect class="wa57-2" x="21" y="27" width="1" height="1"/><rect class="wa57-2" x="7" y="27" width="1" height="1"/><rect class="wa57-2" x="7" y="30" width="1" height="1"/><rect class="wa57-2" x="11" y="24" width="1" height="1"/><path class="wa57-2" d="M9,31h4V30H9Z"/><path class="wa57-2" d="M9,28h4V27H9Z"/><path class="wa57-3" d="M23,27H22v6h1V27Z"/><rect class="wa57-3" x="21" y="26" width="1" height="1"/><path class="wa57-3" d="M21,30V27H20v4H14V27H13v4H9V27H8v6H9V32H20v1h1V30Z"/><path class="wa57-3" d="M20,26h1V25H19v1Z"/><path class="wa57-3" d="M18,25h1V24H18Z"/><rect class="wa57-3" x="15" y="24" width="1" height="1"/><path class="wa57-3" d="M15,26V25H14v2h1Z"/><rect class="wa57-3" x="13" y="24" width="1" height="1"/><path class="wa57-4" d="M15,24h1V23H13v1h1v1h1Z"/><path class="wa57-3" d="M11,24H10v1h1Z"/><path class="wa57-3" d="M10,25H8v1h2Z"/><rect class="wa57-3" x="7" y="26" width="1" height="1"/><path class="wa57-3" d="M7,30V27H6v6H7V30Z"/><rect class="wa57-3" x="20" y="15" width="1" height="1"/><path class="wa57-4" d="M18,15H16V14h2V13H15v2H14v1h1v1H14V16H13v1H11V16H10v2h1v1h1V18h2v1h1V18h2v1h1V18h1V16h1V15H18Z"/><polygon class="wa57-4" points="13 21 14 21 14 22 15 22 15 21 16 21 16 20 13 20 13 21"/><rect class="wa57-4" x="9" y="15" width="1" height="1"/><path class="wa57-3" d="M19,17h1V16H19Z"/><path class="wa57-3" d="M10,16H9v1h1Z"/><rect class="wa57-3" x="8" y="15" width="1" height="1"/><rect class="wa57-3" x="14" y="16" width="1" height="1"/><path class="wa57-5" d="M19,32H9v1H20V32Z"/><path class="wa57-5" d="M14,29v1h6V28H14Z"/><path class="wa57-5" d="M9,29v1h4V28H9Z"/><path class="wa57-5" d="M9,27h5V25H10v1H8v1Z"/><path class="wa57-5" d="M17,25H15v2h6V26H19V25H17Z"/><path class="wa57-5" d="M7,29v1H8V28H7Z"/><path class="wa57-5" d="M7,31v2H8V31Z"/><path class="wa57-5" d="M21,31v2h1V31Z"/><path class="wa57-5" d="M21,29v1h1V28H21Z"/><path class="wa57-5" d="M12,23V22H11v2h1Z"/><path class="wa57-5" d="M18,24V22H17v2Z"/><path class="wa57-6" d="M19,15V14H18v1Z"/><path class="wa57-6" d="M16,14v1h1V14Z"/><path class="wa57-3" d="M17,15h1V14H17Z"/><path class="wa57-7" d="M12,22v1h5V22h2V20h1V17H19v1H18v1H16v2H15v1H14V21H13V19h1V18H12v1H11V18H10V17H9v3h1v2h2Z"/><path class="wa57-7" d="M15,18v1h1V18Z"/><path class="wa57-8" d="M18,23h1V22H18Z"/><path class="wa57-7" d="M18,24h1V23H18Z"/><path class="wa57-8" d="M17,24V23H16v1Z"/><path class="wa57-7" d="M16,24v1h1V24Z"/><path class="wa57-8" d="M13,24V23H12v1Z"/><path class="wa57-7" d="M12,24v1h1V24Z"/><path class="wa57-8" d="M11,22H10v1h1Z"/><path class="wa57-7" d="M11,23H10v1h1Z"/><path class="wa57-3" d="M14,19H13v1h3V19H14Z"/><path class="wa57-3" d="M16,18v1h1V18Z"/><path class="wa57-9" d="M11,15h2V13H11v2Z"/><path class="wa57-10" d="M14,15V13H13v2Z"/><path class="wa57-10" d="M12,15H11v1h2V15Z"/><path class="wa57-10" d="M11,14V13H10v2h1Z"/><path class="wa57-10" d="M13,12H11v1h2Z"/><rect class="wa57-3" x="10" y="15" width="1" height="1"/><rect class="wa57-3" x="11" y="16" width="2" height="1"/><rect class="wa57-3" x="13" y="15" width="1" height="1"/><path class="wa57-3" d="M11,13V12h2v1h1v2h1V12H14V11H13V10H11v1H10v2Z"/><path class="wa57-11" d="M11,10h2v1h1v1h1v1h3v1h1v1h1V10H19V9H18V8H11V9H10v2h1Z"/><path class="wa57-11" d="M10,14V11H9v4h1Z"/></svg>