<svg xmlns="http://www.w3.org/2000/svg" viewBox="0 0 29 33"><defs><style>polygon,rect,path{shape-rendering:crispedges;}.eb50-1{fill:#d4a122;}.eb50-2{fill:#000000;}.eb50-3{fill:#685432;}.eb50-4{fill:#ffffff;}.eb50-5{fill:#ce8452;}.eb50-6{fill:#90a2a3;}.eb50-7{fill:#ffffff;}.eb50-8{fill:#492a23;}.eb50-9{fill:#492a23;}.eb50-10{fill:#9b8100;}.eb50-11{fill:#fafafa;}</style></defs><path class="eb50-1" d="M19,24h1V21H17v1h1v1h1Z"/><path class="eb50-1" d="M6,32V27H7V26H8V25H9V24h1V23h1V22h1V21H9V20H8V19H9V16H8V14H9V12H8v1H7V12H8V11H9V10h1V9h2V8h5V9h2v1h1v1h1v1h1v1H21V12H20v2h1v2H20v3h1v1h4v1h1v1h1v4H26v1H25v1H23v5h6V0H0V33H6Z"/><rect class="eb50-1" x="20" y="20" width="1" height="1"/><path class="eb50-2" d="M23,28h2V27H17v1h2v1h1v4h1V28h1v5h1V28Z"/><path class="eb50-3" d="M22,28H21v5h1V28Z"/><path class="eb50-3" d="M20,29H19v1H18v1H17v1H16v1h4V29Z"/><rect class="eb50-2" x="18" y="23" width="1" height="1"/><path class="eb50-3" d="M20,26V25H19V24H18v1H17v1H16v5h1V30h1V29h1V28H17V27h2V26Z"/><rect class="eb50-3" x="17" y="23" width="1" height="1"/><rect class="eb50-2" x="17" y="24" width="1" height="1"/><rect class="eb50-2" x="18" y="29" width="1" height="1"/><rect class="eb50-2" x="16" y="25" width="1" height="1"/><path class="eb50-4" d="M15,27H14v6h1V27Z"/><path class="eb50-2" d="M12,24h1V23h3v1h1V23h1V22H17V21H16v1H13V21H12v1H11v1h1Z"/><path class="eb50-5" d="M17,25V24H16V23H13v1H12v1h1v1h3V25Z"/><rect class="eb50-2" x="12" y="25" width="1" height="1"/><path class="eb50-3" d="M12,32V31H11V30H10V29H9v4h4V32Z"/><rect class="eb50-3" x="11" y="23" width="1" height="1"/><rect class="eb50-2" x="11" y="24" width="1" height="1"/><rect class="eb50-2" x="11" y="30" width="1" height="1"/><rect class="eb50-2" x="10" y="23" width="1" height="1"/><rect class="eb50-2" x="9" y="24" width="1" height="1"/><path class="eb50-3" d="M10,26v1h2v1H10v1h1v1h1v1h1V26H12V25H11V24H10v1H9v1Z"/><path class="eb50-2" d="M9,29h1V28h2V27H9V25H8v1H7v1H8v6H9V29Z"/><path class="eb50-3" d="M8,27H7v6H8V27Z"/><path class="eb50-2" d="M7,27H6v6H7V27Z"/><rect class="eb50-2" x="10" y="29" width="1" height="1"/><rect class="eb50-2" x="17" y="30" width="1" height="1"/><path class="eb50-2" d="M17,32V31H16V26H13v5H12v1h1v1h1V27h1v6h1V32Z"/><path class="eb50-6" d="M9,26v1h1V26Z"/><path class="eb50-6" d="M19,26v1h1V26Z"/><path class="eb50-2" d="M20,16h1V15H20Z"/><path class="eb50-5" d="M13,22h3V21h1V19h1V18h1V16h1V15H16V13h1V12H15V11H14v1H13v1H11v1h2v1H9v1h1v2h1v1h1V18h1v1h3v1H13V19H12v2h1Zm2-5H14V16h1Z"/><path class="eb50-5" d="M18,14h1V13H17v1Z"/><path class="eb50-2" d="M18,20H17v1h1Z"/><path class="eb50-2" d="M11,20v1h1V20Z"/><path class="eb50-2" d="M10,15V14H9v1Z"/><path class="eb50-2" d="M8,15v1H9V15Z"/><rect class="eb50-2" x="14" y="16" width="1" height="1"/><path class="eb50-7" d="M10,15h1V14H10Z"/><path class="eb50-7" d="M16,14v1h1V14Z"/><path class="eb50-2" d="M12,15h1V14H11v1Z"/><path class="eb50-2" d="M18,14H17v1h3V14H18Z"/><rect class="eb50-8" x="10" y="13" width="1" height="1"/><path class="eb50-8" d="M12,13h1V12H12Z"/><path class="eb50-8" d="M17,13H16v1h1Z"/><path class="eb50-9" d="M19,17v1H18v1H17v1h1v1h2V20h1V19H20V16H19Z"/><path class="eb50-9" d="M12,20V19H11V18H10V16H9v3H8v1H9v1h2V20Z"/><rect class="eb50-2" x="13" y="19" width="3" height="1"/><rect class="eb50-2" x="12" y="18" width="1" height="1"/><rect class="eb50-10" x="21" y="12" width="1" height="1"/><path class="eb50-10" d="M10,13h2V12h2V11h1v1h2v1h2v1h1V12h1V11H20V10H19V9H17V8H12V9H10v1H9v1H8v1H9v2h1Z"/><path class="eb50-10" d="M21,15V14H20v1Z"/><path class="eb50-10" d="M9,14H8v1H9Z"/><rect class="eb50-10" x="7" y="12" width="1" height="1"/><rect class="eb50-11" x="24" y="23" width="1" height="1"/><rect class="eb50-11" x="21" y="23" width="1" height="1"/><rect class="eb50-5" x="25" y="22" width="1" height="1"/><path class="eb50-5" d="M26,24H21v2H20v1h5V26H22V25h3v1h1V24Z"/><rect class="eb50-5" x="21" y="21" width="1" height="1"/><polygon class="eb50-5" points="23 23 24 23 24 21 23 21 23 22 22 22 22 23 23 23"/><path class="eb50-2" d="M24.25,25H22v1h3V25Z"/><path class="eb50-2" d="M22,23v1h1V23Z"/><path class="eb50-2" d="M26,24V23H25v1Z"/><rect class="eb50-2" x="25" y="26" width="1" height="1"/><path class="eb50-2" d="M26,26h1V25H26Z"/><path class="eb50-10" d="M20,24v1h1V23h1V22H21V21H20v3Z"/><path class="eb50-10" d="M22,21v1h1V21h1v2h1V22h1V21H25V20H21v1Z"/><path class="eb50-10" d="M26,24v1h1V22H26v2Z"/><path class="eb50-10" d="M23,24h1V23H23Z"/><path class="eb50-2" d="M19,24v1h1V24Z"/><path class="eb50-2" d="M20,26h1V25H20Z"/></svg>