<svg xmlns="http://www.w3.org/2000/svg" viewBox="0 0 29 33"><defs><style>polygon,rect,path{shape-rendering:crispedges;}.ab204-1{fill:#d14646;}.ab204-2{fill:#000000;}.ab204-3{fill:#72dd40;}.ab204-4{fill:#6d3e35;}.ab204-5{fill:#45ba00;}.ab204-6{fill:#ffffff;}.ab204-7{fill:#8e703c;}.ab204-8{fill:#9b8100;}.ab204-9{fill:#a06415;}.ab204-10{fill:#dfdfdf;}.ab204-11{fill:#a89969;}</style></defs><path class="ab204-1" d="M0,33H6V27H7V26H8V25h2V24h1V23h1V22H9V21H8V20H7V19H8V13H7V12H5V11H7v1H9V10h1V8h1V7h2V8h3V7h2V8h1V7h1V6h2V8H21V9H20v3h2V11h2v1H22v1H21v6h1v1H21v1H20v1H19V21H18v1H17v1h1v1h1v1h2v1h1v1h1v6h6V0H0Z"/><path class="ab204-2" d="M23,27H22v6h1V27Z"/><path class="ab204-3" d="M21,28v2h1V27H21Z"/><path class="ab204-3" d="M21,31v2h1V31Z"/><rect class="ab204-2" x="21" y="26" width="1" height="1"/><path class="ab204-2" d="M21,30V27H20v6h1V30Z"/><path class="ab204-3" d="M20,32V26H19V25H18v1H17v1H16V25H15v2H14V25H13v2H12V26H11V25H10v1H9v6h1v1h4V32h1v1h4V32Zm-9-3H10V28h1Zm2,2H12V30h1Zm2,0H14V30h1Zm0-2H14V28h1Zm2,2H16V30h1Zm1-2V28h1v1Z"/><path class="ab204-2" d="M20,26h1V25H19v1Z"/><rect class="ab204-3" x="16" y="24" width="1" height="1"/><rect class="ab204-2" x="15" y="24" width="1" height="1"/><rect class="ab204-2" x="14" y="32" width="1" height="1"/><rect class="ab204-2" x="14" y="30" width="1" height="1"/><rect class="ab204-2" x="14" y="28" width="1" height="1"/><path class="ab204-2" d="M14,26v1h1V25H14Z"/><rect class="ab204-2" x="13" y="24" width="1" height="1"/><path class="ab204-4" d="M16,24V23H13v1h1v1h1V24Z"/><rect class="ab204-3" x="12" y="24" width="1" height="1"/><path class="ab204-2" d="M11,26h2V25H12V24h1V23h3v1h1v1H16v1h2V25h1V24H18V23H17V21H16v1H13V21H12v2H11v1H10v1h1Z"/><path class="ab204-2" d="M10,26V25H8v1h2Z"/><path class="ab204-2" d="M9,31V27H8v6H9V31Z"/><path class="ab204-3" d="M7,31v2H8V31Z"/><path class="ab204-3" d="M7,30H8V27H7v3Z"/><rect class="ab204-2" x="7" y="26" width="1" height="1"/><path class="ab204-2" d="M7,30V27H6v6H7V30Z"/><rect class="ab204-5" x="10" y="28" width="1" height="1"/><rect class="ab204-5" x="12" y="30" width="1" height="1"/><path class="ab204-5" d="M12,27h1V26H12Z"/><rect class="ab204-5" x="16" y="30" width="1" height="1"/><rect class="ab204-5" x="18" y="28" width="1" height="1"/><path class="ab204-5" d="M16,27h1V26H16Z"/><path class="ab204-5" d="M9,27V26H8v1Z"/><path class="ab204-5" d="M19,32v1h1V32Z"/><path class="ab204-5" d="M9,32v1h1V32Z"/><path class="ab204-5" d="M7,31H8V30H7Z"/><path class="ab204-5" d="M21,31h1V30H21Z"/><path class="ab204-5" d="M20,27h1V26H20Z"/><path class="ab204-2" d="M20,16h1V15H20Z"/><rect class="ab204-2" x="19" y="14" width="1" height="1"/><rect class="ab204-4" x="9" y="15" width="1" height="1"/><path class="ab204-4" d="M12,15H11v1h2V15Z"/><rect class="ab204-4" x="17" y="13" width="1" height="1"/><path class="ab204-4" d="M18,20V19h1V16h1V15H16V13H13v1h1v2h1v1H14V16H13v1H11v3h1v1h1v1h3V21h1V20Zm-2,0H13V19H12V18h1v1h3Z"/><rect class="ab204-4" x="10" y="16" width="1" height="1"/><path class="ab204-2" d="M19,17v2h1V16H19Z"/><rect class="ab204-2" x="18" y="19" width="1" height="1"/><rect class="ab204-2" x="17" y="20" width="1" height="1"/><rect class="ab204-2" x="11" y="20" width="1" height="1"/><rect class="ab204-2" x="9" y="14" width="1" height="1"/><path class="ab204-2" d="M9,16v3h1V16Z"/><path class="ab204-2" d="M9,15H8v1H9Z"/><rect class="ab204-2" x="14" y="16" width="1" height="1"/><rect class="ab204-6" x="12" y="14" width="1" height="1"/><path class="ab204-6" d="M19,15V14H18v1Z"/><path class="ab204-6" d="M16,14v1h1V14Z"/><rect class="ab204-2" x="11" y="14" width="1" height="1"/><path class="ab204-2" d="M17,15h1V14H17Z"/><path class="ab204-7" d="M17,14V13H16v1Z"/><rect class="ab204-2" x="13" y="19" width="3" height="1"/><rect class="ab204-2" x="12" y="18" width="1" height="1"/><path class="ab204-8" d="M20,17v2H19v1H18v1h1v1h1V21h1V20h1V19H21V16H20Z"/><path class="ab204-8" d="M9,14h2V13H8v2H9Z"/><path class="ab204-8" d="M18,13v1h2v1h1V13H18Z"/><path class="ab204-8" d="M10,19H9V16H8v3H7v1H8v1H9v1h1V19Z"/><path class="ab204-8" d="M11,21v1h1V21Z"/><path class="ab204-8" d="M17,22h1V21H17Z"/><path class="ab204-9" d="M13,16h1V14H13v2Z"/><path class="ab204-9" d="M13,14V13H11v1h2Z"/><path class="ab204-9" d="M13,16H11v1h2Z"/><path class="ab204-9" d="M10,16h1V14H10v2Z"/><path class="ab204-9" d="M11,20V17H10v5h1V20Z"/><path class="ab204-2" d="M24,11H22v1h2Z"/><path class="ab204-10" d="M21,8h1V7H21Z"/><path class="ab204-2" d="M11,13H22V12H20V11H19v1H10V11H9v1H7v1h4Z"/><rect class="ab204-10" x="20" y="8" width="1" height="1"/><path class="ab204-11" d="M19,11h1V10H19Z"/><path class="ab204-6" d="M18,11h1V10h1V8h1V7h1V6H20V7H19V8H18v3Z"/><path class="ab204-11" d="M17,11H10v1h9V11H17Z"/><path class="ab204-2" d="M11,11h7V7H16V8H13V7H11V8H10v3Z"/><path class="ab204-11" d="M10,10H9v1h1Z"/><path class="ab204-2" d="M6,11H5v1H7V11Z"/></svg>