<svg xmlns="http://www.w3.org/2000/svg" viewBox="0 0 29 33"><defs><style>polygon,rect,path{shape-rendering:crispedges;}.ta184-1{fill:#397d98;}.ta184-2{fill:#000000;}.ta184-3{fill:#00af68;}.ta184-4{fill:#e8b795;}.ta184-5{fill:#ffffff;}.ta184-6{fill:#ffffff;}.ta184-7{fill:#663434;}.ta184-8{fill:#663434;}.ta184-9{fill:#d5eae6;}.ta184-10{fill:#d7ede9;}.ta184-11{fill:#d1e6db;}.ta184-12{fill:#e8b100;}.ta184-13{fill:#d39200;}</style></defs><path class="ta184-1" d="M29,0H0V7H0V33H6V27H7V26H8V25h2V24h1V23H10V22H9V21H8V20H7V11H8V10H9V9h1V8h1V7h7V8h1V9h1v1h1v1h1v9H21v1H20v1H19v1H18v1h2V23h3v1h1v6H23v3h6V7h0V0Z"/><path class="ta184-2" d="M7,27H6v6H7V27Z"/><path class="ta184-3" d="M8,27H7v6H8V27Z"/><rect class="ta184-2" x="7" y="26" width="1" height="1"/><path class="ta184-2" d="M9,27H8v6H9V27Z"/><path class="ta184-3" d="M18,29H17v2h1V30h1V29Z"/><path class="ta184-3" d="M20,30H19v2H16V25H13v3h2v4H12V25h1V24H11v1H10v1H8v1H9v6H20V30Zm-9-1v3H10V28h1Z"/><path class="ta184-3" d="M16,25h1v3h2V25H18V24H16Z"/><path class="ta184-2" d="M10,25H8v1h2Z"/><rect class="ta184-2" x="10" y="24" width="1" height="1"/><path class="ta184-2" d="M13,23H11v1h2Z"/><path class="ta184-2" d="M15,24H13v1h3V24Z"/><path class="ta184-4" d="M16,24V23H13v1h3Z"/><path class="ta184-2" d="M16,24h2V23H16Z"/><path class="ta184-2" d="M19,25V24H18v1Z"/><path class="ta184-2" d="M20,31v2h1V31Z"/><path class="ta184-3" d="M21,31v2h1V31Z"/><path class="ta184-2" d="M22,31v2h1V31Z"/><path class="ta184-3" d="M14,31V29H13v2Z"/><path class="ta184-5" d="M14,29v2H13V30H12v2h3V28H13v1Z"/><path class="ta184-5" d="M10,29v3h1V28H10Z"/><path class="ta184-5" d="M18,29h1V28H17v1Z"/><path class="ta184-5" d="M18,31H17V30H16v2h3V30H18Z"/><path class="ta184-2" d="M12,26v4h1V25H12Z"/><path class="ta184-2" d="M17,29V25H16v5h1Z"/><rect class="ta184-4" x="10" y="12" width="1" height="1"/><path class="ta184-4" d="M13,12v1H11v1h2v1H10v3h1v1h1V18h2v1h1V18h2v1h1V18h1V15H16V13h1V11H12v1Zm1,4h1v1H14Z"/><rect class="ta184-4" x="15" y="20" width="1" height="1"/><polygon class="ta184-4" points="18 14 19 14 19 13 17 13 17 14 18 14"/><rect class="ta184-4" x="13" y="20" width="1" height="1"/><rect class="ta184-2" x="14" y="16" width="1" height="1"/><path class="ta184-6" d="M13,15V14H12v1Z"/><path class="ta184-6" d="M11,14H10v1h1Z"/><path class="ta184-6" d="M18,14v1h1V14Z"/><path class="ta184-6" d="M16,14v1h1V14Z"/><path class="ta184-2" d="M12,15V14H11v1Z"/><path class="ta184-2" d="M17,14v1h1V14Z"/><rect class="ta184-7" x="10" y="13" width="1" height="1"/><path class="ta184-7" d="M13,12H11v1h2Z"/><path class="ta184-7" d="M17,13H16v1h1Z"/><path class="ta184-7" d="M17,12v1h2V12H17Z"/><path class="ta184-3" d="M9,19V12h1V11h2V10h5v1h2v1h1v8h1V11H20V10H19V9H18V8H11V9H10v1H9v1H8v9H9Z"/><rect class="ta184-3" x="18" y="21" width="1" height="1"/><rect class="ta184-3" x="19" y="20" width="1" height="1"/><rect class="ta184-3" x="10" y="21" width="1" height="1"/><rect class="ta184-3" x="9" y="20" width="1" height="1"/><path class="ta184-3" d="M17,22H16v1h2V22Z"/><path class="ta184-3" d="M13,22H11v1h2Z"/><rect class="ta184-2" x="10" y="8" width="1" height="1"/><rect class="ta184-2" x="9" y="9" width="1" height="1"/><rect class="ta184-2" x="8" y="10" width="1" height="1"/><path class="ta184-2" d="M8,11H7v9H8V11Z"/><rect class="ta184-2" x="8" y="20" width="1" height="1"/><rect class="ta184-2" x="9" y="21" width="1" height="1"/><rect class="ta184-2" x="10" y="22" width="1" height="1"/><rect class="ta184-2" x="18" y="22" width="1" height="1"/><rect class="ta184-2" x="19" y="21" width="1" height="1"/><rect class="ta184-2" x="20" y="20" width="1" height="1"/><path class="ta184-2" d="M21,20h1V11H21v9Z"/><rect class="ta184-2" x="20" y="10" width="1" height="1"/><rect class="ta184-2" x="19" y="9" width="1" height="1"/><rect class="ta184-2" x="18" y="8" width="1" height="1"/><path class="ta184-2" d="M18,8V7H11V8h7Z"/><path class="ta184-2" d="M12,12V11H10v1h2Z"/><path class="ta184-2" d="M10,15V12H9v4h1Z"/><path class="ta184-2" d="M19,14v2h1V12H19v2Z"/><path class="ta184-2" d="M18,12h1V11H17v1Z"/><path class="ta184-2" d="M17,11V10H12v1h5Z"/><path class="ta184-8" d="M14,18H13v1h1Z"/><path class="ta184-8" d="M16,23V22h2V21h1V20h1V16H19v2H18v1H17V18H15v1h1v2H15V20H14v1H13V19H11V18H10V16H9v4h1v1h1v1h2v1h3Z"/><path class="ta184-2" d="M13,19v1h3V19H13Z"/><path class="ta184-2" d="M12,18v1h1V18Z"/><polygon class="ta184-9" points="20.667 30 20 30 20 31 21 31 21 30 20.667 30"/><rect class="ta184-10" x="21" y="30" width="1" height="1"/><path class="ta184-9" d="M22,30v1h1V30H22Z"/><path class="ta184-11" d="M20,25h2V24H19v1Z"/><path class="ta184-12" d="M23,26H22V25H20v5h3V26Z"/><path class="ta184-13" d="M23,26v4h1V25H23Z"/><path class="ta184-13" d="M20,25H19v5h1V25Z"/><path class="ta184-6" d="M22,25v1h1V25h1V24H23V23H20v1h2Z"/></svg>