<svg xmlns="http://www.w3.org/2000/svg" viewBox="0 0 29 33"><defs><style>polygon,rect,path{shape-rendering:crispedges;}.fb168-1{fill:#6b4f99;}.fb168-2{fill:#000000;}.fb168-3{fill:#663434;}.fb168-4{fill:#ffffff;}.fb168-5{fill:#e8b795;}.fb168-6{fill:#90a2a3;}.fb168-7{fill:#ffffff;}.fb168-8{fill:#5e362f;}.fb168-9{fill:#5e362f;}.fb168-10{fill:#68aaad;}.fb168-11{fill:#455054;}.fb168-12{fill:#ff1f4a;}.fb168-13{fill:#002b4f;}</style></defs><rect class="fb168-1" x="8" y="24" width="1" height="1"/><path class="fb168-1" d="M0,33H8V32H6V31H5V22H6V21H7V20H5v1H2V17H5V16H8V15H9V11h1V10h1V7h1V6H11V5h2V6h2V7h1V9h2v1h1v1h1v4h1v1H20v3H19v1H18v1H17v1h1v1h1v1h1v1h1v1h1v1h1v6h6V0H0Z"/><path class="fb168-1" d="M8,18v4H9v2h1V23h1V22h1V21H11V20H10V19H9V16H8v2Z"/><path class="fb168-2" d="M23,27H22v6h1V27Z"/><path class="fb168-3" d="M22,27H21v6h1V27Z"/><path class="fb168-2" d="M21,27h1V26H21V25H20v2H17v1h2v1h1v4h1V27Z"/><rect class="fb168-2" x="19" y="24" width="1" height="1"/><path class="fb168-3" d="M20,29H19v1H18v1H17v1H16v1h4V29Z"/><rect class="fb168-2" x="18" y="23" width="1" height="1"/><path class="fb168-3" d="M18,25H17v1H16v5h1V30h1V29h1V28H17V27h2V26h1V25H19V24H18Z"/><rect class="fb168-2" x="18" y="29" width="1" height="1"/><rect class="fb168-3" x="17" y="23" width="1" height="1"/><rect class="fb168-2" x="17" y="24" width="1" height="1"/><rect class="fb168-2" x="17" y="30" width="1" height="1"/><rect class="fb168-2" x="16" y="25" width="1" height="1"/><path class="fb168-2" d="M17,32V31H16V26H13v5H12v1h1v1h1V27h1v6h1V32Z"/><path class="fb168-4" d="M15,27H14v6h1V27Z"/><path class="fb168-2" d="M12,24h1V22H11v1h1Z"/><path class="fb168-5" d="M17,25V24H16V23H13v1H12v1h1v1h3V25Z"/><rect class="fb168-2" x="12" y="25" width="1" height="1"/><path class="fb168-3" d="M12,32V31H11V30H10V29H9v4h4V32Z"/><rect class="fb168-3" x="11" y="23" width="1" height="1"/><rect class="fb168-2" x="11" y="24" width="1" height="1"/><rect class="fb168-2" x="11" y="30" width="1" height="1"/><rect class="fb168-2" x="10" y="23" width="1" height="1"/><rect class="fb168-2" x="10" y="29" width="1" height="1"/><rect class="fb168-2" x="9" y="24" width="1" height="1"/><path class="fb168-3" d="M12,25H11V24H10v1H9v1h1v1h2v1H10v1h1v1h1v1h1V26H12Z"/><path class="fb168-2" d="M9,29h1V28h2V27H9V25H8V24H7v7H6v1H8v1H9V29Z"/><path class="fb168-3" d="M7,30V24H6v7H7Z"/><path class="fb168-2" d="M6,24V22H5v9H6V24Z"/><path class="fb168-6" d="M9,26v1h1V26Z"/><path class="fb168-6" d="M19,27h1V26H19Z"/><rect class="fb168-2" x="20" y="15" width="1" height="1"/><path class="fb168-2" d="M19,14v1h1V11H19v3Z"/><path class="fb168-5" d="M10,16v2h1v1h1v1h1V19h3V18h1v1h1V18h1V16h1V15H16V14h2V13H16V12h2v1h1V11H18V10H16v1H14V10H11v1H10v2h1V12h2v1H11v1h2v1H9v1Zm4,0h1v1H14Z"/><path class="fb168-5" d="M14,21h2V20H13v1Z"/><rect class="fb168-5" x="16" y="19" width="1" height="1"/><rect class="fb168-2" x="18" y="10" width="1" height="1"/><path class="fb168-2" d="M16,23v1h1V23h1V22H16Z"/><path class="fb168-2" d="M17,10h1V9H16v1Z"/><path class="fb168-2" d="M13,9H11v1h2Z"/><rect class="fb168-2" x="10" y="10" width="1" height="1"/><rect class="fb168-2" x="8" y="15" width="1" height="1"/><rect class="fb168-2" x="14" y="16" width="1" height="1"/><path class="fb168-7" d="M18,14v1h1V14Z"/><path class="fb168-7" d="M13,15V14H12v1Z"/><path class="fb168-2" d="M17,14H16v1h2V14Z"/><path class="fb168-2" d="M12,15V14H10V11H9v4h3Z"/><path class="fb168-8" d="M19,13H18v1h1Z"/><rect class="fb168-8" x="16" y="12" width="2" height="1"/><path class="fb168-8" d="M11,14V13H10v1Z"/><rect class="fb168-8" x="11" y="12" width="2" height="1"/><path class="fb168-9" d="M19,17v1H18v1H17v1H16v1H13V20H12V19H11V18H10V16H9v3h1v1h1v1h1v1h1v1h3V22h1V21h1V20h1V19h1V16H19Z"/><rect class="fb168-2" x="13" y="19" width="3" height="1"/><rect class="fb168-2" x="16" y="18" width="1" height="1"/><path class="fb168-10" d="M13,10h1v1h2V7H15V6H13V5H11V6h1V7H11V9h2Z"/><path class="fb168-5" d="M7,24H8V22H6v2Z"/><path class="fb168-11" d="M8,22V20H7v2Z"/><path class="fb168-2" d="M7,21H6v1H7Z"/><path class="fb168-2" d="M9,22H8v2H9Z"/><path class="fb168-12" d="M5,17H2v1H5Z"/><path class="fb168-12" d="M8,16H5v1H8Z"/><path class="fb168-12" d="M2,21H5V20H2Z"/><path class="fb168-12" d="M8,19H5v1H8Z"/><path class="fb168-7" d="M5,19V18H2v1H5Z"/><path class="fb168-7" d="M6,18H8V17H5v1Z"/><path class="fb168-13" d="M6,18H5v1H8V18Z"/><path class="fb168-13" d="M4,19H2v1H5V19Z"/><rect class="fb168-10" x="10" y="9" width="1" height="1"></rect></svg>