<svg xmlns="http://www.w3.org/2000/svg" viewBox="0 0 29 33"><defs><style>polygon,rect,path{shape-rendering:crispedges;}.ma129-1{fill:#397d98;}.ma129-2{fill:#000000;}.ma129-3{fill:#ff791f;}.ma129-4{fill:#004a77;}.ma129-5{fill:#c18d59;}.ma129-6{fill:#b23b00;}.ma129-7{fill:#ffffff;}.ma129-8{fill:#5e362f;}.ma129-9{fill:#5e362f;}.ma129-10{fill:#ff1f4a;}.ma129-11{fill:#6d5800;}.ma129-12{fill:#fad000;}.ma129-13{fill:#ea1500;}</style></defs><path class="ma129-1" d="M6,32V27H7V26H8V25h2V24h2V22H11V21H10V20H9V18H8V12H9V11h1V10h1V9h7v1h1v1h1v2h1v5H20v2H19v1H18v1H17v2h2v1h2V23h1V22H21V19h1v1h1V18h1V17h3v5H26v1H25v1H24v7H23v1H21v1h8V0H0V33H6Z"/><path class="ma129-2" d="M23,25v6h1V24H23Z"/><path class="ma129-2" d="M7,30V27H6v6H7V30Z"/><path class="ma129-3" d="M8,29V27H7v2Z"/><path class="ma129-3" d="M7,31v2H8V31Z"/><rect class="ma129-2" x="7" y="26" width="1" height="1"/><path class="ma129-2" d="M9,31V27H8v6H9V31Z"/><path class="ma129-3" d="M10,31V30H9v2h1v1h1V31Z"/><path class="ma129-3" d="M10,26H9v2h1v1h1V27H10Z"/><path class="ma129-2" d="M10,26V25H8v1h2Z"/><path class="ma129-2" d="M12,26h1V25H12V24H10v1h1v8h1V26Z"/><path class="ma129-4" d="M17,26H16v1H13V26H12v7h5V26Z"/><path class="ma129-2" d="M13,23V22H12v2h1Z"/><path class="ma129-2" d="M13,26v1h3V26H13Z"/><path class="ma129-5" d="M13,25v1h3V25h1V24H16V23H13v1H12v1Z"/><path class="ma129-2" d="M18,31V25h1V24H17v1H16v1h1v7h1V31Z"/><path class="ma129-3" d="M19,31V30H18v2h1v1h1V31Z"/><path class="ma129-3" d="M18,26v2h1v1h1V27H19V25H18Z"/><path class="ma129-2" d="M22,32h1V31H22V23H21v2H19v1h2v1H20v6h1V32Z"/><path class="ma129-3" d="M23,28V27H22v2h1Z"/><path class="ma129-3" d="M23,24H22v1h1Z"/><path class="ma129-6" d="M19,28H18v2h1v1h1V29H19Z"/><path class="ma129-6" d="M22,29v2h1V29Z"/><path class="ma129-6" d="M20,27h1V26H19v1Z"/><path class="ma129-6" d="M23,26V25H22v2h1Z"/><path class="ma129-6" d="M18,32v1h1V32Z"/><path class="ma129-6" d="M10,27h1V25H10v2Z"/><path class="ma129-6" d="M10,28H9v2h1v1h1V29H10Z"/><path class="ma129-6" d="M9,32v1h1V32Z"/><path class="ma129-6" d="M9,27V26H8v1Z"/><path class="ma129-6" d="M7,30v1H8V29H7Z"/><rect class="ma129-5" x="19" y="15" width="1" height="1"/><path class="ma129-5" d="M18,14V13H16v1h2Z"/><path class="ma129-5" d="M18,15H17v2H16V15H15V11H14v1H13v2h1v2h1v1H14V16H13V15H11v4h1V18h2v1h1V18h2v1h1V15Z"/><rect class="ma129-5" x="11" y="13" width="1" height="1"/><rect class="ma129-5" x="11" y="11" width="1" height="1"/><rect class="ma129-5" x="13" y="20" width="1" height="1"/><rect class="ma129-5" x="15" y="20" width="1" height="1"/><rect class="ma129-5" x="9" y="15" width="1" height="1"/><path class="ma129-2" d="M16,23v1h1V22H16Z"/><rect class="ma129-2" x="9" y="14" width="1" height="1"/><rect class="ma129-2" x="14" y="16" width="1" height="1"/><path class="ma129-7" d="M13,15V14H12v1Z"/><path class="ma129-7" d="M17,14H16v1h1Z"/><path class="ma129-2" d="M12,14H11v1h1Z"/><path class="ma129-2" d="M17,15h1V14H17Z"/><rect class="ma129-8" x="11" y="12" width="1" height="1"/><path class="ma129-8" d="M18,12H16v1h2Z"/><path class="ma129-9" d="M14,18H13v1h1Z"/><path class="ma129-9" d="M19,16v2h1V16Z"/><path class="ma129-9" d="M13,23h3V22h2V21h1V18H18v1H17V18H15v1h1v2H15V20H14v1H13V19H11V18H10v3h1v1h2Z"/><path class="ma129-9" d="M10,17V16H9v2h1Z"/><path class="ma129-2" d="M13,19v1h3V19H13Z"/><path class="ma129-2" d="M12,18v1h1V18Z"/><path class="ma129-10" d="M9,15V14h1v4h1V11h1v3h1V12h1V11h1v4h1V12h2v6h1V15h1v3h1V13H20V11H19V10H18V9H11v1H10v1H9v1H8v6H9V15Z"/><path class="ma129-10" d="M9,18v2h1V18Z"/><path class="ma129-10" d="M13,16h1V14H13v2Z"/><path class="ma129-10" d="M17,17V15H16v2Z"/><path class="ma129-10" d="M19,19v1h1V18H19Z"/><path class="ma129-11" d="M21,21v1h1V21Z"/><path class="ma129-12" d="M24,21h1v1H24v1h2V22h1V20H25V19H24V18H23v2H22V19H21v2h1v1h2Z"/><path class="ma129-5" d="M23,24h1V23H22v1Z"/><path class="ma129-11" d="M24,22H22v1h2Z"/><path class="ma129-2" d="M24,24h1V23H24Z"/><rect class="ma129-11" x="24" y="21" width="1" height="1"/><rect class="ma129-2" x="24" y="18" width="1" height="1"/><path class="ma129-13" d="M25,19v1h2V19H25Z"/><path class="ma129-12" d="M25,19h1V18h1V17H24v1h1Z"/><path class="ma129-2" d="M26,19h1V18H26Z"/></svg>