<svg xmlns="http://www.w3.org/2000/svg" viewBox="0 0 29 33"><defs><style>polygon,rect,path{shape-rendering:crispedges;}.wa221-1{fill:#29834f;}.wa221-2{fill:#ff5e17;}.wa221-3{fill:#000000;}.wa221-4{fill:#e8b795;}.wa221-5{fill:#ffffff;}.wa221-6{fill:#8e4717;}.wa221-7{fill:#0068ff;}</style></defs><path class="wa221-1" d="M0,33H6V27H7V26H8V25h2V22h1V20H10V19H9V16H8V15H9V11h1V10h1V9h7v1h2v5h1v1H20v3H19v1H18v2h1v3h2v1h1v1h1v6h6V0H0Z"/><path class="wa221-2" d="M17,23v1H16v1H15v2H14v4h6V27h1V26H19V25H18V22H17Z"/><path class="wa221-2" d="M22,27H21v6h1V27Z"/><path class="wa221-2" d="M19,32H9v1H20V32Z"/><path class="wa221-2" d="M8,27H7v6H8V27Z"/><path class="wa221-2" d="M9,27v4h4V27h1V25H13V24H12V22H11v3H10v1H8v1Z"/><path class="wa221-3" d="M23,27H22v6h1V27Z"/><rect class="wa221-3" x="21" y="26" width="1" height="1"/><path class="wa221-3" d="M21,27H20v4H14V27H13v4H9V27H8v6H9V32H20v1h1V27Z"/><path class="wa221-3" d="M20,26h1V25H19v1Z"/><path class="wa221-3" d="M18,25h1V22H18v3Z"/><path class="wa221-3" d="M17,22h1V21H17Z"/><path class="wa221-3" d="M17,24V22H16v2Z"/><rect class="wa221-3" x="15" y="24" width="1" height="1"/><path class="wa221-3" d="M15,26V25H14v2h1Z"/><rect class="wa221-3" x="13" y="24" width="1" height="1"/><path class="wa221-4" d="M15,24h1V23H13v1h1v1h1Z"/><path class="wa221-3" d="M12,21H11v1h1Z"/><path class="wa221-3" d="M11,24V22H10v3h1Z"/><path class="wa221-3" d="M10,25H8v1h2Z"/><rect class="wa221-3" x="7" y="26" width="1" height="1"/><path class="wa221-3" d="M7,27H6v6H7V27Z"/><rect class="wa221-3" x="20" y="15" width="1" height="1"/><rect class="wa221-4" x="13" y="20" width="1" height="1"/><rect class="wa221-4" x="15" y="20" width="1" height="1"/><rect class="wa221-4" x="9" y="15" width="1" height="1"/><rect class="wa221-4" x="18" y="12" width="1" height="1"/><path class="wa221-4" d="M11,13V12h2v1H11v1h3V13h2V12h2V10H11v1H10v2Z"/><path class="wa221-4" d="M18,15H16V14H14v2h1v1H14V16H13v1H11V16H10v2h1v1h1V18h2v1h1V18h2v1h1V18h1V16h1V15H18Z"/><polygon class="wa221-4" points="17 14 18 14 18 13 16 13 16 14 17 14"/><path class="wa221-3" d="M19,17h1V16H19Z"/><path class="wa221-3" d="M13,22H12v2h1V22Z"/><path class="wa221-3" d="M18,10V9H11v1h7Z"/><rect class="wa221-3" x="10" y="10" width="1" height="1"/><path class="wa221-3" d="M10,16H9v1h1Z"/><rect class="wa221-3" x="8" y="15" width="1" height="1"/><rect class="wa221-3" x="14" y="16" width="1" height="1"/><path class="wa221-5" d="M18,15h1V14H18Z"/><path class="wa221-5" d="M16,14v1h1V14Z"/><path class="wa221-3" d="M17,14v1h1V14Z"/><rect class="wa221-6" x="18" y="13" width="1" height="1"/><rect class="wa221-6" x="10" y="13" width="1" height="1"/><rect class="wa221-6" x="11" y="12" width="2" height="1"/><path class="wa221-7" d="M14,18H13v1h1Z"/><path class="wa221-7" d="M12,22h1v1h3V22h1V21h1V20h1V19h1V17H19v1H18v1H17V18H15v1h1v2H15V20H14v1H13V19H11V18H10V17H9v2h1v1h1v1h1Z"/><path class="wa221-3" d="M13,19v1h3V19H13Z"/><path class="wa221-3" d="M12,18v1h1V18Z"/><path class="wa221-3" d="M10,16h1v1h2V16h1V14H10V11H9v4h1Z"/><rect class="wa221-3" x="14" y="13" width="2" height="1"/><rect class="wa221-3" x="16" y="12" width="2" height="1"/><path class="wa221-3" d="M19,12v3h1V10H18v2Z"/></svg>