<svg xmlns="http://www.w3.org/2000/svg" viewBox="0 0 29 33"><defs><style>polygon,rect,path{shape-rendering:crispedges;}.sa185-1{fill:#d14646;}.sa185-2{fill:#000000;}.sa185-3{fill:#f9e100;}.sa185-4{fill:#a56e49;}.sa185-5{fill:#6f7032;}.sa185-6{fill:#ffffff;}.sa185-7{fill:#6f7032;}.sa185-8{fill:#ff1f4a;}.sa185-9{fill:#10bcff;}</style></defs><path class="sa185-1" d="M29,0H0V7H0V33H6V26H5V24H8v1h2V24h1V23H10V22H9V21H8V20H7V11H8V10H9V9h1V8h1V7h7V8h1V9h1v1h1v1h1v9H21v1H20v1H19v1H18v1h1v1h2V24h3v2H23v7h6V7h0V0Z"/><path class="sa185-1" d="M7,27H7v6H7V27Z"/><path class="sa185-2" d="M7,27V26H6v7H7V27Z"/><path class="sa185-2" d="M9,26h1V25H8v2H8v6H9V26Z"/><path class="sa185-3" d="M20,26H19V25H18V24H16v1h1v5H16V25H13v5H12V25h1V24H11v1H10v1H9v7H20V26Z"/><rect class="sa185-2" x="10" y="24" width="1" height="1"/><path class="sa185-2" d="M13,23H11v1h2Z"/><path class="sa185-2" d="M13,24v1h3V24H13Z"/><path class="sa185-4" d="M15,23H13v1h3V23Z"/><path class="sa185-2" d="M16,24h2V23H16Z"/><rect class="sa185-2" x="18" y="24" width="1" height="1"/><path class="sa185-2" d="M21,27V25H19v1h1v7h1V27Z"/><path class="sa185-2" d="M23,26H22v7h1V26Z"/><path class="sa185-2" d="M12,26v4h1V25H12Z"/><path class="sa185-2" d="M16,30h1V25H16v5Z"/><rect class="sa185-4" x="15" y="20" width="1" height="1"/><rect class="sa185-4" x="13" y="20" width="1" height="1"/><rect class="sa185-4" x="12" y="19" width="1" height="1"/><rect class="sa185-4" x="16" y="19" width="1" height="1"/><path class="sa185-4" d="M12,19V18h5v1h2V12H17V11H12v1H10v7h2Zm-1-5h1V13h1V12h3v1h1v1h1v1H16v1H15v1H14V16H13V15H11Z"/><path class="sa185-5" d="M18,15V14H17v1Z"/><rect class="sa185-5" x="16" y="13" width="1" height="1"/><rect class="sa185-2" x="14" y="14" width="1" height="1"/><path class="sa185-6" d="M13,15v1h3V15h1V14H16V13H13v1H12v1Zm1-1h1v1H14Z"/><path class="sa185-5" d="M16,13V12H13v1h3Z"/><rect class="sa185-5" x="12" y="13" width="1" height="1"/><rect class="sa185-5" x="11" y="14" width="1" height="1"/><path class="sa185-2" d="M14,17h1V16H14Z"/><path class="sa185-3" d="M13,22H12V21H11V20H10V19H9V12h1V11h2V10h5v1h2v1h1v7H19v1H18v1H17v1H16v1h2V22h1V21h1V20h1V11H20V10H19V9H18V8H11V9H10v1H9v1H8v9H9v1h1v1h1v1h2Z"/><rect class="sa185-2" x="10" y="8" width="1" height="1"/><rect class="sa185-2" x="9" y="9" width="1" height="1"/><rect class="sa185-2" x="8" y="10" width="1" height="1"/><path class="sa185-2" d="M8,11H7v9H8V11Z"/><rect class="sa185-2" x="8" y="20" width="1" height="1"/><rect class="sa185-2" x="9" y="21" width="1" height="1"/><rect class="sa185-2" x="10" y="22" width="1" height="1"/><rect class="sa185-2" x="18" y="22" width="1" height="1"/><rect class="sa185-2" x="19" y="21" width="1" height="1"/><rect class="sa185-2" x="20" y="20" width="1" height="1"/><path class="sa185-2" d="M21,20h1V11H21v9Z"/><rect class="sa185-2" x="20" y="10" width="1" height="1"/><rect class="sa185-2" x="19" y="9" width="1" height="1"/><rect class="sa185-2" x="18" y="8" width="1" height="1"/><path class="sa185-2" d="M18,8V7H11V8h7Z"/><path class="sa185-2" d="M12,11H10v1h2Z"/><path class="sa185-2" d="M10,12H9v7h1V12Z"/><path class="sa185-2" d="M10,19v1h1V19Z"/><rect class="sa185-2" x="11" y="20" width="1" height="1"/><rect class="sa185-2" x="12" y="21" width="1" height="1"/><path class="sa185-2" d="M16,23V22H13v1h3Z"/><rect class="sa185-2" x="16" y="21" width="1" height="1"/><rect class="sa185-2" x="17" y="20" width="1" height="1"/><path class="sa185-2" d="M18,20h1V19H18Z"/><path class="sa185-2" d="M19,19h1V12H19v7Z"/><path class="sa185-2" d="M18,12h1V11H17v1Z"/><path class="sa185-2" d="M17,11V10H12v1h5Z"/><path class="sa185-7" d="M17,19v1h1V19Z"/><rect class="sa185-7" x="16" y="20" width="1" height="1"/><path class="sa185-7" d="M16,22V21H15V20H14v1H13v1h3Z"/><path class="sa185-7" d="M14,19h3V18H13v1Z"/><rect class="sa185-7" x="12" y="20" width="1" height="1"/><path class="sa185-7" d="M12,19H11v1h1Z"/><path class="sa185-2" d="M16,19H13v1h3Z"/><path class="sa185-2" d="M13,18H12v1h1Z"/><path class="sa185-2" d="M23,26h1V25H23Z"/><path class="sa185-2" d="M22,24H21v1h1Z"/><path class="sa185-8" d="M23,25h1V24H22v1Z"/><path class="sa185-2" d="M8,25V24H7v1Z"/><path class="sa185-2" d="M5,25v1H6V25Z"/><path class="sa185-4" d="M22,27V26h1V25H21v2Z"/><path class="sa185-4" d="M7,27H8V25H6v1H7Z"/><path class="sa185-9" d="M7,25V24H5v1H7Z"/><path class="sa185-3" d="M22,27H21v6h1V27Z"/><path class="sa185-3" d="M8,27H7v6H8V27Z"/></svg>