<svg xmlns="http://www.w3.org/2000/svg" viewBox="0 0 29 33"><defs><style>polygon,rect,path{shape-rendering:crispedges;}.ab212-1{fill:#6b4f99;}.ab212-2{fill:#000000;}.ab212-3{fill:#d8be00;}.ab212-4{fill:#c18d59;}.ab212-5{fill:#00686d;}.ab212-6{fill:#473a35;}.ab212-7{fill:#ffffff;}.ab212-8{fill:#ccc;}.ab212-9{fill:#0068ff;}</style></defs><rect class="ab212-1" x="17" y="20" height="1"/><rect class="ab212-1" x="16" y="21" height="1"/><path class="ab212-1" d="M0,33H6V27H7V26H8V24H6V23H5V21H4V20H3V19H8v1H9V16H8V15H9V10h1V9h1V8h7V9h1v1h1v5h1v1H20v4h1V19h5v1H25v1H24v2H23v1H21v2h1v1h1v6h6V0H0Z"/><rect class="ab212-1" x="18" y="19" height="1"/><polygon class="ab212-1" points="15 17 14 17 14 16 14 16 14 17 15 17 15 17"/><path class="ab212-2" d="M23,27H22v6h1V27Z"/><path class="ab212-3" d="M21,30v1h1V29H21Z"/><path class="ab212-3" d="M21,32v1h1V32Z"/><path class="ab212-3" d="M21,28h1V27H21Z"/><rect class="ab212-2" x="21" y="26" width="1" height="1"/><path class="ab212-2" d="M21,31V27H20v6h1V31Z"/><path class="ab212-3" d="M17,32V31h1V30h1v1h1V29H19V28h1V27h1V26H19v1H18V26H15v1H14V26H11v1H10V26H8v1H9v1h1v1H9v2h1V30h1v1h1v1H11v1h3V32H13V31h1V30h1v1h1v1H15v1h3V32Zm-2-3H13v1H12V29H11V28h1V27h1v1h3V27h1v1h1v1H17v1H16V29Z"/><rect class="ab212-3" x="9" y="32" width="1" height="1"/><path class="ab212-3" d="M19,32v1h1V32Z"/><path class="ab212-2" d="M19,26h2V25H19Z"/><rect class="ab212-3" x="16" y="24" width="1" height="1"/><path class="ab212-2" d="M16,25v1h1V25Z"/><rect class="ab212-2" x="15" y="24" width="1" height="1"/><rect class="ab212-2" x="14" y="32" width="1" height="1"/><rect class="ab212-2" x="14" y="30" width="1" height="1"/><path class="ab212-2" d="M14,28v1h1V28Z"/><path class="ab212-2" d="M14,25v2h1V25Z"/><rect class="ab212-2" x="13" y="24" width="1" height="1"/><path class="ab212-4" d="M16,24V23H13v1h1v1h1V24Z"/><rect class="ab212-3" x="12" y="24" width="1" height="1"/><path class="ab212-2" d="M12,25H11v1h2V25Z"/><path class="ab212-2" d="M13,23h3v1h1V21H16v1H13V21H12v3h1Z"/><path class="ab212-2" d="M10,25H8v1h2Z"/><path class="ab212-2" d="M9,31V27H8v6H9V31Z"/><path class="ab212-3" d="M7,32v1H8V32Z"/><path class="ab212-3" d="M7,30v1H8V29H7Z"/><path class="ab212-3" d="M8,28V27H7v1Z"/><rect class="ab212-2" x="7" y="26" width="1" height="1"/><path class="ab212-2" d="M7,31V27H6v6H7V31Z"/><path class="ab212-5" d="M12,32V31H11V30H10v1H9v1h1v1h1V32Z"/><path class="ab212-5" d="M13,28V27H12v1H11v1h1v1h1V29h1V28Z"/><path class="ab212-5" d="M15,25v1h1V25Z"/><path class="ab212-5" d="M13,25v1h1V25Z"/><path class="ab212-5" d="M17,30V29h1V28H17V27H16v1H15v1h1v1Z"/><path class="ab212-5" d="M18,25v2h1V25Z"/><path class="ab212-5" d="M7,29H8V28H7Z"/><path class="ab212-5" d="M10,29V28H9v1Z"/><path class="ab212-5" d="M21,29h1V28H21Z"/><path class="ab212-5" d="M19,29h1V28H19Z"/><path class="ab212-5" d="M21,32h1V31H21Z"/><path class="ab212-5" d="M7,32H8V31H7Z"/><polygon class="ab212-5" points="16 32 16 31 15 31 14 31 13 31 13 32 14 32 15 32 16 32"/><path class="ab212-5" d="M20,32V31H19V30H18v1H17v1h1v1h1V32Z"/><path class="ab212-4" d="M10,16v3h1v1h1v1h1v1h3V21h1V20h1V19h1V16h0V15H18v1H16V15H15V14H14v1H13v1H11V15H9v1Zm5,4H14V19h1Zm-1-4h1v1H14Z"/><path class="ab212-4" d="M18,12H17V11H15V10H12v1H11v1h2v1h3V12Z"/><rect class="ab212-4" x="10" y="13" width="1" height="1"/><path class="ab212-2" d="M19,16h0v3h1V16Z"/><polygon class="ab212-2" points="19 20 19 19 18 19 18 19 18 20 19 20"/><polygon class="ab212-2" points="18 21 18 20 18 20 17 20 17 20 17 21 18 21"/><path class="ab212-2" d="M15,10Z"/><rect class="ab212-2" x="11" y="20" width="1" height="1"/><rect class="ab212-2" x="11" y="11"/><polygon class="ab212-2" points="10 19 10 20 11 20 11 19 10 19"/><path class="ab212-2" d="M10,18V16H9v3h1Z"/><polygon class="ab212-2" points="15 17 15 17 15 16 14 16 14 16 14 17 15 17"/><rect class="ab212-6" x="10" y="13" width="1"/><path class="ab212-6" d="M11,12v1h2V12Z"/><path class="ab212-6" d="M16,12v1h2V12Z"/><rect class="ab212-2" x="14" y="19" width="1" height="1"/><path class="ab212-7" d="M9,22V20H8V19H3v1H7v1H5v1H8v1H6v1H9Z"/><path class="ab212-8" d="M8,22H5v1H8Z"/><path class="ab212-8" d="M7,20H4v1H7Z"/><path class="ab212-8" d="M22,20v1h3V20H22Z"/><path class="ab212-8" d="M21,22v1h3V22H21Z"/><path class="ab212-7" d="M19,22v2h4V23H21V22h3V21H22V20h4V19H21v1H20v2Z"/><path class="ab212-8" d="M10,24H8v1h2Z"/><path class="ab212-8" d="M19,25h2V24H19Z"/><path class="ab212-9" d="M9,24h1v3h1V25h1V21H11V20H10V19H9v5Z"/><polygon class="ab212-9" points="19 15 19 16 19 16 20 16 20 16 20 16 20 15 19 15"/><path class="ab212-9" d="M10,13h1V11h1V10h3v1h2v1h1v2h2V10H19V9H18V8H11V9H10v1H9v4h1Z"/><path class="ab212-9" d="M19,20H18v1H17v5h1V25h1V22h1V19H19Z"/><path class="ab212-2" d="M10,15h1v1h2V15h1V14h1v1h1v1h2V15h2v1h1V15H20V14H18V13H11v1H9v1H8v1H9V15Z"/></svg>