<svg xmlns="http://www.w3.org/2000/svg" viewBox="0 0 29 33"><defs><style>polygon,rect,path{shape-rendering:crispedges;}.ma175-1{fill:#d4a122;}.ma175-2{fill:#000000;}.ma175-3{fill:#841f00;}.ma175-4{fill:#4922aa;}.ma175-5{fill:#e8b795;}.ma175-6{fill:#db5800;}.ma175-7{fill:#ffffff;}.ma175-8{fill:#473a35;}.ma175-9{fill:#473a35;}.ma175-10{fill:#cc3232;}.ma175-11{fill:#c9936f;}.ma175-12{fill:#e8b592;}.ma175-13{fill:#004b68;}.ma175-14{fill:#fad000;}</style></defs><rect class="ma175-1" x="16" y="8" width="1" height="1"/><path class="ma175-1" d="M20,23V19H19v1H18v1H17v3h2v1h2V23Z"/><path class="ma175-1" d="M0,33H6V27H7V26H8V25h2V24h2V21H11V20H10V19H9V16H8V15H9V10h1V9h1V8h1V9h1V8h3V7h1V8h2V9h1v1H19v1h1v4h1v2h1V16h1v1h1V16h1v7H24v8H23v1H21v1h8V0H0Z"/><path class="ma175-2" d="M23,26v5h1V25H23Z"/><path class="ma175-2" d="M7,30V27H6v6H7V30Z"/><path class="ma175-3" d="M8,29V27H7v2Z"/><path class="ma175-3" d="M7,31v2H8V31Z"/><rect class="ma175-2" x="7" y="26" width="1" height="1"/><path class="ma175-2" d="M9,31V27H8v6H9V31Z"/><path class="ma175-3" d="M10,26H9v2h1v1h1V27H10Z"/><path class="ma175-3" d="M10,31V30H9v2h1v1h1V31Z"/><path class="ma175-2" d="M10,26V25H8v1h2Z"/><path class="ma175-2" d="M12,26h1V25H12V24H10v1h1v8h1V26Z"/><path class="ma175-4" d="M17,26H16v1H13V26H12v7h5V26Z"/><path class="ma175-2" d="M13,23h3v1h1V21H16v1H13V21H12v3h1Z"/><path class="ma175-2" d="M13,26v1h3V26H13Z"/><path class="ma175-5" d="M13,25v1h3V25h1V24H16V23H13v1H12v1Z"/><path class="ma175-2" d="M18,31V25h1V24H17v1H16v1h1v7h1V31Z"/><path class="ma175-3" d="M18,26v2h1v1h1V27H19V25H18Z"/><path class="ma175-3" d="M19,31V30H18v2h1v1h1V31Z"/><path class="ma175-2" d="M22,32h1V31H22V25H19v1h2v1H20v6h1V32Z"/><path class="ma175-3" d="M23,28V27H22v2h1Z"/><path class="ma175-6" d="M19,28H18v2h1v1h1V29H19Z"/><path class="ma175-6" d="M22,29v2h1V29Z"/><path class="ma175-6" d="M20,27h1V26H19v1Z"/><path class="ma175-6" d="M23,26V25H22v2h1Z"/><path class="ma175-6" d="M18,32v1h1V32Z"/><path class="ma175-6" d="M10,27h1V25H10v2Z"/><path class="ma175-6" d="M10,28H9v2h1v1h1V29H10Z"/><path class="ma175-6" d="M9,32v1h1V32Z"/><path class="ma175-6" d="M9,27V26H8v1Z"/><path class="ma175-6" d="M7,30v1H8V29H7Z"/><path class="ma175-2" d="M21,16V15H20v1Z"/><path class="ma175-2" d="M19,15h1V14H19Z"/><path class="ma175-5" d="M12,19V18h5v2h1V19h1V16h1V15H16V13h1V12h1V11H13V10H12v1H11v1h2v1H11v1h2v1H9v1h1v3h1v1h1Zm2-3h1v1H14Z"/><path class="ma175-5" d="M13,20v2h3V20Z"/><polygon class="ma175-5" points="18 14 19 14 19 13 17 13 17 14 18 14"/><rect class="ma175-5" x="10" y="12" width="1" height="1"/><path class="ma175-2" d="M20,18V16H19v3h1Z"/><rect class="ma175-2" x="18" y="19" width="1" height="1"/><rect class="ma175-2" x="17" y="20" width="1" height="1"/><rect class="ma175-2" x="11" y="20" width="1" height="1"/><rect class="ma175-2" x="10" y="19" width="1" height="1"/><path class="ma175-2" d="M10,16H9v3h1V16Z"/><rect class="ma175-2" x="8" y="15" width="1" height="1"/><rect class="ma175-2" x="14" y="16" width="1" height="1"/><path class="ma175-7" d="M13,15V14H12v1Z"/><path class="ma175-7" d="M10,15h1V14H10Z"/><path class="ma175-7" d="M18,14v1h1V14Z"/><path class="ma175-7" d="M16,14v1h1V14Z"/><path class="ma175-2" d="M12,15V14H11v1Z"/><path class="ma175-2" d="M17,14v1h1V14Z"/><rect class="ma175-8" x="10" y="13" width="1" height="1"/><rect class="ma175-8" x="11" y="12" width="2" height="1"/><path class="ma175-8" d="M17,13H16v1h1Z"/><path class="ma175-8" d="M19,12H17v1h2Z"/><path class="ma175-9" d="M17,19V18H13v1h3v2h1V19Z"/><path class="ma175-9" d="M13,20V19H12v2h1Z"/><path class="ma175-2" d="M16,19H13v1h3Z"/><path class="ma175-2" d="M12,18v1h1V18Z"/><path class="ma175-10" d="M10,14V12h1V11h1V10h1v1h5v1h1v2h1V11H19V10h1V9H19V8H17V9H16V8H13V9H12V8H11V9H10v1H9v5h1Z"/><rect class="ma175-10" x="16" y="7" width="1" height="1"/><path class="ma175-11" d="M21,23V22H20v1Z"/><path class="ma175-11" d="M24,22.111V23h1V22H24Z"/><rect class="ma175-2" x="21" y="19" width="1" height="1"/><rect class="ma175-2" x="23" y="19" width="1" height="1"/><path class="ma175-12" d="M24,22H21v1h3V22Z"/><path class="ma175-12" d="M23,20V19H22v1H20v2h1V21h3v1h1V20H23Z"/><path class="ma175-13" d="M21,23v2h3V23H21Z"/><path class="ma175-14" d="M20,18v2h1V19h3v1h1V18H20Z"/><path class="ma175-2" d="M24,22V21H21v1h3Z"/><path class="ma175-7" d="M20,17v1h5V16H24v1H23V16H22v1H21V16H20Z"/></svg>