<svg xmlns="http://www.w3.org/2000/svg" viewBox="0 0 29 33"><defs><style>polygon,rect,path{shape-rendering:crispedges;}.aa38-1{fill:#e55b35;}.aa38-2{fill:#000000;}.aa38-3{fill:#e8b795;}.aa38-4{fill:#c6e5e4;}.aa38-5{fill:#c6e5e4;}.aa38-6{fill:#ffffff;}.aa38-7{fill:#893a1f;}.aa38-8{fill:#893a1f;}.aa38-9{fill:#825fff;}.aa38-10{fill:#f62;}.aa38-11{fill:#f9db00;}.aa38-12{fill:#1261ff;}.aa38-13{fill:#00c650;}.aa38-14{fill:#e20026;}</style></defs><path class="aa38-1" d="M0,33H6V26H5V25H6V22H9v3h1V24h2V22H11V21H10V20H9V16H8V15H9V11h1V9h1V7h1V6H11V5h2V6h2V7h1V9h2v1h2v5h1v1H20v4H19v1H18v1H17v2h2v1h2v1h1v1h1v6h6V0H0Z"/><path class="aa38-2" d="M23,31V27H22v6h1Z"/><rect class="aa38-2" x="21" y="26" width="1" height="1"/><path class="aa38-3" d="M22,31V27H21v6h1Z"/><rect class="aa38-3" x="20" y="26" width="1" height="1"/><path class="aa38-2" d="M21,31V27H20v6h1Z"/><path class="aa38-2" d="M20,26h1V25H19v1Z"/><path class="aa38-4" d="M20,31V26H19V25H18v1H17v1H16v1H13V27H12V26H11V25H10v1H9v7h1V29h1v4h1V29h3v4h1V29h3v1H17v2h1V31h1v2h1Z"/><rect class="aa38-4" x="13" y="30" width="1" height="2"/><rect class="aa38-2" x="16" y="23" width="1" height="1"/><rect class="aa38-2" x="12" y="23" width="1" height="1"/><path class="aa38-2" d="M9,31V26H8v7H9Z"/><path class="aa38-3" d="M8,31V26H9V25H6v1H7v7H8Z"/><path class="aa38-2" d="M7,31V26H6v7H7Z"/><path class="aa38-2" d="M11,26h1V24H10v1h1Z"/><rect class="aa38-2" x="12" y="26" width="1" height="1"/><rect class="aa38-2" x="16" y="26" width="1" height="1"/><path class="aa38-2" d="M17,26h1V25h1V24H17Z"/><path class="aa38-2" d="M14,27H13v1h3V27Z"/><path class="aa38-3" d="M12,26h1v1h3V26h1V24H16V23H13v1H12Z"/><path class="aa38-5" d="M12,29v4h3V29Zm2,3H13V30h1Z"/><path class="aa38-5" d="M11,31V29H10v4h1Z"/><path class="aa38-5" d="M19,31H18v1H17V30h2V29H16v4h3Z"/><rect class="aa38-2" x="20" y="15" width="1" height="1"/><path class="aa38-3" d="M18,15H16V14H14v2h1v1H14V16H13v1H11v1h1v1h1V18h5V17h1V16h1V15Z"/><path class="aa38-3" d="M10,13v1h2V13Z"/><path class="aa38-3" d="M12,12v1h1v1h1V13h2V12h2V10H16v1H14V10H11v1H10v1Z"/><rect class="aa38-3" x="10" y="16" width="1" height="1"/><polygon class="aa38-3" points="17 14 18 14 18 13 16 13 16 14 17 14"/><rect class="aa38-3" x="9" y="15" width="1" height="1"/><rect class="aa38-3" x="18" y="12" width="1" height="1"/><path class="aa38-2" d="M12,10h1V9H11v1Z"/><path class="aa38-2" d="M17,10h1V9H16v1Z"/><rect class="aa38-2" x="10" y="10" width="1" height="1"/><rect class="aa38-2" x="8" y="15" width="1" height="1"/><rect class="aa38-2" x="14" y="16" width="1" height="1"/><rect class="aa38-6" x="18" y="14" width="1" height="1"/><path class="aa38-2" d="M17,14H16v1h2V14Z"/><rect class="aa38-7" x="18" y="13" width="1" height="1"/><rect class="aa38-7" x="12" y="13" width="1" height="1"/><rect class="aa38-7" x="10" y="12" width="2" height="1"/><path class="aa38-8" d="M15,18H13v1h3V18Z"/><path class="aa38-8" d="M14,23h3V22h1V21h1V20h1V16H19v1H18v1H17v1H16v1H13V19H12V18H11V17H10V16H9v4h1v1h1v1h1v1Z"/><rect class="aa38-2" x="13" y="19" width="3" height="1"/><rect class="aa38-2" x="16" y="18" width="1" height="1"/><path class="aa38-9" d="M13,9v1h1v1h2V7H15V6H13V5H11V6h1V7H11V9Z"/><rect class="aa38-9" x="10" y="9" width="1" height="1"/><path class="aa38-2" d="M10,16h1v1h2V16h1V14H10V11H9v4h1Z"/><rect class="aa38-2" x="14" y="13" width="2" height="1"/><rect class="aa38-2" x="16" y="12" width="2" height="1"/><path class="aa38-2" d="M18,12h1v3h1V10H18Z"/><rect class="aa38-10" x="6" y="22" width="1" height="1"/><rect class="aa38-6" x="7" y="22" width="1" height="1"/><rect class="aa38-11" x="8" y="23" width="1" height="1"/><rect class="aa38-12" x="6" y="24" width="1" height="1"/><rect class="aa38-10" x="8" y="24" width="1" height="1"/><rect class="aa38-13" x="7" y="23" width="1" height="1"/><path class="aa38-11" d="M7,24v1H8V24Z"/><rect class="aa38-14" x="6" y="23" width="1" height="1"/><rect class="aa38-14" x="8" y="22" width="1" height="1"/><rect class="aa38-2" x="5" y="25" width="1" height="1"/><rect class="aa38-2" x="9" y="25" width="1" height="1"/><rect class="aa38-9" x="10" y="9" width="1" height="1"></rect></svg>