<svg xmlns="http://www.w3.org/2000/svg" viewBox="0 0 29 33"><defs><style>polygon,rect,path{shape-rendering:crispedges;}.ya19-1{fill:#29834f;}.ya19-2{fill:#000000;}.ya19-3{fill:#ff791f;}.ya19-4{fill:#c18d59;}.ya19-5{fill:#db5800;}.ya19-6{fill:#ffffff;}.ya19-7{fill:#893a1f;}.ya19-8{fill:#893a1f;}.ya19-9{fill:#cc3232;}</style></defs><path class="ya19-1" d="M0,33H6V27H7V26H8V25h2V24h1V23h1V21H11V20H10V19H9V16H8V15H9V10h1V9h1V8h1V9h1V8h3V7h1V8h2V9h1v1H19v1h1v4h1v1H20v3H19v1H18v1H17v2h1v1h1v1h1V24h1V23h1v1h1v9h6V0H0Z"/><rect class="ya19-1" x="16" y="8" width="1" height="1"/><path class="ya19-2" d="M7,30V27H6v6H7V30Z"/><path class="ya19-3" d="M8,29V27H7v2Z"/><path class="ya19-3" d="M7,31v2H8V31Z"/><rect class="ya19-2" x="7" y="26" width="1" height="1"/><path class="ya19-2" d="M9,31V27H8v6H9V31Z"/><path class="ya19-3" d="M16,31V30H15v2h1v1h1V31Z"/><path class="ya19-3" d="M13,29h1V27H13V26H12v2h1Z"/><path class="ya19-3" d="M10,31V30H9v2h1v1h1V31Z"/><rect class="ya19-3" x="14" y="29" width="1" height="1"/><path class="ya19-3" d="M18,26v2h1v1h1V27H19V25H18Z"/><path class="ya19-3" d="M19,31V30H18V28H17V27H16V25H15v3h1v1h1v2h1v1h1v1h1V31Z"/><path class="ya19-3" d="M14,31H13V30H12V28H11V27H10V26H9v2h1v1h1v2h1v1h1v1h1V31Z"/><path class="ya19-2" d="M10,26V25H8v1h2Z"/><path class="ya19-2" d="M11,26h2V25H12V24h1V22H12v1H11v1H10v1h1Z"/><rect class="ya19-2" x="13" y="24" width="1" height="1"/><path class="ya19-2" d="M14,32v1h1V32Z"/><path class="ya19-2" d="M14,31h1V30H14Z"/><path class="ya19-2" d="M14,29h1V28H14Z"/><path class="ya19-2" d="M14,26v1h1V25H14Z"/><rect class="ya19-2" x="15" y="24" width="1" height="1"/><path class="ya19-4" d="M16,24V23H13v1h1v1h1V24Z"/><rect class="ya19-3" x="16" y="24" width="1" height="1"/><path class="ya19-2" d="M21,31V27H20v6h1V31Z"/><path class="ya19-3" d="M21,28h1V27H21Z"/><path class="ya19-3" d="M21,31v1h1V30H21Z"/><path class="ya19-2" d="M23,24H22v9h1V24Z"/><path class="ya19-5" d="M19,28H18v2h1v1h1V29H19Z"/><path class="ya19-5" d="M21,32v1h1V32Z"/><path class="ya19-5" d="M16,26v1h1v1h1V26Z"/><path class="ya19-5" d="M21,29v1h1V28H21Z"/><path class="ya19-5" d="M18,32V31H17v2h2V32Z"/><path class="ya19-5" d="M15,30h1v1h1V29H16V28H15v2Z"/><polygon class="ya19-5" points="14 27 14 26 14 25 13 25 13 26 13 27 14 27"/><path class="ya19-5" d="M14,28h1V27H14Z"/><rect class="ya19-5" x="15" y="32" width="1" height="1"/><path class="ya19-5" d="M14,32h1V31H14Z"/><path class="ya19-5" d="M14,29H13V28H12v2h1v1h1V29Z"/><rect class="ya19-5" x="12" y="24" width="1" height="1"/><path class="ya19-5" d="M10,27h1v1h1V26H11V25H10v2Z"/><path class="ya19-5" d="M12,32V31H11v2h2V32Z"/><path class="ya19-5" d="M10,30v1h1V29H10V28H9v2Z"/><path class="ya19-5" d="M9,32v1h1V32Z"/><path class="ya19-5" d="M9,27V26H8v1Z"/><path class="ya19-5" d="M7,30v1H8V29H7Z"/><rect class="ya19-2" x="20" y="15" width="1" height="1"/><path class="ya19-2" d="M19,15h1V14H19Z"/><polygon class="ya19-4" points="18 14 19 14 19 13 17 13 17 14 18 14"/><path class="ya19-4" d="M10,17v1h1v1h1V18h5v1h1V18h1V16h1V15H16V13h1V12h1V11H13V10H12v1H11v1h2v1H11v1h2v1H9v1h1Zm4-1h1v1H14Z"/><rect class="ya19-4" x="16" y="19" width="1" height="1"/><rect class="ya19-4" x="12" y="19" width="1" height="1"/><path class="ya19-4" d="M13,21h3V20H13Z"/><rect class="ya19-4" x="10" y="12" width="1" height="1"/><path class="ya19-2" d="M16,23v1h1v1H16v1h2V25h1V24H18V23H17V22H16Z"/><rect class="ya19-2" x="8" y="15" width="1" height="1"/><rect class="ya19-2" x="14" y="16" width="1" height="1"/><path class="ya19-6" d="M13,15V14H12v1Z"/><path class="ya19-6" d="M10,15h1V14H10Z"/><path class="ya19-6" d="M18,14v1h1V14Z"/><path class="ya19-6" d="M16,14v1h1V14Z"/><path class="ya19-2" d="M12,15V14H11v1Z"/><path class="ya19-2" d="M17,14v1h1V14Z"/><rect class="ya19-7" x="10" y="13" width="1" height="1"/><rect class="ya19-7" x="11" y="12" width="2" height="1"/><path class="ya19-7" d="M17,13H16v1h1Z"/><path class="ya19-7" d="M19,12H17v1h2Z"/><path class="ya19-8" d="M13,23h3V22h1V21h1V20h1V19h1V16H19v2H18v1H17v1H16v1H13V20H12V19H11V18H10V16H9v3h1v1h1v1h1v1h1Z"/><polygon class="ya19-2" points="12 18 12 19 13 19 13 20 16 20 16 19 17 19 17 18 12 18"/><path class="ya19-4" d="M21,27h1V24H21v1H20v2Z"/><path class="ya19-2" d="M20,27V25H19v2Z"/><rect class="ya19-2" x="20" y="24" width="1" height="1"/><rect class="ya19-2" x="21" y="23" width="1" height="1"/><path class="ya19-9" d="M10,14V12h1V11h1V10h1v1h5v1h1v2h1V11H19V10h1V9H19V8H17V9H16V8H13V9H12V8H11V9H10v1H9v5h1Z"/><rect class="ya19-9" x="16" y="7" width="1" height="1"/></svg>