<svg xmlns="http://www.w3.org/2000/svg" viewBox="0 0 29 33"><defs><style>polygon,rect,path{shape-rendering:crispedges;}.ba159-1{fill:#6b4f99;}.ba159-2{fill:#000000;}.ba159-3{fill:#e8b795;}.ba159-4{fill:#333333;}.ba159-5{fill:#333333;}.ba159-6{fill:#ffffff;}.ba159-7{fill:#663228;}.ba159-8{fill:#fad000;}.ba159-9{fill:#663228;}.ba159-10{fill:#00774c;}</style></defs><path class="ba159-1" d="M0,33H6V27H7V26H8V25h2V23h1V21H10V20H9V18H8V12H9V11h1V10h1V9h7v1h1v1h1v2h1v5H20v2H19v1H18v2h1v2h2v1h1v1h1v6h6V0H0Z"/><path class="ba159-2" d="M23,27H22v6h1V27Z"/><rect class="ba159-2" x="21" y="26" width="1" height="1"/><path class="ba159-3" d="M22,27H21v6h1V27Z"/><rect class="ba159-3" x="20" y="26" width="1" height="1"/><path class="ba159-2" d="M21,27H20v6h1V27Z"/><path class="ba159-2" d="M20,26h1V25H19v1Z"/><path class="ba159-4" d="M13,29V27H12V26H11V25H10v1H9v7h1V29h1v4h1V29Z"/><path class="ba159-4" d="M20,27V26H19V25H18v1H17v1H16v2h3v1H17v2h1V31h1v2h1V27Z"/><rect class="ba159-4" x="13" y="30" width="1" height="2"/><path class="ba159-4" d="M16,29H15v4h1V29Z"/><path class="ba159-3" d="M13,25h1V24h1v1h1V23H13v2Z"/><path class="ba159-2" d="M10,26V25H8v1h2Z"/><path class="ba159-3" d="M9,27V26H8v1Z"/><path class="ba159-2" d="M9,27H8v6H9V27Z"/><rect class="ba159-2" x="7" y="26" width="1" height="1"/><path class="ba159-3" d="M8,27H7v6H8V27Z"/><path class="ba159-2" d="M7,27H6v6H7V27Z"/><path class="ba159-5" d="M14,30v2H13V30h1V29H12v4h3V30Z"/><path class="ba159-5" d="M11,29H10v4h1V29Z"/><path class="ba159-5" d="M18,31v1H17V30h2V29H16v4h3V31Z"/><path class="ba159-3" d="M18,13H16v1h2Z"/><rect class="ba159-3" x="9" y="15" width="1" height="1"/><path class="ba159-3" d="M18,15H17v2H16V15H15V11H14v1H13v2h1v2h1v1H14V16H13V15H11v3h1v1h1V18h5V15Z"/><rect class="ba159-3" x="19" y="15" width="1" height="1"/><rect class="ba159-3" x="11" y="13" width="1" height="1"/><rect class="ba159-3" x="11" y="11" width="1" height="1"/><rect class="ba159-2" x="9" y="14" width="1" height="1"/><rect class="ba159-2" x="14" y="16" width="1" height="1"/><path class="ba159-6" d="M13,15V14H12v1Z"/><path class="ba159-2" d="M18,15V14H16v1h2Z"/><path class="ba159-2" d="M12,14H11v1h1Z"/><rect class="ba159-7" x="11" y="12" width="1" height="1"/><path class="ba159-7" d="M18,12H16v1h2Z"/><path class="ba159-2" d="M14,30h1V29H14Z"/><rect class="ba159-2" x="12" y="26" width="1" height="1"/><path class="ba159-2" d="M15,28v1h1V27H15Z"/><rect class="ba159-2" x="16" y="26" width="1" height="1"/><path class="ba159-2" d="M13,27v2h1V27Z"/><rect class="ba159-2" x="17" y="25" width="1" height="1"/><rect class="ba159-2" x="11" y="25" width="1" height="1"/><rect class="ba159-2" x="14" y="24" width="1" height="1"/><rect class="ba159-2" x="13" y="25" width="1" height="1"/><rect class="ba159-2" x="15" y="25" width="1" height="1"/><path class="ba159-2" d="M17,25V23H16v2Z"/><path class="ba159-2" d="M13,24V23H12v2h1Z"/><rect class="ba159-8" x="16" y="25" width="1" height="1"/><path class="ba159-8" d="M15,26V25H14v1H13v1h1v2h1V27h1V26Z"/><rect class="ba159-8" x="12" y="25" width="1" height="1"/><path class="ba159-8" d="M11,25h1V23H11v2Z"/><path class="ba159-8" d="M17,24v1h1V23H17Z"/><path class="ba159-2" d="M19,25V23H18v2Z"/><path class="ba159-2" d="M11,24V23H10v2h1Z"/><path class="ba159-2" d="M17,23h1V22H17Z"/><path class="ba159-2" d="M12,22H11v1h1Z"/><path class="ba159-9" d="M15,18H13v1h3V18Z"/><path class="ba159-9" d="M19,16v2h1V16Z"/><path class="ba159-9" d="M12,23h5V22h1V21h1V18H17v1H16v1H13V19H12V18H10v3h1v1h1Z"/><path class="ba159-9" d="M10,17V16H9v2h1Z"/><rect class="ba159-2" x="13" y="19" width="3" height="1"/><path class="ba159-2" d="M16,19h1V18H16Z"/><path class="ba159-10" d="M9,15V14h1v4h1V11h1v3h1V12h1V11h1v4h1V12h2v6h1V15h1v3h1V13H20V11H19V10H18V9H11v1H10v1H9v1H8v6H9V15Z"/><path class="ba159-10" d="M9,18v2h1V18Z"/><path class="ba159-10" d="M13,16h1V14H13v2Z"/><path class="ba159-10" d="M17,17V15H16v2Z"/><path class="ba159-10" d="M19,19v1h1V18H19Z"/></svg>