<svg xmlns="http://www.w3.org/2000/svg" viewBox="0 0 29 33"><defs><style>polygon,rect,path{shape-rendering:crispedges;}.fa243-1{fill:#6b4f99;}.fa243-2{fill:#000000;}.fa243-3{fill:#e8b795;}.fa243-4{fill:#68aaad;}.fa243-5{fill:#316a6d;}.fa243-6{fill:#316a6d;}.fa243-7{fill:#00af68;}.fa243-8{fill:#ffffff;}.fa243-9{fill:#0068ff;}.fa243-10{fill:#ff1f4a;}</style></defs><path class="fa243-1" d="M11,24h1V21H10v1H9v1H8v2h2V24Z"/><path class="fa243-1" d="M0,33H8V32H6V31H5V23H4V20H5V19H7v1H9V17H8V12H9V10h1V9h1V8h7V9h1v1h1v2h1v6H20v2h1v1H20v1H19V21H17v3h2v1h2v1h1v1h1v6h6V0H0Z"/><rect class="fa243-2" x="21" y="26" width="1" height="1"/><path class="fa243-2" d="M23,27H22v3H21V27H20v6h1V31h1v2h1V27Z"/><path class="fa243-2" d="M20,26h1V25H19v1Z"/><path class="fa243-2" d="M18,25h1V24H17v1Z"/><path class="fa243-2" d="M11,24H10v1h2V24Z"/><path class="fa243-2" d="M9,27H8V26h2V25H8V23H7v8H6v1H8v1H9V27Z"/><path class="fa243-2" d="M6,23H5v8H6V23Z"/><path class="fa243-3" d="M7,30V23H8V21H7V20H5v3H6v8H7Z"/><rect class="fa243-4" x="16" y="30" width="1" height="1"/><rect class="fa243-4" x="12" y="30" width="1" height="1"/><path class="fa243-4" d="M16,32H12v1h5V32Z"/><path class="fa243-4" d="M20,27h1V26H19V25H17v1H16v1H13V26H12V25H10v1H8v1H9v6h1V30h1V29h1V28h5v1h1v1h1v3h1V27Z"/><path class="fa243-2" d="M13,26v1h3V26H13Z"/><path class="fa243-3" d="M16,23H13v1H12v1h1v1h3V25h1V24H16Z"/><path class="fa243-4" d="M21,28v2h1V27H21Z"/><path class="fa243-3" d="M21,31v2h1V31Z"/><rect class="fa243-2" x="12" y="25" width="1" height="1"/><rect class="fa243-2" x="16" y="25" width="1" height="1"/><path class="fa243-5" d="M19,30H18V29H17V28H12v1H11v1H10v3h2V32h5v1h2V30Zm-6,1H12V30h1Zm4,0H16V30h1Z"/><path class="fa243-3" d="M18,20V19h1V16H15v1H14V16H10v3h1v1h1v1h1v1h3V21h1V20Zm-2,0H13V19H12V18h1v1h3Z"/><rect class="fa243-3" x="14" y="15" width="1" height="1"/><path class="fa243-3" d="M14,14h1V13h2V11H16V10H15v1H14v1H13v1h1Z"/><path class="fa243-2" d="M19,16v3h1V16Z"/><rect class="fa243-2" x="18" y="19" width="1" height="1"/><path class="fa243-2" d="M17,20v1h1V20Z"/><path class="fa243-2" d="M16,22H13V21H12v3h1V23h3v1h1V21H16Z"/><path class="fa243-2" d="M12,20H11v1h1Z"/><rect class="fa243-2" x="10" y="19" width="1" height="1"/><path class="fa243-2" d="M10,18H9v1h1Z"/><rect class="fa243-2" x="14" y="16" width="1" height="1"/><path class="fa243-6" d="M18,13V12H17v1Z"/><rect class="fa243-2" x="13" y="19" width="3" height="1"/><rect class="fa243-2" x="12" y="18" width="1" height="1"/><path class="fa243-2" d="M9,22V21H8v2H9Z"/><path class="fa243-2" d="M8,21V20H7v1Z"/><rect class="fa243-2" x="5" y="19" width="2" height="1"/><path class="fa243-2" d="M5,20H4v3H5V20Z"/><path class="fa243-7" d="M19,20H18v1h1v1h1V21h1V20H20V19H19Z"/><path class="fa243-7" d="M9,21v1h1V21h1V20H10V19H9v1H8v1Z"/><path class="fa243-7" d="M10,17V16H9V13h4V12h1V11h1V10h1v1h1v1h1v1h2v5h1V12H20V10H19V9H18V8H11V9H10v1H9v2H8v5H9v1h1Z"/><path class="fa243-8" d="M14,16V15h1v1h5V13H15v1H14V13H9v3h5Zm2-2h3v1H16Zm-6,0h3v1H10Z"/><path class="fa243-9" d="M19,15V14H16v1h3Z"/><path class="fa243-10" d="M13,15V14H10v1h3Z"/></svg>