<svg xmlns="http://www.w3.org/2000/svg" viewBox="0 0 29 33"><defs><style>polygon,rect,path{shape-rendering:crispedges;}.ka25-1{fill:#6b4f99;}.ka25-2{fill:#000000;}.ka25-3{fill:#508e5d;}.ka25-4{fill:#c18d59;}.ka25-5{fill:#ffffff;}.ka25-6{fill:#492a23;}.ka25-7{fill:#492a23;}.ka25-8{fill:#99004d;}.ka25-9{fill:#fad000;}</style></defs><path class="ka25-1" d="M28,3H27V5H26V6H25V7H24V8h1V9H24v5H23v6H22v1h1v1h1v9H23v1H21v1h8V0H28Z"/><path class="ka25-1" d="M6,27H7V26H8V25h2V24h2V21H11V20H10V19H9V16H8V15H9V11h1V10h1V9h1V8h5V9h2v1h1v1h1v3H20v1h1v1H20v3H19v1H18v1H17v3h2v1h2V20h1V14h1V9H22V8h1V7H22V6H21V5H20V3H19V0H0V33H6V27Z"/><path class="ka25-2" d="M23,29v2h1V22H23v7Z"/><path class="ka25-3" d="M23,24H22v7h1V24Z"/><path class="ka25-2" d="M22,32h1V31H22V23H21v2H19v1h2v1H20v6h1V32Z"/><path class="ka25-3" d="M20,27h1V26H19V25H17V24H16V23H13v1H12v1H10v1H8v1H9v6H20V27Z"/><path class="ka25-2" d="M18,24H17v1h2V24Z"/><path class="ka25-2" d="M10,25h2V24H10Z"/><path class="ka25-2" d="M8,26h2V25H8Z"/><path class="ka25-2" d="M9,27H8v6H9V27Z"/><rect class="ka25-2" x="7" y="26" width="1" height="1"/><path class="ka25-3" d="M8,27H7v6H8V27Z"/><path class="ka25-2" d="M7,27H6v6H7V27Z"/><rect class="ka25-2" x="20" y="15" width="1" height="1"/><path class="ka25-4" d="M13,21h3V20H13Z"/><path class="ka25-4" d="M10,17v1h1v1h1v1h1V19h3v1h1V19h1V18h1V16h1V15H16V13h1V11H15V10H11v1H10v2h1V12h2v1H11v1h2v1H9v1h1Zm4-1h1v1H14Z"/><path class="ka25-4" d="M18,14h1V13H17v1Z"/><path class="ka25-2" d="M12,22v2h1V22Z"/><path class="ka25-2" d="M16,22v2h1V22Z"/><rect class="ka25-2" x="8" y="15" width="1" height="1"/><rect class="ka25-2" x="14" y="16" width="1" height="1"/><path class="ka25-5" d="M13,15V14H12v1Z"/><path class="ka25-5" d="M10,15h1V14H10Z"/><path class="ka25-5" d="M18,14v1h1V14Z"/><path class="ka25-5" d="M16,14v1h1V14Z"/><path class="ka25-2" d="M12,15V14H11v1Z"/><path class="ka25-2" d="M17,14v1h1V14Z"/><rect class="ka25-6" x="10" y="13" width="1" height="1"/><rect class="ka25-6" x="11" y="12" width="2" height="1"/><path class="ka25-6" d="M17,13H16v1h1Z"/><path class="ka25-6" d="M18,12H17v1h1Z"/><path class="ka25-7" d="M17,22V21h1V20h1V19h1V16H19v2H18v1H17v1H16v1H13V20H12V19H11V18H10V16H9v3h1v1h1v1h1v1h1v1h3V22Z"/><rect class="ka25-2" x="13" y="19" width="3" height="1"/><path class="ka25-8" d="M10,14V11H9v4h1Z"/><rect class="ka25-8" x="10" y="10" width="1" height="1"/><path class="ka25-8" d="M15,10v1h2v1h1v1h1v2h1V14h1V11H20V10H19V9H17V8H12V9H11v1h4Z"/><path class="ka25-5" d="M23,9v5h1V8H23Z"/><rect class="ka25-5" x="22" y="14" width="1" height="6"/><path class="ka25-5" d="M21,22h1V20H21Z"/><rect class="ka25-9" x="22" y="8" width="1" height="1"/><path class="ka25-9" d="M25,9V8H24V9Z"/><path class="ka25-9" d="M20,3V5h1V6h1V7h1V8h1V7h1V6h1V5h1V3h1V0H19V3Z"/><path class="ka25-4" d="M21,22v1h1v1h1V22H21Z"/><path class="ka25-2" d="M23,22V21H22v1Z"/></svg>