<svg xmlns="http://www.w3.org/2000/svg" viewBox="0 0 29 33"><defs><style>polygon,rect,path{shape-rendering:crispedges;}.aa225-1{fill:#29834f;}.aa225-2{fill:#000000;}.aa225-3{fill:#6d3e35;}.aa225-4{fill:#326b43;}.aa225-5{fill:#ffffff;}.aa225-6{fill:#990000;}.aa225-7{fill:#990000;}.aa225-8{fill:#4922aa;}.aa225-9{fill:#0068ff;}</style></defs><rect class="aa225-1" x="16" y="8" width="1" height="1"/><path class="aa225-1" d="M0,33H6V27H7V26H8V25h2V24h2V22H11V21H10V20H9V16H8V15H9V10h1V9h1V8h1V9h1V8h3V7h1V8h2V9h1v1H19v1h1v4h1v1H20v4H19v1H18v1H17v2h2v1h2v1h1v1h1v6h6V0H0Z"/><path class="aa225-2" d="M23,31V27H22v6h1Z"/><rect class="aa225-2" x="21" y="26" width="1" height="1"/><path class="aa225-3" d="M22,31V27H21v6h1Z"/><rect class="aa225-3" x="20" y="26" width="1" height="1"/><path class="aa225-2" d="M21,31V27H20v6h1Z"/><path class="aa225-2" d="M20,26h1V25H19v1Z"/><path class="aa225-4" d="M20,31V26H19V25H18v1H17v1H16v1H13V27H12V26H11V25H10v1H9v7H20Z"/><path class="aa225-2" d="M17,26h1V25h1V24H17Z"/><rect class="aa225-2" x="16" y="23" width="1" height="1"/><rect class="aa225-2" x="16" y="26" width="1" height="1"/><path class="aa225-2" d="M14,27H13v1h3V27Z"/><rect class="aa225-2" x="12" y="23" width="1" height="1"/><path class="aa225-3" d="M12,26h1v1h3V26h1V24H16V23H13v1H12Z"/><rect class="aa225-2" x="12" y="26" width="1" height="1"/><path class="aa225-2" d="M11,26h1V24H10v1h1Z"/><path class="aa225-2" d="M10,26V25H8v1Z"/><rect class="aa225-3" x="8" y="26" width="1" height="1"/><path class="aa225-2" d="M9,31V27H8v6H9Z"/><rect class="aa225-2" x="7" y="26" width="1" height="1"/><path class="aa225-3" d="M8,31V27H7v6H8Z"/><path class="aa225-2" d="M7,31V27H6v6H7Z"/><rect class="aa225-2" x="20" y="15" width="1" height="1"/><rect class="aa225-2" x="19" y="14" width="1" height="1"/><path class="aa225-3" d="M10,17h1v1h5v1h1V18h1V17h1V16h1V15H16V13H11v1h2v1H9v1h1Zm4-1h1v1H14Z"/><polygon class="aa225-3" points="18 14 19 14 19 13 17 13 17 14 18 14"/><rect class="aa225-3" x="12" y="10" width="1" height="1"/><rect class="aa225-2" x="8" y="15" width="1" height="1"/><rect class="aa225-2" x="14" y="16" width="1" height="1"/><rect class="aa225-5" x="12" y="14" width="1" height="1"/><rect class="aa225-5" x="10" y="14" width="1" height="1"/><rect class="aa225-5" x="18" y="14" width="1" height="1"/><rect class="aa225-5" x="16" y="14" width="1" height="1"/><rect class="aa225-2" x="11" y="14" width="1" height="1"/><rect class="aa225-2" x="17" y="14" width="1" height="1"/><rect class="aa225-6" x="10" y="13" width="1" height="1"/><rect class="aa225-6" x="16" y="13" width="1" height="1"/><path class="aa225-7" d="M15,18H13v1h3V18Z"/><path class="aa225-7" d="M14,23h3V22h1V21h1V20h1V16H19v1H18v1H17v1H16v1H13V19H12V18H11V17H10V16H9v4h1v1h1v1h1v1Z"/><rect class="aa225-2" x="13" y="19" width="3" height="1"/><rect class="aa225-2" x="12" y="18" width="1" height="1"/><rect class="aa225-8" x="19" y="13" width="1" height="1"/><path class="aa225-8" d="M11,11h1V10h1v1h6V10h1V9H19V8H17V9H16V8H13V9H12V8H11V9H10v1H9v1Z"/><path class="aa225-8" d="M10,14V13H9v2h1Z"/><rect class="aa225-8" x="16" y="7" width="1" height="1"/><path class="aa225-5" d="M11,12h9V11H9v1Z"/><path class="aa225-9" d="M11,13h9V12H9v1Z"/></svg>