<svg xmlns="http://www.w3.org/2000/svg" viewBox="0 0 29 33"><defs><style>polygon,rect,path{shape-rendering:crispedges;}.cb294-1{fill:#6b4f99;}.cb294-2{fill:#000000;}.cb294-3{fill:#316a6d;}.cb294-4{fill:#ffffff;}.cb294-5{fill:#efcaaf;}.cb294-6{fill:#663228;}.cb294-7{fill:#d8be00;}.cb294-8{fill:#99004d;}</style></defs><path class="cb294-1" d="M0,33H6V27H7V26H8V25h2V24h1V23h1V22H11V21H10V20H9V16H8V15H9V13H8V9H9V8h1V7h1V6h7V7h1V8h1V9h1v4H20v2h1v1H20v4H19v1H18v1H17v1h1v1h1v1h2V23H20V21h1V20h1V19h2v1h1v3H24v8H23v1H21v1h8V0H0Z"/><path class="cb294-2" d="M7,27H6v6H7V27Z"/><rect class="cb294-2" x="7" y="26" width="1" height="1"/><path class="cb294-3" d="M8,27H7v6H8V27Z"/><path class="cb294-2" d="M9,27H8v6H9V27Z"/><path class="cb294-2" d="M10,25H8v1h2Z"/><path class="cb294-3" d="M12,29H11V25H10v1H8v1H9v6h3V29Z"/><path class="cb294-2" d="M11,26v3h1V26h1V25H12V24h1V22H12v1H11v1H10v1h1Z"/><rect class="cb294-4" x="12" y="24" width="1" height="1"/><path class="cb294-2" d="M13,29H12v4h1V29Z"/><path class="cb294-4" d="M14,23H13v1h1Z"/><path class="cb294-4" d="M16,29h1V26H16V25H13v1H12v3h1v4h1V32h1v1h1V29Zm-1,2H14V30h1Zm0-2H14V28h1Zm0-2H14V26h1Z"/><rect class="cb294-2" x="14" y="26" width="1" height="1"/><rect class="cb294-2" x="14" y="28" width="1" height="1"/><rect class="cb294-2" x="14" y="30" width="1" height="1"/><rect class="cb294-2" x="14" y="32" width="1" height="1"/><rect class="cb294-4" x="15" y="23" width="1" height="1"/><path class="cb294-2" d="M15,24V23H14v1H13v1h3V24Z"/><rect class="cb294-4" x="16" y="24" width="1" height="1"/><path class="cb294-2" d="M17,29H16v4h1V29Z"/><path class="cb294-3" d="M20,27h1V26H19V25H18v4H17v4h3V27Z"/><path class="cb294-2" d="M22,32h1V31H22V23H21v2H19v1h2v1H20v6h1V32Z"/><path class="cb294-4" d="M23,24H22v1h1Z"/><path class="cb294-3" d="M23,25H22v6h1V25Z"/><path class="cb294-2" d="M23,24v7h1V23H23Z"/><rect class="cb294-2" x="20" y="15" width="1" height="1"/><path class="cb294-2" d="M19,15h1V14H19Z"/><path class="cb294-5" d="M10,17v1h1v1h1V18h2v1h1V18h2v1h1V18h1V16h1V15H16V14h2V13H16V12h2V11H11v1h1v1h1v2H9v1h1Zm4-1h1v1H14Z"/><rect class="cb294-5" x="18" y="12" width="1" height="1"/><rect class="cb294-5" x="13" y="20" width="1" height="1"/><rect class="cb294-5" x="15" y="20" width="1" height="1"/><path class="cb294-5" d="M10,14h2V13H10Z"/><path class="cb294-2" d="M16,23v1h1v1H16v1h1v3h1V25h1V24H18V23H17V22H16Z"/><rect class="cb294-2" x="8" y="15" width="1" height="1"/><rect class="cb294-2" x="14" y="16" width="1" height="1"/><path class="cb294-4" d="M18,14v1h1V14Z"/><path class="cb294-4" d="M12,15h1V14H12Z"/><path class="cb294-2" d="M17,14H16v1h2V14Z"/><path class="cb294-2" d="M12,15V14H9v1h3Z"/><rect class="cb294-6" x="18" y="13" width="1" height="1"/><rect class="cb294-6" x="16" y="12" width="2" height="1"/><path class="cb294-6" d="M13,14V13H12v1Z"/><path class="cb294-6" d="M10,13h2V12H10Z"/><path class="cb294-7" d="M15,18v1h1V18Z"/><path class="cb294-7" d="M13,23h3V22h2V21h1V20h1V16H19v2H18v1H16v2H15V20H14v1H13V19h1V18H12v1H11V18H10V16H9v4h1v1h1v1h2Z"/><path class="cb294-2" d="M14,19H13v1h3V19H14Z"/><path class="cb294-2" d="M16,18v1h1V18Z"/><path class="cb294-2" d="M20,21v2h1V21Z"/><rect class="cb294-2" x="21" y="20" width="1" height="1"/><rect class="cb294-2" x="22" y="19" width="2" height="1"/><path class="cb294-2" d="M24,23h1V20H24v3Z"/><path class="cb294-5" d="M22,24h1V23h1V20H22v1H21v2h1Z"/><path class="cb294-8" d="M10,13V12h1V11h7v1h1v2h1V13h1V9H20V8H19V7H18V6H11V7H10V8H9V9H8v4H9v1h1Z"/></svg>