<svg xmlns="http://www.w3.org/2000/svg" viewBox="0 0 29 33"><defs><style>polygon,rect,path{shape-rendering:crispedges;}.la71-1{fill:#b4bd09;}.la71-2{fill:#000000;}.la71-3{fill:#ffed9f;}.la71-4{fill:#45ba00;}.la71-5{fill:#efcaaf;}.la71-6{fill:#ffffff;}.la71-7{fill:#4922aa;}.la71-8{fill:#db5800;}</style></defs><path class="la71-1" d="M0,33H6V27H7V26H8V25h2V24h2V22H11V21H10v1H9V21H8V20H7V19H8V12H9V10h1V9h1V8h7V9h1v1h1v2h1v7h1v1H21v1H20v1H19V21H18v1H17v2h2v1h2v1h1v1h1v6h6V0H0Z"/><path class="la71-2" d="M23,27H22v6h1V27Z"/><rect class="la71-2" x="21" y="26" width="1" height="1"/><path class="la71-3" d="M21,31v2h1V31Z"/><path class="la71-3" d="M21,28v2h1V27H21Z"/><path class="la71-2" d="M21,30V27H20v6h1V30Z"/><path class="la71-2" d="M20,26h1V25H19v1Z"/><path class="la71-3" d="M20,32V26H19V25H17V24H16V23H13v1H12v1H10v1H9v6h1v1h4V32h1v1h4V32Zm-9-3H10V28h1Zm2,2H12V30h1Zm0-4H12V26h1Zm2,2H14V28h1Zm0-4H14V24h1Zm2,6H16V30h1Zm0-4H16V26h1Zm1,2V28h1v1Z"/><path class="la71-2" d="M18,25h1V24H17v1Z"/><path class="la71-2" d="M13,23h3v1h1V21H16v1H13V21H12v3h1Z"/><path class="la71-2" d="M12,24H10v1h2Z"/><path class="la71-2" d="M10,26V25H8v1h2Z"/><path class="la71-2" d="M9,31V27H8v6H9V31Z"/><rect class="la71-2" x="7" y="26" width="1" height="1"/><path class="la71-3" d="M7,31v2H8V31Z"/><path class="la71-3" d="M7,30H8V27H7v3Z"/><path class="la71-2" d="M7,30V27H6v6H7V30Z"/><rect class="la71-4" x="10" y="28" width="1" height="1"/><rect class="la71-4" x="12" y="30" width="1" height="1"/><rect class="la71-4" x="14" y="28" width="1" height="1"/><rect class="la71-4" x="14" y="32" width="1" height="1"/><rect class="la71-4" x="12" y="26" width="1" height="1"/><rect class="la71-4" x="16" y="30" width="1" height="1"/><rect class="la71-4" x="18" y="28" width="1" height="1"/><rect class="la71-4" x="16" y="26" width="1" height="1"/><rect class="la71-4" x="14" y="24" width="1" height="1"/><path class="la71-4" d="M9,27V26H8v1Z"/><path class="la71-4" d="M19,32v1h1V32Z"/><path class="la71-4" d="M9,32v1h1V32Z"/><path class="la71-4" d="M7,31H8V30H7Z"/><path class="la71-4" d="M21,31h1V30H21Z"/><path class="la71-4" d="M20,27h1V26H20Z"/><path class="la71-2" d="M20,16h1V15H20Z"/><rect class="la71-2" x="19" y="14" width="1" height="1"/><rect class="la71-5" x="17" y="13" width="1" height="1"/><path class="la71-5" d="M18,20V19h1V16h1V15H16V13h1V11H16V10H13v1H12v1h1v1H11v1h2v1H9v1h1v3h1v1h1v1h1v1h3V21h1V20Zm-4-4h1v1H14Zm2,4H13V19H12V18h1v1h3Z"/><path class="la71-2" d="M19,17v2h1V16H19Z"/><rect class="la71-2" x="18" y="19" width="1" height="1"/><rect class="la71-2" x="17" y="20" width="1" height="1"/><rect class="la71-2" x="11" y="20" width="1" height="1"/><rect class="la71-2" x="10" y="19" width="1" height="1"/><path class="la71-2" d="M10,14H9v1h1Z"/><path class="la71-2" d="M10,16H9v3h1V16Z"/><path class="la71-2" d="M9,15H8v1H9Z"/><rect class="la71-2" x="14" y="16" width="1" height="1"/><path class="la71-6" d="M13,15V14H12v1Z"/><path class="la71-6" d="M11,15V14H10v1Z"/><path class="la71-6" d="M19,15V14H18v1Z"/><path class="la71-6" d="M16,14v1h1V14Z"/><path class="la71-2" d="M12,15V14H11v1Z"/><path class="la71-2" d="M17,15h1V14H17Z"/><path class="la71-7" d="M13,12H11v1h2Z"/><path class="la71-7" d="M17,13H16v1h1Z"/><path class="la71-7" d="M18,13V12H17v1Z"/><rect class="la71-2" x="13" y="19" width="3" height="1"/><rect class="la71-2" x="12" y="18" width="1" height="1"/><path class="la71-8" d="M20,17v2H19v1H18v1h1v1h1V21h1V20h1V19H21V16H20Z"/><path class="la71-8" d="M9,14h2V12h1V11h1V10h3v1h1v1h1v2h2v1h1V12H20V10H19V9H18V8H11V9H10v1H9v2H8v3H9Z"/><path class="la71-8" d="M10,20V19H9V16H8v3H7v1H8v1H9v1h1V21h1V20Z"/><path class="la71-8" d="M11,21v1h1V21Z"/><path class="la71-8" d="M17,22h1V21H17Z"/></svg>