<svg xmlns="http://www.w3.org/2000/svg" viewBox="0 0 29 33"><defs><style>polygon,rect,path{shape-rendering:crispedges;}.aa186-1{fill:#7a982c;}.aa186-2{fill:#000000;}.aa186-3{fill:#ce8452;}.aa186-4{fill:#66334f;}.aa186-5{fill:#a0688d;}.aa186-6{fill:#ffffff;}.aa186-7{fill:#99582c;}.aa186-8{fill:#99582c;}.aa186-9{fill:#cbed03;}.aa186-10{fill:#ff1d99;}.aa186-11{fill:#9b005c;}</style></defs><path class="aa186-1" d="M0,33H6V27H7V26H8V25h2V24h2V21H11V20H10V19H9V16H8V15H9V11h1V10h1V9h7v1h1v1h1v4h1v1H20v3H19v1H18v1H17v3h2v1h2V24H20V23h1V22h1v1h1v1H22v1h1v8h6V0H0Z"/><path class="aa186-2" d="M7,31V27H6v6H7Z"/><rect class="aa186-2" x="7" y="26" width="1" height="1"/><path class="aa186-3" d="M8,31V27H7v6H8Z"/><rect class="aa186-3" x="8" y="26" width="1" height="1"/><path class="aa186-2" d="M9,31V27H8v6H9Z"/><path class="aa186-2" d="M10,26V25H8v1Z"/><path class="aa186-4" d="M16,32H12v1h5V32Z"/><rect class="aa186-4" x="12" y="30" width="1" height="1"/><rect class="aa186-4" x="16" y="30" width="1" height="1"/><path class="aa186-4" d="M20,31V26H19V25H18v1H17v1H16v1h1v1h1v1h1v3h1Z"/><path class="aa186-4" d="M10,31V30h1V29h1V28h1V27H12V26H11V25H10v1H9v7h1Z"/><path class="aa186-2" d="M13,23h3v1h1V21H16v1H13V21H12v3h1Z"/><path class="aa186-2" d="M21,31V25H19v1h1v7h1Z"/><path class="aa186-3" d="M22,31V25H21v8h1Z"/><path class="aa186-2" d="M23,31V25H22v8h1Z"/><path class="aa186-2" d="M11,26h1V24H10v1h1Z"/><rect class="aa186-2" x="12" y="26" width="1" height="1"/><rect class="aa186-2" x="16" y="26" width="1" height="1"/><path class="aa186-2" d="M17,26h1V25h1V24H17Z"/><path class="aa186-2" d="M14,27H13v1h3V27Z"/><path class="aa186-3" d="M12,26h1v1h3V26h1V24H16V23H13v1H12Z"/><path class="aa186-5" d="M19,31V30H18V29H17V28H12v1H11v1H10v3h2V32h5v1h2Zm-6,0H12V30h1Zm4,0H16V30h1Z"/><rect class="aa186-2" x="20" y="15" width="1" height="1"/><path class="aa186-2" d="M19,13v2h1V12H19Z"/><rect class="aa186-3" x="18" y="11" width="1" height="1"/><path class="aa186-3" d="M12,19V18h5v2h1V19h1V16H16V13h1V11H16V10H13v1H12v1h1v1H11v1h2v2H10v3h1v1h1Zm2-3h1v1H14Z"/><path class="aa186-3" d="M10,13h1V11H10Z"/><rect class="aa186-3" x="9" y="15" width="1" height="1"/><rect class="aa186-3" x="11" y="10" width="1" height="1"/><rect class="aa186-3" x="17" y="10" width="1" height="1"/><rect class="aa186-3" x="19" y="15" width="1" height="1"/><path class="aa186-3" d="M13,20v2h3V20Z"/><polygon class="aa186-3" points="18 14 19 14 19 13 17 13 17 14 18 14"/><path class="aa186-2" d="M19,17v2h1V16H19Z"/><rect class="aa186-2" x="18" y="19" width="1" height="1"/><rect class="aa186-2" x="17" y="20" width="1" height="1"/><rect class="aa186-2" x="11" y="20" width="1" height="1"/><rect class="aa186-2" x="10" y="19" width="1" height="1"/><path class="aa186-2" d="M10,14V12H9v3h1Z"/><path class="aa186-2" d="M10,17V16H9v3h1Z"/><rect class="aa186-2" x="8" y="15" width="1" height="1"/><rect class="aa186-2" x="14" y="16" width="1" height="1"/><path class="aa186-6" d="M10,15v1h1V14H10Z"/><path class="aa186-6" d="M12,16h1V14H12Z"/><path class="aa186-6" d="M17,14H16v2h1Z"/><path class="aa186-6" d="M19,14H18v2h1Z"/><path class="aa186-2" d="M11,16h1V14H11Z"/><path class="aa186-2" d="M18,14H17v2h1Z"/><rect class="aa186-7" x="10" y="13" width="1" height="1"/><path class="aa186-7" d="M11,13h2V12H11Z"/><rect class="aa186-7" x="16" y="13" width="1" height="1"/><path class="aa186-7" d="M19,12H17v1h2Z"/><path class="aa186-8" d="M13,20V19H12v2h1Z"/><path class="aa186-8" d="M17,19V18H13v1h3v2h1Z"/><path class="aa186-2" d="M16,19H13v1h3Z"/><rect class="aa186-2" x="12" y="18" width="1" height="1"/><rect class="aa186-9" x="19" y="11" width="1" height="1"/><rect class="aa186-9" x="18" y="10" width="1" height="1"/><path class="aa186-9" d="M12,11h1V10h3v1h1V10h1V9H11v1h1Z"/><rect class="aa186-9" x="17" y="11" width="1" height="1"/><rect class="aa186-9" x="11" y="11" width="1" height="1"/><rect class="aa186-9" x="10" y="10" width="1" height="1"/><rect class="aa186-9" x="9" y="11" width="1" height="1"/><rect class="aa186-10" x="21" y="22" width="1" height="1"/><rect class="aa186-10" x="20" y="23" width="1" height="1"/><rect class="aa186-10" x="22" y="23" width="1" height="1"/><path class="aa186-10" d="M22,24.5V24H21v1h1Z"/><rect class="aa186-11" x="21" y="23" width="1" height="1"/></svg>