<svg xmlns="http://www.w3.org/2000/svg" viewBox="0 0 29 33"><defs><style>polygon,rect,path{shape-rendering:crispedges;}.ib285-1{fill:#29834f;}.ib285-2{fill:#000000;}.ib285-3{fill:#b2622b;}.ib285-4{fill:#b23b00;}.ib285-5{fill:#b23b00;}.ib285-6{fill:#4fdb7d;}.ib285-7{fill:#ffffff;}.ib285-8{fill:#0068ff;}.ib285-9{fill:#ff1f4a;}</style></defs><path class="ib285-1" d="M0,33H6V27H7V26H8V25h2V24h2V21H11V20H10V19H9V16H8V15H9V11h1V10h1V9h1V8h5V9h2v1h1v1h1v3H20v1h1v1H20v3H19v1H18v1H17v3h2v1h2v1h1v1h1v6h6V0H0Z"/><path class="ib285-2" d="M23,27H22v6h1V27Z"/><path class="ib285-3" d="M22,27H21v6h1V27Z"/><rect class="ib285-2" x="21" y="26" width="1" height="1"/><path class="ib285-2" d="M21,27H20v6h1V27Z"/><path class="ib285-3" d="M20,27h1V26H19V25H17V24H16V23H13v1H12v1H10v1H8v1H9v6h5V29h1v4h5V27Zm-8,2H11V28h1Zm6,0H17V28h1Z"/><path class="ib285-2" d="M20,26h1V25H19v1Z"/><rect class="ib285-2" x="17" y="28" width="1" height="1"/><path class="ib285-2" d="M18,25h1V24H17v1Z"/><path class="ib285-2" d="M15,29H14v4h1V29Z"/><path class="ib285-2" d="M13,23h3v1h1V21H16v1H13V21H12v3h1Z"/><rect class="ib285-2" x="11" y="28" width="1" height="1"/><path class="ib285-2" d="M12,24H10v1h2Z"/><path class="ib285-2" d="M10,25H8v1h2Z"/><path class="ib285-2" d="M9,27H8v6H9V27Z"/><path class="ib285-3" d="M8,27H7v6H8V27Z"/><rect class="ib285-2" x="7" y="26" width="1" height="1"/><path class="ib285-2" d="M7,27H6v6H7V27Z"/><rect class="ib285-2" x="20" y="15" width="1" height="1"/><path class="ib285-3" d="M13,20v2h3V20Z"/><rect class="ib285-3" x="14" y="15" width="1" height="1"/><path class="ib285-3" d="M10,13h1V12h2v1h1v1h1V13h2V11H15V10H11v1H10v2Z"/><path class="ib285-3" d="M12,19V18h5v2h1V19h1V16H15v1H14V16H10v3h1v1h1Z"/><path class="ib285-2" d="M19,17v2h1V16H19Z"/><rect class="ib285-2" x="18" y="19" width="1" height="1"/><rect class="ib285-2" x="17" y="20" width="1" height="1"/><rect class="ib285-2" x="11" y="20" width="1" height="1"/><rect class="ib285-2" x="10" y="19" width="1" height="1"/><path class="ib285-2" d="M10,16H9v3h1V16Z"/><rect class="ib285-2" x="8" y="15" width="1" height="1"/><rect class="ib285-2" x="14" y="16" width="1" height="1"/><path class="ib285-4" d="M11,12v1h2V12Z"/><path class="ib285-4" d="M17,12v1h1V12Z"/><path class="ib285-5" d="M17,19V18H13v1h3v2h1V19Z"/><path class="ib285-5" d="M13,20V19H12v2h1Z"/><path class="ib285-2" d="M16,19H13v1h3Z"/><path class="ib285-2" d="M12,18v1h1V18Z"/><path class="ib285-6" d="M10,12V11H9v2h1Z"/><rect class="ib285-6" x="10" y="10" width="1" height="1"/><path class="ib285-6" d="M15,10v1h2v1h1v1h2v1h1V11H20V10H19V9H17V8H12V9H11v1h4Z"/><path class="ib285-7" d="M11,16h3V15h1v1h5V13H15v1H14V13H9v3h2Zm5-2h3v1H16Zm-6,0h3v1H10Z"/><path class="ib285-8" d="M19,15V14H16v1h3Z"/><path class="ib285-9" d="M13,15V14H10v1h3Z"/></svg>