<svg xmlns="http://www.w3.org/2000/svg" viewBox="0 0 29 33"><defs><style>polygon,rect,path{shape-rendering:crispedges;}.xa46-1{fill:#6b4f99;}.xa46-2{fill:#ffffff;}.xa46-3{fill:#000000;}.xa46-4{fill:#b2622b;}.xa46-5{fill:#000000;}.xa46-6{fill:#fafafa;}.xa46-7{fill:#45ba00;}</style></defs><path class="xa46-1" d="M0,33H6V27H7V26H8V25h2V22h1V20H10V19H9V18H8V12H9V10h1V9h1V8h7V9h1v1h1v5h1v1H20v3H19v1H18v2h1V21h1V20h4v1h1v1h1v4H25v2H24v1H23v4h6V0H0Z"/><path class="xa46-2" d="M17,23v1H16v1H15v2H14v4h6V29H19V25H18V22H17Z"/><path class="xa46-2" d="M22,28H21v5h1V28Z"/><path class="xa46-2" d="M19,32H9v1H20V32Z"/><path class="xa46-2" d="M8,27H7v6H8V27Z"/><path class="xa46-2" d="M9,27v4h4V27h1V25H13V24H12V22H11v3H10v1H8v1Z"/><path class="xa46-3" d="M23,29V28h1V27H21v1h1v5h1V29Z"/><path class="xa46-3" d="M21,28H20v3H14V27H13v4H9V27H8v6H9V32H20v1h1V28Z"/><path class="xa46-3" d="M18,25h1V22H18v3Z"/><rect class="xa46-3" x="15" y="24" width="1" height="1"/><path class="xa46-3" d="M15,26V25H14v2h1Z"/><rect class="xa46-3" x="13" y="24" width="1" height="1"/><path class="xa46-4" d="M15,24h1V23H13v1h1v1h1Z"/><path class="xa46-3" d="M11,24V22H10v3h1Z"/><path class="xa46-3" d="M10,25H8v1h2Z"/><rect class="xa46-3" x="7" y="26" width="1" height="1"/><path class="xa46-3" d="M7,27H6v6H7V27Z"/><rect class="xa46-3" x="20" y="15" width="1" height="1"/><path class="xa46-4" d="M17,14h2V13H17Z"/><rect class="xa46-4" x="9" y="15" width="1" height="1"/><path class="xa46-4" d="M16,14V13h1V12h2V11H18V10H16v1H14v1H13v1H11v1h5Z"/><path class="xa46-4" d="M12,21h1v1h3V21h1V20h1V19h1V16H18v1H16V16H15v1H14V16H13v1H11V16H10v3h1v1h1Zm0-3h1v1h3v1H13V19H12Z"/><rect class="xa46-4" x="19" y="15" width="1" height="1"/><rect class="xa46-4" x="14" y="15" width="1" height="1"/><path class="xa46-3" d="M19,17v2h1V16H19Z"/><rect class="xa46-3" x="18" y="19" width="1" height="1"/><path class="xa46-3" d="M12,23v1h1V23h3v1h1V22h1V20H17v1H16v1H13V21H12V20H11v2h1Z"/><rect class="xa46-3" x="10" y="19" width="1" height="1"/><path class="xa46-3" d="M10,16H9v3h1V16Z"/><rect class="xa46-3" x="14" y="16" width="1" height="1"/><rect class="xa46-5" x="16" y="13" width="1" height="1"/><rect class="xa46-5" x="17" y="12" width="2" height="1"/><rect class="xa46-3" x="13" y="19" width="3" height="1"/><rect class="xa46-3" x="12" y="18" width="1" height="1"/><rect class="xa46-6" x="23" y="23" width="1" height="1"/><rect class="xa46-6" x="20" y="23" width="1" height="1"/><path class="xa46-3" d="M23.25,25H21v1h3V25Z"/><rect class="xa46-3" x="21" y="23" width="1" height="1"/><rect class="xa46-3" x="24" y="23" width="1" height="1"/><path class="xa46-3" d="M24,27h1V26H24Z"/><path class="xa46-7" d="M19,25v4h1V28h1V27H20V23h1V22h2v1h2v3h1V22H25V21H24V20H20v1H19v4Z"/><path class="xa46-7" d="M24,28h1V27H24Z"/><path class="xa46-7" d="M23,29h1V28H23Z"/><path class="xa46-4" d="M24,24H23V22H21v1h1v1H20v3h4V26H21V25h3v1h1V24Z"/><path class="xa46-7" d="M9,15V14h2V13h2V12h1V11h2V10h2v1h1v3h1V10H19V9H18V8H11V9H10v1H9v2H8v6H9V15Z"/><path class="xa46-3" d="M18,14H9v1h1v1h1v1h2V16h1V15h1v1h1v1h2V16h1V15h1V14H18Z"/></svg>