<svg xmlns="http://www.w3.org/2000/svg" viewBox="0 0 29 33"><defs><style>polygon,rect,path{shape-rendering:crispedges;}.wa169-1{fill:#e55b35;}.wa169-2{fill:#d8be00;}.wa169-3{fill:#000000;}.wa169-4{fill:#ce8452;}.wa169-5{fill:#ff6aa5;}.wa169-6{fill:#ffffff;}.wa169-7{fill:#492a23;}.wa169-8{fill:#99004d;}.wa169-9{fill:#db5800;}</style></defs><path class="wa169-1" d="M0,33H6V27H7V26H8V25h2V22h1V20H9V18H8V13H9V11h1V10h1V9h7v1h1v1h1v1h1v6H20v2H18v2h1v3h2v1h1v1h1v6h6V0H0Z"/><path class="wa169-2" d="M16,25h2V24H16Z"/><path class="wa169-2" d="M14,31h6V30H14Z"/><path class="wa169-2" d="M14,27v1h6V27H14Z"/><rect class="wa169-2" x="21" y="27" width="1" height="1"/><rect class="wa169-2" x="21" y="30" width="1" height="1"/><rect class="wa169-2" x="7" y="27" width="1" height="1"/><rect class="wa169-2" x="7" y="30" width="1" height="1"/><path class="wa169-2" d="M9,31h4V30H9Z"/><polygon class="wa169-2" points="12 24 11 24 11 25 13 25 13 24 12 24"/><path class="wa169-2" d="M9,28h4V27H9Z"/><path class="wa169-3" d="M23,27H22v6h1V27Z"/><rect class="wa169-3" x="21" y="26" width="1" height="1"/><path class="wa169-3" d="M21,30V27H20v4H14V27H13v4H9V27H8v6H9V32H20v1h1V30Z"/><path class="wa169-3" d="M20,26h1V25H19v1Z"/><path class="wa169-3" d="M18,25h1V22H18v3Z"/><path class="wa169-3" d="M17,22h1V21H17Z"/><path class="wa169-3" d="M17,24V22H16v2Z"/><rect class="wa169-3" x="15" y="24" width="1" height="1"/><path class="wa169-3" d="M15,26V25H14v2h1Z"/><rect class="wa169-3" x="13" y="24" width="1" height="1"/><path class="wa169-4" d="M15,24h1V23H13v1h1v1h1Z"/><path class="wa169-3" d="M13,23V22H12v2h1Z"/><path class="wa169-3" d="M12,21H11v1h1Z"/><path class="wa169-3" d="M11,24V22H10v3h1Z"/><path class="wa169-3" d="M10,25H8v1h2Z"/><rect class="wa169-3" x="7" y="26" width="1" height="1"/><path class="wa169-3" d="M7,30V27H6v6H7V30Z"/><rect class="wa169-3" x="19" y="14" width="1" height="1"/><rect class="wa169-4" x="17" y="11" width="1" height="1"/><path class="wa169-4" d="M13,21h3V20H13Z"/><rect class="wa169-4" x="19" y="15" width="1" height="1"/><rect class="wa169-4" x="17" y="13" width="1" height="1"/><rect class="wa169-4" x="16" y="19" width="1" height="1"/><rect class="wa169-4" x="9" y="15" width="1" height="1"/><path class="wa169-4" d="M18,15H16v1H15v1H14V16h1V14h1V12H15V11H14v4H13v2H12V15H11v4h1V18h5v1h1V15Z"/><rect class="wa169-4" x="12" y="19" width="1" height="1"/><path class="wa169-4" d="M13,14V13H11v1h2Z"/><rect class="wa169-3" x="14" y="16" width="1" height="1"/><path class="wa169-5" d="M19,32H9v1H20V32Z"/><path class="wa169-5" d="M14,29v1h6V28H14Z"/><path class="wa169-5" d="M9,29v1h4V28H9Z"/><path class="wa169-5" d="M9,27h5V25H10v1H8v1Z"/><path class="wa169-5" d="M16,25H15v2h6V26H19V25H16Z"/><path class="wa169-5" d="M7,29v1H8V28H7Z"/><path class="wa169-5" d="M7,31v2H8V31Z"/><path class="wa169-5" d="M21,31v2h1V31Z"/><path class="wa169-5" d="M21,29v1h1V28H21Z"/><path class="wa169-5" d="M12,24V22H11v2Z"/><path class="wa169-5" d="M17,23v1h1V22H17Z"/><path class="wa169-6" d="M12,15h1V14H12Z"/><path class="wa169-6" d="M17,15V14H16v1Z"/><path class="wa169-3" d="M12,14H11v1h1Z"/><path class="wa169-3" d="M18,15V14H17v1Z"/><path class="wa169-7" d="M13,12H11v1h2Z"/><rect class="wa169-7" x="17" y="12" width="1" height="1"/><path class="wa169-8" d="M19,16v2h1V16Z"/><path class="wa169-8" d="M12,22h1v1h3V22h1V21h1V20h1V18H18v1H17v1H16v1H13V20H12V19H11V18H10v2h1v1h1Z"/><path class="wa169-8" d="M10,17V16H9v2h1Z"/><path class="wa169-3" d="M13,18H12v1h1Z"/><path class="wa169-3" d="M16,18v1h1V18Z"/><path class="wa169-3" d="M15,19V18H14v1H13v1h3V19Z"/><path class="wa169-6" d="M14,19V18H13v1Z"/><path class="wa169-6" d="M16,19V18H15v1Z"/><path class="wa169-9" d="M9,15h1v3h1V12h2v3h1V11h1v1h1v2h1V11h1v7h1V14h1v4h1V12H20V11H19V10H18V9H11v1H10v1H9v2H8v5H9V15Z"/><path class="wa169-9" d="M19,19v1h1V18H19Z"/><path class="wa169-9" d="M15,15v1h1V14H15Z"/><path class="wa169-9" d="M12,16v1h1V15H12Z"/><path class="wa169-9" d="M9,18v2h1V18Z"/></svg>