<svg xmlns="http://www.w3.org/2000/svg" viewBox="0 0 29 33"><defs><style>polygon,rect,path{shape-rendering:crispedges;}.gb275-1{fill:#000000;}.gb275-2{fill:#3e5e00;}.gb275-3{fill:#990000;}.gb275-4{fill:#90a2a3;}.gb275-5{fill:#e8b795;}.gb275-6{fill:#ffffff;}.gb275-7{fill:#0068ff;}.gb275-8{fill:#ff1f4a;}.gb275-9{fill:#474718;}.gb275-10{fill:#6f7032;}.gb275-11{fill:#397d98;}</style></defs><path class="gb275-1" d="M23,27H22v6h1V27Z"/><path class="gb275-2" d="M22,27H21v6h1V27Z"/><path class="gb275-1" d="M21,27h1V26H21V25H20v2H17v1h2v1h1v4h1V27Z"/><rect class="gb275-1" x="19" y="24" width="1" height="1"/><path class="gb275-2" d="M20,29H19v1H18v1H17v1H16v1h4V29Z"/><rect class="gb275-1" x="18" y="23" width="1" height="1"/><path class="gb275-2" d="M18,25H17v1H16v5h1V30h1V29h1V28H17V27h2V26h1V25H19V24H18Z"/><rect class="gb275-2" x="17" y="23" width="1" height="1"/><rect class="gb275-1" x="18" y="29" width="1" height="1"/><path class="gb275-3" d="M15,27H14v6h1V27Z"/><path class="gb275-2" d="M12,32V31H11V30H10V29H9v4h4V32Z"/><rect class="gb275-2" x="11" y="23" width="1" height="1"/><rect class="gb275-1" x="11" y="30" width="1" height="1"/><rect class="gb275-1" x="10" y="23" width="1" height="1"/><rect class="gb275-1" x="9" y="24" width="1" height="1"/><path class="gb275-2" d="M10,26v1h2v1H10v1h1v1h1v1h1V26H12V25H11V24H10v1H9v1Z"/><path class="gb275-1" d="M9,29h1V28h2V27H9V25H8v1H7v1H8v6H9V29Z"/><path class="gb275-2" d="M8,27H7v6H8V27Z"/><path class="gb275-1" d="M7,27H6v6H7V27Z"/><rect class="gb275-1" x="10" y="29" width="1" height="1"/><rect class="gb275-1" x="17" y="30" width="1" height="1"/><path class="gb275-1" d="M17,32V31H16V26h1V25h1V24H17V23h1V21h1V20h1V17h1V15H20v1H15V15H14v1H9V15H8v2H9v3h1v1h1v2h1v1H11v1h1v1h1v5H12v1h1v1h1V27h1v6h1V32ZM13,21V20h3v1Z"/><path class="gb275-4" d="M9,26v1h1V26Z"/><path class="gb275-4" d="M19,27h1V26H19Z"/><rect class="gb275-5" x="13" y="20" width="3" height="1"/><rect class="gb275-1" x="14" y="13" width="1" height="1"/><path class="gb275-6" d="M10,16h4V15h1v1h5V13H15v1H14V13H9v3Zm6-2h3v1H16Zm-6,0h3v1H10Z"/><path class="gb275-7" d="M19,15V14H16v1h3Z"/><path class="gb275-8" d="M13,15V14H10v1h3Z"/><path class="gb275-9" d="M19,12v1h1V11H19Z"/><path class="gb275-10" d="M10,12v1h1V11h1v2h1V11h1v2h1V11h1v2h1V11h1v2h1V11h1V10H19V9H18V8H11V9H10v1H9v1h1Z"/><path class="gb275-9" d="M17,11v2h1V11Z"/><path class="gb275-9" d="M15,11v2h1V11Z"/><path class="gb275-9" d="M13,11v2h1V11Z"/><path class="gb275-9" d="M11,11v2h1V11Z"/><path class="gb275-9" d="M10,12V11H9v2h1Z"/><path class="gb275-11" d="M0,8V33H6V27H7V26H8V25H9V24h1V23h1V21H10V20H9V17H8V15H9V10h1V9h1V8h7V9h1v1h1v5h1v2H20v3H19v1H18v2h1v1h1v1h1v1h1v1h1v6h6V0H0Z"/></svg>