<svg xmlns="http://www.w3.org/2000/svg" viewBox="0 0 29 33"><defs><style>polygon,rect,path{shape-rendering:crispedges;}.na224-1{fill:#e55b35;}.na224-2{fill:#000000;}.na224-3{fill:#ffffff;}.na224-4{fill:#cc2f76;}.na224-5{fill:#ce8452;}.na224-6{fill:#a8a07e;}.na224-7{fill:#ffffff;}.na224-8{fill:#9b8100;}.na224-9{fill:#9b8100;}.na224-10{fill:#4922aa;}.na224-11{fill:#508e91;}</style></defs><path class="na224-1" d="M0,33H6V27H7V26H8V25h2V24h2V21H11V20H10V19H9V16H8V14H9V13H8V9H9V8h1V7h1V6h7V7h1V8h1V9h1v4H20v1h1v2H20v3H19v1H18v1H17v3h2v1h2v1h1v1h1v6h6V0H0Z"/><path class="na224-2" d="M23,27H22v6h1V27Z"/><rect class="na224-2" x="21" y="26" width="1" height="1"/><path class="na224-3" d="M21,32v1h1V32Z"/><path class="na224-3" d="M21,30v1h1V29H21Z"/><path class="na224-3" d="M21,28h1V27H21Z"/><path class="na224-2" d="M21,31V27H20v6h1V31Z"/><path class="na224-3" d="M19,32v1h1V32Z"/><path class="na224-3" d="M19,26v1H18v3h1v1h1V29H19V28h1V27h1V26H19Z"/><path class="na224-2" d="M20,26h1V25H19v1Z"/><path class="na224-2" d="M18,30V25h1V24H17v1H16v1h1v7h1V30Z"/><path class="na224-4" d="M17,26H16v1H13V26H12v7h5V26Z"/><path class="na224-2" d="M13,26v1h3V26H13Z"/><path class="na224-2" d="M13,23h3v1h1V21H16v1H13V21H12v3h1Z"/><path class="na224-5" d="M13,25v1h3V25h1V24H16V23H13v1H12v1Z"/><path class="na224-2" d="M12,26h1V25H12V24H10v1h1v8h1V26Z"/><rect class="na224-3" x="9" y="32" width="1" height="1"/><path class="na224-3" d="M9,27v1h1v1H9v2h1V30h1V27H10V26H8v1Z"/><path class="na224-2" d="M10,25H8v1h2Z"/><path class="na224-2" d="M9,31V27H8v6H9V31Z"/><rect class="na224-2" x="7" y="26" width="1" height="1"/><path class="na224-3" d="M7,30v1H8V29H7Z"/><path class="na224-3" d="M8,28V27H7v1Z"/><path class="na224-3" d="M7,32v1H8V32Z"/><path class="na224-2" d="M7,31V27H6v6H7V31Z"/><path class="na224-6" d="M11,30H10v1H9v1h1v1h1V30Z"/><path class="na224-6" d="M10,27h1V25H10v2Z"/><path class="na224-6" d="M18,26v1h1V25H18Z"/><path class="na224-6" d="M7,29H8V28H7Z"/><path class="na224-6" d="M10,28H9v1h1Z"/><path class="na224-6" d="M21,29h1V28H21Z"/><path class="na224-6" d="M19,29h1V28H19Z"/><path class="na224-6" d="M21,32h1V31H21Z"/><path class="na224-6" d="M7,32H8V31H7Z"/><path class="na224-6" d="M20,32V31H19V30H18v3h1V32Z"/><path class="na224-2" d="M20,16h1V15H20Z"/><path class="na224-5" d="M19,16V15H16v1h3Z"/><path class="na224-5" d="M13,13v1h3V12h2V11H11v1H10v1h3Z"/><path class="na224-5" d="M12,15H10v1h3V15Z"/><rect class="na224-5" x="14" y="15" width="1" height="1"/><path class="na224-5" d="M13,22h3V21h1V20h1V19h1V17H16V16H15v1H14V16H13v1H10v2h1v1h1v1h1Zm-1-3V18h5v1H16v1H13V19Z"/><path class="na224-2" d="M19,17v2h1V16H19Z"/><rect class="na224-2" x="18" y="19" width="1" height="1"/><rect class="na224-2" x="17" y="20" width="1" height="1"/><rect class="na224-2" x="11" y="20" width="1" height="1"/><rect class="na224-2" x="10" y="19" width="1" height="1"/><path class="na224-2" d="M10,16H9v3h1V16Z"/><path class="na224-2" d="M8,15v1H9V15Z"/><rect class="na224-2" x="14" y="16" width="1" height="1"/><rect class="na224-7" x="12" y="14" width="1" height="1"/><path class="na224-7" d="M11,14H10v1h1Z"/><path class="na224-7" d="M18,15h1V14H18Z"/><path class="na224-7" d="M16,14v1h1V14Z"/><path class="na224-2" d="M11,14v1h1V14Z"/><path class="na224-2" d="M17,14v1h1V14Z"/><path class="na224-8" d="M16,13h3V12H16Z"/><path class="na224-9" d="M16,19h1V18H13v1Z"/><rect class="na224-2" x="13" y="19" width="3" height="1"/><path class="na224-2" d="M13,18H12v1h1Z"/><path class="na224-10" d="M10,13V12h1V11h7v1h1v2h1V13h1V9H20V8H19V7H18V6H11V7H10V8H9V9H8v4H9v1h1Z"/><path class="na224-11" d="M19,15v1h1V15h1V14H19Z"/><path class="na224-11" d="M18,16H16v1h3V16Z"/><path class="na224-11" d="M12,14h1V13H10v1h2Z"/><path class="na224-11" d="M16,13v1h3V13H16Z"/><path class="na224-11" d="M16,14H13v2h1V15h1v1h1V14Z"/><path class="na224-11" d="M10,16v1h3V16H10Z"/><path class="na224-11" d="M10,15V14H8v1H9v1h1Z"/></svg>