<svg xmlns="http://www.w3.org/2000/svg" viewBox="0 0 29 33"><defs><style>polygon,rect,path{shape-rendering:crispedges;}.ta77-1{fill:#db5a8e;}.ta77-2{fill:#000000;}.ta77-3{fill:#3f2f17;}.ta77-4{fill:#ce8452;}.ta77-5{fill:#ffffff;}.ta77-6{fill:#99582c;}.ta77-7{fill:#d2d8b8;}.ta77-8{fill:#a3531d;}.ta77-9{fill:#d1b4ca;}.ta77-10{fill:#99a8a5;}</style></defs><path class="ta77-1" d="M20,23H19V21h0v2Z"/><path class="ta77-1" d="M21,24H19v1h2Z"/><path class="ta77-1" d="M0,33H29V0H0Zm6-6H7V26H8V25h2V24h1V23H10V22H9V21H8V20H7V11H8V10H9V9h1V8h1V7h7V8h1V9h1v1h1v1h1v9H21v1h1v1h1v1h1v8H23v1H21v1H6Z"/><rect class="ta77-1" x="18" y="23" width="1" height="1"/><path class="ta77-2" d="M23,25v6h1V23H23v2Z"/><path class="ta77-2" d="M7,31V27H6v6H7Z"/><path class="ta77-3" d="M7,33H8V27H7v6Z"/><rect class="ta77-2" x="7" y="26" width="1" height="1"/><path class="ta77-2" d="M9,27H8v6H9V27Z"/><path class="ta77-3" d="M9,27v6H20V27h1V26H19V25H18V24H16v1h1v5H16V25H13v5H12V25h1V24H11v1H10v1H8v1Z"/><path class="ta77-2" d="M10,25H8v1h2Z"/><rect class="ta77-2" x="10" y="24" width="1" height="1"/><path class="ta77-2" d="M13,23H11v1h2Z"/><path class="ta77-2" d="M13,24v1h3V24H13Z"/><path class="ta77-4" d="M15,23H13v1h3V23Z"/><path class="ta77-2" d="M16,23v1h2V23Z"/><rect class="ta77-2" x="18" y="24" width="1" height="1"/><path class="ta77-2" d="M22,30V24H21v1H19v1h2v1H20v6h1V32h2V31H22Z"/><path class="ta77-3" d="M23,25V24H22v7h1V25Z"/><path class="ta77-2" d="M12,26v4h1V25H12Z"/><path class="ta77-2" d="M16,30h1V25H16v5Z"/><path class="ta77-4" d="M18,14h1V13H17v1Z"/><path class="ta77-4" d="M13,13H11v1h3V13Z"/><path class="ta77-4" d="M15,12H14v1h2V12h1V11H15Z"/><path class="ta77-4" d="M16,22V21h1V20h1V19h1V15H16V14H14v2h1v1H14V16H13v1H11V16H10v3h1v1h1v1h1v1h3Zm-3-3h3v1H13Z"/><rect class="ta77-2" x="14" y="16" width="1" height="1"/><path class="ta77-5" d="M18,14v1h1V14Z"/><path class="ta77-5" d="M16,14v1h1V14Z"/><path class="ta77-2" d="M17,14v1h1V14Z"/><rect class="ta77-6" x="16" y="13" width="1" height="1"/><path class="ta77-6" d="M18,13h1V12H18Z"/><path class="ta77-7" d="M11,14V13h3V12h1V11H12v1H10v2Z"/><path class="ta77-3" d="M13,22H12V21H11V20H10V19H9V12h1V11h2V10h5v1h2v1h1v7H19v1H18v1H17v1H16v1h2V22h1V21h1V20h1V11H20V10H19V9H18V8H11V9H10v1H9v1H8v9H9v1h1v1h1v1h2Z"/><rect class="ta77-2" x="10" y="8" width="1" height="1"/><rect class="ta77-2" x="9" y="9" width="1" height="1"/><rect class="ta77-2" x="8" y="10" width="1" height="1"/><path class="ta77-2" d="M8,11H7v9H8V11Z"/><rect class="ta77-2" x="8" y="20" width="1" height="1"/><rect class="ta77-2" x="9" y="21" width="1" height="1"/><rect class="ta77-2" x="10" y="22" width="1" height="1"/><path class="ta77-2" d="M19,22H18v1h1Z"/><polygon class="ta77-2" points="20 21 20 21 21 21 21 20 20 20 20 21"/><path class="ta77-2" d="M21,20h1V11H21v9Z"/><rect class="ta77-2" x="20" y="10" width="1" height="1"/><rect class="ta77-2" x="19" y="9" width="1" height="1"/><rect class="ta77-2" x="18" y="8" width="1" height="1"/><path class="ta77-2" d="M18,8V7H11V8h7Z"/><path class="ta77-2" d="M12,11H10v1h2Z"/><path class="ta77-2" d="M10,16h1v1h2V16h1V14H10V12H9v7h1V16Z"/><rect class="ta77-2" x="10" y="19" width="1" height="1"/><rect class="ta77-2" x="11" y="20" width="1" height="1"/><rect class="ta77-2" x="12" y="21" width="1" height="1"/><path class="ta77-2" d="M16,23V22H13v1h3Z"/><rect class="ta77-2" x="16" y="21" width="1" height="1"/><rect class="ta77-2" x="17" y="20" width="1" height="1"/><rect class="ta77-2" x="18" y="19" width="1" height="1"/><path class="ta77-2" d="M19,14v5h1V12H19v2Z"/><path class="ta77-2" d="M15,11h2V10H12v1h3Z"/><rect class="ta77-2" x="14" y="13" width="2" height="1"/><path class="ta77-2" d="M16,12v1h2V12h1V11H17v1Z"/><rect class="ta77-2" x="13" y="19" width="3" height="1"/><path class="ta77-8" d="M19,23v1h2V23H19Z"/><path class="ta77-9" d="M20,22H19v1h3V21H20Z"/><path class="ta77-10" d="M20,22V21H19v1Z"/><path class="ta77-4" d="M21,23v1h2V23H21Z"/><path class="ta77-2" d="M22,23h1V22H22v1Z"/></svg>