<svg xmlns="http://www.w3.org/2000/svg" viewBox="0 0 29 33"><defs><style>polygon,rect,path{shape-rendering:crispedges;}.qa75-1{fill:#000000;}.qa75-2{fill:#5a2de2;}.qa75-3{fill:#b8a4ff;}.qa75-4{fill:#a56e49;}.qa75-5{fill:#ffffff;}.qa75-6{fill:#7f5018;}.qa75-7{fill:#e55b35;}.qa75-8{fill:#6d5800;}.qa75-9{fill:#fad000;}.qa75-10{fill:#ea1500;}</style></defs><path class="qa75-1" d="M23,25v6h1V24H23Z"/><path class="qa75-1" d="M7,27H6v6H7V27Z"/><path class="qa75-2" d="M8,27H7v6H8V27Z"/><rect class="qa75-1" x="7" y="26" width="1" height="1"/><path class="qa75-1" d="M9,27H8v6H9V27Z"/><path class="qa75-2" d="M10,30h1V29h1V25h1V24H11v1H10v1H8v1H9v6h1V30Z"/><path class="qa75-2" d="M20,27h1V26H19V25H18V24H16v1h1v4h1v1h1v3h1V27Z"/><path class="qa75-1" d="M10,25H8v1h2Z"/><rect class="qa75-1" x="10" y="24" width="1" height="1"/><rect class="qa75-1" x="10" y="22" width="1" height="1"/><rect class="qa75-2" x="11" y="22" width="1" height="1"/><path class="qa75-1" d="M13,25h3V24h2V23H17V22h1V21h1V20h1V17h1V15H20V11H19V10H18V9H11v1H10v1H9v4H8v2H9v3h1v1h1v1h1v1H11v1h2Zm3-10V14h1v1h1V14h1v2H16Zm-1,5h1v1H13V20h2Zm-4-4H10V14h1v1h1V14h1v2Z"/><rect class="qa75-2" x="17" y="22" width="1" height="1"/><rect class="qa75-1" x="18" y="24" width="1" height="1"/><rect class="qa75-1" x="18" y="22" width="1" height="1"/><path class="qa75-1" d="M22,32h1V31H22V23H21v2H19v1h2v1H20v6h1V32Z"/><path class="qa75-2" d="M23,25V24H22v7h1V25Z"/><path class="qa75-2" d="M16,32H12v1h5V32Z"/><path class="qa75-2" d="M13,25v3h3V25H13Z"/><rect class="qa75-2" x="12" y="30" width="1" height="1"/><rect class="qa75-2" x="16" y="30" width="1" height="1"/><path class="qa75-3" d="M19,30H18V29H17v2H16V28H13v3H12V29H11v1H10v3h2V32h5v1h2V30Z"/><path class="qa75-1" d="M13,25H12v5h1V25Z"/><path class="qa75-1" d="M16,28v2h1V25H16v3Z"/><path class="qa75-4" d="M16,21V20H15v1Z"/><path class="qa75-4" d="M13,21h1V20H13Z"/><path class="qa75-4" d="M13,15H10v1h3Z"/><path class="qa75-4" d="M19,15H16v1h3Z"/><path class="qa75-5" d="M13,14H12v1h1Z"/><path class="qa75-5" d="M11,14H10v1h1Z"/><path class="qa75-5" d="M19,14H18v1h1Z"/><path class="qa75-5" d="M17,14H16v1h1Z"/><path class="qa75-6" d="M15,21V20H14v1Z"/><path class="qa75-7" d="M0,9V33H6V27H7V26H8V25h2V24h1V23H10V22h1V21H10V20H9V17H8V15H9V11h1V10h1V9h7v1h1v1h1v4h1v2H20v3H19v1H18v1h1v1H18v1h1v1h2V23h1V22H21V19h1v1h1V18h1V17h3v5H26v1H25v1H24v7H23v1H21v1h8V0H0Z"/><path class="qa75-8" d="M21,21v1h1V21Z"/><path class="qa75-9" d="M24,21h1v1H24v1h2V22h1V20H25V19H24V18H23v2H22V19H21v2h1v1h2Z"/><path class="qa75-4" d="M23,24h1V23H22v1Z"/><path class="qa75-8" d="M24,22H22v1h2Z"/><path class="qa75-1" d="M24,24h1V23H24Z"/><rect class="qa75-8" x="24" y="21" width="1" height="1"/><rect class="qa75-1" x="24" y="18" width="1" height="1"/><path class="qa75-10" d="M25,19v1h2V19H25Z"/><path class="qa75-9" d="M25,19h1V18h1V17H24v1h1Z"/><path class="qa75-1" d="M26,19h1V18H26Z"/></svg>