<svg xmlns="http://www.w3.org/2000/svg" viewBox="0 0 29 33"><defs><style>polygon,rect,path{shape-rendering:crispedges;}.aa133-1{fill:#db5a8e;}.aa133-2{fill:#000000;}.aa133-3{fill:#ce8452;}.aa133-4{fill:#b3ffa1;}.aa133-5{fill:#b3ffa1;}.aa133-6{fill:#ffffff;}.aa133-7{fill:#6f7032;}.aa133-8{fill:#6f7032;}.aa133-9{fill:#5a2de2;}.aa133-10{fill:#ff1d99;}.aa133-11{fill:#9b005c;}</style></defs><path class="aa133-1" d="M6,32V25H7V24H6V23H7V22H8v1H9v1H8v1h2V24h2V21H11V20H10V19H9V16H8V15H9V11h1V10h1V9h7v1h1v1h1v4h1v1H20v3H19v1H18v1H17v3h2v1h2v1h1v1h1v6h6V0H0V33H6Z"/><path class="aa133-2" d="M23,31V27H22v6h1Z"/><rect class="aa133-2" x="21" y="26" width="1" height="1"/><path class="aa133-3" d="M22,31V27H21v6h1Z"/><rect class="aa133-3" x="20" y="26" width="1" height="1"/><path class="aa133-2" d="M21,31V27H20v6h1Z"/><path class="aa133-2" d="M20,26h1V25H19v1Z"/><rect class="aa133-4" x="10" y="32" width="1" height="1"/><path class="aa133-4" d="M17,31V30h1V29h1v1h1V26H19V25H18v1H17v1H16v1H13V27H12V26H11V25H10v1H9v4h1V29h1v1h1v3h1V29h2v1h1v2H15v1h2Z"/><rect class="aa133-4" x="10" y="30" width="1" height="1"/><path class="aa133-4" d="M14,31v1h1V30H14Z"/><rect class="aa133-4" x="18" y="30" width="1" height="1"/><rect class="aa133-4" x="18" y="32" width="1" height="1"/><path class="aa133-2" d="M13,23V22H12v2h1Z"/><path class="aa133-2" d="M9,31V26h1V25H8v8H9Z"/><path class="aa133-3" d="M8,31V25H7v8H8Z"/><path class="aa133-2" d="M7,31V25H6v8H7Z"/><path class="aa133-2" d="M11,26h1V24H10v1h1Z"/><rect class="aa133-2" x="12" y="26" width="1" height="1"/><rect class="aa133-2" x="16" y="26" width="1" height="1"/><path class="aa133-2" d="M17,26h1V25h1V24H17Z"/><path class="aa133-2" d="M14,27H13v1h3V27Z"/><path class="aa133-3" d="M12,26h1v1h3V26h1V24H16V23H13v1H12Z"/><path class="aa133-5" d="M20,31V30H19v1H18V30H17v3h1V32h1v1h1Z"/><rect class="aa133-5" x="18" y="29" width="1" height="1"/><path class="aa133-5" d="M15,32h1V30H15Z"/><path class="aa133-5" d="M14,32V30h1V29H13v4h2V32Z"/><path class="aa133-5" d="M12,31V30H11v1H10V30H9v3h1V32h1v1h1Z"/><rect class="aa133-5" x="10" y="29" width="1" height="1"/><rect class="aa133-2" x="20" y="15" width="1" height="1"/><rect class="aa133-3" x="13" y="20" width="1" height="1"/><path class="aa133-3" d="M10,17v1h1v1h1V18h2v1h1V18h2v1h1V18h1V17H18V16H16V15H15v2H14V15H9v1h1Z"/><rect class="aa133-3" x="15" y="20" width="1" height="1"/><rect class="aa133-3" x="19" y="15" width="1" height="1"/><rect class="aa133-2" x="19" y="16" width="1" height="1"/><path class="aa133-2" d="M16,23v1h1V22H16Z"/><rect class="aa133-2" x="9" y="16" width="1" height="1"/><rect class="aa133-2" x="8" y="15" width="1" height="1"/><rect class="aa133-2" x="14" y="16" width="1" height="1"/><rect class="aa133-6" x="12" y="14" width="1" height="1"/><rect class="aa133-6" x="10" y="14" width="1" height="1"/><rect class="aa133-2" x="11" y="14" width="1" height="1"/><rect class="aa133-7" x="12" y="13" width="1" height="1"/><path class="aa133-8" d="M13,23h3V22h1V21h1V20h1V19h1V17H19v1H18v1H17V18H15v1h1v2H15V20H14v1H13V19h1V18H12v1H11V18H10V17H9v2h1v1h1v1h1v1h1Z"/><path class="aa133-2" d="M13,19v1h3V19Z"/><path class="aa133-9" d="M10,14h2V13h1v2h1v1h1V15h1v1h2v1h1V15h1V11H19V10H18V9H11v1H10v1H9v4h1Z"/><rect class="aa133-10" x="7" y="22" width="1" height="1"/><rect class="aa133-10" x="6" y="23" width="1" height="1"/><rect class="aa133-10" x="8" y="23" width="1" height="1"/><path class="aa133-10" d="M8,24.5V24H7v1H8Z"/><rect class="aa133-11" x="7" y="23" width="1" height="1"/></svg>