<svg xmlns="http://www.w3.org/2000/svg" viewBox="0 0 29 33"><defs><style>polygon,rect,path{shape-rendering:crispedges;}.ta186-1{fill:#b4bd09;}.ta186-2{fill:#000000;}.ta186-3{fill:#ffffff;}.ta186-4{fill:#e8b795;}.ta186-5{fill:#ffffff;}.ta186-6{fill:#492a23;}.ta186-7{fill:#ff1d99;}.ta186-8{fill:#009b97;}.ta186-9{fill:#ff1f4a;}.ta186-10{fill:#10bcff;}</style></defs><path class="ta186-1" d="M0,33H6V26H5V24H8v1h2V24h1V23H10V22H9V21H8V20H7V11H8V10H9V9h1V8h1V7h7V8h1V9h1v1h1v1h1v9H21v1H20v1H19v1H18v1h1v1h2V24h3v2H23v7h6V0H0Z"/><path class="ta186-1" d="M7,27H7v6H7V27Z"/><path class="ta186-2" d="M7,27V26H6v7H7V27Z"/><path class="ta186-2" d="M9,26h1V25H8v2H8v6H9V26Z"/><path class="ta186-3" d="M20,26H19V25H18V24H16v1h1v5H16V25H13v5H12V25h1V24H11v1H10v1H9v7H20V26Z"/><rect class="ta186-2" x="10" y="24" width="1" height="1"/><path class="ta186-2" d="M13,23H11v1h2Z"/><path class="ta186-2" d="M13,24v1h3V24H13Z"/><path class="ta186-4" d="M15,23H13v1h3V23Z"/><path class="ta186-2" d="M16,24h2V23H16Z"/><rect class="ta186-2" x="18" y="24" width="1" height="1"/><path class="ta186-2" d="M21,27V25H19v1h1v7h1V27Z"/><path class="ta186-2" d="M23,26H22v7h1V26Z"/><path class="ta186-2" d="M12,26v4h1V25H12Z"/><path class="ta186-2" d="M16,30h1V25H16v5Z"/><rect class="ta186-4" x="16" y="12" width="1" height="1"/><path class="ta186-4" d="M16,22V20H13v2h3Z"/><path class="ta186-4" d="M12,19V18h5v2h1V19h1V15H16V13H15V12H13v1H11v1h2v1H10v4h1v1h1Zm2-3h1v1H14Z"/><rect class="ta186-2" x="14" y="16" width="1" height="1"/><path class="ta186-5" d="M13,15V14H12v1Z"/><path class="ta186-5" d="M10,15h1V14H10Z"/><path class="ta186-5" d="M18,14v1h1V14Z"/><path class="ta186-5" d="M16,14v1h1V14Z"/><path class="ta186-2" d="M12,15V14H11v1Z"/><path class="ta186-2" d="M17,14v1h1V14Z"/><rect class="ta186-6" x="10" y="13" width="1" height="1"/><path class="ta186-6" d="M12,13h1V12H12Z"/><path class="ta186-6" d="M17,13H16v1h1Z"/><rect class="ta186-6" x="17" y="12" width="1" height="1"/><path class="ta186-7" d="M13,12h2v1h1V12h1V11H12v1Z"/><path class="ta186-7" d="M11,13h1V12H10v1Z"/><path class="ta186-7" d="M18,13H17v1h2V12H18Z"/><path class="ta186-3" d="M13,22H12V21H11V20H10V19H9V12h1V11h2V10h5v1h2v1h1v7H19v1H18v1H17v1H16v1h2V22h1V21h1V20h1V11H20V10H19V9H18V8H11V9H10v1H9v1H8v9H9v1h1v1h1v1h2Z"/><rect class="ta186-2" x="10" y="8" width="1" height="1"/><rect class="ta186-2" x="9" y="9" width="1" height="1"/><rect class="ta186-2" x="8" y="10" width="1" height="1"/><path class="ta186-2" d="M8,11H7v9H8V11Z"/><rect class="ta186-2" x="8" y="20" width="1" height="1"/><rect class="ta186-2" x="9" y="21" width="1" height="1"/><rect class="ta186-2" x="10" y="22" width="1" height="1"/><rect class="ta186-2" x="18" y="22" width="1" height="1"/><rect class="ta186-2" x="19" y="21" width="1" height="1"/><rect class="ta186-2" x="20" y="20" width="1" height="1"/><path class="ta186-2" d="M21,20h1V11H21v9Z"/><rect class="ta186-2" x="20" y="10" width="1" height="1"/><rect class="ta186-2" x="19" y="9" width="1" height="1"/><rect class="ta186-2" x="18" y="8" width="1" height="1"/><path class="ta186-2" d="M18,8V7H11V8h7Z"/><path class="ta186-2" d="M12,11H10v1h2Z"/><path class="ta186-2" d="M10,15V12H9v7h1V15Z"/><rect class="ta186-2" x="10" y="19" width="1" height="1"/><rect class="ta186-2" x="11" y="20" width="1" height="1"/><path class="ta186-2" d="M12,21v1h1V21Z"/><path class="ta186-2" d="M16,23V22H13v1h3Z"/><path class="ta186-2" d="M16,22h1V21H16Z"/><rect class="ta186-2" x="17" y="20" width="1" height="1"/><rect class="ta186-2" x="18" y="19" width="1" height="1"/><path class="ta186-2" d="M19,15v4h1V12H19v3Z"/><path class="ta186-2" d="M18,12h1V11H17v1Z"/><path class="ta186-2" d="M17,11V10H12v1h5Z"/><path class="ta186-8" d="M17,19V18H13v1h3v2h1V19Z"/><path class="ta186-8" d="M13,20V19H12v2h1Z"/><path class="ta186-2" d="M15,19H13v1h3V19Z"/><path class="ta186-2" d="M12,18v1h1V18Z"/><path class="ta186-2" d="M23,26h1V25H23Z"/><path class="ta186-2" d="M22,24H21v1h1Z"/><path class="ta186-9" d="M23,25h1V24H22v1Z"/><path class="ta186-2" d="M8,25V24H7v1Z"/><path class="ta186-2" d="M5,25v1H6V25Z"/><path class="ta186-4" d="M22,27V26h1V25H21v2Z"/><path class="ta186-4" d="M7,27H8V25H6v1H7Z"/><path class="ta186-10" d="M7,25V24H5v1H7Z"/><path class="ta186-3" d="M22,27H21v6h1V27Z"/><path class="ta186-3" d="M8,27H7v6H8V27Z"/></svg>