<svg xmlns="http://www.w3.org/2000/svg" viewBox="0 0 29 33"><defs><style>polygon,rect,path{shape-rendering:crispedges;}.ca230-1{fill:#7a982c;}.ca230-2{fill:#000000;}.ca230-3{fill:#efcaaf;}.ca230-4{fill:#009b97;}.ca230-5{fill:#b3ffa1;}.ca230-6{fill:#ffffff;}.ca230-7{fill:#473a35;}.ca230-8{fill:#cbed03;}.ca230-9{fill:#304400;}.ca230-10{fill:#cc3232;}</style></defs><path class="ca230-1" d="M6,32V27H7V26H8V25h2V24h2V21H11V20H9V19H8V11H9V10h1V9h1V8h7V9h1v1h1v1h1v8H20v1H18v1H17v3h2v1h2v1h1v1h1v6h6V0H0V33H6Z"/><path class="ca230-2" d="M23,27H22v6h1V27Z"/><rect class="ca230-2" x="21" y="26" width="1" height="1"/><path class="ca230-3" d="M22,27H21v6h1V27Z"/><rect class="ca230-3" x="20" y="26" width="1" height="1"/><path class="ca230-2" d="M21,27H20v6h1V27Z"/><path class="ca230-2" d="M20,26h1V25H19v1Z"/><path class="ca230-4" d="M17,30h1V29h1v1h1V26H19V25H18v1H17v1H16v1H13V27H12V26H11V25H10v1H9v4h1V29h1v1h1v3h1V29h2v1h1v2H15v1h2V30Z"/><rect class="ca230-4" x="18" y="32" width="1" height="1"/><rect class="ca230-4" x="18" y="30" width="1" height="1"/><rect class="ca230-4" x="10" y="30" width="1" height="1"/><path class="ca230-4" d="M14,31v1h1V30H14Z"/><rect class="ca230-4" x="10" y="32" width="1" height="1"/><path class="ca230-2" d="M18,26V25h1V24H17v2Z"/><rect class="ca230-2" x="16" y="26" width="1" height="1"/><path class="ca230-2" d="M13,27v1h3V27H13Z"/><path class="ca230-2" d="M13,23h3v1h1V21H16v1H13V21H12v3h1Z"/><path class="ca230-3" d="M13,26v1h3V26h1V24H16V23H13v1H12v2Z"/><rect class="ca230-2" x="12" y="26" width="1" height="1"/><path class="ca230-2" d="M11,26h1V24H10v1h1Z"/><path class="ca230-2" d="M10,26V25H8v1h2Z"/><path class="ca230-3" d="M9,27V26H8v1Z"/><path class="ca230-2" d="M9,30V27H8v6H9V30Z"/><rect class="ca230-2" x="7" y="26" width="1" height="1"/><path class="ca230-3" d="M8,27H7v6H8V27Z"/><path class="ca230-2" d="M7,27H6v6H7V27Z"/><path class="ca230-5" d="M20,30H19v1H18V30H17v3h1V32h1v1h1V30Z"/><rect class="ca230-5" x="18" y="29" width="1" height="1"/><path class="ca230-5" d="M16,32V30H15v2Z"/><path class="ca230-5" d="M14,32V30h1V29H13v4h2V32Z"/><path class="ca230-5" d="M12,30H11v1H10V30H9v3h1V32h1v1h1V30Z"/><rect class="ca230-5" x="10" y="29" width="1" height="1"/><path class="ca230-3" d="M13,22h3V21h1V20h1V19h1V16h1V15H16V14h2V13H16V12h1V11H15v4H14v1h1v1H14V16H13v1H11V16H10v3h1v1h1v1h1Zm-1-3V18h5v1H16v1H13V19Z"/><rect class="ca230-3" x="9" y="15" width="1" height="1"/><path class="ca230-2" d="M20,16H19v3h1V16Z"/><path class="ca230-2" d="M18,19v1h1V19Z"/><rect class="ca230-2" x="17" y="20" width="1" height="1"/><rect class="ca230-2" x="11" y="20" width="1" height="1"/><path class="ca230-2" d="M10,19v1h1V19Z"/><path class="ca230-2" d="M10,18V16H9v3h1Z"/><rect class="ca230-2" x="14" y="16" width="1" height="1"/><path class="ca230-6" d="M18,14v1h1V14Z"/><path class="ca230-6" d="M16,14v1h1V14Z"/><path class="ca230-2" d="M17,14v1h1V14Z"/><rect class="ca230-7" x="18" y="13" width="1" height="1"/><path class="ca230-7" d="M16,12v1h1V12Z"/><path class="ca230-2" d="M13,18H12v1h1Z"/><path class="ca230-2" d="M17,19V18H16v1Z"/><path class="ca230-2" d="M13,19v1h3V19H15V18H14v1Z"/><path class="ca230-6" d="M14,19V18H13v1Z"/><path class="ca230-6" d="M16,19V18H15v1Z"/><path class="ca230-8" d="M12,15h1V13H11v2Z"/><path class="ca230-9" d="M13,13v2h1V13Z"/><polygon class="ca230-9" points="12 15 11 15 11 16 13 16 13 15 12 15"/><path class="ca230-9" d="M11,14H10v1h1Z"/><path class="ca230-9" d="M13,12H12v1h1Z"/><rect class="ca230-2" x="10" y="15" width="1" height="1"/><rect class="ca230-2" x="11" y="16" width="2" height="1"/><rect class="ca230-2" x="13" y="15" width="1" height="1"/><path class="ca230-2" d="M14,10v1H13v2h1v2h1V10Z"/><path class="ca230-10" d="M9,16V15h1V14h1V13h1V12h1V11h1V10h1v1h2v2h2v2h1v4h1V11H20V10H19V9H18V8H11V9H10v1H9v1H8v8H9V16Z"/><path class="ca230-10" d="M9,19v1h1V19Z"/><path class="ca230-10" d="M19,20h1V19H19Z"/></svg>