<svg xmlns="http://www.w3.org/2000/svg" viewBox="0 0 29 33"><defs><style>polygon,rect,path{shape-rendering:crispedges;}.ua18-1{fill:#db5a8e;}.ua18-2{fill:#000000;}.ua18-3{fill:#ffce00;}.ua18-4{fill:#ce8452;}.ua18-5{fill:#ffffff;}.ua18-6{fill:#455054;}.ua18-7{fill:#ffffff;}.ua18-8{fill:#ff1f4a;}.ua18-9{fill:#0068ff;}</style></defs><path class="ua18-1" d="M10,23V22H9v2H8v1h2V24h1V23Z"/><path class="ua18-2" d="M6,24V22H5v9H6V24Z"/><path class="ua18-2" d="M23,27H22v6h1V27Z"/><path class="ua18-3" d="M22,27H21v6h1V27Z"/><rect class="ua18-2" x="21" y="26" width="1" height="1"/><path class="ua18-2" d="M21,27H20v6h1V27Z"/><path class="ua18-3" d="M20,27h1V26H19V25H18V24H16v1h1v5H16V25H13v5H12V25h1V24H11v1H10v1H8v1H9v6H20V27Z"/><path class="ua18-2" d="M20,26h1V25H19v1Z"/><rect class="ua18-2" x="18" y="24" width="1" height="1"/><path class="ua18-2" d="M16,22h1V21h1V20h1V19h1V12H19V11H17V10H12v1H10v1H9v7h1v1h1v1h1v1h1v1H11v1h2v1h3V24h2V23H16Zm0-7V14h1v1h1V14h1v2H16Zm-4,1H10V14h1v1h1V14h1v2Zm1,5V20h3v1Z"/><rect class="ua18-2" x="10" y="24" width="1" height="1"/><path class="ua18-2" d="M9,27H8V26h2V25H8V24H7v7H6v1H8v1H9V27Z"/><path class="ua18-3" d="M7,30V24H6v7H7Z"/><path class="ua18-2" d="M12,26v4h1V25H12Z"/><path class="ua18-2" d="M16,30h1V25H16v5Z"/><rect class="ua18-4" x="13" y="20" width="3" height="1"/><path class="ua18-4" d="M13,15H10v1h3Z"/><path class="ua18-4" d="M19,15H16v1h3Z"/><path class="ua18-5" d="M13,14H12v1h1Z"/><path class="ua18-5" d="M11,14H10v1h1Z"/><path class="ua18-5" d="M19,14H18v1h1Z"/><path class="ua18-5" d="M17,14H16v1h1Z"/><rect class="ua18-1" x="8" y="21" width="1" height="1"/><path class="ua18-3" d="M8,15v5H9v1h1v1h1v1h2V22H12V21H11V20H10V19H9V12h1V11h2V10h5v1h2v1h1v7H19v1H18v1H17v1H16v1h2V22h1V21h1V20h1V11H20V10H19V9H18V8H11V9H10v1H9v1H8v4Z"/><rect class="ua18-2" x="10" y="8" width="1" height="1"/><rect class="ua18-2" x="9" y="9" width="1" height="1"/><rect class="ua18-2" x="8" y="10" width="1" height="1"/><path class="ua18-2" d="M8,15V11H7v5H8Z"/><rect class="ua18-2" x="8" y="20" width="1" height="1"/><rect class="ua18-2" x="9" y="21" width="1" height="1"/><rect class="ua18-2" x="10" y="22" width="1" height="1"/><rect class="ua18-2" x="18" y="22" width="1" height="1"/><rect class="ua18-2" x="19" y="21" width="1" height="1"/><rect class="ua18-2" x="20" y="20" width="1" height="1"/><path class="ua18-2" d="M21,20h1V11H21v9Z"/><rect class="ua18-2" x="20" y="10" width="1" height="1"/><rect class="ua18-2" x="19" y="9" width="1" height="1"/><rect class="ua18-2" x="18" y="8" width="1" height="1"/><path class="ua18-2" d="M18,8V7H11V8h7Z"/><path class="ua18-1" d="M0,7V33H8V32H6V31H5V22H6V21H7V20H5v1H2V17H5V16H7V11H8V10H9V9h1V8h1V7h7V8h1V9h1v1h1v1h1v9H21v1H20v1H19v1H18v1h1v1h2v1h1v1h1v6h6V0H0Z"/><path class="ua18-4" d="M7,24H8V22H6v2Z"/><path class="ua18-6" d="M8,22V20H7v2Z"/><path class="ua18-2" d="M7,21H6v1H7Z"/><path class="ua18-2" d="M9,22H8v2H9Z"/><path class="ua18-7" d="M5,17H2v1H5Z"/><path class="ua18-7" d="M8,16H5v1H8Z"/><path class="ua18-8" d="M8,19H5v1H8Z"/><path class="ua18-8" d="M2,21H5V20H2Z"/><path class="ua18-9" d="M8,19V17H5v1H2v2H5V19Z"/></svg>