<svg xmlns="http://www.w3.org/2000/svg" viewBox="0 0 29 33"><defs><style>polygon,rect,path{shape-rendering:crispedges;}.fa78-1{fill:#e55b35;}.fa78-2{fill:#000000;}.fa78-3{fill:#8e9350;}.fa78-4{fill:#efcaaf;}.fa78-5{fill:#8e9350;}.fa78-6{fill:#ffffff;}.fa78-7{fill:#8e4717;}.fa78-8{fill:#e70059;}.fa78-9{fill:#0068ff;}</style></defs><polygon class="fa78-1" points="0 33 6 33 6 32 6 31 6 30 6 29 6 28 6 27 6 26 6 24 7 24 7 23 8 23 8 24 9 24 9 25 10 25 10 24 11 24 12 24 12 23 12 22 12 21 11 21 11 20 10 20 9 20 9 19 8 19 8 18 8 17 8 16 8 15 8 14 8 13 8 12 8 11 9 11 9 10 10 10 10 9 11 9 11 8 12 8 13 8 14 8 15 8 16 8 17 8 18 8 18 9 19 9 19 10 20 10 20 11 21 11 21 12 21 13 21 14 21 15 21 16 21 17 21 18 21 19 20 19 20 20 19 20 18 20 18 21 17 21 17 22 17 23 17 24 18 24 19 24 19 25 20 25 21 25 21 26 22 26 22 27 23 27 23 28 23 29 23 30 23 31 23 32 23 33 29 33 29 0 0 0 0 33"/><polygon class="fa78-2" points="23 31 23 30 23 29 23 28 23 27 22 27 22 28 22 29 21 29 21 28 21 27 20 27 20 28 20 29 20 30 20 31 20 32 20 33 21 33 21 32 21 31 21 30 22 30 22 31 22 32 22 33 23 33 23 32 23 31"/><rect class="fa78-2" x="21" y="26" width="1" height="1"/><polygon class="fa78-2" points="20 26 21 26 21 25 20 25 19 25 19 26 20 26"/><polygon class="fa78-2" points="18 25 19 25 19 24 18 24 17 24 17 25 18 25"/><polygon class="fa78-2" points="13 23 14 23 15 23 16 23 16 24 17 24 17 23 17 22 17 21 16 21 16 22 15 22 14 22 13 22 13 21 12 21 12 22 12 23 12 24 13 24 13 23"/><polygon class="fa78-2" points="12 25 12 24 11 24 10 24 10 25 11 25 12 25"/><polygon class="fa78-2" points="9 31 9 30 9 29 9 28 9 27 8 27 8 28 8 29 8 30 8 31 8 32 8 33 9 33 9 32 9 31"/><polygon class="fa78-2" points="7 31 7 30 7 29 7 28 7 27 7 26 7 25 7 24 6 24 6 26 6 27 6 28 6 29 6 30 6 31 6 32 6 33 7 33 7 32 7 31"/><rect class="fa78-3" x="10" y="29" width="1" height="1"/><path class="fa78-3" d="M19,32V31H18v1H17V29h1V28h1v1h1V27h1V26H19V25H17v1H16v1H13V26H12V25H10v2H9v2h1V28h1v1h1v3H11V31H10v1H9v1H20V32Zm-3-2v1H15v1H13V28h2v1h1Z"/><rect class="fa78-3" x="18" y="29" width="1" height="1"/><polygon class="fa78-3" points="15 29 14 29 14 30 14 31 15 31 15 30 15 29"/><polygon class="fa78-3" points="21 28 21 29 22 29 22 28 22 27 21 27 21 28"/><polygon class="fa78-4" points="8 31 8 30 8 29 8 28 8 27 9 27 9 26 9 25 8 25 8 24 7 24 7 25 7 26 7 27 7 28 7 29 7 30 7 31 7 32 7 33 8 33 8 32 8 31"/><polygon class="fa78-4" points="13 25 13 26 14 26 15 26 16 26 16 25 17 25 17 24 16 24 16 23 15 23 14 23 13 23 13 24 12 24 12 25 13 25"/><polygon class="fa78-2" points="14 26 13 26 13 27 14 27 15 27 16 27 16 26 15 26 14 26"/><polygon class="fa78-4" points="22 31 22 30 21 30 21 31 21 32 21 33 22 33 22 32 22 31"/><rect class="fa78-2" x="12" y="25" width="1" height="1"/><rect class="fa78-2" x="16" y="25" width="1" height="1"/><polygon class="fa78-5" points="19 30 18 30 18 29 17 29 17 30 17 31 17 32 18 32 18 31 19 31 19 32 20 32 20 31 20 30 20 29 19 29 19 30"/><rect class="fa78-5" x="18" y="28" width="1" height="1"/><polygon class="fa78-5" points="15 30 15 31 16 31 16 30 16 29 15 29 15 30"/><polygon class="fa78-5" points="14 30 14 29 15 29 15 28 14 28 13 28 13 29 13 30 13 31 13 32 14 32 15 32 15 31 14 31 14 30"/><polygon class="fa78-5" points="9 31 9 32 10 32 10 31 11 31 11 32 12 32 12 31 12 30 12 29 11 29 11 30 10 30 10 29 9 29 9 30 9 31"/><rect class="fa78-5" x="10" y="28" width="1" height="1"/><path class="fa78-4" d="M13,22h3V21h1V20h1V19h1V16h1V15H16V13h1V11H15V10H14v1H13v1H12v1h1v2H9v1h1v3h1v1h1v1h1Zm1-6h1v1H14Zm-2,3V18h5v1H16v1H13V19Z"/><polygon class="fa78-2" points="20 17 20 16 19 16 19 17 19 18 19 19 20 19 20 18 20 17"/><rect class="fa78-2" x="18" y="19" width="1" height="1"/><rect class="fa78-2" x="17" y="20" width="1" height="1"/><rect class="fa78-2" x="11" y="20" width="1" height="1"/><rect class="fa78-2" x="10" y="19" width="1" height="1"/><polygon class="fa78-2" points="10 18 10 17 10 16 9 16 9 17 9 18 9 19 10 19 10 18"/><rect class="fa78-2" x="14" y="16" width="1" height="1"/><rect class="fa78-6" x="12" y="14" width="1" height="1"/><rect class="fa78-6" x="10" y="14" width="1" height="1"/><rect class="fa78-6" x="18" y="14" width="1" height="1"/><rect class="fa78-6" x="16" y="14" width="1" height="1"/><rect class="fa78-2" x="11" y="14" width="1" height="1"/><rect class="fa78-2" x="17" y="14" width="1" height="1"/><polygon class="fa78-7" points="11 14 12 14 13 14 13 13 12 13 11 13 11 14"/><polygon class="fa78-7" points="18 14 19 14 19 13 18 13 17 13 16 13 16 14 17 14 18 14"/><rect class="fa78-2" x="12" y="18" width="1" height="1"/><rect class="fa78-2" x="16" y="18" width="1" height="1"/><rect class="fa78-2" x="15" y="19" width="1" height="1"/><rect class="fa78-2" x="14" y="18" width="1" height="1"/><rect class="fa78-2" x="13" y="19" width="1" height="1"/><rect class="fa78-6" x="13" y="18" width="1" height="1"/><rect class="fa78-6" x="15" y="18" width="1" height="1"/><rect class="fa78-8" x="14" y="19" width="1" height="1"/><polygon class="fa78-2" points="9 27 10 27 10 26 10 25 9 25 9 26 9 27"/><rect class="fa78-2" x="8" y="24" width="1" height="1"/><rect class="fa78-2" x="7" y="23" width="1" height="1"/><polygon class="fa78-9" points="9 17 9 16 9 15 10 15 10 14 11 14 11 13 12 13 12 12 13 12 13 11 14 11 14 10 15 10 15 11 16 11 17 11 17 12 17 13 18 13 19 13 19 14 19 15 20 15 20 16 20 17 20 18 20 19 21 19 21 18 21 17 21 16 21 15 21 14 21 13 21 12 21 11 20 11 20 10 19 10 19 9 18 9 18 8 17 8 16 8 15 8 14 8 13 8 12 8 11 8 11 9 10 9 10 10 9 10 9 11 8 11 8 12 8 13 8 14 8 15 8 16 8 17 8 18 8 19 9 19 9 18 9 17"/><rect class="fa78-9" x="9" y="19" width="1" height="1"/><rect class="fa78-9" x="19" y="19" width="1" height="1"/></svg>