<svg xmlns="http://www.w3.org/2000/svg" viewBox="0 0 29 33"><defs><style>polygon,rect,path{shape-rendering:crispedges;}.xa58-1{fill:#29834f;}.xa58-2{fill:#45ba00;}.xa58-3{fill:#000000;}.xa58-4{fill:#efcaaf;}.xa58-5{fill:#ffffff;}.xa58-6{fill:#e70059;}.xa58-7{fill:#ffce00;}.xa58-8{fill:#0068ff;}.xa58-9{fill:#ff1f4a;}</style></defs><rect class="xa58-1" x="18" y="21" width="1" height="1"/><rect class="xa58-1" x="10" y="21" width="1" height="1"/><path class="xa58-1" d="M0,33H6V27H7V26H8V25h2V22H9V21H8V20H9V17H8V12H9V10h1V9h1V8h7V9h1v1h1v2h1v6H20v2h1v1H20v1H19v3h2v1h1v1h1v6h6V0H0Z"/><path class="xa58-2" d="M18,24V22H17v2H16v1H15v2H14v4h6V27h1V26H19V25H18Z"/><path class="xa58-2" d="M22,27H21v6h1V27Z"/><path class="xa58-2" d="M19,32H9v1H20V32Z"/><path class="xa58-2" d="M8,27H7v6H8V27Z"/><path class="xa58-2" d="M9,27v4h4V27h1V25H13V24H12V22H11v3H10v1H8v1Z"/><path class="xa58-3" d="M23,27H22v6h1V27Z"/><rect class="xa58-3" x="21" y="26" width="1" height="1"/><path class="xa58-3" d="M21,27H20v4H14V27H13v4H9V27H8v6H9V32H20v1h1V27Z"/><path class="xa58-3" d="M20,26h1V25H19v1Z"/><path class="xa58-3" d="M18,23v2h1V22H18Z"/><rect class="xa58-3" x="15" y="24" width="1" height="1"/><path class="xa58-3" d="M15,26V25H14v2h1Z"/><rect class="xa58-3" x="13" y="24" width="1" height="1"/><path class="xa58-4" d="M15,24h1V23H13v1h1v1h1Z"/><path class="xa58-3" d="M11,24V22H10v3h1Z"/><path class="xa58-3" d="M10,25H8v1h2Z"/><rect class="xa58-3" x="7" y="26" width="1" height="1"/><path class="xa58-3" d="M7,27H6v6H7V27Z"/><rect class="xa58-4" x="14" y="15" width="1" height="1"/><path class="xa58-4" d="M14,14h1V13h3V12H17V11H16V10H15v1H14v1H13v1h1Z"/><path class="xa58-4" d="M12,21h1v1h3V21h1V20h1V19h1V16H15v1H14V16H10v3h1v1h1Zm0-3h5v1H16v1H13V19H12Z"/><path class="xa58-3" d="M19,16v3h1V16Z"/><rect class="xa58-3" x="18" y="19" width="1" height="1"/><path class="xa58-3" d="M14,23h2v1h1V22h1V20H17v1H16v1H13V21H12V20H11v2h1v2h1V23Z"/><rect class="xa58-3" x="10" y="19" width="1" height="1"/><path class="xa58-3" d="M10,18H9v1h1Z"/><rect class="xa58-3" x="14" y="16" width="1" height="1"/><path class="xa58-3" d="M13,18H12v1h1Z"/><path class="xa58-3" d="M17,19V18H16v1Z"/><path class="xa58-3" d="M15,20h1V19H15Z"/><path class="xa58-3" d="M15,19V18H14v1Z"/><path class="xa58-3" d="M13,19v1h1V19Z"/><path class="xa58-5" d="M14,19V18H13v1Z"/><path class="xa58-5" d="M16,19V18H15v1Z"/><path class="xa58-6" d="M14,19v1h1V19Z"/><path class="xa58-7" d="M19,20H18v1h1v1h1V21h1V20H20V19H19Z"/><path class="xa58-7" d="M11,21V20H10V19H9v1H8v1H9v1h1V21Z"/><path class="xa58-7" d="M10,17V16H9V13h4V12h1V11h1V10h1v1h1v1h1v1h2v5h1V12H20V10H19V9H18V8H11V9H10v1H9v2H8v5H9v1h1Z"/><path class="xa58-5" d="M14,16V15h1v1h5V13H15v1H14V13H9v3h5Zm2-2h3v1H16Zm-6,0h3v1H10Z"/><path class="xa58-8" d="M19,15V14H16v1h3Z"/><path class="xa58-9" d="M13,15V14H10v1h3Z"/></svg>