<svg xmlns="http://www.w3.org/2000/svg" viewBox="0 0 29 33"><defs><style>polygon,rect,path{shape-rendering:crispedges;}.sa87-1{fill:#397d98;}.sa87-2{fill:#000000;}.sa87-3{fill:#5a2de2;}.sa87-4{fill:#e8b795;}.sa87-5{fill:#ffffff;}.sa87-6{fill:#7f5018;}.sa87-7{fill:#c9a717;}.sa87-8{fill:#ff6aa5;}.sa87-9{fill:#ff1f4a;}.sa87-10{fill:#ff791f;}.sa87-11{fill:#fad000;}.sa87-12{fill:#b6dc00;}.sa87-13{fill:#00af68;}.sa87-14{fill:#38a6e8;}.sa87-15{fill:#0068ff;}.sa87-16{fill:#6e12ff;}.sa87-17{fill:#ff1d99;}.sa87-18{fill:#cc2f76;}</style></defs><rect class="sa87-1" x="19" y="24" width="1" height="1"/><rect class="sa87-1" x="18" y="23" width="1" height="1"/><path class="sa87-2" d="M7,27H6v6H7V27Z"/><path class="sa87-3" d="M8,27H7v6H8V27Z"/><rect class="sa87-2" x="7" y="26" width="1" height="1"/><path class="sa87-2" d="M9,27H8v6H9V27Z"/><path class="sa87-3" d="M20,28H19V25H18V24H16v1h1v5H16V25H13v5H12V25h1V24H11v1H10v1H8v1H9v6H20V28Z"/><path class="sa87-2" d="M10,25H8v1h2Z"/><rect class="sa87-2" x="10" y="24" width="1" height="1"/><path class="sa87-2" d="M13,23H11v1h2Z"/><path class="sa87-2" d="M13,24v1h3V24H13Z"/><path class="sa87-4" d="M15,23H13v1h3V23Z"/><path class="sa87-2" d="M17,23H16v1h2V23Z"/><rect class="sa87-2" x="18" y="24" width="1" height="1"/><path class="sa87-2" d="M21,28H20v5h1V28Z"/><path class="sa87-3" d="M22,28H21v5h1V28Z"/><path class="sa87-2" d="M23,26H22v7h1V26Z"/><path class="sa87-2" d="M12,26v4h1V25H12Z"/><path class="sa87-2" d="M16,30h1V25H16v5Z"/><path class="sa87-4" d="M16,22V20H13v2h3Z"/><path class="sa87-4" d="M12,19V18h5v2h1V19h1V15H16V14H13v1H10v4h1v1h1Zm2-3h1v1H14Z"/><rect class="sa87-2" x="14" y="16" width="1" height="1"/><path class="sa87-5" d="M13,15V14H12v1Z"/><path class="sa87-5" d="M11,15V14H10v1Z"/><path class="sa87-5" d="M19,15V14H18v1Z"/><path class="sa87-5" d="M17,15V14H16v1Z"/><path class="sa87-2" d="M12,15V14H11v1Z"/><path class="sa87-2" d="M18,15V14H17v1Z"/><path class="sa87-3" d="M17,21v1H16v1h2V21Z"/><path class="sa87-3" d="M20,19h1V14H20v5Z"/><path class="sa87-3" d="M13,22H12V21H11V20H10V19H9V14H8v6H9v1h1v1h1v1h2Z"/><path class="sa87-2" d="M8,14V13H7v7H8V14Z"/><rect class="sa87-2" x="8" y="20" width="1" height="1"/><rect class="sa87-2" x="9" y="21" width="1" height="1"/><rect class="sa87-2" x="10" y="22" width="1" height="1"/><path class="sa87-2" d="M21,14v5h1V13H21Z"/><path class="sa87-2" d="M10,15V14H9v5h1V15Z"/><rect class="sa87-2" x="10" y="19" width="1" height="1"/><rect class="sa87-2" x="11" y="20" width="1" height="1"/><path class="sa87-2" d="M12,21v1h1V21Z"/><path class="sa87-2" d="M16,23V22H13v1h3Z"/><path class="sa87-2" d="M17,21H16v1h1Z"/><rect class="sa87-2" x="17" y="20" width="1" height="1"/><rect class="sa87-2" x="18" y="19" width="1" height="1"/><path class="sa87-2" d="M19,16v3h1V14H19v2Z"/><path class="sa87-1" d="M0,7V33H6V27H7V26H8V25h2V24h1V23H10V22H9V21H8V20H7V13H4V12H6V11H8V10h2V9h1V8h1V7h1V6h1V5h1V6h1V7h1V8h1V9h1v1h2v1h2v1h2v1H22v7h1v3H22v1H21v1h1v1h1v7h6V0H0Z"/><path class="sa87-6" d="M13,20V19H12v2h1Z"/><path class="sa87-6" d="M17,20V18H13v1h3v2h1Z"/><path class="sa87-7" d="M8,14H21V13h4V12H23V11H21V10H19V9H18V8H17V7H16V6H15V5H14V6H13V7H12V8H11V9H10v1H8v1H6v1H4v1H8Z"/><path class="sa87-2" d="M15,19H13v1h3V19Z"/><path class="sa87-2" d="M12,18v1h1V18Z"/><path class="sa87-5" d="M20,25v1h1V24H20Z"/><rect class="sa87-8" x="20" y="21" width="1" height="1"/><polygon class="sa87-9" points="20 23 19 23 19 24 20 24 21 24 21 23 20 23"/><rect class="sa87-10" x="21" y="23" width="1" height="1"/><path class="sa87-11" d="M22,22h1V20H22v2Z"/><path class="sa87-12" d="M20,19v1h2V19H20Z"/><rect class="sa87-13" x="19" y="19" width="1" height="1"/><rect class="sa87-13" x="18" y="20" width="1" height="1"/><path class="sa87-14" d="M19,21H18v2h1V21Z"/><path class="sa87-15" d="M19,22v1h2V22H19Z"/><path class="sa87-16" d="M22,21H21v2h1V21Z"/><path class="sa87-17" d="M20,21h2V20H20Z"/><path class="sa87-18" d="M19,21v1h1V20H19Z"/><path class="sa87-10" d="M22,23h1V22H22Z"/><path class="sa87-2" d="M21.5,26H22V25H21v1Z"/><path class="sa87-4" d="M21,26H20v2h2V26H21Z"/><path class="sa87-2" d="M20,25H19v3h1V25Z"/></svg>