<svg xmlns="http://www.w3.org/2000/svg" viewBox="0 0 29 33"><defs><style>polygon,rect,path{shape-rendering:crispedges;}.ha293-1{fill:#29834f;}.ha293-2{fill:#000000;}.ha293-3{fill:#3e5e00;}.ha293-4{fill:#c18d59;}.ha293-5{fill:#ffffff;}.ha293-6{fill:#492a23;}.ha293-7{fill:#492a23;}.ha293-8{fill:#ff1d99;}</style></defs><path class="ha293-1" d="M0,33H8V32H6V31H5V23H4V20H5V19H7v1H8v1H9v2H8v2h2V24h2V21H10V20H9V16H8V15H9V10h1V9h1V8h7V9h1v1h1v5h1v1H20v4H19v1H17v3h2v1h2v1h1v1h1v6h6V0H0Z"/><path class="ha293-2" d="M6,24V23H5v8H6V24Z"/><path class="ha293-3" d="M7,30V24H6v7H7Z"/><path class="ha293-2" d="M9,27H8V26h2V25H8V23H7v8H6v1H8v1H9V27Z"/><path class="ha293-3" d="M20,27h1V26H19V25H17v1H16v1H13V26H12V25H10v1H8v1H9v6H20V27Z"/><path class="ha293-2" d="M12,24H10v1h2Z"/><path class="ha293-2" d="M13,23h3v1h1V21H16v1H13V21H12v3h1Z"/><rect class="ha293-2" x="12" y="25" width="1" height="1"/><path class="ha293-2" d="M13,26v1h3V26H13Z"/><path class="ha293-4" d="M13,25v1h3V25h1V24H16V23H13v1H12v1Z"/><rect class="ha293-2" x="16" y="25" width="1" height="1"/><path class="ha293-2" d="M18,25h1V24H17v1Z"/><path class="ha293-2" d="M20,26h1V25H19v1Z"/><path class="ha293-2" d="M21,27H20v6h1V27Z"/><rect class="ha293-2" x="21" y="26" width="1" height="1"/><path class="ha293-3" d="M22,27H21v6h1V27Z"/><path class="ha293-2" d="M23,27H22v6h1V27Z"/><rect class="ha293-2" x="20" y="15" width="1" height="1"/><path class="ha293-2" d="M19,15h1V14H19Z"/><path class="ha293-4" d="M10,13v1h2V13Z"/><rect class="ha293-4" x="9" y="15" width="1" height="1"/><path class="ha293-4" d="M16,13V12h2V11H17V10H12v1H11v1h1v1h1v1h1V13Z"/><path class="ha293-4" d="M18,14V13H16v1h2Z"/><path class="ha293-4" d="M13,22h3V21h1V20h1V18h1V16h1V15H16V14H14v2h1v1H14V16H13v1H11V16H10v2h1v2h1v1h1Zm0-3h3V18h1v1H16v1H13Z"/><rect class="ha293-4" x="18" y="12" width="1" height="1"/><path class="ha293-2" d="M19,17h1V16H19Z"/><path class="ha293-2" d="M10,16H9v1h1Z"/><rect class="ha293-2" x="8" y="15" width="1" height="1"/><rect class="ha293-2" x="14" y="16" width="1" height="1"/><path class="ha293-5" d="M18,14v1h1V14Z"/><path class="ha293-2" d="M17,14H16v1h2V14Z"/><rect class="ha293-6" x="18" y="13" width="1" height="1"/><rect class="ha293-6" x="12" y="13" width="1" height="1"/><path class="ha293-6" d="M12,12H10v1h2Z"/><path class="ha293-7" d="M19,18H18v2H17v1h2V20h1V17H19Z"/><path class="ha293-7" d="M11,20V18H10V17H9v3h1v1h2V20Z"/><rect class="ha293-2" x="13" y="19" width="3" height="1"/><rect class="ha293-2" x="16" y="18" width="1" height="1"/><path class="ha293-2" d="M9,23V21H8v2Z"/><rect class="ha293-2" x="7" y="20" width="1" height="1"/><rect class="ha293-2" x="5" y="19" width="2" height="1"/><path class="ha293-2" d="M5,20H4v3H5V20Z"/><path class="ha293-4" d="M6,24H7V23H8V21H7V20H5v3H6Z"/><path class="ha293-8" d="M19,12v2h1V11H19Z"/><path class="ha293-8" d="M10,12h1V11h1V10h5v1h2V9H18V8H11V9H10v1H9v3h1Z"/><path class="ha293-2" d="M10,16h1v1h2V16h1V14H10V13H9v2h1Z"/><rect class="ha293-2" x="14" y="13" width="2" height="1"/><rect class="ha293-2" x="16" y="12" width="2" height="1"/><path class="ha293-2" d="M19,12V11H18v1Z"/><path class="ha293-2" d="M20,11V10H19v1Z"/></svg>