<svg xmlns="http://www.w3.org/2000/svg" viewBox="0 0 29 33"><defs><style>polygon,rect,path{shape-rendering:crispedges;}.fa15-1{fill:#b4bd09;}.fa15-2{fill:#000000;}.fa15-3{fill:#e8b795;}.fa15-4{fill:#508e5d;}.fa15-5{fill:#ffffff;}.fa15-6{fill:#492a23;}.fa15-7{fill:#10bcff;}.fa15-8{fill:#455054;}.fa15-9{fill:#002b4f;}.fa15-10{fill:#ff1f4a;}</style></defs><path class="fa15-1" d="M11,24h1V21H11V20H9V19H8v3H9v2H8v1h2V24Z"/><path class="fa15-1" d="M0,33H8V32H6V31H5V22H6V21H7V20H5v1H2V17H5V16H8V11H9V10h1V9h1V8h7V9h1v1h1v1h1v8H20v1H18v1H17v3h2v1h2v1h1v1h1v6h6V0H0Z"/><rect class="fa15-2" x="21" y="26" width="1" height="1"/><path class="fa15-2" d="M23,27H22v3H21V27H20v6h1V31h1v2h1V27Z"/><path class="fa15-2" d="M20,26h1V25H19v1Z"/><path class="fa15-2" d="M18,25h1V24H17v1Z"/><path class="fa15-2" d="M11,24H10v1h2V24Z"/><path class="fa15-2" d="M9,27H8V26h2V25H8V24H7v7H6v1H8v1H9V27Z"/><path class="fa15-2" d="M6,22H5v9H6V22Z"/><path class="fa15-3" d="M7,30V24H8V22H6v9H7Z"/><path class="fa15-4" d="M20,27h1V26H19V25H17v1H16v1H13V26H12V25H10v1H8v1H9v6H20V27Z"/><path class="fa15-2" d="M13,26v1h3V26H13Z"/><path class="fa15-3" d="M16,23H13v1H12v1h1v1h3V25h1V24H16Z"/><path class="fa15-4" d="M21,28v2h1V27H21Z"/><path class="fa15-3" d="M21,31v2h1V31Z"/><rect class="fa15-2" x="12" y="25" width="1" height="1"/><rect class="fa15-2" x="16" y="25" width="1" height="1"/><rect class="fa15-3" x="11" y="13" width="1" height="1"/><path class="fa15-3" d="M19,19V16h1V15H16V14h2V13H16V12h1V11H15V10H14v1H13v1H12v1h1v2H9v1h1v3h1v1h1v1h1v1h3V21h1V20h1V19Zm-5-3h1v1H14Zm3,3H16v1H13V19h3V18h1Z"/><path class="fa15-2" d="M20,16H19v3h1V16Z"/><path class="fa15-2" d="M18,19v1h1V19Z"/><rect class="fa15-2" x="17" y="20" width="1" height="1"/><path class="fa15-2" d="M16,22H13V21H12v3h1V23h3v1h1V21H16Z"/><rect class="fa15-2" x="11" y="20" width="1" height="1"/><path class="fa15-2" d="M11,20V19H10v1Z"/><path class="fa15-2" d="M10,18V16H9v3h1Z"/><rect class="fa15-2" x="14" y="16" width="1" height="1"/><path class="fa15-5" d="M12,15h1V14H12Z"/><path class="fa15-5" d="M11,14H10v1h1Z"/><path class="fa15-5" d="M18,15h1V14H18Z"/><path class="fa15-5" d="M16,14v1h1V14Z"/><path class="fa15-2" d="M12,15V14H11v1Z"/><path class="fa15-2" d="M17,14v1h1V14Z"/><rect class="fa15-6" x="18" y="13" width="1" height="1"/><path class="fa15-6" d="M16,13h1V12H16Z"/><path class="fa15-6" d="M13,14V13H12v1Z"/><rect class="fa15-2" x="13" y="19" width="3" height="1"/><rect class="fa15-2" x="16" y="18" width="1" height="1"/><path class="fa15-7" d="M8,18v1H9V15h1V14h1V13h1V12h1V11h1V10h1v1h2v2h2v2h1v4h1V11H20V10H19V9H18V8H11V9H10v1H9v1H8v7Z"/><path class="fa15-7" d="M10,20V19H9v1Z"/><path class="fa15-7" d="M19,20h1V19H19Z"/><path class="fa15-8" d="M8,22V20H7v2Z"/><path class="fa15-2" d="M7,21H6v1H7Z"/><path class="fa15-2" d="M9,22H8v2H9Z"/><path class="fa15-9" d="M4,21H5V20H4Z"/><path class="fa15-9" d="M5,18V17H4v1Z"/><path class="fa15-9" d="M3,19V18H2v2H3Z"/><path class="fa15-9" d="M5,19v1H6V19Z"/><path class="fa15-9" d="M6,16H5v1H6Z"/><path class="fa15-9" d="M8,17H7v2H8V17Z"/><path class="fa15-10" d="M3,17H2v1H3Z"/><path class="fa15-10" d="M6,17v1H3v2H4V19H7V17Z"/><path class="fa15-10" d="M8,17V16H7v1Z"/><path class="fa15-10" d="M8,19H7v1H8Z"/><path class="fa15-10" d="M2,20v1H3V20Z"/><path class="fa15-5" d="M3,20v1H4V20Z"/><path class="fa15-5" d="M4,19v1H5V19Z"/><path class="fa15-5" d="M4,18V17H3v1Z"/><path class="fa15-5" d="M7,17V16H6v1Z"/><path class="fa15-5" d="M6,18V17H5v1Z"/><path class="fa15-5" d="M6,19v1H7V19Z"/></svg>