<svg xmlns="http://www.w3.org/2000/svg" viewBox="0 0 29 33"><defs><style>polygon,rect,path{shape-rendering:crispedges;}.oa59-1{fill:#6b4f99;}.oa59-2{fill:#000000;}.oa59-3{fill:#6c9302;}.oa59-4{fill:#333333;}.oa59-5{fill:#c18d59;}.oa59-6{fill:#34e0cb;}.oa59-7{fill:#ffffff;}.oa59-8{fill:#e70059;}.oa59-9{fill:#db5800;}.oa59-10{fill:#68aaad;}</style></defs><path class="oa59-1" d="M6,32V27H7V26H8V25h2V24h2V22H11V21H10v1H9V21H8V20H7V19H8V12H9V10h1V9h1V8h7V9h1v1h1v2h1v7h1v1H21v1H20v1H19V21H18v1H17v2h2v1h2v1h1v1h1v6h6V0H0V33H6Z"/><path class="oa59-2" d="M23,27H22v6h1V27Z"/><rect class="oa59-2" x="21" y="26" width="1" height="1"/><path class="oa59-3" d="M21,28v2h1V27H21Z"/><path class="oa59-3" d="M21,31v2h1V31Z"/><path class="oa59-2" d="M21,30V27H20v6h1V30Z"/><path class="oa59-3" d="M20,32V26H19V25H18v3h1v1H18v4h1V32Z"/><path class="oa59-2" d="M20,26h1V25H19v1Z"/><path class="oa59-2" d="M18,29V25h1V24H17v1H16v1h1v7h1V29Z"/><path class="oa59-4" d="M17,26H16v1H13V26H12v7h5V26Z"/><path class="oa59-2" d="M13,26v1h3V26H13Z"/><path class="oa59-2" d="M13,23h3v1h1V21H16v1H13V21H12v3h1Z"/><path class="oa59-5" d="M13,25v1h3V25h1V24H16V23H13v1H12v1Z"/><path class="oa59-2" d="M12,26h1V25H12V24H10v1h1v8h1V26Z"/><path class="oa59-3" d="M11,29H10V28h1V25H10v1H9v6h1v1h1V29Z"/><path class="oa59-2" d="M10,26V25H8v1h2Z"/><path class="oa59-2" d="M9,31V27H8v6H9V31Z"/><rect class="oa59-2" x="7" y="26" width="1" height="1"/><path class="oa59-3" d="M7,30H8V27H7v3Z"/><path class="oa59-3" d="M7,31v2H8V31Z"/><path class="oa59-2" d="M7,30V27H6v6H7V30Z"/><path class="oa59-6" d="M10,29h1V28H10Z"/><path class="oa59-6" d="M19,29V28H18v1Z"/><path class="oa59-6" d="M9,27V26H8v1Z"/><path class="oa59-6" d="M19,32v1h1V32Z"/><path class="oa59-6" d="M9,32v1h1V32Z"/><path class="oa59-6" d="M7,31H8V30H7Z"/><path class="oa59-6" d="M21,31h1V30H21Z"/><path class="oa59-6" d="M20,27h1V26H20Z"/><path class="oa59-2" d="M20,16h1V15H20Z"/><path class="oa59-5" d="M14,13v1h1V13h3V12H17V11H16V10H13v1H12v1H11v1h3Z"/><path class="oa59-5" d="M18,20V19h1V16H16V15H13v1H10v3h1v1h1v1h1v1h3V21h1V20Zm-4-4h1v1H14Zm2,3v1H13V19H12V18h5v1Z"/><rect class="oa59-5" x="19" y="15" width="1" height="1"/><rect class="oa59-5" x="9" y="15" width="1" height="1"/><path class="oa59-2" d="M19,17v2h1V16H19Z"/><rect class="oa59-2" x="18" y="19" width="1" height="1"/><rect class="oa59-2" x="17" y="20" width="1" height="1"/><rect class="oa59-2" x="11" y="20" width="1" height="1"/><rect class="oa59-2" x="10" y="19" width="1" height="1"/><path class="oa59-2" d="M10,16H9v3h1V16Z"/><path class="oa59-2" d="M9,15H8v1H9Z"/><rect class="oa59-2" x="14" y="16" width="1" height="1"/><path class="oa59-2" d="M12,18v1h1V18Z"/><path class="oa59-2" d="M17,18H16v1h1Z"/><path class="oa59-2" d="M15,20h1V19H15Z"/><path class="oa59-2" d="M15,19V18H14v1Z"/><path class="oa59-2" d="M13,19v1h1V19Z"/><path class="oa59-7" d="M14,18H13v1h1Z"/><path class="oa59-7" d="M15,18v1h1V18Z"/><path class="oa59-8" d="M14,19v1h1V19Z"/><path class="oa59-9" d="M20,17v2H19v1H18v1h1v1h1V21h1V20h1V19H21V16H20Z"/><path class="oa59-9" d="M9,14h1V13h1V12h1V11h1V10h3v1h1v1h1v1h1v1h1v1h1V12H20V10H19V9H18V8H11V9H10v1H9v2H8v3H9Z"/><path class="oa59-9" d="M10,20V19H9V16H8v3H7v1H8v1H9v1h1V21h1V20Z"/><path class="oa59-9" d="M11,21v1h1V21Z"/><path class="oa59-9" d="M17,22h1V21H17Z"/><path class="oa59-10" d="M10,16h3V15h1V14H10v2Z"/><path class="oa59-10" d="M15,14v1h1v1h3V14H15Z"/><path class="oa59-2" d="M15,13v1h4V13H15Z"/><path class="oa59-2" d="M14,14V13H10v1h4Z"/><path class="oa59-2" d="M20,15V14H19v1Z"/><path class="oa59-2" d="M10,14H9v1h1Z"/><path class="oa59-2" d="M14,14v1h1V14Z"/></svg>