<svg xmlns="http://www.w3.org/2000/svg" viewBox="0 0 29 33"><defs><style>polygon,rect,path{shape-rendering:crispedges;}.fa248-1{fill:#397d98;}.fa248-2{fill:#000000;}.fa248-3{fill:#adb48a;}.fa248-4{fill:#e8b795;}.fa248-5{fill:#ffffff;}.fa248-6{fill:#ffffff;}.fa248-7{fill:#7f5018;}.fa248-8{fill:#db5800;}.fa248-9{fill:#316a6d;}.fa248-10{fill:#508e91;}</style></defs><path class="fa248-1" d="M0,33H6V24H7V23H8v1H9v1h1V24h2V21H10v1H9V21H8V20H9V17H8V12H9V10h1V9h1V8h7V9h1v1h1v2h1v6H20v2h1v1H20v1H19V21H17v3h2v1h2v1h1v1h1v6h6V0H0Z"/><path class="fa248-2" d="M23,27H22v2H21V27H20v6h1V30h1v3h1V27Z"/><rect class="fa248-2" x="21" y="26" width="1" height="1"/><path class="fa248-2" d="M20,26h1V25H19v1Z"/><path class="fa248-2" d="M18,25h1V24H17v1Z"/><path class="fa248-2" d="M13,23h3v1h1V21H16v1H13V21H12v3h1Z"/><path class="fa248-2" d="M12,24H10v1h2Z"/><path class="fa248-2" d="M9,27H8v6H9V27Z"/><path class="fa248-2" d="M7,24H6v9H7V24Z"/><rect class="fa248-3" x="13" y="29" width="1" height="2"/><path class="fa248-3" d="M20,27h1V26H19V25H17v1H16v1H13V26H12V25H10v2H9v6H20V27Zm-9,2v3H10V28h1Zm4,3H12V28h3Zm4-3H17v2h1V30h1v2H16V28h3Z"/><path class="fa248-3" d="M21,28v1h1V27H21Z"/><path class="fa248-4" d="M8,27H9V25H8V24H7v9H8V27Z"/><path class="fa248-4" d="M13,25v1h3V25h1V24H16V23H13v1H12v1Z"/><path class="fa248-2" d="M13,26v1h3V26H13Z"/><path class="fa248-4" d="M22,30H21v3h1V30Z"/><rect class="fa248-2" x="12" y="25" width="1" height="1"/><rect class="fa248-2" x="16" y="25" width="1" height="1"/><path class="fa248-5" d="M12,32h3V28H12Zm1-3h1v2H13Z"/><path class="fa248-5" d="M10,29v3h1V28H10Z"/><path class="fa248-5" d="M16,28v4h3V30H18v1H17V29h2V28H16Z"/><rect class="fa248-4" x="18" y="13" width="1" height="1"/><path class="fa248-4" d="M13,22h3V21h1V20h1V19h1V16H16V15H15V14H14v1H13v1H10v3h1v1h1v1h1Zm1-6h1v1H14Zm-2,3V18h1v1h3v1H13V19Z"/><path class="fa248-4" d="M17,13V11H16V10H15v1H14v1H13v1h4Z"/><rect class="fa248-4" x="19" y="15" width="1" height="1"/><path class="fa248-2" d="M19,16v3h1V16Z"/><rect class="fa248-2" x="18" y="19" width="1" height="1"/><path class="fa248-2" d="M17,20v1h1V20Z"/><path class="fa248-2" d="M11,20v1h1V20Z"/><rect class="fa248-2" x="10" y="19" width="1" height="1"/><path class="fa248-2" d="M10,18H9v1h1Z"/><rect class="fa248-2" x="14" y="16" width="1" height="1"/><path class="fa248-6" d="M10,15v1h1V15Z"/><path class="fa248-6" d="M18,15v1h1V15Z"/><path class="fa248-7" d="M18,13V12H17v1Z"/><rect class="fa248-2" x="13" y="19" width="3" height="1"/><rect class="fa248-2" x="12" y="18" width="1" height="1"/><path class="fa248-2" d="M10,27V25H9v2Z"/><rect class="fa248-2" x="8" y="24" width="1" height="1"/><rect class="fa248-2" x="7" y="23" width="1" height="1"/><path class="fa248-8" d="M19,20H18v1h1v1h1V21h1V20H20V19H19Z"/><path class="fa248-8" d="M10,20V19H9v1H8v1H9v1h1V21h1V20Z"/><path class="fa248-8" d="M10,17V15H9V14h2V13h2V12h1V11h1V10h1v1h1v1h1v1h1v1h1v4h1V12H20V10H19V9H18V8H11V9H10v1H9v2H8v5H9v1h1Z"/><path class="fa248-9" d="M12,14H11v1h2V14Z"/><path class="fa248-9" d="M18,15V14H16v1h2Z"/><path class="fa248-10" d="M11,16h2V15H11Z"/><path class="fa248-2" d="M18,15h2V14H18Z"/><path class="fa248-2" d="M11,14H9v1h2Z"/><path class="fa248-2" d="M17,14h1V13H11v1h2v1h1V14h1v1h1V14Z"/><path class="fa248-10" d="M17,15H16v1h2V15Z"/></svg>