<svg xmlns="http://www.w3.org/2000/svg" viewBox="0 0 29 33"><defs><style>polygon,rect,path{shape-rendering:crispedges;}.ib74-1{fill:#d14646;}.ib74-2{fill:#000000;}.ib74-3{fill:#e8b795;}.ib74-4{fill:#ffffff;}.ib74-5{fill:#4922aa;}.ib74-6{fill:#4922aa;}.ib74-7{fill:#6c9302;}.ib74-8{fill:#c6e5e4;}</style></defs><path class="ib74-1" d="M0,33H6V27H7V26H8V25h2V24h2V22H11V21H10V20H9V16H8V15H9V13H8V9H9V8h1V7h1V6h7V7h1V8h1V9h1v4H20v2h1v1H20v4H19v1H18v1H17v2h2v1h2V23h2V22H22V21H21V20h1V19h3v1h1v1H25v1H24v1h1v1H24v7H23v1H21v1h8V0H0Z"/><path class="ib74-2" d="M23,25v6h1V24H23Z"/><path class="ib74-2" d="M7,27H6v6H7V27Z"/><path class="ib74-3" d="M8,27H7v6H8V27Z"/><rect class="ib74-2" x="7" y="26" width="1" height="1"/><path class="ib74-2" d="M9,27H8v6H9V27Z"/><path class="ib74-3" d="M20,27h1V26H19V25H17V24H16V23H13v1H12v1H10v1H8v1H9v6h5V29h1v4h5V27Zm-8,2H11V28h1Zm6,0H17V28h1Z"/><path class="ib74-2" d="M10,25H8v1h2Z"/><rect class="ib74-2" x="11" y="28" width="1" height="1"/><path class="ib74-2" d="M12,24H10v1h2Z"/><path class="ib74-2" d="M13,23V22H12v2h1Z"/><path class="ib74-2" d="M15,29H14v4h1V29Z"/><rect class="ib74-2" x="17" y="28" width="1" height="1"/><path class="ib74-2" d="M18,25h1V24H17v1Z"/><path class="ib74-2" d="M22,32h1V31H22V23H21v2H19v1h2v1H20v6h1V32Z"/><path class="ib74-3" d="M22,31h1V24h1V23H22v8Z"/><rect class="ib74-2" x="20" y="15" width="1" height="1"/><rect class="ib74-3" x="10" y="12" width="1" height="1"/><rect class="ib74-3" x="18" y="12" width="1" height="1"/><path class="ib74-3" d="M10,17v1h1v1h1V18h2v1h1V18h2v1h1V18h1V16h1V15H16V14h2V13H16V12h2V11H11v1h2v1H11v1h2v1H9v1h1Zm4-1h1v1H14Z"/><rect class="ib74-3" x="13" y="20" width="1" height="1"/><rect class="ib74-3" x="15" y="20" width="1" height="1"/><path class="ib74-2" d="M16,23v1h1V22H16Z"/><path class="ib74-2" d="M10,14H9v1h1Z"/><rect class="ib74-2" x="8" y="15" width="1" height="1"/><rect class="ib74-2" x="14" y="16" width="1" height="1"/><path class="ib74-4" d="M10,15h1V14H10Z"/><path class="ib74-4" d="M16,14v1h1V14Z"/><path class="ib74-2" d="M12,15h1V14H11v1Z"/><path class="ib74-2" d="M18,14H17v1h3V14H18Z"/><path class="ib74-5" d="M19,13H18v1h1Z"/><rect class="ib74-5" x="16" y="12" width="2" height="1"/><rect class="ib74-5" x="10" y="13" width="1" height="1"/><rect class="ib74-5" x="11" y="12" width="2" height="1"/><path class="ib74-6" d="M13,23h3V22h2V21h1V20h1V16H19v2H18v1H17V18H15v1h1v2H15V20H14v1H13V19h1V18H12v1H11V18H10V16H9v4h1v1h1v1h2Z"/><path class="ib74-2" d="M13,19v1h3V19H13Z"/><path class="ib74-7" d="M10,13V12h1V11h7v1h1v2h1V13h1V9H20V8H19V7H18V6H11V7H10V8H9V9H8v4H9v1h1Z"/><path class="ib74-4" d="M25,22V21h1V20H25V19H23v1h1v1H23v1h2Z"/><path class="ib74-8" d="M24,21V20H23V19H22v1H21v1h1v1h1V21Z"/><path class="ib74-8" d="M24,22H23v1h1Z"/><rect class="ib74-2" x="24" y="23" width="1" height="1"/></svg>