<svg xmlns="http://www.w3.org/2000/svg" viewBox="0 0 29 33"><defs><style>polygon,rect,path{shape-rendering:crispedges;}.aa108-1{fill:#397d98;}.aa108-2{fill:#000000;}.aa108-3{fill:#b2622b;}.aa108-4{fill:#e0dbc6;}.aa108-5{fill:#8c7850;}.aa108-6{fill:#ffffff;}.aa108-7{fill:#b23b00;}.aa108-8{fill:#c9a717;}</style></defs><path class="aa108-1" d="M0,33H6V27H7V26H8V25h2V24h2V21H11V20H10V19H9V16H8V15H9V14H8V13H4V12H6V11H8V10h2V9h1V8h1V7h1V6h1V5h1V6h1V7h1V8h1V9h1v1h2v1h2v1h2v1H21v1H20v1h1v1H20v3H19v1H18v1H17v3h2v1h2v1h1v1h1v6h6V0H0Z"/><path class="aa108-2" d="M23,31V27H22v6h1Z"/><rect class="aa108-2" x="21" y="26" width="1" height="1"/><path class="aa108-3" d="M22,31V27H21v6h1Z"/><rect class="aa108-3" x="20" y="26" width="1" height="1"/><path class="aa108-2" d="M21,31V27H20v6h1Z"/><path class="aa108-2" d="M20,26h1V25H19v1Z"/><path class="aa108-4" d="M14,31v1h1V30H14Z"/><rect class="aa108-4" x="10" y="32" width="1" height="1"/><rect class="aa108-4" x="18" y="32" width="1" height="1"/><rect class="aa108-4" x="10" y="30" width="1" height="1"/><path class="aa108-4" d="M17,31V30h1V29h1v1h1V26H19V25H18v1H17v1H16v1H13V27H12V26H11V25H10v1H9v4h1V29h1v1h1v3h1V29h2v1h1v2H15v1h2Z"/><rect class="aa108-4" x="18" y="30" width="1" height="1"/><path class="aa108-2" d="M17,26h1V25h1V24H17Z"/><rect class="aa108-2" x="16" y="26" width="1" height="1"/><path class="aa108-2" d="M14,27H13v1h3V27Z"/><path class="aa108-2" d="M13,23h3v1h1V21H16v1H13V21H12v3h1Z"/><path class="aa108-3" d="M12,26h1v1h3V26h1V24H16V23H13v1H12Z"/><rect class="aa108-2" x="12" y="26" width="1" height="1"/><path class="aa108-2" d="M11,26h1V24H10v1h1Z"/><path class="aa108-2" d="M10,26V25H8v1Z"/><rect class="aa108-3" x="8" y="26" width="1" height="1"/><path class="aa108-2" d="M9,31V27H8v6H9Z"/><rect class="aa108-2" x="7" y="26" width="1" height="1"/><path class="aa108-3" d="M8,31V27H7v6H8Z"/><path class="aa108-2" d="M7,31V27H6v6H7Z"/><path class="aa108-5" d="M20,31V30H19v1H18V30H17v3h1V32h1v1h1Z"/><rect class="aa108-5" x="18" y="29" width="1" height="1"/><path class="aa108-5" d="M15,32h1V30H15Z"/><path class="aa108-5" d="M14,32V30h1V29H13v4h2V32Z"/><path class="aa108-5" d="M12,31V30H11v1H10V30H9v3h1V32h1v1h1Z"/><rect class="aa108-5" x="10" y="29" width="1" height="1"/><rect class="aa108-2" x="20" y="15" width="1" height="1"/><rect class="aa108-2" x="19" y="14" width="1" height="1"/><rect class="aa108-3" x="12" y="19" width="1" height="1"/><rect class="aa108-3" x="13" y="20" width="1" height="1"/><rect class="aa108-3" x="15" y="20" width="1" height="1"/><rect class="aa108-3" x="16" y="19" width="1" height="1"/><path class="aa108-3" d="M12,19V18h5v1h2V16h1V15H16V14H13v1H9v1h1v3Zm2-3h1v1H14Z"/><path class="aa108-2" d="M19,17v2h1V16H19Z"/><rect class="aa108-2" x="18" y="19" width="1" height="1"/><rect class="aa108-2" x="17" y="20" width="1" height="1"/><rect class="aa108-2" x="11" y="20" width="1" height="1"/><rect class="aa108-2" x="10" y="19" width="1" height="1"/><rect class="aa108-2" x="9" y="14" width="1" height="1"/><path class="aa108-2" d="M10,17V16H9v3h1Z"/><rect class="aa108-2" x="8" y="15" width="1" height="1"/><rect class="aa108-2" x="14" y="16" width="1" height="1"/><rect class="aa108-6" x="12" y="14" width="1" height="1"/><rect class="aa108-6" x="10" y="14" width="1" height="1"/><rect class="aa108-6" x="18" y="14" width="1" height="1"/><rect class="aa108-6" x="16" y="14" width="1" height="1"/><rect class="aa108-2" x="11" y="14" width="1" height="1"/><rect class="aa108-2" x="17" y="14" width="1" height="1"/><rect class="aa108-7" x="17" y="19" width="1" height="1"/><rect class="aa108-7" x="16" y="20" width="1" height="1"/><path class="aa108-7" d="M15,20H14v1H13v1h3V21H15Z"/><rect class="aa108-7" x="12" y="20" width="1" height="1"/><rect class="aa108-7" x="11" y="19" width="1" height="1"/><rect class="aa108-2" x="12" y="18" width="1" height="1"/><rect class="aa108-2" x="16" y="18" width="1" height="1"/><path class="aa108-2" d="M15,20h1V19H15V18H14v1H13v1Z"/><rect class="aa108-6" x="13" y="18" width="1" height="1"/><rect class="aa108-6" x="15" y="18" width="1" height="1"/><path class="aa108-8" d="M11,14H21V13h4V12H23V11H21V10H19V9H18V8H17V7H16V6H15V5H14V6H13V7H12V8H11V9H10v1H8v1H6v1H4v1H8v1Z"/></svg>