<svg xmlns="http://www.w3.org/2000/svg" viewBox="0 0 29 33"><defs><style>polygon,rect,path{shape-rendering:crispedges;}.ha276-1{fill:#000000;}.ha276-2{fill:#184226;}.ha276-3{fill:#e8b795;}.ha276-4{fill:#508e5d;}.ha276-5{fill:#ffffff;}.ha276-6{fill:#af8423;}.ha276-7{fill:#4922aa;}.ha276-8{fill:#893a1f;}.ha276-9{fill:#dfdfdf;}.ha276-10{fill:#b2622b;}.ha276-11{fill:#d14646;}</style></defs><path class="ha276-1" d="M23,27H22v6h1V27Z"/><rect class="ha276-1" x="21" y="26" width="1" height="1"/><path class="ha276-2" d="M22,27H21v6h1V27Z"/><path class="ha276-1" d="M21,27H20v6h1V27Z"/><path class="ha276-1" d="M20,26h1V25H19v1Z"/><rect class="ha276-2" x="12" y="30" width="1" height="1"/><path class="ha276-2" d="M20,27h1V26H19V25H17v1H16v1H13V26H12V25H10v1H9v7h1V30h1V29h1V28h5v1h1v1h1v3h1V27Z"/><path class="ha276-2" d="M16,32H12v1h5V32Z"/><rect class="ha276-2" x="16" y="30" width="1" height="1"/><path class="ha276-1" d="M18,25h1V24H17v1Z"/><rect class="ha276-1" x="16" y="25" width="1" height="1"/><path class="ha276-1" d="M13,26v1h3V26H13Z"/><path class="ha276-1" d="M13,23V22H12v2h1Z"/><path class="ha276-3" d="M13,25v1h3V25h1V24H16V23H13v1H12v1Z"/><rect class="ha276-1" x="12" y="25" width="1" height="1"/><path class="ha276-1" d="M12,24H10v1h2Z"/><path class="ha276-1" d="M9,26h1V25H8v1H7v1H8v6H9V26Z"/><path class="ha276-2" d="M8,27H7v6H8V27Z"/><path class="ha276-1" d="M7,27H6v6H7V27Z"/><path class="ha276-4" d="M19,30H18V29H17V28H12v1H11v1H10v3h2V32h5v1h2V30Zm-6,1H12V30h1Zm4,0H16V30h1Z"/><rect class="ha276-1" x="19" y="13" width="1" height="1"/><rect class="ha276-3" x="13" y="20" width="1" height="1"/><rect class="ha276-3" x="19" y="15" width="1" height="1"/><rect class="ha276-3" x="15" y="20" width="1" height="1"/><rect class="ha276-3" x="9" y="15" width="1" height="1"/><path class="ha276-3" d="M18,16H16V14H14v2h1v1H14V16H13v1H11V16H10v2h1v1h1V18h2v1h1V18h2v1h1V18h1V16Z"/><path class="ha276-3" d="M14,14V13H10v1h4Z"/><rect class="ha276-3" x="16" y="13" width="1" height="1"/><path class="ha276-1" d="M19,16v1h1V16Z"/><path class="ha276-1" d="M16,23v1h1V22H16Z"/><path class="ha276-1" d="M10,16H9v1h1Z"/><rect class="ha276-1" x="14" y="16" width="1" height="1"/><path class="ha276-5" d="M16,14v2h1V14Z"/><path class="ha276-5" d="M18,15v1h1V14H18Z"/><path class="ha276-1" d="M18,14H17v2h1V14Z"/><path class="ha276-6" d="M14,18H13v1h1Z"/><path class="ha276-6" d="M13,23h3V22h1V21h1V20h1V19h1V17H19v1H18v1H17V18H15v1h1v2H15V20H14v1H13V19H11V18H10V17H9v2h1v1h1v1h1v1h1Z"/><path class="ha276-1" d="M13,19v1h3V19H13Z"/><path class="ha276-1" d="M12,18v1h1V18Z"/><path class="ha276-7" d="M20,14H19v1h1v2h1V15h1V14H21V13H20Z"/><path class="ha276-7" d="M18,14h1V13H17v1Z"/><path class="ha276-7" d="M9,15h1V14H7v1H8v2H9V15Z"/><path class="ha276-1" d="M11,17h2V16h1V14H10v2h1Z"/><path class="ha276-1" d="M16,14V13H14v1Z"/><path class="ha276-1" d="M10,13H9v1h1Z"/><path class="ha276-8" d="M24,11H22v1h2Z"/><rect class="ha276-9" x="21" y="7" width="1" height="1"/><path class="ha276-8" d="M11,13H22V12H20V11H19v1H10V11H9v1H7v1h4Z"/><rect class="ha276-9" x="20" y="8" width="1" height="1"/><rect class="ha276-10" x="19" y="10" width="1" height="1"/><path class="ha276-5" d="M18,11h1V10h1V8h1V7h1V6H20V7H19V8H18v3Z"/><path class="ha276-10" d="M17,11H10v1h9V11H17Z"/><path class="ha276-8" d="M11,11h7V7H16V8H13V7H11V8H10v3Z"/><path class="ha276-10" d="M10,10H9v1h1Z"/><path class="ha276-8" d="M6,11H5v1H7V11Z"/><path class="ha276-11" d="M0,33H6V27H7V26H8V25h2V24h2V21H11V20H10V19H9V17H8V15H7V14H9V13H7V12H5V11H7v1H9V10h1V8h1V7h2V8h3V7h2V8h1V7h1V6h2V8H21V9H20v3h2V11h2v1H22v1H21v1h1v1H21v2H20v2H19v1H18v1H17v3h2v1h2v1h1v1h1v6h6V0H0Z"/></svg>