<svg xmlns="http://www.w3.org/2000/svg" viewBox="0 0 29 33"><defs><style>polygon,rect,path{shape-rendering:crispedges;}.bb139-1{fill:#b4bd09;}.bb139-2{fill:#000000;}.bb139-3{fill:#333333;}.bb139-4{fill:#ffffff;}.bb139-5{fill:#a56e49;}.bb139-6{fill:#473a35;}.bb139-7{fill:#473a35;}.bb139-8{fill:#0079bc;}.bb139-9{fill:#ff6aa5;}.bb139-10{fill:#ad5a21;}</style></defs><path class="bb139-1" d="M0,33H6V25H7V23H8V22h3v1h1V21H10V20H9V18H8V13H9V11h1V10h1V9h7v1h1v1h1v1h1v6H20v2H19v1H17v2h1v1h1v1h2v1h1v1h1v6h6V0H0Z"/><path class="bb139-2" d="M23,27H22v6h1V27Z"/><rect class="bb139-2" x="21" y="26" width="1" height="1"/><path class="bb139-3" d="M22,27H21v6h1V27Z"/><path class="bb139-2" d="M21,27H20v6h1V27Z"/><path class="bb139-2" d="M20,26h1V25H19v1Z"/><path class="bb139-3" d="M20,27h1V26H19V25H18v4H17v4h3V27Z"/><rect class="bb139-4" x="16" y="24" width="1" height="1"/><path class="bb139-2" d="M17,29H16v4h1V29Z"/><rect class="bb139-4" x="15" y="23" width="1" height="1"/><path class="bb139-4" d="M16,29h1V26H16V25H13v1H12v3h1v4h1V32h1v1h1V29Zm-1,2H14V30h1Zm0-2H14V28h1Zm0-2H14V26h1Z"/><rect class="bb139-2" x="14" y="26" width="1" height="1"/><rect class="bb139-2" x="14" y="28" width="1" height="1"/><rect class="bb139-2" x="14" y="30" width="1" height="1"/><rect class="bb139-2" x="14" y="32" width="1" height="1"/><rect class="bb139-4" x="13" y="23" width="1" height="1"/><rect class="bb139-4" x="12" y="24" width="1" height="1"/><path class="bb139-2" d="M13,29H12v4h1V29Z"/><path class="bb139-2" d="M13,24V23h1v1H13v1h3V24H15V23h1v1h1v1H16v1h1v3h1V25h1V24H18V23H17V21H16v1H13V21H12v3Z"/><rect class="bb139-2" x="12" y="25" width="1" height="1"/><path class="bb139-2" d="M11,27v2h1V26H11Z"/><path class="bb139-3" d="M12,29H11V27H9v6h3V29Z"/><path class="bb139-2" d="M9,27H8v6H9V27Z"/><path class="bb139-4" d="M7,28H8V27H7Z"/><path class="bb139-3" d="M8,28H7v5H8V28Z"/><path class="bb139-2" d="M7,28V25H6v8H7V28Z"/><rect class="bb139-2" x="19" y="14" width="1" height="1"/><rect class="bb139-5" x="17" y="11" width="1" height="1"/><rect class="bb139-5" x="19" y="15" width="1" height="1"/><rect class="bb139-5" x="17" y="13" width="1" height="1"/><rect class="bb139-5" x="9" y="15" width="1" height="1"/><path class="bb139-5" d="M13,22h3V21h1V20h1V15H16v1H15v1H14V16h1V14h1V12H15V11H14v4H13v2H12V15H11v5h1v1h1Zm0-3h3V18h1v1H16v1H13Z"/><rect class="bb139-5" x="12" y="12" width="1" height="1"/><rect class="bb139-5" x="11" y="13" width="1" height="1"/><rect class="bb139-2" x="19" y="16" width="1" height="1"/><rect class="bb139-2" x="9" y="16" width="1" height="1"/><rect class="bb139-2" x="14" y="16" width="1" height="1"/><rect class="bb139-4" x="12" y="14" width="1" height="1"/><path class="bb139-4" d="M16,14v1h1V14Z"/><rect class="bb139-2" x="11" y="14" width="1" height="1"/><path class="bb139-2" d="M17,14v1h1V14Z"/><rect class="bb139-6" x="17" y="12" width="1" height="1"/><rect class="bb139-6" x="12" y="13" width="1" height="1"/><rect class="bb139-6" x="11" y="12" width="1" height="1"/><path class="bb139-7" d="M19,18H18v2H17v1h2V18Z"/><rect class="bb139-7" x="19" y="17" width="1" height="1"/><path class="bb139-7" d="M11,20V18H10v3h2V20Z"/><rect class="bb139-7" x="9" y="17" width="1" height="1"/><rect class="bb139-2" x="13" y="19" width="3" height="1"/><rect class="bb139-2" x="16" y="18" width="1" height="1"/><path class="bb139-8" d="M9,16V15h1v3h1V12h2v3h1V11h1v1h1v2h1V11h1v7h1V14h1v4h1V12H20V11H19V10H18V9H11v1H10v1H9v2H8v5H9V16Z"/><path class="bb139-8" d="M19,19v1h1V18H19Z"/><path class="bb139-8" d="M15,14v2h1V14Z"/><path class="bb139-8" d="M12,16v1h1V15H12Z"/><path class="bb139-8" d="M9,18v2h1V18Z"/><path class="bb139-5" d="M8,27H9V25H7v2Z"/><path class="bb139-9" d="M8,23H7v1H8Z"/><path class="bb139-9" d="M9,22H8v1H9Z"/><path class="bb139-9" d="M11,23V22H10v1Z"/><path class="bb139-9" d="M11,26V25H9v1h2Z"/><rect class="bb139-9" x="11" y="24" width="1" height="1"/><path class="bb139-10" d="M8,25H9V24h1v1h1V23H8v2Z"/><path class="bb139-10" d="M10,26H9v1h2V26Z"/><path class="bb139-4" d="M8,24H7v1H8Z"/><path class="bb139-4" d="M10,23V22H9v1Z"/><path class="bb139-4" d="M12,24V23H11v1Z"/><rect class="bb139-4" x="11" y="25" width="1" height="1"/><path class="bb139-2" d="M10,24H9v1h1Z"/></svg>