<svg xmlns="http://www.w3.org/2000/svg" viewBox="0 0 29 33"><defs><style>polygon,rect,path{shape-rendering:crispedges;}.za163-1{fill:#db5a8e;}.za163-2{fill:#000000;}.za163-3{fill:#4fdb7d;}.za163-4{fill:#b2622b;}.za163-5{fill:#00774c;}.za163-6{fill:#ffffff;}.za163-7{fill:#7f5018;}.za163-8{fill:#7f5018;}.za163-9{fill:#a7af69;}.za163-10{fill:#ccc;}.za163-11{fill:#455054;}.za163-12{fill:#ff1f4a;}</style></defs><path class="za163-1" d="M8,32H6V31H5V22H6V21H7V20H5v1H2V17H5V16H7V13H8V10H9V9h1V8h1V7h7V8h1V9h1v1h1v3h1v4H20v2H19v1H18v1H17v2h1v1h1v1h2v1h1v1h1v6h6V0H0V33H8Z"/><path class="za163-1" d="M11,24V23h1V21H11V20H10V19H9V17H8v5H9v2H8v1h2V24Z"/><path class="za163-2" d="M6,29V22H5v9H6V29Z"/><path class="za163-2" d="M23,27H22v6h1V27Z"/><path class="za163-3" d="M21,31v1h1V30H21Z"/><path class="za163-3" d="M21,28h1V27H21Z"/><rect class="za163-2" x="21" y="26" width="1" height="1"/><path class="za163-2" d="M21,31V27H20v6h1V31Z"/><rect class="za163-3" x="14" y="29" width="1" height="1"/><path class="za163-3" d="M18,26v2h1v1h1V27H19V25H18Z"/><path class="za163-3" d="M13,29h1V27H13V26H12v2h1Z"/><path class="za163-3" d="M14,31H13V30H12V28H11V27H10V26H9v2h1v1h1v2h1v1h1v1h1V31Z"/><path class="za163-3" d="M10,31V30H9v2h1v1h1V31Z"/><path class="za163-3" d="M16,31V30H15v2h1v1h1V31Z"/><path class="za163-3" d="M19,31V30H18V28H17V27H16V25H15v3h1v1h1v2h1v1h1v1h1V31Z"/><path class="za163-2" d="M20,26h1V25H19v1Z"/><rect class="za163-3" x="16" y="24" width="1" height="1"/><rect class="za163-2" x="15" y="24" width="1" height="1"/><path class="za163-2" d="M14,32v1h1V32Z"/><path class="za163-2" d="M14,31h1V30H14Z"/><path class="za163-2" d="M14,29h1V28H14Z"/><path class="za163-2" d="M14,26v1h1V25H14Z"/><rect class="za163-2" x="13" y="24" width="1" height="1"/><path class="za163-4" d="M16,24V23H13v1h1v1h1V24Z"/><path class="za163-2" d="M9,31V27H8V26h2V25H8V24H7v7H6v1H8v1H9V31Z"/><path class="za163-3" d="M6,26v2H7V25H6Z"/><path class="za163-3" d="M7,30H6v1H7Z"/><path class="za163-5" d="M19,28H18v2h1v1h1V29H19Z"/><path class="za163-5" d="M21,29v1h1V28H21Z"/><path class="za163-5" d="M21,32v1h1V32Z"/><path class="za163-5" d="M16,26v1h1v1h1V26Z"/><path class="za163-5" d="M19,26v1h2V26H19Z"/><path class="za163-5" d="M18,32V31H17v2h2V32Z"/><path class="za163-5" d="M15,30h1v1h1V29H16V28H15v2Z"/><path class="za163-5" d="M14,28h1V27H14Z"/><path class="za163-5" d="M14,27V25H13v2Z"/><path class="za163-5" d="M14,32h1V31H14Z"/><rect class="za163-5" x="15" y="32" width="1" height="1"/><path class="za163-5" d="M14,29H13V28H12v2h1v1h1V29Z"/><rect class="za163-5" x="12" y="24" width="1" height="1"/><path class="za163-5" d="M11,26V25H10v2h1v1h1V26Z"/><path class="za163-5" d="M12,32V31H11v2h2V32Z"/><path class="za163-5" d="M10,30v1h1V29H10V28H9v2Z"/><path class="za163-5" d="M6,25H7V24H6Z"/><path class="za163-5" d="M6,29v1H7V28H6Z"/><path class="za163-5" d="M9,32v1h1V32Z"/><path class="za163-5" d="M8,27H9V26H8Z"/><rect class="za163-4" x="12" y="19" width="1" height="1"/><rect class="za163-4" x="16" y="19" width="1" height="1"/><rect class="za163-4" x="15" y="20" width="1" height="1"/><rect class="za163-4" x="13" y="20" width="1" height="1"/><path class="za163-4" d="M19,16V15H16V13h3V12H18V11H17V10H12v1H11v1h2v1H10v1h3v1H10v4h2V18h5v1h2V16Zm-4,1H14V16h1Z"/><path class="za163-2" d="M19,16v3h1V16Z"/><path class="za163-2" d="M18,20h1V19H18Z"/><rect class="za163-2" x="17" y="20" width="1" height="1"/><path class="za163-2" d="M16,22H13V21H12v2H11v1H10v1h1v1h2V25H12V24h1V23h3v1h1v1H16v1h2V25h1V24H18V23H17V21H16Z"/><rect class="za163-2" x="11" y="20" width="1" height="1"/><path class="za163-2" d="M11,20V19H10v1Z"/><path class="za163-2" d="M10,19V16H9v3Z"/><rect class="za163-2" x="14" y="16" width="1" height="1"/><path class="za163-6" d="M18,14v1h1V14Z"/><path class="za163-6" d="M13,15V14H12v1Z"/><path class="za163-2" d="M17,14H16v1h2V14Z"/><path class="za163-2" d="M11,15h1V14H10v1Z"/><path class="za163-7" d="M13,12H10v1h3Z"/><path class="za163-7" d="M16,14h3V13H16Z"/><path class="za163-8" d="M17,19v1h1V19Z"/><rect class="za163-8" x="16" y="20" width="1" height="1"/><path class="za163-8" d="M15,20H14v1H13v1h3V21H15Z"/><path class="za163-8" d="M14,19h2V18H12v1h2Z"/><rect class="za163-8" x="12" y="20" width="1" height="1"/><path class="za163-8" d="M12,20V19H11v1Z"/><path class="za163-2" d="M15,19H13v1h3V19Z"/><path class="za163-2" d="M17,19V18H16v1Z"/><path class="za163-9" d="M9,13h1V12h1V11h1V10h5v1h1v1h1v1h1V10H19V9H18V8H11V9H10v1H9v3Z"/><path class="za163-6" d="M8,17H9V10H8v3H7v3H8Z"/><rect class="za163-6" x="9" y="9" width="1" height="1"/><rect class="za163-6" x="10" y="8" width="1" height="1"/><path class="za163-6" d="M18,8V7H11V8h7Z"/><rect class="za163-6" x="18" y="8" width="1" height="1"/><rect class="za163-6" x="19" y="9" width="1" height="1"/><path class="za163-10" d="M10,15V13H9v3h1Z"/><path class="za163-6" d="M20,13v4h1V16h1V13H21V10H20v3Z"/><path class="za163-10" d="M19,15v1h1V13H19v2Z"/><path class="za163-10" d="M21,17h1V16H21Z"/><path class="za163-4" d="M7,24H8V22H6v2Z"/><path class="za163-11" d="M8,22V20H7v2Z"/><path class="za163-2" d="M7,21H6v1H7Z"/><path class="za163-2" d="M9,22H8v2H9Z"/><path class="za163-6" d="M4,19V18H5V17H3v4H5V20H4Z"/><path class="za163-6" d="M5,16v1H6v2H5v1H7V16Z"/><path class="za163-12" d="M2,17v4H3V17Z"/><path class="za163-12" d="M8,19V16H7v4H8Z"/><path class="za163-12" d="M6,19V17H5v1H4v2H5V19Z"/></svg>