<svg xmlns="http://www.w3.org/2000/svg" viewBox="0 0 29 33"><defs><style>polygon,rect,path{shape-rendering:crispedges;}.da59-1{fill:#db5a8e;}.da59-2{fill:#000000;}.da59-3{fill:#00774c;}.da59-4{fill:#efcaaf;}.da59-5{fill:#4fdb7d;}.da59-6{fill:#5e362f;}.da59-7{fill:#5e362f;}.da59-8{fill:#0068ff;}.da59-9{fill:#ffffff;}.da59-10{fill:#0068ff;}.da59-11{fill:#ff1f4a;}</style></defs><path class="da59-1" d="M6,32V27H7V26H8V25h2V24h2V21H11V20H9V18H8V13H9V11h1V10h1V9h7v1h1v1h1v1h1v6H20v2H18v1H17v3h2v1h2v1h1v1h1v6h6V0H0V33H6Z"/><path class="da59-2" d="M23,27H22v3H21V27H20v6h1V31h1v2h1V27Z"/><rect class="da59-2" x="21" y="26" width="1" height="1"/><path class="da59-3" d="M21,28v2h1V27H21Z"/><path class="da59-4" d="M21,31v2h1V31Z"/><path class="da59-2" d="M20,26h1V25H19v1Z"/><rect class="da59-3" x="10" y="29" width="1" height="1"/><rect class="da59-3" x="18" y="29" width="1" height="1"/><path class="da59-3" d="M19,32V31H18v1H17V29h1V28h1v1h1V27h1V26H19V25H17v1H16v1H13V26H12V25H10v1H8v1H9v2h1V28h1v1h1v3H11V31H10v1H9v1H20V32Zm-3-2v1H15v1H13V28h2v1h1Z"/><path class="da59-3" d="M15,29H14v2h1V29Z"/><path class="da59-2" d="M18,25h1V24H17v1Z"/><rect class="da59-2" x="16" y="25" width="1" height="1"/><path class="da59-2" d="M13,26v1h3V26H13Z"/><path class="da59-2" d="M13,23h3v1h1V21H16v1H13V21H12v3h1Z"/><path class="da59-4" d="M13,25v1h3V25h1V24H16V23H13v1H12v1Z"/><rect class="da59-2" x="12" y="25" width="1" height="1"/><path class="da59-2" d="M12,24H10v1h2Z"/><path class="da59-2" d="M10,25H8v1h2Z"/><path class="da59-2" d="M9,31V27H8v3H7V27H6v6H7V31H8v2H9V31Z"/><rect class="da59-2" x="7" y="26" width="1" height="1"/><path class="da59-3" d="M7,30H8V27H7v3Z"/><path class="da59-4" d="M7,31v2H8V31Z"/><path class="da59-5" d="M19,30H18V29H17v3h1V31h1v1h1V29H19Z"/><rect class="da59-5" x="18" y="28" width="1" height="1"/><path class="da59-5" d="M15,30v1h1V29H15Z"/><path class="da59-5" d="M14,30V29h1V28H13v4h2V31H14Z"/><path class="da59-5" d="M9,32h1V31h1v1h1V29H11v1H10V29H9v3Z"/><rect class="da59-5" x="10" y="28" width="1" height="1"/><rect class="da59-4" x="17" y="11" width="1" height="1"/><rect class="da59-4" x="12" y="12" width="1" height="1"/><rect class="da59-4" x="14" y="15" width="1" height="1"/><path class="da59-4" d="M13,22h3V21h1V20h1V19h1V18H18V16H15v1H14V16H13v1H12V16H11v2H10v1h1v1h1v1h1Zm-1-3V18h5v1H16v1H13V19Z"/><path class="da59-4" d="M15,12V11H14v3h1V13h1V12Z"/><path class="da59-2" d="M19,16v2h1V16Z"/><path class="da59-2" d="M18,19v1h1V19Z"/><rect class="da59-2" x="17" y="20" width="1" height="1"/><rect class="da59-2" x="11" y="20" width="1" height="1"/><path class="da59-2" d="M10,19v1h1V19Z"/><path class="da59-2" d="M10,17V16H9v2h1Z"/><rect class="da59-2" x="14" y="16" width="1" height="1"/><rect class="da59-6" x="17" y="12" width="1" height="1"/><rect class="da59-6" x="11" y="12" width="1" height="1"/><path class="da59-7" d="M16,19V18H12v1h4Z"/><path class="da59-2" d="M13,20h3V19H13Z"/><path class="da59-2" d="M17,19V18H16v1Z"/><path class="da59-8" d="M9,15V13H8v5H9V15Z"/><path class="da59-8" d="M18,16v2h1V16Z"/><path class="da59-8" d="M10,17v1h1V16H10Z"/><path class="da59-8" d="M11,12h2v1h1V11h1v1h1v1h1V11h1v2h2v5h1V12H20V11H19V10H18V9H11v1H10v1H9v2h2Z"/><path class="da59-8" d="M19,19v1h1V18H19Z"/><rect class="da59-8" x="12" y="16" width="1" height="1"/><path class="da59-8" d="M10,18H9v2h1V18Z"/><path class="da59-9" d="M9,16h5V15h1v1h5V13H15v1H14V13H9v3Zm7-2h3v1H16Zm-6,0h3v1H10Z"/><path class="da59-10" d="M19,15V14H16v1h3Z"/><path class="da59-11" d="M13,15V14H10v1h3Z"/></svg>