<svg xmlns="http://www.w3.org/2000/svg" viewBox="0 0 29 33"><defs><style>polygon,rect,path{shape-rendering:crispedges;}.hb75-1{fill:#b4bd09;}.hb75-2{fill:#000000;}.hb75-3{fill:#e8b795;}.hb75-4{fill:#00686d;}.hb75-5{fill:#ff6c77;}.hb75-6{fill:#68aaad;}.hb75-7{fill:#474718;}.hb75-8{fill:#6f7032;}.hb75-9{fill:#efc075;}.hb75-10{fill:#2aa8e8;}.hb75-11{fill:#d8aa68;}.hb75-12{fill:#ffffff;}.hb75-13{fill:#563e1b;}</style></defs><path class="hb75-1" d="M21,25V16H20v3H19v1H18v1H17v3h2v1h2Z"/><path class="hb75-2" d="M23,31h1V23H23v8Z"/><path class="hb75-2" d="M7,27H5v1H6v5H7V27Z"/><path class="hb75-3" d="M8,26H7V25H5v2H7v6H8V26Z"/><path class="hb75-2" d="M9,26h1V25H8v8H9V26Z"/><path class="hb75-3" d="M20,27h1V26H19V25H17V24H16V23H13v1H12v1H10v1H9v7h5V29h1v4h5V27Zm-8,2H11V28h1Zm6,0H17V28h1Z"/><rect class="hb75-2" x="11" y="28" width="1" height="1"/><path class="hb75-2" d="M12,24H10v1h2Z"/><path class="hb75-2" d="M13,23h3v1h1V21H16v1H13V21H12v3h1Z"/><path class="hb75-2" d="M15,29H14v4h1V29Z"/><rect class="hb75-2" x="17" y="28" width="1" height="1"/><path class="hb75-2" d="M18,24H17v1h2V24Z"/><rect class="hb75-2" x="22" y="31" width="1" height="1"/><path class="hb75-2" d="M21,29V27H20v6h1V29Z"/><path class="hb75-2" d="M20,25H19v1h2V25Z"/><rect class="hb75-2" x="20" y="15" width="1" height="1"/><rect class="hb75-3" x="15" y="20" width="1" height="1"/><rect class="hb75-3" x="13" y="20" width="1" height="1"/><rect class="hb75-3" x="12" y="19" width="1" height="1"/><rect class="hb75-3" x="14" y="13" width="1" height="1"/><rect class="hb75-3" x="16" y="19" width="1" height="1"/><path class="hb75-3" d="M12,19V18h5v1h2V16H16V15H13v1H10v3h2Zm2-3h1v1H14Z"/><rect class="hb75-3" x="9" y="15" width="1" height="1"/><rect class="hb75-3" x="19" y="15" width="1" height="1"/><path class="hb75-2" d="M20,18V16H19v3h1Z"/><path class="hb75-2" d="M19,20V19H18v1Z"/><rect class="hb75-2" x="17" y="20" width="1" height="1"/><rect class="hb75-2" x="11" y="20" width="1" height="1"/><path class="hb75-2" d="M10,19v1h1V19Z"/><path class="hb75-2" d="M10,16H9v3h1V16Z"/><rect class="hb75-2" x="8" y="15" width="1" height="1"/><rect class="hb75-2" x="14" y="16" width="1" height="1"/><path class="hb75-4" d="M18,20V19H17v1Z"/><rect class="hb75-4" x="16" y="20" width="1" height="1"/><path class="hb75-4" d="M15,20H14v1H13v1h3V21H15Z"/><path class="hb75-4" d="M14,19h3V18H13v1Z"/><rect class="hb75-4" x="12" y="20" width="1" height="1"/><path class="hb75-4" d="M12,19H11v1h1Z"/><path class="hb75-2" d="M15,20h1V19H13v1h2Z"/><path class="hb75-2" d="M13,18H12v1h1Z"/><rect class="hb75-5" x="19" y="13" width="1" height="1"/><rect class="hb75-5" x="9" y="13" width="1" height="1"/><path class="hb75-6" d="M13,14H10v2h3V15h1V14Z"/><path class="hb75-6" d="M19,14H15v1h1v1h3V14Z"/><path class="hb75-2" d="M16,14h3V13H15v1Z"/><path class="hb75-2" d="M13,14h1V13H10v1h3Z"/><path class="hb75-2" d="M19,15h1V14H19Z"/><path class="hb75-2" d="M10,14H9v1h1Z"/><path class="hb75-2" d="M14,14v1h1V14Z"/><path class="hb75-7" d="M19,12v1h1V11H19Z"/><path class="hb75-8" d="M10,12v1h1V11h1v2h1V11h1v2h1V11h1v2h1V11h1v2h1V11h1V10H19V9H18V8H11V9H10v1H9v1h1Z"/><path class="hb75-7" d="M18,12V11H17v2h1Z"/><path class="hb75-7" d="M16,12V11H15v2h1Z"/><path class="hb75-7" d="M14,12V11H13v2h1Z"/><path class="hb75-7" d="M12,12V11H11v2h1Z"/><path class="hb75-7" d="M10,12V11H9v2h1Z"/><path class="hb75-1" d="M0,8V33H6V28H5V27H4V25H5V24H8v1h2V24h2V21H11V20H10V19H9V16H8V15H9V10h1V9h1V8h7V9h1v1h1v5h1V14h1v8h1v1h1v8H23v1H22v1h7V0H0Z"/><path class="hb75-9" d="M21,27v2h1V27Z"/><path class="hb75-9" d="M21,20v1h1V19H21Z"/><path class="hb75-9" d="M21,17h1V15H21v2Z"/><path class="hb75-10" d="M22,14H21v1h1Z"/><path class="hb75-3" d="M21,23v2h1v6h1V23H21Z"/><path class="hb75-11" d="M22,26V25H21v2h1Z"/><path class="hb75-11" d="M21,23h1V21H21Z"/><path class="hb75-11" d="M21,18v1h1V17H21Z"/><path class="hb75-12" d="M7,26H8V24H5v1H7Z"/><path class="hb75-13" d="M22,31V29H21v4h1V31Z"/><path class="hb75-2" d="M23,23V22H22v1Z"/><path class="hb75-2" d="M4,25v2H5V25Z"/></svg>