<svg xmlns="http://www.w3.org/2000/svg" viewBox="0 0 29 33"><defs><style>polygon,rect,path{shape-rendering:crispedges;}.pa136-1{fill:#d4a122;}.pa136-2{fill:#000000;}.pa136-3{fill:#00686d;}.pa136-4{fill:#e8b795;}.pa136-5{fill:#ff6c77;}.pa136-6{fill:#ffffff;}.pa136-7{fill:#8e703c;}.pa136-8{fill:#fad000;}.pa136-9{fill:#8e703c;}.pa136-10{fill:#6e12ff;}.pa136-11{fill:#d4c468;}</style></defs><rect class="pa136-1" x="7" y="22" width="1" height="1"/><path class="pa136-1" d="M0,33H6V28H5V26H6V25h4V24H9v1H8V24H7V23H6V22H5V21H6V20H5V19H6v1H8v2H9v1h1V22h1V20H10V19H9V16H8V15H9V11h1V10h1V9h7v1h1v1h1v4h1v1H20v3H19v1H18v2h1v1H18v1h1v1h2v1h1v1h1v6h6V0H0ZM4,17H5v1H4ZM3,19H4v1H3Z"/><path class="pa136-2" d="M23,27H22v6h1V27Z"/><path class="pa136-3" d="M22,27H21v6h1V27Z"/><rect class="pa136-2" x="21" y="26" width="1" height="1"/><path class="pa136-2" d="M21,27H20v6h1V27Z"/><path class="pa136-3" d="M19,32V31H18v1H17V30H16v1H15v1H13V30H12v2H11V31H10v1H9v1H20V32Z"/><rect class="pa136-3" x="18" y="29" width="1" height="1"/><path class="pa136-3" d="M18,26v1H17v2h1V28h1v1h1V27h1V26H18Z"/><rect class="pa136-2" x="18" y="22" width="1" height="1"/><rect class="pa136-3" x="17" y="22" width="1" height="1"/><path class="pa136-4" d="M16,24V23H13v1h3Z"/><rect class="pa136-3" x="11" y="22" width="1" height="1"/><polygon class="pa136-2" points="11 23 11 22 10 22 10 23 10 23 11 23"/><path class="pa136-2" d="M9,30H8v3H9V30Z"/><path class="pa136-3" d="M8,30V29H7v4H8V30Z"/><path class="pa136-2" d="M7,29V28H6v5H7V29Z"/><rect class="pa136-3" x="15" y="25" width="1" height="1"/><rect class="pa136-3" x="13" y="25" width="1" height="1"/><path class="pa136-5" d="M19,30H18V29H17v3h1V31h1v1h1V29H19Z"/><rect class="pa136-5" x="18" y="28" width="1" height="1"/><rect class="pa136-5" x="15" y="30" width="1" height="1"/><path class="pa136-5" d="M14,30H13v2h2V31H14Z"/><path class="pa136-5" d="M11,29v1H9v2h1V31h1v1h1V29Z"/><path class="pa136-2" d="M17,28V27H16v1H15v2h2V28Z"/><rect class="pa136-2" x="20" y="15" width="1" height="1"/><path class="pa136-2" d="M19,13v2h1V12H19Z"/><path class="pa136-4" d="M18,12v1h1V11H18Z"/><path class="pa136-4" d="M12,21h1v1h3V21h1V20h1V19h1V16h1V15H16V14h2V13H16V12h1V11H16V10H13v1H12v1h1v1H11v1h2v1H9v1h1v3h1v1h1Zm2-5h1v1H14Zm-2,2h5v1H16v1H13V19H12Z"/><path class="pa136-4" d="M10,13h1V11H10v2Z"/><rect class="pa136-4" x="17" y="10" width="1" height="1"/><rect class="pa136-4" x="11" y="10" width="1" height="1"/><path class="pa136-2" d="M19,17v2h1V16H19Z"/><rect class="pa136-2" x="18" y="19" width="1" height="1"/><path class="pa136-2" d="M12,23H11v1h1v2h1V25h1v1h1V25h1v1h1V24h1V23H17V22h1V20H17v1H16v1H13V21H12V20H11v2h1Zm1,0h3v1H13Z"/><rect class="pa136-2" x="10" y="19" width="1" height="1"/><path class="pa136-2" d="M10,16H9v3h1V16Z"/><rect class="pa136-2" x="8" y="15" width="1" height="1"/><rect class="pa136-2" x="14" y="16" width="1" height="1"/><path class="pa136-6" d="M18,14v1h1V14Z"/><path class="pa136-6" d="M13,15V14H12v1Z"/><path class="pa136-2" d="M17,14H16v1h2V14Z"/><path class="pa136-2" d="M12,15V14H10V12H9v3h3Z"/><path class="pa136-7" d="M19,13H18v1h1Z"/><polygon class="pa136-7" points="17 12 16 12 16 13 18 13 18 12 17 12"/><path class="pa136-7" d="M10,14h1V13H10Z"/><path class="pa136-7" d="M11,13h2V12H11Z"/><rect class="pa136-2" x="14" y="30" width="1" height="1"/><path class="pa136-2" d="M14,29V28H13V27H12v3h2Z"/><rect class="pa136-2" x="17" y="26" width="1" height="1"/><rect class="pa136-2" x="13" y="26" width="1" height="1"/><rect class="pa136-2" x="15" y="26" width="1" height="1"/><rect class="pa136-8" x="16" y="26" width="1" height="1"/><path class="pa136-8" d="M13,27v1h1v2h1V28h1V27H15V26H14v1Z"/><rect class="pa136-8" x="12" y="26" width="1" height="1"/><path class="pa136-8" d="M11,24v1h1V24Z"/><path class="pa136-8" d="M17,25v1h1V24H17Z"/><path class="pa136-2" d="M19,26h2V25H19V24H18v2Z"/><polygon class="pa136-2" points="11 24 10 24 10 24 10 25 11 25 11 24"/><polygon class="pa136-1" points="10 23 10 24 11 24 11 23 10 23"/><path class="pa136-9" d="M16,19V18H12v1h4Z"/><path class="pa136-2" d="M13,20h3V19H13Z"/><path class="pa136-2" d="M17,19V18H16v1Z"/><path class="pa136-10" d="M20,12V11H19v1Z"/><rect class="pa136-10" x="18" y="10" width="1" height="1"/><path class="pa136-10" d="M12,11h1V10h3v1h1V10h1V9H11v1h1Z"/><rect class="pa136-10" x="17" y="11" width="1" height="1"/><path class="pa136-10" d="M11,12h1V11H11Z"/><rect class="pa136-10" x="10" y="10" width="1" height="1"/><path class="pa136-10" d="M10,11H9v1h1Z"/><path class="pa136-6" d="M7.5,26H8v2H7v1H8v1h3V29h1V25H7v1Z"/><rect class="pa136-11" x="3" y="19" width="1" height="1"/><rect class="pa136-11" x="4" y="17" width="1" height="1"/><rect class="pa136-11" x="5" y="19" width="1" height="1"/><path class="pa136-11" d="M8,22V20H6v1H5v1H6v1H7V22Z"/><polygon class="pa136-11" points="10 23 10 23 9 23 9 22 8 22 8 23 7 23 7 24 8 24 8 25 9 25 9 24 10 24 10 24 10 23"/><path class="pa136-4" d="M8,28V26H6v2H8Z"/><path class="pa136-2" d="M7,25H6v1H7Z"/><path class="pa136-2" d="M5,26v2H6V26Z"/></svg>