<svg xmlns="http://www.w3.org/2000/svg" viewBox="0 0 29 33"><defs><style>polygon,rect,path{shape-rendering:crispedges;}.pa138-1{fill:#6b4f99;}.pa138-2{fill:#000000;}.pa138-3{fill:#db5800;}.pa138-4{fill:#b2622b;}.pa138-5{fill:#db5800;}.pa138-6{fill:#ffffff;}.pa138-7{fill:#492a23;}.pa138-8{fill:#492a23;}.pa138-9{fill:#00af68;}</style></defs><path class="pa138-1" d="M0,33H6V25H7V21H9V20H8V19H9V16H8V15H9V11h1V9h1V7h1V6H11V5h2V6h2V7h1V9h2v1h1v1h1v4h1v1H20v3h1v1H20v1H18v1h1v1H18v1h1v1h2v1h1v1h1v6h6V0H0Z"/><rect class="pa138-1" x="10" y="23" width="1" height="1"/><rect class="pa138-1" x="10" y="21" width="1" height="1"/><path class="pa138-2" d="M23,27H22v6h1V27Z"/><path class="pa138-3" d="M22,27H21v6h1V27Z"/><rect class="pa138-2" x="21" y="26" width="1" height="1"/><path class="pa138-2" d="M21,27H20v6h1V27Z"/><path class="pa138-3" d="M10,28h1v1h1V25h1V24H11v1H10v1H9v3h1Z"/><path class="pa138-3" d="M16,25h1v4h1V28h1v1h1V27h1V26H19V25H18V24H16Z"/><rect class="pa138-3" x="18" y="29" width="1" height="1"/><rect class="pa138-3" x="10" y="29" width="1" height="1"/><path class="pa138-3" d="M19,32V31H18v1H17V30H16v1H15v1H13V30H12v2H11V31H10v1H9v1H20V32Z"/><path class="pa138-2" d="M20,26h1V25H19v1Z"/><rect class="pa138-2" x="18" y="24" width="1" height="1"/><rect class="pa138-2" x="18" y="22" width="1" height="1"/><rect class="pa138-3" x="17" y="22" width="1" height="1"/><path class="pa138-2" d="M14,25h2V24H13v1Z"/><path class="pa138-4" d="M16,24V23H13v1h3Z"/><rect class="pa138-3" x="11" y="22" width="1" height="1"/><rect class="pa138-2" x="10" y="24" width="1" height="1"/><rect class="pa138-2" x="10" y="22" width="1" height="1"/><path class="pa138-2" d="M9,31V26H8v7H9V31Z"/><path class="pa138-3" d="M8,27H7v6H8V27Z"/><path class="pa138-4" d="M8,27V26H9V25H7v2Z"/><path class="pa138-2" d="M7,27V25H6v8H7V27Z"/><path class="pa138-3" d="M14,29v2h1V29Z"/><path class="pa138-3" d="M13,25v3h2v1h1V25H13Z"/><path class="pa138-5" d="M19,30H18V29H17v3h1V31h1v1h1V29H19Z"/><rect class="pa138-5" x="18" y="28" width="1" height="1"/><path class="pa138-5" d="M15,29v2h1V29Z"/><path class="pa138-5" d="M14,30V29h1V28H13v4h2V31H14Z"/><path class="pa138-5" d="M11,29v1H10V29H9v3h1V31h1v1h1V29Z"/><rect class="pa138-5" x="10" y="28" width="1" height="1"/><path class="pa138-2" d="M13,25H12v5h1V25Z"/><path class="pa138-2" d="M17,28V25H16v5h1V28Z"/><rect class="pa138-2" x="20" y="15" width="1" height="1"/><path class="pa138-2" d="M19,13v2h1V11H19v2Z"/><path class="pa138-4" d="M10,17v1h1v1h1v2h1v1h3V21h1V19h1V18h1V16h1V15H16V14h3V13H16V12h3V11H18V10H16v1H14V10H11v1H10v1h3v1H10v1h3v1H9v1h1Zm4-1h1v1H14Zm-1,3h3v1H13Z"/><rect class="pa138-2" x="18" y="10" width="1" height="1"/><path class="pa138-2" d="M17,20v1H16v1H13V21H12V20H11v2h1v1H11v1h2V23h3v1h2V23H17V22h1V20Z"/><path class="pa138-2" d="M12,10h1V9H11v1Z"/><path class="pa138-2" d="M17,10h1V9H16v1Z"/><path class="pa138-2" d="M11,10H10v1h1Z"/><path class="pa138-2" d="M10,14V11H9v4h1Z"/><rect class="pa138-2" x="8" y="15" width="1" height="1"/><rect class="pa138-2" x="14" y="16" width="1" height="1"/><path class="pa138-6" d="M13,15V14H12v1Z"/><path class="pa138-6" d="M11,15V14H10v1Z"/><path class="pa138-6" d="M18,14v1h1V14Z"/><path class="pa138-6" d="M16,14v1h1V14Z"/><path class="pa138-2" d="M12,15V14H11v1Z"/><path class="pa138-2" d="M17,14v1h1V14Z"/><path class="pa138-7" d="M13,13V12H10v1Z"/><path class="pa138-7" d="M16,12v1h3V12Z"/><path class="pa138-8" d="M19,17v1H18v1H17v1h1v1h2V20h1V19H20V16H19Z"/><path class="pa138-8" d="M11,21V20h1V19H11V18H10V16H9v3H8v1H9v1h2Z"/><rect class="pa138-2" x="13" y="19" width="3" height="1"/><path class="pa138-9" d="M13,10h1v1h2V7H15V6H13V5H11V6h1V7H11V9h2Z"/><path class="pa138-9" d="M11,9H10v1h1Z"/><rect class="pa138-2" x="8" y="22" width="1" height="1"/><path class="pa138-6" d="M9,26h1V21H7v4H9ZM8,23V22H9v1Z"/><rect class="pa138-9" x="10" y="9" width="1" height="1"></rect></svg>