<svg xmlns="http://www.w3.org/2000/svg" viewBox="0 0 29 33"><defs><style>polygon,rect,path{shape-rendering:crispedges;}.na90-1{fill:#e55b35;}.na90-2{fill:#000000;}.na90-3{fill:#3e5e00;}.na90-4{fill:#9e6969;}.na90-5{fill:#a56e49;}.na90-6{fill:#99ce09;}.na90-7{fill:#ffffff;}.na90-8{fill:#473a35;}.na90-9{fill:#473a35;}.na90-10{fill:#c8a715;}.na90-11{fill:#990000;}.na90-12{fill:#0068ff;}.na90-13{fill:#45ba00;}</style></defs><path class="na90-1" d="M0,33H6V27H7V26H8V25h2V20H9V16H8V15H9V14H8V12H9V11H8V10H9V9H8V8h2V7h1V8h1V6h1V7h1V8h1V7h1V6h1V7h1V8h1V7h1V8H19V9h2v2H20v1h1v1H20v1h1v2H20v3h3v1h1v1h1v3H24v1H23v1h1v1H23v6h6V0H0Z"/><path class="na90-1" d="M12,22H11v2h1V22Z"/><path class="na90-1" d="M18,22H17v2h1V22Z"/><path class="na90-2" d="M7,30V27H6v6H7V30Z"/><path class="na90-3" d="M7,31v2H8V31Z"/><path class="na90-3" d="M7,30H8V27H7v3Z"/><rect class="na90-2" x="7" y="26" width="1" height="1"/><path class="na90-2" d="M9,31V27H8v6H9V31Z"/><path class="na90-3" d="M11,29H10V28h1V25H10v1H9v6h1v1h1V29Z"/><path class="na90-2" d="M10,26V25H8v1h2Z"/><path class="na90-2" d="M12,26h1V25H12V24H10v1h1v8h1V26Z"/><path class="na90-4" d="M17,26H16v1H13V26H12v7h5V26Z"/><path class="na90-2" d="M13,26v1h3V26H13Z"/><path class="na90-5" d="M16,23H13v3h3V23Z"/><path class="na90-2" d="M18,29V25h1V24H17v1H16v1h1v7h1V29Z"/><path class="na90-3" d="M20,32V27H19V25H18v3h1v1H18v4h1V32Z"/><path class="na90-2" d="M21,31V27H20v6h1V31Z"/><path class="na90-2" d="M20,25H19v2h1V25Z"/><path class="na90-3" d="M21,29v2h1V28H21Z"/><path class="na90-3" d="M21,32v1h1V32Z"/><path class="na90-2" d="M23,27H22v6h1V27Z"/><path class="na90-6" d="M10,29h1V28H10Z"/><path class="na90-6" d="M19,29V28H18v1Z"/><path class="na90-6" d="M9,27V26H8v1Z"/><path class="na90-6" d="M19,32v1h1V32Z"/><path class="na90-6" d="M9,32v1h1V32Z"/><path class="na90-6" d="M7,31H8V30H7Z"/><path class="na90-6" d="M21,32h1V31H21Z"/><path class="na90-2" d="M20,16h1V15H20Z"/><rect class="na90-5" x="10" y="11" width="1" height="1"/><path class="na90-5" d="M10,17v1h1v1h1V18h2v1h1V18h2v1h1V18h1V16h1V15H16V13h1V12h1V10H17v1H16v1H15V10H14v1H13v2H11v1h2v1H9v1h1Zm4-1h1v1H14Z"/><path class="na90-5" d="M18,14h1V13H17v1Z"/><rect class="na90-5" x="11" y="10" width="1" height="1"/><polygon class="na90-5" points="13 21 14 21 14 22 15 22 15 21 16 21 16 20 13 20 13 21"/><path class="na90-2" d="M19,17h1V16H19Z"/><path class="na90-2" d="M10,16H9v1h1Z"/><rect class="na90-2" x="8" y="15" width="1" height="1"/><rect class="na90-2" x="14" y="16" width="1" height="1"/><path class="na90-7" d="M10,15h1V14H10Z"/><path class="na90-7" d="M16,14v1h1V14Z"/><path class="na90-2" d="M12,15h1V14H11v1Z"/><path class="na90-2" d="M18,14H17v1h2V14Z"/><rect class="na90-8" x="10" y="13" width="1" height="1"/><path class="na90-8" d="M11,13h2V12H11Z"/><path class="na90-8" d="M17,13H16v1h1Z"/><path class="na90-8" d="M18,12H17v1h1Z"/><path class="na90-9" d="M12,22v1h5V22h1V21h1V20h1V17H19v1H18v1H17V18H15v1h1v2H15v1H14V21H13V19H11V18H10V17H9v3h1v2h2Z"/><path class="na90-9" d="M14,18H13v1h1Z"/><path class="na90-10" d="M16,23v1h1V23Z"/><path class="na90-9" d="M16,25h1V24H16Z"/><path class="na90-10" d="M13,23H12v1h1Z"/><path class="na90-9" d="M12,24v1h1V24Z"/><path class="na90-10" d="M11,22H10v1h1Z"/><path class="na90-9" d="M11,23H10v1h1Z"/><path class="na90-2" d="M13,19v1h3V19H13Z"/><path class="na90-2" d="M12,18v1h1V18Z"/><path class="na90-11" d="M10,14V13h1V12H10V11h1V10h1v1H11v1h2V11h1V10h1v2h1V11h1V10h1v3h1v2h2V14H20V13h1V12H20V11h1V9H19V8H18V7H17V6H16V7H15V8H14V7H13V6H12V8H11V7H10V8H8V9H9v1H8v1H9v1H8v2H9v1h1Z"/><rect class="na90-11" x="19" y="7" width="1" height="1"/><path class="na90-5" d="M21,26H20v1h1v1h1V27h1V26H21Z"/><rect class="na90-2" x="23" y="26" width="1" height="1"/><path class="na90-12" d="M20,21h2V20H21V19H20v2Z"/><path class="na90-12" d="M23,22v1h1V22h1V21H23Z"/><path class="na90-12" d="M22,24H21V22H20V21H18v2h2v2h1v1h1V25h1V24Z"/><path class="na90-13" d="M22,20v1H20v1h1v2h2v1h1V23H23V21h1V20H23V19H21v1Z"/><path class="na90-13" d="M20,24V23H18v1h1v1h1Z"/><path class="na90-13" d="M21,26V25H20v1Z"/><path class="na90-12" d="M24,24h1V23H24Z"/><path class="na90-13" d="M20,20H19v1h1Z"/><path class="na90-13" d="M22,26h1V25H22Z"/><path class="na90-13" d="M24,23h1V22H24Z"/></svg>