<svg xmlns="http://www.w3.org/2000/svg" viewBox="0 0 29 33"><defs><style>polygon,rect,path{shape-rendering:crispedges;}.qa91-1{fill:#e55b35;}.qa91-2{fill:#000000;}.qa91-3{fill:#4922aa;}.qa91-4{fill:#e8b795;}.qa91-5{fill:#825fff;}.qa91-6{fill:#99582c;}.qa91-7{fill:#99582c;}</style></defs><path class="qa91-1" d="M0,33H6V27H7V26H8V25h2V24h1V23H10V22h1V20H10V19H9V16H8V15H9V11h1V10h1V9h7v1h1v1h1v4h1v1H20v3H19v1H18v2h1v1H18v1h1v1h2v1h1v1h1v6h6V0H0Z"/><path class="qa91-2" d="M23,27H22v6h1V27Z"/><path class="qa91-3" d="M22,27H21v6h1V27Z"/><rect class="qa91-2" x="21" y="26" width="1" height="1"/><path class="qa91-2" d="M21,27H20v6h1V27Z"/><path class="qa91-3" d="M20,27h1V26H19V25H18V24H16v1h1v4h1v1h1v3h1V27Z"/><path class="qa91-3" d="M10,30h1V29h1V25h1V24H11v1H10v1H8v1H9v6h1V30Z"/><path class="qa91-2" d="M20,26h1V25H19v1Z"/><rect class="qa91-2" x="18" y="24" width="1" height="1"/><rect class="qa91-2" x="18" y="22" width="1" height="1"/><rect class="qa91-3" x="17" y="22" width="1" height="1"/><path class="qa91-2" d="M17,22h1V21H17Z"/><path class="qa91-2" d="M13,24v1h3V24H13Z"/><path class="qa91-4" d="M15,23H13v1h3V23Z"/><path class="qa91-2" d="M13,23V22H12v1H11v1h2Z"/><rect class="qa91-3" x="11" y="22" width="1" height="1"/><path class="qa91-2" d="M12,21H11v1h1Z"/><rect class="qa91-2" x="10" y="24" width="1" height="1"/><rect class="qa91-2" x="10" y="22" width="1" height="1"/><path class="qa91-2" d="M10,25H8v1h2Z"/><path class="qa91-2" d="M9,27H8v6H9V27Z"/><path class="qa91-3" d="M8,27H7v6H8V27Z"/><rect class="qa91-2" x="7" y="26" width="1" height="1"/><path class="qa91-2" d="M7,27H6v6H7V27Z"/><path class="qa91-3" d="M13,25v3h3V25H13Z"/><path class="qa91-3" d="M16,32H12v1h5V32Z"/><rect class="qa91-3" x="16" y="30" width="1" height="1"/><rect class="qa91-3" x="12" y="30" width="1" height="1"/><path class="qa91-5" d="M19,30H18V29H17v2H16V28H13v3H12V29H11v1H10v3h2V32h5v1h2V30Z"/><path class="qa91-2" d="M13,25H12v5h1V25Z"/><path class="qa91-2" d="M16,28v2h1V25H16v3Z"/><rect class="qa91-2" x="20" y="15" width="1" height="1"/><path class="qa91-4" d="M18,17H16V16H15v1H14V16H13v1H11V16H10v2h1v1h1v1h1V19h3V18h1v1h1V18h1V16H18Z"/><rect class="qa91-4" x="9" y="15" width="1" height="1"/><rect class="qa91-4" x="16" y="19" width="1" height="1"/><path class="qa91-4" d="M13,13v1h3V13h3V11H18V10H11v1H10v2Z"/><rect class="qa91-4" x="19" y="15" width="1" height="1"/><rect class="qa91-4" x="14" y="15" width="1" height="1"/><path class="qa91-4" d="M13,21h3V20H13Z"/><rect class="qa91-2" x="18" y="10" width="1" height="1"/><path class="qa91-2" d="M17,22H16v2h2V23H17Z"/><path class="qa91-2" d="M18,10V9H11v1h7Z"/><rect class="qa91-2" x="10" y="10" width="1" height="1"/><rect class="qa91-2" x="8" y="15" width="1" height="1"/><rect class="qa91-2" x="14" y="16" width="1" height="1"/><path class="qa91-6" d="M10,13v1h3V13Z"/><path class="qa91-6" d="M16,14h3V13H16Z"/><path class="qa91-7" d="M12,22h1v1h3V22h1V21h1V20h1V19h1V16H19v2H18v1H17v1H16v1H13V20H12V19H11V18H10V16H9v3h1v1h1v1h1Z"/><rect class="qa91-2" x="13" y="19" width="3" height="1"/><rect class="qa91-2" x="16" y="18" width="1" height="1"/><path class="qa91-2" d="M10,16h1v1h2V16h1V15h1v1h1v1h2V16h1V15h1V11H19v3H10V11H9v4h1Z"/></svg>