<svg xmlns="http://www.w3.org/2000/svg" viewBox="0 0 29 33"><defs><style>polygon,rect,path{shape-rendering:crispedges;}.wa50-1{fill:#d4a122;}.wa50-2{fill:#ff6aa5;}.wa50-3{fill:#000000;}.wa50-4{fill:#efcaaf;}.wa50-5{fill:#6c9302;}.wa50-6{fill:#317f03;}.wa50-7{fill:#317f03;}.wa50-8{fill:#9b8100;}.wa50-9{fill:#db5800;}</style></defs><path class="wa50-1" d="M6,32V27H7V26H8V25h2V22h1V21H9V20H8V19H9V16H8V15H9V14H8V12H9V11H8V10H9V9H8V8h2V7h1V8h1V6h1V7h1V8h1V7h1V6h1V7h1V8h1V7h1V8H19V9h2v2H20v1h1v1H20v1h1v2H20v3h1v1H20v1H18v1h1v3h2v1h1v1h1v6h6V0H0V33H6Z"/><path class="wa50-2" d="M18,25V24H16v1Z"/><path class="wa50-2" d="M14,27v1h6V27H14Z"/><path class="wa50-2" d="M14,31h6V30H14Z"/><rect class="wa50-2" x="21" y="30" width="1" height="1"/><rect class="wa50-2" x="21" y="27" width="1" height="1"/><rect class="wa50-2" x="7" y="27" width="1" height="1"/><rect class="wa50-2" x="7" y="30" width="1" height="1"/><path class="wa50-2" d="M9,31h4V30H9Z"/><polygon class="wa50-2" points="12 24 11 24 11 25 13 25 13 24 12 24"/><path class="wa50-2" d="M9,28h4V27H9Z"/><path class="wa50-3" d="M23,27H22v6h1V27Z"/><rect class="wa50-3" x="21" y="26" width="1" height="1"/><path class="wa50-3" d="M21,30V27H20v4H14V27H13v4H9V27H8v6H9V32H20v1h1V30Z"/><path class="wa50-3" d="M20,26h1V25H19v1Z"/><path class="wa50-3" d="M18,25h1V22H18v3Z"/><rect class="wa50-3" x="15" y="24" width="1" height="1"/><path class="wa50-3" d="M15,26V25H14v2h1Z"/><rect class="wa50-3" x="13" y="24" width="1" height="1"/><path class="wa50-4" d="M15,24h1V23H13v1h1v1h1Z"/><path class="wa50-3" d="M11,24V22H10v3h1Z"/><path class="wa50-3" d="M10,25H8v1h2Z"/><rect class="wa50-3" x="7" y="26" width="1" height="1"/><path class="wa50-3" d="M7,30V27H6v6H7V30Z"/><path class="wa50-3" d="M20,16h1V15H20Z"/><rect class="wa50-4" x="10" y="11" width="1" height="1"/><rect class="wa50-4" x="11" y="10" width="1" height="1"/><path class="wa50-4" d="M14,13v1h1V13h2V12h1V10H17v1H16v1H15V10H14v1H13v2Z"/><path class="wa50-4" d="M18,19V18h1V16H16V15H13v1H10v2h1v1h1V18h1v1h3v1H13V19H12v2h1v1h3V21h1V19Zm-3-2H14V16h1Z"/><rect class="wa50-4" x="9" y="15" width="1" height="1"/><rect class="wa50-4" x="19" y="15" width="1" height="1"/><path class="wa50-3" d="M12,23v1h1V23h3v1h1V22h1V20H17v1H16v1H13V21H12V20H11v2h1Z"/><rect class="wa50-3" x="8" y="15" width="1" height="1"/><rect class="wa50-3" x="14" y="16" width="1" height="1"/><path class="wa50-5" d="M19,32H9v1H20V32Z"/><path class="wa50-5" d="M14,29v1h6V28H14Z"/><path class="wa50-5" d="M9,29v1h4V28H9Z"/><path class="wa50-5" d="M9,27h5V25H10v1H8v1Z"/><path class="wa50-5" d="M16,25H15v2h6V26H19V25H16Z"/><path class="wa50-5" d="M7,29v1H8V28H7Z"/><path class="wa50-5" d="M7,31v2H8V31Z"/><path class="wa50-5" d="M21,31v2h1V31Z"/><path class="wa50-5" d="M21,29v1h1V28H21Z"/><path class="wa50-5" d="M12,24V22H11v2Z"/><path class="wa50-5" d="M17,23v1h1V22H17Z"/><path class="wa50-6" d="M13,12H11v1h2Z"/><rect class="wa50-6" x="17" y="12" width="1" height="1"/><path class="wa50-7" d="M19,17v1H18v1H17v1h1v1h2V20h1V19H20V16H19Z"/><path class="wa50-7" d="M12,20V19H11V18H10V16H9v3H8v1H9v1h2V20Z"/><rect class="wa50-3" x="13" y="19" width="3" height="1"/><rect class="wa50-3" x="12" y="18" width="1" height="1"/><path class="wa50-8" d="M21,15V14H20v1Z"/><path class="wa50-8" d="M10,13h1V12H10V11h1V10h1v1H11v1h2V11h1V10h1v2h1V11h1V10h1v3h1v1h1V13h1V12H20V11h1V9H19V8H18V7H17V6H16V7H15V8H14V7H13V6H12V8H11V7H10V8H8V9H9v1H8v1H9v1H8v2h2Z"/><rect class="wa50-8" x="19" y="7" width="1" height="1"/><path class="wa50-9" d="M13,16V15h1V14H10v2h3Z"/><path class="wa50-9" d="M15,14v1h1v1h3V14H15Z"/><path class="wa50-3" d="M16,13H15v1h4V13H16Z"/><path class="wa50-3" d="M14,14V13H10v1h4Z"/><path class="wa50-3" d="M19,15h1V14H19Z"/><path class="wa50-3" d="M10,14H9v1h1Z"/><path class="wa50-3" d="M14,14v1h1V14Z"/></svg>