<svg xmlns="http://www.w3.org/2000/svg" viewBox="0 0 29 33"><defs><style>polygon,rect,path{shape-rendering:crispedges;}.ha244-1{fill:#6b4f99;}.ha244-2{fill:#000000;}.ha244-3{fill:#508e5d;}.ha244-4{fill:#e8b795;}.ha244-5{fill:#ffffff;}.ha244-6{fill:#663228;}.ha244-7{fill:#663228;}.ha244-8{fill:#c8a715;}.ha244-9{fill:#b23b00;}</style></defs><path class="ha244-1" d="M12,22H11v2h1V22Z"/><path class="ha244-1" d="M18,24V22H17v2Z"/><path class="ha244-1" d="M0,33H6V27H7V26H8V25h2V20H9V16H8V15H9V13H8V9H9V8h1V7h1V6h7V7h1V8h1V9h1v4H20v2h1v1H20v4H19v5h2V23H20V21h1V20h1V19h2v1h1v3H24v8H23v1H21v1h8V0H0Z"/><path class="ha244-2" d="M23,24v7h1V23H23Z"/><path class="ha244-3" d="M23,24H22v7h1V24Z"/><path class="ha244-2" d="M22,32h1V31H22V23H21v2H19v1h2v1H20v6h1V32Z"/><path class="ha244-3" d="M20,27h1V26H19V25H17v1H16v1H13V26H12V25H10v1H8v1H9v6H20V27Z"/><path class="ha244-2" d="M17,24v1h2V24H17Z"/><rect class="ha244-2" x="16" y="25" width="1" height="1"/><path class="ha244-2" d="M13,26v1h3V26H13Z"/><path class="ha244-4" d="M16,24V23H13v3h3V24Z"/><path class="ha244-2" d="M12,25v1h1V25Z"/><path class="ha244-2" d="M12,24H10v1h2Z"/><path class="ha244-2" d="M10,25H8v1h2Z"/><path class="ha244-2" d="M9,27H8v6H9V27Z"/><rect class="ha244-2" x="7" y="26" width="1" height="1"/><path class="ha244-3" d="M8,27H7v6H8V27Z"/><path class="ha244-2" d="M7,27H6v6H7V27Z"/><rect class="ha244-2" x="20" y="15" width="1" height="1"/><polygon class="ha244-4" points="18 14 19 14 19 13 17 13 17 14 18 14"/><rect class="ha244-4" x="10" y="12" width="1" height="1"/><path class="ha244-4" d="M10,17v1h1v1h1V18h5v1h1V18h1V16h1V15H16V13h1V12h1V11H11v1h2v1H11v1h2v1H9v1h1Zm4-1h1v1H14Z"/><polygon class="ha244-4" points="13 21 14 21 14 22 15 22 15 21 16 21 16 20 13 20 13 21"/><path class="ha244-2" d="M19,17h1V16H19Z"/><path class="ha244-2" d="M10,14H9v1h1Z"/><path class="ha244-2" d="M10,16H9v1h1Z"/><rect class="ha244-2" x="8" y="15" width="1" height="1"/><rect class="ha244-2" x="14" y="16" width="1" height="1"/><path class="ha244-5" d="M10,15h1V14H10Z"/><path class="ha244-5" d="M16,14v1h1V14Z"/><path class="ha244-2" d="M12,15h1V14H11v1Z"/><path class="ha244-2" d="M18,14H17v1h3V14H18Z"/><rect class="ha244-6" x="10" y="13" width="1" height="1"/><rect class="ha244-6" x="11" y="12" width="2" height="1"/><path class="ha244-6" d="M17,13H16v1h1Z"/><path class="ha244-6" d="M19,12H17v1h2Z"/><path class="ha244-7" d="M12,22v1h5V22h2V20h1V17H19v1H18v1H16v2H15v1H14V21H13V19H11V18H10V17H9v3h1v2h2Z"/><path class="ha244-8" d="M18,23h1V22H18Z"/><path class="ha244-7" d="M18,24h1V23H18Z"/><path class="ha244-8" d="M17,24V23H16v1Z"/><path class="ha244-7" d="M16,24v1h1V24Z"/><path class="ha244-8" d="M13,23H12v1h1Z"/><path class="ha244-7" d="M13,24H12v1h1Z"/><path class="ha244-8" d="M11,22H10v1h1Z"/><path class="ha244-7" d="M11,23H10v1h1Z"/><path class="ha244-2" d="M16,18H12v1h1v1h3V19h1V18Z"/><path class="ha244-2" d="M20,21v2h1V21Z"/><rect class="ha244-2" x="21" y="20" width="1" height="1"/><rect class="ha244-2" x="22" y="19" width="2" height="1"/><path class="ha244-2" d="M24,23h1V20H24v3Z"/><path class="ha244-4" d="M22,24h1V23h1V20H22v1H21v2h1Z"/><path class="ha244-9" d="M10,13V12h1V11h7v1h1v2h1V13h1V9H20V8H19V7H18V6H11V7H10V8H9V9H8v4H9v1h1Z"/></svg>