<svg xmlns="http://www.w3.org/2000/svg" viewBox="0 0 29 33"><defs><style>polygon,rect,path{shape-rendering:crispedges;}.qa212-1{fill:#29834f;}.qa212-2{fill:#000000;}.qa212-3{fill:#ffffff;}.qa212-4{fill:#ce8452;}.qa212-5{fill:#8e4717;}.qa212-6{fill:#8e4717;}.qa212-7{fill:#ff5e17;}.qa212-8{fill:#68aaad;}</style></defs><path class="qa212-1" d="M6,32V27H7V26H8V25h2V24h1V23H10V22h1V20H10V19H9V16H8V15H9V11h1V10h1V9h7v1h1v1h1v4h1v1H20v3H19v1H18v2h1v1H18v1h1v1h2v1h1v1h1v6h6V0H0V33H6Z"/><path class="qa212-2" d="M23,27H22v6h1V27Z"/><path class="qa212-3" d="M22,27H21v6h1V27Z"/><rect class="qa212-2" x="21" y="26" width="1" height="1"/><path class="qa212-2" d="M21,27H20v6h1V27Z"/><path class="qa212-3" d="M20,27h1V26H19V25H18V24H16v1h1v5H16V25H13v5H12V25h1V24H11v1H10v1H8v1H9v6H20V27Z"/><path class="qa212-2" d="M20,26h1V25H19v1Z"/><rect class="qa212-2" x="18" y="24" width="1" height="1"/><rect class="qa212-2" x="18" y="22" width="1" height="1"/><rect class="qa212-3" x="17" y="22" width="1" height="1"/><path class="qa212-2" d="M17,22h1V21H17Z"/><path class="qa212-2" d="M13,24v1h3V24H13Z"/><path class="qa212-4" d="M15,23H13v1h3V23Z"/><path class="qa212-2" d="M13,23V22H12v1H11v1h2Z"/><rect class="qa212-3" x="11" y="22" width="1" height="1"/><path class="qa212-2" d="M12,21H11v1h1Z"/><rect class="qa212-2" x="10" y="24" width="1" height="1"/><rect class="qa212-2" x="10" y="22" width="1" height="1"/><path class="qa212-2" d="M10,25H8v1h2Z"/><path class="qa212-2" d="M9,27H8v6H9V27Z"/><path class="qa212-3" d="M8,27H7v6H8V27Z"/><rect class="qa212-2" x="7" y="26" width="1" height="1"/><path class="qa212-2" d="M7,27H6v6H7V27Z"/><path class="qa212-2" d="M12,26v4h1V25H12Z"/><path class="qa212-2" d="M16,30h1V25H16v5Z"/><rect class="qa212-2" x="20" y="15" width="1" height="1"/><path class="qa212-4" d="M12,12v1h2v1h1V13h1V12h2v1h1V11H18V10H11v1H10v1Z"/><rect class="qa212-4" x="19" y="15" width="1" height="1"/><path class="qa212-4" d="M16,16V15H13v1H10v2h1v1h1v1h1V19h3V18h1v1h1V18h1V16H16Zm-1,1H14V16h1Z"/><rect class="qa212-4" x="9" y="15" width="1" height="1"/><rect class="qa212-4" x="16" y="19" width="1" height="1"/><path class="qa212-4" d="M13,21h3V20H13Z"/><path class="qa212-2" d="M17,22H16v2h2V23H17Z"/><rect class="qa212-2" x="8" y="15" width="1" height="1"/><rect class="qa212-2" x="14" y="16" width="1" height="1"/><path class="qa212-5" d="M18,12H16v1h2Z"/><path class="qa212-5" d="M12,12H10v1h2Z"/><path class="qa212-6" d="M12,22h1v1h3V22h1V21h1V20h1V19h1V16H19v2H18v1H17v1H16v1H13V20H12V19H11V18H10V16H9v3h1v1h1v1h1Z"/><rect class="qa212-2" x="13" y="19" width="3" height="1"/><rect class="qa212-2" x="16" y="18" width="1" height="1"/><path class="qa212-7" d="M19,14h1V11H19v3Z"/><rect class="qa212-7" x="18" y="10" width="1" height="1"/><path class="qa212-7" d="M18,10V9H11v1h7Z"/><rect class="qa212-7" x="10" y="10" width="1" height="1"/><path class="qa212-7" d="M10,13V11H9v3h1Z"/><path class="qa212-8" d="M13,16V15h1V14H10v2h3Z"/><path class="qa212-8" d="M19,14H15v1h1v1h3V14Z"/><path class="qa212-2" d="M19,14V13H15v1h4Z"/><path class="qa212-2" d="M14,14V13H10v1h4Z"/><path class="qa212-2" d="M19,15h1V14H19Z"/><path class="qa212-2" d="M10,14H9v1h1Z"/><path class="qa212-2" d="M15,15V14H14v1Z"/></svg>