<svg xmlns="http://www.w3.org/2000/svg" viewBox="0 0 29 33"><defs><style>polygon,rect,path{shape-rendering:crispedges;}.za75-1{fill:#d4a122;}.za75-2{fill:#000000;}.za75-3{fill:#00af68;}.za75-4{fill:#e8b795;}.za75-5{fill:#014731;}.za75-6{fill:#ffffff;}.za75-7{fill:#492a23;}.za75-8{fill:#fad000;}.za75-9{fill:#492a23;}.za75-10{fill:#0068ff;}.za75-11{fill:#6d5800;}.za75-12{fill:#ea1500;}</style></defs><path class="za75-1" d="M0,33H6V27H7V26H8V25h2V24h1V23h1V21H11V20H10V19H9V16H8V15H9V11h1V10h1V9h1V8h5V9h2v1h1v1h1v3H20v1h1v1H20v3H19v1H18v1H17v2h1v1h1v1h2V23h1V22H21V19h1v1h1V18h1V17h3v5H26v1H25v1H24v7H23v1H21v1h8V0H0Z"/><path class="za75-2" d="M23,25v6h1V24H23Z"/><path class="za75-2" d="M7,30V27H6v6H7V30Z"/><path class="za75-3" d="M7,31H8V30H7Z"/><path class="za75-3" d="M8,28V27H7v1Z"/><rect class="za75-2" x="7" y="26" width="1" height="1"/><path class="za75-2" d="M9,30V27H8v6H9V30Z"/><path class="za75-3" d="M15,30v1h5V30H15Z"/><path class="za75-3" d="M13,30H9v1h5V30Z"/><path class="za75-3" d="M18,27H17v1h3V27H18Z"/><path class="za75-3" d="M12,27H9v1h3Z"/><path class="za75-2" d="M11,26V24H10v1H8v1h3Z"/><rect class="za75-2" x="14" y="32" width="1" height="1"/><path class="za75-4" d="M15,24h1V23H13v1h1v1h1Z"/><path class="za75-2" d="M22,32h1V31H22V23H21v2H19V24H18v2h3v1H20v6h1V32Z"/><path class="za75-3" d="M23,27H22v1h1Z"/><path class="za75-3" d="M23,24H22v1h1Z"/><path class="za75-3" d="M22,30v1h1V30Z"/><path class="za75-5" d="M15,31H9v2h5V32h1v1h5V31Z"/><path class="za75-5" d="M13,29V28H9v2h4Z"/><path class="za75-5" d="M16,28v2h4V28H16Z"/><rect class="za75-5" x="13" y="25" width="1" height="1"/><path class="za75-5" d="M9,27h2V26H8v1Z"/><rect class="za75-5" x="15" y="25" width="1" height="1"/><path class="za75-5" d="M19,27h2V26H18v1Z"/><path class="za75-5" d="M23,29V28H22v2h1Z"/><path class="za75-5" d="M23,26V25H22v2h1Z"/><path class="za75-5" d="M7,31v2H8V31Z"/><path class="za75-5" d="M7,29v1H8V28H7Z"/><rect class="za75-2" x="20" y="15" width="1" height="1"/><rect class="za75-4" x="16" y="19" width="1" height="1"/><rect class="za75-4" x="15" y="20" width="1" height="1"/><rect class="za75-4" x="13" y="20" width="1" height="1"/><path class="za75-4" d="M12,19V18h5v1h2V16h1V15H16V14h2V13H16V12h1V11H15V10H11v1H10v2h1V12h2v1H11v1h2v1H9v1h1v3h2Zm2-3h1v1H14Z"/><rect class="za75-4" x="12" y="19" width="1" height="1"/><path class="za75-2" d="M19,17v2h1V16H19Z"/><path class="za75-2" d="M18,20h1V19H18Z"/><rect class="za75-2" x="17" y="20" width="1" height="1"/><rect class="za75-2" x="11" y="20" width="1" height="1"/><path class="za75-2" d="M10,19v1h1V19Z"/><path class="za75-2" d="M10,16H9v3h1V16Z"/><rect class="za75-2" x="8" y="15" width="1" height="1"/><rect class="za75-2" x="14" y="16" width="1" height="1"/><path class="za75-6" d="M13,15V14H12v1Z"/><path class="za75-6" d="M10,15h1V14H10Z"/><path class="za75-6" d="M18,14v1h1V14Z"/><path class="za75-6" d="M16,14v1h1V14Z"/><path class="za75-2" d="M12,15V14H11v1Z"/><path class="za75-2" d="M17,14v1h1V14Z"/><rect class="za75-7" x="18" y="13" width="1" height="1"/><polygon class="za75-7" points="17 12 16 12 16 13 18 13 18 12 17 12"/><rect class="za75-7" x="10" y="13" width="1" height="1"/><rect class="za75-7" x="11" y="12" width="2" height="1"/><path class="za75-2" d="M14,30v1h1V30Z"/><path class="za75-2" d="M12,27v1h1V27Z"/><path class="za75-2" d="M15,29v1h1V28H15Z"/><path class="za75-2" d="M16,28h1V27H16Z"/><path class="za75-2" d="M13,28v2h1V28Z"/><rect class="za75-2" x="17" y="26" width="1" height="1"/><path class="za75-2" d="M12,26H11v1h1Z"/><rect class="za75-2" x="14" y="25" width="1" height="1"/><rect class="za75-2" x="13" y="26" width="1" height="1"/><rect class="za75-2" x="15" y="26" width="1" height="1"/><path class="za75-2" d="M12,25v1h1V25h1V24H13V23h3v1H15v1h1v1h1V24h1V23H17V21H16v1H13V21H12v2H11v1h1Z"/><rect class="za75-8" x="16" y="26" width="1" height="1"/><path class="za75-8" d="M15,27V26H14v1H13v1h1v2h1V28h1V27Z"/><rect class="za75-8" x="12" y="26" width="1" height="1"/><path class="za75-8" d="M12,26V24H11v2Z"/><path class="za75-8" d="M17,25v1h1V24H17Z"/><path class="za75-9" d="M17,19v1h1V19Z"/><rect class="za75-9" x="16" y="20" width="1" height="1"/><path class="za75-9" d="M15,20H14v1H13v1h3V21H15Z"/><path class="za75-9" d="M14,19h3V18H12v1h2Z"/><rect class="za75-9" x="12" y="20" width="1" height="1"/><path class="za75-9" d="M12,19H11v1h1Z"/><path class="za75-2" d="M15,20h1V19H13v1h2Z"/><path class="za75-10" d="M10,14V11H9v4h1Z"/><rect class="za75-10" x="10" y="10" width="1" height="1"/><path class="za75-10" d="M15,10v1h2v1h1v1h1v2h1V14h1V11H20V10H19V9H17V8H12V9H11v1h4Z"/><path class="za75-11" d="M21,21v1h1V21Z"/><path class="za75-8" d="M24,21h1v1H24v1h2V22h1V20H25V19H24V18H23v2H22V19H21v2h1v1h2Z"/><path class="za75-4" d="M23,24h1V23H22v1Z"/><path class="za75-11" d="M24,22H22v1h2Z"/><path class="za75-2" d="M24,24h1V23H24Z"/><rect class="za75-11" x="24" y="21" width="1" height="1"/><rect class="za75-2" x="24" y="18" width="1" height="1"/><path class="za75-12" d="M25,19v1h2V19H25Z"/><path class="za75-8" d="M25,19h1V18h1V17H24v1h1Z"/><path class="za75-2" d="M26,19h1V18H26Z"/></svg>