<svg xmlns="http://www.w3.org/2000/svg" viewBox="0 0 29 33"><defs><style>polygon,rect,path{shape-rendering:crispedges;}.ea155-1{fill:#d4a122;}.ea155-2{fill:#000000;}.ea155-3{fill:#ffffff;}.ea155-4{fill:#c18d59;}.ea155-5{fill:#a37e94;}.ea155-6{fill:#ffffff;}.ea155-7{fill:#316a6d;}.ea155-8{fill:#e2e2e2;}.ea155-9{fill:#00af68;}</style></defs><path class="ea155-1" d="M0,33H6V27H7V26H8V25h2V24h2V21H11V20H10V19H9V16H8V15H9V14H8V11H9V10h1V9h2V8h5V9h1v1h1v1h1v4h1v1H20v3H19v1H18v1H17v3h2v1h2v1h1v1h1v6h6V0H0Z"/><path class="ea155-2" d="M23,27H22v3H21V27H20v6h1V31h1v2h1V27Z"/><rect class="ea155-2" x="21" y="26" width="1" height="1"/><path class="ea155-3" d="M21,28v2h1V27H21Z"/><path class="ea155-4" d="M21,31v2h1V31Z"/><path class="ea155-2" d="M20,26h1V25H19v1Z"/><rect class="ea155-3" x="12" y="30" width="1" height="1"/><rect class="ea155-3" x="16" y="30" width="1" height="1"/><path class="ea155-3" d="M16,32H12v1h5V32Z"/><path class="ea155-3" d="M20,27h1V26H19V25H17v1H16v1H13V26H12V25H10v1H8v1H9v6h1V30h1V29h1V28h5v1h1v1h1v3h1V27Z"/><path class="ea155-2" d="M18,25h1V24H17v1Z"/><rect class="ea155-2" x="16" y="25" width="1" height="1"/><path class="ea155-2" d="M13,26v1h3V26H13Z"/><path class="ea155-2" d="M13,23V22H12v2h1Z"/><path class="ea155-4" d="M13,25v1h3V25h1V24H16V23H13v1H12v1Z"/><rect class="ea155-2" x="12" y="25" width="1" height="1"/><path class="ea155-2" d="M12,24H10v1h2Z"/><path class="ea155-2" d="M10,25H8v1h2Z"/><path class="ea155-2" d="M9,27H8v3H7V27H6v6H7V31H8v2H9V27Z"/><rect class="ea155-2" x="7" y="26" width="1" height="1"/><path class="ea155-3" d="M7,30H8V27H7v3Z"/><path class="ea155-4" d="M7,31v2H8V31Z"/><path class="ea155-5" d="M19,30H18V29H17V28H12v1H11v1H10v3h2V32h5v1h2V30Zm-6,1H12V30h1Zm4,0H16V30h1Z"/><rect class="ea155-2" x="20" y="15" width="1" height="1"/><path class="ea155-4" d="M15,21h1V19H15v2Z"/><path class="ea155-4" d="M13,19v2h1V19Z"/><path class="ea155-4" d="M10,13v1h2V13H10Z"/><path class="ea155-4" d="M10,17v1h1v1h1V18h2v1h1V18h2v1h1V18h1V16h1V15H16V14h2V13H16V12h2v1h1V11H18V10H14v1H12v2h1v2H9v1h1Zm4-1h1v1H14Z"/><path class="ea155-2" d="M19,17h1V16H19Z"/><path class="ea155-2" d="M16,23v1h1V22H16Z"/><path class="ea155-2" d="M10,16H9v1h1Z"/><rect class="ea155-2" x="8" y="15" width="1" height="1"/><rect class="ea155-2" x="14" y="16" width="1" height="1"/><path class="ea155-6" d="M12,15h1V14H12Z"/><path class="ea155-6" d="M10,14v1h1V14Z"/><path class="ea155-6" d="M18,14v1h1V14Z"/><path class="ea155-6" d="M16,14v1h1V14Z"/><path class="ea155-2" d="M11,14v1h1V14Z"/><path class="ea155-2" d="M17,14v1h1V14Z"/><rect class="ea155-7" x="18" y="13" width="1" height="1"/><rect class="ea155-7" x="16" y="12" width="2" height="1"/><path class="ea155-7" d="M13,14V13H12v1Z"/><path class="ea155-7" d="M11,13h1V12H11Z"/><path class="ea155-8" d="M13,23h3V22h1V21h1V20h1V19h1V17H19v1H18v1H17V18H15v1h1v2H15V20H14v1H13V19h1V18H12v1H11V18H10V17H9v2h1v1h1v1h1v1h1Z"/><path class="ea155-2" d="M14,20h1V19H14Z"/><path class="ea155-9" d="M19,14v1h1V11H19v3Z"/><rect class="ea155-9" x="18" y="10" width="1" height="1"/><path class="ea155-9" d="M10,14V13h1V12h1V11h2V10h4V9H17V8H12V9H10v1H9v1H8v3H9v1h1Z"/></svg>