<svg xmlns="http://www.w3.org/2000/svg" viewBox="0 0 29 33"><defs><style>polygon,rect,path{shape-rendering:crispedges;}.ab5-1{fill:#29834f;}.ab5-2{fill:#000000;}.ab5-3{fill:#00af68;}.ab5-4{fill:#ce8452;}.ab5-5{fill:#ffffff;}.ab5-6{fill:#9b8100;}.ab5-7{fill:#0068ff;}.ab5-8{fill:#cbed03;}.ab5-9{fill:#00e070;}</style></defs><path class="ab5-1" d="M0,33H6V27H7V26H8V25h2V24h1V23h1V21H11V20H9V19H8V11H9V10h1V9h1V8h7V9h1v1h1v1h1v8H20v1H18v1H17v2h1v1h1v1h2v1h1v1h1v6h6V0H0Z"/><path class="ab5-2" d="M23,27H22v6h1V27Z"/><path class="ab5-3" d="M21,28v2h1V27H21Z"/><path class="ab5-3" d="M21,31v2h1V31Z"/><rect class="ab5-2" x="21" y="26" width="1" height="1"/><path class="ab5-2" d="M21,30V27H20v6h1V30Z"/><path class="ab5-3" d="M20,32V26H19V25H18v1H17v1H16V25H15v2H14V25H13v2H12V26H11V25H10v1H9v6h1v1h4V32h1v1h4V32Zm-9-3H10V28h1Zm2,2H12V30h1Zm2,0H14V30h1Zm0-2H14V28h1Zm2,2H16V30h1Zm1-2V28h1v1Z"/><path class="ab5-2" d="M20,26h1V25H19v1Z"/><rect class="ab5-3" x="16" y="24" width="1" height="1"/><rect class="ab5-2" x="15" y="24" width="1" height="1"/><rect class="ab5-2" x="14" y="32" width="1" height="1"/><rect class="ab5-2" x="14" y="30" width="1" height="1"/><rect class="ab5-2" x="14" y="28" width="1" height="1"/><path class="ab5-2" d="M14,26v1h1V25H14Z"/><rect class="ab5-2" x="13" y="24" width="1" height="1"/><path class="ab5-4" d="M16,24V23H13v1h1v1h1V24Z"/><rect class="ab5-3" x="12" y="24" width="1" height="1"/><path class="ab5-2" d="M11,26h2V25H12V24h1V23h3v1h1v1H16v1h2V25h1V24H18V23H17V21H16v1H13V21H12v2H11v1H10v1h1Z"/><path class="ab5-2" d="M10,26V25H8v1h2Z"/><path class="ab5-2" d="M9,31V27H8v6H9V31Z"/><path class="ab5-3" d="M7,30H8V27H7v3Z"/><path class="ab5-3" d="M7,31v2H8V31Z"/><rect class="ab5-2" x="7" y="26" width="1" height="1"/><path class="ab5-2" d="M7,30V27H6v6H7V30Z"/><rect class="ab5-5" x="10" y="28" width="1" height="1"/><rect class="ab5-5" x="12" y="30" width="1" height="1"/><path class="ab5-5" d="M12,27h1V26H12Z"/><rect class="ab5-5" x="16" y="30" width="1" height="1"/><rect class="ab5-5" x="18" y="28" width="1" height="1"/><path class="ab5-5" d="M16,27h1V26H16Z"/><path class="ab5-5" d="M9,27V26H8v1Z"/><path class="ab5-5" d="M19,32v1h1V32Z"/><path class="ab5-5" d="M9,32v1h1V32Z"/><path class="ab5-5" d="M7,31H8V30H7Z"/><path class="ab5-5" d="M21,31h1V30H21Z"/><path class="ab5-5" d="M20,27h1V26H20Z"/><path class="ab5-4" d="M13,14h3V13h1V11H15V10H14v1H13v3Z"/><rect class="ab5-4" x="14" y="15" width="1" height="1"/><path class="ab5-4" d="M13,22h3V21h1V20h1V19h1V17H16V16H15v1H14V16H13v1H10v2h1v1h1v1h1Zm-1-3V18h5v1H16v1H13V19Z"/><path class="ab5-2" d="M20,16H19v3h1V16Z"/><path class="ab5-2" d="M18,19v1h1V19Z"/><rect class="ab5-2" x="17" y="20" width="1" height="1"/><rect class="ab5-2" x="11" y="20" width="1" height="1"/><path class="ab5-2" d="M10,19v1h1V19Z"/><path class="ab5-2" d="M10,18V16H9v3h1Z"/><rect class="ab5-2" x="14" y="16" width="1" height="1"/><path class="ab5-6" d="M13,12H12v1h1Z"/><polygon class="ab5-2" points="13 20 16 20 16 19 17 19 17 18 12 18 12 19 13 19 13 20"/><path class="ab5-7" d="M9,16V15H8v4H9V16Z"/><path class="ab5-7" d="M20,16v3h1V15H20Z"/><path class="ab5-7" d="M10,13h2V12h1V11h1V10h1v1h2v2h2v1h2V11H20V10H19V9H18V8H11V9H10v1H9v1H8v3h2Z"/><path class="ab5-7" d="M9,19v1h1V19Z"/><path class="ab5-7" d="M19,20h1V19H19Z"/><path class="ab5-8" d="M19,16h1V15h1V14H19Z"/><path class="ab5-8" d="M16,14h3V13H16Z"/><path class="ab5-9" d="M19,16V14H16v2h3Z"/><path class="ab5-8" d="M18,16H16v1h3V16Z"/><path class="ab5-8" d="M13,14v2h1V15h1v1h1V14Z"/><path class="ab5-8" d="M13,14V13H10v1h3Z"/><path class="ab5-9" d="M12,14H10v2h3V14Z"/><path class="ab5-8" d="M10,16v1h3V16H10Z"/><path class="ab5-8" d="M9,16h1V14H8v1H9Z"/></svg>