<svg xmlns="http://www.w3.org/2000/svg" viewBox="0 0 29 33"><defs><style>polygon,rect,path{shape-rendering:crispedges;}.qa78-1{fill:#b4bd09;}.qa78-2{fill:#000000;}.qa78-3{fill:#00af68;}.qa78-4{fill:#ce8452;}.qa78-5{fill:#9fffc6;}.qa78-6{fill:#ffffff;}.qa78-7{fill:#473a35;}.qa78-8{fill:#473a35;}.qa78-9{fill:#ff1d99;}.qa78-10{fill:#fad000;}.qa78-11{fill:#6d5800;}.qa78-12{fill:#9b8100;}.qa78-13{fill:#ffffff;}.qa78-14{fill:#e70059;}</style></defs><path class="qa78-1" d="M20,23V19H19v1H18v2h1v1H18v1h1v1h2V23Z"/><path class="qa78-1" d="M0,33H6V27H7V26H8V25h2V24h1V23H10V22h1V20H10V19H9V16H8V15H9V11h1V10h1V9h2V7h1V6h2V5h2V6H17V7h1v3h2v5h1v1H20v2h1V17h1V16h1v1h1v1h1v5H24v8H23v1H21v1h8V0H0Z"/><path class="qa78-2" d="M23,26v5h1V25H23Z"/><path class="qa78-2" d="M7,27H6v6H7V27Z"/><path class="qa78-3" d="M8,27H7v6H8V27Z"/><rect class="qa78-2" x="7" y="26" width="1" height="1"/><path class="qa78-2" d="M9,31V27H8v6H9V31Z"/><path class="qa78-3" d="M19,32V31H18v1H17V30H16v1H15v1H13V30H12v2H11V31H10v1H9v1H20V32Z"/><rect class="qa78-3" x="10" y="29" width="1" height="1"/><path class="qa78-3" d="M18,24H16v1h1v4h1V28h1v1h1V27h1V26H19V25H18Z"/><path class="qa78-3" d="M9,27v2h1V28h1v1h1V25h1V24H11v1H10v1H8v1Z"/><rect class="qa78-3" x="18" y="29" width="1" height="1"/><path class="qa78-2" d="M10,25H8v1h2Z"/><rect class="qa78-2" x="10" y="24" width="1" height="1"/><rect class="qa78-2" x="10" y="22" width="1" height="1"/><rect class="qa78-3" x="11" y="22" width="1" height="1"/><path class="qa78-2" d="M12,21H11v1h1Z"/><path class="qa78-2" d="M13,23V22H12v1H11v1h2Z"/><path class="qa78-2" d="M16,25V24H13v1h3Z"/><path class="qa78-4" d="M16,24V23H13v1h3Z"/><path class="qa78-2" d="M17,24h1V23H17V22H16v2Z"/><rect class="qa78-3" x="17" y="22" width="1" height="1"/><path class="qa78-2" d="M18,21H17v1h1Z"/><rect class="qa78-2" x="18" y="24" width="1" height="1"/><rect class="qa78-2" x="18" y="22" width="1" height="1"/><path class="qa78-2" d="M22,32h1V31H22V25H19v1h2v1H20v6h1V32Z"/><path class="qa78-3" d="M23,26V25H22v6h1V26Z"/><path class="qa78-3" d="M13,28h2v1h1V25H13v3Z"/><path class="qa78-3" d="M14,29v2h1V29Z"/><path class="qa78-5" d="M19,30H18V29H17v3h1V31h1v1h1V29H19Z"/><rect class="qa78-5" x="18" y="28" width="1" height="1"/><path class="qa78-5" d="M15,29v2h1V29Z"/><path class="qa78-5" d="M14,30V29h1V28H13v4h2V31H14Z"/><path class="qa78-5" d="M11,29v1H10V29H9v3h1V31h1v1h1V29Z"/><rect class="qa78-5" x="10" y="28" width="1" height="1"/><path class="qa78-2" d="M13,27V25H12v5h1V27Z"/><path class="qa78-2" d="M17,28V25H16v5h1V28Z"/><rect class="qa78-2" x="20" y="15" width="1" height="1"/><path class="qa78-4" d="M18,15H16V14H14v2h1v1H14V16H13v1H11V16H10v2h1v1h1V18h2v1h1V18h2v1h1V18h1V16h1V15H18Z"/><rect class="qa78-4" x="9" y="15" width="1" height="1"/><path class="qa78-4" d="M13,13v1h1V13h2V12h2V10H15v1H13V10H11v1H10v2Z"/><rect class="qa78-4" x="15" y="20" width="1" height="1"/><path class="qa78-4" d="M17,14h2V13H16v1Z"/><rect class="qa78-4" x="13" y="20" width="1" height="1"/><path class="qa78-2" d="M19,17h1V16H19Z"/><path class="qa78-2" d="M13,9H11v1h2Z"/><path class="qa78-2" d="M16,10h2V9H16Z"/><rect class="qa78-2" x="10" y="10" width="1" height="1"/><path class="qa78-2" d="M10,16H9v1h1Z"/><rect class="qa78-2" x="8" y="15" width="1" height="1"/><rect class="qa78-2" x="14" y="16" width="1" height="1"/><path class="qa78-6" d="M18,15h1V14H18Z"/><path class="qa78-6" d="M16,14v1h1V14Z"/><path class="qa78-2" d="M17,14v1h1V14Z"/><path class="qa78-7" d="M19,13V12H18v1Z"/><path class="qa78-7" d="M10,13v1h3V13Z"/><path class="qa78-8" d="M14,18H13v1h1Z"/><path class="qa78-8" d="M12,22h1v1h3V22h1V21h1V20h1V19h1V17H19v1H18v1H17V18H15v1h1v2H15V20H14v1H13V19H11V18H10V17H9v2h1v1h1v1h1Z"/><path class="qa78-2" d="M13,19v1h3V19H13Z"/><path class="qa78-2" d="M12,18v1h1V18Z"/><path class="qa78-9" d="M13,11h2V10h1V9h2V7H17V6h1V5H16V6H14V7H13v4Z"/><path class="qa78-2" d="M10,16h1v1h2V16h1V14H10V11H9v4h1Z"/><rect class="qa78-2" x="14" y="13" width="2" height="1"/><path class="qa78-2" d="M18,12H16v1h2Z"/><path class="qa78-2" d="M19,12v3h1V10H18v2Z"/><path class="qa78-10" d="M20,20v1h5V18H24v2H23V18H22v2H21V18H20v2Z"/><path class="qa78-2" d="M22,20V18H21v2Z"/><path class="qa78-2" d="M23,19v1h1V18H23Z"/><path class="qa78-11" d="M22,23H21v2h3V23H22Z"/><path class="qa78-12" d="M21,23V21H20v2Z"/><path class="qa78-12" d="M24,21.222V23h1V21H24Z"/><path class="qa78-2" d="M23,22V21H22v1Z"/><path class="qa78-13" d="M22,22V21H21v1Z"/><path class="qa78-13" d="M24,22V21H23v1Z"/><rect class="qa78-10" x="21" y="17" width="1" height="1"/><rect class="qa78-10" x="23" y="17" width="1" height="1"/><polygon class="qa78-12" points="23 18 23 17 23 16 22 16 22 17 22 18 23 18"/><path class="qa78-14" d="M22,23h1V22H22Z"/><path class="qa78-2" d="M21,22v1h1V22Z"/><path class="qa78-2" d="M23,22v1h1V22Z"/><rect class="qa78-9" x="18" y="9" width="1" height="1"></rect></svg>