<svg xmlns="http://www.w3.org/2000/svg" viewBox="0 0 29 33"><defs><style>polygon,rect,path{shape-rendering:crispedges;}.ya290-1{fill:#d4a122;}.ya290-2{fill:#000000;}.ya290-3{fill:#333333;}.ya290-4{fill:#ce8452;}.ya290-5{fill:#6f7032;}.ya290-6{fill:#ffffff;}.ya290-7{fill:#473a35;}.ya290-8{fill:#473a35;}.ya290-9{fill:#cbed03;}</style></defs><path class="ya290-1" d="M0,33H6V27H7V26H8V25h2V24h1V23h1V21H11V20H10V19H9V16H8V14H9V12H8v1H7V12H8V11H9V10h1V9h2V8h5V9h2v1h1v1h1v1h1v1H21V12H20v2h1v2H20v3H19v1H18v1H17v2h1v1h1v1h2v1h1v1h1v6h6V0H0Z"/><path class="ya290-2" d="M23,27H22v6h1V27Z"/><path class="ya290-3" d="M21,31v1h1V30H21Z"/><path class="ya290-3" d="M21,28h1V27H21Z"/><rect class="ya290-2" x="21" y="26" width="1" height="1"/><path class="ya290-2" d="M21,31V27H20v6h1V31Z"/><path class="ya290-3" d="M18,26v2h1v1h1V27H19V25H18Z"/><path class="ya290-3" d="M19,31V30H18V28H17V27H16V25H15v3h1v1h1v2h1v1h1v1h1V31Z"/><rect class="ya290-3" x="14" y="29" width="1" height="1"/><path class="ya290-3" d="M13,29h1V27H13V26H12v2h1Z"/><path class="ya290-3" d="M10,31V30H9v2h1v1h1V31Z"/><path class="ya290-3" d="M14,31H13V30H12V28H11V27H10V26H9v2h1v1h1v2h1v1h1v1h1V31Z"/><path class="ya290-3" d="M16,31V30H15v2h1v1h1V31Z"/><path class="ya290-2" d="M20,26h1V25H19v1Z"/><rect class="ya290-3" x="16" y="24" width="1" height="1"/><rect class="ya290-2" x="15" y="24" width="1" height="1"/><path class="ya290-2" d="M14,32v1h1V32Z"/><path class="ya290-2" d="M14,31h1V30H14Z"/><path class="ya290-2" d="M14,29h1V28H14Z"/><path class="ya290-2" d="M14,26v1h1V25H14Z"/><rect class="ya290-2" x="13" y="24" width="1" height="1"/><path class="ya290-4" d="M16,24V23H13v1h1v1h1V24Z"/><path class="ya290-2" d="M11,26h2V25H12V24h1V23h3v1h1v1H16v1h2V25h1V24H18V23H17V21H16v1H13V21H12v2H11v1H10v1h1Z"/><path class="ya290-2" d="M10,26V25H8v1h2Z"/><path class="ya290-2" d="M9,31V27H8v6H9V31Z"/><path class="ya290-3" d="M7,31v2H8V31Z"/><path class="ya290-3" d="M8,29V27H7v2Z"/><rect class="ya290-2" x="7" y="26" width="1" height="1"/><path class="ya290-2" d="M7,30V27H6v6H7V30Z"/><path class="ya290-5" d="M21,29v1h1V28H21Z"/><path class="ya290-5" d="M21,32v1h1V32Z"/><path class="ya290-5" d="M19,26v1h2V26H19Z"/><path class="ya290-5" d="M19,28H18v2h1v1h1V29H19Z"/><path class="ya290-5" d="M16,26v1h1v1h1V26Z"/><path class="ya290-5" d="M18,32V31H17v2h2V32Z"/><path class="ya290-5" d="M15,30h1v1h1V29H16V28H15v2Z"/><path class="ya290-5" d="M14,28h1V27H14Z"/><polygon class="ya290-5" points="14 27 14 26 14 25 13 25 13 26 13 27 14 27"/><path class="ya290-5" d="M14,32h1V31H14Z"/><rect class="ya290-5" x="15" y="32" width="1" height="1"/><path class="ya290-5" d="M14,29H13V28H12v2h1v1h1V29Z"/><rect class="ya290-5" x="12" y="24" width="1" height="1"/><path class="ya290-5" d="M10,27h1v1h1V26H11V25H10v2Z"/><path class="ya290-5" d="M12,32V31H11v2h2V32Z"/><path class="ya290-5" d="M10,30v1h1V29H10V28H9v2Z"/><path class="ya290-5" d="M9,32v1h1V32Z"/><path class="ya290-5" d="M9,27V26H8v1Z"/><path class="ya290-5" d="M7,30v1H8V29H7Z"/><path class="ya290-2" d="M20,16h1V15H20Z"/><rect class="ya290-2" x="19" y="14" width="1" height="1"/><path class="ya290-4" d="M16,13V12H15V11H14v1H13v1H11v1h3V13Z"/><path class="ya290-4" d="M13,22h3V21h1V20h1V19h1V16h1V15H16V14H14v2h1v1H14V16H13v1H11V16H10v3h1v1h1v1h1Zm-1-3V18h5v1H16v1H13V19Z"/><rect class="ya290-4" x="9" y="15" width="1" height="1"/><path class="ya290-4" d="M17,14h2V13H17Z"/><path class="ya290-2" d="M19,17v2h1V16H19Z"/><rect class="ya290-2" x="18" y="19" width="1" height="1"/><rect class="ya290-2" x="17" y="20" width="1" height="1"/><rect class="ya290-2" x="11" y="20" width="1" height="1"/><rect class="ya290-2" x="10" y="19" width="1" height="1"/><path class="ya290-2" d="M10,15v1h1v1h2V16h1V14H10V13H9v2Z"/><path class="ya290-2" d="M10,16H9v3h1V16Z"/><path class="ya290-2" d="M8,15v1H9V15Z"/><rect class="ya290-2" x="14" y="16" width="1" height="1"/><path class="ya290-6" d="M18,14v1h1V14Z"/><path class="ya290-6" d="M16,14v1h1V14Z"/><path class="ya290-2" d="M17,14v1h1V14Z"/><path class="ya290-7" d="M10,13v1h1V13Z"/><path class="ya290-7" d="M13,12H12v1h1Z"/><rect class="ya290-7" x="16" y="13" width="1" height="1"/><path class="ya290-8" d="M16,19h1V18H13v1Z"/><rect class="ya290-2" x="13" y="19" width="3" height="1"/><path class="ya290-2" d="M13,18H12v1h1Z"/><rect class="ya290-9" x="21" y="12" width="1" height="1"/><path class="ya290-9" d="M19,12H18v1h1v1h1V12h1V11H19Z"/><path class="ya290-9" d="M11,13h1V12h2V11h1v1h3V11h1V9H17V8H12V9H10v1H9v1H8v1H9v1h2Z"/><path class="ya290-9" d="M21,15V14H20v1Z"/><path class="ya290-9" d="M9,14H8v1H9Z"/><rect class="ya290-9" x="7" y="12" width="1" height="1"/><rect class="ya290-2" x="14" y="13" width="2" height="1"/><path class="ya290-2" d="M17,13h1V12H16v1Z"/><rect class="ya290-2" x="18" y="11" width="1" height="1"/><path class="ya290-2" d="M20,11V10H19v1Z"/></svg>