<svg xmlns="http://www.w3.org/2000/svg" viewBox="0 0 29 33"><defs><style>polygon,rect,path{shape-rendering:crispedges;}.oa226-1{fill:#e55b35;}.oa226-2{fill:#000000;}.oa226-3{fill:#6e12ff;}.oa226-4{fill:#317f03;}.oa226-5{fill:#a56e49;}.oa226-6{fill:#99ce09;}.oa226-7{fill:#ffffff;}.oa226-8{fill:#473a35;}.oa226-9{fill:#fad000;}.oa226-10{fill:#d8be00;}</style></defs><path class="oa226-1" d="M0,33H6V27H7V26H8V25h2V23h1V22h1V21H11V20H10V19H9V18H8V12H9V10h1V9h1V8h7V9h1v1h1v5h1v1H20v3H19v1H18v1H17v1h1v1h1v2h2v1h1v1h1v6h6V0H0Z"/><path class="oa226-2" d="M23,27H22v6h1V27Z"/><rect class="oa226-2" x="21" y="26" width="1" height="1"/><path class="oa226-3" d="M21,32v1h1V32Z"/><path class="oa226-3" d="M21,30v1h1V29H21Z"/><path class="oa226-3" d="M21,28h1V27H21Z"/><path class="oa226-2" d="M21,31V27H20v6h1V31Z"/><path class="oa226-3" d="M19,32v1h1V32Z"/><path class="oa226-3" d="M19,26v1H18v3h1v1h1V29H19V28h1V27h1V26H19Z"/><path class="oa226-2" d="M20,26h1V25H19v1Z"/><path class="oa226-2" d="M18,30V25H17v1H16v1h1v6h1V30Z"/><path class="oa226-4" d="M17,27H16v2H15v1H14V29H13V27H12v6h5V27Z"/><path class="oa226-5" d="M14,24h1v1h1V23H13v2h1Z"/><path class="oa226-2" d="M12,27h1V26H12V25H11v8h1V27Z"/><rect class="oa226-3" x="9" y="32" width="1" height="1"/><path class="oa226-3" d="M9,27v1h1v1H9v2h1V30h1V27H10V26H8v1Z"/><path class="oa226-2" d="M10,25H8v1h2Z"/><path class="oa226-2" d="M9,31V27H8v6H9V31Z"/><rect class="oa226-2" x="7" y="26" width="1" height="1"/><path class="oa226-3" d="M8,28V27H7v1Z"/><path class="oa226-3" d="M7,30v1H8V29H7Z"/><path class="oa226-3" d="M7,32v1H8V32Z"/><path class="oa226-2" d="M7,31V27H6v6H7V31Z"/><path class="oa226-6" d="M11,30H10v1H9v1h1v1h1V30Z"/><path class="oa226-6" d="M10,27h1V25H10v2Z"/><path class="oa226-6" d="M18,26v1h1V25H18Z"/><path class="oa226-6" d="M7,29H8V28H7Z"/><path class="oa226-6" d="M10,28H9v1h1Z"/><path class="oa226-6" d="M21,29h1V28H21Z"/><path class="oa226-6" d="M19,29h1V28H19Z"/><path class="oa226-6" d="M21,32h1V31H21Z"/><path class="oa226-6" d="M7,32H8V31H7Z"/><path class="oa226-6" d="M20,32V31H19V30H18v3h1V32Z"/><rect class="oa226-2" x="20" y="15" width="1" height="1"/><polygon class="oa226-5" points="18 14 19 14 19 13 17 13 17 14 18 14"/><path class="oa226-5" d="M13,22h3V21h1V20h1V19h1V16h1V15H16V13h1V12h2V11H18V10H16v1H14v1H13v1H11v1h2v1H9v1h1v3h1v1h1v1h1Zm1-6h1v1H14Zm-2,3V18h5v1H16v1H13V19Z"/><path class="oa226-2" d="M19,17v2h1V16H19Z"/><rect class="oa226-2" x="18" y="19" width="1" height="1"/><rect class="oa226-2" x="17" y="20" width="1" height="1"/><rect class="oa226-2" x="11" y="20" width="1" height="1"/><rect class="oa226-2" x="10" y="19" width="1" height="1"/><path class="oa226-2" d="M10,16H9v3h1V16Z"/><rect class="oa226-2" x="14" y="16" width="1" height="1"/><path class="oa226-7" d="M10,15h1V14H10Z"/><path class="oa226-7" d="M16,14v1h1V14Z"/><path class="oa226-2" d="M12,15h1V14H11v1Z"/><path class="oa226-2" d="M18,14H17v1h2V14Z"/><path class="oa226-8" d="M17,13H16v1h1Z"/><rect class="oa226-8" x="17" y="12" width="2" height="1"/><rect class="oa226-2" x="14" y="29" width="1" height="1"/><path class="oa226-2" d="M15,28v1h1V27H15Z"/><path class="oa226-2" d="M13,27v2h1V27Z"/><rect class="oa226-2" x="14" y="24" width="1" height="1"/><rect class="oa226-2" x="13" y="25" width="1" height="1"/><rect class="oa226-2" x="15" y="25" width="1" height="1"/><path class="oa226-2" d="M12,24v1h1V23h3v2h1V23h1V22H17V21H16v1H13V21H12v1H11v1h1Z"/><rect class="oa226-9" x="16" y="25" width="1" height="1"/><path class="oa226-9" d="M15,25H14v1H13v1h1v2h1V27h1V26H15Z"/><rect class="oa226-9" x="12" y="25" width="1" height="1"/><path class="oa226-9" d="M11,25h1V23H11v2Z"/><path class="oa226-9" d="M17,24v1h1V23H17Z"/><path class="oa226-2" d="M19,25V23H18v2Z"/><path class="oa226-2" d="M11,24V23H10v2h1Z"/><path class="oa226-2" d="M13,18H12v1h1Z"/><path class="oa226-2" d="M17,19V18H16v1Z"/><path class="oa226-2" d="M13,19v1h3V19H15V18H14v1Z"/><path class="oa226-7" d="M14,19V18H13v1Z"/><path class="oa226-7" d="M16,19V18H15v1Z"/><path class="oa226-10" d="M9,15h1V14h1V13h2V12h1V11h2V10h2v1h1v4h1V10H19V9H18V8H11V9H10v1H9v2H8v6H9V15Z"/></svg>