<svg xmlns="http://www.w3.org/2000/svg" viewBox="0 0 29 33"><defs><style>polygon,rect,path{shape-rendering:crispedges;}.eb66-1{fill:#397d98;}.eb66-2{fill:#000000;}.eb66-3{fill:#3e5e00;}.eb66-4{fill:#b23b00;}.eb66-5{fill:#ce8452;}.eb66-6{fill:#90a2a3;}.eb66-7{fill:#ffffff;}.eb66-8{fill:#663228;}.eb66-9{fill:#663228;}.eb66-10{fill:#c8a715;}.eb66-11{fill:#c4ea3b;}</style></defs><path class="eb66-1" d="M0,33H6V27H7V26H8V25H9V24h1V20H9V18H8V13H9V11h1V10h1V9h7v1h1v1h1v1h1v6H20v2H19v4h2V23h1v1h1v9h6V0H0Z"/><path class="eb66-2" d="M7,27H6v6H7V27Z"/><path class="eb66-3" d="M8,27H7v6H8V27Z"/><path class="eb66-2" d="M9,29h1V28h2V27H9V25H8v1H7v1H8v6H9V29Z"/><rect class="eb66-2" x="9" y="24" width="1" height="1"/><path class="eb66-3" d="M12,32V31H11V30H10V29H9v4h4V32Z"/><path class="eb66-3" d="M10,26v1h2v1H10v1h1v1h1v1h1V26H12V25H11V24H10v1H9v1Z"/><rect class="eb66-2" x="11" y="22" width="1" height="1"/><rect class="eb66-3" x="11" y="23" width="1" height="1"/><rect class="eb66-2" x="11" y="24" width="1" height="1"/><rect class="eb66-2" x="10" y="29" width="1" height="1"/><rect class="eb66-2" x="12" y="25" width="1" height="1"/><path class="eb66-4" d="M15,27H14v6h1V27Z"/><path class="eb66-5" d="M16,24V23H13v3h3V24Z"/><path class="eb66-2" d="M17,25H16v1h1Z"/><path class="eb66-3" d="M20,29H19v1H18v1H17v1H16v1h4V29Z"/><rect class="eb66-2" x="17" y="22" width="1" height="1"/><rect class="eb66-3" x="17" y="23" width="1" height="1"/><rect class="eb66-2" x="17" y="24" width="1" height="1"/><rect class="eb66-2" x="17" y="30" width="1" height="1"/><path class="eb66-3" d="M18,25H17v1H16v5h1V30h1V29h1V28H17V27h2V24H18Z"/><path class="eb66-2" d="M21,27H17v1h2v1h1v4h1V27Z"/><path class="eb66-3" d="M22,27H21v6h1V27Z"/><path class="eb66-2" d="M23,24H22v9h1V24Z"/><rect class="eb66-2" x="18" y="29" width="1" height="1"/><rect class="eb66-2" x="11" y="30" width="1" height="1"/><path class="eb66-2" d="M17,32V31H16V26H13v5H12v1h1v1h1V27h1v6h1V32Z"/><path class="eb66-6" d="M9,26v1h1V26Z"/><path class="eb66-6" d="M19,27h0Z"/><rect class="eb66-2" x="19" y="14" width="1" height="1"/><path class="eb66-5" d="M18,15H16v1H15v1H14V16h1V14h1V12H15V11H14v4H13v2H12V15H11v4h1V18h2v1h1V18h2v1h1V15Z"/><polygon class="eb66-5" points="13 21 14 21 14 22 15 22 15 21 16 21 16 20 13 20 13 21"/><rect class="eb66-5" x="9" y="15" width="1" height="1"/><rect class="eb66-5" x="19" y="15" width="1" height="1"/><rect class="eb66-5" x="12" y="12" width="1" height="1"/><rect class="eb66-5" x="17" y="13" width="1" height="1"/><rect class="eb66-5" x="17" y="11" width="1" height="1"/><rect class="eb66-5" x="11" y="13" width="1" height="1"/><rect class="eb66-2" x="19" y="16" width="1" height="1"/><rect class="eb66-2" x="9" y="16" width="1" height="1"/><rect class="eb66-2" x="14" y="16" width="1" height="1"/><rect class="eb66-7" x="12" y="14" width="1" height="1"/><path class="eb66-7" d="M17,15V14H16v1Z"/><rect class="eb66-2" x="11" y="14" width="1" height="1"/><path class="eb66-2" d="M18,15V14H17v1Z"/><rect class="eb66-8" x="17" y="12" width="1" height="1"/><rect class="eb66-8" x="12" y="13" width="1" height="1"/><rect class="eb66-8" x="11" y="12" width="1" height="1"/><path class="eb66-9" d="M12,22v1h5V22h2V18H18v1H16v2H15v1H14V21H13V19h1V18H12v1H11V18H10v4h2Z"/><path class="eb66-9" d="M15,18v1h1V18Z"/><rect class="eb66-9" x="19" y="17" width="1" height="1"/><rect class="eb66-9" x="9" y="17" width="1" height="1"/><path class="eb66-10" d="M18,23h1V22H18Z"/><path class="eb66-9" d="M18,24h1V23H18Z"/><path class="eb66-10" d="M17,24V23H16v1Z"/><path class="eb66-9" d="M16,24v1h1V24Z"/><path class="eb66-10" d="M13,24V23H12v1Z"/><path class="eb66-9" d="M13,24H12v1h1Z"/><path class="eb66-10" d="M11,22H10v1h1Z"/><path class="eb66-9" d="M11,23H10v1h1Z"/><path class="eb66-2" d="M14,19H13v1h3V19H14Z"/><path class="eb66-2" d="M16,18v1h1V18Z"/><path class="eb66-5" d="M20,25v2h2V24H21v1Z"/><path class="eb66-2" d="M19,27h1V25h1V24H19v3Z"/><rect class="eb66-2" x="21" y="22.999" width="1" height="1"/><path class="eb66-11" d="M9,16V15h1v3h1V12h2v3h1V11h1v1h1v2h1V11h1v7h1V14h1v4h1V12H20V11H19V10H18V9H11v1H10v1H9v2H8v5H9V16Z"/><path class="eb66-11" d="M19,19v1h1V18H19Z"/><path class="eb66-11" d="M15,15v1h1V14H15Z"/><path class="eb66-11" d="M12,16v1h1V15H12Z"/><path class="eb66-11" d="M9,18v2h1V18Z"/></svg>