<svg xmlns="http://www.w3.org/2000/svg" viewBox="0 0 29 33"><defs><style>polygon,rect,path{shape-rendering:crispedges;}.ya116-1{fill:#397d98;}.ya116-2{fill:#000000;}.ya116-3{fill:#66334f;}.ya116-4{fill:#c18d59;}.ya116-5{fill:#ffffff;}.ya116-6{fill:#4922aa;}.ya116-7{fill:#d8be00;}</style></defs><path class="ya116-1" d="M0,33H6V27H7V26H8V25h2V24h1V23h1V22H11V21H10V20H9V16H8V15H9V11h1V10h1V9h7v1h1v1h1v4h1v1H20v4H19v1H18v1H17v1h1v1h1v1h2v1h1v1h1v6h6V0H0Z"/><path class="ya116-2" d="M23,27H22v6h1V27Z"/><path class="ya116-3" d="M22,27H21v6h1V27Z"/><rect class="ya116-2" x="21" y="26" width="1" height="1"/><path class="ya116-2" d="M21,27H20v6h1V27Z"/><path class="ya116-3" d="M20,27h1V26H19V25H18v1H16V25H15v2H14V25H13v1H11V25H10v1H8v1H9v6h5V32h1v1h5V27Zm-5,4H14V30h1Zm0-2H14V28h1Z"/><path class="ya116-2" d="M20,26h1V25H19v1Z"/><rect class="ya116-3" x="16" y="24" width="1" height="1"/><path class="ya116-2" d="M16,24h1v1H16v1h2V25h1V24H18V23H16Z"/><rect class="ya116-2" x="15" y="24" width="1" height="1"/><rect class="ya116-2" x="14" y="32" width="1" height="1"/><rect class="ya116-2" x="14" y="30" width="1" height="1"/><rect class="ya116-2" x="14" y="28" width="1" height="1"/><path class="ya116-2" d="M14,26v1h1V25H14Z"/><rect class="ya116-2" x="13" y="24" width="1" height="1"/><path class="ya116-4" d="M16,24V23H13v1h1v1h1V24Z"/><rect class="ya116-3" x="12" y="24" width="1" height="1"/><path class="ya116-2" d="M11,26h2V25H12V24h1V23H11v1H10v1h1Z"/><path class="ya116-2" d="M10,25H8v1h2Z"/><path class="ya116-2" d="M9,27H8v6H9V27Z"/><path class="ya116-3" d="M8,27H7v6H8V27Z"/><rect class="ya116-2" x="7" y="26" width="1" height="1"/><path class="ya116-2" d="M7,27H6v6H7V27Z"/><rect class="ya116-2" x="20" y="15" width="1" height="1"/><path class="ya116-4" d="M18,15H15v2H14V15H13v1H11v2h5v1h1V18h1V17h1V16h1V15H18Z"/><rect class="ya116-4" x="16" y="13" width="1" height="1"/><rect class="ya116-4" x="9" y="15" width="1" height="1"/><rect class="ya116-2" x="8" y="15" width="1" height="1"/><path class="ya116-2" d="M15,17V16H14v1Z"/><path class="ya116-5" d="M19,15V14H18v1Z"/><path class="ya116-5" d="M17,14H16v1h1Z"/><path class="ya116-2" d="M18,15V14H17v1Z"/><path class="ya116-6" d="M15,18H13v1h3V18Z"/><path class="ya116-6" d="M14,23h3V22h1V21h1V20h1V16H19v1H18v1H17v1H16v1H13V19H12V18H11V17H10V16H9v4h1v1h1v1h1v1h2Z"/><rect class="ya116-2" x="13" y="19" width="3" height="1"/><path class="ya116-2" d="M12,18v1h1V18Z"/><path class="ya116-7" d="M10,16v1h1V16h2V15h1v1h1V15h1V13h1v1h2v1h1V11H19V10H18V9H11v1H10v1H9v4h1Z"/></svg>