<svg xmlns="http://www.w3.org/2000/svg" viewBox="0 0 29 33"><defs><style>polygon,rect,path{shape-rendering:crispedges;}.na55-1{fill:#6b4f99;}.na55-2{fill:#000000;}.na55-3{fill:#a89969;}.na55-4{fill:#db5800;}.na55-5{fill:#ce8452;}.na55-6{fill:#492a23;}.na55-7{fill:#ffce00;}.na55-8{fill:#68aaad;}</style></defs><path class="na55-1" d="M0,33H6V27H7V26H8V25h2V24h2V21H11V20H10V19H9V16H8V15H9V14H8V11H9V10h1V9h2V8h5V9h1v1h1v1h1v4h1v1H20v3H19v1H18v1H17v3h2v1h2v1h1v1h1v6h6V0H0Z"/><path class="na55-2" d="M23,27H22v6h1V27Z"/><rect class="na55-2" x="21" y="26" width="1" height="1"/><path class="na55-3" d="M22,27H21v6h1V27Z"/><path class="na55-2" d="M21,27H20v6h1V27Z"/><path class="na55-3" d="M20,27h1V26H19V25H18v8h2V27Z"/><path class="na55-2" d="M20,26h1V25H19v1Z"/><path class="na55-2" d="M18,25h1V24H17v1H16v1h1v7h1V25Z"/><path class="na55-4" d="M17,26H16v1H13V26H12v7h5V26Z"/><path class="na55-2" d="M13,26v1h3V26H13Z"/><path class="na55-2" d="M13,23h3v1h1V21H16v1H13V21H12v3h1Z"/><path class="na55-5" d="M13,25v1h3V25h1V24H16V23H13v1H12v1Z"/><path class="na55-2" d="M12,26h1V25H12V24H10v1h1v8h1V26Z"/><path class="na55-3" d="M11,25H10v1H8v1H9v6h2V25Z"/><path class="na55-2" d="M10,25H8v1h2Z"/><path class="na55-2" d="M9,27H8v6H9V27Z"/><rect class="na55-2" x="7" y="26" width="1" height="1"/><path class="na55-3" d="M8,27H7v6H8V27Z"/><path class="na55-2" d="M7,27H6v6H7V27Z"/><rect class="na55-2" x="20" y="15" width="1" height="1"/><path class="na55-5" d="M13,22h3V21h1V20h1V19h1V16H16V15H13v1H10v3h1v1h1v1h1Zm1-6h1v1H14Zm-1,3h3V18h1v1H16v1H13Z"/><rect class="na55-5" x="19" y="15" width="1" height="1"/><path class="na55-5" d="M14,10v1H12v2h2v1h1V13h1V12h2v1h1V11H18V10H14Z"/><rect class="na55-5" x="9" y="15" width="1" height="1"/><path class="na55-2" d="M19,17v2h1V16H19Z"/><rect class="na55-2" x="18" y="19" width="1" height="1"/><rect class="na55-2" x="17" y="20" width="1" height="1"/><rect class="na55-2" x="11" y="20" width="1" height="1"/><rect class="na55-2" x="10" y="19" width="1" height="1"/><path class="na55-2" d="M10,16H9v3h1V16Z"/><rect class="na55-2" x="8" y="15" width="1" height="1"/><rect class="na55-2" x="14" y="16" width="1" height="1"/><path class="na55-6" d="M18,12H16v1h2Z"/><path class="na55-6" d="M12,12H11v1h1Z"/><rect class="na55-2" x="13" y="19" width="3" height="1"/><rect class="na55-2" x="16" y="18" width="1" height="1"/><path class="na55-7" d="M19,14h1V11H19v3Z"/><rect class="na55-7" x="18" y="10" width="1" height="1"/><path class="na55-7" d="M10,13h1V12h1V11h2V10h4V9H17V8H12V9H10v1H9v1H8v3h2Z"/><path class="na55-8" d="M13,14H10v2h3V15h1V14Z"/><path class="na55-8" d="M19,14H15v1h1v1h3V14Z"/><path class="na55-2" d="M19,14V13H15v1h4Z"/><path class="na55-2" d="M13,14h1V13H10v1h3Z"/><path class="na55-2" d="M19,15h1V14H19Z"/><path class="na55-2" d="M10,14H9v1h1Z"/><path class="na55-2" d="M14,14v1h1V14Z"/></svg>