<svg xmlns="http://www.w3.org/2000/svg" viewBox="0 0 29 33"><defs><style>polygon,rect,path{shape-rendering:crispedges;}.ga72-1{fill:#31a09d;}.ga72-2{fill:#000000;}.ga72-3{fill:#004a77;}.ga72-4{fill:#6d3e35;}.ga72-5{fill:#004a77;}.ga72-6{fill:#ffffff;}.ga72-7{fill:#8e703c;}.ga72-8{fill:#8e703c;}.ga72-9{fill:#72dd40;}</style></defs><path class="ga72-1" d="M0,33H6V27H7V26H8V25h2V24h2V21H11V20H10V19H9V16H8V15H9V11h1V10h1V9h7v1h1v1h1v4h1v1H20v3H19v1H18v1H17v3h2v1h2v1h1v1h1v6h6V0H0Z"/><path class="ga72-2" d="M23,27H22v6h1V27Z"/><rect class="ga72-2" x="21" y="26" width="1" height="1"/><path class="ga72-3" d="M22,27H21v6h1V27Z"/><path class="ga72-2" d="M21,27H20v6h1V27Z"/><path class="ga72-2" d="M20,26h1V25H19v1Z"/><path class="ga72-3" d="M20,27h1V26H19V25H17v1H16v1H13V26H12V25H10v1H9v7H20V27Zm-9,2v3H10V28h1Zm4,3H12V28h3Zm4-3H17v2h1V30h1v2H16V28h3Z"/><rect class="ga72-3" x="13" y="29" width="1" height="2"/><path class="ga72-2" d="M18,25h1V24H17v1Z"/><rect class="ga72-2" x="16" y="25" width="1" height="1"/><path class="ga72-2" d="M13,26v1h3V26H13Z"/><path class="ga72-2" d="M13,23h3v1h1V21H16v1H13V21H12v3h1Z"/><path class="ga72-4" d="M13,25v1h3V25h1V24H16V23H13v1H12v1Z"/><rect class="ga72-2" x="12" y="25" width="1" height="1"/><path class="ga72-2" d="M12,24H10v1h2Z"/><path class="ga72-2" d="M9,26h1V25H8v1H7v1H8v6H9V26Z"/><path class="ga72-3" d="M8,27H7v6H8V27Z"/><path class="ga72-2" d="M7,27H6v6H7V27Z"/><path class="ga72-5" d="M12,32h3V28H12Zm1-3h1v2H13Z"/><path class="ga72-5" d="M10,29v3h1V28H10Z"/><path class="ga72-5" d="M16,28v4h3V30H18v1H17V29h2V28H16Z"/><rect class="ga72-2" x="20" y="15" width="1" height="1"/><path class="ga72-4" d="M13,20v2h3V20Z"/><path class="ga72-4" d="M12,19V18h5v2h1V19h1V17H18V16H16V15H15v2H14V15H9v1h1v3h1v1h1Z"/><rect class="ga72-4" x="19" y="15" width="1" height="1"/><path class="ga72-2" d="M19,17v2h1V16H19Z"/><rect class="ga72-2" x="18" y="19" width="1" height="1"/><rect class="ga72-2" x="17" y="20" width="1" height="1"/><rect class="ga72-2" x="11" y="20" width="1" height="1"/><rect class="ga72-2" x="10" y="19" width="1" height="1"/><path class="ga72-2" d="M10,16H9v3h1V16Z"/><rect class="ga72-2" x="8" y="15" width="1" height="1"/><path class="ga72-2" d="M14,17h1V16H14Z"/><path class="ga72-6" d="M12,14v1h1V14Z"/><path class="ga72-6" d="M10,14v1h1V14Z"/><path class="ga72-2" d="M11,14v1h1V14Z"/><rect class="ga72-7" x="12" y="13" width="1" height="1"/><path class="ga72-8" d="M13,20V19h3v2h1V18H12v3h1Z"/><path class="ga72-2" d="M16,19H13v1h3Z"/><path class="ga72-9" d="M10,14h2V13h1v2h1v1h1V15h1v1h2v1h1V15h1V11H19V10H18V9H11v1H10v1H9v4h1Z"/></svg>