<svg xmlns="http://www.w3.org/2000/svg" viewBox="0 0 29 33"><defs><style>polygon,rect,path{shape-rendering:crispedges;}.aa242-1{fill:#e55b35;}.aa242-2{fill:#000000;}.aa242-3{fill:#b2622b;}.aa242-4{fill:#cc2f76;}.aa242-5{fill:#ffa9d0;}.aa242-6{fill:#ffffff;}.aa242-7{fill:#7f5018;}.aa242-8{fill:#ff5e17;}</style></defs><path class="aa242-1" d="M0,33H6V27H7V26H8V25h2V24h2V21H11V20H10V19H9V16H8V15H9V10h1V9h1V8h7V9h1v1h1v5h1v1H20v3H19v1H18v1H17v3h2v1h2V23H20V21h1V20h1V19h2v1h1v3H24v8H23v1H21v1h8V0H0Z"/><path class="aa242-2" d="M7,31V27H6v6H7Z"/><rect class="aa242-2" x="7" y="26" width="1" height="1"/><path class="aa242-3" d="M8,31V27H7v6H8Z"/><rect class="aa242-3" x="8" y="26" width="1" height="1"/><path class="aa242-2" d="M9,31V27H8v6H9Z"/><path class="aa242-2" d="M10,26V25H8v1Z"/><path class="aa242-4" d="M17,31V30h1V29h1v1h1V26H19V25H18v1H17v1H16v1H13V27H12V26H11V25H10v1H9v4h1V29h1v1h1v3h1V29h2v1h1v2H15v1h2Z"/><rect class="aa242-4" x="18" y="32" width="1" height="1"/><rect class="aa242-4" x="10" y="30" width="1" height="1"/><rect class="aa242-4" x="10" y="32" width="1" height="1"/><path class="aa242-4" d="M14,31v1h1V30H14Z"/><rect class="aa242-4" x="18" y="30" width="1" height="1"/><path class="aa242-2" d="M13,23h3v1h1V21H16v1H13V21H12v3h1Z"/><rect class="aa242-3" x="20" y="26" width="1" height="1"/><path class="aa242-2" d="M22,32h1V31H22V23H21v2H19v1h2v1H20v6h1V32Z"/><path class="aa242-2" d="M23,24v7h1V23H23Z"/><path class="aa242-2" d="M11,26h1V24H10v1h1Z"/><rect class="aa242-2" x="12" y="26" width="1" height="1"/><rect class="aa242-2" x="16" y="26" width="1" height="1"/><path class="aa242-2" d="M17,26h1V25h1V24H17Z"/><path class="aa242-2" d="M14,27H13v1h3V27Z"/><path class="aa242-3" d="M12,26h1v1h3V26h1V24H16V23H13v1H12Z"/><path class="aa242-5" d="M20,31V30H19v1H18V30H17v3h1V32h1v1h1Z"/><rect class="aa242-5" x="18" y="29" width="1" height="1"/><path class="aa242-5" d="M15,32h1V30H15Z"/><path class="aa242-5" d="M14,32V30h1V29H13v4h2V32Z"/><path class="aa242-5" d="M12,31V30H11v1H10V30H9v3h1V32h1v1h1Z"/><rect class="aa242-5" x="10" y="29" width="1" height="1"/><rect class="aa242-2" x="20" y="15" width="1" height="1"/><polygon class="aa242-3" points="18 14 19 14 19 13 17 13 17 14 18 14"/><path class="aa242-3" d="M13,22h3V21h1V20h1V19h1V16h1V15H16V13h1V12h2V11H18V10H16v1H15v1H14v2H13v3H12V16H11V15H9v1h1v3h1v1h1v1h1Zm1-6h1v1H14Zm-2,3V18h1v1h3v1H13V19Z"/><path class="aa242-2" d="M19,17v2h1V16H19Z"/><rect class="aa242-2" x="18" y="19" width="1" height="1"/><rect class="aa242-2" x="17" y="20" width="1" height="1"/><rect class="aa242-2" x="11" y="20" width="1" height="1"/><rect class="aa242-2" x="10" y="19" width="1" height="1"/><rect class="aa242-2" x="9" y="14" width="1" height="1"/><path class="aa242-2" d="M10,17V16H9v3h1Z"/><rect class="aa242-2" x="8" y="15" width="1" height="1"/><rect class="aa242-2" x="14" y="16" width="1" height="1"/><rect class="aa242-6" x="18" y="14" width="1" height="1"/><rect class="aa242-6" x="16" y="14" width="1" height="1"/><rect class="aa242-2" x="17" y="14" width="1" height="1"/><rect class="aa242-7" x="16" y="13" width="1" height="1"/><rect class="aa242-7" x="17" y="12" width="2" height="1"/><rect class="aa242-2" x="13" y="19" width="3" height="1"/><rect class="aa242-2" x="12" y="18" width="1" height="1"/><path class="aa242-2" d="M21,21H20v2h1Z"/><rect class="aa242-2" x="21" y="20" width="1" height="1"/><rect class="aa242-2" x="22" y="19" width="2" height="1"/><path class="aa242-2" d="M24,22v1h1V20H24Z"/><path class="aa242-3" d="M22,24v7h1V23h1V20H22v1H21v2h1Z"/><path class="aa242-8" d="M10,15h1v1h1v1h1V14h1V12h1V11h1V10h2v1h1v4h1V10H19V9H18V8H11V9H10v1H9v4h1Z"/></svg>