<svg xmlns="http://www.w3.org/2000/svg" viewBox="0 0 29 33"><defs><style>polygon,rect,path{shape-rendering:crispedges;}.ba95-1{fill:#000000;}.ba95-2{fill:#b2622b;}.ba95-3{fill:#5a2de2;}.ba95-4{fill:#7f5018;}.ba95-5{fill:#7f5018;}.ba95-6{fill:#a7af69;}.ba95-7{fill:#dfdfdf;}.ba95-8{fill:#a89969;}.ba95-9{fill:#ffffff;}.ba95-10{fill:#db5a8e;}</style></defs><path class="ba95-1" d="M23,27H22v6h1V27Z"/><rect class="ba95-1" x="21" y="26" width="1" height="1"/><path class="ba95-2" d="M22,27H21v6h1V27Z"/><rect class="ba95-2" x="20" y="26" width="1" height="1"/><path class="ba95-1" d="M21,27H20v6h1V27Z"/><path class="ba95-1" d="M20,26h1V25H19v1Z"/><path class="ba95-3" d="M20,27V26H19V25H18v1H17v1H16v1H13V27H12V26H11V25H10v1H9v7H20V27Z"/><path class="ba95-1" d="M18,26V25h1V24H17v2Z"/><rect class="ba95-1" x="16" y="26" width="1" height="1"/><path class="ba95-1" d="M13,27v1h3V27H13Z"/><path class="ba95-1" d="M13,23h3v1h1V21H16v1H13V21H12v3h1Z"/><path class="ba95-2" d="M13,26v1h3V26h1V24H16V23H13v1H12v2Z"/><rect class="ba95-1" x="12" y="26" width="1" height="1"/><path class="ba95-1" d="M11,26h1V24H10v1h1Z"/><path class="ba95-1" d="M10,26V25H8v1h2Z"/><path class="ba95-2" d="M9,27V26H8v1Z"/><path class="ba95-1" d="M9,27H8v6H9V27Z"/><rect class="ba95-1" x="7" y="26" width="1" height="1"/><path class="ba95-2" d="M8,27H7v6H8V27Z"/><path class="ba95-1" d="M7,27H6v6H7V27Z"/><rect class="ba95-1" x="20" y="15" width="1" height="1"/><path class="ba95-2" d="M13,22h3V21h1V20h1V18h1V16h1V15H18v1H16V15H15V14H14v1H13v1H11V15H9v1h1v2h1v2h1v1h1Zm1-6h1v1H14Zm0,3h1v1H14Z"/><rect class="ba95-2" x="10" y="13" width="1" height="1"/><path class="ba95-1" d="M19,17h1V16H19Z"/><path class="ba95-1" d="M10,16H9v1h1Z"/><rect class="ba95-1" x="8" y="15" width="1" height="1"/><rect class="ba95-1" x="14" y="16" width="1" height="1"/><rect class="ba95-4" x="18" y="13" width="1" height="1"/><path class="ba95-5" d="M19,18H18v2H17v1h2V20h1V17H19Z"/><path class="ba95-5" d="M11,20V18H10V17H9v3h1v1h2V20Z"/><rect class="ba95-1" x="14" y="19" width="1" height="1"/><rect class="ba95-6" x="19" y="13" width="1" height="1"/><path class="ba95-6" d="M10,13H8v1h2Z"/><path class="ba95-1" d="M11,16h2V15h1V14h1v1h1v1h2V15h2V14H18V13H11v1H9v1h2Z"/><path class="ba95-1" d="M24,11H22v1h2Z"/><rect class="ba95-7" x="21" y="7" width="1" height="1"/><path class="ba95-1" d="M11,13H22V12H20V11H19v1H10V11H9v1H7v1h4Z"/><rect class="ba95-7" x="20" y="8" width="1" height="1"/><rect class="ba95-8" x="19" y="10" width="1" height="1"/><path class="ba95-9" d="M18,11h1V10h1V8h1V7h1V6H20V7H19V8H18v3Z"/><path class="ba95-8" d="M17,11H10v1h9V11H17Z"/><path class="ba95-1" d="M11,11h7V7H16V8H13V7H11V8H10v3Z"/><path class="ba95-8" d="M10,10H9v1h1Z"/><path class="ba95-1" d="M6,11H5v1H7V11Z"/><path class="ba95-10" d="M0,0V33H6V27H7V26H8V25h2V24h2V21H10V20H9V16H8V15H9V14H8V13H7V12H5V11H7v1H9V10h1V8h1V7h2V8h3V7h2V8h1V7h1V6h2V8H21V9H20v3h2V11h2v1H22v1H20v2h1v1H20v4H19v1H17v3h2v1h2v1h1v1h1v6h6V0Z"/></svg>