<svg xmlns="http://www.w3.org/2000/svg" viewBox="0 0 29 33"><defs><style>polygon,rect,path{shape-rendering:crispedges;}.da246-1{fill:#d4a122;}.da246-2{fill:#000000;}.da246-3{fill:#ff1d99;}.da246-4{fill:#a56e49;}.da246-5{fill:#ffffff;}.da246-6{fill:#b23b00;}.da246-7{fill:#fad000;}.da246-8{fill:#ffffff;}.da246-9{fill:#b23b00;}.da246-10{fill:#34e0cb;}</style></defs><rect class="da246-1" x="11" y="10" height="1"/><rect class="da246-1" x="13" y="21" height="1"/><rect class="da246-1" x="18" y="19" width="1"/><path class="da246-1" d="M0,33H6V24H7V23H8v1H9v1h1V23h1V22h1V21H11V20H10V19H9V16H8V15H9v1h1v3h1v1h1v1h0V20H11V19H10V16H9V12H9V11h1V10h1V9h7v1h1v1h1v4h1v1H20v3H19v1H18v1H17v1h1v1h1v2h2v1h1v1h1v6h6V0H0Z"/><rect class="da246-1" x="19" y="16" width="1"/><rect class="da246-1" x="17" y="20" width="1"/><polygon class="da246-1" points="15 17 15 17 15 16 14 16 14 16 15 16 15 17"/><path class="da246-2" d="M23,27H22v2H21V27H20v6h1V30h1v3h1V27Z"/><rect class="da246-2" x="21" y="26" width="1" height="1"/><path class="da246-2" d="M20,26h1V25H19v1Z"/><path class="da246-2" d="M9,27H8v6H9V27Z"/><path class="da246-2" d="M7,24H6v9H7V24Z"/><rect class="da246-3" x="13" y="29" width="1" height="2"/><path class="da246-3" d="M20,27h1V26H19V25H18v1H17v1H16v1h3v1H17v2h1V30h1v2H16V28H15v4H12V28h1V27H12V26H11V25H10v2H9v6H20V27Zm-9,2v3H10V28h1Z"/><path class="da246-3" d="M21,28v1h1V27H21Z"/><path class="da246-4" d="M8,27H9V25H8V24H7v9H8V27Z"/><path class="da246-4" d="M16,25V23H13v2h3Z"/><path class="da246-4" d="M22,30H21v3h1V30Z"/><path class="da246-5" d="M12,28v4h3V28H12Zm2,3H13V29h1Z"/><path class="da246-5" d="M10,29v3h1V28H10Z"/><path class="da246-5" d="M16,32h3V30H18v1H17V29h2V28H16v4Z"/><polygon class="da246-2" points="20 16 21 16 21 15 20 15 20 16 20 16"/><rect class="da246-2" x="19" y="11" width="1"/><rect class="da246-4" x="10" y="13" width="1" height="1"/><path class="da246-4" d="M13,21h0v1h3V21h1V20h1V19h1V16h1V15H18v1H16V15H15V14H14v1H13v1H11V15H9v1h1v3h1v1h1v1Zm1-5h1v1H14Zm-2,3V18h5v1H16v1H13V19Z"/><polygon class="da246-4" points="10 12 11 12 11 11 10 11 10 12 10 12"/><polygon class="da246-4" points="12 10 11 10 11 11 11 11 11 11 12 11 12 10"/><path class="da246-4" d="M19,11H18v1H17V11H16V10H13v1H12v1h1v1h6V12h0Z"/><rect class="da246-4" x="17" y="10" width="1" height="1"/><path class="da246-2" d="M19,17v2h1V16H19Z"/><polygon class="da246-2" points="18 20 18 20 19 20 19 19 18 19 18 20"/><polygon class="da246-2" points="17 21 18 21 18 20 17 20 17 21"/><rect class="da246-2" x="11" y="20" width="1" height="1"/><rect class="da246-2" x="10" y="19" width="1" height="1"/><rect class="da246-2" x="9" y="11" width="1"/><polygon class="da246-2" points="10 12 10 11 10 11 10 12 10 12 10 12"/><path class="da246-2" d="M10,16H9v3h1V16Z"/><rect class="da246-2" x="8" y="15" width="1" height="1"/><polygon class="da246-2" points="15 17 15 16 14 16 14 16 14 17 15 17 15 17"/><path class="da246-6" d="M12,12H10v1h3V12Z"/><path class="da246-6" d="M18,14h1V13H18Z"/><path class="da246-2" d="M18,25h1V23H18v2Z"/><rect class="da246-2" x="17" y="25" width="1" height="1"/><path class="da246-7" d="M17,24v1h1V24Z"/><path class="da246-8" d="M17,24h1V23H17Z"/><rect class="da246-2" x="16" y="26" width="1" height="1"/><rect class="da246-8" x="16" y="25" width="1" height="1"/><rect class="da246-7" x="15" y="26" width="1" height="1"/><path class="da246-2" d="M14,27H13v1h3V27H14Z"/><path class="da246-8" d="M14,27h1V26H14Z"/><rect class="da246-7" x="13" y="26" width="1" height="1"/><path class="da246-2" d="M14,26h2V25H13v1Z"/><rect class="da246-2" x="12" y="26" width="1" height="1"/><rect class="da246-8" x="12" y="25" width="1" height="1"/><path class="da246-2" d="M12,24v1h1V23h3v2h1V23h1V22H17V21H16v1H13V21H12v1H11v1h1Z"/><rect class="da246-2" x="11" y="25" width="1" height="1"/><rect class="da246-7" x="11" y="24" width="1" height="1"/><rect class="da246-8" x="11" y="23" width="1" height="1"/><path class="da246-2" d="M11,24V23H10v2h1Z"/><path class="da246-9" d="M16,19h1V18H13v1Z"/><rect class="da246-2" x="13" y="19" width="3" height="1"/><path class="da246-2" d="M13,18H12v1h1Z"/><path class="da246-2" d="M10,27V25H9v2Z"/><rect class="da246-2" x="8" y="24" width="1" height="1"/><rect class="da246-2" x="7" y="23" width="1" height="1"/><path class="da246-10" d="M19,12h1V11H19Z"/><polygon class="da246-10" points="19 11 19 11 19 10 18 10 18 11 19 11"/><path class="da246-10" d="M12,10v1h1V10h3v1h1V10h1V9H11v1h1Z"/><rect class="da246-10" x="17" y="11" width="1" height="1"/><path class="da246-10" d="M12,12V11H11v1Z"/><polygon class="da246-10" points="10 11 11 11 11 11 11 10 10 10 10 11 10 11 10 11"/><polygon class="da246-10" points="10 11 9 11 9 11 9 12 9 12 10 12 10 11"/><path class="da246-2" d="M11,16h2V15h1V14h1v1h1v1h2V15h2V12H19v2H18V13H11v1H10V13h0V12H9v3h2Z"/></svg>