<svg xmlns="http://www.w3.org/2000/svg" viewBox="0 0 29 33"><defs><style>polygon,rect,path{shape-rendering:crispedges;}.ma185-1{fill:#7a982c;}.ma185-2{fill:#000000;}.ma185-3{fill:#3a172a;}.ma185-4{fill:#009b97;}.ma185-5{fill:#b2622b;}.ma185-6{fill:#875070;}.ma185-7{fill:#ffffff;}.ma185-8{fill:#66334f;}.ma185-9{fill:#66334f;}.ma185-10{fill:#d8be00;}</style></defs><path class="ma185-1" d="M0,33H6V27H7V26H8V25h2V24h2V21H11V20H10V19H9V16H8V15H9V10h1V9h1V8h1V9h1V8h3V7h1V8h2V9h1v1H19v1h1v4h1v1H20v3H19v1H18v1H17v3h2v1h1V23H19V21h2v4h1v1h1v7h6V0H0Z"/><rect class="ma185-1" x="16" y="8" width="1" height="1"/><path class="ma185-2" d="M7,30V27H6v6H7V30Z"/><path class="ma185-3" d="M7,31v2H8V31Z"/><path class="ma185-3" d="M7,30H8V27H7v3Z"/><rect class="ma185-2" x="7" y="26" width="1" height="1"/><path class="ma185-2" d="M9,31V27H8v6H9V31Z"/><path class="ma185-3" d="M11,29H10V28h1V25H10v1H9v6h1v1h1V29Z"/><path class="ma185-2" d="M10,26V25H8v1h2Z"/><path class="ma185-2" d="M12,26h1V25H12V24H10v1h1v8h1V26Z"/><path class="ma185-4" d="M17,26H16v1H13V26H12v7h5V26Z"/><path class="ma185-2" d="M13,23h3v1h1V21H16v1H13V21H12v3h1Z"/><path class="ma185-2" d="M13,26v1h3V26H13Z"/><path class="ma185-5" d="M13,25v1h3V25h1V24H16V23H13v1H12v1Z"/><path class="ma185-2" d="M18,29V25h1V24H17v1H16v1h1v7h1V29Z"/><path class="ma185-3" d="M20,32V26H19V25H18v3h1v1H18v4h1V32Z"/><rect class="ma185-2" x="19" y="25" width="1" height="1"/><path class="ma185-2" d="M21,31V28H20v5h1V31Z"/><path class="ma185-3" d="M21,32v1h1V32Z"/><path class="ma185-3" d="M21,29v2h1V28H21Z"/><path class="ma185-2" d="M23,26H22v7h1V26Z"/><path class="ma185-6" d="M10,29h1V28H10Z"/><path class="ma185-6" d="M19,29V28H18v1Z"/><path class="ma185-6" d="M21,28h1V27H21Z"/><path class="ma185-6" d="M9,27V26H8v1Z"/><path class="ma185-6" d="M19,32v1h1V32Z"/><path class="ma185-6" d="M9,32v1h1V32Z"/><path class="ma185-6" d="M7,31H8V30H7Z"/><path class="ma185-6" d="M21,32h1V31H21Z"/><rect class="ma185-2" x="20" y="15" width="1" height="1"/><rect class="ma185-5" x="15" y="20" width="1" height="1"/><rect class="ma185-5" x="10" y="12" width="1" height="1"/><rect class="ma185-5" x="12" y="19" width="1" height="1"/><rect class="ma185-5" x="16" y="19" width="1" height="1"/><path class="ma185-5" d="M12,19V18h5v1h2V16h1V15H16V13h1V12h1V11H13V10H12v1H11v1h2v1H11v1h2v1H9v1h1v3h2Zm2-3h1v1H14Z"/><rect class="ma185-5" x="13" y="20" width="1" height="1"/><polygon class="ma185-5" points="18 14 19 14 19 13 17 13 17 14 18 14"/><path class="ma185-2" d="M19,17v2h1V16H19Z"/><path class="ma185-2" d="M18,20h1V19H18Z"/><rect class="ma185-2" x="17" y="20" width="1" height="1"/><rect class="ma185-2" x="11" y="20" width="1" height="1"/><path class="ma185-2" d="M10,19v1h1V19Z"/><path class="ma185-2" d="M10,16H9v3h1V16Z"/><rect class="ma185-2" x="8" y="15" width="1" height="1"/><rect class="ma185-2" x="14" y="16" width="1" height="1"/><path class="ma185-7" d="M10,15h1V14H10Z"/><path class="ma185-7" d="M16,14v1h1V14Z"/><path class="ma185-2" d="M12,15h1V14H11v1Z"/><path class="ma185-2" d="M18,14H17v1h3V14H18Z"/><rect class="ma185-8" x="10" y="13" width="1" height="1"/><rect class="ma185-8" x="11" y="12" width="2" height="1"/><path class="ma185-8" d="M17,13H16v1h1Z"/><path class="ma185-8" d="M19,12H17v1h2Z"/><path class="ma185-9" d="M17,19v1h1V19Z"/><rect class="ma185-9" x="16" y="20" width="1" height="1"/><path class="ma185-9" d="M15,20H14v1H13v1h3V21H15Z"/><path class="ma185-9" d="M14,19h3V18H13v1Z"/><rect class="ma185-9" x="12" y="20" width="1" height="1"/><path class="ma185-9" d="M12,19H11v1h1Z"/><path class="ma185-2" d="M15,20h1V19H13v1h2Z"/><path class="ma185-2" d="M13,18H12v1h1Z"/><path class="ma185-10" d="M10,14V12h1V11h1V10h1v1h5v1h1v2h1V11H19V10h1V9H19V8H17V9H16V8H13V9H12V8H11V9H10v1H9v5h1Z"/><rect class="ma185-10" x="16" y="7" width="1" height="1"/><path class="ma185-4" d="M21,26V21H20v5Z"/><path class="ma185-7" d="M19,21v2h1V21Z"/><path class="ma185-4" d="M20,27v1h1V27Z"/><path class="ma185-5" d="M20,26v1h2V26H20Z"/><path class="ma185-2" d="M22,26V25H21v1Z"/></svg>
