<svg xmlns="http://www.w3.org/2000/svg" viewBox="0 0 29 33"><defs><style>polygon,rect,path{shape-rendering:crispedges;}.ma31-1{fill:#db5a8e;}.ma31-2{fill:#000000;}.ma31-3{fill:#e0dbc6;}.ma31-4{fill:#5a2de2;}.ma31-5{fill:#e8b795;}.ma31-6{fill:#8e9350;}.ma31-7{fill:#ffffff;}.ma31-8{fill:#317f03;}.ma31-9{fill:#317f03;}.ma31-10{fill:#9b8100;}</style></defs><path class="ma31-1" d="M0,33H6V25H7V21h3v3h2V21H11V20H10V19H9V16H8V15H9V11h1V9h1V8h7V9h1v1h1v5h1v1H20v3H19v1H18v1H17v3h2v1h2v1h1v1h1v6h6V0H0Z"/><path class="ma31-2" d="M23,27H22v6h1V27Z"/><path class="ma31-3" d="M21,31h1V30H21Z"/><path class="ma31-3" d="M21,28h1V27H21Z"/><rect class="ma31-2" x="21" y="26" width="1" height="1"/><path class="ma31-2" d="M21,30V27H20v6h1V30Z"/><path class="ma31-3" d="M18,28h2V27H18Z"/><path class="ma31-3" d="M18,31h2V30H18Z"/><path class="ma31-2" d="M20,26h1V25H19v1Z"/><path class="ma31-2" d="M18,30V25h1V24H17v1H16v1h1v7h1V30Z"/><path class="ma31-4" d="M17,26H16v1H13V26H12v7h5V26Z"/><path class="ma31-2" d="M13,26v1h3V26H13Z"/><path class="ma31-5" d="M13,25v1h3V25h1V24H16V23H13v1H12v1Z"/><path class="ma31-2" d="M13,23h3v1h1V21H16v1H13V21H12v3h1Z"/><path class="ma31-2" d="M12,26h1V25H12V24H10v1h1v8h1V26Z"/><path class="ma31-3" d="M9,31h2V30H9Z"/><path class="ma31-3" d="M9,28h2V27H9Z"/><path class="ma31-2" d="M9,30V27H8v6H9V30Z"/><path class="ma31-3" d="M7,28H8V27H7Z"/><path class="ma31-3" d="M7,31H8V30H7Z"/><path class="ma31-5" d="M8,27V26H9V25H7v2Z"/><path class="ma31-2" d="M7,30V25H6v8H7V30Z"/><path class="ma31-6" d="M9,31v2h2V31Z"/><path class="ma31-6" d="M18,31v2h2V31Z"/><path class="ma31-6" d="M18,29v1h2V28H18Z"/><path class="ma31-6" d="M9,29v1h2V28H9Z"/><path class="ma31-6" d="M18,26v1h3V26H19V25H18Z"/><path class="ma31-6" d="M9,26H8v1h3V25H10v1Z"/><path class="ma31-6" d="M7,29v1H8V28H7Z"/><path class="ma31-6" d="M7,31v2H8V31Z"/><path class="ma31-6" d="M21,31v2h1V31Z"/><path class="ma31-6" d="M21,29v1h1V28H21Z"/><rect class="ma31-2" x="20" y="15" width="1" height="1"/><path class="ma31-2" d="M19,12v3h1V11H19Z"/><path class="ma31-5" d="M17,20V19H15v2h1V20Z"/><path class="ma31-5" d="M14,20V19H12v1h1v1h1Z"/><path class="ma31-5" d="M12,19V18h5v1h2V16h1V15H16V14h2V13H16V12h2v1h1V11H18V10H17v1H16V10H15v1H14V10H13v1H12V10H11v1H10v1h2v1h1v2H9v1h1v3h2Zm2-3h1v1H14Z"/><path class="ma31-5" d="M10,14h2V13H10Z"/><path class="ma31-2" d="M19,17v2h1V16H19Z"/><rect class="ma31-2" x="18" y="10" width="1" height="1"/><path class="ma31-2" d="M18,20h1V19H18Z"/><rect class="ma31-2" x="17" y="20" width="1" height="1"/><rect class="ma31-2" x="13" y="9" width="1" height="1"/><rect class="ma31-2" x="11" y="9" width="1" height="1"/><rect class="ma31-2" x="15" y="9" width="1" height="1"/><rect class="ma31-2" x="17" y="9" width="1" height="1"/><rect class="ma31-2" x="11" y="20" width="1" height="1"/><path class="ma31-2" d="M10,19v1h1V19Z"/><path class="ma31-2" d="M10,14V11H9v4h1Z"/><path class="ma31-2" d="M10,16H9v3h1V16Z"/><rect class="ma31-2" x="8" y="15" width="1" height="1"/><rect class="ma31-2" x="14" y="16" width="1" height="1"/><path class="ma31-7" d="M12,15h1V14H12Z"/><path class="ma31-7" d="M10,14v1h1V14Z"/><path class="ma31-7" d="M18,14v1h1V14Z"/><path class="ma31-7" d="M16,14v1h1V14Z"/><path class="ma31-2" d="M11,14v1h1V14Z"/><path class="ma31-2" d="M17,14v1h1V14Z"/><path class="ma31-8" d="M19,13H18v1h1Z"/><rect class="ma31-8" x="16" y="12" width="2" height="1"/><path class="ma31-8" d="M13,14V13H12v1Z"/><path class="ma31-8" d="M12,13V12H10v1Z"/><path class="ma31-9" d="M17,19v1h1V19Z"/><rect class="ma31-9" x="16" y="20" width="1" height="1"/><path class="ma31-9" d="M15,20H14v1H13v1h3V21H15Z"/><path class="ma31-9" d="M15,19h2V18H12v1h3Z"/><rect class="ma31-9" x="12" y="20" width="1" height="1"/><path class="ma31-9" d="M12,19H11v1h1Z"/><path class="ma31-2" d="M14,20h1V19H14Z"/><path class="ma31-10" d="M11,10V9H10v2h1Z"/><path class="ma31-10" d="M12,10v1h1V9h1v2h1V9h1v2h1V9h1V8H11V9h1Z"/><rect class="ma31-10" x="18" y="9" width="1" height="1"/><path class="ma31-10" d="M20,11V10H19v1Z"/><rect class="ma31-2" x="8" y="22" width="1" height="1"/><path class="ma31-7" d="M9,26h1V21H7v4H9ZM8,23V22H9v1Z"/></svg>