<svg xmlns="http://www.w3.org/2000/svg" viewBox="0 0 29 33"><defs><style>polygon,rect,path{shape-rendering:crispedges;}.fa16-1{fill:#b4bd09;}.fa16-2{fill:#000000;}.fa16-3{fill:#e8b795;}.fa16-4{fill:#cc3232;}.fa16-5{fill:#ffb3c0;}.fa16-6{fill:#ffffff;}.fa16-7{fill:#af8423;}.fa16-8{fill:#9b8100;}.fa16-9{fill:#455054;}.fa16-10{fill:#ffffff;}.fa16-11{fill:#900;}</style></defs><path class="fa16-1" d="M0,33H8V32H6V31H5V22H6V21H7V20H5v1H2V17H5V16H8V15H9V10h1V9h1V8h7V9h1v1h1v2h1v6H20v1H19v1H18v1H17v3h2v1h2v1h1v1h1v6h6V0H0Z"/><path class="fa16-1" d="M8,19v3H9v2H8v1h2V24h2V21H11V20H10V19H9V16H8v3Z"/><rect class="fa16-2" x="21" y="26" width="1" height="1"/><path class="fa16-2" d="M23,27H22v3H21V27H20v6h1V31h1v2h1V27Z"/><path class="fa16-2" d="M20,26h1V25H19v1Z"/><path class="fa16-2" d="M18,25h1V24H17v1Z"/><path class="fa16-2" d="M11,24H10v1h2V24Z"/><path class="fa16-2" d="M9,31V27H8V26h2V25H8V24H7v7H6v1H8v1H9V31Z"/><path class="fa16-2" d="M6,22H5v9H6V22Z"/><path class="fa16-3" d="M7,30V24H8V22H6v9H7Z"/><rect class="fa16-4" x="10" y="29" width="1" height="1"/><rect class="fa16-4" x="18" y="29" width="1" height="1"/><path class="fa16-4" d="M19,32V31H18v1H17V29h1V28h1v1h1V27h1V26H19V25H17v1H16v1H13V26H12V25H10v1H8v1H9v2h1V28h1v1h1v3H11V31H10v1H9v1H20V32Zm-3-2v1H15v1H13V28h2v1h1Z"/><path class="fa16-4" d="M15,29H14v2h1V29Z"/><path class="fa16-2" d="M13,26v1h3V26H13Z"/><path class="fa16-3" d="M16,23H13v1H12v1h1v1h3V25h1V24H16Z"/><path class="fa16-4" d="M21,28v2h1V27H21Z"/><path class="fa16-3" d="M21,31v2h1V31Z"/><rect class="fa16-2" x="12" y="25" width="1" height="1"/><rect class="fa16-2" x="16" y="25" width="1" height="1"/><path class="fa16-5" d="M19,30H18V29H17v3h1V31h1v1h1V29H19Z"/><rect class="fa16-5" x="18" y="28" width="1" height="1"/><path class="fa16-5" d="M15,30v1h1V29H15Z"/><path class="fa16-5" d="M14,30V29h1V28H13v4h2V31H14Z"/><path class="fa16-5" d="M9,32h1V31h1v1h1V29H11v1H10V29H9v3Z"/><rect class="fa16-5" x="10" y="28" width="1" height="1"/><path class="fa16-3" d="M10,16v3h1v1h1v1h1v1h3V21h1V20h1V19h1V16h1V15H16V14h2V13H16V12H15V11H13V10H11v1H10v1h2v1h1v2H9v1Zm4,0h1v1H14Zm-1,3h3v1H13Z"/><path class="fa16-3" d="M10,14h2V13H10Z"/><path class="fa16-2" d="M19,16v3h1V16Z"/><rect class="fa16-2" x="18" y="19" width="1" height="1"/><rect class="fa16-2" x="17" y="20" width="1" height="1"/><path class="fa16-2" d="M16,22H13V21H12v3h1V23h3v1h1V21H16Z"/><rect class="fa16-2" x="11" y="20" width="1" height="1"/><rect class="fa16-2" x="10" y="19" width="1" height="1"/><path class="fa16-2" d="M10,16H9v3h1V16Z"/><rect class="fa16-2" x="8" y="15" width="1" height="1"/><rect class="fa16-2" x="14" y="16" width="1" height="1"/><path class="fa16-6" d="M12,15h1V14H12Z"/><path class="fa16-6" d="M10,14v1h1V14Z"/><path class="fa16-6" d="M18,14v1h1V14Z"/><path class="fa16-6" d="M16,14v1h1V14Z"/><path class="fa16-2" d="M11,14v1h1V14Z"/><path class="fa16-2" d="M17,14v1h1V14Z"/><path class="fa16-7" d="M13,14V13H12v1Z"/><rect class="fa16-7" x="10" y="12" width="2" height="1"/><rect class="fa16-2" x="13" y="19" width="3" height="1"/><path class="fa16-8" d="M10,14V11h1V10h2v1h2v1h1v1h2v1h1v1h1v3h1V12H20V10H19V9H18V8H11V9H10v1H9v5h1Z"/><path class="fa16-9" d="M8,22V20H7v2Z"/><path class="fa16-10" d="M4,19V18H5V17H2v4H5V20H4Z"/><path class="fa16-10" d="M8,19V16H5v1H6v2H5v1H8Z"/><path class="fa16-2" d="M7,21H6v1H7Z"/><path class="fa16-2" d="M9,22H8v2H9Z"/><path class="fa16-11" d="M6,19V17H5v1H4v2H5V19Z"/></svg>