<svg xmlns="http://www.w3.org/2000/svg" viewBox="0 0 29 33"><defs><style>polygon,rect,path{shape-rendering:crispedges;}.hb269-1{fill:#397d98;}.hb269-2{fill:#000000;}.hb269-3{fill:#b2622b;}.hb269-4{fill:#ffffff;}.hb269-5{fill:#b23b00;}.hb269-6{fill:#b23b00;}.hb269-7{fill:#d2d8b8;}</style></defs><path class="hb269-1" d="M0,33H6V27H7V26H8V25h2V24h2V22H11V21H10V20H9V18H8V13H9V11h1V10h1V9h7v1h1v1h1v1h1v6H20v2H19v1H18v1H17v2h2v1h2v1h1v1h1v6h6V0H0Z"/><path class="hb269-2" d="M23,27H22v6h1V27Z"/><path class="hb269-3" d="M22,27H21v6h1V27Z"/><rect class="hb269-2" x="21" y="26" width="1" height="1"/><path class="hb269-2" d="M21,27H20v6h1V27Z"/><path class="hb269-3" d="M20,27h1V26H19V25H17V24H16V23H13v1H12v1H10v1H8v1H9v6h5V29h1v4h5V27Zm-8,2H11V28h1Zm6,0H17V28h1Z"/><path class="hb269-2" d="M20,26h1V25H19v1Z"/><rect class="hb269-2" x="17" y="28" width="1" height="1"/><path class="hb269-2" d="M18,25h1V24H17v1Z"/><path class="hb269-2" d="M16,24h1V23H16Z"/><path class="hb269-2" d="M15,29H14v4h1V29Z"/><path class="hb269-2" d="M13,23H12v1h1Z"/><rect class="hb269-2" x="11" y="28" width="1" height="1"/><path class="hb269-2" d="M12,24H10v1h2Z"/><path class="hb269-2" d="M10,25H8v1h2Z"/><path class="hb269-2" d="M9,27H8v6H9V27Z"/><path class="hb269-3" d="M8,27H7v6H8V27Z"/><rect class="hb269-2" x="7" y="26" width="1" height="1"/><path class="hb269-2" d="M7,27H6v6H7V27Z"/><rect class="hb269-2" x="19" y="14" width="1" height="1"/><rect class="hb269-3" x="17" y="13" width="1" height="1"/><rect class="hb269-3" x="9" y="15" width="1" height="1"/><rect class="hb269-3" x="12" y="12" width="1" height="1"/><rect class="hb269-3" x="17" y="11" width="1" height="1"/><path class="hb269-3" d="M17,16H15v1H14V16h1V14h1V12H15V11H14v4H13v2H12V16H11v2h1v1h1V18h5V16Z"/><rect class="hb269-3" x="19" y="15" width="1" height="1"/><rect class="hb269-3" x="11" y="13" width="1" height="1"/><rect class="hb269-2" x="14" y="16" width="1" height="1"/><rect class="hb269-4" x="12" y="14" width="1" height="1"/><path class="hb269-4" d="M17,16V14H16v2Z"/><path class="hb269-2" d="M12,15V14H11v2h1Z"/><path class="hb269-2" d="M18,16V14H17v2Z"/><rect class="hb269-5" x="17" y="12" width="1" height="1"/><rect class="hb269-5" x="12" y="13" width="1" height="1"/><rect class="hb269-5" x="11" y="12" width="1" height="1"/><path class="hb269-6" d="M15,18H13v1h3V18Z"/><path class="hb269-6" d="M19,16v2h1V16Z"/><path class="hb269-6" d="M14,23h3V22h1V21h1V18H17v1H16v1H13V19H12V18H10v3h1v1h1v1h2Z"/><path class="hb269-6" d="M10,17V16H9v2h1Z"/><rect class="hb269-2" x="13" y="19" width="3" height="1"/><path class="hb269-2" d="M16,19h1V18H16Z"/><path class="hb269-7" d="M9,15h1v3h1V12h2v3h1V11h1v1h1v2h1V11h1v7h1V14h1v4h1V12H20V11H19V10H18V9H11v1H10v1H9v2H8v5H9V15Z"/><path class="hb269-7" d="M19,19v1h1V18H19Z"/><path class="hb269-7" d="M15,15v1h1V14H15Z"/><path class="hb269-7" d="M12,16v1h1V15H12Z"/><path class="hb269-7" d="M9,18v2h1V18Z"/></svg>