<svg xmlns="http://www.w3.org/2000/svg" viewBox="0 0 29 33"><defs><style>polygon,rect,path{shape-rendering:crispedges;}.ab114-1{fill:#db5a8e;}.ab114-2{fill:#000000;}.ab114-3{fill:#3f2f17;}.ab114-4{fill:#e8b795;}.ab114-5{fill:#8c7850;}.ab114-6{fill:#ffffff;}.ab114-7{fill:#492a23;}.ab114-8{fill:#e70059;}.ab114-9{fill:#d8be00;}.ab114-10{fill:#455054;}.ab114-11{fill:#94d4ff;}.ab114-12{fill:#e5ac2e;}</style></defs><rect class="ab114-1" x="8" y="21" width="1" height="1"/><path class="ab114-1" d="M0,33H8V32H6V31H5V22H6V21H7V20H5v1H2V17H5V16H8V12H9V10h1V9h1V8h7V9h1v1h1v2h1v7h1v1H21v1H20v1H19V21H18v1H17v1h1v1h1v1h2v1h1v1h1v6h6V0H0Z"/><path class="ab114-1" d="M11,24V23h1V22H11V21H10v1H9v2H8v1h2V24Z"/><path class="ab114-2" d="M6,29V22H5v9H6V29Z"/><path class="ab114-2" d="M23,27H22v6h1V27Z"/><path class="ab114-3" d="M21,28h1V27H21Z"/><path class="ab114-3" d="M21,31v1h1V30H21Z"/><rect class="ab114-2" x="21" y="26" width="1" height="1"/><path class="ab114-2" d="M21,31V27H20v6h1V31Z"/><path class="ab114-3" d="M10,31V30H9v2h1v1h1V31Z"/><path class="ab114-3" d="M18,26v2h1v1h1V27H19V25H18Z"/><rect class="ab114-3" x="14" y="29" width="1" height="1"/><path class="ab114-3" d="M19,31V30H18V28H17V27H16V25H15v3h1v1h1v2h1v1h1v1h1V31Z"/><path class="ab114-3" d="M13,29h1V27H13V26H12v2h1Z"/><path class="ab114-3" d="M16,31V30H15v2h1v1h1V31Z"/><path class="ab114-3" d="M14,31H13V30H12V28H11V27H10V26H9v2h1v1h1v2h1v1h1v1h1V31Z"/><path class="ab114-2" d="M20,26h1V25H19v1Z"/><rect class="ab114-3" x="16" y="24" width="1" height="1"/><rect class="ab114-2" x="15" y="24" width="1" height="1"/><path class="ab114-2" d="M14,32v1h1V32Z"/><path class="ab114-2" d="M14,31h1V30H14Z"/><path class="ab114-2" d="M14,29h1V28H14Z"/><path class="ab114-2" d="M14,26v1h1V25H14Z"/><rect class="ab114-2" x="13" y="24" width="1" height="1"/><path class="ab114-4" d="M16,24V23H13v1h1v1h1V24Z"/><path class="ab114-2" d="M9,31V27H8V26h2V25H8V24H7v7H6v1H8v1H9V31Z"/><path class="ab114-3" d="M6,26v2H7V25H6Z"/><path class="ab114-3" d="M7,30H6v1H7Z"/><path class="ab114-5" d="M19,28H18v2h1v1h1V29H19Z"/><path class="ab114-5" d="M21,29v1h1V28H21Z"/><path class="ab114-5" d="M21,32v1h1V32Z"/><path class="ab114-5" d="M16,26v1h1v1h1V26Z"/><path class="ab114-5" d="M19,26v1h2V26H19Z"/><path class="ab114-5" d="M18,32V31H17v2h2V32Z"/><path class="ab114-5" d="M15,30h1v1h1V29H16V28H15v2Z"/><path class="ab114-5" d="M14,28h1V27H14Z"/><path class="ab114-5" d="M14,27V25H13v2Z"/><path class="ab114-5" d="M14,32h1V31H14Z"/><rect class="ab114-5" x="15" y="32" width="1" height="1"/><path class="ab114-5" d="M14,29H13V28H12v2h1v1h1V29Z"/><rect class="ab114-5" x="12" y="24" width="1" height="1"/><path class="ab114-5" d="M11,26V25H10v2h1v1h1V26Z"/><path class="ab114-5" d="M12,32V31H11v2h2V32Z"/><path class="ab114-5" d="M10,30v1h1V29H10V28H9v2Z"/><path class="ab114-5" d="M6,25H7V24H6Z"/><path class="ab114-5" d="M6,29v1H7V28H6Z"/><path class="ab114-5" d="M9,32v1h1V32Z"/><path class="ab114-5" d="M8,27H9V26H8Z"/><path class="ab114-2" d="M20,16h1V15H20Z"/><rect class="ab114-2" x="19" y="14" width="1" height="1"/><rect class="ab114-4" x="11" y="13" width="1" height="1"/><path class="ab114-4" d="M12,21h1v1h3V21h1V20h1V19h1V16h1V15H16V14h2V13H16V12h1V11H16V10H13v1H12v2h1v2H9v1h1v3h1v1h1Zm2-5h1v1H14Zm-2,2h5v1H16v1H13V19H12Z"/><path class="ab114-2" d="M19,17v2h1V16H19Z"/><rect class="ab114-2" x="18" y="19" width="1" height="1"/><rect class="ab114-2" x="17" y="20" width="1" height="1"/><path class="ab114-2" d="M16,21v1H13V21H12v2H11v1H10v1h1v1h2V25H12V24h1V23h3v1h1v1H16v1h2V25h1V24H18V23H17V21Z"/><rect class="ab114-2" x="11" y="20" width="1" height="1"/><rect class="ab114-2" x="10" y="19" width="1" height="1"/><path class="ab114-2" d="M10,16H9v3h1V16Z"/><path class="ab114-2" d="M9,15H8v1H9Z"/><rect class="ab114-2" x="14" y="16" width="1" height="1"/><path class="ab114-6" d="M19,15V14H18v1Z"/><path class="ab114-6" d="M12,15h1V14H12Z"/><path class="ab114-2" d="M16,15h2V14H16Z"/><path class="ab114-2" d="M12,15V14H9v1h3Z"/><path class="ab114-7" d="M16,13h2V12H16Z"/><path class="ab114-7" d="M13,14V13H12v1Z"/><path class="ab114-7" d="M12,12H11v1h1Z"/><path class="ab114-2" d="M13,18H12v1h1Z"/><path class="ab114-2" d="M17,19V18H16v1Z"/><path class="ab114-2" d="M15,20h1V19H15Z"/><path class="ab114-2" d="M15,19V18H14v1Z"/><path class="ab114-2" d="M13,19v1h1V19Z"/><path class="ab114-6" d="M14,19V18H13v1Z"/><path class="ab114-6" d="M16,19V18H15v1Z"/><path class="ab114-8" d="M14,19v1h1V19Z"/><path class="ab114-9" d="M20,17v2H19v1H18v1h1v1h1V21h1V20h1V19H21V16H20Z"/><path class="ab114-9" d="M9,14h2V12h1V11h1V10h3v1h1v1h1v2h2v1h1V12H20V10H19V9H18V8H11V9H10v1H9v2H8v3H9Z"/><path class="ab114-9" d="M8,18v3H9v1h1V21h1V20H10V19H9V16H8v2Z"/><path class="ab114-9" d="M12,22V21H11v1Z"/><path class="ab114-9" d="M17,22h1V21H17Z"/><path class="ab114-4" d="M7,24H8V22H6v2Z"/><path class="ab114-10" d="M8,22V20H7v2Z"/><path class="ab114-2" d="M7,21H6v1H7Z"/><path class="ab114-2" d="M9,22H8v2H9Z"/><path class="ab114-6" d="M4,19V18H2v2H5V19Z"/><path class="ab114-6" d="M6,18v1H8V17H5v1Z"/><path class="ab114-11" d="M5,18V17H2v1H5Z"/><path class="ab114-11" d="M2,20v1H5V20H2Z"/><path class="ab114-11" d="M8,17V16H5v1H8Z"/><path class="ab114-11" d="M8,19H5v1H8Z"/><path class="ab114-12" d="M5,18H4v1H6V18Z"/></svg>