<svg xmlns="http://www.w3.org/2000/svg" viewBox="0 0 29 33"><defs><style>polygon,rect,path{shape-rendering:crispedges;}.wa20-1{fill:#29834f;}.wa20-2{fill:#00af68;}.wa20-3{fill:#000000;}.wa20-4{fill:#b2622b;}.wa20-5{fill:#9fffc6;}.wa20-6{fill:#ffffff;}.wa20-7{fill:#492a23;}.wa20-8{fill:#7f5018;}.wa20-9{fill:#4922aa;}</style></defs><path class="wa20-1" d="M0,33H6V27H7V26H8V25h2V22h1V21H10V20H9V17H8V15H7V14H8V12H7V10H8v1H9V9H8V8h2V9h1V8h1V7h1V8h1V7h2V8h1V7h1V8h1V7h1V8H19V9H18v1h2V9h1v2H20v1h2v1H20v1h2v1H21v2H20v3H19v1H18v1h1v3h2v1h1v1h1v6h6V0H0Z"/><path class="wa20-2" d="M18,25V24H16v1Z"/><path class="wa20-2" d="M14,31h6V30H14Z"/><path class="wa20-2" d="M14,27v1h6V27H14Z"/><rect class="wa20-2" x="21" y="30" width="1" height="1"/><rect class="wa20-2" x="21" y="27" width="1" height="1"/><rect class="wa20-2" x="7" y="30" width="1" height="1"/><rect class="wa20-2" x="7" y="27" width="1" height="1"/><path class="wa20-2" d="M9,31h4V30H9Z"/><polygon class="wa20-2" points="12 24 11 24 11 25 13 25 13 24 12 24"/><path class="wa20-2" d="M9,28h4V27H9Z"/><path class="wa20-3" d="M23,27H22v6h1V27Z"/><rect class="wa20-3" x="21" y="26" width="1" height="1"/><path class="wa20-3" d="M21,30V27H20v4H14V27H13v4H9V27H8v6H9V32H20v1h1V30Z"/><path class="wa20-3" d="M20,26h1V25H19v1Z"/><path class="wa20-3" d="M18,25h1V22H18v3Z"/><rect class="wa20-3" x="15" y="24" width="1" height="1"/><path class="wa20-3" d="M15,26V25H14v2h1Z"/><rect class="wa20-3" x="13" y="24" width="1" height="1"/><path class="wa20-4" d="M15,24h1V23H13v1h1v1h1Z"/><path class="wa20-3" d="M11,24V22H10v3h1Z"/><path class="wa20-3" d="M10,25H8v1h2Z"/><rect class="wa20-3" x="7" y="26" width="1" height="1"/><path class="wa20-3" d="M7,30V27H6v6H7V30Z"/><rect class="wa20-4" x="15" y="10" width="1" height="1"/><rect class="wa20-4" x="12" y="12" width="1" height="1"/><path class="wa20-4" d="M18,20V18h1V16h1V15H16V14h2V13H16V12H14v1H13v2H9v1h1v2h1v2h1v1h1v1h3V21h1V20Zm-3,0H14V19h1Zm0-3H14V16h1Z"/><rect class="wa20-4" x="11" y="11" width="1" height="1"/><path class="wa20-3" d="M19,16v1h1V16Z"/><path class="wa20-3" d="M12,23v1h1V23h3v1h1V22h1V21H16v1H13V21H11v1h1Z"/><rect class="wa20-3" x="9" y="13" width="1" height="1"/><path class="wa20-3" d="M10,16H9v1h1Z"/><rect class="wa20-3" x="14" y="16" width="1" height="1"/><path class="wa20-5" d="M19,32H9v1H20V32Z"/><path class="wa20-5" d="M14,29v1h6V28H14Z"/><path class="wa20-5" d="M9,29v1h4V28H9Z"/><path class="wa20-5" d="M9,27h5V25H10v1H8v1Z"/><path class="wa20-5" d="M16,25H15v2h6V26H19V25H16Z"/><path class="wa20-5" d="M7,29v1H8V28H7Z"/><path class="wa20-5" d="M7,31v2H8V31Z"/><path class="wa20-5" d="M21,31v2h1V31Z"/><path class="wa20-5" d="M21,29v1h1V28H21Z"/><path class="wa20-5" d="M12,24V22H11v2Z"/><path class="wa20-5" d="M17,23v1h1V22H17Z"/><path class="wa20-6" d="M13,15V14H12v1Z"/><path class="wa20-6" d="M11,14H10v1h1Z"/><path class="wa20-6" d="M18,15h1V14H18Z"/><path class="wa20-6" d="M16,14v1h1V14Z"/><path class="wa20-3" d="M12,15V14H11v1Z"/><path class="wa20-3" d="M17,14v1h1V14Z"/><rect class="wa20-7" x="18" y="13" width="1" height="1"/><path class="wa20-7" d="M17,13V12H16v1Z"/><path class="wa20-7" d="M13,13H12v1h1Z"/><rect class="wa20-7" x="11" y="12" width="1" height="1"/><path class="wa20-8" d="M19,18H18v2H17v1h2V20h1V17H19Z"/><path class="wa20-8" d="M12,20H11V18H10V17H9v3h1v1h2Z"/><rect class="wa20-3" x="14" y="19" width="1" height="1"/><path class="wa20-9" d="M9,15h1V14H9V13h1v1h2V13H11V11h1v1h1v1h1V12h3v1h2v2h1v2h1V15h1V14H20V13h2V12H20V11h1V9H20v1H18V9h1V8H18V7H17V8H16V7H14V8H13V7H12V8H11V9H10V8H8V9H9v2H8V10H7v2H8v2H7v1H8v2H9V15Zm6-5h1v1H15Z"/><rect class="wa20-9" x="19" y="7" width="1" height="1"/></svg>