<svg xmlns="http://www.w3.org/2000/svg" viewBox="0 0 29 33"><defs><style>polygon,rect,path{shape-rendering:crispedges;}.sa189-1{fill:#7a982c;}.sa189-2{fill:#000000;}.sa189-3{fill:#dbc6d2;}.sa189-4{fill:#a56e49;}.sa189-5{fill:#8e9350;}.sa189-6{fill:#ffffff;}.sa189-7{fill:#99004d;}.sa189-8{fill:#6f7032;}.sa189-9{fill:#474718;}.sa189-10{fill:#492a23;}.sa189-11{fill:#c8a715;}</style></defs><path class="sa189-1" d="M6,32V27H7V26H8V25h2V22H9V21H8V20H7V11H8V10H9V9h1V8h1V7h7V8h1V9h1v1h1v1h1v9H21v1h1v4h1v8h6V0H0V33H6Z"/><path class="sa189-2" d="M7,27H6v6H7V27Z"/><path class="sa189-3" d="M8,27H7v6H8V27Z"/><rect class="sa189-2" x="7" y="26" width="1" height="1"/><path class="sa189-2" d="M9,27H8v6H9V27Z"/><path class="sa189-3" d="M20,26H19V25H18V24H17v4h2v1H17v2h1V30h1v2H16V25H13v3h2v4H12V24H11v1H10v1H8v1H9v6H20V26Zm-9,3v3H10V28h1Z"/><path class="sa189-2" d="M10,25H8v1h2Z"/><path class="sa189-2" d="M11,24H10v1h1Z"/><rect class="sa189-2" x="11" y="23" width="1" height="1"/><path class="sa189-2" d="M15,24H13v1h3V24Z"/><path class="sa189-4" d="M14,24h2V23H13v1Z"/><rect class="sa189-2" x="17" y="23" width="1" height="1"/><rect class="sa189-2" x="18" y="24" width="1" height="1"/><path class="sa189-2" d="M21,27V26H20v7h1V27Z"/><path class="sa189-3" d="M22,27H21v6h1V27Z"/><path class="sa189-2" d="M23,25H22v8h1V25Z"/><path class="sa189-3" d="M14,31V29H13v2Z"/><path class="sa189-5" d="M14,29v2H13V30H12v2h3V28H13v1Z"/><path class="sa189-5" d="M10,29v3h1V28H10Z"/><path class="sa189-5" d="M18,29h1V28H17v1Z"/><path class="sa189-5" d="M16,31v1h3V30H18v1H17V30H16Z"/><path class="sa189-2" d="M12,26v4h1V25H12Z"/><path class="sa189-2" d="M16,26v4h1V25H16Z"/><path class="sa189-4" d="M17,16v1H16V15H15V13H13v1h1v2h1v1H14V16H11v3h1V18h2v1h1V18h2v1h1V16Z"/><path class="sa189-4" d="M16,13v1h2V13H16Z"/><rect class="sa189-4" x="11" y="13" width="1" height="1"/><polygon class="sa189-4" points="13 21 14 21 14 22 15 22 15 21 16 21 16 20 13 20 13 21"/><rect class="sa189-2" x="14" y="16" width="1" height="1"/><path class="sa189-6" d="M12,15v1h1V14H12Z"/><path class="sa189-6" d="M17,14H16v1h1Z"/><path class="sa189-2" d="M12,14H11v2h1V14Z"/><path class="sa189-2" d="M17,15v1h1V14H17Z"/><path class="sa189-7" d="M11,14V13H10v5h1V14Z"/><rect class="sa189-7" x="12" y="13" width="1" height="1"/><path class="sa189-7" d="M16,13H15v2h1V13Z"/><path class="sa189-7" d="M19,13H18v5h1V13Z"/><path class="sa189-7" d="M14,16V14H13v2Z"/><path class="sa189-7" d="M16,15v2h1V15Z"/><path class="sa189-8" d="M14,11v2h1V11Z"/><rect class="sa189-8" x="10" y="12" width="1" height="1"/><path class="sa189-8" d="M16,12v1h1V11H16Z"/><rect class="sa189-8" x="18" y="12" width="1" height="1"/><path class="sa189-8" d="M12,13h1V11H12v2Z"/><path class="sa189-9" d="M17,12v1h1V12Z"/><path class="sa189-9" d="M16,12V11H15v2h1Z"/><path class="sa189-9" d="M13,11v2h1V11Z"/><path class="sa189-9" d="M12,12H11v1h1Z"/><rect class="sa189-3" x="19" y="20" width="1" height="1"/><rect class="sa189-3" x="9" y="20" width="1" height="1"/><path class="sa189-3" d="M9,19V12h1V11h2V10h5v1h2v1h1v8h1V11H20V10H19V9H18V8H11V9H10v1H9v1H8v9H9Z"/><rect class="sa189-3" x="11" y="22" width="1" height="1"/><rect class="sa189-3" x="17" y="22" width="1" height="1"/><rect class="sa189-2" x="10" y="8" width="1" height="1"/><rect class="sa189-2" x="9" y="9" width="1" height="1"/><rect class="sa189-2" x="8" y="10" width="1" height="1"/><path class="sa189-2" d="M8,11H7v9H8V11Z"/><rect class="sa189-2" x="8" y="20" width="1" height="1"/><rect class="sa189-2" x="9" y="21" width="1" height="1"/><rect class="sa189-2" x="20" y="20" width="1" height="1"/><path class="sa189-2" d="M21,20h1V11H21v9Z"/><rect class="sa189-2" x="20" y="10" width="1" height="1"/><rect class="sa189-2" x="19" y="9" width="1" height="1"/><rect class="sa189-2" x="18" y="8" width="1" height="1"/><path class="sa189-2" d="M18,8V7H11V8h7Z"/><path class="sa189-2" d="M12,12V11H10v1h2Z"/><path class="sa189-2" d="M10,13V12H9v5h1V13Z"/><path class="sa189-2" d="M20,12H19v5h1V12Z"/><path class="sa189-2" d="M18,12h1V11H17v1Z"/><path class="sa189-2" d="M14,11h3V10H12v1h2Z"/><path class="sa189-10" d="M14,18H13v1h1Z"/><path class="sa189-10" d="M12,22v1h5V22h2V20h1V17H19v1H18v1H17V18H15v1h1v2H15v1H14V21H13V19H11V18H10V17H9v3h1v2h2Z"/><path class="sa189-11" d="M19,23V22H18v1Z"/><rect class="sa189-10" x="18" y="23" width="1" height="1"/><path class="sa189-11" d="M16,23v1h1V23Z"/><path class="sa189-10" d="M16,25h1V24H16Z"/><path class="sa189-11" d="M13,23H12v1h1Z"/><path class="sa189-10" d="M12,24v1h1V24Z"/><path class="sa189-11" d="M11,22H10v1h1Z"/><path class="sa189-10" d="M11,23H10v1h1Z"/><path class="sa189-2" d="M13,19v1h3V19H13Z"/><path class="sa189-2" d="M12,18v1h1V18Z"/><rect class="sa189-2" x="20" y="22" width="1" height="1"/><path class="sa189-6" d="M19,21v5h1V25h2V21H19Zm2,2H20V22h1Z"/><path class="sa189-4" d="M20,26h1v1h1V25H20Z"/></svg>