<svg xmlns="http://www.w3.org/2000/svg" viewBox="0 0 29 33"><defs><style>polygon,rect,path{shape-rendering:crispedges;}.ya90-1{fill:#d4a122;}.ya90-2{fill:#000000;}.ya90-3{fill:#508e91;}.ya90-4{fill:#efcaaf;}.ya90-5{fill:#c6e5e4;}.ya90-6{fill:#990000;}.ya90-7{fill:#990000;}.ya90-8{fill:#c8a715;}.ya90-9{fill:#d2d8b8;}.ya90-10{fill:#0068ff;}.ya90-11{fill:#45ba00;}</style></defs><path class="ya90-1" d="M0,0V33H29V0ZM21,12h1v1H21Zm4,10v2H24v1H23v1h1v1H23v6H6V27H7V26H8V25h2V20H9V16H8V14H9V12H8v1H7V12H8V11H9V10h1V9h2V8h5V9h2v1h1v1h1v1H20v4H19v2h0V16h1V14h1v2H20v3h3v1h1v1h1Z"/><rect class="ya90-1" x="11" y="22" width="1" height="1"/><rect class="ya90-1" x="17" y="22" width="1" height="1"/><rect class="ya90-1" x="14" y="22" width="1"/><rect class="ya90-1" x="14" y="16" width="1"/><rect class="ya90-1" x="9" y="16" width="1"/><path class="ya90-2" d="M7,30V27H6v6H7V30Z"/><path class="ya90-3" d="M7,30H8V27H7v3Z"/><path class="ya90-3" d="M7,31v2H8V31Z"/><rect class="ya90-2" x="7" y="26" width="1" height="1"/><path class="ya90-2" d="M9,31V27H8v6H9V31Z"/><path class="ya90-3" d="M20,32V27H19V25H18v1H17v1H16V25H15v2H14V25H13v2H12V26H11V25H10v1H9v6h1v1h4V32h1v1h4V32Zm-9-3H10V28h1Zm2,2H12V30h1Zm2,0H14V30h1Zm0-2H14V28h1Zm2,2H16V30h1Zm1-2V28h1v1Z"/><path class="ya90-2" d="M10,26V25H8v1h2Z"/><path class="ya90-2" d="M11,26h2V25H12V23H11v1H10v1h1Z"/><rect class="ya90-2" x="13" y="24" width="1" height="1"/><path class="ya90-2" d="M14,32v1h1V32Z"/><rect class="ya90-2" x="14" y="30" width="1" height="1"/><rect class="ya90-2" x="14" y="28" width="1" height="1"/><path class="ya90-2" d="M14,26v1h1V25H14Z"/><rect class="ya90-2" x="15" y="24" width="1" height="1"/><path class="ya90-4" d="M16,24V23H13v1h1v1h1V24Z"/><path class="ya90-2" d="M17,24v1H16v1h2V25h1V24H18V23H17Z"/><path class="ya90-2" d="M19,26v1h1V25H19Z"/><path class="ya90-2" d="M21,31V27H20v6h1V31Z"/><path class="ya90-3" d="M21,32v1h1V32Z"/><path class="ya90-3" d="M21,31h1V28H21v3Z"/><path class="ya90-2" d="M22,28v5h1V27H22Z"/><rect class="ya90-5" x="10" y="28" width="1" height="1"/><rect class="ya90-5" x="12" y="30" width="1" height="1"/><path class="ya90-5" d="M12,27h1V26H12Z"/><rect class="ya90-5" x="16" y="30" width="1" height="1"/><rect class="ya90-5" x="18" y="28" width="1" height="1"/><path class="ya90-5" d="M16,27h1V26H16Z"/><path class="ya90-5" d="M9,27V26H8v1Z"/><path class="ya90-5" d="M19,32v1h1V32Z"/><path class="ya90-5" d="M9,32v1h1V32Z"/><path class="ya90-5" d="M7,31H8V30H7Z"/><path class="ya90-5" d="M21,32h1V31H21Z"/><path class="ya90-2" d="M21,15H20v1h1Z"/><path class="ya90-4" d="M18,16H16V15H15V14H14v1H13v1H11V15H9v1h1v1h0v1h1v1h1V18h2v1h1V18h2v1h1V18h1V16h1V15H18Zm-3,0v1H14V16h1Z"/><rect class="ya90-4" x="10" y="13" width="1"/><path class="ya90-4" d="M16,12H15V11H14v1H13v1h4V12Z"/><rect class="ya90-4" x="18" y="13" width="1" height="1"/><polygon class="ya90-4" points="13 21 13 21 14 21 14 22 15 22 15 21 16 21 16 20 13 20 13 21"/><path class="ya90-2" d="M20,16H19v1h1Z"/><path class="ya90-2" d="M10,17V16H9v1Z"/><path class="ya90-2" d="M9,15H8v1H9Z"/><polygon class="ya90-2" points="14 17 14 17 15 17 15 16 14 16 14 17"/><rect class="ya90-6" x="10" y="13" width="1" height="1"/><rect class="ya90-6" x="12" y="12" width="1" height="1"/><rect class="ya90-6" x="18" y="13" width="1"/><path class="ya90-7" d="M12,22v1h5V22h1V21h1V20h1V17H19v1H18v1H17V18H15v1h1v2H15v1H14V21H13V19H11V18H10V17H9v3h1v2h2Z"/><path class="ya90-7" d="M14,18H13v1h1Z"/><path class="ya90-8" d="M17,24V23H16v1Z"/><rect class="ya90-7" x="16" y="24" width="1" height="1"/><path class="ya90-8" d="M13,23H12v1h1Z"/><path class="ya90-7" d="M12,24v1h1V24Z"/><path class="ya90-8" d="M11,22H10v1h1Z"/><path class="ya90-7" d="M11,23H10v1h1Z"/><path class="ya90-2" d="M13,19v1h3V19H13Z"/><path class="ya90-2" d="M12,18v1h1V18Z"/><rect class="ya90-9" x="21" y="12" width="1" height="1"/><path class="ya90-9" d="M10,13h2V12h2V11h1v1h2v1h2v1h1V12h1V11H20V10H19V9H17V8H12V9H10v1H9v1H8v1H9v2h1Z"/><path class="ya90-9" d="M21,14H20v1h1Z"/><path class="ya90-9" d="M9,15V14H8v1Z"/><rect class="ya90-9" x="7" y="12" width="1" height="1"/><path class="ya90-2" d="M10,15h1v1h2V15h1V14h1v1h1v1h2V15h2V14H18V13H11v1H9v1Z"/><path class="ya90-4" d="M21,26H20v1h1v1h1V27h1V26H21Z"/><rect class="ya90-2" x="23" y="26" width="1" height="1"/><path class="ya90-10" d="M20,21h2V20H21V19H20v2Z"/><path class="ya90-10" d="M23,21v2h1V22h1V21H23Z"/><path class="ya90-10" d="M22,24H21V22H20V21H18v2h2v2h1v1h1V25h1V24Z"/><path class="ya90-11" d="M23,23V21h1V20H23V19H21v1h1v1H20v1h1v2h2v1h1V23Z"/><path class="ya90-11" d="M19,24v1h1V23H18v1Z"/><path class="ya90-11" d="M21,26V25H20v1Z"/><path class="ya90-10" d="M24,24h1V23H24Z"/><path class="ya90-11" d="M19,20v1h1V20Z"/><path class="ya90-11" d="M22,26h1V25H22Z"/><path class="ya90-11" d="M24,23h1V22H24Z"/></svg>