<svg xmlns="http://www.w3.org/2000/svg" viewBox="0 0 29 33"><defs><style>polygon,rect,path{shape-rendering:crispedges;}.wa219-1{fill:#29834f;}.wa219-2{fill:#990000;}.wa219-3{fill:#000000;}.wa219-4{fill:#b2622b;}.wa219-5{fill:#cc3232;}.wa219-6{fill:#ffffff;}.wa219-7{fill:#5e362f;}.wa219-8{fill:#5e362f;}.wa219-9{fill:#cbed03;}</style></defs><path class="wa219-1" d="M6,32V27H7V26H8V25h2V22h1V20H9V18H8V12H9V11h1V10h1V9h7v1h1v1h1v2h1v5H20v2H18v2h1v3h2v1h1v1h1v6h6V0H0V33H6Z"/><path class="wa219-2" d="M19,26v1H18V26H17V25h1V23H17v1H16v2H15v1H14v3h1v1h3V30h1v1h1V29H19V28h1V27h1V26H19Zm-1,3H17v1H16V29H15V28h1V27h1v1h1Z"/><rect class="wa219-2" x="21" y="32" width="1" height="1"/><rect class="wa219-2" x="21" y="27" width="1" height="1"/><path class="wa219-2" d="M21,30v1h1V29H21Z"/><path class="wa219-2" d="M13,32H11v1h3V32Z"/><rect class="wa219-2" x="9" y="32" width="1" height="1"/><path class="wa219-2" d="M17,32H15v1h3V32Z"/><rect class="wa219-2" x="19" y="32" width="1" height="1"/><rect class="wa219-2" x="7" y="27" width="1" height="1"/><path class="wa219-2" d="M7,30v1H8V29H7Z"/><rect class="wa219-2" x="7" y="32" width="1" height="1"/><path class="wa219-2" d="M9,27v1h1v1H9v2h1V30h1v1h2V30H12V29H11V28h1V27h2V26H13V24H12V23H11v2h1v1H11v1H10V26H8v1Z"/><path class="wa219-3" d="M23,27H22v6h1V27Z"/><rect class="wa219-3" x="21" y="26" width="1" height="1"/><path class="wa219-3" d="M21,31V27H20v4H14V27H13v4H9V27H8v6H9V32H20v1h1V31Z"/><path class="wa219-3" d="M20,26h1V25H19v1Z"/><path class="wa219-3" d="M18,24v1h1V22H18v2Z"/><path class="wa219-3" d="M15,25h1V24H15Z"/><path class="wa219-3" d="M15,26V25H14v2h1Z"/><path class="wa219-3" d="M14,24H13v1h1Z"/><path class="wa219-4" d="M14,25h1V24h1V23H13v1h1Z"/><path class="wa219-3" d="M11,24V22H10v3h1Z"/><path class="wa219-3" d="M10,25H8v1h2Z"/><rect class="wa219-3" x="7" y="26" width="1" height="1"/><path class="wa219-3" d="M7,31V27H6v6H7V31Z"/><path class="wa219-4" d="M13,20v2h3V20Z"/><rect class="wa219-4" x="9" y="15" width="1" height="1"/><rect class="wa219-4" x="11" y="11" width="1" height="1"/><path class="wa219-4" d="M18,14V13H16v1h2Z"/><rect class="wa219-4" x="19" y="15" width="1" height="1"/><rect class="wa219-4" x="11" y="13" width="1" height="1"/><path class="wa219-4" d="M12,19V18h5v2h1V19h1V18H18V15H17v2H16V15H15V11H14v1H13v2h1v2h1v1H14V16H13V15H11v3H10v1h1v1h1Z"/><path class="wa219-3" d="M19,16v2h1V16Z"/><path class="wa219-3" d="M18,19v1h1V19Z"/><path class="wa219-3" d="M12,23v1h1V23h3v1h1V22h1V20H17v1H16v1H13V21H12V20H11v2h1Z"/><path class="wa219-3" d="M10,19v1h1V19Z"/><rect class="wa219-3" x="9" y="14" width="1" height="1"/><path class="wa219-3" d="M10,17V16H9v2h1Z"/><rect class="wa219-3" x="14" y="16" width="1" height="1"/><path class="wa219-5" d="M10,30v1h1V30Z"/><path class="wa219-5" d="M10,32v1h1V32Z"/><path class="wa219-5" d="M12,28H11v1h1v1h1V27H12Z"/><polygon class="wa219-5" points="10 27 11 27 11 26 12 26 12 25 11 25 10 25 10 26 10 27"/><path class="wa219-5" d="M15,26h1V25H15Z"/><path class="wa219-5" d="M13,25v1h1V25Z"/><polygon class="wa219-5" points="17 27 16 27 16 28 15 28 15 29 16 29 16 30 17 30 17 29 18 29 18 28 17 28 17 27"/><polygon class="wa219-5" points="17 25 17 26 18 26 18 27 19 27 19 26 19 25 18 25 17 25"/><path class="wa219-5" d="M7,29H8V28H7Z"/><path class="wa219-5" d="M10,28H9v1h1Z"/><path class="wa219-5" d="M21,29h1V28H21Z"/><path class="wa219-5" d="M19,29h1V28H19Z"/><path class="wa219-5" d="M21,32h1V31H21Z"/><path class="wa219-5" d="M7,32H8V31H7Z"/><path class="wa219-5" d="M14,30v1h1V30Z"/><path class="wa219-5" d="M14,32v1h1V32Z"/><path class="wa219-5" d="M18,30v1h1V30Z"/><path class="wa219-5" d="M18,32v1h1V32Z"/><path class="wa219-5" d="M12,23V22H11v1Z"/><path class="wa219-5" d="M17,23h1V22H17Z"/><path class="wa219-6" d="M12,15h1V14H12Z"/><path class="wa219-6" d="M16,14v1h1V14Z"/><path class="wa219-3" d="M11,14v1h1V14Z"/><path class="wa219-3" d="M17,14v1h1V14Z"/><path class="wa219-7" d="M18,12H16v1h2Z"/><rect class="wa219-7" x="11" y="12" width="1" height="1"/><path class="wa219-8" d="M16,19v2h1V19Z"/><path class="wa219-8" d="M13,19h3V18H12v3h1V19Z"/><path class="wa219-3" d="M13,20h3V19H13Z"/><path class="wa219-3" d="M17,19V18H16v1Z"/><path class="wa219-9" d="M9,15V14h1v4h1V11h1v3h1V12h1V11h1v4h1V12h2v6h1V15h1v3h1V13H20V11H19V10H18V9H11v1H10v1H9v1H8v6H9V15Z"/><path class="wa219-9" d="M10,18H9v2h1V18Z"/><path class="wa219-9" d="M13,16h1V14H13v2Z"/><path class="wa219-9" d="M16,16v1h1V15H16Z"/><path class="wa219-9" d="M19,19v1h1V18H19Z"/></svg>