<svg xmlns="http://www.w3.org/2000/svg" viewBox="0 0 29 33"><defs><style>polygon,rect,path{shape-rendering:crispedges;}.wa93-1{fill:#db5a8e;}.wa93-2{fill:#0068ff;}.wa93-3{fill:#000000;}.wa93-4{fill:#ce8452;}.wa93-5{fill:#ffffff;}.wa93-6{fill:#ffffff;}.wa93-7{fill:#663228;}.wa93-8{fill:#663228;}.wa93-9{fill:#ccc;}.wa93-10{fill:#ff791f;}.wa93-11{fill:#fad000;}</style></defs><path class="wa93-1" d="M13,6h4V5H12V6Z"/><path class="wa93-1" d="M10,22h1V21H10V20H9v2Z"/><path class="wa93-1" d="M19,21H18v1h2V20H19Z"/><path class="wa93-1" d="M0,33H6V27H7V26H8V24H6V23H5V21H4V20H3V19H8v1H9V16H8V15H9V10h1V9h1V8h7V9h1v1h1v5h1v1H20v4h1V19h5v1H25v1H24v2H23v1H21v2h1v1h1v6h6V0H0ZM11,5h1V4h5V5h1V6H17V7H12V6H11Z"/><path class="wa93-2" d="M15,30V28H14v3h2V30Z"/><path class="wa93-2" d="M18,30V28H17V27H16V25H15v3h1v1h1v2h2V30Z"/><path class="wa93-2" d="M19,26V25H18V24H16v1h1v1h1v2h1v1h1V27H19Z"/><rect class="wa93-2" x="17" y="22" width="1" height="1"/><path class="wa93-2" d="M21,31v1h1V30H21Z"/><rect class="wa93-2" x="21" y="27" width="1" height="1"/><rect class="wa93-2" x="16" y="32" width="1" height="1"/><rect class="wa93-2" x="10" y="32" width="1" height="1"/><rect class="wa93-2" x="19" y="32" width="1" height="1"/><rect class="wa93-2" x="13" y="32" width="1" height="1"/><path class="wa93-2" d="M7,31v2H8V31Z"/><path class="wa93-2" d="M8,29V27H7v2Z"/><path class="wa93-2" d="M12,29V28H11V27H10V26H9v2h1v1h1v2h2V30H12Z"/><rect class="wa93-2" x="9" y="30" width="1" height="1"/><path class="wa93-2" d="M12,25V24H11v2h1v2h1V25Z"/><rect class="wa93-2" x="11" y="22" width="1" height="1"/><path class="wa93-3" d="M23,27H22v6h1V27Z"/><rect class="wa93-3" x="21" y="26" width="1" height="1"/><path class="wa93-3" d="M21,31V27H20v4H14V27H13v4H9V27H8v6H9V32H20v1h1V31Z"/><path class="wa93-3" d="M19,26h2V25H19Z"/><path class="wa93-3" d="M18,24v1h1V22H18v2Z"/><path class="wa93-3" d="M17,24V23H16v1Z"/><rect class="wa93-3" x="15" y="24" width="1" height="1"/><path class="wa93-3" d="M15,26V25H14v2h1Z"/><rect class="wa93-3" x="13" y="24" width="1" height="1"/><path class="wa93-4" d="M14,24v1h1V24h1V23H13v1Z"/><rect class="wa93-3" x="12" y="23" width="1" height="1"/><path class="wa93-3" d="M11,24V22H10v3h1Z"/><path class="wa93-3" d="M10,26V25H8v1h2Z"/><rect class="wa93-3" x="7" y="26" width="1" height="1"/><path class="wa93-3" d="M7,30V27H6v6H7V30Z"/><rect class="wa93-3" x="20" y="15" width="1" height="1"/><path class="wa93-3" d="M19,15h1V14H19Z"/><rect class="wa93-4" x="18" y="12" width="1" height="1"/><path class="wa93-4" d="M10,14h2V13H10Z"/><path class="wa93-4" d="M10,17h1v1h1v1h1V18h5V17h1V16h1V15H16V14h2V13H16V12h2V11H17V10H12v1H11v1h1v1h1v2H9v1h1Zm4-1h1v1H14Z"/><path class="wa93-3" d="M10,14H9v1h1Z"/><rect class="wa93-3" x="8" y="15" width="1" height="1"/><rect class="wa93-3" x="14" y="16" width="1" height="1"/><path class="wa93-5" d="M21,29v1h1V28H21Z"/><path class="wa93-5" d="M21,32v1h1V32Z"/><path class="wa93-5" d="M19,27h2V26H19Z"/><path class="wa93-5" d="M19,28H18v2h1v1h1V29H19Z"/><path class="wa93-5" d="M17,27v1h1V26H17V25H16v2Z"/><path class="wa93-5" d="M18,32H17v1h2V32Z"/><path class="wa93-5" d="M16,29V28H15v2h1v1h1V29Z"/><path class="wa93-5" d="M15,27H14v1h1Z"/><path class="wa93-5" d="M13,25v2h1V25Z"/><path class="wa93-5" d="M15,32H14v1h2V32Z"/><path class="wa93-5" d="M12,29v1h1V28H12Z"/><rect class="wa93-5" x="12" y="24" width="1" height="1"/><path class="wa93-5" d="M11,24h1V23H11Z"/><path class="wa93-5" d="M18,24V23H17v1Z"/><path class="wa93-5" d="M11,27v1h1V26H11V25H10v2Z"/><path class="wa93-5" d="M12,32H11v1h2V32Z"/><path class="wa93-5" d="M10,29V28H9v2h1v1h1V29Z"/><path class="wa93-5" d="M9,32v1h1V32Z"/><path class="wa93-5" d="M9,27V26H8v1Z"/><path class="wa93-5" d="M7,30v1H8V29H7Z"/><path class="wa93-6" d="M12,15h1V14H12Z"/><path class="wa93-6" d="M10,14v1h1V14Z"/><path class="wa93-6" d="M18,14v1h1V14Z"/><path class="wa93-6" d="M16,14v1h1V14Z"/><path class="wa93-3" d="M11,14v1h1V14Z"/><path class="wa93-3" d="M17,14v1h1V14Z"/><rect class="wa93-7" x="18" y="13" width="1" height="1"/><rect class="wa93-7" x="16" y="12" width="2" height="1"/><path class="wa93-7" d="M13,14V13H12v1Z"/><path class="wa93-7" d="M10,13h2V12H10Z"/><path class="wa93-8" d="M10,21h1v1h1v1h5V22h1V21h1V20h1V16H19v1H18v1H17v1H16v1H13V19H12V18H11V17H10V16H9v4h1Z"/><path class="wa93-8" d="M15,18H13v1h3V18Z"/><rect class="wa93-3" x="13" y="19" width="3" height="1"/><path class="wa93-3" d="M16,19h1V18H16Z"/><path class="wa93-6" d="M10,22H9V20H8V19H3v1H7v1H5v1H8v1H6v1h4Z"/><path class="wa93-9" d="M8,22H5v1H8Z"/><path class="wa93-9" d="M7,20H4v1H7Z"/><path class="wa93-9" d="M22,20v1h3V20H22Z"/><path class="wa93-9" d="M21,22v1h3V22H21Z"/><path class="wa93-6" d="M19,22v2h4V23H21V22h3V21H22V20h4V19H21v1H20v2Z"/><path class="wa93-9" d="M10,24H8v1h2Z"/><path class="wa93-9" d="M19,25h2V24H19Z"/><path class="wa93-10" d="M10,13V12h1V11h1V10h5v1h1v1h1v2h1V10H19V9H18V8H11V9H10v1H9v4h1Z"/><rect class="wa93-11" x="17" y="5" width="1" height="1"/><path class="wa93-11" d="M13,6H12V7h5V6H13Z"/><path class="wa93-11" d="M17,5V4H12V5h5Z"/><rect class="wa93-11" x="11" y="5" width="1" height="1"/></svg>