<svg xmlns="http://www.w3.org/2000/svg" viewBox="0 0 29 33"><defs><style>polygon,rect,path{shape-rendering:crispedges;}.aa15-1{fill:#397d98;}.aa15-2{fill:#000000;}.aa15-3{fill:#ce8452;}.aa15-4{fill:#004a77;}.aa15-5{fill:#38a6e8;}.aa15-6{fill:#473a35;}.aa15-7{fill:#473a35;}.aa15-8{fill:#00686d;}.aa15-9{fill:#ffffff;}.aa15-10{fill:#0068ff;}.aa15-11{fill:#ff1f4a;}.aa15-12{fill:#455054;}.aa15-13{fill:#002b4f;}</style></defs><rect class="aa15-1" x="12" y="8" width="1" height="1"/><path class="aa15-1" d="M0,33H8V32H6V31H5V22H6V21H7V20H5v1H2V17H5V16H8V15H9V11h1V10H9V9h1V8h2V7h1V8h3V9h1V8h1V9h1v1h1v5h1v1H20v3H19v1H18v1H17v3h2v1h2v1h1v1h1v6h6V0H0Z"/><path class="aa15-1" d="M8,18v4H9v2H8v1h2V24h2V21H11V20H10V19H9V16H8Z"/><path class="aa15-2" d="M23,31V27H22v6h1Z"/><rect class="aa15-2" x="21" y="26" width="1" height="1"/><path class="aa15-3" d="M22,31V27H21v6h1Z"/><rect class="aa15-3" x="20" y="26" width="1" height="1"/><path class="aa15-2" d="M21,31V27H20v6h1Z"/><path class="aa15-2" d="M20,26h1V25H19v1Z"/><rect class="aa15-4" x="18" y="30" width="1" height="1"/><rect class="aa15-4" x="10" y="30" width="1" height="1"/><rect class="aa15-4" x="18" y="32" width="1" height="1"/><rect class="aa15-4" x="10" y="32" width="1" height="1"/><path class="aa15-4" d="M17,31V30h1V29h1v1h1V26H19V25H18v1H17v1H16v1H13V27H12V26H11V25H10v1H9v4h1V29h1v1h1v3h1V29h2v1h1v2H15v1h2Z"/><path class="aa15-4" d="M14,31v1h1V30H14Z"/><path class="aa15-2" d="M17,26h1V25h1V24H17Z"/><rect class="aa15-2" x="16" y="26" width="1" height="1"/><path class="aa15-2" d="M14,27H13v1h3V27Z"/><path class="aa15-3" d="M16,23H13v1H12v2h1v1h3V26h1V24H16Z"/><rect class="aa15-2" x="12" y="26" width="1" height="1"/><path class="aa15-2" d="M12,24H10v1h1v1h1Z"/><rect class="aa15-3" x="8" y="26" width="1" height="1"/><path class="aa15-2" d="M9,31V27H8V26h2V25H8V24H7v7H6v1H8v1H9Z"/><path class="aa15-3" d="M7,30V24H8V22H6v9H7Z"/><path class="aa15-2" d="M6,29V22H5v9H6Z"/><path class="aa15-5" d="M20,31V30H19v1H18V30H17v3h1V32h1v1h1Z"/><rect class="aa15-5" x="18" y="29" width="1" height="1"/><path class="aa15-5" d="M15,32h1V30H15Z"/><path class="aa15-5" d="M14,32V30h1V29H13v4h2V32Z"/><path class="aa15-5" d="M12,31V30H11v1H10V30H9v3h1V32h1v1h1Z"/><rect class="aa15-5" x="10" y="29" width="1" height="1"/><rect class="aa15-2" x="20" y="15" width="1" height="1"/><path class="aa15-3" d="M18,12V11H17V10H16v1H11v1h1v1h2v1h1V13h1V12Z"/><path class="aa15-3" d="M19,17V16H15v1H14V16H10v3h1v1h1v1h1v1h3V21h1V20h1V19h1Zm-2,2H16v1H13V19H12V18h5Z"/><rect class="aa15-3" x="18" y="12" width="1" height="1"/><rect class="aa15-3" x="14" y="15" width="1" height="1"/><path class="aa15-2" d="M19,17v2h1V16H19Z"/><rect class="aa15-2" x="18" y="19" width="1" height="1"/><rect class="aa15-2" x="17" y="20" width="1" height="1"/><path class="aa15-2" d="M16,22H13V21H12v3h1V23h3v1h1V21H16Z"/><rect class="aa15-2" x="11" y="20" width="1" height="1"/><rect class="aa15-2" x="10" y="19" width="1" height="1"/><path class="aa15-2" d="M10,17V16H9v3h1Z"/><rect class="aa15-2" x="8" y="15" width="1" height="1"/><rect class="aa15-2" x="14" y="16" width="1" height="1"/><path class="aa15-6" d="M16,12v1h2V12Z"/><path class="aa15-6" d="M11,12H10v1h2V12Z"/><path class="aa15-7" d="M12,19h5V18H12Z"/><rect class="aa15-2" x="13" y="19" width="3" height="1"/><path class="aa15-8" d="M10,12h1V11h5V10h1v1h1v1h1v1h1V10H19V9H18V8H17V9H16V8H13V9H12V8H10V9H9v1h1v1H9v2h1Z"/><rect class="aa15-8" x="12" y="7" width="1" height="1"/><path class="aa15-9" d="M10,16h4V15h1v1h5V13H15v1H14V13H9v3Zm6-2h3v1H16Zm-6,0h3v1H10Z"/><path class="aa15-10" d="M18,15h1V14H16v1Z"/><path class="aa15-11" d="M12,15h1V14H10v1Z"/><path class="aa15-12" d="M8,22V20H7v2Z"/><rect class="aa15-2" x="6" y="21" width="1" height="1"/><path class="aa15-2" d="M9,22H8v2H9Z"/><path class="aa15-13" d="M8,19V16H5v1H4v3H3V19H2v2H5V20H8ZM7,18H6V17H7Z"/><rect class="aa15-9" x="2" y="17" width="1" height="1"/><rect class="aa15-11" x="2" y="18" width="1" height="1"/><rect class="aa15-11" x="3" y="17" width="1" height="1"/><path class="aa15-9" d="M3,19v1H4V18H3Z"/><rect class="aa15-9" x="6" y="17" width="1" height="1"/></svg>