<svg xmlns="http://www.w3.org/2000/svg" viewBox="0 0 29 33"><defs><style>polygon,rect,path{shape-rendering:crispedges;}.va23-1{fill:#db5a8e;}.va23-2{fill:#000000;}.va23-3{fill:#508e5d;}.va23-4{fill:#efcaaf;}.va23-5{fill:#cc2f76;}.va23-6{fill:#ffffff;}.va23-7{fill:#99004d;}.va23-8{fill:#99004d;}.va23-9{fill:#317f03;}.va23-10{fill:#cbed03;}.va23-11{fill:#304400;}.va23-12{fill:#6d5800;}.va23-13{fill:#fad000;}.va23-14{fill:#ea1500;}</style></defs><path class="va23-1" d="M6,32V27H7V26H8V25h2V22h1V20H10V19H9V16H8V15H9V11h1V10h1V9h7v1h1v1h1v4h1v1H20v3H19v1H18v2h1v3h2V23h1V22H21V19h1v1h1V18h1V17h3v5H26v1H25v1H24v7H23v1H21v1h8V0H0V33H6Z"/><path class="va23-2" d="M7,30V27H6v6H7V30Z"/><path class="va23-3" d="M8,29V27H7v2Z"/><path class="va23-3" d="M7,31v2H8V31Z"/><rect class="va23-2" x="7" y="26" width="1" height="1"/><path class="va23-3" d="M12,25V24H11v2h1v2h1V25Z"/><rect class="va23-3" x="11" y="22" width="1" height="1"/><path class="va23-3" d="M12,29V28H11V27H10V26H9v2h1v1h1v2h2V30H12Z"/><rect class="va23-3" x="9" y="30" width="1" height="1"/><path class="va23-2" d="M10,26V25H8v1h2Z"/><path class="va23-2" d="M11,24V22H10v3h1Z"/><path class="va23-2" d="M12,21H11v1h1Z"/><path class="va23-2" d="M13,24V22H12v2Z"/><rect class="va23-2" x="13" y="24" width="1" height="1"/><path class="va23-4" d="M14,24v1h1V24h1V23H13v1Z"/><path class="va23-2" d="M15,26V25H14v2h1Z"/><rect class="va23-2" x="15" y="24" width="1" height="1"/><path class="va23-3" d="M18,30V28H17V27H16V25H15v3h1v1h1v2h2V30Z"/><path class="va23-3" d="M18,24H16v1h1v1h1v2h1v1h1V27H19V25H18Z"/><rect class="va23-3" x="17" y="22" width="1" height="1"/><path class="va23-3" d="M15,30V28H14v3h2V30Z"/><path class="va23-2" d="M17,24V22H16v2Z"/><path class="va23-2" d="M17,22h1V21H17Z"/><path class="va23-2" d="M18,24v1h1V22H18v2Z"/><rect class="va23-3" x="19" y="32" width="1" height="1"/><rect class="va23-3" x="16" y="32" width="1" height="1"/><rect class="va23-3" x="13" y="32" width="1" height="1"/><rect class="va23-3" x="10" y="32" width="1" height="1"/><path class="va23-2" d="M22,32h1V31H22V23H21v2H19v1h2v1H20v4H14V27H13v4H9V27H8v6H9V32H20v1h1V32Z"/><path class="va23-3" d="M23,24H22v1h1Z"/><path class="va23-3" d="M23,28V27H22v2h1Z"/><path class="va23-2" d="M23,25v6h1V24H23Z"/><rect class="va23-2" x="20" y="15" width="1" height="1"/><rect class="va23-4" x="9" y="15" width="1" height="1"/><rect class="va23-4" x="15" y="20" width="1" height="1"/><rect class="va23-4" x="13" y="20" width="1" height="1"/><path class="va23-4" d="M18,15H15v2H14V16H13v1H10v1h1v1h1V18h2v1h1V18h2v1h1V18h1V16h1V15H18Z"/><path class="va23-2" d="M19,17h1V16H19Z"/><path class="va23-2" d="M10,16H9v1h1Z"/><rect class="va23-2" x="8" y="15" width="1" height="1"/><path class="va23-2" d="M14,17h1V16H14Z"/><path class="va23-5" d="M19,28H18v2h1v1h1V29H19Z"/><path class="va23-5" d="M17,27v1h1V26H17V25H16v2Z"/><path class="va23-5" d="M22,29v2h1V29Z"/><path class="va23-5" d="M20,27h1V26H19v1Z"/><path class="va23-5" d="M23,26V25H22v2h1Z"/><path class="va23-5" d="M18,32H17v1h2V32Z"/><path class="va23-5" d="M16,29V28H15v2h1v1h1V29Z"/><path class="va23-5" d="M13,25v2h1V25Z"/><path class="va23-5" d="M15,27H14v1h1Z"/><path class="va23-5" d="M15,32H14v1h2V32Z"/><path class="va23-5" d="M12,29v1h1V28H12Z"/><rect class="va23-5" x="12" y="24" width="1" height="1"/><path class="va23-5" d="M10,27h1v1h1V26H11V25H10v2Z"/><path class="va23-5" d="M12,32H11v1h2V32Z"/><path class="va23-5" d="M10,29V28H9v2h1v1h1V29Z"/><path class="va23-5" d="M9,32v1h1V32Z"/><path class="va23-5" d="M9,27V26H8v1Z"/><path class="va23-5" d="M7,30v1H8V29H7Z"/><path class="va23-5" d="M12,23H11v1h1Z"/><path class="va23-5" d="M18,24V23H17v1Z"/><path class="va23-6" d="M17,14H16v1h1Z"/><path class="va23-2" d="M18,15h1V14H17v1Z"/><rect class="va23-7" x="16" y="13" width="1" height="1"/><path class="va23-8" d="M14,18H13v1h1Z"/><path class="va23-8" d="M12,22h1v1h3V22h1V21h1V20h1V19h1V17H19v1H18v1H17V18H15v1h1v2H15V20H14v1H13V19H11V18H10V17H9v2h1v1h1v1h1Z"/><path class="va23-2" d="M13,19v1h3V19H13Z"/><path class="va23-2" d="M12,18v1h1V18Z"/><path class="va23-9" d="M16,15V13h1v1h2v1h1V11H19V10H18V9H15v6Z"/><path class="va23-9" d="M11,16H10v1h1Z"/><path class="va23-9" d="M15,16V15H14v1Z"/><path class="va23-10" d="M11,15h2V13H11v2Z"/><path class="va23-11" d="M14,15V13H13v2Z"/><path class="va23-11" d="M12,15H11v1h2V15Z"/><path class="va23-11" d="M11,14V13H10v2h1Z"/><rect class="va23-11" x="11" y="12" width="2" height="1"/><rect class="va23-2" x="10" y="15" width="1" height="1"/><path class="va23-2" d="M11,17h2V16H11Z"/><rect class="va23-2" x="13" y="15" width="1" height="1"/><path class="va23-2" d="M10,14V13h1V12h2v1h1v2h1V9H11v1H10v1H9v4h1Z"/><path class="va23-12" d="M21,21v1h1V21Z"/><path class="va23-13" d="M24,21h1v1H24v1h2V22h1V20H25V19H24V18H23v2H22V19H21v2h1v1h2Z"/><path class="va23-4" d="M23,24h1V23H22v1Z"/><path class="va23-12" d="M24,22H22v1h2Z"/><path class="va23-2" d="M24,24h1V23H24Z"/><rect class="va23-12" x="24" y="21" width="1" height="1"/><rect class="va23-2" x="24" y="18" width="1" height="1"/><path class="va23-14" d="M25,19v1h2V19H25Z"/><path class="va23-13" d="M25,19h1V18h1V17H24v1h1Z"/><path class="va23-2" d="M26,19h1V18H26Z"/></svg>