<svg xmlns="http://www.w3.org/2000/svg" viewBox="0 0 29 33"><defs><style>polygon,rect,path{shape-rendering:crispedges;}.ja46-1{fill:#6b4f99;}.ja46-2{fill:#000000;}.ja46-3{fill:#ff1f4a;}.ja46-4{fill:#45ba00;}.ja46-5{fill:#e8b795;}.ja46-6{fill:#ffffff;}.ja46-7{fill:#e2e2e2;}.ja46-8{fill:#e2e2e2;}.ja46-9{fill:#c8a715;}.ja46-10{fill:#009b97;}</style></defs><path class="ja46-1" d="M12,22H11v2h1V22Z"/><path class="ja46-1" d="M0,33H6V27H7V26H8V25h2V20H9V16H8V15H9V11h1V10h1V9h7v1h1v1h1v4h1v1H20v4H19v5h2v1h1v1h1v6h6V0H0Z"/><path class="ja46-1" d="M18,24V22H17v2Z"/><path class="ja46-2" d="M23,27H22v6h1V27Z"/><rect class="ja46-2" x="21" y="26" width="1" height="1"/><path class="ja46-3" d="M21,31h1V30H21Z"/><path class="ja46-3" d="M21,28h1V27H21Z"/><path class="ja46-2" d="M21,30V27H20v6h1V30Z"/><path class="ja46-2" d="M20,26h1V25H19v1Z"/><rect class="ja46-3" x="13" y="24" width="3" height="1"/><path class="ja46-3" d="M9,27v1H20V27H9Z"/><path class="ja46-3" d="M9,31H20V30H9Z"/><path class="ja46-2" d="M17,24v1h2V24H17Z"/><path class="ja46-2" d="M12,24H10v1h2Z"/><path class="ja46-2" d="M10,25H8v1h2Z"/><path class="ja46-2" d="M9,30V27H8v6H9V30Z"/><rect class="ja46-2" x="7" y="26" width="1" height="1"/><path class="ja46-3" d="M8,28V27H7v1Z"/><path class="ja46-3" d="M7,31H8V30H7Z"/><path class="ja46-2" d="M7,30V27H6v6H7V30Z"/><path class="ja46-4" d="M9,31v2H20V31Z"/><path class="ja46-4" d="M9,29v1H20V28H9Z"/><path class="ja46-4" d="M9,27H21V26H19V25H10v1H8v1Z"/><path class="ja46-4" d="M16,24V23H13v1Z"/><path class="ja46-4" d="M7,29v1H8V28H7Z"/><path class="ja46-4" d="M7,31v2H8V31Z"/><path class="ja46-4" d="M21,31v2h1V31Z"/><path class="ja46-4" d="M21,29v1h1V28H21Z"/><rect class="ja46-2" x="20" y="15" width="1" height="1"/><path class="ja46-2" d="M19,13v1H17v1h3V12H19Z"/><path class="ja46-5" d="M10,17v1h1v1h1V18h2v1h1V18h2v1h1V18h1V16h1V15H16V13h1V11H16V10H13v1H12v1h1v1H11v1h2v1H9v1h1Zm4-1h1v1H14Z"/><path class="ja46-5" d="M10,13h1V11H10v2Z"/><path class="ja46-5" d="M18,14h1V13H17v1Z"/><rect class="ja46-5" x="11" y="10" width="1" height="1"/><rect class="ja46-5" x="17" y="10" width="1" height="1"/><rect class="ja46-5" x="18" y="11" width="1" height="1"/><polygon class="ja46-5" points="13 21 14 21 14 22 15 22 15 21 16 21 16 20 13 20 13 21"/><path class="ja46-2" d="M19,17h1V16H19Z"/><path class="ja46-2" d="M10,14V12H9v3h1Z"/><path class="ja46-2" d="M10,16H9v1h1Z"/><rect class="ja46-2" x="8" y="15" width="1" height="1"/><rect class="ja46-2" x="14" y="16" width="1" height="1"/><path class="ja46-6" d="M10,15h1V14H10Z"/><path class="ja46-6" d="M16,14v1h1V14Z"/><path class="ja46-2" d="M12,15h1V14H11v1Z"/><path class="ja46-7" d="M10,14h1V13H10Z"/><path class="ja46-7" d="M11,13h2V12H11Z"/><path class="ja46-7" d="M17,13H16v1h1Z"/><path class="ja46-7" d="M19,12H17v1h2Z"/><path class="ja46-8" d="M12,22v1h5V22h2V20h1V17H19v1H18v1H17V18H15v1h1v2H15v1H14V21H13V19H11V18H10V17H9v3h1v2h2Z"/><path class="ja46-8" d="M14,18H13v1h1Z"/><path class="ja46-9" d="M18,23h1V22H18Z"/><path class="ja46-8" d="M18,24h1V23H18Z"/><path class="ja46-9" d="M17,24V23H16v1Z"/><path class="ja46-8" d="M16,24v1h1V24Z"/><path class="ja46-9" d="M13,23H12v1h1Z"/><path class="ja46-8" d="M12,24v1h1V24Z"/><path class="ja46-9" d="M11,22H10v1h1Z"/><path class="ja46-8" d="M11,23H10v1h1Z"/><path class="ja46-2" d="M13,19v1h3V19H13Z"/><path class="ja46-2" d="M12,18v1h1V18Z"/><path class="ja46-10" d="M20,12V11H19v1Z"/><rect class="ja46-10" x="18" y="10" width="1" height="1"/><path class="ja46-10" d="M12,11h1V10h3v1h1V10h1V9H11v1h1Z"/><path class="ja46-10" d="M18,11H17v1h1Z"/><path class="ja46-10" d="M11,12h1V11H11Z"/><rect class="ja46-10" x="10" y="10" width="1" height="1"/><path class="ja46-10" d="M10,11H9v1h1Z"/></svg>