<svg xmlns="http://www.w3.org/2000/svg" viewBox="0 0 29 33"><defs><style>polygon,rect,path{shape-rendering:crispedges;}.na23-1{fill:#e55b35;}.na23-2{fill:#000000;}.na23-3{fill:#dbc6d2;}.na23-4{fill:#333333;}.na23-5{fill:#c18d59;}.na23-6{fill:#875070;}.na23-7{fill:#ffffff;}.na23-8{fill:#8e4717;}.na23-9{fill:#8e4717;}.na23-10{fill:#0079bc;}.na23-11{fill:#c6e5e4;}</style></defs><rect class="na23-1" x="14" y="17" width="1"/><path class="na23-1" d="M0,33H6V27H7V26H8V25h2V24h2V21H11V20H10V19H9V16H8V15H9V10h1V9h1V8h7V9h1v1h1v6h0V15h1v1H20v3H19v1H18v1H17v3h2v1h2V23h2V22H22V21H21V20h1V19h3v1h1v1H25v1H24v1h1v1H24v7H23v1H21v1h8V0H0Z"/><path class="na23-1" d="M19,16v2h0V16Z"/><path class="na23-2" d="M23,25v6h1V24H23Z"/><path class="na23-2" d="M7,30V27H6v6H7V30Z"/><path class="na23-3" d="M7,30H8V27H7v3Z"/><path class="na23-3" d="M7,31v2H8V31Z"/><rect class="na23-2" x="7" y="26" width="1" height="1"/><path class="na23-2" d="M9,31V27H8v6H9V31Z"/><path class="na23-3" d="M11,29H10V28h1V25H10v1H9v6h1v1h1V29Z"/><path class="na23-2" d="M10,26V25H8v1h2Z"/><path class="na23-2" d="M12,26h1V25H12V24H10v1h1v8h1V26Z"/><path class="na23-4" d="M17,26H16v1H13V26H12v7h5V26Z"/><path class="na23-2" d="M13,23V22H12v2h1Z"/><path class="na23-2" d="M13,26v1h3V26H13Z"/><path class="na23-5" d="M13,25v1h3V25h1V24H16V23H13v1H12v1Z"/><path class="na23-2" d="M18,29V25h1V24H17v1H16v1h1v7h1V29Z"/><path class="na23-3" d="M20,32V26H19V25H18v3h1v1H18v4h1V32Z"/><path class="na23-2" d="M22,32h1V31H22V23H21v2H19v1h2v1H20v6h1V32Z"/><path class="na23-3" d="M23,24H22v1h1Z"/><path class="na23-3" d="M22,30v1h1V30Z"/><path class="na23-3" d="M23,28V26H22v3h1Z"/><path class="na23-6" d="M19,29V28H18v1Z"/><path class="na23-6" d="M10,29h1V28H10Z"/><path class="na23-6" d="M21,27V26H20v1Z"/><path class="na23-6" d="M9,32v1h1V32Z"/><path class="na23-6" d="M19,32v1h1V32Z"/><path class="na23-6" d="M23,29H22v1h1Z"/><path class="na23-6" d="M23,25H22v1h1Z"/><path class="na23-6" d="M7,31H8V30H7Z"/><path class="na23-6" d="M9,27V26H8v1Z"/><rect class="na23-2" x="20" y="15" width="1" height="1"/><path class="na23-5" d="M19,12H18V11H17V10H12v1H11v1h2v1h3V12Z"/><path class="na23-5" d="M18,16H16V15H15V14H14v1H13v1H10v2h1v1h1V18h2v1h1V18h2v1h1V18h1V16Zm-3,0v1H14V16h1Z"/><rect class="na23-5" x="18" y="13" width="1" height="1"/><rect class="na23-5" x="10" y="13" width="1" height="1"/><rect class="na23-5" x="9" y="15" width="1" height="1"/><rect class="na23-5" x="13" y="20" width="1" height="1"/><path class="na23-5" d="M19,16h1V15H19Z"/><rect class="na23-5" x="15" y="20" width="1" height="1"/><path class="na23-2" d="M19,16v1h1V16H19Z"/><path class="na23-2" d="M16,23v1h1V22H16Z"/><path class="na23-2" d="M17,10Z"/><path class="na23-2" d="M10,16H9v1h1Z"/><polygon class="na23-2" points="14 16 14 17 15 17 15 16 15 16 14 16 14 16"/><path class="na23-7" d="M11,15H10v1h1Z"/><path class="na23-7" d="M19,15H18v1h1Z"/><path class="na23-8" d="M10,12v1h3V12Z"/><path class="na23-8" d="M19,13V12H16v1h3Z"/><path class="na23-9" d="M14,18H13v1h1Z"/><path class="na23-9" d="M13,23h3V22h1V21h1V20h1V19h1V17H19v1H18v1H17V18H15v1h1v2H15V20H14v1H13V19H11V18H10V17H9v2h1v1h1v1h1v1h1Z"/><path class="na23-2" d="M13,19v1h3V19H13Z"/><path class="na23-2" d="M12,18v1h1V18Z"/><path class="na23-10" d="M10,13V12h1V11h1V10h5v1h1v1h1v1h0v1h1V10H19V9H18V8H11V9H10v1H9v4h1Z"/><path class="na23-2" d="M10,15h1v1h2V15h1V14h1v1h1v1h2V15h2V14H18V13H11v1H9v1H8v1H9V15Z"/><path class="na23-7" d="M25,22V21h1V20H25V19H23v1h1v1H23v1h2Z"/><path class="na23-11" d="M24,21V20H23V19H22v1H21v1h1v1h1V21Z"/><path class="na23-11" d="M24,22H23v1h1Z"/><path class="na23-5" d="M23,24h1V23H22v1Z"/><rect class="na23-2" x="24" y="23" width="1" height="1"/></svg>