<svg xmlns="http://www.w3.org/2000/svg" viewBox="0 0 29 33"><defs><style>polygon,rect,path{shape-rendering:crispedges;}.ga188-1{fill:#000000;}.ga188-2{fill:#cbed03;}.ga188-3{fill:#b2622b;}.ga188-4{fill:#cbed03;}.ga188-5{fill:#ffffff;}.ga188-6{fill:#99582c;}.ga188-7{fill:#db5a8e;}.ga188-8{fill:#ff1d99;}.ga188-9{fill:#9b005c;}</style></defs><path class="ga188-1" d="M7,27H6v6H7V27Z"/><rect class="ga188-1" x="7" y="26" width="1" height="1"/><path class="ga188-2" d="M8,27H7v6H8V27Z"/><path class="ga188-1" d="M9,27H8v6H9V27Z"/><path class="ga188-1" d="M10,25H8v1h2Z"/><rect class="ga188-2" x="12" y="30" width="1" height="1"/><path class="ga188-2" d="M20,26H19V25H17v1H16v1H13V26H12V25H10v1H8v1H9v6h1V30h1V29h1V28h5v1h1v1h1v3h1V26Z"/><path class="ga188-2" d="M16,32H12v1h5V32Z"/><rect class="ga188-2" x="16" y="30" width="1" height="1"/><path class="ga188-1" d="M12,26h1v1h3V26h1V25h2V24H17V22h1V21h1V20h1V17h1V15H20V11H19V10H18V9H11v1H10v1H9v4H8v2H9v3h1v1h1v1h1v2H10v1h2Zm4-11V14h1v1h1V14h1v2H16Zm-1,5h1v1H13V20h2Zm-4-4H10V14h1v1h1V14h1v2Z"/><path class="ga188-1" d="M21,27V25H19v1h1v7h1V27Z"/><path class="ga188-3" d="M22,27V25H21v2Z"/><path class="ga188-2" d="M22,27H21v6h1V27Z"/><path class="ga188-1" d="M23,25H22v8h1V25Z"/><path class="ga188-4" d="M19,30H18V29H17V28H12v1H11v1H10v3h2V32h5v1h2V30Zm-6,1H12V30h1Zm4,0H16V30h1Z"/><path class="ga188-3" d="M19,15H16v1h3Z"/><path class="ga188-3" d="M13,15H10v1h3Z"/><path class="ga188-3" d="M16,21V20H15v1Z"/><path class="ga188-3" d="M13,21h1V20H13Z"/><path class="ga188-5" d="M13,14H12v1h1Z"/><path class="ga188-5" d="M11,14H10v1h1Z"/><path class="ga188-5" d="M19,14H18v1h1Z"/><path class="ga188-5" d="M17,14H16v1h1Z"/><path class="ga188-6" d="M15,21V20H14v1Z"/><path class="ga188-7" d="M0,9V33H6V27H7V26H8V25h2V24h2V22H11V21H10V20H9V17H8V15H9V11h1V10h1V9h7v1h1v1h1v4h1v2H20v3H19v1H18v1H17v2h2v1h2V24H20V23h1V22h1v1h1v1H22v1h1v8h6V0H0Z"/><rect class="ga188-8" x="21" y="22" width="1" height="1"/><rect class="ga188-8" x="20" y="23" width="1" height="1"/><rect class="ga188-8" x="22" y="23" width="1" height="1"/><path class="ga188-8" d="M22,24.5V24H21v1h1Z"/><rect class="ga188-9" x="21" y="23" width="1" height="1"/></svg>