<svg xmlns="http://www.w3.org/2000/svg" viewBox="0 0 29 33"><defs><style>polygon,rect,path{shape-rendering:crispedges;}.hb198-1{fill:#d4a122;}.hb198-2{fill:#000000;}.hb198-3{fill:#b2622b;}.hb198-4{fill:#4922aa;}.hb198-5{fill:#ffffff;}.hb198-6{fill:#fad000;}.hb198-7{fill:#99ce09;}</style></defs><path class="hb198-1" d="M0,33H6V27H7V26H8V25h2V23h1V22h1V21H11V20H10V19H9V16H8V15H9V11h1V9h1V7h1V6H11V5h2V6h2V7h1V9h2v1h1v1h1v4h1v1H20v3H19v1H18v1H17v1h1v1h1v2h2v1h1v1h1v6h6V0H0Z"/><path class="hb198-2" d="M23,27H22v6h1V27Z"/><path class="hb198-3" d="M22,27H21v6h1V27Z"/><rect class="hb198-2" x="21" y="26" width="1" height="1"/><path class="hb198-2" d="M21,27H20v6h1V27Z"/><path class="hb198-3" d="M20,27h1V26H19V25H18v1H17v1H16v1H13V27H12V26H11V25H10v1H8v1H9v6h5V29h1v4h5V27Zm-8,2H11V28h1Zm6,0H17V28h1Z"/><path class="hb198-3" d="M16,25V23H13v2h3Z"/><path class="hb198-2" d="M20,26h1V25H19v1Z"/><rect class="hb198-2" x="17" y="28" width="1" height="1"/><path class="hb198-2" d="M15,29H14v4h1V29Z"/><rect class="hb198-2" x="11" y="28" width="1" height="1"/><path class="hb198-2" d="M10,25H8v1h2Z"/><path class="hb198-2" d="M9,27H8v6H9V27Z"/><path class="hb198-3" d="M8,27H7v6H8V27Z"/><rect class="hb198-2" x="7" y="26" width="1" height="1"/><path class="hb198-2" d="M7,27H6v6H7V27Z"/><rect class="hb198-2" x="20" y="15" width="1" height="1"/><path class="hb198-2" d="M19,15h1V11H19v4Z"/><path class="hb198-3" d="M13,22h3V21h1V20h1V19h1V16h1V15H19V11H18V10H16v1H14V10H11v1H10v4H9v1h1v3h1v1h1v1h1Zm4-3H16v1H13V19h3V18h1Zm-5-4H11V14h1V13h1V12h3v1h1v1h1v1H16v1H15v1H14V16H13V15Z"/><path class="hb198-2" d="M19,17v2h1V16H19Z"/><rect class="hb198-2" x="18" y="10" width="1" height="1"/><rect class="hb198-2" x="18" y="19" width="1" height="1"/><rect class="hb198-2" x="17" y="20" width="1" height="1"/><path class="hb198-2" d="M12,10h1V9H11v1Z"/><path class="hb198-2" d="M17,10h1V9H16v1Z"/><rect class="hb198-2" x="11" y="20" width="1" height="1"/><path class="hb198-2" d="M11,10H10v1h1Z"/><rect class="hb198-2" x="10" y="19" width="1" height="1"/><path class="hb198-2" d="M10,14V11H9v4h1Z"/><path class="hb198-2" d="M10,16H9v3h1V16Z"/><rect class="hb198-2" x="8" y="15" width="1" height="1"/><path class="hb198-4" d="M18,15V14H17v1Z"/><rect class="hb198-4" x="16" y="13" width="1" height="1"/><rect class="hb198-2" x="14" y="14" width="1" height="1"/><path class="hb198-5" d="M13,16h3V15h1V14H16V13H13v1H12v1h1Zm1-2h1v1H14Z"/><path class="hb198-4" d="M16,13V12H13v1h3Z"/><rect class="hb198-4" x="12" y="13" width="1" height="1"/><rect class="hb198-4" x="11" y="14" width="1" height="1"/><path class="hb198-2" d="M14,17h1V16H14Z"/><path class="hb198-2" d="M18,25h1V23H18v2Z"/><rect class="hb198-2" x="17" y="25" width="1" height="1"/><path class="hb198-6" d="M17,24v1h1V24Z"/><path class="hb198-5" d="M17,24h1V23H17Z"/><rect class="hb198-2" x="16" y="26" width="1" height="1"/><rect class="hb198-5" x="16" y="25" width="1" height="1"/><rect class="hb198-6" x="15" y="26" width="1" height="1"/><path class="hb198-2" d="M14,27H13v1h3V27H14Z"/><path class="hb198-5" d="M14,27h1V26H14Z"/><rect class="hb198-6" x="13" y="26" width="1" height="1"/><path class="hb198-2" d="M14,26h2V25H13v1Z"/><rect class="hb198-2" x="12" y="26" width="1" height="1"/><rect class="hb198-5" x="12" y="25" width="1" height="1"/><path class="hb198-2" d="M12,24v1h1V23h3v2h1V23h1V22H17V21H16v1H13V21H12v1H11v1h1Z"/><rect class="hb198-2" x="11" y="25" width="1" height="1"/><rect class="hb198-6" x="11" y="24" width="1" height="1"/><rect class="hb198-5" x="11" y="23" width="1" height="1"/><path class="hb198-2" d="M11,24V23H10v2h1Z"/><rect class="hb198-2" x="13" y="19" width="3" height="1"/><rect class="hb198-2" x="16" y="18" width="1" height="1"/><path class="hb198-7" d="M13,10h1v1h2V7H15V6H13V5H11V6h1V7H11V9h2Z"/><path class="hb198-7" d="M11,9H10v1h1Z"/><rect class="hb198-7" x="10" y="9" width="1" height="1"></rect></svg>