<svg xmlns="http://www.w3.org/2000/svg" viewBox="0 0 29 33"><defs><style>polygon,rect,path{shape-rendering:crispedges;}.za181-1{fill:#397d98;}.za181-2{fill:#000000;}.za181-3{fill:#5a2de2;}.za181-4{fill:#e8b795;}.za181-5{fill:#cc3232;}.za181-6{fill:#ffffff;}.za181-7{fill:#b23b00;}.za181-8{fill:#dfdfdf;}.za181-9{fill:#a89969;}.za181-10{fill:#f62;}.za181-11{fill:#f9db00;}.za181-12{fill:#1261ff;}.za181-13{fill:#00c650;}.za181-14{fill:#e20026;}</style></defs><path class="za181-1" d="M0,33H6V27H7V26H8V25h2V24h1V23h1V22H11V21H10V20H9V16H8V15H9V13H7V12H5V11H7v1H9V10h1V8h1V7h2V8h3V7h2V8h1V7h1V6h2V8H21V9H20v3h2V11h2v1H22v1H20v2h1v1H20v4H19v1H18v1H17v1h1v1h1v1h1V22h3v3h1v1H23v7h6V0H0Z"/><path class="za181-2" d="M7,31V27H6v6H7V31Z"/><path class="za181-3" d="M7,32v1H8V32Z"/><path class="za181-3" d="M7,30v1H8V29H7Z"/><path class="za181-3" d="M8,28V27H7v1Z"/><rect class="za181-2" x="7" y="26" width="1" height="1"/><path class="za181-2" d="M9,31V27H8v6H9V31Z"/><path class="za181-3" d="M17,32V31h1V30h1v1h1V29H19V28h1V26H19v1H18V26H15v1H14V26H11v1H10V26H8v1H9v1h1v1H9v2h1V30h1v1h1v1H11v1h3V32H13V31h1V30h1v1h1v1H15v1h3V32Zm-2-3H13v1H12V29H11V28h1V27h1v1h3V27h1v1h1v1H17v1H16V29Z"/><rect class="za181-3" x="19" y="32" width="1" height="1"/><path class="za181-3" d="M9,32v1h1V32Z"/><path class="za181-2" d="M10,25H8v1h2Z"/><rect class="za181-3" x="12" y="24" width="1" height="1"/><path class="za181-2" d="M11,26h2V25H12V24h1V23H11v1H10v1h1Z"/><rect class="za181-2" x="13" y="24" width="1" height="1"/><rect class="za181-2" x="14" y="32" width="1" height="1"/><rect class="za181-2" x="14" y="30" width="1" height="1"/><path class="za181-2" d="M14,28v1h1V28Z"/><path class="za181-2" d="M14,25v2h1V25Z"/><rect class="za181-2" x="15" y="24" width="1" height="1"/><path class="za181-4" d="M14,25h1V24h1V23H13v1h1Z"/><rect class="za181-3" x="16" y="24" width="1" height="1"/><path class="za181-2" d="M16,24h1v1H16v1h2V25h1V24H18V23H16Z"/><path class="za181-2" d="M21,31V26H20v7h1V31Z"/><path class="za181-3" d="M21,28h1V27H21Z"/><path class="za181-3" d="M21,30v1h1V29H21Z"/><path class="za181-3" d="M21,32v1h1V32Z"/><path class="za181-2" d="M23,26H22v7h1V26Z"/><path class="za181-5" d="M12,32V31H11V30H10v1H9v1h1v1h1V32Z"/><path class="za181-5" d="M13,28V27H12v1H11v1h1v1h1V29h1V28Z"/><polygon class="za181-5" points="10 27 11 27 11 26 11 25 10 25 10 26 10 27"/><path class="za181-5" d="M15,25v1h1V25Z"/><path class="za181-5" d="M13,25v1h1V25Z"/><path class="za181-5" d="M17,30V29h1V28H17V27H16v1H15v1h1v1Z"/><path class="za181-5" d="M18,26v1h1V25H18Z"/><path class="za181-5" d="M7,29H8V28H7Z"/><path class="za181-5" d="M10,29V28H9v1Z"/><path class="za181-5" d="M21,29h1V28H21Z"/><path class="za181-5" d="M19,29h1V28H19Z"/><path class="za181-5" d="M21,32h1V31H21Z"/><path class="za181-5" d="M7,32H8V31H7Z"/><polygon class="za181-5" points="16 32 16 31 15 31 14 31 13 31 13 32 14 32 15 32 16 32"/><path class="za181-5" d="M20,32V31H19V30H18v1H17v1h1v1h1V32Z"/><rect class="za181-2" x="20" y="15" width="1" height="1"/><path class="za181-4" d="M10,17h1v1h5v1h1V18h1V17h1V16h1V15H16V14h3V13H10v1h3v1H9v1h1Zm4-1h1v1H14Z"/><path class="za181-2" d="M10,14V13h9v1H17v1h3V13h2V12H20V11H19v1H10V11H9v1H7v1H9v2h1Z"/><rect class="za181-2" x="8" y="15" width="1" height="1"/><rect class="za181-2" x="14" y="16" width="1" height="1"/><path class="za181-6" d="M11,15V14H10v1Z"/><path class="za181-6" d="M16,14v1h1V14Z"/><path class="za181-2" d="M12,15h1V14H11v1Z"/><path class="za181-7" d="M15,18H13v1h3V18Z"/><path class="za181-7" d="M14,23h3V22h1V21h1V20h1V16H19v1H18v1H17v1H16v1H13V19H12V18H11V17H10V16H9v4h1v1h1v1h1v1h2Z"/><rect class="za181-2" x="13" y="19" width="3" height="1"/><path class="za181-2" d="M12,18v1h1V18Z"/><path class="za181-2" d="M24,11H22v1h2Z"/><path class="za181-8" d="M21,8h1V7H21Z"/><rect class="za181-8" x="20" y="8" width="1" height="1"/><path class="za181-9" d="M19,11h1V10H19Z"/><path class="za181-6" d="M18,11h1V10h1V8h1V7h1V6H20V7H19V8H18v3Z"/><path class="za181-9" d="M17,11H10v1h9V11H17Z"/><path class="za181-2" d="M11,11h7V7H16V8H13V7H11V8H10v3Z"/><path class="za181-9" d="M10,10H9v1h1Z"/><path class="za181-2" d="M6,11H5v1H7V11Z"/><path class="za181-10" d="M23,23V22H22v1Z"/><path class="za181-6" d="M22,23V22H21v1Z"/><path class="za181-11" d="M21,23H20v1h1Z"/><path class="za181-12" d="M22,25h1V24H22Z"/><path class="za181-10" d="M21,24H20v1h1Z"/><rect class="za181-13" x="21" y="23" width="1" height="1"/><path class="za181-11" d="M21,24v1h1V24Z"/><path class="za181-14" d="M22,24h1V23H22Z"/><path class="za181-14" d="M21,22H20v1h1Z"/><path class="za181-4" d="M21,26v1h1V26h1V25H20v1Z"/><rect class="za181-2" x="23" y="25" width="1" height="1"/><path class="za181-2" d="M20,26V25H19v1Z"/></svg>