<svg xmlns="http://www.w3.org/2000/svg" viewBox="0 0 29 33"><defs><style>polygon,rect,path{shape-rendering:crispedges;}.ca102-1{fill:#d4a122;}.ca102-2{fill:#000000;}.ca102-3{fill:#e8b795;}.ca102-4{fill:#c6e5e4;}.ca102-5{fill:#c6e5e4;}.ca102-6{fill:#ffffff;}.ca102-7{fill:#af8423;}.ca102-8{fill:#99004d;}.ca102-9{fill:#dfdfdf;}.ca102-10{fill:#a89969;}</style></defs><path class="ca102-1" d="M6,32V27H7V26H8V25h2V22H9V16H8V15H9V13H7V12H5V11H7v1H9V10h1V8h1V7h2V8h3V7h2V8h1V7h1V6h2V8H21V9H20v3h2V11h2v1H22v1H20v2h1v1H20v8H19v1h2v1h1v1h1v6h6V0H0V33H6Z"/><path class="ca102-2" d="M23,27H22v6h1V27Z"/><rect class="ca102-2" x="21" y="26" width="1" height="1"/><path class="ca102-3" d="M22,27H21v6h1V27Z"/><rect class="ca102-3" x="20" y="26" width="1" height="1"/><path class="ca102-2" d="M21,27H20v6h1V27Z"/><path class="ca102-2" d="M20,26h1V25H19v1Z"/><rect class="ca102-4" x="18" y="30" width="1" height="1"/><rect class="ca102-4" x="18" y="32" width="1" height="1"/><rect class="ca102-4" x="10" y="32" width="1" height="1"/><path class="ca102-4" d="M14,31v1h1V30H14Z"/><path class="ca102-4" d="M17,30h1V29h1v1h1V26H19v1H18V26H17v1H16v1H13V27H12V26H11V25H10v1H9v4h1V29h1v1h1v3h1V29h2v1h1v2H15v1h2V30Z"/><rect class="ca102-4" x="10" y="30" width="1" height="1"/><rect class="ca102-2" x="17" y="25" width="1" height="1"/><rect class="ca102-2" x="16" y="26" width="1" height="1"/><path class="ca102-2" d="M13,27v1h3V27H13Z"/><path class="ca102-2" d="M13,23h3v1h1V21H16v1H13V21H12v3h1Z"/><path class="ca102-3" d="M17,24H16V23H13v1H12v2h1v1h3V26h1V24Z"/><rect class="ca102-2" x="12" y="26" width="1" height="1"/><path class="ca102-2" d="M10,26V25H8v1h2Z"/><path class="ca102-3" d="M9,27V26H8v1Z"/><path class="ca102-2" d="M9,30V27H8v6H9V30Z"/><rect class="ca102-2" x="7" y="26" width="1" height="1"/><path class="ca102-3" d="M8,27H7v6H8V27Z"/><path class="ca102-2" d="M7,27H6v6H7V27Z"/><path class="ca102-5" d="M20,30H19v1H18V30H17v3h1V32h1v1h1V30Z"/><rect class="ca102-5" x="18" y="29" width="1" height="1"/><path class="ca102-5" d="M16,32V30H15v2Z"/><path class="ca102-5" d="M14,32V30h1V29H13v4h2V32Z"/><path class="ca102-5" d="M12,30H11v1H10V30H9v3h1V32h1v1h1V30Z"/><rect class="ca102-5" x="10" y="29" width="1" height="1"/><rect class="ca102-2" x="20" y="15" width="1" height="1"/><path class="ca102-3" d="M18,15H16V13H11v1h2v1H10v4h1v1h1v1h1v1h3V21h1V20h1V19h1V16h1V15H18Zm-4,1h1v1H14Zm2,4H13V19H12V18h1v1h3Z"/><path class="ca102-3" d="M18,14h1V13H17v1Z"/><path class="ca102-2" d="M19,17v2h1V16H19Z"/><rect class="ca102-2" x="18" y="19" width="1" height="1"/><rect class="ca102-2" x="17" y="20" width="1" height="1"/><rect class="ca102-2" x="11" y="20" width="1" height="1"/><rect class="ca102-2" x="10" y="19" width="1" height="1"/><path class="ca102-2" d="M10,18V16H9v3h1Z"/><rect class="ca102-2" x="8" y="15" width="1" height="1"/><rect class="ca102-2" x="14" y="16" width="1" height="1"/><path class="ca102-6" d="M11,14H10v1h1Z"/><path class="ca102-6" d="M16,14v1h1V14Z"/><path class="ca102-2" d="M12,15h1V14H11v1Z"/><path class="ca102-2" d="M17,14v1h2V14H17Z"/><path class="ca102-7" d="M17,14V13H16v1Z"/><rect class="ca102-2" x="13" y="19" width="3" height="1"/><rect class="ca102-2" x="12" y="18" width="1" height="1"/><path class="ca102-8" d="M19,20H18v1H17v4h1v2h1V24h1V19H19Z"/><path class="ca102-8" d="M19,14v1h1V13H19Z"/><path class="ca102-8" d="M10,15V14h1V13H9v3h1Z"/><path class="ca102-8" d="M11,26h1V21H11V20H10V19H9v3h1v3h1Z"/><path class="ca102-2" d="M24,11H22v1h2Z"/><path class="ca102-9" d="M21,8h1V7H21Z"/><path class="ca102-2" d="M16,13h6V12H20V11H19v1H10V11H9v1H7v1h9Z"/><rect class="ca102-9" x="20" y="8" width="1" height="1"/><path class="ca102-10" d="M19,11h1V10H19Z"/><path class="ca102-6" d="M18,11h1V10h1V8h1V7h1V6H20V7H19V8H18v3Z"/><path class="ca102-10" d="M17,11H10v1h9V11H17Z"/><path class="ca102-2" d="M11,11h7V7H16V8H13V7H11V8H10v3Z"/><path class="ca102-10" d="M10,10H9v1h1Z"/><path class="ca102-2" d="M6,11H5v1H7V11Z"/></svg>