<svg xmlns="http://www.w3.org/2000/svg" viewBox="0 0 29 33"><defs><style>polygon,rect,path{shape-rendering:crispedges;}polygon,rect,path{shape-rendering:crispedges;}.lb19-1{fill:#a9a9a9;}.lb19-2{fill:#000000;}.lb19-3{fill:#bbbbbb;}.lb19-4{fill:#04263a;}.lb19-5{fill:#0068f5;}.lb19-6{fill:#008dff;}.lb19-7{fill:#008b4c;}.lb19-8{fill:#ffffff;}.lb19-9{fill:#004480;}.lb19-10{fill:#333333;}.lb19-11{fill:#e8b795;}.lb19-12{fill:#8e4717;}.lb19-13{fill:#c8a715;}.lb19-14{fill:#8e4717;}.lb19-15{fill:#004a77;}.lb19-16{fill:#455054;}.lb19-17{fill:#ff1f4a;}.lb19-18{fill:#ffce00;}</style></defs><path class="lb19-1" d="M28,25H27v1h2V24H28Z"/><path class="lb19-2" d="M0,0V23H4V22H5v9H6V22H7V20H5v1H2V17H5V16H8V12H9V11h1V10h1V9h7v1h1v1h1v2h1v5H20v2H19v1h2v1h5v1h3V0H0ZM27,5V7H22V6H21V5H20V4h1V3h1V2h3V3h1V4h1Z"/><path class="lb19-2" d="M10,21V20H9V18H8v3h2Z"/><path class="lb19-1" d="M27,32H26V31H23v2h5V32Z"/><path class="lb19-1" d="M25,27v1H24v2h4v1h1V27H25Z"/><path class="lb19-3" d="M4,32V31H5V26H2V25H1V24H0v2H1v1H3v1H4v2H2v1H0v2H3V32Z"/><path class="lb19-3" d="M2,24H4v1H5V22H4v1H1v1Z"/><path class="lb19-3" d="M27,24H26v1H25v1H23v5h3v1h2v1h1V31H28V30H24V28h1V27h4V26H27V25h1V24h1V23H27Z"/><polygon class="lb19-3" points="10 22 10 21 9 21 8 21 8 22 9 22 10 22"/><path class="lb19-3" d="M7,32H6v1H8V32Z"/><path class="lb19-3" d="M21,25V24H19v1h2Z"/><path class="lb19-3" d="M20,22h1V21H19v1Z"/><path class="lb19-3" d="M9,24H8v1h2V24Z"/><path class="lb19-3" d="M22,23H21v1h1v1H21v1h2V24h1V23h2V22H23v1Z"/><path class="lb19-4" d="M26,7h1V6H26Z"/><path class="lb19-5" d="M26,5V6h1V4H26Z"/><path class="lb19-5" d="M25,6V7h1V6Z"/><rect class="lb19-6" x="25" y="5" width="1" height="1"/><rect class="lb19-7" x="25" y="4" width="1" height="1"/><rect class="lb19-8" x="25" y="3" width="1" height="1"/><path class="lb19-1" d="M24,24H23v2h2V25h1V24h1V23H24Z"/><path class="lb19-7" d="M24,5H23V6h2V5Z"/><rect class="lb19-8" x="24" y="4" width="1" height="1"/><rect class="lb19-5" x="24" y="3" width="1" height="1"/><path class="lb19-9" d="M24,6H23V7h2V6Z"/><rect class="lb19-6" x="23" y="4" width="1" height="1"/><path class="lb19-1" d="M22,27h1V26H22Z"/><path class="lb19-4" d="M22,6V7h1V6Z"/><rect class="lb19-6" x="22" y="5" width="1" height="1"/><rect class="lb19-5" x="22" y="4" width="1" height="1"/><path class="lb19-7" d="M23,4h1V3h1V2H23V3H22V4Z"/><path class="lb19-6" d="M23,2H22V3h1Z"/><rect class="lb19-1" x="21" y="24" width="1" height="1"/><rect class="lb19-9" x="21" y="5" width="1" height="1"/><rect class="lb19-7" x="21" y="4" width="1" height="1"/><rect class="lb19-8" x="21" y="3" width="1" height="1"/><rect class="lb19-5" x="20" y="4" width="1" height="1"/><path class="lb19-1" d="M19,22v2h2V23h2V22H19Z"/><rect class="lb19-1" x="17" y="22" width="1" height="1"/><path class="lb19-1" d="M9,24h1V22H9Z"/><rect class="lb19-1" x="11" y="22" width="1" height="1"/><path class="lb19-1" d="M6,31H4v1H3v1H6V31Z"/><path class="lb19-1" d="M2,30H4V28H3V27H1V26H0v5H2Z"/><path class="lb19-1" d="M4,24H1v1H2v1H5V25H4Z"/><path class="lb19-1" d="M1,23H0v1H1Z"/><path class="lb19-2" d="M23,27H22v6h1V27Z"/><path class="lb19-10" d="M22,27H21v6h1V27Z"/><path class="lb19-2" d="M21,26v1h1V26Z"/><path class="lb19-2" d="M21,27H20v6h1V27Z"/><path class="lb19-10" d="M20,27h1V26H19V25H18v1H16V25H15v2H14V25H13v1H11V25H10v1H8v1H9v6h5V32h1v1h5V27Zm-5,4H14V30h1Zm0-2H14V28h1Z"/><path class="lb19-2" d="M20,25H19v1h2V25Z"/><path class="lb19-2" d="M18,24V23H17v2H16v1h2V25h1V24Z"/><rect class="lb19-2" x="15" y="24" width="1" height="1"/><rect class="lb19-2" x="14" y="32" width="1" height="1"/><rect class="lb19-2" x="14" y="30" width="1" height="1"/><rect class="lb19-2" x="14" y="28" width="1" height="1"/><path class="lb19-2" d="M14,26v1h1V25H14Z"/><rect class="lb19-2" x="13" y="24" width="1" height="1"/><path class="lb19-11" d="M16,24V23H13v1h1v1h1V24Z"/><path class="lb19-2" d="M12,24V23H11v1H10v1h1v1h2V25H12Z"/><path class="lb19-2" d="M9,27H8V26h2V25H8V24H7v7H6v1H8v1H9V27Z"/><path class="lb19-10" d="M7,24H6v7H7Z"/><rect class="lb19-11" x="9" y="15" width="1" height="1"/><path class="lb19-11" d="M18,13H16v1h2Z"/><polygon class="lb19-11" points="13 21 14 21 14 22 15 22 15 21 16 21 16 20 13 20 13 21"/><rect class="lb19-11" x="19" y="15" width="1" height="1"/><rect class="lb19-11" x="11" y="11" width="1" height="1"/><rect class="lb19-11" x="11" y="13" width="1" height="1"/><path class="lb19-11" d="M12,19V18h2v1h1V18h2v1h1V15H17v2H16V15H15V11H14v1H13v2h1v2h1v1H14V16H13V15H11v4Z"/><rect class="lb19-2" x="19" y="16" width="1" height="1"/><rect class="lb19-2" x="9" y="14" width="1" height="1"/><rect class="lb19-2" x="9" y="16" width="1" height="1"/><rect class="lb19-2" x="14" y="16" width="1" height="1"/><path class="lb19-12" d="M15,18v1h1V18Z"/><path class="lb19-12" d="M19,18H18v1H16v2H15v1H14V21H13V19h1V18H12v1H11V18H10v4h2v1h5V22h2V18Z"/><rect class="lb19-12" x="19" y="17" width="1" height="1"/><rect class="lb19-12" x="9" y="17" width="1" height="1"/><path class="lb19-13" d="M19,23V22H18v1Z"/><path class="lb19-12" d="M18,24h1V23H18Z"/><path class="lb19-13" d="M17,24V23H16v1Z"/><path class="lb19-12" d="M17,24H16v1h1Z"/><path class="lb19-13" d="M13,24V23H12v1Z"/><rect class="lb19-12" x="12" y="24" width="1" height="1"/><path class="lb19-13" d="M11,23V22H10v1Z"/><path class="lb19-12" d="M10,24h1V23H10Z"/><path class="lb19-14" d="M18,12H16v1h2Z"/><rect class="lb19-14" x="11" y="12" width="1" height="1"/><path class="lb19-8" d="M13,15V14H12v1Z"/><path class="lb19-2" d="M12,14H11v1h1Z"/><path class="lb19-2" d="M18,15V14H16v1h2Z"/><path class="lb19-2" d="M14,19H13v1h3V19H14Z"/><path class="lb19-2" d="M16,18v1h1V18Z"/><path class="lb19-15" d="M9,18V14h1v4h1V11h1v3h1V12h1V11h1v4h1V12h2v6h1V15h1v3h1V13H20V11H19V10H18V9H11v1H10v1H9v1H8v6Z"/><path class="lb19-15" d="M10,20V18H9v2Z"/><path class="lb19-15" d="M13,16h1V14H13v2Z"/><path class="lb19-15" d="M17,17V15H16v2Z"/><path class="lb19-15" d="M19,19v1h1V18H19Z"/><path class="lb19-11" d="M8,24V22H6v2H8Z"/><path class="lb19-16" d="M8,21V20H7v2H8Z"/><path class="lb19-2" d="M9,22H8v2H9Z"/><path class="lb19-17" d="M8,18V16H7v1H6v1H7v1H6V18H5V17H2v4H5V20H8Z"/><path class="lb19-17" d="M6,16H5v1H6Z"/><rect class="lb19-18" x="5" y="17" width="1" height="1"/><path class="lb19-18" d="M7,17V16H6v1Z"/><path class="lb19-18" d="M6.8,19H7V18H6v1Z"/></svg>