<svg xmlns="http://www.w3.org/2000/svg" viewBox="0 0 29 33"><defs><style>polygon,rect,path{shape-rendering:crispedges;}.ib222-1{fill:#397d98;}.ib222-2{fill:#000000;}.ib222-3{fill:#efcaaf;}.ib222-4{fill:#b23b00;}.ib222-5{fill:#b23b00;}.ib222-6{fill:#c8a715;}.ib222-7{fill:#ffffff;}.ib222-8{fill:#5a2de2;}.ib222-9{fill:#f9e100;}</style></defs><path class="ib222-1" d="M6,32V27H7V26H8V25h2V20H9V16H8V15H9V11h1V10h1V9h7v1h1v1h1v4h1v1H20v4H19v5h2v1h1v1h1v6h6V0H0V33H6Z"/><path class="ib222-1" d="M18,24V22H17v2Z"/><path class="ib222-1" d="M12,22H11v2h1V22Z"/><path class="ib222-2" d="M23,27H22v6h1V27Z"/><path class="ib222-3" d="M22,27H21v6h1V27Z"/><rect class="ib222-2" x="21" y="26" width="1" height="1"/><path class="ib222-2" d="M21,27H20v6h1V27Z"/><path class="ib222-3" d="M20,27h1V26H19V25H16V23H13v2H10v1H8v1H9v6h5V29h1v4h5V27Zm-8,2H11V28h1Zm6,0H17V28h1Z"/><path class="ib222-2" d="M20,26h1V25H19v1Z"/><rect class="ib222-2" x="17" y="28" width="1" height="1"/><path class="ib222-2" d="M17,24v1h2V24H17Z"/><path class="ib222-2" d="M15,29H14v4h1V29Z"/><rect class="ib222-2" x="11" y="28" width="1" height="1"/><path class="ib222-2" d="M12,24H10v1h2Z"/><path class="ib222-2" d="M10,25H8v1h2Z"/><path class="ib222-2" d="M9,27H8v6H9V27Z"/><path class="ib222-3" d="M8,27H7v6H8V27Z"/><rect class="ib222-2" x="7" y="26" width="1" height="1"/><path class="ib222-2" d="M7,27H6v6H7V27Z"/><rect class="ib222-2" x="20" y="15" width="1" height="1"/><rect class="ib222-3" x="9" y="15" width="1" height="1"/><path class="ib222-3" d="M18,16H16V15H13v1H10v2h1v1h1V18h5v1h1V18h1V16Zm-3,1H14V16h1Z"/><rect class="ib222-3" x="19" y="15" width="1" height="1"/><path class="ib222-3" d="M11,13V12h2v1h1v1h1V13h2V12h2V11H18V10H11v1H10v2Z"/><polygon class="ib222-3" points="13 21 14 21 14 22 15 22 15 21 16 21 16 20 13 20 13 21"/><path class="ib222-2" d="M19,17h1V16H19Z"/><path class="ib222-2" d="M10,16H9v1h1Z"/><rect class="ib222-2" x="8" y="15" width="1" height="1"/><rect class="ib222-2" x="14" y="16" width="1" height="1"/><path class="ib222-4" d="M13,12H11v1h2Z"/><path class="ib222-4" d="M19,12H17v1h2Z"/><path class="ib222-5" d="M12,22v1h5V22h2V20h1V17H19v1H18v1H16v2H15v1H14V21H13V19H11V18H10V17H9v3h1v2h2Z"/><path class="ib222-6" d="M18,23h1V22H18Z"/><path class="ib222-5" d="M18,24h1V23H18Z"/><path class="ib222-6" d="M17,23H16v1h1Z"/><path class="ib222-5" d="M16,24v1h1V24Z"/><path class="ib222-6" d="M12,24h1V23H12Z"/><path class="ib222-5" d="M12,25h1V24H12Z"/><path class="ib222-6" d="M11,22H10v1h1Z"/><path class="ib222-5" d="M11,23H10v1h1Z"/><path class="ib222-2" d="M12,18v1h1V18Z"/><path class="ib222-2" d="M16,18v1h1V18Z"/><path class="ib222-2" d="M15,18H14v1H13v1h3V19H15Z"/><path class="ib222-7" d="M14,18H13v1h1Z"/><path class="ib222-7" d="M15,18v1h1V18Z"/><path class="ib222-8" d="M19,13v1h1V11H19v2Z"/><rect class="ib222-8" x="18" y="10" width="1" height="1"/><path class="ib222-8" d="M18,10V9H11v1h7Z"/><rect class="ib222-8" x="10" y="10" width="1" height="1"/><path class="ib222-8" d="M10,13V11H9v3h1Z"/><path class="ib222-9" d="M13,16V15h1V14H10v2h3Z"/><path class="ib222-9" d="M16,15v1h3V14H15v1Z"/><path class="ib222-2" d="M19,14V13H15v1h4Z"/><path class="ib222-2" d="M14,14V13H10v1h4Z"/><path class="ib222-2" d="M19,15h1V14H19Z"/><path class="ib222-2" d="M10,14H9v1h1Z"/><path class="ib222-2" d="M15,15V14H14v1Z"/></svg>