<svg xmlns="http://www.w3.org/2000/svg" viewBox="0 0 29 33"><defs><style>polygon,rect,path{shape-rendering:crispedges;}.ba242-1{fill:#31a09d;}.ba242-2{fill:#000000;}.ba242-3{fill:#b2622b;}.ba242-4{fill:#508e5d;}.ba242-5{fill:#ffffff;}.ba242-6{fill:#473a35;}.ba242-7{fill:#ff1f4a;}</style></defs><path class="ba242-1" d="M0,33H8V32H6V31H5V23H4V20H5V19H7v1H8v1H9v2H8v2h2V24h2V21H11V20H10V19H9V16H8V15H9V11h1V10h1V9h7v1h1v1h1v4h1v1H20v3H19v1H18v1H17v3h2v1h2v1h1v1h1v6h6V0H0Z"/><path class="ba242-2" d="M23,27H22v6h1V27Z"/><rect class="ba242-2" x="21" y="26" width="1" height="1"/><path class="ba242-3" d="M22,27H21v6h1V27Z"/><rect class="ba242-3" x="20" y="26" width="1" height="1"/><path class="ba242-2" d="M21,27H20v6h1V27Z"/><path class="ba242-2" d="M20,26h1V25H19v1Z"/><path class="ba242-4" d="M20,27V26H19V25H18v1H17v1H16v1H13V27H12V26H11V25H10v1H9v7H20V27Z"/><path class="ba242-2" d="M13,23h3v1h1V21H16v1H13V21H12v3h1Z"/><path class="ba242-3" d="M8,27H9V26H8Z"/><path class="ba242-2" d="M9,27H8V26h2V25H8V23H7v8H6v1H8v1H9V27Z"/><path class="ba242-3" d="M7,30V23H8V21H7V20H5v3H6v8H7Z"/><path class="ba242-2" d="M6,23H5v8H6V23Z"/><path class="ba242-2" d="M11,26h1V24H10v1h1Z"/><rect class="ba242-2" x="12" y="26" width="1" height="1"/><rect class="ba242-2" x="16" y="26" width="1" height="1"/><path class="ba242-2" d="M18,26V25h1V24H17v2Z"/><path class="ba242-2" d="M13,27v1h3V27H13Z"/><path class="ba242-3" d="M13,26v1h3V26h1V24H16V23H13v1H12v2Z"/><rect class="ba242-2" x="20" y="15" width="1" height="1"/><path class="ba242-3" d="M13,22h3V21h1V20h1V19h1V16h1V15H16V14h2V13H16V12h2v1h1V11H18V10H11v1H10v2h1V12h2v1H11v1h2v1H9v1h1v3h1v1h1v1h1Zm1-6h1v1H14Zm-2,3V18h5v1H16v1H13V19Z"/><path class="ba242-2" d="M19,17v2h1V16H19Z"/><rect class="ba242-2" x="18" y="19" width="1" height="1"/><rect class="ba242-2" x="17" y="20" width="1" height="1"/><rect class="ba242-2" x="11" y="20" width="1" height="1"/><rect class="ba242-2" x="10" y="19" width="1" height="1"/><path class="ba242-2" d="M10,14H9v1h1Z"/><path class="ba242-2" d="M10,16H9v3h1V16Z"/><rect class="ba242-2" x="8" y="15" width="1" height="1"/><rect class="ba242-2" x="14" y="16" width="1" height="1"/><path class="ba242-5" d="M10,15h1V14H10Z"/><path class="ba242-5" d="M16,14v1h1V14Z"/><path class="ba242-2" d="M12,15h1V14H11v1Z"/><path class="ba242-2" d="M18,14H17v1h3V14H18Z"/><path class="ba242-6" d="M19,13H18v1h1Z"/><rect class="ba242-6" x="16" y="12" width="2" height="1"/><rect class="ba242-6" x="10" y="13" width="1" height="1"/><rect class="ba242-6" x="11" y="12" width="2" height="1"/><polygon class="ba242-2" points="13 20 16 20 16 19 17 19 17 18 12 18 12 19 13 19 13 20"/><path class="ba242-2" d="M9,23V21H8v2Z"/><rect class="ba242-2" x="7" y="20" width="1" height="1"/><rect class="ba242-2" x="5" y="19" width="2" height="1"/><path class="ba242-2" d="M5,20H4v3H5V20Z"/><path class="ba242-7" d="M19,14h1V11H19v3Z"/><rect class="ba242-7" x="18" y="10" width="1" height="1"/><path class="ba242-7" d="M18,10V9H11v1h7Z"/><rect class="ba242-7" x="10" y="10" width="1" height="1"/><path class="ba242-7" d="M10,13V11H9v3h1Z"/></svg>