<svg xmlns="http://www.w3.org/2000/svg" viewBox="0 0 29 33"><defs><style>polygon,rect,path{shape-rendering:crispedges;}.ba248-1{fill:#d4a122;}.ba248-2{fill:#000000;}.ba248-3{fill:#e8b795;}.ba248-4{fill:#ff1d99;}.ba248-5{fill:#ffffff;}.ba248-6{fill:#663228;}.ba248-7{fill:#663228;}.ba248-8{fill:#34e0cb;}.ba248-9{fill:#fad000;}.ba248-10{fill:#508e91;}</style></defs><path class="ba248-1" d="M0,33H6V27H7V26H8V25h2V24h2V21H9V20H8V19H9V17H8V14H9V11h1V10h1V9h2V7h1V6h2V5h2V6H17V7h1v3h1v1h1v3h1v3H20v2h1v1H20v1H17v3h2v1h1V24h1V23h1v1h1v9h6V0H0Z"/><path class="ba248-2" d="M7,27H6v6H7V27Z"/><rect class="ba248-2" x="7" y="26" width="1" height="1"/><path class="ba248-3" d="M8,27H7v6H8V27Z"/><rect class="ba248-3" x="8" y="26" width="1" height="1"/><path class="ba248-2" d="M9,27H8v6H9V27Z"/><path class="ba248-2" d="M10,26V25H8v1h2Z"/><path class="ba248-4" d="M20,27H19V25H18v1H17v1H16v1H13V27H12V26H11V25H10v1H9v7H20V27Z"/><path class="ba248-2" d="M13,23h3v1h1V21H16v1H13V21H12v3h1Z"/><path class="ba248-2" d="M21,27H20v6h1V27Z"/><path class="ba248-3" d="M22,24H21v1H20v2h1v6h1V24Z"/><path class="ba248-2" d="M23,24H22v9h1V24Z"/><path class="ba248-2" d="M11,26h1V24H10v1h1Z"/><rect class="ba248-2" x="12" y="26" width="1" height="1"/><rect class="ba248-2" x="16" y="26" width="1" height="1"/><path class="ba248-2" d="M18,26V25h1V24H17v2Z"/><path class="ba248-2" d="M13,27v1h3V27H13Z"/><path class="ba248-3" d="M13,26v1h3V26h1V24H16V23H13v1H12v2Z"/><path class="ba248-2" d="M20,16h1V15H20Z"/><path class="ba248-2" d="M19,13v1h1V11H19v2Z"/><path class="ba248-3" d="M11,13V12h2v2h3V13h1V12h2V11H18V10H15v1H13V10H11v1H10v2Z"/><path class="ba248-3" d="M13,22h3V21h1V19h1V18h1V17H16V16H15v1H14V16H13v1H10v1h1v1h1V18h1v1h3v1H13V19H12v2h1Z"/><rect class="ba248-3" x="14" y="15" width="1" height="1"/><path class="ba248-3" d="M19,16V15H16v1h3Z"/><path class="ba248-3" d="M12,15H10v1h3V15Z"/><rect class="ba248-2" x="18" y="10" width="1" height="1"/><path class="ba248-2" d="M17,20v1h1V20Z"/><path class="ba248-2" d="M16,10h2V9H16Z"/><path class="ba248-2" d="M13,9H11v1h2Z"/><path class="ba248-2" d="M11,20v1h1V20Z"/><rect class="ba248-2" x="10" y="10" width="1" height="1"/><path class="ba248-2" d="M10,13V11H9v3h1Z"/><path class="ba248-2" d="M9,15H8v1H9Z"/><rect class="ba248-2" x="14" y="16" width="1" height="1"/><path class="ba248-5" d="M11,14H10v1h1Z"/><path class="ba248-5" d="M17,15V14H16v1Z"/><path class="ba248-2" d="M11,14v1h2V14H11Z"/><path class="ba248-2" d="M17,14v1h2V14H17Z"/><path class="ba248-6" d="M13,12H11v1h2Z"/><path class="ba248-6" d="M19,12H17v1h2Z"/><path class="ba248-7" d="M19,16v2H18v1H17v1h1v1h2V20h1V19H20V16Z"/><path class="ba248-7" d="M12,20V19H11V18H10V16H9v3H8v1H9v1h2V20Z"/><rect class="ba248-2" x="13" y="19" width="3" height="1"/><rect class="ba248-2" x="12" y="18" width="1" height="1"/><path class="ba248-2" d="M20,27V25H19v2Z"/><rect class="ba248-2" x="20" y="24" width="1" height="1"/><rect class="ba248-2" x="21" y="23" width="1" height="1"/><path class="ba248-8" d="M13,11h2V10h1V9h2V7H17V6h1V5H16V6H14V7H13v4Z"/><path class="ba248-9" d="M20,17h1V16H20Z"/><path class="ba248-9" d="M8,16v1H9V16Z"/><path class="ba248-10" d="M19,15v1h1V15h1V14H19Z"/><path class="ba248-10" d="M18,16H16v1h3V16Z"/><path class="ba248-10" d="M12,14h1V13H10v1h2Z"/><path class="ba248-10" d="M18,14h1V13H16v1h2Z"/><path class="ba248-10" d="M16,14H13v2h1V15h1v1h1V14Z"/><path class="ba248-10" d="M10,16v1h3V16H10Z"/><path class="ba248-10" d="M9,16h1V14H8v1H9Z"/><rect class="ba248-8" x="18" y="9" width="1" height="1"></rect></svg>