<svg xmlns="http://www.w3.org/2000/svg" viewBox="0 0 29 33"><defs><style>polygon,rect,path{shape-rendering:crispedges;}.na191-1{fill:#6b4f99;}.na191-2{fill:#000000;}.na191-3{fill:#ffffff;}.na191-4{fill:#333333;}.na191-5{fill:#e8b795;}.na191-6{fill:#ffffff;}.na191-7{fill:#5e362f;}.na191-8{fill:#5e362f;}</style></defs><path class="na191-1" d="M0,33H6V27H7V26H8V25h2V24h2V21H11V20H10V19H9V16H8V15H9V11h1V10h1V9h7v1h1v1h1v4h1v1H20v3H19v1H18v1H17v3h2v1h2v1h1v1h1v6h6V0H0Z"/><path class="na191-2" d="M23,27H22v6h1V27Z"/><rect class="na191-2" x="21" y="26" width="1" height="1"/><path class="na191-3" d="M22,27H21v6h1V27Z"/><path class="na191-2" d="M21,27H20v6h1V27Z"/><path class="na191-3" d="M20,27h1V26H19V25H18v8h2V27Z"/><path class="na191-2" d="M20,26h1V25H19v1Z"/><path class="na191-2" d="M18,25h1V24H17v1H16v1h1v7h1V25Z"/><path class="na191-4" d="M17,26H16v1H13V26H12v7h5V26Z"/><path class="na191-2" d="M13,26v1h3V26H13Z"/><path class="na191-2" d="M13,23h3v1h1V21H16v1H13V21H12v3h1Z"/><path class="na191-5" d="M13,25v1h3V25h1V24H16V23H13v1H12v1Z"/><path class="na191-2" d="M12,26h1V25H12V24H10v1h1v8h1V26Z"/><path class="na191-3" d="M11,25H10v1H8v1H9v6h2V25Z"/><path class="na191-2" d="M10,25H8v1h2Z"/><path class="na191-2" d="M9,27H8v6H9V27Z"/><rect class="na191-2" x="7" y="26" width="1" height="1"/><path class="na191-3" d="M8,27H7v6H8V27Z"/><path class="na191-2" d="M7,27H6v6H7V27Z"/><rect class="na191-2" x="20" y="15" width="1" height="1"/><path class="na191-2" d="M19,14v1h1V11H19v3Z"/><path class="na191-5" d="M13,22h3V21h1V20h1V19h1V16h1V15H16V14h2V13H16V12h2v1h1V11H18V10H11v1H10v1h2v1h1v2H9v1h1v3h1v1h1v1h1Zm1-6h1v1H14Zm-2,3V18h5v1H16v1H13V19Z"/><path class="na191-5" d="M10,14h2V13H10Z"/><path class="na191-2" d="M19,17v2h1V16H19Z"/><rect class="na191-2" x="18" y="10" width="1" height="1"/><rect class="na191-2" x="18" y="19" width="1" height="1"/><rect class="na191-2" x="17" y="20" width="1" height="1"/><path class="na191-2" d="M18,10V9H11v1h7Z"/><rect class="na191-2" x="11" y="20" width="1" height="1"/><rect class="na191-2" x="10" y="10" width="1" height="1"/><rect class="na191-2" x="10" y="19" width="1" height="1"/><path class="na191-2" d="M10,14V11H9v4h1Z"/><path class="na191-2" d="M10,16H9v3h1V16Z"/><rect class="na191-2" x="8" y="15" width="1" height="1"/><rect class="na191-2" x="14" y="16" width="1" height="1"/><path class="na191-6" d="M12,15h1V14H12Z"/><path class="na191-6" d="M10,14v1h1V14Z"/><path class="na191-6" d="M18,14v1h1V14Z"/><path class="na191-6" d="M16,14v1h1V14Z"/><path class="na191-2" d="M11,14v1h1V14Z"/><path class="na191-2" d="M17,14v1h1V14Z"/><path class="na191-7" d="M19,13H18v1h1Z"/><rect class="na191-7" x="16" y="12" width="2" height="1"/><path class="na191-7" d="M13,14V13H12v1Z"/><path class="na191-7" d="M12,13V12H10v1Z"/><path class="na191-8" d="M16,19V18H12v1h4Z"/><path class="na191-2" d="M13,20h3V19H13Z"/><path class="na191-2" d="M17,19V18H16v1Z"/></svg>