<svg xmlns="http://www.w3.org/2000/svg" viewBox="0 0 29 33"><defs><style>polygon,rect,path{shape-rendering:crispedges;}.fa165-1{fill:#7a982c;}.fa165-2{fill:#000000;}.fa165-3{fill:#b2622b;}.fa165-4{fill:#68aaad;}.fa165-5{fill:#68aaad;}.fa165-6{fill:#ffffff;}.fa165-7{fill:#663228;}.fa165-8{fill:#0068ff;}.fa165-9{fill:#cc3232;}.fa165-10{fill:#455054;}.fa165-11{fill:#00774c;}</style></defs><path class="fa165-1" d="M0,33H8V32H6V31H5V22H6V21H7V20H5v1H2V17H5V16H8V13H9V10h1V9h1V8h7V9h1v1h1v3h1v6H20v1H18v1H17v3h2v1h2v1h1v1h1v6h6V0H0Z"/><path class="fa165-1" d="M11,24h1V21H11V20H9V19H8v3H9v2H8v1h2V24Z"/><rect class="fa165-2" x="21" y="26" width="1" height="1"/><path class="fa165-2" d="M23,27H22v3H21V27H20v6h1V31h1v2h1V27Z"/><path class="fa165-2" d="M20,26h1V25H19v1Z"/><path class="fa165-2" d="M18,25h1V24H17v1Z"/><path class="fa165-2" d="M11,24H10v1h2V24Z"/><path class="fa165-2" d="M9,31V27H8V26h2V25H8V24H7v7H6v1H8v1H9V31Z"/><path class="fa165-2" d="M6,22H5v9H6V22Z"/><path class="fa165-3" d="M7,30V24H8V22H6v9H7Z"/><path class="fa165-4" d="M19,32V31H18v1H17V29h1V28h1v1h1V27h1V26H19V25H17v1H16v1H13V26H12V25H10v1H8v1H9v2h1V28h1v1h1v3H11V31H10v1H9v1H20V32Zm-3-2v1H15v1H13V28h2v1h1Z"/><path class="fa165-4" d="M15,29H14v2h1V29Z"/><rect class="fa165-4" x="10" y="29" width="1" height="1"/><rect class="fa165-4" x="18" y="29" width="1" height="1"/><path class="fa165-2" d="M13,26v1h3V26H13Z"/><path class="fa165-3" d="M16,23H13v1H12v1h1v1h3V25h1V24H16Z"/><path class="fa165-4" d="M21,28v2h1V27H21Z"/><path class="fa165-3" d="M21,31v2h1V31Z"/><rect class="fa165-2" x="12" y="25" width="1" height="1"/><rect class="fa165-2" x="16" y="25" width="1" height="1"/><path class="fa165-5" d="M19,30H18V29H17v3h1V31h1v1h1V29H19Z"/><rect class="fa165-5" x="18" y="28" width="1" height="1"/><path class="fa165-5" d="M15,30v1h1V29H15Z"/><path class="fa165-5" d="M14,30V29h1V28H13v4h2V31H14Z"/><path class="fa165-5" d="M9,32h1V31h1v1h1V29H11v1H10V29H9v3Z"/><rect class="fa165-5" x="10" y="28" width="1" height="1"/><rect class="fa165-3" x="11" y="13" width="1" height="1"/><path class="fa165-3" d="M19,19V16h1V15H16V14h2V13H13v2H9v1h1v3h1v1h1v1h1v1h3V21h1V20h1V19Zm-5-3h1v1H14Zm3,3H16v1H13V19h3V18h1Z"/><rect class="fa165-3" x="14" y="10" width="1" height="1"/><path class="fa165-2" d="M20,16H19v3h1V16Z"/><path class="fa165-2" d="M18,19v1h1V19Z"/><rect class="fa165-2" x="17" y="20" width="1" height="1"/><path class="fa165-2" d="M16,22H13V21H12v3h1V23h3v1h1V21H16Z"/><rect class="fa165-2" x="11" y="20" width="1" height="1"/><path class="fa165-2" d="M11,20V19H10v1Z"/><path class="fa165-2" d="M10,18V16H9v3h1Z"/><rect class="fa165-2" x="14" y="16" width="1" height="1"/><path class="fa165-6" d="M12,15h1V14H12Z"/><path class="fa165-6" d="M11,14H10v1h1Z"/><path class="fa165-6" d="M18,15h1V14H18Z"/><path class="fa165-6" d="M16,14v1h1V14Z"/><path class="fa165-2" d="M12,15V14H11v1Z"/><path class="fa165-2" d="M17,14v1h1V14Z"/><rect class="fa165-7" x="18" y="13" width="1" height="1"/><path class="fa165-7" d="M13,14V13H12v1Z"/><rect class="fa165-2" x="13" y="19" width="3" height="1"/><rect class="fa165-2" x="16" y="18" width="1" height="1"/><path class="fa165-8" d="M8,19H9V15h1V14h1V13H8v6Z"/><path class="fa165-8" d="M19,14v1h1v4h1V13H19Z"/><path class="fa165-8" d="M14,11V10h1v1h5V10H19V9H18V8H11V9H10v1H9v1h5Z"/><path class="fa165-8" d="M10,20V19H9v1Z"/><path class="fa165-8" d="M19,20h1V19H19Z"/><path class="fa165-6" d="M20,12V11H9v1H20Z"/><path class="fa165-9" d="M12,13h8V12H9v1h3Z"/><path class="fa165-10" d="M8,22V20H7v2Z"/><path class="fa165-2" d="M7,21H6v1H7Z"/><path class="fa165-2" d="M9,22H8v2H9Z"/><path class="fa165-11" d="M6,16H5v1H6v1H5V17H2v4H5V20H3V18H4v1H5v1H7V16Z"/><path class="fa165-6" d="M8,19V16H7v4H8Z"/><path class="fa165-6" d="M4,19V18H3v2H5V19Z"/><rect class="fa165-6" x="5" y="17" width="1" height="1"/></svg>