<svg xmlns="http://www.w3.org/2000/svg" viewBox="0 0 29 33"><defs><style>polygon,rect,path{shape-rendering:crispedges;}.hb163-1{fill:#6b4f99;}.hb163-2{fill:#000000;}.hb163-3{fill:#b2622b;}.hb163-4{fill:#ffffff;}.hb163-5{fill:#6f7032;}.hb163-6{fill:#9b8100;}.hb163-7{fill:#0079bc;}.hb163-8{fill:#cc3232;}.hb163-9{fill:#455054;}.hb163-10{fill:#ffce00;}.hb163-11{fill:#ff1f4a;}</style></defs><path class="hb163-1" d="M8,32H6V31H5V22H6V21H7V20H5v1H2V17H5V16H8V15H9V11h1V10h1V9h7v1h1v1h1v4h1v1H20v3H19v1H18v1H17v3h2v1h2v1h1v1h1v6h6V0H0V33H8Z"/><path class="hb163-1" d="M8,18v4H9v2H8v1h2V24h2V21H11V20H10V19H9V16H8v2Z"/><path class="hb163-2" d="M6,22H5v9H6V22Z"/><path class="hb163-2" d="M23,27H22v6h1V27Z"/><path class="hb163-3" d="M22,27H21v6h1V27Z"/><rect class="hb163-2" x="21" y="26" width="1" height="1"/><path class="hb163-2" d="M21,27H20v6h1V27Z"/><path class="hb163-3" d="M20,27h1V26H19V25H17V24H16V23H13v1H12v1H10v1H8v1H9v6h5V29h1v4h5V27Zm-8,2H11V28h1Zm6,0H17V28h1Z"/><path class="hb163-2" d="M20,26h1V25H19v1Z"/><rect class="hb163-2" x="17" y="28" width="1" height="1"/><path class="hb163-2" d="M18,25h1V24H17v1Z"/><path class="hb163-2" d="M15,29H14v4h1V29Z"/><rect class="hb163-2" x="11" y="28" width="1" height="1"/><path class="hb163-2" d="M10,25h2V24H10Z"/><path class="hb163-2" d="M9,27H8V26h2V25H8V24H7v7H6v1H8v1H9V27Z"/><path class="hb163-3" d="M7,30V24H8V22H6v9H7Z"/><rect class="hb163-2" x="20" y="15" width="1" height="1"/><rect class="hb163-3" x="19" y="15" width="1" height="1"/><rect class="hb163-3" x="12" y="19" width="1" height="1"/><path class="hb163-3" d="M10,16v3h2V18h5v1h2V17H18V16H16V15H15v2H14V15H9v1Z"/><rect class="hb163-3" x="13" y="20" width="1" height="1"/><rect class="hb163-3" x="15" y="20" width="1" height="1"/><rect class="hb163-3" x="16" y="19" width="1" height="1"/><path class="hb163-2" d="M19,17v2h1V16H19Z"/><path class="hb163-2" d="M18,20h1V19H18Z"/><rect class="hb163-2" x="17" y="20" width="1" height="1"/><path class="hb163-2" d="M16,22H13V21H12v3h1V23h3v1h1V21H16Z"/><rect class="hb163-2" x="11" y="20" width="1" height="1"/><path class="hb163-2" d="M10,19v1h1V19Z"/><path class="hb163-2" d="M10,16H9v3h1V16Z"/><rect class="hb163-2" x="8" y="15" width="1" height="1"/><path class="hb163-2" d="M14,17h1V16H14Z"/><path class="hb163-4" d="M12,14v1h1V14Z"/><path class="hb163-4" d="M10,14v1h1V14Z"/><path class="hb163-2" d="M11,14v1h1V14Z"/><rect class="hb163-5" x="12" y="13" width="1" height="1"/><path class="hb163-6" d="M17,19v1h1V19Z"/><rect class="hb163-6" x="16" y="20" width="1" height="1"/><path class="hb163-6" d="M15,20H14v1H13v1h3V21H15Z"/><path class="hb163-6" d="M14,19h2V18H12v1h2Z"/><rect class="hb163-6" x="12" y="20" width="1" height="1"/><path class="hb163-6" d="M12,19H11v1h1Z"/><path class="hb163-2" d="M15,19H13v1h3V19Z"/><path class="hb163-2" d="M17,19V18H16v1Z"/><path class="hb163-7" d="M19,11V10H18V9H11v1H10v1h9Z"/><path class="hb163-7" d="M10,14h2V13H9v2h1Z"/><path class="hb163-7" d="M13,13v2h1v1h1V15h1v1h2v1h1V15h1V13H13Z"/><path class="hb163-4" d="M20,11H9v1H20Z"/><path class="hb163-8" d="M13,13h7V12H9v1h4Z"/><path class="hb163-9" d="M8,22V20H7v2Z"/><path class="hb163-2" d="M7,21H6v1H7Z"/><path class="hb163-2" d="M9,22H8v2H9Z"/><path class="hb163-2" d="M5,17H2v1H5Z"/><path class="hb163-2" d="M8,16H5v1H8Z"/><path class="hb163-10" d="M8,19H5v1H8Z"/><path class="hb163-10" d="M2,21H5V20H2Z"/><path class="hb163-11" d="M8,19V17H5v1H2v2H5V19Z"/></svg>