<svg xmlns="http://www.w3.org/2000/svg" viewBox="0 0 29 33"><defs><style>polygon,rect,path{shape-rendering:crispedges;}.hb226-1{fill:#6b4f99;}.hb226-2{fill:#000000;}.hb226-3{fill:#b2622b;}.hb226-4{fill:#ffffff;}.hb226-5{fill:#317f03;}.hb226-6{fill:#317f03;}.hb226-7{fill:#99ce09;}</style></defs><path class="hb226-1" d="M0,33H6V27H7V26H8V25h2V24h2V21H9V20H8V19H9V16H8V15H9V11h1V10h1V9h7v1h2v5h1v1H20v3h1v1H20v1H17v3h2v1h2v1h1v1h1v6h6V0H0Z"/><path class="hb226-2" d="M23,27H22v6h1V27Z"/><path class="hb226-3" d="M22,27H21v6h1V27Z"/><rect class="hb226-2" x="21" y="26" width="1" height="1"/><path class="hb226-2" d="M21,27H20v6h1V27Z"/><path class="hb226-3" d="M20,27h1V26H19V25H17V24H16V23H13v1H12v1H10v1H8v1H9v6h5V29h1v4h5V27Zm-8,2H11V28h1Zm6,0H17V28h1Z"/><path class="hb226-2" d="M20,26h1V25H19v1Z"/><rect class="hb226-2" x="17" y="28" width="1" height="1"/><path class="hb226-2" d="M18,25h1V24H17v1Z"/><path class="hb226-2" d="M15,29H14v4h1V29Z"/><path class="hb226-2" d="M13,23h3v1h1V21H16v1H13V21H12v3h1Z"/><rect class="hb226-2" x="11" y="28" width="1" height="1"/><path class="hb226-2" d="M12,24H10v1h2Z"/><path class="hb226-2" d="M10,25H8v1h2Z"/><path class="hb226-2" d="M9,27H8v6H9V27Z"/><path class="hb226-3" d="M8,27H7v6H8V27Z"/><rect class="hb226-2" x="7" y="26" width="1" height="1"/><path class="hb226-2" d="M7,27H6v6H7V27Z"/><rect class="hb226-2" x="20" y="15" width="1" height="1"/><path class="hb226-2" d="M19,13v2h1V12H19Z"/><rect class="hb226-3" x="9" y="15" width="1" height="1"/><rect class="hb226-3" x="18" y="12" width="1" height="1"/><rect class="hb226-3" x="17" y="10" width="1" height="1"/><path class="hb226-3" d="M13,22h3V21h1V19h1V18h1V16h1V15H16V14H14v2h1v1H14V16H13v1H11V16H10v2h1v1h1V18h1v1h3v1H13V19H12v2h1Z"/><rect class="hb226-3" x="11" y="10" width="1" height="1"/><path class="hb226-3" d="M10,13h3v1h1V13h2V12h1V11H16V10H13v1H12v1H11V11H10v2Z"/><path class="hb226-2" d="M17,20v1h1V20Z"/><path class="hb226-2" d="M11,20v1h1V20Z"/><rect class="hb226-2" x="8" y="15" width="1" height="1"/><rect class="hb226-2" x="14" y="16" width="1" height="1"/><path class="hb226-4" d="M18,14v1h1V14Z"/><path class="hb226-4" d="M16,14v1h1V14Z"/><path class="hb226-2" d="M17,14v1h1V14Z"/><path class="hb226-5" d="M10,13v1h3V13Z"/><path class="hb226-5" d="M18,14h1V13H16v1h2Z"/><path class="hb226-6" d="M19,17v1H18v1H17v1h1v1h2V20h1V19H20V16H19Z"/><path class="hb226-6" d="M12,20V19H11V18H10V16H9v3H8v1H9v1h2V20Z"/><rect class="hb226-2" x="13" y="19" width="3" height="1"/><rect class="hb226-2" x="12" y="18" width="1" height="1"/><path class="hb226-7" d="M19,12h1V11H19Z"/><path class="hb226-7" d="M19,11V10H18v1Z"/><path class="hb226-7" d="M12,11h1V10h3v1h1V10h1V9H11v1h1Z"/><rect class="hb226-7" x="17" y="11" width="1" height="1"/><rect class="hb226-7" x="11" y="11" width="1" height="1"/><rect class="hb226-7" x="10" y="10" width="1" height="1"/><path class="hb226-7" d="M10,11H9v1h1Z"/><path class="hb226-2" d="M10,16h1v1h2V16h1V14H10V12H9v3h1Z"/><rect class="hb226-2" x="14" y="13" width="2" height="1"/><path class="hb226-2" d="M18,12H16v1h2Z"/><rect class="hb226-2" x="18" y="11" width="1" height="1"/><path class="hb226-2" d="M20,11V10H19v1Z"/></svg>