<svg xmlns="http://www.w3.org/2000/svg" viewBox="0 0 29 33"><defs><style>polygon,rect,path{shape-rendering:crispedges;}.hb50-1{fill:#29834f;}.hb50-2{fill:#000000;}.hb50-3{fill:#b2622b;}.hb50-4{fill:#ffffff;}.hb50-5{fill:#b23b00;}.hb50-6{fill:#b23b00;}.hb50-7{fill:#b23b00;}</style></defs><path class="hb50-1" d="M6,32V27H7V26H8V25h2V24h2V21H9V20H8V19H9V16H8V14H9V12H8v1H7V12H8V11H9V10h1V9h2V8h5V9h2v1h1v1h1v1h1v1H21V12H20v2h1v2H20v3h1v1H20v1H17v3h2v1h2v1h1v1h1v6h6V0H0V33H6Z"/><path class="hb50-2" d="M23,27H22v6h1V27Z"/><path class="hb50-3" d="M22,27H21v6h1V27Z"/><rect class="hb50-2" x="21" y="26" width="1" height="1"/><path class="hb50-2" d="M21,27H20v6h1V27Z"/><path class="hb50-3" d="M20,27h1V26H19V25H17V24H16V23H13v1H12v1H10v1H8v1H9v6h5V29h1v4h5V27Zm-8,2H11V28h1Zm6,0H17V28h1Z"/><path class="hb50-2" d="M20,26h1V25H19v1Z"/><rect class="hb50-2" x="17" y="28" width="1" height="1"/><path class="hb50-2" d="M18,25h1V24H17v1Z"/><path class="hb50-2" d="M15,29H14v4h1V29Z"/><path class="hb50-2" d="M13,23h3v1h1V21H16v1H13V21H12v3h1Z"/><rect class="hb50-2" x="11" y="28" width="1" height="1"/><path class="hb50-2" d="M12,24H10v1h2Z"/><path class="hb50-2" d="M10,25H8v1h2Z"/><path class="hb50-2" d="M9,27H8v6H9V27Z"/><path class="hb50-3" d="M8,27H7v6H8V27Z"/><rect class="hb50-2" x="7" y="26" width="1" height="1"/><path class="hb50-2" d="M7,27H6v6H7V27Z"/><path class="hb50-2" d="M20,16h1V15H20Z"/><rect class="hb50-2" x="19" y="14" width="1" height="1"/><path class="hb50-3" d="M18,14h1V13H17v1Z"/><path class="hb50-3" d="M13,22h3V21h1V19h1V18h1V16h1V15H16V13h1V12H15V11H14v1H13v1H11v1h2v1H9v1h1v2h1v1h1V18h1v1h3v1H13V19H12v2h1Zm2-5H14V16h1Z"/><path class="hb50-2" d="M17,20v1h1V20Z"/><path class="hb50-2" d="M11,20v1h1V20Z"/><path class="hb50-2" d="M10,15V14H9v1Z"/><path class="hb50-2" d="M8,15v1H9V15Z"/><rect class="hb50-2" x="14" y="16" width="1" height="1"/><path class="hb50-4" d="M13,15V14H12v1Z"/><path class="hb50-4" d="M10,15h1V14H10Z"/><path class="hb50-4" d="M18,14v1h1V14Z"/><path class="hb50-4" d="M16,14v1h1V14Z"/><path class="hb50-2" d="M12,15V14H11v1Z"/><path class="hb50-2" d="M17,14v1h1V14Z"/><rect class="hb50-5" x="10" y="13" width="1" height="1"/><path class="hb50-5" d="M12,13h1V12H12Z"/><path class="hb50-5" d="M17,13H16v1h1Z"/><path class="hb50-6" d="M19,17v1H18v1H17v1h1v1h2V20h1V19H20V16H19Z"/><path class="hb50-6" d="M12,20V19H11V18H10V16H9v3H8v1H9v1h2V20Z"/><rect class="hb50-2" x="13" y="19" width="3" height="1"/><rect class="hb50-2" x="12" y="18" width="1" height="1"/><rect class="hb50-7" x="21" y="12" width="1" height="1"/><path class="hb50-7" d="M10,13h2V12h2V11h1v1h2v1h2v1h1V12h1V11H20V10H19V9H17V8H12V9H10v1H9v1H8v1H9v2h1Z"/><path class="hb50-7" d="M21,15V14H20v1Z"/><path class="hb50-7" d="M9,14H8v1H9Z"/><rect class="hb50-7" x="7" y="12" width="1" height="1"/></svg>