<svg xmlns="http://www.w3.org/2000/svg" viewBox="0 0 29 33"><defs><style>polygon,rect,path{shape-rendering:crispedges;}.xa114-1{fill:#e55b35;}.xa114-2{fill:#000000;}.xa114-3{fill:#317f03;}.xa114-4{fill:#6d3e35;}.xa114-5{fill:#45ba00;}.xa114-6{fill:#ffffff;}.xa114-7{fill:#893a1f;}.xa114-8{fill:#4922aa;}</style></defs><path class="xa114-1" d="M0,33H6V27H7V26H8V25h2V22h1V20H10V19H9V18H8V12H9V10h1V9h1V8h7V9h1v1h1v5h1v1H20v3H19v1H18v2h1v3h1V24h1V23h1v1h1v9h6V0H0Z"/><path class="xa114-2" d="M23,24H22v9h1V24Z"/><path class="xa114-2" d="M7,30V27H6v6H7V30Z"/><rect class="xa114-2" x="7" y="26" width="1" height="1"/><path class="xa114-3" d="M7,31H8V30H7Z"/><path class="xa114-3" d="M8,28V27H7v1Z"/><path class="xa114-2" d="M21,30V27H20v4H14V27H13v4H9V27H8v6H9V32H20v1h1V30Z"/><path class="xa114-2" d="M10,25H8v1h2Z"/><path class="xa114-2" d="M11,24V22H10v3h1Z"/><path class="xa114-3" d="M9,28h4V27H9Z"/><path class="xa114-3" d="M9,31h4V30H9Z"/><polygon class="xa114-3" points="12 24 11 24 11 25 13 25 13 24 12 24"/><rect class="xa114-2" x="13" y="24" width="1" height="1"/><path class="xa114-2" d="M15,26V25H14v2h1Z"/><path class="xa114-4" d="M15,24h1V23H13v1h1v1h1Z"/><rect class="xa114-2" x="15" y="24" width="1" height="1"/><path class="xa114-2" d="M18,25h1V22H18v3Z"/><path class="xa114-3" d="M15,27H14v1h6V27H15Z"/><path class="xa114-3" d="M14,31h6V30H14Z"/><path class="xa114-3" d="M18,25V24H16v1Z"/><path class="xa114-3" d="M21,31h1V30H21Z"/><path class="xa114-3" d="M21,28h1V27H21Z"/><rect class="xa114-2" x="20" y="15" width="1" height="1"/><polygon class="xa114-4" points="18 14 19 14 19 13 17 13 17 14 18 14"/><path class="xa114-4" d="M12,21h1v1h3V21h1V20h1V19h1V16h1V15H16V13h1V12h2V11H18V10H16v1H14v1H13v1H11v1h2v1H9v1h1v3h1v1h1Zm2-5h1v1H14Zm-2,2h1v1h3v1H13V19H12Z"/><path class="xa114-2" d="M19,17v2h1V16H19Z"/><rect class="xa114-2" x="18" y="19" width="1" height="1"/><path class="xa114-2" d="M12,23v1h1V23h3v1h1V22h1V20H17v1H16v1H13V21H12V20H11v2h1Z"/><rect class="xa114-2" x="10" y="19" width="1" height="1"/><path class="xa114-2" d="M10,16H9v3h1V16Z"/><rect class="xa114-2" x="14" y="16" width="1" height="1"/><path class="xa114-5" d="M19,32H9v1H20V32Z"/><path class="xa114-5" d="M14,30h6V28H14Z"/><path class="xa114-5" d="M9,29v1h4V28H9Z"/><path class="xa114-5" d="M9,27h5V25H10v1H8v1Z"/><path class="xa114-5" d="M16,25H15v2h4V25H16Z"/><path class="xa114-5" d="M7,29v1H8V28H7Z"/><path class="xa114-5" d="M7,31v2H8V31Z"/><path class="xa114-5" d="M21,31v2h1V31Z"/><path class="xa114-5" d="M21,29v1h1V28H21Z"/><path class="xa114-5" d="M12,24V22H11v2Z"/><path class="xa114-5" d="M17,23v1h1V22H17Z"/><path class="xa114-6" d="M13,15V14H12v1Z"/><path class="xa114-6" d="M10,15h1V14H10Z"/><path class="xa114-6" d="M18,14v1h1V14Z"/><path class="xa114-6" d="M16,14v1h1V14Z"/><path class="xa114-2" d="M12,15V14H11v1Z"/><path class="xa114-2" d="M17,14v1h1V14Z"/><path class="xa114-7" d="M17,13H16v1h1Z"/><rect class="xa114-7" x="17" y="12" width="2" height="1"/><rect class="xa114-2" x="13" y="19" width="3" height="1"/><rect class="xa114-2" x="12" y="18" width="1" height="1"/><path class="xa114-4" d="M21,27h1V24H21v1H20v2Z"/><path class="xa114-2" d="M20,27V25H19v2Z"/><rect class="xa114-2" x="20" y="24" width="1" height="1"/><rect class="xa114-2" x="21" y="23" width="1" height="1"/><path class="xa114-8" d="M9,15h1V14h1V13h2V12h1V11h2V10h2v1h1v4h1V10H19V9H18V8H11V9H10v1H9v2H8v6H9V15Z"/></svg>