<svg xmlns="http://www.w3.org/2000/svg" viewBox="0 0 29 33"><defs><style>polygon,rect,path{shape-rendering:crispedges;}.va114-1{fill:#6b4f99;}.va114-2{fill:#000000;}.va114-3{fill:#8c7850;}.va114-4{fill:#ce8452;}.va114-5{fill:#cc2f76;}.va114-6{fill:#ffffff;}.va114-7{fill:#5e362f;}.va114-8{fill:#5e362f;}.va114-9{fill:#db5800;}.va114-10{fill:#455054;}.va114-11{fill:#0068ff;}.va114-12{fill:#ffce00;}.va114-13{fill:#ff1f4a;}</style></defs><path class="va114-1" d="M8,19v3H9v2H8v1h2V22h1V20H10V19H9V16H8v3Z"/><path class="va114-1" d="M0,33H8V32H6V31H5V22H6V21H7V20H5v1H2V17H5V16H8V15H9V10h1V9h1V8h7V9h1v1h1v5h1v1H20v3H19v1H18v2h1v3h2v1h1v1h1v6h6V0H0Z"/><path class="va114-2" d="M6,29V22H5v9H6V29Z"/><path class="va114-2" d="M23,27H22v6h1V27Z"/><path class="va114-3" d="M21,31v1h1V30H21Z"/><path class="va114-3" d="M21,28h1V27H21Z"/><rect class="va114-2" x="21" y="26" width="1" height="1"/><path class="va114-2" d="M21,31V27H20v4H14V27H13v4H9V27H8V26h2V25H8V24H7v7H6v1H8v1H9V32H20v1h1V31Z"/><path class="va114-3" d="M13,32v1h1V32Z"/><path class="va114-3" d="M10,32v1h1V32Z"/><path class="va114-3" d="M19,32v1h1V32Z"/><path class="va114-3" d="M16,32v1h1V32Z"/><path class="va114-2" d="M20,26h1V25H19v1Z"/><path class="va114-2" d="M18,24v1h1V22H18v2Z"/><path class="va114-3" d="M17,23h1V22H17Z"/><path class="va114-3" d="M18,24H16v1h1v1h1v2h1v1h1V27H19V25H18Z"/><path class="va114-3" d="M18,30V28H17V27H16V25H15v3h1v1h1v2h2V30Z"/><path class="va114-3" d="M15,30V28H14v3h2V30Z"/><rect class="va114-2" x="15" y="24" width="1" height="1"/><path class="va114-2" d="M15,26V25H14v2h1Z"/><rect class="va114-2" x="13" y="24" width="1" height="1"/><path class="va114-4" d="M14,25h1V24h1V23H13v1h1Z"/><path class="va114-2" d="M11,24V22H10v3h1Z"/><path class="va114-3" d="M9,30v1h1V30Z"/><path class="va114-3" d="M12,25V24H11v2h1v2h1V25Z"/><path class="va114-3" d="M12,23V22H11v1Z"/><path class="va114-3" d="M12,29V28H11V27H10V26H9v2h1v1h1v2h2V30H12Z"/><path class="va114-3" d="M6,26v2H7V25H6Z"/><path class="va114-3" d="M7,30H6v1H7Z"/><rect class="va114-2" x="20" y="15" width="1" height="1"/><path class="va114-2" d="M19,15h1V14H19Z"/><path class="va114-4" d="M10,16v3h1v1h1v1h1v1h3V21h1V20h1V19h1V16h1V15H16V14h2V13H16V12h2v1h1V11H18V10H17v1H14V10H13v1H12V10H11v1H10v1h2v1h1v2H9v1Zm4,0h1v1H14Zm-2,2h5v1H16v1H13V19H12Z"/><path class="va114-4" d="M10,14h2V13H10Z"/><path class="va114-2" d="M19,17v2h1V16H19Z"/><rect class="va114-2" x="18" y="19" width="1" height="1"/><path class="va114-2" d="M17,21H16v1H13V21H12V20H11v2h1v2h1V23h3v1h1V22h1V20H17Z"/><rect class="va114-2" x="10" y="19" width="1" height="1"/><path class="va114-2" d="M10,16H9v3h1V16Z"/><rect class="va114-2" x="8" y="15" width="1" height="1"/><rect class="va114-2" x="14" y="16" width="1" height="1"/><path class="va114-5" d="M19,28H18v2h1v1h1V29H19Z"/><path class="va114-5" d="M21,29v1h1V28H21Z"/><path class="va114-5" d="M21,32v1h1V32Z"/><path class="va114-5" d="M17,27v1h1V26H17V25H16v2Z"/><path class="va114-5" d="M19,26v1h2V26H19Z"/><path class="va114-5" d="M18,32H17v1h2V32Z"/><path class="va114-5" d="M16,29V28H15v2h1v1h1V29Z"/><path class="va114-5" d="M15,27H14v1h1Z"/><path class="va114-5" d="M13,25v2h1V25Z"/><path class="va114-5" d="M15,32H14v1h2V32Z"/><path class="va114-5" d="M12,29v1h1V28H12Z"/><rect class="va114-5" x="12" y="24" width="1" height="1"/><path class="va114-5" d="M11,27v1h1V26H11V25H10v2Z"/><path class="va114-5" d="M12,32H11v1h2V32Z"/><path class="va114-5" d="M10,29V28H9v2h1v1h1V29Z"/><path class="va114-5" d="M6,25H7V24H6Z"/><path class="va114-5" d="M6,29v1H7V28H6Z"/><path class="va114-5" d="M9,32v1h1V32Z"/><path class="va114-5" d="M8,26v1H9V26Z"/><path class="va114-5" d="M11,24h1V23H11Z"/><path class="va114-5" d="M18,23H17v1h1Z"/><path class="va114-6" d="M18,14v1h1V14Z"/><path class="va114-6" d="M12,15h1V14H12Z"/><path class="va114-2" d="M17,14H16v1h2V14Z"/><path class="va114-2" d="M12,15V14H9v1h3Z"/><rect class="va114-7" x="18" y="13" width="1" height="1"/><rect class="va114-7" x="16" y="12" width="2" height="1"/><path class="va114-7" d="M13,14V13H12v1Z"/><rect class="va114-7" x="10" y="12" width="2" height="1"/><path class="va114-8" d="M16,19V18H12v1h4Z"/><path class="va114-2" d="M13,20h3V19H13Z"/><path class="va114-2" d="M17,19V18H16v1Z"/><path class="va114-9" d="M10,13V11h1V10h1v1h1V10h1v1h3V10h1v1h1v3h1V10H19V9H18V8H11V9H10v1H9v4h1Z"/><path class="va114-4" d="M7,24H8V22H6v2Z"/><path class="va114-10" d="M8,22V20H7v2Z"/><path class="va114-2" d="M7,21H6v1H7Z"/><path class="va114-2" d="M9,22H8v2H9Z"/><path class="va114-11" d="M8,19V16H6v4H8Z"/><path class="va114-12" d="M6,16H5v1H4v4H5V20H6V16Z"/><path class="va114-13" d="M4,17H2v4H4V17Z"/></svg>