<svg xmlns="http://www.w3.org/2000/svg" viewBox="0 0 29 33"><defs><style>polygon,rect,path{shape-rendering:crispedges;}.ja150-1{fill:#d14646;}.ja150-2{fill:#000000;}.ja150-3{fill:#508e5d;}.ja150-4{fill:#c5e2d0;}.ja150-5{fill:#c18d59;}.ja150-6{fill:#ffffff;}.ja150-7{fill:#663228;}.ja150-8{fill:#663228;}.ja150-9{fill:#5a2de2;}</style></defs><path class="ja150-1" d="M6,32V27H7V26H8V25h2V24h2V21H10V20H9V16H8V14H9V12H8v1H7V12H8V11H9V10h1V9h2V8h5V9h2v1h1v1h1v1h1v1H21V12H20v2h1v2H20v4H19v1H17v3h2v1h2v1h1v1h1v6h6V0H0V33H6Z"/><path class="ja150-2" d="M23,27H22v6h1V27Z"/><rect class="ja150-2" x="21" y="26" width="1" height="1"/><path class="ja150-3" d="M21,28h1V27H21Z"/><path class="ja150-3" d="M21,31v1h1V30H21Z"/><path class="ja150-2" d="M21,31V27H20v6h1V31Z"/><path class="ja150-2" d="M20,26h1V25H19v1Z"/><path class="ja150-3" d="M10,31V30H9v2h1v1h1V31Z"/><path class="ja150-3" d="M16,31V30H15V28H14V27H13V25H11v1h1v2h1v1h1v2h1v1h1v1h1V31Z"/><path class="ja150-3" d="M19,31V30H18V28H17V27H16V25H15V24H14V23H13v2h1v1h1v2h1v1h1v2h1v1h1v1h1V31Z"/><path class="ja150-3" d="M13,31V30H12V28H11V27H10V26H9v2h1v1h1v2h1v1h1v1h1V31Z"/><path class="ja150-3" d="M17,25v1h1v2h1v1h1V27H19V25H17Z"/><rect class="ja150-3" x="16" y="24" width="1" height="1"/><path class="ja150-2" d="M18,25h1V24H17v1Z"/><path class="ja150-2" d="M13,23h3v1h1V21H16v1H13V21H12v3h1Z"/><path class="ja150-2" d="M12,25V24H10v1h2Z"/><path class="ja150-2" d="M10,26V25H8v1h2Z"/><path class="ja150-2" d="M9,31V27H8v6H9V31Z"/><rect class="ja150-2" x="7" y="26" width="1" height="1"/><path class="ja150-3" d="M8,29V27H7v2Z"/><path class="ja150-3" d="M7,31v2H8V31Z"/><path class="ja150-2" d="M7,30V27H6v6H7V30Z"/><path class="ja150-4" d="M21,29v1h1V28H21Z"/><path class="ja150-4" d="M21,32v1h1V32Z"/><path class="ja150-4" d="M19,26v1h2V26H19Z"/><path class="ja150-4" d="M19,28H18v2h1v1h1V29H19Z"/><path class="ja150-4" d="M17,26V25H16v2h1v1h1V26Z"/><path class="ja150-4" d="M18,32V31H17v2h2V32Z"/><path class="ja150-4" d="M16,30v1h1V29H16V28H15v2Z"/><path class="ja150-4" d="M16,23H14v1h1v1h1V23Z"/><path class="ja150-4" d="M14,27v1h1V26H14V25H13v2Z"/><path class="ja150-4" d="M15,32V31H14v2h2V32Z"/><path class="ja150-4" d="M13,30v1h1V29H13V28H12v2Z"/><path class="ja150-4" d="M13,25V24H12v1Z"/><path class="ja150-4" d="M10,27h1v1h1V26H11V25H10v2Z"/><path class="ja150-4" d="M12,32V31H11v2h2V32Z"/><path class="ja150-4" d="M10,30v1h1V29H10V28H9v2Z"/><path class="ja150-4" d="M9,32v1h1V32Z"/><path class="ja150-4" d="M9,27V26H8v1Z"/><path class="ja150-4" d="M7,30v1H8V29H7Z"/><path class="ja150-2" d="M20,16h1V15H20Z"/><rect class="ja150-2" x="19" y="14" width="1" height="1"/><path class="ja150-5" d="M13,22h3V21h1V20h1V18h1V16h1V15H16V14h3V13H16V12H15V11H14v1H13v1H10v1h3v1H9v1h1v2h1v2h1v1h1Zm1-6h1v1H14Zm-1,3h3v1H13Z"/><path class="ja150-2" d="M19,17h1V16H19Z"/><path class="ja150-2" d="M10,15V14H9v1Z"/><path class="ja150-2" d="M10,16H9v1h1Z"/><path class="ja150-2" d="M8,15v1H9V15Z"/><rect class="ja150-2" x="14" y="16" width="1" height="1"/><path class="ja150-6" d="M13,15V14H12v1Z"/><path class="ja150-6" d="M11,15V14H10v1Z"/><path class="ja150-6" d="M18,14v1h1V14Z"/><path class="ja150-6" d="M16,14v1h1V14Z"/><path class="ja150-2" d="M12,15V14H11v1Z"/><path class="ja150-2" d="M17,14v1h1V14Z"/><path class="ja150-7" d="M12,13h1V12H12Z"/><path class="ja150-7" d="M16,12v1h1V12Z"/><path class="ja150-8" d="M19,18H18v2H17v1h2V20h1V17H19Z"/><path class="ja150-8" d="M11,20V18H10V17H9v3h1v1h2V20Z"/><rect class="ja150-2" x="13" y="19" width="3" height="1"/><rect class="ja150-9" x="21" y="12" width="1" height="1"/><path class="ja150-9" d="M10,13h2V12h2V11h1v1h2v1h2v1h1V12h1V11H20V10H19V9H17V8H12V9H10v1H9v1H8v1H9v2h1Z"/><path class="ja150-9" d="M21,15V14H20v1Z"/><path class="ja150-9" d="M9,14H8v1H9Z"/><rect class="ja150-9" x="7" y="12" width="1" height="1"/></svg>