<svg xmlns="http://www.w3.org/2000/svg" viewBox="0 0 29 33"><defs><style>polygon,rect,path{shape-rendering:crispedges;}.fa82-1{fill:#7a982c;}.fa82-2{fill:#000000;}.fa82-3{fill:#333333;}.fa82-4{fill:#e8b795;}.fa82-5{fill:#ffffff;}.fa82-6{fill:#7f5018;}.fa82-7{fill:#ff1d99;}.fa82-8{fill:#cbed03;}.fa82-9{fill:#00e070;}.fa82-10{fill:#fad000;}.fa82-11{fill:#ffffff;}</style></defs><path class="fa82-1" d="M6,32V27H7V26H8V25h2V22H9V16H8V14H9V10h1V9h1V8h7V9h1v1h1v4h1v2H20v6h1v1h1v1h2v1h1v2H24V26H23v7h6V0H0V33H6Z"/><path class="fa82-2" d="M9,31V27H8v2H7V27H6v6H7V30H8v3H9V31Z"/><rect class="fa82-2" x="7" y="26" width="1" height="1"/><path class="fa82-2" d="M10,25H8v1h2Z"/><path class="fa82-2" d="M13,23h3v1h1V21H16v1H13V21H12v3h1Z"/><path class="fa82-2" d="M21,27H20v6h1V27Z"/><path class="fa82-2" d="M23,26V25H22v8h1V26Z"/><rect class="fa82-3" x="10" y="29" width="1" height="1"/><path class="fa82-3" d="M15,29H14v2h1V29Z"/><path class="fa82-3" d="M19,32V31H18v1H17V29h1V28h1v1h1V27H18V26H16v1H13V26H11V25H10v1H8v1H9v2h1V28h1v1h1v3H11V31H10v1H9v1H20V32Zm-3-2v1H15v1H13V28h2v1h1Z"/><rect class="fa82-3" x="18" y="29" width="1" height="1"/><path class="fa82-3" d="M8,29V27H7v2Z"/><path class="fa82-4" d="M22,25H20v2h1v6h1V25Z"/><path class="fa82-4" d="M17,25V24H16V23H13v1H12v1h1v1h3V25Z"/><path class="fa82-2" d="M13,26v1h3V26H13Z"/><path class="fa82-4" d="M8,30H7v3H8V30Z"/><path class="fa82-2" d="M16,25v1h1V25Z"/><path class="fa82-2" d="M12,25v1h1V25Z"/><path class="fa82-5" d="M19,30H18V29H17v3h1V31h1v1h1V29H19Z"/><rect class="fa82-5" x="18" y="28" width="1" height="1"/><path class="fa82-5" d="M15,30v1h1V29H15Z"/><path class="fa82-5" d="M14,30V29h1V28H13v4h2V31H14Z"/><path class="fa82-5" d="M9,32h1V31h1v1h1V29H11v1H10V29H9v3Z"/><rect class="fa82-5" x="10" y="28" width="1" height="1"/><path class="fa82-2" d="M20,16h1V15H20Z"/><rect class="fa82-4" x="14" y="15" width="1" height="1"/><path class="fa82-4" d="M13,22h3V21h1V20h1V19h1V17H16V16H15v1H14V16H13v1H10v2h1v1h1v1h1Zm-1-3V18h1v1h3v1H13V19Z"/><path class="fa82-4" d="M13,13v1h3V13h1V12h1V11H17V10H14v1H12v1h1Z"/><path class="fa82-2" d="M19,17v2h1V16H19Z"/><rect class="fa82-2" x="18" y="19" width="1" height="1"/><rect class="fa82-2" x="17" y="20" width="1" height="1"/><rect class="fa82-2" x="11" y="20" width="1" height="1"/><rect class="fa82-2" x="10" y="19" width="1" height="1"/><path class="fa82-2" d="M10,18V16H9v3h1Z"/><path class="fa82-2" d="M8,15v1H9V15Z"/><rect class="fa82-2" x="14" y="16" width="1" height="1"/><path class="fa82-6" d="M13,12H11v1h2Z"/><rect class="fa82-6" x="17" y="12" width="1" height="1"/><rect class="fa82-2" x="13" y="19" width="3" height="1"/><rect class="fa82-2" x="12" y="18" width="1" height="1"/><path class="fa82-7" d="M17,22v3h1V24h2V23H19V22H18V21H17Z"/><path class="fa82-7" d="M19,20H18v1h2V19H19Z"/><path class="fa82-7" d="M19,25H18v2h1V25Z"/><path class="fa82-7" d="M10,13h1V12h1V11h2V10h3v1h1v2h1v1h1V10H19V9H18V8H11V9H10v1H9v4h1Z"/><path class="fa82-7" d="M11,26h1V21H11V20H10V19H9v3h1v3h1Z"/><path class="fa82-8" d="M19,15v1h1V15h1V14H19Z"/><path class="fa82-8" d="M16,13v1h3V13H16Z"/><path class="fa82-9" d="M16,14v2h3V14H16Z"/><path class="fa82-8" d="M16,16v1h3V16H16Z"/><path class="fa82-8" d="M13,14v2h1V15h1v1h1V14Z"/><path class="fa82-8" d="M13,14V13H10v1h3Z"/><path class="fa82-9" d="M13,16V14H10v2h3Z"/><path class="fa82-8" d="M13,17V16H10v1h3Z"/><path class="fa82-8" d="M10,15V14H8v1H9v1h1Z"/><path class="fa82-10" d="M23,25v1h1v1h1V25H24V24H22v1Z"/><path class="fa82-11" d="M18,22h1v1h1v2h2V23H21V22H20V21H18Z"/><path class="fa82-10" d="M19,24H18v1h2V24Z"/><path class="fa82-10" d="M17,25v1h1V25Z"/><path class="fa82-2" d="M19,26v1h1V25H19Z"/></svg>