<svg xmlns="http://www.w3.org/2000/svg" viewBox="0 0 29 33"><defs><style>polygon,rect,path{shape-rendering:crispedges;}.ha205-1{fill:#000000;}.ha205-2{fill:#6f7032;}.ha205-3{fill:#ce8452;}.ha205-4{fill:#a7af69;}.ha205-5{fill:#492a23;}.ha205-6{fill:#9b8100;}.ha205-7{fill:#ffffff;}.ha205-8{fill:#0068ff;}.ha205-9{fill:#ff1f4a;}.ha205-10{fill:#dfdfdf;}.ha205-11{fill:#a89969;}.ha205-12{fill:#397d98;}</style></defs><path class="ha205-1" d="M23,27H22v6h1V27Z"/><rect class="ha205-1" x="21" y="26" width="1" height="1"/><path class="ha205-2" d="M22,27H21v6h1V27Z"/><path class="ha205-1" d="M21,27H20v6h1V27Z"/><path class="ha205-1" d="M20,26h1V25H19v1Z"/><path class="ha205-2" d="M16,32H12v1h5V32Z"/><rect class="ha205-2" x="16" y="30" width="1" height="1"/><rect class="ha205-2" x="12" y="30" width="1" height="1"/><path class="ha205-2" d="M20,27h1V26H19V25H17v1H16v1H13V26H12V25H10v1H9v7h1V30h1V29h1V28h5v1h1v1h1v3h1V27Z"/><path class="ha205-1" d="M18,25h1V24H17v1Z"/><rect class="ha205-1" x="16" y="25" width="1" height="1"/><path class="ha205-1" d="M13,26v1h3V26H13Z"/><path class="ha205-1" d="M13,23h3v1h1V21H16v1H13V21H12v3h1Z"/><path class="ha205-3" d="M13,25v1h3V25h1V24H16V23H13v1H12v1Z"/><rect class="ha205-1" x="12" y="25" width="1" height="1"/><path class="ha205-1" d="M12,24H10v1h2Z"/><path class="ha205-1" d="M9,26h1V25H8v1H7v1H8v6H9V26Z"/><path class="ha205-2" d="M8,27H7v6H8V27Z"/><path class="ha205-1" d="M7,27H6v6H7V27Z"/><path class="ha205-4" d="M19,30H18V29H17V28H12v1H11v1H10v3h2V32h5v1h2V30Zm-6,1H12V30h1Zm4,0H16V30h1Z"/><rect class="ha205-1" x="20" y="15" width="1" height="1"/><rect class="ha205-3" x="14" y="13" width="1" height="1"/><path class="ha205-3" d="M13,22h3V21h1V20h1V18h1V16H15v1H14V16H10v2h1v2h1v1h1Zm0-3h3v1H13Z"/><rect class="ha205-3" x="14" y="15" width="1" height="1"/><path class="ha205-1" d="M19,17h1V16H19Z"/><path class="ha205-1" d="M10,16H9v1h1Z"/><rect class="ha205-1" x="8" y="15" width="1" height="1"/><rect class="ha205-1" x="14" y="16" width="1" height="1"/><path class="ha205-5" d="M19,18H18v2H17v1h2V20h1V17H19Z"/><path class="ha205-5" d="M11,20V18H10V17H9v3h1v1h2V20Z"/><rect class="ha205-1" x="13" y="19" width="3" height="1"/><rect class="ha205-6" x="20" y="13" width="1" height="1"/><path class="ha205-7" d="M11,16h3V15h1v1h5V13H15v1H14V13H9v3h2Zm5-2h3v1H16Zm-6,0h3v1H10Z"/><path class="ha205-8" d="M19,15V14H16v1h3Z"/><path class="ha205-9" d="M13,15V14H10v1h3Z"/><path class="ha205-1" d="M24,11H22v1h2Z"/><rect class="ha205-10" x="21" y="7" width="1" height="1"/><path class="ha205-1" d="M14,13h8V12H20V11H19v1H10V11H9v1H7v1h7Z"/><rect class="ha205-10" x="20" y="8" width="1" height="1"/><rect class="ha205-11" x="19" y="10" width="1" height="1"/><path class="ha205-7" d="M18,11h1V10h1V8h1V7h1V6H20V7H19V8H18v3Z"/><path class="ha205-11" d="M17,11H10v1h9V11H17Z"/><path class="ha205-1" d="M11,11h7V7H16V8H13V7H11V8H10v3Z"/><path class="ha205-11" d="M10,10H9v1h1Z"/><path class="ha205-1" d="M6,11H5v1H7V11Z"/><path class="ha205-12" d="M0,33H6V27H7V26H8V25h2V24h2V21H10V20H9V16H8V15H9V13H7V12H5V11H7v1H9V10h1V8h1V7h2V8h3V7h2V8h1V7h1V6h2V8H21V9H20v3h2V11h2v1H22v1H21v1H20v1h1v1H20v4H19v1H17v3h2v1h2v1h1v1h1v6h6V0H0Z"/></svg>