<svg xmlns="http://www.w3.org/2000/svg" viewBox="0 0 29 33"><defs><style>polygon,rect,path{shape-rendering:crispedges;}.ea52-1{fill:#397d98;}.ea52-2{fill:#000000;}.ea52-3{fill:#ff6aa5;}.ea52-4{fill:#c18d59;}.ea52-5{fill:#e2e2e2;}.ea52-6{fill:#00686d;}.ea52-7{fill:#cbed03;}.ea52-8{fill:#ffffff;}</style></defs><path class="ea52-1" d="M6,32V27H7V26H8V25h2V24h2V22H11V21H10V20H9V16H8V15H9V11h1V10h1V9h7v1h1v1h1v4h1v1H20v4H19v1H18v1H17v2h2v1h2v1h1v1h1v6h6V0H0V33H6Z"/><path class="ea52-2" d="M23,27H22v3H21V27H20v6h1V31h1v2h1V27Z"/><rect class="ea52-2" x="21" y="26" width="1" height="1"/><path class="ea52-3" d="M21,28v2h1V27H21Z"/><path class="ea52-4" d="M21,31v2h1V31Z"/><path class="ea52-2" d="M20,26h1V25H19v1Z"/><path class="ea52-3" d="M20,27h1V26H19V25H17v1H16v1H13V26H12V25H10v1H8v1H9v6H20V27Z"/><path class="ea52-2" d="M18,25h1V24H17v1Z"/><rect class="ea52-2" x="16" y="25" width="1" height="1"/><path class="ea52-2" d="M13,26v1h3V26H13Z"/><path class="ea52-2" d="M13,23V22H12v2h1Z"/><path class="ea52-4" d="M13,25v1h3V25h1V24H16V23H13v1H12v1Z"/><rect class="ea52-2" x="12" y="25" width="1" height="1"/><path class="ea52-2" d="M12,24H10v1h2Z"/><path class="ea52-2" d="M10,25H8v1h2Z"/><path class="ea52-2" d="M9,27H8v3H7V27H6v6H7V31H8v2H9V27Z"/><rect class="ea52-2" x="7" y="26" width="1" height="1"/><path class="ea52-3" d="M7,30H8V27H7v3Z"/><path class="ea52-4" d="M7,31v2H8V31Z"/><rect class="ea52-2" x="20" y="15" width="1" height="1"/><path class="ea52-2" d="M19,15h1V14H19Z"/><rect class="ea52-4" x="9" y="15" width="1" height="1"/><rect class="ea52-4" x="15" y="20" width="1" height="1"/><rect class="ea52-4" x="19" y="15" width="1" height="1"/><rect class="ea52-4" x="14" y="15" width="1" height="1"/><path class="ea52-4" d="M18,17H16V16H15v1H14V16H13v1H11V16H10v2h1v1h1V18h2v1h1V18h2v1h1V18h1V16H18Z"/><path class="ea52-4" d="M12,12v1h1v1h3V12h2v1h1V11H18V10H11v1H10v1Z"/><rect class="ea52-4" x="10" y="13" width="1" height="1"/><rect class="ea52-4" x="13" y="20" width="1" height="1"/><path class="ea52-2" d="M16,23v1h1V22H16Z"/><path class="ea52-2" d="M10,14H9v1h1Z"/><rect class="ea52-2" x="8" y="15" width="1" height="1"/><rect class="ea52-2" x="14" y="16" width="1" height="1"/><rect class="ea52-5" x="18" y="13" width="1" height="1"/><path class="ea52-5" d="M18,12H16v1h2Z"/><path class="ea52-5" d="M12,13V12H10v1h2Z"/><path class="ea52-6" d="M15,18v1h1V18Z"/><path class="ea52-6" d="M13,23h3V22h2V21h1V20h1V16H19v2H18v1H16v2H15V20H14v1H13V19h1V18H12v1H11V18H10V16H9v4h1v1h1v1h2Z"/><path class="ea52-2" d="M14,19H13v1h3V19H14Z"/><path class="ea52-2" d="M16,18v1h1V18Z"/><path class="ea52-7" d="M19,14h1V11H19v3Z"/><rect class="ea52-7" x="18" y="10" width="1" height="1"/><path class="ea52-7" d="M18,10V9H11v1h7Z"/><rect class="ea52-7" x="10" y="10" width="1" height="1"/><path class="ea52-7" d="M10,13V11H9v3h1Z"/><path class="ea52-8" d="M11,14h2V13H11Z"/><path class="ea52-8" d="M11,17h2V16H11Z"/><polygon class="ea52-8" points="11 15 11 14 10 14 10 15 10 16 11 16 11 15"/><path class="ea52-2" d="M11,15v1h2V14H11Z"/><path class="ea52-8" d="M19,14H18v2h1V14Z"/><path class="ea52-8" d="M18,13H16v1h2Z"/><path class="ea52-8" d="M16,17h2V16H16Z"/><path class="ea52-8" d="M14,16V15h1v1h1V14H13v2Z"/><path class="ea52-2" d="M18,16V14H16v2Z"/></svg>