<svg xmlns="http://www.w3.org/2000/svg" viewBox="0 0 29 33"><defs><style>polygon,rect,path{shape-rendering:crispedges;}.da88-1{fill:#29834f;}.da88-2{fill:#000000;}.da88-3{fill:#009b97;}.da88-4{fill:#e8b795;}.da88-5{fill:#ffffff;}.da88-6{fill:#8e4717;}.da88-7{fill:#9b8100;}.da88-8{fill:#ffffff;}.da88-9{fill:#ff6aa5;}.da88-10{fill:#ff1f4a;}.da88-11{fill:#ff791f;}.da88-12{fill:#fad000;}.da88-13{fill:#b6dc00;}.da88-14{fill:#00af68;}.da88-15{fill:#38a6e8;}.da88-16{fill:#0068ff;}.da88-17{fill:#6e12ff;}.da88-18{fill:#ff1d99;}.da88-19{fill:#cc2f76;}</style></defs><rect class="da88-1" x="19" y="16" width="1"/><rect class="da88-1" x="18" y="19" width="1"/><polygon class="da88-1" points="14 16 15 16 15 16 14 16 14 17 14 17 14 16"/><rect class="da88-1" x="16" y="21" width="1"/><path class="da88-1" d="M13,22Z"/><rect class="da88-1" x="10" y="19" width="1"/><rect class="da88-1" x="9" y="16" width="1"/><path class="da88-1" d="M0,33H29V0H0Zm6-1V27H7V26H8V25h2V24h2V21H11V20H10V19H9V16H8V15H9V11h1V10h1V9h2V7h1V6h2V5h2V6H17V7h1V9h1v2h1v4h1v1H20v3h2v1h1v3H22v1H21v1h1v1h1v7H6Z"/><path class="da88-1" d="M19,24V23H18V21H17v3h2Z"/><rect class="da88-1" x="17" y="20" width="1"/><rect class="da88-1" x="12" y="21" width="1"/><rect class="da88-1" x="11" y="20" width="1"/><rect class="da88-1" x="19" y="24" width="1" height="1"/><path class="da88-2" d="M7,32V30H8v3H9V27H8v2H7V27H6v6H7Z"/><rect class="da88-2" x="7" y="26" width="1" height="1"/><path class="da88-2" d="M10,25H8v1h2Z"/><path class="da88-2" d="M12,24H10v1h2Z"/><path class="da88-2" d="M13,23h3v1h1V21H16v1H13V21H12v3h1Z"/><path class="da88-2" d="M18,24H17v1h2V24Z"/><path class="da88-2" d="M21,28H20v5h1V28Z"/><rect class="da88-3" x="13" y="29" width="1" height="2"/><path class="da88-3" d="M9,27v6H20V28H19v1H17v2h1V30h1v2H16V28h3V25H17v1H16v1H13V26H12V25H10v1H8v1Zm3,1h3v4H12Zm-2,3V28h1v4H10Z"/><path class="da88-3" d="M8,29V27H7v2Z"/><path class="da88-4" d="M13,25v1h3V25h1V24H16V23H13v1H12v1Z"/><path class="da88-2" d="M13,26v1h3V26H13Z"/><path class="da88-4" d="M8,30H7v3H8V30Z"/><rect class="da88-2" x="16" y="25" width="1" height="1"/><rect class="da88-2" x="12" y="25" width="1" height="1"/><path class="da88-5" d="M15,28H12v4h3Zm-1,3H13V29h1Z"/><path class="da88-5" d="M11,31V28H10v4h1Z"/><path class="da88-5" d="M16,28v4h3V30H18v1H17V29h2V28H16Z"/><polygon class="da88-2" points="20 16 20 16 21 16 21 15 20 15 20 16 20 16"/><path class="da88-4" d="M11,13h5V12h3v1H18v1h1V11H18V10H15v1H13V10H11v1H10v2Z"/><path class="da88-4" d="M9,16h1v3h1v1h1v1h1v1h3V21h1V20h1V19h1V16h1V15H18v1H16V15H15V14H14v1H13v1H11V15H9Zm5,0h1v1H14Zm-2,2h1v1h3v1H13V19H12Z"/><path class="da88-2" d="M19,16v3h1V16Z"/><path class="da88-2" d="M18,10v1h1V10Z"/><polygon class="da88-2" points="19 20 19 19 18 19 18 19 18 20 18 20 19 20"/><polygon class="da88-2" points="18 20 17 20 17 20 17 21 17 21 18 21 18 20"/><path class="da88-2" d="M16,10h2V9H16Z"/><path class="da88-2" d="M13,10V9H11v1h2Z"/><polygon class="da88-2" points="12 20 12 20 11 20 11 21 12 21 12 21 12 20"/><polygon class="da88-2" points="11 10 10 10 10 11 11 11 11 10"/><polygon class="da88-2" points="11 19 11 19 10 19 10 20 11 20 11 20 11 19"/><path class="da88-2" d="M10,18V16H9v3h1Z"/><polygon class="da88-2" points="9 15 9 15 8 15 8 16 9 16 9 16 9 15"/><polygon class="da88-2" points="14 17 14 17 15 17 15 16 15 16 14 16 14 17"/><path class="da88-6" d="M19,12H16v1h3Z"/><path class="da88-6" d="M10,14h1V13H10Z"/><rect class="da88-2" x="13" y="19" width="3" height="1"/><rect class="da88-2" x="12" y="18" width="1" height="1"/><path class="da88-7" d="M13,11h2V10h1V9h2V7H17V6h1V5H16V6H14V7H13v4Z"/><path class="da88-7" d="M18,10h1V9H18v1Z"/><path class="da88-2" d="M11,16h2V15h1V14h1v1h1v1h2V15h2V11H19v3H18V13H11v1H10V11H9v4h2Z"/><path class="da88-8" d="M20,25v1h1V24H20Z"/><rect class="da88-9" x="20" y="21" width="1" height="1"/><polygon class="da88-10" points="20 23 19 23 19 24 20 24 21 24 21 23 20 23"/><rect class="da88-11" x="21" y="23" width="1" height="1"/><path class="da88-12" d="M22,22h1V20H22v2Z"/><path class="da88-13" d="M21,20h1V19H20v1Z"/><rect class="da88-14" x="19" y="19" width="1" height="1"/><rect class="da88-14" x="18" y="20" width="1" height="1"/><path class="da88-15" d="M19,21H18v2h1V21Z"/><path class="da88-16" d="M19,22v1h2V22H19Z"/><path class="da88-17" d="M22,21H21v2h1V21Z"/><path class="da88-18" d="M20,20v1h2V20H20Z"/><path class="da88-19" d="M19,22h1V20H19v2Z"/><path class="da88-11" d="M22,23h1V22H22Z"/><path class="da88-2" d="M21.5,26H22V25H21v1Z"/><path class="da88-4" d="M21,26H20v2h1v5h1V26H21Z"/><path class="da88-2" d="M22,33h1V26H22v7Z"/><path class="da88-2" d="M20,25H19v3h1V25Z"/><rect class="da88-7" x="18" y="9" width="1" height="1"></rect></svg>