<svg xmlns="http://www.w3.org/2000/svg" viewBox="0 0 29 33"><defs><style>polygon,rect,path{shape-rendering:crispedges;}.ua40-1{fill:#db5a8e;}.ua40-2{fill:#000000;}.ua40-3{fill:#ffffff;}.ua40-4{fill:#b2622b;}.ua40-5{fill:#99582c;}.ua40-6{fill:#00774c;}.ua40-7{fill:#f62;}.ua40-8{fill:#ffffff;}.ua40-9{fill:#f9db00;}.ua40-10{fill:#1261ff;}.ua40-11{fill:#00c650;}.ua40-12{fill:#e20026;}</style></defs><path class="ua40-1" d="M9,24v1h1V24h1V23H10V22H9v2Z"/><path class="ua40-1" d="M0,0H0V7H0V33H6V26H5V25H6V22H9V21H8V20H7V11H8V10H9V9h1V8h1V7h7V8h1V9h1v1h1v1h1v9H21v1H20v1H19v1H18v1h1v1h2v1h1v1h1v6h6V0Z"/><rect class="ua40-1" x="14" y="17" width="1"/><path class="ua40-2" d="M23,27H22v6h1V27Z"/><path class="ua40-3" d="M22,27H21v6h1V27Z"/><rect class="ua40-2" x="21" y="26" width="1" height="1"/><path class="ua40-2" d="M21,27H20v6h1V27Z"/><path class="ua40-3" d="M20,27h1V26H19V25H18V24H16v1h1v5H16V25H13v5H12V25h1V24H11v1H10v1H9v7H20V27Z"/><path class="ua40-2" d="M20,26h1V25H19v1Z"/><rect class="ua40-2" x="18" y="24" width="1" height="1"/><path class="ua40-2" d="M16,24h2V23H16Z"/><path class="ua40-2" d="M13,24v1h3V24H13Z"/><path class="ua40-4" d="M15,23H13v1h3V23Z"/><path class="ua40-2" d="M12,23H11v1h2V23Z"/><rect class="ua40-2" x="10" y="24" width="1" height="1"/><path class="ua40-2" d="M9,26H8v7H9V26Z"/><path class="ua40-3" d="M8,27H7v6H8V27Z"/><path class="ua40-4" d="M7,27H8V26H9V25H6v1H7Z"/><path class="ua40-2" d="M7,27V26H6v7H7V27Z"/><path class="ua40-2" d="M12,26v4h1V25H12Z"/><path class="ua40-2" d="M16,30h1V25H16v5Z"/><path class="ua40-4" d="M15,11H14v1H13v1h3V12H15Z"/><path class="ua40-4" d="M16,22V21h1V20h1V19h1V15H18v1H16V15H15V14H14v1H13v1H11V15H10v4h1v1h1v1h1v1h3Zm-2-5V16h1v1H14Zm-1,2h3V18h1v1H16v1H13Z"/><polygon class="ua40-2" points="15 16 15 16 14 16 14 17 15 17 15 16"/><rect class="ua40-5" x="16" y="12" width="1" height="1"/><path class="ua40-6" d="M20,19h0V12h0v7Z"/><path class="ua40-6" d="M15,12h2V11H15Z"/><path class="ua40-6" d="M18,13v1h1V12H17v1Z"/><path class="ua40-6" d="M10,14h1V13h2V12h1V11H12v1H10v2Z"/><path class="ua40-3" d="M10,22h1v1h2V22H12V21H11V20H10V19H9V12h1V11h2V10h5v1h2v1h1v7H19v1H18v1H17v1H16v1h2V22h1V21h1V20h1V11H20V10H19V9H18V8H11V9H10v1H9v1H8v9H9v1h1Z"/><polygon class="ua40-2" points="11 9 11 8 10 8 10 9 11 9 11 9"/><polygon class="ua40-2" points="10 10 10 9 9 9 9 10 10 10 10 10"/><polygon class="ua40-2" points="9 11 9 10 8 10 8 11 9 11 9 11"/><path class="ua40-2" d="M8,11H7v9H8V11Z"/><rect class="ua40-2" x="8" y="20" width="1" height="1"/><rect class="ua40-2" x="9" y="21" width="1" height="1"/><rect class="ua40-2" x="10" y="22" width="1" height="1"/><rect class="ua40-2" x="18" y="22" width="1" height="1"/><rect class="ua40-2" x="19" y="21" width="1" height="1"/><rect class="ua40-2" x="20" y="20" width="1" height="1"/><path class="ua40-2" d="M21,20h1V11H21v9Z"/><rect class="ua40-2" x="20" y="10" width="1" height="1"/><rect class="ua40-2" x="19" y="9" width="1" height="1"/><rect class="ua40-2" x="18" y="8" width="1" height="1"/><path class="ua40-2" d="M18,8V7H11V8h7Z"/><path class="ua40-2" d="M12,11H10v1h2Z"/><path class="ua40-2" d="M10,19V15h1v1h2V15h1V14h1v1h1v1h2V15h1v4H18v1h1V19h1V12H19V11H17v1h2v2H18V13H11v1H10V12H9v7h1v1h1V19Z"/><rect class="ua40-2" x="11" y="20" width="1" height="1"/><rect class="ua40-2" x="12" y="21" width="1" height="1"/><path class="ua40-2" d="M16,23V22H13v1h3Z"/><polygon class="ua40-2" points="16 21 16 22 17 22 17 21 16 21 16 21"/><polygon class="ua40-2" points="17 20 17 21 18 21 18 20 17 20 17 20"/><path class="ua40-2" d="M15,11h2V10H12v1h3Z"/><rect class="ua40-2" x="13" y="19" width="3" height="1"/><rect class="ua40-2" x="16" y="18" width="1" height="1"/><path class="ua40-7" d="M7,22H6v1H7Z"/><path class="ua40-8" d="M8,23V22H7v1Z"/><path class="ua40-9" d="M9,24V23H8v1Z"/><path class="ua40-10" d="M7,24H6v1H7Z"/><path class="ua40-7" d="M8,24v1H9V24Z"/><rect class="ua40-11" x="7" y="23" width="1" height="1"/><path class="ua40-9" d="M7,24v1H8V24Z"/><path class="ua40-12" d="M7,23H6v1H7Z"/><path class="ua40-12" d="M9,23V22H8v1Z"/><rect class="ua40-2" x="5" y="25" width="1" height="1"/><rect class="ua40-2" x="9" y="25" width="1" height="1"/></svg>