<svg xmlns="http://www.w3.org/2000/svg" viewBox="0 0 29 33"><defs><style>polygon,rect,path{shape-rendering:crispedges;}.ib34-1{fill:#d4a122;}.ib34-2{fill:#6d3e35;}.ib34-3{fill:#000000;}.ib34-4{fill:#8e4717;}.ib34-5{fill:#990000;}.ib34-6{fill:#cbed03;}.ib34-7{fill:#ffffff;}.ib34-8{fill:#0068ff;}.ib34-9{fill:#ff1f4a;}.ib34-10{fill:#ff6aa5;}.ib34-11{fill:#ff791f;}.ib34-12{fill:#fad000;}.ib34-13{fill:#b6dc00;}.ib34-14{fill:#00af68;}.ib34-15{fill:#38a6e8;}.ib34-16{fill:#6e12ff;}.ib34-17{fill:#ff1d99;}.ib34-18{fill:#cc2f76;}</style></defs><path class="ib34-1" d="M12,21H11v2H10v1h2V21Z"/><rect class="ib34-1" x="9" y="24" width="1" height="1"/><path class="ib34-1" d="M0,33H6V26H7V25H8V24H7V23H6V20H7V19H9V16H8V15H9V13H8V9H9V8h1V7h1V6h7V7h1V8h1V9h1v4H20v2h1v1H20v3H19v1H18v1H17v3h2v1h2v1h1v1h1v6h6V0H0Z"/><path class="ib34-2" d="M8,28H9V26H7v7H8V28Z"/><path class="ib34-3" d="M7,26H6v7H7V26Z"/><path class="ib34-3" d="M23,27H22v6h1V27Z"/><path class="ib34-2" d="M22,27H21v6h1V27Z"/><rect class="ib34-3" x="21" y="26" width="1" height="1"/><path class="ib34-3" d="M21,27H20v6h1V27Z"/><path class="ib34-2" d="M20,27h1V26H19V25H17V24H16V23H13v1H12v1H10v3H9v5h5V29h1v4h5V27Zm-8,2H11V28h1Zm6,0H17V28h1Z"/><path class="ib34-3" d="M20,26h1V25H19v1Z"/><rect class="ib34-3" x="17" y="28" width="1" height="1"/><path class="ib34-3" d="M18,25h1V24H17v1Z"/><path class="ib34-3" d="M15,29H14v4h1V29Z"/><rect class="ib34-3" x="11" y="28" width="1" height="1"/><path class="ib34-3" d="M10,25h2V24H10Z"/><path class="ib34-3" d="M9,26v2h1V25H9Z"/><path class="ib34-3" d="M9,28H8v5H9V28Z"/><rect class="ib34-3" x="20" y="15" width="1" height="1"/><rect class="ib34-2" x="14" y="15" width="1" height="1"/><rect class="ib34-2" x="15" y="20" width="1" height="1"/><rect class="ib34-2" x="13" y="20" width="1" height="1"/><rect class="ib34-2" x="18" y="12" width="1" height="1"/><path class="ib34-2" d="M18,12V11H11v1h1v1h2v1h1V13h1V12Z"/><path class="ib34-2" d="M18,16H15v1H14V16H10v2h1v1h1V18h2v1h1V18h2v1h1V18h1V16Z"/><path class="ib34-3" d="M19,17h1V16H19Z"/><path class="ib34-3" d="M16,23v1h1V22H16Z"/><path class="ib34-3" d="M12,22v2h1V22Z"/><path class="ib34-3" d="M10,16H9v1h1Z"/><rect class="ib34-3" x="8" y="15" width="1" height="1"/><rect class="ib34-3" x="14" y="16" width="1" height="1"/><path class="ib34-4" d="M16,12v1h2V12Z"/><path class="ib34-4" d="M11,12H10v1h2V12Z"/><path class="ib34-5" d="M15,18v1h1V18Z"/><path class="ib34-5" d="M10,20h1v1h1v1h1v1h3V22h1V21h1V20h1V19h1V17H19v1H18v1H16v2H15V20H14v1H13V19h1V18H12v1H11V18H10V17H9v2h1Z"/><path class="ib34-3" d="M14,19H13v1h3V19H14Z"/><path class="ib34-3" d="M16,18v1h1V18Z"/><path class="ib34-6" d="M10,12h1V11h7v1h1v1h2V9H20V8H19V7H18V6H11V7H10V8H9V9H8v4h2Z"/><path class="ib34-7" d="M11,16h3V15h1v1h5V13H15v1H14V13H9v3h2Zm5-2h3v1H16Zm-6,0h3v1H10Z"/><path class="ib34-8" d="M19,15V14H16v1h3Z"/><path class="ib34-9" d="M13,15V14H10v1h3Z"/><path class="ib34-7" d="M9,26V24H8v2Z"/><rect class="ib34-10" x="8" y="21" width="1" height="1"/><path class="ib34-9" d="M10,24V23H8v1h2Z"/><rect class="ib34-11" x="7" y="23" width="1" height="1"/><path class="ib34-12" d="M7,21V20H6v2H7Z"/><path class="ib34-13" d="M9,19H7v1H9Z"/><rect class="ib34-14" x="9" y="19" width="1" height="1"/><rect class="ib34-14" x="10" y="20" width="1" height="1"/><path class="ib34-15" d="M11,22V21H10v2h1Z"/><path class="ib34-8" d="M9,22H8v1h2V22Z"/><path class="ib34-16" d="M8,22V21H7v2H8Z"/><path class="ib34-17" d="M8,21H9V20H7v1Z"/><path class="ib34-18" d="M10,22V20H9v2Z"/><path class="ib34-11" d="M6,22v1H7V22Z"/><path class="ib34-3" d="M8,25H7v1H8Z"/></svg>