<svg xmlns="http://www.w3.org/2000/svg" viewBox="0 0 29 33"><defs><style>polygon,rect,path{shape-rendering:crispedges;}.aa12-1{fill:#db5a8e;}.aa12-2{fill:#000000;}.aa12-3{fill:#efcaaf;}.aa12-4{fill:#3a172a;}.aa12-5{fill:#66334f;}.aa12-6{fill:#00774c;}.aa12-7{fill:#fad000;}.aa12-8{fill:#ffffff;}.aa12-9{fill:#0068ff;}.aa12-10{fill:#455054;}.aa12-11{fill:#002b4f;}.aa12-12{fill:#ff1f4a;}</style></defs><path class="aa12-1" d="M8,18v4H9v2H8v1h2V24h2V21H11V20H10V19H9V16H8Z"/><path class="aa12-1" d="M8,32H6V31H5V22H6V21H7V20H5v1H2V17H5V16H8V14H9V10h1V9h1V8h7V9h1v1h1v4h1v2H20v3H19v1H18v1H17v3h2v1h2v1h1v1h1v6h6V0H0V33H8Z"/><path class="aa12-2" d="M23,31V27H22v6h1Z"/><rect class="aa12-2" x="21" y="26" width="1" height="1"/><path class="aa12-3" d="M22,31V27H21v6h1Z"/><rect class="aa12-3" x="20" y="26" width="1" height="1"/><path class="aa12-2" d="M21,31V27H20v6h1Z"/><path class="aa12-2" d="M20,26h1V25H19v1Z"/><path class="aa12-4" d="M20,31V26H19V25H18v1H17v1H16v1H13V27H12V26H11V25H10v1H9v7H20Z"/><path class="aa12-2" d="M17,26h1V25h1V24H17Z"/><rect class="aa12-2" x="16" y="26" width="1" height="1"/><path class="aa12-2" d="M14,27H13v1h3V27Z"/><path class="aa12-2" d="M13,23V22H12v2h1Z"/><path class="aa12-3" d="M16,23H13v1H12v2h1v1h3V26h1V24H16Z"/><rect class="aa12-2" x="12" y="26" width="1" height="1"/><path class="aa12-2" d="M12,24H10v1h1v1h1Z"/><rect class="aa12-3" x="8" y="26" width="1" height="1"/><path class="aa12-2" d="M9,31V27H8V26h2V25H8V24H7v7H6v1H8v1H9Z"/><path class="aa12-3" d="M7,30V24H8V22H6v9H7Z"/><path class="aa12-2" d="M6,29V22H5v9H6Z"/><rect class="aa12-2" x="20" y="15" width="1" height="1"/><rect class="aa12-3" x="14" y="15" width="1" height="1"/><polygon class="aa12-3" points="14 14 15 14 15 13 13 13 13 14 14 14"/><rect class="aa12-3" x="15" y="20" width="1" height="1"/><rect class="aa12-3" x="13" y="20" width="1" height="1"/><polygon class="aa12-3" points="12 10 11 10 11 11 13 11 13 10 12 10"/><path class="aa12-3" d="M17,17H16V16H15v1H14V16H13v1H10v1h1v1h1V18h2v1h1V18h2v1h1V18h1V17Z"/><rect class="aa12-2" x="19" y="16" width="1" height="1"/><path class="aa12-2" d="M16,23v1h1V22H16Z"/><rect class="aa12-2" x="9" y="16" width="1" height="1"/><rect class="aa12-2" x="8" y="15" width="1" height="1"/><rect class="aa12-2" x="14" y="16" width="1" height="1"/><rect class="aa12-5" x="15" y="18" width="1" height="1"/><path class="aa12-5" d="M19,18H18v1H16v2H15V20H14v1H13V19h1V18H12v1H11V18H10V17H9v2h1v1h1v1h1v1h1v1h3V22h1V21h1V20h1V19h1V17H19Z"/><path class="aa12-2" d="M14,19H13v1h3V19Z"/><rect class="aa12-2" x="16" y="18" width="1" height="1"/><rect class="aa12-6" x="19" y="13" width="1" height="1"/><rect class="aa12-6" x="15" y="13" width="1" height="1"/><path class="aa12-6" d="M11,11V10h2v1h7V10H19V9H18V8H11V9H10v1H9v1Z"/><rect class="aa12-6" x="9" y="13" width="1" height="1"/><path class="aa12-7" d="M19,15v1h1V15h1V14H19Z"/><path class="aa12-7" d="M17,14h2V13H16v1Z"/><path class="aa12-2" d="M17,14H16v2h3V14Z"/><path class="aa12-7" d="M17,16H16v1h3V16Z"/><path class="aa12-7" d="M14,15h1v1h1V14H13v2h1Z"/><path class="aa12-7" d="M12,14h1V13H10v1Z"/><path class="aa12-2" d="M12,16h1V14H10v2Z"/><path class="aa12-7" d="M11,17h2V16H10v1Z"/><path class="aa12-7" d="M9,16h1V14H8v1H9Z"/><path class="aa12-8" d="M12,12h8V11H9v1Z"/><path class="aa12-9" d="M11,13h9V12H9v1Z"/><path class="aa12-10" d="M8,22V20H7v2Z"/><rect class="aa12-2" x="6" y="21" width="1" height="1"/><path class="aa12-2" d="M9,22H8v2H9Z"/><rect class="aa12-11" x="4" y="20" width="1" height="1"/><rect class="aa12-11" x="4" y="17" width="1" height="1"/><path class="aa12-11" d="M3,19V18H2v2H3Z"/><rect class="aa12-11" x="5" y="19" width="1" height="1"/><rect class="aa12-11" x="5" y="16" width="1" height="1"/><path class="aa12-11" d="M8,17H7v2H8Z"/><rect class="aa12-12" x="2" y="17" width="1" height="1"/><path class="aa12-12" d="M7,17H6v1H3v2H4V19H7Z"/><rect class="aa12-12" x="7" y="16" width="1" height="1"/><rect class="aa12-12" x="7" y="19" width="1" height="1"/><rect class="aa12-12" x="2" y="20" width="1" height="1"/><rect class="aa12-8" x="3" y="20" width="1" height="1"/><rect class="aa12-8" x="4" y="19" width="1" height="1"/><rect class="aa12-8" x="3" y="17" width="1" height="1"/><rect class="aa12-8" x="6" y="16" width="1" height="1"/><rect class="aa12-8" x="5" y="17" width="1" height="1"/><rect class="aa12-8" x="6" y="19" width="1" height="1"/></svg>