<svg xmlns="http://www.w3.org/2000/svg" viewBox="0 0 29 33"><defs><style>polygon,rect,path{shape-rendering:crispedges;}.fb263-1{fill:#db5a8e;}.fb263-2{fill:#000000;}.fb263-3{fill:#333333;}.fb263-4{fill:#ffffff;}.fb263-5{fill:#e8b795;}.fb263-6{fill:#90a2a3;}.fb263-7{fill:#326b43;}.fb263-8{fill:#326b43;}.fb263-9{fill:#10bcff;}.fb263-10{fill:#99004d;}.fb263-11{fill:#cc2f76;}.fb263-12{fill:#dfdfdf;}.fb263-13{fill:#a89969;}.fb263-14{fill:#ffffff;}</style></defs><path class="fb263-1" d="M0,33H6V27H7V26H8V25H9V24h1V23h1V22h1V21H11V20H10V19H9V16H8V15H9V13H7V12H5V11H7v1H9V10h1V8h1V7h2V8h3V7h2V8h1V7h1V6h2V8H21V9H20v3h2V11h2v1H22v1H20v2h1v1H20v3H19v1H18v1H17v1h1v1h1v1h1v1h1v1h1v1h1v6h6V0H0Z"/><path class="fb263-2" d="M23,27H22v6h1V27Z"/><path class="fb263-3" d="M22,27H21v6h1V27Z"/><path class="fb263-2" d="M21,27h1V26H21V25H20v2H17v1h2v1h1v4h1V27Z"/><rect class="fb263-2" x="19" y="24" width="1" height="1"/><path class="fb263-3" d="M20,29H19v1H18v1H17v1H16v1h4V29Z"/><rect class="fb263-2" x="18" y="23" width="1" height="1"/><path class="fb263-3" d="M18,25H17v1H16v5h1V30h1V29h1V28H17V27h2V26h1V25H19V24H18Z"/><rect class="fb263-3" x="17" y="23" width="1" height="1"/><rect class="fb263-2" x="17" y="24" width="1" height="1"/><rect class="fb263-2" x="18" y="29" width="1" height="1"/><rect class="fb263-2" x="16" y="25" width="1" height="1"/><path class="fb263-4" d="M15,27H14v6h1V27Z"/><path class="fb263-2" d="M12,24h1V23h3v1h1V23h1V22H17V21H16v1H13V21H12v1H11v1h1Z"/><path class="fb263-5" d="M17,25V24H16V23H13v1H12v1h1v1h3V25Z"/><rect class="fb263-2" x="12" y="25" width="1" height="1"/><path class="fb263-3" d="M12,32V31H11V30H10V29H9v4h4V32Z"/><rect class="fb263-3" x="11" y="23" width="1" height="1"/><rect class="fb263-2" x="11" y="24" width="1" height="1"/><rect class="fb263-2" x="11" y="30" width="1" height="1"/><rect class="fb263-2" x="10" y="23" width="1" height="1"/><rect class="fb263-2" x="9" y="24" width="1" height="1"/><path class="fb263-3" d="M10,26v1h2v1H10v1h1v1h1v1h1V26H12V25H11V24H10v1H9v1Z"/><path class="fb263-2" d="M9,29h1V28h2V27H9V25H8v1H7v1H8v6H9V29Z"/><path class="fb263-3" d="M8,27H7v6H8V27Z"/><path class="fb263-2" d="M7,27H6v6H7V27Z"/><rect class="fb263-2" x="10" y="29" width="1" height="1"/><rect class="fb263-2" x="17" y="30" width="1" height="1"/><path class="fb263-2" d="M17,32V31H16V26H13v5H12v1h1v1h1V27h1v6h1V32Z"/><path class="fb263-6" d="M9,26v1h1V26Z"/><path class="fb263-6" d="M19,27h1V26H19Z"/><rect class="fb263-2" x="20" y="15" width="1" height="1"/><rect class="fb263-5" x="10" y="13" width="1" height="1"/><path class="fb263-5" d="M12,19V18h5v2h1V19h1V16h1V15H18v1H16V15H15V14H14v1H13v1H11V15H9v1h1v3h1v1h1Zm2-3h1v1H14Z"/><path class="fb263-5" d="M13,20v2h3V20Z"/><path class="fb263-2" d="M19,17v2h1V16H19Z"/><rect class="fb263-2" x="18" y="19" width="1" height="1"/><rect class="fb263-2" x="17" y="20" width="1" height="1"/><rect class="fb263-2" x="11" y="20" width="1" height="1"/><rect class="fb263-2" x="10" y="19" width="1" height="1"/><path class="fb263-2" d="M10,16H9v3h1V16Z"/><rect class="fb263-2" x="8" y="15" width="1" height="1"/><rect class="fb263-2" x="14" y="16" width="1" height="1"/><rect class="fb263-7" x="18" y="13" width="1" height="1"/><path class="fb263-8" d="M17,19H16v2h1V19Z"/><path class="fb263-8" d="M13,20V19h3V18H12v3h1Z"/><path class="fb263-2" d="M16,19H13v1h3Z"/><path class="fb263-2" d="M17,18H16v1h1Z"/><path class="fb263-9" d="M19,14h1V13H19Z"/><path class="fb263-9" d="M10,13H9v1h1Z"/><path class="fb263-10" d="M12,14H11v1h2V14Z"/><path class="fb263-10" d="M17,14H16v1h2V14Z"/><path class="fb263-11" d="M11,16h2V15H11Z"/><path class="fb263-2" d="M18,14v1h2V14H18Z"/><path class="fb263-2" d="M11,14H9v1h2Z"/><path class="fb263-11" d="M16,16h2V15H16Z"/><path class="fb263-2" d="M24,11H22v1h2Z"/><path class="fb263-12" d="M21,8h1V7H21Z"/><path class="fb263-2" d="M11,13v1h2v1h1V14h1v1h1V14h2V13h4V12H20V11H19v1H10V11H9v1H7v1h4Z"/><rect class="fb263-12" x="20" y="8" width="1" height="1"/><path class="fb263-13" d="M19,11h1V10H19Z"/><path class="fb263-14" d="M18,11h1V10h1V8h1V7h1V6H20V7H19V8H18v3Z"/><path class="fb263-13" d="M17,11H10v1h9V11H17Z"/><path class="fb263-2" d="M11,11h7V7H16V8H13V7H11V8H10v3Z"/><path class="fb263-13" d="M10,10H9v1h1Z"/><path class="fb263-2" d="M6,11H5v1H7V11Z"/></svg>