<svg xmlns="http://www.w3.org/2000/svg" viewBox="0 0 29 33"><defs><style>polygon,rect,path{shape-rendering:crispedges;}.qa204-1{fill:#6b4f99;}.qa204-2{fill:#000000;}.qa204-3{fill:#841f00;}.qa204-4{fill:#b2622b;}.qa204-5{fill:#db5800;}.qa204-6{fill:#ffffff;}.qa204-7{fill:#5e362f;}.qa204-8{fill:#5e362f;}.qa204-9{fill:#9b8100;}</style></defs><path class="qa204-1" d="M0,33H6V27H7V26H8V25h2V24h1V23H10V22h1V21H9V20H8V19H9V16H8V15H9V13H8V9H9V8h1V7h1V6h7V7h1V8h1V9h1v4H20v2h1v1H20v3h1v1H20v1H18v1h1v1H18v1h1v1h2v1h1v1h1v6h6V0H0Z"/><path class="qa204-2" d="M23,27H22v6h1V27Z"/><path class="qa204-3" d="M22,27H21v6h1V27Z"/><rect class="qa204-2" x="21" y="26" width="1" height="1"/><path class="qa204-2" d="M21,27H20v6h1V27Z"/><rect class="qa204-3" x="18" y="29" width="1" height="1"/><rect class="qa204-3" x="10" y="29" width="1" height="1"/><path class="qa204-3" d="M16,25h1v4h1V28h1v1h1V27h1V26H19V25H18V24H16Z"/><path class="qa204-3" d="M19,32V31H18v1H17V30H16v1H15v1H13V30H12v2H11V31H10v1H9v1H20V32Z"/><path class="qa204-3" d="M9,27v2h1V28h1v1h1V25h1V24H11v1H10v1H8v1Z"/><path class="qa204-2" d="M20,26h1V25H19v1Z"/><rect class="qa204-2" x="18" y="24" width="1" height="1"/><rect class="qa204-2" x="18" y="22" width="1" height="1"/><rect class="qa204-3" x="17" y="22" width="1" height="1"/><path class="qa204-2" d="M16,25V24H13v1h3Z"/><path class="qa204-4" d="M16,24V23H13v1h3Z"/><path class="qa204-2" d="M13,23h3v1h2V23H17V22h1V20H17v1H16v1H13V21H12V20H11v2h1v1H11v1h2Z"/><rect class="qa204-3" x="11" y="22" width="1" height="1"/><rect class="qa204-2" x="10" y="24" width="1" height="1"/><rect class="qa204-2" x="10" y="22" width="1" height="1"/><path class="qa204-2" d="M10,25H8v1h2Z"/><path class="qa204-2" d="M9,31V27H8v6H9V31Z"/><path class="qa204-3" d="M8,27H7v6H8V27Z"/><rect class="qa204-2" x="7" y="26" width="1" height="1"/><path class="qa204-2" d="M7,27H6v6H7V27Z"/><path class="qa204-3" d="M14,29v2h1V29Z"/><path class="qa204-3" d="M13,28h2v1h1V25H13v3Z"/><path class="qa204-5" d="M19,30H18V29H17v3h1V31h1v1h1V29H19Z"/><rect class="qa204-5" x="18" y="28" width="1" height="1"/><path class="qa204-5" d="M15,29v2h1V29Z"/><path class="qa204-5" d="M14,30V29h1V28H13v4h2V31H14Z"/><path class="qa204-5" d="M11,29v1H10V29H9v3h1V31h1v1h1V29Z"/><rect class="qa204-5" x="10" y="28" width="1" height="1"/><path class="qa204-2" d="M13,27V25H12v5h1V27Z"/><path class="qa204-2" d="M17,28V25H16v5h1V28Z"/><rect class="qa204-2" x="20" y="15" width="1" height="1"/><path class="qa204-2" d="M19,15h1V14H19Z"/><path class="qa204-4" d="M10,17v1h1v1h1v2h1v1h3V21h1V19h1V18h1V16h1V15H16V14h3V13H16V12h2V11H11v1H10v1h3v2H9v1h1Zm4-1h1v1H14Zm-1,3h3v1H13Z"/><path class="qa204-2" d="M10,14H9v1h1Z"/><rect class="qa204-2" x="8" y="15" width="1" height="1"/><rect class="qa204-2" x="14" y="16" width="1" height="1"/><path class="qa204-6" d="M12,15h1V14H12Z"/><path class="qa204-6" d="M10,14v1h1V14Z"/><path class="qa204-6" d="M18,14v1h1V14Z"/><path class="qa204-6" d="M16,14v1h1V14Z"/><path class="qa204-2" d="M11,14v1h1V14Z"/><path class="qa204-2" d="M17,14v1h1V14Z"/><polygon class="qa204-7" points="18 12 16 12 16 13 19 13 19 12 18 12"/><path class="qa204-7" d="M11,14h2V13H10v1Z"/><path class="qa204-8" d="M19,17v1H18v1H17v1h1v1h2V20h1V19H20V16H19Z"/><path class="qa204-8" d="M12,20V19H11V18H10V16H9v3H8v1H9v1h2V20Z"/><rect class="qa204-2" x="13" y="19" width="3" height="1"/><path class="qa204-9" d="M10,13V12h1V11h7v1h1v2h1V13h1V9H20V8H19V7H18V6H11V7H10V8H9V9H8v4H9v1h1Z"/></svg>