<svg xmlns="http://www.w3.org/2000/svg" viewBox="0 0 29 33"><defs><style>polygon,rect,path{shape-rendering:crispedges;}.hb218-1{fill:#b4bd09;}.hb218-2{fill:#000000;}.hb218-3{fill:#b2622b;}.hb218-4{fill:#663434;}.hb218-5{fill:#ffffff;}.hb218-6{fill:#b18518;}</style></defs><path class="hb218-1" d="M0,33H6V27H7V26H8V25h2V24h2V21H11V20H10V19H9V16H8V15H9V14H8V13H4V12H6V11H8V10h2V9h1V8h1V7h1V6h1V5h1V6h1V7h1V8h1V9h1v1h2v1h2v1h2v1H21v1H20v1h1v1H20v3H19v1H18v1H17v3h2v1h2v1h1v1h1v6h6V0H0Z"/><path class="hb218-2" d="M23,27H22v6h1V27Z"/><path class="hb218-3" d="M22,27H21v6h1V27Z"/><rect class="hb218-2" x="21" y="26" width="1" height="1"/><path class="hb218-2" d="M21,27H20v6h1V27Z"/><path class="hb218-3" d="M20,27h1V26H19V25H17V24H16V23H13v1H12v1H10v1H8v1H9v6h5V29h1v4h5V27Zm-8,2H11V28h1Zm6,0H17V28h1Z"/><path class="hb218-2" d="M20,26h1V25H19v1Z"/><rect class="hb218-2" x="17" y="28" width="1" height="1"/><path class="hb218-2" d="M18,25h1V24H17v1Z"/><path class="hb218-2" d="M15,29H14v4h1V29Z"/><path class="hb218-2" d="M13,23h3v1h1V21H16v1H13V21H12v3h1Z"/><rect class="hb218-2" x="11" y="28" width="1" height="1"/><path class="hb218-2" d="M12,24H10v1h2Z"/><path class="hb218-2" d="M10,25H8v1h2Z"/><path class="hb218-2" d="M9,27H8v6H9V27Z"/><path class="hb218-3" d="M8,27H7v6H8V27Z"/><rect class="hb218-2" x="7" y="26" width="1" height="1"/><path class="hb218-2" d="M7,27H6v6H7V27Z"/><rect class="hb218-2" x="20" y="15" width="1" height="1"/><rect class="hb218-2" x="19" y="14" width="1" height="1"/><path class="hb218-3" d="M14,21V20H13V19h3V18h1v1H16v1H15v1h2V20h1V19h1V16H18v1H16V16H15v1H14V16H13v1H11V16H10v3h1v1h1v1h2Z"/><rect class="hb218-3" x="9" y="15" width="1" height="1"/><rect class="hb218-3" x="14" y="15" width="1" height="1"/><rect class="hb218-3" x="19" y="15" width="1" height="1"/><path class="hb218-2" d="M19,17v2h1V16H19Z"/><rect class="hb218-2" x="18" y="19" width="1" height="1"/><rect class="hb218-2" x="17" y="20" width="1" height="1"/><rect class="hb218-2" x="11" y="20" width="1" height="1"/><rect class="hb218-2" x="10" y="19" width="1" height="1"/><rect class="hb218-2" x="9" y="14" width="1" height="1"/><path class="hb218-2" d="M10,16H9v3h1V16Z"/><rect class="hb218-2" x="8" y="15" width="1" height="1"/><rect class="hb218-2" x="14" y="16" width="1" height="1"/><path class="hb218-4" d="M15,20H14v1H13v1h3V21H15Z"/><polygon class="hb218-2" points="16 20 16 19 13 19 13 20 14 20 15 20 16 20"/><rect class="hb218-2" x="16" y="18" width="1" height="1"/><path class="hb218-5" d="M11,17h2V16H11Z"/><path class="hb218-5" d="M10,14v2h1V14Z"/><path class="hb218-2" d="M11,14v2h2V14Z"/><path class="hb218-5" d="M19,14H18v2h1V14Z"/><path class="hb218-5" d="M16,17h2V16H16Z"/><path class="hb218-5" d="M13,14v2h1V15h1v1h1V14Z"/><path class="hb218-2" d="M16,14v2h2V14Z"/><path class="hb218-6" d="M11,14H21V13h4V12H23V11H21V10H19V9H18V8H17V7H16V6H15V5H14V6H13V7H12V8H11V9H10v1H8v1H6v1H4v1H8v1h3Z"/></svg>