<svg xmlns="http://www.w3.org/2000/svg" viewBox="0 0 29 33"><defs><style>polygon,rect,path{shape-rendering:crispedges;}.eb244-1{fill:#d4a122;}.eb244-2{fill:#000000;}.eb244-3{fill:#3e5e00;}.eb244-4{fill:#333333;}.eb244-5{fill:#e8b795;}.eb244-6{fill:#90a2a3;}.eb244-7{fill:#317f03;}.eb244-8{fill:#ffffff;}.eb244-9{fill:#317f03;}.eb244-10{fill:#c8a715;}.eb244-11{fill:#cc3232;}</style></defs><path class="eb244-1" d="M0,33H8V32H6V31H5V23H4V20H5V19H7v1H8v1H9v2H8v2H9V24h1V20H9V16H8V15H9V10h1V9h1V8h7V9h1v1h1v5h1v1H20v4H19v4h1v1h1V23H20V21h1V20h1V19h2v1h1v3H24v8H23v1H21v1h8V0H0Z"/><rect class="eb244-2" x="9" y="24" width="1" height="1"/><path class="eb244-3" d="M12,32V31H11V30H10V29H9v4h4V32Z"/><path class="eb244-3" d="M10,26v1h2v1H10v1h1v1h1v1h1V26H12V25H11V24H10v1H9v1Z"/><rect class="eb244-2" x="10" y="29" width="1" height="1"/><rect class="eb244-2" x="11" y="22" width="1" height="1"/><rect class="eb244-3" x="11" y="23" width="1" height="1"/><rect class="eb244-2" x="11" y="24" width="1" height="1"/><rect class="eb244-2" x="11" y="30" width="1" height="1"/><rect class="eb244-2" x="12" y="25" width="1" height="1"/><path class="eb244-2" d="M17,32V31H16V26H13v5H12v1h1v1h1V27h1v6h1V32Z"/><path class="eb244-4" d="M15,27H14v6h1V27Z"/><path class="eb244-5" d="M16,24V23H13v3h3V24Z"/><path class="eb244-2" d="M17,25H16v1h1Z"/><path class="eb244-3" d="M20,29H19v1H18v1H17v1H16v1h4V29Z"/><rect class="eb244-2" x="17" y="22" width="1" height="1"/><rect class="eb244-3" x="17" y="23" width="1" height="1"/><rect class="eb244-2" x="17" y="24" width="1" height="1"/><rect class="eb244-2" x="17" y="30" width="1" height="1"/><rect class="eb244-2" x="18" y="29" width="1" height="1"/><rect class="eb244-2" x="19" y="24" width="1" height="1"/><path class="eb244-3" d="M18,25H17v1H16v5h1V30h1V29h1V28H17V27h2V26h1V25H19V24H18Z"/><path class="eb244-2" d="M22,32h1V31H22V23H21v2H20v2H17v1h2v1h1v4h1V32Z"/><path class="eb244-5" d="M23,24V23h1V20H22v1H21v2h1v1Z"/><path class="eb244-3" d="M23,24H22v7h1V24Z"/><path class="eb244-2" d="M23,29v2h1V23H23v6Z"/><rect class="eb244-6" x="9" y="26" width="1" height="1"/><path class="eb244-6" d="M19,27h1V26H19Z"/><path class="eb244-2" d="M9,29h1V28h2V27H9V25H8V23H7v8H6v1H8v1H9V29Z"/><path class="eb244-5" d="M7,24V23H8V21H7V20H5v3H6v1Z"/><path class="eb244-3" d="M7,30V24H6v7H7Z"/><path class="eb244-2" d="M6,24V23H5v8H6V24Z"/><rect class="eb244-2" x="20" y="15" width="1" height="1"/><path class="eb244-2" d="M19,15h1V14H19Z"/><path class="eb244-5" d="M10,17v1h1v1h1V18h2v1h1V18h2v1h1V18h1V16h1V15H19V11H18V10H17v1H16V10H15v1H12V10H11v1H10v4H9v1h1Zm1-3h1V13h1V12h3v1h1v1h1v1H16v1H15v1H14V16H13V15H11Z"/><polygon class="eb244-5" points="13 21 14 21 14 22 15 22 15 21 16 21 16 20 13 20 13 21"/><path class="eb244-2" d="M19,17h1V16H19Z"/><path class="eb244-2" d="M10,14H9v1h1Z"/><path class="eb244-2" d="M10,16H9v1h1Z"/><rect class="eb244-2" x="8" y="15" width="1" height="1"/><path class="eb244-7" d="M18,15V14H17v1Z"/><rect class="eb244-7" x="16" y="13" width="1" height="1"/><rect class="eb244-2" x="14" y="14" width="1" height="1"/><path class="eb244-8" d="M13,15v1h3V15h1V14H16V13H13v1H12v1Zm1-1h1v1H14Z"/><path class="eb244-7" d="M16,13V12H13v1h3Z"/><rect class="eb244-7" x="12" y="13" width="1" height="1"/><rect class="eb244-7" x="11" y="14" width="1" height="1"/><path class="eb244-2" d="M14,17h1V16H14Z"/><path class="eb244-9" d="M12,22v1h5V22h2V20h1V17H19v1H18v1H17V18H15v1h1v2H15v1H14V21H13V19H11V18H10V17H9v3h1v2h2Z"/><path class="eb244-9" d="M14,18H13v1h1Z"/><path class="eb244-10" d="M18,23h1V22H18Z"/><path class="eb244-9" d="M18,24h1V23H18Z"/><path class="eb244-10" d="M17,24V23H16v1Z"/><path class="eb244-9" d="M16,24v1h1V24Z"/><path class="eb244-10" d="M13,24V23H12v1Z"/><path class="eb244-9" d="M13,24H12v1h1Z"/><path class="eb244-10" d="M11,22H10v1h1Z"/><path class="eb244-9" d="M11,23H10v1h1Z"/><path class="eb244-2" d="M13,19v1h3V19H13Z"/><path class="eb244-2" d="M12,18v1h1V18Z"/><path class="eb244-2" d="M20,21v2h1V21Z"/><rect class="eb244-2" x="21" y="19.999" width="1" height="1"/><rect class="eb244-2" x="22" y="18.999" width="2" height="1"/><path class="eb244-2" d="M24,23h1V20H24v3Z"/><path class="eb244-2" d="M9,23V21H8v2Z"/><rect class="eb244-2" x="7" y="19.999" width="1" height="1"/><rect class="eb244-2" x="5" y="18.999" width="2" height="1"/><path class="eb244-2" d="M5,20H4v3H5V20Z"/><path class="eb244-11" d="M10,13V11h1V10h1v1h3V10h1v1h1V10h1v1h1v3h1V10H19V9H18V8H11V9H10v1H9v4h1Z"/></svg>