<svg xmlns="http://www.w3.org/2000/svg" viewBox="0 0 29 33"><defs><style>polygon,rect,path{shape-rendering:crispedges;}.qa86-1{fill:#6b4f99;}.qa86-2{fill:#000000;}.qa86-3{fill:#34e0cb;}.qa86-4{fill:#c18d59;}.qa86-5{fill:#34e0cb;}.qa86-6{fill:#6c9302;}.qa86-7{fill:#6c9302;}.qa86-8{fill:#b23b00;}.qa86-9{fill:#ffffff;}.qa86-10{fill:#0068ff;}.qa86-11{fill:#ff1f4a;}.qa86-12{fill:#ff6aa5;}.qa86-13{fill:#ad5a21;}</style></defs><path class="qa86-1" d="M0,33H6V27H7V26H8V25h2V24h1V23H10V22h1V20H10V19H9V17H8V15H7V14H9V13H7V12H9V11H8V9H9v1h2V9H10V8H9V7h1V8h1V7h1V8h1V7h2V8h1V7h1V8h1V9h1V8h2V9H20v2h1V10h1v2H21v2h1v1H21v2H20v2H19v1H18v2h3v1h1v2h1v8h6V0H0Z"/><path class="qa86-2" d="M7,27H6v6H7V27Z"/><path class="qa86-3" d="M8,27H7v6H8V27Z"/><rect class="qa86-2" x="7" y="26" width="1" height="1"/><path class="qa86-2" d="M9,27H8v6H9V27Z"/><rect class="qa86-3" x="16" y="24" width="1" height="1"/><path class="qa86-3" d="M20,27H18V26H17v3h1v1h1v3h1V27Z"/><path class="qa86-3" d="M10,30h1V29h1V25h1V24H11v1H10v1H8v1H9v6h1V30Z"/><path class="qa86-2" d="M10,25H8v1h2Z"/><rect class="qa86-2" x="10" y="24" width="1" height="1"/><rect class="qa86-2" x="10" y="22" width="1" height="1"/><rect class="qa86-3" x="11" y="22" width="1" height="1"/><path class="qa86-2" d="M13,23h3v1h1V22h1V20H17v1H16v1H13V21H12V20H11v2h1v1H11v1h2Z"/><path class="qa86-2" d="M16,25V24H13v1h3Z"/><path class="qa86-4" d="M16,24V23H13v1h3Z"/><path class="qa86-3" d="M17,23h1V22H17Z"/><path class="qa86-2" d="M21,27H20v6h1V27Z"/><path class="qa86-3" d="M22,27H21v6h1V27Z"/><path class="qa86-2" d="M23,25H22v8h1V25Z"/><path class="qa86-3" d="M16,25H13v3h3V25Z"/><path class="qa86-3" d="M16,32H12v1h5V32Z"/><rect class="qa86-3" x="12" y="30" width="1" height="1"/><rect class="qa86-3" x="16" y="30" width="1" height="1"/><path class="qa86-5" d="M19,30H18V29H17v2H16V28H13v3H12V29H11v1H10v3h2V32h5v1h2V30Z"/><path class="qa86-2" d="M13,25H12v5h1V25Z"/><path class="qa86-2" d="M16,25v5h1V25Z"/><rect class="qa86-4" x="15" y="20" width="1" height="1"/><rect class="qa86-4" x="13" y="20" width="1" height="1"/><path class="qa86-4" d="M14,12H13v1h1v1h1V12Z"/><rect class="qa86-4" x="14" y="15" width="1" height="1"/><rect class="qa86-4" x="16" y="12" width="1" height="1"/><path class="qa86-4" d="M12,19V18h5v1h2V16H15v1H14V16H10v3h2Z"/><rect class="qa86-4" x="16" y="19" width="1" height="1"/><rect class="qa86-4" x="17" y="11" width="1" height="1"/><rect class="qa86-4" x="12" y="19" width="1" height="1"/><rect class="qa86-4" x="13" y="10" width="1" height="1"/><path class="qa86-2" d="M19,16v3h1V16Z"/><path class="qa86-2" d="M18,20h1V19H18Z"/><path class="qa86-2" d="M10,19v1h1V19Z"/><path class="qa86-2" d="M10,16H9v3h1V16Z"/><rect class="qa86-2" x="14" y="16" width="1" height="1"/><rect class="qa86-6" x="12" y="12" width="1" height="1"/><rect class="qa86-6" x="17" y="12" width="1" height="1"/><path class="qa86-7" d="M17,19v1h1V19Z"/><rect class="qa86-7" x="16" y="20" width="1" height="1"/><path class="qa86-7" d="M15,20H14v1H13v1h3V21H15Z"/><path class="qa86-7" d="M14,19h3V18H12v1h2Z"/><rect class="qa86-7" x="12" y="20" width="1" height="1"/><path class="qa86-7" d="M12,19H11v1h1Z"/><path class="qa86-2" d="M13,19v1h3V19H13Z"/><path class="qa86-8" d="M12,13V12h3v1h1V12h1V11h1v2h2v4h1V15h1V14H21V12h1V10H21v1H20V9h1V8H19V9H18V8H17V7H16V8H15V7H13V8H12V7H11V8H10V9h1v1H9V9H8v2H9v1H7v1h5Zm1-3h1v1H13Z"/><path class="qa86-8" d="M9,15V14H7v1H8v2H9V15Z"/><rect class="qa86-8" x="9" y="7" width="1" height="1"/><path class="qa86-9" d="M9,16h5V15h1v1h5V13H15v1H14V13H9v3Zm7-2h3v1H16Zm-6,0h3v1H10Z"/><path class="qa86-10" d="M19,15V14H16v1h3Z"/><path class="qa86-11" d="M13,15V14H10v1h3Z"/><path class="qa86-4" d="M20,25v2h2V25H20Z"/><path class="qa86-12" d="M22,24V23H21v1Z"/><path class="qa86-12" d="M21,23V22H20v1Z"/><path class="qa86-12" d="M19,23V22H18v1Z"/><path class="qa86-12" d="M20,26V25H18v1h2Z"/><rect class="qa86-12" x="17" y="24" width="1" height="1"/><path class="qa86-13" d="M19,23H18v2h1V24h1v1h1V23H19Z"/><path class="qa86-13" d="M19,26H18v1h2V26Z"/><path class="qa86-9" d="M21,25h1V24H21Z"/><path class="qa86-9" d="M20,23V22H19v1Z"/><path class="qa86-9" d="M18,23H17v1h1Z"/><path class="qa86-9" d="M17,25v1h1V25Z"/><path class="qa86-2" d="M20,24H19v1h1Z"/></svg>