<svg xmlns="http://www.w3.org/2000/svg" viewBox="0 0 29 33"><defs><style>polygon,rect,path{shape-rendering:crispedges;}.ra94-1{fill:#d4a122;}.ra94-2{fill:#000000;}.ra94-3{fill:#94d4ff;}.ra94-4{fill:#e8b795;}.ra94-5{fill:#0079bc;}.ra94-6{fill:#8e4717;}.ra94-7{fill:#9b8100;}.ra94-8{fill:#ffffff;}</style></defs><rect class="ra94-1" x="10" y="21" width="1" height="1"/><rect class="ra94-1" x="18" y="21" width="1" height="1"/><path class="ra94-1" d="M0,33H6V27H7V26H8V25h2V24h1V23H10V22H9V21H8V20H7V19H8V12H9V10h1V9h1V8h7V9h1v1h1v2h1v7h1v1H21v1H20v1H19v1H18v1h1v1h2v1h1v1h1v6h6V0H0Z"/><path class="ra94-2" d="M23,27H22v6h1V27Z"/><path class="ra94-3" d="M22,27H21v6h1V27Z"/><rect class="ra94-2" x="21" y="26" width="1" height="1"/><path class="ra94-2" d="M21,27H20v6h1V27Z"/><path class="ra94-3" d="M16,25h1v4h1V28h1v1h1V27h1V26H19V25H18V24H16Z"/><path class="ra94-3" d="M19,32V31H18v1H17V30H16v1H15v1H13V30H12v2H11V31H10v1H9v1H20V32Z"/><path class="ra94-3" d="M9,27v2h1V28h1v1h1V25h1V24H11v1H10v1H8v1Z"/><rect class="ra94-3" x="18" y="29" width="1" height="1"/><rect class="ra94-3" x="10" y="29" width="1" height="1"/><path class="ra94-2" d="M20,26h1V25H19v1Z"/><rect class="ra94-2" x="18" y="24" width="1" height="1"/><rect class="ra94-2" x="18" y="22" width="1" height="1"/><rect class="ra94-3" x="17" y="22" width="1" height="1"/><path class="ra94-2" d="M16,25V24H13v1h3Z"/><path class="ra94-4" d="M16,24V23H13v1h3Z"/><path class="ra94-2" d="M13,23h3v1h2V23H17V21H16v1H13V21H12v2H11v1h2Z"/><path class="ra94-3" d="M12,22H11v1h1Z"/><rect class="ra94-2" x="10" y="24" width="1" height="1"/><rect class="ra94-2" x="10" y="22" width="1" height="1"/><path class="ra94-2" d="M10,25H8v1h2Z"/><path class="ra94-2" d="M9,31V27H8v6H9V31Z"/><path class="ra94-3" d="M8,27H7v6H8V27Z"/><rect class="ra94-2" x="7" y="26" width="1" height="1"/><path class="ra94-2" d="M7,27H6v6H7V27Z"/><path class="ra94-3" d="M14,29v2h1V29Z"/><path class="ra94-3" d="M13,28h2v1h1V25H13v3Z"/><path class="ra94-5" d="M19,30H18V29H17v3h1V31h1v1h1V29H19Z"/><rect class="ra94-5" x="18" y="28" width="1" height="1"/><path class="ra94-5" d="M15,29v2h1V29Z"/><path class="ra94-5" d="M14,30V29h1V28H13v4h2V31H14Z"/><path class="ra94-5" d="M11,29v1H10V29H9v3h1V31h1v1h1V29Z"/><rect class="ra94-5" x="10" y="28" width="1" height="1"/><path class="ra94-2" d="M13,27V25H12v5h1V27Z"/><path class="ra94-2" d="M17,28V25H16v5h1V28Z"/><path class="ra94-2" d="M20,16h1V15H20Z"/><rect class="ra94-2" x="19" y="14" width="1" height="1"/><rect class="ra94-4" x="19" y="15" width="1" height="1"/><path class="ra94-4" d="M18,20V19h1V16H18v1H16V16H15v1H14V16H13v1H11V16H10v3h1v1h1v1h1v1h3V21h1V20Zm-2-1v1H13V19h3V18h1v1Z"/><rect class="ra94-4" x="14" y="15" width="1" height="1"/><rect class="ra94-4" x="9" y="15" width="1" height="1"/><path class="ra94-4" d="M13,13v1h3V12h1V11H16V10H13v1H12v2Z"/><path class="ra94-2" d="M19,17v2h1V16H19Z"/><rect class="ra94-2" x="18" y="19" width="1" height="1"/><rect class="ra94-2" x="17" y="20" width="1" height="1"/><rect class="ra94-2" x="11" y="20" width="1" height="1"/><rect class="ra94-2" x="10" y="19" width="1" height="1"/><rect class="ra94-2" x="9" y="14" width="1" height="1"/><path class="ra94-2" d="M10,16H9v3h1V16Z"/><path class="ra94-2" d="M9,15H8v1H9Z"/><rect class="ra94-2" x="14" y="16" width="1" height="1"/><path class="ra94-6" d="M16,13h2V12H16Z"/><path class="ra94-6" d="M12,12H11v1h1Z"/><rect class="ra94-2" x="13" y="19" width="3" height="1"/><rect class="ra94-2" x="16" y="18" width="1" height="1"/><path class="ra94-7" d="M20,17v2H19v1H18v1h1v1h1V21h1V20h1V19H21V16H20Z"/><path class="ra94-7" d="M9,14h2V12h1V11h1V10h3v1h1v1h1v2h2v1h1V12H20V10H19V9H18V8H11V9H10v1H9v2H8v3H9Z"/><path class="ra94-7" d="M11,21V20H10V19H9V16H8v3H7v1H8v1H9v1h1V21Z"/><path class="ra94-7" d="M11,22h1V21H11Z"/><path class="ra94-7" d="M18,21H17v1h1Z"/><path class="ra94-8" d="M13,13H11v1h2Z"/><path class="ra94-8" d="M11,17h2V16H11Z"/><path class="ra94-8" d="M10,16h1V14H10v2Z"/><path class="ra94-2" d="M13,16V14H11v2Z"/><path class="ra94-8" d="M19,16V14H18v2Z"/><path class="ra94-8" d="M16,14h2V13H16Z"/><path class="ra94-8" d="M16,17h2V16H16Z"/><path class="ra94-8" d="M13,14v2h1V15h1v1h1V14Z"/><path class="ra94-2" d="M16,16h2V14H16Z"/></svg>