<svg xmlns="http://www.w3.org/2000/svg" viewBox="0 0 29 33"><defs><style>polygon,rect,path{shape-rendering:crispedges;}.ma45-1{fill:#b4bd09;}.ma45-2{fill:#000000;}.ma45-3{fill:#004a77;}.ma45-4{fill:#ffffff;}.ma45-5{fill:#ce8452;}.ma45-6{fill:#ff791f;}.ma45-7{fill:#ffffff;}.ma45-8{fill:#663434;}.ma45-9{fill:#663434;}.ma45-10{fill:#0068ff;}</style></defs><rect class="ma45-1" x="16" y="8" width="1" height="1"/><path class="ma45-1" d="M0,33H6V27H7V26H8V25h2V24h2V21H11V20H10V19H9V16H8V15H9V10h1V9h1V8h1V9h1V8h3V7h1V8h2V9h1v6h1v1H20v3H19v1H18v1H17v3h2v1h2v1h1v1h1v6h6V0H0Z"/><path class="ma45-2" d="M23,27H22v6h1V27Z"/><rect class="ma45-2" x="21" y="26" width="1" height="1"/><path class="ma45-3" d="M21,30v1h1V29H21Z"/><path class="ma45-3" d="M21,32v1h1V32Z"/><path class="ma45-3" d="M21,28h1V27H21Z"/><path class="ma45-2" d="M21,31V27H20v6h1V31Z"/><path class="ma45-3" d="M19,32v1h1V32Z"/><path class="ma45-3" d="M19,26v1H18v3h1v1h1V29H19V28h1V27h1V26H19Z"/><path class="ma45-2" d="M20,26h1V25H19v1Z"/><path class="ma45-2" d="M18,30V25h1V24H17v1H16v1h1v7h1V30Z"/><path class="ma45-4" d="M17,26H16v1H13V26H12v7h5V26Z"/><path class="ma45-2" d="M13,26v1h3V26H13Z"/><path class="ma45-2" d="M13,23V22H12v2h1Z"/><path class="ma45-5" d="M13,25v1h3V25h1V24H16V23H13v1H12v1Z"/><path class="ma45-2" d="M12,26h1V25H12V24H10v1h1v8h1V26Z"/><rect class="ma45-3" x="9" y="32" width="1" height="1"/><path class="ma45-3" d="M9,27v1h1v1H9v2h1V30h1V27H10V26H8v1Z"/><path class="ma45-2" d="M10,25H8v1h2Z"/><path class="ma45-2" d="M9,31V27H8v6H9V31Z"/><rect class="ma45-2" x="7" y="26" width="1" height="1"/><path class="ma45-3" d="M7,32v1H8V32Z"/><path class="ma45-3" d="M7,30v1H8V29H7Z"/><path class="ma45-3" d="M8,28V27H7v1Z"/><path class="ma45-2" d="M7,31V27H6v6H7V31Z"/><path class="ma45-6" d="M11,30H10v1H9v1h1v1h1V30Z"/><path class="ma45-6" d="M10,27h1V25H10v2Z"/><path class="ma45-6" d="M18,26v1h1V25H18Z"/><path class="ma45-6" d="M7,29H8V28H7Z"/><path class="ma45-6" d="M10,28H9v1h1Z"/><path class="ma45-6" d="M21,29h1V28H21Z"/><path class="ma45-6" d="M19,29h1V28H19Z"/><path class="ma45-6" d="M21,32h1V31H21Z"/><path class="ma45-6" d="M7,32H8V31H7Z"/><path class="ma45-6" d="M20,32V31H19V30H18v3h1V32Z"/><rect class="ma45-2" x="20" y="15" width="1" height="1"/><path class="ma45-2" d="M19,15h1V14H19Z"/><rect class="ma45-5" x="9" y="15" width="1" height="1"/><rect class="ma45-5" x="10" y="12" width="1" height="1"/><rect class="ma45-5" x="13" y="20" width="1" height="1"/><rect class="ma45-5" x="15" y="20" width="1" height="1"/><path class="ma45-5" d="M18,16H16V14H14v2h1v1H14V16H13v1H11V16H10v2h1v1h1V18h5v1h1V18h1V16Z"/><path class="ma45-5" d="M17,13v1h2V13H17Z"/><path class="ma45-5" d="M13,13H11v1h3V13h2V12h2V11H13V10H12v1H11v1h2Z"/><rect class="ma45-5" x="19" y="15" width="1" height="1"/><path class="ma45-2" d="M19,17h1V16H19Z"/><path class="ma45-2" d="M16,23v1h1V22H16Z"/><path class="ma45-2" d="M10,16H9v1h1Z"/><rect class="ma45-2" x="8" y="15" width="1" height="1"/><rect class="ma45-2" x="14" y="16" width="1" height="1"/><path class="ma45-7" d="M16,14v2h1V14Z"/><path class="ma45-7" d="M18,15v1h1V14H18Z"/><path class="ma45-2" d="M18,14H17v2h1V14Z"/><rect class="ma45-8" x="10" y="13" width="1" height="1"/><rect class="ma45-8" x="11" y="12" width="2" height="1"/><rect class="ma45-8" x="16" y="13" width="1" height="1"/><path class="ma45-8" d="M18,13h1V12H18Z"/><path class="ma45-9" d="M13,23h3V22h1V21h1V20h1V19h1V17H19v1H18v1H16v2H15V20H14v1H13V19H11V18H10V17H9v2h1v1h1v1h1v1h1Z"/><path class="ma45-2" d="M12,18v1h1V18Z"/><path class="ma45-2" d="M16,18v1h1V18Z"/><path class="ma45-2" d="M15,18H14v1H13v1h3V19H15Z"/><path class="ma45-7" d="M14,18H13v1h1Z"/><path class="ma45-7" d="M15,18v1h1V18Z"/><path class="ma45-10" d="M19,12v2h1V11H19Z"/><path class="ma45-10" d="M10,14H9v1h1Z"/><path class="ma45-10" d="M10,12h1V11h1V10h1v1h6V10h1V9H19V8H17V9H16V8H13V9H12V8H11V9H10v1H9v3h1Z"/><rect class="ma45-10" x="16" y="7" width="1" height="1"/><path class="ma45-2" d="M11,17h2V16h1V14H10v2h1Z"/><rect class="ma45-2" x="14" y="13" width="2" height="1"/><path class="ma45-2" d="M18,13V12H16v1h2Z"/><path class="ma45-2" d="M19,12V11H18v1Z"/><path class="ma45-2" d="M19,11h1V10H19Z"/><path class="ma45-2" d="M10,13H9v1h1Z"/></svg>