<svg xmlns="http://www.w3.org/2000/svg" viewBox="0 0 29 33"><defs><style>polygon,rect,path{shape-rendering:crispedges;}.na173-1{fill:#d4a122;}.na173-2{fill:#000000;}.na173-3{fill:#3e5e00;}.na173-4{fill:#d8be00;}.na173-5{fill:#e8b795;}.na173-6{fill:#99ce09;}.na173-7{fill:#ffffff;}.na173-8{fill:#893a1f;}.na173-9{fill:#893a1f;}.na173-10{fill:#f9e100;}</style></defs><path class="na173-1" d="M0,33H6V27H7V26H8V25h2V24h2V21H9V20H8V19H9V17H8V15H7V14H9V13H7V12H9V11H8V9H9v1h2V9H10V8H9V7h1V8h1V7h1V8h1V7h2V8h1V7h1V8h1V9h1V8h2V9H20v2h1V10h1v2H21v2h1v1H21v2H20v2h1v1H20v1H17v3h2v1h2v1h1v1h1v6h6V0H0Z"/><path class="na173-2" d="M23,27H22v6h1V27Z"/><rect class="na173-2" x="21" y="26" width="1" height="1"/><path class="na173-3" d="M21,31h1V30H21Z"/><path class="na173-3" d="M21,28h1V27H21Z"/><path class="na173-2" d="M21,30V27H20v6h1V30Z"/><path class="na173-3" d="M18,28h2V27H18Z"/><path class="na173-3" d="M18,31h2V30H18Z"/><path class="na173-2" d="M20,26h1V25H19v1Z"/><path class="na173-2" d="M18,30V25h1V24H17v1H16v1h1v7h1V30Z"/><path class="na173-4" d="M17,26H16v1H13V26H12v7h5V26Z"/><path class="na173-2" d="M13,26v1h3V26H13Z"/><path class="na173-2" d="M13,23h3v1h1V21H16v1H13V21H12v3h1Z"/><path class="na173-5" d="M13,25v1h3V25h1V24H16V23H13v1H12v1Z"/><path class="na173-2" d="M12,26h1V25H12V24H10v1h1v8h1V26Z"/><path class="na173-3" d="M9,31h2V30H9Z"/><path class="na173-3" d="M9,28h2V27H9Z"/><path class="na173-2" d="M10,25H8v1h2Z"/><path class="na173-2" d="M9,30V27H8v6H9V30Z"/><rect class="na173-2" x="7" y="26" width="1" height="1"/><path class="na173-3" d="M8,28V27H7v1Z"/><path class="na173-3" d="M7,31H8V30H7Z"/><path class="na173-2" d="M7,30V27H6v6H7V30Z"/><path class="na173-6" d="M9,31v2h2V31Z"/><path class="na173-6" d="M18,31v2h2V31Z"/><path class="na173-6" d="M18,29v1h2V28H18Z"/><path class="na173-6" d="M9,29v1h2V28H9Z"/><path class="na173-6" d="M18,26v1h3V26H19V25H18Z"/><path class="na173-6" d="M9,27h2V25H10v1H8v1Z"/><path class="na173-6" d="M7,29v1H8V28H7Z"/><path class="na173-6" d="M7,31v2H8V31Z"/><path class="na173-6" d="M21,31v2h1V31Z"/><path class="na173-6" d="M21,29v1h1V28H21Z"/><rect class="na173-2" x="19" y="13" width="1" height="1"/><path class="na173-5" d="M13,22h3V21h1V19h1V18h1V16h1V15H16V13H15V12H12v1h1v2H9v1h1v2h1v1h1V18h1v1h3v1H13V19H12v2h1Zm2-5H14V16h1Z"/><rect class="na173-5" x="13" y="10" width="1" height="1"/><path class="na173-5" d="M18,13V11H17v1H16v1h2Z"/><path class="na173-2" d="M17,20v1h1V20Z"/><path class="na173-2" d="M11,20v1h1V20Z"/><rect class="na173-2" x="14" y="16" width="1" height="1"/><path class="na173-7" d="M12,15h1V14H12Z"/><path class="na173-7" d="M10,14v1h1V14Z"/><path class="na173-7" d="M18,14v1h1V14Z"/><path class="na173-7" d="M16,14v1h1V14Z"/><path class="na173-2" d="M11,14v1h1V14Z"/><path class="na173-2" d="M17,14v1h1V14Z"/><path class="na173-8" d="M10,14h3V13H10Z"/><path class="na173-8" d="M17,13H16v1h1Z"/><path class="na173-9" d="M19,16v2H18v1H17v1h1v1h2V20h1V19H20V16Z"/><path class="na173-9" d="M12,20V19H11V18H10V16H9v3H8v1H9v1h2V20Z"/><rect class="na173-2" x="13" y="19" width="3" height="1"/><rect class="na173-2" x="12" y="18" width="1" height="1"/><path class="na173-10" d="M9,15h1V13h2V12h3v1h1V12h1V11h1v2H17v1h2V13h1v1H19v1h1v2h1V15h1V14H21V12h1V10H21v1H20V9h1V8H19V9H18V8H17V7H16V8H15V7H13V8H12V7H11V8H10V9h1v1H9V9H8v2H9v1H7v1H9v1H7v1H8v2H9V15Zm4-5h1v1H13Z"/><rect class="na173-10" x="9" y="7" width="1" height="1"/></svg>