<svg xmlns="http://www.w3.org/2000/svg" viewBox="0 0 29 33"><defs><style>polygon,rect,path{shape-rendering:crispedges;}.la258-1{fill:#000000;}.la258-2{fill:#b8a4ff;}.la258-3{fill:#5a2de2;}.la258-4{fill:#b2622b;}.la258-5{fill:#ffffff;}.la258-6{fill:#fad000;}.la258-7{fill:#d14646;}.la258-8{fill:#893a1f;}.la258-9{fill:#dfdfdf;}.la258-10{fill:#b2622b;}</style></defs><path class="la258-1" d="M23,27H22v6h1V27Z"/><rect class="la258-1" x="21" y="26" width="1" height="1"/><path class="la258-2" d="M21,28h1V27H21Z"/><path class="la258-2" d="M21,31v1h1V30H21Z"/><path class="la258-1" d="M21,31V27H20v6h1V31Z"/><path class="la258-1" d="M20,26h1V25H19v1Z"/><path class="la258-2" d="M10,31V30H9v2h1v1h1V31Z"/><path class="la258-2" d="M13,31V30H12V28H11V27H10V26H9v2h1v1h1v2h1v1h1v1h1V31Z"/><rect class="la258-2" x="12" y="27" width="1" height="1"/><path class="la258-2" d="M19,31V30H18V28H17V27H16v2h1v2h1v1h1v1h1V31Z"/><path class="la258-2" d="M16,31V30H14v1h1v1h1v1h1V31Z"/><path class="la258-2" d="M18,26v2h1v1h1V27H19V25H18Z"/><path class="la258-1" d="M10,26V25H8v1h2Z"/><path class="la258-1" d="M9,31V27H8v6H9V31Z"/><rect class="la258-1" x="7" y="26" width="1" height="1"/><path class="la258-2" d="M8,29V27H7v2Z"/><path class="la258-2" d="M7,31v2H8V31Z"/><path class="la258-1" d="M7,30V27H6v6H7V30Z"/><path class="la258-3" d="M21,29v1h1V28H21Z"/><path class="la258-3" d="M21,32v1h1V32Z"/><path class="la258-3" d="M19,26v1h2V26H19Z"/><path class="la258-3" d="M19,28H18v2h1v1h1V29H19Z"/><path class="la258-3" d="M17,26v2h1V26Z"/><path class="la258-3" d="M18,32V31H17v2h2V32Z"/><path class="la258-3" d="M15,30h1v1h1V29H15Z"/><path class="la258-3" d="M15,32V31H14v2h2V32Z"/><path class="la258-3" d="M13,29V28H12v2h1v1h1V29Z"/><path class="la258-3" d="M10,27h1v1h1V26H11V25H10v2Z"/><path class="la258-3" d="M12,32V31H11v2h2V32Z"/><path class="la258-3" d="M10,30v1h1V29H10V28H9v2Z"/><path class="la258-3" d="M9,32v1h1V32Z"/><path class="la258-3" d="M9,27V26H8v1Z"/><path class="la258-3" d="M7,30v1H8V29H7Z"/><path class="la258-4" d="M19,15H16v1h3Z"/><path class="la258-4" d="M13,15H10v1h3Z"/><rect class="la258-4" x="13" y="20" width="3" height="1"/><path class="la258-5" d="M13,14H12v1h1Z"/><path class="la258-5" d="M11,14H10v1h1Z"/><path class="la258-5" d="M19,14H18v1h1Z"/><path class="la258-5" d="M17,14H16v1h1Z"/><path class="la258-1" d="M14,29v1h1V29Z"/><path class="la258-1" d="M13,26H12v1h1Z"/><path class="la258-1" d="M15,28v1h1V27H15Z"/><path class="la258-1" d="M16,26v1h1V26Z"/><path class="la258-1" d="M13,29h1V27H13v2Z"/><rect class="la258-1" x="17" y="25" width="1" height="1"/><rect class="la258-1" x="11" y="25" width="1" height="1"/><rect class="la258-6" x="16" y="25" width="1" height="1"/><path class="la258-6" d="M15,26V25H14v1H13v1h1v2h1V27h1V26Z"/><rect class="la258-6" x="12" y="25" width="1" height="1"/><path class="la258-6" d="M11,25h1V23H11v2Z"/><path class="la258-6" d="M17,24v1h1V23H17Z"/><path class="la258-1" d="M19,25V23H18v2Z"/><path class="la258-1" d="M11,24V23H10v2h1Z"/><path class="la258-7" d="M0,9V33H6V27H7V26H8V25h2V23h1V21H10V20H9V17H8V15H9V13H7V12H5V11H7v1H9V10h1V8h1V7h2V8h3V7h2V8h1V7h1V6h2V8H21V9H20v3h2V11h2v1H22v1H20v2h1v2H20v3H19v1H18v2h1v2h2v1h1v1h1v6h6V0H0Z"/><path class="la258-1" d="M12,24v1h1v1h1V25h1v1h1V25h1V23h1V21h1V20h1V17h1V15H20V13H9v2H8v2H9v3h1v1h1v2h1Zm4-9V14h1v1h1V14h1v2H16Zm0,6H13V20h3Zm-5-5H10V14h1v1h1V14h1v2Z"/><path class="la258-8" d="M24,11H22v1h2Z"/><path class="la258-9" d="M21,8h1V7H21Z"/><path class="la258-8" d="M20,13h2V12H20V11H19v1H10V11H9v1H7v1H20Z"/><rect class="la258-9" x="20" y="8" width="1" height="1"/><path class="la258-10" d="M19,11h1V10H19Z"/><path class="la258-5" d="M18,11h1V10h1V8h1V7h1V6H20V7H19V8H18v3Z"/><path class="la258-10" d="M17,11H10v1h9V11H17Z"/><path class="la258-8" d="M11,11h7V7H16V8H13V7H11V8H10v3Z"/><path class="la258-10" d="M10,10H9v1h1Z"/><path class="la258-8" d="M6,11H5v1H7V11Z"/></svg>