<svg xmlns="http://www.w3.org/2000/svg" viewBox="0 0 29 33"><defs><style>polygon,rect,path{shape-rendering:crispedges;}.eb79-1{fill:#d4a122;}.eb79-2{fill:#000000;}.eb79-3{fill:#333333;}.eb79-4{fill:#ffffff;}.eb79-5{fill:#a56e49;}.eb79-6{fill:#90a2a3;}.eb79-7{fill:#ffffff;}.eb79-8{fill:#326b43;}.eb79-9{fill:#326b43;}.eb79-10{fill:#cc2f76;}</style></defs><path class="eb79-1" d="M0,33H6V27H7V26H8V25H9V24h1V23h1V22h1V21H11V20H10V19H9V16H8V14H9V12H8v1H7V12H8V11H9V10h1V9h2V8h5V9h2v1h1v1h1v1h1v1H21V12H20v2h1v2H20v3H19v1H18v1H17v1h1v1h1v1h1v1h1v1h1v1h1v6h6V0H0Z"/><path class="eb79-2" d="M23,27H22v6h1V27Z"/><path class="eb79-3" d="M22,27H21v6h1V27Z"/><path class="eb79-2" d="M21,27h1V26H21V25H20v2H17v1h2v1h1v4h1V27Z"/><rect class="eb79-2" x="19" y="24" width="1" height="1"/><path class="eb79-3" d="M20,29H19v1H18v1H17v1H16v1h4V29Z"/><rect class="eb79-2" x="18" y="23" width="1" height="1"/><path class="eb79-3" d="M18,25H17v1H16v5h1V30h1V29h1V28H17V27h2V26h1V25H19V24H18Z"/><rect class="eb79-3" x="17" y="23" width="1" height="1"/><rect class="eb79-2" x="17" y="24" width="1" height="1"/><rect class="eb79-2" x="18" y="29" width="1" height="1"/><rect class="eb79-2" x="16" y="25" width="1" height="1"/><path class="eb79-4" d="M15,27H14v6h1V27Z"/><path class="eb79-2" d="M12,24h1V23h3v1h1V23h1V22H17V21H16v1H13V21H12v1H11v1h1Z"/><path class="eb79-5" d="M17,25V24H16V23H13v1H12v1h1v1h3V25Z"/><rect class="eb79-2" x="12" y="25" width="1" height="1"/><path class="eb79-3" d="M12,32V31H11V30H10V29H9v4h4V32Z"/><rect class="eb79-3" x="11" y="23" width="1" height="1"/><rect class="eb79-2" x="11" y="24" width="1" height="1"/><rect class="eb79-2" x="11" y="30" width="1" height="1"/><rect class="eb79-2" x="10" y="23" width="1" height="1"/><rect class="eb79-2" x="9" y="24" width="1" height="1"/><path class="eb79-3" d="M10,26v1h2v1H10v1h1v1h1v1h1V26H12V25H11V24H10v1H9v1Z"/><path class="eb79-2" d="M9,29h1V28h2V27H9V25H8v1H7v1H8v6H9V29Z"/><path class="eb79-3" d="M8,27H7v6H8V27Z"/><path class="eb79-2" d="M7,27H6v6H7V27Z"/><rect class="eb79-2" x="10" y="29" width="1" height="1"/><rect class="eb79-2" x="17" y="30" width="1" height="1"/><path class="eb79-2" d="M17,32V31H16V26H13v5H12v1h1v1h1V27h1v6h1V32Z"/><path class="eb79-6" d="M9,26v1h1V26Z"/><path class="eb79-6" d="M19,27h1V26H19Z"/><path class="eb79-2" d="M20,16h1V15H20Z"/><rect class="eb79-2" x="19" y="14" width="1" height="1"/><path class="eb79-5" d="M14,21V20H13V19h3V18h1v1H16v1H15v1h2V20h1V19h1V16h1V15H16V14h2V13H16V12H15V11H14v1H12v1h1v2H9v1h1v3h1v1h1v1h2Zm0-5h1v1H14Z"/><path class="eb79-5" d="M10,14h2V13H10Z"/><path class="eb79-2" d="M19,17v2h1V16H19Z"/><rect class="eb79-2" x="18" y="19" width="1" height="1"/><rect class="eb79-2" x="17" y="20" width="1" height="1"/><rect class="eb79-2" x="11" y="20" width="1" height="1"/><rect class="eb79-2" x="10" y="19" width="1" height="1"/><path class="eb79-2" d="M10,15h2V14H9v1Z"/><path class="eb79-2" d="M10,16H9v3h1V16Z"/><path class="eb79-2" d="M8,15v1H9V15Z"/><rect class="eb79-2" x="14" y="16" width="1" height="1"/><path class="eb79-7" d="M18,14v1h1V14Z"/><path class="eb79-7" d="M12,15h1V14H12Z"/><path class="eb79-2" d="M17,14H16v1h2V14Z"/><rect class="eb79-8" x="18" y="13" width="1" height="1"/><path class="eb79-8" d="M16,12v1h1V12Z"/><path class="eb79-8" d="M13,14V13H12v1Z"/><path class="eb79-9" d="M15,20H14v1H13v1h3V21H15Z"/><polygon class="eb79-2" points="16 20 16 19 13 19 13 20 14 20 15 20 16 20"/><rect class="eb79-2" x="16" y="18" width="1" height="1"/><rect class="eb79-10" x="21" y="12" width="1" height="1"/><path class="eb79-10" d="M10,13h2V12h2V11h1v1h2v1h2v1h1V12h1V11H20V10H19V9H17V8H12V9H10v1H9v1H8v1H9v2h1Z"/><path class="eb79-10" d="M21,15V14H20v1Z"/><path class="eb79-10" d="M9,14H8v1H9Z"/><rect class="eb79-10" x="7" y="12" width="1" height="1"/></svg>