<svg xmlns="http://www.w3.org/2000/svg" viewBox="0 0 29 33"><defs><style>polygon,rect,path{shape-rendering:crispedges;}.ma139-1{fill:#d14646;}.ma139-2{fill:#000000;}.ma139-3{fill:#a0688d;}.ma139-4{fill:#cc3232;}.ma139-5{fill:#efcaaf;}.ma139-6{fill:#6f7032;}.ma139-7{fill:#ffffff;}.ma139-8{fill:#004a77;}.ma139-9{fill:#004a77;}.ma139-10{fill:#ff1f4a;}.ma139-11{fill:#280000;}.ma139-12{fill:#ff5e17;}.ma139-13{fill:#560000;}.ma139-14{fill:#900;}.ma139-15{fill:#fad000;}</style></defs><rect class="ma139-1" x="9" y="25" width="1"/><path class="ma139-1" d="M12,21H11v3h1V21Z"/><path class="ma139-1" d="M6,32V27H5V26H6V25H5V24H4V21H5V20H6V19H9V18H8V13H9V11h1V10h1V9h7v1h1v1h1v1h1v6H20v2H19v1H17v3h2v1h2v1h1v1h1v6h6V0H0V33H6Z"/><path class="ma139-2" d="M23,27H22v6h1V27Z"/><path class="ma139-3" d="M21,31v2h1V31Z"/><path class="ma139-3" d="M21,28v2h1V27H21Z"/><rect class="ma139-2" x="21" y="26" width="1" height="1"/><path class="ma139-2" d="M21,30V27H20v6h1V30Z"/><path class="ma139-3" d="M20,32V26H19V25H18v3h1v1H18v4h1V32Z"/><path class="ma139-2" d="M20,26h1V25H19v1Z"/><path class="ma139-2" d="M18,29V25h1V24H17v1H16v1h1v7h1V29Z"/><path class="ma139-4" d="M17,26H16v1H13V26H12v7h5V26Z"/><path class="ma139-2" d="M13,26v1h3V26H13Z"/><path class="ma139-5" d="M16,23H13v1H12v1h1v1h3V25h1V24H16Z"/><path class="ma139-2" d="M12,26h1V25H12V24H10v1h1v8h1V26Z"/><path class="ma139-3" d="M11,29H10V28h1V25H10v2H9v5h1v1h1V29Z"/><path class="ma139-2" d="M9,26v1h1V25H9Z"/><path class="ma139-2" d="M9,31V27H8v1H8v5H9V31Z"/><path class="ma139-3" d="M7,32v1H8V32Z"/><path class="ma139-3" d="M7,29v2H8V28H7Z"/><path class="ma139-2" d="M7,31V28H7V27H6v6H7V31Z"/><path class="ma139-6" d="M19,29V28H18v1Z"/><path class="ma139-6" d="M10,29h1V28H10Z"/><polygon class="ma139-6" points="7 28 8 28 8 28 7 28 7 28"/><path class="ma139-6" d="M20,27h1V26H20Z"/><path class="ma139-6" d="M9,32v1h1V32Z"/><path class="ma139-6" d="M19,32v1h1V32Z"/><path class="ma139-6" d="M21,31h1V30H21Z"/><path class="ma139-6" d="M7,32H8V31H7Z"/><rect class="ma139-2" x="19" y="14" width="1" height="1"/><rect class="ma139-5" x="19" y="15" width="1" height="1"/><path class="ma139-5" d="M18,20V15H16v1H15v1H14V16h1V14h1V12H15V11H14v4H13v2H12V15H11v5h1v1h1v1h3V21h1V20Zm-2-1v1H13V19h3V18h1v1Z"/><rect class="ma139-5" x="9" y="15" width="1" height="1"/><rect class="ma139-5" x="17" y="13" width="1" height="1"/><rect class="ma139-5" x="17" y="11" width="1" height="1"/><rect class="ma139-5" x="11" y="13" width="1" height="1"/><rect class="ma139-5" x="12" y="12" width="1" height="1"/><rect class="ma139-2" x="19" y="16" width="1" height="1"/><path class="ma139-2" d="M16,22H13V21H12v3h1V23h3v1h1V21H16Z"/><rect class="ma139-2" x="9" y="16" width="1" height="1"/><rect class="ma139-2" x="14" y="16" width="1" height="1"/><rect class="ma139-7" x="12" y="14" width="1" height="1"/><path class="ma139-7" d="M17,15V14H16v1Z"/><rect class="ma139-2" x="11" y="14" width="1" height="1"/><path class="ma139-2" d="M18,15V14H17v1Z"/><rect class="ma139-8" x="17" y="12" width="1" height="1"/><rect class="ma139-8" x="12" y="13" width="1" height="1"/><rect class="ma139-8" x="11" y="12" width="1" height="1"/><path class="ma139-9" d="M19,18H18v2H17v1h2V18Z"/><rect class="ma139-9" x="19" y="17" width="1" height="1"/><path class="ma139-9" d="M11,21h1V20H11V18H10v3Z"/><rect class="ma139-9" x="9" y="17" width="1" height="1"/><rect class="ma139-2" x="13" y="19" width="3" height="1"/><rect class="ma139-2" x="16" y="18" width="1" height="1"/><path class="ma139-10" d="M9,16V15h1v3h1V12h2v3h1V11h1v1h1v2h1V11h1v7h1V14h1v4h1V12H20V11H19V10H18V9H11v1H10v1H9v2H8v5H9V16Z"/><path class="ma139-10" d="M19,19v1h1V18H19Z"/><path class="ma139-10" d="M15,15v1h1V14H15Z"/><path class="ma139-10" d="M12,16v1h1V15H12Z"/><path class="ma139-10" d="M10,20V18H9v2Z"/><path class="ma139-5" d="M7,27v1H8V27H9V26H6v1Z"/><polygon class="ma139-2" points="5 26 5 27 6 27 6 26 5 26"/><path class="ma139-11" d="M6,22V21H7V19H6v1H5v2Z"/><path class="ma139-11" d="M10,23H9v1H8v2H9V25h1V24h0Z"/><rect class="ma139-12" x="6" y="24" width="1" height="1"/><path class="ma139-2" d="M10,21V20H9v1Z"/><path class="ma139-2" d="M10,21h0v1h1V21H10Z"/><path class="ma139-13" d="M10,23v1h1V22H10Z"/><path class="ma139-14" d="M10,21H9v2h1V21Z"/><polygon class="ma139-12" points="9 21 9 20 8 20 8 21 9 21"/><path class="ma139-13" d="M5,22V21H4v2H5Z"/><path class="ma139-14" d="M6,23V22H5v2H6Z"/><path class="ma139-2" d="M8,25H6v1H8Z"/><path class="ma139-2" d="M8,20H9V19H7v1Z"/><path class="ma139-15" d="M8,20H7v1H8Z"/><polygon class="ma139-15" points="6 21 6 22 6 23 6 24 7 24 7 21 6 21"/><path class="ma139-15" d="M7,24v1H8V24Z"/><path class="ma139-15" d="M8,21v3H9V21Z"/><rect class="ma139-13" x="7" y="21" width="1" height="3"/><rect class="ma139-2" x="5" y="24" width="1" height="1"/><path class="ma139-2" d="M4,23v1H5V23Z"/></svg>