<svg xmlns="http://www.w3.org/2000/svg" viewBox="0 0 29 33"><defs><style>polygon,rect,path{shape-rendering:crispedges;}.bb88-1{fill:#d4a122;}.bb88-2{fill:#000000;}.bb88-3{fill:#8c7850;}.bb88-4{fill:#ffffff;}.bb88-5{fill:#b2622b;}.bb88-6{fill:#e2e2e2;}.bb88-7{fill:#0068ff;}.bb88-8{fill:#0068ff;}.bb88-9{fill:#45ba00;}</style></defs><path class="bb88-1" d="M0,33H6V27H7V26H8V25h2V24h1V23h1V21H11V20H10V19H9V16H8V15H9V11h1V10h1V9h2V7h1V6h2V5h2V6H17V7h1V9h1v2h1v4h1v1H20v3h3v1h1v1h1v3H24v1H23v1h1v1H23v6h6V0H0Z"/><path class="bb88-1" d="M17,21v2h1V21Z"/><rect class="bb88-1" x="18" y="20" width="1" height="1"/><rect class="bb88-1" x="19" y="19" width="1" height="1"/><path class="bb88-2" d="M7,27H6v6H7V27Z"/><rect class="bb88-2" x="7" y="26" width="1" height="1"/><path class="bb88-3" d="M8,27H7v6H8V27Z"/><path class="bb88-2" d="M9,27H8v6H9V27Z"/><path class="bb88-2" d="M10,25H8v1h2Z"/><path class="bb88-3" d="M12,29H11V25H10v1H8v1H9v6h3V29Z"/><path class="bb88-2" d="M11,26v3h1V26h1V25H12V24h1V23h1v1H13v1h3V24H15V23h1v1h1v1H16v1h1v3h1V25h1V24H18V23H17V21H16v1H13V21H12v2H11v1H10v1h1Z"/><rect class="bb88-4" x="12" y="24" width="1" height="1"/><path class="bb88-2" d="M13,29H12v4h1V29Z"/><rect class="bb88-4" x="13" y="23" width="1" height="1"/><path class="bb88-4" d="M16,29h1V26H16V25H13v1H12v3h1v4h1V32h1v1h1V29Zm-1,2H14V30h1Zm0-2H14V28h1Zm0-2H14V26h1Z"/><rect class="bb88-2" x="14" y="26" width="1" height="1"/><rect class="bb88-2" x="14" y="28" width="1" height="1"/><rect class="bb88-2" x="14" y="30" width="1" height="1"/><rect class="bb88-2" x="14" y="32" width="1" height="1"/><rect class="bb88-4" x="15" y="23" width="1" height="1"/><rect class="bb88-4" x="16" y="24" width="1" height="1"/><path class="bb88-2" d="M17,29H16v4h1V29Z"/><path class="bb88-3" d="M20,27H19V25H18v4H17v4h3V27Z"/><path class="bb88-2" d="M21,29V27H20v6h1V29Z"/><path class="bb88-2" d="M20,25H19v2h1V25Z"/><path class="bb88-3" d="M22,29H21v4h1V29Z"/><path class="bb88-2" d="M23,27H22v6h1V27Z"/><rect class="bb88-2" x="20" y="15" width="1" height="1"/><path class="bb88-2" d="M19,13v1H17v1h3V11H19v2Z"/><path class="bb88-5" d="M13,22h3V21h1V20h1V19h1V16h1V15H16V13h1V12h2V11H18V10H15v1H13V10H11v1H10v2h1V12h2v1H11v1h2v1H9v1h1v3h1v1h1v1h1Zm1-6h1v1H14Zm-2,3V18h1v1h3v1H13V19Z"/><path class="bb88-5" d="M18,14h1V13H17v1Z"/><path class="bb88-2" d="M19,17v2h1V16H19Z"/><path class="bb88-2" d="M18,11h1V10H18Z"/><rect class="bb88-2" x="18" y="19" width="1" height="1"/><rect class="bb88-2" x="17" y="20" width="1" height="1"/><path class="bb88-2" d="M13,9H11v1h2Z"/><path class="bb88-2" d="M16,10h2V9H16Z"/><rect class="bb88-2" x="11" y="20" width="1" height="1"/><rect class="bb88-2" x="10" y="10" width="1" height="1"/><rect class="bb88-2" x="10" y="19" width="1" height="1"/><path class="bb88-2" d="M10,14V11H9v4h1Z"/><path class="bb88-2" d="M10,16H9v3h1V16Z"/><rect class="bb88-2" x="8" y="15" width="1" height="1"/><rect class="bb88-2" x="14" y="16" width="1" height="1"/><path class="bb88-4" d="M10,15h1V14H10Z"/><path class="bb88-4" d="M16,14v1h1V14Z"/><path class="bb88-2" d="M12,15h1V14H11v1Z"/><path class="bb88-6" d="M11,14V13H10v1Z"/><rect class="bb88-6" x="11" y="12" width="2" height="1"/><path class="bb88-6" d="M17,13H16v1h1Z"/><path class="bb88-6" d="M19,12H17v1h2Z"/><rect class="bb88-2" x="13" y="19" width="3" height="1"/><rect class="bb88-2" x="12" y="18" width="1" height="1"/><path class="bb88-7" d="M13,11h2V10h1V9h2V7H17V6h1V5H16V6H14V7H13v4Z"/><path class="bb88-7" d="M19,10V9H18v1Z"/><path class="bb88-5" d="M21,26H20v1h1v1h1V27h1V26H21Z"/><rect class="bb88-2" x="23" y="26" width="1" height="1"/><path class="bb88-8" d="M20,21h2V20H21V19H20v2Z"/><path class="bb88-8" d="M23,22v1h1V22h1V21H23Z"/><path class="bb88-8" d="M22,24H21V22H20V21H18v2h2v2h1v1h1V25h1V24Z"/><path class="bb88-9" d="M22,20v1H20v1h1v2h2v1h1V23H23V21h1V20H23V19H21v1Z"/><path class="bb88-9" d="M20,24V23H18v1h1v1h1Z"/><path class="bb88-9" d="M21,26V25H20v1Z"/><path class="bb88-8" d="M24,24h1V23H24Z"/><path class="bb88-9" d="M20,21V20H19v1Z"/><path class="bb88-9" d="M22,26h1V25H22Z"/><path class="bb88-9" d="M24,23h1V22H24Z"/><path class="bb88-4" d="M21,29h1V28H21Z"/><rect class="bb88-7" x="18" y="9" width="1" height="1"></rect></svg>