<svg xmlns="http://www.w3.org/2000/svg" viewBox="0 0 29 33"><defs><style>polygon,rect,path{shape-rendering:crispedges;}.ba100-1{fill:#b4bd09;}.ba100-2{fill:#000000;}.ba100-3{fill:#e8b795;}.ba100-4{fill:#ffed9f;}.ba100-5{fill:#ffed9f;}.ba100-6{fill:#ffffff;}.ba100-7{fill:#663228;}.ba100-8{fill:#b23b00;}.ba100-9{fill:#ff1f4a;}.ba100-10{fill:#560000;}.ba100-11{fill:#ff1d99;}.ba100-12{fill:#6e12ff;}</style></defs><path class="ba100-1" d="M0,33H6V27H7V26H8V25h2V24h2V21H11V20H10V19H9V16H8V15H9V14H8V12H9V11H8V10H9V9H8V8h2V7h1V8h1V6h1V7h1V8h1V7h1V6h1V7h1V8h1V7h1V8H19V9h2v2H20v1h1v1H20v1h1v2H20v3H19v1H18v1H17v3h2v1h2v1h1v1h1v6h6V0H0Z"/><path class="ba100-2" d="M23,27H22v6h1V27Z"/><rect class="ba100-2" x="21" y="26" width="1" height="1"/><path class="ba100-3" d="M22,27H21v6h1V27Z"/><rect class="ba100-3" x="20" y="26" width="1" height="1"/><path class="ba100-2" d="M21,27H20v6h1V27Z"/><path class="ba100-2" d="M20,26h1V25H19v1Z"/><path class="ba100-4" d="M16,32H12v1h5V32Z"/><rect class="ba100-4" x="12" y="30" width="1" height="1"/><path class="ba100-4" d="M10,30h1V29h1V28h1V27H12V26H11V25H10v1H9v7h1V30Z"/><path class="ba100-4" d="M20,27V26H19V25H18v1H17v1H16v1h1v1h1v1h1v3h1V27Z"/><rect class="ba100-4" x="16" y="30" width="1" height="1"/><path class="ba100-2" d="M18,26V25h1V24H17v2Z"/><rect class="ba100-2" x="16" y="26" width="1" height="1"/><path class="ba100-2" d="M13,27v1h3V27H13Z"/><path class="ba100-2" d="M13,23V22H12v2h1Z"/><path class="ba100-3" d="M13,26v1h3V26h1V24H16V23H13v1H12v2Z"/><rect class="ba100-2" x="12" y="26" width="1" height="1"/><path class="ba100-2" d="M11,26h1V24H10v1h1Z"/><path class="ba100-2" d="M10,26V25H8v1h2Z"/><path class="ba100-3" d="M9,27V26H8v1Z"/><path class="ba100-2" d="M9,27H8v6H9V27Z"/><rect class="ba100-2" x="7" y="26" width="1" height="1"/><path class="ba100-3" d="M8,27H7v6H8V27Z"/><path class="ba100-2" d="M7,27H6v6H7V27Z"/><path class="ba100-5" d="M19,30H18V29H17V28H12v1H11v1H10v3h2V32h5v1h2V30Zm-6,1H12V30h1Zm4,0H16V30h1Z"/><path class="ba100-2" d="M20,16h1V15H20Z"/><path class="ba100-3" d="M19,15H16V14h2V13H15v2H14v1h1v1H14V16H13v1H11V16H10v2h1v1h1V18h2v1h1V18h2v1h1V18h1V16h1V15Z"/><rect class="ba100-3" x="17" y="10" width="1" height="1"/><rect class="ba100-3" x="9" y="15" width="1" height="1"/><rect class="ba100-3" x="13" y="20" width="1" height="1"/><rect class="ba100-3" x="15" y="20" width="1" height="1"/><path class="ba100-2" d="M19,17h1V16H19Z"/><path class="ba100-2" d="M16,23v1h1V22H16Z"/><path class="ba100-2" d="M10,16H9v1h1Z"/><rect class="ba100-2" x="8" y="15" width="1" height="1"/><rect class="ba100-2" x="14" y="16" width="1" height="1"/><path class="ba100-6" d="M18,15h1V14H18Z"/><path class="ba100-6" d="M16,14v1h1V14Z"/><path class="ba100-2" d="M17,14v1h1V14Z"/><rect class="ba100-7" x="18" y="13" width="1" height="1"/><path class="ba100-8" d="M15,18v1h1V18Z"/><path class="ba100-8" d="M13,23h3V22h1V21h1V20h1V19h1V17H19v1H18v1H16v2H15V20H14v1H13V19h1V18H12v1H11V18H10V17H9v2h1v1h1v1h1v1h1Z"/><path class="ba100-2" d="M14,19H13v1h3V19H14Z"/><path class="ba100-2" d="M16,18v1h1V18Z"/><path class="ba100-9" d="M11,15h2V13H11v2Z"/><path class="ba100-10" d="M14,15V13H13v2Z"/><path class="ba100-10" d="M12,15H11v1h2V15Z"/><path class="ba100-10" d="M11,14V13H10v2h1Z"/><rect class="ba100-2" x="10" y="15" width="1" height="1"/><rect class="ba100-2" x="11" y="16" width="2" height="1"/><rect class="ba100-2" x="13" y="15" width="1" height="1"/><rect class="ba100-2" x="14" y="13" width="1" height="2"/><rect class="ba100-2" x="14" y="10" width="1" height="1"/><rect class="ba100-2" x="11" y="10" width="1" height="1"/><rect class="ba100-11" x="20" y="12" width="1" height="1"/><path class="ba100-11" d="M19,14v1h2V14H20V13H19Z"/><path class="ba100-11" d="M11,10h1v1h2V10h1v1h2V10h1v1h3V9H19V8H18V7H17V6H16V7H15V8H14V7H13V6H12V8H11V7H10V8H8V9H9v1H8v1h3Z"/><path class="ba100-11" d="M10,14V13H9V12H8v2H9v1h1Z"/><rect class="ba100-11" x="19" y="7" width="1" height="1"/><path class="ba100-6" d="M20,12V11H9v1H20Z"/><path class="ba100-12" d="M10,13H20V12H9v1Z"/></svg>