<svg xmlns="http://www.w3.org/2000/svg" viewBox="0 0 29 33"><defs><style>polygon,rect,path{shape-rendering:crispedges;}.ka171-1{fill:#6b4f99;}.ka171-2{fill:#000000;}.ka171-3{fill:#68aaad;}.ka171-4{fill:#316a6d;}.ka171-5{fill:#ce8452;}.ka171-6{fill:#ffffff;}.ka171-7{fill:#e2e2e2;}.ka171-8{fill:#fad000;}.ka171-9{fill:#e2e2e2;}.ka171-10{fill:#6d5800;}.ka171-11{fill:#9b8100;}.ka171-12{fill:#ffffff;}.ka171-13{fill:#e70059;}</style></defs><path class="ka171-1" d="M20,23V21H17v1h1v1h1v2h2V23Z"/><path class="ka171-1" d="M0,33H6V27H7V26H8V25h2V23h1V22h1V21H9V20H8V19H9V16H8V15H9V11h1V10h1V9h7v1h1v1h1v4h1v1H20v2h1V17h1V16h1v1h1v1h1v5H24v8H23v1H21v1h8V0H0Z"/><path class="ka171-2" d="M23,26v5h1V25H23Z"/><path class="ka171-3" d="M23,28V27H22v2h1Z"/><path class="ka171-2" d="M22,32h1V31H22V25H19v1h2v1H20v6h1V32Z"/><path class="ka171-3" d="M19,31V30H18V28H17V27H16v2h1v2h1v1h1v1h1V31Z"/><path class="ka171-3" d="M16,31V30H15V28H13v1h1v2h1v1h1v1h1V31Z"/><path class="ka171-3" d="M13,31V30H12V28H11V27H10V26H9v2h1v1h1v2h1v1h1v1h1V31Z"/><path class="ka171-3" d="M10,31V30H9v2h1v1h1V31Z"/><path class="ka171-3" d="M18,26v2h1v1h1V27H19V25H18Z"/><path class="ka171-3" d="M15,24H14V23H13v2h2Z"/><rect class="ka171-3" x="12" y="27" width="1" height="1"/><path class="ka171-2" d="M10,26V25H8v1h2Z"/><path class="ka171-2" d="M9,31V27H8v6H9V31Z"/><rect class="ka171-2" x="7" y="26" width="1" height="1"/><path class="ka171-3" d="M8,29V27H7v2Z"/><path class="ka171-3" d="M7,31v2H8V31Z"/><path class="ka171-2" d="M7,30V27H6v6H7V30Z"/><path class="ka171-4" d="M19,28H18v2h1v1h1V29H19Z"/><path class="ka171-4" d="M17,26v2h1V26Z"/><path class="ka171-4" d="M22,29v2h1V29Z"/><path class="ka171-4" d="M20,27h1V26H19v1Z"/><path class="ka171-4" d="M23,26V25H22v2h1Z"/><path class="ka171-4" d="M18,32V31H17v2h2V32Z"/><path class="ka171-4" d="M15,29v1h1v1h1V29H16V28H15Z"/><path class="ka171-4" d="M15,24v1h1V23H14v1Z"/><path class="ka171-4" d="M15,32V31H14v2h2V32Z"/><path class="ka171-4" d="M12,29v1h1v1h1V29H13V28H12Z"/><path class="ka171-4" d="M10,27h1v1h1V26H11V25H10v2Z"/><path class="ka171-4" d="M12,32V31H11v2h2V32Z"/><path class="ka171-4" d="M10,30v1h1V29H10V28H9v2Z"/><path class="ka171-4" d="M9,32v1h1V32Z"/><path class="ka171-4" d="M9,27V26H8v1Z"/><path class="ka171-4" d="M7,30v1H8V29H7Z"/><rect class="ka171-2" x="20" y="15" width="1" height="1"/><path class="ka171-2" d="M19,13v1H17v1h3V11H19v2Z"/><path class="ka171-5" d="M13,22h3V21h1V19h1V18h1V16h1V15H16V14h3V13H16V12h3V11H18V10H11v1H10v1h3v1H10v1h3v1H9v1h1v2h1v1h1V18h1v1h3v1H13V19H12v2h1Zm2-5H14V16h1Z"/><rect class="ka171-2" x="18" y="10" width="1" height="1"/><path class="ka171-2" d="M18,20H17v1h1Z"/><path class="ka171-2" d="M18,10V9H11v1h7Z"/><path class="ka171-2" d="M11,20v1h1V20Z"/><rect class="ka171-2" x="10" y="10" width="1" height="1"/><path class="ka171-2" d="M10,14V11H9v4h1Z"/><rect class="ka171-2" x="8" y="15" width="1" height="1"/><rect class="ka171-2" x="14" y="16" width="1" height="1"/><path class="ka171-6" d="M11,15V14H10v1Z"/><path class="ka171-6" d="M16,14v1h1V14Z"/><path class="ka171-2" d="M12,15h1V14H11v1Z"/><path class="ka171-7" d="M13,13V12H10v1Z"/><path class="ka171-7" d="M16,12v1h3V12Z"/><path class="ka171-2" d="M18,23v2h1V23Z"/><rect class="ka171-2" x="17" y="25" width="1" height="1"/><path class="ka171-8" d="M18,24H17v1h1Z"/><path class="ka171-6" d="M18,23H17v1h1Z"/><path class="ka171-2" d="M16,26v1h1V26Z"/><rect class="ka171-6" x="16" y="25" width="1" height="1"/><rect class="ka171-8" x="15" y="26" width="1" height="1"/><path class="ka171-2" d="M14,27H13v1h3V27H14Z"/><path class="ka171-6" d="M14,27h1V26H14Z"/><rect class="ka171-8" x="13" y="26" width="1" height="1"/><path class="ka171-2" d="M14,26h2V25H13v1Z"/><path class="ka171-2" d="M13,26H12v1h1Z"/><rect class="ka171-6" x="12" y="25" width="1" height="1"/><path class="ka171-2" d="M12,24v1h1V23h3v2h1V23h1V22H17V21H16v1H13V21H12v1H11v1h1Z"/><rect class="ka171-2" x="11" y="25" width="1" height="1"/><rect class="ka171-8" x="11" y="24" width="1" height="1"/><rect class="ka171-6" x="11" y="23" width="1" height="1"/><path class="ka171-2" d="M11,24V23H10v2h1Z"/><path class="ka171-9" d="M19,17v1H18v1H17v1h1v1h2V16H19Z"/><path class="ka171-9" d="M12,20V19H11V18H10V16H9v3H8v1H9v1h2V20Z"/><rect class="ka171-2" x="13" y="19" width="3" height="1"/><rect class="ka171-2" x="12" y="18" width="1" height="1"/><path class="ka171-8" d="M20,21h5V18H24v2H23V18H22v2H21V18H20v3Z"/><path class="ka171-2" d="M22,20V18H21v2Z"/><path class="ka171-2" d="M23,19v1h1V18H23Z"/><path class="ka171-10" d="M22,23H21v2h3V23H22Z"/><path class="ka171-11" d="M21,23V21H20v2Z"/><path class="ka171-11" d="M24,21.223V23h1V21H24Z"/><path class="ka171-2" d="M23,22V21H22v1Z"/><path class="ka171-12" d="M22,22V21H21v1Z"/><path class="ka171-12" d="M24,22V21H23v1Z"/><rect class="ka171-8" x="21" y="17" width="1" height="1"/><rect class="ka171-8" x="23" y="17" width="1" height="1"/><polygon class="ka171-11" points="23 18 23 17 23 16 22 16 22 17 22 18 23 18"/><path class="ka171-13" d="M22,23h1V22H22Z"/><path class="ka171-2" d="M21,22v1h1V22Z"/><path class="ka171-2" d="M23,22v1h1V22Z"/></svg>