<svg xmlns="http://www.w3.org/2000/svg" viewBox="0 0 29 33"><defs><style>polygon,rect,path{shape-rendering:crispedges;}.ja88-1{fill:#6b4f99;}.ja88-2{fill:#000000;}.ja88-3{fill:#326b43;}.ja88-4{fill:#68aaad;}.ja88-5{fill:#6d3e35;}.ja88-6{fill:#ffffff;}.ja88-7{fill:#663228;}.ja88-8{fill:#b23b00;}.ja88-9{fill:#0068ff;}.ja88-10{fill:#45ba00;}</style></defs><path class="ja88-1" d="M0,33H6V27H7V26H8V25h2V24h2V21H11V20H10V19H9V16H8V15H9V11h1V10h1V9h2V7h1V6h2V5h2V6H17V7h1V9h1v2h1v4h1v1H20v3h3v1h1v1h1v3H24v1H23v1h1v1H23v6h6V0H0Z"/><rect class="ja88-1" x="19" y="19" width="1" height="1"/><rect class="ja88-1" x="18" y="20" width="1" height="1"/><path class="ja88-1" d="M18,23V21H17v3h1Z"/><path class="ja88-2" d="M7,30V27H6v6H7V30Z"/><rect class="ja88-2" x="7" y="26" width="1" height="1"/><path class="ja88-3" d="M8,29V27H7v2Z"/><path class="ja88-3" d="M7,31v2H8V31Z"/><path class="ja88-2" d="M9,31V27H8v6H9V31Z"/><path class="ja88-2" d="M10,26V25H8v1h2Z"/><path class="ja88-3" d="M13,31V30H12V28H11V27H10V26H9v2h1v1h1v2h1v1h1v1h1V31Z"/><rect class="ja88-3" x="16" y="24" width="1" height="1"/><path class="ja88-3" d="M19,31V30H18V28H17V27H16V25H15V24H14V23H13v2h1v1h1v2h1v1h1v2h1v1h1v1h1V31Z"/><path class="ja88-3" d="M19,26V25H17v1h1v2h1v1h1V27H19Z"/><path class="ja88-3" d="M16,31V30H15V28H14V27H13V25H11v1h1v2h1v1h1v2h1v1h1v1h1V31Z"/><path class="ja88-3" d="M10,31V30H9v2h1v1h1V31Z"/><path class="ja88-2" d="M12,25V24H10v1h2Z"/><path class="ja88-2" d="M13,23h3v1h1V21H16v1H13V21H12v3h1Z"/><path class="ja88-2" d="M18,25h1V24H17v1Z"/><path class="ja88-2" d="M21,31V27H20v6h1V31Z"/><path class="ja88-2" d="M20,25H19v2h1V25Z"/><path class="ja88-3" d="M21,31v1h1V30H21Z"/><path class="ja88-2" d="M23,27H22v6h1V27Z"/><path class="ja88-4" d="M19,28H18v2h1v1h1V29H19Z"/><path class="ja88-4" d="M21,32v1h1V32Z"/><path class="ja88-4" d="M17,26V25H16v2h1v1h1V26Z"/><path class="ja88-4" d="M21,29v1h1V28H21Z"/><path class="ja88-4" d="M18,32V31H17v2h2V32Z"/><path class="ja88-4" d="M16,30v1h1V29H16V28H15v2Z"/><path class="ja88-4" d="M16,23H14v1h1v1h1V23Z"/><path class="ja88-4" d="M14,27v1h1V26H14V25H13v2Z"/><path class="ja88-4" d="M15,32V31H14v2h2V32Z"/><path class="ja88-4" d="M13,30v1h1V29H13V28H12v2Z"/><path class="ja88-4" d="M13,25V24H12v1Z"/><path class="ja88-4" d="M10,27h1v1h1V26H11V25H10v2Z"/><path class="ja88-4" d="M12,32V31H11v2h2V32Z"/><path class="ja88-4" d="M10,30v1h1V29H10V28H9v2Z"/><path class="ja88-4" d="M9,32v1h1V32Z"/><path class="ja88-4" d="M9,27V26H8v1Z"/><path class="ja88-4" d="M7,30v1H8V29H7Z"/><rect class="ja88-2" x="20" y="15" width="1" height="1"/><path class="ja88-2" d="M19,13v1H17v1h3V11H19v2Z"/><path class="ja88-5" d="M13,22h3V21h1V20h1V19h1V16h1V15H16V13h1V12h2V11H18V10H15v1H13V10H11v1H10v2h1V12h2v1H11v1h2v1H9v1h1v3h1v1h1v1h1Zm1-6h1v1H14Zm-2,3V18h1v1h3v1H13V19Z"/><path class="ja88-5" d="M18,14h1V13H17v1Z"/><path class="ja88-2" d="M19,17v2h1V16H19Z"/><path class="ja88-2" d="M18,11h1V10H18Z"/><rect class="ja88-2" x="18" y="19" width="1" height="1"/><rect class="ja88-2" x="17" y="20" width="1" height="1"/><path class="ja88-2" d="M16,10h2V9H16Z"/><path class="ja88-2" d="M13,9H11v1h2Z"/><rect class="ja88-2" x="11" y="20" width="1" height="1"/><rect class="ja88-2" x="10" y="10" width="1" height="1"/><rect class="ja88-2" x="10" y="19" width="1" height="1"/><path class="ja88-2" d="M10,14V11H9v4h1Z"/><path class="ja88-2" d="M10,16H9v3h1V16Z"/><rect class="ja88-2" x="8" y="15" width="1" height="1"/><rect class="ja88-2" x="14" y="16" width="1" height="1"/><path class="ja88-6" d="M10,15h1V14H10Z"/><path class="ja88-6" d="M16,14v1h1V14Z"/><path class="ja88-2" d="M12,15h1V14H11v1Z"/><path class="ja88-7" d="M11,14V13H10v1Z"/><rect class="ja88-7" x="11" y="12" width="2" height="1"/><path class="ja88-7" d="M17,13H16v1h1Z"/><path class="ja88-7" d="M19,12H17v1h2Z"/><rect class="ja88-2" x="13" y="19" width="3" height="1"/><rect class="ja88-2" x="12" y="18" width="1" height="1"/><path class="ja88-8" d="M13,11h2V10h1V9h2V7H17V6h1V5H16V6H14V7H13v4Z"/><path class="ja88-8" d="M19,10V9H18v1Z"/><path class="ja88-5" d="M21,26H20v1h1v1h1V27h1V26H21Z"/><rect class="ja88-2" x="23" y="26" width="1" height="1"/><path class="ja88-9" d="M20,21h2V20H21V19H20v2Z"/><path class="ja88-9" d="M23,22v1h1V22h1V21H23Z"/><path class="ja88-9" d="M22,24H21V22H20V21H18v2h2v2h1v1h1V25h1V24Z"/><path class="ja88-10" d="M22,20v1H20v1h1v2h2v1h1V23H23V21h1V20H23V19H21v1Z"/><path class="ja88-10" d="M19,24v1h1V23H18v1Z"/><path class="ja88-10" d="M21,26V25H20v1Z"/><path class="ja88-9" d="M24,24h1V23H24Z"/><path class="ja88-10" d="M20,21V20H19v1Z"/><path class="ja88-10" d="M22,26h1V25H22Z"/><path class="ja88-10" d="M24,23h1V22H24Z"/><rect class="ja88-8" x="18" y="9" width="1" height="1"></rect></svg>