<svg xmlns="http://www.w3.org/2000/svg" viewBox="0 0 29 33"><defs><style>polygon,rect,path{shape-rendering:crispedges;}.eb219-1{fill:#000000;}.eb219-2{fill:#663434;}.eb219-3{fill:#d8be00;}.eb219-4{fill:#b2622b;}.eb219-5{fill:#90a2a3;}.eb219-6{fill:#316a6d;}.eb219-7{fill:#99004d;}.eb219-8{fill:#ffffff;}.eb219-9{fill:#adb48a;}.eb219-10{fill:#d2d8b8;}.eb219-11{fill:#7a982c;}</style></defs><path class="eb219-1" d="M23,27H22v6h1V27Z"/><path class="eb219-2" d="M22,27H21v6h1V27Z"/><path class="eb219-1" d="M21,27h1V26H21V25H20v2H17v1h2v1h1v4h1V27Z"/><rect class="eb219-1" x="19" y="24" width="1" height="1"/><path class="eb219-2" d="M20,29H19v1H18v1H17v1H16v1h4V29Z"/><rect class="eb219-1" x="18" y="23" width="1" height="1"/><path class="eb219-2" d="M18,25H17v1H16v5h1V30h1V29h1V28H17V27h2V26h1V25H19V24H18Z"/><rect class="eb219-2" x="17" y="23" width="1" height="1"/><rect class="eb219-1" x="17" y="24" width="1" height="1"/><rect class="eb219-1" x="18" y="29" width="1" height="1"/><rect class="eb219-1" x="16" y="25" width="1" height="1"/><path class="eb219-3" d="M15,27H14v6h1V27Z"/><path class="eb219-1" d="M12,24h1V23h3v1h1V23h1V22H17V21H16v1H13V21H12v1H11v1h1Z"/><path class="eb219-4" d="M17,25V24H16V23H13v1H12v1h1v1h3V25Z"/><rect class="eb219-1" x="12" y="25" width="1" height="1"/><path class="eb219-2" d="M12,32V31H11V30H10V29H9v4h4V32Z"/><rect class="eb219-2" x="11" y="23" width="1" height="1"/><rect class="eb219-1" x="11" y="24" width="1" height="1"/><rect class="eb219-1" x="11" y="30" width="1" height="1"/><rect class="eb219-1" x="10" y="23" width="1" height="1"/><rect class="eb219-1" x="9" y="24" width="1" height="1"/><path class="eb219-2" d="M10,26v1h2v1H10v1h1v1h1v1h1V26H12V25H11V24H10v1H9v1Z"/><path class="eb219-1" d="M9,29h1V28h2V27H9V25H8v1H7v1H8v6H9V29Z"/><path class="eb219-2" d="M8,27H7v6H8V27Z"/><path class="eb219-1" d="M7,27H6v6H7V27Z"/><rect class="eb219-1" x="10" y="29" width="1" height="1"/><rect class="eb219-1" x="17" y="30" width="1" height="1"/><path class="eb219-1" d="M17,32V31H16V26H13v5H12v1h1v1h1V27h1v6h1V32Z"/><path class="eb219-5" d="M9,26v1h1V26Z"/><path class="eb219-5" d="M19,27h1V26H19Z"/><rect class="eb219-1" x="19" y="14" width="1" height="1"/><path class="eb219-4" d="M13,20v2h3V20Z"/><rect class="eb219-4" x="19" y="15" width="1" height="1"/><path class="eb219-4" d="M15,14h1V13H14v1Z"/><rect class="eb219-4" x="14" y="15" width="1" height="1"/><path class="eb219-4" d="M12,19V18h5v2h1V19h1V18H18V17H16V16H15v1H14V16H13v1H11v1H10v1h1v1h1Z"/><rect class="eb219-4" x="9" y="15" width="1" height="1"/><path class="eb219-1" d="M19,16v2h1V16Z"/><rect class="eb219-1" x="18" y="19" width="1" height="1"/><rect class="eb219-1" x="17" y="20" width="1" height="1"/><rect class="eb219-1" x="11" y="20" width="1" height="1"/><rect class="eb219-1" x="10" y="19" width="1" height="1"/><path class="eb219-1" d="M10,17V16H9v2h1Z"/><rect class="eb219-1" x="14" y="16" width="1" height="1"/><path class="eb219-6" d="M13,20V19h3V18H12v3h1Z"/><path class="eb219-6" d="M17,19H16v2h1V19Z"/><path class="eb219-1" d="M16,19H13v1h3Z"/><path class="eb219-1" d="M17,18H16v1h1Z"/><path class="eb219-7" d="M9,15h1V14h1V13H8v5H9V15Z"/><path class="eb219-7" d="M18,16v2h1V16Z"/><rect class="eb219-7" x="13" y="13" width="1" height="1"/><path class="eb219-7" d="M10,16v2h1V16Z"/><path class="eb219-7" d="M18,13v1h2v4h1V13H18Z"/><path class="eb219-7" d="M19,19v1h1V18H19Z"/><path class="eb219-7" d="M10,18H9v2h1V18Z"/><path class="eb219-8" d="M13,13H11v1h2Z"/><path class="eb219-8" d="M11,17h2V16H11Z"/><polygon class="eb219-8" points="11 15 11 14 10 14 10 15 10 16 11 16 11 15"/><path class="eb219-1" d="M11,14v2h2V14Z"/><path class="eb219-8" d="M19,16V14H18v2Z"/><path class="eb219-8" d="M17,14h1V13H16v1Z"/><path class="eb219-8" d="M17,16H16v1h2V16Z"/><path class="eb219-8" d="M15,14H13v2h1V15h1v1h1V14Z"/><path class="eb219-1" d="M18,16V14H16v2h2Z"/><path class="eb219-9" d="M19,12v1h1V11H19Z"/><path class="eb219-10" d="M10,12v1h1V11h1v2h1V11h1v2h1V11h1v2h1V11h1v2h1V11h1V10H19V9H18V8H11V9H10v1H9v1h1Z"/><path class="eb219-9" d="M18,12V11H17v2h1Z"/><path class="eb219-9" d="M16,12V11H15v2h1Z"/><path class="eb219-9" d="M14,12V11H13v2h1Z"/><path class="eb219-9" d="M12,12V11H11v2h1Z"/><path class="eb219-9" d="M10,12V11H9v2h1Z"/><path class="eb219-11" d="M0,8V33H6V27H7V26H8V25H9V24h1V23h1V22h1V21H11V20H9V18H8V13H9V10h1V9h1V8h7V9h1v1h1v3h1v5H20v2H18v1H17v1h1v1h1v1h1v1h1v1h1v1h1v6h6V0H0Z"/></svg>