<svg xmlns="http://www.w3.org/2000/svg" viewBox="0 0 29 33"><defs><style>polygon,rect,path{shape-rendering:crispedges;}.ca129-1{fill:#29834f;}.ca129-2{fill:#000000;}.ca129-3{fill:#c18d59;}.ca129-4{fill:#b8a4ff;}.ca129-5{fill:#ffffff;}.ca129-6{fill:#b23b00;}.ca129-7{fill:#009b97;}.ca129-8{fill:#c6e5e4;}</style></defs><path class="ca129-1" d="M6,32V27H7V26H8V25h2V24h2V22H11V21H10v1H9V21H8V20H7V19H8V12H9V10h1V9h1V8h7V9h1v1h1v2h1v7h4v1h1v1H25v1H24v1h1v1H24v7H23v1H21v1h8V0H0V33H6Z"/><path class="ca129-1" d="M23,22H22V21H20v1H19V21H18v1H17v2h2v1h2V23h2Z"/><path class="ca129-2" d="M7,27H6v6H7V27Z"/><rect class="ca129-2" x="7" y="26" width="1" height="1"/><path class="ca129-3" d="M8,27H7v6H8V27Z"/><rect class="ca129-3" x="8" y="26" width="1" height="1"/><path class="ca129-2" d="M9,27H8v6H9V27Z"/><path class="ca129-2" d="M10,26V25H8v1h2Z"/><path class="ca129-4" d="M20,27V26H19V25H18v1H17v1H16v1H13V27H12V26H11V25H10v1H9v7H20V27Z"/><path class="ca129-2" d="M11,26h1V24H10v1h1Z"/><path class="ca129-2" d="M13,23h3v1h1V21H16v1H13V21H12v3h1Z"/><rect class="ca129-2" x="12" y="26" width="1" height="1"/><path class="ca129-2" d="M13,27v1h3V27H13Z"/><path class="ca129-3" d="M13,26v1h3V26h1V24H16V23H13v1H12v2Z"/><rect class="ca129-2" x="16" y="26" width="1" height="1"/><path class="ca129-2" d="M18,24H17v2h1V25h1V24Z"/><path class="ca129-3" d="M21,27V26H20v1Z"/><path class="ca129-2" d="M22,32h1V31H22V23H21v2H19v1h2v1H20v6h1V32Z"/><path class="ca129-2" d="M23,25v6h1V24H23Z"/><path class="ca129-2" d="M20,16h1V15H20Z"/><rect class="ca129-3" x="17" y="13" width="1" height="1"/><path class="ca129-3" d="M18,20V19h1V16h1V15H16V13h1V11H16V10H13v1H12v1h1v1H11v1h2v1H9v1h1v3h1v1h1v1h1v1h3V21h1V20Zm-4-4h1v1H14Zm2,4H13V19H12V18h1v1h3Z"/><path class="ca129-2" d="M19,17v2h1V16H19Z"/><rect class="ca129-2" x="18" y="19" width="1" height="1"/><rect class="ca129-2" x="17" y="20" width="1" height="1"/><rect class="ca129-2" x="11" y="20" width="1" height="1"/><rect class="ca129-2" x="10" y="19" width="1" height="1"/><path class="ca129-2" d="M10,14H9v1h1Z"/><path class="ca129-2" d="M10,16H9v3h1V16Z"/><path class="ca129-2" d="M9,15H8v1H9Z"/><rect class="ca129-2" x="14" y="16" width="1" height="1"/><path class="ca129-5" d="M11,15V14H10v1Z"/><path class="ca129-5" d="M16,14v1h1V14Z"/><path class="ca129-2" d="M12,15h1V14H11v1Z"/><path class="ca129-2" d="M17,15h3V14H17Z"/><path class="ca129-6" d="M13,12H11v1h2Z"/><path class="ca129-6" d="M17,13H16v1h1Z"/><path class="ca129-6" d="M18,13V12H17v1Z"/><rect class="ca129-2" x="13" y="19" width="3" height="1"/><rect class="ca129-2" x="12" y="18" width="1" height="1"/><path class="ca129-7" d="M20,17v2H19v1H18v1h1v1h1V21h1V20h1V19H21V16H20Z"/><path class="ca129-7" d="M9,14h2V12h1V11h1V10h3v1h1v1h1v2h2v1h1V12H20V10H19V9H18V8H11V9H10v1H9v2H8v3H9Z"/><path class="ca129-7" d="M10,20V19H9V16H8v3H7v1H8v1H9v1h1V21h1V20Z"/><path class="ca129-7" d="M11,21v1h1V21Z"/><path class="ca129-7" d="M18,21H17v1h1Z"/><path class="ca129-5" d="M24,20v1H23v1h2V21h1V20H25V19H23v1Z"/><path class="ca129-8" d="M21,20v1h1v1h1V21h1V20H23V19H22v1Z"/><path class="ca129-8" d="M23,23h1V22H23Z"/><path class="ca129-3" d="M22,23v8h1V24h1V23H22Z"/><rect class="ca129-2" x="24" y="23" width="1" height="1"/></svg>