<svg xmlns="http://www.w3.org/2000/svg" viewBox="0 0 29 33"><defs><style>polygon,rect,path{shape-rendering:crispedges;}.bb234-1{fill:#6b4f99;}.bb234-2{fill:#000000;}.bb234-3{fill:#326b43;}.bb234-4{fill:#ffffff;}.bb234-5{fill:#b2622b;}.bb234-6{fill:#8e4717;}.bb234-7{fill:#db5800;}.bb234-8{fill:#f9e100;}.bb234-9{fill:#68aaad;}</style></defs><path class="bb234-1" d="M0,33H6V27H7V26H8V25h2V24h1V23h1V21H11V20H10V19H9V16H8V15H9V10h1V9h1V8h7V9h1v1h1v5h1v1H20v3H19v1H18v1H17v2h1v1h1v1h2v1h1v1h1v6h6V0H0Z"/><path class="bb234-2" d="M23,27H22v6h1V27Z"/><path class="bb234-3" d="M22,27H21v6h1V27Z"/><rect class="bb234-2" x="21" y="26" width="1" height="1"/><path class="bb234-2" d="M21,27H20v6h1V27Z"/><path class="bb234-3" d="M20,27h1V26H19V25H18v4H17v4h3V27Z"/><path class="bb234-2" d="M20,26h1V25H19v1Z"/><path class="bb234-2" d="M17,29H16v4h1V29Z"/><rect class="bb234-4" x="16" y="24" width="1" height="1"/><path class="bb234-4" d="M16,29h1V26H16V25H13v1H12v3h1v4h1V32h1v1h1V29Zm-1,2H14V30h1Zm0-2H14V28h1Zm0-2H14V26h1Z"/><rect class="bb234-4" x="15" y="23" width="1" height="1"/><rect class="bb234-2" x="14" y="32" width="1" height="1"/><rect class="bb234-2" x="14" y="30" width="1" height="1"/><rect class="bb234-2" x="14" y="28" width="1" height="1"/><rect class="bb234-2" x="14" y="26" width="1" height="1"/><path class="bb234-2" d="M15,24V23H14v1H13v1h3V24Z"/><rect class="bb234-4" x="13" y="23" width="1" height="1"/><path class="bb234-2" d="M13,29H12v4h1V29Z"/><rect class="bb234-4" x="12" y="24" width="1" height="1"/><path class="bb234-3" d="M12,29H11V25H10v1H8v1H9v6h3V29Z"/><path class="bb234-2" d="M11,26v3h1V26h1V25H12V24h1V22H12v1H11v1H10v1h1Z"/><path class="bb234-2" d="M10,25H8v1h2Z"/><path class="bb234-2" d="M9,27H8v6H9V27Z"/><path class="bb234-3" d="M8,27H7v6H8V27Z"/><rect class="bb234-2" x="7" y="26" width="1" height="1"/><path class="bb234-2" d="M7,27H6v6H7V27Z"/><rect class="bb234-2" x="20" y="15" width="1" height="1"/><path class="bb234-5" d="M13,13h1v1h1V13h1V12h3V11H18V10H17v1H14V10H13v1H12V10H11v1H10v1h3Z"/><path class="bb234-5" d="M16,16V15H13v1H10v2h1v1h1v1h1V19h3V18h1v1h1V18h1V16H16Zm-1,1H14V16h1Z"/><path class="bb234-5" d="M13,21h3V20H13Z"/><rect class="bb234-5" x="16" y="19" width="1" height="1"/><rect class="bb234-5" x="19" y="15" width="1" height="1"/><rect class="bb234-5" x="9" y="15" width="1" height="1"/><path class="bb234-2" d="M16,23v1h1v1H16v1h1v3h1V25h1V24H18V23H17V22H16Z"/><rect class="bb234-2" x="8" y="15" width="1" height="1"/><rect class="bb234-2" x="14" y="16" width="1" height="1"/><path class="bb234-6" d="M13,13V12H10v1h3Z"/><path class="bb234-6" d="M16,13h3V12H16Z"/><path class="bb234-7" d="M13,23h3V22h1V21h1V20h1V19h1V16H19v2H18v1H17v1H16v1H13V20H12V19H11V18H10V16H9v3h1v1h1v1h1v1h1Z"/><rect class="bb234-2" x="13" y="19" width="3" height="1"/><rect class="bb234-2" x="16" y="18" width="1" height="1"/><path class="bb234-8" d="M10,13V11h1V10h1v1h1V10h1v1h3V10h1v1h1v3h1V10H19V9H18V8H11V9H10v1H9v4h1Z"/><path class="bb234-9" d="M13,16V15h1V14H10v2h3Z"/><path class="bb234-9" d="M19,14H15v1h1v1h3V14Z"/><path class="bb234-2" d="M16,13H15v1h4V13H16Z"/><path class="bb234-2" d="M14,14V13H10v1h4Z"/><path class="bb234-2" d="M19,15h1V14H19Z"/><path class="bb234-2" d="M10,14H9v1h1Z"/><path class="bb234-2" d="M14,15h1V14H14Z"/></svg>