<svg xmlns="http://www.w3.org/2000/svg" viewBox="0 0 29 33"><defs><style>polygon,rect,path{shape-rendering:crispedges;}.ia206-1{fill:#d4a122;}.ia206-2{fill:#000000;}.ia206-3{fill:#4fdb7d;}.ia206-4{fill:#e8b795;}.ia206-5{fill:#99004d;}.ia206-6{fill:#45ba00;}.ia206-7{fill:#dfdfdf;}.ia206-8{fill:#a89969;}.ia206-9{fill:#ffffff;}</style></defs><rect class="ia206-1" x="13" y="21" height="1"/><polygon class="ia206-1" points="14 17 14 17 15 17 15 16 15 16 15 17 14 17"/><rect class="ia206-1" x="11" y="19" height="1"/><rect class="ia206-1" x="12" y="20" height="1"/><path class="ia206-1" d="M0,33H6V27H7V26H8V25h2V24h2V21H11V20H10V19H9V18H8V16H8V15H8V13H7V12H5V11H7v1H9V10h1V8h1V7h2V8h3V7h2V8h1V7h1V6h2V8H21V9H20v3h2V11h2v1H22v1H20v2h1v1H20v3H19v1H18v1H17v3h2v1h2v1h1v1h1v6h6V0H0Z"/><path class="ia206-1" d="M10,18V16h0v3h0Z"/><path class="ia206-2" d="M23,27H22v6h1V27Z"/><rect class="ia206-2" x="21" y="26" width="1" height="1"/><path class="ia206-3" d="M22,27H21v6h1V27Z"/><path class="ia206-2" d="M21,27H20v6h1V27Z"/><path class="ia206-2" d="M20,26h1V25H19v1Z"/><rect class="ia206-3" x="16" y="30" width="1" height="1"/><rect class="ia206-3" x="12" y="30" width="1" height="1"/><path class="ia206-3" d="M20,27h1V26H19V25H17v1H16v1H13V26H12V25H10v1H9v7h1V30h1V29h1V28h5v1h1v1h1v3h1V27Z"/><path class="ia206-3" d="M16,32H12v1h5V32Z"/><path class="ia206-2" d="M18,25h1V24H17v1Z"/><rect class="ia206-2" x="16" y="25" width="1" height="1"/><path class="ia206-2" d="M13,26v1h3V26H13Z"/><path class="ia206-2" d="M13,23h3v1h1V21H16v1H13V21H12v3h1Z"/><path class="ia206-4" d="M13,25v1h3V25h1V24H16V23H13v1H12v1Z"/><rect class="ia206-2" x="12" y="25" width="1" height="1"/><path class="ia206-2" d="M12,24H10v1h2Z"/><path class="ia206-2" d="M9,26h1V25H8v1H7v1H8v6H9V26Z"/><path class="ia206-3" d="M8,27H7v6H8V27Z"/><path class="ia206-2" d="M7,27H6v6H7V27Z"/><path class="ia206-5" d="M19,30H18V29H17V28H12v1H11v1H10v3h2V32h5v1h2V30Zm-6,1H12V30h1Zm4,0H16V30h1Z"/><path class="ia206-4" d="M18,13v1h1V13H18Z"/><path class="ia206-4" d="M19,15H18v1H16V15H15V14H14v1H13v1H11V15H9v1h1v3h1v1h1v1h1v1h3V21h1V20h1V19h1V16h1V15Zm-5,1h1v1H14Zm2,4H13V19H12V18h1v1h3Z"/><path class="ia206-2" d="M19,16v3h1V16Z"/><polygon class="ia206-2" points="18 19 18 20 19 20 19 19 18 19 18 19"/><polygon class="ia206-2" points="17 20 17 21 18 21 18 20 17 20 17 20"/><polygon class="ia206-2" points="12 20 11 20 11 20 11 21 12 21 12 20 12 20"/><polygon class="ia206-2" points="11 19 10 19 10 19 10 20 11 20 11 19 11 19"/><path class="ia206-2" d="M10,16H9v2H9v1h1V16Z"/><rect class="ia206-2" x="8" y="15" height="1"/><polygon class="ia206-2" points="15 17 15 16 15 16 14 16 14 17 14 17 15 17"/><rect class="ia206-2" x="13" y="19" width="3" height="1"/><rect class="ia206-2" x="12" y="18" width="1" height="1"/><rect class="ia206-6" x="9" y="10" width="1"/><path class="ia206-6" d="M14,8h0Z"/><path class="ia206-6" d="M19,13v1h1V13Z"/><path class="ia206-6" d="M9,16H9V14h2V13H8v5H9Z"/><path class="ia206-2" d="M18,14V13H11v1H9v1h2v1h2V15h1V14h1v1h1v1h2V15h2v1h1V15H20V14H18Z"/><path class="ia206-2" d="M24,11H22v1h2Z"/><path class="ia206-7" d="M21,8h1V7H21Z"/><path class="ia206-2" d="M13,13h9V12H20V11H19v1H10V11H9v1H7v1h6Z"/><rect class="ia206-7" x="20" y="8" width="1" height="1"/><path class="ia206-8" d="M19,11h1V10H19Z"/><path class="ia206-9" d="M18,11h1V10h1V8h1V7h1V6H20V7H19V8H18v3Z"/><path class="ia206-8" d="M17,11H10v1h9V11H17Z"/><path class="ia206-2" d="M10,11h8V7H16V8H13V7H11V8H10v2h0Z"/><path class="ia206-8" d="M10,10H9v1h1Z"/><path class="ia206-2" d="M6,11H5v1H7V11Z"/></svg>