<svg xmlns="http://www.w3.org/2000/svg" viewBox="0 0 29 33"><defs><style>polygon,rect,path{shape-rendering:crispedges;}.ya259-1{fill:#6b4f99;}.ya259-2{fill:#000000;}.ya259-3{fill:#508e5d;}.ya259-4{fill:#ce8452;}.ya259-5{fill:#473a35;}.ya259-6{fill:#000000;}.ya259-7{fill:#cbed03;}</style></defs><path class="ya259-1" d="M6,32V27H7V26H8V25h2V24h1V23h1V21H9V20H8V19H9V18H8V13H9V11h1V10h1V9h7v1h2v2h1v6H20v1h1v1H20v1H17v2h1v1h1v1h2v1h1v1h1v6h6V0H0V33H6Z"/><path class="ya259-2" d="M23,27H22v6h1V27Z"/><path class="ya259-3" d="M22,27H21v6h1V27Z"/><rect class="ya259-2" x="21" y="26" width="1" height="1"/><path class="ya259-2" d="M21,27H20v6h1V27Z"/><path class="ya259-3" d="M20,27h1V26H19V25H18v1H16V25H15v2H14V25H13v1H11V25H10v1H8v1H9v6h5V32h1v1h5V27Zm-5,4H14V30h1Zm0-2H14V28h1Z"/><path class="ya259-2" d="M20,26h1V25H19v1Z"/><rect class="ya259-3" x="16" y="24" width="1" height="1"/><rect class="ya259-2" x="15" y="24" width="1" height="1"/><rect class="ya259-2" x="14" y="32" width="1" height="1"/><rect class="ya259-2" x="14" y="30" width="1" height="1"/><rect class="ya259-2" x="14" y="28" width="1" height="1"/><path class="ya259-2" d="M14,26v1h1V25H14Z"/><rect class="ya259-2" x="13" y="24" width="1" height="1"/><path class="ya259-4" d="M16,24V23H13v1h1v1h1V24Z"/><rect class="ya259-3" x="12" y="24" width="1" height="1"/><path class="ya259-2" d="M11,26h2V25H12V24h1V23h3v1h1v1H16v1h2V25h1V24H18V23H17V21H16v1H13V21H12v2H11v1H10v1h1Z"/><path class="ya259-2" d="M10,25H8v1h2Z"/><path class="ya259-2" d="M9,27H8v6H9V27Z"/><path class="ya259-3" d="M8,27H7v6H8V27Z"/><rect class="ya259-2" x="7" y="26" width="1" height="1"/><path class="ya259-2" d="M7,27H6v6H7V27Z"/><rect class="ya259-2" x="19" y="14" width="1" height="1"/><rect class="ya259-4" x="19" y="15" width="1" height="1"/><rect class="ya259-4" x="11" y="13" width="1" height="1"/><rect class="ya259-4" x="12" y="12" width="1" height="1"/><rect class="ya259-4" x="9" y="15" width="1" height="1"/><path class="ya259-4" d="M13,22h3V21h1V19h1V15H16v1H15v1H14V16H13v1H11v2h1v2h1Zm0-3h3v1H13Z"/><rect class="ya259-4" x="17" y="11" width="1" height="1"/><rect class="ya259-4" x="17" y="13" width="1" height="1"/><path class="ya259-4" d="M16,12H15V11H14v2h2Z"/><path class="ya259-4" d="M14,14v2h1V14Z"/><path class="ya259-2" d="M17,20v1h1V20Z"/><path class="ya259-2" d="M11,20v1h1V20Z"/><rect class="ya259-2" x="14" y="16" width="1" height="1"/><path class="ya259-2" d="M17,14H16v1h2V14Z"/><rect class="ya259-5" x="12" y="13" width="1" height="1"/><rect class="ya259-5" x="11" y="12" width="1" height="1"/><rect class="ya259-6" x="20" y="19" width="1" height="1"/><path class="ya259-6" d="M19,16v2h1V16Z"/><path class="ya259-6" d="M19,19V18H18v1H17v1h1v1h2V20H19Z"/><rect class="ya259-6" x="8" y="19" width="1" height="1"/><path class="ya259-6" d="M12,20V19H11V18H10v2H9v1h2V20Z"/><path class="ya259-6" d="M10,17V16H9v2h1Z"/><rect class="ya259-2" x="13" y="19" width="3" height="1"/><path class="ya259-7" d="M9,15h1V14H9V13H8v5H9V15Z"/><path class="ya259-7" d="M19,12H18v6h1V14h1v4h1V12H20V11H19Z"/><path class="ya259-7" d="M10,16v2h1V16Z"/><rect class="ya259-7" x="16" y="13" width="1" height="1"/><path class="ya259-7" d="M10,14h1V12h2v2h1V11h1v1h2V11h2V10H18V9H11v1H10v1H9v2h1Z"/><polygon class="ya259-7" points="19 19 19 20 20 20 20 19 20 18 19 18 19 19"/><path class="ya259-7" d="M15,14v2h1V14Z"/><path class="ya259-7" d="M10,19V18H9v2h1Z"/><path class="ya259-2" d="M13,14H10v2h1v1h2V16h1V14Z"/><path class="ya259-2" d="M16,14V13H14v1h2Z"/><path class="ya259-2" d="M17,13h1V12H16v1Z"/><path class="ya259-2" d="M19,12V11H18v1Z"/><path class="ya259-2" d="M20,11V10H19v1Z"/><rect class="ya259-2" x="9" y="13" width="1" height="1"/></svg>