<svg xmlns="http://www.w3.org/2000/svg" viewBox="0 0 29 33"><defs><style>polygon,rect,path{shape-rendering:crispedges;}.ia260-1{fill:#000000;}.ia260-2{fill:#b23b00;}.ia260-3{fill:#efcaaf;}.ia260-4{fill:#ffffff;}.ia260-5{fill:#ffffff;}.ia260-6{fill:#000000;}.ia260-7{fill:#99004d;}.ia260-8{fill:#a06415;}.ia260-9{fill:#841f00;}.ia260-10{fill:#b23b00;}.ia260-11{fill:#29834f;}</style></defs><path class="ia260-1" d="M23,27H22v6h1V27Z"/><rect class="ia260-1" x="21" y="26" width="1" height="1"/><path class="ia260-2" d="M22,27H21v6h1V27Z"/><path class="ia260-1" d="M21,27H20v6h1V27Z"/><path class="ia260-1" d="M20,26h1V25H19v1Z"/><rect class="ia260-2" x="13" y="29" width="1" height="2"/><path class="ia260-2" d="M20,27h1V26H19V25H17v1H16v1H13V26H12V25H10v1H9v7H20V27Zm-9,2v3H10V28h1Zm4,3H12V28h3Zm4-3H17v2h1V30h1v2H16V28h3Z"/><path class="ia260-1" d="M18,25h1V24H17v1Z"/><rect class="ia260-1" x="16" y="25" width="1" height="1"/><path class="ia260-1" d="M13,26v1h3V26H13Z"/><path class="ia260-1" d="M13,23h3v1h1V21H16v1H13V21H12v3h1Z"/><path class="ia260-3" d="M13,25v1h3V25h1V24H16V23H13v1H12v1Z"/><rect class="ia260-1" x="12" y="25" width="1" height="1"/><path class="ia260-1" d="M12,24H10v1h2Z"/><path class="ia260-1" d="M9,26h1V25H8v1H7v1H8v6H9V26Z"/><path class="ia260-2" d="M8,27H7v6H8V27Z"/><path class="ia260-1" d="M7,27H6v6H7V27Z"/><path class="ia260-4" d="M12,32h3V28H12Zm1-3h1v2H13Z"/><path class="ia260-4" d="M10,29v3h1V28H10Z"/><path class="ia260-4" d="M16,28v4h3V30H18v1H17V29h2V28H16Z"/><rect class="ia260-3" x="19" y="15" width="1" height="1"/><path class="ia260-3" d="M13,22h3V21h1V20h1V19h1V16H16V14h2V13H13v1h1v2h1v1H14V16H13v1H11v3h1v1h1Zm0-3h3V18h1v1H16v1H13Z"/><rect class="ia260-3" x="9" y="15" width="1" height="1"/><rect class="ia260-3" x="10" y="16" width="1" height="1"/><path class="ia260-1" d="M20,16H19v3h1V16Z"/><rect class="ia260-1" x="18" y="19" width="1" height="1"/><rect class="ia260-1" x="17" y="20" width="1" height="1"/><rect class="ia260-1" x="11" y="20" width="1" height="1"/><path class="ia260-1" d="M10,18V16H9v3h1Z"/><rect class="ia260-1" x="14" y="16" width="1" height="1"/><path class="ia260-5" d="M12,15v1h1V14H12Z"/><path class="ia260-5" d="M16,14v2h1V14Z"/><path class="ia260-5" d="M19,14H18v2h1V14Z"/><path class="ia260-1" d="M11,16h1V14H11v2Z"/><path class="ia260-1" d="M17,14v2h1V14Z"/><rect class="ia260-6" x="18" y="13" width="1" height="1"/><rect class="ia260-1" x="13" y="19" width="3" height="1"/><rect class="ia260-1" x="16" y="18" width="1" height="1"/><path class="ia260-7" d="M9,16V15h1V14h1V13H8v6H9V16Z"/><path class="ia260-7" d="M19,14v1h1v4h1V13H19Z"/><rect class="ia260-7" x="9" y="19" width="1" height="1"/><rect class="ia260-7" x="19" y="19" width="1" height="1"/><path class="ia260-8" d="M14,16V14H13v2Z"/><path class="ia260-8" d="M11,13v1h2V13H11Z"/><path class="ia260-8" d="M11,16v1h2V16H11Z"/><path class="ia260-8" d="M11,15V14H10v2h1Z"/><path class="ia260-8" d="M11,19V17H10v5h1V19Z"/><path class="ia260-9" d="M17,11v2h1V11Z"/><path class="ia260-10" d="M10,12v1h1V11h1v2h1V11h1v2h1V11h1v2h1V11h1v2h1V11h1V10H19V9H18V8H11V9H10v1H9v1h1Z"/><path class="ia260-9" d="M15,11v2h1V11Z"/><path class="ia260-9" d="M13,11v2h1V11Z"/><path class="ia260-9" d="M12,12V11H11v2h1Z"/><path class="ia260-9" d="M10,12V11H9v2h1Z"/><path class="ia260-9" d="M19,12v1h1V11H19Z"/><path class="ia260-11" d="M0,8V33H6V27H7V26H8V25h2V24h2V21H11v1H10V20H9V19H8V13H9V10h1V9h1V8h7V9h1v1h1v3h1v6H20v1H18v1H17v3h2v1h2v1h1v1h1v6h6V0H0Z"/></svg>