<svg xmlns="http://www.w3.org/2000/svg" viewBox="0 0 29 33"><defs><style>polygon,rect,path{shape-rendering:crispedges;}.ea235-1{fill:#d4a122;}.ea235-2{fill:#000000;}.ea235-3{fill:#e0dbc6;}.ea235-4{fill:#6d3e35;}.ea235-5{fill:#8c7850;}.ea235-6{fill:#00774c;}.ea235-7{fill:#9b8100;}.ea235-8{fill:#cc3232;}</style></defs><rect class="ea235-1" x="19" y="16" width="1"/><rect class="ea235-1" x="14" y="16" width="1"/><path class="ea235-1" d="M6,27H7V26H8V25h2V24h2V21H11V20H10V19H9V16H8V15H9v1h1v3h0V16H9V14H8V11H9V10h1V9h2V8h5V9h1v1h1v1h1v4h1v1H20v3H19v1H18v1H17v3h2v1h2v1h1v1h1v6h6V0H0V33H6V27Z"/><rect class="ea235-1" x="11" y="19" height="1"/><rect class="ea235-1" x="12" y="20" height="1"/><path class="ea235-2" d="M23,27H22v3H21V27H20v6h1V31h1v2h1V27Z"/><rect class="ea235-2" x="21" y="26" width="1" height="1"/><path class="ea235-3" d="M21,28v2h1V27H21Z"/><path class="ea235-4" d="M21,31v2h1V31Z"/><path class="ea235-2" d="M20,26h1V25H19v1Z"/><rect class="ea235-3" x="18" y="29" width="1" height="1"/><path class="ea235-3" d="M19,32V31H18v1H17V29h1V28h1v1h1V27h1V26H19V25H17v1H16v1H13V26H12V25H10v1H8v1H9v2h1V28h1v1h1v3H11V31H10v1H9v1H20V32Zm-3-2v1H15v1H13V28h2v1h1Z"/><rect class="ea235-3" x="10" y="29" width="1" height="1"/><path class="ea235-3" d="M15,29H14v2h1V29Z"/><path class="ea235-2" d="M18,25h1V24H17v1Z"/><rect class="ea235-2" x="16" y="25" width="1" height="1"/><path class="ea235-2" d="M13,26v1h3V26H13Z"/><path class="ea235-2" d="M13,23h3v1h1V21H16v1H13V21H12v3h1Z"/><path class="ea235-4" d="M13,25v1h3V25h1V24H16V23H13v1H12v1Z"/><rect class="ea235-2" x="12" y="25" width="1" height="1"/><path class="ea235-2" d="M12,24H10v1h2Z"/><path class="ea235-2" d="M10,25H8v1h2Z"/><path class="ea235-2" d="M7,32V31H8v2H9V27H8v3H7V27H6v6H7Z"/><rect class="ea235-2" x="7" y="26" width="1" height="1"/><path class="ea235-3" d="M7,28v2H8V27H7Z"/><path class="ea235-4" d="M7,31v2H8V31Z"/><path class="ea235-5" d="M19,30H18V29H17v3h1V31h1v1h1V29H19Z"/><rect class="ea235-5" x="18" y="28" width="1" height="1"/><path class="ea235-5" d="M15,30v1h1V29H15Z"/><path class="ea235-5" d="M14,30V29h1V28H13v4h2V31H14Z"/><path class="ea235-5" d="M10,31h1v1h1V29H11v1H10V29H9v3h1Z"/><rect class="ea235-5" x="10" y="28" width="1" height="1"/><polygon class="ea235-2" points="20 16 21 16 21 15 20 15 20 16 20 16"/><path class="ea235-4" d="M14,10v1H12v1h0v1h4V12h2v1h1V11H18V10H14Z"/><path class="ea235-4" d="M11,19h0v1h1v1h1v1h3V21h1V20h1V19h1V16h1V15H18v1H16V15H15V14H14v1H13v1H11V15H9v1h1v3Zm3-2V16h1v1H14Zm-2,1h5v1H16v1H13V19H12Z"/><rect class="ea235-4" x="10" y="13" width="1" height="1"/><path class="ea235-2" d="M19,17v2h1V16H19Z"/><polygon class="ea235-2" points="18 19 18 20 19 20 19 19 18 19 18 19"/><polygon class="ea235-2" points="17 20 17 21 18 21 18 20 17 20 17 20"/><path class="ea235-2" d="M14,10Z"/><polygon class="ea235-2" points="12 20 11 20 11 20 11 21 12 21 12 20 12 20"/><polygon class="ea235-2" points="11 19 10 19 10 19 10 20 11 20 11 19 11 19"/><path class="ea235-2" d="M10,16H9v3h1V16Z"/><rect class="ea235-2" x="8" y="15" width="1" height="1"/><polygon class="ea235-2" points="15 17 15 16 14 16 14 17 14 17 15 17 15 17"/><rect class="ea235-6" x="18" y="13" width="1" height="1"/><path class="ea235-6" d="M16,12v1h2V12Z"/><rect class="ea235-6" x="10" y="13" width="1"/><rect class="ea235-6" x="11" y="12" width="1" height="1"/><path class="ea235-7" d="M16,19V18H12v1h4Z"/><path class="ea235-2" d="M13,20h3V19H13Z"/><path class="ea235-2" d="M17,19V18H16v1Z"/><path class="ea235-8" d="M19,11v3h1V11H19V10H18v1Z"/><path class="ea235-8" d="M10,13h1V12h1V11h2V10h4V9H17V8H12V9H10v1H9v1H8v3h2Z"/><path class="ea235-2" d="M11,16h2V15h1V14h1v1h1v1h2V15h2V14H18V13H11v1H9v1h2Z"/></svg>