<svg xmlns="http://www.w3.org/2000/svg" viewBox="0 0 29 33"><defs><style>polygon,rect,path{shape-rendering:crispedges;}.ha248-1{fill:#31a09d;}.ha248-2{fill:#000000;}.ha248-3{fill:#cc3232;}.ha248-4{fill:#e8b795;}.ha248-5{fill:#cc3232;}.ha248-6{fill:#ffffff;}.ha248-7{fill:#b23b00;}.ha248-8{fill:#b23b00;}.ha248-9{fill:#0079bc;}</style></defs><rect class="ha248-1" x="9" y="16" width="1"/><path class="ha248-1" d="M0,33H6V24H7V23H8v1H9v1h1V24h2V21H9V20H8V19H9V16H8V15H9V11h1V10h1V9h2V7h1V6h2V5h2V6H17V7h1v3h1v1h1v4h1v1H20v3h1v1H20v1H17v3h2v1h2v1h1v1h1v6h6V0H0Z"/><rect class="ha248-1" x="19" y="16" width="1"/><polygon class="ha248-1" points="14 16 15 16 15 16 14 16 14 17 14 17 14 16"/><path class="ha248-2" d="M23,27H22v6h1V27Z"/><rect class="ha248-2" x="21" y="26" width="1" height="1"/><path class="ha248-3" d="M22,27H21v6h1V27Z"/><path class="ha248-2" d="M21,27H20v6h1V27Z"/><path class="ha248-2" d="M20,26h1V25H19v1Z"/><path class="ha248-3" d="M20,27h1V26H19V25H17v1H16v1H13V26H12V25H10v2H9v6H20V27Zm-9,2v3H10V28h1Zm4,3H12V28h3Zm4-3H17v2h1V30h1v2H16V28h3Z"/><rect class="ha248-3" x="13" y="29" width="1" height="2"/><path class="ha248-2" d="M18,25h1V24H17v1Z"/><rect class="ha248-2" x="16" y="25" width="1" height="1"/><path class="ha248-2" d="M13,26v1h3V26H13Z"/><path class="ha248-2" d="M13,23h3v1h1V21H16v1H13V21H12v3h1Z"/><path class="ha248-4" d="M13,25v1h3V25h1V24H16V23H13v1H12v1Z"/><rect class="ha248-2" x="12" y="25" width="1" height="1"/><path class="ha248-2" d="M12,24H10v1h2Z"/><path class="ha248-2" d="M9,27H8v6H9V27Z"/><path class="ha248-3" d="M8,27H7v6H8V27Z"/><path class="ha248-2" d="M7,27V24H6v9H7V27Z"/><path class="ha248-5" d="M12,32h3V28H12Zm1-3h1v2H13Z"/><path class="ha248-5" d="M10,29v3h1V28H10Z"/><path class="ha248-5" d="M16,28v4h3V30H18v1H17V29h2V28H16Z"/><polygon class="ha248-2" points="20 16 20 16 21 16 21 15 20 15 20 16 20 16"/><polygon class="ha248-4" points="9 16 10 16 10 15 9 15 9 15 9 15 9 16"/><rect class="ha248-4" x="12" y="21"/><rect class="ha248-4" x="18" y="10"/><rect class="ha248-4" x="11" y="10"/><path class="ha248-4" d="M10,14h0V13h1V12h2v1h4V12h2v1H18v1h1V11H18V10H15v1H13V10H11v1H10v3Z"/><polygon class="ha248-4" points="19 16 20 16 20 16 20 15 20 15 19 15 19 16"/><path class="ha248-4" d="M17,18v1h1V18h1V16H16V15H15V14H14v1H13v1H10v2h1v1h1V18Zm-3-2h1v1H14Z"/><path class="ha248-4" d="M17,19H16v1H13V19H12v2h1v1h3V21h1V19Z"/><rect class="ha248-4" x="17" y="21"/><polygon class="ha248-2" points="18 11 19 11 19 11 19 10 18 10 18 10 18 11"/><path class="ha248-2" d="M17,20v1h1V20Z"/><path class="ha248-2" d="M16,10h2V9H16Z"/><path class="ha248-2" d="M12,10h1V9H11v1h1Z"/><path class="ha248-2" d="M12,20H11v1h1Z"/><polygon class="ha248-2" points="11 11 11 10 11 10 10 10 10 11 10 11 11 11"/><polygon class="ha248-2" points="9 15 9 15 8 15 8 16 9 16 9 16 9 15"/><polygon class="ha248-2" points="14 17 14 17 15 17 15 16 15 16 14 16 14 17"/><path class="ha248-6" d="M11,15H10v1h1Z"/><path class="ha248-6" d="M19,15H18v1h1Z"/><rect class="ha248-7" x="10" y="13" width="1" height="1"/><path class="ha248-7" d="M11,12v1h2V12Z"/><polygon class="ha248-7" points="19 12 17 12 17 13 18 13 18 13 19 13 19 12"/><path class="ha248-8" d="M19,16v2H18v1H17v1h1v1h2V20h1V19H20V16Z"/><path class="ha248-8" d="M12,20V19H11V18H10V16H9v3H8v1H9v1h2V20Z"/><polygon class="ha248-2" points="13 20 16 20 16 19 17 19 17 18 12 18 12 19 13 19 13 20"/><path class="ha248-4" d="M7,27H9V25H8V24H7v3Z"/><path class="ha248-2" d="M10,27V25H9v2Z"/><rect class="ha248-2" x="8" y="24" width="1" height="1"/><rect class="ha248-2" x="7" y="23" width="1" height="1"/><path class="ha248-9" d="M13,11h2V10h1V9h2V7H17V6h1V5H16V6H14V7H13v4Z"/><path class="ha248-2" d="M11,15v1h2V15h1V14h1v1h1v1h2V15h2V11H19v3H18V13H11v1H10V11H9v4h2Z"/><rect class="ha248-9" x="18" y="9" width="1" height="1"></rect></svg>