<svg xmlns="http://www.w3.org/2000/svg" viewBox="0 0 29 33"><defs><style>polygon,rect,path{shape-rendering:crispedges;}.da154-1{fill:#7a982c;}.da154-2{fill:#000000;}.da154-3{fill:#cc3232;}.da154-4{fill:#c18d59;}.da154-5{fill:#ffb3c0;}.da154-6{fill:#ffffff;}.da154-7{fill:#4922aa;}.da154-8{fill:#db5800;}</style></defs><path class="da154-1" d="M0,33H6V27H7V26H8V25h2V24h2V21H11V20H10V19H9V16H8V15H9V10h1V9h1V8h7V9h1v1h1v5h1v1H20v3H19v1H18v1H17v3h2v1h2v1h1v1h1v6h6V0H0Z"/><path class="da154-2" d="M23,27H22v3H21V27H20v6h1V31h1v2h1V27Z"/><rect class="da154-2" x="21" y="26" width="1" height="1"/><path class="da154-3" d="M21,28v2h1V27H21Z"/><path class="da154-4" d="M21,31v2h1V31Z"/><path class="da154-2" d="M20,26h1V25H19v1Z"/><path class="da154-3" d="M16,32H12v1h5V32Z"/><rect class="da154-3" x="16" y="30" width="1" height="1"/><path class="da154-3" d="M20,27h1V26H19V25H17v1H16v1H13V26H12V25H10v1H8v1H9v6h1V30h1V29h1V28h5v1h1v1h1v3h1V27Z"/><rect class="da154-3" x="12" y="30" width="1" height="1"/><path class="da154-2" d="M18,25h1V24H17v1Z"/><rect class="da154-2" x="16" y="25" width="1" height="1"/><path class="da154-2" d="M13,26v1h3V26H13Z"/><path class="da154-2" d="M13,23h3v1h1V21H16v1H13V21H12v3h1Z"/><path class="da154-4" d="M13,25v1h3V25h1V24H16V23H13v1H12v1Z"/><rect class="da154-2" x="12" y="25" width="1" height="1"/><path class="da154-2" d="M12,24H10v1h2Z"/><path class="da154-2" d="M10,25H8v1h2Z"/><path class="da154-2" d="M9,27H8v3H7V27H6v6H7V31H8v2H9V27Z"/><rect class="da154-2" x="7" y="26" width="1" height="1"/><path class="da154-3" d="M7,30H8V27H7v3Z"/><path class="da154-4" d="M7,31v2H8V31Z"/><path class="da154-5" d="M19,30H18V29H17V28H12v1H11v1H10v3h2V32h5v1h2V30Zm-6,1H12V30h1Zm4,0H16V30h1Z"/><rect class="da154-2" x="20" y="15" width="1" height="1"/><path class="da154-2" d="M19,15h1V14H19Z"/><path class="da154-4" d="M13,22h3V21h1V20h1V19h1V16h1V15H16V14h2V13H16V12h2v1h1V11H18V10H17v1H14V10H13v1H12V10H11v1H10v1h2v1h1v2H9v1h1v3h1v1h1v1h1Zm1-6h1v1H14Zm0,3h1v1H14Z"/><path class="da154-4" d="M10,14h2V13H10Z"/><path class="da154-2" d="M19,17v2h1V16H19Z"/><rect class="da154-2" x="18" y="19" width="1" height="1"/><rect class="da154-2" x="17" y="20" width="1" height="1"/><rect class="da154-2" x="11" y="20" width="1" height="1"/><rect class="da154-2" x="10" y="19" width="1" height="1"/><path class="da154-2" d="M10,14H9v1h1Z"/><path class="da154-2" d="M10,16H9v3h1V16Z"/><rect class="da154-2" x="8" y="15" width="1" height="1"/><rect class="da154-2" x="14" y="16" width="1" height="1"/><path class="da154-6" d="M12,15h1V14H12Z"/><path class="da154-6" d="M10,14v1h1V14Z"/><path class="da154-6" d="M18,14v1h1V14Z"/><path class="da154-6" d="M16,14v1h1V14Z"/><path class="da154-2" d="M11,14v1h1V14Z"/><path class="da154-2" d="M17,14v1h1V14Z"/><rect class="da154-7" x="18" y="13" width="1" height="1"/><rect class="da154-7" x="16" y="12" width="2" height="1"/><path class="da154-7" d="M13,14V13H12v1Z"/><rect class="da154-7" x="10" y="12" width="2" height="1"/><rect class="da154-2" x="14" y="19" width="1" height="1"/><path class="da154-8" d="M10,13V11h1V10h1v1h1V10h1v1h3V10h1v1h1v3h1V10H19V9H18V8H11V9H10v1H9v4h1Z"/></svg>