<svg xmlns="http://www.w3.org/2000/svg" viewBox="0 0 29 33"><defs><style>polygon,rect,path{shape-rendering:crispedges;}.sa79-1{fill:#db5a8e;}.sa79-2{fill:#000000;}.sa79-3{fill:#004a77;}.sa79-4{fill:#ce8452;}.sa79-5{fill:#004a77;}.sa79-6{fill:#ffffff;}.sa79-7{fill:#8e4717;}.sa79-8{fill:#b23b00;}.sa79-9{fill:#8e4717;}.sa79-10{fill:#c8a715;}.sa79-11{fill:#00bc55;}.sa79-12{fill:#ffffff;}.sa79-13{fill:#ea1500;}.sa79-14{fill:#005e12;}.sa79-15{fill:#008e21;}</style></defs><path class="sa79-1" d="M20,23V22H19v3h2V23Z"/><path class="sa79-1" d="M6,32V27H7V26H8V25h2V22H9V21H8V20H7V11H8V10H9V9h1V8h1V7h7V8h1V9h1v1h1v1h1v6h2v1h1v5H24v8H23v1H21v1h8V0H0V33H6Z"/><path class="sa79-2" d="M23,26v5h1V25H23Z"/><path class="sa79-2" d="M7,27H6v6H7V27Z"/><path class="sa79-3" d="M8,27H7v6H8V27Z"/><rect class="sa79-2" x="7" y="26" width="1" height="1"/><path class="sa79-2" d="M9,31V27H8v6H9V31Z"/><path class="sa79-3" d="M19,32V31H18v1H17V30H16v1H15v1H13V30H12v2H11V31H10v1H9v1H20V32Z"/><rect class="sa79-3" x="18" y="29" width="1" height="1"/><path class="sa79-3" d="M9,27v2h1V28h1v1h1V24H11v1H10v1H8v1Z"/><rect class="sa79-3" x="10" y="29" width="1" height="1"/><path class="sa79-3" d="M18,24H17v5h1V28h1v1h1V27h1V26H19V25H18Z"/><path class="sa79-2" d="M10,25H8v1h2Z"/><path class="sa79-2" d="M11,24H10v1h1Z"/><rect class="sa79-2" x="11" y="23" width="1" height="1"/><path class="sa79-2" d="M15,24H13v1h3V24Z"/><path class="sa79-4" d="M14,24h2V23H13v1Z"/><rect class="sa79-2" x="17" y="23" width="1" height="1"/><path class="sa79-2" d="M18,24v1h1V24Z"/><path class="sa79-2" d="M22,32h1V31H22V25H19v1h2v1H20v6h1V32Z"/><path class="sa79-3" d="M23,26V25H22v6h1V26Z"/><path class="sa79-3" d="M14,29v2h1V29Z"/><path class="sa79-3" d="M13,25v3h2v1h1V25H13Z"/><path class="sa79-5" d="M19,30H18V29H17v3h1V31h1v1h1V29H19Z"/><rect class="sa79-5" x="18" y="28" width="1" height="1"/><path class="sa79-5" d="M15,29v2h1V29Z"/><path class="sa79-5" d="M14,30V29h1V28H13v4h2V31H14Z"/><path class="sa79-5" d="M11,29v1H10V29H9v3h1V31h1v1h1V29Z"/><rect class="sa79-5" x="10" y="28" width="1" height="1"/><path class="sa79-2" d="M13,25H12v5h1V25Z"/><path class="sa79-2" d="M17,28V25H16v5h1V28Z"/><path class="sa79-4" d="M18,15H17v2H16V15H15V11H14v1H13v2h1v2h1v1H14V16H13V15H11v4h1V18h2v1h1V18h2v1h1V15Z"/><path class="sa79-4" d="M16,12v1h2V12H16Z"/><rect class="sa79-4" x="11" y="13" width="1" height="1"/><polygon class="sa79-4" points="13 21 14 21 14 22 15 22 15 21 16 21 16 20 13 20 13 21"/><rect class="sa79-2" x="14" y="16" width="1" height="1"/><path class="sa79-6" d="M12,15h1V14H12Z"/><rect class="sa79-6" x="16" y="14" width="1" height="1"/><path class="sa79-2" d="M11,14v1h1V14Z"/><rect class="sa79-2" x="17" y="14" width="1" height="1"/><rect class="sa79-7" x="11" y="12" width="1" height="1"/><polygon class="sa79-7" points="16 14 17 14 18 14 18 13 16 13 16 14"/><path class="sa79-8" d="M11,15V12H10v6h1V15Z"/><path class="sa79-8" d="M15,15h1V12h1V11H15Z"/><path class="sa79-8" d="M19,12H18v6h1V12Z"/><path class="sa79-8" d="M12,13v1h1V12h1V11H12v2Z"/><path class="sa79-8" d="M13,16h1V14H13v2Z"/><path class="sa79-8" d="M16,16v1h1V15H16Z"/><path class="sa79-3" d="M20,20.667V20H19v1h1Z"/><rect class="sa79-3" x="9" y="20" width="1" height="1"/><path class="sa79-3" d="M9,19V12h1V11h2V10h5v1h2v1h1v6h1V11H20V10H19V9H18V8H11V9H10v1H9v1H8v9H9Z"/><rect class="sa79-3" x="11" y="22" width="1" height="1"/><rect class="sa79-3" x="17" y="22" width="1" height="1"/><rect class="sa79-2" x="10" y="8" width="1" height="1"/><rect class="sa79-2" x="9" y="9" width="1" height="1"/><rect class="sa79-2" x="8" y="10" width="1" height="1"/><path class="sa79-2" d="M8,11H7v9H8V11Z"/><rect class="sa79-2" x="8" y="20" width="1" height="1"/><rect class="sa79-2" x="9" y="21" width="1" height="1"/><rect class="sa79-2" x="19" y="21" width="1" height="1"/><path class="sa79-2" d="M21,17h1V11H21v6Z"/><rect class="sa79-2" x="20" y="10" width="1" height="1"/><rect class="sa79-2" x="19" y="9" width="1" height="1"/><rect class="sa79-2" x="18" y="8" width="1" height="1"/><path class="sa79-2" d="M18,8V7H11V8h7Z"/><path class="sa79-2" d="M12,12V11H10v1h2Z"/><path class="sa79-2" d="M10,12H9v5h1V12Z"/><path class="sa79-2" d="M20,12H19v5h1V12Z"/><path class="sa79-2" d="M18,12h1V11H17v1Z"/><path class="sa79-2" d="M15,11h2V10H12v1h3Z"/><path class="sa79-9" d="M14,18H13v1h1Z"/><path class="sa79-9" d="M12,22v1h5V22h2V20h1V17H19v1H18v1H17V18H15v1h1v2H15v1H14V21H13V19H11V18H10V17H9v3h1v2h2Z"/><path class="sa79-10" d="M19,23V22H18v1Z"/><path class="sa79-9" d="M18,24h1V23H18Z"/><path class="sa79-10" d="M17,24V23H16v1Z"/><path class="sa79-9" d="M16,25h1V24H16Z"/><path class="sa79-10" d="M13,23H12v1h1Z"/><path class="sa79-9" d="M13,24H12v1h1Z"/><path class="sa79-10" d="M11,22H10v1h1Z"/><path class="sa79-9" d="M11,23H10v1h1Z"/><path class="sa79-2" d="M13,19v1h3V19H13Z"/><path class="sa79-2" d="M12,18v1h1V18Z"/><path class="sa79-11" d="M21,18h1v2H21v1h3V20H23V18h1V17H21Z"/><path class="sa79-11" d="M21,19V18H20v2h1Z"/><path class="sa79-12" d="M22,19V18H21v1Z"/><path class="sa79-2" d="M21,20h1V19H21Z"/><path class="sa79-12" d="M23,19h1V18H23Z"/><path class="sa79-2" d="M23,19v1h1V19Z"/><path class="sa79-13" d="M24,22V21H21v1Z"/><path class="sa79-11" d="M21,22v1h3V22Z"/><path class="sa79-11" d="M24,20h1V18H24v2Z"/><path class="sa79-14" d="M21,23v2h3V23H21Z"/><path class="sa79-13" d="M24,20.333V21h1V20H24Z"/><path class="sa79-13" d="M20,20.667V21h1V20H20v.667Z"/><path class="sa79-15" d="M20,22v1h1V21H20Z"/><path class="sa79-15" d="M24,21.222V23h1V21H24Z"/></svg>