<svg xmlns="http://www.w3.org/2000/svg" viewBox="0 0 29 33"><defs><style>polygon,rect,path{shape-rendering:crispedges;}.ib97-1{fill:#6b4f99;}.ib97-2{fill:#000000;}.ib97-3{fill:#c18d59;}.ib97-4{fill:#b23b00;}.ib97-5{fill:#b23b00;}.ib97-6{fill:#00e2b7;}.ib97-7{fill:#ffffff;}</style></defs><path class="ib97-1" d="M0,33H6V27H7V26H8V25h2V24h2V21H11V20H10V19H9V16H8V15H9V11h1V9h1V8h7V9h1v1h1v5h1v1H20v3H19v1H18v1H17v3h2v1h2v1h1v1h1v6h6V0H0Z"/><path class="ib97-2" d="M23,27H22v6h1V27Z"/><path class="ib97-3" d="M22,27H21v6h1V27Z"/><rect class="ib97-2" x="21" y="26" width="1" height="1"/><path class="ib97-2" d="M21,27H20v6h1V27Z"/><path class="ib97-3" d="M20,27h1V26H19V25H17V24H16V23H13v1H12v1H10v1H8v1H9v6h5V29h1v4h5V27Zm-8,2H11V28h1Zm6,0H17V28h1Z"/><path class="ib97-2" d="M20,26h1V25H19v1Z"/><rect class="ib97-2" x="17" y="28" width="1" height="1"/><path class="ib97-2" d="M18,25h1V24H17v1Z"/><path class="ib97-2" d="M15,29H14v4h1V29Z"/><path class="ib97-2" d="M13,23h3v1h1V21H16v1H13V21H12v3h1Z"/><rect class="ib97-2" x="11" y="28" width="1" height="1"/><path class="ib97-2" d="M12,24H10v1h2Z"/><path class="ib97-2" d="M10,25H8v1h2Z"/><path class="ib97-2" d="M9,27H8v6H9V27Z"/><path class="ib97-3" d="M8,27H7v6H8V27Z"/><rect class="ib97-2" x="7" y="26" width="1" height="1"/><path class="ib97-2" d="M7,27H6v6H7V27Z"/><rect class="ib97-2" x="20" y="15" width="1" height="1"/><rect class="ib97-3" x="19" y="15" width="1" height="1"/><path class="ib97-3" d="M13,12v2h3V13H15V12H14V11H13V10H11v1H10v1Z"/><path class="ib97-3" d="M12,19V18h5v1h2V16H18v1H16V16H15v1H14V16H13v1H11V16H10v3h2Z"/><rect class="ib97-3" x="9" y="15" width="1" height="1"/><rect class="ib97-3" x="10" y="13" width="1" height="1"/><rect class="ib97-3" x="14" y="15" width="1" height="1"/><rect class="ib97-3" x="12" y="19" width="1" height="1"/><rect class="ib97-3" x="16" y="19" width="1" height="1"/><rect class="ib97-3" x="13" y="20" width="1" height="1"/><rect class="ib97-3" x="15" y="20" width="1" height="1"/><path class="ib97-2" d="M19,17v2h1V16H19Z"/><path class="ib97-2" d="M18,20h1V19H18Z"/><rect class="ib97-2" x="17" y="20" width="1" height="1"/><rect class="ib97-2" x="11" y="20" width="1" height="1"/><path class="ib97-2" d="M10,19v1h1V19Z"/><path class="ib97-2" d="M10,16H9v3h1V16Z"/><rect class="ib97-2" x="8" y="15" width="1" height="1"/><rect class="ib97-2" x="14" y="16" width="1" height="1"/><path class="ib97-4" d="M12,13h1V12H10v1h2Z"/><path class="ib97-5" d="M17,19v1h1V19Z"/><rect class="ib97-5" x="16" y="20" width="1" height="1"/><path class="ib97-5" d="M15,20H14v1H13v1h3V21H15Z"/><path class="ib97-5" d="M14,19h2V18H12v1h2Z"/><rect class="ib97-5" x="12" y="20" width="1" height="1"/><path class="ib97-5" d="M12,19H11v1h1Z"/><path class="ib97-2" d="M15,20h1V19H13v1h2Z"/><path class="ib97-2" d="M17,19V18H16v1Z"/><path class="ib97-6" d="M11,10h2v1h1v1h1v1h3v1h1v1h1V10H19V9H18V8H11V9H10v2h1Z"/><path class="ib97-6" d="M10,14V11H9v4h1Z"/><path class="ib97-7" d="M11,13v1h2V13H11Z"/><path class="ib97-7" d="M11,17h2V16H11Z"/><path class="ib97-7" d="M10,14v2h1V14Z"/><path class="ib97-2" d="M11,14v2h2V14Z"/><path class="ib97-7" d="M19,14H18v2h1V14Z"/><path class="ib97-7" d="M18,13H16v1h2Z"/><path class="ib97-7" d="M16,17h2V16H16Z"/><path class="ib97-7" d="M13,14v2h1V15h1v1h1V14Z"/><path class="ib97-2" d="M16,14v2h2V14Z"/></svg>