<svg xmlns="http://www.w3.org/2000/svg" viewBox="0 0 29 33"><defs><style>polygon,rect,path{shape-rendering:crispedges;}.ea210-1{fill:#6b4f99;}.ea210-2{fill:#000000;}.ea210-3{fill:#508e91;}.ea210-4{fill:#6d3e35;}.ea210-5{fill:#c6e5e4;}.ea210-6{fill:#ffffff;}.ea210-7{fill:#8e4717;}.ea210-8{fill:#00774c;}.ea210-9{fill:#990000;}.ea210-10{fill:#a06415;}</style></defs><path class="ea210-1" d="M6,32V27H7V26H8V25h2V24h2V21H11v1H10V19H9V16H8V15H9V14H8V12H9V11H8V10H9V9H8V8h2V7h1V8h1V6h1V7h1V8h1V7h1V6h1V7h1V8h1V7h1V8H19V9h2v2H20v1h1v1H20v1h1v2H20v3H19v1H18v1H17v3h2v1h2v1h1v1h1v6h6V0H0V33H6Z"/><path class="ea210-2" d="M23,27H22v3H21V27H20v6h1V31h1v2h1V27Z"/><rect class="ea210-2" x="21" y="26" width="1" height="1"/><path class="ea210-3" d="M21,28v2h1V27H21Z"/><path class="ea210-4" d="M21,31v2h1V31Z"/><path class="ea210-2" d="M20,26h1V25H19v1Z"/><rect class="ea210-3" x="12" y="30" width="1" height="1"/><path class="ea210-3" d="M16,32H12v1h5V32Z"/><path class="ea210-3" d="M20,27h1V26H19V25H17v1H16v1H13V26H12V25H10v1H8v1H9v6h1V30h1V29h1V28h5v1h1v1h1v3h1V27Z"/><rect class="ea210-3" x="16" y="30" width="1" height="1"/><path class="ea210-2" d="M18,25h1V24H17v1Z"/><rect class="ea210-2" x="16" y="25" width="1" height="1"/><path class="ea210-2" d="M13,26v1h3V26H13Z"/><path class="ea210-2" d="M13,23V22H12v2h1Z"/><path class="ea210-4" d="M13,25v1h3V25h1V24H16V23H13v1H12v1Z"/><rect class="ea210-2" x="12" y="25" width="1" height="1"/><path class="ea210-2" d="M12,24H10v1h2Z"/><path class="ea210-2" d="M10,25H8v1h2Z"/><path class="ea210-2" d="M9,27H8v3H7V27H6v6H7V31H8v2H9V27Z"/><rect class="ea210-2" x="7" y="26" width="1" height="1"/><path class="ea210-3" d="M7,30H8V27H7v3Z"/><path class="ea210-4" d="M7,31v2H8V31Z"/><path class="ea210-5" d="M19,30H18V29H17V28H12v1H11v1H10v3h2V32h5v1h2V30Zm-6,1H12V30h1Zm4,0H16V30h1Z"/><path class="ea210-2" d="M20,16h1V15H20Z"/><rect class="ea210-4" x="10" y="11" width="1" height="1"/><rect class="ea210-4" x="11" y="10" width="1" height="1"/><rect class="ea210-4" x="9" y="15" width="1" height="1"/><rect class="ea210-4" x="15" y="20" width="1" height="1"/><rect class="ea210-4" x="19" y="15" width="1" height="1"/><rect class="ea210-4" x="13" y="20" width="1" height="1"/><polygon class="ea210-4" points="18 11 18 10 17 10 17 11 16 11 16 12 18 12 18 11"/><rect class="ea210-4" x="10" y="16" width="1" height="1"/><path class="ea210-4" d="M18,16H16V14h2V13H16V12H15V10H14v1H13v3h1v2h1v1H14V16H13v1H11v2h1V18h2v1h1V18h2v1h1V18h1V16Z"/><path class="ea210-2" d="M19,17h1V16H19Z"/><path class="ea210-2" d="M16,23v1h1V22H16Z"/><path class="ea210-2" d="M10,16H9v1h1Z"/><rect class="ea210-2" x="8" y="15" width="1" height="1"/><rect class="ea210-2" x="14" y="16" width="1" height="1"/><path class="ea210-6" d="M12,15v1h1V14H12Z"/><path class="ea210-6" d="M16,14v2h1V14Z"/><path class="ea210-6" d="M18,15v1h1V14H18Z"/><path class="ea210-2" d="M12,14H11v2h1V14Z"/><path class="ea210-2" d="M18,14H17v2h1V14Z"/><rect class="ea210-7" x="18" y="13" width="1" height="1"/><rect class="ea210-7" x="16" y="12" width="2" height="1"/><rect class="ea210-7" x="10" y="13" width="1" height="1"/><path class="ea210-7" d="M13,12H11v1h2Z"/><path class="ea210-8" d="M14,18H13v1h1Z"/><path class="ea210-8" d="M13,23h3V22h1V21h1V20h1V19h1V17H19v1H18v1H17V18H15v1h1v2H15V20H14v1H13V19H11v2h1v1h1Z"/><path class="ea210-8" d="M9,17v2h1V17Z"/><path class="ea210-2" d="M13,19v1h3V19H13Z"/><path class="ea210-2" d="M12,18v1h1V18Z"/><path class="ea210-9" d="M10,14V13h1V12H10V11h1V10h1v1H11v1h2V11h1V10h1v2h1V11h1V10h1v3h1v2h2V14H20V13h1V12H20V11h1V9H19V8H18V7H17V6H16V7H15V8H14V7H13V6H12V8H11V7H10V8H8V9H9v1H8v1H9v1H8v2H9v1h1Z"/><rect class="ea210-9" x="19" y="7" width="1" height="1"/><path class="ea210-10" d="M14,16V14H13v2Z"/><path class="ea210-10" d="M12,14h1V13H11v1Z"/><path class="ea210-10" d="M13,16H11v1h2Z"/><path class="ea210-10" d="M11,15V14H10v2h1Z"/><path class="ea210-10" d="M11,17H10v5h1V17Z"/></svg>