<svg xmlns="http://www.w3.org/2000/svg" viewBox="0 0 29 33"><defs><style>polygon,rect,path{shape-rendering:crispedges;}.za214-1{fill:#b4bd09;}.za214-2{fill:#000000;}.za214-3{fill:#6f7032;}.za214-4{fill:#e8b795;}.za214-5{fill:#ff791f;}.za214-6{fill:#ffffff;}.za214-7{fill:#8e703c;}.za214-8{fill:#8e703c;}.za214-9{fill:#ff1f4a;}.za214-10{fill:#560000;}.za214-11{fill:#4922aa;}</style></defs><path class="za214-1" d="M0,33H6V27H7V26H8V25h2V24h1V23h1V22H11V21H10V20H9V16H8V15H9V13H8V9H9V8h1V7h1V6h7V7h1V8h1V9h1v4H20v2h1v1H20v4H19v1H18v1H17v1h1v1h1v1h2v1h1v1h1v6h6V0H0Z"/><path class="za214-2" d="M23,27H22v6h1V27Z"/><path class="za214-3" d="M21,28h1V27H21Z"/><path class="za214-3" d="M21,31v1h1V30H21Z"/><rect class="za214-2" x="21" y="26" width="1" height="1"/><path class="za214-2" d="M21,31V27H20v6h1V31Z"/><path class="za214-3" d="M13,29h1V27H13V26H12v2h1Z"/><path class="za214-3" d="M18,26v2h1v1h1V27H19V25H18Z"/><path class="za214-3" d="M16,31V30H15v2h1v1h1V31Z"/><path class="za214-3" d="M10,31V30H9v2h1v1h1V31Z"/><path class="za214-3" d="M14,31H13V30H12V28H11V27H10V26H9v2h1v1h1v2h1v1h1v1h1V31Z"/><rect class="za214-3" x="14" y="29" width="1" height="1"/><path class="za214-3" d="M19,31V30H18V28H17V27H16V25H15v3h1v1h1v2h1v1h1v1h1V31Z"/><path class="za214-2" d="M20,26h1V25H19v1Z"/><rect class="za214-3" x="16" y="24" width="1" height="1"/><path class="za214-2" d="M16,24h1v1H16v1h2V25h1V24H18V23H16Z"/><rect class="za214-2" x="15" y="24" width="1" height="1"/><path class="za214-2" d="M14,32v1h1V32Z"/><path class="za214-2" d="M14,31h1V30H14Z"/><path class="za214-2" d="M14,29h1V28H14Z"/><path class="za214-2" d="M14,26v1h1V25H14Z"/><rect class="za214-2" x="13" y="24" width="1" height="1"/><path class="za214-4" d="M16,24V23H13v1h1v1h1V24Z"/><path class="za214-2" d="M11,26h2V25H12V24h1V23H11v1H10v1h1Z"/><path class="za214-2" d="M10,26V25H8v1h2Z"/><path class="za214-2" d="M9,31V27H8v6H9V31Z"/><path class="za214-3" d="M8,29V27H7v2Z"/><path class="za214-3" d="M7,31v2H8V31Z"/><rect class="za214-2" x="7" y="26" width="1" height="1"/><path class="za214-2" d="M7,30V27H6v6H7V30Z"/><path class="za214-5" d="M21,29v1h1V28H21Z"/><path class="za214-5" d="M21,32v1h1V32Z"/><path class="za214-5" d="M19,26v1h2V26H19Z"/><path class="za214-5" d="M19,28H18v2h1v1h1V29H19Z"/><path class="za214-5" d="M16,26v1h1v1h1V26Z"/><path class="za214-5" d="M18,32V31H17v2h2V32Z"/><path class="za214-5" d="M15,30h1v1h1V29H16V28H15v2Z"/><path class="za214-5" d="M14,28h1V27H14Z"/><polygon class="za214-5" points="14 27 14 26 14 25 13 25 13 26 13 27 14 27"/><path class="za214-5" d="M14,32h1V31H14Z"/><rect class="za214-5" x="15" y="32" width="1" height="1"/><path class="za214-5" d="M14,29H13V28H12v2h1v1h1V29Z"/><rect class="za214-5" x="12" y="24" width="1" height="1"/><path class="za214-5" d="M10,27h1v1h1V26H11V25H10v2Z"/><path class="za214-5" d="M12,32V31H11v2h2V32Z"/><path class="za214-5" d="M10,30v1h1V29H10V28H9v2Z"/><path class="za214-5" d="M9,32v1h1V32Z"/><path class="za214-5" d="M9,27V26H8v1Z"/><path class="za214-5" d="M7,30v1H8V29H7Z"/><rect class="za214-2" x="20" y="15" width="1" height="1"/><path class="za214-2" d="M19,15h1V14H19Z"/><path class="za214-4" d="M18,15H16V14h2V13H16V12h2V11H15v4H14v1h1v1H14V16H13v1H11v1h1v1h1V18h5V17h1V16h1V15H18Z"/><rect class="za214-4" x="10" y="16" width="1" height="1"/><rect class="za214-4" x="9" y="15" width="1" height="1"/><rect class="za214-4" x="18" y="12" width="1" height="1"/><rect class="za214-2" x="8" y="15" width="1" height="1"/><rect class="za214-2" x="14" y="16" width="1" height="1"/><path class="za214-6" d="M18,15h1V14H18Z"/><path class="za214-6" d="M16,14v1h1V14Z"/><path class="za214-2" d="M17,14v1h1V14Z"/><rect class="za214-7" x="18" y="13" width="1" height="1"/><rect class="za214-7" x="16" y="12" width="2" height="1"/><path class="za214-8" d="M15,18H13v1h3V18Z"/><path class="za214-8" d="M14,23h3V22h1V21h1V20h1V16H19v1H18v1H17v1H16v1H13V19H12V18H11V17H10V16H9v4h1v1h1v1h1v1h2Z"/><rect class="za214-2" x="13" y="19" width="3" height="1"/><path class="za214-2" d="M16,19h1V18H16Z"/><path class="za214-9" d="M13,15V13H11v2h2Z"/><path class="za214-10" d="M13,13v2h1V13Z"/><path class="za214-10" d="M12,15H11v1h2V15Z"/><path class="za214-10" d="M11,14V13H10v2h1Z"/><path class="za214-10" d="M12,13h1V12H11v1Z"/><rect class="za214-2" x="10" y="15" width="1" height="1"/><rect class="za214-2" x="11" y="16" width="2" height="1"/><rect class="za214-2" x="13" y="15" width="1" height="1"/><path class="za214-2" d="M13,13h1v2h1V11H11v1h2Z"/><path class="za214-2" d="M10,14H9v1h1Z"/><rect class="za214-2" x="10" y="12" width="1" height="1"/><path class="za214-11" d="M10,13V12h1V11h7v1h1v2h1V13h1V9H20V8H19V7H18V6H11V7H10V8H9V9H8v4H9v1h1Z"/></svg>