<svg xmlns="http://www.w3.org/2000/svg" viewBox="0 0 29 33"><defs><style>polygon,rect,path{shape-rendering:crispedges;}.ab61-1{fill:#7a982c;}.ab61-2{fill:#000000;}.ab61-3{fill:#c4ea3b;}.ab61-4{fill:#ce8452;}.ab61-5{fill:#6c9302;}.ab61-6{fill:#473a35;}.ab61-7{fill:#cbed03;}.ab61-8{fill:#455054;}.ab61-9{fill:#0068ff;}.ab61-10{fill:#ffce00;}.ab61-11{fill:#ff1f4a;}</style></defs><path class="ab61-1" d="M8,19v3H9v2H8v1h2V24h1V23h1V21H11V20H10V19H9V16H8v3Z"/><path class="ab61-1" d="M0,33H8V32H6V31H5V22H6V21H7V20H5v1H2V17H5V16H8V15H9V10h1V9h1V8h7V9h1v1h1v2h1v6H20v1H19v1H18v1H17v2h1v1h1v1h2v1h1v1h1v6h6V0H0Z"/><path class="ab61-2" d="M6,29V22H5v9H6V29Z"/><path class="ab61-2" d="M23,27H22v6h1V27Z"/><path class="ab61-3" d="M21,28h1V27H21Z"/><path class="ab61-3" d="M21,31h1V30H21Z"/><rect class="ab61-2" x="21" y="26" width="1" height="1"/><path class="ab61-2" d="M21,30V27H20v6h1V30Z"/><path class="ab61-3" d="M14,27H9v1H20V27H14Z"/><path class="ab61-3" d="M15,31h5V30H15Z"/><rect class="ab61-3" x="9" y="30" width="5" height="1"/><path class="ab61-2" d="M20,26h1V25H19v1Z"/><rect class="ab61-3" x="16" y="24" width="1" height="1"/><rect class="ab61-2" x="15" y="24" width="1" height="1"/><rect class="ab61-2" x="14" y="32" width="1" height="1"/><rect class="ab61-2" x="14" y="30" width="1" height="1"/><path class="ab61-2" d="M15,29V28H14v1Z"/><path class="ab61-2" d="M14,26v1h1V25H14Z"/><rect class="ab61-2" x="13" y="24" width="1" height="1"/><path class="ab61-4" d="M14,25h1V24h1V23H13v1h1Z"/><rect class="ab61-3" x="12" y="24" width="1" height="1"/><path class="ab61-2" d="M9,30V27H8V26h2V25H8V24H7v7H6v1H8v1H9V30Z"/><path class="ab61-3" d="M7,30H6v1H7Z"/><path class="ab61-3" d="M6,28H7V27H6Z"/><path class="ab61-3" d="M6,25H7V24H6Z"/><path class="ab61-5" d="M15,31H9v2h5V32h1v1h5V31Z"/><path class="ab61-5" d="M15,29H14V28H9v2H20V28H15Z"/><path class="ab61-5" d="M18,26H16V25H15v2h6V26H19V25H18Z"/><path class="ab61-5" d="M14,26V25H13v1H11V25H10v1H8v1h6Z"/><path class="ab61-5" d="M6,29v1H7V28H6Z"/><path class="ab61-5" d="M6,26v1H7V25H6Z"/><path class="ab61-5" d="M21,31v2h1V31Z"/><path class="ab61-5" d="M21,29v1h1V28H21Z"/><rect class="ab61-4" x="9" y="15" width="1" height="1"/><path class="ab61-4" d="M16,13V12H15V11H13V10H11v1H10v1h2v1h1v1h5V13Z"/><rect class="ab61-4" x="14" y="15" width="1" height="1"/><rect class="ab61-4" x="19" y="15" width="1" height="1"/><path class="ab61-4" d="M19,16H18v1H16V16H15v1H14V16H13v1H11V16H10v3h1v1h1v1h1v1h3V21h1V20h1V19h1V16Zm-2,3H16v1H13V19h3V18h1Z"/><path class="ab61-4" d="M10,13v1h2V13Z"/><path class="ab61-2" d="M19,16v3h1V16Z"/><rect class="ab61-2" x="18" y="19" width="1" height="1"/><rect class="ab61-2" x="17" y="20" width="1" height="1"/><path class="ab61-2" d="M16,22H13V21H12v2H11v1H10v1h1v1h2V25H12V24h1V23h3v1h1v1H16v1h2V25h1V24H18V23H17V21H16Z"/><rect class="ab61-2" x="11" y="20" width="1" height="1"/><rect class="ab61-2" x="10" y="19" width="1" height="1"/><path class="ab61-2" d="M10,16H9v3h1V16Z"/><rect class="ab61-2" x="8" y="15" width="1" height="1"/><rect class="ab61-2" x="14" y="16" width="1" height="1"/><rect class="ab61-6" x="12" y="13" width="1" height="1"/><rect class="ab61-6" x="10" y="12" width="2" height="1"/><rect class="ab61-2" x="13" y="19" width="3" height="1"/><rect class="ab61-2" x="16" y="18" width="1" height="1"/><path class="ab61-7" d="M10,13V11h1V10h2v1h2v1h1v1h2v1h2v4h1V12H20V10H19V9H18V8H11V9H10v1H9v4h1Z"/><path class="ab61-2" d="M10,16h1v1h2V16h1V15h1v1h1v1h2V16h1V15h1V14H9v1h1Z"/><path class="ab61-4" d="M7,24H8V22H6v2Z"/><path class="ab61-8" d="M8,22V20H7v2Z"/><path class="ab61-2" d="M7,21H6v1H7Z"/><path class="ab61-2" d="M9,22H8v2H9Z"/><path class="ab61-9" d="M8,19V16H6v4H8Z"/><path class="ab61-10" d="M6,16H5v1H4v4H5V20H6V16Z"/><path class="ab61-11" d="M4,17H2v4H4V17Z"/></svg>