<svg xmlns="http://www.w3.org/2000/svg" viewBox="0 0 29 33"><defs><style>polygon,rect,path{shape-rendering:crispedges;}.ba32-1{fill:#6b4f99;}.ba32-2{fill:#000000;}.ba32-3{fill:#e8b795;}.ba32-4{fill:#508e5d;}.ba32-5{fill:#ffffff;}.ba32-6{fill:#7f5018;}.ba32-7{fill:#7f5018;}.ba32-8{fill:#10bcff;}.ba32-9{fill:#ff1d99;}.ba32-10{fill:#6e12ff;}.ba32-11{fill:#e281bf;}.ba32-12{fill:#a38ab5;}.ba32-13{fill:#ffffff;}</style></defs><path class="ba32-1" d="M0,33H6V25H7V24H8V22H7v1H6v1H3V23H2V22H1V19H2V18H3V17H6v1H7v1H9V16H8V14H9V11h1V10h1V9h7v1h1v1h1v3h1v2H20v3H19v1H18v1H17v3h2v1h2v1h1v1h1v6h6V0H0Z"/><rect class="ba32-1" x="9" y="19" width="1" height="1"/><path class="ba32-1" d="M11,24h1V21H11V20H10v1H9v4h1V24Z"/><path class="ba32-2" d="M23,27H22v6h1V27Z"/><rect class="ba32-2" x="21" y="26" width="1" height="1"/><path class="ba32-3" d="M22,27H21v6h1V27Z"/><rect class="ba32-3" x="20" y="26" width="1" height="1"/><path class="ba32-2" d="M21,27H20v6h1V27Z"/><path class="ba32-2" d="M20,26h1V25H19v1Z"/><rect class="ba32-4" x="10" y="30" width="1" height="1"/><rect class="ba32-4" x="10" y="32" width="1" height="1"/><rect class="ba32-4" x="18" y="32" width="1" height="1"/><path class="ba32-4" d="M14,31v1h1V30H14Z"/><path class="ba32-4" d="M17,30h1V29h1v1h1V26H19V25H18v1H17v1H16v1H13V27H12V26H11V25H10v1H9v4h1V29h1v1h1v3h1V29h2v1h1v2H15v1h2V30Z"/><rect class="ba32-4" x="18" y="30" width="1" height="1"/><path class="ba32-2" d="M11,24H10v1h1v1h1V24Z"/><path class="ba32-2" d="M9,30V26H8v7H9V30Z"/><rect class="ba32-2" x="9" y="25" width="1" height="1"/><path class="ba32-3" d="M8,26H9V25H7v8H8V26Z"/><path class="ba32-2" d="M7,25H6v8H7V25Z"/><rect class="ba32-2" x="12" y="26" width="1" height="1"/><rect class="ba32-2" x="16" y="26" width="1" height="1"/><path class="ba32-2" d="M18,26V25h1V24H17v2Z"/><path class="ba32-2" d="M13,27v1h3V27H13Z"/><path class="ba32-3" d="M16,23H13v1H12v2h1v1h3V26h1V24H16Z"/><path class="ba32-5" d="M20,30H19v1H18V30H17v3h1V32h1v1h1V30Z"/><rect class="ba32-5" x="18" y="29" width="1" height="1"/><path class="ba32-5" d="M16,32V30H15v2Z"/><path class="ba32-5" d="M14,32V30h1V29H13v4h2V32Z"/><path class="ba32-5" d="M12,30H11v1H10V30H9v3h1V32h1v1h1V30Z"/><rect class="ba32-5" x="10" y="29" width="1" height="1"/><path class="ba32-2" d="M20,16h1V15H20Z"/><path class="ba32-3" d="M16,17V16H15v1H14V16H13v1H10v2h1v1h1V18h5v2h1V19h1V17Z"/><path class="ba32-3" d="M14,22h2V19H15v1H14V19H13v3Z"/><path class="ba32-3" d="M11,13V12h2v2h3V12h2v1h1V11H18V10H11v1H10v2Z"/><rect class="ba32-3" x="14" y="15" width="1" height="1"/><path class="ba32-2" d="M19,17v2h1V16H19Z"/><rect class="ba32-2" x="18" y="19" width="1" height="1"/><rect class="ba32-2" x="17" y="20" width="1" height="1"/><path class="ba32-2" d="M16,22H13V21H12v3h1V23h3v1h1V21H16Z"/><rect class="ba32-2" x="11" y="20" width="1" height="1"/><rect class="ba32-2" x="10" y="19" width="1" height="1"/><path class="ba32-2" d="M10,18V16H9v3h1Z"/><path class="ba32-2" d="M8,15v1H9V15Z"/><rect class="ba32-2" x="14" y="16" width="1" height="1"/><path class="ba32-6" d="M18,12H16v1h2Z"/><path class="ba32-6" d="M13,12H11v1h2Z"/><path class="ba32-7" d="M17,19V18H12v3h1V19h3v2h1V19Z"/><path class="ba32-2" d="M15,20V19H14v1Z"/><path class="ba32-8" d="M19,14h1V11H19v3Z"/><rect class="ba32-8" x="18" y="10" width="1" height="1"/><path class="ba32-8" d="M18,10V9H11v1h7Z"/><rect class="ba32-8" x="10" y="10" width="1" height="1"/><path class="ba32-8" d="M10,13V11H9v3h1Z"/><path class="ba32-9" d="M19,15v1h1V15h1V14H19Z"/><path class="ba32-9" d="M19,14V13H16v1h3Z"/><path class="ba32-10" d="M17,16h2V14H16v2Z"/><path class="ba32-9" d="M16,16v1h3V16H16Z"/><path class="ba32-9" d="M14,16V15h1v1h1V14H13v2Z"/><path class="ba32-9" d="M13,14V13H10v1h3Z"/><path class="ba32-10" d="M13,16V14H10v2h3Z"/><path class="ba32-9" d="M13,17V16H10v1h3Z"/><path class="ba32-9" d="M10,15V14H8v1H9v1h1Z"/><rect class="ba32-9" x="9" y="20" width="1" height="1"/><path class="ba32-9" d="M9,20V19H8v1Z"/><rect class="ba32-11" x="7" y="20" width="1" height="1"/><path class="ba32-9" d="M9,25V21H8v4Z"/><path class="ba32-2" d="M8,24H7v1H8Z"/><rect class="ba32-12" x="2" y="18" width="1" height="1"/><path class="ba32-12" d="M7,21V20H8V19H7V18H6V17H3v1H5v1H3v1H2V19H1v3H2v1H3v1H6V23H7V22H8V21Z"/><rect class="ba32-12" x="8" y="20" width="1" height="1"/><rect class="ba32-13" x="2" y="19" width="1" height="1"/><path class="ba32-13" d="M4,19H5V18H3v1Z"/></svg>