<svg xmlns="http://www.w3.org/2000/svg" viewBox="0 0 29 33"><defs><style>polygon,rect,path{shape-rendering:crispedges;}.ya211-1{fill:#d4a122;}.ya211-2{fill:#000000;}.ya211-3{fill:#d8be00;}.ya211-4{fill:#512a24;}.ya211-5{fill:#f9e100;}.ya211-6{fill:#ffffff;}.ya211-7{fill:#e2e2e2;}.ya211-8{fill:#e2e2e2;}.ya211-9{fill:#c8a715;}.ya211-10{fill:#ff1f4a;}.ya211-11{fill:#560000;}.ya211-12{fill:#9b8100;}</style></defs><path class="ya211-1" d="M0,33H6V27H7V26H8V25h2V20H9V16H8V15H9V11h1V9h1V8h7V9h1v1h1v5h1v1H20v4H19v5h2v1h1v1h1v6h6V0H0Z"/><rect class="ya211-1" x="11" y="22" width="1" height="1"/><rect class="ya211-1" x="17" y="22" width="1" height="1"/><path class="ya211-2" d="M23,27H22v6h1V27Z"/><path class="ya211-3" d="M21,28v2h1V27H21Z"/><path class="ya211-3" d="M21,31v2h1V31Z"/><rect class="ya211-2" x="21" y="26" width="1" height="1"/><path class="ya211-2" d="M21,30V27H20v6h1V30Z"/><path class="ya211-3" d="M20,32V26H19V25H18v1H17v1H16V25H15v2H14V25H13v2H12V26H11V25H10v1H9v6h1v1h4V32h1v1h4V32Zm-9-3H10V28h1Zm2,2H12V30h1Zm2,0H14V30h1Zm0-2H14V28h1Zm2,2H16V30h1Zm1-2V28h1v1Z"/><path class="ya211-2" d="M20,26h1V25H19v1Z"/><path class="ya211-2" d="M18,23H17v2H16v1h2V25h1V24H18Z"/><rect class="ya211-2" x="15" y="24" width="1" height="1"/><rect class="ya211-2" x="14" y="32" width="1" height="1"/><rect class="ya211-2" x="14" y="30" width="1" height="1"/><rect class="ya211-2" x="14" y="28" width="1" height="1"/><path class="ya211-2" d="M14,26v1h1V25H14Z"/><rect class="ya211-2" x="13" y="24" width="1" height="1"/><path class="ya211-4" d="M16,24V23H13v1h1v1h1V24Z"/><path class="ya211-2" d="M11,26h2V25H12V23H11v1H10v1h1Z"/><path class="ya211-2" d="M10,26V25H8v1h2Z"/><path class="ya211-2" d="M9,31V27H8v6H9V31Z"/><path class="ya211-3" d="M7,30H8V27H7v3Z"/><path class="ya211-3" d="M7,31v2H8V31Z"/><rect class="ya211-2" x="7" y="26" width="1" height="1"/><path class="ya211-2" d="M7,30V27H6v6H7V30Z"/><rect class="ya211-5" x="10" y="28" width="1" height="1"/><rect class="ya211-5" x="12" y="30" width="1" height="1"/><path class="ya211-5" d="M12,27h1V26H12Z"/><rect class="ya211-5" x="16" y="30" width="1" height="1"/><rect class="ya211-5" x="18" y="28" width="1" height="1"/><path class="ya211-5" d="M16,27h1V26H16Z"/><path class="ya211-5" d="M9,27V26H8v1Z"/><path class="ya211-5" d="M19,32v1h1V32Z"/><path class="ya211-5" d="M9,32v1h1V32Z"/><path class="ya211-5" d="M7,31H8V30H7Z"/><path class="ya211-5" d="M21,31h1V30H21Z"/><path class="ya211-5" d="M20,27h1V26H20Z"/><rect class="ya211-2" x="20" y="15" width="1" height="1"/><path class="ya211-2" d="M19,12v3h1V11H19Z"/><path class="ya211-4" d="M18,15H16V14h2V13H16V12h2v1h1V11H18V10H17v1H16V10H15v5H14v1h1v1H14V16H13v1H11V16H10v2h1v1h1V18h2v1h1V18h2v1h1V18h1V16h1V15H18Z"/><rect class="ya211-4" x="9" y="15" width="1" height="1"/><polygon class="ya211-4" points="13 21 14 21 14 22 15 22 15 21 16 21 16 20 13 20 13 21"/><path class="ya211-2" d="M19,17h1V16H19Z"/><rect class="ya211-2" x="18" y="10" width="1" height="1"/><rect class="ya211-2" x="15" y="9" width="1" height="1"/><rect class="ya211-2" x="17" y="9" width="1" height="1"/><path class="ya211-2" d="M10,16H9v1h1Z"/><rect class="ya211-2" x="8" y="15" width="1" height="1"/><rect class="ya211-2" x="14" y="16" width="1" height="1"/><path class="ya211-6" d="M18,15h1V14H18Z"/><path class="ya211-2" d="M17,14H16v1h2V14Z"/><path class="ya211-7" d="M18,14h1V13H18Z"/><rect class="ya211-7" x="16" y="12" width="2" height="1"/><path class="ya211-8" d="M12,22v1h5V22h2V20h1V17H19v1H18v1H16v2H15v1H14V21H13V19h1V18H12v1H11V18H10V17H9v3h1v2h2Z"/><path class="ya211-8" d="M15,18v1h1V18Z"/><path class="ya211-9" d="M18,23h1V22H18Z"/><path class="ya211-8" d="M18,24h1V23H18Z"/><path class="ya211-9" d="M17,24V23H16v1Z"/><path class="ya211-8" d="M17,24H16v1h1Z"/><path class="ya211-9" d="M13,23H12v1h1Z"/><path class="ya211-8" d="M12,24v1h1V24Z"/><path class="ya211-9" d="M11,22H10v1h1Z"/><path class="ya211-8" d="M11,23H10v1h1Z"/><path class="ya211-2" d="M14,19H13v1h3V19H14Z"/><path class="ya211-2" d="M16,18v1h1V18Z"/><path class="ya211-10" d="M12,15h1V13H11v2Z"/><path class="ya211-11" d="M14,15V13H13v2Z"/><path class="ya211-11" d="M12,15H11v1h2V15Z"/><path class="ya211-11" d="M11,13H10v2h1Z"/><path class="ya211-11" d="M13,12H11v1h2Z"/><rect class="ya211-2" x="10" y="15" width="1" height="1"/><rect class="ya211-2" x="11" y="16" width="2" height="1"/><rect class="ya211-2" x="13" y="15" width="1" height="1"/><path class="ya211-2" d="M10,14V13h1V12h2v1h1v2h1V10H14V9H13v1H12V9H11v1H10v1H9v4h1Z"/><path class="ya211-12" d="M11,9H10v1h1Z"/><path class="ya211-12" d="M12,10h1V9h1v1h1V9h1v2h1V9h1V8H11V9h1Z"/><rect class="ya211-12" x="18" y="9" width="1" height="1"/><path class="ya211-12" d="M20,11V10H19v1Z"/></svg>