<svg xmlns="http://www.w3.org/2000/svg" viewBox="0 0 29 33"><defs><style>polygon,rect,path{shape-rendering:crispedges;}.ba112-1{fill:#6b4f99;}.ba112-2{fill:#000000;}.ba112-3{fill:#e8b795;}.ba112-4{fill:#6d5800;}.ba112-5{fill:#6d5800;}.ba112-6{fill:#ffffff;}.ba112-7{fill:#8e703c;}.ba112-8{fill:#8e703c;}.ba112-9{fill:#c8a715;}.ba112-10{fill:#317f03;}.ba112-11{fill:#455054;}.ba112-12{fill:#ff1f4a;}.ba112-13{fill:#ffce00;}.ba112-14{fill:#002b4f;}</style></defs><path class="ba112-1" d="M8,19v3H9v2H8v1h2V20H9V16H8v3Z"/><path class="ba112-1" d="M11,24h1V22H11v2Z"/><path class="ba112-1" d="M18,24V22H17v2Z"/><path class="ba112-1" d="M0,33H8V32H6V31H5V22H6V21H7V20H5v1H2V17H5V16H8V15H9V11h1V10h1V9h7v1h1v1h1v4h1v1H20v4H19v5h2v1h1v1h1v6h6V0H0Z"/><path class="ba112-2" d="M23,27H22v6h1V27Z"/><rect class="ba112-2" x="21" y="26" width="1" height="1"/><path class="ba112-3" d="M22,27H21v6h1V27Z"/><rect class="ba112-3" x="20" y="26" width="1" height="1"/><path class="ba112-2" d="M21,27H20v6h1V27Z"/><path class="ba112-2" d="M20,26h1V25H19v1Z"/><path class="ba112-4" d="M14,31v1h1V30H14Z"/><path class="ba112-4" d="M17,30h1V29h1v1h1V26H19V25H18v1H17v1H16v1H13V27H12V26H11V25H10v1H9v4h1V29h1v1h1v3h1V29h2v1h1v2H15v1h2V30Z"/><rect class="ba112-4" x="18" y="32" width="1" height="1"/><rect class="ba112-4" x="10" y="30" width="1" height="1"/><rect class="ba112-4" x="10" y="32" width="1" height="1"/><rect class="ba112-4" x="18" y="30" width="1" height="1"/><path class="ba112-2" d="M17,24v2h1V25h1V24H17Z"/><rect class="ba112-2" x="16" y="26" width="1" height="1"/><path class="ba112-2" d="M13,27v1h3V27H13Z"/><path class="ba112-3" d="M16,25V23H13v2H12v1h1v1h3V26h1V25Z"/><rect class="ba112-2" x="12" y="26" width="1" height="1"/><path class="ba112-2" d="M12,24H10v1h1v1h1V24Z"/><path class="ba112-3" d="M8,27H9V26H8Z"/><path class="ba112-2" d="M9,30V27H8V26h2V25H8V24H7v7H6v1H8v1H9V30Z"/><path class="ba112-3" d="M7,30V24H8V22H6v9H7Z"/><path class="ba112-2" d="M6,22H5v9H6V22Z"/><path class="ba112-5" d="M20,30H19v1H18V30H17v3h1V32h1v1h1V30Z"/><rect class="ba112-5" x="18" y="29" width="1" height="1"/><path class="ba112-5" d="M16,32V30H15v2Z"/><path class="ba112-5" d="M14,32V30h1V29H13v4h2V32Z"/><path class="ba112-5" d="M12,30H11v1H10V30H9v3h1V32h1v1h1V30Z"/><rect class="ba112-5" x="10" y="29" width="1" height="1"/><rect class="ba112-2" x="20" y="15" width="1" height="1"/><path class="ba112-2" d="M19,15h1V14H19Z"/><polygon class="ba112-3" points="13 21 14 21 14 22 15 22 15 21 16 21 16 20 13 20 13 21"/><path class="ba112-3" d="M10,16v2h1v1h1V18h2v1h1V18h2v1h1V18h1V16h1V15H16V14h2V13H16V12h2v1h1V11H18V10H11v1H10v1h2v1h1v2H9v1Zm4,0h1v1H14Z"/><path class="ba112-3" d="M10,14h2V13H10Z"/><path class="ba112-2" d="M19,17h1V16H19Z"/><path class="ba112-2" d="M10,14H9v1h1Z"/><path class="ba112-2" d="M10,16H9v1h1Z"/><rect class="ba112-2" x="8" y="15" width="1" height="1"/><rect class="ba112-2" x="14" y="16" width="1" height="1"/><path class="ba112-6" d="M12,15h1V14H12Z"/><path class="ba112-6" d="M10,14v1h1V14Z"/><path class="ba112-6" d="M18,14v1h1V14Z"/><path class="ba112-6" d="M16,14v1h1V14Z"/><path class="ba112-2" d="M11,14v1h1V14Z"/><path class="ba112-2" d="M17,14v1h1V14Z"/><rect class="ba112-7" x="18" y="13" width="1" height="1"/><rect class="ba112-7" x="16" y="12" width="2" height="1"/><path class="ba112-7" d="M13,14V13H12v1Z"/><rect class="ba112-7" x="10" y="12" width="2" height="1"/><path class="ba112-8" d="M16,18H15v1h1Z"/><path class="ba112-8" d="M19,18H18v1H16v2H15v1H14V21H13V19h1V18H12v1H11V18H10V17H9v3h1v2h2v1h5V22h2V20h1V17H19Z"/><path class="ba112-9" d="M18,23h1V22H18Z"/><path class="ba112-8" d="M18,24h1V23H18Z"/><path class="ba112-9" d="M17,24V23H16v1Z"/><path class="ba112-8" d="M16,25h1V24H16Z"/><path class="ba112-9" d="M13,24V23H12v1Z"/><path class="ba112-8" d="M12,25h1V24H12Z"/><path class="ba112-9" d="M11,22H10v1h1Z"/><path class="ba112-8" d="M11,23H10v1h1Z"/><path class="ba112-2" d="M13,20h3V19H13Z"/><path class="ba112-2" d="M17,19V18H16v1Z"/><path class="ba112-10" d="M19,14h1V11H19v3Z"/><rect class="ba112-10" x="18" y="10" width="1" height="1"/><path class="ba112-10" d="M18,10V9H11v1h7Z"/><rect class="ba112-10" x="10" y="10" width="1" height="1"/><path class="ba112-10" d="M10,13V11H9v3h1Z"/><path class="ba112-11" d="M8,22V20H7v2Z"/><path class="ba112-2" d="M7,21H6v1H7Z"/><path class="ba112-2" d="M9,22H8v2H9Z"/><path class="ba112-12" d="M2,20v1H5V20H2Z"/><path class="ba112-12" d="M8,19H5v1H8Z"/><path class="ba112-13" d="M5,19V18H8V16H5v1H2v2H5Z"/><path class="ba112-14" d="M4,19H2v1H5V19Z"/><path class="ba112-14" d="M6,18H5v1H8V18Z"/></svg>