<svg xmlns="http://www.w3.org/2000/svg" viewBox="0 0 29 33"><defs><style>polygon,rect,path{shape-rendering:crispedges;}.ab284-1{fill:#db5a8e;}.ab284-2{fill:#000000;}.ab284-3{fill:#cc2f76;}.ab284-4{fill:#ce8452;}.ab284-5{fill:#99004d;}.ab284-6{fill:#317f03;}.ab284-7{fill:#f9e100;}.ab284-8{fill:#316a6d;}.ab284-9{fill:#508e91;}</style></defs><path class="ab284-1" d="M0,33H6V27H7V26H8V25h2V24h1V23h1V22H11V21H10v1H9V21H8V20H7V19H8V12H9V10h1V9h1V8h7V9h1v1h1v2h1v7h1v1H21v1H20v1H19V21H18v1H17v1h1v1h1v1h2v1h1v1h1v6h6V0H0Z"/><path class="ab284-2" d="M23,27H22v6h1V27Z"/><path class="ab284-3" d="M21,31v1h1V30H21Z"/><path class="ab284-3" d="M21,28h1V27H21Z"/><rect class="ab284-2" x="21" y="26" width="1" height="1"/><path class="ab284-2" d="M21,31V27H20v6h1V31Z"/><path class="ab284-3" d="M18,26v2h1v1h1V27H19V25H18Z"/><path class="ab284-3" d="M16,31V30H15v2h1v1h1V31Z"/><path class="ab284-3" d="M10,31V30H9v2h1v1h1V31Z"/><path class="ab284-3" d="M14,31H13V30H12V28H11V27H10V26H9v2h1v1h1v2h1v1h1v1h1V31Z"/><path class="ab284-3" d="M13,29h1V27H13V26H12v2h1Z"/><rect class="ab284-3" x="14" y="29" width="1" height="1"/><path class="ab284-3" d="M19,31V30H18V28H17V27H16V25H15v3h1v1h1v2h1v1h1v1h1V31Z"/><path class="ab284-2" d="M20,26h1V25H19v1Z"/><rect class="ab284-3" x="16" y="24" width="1" height="1"/><rect class="ab284-2" x="15" y="24" width="1" height="1"/><path class="ab284-2" d="M14,32v1h1V32Z"/><path class="ab284-2" d="M14,31h1V30H14Z"/><path class="ab284-2" d="M14,29h1V28H14Z"/><path class="ab284-2" d="M14,26v1h1V25H14Z"/><rect class="ab284-2" x="13" y="24" width="1" height="1"/><path class="ab284-4" d="M16,24V23H13v1h1v1h1V24Z"/><path class="ab284-2" d="M11,26h2V25H12V24h1V23h3v1h1v1H16v1h2V25h1V24H18V23H17V21H16v1H13V21H12v2H11v1H10v1h1Z"/><path class="ab284-2" d="M10,26V25H8v1h2Z"/><path class="ab284-2" d="M9,31V27H8v6H9V31Z"/><path class="ab284-3" d="M8,29V27H7v2Z"/><path class="ab284-3" d="M7,31v2H8V31Z"/><rect class="ab284-2" x="7" y="26" width="1" height="1"/><path class="ab284-2" d="M7,30V27H6v6H7V30Z"/><path class="ab284-5" d="M21,29v1h1V28H21Z"/><path class="ab284-5" d="M21,32v1h1V32Z"/><path class="ab284-5" d="M19,26v1h2V26H19Z"/><path class="ab284-5" d="M19,28H18v2h1v1h1V29H19Z"/><path class="ab284-5" d="M16,26v1h1v1h1V26Z"/><path class="ab284-5" d="M18,32V31H17v2h2V32Z"/><path class="ab284-5" d="M15,30h1v1h1V29H16V28H15v2Z"/><path class="ab284-5" d="M14,28h1V27H14Z"/><polygon class="ab284-5" points="14 27 14 26 14 25 13 25 13 26 13 27 14 27"/><path class="ab284-5" d="M14,32h1V31H14Z"/><rect class="ab284-5" x="15" y="32" width="1" height="1"/><path class="ab284-5" d="M14,29H13V28H12v2h1v1h1V29Z"/><rect class="ab284-5" x="12" y="24" width="1" height="1"/><path class="ab284-5" d="M10,27h1v1h1V26H11V25H10v2Z"/><path class="ab284-5" d="M12,32V31H11v2h2V32Z"/><path class="ab284-5" d="M10,30v1h1V29H10V28H9v2Z"/><path class="ab284-5" d="M9,32v1h1V32Z"/><path class="ab284-5" d="M9,27V26H8v1Z"/><path class="ab284-5" d="M7,30v1H8V29H7Z"/><path class="ab284-2" d="M20,16h1V15H20Z"/><path class="ab284-4" d="M18,20V19h1V16h1V15H18v1H16V15H15V14H14v1H13v1H11V15H9v1h1v3h1v1h1v1h1v1h3V21h1V20Zm-4-4h1v1H14Zm2,4H13V19H12V18h1v1h3Z"/><path class="ab284-4" d="M13,13h3V12h1V11H16V10H13v1H12v1h1Z"/><path class="ab284-2" d="M19,17v2h1V16H19Z"/><rect class="ab284-2" x="18" y="19" width="1" height="1"/><rect class="ab284-2" x="17" y="20" width="1" height="1"/><rect class="ab284-2" x="11" y="20" width="1" height="1"/><rect class="ab284-2" x="10" y="19" width="1" height="1"/><path class="ab284-2" d="M10,16H9v3h1V16Z"/><path class="ab284-2" d="M9,15H8v1H9Z"/><rect class="ab284-2" x="14" y="16" width="1" height="1"/><path class="ab284-6" d="M16,13h2V12H16Z"/><path class="ab284-6" d="M13,12H11v1h2Z"/><rect class="ab284-2" x="13" y="19" width="3" height="1"/><rect class="ab284-2" x="12" y="18" width="1" height="1"/><path class="ab284-7" d="M20,17v2H19v1H18v1h1v1h1V21h1V20h1V19H21V16H20Z"/><path class="ab284-7" d="M9,14h2V12h1V11h1V10h3v1h1v1h1v2h2v1h1V12H20V10H19V9H18V8H11V9H10v1H9v2H8v3H9Z"/><path class="ab284-7" d="M10,20V19H9V16H8v3H7v1H8v1H9v1h1V21h1V20Z"/><path class="ab284-7" d="M11,21v1h1V21Z"/><path class="ab284-7" d="M17,22h1V21H17Z"/><path class="ab284-8" d="M12,15h1V14H11v1Z"/><path class="ab284-8" d="M16,15h2V14H16Z"/><path class="ab284-9" d="M11,15v1h2V15H11Z"/><path class="ab284-2" d="M19,15h1V14H18v1Z"/><path class="ab284-2" d="M11,14H9v1h2Z"/><path class="ab284-2" d="M13,15h1V14h1v1h1V14h2V13H11v1h2Z"/><path class="ab284-9" d="M16,16h2V15H16Z"/></svg>