<svg xmlns="http://www.w3.org/2000/svg" viewBox="0 0 29 33"><defs><style>polygon,rect,path{shape-rendering:crispedges;}.ha93-1{fill:#e55b35;}.ha93-2{fill:#000000;}.ha93-3{fill:#5a2de2;}.ha93-4{fill:#ce8452;}.ha93-5{fill:#95f9ed;}.ha93-6{fill:#ffffff;}.ha93-7{fill:#8e4717;}.ha93-8{fill:#8e4717;}.ha93-9{fill:#5a2de2;}</style></defs><rect class="ha93-1" x="14" y="16" width="1"/><rect class="ha93-1" x="9" y="16" width="1"/><path class="ha93-1" d="M0,33H29V0H0Zm6-1V27H7V26H8V25h2V24h2V22H11V21H10V20H9V16H8V15H9V10h1V9h1V8h7V9h1v1h1v6H19v1h0V16h1V15h1v1H20v4H19v1H18v1H17v2h2v1h2v1h1v1h1v6H6Z"/><path class="ha93-2" d="M22,33h1V27H22v6Z"/><rect class="ha93-2" x="21" y="26" width="1" height="1"/><path class="ha93-3" d="M21,28v5h1V27H21Z"/><path class="ha93-2" d="M21,28V27H20v6h1V28Z"/><path class="ha93-2" d="M20,26h1V25H19v1Z"/><path class="ha93-3" d="M14,30v1h1V29H14Z"/><path class="ha93-3" d="M9,26v3h1V28h1v1h1v3H11V31H10v1H9v1H20V32H19V31H18v1H17V29h1V28h1v1h1V27h1V26H19V25H17v1H16v1H13V26H12V25H10v1Zm4,5V28h2v1h1v2H15v1H13Z"/><rect class="ha93-3" x="10" y="29" width="1" height="1"/><rect class="ha93-3" x="18" y="29" width="1" height="1"/><path class="ha93-2" d="M18,25h1V24H17v1Z"/><path class="ha93-2" d="M16,24h1V23H16Z"/><rect class="ha93-2" x="16" y="25" width="1" height="1"/><path class="ha93-2" d="M13,26v1h3V26H13Z"/><path class="ha93-2" d="M13,23H12v1h1Z"/><path class="ha93-4" d="M13,25v1h3V25h1V24H16V23H13v1H12v1Z"/><rect class="ha93-2" x="12" y="25" width="1" height="1"/><path class="ha93-2" d="M12,24H10v1h2Z"/><path class="ha93-2" d="M8,28v5H9V26h1V25H8v1H7v1H8Z"/><path class="ha93-3" d="M7,32v1H8V27H7v5Z"/><path class="ha93-2" d="M7,32V27H6v6H7Z"/><path class="ha93-5" d="M20,29H19v1H18V29H17v3h1V31h1v1h1V29Z"/><rect class="ha93-5" x="18" y="28" width="1" height="1"/><path class="ha93-5" d="M16,31V29H15v2Z"/><path class="ha93-5" d="M15,31H14V29h1V28H13v4h2Z"/><path class="ha93-5" d="M10,31h1v1h1V29H11v1H10V29H9v3h1Z"/><rect class="ha93-5" x="10" y="28" width="1" height="1"/><rect class="ha93-2" x="20" y="15" width="1" height="1"/><path class="ha93-4" d="M18,12V11H17V10H12v1H11v1h1v1h4V12Z"/><polygon class="ha93-4" points="10 16 10 15 9 15 9 15 9 16 10 16"/><rect class="ha93-4" x="10" y="13" width="1" height="1"/><rect class="ha93-4" x="18" y="12" width="1" height="1"/><path class="ha93-4" d="M17,16H16V15H15V14H14v1H13v1H10v1h1v1h1v1h1V18h3v1h1V18h1V17h1V16H17Zm-2,0v1H14V16h1Z"/><path class="ha93-4" d="M19,16h1V15H19Z"/><rect class="ha93-4" x="18" y="13" height="1"/><polygon class="ha93-2" points="9 15 8 15 8 16 9 16 9 16 9 15"/><polygon class="ha93-2" points="14 17 14 17 15 17 15 16 14 16 14 17"/><path class="ha93-6" d="M11,15H10v1h1Z"/><path class="ha93-6" d="M18,15v1h1V15Z"/><rect class="ha93-7" x="18" y="13" width="1" height="1"/><path class="ha93-7" d="M18,12H16v1h2Z"/><path class="ha93-7" d="M11,12H10v1h2V12Z"/><path class="ha93-8" d="M14,23h3V22h1V21h1V20h1V16H19v1H18v1H17v1H16V18H13v1H12V18H11V17H10V16H9v4h1v1h1v1h1v1h2Zm0-4h1v1H14Z"/><rect class="ha93-2" x="14" y="19" width="1" height="1"/><path class="ha93-9" d="M10,13V12h1V11h1V10h5v1h1v1h1v2h1V10H19V9H18V8H11V9H10v1H9v4h1Z"/><path class="ha93-2" d="M11,15v1h2V15h1V14h1v1h1v1h2V15h2V14H18V13H11v1H9v1h2Z"/></svg>