<svg xmlns="http://www.w3.org/2000/svg" viewBox="0 0 29 33"><defs><style>polygon,rect,path{shape-rendering:crispedges;}.ab13-1{fill:#6b4f99;}.ab13-2{fill:#000000;}.ab13-3{fill:#508e91;}.ab13-4{fill:#c18d59;}.ab13-5{fill:#68aaad;}.ab13-6{fill:#ffffff;}.ab13-7{fill:#7f5018;}.ab13-8{fill:#00e070;}</style></defs><path class="ab13-1" d="M0,33H6V27H7V26H8V25h2V22H9V16H8V15H9V10h1V9h1V8h7V9h1v1h1v5h1v1H20v5h1V20h1V19h2v1h1v3H24v8H23v1H21v1h8V0H0Z"/><path class="ab13-1" d="M20,24H19v1h2V23H20Z"/><path class="ab13-2" d="M23,24v7h1V23H23Z"/><path class="ab13-2" d="M7,30V27H6v6H7V30Z"/><path class="ab13-3" d="M8,28V27H7v1Z"/><path class="ab13-3" d="M7,31H8V30H7Z"/><rect class="ab13-2" x="7" y="26" width="1" height="1"/><path class="ab13-2" d="M9,30V27H8v6H9V30Z"/><path class="ab13-3" d="M9,30v1h5V30Z"/><path class="ab13-3" d="M18,27H9v1H20V27H18Z"/><rect class="ab13-3" x="15" y="30" width="5" height="1"/><path class="ab13-2" d="M10,25H8v1h2Z"/><rect class="ab13-3" x="12" y="24" width="1" height="1"/><path class="ab13-2" d="M13,23h3v1h1V21H16v1H13V21H12v3h1Z"/><rect class="ab13-2" x="12" y="25" width="1" height="1"/><rect class="ab13-2" x="13" y="24" width="1" height="1"/><rect class="ab13-2" x="14" y="32" width="1" height="1"/><rect class="ab13-2" x="14" y="30" width="1" height="1"/><path class="ab13-2" d="M15,29V28H14v1Z"/><path class="ab13-2" d="M15,26V25H14v2h1Z"/><rect class="ab13-2" x="15" y="24" width="1" height="1"/><path class="ab13-4" d="M15,24h1V23H13v1h1v1h1Z"/><rect class="ab13-3" x="16" y="24" width="1" height="1"/><path class="ab13-2" d="M16,26h2V25H16Z"/><path class="ab13-2" d="M22,32h1V31H22V23H21v2H19v1h2v1H20v6h1V32Z"/><path class="ab13-3" d="M23,27H22v1h1Z"/><path class="ab13-3" d="M23,24H22v1h1Z"/><path class="ab13-3" d="M22,30v1h1V30Z"/><path class="ab13-5" d="M15,31H9v2h5V32h1v1h5V31Z"/><path class="ab13-5" d="M15,29H14V28H9v2H20V28H15Z"/><path class="ab13-5" d="M9,27h5V25H13v1H11V25H10v1H8v1Z"/><path class="ab13-5" d="M20,27h1V26H19v1Z"/><path class="ab13-5" d="M16,25H15v2h3V26H16Z"/><path class="ab13-5" d="M23,29V28H22v2h1Z"/><path class="ab13-5" d="M23,26V25H22v2h1Z"/><path class="ab13-5" d="M7,31v2H8V31Z"/><path class="ab13-5" d="M7,29v1H8V28H7Z"/><rect class="ab13-2" x="20" y="15" width="1" height="1"/><path class="ab13-4" d="M18,15H16V14h2V13H16V12h2V11H17V10H14v1H12v1h1v1H11v1h2v1H10v4h1v1h1v1h1v1h3V21h1V20h1V19h1V16h1V15H18Zm-4,1h1v1H14Zm2,4H13V19H12V18h1v1h3Z"/><path class="ab13-2" d="M19,17v2h1V16H19Z"/><rect class="ab13-2" x="18" y="19" width="1" height="1"/><rect class="ab13-2" x="17" y="20" width="1" height="1"/><rect class="ab13-2" x="11" y="20" width="1" height="1"/><rect class="ab13-2" x="10" y="19" width="1" height="1"/><path class="ab13-2" d="M10,18V16H9v3h1Z"/><rect class="ab13-2" x="8" y="15" width="1" height="1"/><rect class="ab13-2" x="14" y="16" width="1" height="1"/><path class="ab13-6" d="M11,14H10v1h1Z"/><path class="ab13-6" d="M16,14v1h1V14Z"/><path class="ab13-2" d="M12,15h1V14H11v1Z"/><path class="ab13-2" d="M17,14v1h2V14H17Z"/><path class="ab13-7" d="M19,14V13H18v1Z"/><rect class="ab13-7" x="16" y="12" width="2" height="1"/><path class="ab13-7" d="M13,12H11v1h2Z"/><rect class="ab13-2" x="13" y="19" width="3" height="1"/><rect class="ab13-2" x="12" y="18" width="1" height="1"/><path class="ab13-2" d="M21,23V21H20v2Z"/><rect class="ab13-2" x="21" y="20" width="1" height="1"/><rect class="ab13-2" x="22" y="19" width="2" height="1"/><path class="ab13-2" d="M24,23h1V20H24v3Z"/><path class="ab13-4" d="M22,23v1h1V23h1V20H22v1H21v2Z"/><path class="ab13-8" d="M19,20H18v1H17v4h1v2h1V24h1V19H19Z"/><path class="ab13-8" d="M10,15V14h1V12h1V11h2V10h3v1h1v2h1v2h1V10H19V9H18V8H11V9H10v1H9v6h1Z"/><path class="ab13-8" d="M11,26h1V21H11V20H10V19H9v3h1v3h1Z"/></svg>