<svg xmlns="http://www.w3.org/2000/svg" viewBox="0 0 29 33"><defs><style>polygon,rect,path{shape-rendering:crispedges;}.da231-1{fill:#7a982c;}.da231-2{fill:#000000;}.da231-3{fill:#45ba00;}.da231-4{fill:#e8b795;}.da231-5{fill:#893a1f;}.da231-6{fill:#cbed03;}.da231-7{fill:#ff1d99;}.da231-8{fill:#6e12ff;}</style></defs><path class="da231-1" d="M0,33H6V27H7V26H8V25h2V24h2V21H11V20H10V19H9V16H8V14H9V11h1V9h1V8h7V9h1v1h1v4h1v2H20v3H19v1H18v1H17v3h2v1h2v1h1v1h1v6h6V0H0Z"/><path class="da231-2" d="M23,27H22v3H21V27H20v6h1V31h1v2h1V27Z"/><rect class="da231-2" x="21" y="26" width="1" height="1"/><path class="da231-3" d="M21,28v2h1V27H21Z"/><path class="da231-4" d="M21,31v2h1V31Z"/><path class="da231-2" d="M20,26h1V25H19v1Z"/><path class="da231-3" d="M20,27h1V26H19V25H17v1H16v1H13V26H12V25H10v1H8v1H9v6H20V27Z"/><path class="da231-2" d="M18,25h1V24H17v1Z"/><rect class="da231-2" x="16" y="25" width="1" height="1"/><path class="da231-2" d="M13,26v1h3V26H13Z"/><path class="da231-2" d="M13,23h3v1h1V21H16v1H13V21H12v3h1Z"/><path class="da231-4" d="M13,25v1h3V25h1V24H16V23H13v1H12v1Z"/><rect class="da231-2" x="12" y="25" width="1" height="1"/><path class="da231-2" d="M12,24H10v1h2Z"/><path class="da231-2" d="M10,25H8v1h2Z"/><path class="da231-2" d="M9,27H8v3H7V27H6v6H7V31H8v2H9V27Z"/><rect class="da231-2" x="7" y="26" width="1" height="1"/><path class="da231-3" d="M7,30H8V27H7v3Z"/><path class="da231-4" d="M7,31v2H8V31Z"/><path class="da231-2" d="M20,16h1V15H20Z"/><path class="da231-2" d="M19,12v2h1V11H19Z"/><path class="da231-4" d="M12,12v1h1v1h3V12h2v1h1V11H18V10H17v1H16V10H15v1H14V10H13v1H12V10H11v1H10v1Z"/><path class="da231-4" d="M13,22h3V21h1V20h1V19h1V17H16V16H15v1H14V16H13v1H10v2h1v1h1v1h1Zm0-3h3V18h1v1H16v1H13Z"/><rect class="da231-4" x="14" y="15" width="1" height="1"/><path class="da231-2" d="M19,17v2h1V16H19Z"/><rect class="da231-2" x="18" y="10" width="1" height="1"/><rect class="da231-2" x="18" y="19" width="1" height="1"/><rect class="da231-2" x="17" y="20" width="1" height="1"/><rect class="da231-2" x="13" y="9" width="1" height="1"/><rect class="da231-2" x="11" y="9" width="1" height="1"/><rect class="da231-2" x="17" y="9" width="1" height="1"/><rect class="da231-2" x="15" y="9" width="1" height="1"/><rect class="da231-2" x="11" y="20" width="1" height="1"/><rect class="da231-2" x="10" y="19" width="1" height="1"/><path class="da231-2" d="M10,13V11H9v3h1Z"/><path class="da231-2" d="M10,16H9v3h1V16Z"/><path class="da231-2" d="M8,15v1H9V15Z"/><rect class="da231-2" x="14" y="16" width="1" height="1"/><path class="da231-5" d="M18,12H16v1h2Z"/><path class="da231-5" d="M12,12H10v1h2Z"/><rect class="da231-2" x="13" y="19" width="3" height="1"/><rect class="da231-2" x="16" y="18" width="1" height="1"/><path class="da231-6" d="M11,10V9H10v2h1Z"/><path class="da231-6" d="M12,10v1h1V9h1v2h1V9h1v2h1V9h1V8H11V9h1Z"/><rect class="da231-6" x="18" y="9" width="1" height="1"/><path class="da231-6" d="M20,11V10H19v1Z"/><path class="da231-7" d="M19,15v1h1V15h1V14H19Z"/><path class="da231-7" d="M19,14V13H16v1h3Z"/><path class="da231-8" d="M19,16V14H16v2h3Z"/><path class="da231-7" d="M18,16H16v1h3V16Z"/><path class="da231-7" d="M13,14v2h1V15h1v1h1V14Z"/><path class="da231-7" d="M13,14V13H10v1h3Z"/><path class="da231-8" d="M12,14H10v2h3V14Z"/><path class="da231-7" d="M10,16v1h3V16H10Z"/><path class="da231-7" d="M10,15V14H8v1H9v1h1Z"/></svg>