<svg xmlns="http://www.w3.org/2000/svg" viewBox="0 0 29 33"><defs><style>polygon,rect,path{shape-rendering:crispedges;}.za269-1{fill:#6b4f99;}.za269-2{fill:#000000;}.za269-3{fill:#cc2f76;}.za269-4{fill:#ce8452;}.za269-5{fill:#ff6aa5;}.za269-6{fill:#ffffff;}.za269-7{fill:#b23b00;}.za269-8{fill:#b23b00;}.za269-9{fill:#d8be00;}.za269-10{fill:#ccc;}</style></defs><path class="za269-1" d="M19,21H18v1H17v1h1v1h1V22h1V20H19Z"/><path class="za269-1" d="M10,22v2h1V23h1V22H11V21H10V20H9v2Z"/><path class="za269-1" d="M6,32V27H7V26H8V24H6V23H5V21H4V20H3V19H8v1H9V18H8V12H9V11h1V10h1V9h7v1h1v1h1v2h1v5H20v2h1V19h5v1H25v1H24v2H23v1H21v2h1v1h1v6h6V0H0V33H6Z"/><path class="za269-2" d="M23,27H22v6h1V27Z"/><path class="za269-3" d="M21,31v2h1V31Z"/><path class="za269-3" d="M21,28v2h1V27H21Z"/><rect class="za269-2" x="21" y="26" width="1" height="1"/><path class="za269-2" d="M21,30V27H20v6h1V30Z"/><path class="za269-3" d="M20,32V26H19V25H18v1H17v1H16V25H15v2H14V25H13v2H12V26H11V25H10v1H9v6h1v1h4V32h1v1h4V32Zm-9-3H10V28h1Zm2,2H12V30h1Zm2,0H14V30h1Zm0-2H14V28h1Zm2,2H16V30h1Zm1-2V28h1v1Z"/><path class="za269-2" d="M19,26h2V25H19Z"/><rect class="za269-3" x="16" y="24" width="1" height="1"/><path class="za269-2" d="M18,24V23H16v1h1v1H16v1h2V25h1V24Z"/><rect class="za269-2" x="15" y="24" width="1" height="1"/><rect class="za269-2" x="14" y="32" width="1" height="1"/><rect class="za269-2" x="14" y="30" width="1" height="1"/><rect class="za269-2" x="14" y="28" width="1" height="1"/><path class="za269-2" d="M14,26v1h1V25H14Z"/><rect class="za269-2" x="13" y="24" width="1" height="1"/><path class="za269-4" d="M16,24V23H13v1h1v1h1V24Z"/><rect class="za269-3" x="12" y="24" width="1" height="1"/><path class="za269-2" d="M12,24h1V23H11v1H10v1h1v1h2V25H12Z"/><path class="za269-2" d="M10,26V25H8v1h2Z"/><path class="za269-2" d="M9,31V27H8v6H9V31Z"/><path class="za269-3" d="M7,30H8V27H7v3Z"/><path class="za269-3" d="M7,31v2H8V31Z"/><rect class="za269-2" x="7" y="26" width="1" height="1"/><path class="za269-2" d="M7,30V27H6v6H7V30Z"/><rect class="za269-5" x="10" y="28" width="1" height="1"/><rect class="za269-5" x="12" y="30" width="1" height="1"/><path class="za269-5" d="M12,27h1V26H12Z"/><rect class="za269-5" x="16" y="30" width="1" height="1"/><rect class="za269-5" x="18" y="28" width="1" height="1"/><path class="za269-5" d="M16,27h1V26H16Z"/><path class="za269-5" d="M9,27V26H8v1Z"/><path class="za269-5" d="M19,32v1h1V32Z"/><path class="za269-5" d="M9,32v1h1V32Z"/><path class="za269-5" d="M7,31H8V30H7Z"/><path class="za269-5" d="M21,31h1V30H21Z"/><path class="za269-5" d="M20,27h1V26H20Z"/><rect class="za269-4" x="9" y="15" width="1" height="1"/><rect class="za269-4" x="11" y="11" width="1" height="1"/><rect class="za269-4" x="11" y="13" width="1" height="1"/><rect class="za269-4" x="19" y="15" width="1" height="1"/><path class="za269-4" d="M18,14V13H16v1h2Z"/><path class="za269-4" d="M12,19h1V18h5V15H17v2H16V15H15V11H14v1H13v2h1v2h1v1H14V16H13V15H11v3h1Z"/><rect class="za269-2" x="9" y="14" width="1" height="1"/><rect class="za269-2" x="14" y="16" width="1" height="1"/><path class="za269-6" d="M13,15V14H12v1Z"/><path class="za269-6" d="M17,14H16v1h1Z"/><path class="za269-2" d="M12,14H11v1h1Z"/><path class="za269-2" d="M17,15h1V14H17Z"/><path class="za269-7" d="M18,12H16v1h2Z"/><rect class="za269-7" x="11" y="12" width="1" height="1"/><path class="za269-8" d="M15,18H13v1h3V18Z"/><path class="za269-8" d="M19,16v2h1V16Z"/><path class="za269-8" d="M14,23h3V22h1V21h1V18H17v1H16v1H13V19H12V18H10v3h1v1h1v1h2Z"/><path class="za269-8" d="M10,17V16H9v2h1Z"/><rect class="za269-2" x="13" y="19" width="3" height="1"/><path class="za269-2" d="M16,19h1V18H16Z"/><path class="za269-9" d="M9,15V14h1v4h1V11h1v3h1V12h1V11h1v4h1V12h2v6h1V15h1v3h1V13H20V11H19V10H18V9H11v1H10v1H9v1H8v6H9V15Z"/><path class="za269-9" d="M10,19V18H9v2h1Z"/><path class="za269-9" d="M13,16h1V14H13v2Z"/><path class="za269-9" d="M17,17V15H16v2Z"/><path class="za269-9" d="M19,19v1h1V18H19Z"/><path class="za269-6" d="M10,22H9V20H8V19H3v1H7v1H5v1H8v1H6v1h4Z"/><path class="za269-10" d="M8,22H5v1H8Z"/><path class="za269-10" d="M7,20H4v1H7Z"/><path class="za269-10" d="M22,20v1h3V20H22Z"/><path class="za269-10" d="M21,22v1h3V22H21Z"/><path class="za269-6" d="M19,22v2h4V23H21V22h3V21H22V20h4V19H21v1H20v2Z"/><path class="za269-10" d="M10,24H8v1h2Z"/><path class="za269-10" d="M19,25h2V24H19Z"/></svg>