<svg xmlns="http://www.w3.org/2000/svg" viewBox="0 0 29 33"><defs><style>polygon,rect,path{shape-rendering:crispedges;}.aa43-1{fill:#d4a122;}.aa43-2{fill:#000000;}.aa43-3{fill:#e8b795;}.aa43-4{fill:#6c9302;}.aa43-5{fill:#c4ea3b;}.aa43-6{fill:#5e362f;}.aa43-7{fill:#5a2de2;}.aa43-8{fill:#cbed03;}.aa43-9{fill:#00e070;}</style></defs><path class="aa43-1" d="M6,32V27H7V26H8V25h2V24h2V21H11V20H10V19H9V16H8V14H9V11h1V10h1V9h7v1h1v1h1v3h1v2H20v3H19v1H18v1H17v3h2v1h2v1h1v1h1v6h6V0H0V33H6Z"/><path class="aa43-2" d="M23,31V27H22v6h1Z"/><rect class="aa43-2" x="21" y="26" width="1" height="1"/><path class="aa43-3" d="M22,31V27H21v6h1Z"/><rect class="aa43-3" x="20" y="26" width="1" height="1"/><path class="aa43-2" d="M21,31V27H20v6h1Z"/><path class="aa43-2" d="M20,26h1V25H19v1Z"/><path class="aa43-4" d="M20,31V26H19V25H18v1H17v1H16v1H13V27H12V26H11V25H10v1H9v7h1V29h1v4h1V29h3v4h1V29h3v1H17v2h1V31h1v2h1Z"/><rect class="aa43-4" x="13" y="30" width="1" height="2"/><path class="aa43-2" d="M17,26h1V25h1V24H17Z"/><rect class="aa43-2" x="16" y="26" width="1" height="1"/><path class="aa43-2" d="M14,27H13v1h3V27Z"/><path class="aa43-2" d="M13,23h3v1h1V21H16v1H13V21H12v3h1Z"/><path class="aa43-3" d="M12,26h1v1h3V26h1V24H16V23H13v1H12Z"/><rect class="aa43-2" x="12" y="26" width="1" height="1"/><path class="aa43-2" d="M11,26h1V24H10v1h1Z"/><path class="aa43-2" d="M10,26V25H8v1Z"/><rect class="aa43-3" x="8" y="26" width="1" height="1"/><path class="aa43-2" d="M9,31V27H8v6H9Z"/><rect class="aa43-2" x="7" y="26" width="1" height="1"/><path class="aa43-3" d="M8,31V27H7v6H8Z"/><path class="aa43-2" d="M7,31V27H6v6H7Z"/><path class="aa43-5" d="M12,29v4h3V29Zm2,3H13V30h1Z"/><path class="aa43-5" d="M11,31V29H10v4h1Z"/><path class="aa43-5" d="M19,31H18v1H17V30h2V29H16v4h3Z"/><rect class="aa43-2" x="20" y="15" width="1" height="1"/><path class="aa43-3" d="M13,20v2h3V20Z"/><path class="aa43-3" d="M12,19V18h5v2h1V19h1V17H16V16H15v1H14V16H13v1H10v2h1v1h1Z"/><path class="aa43-2" d="M19,17v2h1V16H19Z"/><rect class="aa43-2" x="18" y="19" width="1" height="1"/><rect class="aa43-2" x="17" y="20" width="1" height="1"/><rect class="aa43-2" x="11" y="20" width="1" height="1"/><rect class="aa43-2" x="10" y="19" width="1" height="1"/><path class="aa43-2" d="M10,17V16H9v3h1Z"/><rect class="aa43-2" x="8" y="15" width="1" height="1"/><rect class="aa43-2" x="14" y="16" width="1" height="1"/><path class="aa43-6" d="M17,19V18H13v1h3v2h1Z"/><path class="aa43-6" d="M13,20V19H12v2h1Z"/><path class="aa43-2" d="M16,19H13v1h3Z"/><rect class="aa43-2" x="12" y="18" width="1" height="1"/><rect class="aa43-7" x="14" y="15" width="1" height="1"/><path class="aa43-7" d="M10,13h3v1h3V13h3v1h1V11H19V10H18V9H11v1H10v1H9v3h1Z"/><path class="aa43-8" d="M19,15v1h1V15h1V14H19Z"/><path class="aa43-8" d="M18,14h1V13H16v1Z"/><path class="aa43-9" d="M18,16h1V14H16v2Z"/><path class="aa43-8" d="M18,16H16v1h3V16Z"/><path class="aa43-8" d="M16,14H13v2h1V15h1v1h1Z"/><path class="aa43-8" d="M12,14h1V13H10v1Z"/><path class="aa43-9" d="M13,14H10v2h3Z"/><path class="aa43-8" d="M11,16H10v1h3V16Z"/><path class="aa43-8" d="M10,15V14H8v1H9v1h1Z"/></svg>