<svg xmlns="http://www.w3.org/2000/svg" viewBox="0 0 29 33"><defs><style>polygon,rect,path{shape-rendering:crispedges;}.aa119-1{fill:#6b4f99;}.aa119-2{fill:#000000;}.aa119-3{fill:#e8b795;}.aa119-4{fill:#45ba00;}.aa119-5{fill:#b3ffa1;}.aa119-6{fill:#ffffff;}.aa119-7{fill:#893a1f;}.aa119-8{fill:#893a1f;}.aa119-9{fill:#00af68;}.aa119-10{fill:#455054;}.aa119-11{fill:#ff1f4a;}.aa119-12{fill:#fad000;}.aa119-13{fill:#900;}</style></defs><path class="aa119-1" d="M8,32H6V31H5V22H6V21H7V20H5v1H2V17H5V16H8V13H9V11h1V10h1V9h7v1h1v1h1v1h1v6H20v2H18v1H17v3h2v1h2v1h1v1h1v6h6V0H0V33H8Z"/><path class="aa119-1" d="M11,24h1V21H11V20H9V18H8v4H9v2H8v1h2V24Z"/><path class="aa119-2" d="M23,31V27H22v6h1Z"/><rect class="aa119-2" x="21" y="26" width="1" height="1"/><path class="aa119-3" d="M22,31V27H21v6h1Z"/><rect class="aa119-3" x="20" y="26" width="1" height="1"/><path class="aa119-2" d="M21,31V27H20v6h1Z"/><path class="aa119-2" d="M20,26h1V25H19v1Z"/><path class="aa119-4" d="M17,31V30h1V29h1v1h1V26H19V25H18v1H17v1H16v1H13V27H12V26H11V25H10v1H9v4h1V29h1v1h1v3h1V29h2v1h1v2H15v1h2Z"/><rect class="aa119-4" x="10" y="30" width="1" height="1"/><rect class="aa119-4" x="18" y="32" width="1" height="1"/><rect class="aa119-4" x="10" y="32" width="1" height="1"/><path class="aa119-4" d="M14,31v1h1V30H14Z"/><rect class="aa119-4" x="18" y="30" width="1" height="1"/><path class="aa119-2" d="M17,26h1V25h1V24H17Z"/><rect class="aa119-2" x="16" y="26" width="1" height="1"/><path class="aa119-2" d="M14,27H13v1h3V27Z"/><path class="aa119-3" d="M16,23H13v1H12v2h1v1h3V26h1V24H16Z"/><rect class="aa119-2" x="12" y="26" width="1" height="1"/><path class="aa119-2" d="M12,24H10v1h1v1h1Z"/><rect class="aa119-3" x="8" y="26" width="1" height="1"/><path class="aa119-2" d="M9,31V27H8V26h2V25H8V24H7v7H6v1H8v1H9Z"/><path class="aa119-3" d="M7,30V24H8V22H6v9H7Z"/><path class="aa119-2" d="M6,29V22H5v9H6Z"/><path class="aa119-5" d="M20,31V30H19v1H18V30H17v3h1V32h1v1h1Z"/><rect class="aa119-5" x="18" y="29" width="1" height="1"/><path class="aa119-5" d="M15,32h1V30H15Z"/><path class="aa119-5" d="M14,32V30h1V29H13v4h2V32Z"/><path class="aa119-5" d="M12,31V30H11v1H10V30H9v3h1V32h1v1h1Z"/><rect class="aa119-5" x="10" y="29" width="1" height="1"/><rect class="aa119-2" x="19" y="14" width="1" height="1"/><rect class="aa119-3" x="12" y="19" width="1" height="1"/><rect class="aa119-3" x="17" y="13" width="1" height="1"/><rect class="aa119-3" x="16" y="19" width="1" height="1"/><rect class="aa119-3" x="13" y="20" width="1" height="1"/><rect class="aa119-3" x="17" y="11" width="1" height="1"/><path class="aa119-3" d="M13,14V13H11v1Z"/><rect class="aa119-3" x="9" y="15" width="1" height="1"/><rect class="aa119-3" x="19" y="15" width="1" height="1"/><path class="aa119-3" d="M11,19h1V18h5v1h2V18H18V15H16v1H15v1H14V16h1V14h1V12H15V11H14v4H13v2H12V15H11v3H10v1Z"/><rect class="aa119-3" x="15" y="20" width="1" height="1"/><path class="aa119-2" d="M20,16H19v2h1Z"/><rect class="aa119-2" x="18" y="19" width="1" height="1"/><rect class="aa119-2" x="17" y="20" width="1" height="1"/><path class="aa119-2" d="M16,22H13V21H12v3h1V23h3v1h1V21H16Z"/><rect class="aa119-2" x="11" y="20" width="1" height="1"/><rect class="aa119-2" x="10" y="19" width="1" height="1"/><path class="aa119-2" d="M10,17V16H9v2h1Z"/><rect class="aa119-2" x="14" y="16" width="1" height="1"/><rect class="aa119-6" x="12" y="14" width="1" height="1"/><path class="aa119-2" d="M17,15h1V14H16v1Z"/><rect class="aa119-2" x="11" y="14" width="1" height="1"/><path class="aa119-7" d="M13,12H11v1h2Z"/><rect class="aa119-7" x="17" y="12" width="1" height="1"/><rect class="aa119-8" x="17" y="19" width="1" height="1"/><rect class="aa119-8" x="16" y="20" width="1" height="1"/><path class="aa119-8" d="M15,20H14v1H13v1h3V21H15Z"/><path class="aa119-8" d="M14,19h2V18H12v1Z"/><rect class="aa119-8" x="12" y="20" width="1" height="1"/><rect class="aa119-8" x="11" y="19" width="1" height="1"/><path class="aa119-2" d="M15,19H13v1h3V19Z"/><rect class="aa119-2" x="16" y="18" width="1" height="1"/><path class="aa119-9" d="M8,18H9V15h1v3h1V12h2v3h1V11h1v1h1v2h1V11h1v7h1V14h1v4h1V12H20V11H19V10H18V9H11v1H10v1H9v2H8Z"/><path class="aa119-9" d="M19,19v1h1V18H19Z"/><path class="aa119-9" d="M15,15v1h1V14H15Z"/><path class="aa119-9" d="M12,16v1h1V15H12Z"/><path class="aa119-9" d="M9,20h1V18H9Z"/><path class="aa119-10" d="M8,22V20H7v2Z"/><rect class="aa119-2" x="6" y="21" width="1" height="1"/><path class="aa119-2" d="M9,22H8v2H9Z"/><path class="aa119-11" d="M4,18H5V17H2v1Z"/><path class="aa119-11" d="M8,16H5v1H8Z"/><path class="aa119-11" d="M3,20H2v1H5V20Z"/><path class="aa119-11" d="M8,19H5v1H8Z"/><path class="aa119-12" d="M8,19V17H5v1H4v2H5V19Z"/><rect class="aa119-13" x="3" y="19" width="1" height="1"/><rect class="aa119-13" x="2" y="18" width="1" height="1"/><rect class="aa119-6" x="3" y="18" width="1" height="1"/><rect class="aa119-12" x="2" y="19" width="1" height="1"/></svg>