<svg xmlns="http://www.w3.org/2000/svg" viewBox="0 0 29 33"><defs><style>polygon,rect,path{shape-rendering:crispedges;}.na26-1{fill:#6b4f99;}.na26-2{fill:#000000;}.na26-3{fill:#ffffff;}.na26-4{fill:#d8be00;}.na26-5{fill:#6d3e35;}.na26-6{fill:#6f7032;}.na26-7{fill:#6f7032;}.na26-8{fill:#ff6c77;}.na26-9{fill:#ffffff;}.na26-10{fill:#fad000;}</style></defs><path class="na26-1" d="M6,27H7V26H8V25h2V24h2V21H11V20H10V19H9V17H8V15H7V14H9V13H7V12H9V11H8V9H9v1h2V9H10V8H9V7h1V8h1V7h1V8h1V7h2V8h1V7h1V8h1V9h1V8h2V9H20v2h1V10h1v2H21v2h2V9H22V8h1V7H22V6H21V5H20V3H19V0H0V33H6V27Z"/><path class="na26-1" d="M28,3H27V5H26V6H25V7H24V8h1V9H24v5H23v6H22v1h1v1h1v9H23v1H21v1h8V0H28Z"/><path class="na26-1" d="M21,15v2H20v2H19v1H18v1H17v3h2v1h2V20h1V15Z"/><path class="na26-2" d="M23,29v2h1V22H23v7Z"/><path class="na26-2" d="M7,27H6v6H7V27Z"/><path class="na26-3" d="M8,27H7v6H8V27Z"/><rect class="na26-2" x="7" y="26" width="1" height="1"/><path class="na26-2" d="M9,27H8v6H9V27Z"/><path class="na26-3" d="M11,25H10v1H8v1H9v6h2V25Z"/><path class="na26-2" d="M8,26h2V25H8Z"/><path class="na26-2" d="M12,26h1V25H12V24H10v1h1v8h1V26Z"/><path class="na26-4" d="M17,26H16v1H13V26H12v7h5V26Z"/><path class="na26-2" d="M13,26v1h3V26H13Z"/><path class="na26-5" d="M16,23H13v1H12v1h1v1h3V25h1V24H16Z"/><path class="na26-2" d="M18,25h1V24H17v1H16v1h1v7h1V25Z"/><path class="na26-3" d="M20,27h1V26H19V25H18v8h2V27Z"/><path class="na26-2" d="M22,32h1V31H22V23H21v2H19v1h2v1H20v6h1V32Z"/><path class="na26-3" d="M23,24H22v7h1V24Z"/><rect class="na26-2" x="19" y="13" width="1" height="1"/><rect class="na26-5" x="10" y="13" width="1" height="1"/><path class="na26-5" d="M18,11H17v1H16v1h2Z"/><path class="na26-5" d="M13,14h3V13H15V12H13v2Z"/><path class="na26-5" d="M13,22h3V21h1V20h1V19h1V16H18v1H16V16H15v1H14V16H13v1H11V16H10v3h1v1h1v1h1Zm-1-3V18h5v1H16v1H13V19Z"/><rect class="na26-5" x="19" y="15" width="1" height="1"/><rect class="na26-5" x="13" y="10" width="1" height="1"/><rect class="na26-5" x="14" y="15" width="1" height="1"/><rect class="na26-5" x="9" y="15" width="1" height="1"/><path class="na26-2" d="M19,16v3h1V16Z"/><rect class="na26-2" x="18" y="19" width="1" height="1"/><rect class="na26-2" x="17" y="20" width="1" height="1"/><path class="na26-2" d="M17,21H16v1H13V21H12v3h1V23h3v1h1V21Z"/><rect class="na26-2" x="11" y="20" width="1" height="1"/><rect class="na26-2" x="10" y="19" width="1" height="1"/><path class="na26-2" d="M10,16H9v3h1V16Z"/><rect class="na26-2" x="14" y="16" width="1" height="1"/><path class="na26-6" d="M13,12H12v1h1Z"/><path class="na26-7" d="M16,19h1V18H12v1h4Z"/><path class="na26-2" d="M13,20h3V19H13Z"/><path class="na26-8" d="M9,15h1V13h2V12h3v1h1V12h1V11h1v3h1V13h1v1H19v1h1v2h1V15h1V14H21V12h1V10H21v1H20V9h1V8H19V9H18V8H17V7H16V8H15V7H13V8H12V7H11V8H10V9h1v1H9V9H8v2H9v1H7v1H9v1H7v1H8v2H9V15Zm4-5h1v1H13Z"/><rect class="na26-8" x="9" y="7" width="1" height="1"/><path class="na26-9" d="M12,14h1V13H11v1Z"/><path class="na26-9" d="M11,17h2V16H11Z"/><path class="na26-9" d="M10,14v2h1V14Z"/><path class="na26-2" d="M12,14H11v2h2V14Z"/><path class="na26-9" d="M19,14H18v2h1V14Z"/><path class="na26-9" d="M17,14h1V13H16v1Z"/><path class="na26-9" d="M16,17h2V16H16Z"/><path class="na26-9" d="M13,14v2h1V15h1v1h1V14Z"/><path class="na26-2" d="M17,14H16v2h2V14Z"/><path class="na26-9" d="M23,9v5h1V8H23Z"/><path class="na26-9" d="M22,15v5h1V14H22Z"/><path class="na26-9" d="M21,22h1V20H21Z"/><rect class="na26-10" x="22" y="8" width="1" height="1"/><path class="na26-10" d="M25,9V8H24V9Z"/><path class="na26-10" d="M20,3V5h1V6h1V7h1V8h1V7h1V6h1V5h1V3h1V0H19V3Z"/><path class="na26-5" d="M21,22v1h1v1h1V22H21Z"/><path class="na26-2" d="M23,22V21H22v1Z"/></svg>