<svg xmlns="http://www.w3.org/2000/svg" viewBox="0 0 29 33"><defs><style>polygon,rect,path{shape-rendering:crispedges;}.da286-1{fill:#7a982c;}.da286-2{fill:#000000;}.da286-3{fill:#ffffff;}.da286-4{fill:#b2622b;}.da286-5{fill:#ffffff;}.da286-6{fill:#ffffff;}.da286-7{fill:#990000;}.da286-8{fill:#663434;}.da286-9{fill:#0068ff;}</style></defs><path class="da286-1" d="M0,33H6V24H7V23H8v1H9v1h1V24h2V21H11V20H10V19H9V16H8V15H9V11h1V9h1V7h1V6H11V5h2V6h2V7h1V9h2v1h1v1h1v4h1v1H20v3H19v1H18v1H17v3h2v1h2v1h1v1h1v6h6V0H0Z"/><path class="da286-2" d="M23,27H22v2H21V27H20v6h1V30h1v3h1V27Z"/><rect class="da286-2" x="21" y="26" width="1" height="1"/><path class="da286-2" d="M20,26h1V25H19v1Z"/><path class="da286-2" d="M18,25h1V24H17v1Z"/><path class="da286-2" d="M13,23V22H12v2h1Z"/><path class="da286-2" d="M12,24H10v1h2Z"/><path class="da286-2" d="M9,31V27H8v6H9V31Z"/><path class="da286-2" d="M7,24H6v9H7V24Z"/><path class="da286-3" d="M15,29H14v2h1V29Z"/><rect class="da286-3" x="18" y="29" width="1" height="1"/><path class="da286-3" d="M19,32V31H18v1H17V29h1V28h1v1h1V27h1V26H19V25H17v1H16v1H13V26H12V25H10v2H9v2h1V28h1v1h1v3H11V31H10v1H9v1H20V32Zm-3-2v1H15v1H13V28h2v1h1Z"/><rect class="da286-3" x="10" y="29" width="1" height="1"/><path class="da286-3" d="M21,28v1h1V27H21Z"/><path class="da286-4" d="M8,27H9V25H8V24H7v9H8V27Z"/><path class="da286-4" d="M13,25v1h3V25h1V24H16V23H13v1H12v1Z"/><path class="da286-2" d="M13,26v1h3V26H13Z"/><path class="da286-4" d="M22,30H21v3h1V30Z"/><rect class="da286-2" x="12" y="25" width="1" height="1"/><rect class="da286-2" x="16" y="25" width="1" height="1"/><path class="da286-5" d="M19,30H18V29H17v3h1V31h1v1h1V29H19Z"/><rect class="da286-5" x="18" y="28" width="1" height="1"/><path class="da286-5" d="M15,30v1h1V29H15Z"/><path class="da286-5" d="M14,30V29h1V28H13v4h2V31H14Z"/><path class="da286-5" d="M9,32h1V31h1v1h1V29H11v1H10V29H9v3Z"/><rect class="da286-5" x="10" y="28" width="1" height="1"/><rect class="da286-2" x="20" y="15" width="1" height="1"/><path class="da286-2" d="M19,14v1h1V11H19v3Z"/><path class="da286-4" d="M10,17v1h1v1h1V18h2v1h1V18h2v1h1V18h1V16h1V15H16V14h2V13H16V12h2v1h1V11H18V10H16v1H14V10H11v1H10v1h2v1h1v2H9v1h1Zm4-1h1v1H14Z"/><rect class="da286-4" x="15" y="20" width="1" height="1"/><rect class="da286-4" x="13" y="20" width="1" height="1"/><path class="da286-4" d="M10,14h2V13H10Z"/><path class="da286-2" d="M19,17h1V16H19Z"/><rect class="da286-2" x="18" y="10" width="1" height="1"/><path class="da286-2" d="M16,23v1h1V22H16Z"/><path class="da286-2" d="M12,10h1V9H11v1Z"/><path class="da286-2" d="M17,10h1V9H16v1Z"/><path class="da286-2" d="M11,10H10v1h1Z"/><path class="da286-2" d="M10,14V11H9v4h1Z"/><path class="da286-2" d="M10,16H9v1h1Z"/><rect class="da286-2" x="8" y="15" width="1" height="1"/><rect class="da286-2" x="14" y="16" width="1" height="1"/><path class="da286-6" d="M12,15h1V14H12Z"/><path class="da286-6" d="M10,14v1h1V14Z"/><path class="da286-6" d="M18,14v1h1V14Z"/><path class="da286-6" d="M16,14v1h1V14Z"/><path class="da286-2" d="M11,14v1h1V14Z"/><path class="da286-2" d="M17,14v1h1V14Z"/><path class="da286-7" d="M19,13H18v1h1Z"/><rect class="da286-7" x="16" y="12" width="2" height="1"/><path class="da286-7" d="M13,14V13H12v1Z"/><path class="da286-7" d="M12,13V12H10v1Z"/><path class="da286-8" d="M15,18v1h1V18Z"/><path class="da286-8" d="M13,23h3V22h1V21h1V20h1V19h1V17H19v1H18v1H16v2H15V20H14v1H13V19h1V18H12v1H11V18H10V17H9v2h1v1h1v1h1v1h1Z"/><path class="da286-2" d="M14,19H13v1h3V19H14Z"/><path class="da286-2" d="M16,18v1h1V18Z"/><path class="da286-2" d="M10,27V25H9v2Z"/><rect class="da286-2" x="8" y="24" width="1" height="1"/><rect class="da286-2" x="7" y="23" width="1" height="1"/><path class="da286-9" d="M13,10h1v1h2V7H15V6H13V5H11V6h1V7H11V9h2Z"/><path class="da286-9" d="M11,9H10v1h1Z"/><rect class="da286-9" x="10" y="9" width="1" height="1"></rect></svg>