<svg xmlns="http://www.w3.org/2000/svg" viewBox="0 0 29 33"><defs><style>polygon,rect,path{shape-rendering:crispedges;}.ga81-1{fill:#db5a8e;}.ga81-2{fill:#000000;}.ga81-3{fill:#508e91;}.ga81-4{fill:#e8b795;}.ga81-5{fill:#c6e5e4;}.ga81-6{fill:#ffffff;}.ga81-7{fill:#473a35;}.ga81-8{fill:#fad000;}.ga81-9{fill:#473a35;}.ga81-10{fill:#cbed03;}.ga81-11{fill:#304400;}.ga81-12{fill:#00af68;}.ga81-13{fill:#ff1f4a;}.ga81-14{fill:#10bcff;}</style></defs><path class="ga81-1" d="M0,33H6V26H5V24H8v1h2V23h1V22h1V21H11V20H10V19H9V16H8V15H9V10h1V9h1V8h7V9h1v2h1v4h1v1H20v3H19v1H18v1H17v1h1v1h1v2h2V24h3v2H23v7h6V0H0Z"/><path class="ga81-2" d="M7,27V26H6v7H7V27Z"/><path class="ga81-2" d="M9,31V26h1V25H8v8H9V31Z"/><rect class="ga81-3" x="18" y="29" width="1" height="1"/><path class="ga81-3" d="M19,32V31H18v1H17V29h1V28h1v1h1V26H19V25H18v1H17v1H16v4H15v1H13V27H12V26H11V25H10v1H9v3h1V28h1v1h1v3H11V31H10v1H9v1H20V32Z"/><rect class="ga81-3" x="14" y="30" width="1" height="1"/><rect class="ga81-3" x="10" y="29" width="1" height="1"/><path class="ga81-4" d="M14,24h1v1h1V23H13v2h1Z"/><path class="ga81-2" d="M21,27V25H19v1h1v7h1V27Z"/><path class="ga81-2" d="M23,26H22v7h1V26Z"/><path class="ga81-5" d="M19,30H18V29H17v3h1V31h1v1h1V29H19Z"/><rect class="ga81-5" x="18" y="28" width="1" height="1"/><path class="ga81-5" d="M15,30v1h1V29H15Z"/><path class="ga81-5" d="M14,30V29H13v3h2V31H14Z"/><path class="ga81-5" d="M9,32h1V31h1v1h1V29H11v1H10V29H9v3Z"/><rect class="ga81-5" x="10" y="28" width="1" height="1"/><rect class="ga81-2" x="20" y="15" width="1" height="1"/><path class="ga81-2" d="M19,13v2h1V11H19v2Z"/><rect class="ga81-4" x="19" y="15" width="1" height="1"/><path class="ga81-4" d="M18,14h1V13H17v1Z"/><rect class="ga81-4" x="9" y="15" width="1" height="1"/><path class="ga81-4" d="M13,22h3V21h1V20h1V19h1V16H16V13h1V12h2V11H18V10H17v1H16V10H15v5H14v1h1v1H14V16H13v1H11V16H10v3h1v1h1v1h1Zm-1-3V18h5v1H16v1H13V19Z"/><path class="ga81-2" d="M19,17v2h1V16H19Z"/><rect class="ga81-2" x="18" y="19" width="1" height="1"/><rect class="ga81-2" x="17" y="20" width="1" height="1"/><rect class="ga81-2" x="17" y="9" width="1" height="1"/><rect class="ga81-2" x="15" y="9" width="1" height="1"/><rect class="ga81-2" x="11" y="20" width="1" height="1"/><rect class="ga81-2" x="10" y="19" width="1" height="1"/><path class="ga81-2" d="M10,16H9v3h1V16Z"/><rect class="ga81-2" x="8" y="15" width="1" height="1"/><rect class="ga81-2" x="14" y="16" width="1" height="1"/><path class="ga81-6" d="M16,14v2h1V14Z"/><path class="ga81-6" d="M19,14H18v2h1V14Z"/><path class="ga81-2" d="M17,14v2h1V14Z"/><path class="ga81-7" d="M17,13H16v1h1Z"/><path class="ga81-7" d="M19,12H17v1h2Z"/><rect class="ga81-2" x="14" y="29" width="1" height="1"/><rect class="ga81-2" x="12" y="26" width="1" height="1"/><path class="ga81-2" d="M15,28v1h1V27H15Z"/><rect class="ga81-2" x="16" y="26" width="1" height="1"/><path class="ga81-2" d="M14,28V27H13v2h1Z"/><rect class="ga81-2" x="17" y="25" width="1" height="1"/><rect class="ga81-2" x="11" y="25" width="1" height="1"/><rect class="ga81-2" x="14" y="24" width="1" height="1"/><rect class="ga81-2" x="13" y="25" width="1" height="1"/><rect class="ga81-2" x="15" y="25" width="1" height="1"/><path class="ga81-2" d="M12,24v1h1V23h3v2h1V23h1V22H17V21H16v1H13V21H12v1H11v1h1Z"/><rect class="ga81-8" x="16" y="25" width="1" height="1"/><polygon class="ga81-8" points="15 26 15 25 14 25 14 26 13 26 13 27 14 27 14 28 14 29 15 29 15 28 15 27 16 27 16 26 15 26"/><rect class="ga81-8" x="12" y="25" width="1" height="1"/><path class="ga81-8" d="M11,25h1V23H11v2Z"/><path class="ga81-8" d="M17,24v1h1V23H17Z"/><path class="ga81-2" d="M19,25V23H18v2Z"/><path class="ga81-2" d="M11,24V23H10v2h1Z"/><path class="ga81-9" d="M16,19h1V18H13v1Z"/><rect class="ga81-2" x="13" y="19" width="3" height="1"/><path class="ga81-2" d="M13,18H12v1h1Z"/><path class="ga81-10" d="M11,15h2V13H11v2Z"/><path class="ga81-11" d="M13,13v2h1V13Z"/><path class="ga81-11" d="M11,15v1h2V15Z"/><path class="ga81-11" d="M11,14V13H10v2h1Z"/><rect class="ga81-11" x="11" y="12" width="2" height="1"/><rect class="ga81-2" x="10" y="15" width="1" height="1"/><path class="ga81-2" d="M11,17h2V16H11Z"/><rect class="ga81-2" x="13" y="15" width="1" height="1"/><path class="ga81-2" d="M10,14V13h1V12h2v1h1v2h1V11H14V9H13v2H12V9H11v1H10v1H9v4h1Z"/><path class="ga81-12" d="M18,11h1V9H18v2Z"/><path class="ga81-12" d="M12,10v1h1V9h1v2h1V9h1v2h1V9h1V8H11V9h1Z"/><rect class="ga81-12" x="10" y="9" width="1" height="1"/><path class="ga81-12" d="M10,10H9v1h1Z"/><path class="ga81-2" d="M23,26h1V25H23Z"/><path class="ga81-2" d="M22,24H21v1h1Z"/><path class="ga81-13" d="M23,25h1V24H22v1Z"/><path class="ga81-2" d="M8,25V24H7v1Z"/><path class="ga81-2" d="M5,25v1H6V25Z"/><path class="ga81-4" d="M22,27V26h1V25H21v2Z"/><path class="ga81-4" d="M7,27H8V25H6v1H7Z"/><path class="ga81-14" d="M7,25V24H5v1H7Z"/><path class="ga81-3" d="M22,27H21v6h1V27Z"/><path class="ga81-3" d="M8,27H7v6H8V27Z"/></svg>