<svg xmlns="http://www.w3.org/2000/svg" viewBox="0 0 29 33"><defs><style>polygon,rect,path{shape-rendering:crispedges;}.ab102-1{fill:#29834f;}.ab102-2{fill:#000000;}.ab102-3{fill:#cbed03;}.ab102-4{fill:#a56e49;}.ab102-5{fill:#ffffff;}.ab102-6{fill:#ffffff;}.ab102-7{fill:#7f5018;}.ab102-8{fill:#ff5e17;}</style></defs><path class="ab102-1" d="M6,32V27H7V26H8V25h2V22H9V16H8V15H9V10h1V9h1V8h7V9h1v1h1v5h1v1H20v8H19v1h2v1h1v1h1v6h6V0H0V33H6Z"/><path class="ab102-2" d="M23,27H22v6h1V27Z"/><path class="ab102-3" d="M21,28v2h1V27H21Z"/><path class="ab102-3" d="M21,31v2h1V31Z"/><rect class="ab102-2" x="21" y="26" width="1" height="1"/><path class="ab102-2" d="M21,30V27H20v6h1V30Z"/><path class="ab102-3" d="M20,32V26H19v1H18V26H17v1H16V25H15v2H14V25H13v2H12V26H11V25H10v1H9v6h1v1h4V32h1v1h4V32Zm-9-3H10V28h1Zm2,2H12V30h1Zm2,0H14V30h1Zm0-2H14V28h1Zm2,2H16V30h1Zm1-2V28h1v1Z"/><path class="ab102-2" d="M20,26h1V25H19v1Z"/><rect class="ab102-3" x="16" y="24" width="1" height="1"/><path class="ab102-2" d="M17,25H16v1h2V25Z"/><rect class="ab102-2" x="15" y="24" width="1" height="1"/><rect class="ab102-2" x="14" y="32" width="1" height="1"/><rect class="ab102-2" x="14" y="30" width="1" height="1"/><rect class="ab102-2" x="14" y="28" width="1" height="1"/><path class="ab102-2" d="M14,26v1h1V25H14Z"/><rect class="ab102-2" x="13" y="24" width="1" height="1"/><path class="ab102-4" d="M16,24V23H13v1h1v1h1V24Z"/><rect class="ab102-3" x="12" y="24" width="1" height="1"/><path class="ab102-2" d="M13,23h3v1h1V21H16v1H13V21H12v3h1Z"/><path class="ab102-2" d="M12,26h1V25H12Z"/><path class="ab102-2" d="M10,26V25H8v1h2Z"/><path class="ab102-2" d="M9,31V27H8v6H9V31Z"/><path class="ab102-3" d="M7,30H8V27H7v3Z"/><path class="ab102-3" d="M7,31v2H8V31Z"/><rect class="ab102-2" x="7" y="26" width="1" height="1"/><path class="ab102-2" d="M7,30V27H6v6H7V30Z"/><rect class="ab102-5" x="10" y="28" width="1" height="1"/><rect class="ab102-5" x="12" y="30" width="1" height="1"/><path class="ab102-5" d="M12,27h1V26H12Z"/><rect class="ab102-5" x="16" y="30" width="1" height="1"/><rect class="ab102-5" x="18" y="28" width="1" height="1"/><path class="ab102-5" d="M16,27h1V26H16Z"/><path class="ab102-5" d="M9,27V26H8v1Z"/><path class="ab102-5" d="M19,32v1h1V32Z"/><path class="ab102-5" d="M9,32v1h1V32Z"/><path class="ab102-5" d="M7,31H8V30H7Z"/><path class="ab102-5" d="M21,31h1V30H21Z"/><path class="ab102-5" d="M20,27h1V26H20Z"/><rect class="ab102-2" x="20" y="15" width="1" height="1"/><path class="ab102-4" d="M17,14h2V13H17Z"/><rect class="ab102-4" x="19" y="15" width="1" height="1"/><path class="ab102-4" d="M13,22h3V21h1V20h1V19h1V16H16V13h1V12h1V11H17V10H14v1H12v1h1v1H11v1h2v2H10v3h1v1h1v1h1Zm1-6h1v1H14Zm-2,3V18h1v1h3v1H13V19Z"/><path class="ab102-2" d="M19,17v2h1V16H19Z"/><rect class="ab102-2" x="18" y="19" width="1" height="1"/><rect class="ab102-2" x="17" y="20" width="1" height="1"/><rect class="ab102-2" x="11" y="20" width="1" height="1"/><rect class="ab102-2" x="10" y="19" width="1" height="1"/><path class="ab102-2" d="M10,18V16H9v3h1Z"/><rect class="ab102-2" x="8" y="15" width="1" height="1"/><rect class="ab102-2" x="14" y="16" width="1" height="1"/><path class="ab102-6" d="M11,15V14H10v2h1Z"/><path class="ab102-6" d="M13,16V14H12v2Z"/><path class="ab102-6" d="M16,14v2h1V14Z"/><path class="ab102-6" d="M18,15v1h1V14H18Z"/><path class="ab102-2" d="M11,16h1V14H11v2Z"/><path class="ab102-2" d="M18,14H17v2h1V14Z"/><path class="ab102-7" d="M13,12H11v1h2Z"/><path class="ab102-7" d="M17,13H16v1h1Z"/><path class="ab102-7" d="M17,13h1V12H17Z"/><rect class="ab102-2" x="13" y="19" width="3" height="1"/><rect class="ab102-2" x="12" y="18" width="1" height="1"/><path class="ab102-8" d="M19,20H18v1H17v4h1v2h1V24h1V19H19Z"/><path class="ab102-8" d="M10,15V14h1V12h1V11h2V10h3v1h1v2h1v2h1V10H19V9H18V8H11V9H10v1H9v6h1Z"/><path class="ab102-8" d="M11,26h1V21H11V20H10V19H9v3h1v3h1Z"/></svg>