<svg xmlns="http://www.w3.org/2000/svg" viewBox="0 0 29 33"><defs><style>polygon,rect,path{shape-rendering:crispedges;}.ra2-1{fill:#7a982c;}.ra2-2{fill:#000000;}.ra2-3{fill:#0079bc;}.ra2-4{fill:#b2622b;}.ra2-5{fill:#ffffff;}.ra2-6{fill:#4922aa;}.ra2-7{fill:#ff791f;}</style></defs><path class="ra2-1" d="M6,32V27H7V26H8V25h2V22H9V16H8V15H9V10h1V9h1V8h7V9h1v1h1v5h1v1H20v8H19v1h2v1h1v1h1v6h6V0H0V33H6Z"/><path class="ra2-2" d="M23,27H22v6h1V27Z"/><path class="ra2-3" d="M22,27H21v6h1V27Z"/><rect class="ra2-2" x="21" y="26" width="1" height="1"/><path class="ra2-2" d="M21,27H20v6h1V27Z"/><path class="ra2-3" d="M19,32V31H18v1H17V30H16v1H15v1H13V30H12v2H11V31H10v1H9v1H20V32Z"/><rect class="ra2-3" x="18" y="29" width="1" height="1"/><rect class="ra2-3" x="12" y="24" width="1" height="1"/><rect class="ra2-3" x="16" y="24" width="1" height="1"/><path class="ra2-3" d="M19,26v1H18V25H17v4h1V28h1v1h1V27h1V26H19Z"/><path class="ra2-3" d="M9,27v2h1V28h1v1h1V26H11V25H10v1H8v1Z"/><rect class="ra2-3" x="10" y="29" width="1" height="1"/><path class="ra2-2" d="M20,26h1V25H19v1Z"/><path class="ra2-2" d="M15,24H13v1h3V24Z"/><path class="ra2-4" d="M16,24V23H13v1h3Z"/><path class="ra2-2" d="M13,23h3v1h1V21H16v1H13V21H12v3h1Z"/><path class="ra2-2" d="M10,25H8v1h2Z"/><path class="ra2-2" d="M9,31V27H8v6H9V31Z"/><path class="ra2-3" d="M8,27H7v6H8V27Z"/><rect class="ra2-2" x="7" y="26" width="1" height="1"/><path class="ra2-2" d="M7,27H6v6H7V27Z"/><path class="ra2-3" d="M14,29v2h1V29Z"/><path class="ra2-3" d="M13,25v3h2v1h1V25H13Z"/><path class="ra2-5" d="M19,30H18V29H17v3h1V31h1v1h1V29H19Z"/><rect class="ra2-5" x="18" y="28" width="1" height="1"/><path class="ra2-5" d="M15,29v2h1V29Z"/><path class="ra2-5" d="M14,30V29h1V28H13v4h2V31H14Z"/><path class="ra2-5" d="M11,29v1H10V29H9v3h1V31h1v1h1V29Z"/><rect class="ra2-5" x="10" y="28" width="1" height="1"/><path class="ra2-2" d="M13,25H12v5h1V25Z"/><path class="ra2-2" d="M17,28V25H16v5h1V28Z"/><rect class="ra2-2" x="20" y="15" width="1" height="1"/><path class="ra2-4" d="M18,13H17v1h2V13Z"/><rect class="ra2-4" x="19" y="15" width="1" height="1"/><path class="ra2-4" d="M17,13V12h1V11H17V10H14v1H12v1h1v1H11v1h5V13Z"/><rect class="ra2-4" x="14" y="15" width="1" height="1"/><path class="ra2-4" d="M13,22h3V21h1V20h1V19h1V16H18v1H16V16H15v1H14V16H13v1H11V16H10v3h1v1h1v1h1Zm-1-3V18h5v1H16v1H13V19Z"/><path class="ra2-2" d="M19,17v2h1V16H19Z"/><rect class="ra2-2" x="18" y="19" width="1" height="1"/><rect class="ra2-2" x="17" y="20" width="1" height="1"/><rect class="ra2-2" x="11" y="20" width="1" height="1"/><rect class="ra2-2" x="10" y="19" width="1" height="1"/><path class="ra2-2" d="M10,18V16H9v3h1Z"/><rect class="ra2-2" x="8" y="15" width="1" height="1"/><rect class="ra2-2" x="14" y="16" width="1" height="1"/><path class="ra2-6" d="M13,12H11v1h2Z"/><rect class="ra2-6" x="16" y="13" width="1" height="1"/><rect class="ra2-6" x="17" y="12" width="1" height="1"/><polygon class="ra2-2" points="13 20 16 20 16 19 17 19 17 18 12 18 12 19 13 19 13 20"/><path class="ra2-7" d="M19,20H18v1H17v4h1v2h1V24h1V19H19Z"/><rect class="ra2-7" x="9" y="15" width="1" height="1"/><path class="ra2-7" d="M11,13V12h1V11h2V10h3v1h1v2h1v1h1V10H19V9H18V8H11V9H10v1H9v4h2Z"/><path class="ra2-7" d="M11,26h1V21H11V20H10V19H9v3h1v3h1Z"/><path class="ra2-2" d="M10,16h1v1h2V16h1V15h1v1h1v1h2V16h1V15h1V14H9v1h1Z"/></svg>