<svg xmlns="http://www.w3.org/2000/svg" viewBox="0 0 29 33"><defs><style>polygon,rect,path{shape-rendering:crispedges;}.xa163-1{fill:#db5a8e;}.xa163-2{fill:#8c7850;}.xa163-3{fill:#000000;}.xa163-4{fill:#b2622b;}.xa163-5{fill:#ffffff;}.xa163-6{fill:#685432;}.xa163-7{fill:#990000;}</style></defs><path class="xa163-1" d="M0,33H6V27H7V26H8V25h2V22h1V20H10V19H9V18H8V12H9V10h1V9h1V8h7V9h1v1h1v5h1v1H20v3H19v1H18v2h1v3h2v1h1v1h1v6h6V0H0Z"/><path class="xa163-2" d="M17,23v1H16v1H15v2H14v4h6V27h1V26H19V25H18V22H17Z"/><path class="xa163-2" d="M22,27H21v6h1V27Z"/><path class="xa163-2" d="M19,32H9v1H20V32Z"/><path class="xa163-2" d="M8,27H7v6H8V27Z"/><path class="xa163-2" d="M9,27v4h4V27h1V25H13V24H12V22H11v3H10v1H8v1Z"/><path class="xa163-3" d="M23,27H22v6h1V27Z"/><rect class="xa163-3" x="21" y="26" width="1" height="1"/><path class="xa163-3" d="M21,27H20v4H14V27H13v4H9V27H8v6H9V32H20v1h1V27Z"/><path class="xa163-3" d="M20,26h1V25H19v1Z"/><path class="xa163-3" d="M18,25h1V22H18v3Z"/><rect class="xa163-3" x="15" y="24" width="1" height="1"/><path class="xa163-3" d="M15,26V25H14v2h1Z"/><rect class="xa163-3" x="13" y="24" width="1" height="1"/><path class="xa163-4" d="M15,24h1V23H13v1h1v1h1Z"/><path class="xa163-3" d="M11,24V22H10v3h1Z"/><path class="xa163-3" d="M10,25H8v1h2Z"/><rect class="xa163-3" x="7" y="26" width="1" height="1"/><path class="xa163-3" d="M7,27H6v6H7V27Z"/><rect class="xa163-3" x="20" y="15" width="1" height="1"/><path class="xa163-4" d="M12,21h1v1h3V21h1V20h1V19h1V16h1V15H16V14h2V13H16V12h2v1h1V11H18V10H16v1H14v1H13v1H11v1h2v1H9v1h1v3h1v1h1Zm2-5h1v1H14Zm-1,3h3v1H13Z"/><path class="xa163-3" d="M19,17v2h1V16H19Z"/><rect class="xa163-3" x="18" y="19" width="1" height="1"/><path class="xa163-3" d="M12,23v1h1V23h3v1h1V22h1V20H17v1H16v1H13V21H12V20H11v2h1Z"/><rect class="xa163-3" x="10" y="19" width="1" height="1"/><path class="xa163-3" d="M10,16H9v3h1V16Z"/><rect class="xa163-3" x="14" y="16" width="1" height="1"/><path class="xa163-5" d="M13,15V14H12v1Z"/><path class="xa163-5" d="M10,15h1V14H10Z"/><path class="xa163-5" d="M18,14v1h1V14Z"/><path class="xa163-5" d="M16,14v1h1V14Z"/><path class="xa163-3" d="M12,15V14H11v1Z"/><path class="xa163-3" d="M17,14v1h1V14Z"/><rect class="xa163-6" x="18" y="13" width="1" height="1"/><rect class="xa163-6" x="16" y="12" width="2" height="1"/><rect class="xa163-3" x="13" y="19" width="3" height="1"/><path class="xa163-7" d="M9,15h1V14h1V13h2V12h1V11h2V10h2v1h1v4h1V10H19V9H18V8H11V9H10v1H9v2H8v6H9V15Z"/></svg>