<svg xmlns="http://www.w3.org/2000/svg" viewBox="0 0 29 33"><defs><style>polygon,rect,path{shape-rendering:crispedges;}.fa174-1{fill:#397d98;}.fa174-2{fill:#000000;}.fa174-3{fill:#e8b795;}.fa174-4{fill:#cc3232;}.fa174-5{fill:#cc3232;}.fa174-6{fill:#ffffff;}.fa174-7{fill:#473a35;}.fa174-8{fill:#e70059;}.fa174-9{fill:#ff1f4a;}.fa174-10{fill:#e5ac2e;}.fa174-11{fill:#ff1f4a;}.fa174-12{fill:#fad000;}.fa174-13{fill:#00e070;}.fa174-14{fill:#ff1d99;}.fa174-15{fill:#10bcff;}.fa174-16{fill:#6e12ff;}.fa174-17{fill:#900;}.fa174-18{fill:#eaeaea;}.fa174-19{fill:#c9936f;}.fa174-20{fill:#e8b592;}.fa174-21{fill:#004b68;}</style></defs><path class="fa174-1" d="M0,33H6V27H7V26H8V25h2V24h2V22H11V21H10v1H9V21H8V20H7V19H8V13H9V9h1v1h1V8h1V9h2V8H13V7h1V6h1V7h1V8H15V9h2V8h1v2h1V9h1v4h1v4h1V16h1v1h1V16h1v7H24v8H23v1H21v1h8V0H0Z"/><path class="fa174-1" d="M20,23V22H19V21H18v1H17v2h2v1h2V23Z"/><rect class="fa174-2" x="7" y="26" width="1" height="1"/><path class="fa174-2" d="M9,31V27H8v3H7V27H6v6H7V31H8v2H9V31Z"/><path class="fa174-2" d="M10,25H8v1h2Z"/><path class="fa174-2" d="M12,24H10v1h2Z"/><path class="fa174-2" d="M13,23h3v1h1V21H16v1H13V21H12v3h1Z"/><path class="fa174-2" d="M18,24H17v1h2V24Z"/><path class="fa174-2" d="M22,32h1V31H22V25H19v1h2v1H20v6h1V32Z"/><path class="fa174-2" d="M23,26v5h1V25H23Z"/><path class="fa174-3" d="M23,26V25H22v6h1V26Z"/><rect class="fa174-4" x="18" y="29" width="1" height="1"/><rect class="fa174-4" x="10" y="29" width="1" height="1"/><path class="fa174-4" d="M15,29H14v2h1V29Z"/><path class="fa174-4" d="M19,32V31H18v1H17V29h1V28h1v1h1V27h1V26H19V25H17v1H16v1H13V26H12V25H10v1H8v1H9v2h1V28h1v1h1v3H11V31H10v1H9v1H20V32Zm-3-2v1H15v1H13V28h2v1h1Z"/><path class="fa174-2" d="M13,26v1h3V26H13Z"/><path class="fa174-3" d="M13,25v1h3V25h1V24H16V23H13v1H12v1Z"/><path class="fa174-4" d="M7,30H8V27H7v3Z"/><path class="fa174-3" d="M7,31v2H8V31Z"/><rect class="fa174-2" x="16" y="25" width="1" height="1"/><rect class="fa174-2" x="12" y="25" width="1" height="1"/><path class="fa174-5" d="M19,30H18V29H17v3h1V31h1v1h1V29H19Z"/><rect class="fa174-5" x="18" y="28" width="1" height="1"/><path class="fa174-5" d="M15,30v1h1V29H15Z"/><path class="fa174-5" d="M14,30V29h1V28H13v4h2V31H14Z"/><path class="fa174-5" d="M9,32h1V31h1v1h1V29H11v1H10V29H9v3Z"/><rect class="fa174-5" x="10" y="28" width="1" height="1"/><path class="fa174-2" d="M20,16h1V15H20Z"/><rect class="fa174-2" x="19" y="14" width="1" height="1"/><path class="fa174-3" d="M18,20V19h1V16h1V15H16V13H11v1h2v1H9v1h1v3h1v1h1v1h1v1h3V21h1V20Zm-4-4h1v1H14Zm2,3v1H13V19H12V18h5v1Z"/><rect class="fa174-3" x="17" y="13" width="1" height="1"/><path class="fa174-2" d="M19,17v2h1V16H19Z"/><rect class="fa174-2" x="18" y="19" width="1" height="1"/><rect class="fa174-2" x="17" y="20" width="1" height="1"/><rect class="fa174-2" x="11" y="20" width="1" height="1"/><rect class="fa174-2" x="10" y="19" width="1" height="1"/><path class="fa174-2" d="M10,14H9v1h1Z"/><path class="fa174-2" d="M10,16H9v3h1V16Z"/><path class="fa174-2" d="M9,15H8v1H9Z"/><rect class="fa174-2" x="14" y="16" width="1" height="1"/><path class="fa174-6" d="M13,15V14H12v1Z"/><path class="fa174-6" d="M11,15V14H10v1Z"/><path class="fa174-6" d="M19,15V14H18v1Z"/><path class="fa174-6" d="M16,14v1h1V14Z"/><path class="fa174-2" d="M12,15V14H11v1Z"/><path class="fa174-2" d="M17,15h1V14H17Z"/><path class="fa174-7" d="M17,13H16v1h1Z"/><path class="fa174-2" d="M12,18v1h1V18Z"/><path class="fa174-2" d="M17,18H16v1h1Z"/><path class="fa174-2" d="M15,20h1V19H15Z"/><path class="fa174-2" d="M15,19V18H14v1Z"/><path class="fa174-2" d="M13,19v1h1V19Z"/><path class="fa174-6" d="M14,18H13v1h1Z"/><path class="fa174-6" d="M15,18v1h1V18Z"/><path class="fa174-8" d="M14,19v1h1V19Z"/><path class="fa174-9" d="M19,20H18v1h1v1h1V19H19Z"/><path class="fa174-9" d="M9,14h2V13H8v2H9Z"/><path class="fa174-9" d="M18,13v1h2v1h1V13H18Z"/><path class="fa174-9" d="M10,20V19H9V16H8v3H7v1H8v1H9v1h1V21h1V20Z"/><path class="fa174-9" d="M11,21v1h1V21Z"/><path class="fa174-9" d="M18,21H17v1h1Z"/><rect class="fa174-1" x="17" y="10" width="1" height="1"/><rect class="fa174-10" x="12" y="11" width="1" height="1"/><rect class="fa174-10" x="16" y="11" width="1" height="1"/><rect class="fa174-1" x="11" y="10" width="1" height="1"/><rect class="fa174-11" x="14" y="11" width="1" height="1"/><rect class="fa174-11" x="13" y="10" width="1" height="1"/><path class="fa174-6" d="M12,8H11V9h1Z"/><path class="fa174-6" d="M13,10V9H12v1Z"/><path class="fa174-6" d="M17,10V9H16v1Z"/><rect class="fa174-6" x="18" y="10" width="1" height="1"/><rect class="fa174-6" x="10" y="10" width="1" height="1"/><path class="fa174-6" d="M10,9H9v1h1Z"/><path class="fa174-6" d="M18,8H17V9h1Z"/><rect class="fa174-12" x="16" y="10" width="1" height="1"/><rect class="fa174-12" x="12" y="10" width="1" height="1"/><rect class="fa174-13" x="11" y="11" width="1" height="1"/><path class="fa174-12" d="M12,9H11v1h1Z"/><path class="fa174-12" d="M18,10V9H17v1Z"/><path class="fa174-14" d="M10,11H9v1h1Z"/><rect class="fa174-15" x="17" y="11" width="1" height="1"/><path class="fa174-12" d="M16,13h3V11H18v1H16V11H15v1H14V11H13v1H11V11H10v2h6Z"/><path class="fa174-16" d="M19,12h1V11H19Z"/><path class="fa174-6" d="M20,9H19v1h1Z"/><rect class="fa174-11" x="15" y="10" width="1" height="1"/><rect class="fa174-11" x="14" y="9" width="1" height="1"/><rect class="fa174-17" x="14" y="10" width="1" height="1"/><path class="fa174-12" d="M14,10V9H13v1Z"/><path class="fa174-12" d="M16,10V9H15v1Z"/><rect class="fa174-18" x="14" y="7" width="1" height="1"/><rect class="fa174-6" x="14" y="8" width="1" height="1"/><rect class="fa174-6" x="13" y="7" width="1" height="1"/><rect class="fa174-6" x="15" y="7" width="1" height="1"/><rect class="fa174-6" x="14" y="6" width="1" height="1"/><path class="fa174-10" d="M10,12H9v1h1Z"/><path class="fa174-10" d="M19,13h1V12H19Z"/><path class="fa174-10" d="M20,11V10H19v1Z"/><path class="fa174-10" d="M10,10H9v1h1Z"/><rect class="fa174-19" x="20" y="22" width="1" height="1"/><path class="fa174-19" d="M24,22.111V23h1V22H24Z"/><rect class="fa174-2" x="21" y="19" width="1" height="1"/><rect class="fa174-2" x="23" y="19" width="1" height="1"/><path class="fa174-20" d="M24,22H21v1h3V22Z"/><path class="fa174-20" d="M23,20V19H22v1H20v2h1V21h3v1h1V20H23Z"/><path class="fa174-21" d="M21,23v2h3V23H21Z"/><path class="fa174-12" d="M20,18v2h1V19h3v1h1V18H20Z"/><path class="fa174-2" d="M24,22V21H21v1h3Z"/><path class="fa174-6" d="M20,17v1h5V16H24v1H23V16H22v1H21V16H20Z"/></svg>