<svg xmlns="http://www.w3.org/2000/svg" viewBox="0 0 29 33"><defs><style>polygon,rect,path{shape-rendering:crispedges;}.gb116-1{fill:#29834f;}.gb116-2{fill:#000000;}.gb116-3{fill:#685432;}.gb116-4{fill:#ffffff;}.gb116-5{fill:#c18d59;}.gb116-6{fill:#90a2a3;}.gb116-7{fill:#ffffff;}.gb116-8{fill:#663228;}.gb116-9{fill:#e70059;}.gb116-10{fill:#9b8100;}.gb116-11{fill:#455054;}.gb116-12{fill:#ff1f4a;}</style></defs><path class="gb116-1" d="M8,18v4H9v2h1V23h1V22h1V21H11V20H10V19H9V16H8v2Z"/><rect class="gb116-1" x="8" y="24" width="1" height="1"/><path class="gb116-1" d="M0,33H8V32H6V31H5V22H6V21H7V20H5v1H2V17H5V16H8V15H9V10h1V9h1V8h7V9h1v1h1v2h1v6H20v1H19v1H18v1H17v1h1v1h1v1h1v1h1v1h1v1h1v6h6V0H0Z"/><path class="gb116-2" d="M23,27H22v6h1V27Z"/><path class="gb116-3" d="M22,27H21v6h1V27Z"/><path class="gb116-2" d="M21,27h1V26H21V25H20v2H17v1h2v1h1v4h1V27Z"/><rect class="gb116-2" x="19" y="24" width="1" height="1"/><path class="gb116-3" d="M20,29H19v1H18v1H17v1H16v1h4V29Z"/><rect class="gb116-2" x="18" y="23" width="1" height="1"/><path class="gb116-3" d="M18,25H17v1H16v5h1V30h1V29h1V28H17V27h2V26h1V25H19V24H18Z"/><rect class="gb116-2" x="18" y="29" width="1" height="1"/><rect class="gb116-3" x="17" y="23" width="1" height="1"/><rect class="gb116-2" x="17" y="24" width="1" height="1"/><rect class="gb116-2" x="17" y="30" width="1" height="1"/><rect class="gb116-2" x="16" y="25" width="1" height="1"/><path class="gb116-2" d="M17,32V31H16V26H13v5H12v1h1v1h1V27h1v6h1V32Z"/><path class="gb116-4" d="M15,27H14v6h1V27Z"/><path class="gb116-5" d="M17,25V24H16V23H13v1H12v1h1v1h3V25Z"/><rect class="gb116-2" x="12" y="25" width="1" height="1"/><path class="gb116-3" d="M12,32V31H11V30H10V29H9v4h4V32Z"/><rect class="gb116-3" x="11" y="23" width="1" height="1"/><rect class="gb116-2" x="11" y="24" width="1" height="1"/><rect class="gb116-2" x="11" y="30" width="1" height="1"/><rect class="gb116-2" x="10" y="23" width="1" height="1"/><rect class="gb116-2" x="10" y="29" width="1" height="1"/><rect class="gb116-2" x="9" y="24" width="1" height="1"/><path class="gb116-3" d="M12,25H11V24H10v1H9v1h1v1h2v1H10v1h1v1h1v1h1V26H12Z"/><path class="gb116-2" d="M9,29h1V28h2V27H9V25H8V24H7v7H6v1H8v1H9V29Z"/><path class="gb116-3" d="M7,30V24H6v7H7Z"/><path class="gb116-2" d="M6,24V22H5v9H6V24Z"/><path class="gb116-6" d="M9,26v1h1V26Z"/><path class="gb116-6" d="M19,27h1V26H19Z"/><path class="gb116-5" d="M10,16v3h1v1h1v1h1v1h3V21h1V20h1V19h1V16h1V15H16V14h2V13H16V12H15V11H13V10H11v1H10v2h1V12h2v1H11v1h2v1H9v1Zm4,0h1v1H14Zm-2,2h5v1H16v1H13V19H12Z"/><path class="gb116-2" d="M19,16v3h1V16Z"/><rect class="gb116-2" x="18" y="19" width="1" height="1"/><rect class="gb116-2" x="17" y="20" width="1" height="1"/><path class="gb116-2" d="M16,22H13V21H12v1H11v1h1v1h1V23h3v1h1V23h1V22H17V21H16Z"/><rect class="gb116-2" x="11" y="20" width="1" height="1"/><rect class="gb116-2" x="10" y="19" width="1" height="1"/><path class="gb116-2" d="M10,16H9v3h1V16Z"/><rect class="gb116-2" x="8" y="15" width="1" height="1"/><rect class="gb116-2" x="14" y="16" width="1" height="1"/><path class="gb116-7" d="M18,14v1h1V14Z"/><path class="gb116-7" d="M13,15V14H12v1Z"/><path class="gb116-2" d="M17,14H16v1h2V14Z"/><path class="gb116-2" d="M10,15h2V14H10Z"/><path class="gb116-8" d="M11,14V13H10v1Z"/><rect class="gb116-8" x="11" y="12" width="2" height="1"/><path class="gb116-2" d="M13,18H12v1h1Z"/><path class="gb116-2" d="M17,19V18H16v1Z"/><path class="gb116-2" d="M15,20h1V19H15Z"/><path class="gb116-2" d="M15,19V18H14v1Z"/><path class="gb116-2" d="M13,19v1h1V19Z"/><path class="gb116-7" d="M14,19V18H13v1Z"/><path class="gb116-7" d="M16,19V18H15v1Z"/><path class="gb116-9" d="M14,19v1h1V19Z"/><path class="gb116-10" d="M10,14V11h1V10h2v1h2v1h1v1h2v1h1v1h1v3h1V12H20V10H19V9H18V8H11V9H10v1H9v5h1Z"/><path class="gb116-5" d="M7,24H8V22H6v2Z"/><path class="gb116-11" d="M8,22V20H7v2Z"/><path class="gb116-2" d="M7,21H6v1H7Z"/><path class="gb116-2" d="M9,22H8v2H9Z"/><path class="gb116-12" d="M5,17H2v1H5Z"/><path class="gb116-12" d="M6,16H5v1H6Z"/><path class="gb116-12" d="M8,17V16H7v1Z"/><path class="gb116-12" d="M5,18v1H2v2H5V20H6V18Z"/><path class="gb116-12" d="M8,19V18H7v2H8Z"/><path class="gb116-7" d="M8,18V17H7V16H6v1H5v1H6v2H7V18Z"/><path class="gb116-7" d="M5,19V18H2v1H5Z"/></svg>