<svg xmlns="http://www.w3.org/2000/svg" viewBox="0 0 29 33"><defs><style>polygon,rect,path{shape-rendering:crispedges;}.da121-1{fill:#6b4f99;}.da121-2{fill:#000000;}.da121-3{fill:#ffffff;}.da121-4{fill:#efcaaf;}.da121-5{fill:#ffffff;}.da121-6{fill:#893a1f;}.da121-7{fill:#893a1f;}.da121-8{fill:#ff5e17;}</style></defs><path class="da121-1" d="M0,33H6V27H7V26H8V25h2V24h2V21H9V20H8V19H9V18H8V13H9V11h1V10h1V9h7v1h1v1h1v1h1v6H20v1h1v1H20v1H17v3h2v1h2v1h1v1h1v6h6V0H0Z"/><path class="da121-2" d="M23,27H22v3H21V27H20v6h1V31h1v2h1V27Z"/><rect class="da121-2" x="21" y="26" width="1" height="1"/><path class="da121-3" d="M21,28v2h1V27H21Z"/><path class="da121-4" d="M21,31v2h1V31Z"/><path class="da121-2" d="M20,26h1V25H19v1Z"/><path class="da121-3" d="M20,27h1V26H19V25H17v1H16v1H13V26H12V25H10v1H8v1H9v6H20V27Z"/><path class="da121-2" d="M18,25h1V24H17v1Z"/><rect class="da121-2" x="16" y="25" width="1" height="1"/><path class="da121-2" d="M13,26v1h3V26H13Z"/><path class="da121-2" d="M13,23h3v1h1V21H16v1H13V21H12v3h1Z"/><path class="da121-4" d="M13,25v1h3V25h1V24H16V23H13v1H12v1Z"/><rect class="da121-2" x="12" y="25" width="1" height="1"/><path class="da121-2" d="M12,24H10v1h2Z"/><path class="da121-2" d="M10,25H8v1h2Z"/><path class="da121-2" d="M9,27H8v3H7V27H6v6H7V31H8v2H9V27Z"/><rect class="da121-2" x="7" y="26" width="1" height="1"/><path class="da121-3" d="M7,30H8V27H7v3Z"/><path class="da121-4" d="M7,31v2H8V31Z"/><rect class="da121-2" x="19" y="14" width="1" height="1"/><rect class="da121-4" x="12" y="12" width="1" height="1"/><rect class="da121-4" x="19" y="15" width="1" height="1"/><path class="da121-4" d="M13,22h3V21h1V19H16v1H13V19h3V18h1v1h1V15H16v1H15v1H14V16h1V14h1V12H15V11H14v4H13v2H12V15H11v4h1v2h1Z"/><rect class="da121-4" x="17" y="11" width="1" height="1"/><rect class="da121-4" x="11" y="13" width="1" height="1"/><rect class="da121-4" x="9" y="15" width="1" height="1"/><rect class="da121-4" x="17" y="13" width="1" height="1"/><path class="da121-2" d="M17,20v1h1V20Z"/><path class="da121-2" d="M11,20v1h1V20Z"/><rect class="da121-2" x="14" y="16" width="1" height="1"/><rect class="da121-5" x="12" y="14" width="1" height="1"/><path class="da121-5" d="M16,14v1h1V14Z"/><rect class="da121-2" x="11" y="14" width="1" height="1"/><path class="da121-2" d="M17,14v1h1V14Z"/><rect class="da121-6" x="17" y="12" width="1" height="1"/><rect class="da121-6" x="12" y="13" width="1" height="1"/><rect class="da121-6" x="11" y="12" width="1" height="1"/><rect class="da121-7" x="20" y="19" width="1" height="1"/><path class="da121-7" d="M19,16v2h1V16Z"/><path class="da121-7" d="M19,19V18H18v1H17v1h1v1h2V20H19Z"/><rect class="da121-7" x="8" y="19" width="1" height="1"/><path class="da121-7" d="M12,20V19H11V18H10v2H9v1h2V20Z"/><path class="da121-7" d="M10,17V16H9v2h1Z"/><rect class="da121-2" x="13" y="19" width="3" height="1"/><rect class="da121-2" x="16" y="18" width="1" height="1"/><path class="da121-8" d="M9,15h1v3h1V12h2v3h1V11h1v1h1v2h1V11h1v7h1V14h1v4h1V12H20V11H19V10H18V9H11v1H10v1H9v2H8v5H9V15Z"/><polygon class="da121-8" points="19 19 19 20 20 20 20 19 20 18 19 18 19 19"/><path class="da121-8" d="M15,14v2h1V14Z"/><path class="da121-8" d="M12,16v1h1V15H12Z"/><path class="da121-8" d="M10,19V18H9v2h1Z"/></svg>