<svg xmlns="http://www.w3.org/2000/svg" viewBox="0 0 29 33"><defs><style>polygon,rect,path{shape-rendering:crispedges;}.ya36-1{fill:#db5a8e;}.ya36-2{fill:#000000;}.ya36-3{fill:#dbc6d2;}.ya36-4{fill:#efcaaf;}.ya36-5{fill:#875070;}.ya36-6{fill:#ffffff;}.ya36-7{fill:#af8423;}.ya36-8{fill:#af8423;}.ya36-9{fill:#cbed03;}.ya36-10{fill:#ff6aa5;}.ya36-11{fill:#ff1f4a;}.ya36-12{fill:#ff791f;}.ya36-13{fill:#fad000;}.ya36-14{fill:#b6dc00;}.ya36-15{fill:#00af68;}.ya36-16{fill:#38a6e8;}.ya36-17{fill:#0068ff;}.ya36-18{fill:#6e12ff;}.ya36-19{fill:#ff1d99;}.ya36-20{fill:#cc2f76;}</style></defs><path class="ya36-1" d="M0,33H6V26H7V25H8V24H7V23H6V20H7V19H9V16H8V15H9V11h1V10h1V9h7v1h1v1h1v4h1v1H20v3H19v1H18v1H17v2h1v1h1v1h2v1h1v1h1v6h6V0H0Z"/><rect class="ya36-1" x="9" y="24" width="1" height="1"/><rect class="ya36-1" x="10" y="23" width="1" height="1"/><path class="ya36-1" d="M11,23h1V21H11v2Z"/><path class="ya36-2" d="M23,27H22v6h1V27Z"/><path class="ya36-3" d="M21,30v1h1V29H21Z"/><path class="ya36-3" d="M21,32v1h1V32Z"/><path class="ya36-3" d="M21,28h1V27H21Z"/><rect class="ya36-2" x="21" y="26" width="1" height="1"/><path class="ya36-2" d="M21,31V27H20v6h1V31Z"/><rect class="ya36-3" x="9" y="32" width="1" height="1"/><path class="ya36-3" d="M17,32V31h1V30h1v1h1V29H19V28h1V27h1V26H19v1H18V26H15v1H14V26H11v1H10v2H9v2h1V30h1v1h1v1H11v1h3V32H13V31h1V30h1v1h1v1H15v1h3V32Zm-2-3H13v1H12V29H11V28h1V27h1v1h3V27h1v1h1v1H17v1H16V29Z"/><path class="ya36-3" d="M19,32v1h1V32Z"/><path class="ya36-2" d="M20,26h1V25H19v1Z"/><rect class="ya36-3" x="16" y="24" width="1" height="1"/><rect class="ya36-2" x="15" y="24" width="1" height="1"/><rect class="ya36-2" x="14" y="32" width="1" height="1"/><rect class="ya36-2" x="14" y="30" width="1" height="1"/><path class="ya36-2" d="M14,28v1h1V28Z"/><path class="ya36-2" d="M14,25v2h1V25Z"/><rect class="ya36-2" x="13" y="24" width="1" height="1"/><path class="ya36-4" d="M14,24v1h1V24h1V23H13v1Z"/><rect class="ya36-3" x="12" y="24" width="1" height="1"/><path class="ya36-2" d="M12,25V24h1V22H12v1H11v1H10v1h1v1h2V25Z"/><path class="ya36-2" d="M9,31V28H8v5H9V31Z"/><path class="ya36-2" d="M9,25v3h1V25Z"/><path class="ya36-3" d="M7,30v1H8V29H7Z"/><path class="ya36-3" d="M7,32v1H8V32Z"/><path class="ya36-2" d="M7,31V26H6v7H7V31Z"/><path class="ya36-5" d="M12,32V31H11V30H10v1H9v1h1v1h1V32Z"/><path class="ya36-5" d="M13,28V27H12v1H11v1h1v1h1V29h1V28Z"/><path class="ya36-5" d="M10,25v2h1V25Z"/><path class="ya36-5" d="M15,25v1h1V25Z"/><path class="ya36-5" d="M13,25v1h1V25Z"/><path class="ya36-5" d="M17,30V29h1V28H17V27H16v1H15v1h1v1Z"/><polygon class="ya36-5" points="18 26 18 27 19 27 19 26 19 25 18 25 18 26"/><path class="ya36-5" d="M7,29H8V28H7Z"/><path class="ya36-5" d="M9,29h1V28H9Z"/><path class="ya36-5" d="M21,29h1V28H21Z"/><path class="ya36-5" d="M19,29h1V28H19Z"/><path class="ya36-5" d="M21,32h1V31H21Z"/><path class="ya36-5" d="M7,32H8V31H7Z"/><polygon class="ya36-5" points="16 32 16 31 15 31 14 31 13 31 13 32 14 32 15 32 16 32"/><path class="ya36-5" d="M20,32V31H19V30H18v1H17v1h1v1h1V32Z"/><rect class="ya36-2" x="20" y="15" width="1" height="1"/><path class="ya36-2" d="M19,13v2h1V12H19Z"/><path class="ya36-4" d="M13,21h3V20H13Z"/><rect class="ya36-4" x="16" y="19" width="1" height="1"/><path class="ya36-4" d="M10,17v1h1v1h1v1h1V19h3V18h1v1h1V18h1V16h1V15H16V14h2V13H16V12h1V11H16V10H13v1H12v2h1v2H9v1h1Zm4-1h1v1H14Z"/><rect class="ya36-4" x="11" y="10" width="1" height="1"/><path class="ya36-4" d="M10,14h2V13H10Z"/><path class="ya36-4" d="M18,12v1h1V11H18Z"/><rect class="ya36-4" x="17" y="10" width="1" height="1"/><rect class="ya36-4" x="10" y="11" width="1" height="1"/><path class="ya36-2" d="M16,23v1h1v1H16v1h2V25h1V24H18V23H17V22H16Z"/><path class="ya36-2" d="M10,14V12H9v3h1Z"/><rect class="ya36-2" x="8" y="15" width="1" height="1"/><rect class="ya36-2" x="14" y="16" width="1" height="1"/><path class="ya36-6" d="M12,15h1V14H12Z"/><path class="ya36-6" d="M10,14v1h1V14Z"/><path class="ya36-6" d="M18,14v1h1V14Z"/><path class="ya36-6" d="M16,14v1h1V14Z"/><path class="ya36-2" d="M11,14v1h1V14Z"/><path class="ya36-2" d="M17,14v1h1V14Z"/><path class="ya36-7" d="M19,13H18v1h1Z"/><polygon class="ya36-7" points="17 12 16 12 16 13 18 13 18 12 17 12"/><path class="ya36-7" d="M13,14V13H12v1Z"/><path class="ya36-7" d="M10,12v1h2V12H10Z"/><path class="ya36-8" d="M10,20h1v1h1v1h1v1h3V22h1V21h1V20h1V19h1V16H19v2H18v1H17v1H16v1H13V20H12V19H11V18H10V16H9v3h1Z"/><rect class="ya36-2" x="13" y="19" width="3" height="1"/><rect class="ya36-2" x="16" y="18" width="1" height="1"/><path class="ya36-9" d="M20,12V11H19v1Z"/><rect class="ya36-9" x="18" y="10" width="1" height="1"/><path class="ya36-9" d="M12,11h1V10h3v1h1V10h1V9H11v1h1Z"/><rect class="ya36-9" x="17" y="11" width="1" height="1"/><path class="ya36-9" d="M11,12h1V11H11Z"/><rect class="ya36-9" x="10" y="10" width="1" height="1"/><path class="ya36-9" d="M10,11H9v1h1Z"/><path class="ya36-6" d="M9,26V24H8v2Z"/><rect class="ya36-10" x="8" y="21" width="1" height="1"/><path class="ya36-11" d="M10,24V23H8v1h2Z"/><rect class="ya36-12" x="7" y="23" width="1" height="1"/><path class="ya36-13" d="M7,21V20H6v2H7Z"/><path class="ya36-14" d="M9,19H7v1H9Z"/><rect class="ya36-15" x="9" y="19" width="1" height="1"/><rect class="ya36-15" x="10" y="20" width="1" height="1"/><path class="ya36-16" d="M11,22V21H10v2h1Z"/><path class="ya36-17" d="M9,22H8v1h2V22Z"/><path class="ya36-18" d="M8,22V21H7v2H8Z"/><path class="ya36-19" d="M8,21H9V20H7v1Z"/><path class="ya36-20" d="M10,22V20H9v2Z"/><path class="ya36-12" d="M6,22v1H7V22Z"/><path class="ya36-2" d="M8,25H7v1H8Z"/><path class="ya36-4" d="M8,28H9V26H7v2Z"/></svg>