<svg xmlns="http://www.w3.org/2000/svg" viewBox="0 0 29 33"><defs><style>polygon,rect,path{shape-rendering:crispedges;}.na263-1{fill:#6b4f99;}.na263-2{fill:#000000;}.na263-3{fill:#ffffff;}.na263-4{fill:#317f03;}.na263-5{fill:#e8b795;}.na263-6{fill:#8ab2b2;}.na263-7{fill:#316a6d;}.na263-8{fill:#fad000;}.na263-9{fill:#ffffff;}.na263-10{fill:#316a6d;}.na263-11{fill:#72dd40;}</style></defs><path class="na263-1" d="M0,33H6V27H7V26H8V25h2V23h1V22h1V21H11V20H10V19H9V16H8V15H9V10h1V9h1V8h7V9h1v1h1v5h1v1H20v3H19v1H18v1H17v1h1v1h1v2h2v1h1v1h1v6h6V0H0Z"/><path class="na263-2" d="M23,27H22v6h1V27Z"/><rect class="na263-2" x="21" y="26" width="1" height="1"/><path class="na263-3" d="M21,31v1h1V30H21Z"/><path class="na263-3" d="M21,28h1V27H21Z"/><path class="na263-2" d="M21,31V27H20v6h1V31Z"/><path class="na263-3" d="M18,26v2h1v1h1V27H19V25H18Z"/><path class="na263-3" d="M19,31V30H18v2h1v1h1V31Z"/><path class="na263-2" d="M20,26h1V25H19v1Z"/><path class="na263-2" d="M18,31V25H17v1H16v1h1v6h1V31Z"/><path class="na263-4" d="M17,27H16v1H13V27H12v6h5V27Z"/><path class="na263-5" d="M16,25V23H13v2h3Z"/><path class="na263-2" d="M12,27h1V26H12V25H11v8h1V27Z"/><path class="na263-3" d="M10,26H9v2h1v1h1V27H10Z"/><path class="na263-3" d="M10,31V30H9v2h1v1h1V31Z"/><path class="na263-2" d="M10,26V25H8v1h2Z"/><path class="na263-2" d="M9,31V27H8v6H9V31Z"/><rect class="na263-2" x="7" y="26" width="1" height="1"/><path class="na263-3" d="M7,31v2H8V31Z"/><path class="na263-3" d="M8,29V27H7v2Z"/><path class="na263-2" d="M7,30V27H6v6H7V30Z"/><path class="na263-6" d="M21,29v1h1V28H21Z"/><path class="na263-6" d="M21,32v1h1V32Z"/><path class="na263-6" d="M19,26v1h2V26H19Z"/><path class="na263-6" d="M19,28H18v2h1v1h1V29H19Z"/><path class="na263-6" d="M18,32v1h1V32Z"/><path class="na263-6" d="M10,27h1V25H10v2Z"/><path class="na263-6" d="M10,28H9v2h1v1h1V29H10Z"/><path class="na263-6" d="M9,32v1h1V32Z"/><path class="na263-6" d="M9,27V26H8v1Z"/><path class="na263-6" d="M7,30v1H8V29H7Z"/><rect class="na263-2" x="20" y="15" width="1" height="1"/><path class="na263-2" d="M19,15h1V14H19Z"/><path class="na263-5" d="M13,20v2h3V20Z"/><rect class="na263-5" x="10" y="13" width="1" height="1"/><path class="na263-5" d="M12,19V18h5v2h1V19h1V16H18v1H16V16H15v1H14V16H13v1H11V16H10v3h1v1h1Z"/><path class="na263-5" d="M12,13h1v1h3V12h2V11H17V10H12v1H11v1h1Z"/><rect class="na263-5" x="9" y="15" width="1" height="1"/><rect class="na263-5" x="19" y="15" width="1" height="1"/><rect class="na263-5" x="14" y="15" width="1" height="1"/><rect class="na263-5" x="18" y="12" width="1" height="1"/><path class="na263-2" d="M19,17v2h1V16H19Z"/><rect class="na263-2" x="18" y="19" width="1" height="1"/><rect class="na263-2" x="17" y="20" width="1" height="1"/><rect class="na263-2" x="11" y="20" width="1" height="1"/><rect class="na263-2" x="10" y="19" width="1" height="1"/><path class="na263-2" d="M10,14H9v1h1Z"/><path class="na263-2" d="M10,16H9v3h1V16Z"/><rect class="na263-2" x="8" y="15" width="1" height="1"/><rect class="na263-2" x="14" y="16" width="1" height="1"/><rect class="na263-7" x="18" y="13" width="1" height="1"/><path class="na263-7" d="M16,13h2V12H16Z"/><path class="na263-7" d="M12,13V12H10v1h2Z"/><path class="na263-2" d="M18,25h1V23H18v2Z"/><path class="na263-8" d="M17,24v1h1V24Z"/><path class="na263-9" d="M17,24h1V23H17Z"/><rect class="na263-9" x="16" y="25" width="1" height="1"/><rect class="na263-8" x="15" y="26" width="1" height="1"/><path class="na263-2" d="M14,27H13v1h3V27H14Z"/><path class="na263-9" d="M15,27V26H14v1Z"/><rect class="na263-8" x="13" y="26" width="1" height="1"/><path class="na263-2" d="M15,25H13v1h3V25Z"/><rect class="na263-9" x="12" y="25" width="1" height="1"/><path class="na263-2" d="M12,24v1h1V23h3v2h1V23h1V22H17V21H16v1H13V21H12v1H11v1h1Z"/><rect class="na263-8" x="11" y="24" width="1" height="1"/><rect class="na263-9" x="11" y="23" width="1" height="1"/><path class="na263-2" d="M11,24V23H10v2h1Z"/><path class="na263-10" d="M17,19H16v2h1V19Z"/><path class="na263-10" d="M13,20V19h3V18H12v3h1Z"/><path class="na263-2" d="M16,19H13v1h3Z"/><path class="na263-2" d="M17,18H16v1h1Z"/><path class="na263-11" d="M10,13V12h1V11h1V10h5v1h1v1h1v2h1V10H19V9H18V8H11V9H10v1H9v4h1Z"/><path class="na263-9" d="M12,13H11v1h2V13Z"/><path class="na263-9" d="M11,17h2V16H11Z"/><path class="na263-9" d="M10,14v2h1V14Z"/><path class="na263-2" d="M11,14v2h2V14Z"/><path class="na263-9" d="M19,14H18v2h1V14Z"/><path class="na263-9" d="M17,13H16v1h2V13Z"/><path class="na263-9" d="M16,17h2V16H16Z"/><path class="na263-9" d="M13,14v2h1V15h1v1h1V14Z"/><path class="na263-2" d="M16,14v2h2V14Z"/></svg>