<svg xmlns="http://www.w3.org/2000/svg" viewBox="0 0 29 33"><defs><style>polygon,rect,path{shape-rendering:crispedges;}.ga272-1{fill:#db5a8e;}.ga272-2{fill:#000000;}.ga272-3{fill:#333333;}.ga272-4{fill:#e8b795;}.ga272-5{fill:#ffffff;}.ga272-6{fill:#ffffff;}.ga272-7{fill:#8e4717;}.ga272-8{fill:#fad000;}.ga272-9{fill:#893a1f;}.ga272-10{fill:#99004d;}</style></defs><path class="ga272-1" d="M0,33H6V27H7V26H8V25h2V23h1V21H10V20H9V16H8V15H9V10h1V9h1V8h7V9h1v1h1v5h1v1H20v4H19v1H18v2h1v2h2v1h1v1h1v6h6V0H0Z"/><path class="ga272-2" d="M23,27H22v6h1V27Z"/><rect class="ga272-2" x="21" y="26" width="1" height="1"/><path class="ga272-3" d="M22,27H21v6h1V27Z"/><path class="ga272-2" d="M21,27H20v6h1V27Z"/><path class="ga272-2" d="M20,26h1V25H19v1Z"/><rect class="ga272-3" x="14" y="30" width="1" height="1"/><path class="ga272-3" d="M19,32V31H18v1H17V29h1V28h1v1h1V27h1V26H19V25H18v1H17v1H16v4H15v1H13V27H12V26H11V25H10v1H9v3h1V28h1v1h1v3H11V31H10v1H9v1H20V32Z"/><rect class="ga272-3" x="18" y="29" width="1" height="1"/><rect class="ga272-3" x="10" y="29" width="1" height="1"/><path class="ga272-4" d="M14,24h1v1h1V23H13v2h1Z"/><path class="ga272-2" d="M9,31V26h1V25H8v1H7v1H8v6H9V31Z"/><path class="ga272-3" d="M8,27H7v6H8V27Z"/><path class="ga272-2" d="M7,27H6v6H7V27Z"/><path class="ga272-5" d="M19,30H18V29H17v3h1V31h1v1h1V29H19Z"/><rect class="ga272-5" x="18" y="28" width="1" height="1"/><path class="ga272-5" d="M15,30v1h1V29H15Z"/><path class="ga272-5" d="M14,30V29H13v3h2V31H14Z"/><path class="ga272-5" d="M9,32h1V31h1v1h1V29H11v1H10V29H9v3Z"/><rect class="ga272-5" x="10" y="28" width="1" height="1"/><rect class="ga272-2" x="20" y="15" width="1" height="1"/><rect class="ga272-4" x="15" y="20" width="1" height="1"/><rect class="ga272-4" x="13" y="20" width="1" height="1"/><path class="ga272-4" d="M10,17v1h1v1h1V18h2v1h1V18h2v1h1V18h1V16h1V15H16V14h2V13H16V12h2v1h1V11H18V10H16v1H15v1H14v2H13v3H12V16H11V15H9v1h1Zm4-1h1v1H14Z"/><path class="ga272-2" d="M16,23v2h1V23h1V22H16Z"/><path class="ga272-2" d="M10,14H9v1h1Z"/><rect class="ga272-2" x="8" y="15" width="1" height="1"/><rect class="ga272-2" x="14" y="16" width="1" height="1"/><path class="ga272-6" d="M18,14v1h1V14Z"/><path class="ga272-6" d="M16,14v1h1V14Z"/><path class="ga272-2" d="M17,14v1h1V14Z"/><rect class="ga272-7" x="18" y="13" width="1" height="1"/><rect class="ga272-7" x="16" y="12" width="2" height="1"/><rect class="ga272-2" x="14" y="29" width="1" height="1"/><rect class="ga272-2" x="12" y="26" width="1" height="1"/><path class="ga272-2" d="M15,28v1h1V27H15Z"/><rect class="ga272-2" x="16" y="26" width="1" height="1"/><path class="ga272-2" d="M14,28V27H13v2h1Z"/><rect class="ga272-2" x="17" y="25" width="1" height="1"/><rect class="ga272-2" x="11" y="25" width="1" height="1"/><rect class="ga272-2" x="14" y="24" width="1" height="1"/><rect class="ga272-2" x="13" y="25" width="1" height="1"/><rect class="ga272-2" x="15" y="25" width="1" height="1"/><path class="ga272-2" d="M12,24v1h1V22H11v1h1Z"/><rect class="ga272-8" x="16" y="25" width="1" height="1"/><polygon class="ga272-8" points="15 26 15 25 14 25 14 26 13 26 13 27 14 27 14 28 14 29 15 29 15 28 15 27 16 27 16 26 15 26"/><rect class="ga272-8" x="12" y="25" width="1" height="1"/><path class="ga272-8" d="M11,25h1V23H11v2Z"/><path class="ga272-8" d="M17,24v1h1V23H17Z"/><path class="ga272-2" d="M19,25V23H18v2Z"/><path class="ga272-2" d="M11,24V23H10v2h1Z"/><path class="ga272-9" d="M14,18H13v1h1Z"/><path class="ga272-9" d="M13,23h3V22h2V21h1V20h1V16H19v2H18v1H17V18H15v1h1v2H15V20H14v1H13V19H11V18H10V16H9v4h1v1h1v1h2Z"/><path class="ga272-2" d="M13,19v1h3V19H13Z"/><path class="ga272-2" d="M12,18v1h1V18Z"/><path class="ga272-10" d="M10,15h1v1h1v1h1V14h1V12h1V11h1V10h2v1h1v4h1V10H19V9H18V8H11V9H10v1H9v4h1Z"/></svg>