<svg xmlns="http://www.w3.org/2000/svg" viewBox="0 0 29 33"><defs><style>polygon,rect,path{shape-rendering:crispedges;}.ga292-1{fill:#29834f;}.ga292-2{fill:#000000;}.ga292-3{fill:#b8a4ff;}.ga292-4{fill:#b2622b;}.ga292-5{fill:#893a1f;}.ga292-6{fill:#893a1f;}.ga292-7{fill:#34e0cb;}.ga292-8{fill:#fad000;}</style></defs><path class="ga292-1" d="M0,33H6V24H7V23H8v1H9v1h1V24h2V21H9V20H8V19H9V16H8V14H9V10h1V9h1V8h7V9h1v1h1v4h1v2H20v3h1v1H20v1H17v3h2v1h1V24h1V23h1v1h1v9h6V0H0Z"/><path class="ga292-2" d="M7,27V24H6v9H7V27Z"/><path class="ga292-3" d="M8,27H7v6H8V27Z"/><path class="ga292-2" d="M9,27H8v6H9V27Z"/><path class="ga292-3" d="M20,27H19V25H17v1H16v1H13V26H12V25H10v2H9v6H20V27Z"/><path class="ga292-2" d="M12,24H10v1h2Z"/><path class="ga292-2" d="M13,23h3v1h1V21H16v1H13V21H12v3h1Z"/><rect class="ga292-2" x="12" y="25" width="1" height="1"/><path class="ga292-2" d="M13,26v1h3V26H13Z"/><path class="ga292-4" d="M13,25v1h3V25h1V24H16V23H13v1H12v1Z"/><rect class="ga292-2" x="16" y="25" width="1" height="1"/><path class="ga292-2" d="M18,25h1V24H17v1Z"/><path class="ga292-2" d="M21,27H20v6h1V27Z"/><path class="ga292-3" d="M22,27H21v6h1V27Z"/><path class="ga292-2" d="M23,24H22v9h1V24Z"/><path class="ga292-2" d="M20,16h1V15H20Z"/><path class="ga292-4" d="M13,22h3V21h1V19H16v1H13V19h3V18h1v1h1V18h1V17H16V16H15v1H14V16H13v1H10v1h1v1h1v2h1Z"/><rect class="ga292-4" x="14" y="15" width="1" height="1"/><path class="ga292-4" d="M12,13h1v1h2V12H14V11H13V10H11v1H10v1h2Z"/><path class="ga292-2" d="M17,20v1h1V20Z"/><path class="ga292-2" d="M11,20v1h1V20Z"/><path class="ga292-2" d="M8,15v1H9V15Z"/><rect class="ga292-2" x="14" y="16" width="1" height="1"/><path class="ga292-5" d="M12,12H10v1h2Z"/><path class="ga292-6" d="M19,17v1H18v1H17v1h1v1h2V20h1V19H20V16H19Z"/><path class="ga292-6" d="M12,20V19H11V18H10V16H9v3H8v1H9v1h2V20Z"/><rect class="ga292-2" x="13" y="19" width="3" height="1"/><rect class="ga292-2" x="16" y="18" width="1" height="1"/><path class="ga292-4" d="M21,27h1V24H21v1H20v2Z"/><path class="ga292-2" d="M20,27V25H19v2Z"/><rect class="ga292-2" x="20" y="24" width="1" height="1"/><rect class="ga292-2" x="21" y="23" width="1" height="1"/><path class="ga292-4" d="M7,27H9V25H8V24H7v3Z"/><path class="ga292-2" d="M10,27V25H9v2Z"/><rect class="ga292-2" x="8" y="24" width="1" height="1"/><rect class="ga292-2" x="7" y="23" width="1" height="1"/><path class="ga292-7" d="M10,13V11h1V10h2v1h1v1h1v2h1V13h3v1h1V10H19V9H18V8H11V9H10v1H9v4h1Z"/><path class="ga292-8" d="M19,15v1h1V15h1V14H19Z"/><path class="ga292-8" d="M19,14V13H16v1h3Z"/><path class="ga292-2" d="M19,16V14H16v2h3Z"/><path class="ga292-8" d="M18,16H16v1h3V16Z"/><path class="ga292-8" d="M15,14H13v2h1V15h1v1h1V14Z"/><path class="ga292-8" d="M13,14V13H10v1h3Z"/><path class="ga292-2" d="M12,14H10v2h3V14Z"/><path class="ga292-8" d="M10,16v1h3V16H10Z"/><path class="ga292-8" d="M10,15V14H8v1H9v1h1Z"/></svg>