<svg xmlns="http://www.w3.org/2000/svg" viewBox="0 0 29 33"><defs><style>polygon,rect,path{shape-rendering:crispedges;}.ha33-1{fill:#d14646;}.ha33-2{fill:#000000;}.ha33-3{fill:#8e9350;}.ha33-4{fill:#e8b795;}.ha33-5{fill:#8e9350;}.ha33-6{fill:#00686d;}.ha33-7{fill:#fad000;}.ha33-8{fill:#99ce09;}.ha33-9{fill:#ffffff;}.ha33-10{fill:#0068ff;}.ha33-11{fill:#ff1f4a;}.ha33-12{fill:#ff6aa5;}.ha33-13{fill:#ad5a21;}</style></defs><path class="ha33-1" d="M6,32V25H7V23H8V22h4V21H11V20H10V19H9V16H8V15H9V10h1V9h1V8h7V9h1v1h1v5h1v1H20v3H19v1H18v1H17v1h1v1h1v2h2v1h1v1h1v6h6V0H0V33H6Z"/><path class="ha33-2" d="M23,27H22v6h1V27Z"/><rect class="ha33-2" x="21" y="26" width="1" height="1"/><path class="ha33-3" d="M22,27H21v6h1V27Z"/><path class="ha33-2" d="M21,27H20v6h1V27Z"/><path class="ha33-2" d="M20,26h1V25H19v1Z"/><rect class="ha33-3" x="10" y="29" width="1" height="1"/><rect class="ha33-3" x="14" y="30" width="1" height="1"/><path class="ha33-3" d="M19,32V31H18v1H17V29h1V28h1v1h1V27h1V26H19V25H18v1H17v1H16v4H15v1H13V27H12V26H11v1H9v2h1V28h1v1h1v3H11V31H10v1H9v1H20V32Z"/><rect class="ha33-3" x="18" y="29" width="1" height="1"/><path class="ha33-4" d="M14,24h1v1h1V23H13v2h1Z"/><path class="ha33-2" d="M9,31V27H8v6H9V31Z"/><path class="ha33-3" d="M8,27H7v6H8V27Z"/><path class="ha33-2" d="M7,27V25H6v8H7V27Z"/><path class="ha33-5" d="M19,30H18V29H17v3h1V31h1v1h1V29H19Z"/><rect class="ha33-5" x="18" y="28" width="1" height="1"/><path class="ha33-5" d="M15,30v1h1V29H15Z"/><path class="ha33-5" d="M14,30V29H13v3h2V31H14Z"/><path class="ha33-5" d="M9,32h1V31h1v1h1V29H11v1H10V29H9v3Z"/><rect class="ha33-5" x="10" y="28" width="1" height="1"/><rect class="ha33-2" x="20" y="15" width="1" height="1"/><rect class="ha33-4" x="14" y="15" width="1" height="1"/><path class="ha33-4" d="M18,12V11H17V10H12v1H11v1h1v1h2v1h1V13h1V12Z"/><rect class="ha33-4" x="18" y="12" width="1" height="1"/><path class="ha33-4" d="M13,22h3V21h1V20h1V19h1V16H15v1H14V16H10v3h1v1h1v1h1Zm0-3h3V18h1v1H16v1H13Z"/><path class="ha33-2" d="M19,17v2h1V16H19Z"/><rect class="ha33-2" x="18" y="19" width="1" height="1"/><rect class="ha33-2" x="17" y="20" width="1" height="1"/><rect class="ha33-2" x="11" y="20" width="1" height="1"/><rect class="ha33-2" x="10" y="19" width="1" height="1"/><path class="ha33-2" d="M10,16H9v3h1V16Z"/><rect class="ha33-2" x="8" y="15" width="1" height="1"/><rect class="ha33-2" x="14" y="16" width="1" height="1"/><path class="ha33-6" d="M16,12v1h2V12Z"/><path class="ha33-6" d="M11,12H10v1h2V12Z"/><rect class="ha33-2" x="14" y="29" width="1" height="1"/><rect class="ha33-2" x="12" y="26" width="1" height="1"/><path class="ha33-2" d="M15,28v1h1V27H15Z"/><rect class="ha33-2" x="16" y="26" width="1" height="1"/><path class="ha33-2" d="M14,28V27H13v2h1Z"/><rect class="ha33-2" x="17" y="25" width="1" height="1"/><rect class="ha33-2" x="14" y="24" width="1" height="1"/><rect class="ha33-2" x="13" y="25" width="1" height="1"/><rect class="ha33-2" x="15" y="25" width="1" height="1"/><rect class="ha33-7" x="16" y="25" width="1" height="1"/><polygon class="ha33-7" points="15 26 15 25 14 25 14 26 13 26 13 27 14 27 14 28 14 29 15 29 15 28 15 27 16 27 16 26 15 26"/><rect class="ha33-7" x="12" y="25" width="1" height="1"/><path class="ha33-7" d="M17,24v1h1V23H17Z"/><path class="ha33-2" d="M19,25V23H18v2Z"/><path class="ha33-2" d="M12,23v2h1V23h3v2h1V23h1V22H17V21H16v1H13V21H12v1H11v1Z"/><rect class="ha33-2" x="13" y="19" width="3" height="1"/><rect class="ha33-2" x="16" y="18" width="1" height="1"/><path class="ha33-8" d="M10,12h1V11h1V10h5v1h1v1h1v1h1V10H19V9H18V8H11V9H10v1H9v3h1Z"/><path class="ha33-9" d="M11,16h3V15h1v1h5V13H15v1H14V13H9v3h2Zm5-2h3v1H16Zm-6,0h3v1H10Z"/><path class="ha33-10" d="M19,15V14H16v1h3Z"/><path class="ha33-11" d="M13,15V14H10v1h3Z"/><path class="ha33-4" d="M8,27H9V25H7v2Z"/><path class="ha33-12" d="M8,23H7v1H8Z"/><path class="ha33-12" d="M9,22H8v1H9Z"/><path class="ha33-12" d="M11,23V22H10v1Z"/><path class="ha33-12" d="M10,25H9v1h2V25Z"/><path class="ha33-12" d="M12,24H11v1h1Z"/><path class="ha33-13" d="M8,25H9V24h1v1h1V23H8v2Z"/><path class="ha33-13" d="M9,27h2V26H9Z"/><path class="ha33-9" d="M8,24H7v1H8Z"/><path class="ha33-9" d="M10,23V22H9v1Z"/><path class="ha33-9" d="M12,23H11v1h1Z"/><rect class="ha33-9" x="11" y="25" width="1" height="1"/><rect class="ha33-2" x="9" y="24" width="1" height="1"/></svg>