<svg xmlns="http://www.w3.org/2000/svg" viewBox="0 0 29 33"><defs><style>polygon,rect,path{shape-rendering:crispedges;}.cb159-1{fill:#b4bd09;}.cb159-2{fill:#000000;}.cb159-3{fill:#9b8100;}.cb159-4{fill:#ffffff;}.cb159-5{fill:#e8b795;}.cb159-6{fill:#663228;}.cb159-7{fill:#663228;}.cb159-8{fill:#ff5e17;}</style></defs><path class="cb159-1" d="M6,32V27H7V26H8V25h2V24h1V23h1V22H11V21H10V20H9V18H8V12H9V11h1V10h1V9h7v1h1v1h1v2h1v5H20v2H19v1H18v1H17v1h1v1h1v1h2v1h1v1h1v6h6V0H0V33H6Z"/><path class="cb159-2" d="M23,27H22v6h1V27Z"/><path class="cb159-3" d="M22,27H21v6h1V27Z"/><rect class="cb159-2" x="21" y="26" width="1" height="1"/><path class="cb159-2" d="M21,27H20v6h1V27Z"/><path class="cb159-3" d="M20,27h1V26H19V25H18v4H17v4h3V27Z"/><path class="cb159-2" d="M20,26h1V25H19v1Z"/><path class="cb159-2" d="M17,29H16v4h1V29Z"/><rect class="cb159-4" x="16" y="24" width="1" height="1"/><path class="cb159-2" d="M16,24h1v1H16v1h1v3h1V25h1V24H18V23H16Z"/><path class="cb159-4" d="M16,29h1V26H16V25H13v1H12v3h1v4h1V32h1v1h1V29Zm-1,2H14V30h1Zm0-2H14V28h1Zm0-2H14V26h1Z"/><rect class="cb159-4" x="15" y="23" width="1" height="1"/><rect class="cb159-2" x="14" y="32" width="1" height="1"/><rect class="cb159-2" x="14" y="30" width="1" height="1"/><rect class="cb159-2" x="14" y="28" width="1" height="1"/><rect class="cb159-2" x="14" y="26" width="1" height="1"/><path class="cb159-2" d="M15,24V23H14v1H13v1h3V24Z"/><rect class="cb159-4" x="13" y="23" width="1" height="1"/><path class="cb159-2" d="M13,29H12v4h1V29Z"/><rect class="cb159-4" x="12" y="24" width="1" height="1"/><path class="cb159-3" d="M12,29H11V25H10v1H8v1H9v6h3V29Z"/><path class="cb159-2" d="M11,26v3h1V26h1V25H12V24h1V23H11v1H10v1h1Z"/><path class="cb159-2" d="M10,25H8v1h2Z"/><path class="cb159-2" d="M9,27H8v6H9V27Z"/><path class="cb159-3" d="M8,27H7v6H8V27Z"/><rect class="cb159-2" x="7" y="26" width="1" height="1"/><path class="cb159-2" d="M7,27H6v6H7V27Z"/><rect class="cb159-5" x="11" y="13" width="1" height="1"/><rect class="cb159-5" x="19" y="15" width="1" height="1"/><path class="cb159-5" d="M18,13H16v1h2Z"/><rect class="cb159-5" x="11" y="11" width="1" height="1"/><path class="cb159-5" d="M18,15H17v2H16V15H15V11H14v1H13v2h1v2h1v1H14V16H13V15H11v3h1v1h1V18h3v1h1V18h1V15Z"/><rect class="cb159-5" x="9" y="15" width="1" height="1"/><rect class="cb159-2" x="9" y="14" width="1" height="1"/><rect class="cb159-2" x="14" y="16" width="1" height="1"/><path class="cb159-4" d="M13,15V14H12v1Z"/><path class="cb159-2" d="M18,15V14H16v1h2Z"/><path class="cb159-2" d="M12,14H11v1h1Z"/><rect class="cb159-6" x="11" y="12" width="1" height="1"/><path class="cb159-6" d="M18,12H16v1h2Z"/><path class="cb159-7" d="M19,16v2h1V16Z"/><path class="cb159-7" d="M14,23h3V22h1V21h1V18H17v1H16V18H13v1H12V18H10v3h1v1h1v1h2Zm0-4h1v1H14Z"/><path class="cb159-7" d="M10,17V16H9v2h1Z"/><rect class="cb159-2" x="14" y="19" width="1" height="1"/><path class="cb159-8" d="M9,15V14h1v4h1V11h1v3h1V12h1V11h1v4h1V12h2v6h1V15h1v3h1V13H20V11H19V10H18V9H11v1H10v1H9v1H8v6H9V15Z"/><path class="cb159-8" d="M9,18v2h1V18Z"/><path class="cb159-8" d="M13,16h1V14H13v2Z"/><path class="cb159-8" d="M17,17V15H16v2Z"/><path class="cb159-8" d="M19,19v1h1V18H19Z"/></svg>