<svg xmlns="http://www.w3.org/2000/svg" viewBox="0 0 29 33"><defs><style>polygon,rect,path{shape-rendering:crispedges;}.ra249-1{fill:#29834f;}.ra249-2{fill:#000000;}.ra249-3{fill:#b8a4ff;}.ra249-4{fill:#a56e49;}.ra249-5{fill:#ffffff;}.ra249-6{fill:#99004d;}.ra249-7{fill:#ffffff;}.ra249-8{fill:#cc3232;}</style></defs><path class="ra249-1" d="M0,33H6V27H7V26H8V25h2V24h1V23H10V22H9V21H8V20H7V19H8V12H9V10h1V9h1V8h7V9h1v1h1v2h1v7h3v1h1v3H24v8H23v1H21v1h8V0H0Z"/><path class="ra249-1" d="M20,22H19v1H18v1h1v1h2V23H20Z"/><rect class="ra249-1" x="10" y="21" width="1" height="1"/><rect class="ra249-1" x="18" y="21" width="1" height="1"/><path class="ra249-2" d="M23,24v7h1V23H23Z"/><path class="ra249-2" d="M7,27H6v6H7V27Z"/><path class="ra249-3" d="M8,27H7v6H8V27Z"/><rect class="ra249-2" x="7" y="26" width="1" height="1"/><path class="ra249-2" d="M9,31V27H8v6H9V31Z"/><rect class="ra249-3" x="10" y="29" width="1" height="1"/><rect class="ra249-3" x="18" y="29" width="1" height="1"/><path class="ra249-3" d="M18,24H16v1h1v4h1V28h1v1h1V27h1V26H19V25H18Z"/><path class="ra249-3" d="M19,32V31H18v1H17V30H16v1H15v1H13V30H12v2H11V31H10v1H9v1H20V32Z"/><path class="ra249-3" d="M9,27v2h1V28h1v1h1V25h1V24H11v1H10v1H8v1Z"/><path class="ra249-2" d="M10,25H8v1h2Z"/><rect class="ra249-2" x="10" y="24" width="1" height="1"/><rect class="ra249-2" x="10" y="22" width="1" height="1"/><rect class="ra249-3" x="11" y="22" width="1" height="1"/><path class="ra249-2" d="M13,23h3v1h2V23H17V21H16v1H13V21H12v2H11v1h2Z"/><path class="ra249-2" d="M16,25V24H13v1h3Z"/><path class="ra249-4" d="M16,24V23H13v1h3Z"/><path class="ra249-3" d="M17,22v1h1V22Z"/><rect class="ra249-2" x="18" y="24" width="1" height="1"/><rect class="ra249-2" x="18" y="22" width="1" height="1"/><path class="ra249-2" d="M22,32h1V31H22V23H21v2H19v1h2v1H20v6h1V32Z"/><path class="ra249-3" d="M23,24H22v7h1V24Z"/><path class="ra249-3" d="M14,29v2h1V29Z"/><path class="ra249-3" d="M13,28h2v1h1V25H13v3Z"/><path class="ra249-5" d="M19,30H18V29H17v3h1V31h1v1h1V29H19Z"/><rect class="ra249-5" x="18" y="28" width="1" height="1"/><path class="ra249-5" d="M15,29v2h1V29Z"/><path class="ra249-5" d="M14,30V29h1V28H13v4h2V31H14Z"/><path class="ra249-5" d="M11,29v1H10V29H9v3h1V31h1v1h1V29Z"/><rect class="ra249-5" x="10" y="28" width="1" height="1"/><path class="ra249-2" d="M13,27V25H12v5h1V27Z"/><path class="ra249-2" d="M17,28V25H16v5h1V28Z"/><path class="ra249-2" d="M20,16h1V15H20Z"/><rect class="ra249-2" x="19" y="14" width="1" height="1"/><path class="ra249-4" d="M18,20V19h1V16h1V15H19V14H18v1H16v1H15v1H14V16H13V15H11V14H10v1H9v1h1v3h1v1h1v1h1v1h3V21h1V20Zm-2,0H13V19H12V18h1v1h3Z"/><path class="ra249-2" d="M19,17v2h1V16H19Z"/><rect class="ra249-2" x="18" y="19" width="1" height="1"/><rect class="ra249-2" x="17" y="20" width="1" height="1"/><rect class="ra249-2" x="11" y="20" width="1" height="1"/><rect class="ra249-2" x="10" y="19" width="1" height="1"/><rect class="ra249-2" x="9" y="14" width="1" height="1"/><path class="ra249-2" d="M10,16H9v3h1V16Z"/><path class="ra249-2" d="M9,15H8v1H9Z"/><path class="ra249-6" d="M17,15h1V14H17Z"/><rect class="ra249-6" x="16" y="13" width="1" height="1"/><rect class="ra249-2" x="14" y="14" width="1" height="1"/><path class="ra249-7" d="M16,14V13H13v1H12v1h1v1h3V15h1V14Zm-1,1H14V14h1Z"/><path class="ra249-6" d="M16,13V12H13v1h3Z"/><rect class="ra249-6" x="12" y="13" width="1" height="1"/><path class="ra249-6" d="M12,15V14H11v1Z"/><path class="ra249-2" d="M14,17h1V16H14Z"/><path class="ra249-4" d="M12,13h1V12h3v1h1v1h1V12H17V11H16V10H13v1H12v1H11v2h1Z"/><rect class="ra249-2" x="13" y="19" width="3" height="1"/><rect class="ra249-2" x="12" y="18" width="1" height="1"/><path class="ra249-2" d="M20,21v2h1V21Z"/><rect class="ra249-2" x="21" y="20" width="1" height="1"/><path class="ra249-2" d="M24,20V19H22v1Z"/><path class="ra249-2" d="M24,23h1V20H24v3Z"/><path class="ra249-4" d="M22,21H21v2h1v1h1V23h1V20H22Z"/><path class="ra249-8" d="M20,17v2H19v1H18v1h1v1h1V21h1V20h1V19H21V16H20Z"/><path class="ra249-8" d="M9,14h2V12h1V11h1V10h3v1h1v1h1v2h2v1h1V12H20V10H19V9H18V8H11V9H10v1H9v2H8v3H9Z"/><path class="ra249-8" d="M11,21V20H10V19H9V16H8v3H7v1H8v1H9v1h1V21Z"/><path class="ra249-8" d="M11,22h1V21H11Z"/><path class="ra249-8" d="M18,21H17v1h1Z"/></svg>