<svg xmlns="http://www.w3.org/2000/svg" viewBox="0 0 29 33"><defs><style>polygon,rect,path{shape-rendering:crispedges;}.ba266-1{fill:#29834f;}.ba266-2{fill:#000000;}.ba266-3{fill:#c18d59;}.ba266-4{fill:#ffffff;}.ba266-5{fill:#99ce09;}.ba266-6{fill:#004a77;}.ba266-7{fill:#fad000;}.ba266-8{fill:#ffffff;}.ba266-9{fill:#663228;}.ba266-10{fill:#c8a715;}.ba266-11{fill:#34e0cb;}</style></defs><path class="ba266-1" d="M0,33H6V27H7V26H8V25h2V20H9V17H8V15H7V14H8V12H7V10H8v1H9V9H8V8h2V9h1V8h1V7h1V8h1V7h2V8h1V7h1V8h1V7h1V8H19V9H18v1h2V9h1v2H20v1h2v1H20v1h2v1H21v2H20v3H19v5h2v1h1v1h1v6h6V0H0Z"/><path class="ba266-2" d="M23,27H22v6h1V27Z"/><rect class="ba266-2" x="21" y="26" width="1" height="1"/><path class="ba266-3" d="M22,27H21v6h1V27Z"/><rect class="ba266-3" x="20" y="26" width="1" height="1"/><path class="ba266-2" d="M21,27H20v6h1V27Z"/><path class="ba266-2" d="M20,26h1V25H19v1Z"/><rect class="ba266-4" x="18" y="32" width="1" height="1"/><path class="ba266-4" d="M17,30h1V29h1v1h1V26H19V25H18v1H17v1H16v1H13V27H12V26H11V25H10v1H9v4h1V29h1v1h1v3h1V29h2v1h1v2H15v1h2V30Z"/><path class="ba266-4" d="M14,31v1h1V30H14Z"/><rect class="ba266-4" x="10" y="30" width="1" height="1"/><rect class="ba266-4" x="10" y="32" width="1" height="1"/><rect class="ba266-4" x="18" y="30" width="1" height="1"/><path class="ba266-3" d="M13,25h3V23H13v2Z"/><path class="ba266-2" d="M10,26V25H8v1h2Z"/><path class="ba266-3" d="M9,27V26H8v1Z"/><path class="ba266-2" d="M9,30V27H8v6H9V30Z"/><rect class="ba266-2" x="7" y="26" width="1" height="1"/><path class="ba266-3" d="M8,27H7v6H8V27Z"/><path class="ba266-2" d="M7,27H6v6H7V27Z"/><path class="ba266-5" d="M20,30H19v1H18V30H17v3h1V32h1v1h1V30Z"/><rect class="ba266-5" x="18" y="29" width="1" height="1"/><path class="ba266-5" d="M16,32V30H15v2Z"/><path class="ba266-5" d="M14,32V30h1V29H13v4h2V32Z"/><path class="ba266-5" d="M12,30H11v1H10V30H9v3h1V32h1v1h1V30Z"/><rect class="ba266-5" x="10" y="29" width="1" height="1"/><rect class="ba266-3" x="15" y="10" width="1" height="1"/><rect class="ba266-3" x="14" y="15" width="1" height="1"/><polygon class="ba266-3" points="13 21 14 21 14 22 15 22 15 21 16 21 16 20 13 20 13 21"/><path class="ba266-3" d="M16,17V16H15v1H14V16H13v1H10v1h1v1h1V18h2v1h1V18h2v1h1V18h1V17H16Z"/><path class="ba266-3" d="M14,14h2V12H14v1H13v1Z"/><path class="ba266-3" d="M13,12H12V11H11v2h2Z"/><rect class="ba266-2" x="19" y="16" width="1" height="1"/><rect class="ba266-2" x="9" y="13" width="1" height="1"/><rect class="ba266-2" x="9" y="16" width="1" height="1"/><rect class="ba266-2" x="14" y="16" width="1" height="1"/><path class="ba266-6" d="M17,13V12H16v1Z"/><path class="ba266-2" d="M18,25h1V24H18Z"/><rect class="ba266-2" x="17" y="25" width="1" height="1"/><rect class="ba266-7" x="17" y="24" width="1" height="1"/><rect class="ba266-8" x="17" y="23" width="1" height="1"/><rect class="ba266-2" x="17" y="22" width="1" height="1"/><rect class="ba266-2" x="16" y="26" width="1" height="1"/><rect class="ba266-8" x="16" y="25" width="1" height="1"/><rect class="ba266-7" x="15" y="26" width="1" height="1"/><path class="ba266-2" d="M14,27H13v1h3V27H14Z"/><path class="ba266-8" d="M14,27h1V26H14Z"/><rect class="ba266-7" x="13" y="26" width="1" height="1"/><path class="ba266-2" d="M13,25v1h3V25H13Z"/><rect class="ba266-2" x="12" y="26" width="1" height="1"/><rect class="ba266-8" x="12" y="25" width="1" height="1"/><rect class="ba266-2" x="11" y="25" width="1" height="1"/><rect class="ba266-7" x="11" y="24" width="1" height="1"/><rect class="ba266-8" x="11" y="23" width="1" height="1"/><rect class="ba266-2" x="11" y="22" width="1" height="1"/><path class="ba266-2" d="M11,24H10v1h1Z"/><path class="ba266-9" d="M12,22v1h5V22h2V20h1V17H19v1H18v1H17V18H15v1h1v2H15v1H14V21H13V19h1V18H12v1H11V18H10V17H9v3h1v2h2Z"/><path class="ba266-10" d="M18,23h1V22H18Z"/><path class="ba266-9" d="M18,24h1V23H18Z"/><path class="ba266-10" d="M17,24V23H16v1Z"/><path class="ba266-9" d="M16,25h1V24H16Z"/><path class="ba266-10" d="M13,24V23H12v1Z"/><path class="ba266-9" d="M12,24v1h1V24Z"/><path class="ba266-10" d="M11,22H10v1h1Z"/><path class="ba266-9" d="M11,23H10v1h1Z"/><path class="ba266-2" d="M13,19v1h3V19H13Z"/><path class="ba266-11" d="M9,13h2V11h1v1h1v1h1V12h3v1h2v1h1V13h2V12H20V11h1V9H20v1H18V9h1V8H18V7H17V8H16V7H14V8H13V7H12V8H11V9H10V8H8V9H9v2H8V10H7v2H8v2H9Zm6-3h1v1H15Z"/><path class="ba266-11" d="M22,15V14H21v1Z"/><rect class="ba266-11" x="7" y="14" width="1" height="1"/><path class="ba266-11" d="M20,16v1h1V15H20Z"/><path class="ba266-11" d="M9,15H8v2H9V15Z"/><rect class="ba266-11" x="19" y="7" width="1" height="1"/><path class="ba266-8" d="M19,15v1h1V15h1V14H19Z"/><path class="ba266-8" d="M16,14h3V13H16Z"/><path class="ba266-2" d="M16,14v2h3V14H16Z"/><path class="ba266-8" d="M18,16H16v1h3V16Z"/><path class="ba266-8" d="M14,14H13v2h1V15h1v1h1V14Z"/><path class="ba266-8" d="M13,14V13H10v1h3Z"/><path class="ba266-2" d="M13,16V14H10v2h3Z"/><path class="ba266-8" d="M13,17V16H10v1h3Z"/><path class="ba266-8" d="M9,16h1V14H8v1H9Z"/></svg>