<svg xmlns="http://www.w3.org/2000/svg" viewBox="0 0 29 33"><defs><style>polygon,rect,path{shape-rendering:crispedges;}.eb189-1{fill:#b4bd09;}.eb189-2{fill:#000000;}.eb189-3{fill:#9b8100;}.eb189-4{fill:#ffffff;}.eb189-5{fill:#a56e49;}.eb189-6{fill:#90a2a3;}.eb189-7{fill:#ffffff;}.eb189-8{fill:#7f5018;}.eb189-9{fill:#b23b00;}.eb189-10{fill:#c8a715;}.eb189-11{fill:#4922aa;}.eb189-12{fill:#fad000;}</style></defs><path class="eb189-1" d="M0,33H6V27H7V26H8V25H9V24h1V20H9V18H8V12H9V11h1V10h1V9h7v1h1v1h1v2h1v5H20v2H19v1h1v1h1v1h1v1h2v1h1v2H24V26H23v7h6V0H0Z"/><rect class="eb189-1" x="19" y="23" width="1" height="1"/><path class="eb189-2" d="M7,27H6v6H7V27Z"/><path class="eb189-3" d="M8,27H7v6H8V27Z"/><path class="eb189-2" d="M9,29h1V28h2V27H9V25H8v1H7v1H8v6H9V29Z"/><rect class="eb189-2" x="9" y="24" width="1" height="1"/><path class="eb189-3" d="M12,32V31H11V30H10V29H9v4h4V32Z"/><path class="eb189-3" d="M10,26v1h2v1H10v1h1v1h1v1h1V26H12V25H11V24H10v1H9v1Z"/><rect class="eb189-2" x="11" y="22" width="1" height="1"/><rect class="eb189-3" x="11" y="23" width="1" height="1"/><rect class="eb189-2" x="11" y="24" width="1" height="1"/><rect class="eb189-2" x="10" y="29" width="1" height="1"/><rect class="eb189-2" x="12" y="25" width="1" height="1"/><path class="eb189-4" d="M15,27H14v6h1V27Z"/><path class="eb189-5" d="M16,24V23H13v3h3V24Z"/><path class="eb189-2" d="M17,25H16v1h1Z"/><path class="eb189-3" d="M20,29H19v1H18v1H17v1H16v1h4V29Z"/><rect class="eb189-2" x="17" y="22" width="1" height="1"/><rect class="eb189-3" x="17" y="23" width="1" height="1"/><rect class="eb189-2" x="17" y="24" width="1" height="1"/><rect class="eb189-2" x="17" y="30" width="1" height="1"/><path class="eb189-3" d="M18,26H16v5h1V30h1V29h1V28H17V27h2V25H18Z"/><path class="eb189-2" d="M21,27H20V25H19v2H17v1h2v1h1v4h1V27Z"/><path class="eb189-3" d="M22,27H21v6h1V27Z"/><path class="eb189-2" d="M23,26V25H22v8h1V26Z"/><rect class="eb189-2" x="18" y="29" width="1" height="1"/><rect class="eb189-2" x="11" y="30" width="1" height="1"/><path class="eb189-2" d="M17,32V31H16V26H13v5H12v1h1v1h1V27h1v6h1V32Z"/><path class="eb189-6" d="M9,26v1h1V26Z"/><polygon class="eb189-5" points="13 21 14 21 14 22 15 22 15 21 16 21 16 20 13 20 13 21"/><rect class="eb189-5" x="19" y="15" width="1" height="1"/><rect class="eb189-5" x="11" y="13" width="1" height="1"/><rect class="eb189-5" x="9" y="15" width="1" height="1"/><rect class="eb189-5" x="16" y="12" width="1" height="1"/><path class="eb189-5" d="M18,15H17v2H16V15H15V11H14v1H13v2h1v2h1v1H14V16H13V15H11v4h1V18h2v1h1V18h2v1h1V15Z"/><rect class="eb189-5" x="17" y="13" width="1" height="1"/><rect class="eb189-5" x="11" y="11" width="1" height="1"/><rect class="eb189-2" x="19" y="16" width="1" height="1"/><rect class="eb189-2" x="9" y="14" width="1" height="1"/><rect class="eb189-2" x="9" y="16" width="1" height="1"/><rect class="eb189-2" x="14" y="16" width="1" height="1"/><path class="eb189-7" d="M13,15V14H12v1Z"/><rect class="eb189-7" x="16" y="14" width="1" height="1"/><path class="eb189-2" d="M12,14H11v1h1Z"/><rect class="eb189-2" x="17" y="14" width="1" height="1"/><rect class="eb189-8" x="11" y="12" width="1" height="1"/><rect class="eb189-8" x="16" y="13" width="1" height="1"/><rect class="eb189-8" x="17" y="12" width="1" height="1"/><path class="eb189-9" d="M12,22v1h5V22h1V21h1V18H18v1H17V18H15v1h1v2H15v1H14V21H13V19H11V18H10v4h2Z"/><path class="eb189-9" d="M14,18H13v1h1Z"/><rect class="eb189-9" x="19" y="17" width="1" height="1"/><rect class="eb189-9" x="9" y="17" width="1" height="1"/><rect class="eb189-10" x="18" y="22" width="1" height="1"/><rect class="eb189-9" x="18" y="23" width="1" height="1"/><path class="eb189-10" d="M17,24V23H16v1Z"/><path class="eb189-9" d="M16,24v1h1V24Z"/><path class="eb189-10" d="M13,24V23H12v1Z"/><path class="eb189-9" d="M13,24H12v1h1Z"/><path class="eb189-10" d="M11,22H10v1h1Z"/><path class="eb189-9" d="M11,23H10v1h1Z"/><path class="eb189-2" d="M13,19v1h3V19H13Z"/><path class="eb189-2" d="M12,18v1h1V18Z"/><path class="eb189-11" d="M9,16V14h1v4h1V11h1v3h1V12h1V11h1v4h1V12h2v6h1V15h1v3h1V13H20V11H19V10H18V9H11v1H10v1H9v1H8v6H9V16Z"/><path class="eb189-11" d="M9,18v2h1V18Z"/><path class="eb189-11" d="M13,16h1V14H13v2Z"/><path class="eb189-11" d="M17,17V15H16v2Z"/><path class="eb189-11" d="M19,19v1h1V18H19Z"/><path class="eb189-12" d="M23,25v1h1v1h1V25H24V24H22v1Z"/><path class="eb189-7" d="M18,22h1v1h1v2h2V23H21V22H20V21H18Z"/><path class="eb189-5" d="M20,27h2V25H20Z"/><path class="eb189-12" d="M19,24H18v1h2V24Z"/><path class="eb189-12" d="M17,26h1V25H17Z"/></svg>