<svg xmlns="http://www.w3.org/2000/svg" viewBox="0 0 29 33"><defs><style>polygon,rect,path{shape-rendering:crispedges;}.fb287-1{fill:#397d98;}.fb287-2{fill:#000000;}.fb287-3{fill:#333333;}.fb287-4{fill:#a7af69;}.fb287-5{fill:#ce8452;}.fb287-6{fill:#90a2a3;}.fb287-7{fill:#ffffff;}.fb287-8{fill:#8e703c;}.fb287-9{fill:#8e703c;}.fb287-10{fill:#99004d;}</style></defs><path class="fb287-1" d="M0,33H6V27H7V26H8V25H9V24h1V23h1V22h1V21H11V20H10V19H9V16H8V15H9V10h1V9h1V8h7V9h1v2h1v4h1v1H20v3H19v1H18v1H17v1h1v1h1v1h1v1h1v1h1v1h1v6h6V0H0Z"/><path class="fb287-2" d="M23,27H22v6h1V27Z"/><path class="fb287-3" d="M22,27H21v6h1V27Z"/><path class="fb287-2" d="M21,27h1V26H21V25H20v2H17v1h2v1h1v4h1V27Z"/><rect class="fb287-2" x="19" y="24" width="1" height="1"/><path class="fb287-3" d="M20,29H19v1H18v1H17v1H16v1h4V29Z"/><rect class="fb287-2" x="18" y="23" width="1" height="1"/><path class="fb287-3" d="M18,25H17v1H16v5h1V30h1V29h1V28H17V27h2V26h1V25H19V24H18Z"/><rect class="fb287-3" x="17" y="23" width="1" height="1"/><rect class="fb287-2" x="17" y="24" width="1" height="1"/><rect class="fb287-2" x="18" y="29" width="1" height="1"/><rect class="fb287-2" x="16" y="25" width="1" height="1"/><path class="fb287-4" d="M15,27H14v6h1V27Z"/><path class="fb287-2" d="M12,24h1V22H11v1h1Z"/><path class="fb287-5" d="M17,25V24H16V23H13v1H12v1h1v1h3V25Z"/><rect class="fb287-2" x="12" y="25" width="1" height="1"/><path class="fb287-3" d="M12,32V31H11V30H10V29H9v4h4V32Z"/><rect class="fb287-3" x="11" y="23" width="1" height="1"/><rect class="fb287-2" x="11" y="24" width="1" height="1"/><rect class="fb287-2" x="11" y="30" width="1" height="1"/><rect class="fb287-2" x="10" y="23" width="1" height="1"/><rect class="fb287-2" x="9" y="24" width="1" height="1"/><path class="fb287-3" d="M10,26v1h2v1H10v1h1v1h1v1h1V26H12V25H11V24H10v1H9v1Z"/><path class="fb287-2" d="M9,29h1V28h2V27H9V25H8v1H7v1H8v6H9V29Z"/><path class="fb287-3" d="M8,27H7v6H8V27Z"/><path class="fb287-2" d="M7,27H6v6H7V27Z"/><rect class="fb287-2" x="10" y="29" width="1" height="1"/><rect class="fb287-2" x="17" y="30" width="1" height="1"/><path class="fb287-2" d="M17,32V31H16V26H13v5H12v1h1v1h1V27h1v6h1V32Z"/><path class="fb287-6" d="M9,26v1h1V26Z"/><path class="fb287-6" d="M19,27h1V26H19Z"/><rect class="fb287-2" x="20" y="15" width="1" height="1"/><rect class="fb287-5" x="15" y="20" width="1" height="1"/><path class="fb287-5" d="M10,17v1h1v1h1V18h2v1h1V18h2v1h1V18h1V16h1V15H16V13h1V12h2V11H18V10H16v1H15v1H14v1H11v1h2v1H9v1h1Zm4-1h1v1H14Z"/><rect class="fb287-5" x="13" y="20" width="1" height="1"/><polygon class="fb287-5" points="18 14 19 14 19 13 17 13 17 14 18 14"/><path class="fb287-2" d="M19,17h1V16H19Z"/><path class="fb287-2" d="M16,23v1h1V23h1V22H16Z"/><path class="fb287-2" d="M10,16H9v1h1Z"/><rect class="fb287-2" x="8" y="15" width="1" height="1"/><rect class="fb287-2" x="14" y="16" width="1" height="1"/><path class="fb287-7" d="M13,15V14H12v1Z"/><path class="fb287-7" d="M10,15h1V14H10Z"/><path class="fb287-7" d="M18,14v1h1V14Z"/><path class="fb287-7" d="M16,14v1h1V14Z"/><path class="fb287-2" d="M12,15V14H11v1Z"/><path class="fb287-2" d="M17,14v1h1V14Z"/><path class="fb287-8" d="M17,13H16v1h1Z"/><rect class="fb287-8" x="17" y="12" width="2" height="1"/><path class="fb287-9" d="M14,18H13v1h1Z"/><path class="fb287-9" d="M13,23h3V22h1V21h1V20h1V19h1V17H19v1H18v1H17V18H15v1h1v2H15V20H14v1H13V19H11V18H10V17H9v2h1v1h1v1h1v1h1Z"/><path class="fb287-2" d="M13,19v1h3V19H13Z"/><path class="fb287-2" d="M12,18v1h1V18Z"/><path class="fb287-10" d="M10,14h1V13h3V12h1V11h1V10h2v1h1V9H18V8H11V9H10v1H9v5h1Z"/><path class="fb287-10" d="M19,13v2h1V11H19v2Z"/></svg>