<svg xmlns="http://www.w3.org/2000/svg" viewBox="0 0 29 33"><defs><style>polygon,rect,path{shape-rendering:crispedges;}.ja292-1{fill:#29834f;}.ja292-2{fill:#000000;}.ja292-3{fill:#f9e100;}.ja292-4{fill:#ffffff;}.ja292-5{fill:#e8b795;}.ja292-6{fill:#8e4717;}.ja292-7{fill:#8e4717;}.ja292-8{fill:#db5800;}.ja292-9{fill:#68aaad;}</style></defs><path class="ja292-1" d="M0,33H6V27H7V26H8V25h2V24h2V21H9V20H8V19H9V16H8V15H9V10h1V9h1V8h7V9h1v1h1v5h1v1H20v3h1v1H20v1H17v3h2v1h1V24h1V23h1v1h1v9h6V0H0Z"/><path class="ja292-2" d="M7,30V27H6v6H7V30Z"/><rect class="ja292-2" x="7" y="26" width="1" height="1"/><path class="ja292-3" d="M7,30H8V27H7v3Z"/><path class="ja292-3" d="M7,31v2H8V31Z"/><path class="ja292-2" d="M9,31V27H8v6H9V31Z"/><path class="ja292-2" d="M10,26V25H8v1h2Z"/><path class="ja292-3" d="M20,32V27H19V25H17V24H16V23H13v1H12v1H10v1H9v6h1v1h4V32h1v1h4V32Zm-9-3H10V28h1Zm2,2H12V30h1Zm0-4H12V26h1Zm2,2H14V28h1Zm0-4H14V24h1Zm2,6H16V30h1Zm0-4H16V26h1Zm1,2V28h1v1Z"/><path class="ja292-2" d="M12,24H10v1h2Z"/><path class="ja292-2" d="M13,23h3v1h1V21H16v1H13V21H12v3h1Z"/><path class="ja292-2" d="M18,25h1V24H17v1Z"/><path class="ja292-2" d="M21,31V27H20v6h1V31Z"/><path class="ja292-3" d="M21,29v2h1V28H21Z"/><path class="ja292-3" d="M21,32v1h1V32Z"/><path class="ja292-2" d="M23,24H22v9h1V24Z"/><rect class="ja292-4" x="10" y="28" width="1" height="1"/><rect class="ja292-4" x="12" y="30" width="1" height="1"/><rect class="ja292-4" x="14" y="28" width="1" height="1"/><rect class="ja292-4" x="14" y="32" width="1" height="1"/><rect class="ja292-4" x="12" y="26" width="1" height="1"/><rect class="ja292-4" x="16" y="30" width="1" height="1"/><rect class="ja292-4" x="18" y="28" width="1" height="1"/><path class="ja292-4" d="M21,28h1V27H21Z"/><rect class="ja292-4" x="16" y="26" width="1" height="1"/><rect class="ja292-4" x="14" y="24" width="1" height="1"/><path class="ja292-4" d="M9,27V26H8v1Z"/><path class="ja292-4" d="M19,32v1h1V32Z"/><path class="ja292-4" d="M9,32v1h1V32Z"/><path class="ja292-4" d="M7,31H8V30H7Z"/><path class="ja292-4" d="M21,32h1V31H21Z"/><rect class="ja292-2" x="20" y="15" width="1" height="1"/><rect class="ja292-5" x="19" y="15" width="1" height="1"/><path class="ja292-5" d="M12,13h2v1h1V12H14V11H13V10H11v1H10v1h2Z"/><rect class="ja292-5" x="9" y="15" width="1" height="1"/><path class="ja292-5" d="M13,22h3V21h1V19H16v1H13V19h3V18h1v1h1V18h1V16H17v1H16V15H13v1H10v2h1v1h1v2h1Zm1-6h1v1H14Z"/><path class="ja292-2" d="M17,20v1h1V20Z"/><path class="ja292-2" d="M11,20v1h1V20Z"/><rect class="ja292-2" x="8" y="15" width="1" height="1"/><rect class="ja292-2" x="14" y="16" width="1" height="1"/><path class="ja292-6" d="M12,12H10v1h2Z"/><path class="ja292-7" d="M19,17v1H18v1H17v1h1v1h2V20h1V19H20V16H19Z"/><path class="ja292-7" d="M12,20V19H11V18H10V16H9v3H8v1H9v1h2V20Z"/><rect class="ja292-2" x="13" y="19" width="3" height="1"/><rect class="ja292-2" x="16" y="18" width="1" height="1"/><path class="ja292-5" d="M21,27h1V24H21v1H20v2Z"/><path class="ja292-2" d="M20,27V25H19v2Z"/><rect class="ja292-2" x="20" y="24" width="1" height="1"/><rect class="ja292-2" x="21" y="23" width="1" height="1"/><path class="ja292-8" d="M16,17h1V16H16Z"/><path class="ja292-8" d="M10,13V11h1V10h2v1h1v1h1v1h4v1h1V10H19V9H18V8H11V9H10v1H9v4h1Z"/><path class="ja292-9" d="M13,14H10v2h3V15h1V14Z"/><path class="ja292-9" d="M19,14H15v1h1v1h3V14Z"/><path class="ja292-2" d="M16,14h3V13H15v1Z"/><path class="ja292-2" d="M13,14h1V13H10v1h3Z"/><path class="ja292-2" d="M19,15h1V14H19Z"/><path class="ja292-2" d="M10,14H9v1h1Z"/><path class="ja292-2" d="M14,14v1h1V14Z"/></svg>