<svg xmlns="http://www.w3.org/2000/svg" viewBox="0 0 29 33"><defs><style>polygon,rect,path{shape-rendering:crispedges;}.qa215-1{fill:#29834f;}.qa215-2{fill:#000000;}.qa215-3{fill:#ff791f;}.qa215-4{fill:#ce8452;}.qa215-5{fill:#ff791f;}.qa215-6{fill:#663228;}.qa215-7{fill:#663228;}.qa215-8{fill:#5a2de2;}.qa215-9{fill:#ffffff;}.qa215-10{fill:#ccc;}</style></defs><path class="qa215-1" d="M0,33H6V27H7V26H8V25h2V24h1V23H10V22h1V21H9V20H8V19H9V18H7V14H8V11H9V10h1V9h1V8h7V9h1v1h1v1h1v3h1v4H20v1h1v1H20v1H18v1h1v1H18v1h1v1h2v1h1v1h1v6h6V0H0Z"/><path class="qa215-2" d="M23,27H22v6h1V27Z"/><path class="qa215-3" d="M22,27H21v6h1V27Z"/><rect class="qa215-2" x="21" y="26" width="1" height="1"/><path class="qa215-2" d="M21,27H20v6h1V27Z"/><path class="qa215-3" d="M9,27v2h1V28h1v1h1V25h1V24H11v1H10v1H8v1Z"/><path class="qa215-3" d="M16,25h1v4h1V28h1v1h1V27h1V26H19V25H18V24H16Z"/><rect class="qa215-3" x="18" y="29" width="1" height="1"/><path class="qa215-3" d="M19,32V31H18v1H17V30H16v1H15v1H13V30H12v2H11V31H10v1H9v1H20V32Z"/><rect class="qa215-3" x="10" y="29" width="1" height="1"/><path class="qa215-2" d="M20,26h1V25H19v1Z"/><rect class="qa215-2" x="18" y="24" width="1" height="1"/><rect class="qa215-2" x="18" y="22" width="1" height="1"/><rect class="qa215-3" x="17" y="22" width="1" height="1"/><path class="qa215-2" d="M16,25V24H13v1h3Z"/><path class="qa215-4" d="M16,24V23H13v1h3Z"/><path class="qa215-2" d="M13,23h3v1h2V23H17V22h1V20H17v1H16v1H13V21H12V20H11v2h1v1H11v1h2Z"/><rect class="qa215-3" x="11" y="22" width="1" height="1"/><rect class="qa215-2" x="10" y="24" width="1" height="1"/><rect class="qa215-2" x="10" y="22" width="1" height="1"/><path class="qa215-2" d="M10,25H8v1h2Z"/><path class="qa215-2" d="M9,31V27H8v6H9V31Z"/><path class="qa215-3" d="M8,27H7v6H8V27Z"/><rect class="qa215-2" x="7" y="26" width="1" height="1"/><path class="qa215-2" d="M7,27H6v6H7V27Z"/><path class="qa215-3" d="M13,28h2v1h1V25H13v3Z"/><path class="qa215-3" d="M14,29v2h1V29Z"/><path class="qa215-5" d="M19,30H18V29H17v3h1V31h1v1h1V29H19Z"/><rect class="qa215-5" x="18" y="28" width="1" height="1"/><path class="qa215-5" d="M15,29v2h1V29Z"/><path class="qa215-5" d="M14,30V29h1V28H13v4h2V31H14Z"/><path class="qa215-5" d="M11,29v1H10V29H9v3h1V31h1v1h1V29Z"/><rect class="qa215-5" x="10" y="28" width="1" height="1"/><path class="qa215-2" d="M13,27V25H12v5h1V27Z"/><path class="qa215-2" d="M17,28V25H16v5h1V28Z"/><path class="qa215-4" d="M12,13H10v1h2Z"/><path class="qa215-4" d="M16,19v1H13V19h3V18h1v1h1V18h1V16H18v1H16V16H15v1H14V16H13v1H11V16H10v2h1v1h1v2h1v1h3V21h1V19Z"/><rect class="qa215-4" x="14" y="15" width="1" height="1"/><path class="qa215-4" d="M13,13v1h5V13H16V12h2v1h1V11H18V10H14v1H12v2Z"/><rect class="qa215-2" x="14" y="16" width="1" height="1"/><rect class="qa215-6" x="18" y="13" width="1" height="1"/><rect class="qa215-6" x="16" y="12" width="2" height="1"/><rect class="qa215-6" x="12" y="13" width="1" height="1"/><path class="qa215-6" d="M12,12H11v1h1Z"/><path class="qa215-7" d="M19,17v1H18v1H17v1h1v1h2V20h1V19H20V17Z"/><path class="qa215-7" d="M12,20V19H11V18H10V17H9v2H8v1H9v1h2V20Z"/><rect class="qa215-2" x="13" y="19" width="3" height="1"/><rect class="qa215-2" x="16" y="18" width="1" height="1"/><path class="qa215-8" d="M19,12v2h1V11H19Z"/><rect class="qa215-8" x="18" y="10" width="1" height="1"/><path class="qa215-8" d="M9,14h1V13h1V12h1V11h2V10h4V9H11v1H10v1H9v3Z"/><path class="qa215-2" d="M10,16h1v1h2V16h1V15h1v1h1v1h2V16h1V14H10v2Z"/><path class="qa215-9" d="M9,16V11H8v3H7v3H8v1H9V16Z"/><rect class="qa215-9" x="9" y="10" width="1" height="1"/><rect class="qa215-9" x="10" y="9" width="1" height="1"/><path class="qa215-9" d="M18,9V8H11V9h7Z"/><rect class="qa215-9" x="18" y="9" width="1" height="1"/><rect class="qa215-9" x="19" y="10" width="1" height="1"/><path class="qa215-10" d="M10,15V14H9v3h1V15Z"/><path class="qa215-9" d="M20,14v4h1V17h1V14H21V11H20v3Z"/><path class="qa215-10" d="M19,17h1V14H19v3Z"/><path class="qa215-10" d="M7,17v1H8V17Z"/><path class="qa215-10" d="M21,18h1V17H21Z"/></svg>