<svg xmlns="http://www.w3.org/2000/svg" viewBox="0 0 29 33"><defs><style>polygon,rect,path{shape-rendering:crispedges;}.wa3-1{fill:#29834f;}.wa3-2{fill:#00686d;}.wa3-3{fill:#000000;}.wa3-4{fill:#c18d59;}.wa3-5{fill:#34e0cb;}.wa3-6{fill:#492a23;}.wa3-7{fill:#ff1d99;}.wa3-8{fill:#ff1d99;}.wa3-9{fill:#cbed03;}.wa3-10{fill:#00e070;}</style></defs><path class="wa3-1" d="M6,32V27H7V26H8V25h2V22h1V20H10V19H9V16H8V14H9V10h1V9h1V8h7V9h1v1h1v4h1v2H20v3H19v1H18v2h1v3h2v1h1v1h1v6h6V0H0V33H6Z"/><rect class="wa3-2" x="17" y="22" width="1" height="1"/><path class="wa3-2" d="M18,24H16v1h1v1h1v2h1v1h1V27H19V25H18Z"/><path class="wa3-2" d="M15,30V28H14v3h2V30Z"/><path class="wa3-2" d="M18,30V28H17V27H16V25H15v3h1v1h1v2h2V30Z"/><rect class="wa3-2" x="21" y="27" width="1" height="1"/><path class="wa3-2" d="M21,31v1h1V30H21Z"/><rect class="wa3-2" x="10" y="32" width="1" height="1"/><rect class="wa3-2" x="19" y="32" width="1" height="1"/><rect class="wa3-2" x="16" y="32" width="1" height="1"/><rect class="wa3-2" x="13" y="32" width="1" height="1"/><path class="wa3-2" d="M8,29V27H7v2Z"/><path class="wa3-2" d="M7,31v2H8V31Z"/><path class="wa3-2" d="M12,25V24H11v2h1v2h1V25Z"/><path class="wa3-2" d="M12,29V28H11V27H10V26H9v2h1v1h1v2h2V30H12Z"/><rect class="wa3-2" x="9" y="30" width="1" height="1"/><rect class="wa3-2" x="11" y="22" width="1" height="1"/><path class="wa3-3" d="M23,27H22v6h1V27Z"/><rect class="wa3-3" x="21" y="26" width="1" height="1"/><path class="wa3-3" d="M21,31V27H20v4H14V27H13v4H9V27H8v6H9V32H20v1h1V31Z"/><path class="wa3-3" d="M20,26h1V25H19v1Z"/><path class="wa3-3" d="M18,24v1h1V22H18v2Z"/><path class="wa3-3" d="M17,22h1V21H17Z"/><path class="wa3-3" d="M17,24V22H16v2Z"/><rect class="wa3-3" x="15" y="24" width="1" height="1"/><path class="wa3-3" d="M15,26V25H14v2h1Z"/><rect class="wa3-3" x="13" y="24" width="1" height="1"/><path class="wa3-4" d="M14,24v1h1V24h1V23H13v1Z"/><path class="wa3-3" d="M13,24V22H12v2Z"/><path class="wa3-3" d="M12,21H11v1h1Z"/><path class="wa3-3" d="M11,24V22H10v3h1Z"/><path class="wa3-3" d="M10,26V25H8v1h2Z"/><rect class="wa3-3" x="7" y="26" width="1" height="1"/><path class="wa3-3" d="M7,30V27H6v6H7V30Z"/><path class="wa3-3" d="M20,16h1V15H20Z"/><path class="wa3-4" d="M16,17V16H15v1H14V16H13v1H10v1h1v1h1V18h1v1h3v1h1V19h1V18h1V17H16Z"/><rect class="wa3-4" x="12" y="19" width="1" height="1"/><path class="wa3-4" d="M13,21h3V20H13Z"/><rect class="wa3-4" x="14" y="15" width="1" height="1"/><rect class="wa3-4" x="10" y="12" width="1" height="1"/><path class="wa3-4" d="M13,13v1h3V13h1V12h1V11H17V10H12v1H11v1h2Z"/><path class="wa3-3" d="M8,15v1H9V15Z"/><rect class="wa3-3" x="14" y="16" width="1" height="1"/><path class="wa3-5" d="M21,29v1h1V28H21Z"/><path class="wa3-5" d="M21,32v1h1V32Z"/><path class="wa3-5" d="M19,26v1h2V26H19Z"/><path class="wa3-5" d="M19,28H18v2h1v1h1V29H19Z"/><path class="wa3-5" d="M17,27v1h1V26H17V25H16v2Z"/><path class="wa3-5" d="M18,32H17v1h2V32Z"/><path class="wa3-5" d="M16,29V28H15v2h1v1h1V29Z"/><path class="wa3-5" d="M15,27H14v1h1Z"/><path class="wa3-5" d="M13,25v2h1V25Z"/><path class="wa3-5" d="M15,32H14v1h2V32Z"/><path class="wa3-5" d="M12,29v1h1V28H12Z"/><rect class="wa3-5" x="12" y="24" width="1" height="1"/><path class="wa3-5" d="M12,23H11v1h1Z"/><path class="wa3-5" d="M18,24V23H17v1Z"/><path class="wa3-5" d="M10,27h1v1h1V26H11V25H10v2Z"/><path class="wa3-5" d="M12,32H11v1h2V32Z"/><path class="wa3-5" d="M10,29V28H9v2h1v1h1V29Z"/><path class="wa3-5" d="M9,32v1h1V32Z"/><path class="wa3-5" d="M9,27V26H8v1Z"/><path class="wa3-5" d="M7,30v1H8V29H7Z"/><polygon class="wa3-6" points="12 13 13 13 13 12 11 12 11 13 12 13"/><path class="wa3-6" d="M17,13h2V12H17Z"/><path class="wa3-7" d="M12,22h1v1h3V22h1V21h1V20h1V19h1V16H19v2H18v1H17v1H16v1H13V20H12V19H11V18H10V16H9v3h1v1h1v1h1Z"/><rect class="wa3-3" x="13" y="19" width="3" height="1"/><rect class="wa3-3" x="12" y="18" width="1" height="1"/><path class="wa3-8" d="M10,13V12h1V11h1V10h5v1h1v1h1v2h1V10H19V9H18V8H11V9H10v1H9v4h1Z"/><path class="wa3-9" d="M19,15v1h1V15h1V14H19Z"/><path class="wa3-9" d="M16,13v1h3V13H16Z"/><path class="wa3-10" d="M19,14H16v2h3V14Z"/><path class="wa3-9" d="M16,16v1h3V16H16Z"/><path class="wa3-9" d="M13,14v2h1V15h1v1h1V14H13Z"/><path class="wa3-9" d="M13,14V13H10v1h3Z"/><path class="wa3-10" d="M13,16V14H10v2h3Z"/><path class="wa3-9" d="M13,17V16H10v1h3Z"/><path class="wa3-9" d="M10,15V14H8v1H9v1h1Z"/></svg>