<svg xmlns="http://www.w3.org/2000/svg" viewBox="0 0 29 33"><defs><style>polygon,rect,path{shape-rendering:crispedges;}.ia110-1{fill:#d14646;}.ia110-2{fill:#000000;}.ia110-3{fill:#333333;}.ia110-4{fill:#e8b795;}.ia110-5{fill:#ffffff;}.ia110-6{fill:#ffffff;}.ia110-7{fill:#326b43;}.ia110-8{fill:#ff1d99;}</style></defs><path class="ia110-1" d="M6,32V27H7V26H8V25h2V24h2V21H11V20H9V19H8V11H9V10h1V9h1V8h7V9h1v1h1v1h1v8H20v1H18v1H17v3h2v1h2v1h1v1h1v6h6V0H0V33H6Z"/><path class="ia110-2" d="M23,27H22v6h1V27Z"/><rect class="ia110-2" x="21" y="26" width="1" height="1"/><path class="ia110-3" d="M22,27H21v6h1V27Z"/><path class="ia110-2" d="M21,27H20v6h1V27Z"/><path class="ia110-2" d="M20,26h1V25H19v1Z"/><rect class="ia110-3" x="18" y="29" width="1" height="1"/><path class="ia110-3" d="M15,29H14v2h1V29Z"/><rect class="ia110-3" x="10" y="29" width="1" height="1"/><path class="ia110-3" d="M19,32V31H18v1H17V29h1V28h1v1h1V27h1V26H19V25H17v1H16v1H13V26H12V25H10v1H9v3h1V28h1v1h1v3H11V31H10v1H9v1H20V32Zm-3-2v1H15v1H13V28h2v1h1Z"/><path class="ia110-2" d="M18,25h1V24H17v1Z"/><rect class="ia110-2" x="16" y="25" width="1" height="1"/><path class="ia110-2" d="M13,26v1h3V26H13Z"/><path class="ia110-2" d="M13,23h3v1h1V21H16v1H13V21H12v3h1Z"/><path class="ia110-4" d="M13,25v1h3V25h1V24H16V23H13v1H12v1Z"/><rect class="ia110-2" x="12" y="25" width="1" height="1"/><path class="ia110-2" d="M12,24H10v1h2Z"/><path class="ia110-2" d="M9,31V26h1V25H8v1H7v1H8v6H9V31Z"/><path class="ia110-3" d="M8,27H7v6H8V27Z"/><path class="ia110-2" d="M7,27H6v6H7V27Z"/><path class="ia110-5" d="M19,30H18V29H17v3h1V31h1v1h1V29H19Z"/><rect class="ia110-5" x="18" y="28" width="1" height="1"/><path class="ia110-5" d="M15,30v1h1V29H15Z"/><path class="ia110-5" d="M14,30V29h1V28H13v4h2V31H14Z"/><path class="ia110-5" d="M9,32h1V31h1v1h1V29H11v1H10V29H9v3Z"/><rect class="ia110-5" x="10" y="28" width="1" height="1"/><path class="ia110-4" d="M13,22h3V21h1V20h1V19h1V16h1V15H16V13h1V11H15V10H14v1H13v2H11v1h2v1H9v1h1v3h1v1h1v1h1Zm1-6h1v1H14Zm-2,3V18h5v1H16v1H13V19Z"/><path class="ia110-2" d="M20,16H19v3h1V16Z"/><path class="ia110-2" d="M18,19v1h1V19Z"/><rect class="ia110-2" x="17" y="20" width="1" height="1"/><rect class="ia110-2" x="11" y="20" width="1" height="1"/><path class="ia110-2" d="M10,19v1h1V19Z"/><path class="ia110-2" d="M10,18V16H9v3h1Z"/><rect class="ia110-2" x="14" y="16" width="1" height="1"/><path class="ia110-6" d="M10,15h1V14H10Z"/><path class="ia110-6" d="M16,14v1h1V14Z"/><path class="ia110-2" d="M12,15h1V14H11v1Z"/><path class="ia110-2" d="M18,14H17v1h2V14Z"/><path class="ia110-7" d="M12,13h1V12H12Z"/><path class="ia110-7" d="M18,14h1V13H16v1h2Z"/><path class="ia110-2" d="M13,18H12v1h1Z"/><path class="ia110-2" d="M17,19V18H16v1Z"/><path class="ia110-2" d="M13,19v1h3V19H15V18H14v1Z"/><path class="ia110-6" d="M14,19V18H13v1Z"/><path class="ia110-6" d="M16,19V18H15v1Z"/><path class="ia110-8" d="M9,16V15h1V14h1V13h1V12h1V11h1V10h1v1h2v2h2v2h1v4h1V11H20V10H19V9H18V8H11V9H10v1H9v1H8v8H9V16Z"/><path class="ia110-8" d="M9,19v1h1V19Z"/><path class="ia110-8" d="M19,20h1V19H19Z"/></svg>