<svg xmlns="http://www.w3.org/2000/svg" viewBox="0 0 29 33"><defs><style>polygon,rect,path{shape-rendering:crispedges;}.za93-1{fill:#6b4f99;}.za93-2{fill:#000000;}.za93-3{fill:#d8be00;}.za93-4{fill:#e8b795;}.za93-5{fill:#00af68;}.za93-6{fill:#ffffff;}.za93-7{fill:#326b43;}.za93-8{fill:#326b43;}.za93-9{fill:#cc3232;}</style></defs><path class="za93-1" d="M6,32V27H7V26H8V25h2V24h1V23h1V22H11V21H10V20H9V16H8V15H9V10h1V9h1V8h7V9h1v1h1v5h1v1H20v4H19v1H18v1H17v1h1v1h1v1h2v1h1v1h1v6h6V0H0V33H6Z"/><path class="za93-2" d="M23,27H22v6h1V27Z"/><path class="za93-3" d="M21,31v2h1V31Z"/><path class="za93-3" d="M21,28v2h1V27H21Z"/><rect class="za93-2" x="21" y="26" width="1" height="1"/><path class="za93-2" d="M21,30V27H20v6h1V30Z"/><path class="za93-3" d="M20,32V26H19V25H18v1H17v1H16V25H15v2H14V25H13v2H12V26H11V25H10v1H9v6h1v1h4V32h1v1h4V32Zm-9-3H10V28h1Zm2,2H12V30h1Zm2,0H14V30h1Zm0-2H14V28h1Zm2,2H16V30h1Zm1-2V28h1v1Z"/><path class="za93-2" d="M20,26h1V25H19v1Z"/><rect class="za93-3" x="16" y="24" width="1" height="1"/><path class="za93-2" d="M16,24h1v1H16v1h2V25h1V24H18V23H16Z"/><rect class="za93-2" x="15" y="24" width="1" height="1"/><rect class="za93-2" x="14" y="32" width="1" height="1"/><rect class="za93-2" x="14" y="30" width="1" height="1"/><rect class="za93-2" x="14" y="28" width="1" height="1"/><path class="za93-2" d="M14,26v1h1V25H14Z"/><rect class="za93-2" x="13" y="24" width="1" height="1"/><path class="za93-4" d="M16,24V23H13v1h1v1h1V24Z"/><rect class="za93-3" x="12" y="24" width="1" height="1"/><path class="za93-2" d="M11,26h2V25H12V24h1V23H11v1H10v1h1Z"/><path class="za93-2" d="M10,26V25H8v1h2Z"/><path class="za93-2" d="M9,31V27H8v6H9V31Z"/><path class="za93-3" d="M7,31v2H8V31Z"/><path class="za93-3" d="M7,30H8V27H7v3Z"/><rect class="za93-2" x="7" y="26" width="1" height="1"/><path class="za93-2" d="M7,30V27H6v6H7V30Z"/><rect class="za93-5" x="10" y="28" width="1" height="1"/><rect class="za93-5" x="12" y="30" width="1" height="1"/><path class="za93-5" d="M12,27h1V26H12Z"/><rect class="za93-5" x="16" y="30" width="1" height="1"/><rect class="za93-5" x="18" y="28" width="1" height="1"/><path class="za93-5" d="M16,27h1V26H16Z"/><path class="za93-5" d="M9,27V26H8v1Z"/><path class="za93-5" d="M19,32v1h1V32Z"/><path class="za93-5" d="M9,32v1h1V32Z"/><path class="za93-5" d="M7,31H8V30H7Z"/><path class="za93-5" d="M21,31h1V30H21Z"/><path class="za93-5" d="M20,27h1V26H20Z"/><rect class="za93-2" x="20" y="15" width="1" height="1"/><path class="za93-2" d="M19,15h1V14H19Z"/><rect class="za93-4" x="18" y="12" width="1" height="1"/><path class="za93-4" d="M12,14V13H10v1h2Z"/><path class="za93-4" d="M17,16H16V14h2V13H16V12h2V11H17V10H12v1H11v1h1v1h1v3H10v1h1v1h1v1h1V18h5V17h1V16H17Zm-2,1H14V16h1Z"/><rect class="za93-4" x="9" y="15" width="1" height="1"/><rect class="za93-4" x="19" y="15" width="1" height="1"/><path class="za93-2" d="M10,14H9v1h1Z"/><rect class="za93-2" x="8" y="15" width="1" height="1"/><rect class="za93-2" x="14" y="16" width="1" height="1"/><path class="za93-6" d="M11,15V14H10v2h1Z"/><path class="za93-6" d="M12,15v1h1V14H12Z"/><path class="za93-6" d="M17,14H16v2h1V14Z"/><path class="za93-6" d="M19,14H18v2h1V14Z"/><path class="za93-2" d="M12,14H11v2h1V14Z"/><path class="za93-2" d="M17,15v1h1V14H17Z"/><rect class="za93-7" x="18" y="13" width="1" height="1"/><rect class="za93-7" x="16" y="12" width="2" height="1"/><path class="za93-7" d="M13,14V13H12v1Z"/><path class="za93-7" d="M12,12H10v1h2Z"/><path class="za93-8" d="M15,18H13v1h3V18Z"/><path class="za93-8" d="M14,23h3V22h1V21h1V20h1V16H19v1H18v1H17v1H16v1H13V19H12V18H11V17H10V16H9v4h1v1h1v1h1v1h2Z"/><rect class="za93-2" x="13" y="19" width="3" height="1"/><path class="za93-2" d="M16,19h1V18H16Z"/><path class="za93-9" d="M10,13V12h1V11h1V10h5v1h1v1h1v2h1V10H19V9H18V8H11V9H10v1H9v4h1Z"/></svg>