<svg xmlns="http://www.w3.org/2000/svg" viewBox="0 0 29 33"><defs><style>polygon,rect,path{shape-rendering:crispedges;}.sa172-1{fill:#d4a122;}.sa172-2{fill:#000000;}.sa172-3{fill:#4922aa;}.sa172-4{fill:#e8b795;}.sa172-5{fill:#4922aa;}.sa172-6{fill:#ffffff;}.sa172-7{fill:#00e070;}.sa172-8{fill:#99582c;}.sa172-9{fill:#b18518;}.sa172-10{fill:#900;}.sa172-11{fill:#ea1500;}.sa172-12{fill:#a0a0a0;}.sa172-13{fill:#ccc;}</style></defs><path class="sa172-1" d="M6,32V27H7V26H8V25h2V24h1V23H10V22H9V21H8V20H7V13H4V12H6V11H8V10h2V9h1V8h1V7h1V6h1V5h1V6h1V7h1V8h1V9h1v1h2v1h2v1h2v1H22v3h1v1h1v1h1v5H24v8H23v1H21v1h8V0H0V33H6Z"/><path class="sa172-1" d="M20,23V22H19v1H18v1h1v1h2V23Z"/><path class="sa172-2" d="M23,26v5h1V25H23Z"/><path class="sa172-2" d="M7,27H6v6H7V27Z"/><path class="sa172-3" d="M8,27H7v6H8V27Z"/><rect class="sa172-2" x="7" y="26" width="1" height="1"/><path class="sa172-2" d="M9,27H8v6H9V27Z"/><path class="sa172-3" d="M20,27h1V26H19V25H18V24H16v1h1v3h2v1H17v2h1V30h1v2H16V25H13v3h2v4H12V25h1V24H11v1H10v1H8v1H9v6H20V27Zm-9,2v3H10V28h1Z"/><path class="sa172-2" d="M10,25H8v1h2Z"/><rect class="sa172-2" x="10" y="24" width="1" height="1"/><path class="sa172-2" d="M13,23H11v1h2Z"/><path class="sa172-2" d="M13,24v1h3V24H13Z"/><path class="sa172-4" d="M15,23H13v1h3V23Z"/><path class="sa172-2" d="M17,23H16v1h2V23Z"/><rect class="sa172-2" x="18" y="24" width="1" height="1"/><path class="sa172-2" d="M22,32h1V31H22V25H19v1h2v1H20v6h1V32Z"/><path class="sa172-3" d="M23,26V25H22v6h1V26Z"/><path class="sa172-3" d="M14,31V29H13v2Z"/><path class="sa172-5" d="M14,29v2H13V30H12v2h3V28H13v1Z"/><path class="sa172-5" d="M10,29v3h1V28H10Z"/><path class="sa172-5" d="M18,29h1V28H17v1Z"/><path class="sa172-5" d="M16,31v1h3V30H18v1H17V30H16Z"/><path class="sa172-2" d="M12,26v4h1V25H12Z"/><path class="sa172-2" d="M16,30h1V25H16v5Z"/><path class="sa172-4" d="M16,22V21h1V20h1V18h1V15H16V14H13v3H12V16H11V15H10v3h1v2h1v1h1v1h3Zm-2-6h1v1H14Zm-2,3V18h1v1h3v1H13V19Z"/><rect class="sa172-2" x="14" y="16" width="1" height="1"/><path class="sa172-6" d="M19,15V14H18v1Z"/><path class="sa172-6" d="M17,15V14H16v1Z"/><path class="sa172-2" d="M18,15V14H17v1Z"/><path class="sa172-7" d="M11,15v1h1v1h1V14H10v1Z"/><path class="sa172-3" d="M9,19V14H8v6H9Z"/><polygon class="sa172-3" points="18 21 17 21 17 22 16 22 16 23 17 23 18 23 18 22 19 22 19 21 18 21"/><rect class="sa172-3" x="9" y="20" width="1" height="1"/><path class="sa172-3" d="M20,20H19v1h1V20Z"/><path class="sa172-3" d="M20,17v1h1V14H20v3Z"/><path class="sa172-3" d="M13,22H12V21H10v1h1v1h2Z"/><path class="sa172-2" d="M8,14V13H7v7H8V14Z"/><rect class="sa172-2" x="8" y="20" width="1" height="1"/><rect class="sa172-2" x="9" y="21" width="1" height="1"/><rect class="sa172-2" x="10" y="22" width="1" height="1"/><rect class="sa172-2" x="18" y="22" width="1" height="1"/><rect class="sa172-2" x="19" y="21" width="1" height="1"/><path class="sa172-2" d="M21,14v3h1V13H21Z"/><path class="sa172-2" d="M10,16V14H9v3h1Z"/><rect class="sa172-2" x="12" y="21" width="1" height="1"/><path class="sa172-2" d="M16,23V22H13v1h3Z"/><rect class="sa172-2" x="16" y="21" width="1" height="1"/><path class="sa172-2" d="M19,16v1h1V14H19v2Z"/><path class="sa172-8" d="M19,21V20h1V17H19v1H18v2H17v1h2Z"/><path class="sa172-8" d="M11,20V18H10V17H9v3h1v1h2V20Z"/><path class="sa172-9" d="M8,14H21V13h4V12H23V11H21V10H19V9H18V8H17V7H16V6H15V5H14V6H13V7H12V8H11V9H10v1H8v1H6v1H4v1H8Z"/><rect class="sa172-2" x="13" y="19" width="3" height="1"/><rect class="sa172-2" x="12" y="18" width="1" height="1"/><path class="sa172-6" d="M20,20.333V21h1V18H20v2.333Z"/><path class="sa172-6" d="M23,20V18H22v2Z"/><path class="sa172-6" d="M24,21h1V18H24v3Z"/><path class="sa172-2" d="M21,19v1h1V18H21Z"/><path class="sa172-10" d="M21,21v1h3V21H21Z"/><path class="sa172-11" d="M21,20v1h3V20H21Z"/><path class="sa172-6" d="M21,22v1h3V22Z"/><path class="sa172-12" d="M21,23v2h3V23H21Z"/><path class="sa172-11" d="M22,18h1V16H22v2Z"/><path class="sa172-6" d="M24,18V17H23v1Z"/><path class="sa172-6" d="M22,18V17H21v1Z"/><path class="sa172-2" d="M23,19v1h1V18H23Z"/><path class="sa172-13" d="M24,21.223V23h1V21H24Z"/><path class="sa172-13" d="M20,21v2h1V21Z"/></svg>