<svg xmlns="http://www.w3.org/2000/svg" viewBox="0 0 29 33"><defs><style>polygon,rect,path{shape-rendering:crispedges;}.fb264-1{fill:#db5a8e;}.fb264-2{fill:#000000;}.fb264-3{fill:#3e5e00;}.fb264-4{fill:#ffffff;}.fb264-5{fill:#efcaaf;}.fb264-6{fill:#90a2a3;}.fb264-7{fill:#ffffff;}.fb264-8{fill:#473a35;}.fb264-9{fill:#0079bc;}</style></defs><path class="fb264-1" d="M0,33H6V27H7V26H8V25H9V24h1V23h1V22h1V21H11V20H10V19H9V16H8V15H9V13H8V9H9V8h1V7h1V6h7V7h1V8h1V9h1v4H20v2h1v1H20v3H19v1H18v1H17v1h1v1h1v1h1v1h1v1h1v1h1v6h6V0H0Z"/><path class="fb264-2" d="M23,27H22v6h1V27Z"/><path class="fb264-3" d="M22,27H21v6h1V27Z"/><path class="fb264-2" d="M21,27h1V26H21V25H20v2H17v1h2v1h1v4h1V27Z"/><rect class="fb264-2" x="19" y="24" width="1" height="1"/><path class="fb264-3" d="M20,29H19v1H18v1H17v1H16v1h4V29Z"/><rect class="fb264-2" x="18" y="23" width="1" height="1"/><path class="fb264-3" d="M18,25H17v1H16v5h1V30h1V29h1V28H17V27h2V26h1V25H19V24H18Z"/><rect class="fb264-3" x="17" y="23" width="1" height="1"/><rect class="fb264-2" x="17" y="24" width="1" height="1"/><rect class="fb264-2" x="18" y="29" width="1" height="1"/><rect class="fb264-2" x="16" y="25" width="1" height="1"/><path class="fb264-4" d="M15,27H14v6h1V27Z"/><path class="fb264-2" d="M12,24h1V23h3v1h1V23h1V22H17V21H16v1H13V21H12v1H11v1h1Z"/><path class="fb264-5" d="M17,25V24H16V23H13v1H12v1h1v1h3V25Z"/><rect class="fb264-2" x="12" y="25" width="1" height="1"/><path class="fb264-3" d="M12,32V31H11V30H10V29H9v4h4V32Z"/><rect class="fb264-3" x="11" y="23" width="1" height="1"/><rect class="fb264-2" x="11" y="24" width="1" height="1"/><rect class="fb264-2" x="11" y="30" width="1" height="1"/><rect class="fb264-2" x="10" y="23" width="1" height="1"/><rect class="fb264-2" x="9" y="24" width="1" height="1"/><path class="fb264-3" d="M10,26v1h2v1H10v1h1v1h1v1h1V26H12V25H11V24H10v1H9v1Z"/><path class="fb264-2" d="M9,29h1V28h2V27H9V25H8v1H7v1H8v6H9V29Z"/><path class="fb264-3" d="M8,27H7v6H8V27Z"/><path class="fb264-2" d="M7,27H6v6H7V27Z"/><rect class="fb264-2" x="10" y="29" width="1" height="1"/><rect class="fb264-2" x="17" y="30" width="1" height="1"/><path class="fb264-2" d="M17,32V31H16V26H13v5H12v1h1v1h1V27h1v6h1V32Z"/><path class="fb264-6" d="M9,26v1h1V26Z"/><path class="fb264-6" d="M19,27h1V26H19Z"/><rect class="fb264-2" x="20" y="15" width="1" height="1"/><path class="fb264-2" d="M19,15h1V14H19Z"/><path class="fb264-5" d="M16,13V12h2V11H11v1h1v1h1v1h1V13Z"/><path class="fb264-5" d="M10,13v1h2V13Z"/><path class="fb264-5" d="M13,22h3V21h1V20h1V19h1V16h1V15H16V14H14v2h1v1H14V16H13v1H11V16H10v3h1v1h1v1h1Zm0-3h3v1H13Z"/><rect class="fb264-5" x="18" y="12" width="1" height="1"/><path class="fb264-5" d="M18,14V13H16v1h2Z"/><rect class="fb264-5" x="9" y="15" width="1" height="1"/><path class="fb264-2" d="M19,17v2h1V16H19Z"/><rect class="fb264-2" x="18" y="19" width="1" height="1"/><rect class="fb264-2" x="17" y="20" width="1" height="1"/><rect class="fb264-2" x="11" y="20" width="1" height="1"/><rect class="fb264-2" x="10" y="19" width="1" height="1"/><path class="fb264-2" d="M10,16H9v3h1V16Z"/><rect class="fb264-2" x="8" y="15" width="1" height="1"/><rect class="fb264-2" x="14" y="16" width="1" height="1"/><path class="fb264-7" d="M18,14v1h1V14Z"/><path class="fb264-2" d="M17,14H16v1h2V14Z"/><rect class="fb264-8" x="18" y="13" width="1" height="1"/><rect class="fb264-8" x="12" y="13" width="1" height="1"/><path class="fb264-8" d="M12,12H10v1h2Z"/><rect class="fb264-2" x="13" y="19" width="3" height="1"/><path class="fb264-9" d="M20,11H19v3h1V13h1V10H20Z"/><path class="fb264-9" d="M10,12h1V11h8V10h1V8H19V7H18V6H11V7H10V8H9V9H8v4h2Z"/><path class="fb264-2" d="M10,16h1v1h2V16h1V14H10V13H9v2h1Z"/><rect class="fb264-2" x="14" y="13" width="2" height="1"/><rect class="fb264-2" x="16" y="12" width="2" height="1"/><path class="fb264-2" d="M19,12V11H18v1Z"/><rect class="fb264-2" x="19" y="10" width="1" height="1"/><path class="fb264-2" d="M21,10V9H20v1Z"/></svg>