<svg xmlns="http://www.w3.org/2000/svg" viewBox="0 0 29 33"><defs><style>polygon,rect,path{shape-rendering:crispedges;}.ya221-1{fill:#397d98;}.ya221-2{fill:#000000;}.ya221-3{fill:#ffb38d;}.ya221-4{fill:#e8b795;}.ya221-5{fill:#841f00;}.ya221-6{fill:#8e703c;}.ya221-7{fill:#8e703c;}.ya221-8{fill:#db5800;}.ya221-9{fill:#f9e100;}.ya221-10{fill:#fad000;}</style></defs><path class="ya221-1" d="M13,6h4V5H12V6Z"/><path class="ya221-1" d="M0,33H6V27H7V26H8V25h2V24h1V23h1V21H11V20H10V19H9V16H8V15H9V10h1V9h1V8h7V9h1v2h1v4h1v1H20v3H19v1H18v1H17v2h1v1h1v1h2v1h1v1h1v6h6V0H0ZM11,5h1V4h5V5h1V6H17V7H12V6H11Z"/><path class="ya221-2" d="M23,27H22v6h1V27Z"/><path class="ya221-3" d="M21,31h1V30H21Z"/><path class="ya221-3" d="M21,28h1V27H21Z"/><rect class="ya221-2" x="21" y="26" width="1" height="1"/><path class="ya221-2" d="M21,30V27H20v6h1V30Z"/><path class="ya221-3" d="M14,27H9v1H20V27H14Z"/><rect class="ya221-3" x="9" y="30" width="5" height="1"/><path class="ya221-3" d="M15,31h5V30H15Z"/><path class="ya221-2" d="M20,26h1V25H19v1Z"/><rect class="ya221-3" x="16" y="24" width="1" height="1"/><rect class="ya221-2" x="15" y="24" width="1" height="1"/><rect class="ya221-2" x="14" y="32" width="1" height="1"/><rect class="ya221-2" x="14" y="30" width="1" height="1"/><path class="ya221-2" d="M15,29V28H14v1Z"/><path class="ya221-2" d="M15,26V25H14v2h1Z"/><rect class="ya221-2" x="13" y="24" width="1" height="1"/><path class="ya221-4" d="M15,24h1V23H13v1h1v1h1Z"/><rect class="ya221-3" x="12" y="24" width="1" height="1"/><path class="ya221-2" d="M11,26h2V25H12V24h1V22H12v1H11v1H10v1h1Z"/><path class="ya221-2" d="M10,25H8v1h2Z"/><path class="ya221-2" d="M9,30V27H8v6H9V30Z"/><path class="ya221-3" d="M7,31H8V30H7Z"/><path class="ya221-3" d="M8,28V27H7v1Z"/><rect class="ya221-2" x="7" y="26" width="1" height="1"/><path class="ya221-2" d="M7,30V27H6v6H7V30Z"/><path class="ya221-5" d="M15,31H9v2h5V32h1v1h5V31Z"/><path class="ya221-5" d="M15,29H14V28H9v2H20V28H15Z"/><path class="ya221-5" d="M18,26H16V25H15v2h6V26H19V25H18Z"/><path class="ya221-5" d="M9,27h5V25H13v1H11V25H10v1H8v1Z"/><path class="ya221-5" d="M7,29v1H8V28H7Z"/><path class="ya221-5" d="M7,31v2H8V31Z"/><path class="ya221-5" d="M21,31v2h1V31Z"/><path class="ya221-5" d="M21,29v1h1V28H21Z"/><rect class="ya221-2" x="20" y="15" width="1" height="1"/><path class="ya221-2" d="M18,13H15v1h4v1h1V11H19v2Z"/><rect class="ya221-4" x="19" y="15" width="1" height="1"/><path class="ya221-4" d="M18,10H17v1H16V10H15v1H14V10H13v1H12V10H11v1H10v2h1V12h2v1h1v1h1V13h1V12h2v1h1V11H18Z"/><path class="ya221-4" d="M18,16H16V15H13v1H10v2h1v1h1V18h2v1h1V18h2v1h1V18h1V16Zm-3,1H14V16h1Z"/><rect class="ya221-4" x="13" y="20" width="1" height="1"/><rect class="ya221-4" x="9" y="15" width="1" height="1"/><rect class="ya221-4" x="15" y="20" width="1" height="1"/><path class="ya221-2" d="M19,17h1V16H19Z"/><path class="ya221-2" d="M16,23v1h1v1H16v1h2V25h1V24H18V23H17V22H16Z"/><rect class="ya221-2" x="15" y="9" width="1" height="1"/><rect class="ya221-2" x="11" y="9" width="1" height="1"/><rect class="ya221-2" x="17" y="9" width="1" height="1"/><rect class="ya221-2" x="13" y="9" width="1" height="1"/><rect class="ya221-2" x="10" y="10" width="1" height="1"/><path class="ya221-2" d="M10,16H9v1h1Z"/><rect class="ya221-2" x="8" y="15" width="1" height="1"/><rect class="ya221-2" x="14" y="16" width="1" height="1"/><path class="ya221-6" d="M18,12H16v1h2Z"/><path class="ya221-6" d="M11,12v1h2V12Z"/><path class="ya221-7" d="M14,18H13v1h1Z"/><path class="ya221-7" d="M13,23h3V22h1V21h1V20h1V19h1V17H19v1H18v1H17V18H15v1h1v2H15V20H14v1H13V19H11V18H10V17H9v2h1v1h1v1h1v1h1Z"/><path class="ya221-2" d="M13,19v1h3V19H13Z"/><path class="ya221-2" d="M12,18v1h1V18Z"/><path class="ya221-8" d="M18,11h1V9H18v2Z"/><path class="ya221-8" d="M12,10v1h1V9h1v2h1V9h1v2h1V9h1V8H11V9h1Z"/><rect class="ya221-8" x="10" y="9" width="1" height="1"/><path class="ya221-8" d="M10,10H9v1h1Z"/><path class="ya221-9" d="M13,16V15h1V14H10v2h3Z"/><path class="ya221-9" d="M16,15v1h3V14H15v1Z"/><path class="ya221-2" d="M10,14h4V13H10V11H9v4h1Z"/><path class="ya221-2" d="M15,15V14H14v1Z"/><rect class="ya221-10" x="17" y="5" width="1" height="1"/><path class="ya221-10" d="M13,6H12V7h5V6H13Z"/><path class="ya221-10" d="M17,5V4H12V5h5Z"/><rect class="ya221-10" x="11" y="5" width="1" height="1"/></svg>