<svg xmlns="http://www.w3.org/2000/svg" viewBox="0 0 29 33"><defs><style>polygon,rect,path{shape-rendering:crispedges;}.sa26-1{fill:#d14646;}.sa26-2{fill:#000000;}.sa26-3{fill:#474718;}.sa26-4{fill:#c18d59;}.sa26-5{fill:#317f03;}.sa26-6{fill:#ffffff;}.sa26-7{fill:#8e4717;}.sa26-8{fill:#0068ff;}.sa26-9{fill:#8e4717;}.sa26-10{fill:#00bc55;}.sa26-11{fill:#ffffff;}.sa26-12{fill:#ea1500;}.sa26-13{fill:#005e12;}.sa26-14{fill:#008e21;}</style></defs><path class="sa26-1" d="M20,23V22H19v1H18v1h1v1h2V23Z"/><path class="sa26-2" d="M23,26v5h1V25H23Z"/><path class="sa26-2" d="M7,27H6v6H7V27Z"/><path class="sa26-3" d="M8,27H7v6H8V27Z"/><rect class="sa26-2" x="7" y="26" width="1" height="1"/><path class="sa26-2" d="M9,27H8v6H9V27Z"/><path class="sa26-3" d="M10,30h1V29h1V25h1V24H11v1H10v1H8v1H9v6h1V30Z"/><path class="sa26-3" d="M20,27h1V26H19V25H18V24H16v1h1v4h1v1h1v3h1V27Z"/><path class="sa26-2" d="M10,25H8v1h2Z"/><rect class="sa26-2" x="10" y="24" width="1" height="1"/><path class="sa26-2" d="M13,23H11v1h2Z"/><path class="sa26-2" d="M13,24v1h3V24H13Z"/><path class="sa26-4" d="M15,23H13v1h3V23Z"/><path class="sa26-2" d="M17,23H16v1h2V23Z"/><rect class="sa26-2" x="18" y="24" width="1" height="1"/><path class="sa26-2" d="M22,32h1V31H22V25H19v1h2v1H20v6h1V32Z"/><path class="sa26-3" d="M23,26V25H22v6h1V26Z"/><path class="sa26-3" d="M13,25v3h3V25H13Z"/><path class="sa26-3" d="M16,32H12v1h5V32Z"/><rect class="sa26-3" x="12" y="30" width="1" height="1"/><rect class="sa26-3" x="16" y="30" width="1" height="1"/><path class="sa26-5" d="M19,30H18V29H17v2H16V28H13v3H12V29H11v1H10v3h2V32h5v1h2V30Z"/><path class="sa26-2" d="M13,25H12v5h1V25Z"/><path class="sa26-2" d="M16,28v2h1V25H16v3Z"/><path class="sa26-4" d="M18,14h1V13H16v1h2Z"/><rect class="sa26-4" x="13" y="13" width="1" height="1"/><path class="sa26-4" d="M16,22V21h1V20h1V19h1V15H16V14H14v2h1v1H14V16H13v1H11V16H10v3h1v1h1v1h1v1h3Zm-4-3V18h5v1H16v1H13V19Z"/><rect class="sa26-2" x="14" y="16" width="1" height="1"/><path class="sa26-6" d="M18,14v1h1V14Z"/><path class="sa26-6" d="M16,14v1h1V14Z"/><path class="sa26-2" d="M17,14v1h1V14Z"/><path class="sa26-7" d="M10,13v1h3V13Z"/><path class="sa26-6" d="M16,12h1V11H12v1Z"/><path class="sa26-8" d="M13,13h3V12H10v1Z"/><path class="sa26-8" d="M18,13h1V12H18Z"/><path class="sa26-3" d="M20,21V19H19v1H18v1H17v1H16v1h2V22h1V21Z"/><path class="sa26-3" d="M13,22H12V21H11V20H10V19H9V12h1V11h2V10h5v1h2v1h1v6h1V11H20V10H19V9H18V8H11V9H10v1H9v1H8v9H9v1h1v1h1v1h2Z"/><rect class="sa26-2" x="10" y="8" width="1" height="1"/><rect class="sa26-2" x="9" y="9" width="1" height="1"/><rect class="sa26-2" x="8" y="10" width="1" height="1"/><path class="sa26-2" d="M8,11H7v9H8V11Z"/><rect class="sa26-2" x="8" y="20" width="1" height="1"/><rect class="sa26-2" x="9" y="21" width="1" height="1"/><rect class="sa26-2" x="10" y="22" width="1" height="1"/><rect class="sa26-2" x="18" y="22" width="1" height="1"/><rect class="sa26-2" x="19" y="21" width="1" height="1"/><path class="sa26-2" d="M21,17h1V11H21v6Z"/><rect class="sa26-2" x="20" y="10" width="1" height="1"/><rect class="sa26-2" x="19" y="9" width="1" height="1"/><rect class="sa26-2" x="18" y="8" width="1" height="1"/><path class="sa26-2" d="M18,8V7H11V8h7Z"/><path class="sa26-2" d="M12,11H10v1h2Z"/><path class="sa26-2" d="M10,16h1v1h2V16h1V14H10V12H9v7h1V16Z"/><rect class="sa26-2" x="10" y="19" width="1" height="1"/><rect class="sa26-2" x="11" y="20" width="1" height="1"/><rect class="sa26-2" x="12" y="21" width="1" height="1"/><path class="sa26-2" d="M16,23V22H13v1h3Z"/><rect class="sa26-2" x="16" y="21" width="1" height="1"/><rect class="sa26-2" x="17" y="20" width="1" height="1"/><rect class="sa26-2" x="18" y="19" width="1" height="1"/><path class="sa26-2" d="M19,14v5h1V12H19v2Z"/><path class="sa26-2" d="M17,11V10H12v1h5Z"/><path class="sa26-1" d="M0,7V33H6V27H7V26H8V25h2V24h1V23H10V22H9V21H8V20H7V11H8V10H9V9h1V8h1V7h7V8h1V9h1v1h1v1h1v6h2v1h1v5H24v8H23v1H21v1h8V0H0Z"/><path class="sa26-9" d="M17,19V18H13v1h4Z"/><path class="sa26-2" d="M14,13v1h2V13Z"/><path class="sa26-2" d="M16,12v1h2V12h1V11H17v1Z"/><path class="sa26-2" d="M16,20V19H13v1Z"/><path class="sa26-2" d="M12,18v1h1V18Z"/><path class="sa26-10" d="M21,18h1v2H21v1h3V20H23V18h1V17H21Z"/><path class="sa26-10" d="M20,20h1V18H20v2Z"/><path class="sa26-11" d="M22,19V18H21v1Z"/><path class="sa26-2" d="M21,20h1V19H21Z"/><path class="sa26-11" d="M23,19h1V18H23Z"/><path class="sa26-2" d="M23,19v1h1V19Z"/><path class="sa26-12" d="M24,22V21H21v1Z"/><path class="sa26-10" d="M21,22v1h3V22Z"/><path class="sa26-10" d="M24,20h1V18H24v2Z"/><path class="sa26-13" d="M21,23v2h3V23H21Z"/><path class="sa26-12" d="M24,20.333V21h1V20H24Z"/><path class="sa26-12" d="M20,20.333V21h1V20H20Z"/><path class="sa26-14" d="M20,22v1h1V21H20Z"/><path class="sa26-14" d="M24,21.222V23h1V21H24Z"/></svg>