<svg xmlns="http://www.w3.org/2000/svg" viewBox="0 0 29 33"><defs><style>polygon,rect,path{shape-rendering:crispedges;}.ta142-1{fill:#397d98;}.ta142-2{fill:#000000;}.ta142-3{fill:#225600;}.ta142-4{fill:#c18d59;}.ta142-5{fill:#ffffff;}.ta142-6{fill:#b23b00;}.ta142-7{fill:#841f00;}.ta142-8{fill:#db5800;}.ta142-9{fill:#fad000;}</style></defs><path class="ta142-1" d="M6,32V27H7V26H8V25h2V24h1V23H10V22H9V21H8V20H7V11H8V10H9V9h1V8h1V7h7V8h1V9h1v1h1v1h1v9H21v1H20v1H19v1H18v1h1v1h2v1h1v1h1v6h6V0H0V33H6ZM11,4h1V3h5V4h1V5H17V6H12V5H11Z"/><path class="ta142-2" d="M23,27H22v6h1V27Z"/><path class="ta142-3" d="M22,27H21v6h1V27Z"/><rect class="ta142-2" x="21" y="26" width="1" height="1"/><path class="ta142-2" d="M21,27H20v6h1V27Z"/><path class="ta142-3" d="M20,27h1V26H19V25H18V24H16v1h1v5H16V25H13v5H12V25h1V24H11v1H10v1H8v1H9v6H20V27Z"/><path class="ta142-2" d="M20,26h1V25H19v1Z"/><rect class="ta142-2" x="18" y="24" width="1" height="1"/><path class="ta142-2" d="M16,24h2V23H16Z"/><path class="ta142-2" d="M13,24v1h3V24H13Z"/><path class="ta142-4" d="M15,23H13v1h3V23Z"/><path class="ta142-2" d="M13,23H11v1h2Z"/><rect class="ta142-2" x="10" y="24" width="1" height="1"/><path class="ta142-2" d="M10,25H8v1h2Z"/><path class="ta142-2" d="M9,27H8v6H9V27Z"/><path class="ta142-3" d="M8,27H7v6H8V27Z"/><rect class="ta142-2" x="7" y="26" width="1" height="1"/><path class="ta142-2" d="M7,27H6v6H7V27Z"/><path class="ta142-2" d="M12,26v4h1V25H12Z"/><path class="ta142-2" d="M16,30h1V25H16v5Z"/><path class="ta142-4" d="M16,22V20H13v2h3Z"/><path class="ta142-4" d="M12,19V18h5v2h1V19h1V15H16V14H13v1H10v4h1v1h1Zm2-3h1v1H14Z"/><rect class="ta142-2" x="14" y="16" width="1" height="1"/><path class="ta142-5" d="M12,15h1V14H12Z"/><path class="ta142-5" d="M10,14v1h1V14Z"/><path class="ta142-5" d="M18,14v1h1V14Z"/><path class="ta142-5" d="M16,14v1h1V14Z"/><path class="ta142-2" d="M11,14v1h1V14Z"/><path class="ta142-2" d="M17,14v1h1V14Z"/><path class="ta142-6" d="M11,14V12H10v2Z"/><path class="ta142-6" d="M12,13v1h1V12h1v2h1V12h1v2h1V11H12v2Z"/><path class="ta142-6" d="M18,13v1h1V12H18Z"/><path class="ta142-7" d="M18,13V12H17v2h1Z"/><path class="ta142-7" d="M15,12v2h1V12Z"/><path class="ta142-7" d="M13,12v2h1V12Z"/><path class="ta142-7" d="M12,13V12H11v2h1Z"/><path class="ta142-3" d="M13,22H12V21H11V20H10V19H9V12h1V11h2V10h5v1h2v1h1v7H19v1H18v1H17v1H16v1h2V22h1V21h1V20h1V11H20V10H19V9H18V8H11V9H10v1H9v1H8v9H9v1h1v1h1v1h2Z"/><rect class="ta142-2" x="10" y="8" width="1" height="1"/><rect class="ta142-2" x="9" y="9" width="1" height="1"/><rect class="ta142-2" x="8" y="10" width="1" height="1"/><path class="ta142-2" d="M8,11H7v9H8V11Z"/><rect class="ta142-2" x="8" y="20" width="1" height="1"/><rect class="ta142-2" x="9" y="21" width="1" height="1"/><rect class="ta142-2" x="10" y="22" width="1" height="1"/><rect class="ta142-2" x="18" y="22" width="1" height="1"/><rect class="ta142-2" x="19" y="21" width="1" height="1"/><rect class="ta142-2" x="20" y="20" width="1" height="1"/><path class="ta142-2" d="M21,20h1V11H21v9Z"/><rect class="ta142-2" x="20" y="10" width="1" height="1"/><rect class="ta142-2" x="19" y="9" width="1" height="1"/><rect class="ta142-2" x="18" y="8" width="1" height="1"/><path class="ta142-2" d="M18,8V7H11V8h7Z"/><path class="ta142-2" d="M12,12V11H10v1h2Z"/><path class="ta142-2" d="M10,15V12H9v7h1V15Z"/><rect class="ta142-2" x="10" y="19" width="1" height="1"/><rect class="ta142-2" x="11" y="20" width="1" height="1"/><path class="ta142-2" d="M12,21v1h1V21Z"/><path class="ta142-2" d="M16,23V22H13v1h3Z"/><path class="ta142-2" d="M16,22h1V21H16Z"/><rect class="ta142-2" x="17" y="20" width="1" height="1"/><rect class="ta142-2" x="18" y="19" width="1" height="1"/><path class="ta142-2" d="M19,15v4h1V12H19v3Z"/><path class="ta142-2" d="M18,12h1V11H17v1Z"/><path class="ta142-2" d="M17,11V10H12v1h5Z"/><path class="ta142-1" d="M13,5h4V4H12V5Z"/><path class="ta142-8" d="M13,20V19h3v2h1V18H12v3h1Z"/><rect class="ta142-9" x="17" y="4" width="1" height="1"/><path class="ta142-9" d="M13,5H12V6h5V5H13Z"/><path class="ta142-9" d="M17,4V3H12V4h5Z"/><rect class="ta142-9" x="11" y="4" width="1" height="1"/><path class="ta142-2" d="M15,19H13v1h3V19Z"/></svg>