<svg xmlns="http://www.w3.org/2000/svg" viewBox="0 0 29 33"><defs><style>polygon,rect,path{shape-rendering:crispedges;}.hb15-1{fill:#d4a122;}.hb15-2{fill:#000000;}.hb15-3{fill:#b2622b;}.hb15-4{fill:#b23b00;}.hb15-5{fill:#cc3232;}.hb15-6{fill:#6c9302;}.hb15-7{fill:#ffffff;}.hb15-8{fill:#0068ff;}.hb15-9{fill:#455054;}.hb15-10{fill:#002b4f;}.hb15-11{fill:#ff1f4a;}</style></defs><path class="hb15-1" d="M8,19v3H9v2H8v1h2V24h2V21H11V20H10V19H9V16H8v3Z"/><rect class="hb15-1" x="12" y="8" width="1" height="1"/><path class="hb15-1" d="M0,33H8V32H6V31H5V22H6V21H7V20H5v1H2V17H5V16H8V15H9V11h1V10H9V9h1V8h2V7h1V8h3V9h1V8h1V9h1v1h1v5h1v1H20v3H19v1H18v1H17v3h2v1h2v1h1v1h1v6h6V0H0Z"/><path class="hb15-2" d="M6,22H5v9H6V22Z"/><path class="hb15-2" d="M23,27H22v6h1V27Z"/><path class="hb15-3" d="M22,27H21v6h1V27Z"/><rect class="hb15-2" x="21" y="26" width="1" height="1"/><path class="hb15-2" d="M21,27H20v6h1V27Z"/><path class="hb15-3" d="M20,27h1V26H19V25H17V24H16V23H13v1H12v1H10v1H8v1H9v6h5V29h1v4h5V27Zm-8,2H11V28h1Zm6,0H17V28h1Z"/><path class="hb15-2" d="M20,26h1V25H19v1Z"/><rect class="hb15-2" x="17" y="28" width="1" height="1"/><path class="hb15-2" d="M18,25h1V24H17v1Z"/><path class="hb15-2" d="M15,29H14v4h1V29Z"/><rect class="hb15-2" x="11" y="28" width="1" height="1"/><path class="hb15-2" d="M10,25h2V24H10Z"/><path class="hb15-2" d="M9,27H8V26h2V25H8V24H7v7H6v1H8v1H9V27Z"/><path class="hb15-3" d="M7,30V24H8V22H6v9H7Z"/><rect class="hb15-2" x="20" y="15" width="1" height="1"/><path class="hb15-3" d="M19,16H18v1H16V16H15v1H14V16H13v1H11V16H10v3h1v1h1v1h1v1h3V21h1V20h1V19h1V16Zm-2,3H16v1H13V19H12V18h5Z"/><rect class="hb15-3" x="14" y="15" width="1" height="1"/><rect class="hb15-3" x="10" y="13" width="1" height="1"/><rect class="hb15-3" x="19" y="15" width="1" height="1"/><path class="hb15-3" d="M14,14h2V13H13v1Z"/><rect class="hb15-3" x="9" y="15" width="1" height="1"/><rect class="hb15-3" x="16" y="10" width="1" height="1"/><path class="hb15-2" d="M19,17v2h1V16H19Z"/><rect class="hb15-2" x="18" y="19" width="1" height="1"/><rect class="hb15-2" x="17" y="20" width="1" height="1"/><path class="hb15-2" d="M16,22H13V21H12v3h1V23h3v1h1V21H16Z"/><rect class="hb15-2" x="11" y="20" width="1" height="1"/><rect class="hb15-2" x="10" y="19" width="1" height="1"/><path class="hb15-2" d="M10,14H9v1h1Z"/><path class="hb15-2" d="M10,16H9v3h1V16Z"/><rect class="hb15-2" x="8" y="15" width="1" height="1"/><rect class="hb15-2" x="14" y="16" width="1" height="1"/><rect class="hb15-4" x="18" y="13" width="1" height="1"/><path class="hb15-5" d="M12,18v1h4V18Z"/><path class="hb15-2" d="M13,20h3V19H13Z"/><path class="hb15-2" d="M16,19h1V18H16Z"/><path class="hb15-6" d="M19,14v1h1V13H19Z"/><path class="hb15-6" d="M16,11V10h1v1h3V10H19V9H18V8H17V9H16V8H13V9H12V8H10V9H9v1h1v1h6Z"/><path class="hb15-6" d="M10,13H9v1h1Z"/><rect class="hb15-6" x="12" y="7" width="1" height="1"/><path class="hb15-7" d="M12,14h1V13H11v1Z"/><path class="hb15-7" d="M11,17h2V16H11Z"/><polygon class="hb15-7" points="11 15 11 14 10 14 10 15 10 16 11 16 11 15"/><path class="hb15-2" d="M12,14H11v2h2V14Z"/><polygon class="hb15-7" points="18 15 18 16 19 16 19 15 19 14 18 14 18 15"/><path class="hb15-7" d="M17,14h1V13H16v1Z"/><path class="hb15-7" d="M16,17h2V16H16Z"/><path class="hb15-7" d="M14,14H13v2h1V15h1v1h1V14Z"/><path class="hb15-2" d="M18,14H16v2h2V14Z"/><path class="hb15-7" d="M20,12V11H9v1H20Z"/><path class="hb15-8" d="M11,13h9V12H9v1h2Z"/><path class="hb15-9" d="M8,22V20H7v2Z"/><path class="hb15-2" d="M7,21H6v1H7Z"/><path class="hb15-2" d="M9,22H8v2H9Z"/><path class="hb15-10" d="M3,17H2v4H4V17Z"/><path class="hb15-11" d="M8,19V16H6v4H8Z"/><path class="hb15-7" d="M5,16v1H4v4H5V20H6V16Z"/></svg>