<svg xmlns="http://www.w3.org/2000/svg" viewBox="0 0 29 33"><defs><style>polygon,rect,path{shape-rendering:crispedges;}.la216-1{fill:#d14646;}.la216-2{fill:#000000;}.la216-3{fill:#ffffff;}.la216-4{fill:#0068ff;}.la216-5{fill:#ce8452;}.la216-6{fill:#000000;}.la216-7{fill:#45ba00;}.la216-8{fill:#fad000;}</style></defs><path class="la216-1" d="M0,33H6V27H7V26H8V25h2V24h2V21H11V20H10V19H9V16H8V14H9V10h1V9h1V8h7V9h1v1h1v2h1v6H20v1H19v1H18v1H17v3h2v1h2v1h1v1h1v6h6V0H0Z"/><path class="la216-2" d="M23,27H22v6h1V27Z"/><rect class="la216-2" x="21" y="26" width="1" height="1"/><path class="la216-3" d="M21,28h1V27H21Z"/><path class="la216-3" d="M21,31h1V30H21Z"/><path class="la216-2" d="M21,30V27H20v6h1V30Z"/><path class="la216-2" d="M20,26h1V25H19v1Z"/><path class="la216-3" d="M17,25V24H12v1Z"/><path class="la216-3" d="M9,31H20V30H9Z"/><path class="la216-3" d="M9,27v1H20V27H9Z"/><path class="la216-2" d="M18,25h1V24H17v1Z"/><path class="la216-2" d="M13,23h3v1h1V21H16v1H13V21H12v3h1Z"/><path class="la216-2" d="M12,24H10v1h2Z"/><path class="la216-2" d="M10,25H8v1h2Z"/><path class="la216-2" d="M9,30V27H8v6H9V30Z"/><rect class="la216-2" x="7" y="26" width="1" height="1"/><path class="la216-3" d="M8,28V27H7v1Z"/><path class="la216-3" d="M7,31H8V30H7Z"/><path class="la216-2" d="M7,30V27H6v6H7V30Z"/><path class="la216-4" d="M9,31v2H20V31Z"/><path class="la216-4" d="M9,29v1H20V28H9Z"/><path class="la216-4" d="M9,27H21V26H19V25H10v1H8v1Z"/><path class="la216-4" d="M15,23H13v1h3V23Z"/><path class="la216-4" d="M7,29v1H8V28H7Z"/><path class="la216-4" d="M7,31v2H8V31Z"/><path class="la216-4" d="M21,31v2h1V31Z"/><path class="la216-4" d="M21,29v1h1V28H21Z"/><path class="la216-5" d="M13,22h3V21h1V20h1V19h1V17H16V16H15v1H14V16H13v1H10v2h1v1h1v1h1Zm0-3h3V18h1v1H16v1H13Z"/><rect class="la216-5" x="14" y="15" width="1" height="1"/><path class="la216-5" d="M12,13h1v1h3V12H15V11H13V10H11v1H10v1h2Z"/><path class="la216-2" d="M19,16v3h1V16Z"/><rect class="la216-2" x="18" y="19" width="1" height="1"/><rect class="la216-2" x="17" y="20" width="1" height="1"/><rect class="la216-2" x="11" y="20" width="1" height="1"/><rect class="la216-2" x="10" y="19" width="1" height="1"/><path class="la216-2" d="M10,16H9v3h1V16Z"/><path class="la216-2" d="M8,15v1H9V15Z"/><rect class="la216-2" x="14" y="16" width="1" height="1"/><path class="la216-6" d="M12,12H10v1h2Z"/><rect class="la216-2" x="13" y="19" width="3" height="1"/><rect class="la216-2" x="16" y="18" width="1" height="1"/><path class="la216-7" d="M20,16v2h1V15H20Z"/><path class="la216-7" d="M10,13V11h1V10h2v1h2v1h1v1h3v1h2V12H20V10H19V9H18V8H11V9H10v1H9v4h1Z"/><path class="la216-8" d="M19,16h1V15h1V14H19Z"/><path class="la216-8" d="M17,14h2V13H16v1Z"/><path class="la216-2" d="M19,16V14H16v2h3Z"/><path class="la216-8" d="M18,16H16v1h3V16Z"/><path class="la216-8" d="M13,14v2h1V15h1v1h1V14Z"/><path class="la216-8" d="M13,14V13H10v1h3Z"/><path class="la216-2" d="M12,14H10v2h3V14Z"/><path class="la216-8" d="M10,16v1h3V16H10Z"/><path class="la216-8" d="M10,15V14H8v1H9v1h1Z"/></svg>