<svg xmlns="http://www.w3.org/2000/svg" viewBox="0 0 29 33"><defs><style>polygon,rect,path{shape-rendering:crispedges;}.za291-1{fill:#d4a122;}.za291-2{fill:#000000;}.za291-3{fill:#ffffff;}.za291-4{fill:#c18d59;}.za291-5{fill:#68aaad;}.za291-6{fill:#b23b00;}.za291-7{fill:#b23b00;}.za291-8{fill:#ffffff;}</style></defs><path class="za291-1" d="M0,33H8V32H6V31H5V23H4V20H5V19H7v1H8v1H9v2H8v2h2V24h1V23h1V22H11V21H10V20H9V16H8V15H9V11h1V10h1V9h7v1h1v1h1v4h1v1H20v4H19v1H18v1H17v1h1v1h1v1h2v1h1v1h1v6h6V0H0Z"/><path class="za291-2" d="M6,29V23H5v8H6V29Z"/><path class="za291-2" d="M23,27H22v6h1V27Z"/><path class="za291-3" d="M21,31h1V30H21Z"/><path class="za291-3" d="M21,28h1V27H21Z"/><rect class="za291-2" x="21" y="26" width="1" height="1"/><path class="za291-2" d="M21,30V27H20v6h1V30Z"/><path class="za291-3" d="M15,31h5V30H15Z"/><path class="za291-3" d="M14,27H9v1H20V27H14Z"/><rect class="za291-3" x="9" y="30" width="5" height="1"/><path class="za291-2" d="M20,26h1V25H19v1Z"/><rect class="za291-3" x="16" y="24" width="1" height="1"/><path class="za291-2" d="M16,24h1v1H16v1h2V25h1V24H18V23H16Z"/><rect class="za291-2" x="15" y="24" width="1" height="1"/><rect class="za291-2" x="14" y="32" width="1" height="1"/><rect class="za291-2" x="14" y="30" width="1" height="1"/><path class="za291-2" d="M15,29V28H14v1Z"/><path class="za291-2" d="M15,26V25H14v2h1Z"/><rect class="za291-2" x="13" y="24" width="1" height="1"/><path class="za291-4" d="M15,24h1V23H13v1h1v1h1Z"/><rect class="za291-3" x="12" y="24" width="1" height="1"/><path class="za291-2" d="M11,26h2V25H12V24h1V23H11v1H10v1h1Z"/><path class="za291-2" d="M9,30V27H8V26h2V25H8V23H7v8H6v1H8v1H9V30Z"/><path class="za291-3" d="M7,30H6v1H7Z"/><path class="za291-3" d="M6,25H7V24H6Z"/><path class="za291-3" d="M6,28H7V27H6Z"/><path class="za291-5" d="M15,31H9v2h5V32h1v1h5V31Z"/><path class="za291-5" d="M15,29H14V28H9v2H20V28H15Z"/><path class="za291-5" d="M18,26H16V25H15v2h6V26H19V25H18Z"/><path class="za291-5" d="M9,26H8v1h6V25H13v1H11V25H10v1Z"/><path class="za291-5" d="M6,29v1H7V28H6Z"/><path class="za291-5" d="M6,26v1H7V25H6Z"/><path class="za291-5" d="M21,31v2h1V31Z"/><path class="za291-5" d="M21,29v1h1V28H21Z"/><rect class="za291-2" x="20" y="15" width="1" height="1"/><path class="za291-2" d="M19,14v1h1V11H19v3Z"/><rect class="za291-4" x="10" y="16" width="1" height="1"/><rect class="za291-4" x="9" y="15" width="1" height="1"/><rect class="za291-4" x="14" y="15" width="1" height="1"/><rect class="za291-4" x="10" y="13" width="1" height="1"/><path class="za291-4" d="M16,16H15v1H14V16H13v1H11v1h1v1h1V18h5V17H16Z"/><path class="za291-4" d="M12,12v1h1v1h3V12h2v1h1V11H18V10H11v1H10v1Z"/><rect class="za291-4" x="19" y="15" width="1" height="1"/><rect class="za291-4" x="18" y="16" width="1" height="1"/><rect class="za291-2" x="18" y="10" width="1" height="1"/><path class="za291-2" d="M18,10V9H11v1h7Z"/><rect class="za291-2" x="10" y="10" width="1" height="1"/><path class="za291-2" d="M10,14V11H9v4h1Z"/><rect class="za291-2" x="8" y="15" width="1" height="1"/><rect class="za291-2" x="14" y="16" width="1" height="1"/><path class="za291-6" d="M19,14V13H18v1Z"/><path class="za291-6" d="M18,12H16v1h2Z"/><path class="za291-6" d="M12,13V12H10v1h2Z"/><path class="za291-7" d="M15,18H13v1h3V18Z"/><path class="za291-7" d="M14,23h3V22h1V21h1V20h1V16H19v1H18v1H17v1H16v1H13V19H12V18H11V17H10V16H9v4h1v1h1v1h1v1h2Z"/><rect class="za291-2" x="13" y="19" width="3" height="1"/><path class="za291-2" d="M16,19h1V18H16Z"/><path class="za291-2" d="M9,23V21H8v2Z"/><rect class="za291-2" x="7" y="20" width="1" height="1"/><rect class="za291-2" x="5" y="19" width="2" height="1"/><path class="za291-2" d="M5,20H4v3H5V20Z"/><path class="za291-4" d="M6,24H7V23H8V21H7V20H5v3H6Z"/><path class="za291-8" d="M11,14h2V13H11Z"/><path class="za291-8" d="M13,16H11v1h2Z"/><polygon class="za291-8" points="11 15 11 14 10 14 10 15 10 16 11 16 11 15"/><path class="za291-2" d="M11,15v1h2V14H11Z"/><path class="za291-8" d="M19,14H18v2h1V14Z"/><path class="za291-8" d="M18,13H16v1h2Z"/><path class="za291-8" d="M17,16H16v1h2V16Z"/><path class="za291-8" d="M14,16V15h1v1h1V14H13v2Z"/><path class="za291-2" d="M17,16h1V14H16v2Z"/></svg>