<svg xmlns="http://www.w3.org/2000/svg" viewBox="0 0 29 33"><defs><style>polygon,rect,path{shape-rendering:crispedges;}.oa15-1{fill:#d4a122;}.oa15-2{fill:#000000;}.oa15-3{fill:#ffb3c0;}.oa15-4{fill:#333333;}.oa15-5{fill:#e8b795;}.oa15-6{fill:#0079bc;}.oa15-7{fill:#893a1f;}.oa15-8{fill:#ff1d99;}.oa15-9{fill:#ffffff;}.oa15-10{fill:#0068ff;}.oa15-11{fill:#ff1f4a;}.oa15-12{fill:#455054;}.oa15-13{fill:#002b4f;}</style></defs><path class="oa15-1" d="M0,33H8V32H6V31H5V22H6V21H7V20H5v1H2V17H5V16H8V11H9V10h1V9h1V8h7V9h1v1h1v1h1v8H20v1H18v1H17v3h2v1h2v1h1v1h1v6h6V0H0Z"/><path class="oa15-1" d="M12,21H11V20H9V19H8v3H9v2H8v1h2V24h2V21Z"/><path class="oa15-2" d="M6,29V22H5v9H6V29Z"/><path class="oa15-2" d="M23,27H22v6h1V27Z"/><path class="oa15-3" d="M21,31v1h1V30H21Z"/><path class="oa15-3" d="M21,28h1V27H21Z"/><rect class="oa15-2" x="21" y="26" width="1" height="1"/><path class="oa15-2" d="M21,31V27H20v6h1V31Z"/><path class="oa15-3" d="M19,31V30H18v2h1v1h1V31Z"/><path class="oa15-3" d="M18,26v2h1v1h1V27H19V25H18Z"/><path class="oa15-2" d="M20,26h1V25H19v1Z"/><path class="oa15-2" d="M18,31V25h1V24H17v1H16v1h1v7h1V31Z"/><path class="oa15-4" d="M17,26H16v1H13V26H12v7h5V26Z"/><path class="oa15-2" d="M13,26v1h3V26H13Z"/><path class="oa15-5" d="M16,23H13v1H12v1h1v1h3V25h1V24H16Z"/><path class="oa15-2" d="M12,26h1V25H12V24H10v1h1v8h1V26Z"/><path class="oa15-3" d="M10,31V30H9v2h1v1h1V31Z"/><path class="oa15-3" d="M10,26H9v2h1v1h1V27H10Z"/><path class="oa15-2" d="M9,31V27H8V26h2V25H8V24H7v7H6v1H8v1H9V31Z"/><path class="oa15-3" d="M7,30H6v1H7Z"/><path class="oa15-3" d="M6,26v2H7V25H6Z"/><path class="oa15-6" d="M19,28H18v2h1v1h1V29H19Z"/><path class="oa15-6" d="M21,29v1h1V28H21Z"/><path class="oa15-6" d="M21,32v1h1V32Z"/><path class="oa15-6" d="M19,26v1h2V26H19Z"/><path class="oa15-6" d="M18,32v1h1V32Z"/><path class="oa15-6" d="M10,27h1V25H10v2Z"/><path class="oa15-6" d="M10,28H9v2h1v1h1V29H10Z"/><path class="oa15-6" d="M6,25H7V24H6Z"/><path class="oa15-6" d="M6,29v1H7V28H6Z"/><path class="oa15-6" d="M9,32v1h1V32Z"/><path class="oa15-6" d="M8,26v1H9V26Z"/><path class="oa15-5" d="M14,14h1V13h1V12h1V11H15V10H14v1H13v1H12v1h2Z"/><rect class="oa15-5" x="14" y="15" width="1" height="1"/><path class="oa15-5" d="M19,19V16H15v1H14V16H10v3h1v1h1v1h1v1h3V21h1V20h1V19Zm-3,1H13V19h3Z"/><path class="oa15-2" d="M20,16H19v3h1V16Z"/><path class="oa15-2" d="M18,19v1h1V19Z"/><rect class="oa15-2" x="17" y="20" width="1" height="1"/><path class="oa15-2" d="M16,22H13V21H12v3h1V23h3v1h1V21H16Z"/><rect class="oa15-2" x="11" y="20" width="1" height="1"/><path class="oa15-2" d="M11,20V19H10v1Z"/><path class="oa15-2" d="M10,18V16H9v3h1Z"/><rect class="oa15-2" x="14" y="16" width="1" height="1"/><rect class="oa15-7" x="16" y="12" width="1" height="1"/><rect class="oa15-2" x="13" y="19" width="3" height="1"/><path class="oa15-8" d="M8,19H9V13h3V12h1V11h1V10h1v1h2v2h3v6h1V11H20V10H19V9H18V8H11V9H10v1H9v1H8v8Z"/><path class="oa15-8" d="M10,20V19H9v1Z"/><path class="oa15-8" d="M19,20h1V19H19Z"/><path class="oa15-9" d="M11,16h3V15h1v1h5V13H15v1H14V13H9v3h2Zm5-2h3v1H16Zm-6,0h3v1H10Z"/><path class="oa15-10" d="M19,15V14H16v1h3Z"/><path class="oa15-11" d="M13,15V14H10v1h3Z"/><path class="oa15-5" d="M7,24H8V22H6v2Z"/><path class="oa15-12" d="M8,22V20H7v2Z"/><path class="oa15-2" d="M7,21H6v1H7Z"/><path class="oa15-2" d="M9,22H8v2H9Z"/><path class="oa15-13" d="M8,19V16H5v1H4v3H3V19H2v2H5V20H8ZM7,18H6V17H7Z"/><path class="oa15-9" d="M3,17H2v1H3Z"/><path class="oa15-11" d="M3,18H2v1H3Z"/><path class="oa15-11" d="M4,18V17H3v1Z"/><path class="oa15-9" d="M3,19v1H4V18H3Z"/><rect class="oa15-9" x="6" y="17" width="1" height="1"/></svg>