<svg xmlns="http://www.w3.org/2000/svg" viewBox="0 0 29 33"><defs><style>polygon,rect,path{shape-rendering:crispedges;}.ab84-1{fill:#29834f;}.ab84-2{fill:#000000;}.ab84-3{fill:#9b8100;}.ab84-4{fill:#e8b795;}.ab84-5{fill:#ffb38d;}.ab84-6{fill:#db5800;}.ab84-7{fill:#cbed03;}.ab84-8{fill:#00e070;}.ab84-9{fill:#474718;}.ab84-10{fill:#6f7032;}.ab84-11{fill:#ffffff;}</style></defs><path class="ab84-1" d="M19,21H18v1H17v1h1v1h1V21Z"/><path class="ab84-2" d="M7,30V27H6v6H7V30Z"/><path class="ab84-3" d="M7,31v2H8V31Z"/><path class="ab84-3" d="M7,30H8V27H7v3Z"/><rect class="ab84-2" x="7" y="26" width="1" height="1"/><path class="ab84-2" d="M9,31V27H8v6H9V31Z"/><path class="ab84-3" d="M20,32V26H19V25H18v1H17v1H16V25H15v2H14V25H13v2H12V26H11V25H10v1H9v6h1v1h4V32h1v1h4V32Zm-9-3H10V28h1Zm2,2H12V30h1Zm2,0H14V30h1Zm0-2H14V28h1Zm2,2H16V30h1Zm1-2V28h1v1Z"/><path class="ab84-2" d="M10,26V25H8v1h2Z"/><rect class="ab84-3" x="12" y="24" width="1" height="1"/><path class="ab84-2" d="M11,26h2V25H12V24h1V23h3v1h1v1H16v1h2V25h1V24H18V23H17V21H16v1H13V21H12v2H11v1H10v1h1Z"/><rect class="ab84-2" x="13" y="24" width="1" height="1"/><rect class="ab84-2" x="14" y="32" width="1" height="1"/><rect class="ab84-2" x="14" y="30" width="1" height="1"/><rect class="ab84-2" x="14" y="28" width="1" height="1"/><path class="ab84-2" d="M14,26v1h1V25H14Z"/><rect class="ab84-2" x="15" y="24" width="1" height="1"/><path class="ab84-4" d="M16,24V23H13v1h1v1h1V24Z"/><rect class="ab84-3" x="16" y="24" width="1" height="1"/><path class="ab84-2" d="M21,31V26H20v7h1V31Z"/><path class="ab84-3" d="M21,29v2h1V28H21Z"/><path class="ab84-3" d="M21,32v1h1V32Z"/><path class="ab84-2" d="M23,25H22v8h1V25Z"/><rect class="ab84-5" x="10" y="28" width="1" height="1"/><rect class="ab84-5" x="12" y="30" width="1" height="1"/><path class="ab84-5" d="M12,27h1V26H12Z"/><rect class="ab84-5" x="16" y="30" width="1" height="1"/><rect class="ab84-5" x="18" y="28" width="1" height="1"/><path class="ab84-5" d="M21,28h1V27H21Z"/><path class="ab84-5" d="M16,27h1V26H16Z"/><path class="ab84-5" d="M9,27V26H8v1Z"/><path class="ab84-5" d="M19,32v1h1V32Z"/><path class="ab84-5" d="M9,32v1h1V32Z"/><path class="ab84-5" d="M7,31H8V30H7Z"/><path class="ab84-5" d="M21,32h1V31H21Z"/><rect class="ab84-2" x="20" y="15" width="1" height="1"/><path class="ab84-4" d="M18,20V19h1V17H16V16H15v1H14V16H13v1H10v2h1v1h1v1h1v1h3V21h1V20Zm-2,0H13V19h3Z"/><path class="ab84-4" d="M14,14h2V13H13v1Z"/><rect class="ab84-4" x="14" y="15" width="1" height="1"/><path class="ab84-2" d="M19,18v1h1V16H19v2Z"/><rect class="ab84-2" x="18" y="19" width="1" height="1"/><rect class="ab84-2" x="17" y="20" width="1" height="1"/><rect class="ab84-2" x="11" y="20" width="1" height="1"/><rect class="ab84-2" x="10" y="19" width="1" height="1"/><path class="ab84-2" d="M10,16H9v3h1V16Z"/><rect class="ab84-2" x="8" y="15" width="1" height="1"/><rect class="ab84-2" x="14" y="16" width="1" height="1"/><rect class="ab84-2" x="13" y="19" width="3" height="1"/><path class="ab84-6" d="M20,17v2H19v1H18v1h3V20h1V19H21V16H20Z"/><path class="ab84-6" d="M19,14h2V13H19Z"/><path class="ab84-6" d="M10,13H8v1h2Z"/><path class="ab84-6" d="M10,20V19H9V16H8v3H7v1H8v1H9v1h1V21h1V20Z"/><path class="ab84-6" d="M11,21v1h1V21Z"/><path class="ab84-6" d="M18,21H17v1h1Z"/><path class="ab84-7" d="M19,16h1V15h1V14H19Z"/><path class="ab84-7" d="M17,14h2V13H16v1Z"/><path class="ab84-8" d="M16,14v2h3V14H16Z"/><path class="ab84-7" d="M16,16v1h3V16H16Z"/><path class="ab84-7" d="M14,14H13v2h1V15h1v1h1V14Z"/><path class="ab84-7" d="M13,14V13H10v1h3Z"/><path class="ab84-8" d="M13,16V14H10v2h3Z"/><path class="ab84-7" d="M11,17h2V16H10v1Z"/><path class="ab84-7" d="M9,16h1V14H8v1H9Z"/><path class="ab84-9" d="M19,12v1h1V11H19Z"/><path class="ab84-10" d="M10,12v1h1V11h1v2h1V11h1v2h1V11h1v2h1V11h1v2h1V11h1V10H19V9H18V8H11V9H10v1H9v1h1Z"/><path class="ab84-9" d="M18,12V11H17v2h1Z"/><path class="ab84-9" d="M16,12V11H15v2h1Z"/><path class="ab84-9" d="M14,12V11H13v2h1Z"/><path class="ab84-9" d="M12,12V11H11v2h1Z"/><path class="ab84-9" d="M10,12V11H9v2h1Z"/><path class="ab84-1" d="M0,8V33H6V27H7V26H8V25h2V24h1V23h1V22H11V21H10v1H9V21H8V20H7V19H8V13H9V10h1V9h1V8h7V9h1v1h1v3h1v6h1v1H21v1h1v4h1v8h6V0H0Z"/><rect class="ab84-2" x="20" y="22" width="1" height="1"/><path class="ab84-11" d="M19,22v4h1V25h2V21H19Zm1,0h1v1H20Z"/><path class="ab84-4" d="M20,26h1v1h1V25H20Z"/></svg>