<svg xmlns="http://www.w3.org/2000/svg" viewBox="0 0 29 33"><defs><style>polygon,rect,path{shape-rendering:crispedges;}.ma29-1{fill:#e55b35;}.ma29-2{fill:#000000;}.ma29-3{fill:#6d5800;}.ma29-4{fill:#9b8100;}.ma29-5{fill:#512a24;}.ma29-6{fill:#ffffff;}.ma29-7{fill:#6c9302;}.ma29-8{fill:#6c9302;}.ma29-9{fill:#6e12ff;}.ma29-10{fill:#00997c;}.ma29-11{fill:#00e2b7;}.ma29-12{fill:#00755f;}</style></defs><path class="ma29-1" d="M6,32V27H7V26H8V25h2V24h2V21H10V20H9V18H8V12H9V11h1V10h1V9h7v1h1v1h1v2h1v4h3v1h1V17h1v1H25v5H24v8H23v1H21v1h8V0H0V33H6Z"/><path class="ma29-1" d="M20,23V20H19v1H17v3h2v1h2V23Z"/><path class="ma29-2" d="M23,26v5h1V25H23Z"/><path class="ma29-2" d="M7,27H6v6H7V27Z"/><path class="ma29-3" d="M8,27H7v6H8V27Z"/><rect class="ma29-2" x="7" y="26" width="1" height="1"/><path class="ma29-2" d="M9,27H8v6H9V27Z"/><path class="ma29-3" d="M11,25H10v1H8v1H9v6h2V25Z"/><path class="ma29-2" d="M10,25H8v1h2Z"/><path class="ma29-2" d="M12,26h1V25H12V24H10v1h1v8h1V26Z"/><path class="ma29-4" d="M17,26H16v1H13V26H12v7h5V26Z"/><path class="ma29-2" d="M13,23h3v1h1V21H16v1H13V21H12v3h1Z"/><path class="ma29-2" d="M13,26v1h3V26H13Z"/><path class="ma29-5" d="M13,25v1h3V25h1V24H16V23H13v1H12v1Z"/><path class="ma29-2" d="M18,25h1V24H17v1H16v1h1v7h1V25Z"/><path class="ma29-3" d="M20,27h1V26H19V25H18v8h2V27Z"/><path class="ma29-2" d="M22,32h1V31H22V25H19v1h2v1H20v6h1V32Z"/><path class="ma29-3" d="M23,26V25H22v6h1V26Z"/><path class="ma29-5" d="M13,22h3V21h1V20h1V15H17v2H16V15H15V11H14v1H13v2h1v2h1v1H14V16H13V15H11v5h1v1h1Zm0-3h3v1H13Z"/><rect class="ma29-5" x="11" y="13" width="1" height="1"/><rect class="ma29-5" x="17" y="13" width="1" height="1"/><rect class="ma29-5" x="16" y="12" width="1" height="1"/><rect class="ma29-5" x="9" y="15" width="1" height="1"/><rect class="ma29-5" x="11" y="11" width="1" height="1"/><rect class="ma29-5" x="19" y="15" width="1" height="1"/><rect class="ma29-2" x="19" y="16" width="1" height="1"/><rect class="ma29-2" x="9" y="14" width="1" height="1"/><rect class="ma29-2" x="9" y="16" width="1" height="1"/><rect class="ma29-2" x="14" y="16" width="1" height="1"/><rect class="ma29-6" x="16" y="14" width="1" height="1"/><path class="ma29-2" d="M11,14v1h2V14H11Z"/><rect class="ma29-2" x="17" y="14" width="1" height="1"/><rect class="ma29-7" x="11" y="12" width="1" height="1"/><rect class="ma29-7" x="16" y="13" width="1" height="1"/><rect class="ma29-7" x="17" y="12" width="1" height="1"/><path class="ma29-8" d="M19,20V18H18v2H17v1h2Z"/><path class="ma29-8" d="M11,20V18H10v3h2V20Z"/><rect class="ma29-8" x="9" y="17" width="1" height="1"/><rect class="ma29-2" x="13" y="19" width="3" height="1"/><path class="ma29-9" d="M9,16V14h1v4h1V11h1v3h1V12h1V11h1v4h1V12h2v6h1V15h1v3h1V13H20V11H19V10H18V9H11v1H10v1H9v1H8v6H9V16Z"/><path class="ma29-9" d="M9,18v2h1V18Z"/><path class="ma29-9" d="M13,16h1V14H13v2Z"/><path class="ma29-9" d="M16,16v1h1V15H16Z"/><path class="ma29-9" d="M20,20V18H19v2Z"/><path class="ma29-10" d="M20,21v2h1V21Z"/><path class="ma29-2" d="M22,20V18H21v2Z"/><path class="ma29-2" d="M23,19v1h1V18H23Z"/><rect class="ma29-2" x="22" y="21" width="1" height="1"/><path class="ma29-11" d="M23,22H21v1h3V22Z"/><path class="ma29-11" d="M20,21h2V20H21V18H20v3Z"/><path class="ma29-11" d="M22,18v2h1V18h1V17H21v1Z"/><path class="ma29-11" d="M23,20v1h2V18H24v2Z"/><path class="ma29-12" d="M21,23v2h3V23H21Z"/><path class="ma29-10" d="M24,21.222V23h1V21H24Z"/><path class="ma29-11" d="M20,17H19v1h1Z"/><rect class="ma29-11" x="25" y="17" width="1" height="1"/><rect class="ma29-10" x="22" y="20" width="1" height="1"/><path class="ma29-6" d="M21,21v1h1V21Z"/><path class="ma29-6" d="M24,22V21H23v1Z"/></svg>