<svg xmlns="http://www.w3.org/2000/svg" viewBox="0 0 29 33"><defs><style>polygon,rect,path{shape-rendering:crispedges;}.qa35-1{fill:#db5a8e;}.qa35-2{fill:#000000;}.qa35-3{fill:#8e9350;}.qa35-4{fill:#a56e49;}.qa35-5{fill:#8e9350;}.qa35-6{fill:#b23b00;}.qa35-7{fill:#b23b00;}.qa35-8{fill:#c8a715;}.qa35-9{fill:#ffce00;}.qa35-10{fill:#ff1d99;}.qa35-11{fill:#6e12ff;}.qa35-12{fill:#0068ff;}.qa35-13{fill:#45ba00;}</style></defs><path class="qa35-1" d="M0,33H6V27H5V26H6V25H5V24H4V21H5V20H6V19H9V16H8V11H9V10h1V9h2V8h5V9h1v1h1v1h1v3h1v2H20v4H19v5h2v1h1v1h1v6h6V0H0Z"/><path class="qa35-2" d="M23,27H22v6h1V27Z"/><path class="qa35-3" d="M22,27H21v6h1V27Z"/><rect class="qa35-2" x="21" y="26" width="1" height="1"/><path class="qa35-2" d="M21,27H20v6h1V27Z"/><path class="qa35-3" d="M18,24H17v5h1V28h1v1h1V27h1V26H19V25H18Z"/><rect class="qa35-3" x="10" y="29" width="1" height="1"/><path class="qa35-3" d="M19,32V31H18v1H17V30H16v1H15v1H13V30H12v2H11V31H10v1H9v1H20V32Z"/><path class="qa35-3" d="M10,28h1v1h1V24H11v1H10v2H9v2h1Z"/><rect class="qa35-3" x="18" y="29" width="1" height="1"/><path class="qa35-2" d="M20,26h1V25H19v1Z"/><path class="qa35-2" d="M18,25h1V24H18Z"/><rect class="qa35-3" x="17" y="22" width="1" height="1"/><rect class="qa35-2" x="17" y="23" width="1" height="1"/><path class="qa35-2" d="M15,24H13v1h3V24Z"/><path class="qa35-4" d="M14,24h2V23H13v1Z"/><rect class="qa35-2" x="11" y="23" width="1" height="1"/><rect class="qa35-3" x="11" y="22" width="1" height="1"/><rect class="qa35-2" x="10" y="24" width="1" height="1"/><path class="qa35-2" d="M9,31V27H8v6H9V31Z"/><path class="qa35-3" d="M8,28H7v5H8V28Z"/><path class="qa35-2" d="M7,28V27H6v6H7V28Z"/><path class="qa35-3" d="M14,29v2h1V29Z"/><path class="qa35-3" d="M13,25v3h2v1h1V25H13Z"/><path class="qa35-5" d="M19,30H18V29H17v3h1V31h1v1h1V29H19Z"/><rect class="qa35-5" x="18" y="28" width="1" height="1"/><path class="qa35-5" d="M15,29v2h1V29Z"/><path class="qa35-5" d="M14,30V29h1V28H13v4h2V31H14Z"/><path class="qa35-5" d="M11,29v1H10V29H9v3h1V31h1v1h1V29Z"/><rect class="qa35-5" x="10" y="28" width="1" height="1"/><path class="qa35-2" d="M13,25H12v5h1V25Z"/><path class="qa35-2" d="M17,28V25H16v5h1V28Z"/><path class="qa35-2" d="M20,16h1V15H20Z"/><path class="qa35-4" d="M16,17V16H15v1H14V16H13v1H10v1h1v1h1V18h2v1h1V18h2v1h1V18h1V17H16Z"/><rect class="qa35-4" x="14" y="15" width="1" height="1"/><polygon class="qa35-4" points="13 21 14 21 14 22 15 22 15 21 16 21 16 20 13 20 13 21"/><path class="qa35-4" d="M14,10v1H12v2h1v1h3V12h2v1h1V11H18V10H14Z"/><path class="qa35-2" d="M19,17h1V16H19Z"/><path class="qa35-2" d="M10,16H9v1h1Z"/><path class="qa35-2" d="M8,15v1H9V15Z"/><rect class="qa35-2" x="14" y="16" width="1" height="1"/><path class="qa35-6" d="M18,12H16v1h2Z"/><path class="qa35-6" d="M12,12H11v1h1Z"/><path class="qa35-7" d="M10,20v1h1v1h1v1h5V22h2V20h1V17H19v1H18v1H16v2H15v1H14V21H13V19h1V18H12v1H11V18H10V17H9v3Z"/><path class="qa35-7" d="M15,18v1h1V18Z"/><path class="qa35-8" d="M18,23h1V22H18Z"/><path class="qa35-7" d="M18,24h1V23H18Z"/><path class="qa35-8" d="M17,24V23H16v1Z"/><path class="qa35-7" d="M16,25h1V24H16Z"/><path class="qa35-8" d="M13,24V23H12v1Z"/><path class="qa35-7" d="M12,24v1h1V24Z"/><path class="qa35-2" d="M14,19H13v1h3V19H14Z"/><path class="qa35-2" d="M16,18v1h1V18Z"/><path class="qa35-9" d="M19,14h1V11H19v3Z"/><rect class="qa35-9" x="18" y="10" width="1" height="1"/><path class="qa35-9" d="M10,13h1V12h1V11h2V10h4V9H17V8H12V9H10v1H9v1H8v3h2Z"/><path class="qa35-10" d="M19,15v1h1V15h1V14H19Z"/><path class="qa35-10" d="M19,14V13H16v1h3Z"/><path class="qa35-11" d="M18,16h1V14H16v2Z"/><path class="qa35-10" d="M18,16H16v1h3V16Z"/><path class="qa35-10" d="M14,16V15h1v1h1V14H13v2Z"/><path class="qa35-10" d="M13,14V13H10v1h3Z"/><path class="qa35-11" d="M13,16V14H10v2h3Z"/><path class="qa35-10" d="M13,17V16H10v1h3Z"/><path class="qa35-10" d="M10,15V14H8v1H9v1h1Z"/><path class="qa35-4" d="M7,28H8V27H9V26H6v1H7Z"/><rect class="qa35-2" x="5" y="26" width="1" height="1"/><path class="qa35-2" d="M10,26V25H9v2h1Z"/><path class="qa35-12" d="M7,20v1H9V19H8v1Z"/><path class="qa35-12" d="M5,23H6V21H4v1H5Z"/><path class="qa35-12" d="M7,26H8V25H9V23h2V21H9v1H8v2H6v1H7Z"/><path class="qa35-13" d="M7,24H8V22H9V21H7V20H8V19H6v1H5v1H6v2H5v2H6V24Z"/><path class="qa35-13" d="M10,24h1V23H9v2h1Z"/><path class="qa35-13" d="M8,25v1H9V25Z"/><path class="qa35-12" d="M4,23v1H5V23Z"/><path class="qa35-13" d="M9,20v1h1V20Z"/><path class="qa35-13" d="M7,25H6v1H7Z"/><path class="qa35-13" d="M5,22H4v1H5Z"/></svg>