<svg xmlns="http://www.w3.org/2000/svg" viewBox="0 0 29 33"><defs><style>polygon,rect,path{shape-rendering:crispedges;}.ua105-1{fill:#000000;}.ua105-2{fill:#db5800;}.ua105-3{fill:#b2622b;}.ua105-4{fill:#893a1f;}.ua105-5{fill:#ffffff;}.ua105-6{fill:#990000;}.ua105-7{fill:#29834f;}.ua105-8{fill:#ccc;}</style></defs><path class="ua105-1" d="M23,27H22v6h1V27Z"/><path class="ua105-2" d="M22,27H21v6h1V27Z"/><rect class="ua105-1" x="21" y="26" width="1" height="1"/><path class="ua105-1" d="M21,27H20v6h1V27Z"/><path class="ua105-2" d="M20,27h1V26H19V25H18V24H16v1h1v5H16V25H13v5H12V25h1V24H11v1H10v1H8v1H9v6H20V27Z"/><path class="ua105-1" d="M20,26h1V25H19v1Z"/><rect class="ua105-1" x="18" y="24" width="1" height="1"/><path class="ua105-1" d="M16,24h2V23H16Z"/><path class="ua105-1" d="M13,24v1h3V24H13Z"/><path class="ua105-3" d="M15,23H13v1h3V23Z"/><path class="ua105-1" d="M13,23H11v1h2Z"/><rect class="ua105-1" x="10" y="24" width="1" height="1"/><path class="ua105-1" d="M10,25H8v1h2Z"/><path class="ua105-1" d="M9,27H8v6H9V27Z"/><path class="ua105-2" d="M8,27H7v6H8V27Z"/><rect class="ua105-1" x="7" y="26" width="1" height="1"/><path class="ua105-1" d="M7,27H6v6H7V27Z"/><path class="ua105-1" d="M12,26v4h1V25H12Z"/><path class="ua105-1" d="M16,30h1V25H16v5Z"/><path class="ua105-3" d="M16,22V21h1V20h1V19h1V13H17v1h1v1H16v1H15v1H14V16H13V15H11V14H10v5h1v1h1v1h1v1h3Zm-4-3V18h1v1h3v1H13V19Z"/><path class="ua105-4" d="M18,15V14H17v1Z"/><rect class="ua105-4" x="16" y="13" width="1" height="1"/><rect class="ua105-1" x="14" y="14" width="1" height="1"/><path class="ua105-5" d="M16,13H13v1H12v1h1v1h3V15h1V14H16Zm-1,2H14V14h1Z"/><path class="ua105-4" d="M14,13h2V12H13v1Z"/><rect class="ua105-4" x="12" y="13" width="1" height="1"/><path class="ua105-4" d="M11,14v1h1V14Z"/><path class="ua105-1" d="M14,17h1V16H14Z"/><rect class="ua105-3" x="11" y="13" width="1" height="1"/><path class="ua105-3" d="M17,11H13v1h3v1h1V11Z"/><rect class="ua105-3" x="12" y="12" width="1" height="1"/><rect class="ua105-6" x="12" y="11" width="1" height="1"/><path class="ua105-6" d="M12,13V12H10v2h1V13Z"/><path class="ua105-6" d="M18,12H17v1h2V12Z"/><path class="ua105-2" d="M13,22H12V21H11V20H10V19H9V18H8v2H9v1h1v1h1v1h2Z"/><path class="ua105-2" d="M21,18H20v1H19v1H18v1H17v1H16v1h2V22h1V21h1V20h1V18Z"/><rect class="ua105-1" x="10" y="8" width="1" height="1"/><rect class="ua105-1" x="9" y="9" width="1" height="1"/><rect class="ua105-1" x="8" y="10" width="1" height="1"/><path class="ua105-1" d="M8,13V11H7v3H8Z"/><path class="ua105-1" d="M7,18v2H8V18Z"/><rect class="ua105-1" x="8" y="20" width="1" height="1"/><rect class="ua105-1" x="9" y="21" width="1" height="1"/><rect class="ua105-1" x="10" y="22" width="1" height="1"/><rect class="ua105-1" x="18" y="22" width="1" height="1"/><rect class="ua105-1" x="19" y="21" width="1" height="1"/><rect class="ua105-1" x="20" y="20" width="1" height="1"/><path class="ua105-1" d="M21,14h1V11H21v3Z"/><path class="ua105-1" d="M21,19v1h1V18H21Z"/><rect class="ua105-1" x="20" y="10" width="1" height="1"/><rect class="ua105-1" x="19" y="9" width="1" height="1"/><rect class="ua105-1" x="18" y="8" width="1" height="1"/><path class="ua105-1" d="M18,8V7H11V8h7Z"/><path class="ua105-1" d="M11,12h1V11H10v1Z"/><path class="ua105-1" d="M9,17v2h1V17Z"/><path class="ua105-1" d="M10,13V12H9v2h1Z"/><rect class="ua105-1" x="10" y="19" width="1" height="1"/><rect class="ua105-1" x="11" y="20" width="1" height="1"/><rect class="ua105-1" x="12" y="21" width="1" height="1"/><path class="ua105-1" d="M16,23V22H13v1h3Z"/><rect class="ua105-1" x="16" y="21" width="1" height="1"/><rect class="ua105-1" x="17" y="20" width="1" height="1"/><rect class="ua105-1" x="18" y="19" width="1" height="1"/><path class="ua105-1" d="M19,18v1h1V17H19Z"/><path class="ua105-1" d="M19,13v1h1V12H19Z"/><path class="ua105-1" d="M17,12h2V11H17Z"/><path class="ua105-1" d="M14,11h3V10H12v1h2Z"/><path class="ua105-7" d="M0,7V33H6V27H7V26H8V25h2V24h1V23H10V22H9V21H8V20H7V11H8V10H9V9h1V8h1V7h7V8h1V9h1v1h1v1h1v9H21v1H20v1H19v1H18v1h1v1h2v1h1v1h1v6h6V0H0Z"/><rect class="ua105-2" x="19" y="11" width="1" height="1"/><path class="ua105-2" d="M12,10h5v1h2V10H18V9H11v1H10v1h2Z"/><rect class="ua105-2" x="9" y="11" width="1" height="1"/><path class="ua105-5" d="M8,18H9V11H8v3H7v3H8Z"/><rect class="ua105-5" x="9" y="10" width="1" height="1"/><rect class="ua105-5" x="10" y="9" width="1" height="1"/><path class="ua105-5" d="M12,9h6V8H11V9Z"/><rect class="ua105-5" x="18" y="9" width="1" height="1"/><rect class="ua105-5" x="19" y="10" width="1" height="1"/><path class="ua105-8" d="M10,16V14H9v3h1Z"/><path class="ua105-5" d="M20,12v6h1V17h1V14H21V11H20Z"/><path class="ua105-8" d="M19,15v2h1V14H19Z"/><path class="ua105-8" d="M8,17H7v1H8Z"/><path class="ua105-8" d="M21,18h1V17H21Z"/><rect class="ua105-1" x="13" y="19" width="3" height="1"/><rect class="ua105-1" x="12" y="18" width="1" height="1"/></svg>