<svg xmlns="http://www.w3.org/2000/svg" viewBox="0 0 29 33"><defs><style>polygon,rect,path{shape-rendering:crispedges;}.aa160-1{fill:#7a982c;}.aa160-2{fill:#000000;}.aa160-3{fill:#e8b795;}.aa160-4{fill:#9b8100;}.aa160-5{fill:#ffffff;}.aa160-6{fill:#663228;}.aa160-7{fill:#fad000;}.aa160-8{fill:#663228;}.aa160-9{fill:#4922aa;}</style></defs><path class="aa160-1" d="M6,32V27H7V26H8V25h2V23h1V22h1V21H9V20H8V19H9V16H8V14H9V12H8v1H7V12H8V11H9V10h1V9h2V8h5V9h2v1h1v1h1v1h1v1H21V12H20v2h1v2H20v3h1v1H20v1H17v1h1v1h1v2h2v1h1v1h1v6h6V0H0V33H6Z"/><path class="aa160-2" d="M23,31V27H22v6h1Z"/><rect class="aa160-2" x="21" y="26" width="1" height="1"/><path class="aa160-3" d="M22,31V27H21v6h1Z"/><rect class="aa160-3" x="20" y="26" width="1" height="1"/><path class="aa160-2" d="M21,31V27H20v6h1Z"/><path class="aa160-2" d="M20,26h1V25H19v1Z"/><path class="aa160-4" d="M20,31V26H19V25H18v1H17v1H16v1H13V27H12V26H11V25H10v1H9v7H20Z"/><path class="aa160-3" d="M15,25h1V23H13v2Z"/><path class="aa160-2" d="M10,26V25H8v1Z"/><rect class="aa160-3" x="8" y="26" width="1" height="1"/><path class="aa160-2" d="M9,31V27H8v6H9Z"/><rect class="aa160-2" x="7" y="26" width="1" height="1"/><path class="aa160-3" d="M8,31V27H7v6H8Z"/><path class="aa160-2" d="M7,31V27H6v6H7Z"/><rect class="aa160-2" x="20" y="15" width="1" height="1"/><rect class="aa160-2" x="19" y="14" width="1" height="1"/><path class="aa160-3" d="M10,13v1h2V13Z"/><path class="aa160-3" d="M13,22h3V21h1V19H16v1H13V19h3V18h1v1h1V18h1V16H16V14h2V13H16V12H15V11H14v1H12v1h1v3H10v2h1v1h1v2h1Zm1-6h1v1H14Z"/><rect class="aa160-3" x="19" y="15" width="1" height="1"/><rect class="aa160-3" x="9" y="15" width="1" height="1"/><rect class="aa160-2" x="17" y="20" width="1" height="1"/><rect class="aa160-2" x="11" y="20" width="1" height="1"/><rect class="aa160-2" x="9" y="14" width="1" height="1"/><rect class="aa160-2" x="8" y="15" width="1" height="1"/><rect class="aa160-2" x="14" y="16" width="1" height="1"/><path class="aa160-5" d="M11,14H10v2h1Z"/><path class="aa160-5" d="M12,15v1h1V14H12Z"/><path class="aa160-5" d="M17,14H16v2h1Z"/><path class="aa160-5" d="M19,14H18v2h1Z"/><path class="aa160-2" d="M12,14H11v2h1Z"/><path class="aa160-2" d="M18,14H17v2h1Z"/><rect class="aa160-6" x="18" y="13" width="1" height="1"/><rect class="aa160-6" x="16" y="12" width="1" height="1"/><rect class="aa160-6" x="12" y="13" width="1" height="1"/><path class="aa160-2" d="M18,25h1V23H18Z"/><rect class="aa160-2" x="17" y="25" width="1" height="1"/><rect class="aa160-7" x="17" y="24" width="1" height="1"/><rect class="aa160-5" x="17" y="23" width="1" height="1"/><rect class="aa160-2" x="16" y="26" width="1" height="1"/><rect class="aa160-5" x="16" y="25" width="1" height="1"/><rect class="aa160-7" x="15" y="26" width="1" height="1"/><path class="aa160-2" d="M14,27H13v1h3V27Z"/><rect class="aa160-5" x="14" y="26" width="1" height="1"/><rect class="aa160-7" x="13" y="26" width="1" height="1"/><path class="aa160-2" d="M14,26h2V25H13v1Z"/><rect class="aa160-2" x="12" y="26" width="1" height="1"/><rect class="aa160-5" x="12" y="25" width="1" height="1"/><path class="aa160-2" d="M12,24v1h1V23h3v2h1V23h1V22H17V21H16v1H13V21H12v1H11v1h1Z"/><rect class="aa160-2" x="11" y="25" width="1" height="1"/><rect class="aa160-7" x="11" y="24" width="1" height="1"/><rect class="aa160-5" x="11" y="23" width="1" height="1"/><path class="aa160-2" d="M11,24V23H10v2h1Z"/><path class="aa160-8" d="M19,17v1H18v1H17v1h1v1h2V20h1V19H20V16H19Z"/><path class="aa160-8" d="M12,20V19H11V18H10V16H9v3H8v1H9v1h2V20Z"/><rect class="aa160-2" x="13" y="19" width="3" height="1"/><rect class="aa160-2" x="16" y="18" width="1" height="1"/><rect class="aa160-9" x="21" y="12" width="1" height="1"/><path class="aa160-9" d="M10,13h2V12h2V11h1v1h2v1h2v1h1V12h1V11H20V10H19V9H17V8H12V9H10v1H9v1H8v1H9v2h1Z"/><rect class="aa160-9" x="20" y="14" width="1" height="1"/><rect class="aa160-9" x="8" y="14" width="1" height="1"/><rect class="aa160-9" x="7" y="12" width="1" height="1"/></svg>