<svg xmlns="http://www.w3.org/2000/svg" viewBox="0 0 29 33"><defs><style>polygon,rect,path{shape-rendering:crispedges;}.xa203-1{fill:#6b4f99;}.xa203-2{fill:#ffffff;}.xa203-3{fill:#000000;}.xa203-4{fill:#e8b795;}.xa203-5{fill:#00e070;}.xa203-6{fill:#ffffff;}.xa203-7{fill:#00774c;}.xa203-8{fill:#990000;}</style></defs><rect class="xa203-1" x="18" y="21" width="1" height="1"/><path class="xa203-1" d="M0,33H6V27H7V26H8V25h2V22H9V21H8V20H9V17H8V12H9V10h1V9h1V8h7V9h1v1h1v2h1v6H20v2h1v1H20v1H19v3h2v1h1v1h1v6h6V0H0Z"/><rect class="xa203-1" x="10" y="21" width="1" height="1"/><rect class="xa203-2" x="17" y="22" width="1" height="1"/><path class="xa203-2" d="M18,24H16v1H15v2H14v1h1v1H14v2h2V30h1v1h3V26H19V25H18Zm-1,3H16V26h1Zm2,1v1H18V28Z"/><path class="xa203-2" d="M21,28v2h1V27H21Z"/><path class="xa203-2" d="M21,31v2h1V31Z"/><path class="xa203-2" d="M13,32H10v1h4V32Z"/><path class="xa203-2" d="M18,32H15v1h4V32Z"/><path class="xa203-2" d="M7,30H8V27H7v3Z"/><path class="xa203-2" d="M7,31v2H8V31Z"/><path class="xa203-2" d="M9,26v5h3V30h1V27H12V26h1v1h1V25H13V24H11v1H10v1Zm2,2v1H10V28Z"/><rect class="xa203-2" x="11" y="22" width="1" height="1"/><path class="xa203-3" d="M23,27H22v6h1V27Z"/><rect class="xa203-3" x="21" y="26" width="1" height="1"/><path class="xa203-3" d="M21,30V27H20v4H14V27H13v4H9V27H8v6H9V32H20v1h1V30Z"/><path class="xa203-3" d="M20,26h1V25H19v1Z"/><path class="xa203-3" d="M18,23v2h1V22H18Z"/><rect class="xa203-3" x="15" y="24" width="1" height="1"/><path class="xa203-3" d="M15,26V25H14v2h1Z"/><rect class="xa203-3" x="13" y="24" width="1" height="1"/><path class="xa203-4" d="M15,24h1V23H13v1h1v1h1Z"/><path class="xa203-3" d="M11,24V22H10v3h1Z"/><path class="xa203-3" d="M10,26V25H8v1h2Z"/><rect class="xa203-3" x="7" y="26" width="1" height="1"/><path class="xa203-3" d="M7,30V27H6v6H7V30Z"/><path class="xa203-4" d="M12,21h1v1h3V21h1V20h1V19h1V16h1V15H16V14h3V13H16V12h1V11H16V10H15v1H14v1H13v1H12v1h1v1H10v4h1v1h1Zm2-5h1v1H14Zm-2,2h1v1h3v1H13V19H12Z"/><path class="xa203-3" d="M19,16v3h1V16Z"/><rect class="xa203-3" x="18" y="19" width="1" height="1"/><path class="xa203-3" d="M14,23h2v1h1V22h1V20H17v1H16v1H13V21H12V20H11v2h1v2h1V23Z"/><rect class="xa203-3" x="10" y="19" width="1" height="1"/><path class="xa203-3" d="M10,18H9v1h1Z"/><rect class="xa203-3" x="14" y="16" width="1" height="1"/><rect class="xa203-5" x="10" y="28" width="1" height="1"/><path class="xa203-5" d="M12,31h1V30H12Z"/><path class="xa203-5" d="M15,28H14v1h1Z"/><path class="xa203-5" d="M14,32v1h1V32Z"/><rect class="xa203-5" x="12" y="26" width="1" height="1"/><path class="xa203-5" d="M16,30v1h1V30Z"/><rect class="xa203-5" x="18" y="28" width="1" height="1"/><rect class="xa203-5" x="16" y="26" width="1" height="1"/><path class="xa203-5" d="M9,27V26H8v1Z"/><path class="xa203-5" d="M19,32v1h1V32Z"/><path class="xa203-5" d="M9,32v1h1V32Z"/><path class="xa203-5" d="M7,31H8V30H7Z"/><path class="xa203-5" d="M21,31h1V30H21Z"/><path class="xa203-5" d="M20,27h1V26H20Z"/><path class="xa203-5" d="M11,23v1h1V23Z"/><path class="xa203-5" d="M17,24h1V23H17Z"/><path class="xa203-6" d="M13,15V14H12v1Z"/><path class="xa203-6" d="M11,14H10v1h1Z"/><path class="xa203-6" d="M18,15h1V14H18Z"/><path class="xa203-6" d="M16,14v1h1V14Z"/><path class="xa203-3" d="M12,15V14H11v1Z"/><path class="xa203-3" d="M17,14v1h1V14Z"/><path class="xa203-7" d="M16,13h2V12H16Z"/><rect class="xa203-3" x="13" y="19" width="3" height="1"/><rect class="xa203-3" x="12" y="18" width="1" height="1"/><path class="xa203-8" d="M19,20H18v1h1v1h1V21h1V20H20V19H19Z"/><path class="xa203-8" d="M11,21V20H10V19H9v1H8v1H9v1h1V21Z"/><path class="xa203-8" d="M10,17V14h2V13h1V12h1V11h1V10h1v1h1v1h1v1h1v2h1v3h1V12H20V10H19V9H18V8H11V9H10v1H9v2H8v5H9v1h1Z"/></svg>