<svg xmlns="http://www.w3.org/2000/svg" viewBox="0 0 29 33"><defs><style>polygon,rect,path{shape-rendering:crispedges;}.ya168-1{fill:#d14646;}.ya168-2{fill:#000000;}.ya168-3{fill:#8ab2b2;}.ya168-4{fill:#ce8452;}.ya168-5{fill:#ffffff;}.ya168-6{fill:#663228;}.ya168-7{fill:#663228;}.ya168-8{fill:#ff1d99;}.ya168-9{fill:#455054;}.ya168-10{fill:#00af68;}</style></defs><path class="ya168-1" d="M0,33H8V32H6V31H5V22H6V21H7V20H5v1H2V17H5V16H8V15H9V11h1V9h1V7h1V6H11V5h2V6h2V7h1V9h2v1h1v1h1v4h1v1H20v3H19v1H18v1H17v2h1v1h1v1h2v1h1v1h1v6h6V0H0Z"/><path class="ya168-1" d="M8,19v3H9v2H8v1h2V24h1V23h1V21H11V20H10V19H9V16H8v3Z"/><path class="ya168-2" d="M6,24V22H5v9H6V24Z"/><path class="ya168-2" d="M23,27H22v6h1V27Z"/><path class="ya168-3" d="M22,27H21v6h1V27Z"/><rect class="ya168-2" x="21" y="26" width="1" height="1"/><path class="ya168-2" d="M21,27H20v6h1V27Z"/><path class="ya168-3" d="M20,27h1V26H19V25H18v1H16V25H15v2H14V25H13v1H11V25H10v1H8v1H9v6h5V32h1v1h5V27Zm-5,4H14V30h1Zm0-2H14V28h1Z"/><path class="ya168-2" d="M20,26h1V25H19v1Z"/><rect class="ya168-3" x="16" y="24" width="1" height="1"/><rect class="ya168-2" x="15" y="24" width="1" height="1"/><rect class="ya168-2" x="14" y="32" width="1" height="1"/><rect class="ya168-2" x="14" y="30" width="1" height="1"/><rect class="ya168-2" x="14" y="28" width="1" height="1"/><path class="ya168-2" d="M14,26v1h1V25H14Z"/><rect class="ya168-2" x="13" y="24" width="1" height="1"/><path class="ya168-4" d="M16,24V23H13v1h1v1h1V24Z"/><rect class="ya168-3" x="12" y="24" width="1" height="1"/><path class="ya168-2" d="M12,24h1V22H12v1H11v1H10v1h1v1h2V25H12Z"/><path class="ya168-2" d="M9,27H8V26h2V25H8V24H7v7H6v1H8v1H9V27Z"/><path class="ya168-3" d="M7,30V24H6v7H7Z"/><rect class="ya168-2" x="20" y="15" width="1" height="1"/><path class="ya168-2" d="M19,14v1h1V11H19v3Z"/><path class="ya168-4" d="M10,16v2h1v1h1v1h1V19h3V18h1v1h1V18h1V16h1V15H16V14h2V13H16V12h2v1h1V11H18V10H16v1H14V10H11v1H10v2h1V12h2v1H11v1h2v1H9v1Zm4,0h1v1H14Z"/><path class="ya168-4" d="M14,21h2V20H13v1Z"/><rect class="ya168-4" x="16" y="19" width="1" height="1"/><rect class="ya168-2" x="18" y="10" width="1" height="1"/><path class="ya168-2" d="M16,23v1h1v1H16v1h2V25h1V24H18V23H17V22H16Z"/><path class="ya168-2" d="M12,10h1V9H11v1Z"/><path class="ya168-2" d="M17,10h1V9H16v1Z"/><path class="ya168-2" d="M11,10H10v1h1Z"/><rect class="ya168-2" x="8" y="15" width="1" height="1"/><rect class="ya168-2" x="14" y="16" width="1" height="1"/><path class="ya168-5" d="M18,14v1h1V14Z"/><path class="ya168-5" d="M13,15V14H12v1Z"/><path class="ya168-2" d="M17,14H16v1h2V14Z"/><path class="ya168-2" d="M12,15V14H10V11H9v4h3Z"/><path class="ya168-6" d="M19,13H18v1h1Z"/><rect class="ya168-6" x="16" y="12" width="2" height="1"/><path class="ya168-6" d="M11,14V13H10v1Z"/><rect class="ya168-6" x="11" y="12" width="2" height="1"/><path class="ya168-7" d="M19,17v1H18v1H17v1H16v1H13V20H12V19H11V18H10V16H9v3h1v1h1v1h1v1h1v1h3V22h1V21h1V20h1V19h1V16H19Z"/><rect class="ya168-2" x="13" y="19" width="3" height="1"/><rect class="ya168-2" x="16" y="18" width="1" height="1"/><path class="ya168-8" d="M13,10h1v1h2V7H15V6H13V5H11V6h1V7H11V9h2Z"/><path class="ya168-8" d="M11,9H10v1h1Z"/><path class="ya168-4" d="M7,24H8V22H6v2Z"/><path class="ya168-9" d="M8,22V20H7v2Z"/><path class="ya168-2" d="M7,21H6v1H7Z"/><path class="ya168-2" d="M9,22H8v2H9Z"/><path class="ya168-10" d="M8,19V16H6v4H8Z"/><path class="ya168-5" d="M6,16H5v1H4v4H5V20H6V16Z"/><path class="ya168-10" d="M4,17H2v4H4V17Z"/><rect class="ya168-8" x="10" y="9" width="1" height="1"></rect></svg>