<svg xmlns="http://www.w3.org/2000/svg" viewBox="0 0 29 33"><defs><style>polygon,rect,path{shape-rendering:crispedges;}.qa220-1{fill:#e55b35;}.qa220-2{fill:#000000;}.qa220-3{fill:#00af68;}.qa220-4{fill:#ce8452;}.qa220-5{fill:#9fffc6;}.qa220-6{fill:#ffffff;}.qa220-7{fill:#663228;}.qa220-8{fill:#dbc6d2;}.qa220-9{fill:#508e91;}</style></defs><path class="qa220-1" d="M6,32V27H7V26H8V25h2V24h1V23H10V22h1V20H10V19H9V16H8V12H9V11H8V10H9V9H8V8h2V7h1V8h1V6h1V7h1V8h1V7h1V6h1V7h1V8h1V7h1V8H19V9h2v2H20v1h1v1H20v1h1v2H20v3H19v1H18v2h1v1H18v1h1v1h2v1h1v1h1v6h6V0H0V33H6Z"/><path class="qa220-2" d="M23,27H22v6h1V27Z"/><path class="qa220-3" d="M22,27H21v6h1V27Z"/><rect class="qa220-2" x="21" y="26" width="1" height="1"/><path class="qa220-2" d="M21,27H20v6h1V27Z"/><path class="qa220-3" d="M19,32V31H18v1H17V30H16v1H15v1H13V30H12v2H11V31H10v1H9v1H20V32Z"/><rect class="qa220-3" x="10" y="29" width="1" height="1"/><path class="qa220-3" d="M16,25h1v4h1V28h1v1h1V27h1V26H19V25H18V24H16Z"/><rect class="qa220-3" x="18" y="29" width="1" height="1"/><path class="qa220-3" d="M9,27v2h1V28h1v1h1V25h1V24H11v1H10v1H8v1Z"/><path class="qa220-2" d="M20,26h1V25H19v1Z"/><rect class="qa220-2" x="18" y="24" width="1" height="1"/><rect class="qa220-2" x="18" y="22" width="1" height="1"/><rect class="qa220-3" x="17" y="22" width="1" height="1"/><path class="qa220-2" d="M16,25V24H13v1h3Z"/><path class="qa220-4" d="M16,24V23H13v1h3Z"/><path class="qa220-2" d="M13,23h3v1h2V23H17V22h1V20H17v1H16v1H13V21H12V20H11v2h1v1H11v1h2Z"/><rect class="qa220-3" x="11" y="22" width="1" height="1"/><rect class="qa220-2" x="10" y="24" width="1" height="1"/><rect class="qa220-2" x="10" y="22" width="1" height="1"/><path class="qa220-2" d="M10,25H8v1h2Z"/><path class="qa220-2" d="M9,31V27H8v6H9V31Z"/><path class="qa220-3" d="M8,27H7v6H8V27Z"/><rect class="qa220-2" x="7" y="26" width="1" height="1"/><path class="qa220-2" d="M7,27H6v6H7V27Z"/><path class="qa220-3" d="M13,28h2v1h1V25H13v3Z"/><path class="qa220-3" d="M14,29v2h1V29Z"/><path class="qa220-5" d="M19,30H18V29H17v3h1V31h1v1h1V29H19Z"/><rect class="qa220-5" x="18" y="28" width="1" height="1"/><path class="qa220-5" d="M15,29v2h1V29Z"/><path class="qa220-5" d="M14,30V29h1V28H13v4h2V31H14Z"/><path class="qa220-5" d="M11,29v1H10V29H9v3h1V31h1v1h1V29Z"/><rect class="qa220-5" x="10" y="28" width="1" height="1"/><path class="qa220-2" d="M13,27V25H12v5h1V27Z"/><path class="qa220-2" d="M17,28V25H16v5h1V28Z"/><path class="qa220-2" d="M20,16h1V15H20Z"/><path class="qa220-4" d="M13,13v1h3V12H15V10H14v1H13v1H12v1Z"/><rect class="qa220-4" x="14" y="15" width="1" height="1"/><rect class="qa220-4" x="10" y="11" width="1" height="1"/><polygon class="qa220-4" points="18 11 18 10 17 10 17 11 16 11 16 12 18 12 18 11"/><rect class="qa220-4" x="11" y="10" width="1" height="1"/><path class="qa220-4" d="M12,21h1v1h3V21h1V20h1V19h1V17H16V16H15v1H14V16H13v1H10v2h1v1h1Zm1-2h3V18h1v1H16v1H13Z"/><path class="qa220-2" d="M19,17v2h1V16H19Z"/><rect class="qa220-2" x="18" y="19" width="1" height="1"/><rect class="qa220-2" x="10" y="19" width="1" height="1"/><path class="qa220-2" d="M10,16H9v3h1V16Z"/><path class="qa220-2" d="M8,15v1H9V15Z"/><rect class="qa220-2" x="14" y="16" width="1" height="1"/><path class="qa220-6" d="M11,15V14H10v2h1Z"/><path class="qa220-6" d="M12,14v2h1V14Z"/><path class="qa220-6" d="M17,15V14H16v2h1Z"/><path class="qa220-6" d="M18,15v1h1V14H18Z"/><path class="qa220-2" d="M11,15v1h1V14H11Z"/><polygon class="qa220-2" points="18 14 17 14 17 15 17 16 18 16 18 15 18 14"/><path class="qa220-7" d="M17,13h1V12H16v1Z"/><rect class="qa220-7" x="11" y="12" width="1" height="1"/><rect class="qa220-2" x="13" y="19" width="3" height="1"/><rect class="qa220-2" x="16" y="18" width="1" height="1"/><path class="qa220-8" d="M10,13h1V12H10V11h1V10h1v1H11v1h2V11h1V10h1v2h1V11h1V10h1v3h1v1h1V13h1V12H20V11h1V9H19V8H18V7H17V6H16V7H15V8H14V7H13V6H12V8H11V7H10V8H8V9H9v1H8v1H9v1H8v2h2Z"/><rect class="qa220-8" x="19" y="7" width="1" height="1"/><path class="qa220-9" d="M19,15v1h1V15h1V14H19Z"/><path class="qa220-9" d="M18,16H16v1h3V16Z"/><polygon class="qa220-9" points="12 14 13 14 13 13 12 13 11 13 10 13 10 14 11 14 12 14"/><path class="qa220-9" d="M16,13v1h3V13H16Z"/><path class="qa220-9" d="M13,14v2h1V15h1v1h1V14Z"/><path class="qa220-9" d="M11,16H10v1h3V16H11Z"/><path class="qa220-9" d="M10,15V14H8v1H9v1h1Z"/></svg>