<svg xmlns="http://www.w3.org/2000/svg" viewBox="0 0 29 33"><defs><style>polygon,rect,path{shape-rendering:crispedges;}.cb274-1{fill:#d4a122;}.cb274-2{fill:#000000;}.cb274-3{fill:#316a6d;}.cb274-4{fill:#ffffff;}.cb274-5{fill:#e8b795;}.cb274-6{fill:#8e703c;}.cb274-7{fill:#8e703c;}.cb274-8{fill:#cc3232;}.cb274-9{fill:#fad000;}</style></defs><path class="cb274-1" d="M0,33H6V27H7V26H8V25h2V24h1V23h1V21H11V20H10V19H9V16H8V15H9V13H8V9H9V8h1V7h1V6h7V7h1V8h1V9h1v4H20v2h1v1H20v3H19v1H18v1H17v2h1v1h1v1h2v1h1v1h1v6h6V0H0Z"/><path class="cb274-2" d="M23,27H22v6h1V27Z"/><path class="cb274-3" d="M22,27H21v6h1V27Z"/><rect class="cb274-2" x="21" y="26" width="1" height="1"/><path class="cb274-2" d="M21,27H20v6h1V27Z"/><path class="cb274-3" d="M20,27h1V26H18v3H17v4h3V27Z"/><path class="cb274-2" d="M17,29H16v4h1V29Z"/><path class="cb274-4" d="M16,26V25H13v1h3Z"/><rect class="cb274-4" x="12" y="28" width="1" height="1"/><path class="cb274-4" d="M16,29H13v4h1V32h1v1h1V29Zm-1,2H14V30h1Z"/><rect class="cb274-4" x="16" y="28" width="1" height="1"/><rect class="cb274-4" x="15" y="23" width="1" height="1"/><rect class="cb274-2" x="14" y="32" width="1" height="1"/><rect class="cb274-2" x="14" y="30" width="1" height="1"/><rect class="cb274-4" x="13" y="23" width="1" height="1"/><path class="cb274-2" d="M13,29H12v4h1V29Z"/><path class="cb274-3" d="M12,29H11V26H8v1H9v6h3V29Z"/><path class="cb274-2" d="M11,26V24H10v1H8v1h3Z"/><path class="cb274-2" d="M9,27H8v6H9V27Z"/><path class="cb274-3" d="M8,27H7v6H8V27Z"/><rect class="cb274-2" x="7" y="26" width="1" height="1"/><path class="cb274-2" d="M7,27H6v6H7V27Z"/><rect class="cb274-2" x="20" y="15" width="1" height="1"/><rect class="cb274-5" x="9" y="15" width="1" height="1"/><rect class="cb274-5" x="10" y="12" width="1" height="1"/><path class="cb274-5" d="M17,13V12h1V11H11v1h2v1H11v1h5V13Z"/><path class="cb274-5" d="M12,19V18h5v2h1V19h1V16H18v1H16V16H15v1H14V16H13v1H11V16H10v3h1v1h1Z"/><path class="cb274-5" d="M17,13v1h2V13Z"/><rect class="cb274-5" x="19" y="15" width="1" height="1"/><rect class="cb274-5" x="14" y="15" width="1" height="1"/><path class="cb274-5" d="M13,20v2h3V20Z"/><path class="cb274-2" d="M19,17v2h1V16H19Z"/><rect class="cb274-2" x="18" y="19" width="1" height="1"/><rect class="cb274-2" x="17" y="20" width="1" height="1"/><rect class="cb274-2" x="11" y="20" width="1" height="1"/><rect class="cb274-2" x="10" y="19" width="1" height="1"/><path class="cb274-2" d="M10,16H9v3h1V16Z"/><rect class="cb274-2" x="8" y="15" width="1" height="1"/><rect class="cb274-2" x="14" y="16" width="1" height="1"/><rect class="cb274-6" x="10" y="13" width="1" height="1"/><rect class="cb274-6" x="11" y="12" width="2" height="1"/><rect class="cb274-6" x="16" y="13" width="1" height="1"/><path class="cb274-6" d="M17,13h2V12H17Z"/><path class="cb274-7" d="M13,20V19H12v2h1Z"/><path class="cb274-7" d="M17,19V18H13v1h3v2h1V19Z"/><path class="cb274-2" d="M16,19H13v1h3Z"/><path class="cb274-2" d="M12,18v1h1V18Z"/><path class="cb274-8" d="M10,13V12h1V11h7v1h1v2h1V13h1V9H20V8H19V7H18V6H11V7H10V8H9V9H8v4H9v1h1Z"/><path class="cb274-2" d="M18,26h3V25H19V24H18v2Z"/><path class="cb274-2" d="M17,27H16v1h1v1h1V26H17Z"/><path class="cb274-9" d="M17,25v1h1V25Z"/><path class="cb274-4" d="M17,25h1V24H17Z"/><rect class="cb274-4" x="16" y="26" width="1" height="1"/><rect class="cb274-9" x="15" y="27" width="1" height="1"/><path class="cb274-2" d="M15,28H13v1h3V28Z"/><path class="cb274-4" d="M14,27v1h1V27Z"/><path class="cb274-9" d="M13,27v1h1V27Z"/><path class="cb274-2" d="M14,27h2V26H13v1Z"/><path class="cb274-2" d="M13,28V27H12V26H11v3h1V28Z"/><rect class="cb274-4" x="12" y="26" width="1" height="1"/><path class="cb274-2" d="M12,25v1h1V25h3v1h1V24h1V23H17V21H16v1H13V21H12v2H11v1h1Zm3-2h1v1H15Zm-2,0h1v1H13Z"/><path class="cb274-9" d="M12,25H11v1h1Z"/><path class="cb274-4" d="M12,25V24H11v1Z"/><path class="cb274-2" d="M10,16h1v1h2V16h1V15h1v1h1v1h2V16h1V15h1V14H9v1h1Z"/></svg>