<svg xmlns="http://www.w3.org/2000/svg" viewBox="0 0 29 33"><defs><style>polygon,rect,path{shape-rendering:crispedges;}.pa36-1{fill:#6b4f99;}.pa36-2{fill:#000000;}.pa36-3{fill:#d8be00;}.pa36-4{fill:#e8b795;}.pa36-5{fill:#ffed9f;}.pa36-6{fill:#ffffff;}.pa36-7{fill:#9b8100;}.pa36-8{fill:#9b8100;}.pa36-9{fill:#cbed03;}.pa36-10{fill:#ff6aa5;}.pa36-11{fill:#ff1f4a;}.pa36-12{fill:#ff791f;}.pa36-13{fill:#fad000;}.pa36-14{fill:#b6dc00;}.pa36-15{fill:#00af68;}.pa36-16{fill:#38a6e8;}.pa36-17{fill:#0068ff;}.pa36-18{fill:#6e12ff;}.pa36-19{fill:#ff1d99;}.pa36-20{fill:#cc2f76;}</style></defs><rect class="pa36-1" x="9" y="24" width="1" height="1"/><rect class="pa36-1" x="10" y="23" width="1" height="1"/><path class="pa36-1" d="M0,33H6V26H7V25H8V24H7V23H6V20H7V19H9V16H8V15H9V11h1V10h1V9h7v1h1v1h1v4h1v1H20v3H19v1H18v2h1v1H18v1h1v1h2v1h1v1h1v6h6V0H0Z"/><path class="pa36-2" d="M23,27H22v6h1V27Z"/><path class="pa36-3" d="M22,27H21v6h1V27Z"/><rect class="pa36-2" x="21" y="26" width="1" height="1"/><path class="pa36-2" d="M21,27H20v6h1V27Z"/><path class="pa36-3" d="M20,27h1V26H19V25H18V24H16v1h1v4h1v1h1v3h1V27Z"/><path class="pa36-3" d="M10,30h1V29h1V25h1V24H11v1H10v3H9v5h1V30Z"/><path class="pa36-2" d="M20,26h1V25H19v1Z"/><rect class="pa36-2" x="18" y="24" width="1" height="1"/><rect class="pa36-2" x="18" y="22" width="1" height="1"/><rect class="pa36-3" x="17" y="22" width="1" height="1"/><path class="pa36-2" d="M17,22h1V21H17Z"/><path class="pa36-2" d="M13,24v1h3V24H13Z"/><path class="pa36-4" d="M15,23H13v1h3V23Z"/><rect class="pa36-3" x="11" y="22" width="1" height="1"/><rect class="pa36-2" x="11" y="21" width="1" height="1"/><rect class="pa36-2" x="10" y="24" width="1" height="1"/><path class="pa36-2" d="M9,26v2h1V25H9Z"/><path class="pa36-2" d="M9,28H8v5H9V28Z"/><path class="pa36-3" d="M8,28H7v5H8V28Z"/><path class="pa36-2" d="M7,28V26H6v7H7V28Z"/><path class="pa36-3" d="M13,25v3h3V25H13Z"/><path class="pa36-3" d="M16,32H12v1h5V32Z"/><rect class="pa36-3" x="16" y="30" width="1" height="1"/><rect class="pa36-3" x="12" y="30" width="1" height="1"/><path class="pa36-5" d="M19,30H18V29H17v2H16V28H13v3H12V29H11v1H10v3h2V32h5v1h2V30Z"/><path class="pa36-2" d="M13,25H12v5h1V25Z"/><path class="pa36-2" d="M16,28v2h1V25H16v3Z"/><rect class="pa36-2" x="20" y="15" width="1" height="1"/><path class="pa36-2" d="M19,13v2h1V12H19Z"/><path class="pa36-4" d="M18,12v1h1V11H18Z"/><path class="pa36-4" d="M10,14h2V13H10Z"/><path class="pa36-4" d="M10,17v1h1v1h1v1h1v1h3V20h1V19h1V18h1V16h1V15H16V14h2V13H16V12h1V11H16V10H13v1H12v2h1v2H9v1h1Zm4-1h1v1H14Zm0,3h1v1H14Z"/><rect class="pa36-4" x="10" y="11" width="1" height="1"/><rect class="pa36-4" x="11" y="10" width="1" height="1"/><rect class="pa36-4" x="17" y="10" width="1" height="1"/><path class="pa36-2" d="M17,22H16v2h2V23H17Z"/><path class="pa36-2" d="M13,22H12v1H11v1h2V22Z"/><path class="pa36-2" d="M10,14V12H9v3h1Z"/><rect class="pa36-2" x="8" y="15" width="1" height="1"/><rect class="pa36-2" x="14" y="16" width="1" height="1"/><path class="pa36-6" d="M12,15h1V14H12Z"/><path class="pa36-6" d="M10,14v1h1V14Z"/><path class="pa36-6" d="M18,14v1h1V14Z"/><path class="pa36-6" d="M16,14v1h1V14Z"/><path class="pa36-2" d="M11,14v1h1V14Z"/><path class="pa36-2" d="M17,14v1h1V14Z"/><path class="pa36-7" d="M19,13H18v1h1Z"/><polygon class="pa36-7" points="17 12 16 12 16 13 18 13 18 12 17 12"/><path class="pa36-7" d="M13,14V13H12v1Z"/><path class="pa36-7" d="M10,12v1h2V12H10Z"/><path class="pa36-8" d="M10,20h1v1h1v1h1v1h3V22h1V21h1V20h1V19h1V16H19v2H18v1H17v1H16v1H13V20H12V19H11V18H10V16H9v3h1Z"/><rect class="pa36-2" x="14" y="19" width="1" height="1"/><path class="pa36-9" d="M20,12V11H19v1Z"/><rect class="pa36-9" x="18" y="10" width="1" height="1"/><path class="pa36-9" d="M12,11h1V10h3v1h1V10h1V9H11v1h1Z"/><rect class="pa36-9" x="17" y="11" width="1" height="1"/><path class="pa36-9" d="M11,12h1V11H11Z"/><rect class="pa36-9" x="10" y="10" width="1" height="1"/><path class="pa36-9" d="M10,11H9v1h1Z"/><path class="pa36-6" d="M9,26V24H8v2Z"/><rect class="pa36-10" x="8" y="21" width="1" height="1"/><path class="pa36-11" d="M10,24V23H8v1h2Z"/><rect class="pa36-12" x="7" y="23" width="1" height="1"/><path class="pa36-13" d="M7,21V20H6v2H7Z"/><path class="pa36-14" d="M9,19H7v1H9Z"/><rect class="pa36-15" x="9" y="19" width="1" height="1"/><rect class="pa36-15" x="10" y="20" width="1" height="1"/><path class="pa36-16" d="M11,22V21H10v2h1Z"/><path class="pa36-17" d="M9,22H8v1h2V22Z"/><path class="pa36-18" d="M8,22V21H7v2H8Z"/><path class="pa36-19" d="M8,21H9V20H7v1Z"/><path class="pa36-20" d="M10,22V20H9v2Z"/><path class="pa36-12" d="M6,22v1H7V22Z"/><path class="pa36-2" d="M8,25H7v1H8Z"/><path class="pa36-4" d="M8,28H9V26H7v2Z"/></svg>