<svg xmlns="http://www.w3.org/2000/svg" viewBox="0 0 29 33"><defs><style>polygon,rect,path{shape-rendering:crispedges;}.ba184-1{fill:#d4a122;}.ba184-2{fill:#000000;}.ba184-3{fill:#ce8452;}.ba184-4{fill:#a37e94;}.ba184-5{fill:#ffffff;}.ba184-6{fill:#4922aa;}.ba184-7{fill:#ffffff;}.ba184-8{fill:#4922aa;}.ba184-9{fill:#db5800;}.ba184-10{fill:#d5eae6;}.ba184-11{fill:#daeee9;}.ba184-12{fill:#d1e6db;}.ba184-13{fill:#e8b100;}.ba184-14{fill:#d39200;}</style></defs><path class="ba184-1" d="M0,33H6V27H7V26H8V25h2V24h2V22H11V21H10V20H9V16H8V15H9V13H8V9H9V8h1V7h1V6h7V7h1V8h1V9h1v4H20v2h1v1H20v4H19v1H18v1H17v2h3V23h3v1h1v6H23v3h6V0H0Z"/><path class="ba184-2" d="M7,27H6v6H7V27Z"/><rect class="ba184-2" x="7" y="26" width="1" height="1"/><path class="ba184-3" d="M8,27H7v6H8V27Z"/><rect class="ba184-3" x="8" y="26" width="1" height="1"/><path class="ba184-2" d="M9,30V27H8v6H9V30Z"/><path class="ba184-2" d="M10,26V25H8v1h2Z"/><path class="ba184-4" d="M17,30h1V29h1V25H18v1H17v1H16v1H13V27H12V26H11V25H10v1H9v4h1V29h1v1h1v3h1V29h2v1h1v2H15v1h2V30Z"/><path class="ba184-4" d="M14,31v1h1V30H14Z"/><rect class="ba184-4" x="18" y="32" width="1" height="1"/><rect class="ba184-4" x="10" y="30" width="1" height="1"/><rect class="ba184-4" x="10" y="32" width="1" height="1"/><rect class="ba184-4" x="18" y="30" width="1" height="1"/><path class="ba184-2" d="M13,23V22H12v2h1Z"/><path class="ba184-2" d="M20,31v2h1V31Z"/><path class="ba184-3" d="M21,31v2h1V31Z"/><path class="ba184-2" d="M22,31v2h1V31Z"/><path class="ba184-2" d="M11,26h1V24H10v1h1Z"/><rect class="ba184-2" x="12" y="26" width="1" height="1"/><rect class="ba184-2" x="16" y="26" width="1" height="1"/><path class="ba184-2" d="M18,26V25h1V24H17v2Z"/><path class="ba184-2" d="M13,27v1h3V27H13Z"/><path class="ba184-3" d="M13,26v1h3V26h1V24H16V23H13v1H12v2Z"/><path class="ba184-5" d="M20,30H19v1H18V30H17v3h1V32h1v1h1V30Z"/><rect class="ba184-5" x="18" y="29" width="1" height="1"/><path class="ba184-5" d="M16,32V30H15v2Z"/><path class="ba184-5" d="M14,32V30h1V29H13v4h2V32Z"/><path class="ba184-5" d="M12,30H11v1H10V30H9v3h1V32h1v1h1V30Z"/><rect class="ba184-5" x="10" y="29" width="1" height="1"/><rect class="ba184-2" x="20" y="15" width="1" height="1"/><path class="ba184-2" d="M19,15h1V14H19Z"/><rect class="ba184-3" x="15" y="20" width="1" height="1"/><rect class="ba184-3" x="13" y="20" width="1" height="1"/><path class="ba184-3" d="M10,17v1h1v1h1V18h2v1h1V18h2v1h1V18h1V16h1V15H19V12H18V11H11v1H10v3H9v1h1Zm1-3h1V13h1V12h3v1h1v1h1v1H16v1H15v1H14V16H13V15H11Z"/><path class="ba184-2" d="M16,23v1h1V22H16Z"/><path class="ba184-2" d="M10,14H9v1h1Z"/><rect class="ba184-2" x="8" y="15" width="1" height="1"/><path class="ba184-6" d="M18,15V14H17v1Z"/><rect class="ba184-6" x="16" y="13" width="1" height="1"/><rect class="ba184-2" x="14" y="14" width="1" height="1"/><path class="ba184-7" d="M13,15v1h3V15h1V14H16V13H13v1H12v1Zm1-1h1v1H14Z"/><path class="ba184-6" d="M16,13V12H13v1h3Z"/><rect class="ba184-6" x="12" y="13" width="1" height="1"/><rect class="ba184-6" x="11" y="14" width="1" height="1"/><path class="ba184-2" d="M14,17h1V16H14Z"/><path class="ba184-8" d="M14,18H13v1h1Z"/><path class="ba184-8" d="M13,23h3V22h2V21h1V20h1V16H19v2H18v1H17V18H15v1h1v2H15V20H14v1H13V19H11V18H10V16H9v4h1v1h1v1h2Z"/><path class="ba184-2" d="M13,19v1h3V19H13Z"/><path class="ba184-2" d="M12,18v1h1V18Z"/><path class="ba184-9" d="M10,13V12h1V11h7v1h1v2h1V13h1V9H20V8H19V7H18V6H11V7H10V8H9V9H8v4H9v1h1Z"/><polygon class="ba184-10" points="20.667 30 20 30 20 31 21 31 21 30 20.667 30"/><rect class="ba184-11" x="21" y="30" width="1" height="1"/><path class="ba184-10" d="M22,31h1V30H22Z"/><path class="ba184-12" d="M20,25h2V24H19v1Z"/><path class="ba184-13" d="M23,26H22V25H20v5h3V26Z"/><path class="ba184-14" d="M23,26v4h1V25H23Z"/><path class="ba184-14" d="M20,25H19v5h1V25Z"/><path class="ba184-7" d="M22,25v1h1V25h1V24H23V23H20v1h2Z"/></svg>