<svg xmlns="http://www.w3.org/2000/svg" viewBox="0 0 29 33"><defs><style>polygon,rect,path{shape-rendering:crispedges;}.ba205-1{fill:#d4a122;}.ba205-2{fill:#000000;}.ba205-3{fill:#e8b795;}.ba205-4{fill:#8e9350;}.ba205-5{fill:#8e9350;}.ba205-6{fill:#af8423;}.ba205-7{fill:#ff1d99;}.ba205-8{fill:#990000;}</style></defs><path class="ba205-1" d="M0,33H6V27H7V26H8V25h2V24h2V21H10V20H9V16H8V15H9V11h1V10h1V9h1V8h5V9h2v1h1v1h1v3H20v1h1v1H20v4H19v1H17v3h2v1h2v1h1v1h1v6h6V0H0Z"/><path class="ba205-2" d="M23,27H22v6h1V27Z"/><rect class="ba205-2" x="21" y="26" width="1" height="1"/><path class="ba205-3" d="M22,27H21v6h1V27Z"/><rect class="ba205-3" x="20" y="26" width="1" height="1"/><path class="ba205-2" d="M21,27H20v6h1V27Z"/><path class="ba205-2" d="M20,26h1V25H19v1Z"/><rect class="ba205-4" x="10" y="30" width="1" height="1"/><rect class="ba205-4" x="18" y="32" width="1" height="1"/><rect class="ba205-4" x="18" y="30" width="1" height="1"/><rect class="ba205-4" x="10" y="32" width="1" height="1"/><path class="ba205-4" d="M17,30h1V29h1v1h1V26H19V25H18v1H17v1H16v1H13V27H12V26H11V25H10v1H9v4h1V29h1v1h1v3h1V29h2v1h1v2H15v1h2V30Z"/><path class="ba205-4" d="M14,31v1h1V30H14Z"/><path class="ba205-2" d="M18,26V25h1V24H17v2Z"/><rect class="ba205-2" x="16" y="26" width="1" height="1"/><path class="ba205-2" d="M13,27v1h3V27H13Z"/><path class="ba205-2" d="M13,23h3v1h1V21H16v1H13V21H12v3h1Z"/><path class="ba205-3" d="M13,26v1h3V26h1V24H16V23H13v1H12v2Z"/><rect class="ba205-2" x="12" y="26" width="1" height="1"/><path class="ba205-2" d="M11,26h1V24H10v1h1Z"/><path class="ba205-2" d="M10,26V25H8v1h2Z"/><path class="ba205-3" d="M9,27V26H8v1Z"/><path class="ba205-2" d="M9,30V27H8v6H9V30Z"/><rect class="ba205-2" x="7" y="26" width="1" height="1"/><path class="ba205-3" d="M8,27H7v6H8V27Z"/><path class="ba205-2" d="M7,27H6v6H7V27Z"/><path class="ba205-5" d="M20,30H19v1H18V30H17v3h1V32h1v1h1V30Z"/><rect class="ba205-5" x="18" y="29" width="1" height="1"/><path class="ba205-5" d="M16,32V30H15v2Z"/><path class="ba205-5" d="M14,32V30h1V29H13v4h2V32Z"/><path class="ba205-5" d="M12,30H11v1H10V30H9v3h1V32h1v1h1V30Z"/><rect class="ba205-5" x="10" y="29" width="1" height="1"/><rect class="ba205-2" x="20" y="15" width="1" height="1"/><path class="ba205-3" d="M11,13V12h2v1h4V11H15V10H11v1H10v2Z"/><path class="ba205-3" d="M13,22h3V21h1V20h1V18h1V16h1V15H18v1H16V15H15V14H14v1H13v1H11V15H9v1h1v2h1v2h1v1h1Zm1-6h1v1H14Zm-2,3V18h1v1h3v1H13V19Z"/><rect class="ba205-3" x="18" y="13" width="1" height="1"/><path class="ba205-2" d="M19,17h1V16H19Z"/><path class="ba205-2" d="M10,16H9v1h1Z"/><rect class="ba205-2" x="8" y="15" width="1" height="1"/><rect class="ba205-2" x="14" y="16" width="1" height="1"/><rect class="ba205-6" x="10" y="13" width="1" height="1"/><path class="ba205-6" d="M11,12v1h2V12Z"/><path class="ba205-6" d="M17,12v1h1V12Z"/><path class="ba205-7" d="M19,18H18v2H17v1h2V20h1V17H19Z"/><path class="ba205-7" d="M11,20V18H10V17H9v3h1v1h2V20Z"/><rect class="ba205-2" x="13" y="19" width="3" height="1"/><rect class="ba205-2" x="12" y="18" width="1" height="1"/><path class="ba205-8" d="M10,13V11H9v3h1Z"/><rect class="ba205-8" x="10" y="10" width="1" height="1"/><path class="ba205-8" d="M15,10v1h2v1h1v1h1v1h2V11H20V10H19V9H17V8H12V9H11v1h4Z"/><path class="ba205-2" d="M11,16h2V15h1V14h1v1h1v1h2V15h2V14H18V13H11v1H9v1h2Z"/></svg>