<svg xmlns="http://www.w3.org/2000/svg" viewBox="0 0 29 33"><defs><style>polygon,rect,path{shape-rendering:crispedges;}.ya263-1{fill:#d14646;}.ya263-2{fill:#000000;}.ya263-3{fill:#9b8100;}.ya263-4{fill:#ce8452;}.ya263-5{fill:#6c9302;}.ya263-6{fill:#ffffff;}.ya263-7{fill:#663228;}.ya263-8{fill:#ff791f;}</style></defs><path class="ya263-1" d="M0,33H6V27H7V26H8V25h2V24h1V23h1V21H11V20H10V19H9V16H8V15H9V11h1V10h1V9h7v1h1v1h1v4h1v1H20v3H19v1H18v1H17v2h1v1h1v1h2v1h1v1h1v6h6V0H0Z"/><path class="ya263-2" d="M23,27H22v6h1V27Z"/><path class="ya263-3" d="M21,28v2h1V27H21Z"/><path class="ya263-3" d="M21,31v2h1V31Z"/><rect class="ya263-2" x="21" y="26" width="1" height="1"/><path class="ya263-2" d="M21,30V27H20v6h1V30Z"/><path class="ya263-3" d="M20,32V26H19V25H18v1H17v1H16V25H15v2H14V25H13v2H12V26H11V25H10v1H9v6h1v1h4V32h1v1h4V32Zm-9-3H10V28h1Zm2,2H12V30h1Zm2,0H14V30h1Zm0-2H14V28h1Zm2,2H16V30h1Zm1-2V28h1v1Z"/><path class="ya263-2" d="M20,26h1V25H19v1Z"/><rect class="ya263-3" x="16" y="24" width="1" height="1"/><rect class="ya263-2" x="15" y="24" width="1" height="1"/><rect class="ya263-2" x="14" y="32" width="1" height="1"/><rect class="ya263-2" x="14" y="30" width="1" height="1"/><rect class="ya263-2" x="14" y="28" width="1" height="1"/><path class="ya263-2" d="M14,26v1h1V25H14Z"/><rect class="ya263-2" x="13" y="24" width="1" height="1"/><path class="ya263-4" d="M16,24V23H13v1h1v1h1V24Z"/><rect class="ya263-3" x="12" y="24" width="1" height="1"/><path class="ya263-2" d="M11,26h2V25H12V24h1V23h3v1h1v1H16v1h2V25h1V24H18V23H17V21H16v1H13V21H12v2H11v1H10v1h1Z"/><path class="ya263-2" d="M10,26V25H8v1h2Z"/><path class="ya263-2" d="M9,31V27H8v6H9V31Z"/><path class="ya263-3" d="M7,30H8V27H7v3Z"/><path class="ya263-3" d="M7,31v2H8V31Z"/><rect class="ya263-2" x="7" y="26" width="1" height="1"/><path class="ya263-2" d="M7,30V27H6v6H7V30Z"/><rect class="ya263-5" x="10" y="28" width="1" height="1"/><rect class="ya263-5" x="12" y="30" width="1" height="1"/><path class="ya263-5" d="M12,27h1V26H12Z"/><rect class="ya263-5" x="16" y="30" width="1" height="1"/><rect class="ya263-5" x="18" y="28" width="1" height="1"/><path class="ya263-5" d="M16,27h1V26H16Z"/><path class="ya263-5" d="M9,27V26H8v1Z"/><path class="ya263-5" d="M19,32v1h1V32Z"/><path class="ya263-5" d="M9,32v1h1V32Z"/><path class="ya263-5" d="M7,31H8V30H7Z"/><path class="ya263-5" d="M21,31h1V30H21Z"/><path class="ya263-5" d="M20,27h1V26H20Z"/><rect class="ya263-2" x="20" y="15" width="1" height="1"/><rect class="ya263-4" x="13" y="20" width="1" height="1"/><rect class="ya263-4" x="15" y="20" width="1" height="1"/><path class="ya263-4" d="M12,19V18h5v1h2V16h1V15H15v2H14V15H13v1H11v1H10v2h2Z"/><rect class="ya263-4" x="16" y="19" width="1" height="1"/><rect class="ya263-4" x="16" y="13" width="1" height="1"/><rect class="ya263-4" x="9" y="15" width="1" height="1"/><rect class="ya263-4" x="12" y="19" width="1" height="1"/><path class="ya263-2" d="M19,17v2h1V16H19Z"/><path class="ya263-2" d="M18,20h1V19H18Z"/><rect class="ya263-2" x="17" y="20" width="1" height="1"/><rect class="ya263-2" x="11" y="20" width="1" height="1"/><path class="ya263-2" d="M10,19v1h1V19Z"/><path class="ya263-2" d="M10,16H9v3h1V16Z"/><rect class="ya263-2" x="8" y="15" width="1" height="1"/><path class="ya263-2" d="M14,17h1V16H14Z"/><path class="ya263-6" d="M18,14v1h1V14Z"/><path class="ya263-6" d="M16,14v1h1V14Z"/><path class="ya263-2" d="M17,14v1h1V14Z"/><path class="ya263-7" d="M17,19v1h1V19Z"/><rect class="ya263-7" x="16" y="20" width="1" height="1"/><path class="ya263-7" d="M15,20H14v1H13v1h3V21H15Z"/><path class="ya263-7" d="M14,19h3V18H13v1Z"/><rect class="ya263-7" x="12" y="20" width="1" height="1"/><path class="ya263-7" d="M12,19H11v1h1Z"/><path class="ya263-2" d="M15,20h1V19H13v1h2Z"/><path class="ya263-2" d="M13,18H12v1h1Z"/><path class="ya263-8" d="M10,16v1h1V16h2V15h1v1h1V15h1V13h1v1h2v1h1V11H19V10H18V9H11v1H10v1H9v4h1Z"/></svg>