<svg xmlns="http://www.w3.org/2000/svg" viewBox="0 0 29 33"><defs><style>polygon,rect,path{shape-rendering:crispedges;}.ba176-1{fill:#29834f;}.ba176-2{fill:#000000;}.ba176-3{fill:#efcaaf;}.ba176-4{fill:#d8be00;}.ba176-5{fill:#ffed9f;}.ba176-6{fill:#ffffff;}.ba176-7{fill:#663434;}.ba176-8{fill:#6e12ff;}.ba176-9{fill:#c9936f;}.ba176-10{fill:#e8b592;}.ba176-11{fill:#9b005c;}.ba176-12{fill:#fad000;}.ba176-13{fill:#ff1d99;}</style></defs><path class="ba176-1" d="M0,33H6V27H7V26H8V25h2V24h2V21H11V20H10V19H9V17H8V15H7V14H9V13H7V12H9V11H8V9H9v1h2V9H10V8H9V7h1V8h1V7h1V8h1V7h2V8h1V7h1V8h1V9h1V8h2V9H20v2h1V10h1v2H21v2h1v1H21v1h1v1h1V16h1v2h1v5H24v8H23v1H21v1h8V0H0Z"/><rect class="ba176-1" x="20" y="17" width="1" height="1"/><path class="ba176-1" d="M20,23V19H19v1H18v1H17v3h2v1h2V23Z"/><path class="ba176-2" d="M7,27H6v6H7V27Z"/><rect class="ba176-2" x="7" y="26" width="1" height="1"/><path class="ba176-3" d="M8,27H7v6H8V27Z"/><rect class="ba176-3" x="8" y="26" width="1" height="1"/><path class="ba176-2" d="M9,27H8v6H9V27Z"/><path class="ba176-2" d="M10,26V25H8v1h2Z"/><path class="ba176-4" d="M16,32H12v1h5V32Z"/><path class="ba176-4" d="M10,30h1V29h1V28h1V27H12V26H11V25H10v1H9v7h1V30Z"/><path class="ba176-4" d="M20,27V26H19V25H18v1H17v1H16v1h1v1h1v1h1v3h1V27Z"/><rect class="ba176-4" x="12" y="30" width="1" height="1"/><rect class="ba176-4" x="16" y="30" width="1" height="1"/><path class="ba176-2" d="M11,26h1V24H10v1h1Z"/><path class="ba176-2" d="M13,23h3v1h1V21H16v1H13V21H12v3h1Z"/><rect class="ba176-2" x="12" y="26" width="1" height="1"/><path class="ba176-2" d="M13,27v1h3V27H13Z"/><path class="ba176-3" d="M13,26v1h3V26h1V24H16V23H13v1H12v2Z"/><rect class="ba176-2" x="16" y="26" width="1" height="1"/><path class="ba176-2" d="M18,24H17v2h1V25h1V24Z"/><path class="ba176-3" d="M21,27V26H20v1Z"/><path class="ba176-2" d="M22,32h1V31H22V25H19v1h2v1H20v6h1V32Z"/><path class="ba176-3" d="M23,26V25H22v6h1V26Z"/><path class="ba176-2" d="M23,26v5h1V25H23Z"/><path class="ba176-5" d="M19,30H18V29H17V28H12v1H11v1H10v3h2V32h5v1h2V30Zm-6,1H12V30h1Zm4,0H16V30h1Z"/><rect class="ba176-2" x="19" y="13" width="1" height="1"/><path class="ba176-3" d="M13,22h3V21h1V20h1V19h1V16h1V15H16V13H15V12H13v1H11v1h2v1H9v1h1v3h1v1h1v1h1Zm1-6h1v1H14Zm-2,3V18h1v1h3v1H13V19Z"/><rect class="ba176-3" x="13" y="10" width="1" height="1"/><rect class="ba176-3" x="17" y="11" width="1" height="1"/><rect class="ba176-3" x="16" y="12" width="1" height="1"/><path class="ba176-2" d="M20,18V16H19v3h1Z"/><rect class="ba176-2" x="18" y="19" width="1" height="1"/><rect class="ba176-2" x="17" y="20" width="1" height="1"/><rect class="ba176-2" x="11" y="20" width="1" height="1"/><rect class="ba176-2" x="10" y="19" width="1" height="1"/><path class="ba176-2" d="M10,16H9v3h1V16Z"/><rect class="ba176-2" x="14" y="16" width="1" height="1"/><path class="ba176-6" d="M13,15V14H12v1Z"/><path class="ba176-6" d="M10,15h1V14H10Z"/><path class="ba176-6" d="M18,14v1h1V14Z"/><path class="ba176-6" d="M16,14v1h1V14Z"/><path class="ba176-2" d="M12,15V14H11v1Z"/><path class="ba176-2" d="M17,14v1h1V14Z"/><rect class="ba176-7" x="10" y="13" width="1" height="1"/><path class="ba176-7" d="M12,13h1V12H12Z"/><path class="ba176-7" d="M17,13H16v1h1Z"/><rect class="ba176-7" x="17" y="12" width="1" height="1"/><rect class="ba176-2" x="13" y="19" width="3" height="1"/><rect class="ba176-2" x="12" y="18" width="1" height="1"/><path class="ba176-8" d="M9,15h1V13h2V12h3v1h1V12h1V11h1v2H17v1h2V13h1v1H19v1h1v2h1V15h1V14H21V12h1V10H21v1H20V9h1V8H19V9H18V8H17V7H16V8H15V7H13V8H12V7H11V8H10V9h1v1H9V9H8v2H9v1H7v1H9v1H7v1H8v2H9V15Zm4-5h1v1H13Z"/><rect class="ba176-8" x="9" y="7" width="1" height="1"/><path class="ba176-9" d="M21,23V22H20v1Z"/><path class="ba176-9" d="M24,22.111V23h1V22H24Z"/><rect class="ba176-2" x="21" y="19" width="1" height="1"/><rect class="ba176-2" x="23" y="19" width="1" height="1"/><path class="ba176-10" d="M24,22H21v1h3V22Z"/><path class="ba176-10" d="M24,21V20H23V19H22v1H21v1h3Z"/><path class="ba176-11" d="M21,23v2h3V23H21Z"/><path class="ba176-6" d="M21,18h3V16H23v1H22V16H21v2Z"/><path class="ba176-12" d="M21,18H20v4h1V19h3v3h1V18H21Z"/><path class="ba176-13" d="M24,22V21H21v1h3Z"/></svg>