<svg xmlns="http://www.w3.org/2000/svg" viewBox="0 0 29 33"><defs><style>polygon,rect,path{shape-rendering:crispedges;}.ya135-1{fill:#d4a122;}.ya135-2{fill:#000000;}.ya135-3{fill:#a8a07e;}.ya135-4{fill:#ce8452;}.ya135-5{fill:#e0dbc6;}.ya135-6{fill:#ffffff;}.ya135-7{fill:#663228;}.ya135-8{fill:#663228;}.ya135-9{fill:#9b8100;}.ya135-10{fill:#ff1d99;}.ya135-11{fill:#9b005c;}</style></defs><path class="ya135-1" d="M0,33H6V25H7V24H6V23H7V22H8v1H9v1H8v1h2V24h1V23h1V21H11V20H10V19H9V16H8V15H9V11h1V10H9V9h1V8h2V7h1V8h3V9h1V8h1V9h1v1h1v5h1v1H20v3H19v1H18v1H17v2h1v1h1v1h2v1h1v1h1v6h6V0H0Z"/><rect class="ya135-1" x="12" y="8" width="1" height="1"/><path class="ya135-2" d="M23,27H22v6h1V27Z"/><path class="ya135-3" d="M21,28h1V27H21Z"/><path class="ya135-3" d="M21,31h1V30H21Z"/><rect class="ya135-2" x="21" y="26" width="1" height="1"/><path class="ya135-2" d="M21,30V27H20v6h1V30Z"/><path class="ya135-3" d="M15,31h5V30H15Z"/><path class="ya135-3" d="M14,27H9v1H20V27H14Z"/><rect class="ya135-3" x="9" y="30" width="5" height="1"/><path class="ya135-2" d="M20,26h1V25H19v1Z"/><rect class="ya135-3" x="16" y="24" width="1" height="1"/><rect class="ya135-2" x="15" y="24" width="1" height="1"/><rect class="ya135-2" x="14" y="32" width="1" height="1"/><rect class="ya135-2" x="14" y="30" width="1" height="1"/><path class="ya135-2" d="M15,29V28H14v1Z"/><path class="ya135-2" d="M15,26V25H14v2h1Z"/><rect class="ya135-2" x="13" y="24" width="1" height="1"/><path class="ya135-4" d="M15,24h1V23H13v1h1v1h1Z"/><rect class="ya135-3" x="12" y="24" width="1" height="1"/><path class="ya135-2" d="M11,26h2V25H12V24h1V22H12v1H11v1H10v1h1Z"/><path class="ya135-2" d="M9,30V26h1V25H8v8H9V30Z"/><path class="ya135-3" d="M7,28H8V27H7Z"/><path class="ya135-3" d="M7,31H8V30H7Z"/><path class="ya135-4" d="M8,27V25H7v2Z"/><path class="ya135-2" d="M7,30V25H6v8H7V30Z"/><path class="ya135-5" d="M15,31H9v2h5V32h1v1h5V31Z"/><path class="ya135-5" d="M15,29H14V28H9v2H20V28H15Z"/><path class="ya135-5" d="M18,26H16V25H15v2h6V26H19V25H18Z"/><path class="ya135-5" d="M9,26v1h5V25H13v1H11V25H10v1Z"/><path class="ya135-5" d="M7,29v1H8V28H7Z"/><path class="ya135-5" d="M7,31v2H8V31Z"/><path class="ya135-5" d="M21,31v2h1V31Z"/><path class="ya135-5" d="M21,29v1h1V28H21Z"/><rect class="ya135-2" x="20" y="15" width="1" height="1"/><rect class="ya135-4" x="16" y="19" width="1" height="1"/><path class="ya135-4" d="M13,21h3V20H13Z"/><rect class="ya135-4" x="18" y="12" width="1" height="1"/><path class="ya135-4" d="M10,17v1h1v1h1v1h1V19h3V18h1v1h1V18h1V16h1V15H16V14h2V13H16V12h2V11H17V10H16v1H11v1h1v1h1v2H9v1h1Zm4-1h1v1H14Z"/><path class="ya135-4" d="M10,14h2V13H10Z"/><path class="ya135-2" d="M16,23v1h1v1H16v1h2V25h1V24H18V23H17V22H16Z"/><path class="ya135-2" d="M10,14H9v1h1Z"/><rect class="ya135-2" x="8" y="15" width="1" height="1"/><rect class="ya135-2" x="14" y="16" width="1" height="1"/><path class="ya135-6" d="M12,15h1V14H12Z"/><path class="ya135-6" d="M10,14v1h1V14Z"/><path class="ya135-6" d="M18,14v1h1V14Z"/><path class="ya135-6" d="M16,14v1h1V14Z"/><path class="ya135-2" d="M11,14v1h1V14Z"/><path class="ya135-2" d="M17,14v1h1V14Z"/><rect class="ya135-7" x="18" y="13" width="1" height="1"/><rect class="ya135-7" x="16" y="12" width="2" height="1"/><path class="ya135-7" d="M13,14V13H12v1Z"/><path class="ya135-7" d="M10,13h2V12H10Z"/><path class="ya135-8" d="M13,23h3V22h1V21h1V20h1V19h1V16H19v2H18v1H17v1H16v1H13V20H12V19H11V18H10V16H9v3h1v1h1v1h1v1h1Z"/><rect class="ya135-2" x="13" y="19" width="3" height="1"/><rect class="ya135-2" x="16" y="18" width="1" height="1"/><path class="ya135-9" d="M10,13V12h1V11h5V10h1v1h1v1h1v3h1V10H19V9H18V8H17V9H16V8H13V9H12V8H10V9H9v1h1v1H9v3h1Z"/><rect class="ya135-9" x="12" y="7" width="1" height="1"/><rect class="ya135-10" x="7" y="22" width="1" height="1"/><rect class="ya135-10" x="6" y="23" width="1" height="1"/><rect class="ya135-10" x="8" y="23" width="1" height="1"/><path class="ya135-10" d="M8,24.5V24H7v1H8Z"/><rect class="ya135-11" x="7" y="23" width="1" height="1"/></svg>