<svg xmlns="http://www.w3.org/2000/svg" viewBox="0 0 29 33"><defs><style>polygon,rect,path{shape-rendering:crispedges;}.cb137-1{fill:#29834f;}.cb137-2{fill:#000000;}.cb137-3{fill:#8c7850;}.cb137-4{fill:#ffffff;}.cb137-5{fill:#ce8452;}.cb137-6{fill:#7f5018;}.cb137-7{fill:#7f5018;}.cb137-8{fill:#ff1d99;}</style></defs><path class="cb137-1" d="M10,24h1V23h1V22H11V21H10v3Z"/><path class="cb137-1" d="M0,33H6V25H7V21h3V20H9V16H8V15H9V11h1V9h1V8h7V9h1v1h1v5h1v1H20v4H19v1H18v1H17v1h1v1h1v1h2v1h1v1h1v6h6V0H0Z"/><path class="cb137-2" d="M23,27H22v6h1V27Z"/><rect class="cb137-2" x="21" y="26" width="1" height="1"/><path class="cb137-3" d="M22,27H21v6h1V27Z"/><path class="cb137-2" d="M21,27H20v6h1V27Z"/><path class="cb137-2" d="M20,26h1V25H19v1Z"/><path class="cb137-3" d="M20,27h1V26H19V25H18v4H17v4h3V27Z"/><path class="cb137-2" d="M16,24h1v1H16v1h1v3h1V25h1V24H18V23H16Z"/><rect class="cb137-4" x="16" y="24" width="1" height="1"/><path class="cb137-2" d="M17,29H16v4h1V29Z"/><rect class="cb137-4" x="15" y="23" width="1" height="1"/><path class="cb137-4" d="M16,29h1V26H16V25H13v1H12v3h1v4h1V32h1v1h1V29Zm-1,2H14V30h1Zm0-2H14V28h1Zm0-2H14V26h1Z"/><rect class="cb137-2" x="14" y="26" width="1" height="1"/><rect class="cb137-2" x="14" y="28" width="1" height="1"/><rect class="cb137-2" x="14" y="30" width="1" height="1"/><rect class="cb137-2" x="14" y="32" width="1" height="1"/><rect class="cb137-4" x="13" y="23" width="1" height="1"/><path class="cb137-2" d="M15,24V23H14v1H13v1h3V24Z"/><rect class="cb137-4" x="12" y="24" width="1" height="1"/><path class="cb137-2" d="M13,29H12v4h1V29Z"/><path class="cb137-2" d="M12,24h1V23H11v1H10v1h1v4h1V26h1V25H12Z"/><path class="cb137-3" d="M12,29H11V25H10v1H9v7h3V29Z"/><path class="cb137-2" d="M9,26H8v7H9V26Z"/><path class="cb137-5" d="M8,27V26H9V25H7v2Z"/><path class="cb137-4" d="M7,28H8V27H7Z"/><path class="cb137-3" d="M8,28H7v5H8V28Z"/><path class="cb137-2" d="M7,28V25H6v8H7V28Z"/><rect class="cb137-2" x="20" y="15" width="1" height="1"/><path class="cb137-5" d="M10,17h1v1h1v1h1V18h5V17h1V16h1V15H16V14h2V13H15V12H14V11H13V10H11v1H10v1h2v1h1v2H9v1h1Zm4-1h1v1H14Z"/><path class="cb137-5" d="M10,14h2V13H10Z"/><rect class="cb137-2" x="8" y="15" width="1" height="1"/><rect class="cb137-2" x="14" y="16" width="1" height="1"/><path class="cb137-4" d="M12,15h1V14H12Z"/><path class="cb137-4" d="M10,14v1h1V14Z"/><path class="cb137-4" d="M18,14v1h1V14Z"/><path class="cb137-4" d="M16,14v1h1V14Z"/><path class="cb137-2" d="M11,14v1h1V14Z"/><path class="cb137-2" d="M17,14v1h1V14Z"/><path class="cb137-6" d="M13,14V13H12v1Z"/><rect class="cb137-6" x="10" y="12" width="2" height="1"/><path class="cb137-7" d="M11,22h1v1h5V22h1V21h1V20h1V16H19v1H18v1H17v1H16v1H13V19H12V18H11V17H10V16H9v4h1v1h1Z"/><path class="cb137-7" d="M15,18H13v1h3V18Z"/><rect class="cb137-2" x="13" y="19" width="3" height="1"/><path class="cb137-2" d="M16,19h1V18H16Z"/><path class="cb137-8" d="M11,10h2v1h1v1h1v1h3v1h1v1h1V10H19V9H18V8H11V9H10v2h1Z"/><path class="cb137-8" d="M10,14V11H9v4h1Z"/><rect class="cb137-2" x="8" y="22" width="1" height="1"/><path class="cb137-4" d="M9,26h1V21H7v4H9ZM8,23V22H9v1Z"/></svg>