<svg xmlns="http://www.w3.org/2000/svg" viewBox="0 0 29 33"><defs><style>polygon,rect,path{shape-rendering:crispedges;}.wa115-1{fill:#6b4f99;}.wa115-2{fill:#000000;}.wa115-3{fill:#99004d;}.wa115-4{fill:#ce8452;}.wa115-5{fill:#ff6aa5;}.wa115-6{fill:#ffffff;}.wa115-7{fill:#7f5018;}.wa115-8{fill:#004a77;}.wa115-9{fill:#b23b00;}.wa115-10{fill:#455054;}.wa115-11{fill:#0068ff;}.wa115-12{fill:#ffce00;}.wa115-13{fill:#ff1f4a;}</style></defs><path class="wa115-1" d="M8,19v3H9v2H8v1h2V22h1V21H10V20H9V16H8v3Z"/><path class="wa115-1" d="M0,33H8V32H6V31H5V22H6V21H7V20H5v1H2V17H5V16H8V15H9V14H8V11H9V10h1V9h2V8h5V9h1v1h1v1h1v4h1v1H20v4H19v1H18v1h1v3h2v1h1v1h1v6h6V0H0Z"/><path class="wa115-2" d="M6,29V22H5v9H6V29Z"/><path class="wa115-2" d="M23,27H22v6h1V27Z"/><path class="wa115-3" d="M21,28v2h1V27H21Z"/><path class="wa115-3" d="M21,31v2h1V31Z"/><rect class="wa115-2" x="21" y="26" width="1" height="1"/><path class="wa115-2" d="M21,30V27H20v4H14V27H13v4H9V27H8V26h2V25H8V24H7v7H6v1H8v1H9V32H20v1h1V30Z"/><path class="wa115-3" d="M18,32H15v1h4V32Z"/><path class="wa115-3" d="M13,32H10v1h4V32Z"/><path class="wa115-2" d="M20,26h1V25H19v1Z"/><path class="wa115-2" d="M18,24v1h1V22H18v2Z"/><path class="wa115-3" d="M18,24H16v1H15v2H14v1h1v1H14v2h2V30h1v1h3V26H19V25H18Zm-1,3H16V26h1Zm2,1v1H18V28Z"/><path class="wa115-3" d="M17,23h1V22H17Z"/><path class="wa115-2" d="M17,24V23H16v1Z"/><rect class="wa115-2" x="15" y="24" width="1" height="1"/><path class="wa115-2" d="M15,26V25H14v2h1Z"/><rect class="wa115-2" x="13" y="24" width="1" height="1"/><path class="wa115-4" d="M14,24v1h1V24h1V23H13v1Z"/><rect class="wa115-2" x="12" y="23" width="1" height="1"/><path class="wa115-2" d="M11,24V22H10v3h1Z"/><path class="wa115-3" d="M12,23V22H11v1Z"/><path class="wa115-3" d="M13,25V24H11v1H10v1H9v5h3V30h1V27H12V26h1v1h1V25Zm-2,4H10V28h1Z"/><path class="wa115-3" d="M6,25H7V24H6Z"/><path class="wa115-3" d="M6,27v2H7V26H6Z"/><path class="wa115-3" d="M7,30H6v1H7Z"/><rect class="wa115-2" x="20" y="15" width="1" height="1"/><rect class="wa115-4" x="9" y="15" width="1" height="1"/><rect class="wa115-4" x="19" y="15" width="1" height="1"/><path class="wa115-4" d="M14,10v1H12v1h1v1H11v1h2v2H10v1h1v1h1v1h1V18h5V17h1V16H16V14h2V13H16V12h2v1h1V11H18V10H14Zm1,7H14V16h1Z"/><rect class="wa115-2" x="8" y="15" width="1" height="1"/><rect class="wa115-2" x="14" y="16" width="1" height="1"/><rect class="wa115-5" x="10" y="28" width="1" height="1"/><path class="wa115-5" d="M12,31h1V30H12Z"/><path class="wa115-5" d="M15,28H14v1h1Z"/><path class="wa115-5" d="M14,32v1h1V32Z"/><rect class="wa115-5" x="12" y="26" width="1" height="1"/><path class="wa115-5" d="M16,30v1h1V30Z"/><rect class="wa115-5" x="18" y="28" width="1" height="1"/><rect class="wa115-5" x="16" y="26" width="1" height="1"/><path class="wa115-5" d="M8,26v1H9V26Z"/><path class="wa115-5" d="M19,32v1h1V32Z"/><path class="wa115-5" d="M9,32v1h1V32Z"/><path class="wa115-5" d="M6,30H7V29H6Z"/><path class="wa115-5" d="M6,26H7V25H6Z"/><path class="wa115-5" d="M21,31h1V30H21Z"/><path class="wa115-5" d="M20,27h1V26H20Z"/><path class="wa115-5" d="M11,24h1V23H11Z"/><path class="wa115-5" d="M18,24V23H17v1Z"/><path class="wa115-6" d="M11,15V14H10v2h1Z"/><path class="wa115-6" d="M13,16V14H12v2Z"/><path class="wa115-6" d="M16,14v2h1V14Z"/><path class="wa115-6" d="M19,14H18v2h1V14Z"/><path class="wa115-2" d="M11,16h1V14H11v2Z"/><path class="wa115-2" d="M17,14v2h1V14Z"/><rect class="wa115-7" x="18" y="13" width="1" height="1"/><rect class="wa115-7" x="16" y="12" width="2" height="1"/><rect class="wa115-7" x="10" y="13" width="1" height="1"/><path class="wa115-7" d="M13,12H11v1h2Z"/><path class="wa115-8" d="M16,18H13v1h3Z"/><path class="wa115-8" d="M19,17H18v1H17v1H16v1H13V19H12V18H11V17H10V16H9v4h1v1h1v1h1v1h5V22h1V21h1V20h1V16H19Z"/><rect class="wa115-2" x="13" y="19" width="3" height="1"/><path class="wa115-2" d="M17,19V18H16v1Z"/><path class="wa115-9" d="M19,14v1h1V11H19v3Z"/><rect class="wa115-9" x="18" y="10" width="1" height="1"/><path class="wa115-9" d="M10,14V13h1V12h1V11h2V10h4V9H17V8H12V9H10v1H9v1H8v3H9v1h1Z"/><path class="wa115-4" d="M7,24H8V22H6v2Z"/><path class="wa115-10" d="M8,22V20H7v2Z"/><path class="wa115-2" d="M7,21H6v1H7Z"/><path class="wa115-2" d="M9,22H8v2H9Z"/><path class="wa115-11" d="M8,19V16H6v4H8Z"/><path class="wa115-12" d="M6,16H5v1H4v4H5V20H6V16Z"/><path class="wa115-13" d="M4,17H2v4H4V17Z"/></svg>