<svg xmlns="http://www.w3.org/2000/svg" viewBox="0 0 29 33"><defs><style>polygon,rect,path{shape-rendering:crispedges;}.qa229-1{fill:#e55b35;}.qa229-2{fill:#000000;}.qa229-3{fill:#95f9ed;}.qa229-4{fill:#ce8452;}.qa229-5{fill:#473a35;}.qa229-6{fill:#473a35;}.qa229-7{fill:#99ce09;}</style></defs><path class="qa229-1" d="M6,32V27H7V26H8V25h2V24h1V23H10V22h1V20H9V18H8V13H9V11h1V10h1V9h7v1h1v1h1v1h1v6H20v2H18v2h1v1H18v1h1v1h2v1h1v1h1v6h6V0H0V33H6Z"/><path class="qa229-2" d="M23,27H22v6h1V27Z"/><path class="qa229-3" d="M22,27H21v6h1V27Z"/><rect class="qa229-2" x="21" y="26" width="1" height="1"/><path class="qa229-2" d="M21,27H20v6h1V27Z"/><path class="qa229-3" d="M20,27h1V26H19V25H18V24H16v1h1v5H16V25H13v5H12V25h1V24H11v1H10v1H8v1H9v6H20V27Z"/><path class="qa229-2" d="M20,26h1V25H19v1Z"/><rect class="qa229-2" x="18" y="24" width="1" height="1"/><rect class="qa229-2" x="18" y="22" width="1" height="1"/><rect class="qa229-3" x="17" y="22" width="1" height="1"/><path class="qa229-2" d="M13,24v1h3V24H13Z"/><path class="qa229-4" d="M15,23H13v1h3V23Z"/><path class="qa229-2" d="M13,23h3v1h2V23H17V22h1V20H17v1H16v1H13V21H12V20H11v2h1v1H11v1h2Z"/><rect class="qa229-3" x="11" y="22" width="1" height="1"/><rect class="qa229-2" x="10" y="24" width="1" height="1"/><rect class="qa229-2" x="10" y="22" width="1" height="1"/><path class="qa229-2" d="M10,25H8v1h2Z"/><path class="qa229-2" d="M9,27H8v6H9V27Z"/><path class="qa229-3" d="M8,27H7v6H8V27Z"/><rect class="qa229-2" x="7" y="26" width="1" height="1"/><path class="qa229-2" d="M7,27H6v6H7V27Z"/><path class="qa229-2" d="M12,26v4h1V25H12Z"/><path class="qa229-2" d="M16,30h1V25H16v5Z"/><path class="qa229-4" d="M13,13H11v1h2Z"/><rect class="qa229-4" x="14" y="15" width="1" height="1"/><rect class="qa229-4" x="17" y="13" width="1" height="1"/><rect class="qa229-4" x="17" y="11" width="1" height="1"/><path class="qa229-4" d="M16,12H15V11H14v3h2Z"/><rect class="qa229-4" x="9" y="15" width="1" height="1"/><rect class="qa229-4" x="19" y="15" width="1" height="1"/><path class="qa229-4" d="M12,21h2V20H13V19H12V18h1v1h3v1H15v1h2V20h1V19h1V18H18V17H16V16H15v1H14V16H13v1H11v1H10v1h1v1h1Z"/><path class="qa229-2" d="M19,16v2h1V16Z"/><path class="qa229-2" d="M18,19v1h1V19Z"/><path class="qa229-2" d="M10,19v1h1V19Z"/><path class="qa229-2" d="M10,17V16H9v2h1Z"/><rect class="qa229-2" x="14" y="16" width="1" height="1"/><path class="qa229-5" d="M13,12H11v1h2Z"/><rect class="qa229-5" x="17" y="12" width="1" height="1"/><path class="qa229-6" d="M15,20H14v1H13v1h3V21H15Z"/><polygon class="qa229-2" points="16 20 16 19 13 19 13 20 14 20 15 20 16 20"/><rect class="qa229-2" x="12" y="18" width="1" height="1"/><path class="qa229-7" d="M9,15V14h2V12h2v2h1V11h1v1h1v2h1V11h1v3h2v4h1V12H20V11H19V10H18V9H11v1H10v1H9v2H8v5H9V15Z"/><path class="qa229-7" d="M10,16v2h1V16Z"/><path class="qa229-7" d="M18,16v2h1V16Z"/><path class="qa229-7" d="M19,19v1h1V18H19Z"/><path class="qa229-7" d="M10,18H9v2h1V18Z"/><path class="qa229-2" d="M19,16V15h1V14H9v1h1v1h1v1h2V16h1V15h1v1h1v1h2V16Z"/></svg>