<svg xmlns="http://www.w3.org/2000/svg" viewBox="0 0 29 33"><defs><style>polygon,rect,path{shape-rendering:crispedges;}.hb64-1{fill:#d14646;}.hb64-2{fill:#000000;}.hb64-3{fill:#b2622b;}.hb64-4{fill:#326b43;}.hb64-5{fill:#326b43;}.hb64-6{fill:#ff6aa5;}.hb64-7{fill:#455054;}.hb64-8{fill:#29834f;}.hb64-9{fill:#ff791f;}.hb64-10{fill:#ffffff;}</style></defs><path class="hb64-1" d="M0,33H8V32H6V31H5V22H6V21H7V20H5v1H2V17H5V16H8V15H9V10h1V9h1V8h7V9h1v1h1v5h1v1H20v3H19v1H18v1H17v3h2v1h2v1h1v1h1v6h6V0H0Z"/><path class="hb64-1" d="M8,19v3H9v2H8v1h2V24h2V21H11V20H10V19H9V16H8v3Z"/><path class="hb64-2" d="M6,22H5v9H6V22Z"/><path class="hb64-2" d="M23,27H22v6h1V27Z"/><path class="hb64-3" d="M22,27H21v6h1V27Z"/><rect class="hb64-2" x="21" y="26" width="1" height="1"/><path class="hb64-2" d="M21,27H20v6h1V27Z"/><path class="hb64-3" d="M20,27h1V26H19V25H17V24H16V23H13v1H12v1H10v1H8v1H9v6h5V29h1v4h5V27Zm-8,2H11V28h1Zm6,0H17V28h1Z"/><path class="hb64-2" d="M20,26h1V25H19v1Z"/><rect class="hb64-2" x="17" y="28" width="1" height="1"/><path class="hb64-2" d="M18,25h1V24H17v1Z"/><path class="hb64-2" d="M15,29H14v4h1V29Z"/><rect class="hb64-2" x="11" y="28" width="1" height="1"/><path class="hb64-2" d="M10,25h2V24H10Z"/><path class="hb64-2" d="M9,27H8V26h2V25H8V24H7v7H6v1H8v1H9V27Z"/><path class="hb64-3" d="M7,30V24H8V22H6v9H7Z"/><rect class="hb64-2" x="20" y="15" width="1" height="1"/><rect class="hb64-3" x="16" y="19" width="1" height="1"/><rect class="hb64-3" x="15" y="20" width="1" height="1"/><rect class="hb64-3" x="13" y="20" width="1" height="1"/><path class="hb64-3" d="M16,13V12h2v1h1V11H18V10H17v1H14V10H13v1H12V10H11v1H10v1h2v1h1v1h5V13Z"/><rect class="hb64-3" x="9" y="15" width="1" height="1"/><path class="hb64-3" d="M10,13v1h2V13Z"/><path class="hb64-3" d="M19,16H18v1H16V16H15v1H14V16H13v1H11V16H10v3h2V18h5v1h2V16Z"/><rect class="hb64-3" x="12" y="19" width="1" height="1"/><rect class="hb64-3" x="19" y="15" width="1" height="1"/><rect class="hb64-3" x="14" y="15" width="1" height="1"/><path class="hb64-2" d="M19,17v2h1V16H19Z"/><path class="hb64-2" d="M18,20h1V19H18Z"/><rect class="hb64-2" x="17" y="20" width="1" height="1"/><path class="hb64-2" d="M16,22H13V21H12v3h1V23h3v1h1V21H16Z"/><rect class="hb64-2" x="11" y="20" width="1" height="1"/><path class="hb64-2" d="M10,19v1h1V19Z"/><path class="hb64-2" d="M10,16H9v3h1V16Z"/><rect class="hb64-2" x="8" y="15" width="1" height="1"/><rect class="hb64-2" x="14" y="16" width="1" height="1"/><rect class="hb64-4" x="18" y="13" width="1" height="1"/><rect class="hb64-4" x="16" y="12" width="2" height="1"/><rect class="hb64-4" x="12" y="13" width="1" height="1"/><rect class="hb64-4" x="10" y="12" width="2" height="1"/><path class="hb64-5" d="M17,19v1h1V19Z"/><rect class="hb64-5" x="16" y="20" width="1" height="1"/><path class="hb64-5" d="M15,20H14v1H13v1h3V21H15Z"/><path class="hb64-5" d="M14,19h2V18H12v1h2Z"/><rect class="hb64-5" x="12" y="20" width="1" height="1"/><path class="hb64-5" d="M12,19H11v1h1Z"/><path class="hb64-2" d="M15,19H13v1h3V19Z"/><path class="hb64-2" d="M17,19V18H16v1Z"/><path class="hb64-6" d="M10,13V11h1V10h1v1h1V10h1v1h3V10h1v1h1v3h1V10H19V9H18V8H11V9H10v1H9v4h1Z"/><path class="hb64-2" d="M10,16h1v1h2V16h1V15h1v1h1v1h2V16h1V15h1V14H9v1h1Z"/><path class="hb64-7" d="M8,22V20H7v2Z"/><path class="hb64-2" d="M7,21H6v1H7Z"/><path class="hb64-2" d="M9,22H8v2H9Z"/><path class="hb64-8" d="M4,17H2v4H4V17Z"/><path class="hb64-9" d="M8,19V16H6v4H8Z"/><path class="hb64-10" d="M6,16H5v1H4v4H5V20H6V16Z"/></svg>