<svg xmlns="http://www.w3.org/2000/svg" viewBox="0 0 29 33"><defs><style>polygon,rect,path{shape-rendering:crispedges;}.oa196-1{fill:#7a982c;}.oa196-2{fill:#000000;}.oa196-3{fill:#002b4f;}.oa196-4{fill:#68aa7b;}.oa196-5{fill:#a56e49;}.oa196-6{fill:#ff1f4a;}.oa196-7{fill:#ffffff;}.oa196-8{fill:#473a35;}.oa196-9{fill:#6e12ff;}.oa196-10{fill:#dfdfdf;}.oa196-11{fill:#a89969;}.oa196-12{fill:#fafafa;}</style></defs><path class="oa196-1" d="M0,33H6V27H7V26H8V25h2V24h2V21H11V20H10V19H9V16H8V15H9V13H7V12H5V11H7v1H9V10h1V8h1V7h2V8h3V7h2V8h1V7h1V6h2V8H21V9H20v3h2V11h2v1H22v1H21v5H20v1H19v1H18v1H17v3h2V22h1V21h4v1h1v1h1v4H25v2H24v1H23v3h6V0H0Z"/><path class="oa196-2" d="M23,30V29h1V28H21v1h1v4h1V30Z"/><path class="oa196-3" d="M21,31v1h1V30H21Z"/><path class="oa196-2" d="M21,31V29H20v4h1V31Z"/><path class="oa196-3" d="M19,27V25H18v3h1Z"/><path class="oa196-3" d="M19,31V30H18v2h1v1h1V31Z"/><path class="oa196-2" d="M18,31V25h1V24H17v1H16v1h1v7h1V31Z"/><path class="oa196-4" d="M17,26H16v1H13V26H12v7h5V26Z"/><path class="oa196-2" d="M13,26v1h3V26H13Z"/><path class="oa196-2" d="M13,23h3v1h1V21H16v1H13V21H12v3h1Z"/><path class="oa196-5" d="M13,25v1h3V25h1V24H16V23H13v1H12v1Z"/><path class="oa196-2" d="M12,26h1V25H12V24H10v1h1v8h1V26Z"/><path class="oa196-3" d="M10,31V30H9v2h1v1h1V31Z"/><path class="oa196-3" d="M10,26H9v2h1v1h1V27H10Z"/><path class="oa196-2" d="M10,26V25H8v1h2Z"/><path class="oa196-2" d="M9,31V27H8v6H9V31Z"/><rect class="oa196-2" x="7" y="26" width="1" height="1"/><path class="oa196-3" d="M8,29V27H7v2Z"/><path class="oa196-3" d="M7,31v2H8V31Z"/><path class="oa196-2" d="M7,30V27H6v6H7V30Z"/><path class="oa196-6" d="M22,30V29H21v1Z"/><path class="oa196-6" d="M21,32v1h1V32Z"/><path class="oa196-6" d="M19,31h1V30H19Z"/><path class="oa196-6" d="M18,28v2h1V28Z"/><path class="oa196-6" d="M18,32v1h1V32Z"/><path class="oa196-6" d="M10,27h1V25H10v2Z"/><path class="oa196-6" d="M10,28H9v2h1v1h1V29H10Z"/><path class="oa196-6" d="M9,32v1h1V32Z"/><path class="oa196-6" d="M9,27V26H8v1Z"/><path class="oa196-6" d="M7,30v1H8V29H7Z"/><path class="oa196-5" d="M12,14V13H10v1h2Z"/><path class="oa196-5" d="M13,22h3V21h1V20h1V19h1V16h1V15H16V14h2V13H13v2H9v1h1v3h1v1h1v1h1Zm1-6h1v1H14Zm-1,3h3v1H13Z"/><path class="oa196-2" d="M19,16v3h1V16Z"/><rect class="oa196-2" x="18" y="19" width="1" height="1"/><rect class="oa196-2" x="17" y="20" width="1" height="1"/><rect class="oa196-2" x="11" y="20" width="1" height="1"/><rect class="oa196-2" x="10" y="19" width="1" height="1"/><path class="oa196-2" d="M10,16H9v3h1V16Z"/><rect class="oa196-2" x="8" y="15" width="1" height="1"/><rect class="oa196-2" x="14" y="16" width="1" height="1"/><path class="oa196-7" d="M12,15h1V14H12Z"/><path class="oa196-7" d="M10,14v1h1V14Z"/><path class="oa196-7" d="M18,14v1h1V14Z"/><path class="oa196-7" d="M16,14v1h1V14Z"/><path class="oa196-2" d="M11,14v1h1V14Z"/><path class="oa196-2" d="M17,14v1h1V14Z"/><path class="oa196-8" d="M12,14h1V13H12Z"/><rect class="oa196-2" x="13" y="19" width="3" height="1"/><path class="oa196-9" d="M18,13v1h1v1h1v3h1V13H18Z"/><path class="oa196-9" d="M10,14V13H9v2h1Z"/><path class="oa196-2" d="M24,11H22v1h2Z"/><path class="oa196-10" d="M21,8h1V7H21Z"/><path class="oa196-2" d="M11,13H22V12H20V11H19v1H10V11H9v1H7v1h4Z"/><rect class="oa196-10" x="20" y="8" width="1" height="1"/><path class="oa196-11" d="M19,11h1V10H19Z"/><path class="oa196-7" d="M18,11h1V10h1V8h1V7h1V6H20V7H19V8H18v3Z"/><path class="oa196-11" d="M17,11H10v1h9V11H17Z"/><path class="oa196-2" d="M11,11h7V7H16V8H13V7H11V8H10v3Z"/><path class="oa196-11" d="M10,10H9v1h1Z"/><path class="oa196-2" d="M6,11H5v1H7V11Z"/><rect class="oa196-12" x="23" y="24" width="1" height="1"/><rect class="oa196-12" x="20" y="24" width="1" height="1"/><path class="oa196-2" d="M23.25,26H21v1h3V26Z"/><rect class="oa196-2" x="21" y="24" width="1" height="1"/><rect class="oa196-2" x="24" y="24" width="1" height="1"/><path class="oa196-2" d="M24,28h1V27H24Z"/><path class="oa196-9" d="M19,26v4h1V29h1V28H20V24h1V23h2v1h2v3h1V23H25V22H24V21H20v1H19v4Z"/><path class="oa196-9" d="M24,29h1V28H24Z"/><path class="oa196-9" d="M23,30h1V29H23Z"/><path class="oa196-5" d="M24,25H23V23H21v1h1v1H20v3h4V27H21V26h3v1h1V25Z"/></svg>