<svg xmlns="http://www.w3.org/2000/svg" viewBox="0 0 29 33"><defs><style>polygon,rect,path{shape-rendering:crispedges;}.na111-1{fill:#31a09d;}.na111-2{fill:#000000;}.na111-3{fill:#ffb3c0;}.na111-4{fill:#cc3232;}.na111-5{fill:#e8b795;}.na111-6{fill:#cc3232;}.na111-7{fill:#ffffff;}.na111-8{fill:#004a77;}.na111-9{fill:#99004d;}.na111-10{fill:#004a77;}</style></defs><path class="na111-1" d="M0,33H6V27H7V26H8V25h2V24h2V21H11V20H10V19H9V16H8V15H9V14H8V12H9V11H8V10H9V9H8V8h2V7h1V8h1V6h1V7h1V8h1V7h1V6h1V7h1V8h1V7h1V8H19V9h2v2H20v1h1v1H20v1h1v2H20v3H19v1H18v1H17v3h2v1h2v1h1v1h1v6h6V0H0Z"/><path class="na111-2" d="M23,27H22v6h1V27Z"/><rect class="na111-2" x="21" y="26" width="1" height="1"/><path class="na111-3" d="M21,28h1V27H21Z"/><path class="na111-3" d="M21,31v1h1V30H21Z"/><path class="na111-2" d="M21,31V27H20v6h1V31Z"/><path class="na111-3" d="M19,31V30H18v2h1v1h1V31Z"/><path class="na111-3" d="M18,26v2h1v1h1V27H19V25H18Z"/><path class="na111-2" d="M20,26h1V25H19v1Z"/><path class="na111-2" d="M18,31V25h1V24H17v1H16v1h1v7h1V31Z"/><path class="na111-4" d="M17,26H16v1H13V26H12v7h5V26Z"/><path class="na111-2" d="M13,26v1h3V26H13Z"/><path class="na111-2" d="M13,23h3v1h1V21H16v1H13V21H12v3h1Z"/><path class="na111-5" d="M13,25v1h3V25h1V24H16V23H13v1H12v1Z"/><path class="na111-2" d="M12,26h1V25H12V24H10v1h1v8h1V26Z"/><path class="na111-3" d="M10,26H9v2h1v1h1V27H10Z"/><path class="na111-3" d="M10,31V30H9v2h1v1h1V31Z"/><path class="na111-2" d="M10,26V25H8v1h2Z"/><path class="na111-2" d="M9,31V27H8v6H9V31Z"/><rect class="na111-2" x="7" y="26" width="1" height="1"/><path class="na111-3" d="M8,29V27H7v2Z"/><path class="na111-3" d="M7,31v2H8V31Z"/><path class="na111-2" d="M7,30V27H6v6H7V30Z"/><path class="na111-6" d="M21,29v1h1V28H21Z"/><path class="na111-6" d="M21,32v1h1V32Z"/><path class="na111-6" d="M19,26v1h2V26H19Z"/><path class="na111-6" d="M19,28H18v2h1v1h1V29H19Z"/><path class="na111-6" d="M18,32v1h1V32Z"/><path class="na111-6" d="M10,27h1V25H10v2Z"/><path class="na111-6" d="M10,28H9v2h1v1h1V29H10Z"/><path class="na111-6" d="M9,32v1h1V32Z"/><path class="na111-6" d="M9,27V26H8v1Z"/><path class="na111-6" d="M7,30v1H8V29H7Z"/><path class="na111-2" d="M20,16h1V15H20Z"/><path class="na111-5" d="M13,22h3V21h1V20h1V19h1V16h1V15H16V13h1V12h1V10H17v1H16v1H15V10H14v1H13v2H11v1h2v1H9v1h1v3h1v1h1v1h1Zm1-6h1v1H14Zm-2,3V18h5v1H16v1H13V19Z"/><rect class="na111-5" x="10" y="11" width="1" height="1"/><path class="na111-5" d="M18,14h1V13H17v1Z"/><rect class="na111-5" x="11" y="10" width="1" height="1"/><path class="na111-2" d="M19,17v2h1V16H19Z"/><rect class="na111-2" x="18" y="19" width="1" height="1"/><rect class="na111-2" x="17" y="20" width="1" height="1"/><rect class="na111-2" x="11" y="20" width="1" height="1"/><rect class="na111-2" x="10" y="19" width="1" height="1"/><path class="na111-2" d="M10,16H9v3h1V16Z"/><rect class="na111-2" x="8" y="15" width="1" height="1"/><rect class="na111-2" x="14" y="16" width="1" height="1"/><path class="na111-7" d="M13,15V14H12v1Z"/><path class="na111-7" d="M10,15h1V14H10Z"/><path class="na111-7" d="M18,14v1h1V14Z"/><path class="na111-7" d="M16,14v1h1V14Z"/><path class="na111-2" d="M12,15V14H11v1Z"/><path class="na111-2" d="M17,14v1h1V14Z"/><rect class="na111-8" x="10" y="13" width="1" height="1"/><path class="na111-8" d="M11,13h2V12H11Z"/><path class="na111-8" d="M17,13H16v1h1Z"/><path class="na111-8" d="M18,12H17v1h1Z"/><path class="na111-9" d="M16,19h1V18H13v1Z"/><rect class="na111-2" x="13" y="19" width="3" height="1"/><path class="na111-2" d="M13,18H12v1h1Z"/><path class="na111-10" d="M10,14V13h1V12H10V11h1V10h1v1H11v1h2V11h1V10h1v2h1V11h1V10h1v3h1v2h2V14H20V13h1V12H20V11h1V9H19V8H18V7H17V6H16V7H15V8H14V7H13V6H12V8H11V7H10V8H8V9H9v1H8v1H9v1H8v2H9v1h1Z"/><rect class="na111-10" x="19" y="7" width="1" height="1"/></svg>