<svg xmlns="http://www.w3.org/2000/svg" viewBox="0 0 29 33"><defs><style>polygon,rect,path{shape-rendering:crispedges;}.gb98-1{fill:#d4a122;}.gb98-2{fill:#000000;}.gb98-3{fill:#333333;}.gb98-4{fill:#333333;}.gb98-5{fill:#e8b795;}.gb98-6{fill:#90a2a3;}.gb98-7{fill:#e2e2e2;}.gb98-8{fill:#10bcff;}</style></defs><rect class="gb98-1" x="19" y="16" width="1"/><rect class="gb98-1" x="12" y="21" width="1"/><path class="gb98-1" d="M0,33H29V0H0Zm6-1V27H7V26H8V25H9V24h1V23h1V22h1V21H10v1H9V21H8V20H9V18H9V17H8V12H9V10h1V9h1V8h7V9h1v1h1v2h1v6H20V16h0v4h1v1H20v1H19V21H17v1h1v1h1v1h1v1h1v1h1v1h1v6H6Z"/><rect class="gb98-1" x="11" y="20" width="1"/><rect class="gb98-1" x="18" y="19" width="1"/><rect class="gb98-1" x="17" y="20" width="1"/><rect class="gb98-1" x="16" y="21" width="1"/><rect class="gb98-1" x="10" y="19" width="1"/><polygon class="gb98-1" points="14 16 15 16 15 16 14 16 14 17 14 17 14 16"/><path class="gb98-1" d="M13,22Z"/><path class="gb98-2" d="M22,33h1V27H22v6Z"/><path class="gb98-3" d="M21,28v5h1V27H21Z"/><path class="gb98-2" d="M20,27H17v1h2v1h1v4h1V27h1V26H21V25H20v2Z"/><rect class="gb98-2" x="19" y="24" width="1" height="1"/><path class="gb98-3" d="M20,29H19v1H18v1H17v1H16v1h4V29Z"/><rect class="gb98-2" x="18" y="23" width="1" height="1"/><path class="gb98-3" d="M18,25H17v1H16v5h1V30h1V29h1V28H17V27h2V26h1V25H19V24H18Z"/><rect class="gb98-3" x="17" y="23" width="1" height="1"/><rect class="gb98-2" x="17" y="24" width="1" height="1"/><rect class="gb98-2" x="18" y="29" width="1" height="1"/><rect class="gb98-2" x="16" y="25" width="1" height="1"/><path class="gb98-4" d="M15,27H14v6h1V27Z"/><path class="gb98-2" d="M12,24h1V23h3v1h1V23h1V22H17V21H16v1H13V21H12v1H11v1h1Z"/><path class="gb98-5" d="M16,26V25h1V24H16V23H13v1H12v1h1v1h3Z"/><rect class="gb98-2" x="12" y="25" width="1" height="1"/><path class="gb98-3" d="M12,32V31H11V30H10V29H9v4h4V32Z"/><rect class="gb98-3" x="11" y="23" width="1" height="1"/><rect class="gb98-2" x="11" y="24" width="1" height="1"/><rect class="gb98-2" x="11" y="30" width="1" height="1"/><rect class="gb98-2" x="10" y="23" width="1" height="1"/><rect class="gb98-2" x="9" y="24" width="1" height="1"/><path class="gb98-3" d="M10,26v1h2v1H10v1h1v1h1v1h1V26H12V25H11V24H10v1H9v1Z"/><path class="gb98-2" d="M8,28v5H9V29h1V28h2V27H9V25H8v1H7v1H8Z"/><path class="gb98-3" d="M7,32v1H8V27H7v5Z"/><path class="gb98-2" d="M7,32V27H6v6H7Z"/><rect class="gb98-2" x="10" y="29" width="1" height="1"/><rect class="gb98-2" x="17" y="30" width="1" height="1"/><path class="gb98-2" d="M17,32V31H16V26H13v5H12v1h1v1h1V27h1v6h1V32Z"/><path class="gb98-6" d="M9,26v1h1V26Z"/><path class="gb98-6" d="M20,26H19v1h1Z"/><rect class="gb98-2" x="20" y="16"/><path class="gb98-5" d="M14,13h2V12h1V11H16V10H15v1H14v1H13v1Z"/><path class="gb98-5" d="M17,21V20h1V19h1V16h1V15H18v1H16V15H15V14H14v1H13v1H11V15H10v1h0v3h1v1h1v1h1v1h3V21h1Zm-3-5h1v1H14Zm2,3v1H13V19h3V18h1v1Z"/><rect class="gb98-5" x="18" y="13" width="1" height="1"/><path class="gb98-2" d="M19,16v3h1V16Z"/><polygon class="gb98-2" points="18 19 18 20 18 20 19 20 19 19 18 19 18 19"/><path class="gb98-2" d="M17,20h0v1h1V20Z"/><path class="gb98-2" d="M12,20H11v1h1Z"/><polygon class="gb98-2" points="11 19 11 19 10 19 10 20 11 20 11 20 11 19"/><path class="gb98-2" d="M10,19V16h0v2H9v1Z"/><polygon class="gb98-2" points="14 17 14 17 15 17 15 16 15 16 14 16 14 17"/><rect class="gb98-7" x="13" y="12" height="1"/><path class="gb98-7" d="M16,13h2V12H16Z"/><rect class="gb98-2" x="13" y="19" width="3" height="1"/><rect class="gb98-2" x="16" y="18" width="1" height="1"/><path class="gb98-8" d="M19,20H18v1h1v1h1V21h1V20H20V19H19Z"/><path class="gb98-8" d="M10,20V19H9v1H8v1H9v1h1V21h1V20Z"/><path class="gb98-8" d="M10,17V15H9V14h2V13h2V12h1V11h1V10h1v1h1v1h1v1h1v1h1v2h0v2h1V12H20V10H19V9H18V8H11V9H10v1H9v2H8v5H9v1h1Z"/><path class="gb98-2" d="M11,16h2V15h1V14h1v1h1v1h2V15h2V14H18V13H11v1H9v1h2Z"/></svg>