<svg xmlns="http://www.w3.org/2000/svg" viewBox="0 0 29 33"><defs><style>polygon,rect,path{shape-rendering:crispedges;}.ja72-1{fill:#397d98;}.ja72-2{fill:#000000;}.ja72-3{fill:#333333;}.ja72-4{fill:#685432;}.ja72-5{fill:#c18d59;}.ja72-6{fill:#ffffff;}.ja72-7{fill:#af8423;}.ja72-8{fill:#cc3232;}.ja72-9{fill:#45ba00;}</style></defs><rect class="ja72-1" x="16" y="8" width="1" height="1"/><path class="ja72-1" d="M0,33H6V27H7V26H8V25h2V24h2V21H11V20H10V19H9V16H8V15H9V10h1V9h1V8h1V9h1V8h3V7h1V8h2V9h1v1H19v1h1v4h1v1H20v3H19v1H18v1H17v3h2v1h2V23H20V21h1V20h1V19h2v1h1v3H24v8H23v1H21v1h8V0H0Z"/><path class="ja72-2" d="M23,24v7h1V23H23Z"/><path class="ja72-3" d="M23,27H22v1h1Z"/><path class="ja72-3" d="M23,24H22v1h1Z"/><path class="ja72-3" d="M22,30v1h1V30Z"/><path class="ja72-2" d="M22,32h1V31H22V23H21v2H19v1h2v1H20v6h1V32Z"/><path class="ja72-3" d="M17,25V24H12v1Z"/><path class="ja72-3" d="M9,27v1H20V27H9Z"/><path class="ja72-3" d="M9,31H20V30H9Z"/><path class="ja72-2" d="M18,25h1V24H17v1Z"/><path class="ja72-2" d="M13,23V22H12v2h1Z"/><path class="ja72-2" d="M12,24H10v1h2Z"/><path class="ja72-2" d="M10,25H8v1h2Z"/><path class="ja72-2" d="M9,30V27H8v6H9V30Z"/><rect class="ja72-2" x="7" y="26" width="1" height="1"/><path class="ja72-3" d="M7,31H8V30H7Z"/><path class="ja72-3" d="M8,28V27H7v1Z"/><path class="ja72-2" d="M7,30V27H6v6H7V30Z"/><path class="ja72-4" d="M9,31v2H20V31Z"/><path class="ja72-4" d="M9,29v1H20V28H9Z"/><path class="ja72-4" d="M9,27H21V26H19V25H10v1H8v1Z"/><path class="ja72-4" d="M15,23H13v1h3V23Z"/><path class="ja72-4" d="M23,26V25H22v2h1Z"/><path class="ja72-4" d="M23,29V28H22v2h1Z"/><path class="ja72-4" d="M7,31v2H8V31Z"/><path class="ja72-4" d="M7,29v1H8V28H7Z"/><rect class="ja72-2" x="20" y="15" width="1" height="1"/><path class="ja72-2" d="M19,15h1V14H19Z"/><rect class="ja72-5" x="10" y="12" width="1" height="1"/><polygon class="ja72-5" points="18 14 19 14 19 13 17 13 17 14 18 14"/><path class="ja72-5" d="M10,17v1h1v1h1V18h1v1h3v1h1V19h1V18h1V16h1V15H16V13h1V12h1V11H13V10H12v1H11v1h2v1H11v1h2v1H9v1h1Zm4-1h1v1H14Z"/><rect class="ja72-5" x="12" y="19" width="1" height="1"/><path class="ja72-5" d="M13,21h3V20H13Z"/><path class="ja72-2" d="M16,23v1h1V22H16Z"/><rect class="ja72-2" x="8" y="15" width="1" height="1"/><rect class="ja72-2" x="14" y="16" width="1" height="1"/><path class="ja72-6" d="M13,15V14H12v1Z"/><path class="ja72-6" d="M10,15h1V14H10Z"/><path class="ja72-6" d="M18,14v1h1V14Z"/><path class="ja72-6" d="M16,14v1h1V14Z"/><path class="ja72-2" d="M12,15V14H11v1Z"/><path class="ja72-2" d="M17,14v1h1V14Z"/><rect class="ja72-7" x="10" y="13" width="1" height="1"/><rect class="ja72-7" x="11" y="12" width="2" height="1"/><path class="ja72-7" d="M17,13H16v1h1Z"/><path class="ja72-7" d="M19,12H17v1h2Z"/><path class="ja72-8" d="M13,23h3V22h1V21h1V20h1V19h1V16H19v2H18v1H17v1H16v1H13V20H12V19H11V18H10V16H9v3h1v1h1v1h1v1h1Z"/><rect class="ja72-2" x="13" y="19" width="3" height="1"/><rect class="ja72-2" x="12" y="18" width="1" height="1"/><path class="ja72-2" d="M20,21v2h1V21Z"/><rect class="ja72-2" x="21" y="20" width="1" height="1"/><rect class="ja72-2" x="22" y="19" width="2" height="1"/><path class="ja72-2" d="M24,23h1V20H24v3Z"/><path class="ja72-5" d="M22,24h1V23h1V20H22v1H21v2h1Z"/><path class="ja72-9" d="M10,14V12h1V11h1V10h1v1h5v1h1v2h1V11H19V10h1V9H19V8H17V9H16V8H13V9H12V8H11V9H10v1H9v5h1Z"/><rect class="ja72-9" x="16" y="7" width="1" height="1"/></svg>