<svg xmlns="http://www.w3.org/2000/svg" viewBox="0 0 29 33"><defs><style>polygon,rect,path{shape-rendering:crispedges;}.ya40-1{fill:#e55b35;}.ya40-2{fill:#000000;}.ya40-3{fill:#825fff;}.ya40-4{fill:#c18d59;}.ya40-5{fill:#009b97;}.ya40-6{fill:#ffffff;}.ya40-7{fill:#f62;}.ya40-8{fill:#f9db00;}.ya40-9{fill:#1261ff;}.ya40-10{fill:#00c650;}.ya40-11{fill:#e20026;}</style></defs><path class="ya40-1" d="M6,32V26H5V25H6V22H9v3h1V24h1V23h1V22H11V21H10V20H9V17H8V15H9V11h1V10h1V9h7v1h1v1h1v4h1v2H20v3H19v1H18v1H17v1h1v1h1v1h2v1h1v1h1v6h6V0H0V33H6Z"/><path class="ya40-2" d="M23,27H22v6h1V27Z"/><path class="ya40-3" d="M21,31v1h1V30H21Z"/><path class="ya40-3" d="M21,28h1V27H21Z"/><rect class="ya40-2" x="21" y="26" width="1" height="1"/><path class="ya40-2" d="M21,31V27H20v6h1V31Z"/><path class="ya40-3" d="M13,29h1V27H13V26H12v2h1Z"/><path class="ya40-3" d="M18,26v2h1v1h1V27H19V25H18Z"/><path class="ya40-3" d="M19,31V30H18V28H17V27H16V25H15v3h1v1h1v2h1v1h1v1h1V31Z"/><rect class="ya40-3" x="14" y="29" width="1" height="1"/><rect class="ya40-3" x="20" y="26" width="1" height="1"/><path class="ya40-3" d="M16,31V30H15v2h1v1h1V31Z"/><path class="ya40-3" d="M10,31V30H9v2h1v1h1V31Z"/><path class="ya40-3" d="M14,31H13V30H12V28H11V27H10V26H9v2h1v1h1v2h1v1h1v1h1V31Z"/><path class="ya40-2" d="M20,26h1V25H19v1Z"/><rect class="ya40-3" x="16" y="24" width="1" height="1"/><path class="ya40-2" d="M14,32v1h1V32Z"/><path class="ya40-2" d="M14,31h1V30H14Z"/><path class="ya40-2" d="M14,29h1V28H14Z"/><path class="ya40-2" d="M11,26h2V25H12V24h1v1h1v2h1V25h1V24h1v1H16v1h2V25h1V24H18V23H17V22h1V21h1V20h1V17h1V15H20V11H19V10H18V9H11v1H10v1H9v4H8v2H9v3h1v1h1v1h1v1H11v1H10v1h1Zm5-11h2V14h1v2H16Zm0,6H13V20h3Zm-5-5H10V15h2V14h1v2Z"/><path class="ya40-2" d="M9,31V26H8v7H9V31Z"/><path class="ya40-3" d="M7,28v1H8V27H7Z"/><path class="ya40-3" d="M7,31v2H8V31Z"/><path class="ya40-4" d="M7,27H8V26H9V25H6v1H7Z"/><path class="ya40-2" d="M7,30V26H6v7H7V30Z"/><path class="ya40-5" d="M19,28H18v2h1v1h1V29H19Z"/><path class="ya40-5" d="M21,32v1h1V32Z"/><path class="ya40-5" d="M16,26v1h1v1h1V26Z"/><path class="ya40-5" d="M19,26v1h1V26Z"/><path class="ya40-5" d="M21,29v1h1V28H21Z"/><path class="ya40-5" d="M18,32V31H17v2h2V32Z"/><path class="ya40-5" d="M15,30h1v1h1V29H16V28H15v2Z"/><path class="ya40-5" d="M14,27V25H13v2Z"/><path class="ya40-5" d="M14,28h1V27H14Z"/><path class="ya40-5" d="M14,32h1V31H14Z"/><rect class="ya40-5" x="15" y="32" width="1" height="1"/><path class="ya40-5" d="M14,29H13V28H12v2h1v1h1V29Z"/><rect class="ya40-5" x="12" y="24" width="1" height="1"/><path class="ya40-5" d="M10,27h1v1h1V26H11V25H10v2Z"/><path class="ya40-5" d="M12,32V31H11v2h2V32Z"/><path class="ya40-5" d="M10,30v1h1V29H10V28H9v2Z"/><path class="ya40-5" d="M9,32v1h1V32Z"/><path class="ya40-5" d="M7,30v1H8V29H7Z"/><path class="ya40-4" d="M19,15H16v1h3Z"/><path class="ya40-4" d="M13,15H10v1h3Z"/><rect class="ya40-4" x="13" y="20" width="3" height="1"/><path class="ya40-6" d="M19,14H18v1h1Z"/><path class="ya40-6" d="M13,14H12v1h1Z"/><path class="ya40-7" d="M7,22H6v1H7Z"/><path class="ya40-6" d="M8,23V22H7v1Z"/><path class="ya40-8" d="M8,24H9V23H8Z"/><path class="ya40-9" d="M7,24H6v1H7Z"/><path class="ya40-7" d="M8,25H9V24H8Z"/><rect class="ya40-10" x="7" y="23" width="1" height="1"/><path class="ya40-8" d="M7,24v1H8V24Z"/><path class="ya40-11" d="M7,23H6v1H7Z"/><path class="ya40-11" d="M9,23V22H8v1Z"/><rect class="ya40-2" x="5" y="25" width="1" height="1"/><path class="ya40-2" d="M10,26V25H9v1Z"/></svg>