<svg xmlns="http://www.w3.org/2000/svg" viewBox="0 0 29 33"><defs><style>polygon,rect,path{shape-rendering:crispedges;}.ca144-1{fill:#d4a122;}.ca144-2{fill:#000000;}.ca144-3{fill:#c18d59;}.ca144-4{fill:#b8a4ff;}.ca144-5{fill:#6e12ff;}.ca144-6{fill:#990000;}.ca144-7{fill:#ffffff;}.ca144-8{fill:#ff791f;}</style></defs><path class="ca144-1" d="M0,33H6V27H7V26H8V25h2V24h2V22H11V21H10v1H9V21H8V20H7V19H8V12H9V10h1V9h1V8h7V9h1v1h1v2h1v7h1v1H21v1H20v1H19V21H18v1H17v2h2v1h2v1h1v1h1v6h6V0H0Z"/><path class="ca144-2" d="M23,27H22v6h1V27Z"/><rect class="ca144-2" x="21" y="26" width="1" height="1"/><path class="ca144-3" d="M22,27H21v6h1V27Z"/><rect class="ca144-3" x="20" y="26" width="1" height="1"/><path class="ca144-2" d="M21,27H20v6h1V27Z"/><path class="ca144-2" d="M20,26h1V25H19v1Z"/><rect class="ca144-4" x="16" y="30" width="1" height="1"/><path class="ca144-4" d="M16,32H12v1h5V32Z"/><path class="ca144-4" d="M20,27V26H19V25H18v1H17v1H16v1h1v1h1v1h1v3h1V27Z"/><rect class="ca144-4" x="12" y="30" width="1" height="1"/><path class="ca144-4" d="M10,30h1V29h1V28h1V27H12V26H11V25H10v1H9v7h1V30Z"/><path class="ca144-2" d="M18,26V25h1V24H17v2Z"/><rect class="ca144-2" x="16" y="26" width="1" height="1"/><path class="ca144-2" d="M13,27v1h3V27H13Z"/><path class="ca144-2" d="M13,23h3v1h1V21H16v1H13V21H12v3h1Z"/><path class="ca144-3" d="M13,26v1h3V26h1V24H16V23H13v1H12v2Z"/><rect class="ca144-2" x="12" y="26" width="1" height="1"/><path class="ca144-2" d="M11,26h1V24H10v1h1Z"/><path class="ca144-2" d="M10,26V25H8v1h2Z"/><path class="ca144-3" d="M9,27V26H8v1Z"/><path class="ca144-2" d="M9,27H8v6H9V27Z"/><rect class="ca144-2" x="7" y="26" width="1" height="1"/><path class="ca144-3" d="M8,27H7v6H8V27Z"/><path class="ca144-2" d="M7,27H6v6H7V27Z"/><path class="ca144-5" d="M19,30H18V29H17V28H12v1H11v1H10v3h2V32h5v1h2V30Zm-6,1H12V30h1Zm4,0H16V30h1Z"/><path class="ca144-2" d="M20,16h1V15H20Z"/><rect class="ca144-2" x="19" y="14" width="1" height="1"/><path class="ca144-3" d="M18,20V19h1V16h1V15H19V14H18v1H16v1H15v1H14V16H13V15H11V14H10v1H9v1h1v3h1v1h1v1h1v1h3V21h1V20Zm-2,0H13V19H12V18h1v1h3Z"/><path class="ca144-2" d="M19,17v2h1V16H19Z"/><rect class="ca144-2" x="18" y="19" width="1" height="1"/><rect class="ca144-2" x="17" y="20" width="1" height="1"/><rect class="ca144-2" x="11" y="20" width="1" height="1"/><rect class="ca144-2" x="10" y="19" width="1" height="1"/><rect class="ca144-2" x="9" y="14" width="1" height="1"/><path class="ca144-2" d="M10,16H9v3h1V16Z"/><path class="ca144-2" d="M9,15H8v1H9Z"/><path class="ca144-6" d="M17,15h1V14H17Z"/><rect class="ca144-6" x="16" y="13" width="1" height="1"/><rect class="ca144-2" x="14" y="14" width="1" height="1"/><path class="ca144-7" d="M16,14V13H13v1H12v1h1v1h3V15h1V14Zm-1,1H14V14h1Z"/><path class="ca144-6" d="M16,13V12H13v1h3Z"/><rect class="ca144-6" x="12" y="13" width="1" height="1"/><path class="ca144-6" d="M12,15V14H11v1Z"/><path class="ca144-2" d="M14,17h1V16H14Z"/><path class="ca144-3" d="M12,13h1V12h3v1h1v1h1V12H17V11H16V10H13v1H12v1H11v2h1Z"/><rect class="ca144-2" x="13" y="19" width="3" height="1"/><rect class="ca144-2" x="12" y="18" width="1" height="1"/><path class="ca144-8" d="M20,17v2H19v1H18v1h1v1h1V21h1V20h1V19H21V16H20Z"/><path class="ca144-8" d="M9,14h2V12h1V11h1V10h3v1h1v1h1v2h2v1h1V12H20V10H19V9H18V8H11V9H10v1H9v2H8v3H9Z"/><path class="ca144-8" d="M10,20V19H9V16H8v3H7v1H8v1H9v1h1V21h1V20Z"/><path class="ca144-8" d="M11,21v1h1V21Z"/><path class="ca144-8" d="M17,22h1V21H17Z"/></svg>