<svg xmlns="http://www.w3.org/2000/svg" viewBox="0 0 29 33"><defs><style>polygon,rect,path{shape-rendering:crispedges;}.na297-1{fill:#6b4f99;}.na297-2{fill:#000000;}.na297-3{fill:#ffb38d;}.na297-4{fill:#68aaad;}.na297-5{fill:#a56e49;}.na297-6{fill:#db5800;}.na297-7{fill:#ffffff;}.na297-8{fill:#8e4717;}.na297-9{fill:#99004d;}.na297-10{fill:#a06415;}</style></defs><path class="na297-1" d="M0,33H8V32H6V31H5V23H4V20H5V19H7v1H8v1H9v2H8v2h2V24h2V21H11v1H10V19H9V16H8V15H9V11h1V9h1V8h7V9h1v1h1v5h1v1H20v3H19v1H18v1H17v3h2v1h2v1h1v1h1v6h6V0H0Z"/><path class="na297-2" d="M6,29V23H5v8H6V29Z"/><path class="na297-2" d="M23,27H22v6h1V27Z"/><path class="na297-3" d="M21,30v1h1V29H21Z"/><path class="na297-3" d="M21,32v1h1V32Z"/><path class="na297-3" d="M21,28h1V27H21Z"/><rect class="na297-2" x="21" y="26" width="1" height="1"/><path class="na297-2" d="M21,31V27H20v6h1V31Z"/><path class="na297-3" d="M19,32v1h1V32Z"/><path class="na297-3" d="M19,26v1H18v3h1v1h1V29H19V28h1V27h1V26H19Z"/><path class="na297-2" d="M20,26h1V25H19v1Z"/><path class="na297-2" d="M18,30V25h1V24H17v1H16v1h1v7h1V30Z"/><path class="na297-4" d="M17,26H16v1H13V26H12v7h5V26Z"/><path class="na297-2" d="M13,26v1h3V26H13Z"/><path class="na297-5" d="M13,25v1h3V25h1V24H16V23H13v1H12v1Z"/><path class="na297-2" d="M13,23h3v1h1V21H16v1H13V21H12v3h1Z"/><path class="na297-2" d="M12,26h1V25H12V24H10v1h1v8h1V26Z"/><rect class="na297-3" x="9" y="32" width="1" height="1"/><path class="na297-3" d="M10,26H8v1H9v1h1v1H9v2h1V30h1V27H10Z"/><path class="na297-2" d="M9,31V27H8V26h2V25H8V23H7v8H6v1H8v1H9V31Z"/><path class="na297-3" d="M6,28v2H7V27H6Z"/><path class="na297-6" d="M11,30H10v1H9v1h1v1h1V30Z"/><path class="na297-6" d="M10,28H9v1h1Z"/><path class="na297-6" d="M7,30H6v1H7Z"/><path class="na297-6" d="M6,25v2H7V24H6Z"/><path class="na297-6" d="M10,27h1V25H10v2Z"/><path class="na297-6" d="M18,26v1h1V25H18Z"/><path class="na297-6" d="M21,29h1V28H21Z"/><path class="na297-6" d="M19,29h1V28H19Z"/><path class="na297-6" d="M21,32h1V31H21Z"/><path class="na297-6" d="M20,32V31H19V30H18v3h1V32Z"/><rect class="na297-2" x="20" y="15" width="1" height="1"/><rect class="na297-5" x="19" y="15" width="1" height="1"/><rect class="na297-5" x="9" y="15" width="1" height="1"/><rect class="na297-5" x="10" y="16" width="1" height="1"/><path class="na297-5" d="M13,22h3V21h1V20h1V19h1V16H16V14h2V13H15V12H14V11H13V10H11v1H10v2h3v1h1v2h1v1H14V16H13v1H11v3h1v1h1Zm0-3h3V18h1v1H16v1H13Z"/><path class="na297-2" d="M19,17v2h1V16H19Z"/><rect class="na297-2" x="18" y="19" width="1" height="1"/><rect class="na297-2" x="17" y="20" width="1" height="1"/><rect class="na297-2" x="11" y="20" width="1" height="1"/><path class="na297-2" d="M10,16H9v3h1V16Z"/><rect class="na297-2" x="8" y="15" width="1" height="1"/><rect class="na297-2" x="14" y="16" width="1" height="1"/><path class="na297-7" d="M12,15v1h1V14H12Z"/><path class="na297-7" d="M16,14v2h1V14Z"/><path class="na297-7" d="M19,14H18v2h1V14Z"/><path class="na297-2" d="M11,16h1V14H11v2Z"/><path class="na297-2" d="M17,14v2h1V14Z"/><path class="na297-8" d="M11,14V13H10v1Z"/><rect class="na297-2" x="13" y="19" width="3" height="1"/><rect class="na297-2" x="16" y="18" width="1" height="1"/><path class="na297-2" d="M9,23V21H8v2Z"/><rect class="na297-2" x="7" y="20" width="1" height="1"/><rect class="na297-2" x="5" y="19" width="2" height="1"/><path class="na297-2" d="M5,20H4v3H5V20Z"/><path class="na297-5" d="M6,24H7V23H8V21H7V20H5v3H6Z"/><path class="na297-9" d="M11,10h2v1h1v1h1v1h3v1h1v1h1V10H19V9H18V8H11V9H10v2h1Z"/><path class="na297-9" d="M10,14V11H9v4h1Z"/><path class="na297-10" d="M14,16V14H13v2Z"/><path class="na297-10" d="M12,14h1V13H11v1Z"/><path class="na297-10" d="M11,16v1h2V16H11Z"/><path class="na297-10" d="M11,15V14H10v2h1Z"/><path class="na297-10" d="M11,19V17H10v5h1V19Z"/></svg>