<svg xmlns="http://www.w3.org/2000/svg" viewBox="0 0 29 33"><defs><style>polygon,rect,path{shape-rendering:crispedges;}.oa290-1{fill:#d4a122;}.oa290-2{fill:#000000;}.oa290-3{fill:#72dd40;}.oa290-4{fill:#d8be00;}.oa290-5{fill:#efcaaf;}.oa290-6{fill:#317f03;}.oa290-7{fill:#ffffff;}.oa290-8{fill:#6f7032;}.oa290-9{fill:#db5800;}.oa290-10{fill:#508e91;}</style></defs><path class="oa290-1" d="M0,33H6V27H7V26H8V25h2V24h2V21H11V20H9V19H8V11H9V10h1V9h1V8h7V9h1v1h1v1h1v8H20v1H18v1H17v3h2v1h2v1h1v1h1v6h6V0H0Z"/><path class="oa290-2" d="M23,27H22v6h1V27Z"/><rect class="oa290-2" x="21" y="26" width="1" height="1"/><path class="oa290-3" d="M21,31h1V30H21Z"/><path class="oa290-3" d="M21,28h1V27H21Z"/><path class="oa290-2" d="M21,30V27H20v6h1V30Z"/><path class="oa290-3" d="M18,28h2V27H18Z"/><path class="oa290-3" d="M18,31h2V30H18Z"/><path class="oa290-2" d="M20,26h1V25H19v1Z"/><path class="oa290-2" d="M18,30V25h1V24H17v1H16v1h1v7h1V30Z"/><path class="oa290-4" d="M17,26H16v1H13V26H12v7h5V26Z"/><path class="oa290-2" d="M13,26v1h3V26H13Z"/><path class="oa290-2" d="M13,23h3v1h1V21H16v1H13V21H12v3h1Z"/><path class="oa290-5" d="M13,25v1h3V25h1V24H16V23H13v1H12v1Z"/><path class="oa290-2" d="M12,26h1V25H12V24H10v1h1v8h1V26Z"/><path class="oa290-3" d="M9,31h2V30H9Z"/><path class="oa290-3" d="M9,28h2V27H9Z"/><path class="oa290-2" d="M10,25H8v1h2Z"/><path class="oa290-2" d="M9,30V27H8v6H9V30Z"/><rect class="oa290-2" x="7" y="26" width="1" height="1"/><path class="oa290-3" d="M7,31H8V30H7Z"/><path class="oa290-3" d="M8,28V27H7v1Z"/><path class="oa290-2" d="M7,30V27H6v6H7V30Z"/><path class="oa290-6" d="M9,31v2h2V31Z"/><path class="oa290-6" d="M18,31v2h2V31Z"/><path class="oa290-6" d="M18,29v1h2V28H18Z"/><path class="oa290-6" d="M9,29v1h2V28H9Z"/><path class="oa290-6" d="M18,26v1h3V26H19V25H18Z"/><path class="oa290-6" d="M9,27h2V25H10v1H8v1Z"/><path class="oa290-6" d="M7,29v1H8V28H7Z"/><path class="oa290-6" d="M7,31v2H8V31Z"/><path class="oa290-6" d="M21,31v2h1V31Z"/><path class="oa290-6" d="M21,29v1h1V28H21Z"/><path class="oa290-5" d="M19,16V15H16v1h3Z"/><path class="oa290-5" d="M12,15H10v1h3V15Z"/><path class="oa290-5" d="M13,22h3V21h1V20h1V19h1V17H16V16H15v1H14V16H13v1H10v2h1v1h1v1h1Zm-1-3V18h1v1h3v1H13V19Z"/><rect class="oa290-5" x="14" y="15" width="1" height="1"/><path class="oa290-5" d="M13,14h3V13h1V11H15V10H14v1H13v3Z"/><path class="oa290-2" d="M20,16H19v3h1V16Z"/><path class="oa290-2" d="M18,19v1h1V19Z"/><rect class="oa290-2" x="17" y="20" width="1" height="1"/><rect class="oa290-2" x="11" y="20" width="1" height="1"/><path class="oa290-2" d="M10,19v1h1V19Z"/><path class="oa290-2" d="M10,18V16H9v3h1Z"/><rect class="oa290-2" x="14" y="16" width="1" height="1"/><rect class="oa290-7" x="12" y="14" width="1" height="1"/><path class="oa290-7" d="M11,14H10v1h1Z"/><path class="oa290-7" d="M18,15h1V14H18Z"/><path class="oa290-7" d="M16,14v1h1V14Z"/><path class="oa290-2" d="M11,14v1h1V14Z"/><path class="oa290-2" d="M17,14v1h1V14Z"/><path class="oa290-8" d="M13,12H12v1h1Z"/><rect class="oa290-2" x="13" y="19" width="3" height="1"/><rect class="oa290-2" x="12" y="18" width="1" height="1"/><path class="oa290-9" d="M9,16V15H8v4H9V16Z"/><path class="oa290-9" d="M20,16v3h1V15H20Z"/><path class="oa290-9" d="M10,13h2V12h1V11h1V10h1v1h2v2h2v1h2V11H20V10H19V9H18V8H11V9H10v1H9v1H8v3h2Z"/><path class="oa290-9" d="M9,19v1h1V19Z"/><path class="oa290-9" d="M19,20h1V19H19Z"/><path class="oa290-10" d="M19,15v1h1V15h1V14H19Z"/><path class="oa290-10" d="M18,16H16v1h3V16Z"/><path class="oa290-10" d="M12,14h1V13H10v1h2Z"/><path class="oa290-10" d="M16,14h3V13H16Z"/><path class="oa290-10" d="M16,14H13v2h1V15h1v1h1V14Z"/><path class="oa290-10" d="M10,16v1h3V16H10Z"/><path class="oa290-10" d="M9,16h1V14H8v1H9Z"/></svg>