<svg xmlns="http://www.w3.org/2000/svg" viewBox="0 0 29 33"><defs><style>polygon,rect,path{shape-rendering:crispedges;}.la272-1{fill:#6b4f99;}.la272-2{fill:#000000;}.la272-3{fill:#9fffc6;}.la272-4{fill:#e8b795;}.la272-5{fill:#473a35;}.la272-6{fill:#ffffff;}.la272-7{fill:#fad000;}.la272-8{fill:#ff6aa5;}</style></defs><path class="la272-1" d="M6,32V27H7V26H8V25h2V22H9V16H8V15H9V10h1V9h1V8h7V9h1v1h1v5h1v1H20v8H19v1h2v1h1v1h1v6h6V0H0V33H6Z"/><path class="la272-2" d="M23,27H22v6h1V27Z"/><rect class="la272-2" x="21" y="26" width="1" height="1"/><path class="la272-3" d="M22,27H21v6h1V27Z"/><path class="la272-2" d="M21,27H20v6h1V27Z"/><path class="la272-2" d="M20,26h1V25H19v1Z"/><path class="la272-3" d="M20,27h1V26H19v1H18V26H17v1H16v1H13V27H12V26H11V25H10v1H8v1H9v6H20V27Z"/><path class="la272-3" d="M13,23v2h3V23Z"/><path class="la272-2" d="M10,25H8v1h2Z"/><path class="la272-2" d="M9,27H8v6H9V27Z"/><rect class="la272-2" x="7" y="26" width="1" height="1"/><path class="la272-3" d="M8,27H7v6H8V27Z"/><path class="la272-2" d="M7,27H6v6H7V27Z"/><rect class="la272-2" x="20" y="15" width="1" height="1"/><path class="la272-4" d="M13,22h3V21h1V20h1V19h1V16H18v1H16V16H15v1H14V16H13v1H11V16H10v3h1v1h1v1h1Zm-1-3V18h1v1h3v1H13V19Z"/><rect class="la272-4" x="14" y="15" width="1" height="1"/><path class="la272-4" d="M16,13V12h2V11H17V10H14v1H12v1h1v1H11v1h7V13Z"/><rect class="la272-4" x="19" y="15" width="1" height="1"/><path class="la272-2" d="M19,17v2h1V16H19Z"/><rect class="la272-2" x="18" y="19" width="1" height="1"/><rect class="la272-2" x="17" y="20" width="1" height="1"/><rect class="la272-2" x="11" y="20" width="1" height="1"/><rect class="la272-2" x="10" y="19" width="1" height="1"/><path class="la272-2" d="M10,18V16H9v3h1Z"/><rect class="la272-2" x="8" y="15" width="1" height="1"/><rect class="la272-2" x="14" y="16" width="1" height="1"/><rect class="la272-5" x="18" y="13" width="1" height="1"/><rect class="la272-5" x="16" y="12" width="2" height="1"/><path class="la272-5" d="M13,12H11v1h2Z"/><rect class="la272-2" x="17" y="25" width="1" height="1"/><rect class="la272-2" x="16" y="26" width="1" height="1"/><rect class="la272-6" x="16" y="25" width="1" height="1"/><rect class="la272-7" x="15" y="26" width="1" height="1"/><path class="la272-2" d="M14,27H13v1h3V27H14Z"/><path class="la272-6" d="M14,27h1V26H14Z"/><rect class="la272-7" x="13" y="26" width="1" height="1"/><path class="la272-2" d="M13,25v1h3V25H13Z"/><rect class="la272-2" x="12" y="26" width="1" height="1"/><rect class="la272-6" x="12" y="25" width="1" height="1"/><path class="la272-2" d="M13,24V23h3v2h1V21H16v1H13V21H12v4h1Z"/><rect class="la272-2" x="13" y="19" width="3" height="1"/><rect class="la272-2" x="12" y="18" width="1" height="1"/><path class="la272-8" d="M19,20H18v1H17v4h1v2h1V24h1V19H19Z"/><rect class="la272-8" x="9" y="15" width="1" height="1"/><path class="la272-8" d="M11,13V12h1V11h2V10h3v1h1v2h1v1h1V10H19V9H18V8H11V9H10v1H9v4h2Z"/><path class="la272-8" d="M11,26h1V21H11V20H10V19H9v3h1v3h1Z"/><path class="la272-2" d="M10,16h1v1h2V16h1V15h1v1h1v1h2V16h1V15h1V14H9v1h1Z"/></svg>