<svg xmlns="http://www.w3.org/2000/svg" viewBox="0 0 29 33"><defs><style>polygon,rect,path{shape-rendering:crispedges;}.ra104-1{fill:#6b4f99;}.ra104-2{fill:#000000;}.ra104-3{fill:#ffffff;}.ra104-4{fill:#e8b795;}.ra104-5{fill:#ffffff;}.ra104-6{fill:#d8be00;}.ra104-7{fill:#c9a717;}</style></defs><path class="ra104-1" d="M0,33H6V27H7V26H8V25h2V24h1V23H10V22H9V21H8V20H7V19H8V13H4V12H6V11H8V10h2V9h1V8h1V7h1V6h1V5h1V6h1V7h1V8h1V9h1v1h2v1h2v1h2v1H21v6h1v1H21v1H20v1H19v1H18v1h1v1h2v1h1v1h1v6h6V0H0Z"/><rect class="ra104-1" x="18" y="21" width="1" height="1"/><rect class="ra104-1" x="10" y="21" width="1" height="1"/><path class="ra104-2" d="M23,27H22v6h1V27Z"/><path class="ra104-3" d="M22,27H21v6h1V27Z"/><rect class="ra104-2" x="21" y="26" width="1" height="1"/><path class="ra104-2" d="M21,27H20v6h1V27Z"/><path class="ra104-3" d="M20,27h1V26H19V25H18V24H16v1h1v5H16V25H13v5H12V25h1V24H11v1H10v1H8v1H9v6H20V27Z"/><path class="ra104-2" d="M20,26h1V25H19v1Z"/><rect class="ra104-2" x="18" y="24" width="1" height="1"/><rect class="ra104-2" x="18" y="22" width="1" height="1"/><rect class="ra104-3" x="17" y="22" width="1" height="1"/><path class="ra104-2" d="M13,24v1h3V24H13Z"/><path class="ra104-4" d="M15,23H13v1h3V23Z"/><path class="ra104-2" d="M13,23h3v1h2V23H17V21H16v1H13V21H12v2H11v1h2Z"/><path class="ra104-3" d="M12,22H11v1h1Z"/><rect class="ra104-2" x="10" y="24" width="1" height="1"/><rect class="ra104-2" x="10" y="22" width="1" height="1"/><path class="ra104-2" d="M10,25H8v1h2Z"/><path class="ra104-2" d="M9,27H8v6H9V27Z"/><path class="ra104-3" d="M8,27H7v6H8V27Z"/><rect class="ra104-2" x="7" y="26" width="1" height="1"/><path class="ra104-2" d="M7,27H6v6H7V27Z"/><path class="ra104-2" d="M12,26v4h1V25H12Z"/><path class="ra104-2" d="M16,30h1V25H16v5Z"/><path class="ra104-2" d="M20,16h1V15H20Z"/><rect class="ra104-2" x="19" y="14" width="1" height="1"/><rect class="ra104-4" x="19" y="15" width="1" height="1"/><path class="ra104-4" d="M18,20V19h1V16H16V14H13v2H10v3h1v1h1v1h1v1h3V21h1V20Zm-4-4h1v1H14Zm2,4H13V19H12V18h1v1h3Z"/><rect class="ra104-4" x="9" y="15" width="1" height="1"/><path class="ra104-2" d="M19,17v2h1V16H19Z"/><rect class="ra104-2" x="18" y="19" width="1" height="1"/><rect class="ra104-2" x="17" y="20" width="1" height="1"/><rect class="ra104-2" x="11" y="20" width="1" height="1"/><rect class="ra104-2" x="10" y="19" width="1" height="1"/><rect class="ra104-2" x="9" y="14" width="1" height="1"/><path class="ra104-2" d="M10,16H9v3h1V16Z"/><path class="ra104-2" d="M9,15H8v1H9Z"/><rect class="ra104-2" x="14" y="16" width="1" height="1"/><path class="ra104-5" d="M10,16h1V14H10v2Z"/><path class="ra104-5" d="M13,16V14H12v2Z"/><path class="ra104-5" d="M17,16V14H16v2Z"/><path class="ra104-5" d="M19,16V14H18v2Z"/><path class="ra104-2" d="M12,16V14H11v2Z"/><path class="ra104-2" d="M18,16V14H17v2Z"/><rect class="ra104-2" x="13" y="19" width="3" height="1"/><rect class="ra104-2" x="12" y="18" width="1" height="1"/><path class="ra104-6" d="M20,17v2H19v1H18v1h1v1h1V21h1V20h1V19H21V16H20Z"/><path class="ra104-6" d="M9,14H8v1H9Z"/><path class="ra104-6" d="M20,15h1V14H20Z"/><path class="ra104-6" d="M11,21V20H10V19H9V16H8v3H7v1H8v1H9v1h1V21Z"/><path class="ra104-6" d="M11,22h1V21H11Z"/><path class="ra104-6" d="M18,21H17v1h1Z"/><path class="ra104-7" d="M10,14H21V13h4V12H23V11H21V10H19V9H18V8H17V7H16V6H15V5H14V6H13V7H12V8H11V9H10v1H8v1H6v1H4v1H8v1h2Z"/></svg>