<svg xmlns="http://www.w3.org/2000/svg" viewBox="0 0 29 33"><defs><style>polygon,rect,path{shape-rendering:crispedges;}.fa258-1{fill:#29834f;}.fa258-2{fill:#000000;}.fa258-3{fill:#b23b00;}.fa258-4{fill:#e8b795;}.fa258-5{fill:#f9e100;}.fa258-6{fill:#663434;}.fa258-7{fill:#6e12ff;}.fa258-8{fill:#ffffff;}</style></defs><path class="fa258-1" d="M0,33H6V27H7V26H8V25h2V24h2V21H10v1H9V21H8V20H9V17H8V12H9V10h1V9h1V8h7V9h1v1h1v2h1v6H20v2h1v1H20v1H19V21H17v3h2v1h2v1h1v1h1v6h6V0H0Z"/><path class="fa258-2" d="M23,27H22v3H21V27H20v6h1V31h1v2h1V27Z"/><rect class="fa258-2" x="21" y="26" width="1" height="1"/><path class="fa258-3" d="M21,28v2h1V27H21Z"/><path class="fa258-4" d="M21,31v2h1V31Z"/><path class="fa258-2" d="M20,26h1V25H19v1Z"/><rect class="fa258-3" x="18" y="29" width="1" height="1"/><path class="fa258-3" d="M15,29H14v2h1V29Z"/><path class="fa258-3" d="M19,32V31H18v1H17V29h1V28h1v1h1V27h1V26H19V25H17v1H16v1H13V26H12V25H10v1H8v1H9v2h1V28h1v1h1v3H11V31H10v1H9v1H20V32Zm-3-2v1H15v1H13V28h2v1h1Z"/><rect class="fa258-3" x="10" y="29" width="1" height="1"/><path class="fa258-2" d="M18,25h1V24H17v1Z"/><rect class="fa258-2" x="16" y="25" width="1" height="1"/><path class="fa258-2" d="M13,26v1h3V26H13Z"/><path class="fa258-2" d="M13,23h3v1h1V21H16v1H13V21H12v3h1Z"/><path class="fa258-4" d="M13,25v1h3V25h1V24H16V23H13v1H12v1Z"/><rect class="fa258-2" x="12" y="25" width="1" height="1"/><path class="fa258-2" d="M12,24H10v1h2Z"/><path class="fa258-2" d="M10,25H8v1h2Z"/><path class="fa258-2" d="M9,31V27H8v3H7V27H6v6H7V31H8v2H9V31Z"/><rect class="fa258-2" x="7" y="26" width="1" height="1"/><path class="fa258-3" d="M7,30H8V27H7v3Z"/><path class="fa258-4" d="M7,31v2H8V31Z"/><path class="fa258-5" d="M19,30H18V29H17v3h1V31h1v1h1V29H19Z"/><rect class="fa258-5" x="18" y="28" width="1" height="1"/><path class="fa258-5" d="M15,30v1h1V29H15Z"/><path class="fa258-5" d="M14,30V29h1V28H13v4h2V31H14Z"/><path class="fa258-5" d="M9,32h1V31h1v1h1V29H11v1H10V29H9v3Z"/><rect class="fa258-5" x="10" y="28" width="1" height="1"/><path class="fa258-4" d="M13,22h3V21h1V20h1V19h1V16H18v1H16V16H15v1H14V16H13v1H11V16H10v3h1v1h1v1h1Zm0-3h3V18h1v1H16v1H13Z"/><path class="fa258-4" d="M14,14h2V13h2V12H17V11H16V10H15v1H14v1H13v2Z"/><rect class="fa258-4" x="19" y="15" width="1" height="1"/><rect class="fa258-4" x="14" y="15" width="1" height="1"/><path class="fa258-2" d="M19,16v3h1V16Z"/><rect class="fa258-2" x="18" y="19" width="1" height="1"/><path class="fa258-2" d="M17,20v1h1V20Z"/><path class="fa258-2" d="M11,20v1h1V20Z"/><rect class="fa258-2" x="10" y="19" width="1" height="1"/><path class="fa258-2" d="M10,18H9v1h1Z"/><rect class="fa258-2" x="14" y="16" width="1" height="1"/><rect class="fa258-6" x="18" y="13" width="1" height="1"/><rect class="fa258-2" x="13" y="19" width="3" height="1"/><rect class="fa258-2" x="16" y="18" width="1" height="1"/><path class="fa258-7" d="M19,20H18v1h1v1h1V21h1V20H20V19H19Z"/><path class="fa258-7" d="M10,20V19H9v1H8v1H9v1h1V21h1V20Z"/><path class="fa258-7" d="M10,17V14h1V13h2V12h1V11h1V10h1v1h1v1h1v1h1v2h1v3h1V12H20V10H19V9H18V8H11V9H10v1H9v2H8v5H9v1h1Z"/><path class="fa258-8" d="M13,13H11v1h2Z"/><path class="fa258-8" d="M11,17h2V16H11Z"/><path class="fa258-8" d="M10,14v2h1V14Z"/><path class="fa258-2" d="M11,14v2h2V14Z"/><path class="fa258-8" d="M19,14H18v2h1V14Z"/><path class="fa258-8" d="M16,14h2V13H16Z"/><path class="fa258-8" d="M16,17h2V16H16Z"/><path class="fa258-8" d="M14,14H13v2h1V15h1v1h1V14Z"/><path class="fa258-2" d="M16,14v2h2V14Z"/></svg>