<svg xmlns="http://www.w3.org/2000/svg" viewBox="0 0 29 33"><defs><style>polygon,rect,path{shape-rendering:crispedges;}.na295-1{fill:#db5a8e;}.na295-2{fill:#000000;}.na295-3{fill:#f9e100;}.na295-4{fill:#317f03;}.na295-5{fill:#e8b795;}.na295-6{fill:#9b8100;}.na295-7{fill:#7f5018;}.na295-8{fill:#7f5018;}.na295-9{fill:#0079bc;}</style></defs><path class="na295-1" d="M0,33H6V24H7V23H8v1H9v1h1V24h2V21H11V20H10V19H9V16H8V15H9V14H8V11H9V10h1V9h2V8h5V9h1v1h1v1h1v4h1v1H20v3H19v1H18v1H17v3h2v1h1V24h1V23h1v1h1v9h6V0H0Z"/><path class="na295-2" d="M7,30V24H6v9H7V30Z"/><path class="na295-3" d="M7,31v2H8V31Z"/><path class="na295-3" d="M7,29v1H8V28H7Z"/><path class="na295-2" d="M9,31V27H8v6H9V31Z"/><path class="na295-3" d="M11,29H10V28h1V25H10v2H9v5h1v1h1V29Z"/><path class="na295-2" d="M12,26h1V25H12V24H10v1h1v8h1V26Z"/><path class="na295-4" d="M17,26H16v1H13V26H12v7h5V26Z"/><path class="na295-2" d="M13,23h3v1h1V21H16v1H13V21H12v3h1Z"/><path class="na295-2" d="M13,26v1h3V26H13Z"/><path class="na295-5" d="M13,25v1h3V25h1V24H16V23H13v1H12v1Z"/><path class="na295-2" d="M18,29V25h1V24H17v1H16v1h1v7h1V29Z"/><path class="na295-3" d="M20,32V27H19V25H18v3h1v1H18v4h1V32Z"/><path class="na295-2" d="M21,31V27H20v6h1V31Z"/><path class="na295-3" d="M21,32v1h1V32Z"/><path class="na295-3" d="M21,29v1h1V28H21Z"/><path class="na295-2" d="M23,24H22v9h1V24Z"/><path class="na295-6" d="M21,31v1h1V30H21Z"/><path class="na295-6" d="M10,29h1V28H10Z"/><path class="na295-6" d="M19,29V28H18v1Z"/><path class="na295-6" d="M21,28h1V27H21Z"/><path class="na295-6" d="M7,28H8V27H7Z"/><path class="na295-6" d="M19,32v1h1V32Z"/><path class="na295-6" d="M9,32v1h1V32Z"/><path class="na295-6" d="M7,31H8V30H7Z"/><rect class="na295-2" x="20" y="15" width="1" height="1"/><rect class="na295-5" x="15" y="20" width="1" height="1"/><rect class="na295-5" x="9" y="15" width="1" height="1"/><rect class="na295-5" x="13" y="20" width="1" height="1"/><rect class="na295-5" x="14" y="15" width="1" height="1"/><path class="na295-5" d="M14,10v1H12v1h1v1H10v1h9V13H16V12h3V11H18V10H14Z"/><rect class="na295-5" x="12" y="19" width="1" height="1"/><rect class="na295-5" x="19" y="15" width="1" height="1"/><path class="na295-5" d="M12,19V18h5v1h2V16H18v1H16V16H15v1H14V16H13v1H11V16H10v3h2Z"/><rect class="na295-5" x="16" y="19" width="1" height="1"/><path class="na295-2" d="M19,17v2h1V16H19Z"/><path class="na295-2" d="M18,20h1V19H18Z"/><rect class="na295-2" x="17" y="20" width="1" height="1"/><rect class="na295-2" x="11" y="20" width="1" height="1"/><path class="na295-2" d="M10,19v1h1V19Z"/><path class="na295-2" d="M10,16H9v3h1V16Z"/><rect class="na295-2" x="8" y="15" width="1" height="1"/><rect class="na295-2" x="14" y="16" width="1" height="1"/><path class="na295-7" d="M13,12H11v1h2Z"/><rect class="na295-7" x="16" y="12" width="3" height="1"/><path class="na295-8" d="M17,19v1h1V19Z"/><rect class="na295-8" x="16" y="20" width="1" height="1"/><path class="na295-8" d="M15,20H14v1H13v1h3V21H15Z"/><path class="na295-8" d="M14,19h2V18H12v1h2Z"/><rect class="na295-8" x="12" y="20" width="1" height="1"/><path class="na295-8" d="M12,19H11v1h1Z"/><path class="na295-2" d="M15,20h1V19H13v1h2Z"/><path class="na295-2" d="M17,19V18H16v1Z"/><path class="na295-5" d="M21,27h1V24H21v1H20v2Z"/><path class="na295-2" d="M20,27V25H19v2Z"/><rect class="na295-2" x="20" y="24" width="1" height="1"/><rect class="na295-2" x="21" y="23" width="1" height="1"/><path class="na295-5" d="M7,27H9V25H8V24H7v3Z"/><path class="na295-2" d="M10,27V25H9v2Z"/><rect class="na295-2" x="8" y="24" width="1" height="1"/><rect class="na295-2" x="7" y="23" width="1" height="1"/><path class="na295-9" d="M19,13v1h1V11H19v2Z"/><rect class="na295-9" x="18" y="10" width="1" height="1"/><path class="na295-9" d="M10,13h1V12h1V11h2V10h4V9H17V8H12V9H10v1H9v1H8v3h2Z"/><path class="na295-2" d="M10,16h1v1h2V16h1V15h1v1h1v1h2V16h1V15h1V14H9v1h1Z"/></svg>