<svg xmlns="http://www.w3.org/2000/svg" viewBox="0 0 29 33"><defs><style>polygon,rect,path{shape-rendering:crispedges;}.ra122-1{fill:#b4bd09;}.ra122-2{fill:#000000;}.ra122-3{fill:#66334f;}.ra122-4{fill:#ce8452;}.ra122-5{fill:#ffffff;}.ra122-6{fill:#ffffff;}.ra122-7{fill:#db5800;}.ra122-8{fill:#b18518;}.ra122-9{fill:#c9936f;}.ra122-10{fill:#e8b592;}.ra122-11{fill:#004b68;}.ra122-12{fill:#fad000;}</style></defs><path class="ra122-1" d="M20,23v1H19v1h2V23Z"/><path class="ra122-1" d="M6,32V27H7V26H8V25h2V22H9V16H8V15H9V14H8V13H4V12H6V11H8V10h2V9h1V8h1V7h1V6h1V5h1V6h1V7h1V8h1V9h1v1h2v1h2v1h2v1H21v1H20v1h1v2h1V16h1v1h1V16h1v7H24v8H23v1H21v1h8V0H0V33H6Z"/><path class="ra122-2" d="M23,26v5h1V25H23Z"/><path class="ra122-2" d="M7,27H6v6H7V27Z"/><path class="ra122-3" d="M8,27H7v6H8V27Z"/><rect class="ra122-2" x="7" y="26" width="1" height="1"/><path class="ra122-2" d="M9,31V27H8v6H9V31Z"/><path class="ra122-3" d="M19,32V31H18v1H17V30H16v1H15v1H13V30H12v2H11V31H10v1H9v1H20V32Z"/><rect class="ra122-3" x="12" y="24" width="1" height="1"/><path class="ra122-3" d="M9,27v2h1V28h1v1h1V26H11V25H10v1H8v1Z"/><rect class="ra122-3" x="10" y="29" width="1" height="1"/><rect class="ra122-3" x="16" y="24" width="1" height="1"/><path class="ra122-3" d="M18,27V25H17v4h1V28h1v1h1V27h1V26H19v1Z"/><rect class="ra122-3" x="18" y="29" width="1" height="1"/><path class="ra122-2" d="M10,25H8v1h2Z"/><path class="ra122-2" d="M13,23h3v1h1V21H16v1H13V21H12v3h1Z"/><path class="ra122-2" d="M15,24H13v1h3V24Z"/><path class="ra122-4" d="M16,24V23H13v1h3Z"/><path class="ra122-2" d="M22,32h1V31H22V25H19v1h2v1H20v6h1V32Z"/><path class="ra122-3" d="M23,26V25H22v6h1V26Z"/><path class="ra122-3" d="M14,29v2h1V29Z"/><path class="ra122-3" d="M13,25v3h2v1h1V25H13Z"/><path class="ra122-5" d="M19,30H18V29H17v3h1V31h1v1h1V29H19Z"/><rect class="ra122-5" x="18" y="28" width="1" height="1"/><path class="ra122-5" d="M15,29v2h1V29Z"/><path class="ra122-5" d="M14,30V29h1V28H13v4h2V31H14Z"/><path class="ra122-5" d="M11,29v1H10V29H9v3h1V31h1v1h1V29Z"/><rect class="ra122-5" x="10" y="28" width="1" height="1"/><path class="ra122-2" d="M13,25H12v5h1V25Z"/><path class="ra122-2" d="M17,28V25H16v5h1V28Z"/><path class="ra122-2" d="M21,16V15H20v1Z"/><path class="ra122-4" d="M18,15H16V14H13v1H10v4h1v1h1v1h1v1h3V21h1V20h1V19h1V16h1V15H18Zm-4,1h1v1H14Zm2,4H13V19H12V18h1v1h3Z"/><path class="ra122-2" d="M20,18V16H19v3h1Z"/><rect class="ra122-2" x="18" y="19" width="1" height="1"/><rect class="ra122-2" x="17" y="20" width="1" height="1"/><rect class="ra122-2" x="11" y="20" width="1" height="1"/><rect class="ra122-2" x="10" y="19" width="1" height="1"/><path class="ra122-2" d="M10,18V16H9v3h1Z"/><rect class="ra122-2" x="8" y="15" width="1" height="1"/><rect class="ra122-2" x="14" y="16" width="1" height="1"/><path class="ra122-6" d="M11,14H10v1h1Z"/><path class="ra122-6" d="M17,15V14H16v1Z"/><path class="ra122-2" d="M12,15h1V14H11v1Z"/><path class="ra122-2" d="M18,15h1V14H17v1Z"/><rect class="ra122-2" x="13" y="19" width="3" height="1"/><rect class="ra122-2" x="12" y="18" width="1" height="1"/><path class="ra122-7" d="M20,24V19H19v1H18v1H17v4h1v2h1V24Z"/><path class="ra122-7" d="M19,15h1V14H19Z"/><path class="ra122-7" d="M10,15V14H9v2h1Z"/><path class="ra122-7" d="M11,26h1V21H11V20H10V19H9v3h1v3h1Z"/><path class="ra122-8" d="M11,14H21V13h4V12H23V11H21V10H19V9H18V8H17V7H16V6H15V5H14V6H13V7H12V8H11V9H10v1H8v1H6v1H4v1H8v1h3Z"/><path class="ra122-9" d="M21,23V22H20v1Z"/><path class="ra122-9" d="M24,22.111V23h1V22H24Z"/><rect class="ra122-2" x="21" y="19" width="1" height="1"/><rect class="ra122-2" x="23" y="19" width="1" height="1"/><path class="ra122-10" d="M24,22H21v1h3V22Z"/><path class="ra122-10" d="M23,20V19H22v1H20v2h1V21h3v1h1V20H23Z"/><path class="ra122-11" d="M21,23v2h3V23H21Z"/><path class="ra122-12" d="M20,18v2h1V19h3v1h1V18H20Z"/><path class="ra122-2" d="M24,22V21H21v1h3Z"/><path class="ra122-6" d="M20,17v1h5V16H24v1H23V16H22v1H21V16H20Z"/></svg>