<svg xmlns="http://www.w3.org/2000/svg" viewBox="0 0 29 33"><defs><style>polygon,rect,path{shape-rendering:crispedges;}.ya279-1{fill:#397d98;}.ya279-2{fill:#000000;}.ya279-3{fill:#990000;}.ya279-4{fill:#e8b795;}.ya279-5{fill:#825fff;}.ya279-6{fill:#893a1f;}.ya279-7{fill:#893a1f;}.ya279-8{fill:#38a6e8;}</style></defs><rect class="ya279-1" x="9" y="16" width="1"/><path class="ya279-1" d="M19,19V16h0v3H18v1H17v1H16v1h0V21h1V20h1V19Z"/><rect class="ya279-1" x="11" y="20" width="1"/><polygon class="ya279-1" points="14 17 14 16 15 16 15 16 14 16 14 17 14 17"/><rect class="ya279-1" x="10" y="19" width="1"/><path class="ya279-1" d="M0,33H29V0H0Zm6-1V27H7V26H8V25h2V24h1V23h1V21H11V20H9V18H8V12H9V11h1V10h1V9h7v1h1v1h1v2h1v2h0v1h0v2H20v2H18v1H17v2h1v1h1v1h2v1h1v1h1v6H6Z"/><rect class="ya279-1" x="12" y="21" width="1"/><path class="ya279-2" d="M22,29v4h1V27H22v2Z"/><path class="ya279-3" d="M21,28h1V27H21Z"/><path class="ya279-3" d="M21,31v1h1V30H21Z"/><rect class="ya279-2" x="21" y="26" width="1" height="1"/><path class="ya279-2" d="M21,31V27H20v6h1V31Z"/><rect class="ya279-3" x="14" y="29" width="1" height="1"/><path class="ya279-3" d="M18,26v2h1v1h1V27H19V25H18Z"/><path class="ya279-3" d="M16,31V30H15v2h1v1h1V31Z"/><path class="ya279-3" d="M19,31V30H18V28H17V27H16V25H15v3h1v1h1v2h1v1h1v1h1V31Z"/><path class="ya279-3" d="M10,31V30H9v2h1v1h1V31Z"/><path class="ya279-3" d="M13,29h1V27H13V26H12v2h1Z"/><path class="ya279-3" d="M14,31H13V30H12V28H11V27H10V26H9v2h1v1h1v2h1v1h1v1h1V31Z"/><path class="ya279-2" d="M20,26h1V25H19v1Z"/><rect class="ya279-3" x="16" y="24" width="1" height="1"/><rect class="ya279-2" x="15" y="24" width="1" height="1"/><path class="ya279-2" d="M14,32v1h1V32Z"/><path class="ya279-2" d="M14,31h1V30H14Z"/><path class="ya279-2" d="M14,29h1V28H14Z"/><path class="ya279-2" d="M14,26v1h1V25H14Z"/><rect class="ya279-2" x="13" y="24" width="1" height="1"/><path class="ya279-4" d="M14,25h1V24h1V23H13v1h1Z"/><path class="ya279-2" d="M11,26h2V25H12V24h1V23h3v1h1v1H16v1h2V25h1V24H18V23H17V21H16v1H13V21H12v2H11v1H10v1h1Z"/><path class="ya279-2" d="M10,26V25H8v1h2Z"/><path class="ya279-2" d="M9,31V27H8v6H9V31Z"/><path class="ya279-3" d="M7,31v2H8V31Z"/><path class="ya279-3" d="M8,29V27H7v2Z"/><rect class="ya279-2" x="7" y="26" width="1" height="1"/><path class="ya279-2" d="M7,32V27H6v6H7Z"/><path class="ya279-5" d="M22,30V28H21v2Z"/><path class="ya279-5" d="M21,32v1h1V32Z"/><path class="ya279-5" d="M19,26v1h2V26H19Z"/><path class="ya279-5" d="M19,30v1h1V29H19V28H18v2Z"/><path class="ya279-5" d="M17,27v1h1V26H16v1Z"/><path class="ya279-5" d="M18,32V31H17v2h2V32Z"/><path class="ya279-5" d="M15,30h1v1h1V29H16V28H15v2Z"/><path class="ya279-5" d="M14,28h1V27H14Z"/><polygon class="ya279-5" points="14 27 14 26 14 25 13 25 13 26 13 27 14 27"/><path class="ya279-5" d="M14,32h1V31H14Z"/><path class="ya279-5" d="M15,32v1h1V32Z"/><path class="ya279-5" d="M13,30v1h1V29H13V28H12v2Z"/><rect class="ya279-5" x="12" y="24" width="1" height="1"/><path class="ya279-5" d="M10,27h1v1h1V26H11V25H10v2Z"/><path class="ya279-5" d="M12,32V31H11v2h2V32Z"/><path class="ya279-5" d="M10,30v1h1V29H10V28H9v2Z"/><path class="ya279-5" d="M9,32v1h1V32Z"/><path class="ya279-5" d="M9,27V26H8v1Z"/><path class="ya279-5" d="M8,30V29H7v2H8Z"/><polygon class="ya279-2" points="21 16 21 15 21 15 21 16 21 16"/><path class="ya279-4" d="M16,22V21h1V20h1V19h1V18H18V16H17v1H16V15H15V14H14v2h1v1H14V16H11v2H10v1h1v1h1v1h1v1h3Zm-4-3V18h5v1H15v1H14V19Z"/><polygon class="ya279-4" points="10 15 9 15 9 16 10 16 10 15"/><path class="ya279-4" d="M13,13h2V11H14v1H13Z"/><path class="ya279-4" d="M17,12H16v1h1Z"/><rect class="ya279-4" x="19" y="15" width="1" height="1"/><polygon class="ya279-4" points="12 12 12 11 11 11 11 12 12 12 12 12"/><path class="ya279-2" d="M20,17V16H19v2h1Z"/><rect class="ya279-2" x="19" y="10" height="1"/><path class="ya279-2" d="M18,19v1h1V19Z"/><rect class="ya279-2" x="17" y="20" width="1" height="1"/><rect class="ya279-2" x="18" y="9" height="1"/><polygon class="ya279-2" points="12 20 12 20 11 20 11 21 12 21 12 21 12 20"/><path class="ya279-2" d="M11,19H10v1h1Z"/><path class="ya279-2" d="M10,18V16H9v2h1Z"/><polygon class="ya279-2" points="14 17 14 17 15 17 15 16 15 16 14 16 14 17"/><rect class="ya279-6" x="13" y="12" height="1"/><rect class="ya279-6" x="11" y="12" width="1" height="1"/><rect class="ya279-6" x="17" y="12" width="1" height="1"/><path class="ya279-7" d="M17,19V18H12v1h5Z"/><path class="ya279-2" d="M15,20V19H14v1Z"/><path class="ya279-8" d="M9,16H9V14h2V11h1v1h0v1h1V12h1V11h1v2h1V12h2v2h2v2h0v2h1V13H20V11H19V10H18V9H11v1H10v1H9v1H8v6H9V16Z"/><path class="ya279-8" d="M18,15v3h1V15Z"/><path class="ya279-8" d="M11,17V15H10v1h0v2h1Z"/><path class="ya279-8" d="M10,19V18H9v2h1V19Z"/><path class="ya279-8" d="M13,16h1V15H13Z"/><path class="ya279-8" d="M16,17h1V16H16Z"/><path class="ya279-8" d="M19,19v1h1V18H19Z"/><path class="ya279-2" d="M11,15v1h2V15h1V14h1v1h1v1h2V15h2V14H18V13H11v1H9v1h2Z"/></svg>