<svg xmlns="http://www.w3.org/2000/svg" viewBox="0 0 29 33"><defs><style>polygon,rect,path{shape-rendering:crispedges;}.fb182-1{fill:#29834f;}.fb182-2{fill:#000000;}.fb182-3{fill:#333333;}.fb182-4{fill:#9b8100;}.fb182-5{fill:#ce8452;}.fb182-6{fill:#90a2a3;}.fb182-7{fill:#ffffff;}.fb182-8{fill:#663228;}.fb182-9{fill:#663228;}.fb182-10{fill:#ff5e17;}.fb182-11{fill:#841f00;}.fb182-12{fill:#b23b00;}.fb182-13{fill:#381616;}.fb182-14{fill:#fad000;}</style></defs><path class="fb182-1" d="M6,32V27H7V26H8V25H9V24h1V23h1V22h1V21H9V20H8V19H9V16H8V15H9V10h1V9h1V8h7V9h1v1h1v5h1v1H20v3h1v1h2v1h1v3H23v1h1v1H23v7h6V0H0V33H6Z"/><path class="fb182-1" d="M19,22V21H17v1h1v1h1Z"/><path class="fb182-2" d="M7,27H6v6H7V27Z"/><path class="fb182-3" d="M8,27H7v6H8V27Z"/><path class="fb182-2" d="M9,29h1V28h2V27H9V25H8v1H7v1H8v6H9V29Z"/><rect class="fb182-2" x="9" y="24" width="1" height="1"/><path class="fb182-3" d="M12,32V31H11V30H10V29H9v4h4V32Z"/><rect class="fb182-2" x="10" y="23" width="1" height="1"/><path class="fb182-3" d="M10,26v1h2v1H10v1h1v1h1v1h1V26H12V25H11V24H10v1H9v1Z"/><rect class="fb182-3" x="11" y="23" width="1" height="1"/><rect class="fb182-2" x="11" y="24" width="1" height="1"/><rect class="fb182-2" x="10" y="29" width="1" height="1"/><path class="fb182-2" d="M12,24h1V23h3v1h1V23h1V22H17V21H16v1H13V21H12v1H11v1h1Z"/><rect class="fb182-2" x="12" y="25" width="1" height="1"/><path class="fb182-4" d="M15,27H14v6h1V27Z"/><path class="fb182-5" d="M17,25V24H16V23H13v1H12v1h1v1h3V25Z"/><rect class="fb182-2" x="16" y="25" width="1" height="1"/><path class="fb182-3" d="M20,29H19v1H18v1H17v1H16v1h4V29Z"/><rect class="fb182-3" x="17" y="23" width="1" height="1"/><rect class="fb182-2" x="17" y="24" width="1" height="1"/><rect class="fb182-2" x="17" y="30" width="1" height="1"/><rect class="fb182-2" x="18" y="23" width="1" height="1"/><path class="fb182-2" d="M20,24H19v2h1V24Z"/><path class="fb182-3" d="M19,25V24H18v1H17v1H16v5h1V30h1V29h1V28H17V27h2V25Z"/><path class="fb182-2" d="M21,27V26H20v1H17v1h2v1h1v4h1V27Z"/><path class="fb182-3" d="M22,27H21v6h1V27Z"/><path class="fb182-2" d="M23,26H22v7h1V26Z"/><rect class="fb182-2" x="18" y="29" width="1" height="1"/><rect class="fb182-2" x="11" y="30" width="1" height="1"/><path class="fb182-2" d="M17,32V31H16V26H13v5H12v1h1v1h1V27h1v6h1V32Z"/><path class="fb182-6" d="M19,27h1V26H19Z"/><path class="fb182-6" d="M9,26v1h1V26Z"/><rect class="fb182-2" x="20" y="15" width="1" height="1"/><path class="fb182-2" d="M19,15h1V14H19Z"/><path class="fb182-5" d="M13,22h3V21h1V19h1V18h1V16h1V15H16V14h3V13H13v2H9v1h1v2h1v1h1V18h1v1h3v1H13V19H12v2h1Zm2-5H14V16h1Z"/><path class="fb182-2" d="M18,20H17v1h1Z"/><path class="fb182-2" d="M11,20v1h1V20Z"/><path class="fb182-2" d="M10,14H9v1h1Z"/><rect class="fb182-2" x="8" y="15" width="1" height="1"/><rect class="fb182-2" x="14" y="16" width="1" height="1"/><path class="fb182-7" d="M12,15h1V14H12Z"/><path class="fb182-7" d="M10,14v1h1V14Z"/><path class="fb182-7" d="M18,14v1h1V14Z"/><path class="fb182-7" d="M16,14v1h1V14Z"/><path class="fb182-2" d="M11,14v1h1V14Z"/><path class="fb182-2" d="M17,14v1h1V14Z"/><path class="fb182-8" d="M11,13H10v1h3V13H11Z"/><path class="fb182-9" d="M19,17v1H18v1H17v1h1v1h2V20h1V19H20V16H19Z"/><path class="fb182-9" d="M12,20V19H11V18H10V16H9v3H8v1H9v1h2V20Z"/><rect class="fb182-2" x="13" y="19" width="3" height="1"/><rect class="fb182-2" x="12" y="18" width="1" height="1"/><path class="fb182-10" d="M19,14h1V13H19Z"/><path class="fb182-10" d="M10,13H9v1h1Z"/><path class="fb182-11" d="M19,12v1h1V11H19Z"/><path class="fb182-12" d="M10,12v1h1V11h1v2h1V11h1v2h1V11h1v2h1V11h1v2h1V11h1V10H19V9H18V8H11V9H10v1H9v1h1Z"/><path class="fb182-11" d="M17,11v2h1V11Z"/><path class="fb182-11" d="M15,11v2h1V11Z"/><path class="fb182-11" d="M13,11v2h1V11Z"/><path class="fb182-11" d="M12,12V11H11v2h1Z"/><path class="fb182-11" d="M10,12V11H9v2h1Z"/><path class="fb182-5" d="M20,26h1v1h1V26h1V25H20Z"/><rect class="fb182-2" x="23" y="25" width="1" height="1"/><path class="fb182-13" d="M24,22V21H23v1Z"/><path class="fb182-14" d="M20,21H19v3h1v1h3V24H21V23H20V22h1V21h1v1H21v1h3V22H23V20H20Z"/><rect class="fb182-13" x="21" y="21" width="1" height="1"/><path class="fb182-13" d="M21,23v1h3V23H21Z"/><rect class="fb182-13" x="20" y="22" width="1" height="1"/></svg>