<svg xmlns="http://www.w3.org/2000/svg" viewBox="0 0 29 33"><defs><style>polygon,rect,path{shape-rendering:crispedges;}.pa11-1{fill:#6b4f99;}.pa11-2{fill:#000000;}.pa11-3{fill:#685432;}.pa11-4{fill:#e8b795;}.pa11-5{fill:#ffffff;}.pa11-6{fill:#b23b00;}.pa11-7{fill:#e2e2e2;}.pa11-8{fill:#9b8100;}</style></defs><path class="pa11-1" d="M0,33H6V27H7V26H8V25h2V24h1V23H10V22h1V21H10V20H9V16H8V15H9V10h1V9h1V8h7V9h1v1h1v5h1v1H20v4H19v1H18v1h1v1H18v1h1v1h2v1h1v1h1v6h6V0H0Z"/><path class="pa11-2" d="M23,27H22v6h1V27Z"/><path class="pa11-3" d="M22,27H21v6h1V27Z"/><rect class="pa11-2" x="21" y="26" width="1" height="1"/><path class="pa11-2" d="M21,27H20v6h1V27Z"/><path class="pa11-3" d="M20,27h1V26H19V25H18V24H16v1h1v5H16V25H13v5H12V25h1V24H11v1H10v1H8v1H9v6H20V27Z"/><path class="pa11-2" d="M20,26h1V25H19v1Z"/><rect class="pa11-2" x="18" y="24" width="1" height="1"/><rect class="pa11-2" x="18" y="22" width="1" height="1"/><rect class="pa11-3" x="17" y="22" width="1" height="1"/><path class="pa11-2" d="M13,24v1h3V24H13Z"/><path class="pa11-4" d="M15,23H13v1h3V23Z"/><path class="pa11-2" d="M13,23h3v1h2V23H17V22h1V21H16v1H13V21H11v1h1v1H11v1h2Z"/><rect class="pa11-3" x="11" y="22" width="1" height="1"/><rect class="pa11-2" x="10" y="24" width="1" height="1"/><rect class="pa11-2" x="10" y="22" width="1" height="1"/><path class="pa11-2" d="M10,25H8v1h2Z"/><path class="pa11-2" d="M9,27H8v6H9V27Z"/><path class="pa11-3" d="M8,27H7v6H8V27Z"/><rect class="pa11-2" x="7" y="26" width="1" height="1"/><path class="pa11-2" d="M7,27H6v6H7V27Z"/><path class="pa11-2" d="M12,26v4h1V25H12Z"/><path class="pa11-2" d="M16,30h1V25H16v5Z"/><rect class="pa11-2" x="20" y="15" width="1" height="1"/><path class="pa11-4" d="M10,17v1h1v2h1v1h1v1h3V21h1V20h1V18h1V16h1V15H16V13h1V12h2V11H18V10H16v1H15v1H14v2H13v3H12V16H11V15H9v1h1Zm4-1h1v1H14Zm-2,2h5v1H16v1H13V19H12Z"/><polygon class="pa11-4" points="18 14 19 14 19 13 17 13 17 14 18 14"/><path class="pa11-2" d="M19,17h1V16H19Z"/><path class="pa11-2" d="M10,14H9v1h1Z"/><path class="pa11-2" d="M10,16H9v1h1Z"/><rect class="pa11-2" x="8" y="15" width="1" height="1"/><rect class="pa11-2" x="14" y="16" width="1" height="1"/><path class="pa11-5" d="M16,14v1h1V14Z"/><path class="pa11-2" d="M18,14H17v1h2V14Z"/><path class="pa11-6" d="M17,13H16v1h1Z"/><rect class="pa11-6" x="17" y="12" width="2" height="1"/><path class="pa11-7" d="M19,18H18v2H17v1h2V20h1V17H19Z"/><path class="pa11-7" d="M12,20H11V18H10V17H9v3h1v1h2Z"/><path class="pa11-2" d="M13,18H12v1h1Z"/><path class="pa11-2" d="M17,19V18H16v1Z"/><path class="pa11-2" d="M13,19v1h3V19H15V18H14v1Z"/><path class="pa11-5" d="M14,19V18H13v1Z"/><path class="pa11-5" d="M16,19V18H15v1Z"/><path class="pa11-8" d="M10,15h1v1h1v1h1V14h1V12h1V11h1V10h2v1h1v4h1V10H19V9H18V8H11V9H10v1H9v4h1Z"/></svg>