<svg xmlns="http://www.w3.org/2000/svg" viewBox="0 0 29 33"><defs><style>polygon,rect,path{shape-rendering:crispedges;}.cb32-1{fill:#db5a8e;}.cb32-2{fill:#000000;}.cb32-3{fill:#594589;}.cb32-4{fill:#ffffff;}.cb32-5{fill:#e8b795;}.cb32-6{fill:#00686d;}.cb32-7{fill:#00686d;}.cb32-8{fill:#a7af69;}.cb32-9{fill:#ff1d99;}.cb32-10{fill:#6e12ff;}.cb32-11{fill:#e281bf;}.cb32-12{fill:#b78aa1;}</style></defs><rect class="cb32-1" x="8" y="20" width="1"/><rect class="cb32-1" x="9" y="19" width="1" height="1"/><path class="cb32-1" d="M11,24V23h1V21H11V20H10v1H9v4h1V24Z"/><rect class="cb32-1" x="2" y="20" width="1"/><path class="cb32-1" d="M3,19Z"/><path class="cb32-1" d="M0,33H6V25H7V24H8V22H7v1H6v1H3V23H2V22H1V19H2V18H3V17H6v1H7v1H9V16H8V14H9V11h1V10h1V9h7v1h1v1h1v3h1v2H20v3H19v1H18v1H17v2h1v1h1v1h2v1h1v1h1v6h6V0H0Z"/><path class="cb32-2" d="M23,27H22v6h1V27Z"/><rect class="cb32-2" x="21" y="26" width="1" height="1"/><path class="cb32-3" d="M22,27H21v6h1V27Z"/><path class="cb32-2" d="M21,27H20v6h1V27Z"/><path class="cb32-2" d="M20,26h1V25H19v1Z"/><path class="cb32-3" d="M20,27h1V26H19V25H18v4H17v4h3V27Z"/><rect class="cb32-4" x="16" y="24" width="1" height="1"/><path class="cb32-2" d="M17,29H16v4h1V29Z"/><rect class="cb32-4" x="15" y="23" width="1" height="1"/><path class="cb32-4" d="M16,29h1V26H16V25H13v1H12v3h1v4h1V32h1v1h1V29Zm-1,2H14V30h1Zm0-2H14V28h1Zm0-2H14V26h1Z"/><rect class="cb32-2" x="14" y="26" width="1" height="1"/><rect class="cb32-2" x="14" y="28" width="1" height="1"/><rect class="cb32-2" x="14" y="30" width="1" height="1"/><rect class="cb32-2" x="14" y="32" width="1" height="1"/><rect class="cb32-4" x="13" y="23" width="1" height="1"/><rect class="cb32-4" x="12" y="24" width="1" height="1"/><path class="cb32-2" d="M13,29H12v4h1V29Z"/><path class="cb32-3" d="M12,29H11V25H10v1H9v7h3V29Z"/><rect class="cb32-2" x="9" y="25" width="1" height="1"/><path class="cb32-2" d="M9,26H8v7H9V26Z"/><path class="cb32-5" d="M8,27V26H9V25H7v2Z"/><path class="cb32-4" d="M7,28H8V27H7Z"/><path class="cb32-3" d="M8,28H7v5H8V28Z"/><path class="cb32-2" d="M7,28V25H6v8H7V28Z"/><path class="cb32-2" d="M20,16h1V15H20Z"/><path class="cb32-5" d="M11,13V12h2v2h3V12h2v1h1V11H18V10H11v1H10v2Z"/><path class="cb32-5" d="M16,17V16H15v1H14V16H13v1H10v2h1v1h1V18h5v2h1V19h1V17Z"/><rect class="cb32-5" x="14" y="15" width="1" height="1"/><path class="cb32-5" d="M13,21v1h3V20H13Z"/><path class="cb32-2" d="M19,17v2h1V16H19Z"/><rect class="cb32-2" x="18" y="19" width="1" height="1"/><rect class="cb32-2" x="17" y="20" width="1" height="1"/><path class="cb32-2" d="M16,22H13V21H12v2H11v1H10v1h1v4h1V26h1V25H12V24h1V23h1v1H13v1h3V24H15V23h1v1h1v1H16v1h1v3h1V25h1V24H18V23H17V21H16Z"/><rect class="cb32-2" x="11" y="20" width="1" height="1"/><rect class="cb32-2" x="10" y="19" width="1" height="1"/><path class="cb32-2" d="M10,18V16H9v3h1Z"/><path class="cb32-2" d="M8,15v1H9V15Z"/><rect class="cb32-2" x="14" y="16" width="1" height="1"/><path class="cb32-6" d="M18,12H16v1h2Z"/><path class="cb32-6" d="M13,12H11v1h2Z"/><path class="cb32-7" d="M13,21V19h3V18H12v3Z"/><path class="cb32-7" d="M17,19H16v2h1V19Z"/><path class="cb32-2" d="M13,20h3V19H13Z"/><path class="cb32-2" d="M17,19V18H16v1Z"/><path class="cb32-8" d="M19,14h1V11H19v3Z"/><rect class="cb32-8" x="18" y="10" width="1" height="1"/><path class="cb32-8" d="M18,10V9H11v1h7Z"/><rect class="cb32-8" x="10" y="10" width="1" height="1"/><path class="cb32-8" d="M10,13V11H9v3h1Z"/><path class="cb32-9" d="M19,15v1h1V15h1V14H19Z"/><path class="cb32-9" d="M19,14V13H16v1h3Z"/><path class="cb32-10" d="M17,16h2V14H16v2Z"/><path class="cb32-9" d="M16,16v1h3V16H16Z"/><path class="cb32-9" d="M14,16V15h1v1h1V14H13v2Z"/><path class="cb32-9" d="M13,14V13H10v1h3Z"/><path class="cb32-10" d="M13,16V14H10v2h3Z"/><path class="cb32-9" d="M13,17V16H10v1h3Z"/><path class="cb32-9" d="M10,15V14H8v1H9v1h1Z"/><polygon class="cb32-9" points="9 21 10 21 10 20 9 20 9 20 9 21"/><polygon class="cb32-9" points="9 20 9 19 8 19 8 19 8 20 9 20"/><rect class="cb32-11" x="7" y="20" width="1" height="1"/><path class="cb32-9" d="M9,25V21H8v4Z"/><path class="cb32-2" d="M8,24H7v1H8Z"/><polygon class="cb32-12" points="3 18 2 18 2 19 3 19 3 18"/><path class="cb32-12" d="M7,21V20H8V19H7V18H6V17H3v1H5v1H3v1H2V19H1v3H2v1H3v1H6V23H7V22H8V21Z"/><polygon class="cb32-12" points="9 20 8 20 8 21 9 21 9 21 9 20"/><polygon class="cb32-4" points="3 20 3 19 3 19 2 19 2 19 2 20 3 20"/><path class="cb32-4" d="M4,19H5V18H3v1Z"/></svg>