<svg xmlns="http://www.w3.org/2000/svg" viewBox="0 0 29 33"><defs><style>polygon,rect,path{shape-rendering:crispedges;}.da61-1{fill:#397d98;}.da61-2{fill:#000000;}.da61-3{fill:#ce8452;}.da61-4{fill:#9b8100;}.da61-5{fill:#ff791f;}.da61-6{fill:#9b8100;}.da61-7{fill:#663228;}.da61-8{fill:#cbed03;}.da61-9{fill:#f9e100;}.da61-10{fill:#455054;}.da61-11{fill:#ff1f4a;}.da61-12{fill:#ffffff;}</style></defs><path class="da61-1" d="M8,18v1H9V16H8v2Z"/><path class="da61-1" d="M11,24h1V21H9V20H8v2H9v2H8v1h2V24Z"/><path class="da61-1" d="M0,33H8V32H6V31H5V22H6V21H7V20H5v1H2V17H5V16H8V15H9V11h1V9h1V8h7V9h1v1h1v5h1v1H20v3h1v1H20v1H17v3h2v1h2v1h1v1h1v6h6V0H0Z"/><rect class="da61-2" x="21" y="26" width="1" height="1"/><path class="da61-2" d="M23,27H22v3H21V27H20v6h1V31h1v2h1V27Z"/><path class="da61-2" d="M20,26h1V25H19v1Z"/><path class="da61-2" d="M18,25h1V24H17v1Z"/><path class="da61-2" d="M11,24H10v1h2V24Z"/><path class="da61-2" d="M9,27H8V26h2V25H8V24H7v7H6v1H8v1H9V27Z"/><path class="da61-2" d="M6,22H5v9H6V22Z"/><path class="da61-3" d="M7,30V24H8V22H6v9H7Z"/><rect class="da61-4" x="12" y="30" width="1" height="1"/><path class="da61-4" d="M16,32H12v1h5V32Z"/><path class="da61-4" d="M20,27h1V26H19V25H17v1H16v1H13V26H12V25H10v1H8v1H9v6h1V30h1V29h1V28h5v1h1v1h1v3h1V27Z"/><rect class="da61-4" x="16" y="30" width="1" height="1"/><path class="da61-2" d="M13,26v1h3V26H13Z"/><path class="da61-3" d="M16,23H13v1H12v1h1v1h3V25h1V24H16Z"/><path class="da61-4" d="M21,28v2h1V27H21Z"/><path class="da61-3" d="M21,31v2h1V31Z"/><rect class="da61-2" x="12" y="25" width="1" height="1"/><rect class="da61-2" x="16" y="25" width="1" height="1"/><path class="da61-5" d="M19,30H18V29H17V28H12v1H11v1H10v3h2V32h5v1h2V30Zm-6,1H12V30h1Zm4,0H16V30h1Z"/><rect class="da61-2" x="20" y="15" width="1" height="1"/><path class="da61-2" d="M19,12v1H15v1h4v1h1V11H19Z"/><path class="da61-3" d="M12,12v1h2v1h1V13h1V12h2v1h1V11H18V10H17v1H16V10H15v1H14V10H13v1H12V10H11v1H10v1Z"/><rect class="da61-3" x="19" y="15" width="1" height="1"/><rect class="da61-3" x="9" y="15" width="1" height="1"/><path class="da61-3" d="M17,19H16v1H13V19H12v2h1v1h3V21h1V19Z"/><path class="da61-3" d="M11,18v1h1V18h5v1h1V18h1V16H16V15H13v1H10v2Zm3-2h1v1H14Z"/><rect class="da61-2" x="18" y="10" width="1" height="1"/><path class="da61-2" d="M17,20v1h1V20Z"/><path class="da61-2" d="M16,22H13V21H12v3h1V23h3v1h1V21H16Z"/><rect class="da61-2" x="11" y="9" width="1" height="1"/><rect class="da61-2" x="15" y="9" width="1" height="1"/><rect class="da61-2" x="13" y="9" width="1" height="1"/><rect class="da61-2" x="17" y="9" width="1" height="1"/><path class="da61-2" d="M11,21h1V20H11Z"/><rect class="da61-2" x="8" y="15" width="1" height="1"/><rect class="da61-2" x="14" y="16" width="1" height="1"/><path class="da61-6" d="M18,12H16v1h2Z"/><path class="da61-6" d="M10,12v1h2V12Z"/><path class="da61-7" d="M19,17v1H18v1H17v1h1v1h2V20h1V19H20V16H19Z"/><path class="da61-7" d="M9,21h2V20h1V19H11V18H10V16H9v3H8v1H9Z"/><polygon class="da61-2" points="12 18 12 19 13 19 13 20 16 20 16 19 17 19 17 18 12 18"/><path class="da61-8" d="M11,10V9H10v2h1Z"/><path class="da61-8" d="M12,10v1h1V9h1v2h1V9h1v2h1V9h1V8H11V9h1Z"/><rect class="da61-8" x="18" y="9" width="1" height="1"/><path class="da61-8" d="M20,11V10H19v1Z"/><path class="da61-9" d="M13,16V15h1V14H10v2h3Z"/><path class="da61-9" d="M16,15v1h3V14H15v1Z"/><path class="da61-2" d="M10,14h4V13H10V11H9v4h1Z"/><path class="da61-2" d="M15,15V14H14v1Z"/><path class="da61-10" d="M8,22V20H7v2Z"/><path class="da61-2" d="M7,21H6v1H7Z"/><path class="da61-2" d="M9,22H8v2H9Z"/><path class="da61-11" d="M5,17H2v1H5Z"/><path class="da61-11" d="M6,16H5v1H6Z"/><path class="da61-11" d="M8,17V16H7v1Z"/><path class="da61-11" d="M5,18v1H2v2H5V20H6V18Z"/><polygon class="da61-11" points="8 19 8 18 7 18 7 20 8 20 8 19"/><path class="da61-12" d="M8,18V17H7V16H6v1H5v1H6v2H7V18Z"/><path class="da61-12" d="M5,19V18H2v1H5Z"/></svg>