<svg xmlns="http://www.w3.org/2000/svg" viewBox="0 0 29 33"><defs><style>polygon,rect,path{shape-rendering:crispedges;}.ma110-1{fill:#6b4f99;}.ma110-2{fill:#000000;}.ma110-3{fill:#184144;}.ma110-4{fill:#99ce09;}.ma110-5{fill:#efcaaf;}.ma110-6{fill:#508e91;}.ma110-7{fill:#b23b00;}.ma110-8{fill:#ffffff;}.ma110-9{fill:#fad000;}.ma110-10{fill:#4922aa;}</style></defs><path class="ma110-1" d="M6,32V27H7V26H8V25h2V23h1V22h1V21H11V20H10V19H9V16H8V14H9V12H8v1H7V12H8V11H9V10h1V9h2V8h5V9h2v1h1v1h1v1h1v1H21V12H20v2h1v2H20v3H19v1H18v1H17v1h1v1h1v2h2v1h1v1h1v6h6V0H0V33H6Z"/><path class="ma110-2" d="M23,27H22v6h1V27Z"/><rect class="ma110-2" x="21" y="26" width="1" height="1"/><path class="ma110-3" d="M21,31h1V30H21Z"/><path class="ma110-3" d="M21,28h1V27H21Z"/><path class="ma110-2" d="M21,30V27H20v6h1V30Z"/><path class="ma110-3" d="M18,31h2V30H18Z"/><path class="ma110-3" d="M18,28h2V27H18Z"/><path class="ma110-2" d="M20,26h1V25H19v1Z"/><path class="ma110-2" d="M18,30V25H17v1H16v1h1v6h1V30Z"/><path class="ma110-4" d="M17,27H16v1H13V27H12v6h5V27Z"/><path class="ma110-5" d="M16,25V23H13v2h3Z"/><path class="ma110-2" d="M12,27h1V26H12V25H11v8h1V27Z"/><path class="ma110-3" d="M9,31h2V30H9Z"/><path class="ma110-3" d="M9,28h2V27H9Z"/><path class="ma110-2" d="M10,25H8v1h2Z"/><path class="ma110-2" d="M9,30V27H8v6H9V30Z"/><rect class="ma110-2" x="7" y="26" width="1" height="1"/><path class="ma110-3" d="M8,28V27H7v1Z"/><path class="ma110-3" d="M7,31H8V30H7Z"/><path class="ma110-2" d="M7,30V27H6v6H7V30Z"/><path class="ma110-6" d="M9,31v2h2V31Z"/><path class="ma110-6" d="M18,31v2h2V31Z"/><path class="ma110-6" d="M18,29v1h2V28H18Z"/><path class="ma110-6" d="M9,29v1h2V28H9Z"/><path class="ma110-6" d="M18,26v1h3V26H19V25H18Z"/><path class="ma110-6" d="M9,27h2V25H10v1H8v1Z"/><path class="ma110-6" d="M7,29v1H8V28H7Z"/><path class="ma110-6" d="M7,31v2H8V31Z"/><path class="ma110-6" d="M21,31v2h1V31Z"/><path class="ma110-6" d="M21,29v1h1V28H21Z"/><path class="ma110-2" d="M20,16h1V15H20Z"/><rect class="ma110-2" x="19" y="14" width="1" height="1"/><path class="ma110-5" d="M13,22h3V21h1V20h1V19h1V16h1V15H19V13H17v1h1v1H16v1H15v1H14V16H13V15H11V14h1V13H10v2H9v1h1v3h1v1h1v1h1Zm-1-3V18h1v1h3v1H13V19Z"/><path class="ma110-2" d="M19,17v2h1V16H19Z"/><rect class="ma110-2" x="18" y="19" width="1" height="1"/><rect class="ma110-2" x="17" y="20" width="1" height="1"/><rect class="ma110-2" x="11" y="20" width="1" height="1"/><rect class="ma110-2" x="10" y="19" width="1" height="1"/><path class="ma110-2" d="M10,15V14H9v1Z"/><path class="ma110-2" d="M10,16H9v3h1V16Z"/><path class="ma110-2" d="M8,15v1H9V15Z"/><path class="ma110-7" d="M18,15V14H17v1Z"/><rect class="ma110-7" x="16" y="13" width="1" height="1"/><rect class="ma110-2" x="14" y="14" width="1" height="1"/><path class="ma110-8" d="M16,13H13v1H12v1h1v1h3V15h1V14H16Zm-1,2H14V14h1Z"/><path class="ma110-7" d="M14,13h2V12H13v1Z"/><rect class="ma110-7" x="12" y="13" width="1" height="1"/><path class="ma110-7" d="M11,14v1h1V14Z"/><path class="ma110-2" d="M14,17h1V16H14Z"/><rect class="ma110-5" x="16" y="12" width="1" height="1"/><path class="ma110-5" d="M15,11H14v1h1Z"/><rect class="ma110-5" x="12" y="12" width="1" height="1"/><path class="ma110-2" d="M18,25h1V23H18v2Z"/><path class="ma110-9" d="M17,24v1h1V24Z"/><path class="ma110-8" d="M17,24h1V23H17Z"/><rect class="ma110-8" x="16" y="25" width="1" height="1"/><rect class="ma110-9" x="15" y="26" width="1" height="1"/><path class="ma110-2" d="M14,27H13v1h3V27H14Z"/><path class="ma110-8" d="M15,27V26H14v1Z"/><rect class="ma110-9" x="13" y="26" width="1" height="1"/><path class="ma110-2" d="M15,25H13v1h3V25Z"/><rect class="ma110-8" x="12" y="25" width="1" height="1"/><path class="ma110-2" d="M12,24v1h1V23h3v2h1V23h1V22H17V21H16v1H13V21H12v1H11v1h1Z"/><rect class="ma110-9" x="11" y="24" width="1" height="1"/><rect class="ma110-8" x="11" y="23" width="1" height="1"/><path class="ma110-2" d="M11,24V23H10v2h1Z"/><rect class="ma110-2" x="13" y="19" width="3" height="1"/><rect class="ma110-2" x="12" y="18" width="1" height="1"/><rect class="ma110-10" x="21" y="12" width="1" height="1"/><path class="ma110-10" d="M10,13h2V12h2V11h1v1h2v1h2v1h1V12h1V11H20V10H19V9H17V8H12V9H10v1H9v1H8v1H9v2h1Z"/><path class="ma110-10" d="M21,15V14H20v1Z"/><path class="ma110-10" d="M9,14H8v1H9Z"/><rect class="ma110-10" x="7" y="12" width="1" height="1"/></svg>