<svg xmlns="http://www.w3.org/2000/svg" viewBox="0 0 29 33"><defs><style>polygon,rect,path{shape-rendering:crispedges;}.fb238-1{fill:#6b4f99;}.fb238-2{fill:#000000;}.fb238-3{fill:#9b8100;}.fb238-4{fill:#004a77;}.fb238-5{fill:#e8b795;}.fb238-6{fill:#90a2a3;}.fb238-7{fill:#db5a8e;}.fb238-8{fill:#fad000;}.fb238-9{fill:#ffffff;}.fb238-10{fill:#00af68;}.fb238-11{fill:#ff791f;}.fb238-12{fill:#0068ff;}.fb238-13{fill:#ff1f4a;}</style></defs><path class="fb238-1" d="M0,33H6V27H7V26H8V25H9V24h1V23h1V22h1V21H10V20H9V16H8V15H9V11h1V10h1V7h1V6H11V5h2V6h2V7h1V9h2v1h1v1h1v4h1v1H20v4H19v1H17v1h1v1h1v1h1v1h1v1h1v1h1v6h6V0H0Z"/><path class="fb238-2" d="M23,27H22v6h1V27Z"/><path class="fb238-3" d="M22,27H21v6h1V27Z"/><path class="fb238-2" d="M21,27h1V26H21V25H20v2H17v1h2v1h1v4h1V27Z"/><path class="fb238-3" d="M20,29H19v1H18v1H17v1H16v1h4V29Z"/><path class="fb238-3" d="M16,28v3h1V30h1V29h1V28H17V27H16Z"/><path class="fb238-3" d="M18,26H17v1h2V26h1V25H18Z"/><rect class="fb238-2" x="18" y="29" width="1" height="1"/><path class="fb238-4" d="M15,28H14v5h1V28Z"/><path class="fb238-5" d="M16,25V23H13v2h3Z"/><path class="fb238-3" d="M12,32V31H11V30H10V29H9v4h4V32Z"/><rect class="fb238-2" x="11" y="30" width="1" height="1"/><path class="fb238-3" d="M12,28H10v1h1v1h1v1h1V27H12Z"/><path class="fb238-3" d="M10,26v1h2V26H11V25H9v1Z"/><path class="fb238-2" d="M9,29h1V28h2V27H9V25H8v1H7v1H8v6H9V29Z"/><path class="fb238-3" d="M8,27H7v6H8V27Z"/><path class="fb238-2" d="M7,27H6v6H7V27Z"/><rect class="fb238-2" x="10" y="29" width="1" height="1"/><rect class="fb238-2" x="17" y="30" width="1" height="1"/><path class="fb238-2" d="M17,32V31H16V27H13v4H12v1h1v1h1V28h1v5h1V32Z"/><path class="fb238-6" d="M9,26v1h1V26Z"/><path class="fb238-6" d="M19,27h1V26H19Z"/><rect class="fb238-2" x="20" y="15" width="1" height="1"/><path class="fb238-2" d="M20,13V11H19v2Z"/><path class="fb238-5" d="M12,12v1h2v1h1V13h1V12h2v1h1V11H18V10H16v1H14V10H11v1H10v1Z"/><path class="fb238-5" d="M13,22h3V21h1V20h1V18h1V16H15v1H14V16H10v2h1v2h1v1h1Zm0-3h3V18h1v1H16v1H13Z"/><rect class="fb238-5" x="14" y="15" width="1" height="1"/><path class="fb238-2" d="M19,17h1V16H19Z"/><rect class="fb238-2" x="18" y="10" width="1" height="1"/><path class="fb238-2" d="M17,10h1V9H16v1Z"/><path class="fb238-2" d="M13,9H11v1h2Z"/><rect class="fb238-2" x="10" y="10" width="1" height="1"/><path class="fb238-2" d="M10,12V11H9v2h1Z"/><path class="fb238-2" d="M10,16H9v1h1Z"/><rect class="fb238-2" x="8" y="15" width="1" height="1"/><rect class="fb238-2" x="14" y="16" width="1" height="1"/><path class="fb238-7" d="M16,12v1h2V12Z"/><path class="fb238-7" d="M10,12v1h2V12Z"/><path class="fb238-2" d="M18,25h2V24H19V23H18v2Z"/><rect class="fb238-2" x="17" y="25" width="1" height="1"/><path class="fb238-8" d="M18,24H17v1h1Z"/><path class="fb238-9" d="M17,24h1V23H17Z"/><rect class="fb238-2" x="16" y="26" width="1" height="1"/><rect class="fb238-9" x="16" y="25" width="1" height="1"/><path class="fb238-8" d="M15,26v1h1V26Z"/><path class="fb238-9" d="M14,26v1h1V26Z"/><path class="fb238-8" d="M13,26v1h1V26Z"/><path class="fb238-2" d="M14,26h2V25H13v1Z"/><rect class="fb238-2" x="12" y="26" width="1" height="1"/><rect class="fb238-9" x="12" y="25" width="1" height="1"/><path class="fb238-2" d="M12,24v1h1V23h3v2h1V23h1V22H17V21H16v1H13V21H12v1H11v1h1Z"/><rect class="fb238-2" x="11" y="25" width="1" height="1"/><rect class="fb238-8" x="11" y="24" width="1" height="1"/><rect class="fb238-9" x="11" y="23" width="1" height="1"/><path class="fb238-2" d="M11,24V23H10v1H9v1h2Z"/><path class="fb238-10" d="M19,18H18v2H17v1h2V20h1V17H19Z"/><path class="fb238-10" d="M11,20V18H10V17H9v3h1v1h2V20Z"/><rect class="fb238-2" x="13" y="19" width="3" height="1"/><rect class="fb238-2" x="16" y="18" width="1" height="1"/><path class="fb238-11" d="M13,10h1v1h2V7H15V6H13V5H11V6h1V7H11V9h2Z"/><path class="fb238-9" d="M11,16h3V15h1v1h5V13H15v1H14V13H9v3h2Zm5-2h3v1H16Zm-6,0h3v1H10Z"/><path class="fb238-12" d="M19,15V14H16v1h3Z"/><path class="fb238-13" d="M13,15V14H10v1h3Z"/><rect class="fb238-11" x="10" y="9" width="1" height="1"></rect></svg>