<svg xmlns="http://www.w3.org/2000/svg" viewBox="0 0 29 33"><defs><style>polygon,rect,path{shape-rendering:crispedges;}.oa26-1{fill:#db5a8e;}.oa26-2{fill:#000000;}.oa26-3{fill:#9fffc6;}.oa26-4{fill:#ffffff;}.oa26-5{fill:#ce8452;}.oa26-6{fill:#00af68;}.oa26-7{fill:#7f5018;}.oa26-8{fill:#009b97;}.oa26-9{fill:#ffffff;}.oa26-10{fill:#00bc55;}.oa26-11{fill:#ffffff;}.oa26-12{fill:#ea1500;}.oa26-13{fill:#005e12;}.oa26-14{fill:#008e21;}</style></defs><path class="oa26-1" d="M20,23V19H19v1H18v1H17v3h2v1h2V23Z"/><path class="oa26-1" d="M0,33H6V27H7V26H8V25h2V24h2V21H11V20H10V19H9V18H8V12H9V10h1V9h1V8h7V9h1v1h1v4h1v2H20v2h1V17h3v1h1v5H24v8H23v1H21v1h8V0H0Z"/><path class="oa26-2" d="M23,26v5h1V25H23Z"/><path class="oa26-2" d="M7,30V27H6v6H7V30Z"/><path class="oa26-3" d="M8,29V27H7v2Z"/><path class="oa26-3" d="M7,31v2H8V31Z"/><rect class="oa26-2" x="7" y="26" width="1" height="1"/><path class="oa26-2" d="M9,31V27H8v6H9V31Z"/><path class="oa26-3" d="M10,31V30H9v2h1v1h1V31Z"/><path class="oa26-3" d="M10,26H9v2h1v1h1V27H10Z"/><path class="oa26-2" d="M10,26V25H8v1h2Z"/><path class="oa26-2" d="M12,26h1V25H12V24H10v1h1v8h1V26Z"/><path class="oa26-4" d="M17,26H16v1H13V26H12v7h5V26Z"/><path class="oa26-2" d="M13,23h3v1h1V21H16v1H13V21H12v3h1Z"/><path class="oa26-2" d="M13,26v1h3V26H13Z"/><path class="oa26-5" d="M13,25v1h3V25h1V24H16V23H13v1H12v1Z"/><path class="oa26-2" d="M18,31V25h1V24H17v1H16v1h1v7h1V31Z"/><path class="oa26-3" d="M18,26v2h1v1h1V27H19V25H18Z"/><path class="oa26-3" d="M19,31V30H18v2h1v1h1V31Z"/><path class="oa26-2" d="M22,32h1V31H22V25H19v1h2v1H20v6h1V32Z"/><path class="oa26-3" d="M23,28V27H22v2h1Z"/><path class="oa26-6" d="M19,28H18v2h1v1h1V29H19Z"/><path class="oa26-6" d="M22,29v2h1V29Z"/><path class="oa26-6" d="M20,27h1V26H19v1Z"/><path class="oa26-6" d="M23,26V25H22v2h1Z"/><path class="oa26-6" d="M18,32v1h1V32Z"/><path class="oa26-6" d="M10,27h1V25H10v2Z"/><path class="oa26-6" d="M10,28H9v2h1v1h1V29H10Z"/><path class="oa26-6" d="M9,32v1h1V32Z"/><path class="oa26-6" d="M9,27V26H8v1Z"/><path class="oa26-6" d="M7,30v1H8V29H7Z"/><path class="oa26-2" d="M20,16h1V15H20Z"/><path class="oa26-5" d="M13,22h3V21h1V20h1V19h1V17H16V16H15v1H14V16H13v1H10v2h1v1h1v1h1Zm-1-3V18h1v1h3v1H13V19Z"/><path class="oa26-5" d="M14,14h2V12h3V11H18V10H16v1H14v1H13v2Z"/><rect class="oa26-5" x="14" y="15" width="1" height="1"/><path class="oa26-2" d="M19,17v2h1V16H19Z"/><rect class="oa26-2" x="18" y="19" width="1" height="1"/><rect class="oa26-2" x="17" y="20" width="1" height="1"/><rect class="oa26-2" x="11" y="20" width="1" height="1"/><rect class="oa26-2" x="10" y="19" width="1" height="1"/><path class="oa26-2" d="M10,16H9v3h1V16Z"/><rect class="oa26-2" x="14" y="16" width="1" height="1"/><path class="oa26-7" d="M16,13h3V12H16Z"/><rect class="oa26-2" x="13" y="19" width="3" height="1"/><rect class="oa26-2" x="12" y="18" width="1" height="1"/><path class="oa26-8" d="M9,15H8v3H9V15Z"/><path class="oa26-8" d="M10,13h3V12h1V11h2V10h2v1h1v3h1V10H19V9H18V8H11V9H10v1H9v2H8v2h2Z"/><path class="oa26-9" d="M19,15v1h1V15h1V14H19Z"/><path class="oa26-9" d="M16,13v1h3V13H16Z"/><path class="oa26-2" d="M19,16V14H16v2h3Z"/><path class="oa26-9" d="M18,16H16v1h3V16Z"/><path class="oa26-9" d="M14,14H13v2h1V15h1v1h1V14Z"/><path class="oa26-9" d="M13,14V13H10v1h3Z"/><path class="oa26-2" d="M12,14H10v2h3V14Z"/><path class="oa26-9" d="M10,16v1h3V16H10Z"/><path class="oa26-9" d="M9,16h1V14H8v1H9Z"/><path class="oa26-10" d="M22,19v1H21v1h3V20H23V18h1V17H21v1h1Z"/><path class="oa26-10" d="M20,20h1V18H20v2Z"/><path class="oa26-11" d="M22,19V18H21v1Z"/><path class="oa26-2" d="M22,19H21v1h1Z"/><path class="oa26-11" d="M23,19h1V18H23Z"/><path class="oa26-2" d="M23,19v1h1V19Z"/><path class="oa26-12" d="M24,22V21H21v1Z"/><path class="oa26-10" d="M21,22v1h3V22Z"/><path class="oa26-10" d="M24,20h1V18H24v2Z"/><path class="oa26-13" d="M21,23v2h3V23H21Z"/><path class="oa26-12" d="M24,20.333V21h1V20H24Z"/><path class="oa26-12" d="M20,21h1V20H20v1Z"/><path class="oa26-14" d="M20,22v1h1V21H20Z"/><path class="oa26-14" d="M24,21.222V23h1V21H24Z"/></svg>