<svg xmlns="http://www.w3.org/2000/svg" viewBox="0 0 29 33"><defs><style>polygon,rect,path{shape-rendering:crispedges;}.ea193-1{fill:#7a982c;}.ea193-2{fill:#000000;}.ea193-3{fill:#4922aa;}.ea193-4{fill:#e8b795;}.ea193-5{fill:#ff6c77;}.ea193-6{fill:#ffffff;}.ea193-7{fill:#316a6d;}.ea193-8{fill:#000000;}.ea193-9{fill:#ff791f;}</style></defs><path class="ea193-1" d="M6,32V27H7V26H8V25h2V24h2V21H9V20H8V19H9V16H8V15H9V10h1V9h1V8h7V9h1v1h1v5h1v1H20v3h1v1H20v1H17v3h2v1h2v1h1v1h1v6h6V0H0V33H6Z"/><path class="ea193-2" d="M23,27H22v3H21V27H20v6h1V31h1v2h1V27Z"/><rect class="ea193-2" x="21" y="26" width="1" height="1"/><path class="ea193-3" d="M21,28v2h1V27H21Z"/><path class="ea193-4" d="M21,31v2h1V31Z"/><path class="ea193-2" d="M20,26h1V25H19v1Z"/><rect class="ea193-3" x="12" y="30" width="1" height="1"/><path class="ea193-3" d="M16,32H12v1h5V32Z"/><rect class="ea193-3" x="16" y="30" width="1" height="1"/><path class="ea193-3" d="M20,27h1V26H19V25H17v1H16v1H13V26H12V25H10v1H8v1H9v6h1V30h1V29h1V28h5v1h1v1h1v3h1V27Z"/><path class="ea193-2" d="M18,25h1V24H17v1Z"/><rect class="ea193-2" x="16" y="25" width="1" height="1"/><path class="ea193-2" d="M13,26v1h3V26H13Z"/><path class="ea193-2" d="M13,23h3v1h1V21H16v1H13V21H12v3h1Z"/><path class="ea193-4" d="M13,25v1h3V25h1V24H16V23H13v1H12v1Z"/><rect class="ea193-2" x="12" y="25" width="1" height="1"/><path class="ea193-2" d="M12,24H10v1h2Z"/><path class="ea193-2" d="M10,25H8v1h2Z"/><path class="ea193-2" d="M9,27H8v3H7V27H6v6H7V31H8v2H9V27Z"/><rect class="ea193-2" x="7" y="26" width="1" height="1"/><path class="ea193-3" d="M7,30H8V27H7v3Z"/><path class="ea193-4" d="M7,31v2H8V31Z"/><path class="ea193-5" d="M19,30H18V29H17V28H12v1H11v1H10v3h2V32h5v1h2V30Zm-6,1H12V30h1Zm4,0H16V30h1Z"/><rect class="ea193-2" x="20" y="15" width="1" height="1"/><path class="ea193-2" d="M19,15h1V14H19Z"/><path class="ea193-4" d="M13,22h3V21h1V19H16v1H13V19h3V18h1v1h1V18h1V16h1V15H16V14h2V13H16V12h2V11H17V10H12v1H11v1h1v1h1v2H9v1h1v2h1v1h1v2h1Zm1-6h1v1H14Z"/><path class="ea193-4" d="M10,14h2V13H10Z"/><rect class="ea193-4" x="18" y="12" width="1" height="1"/><path class="ea193-2" d="M17,20v1h1V20Z"/><path class="ea193-2" d="M11,20v1h1V20Z"/><rect class="ea193-2" x="8" y="15" width="1" height="1"/><rect class="ea193-2" x="14" y="16" width="1" height="1"/><path class="ea193-6" d="M18,14v1h1V14Z"/><path class="ea193-6" d="M12,15h1V14H12Z"/><path class="ea193-2" d="M17,14H16v1h2V14Z"/><path class="ea193-2" d="M12,15V14H9v1h3Z"/><rect class="ea193-7" x="18" y="13" width="1" height="1"/><rect class="ea193-7" x="16" y="12" width="2" height="1"/><path class="ea193-7" d="M13,14V13H12v1Z"/><path class="ea193-7" d="M10,13h2V12H10Z"/><path class="ea193-8" d="M19,17v1H18v1H17v1h1v1h2V20h1V19H20V16H19Z"/><path class="ea193-8" d="M12,20V19H11V18H10V16H9v3H8v1H9v1h2V20Z"/><rect class="ea193-2" x="13" y="19" width="3" height="1"/><rect class="ea193-2" x="16" y="18" width="1" height="1"/><path class="ea193-9" d="M10,13V12h1V11h1V10h5v1h1v1h1v2h1V10H19V9H18V8H11V9H10v1H9v4h1Z"/></svg>