<svg xmlns="http://www.w3.org/2000/svg" viewBox="0 0 29 33"><defs><style>polygon,rect,path{shape-rendering:crispedges;}.va269-1{fill:#397d98;}.va269-2{fill:#4922aa;}.va269-3{fill:#000000;}.va269-4{fill:#e8b795;}.va269-5{fill:#473a35;}.va269-6{fill:#473a35;}.va269-7{fill:#9b8100;}.va269-8{fill:#ffffff;}</style></defs><path class="va269-1" d="M0,33H6V27H7V26H8V25h2V22h1V21H10V20H9V18H8V13H9V11h1V10h1V9h7v1h1v1h1v1h1v6H20v2H19v1H18v1h1v3h2v1h1v1h1v6h6V0H0Z"/><path class="va269-2" d="M17,23v1H16v1H15v2H14v4h6V27h1V26H19V25H18V22H17Z"/><path class="va269-2" d="M22,27H21v6h1V27Z"/><path class="va269-2" d="M19,32H9v1H20V32Z"/><path class="va269-2" d="M8,27H7v6H8V27Z"/><path class="va269-2" d="M9,27v4h4V27h1V25H13V24H12V22H11v3H10v1H8v1Z"/><path class="va269-3" d="M23,27H22v6h1V27Z"/><rect class="va269-3" x="21" y="26" width="1" height="1"/><path class="va269-3" d="M21,27H20v4H14V27H13v4H9V27H8v6H9V32H20v1h1V27Z"/><path class="va269-3" d="M20,26h1V25H19v1Z"/><path class="va269-3" d="M18,25h1V22H18v3Z"/><rect class="va269-3" x="16" y="23" width="1" height="1"/><rect class="va269-3" x="15" y="24" width="1" height="1"/><path class="va269-3" d="M15,26V25H14v2h1Z"/><rect class="va269-3" x="13" y="24" width="1" height="1"/><path class="va269-4" d="M15,24h1V23H13v1h1v1h1Z"/><path class="va269-3" d="M12,23v1h1V23Z"/><path class="va269-3" d="M11,24V22H10v3h1Z"/><path class="va269-3" d="M10,25H8v1h2Z"/><rect class="va269-3" x="7" y="26" width="1" height="1"/><path class="va269-3" d="M7,27H6v6H7V27Z"/><rect class="va269-3" x="19" y="14" width="1" height="1"/><rect class="va269-4" x="9" y="15" width="1" height="1"/><rect class="va269-4" x="12" y="12" width="1" height="1"/><path class="va269-4" d="M17,17H16V16H15v1H14V16H13v1H11v1h1v1h1V18h5V17Z"/><rect class="va269-4" x="17" y="11" width="1" height="1"/><rect class="va269-4" x="19" y="15" width="1" height="1"/><path class="va269-4" d="M16,13V12H15V11H14v3h2Z"/><rect class="va269-4" x="14" y="15" width="1" height="1"/><rect class="va269-3" x="14" y="16" width="1" height="1"/><rect class="va269-5" x="17" y="12" width="1" height="1"/><rect class="va269-5" x="11" y="12" width="1" height="1"/><path class="va269-6" d="M15,18H13v1h3V18Z"/><path class="va269-6" d="M19,16v2h1V16Z"/><path class="va269-6" d="M12,23h5V22h1V21h1V18H17v1H16v1H13V19H12V18H10v3h1v1h1Z"/><path class="va269-6" d="M10,17V16H9v2h1Z"/><rect class="va269-3" x="13" y="19" width="3" height="1"/><path class="va269-3" d="M16,19h1V18H16Z"/><path class="va269-7" d="M9,15h1V14h1V12h2v2h1V11h1v1h1v1h1V11h1v3h2v4h1V12H20V11H19V10H18V9H11v1H10v1H9v2H8v5H9V15Z"/><path class="va269-7" d="M11,16H10v2h1V16Z"/><path class="va269-7" d="M18,16v2h1V16Z"/><path class="va269-7" d="M19,19v1h1V18H19Z"/><path class="va269-7" d="M9,18v2h1V18Z"/><path class="va269-8" d="M13,13H11v1h2Z"/><path class="va269-8" d="M11,17h2V16H11Z"/><polygon class="va269-8" points="11 15 11 14 10 14 10 15 10 16 11 16 11 15"/><path class="va269-3" d="M11,16h2V14H11v2Z"/><path class="va269-8" d="M19,16V14H18v2Z"/><path class="va269-8" d="M17,14h1V13H16v1Z"/><path class="va269-8" d="M16,17h2V16H16Z"/><path class="va269-8" d="M14,16V15h1v1h1V14H13v2Z"/><path class="va269-3" d="M16,14v2h2V14H16Z"/></svg>