<svg xmlns="http://www.w3.org/2000/svg" viewBox="0 0 29 33"><defs><style>polygon,rect,path{shape-rendering:crispedges;}.ka267-1{fill:#29834f;}.ka267-2{fill:#000000;}.ka267-3{fill:#8e9350;}.ka267-4{fill:#00af68;}.ka267-5{fill:#b2622b;}.ka267-6{fill:#9b8100;}.ka267-7{fill:#ffffff;}.ka267-8{fill:#9b8100;}.ka267-9{fill:#ff1d99;}.ka267-10{fill:#cc3232;}.ka267-11{fill:#fafafa;}</style></defs><path class="ka267-1" d="M0,33H6V27H7V26H8V25h2V24h2V21H11V20H10V19H9V16H8V15H9V11h1V9h1V8h7V9h1v1h1v5h1v1H20v3H19v1H18v1H17v3h2V22h1V21h1V20h1V19h1v2h1v1h1v1h1v4H25v1H24v1H23v4h6V0H0Z"/><path class="ka267-2" d="M23,29h1V28H20v5h1V29h1v4h1V29Z"/><path class="ka267-3" d="M22,31V30H21v2h1Z"/><rect class="ka267-3" x="16" y="24" width="1" height="1"/><path class="ka267-3" d="M10,31V30H9v2h1v1h1V31Z"/><path class="ka267-3" d="M19,27V26H18v2h1Z"/><path class="ka267-3" d="M16,31V30H15V28H14V27H13V25H11v1h1v2h1v1h1v2h1v1h1v1h1V31Z"/><path class="ka267-3" d="M19,29h1V28H19Z"/><path class="ka267-3" d="M13,31V30H12V28H11V27H10V26H9v2h1v1h1v2h1v1h1v1h1V31Z"/><path class="ka267-3" d="M19,31V30H18V28H17V27H16V25H15V24H14V23H13v2h1v1h1v2h1v1h1v2h1v1h1v1h1V31Z"/><rect class="ka267-3" x="17" y="25" width="1" height="1"/><path class="ka267-2" d="M18,25v1h1V25h1V22H19v2H17v1Z"/><path class="ka267-2" d="M13,23V22H12v2h1Z"/><path class="ka267-2" d="M12,25V24H10v1h2Z"/><path class="ka267-2" d="M10,26V25H8v1h2Z"/><path class="ka267-2" d="M9,31V27H8v6H9V31Z"/><rect class="ka267-2" x="7" y="26" width="1" height="1"/><path class="ka267-3" d="M7,31v2H8V31Z"/><path class="ka267-3" d="M8,29V27H7v2Z"/><path class="ka267-2" d="M7,30V27H6v6H7V30Z"/><path class="ka267-4" d="M22,29H21v1h1Z"/><path class="ka267-4" d="M21,32v1h1V32Z"/><path class="ka267-4" d="M19,28H18v2h1v1h1V29H19Z"/><path class="ka267-4" d="M17,26V25H16v2h1v1h1V26Z"/><path class="ka267-4" d="M18,32V31H17v2h2V32Z"/><path class="ka267-4" d="M16,30v1h1V29H16V28H15v2Z"/><path class="ka267-4" d="M16,23H14v1h1v1h1V23Z"/><path class="ka267-4" d="M14,27v1h1V26H14V25H13v2Z"/><path class="ka267-4" d="M15,32V31H14v2h2V32Z"/><path class="ka267-4" d="M13,30v1h1V29H13V28H12v2Z"/><path class="ka267-4" d="M13,25V24H12v1Z"/><path class="ka267-4" d="M10,27h1v1h1V26H11V25H10v2Z"/><path class="ka267-4" d="M12,32V31H11v2h2V32Z"/><path class="ka267-4" d="M10,30v1h1V29H10V28H9v2Z"/><path class="ka267-4" d="M9,32v1h1V32Z"/><path class="ka267-4" d="M9,27V26H8v1Z"/><path class="ka267-4" d="M7,30v1H8V29H7Z"/><rect class="ka267-2" x="20" y="15" width="1" height="1"/><path class="ka267-5" d="M12,10H11v1h2V10Z"/><rect class="ka267-5" x="16" y="19" width="1" height="1"/><path class="ka267-5" d="M13,21h3V20H13Z"/><path class="ka267-5" d="M10,17v1h1v1h1v1h1V19h3V18h1v1h1V18h1V16h1V15H19V14H18v1H16v1H15v1H14V16H13V15H11V14h1V13H10v2H9v1h1Z"/><path class="ka267-2" d="M16,23v1h1V22H16Z"/><rect class="ka267-2" x="8" y="15" width="1" height="1"/><path class="ka267-6" d="M17,15h1V14H17Z"/><rect class="ka267-6" x="16" y="13" width="1" height="1"/><rect class="ka267-2" x="14" y="14" width="1" height="1"/><path class="ka267-7" d="M16,14V13H13v1H12v1h1v1h3V15h1V14Zm-1,1H14V14h1Z"/><rect class="ka267-6" x="12" y="13" width="1" height="1"/><path class="ka267-6" d="M11,14v1h1V14Z"/><path class="ka267-2" d="M14,17h1V16H14Z"/><rect class="ka267-5" x="17" y="13" width="1" height="1"/><path class="ka267-8" d="M13,23h3V22h1V21h1V20h1V19h1V16H19v2H18v1H17v1H16v1H13V20H12V19H11V18H10V16H9v3h1v1h1v1h1v1h1Z"/><rect class="ka267-2" x="13" y="19" width="3" height="1"/><rect class="ka267-2" x="16" y="18" width="1" height="1"/><path class="ka267-9" d="M11,10h2v1h7V10H19V9H18V8H11V9H10v2h1Z"/><path class="ka267-9" d="M18,14h1v1h1V13H18Z"/><path class="ka267-9" d="M10,14V13H9v2h1Z"/><path class="ka267-7" d="M20,12V11H9v1H20Z"/><path class="ka267-10" d="M12,13h8V12H9v1h3Z"/><rect class="ka267-11" x="23" y="24" width="1" height="1"/><path class="ka267-11" d="M21,24H20v1h1Z"/><path class="ka267-5" d="M21,24h1v1H19v1h1v1H19v1h5V27H21V26h3v1h1V25H23V24h2V23H24V22H23v1H22V22H20v2Z"/><path class="ka267-2" d="M23.25,26H21v1h3V26Z"/><path class="ka267-2" d="M22,25V24H21v1Z"/><path class="ka267-2" d="M24,24v1h1v2h1V23H25v1Z"/><path class="ka267-2" d="M21,21H20v1h1Z"/><rect class="ka267-2" x="23" y="21" width="1" height="1"/><rect class="ka267-2" x="24" y="22" width="1" height="1"/><rect class="ka267-2" x="24" y="27" width="1" height="1"/><path class="ka267-9" d="M22,22v1h1V19H22v1H21v2Z"/><rect class="ka267-2" x="19" y="26" width="1" height="1"/></svg>