<svg xmlns="http://www.w3.org/2000/svg" viewBox="0 0 29 33"><defs><style>polygon,rect,path{shape-rendering:crispedges;}.ja290-1{fill:#db5a8e;}.ja290-2{fill:#000000;}.ja290-3{fill:#317f03;}.ja290-4{fill:#72dd40;}.ja290-5{fill:#e8b795;}.ja290-6{fill:#317f03;}.ja290-7{fill:#5e362f;}.ja290-8{fill:#ff5e17;}.ja290-9{fill:#ffffff;}.ja290-10{fill:#0068ff;}.ja290-11{fill:#ff1f4a;}</style></defs><path class="ja290-1" d="M0,33H6V27H7V26H8V25h2V24h2V21H11V20H10V19H9V16H8V14H9V12H8v1H7V12H8V11H9V10h1V9h2V8h5V9h2v1h1v1h1v1h1v1H21V12H20v2h1v2H20v3H19v1H18v1H17v3h2v1h2v1h1v1h1v6h6V0H0Z"/><path class="ja290-2" d="M23,27H22v6h1V27Z"/><rect class="ja290-2" x="21" y="26" width="1" height="1"/><path class="ja290-3" d="M21,31h1V30H21Z"/><path class="ja290-3" d="M21,28h1V27H21Z"/><path class="ja290-2" d="M21,30V27H20v6h1V30Z"/><path class="ja290-2" d="M20,26h1V25H19v1Z"/><path class="ja290-3" d="M9,31H20V30H9Z"/><path class="ja290-3" d="M9,27v1H20V27H9Z"/><path class="ja290-3" d="M17,25V24H12v1Z"/><path class="ja290-2" d="M18,25h1V24H17v1Z"/><path class="ja290-2" d="M13,23h3v1h1V21H16v1H13V21H12v3h1Z"/><path class="ja290-2" d="M12,24H10v1h2Z"/><path class="ja290-2" d="M10,25H8v1h2Z"/><path class="ja290-2" d="M9,30V27H8v6H9V30Z"/><rect class="ja290-2" x="7" y="26" width="1" height="1"/><path class="ja290-3" d="M8,28V27H7v1Z"/><path class="ja290-3" d="M7,31H8V30H7Z"/><path class="ja290-2" d="M7,30V27H6v6H7V30Z"/><path class="ja290-4" d="M9,31v2H20V31Z"/><path class="ja290-4" d="M9,29v1H20V28H9Z"/><path class="ja290-4" d="M9,27H21V26H19V25H10v1H8v1Z"/><path class="ja290-4" d="M15,23H13v1h3V23Z"/><path class="ja290-4" d="M7,29v1H8V28H7Z"/><path class="ja290-4" d="M7,31v2H8V31Z"/><path class="ja290-4" d="M21,31v2h1V31Z"/><path class="ja290-4" d="M21,29v1h1V28H21Z"/><path class="ja290-2" d="M20,16h1V15H20Z"/><path class="ja290-5" d="M13,22h3V21h1V20h1V19h1V16H15v1H14V16H10v3h1v1h1v1h1Zm-1-3V18h5v1H16v1H13V19Z"/><path class="ja290-5" d="M16,12H15V11H14v1H13v1h1v1h1V13h2V12Z"/><rect class="ja290-5" x="14" y="15" width="1" height="1"/><path class="ja290-2" d="M19,17v2h1V16H19Z"/><rect class="ja290-2" x="18" y="19" width="1" height="1"/><rect class="ja290-2" x="17" y="20" width="1" height="1"/><rect class="ja290-2" x="11" y="20" width="1" height="1"/><rect class="ja290-2" x="10" y="19" width="1" height="1"/><path class="ja290-2" d="M10,16H9v3h1V16Z"/><path class="ja290-2" d="M8,15v1H9V15Z"/><rect class="ja290-2" x="14" y="16" width="1" height="1"/><rect class="ja290-6" x="12" y="12" width="1" height="1"/><path class="ja290-7" d="M16,19h1V18H13v1Z"/><rect class="ja290-2" x="13" y="19" width="3" height="1"/><path class="ja290-2" d="M13,18H12v1h1Z"/><rect class="ja290-8" x="21" y="12" width="1" height="1"/><path class="ja290-8" d="M12,13V12h2V11h1v1h2v1h3V12h1V11H20V10H19V9H17V8H12V9H10v1H9v1H8v1H9v1h3Z"/><path class="ja290-8" d="M21,15V14H20v1Z"/><path class="ja290-8" d="M9,14H8v1H9Z"/><rect class="ja290-8" x="7" y="12" width="1" height="1"/><path class="ja290-9" d="M11,16h3V15h1v1h5V13H15v1H14V13H9v3h2Zm5-2h3v1H16Zm-6,0h3v1H10Z"/><path class="ja290-10" d="M19,15V14H16v1h3Z"/><path class="ja290-11" d="M13,15V14H10v1h3Z"/></svg>