<svg xmlns="http://www.w3.org/2000/svg" viewBox="0 0 29 33"><defs><style>polygon,rect,path{shape-rendering:crispedges;}.qa299-1{fill:#6b4f99;}.qa299-2{fill:#000000;}.qa299-3{fill:#225600;}.qa299-4{fill:#e8b795;}.qa299-5{fill:#45ba00;}.qa299-6{fill:#ffffff;}.qa299-7{fill:#317f03;}.qa299-8{fill:#7f5018;}.qa299-9{fill:#c8a715;}.qa299-10{fill:#d8be00;}.qa299-11{fill:#508e91;}</style></defs><path class="qa299-1" d="M0,33H6V27H7V26H8V25h2V20H9V18H8V12H9V11h1V10h1V9h7v1h1v1h1v2h1v5H20v2H19v5h2V23H20V21h1V20h1V19h2v1h1v3H24v8H23v1H21v1h8V0H0Z"/><path class="qa299-2" d="M23,24v7h1V23H23Z"/><path class="qa299-2" d="M7,27H6v6H7V27Z"/><path class="qa299-3" d="M8,27H7v6H8V27Z"/><rect class="qa299-2" x="7" y="26" width="1" height="1"/><path class="qa299-2" d="M9,27H8v6H9V27Z"/><path class="qa299-3" d="M10,30h1V29h1V24H11v1H10v1H8v1H9v6h1V30Z"/><path class="qa299-3" d="M20,27h1V26H19V25H18V24H17v5h1v1h1v3h1V27Z"/><path class="qa299-2" d="M10,25H8v1h2Z"/><path class="qa299-2" d="M11,24H10v1h1Z"/><rect class="qa299-3" x="11" y="22" width="1" height="1"/><rect class="qa299-2" x="11" y="23" width="1" height="1"/><path class="qa299-2" d="M13,24v1h3V24H13Z"/><path class="qa299-4" d="M14,24h2V23H13v1Z"/><rect class="qa299-2" x="17" y="23" width="1" height="1"/><rect class="qa299-3" x="17" y="22" width="1" height="1"/><path class="qa299-2" d="M18,25h1V24H18Z"/><path class="qa299-2" d="M22,32h1V31H22V23H21v2H19v1h2v1H20v6h1V32Z"/><path class="qa299-3" d="M23,24H22v7h1V24Z"/><path class="qa299-3" d="M16,32H12v1h5V32Z"/><path class="qa299-3" d="M16,25H13v3h3V25Z"/><rect class="qa299-3" x="12" y="30" width="1" height="1"/><rect class="qa299-3" x="16" y="30" width="1" height="1"/><path class="qa299-5" d="M19,30H18V29H17v2H16V28H13v3H12V29H11v1H10v3h2V32h5v1h2V30Z"/><path class="qa299-2" d="M13,25H12v5h1V25Z"/><path class="qa299-2" d="M16,26v4h1V25H16Z"/><path class="qa299-4" d="M17,17H16V16H15v1H14V16H13v1H11v2h1V18h2v1h1V18h2v1h1V17Z"/><rect class="qa299-4" x="11" y="11" width="1" height="1"/><rect class="qa299-4" x="17" y="15" width="1" height="1"/><polygon class="qa299-4" points="13 21 14 21 14 22 15 22 15 21 16 21 16 20 13 20 13 21"/><path class="qa299-4" d="M18,12H16v1h2Z"/><path class="qa299-4" d="M14,14h1V11H14v1H13v2Z"/><path class="qa299-4" d="M12,15H11v1h2V15Z"/><rect class="qa299-4" x="14" y="15" width="1" height="1"/><rect class="qa299-2" x="19" y="16" width="1" height="1"/><rect class="qa299-2" x="9" y="16" width="1" height="1"/><rect class="qa299-2" x="14" y="16" width="1" height="1"/><rect class="qa299-6" x="12" y="14" width="1" height="1"/><path class="qa299-2" d="M17,15h1V14H16v1Z"/><rect class="qa299-2" x="11" y="14" width="1" height="1"/><rect class="qa299-7" x="11" y="12" width="1" height="1"/><path class="qa299-8" d="M12,22v1h5V22h2V18H18v1H16v2H15v1H14V21H13V19h1V18H12v1H11V18H10v4h2Z"/><path class="qa299-8" d="M15,18v1h1V18Z"/><rect class="qa299-8" x="19" y="17" width="1" height="1"/><rect class="qa299-8" x="9" y="17" width="1" height="1"/><path class="qa299-9" d="M18,23h1V22H18Z"/><path class="qa299-8" d="M18,24h1V23H18Z"/><path class="qa299-9" d="M16,23v1h1V23Z"/><path class="qa299-8" d="M16,25h1V24H16Z"/><path class="qa299-9" d="M13,23H12v1h1Z"/><path class="qa299-8" d="M13,24H12v1h1Z"/><path class="qa299-9" d="M11,22H10v1h1Z"/><path class="qa299-8" d="M11,23H10v1h1Z"/><path class="qa299-2" d="M14,19H13v1h3V19H14Z"/><path class="qa299-2" d="M16,18v1h1V18Z"/><path class="qa299-2" d="M20,21v2h1V21Z"/><rect class="qa299-2" x="21" y="20" width="1" height="1"/><rect class="qa299-2" x="22" y="19" width="2" height="1"/><path class="qa299-2" d="M24,23h1V20H24v3Z"/><path class="qa299-4" d="M22,24h1V23h1V20H22v1H21v2h1Z"/><path class="qa299-10" d="M9,16V15H8v3H9V16Z"/><path class="qa299-10" d="M20,16v2h1V15H20Z"/><path class="qa299-10" d="M10,17v1h1V17Z"/><path class="qa299-10" d="M18,17v1h1V17Z"/><path class="qa299-10" d="M11,15V14H10v2h1Z"/><path class="qa299-10" d="M10,13h1V11h1v2h1V12h1V11h1v3h1V12h2v1h1v1h2V13H20V11H19V10H18V9H11v1H10v1H9v1H8v2h2Z"/><path class="qa299-10" d="M18,15v1h1V14H18Z"/><path class="qa299-10" d="M9,18v2h1V18Z"/><rect class="qa299-10" x="16" y="15" width="1" height="1"/><path class="qa299-10" d="M19,19v1h1V18H19Z"/><path class="qa299-11" d="M19,16h1V15h1V14H19Z"/><polygon class="qa299-11" points="17 16 16 16 16 17 17 17 18 17 19 17 19 16 18 16 17 16"/><path class="qa299-11" d="M12,14h1V13H10v1h2Z"/><path class="qa299-11" d="M19,14V13H16v1h3Z"/><polygon class="qa299-11" points="13 14 13 15 13 16 14 16 14 15 15 15 15 16 16 16 16 15 16 14 15 14 14 14 13 14"/><path class="qa299-11" d="M12,17h1V16H10v1h2Z"/><path class="qa299-11" d="M9,16h1V14H8v1H9Z"/></svg>