<svg xmlns="http://www.w3.org/2000/svg" viewBox="0 0 29 33"><defs><style>polygon,rect,path{shape-rendering:crispedges;}.ga136-1{fill:#d14646;}.ga136-2{fill:#000000;}.ga136-3{fill:#6c9302;}.ga136-4{fill:#e8b795;}.ga136-5{fill:#c4ea3b;}.ga136-6{fill:#ffffff;}.ga136-7{fill:#8e4717;}.ga136-8{fill:#8e4717;}.ga136-9{fill:#004a77;}.ga136-10{fill:#c69d99;}</style></defs><path class="ga136-1" d="M0,33H6V28H5V26H6V25h4V24H9v1H8V24H7V23H6V22H5V21H6V20H5V19H6v1H8v2H9v1h1v1h2V21H11V20H10V19H9V16H8V15H9V11h1V10h1V9h7v1h1v1h1v4h1v1H20v3H19v1H18v1H17v3h2v1h2v1h1v1h1v6h6V0H0ZM4,17H5v1H4ZM3,19H4v1H3Z"/><rect class="ga136-1" x="7" y="22" width="1" height="1"/><path class="ga136-2" d="M23,27H22v6h1V27Z"/><rect class="ga136-2" x="21" y="26" width="1" height="1"/><path class="ga136-3" d="M22,27H21v6h1V27Z"/><path class="ga136-2" d="M21,27H20v6h1V27Z"/><path class="ga136-2" d="M20,26h1V25H19v1Z"/><path class="ga136-3" d="M14,29v2h1V29Z"/><rect class="ga136-3" x="18" y="29" width="1" height="1"/><path class="ga136-3" d="M19,32V31H18v1H17V29h1V28h1v1h1V27h1V26H19V25H17v1H16v1H13V26H12v6H11V31H10v1H9v1H20V32Zm-3-1H15v1H13V28h2v1h1Z"/><path class="ga136-2" d="M18,25h1V24H17v1Z"/><rect class="ga136-2" x="16" y="25" width="1" height="1"/><path class="ga136-2" d="M13,26v1h3V26H13Z"/><path class="ga136-2" d="M13,23h3v1h1V21H16v1H13V21H12v3h1Z"/><path class="ga136-4" d="M13,25v1h3V25h1V24H16V23H13v1H12v1Z"/><rect class="ga136-2" x="12" y="25" width="1" height="1"/><path class="ga136-2" d="M12,24H10v1h2Z"/><path class="ga136-2" d="M9,30H8v3H9V30Z"/><path class="ga136-3" d="M8,30V29H7v4H8V30Z"/><path class="ga136-2" d="M7,29V28H6v5H7V29Z"/><path class="ga136-5" d="M19,30H18V29H17v3h1V31h1v1h1V29H19Z"/><rect class="ga136-5" x="18" y="28" width="1" height="1"/><path class="ga136-5" d="M15,31h1V29H15Z"/><path class="ga136-5" d="M14,30V29h1V28H13v4h2V31H14Z"/><path class="ga136-5" d="M11,30H9v2h1V31h1v1h1V29H11Z"/><rect class="ga136-2" x="20" y="15" width="1" height="1"/><path class="ga136-2" d="M19,13v2h1V12H19Z"/><path class="ga136-4" d="M18,12v1h1V11H18Z"/><path class="ga136-4" d="M10,13h1V11H10v2Z"/><rect class="ga136-4" x="11" y="10" width="1" height="1"/><rect class="ga136-4" x="17" y="10" width="1" height="1"/><path class="ga136-4" d="M13,22h3V21h1V20h1V19h1V16h1V15H16V14h2V13H16V12h1V11H16V10H13v1H12v1h1v1H11v1h2v1H9v1h1v3h1v1h1v1h1Zm1-6h1v1H14Zm-2,3V18h5v1H16v1H13V19Z"/><path class="ga136-2" d="M19,17v2h1V16H19Z"/><rect class="ga136-2" x="18" y="19" width="1" height="1"/><rect class="ga136-2" x="17" y="20" width="1" height="1"/><rect class="ga136-2" x="11" y="20" width="1" height="1"/><rect class="ga136-2" x="10" y="19" width="1" height="1"/><path class="ga136-2" d="M10,16H9v3h1V16Z"/><rect class="ga136-2" x="8" y="15" width="1" height="1"/><rect class="ga136-2" x="14" y="16" width="1" height="1"/><path class="ga136-6" d="M18,14v1h1V14Z"/><path class="ga136-6" d="M13,15V14H12v1Z"/><path class="ga136-2" d="M17,14H16v1h2V14Z"/><path class="ga136-2" d="M12,15V14H10V12H9v3h3Z"/><path class="ga136-7" d="M19,13H18v1h1Z"/><polygon class="ga136-7" points="17 12 16 12 16 13 18 13 18 12 17 12"/><path class="ga136-7" d="M10,14h1V13H10Z"/><path class="ga136-7" d="M11,13h2V12H11Z"/><path class="ga136-8" d="M16,19V18H12v1h4Z"/><path class="ga136-2" d="M13,20h3V19H13Z"/><path class="ga136-2" d="M17,19V18H16v1Z"/><path class="ga136-9" d="M20,12V11H19v1Z"/><rect class="ga136-9" x="18" y="10" width="1" height="1"/><path class="ga136-9" d="M12,11h1V10h3v1h1V10h1V9H11v1h1Z"/><rect class="ga136-9" x="17" y="11" width="1" height="1"/><path class="ga136-9" d="M11,12h1V11H11Z"/><rect class="ga136-9" x="10" y="10" width="1" height="1"/><path class="ga136-9" d="M10,11H9v1h1Z"/><path class="ga136-6" d="M7.5,26H8v2H7v1H8v1h3V29h1V25H7v1Z"/><rect class="ga136-10" x="3" y="19" width="1" height="1"/><rect class="ga136-10" x="4" y="17" width="1" height="1"/><rect class="ga136-10" x="5" y="19" width="1" height="1"/><path class="ga136-10" d="M8,22V20H6v1H5v1H6v1H7V22Z"/><polygon class="ga136-10" points="10 23 9 23 9 22 8 22 8 23 7 23 7 24 8 24 8 25 9 25 9 24 10 24 10 24 10 23"/><path class="ga136-4" d="M8,28V26H6v2H8Z"/><path class="ga136-2" d="M7,25H6v1H7Z"/><path class="ga136-2" d="M5,26v2H6V26Z"/></svg>