<svg xmlns="http://www.w3.org/2000/svg" viewBox="0 0 29 33"><defs><style>polygon,rect,path{shape-rendering:crispedges;}.ib158-1{fill:#b4bd09;}.ib158-2{fill:#000000;}.ib158-3{fill:#6d3e35;}.ib158-4{fill:#ffffff;}.ib158-5{fill:#b23b00;}.ib158-6{fill:#b23b00;}.ib158-7{fill:#f9e100;}.ib158-8{fill:#cc3232;}</style></defs><path class="ib158-1" d="M0,33H6V27H7V26H8V25h2V24h2V21H11V20H10V19H9V16H8V15H9V11h1V10h1V7h1V6H11V5h2V6h2V7h1V9h2v1h1v1h1v4h1v1H20v3H19v1H18v1H17v3h2v1h2v1h1v1h1v6h6V0H0Z"/><path class="ib158-2" d="M23,27H22v6h1V27Z"/><path class="ib158-3" d="M22,27H21v6h1V27Z"/><rect class="ib158-2" x="21" y="26" width="1" height="1"/><path class="ib158-2" d="M21,27H20v6h1V27Z"/><path class="ib158-3" d="M20,27h1V26H19V25H17V24H16V23H13v1H12v1H10v1H8v1H9v6h5V29h1v4h5V27Zm-8,2H11V28h1Zm6,0H17V28h1Z"/><path class="ib158-2" d="M20,26h1V25H19v1Z"/><rect class="ib158-2" x="17" y="28" width="1" height="1"/><path class="ib158-2" d="M18,25h1V24H17v1Z"/><path class="ib158-2" d="M15,29H14v4h1V29Z"/><path class="ib158-2" d="M13,23h3v1h1V21H16v1H13V21H12v3h1Z"/><rect class="ib158-2" x="11" y="28" width="1" height="1"/><path class="ib158-2" d="M12,24H10v1h2Z"/><path class="ib158-2" d="M10,25H8v1h2Z"/><path class="ib158-2" d="M9,27H8v6H9V27Z"/><path class="ib158-3" d="M8,27H7v6H8V27Z"/><rect class="ib158-2" x="7" y="26" width="1" height="1"/><path class="ib158-2" d="M7,27H6v6H7V27Z"/><rect class="ib158-2" x="20" y="15" width="1" height="1"/><path class="ib158-2" d="M19,14v1h1V13H19Z"/><path class="ib158-3" d="M16,10v1h2V10H16Z"/><path class="ib158-3" d="M13,22h3V21h1V20h1V19h1V16H16V14h2V13H13v3H10v3h1v1h1v1h1Zm1-6h1v1H14Zm-2,3V18h5v1H16v1H13V19Z"/><path class="ib158-3" d="M13,11h1V10H11v1Z"/><path class="ib158-3" d="M12,14V13H10v1h2Z"/><rect class="ib158-3" x="9" y="15" width="1" height="1"/><rect class="ib158-3" x="19" y="15" width="1" height="1"/><path class="ib158-2" d="M19,17v2h1V16H19Z"/><rect class="ib158-2" x="18" y="10" width="1" height="1"/><rect class="ib158-2" x="18" y="19" width="1" height="1"/><rect class="ib158-2" x="17" y="20" width="1" height="1"/><path class="ib158-2" d="M17,10h1V9H16v1Z"/><path class="ib158-2" d="M13,9H11v1h2Z"/><rect class="ib158-2" x="11" y="20" width="1" height="1"/><rect class="ib158-2" x="10" y="10" width="1" height="1"/><rect class="ib158-2" x="10" y="19" width="1" height="1"/><path class="ib158-2" d="M10,14V13H9v2h1Z"/><path class="ib158-2" d="M10,16H9v3h1V16Z"/><rect class="ib158-2" x="8" y="15" width="1" height="1"/><rect class="ib158-2" x="14" y="16" width="1" height="1"/><path class="ib158-4" d="M10,14v2h1V14Z"/><path class="ib158-4" d="M12,15v1h1V14H12Z"/><path class="ib158-4" d="M16,14v2h1V14Z"/><path class="ib158-4" d="M19,14H18v2h1V14Z"/><path class="ib158-2" d="M12,14H11v2h1V14Z"/><path class="ib158-2" d="M17,14v2h1V14Z"/><rect class="ib158-5" x="18" y="13" width="1" height="1"/><path class="ib158-5" d="M12,14h1V13H12Z"/><path class="ib158-6" d="M16,19V18H12v1h4Z"/><path class="ib158-2" d="M13,20h3V19H13Z"/><path class="ib158-2" d="M17,19V18H16v1Z"/><path class="ib158-7" d="M13,10h1v1h2V7H15V6H13V5H11V6h1V7H11V9h2Z"/><path class="ib158-4" d="M20,12V11H9v1H20Z"/><path class="ib158-8" d="M12,13h8V12H9v1h3Z"/><rect class="ib158-7" x="10" y="9" width="1" height="1"></rect></svg>