<svg xmlns="http://www.w3.org/2000/svg" viewBox="0 0 29 33"><defs><style>polygon,rect,path{shape-rendering:crispedges;}.ta39-1{fill:#29834f;}.ta39-2{fill:#000000;}.ta39-3{fill:#ff6c77;}.ta39-4{fill:#c18d59;}.ta39-5{fill:#ffffff;}.ta39-6{fill:#990000;}.ta39-7{fill:#00774c;}.ta39-8{fill:#5a2de2;}.ta39-9{fill:#ff1f4a;}.ta39-10{fill:#f62;}.ta39-11{fill:#f9db00;}.ta39-12{fill:#1261ff;}.ta39-13{fill:#00c650;}.ta39-14{fill:#e20026;}</style></defs><path class="ta39-1" d="M9,24v1h1V24h1V23H10V22H9v2Z"/><path class="ta39-1" d="M6,32V26H5V25H6V22H9V21H8V20H7V11H8V10H9V9h1V8h1V7h7V8h1V9h1v1h1v1h1v9H21v1H20v1H19v1H18v1h1v1h2v1h1v1h1v6h6V0H0V33H6Z"/><path class="ta39-2" d="M23,27H22v6h1V27Z"/><path class="ta39-3" d="M22,27H21v6h1V27Z"/><rect class="ta39-2" x="21" y="26" width="1" height="1"/><path class="ta39-2" d="M21,27H20v6h1V27Z"/><path class="ta39-3" d="M20,27h1V26H19V25H18V24H16v1h1v5H16V25H13v5H12V25h1V24H11v1H10v1H9v7H20V27Z"/><path class="ta39-2" d="M20,26h1V25H19v1Z"/><rect class="ta39-2" x="18" y="24" width="1" height="1"/><path class="ta39-2" d="M16,24h2V23H16Z"/><path class="ta39-2" d="M13,24v1h3V24H13Z"/><path class="ta39-4" d="M15,23H13v1h3V23Z"/><path class="ta39-2" d="M12,23H11v1h2V23Z"/><rect class="ta39-2" x="10" y="24" width="1" height="1"/><path class="ta39-2" d="M9,26H8v7H9V26Z"/><path class="ta39-3" d="M8,27H7v6H8V27Z"/><path class="ta39-4" d="M7,27H8V26H9V25H6v1H7Z"/><path class="ta39-2" d="M7,27V26H6v7H7V27Z"/><path class="ta39-2" d="M12,26v4h1V25H12Z"/><path class="ta39-2" d="M16,30h1V25H16v5Z"/><rect class="ta39-4" x="11" y="13" width="1" height="1"/><path class="ta39-4" d="M18,15H17v2H16v1h1v1h1V15Z"/><path class="ta39-4" d="M14,15h1V11H14v1H13v2h1Z"/><path class="ta39-4" d="M13,21v1h3V21h1V19H16v1H13V19h3V18H13V15H11v4h1v2Z"/><path class="ta39-4" d="M18,13H16v1h2Z"/><path class="ta39-5" d="M12,14v1h1V14Z"/><path class="ta39-2" d="M18,15V14H16v1h2Z"/><path class="ta39-2" d="M11,14v1h1V14Z"/><path class="ta39-6" d="M18,12H16v1h2Z"/><rect class="ta39-6" x="11" y="12" width="1" height="1"/><path class="ta39-7" d="M15,15h1V12h1V11H15Z"/><path class="ta39-7" d="M12,13v1h1V12h1V11H12v2Z"/><path class="ta39-7" d="M18,13v5h1V12H18Z"/><path class="ta39-7" d="M11,15V12H10v6h1V15Z"/><rect class="ta39-7" x="13" y="14" width="1" height="1"/><path class="ta39-7" d="M16,17h1V15H16v2Z"/><path class="ta39-3" d="M18,21H17v1H16v1h2V22h1V21Z"/><path class="ta39-3" d="M13,23V22H12V21H10v1h1v1h2Z"/><path class="ta39-3" d="M8,18v1H9V12h1V11h2V10h5v1h2v1h1v7h1V11H20V10H19V9H18V8H11V9H10v1H9v1H8v7Z"/><rect class="ta39-2" x="10" y="8" width="1" height="1"/><rect class="ta39-2" x="9" y="9" width="1" height="1"/><rect class="ta39-2" x="8" y="10" width="1" height="1"/><path class="ta39-2" d="M8,18V11H7v9H8V18Z"/><rect class="ta39-2" x="8" y="20" width="1" height="1"/><rect class="ta39-2" x="9" y="21" width="1" height="1"/><rect class="ta39-2" x="10" y="22" width="1" height="1"/><rect class="ta39-2" x="18" y="22" width="1" height="1"/><rect class="ta39-2" x="19" y="21" width="1" height="1"/><rect class="ta39-2" x="20" y="20" width="1" height="1"/><path class="ta39-2" d="M21,19v1h1V11H21v8Z"/><rect class="ta39-2" x="20" y="10" width="1" height="1"/><rect class="ta39-2" x="19" y="9" width="1" height="1"/><rect class="ta39-2" x="18" y="8" width="1" height="1"/><path class="ta39-2" d="M18,8V7H11V8h7Z"/><path class="ta39-2" d="M12,12V11H10v1h2Z"/><path class="ta39-2" d="M10,12H9v4h1V12Z"/><path class="ta39-2" d="M12,20H11v1h1Z"/><rect class="ta39-2" x="12" y="21" width="1" height="1"/><path class="ta39-2" d="M13,22v1h3V22H13Z"/><rect class="ta39-2" x="16" y="21" width="1" height="1"/><path class="ta39-2" d="M18,21V20H17v1Z"/><path class="ta39-2" d="M19,16h1V12H19v4Z"/><path class="ta39-2" d="M18,12h1V11H17v1Z"/><path class="ta39-2" d="M15,11h2V10H12v1h3Z"/><path class="ta39-8" d="M20,19V16H19v2H18v1H17v1h1v1h2V20h1V19Z"/><path class="ta39-8" d="M11,21V20h1V19H11V18H10V16H9v3H8v1H9v1h2Z"/><path class="ta39-9" d="M16,16V15H13v3h3V16Z"/><rect class="ta39-2" x="13" y="19" width="3" height="1"/><rect class="ta39-2" x="16" y="18" width="1" height="1"/><path class="ta39-10" d="M7,22H6v1H7Z"/><path class="ta39-5" d="M8,23V22H7v1Z"/><path class="ta39-11" d="M9,24V23H8v1Z"/><path class="ta39-12" d="M7,24H6v1H7Z"/><path class="ta39-10" d="M8,24v1H9V24Z"/><rect class="ta39-13" x="7" y="23" width="1" height="1"/><path class="ta39-11" d="M7,24v1H8V24Z"/><path class="ta39-14" d="M7,23H6v1H7Z"/><path class="ta39-14" d="M9,23V22H8v1Z"/><rect class="ta39-2" x="5" y="25" width="1" height="1"/><rect class="ta39-2" x="9" y="25" width="1" height="1"/></svg>