<svg xmlns="http://www.w3.org/2000/svg" viewBox="0 0 29 33"><defs><style>polygon,rect,path{shape-rendering:crispedges;}.oa81-1{fill:#397d98;}.oa81-2{fill:#000000;}.oa81-3{fill:#d8c5c5;}.oa81-4{fill:#68aaad;}.oa81-5{fill:#c18d59;}.oa81-6{fill:#844f4f;}.oa81-7{fill:#ffffff;}.oa81-8{fill:#663228;}.oa81-9{fill:#cbed03;}.oa81-10{fill:#99b7c6;}</style></defs><path class="oa81-1" d="M0,33H29V0H0ZM26,20H25V19h1Zm-2-3h1v1H24Zm-3,4V20h2V19h1v1H23v1h1v1H23v1H22v1H21v1H20V24H19V23h1V22h1ZM6,32V27H7V26H8V25h2V24h2V21H11V20H10V19H9V18H8V12H9V10h1V9h1V8h7V9h1v1h1v5h1v1H20v3H19v1H18v1H17v3h2v1h4v1h1v2H23v5H6Z"/><rect class="oa81-1" x="21" y="22" width="1" height="1"/><path class="oa81-2" d="M7,32V27H6v6H7Z"/><path class="oa81-3" d="M8,30H7v1H8Z"/><path class="oa81-3" d="M8,28V27H7v1Z"/><path class="oa81-2" d="M8,28v5H9V26h1V25H8v1H7v1H8Z"/><path class="oa81-3" d="M11,27H9v1h2Z"/><path class="oa81-3" d="M11,30H9v1h2Z"/><path class="oa81-2" d="M11,26v7h1V26h1V25H12V24H10v1h1Z"/><path class="oa81-4" d="M17,29V26H16v1H13V26H12v7h5V29Z"/><path class="oa81-2" d="M13,23h3v1h1V21H16v1H13V21H12v3h1Z"/><path class="oa81-2" d="M14,27h2V26H13v1Z"/><path class="oa81-5" d="M13,25v1h3V25h1V24H16V23H13v1H12v1Z"/><rect class="oa81-2" x="16" y="25" width="1" height="1"/><path class="oa81-2" d="M18,25h1V24H17v1Z"/><path class="oa81-2" d="M18,30V29H17v4h1V30Z"/><path class="oa81-3" d="M20,31V30H18v1Z"/><path class="oa81-2" d="M21,30H20v3h1V30Z"/><rect class="oa81-3" x="21" y="30" width="1" height="1"/><path class="oa81-2" d="M22,29v4h1V28H22Z"/><path class="oa81-6" d="M9,31v2h2V31Z"/><path class="oa81-6" d="M18,31v2h2V31Z"/><path class="oa81-6" d="M11,29V28H9v2h2Z"/><path class="oa81-6" d="M9,26v1h2V25H10v1Z"/><path class="oa81-6" d="M8,29V28H7v2H8Z"/><path class="oa81-6" d="M7,31v2H8V31Z"/><path class="oa81-6" d="M21,31v2h1V31Z"/><path class="oa81-6" d="M22,29H21v1h1Z"/><rect class="oa81-2" x="20" y="15" width="1" height="1"/><polygon class="oa81-5" points="18 14 19 14 19 13 17 13 17 14 18 14"/><path class="oa81-5" d="M13,22h3V21h1V20h1V19h1V16h1V15H16V13h1V12h2V11H18V10H16v1H14v1H13v1H11v1h2v1H9v1h1v3h1v1h1v1h1Zm1-6h1v1H14Zm-2,3V18h1v1h3v1H13V19Z"/><path class="oa81-2" d="M19,17v2h1V16H19Z"/><rect class="oa81-2" x="18" y="19" width="1" height="1"/><rect class="oa81-2" x="17" y="20" width="1" height="1"/><rect class="oa81-2" x="11" y="20" width="1" height="1"/><rect class="oa81-2" x="10" y="19" width="1" height="1"/><path class="oa81-2" d="M10,16H9v3h1V16Z"/><rect class="oa81-2" x="14" y="16" width="1" height="1"/><path class="oa81-7" d="M13,15V14H12v1Z"/><path class="oa81-7" d="M10,15h1V14H10Z"/><path class="oa81-7" d="M18,14v1h1V14Z"/><path class="oa81-7" d="M16,14v1h1V14Z"/><path class="oa81-2" d="M12,15V14H11v1Z"/><path class="oa81-2" d="M17,14v1h1V14Z"/><path class="oa81-8" d="M17,13H16v1h1Z"/><rect class="oa81-8" x="17" y="12" width="2" height="1"/><rect class="oa81-2" x="13" y="19" width="3" height="1"/><rect class="oa81-2" x="12" y="18" width="1" height="1"/><path class="oa81-9" d="M9,15h1V14h1V13h2V12h1V11h2V10h2v1h1v4h1V10H19V9H18V8H11V9H10v1H9v2H8v6H9V15Z"/><path class="oa81-7" d="M17,25v4h1v1h3V29h1V28H21V26h1V25H17Z"/><rect class="oa81-10" x="25" y="19" width="1" height="1"/><rect class="oa81-10" x="24" y="17" width="1" height="1"/><rect class="oa81-10" x="23" y="19" width="1" height="1"/><path class="oa81-10" d="M22,23h1V22h1V21H23V20H21v2h1Z"/><polygon class="oa81-10" points="20 23 19 23 19 24 20 24 20 25 21 25 21 24 22 24 22 23 21 23 21 22 20 22 20 23"/><path class="oa81-5" d="M22,26H21v2h2V26H22Z"/><path class="oa81-2" d="M22.5,26H23V25H22v1Z"/><path class="oa81-2" d="M24,28V26H23v2Z"/></svg>