<svg xmlns="http://www.w3.org/2000/svg" viewBox="0 0 29 33"><defs><style>polygon,rect,path{shape-rendering:crispedges;}.va88-1{fill:#31a09d;}.va88-2{fill:#000000;}.va88-3{fill:#508e91;}.va88-4{fill:#e8b795;}.va88-5{fill:#184144;}.va88-6{fill:#6c9302;}.va88-7{fill:#ffffff;}.va88-8{fill:#990000;}.va88-9{fill:#ff6aa5;}.va88-10{fill:#ff1f4a;}.va88-11{fill:#ff791f;}.va88-12{fill:#fad000;}.va88-13{fill:#b6dc00;}.va88-14{fill:#00af68;}.va88-15{fill:#38a6e8;}.va88-16{fill:#0068ff;}.va88-17{fill:#6e12ff;}.va88-18{fill:#ff1d99;}.va88-19{fill:#cc2f76;}</style></defs><path class="va88-1" d="M0,33H6V27H7V26H8V25h2V22h1V20H10V19H9V16H8V15H9V11h1V10h1V9h2V7h1V6h2V5h2V6H17V7h1V9h1v2h1v4h1v1H20v3h2v1h1v3H22v1H21v1h1v1h1v7h6V0H0Z"/><rect class="va88-1" x="19" y="24" width="1" height="1"/><path class="va88-2" d="M23,26H22v7h1V26Z"/><path class="va88-2" d="M7,30V27H6v6H7V30Z"/><rect class="va88-2" x="7" y="26" width="1" height="1"/><path class="va88-3" d="M7,31H8V30H7Z"/><path class="va88-3" d="M8,28V27H7v1Z"/><path class="va88-2" d="M21,30V28H20v3H14V27H13v4H9V27H8v6H9V32H20v1h1V30Z"/><path class="va88-2" d="M10,25H8v1h2Z"/><path class="va88-2" d="M11,24V22H10v3h1Z"/><path class="va88-3" d="M9,31h4V30H9Z"/><path class="va88-3" d="M9,28h4V27H9Z"/><polygon class="va88-3" points="12 24 11 24 11 25 13 25 13 24 12 24"/><rect class="va88-2" x="13" y="24" width="1" height="1"/><path class="va88-2" d="M15,26V25H14v2h1Z"/><path class="va88-4" d="M15,24h1V23H13v1h1v1h1Z"/><rect class="va88-2" x="15" y="24" width="1" height="1"/><path class="va88-2" d="M18,24v1h1V23H18Z"/><path class="va88-3" d="M19,27H14v1h5Z"/><path class="va88-3" d="M14,31h6V30H14Z"/><path class="va88-3" d="M18,25V24H16v1Z"/><path class="va88-3" d="M21,31h1V30H21Z"/><rect class="va88-2" x="20" y="15" width="1" height="1"/><path class="va88-2" d="M19,15h1V11H19v4Z"/><path class="va88-4" d="M12,21h1v1h3V21h1V20h1V19h1V16h1V15H19V11H18V10H15v1H13V10H11v1H10v4H9v1h1v3h1v1h1Zm4-1H13V19H12V18h1v1h3Zm-5-5V14h1V13h1V12h3v1h1v1h1v1H16v1H15v1H14V16H13V15H11Z"/><path class="va88-2" d="M19,17v2h1V16H19Z"/><path class="va88-2" d="M18,11h1V10H18Z"/><rect class="va88-2" x="18" y="19" width="1" height="1"/><path class="va88-2" d="M12,23v1h1V23h3v1h1V22h1V20H17v1H16v1H13V21H12V20H11v2h1Z"/><path class="va88-2" d="M16,10h2V9H16Z"/><path class="va88-2" d="M13,9H11v1h2Z"/><rect class="va88-2" x="10" y="10" width="1" height="1"/><rect class="va88-2" x="10" y="19" width="1" height="1"/><path class="va88-2" d="M10,14V11H9v4h1Z"/><path class="va88-2" d="M10,16H9v3h1V16Z"/><rect class="va88-2" x="8" y="15" width="1" height="1"/><path class="va88-5" d="M19,32H9v1H20V32Z"/><path class="va88-5" d="M14,28v2h6V28H14Z"/><path class="va88-5" d="M9,29v1h4V28H9Z"/><path class="va88-5" d="M9,27h5V25H10v1H8v1Z"/><path class="va88-5" d="M16,25H15v2h4V25H16Z"/><path class="va88-5" d="M7,29v1H8V28H7Z"/><path class="va88-5" d="M7,31v2H8V31Z"/><path class="va88-5" d="M21,31v2h1V31Z"/><path class="va88-5" d="M21,30h1V28H21Z"/><path class="va88-5" d="M12,24V22H11v2Z"/><path class="va88-5" d="M18,23V22H17v2h1Z"/><path class="va88-6" d="M18,15V14H17v1Z"/><rect class="va88-6" x="16" y="13" width="1" height="1"/><rect class="va88-2" x="14" y="14" width="1" height="1"/><path class="va88-7" d="M13,15v1h3V15h1V14H16V13H13v1H12v1Zm1-1h1v1H14Z"/><path class="va88-6" d="M16,13V12H13v1h3Z"/><rect class="va88-6" x="12" y="13" width="1" height="1"/><rect class="va88-6" x="11" y="14" width="1" height="1"/><path class="va88-2" d="M14,17h1V16H14Z"/><rect class="va88-2" x="13" y="19" width="3" height="1"/><rect class="va88-2" x="12" y="18" width="1" height="1"/><path class="va88-8" d="M13,11h2V10h1V9h2V7H17V6h1V5H16V6H14V7H13v4Z"/><path class="va88-8" d="M19,10V9H18v1Z"/><path class="va88-7" d="M20,25v1h1V24H20Z"/><rect class="va88-9" x="20" y="21" width="1" height="1"/><path class="va88-10" d="M20,23H19v1h2V23Z"/><rect class="va88-11" x="21" y="23" width="1" height="1"/><path class="va88-12" d="M22,22h1V20H22v2Z"/><path class="va88-13" d="M21,20h1V19H20v1Z"/><rect class="va88-14" x="19" y="19" width="1" height="1"/><path class="va88-14" d="M19,20H18v1h1Z"/><path class="va88-15" d="M19,23V21H18v2Z"/><path class="va88-16" d="M19,22v1h2V22H19Z"/><path class="va88-17" d="M22,21H21v2h1V21Z"/><path class="va88-18" d="M20,20v1h2V20H20Z"/><path class="va88-19" d="M19,22h1V20H19v2Z"/><path class="va88-11" d="M22,23h1V22H22Z"/><path class="va88-2" d="M21.5,26H22V25H21v1Z"/><path class="va88-4" d="M21,26H20v2h2V26H21Z"/><path class="va88-2" d="M20,25H19v3h1V25Z"/><rect class="va88-8" x="18" y="9" width="1" height="1"></rect></svg>