<svg xmlns="http://www.w3.org/2000/svg" viewBox="0 0 29 33"><defs><style>polygon,rect,path{shape-rendering:crispedges;}.hb232-1{fill:#b4bd09;}.hb232-2{fill:#000000;}.hb232-3{fill:#6d3e35;}.hb232-4{fill:#990000;}.hb232-5{fill:#990000;}.hb232-6{fill:#ff5e17;}</style></defs><rect class="hb232-1" x="9" y="16" width="1"/><rect class="hb232-1" x="19" y="16" width="1"/><path class="hb232-1" d="M0,33H6V27H7V26H8V25h2V24h2V21H11V20H10V19H9V16H8V15H9V10h1V9h1V8h7V9h1v1h1v5h1v1H20v3H19v1H18v1H17v3h2v1h2v1h1v1h1v6h6V0H0Z"/><polygon class="hb232-1" points="14 16 15 16 15 16 14 16 14 17 14 17 14 16"/><path class="hb232-2" d="M23,27H22v6h1V27Z"/><path class="hb232-3" d="M22,27H21v6h1V27Z"/><rect class="hb232-2" x="21" y="26" width="1" height="1"/><path class="hb232-2" d="M21,27H20v6h1V27Z"/><path class="hb232-3" d="M20,27h1V26H19V25H17V24H16V23H13v1H12v1H10v1H8v1H9v6h5V29h1v4h5V27Zm-8,2H11V28h1Zm6,0H17V28h1Z"/><path class="hb232-2" d="M20,26h1V25H19v1Z"/><rect class="hb232-2" x="17" y="28" width="1" height="1"/><path class="hb232-2" d="M18,25h1V24H17v1Z"/><path class="hb232-2" d="M15,29H14v4h1V29Z"/><path class="hb232-2" d="M13,23V22H12v2h1Z"/><rect class="hb232-2" x="11" y="28" width="1" height="1"/><path class="hb232-2" d="M12,24H10v1h2Z"/><path class="hb232-2" d="M10,25H8v1h2Z"/><path class="hb232-2" d="M9,27H8v6H9V27Z"/><path class="hb232-3" d="M8,27H7v6H8V27Z"/><rect class="hb232-2" x="7" y="26" width="1" height="1"/><path class="hb232-2" d="M7,27H6v6H7V27Z"/><polygon class="hb232-2" points="20 16 20 16 21 16 21 15 20 15 20 16 20 16"/><rect class="hb232-3" x="15" y="20" width="1" height="1"/><rect class="hb232-3" x="19" y="19"/><rect class="hb232-3" x="13" y="20" width="1" height="1"/><rect class="hb232-3" x="10" y="13" width="1" height="1"/><rect class="hb232-3" x="12" y="21"/><path class="hb232-3" d="M10,16h0v1h0v1h1v1h1V18h2v1h1V18h2v1h1V18h1V16h1V15H18v1H17v1H16V15H15V14H14v1H13v1H11V15H9v1Zm4,0h1v1H14Z"/><rect class="hb232-3" x="11" y="20"/><rect class="hb232-3" x="11" y="10"/><path class="hb232-3" d="M14,12V11H13V10H11v1H10v1h2v1h3V12Z"/><path class="hb232-2" d="M19,16v1h1V16Z"/><path class="hb232-2" d="M16,23v1h1V22H16Z"/><path class="hb232-2" d="M12,10h0Z"/><polygon class="hb232-2" points="11 10 11 10 11 11 10 11 10 11 11 11 11 10"/><path class="hb232-2" d="M10,17V16H9v1Z"/><polygon class="hb232-2" points="9 15 8 15 8 16 9 16 9 16 9 15"/><polygon class="hb232-2" points="14 17 14 17 15 17 15 16 15 16 14 16 14 17"/><polygon class="hb232-4" points="10 12 10 13 11 13 11 13 12 13 12 12 10 12"/><path class="hb232-5" d="M15,18v1h1V18Z"/><path class="hb232-5" d="M13,23h3V22h1V21h1V20h1V19h1V17H19v1H18v1H16v2H15V20H14v1H13V19h1V18H12v1H11V18H10V17H9v2h1v1h1v1h1v1h1Z"/><path class="hb232-2" d="M14,19H13v1h3V19H14Z"/><path class="hb232-2" d="M16,18v1h1V18Z"/><path class="hb232-6" d="M16,17h1V16H16Z"/><path class="hb232-6" d="M10,13V11h1V10h2v1h1v1h1v1h3v1h2V10H19V9H18V8H11V9H10v1H9v4h1Z"/><path class="hb232-2" d="M11,16h2V15h1V14h1v1h1v1h2V15h2V14H18V13H11v1H9v1h2Z"/></svg>