<svg xmlns="http://www.w3.org/2000/svg" viewBox="0 0 29 33"><defs><style>polygon,rect,path{shape-rendering:crispedges;}.ga119-1{fill:#6b4f99;}.ga119-2{fill:#000000;}.ga119-3{fill:#184144;}.ga119-4{fill:#a56e49;}.ga119-5{fill:#508e91;}.ga119-6{fill:#ffffff;}.ga119-7{fill:#893a1f;}.ga119-8{fill:#893a1f;}.ga119-9{fill:#000000;}.ga119-10{fill:#455054;}.ga119-11{fill:#0079bc;}.ga119-12{fill:#ffce00;}</style></defs><path class="ga119-1" d="M11,24h1V21H11V20H9V18H8v4H9v2H8v1h2V24Z"/><path class="ga119-1" d="M8,32H6V31H5V22H6V21H7V20H5v1H2V17H5V16H8V13H9V11h1V10h1V9h7v1h1v1h1v1h1v6H20v2H18v1H17v3h2v1h2v1h1v1h1v6h6V0H0V33H8Z"/><path class="ga119-2" d="M6,24V22H5v9H6V24Z"/><path class="ga119-3" d="M7,30V24H6v7H7Z"/><path class="ga119-2" d="M9,31V27H8V26h2V25H8V24H7v7H6v1H8v1H9V31Z"/><path class="ga119-3" d="M19,32V31H18v1H17V29h1V28h1v1h1V27h1V26H19V25H17v1H16v1H13V26H12V25H10v1H8v1H9v2h1V28h1v1h1v3H11V31H10v1H9v1H20V32Zm-3-2v1H15v1H13V28h2v1h1Z"/><path class="ga119-3" d="M15,29H14v2h1V29Z"/><rect class="ga119-3" x="10" y="29" width="1" height="1"/><rect class="ga119-3" x="18" y="29" width="1" height="1"/><path class="ga119-2" d="M11,24H10v1h2V24Z"/><rect class="ga119-2" x="12" y="25" width="1" height="1"/><path class="ga119-2" d="M13,26v1h3V26H13Z"/><path class="ga119-4" d="M16,23H13v1H12v1h1v1h3V25h1V24H16Z"/><rect class="ga119-2" x="16" y="25" width="1" height="1"/><path class="ga119-2" d="M18,25h1V24H17v1Z"/><path class="ga119-2" d="M20,26h1V25H19v1Z"/><path class="ga119-2" d="M21,27H20v6h1V27Z"/><rect class="ga119-2" x="21" y="26" width="1" height="1"/><path class="ga119-3" d="M22,27H21v6h1V27Z"/><path class="ga119-2" d="M23,27H22v6h1V27Z"/><path class="ga119-5" d="M19,30H18V29H17v3h1V31h1v1h1V29H19Z"/><rect class="ga119-5" x="18" y="28" width="1" height="1"/><path class="ga119-5" d="M15,30v1h1V29H15Z"/><path class="ga119-5" d="M14,30V29h1V28H13v4h2V31H14Z"/><path class="ga119-5" d="M9,32h1V31h1v1h1V29H11v1H10V29H9v3Z"/><rect class="ga119-5" x="10" y="28" width="1" height="1"/><rect class="ga119-2" x="19" y="14" width="1" height="1"/><rect class="ga119-4" x="19" y="15" width="1" height="1"/><rect class="ga119-4" x="15" y="20" width="1" height="1"/><path class="ga119-4" d="M13,12H11v1h2Z"/><rect class="ga119-4" x="9" y="15" width="1" height="1"/><rect class="ga119-4" x="17" y="13" width="1" height="1"/><path class="ga119-4" d="M11,19h1V18h5v1h2V18H18V15H16v1H15v1H14V16h1V14h1V12H15V11H14v4H13v2H12V15H11v3H10v1Z"/><rect class="ga119-4" x="16" y="19" width="1" height="1"/><rect class="ga119-4" x="13" y="20" width="1" height="1"/><rect class="ga119-4" x="12" y="19" width="1" height="1"/><rect class="ga119-4" x="17" y="11" width="1" height="1"/><path class="ga119-2" d="M19,16v2h1V16Z"/><path class="ga119-2" d="M18,19v1h1V19Z"/><rect class="ga119-2" x="17" y="20" width="1" height="1"/><path class="ga119-2" d="M16,22H13V21H12v3h1V23h3v1h1V21H16Z"/><rect class="ga119-2" x="11" y="20" width="1" height="1"/><path class="ga119-2" d="M10,19v1h1V19Z"/><path class="ga119-2" d="M10,17V16H9v2h1Z"/><rect class="ga119-2" x="14" y="16" width="1" height="1"/><rect class="ga119-6" x="12" y="14" width="1" height="1"/><path class="ga119-6" d="M17,15V14H16v1Z"/><rect class="ga119-2" x="11" y="14" width="1" height="1"/><path class="ga119-2" d="M18,15V14H17v1Z"/><rect class="ga119-7" x="17" y="12" width="1" height="1"/><polygon class="ga119-7" points="13 14 13 13 11 13 11 14 12 14 13 14"/><path class="ga119-8" d="M17,19v1h1V19Z"/><rect class="ga119-8" x="16" y="20" width="1" height="1"/><path class="ga119-8" d="M15,20H14v1H13v1h3V21H15Z"/><path class="ga119-8" d="M14,19h2V18H12v1h2Z"/><rect class="ga119-8" x="12" y="20" width="1" height="1"/><rect class="ga119-8" x="11" y="19" width="1" height="1"/><path class="ga119-2" d="M15,19H13v1h3V19Z"/><path class="ga119-2" d="M16,18v1h1V18Z"/><path class="ga119-9" d="M8,18H9V15h1v3h1V12h2v3h1V11h1v1h1v2h1V11h1v7h1V14h1v4h1V12H20V11H19V10H18V9H11v1H10v1H9v2H8v5Z"/><path class="ga119-9" d="M19,19v1h1V18H19Z"/><path class="ga119-9" d="M15,15v1h1V14H15Z"/><path class="ga119-9" d="M12,16v1h1V15H12Z"/><path class="ga119-9" d="M10,20V18H9v2Z"/><path class="ga119-4" d="M7,24H8V22H6v2Z"/><path class="ga119-10" d="M8,22V20H7v2Z"/><path class="ga119-2" d="M7,21H6v1H7Z"/><path class="ga119-2" d="M9,22H8v2H9Z"/><path class="ga119-11" d="M5,17H2v1H5Z"/><path class="ga119-11" d="M6,16H5v1H6Z"/><path class="ga119-11" d="M8,17V16H7v1Z"/><path class="ga119-11" d="M5,18v1H2v2H5V20H6V18Z"/><path class="ga119-11" d="M8,19V18H7v2H8Z"/><path class="ga119-12" d="M8,18V17H7V16H6v1H5v1H6v2H7V18Z"/><path class="ga119-12" d="M5,19V18H2v1H5Z"/></svg>