<svg xmlns="http://www.w3.org/2000/svg" viewBox="0 0 29 33"><defs><style>polygon,rect,path{shape-rendering:crispedges;}.xa79-1{fill:#d4a122;}.xa79-2{fill:#508e5d;}.xa79-3{fill:#000000;}.xa79-4{fill:#a56e49;}.xa79-5{fill:#c6e5e4;}.xa79-6{fill:#ffffff;}.xa79-7{fill:#e2e2e2;}.xa79-8{fill:#ff1f4a;}</style></defs><path class="xa79-1" d="M0,33H6V27H7V26H8V25h2V22h1V20H9V19H8V11H9V10h1V9h1V8h7V9h1v1h1v1h1v8H20v1H18v2h1v3h2v1h1v1h1v6h6V0H0Z"/><rect class="xa79-2" x="17" y="22" width="1" height="1"/><path class="xa79-2" d="M15,30V28H14v3h2V30Z"/><path class="xa79-2" d="M18,30V28H17V27H16V25H15v3h1v1h1v2h2V30Z"/><path class="xa79-2" d="M18,24H16v1h1v1h1v2h1v1h1V27H19V25H18Z"/><path class="xa79-2" d="M21,31v1h1V30H21Z"/><rect class="xa79-2" x="21" y="27" width="1" height="1"/><rect class="xa79-2" x="13" y="32" width="1" height="1"/><rect class="xa79-2" x="10" y="32" width="1" height="1"/><rect class="xa79-2" x="19" y="32" width="1" height="1"/><rect class="xa79-2" x="16" y="32" width="1" height="1"/><path class="xa79-2" d="M8,29V27H7v2Z"/><path class="xa79-2" d="M7,31v2H8V31Z"/><path class="xa79-2" d="M12,29V28H11V27H10V26H9v2h1v1h1v2h2V30H12Z"/><rect class="xa79-2" x="11" y="22" width="1" height="1"/><rect class="xa79-2" x="9" y="30" width="1" height="1"/><path class="xa79-2" d="M12,25V24H11v2h1v2h1V25Z"/><path class="xa79-3" d="M23,27H22v6h1V27Z"/><rect class="xa79-3" x="21" y="26" width="1" height="1"/><path class="xa79-3" d="M21,31V27H20v4H14V27H13v4H9V27H8v6H9V32H20v1h1V31Z"/><path class="xa79-3" d="M20,26h1V25H19v1Z"/><path class="xa79-3" d="M18,24v1h1V22H18v2Z"/><rect class="xa79-3" x="15" y="24" width="1" height="1"/><path class="xa79-3" d="M15,26V25H14v2h1Z"/><rect class="xa79-3" x="13" y="24" width="1" height="1"/><path class="xa79-4" d="M14,25h1V24h1V23H13v1h1Z"/><path class="xa79-3" d="M11,24V22H10v3h1Z"/><path class="xa79-3" d="M10,26V25H8v1h2Z"/><rect class="xa79-3" x="7" y="26" width="1" height="1"/><path class="xa79-3" d="M7,30V27H6v6H7V30Z"/><path class="xa79-4" d="M12,21h1v1h3V21h1V20h1V19h1V16h1V15H16V14h3V13H16V12h1V11H15V10H14v1H13v2H11v1h2v1H9v1h1v3h1v1h1Zm2-5h1v1H14Zm-1,3h3V18h1v1H16v1H13Z"/><path class="xa79-3" d="M20,16H19v3h1V16Z"/><path class="xa79-3" d="M18,19v1h1V19Z"/><path class="xa79-3" d="M12,23v1h1V23h3v1h1V22h1V20H17v1H16v1H13V21H12V20H11v2h1Z"/><path class="xa79-3" d="M10,19v1h1V19Z"/><path class="xa79-3" d="M10,18V16H9v3h1Z"/><rect class="xa79-3" x="14" y="16" width="1" height="1"/><path class="xa79-5" d="M21,29v1h1V28H21Z"/><path class="xa79-5" d="M21,32v1h1V32Z"/><path class="xa79-5" d="M19,26v1h2V26H19Z"/><path class="xa79-5" d="M19,28H18v2h1v1h1V29H19Z"/><path class="xa79-5" d="M17,27v1h1V26H17V25H16v2Z"/><path class="xa79-5" d="M18,32H17v1h2V32Z"/><path class="xa79-5" d="M16,29V28H15v2h1v1h1V29Z"/><path class="xa79-5" d="M15,27H14v1h1Z"/><path class="xa79-5" d="M13,25v2h1V25Z"/><path class="xa79-5" d="M15,32H14v1h2V32Z"/><path class="xa79-5" d="M12,29v1h1V28H12Z"/><rect class="xa79-5" x="12" y="24" width="1" height="1"/><path class="xa79-5" d="M12,23H11v1h1Z"/><path class="xa79-5" d="M18,23H17v1h1Z"/><path class="xa79-5" d="M10,27h1v1h1V26H11V25H10v2Z"/><path class="xa79-5" d="M12,32H11v1h2V32Z"/><path class="xa79-5" d="M10,29V28H9v2h1v1h1V29Z"/><path class="xa79-5" d="M9,32v1h1V32Z"/><path class="xa79-5" d="M9,27V26H8v1Z"/><path class="xa79-5" d="M7,30v1H8V29H7Z"/><path class="xa79-6" d="M13,15V14H12v1Z"/><path class="xa79-6" d="M10,15h1V14H10Z"/><path class="xa79-6" d="M18,14v1h1V14Z"/><path class="xa79-6" d="M16,14v1h1V14Z"/><path class="xa79-3" d="M12,15V14H11v1Z"/><path class="xa79-3" d="M17,14v1h1V14Z"/><path class="xa79-7" d="M12,13h1V12H12Z"/><path class="xa79-7" d="M16,12v1h1V12Z"/><rect class="xa79-3" x="13" y="19" width="3" height="1"/><rect class="xa79-3" x="16" y="18" width="1" height="1"/><path class="xa79-8" d="M9,16V15h1V14h1V13h1V12h1V11h1V10h1v1h2v2h2v2h1v4h1V11H20V10H19V9H18V8H11V9H10v1H9v1H8v8H9V16Z"/><path class="xa79-8" d="M9,19v1h1V19Z"/><path class="xa79-8" d="M19,20h1V19H19Z"/></svg>