<svg xmlns="http://www.w3.org/2000/svg" viewBox="0 0 29 33"><defs><style>polygon,rect,path{shape-rendering:crispedges;}.hb91-1{fill:#b4bd09;}.hb91-2{fill:#000000;}.hb91-3{fill:#512a24;}.hb91-4{fill:#990000;}.hb91-5{fill:#990000;}.hb91-6{fill:#00686d;}</style></defs><path class="hb91-1" d="M0,33H29V0H0Zm6-1V27H7V26H8V25h2V24h2V21H11V20H10V19H9V16H8V15H9V11h1V9h1V8h7V9h1v1h1v1h0v4h1v1H20v3H19v1H18v1H17v3h2v1h2v1h1v1h1v6H6Z"/><rect class="hb91-1" x="19" y="16" width="1"/><rect class="hb91-1" x="13" y="21"/><polygon class="hb91-1" points="15 17 15 17 15 16 14 16 14 16 15 16 15 17"/><rect class="hb91-1" x="9" y="16" width="1"/><path class="hb91-2" d="M22,33h1V27H22v6Z"/><path class="hb91-3" d="M21,28v5h1V27H21Z"/><rect class="hb91-2" x="21" y="26" width="1" height="1"/><path class="hb91-2" d="M21,28V27H20v6h1V28Z"/><path class="hb91-3" d="M9,27v6h5V29h1v4h5V27h1V26H19V25H17V24H16V23H13v1H12v1H10v1H8v1Zm8,1h1v1H17Zm-6,0h1v1H11Z"/><path class="hb91-2" d="M20,26h1V25H19v1Z"/><rect class="hb91-2" x="17" y="28" width="1" height="1"/><path class="hb91-2" d="M18,25h1V24H17v1Z"/><path class="hb91-2" d="M15,29H14v4h1V29Z"/><path class="hb91-2" d="M13,23V22H12v2h1Z"/><rect class="hb91-2" x="11" y="28" width="1" height="1"/><path class="hb91-2" d="M12,24H10v1h2Z"/><path class="hb91-2" d="M10,25H8v1h2Z"/><path class="hb91-2" d="M9,27H8v6H9V27Z"/><path class="hb91-3" d="M7,32v1H8V27H7v5Z"/><rect class="hb91-2" x="7" y="26" width="1" height="1"/><path class="hb91-2" d="M7,32V27H6v6H7Z"/><polygon class="hb91-2" points="20 16 20 16 21 16 21 15 20 15 20 16 20 16"/><path class="hb91-3" d="M9,16h1v2h1v1h1v1h1V19h3V18h1v1h1V18h1V16h1V15H18v1H16V15H15V14H14v1H13v1H11V15H9Zm5,0h1v1H14Z"/><path class="hb91-3" d="M13,21h3V20H13Z"/><rect class="hb91-3" x="16" y="19" width="1" height="1"/><path class="hb91-3" d="M10,14h1V13H10V12h2v1h4V12h2v1h1v1h0V11H18V10H17v1H16V10H15v1H14V10H13v1H12V10H11v1H10v3Z"/><polygon class="hb91-2" points="18 10 18 11 19 11 19 10 18 10 18 10"/><path class="hb91-2" d="M16,23v1h1V22H16Z"/><polygon class="hb91-2" points="15 9 15 10 16 10 16 9 15 9"/><polygon class="hb91-2" points="17 10 18 10 18 9 17 9 17 10"/><polygon class="hb91-2" points="13 9 13 10 14 10 14 9 13 9"/><polygon class="hb91-2" points="12 10 12 10 12 9 11 9 11 10 12 10"/><polygon class="hb91-2" points="9 15 9 15 8 15 8 16 9 16 9 16 9 15"/><polygon class="hb91-2" points="15 17 15 16 14 16 14 16 14 17 15 17 15 17"/><polygon class="hb91-4" points="18 13 18 14 19 14 19 13 18 13"/><path class="hb91-4" d="M16,12v1h2V12Z"/><path class="hb91-4" d="M10,12v1h2V12Z"/><path class="hb91-5" d="M13,23h3V22h1V21h1V20h1V19h1V16H19v2H18v1H17v1H16v1H13V20H12V19H11V18H10V16H9v3h1v1h1v1h1v1h1Z"/><rect class="hb91-2" x="13" y="19" width="3" height="1"/><rect class="hb91-2" x="16" y="18" width="1" height="1"/><path class="hb91-6" d="M11,10V9H10v2h1Z"/><path class="hb91-6" d="M12,10v1h1V9h1v2h1V9h1v2h1V9h1V8H11V9h1Z"/><polygon class="hb91-6" points="18 10 19 10 19 9 18 9 18 10 18 10"/><polygon class="hb91-6" points="19 11 20 11 20 10 19 10 19 11 19 11"/><path class="hb91-2" d="M11,16h2V15h1V14h1v1h1v1h2V15h2V11H19v3H18V13H11v1H10V11H9v4h2Z"/></svg>