<svg xmlns="http://www.w3.org/2000/svg" viewBox="0 0 29 33"><defs><style>polygon,rect,path{shape-rendering:crispedges;}.aa284-1{fill:#d4a122;}.aa284-2{fill:#000000;}.aa284-3{fill:#c18d59;}.aa284-4{fill:#ffffff;}.aa284-5{fill:#ffffff;}.aa284-6{fill:#ffffff;}.aa284-7{fill:#5e362f;}.aa284-8{fill:#0068ff;}.aa284-9{fill:#ff1d99;}</style></defs><path class="aa284-1" d="M0,33H6V27H7V26H8V25h2V24h2V21H11V20H10V19H9V16H8V15H9V11h1V9h1V8h7V9h1v1h1v5h1v1H20v3H19v1H18v1H17v3h2v1h2v1h1v1h1v6h6V0H0Z"/><path class="aa284-2" d="M23,27H22v6h1V27Z"/><rect class="aa284-2" x="21" y="26" width="1" height="1"/><path class="aa284-3" d="M22,27H21v6h1V27Z"/><rect class="aa284-3" x="20" y="26" width="1" height="1"/><path class="aa284-2" d="M21,27H20v6h1V27Z"/><path class="aa284-2" d="M20,26h1V25H19v1Z"/><rect class="aa284-4" x="16" y="30" width="1" height="1"/><rect class="aa284-4" x="12" y="30" width="1" height="1"/><path class="aa284-4" d="M16,32H12v1h5V32Z"/><path class="aa284-4" d="M10,30h1V29h1V28h1V27H12V26H11V25H10v1H9v7h1V30Z"/><path class="aa284-4" d="M20,27V26H19V25H18v1H17v1H16v1h1v1h1v1h1v3h1V27Z"/><path class="aa284-2" d="M18,26V25h1V24H17v2Z"/><rect class="aa284-2" x="16" y="26" width="1" height="1"/><path class="aa284-2" d="M13,27v1h3V27H13Z"/><path class="aa284-2" d="M13,23h3v1h1V21H16v1H13V21H12v3h1Z"/><path class="aa284-3" d="M13,26v1h3V26h1V24H16V23H13v1H12v2Z"/><rect class="aa284-2" x="12" y="26" width="1" height="1"/><path class="aa284-2" d="M11,26h1V24H10v1h1Z"/><path class="aa284-2" d="M10,26V25H8v1h2Z"/><path class="aa284-3" d="M9,27V26H8v1Z"/><path class="aa284-2" d="M9,27H8v6H9V27Z"/><rect class="aa284-2" x="7" y="26" width="1" height="1"/><path class="aa284-3" d="M8,27H7v6H8V27Z"/><path class="aa284-2" d="M7,27H6v6H7V27Z"/><path class="aa284-5" d="M19,30H18V29H17V28H12v1H11v1H10v3h2V32h5v1h2V30Zm-6,1H12V30h1Zm4,0H16V30h1Z"/><rect class="aa284-2" x="20" y="15" width="1" height="1"/><path class="aa284-2" d="M19,12v3h1V11H19Z"/><rect class="aa284-3" x="12" y="19" width="1" height="1"/><rect class="aa284-3" x="15" y="20" width="1" height="1"/><path class="aa284-3" d="M10,14h2V13H10Z"/><rect class="aa284-3" x="16" y="19" width="1" height="1"/><rect class="aa284-3" x="13" y="20" width="1" height="1"/><path class="aa284-3" d="M12,19V18h5v1h2V16h1V15H16V14h2V13H16V12h2v1h1V11H18V10H17v1H16V10H15v1H14V10H13v1H12V10H11v1H10v1h2v1h1v2H9v1h1v3h2Zm2-3h1v1H14Z"/><path class="aa284-2" d="M19,17v2h1V16H19Z"/><rect class="aa284-2" x="18" y="10" width="1" height="1"/><path class="aa284-2" d="M18,20h1V19H18Z"/><rect class="aa284-2" x="17" y="20" width="1" height="1"/><rect class="aa284-2" x="13" y="9" width="1" height="1"/><rect class="aa284-2" x="15" y="9" width="1" height="1"/><rect class="aa284-2" x="11" y="9" width="1" height="1"/><rect class="aa284-2" x="17" y="9" width="1" height="1"/><rect class="aa284-2" x="11" y="20" width="1" height="1"/><path class="aa284-2" d="M10,19v1h1V19Z"/><path class="aa284-2" d="M10,16H9v3h1V16Z"/><rect class="aa284-2" x="8" y="15" width="1" height="1"/><rect class="aa284-2" x="14" y="16" width="1" height="1"/><path class="aa284-6" d="M18,14v1h1V14Z"/><path class="aa284-6" d="M12,15h1V14H12Z"/><path class="aa284-2" d="M17,14H16v1h2V14Z"/><path class="aa284-2" d="M12,15V14H10V11H9v4h3Z"/><path class="aa284-7" d="M19,13H18v1h1Z"/><rect class="aa284-7" x="16" y="12" width="2" height="1"/><path class="aa284-7" d="M13,14V13H12v1Z"/><path class="aa284-7" d="M12,13V12H10v1Z"/><path class="aa284-8" d="M17,19v1h1V19Z"/><rect class="aa284-8" x="16" y="20" width="1" height="1"/><path class="aa284-8" d="M15,20H14v1H13v1h3V21H15Z"/><path class="aa284-8" d="M14,19h3V18H12v1h2Z"/><rect class="aa284-8" x="12" y="20" width="1" height="1"/><path class="aa284-8" d="M12,19H11v1h1Z"/><path class="aa284-2" d="M15,20h1V19H13v1h2Z"/><path class="aa284-9" d="M11,10V9H10v2h1Z"/><path class="aa284-9" d="M12,10v1h1V9h1v2h1V9h1v2h1V9h1V8H11V9h1Z"/><rect class="aa284-9" x="18" y="9" width="1" height="1"/><path class="aa284-9" d="M20,11V10H19v1Z"/></svg>