<svg xmlns="http://www.w3.org/2000/svg" viewBox="0 0 29 33"><defs><style>polygon,rect,path{shape-rendering:crispedges;}.ya11-1{fill:#d4a122;}.ya11-2{fill:#000000;}.ya11-3{fill:#db5800;}.ya11-4{fill:#b2622b;}.ya11-5{fill:#b23b00;}.ya11-6{fill:#ffffff;}.ya11-7{fill:#8e4717;}.ya11-8{fill:#8e4717;}.ya11-9{fill:#c8a715;}.ya11-10{fill:#e70059;}.ya11-11{fill:#d2d8b8;}</style></defs><rect class="ya11-1" x="11" y="22" width="1" height="1"/><path class="ya11-1" d="M0,33H8V32H6V31H5V23H4V20H5V19H7v1H8v1H9v2H8v2h2V20H9V18H8V13H9V11h1V10h1V9h7v1h1v1h1v1h1v6H20v2H19v5h2v1h1v1h1v6h6V0H0Z"/><rect class="ya11-1" x="17" y="22" width="1" height="1"/><path class="ya11-2" d="M6,29V23H5v8H6V29Z"/><path class="ya11-2" d="M23,27H22v6h1V27Z"/><path class="ya11-3" d="M21,28h1V27H21Z"/><path class="ya11-3" d="M21,31h1V30H21Z"/><rect class="ya11-2" x="21" y="26" width="1" height="1"/><path class="ya11-2" d="M21,30V27H20v6h1V30Z"/><rect class="ya11-3" x="9" y="30" width="5" height="1"/><path class="ya11-3" d="M15,31h5V30H15Z"/><path class="ya11-3" d="M14,27H9v1H20V27H14Z"/><path class="ya11-2" d="M20,26h1V25H19v1Z"/><path class="ya11-2" d="M18,23H17v2H16v1h2V25h1V24H18Z"/><rect class="ya11-2" x="15" y="24" width="1" height="1"/><rect class="ya11-2" x="14" y="32" width="1" height="1"/><rect class="ya11-2" x="14" y="30" width="1" height="1"/><path class="ya11-2" d="M15,29V28H14v1Z"/><path class="ya11-2" d="M15,26V25H14v2h1Z"/><rect class="ya11-2" x="13" y="24" width="1" height="1"/><path class="ya11-4" d="M15,24h1V23H13v1h1v1h1Z"/><path class="ya11-2" d="M11,26h2V25H12V23H11v1H10v1h1Z"/><path class="ya11-2" d="M9,30V27H8V26h2V25H8V23H7v8H6v1H8v1H9V30Z"/><path class="ya11-3" d="M6,28H7V27H6Z"/><path class="ya11-3" d="M6,25H7V24H6Z"/><path class="ya11-3" d="M7,30H6v1H7Z"/><path class="ya11-5" d="M15,31H9v2h5V32h1v1h5V31Z"/><path class="ya11-5" d="M15,29H14V28H9v2H20V28H15Z"/><path class="ya11-5" d="M18,26H16V25H15v2h6V26H19V25H18Z"/><path class="ya11-5" d="M9,26H8v1h6V25H13v1H11V25H10v1Z"/><path class="ya11-5" d="M6,29v1H7V28H6Z"/><path class="ya11-5" d="M6,26v1H7V25H6Z"/><path class="ya11-5" d="M21,31v2h1V31Z"/><path class="ya11-5" d="M21,29v1h1V28H21Z"/><rect class="ya11-2" x="19" y="14" width="1" height="1"/><path class="ya11-4" d="M14,20H13v1h1v1h1V21h1V20H14Z"/><path class="ya11-4" d="M18,12V11H17v2h1Z"/><path class="ya11-4" d="M13,12H11v1h2Z"/><rect class="ya11-4" x="9" y="15" width="1" height="1"/><rect class="ya11-4" x="19" y="15" width="1" height="1"/><path class="ya11-4" d="M18,15H16v1H15v1H14V16h1V14h1V12H15V11H14v4H13v2H12V15H11v4h1V18h5v1h1V15Z"/><rect class="ya11-2" x="19" y="16" width="1" height="1"/><rect class="ya11-2" x="9" y="16" width="1" height="1"/><rect class="ya11-2" x="14" y="16" width="1" height="1"/><rect class="ya11-6" x="12" y="14" width="1" height="1"/><path class="ya11-6" d="M17,15V14H16v1Z"/><rect class="ya11-2" x="11" y="14" width="1" height="1"/><path class="ya11-2" d="M18,15V14H17v1Z"/><polygon class="ya11-7" points="13 14 13 13 11 13 11 14 12 14 13 14"/><rect class="ya11-7" x="17" y="13" width="1" height="1"/><path class="ya11-8" d="M12,22v1h5V22h2V18H18v1H16v2H15v1H14V21H13V19H11V18H10v4h2Z"/><rect class="ya11-8" x="19" y="17" width="1" height="1"/><rect class="ya11-8" x="9" y="17" width="1" height="1"/><path class="ya11-9" d="M18,23h1V22H18Z"/><path class="ya11-8" d="M18,24h1V23H18Z"/><path class="ya11-9" d="M17,24V23H16v1Z"/><path class="ya11-8" d="M16,25h1V24H16Z"/><path class="ya11-9" d="M13,23H12v1h1Z"/><path class="ya11-8" d="M12,24v1h1V24Z"/><path class="ya11-9" d="M11,22H10v1h1Z"/><path class="ya11-8" d="M11,23H10v1h1Z"/><path class="ya11-2" d="M12,18v1h1V18Z"/><path class="ya11-2" d="M16,18v1h1V18Z"/><path class="ya11-2" d="M15,20h1V19H15Z"/><path class="ya11-2" d="M15,19V18H14v1Z"/><path class="ya11-2" d="M14,19H13v1h1Z"/><path class="ya11-6" d="M14,18H13v1h1Z"/><path class="ya11-6" d="M15,18v1h1V18Z"/><path class="ya11-10" d="M14,20h1V19H14Z"/><path class="ya11-2" d="M9,23V21H8v2Z"/><rect class="ya11-2" x="7" y="20" width="1" height="1"/><rect class="ya11-2" x="5" y="19" width="2" height="1"/><path class="ya11-2" d="M5,20H4v3H5V20Z"/><path class="ya11-4" d="M6,24H7V23H8V21H7V20H5v3H6Z"/><path class="ya11-11" d="M9,16V15h1v3h1V12h2v3h1V11h1v1h1v2h1V11h1v7h1V14h1v4h1V12H20V11H19V10H18V9H11v1H10v1H9v2H8v5H9V16Z"/><path class="ya11-11" d="M19,19v1h1V18H19Z"/><path class="ya11-11" d="M15,15v1h1V14H15Z"/><path class="ya11-11" d="M12,16v1h1V15H12Z"/><path class="ya11-11" d="M9,18v2h1V18Z"/></svg>