<svg xmlns="http://www.w3.org/2000/svg" viewBox="0 0 29 33"><defs><style>polygon,rect,path{shape-rendering:crispedges;}.cb189-1{fill:#e55b35;}.cb189-2{fill:#000000;}.cb189-3{fill:#9b8100;}.cb189-4{fill:#ffffff;}.cb189-5{fill:#c18d59;}.cb189-6{fill:#99582c;}.cb189-7{fill:#99582c;}.cb189-8{fill:#c8a715;}.cb189-9{fill:#5a2de2;}.cb189-10{fill:#fad000;}</style></defs><rect class="cb189-1" x="19" y="23" width="1" height="1"/><path class="cb189-1" d="M6,32V27H7V26H8V25h2V20H9V18H8V13H9V11h1V10h1V9h7v1h1v1h1v1h1v6H20v2H19v1h1v1h1v1h1v1h2v1h1v2H24V26H23v7h6V0H0V33H6Z"/><rect class="cb189-1" x="17" y="22" width="1" height="1"/><rect class="cb189-1" x="11" y="22" width="1" height="1"/><path class="cb189-2" d="M7,27H6v6H7V27Z"/><rect class="cb189-2" x="7" y="26" width="1" height="1"/><path class="cb189-3" d="M8,27H7v6H8V27Z"/><path class="cb189-2" d="M9,27H8v6H9V27Z"/><path class="cb189-2" d="M10,25H8v1h2Z"/><path class="cb189-3" d="M12,29H11V25H10v1H8v1H9v6h3V29Z"/><path class="cb189-2" d="M11,26v3h1V26h1V25H12V23H11v1H10v1h1Z"/><path class="cb189-2" d="M13,29H12v4h1V29Z"/><rect class="cb189-4" x="13" y="23" width="1" height="1"/><path class="cb189-4" d="M16,29h1V26H16V25H13v1H12v3h1v4h1V32h1v1h1V29Zm-1,2H14V30h1Zm0-2H14V28h1Zm0-2H14V26h1Z"/><rect class="cb189-2" x="14" y="26" width="1" height="1"/><rect class="cb189-2" x="14" y="28" width="1" height="1"/><rect class="cb189-2" x="14" y="30" width="1" height="1"/><rect class="cb189-2" x="14" y="32" width="1" height="1"/><rect class="cb189-4" x="15" y="23" width="1" height="1"/><path class="cb189-2" d="M15,24V23H14v1H13v1h3V24Z"/><path class="cb189-2" d="M17,29H16v4h1V29Z"/><rect class="cb189-2" x="16" y="25" width="1" height="1"/><path class="cb189-2" d="M18,23H17v2h1V23Z"/><path class="cb189-2" d="M17,27v2h1V26H17Z"/><path class="cb189-3" d="M20,27H19V25H18v4H17v4h3V27Z"/><path class="cb189-2" d="M21,28V27H20v6h1V28Z"/><path class="cb189-4" d="M21,28h1V27H21Z"/><path class="cb189-3" d="M22,28H21v5h1V28Z"/><path class="cb189-2" d="M23,26V25H22v8h1V26Z"/><rect class="cb189-2" x="19" y="14" width="1" height="1"/><rect class="cb189-5" x="19" y="15" width="1" height="1"/><rect class="cb189-5" x="9" y="15" width="1" height="1"/><path class="cb189-5" d="M18,15H16v1H15v1H14V16h1V14h1V12H15V11H14v4H13v2H12V15H11v4h1V18h2v1h1V18h2v1h1V15Z"/><polygon class="cb189-5" points="13 21 14 21 14 22 15 22 15 21 16 21 16 20 13 20 13 21"/><rect class="cb189-5" x="17" y="11" width="1" height="1"/><rect class="cb189-5" x="17" y="13" width="1" height="1"/><path class="cb189-5" d="M13,14V13H11v1h2Z"/><rect class="cb189-2" x="19" y="16" width="1" height="1"/><rect class="cb189-2" x="9" y="16" width="1" height="1"/><rect class="cb189-2" x="14" y="16" width="1" height="1"/><path class="cb189-4" d="M12,15h1V14H12Z"/><path class="cb189-4" d="M17,15V14H16v1Z"/><path class="cb189-2" d="M12,14H11v1h1Z"/><path class="cb189-2" d="M18,15V14H17v1Z"/><path class="cb189-6" d="M13,12H11v1h2Z"/><rect class="cb189-6" x="17" y="12" width="1" height="1"/><path class="cb189-7" d="M12,22v1h5V22h1V21h1V18H18v1H17V18H15v1h1v2H15v1H14V21H13V19H11V18H10v4h2Z"/><path class="cb189-7" d="M14,18H13v1h1Z"/><rect class="cb189-7" x="19" y="17" width="1" height="1"/><rect class="cb189-7" x="9" y="17" width="1" height="1"/><rect class="cb189-8" x="18" y="22" width="1" height="1"/><path class="cb189-7" d="M18,24h1V23H18Z"/><path class="cb189-8" d="M17,24V23H16v1Z"/><path class="cb189-7" d="M17,24H16v1h1Z"/><path class="cb189-8" d="M13,23H12v1h1Z"/><path class="cb189-7" d="M12,24v1h1V24Z"/><path class="cb189-8" d="M11,22H10v1h1Z"/><path class="cb189-7" d="M11,23H10v1h1Z"/><path class="cb189-2" d="M13,19v1h3V19H13Z"/><path class="cb189-2" d="M12,18v1h1V18Z"/><path class="cb189-9" d="M9,16V15h1v3h1V12h2v3h1V11h1v1h1v2h1V11h1v7h1V14h1v4h1V12H20V11H19V10H18V9H11v1H10v1H9v2H8v5H9V16Z"/><path class="cb189-9" d="M19,19v1h1V18H19Z"/><path class="cb189-9" d="M15,15v1h1V14H15Z"/><path class="cb189-9" d="M12,16v1h1V15H12Z"/><path class="cb189-9" d="M9,18v2h1V18Z"/><path class="cb189-10" d="M23,25v1h1v1h1V25H24V24H22v1Z"/><path class="cb189-4" d="M18,22h1v1h1v2h2V23H21V22H20V21H18Z"/><path class="cb189-5" d="M20,27h2V25H20Z"/><path class="cb189-10" d="M20,24H18v1h2Z"/><path class="cb189-10" d="M17,26h1V25H17Z"/><path class="cb189-2" d="M19,25v2h1V25Z"/></svg>