<svg xmlns="http://www.w3.org/2000/svg" viewBox="0 0 29 33"><defs><style>polygon,rect,path{shape-rendering:crispedges;}.qa92-1{fill:#6b4f99;}.qa92-2{fill:#000000;}.qa92-3{fill:#34e0cb;}.qa92-4{fill:#efcaaf;}.qa92-5{fill:#ffffff;}.qa92-6{fill:#b23b00;}.qa92-7{fill:#b23b00;}.qa92-8{fill:#cbed03;}.qa92-9{fill:#ff1f4a;}.qa92-10{fill:#560000;}</style></defs><path class="qa92-1" d="M6,32V27H7V26H8V25h2V24h1V23H10V22h1V20H10V19H9V16H8V15H9V11h1V10h1V9h7v1h1v1h1v4h1v1H20v3H19v1H18v2h1v1H18v1h1v1h2v1h1v1h1v6h6V0H0V33H6Z"/><path class="qa92-2" d="M23,27H22v6h1V27Z"/><path class="qa92-3" d="M22,27H21v6h1V27Z"/><rect class="qa92-2" x="21" y="26" width="1" height="1"/><path class="qa92-2" d="M21,27H20v6h1V27Z"/><path class="qa92-3" d="M20,27h1V26H19V25H18V24H16v1h1v5H16V25H13v5H12V25h1V24H11v1H10v1H8v1H9v6H20V27Z"/><path class="qa92-2" d="M20,26h1V25H19v1Z"/><rect class="qa92-2" x="18" y="24" width="1" height="1"/><rect class="qa92-2" x="18" y="22" width="1" height="1"/><rect class="qa92-3" x="17" y="22" width="1" height="1"/><path class="qa92-2" d="M13,24v1h3V24H13Z"/><path class="qa92-4" d="M15,23H13v1h3V23Z"/><path class="qa92-2" d="M13,23h3v1h2V23H17V22h1V20H17v1H16v1H13V21H12V20H11v2h1v1H11v1h2Z"/><rect class="qa92-3" x="11" y="22" width="1" height="1"/><rect class="qa92-2" x="10" y="24" width="1" height="1"/><rect class="qa92-2" x="10" y="22" width="1" height="1"/><path class="qa92-2" d="M10,25H8v1h2Z"/><path class="qa92-2" d="M9,27H8v6H9V27Z"/><path class="qa92-3" d="M8,27H7v6H8V27Z"/><rect class="qa92-2" x="7" y="26" width="1" height="1"/><path class="qa92-2" d="M7,27H6v6H7V27Z"/><path class="qa92-2" d="M12,26v4h1V25H12Z"/><path class="qa92-2" d="M16,30h1V25H16v5Z"/><rect class="qa92-2" x="20" y="15" width="1" height="1"/><path class="qa92-2" d="M19,15h1V14H19Z"/><path class="qa92-4" d="M12,21h1v1h3V21h1V20h1V19h1V16H16V14h2V13H16V12h2v1h1V11H18V10H15v5H14v1h1v1H14V16H13v1H11V16H10v3h1v1h1Zm0-3h5v1H15v1H14V19H12Z"/><rect class="qa92-4" x="9" y="15" width="1" height="1"/><rect class="qa92-4" x="19" y="15" width="1" height="1"/><path class="qa92-2" d="M19,17v2h1V16H19Z"/><rect class="qa92-2" x="18" y="19" width="1" height="1"/><rect class="qa92-2" x="10" y="19" width="1" height="1"/><path class="qa92-2" d="M10,16H9v3h1V16Z"/><rect class="qa92-2" x="8" y="15" width="1" height="1"/><rect class="qa92-2" x="14" y="16" width="1" height="1"/><path class="qa92-5" d="M16,14v2h1V14Z"/><path class="qa92-5" d="M19,14H18v2h1V14Z"/><path class="qa92-2" d="M17,14v2h1V14Z"/><rect class="qa92-6" x="18" y="13" width="1" height="1"/><rect class="qa92-6" x="16" y="12" width="2" height="1"/><path class="qa92-7" d="M15,19h2V18H12v1h3Z"/><path class="qa92-2" d="M14,20h1V19H14Z"/><path class="qa92-8" d="M19,14h1V11H19v3Z"/><rect class="qa92-8" x="18" y="10" width="1" height="1"/><path class="qa92-8" d="M16,10h2V9H15v1Z"/><path class="qa92-9" d="M11,15h2V13H11v2Z"/><path class="qa92-10" d="M13,13v2h1V13Z"/><path class="qa92-10" d="M11,15v1h2V15Z"/><path class="qa92-10" d="M11,14V13H10v2h1Z"/><path class="qa92-10" d="M13,12H11v1h2Z"/><rect class="qa92-2" x="10" y="15" width="1" height="1"/><path class="qa92-2" d="M11,17h2V16H11Z"/><rect class="qa92-2" x="13" y="15" width="1" height="1"/><path class="qa92-2" d="M10,14V13h1V12h2v1h1v2h1V9H11v1H10v1H9v4h1Z"/></svg>