<svg xmlns="http://www.w3.org/2000/svg" viewBox="0 0 29 33"><defs><style>polygon,rect,path{shape-rendering:crispedges;}.ha104-1{fill:#d4a122;}.ha104-2{fill:#000000;}.ha104-3{fill:#5a2de2;}.ha104-4{fill:#e8b795;}.ha104-5{fill:#b8a4ff;}.ha104-6{fill:#ffffff;}.ha104-7{fill:#7f5018;}.ha104-8{fill:#fad000;}.ha104-9{fill:#7f5018;}.ha104-10{fill:#6e12ff;}</style></defs><path class="ha104-1" d="M0,33H6V27H7V26H8V25h2V23h1V21H10V20H9V16H8V15H9V13H8V9H9V8h1V7h1V6h7V7h1V8h1V9h1v4H20v2h1v1H20v4H19v1H18v2h1v2h2v1h1v1h1v6h6V0H0Z"/><path class="ha104-2" d="M23,27H22v6h1V27Z"/><rect class="ha104-2" x="21" y="26" width="1" height="1"/><path class="ha104-3" d="M22,27H21v6h1V27Z"/><path class="ha104-2" d="M21,27H20v6h1V27Z"/><path class="ha104-2" d="M20,26h1V25H19v1Z"/><path class="ha104-3" d="M14,30v1h1V29H14Z"/><path class="ha104-3" d="M19,32V31H18v1H17V29h1V28h1v1h1V27h1V26H19V25H18v1H17v1H16v1H15v1h1v2H15v1H13V27H12V26H11V25H10v1H9v3h1V28h1v1h1v3H11V31H10v1H9v1H20V32Z"/><rect class="ha104-3" x="10" y="29" width="1" height="1"/><rect class="ha104-3" x="18" y="29" width="1" height="1"/><path class="ha104-4" d="M14,25h2V23H13v2Z"/><path class="ha104-2" d="M9,31V26h1V25H8v1H7v1H8v6H9V31Z"/><path class="ha104-3" d="M8,27H7v6H8V27Z"/><path class="ha104-2" d="M7,27H6v6H7V27Z"/><path class="ha104-5" d="M19,30H18V29H17v3h1V31h1v1h1V29H19Z"/><rect class="ha104-5" x="18" y="28" width="1" height="1"/><path class="ha104-5" d="M16,31V29H15v2Z"/><path class="ha104-5" d="M13,32h2V31H14V29h1V28H13Z"/><path class="ha104-5" d="M9,32h1V31h1v1h1V29H11v1H10V29H9v3Z"/><rect class="ha104-5" x="10" y="28" width="1" height="1"/><rect class="ha104-2" x="20" y="15" width="1" height="1"/><path class="ha104-2" d="M19,15h1V14H19Z"/><path class="ha104-4" d="M10,17h1v1h5v1h1V18h1V17h1V16h1V15H16V13h1V12h1V11H11v1h2v1H11v1h2v1H9v1h1Zm4-1h1v1H14Z"/><rect class="ha104-4" x="10" y="12" width="1" height="1"/><polygon class="ha104-4" points="18 14 19 14 19 13 17 13 17 14 18 14"/><path class="ha104-2" d="M10,14H9v1h1Z"/><rect class="ha104-2" x="8" y="15" width="1" height="1"/><rect class="ha104-2" x="14" y="16" width="1" height="1"/><path class="ha104-6" d="M13,15V14H12v1Z"/><path class="ha104-6" d="M10,15h1V14H10Z"/><path class="ha104-6" d="M18,14v1h1V14Z"/><path class="ha104-6" d="M16,14v1h1V14Z"/><path class="ha104-2" d="M12,15V14H11v1Z"/><path class="ha104-2" d="M17,14v1h1V14Z"/><rect class="ha104-7" x="10" y="13" width="1" height="1"/><rect class="ha104-7" x="11" y="12" width="2" height="1"/><path class="ha104-7" d="M17,13H16v1h1Z"/><path class="ha104-7" d="M19,12H17v1h2Z"/><path class="ha104-2" d="M18,25h1V23H18v2Z"/><rect class="ha104-2" x="17" y="25" width="1" height="1"/><path class="ha104-8" d="M17,24v1h1V24Z"/><path class="ha104-6" d="M17,24h1V23H17Z"/><path class="ha104-2" d="M17,23h1V22H17Z"/><rect class="ha104-2" x="16" y="26" width="1" height="1"/><rect class="ha104-6" x="16" y="25" width="1" height="1"/><path class="ha104-2" d="M17,25V23H16v2Z"/><rect class="ha104-8" x="15" y="26" width="1" height="1"/><path class="ha104-2" d="M14,27H13v1h3V27H14Z"/><path class="ha104-6" d="M14,27h1V26H14Z"/><rect class="ha104-8" x="13" y="26" width="1" height="1"/><path class="ha104-2" d="M13,25v1h3V25H13Z"/><rect class="ha104-2" x="12" y="26" width="1" height="1"/><rect class="ha104-6" x="12" y="25" width="1" height="1"/><path class="ha104-2" d="M13,25V23H12v2Z"/><rect class="ha104-2" x="11" y="25" width="1" height="1"/><path class="ha104-8" d="M12,24H11v1h1Z"/><path class="ha104-6" d="M12,24V23H11v1Z"/><path class="ha104-2" d="M12,22H11v1h1Z"/><path class="ha104-2" d="M11,24V23H10v2h1Z"/><path class="ha104-9" d="M15,18H13v1h3V18Z"/><path class="ha104-9" d="M12,23h5V22h1V21h1V20h1V16H19v1H18v1H17v1H16v1H13V19H12V18H11V17H10V16H9v4h1v1h1v1h1Z"/><rect class="ha104-2" x="13" y="19" width="3" height="1"/><path class="ha104-2" d="M12,18v1h1V18Z"/><path class="ha104-10" d="M10,13V12h1V11h7v1h1v2h1V13h1V9H20V8H19V7H18V6H11V7H10V8H9V9H8v4H9v1h1Z"/></svg>