<svg xmlns="http://www.w3.org/2000/svg" viewBox="0 0 29 33"><defs><style>polygon,rect,path{shape-rendering:crispedges;}.cb200-1{fill:#29834f;}.cb200-2{fill:#000000;}.cb200-3{fill:#326b43;}.cb200-4{fill:#ffffff;}.cb200-5{fill:#e8b795;}.cb200-6{fill:#b23b00;}.cb200-7{fill:#b23b00;}.cb200-8{fill:#c8a715;}.cb200-9{fill:#d8be00;}</style></defs><path class="cb200-1" d="M6,32V27H7V26H8V25h2V20H9V16H8V15H9V14H8V12H9V11H8V10H9V9H8V8h2V7h1V8h1V6h1V7h1V8h1V7h1V6h1V7h1V8h1V7h1V8H19V9h2v2H20v1h1v1H20v1h1v2H20v4H19v5h2v1h1v1h1v6h6V0H0V33H6Z"/><rect class="cb200-1" x="17" y="22" width="1" height="1"/><rect class="cb200-1" x="11" y="22" width="1" height="1"/><path class="cb200-2" d="M23,27H22v6h1V27Z"/><path class="cb200-3" d="M22,27H21v6h1V27Z"/><rect class="cb200-2" x="21" y="26" width="1" height="1"/><path class="cb200-2" d="M21,27H20v6h1V27Z"/><path class="cb200-3" d="M20,27h1V26H19V25H18v4H17v4h3V27Z"/><path class="cb200-2" d="M20,26h1V25H19v1Z"/><path class="cb200-2" d="M17,29H16v4h1V29Z"/><path class="cb200-2" d="M18,23H17v2H16v1h1v3h1V25h1V24H18Z"/><path class="cb200-4" d="M16,29h1V26H16V25H13v1H12v3h1v4h1V32h1v1h1V29Zm-1,2H14V30h1Zm0-2H14V28h1Zm0-2H14V26h1Z"/><rect class="cb200-4" x="15" y="23" width="1" height="1"/><rect class="cb200-2" x="14" y="32" width="1" height="1"/><rect class="cb200-2" x="14" y="30" width="1" height="1"/><rect class="cb200-2" x="14" y="28" width="1" height="1"/><rect class="cb200-2" x="14" y="26" width="1" height="1"/><path class="cb200-2" d="M15,24V23H14v1H13v1h3V24Z"/><rect class="cb200-4" x="13" y="23" width="1" height="1"/><path class="cb200-2" d="M13,29H12v4h1V29Z"/><path class="cb200-3" d="M12,29H11V25H10v1H8v1H9v6h3V29Z"/><path class="cb200-2" d="M11,26v3h1V26h1V25H12V23H11v1H10v1h1Z"/><path class="cb200-2" d="M10,25H8v1h2Z"/><path class="cb200-2" d="M9,27H8v6H9V27Z"/><path class="cb200-3" d="M8,27H7v6H8V27Z"/><rect class="cb200-2" x="7" y="26" width="1" height="1"/><path class="cb200-2" d="M7,27H6v6H7V27Z"/><path class="cb200-2" d="M20,16h1V15H20Z"/><polygon class="cb200-5" points="13 21 14 21 14 22 15 22 15 21 16 21 16 20 13 20 13 21"/><rect class="cb200-5" x="11" y="10" width="1" height="1"/><path class="cb200-5" d="M10,17v1h1v1h1V18h2v1h1V18h2v1h1V18h1V16h1V15H19V13H18V10H17v1H16v2h1v1h1v1H16v1H15v1H14V16H13V15H11V14h1V13h1V12H11v1H10v2H9v1h1Z"/><path class="cb200-2" d="M19,17h1V16H19Z"/><path class="cb200-2" d="M10,16H9v1h1Z"/><rect class="cb200-2" x="8" y="15" width="1" height="1"/><path class="cb200-6" d="M18,15V14H17v1Z"/><rect class="cb200-6" x="16" y="13" width="1" height="1"/><rect class="cb200-2" x="14" y="14" width="1" height="1"/><path class="cb200-4" d="M13,13v1H12v1h1v1h3V15h1V14H16V13H13Zm2,2H14V14h1Z"/><path class="cb200-6" d="M14,12H13v1h3V12H14Z"/><rect class="cb200-6" x="12" y="13" width="1" height="1"/><path class="cb200-6" d="M11,14v1h1V14Z"/><path class="cb200-2" d="M14,17h1V16H14Z"/><path class="cb200-5" d="M15,12V10H14v1H13v1h2Z"/><rect class="cb200-5" x="10" y="11" width="1" height="1"/><path class="cb200-7" d="M12,22v1h5V22h2V20h1V17H19v1H18v1H16v2H15v1H14V21H13V19h1V18H12v1H11V18H10V17H9v3h1v2h2Z"/><path class="cb200-7" d="M15,18v1h1V18Z"/><path class="cb200-8" d="M18,23h1V22H18Z"/><path class="cb200-7" d="M18,24h1V23H18Z"/><path class="cb200-8" d="M17,24V23H16v1Z"/><path class="cb200-7" d="M17,24H16v1h1Z"/><path class="cb200-8" d="M13,23H12v1h1Z"/><path class="cb200-7" d="M12,24v1h1V24Z"/><path class="cb200-8" d="M11,22H10v1h1Z"/><path class="cb200-7" d="M11,23H10v1h1Z"/><path class="cb200-2" d="M14,19H13v1h3V19H14Z"/><path class="cb200-2" d="M16,18v1h1V18Z"/><path class="cb200-9" d="M10,14V13h1V12H10V11h1V10h1v1H11v1h2V11h1V10h1v2h1V11h1V10h1v3h1v2h2V14H20V13h1V12H20V11h1V9H19V8H18V7H17V6H16V7H15V8H14V7H13V6H12V8H11V7H10V8H8V9H9v1H8v1H9v1H8v2H9v1h1Z"/><rect class="cb200-9" x="19" y="7" width="1" height="1"/></svg>