<svg xmlns="http://www.w3.org/2000/svg" viewBox="0 0 29 33"><defs><style>polygon,rect,path{shape-rendering:crispedges;}.xa179-1{fill:#d4a122;}.xa179-2{fill:#000000;}.xa179-3{fill:#8e9350;}.xa179-4{fill:#b2622b;}.xa179-5{fill:#326b43;}.xa179-6{fill:#ffffff;}.xa179-7{fill:#473a35;}.xa179-8{fill:#34e0cb;}.xa179-9{fill:#efc075;}.xa179-10{fill:#2aa8e8;}.xa179-11{fill:#d8aa68;}.xa179-12{fill:#563e1b;}</style></defs><path class="xa179-1" d="M6,32V28H5V27H4V25H5V24H8v1h2V22H9V21H8V20H7V19H8V12H9V10h1V9h1V8h7V9h1v1h1v2h1v2h1v8h1v1h1v8H23v1H22v1h7V0H0V33H6Z"/><rect class="xa179-1" x="10" y="21" width="1" height="1"/><rect class="xa179-1" x="18" y="21" width="1" height="1"/><path class="xa179-1" d="M20,22H19v3h2V21H20Z"/><path class="xa179-2" d="M7,30V27H5v1H6v5H7V30Z"/><path class="xa179-3" d="M7,28v2H8V27H7Z"/><path class="xa179-3" d="M7,31v2H8V31Z"/><path class="xa179-3" d="M9,26v5h3V30h1V27H12V26h1v1h1V25H13V24H11v1H10v1Zm2,2v1H10V28Z"/><rect class="xa179-3" x="11" y="22" width="1" height="1"/><path class="xa179-2" d="M11,24V22H10v3h1Z"/><rect class="xa179-2" x="13" y="24" width="1" height="1"/><path class="xa179-4" d="M15,24h1V23H13v1h1v1h1Z"/><path class="xa179-2" d="M15,26V25H14v2h1Z"/><rect class="xa179-2" x="15" y="24" width="1" height="1"/><rect class="xa179-3" x="17" y="22" width="1" height="1"/><path class="xa179-3" d="M19,26V25H18V24H16v1H15v2H14v1h1v1H14v2h2V30h1v1h3V26Zm-2,1H16V26h1Zm2,2H18V28h1Z"/><path class="xa179-2" d="M19,22H18v3h1V22Z"/><path class="xa179-3" d="M18,32H15v1h4V32Z"/><path class="xa179-3" d="M13,32H10v1h4V32Z"/><path class="xa179-2" d="M21,29V27H20v4H14V27H13v4H9V26h1V25H8v8H9V32H20v1h1V29Z"/><path class="xa179-2" d="M19,26h2V25H19Z"/><rect class="xa179-2" x="22" y="31" width="1" height="1"/><rect class="xa179-3" x="22" y="30" width="1" height="1"/><path class="xa179-3" d="M23,28V26H22v3h1Z"/><path class="xa179-2" d="M23,26v5h1V23H23v3Z"/><rect class="xa179-2" x="20" y="15" width="1" height="1"/><path class="xa179-4" d="M12,21h1v1h3V21h1V20h1V19h1V16h1V15H16V13h1V11H16V10H13v1H12v1h1v1H11v1h2v1H9v1h1v3h1v1h1Zm2-5h1v1H14Zm-2,2h1v1h3v1H13V19H12Z"/><rect class="xa179-4" x="17" y="13" width="1" height="1"/><path class="xa179-2" d="M20,18V16H19v3h1Z"/><rect class="xa179-2" x="18" y="19" width="1" height="1"/><rect class="xa179-2" x="17" y="20" width="1" height="1"/><path class="xa179-2" d="M14,23h2v1h1V21H16v1H13V21H12v3h1V23Z"/><rect class="xa179-2" x="11" y="20" width="1" height="1"/><rect class="xa179-2" x="10" y="19" width="1" height="1"/><path class="xa179-2" d="M10,14H9v1h1Z"/><path class="xa179-2" d="M10,16H9v3h1V16Z"/><path class="xa179-2" d="M9,15H8v1H9Z"/><rect class="xa179-2" x="14" y="16" width="1" height="1"/><rect class="xa179-5" x="18" y="28" width="1" height="1"/><path class="xa179-5" d="M16,30v1h1V30Z"/><path class="xa179-5" d="M15,28H14v1h1Z"/><path class="xa179-5" d="M14,32v1h1V32Z"/><rect class="xa179-5" x="16" y="26" width="1" height="1"/><path class="xa179-5" d="M12,31h1V30H12Z"/><rect class="xa179-5" x="10" y="28" width="1" height="1"/><rect class="xa179-5" x="12" y="26" width="1" height="1"/><path class="xa179-5" d="M20,26v1h1V26Z"/><path class="xa179-5" d="M9,32v1h1V32Z"/><path class="xa179-5" d="M19,32v1h1V32Z"/><path class="xa179-5" d="M23,29H22v1h1Z"/><path class="xa179-5" d="M23,26V25H22v1Z"/><path class="xa179-5" d="M7,31H8V30H7Z"/><path class="xa179-5" d="M17,23v1h1V23Z"/><path class="xa179-5" d="M11,23v1h1V23Z"/><path class="xa179-6" d="M11,15V14H10v1Z"/><path class="xa179-6" d="M16,14v1h1V14Z"/><path class="xa179-2" d="M12,15h1V14H11v1Z"/><path class="xa179-2" d="M17,15h3V14H17Z"/><path class="xa179-7" d="M13,12H11v1h2Z"/><path class="xa179-7" d="M17,13H16v1h1Z"/><path class="xa179-7" d="M18,13V12H17v1Z"/><rect class="xa179-2" x="13" y="19" width="3" height="1"/><rect class="xa179-2" x="12" y="18" width="1" height="1"/><path class="xa179-8" d="M20,17v2H19v1H18v1h1v1h1V21h1V16H20Z"/><path class="xa179-8" d="M9,14h2V12h1V11h1V10h3v1h1v1h1v2h2v1h1V12H20V10H19V9H18V8H11V9H10v1H9v2H8v3H9Z"/><path class="xa179-8" d="M11,21V20H10V19H9V16H8v3H7v1H8v1H9v1h1V21Z"/><path class="xa179-8" d="M12,21H11v1h1Z"/><path class="xa179-8" d="M18,21H17v1h1Z"/><path class="xa179-9" d="M21,27v2h1V27Z"/><path class="xa179-9" d="M21,20v1h1V19H21Z"/><path class="xa179-9" d="M21,16v1h1V15H21Z"/><path class="xa179-10" d="M22,15V14H21v1Z"/><path class="xa179-4" d="M21,23v2h2V23H21Z"/><path class="xa179-11" d="M22,26V25H21v2h1Z"/><path class="xa179-11" d="M21,23h1V21H21Z"/><path class="xa179-11" d="M21,18v1h1V17H21Z"/><path class="xa179-6" d="M7,26H8V24H5v1H7Z"/><path class="xa179-4" d="M8,27V26H7V25H5v2H8Z"/><path class="xa179-12" d="M22,31V29H21v4h1V31Z"/><path class="xa179-2" d="M23,23V22H22v1Z"/><path class="xa179-2" d="M4,25v2H5V25Z"/></svg>