<svg xmlns="http://www.w3.org/2000/svg" viewBox="0 0 29 33"><defs><style>polygon,rect,path{shape-rendering:crispedges;}.ab249-1{fill:#6b4f99;}.ab249-2{fill:#000000;}.ab249-3{fill:#ffa9d0;}.ab249-4{fill:#b2622b;}.ab249-5{fill:#cc2f76;}.ab249-6{fill:#ffffff;}.ab249-7{fill:#00774c;}.ab249-8{fill:#fad000;}.ab249-9{fill:#34e0cb;}</style></defs><path class="ab249-1" d="M0,33H6V24H7V23H8v1H9v1h1V24h1V23h1V22H11V21H10v1H9V21H8V20H7V19H8V12H9V10h1V9h1V8h7V9h1v1h1v2h1v7h1v1H21v1H20v1H19V21H18v1H17v1h1v1h1v1h1V24h1V23h1v1h1v9h6V0H0Z"/><path class="ab249-2" d="M7,31V24H6v9H7V31Z"/><path class="ab249-3" d="M7,31v1H8V30H7Z"/><path class="ab249-3" d="M7,28H8V27H7Z"/><path class="ab249-2" d="M9,31V27H8v6H9V31Z"/><path class="ab249-3" d="M19,31V30H18V28H16v1h1v2h1v1h1v1h1V31Z"/><path class="ab249-3" d="M19,26H18v2h1v1h1V27H19Z"/><rect class="ab249-3" x="15" y="25" width="1" height="1"/><path class="ab249-3" d="M16,31V30H15v2h1v1h1V31Z"/><path class="ab249-3" d="M14,31H13V30H12V28H11V27H9v1h1v1h1v2h1v1h1v1h1V31Z"/><path class="ab249-3" d="M10,31V30H9v2h1v1h1V31Z"/><path class="ab249-2" d="M14,32v1h1V32Z"/><path class="ab249-4" d="M15,24h1V23H13v1h1v1h1Z"/><path class="ab249-2" d="M21,31V27H20v6h1V31Z"/><path class="ab249-3" d="M21,28h1V27H21Z"/><path class="ab249-3" d="M21,31v1h1V30H21Z"/><path class="ab249-2" d="M23,24H22v9h1V24Z"/><path class="ab249-5" d="M19,28H18v2h1v1h1V29H19Z"/><path class="ab249-5" d="M21,32v1h1V32Z"/><path class="ab249-5" d="M7,32v1H8V32Z"/><path class="ab249-5" d="M17,27v1h1V27Z"/><path class="ab249-5" d="M21,29v1h1V28H21Z"/><path class="ab249-5" d="M18,32V31H17v2h2V32Z"/><path class="ab249-5" d="M16,31h1V29H16v2Z"/><rect class="ab249-5" x="13" y="25" width="1" height="1"/><rect class="ab249-5" x="15" y="32" width="1" height="1"/><path class="ab249-5" d="M14,32h1V31H14Z"/><path class="ab249-5" d="M12,28v2h1V28Z"/><rect class="ab249-5" x="13" y="30" width="1" height="1"/><path class="ab249-5" d="M10,26v1h1V26Z"/><rect class="ab249-5" x="11" y="27" width="1" height="1"/><path class="ab249-5" d="M12,32V31H11v2h2V32Z"/><path class="ab249-5" d="M10,30v1h1V29H10V28H9v2Z"/><path class="ab249-5" d="M9,32v1h1V32Z"/><path class="ab249-5" d="M7,29v1H8V28H7Z"/><path class="ab249-2" d="M20,16h1V15H20Z"/><rect class="ab249-2" x="19" y="14" width="1" height="1"/><rect class="ab249-4" x="17" y="13" width="1" height="1"/><path class="ab249-4" d="M18,20V19h1V16h1V15H16V13h1V11H16V10H13v1H12v1h1v1H11v1h2v1H9v1h1v3h1v1h1v1h1v1h3V21h1V20Zm-4-4h1v1H14Zm2,3v1H13V19H12V18h5v1Z"/><path class="ab249-2" d="M19,17v2h1V16H19Z"/><rect class="ab249-2" x="18" y="19" width="1" height="1"/><rect class="ab249-2" x="17" y="20" width="1" height="1"/><rect class="ab249-2" x="11" y="20" width="1" height="1"/><rect class="ab249-2" x="10" y="19" width="1" height="1"/><path class="ab249-2" d="M10,14H9v1h1Z"/><path class="ab249-2" d="M10,16H9v3h1V16Z"/><path class="ab249-2" d="M9,15H8v1H9Z"/><rect class="ab249-2" x="14" y="16" width="1" height="1"/><path class="ab249-6" d="M13,15V14H12v1Z"/><path class="ab249-6" d="M11,15V14H10v1Z"/><path class="ab249-6" d="M19,15V14H18v1Z"/><path class="ab249-6" d="M16,14v1h1V14Z"/><path class="ab249-2" d="M12,15V14H11v1Z"/><path class="ab249-2" d="M17,15h1V14H17Z"/><path class="ab249-7" d="M13,12H11v1h2Z"/><path class="ab249-7" d="M17,13H16v1h1Z"/><path class="ab249-7" d="M18,13V12H17v1Z"/><path class="ab249-2" d="M14,31h1V30H14Z"/><rect class="ab249-2" x="12" y="27" width="1" height="1"/><path class="ab249-2" d="M15,29v1h1V28H15Z"/><path class="ab249-2" d="M16,27v1h1V27Z"/><path class="ab249-2" d="M14,29V28H13v2h1Z"/><path class="ab249-2" d="M18,27V26H17v1Z"/><rect class="ab249-2" x="11" y="26" width="1" height="1"/><rect class="ab249-2" x="14" y="25" width="1" height="1"/><rect class="ab249-2" x="13" y="26" width="1" height="1"/><rect class="ab249-2" x="15" y="26" width="1" height="1"/><path class="ab249-2" d="M12,25v1h1V25h1V24H13V23h3v1H15v1h1v1h1V24h1V23H17V21H16v1H13V21H12v2H11v1h1Z"/><rect class="ab249-8" x="16" y="26" width="1" height="1"/><polygon class="ab249-8" points="15 27 15 26 14 26 14 27 13 27 13 28 14 28 14 29 14 30 15 30 15 29 15 28 16 28 16 27 15 27"/><rect class="ab249-8" x="12" y="26" width="1" height="1"/><path class="ab249-8" d="M12,26V24H11v2Z"/><path class="ab249-8" d="M17,25v1h1V24H17Z"/><path class="ab249-2" d="M19,26v1h1V25H19V24H18v2Z"/><polygon class="ab249-2" points="17 18 12 18 12 19 13 19 13 20 16 20 16 19 17 19 17 18"/><path class="ab249-4" d="M21,27h1V24H21v1H20v2Z"/><rect class="ab249-2" x="20" y="24" width="1" height="1"/><rect class="ab249-2" x="21" y="23" width="1" height="1"/><path class="ab249-4" d="M7,27H9V25H8V24H7v3Z"/><path class="ab249-2" d="M10,27V26h1V24H10v1H9v2Z"/><rect class="ab249-2" x="8" y="24" width="1" height="1"/><rect class="ab249-2" x="7" y="23" width="1" height="1"/><path class="ab249-9" d="M20,17v2H19v1H18v1h1v1h1V21h1V20h1V19H21V16H20Z"/><path class="ab249-9" d="M9,14h2V12h1V11h1V10h3v1h1v1h1v2h2v1h1V12H20V10H19V9H18V8H11V9H10v1H9v2H8v3H9Z"/><path class="ab249-9" d="M10,20V19H9V16H8v3H7v1H8v1H9v1h1V21h1V20Z"/><path class="ab249-9" d="M11,21v1h1V21Z"/><path class="ab249-9" d="M17,22h1V21H17Z"/></svg>