<svg xmlns="http://www.w3.org/2000/svg" viewBox="0 0 29 33"><defs><style>polygon,rect,path{shape-rendering:crispedges;}.va97-1{fill:#6b4f99;}.va97-2{fill:#6d5800;}.va97-3{fill:#000000;}.va97-4{fill:#ce8452;}.va97-5{fill:#d8be00;}.va97-6{fill:#5e362f;}.va97-7{fill:#5e362f;}.va97-8{fill:#ffa9d0;}.va97-9{fill:#ffffff;}</style></defs><path class="va97-1" d="M0,33H6V27H7V26H8V25h2V22h1V20H10V19H9V16H8V15H9V11h1V10h1V9h2V7h1V5h1V6h1V8h1V9h1v1h1v1h1v4h1v1H20v3H19v1H18v2h1v3h2v1h1v1h1v6h6V0H0Z"/><path class="va97-2" d="M19,26v1H18V26H17V25h1V23H17v1H16v2H15v1H14v3h1v1h3V30h1v1h1V29H19V28h1V27h1V26H19Zm-1,3H17v1H16V29H15V28h1V27h1v1h1Z"/><path class="va97-2" d="M21,30v1h1V29H21Z"/><rect class="va97-2" x="21" y="32" width="1" height="1"/><rect class="va97-2" x="21" y="27" width="1" height="1"/><rect class="va97-2" x="9" y="32" width="1" height="1"/><rect class="va97-2" x="19" y="32" width="1" height="1"/><path class="va97-2" d="M13,32H11v1h3V32Z"/><path class="va97-2" d="M17,32H15v1h3V32Z"/><path class="va97-2" d="M7,30v1H8V29H7Z"/><rect class="va97-2" x="7" y="32" width="1" height="1"/><rect class="va97-2" x="7" y="27" width="1" height="1"/><path class="va97-2" d="M9,27v1h1v1H9v2h1V30h1v1h2V30H12V29H11V28h1V27h2V26H13V24H12V23H11v2h1v1H11v1H10V26H8v1Z"/><path class="va97-3" d="M23,27H22v6h1V27Z"/><rect class="va97-3" x="21" y="26" width="1" height="1"/><path class="va97-3" d="M21,31V27H20v4H14V27H13v4H9V27H8v6H9V32H20v1h1V31Z"/><path class="va97-3" d="M20,26h1V25H19v1Z"/><path class="va97-3" d="M18,24v1h1V22H18v2Z"/><path class="va97-3" d="M15,25h1V24H15Z"/><path class="va97-3" d="M15,26V25H14v2h1Z"/><path class="va97-3" d="M14,24H13v1h1Z"/><path class="va97-4" d="M14,25h1V24h1V23H13v1h1Z"/><path class="va97-3" d="M11,24V22H10v3h1Z"/><path class="va97-3" d="M10,25H8v1h2Z"/><rect class="va97-3" x="7" y="26" width="1" height="1"/><path class="va97-3" d="M7,31V27H6v6H7V31Z"/><rect class="va97-3" x="20" y="15" width="1" height="1"/><path class="va97-3" d="M19,14v1h1V11H19v3Z"/><path class="va97-4" d="M12,19V18h5v1h2V16H18v1H16V16H15v1H14V16H13v1H11V16H10v3h2Z"/><rect class="va97-4" x="9" y="15" width="1" height="1"/><path class="va97-4" d="M16,19H15v2h1V20h1V19Z"/><path class="va97-4" d="M12,12v1h1v1h3V12h2v1h1V11H18V10H14v1H13V10H11v1H10v1Z"/><path class="va97-4" d="M14,20V19H12v1h1v1h1Z"/><rect class="va97-4" x="19" y="15" width="1" height="1"/><rect class="va97-4" x="14" y="15" width="1" height="1"/><rect class="va97-4" x="10" y="13" width="1" height="1"/><path class="va97-3" d="M19,17v2h1V16H19Z"/><rect class="va97-3" x="18" y="10" width="1" height="1"/><path class="va97-3" d="M18,20h1V19H18Z"/><path class="va97-3" d="M12,23v1h1V23h3v1h1V22h1V20H17v1H16v1H13V21H12V20H11v2h1Z"/><path class="va97-3" d="M15,10h3V9H15Z"/><path class="va97-3" d="M13,9H11v1h2Z"/><rect class="va97-3" x="10" y="10" width="1" height="1"/><path class="va97-3" d="M10,19v1h1V19Z"/><path class="va97-3" d="M10,14V11H9v4h1Z"/><path class="va97-3" d="M10,16H9v3h1V16Z"/><rect class="va97-3" x="8" y="15" width="1" height="1"/><rect class="va97-3" x="14" y="16" width="1" height="1"/><path class="va97-5" d="M10,30v1h1V30Z"/><path class="va97-5" d="M10,32v1h1V32Z"/><path class="va97-5" d="M12,28H11v1h1v1h1V27H12Z"/><polygon class="va97-5" points="10 27 11 27 11 26 12 26 12 25 11 25 10 25 10 26 10 27"/><path class="va97-5" d="M15,26h1V25H15Z"/><path class="va97-5" d="M13,25v1h1V25Z"/><polygon class="va97-5" points="17 27 16 27 16 28 15 28 15 29 16 29 16 30 17 30 17 29 18 29 18 28 17 28 17 27"/><polygon class="va97-5" points="17 25 17 26 18 26 18 27 19 27 19 26 19 25 18 25 17 25"/><path class="va97-5" d="M7,29H8V28H7Z"/><path class="va97-5" d="M10,28H9v1h1Z"/><path class="va97-5" d="M21,29h1V28H21Z"/><path class="va97-5" d="M19,29h1V28H19Z"/><path class="va97-5" d="M21,32h1V31H21Z"/><path class="va97-5" d="M7,32H8V31H7Z"/><path class="va97-5" d="M14,30v1h1V30Z"/><path class="va97-5" d="M14,32v1h1V32Z"/><path class="va97-5" d="M18,30v1h1V30Z"/><path class="va97-5" d="M18,32v1h1V32Z"/><path class="va97-5" d="M12,23V22H11v1Z"/><path class="va97-5" d="M17,23h1V22H17Z"/><path class="va97-6" d="M19,14V13H18v1Z"/><path class="va97-6" d="M18,12H16v1h2Z"/><path class="va97-6" d="M12,13V12H10v1h2Z"/><path class="va97-7" d="M17,19v1h1V19Z"/><rect class="va97-7" x="16" y="20" width="1" height="1"/><path class="va97-7" d="M15,20H14v1H13v1h3V21H15Z"/><path class="va97-7" d="M15,19h2V18H12v1h3Z"/><rect class="va97-7" x="12" y="20" width="1" height="1"/><path class="va97-7" d="M12,19H11v1h1Z"/><path class="va97-3" d="M14,20h1V19H14Z"/><path class="va97-8" d="M13,11h1V10h1V9h2V8H16V6H15V5H14V7H13v4Z"/><path class="va97-9" d="M11,14h2V13H11Z"/><path class="va97-9" d="M11,17h2V16H11Z"/><path class="va97-9" d="M10,14v2h1V14Z"/><path class="va97-3" d="M11,14v2h2V14Z"/><path class="va97-9" d="M19,14H18v2h1V14Z"/><path class="va97-9" d="M18,13H16v1h2Z"/><path class="va97-9" d="M16,17h2V16H16Z"/><path class="va97-9" d="M13,14v2h1V15h1v1h1V14Z"/><path class="va97-3" d="M16,14v2h2V14Z"/></svg>