<svg xmlns="http://www.w3.org/2000/svg" viewBox="0 0 29 33"><defs><style>polygon,rect,path{shape-rendering:crispedges;}.ib36-1{fill:#b4bd09;}.ib36-2{fill:#6d3e35;}.ib36-3{fill:#000000;}.ib36-4{fill:#4922aa;}.ib36-5{fill:#4922aa;}.ib36-6{fill:#004a77;}.ib36-7{fill:#ffffff;}.ib36-8{fill:#eaeaea;}</style></defs><path class="ib36-1" d="M0,33H6V26H5V20H6V19H9V17H8V15H7V14H8V12H7V10H8v1H9V9H8V8h2V9h1V8h1V7h1V8h1V7h2V8h1V7h1V8h1V7h1V8H19V9H18v1h2V9h1v2H20v1h2v1H20v1h2v1H21v2H20v2H19v1H18v1H17v3h2v1h2v1h1v1h1v6h6V0H0Z"/><rect class="ib36-1" x="9" y="24" width="1" height="1"/><path class="ib36-1" d="M12,21H11v3h1V21Z"/><path class="ib36-2" d="M8,26H9V25H6v1H7v7H8V26Z"/><path class="ib36-3" d="M7,26H6v7H7V26Z"/><path class="ib36-3" d="M23,27H22v6h1V27Z"/><path class="ib36-2" d="M22,27H21v6h1V27Z"/><rect class="ib36-3" x="21" y="26" width="1" height="1"/><path class="ib36-3" d="M21,27H20v6h1V27Z"/><path class="ib36-2" d="M20,27h1V26H19V25H17V24H16V23H13v1H12v1H10v1H9v7h5V29h1v4h5V27Zm-8,2H11V28h1Zm6,0H17V28h1Z"/><path class="ib36-3" d="M20,26h1V25H19v1Z"/><rect class="ib36-3" x="17" y="28" width="1" height="1"/><path class="ib36-3" d="M18,25h1V24H17v1Z"/><path class="ib36-3" d="M15,29H14v4h1V29Z"/><rect class="ib36-3" x="11" y="28" width="1" height="1"/><path class="ib36-3" d="M10,24v1h2V24H10Z"/><path class="ib36-3" d="M9,26H8v7H9V26Z"/><rect class="ib36-2" x="9" y="15" width="1" height="1"/><rect class="ib36-2" x="19" y="15" width="1" height="1"/><rect class="ib36-2" x="15" y="10" width="1" height="1"/><path class="ib36-2" d="M18,17H16V16H15v1H14V16H13v1H11V16H10v2h1v1h1v1h1V19h3V18h1v1h1V18h1V16H18Z"/><rect class="ib36-2" x="14" y="15" width="1" height="1"/><path class="ib36-2" d="M14,14h4V13H16V12H14v1H13v1Z"/><rect class="ib36-2" x="12" y="12" width="1" height="1"/><rect class="ib36-2" x="16" y="19" width="1" height="1"/><rect class="ib36-2" x="11" y="11" width="1" height="1"/><path class="ib36-2" d="M13,21h3V20H13Z"/><path class="ib36-3" d="M12,22v2h1V22Z"/><path class="ib36-3" d="M16,23v1h1V22H16Z"/><rect class="ib36-3" x="14" y="16" width="1" height="1"/><rect class="ib36-4" x="18" y="13" width="1" height="1"/><path class="ib36-4" d="M17,13V12H16v1Z"/><rect class="ib36-4" x="12" y="13" width="1" height="1"/><rect class="ib36-4" x="11" y="12" width="1" height="1"/><path class="ib36-5" d="M10,20h1v1h1v1h1v1h3V22h1V21h1V20h1V19h1V16H19v2H18v1H17v1H16v1H13V20H12V19H11V18H10V16H9v3h1Z"/><rect class="ib36-3" x="13" y="19" width="3" height="1"/><rect class="ib36-3" x="16" y="18" width="1" height="1"/><path class="ib36-6" d="M20,16v1h1V15h1V14H20v2Z"/><path class="ib36-6" d="M9,15V13h1v1h2V13H11V11h1v1h1v1h1V12h3v1h2v1h1V13h2V12H20V11h1V9H20v1H18V9h1V8H18V7H17V8H16V7H14V8H13V7H12V8H11V9H10V8H8V9H9v2H8V10H7v2H8v2H7v1H8v2H9V15Zm6-5h1v1H15Z"/><rect class="ib36-6" x="19" y="7" width="1" height="1"/><path class="ib36-3" d="M18,14H10V13H9v2h1v1h1v1h2V16h1V15h1v1h1v1h2V16h1V15h1V14H18Z"/><path class="ib36-3" d="M5,25v1H6V25Z"/><rect class="ib36-3" x="9" y="25" width="1" height="1"/><path class="ib36-3" d="M6,21H5v1H6Z"/><path class="ib36-3" d="M9,21H7v1H9Z"/><path class="ib36-7" d="M6,22H5v1H6Z"/><path class="ib36-7" d="M7,25H8V24H7V23H6v1H5v1H7Z"/><path class="ib36-8" d="M8,24v1H9V24Z"/><path class="ib36-8" d="M9,20v1h1v2H9v1h2V20H10V19H6v1H9Z"/><rect class="ib36-3" x="6" y="22" width="1" height="1"/><rect class="ib36-3" x="7" y="23" width="1" height="1"/><path class="ib36-3" d="M6,23H5v1H6Z"/><path class="ib36-7" d="M6,22H7V21H9V20H5v1H6Z"/><path class="ib36-7" d="M9,23h1V21H9v1H7v1H8v1H9Z"/></svg>