<svg xmlns="http://www.w3.org/2000/svg" viewBox="0 0 29 33"><defs><style>polygon,rect,path{shape-rendering:crispedges;}.ca199-1{fill:#db5a8e;}.ca199-2{fill:#000000;}.ca199-3{fill:#efcaaf;}.ca199-4{fill:#db5800;}.ca199-5{fill:#841f00;}.ca199-6{fill:#ffffff;}.ca199-7{fill:#474718;}.ca199-8{fill:#6f7032;}</style></defs><path class="ca199-1" d="M6,32V27H7V26H8V25h2V24h2V22H11V21H10V20H9V17H8V15H9V10h1V9h1V8h7V9h1v1h1v5h1v2H20v3H19v1H18v1H17v2h2v1h2v1h1v1h1v6h6V0H0V33H6Z"/><path class="ca199-2" d="M23,27H22v6h1V27Z"/><rect class="ca199-2" x="21" y="26" width="1" height="1"/><path class="ca199-3" d="M22,27H21v6h1V27Z"/><rect class="ca199-3" x="20" y="26" width="1" height="1"/><path class="ca199-2" d="M21,27H20v6h1V27Z"/><path class="ca199-2" d="M20,26h1V25H19v1Z"/><rect class="ca199-4" x="16" y="30" width="1" height="1"/><path class="ca199-4" d="M20,27V26H19V25H18v1H17v1H16v1h1v1h1v1h1v3h1V27Z"/><path class="ca199-4" d="M16,32H12v1h5V32Z"/><path class="ca199-4" d="M10,30h1V29h1V28h1V27H12V26H11V25H10v1H9v7h1V30Z"/><rect class="ca199-4" x="12" y="30" width="1" height="1"/><rect class="ca199-2" x="16" y="26" width="1" height="1"/><path class="ca199-2" d="M13,27v1h3V27H13Z"/><path class="ca199-3" d="M15,26H13v1h3V26Z"/><rect class="ca199-3" x="16" y="25" width="1" height="1"/><rect class="ca199-3" x="12" y="25" width="1" height="1"/><rect class="ca199-2" x="12" y="26" width="1" height="1"/><path class="ca199-2" d="M11,26h1V25h1v1h3V25h1v1h1V25h1V24H17V22h1V21h1V20h1V17h1V15H20V13H9v2H8v2H9v3h1v1h1v1h1v2H10v1h1Zm5-11h2V14h1v2H16Zm0,5v1H13V20Zm-5-4H10V15h2V14h1v2Z"/><path class="ca199-2" d="M10,26V25H8v1h2Z"/><path class="ca199-3" d="M9,27V26H8v1Z"/><path class="ca199-2" d="M9,27H8v6H9V27Z"/><rect class="ca199-2" x="7" y="26" width="1" height="1"/><path class="ca199-3" d="M8,27H7v6H8V27Z"/><path class="ca199-2" d="M7,27H6v6H7V27Z"/><path class="ca199-5" d="M19,30H18V29H17V28H12v1H11v1H10v3h2V32h5v1h2V30Zm-6,1H12V30h1Zm4,0H16V30h1Z"/><rect class="ca199-3" x="13" y="20" width="3" height="1"/><path class="ca199-3" d="M13,15H10v1h3Z"/><path class="ca199-3" d="M19,16V15H16v1h3Z"/><path class="ca199-6" d="M19,14H18v1h1Z"/><path class="ca199-6" d="M13,14H12v1h1Z"/><path class="ca199-7" d="M19,12v1h1V11H19Z"/><path class="ca199-8" d="M10,12v1h1V11h1v2h1V11h1v2h1V11h1v2h1V11h1v2h1V11h1V10H19V9H18V8H11V9H10v1H9v1h1Z"/><path class="ca199-7" d="M17,11v2h1V11Z"/><path class="ca199-7" d="M15,11v2h1V11Z"/><path class="ca199-7" d="M13,11v2h1V11Z"/><path class="ca199-7" d="M11,11v2h1V11Z"/><path class="ca199-7" d="M10,12V11H9v2h1Z"/></svg>