<svg xmlns="http://www.w3.org/2000/svg" viewBox="0 0 29 33"><defs><style>polygon,rect,path{shape-rendering:crispedges;}polygon,rect,path{shape-rendering:crispedges;}.kb96-1{fill:#a9a9a9;}.kb96-2{fill:#bbbbbb;}.kb96-3{fill:#04263a;}.kb96-4{fill:#0068f5;}.kb96-5{fill:#000000;}.kb96-6{fill:#009b97;}.kb96-7{fill:#9b8100;}.kb96-8{fill:#b2622b;}.kb96-9{fill:#317f03;}.kb96-10{fill:#317f03;}.kb96-11{fill:#004a77;}.kb96-12{fill:#ffffff;}.kb96-13{fill:#fad000;}</style></defs><polygon class="kb96-1" points="28 25 27 25 27 26 28 26 29 26 29 25 29 24 28 24 28 25"/><path class="kb96-5" d="M2,23H3V22H8V21h3V20H10V19H9V17H8V15H7V14H9V13H7V12H9V11H8V9H9v1h2V9H10V8H9V7h1V8h1V7h1V8h1V7h2V8h1V7h1V8h1V9h1V8h2V9H20v2h1V10h1v2H21v2h2V9H22V8h1V7H22V6H21V5H20V3H19V0H0V23H2Z"/><path class="kb96-5" d="M21,15v2H20v2H19v1H18v1h3V20h1V15Z"/><polygon class="kb96-5" points="28 3 27 3 27 4 27 5 27 6 27 7 26 7 25 7 24 7 24 8 25 8 25 9 24 9 24 14 23 14 23 20 22 20 22 21 23 21 23 22 24 22 25 22 26 22 26 23 27 23 28 23 29 23 29 22 29 21 29 20 29 19 29 18 29 17 29 16 29 15 29 14 29 13 29 12 29 11 29 10 29 9 29 8 29 7 29 6 29 5 29 4 29 3 29 2 29 1 29 0 28 0 28 3"/><polygon class="kb96-1" points="27 32 26 32 26 31 25 31 24 31 23 31 23 32 23 33 24 33 25 33 26 33 27 33 28 33 28 32 27 32"/><polygon class="kb96-1" points="27 27 26 27 25 27 25 28 24 28 24 29 24 30 25 30 26 30 27 30 28 30 28 31 29 31 29 30 29 29 29 28 29 27 28 27 27 27"/><path class="kb96-2" d="M8,24v1h2V24H8Z"/><path class="kb96-2" d="M11,23H10v1h2V23Z"/><path class="kb96-2" d="M10,22h2V21H8v1h2Z"/><path class="kb96-2" d="M17,22h4V21H17Z"/><path class="kb96-2" d="M19,24v1h2V24H19Z"/><path class="kb96-2" d="M22,32H21v1h2V32Z"/><path class="kb96-2" d="M28,30H24v1h2v1h2v1h1V31H28Z"/><path class="kb96-2" d="M25,23h1V22H24v1Z"/><path class="kb96-2" d="M4,32V31H6V30H5V29H6V28H5V27H7V26H8V25H6V24H5V23H7V22H3v1H1v1H4v1H5v1H2V25H1V24H0v2H1v1H3v1H4v2H2v1H0v2H3V32Z"/><path class="kb96-2" d="M27,23v1H26v1H25v1H24v2h1V27h4V26H27V25h1V24h1V23H27Z"/><path class="kb96-2" d="M18,23H17v1h2V23Z"/><rect class="kb96-3" x="26" y="6" width="1" height="1"/><rect class="kb96-4" x="26" y="5" width="1" height="1"/><rect class="kb96-4" x="25" y="6" width="1" height="1"/><path class="kb96-1" d="M24,23v3h1V25h1V24h1V23H24Z"/><path class="kb96-1" d="M20,22H17v1h2v1h2V22Z"/><path class="kb96-1" d="M5,28H6V27H5Z"/><polygon class="kb96-1" points="11 23 12 23 12 22 11 22 10 22 9 22 8 22 7 22 7 23 6 23 5 23 5 24 6 24 6 25 7 25 8 25 8 24 9 24 10 24 10 23 11 23"/><polygon class="kb96-1" points="6 31 5 31 4 31 4 32 3 32 3 33 4 33 5 33 6 33 6 32 6 31"/><rect class="kb96-1" x="5" y="29" width="1" height="1"/><polygon class="kb96-1" points="2 31 2 30 3 30 4 30 4 29 4 28 3 28 3 27 2 27 1 27 1 26 0 26 0 27 0 28 0 29 0 30 0 31 1 31 2 31"/><polygon class="kb96-1" points="2 25 2 26 3 26 4 26 5 26 5 25 4 25 4 24 3 24 2 24 1 24 1 25 2 25"/><rect class="kb96-1" y="23" width="1" height="1"/><path class="kb96-5" d="M23,24v7h1V22H23v2Z"/><path class="kb96-5" d="M7,29V27H6v6H7V29Z"/><path class="kb96-6" d="M8,27H7v6H8V27Z"/><rect class="kb96-5" x="7" y="26" width="1" height="1"/><path class="kb96-5" d="M9,31V27H8v6H9V31Z"/><path class="kb96-6" d="M11,31V25H10v1H8v1H9v6h2V31Z"/><path class="kb96-5" d="M8,26h2V25H8Z"/><path class="kb96-5" d="M12,26h1V25H12V24H10v1h1v8h1V26Z"/><path class="kb96-7" d="M17,31V26H16v1H13V26H12v7h5V31Z"/><path class="kb96-5" d="M14,26H13v1h3V26H14Z"/><path class="kb96-8" d="M16,23H13v1H12v1h1v1h3V25h1V24H16Z"/><path class="kb96-5" d="M18,30V25h1V24H17v1H16v1h1v7h1V30Z"/><path class="kb96-6" d="M20,31V27h1V26H19V25H18v8h2Z"/><path class="kb96-5" d="M22,32h1V31H22V23H21v2H19v1h2v1H20v6h1V32Z"/><path class="kb96-6" d="M23,29V24H22v7h1V29Z"/><rect class="kb96-5" x="19" y="13" width="1" height="1"/><rect class="kb96-8" x="10" y="13" width="1" height="1"/><path class="kb96-8" d="M18,11H17v1H16v1h2Z"/><path class="kb96-8" d="M13,14h3V13H15V12H13v2Z"/><path class="kb96-8" d="M12,21h1v1h3V21h1V20h1V19h1V16H18v1H16V16H15v1H14V16H13v1H11V16H10v3h1v1h1Zm0-3h5v1H16v1H13V19H12Z"/><rect class="kb96-8" x="19" y="15" width="1" height="1"/><rect class="kb96-8" x="13" y="10" width="1" height="1"/><rect class="kb96-8" x="14" y="15" width="1" height="1"/><rect class="kb96-8" x="9" y="15" width="1" height="1"/><path class="kb96-5" d="M19,16v3h1V16Z"/><rect class="kb96-5" x="18" y="19" width="1" height="1"/><rect class="kb96-5" x="17" y="20" width="1" height="1"/><path class="kb96-5" d="M17,22V21H16v1H13V21H12v3h1V23h3v1h1V22Z"/><rect class="kb96-5" x="11" y="20" width="1" height="1"/><rect class="kb96-5" x="10" y="19" width="1" height="1"/><path class="kb96-5" d="M10,16H9v3h1V16Z"/><rect class="kb96-5" x="14" y="16" width="1" height="1"/><path class="kb96-9" d="M13,12H12v1h1Z"/><path class="kb96-10" d="M16,19h1V18H12v1h4Z"/><path class="kb96-5" d="M13,20h3V19H13Z"/><path class="kb96-11" d="M9,15h1V13h2V12h3v1h1V12h1V11h1v3h1V13h1v1H19v1h1v2h1V15h1V14H21V12h1V10H21v1H20V9h1V8H19V9H18V8H17V7H16V8H15V7H13V8H12V7H11V8H10V9h1v1H9V9H8v2H9v1H7v1H9v1H7v1H8v2H9V15Zm4-5h1v1H13Z"/><rect class="kb96-11" x="9" y="7" width="1" height="1"/><path class="kb96-12" d="M12,14h1V13H11v1Z"/><path class="kb96-12" d="M11,17h2V16H11Z"/><path class="kb96-12" d="M10,14v2h1V14Z"/><path class="kb96-5" d="M12,14H11v2h2V14Z"/><path class="kb96-12" d="M19,14H18v2h1V14Z"/><path class="kb96-12" d="M17,14h1V13H16v1Z"/><path class="kb96-12" d="M16,17h2V16H16Z"/><path class="kb96-12" d="M13,14v2h1V15h1v1h1V14Z"/><path class="kb96-5" d="M17,14H16v2h2V14Z"/><path class="kb96-12" d="M23,9v5h1V8H23Z"/><path class="kb96-12" d="M22,15v5h1V14H22Z"/><path class="kb96-12" d="M21,21v1h1V20H21Z"/><rect class="kb96-13" x="22" y="8" width="1" height="1"/><path class="kb96-13" d="M25,9V8H24V9Z"/><polygon class="kb96-13" points="20 3 20 4 20 5 21 5 21 6 22 6 22 7 23 7 23 8 24 8 24 7 25 7 25 6 26 6 26 5 27 5 27 4 27 3 28 3 28 0 27 0 26 0 25 0 24 0 23 0 22 0 21 0 20 0 19 0 19 3 20 3"/><path class="kb96-8" d="M21,22v1h1v1h1V22H21Z"/><path class="kb96-5" d="M23,22V21H22v1Z"/></svg>