<svg xmlns="http://www.w3.org/2000/svg" viewBox="0 0 29 33"><defs><style>polygon,rect,path{shape-rendering:crispedges;}.da248-1{fill:#6b4f99;}.da248-2{fill:#000000;}.da248-3{fill:#95f9ed;}.da248-4{fill:#ce8452;}.da248-5{fill:#b23b00;}.da248-6{fill:#663228;}.da248-7{fill:#004a77;}.da248-8{fill:#ffffff;}.da248-9{fill:#0068ff;}.da248-10{fill:#ff1f4a;}</style></defs><path class="da248-1" d="M0,33H6V27H7V26H8V25h2V24h2V21H9V20H8V19H9V16H8V15H9V11h1V10h1V9h2V7h1V6h2V5h2V6H17V7h1V9h1v2h1v4h1v1H20v3h1v1H20v1H17v3h2v1h1V24h1V23h1v1h1v9h6V0H0Z"/><path class="da248-2" d="M9,27H8v2H7V27H6v6H7V30H8v3H9V27Z"/><rect class="da248-2" x="7" y="26" width="1" height="1"/><path class="da248-2" d="M10,25H8v1h2Z"/><path class="da248-2" d="M12,24H10v1h2Z"/><path class="da248-2" d="M13,23h3v1h1V21H16v1H13V21H12v3h1Z"/><path class="da248-2" d="M18,25h1V24H17v1Z"/><path class="da248-2" d="M21,27H20v6h1V27Z"/><path class="da248-2" d="M23,24H22v9h1V24Z"/><path class="da248-3" d="M20,27H19V25H17v1H16v1H13V26H12V25H10v1H8v1H9v6H20V27Z"/><path class="da248-3" d="M8,29V27H7v2Z"/><path class="da248-4" d="M22,24H21v1H20v2h1v6h1V24Z"/><path class="da248-4" d="M13,25v1h3V25h1V24H16V23H13v1H12v1Z"/><path class="da248-2" d="M13,26v1h3V26H13Z"/><path class="da248-4" d="M8,30H7v3H8V30Z"/><rect class="da248-2" x="16" y="25" width="1" height="1"/><rect class="da248-2" x="12" y="25" width="1" height="1"/><rect class="da248-2" x="20" y="15" width="1" height="1"/><path class="da248-2" d="M19,13h1V11H19v2Z"/><path class="da248-4" d="M10,13h1V12h2v1h1v1h1V13h2V12h2V11H18V10H15v1H13V10H11v1H10v2Z"/><rect class="da248-4" x="14" y="15" width="1" height="1"/><path class="da248-4" d="M13,22h3V21h1V19h1V18h1V16H15v1H14V16H10v2h1v1h1V18h1v1h3v1H13V19H12v2h1Z"/><path class="da248-2" d="M18,11h1V10H18Z"/><path class="da248-2" d="M17,20v1h1V20Z"/><path class="da248-2" d="M16,10h2V9H16Z"/><path class="da248-2" d="M13,9H11v1h2Z"/><path class="da248-2" d="M11,20v1h1V20Z"/><rect class="da248-2" x="10" y="10" width="1" height="1"/><path class="da248-2" d="M10,12V11H9v2h1Z"/><rect class="da248-2" x="8" y="15" width="1" height="1"/><rect class="da248-2" x="14" y="16" width="1" height="1"/><path class="da248-5" d="M11,12v1h2V12Z"/><path class="da248-5" d="M17,12v1h2V12Z"/><path class="da248-6" d="M19,17v1H18v1H17v1h1v1h2V20h1V19H20V16H19Z"/><path class="da248-6" d="M12,20V19H11V18H10V16H9v3H8v1H9v1h2V20Z"/><rect class="da248-2" x="13" y="19" width="3" height="1"/><rect class="da248-2" x="12" y="18" width="1" height="1"/><path class="da248-2" d="M20,27V25H19v2Z"/><rect class="da248-2" x="20" y="24" width="1" height="1"/><rect class="da248-2" x="21" y="23" width="1" height="1"/><path class="da248-7" d="M13,11h2V10h1V9h2V7H17V6h1V5H16V6H14V7H13v4Z"/><path class="da248-7" d="M19,10V9H18v1Z"/><path class="da248-8" d="M11,16h3V15h1v1h5V13H15v1H14V13H9v3h2Zm5-2h3v1H16Zm-6,0h3v1H10Z"/><path class="da248-9" d="M19,15V14H16v1h3Z"/><path class="da248-10" d="M13,15V14H10v1h3Z"/><rect class="da248-7" x="18" y="9" width="1" height="1"></rect></svg>