<svg xmlns="http://www.w3.org/2000/svg" viewBox="0 0 29 33"><defs><style>polygon,rect,path{shape-rendering:crispedges;}.cb223-1{fill:#b4bd09;}.cb223-2{fill:#000000;}.cb223-3{fill:#333333;}.cb223-4{fill:#ffffff;}.cb223-5{fill:#e8b795;}.cb223-6{fill:#af8423;}.cb223-7{fill:#99004d;}.cb223-8{fill:#f9e100;}.cb223-9{fill:#0068ff;}</style></defs><path class="cb223-1" d="M6,32V27H7V26H8V25h2V24h1V23h1V21H11V20H10V19H9V16H8V15H9V10h1V9h1V8h7V9h1v1h1v5h1v1H20v3H19v1H18v1H17v2h1v1h1v1h2v1h1v1h1v6h6V0H0V33H6Z"/><path class="cb223-2" d="M23,27H22v6h1V27Z"/><path class="cb223-3" d="M22,27H21v6h1V27Z"/><rect class="cb223-2" x="21" y="26" width="1" height="1"/><path class="cb223-2" d="M21,27H20v6h1V27Z"/><path class="cb223-3" d="M20,27h1V26H19V25H18v4H17v4h3V27Z"/><path class="cb223-2" d="M20,26h1V25H19v1Z"/><path class="cb223-2" d="M17,29H16v4h1V29Z"/><rect class="cb223-4" x="16" y="24" width="1" height="1"/><path class="cb223-4" d="M16,29h1V26H16V25H13v1H12v3h1v4h1V32h1v1h1V29Zm-1,2H14V30h1Zm0-2H14V28h1Zm0-2H14V26h1Z"/><rect class="cb223-4" x="15" y="23" width="1" height="1"/><rect class="cb223-2" x="14" y="32" width="1" height="1"/><rect class="cb223-2" x="14" y="30" width="1" height="1"/><rect class="cb223-2" x="14" y="28" width="1" height="1"/><rect class="cb223-2" x="14" y="26" width="1" height="1"/><path class="cb223-2" d="M15,24V23H14v1H13v1h3V24Z"/><rect class="cb223-4" x="13" y="23" width="1" height="1"/><path class="cb223-2" d="M13,29H12v4h1V29Z"/><rect class="cb223-4" x="12" y="24" width="1" height="1"/><path class="cb223-3" d="M12,29H11V25H10v1H8v1H9v6h3V29Z"/><path class="cb223-2" d="M11,26v3h1V26h1V25H12V24h1V22H12v1H11v1H10v1h1Z"/><path class="cb223-2" d="M10,25H8v1h2Z"/><path class="cb223-2" d="M9,27H8v6H9V27Z"/><path class="cb223-3" d="M8,27H7v6H8V27Z"/><rect class="cb223-2" x="7" y="26" width="1" height="1"/><path class="cb223-2" d="M7,27H6v6H7V27Z"/><rect class="cb223-2" x="20" y="15" width="1" height="1"/><path class="cb223-5" d="M13,21h3V20H13Z"/><rect class="cb223-5" x="12" y="19" width="1" height="1"/><rect class="cb223-5" x="14" y="13" width="1" height="1"/><path class="cb223-5" d="M16,10H12v1h5V10Z"/><rect class="cb223-5" x="19" y="15" width="1" height="1"/><path class="cb223-5" d="M16,16V15H13v1H10v2h1v1h1V18h1v1h3v1h1V19h1V18h1V16H16Zm-1,1H14V16h1Z"/><rect class="cb223-5" x="9" y="15" width="1" height="1"/><path class="cb223-2" d="M16,23v1h1v1H16v1h1v3h1V25h1V24H18V23H17V22H16Z"/><rect class="cb223-2" x="8" y="15" width="1" height="1"/><rect class="cb223-2" x="14" y="16" width="1" height="1"/><path class="cb223-6" d="M13,23h3V22h1V21h1V20h1V19h1V16H19v2H18v1H17v1H16v1H13V20H12V19H11V18H10V16H9v3h1v1h1v1h1v1h1Z"/><rect class="cb223-2" x="13" y="19" width="3" height="1"/><rect class="cb223-2" x="12" y="18" width="1" height="1"/><path class="cb223-7" d="M19,14h1V13H19Z"/><path class="cb223-7" d="M12,11V10h5v1h3V10H19V9H18V8H11V9H10v1H9v1h3Z"/><path class="cb223-7" d="M10,13H9v1h1Z"/><path class="cb223-8" d="M13,16V15h1V14H10v2h3Z"/><path class="cb223-8" d="M19,14H15v1h1v1h3V14Z"/><path class="cb223-2" d="M16,14h3V13H15v1Z"/><path class="cb223-2" d="M14,14V13H10v1h4Z"/><path class="cb223-2" d="M19,15h1V14H19Z"/><path class="cb223-2" d="M10,14H9v1h1Z"/><path class="cb223-2" d="M14,15h1V14H14Z"/><path class="cb223-4" d="M20,12V11H9v1H20Z"/><path class="cb223-9" d="M11,13h9V12H9v1h2Z"/></svg>