<svg xmlns="http://www.w3.org/2000/svg" viewBox="0 0 29 33"><defs><style>polygon,rect,path{shape-rendering:crispedges;}.pa30-1{fill:#d4a122;}.pa30-2{fill:#000000;}.pa30-3{fill:#cc2f76;}.pa30-4{fill:#6d3e35;}.pa30-5{fill:#cc2f76;}.pa30-6{fill:#8e4717;}.pa30-7{fill:#8e4717;}.pa30-8{fill:#0068ff;}.pa30-9{fill:#00997c;}.pa30-10{fill:#00e2b7;}.pa30-11{fill:#00755f;}.pa30-12{fill:#ffffff;}</style></defs><path class="pa30-1" d="M19,16h0v2h0V16Z"/><rect class="pa30-1" x="14" y="17" width="1"/><path class="pa30-1" d="M20,23V20H19v1H18v1h1v1H18v1h1v1h2V23Z"/><path class="pa30-1" d="M0,0V33H6V27H7V26H8V25h2V24h1V23H10V22h1V21H10V20H9V16H8V14H9V12H8V11H9V10h1V9h2V8h5V9h2v1h1v1h1v1H20v4h0V14h1v2H20v2h1V17h3v1h1V17h1v1H25v5H24v8H23v1H21v1h8V0ZM8,13H7V12H8Zm14,0H21V12h1Z"/><path class="pa30-2" d="M23,26v5h1V25H23Z"/><path class="pa30-2" d="M7,27H6v6H7V27Z"/><path class="pa30-3" d="M8,27H7v6H8V27Z"/><rect class="pa30-2" x="7" y="26" width="1" height="1"/><path class="pa30-2" d="M9,27H8v6H9V27Z"/><path class="pa30-3" d="M20,27h1V26H19V25H18V24H16v1h1v3h2v1H17v2h1V30h1v2H16V25H13v3h2v4H12V25h1V24H11v1H10v1H8v1H9v6H20V27Zm-9,2v3H10V28h1Z"/><path class="pa30-2" d="M10,25H8v1h2Z"/><rect class="pa30-2" x="10" y="24" width="1" height="1"/><rect class="pa30-2" x="10" y="22" width="1" height="1"/><rect class="pa30-3" x="11" y="22" width="1" height="1"/><path class="pa30-2" d="M13,23V22H12v1H11v1h2Z"/><path class="pa30-2" d="M13,24v1h3V24H13Z"/><path class="pa30-4" d="M15,23H13v1h3V23Z"/><path class="pa30-2" d="M17,23V22H16v2h2V23Z"/><rect class="pa30-3" x="17" y="22" width="1" height="1"/><rect class="pa30-2" x="18" y="24" width="1" height="1"/><rect class="pa30-2" x="18" y="22" width="1" height="1"/><path class="pa30-2" d="M22,32h1V31H22V25H19v1h2v1H20v6h1V32Z"/><path class="pa30-3" d="M23,26V25H22v6h1V26Z"/><path class="pa30-3" d="M14,31V29H13v2Z"/><path class="pa30-5" d="M14,29v2H13V30H12v2h3V28H13v1Z"/><path class="pa30-5" d="M10,29v3h1V28H10Z"/><path class="pa30-5" d="M18,29h1V28H17v1Z"/><path class="pa30-5" d="M16,31v1h3V30H18v1H17V30H16Z"/><path class="pa30-2" d="M12,26v4h1V25H12Z"/><path class="pa30-2" d="M16,30h1V25H16v5Z"/><path class="pa30-2" d="M21,15H20v1h1Z"/><path class="pa30-4" d="M10,16v2h1v1h1V18h2v1h1V18h2v1h1V18h1V16h1V15H18v1H16V15H15V14H14v1H13v1H11V15H9v1Zm4,1V16h1v1H14Z"/><rect class="pa30-4" x="15" y="20" width="1" height="1"/><path class="pa30-4" d="M15,12V11H14v1H13v1h4V12Z"/><rect class="pa30-4" x="18" y="13" width="1" height="1"/><rect class="pa30-4" x="10" y="13" width="1"/><rect class="pa30-4" x="13" y="20" width="1" height="1"/><rect class="pa30-4" x="10" y="14" width="1"/><polygon class="pa30-2" points="15 16 15 16 14 16 14 17 15 17 15 16"/><rect class="pa30-6" x="10" y="13" width="1" height="1"/><rect class="pa30-6" x="12" y="12" width="1" height="1"/><rect class="pa30-6" x="18" y="13" width="1"/><path class="pa30-7" d="M19,16v1h1V16H19Z"/><path class="pa30-7" d="M13,22v1h3V22h2V21h1V20h1V18H18v1H17V18H15v1h1v2H15V20H14v1H13V19h1V18H12v1H11V18H10V16H9v4h1v1h1v1h2Z"/><path class="pa30-2" d="M13,19v1h3V19H13Z"/><rect class="pa30-8" x="21" y="12" width="1" height="1"/><path class="pa30-8" d="M21,14H20v1h1Z"/><path class="pa30-8" d="M9,14h1V13h2V12h2V11h1v1h2v1h2v1h1V12h1V11H20V10H19V9H17V8H12V9H10v1H9v1H8v1H9v2H8v1H9Z"/><rect class="pa30-8" x="7" y="12" width="1" height="1"/><path class="pa30-2" d="M10,15h1v1h2V15h1V14h1v1h1v1h2V15h2V14H18V13H11v1H9v1H8v1H9V15Z"/><path class="pa30-9" d="M21,23V21H20v2Z"/><path class="pa30-2" d="M22,20V18H21v2Z"/><path class="pa30-2" d="M23,19v1h1V18H23Z"/><rect class="pa30-2" x="22" y="21" width="1" height="1"/><path class="pa30-10" d="M23,22H21v1h3V22Z"/><path class="pa30-10" d="M20,21h2V20H21V18H20v3Z"/><path class="pa30-10" d="M22,19v1h1V18h1V17H21v1h1Z"/><path class="pa30-10" d="M23,20v1h2V18H24v2Z"/><path class="pa30-11" d="M21,23v2h3V23H21Z"/><path class="pa30-9" d="M24,21.222V23h1V21H24Z"/><path class="pa30-10" d="M19,18h1V17H19Z"/><rect class="pa30-10" x="25" y="17" width="1" height="1"/><rect class="pa30-9" x="22" y="20" width="1" height="1"/><path class="pa30-12" d="M22,22V21H21v1Z"/><path class="pa30-12" d="M24,22V21H23v1Z"/></svg>