<svg xmlns="http://www.w3.org/2000/svg" viewBox="0 0 29 33"><defs><style>polygon,rect,path{shape-rendering:crispedges;}.ma291-1{fill:#6b4f99;}.ma291-2{fill:#000000;}.ma291-3{fill:#4fdb7d;}.ma291-4{fill:#68aaad;}.ma291-5{fill:#6d3e35;}.ma291-6{fill:#893a1f;}.ma291-7{fill:#893a1f;}.ma291-8{fill:#ffffff;}.ma291-9{fill:#e70059;}.ma291-10{fill:#cc3232;}</style></defs><path class="ma291-1" d="M0,33H6V24H7V23H8v1H9v1h1V24h2V22H11V21H10V20H9V16H8V15H9V11h1V9h1V8h7V9h1v1h1v5h1v1H20v4H19v1H18v1H17v2h2v1h2v1h1v1h1v6h6V0H0Z"/><path class="ma291-2" d="M23,27H22v6h1V27Z"/><path class="ma291-3" d="M22,27H21v6h1V27Z"/><rect class="ma291-2" x="21" y="26" width="1" height="1"/><path class="ma291-2" d="M21,27H20v6h1V27Z"/><path class="ma291-3" d="M20,27h1V26H19V25H18v8h2V27Z"/><path class="ma291-2" d="M20,26h1V25H19v1Z"/><path class="ma291-2" d="M18,25h1V24H17v1H16v1h1v7h1V25Z"/><path class="ma291-4" d="M17,26H16v1H13V26H12v7h5V26Z"/><path class="ma291-2" d="M16,24h1V23H16Z"/><path class="ma291-2" d="M13,26v1h3V26H13Z"/><path class="ma291-5" d="M13,25v1h3V25h1V24H16V23H13v1H12v1Z"/><path class="ma291-2" d="M13,23H12v1h1Z"/><path class="ma291-2" d="M12,26h1V25H12V24H10v1h1v8h1V26Z"/><path class="ma291-3" d="M11,25H10v2H9v6h2V25Z"/><path class="ma291-2" d="M9,27H8v6H9V27Z"/><path class="ma291-3" d="M8,27H7v6H8V27Z"/><path class="ma291-2" d="M7,27V24H6v9H7V27Z"/><rect class="ma291-2" x="20" y="15" width="1" height="1"/><path class="ma291-2" d="M19,12v3h1V11H19Z"/><rect class="ma291-5" x="18" y="16" width="1" height="1"/><rect class="ma291-5" x="19" y="15" width="1" height="1"/><path class="ma291-5" d="M16,16H15v1H14V16H13v1H11v1h7V17H16Z"/><rect class="ma291-5" x="10" y="16" width="1" height="1"/><rect class="ma291-5" x="14" y="15" width="1" height="1"/><rect class="ma291-5" x="10" y="13" width="1" height="1"/><path class="ma291-5" d="M12,12v1h1v1h3V12h2v1h1V11H18V10H17v1H16V10H15v1H14V10H13v1H12V10H11v1H10v1Z"/><rect class="ma291-5" x="9" y="15" width="1" height="1"/><rect class="ma291-2" x="18" y="10" width="1" height="1"/><rect class="ma291-2" x="17" y="9" width="1" height="1"/><rect class="ma291-2" x="13" y="9" width="1" height="1"/><rect class="ma291-2" x="15" y="9" width="1" height="1"/><rect class="ma291-2" x="11" y="9" width="1" height="1"/><path class="ma291-2" d="M10,14V11H9v4h1Z"/><rect class="ma291-2" x="8" y="15" width="1" height="1"/><rect class="ma291-2" x="14" y="16" width="1" height="1"/><path class="ma291-6" d="M19,14V13H18v1Z"/><path class="ma291-6" d="M18,12H16v1h2Z"/><path class="ma291-6" d="M12,13V12H10v1h2Z"/><path class="ma291-7" d="M14,23h3V22h1V21h1V20h1V16H19v1H18v1H17v1H16v1H13V19H12V18H11V17H10V16H9v4h1v1h1v1h1v1h2Z"/><path class="ma291-2" d="M12,18v1h1V18Z"/><path class="ma291-2" d="M16,19h1V18H16Z"/><path class="ma291-2" d="M15,20h1V19H15Z"/><path class="ma291-2" d="M15,19V18H14v1Z"/><path class="ma291-2" d="M13,19v1h1V19Z"/><path class="ma291-8" d="M14,18H13v1h1Z"/><path class="ma291-8" d="M15,18v1h1V18Z"/><path class="ma291-9" d="M14,19v1h1V19Z"/><path class="ma291-5" d="M7,27H9V25H8V24H7v3Z"/><path class="ma291-2" d="M10,27V25H9v2Z"/><rect class="ma291-2" x="8" y="24" width="1" height="1"/><rect class="ma291-2" x="7" y="23" width="1" height="1"/><path class="ma291-10" d="M11,10V9H10v2h1Z"/><path class="ma291-10" d="M12,10v1h1V9h1v2h1V9h1v2h1V9h1V8H11V9h1Z"/><rect class="ma291-10" x="18" y="9" width="1" height="1"/><path class="ma291-10" d="M20,11V10H19v1Z"/><path class="ma291-8" d="M11,14h2V13H11Z"/><path class="ma291-8" d="M13,16H11v1h2Z"/><polygon class="ma291-8" points="11 15 11 14 10 14 10 15 10 16 11 16 11 15"/><path class="ma291-2" d="M11,15v1h2V14H11Z"/><path class="ma291-8" d="M19,14H18v2h1V14Z"/><path class="ma291-8" d="M18,13H16v1h2Z"/><path class="ma291-8" d="M17,16H16v1h2V16Z"/><path class="ma291-8" d="M14,16V15h1v1h1V14H13v2Z"/><path class="ma291-2" d="M17,16h1V14H16v2Z"/></svg>