<svg xmlns="http://www.w3.org/2000/svg" viewBox="0 0 29 33"><defs><style>polygon,rect,path{shape-rendering:crispedges;}.ha23-1{fill:#6b4f99;}.ha23-2{fill:#000000;}.ha23-3{fill:#333333;}.ha23-4{fill:#ce8452;}.ha23-5{fill:#ffffff;}.ha23-6{fill:#ffffff;}.ha23-7{fill:#66334f;}.ha23-8{fill:#66334f;}.ha23-9{fill:#38a6e8;}.ha23-10{fill:#a3531d;}.ha23-11{fill:#c3b3ce;}</style></defs><path class="ha23-1" d="M20,25h1V24H19v1Z"/><path class="ha23-1" d="M0,33H6V27H7V26H8V25h2V24h2V21H11V20H10V19H9V16H8V15H9V10h1V9h1V8h7V9h1v1h1v5h1v1H20v3H19v1H18v1H17v3h2V23h0V21h3v2h0V22h1v1h1v8H23v1H21v1h8V0H0Z"/><path class="ha23-2" d="M23,25v6h1V23H23v2Z"/><path class="ha23-3" d="M23,25V24H22v7h1V25Z"/><path class="ha23-2" d="M22,32h1V31H22V24H21v1H19v1h2v1H20v6h1V32Z"/><path class="ha23-3" d="M15,29H14v2h1V29Z"/><rect class="ha23-3" x="10" y="29" width="1" height="1"/><path class="ha23-3" d="M19,32V31H18v1H17V29h1V28h1v1h1V27h1V26H19V25H17v1H16v1H13V26H12V25H10v1H8v1H9v2h1V28h1v1h1v3H11V31H10v1H9v1H20V32Zm-3-2v1H15v1H13V28h2v1h1Z"/><rect class="ha23-3" x="18" y="29" width="1" height="1"/><path class="ha23-2" d="M18,25h1V24H17v1Z"/><rect class="ha23-2" x="16" y="25" width="1" height="1"/><path class="ha23-2" d="M13,26v1h3V26H13Z"/><path class="ha23-2" d="M13,23V22H12v2h1Z"/><path class="ha23-4" d="M13,25v1h3V25h1V24H16V23H13v1H12v1Z"/><rect class="ha23-2" x="12" y="25" width="1" height="1"/><path class="ha23-2" d="M12,24H10v1h2Z"/><path class="ha23-2" d="M10,25H8v1h2Z"/><path class="ha23-2" d="M9,31V27H8v6H9V31Z"/><rect class="ha23-2" x="7" y="26" width="1" height="1"/><path class="ha23-3" d="M8,27H7v6H8V27Z"/><path class="ha23-2" d="M7,27H6v6H7V27Z"/><path class="ha23-5" d="M19,30H18V29H17v3h1V31h1v1h1V29H19Z"/><rect class="ha23-5" x="18" y="28" width="1" height="1"/><path class="ha23-5" d="M15,30v1h1V29H15Z"/><path class="ha23-5" d="M14,30V29h1V28H13v4h2V31H14Z"/><path class="ha23-5" d="M9,32h1V31h1v1h1V29H11v1H10V29H9v3Z"/><rect class="ha23-5" x="10" y="28" width="1" height="1"/><rect class="ha23-2" x="20" y="15" width="1" height="1"/><path class="ha23-2" d="M19,15h1V14H19Z"/><rect class="ha23-4" x="15" y="20" width="1" height="1"/><rect class="ha23-4" x="13" y="20" width="1" height="1"/><path class="ha23-4" d="M10,17v1h1v1h1V18h2v1h1V18h2v1h1V18h1V16h1V15H16V14h2V13H16V12h2V11H17V10H12v1H11v1h2v1H11v1h2v1H9v1h1Zm4-1h1v1H14Z"/><rect class="ha23-4" x="18" y="12" width="1" height="1"/><rect class="ha23-4" x="10" y="12" width="1" height="1"/><path class="ha23-2" d="M19,17h1V16H19Z"/><path class="ha23-2" d="M16,23v1h1V22H16Z"/><path class="ha23-2" d="M10,14H9v1h1Z"/><path class="ha23-2" d="M10,16H9v1h1Z"/><rect class="ha23-2" x="8" y="15" width="1" height="1"/><rect class="ha23-2" x="14" y="16" width="1" height="1"/><path class="ha23-6" d="M13,15V14H12v1Z"/><path class="ha23-6" d="M10,15h1V14H10Z"/><path class="ha23-6" d="M18,14v1h1V14Z"/><path class="ha23-6" d="M16,14v1h1V14Z"/><path class="ha23-2" d="M12,15V14H11v1Z"/><path class="ha23-2" d="M17,14v1h1V14Z"/><rect class="ha23-7" x="18" y="13" width="1" height="1"/><rect class="ha23-7" x="16" y="12" width="2" height="1"/><rect class="ha23-7" x="10" y="13" width="1" height="1"/><rect class="ha23-7" x="11" y="12" width="2" height="1"/><path class="ha23-8" d="M14,18H13v1h1Z"/><path class="ha23-8" d="M13,23h3V22h1V21h1V20h1V19h1V17H19v1H18v1H17V18H15v1h1v2H15V20H14v1H13V19H11V18H10V17H9v2h1v1h1v1h1v1h1Z"/><path class="ha23-2" d="M13,19v1h3V19H13Z"/><path class="ha23-2" d="M12,18v1h1V18Z"/><path class="ha23-9" d="M10,13V12h1V11h1V10h5v1h1v1h1v2h1V10H19V9H18V8H11V9H10v1H9v4h1Z"/><path class="ha23-10" d="M21,23H19v1h2Z"/><path class="ha23-11" d="M21,23h1V21H19v2h2Z"/><path class="ha23-4" d="M21,24h2V23H21Z"/><path class="ha23-2" d="M23,22H22v1h1Z"/></svg>