<svg xmlns="http://www.w3.org/2000/svg" viewBox="0 0 29 33"><defs><style>polygon,rect,path{shape-rendering:crispedges;}.ea113-1{fill:#e55b35;}.ea113-2{fill:#000000;}.ea113-3{fill:#a56e49;}.ea113-4{fill:#00686d;}.ea113-5{fill:#34e0cb;}.ea113-6{fill:#ffffff;}.ea113-7{fill:#4922aa;}.ea113-8{fill:#685432;}.ea113-9{fill:#b23b00;}.ea113-10{fill:#455054;}.ea113-11{fill:#ff1f4a;}.ea113-12{fill:#ffce00;}.ea113-13{fill:#002b4f;}</style></defs><path class="ea113-1" d="M8,19v3H9v2H8v1h2V24h2V21H11V20H10V19H9V16H8v3Z"/><path class="ea113-1" d="M8,32H6V31H5V22H6V21H7V20H5v1H2V17H5V16H8V15H9V10h1V9h1V8h7V9h1v1h1v5h1v1H20v3H19v1H18v1H17v3h2v1h2v1h1v1h1v6h6V0H0V33H8Z"/><rect class="ea113-2" x="21" y="26" width="1" height="1"/><path class="ea113-2" d="M23,27H22v3H21V27H20v6h1V31h1v2h1V27Z"/><path class="ea113-2" d="M20,26h1V25H19v1Z"/><path class="ea113-2" d="M18,25h1V24H17v1Z"/><path class="ea113-2" d="M13,23V22H12v2h1Z"/><path class="ea113-2" d="M11,24H10v1h2V24Z"/><path class="ea113-2" d="M9,31V27H8V26h2V25H8V24H7v7H6v1H8v1H9V31Z"/><path class="ea113-2" d="M6,22H5v9H6V22Z"/><path class="ea113-3" d="M7,30V24H8V22H6v9H7Z"/><path class="ea113-4" d="M19,32V31H18v1H17V29h1V28h1v1h1V27h1V26H19V25H17v1H16v1H13V26H12V25H10v1H8v1H9v2h1V28h1v1h1v3H11V31H10v1H9v1H20V32Zm-3-2v1H15v1H13V28h2v1h1Z"/><path class="ea113-4" d="M15,29H14v2h1V29Z"/><rect class="ea113-4" x="18" y="29" width="1" height="1"/><rect class="ea113-4" x="10" y="29" width="1" height="1"/><path class="ea113-2" d="M13,26v1h3V26H13Z"/><path class="ea113-3" d="M16,23H13v1H12v1h1v1h3V25h1V24H16Z"/><path class="ea113-4" d="M21,28v2h1V27H21Z"/><path class="ea113-3" d="M21,31v2h1V31Z"/><rect class="ea113-2" x="12" y="25" width="1" height="1"/><rect class="ea113-2" x="16" y="25" width="1" height="1"/><path class="ea113-5" d="M19,30H18V29H17v3h1V31h1v1h1V29H19Z"/><rect class="ea113-5" x="18" y="28" width="1" height="1"/><path class="ea113-5" d="M15,30v1h1V29H15Z"/><path class="ea113-5" d="M14,30V29h1V28H13v4h2V31H14Z"/><path class="ea113-5" d="M9,32h1V31h1v1h1V29H11v1H10V29H9v3Z"/><rect class="ea113-5" x="10" y="28" width="1" height="1"/><rect class="ea113-2" x="20" y="15" width="1" height="1"/><path class="ea113-2" d="M19,15h1V14H19Z"/><path class="ea113-3" d="M13,21h3V20H13Z"/><rect class="ea113-3" x="18" y="12" width="1" height="1"/><rect class="ea113-3" x="19" y="15" width="1" height="1"/><rect class="ea113-3" x="9" y="15" width="1" height="1"/><path class="ea113-3" d="M11,18v1h1v1h1V19h3V18h1v1h1V18h1V16H16V14h2V13H16V12h2V11H17V10H12v1H11v1h1v1h1v3H10v2Zm3-2h1v1H14Z"/><path class="ea113-3" d="M12,14V13H10v1h2Z"/><rect class="ea113-3" x="16" y="19" width="1" height="1"/><path class="ea113-2" d="M16,23v1h1V22H16Z"/><path class="ea113-2" d="M10,14H9v1h1Z"/><rect class="ea113-2" x="8" y="15" width="1" height="1"/><rect class="ea113-2" x="14" y="16" width="1" height="1"/><path class="ea113-6" d="M11,15V14H10v2h1Z"/><path class="ea113-6" d="M12,15v1h1V14H12Z"/><path class="ea113-6" d="M16,14v2h1V14Z"/><path class="ea113-6" d="M18,15v1h1V14H18Z"/><path class="ea113-2" d="M12,14H11v2h1V14Z"/><path class="ea113-2" d="M18,14H17v2h1V14Z"/><rect class="ea113-7" x="18" y="13" width="1" height="1"/><rect class="ea113-7" x="16" y="12" width="2" height="1"/><path class="ea113-7" d="M13,14V13H12v1Z"/><path class="ea113-7" d="M12,12H10v1h2Z"/><path class="ea113-8" d="M19,17v1H18v1H17v1H16v1H13V20H12V19H11V18H10V16H9v3h1v1h1v1h1v1h1v1h3V22h1V21h1V20h1V19h1V16H19Z"/><rect class="ea113-2" x="13" y="19" width="3" height="1"/><rect class="ea113-2" x="16" y="18" width="1" height="1"/><path class="ea113-9" d="M10,13V12h1V11h1V10h5v1h1v1h1v2h1V10H19V9H18V8H11V9H10v1H9v4h1Z"/><path class="ea113-10" d="M8,22V20H7v2Z"/><path class="ea113-2" d="M7,21H6v1H7Z"/><path class="ea113-2" d="M9,22H8v2H9Z"/><path class="ea113-11" d="M2,20v1H5V20H2Z"/><path class="ea113-11" d="M8,19H5v1H8Z"/><path class="ea113-12" d="M5,19V18H8V16H5v1H2v2H5Z"/><path class="ea113-13" d="M4,19H2v1H5V19Z"/><path class="ea113-13" d="M6,18H5v1H8V18Z"/></svg>