<svg xmlns="http://www.w3.org/2000/svg" viewBox="0 0 29 33"><defs><style>polygon,rect,path{shape-rendering:crispedges;}.ea87-1{fill:#db5a8e;}.ea87-2{fill:#000000;}.ea87-3{fill:#508e5d;}.ea87-4{fill:#efcaaf;}.ea87-5{fill:#508e5d;}.ea87-6{fill:#ffffff;}.ea87-7{fill:#66334f;}.ea87-8{fill:#5e362f;}.ea87-9{fill:#c8a715;}.ea87-10{fill:#685432;}</style></defs><path class="ea87-1" d="M18,24V22H17v2Z"/><path class="ea87-1" d="M0,33H6V24H7V23H8v1H9v1h1V20H9V18H8V12H9V11h1V10h1V9h7v1h1v1h1v2h1v5H20v2H19v5h2v1h1v1h1v6h6V0H0Z"/><path class="ea87-1" d="M12,22H11v2h1V22Z"/><path class="ea87-2" d="M23,27H22v2H21V27H20v6h1V30h1v3h1V27Z"/><rect class="ea87-2" x="21" y="26" width="1" height="1"/><path class="ea87-2" d="M20,26h1V25H19v1Z"/><path class="ea87-2" d="M17,24v1h2V24H17Z"/><path class="ea87-2" d="M12,24H10v1h2Z"/><path class="ea87-2" d="M9,31V27H8v6H9V31Z"/><path class="ea87-2" d="M7,24H6v9H7V24Z"/><path class="ea87-3" d="M19,32V31H18v1H17V29h1V28h1v1h1V27h1V26H19V25H17v1H16v1H13V26H12V25H10v2H9v2h1V28h1v1h1v3H11V31H10v1H9v1H20V32Zm-3-2v1H15v1H13V28h2v1h1Z"/><path class="ea87-3" d="M15,29H14v2h1V29Z"/><rect class="ea87-3" x="18" y="29" width="1" height="1"/><rect class="ea87-3" x="10" y="29" width="1" height="1"/><path class="ea87-3" d="M21,28v1h1V27H21Z"/><path class="ea87-4" d="M8,27H9V25H8V24H7v9H8V27Z"/><path class="ea87-4" d="M16,24V23H13v3h3V24Z"/><path class="ea87-2" d="M13,26v1h3V26H13Z"/><path class="ea87-4" d="M22,30H21v3h1V30Z"/><path class="ea87-2" d="M12,25v1h1V25Z"/><path class="ea87-2" d="M16,26h1V25H16Z"/><path class="ea87-5" d="M19,30H18V29H17v3h1V31h1v1h1V29H19Z"/><rect class="ea87-5" x="18" y="28" width="1" height="1"/><path class="ea87-5" d="M15,30v1h1V29H15Z"/><path class="ea87-5" d="M14,30V29h1V28H13v4h2V31H14Z"/><path class="ea87-5" d="M9,32h1V31h1v1h1V29H11v1H10V29H9v3Z"/><rect class="ea87-5" x="10" y="28" width="1" height="1"/><path class="ea87-4" d="M18,15H17v2H16V15H15V11H14v1H13v2h1v2h1v1H14V16H13V15H11v4h1V18h2v1h1V18h2v1h1V15Z"/><path class="ea87-4" d="M18,12H16v1h2Z"/><path class="ea87-4" d="M12,12V11H11v2h1Z"/><polygon class="ea87-4" points="13 21 14 21 14 22 15 22 15 21 16 21 16 20 13 20 13 21"/><rect class="ea87-4" x="19" y="15" width="1" height="1"/><rect class="ea87-4" x="9" y="15" width="1" height="1"/><rect class="ea87-2" x="19" y="16" width="1" height="1"/><rect class="ea87-2" x="9" y="14" width="1" height="1"/><rect class="ea87-2" x="9" y="16" width="1" height="1"/><rect class="ea87-2" x="14" y="16" width="1" height="1"/><path class="ea87-6" d="M13,15V14H12v1Z"/><rect class="ea87-6" x="16" y="14" width="1" height="1"/><path class="ea87-2" d="M12,14H11v1h1Z"/><rect class="ea87-2" x="17" y="14" width="1" height="1"/><rect class="ea87-7" x="11" y="13" width="1" height="1"/><polygon class="ea87-7" points="18 14 18 13 16 13 16 14 17 14 18 14"/><path class="ea87-8" d="M12,22v1h5V22h2V18H18v1H16v2H15v1H14V21H13V19h1V18H12v1H11V18H10v4h2Z"/><path class="ea87-8" d="M15,18v1h1V18Z"/><rect class="ea87-8" x="19" y="17" width="1" height="1"/><rect class="ea87-8" x="9" y="17" width="1" height="1"/><path class="ea87-9" d="M18,23h1V22H18Z"/><path class="ea87-8" d="M18,24h1V23H18Z"/><path class="ea87-9" d="M17,24V23H16v1Z"/><path class="ea87-8" d="M16,24v1h1V24Z"/><path class="ea87-9" d="M13,23H12v1h1Z"/><path class="ea87-8" d="M13,24H12v1h1Z"/><path class="ea87-9" d="M11,22H10v1h1Z"/><path class="ea87-8" d="M11,23H10v1h1Z"/><path class="ea87-2" d="M14,19H13v1h3V19H14Z"/><path class="ea87-2" d="M16,18v1h1V18Z"/><path class="ea87-2" d="M10,27V25H9v2Z"/><rect class="ea87-2" x="8" y="24" width="1" height="1"/><rect class="ea87-2" x="7" y="23" width="1" height="1"/><path class="ea87-10" d="M9,16V14h1v4h1V11h1v3h1V12h1V11h1v4h1V12h2v6h1V15h1v3h1V13H20V11H19V10H18V9H11v1H10v1H9v1H8v6H9V16Z"/><path class="ea87-10" d="M9,18v2h1V18Z"/><path class="ea87-10" d="M13,16h1V14H13v2Z"/><path class="ea87-10" d="M17,17V15H16v2Z"/><path class="ea87-10" d="M19,19v1h1V18H19Z"/></svg>