<svg xmlns="http://www.w3.org/2000/svg" viewBox="0 0 29 33"><defs><style>polygon,rect,path{shape-rendering:crispedges;}.ba108-1{fill:#6b4f99;}.ba108-2{fill:#000000;}.ba108-3{fill:#e8b795;}.ba108-4{fill:#d8be00;}.ba108-5{fill:#ffed9f;}.ba108-6{fill:#ffffff;}.ba108-7{fill:#9b8100;}.ba108-8{fill:#9b8100;}.ba108-9{fill:#a0688d;}</style></defs><path class="ba108-1" d="M0,33H6V27H7V26H8V25h2V24h2V21H11V20H10V19H9V16H8V15H9V11h1V10h1V9h2V7h1V6h2V5h2V6H17V7h1v3h1v1h1v4h1v1H20v3H19v1H18v1H17v3h2v1h2v1h1v1h1v6h6V0H0Z"/><path class="ba108-2" d="M23,27H22v6h1V27Z"/><rect class="ba108-2" x="21" y="26" width="1" height="1"/><path class="ba108-3" d="M22,27H21v6h1V27Z"/><rect class="ba108-3" x="20" y="26" width="1" height="1"/><path class="ba108-2" d="M21,27H20v6h1V27Z"/><path class="ba108-2" d="M20,26h1V25H19v1Z"/><rect class="ba108-4" x="10" y="30" width="1" height="1"/><path class="ba108-4" d="M14,31v1h1V30H14Z"/><rect class="ba108-4" x="18" y="30" width="1" height="1"/><rect class="ba108-4" x="10" y="32" width="1" height="1"/><path class="ba108-4" d="M17,30h1V29h1v1h1V26H19V25H18v1H17v1H16v1H13V27H12V26H11V25H10v1H9v4h1V29h1v1h1v3h1V29h2v1h1v2H15v1h2V30Z"/><rect class="ba108-4" x="18" y="32" width="1" height="1"/><path class="ba108-2" d="M18,26V25h1V24H17v2Z"/><rect class="ba108-2" x="16" y="26" width="1" height="1"/><path class="ba108-2" d="M13,27v1h3V27H13Z"/><path class="ba108-2" d="M13,23h3v1h1V21H16v1H13V21H12v3h1Z"/><path class="ba108-3" d="M13,26v1h3V26h1V24H16V23H13v1H12v2Z"/><rect class="ba108-2" x="12" y="26" width="1" height="1"/><path class="ba108-2" d="M11,26h1V24H10v1h1Z"/><path class="ba108-2" d="M10,26V25H8v1h2Z"/><path class="ba108-3" d="M9,27V26H8v1Z"/><path class="ba108-2" d="M9,30V27H8v6H9V30Z"/><rect class="ba108-2" x="7" y="26" width="1" height="1"/><path class="ba108-3" d="M8,27H7v6H8V27Z"/><path class="ba108-2" d="M7,27H6v6H7V27Z"/><path class="ba108-5" d="M20,30H19v1H18V30H17v3h1V32h1v1h1V30Z"/><rect class="ba108-5" x="18" y="29" width="1" height="1"/><path class="ba108-5" d="M16,32V30H15v2Z"/><path class="ba108-5" d="M14,32V30h1V29H13v4h2V32Z"/><path class="ba108-5" d="M12,30H11v1H10V30H9v3h1V32h1v1h1V30Z"/><rect class="ba108-5" x="10" y="29" width="1" height="1"/><rect class="ba108-2" x="20" y="15" width="1" height="1"/><path class="ba108-2" d="M19,13v2h1V11H19v2Z"/><rect class="ba108-3" x="12" y="19" width="1" height="1"/><path class="ba108-3" d="M12,19V18h5v1h2V16h1V15H16V14h3V13H16V12h3V11H18V10H15v1H13V10H11v1H10v1h3v1H10v1h3v1H9v1h1v3h2Zm2-3h1v1H14Z"/><rect class="ba108-3" x="13" y="20" width="1" height="1"/><rect class="ba108-3" x="16" y="19" width="1" height="1"/><rect class="ba108-3" x="15" y="20" width="1" height="1"/><path class="ba108-2" d="M19,17v2h1V16H19Z"/><rect class="ba108-2" x="18" y="10" width="1" height="1"/><path class="ba108-2" d="M18,20h1V19H18Z"/><rect class="ba108-2" x="17" y="20" width="1" height="1"/><path class="ba108-2" d="M16,10h2V9H16Z"/><path class="ba108-2" d="M13,9H11v1h2Z"/><rect class="ba108-2" x="11" y="20" width="1" height="1"/><rect class="ba108-2" x="10" y="10" width="1" height="1"/><path class="ba108-2" d="M10,19v1h1V19Z"/><path class="ba108-2" d="M10,14V11H9v4h1Z"/><path class="ba108-2" d="M10,16H9v3h1V16Z"/><rect class="ba108-2" x="8" y="15" width="1" height="1"/><rect class="ba108-2" x="14" y="16" width="1" height="1"/><path class="ba108-6" d="M13,15V14H12v1Z"/><path class="ba108-6" d="M11,15V14H10v1Z"/><path class="ba108-6" d="M18,14v1h1V14Z"/><path class="ba108-6" d="M16,14v1h1V14Z"/><path class="ba108-2" d="M12,15V14H11v1Z"/><path class="ba108-2" d="M17,14v1h1V14Z"/><path class="ba108-7" d="M13,13V12H10v1Z"/><path class="ba108-7" d="M16,12v1h3V12Z"/><path class="ba108-8" d="M17,19v1h1V19Z"/><rect class="ba108-8" x="16" y="20" width="1" height="1"/><path class="ba108-8" d="M15,20H14v1H13v1h3V21H15Z"/><path class="ba108-8" d="M14,19h3V18H13v1Z"/><rect class="ba108-8" x="12" y="20" width="1" height="1"/><path class="ba108-8" d="M12,19H11v1h1Z"/><path class="ba108-2" d="M15,20h1V19H13v1h2Z"/><path class="ba108-2" d="M13,18H12v1h1Z"/><path class="ba108-9" d="M13,11h2V10h1V9h2V7H17V6h1V5H16V6H14V7H13v4Z"/><rect class="ba108-9" x="18" y="9" width="1" height="1"></rect></svg>