<svg xmlns="http://www.w3.org/2000/svg" viewBox="0 0 29 33"><defs><style>polygon,rect,path{shape-rendering:crispedges;}.za23-1{fill:#b4bd09;}.za23-2{fill:#000000;}.za23-3{fill:#c6e5e4;}.za23-4{fill:#ce8452;}.za23-5{fill:#326b43;}.za23-6{fill:#326b43;}.za23-7{fill:#cc2f76;}.za23-8{fill:#ffffff;}.za23-9{fill:#0068ff;}.za23-10{fill:#a3531d;}.za23-11{fill:#c6ceb3;}</style></defs><path class="za23-1" d="M20,25h1V24H19v1Z"/><path class="za23-1" d="M0,33H6V27H7V26H8V25h2V24h1V23h1V21H11V20H10V19H9V16H8V15H9V10h1V9h1V8h7V9h1v1h1v5h1v1H20v3H19v1H18v1H17v2h1v1h1V23h0V21h3v2h0V22h1v1h1v8H23v1H21v1h8V0H0Z"/><path class="za23-2" d="M23,25v6h1V23H23v2Z"/><path class="za23-2" d="M7,27H6v6H7V27Z"/><path class="za23-3" d="M8,27H7v6H8V27Z"/><rect class="za23-2" x="7" y="26" width="1" height="1"/><path class="za23-2" d="M9,27H8v6H9V27Z"/><path class="za23-3" d="M20,27h1V26H19V25H18v1H16V25H15v2H14V25H13v1H11V25H10v1H8v1H9v6h5V32h1v1h5V27Zm-5,4H14V30h1Zm0-2H14V28h1Z"/><path class="za23-2" d="M10,25H8v1h2Z"/><rect class="za23-3" x="12" y="24" width="1" height="1"/><path class="za23-2" d="M11,26h2V25H12V24h1V22H12v1H11v1H10v1h1Z"/><rect class="za23-2" x="13" y="24" width="1" height="1"/><rect class="za23-2" x="14" y="32" width="1" height="1"/><rect class="za23-2" x="14" y="30" width="1" height="1"/><rect class="za23-2" x="14" y="28" width="1" height="1"/><path class="za23-2" d="M14,26v1h1V25H14Z"/><rect class="za23-2" x="15" y="24" width="1" height="1"/><path class="za23-4" d="M16,24V23H13v1h1v1h1V24Z"/><rect class="za23-3" x="16" y="24" width="1" height="1"/><path class="za23-2" d="M22,32h1V31H22V24H21v1H19v1h2v1H20v6h1V32Z"/><path class="za23-3" d="M23,25V24H22v7h1V25Z"/><rect class="za23-2" x="20" y="15" width="1" height="1"/><path class="za23-2" d="M19,15h1V14H19Z"/><rect class="za23-4" x="9" y="15" width="1" height="1"/><rect class="za23-4" x="14" y="15" width="1" height="1"/><rect class="za23-4" x="13" y="20" width="1" height="1"/><rect class="za23-4" x="15" y="20" width="1" height="1"/><path class="za23-4" d="M18,16v1H16V16H15v1H14V16H13v1H11V16H10v2h1v1h1V18h2v1h1V18h2v1h1V18h1V16Z"/><path class="za23-4" d="M14,14h2V13H13v1Z"/><rect class="za23-4" x="19" y="15" width="1" height="1"/><path class="za23-4" d="M16,10H12v1h5V10Z"/><path class="za23-2" d="M19,17h1V16H19Z"/><path class="za23-2" d="M16,23v1h1v1H16v1h2V25h1V24H18V23H17V22H16Z"/><path class="za23-2" d="M10,14H9v1h1Z"/><path class="za23-2" d="M10,16H9v1h1Z"/><rect class="za23-2" x="8" y="15" width="1" height="1"/><rect class="za23-2" x="14" y="16" width="1" height="1"/><rect class="za23-5" x="18" y="13" width="1" height="1"/><rect class="za23-5" x="10" y="13" width="1" height="1"/><path class="za23-6" d="M14,18H13v1h1Z"/><path class="za23-6" d="M13,23h3V22h1V21h1V20h1V19h1V17H19v1H18v1H17V18H15v1h1v2H15V20H14v1H13V19H11V18H10V17H9v2h1v1h1v1h1v1h1Z"/><path class="za23-2" d="M13,19v1h3V19H13Z"/><path class="za23-2" d="M12,18v1h1V18Z"/><path class="za23-7" d="M19,14h1V13H19Z"/><path class="za23-7" d="M12,11V10h5v1h3V10H19V9H18V8H11V9H10v1H9v1h3Z"/><path class="za23-7" d="M10,13H9v1h1Z"/><path class="za23-8" d="M12,14h1V13H11v1Z"/><path class="za23-8" d="M11,17h2V16H11Z"/><polygon class="za23-8" points="11 15 11 14 10 14 10 15 10 16 11 16 11 15"/><path class="za23-2" d="M12,14H11v2h2V14Z"/><polygon class="za23-8" points="18 15 18 16 19 16 19 15 19 14 18 14 18 15"/><path class="za23-8" d="M17,14h1V13H16v1Z"/><path class="za23-8" d="M16,17h2V16H16Z"/><path class="za23-8" d="M14,14H13v2h1V15h1v1h1V14Z"/><path class="za23-2" d="M18,14H16v2h2V14Z"/><path class="za23-8" d="M20,12V11H9v1H20Z"/><path class="za23-9" d="M11,13h9V12H9v1h2Z"/><path class="za23-10" d="M21,23H19v1h2Z"/><path class="za23-11" d="M21,23h1V21H19v2h2Z"/><path class="za23-4" d="M21,24h2V23H21Z"/><path class="za23-2" d="M23,22H22v1h1Z"/></svg>