<svg xmlns="http://www.w3.org/2000/svg" viewBox="0 0 29 33"><defs><style>polygon,rect,path{shape-rendering:crispedges;}.aa182-1{fill:#d4a122;}.aa182-2{fill:#000000;}.aa182-3{fill:#a56e49;}.aa182-4{fill:#9e6969;}.aa182-5{fill:#9e6969;}.aa182-6{fill:#ffffff;}.aa182-7{fill:#99004d;}.aa182-8{fill:#99004d;}.aa182-9{fill:#00af68;}.aa182-10{fill:#00bc55;}.aa182-11{fill:#cc3232;}</style></defs><path class="aa182-1" d="M6,32V27H7V26H8V25h2V24h2V21H9V20H8V19H9V16H8V15H9V10h1V9h1V8h7V9h1v1h1v5h1v1H20v3h1v1H20v1H17v3h2V23h1V22h3v1h1v3H23v7h6V0H0V33H6Z"/><path class="aa182-2" d="M7,31V27H6v6H7Z"/><rect class="aa182-2" x="7" y="26" width="1" height="1"/><path class="aa182-3" d="M8,31V27H7v6H8Z"/><rect class="aa182-3" x="8" y="26" width="1" height="1"/><path class="aa182-2" d="M9,31V27H8v6H9Z"/><path class="aa182-2" d="M10,26V25H8v1Z"/><path class="aa182-4" d="M14,31v1h1V30H14Z"/><rect class="aa182-4" x="18" y="30" width="1" height="1"/><rect class="aa182-4" x="10" y="30" width="1" height="1"/><rect class="aa182-4" x="10" y="32" width="1" height="1"/><rect class="aa182-4" x="18" y="32" width="1" height="1"/><path class="aa182-4" d="M17,31V30h1V29h1v1h1V26H19V25H18v1H17v1H16v1H13V27H12V26H11V25H10v1H9v4h1V29h1v1h1v3h1V29h2v1h1v2H15v1h2Z"/><path class="aa182-2" d="M13,23h3v1h1V21H16v1H13V21H12v3h1Z"/><path class="aa182-2" d="M21,31V26H20v7h1Z"/><path class="aa182-3" d="M22,31V26h1V25H20v1h1v7h1Z"/><path class="aa182-2" d="M23,31V26H22v7h1Z"/><path class="aa182-2" d="M11,26h1V24H10v1h1Z"/><rect class="aa182-2" x="12" y="26" width="1" height="1"/><rect class="aa182-2" x="16" y="26" width="1" height="1"/><path class="aa182-2" d="M17,26h1V25h1V24H17Z"/><path class="aa182-2" d="M14,27H13v1h3V27Z"/><path class="aa182-3" d="M12,26h1v1h3V26h1V24H16V23H13v1H12Z"/><path class="aa182-5" d="M20,31V30H19v1H18V30H17v3h1V32h1v1h1Z"/><rect class="aa182-5" x="18" y="29" width="1" height="1"/><path class="aa182-5" d="M15,32h1V30H15Z"/><path class="aa182-5" d="M14,32V30h1V29H13v4h2V32Z"/><path class="aa182-5" d="M12,31V30H11v1H10V30H9v3h1V32h1v1h1Z"/><rect class="aa182-5" x="10" y="29" width="1" height="1"/><rect class="aa182-2" x="20" y="15" width="1" height="1"/><path class="aa182-3" d="M13,22h3V21h1V19H16v1H13V19H12v2h1Z"/><path class="aa182-3" d="M10,17v1h1v1h1V18h5v1h1V18h1V16h1V15H16V14h3V13H16V12h3V11H18V10H16v1H15v1H14v2H13v3H12V16H11V15H9v1h1Zm4-1h1v1H14Z"/><rect class="aa182-2" x="17" y="20" width="1" height="1"/><rect class="aa182-2" x="11" y="20" width="1" height="1"/><rect class="aa182-2" x="9" y="14" width="1" height="1"/><rect class="aa182-2" x="8" y="15" width="1" height="1"/><rect class="aa182-2" x="14" y="16" width="1" height="1"/><rect class="aa182-6" x="18" y="14" width="1" height="1"/><rect class="aa182-6" x="16" y="14" width="1" height="1"/><rect class="aa182-2" x="17" y="14" width="1" height="1"/><rect class="aa182-7" x="16" y="12" width="3" height="1"/><path class="aa182-8" d="M19,17v1H18v1H17v1h1v1h2V20h1V19H20V16H19Z"/><path class="aa182-8" d="M12,20V19H11V18H10V16H9v3H8v1H9v1h2V20Z"/><polygon class="aa182-2" points="12 18 12 19 13 19 13 20 16 20 16 19 17 19 17 18 12 18"/><path class="aa182-9" d="M10,15h1v1h1v1h1V14h1V12h1V11h1V10h2v1h1v4h1V10H19V9H18V8H11V9H10v1H9v4h1Z"/><path class="aa182-10" d="M21,24h1V23h1V22H20v1h1Z"/><path class="aa182-10" d="M20,25V23H19v2Z"/><rect class="aa182-2" x="20" y="23" width="1" height="1"/><rect class="aa182-2" x="22" y="23" width="1" height="1"/><path class="aa182-10" d="M23,25h1V23H23Z"/><path class="aa182-11" d="M22,24H20v1h3V24Z"/><rect class="aa182-2" x="23" y="25" width="1" height="1"/><rect class="aa182-2" x="19" y="25" width="1" height="1"/></svg>