<svg xmlns="http://www.w3.org/2000/svg" viewBox="0 0 29 33"><defs><style>polygon,rect,path{shape-rendering:crispedges;}.ba25-1{fill:#db5a8e;}.ba25-2{fill:#000000;}.ba25-3{fill:#e8b795;}.ba25-4{fill:#c4ea3b;}.ba25-5{fill:#6c9302;}.ba25-6{fill:#ffffff;}.ba25-7{fill:#99004d;}.ba25-8{fill:#893a1f;}.ba25-9{fill:#00af68;}.ba25-10{fill:#fad000;}</style></defs><path class="ba25-1" d="M6,27H7V26H8V25h2V24h2V21H11V20H10V19H9V16H8V15H9V11h1V10h1V9h1V8h5V9h2v1h1v1h1v3H20v1h1v1H20v3H19v1H18v1H17v3h2v1h2V20h1V14h1V9H22V8h1V7H22V6H21V5H20V3H19V0H0V33H6V27Z"/><path class="ba25-1" d="M28,3H27V5H26V6H25V7H24V8h1V9H24v5H23v6H22v1h1v1h1v9H23v1H21v1h8V0H28Z"/><path class="ba25-2" d="M7,27H6v6H7V27Z"/><rect class="ba25-2" x="7" y="26" width="1" height="1"/><path class="ba25-3" d="M8,27H7v6H8V27Z"/><rect class="ba25-3" x="8" y="26" width="1" height="1"/><path class="ba25-2" d="M9,30V27H8v6H9V30Z"/><path class="ba25-2" d="M8,26h2V25H8Z"/><path class="ba25-4" d="M17,30h1V29h1v1h1V26H19V25H18v1H17v1H16v1H13V27H12V26H11V25H10v1H9v4h1V29h1v1h1v3h1V29h2v1h1v2H15v1h2V30Z"/><rect class="ba25-4" x="18" y="30" width="1" height="1"/><path class="ba25-4" d="M14,31v1h1V30H14Z"/><rect class="ba25-4" x="18" y="32" width="1" height="1"/><rect class="ba25-4" x="10" y="32" width="1" height="1"/><rect class="ba25-4" x="10" y="30" width="1" height="1"/><path class="ba25-2" d="M10,24v1h1v1h1V24Z"/><path class="ba25-2" d="M13,23V22H12v2h1Z"/><rect class="ba25-2" x="12" y="26" width="1" height="1"/><path class="ba25-2" d="M13,27v1h3V27H13Z"/><path class="ba25-3" d="M16,24V23H13v1H12v2h1v1h3V26h1V24Z"/><rect class="ba25-2" x="16" y="26" width="1" height="1"/><path class="ba25-2" d="M18,24H17v2h1V25h1V24Z"/><path class="ba25-3" d="M21,27V26H20v1Z"/><path class="ba25-2" d="M22,32h1V31H22V23H21v2H19v1h2v1H20v6h1V32Z"/><path class="ba25-2" d="M23,31h1V22H23v9Z"/><path class="ba25-5" d="M20,30H19v1H18V30H17v3h1V32h1v1h1V30Z"/><rect class="ba25-5" x="18" y="29" width="1" height="1"/><path class="ba25-5" d="M16,32V30H15v2Z"/><path class="ba25-5" d="M14,32V30h1V29H13v4h2V32Z"/><path class="ba25-5" d="M12,30H11v1H10V30H9v3h1V32h1v1h1V30Z"/><rect class="ba25-5" x="10" y="29" width="1" height="1"/><rect class="ba25-2" x="20" y="15" width="1" height="1"/><rect class="ba25-3" x="12" y="19" width="1" height="1"/><path class="ba25-3" d="M13,21h3V20H13Z"/><path class="ba25-3" d="M10,17v1h1v1h1V18h1v1h3v1h1V19h1V18h1V16h1V15H16V13h1V11H15V10H11v1H10v2h1V12h2v1H11v1h2v1H9v1h1Zm4-1h1v1H14Z"/><path class="ba25-3" d="M18,14h1V13H17v1Z"/><path class="ba25-2" d="M16,23v1h1V22H16Z"/><rect class="ba25-2" x="8" y="15" width="1" height="1"/><rect class="ba25-2" x="14" y="16" width="1" height="1"/><path class="ba25-6" d="M13,15V14H12v1Z"/><path class="ba25-6" d="M10,15h1V14H10Z"/><path class="ba25-6" d="M18,14v1h1V14Z"/><path class="ba25-6" d="M16,14v1h1V14Z"/><path class="ba25-2" d="M12,15V14H11v1Z"/><path class="ba25-2" d="M17,14v1h1V14Z"/><rect class="ba25-7" x="10" y="13" width="1" height="1"/><rect class="ba25-7" x="11" y="12" width="2" height="1"/><path class="ba25-7" d="M17,13H16v1h1Z"/><path class="ba25-7" d="M18,12H17v1h1Z"/><path class="ba25-8" d="M13,23h3V22h1V21h1V20h1V19h1V16H19v2H18v1H17v1H16v1H13V20H12V19H11V18H10V16H9v3h1v1h1v1h1v1h1Z"/><rect class="ba25-2" x="13" y="19" width="3" height="1"/><rect class="ba25-2" x="12" y="18" width="1" height="1"/><path class="ba25-9" d="M10,14V11H9v4h1Z"/><rect class="ba25-9" x="10" y="10" width="1" height="1"/><path class="ba25-9" d="M15,10v1h2v1h1v1h1v2h1V14h1V11H20V10H19V9H17V8H12V9H11v1h4Z"/><path class="ba25-6" d="M23,9v5h1V8H23Z"/><rect class="ba25-6" x="22" y="14" width="1" height="6"/><path class="ba25-6" d="M21,22h1V20H21Z"/><rect class="ba25-10" x="22" y="8" width="1" height="1"/><path class="ba25-10" d="M25,9V8H24V9Z"/><path class="ba25-10" d="M20,3V5h1V6h1V7h1V8h1V7h1V6h1V5h1V3h1V0H19V3Z"/><path class="ba25-3" d="M21,22v1h1v8h1V22H21Z"/><path class="ba25-2" d="M23,22V21H22v1Z"/></svg>