<svg xmlns="http://www.w3.org/2000/svg" viewBox="0 0 29 33"><defs><style>polygon,rect,path{shape-rendering:crispedges;}.oa263-1{fill:#397d98;}.oa263-2{fill:#000000;}.oa263-3{fill:#560000;}.oa263-4{fill:#ffffff;}.oa263-5{fill:#e8b795;}.oa263-6{fill:#cc3232;}.oa263-7{fill:#6c9302;}.oa263-8{fill:#ff791f;}.oa263-9{fill:#ffffff;}</style></defs><path class="oa263-1" d="M0,33H6V27H7V26H8V25h2V24h2V21H10v1H9V21H8V20H9V17H8V12H9V10h1V9h1V8h7V9h1v1h1v2h1v6H20v2h1v1H20v1H19V21H17v3h2v1h2v1h1v1h1v6h6V0H0Z"/><path class="oa263-2" d="M23,27H22v6h1V27Z"/><rect class="oa263-2" x="21" y="26" width="1" height="1"/><path class="oa263-3" d="M21,31h1V30H21Z"/><path class="oa263-3" d="M21,28h1V27H21Z"/><path class="oa263-2" d="M21,30V27H20v6h1V30Z"/><path class="oa263-3" d="M18,31h2V30H18Z"/><path class="oa263-3" d="M18,28h2V27H18Z"/><path class="oa263-2" d="M20,26h1V25H19v1Z"/><path class="oa263-2" d="M18,30V25h1V24H17v1H16v1h1v7h1V30Z"/><path class="oa263-4" d="M17,26H16v1H13V26H12v7h5V26Z"/><path class="oa263-2" d="M13,26v1h3V26H13Z"/><path class="oa263-2" d="M13,23h3v1h1V21H16v1H13V21H12v3h1Z"/><path class="oa263-5" d="M13,25v1h3V25h1V24H16V23H13v1H12v1Z"/><path class="oa263-2" d="M12,26h1V25H12V24H10v1h1v8h1V26Z"/><path class="oa263-3" d="M9,31h2V30H9Z"/><path class="oa263-3" d="M9,28h2V27H9Z"/><path class="oa263-2" d="M10,25H8v1h2Z"/><path class="oa263-2" d="M9,30V27H8v6H9V30Z"/><rect class="oa263-2" x="7" y="26" width="1" height="1"/><path class="oa263-3" d="M8,28V27H7v1Z"/><path class="oa263-3" d="M7,31H8V30H7Z"/><path class="oa263-2" d="M7,30V27H6v6H7V30Z"/><path class="oa263-6" d="M9,31v2h2V31Z"/><path class="oa263-6" d="M18,31v2h2V31Z"/><path class="oa263-6" d="M18,29v1h2V28H18Z"/><path class="oa263-6" d="M9,29v1h2V28H9Z"/><path class="oa263-6" d="M18,26v1h3V26H19V25H18Z"/><path class="oa263-6" d="M9,27h2V25H10v1H8v1Z"/><path class="oa263-6" d="M7,29v1H8V28H7Z"/><path class="oa263-6" d="M7,31v2H8V31Z"/><path class="oa263-6" d="M21,31v2h1V31Z"/><path class="oa263-6" d="M21,29v1h1V28H21Z"/><path class="oa263-5" d="M14,14h2V12h1V11H16V10H15v1H14v1H13v2Z"/><rect class="oa263-5" x="14" y="15" width="1" height="1"/><path class="oa263-5" d="M13,22h3V21h1V20h1V19h1V17H16V16H15v1H14V16H13v1H10v2h1v1h1v1h1Zm0-3h3V18h1v1H16v1H13Z"/><path class="oa263-2" d="M19,16v3h1V16Z"/><rect class="oa263-2" x="18" y="19" width="1" height="1"/><path class="oa263-2" d="M17,20v1h1V20Z"/><path class="oa263-2" d="M11,20v1h1V20Z"/><rect class="oa263-2" x="10" y="19" width="1" height="1"/><path class="oa263-2" d="M10,18H9v1h1Z"/><rect class="oa263-2" x="14" y="16" width="1" height="1"/><path class="oa263-7" d="M16,13h2V12H16Z"/><rect class="oa263-2" x="13" y="19" width="3" height="1"/><rect class="oa263-2" x="16" y="18" width="1" height="1"/><path class="oa263-8" d="M19,20H18v1h1v1h1V21h1V20H20V19H19Z"/><path class="oa263-8" d="M10,20V19H9v1H8v1H9v1h1V21h1V20Z"/><path class="oa263-8" d="M20,16v2h1V15H20Z"/><path class="oa263-8" d="M10,13h3V12h1V11h1V10h1v1h1v1h1v1h1v1h2V12H20V10H19V9H18V8H11V9H10v1H9v2H8v2h2Z"/><path class="oa263-8" d="M10,17V16H9V15H8v2H9v1h1Z"/><path class="oa263-9" d="M19,16h1V15h1V14H19Z"/><path class="oa263-9" d="M16,14h3V13H16Z"/><path class="oa263-2" d="M19,16V14H16v2h3Z"/><path class="oa263-9" d="M18,16H16v1h3V16Z"/><path class="oa263-9" d="M14,14H13v2h1V15h1v1h1V14Z"/><path class="oa263-9" d="M13,14V13H10v1h3Z"/><path class="oa263-2" d="M12,14H10v2h3V14Z"/><path class="oa263-9" d="M10,16v1h3V16H10Z"/><path class="oa263-9" d="M9,16h1V14H8v1H9Z"/></svg>