<svg xmlns="http://www.w3.org/2000/svg" viewBox="0 0 29 33"><defs><style>polygon,rect,path{shape-rendering:crispedges;}.ib228-1{fill:#7a982c;}.ib228-2{fill:#000000;}.ib228-3{fill:#512a24;}.ib228-4{fill:#ffffff;}.ib228-5{fill:#8e4717;}.ib228-6{fill:#fad000;}.ib228-7{fill:#8e4717;}.ib228-8{fill:#db5800;}</style></defs><path class="ib228-1" d="M0,33H6V27H7V26H8V25h2V23h1V21H10V20H9V16H8V15H9V11h1V10h1V9h2V7h1V6h2V5h2V6H17V7h1v3h1v1h1v4h1v1H20v4H19v1H18v2h1v2h2v1h1v1h1v6h6V0H0Z"/><path class="ib228-2" d="M23,27H22v6h1V27Z"/><path class="ib228-3" d="M22,27H21v6h1V27Z"/><rect class="ib228-2" x="21" y="26" width="1" height="1"/><path class="ib228-2" d="M21,27H20v6h1V27Z"/><path class="ib228-3" d="M20,27h1V26H19V25H18v1H17v1H16v2H15v4h5V27Zm-2,2H17V28h1Z"/><path class="ib228-3" d="M14,24h1v1h1V23H13v2h1Z"/><path class="ib228-3" d="M14,29H13V27H12V26H11V25H10v1H8v1H9v6h5V29Zm-2,0H11V28h1Z"/><path class="ib228-2" d="M20,26h1V25H19v1Z"/><rect class="ib228-2" x="17" y="28" width="1" height="1"/><path class="ib228-2" d="M15,29H14v4h1V29Z"/><rect class="ib228-2" x="11" y="28" width="1" height="1"/><path class="ib228-2" d="M10,25H8v1h2Z"/><path class="ib228-2" d="M9,27H8v6H9V27Z"/><path class="ib228-3" d="M8,27H7v6H8V27Z"/><rect class="ib228-2" x="7" y="26" width="1" height="1"/><path class="ib228-2" d="M7,27H6v6H7V27Z"/><rect class="ib228-2" x="20" y="15" width="1" height="1"/><path class="ib228-2" d="M19,13v2h1V11H19v2Z"/><rect class="ib228-3" x="15" y="20" width="1" height="1"/><path class="ib228-3" d="M10,17v1h1v1h1V18h2v1h1V18h2v1h1V18h1V16h1V15H16V13h1V12h2V11H18V10H15v1H13V10H11v1H10v2h1V12h2v1H11v1h2v1H9v1h1Zm4-1h1v1H14Z"/><rect class="ib228-3" x="13" y="20" width="1" height="1"/><path class="ib228-3" d="M18,14h1V13H17v1Z"/><rect class="ib228-2" x="18" y="10" width="1" height="1"/><path class="ib228-2" d="M16,23v2h1V23h1V22H16Z"/><path class="ib228-2" d="M16,10h2V9H16Z"/><path class="ib228-2" d="M13,9H11v1h2Z"/><rect class="ib228-2" x="10" y="10" width="1" height="1"/><path class="ib228-2" d="M10,14V11H9v4h1Z"/><rect class="ib228-2" x="8" y="15" width="1" height="1"/><rect class="ib228-2" x="14" y="16" width="1" height="1"/><path class="ib228-4" d="M13,15V14H12v1Z"/><path class="ib228-4" d="M10,15h1V14H10Z"/><path class="ib228-4" d="M18,14v1h1V14Z"/><path class="ib228-4" d="M16,14v1h1V14Z"/><path class="ib228-2" d="M12,15V14H11v1Z"/><path class="ib228-2" d="M17,14v1h1V14Z"/><path class="ib228-5" d="M11,14V13H10v1Z"/><rect class="ib228-5" x="11" y="12" width="2" height="1"/><path class="ib228-5" d="M17,13H16v1h1Z"/><path class="ib228-5" d="M19,12H17v1h2Z"/><rect class="ib228-2" x="12" y="26" width="1" height="1"/><path class="ib228-2" d="M15,28v1h1V27H15Z"/><rect class="ib228-2" x="16" y="26" width="1" height="1"/><path class="ib228-2" d="M13,27v2h1V27Z"/><rect class="ib228-2" x="17" y="25" width="1" height="1"/><rect class="ib228-2" x="11" y="25" width="1" height="1"/><rect class="ib228-2" x="14" y="24" width="1" height="1"/><rect class="ib228-2" x="13" y="25" width="1" height="1"/><rect class="ib228-2" x="15" y="25" width="1" height="1"/><path class="ib228-2" d="M12,24v1h1V22H11v1h1Z"/><rect class="ib228-6" x="16" y="25" width="1" height="1"/><path class="ib228-6" d="M15,26V25H14v1H13v1h1v2h1V27h1V26Z"/><rect class="ib228-6" x="12" y="25" width="1" height="1"/><path class="ib228-6" d="M11,25h1V23H11v2Z"/><path class="ib228-6" d="M17,24v1h1V23H17Z"/><path class="ib228-2" d="M19,25V23H18v2Z"/><path class="ib228-2" d="M11,24V23H10v2h1Z"/><path class="ib228-7" d="M14,18H13v1h1Z"/><path class="ib228-7" d="M13,23h3V22h2V21h1V20h1V16H19v2H18v1H17V18H15v1h1v2H15V20H14v1H13V19H11V18H10V16H9v4h1v1h1v1h2Z"/><path class="ib228-2" d="M13,19v1h3V19H13Z"/><path class="ib228-2" d="M12,18v1h1V18Z"/><path class="ib228-8" d="M13,11h2V10h1V9h2V7H17V6h1V5H16V6H14V7H13v4Z"/><rect class="ib228-8" x="18" y="9" width="1" height="1"></rect></svg>