<svg xmlns="http://www.w3.org/2000/svg" viewBox="0 0 29 33"><defs><style>polygon,rect,path{shape-rendering:crispedges;}.ha12-1{fill:#6b4f99;}.ha12-2{fill:#000000;}.ha12-3{fill:#ffffff;}.ha12-4{fill:#ce8452;}.ha12-5{fill:#00e2b7;}.ha12-6{fill:#ffffff;}.ha12-7{fill:#e2e2e2;}.ha12-8{fill:#e2e2e2;}.ha12-9{fill:#00e070;}</style></defs><path class="ha12-1" d="M0,33H6V27H7V26H8V25h2V24h2V21H11V20H10V19H9V16H8V15H9V11h1V10h1V9h7v1h1v1h1v4h1v1H20v3H19v1H18v1H17v3h2v1h2v1h1v1h1v6h6V0H0Z"/><path class="ha12-2" d="M23,27H22v6h1V27Z"/><rect class="ha12-2" x="21" y="26" width="1" height="1"/><path class="ha12-3" d="M22,27H21v6h1V27Z"/><path class="ha12-2" d="M21,27H20v6h1V27Z"/><path class="ha12-2" d="M20,26h1V25H19v1Z"/><path class="ha12-3" d="M16,32H12v1h5V32Z"/><rect class="ha12-3" x="16" y="30" width="1" height="1"/><rect class="ha12-3" x="12" y="30" width="1" height="1"/><path class="ha12-3" d="M20,27h1V26H19V25H17v1H16v1H13V26H12V25H10v1H9v7h1V30h1V29h1V28h5v1h1v1h1v3h1V27Z"/><path class="ha12-2" d="M18,25h1V24H17v1Z"/><rect class="ha12-2" x="16" y="25" width="1" height="1"/><path class="ha12-2" d="M13,26v1h3V26H13Z"/><path class="ha12-2" d="M13,23V22H12v2h1Z"/><path class="ha12-4" d="M13,25v1h3V25h1V24H16V23H13v1H12v1Z"/><rect class="ha12-2" x="12" y="25" width="1" height="1"/><path class="ha12-2" d="M12,24H10v1h2Z"/><path class="ha12-2" d="M9,26h1V25H8v1H7v1H8v6H9V26Z"/><path class="ha12-3" d="M8,27H7v6H8V27Z"/><path class="ha12-2" d="M7,27H6v6H7V27Z"/><path class="ha12-5" d="M19,30H18V29H17V28H12v1H11v1H10v3h2V32h5v1h2V30Zm-6,1H12V30h1Zm4,0H16V30h1Z"/><rect class="ha12-2" x="20" y="15" width="1" height="1"/><path class="ha12-2" d="M19,15h1V14H19Z"/><rect class="ha12-4" x="13" y="20" width="1" height="1"/><path class="ha12-4" d="M10,17v1h1v1h1V18h2v1h1V18h2v1h1V18h1V16h1V15H16V14h2V13H16V12h2v1h1V11H18V10H11v1H10v2h1V12h2v1H11v1h2v1H9v1h1Zm4-1h1v1H14Z"/><rect class="ha12-4" x="15" y="20" width="1" height="1"/><path class="ha12-2" d="M19,17h1V16H19Z"/><path class="ha12-2" d="M16,23v1h1V22H16Z"/><path class="ha12-2" d="M10,14H9v1h1Z"/><path class="ha12-2" d="M10,16H9v1h1Z"/><rect class="ha12-2" x="8" y="15" width="1" height="1"/><rect class="ha12-2" x="14" y="16" width="1" height="1"/><path class="ha12-6" d="M13,15V14H12v1Z"/><path class="ha12-6" d="M10,15h1V14H10Z"/><path class="ha12-6" d="M18,14v1h1V14Z"/><path class="ha12-6" d="M16,14v1h1V14Z"/><path class="ha12-2" d="M12,15V14H11v1Z"/><path class="ha12-2" d="M17,14v1h1V14Z"/><rect class="ha12-7" x="18" y="13" width="1" height="1"/><rect class="ha12-7" x="16" y="12" width="2" height="1"/><rect class="ha12-7" x="10" y="13" width="1" height="1"/><rect class="ha12-7" x="11" y="12" width="2" height="1"/><path class="ha12-8" d="M15,18v1h1V18Z"/><path class="ha12-8" d="M13,23h3V22h1V21h1V20h1V19h1V17H19v1H18v1H16v2H15V20H14v1H13V19h1V18H12v1H11V18H10V17H9v2h1v1h1v1h1v1h1Z"/><path class="ha12-2" d="M14,19H13v1h3V19H14Z"/><path class="ha12-2" d="M16,18v1h1V18Z"/><path class="ha12-9" d="M19,14h1V11H19v3Z"/><rect class="ha12-9" x="18" y="10" width="1" height="1"/><path class="ha12-9" d="M18,10V9H11v1h7Z"/><rect class="ha12-9" x="10" y="10" width="1" height="1"/><path class="ha12-9" d="M10,13V11H9v3h1Z"/></svg>