<svg xmlns="http://www.w3.org/2000/svg" viewBox="0 0 29 33"><defs><style>polygon,rect,path{shape-rendering:crispedges;}.fa61-1{fill:#6b4f99;}.fa61-2{fill:#000000;}.fa61-3{fill:#333333;}.fa61-4{fill:#6d3e35;}.fa61-5{fill:#ffffff;}.fa61-6{fill:#99004d;}.fa61-7{fill:#e70059;}.fa61-8{fill:#9b8100;}</style></defs><polygon class="fa61-1" points="0 33 6 33 6 32 6 31 6 30 6 29 6 28 6 27 7 27 7 26 8 26 8 25 9 25 10 25 10 24 11 24 12 24 12 23 12 22 12 21 11 21 10 21 10 22 9 22 9 21 8 21 8 20 9 20 9 19 9 18 9 17 8 17 8 16 8 15 8 14 8 13 8 12 9 12 9 11 9 10 10 10 10 9 11 9 11 8 18 8 18 9 19 9 19 10 20 10 20 11 20 12 21 12 21 13 21 14 21 15 21 16 21 17 21 18 20 18 20 19 20 20 21 20 21 21 20 21 20 22 19 22 19 21 18 21 17 21 17 22 17 23 17 24 18 24 19 24 19 25 20 25 21 25 21 26 22 26 22 27 23 27 23 28 23 29 23 30 23 31 23 32 23 33 29 33 29 0 0 0 0 33"/><polygon class="fa61-2" points="23 31 23 30 23 29 23 28 23 27 22 27 22 28 22 29 22 30 21 30 21 29 21 28 21 27 20 27 20 28 20 29 20 30 20 31 20 32 20 33 21 33 21 32 21 31 22 31 22 32 22 33 23 33 23 32 23 31"/><rect class="fa61-2" x="21" y="26" width="1" height="1"/><polygon class="fa61-3" points="21 28 21 29 21 30 22 30 22 29 22 28 22 27 21 27 21 28"/><polygon class="fa61-4" points="22 31 21 31 21 32 21 33 22 33 22 32 22 31"/><polygon class="fa61-2" points="20 26 21 26 21 25 20 25 19 25 19 26 20 26"/><polygon class="fa61-3" points="20 31 20 30 20 29 20 28 20 27 21 27 21 26 20 26 19 26 19 25 18 25 17 25 17 26 16 26 16 27 15 27 14 27 13 27 13 26 12 26 12 25 11 25 10 25 10 26 9 26 8 26 8 27 9 27 9 28 9 29 9 30 9 31 9 32 9 33 10 33 11 33 12 33 13 33 14 33 15 33 16 33 17 33 18 33 19 33 20 33 20 32 20 31"/><polygon class="fa61-2" points="18 25 19 25 19 24 18 24 17 24 17 25 18 25"/><rect class="fa61-2" x="16" y="25" width="1" height="1"/><polygon class="fa61-2" points="14 26 13 26 13 27 14 27 15 27 16 27 16 26 15 26 14 26"/><polygon class="fa61-2" points="13 23 14 23 15 23 16 23 16 24 17 24 17 23 17 22 17 21 16 21 16 22 15 22 14 22 13 22 13 21 12 21 12 22 12 23 12 24 13 24 13 23"/><polygon class="fa61-4" points="13 25 13 26 14 26 15 26 16 26 16 25 17 25 17 24 16 24 16 23 15 23 14 23 13 23 13 24 12 24 12 25 13 25"/><rect class="fa61-2" x="12" y="25" width="1" height="1"/><polygon class="fa61-2" points="12 25 12 24 11 24 10 24 10 25 11 25 12 25"/><polygon class="fa61-2" points="10 26 10 25 9 25 8 25 8 26 9 26 10 26"/><polygon class="fa61-2" points="9 31 9 30 9 29 9 28 9 27 8 27 8 28 8 29 8 30 7 30 7 29 7 28 7 27 6 27 6 28 6 29 6 30 6 31 6 32 6 33 7 33 7 32 7 31 8 31 8 32 8 33 9 33 9 32 9 31"/><rect class="fa61-2" x="7" y="26" width="1" height="1"/><polygon class="fa61-3" points="7 29 7 30 8 30 8 29 8 28 8 27 7 27 7 28 7 29"/><polygon class="fa61-4" points="8 31 7 31 7 32 7 33 8 33 8 32 8 31"/><path class="fa61-4" d="M13,22h3V21h1V20h1V19h1V16h1V15H16V14h3V13H16V12h1V11H16V10H15v1H14v1H13v1H12v1h1v1H10v4h1v1h1v1h1Zm1-6h1v1H14Zm-2,3V18h5v1H16v1H13V19Z"/><polygon class="fa61-2" points="20 16 19 16 19 17 19 18 19 19 20 19 20 18 20 17 20 16"/><rect class="fa61-2" x="18" y="19" width="1" height="1"/><rect class="fa61-2" x="17" y="20" width="1" height="1"/><rect class="fa61-2" x="11" y="20" width="1" height="1"/><rect class="fa61-2" x="10" y="19" width="1" height="1"/><rect class="fa61-2" x="9" y="18" width="1" height="1"/><rect class="fa61-2" x="14" y="16" width="1" height="1"/><rect class="fa61-5" x="18" y="14" width="1" height="1"/><rect class="fa61-5" x="12" y="14" width="1" height="1"/><polygon class="fa61-2" points="17 14 16 14 16 15 17 15 18 15 18 14 17 14"/><polygon class="fa61-2" points="10 14 10 15 11 15 12 15 12 14 11 14 10 14"/><polygon class="fa61-6" points="17 12 16 12 16 13 18 13 18 12 17 12"/><rect class="fa61-2" x="12" y="18" width="1" height="1"/><rect class="fa61-2" x="16" y="18" width="1" height="1"/><rect class="fa61-2" x="15" y="19" width="1" height="1"/><rect class="fa61-2" x="14" y="18" width="1" height="1"/><rect class="fa61-2" x="13" y="19" width="1" height="1"/><rect class="fa61-5" x="13" y="18" width="1" height="1"/><rect class="fa61-5" x="15" y="18" width="1" height="1"/><rect class="fa61-7" x="14" y="19" width="1" height="1"/><polygon class="fa61-8" points="19 20 18 20 18 21 19 21 19 22 20 22 20 21 21 21 21 20 20 20 20 19 19 19 19 20"/><polygon class="fa61-8" points="10 20 10 19 9 19 9 20 8 20 8 21 9 21 9 22 10 22 10 21 11 21 11 20 10 20"/><polygon class="fa61-8" points="10 17 10 16 10 15 10 14 11 14 12 14 12 13 13 13 13 12 14 12 14 11 15 11 15 10 16 10 16 11 17 11 17 12 18 12 18 13 19 13 19 14 19 15 20 15 20 16 20 17 20 18 21 18 21 17 21 16 21 15 21 14 21 13 21 12 20 12 20 11 20 10 19 10 19 9 18 9 18 8 11 8 11 9 10 9 10 10 9 10 9 11 9 12 8 12 8 13 8 14 8 15 8 16 8 17 9 17 9 18 10 18 10 17"/></svg>