<svg xmlns="http://www.w3.org/2000/svg" viewBox="0 0 29 33"><defs><style>polygon,rect,path{shape-rendering:crispedges;}.gb228-1{fill:#6b4f99;}.gb228-2{fill:#000000;}.gb228-3{fill:#9b8100;}.gb228-4{fill:#004a77;}.gb228-5{fill:#b2622b;}.gb228-6{fill:#90a2a3;}.gb228-7{fill:#00686d;}.gb228-8{fill:#ffffff;}.gb228-9{fill:#d2d8b8;}.gb228-10{fill:#fad000;}</style></defs><path class="gb228-1" d="M0,33H6V27H7V26H8V25H9V24h1V23h1V22h1V21H10v1H9V21H8V20H9V17H8V12H9V10h1V9h1V8h7V9h1v1h1v2h1v6H20v2h1v1H20v1H19V21H17v1h1v1h1v1h1v1h1v1h1v1h1v6h6V0H0Z"/><path class="gb228-2" d="M23,27H22v6h1V27Z"/><path class="gb228-3" d="M22,27H21v6h1V27Z"/><path class="gb228-2" d="M21,27h1V26H21V25H20v2H17v1h2v1h1v4h1V27Z"/><rect class="gb228-2" x="19" y="24" width="1" height="1"/><path class="gb228-3" d="M20,29H19v1H18v1H17v1H16v1h4V29Z"/><rect class="gb228-2" x="18" y="23" width="1" height="1"/><path class="gb228-3" d="M18,25H17v1H16v5h1V30h1V29h1V28H17V27h2V26h1V25H19V24H18Z"/><rect class="gb228-3" x="17" y="23" width="1" height="1"/><rect class="gb228-2" x="17" y="24" width="1" height="1"/><rect class="gb228-2" x="18" y="29" width="1" height="1"/><rect class="gb228-2" x="16" y="25" width="1" height="1"/><path class="gb228-4" d="M15,27H14v6h1V27Z"/><path class="gb228-2" d="M12,24h1V23h3v1h1V23h1V22H17V21H16v1H13V21H12v1H11v1h1Z"/><path class="gb228-5" d="M17,25V24H16V23H13v1H12v1h1v1h3V25Z"/><rect class="gb228-2" x="12" y="25" width="1" height="1"/><path class="gb228-3" d="M12,32V31H11V30H10V29H9v4h4V32Z"/><rect class="gb228-3" x="11" y="23" width="1" height="1"/><rect class="gb228-2" x="11" y="24" width="1" height="1"/><rect class="gb228-2" x="11" y="30" width="1" height="1"/><rect class="gb228-2" x="10" y="23" width="1" height="1"/><rect class="gb228-2" x="9" y="24" width="1" height="1"/><path class="gb228-3" d="M10,26v1h2v1H10v1h1v1h1v1h1V26H12V25H11V24H10v1H9v1Z"/><path class="gb228-2" d="M9,29h1V28h2V27H9V25H8v1H7v1H8v6H9V29Z"/><path class="gb228-3" d="M8,27H7v6H8V27Z"/><path class="gb228-2" d="M7,27H6v6H7V27Z"/><rect class="gb228-2" x="10" y="29" width="1" height="1"/><rect class="gb228-2" x="17" y="30" width="1" height="1"/><path class="gb228-2" d="M17,32V31H16V26H13v5H12v1h1v1h1V27h1v6h1V32Z"/><path class="gb228-6" d="M9,26v1h1V26Z"/><path class="gb228-6" d="M19,27h1V26H19Z"/><path class="gb228-5" d="M13,22h3V21h1V20h1V19h1V16H18v1H16V16H15v1H14V16H13v1H11V16H10v3h1v1h1v1h1Zm-1-3V18h5v1H16v1H13V19Z"/><rect class="gb228-5" x="18" y="13" width="1" height="1"/><path class="gb228-5" d="M14,14h2V13h1V11H16V10H15v1H14v1H13v2Z"/><rect class="gb228-5" x="19" y="15" width="1" height="1"/><rect class="gb228-5" x="14" y="15" width="1" height="1"/><path class="gb228-2" d="M20,16H19v3h1V16Z"/><rect class="gb228-2" x="18" y="19" width="1" height="1"/><path class="gb228-2" d="M17,20v1h1V20Z"/><path class="gb228-2" d="M11,20v1h1V20Z"/><rect class="gb228-2" x="10" y="19" width="1" height="1"/><path class="gb228-2" d="M10,18H9v1h1Z"/><rect class="gb228-2" x="14" y="16" width="1" height="1"/><path class="gb228-7" d="M18,13V12H17v1Z"/><path class="gb228-2" d="M13,18H12v1h1Z"/><path class="gb228-2" d="M17,19V18H16v1Z"/><path class="gb228-2" d="M13,19v1h3V19H15V18H14v1Z"/><path class="gb228-8" d="M14,19V18H13v1Z"/><path class="gb228-8" d="M16,19V18H15v1Z"/><path class="gb228-9" d="M19,20H18v1h1v1h1V21h1V20H20V19H19Z"/><path class="gb228-9" d="M10,20V19H9v1H8v1H9v1h1V21h1V20Z"/><path class="gb228-9" d="M20,18h1V17H20Z"/><path class="gb228-9" d="M10,17V14h1V13h2V12h1V11h1V10h1v1h1v1h1v1h1v2h1v1h1V12H20V10H19V9H18V8H11V9H10v1H9v2H8v4H9v2h1Z"/><path class="gb228-10" d="M20,17h1V16H20Z"/><path class="gb228-10" d="M8,16v1H9V16Z"/><path class="gb228-8" d="M13,13H11v1h2Z"/><path class="gb228-8" d="M11,17h2V16H11Z"/><path class="gb228-8" d="M10,14v2h1V14Z"/><path class="gb228-2" d="M11,14v2h2V14Z"/><path class="gb228-8" d="M19,14H18v2h1V14Z"/><path class="gb228-8" d="M16,13v1h2V13H16Z"/><path class="gb228-8" d="M16,17h2V16H16Z"/><path class="gb228-8" d="M14,14H13v2h1V15h1v1h1V14Z"/><path class="gb228-2" d="M16,14v2h2V14Z"/></svg>