<svg xmlns="http://www.w3.org/2000/svg" viewBox="0 0 29 33"><defs><style>polygon,rect,path{shape-rendering:crispedges;}.ya78-1{fill:#397d98;}.ya78-2{fill:#000000;}.ya78-3{fill:#d8be00;}.ya78-4{fill:#b2622b;}.ya78-5{fill:#2e1572;}.ya78-6{fill:#ffffff;}.ya78-7{fill:#99004d;}.ya78-8{fill:#99004d;}.ya78-9{fill:#6e12ff;}.ya78-10{fill:#a3531d;}.ya78-11{fill:#b3bbce;}</style></defs><path class="ya78-1" d="M0,33H29V0H0Zm6-1V27H7V26H8V25h2V24h1V23h1V21H11V20H10V19H9V16H8V15H9V11h1V10h1V9h2V7h1V6h2V5h2V6H17V7h1V9h1v2h1v4h1v1H20v3H19v1H18v1H17v2h1v1h1V23h0V21h3v1h1v1h1v8H23v1H21v1H6Z"/><path class="ya78-1" d="M20,25h1V24H19v1Z"/><path class="ya78-2" d="M23,25v6h1V23H23v2Z"/><path class="ya78-2" d="M7,32V27H6v6H7Z"/><path class="ya78-3" d="M8,30H7v1H8Z"/><path class="ya78-3" d="M8,28V27H7v1Z"/><rect class="ya78-2" x="7" y="26" width="1" height="1"/><path class="ya78-2" d="M9,30V27H8v6H9V30Z"/><path class="ya78-3" d="M14,28h6V27H9v1Z"/><rect class="ya78-3" x="15" y="30" width="5" height="1"/><path class="ya78-3" d="M9,30v1h5V30Z"/><path class="ya78-2" d="M10,25H8v1h2Z"/><rect class="ya78-3" x="12" y="24" width="1" height="1"/><path class="ya78-2" d="M11,26h2V25H12V24h1V22H12v1H11v1H10v1h1Z"/><rect class="ya78-2" x="13" y="24" width="1" height="1"/><path class="ya78-2" d="M14,32v1h1V32Z"/><rect class="ya78-2" x="14" y="30" width="1" height="1"/><path class="ya78-2" d="M15,29V28H14v1Z"/><path class="ya78-2" d="M15,26V25H14v2h1Z"/><rect class="ya78-2" x="15" y="24" width="1" height="1"/><path class="ya78-4" d="M15,24h1V23H13v1h1v1h1Z"/><rect class="ya78-3" x="16" y="24" width="1" height="1"/><path class="ya78-2" d="M22,30V24H21v1H19v1h2v1H20v6h1V32h2V31H22Z"/><path class="ya78-3" d="M22,30v1h1V30Z"/><path class="ya78-3" d="M22,28h1V27H22Z"/><path class="ya78-3" d="M23,25V24H22v1Z"/><path class="ya78-5" d="M15,31H9v2h5V32h1v1h5V31Z"/><path class="ya78-5" d="M15,29H14V28H9v2H20V28H15Z"/><path class="ya78-5" d="M9,27h5V25H13v1H11V25H10v1H8v1Z"/><path class="ya78-5" d="M15,26v1h6V26H19V25H18v1H16V25H15Z"/><path class="ya78-5" d="M22,29v1h1V28H22Z"/><path class="ya78-5" d="M22,26v1h1V25H22Z"/><path class="ya78-5" d="M7,31v2H8V31Z"/><path class="ya78-5" d="M8,29V28H7v2H8Z"/><rect class="ya78-2" x="20" y="15" width="1" height="1"/><path class="ya78-2" d="M19,14v1h1V11H19v3Z"/><rect class="ya78-4" x="13" y="20" width="1" height="1"/><rect class="ya78-4" x="15" y="20" width="1" height="1"/><path class="ya78-4" d="M10,17v1h1v1h1V18h2v1h1V18h2v1h1V18h1V16h1V15H16V13h3V11H18V10H15v1H13V10H11v1H10v1h3v1H10v1h3v1H9v1h1Zm4-1h1v1H14Z"/><path class="ya78-2" d="M19,17h1V16H19Z"/><path class="ya78-2" d="M18,11h1V10H18Z"/><path class="ya78-2" d="M16,23v1h1v1H16v1h2V25h1V24H18V23H17V22H16Z"/><path class="ya78-2" d="M16,10h2V9H16Z"/><path class="ya78-2" d="M13,9H11v1h2Z"/><rect class="ya78-2" x="10" y="10" width="1" height="1"/><path class="ya78-2" d="M10,14V11H9v4h1Z"/><path class="ya78-2" d="M10,16H9v1h1Z"/><rect class="ya78-2" x="8" y="15" width="1" height="1"/><rect class="ya78-2" x="14" y="16" width="1" height="1"/><path class="ya78-6" d="M13,15V14H12v1Z"/><path class="ya78-6" d="M11,15V14H10v1Z"/><path class="ya78-6" d="M18,14v1h1V14Z"/><path class="ya78-6" d="M16,14v1h1V14Z"/><path class="ya78-2" d="M12,15V14H11v1Z"/><path class="ya78-2" d="M17,14v1h1V14Z"/><path class="ya78-7" d="M13,13V12H10v1Z"/><path class="ya78-7" d="M18,14h1V13H16v1h2Z"/><path class="ya78-8" d="M13,23h3V22h1V21h1V20h1V19h1V17H19v1H18v1H17V18H15v1h1v2H15V20H14v1H13V19h1V18H12v1H11V18H10V17H9v2h1v1h1v1h1v1h1Z"/><path class="ya78-2" d="M13,19v1h3V19H13Z"/><path class="ya78-9" d="M13,11h2V10h1V9h2V7H17V6h1V5H16V6H14V7H13v4Z"/><path class="ya78-9" d="M19,10V9H18v1Z"/><path class="ya78-10" d="M21,23H19v1h2Z"/><path class="ya78-11" d="M22,22V21H19v2h3V22Z"/><path class="ya78-4" d="M22,24h1V23H21v1Z"/><path class="ya78-2" d="M23,22H22v1h1Z"/><rect class="ya78-9" x="18" y="9" width="1" height="1"></rect></svg>