<svg xmlns="http://www.w3.org/2000/svg" viewBox="0 0 29 33"><defs><style>polygon,rect,path{shape-rendering:crispedges;}.va162-1{fill:#db5a8e;}.va162-2{fill:#68aaad;}.va162-3{fill:#000000;}.va162-4{fill:#e8b795;}.va162-5{fill:#316a6d;}.va162-6{fill:#ffffff;}.va162-7{fill:#00774c;}.va162-8{fill:#0068ff;}</style></defs><path class="va162-1" d="M0,33H6V27H7V26H8V25h2V22h1V20H10V19H9V16H8V15H9V11h1V9h1V7h1V6H11V5h2V6h2V7h1V9h2v1h1v1h1v4h1v1H20v3H19v1H18v2h1v3h2v1h1v1h1v6h6V0H0Z"/><rect class="va162-2" x="17" y="22" width="1" height="1"/><path class="va162-2" d="M18,24H16v1h1v1h1v2h1v1h1V27H19V25H18Z"/><path class="va162-2" d="M15,30V28H14v3h2V30Z"/><path class="va162-2" d="M18,30V28H17V27H16V25H15v3h1v1h1v2h2V30Z"/><rect class="va162-2" x="21" y="27" width="1" height="1"/><path class="va162-2" d="M21,31v1h1V30H21Z"/><rect class="va162-2" x="16" y="32" width="1" height="1"/><rect class="va162-2" x="19" y="32" width="1" height="1"/><rect class="va162-2" x="10" y="32" width="1" height="1"/><rect class="va162-2" x="13" y="32" width="1" height="1"/><path class="va162-2" d="M8,29V27H7v2Z"/><path class="va162-2" d="M7,31v2H8V31Z"/><path class="va162-2" d="M12,25V24H11v2h1v2h1V25Z"/><path class="va162-2" d="M12,29V28H11V27H10V26H9v2h1v1h1v2h2V30H12Z"/><rect class="va162-2" x="9" y="30" width="1" height="1"/><rect class="va162-2" x="11" y="22" width="1" height="1"/><path class="va162-3" d="M23,27H22v6h1V27Z"/><rect class="va162-3" x="21" y="26" width="1" height="1"/><path class="va162-3" d="M21,31V27H20v4H14V27H13v4H9V27H8v6H9V32H20v1h1V31Z"/><path class="va162-3" d="M20,26h1V25H19v1Z"/><path class="va162-3" d="M18,24v1h1V22H18v2Z"/><rect class="va162-3" x="15" y="24" width="1" height="1"/><path class="va162-3" d="M15,26V25H14v2h1Z"/><rect class="va162-3" x="13" y="24" width="1" height="1"/><path class="va162-4" d="M14,25h1V24h1V23H13v1h1Z"/><path class="va162-3" d="M11,24V22H10v3h1Z"/><path class="va162-3" d="M10,26V25H8v1h2Z"/><rect class="va162-3" x="7" y="26" width="1" height="1"/><path class="va162-3" d="M7,30V27H6v6H7V30Z"/><rect class="va162-3" x="20" y="15" width="1" height="1"/><path class="va162-3" d="M19,14v1h1V11H19v3Z"/><path class="va162-4" d="M12,21h1v1h3V21h1V20h1V19h1V16h1V15H16V14h2V13H16V12h2v1h1V11H18V10H16v1H14V10H11v1H10v1h2v1h1v2H9v1h1v3h1v1h1Zm2-5h1v1H14Zm-1,3h3V18h1v1H16v1H13Z"/><path class="va162-4" d="M10,14h2V13H10Z"/><path class="va162-3" d="M19,17v2h1V16H19Z"/><rect class="va162-3" x="18" y="10" width="1" height="1"/><rect class="va162-3" x="18" y="19" width="1" height="1"/><path class="va162-3" d="M12,23v1h1V23h3v1h1V22h1V20H17v1H16v1H13V21H12V20H11v2h1Z"/><path class="va162-3" d="M17,10h1V9H16v1Z"/><path class="va162-3" d="M12,10h1V9H11v1Z"/><path class="va162-3" d="M11,10H10v1h1Z"/><rect class="va162-3" x="10" y="19" width="1" height="1"/><path class="va162-3" d="M10,16H9v3h1V16Z"/><rect class="va162-3" x="8" y="15" width="1" height="1"/><rect class="va162-3" x="14" y="16" width="1" height="1"/><path class="va162-5" d="M21,29v1h1V28H21Z"/><path class="va162-5" d="M21,32v1h1V32Z"/><path class="va162-5" d="M19,26v1h2V26H19Z"/><path class="va162-5" d="M19,28H18v2h1v1h1V29H19Z"/><path class="va162-5" d="M17,27v1h1V26H17V25H16v2Z"/><path class="va162-5" d="M18,32H17v1h2V32Z"/><path class="va162-5" d="M16,29V28H15v2h1v1h1V29Z"/><path class="va162-5" d="M15,27H14v1h1Z"/><path class="va162-5" d="M13,25v2h1V25Z"/><path class="va162-5" d="M15,32H14v1h2V32Z"/><path class="va162-5" d="M12,29v1h1V28H12Z"/><rect class="va162-5" x="12" y="24" width="1" height="1"/><path class="va162-5" d="M12,23H11v1h1Z"/><path class="va162-5" d="M18,23H17v1h1Z"/><path class="va162-5" d="M10,27h1v1h1V26H11V25H10v2Z"/><path class="va162-5" d="M12,32H11v1h2V32Z"/><path class="va162-5" d="M10,29V28H9v2h1v1h1V29Z"/><path class="va162-5" d="M9,32v1h1V32Z"/><path class="va162-5" d="M9,27V26H8v1Z"/><path class="va162-5" d="M7,30v1H8V29H7Z"/><path class="va162-6" d="M18,14v1h1V14Z"/><path class="va162-6" d="M12,15h1V14H12Z"/><path class="va162-3" d="M17,14H16v1h2V14Z"/><path class="va162-3" d="M12,15V14H10V11H9v4h3Z"/><path class="va162-7" d="M19,13H18v1h1Z"/><rect class="va162-7" x="16" y="12" width="2" height="1"/><path class="va162-7" d="M13,14V13H12v1Z"/><path class="va162-7" d="M12,13V12H10v1Z"/><rect class="va162-3" x="13" y="19" width="3" height="1"/><rect class="va162-3" x="16" y="18" width="1" height="1"/><path class="va162-8" d="M13,10h1v1h2V7H15V6H13V5H11V6h1V7H11V9h2Z"/><path class="va162-8" d="M11,9H10v1h1Z"/><rect class="va162-8" x="10" y="9" width="1" height="1"></rect></svg>