<svg xmlns="http://www.w3.org/2000/svg" viewBox="0 0 29 33"><defs><style>polygon,rect,path{shape-rendering:crispedges;}.sa25-1{fill:#b4bd09;}.sa25-2{fill:#000000;}.sa25-3{fill:#3f2f17;}.sa25-4{fill:#c18d59;}.sa25-5{fill:#8c7850;}.sa25-6{fill:#ffffff;}.sa25-7{fill:#4922aa;}.sa25-8{fill:#99004d;}</style></defs><path class="sa25-1" d="M11,24V23H10V22H9v1H8v2h2V24Z"/><path class="sa25-2" d="M6,24V23H5v8H6V24Z"/><path class="sa25-2" d="M23,27H22v6h1V27Z"/><path class="sa25-3" d="M22,27H21v6h1V27Z"/><rect class="sa25-2" x="21" y="26" width="1" height="1"/><path class="sa25-2" d="M21,27H20v6h1V27Z"/><rect class="sa25-3" x="10" y="29" width="1" height="1"/><path class="sa25-3" d="M16,25h1v4h1V28h1v1h1V27h1V26H19V25H18V24H16Z"/><rect class="sa25-3" x="18" y="29" width="1" height="1"/><path class="sa25-3" d="M19,32V31H18v1H17V30H16v1H15v1H13V30H12v2H11V31H10v1H9v1H20V32Z"/><path class="sa25-3" d="M10,28h1v1h1V25h1V24H11v1H10v1H8v1H9v2h1Z"/><path class="sa25-2" d="M20,26h1V25H19v1Z"/><rect class="sa25-2" x="18" y="24" width="1" height="1"/><path class="sa25-2" d="M16,24h2V23H16Z"/><path class="sa25-2" d="M13,24v1h3V24H13Z"/><path class="sa25-4" d="M14,24h2V23H13v1Z"/><path class="sa25-2" d="M12,24h1V23H11v1Z"/><rect class="sa25-2" x="10" y="24" width="1" height="1"/><path class="sa25-2" d="M9,31V27H8V26h2V25H8V23H7v8H6v1H8v1H9V31Z"/><path class="sa25-3" d="M7,30V24H6v7H7Z"/><path class="sa25-3" d="M13,25v3h2v1h1V25H13Z"/><path class="sa25-3" d="M14,29v2h1V29Z"/><path class="sa25-5" d="M19,30H18V29H17v3h1V31h1v1h1V29H19Z"/><rect class="sa25-5" x="18" y="28" width="1" height="1"/><path class="sa25-5" d="M15,29v2h1V29Z"/><path class="sa25-5" d="M14,30V29h1V28H13v4h2V31H14Z"/><path class="sa25-5" d="M11,29v1H10V29H9v3h1V31h1v1h1V29Z"/><rect class="sa25-5" x="10" y="28" width="1" height="1"/><path class="sa25-2" d="M13,25H12v5h1V25Z"/><path class="sa25-2" d="M17,28V25H16v5h1V28Z"/><path class="sa25-4" d="M16,22V21h1V20h1V19h1V15H16V13h1V11H12v1h1v1H11v1h2v1H10v4h1v1h1v1h1v1h3Zm-2-6h1v1H14Zm-2,3V18h5v1H16v1H13V19Z"/><polygon class="sa25-4" points="18 14 19 14 19 13 17 13 17 14 18 14"/><rect class="sa25-4" x="10" y="12" width="1" height="1"/><rect class="sa25-2" x="14" y="16" width="1" height="1"/><path class="sa25-6" d="M13,15V14H12v1Z"/><path class="sa25-6" d="M10,15h1V14H10Z"/><path class="sa25-6" d="M18,14v1h1V14Z"/><path class="sa25-6" d="M16,14v1h1V14Z"/><path class="sa25-2" d="M12,15V14H11v1Z"/><path class="sa25-2" d="M17,14v1h1V14Z"/><rect class="sa25-7" x="10" y="13" width="1" height="1"/><path class="sa25-7" d="M11,13h2V12H11Z"/><path class="sa25-7" d="M17,13H16v1h1Z"/><path class="sa25-7" d="M17,12v1h2V12H17Z"/><path class="sa25-2" d="M7,21H8v2H9V22h1V21H9V20H8V11H7v8H5v1H7Z"/><path class="sa25-2" d="M5,20H4v3H5V20Z"/><path class="sa25-4" d="M6,24H7V23H8V21H7V20H5v3H6Z"/><path class="sa25-3" d="M8,20H9v1h1v1h1v1h2V22H12V21H11V20H10V19H9V12h1V11h2V10h5v1h2v1h1v7H19v1H18v1H17v1H16v1h2V22h1V21h1V20h1V11H20V10H19V9H18V8H11V9H10v1H9v1H8v9Z"/><rect class="sa25-2" x="10" y="8" width="1" height="1"/><rect class="sa25-2" x="9" y="9" width="1" height="1"/><rect class="sa25-2" x="8" y="10" width="1" height="1"/><rect class="sa25-2" x="10" y="22" width="1" height="1"/><rect class="sa25-2" x="18" y="22" width="1" height="1"/><rect class="sa25-2" x="19" y="21" width="1" height="1"/><rect class="sa25-2" x="20" y="20" width="1" height="1"/><path class="sa25-2" d="M21,20h1V11H21v9Z"/><rect class="sa25-2" x="20" y="10" width="1" height="1"/><rect class="sa25-2" x="19" y="9" width="1" height="1"/><rect class="sa25-2" x="18" y="8" width="1" height="1"/><path class="sa25-2" d="M18,8V7H11V8h7Z"/><path class="sa25-2" d="M12,12V11H10v1h2Z"/><path class="sa25-2" d="M10,15V12H9v7h1V15Z"/><rect class="sa25-2" x="10" y="19" width="1" height="1"/><rect class="sa25-2" x="11" y="20" width="1" height="1"/><rect class="sa25-2" x="12" y="21" width="1" height="1"/><path class="sa25-2" d="M16,23V22H13v1h3Z"/><rect class="sa25-2" x="16" y="21" width="1" height="1"/><rect class="sa25-2" x="17" y="20" width="1" height="1"/><rect class="sa25-2" x="18" y="19" width="1" height="1"/><path class="sa25-2" d="M19,14v5h1V12H19v2Z"/><path class="sa25-2" d="M18,12h1V11H17v1Z"/><path class="sa25-2" d="M17,11V10H12v1h5Z"/><path class="sa25-1" d="M0,7V33H8V32H6V31H5V23H4V20H5V19H7V11H8V10H9V9h1V8h1V7h7V8h1V9h1v1h1v1h1v9H21v1H20v1H19v1H18v1h1v1h2v1h1v1h1v6h6V0H0Z"/><path class="sa25-8" d="M17,19V18H13v1h4Z"/><path class="sa25-2" d="M16,20V19H13v1Z"/><path class="sa25-2" d="M12,18v1h1V18Z"/></svg>