<svg xmlns="http://www.w3.org/2000/svg" viewBox="0 0 29 33"><defs><style>polygon,rect,path{shape-rendering:crispedges;}.ja258-1{fill:#e55b35;}.ja258-2{fill:#000000;}.ja258-3{fill:#825fff;}.ja258-4{fill:#4922aa;}.ja258-5{fill:#b2622b;}.ja258-6{fill:#7f5018;}.ja258-7{fill:#0079bc;}.ja258-8{fill:#68aaad;}</style></defs><path class="ja258-1" d="M0,33H6V27H7V26H8V25h2V24h2V22H11V21H10V20H9V16H8V15H9V11h1V9h1V7h1V6H11V5h2V6h2V7h1V9h2v1h1v1h1v4h1v1H20v4H19v1H18v1H17v2h2v1h2v1h1v1h1v6h6V0H0Z"/><path class="ja258-2" d="M23,27H22v6h1V27Z"/><rect class="ja258-2" x="21" y="26" width="1" height="1"/><path class="ja258-3" d="M21,31v2h1V31Z"/><path class="ja258-3" d="M21,28v2h1V27H21Z"/><path class="ja258-2" d="M21,30V27H20v6h1V30Z"/><path class="ja258-2" d="M20,26h1V25H19v1Z"/><path class="ja258-3" d="M20,32V26H19V25H17V24H16V23H13v1H12v1H10v1H9v6h1v1h4V32h1v1h4V32Zm-9-3H10V28h1Zm2,2H12V30h1Zm0-4H12V26h1Zm2,2H14V28h1Zm0-4H14V24h1Zm2,6H16V30h1Zm0-4H16V26h1Zm1,2V28h1v1Z"/><path class="ja258-2" d="M18,25h1V24H17v1Z"/><path class="ja258-2" d="M16,24h1V23H16Z"/><path class="ja258-2" d="M13,23H12v1h1Z"/><path class="ja258-2" d="M12,24H10v1h2Z"/><path class="ja258-2" d="M10,26V25H8v1h2Z"/><path class="ja258-2" d="M9,31V27H8v6H9V31Z"/><rect class="ja258-2" x="7" y="26" width="1" height="1"/><path class="ja258-3" d="M7,31v2H8V31Z"/><path class="ja258-3" d="M7,30H8V27H7v3Z"/><path class="ja258-2" d="M7,30V27H6v6H7V30Z"/><rect class="ja258-4" x="10" y="28" width="1" height="1"/><rect class="ja258-4" x="12" y="30" width="1" height="1"/><rect class="ja258-4" x="14" y="28" width="1" height="1"/><rect class="ja258-4" x="14" y="32" width="1" height="1"/><rect class="ja258-4" x="12" y="26" width="1" height="1"/><rect class="ja258-4" x="16" y="30" width="1" height="1"/><rect class="ja258-4" x="18" y="28" width="1" height="1"/><rect class="ja258-4" x="16" y="26" width="1" height="1"/><rect class="ja258-4" x="14" y="24" width="1" height="1"/><path class="ja258-4" d="M9,27V26H8v1Z"/><path class="ja258-4" d="M19,32v1h1V32Z"/><path class="ja258-4" d="M9,32v1h1V32Z"/><path class="ja258-4" d="M7,31H8V30H7Z"/><path class="ja258-4" d="M21,31h1V30H21Z"/><path class="ja258-4" d="M20,27h1V26H20Z"/><rect class="ja258-2" x="20" y="15" width="1" height="1"/><path class="ja258-2" d="M15,13v1h4v1h1V11H19v2Z"/><rect class="ja258-5" x="19" y="15" width="1" height="1"/><path class="ja258-5" d="M16,16V15H13v1H10v1h1v1h1v1h1V18h3v1h1V18h1V17h1V16H16Zm-1,1H14V16h1Z"/><path class="ja258-5" d="M14,13v1h1V13h4V11H18V10H16v1H14V10H11v1H10v2Z"/><rect class="ja258-5" x="9" y="15" width="1" height="1"/><rect class="ja258-2" x="18" y="10" width="1" height="1"/><path class="ja258-2" d="M17,10h1V9H16v1Z"/><path class="ja258-2" d="M12,10h1V9H11v1Z"/><path class="ja258-2" d="M11,10H10v1h1Z"/><rect class="ja258-2" x="8" y="15" width="1" height="1"/><rect class="ja258-2" x="14" y="16" width="1" height="1"/><path class="ja258-6" d="M15,18H13v1h3V18Z"/><path class="ja258-6" d="M14,23h3V22h1V21h1V20h1V16H19v1H18v1H17v1H16v1H13V19H12V18H11V17H10V16H9v4h1v1h1v1h1v1h2Z"/><rect class="ja258-2" x="13" y="19" width="3" height="1"/><path class="ja258-7" d="M13,10h1v1h2V7H15V6H13V5H11V6h1V7H11V9h2Z"/><path class="ja258-7" d="M11,9H10v1h1Z"/><path class="ja258-8" d="M13,16V15h1V14H10v2h3Z"/><path class="ja258-8" d="M19,14H15v1h1v1h3V14Z"/><path class="ja258-2" d="M10,14h4V13H10V11H9v4h1Z"/><path class="ja258-2" d="M15,15V14H14v1Z"/><rect class="ja258-7" x="10" y="9" width="1" height="1"></rect></svg>