<svg xmlns="http://www.w3.org/2000/svg" viewBox="0 0 29 33"><defs><style>polygon,rect,path{shape-rendering:crispedges;}.la161-1{fill:#31a09d;}.la161-2{fill:#000000;}.la161-3{fill:#8c7850;}.la161-4{fill:#cc3232;}.la161-5{fill:#ce8452;}.la161-6{fill:#7f5018;}.la161-7{fill:#ffffff;}.la161-8{fill:#00774c;}.la161-9{fill:#cc3232;}.la161-10{fill:#455054;}.la161-11{fill:#ffffff;}.la161-12{fill:#ff1f4a;}.la161-13{fill:#0068ff;}</style></defs><path class="la161-1" d="M8,18v4H9v2H8v1h2V24h2V21H11V20H10V19H9V16H8v2Z"/><path class="la161-1" d="M0,33H8V32H6V31H5V22H6V21H7V20H5v1H2V17H5V16H8V15H9V10h1V9h1V8h7V9h1v1h1v2h1v6H20v1H19v1H18v1H17v3h2v1h2v1h1v1h1v6h6V0H0Z"/><path class="la161-2" d="M23,27H22v6h1V27Z"/><rect class="la161-2" x="21" y="26" width="1" height="1"/><path class="la161-3" d="M21,28v2h1V27H21Z"/><path class="la161-3" d="M21,31v2h1V31Z"/><path class="la161-2" d="M21,30V27H20v6h1V30Z"/><path class="la161-2" d="M20,26h1V25H19v1Z"/><path class="la161-3" d="M20,32V26H19V25H17V24H16V23H13v1H12v1H10v1H9v6h1v1h4V32h1v1h4V32Zm-9-3H10V28h1Zm2,2H12V30h1Zm0-4H12V26h1Zm2,2H14V28h1Zm0-4H14V24h1Zm2,6H16V30h1Zm0-4H16V26h1Zm1,2V28h1v1Z"/><path class="la161-2" d="M18,25h1V24H17v1Z"/><path class="la161-2" d="M10,25h2V24H10Z"/><path class="la161-2" d="M9,31V27H8V26h2V25H8V24H7v7H6v1H8v1H9V31Z"/><path class="la161-3" d="M7,30H6v1H7Z"/><path class="la161-3" d="M6,27v2H7V26H6Z"/><path class="la161-3" d="M6,25H7V24H6Z"/><path class="la161-2" d="M6,29V22H5v9H6V29Z"/><rect class="la161-4" x="10" y="28" width="1" height="1"/><rect class="la161-4" x="12" y="30" width="1" height="1"/><rect class="la161-4" x="14" y="28" width="1" height="1"/><rect class="la161-4" x="14" y="32" width="1" height="1"/><rect class="la161-4" x="12" y="26" width="1" height="1"/><rect class="la161-4" x="16" y="30" width="1" height="1"/><rect class="la161-4" x="18" y="28" width="1" height="1"/><rect class="la161-4" x="16" y="26" width="1" height="1"/><rect class="la161-4" x="14" y="24" width="1" height="1"/><path class="la161-4" d="M8,27H9V26H8Z"/><path class="la161-4" d="M19,32v1h1V32Z"/><path class="la161-4" d="M9,32v1h1V32Z"/><path class="la161-4" d="M6,30H7V29H6Z"/><path class="la161-4" d="M6,26H7V25H6Z"/><path class="la161-4" d="M21,31h1V30H21Z"/><path class="la161-4" d="M20,27h1V26H20Z"/><path class="la161-5" d="M12,10H11v1h2V10Z"/><path class="la161-5" d="M10,16v3h1v1h1v1h1v1h3V21h1V20h1V19h1V16h1V15H19V14H18v1H16v1H15v1H14V16H13V15H11V14h1V13H10v2H9v1Zm3,3h3V18h1v1H16v1H13Z"/><path class="la161-2" d="M19,16v3h1V16Z"/><rect class="la161-2" x="18" y="19" width="1" height="1"/><rect class="la161-2" x="17" y="20" width="1" height="1"/><path class="la161-2" d="M16,22H13V21H12v3h1V23h3v1h1V21H16Z"/><rect class="la161-2" x="11" y="20" width="1" height="1"/><rect class="la161-2" x="10" y="19" width="1" height="1"/><path class="la161-2" d="M10,16H9v3h1V16Z"/><rect class="la161-2" x="8" y="15" width="1" height="1"/><path class="la161-6" d="M17,15h1V14H17Z"/><rect class="la161-6" x="16" y="13" width="1" height="1"/><rect class="la161-2" x="14" y="14" width="1" height="1"/><path class="la161-7" d="M16,14V13H13v1H12v1h1v1h3V15h1V14Zm-1,1H14V14h1Z"/><rect class="la161-6" x="12" y="13" width="1" height="1"/><path class="la161-6" d="M11,14v1h1V14Z"/><path class="la161-2" d="M14,17h1V16H14Z"/><rect class="la161-5" x="17" y="13" width="1" height="1"/><rect class="la161-2" x="13" y="19" width="3" height="1"/><rect class="la161-2" x="16" y="18" width="1" height="1"/><path class="la161-8" d="M19,13H18v1h1v1h1v3h1V12H20v1Z"/><path class="la161-8" d="M11,10h2v1h7V10H19V9H18V8H11V9H10v1H9v1h2Z"/><path class="la161-8" d="M10,14V13H9v2h1Z"/><path class="la161-7" d="M20,12V11H9v1H20Z"/><path class="la161-9" d="M12,13h8V12H9v1h3Z"/><path class="la161-5" d="M7,24H8V22H6v2Z"/><path class="la161-10" d="M8,22V20H7v2Z"/><path class="la161-2" d="M7,21H6v1H7Z"/><path class="la161-2" d="M9,22H8v2H9Z"/><path class="la161-11" d="M5,17H2v1H5Z"/><path class="la161-11" d="M8,16H5v1H8Z"/><path class="la161-12" d="M8,19H5v1H8Z"/><path class="la161-12" d="M2,21H5V20H2Z"/><path class="la161-13" d="M8,19V17H5v1H2v2H5V19Z"/></svg>