<svg xmlns="http://www.w3.org/2000/svg" viewBox="0 0 29 33"><defs><style>polygon,rect,path{shape-rendering:crispedges;}.da44-1{fill:#d4a122;}.da44-2{fill:#000000;}.da44-3{fill:#004a77;}.da44-4{fill:#b2622b;}.da44-5{fill:#38a6e8;}.da44-6{fill:#8e4717;}.da44-7{fill:#00774c;}.da44-8{fill:#db5800;}</style></defs><path class="da44-1" d="M0,33H6V27H7V26H8V25h2V24h2V21H11V20H10V19H9V16H8V15H9V10h1V9h1V8h7V9h1v1h1v5h1v1H20v3H19v1H18v1H17v3h2v1h2v1h1v1h1v6h6V0H0Z"/><path class="da44-2" d="M23,27H22v3H21V27H20v6h1V31h1v2h1V27Z"/><rect class="da44-2" x="21" y="26" width="1" height="1"/><path class="da44-3" d="M21,28v2h1V27H21Z"/><path class="da44-4" d="M21,31v2h1V31Z"/><path class="da44-2" d="M20,26h1V25H19v1Z"/><rect class="da44-3" x="13" y="29" width="1" height="2"/><path class="da44-3" d="M20,27h1V26H19V25H17v1H16v1H13V26H12V25H10v1H8v1H9v6H20V27Zm-9,2v3H10V28h1Zm4,3H12V28h3Zm4-3H17v2h1V30h1v2H16V28h3Z"/><path class="da44-2" d="M18,25h1V24H17v1Z"/><rect class="da44-2" x="16" y="25" width="1" height="1"/><path class="da44-2" d="M13,26v1h3V26H13Z"/><path class="da44-2" d="M13,23h3v1h1V21H16v1H13V21H12v3h1Z"/><path class="da44-4" d="M13,25v1h3V25h1V24H16V23H13v1H12v1Z"/><rect class="da44-2" x="12" y="25" width="1" height="1"/><path class="da44-2" d="M12,24H10v1h2Z"/><path class="da44-2" d="M10,25H8v1h2Z"/><path class="da44-2" d="M9,27H8v3H7V27H6v6H7V31H8v2H9V27Z"/><rect class="da44-2" x="7" y="26" width="1" height="1"/><path class="da44-3" d="M7,30H8V27H7v3Z"/><path class="da44-4" d="M7,31v2H8V31Z"/><path class="da44-5" d="M12,32h3V28H12Zm1-3h1v2H13Z"/><path class="da44-5" d="M10,29v3h1V28H10Z"/><path class="da44-5" d="M16,28v4h3V30H18v1H17V29h2V28H16Z"/><rect class="da44-2" x="20" y="15" width="1" height="1"/><path class="da44-4" d="M11,12h2v1h1v1h1V13h2V12h2V11H18V10H17v1H16V10H15v1H12V10H11v1H10v2h1Z"/><path class="da44-4" d="M13,22h3V21h1V20h1V19h1V16H16V15H13v1H10v3h1v1h1v1h1Zm1-6h1v1H14Zm-2,3V18h1v1h3v1H13V19Z"/><rect class="da44-4" x="19" y="15" width="1" height="1"/><rect class="da44-4" x="9" y="15" width="1" height="1"/><path class="da44-2" d="M19,17v2h1V16H19Z"/><rect class="da44-2" x="18" y="19" width="1" height="1"/><rect class="da44-2" x="17" y="20" width="1" height="1"/><rect class="da44-2" x="11" y="20" width="1" height="1"/><rect class="da44-2" x="10" y="19" width="1" height="1"/><path class="da44-2" d="M10,16H9v3h1V16Z"/><rect class="da44-2" x="8" y="15" width="1" height="1"/><rect class="da44-2" x="14" y="16" width="1" height="1"/><path class="da44-6" d="M11,12v1h2V12Z"/><path class="da44-6" d="M17,13h2V12H17Z"/><rect class="da44-2" x="13" y="19" width="3" height="1"/><rect class="da44-2" x="12" y="18" width="1" height="1"/><path class="da44-7" d="M10,13V11h1V10h1v1h3V10h1v1h1V10h1v1h1v3h1V10H19V9H18V8H11V9H10v1H9v4h1Z"/><path class="da44-8" d="M13,14H10v2h3V15h1V14Z"/><path class="da44-8" d="M19,14H15v1h1v1h3V14Z"/><path class="da44-2" d="M15,13v1h4V13H15Z"/><path class="da44-2" d="M13,14h1V13H10v1h3Z"/><path class="da44-2" d="M19,15h1V14H19Z"/><path class="da44-2" d="M10,14H9v1h1Z"/><path class="da44-2" d="M14,14v1h1V14Z"/></svg>