<svg xmlns="http://www.w3.org/2000/svg" viewBox="0 0 29 33"><defs><style>polygon,rect,path{shape-rendering:crispedges;}.sa23-1{fill:#6b4f99;}.sa23-2{fill:#000000;}.sa23-3{fill:#00af68;}.sa23-4{fill:#c18d59;}.sa23-5{fill:#00af68;}.sa23-6{fill:#ffffff;}.sa23-7{fill:#9b8100;}.sa23-8{fill:#492a23;}.sa23-9{fill:#cbed03;}.sa23-10{fill:#304400;}.sa23-11{fill:#a3531d;}.sa23-12{fill:#c3b3ce;}.sa23-13{fill:#99a8a5;}</style></defs><polygon class="sa23-1" points="19 24 19 23 19 23 18 23 18 24 19 24"/><path class="sa23-1" d="M19,25h2V24H19Z"/><path class="sa23-1" d="M0,0V33H6V27H7V26H8V25h2V24h1V23H10V22H9V21H8V20H7V11H8V10H9V9h1V8h1V7h7V8h1V9h1v1h1v1h1v9H21v1h1v2h0V22h1v1h1v8H23v1H21v1h8V0Z"/><path class="sa23-2" d="M23,25v6h1V23H23v2Z"/><path class="sa23-2" d="M7,27H6v6H7V27Z"/><path class="sa23-3" d="M8,27H7v6H8V27Z"/><rect class="sa23-2" x="7" y="26" width="1" height="1"/><path class="sa23-2" d="M9,31V27H8v6H9V31Z"/><path class="sa23-3" d="M19,32V31H18v1H17V30H16v1H15v1H13V30H12v2H11V31H10v1H9v1H20V32Z"/><path class="sa23-3" d="M9,27v2h1V28h1v1h1V25h1V24H11v1H10v1H8v1Z"/><rect class="sa23-3" x="10" y="29" width="1" height="1"/><path class="sa23-3" d="M18,24H16v1h1v4h1V28h1v1h1V27h1V26H19V25H18Z"/><rect class="sa23-3" x="18" y="29" width="1" height="1"/><path class="sa23-2" d="M10,25H8v1h2Z"/><rect class="sa23-2" x="10" y="24" width="1" height="1"/><path class="sa23-2" d="M13,23H11v1h2Z"/><path class="sa23-2" d="M16,25V24H13v1h3Z"/><path class="sa23-4" d="M16,24V23H13v1h3Z"/><path class="sa23-2" d="M17,24h1V23H16v1Z"/><rect class="sa23-2" x="18" y="24" width="1" height="1"/><path class="sa23-2" d="M22,32h1V31H22V24H21v1H19v1h2v1H20v6h1V32Z"/><path class="sa23-3" d="M23,25V24H22v7h1V25Z"/><path class="sa23-3" d="M14,29v2h1V29Z"/><path class="sa23-3" d="M13,28h2v1h1V25H13v3Z"/><path class="sa23-5" d="M19,30H18V29H17v3h1V31h1v1h1V29H19Z"/><rect class="sa23-5" x="18" y="28" width="1" height="1"/><path class="sa23-5" d="M15,29v2h1V29Z"/><path class="sa23-5" d="M14,30V29h1V28H13v4h2V31H14Z"/><path class="sa23-5" d="M11,29v1H10V29H9v3h1V31h1v1h1V29Z"/><rect class="sa23-5" x="10" y="28" width="1" height="1"/><path class="sa23-2" d="M13,27V25H12v5h1V27Z"/><path class="sa23-2" d="M17,28V25H16v5h1V28Z"/><rect class="sa23-4" x="16" y="13" width="1" height="1"/><rect class="sa23-4" x="13" y="20" width="1" height="1"/><rect class="sa23-4" x="15" y="20" width="1" height="1"/><path class="sa23-4" d="M18,15H15v2H14V16H13v1H10v1h1v1h1V18h2v1h1V18h2v1h1V18h1V15Z"/><path class="sa23-2" d="M14,17h1V16H14Z"/><path class="sa23-6" d="M19,15V14H18v1Z"/><path class="sa23-6" d="M17,14H16v1h1Z"/><path class="sa23-2" d="M18,15V14H17v1Z"/><path class="sa23-7" d="M15,16V15H14v1Z"/><path class="sa23-7" d="M15,15h1V13h1v1h2V12H17V11H15Z"/><path class="sa23-7" d="M11,16H10v1h1Z"/><path class="sa23-3" d="M13,22H12V21H11V20H10V19H9V12h1V11h2V10h5v1h2v1h1v7H19v1H18v1H17v1H16v1h2V22h1V21h1V20h1V11H20V10H19V9H18V8H11V9H10v1H9v1H8v9H9v1h1v1h1v1h2Z"/><rect class="sa23-2" x="10" y="8" width="1" height="1"/><rect class="sa23-2" x="9" y="9" width="1" height="1"/><rect class="sa23-2" x="8" y="10" width="1" height="1"/><path class="sa23-2" d="M8,11H7v9H8V11Z"/><rect class="sa23-2" x="8" y="20" width="1" height="1"/><rect class="sa23-2" x="9" y="21" width="1" height="1"/><rect class="sa23-2" x="10" y="22" width="1" height="1"/><polygon class="sa23-2" points="19 22 18 22 18 23 19 23 19 22"/><rect class="sa23-2" x="20" y="20" width="1" height="1"/><path class="sa23-2" d="M21,20h1V11H21v9Z"/><rect class="sa23-2" x="20" y="10" width="1" height="1"/><rect class="sa23-2" x="19" y="9" width="1" height="1"/><rect class="sa23-2" x="18" y="8" width="1" height="1"/><path class="sa23-2" d="M18,8V7H11V8h7Z"/><path class="sa23-2" d="M10,16h1V15H10V13h1V12h2v1h1v2h1V11h2V10H12v1H10v1H9v5h1Z"/><path class="sa23-2" d="M19,15v2h1V12H19v3Z"/><path class="sa23-2" d="M18,12h1V11H17v1Z"/><path class="sa23-8" d="M16,23V22h1V21h1V20h1V19h1V17H19v1H18v1H17V18H15v1h1v2H15V20H14v1H13V19h1V18H12v1H11V18H10V17H9v2h1v1h1v1h1v1h1v1h3Z"/><path class="sa23-9" d="M13,13H11v2h2Z"/><path class="sa23-10" d="M14,15V13H13v2Z"/><path class="sa23-10" d="M13,15H11v1h2Z"/><path class="sa23-10" d="M10,13v2h1V13Z"/><path class="sa23-10" d="M13,12H11v1h2Z"/><path class="sa23-2" d="M13,17V16H11v1Z"/><rect class="sa23-2" x="13" y="15" width="1" height="1"/><path class="sa23-2" d="M13,19v1h3V19H13Z"/><path class="sa23-11" d="M21,23H19v1h2V23Z"/><path class="sa23-12" d="M20,21v1H19v1h3V21H20Z"/><polygon class="sa23-13" points="20 21 19 21 19 22 20 22 20 21"/><path class="sa23-4" d="M21,24h2V23H21Z"/><path class="sa23-2" d="M23,22H22v1h1Z"/></svg>