<svg xmlns="http://www.w3.org/2000/svg" viewBox="0 0 29 33"><defs><style>polygon,rect,path{shape-rendering:crispedges;}.sa277-1{fill:#000000;}.sa277-2{fill:#ffb3c0;}.sa277-3{fill:#ce8452;}.sa277-4{fill:#5a2de2;}.sa277-5{fill:#ffffff;}.sa277-6{fill:#b4bd09;}.sa277-7{fill:#00686d;}.sa277-8{fill:#c8a715;}.sa277-9{fill:#b18518;}</style></defs><path class="sa277-1" d="M23,27H22v6h1V27Z"/><path class="sa277-2" d="M22,27H21v6h1V27Z"/><rect class="sa277-1" x="21" y="26" width="1" height="1"/><path class="sa277-1" d="M21,27H20v6h1V27Z"/><path class="sa277-2" d="M10,30h1V29h1V24H11v1H10v1H8v1H9v6h1V30Z"/><path class="sa277-2" d="M20,27h1V26H19V25H18V24H17v5h1v1h1v3h1V27Z"/><path class="sa277-1" d="M20,26h1V25H19v1Z"/><rect class="sa277-1" x="18" y="24" width="1" height="1"/><rect class="sa277-1" x="17" y="23" width="1" height="1"/><path class="sa277-1" d="M13,24v1h3V24H13Z"/><path class="sa277-3" d="M14,24h2V23H13v1Z"/><rect class="sa277-1" x="11" y="23" width="1" height="1"/><rect class="sa277-1" x="10" y="24" width="1" height="1"/><path class="sa277-1" d="M10,25H8v1h2Z"/><path class="sa277-1" d="M9,27H8v6H9V27Z"/><path class="sa277-2" d="M8,27H7v6H8V27Z"/><rect class="sa277-1" x="7" y="26" width="1" height="1"/><path class="sa277-1" d="M7,27H6v6H7V27Z"/><path class="sa277-2" d="M16,32H12v1h5V32Z"/><path class="sa277-2" d="M16,25H13v3h3V25Z"/><rect class="sa277-2" x="16" y="30" width="1" height="1"/><rect class="sa277-2" x="12" y="30" width="1" height="1"/><path class="sa277-4" d="M19,30H18V29H17v2H16V28H13v3H12V29H11v1H10v3h2V32h5v1h2V30Z"/><path class="sa277-1" d="M13,25H12v5h1V25Z"/><path class="sa277-1" d="M16,26v4h1V25H16Z"/><path class="sa277-3" d="M18,16H16V14H13v2H10v2h1v1h1V18h2v1h1V18h2v1h1V18h1V16Zm-3,1H14V16h1Z"/><path class="sa277-3" d="M14,20V19H13v2h1v1h1V21h1V19H15v1Z"/><rect class="sa277-1" x="14" y="16" width="1" height="1"/><path class="sa277-5" d="M10,16h1V14H10v2Z"/><path class="sa277-5" d="M13,16V14H12v2Z"/><path class="sa277-5" d="M17,16V14H16v2Z"/><path class="sa277-5" d="M19,16V14H18v2Z"/><path class="sa277-1" d="M12,16V14H11v2Z"/><path class="sa277-1" d="M18,16V14H17v2Z"/><rect class="sa277-2" x="9" y="20" width="1" height="1"/><path class="sa277-2" d="M9,19V14H8v6H9Z"/><rect class="sa277-2" x="19" y="20" width="1" height="1"/><path class="sa277-2" d="M21,14H20v6h1V14Z"/><rect class="sa277-2" x="17" y="22" width="1" height="1"/><rect class="sa277-2" x="11" y="22" width="1" height="1"/><path class="sa277-1" d="M8,14V13H7v7H8V14Z"/><rect class="sa277-1" x="8" y="20" width="1" height="1"/><rect class="sa277-1" x="9" y="21" width="1" height="1"/><rect class="sa277-1" x="19" y="21" width="1" height="1"/><rect class="sa277-1" x="20" y="20" width="1" height="1"/><path class="sa277-1" d="M21,14v6h1V13H21Z"/><path class="sa277-1" d="M10,15V14H9v3h1V15Z"/><path class="sa277-1" d="M20,14H19v3h1V14Z"/><path class="sa277-6" d="M0,7V33H6V27H7V26H8V25h2V22H9V21H8V20H7V13H4V12H6V11H8V10h2V9h1V8h1V7h1V6h1V5h1V6h1V7h1V8h1V9h1v1h2v1h2v1h2v1H22v7H21v1H20v1H19v3h2v1h1v1h1v6h6V0H0Z"/><path class="sa277-7" d="M12,22v1h5V22h2V20h1V17H19v1H18v1H17V18H15v1h1v2H15v1H14V21H13V19h1V18H12v1H11V18H10V17H9v3h1v2h2Z"/><path class="sa277-8" d="M18,23h1V22H18Z"/><path class="sa277-7" d="M18,24h1V23H18Z"/><path class="sa277-8" d="M16,23v1h1V23Z"/><path class="sa277-7" d="M16,25h1V24H16Z"/><path class="sa277-8" d="M13,23H12v1h1Z"/><path class="sa277-7" d="M13,24H12v1h1Z"/><path class="sa277-8" d="M11,22H10v1h1Z"/><path class="sa277-7" d="M11,23H10v1h1Z"/><path class="sa277-9" d="M8,14H21V13h4V12H23V11H21V10H19V9H18V8H17V7H16V6H15V5H14V6H13V7H12V8H11V9H10v1H8v1H6v1H4v1H8Z"/><rect class="sa277-1" x="14" y="19" width="1" height="1"/></svg>