<svg xmlns="http://www.w3.org/2000/svg" viewBox="0 0 29 33"><defs><style>polygon,rect,path{shape-rendering:crispedges;}.sa129-1{fill:#6b4f99;}.sa129-2{fill:#000000;}.sa129-3{fill:#508e91;}.sa129-4{fill:#c18d59;}.sa129-5{fill:#ffffff;}.sa129-6{fill:#ffffff;}.sa129-7{fill:#492a23;}.sa129-8{fill:#cc3232;}.sa129-9{fill:#00774c;}.sa129-10{fill:#a3531d;}.sa129-11{fill:#c3b3ce;}.sa129-12{fill:#99a8a5;}</style></defs><path class="sa129-1" d="M20,23h0Z"/><rect class="sa129-1" x="18" y="23" width="1" height="1"/><path class="sa129-1" d="M19,25h2V24H19Z"/><path class="sa129-2" d="M23,25v6h1V23H23v2Z"/><path class="sa129-2" d="M7,27H6v6H7V27Z"/><path class="sa129-3" d="M8,27H7v6H8V27Z"/><rect class="sa129-2" x="7" y="26" width="1" height="1"/><path class="sa129-2" d="M9,27H8v6H9V27Z"/><path class="sa129-3" d="M20,27h1V26H19V25H18V24H16v1h1v3h2v1H17v2h1V30h1v2H16V25H13v3h2v4H12V25h1V24H11v1H10v1H8v1H9v6H20V27Zm-9,4v1H10V28h1Z"/><path class="sa129-2" d="M10,25H8v1h2Z"/><rect class="sa129-2" x="10" y="24" width="1" height="1"/><path class="sa129-2" d="M13,23H11v1h2Z"/><path class="sa129-2" d="M13,24v1h3V24H13Z"/><path class="sa129-4" d="M15,23H13v1h3V23Z"/><path class="sa129-2" d="M17,23H16v1h2V23Z"/><rect class="sa129-2" x="18" y="24" width="1" height="1"/><path class="sa129-2" d="M22,32h1V31H22V24H21v1H19v1h2v1H20v6h1V32Z"/><path class="sa129-3" d="M23,25V24H22v7h1V25Z"/><path class="sa129-3" d="M14,31V29H13v2Z"/><path class="sa129-5" d="M14,29v2H13V30H12v2h3V28H13v1Z"/><path class="sa129-5" d="M10,31v1h1V28H10Z"/><path class="sa129-5" d="M18,29h1V28H17v1Z"/><path class="sa129-5" d="M16,31v1h3V30H18v1H17V30H16Z"/><path class="sa129-2" d="M12,26v4h1V25H12Z"/><path class="sa129-2" d="M16,30h1V25H16v5Z"/><rect class="sa129-4" x="11" y="13" width="1" height="1"/><path class="sa129-4" d="M18,15H17v2H16V15H15V11H14v1H13v2h1v2h1v1H14V16H13V15H11v4h1V18h5v1h1V15Z"/><rect class="sa129-4" x="13" y="20" width="1" height="1"/><rect class="sa129-4" x="15" y="20" width="1" height="1"/><rect class="sa129-4" x="16" y="12" width="1" height="1"/><rect class="sa129-4" x="17" y="13" width="1" height="1"/><rect class="sa129-2" x="14" y="16" width="1" height="1"/><path class="sa129-6" d="M13,15V14H12v1Z"/><rect class="sa129-6" x="16" y="14" width="1" height="1"/><path class="sa129-2" d="M12,14H11v1h1Z"/><rect class="sa129-2" x="17" y="14" width="1" height="1"/><rect class="sa129-7" x="11" y="12" width="1" height="1"/><rect class="sa129-7" x="16" y="13" width="1" height="1"/><rect class="sa129-7" x="17" y="12" width="1" height="1"/><path class="sa129-8" d="M15,15h1V12h1V11H15Z"/><path class="sa129-8" d="M10,15v3h1V12H10v3Z"/><path class="sa129-8" d="M12,13v1h1V12h1V11H12v2Z"/><path class="sa129-8" d="M18,13v5h1V12H18Z"/><path class="sa129-8" d="M13,16h1V14H13v2Z"/><path class="sa129-8" d="M17,17V15H16v2Z"/><path class="sa129-3" d="M9,19V12h1V11h2V10h5v1h2v1h1v8h1V11H20V10H19V9H18V8H11V9H10v1H9v1H8v9H9Z"/><rect class="sa129-3" x="9" y="20" width="1" height="1"/><rect class="sa129-3" x="18" y="21" width="1" height="1"/><rect class="sa129-3" x="10" y="21" width="1" height="1"/><polygon class="sa129-3" points="19 21 20 21 20 21 20 20 19 20 19 21"/><polygon class="sa129-3" points="17 22 16 22 16 23 17 23 18 23 18 22 17 22"/><path class="sa129-3" d="M13,22H11v1h2Z"/><rect class="sa129-2" x="10" y="8" width="1" height="1"/><rect class="sa129-2" x="9" y="9" width="1" height="1"/><rect class="sa129-2" x="8" y="10" width="1" height="1"/><path class="sa129-2" d="M8,11H7v9H8V11Z"/><rect class="sa129-2" x="8" y="20" width="1" height="1"/><rect class="sa129-2" x="9" y="21" width="1" height="1"/><rect class="sa129-2" x="10" y="22" width="1" height="1"/><polygon class="sa129-2" points="18 23 19 23 19 23 19 23 19 22 18 22 18 23"/><rect class="sa129-2" x="20" y="20" width="1" height="1"/><path class="sa129-2" d="M21,20h1V11H21v9Z"/><rect class="sa129-2" x="20" y="10" width="1" height="1"/><rect class="sa129-2" x="19" y="9" width="1" height="1"/><rect class="sa129-2" x="18" y="8" width="1" height="1"/><path class="sa129-2" d="M18,8V7H11V8h7Z"/><path class="sa129-2" d="M12,12V11H10v1h2Z"/><path class="sa129-2" d="M10,15V12H9v4h1Z"/><path class="sa129-2" d="M19,16h1V12H19v4Z"/><path class="sa129-2" d="M18,12h1V11H17v1Z"/><path class="sa129-2" d="M15,11h2V10H12v1h3Z"/><path class="sa129-1" d="M29,0H0V33H6V27H7V26H8V25h2V24h1V23H10V22H9V21H8V20H7V11H8V10H9V9h1V8h1V7h7V8h1V9h1v1h1v1h1v9H21v1h1v1h1v1h1v8H23v1H21v1h8V0Z"/><path class="sa129-9" d="M16,23V22h2V21h1V20h1V16H19v2H18v1H16v2H15V20H14v1H13V19H11V18H10V16H9v4h1v1h1v1h2v1h3Z"/><path class="sa129-2" d="M16,18H12v1h1v1h3V19h1V18Z"/><path class="sa129-10" d="M20,23H19v1h2V23Z"/><path class="sa129-11" d="M20,21v1H19v1h3V22h0V21H20Z"/><polygon class="sa129-12" points="19 21 19 22 20 22 20 21 19 21 19 21"/><path class="sa129-4" d="M21,23v1h2V23H21Z"/><path class="sa129-2" d="M22,23h1V22H22Z"/></svg>