<svg xmlns="http://www.w3.org/2000/svg" viewBox="0 0 29 33"><defs><style>polygon,rect,path{shape-rendering:crispedges;}.fb128-1{fill:#397d98;}.fb128-2{fill:#000000;}.fb128-3{fill:#333333;}.fb128-4{fill:#333333;}.fb128-5{fill:#c18d59;}.fb128-6{fill:#90a2a3;}.fb128-7{fill:#ffffff;}.fb128-8{fill:#99004d;}.fb128-9{fill:#99004d;}.fb128-10{fill:#b23b00;}.fb128-11{fill:#efc075;}.fb128-12{fill:#2aa8e8;}.fb128-13{fill:#d8aa68;}.fb128-14{fill:#563e1b;}</style></defs><path class="fb128-1" d="M0,33H6V28H5V27H4V25H5V24H8v1H9V24h1V23h1V22h1V21H10V20H9V16H8V15H9V11h1V10h1V9h2V7h1V6h2V5h2V6H17V7h1v3h1v1h1v4h1V14h1v8h1v1h1v8H23v1H22v1h7V0H0Z"/><path class="fb128-1" d="M21,21V16H20v4H19v1H17v1h1v1h1v1h1v1h1V21Z"/><path class="fb128-2" d="M7,27H5v1H6v5H7V27Z"/><path class="fb128-3" d="M8,27H7v6H8V27Z"/><path class="fb128-2" d="M9,29h1V28h2V27H9V25H8v8H9V29Z"/><rect class="fb128-2" x="9" y="24" width="1" height="1"/><path class="fb128-3" d="M12,32V31H11V30H10V29H9v4h4V32Z"/><rect class="fb128-2" x="10" y="23" width="1" height="1"/><path class="fb128-3" d="M10,26v1h2v1H10v1h1v1h1v1h1V26H12V25H11V24H10v1H9v1Z"/><rect class="fb128-2" x="10" y="29" width="1" height="1"/><rect class="fb128-3" x="11" y="23" width="1" height="1"/><rect class="fb128-2" x="11" y="24" width="1" height="1"/><rect class="fb128-2" x="11" y="30" width="1" height="1"/><path class="fb128-2" d="M12,24h1V23h3v1h1V23h1V22H17V21H16v1H13V21H12v1H11v1h1Z"/><rect class="fb128-2" x="12" y="25" width="1" height="1"/><path class="fb128-2" d="M17,32V31H16V26H13v5H12v1h1v1h1V27h1v6h1V32Z"/><path class="fb128-4" d="M15,27H14v6h1V27Z"/><path class="fb128-5" d="M17,25V24H16V23H13v1H12v1h1v1h3V25Z"/><rect class="fb128-2" x="16" y="25" width="1" height="1"/><path class="fb128-3" d="M20,29H19v1H18v1H17v1H16v1h4V29Z"/><rect class="fb128-3" x="17" y="23" width="1" height="1"/><rect class="fb128-2" x="17" y="24" width="1" height="1"/><rect class="fb128-2" x="17" y="30" width="1" height="1"/><rect class="fb128-2" x="18" y="23" width="1" height="1"/><rect class="fb128-2" x="18" y="29" width="1" height="1"/><rect class="fb128-2" x="19" y="24" width="1" height="1"/><path class="fb128-3" d="M19,24H18v1H17v1H16v5h1V30h1V29h1V28H17V27h2V26h1V25H19Z"/><path class="fb128-2" d="M21,29V25H20v2H17v1h2v1h1v4h1V29Z"/><rect class="fb128-2" x="22" y="31" width="1" height="1"/><path class="fb128-3" d="M23,25H22v6h1V25Z"/><path class="fb128-2" d="M23,29v2h1V23H23v6Z"/><path class="fb128-6" d="M19,27h1V26H19Z"/><path class="fb128-6" d="M9,26v1h1V26Z"/><rect class="fb128-2" x="20" y="15" width="1" height="1"/><path class="fb128-2" d="M19,13v2h1V11H19v2Z"/><path class="fb128-5" d="M18,14h1V13H17v1Z"/><path class="fb128-5" d="M13,22h3V21h1V20h1V18h1V16h1V15H16V13h1V12h2V11H18V10H15v1H13V10H11v1H10v2h1V12h2v1H11v1h2v1H9v1h1v2h1v2h1v1h1Zm1-6h1v1H14Zm-2,3V18h1v1h3v1H13V19Z"/><path class="fb128-2" d="M20,16H19v1h1Z"/><rect class="fb128-2" x="18" y="10" width="1" height="1"/><path class="fb128-2" d="M16,10h2V9H16Z"/><path class="fb128-2" d="M13,9H11v1h2Z"/><rect class="fb128-2" x="10" y="10" width="1" height="1"/><path class="fb128-2" d="M10,14V11H9v4h1Z"/><path class="fb128-2" d="M10,16H9v1h1Z"/><rect class="fb128-2" x="8" y="15" width="1" height="1"/><rect class="fb128-2" x="14" y="16" width="1" height="1"/><path class="fb128-7" d="M13,15V14H12v1Z"/><path class="fb128-7" d="M10,15h1V14H10Z"/><path class="fb128-7" d="M18,14v1h1V14Z"/><path class="fb128-7" d="M16,14v1h1V14Z"/><path class="fb128-2" d="M12,15V14H11v1Z"/><path class="fb128-2" d="M17,14v1h1V14Z"/><path class="fb128-8" d="M11,14V13H10v1Z"/><rect class="fb128-8" x="11" y="12" width="2" height="1"/><path class="fb128-8" d="M17,13H16v1h1Z"/><path class="fb128-8" d="M19,12H17v1h2Z"/><path class="fb128-9" d="M19,20h1V17H19v1H18v2H17v1h2Z"/><path class="fb128-9" d="M11,20V18H10V17H9v3h1v1h2V20Z"/><rect class="fb128-2" x="13" y="19" width="3" height="1"/><rect class="fb128-2" x="12" y="18" width="1" height="1"/><path class="fb128-10" d="M13,11h2V10h1V9h2V7H17V6h1V5H16V6H14V7H13v4Z"/><path class="fb128-11" d="M21,27v2h1V27Z"/><path class="fb128-11" d="M21,20v1h1V19H21Z"/><path class="fb128-11" d="M21,17h1V15H21v2Z"/><path class="fb128-12" d="M22,14H21v1h1Z"/><path class="fb128-5" d="M21,23v2h2V23H21Z"/><path class="fb128-13" d="M22,26V25H21v2h1Z"/><path class="fb128-13" d="M21,23h1V21H21Z"/><path class="fb128-13" d="M21,18v1h1V17H21Z"/><path class="fb128-7" d="M7,26H8V24H5v1H7Z"/><path class="fb128-5" d="M8,27V26H7V25H5v2H8Z"/><path class="fb128-14" d="M22,31V29H21v4h1V31Z"/><path class="fb128-2" d="M23,23V22H22v1Z"/><path class="fb128-2" d="M4,25v2H5V25Z"/><rect class="fb128-10" x="18" y="9" width="1" height="1"></rect></svg>