<svg xmlns="http://www.w3.org/2000/svg" viewBox="0 0 29 33"><defs><style>polygon,rect,path{shape-rendering:crispedges;}.ta174-1{fill:#29834f;}.ta174-2{fill:#000000;}.ta174-3{fill:#004a77;}.ta174-4{fill:#ce8452;}.ta174-5{fill:#ff6aa5;}.ta174-6{fill:#8e4717;}.ta174-7{fill:#ffffff;}.ta174-8{fill:#8e4717;}.ta174-9{fill:#00997c;}.ta174-10{fill:#00e2b7;}.ta174-11{fill:#00755f;}</style></defs><path class="ta174-1" d="M20,23V22H19v1H18v1h1v1h2V23Z"/><path class="ta174-2" d="M23,26v5h1V25H23Z"/><path class="ta174-2" d="M7,27H6v6H7V27Z"/><path class="ta174-3" d="M8,27H7v6H8V27Z"/><rect class="ta174-2" x="7" y="26" width="1" height="1"/><path class="ta174-2" d="M9,27H8v6H9V27Z"/><path class="ta174-3" d="M20,27h1V26H19V25H18V24H16v1h1v4h1v1h1v3h1V27Z"/><path class="ta174-3" d="M10,30h1V29h1V25h1V24H11v1H10v1H8v1H9v6h1V30Z"/><path class="ta174-2" d="M10,25H8v1h2Z"/><rect class="ta174-2" x="10" y="24" width="1" height="1"/><path class="ta174-2" d="M13,23H11v1h2Z"/><path class="ta174-2" d="M13,24v1h3V24H13Z"/><path class="ta174-4" d="M15,23H13v1h3V23Z"/><path class="ta174-2" d="M17,23H16v1h2V23Z"/><rect class="ta174-2" x="18" y="24" width="1" height="1"/><path class="ta174-2" d="M22,32h1V31H22V25H19v1h2v1H20v6h1V32Z"/><path class="ta174-3" d="M23,26V25H22v6h1V26Z"/><path class="ta174-3" d="M13,25v3h3V25H13Z"/><path class="ta174-3" d="M16,32H12v1h5V32Z"/><rect class="ta174-3" x="12" y="30" width="1" height="1"/><rect class="ta174-3" x="16" y="30" width="1" height="1"/><path class="ta174-5" d="M19,30H18V29H17v2H16V28H13v3H12V29H11v1H10v3h2V32h5v1h2V30Z"/><path class="ta174-2" d="M13,25H12v5h1V25Z"/><path class="ta174-2" d="M16,28v2h1V25H16v3Z"/><rect class="ta174-4" x="12" y="19" width="1" height="1"/><path class="ta174-4" d="M12,19V18h5v1h2V12H17V11H12v1H10v7h2Zm-1-5h1V13h1V12h3v1h1v1h1v1H16v1H15v1H14V16H13V15H11Z"/><rect class="ta174-4" x="13" y="20" width="1" height="1"/><rect class="ta174-4" x="15" y="20" width="1" height="1"/><rect class="ta174-4" x="16" y="19" width="1" height="1"/><path class="ta174-6" d="M18,15V14H17v1Z"/><rect class="ta174-6" x="16" y="13" width="1" height="1"/><rect class="ta174-2" x="14" y="14" width="1" height="1"/><path class="ta174-7" d="M13,15v1h3V15h1V14H16V13H13v1H12v1Zm1-1h1v1H14Z"/><path class="ta174-6" d="M16,13V12H13v1h3Z"/><rect class="ta174-6" x="12" y="13" width="1" height="1"/><rect class="ta174-6" x="11" y="14" width="1" height="1"/><path class="ta174-2" d="M14,17h1V16H14Z"/><path class="ta174-3" d="M20,21V19H19v1H18v1H17v1H16v1h2V22h1V21Z"/><path class="ta174-3" d="M13,22H12V21H11V20H10V19H9V12h1V11h2V10h5v1h2v1h1v6h1V11H20V10H19V9H18V8H11V9H10v1H9v1H8v9H9v1h1v1h1v1h2Z"/><rect class="ta174-2" x="10" y="8" width="1" height="1"/><rect class="ta174-2" x="9" y="9" width="1" height="1"/><rect class="ta174-2" x="8" y="10" width="1" height="1"/><path class="ta174-2" d="M8,11H7v9H8V11Z"/><rect class="ta174-2" x="8" y="20" width="1" height="1"/><rect class="ta174-2" x="9" y="21" width="1" height="1"/><rect class="ta174-2" x="10" y="22" width="1" height="1"/><rect class="ta174-2" x="18" y="22" width="1" height="1"/><rect class="ta174-2" x="19" y="21" width="1" height="1"/><path class="ta174-2" d="M21,17h1V11H21v6Z"/><rect class="ta174-2" x="20" y="10" width="1" height="1"/><rect class="ta174-2" x="19" y="9" width="1" height="1"/><rect class="ta174-2" x="18" y="8" width="1" height="1"/><path class="ta174-2" d="M18,8V7H11V8h7Z"/><path class="ta174-2" d="M12,11H10v1h2Z"/><path class="ta174-2" d="M10,12H9v7h1V12Z"/><path class="ta174-2" d="M10,19v1h1V19Z"/><rect class="ta174-2" x="11" y="20" width="1" height="1"/><rect class="ta174-2" x="12" y="21" width="1" height="1"/><path class="ta174-2" d="M16,23V22H13v1h3Z"/><rect class="ta174-2" x="16" y="21" width="1" height="1"/><rect class="ta174-2" x="17" y="20" width="1" height="1"/><path class="ta174-2" d="M19,20V19H18v1Z"/><path class="ta174-2" d="M19,19h1V18H19Z"/><path class="ta174-2" d="M19,17h1V12H19v5Z"/><path class="ta174-2" d="M18,12h1V11H17v1Z"/><path class="ta174-2" d="M17,11V10H12v1h5Z"/><path class="ta174-1" d="M0,7V33H6V27H7V26H8V25h2V24h1V23H10V22H9V21H8V20H7V11H8V10H9V9h1V8h1V7h7V8h1V9h1v1h1v1h1v6h2v1h1V17h1v1H25v5H24v8H23v1H21v1h8V0H0Z"/><path class="ta174-8" d="M18,20V19H17v1Z"/><rect class="ta174-8" x="16" y="20" width="1" height="1"/><path class="ta174-8" d="M16,22V21H15V20H14v1H13v1h3Z"/><path class="ta174-8" d="M14,19h3V18H13v1Z"/><rect class="ta174-8" x="12" y="20" width="1" height="1"/><path class="ta174-8" d="M12,19H11v1h1Z"/><path class="ta174-2" d="M16,19H13v1h3Z"/><path class="ta174-2" d="M13,18H12v1h1Z"/><path class="ta174-9" d="M20,21v2h1V21Z"/><path class="ta174-2" d="M22,20V18H21v2Z"/><path class="ta174-2" d="M23,19v1h1V18H23Z"/><rect class="ta174-2" x="22" y="21" width="1" height="1"/><path class="ta174-10" d="M23,22H21v1h3V22Z"/><path class="ta174-10" d="M20,20v1h2V20H21V18H20v2Z"/><path class="ta174-10" d="M21,18h1v2h1V18h1V17H21Z"/><path class="ta174-10" d="M23,20v1h2V18H24v2Z"/><path class="ta174-11" d="M21,23v2h3V23H21Z"/><path class="ta174-9" d="M24,21.223V23h1V21H24Z"/><path class="ta174-10" d="M19,18h1V17H19Z"/><rect class="ta174-10" x="25" y="17" width="1" height="1"/><rect class="ta174-9" x="22" y="20" width="1" height="1"/><path class="ta174-7" d="M21,21v1h1V21Z"/><path class="ta174-7" d="M24,22V21H23v1Z"/></svg>