<svg xmlns="http://www.w3.org/2000/svg" viewBox="0 0 29 33"><defs><style>polygon,rect,path{shape-rendering:crispedges;}.fa173-1{fill:#e55b35;}.fa173-2{fill:#000000;}.fa173-3{fill:#b2622b;}.fa173-4{fill:#316a6d;}.fa173-5{fill:#ffffff;}.fa173-6{fill:#663228;}.fa173-7{fill:#cbed03;}.fa173-8{fill:#00997c;}.fa173-9{fill:#00e2b7;}.fa173-10{fill:#00755f;}</style></defs><path class="fa173-1" d="M20,23V22H19V21H17v3h2v1h2V23Z"/><path class="fa173-1" d="M6,32V27H7V26H8V25h2V24h2V21H10v1H9V21H8V20H9V17H8V12H9V10h1V9h1V8h7V9h1v1h1v2h1v5h3v1h1V17h1v1H25v5H24v8H23v1H21v1h8V0H0V33H6Z"/><rect class="fa173-2" x="7" y="26" width="1" height="1"/><path class="fa173-2" d="M9,27H8v3H7V27H6v6H7V31H8v2H9V27Z"/><path class="fa173-2" d="M10,25H8v1h2Z"/><path class="fa173-2" d="M12,24H10v1h2Z"/><path class="fa173-2" d="M13,23h3v1h1V21H16v1H13V21H12v3h1Z"/><path class="fa173-2" d="M18,24H17v1h2V24Z"/><path class="fa173-2" d="M22,32h1V31H22V25H19v1h2v1H20v6h1V32Z"/><path class="fa173-2" d="M23,26v5h1V25H23Z"/><path class="fa173-3" d="M23,26V25H22v6h1V26Z"/><path class="fa173-4" d="M20,27h1V26H19V25H17v1H16v1H13V26H12V25H10v1H8v1H9v6H20V27Z"/><path class="fa173-2" d="M13,26v1h3V26H13Z"/><path class="fa173-3" d="M13,25v1h3V25h1V24H16V23H13v1H12v1Z"/><path class="fa173-4" d="M7,30H8V27H7v3Z"/><path class="fa173-3" d="M7,31v2H8V31Z"/><rect class="fa173-2" x="16" y="25" width="1" height="1"/><rect class="fa173-2" x="12" y="25" width="1" height="1"/><path class="fa173-3" d="M13,22h3V21h1V20h1V19h1V16h1V15H16V13h1V11H16V10H15v1H14v1H13v1H12v1h1v1H10v4h1v1h1v1h1Zm1-6h1v1H14Zm-2,3V18h1v1h3v1H13V19Z"/><path class="fa173-3" d="M18,14h1V13H17v1Z"/><path class="fa173-2" d="M20,16H19v1h1Z"/><path class="fa173-2" d="M20,18H19v1h1Z"/><rect class="fa173-2" x="18" y="19" width="1" height="1"/><path class="fa173-2" d="M18,20H17v1h1Z"/><path class="fa173-2" d="M11,20v1h1V20Z"/><rect class="fa173-2" x="10" y="19" width="1" height="1"/><path class="fa173-2" d="M10,18H9v1h1Z"/><rect class="fa173-2" x="14" y="16" width="1" height="1"/><path class="fa173-5" d="M10,14v1h1V14Z"/><path class="fa173-5" d="M16,14v1h1V14Z"/><path class="fa173-2" d="M11,15h2V14H11Z"/><path class="fa173-2" d="M18,14H17v1h2V14Z"/><path class="fa173-6" d="M17,13H16v1h1Z"/><path class="fa173-6" d="M18,12H17v1h1Z"/><rect class="fa173-2" x="13" y="19" width="3" height="1"/><rect class="fa173-2" x="12" y="18" width="1" height="1"/><path class="fa173-7" d="M19,21v1h1V19H19v1H18v1Z"/><path class="fa173-7" d="M10,20V19H9v1H8v1H9v1h1V21h1V20Z"/><path class="fa173-7" d="M10,17V14h2V13h1V12h1V11h1V10h1v1h1v1h1v1h1v2h1v3h1V12H20V10H19V9H18V8H11V9H10v1H9v2H8v5H9v1h1Z"/><path class="fa173-8" d="M20,21v2h1V21Z"/><path class="fa173-2" d="M22,20V18H21v2Z"/><path class="fa173-2" d="M23,19v1h1V18H23Z"/><rect class="fa173-2" x="22" y="21" width="1" height="1"/><path class="fa173-9" d="M23,22H21v1h3V22Z"/><path class="fa173-9" d="M20,20v1h2V20H21V18H20v2Z"/><path class="fa173-9" d="M22,18v2h1V18h1V17H21v1Z"/><path class="fa173-9" d="M23,20v1h2V18H24v2Z"/><path class="fa173-10" d="M21,23v2h3V23H21Z"/><path class="fa173-8" d="M24,21.223V23h1V21H24Z"/><path class="fa173-9" d="M20,17H19v1h1Z"/><rect class="fa173-9" x="25" y="17" width="1" height="1"/><rect class="fa173-8" x="22" y="20" width="1" height="1"/><path class="fa173-5" d="M21,21v1h1V21Z"/><path class="fa173-5" d="M24,22V21H23v1Z"/></svg>