<svg xmlns="http://www.w3.org/2000/svg" viewBox="0 0 29 33"><defs><style>polygon,rect,path{shape-rendering:crispedges;}.ya172-1{fill:#d4a122;}.ya172-2{fill:#000000;}.ya172-3{fill:#825fff;}.ya172-4{fill:#ce8452;}.ya172-5{fill:#00af68;}.ya172-6{fill:#ffffff;}.ya172-7{fill:#e2e2e2;}.ya172-8{fill:#e2e2e2;}.ya172-9{fill:#317f03;}.ya172-10{fill:#fad000;}.ya172-11{fill:#6d5800;}.ya172-12{fill:#9b8100;}.ya172-13{fill:#ffffff;}.ya172-14{fill:#e70059;}</style></defs><path class="ya172-1" d="M20,23V20H19v1H17v2h1v1h1v1h2V23Z"/><path class="ya172-1" d="M6,32V27H7V26H8V25h2V24h1V23h1V21H10V20H9V16H8V15H9V10h1V9h1V8h7V9h1v1h1v5h1v1H20v2h1V17h1V16h1v1h1v1h1v5H24v8H23v1H21v1h8V0H0V33H6Z"/><path class="ya172-2" d="M23,26v5h1V25H23Z"/><path class="ya172-2" d="M7,30V27H6v6H7V30Z"/><path class="ya172-3" d="M7,31v2H8V31Z"/><path class="ya172-3" d="M8,29V27H7v2Z"/><rect class="ya172-2" x="7" y="26" width="1" height="1"/><path class="ya172-2" d="M9,31V27H8v6H9V31Z"/><path class="ya172-3" d="M16,31V30H15v2h1v1h1V31Z"/><rect class="ya172-3" x="14" y="29" width="1" height="1"/><path class="ya172-3" d="M14,31H13V30H12V28H11V27H10V26H9v2h1v1h1v2h1v1h1v1h1V31Z"/><path class="ya172-3" d="M10,31V30H9v2h1v1h1V31Z"/><path class="ya172-3" d="M19,31V30H18V28H17V27H16V25H15v3h1v1h1v2h1v1h1v1h1V31Z"/><path class="ya172-3" d="M13,29h1V27H13V26H12v2h1Z"/><path class="ya172-3" d="M18,26v2h1v1h1V27H19V25H18Z"/><path class="ya172-2" d="M10,26V25H8v1h2Z"/><path class="ya172-2" d="M11,26h2V25H12V24h1V23h3v1h1v1H16v1h2V25h1V24H18V23H17V21H16v1H13V21H12v2H11v1H10v1h1Z"/><rect class="ya172-2" x="13" y="24" width="1" height="1"/><path class="ya172-2" d="M14,32v1h1V32Z"/><path class="ya172-2" d="M14,31h1V30H14Z"/><path class="ya172-2" d="M14,29h1V28H14Z"/><path class="ya172-2" d="M14,26v1h1V25H14Z"/><rect class="ya172-2" x="15" y="24" width="1" height="1"/><path class="ya172-4" d="M16,24V23H13v1h1v1h1V24Z"/><rect class="ya172-3" x="16" y="24" width="1" height="1"/><path class="ya172-2" d="M22,32h1V31H22V25H19v1h2v1H20v6h1V32Z"/><path class="ya172-3" d="M23,28V27H22v2h1Z"/><path class="ya172-5" d="M19,28H18v2h1v1h1V29H19Z"/><path class="ya172-5" d="M16,26v1h1v1h1V26Z"/><path class="ya172-5" d="M22,29v2h1V29Z"/><path class="ya172-5" d="M20,27h1V26H19v1Z"/><path class="ya172-5" d="M23,26V25H22v2h1Z"/><path class="ya172-5" d="M18,32V31H17v2h2V32Z"/><path class="ya172-5" d="M15,30h1v1h1V29H16V28H15v2Z"/><path class="ya172-5" d="M14,28h1V27H14Z"/><polygon class="ya172-5" points="14 27 14 26 14 25 13 25 13 26 13 27 14 27"/><rect class="ya172-5" x="15" y="32" width="1" height="1"/><path class="ya172-5" d="M14,32h1V31H14Z"/><path class="ya172-5" d="M14,29H13V28H12v2h1v1h1V29Z"/><rect class="ya172-5" x="12" y="24" width="1" height="1"/><path class="ya172-5" d="M10,27h1v1h1V26H11V25H10v2Z"/><path class="ya172-5" d="M12,32V31H11v2h2V32Z"/><path class="ya172-5" d="M10,30v1h1V29H10V28H9v2Z"/><path class="ya172-5" d="M9,32v1h1V32Z"/><path class="ya172-5" d="M9,27V26H8v1Z"/><path class="ya172-5" d="M7,30v1H8V29H7Z"/><rect class="ya172-2" x="20" y="15" width="1" height="1"/><polygon class="ya172-4" points="18 14 19 14 19 13 17 13 17 14 18 14"/><path class="ya172-4" d="M13,22h3V21h1V20h1V18h1V16h1V15H16V13h1V12h2V11H18V10H16v1H15v1H14v2H13v3H12V16H11V15H9v1h1v2h1v2h1v1h1Zm1-6h1v1H14Zm-2,3V18h1v1h3v1H13V19Z"/><path class="ya172-2" d="M19,17h1V16H19Z"/><path class="ya172-2" d="M10,14H9v1h1Z"/><path class="ya172-2" d="M10,16H9v1h1Z"/><rect class="ya172-2" x="8" y="15" width="1" height="1"/><rect class="ya172-2" x="14" y="16" width="1" height="1"/><path class="ya172-6" d="M16,14v1h1V14Z"/><path class="ya172-2" d="M18,14H17v1h2V14Z"/><path class="ya172-7" d="M17,13H16v1h1Z"/><rect class="ya172-7" x="17" y="12" width="2" height="1"/><path class="ya172-8" d="M19,18H18v2H17v1h2V20h1V17H19Z"/><path class="ya172-8" d="M11,20V18H10V17H9v3h1v1h2V20Z"/><rect class="ya172-2" x="13" y="19" width="3" height="1"/><rect class="ya172-2" x="12" y="18" width="1" height="1"/><path class="ya172-9" d="M10,15h1v1h1v1h1V14h1V12h1V11h1V10h2v1h1v4h1V10H19V9H18V8H11V9H10v1H9v4h1Z"/><path class="ya172-10" d="M20,21h5V18H24v2H23V18H22v2H21V18H20v3Z"/><path class="ya172-2" d="M22,20V18H21v2Z"/><path class="ya172-2" d="M23,19v1h1V18H23Z"/><path class="ya172-11" d="M22,23H21v2h3V23H22Z"/><path class="ya172-12" d="M21,23V21H20v2Z"/><path class="ya172-12" d="M24,21.223V23h1V21H24Z"/><path class="ya172-2" d="M23,22V21H22v1Z"/><path class="ya172-13" d="M22,22V21H21v1Z"/><path class="ya172-13" d="M24,22V21H23v1Z"/><rect class="ya172-10" x="21" y="17" width="1" height="1"/><rect class="ya172-10" x="23" y="17" width="1" height="1"/><polygon class="ya172-12" points="23 18 23 17 23 16 22 16 22 17 22 18 23 18"/><path class="ya172-14" d="M22,23h1V22H22Z"/><path class="ya172-2" d="M21,22v1h1V22Z"/><path class="ya172-2" d="M23,22v1h1V22Z"/></svg>