<svg xmlns="http://www.w3.org/2000/svg" viewBox="0 0 29 33"><defs><style>polygon,rect,path{shape-rendering:crispedges;}.cb105-1{fill:#b4bd09;}.cb105-2{fill:#000000;}.cb105-3{fill:#844f4f;}.cb105-4{fill:#ffffff;}.cb105-5{fill:#e8b795;}.cb105-6{fill:#8e703c;}.cb105-7{fill:#5a2de2;}.cb105-8{fill:#99004d;}.cb105-9{fill:#fad000;}</style></defs><path class="cb105-1" d="M0,33H6V27H7V26H8V25h2V24h1V23h1V21H9V20H8V19H9V16H8V15H9V11h1V10h1V9h1V8h5V9h2v1h1v1h1v3H20v1h1v1H20v3h1v1H20v1H17v2h1v1h1v1h2v1h1v1h1v6h6V0H0Z"/><path class="cb105-2" d="M23,27H22v6h1V27Z"/><path class="cb105-3" d="M22,27H21v6h1V27Z"/><rect class="cb105-2" x="21" y="26" width="1" height="1"/><path class="cb105-2" d="M21,27H20v6h1V27Z"/><path class="cb105-3" d="M20,27h1V26H18v3H17v4h3V27Z"/><path class="cb105-2" d="M17,29H16V28H15v2h1v3h1V29Z"/><rect class="cb105-4" x="13" y="25" width="1" height="1"/><rect class="cb105-4" x="15" y="25" width="1" height="1"/><path class="cb105-4" d="M16,30H15v1H14V30H13v3h1V32h1v1h1V30Z"/><rect class="cb105-4" x="16" y="28" width="1" height="1"/><rect class="cb105-4" x="12" y="28" width="1" height="1"/><rect class="cb105-4" x="15" y="23" width="1" height="1"/><rect class="cb105-2" x="14" y="32" width="1" height="1"/><rect class="cb105-4" x="13" y="23" width="1" height="1"/><path class="cb105-2" d="M13,30h1V28H13v1H12v4h1V30Z"/><path class="cb105-3" d="M12,29H11V26H8v1H9v6h3V29Z"/><path class="cb105-2" d="M11,26V24H10v1H8v1h3Z"/><path class="cb105-2" d="M9,27H8v6H9V27Z"/><path class="cb105-3" d="M8,27H7v6H8V27Z"/><rect class="cb105-2" x="7" y="26" width="1" height="1"/><path class="cb105-2" d="M7,27H6v6H7V27Z"/><rect class="cb105-2" x="20" y="15" width="1" height="1"/><path class="cb105-5" d="M13,22h3V21h1V19h1V18h1V16h1V15H19V13H18V12H17V11H15V10H11v1H10v4H9v1h1v2h1v1h1V18h1v1h3v1H13V19H12v2h1Zm2-6v1H14V16H13V15H11V14h1V13h1V12h3v1h1v1h1v1H16v1Z"/><path class="cb105-2" d="M17,20v1h1V20Z"/><path class="cb105-2" d="M11,20v1h1V20Z"/><rect class="cb105-2" x="8" y="15" width="1" height="1"/><path class="cb105-6" d="M18,15V14H17v1Z"/><rect class="cb105-6" x="16" y="13" width="1" height="1"/><rect class="cb105-2" x="14" y="14" width="1" height="1"/><path class="cb105-4" d="M16,15h1V14H16V13H13v1H12v1h1v1h3Zm-1,0H14V14h1Z"/><path class="cb105-6" d="M16,13V12H13v1h3Z"/><rect class="cb105-6" x="12" y="13" width="1" height="1"/><path class="cb105-6" d="M11,14v1h1V14Z"/><path class="cb105-2" d="M14,17h1V16H14Z"/><path class="cb105-7" d="M19,17v1H18v1H17v1h1v1h2V20h1V19H20V16H19Z"/><path class="cb105-7" d="M12,20V19H11V18H10V16H9v3H8v1H9v1h2V20Z"/><rect class="cb105-2" x="13" y="19" width="3" height="1"/><rect class="cb105-2" x="12" y="18" width="1" height="1"/><path class="cb105-8" d="M10,14V11H9v4h1Z"/><rect class="cb105-8" x="10" y="10" width="1" height="1"/><path class="cb105-8" d="M15,10v1h2v1h1v1h1v2h1V14h1V11H20V10H19V9H17V8H12V9H11v1h4Z"/><rect class="cb105-2" x="14" y="30" width="1" height="1"/><path class="cb105-2" d="M12,27V26H11v3h1V28h1V27Z"/><path class="cb105-2" d="M17,27H16v1h1v1h1V26H17Z"/><rect class="cb105-2" x="13" y="26" width="1" height="1"/><rect class="cb105-2" x="15" y="26" width="1" height="1"/><path class="cb105-2" d="M12,25v1h1V25h1v1h1V25h1v1h1V24h1V23H17V21H16v1H13V21H12v2H11v1h1Zm3-2h1v1H15Zm-2,0h1v1H13Z"/><rect class="cb105-9" x="16" y="26" width="1" height="1"/><path class="cb105-9" d="M15,27V26H14v1H13v1h1v2h1V28h1V27Z"/><rect class="cb105-9" x="12" y="26" width="1" height="1"/><path class="cb105-9" d="M12,26V24H11v2Z"/><path class="cb105-9" d="M17,25v1h1V24H17Z"/><path class="cb105-2" d="M21,26V25H19V24H18v2Z"/></svg>