<svg xmlns="http://www.w3.org/2000/svg" viewBox="0 0 29 33"><defs><style>polygon,rect,path{shape-rendering:crispedges;}.za47-1{fill:#7a982c;}.za47-2{fill:#000000;}.za47-3{fill:#db5800;}.za47-4{fill:#e8b795;}.za47-5{fill:#ff791f;}.za47-6{fill:#e2e2e2;}.za47-7{fill:#e2e2e2;}.za47-8{fill:#990000;}.za47-9{fill:#cbed03;}.za47-10{fill:#00e070;}</style></defs><path class="za47-1" d="M0,33H6V27H7V26H8V25h2V24h1V23h1V21H11V20H10V19H9V16H8V14H9V10h1V9h1V8h7V9h1v2h1v3h1v2H20v3H19v1H18v1H17v2h1v1h1v1h2v1h1v1h1v6h6V0H0Z"/><path class="za47-2" d="M23,27H22v6h1V27Z"/><path class="za47-3" d="M21,31v2h1V31Z"/><path class="za47-3" d="M21,28v2h1V27H21Z"/><rect class="za47-2" x="21" y="26" width="1" height="1"/><path class="za47-2" d="M21,30V27H20v6h1V30Z"/><path class="za47-3" d="M20,32V26H19V25H18v1H17v1H16V25H15v2H14V25H13v2H12V26H11V25H10v1H9v6h1v1h4V32h1v1h4V32Zm-9-3H10V28h1Zm2,2H12V30h1Zm2,0H14V30h1Zm0-2H14V28h1Zm2,2H16V30h1Zm1-2V28h1v1Z"/><path class="za47-2" d="M20,26h1V25H19v1Z"/><rect class="za47-3" x="16" y="24" width="1" height="1"/><rect class="za47-2" x="15" y="24" width="1" height="1"/><rect class="za47-2" x="14" y="32" width="1" height="1"/><rect class="za47-2" x="14" y="30" width="1" height="1"/><rect class="za47-2" x="14" y="28" width="1" height="1"/><path class="za47-2" d="M14,26v1h1V25H14Z"/><rect class="za47-2" x="13" y="24" width="1" height="1"/><path class="za47-4" d="M16,24V23H13v1h1v1h1V24Z"/><rect class="za47-3" x="12" y="24" width="1" height="1"/><path class="za47-2" d="M11,26h2V25H12V24h1V22H12v1H11v1H10v1h1Z"/><path class="za47-2" d="M10,26V25H8v1h2Z"/><path class="za47-2" d="M9,31V27H8v6H9V31Z"/><path class="za47-3" d="M7,31v2H8V31Z"/><path class="za47-3" d="M7,30H8V27H7v3Z"/><rect class="za47-2" x="7" y="26" width="1" height="1"/><path class="za47-2" d="M7,30V27H6v6H7V30Z"/><rect class="za47-5" x="10" y="28" width="1" height="1"/><rect class="za47-5" x="12" y="30" width="1" height="1"/><path class="za47-5" d="M12,27h1V26H12Z"/><rect class="za47-5" x="16" y="30" width="1" height="1"/><rect class="za47-5" x="18" y="28" width="1" height="1"/><path class="za47-5" d="M16,27h1V26H16Z"/><path class="za47-5" d="M9,27V26H8v1Z"/><path class="za47-5" d="M19,32v1h1V32Z"/><path class="za47-5" d="M9,32v1h1V32Z"/><path class="za47-5" d="M7,31H8V30H7Z"/><path class="za47-5" d="M21,31h1V30H21Z"/><path class="za47-5" d="M20,27h1V26H20Z"/><path class="za47-2" d="M20,16h1V15H20Z"/><rect class="za47-4" x="14" y="15" width="1" height="1"/><rect class="za47-4" x="12" y="19" width="1" height="1"/><path class="za47-4" d="M18,10H16v1H15v1H14v1H13v1h3V13h1V12h2V11H18Z"/><path class="za47-4" d="M13,21h3V20H13Z"/><path class="za47-4" d="M16,17V16H15v1H14V16H13v1H10v1h1v1h1V18h1v1h3v1h1V19h1V18h1V17H16Z"/><path class="za47-2" d="M16,23v1h1v1H16v1h2V25h1V24H18V23H17V22H16Z"/><path class="za47-2" d="M8,15v1H9V15Z"/><rect class="za47-2" x="14" y="16" width="1" height="1"/><path class="za47-6" d="M19,12H17v1h2Z"/><path class="za47-7" d="M13,23h3V22h1V21h1V20h1V19h1V16H19v2H18v1H17v1H16v1H13V20H12V19H11V18H10V16H9v3h1v1h1v1h1v1h1Z"/><rect class="za47-2" x="13" y="19" width="3" height="1"/><rect class="za47-2" x="12" y="18" width="1" height="1"/><path class="za47-8" d="M10,13h4V12h1V11h1V10h2v1h1V9H18V8H11V9H10v1H9v4h1Z"/><path class="za47-8" d="M19,13v1h1V11H19v2Z"/><path class="za47-9" d="M19,15v1h1V15h1V14H19Z"/><path class="za47-9" d="M19,14V13H16v1h3Z"/><path class="za47-10" d="M19,14H16v2h3V14Z"/><path class="za47-9" d="M16,16v1h3V16H16Z"/><path class="za47-9" d="M14,16V15h1v1h1V14H13v2Z"/><path class="za47-9" d="M13,14V13H10v1h3Z"/><path class="za47-10" d="M13,16V14H10v2h3Z"/><path class="za47-9" d="M13,17V16H10v1h3Z"/><path class="za47-9" d="M10,15V14H8v1H9v1h1Z"/></svg>