<svg xmlns="http://www.w3.org/2000/svg" viewBox="0 0 29 33"><defs><style>polygon,rect,path{shape-rendering:crispedges;}.ba275-1{fill:#b4bd09;}.ba275-2{fill:#000000;}.ba275-3{fill:#e8b795;}.ba275-4{fill:#f9e100;}.ba275-5{fill:#ffffff;}.ba275-6{fill:#7f5018;}.ba275-7{fill:#6e12ff;}</style></defs><path class="ba275-1" d="M0,33H6V27H7V26H8V25h2V24h2V21H11V20H10V19H9V16H8V15H9V11h1V10h1V9h1V8h5V9h2v1h1v1h1v3H20v1h1v1H20v3H19v1H18v1H17v3h2v1h2v1h1v1h1v6h6V0H0Z"/><path class="ba275-2" d="M23,27H22v6h1V27Z"/><rect class="ba275-2" x="21" y="26" width="1" height="1"/><path class="ba275-3" d="M22,27H21v6h1V27Z"/><rect class="ba275-3" x="20" y="26" width="1" height="1"/><path class="ba275-2" d="M21,27H20v6h1V27Z"/><path class="ba275-2" d="M20,26h1V25H19v1Z"/><path class="ba275-4" d="M20,27V26H19V25H18v1H17v1H16v1H13V27H12V26H11V25H10v1H9v7H20V27Z"/><path class="ba275-2" d="M18,26V25h1V24H17v2Z"/><rect class="ba275-2" x="16" y="26" width="1" height="1"/><path class="ba275-2" d="M13,27v1h3V27H13Z"/><path class="ba275-2" d="M13,23h3v1h1V21H16v1H13V21H12v3h1Z"/><path class="ba275-3" d="M13,26v1h3V26h1V24H16V23H13v1H12v2Z"/><rect class="ba275-2" x="12" y="26" width="1" height="1"/><path class="ba275-2" d="M11,26h1V24H10v1h1Z"/><path class="ba275-2" d="M10,26V25H8v1h2Z"/><path class="ba275-3" d="M9,27V26H8v1Z"/><path class="ba275-2" d="M9,27H8v6H9V27Z"/><rect class="ba275-2" x="7" y="26" width="1" height="1"/><path class="ba275-3" d="M8,27H7v6H8V27Z"/><path class="ba275-2" d="M7,27H6v6H7V27Z"/><rect class="ba275-2" x="20" y="15" width="1" height="1"/><path class="ba275-3" d="M18,14h1V13H17v1Z"/><path class="ba275-3" d="M13,22h3V21h1V20h1V19h1V16h1V15H16V13h1V11H15V10H11v1H10v2h1V12h2v1H11v1h2v1H9v1h1v3h1v1h1v1h1Zm1-6h1v1H14Zm-2,3V18h1v1h3v1H13V19Z"/><path class="ba275-2" d="M19,17v2h1V16H19Z"/><rect class="ba275-2" x="18" y="19" width="1" height="1"/><rect class="ba275-2" x="17" y="20" width="1" height="1"/><rect class="ba275-2" x="11" y="20" width="1" height="1"/><rect class="ba275-2" x="10" y="19" width="1" height="1"/><path class="ba275-2" d="M10,16H9v3h1V16Z"/><rect class="ba275-2" x="8" y="15" width="1" height="1"/><rect class="ba275-2" x="14" y="16" width="1" height="1"/><path class="ba275-5" d="M13,15V14H12v1Z"/><path class="ba275-5" d="M10,15h1V14H10Z"/><path class="ba275-5" d="M18,14v1h1V14Z"/><path class="ba275-5" d="M16,14v1h1V14Z"/><path class="ba275-2" d="M12,15V14H11v1Z"/><path class="ba275-2" d="M17,14v1h1V14Z"/><rect class="ba275-6" x="10" y="13" width="1" height="1"/><rect class="ba275-6" x="11" y="12" width="2" height="1"/><path class="ba275-6" d="M17,13H16v1h1Z"/><path class="ba275-6" d="M18,12H17v1h1Z"/><rect class="ba275-2" x="13" y="19" width="3" height="1"/><rect class="ba275-2" x="12" y="18" width="1" height="1"/><path class="ba275-7" d="M10,14V11H9v4h1Z"/><rect class="ba275-7" x="10" y="10" width="1" height="1"/><path class="ba275-7" d="M15,10v1h2v1h1v1h1v2h1V14h1V11H20V10H19V9H17V8H12V9H11v1h4Z"/></svg>