<svg xmlns="http://www.w3.org/2000/svg" viewBox="0 0 29 33"><defs><style>polygon,rect,path{shape-rendering:crispedges;}.da180-1{fill:#29834f;}.da180-2{fill:#000000;}.da180-3{fill:#009b97;}.da180-4{fill:#b2622b;}.da180-5{fill:#ffffff;}.da180-6{fill:#ffffff;}.da180-7{fill:#663434;}.da180-8{fill:#663434;}.da180-9{fill:#72dd40;}.da180-10{fill:#efc075;}.da180-11{fill:#2aa8e8;}.da180-12{fill:#d8aa68;}.da180-13{fill:#563e1b;}</style></defs><path class="da180-1" d="M6,32V28H5V27H4V25H5V24H8v1h2V24h2V21H11V20H10V19H9V16H8V14H9V12H8v1H7V12H8V11H9V10h1V9h2V8h5V9h2v1h1v1h1v1h1v1H21V12H20v2h2v8h1v1h1v8H23v1H22v1h7V0H0V33H6Z"/><path class="da180-1" d="M21,25V16H20v3H19v1H18v1H17v3h2v1h2Z"/><path class="da180-2" d="M9,31V26h1V25H8v8H9V31Z"/><path class="da180-2" d="M7,27H5v1H6v5H7V27Z"/><path class="da180-2" d="M12,24H10v1h2Z"/><path class="da180-2" d="M13,23h3v1h1V21H16v1H13V21H12v3h1Z"/><path class="da180-2" d="M18,24H17v1h2V24Z"/><path class="da180-2" d="M21,29V27H20v6h1V29Z"/><path class="da180-2" d="M20,25H19v1h2V25Z"/><rect class="da180-2" x="22" y="31" width="1" height="1"/><path class="da180-2" d="M23,31h1V23H23v8Z"/><path class="da180-3" d="M19,32V31H18v1H17V29h1V28h1v1h1V27h1V26H19V25H17v1H16v1H13V26H12V25H10v1H9v3h1V28h1v1h1v3H11V31H10v1H9v1H20V32Zm-3-2v1H15v1H13V28h2v1h1Z"/><rect class="da180-3" x="10" y="29" width="1" height="1"/><path class="da180-3" d="M15,29H14v2h1V29Z"/><rect class="da180-3" x="18" y="29" width="1" height="1"/><path class="da180-2" d="M13,26v1h3V26H13Z"/><path class="da180-4" d="M13,25v1h3V25h1V24H16V23H13v1H12v1Z"/><rect class="da180-2" x="16" y="25" width="1" height="1"/><rect class="da180-2" x="12" y="25" width="1" height="1"/><path class="da180-5" d="M19,30H18V29H17v3h1V31h1v1h1V29H19Z"/><rect class="da180-5" x="18" y="28" width="1" height="1"/><path class="da180-5" d="M15,30v1h1V29H15Z"/><path class="da180-5" d="M14,30V29h1V28H13v4h2V31H14Z"/><path class="da180-5" d="M9,32h1V31h1v1h1V29H11v1H10V29H9v3Z"/><rect class="da180-5" x="10" y="28" width="1" height="1"/><rect class="da180-2" x="20" y="15" width="1" height="1"/><path class="da180-4" d="M13,22h3V21h1V20h1V19h1V16h1V15H16V14h3V13H16V12H15V11H14v1H13v1H10v1h3v1H9v1h1v3h1v1h1v1h1Zm1-6h1v1H14Zm-2,3V18h5v1H16v1H13V19Z"/><path class="da180-2" d="M20,18V16H19v3h1Z"/><rect class="da180-2" x="18" y="19" width="1" height="1"/><rect class="da180-2" x="17" y="20" width="1" height="1"/><rect class="da180-2" x="11" y="20" width="1" height="1"/><rect class="da180-2" x="10" y="19" width="1" height="1"/><path class="da180-2" d="M10,15V14H9v1Z"/><path class="da180-2" d="M10,16H9v3h1V16Z"/><path class="da180-2" d="M8,15v1H9V15Z"/><rect class="da180-2" x="14" y="16" width="1" height="1"/><path class="da180-6" d="M11,15V14H10v1Z"/><path class="da180-6" d="M16,14v1h1V14Z"/><path class="da180-2" d="M12,15h1V14H11v1Z"/><path class="da180-2" d="M18,14H17v1h3V14H18Z"/><path class="da180-7" d="M12,13h1V12H12Z"/><path class="da180-7" d="M16,12v1h1V12Z"/><path class="da180-8" d="M16,19h1V18H13v1Z"/><rect class="da180-2" x="13" y="19" width="3" height="1"/><path class="da180-2" d="M13,18H12v1h1Z"/><rect class="da180-9" x="21" y="12" width="1" height="1"/><path class="da180-9" d="M10,13h2V12h2V11h1v1h2v1h2v1h1V12h1V11H20V10H19V9H17V8H12V9H10v1H9v1H8v1H9v2h1Z"/><path class="da180-9" d="M21,15V14H20v1Z"/><path class="da180-9" d="M9,14H8v1H9Z"/><rect class="da180-9" x="7" y="12" width="1" height="1"/><path class="da180-4" d="M8,26H7V25H5v2H7v6H8V26Z"/><path class="da180-10" d="M21,27v2h1V27Z"/><path class="da180-10" d="M21,20v1h1V19H21Z"/><path class="da180-10" d="M21,16v1h1V15H21Z"/><path class="da180-11" d="M22,15V14H21v1Z"/><path class="da180-4" d="M21,23v2h1v6h1V23H21Z"/><path class="da180-12" d="M22,26V25H21v2h1Z"/><path class="da180-12" d="M21,23h1V21H21Z"/><path class="da180-12" d="M21,18v1h1V17H21Z"/><path class="da180-6" d="M7,26H8V24H5v1H7Z"/><path class="da180-13" d="M22,31V29H21v4h1V31Z"/><path class="da180-2" d="M23,23V22H22v1Z"/><path class="da180-2" d="M4,25v2H5V25Z"/></svg>