<svg xmlns="http://www.w3.org/2000/svg" viewBox="0 0 29 33"><defs><style>polygon,rect,path{shape-rendering:crispedges;}.bb247-1{fill:#6b4f99;}.bb247-2{fill:#000000;}.bb247-3{fill:#9b8100;}.bb247-4{fill:#ffffff;}.bb247-5{fill:#e8b795;}.bb247-6{fill:#663228;}.bb247-7{fill:#663228;}.bb247-8{fill:#00af68;}</style></defs><rect class="bb247-1" x="19" y="16" width="1"/><rect class="bb247-1" x="11" y="10" height="1"/><path class="bb247-1" d="M0,33H6V27H7V26H8V25h2V24h1V23h1V22H11V21H10V20H9V16H8V15H9V11h1V10h1V9h1V8h1V6h1V5h1V7h1V9h2v1h1v1h1v4h1v1H20v4H19v1H18v1H17v1h1v1h1v1h1V24h1V23h1v1h1v9h6V0H0Z"/><polygon class="bb247-1" points="14 16 15 16 15 17 15 17 15 16 14 16 14 16"/><polygon class="bb247-1" points="10 17 10 17 10 16 9 16 9 16 10 16 10 17"/><path class="bb247-2" d="M7,27H6v6H7V27Z"/><rect class="bb247-2" x="7" y="26" width="1" height="1"/><path class="bb247-3" d="M8,27H7v6H8V27Z"/><path class="bb247-2" d="M9,27H8v6H9V27Z"/><path class="bb247-2" d="M10,25H8v1h2Z"/><path class="bb247-3" d="M12,29H11V25H10v1H8v1H9v6h3V29Z"/><path class="bb247-2" d="M11,26v3h1V26h1V25H12V24h1V23H11v1H10v1h1Z"/><rect class="bb247-4" x="12" y="24" width="1" height="1"/><path class="bb247-2" d="M13,29H12v4h1V29Z"/><rect class="bb247-4" x="13" y="23" width="1" height="1"/><path class="bb247-4" d="M16,29h1V26H16V25H13v1H12v3h1v4h1V32h1v1h1V29Zm-1,2H14V30h1Zm0-2H14V28h1Zm0-2H14V26h1Z"/><rect class="bb247-2" x="14" y="26" width="1" height="1"/><rect class="bb247-2" x="14" y="28" width="1" height="1"/><rect class="bb247-2" x="14" y="30" width="1" height="1"/><rect class="bb247-2" x="14" y="32" width="1" height="1"/><rect class="bb247-4" x="15" y="23" width="1" height="1"/><path class="bb247-2" d="M15,24V23H14v1H13v1h3V24Z"/><rect class="bb247-4" x="16" y="24" width="1" height="1"/><path class="bb247-2" d="M17,29H16v4h1V29Z"/><path class="bb247-2" d="M16,24h1v1H16v1h1v3h1V25h1V24H18V23H16Z"/><path class="bb247-3" d="M20,27H19V25H18v4H17v4h3V27Z"/><path class="bb247-2" d="M21,28V27H20v6h1V28Z"/><path class="bb247-4" d="M21,28h1V27H21Z"/><path class="bb247-3" d="M22,28H21v5h1V28Z"/><path class="bb247-2" d="M23,24H22v9h1V24Z"/><polygon class="bb247-2" points="20 16 20 16 21 16 21 15 20 15 20 16 20 16"/><path class="bb247-5" d="M18,11V10H16v1H15V10H11v1H10v2h1V12h2v1h4V12h2v1H18v1h1V11H18Z"/><path class="bb247-5" d="M18,16H16V15H15V14H14v1H13v1H10v1h1v1h5v1h1V18h1V17h1V16H18Zm-3,1H14V16h1Z"/><rect class="bb247-5" x="11" y="13" height="1"/><polygon class="bb247-5" points="9 16 10 16 10 15 9 15 9 15 9 15 9 16"/><rect class="bb247-5" x="18" y="10"/><polygon class="bb247-5" points="19 16 20 16 20 16 20 15 20 15 19 15 19 16"/><polygon class="bb247-2" points="18 11 19 11 19 11 19 10 18 10 18 10 18 11"/><path class="bb247-2" d="M18,10h0V9H16v1Z"/><path class="bb247-2" d="M12,10h2V9H11v1h1Z"/><polygon class="bb247-2" points="9 15 9 15 8 15 8 16 9 16 9 16 9 15"/><polygon class="bb247-2" points="14 16 14 16 14 17 15 17 15 17 15 16 14 16"/><path class="bb247-4" d="M11,15H10v1h1Z"/><rect class="bb247-4" x="18" y="15" width="1" height="1"/><polygon class="bb247-6" points="10 13 10 13 10 14 11 14 11 13 10 13"/><path class="bb247-6" d="M11,12v1h2V12Z"/><polygon class="bb247-6" points="19 12 17 12 17 13 18 13 18 13 19 13 19 12"/><path class="bb247-7" d="M15,18H13v1h3V18Z"/><path class="bb247-7" d="M14,23h3V22h1V21h1V20h1V16H19v1H18v1H17v1H16v1H13V19H12V18H11V17H10V16H9v4h1v1h1v1h1v1h2Z"/><rect class="bb247-2" x="13" y="19" width="3" height="1"/><path class="bb247-2" d="M12,18v1h1V18Z"/><path class="bb247-5" d="M21,27h1V24H21v1H20v2Z"/><path class="bb247-2" d="M20,27V25H19v2Z"/><rect class="bb247-2" x="20" y="24" width="1" height="1"/><rect class="bb247-2" x="21" y="23" width="1" height="1"/><path class="bb247-8" d="M14,10h1v1h1V7H15V5H14V6H13V8H12V9h2Z"/><path class="bb247-2" d="M11,15v1h2V15h1V14h1v1h1v1h2V15h2V11H19v3H18V13H11v1H10V13h0V11h1V10H10v1H9v4h2Z"/></svg>