<svg xmlns="http://www.w3.org/2000/svg" viewBox="0 0 29 33"><defs><style>polygon,rect,path{shape-rendering:crispedges;}.ta224-1{fill:#397d98;}.ta224-2{fill:#000000;}.ta224-3{fill:#8c7850;}.ta224-4{fill:#b2622b;}.ta224-5{fill:#8e4717;}.ta224-6{fill:#ffffff;}.ta224-7{fill:#0068ff;}.ta224-8{fill:#8e4717;}</style></defs><rect class="ta224-1" x="14" y="16" width="1"/><rect class="ta224-1" x="14" y="17" width="1"/><rect class="ta224-1" x="10" y="20" width="1"/><rect class="ta224-1" x="18" y="20" width="1"/><path class="ta224-2" d="M23,27H22v6h1V27Z"/><path class="ta224-3" d="M22,27H21v6h1V27Z"/><rect class="ta224-2" x="21" y="26" width="1" height="1"/><path class="ta224-2" d="M21,27H20v6h1V27Z"/><path class="ta224-3" d="M20,27h1V26H19V25H18V24H16v1h1v5H16V25H13v5H12V25h1V24H11v1H10v1H8v1H9v6H20V27Z"/><path class="ta224-2" d="M20,26h1V25H19v1Z"/><rect class="ta224-2" x="18" y="24" width="1" height="1"/><path class="ta224-2" d="M16,24h2V23H16Z"/><path class="ta224-2" d="M13,24v1h3V24H13Z"/><path class="ta224-4" d="M16,23H13v1h3V23Z"/><path class="ta224-2" d="M13,23H11v1h2Z"/><rect class="ta224-2" x="10" y="24" width="1" height="1"/><path class="ta224-2" d="M10,25H8v1h2Z"/><path class="ta224-2" d="M9,27H8v6H9V27Z"/><path class="ta224-3" d="M8,27H7v6H8V27Z"/><rect class="ta224-2" x="7" y="26" width="1" height="1"/><path class="ta224-2" d="M7,27H6v6H7V27Z"/><path class="ta224-2" d="M12,26v4h1V25H12Z"/><path class="ta224-2" d="M16,30h1V25H16v5Z"/><path class="ta224-4" d="M19,19V15H18v1H16V15H15V14H14v1H13v1H11V15H10v4h1v1h1v1h1v1h3V21h1V20h1V19Zm-5-2V16h1v1H14Zm3,2H16v1H13V19H12V18h5Z"/><rect class="ta224-4" x="18" y="13" width="1" height="1"/><polygon class="ta224-2" points="15 16 14 16 14 17 15 17 15 16"/><rect class="ta224-5" x="10" y="13" width="1" height="1"/><path class="ta224-6" d="M13,12h4V11H12v1Z"/><path class="ta224-7" d="M11,13h8V12H10v1Z"/><path class="ta224-3" d="M13,23V22H12V21H11V20H10V19H9V12h1V11h2V10h5v1h2v1h1v7H19v1H18v1H17v1H16v1h2V22h1V21h1V20h1V11H20V10H19V9H18V8H11V9H10v1H9v1H8v9H9v1h1v1h1v1h2Z"/><polygon class="ta224-2" points="11 9 11 8 10 8 10 9 11 9 11 9"/><polygon class="ta224-2" points="10 10 10 9 9 9 9 10 10 10 10 10"/><polygon class="ta224-2" points="9 11 9 10 8 10 8 11 9 11 9 11"/><path class="ta224-2" d="M8,11H7v9H8V11Z"/><polygon class="ta224-2" points="8 20 8 21 9 21 9 20 8 20"/><polygon class="ta224-2" points="9 21 9 22 10 22 10 21 9 21"/><polygon class="ta224-2" points="10 22 10 23 11 23 11 22 10 22"/><polygon class="ta224-2" points="18 22 18 23 19 23 19 22 18 22 18 22"/><polygon class="ta224-2" points="19 21 19 22 20 22 20 21 19 21 19 21"/><polygon class="ta224-2" points="20 20 20 21 21 21 21 20 20 20 20 20"/><path class="ta224-2" d="M21,20h1V11H21v9Z"/><rect class="ta224-2" x="20" y="10" width="1" height="1"/><rect class="ta224-2" x="19" y="9" width="1" height="1"/><rect class="ta224-2" x="18" y="8" width="1" height="1"/><path class="ta224-2" d="M18,8V7H11V8h7Z"/><path class="ta224-2" d="M12,11H10v1h2Z"/><path class="ta224-2" d="M11,19H10V15h1v1h2V15h1V14h1v1h1v1h2V15h1v4H18v1h1V19h1V12H19v2H18V13H11v1H10V12H9v7h1v1h1Z"/><path class="ta224-2" d="M16,23V22h1V21h1V20H17v1H16v1H13V21H12V20H11v1h1v1h1v1h3Z"/><path class="ta224-2" d="M18,12h1V11H17v1Z"/><path class="ta224-2" d="M17,11V10H12v1h5Z"/><path class="ta224-1" d="M0,0V7H0V33H6V27H7V26H8V25h2V24h1V23H10V22H9V21H8V20H7V11H8V10H9V9h1V8h1V7h7V8h1V9h1v1h1v1h1v9H21v1H20v1H19v1H18v1h1v1h2v1h1v1h1v6h6V7h0V0Z"/><path class="ta224-8" d="M13,19h4V18H13Z"/><path class="ta224-2" d="M13,20h3V19H13Z"/><path class="ta224-2" d="M12,18v1h1V18Z"/></svg>