<svg xmlns="http://www.w3.org/2000/svg" viewBox="0 0 29 33"><defs><style>polygon,rect,path{shape-rendering:crispedges;}.ab12-1{fill:#6b4f99;}.ab12-2{fill:#000000;}.ab12-3{fill:#d8be00;}.ab12-4{fill:#e8b795;}.ab12-5{fill:#ffed9f;}.ab12-6{fill:#316a6d;}.ab12-7{fill:#ff791f;}.ab12-8{fill:#ffffff;}.ab12-9{fill:#455054;}.ab12-10{fill:#ff1f4a;}.ab12-11{fill:#002b4f;}</style></defs><path class="ab12-1" d="M8,32H6V31H5V22H6V21H7V20H5v1H2V17H5V16H8V15H9V10h1V9h1V8h7V9h1v1h1v5h1v1H20v6H19v3h2v1h1v1h1v6h6V0H0V33H8Z"/><path class="ab12-1" d="M9,24H8v1h2V24Z"/><path class="ab12-1" d="M8,18v4H9V16H8v2Z"/><path class="ab12-2" d="M6,29V22H5v9H6V29Z"/><path class="ab12-2" d="M23,27H22v6h1V27Z"/><path class="ab12-3" d="M21,28h1V27H21Z"/><path class="ab12-3" d="M21,31v1h1V30H21Z"/><rect class="ab12-2" x="21" y="26" width="1" height="1"/><path class="ab12-2" d="M21,31V27H20v6h1V31Z"/><path class="ab12-3" d="M18,26v2h1v1h1V27H19V25H18Z"/><path class="ab12-3" d="M14,31H13V30H12V28H11V27H10V26H9v2h1v1h1v2h1v1h1v1h1V31Z"/><path class="ab12-3" d="M10,31V30H9v2h1v1h1V31Z"/><rect class="ab12-3" x="14" y="29" width="1" height="1"/><path class="ab12-3" d="M16,31V30H15v2h1v1h1V31Z"/><path class="ab12-3" d="M13,29h1V27H13V26H12v2h1Z"/><path class="ab12-3" d="M19,31V30H18V28H17V27H16V25H15v3h1v1h1v2h1v1h1v1h1V31Z"/><path class="ab12-2" d="M20,26h1V25H19v1Z"/><rect class="ab12-3" x="16" y="24" width="1" height="1"/><path class="ab12-2" d="M17,25H16v1h1Z"/><rect class="ab12-2" x="15" y="24" width="1" height="1"/><path class="ab12-2" d="M14,32v1h1V32Z"/><path class="ab12-2" d="M14,31h1V30H14Z"/><path class="ab12-2" d="M14,29h1V28H14Z"/><path class="ab12-2" d="M14,26v1h1V25H14Z"/><rect class="ab12-2" x="13" y="24" width="1" height="1"/><path class="ab12-4" d="M16,24V23H13v1h1v1h1V24Z"/><path class="ab12-2" d="M12,25H11v1h2V25Z"/><path class="ab12-2" d="M9,31V27H8V26h2V25H8V24H7v7H6v1H8v1H9V31Z"/><path class="ab12-3" d="M7,30H6v1H7Z"/><path class="ab12-3" d="M6,26v2H7V25H6Z"/><path class="ab12-5" d="M19,28H18v2h1v1h1V29H19Z"/><path class="ab12-5" d="M21,29v1h1V28H21Z"/><path class="ab12-5" d="M21,32v1h1V32Z"/><path class="ab12-5" d="M17,26H16v1h1v1h1V26Z"/><path class="ab12-5" d="M19,26v1h2V26H19Z"/><path class="ab12-5" d="M18,32V31H17v2h2V32Z"/><path class="ab12-5" d="M15,30h1v1h1V29H16V28H15v2Z"/><path class="ab12-5" d="M14,28h1V27H14Z"/><polygon class="ab12-5" points="13 26 13 27 14 27 14 26 14 25 13 25 13 26"/><path class="ab12-5" d="M14,32h1V31H14Z"/><rect class="ab12-5" x="15" y="32" width="1" height="1"/><path class="ab12-5" d="M14,29H13V28H12v2h1v1h1V29Z"/><rect class="ab12-5" x="12" y="24" width="1" height="1"/><path class="ab12-5" d="M11,26v2h1V26Z"/><path class="ab12-5" d="M12,32V31H11v2h2V32Z"/><path class="ab12-5" d="M10,30v1h1V29H10V28H9v2Z"/><path class="ab12-5" d="M6,25H7V24H6Z"/><path class="ab12-5" d="M6,29v1H7V28H6Z"/><path class="ab12-5" d="M9,32v1h1V32Z"/><path class="ab12-5" d="M8,27H9V26H8Z"/><rect class="ab12-2" x="20" y="15" width="1" height="1"/><path class="ab12-4" d="M10,19h1v1h1v1h1v1h3V21h1V20h1V19h1V16H18v1H16V16H15v1H14V16H13v1H11V16H10v3Zm3,0h3V18h1v1H16v1H13Z"/><rect class="ab12-4" x="9" y="15" width="1" height="1"/><path class="ab12-4" d="M13,13v1h3V12h1V11H15V10H12v1H11v1h2Z"/><rect class="ab12-4" x="14" y="15" width="1" height="1"/><path class="ab12-2" d="M19,17v2h1V16H19Z"/><rect class="ab12-2" x="18" y="19" width="1" height="1"/><rect class="ab12-2" x="17" y="20" width="1" height="1"/><path class="ab12-2" d="M16,22H13V21H12v3h1V23h3v1h1V21H16Z"/><rect class="ab12-2" x="11" y="20" width="1" height="1"/><rect class="ab12-2" x="10" y="19" width="1" height="1"/><path class="ab12-2" d="M10,18V16H9v3h1Z"/><rect class="ab12-2" x="8" y="15" width="1" height="1"/><rect class="ab12-2" x="14" y="16" width="1" height="1"/><path class="ab12-6" d="M16,13h2V12H16Z"/><rect class="ab12-6" x="10" y="13" width="1" height="1"/><path class="ab12-6" d="M13,12H11v1h2Z"/><rect class="ab12-2" x="13" y="19" width="3" height="1"/><rect class="ab12-2" x="16" y="18" width="1" height="1"/><path class="ab12-7" d="M11,25h1V21H11V20H10V19H9v5h1v3h1V25Z"/><path class="ab12-7" d="M10,14V13h1V11h1V10h3v1h2v1h1v2h1v2h1V10H19V9H18V8H11V9H10v1H9v5h1Z"/><path class="ab12-7" d="M19,20H18v1H17v5h1V25h1V22h1V19H19Z"/><path class="ab12-8" d="M12,14h1V13H11v1Z"/><path class="ab12-8" d="M11,17h2V16H11Z"/><polygon class="ab12-8" points="11 15 11 14 10 14 10 15 10 16 11 16 11 15"/><path class="ab12-2" d="M12,14H11v2h2V14Z"/><path class="ab12-8" d="M19,16V14H18v2Z"/><path class="ab12-8" d="M16,14h2V13H16Z"/><path class="ab12-8" d="M16,17h2V16H16Z"/><path class="ab12-8" d="M13,14v2h1V15h1v1h1V14Z"/><path class="ab12-2" d="M16,16h2V14H16Z"/><path class="ab12-4" d="M7,24H8V22H6v2Z"/><path class="ab12-9" d="M8,22V20H7v2Z"/><path class="ab12-2" d="M7,21H6v1H7Z"/><path class="ab12-2" d="M9,22H8v2H9Z"/><path class="ab12-10" d="M5,17H2v1H5Z"/><path class="ab12-10" d="M2,21H5V20H2Z"/><path class="ab12-10" d="M5,19v1H6V19Z"/><path class="ab12-10" d="M8,19H7v1H8Z"/><path class="ab12-11" d="M7,18H8V17H7V16H6v1H5v1H6v2H7V18Z"/><path class="ab12-11" d="M5,19V18H2v1H5Z"/><path class="ab12-10" d="M6,16H5v1H6Z"/><path class="ab12-8" d="M6,19V18H5v1Z"/><path class="ab12-8" d="M4,19H2v1H5V19Z"/><path class="ab12-8" d="M7,18v1H8V18Z"/><path class="ab12-8" d="M8,17V16H7v1Z"/></svg>