<svg xmlns="http://www.w3.org/2000/svg" viewBox="0 0 29 33"><defs><style>polygon,rect,path{shape-rendering:crispedges;}.ta88-1{fill:#d4a122;}.ta88-2{fill:#000000;}.ta88-3{fill:#d8be00;}.ta88-4{fill:#b2622b;}.ta88-5{fill:#ffffff;}.ta88-6{fill:#000000;}.ta88-7{fill:#cbed03;}.ta88-8{fill:#304400;}.ta88-9{fill:#ff6aa5;}.ta88-10{fill:#ff1f4a;}.ta88-11{fill:#ff791f;}.ta88-12{fill:#fad000;}.ta88-13{fill:#b6dc00;}.ta88-14{fill:#00af68;}.ta88-15{fill:#38a6e8;}.ta88-16{fill:#0068ff;}.ta88-17{fill:#6e12ff;}.ta88-18{fill:#ff1d99;}.ta88-19{fill:#cc2f76;}</style></defs><rect class="ta88-1" x="19" y="24" width="1" height="1"/><rect class="ta88-1" x="18" y="23" width="1" height="1"/><path class="ta88-2" d="M7,27H6v6H7V27Z"/><path class="ta88-3" d="M8,27H7v6H8V27Z"/><rect class="ta88-2" x="7" y="26" width="1" height="1"/><path class="ta88-2" d="M9,27H8v6H9V27Z"/><path class="ta88-3" d="M20,28H19V25H18V24H16v1h1v5H16V25H13v5H12V25h1V24H11v1H10v1H8v1H9v6H20V28Z"/><path class="ta88-2" d="M10,25H8v1h2Z"/><rect class="ta88-2" x="10" y="24" width="1" height="1"/><path class="ta88-2" d="M13,23H11v1h2Z"/><path class="ta88-2" d="M13,24v1h3V24H13Z"/><path class="ta88-4" d="M15,23H13v1h3V23Z"/><path class="ta88-2" d="M17,23H16v1h2V23Z"/><rect class="ta88-2" x="18" y="24" width="1" height="1"/><path class="ta88-2" d="M21,28H20v5h1V28Z"/><path class="ta88-3" d="M22,28H21v5h1V28Z"/><path class="ta88-2" d="M23,26H22v7h1V26Z"/><path class="ta88-2" d="M12,26v4h1V25H12Z"/><path class="ta88-2" d="M16,30h1V25H16v5Z"/><path class="ta88-4" d="M16,22V21h1V20h1V19h1V15H16V14h3V13H16V12h1V11H15v4H14v1h1v1H14V16H13v1H11V16H10v3h1v1h1v1h1v1h3Zm-4-3V18h1v1h3v1H13V19Z"/><rect class="ta88-2" x="14" y="16" width="1" height="1"/><path class="ta88-5" d="M18,14v1h1V14Z"/><path class="ta88-5" d="M16,14v1h1V14Z"/><path class="ta88-2" d="M17,14v1h1V14Z"/><path class="ta88-6" d="M17,12H16v1h3V12H17Z"/><path class="ta88-3" d="M17,21v1H16v1h2V21Z"/><path class="ta88-3" d="M13,22H12V21H11V20H10V19H9V12h1V11h2V10h5v1h2v1h1v7h1V11H20V10H19V9H18V8H11V9H10v1H9v1H8v9H9v1h1v1h1v1h2Z"/><rect class="ta88-2" x="10" y="8" width="1" height="1"/><rect class="ta88-2" x="9" y="9" width="1" height="1"/><rect class="ta88-2" x="8" y="10" width="1" height="1"/><path class="ta88-2" d="M8,11H7v9H8V11Z"/><rect class="ta88-2" x="8" y="20" width="1" height="1"/><rect class="ta88-2" x="9" y="21" width="1" height="1"/><rect class="ta88-2" x="10" y="22" width="1" height="1"/><path class="ta88-2" d="M21,19h1V11H21v8Z"/><rect class="ta88-2" x="20" y="10" width="1" height="1"/><rect class="ta88-2" x="19" y="9" width="1" height="1"/><rect class="ta88-2" x="18" y="8" width="1" height="1"/><path class="ta88-2" d="M18,8V7H11V8h7Z"/><path class="ta88-2" d="M10,16h1V15H10V13h1V12h2v1h1v2h1V11h2V10H12v1H10v1H9v7h1V16Z"/><rect class="ta88-2" x="10" y="19" width="1" height="1"/><rect class="ta88-2" x="11" y="20" width="1" height="1"/><rect class="ta88-2" x="12" y="21" width="1" height="1"/><path class="ta88-2" d="M16,23V22H13v1h3Z"/><rect class="ta88-2" x="16" y="21" width="1" height="1"/><rect class="ta88-2" x="17" y="20" width="1" height="1"/><rect class="ta88-2" x="18" y="19" width="1" height="1"/><path class="ta88-1" d="M0,7V33H6V27H7V26H8V25h2V24h1V23H10V22H9V21H8V20H7V11H8V10H9V9h1V8h1V7h7V8h1V9h1v1h1v1h1v9h1v3H22v1H21v1h1v1h1v7h6V0H0Z"/><path class="ta88-7" d="M13,15V13H11v2h2Z"/><path class="ta88-8" d="M13,13v2h1V13Z"/><path class="ta88-8" d="M12,15H11v1h2V15Z"/><path class="ta88-8" d="M10,13v2h1V13Z"/><path class="ta88-8" d="M13,12H11v1h2Z"/><rect class="ta88-2" x="11" y="16" width="2" height="1"/><rect class="ta88-2" x="13" y="15" width="1" height="1"/><path class="ta88-2" d="M18,12h1V11H17v1Z"/><path class="ta88-2" d="M19,14v5h1V12H19v2Z"/><rect class="ta88-2" x="13" y="19" width="3" height="1"/><rect class="ta88-2" x="12" y="18" width="1" height="1"/><path class="ta88-5" d="M20,25v1h1V24H20Z"/><rect class="ta88-9" x="20" y="21" width="1" height="1"/><polygon class="ta88-10" points="20 23 19 23 19 24 20 24 21 24 21 23 20 23"/><rect class="ta88-11" x="21" y="23" width="1" height="1"/><path class="ta88-12" d="M22,22h1V20H22v2Z"/><path class="ta88-13" d="M20,19v1h2V19H20Z"/><rect class="ta88-14" x="19" y="19" width="1" height="1"/><rect class="ta88-14" x="18" y="20" width="1" height="1"/><path class="ta88-15" d="M19,21H18v2h1V21Z"/><path class="ta88-16" d="M19,22v1h2V22H19Z"/><path class="ta88-17" d="M22,21H21v2h1V21Z"/><path class="ta88-18" d="M20,21h2V20H20Z"/><path class="ta88-19" d="M19,21v1h1V20H19Z"/><path class="ta88-11" d="M22,23h1V22H22Z"/><path class="ta88-2" d="M21.5,26H22V25H21v1Z"/><path class="ta88-4" d="M21,26H20v2h2V26H21Z"/><path class="ta88-2" d="M20,25H19v3h1V25Z"/></svg>