<svg xmlns="http://www.w3.org/2000/svg" viewBox="0 0 29 33"><defs><style>polygon,rect,path{shape-rendering:crispedges;}.ma295-1{fill:#d14646;}.ma295-2{fill:#000000;}.ma295-3{fill:#3e5e00;}.ma295-4{fill:#ffffff;}.ma295-5{fill:#efcaaf;}.ma295-6{fill:#00af68;}.ma295-7{fill:#ffffff;}.ma295-8{fill:#8e703c;}.ma295-9{fill:#8e703c;}.ma295-10{fill:#e70059;}.ma295-11{fill:#ff6aa5;}</style></defs><rect class="ma295-1" x="12" y="8" width="1" height="1"/><path class="ma295-1" d="M0,33H8V32H6V31H5V23H4V20H5V19H7v1H8v1H9v2H8v2h2V24h2V21H11V20H10V19H9V16H8V15H9V11h1V10H9V9h1V8h2V7h1V8h3V9h1V8h1V9h1v1h1v5h1v1H20v3H19v1H18v1H17v3h2v1h2v1h1v1h1v6h6V0H0Z"/><path class="ma295-2" d="M6,29V23H5v8H6V29Z"/><path class="ma295-2" d="M23,27H22v6h1V27Z"/><path class="ma295-3" d="M21,28h1V27H21Z"/><path class="ma295-3" d="M21,30v1h1V29H21Z"/><path class="ma295-3" d="M21,32v1h1V32Z"/><rect class="ma295-2" x="21" y="26" width="1" height="1"/><path class="ma295-2" d="M21,31V27H20v6h1V31Z"/><path class="ma295-3" d="M19,32v1h1V32Z"/><path class="ma295-3" d="M19,26v1H18v3h1v1h1V29H19V28h1V27h1V26H19Z"/><path class="ma295-2" d="M20,26h1V25H19v1Z"/><path class="ma295-2" d="M18,30V25h1V24H17v1H16v1h1v7h1V30Z"/><path class="ma295-4" d="M17,26H16v1H13V26H12v7h5V26Z"/><path class="ma295-2" d="M13,26v1h3V26H13Z"/><path class="ma295-5" d="M13,25v1h3V25h1V24H16V23H13v1H12v1Z"/><path class="ma295-2" d="M13,23h3v1h1V21H16v1H13V21H12v3h1Z"/><path class="ma295-2" d="M12,26h1V25H12V24H10v1h1v8h1V26Z"/><path class="ma295-3" d="M10,26H8v1H9v1h1v1H9v2h1V30h1V27H10Z"/><rect class="ma295-3" x="9" y="32" width="1" height="1"/><path class="ma295-2" d="M9,31V27H8V26h2V25H8V23H7v8H6v1H8v1H9V31Z"/><path class="ma295-3" d="M6,28v2H7V27H6Z"/><path class="ma295-6" d="M11,30H10v1H9v1h1v1h1V30Z"/><path class="ma295-6" d="M10,28H9v1h1Z"/><path class="ma295-6" d="M7,30H6v1H7Z"/><path class="ma295-6" d="M6,25v2H7V24H6Z"/><path class="ma295-6" d="M10,27h1V25H10v2Z"/><path class="ma295-6" d="M18,26v1h1V25H18Z"/><path class="ma295-6" d="M21,29h1V28H21Z"/><path class="ma295-6" d="M19,29h1V28H19Z"/><path class="ma295-6" d="M21,32h1V31H21Z"/><path class="ma295-6" d="M20,32V31H19V30H18v3h1V32Z"/><rect class="ma295-2" x="20" y="15" width="1" height="1"/><rect class="ma295-5" x="16" y="19" width="1" height="1"/><path class="ma295-5" d="M12,19V18h5v1h2V16h1V15H16V14h2V13H16V12h2V11H17V10H16v1H11v1h1v1h1v2H9v1h1v3h2Zm2-3h1v1H14Z"/><rect class="ma295-5" x="13" y="20" width="1" height="1"/><rect class="ma295-5" x="12" y="19" width="1" height="1"/><path class="ma295-5" d="M10,14h2V13H10Z"/><rect class="ma295-5" x="18" y="12" width="1" height="1"/><rect class="ma295-5" x="15" y="20" width="1" height="1"/><path class="ma295-2" d="M19,17v2h1V16H19Z"/><path class="ma295-2" d="M18,20h1V19H18Z"/><rect class="ma295-2" x="17" y="20" width="1" height="1"/><rect class="ma295-2" x="11" y="20" width="1" height="1"/><path class="ma295-2" d="M10,19v1h1V19Z"/><path class="ma295-2" d="M10,14H9v1h1Z"/><path class="ma295-2" d="M10,16H9v3h1V16Z"/><rect class="ma295-2" x="8" y="15" width="1" height="1"/><rect class="ma295-2" x="14" y="16" width="1" height="1"/><path class="ma295-7" d="M12,15h1V14H12Z"/><path class="ma295-7" d="M10,14v1h1V14Z"/><path class="ma295-7" d="M18,14v1h1V14Z"/><path class="ma295-7" d="M16,14v1h1V14Z"/><path class="ma295-2" d="M11,14v1h1V14Z"/><path class="ma295-2" d="M17,14v1h1V14Z"/><rect class="ma295-8" x="18" y="13" width="1" height="1"/><rect class="ma295-8" x="16" y="12" width="2" height="1"/><path class="ma295-8" d="M13,14V13H12v1Z"/><path class="ma295-8" d="M10,13h2V12H10Z"/><path class="ma295-9" d="M17,19v1h1V19Z"/><rect class="ma295-9" x="16" y="20" width="1" height="1"/><path class="ma295-9" d="M15,20H14v1H13v1h3V21H15Z"/><rect class="ma295-9" x="12" y="20" width="1" height="1"/><path class="ma295-9" d="M12,19H11v1h1Z"/><path class="ma295-2" d="M13,18H12v1h1Z"/><path class="ma295-2" d="M17,19V18H16v1Z"/><rect class="ma295-2" x="15" y="19" width="1" height="1"/><path class="ma295-2" d="M15,19V18H14v1Z"/><rect class="ma295-2" x="13" y="19" width="1" height="1"/><path class="ma295-7" d="M14,19V18H13v1Z"/><path class="ma295-7" d="M16,19V18H15v1Z"/><rect class="ma295-10" x="14" y="19" width="1" height="1"/><path class="ma295-2" d="M9,23V21H8v2Z"/><rect class="ma295-2" x="7" y="20" width="1" height="1"/><rect class="ma295-2" x="5" y="19" width="2" height="1"/><path class="ma295-2" d="M5,20H4v3H5V20Z"/><path class="ma295-5" d="M6,24H7V23H8V21H7V20H5v3H6Z"/><path class="ma295-11" d="M10,13V12h1V11h5V10h1v1h1v1h1v3h1V10H19V9H18V8H17V9H16V8H13V9H12V8H10V9H9v1h1v1H9v3h1Z"/><rect class="ma295-11" x="12" y="7" width="1" height="1"/></svg>