<svg xmlns="http://www.w3.org/2000/svg" viewBox="0 0 29 33"><defs><style>polygon,rect,path{shape-rendering:crispedges;}.aa283-1{fill:#db5a8e;}.aa283-2{fill:#000000;}.aa283-3{fill:#ce8452;}.aa283-4{fill:#db5800;}.aa283-5{fill:#ffb38d;}.aa283-6{fill:#00774c;}.aa283-7{fill:#009b97;}.aa283-8{fill:#ffffff;}.aa283-9{fill:#0068ff;}.aa283-10{fill:#ff1f4a;}.aa283-11{fill:#e5ac2e;}.aa283-12{fill:#fad000;}.aa283-13{fill:#00e070;}.aa283-14{fill:#ff1d99;}.aa283-15{fill:#10bcff;}.aa283-16{fill:#6e12ff;}.aa283-17{fill:#900;}.aa283-18{fill:#eaeaea;}</style></defs><path class="aa283-1" d="M0,33H6V27H7V26H8V25h2V24h2V22H11V21H10V20H9V16H8V15H9V9h1v1h1V8h1V9h2V8H13V7h1V6h1V7h1V8H15V9h2V8h1v2h1V9h1v6h1v1H20v4H19v1H18v1H17v2h2v1h2v1h1v1h1v6h6V0H0Z"/><path class="aa283-2" d="M23,31V27H22v6h1Z"/><rect class="aa283-2" x="21" y="26" width="1" height="1"/><path class="aa283-3" d="M22,31V27H21v6h1Z"/><rect class="aa283-3" x="20" y="26" width="1" height="1"/><path class="aa283-2" d="M21,31V27H20v6h1Z"/><path class="aa283-2" d="M20,26h1V25H19v1Z"/><path class="aa283-4" d="M20,31V26H19V25H18v1H17v1H16v1H13V27H12V26H11V25H10v1H9v7h1V29h1v4h1V29h3v4h1V29h3v1H17v2h1V31h1v2h1Z"/><rect class="aa283-4" x="13" y="30" width="1" height="2"/><path class="aa283-2" d="M17,26h1V25h1V24H17Z"/><rect class="aa283-2" x="16" y="26" width="1" height="1"/><path class="aa283-2" d="M14,27H13v1h3V27Z"/><path class="aa283-2" d="M13,23V22H12v2h1Z"/><path class="aa283-3" d="M12,26h1v1h3V26h1V24H16V23H13v1H12Z"/><rect class="aa283-2" x="12" y="26" width="1" height="1"/><path class="aa283-2" d="M11,26h1V24H10v1h1Z"/><path class="aa283-2" d="M10,26V25H8v1Z"/><rect class="aa283-3" x="8" y="26" width="1" height="1"/><path class="aa283-2" d="M9,31V27H8v6H9Z"/><rect class="aa283-2" x="7" y="26" width="1" height="1"/><path class="aa283-3" d="M8,31V27H7v6H8Z"/><path class="aa283-2" d="M7,31V27H6v6H7Z"/><path class="aa283-5" d="M12,29v4h3V29Zm2,3H13V30h1Z"/><path class="aa283-5" d="M11,31V29H10v4h1Z"/><path class="aa283-5" d="M19,31H18v1H17V30h2V29H16v4h3Z"/><rect class="aa283-2" x="20" y="15" width="1" height="1"/><rect class="aa283-3" x="13" y="20" width="1" height="1"/><path class="aa283-3" d="M17,16H15v1H14V16H11v1H10v1h1v1h1V18h2v1h1V18h2v1h1V18h1V16Z"/><rect class="aa283-3" x="15" y="20" width="1" height="1"/><path class="aa283-2" d="M16,23v1h1V22H16Z"/><rect class="aa283-2" x="8" y="15" width="1" height="1"/><rect class="aa283-2" x="14" y="16" width="1" height="1"/><rect class="aa283-6" x="13" y="18" width="1" height="1"/><path class="aa283-6" d="M13,23h3V22h2V21h1V20h1V16H19v2H18v1H17V18H15v1h1v2H15V20H14v1H13V19H11V18H10V16H9v4h1v1h1v1h2Z"/><path class="aa283-2" d="M13,19v1h3V19Z"/><rect class="aa283-2" x="12" y="18" width="1" height="1"/><rect class="aa283-7" x="14" y="13" width="1" height="1"/><rect class="aa283-7" x="10" y="16" width="1" height="1"/><rect class="aa283-7" x="14" y="15" width="1" height="1"/><path class="aa283-8" d="M11,16h3V15h1v1h5V13H15v1H14V13H9v3Zm5-2h3v1H16Zm-6,0h3v1H10Z"/><path class="aa283-9" d="M18,15h1V14H16v1Z"/><path class="aa283-10" d="M12,15h1V14H10v1Z"/><rect class="aa283-1" x="17" y="10" width="1" height="1"/><rect class="aa283-11" x="12" y="11" width="1" height="1"/><rect class="aa283-11" x="16" y="11" width="1" height="1"/><rect class="aa283-1" x="11" y="10" width="1" height="1"/><rect class="aa283-10" x="14" y="11" width="1" height="1"/><rect class="aa283-10" x="13" y="10" width="1" height="1"/><rect class="aa283-8" x="11" y="8" width="1" height="1"/><rect class="aa283-8" x="12" y="9" width="1" height="1"/><rect class="aa283-8" x="16" y="9" width="1" height="1"/><rect class="aa283-8" x="18" y="10" width="1" height="1"/><rect class="aa283-8" x="10" y="10" width="1" height="1"/><rect class="aa283-8" x="9" y="9" width="1" height="1"/><rect class="aa283-8" x="17" y="8" width="1" height="1"/><rect class="aa283-12" x="16" y="10" width="1" height="1"/><rect class="aa283-12" x="12" y="10" width="1" height="1"/><rect class="aa283-13" x="11" y="11" width="1" height="1"/><rect class="aa283-12" x="11" y="9" width="1" height="1"/><rect class="aa283-12" x="17" y="9" width="1" height="1"/><rect class="aa283-14" x="9" y="11" width="1" height="1"/><rect class="aa283-15" x="17" y="11" width="1" height="1"/><path class="aa283-12" d="M19,11H18v1H16V11H15v1H14V11H13v1H11V11H10v2h9Z"/><rect class="aa283-16" x="19" y="11" width="1" height="1"/><rect class="aa283-8" x="19" y="9" width="1" height="1"/><rect class="aa283-10" x="15" y="10" width="1" height="1"/><rect class="aa283-10" x="14" y="9" width="1" height="1"/><rect class="aa283-17" x="14" y="10" width="1" height="1"/><rect class="aa283-12" x="13" y="9" width="1" height="1"/><rect class="aa283-12" x="15" y="9" width="1" height="1"/><rect class="aa283-18" x="14" y="7" width="1" height="1"/><rect class="aa283-8" x="14" y="8" width="1" height="1"/><rect class="aa283-8" x="13" y="7" width="1" height="1"/><rect class="aa283-8" x="15" y="7" width="1" height="1"/><rect class="aa283-8" x="14" y="6" width="1" height="1"/><rect class="aa283-11" x="9" y="12" width="1" height="1"/><rect class="aa283-11" x="19" y="12" width="1" height="1"/><rect class="aa283-11" x="19" y="10" width="1" height="1"/><rect class="aa283-11" x="9" y="10" width="1" height="1"/></svg>