<svg xmlns="http://www.w3.org/2000/svg" viewBox="0 0 29 33"><defs><style>polygon,rect,path{shape-rendering:crispedges;}polygon,rect,path{shape-rendering:crispedges;}.kb70-1{fill:#a9a9a9;}.kb70-2{fill:#bbbbbb;}.kb70-3{fill:#04263a;}.kb70-4{fill:#0068f5;}.kb70-5{fill:#008dff;}.kb70-6{fill:#008b4c;}.kb70-7{fill:#ffffff;}.kb70-8{fill:#004480;}.kb70-9{fill:#000000;}.kb70-10{fill:#ffffff;}.kb70-11{fill:#0068ff;}.kb70-12{fill:#6d3e35;}.kb70-13{fill:#492a23;}.kb70-14{fill:#b23b00;}.kb70-15{fill:#00e070;}.kb70-16{fill:#893a1f;}.kb70-17{fill:#dfdfdf;}.kb70-18{fill:#b2622b;}</style></defs><polygon class="kb70-1" points="28 25 27 25 27 26 28 26 29 26 29 25 29 24 28 24 28 25"/><polygon class="kb70-9" points="27 0 26 0 25 0 24 0 23 0 22 0 21 0 20 0 19 0 18 0 17 0 16 0 15 0 14 0 13 0 12 0 11 0 10 0 9 0 8 0 7 0 6 0 5 0 4 0 3 0 2 0 1 0 0 0 0 1 0 2 0 3 0 4 0 5 0 6 0 7 0 8 0 9 0 10 0 11 0 12 0 13 0 14 0 15 0 16 0 17 0 18 0 19 0 20 0 21 0 22 0 23 1 23 2 23 3 23 3 22 4 22 5 22 6 22 7 22 8 22 8 21 9 21 10 21 10 20 9 20 9 19 9 18 9 17 9 16 8 16 8 15 8 14 9 14 9 13 8 13 7 13 7 12 6 12 5 12 5 11 6 11 7 11 7 12 8 12 9 12 9 11 9 10 10 10 10 9 10 8 11 8 11 7 12 7 13 7 13 8 14 8 15 8 16 8 16 7 17 7 18 7 18 8 19 8 19 7 20 7 20 6 21 6 21 5 20 5 20 4 21 4 21 3 22 3 22 2 23 2 24 2 25 2 25 3 26 3 26 4 27 4 27 5 27 6 27 7 26 7 25 7 24 7 23 7 22 7 22 8 21 8 21 9 20 9 20 10 20 11 20 12 21 12 22 12 22 11 23 11 24 11 24 12 23 12 22 12 22 13 21 13 20 13 20 14 21 14 21 15 21 16 20 16 20 17 20 18 20 19 20 20 19 20 19 21 20 21 21 21 21 22 22 22 23 22 24 22 25 22 26 22 26 23 27 23 28 23 29 23 29 22 29 21 29 20 29 19 29 18 29 17 29 16 29 15 29 14 29 13 29 12 29 11 29 10 29 9 29 8 29 7 29 6 29 5 29 4 29 3 29 2 29 1 29 0 28 0 27 0"/><polygon class="kb70-1" points="27 32 26 32 26 31 25 31 24 31 23 31 23 32 23 33 24 33 25 33 26 33 27 33 28 33 28 32 27 32"/><polygon class="kb70-1" points="27 27 26 27 25 27 25 28 24 28 24 29 24 30 25 30 26 30 27 30 28 30 28 31 29 31 29 30 29 29 29 28 29 27 28 27 27 27"/><polygon class="kb70-2" points="18 24 19 24 19 23 18 23 17 23 17 24 18 24"/><polygon class="kb70-2" points="27 23 27 24 26 24 26 25 25 25 25 26 24 26 23 26 23 27 23 28 23 29 23 30 23 31 24 31 25 31 26 31 26 32 27 32 28 32 28 33 29 33 29 32 29 31 28 31 28 30 27 30 26 30 25 30 24 30 24 29 24 28 25 28 25 27 26 27 27 27 28 27 29 27 29 26 28 26 27 26 27 25 28 25 28 24 29 24 29 23 28 23 27 23"/><polygon class="kb70-2" points="10 22 11 22 11 21 10 21 9 21 8 21 8 22 9 22 10 22"/><polygon class="kb70-2" points="4 32 4 31 5 31 6 31 6 30 5 30 5 29 6 29 6 28 5 28 5 27 6 27 7 27 7 26 8 26 8 25 7 25 6 25 6 24 5 24 5 23 6 23 7 23 7 22 6 22 5 22 4 22 3 22 3 23 2 23 1 23 1 24 2 24 3 24 4 24 4 25 5 25 5 26 4 26 3 26 2 26 2 25 1 25 1 24 0 24 0 25 0 26 1 26 1 27 2 27 3 27 3 28 4 28 4 29 4 30 3 30 2 30 2 31 1 31 0 31 0 32 0 33 1 33 2 33 3 33 3 32 4 32"/><polygon class="kb70-2" points="12 24 12 23 11 23 10 23 10 24 11 24 12 24"/><rect class="kb70-2" x="19" y="24" width="1" height="1"/><polygon class="kb70-2" points="18 22 19 22 20 22 21 22 21 21 20 21 19 21 18 21 18 22"/><polygon class="kb70-2" points="22 23 22 24 23 24 24 24 24 23 25 23 26 23 26 22 25 22 24 22 23 22 23 23 22 23"/><polygon class="kb70-2" points="10 25 10 24 9 24 8 24 8 25 9 25 10 25"/><rect class="kb70-3" x="26" y="6" width="1" height="1"/><polygon class="kb70-4" points="26 6 27 6 27 5 27 4 26 4 26 5 26 6"/><rect class="kb70-4" x="25" y="6" width="1" height="1"/><rect class="kb70-5" x="25" y="5" width="1" height="1"/><rect class="kb70-6" x="25" y="4" width="1" height="1"/><rect class="kb70-7" x="25" y="3" width="1" height="1"/><polygon class="kb70-1" points="24 23 24 24 23 24 23 25 23 26 24 26 25 26 25 25 26 25 26 24 27 24 27 23 26 23 25 23 24 23"/><polygon class="kb70-6" points="23 5 23 6 24 6 25 6 25 5 24 5 23 5"/><rect class="kb70-7" x="24" y="4" width="1" height="1"/><rect class="kb70-4" x="24" y="3" width="1" height="1"/><polygon class="kb70-8" points="24 6 23 6 23 7 24 7 25 7 25 6 24 6"/><rect class="kb70-5" x="23" y="4" width="1" height="1"/><rect class="kb70-3" x="22" y="6" width="1" height="1"/><rect class="kb70-5" x="22" y="5" width="1" height="1"/><rect class="kb70-4" x="22" y="4" width="1" height="1"/><polygon class="kb70-6" points="23 4 24 4 24 3 25 3 25 2 24 2 23 2 23 3 22 3 22 4 23 4"/><rect class="kb70-5" x="22" y="2" width="1" height="1"/><rect class="kb70-8" x="21" y="5" width="1" height="1"/><rect class="kb70-6" x="21" y="4" width="1" height="1"/><rect class="kb70-7" x="21" y="3" width="1" height="1"/><rect class="kb70-4" x="20" y="4" width="1" height="1"/><polygon class="kb70-1" points="19 22 18 22 17 22 17 23 18 23 19 23 19 24 20 24 21 24 21 23 22 23 23 23 23 22 22 22 21 22 20 22 19 22"/><rect class="kb70-1" x="5" y="27" width="1" height="1"/><polygon class="kb70-1" points="6 23 5 23 5 24 6 24 6 25 7 25 8 25 8 24 9 24 10 24 10 23 11 23 12 23 12 22 11 22 10 22 9 22 8 22 7 22 7 23 6 23"/><polygon class="kb70-1" points="6 31 5 31 4 31 4 32 3 32 3 33 4 33 5 33 6 33 6 32 6 31"/><rect class="kb70-1" x="5" y="29" width="1" height="1"/><polygon class="kb70-1" points="2 31 2 30 3 30 4 30 4 29 4 28 3 28 3 27 2 27 1 27 1 26 0 26 0 27 0 28 0 29 0 30 0 31 1 31 2 31"/><polygon class="kb70-1" points="2 25 2 26 3 26 4 26 5 26 5 25 4 25 4 24 3 24 2 24 1 24 1 25 2 25"/><rect class="kb70-1" y="23" width="1" height="1"/><polygon class="kb70-9" points="7 31 7 30 7 29 7 28 7 27 6 27 6 28 6 29 6 30 6 31 6 32 6 33 7 33 7 32 7 31"/><rect class="kb70-9" x="7" y="26" width="1" height="1"/><rect class="kb70-10" x="7" y="30" width="1" height="1"/><rect class="kb70-10" x="7" y="27" width="1" height="1"/><polygon class="kb70-9" points="9 31 9 30 9 29 9 28 9 27 8 27 8 28 8 29 8 30 8 31 8 32 8 33 9 33 9 32 9 31"/><polygon class="kb70-9" points="10 26 10 25 9 25 8 25 8 26 9 26 10 26"/><polygon class="kb70-10" points="18 27 16 27 15 27 14 27 11 27 10 27 9 27 9 28 10 28 13 28 14 28 16 28 17 28 18 28 19 28 20 28 20 27 19 27 18 27"/><polygon class="kb70-10" points="16 24 15 24 13 24 12 24 12 25 15 25 16 25 17 25 17 24 16 24"/><polygon class="kb70-10" points="18 30 17 30 16 30 15 30 14 30 11 30 10 30 9 30 9 31 10 31 11 31 12 31 13 31 16 31 17 31 18 31 20 31 20 30 19 30 18 30"/><polygon class="kb70-9" points="11 25 12 25 12 24 11 24 10 24 10 25 11 25"/><polygon class="kb70-9" points="13 24 13 23 13 22 12 22 12 23 12 24 13 24"/><polygon class="kb70-9" points="17 24 17 25 18 25 19 25 19 24 18 24 17 24"/><polygon class="kb70-9" points="21 31 21 30 21 29 21 28 21 27 20 27 20 28 20 29 20 30 20 31 20 32 20 33 21 33 21 32 21 31"/><rect class="kb70-10" x="21" y="30" width="1" height="1"/><rect class="kb70-10" x="21" y="27" width="1" height="1"/><polygon class="kb70-9" points="23 31 23 30 23 29 23 28 23 27 23 26 23 25 23 24 22 24 22 25 22 26 22 27 22 28 22 29 22 30 22 31 22 32 22 33 23 33 23 32 23 31"/><polygon class="kb70-11" points="20 31 18 31 17 31 16 31 13 31 12 31 11 31 10 31 9 31 9 32 9 33 10 33 11 33 12 33 13 33 14 33 15 33 16 33 17 33 18 33 19 33 20 33 20 32 20 31"/><polygon class="kb70-11" points="18 28 17 28 16 28 14 28 13 28 10 28 9 28 9 29 9 30 10 30 11 30 14 30 15 30 16 30 17 30 18 30 19 30 20 30 20 29 20 28 19 28 18 28"/><polygon class="kb70-11" points="11 27 14 27 15 27 16 27 18 27 19 27 19 26 19 25 18 25 17 25 16 25 15 25 12 25 11 25 10 25 10 26 9 26 8 26 8 27 9 27 10 27 11 27"/><polygon class="kb70-11" points="15 24 16 24 16 23 15 23 14 23 13 23 13 24 15 24"/><polygon class="kb70-11" points="7 29 7 30 8 30 8 29 8 28 7 28 7 29"/><polygon class="kb70-11" points="8 31 7 31 7 32 7 33 8 33 8 32 8 31"/><polygon class="kb70-11" points="22 31 21 31 21 32 21 33 22 33 22 32 22 31"/><polygon class="kb70-11" points="21 29 21 30 22 30 22 29 22 28 21 28 21 29"/><rect class="kb70-9" x="20" y="15" width="1" height="1"/><rect class="kb70-9" x="19" y="14" width="1" height="1"/><polygon class="kb70-12" points="10 17 10 18 11 18 11 19 12 19 12 18 13 18 14 18 14 19 15 19 15 18 16 18 17 18 17 19 18 19 18 18 19 18 19 17 19 16 20 16 20 15 19 15 19 14 19 13 18 13 17 13 17 14 18 14 18 15 17 15 16 15 16 16 15 16 15 17 14 17 14 16 13 16 13 15 12 15 11 15 11 14 12 14 12 13 11 13 10 13 10 14 10 15 9 15 9 16 10 16 10 17"/><rect class="kb70-12" x="15" y="20" width="1" height="1"/><rect class="kb70-12" x="13" y="20" width="1" height="1"/><polygon class="kb70-9" points="17 24 17 23 17 22 16 22 16 23 16 24 17 24"/><rect class="kb70-9" x="9" y="14" width="1" height="1"/><rect class="kb70-9" x="8" y="15" width="1" height="1"/><rect class="kb70-13" x="17" y="14" width="1" height="1"/><rect class="kb70-13" x="16" y="13" width="1" height="1"/><rect class="kb70-9" x="14" y="14" width="1" height="1"/><path class="kb70-7" d="M16,13H13v1H12v1h1v1h3V15h1V14H16Zm-1,2H14V14h1Z"/><rect class="kb70-13" x="12" y="13" width="1" height="1"/><rect class="kb70-13" x="11" y="14" width="1" height="1"/><rect class="kb70-9" x="14" y="16" width="1" height="1"/><rect class="kb70-14" x="13" y="18" width="1" height="1"/><polygon class="kb70-14" points="11 22 12 22 13 22 13 23 14 23 15 23 16 23 16 22 17 22 18 22 18 21 19 21 19 20 20 20 20 19 20 18 20 17 20 16 19 16 19 17 19 18 18 18 18 19 17 19 17 18 16 18 15 18 15 19 16 19 16 20 16 21 15 21 15 20 14 20 14 21 13 21 13 20 13 19 12 19 11 19 11 18 10 18 10 17 10 16 9 16 9 17 9 18 9 19 9 20 10 20 10 21 11 21 11 22"/><polygon class="kb70-9" points="13 19 13 20 14 20 15 20 16 20 16 19 15 19 14 19 13 19"/><rect class="kb70-9" x="12" y="18" width="1" height="1"/><polygon class="kb70-12" points="21 25 20 25 20 26 20 27 21 27 22 27 22 26 22 25 22 24 21 24 21 25"/><polygon class="kb70-9" points="20 25 19 25 19 26 19 27 20 27 20 26 20 25"/><rect class="kb70-9" x="20" y="24" width="1" height="1"/><rect class="kb70-9" x="21" y="23" width="1" height="1"/><rect class="kb70-15" x="19" y="13" width="1" height="1"/><rect class="kb70-15" x="9" y="13" width="1" height="1"/><rect class="kb70-15" x="20" y="14" width="1" height="1"/><rect class="kb70-15" x="8" y="14" width="1" height="1"/><polygon class="kb70-16" points="24 12 24 11 23 11 22 11 22 12 23 12 24 12"/><rect class="kb70-17" x="21" y="7" width="1" height="1"/><polygon class="kb70-16" points="11 13 12 13 13 13 14 13 15 13 16 13 17 13 18 13 19 13 20 13 21 13 22 13 22 12 21 12 20 12 20 11 19 11 19 12 18 12 17 12 16 12 15 12 14 12 13 12 12 12 11 12 10 12 10 11 9 11 9 12 8 12 7 12 7 13 8 13 9 13 10 13 11 13"/><rect class="kb70-17" x="20" y="8" width="1" height="1"/><rect class="kb70-18" x="19" y="10" width="1" height="1"/><polygon class="kb70-7" points="18 10 18 11 19 11 19 10 20 10 20 9 20 8 21 8 21 7 22 7 22 6 21 6 20 6 20 7 19 7 19 8 18 8 18 9 18 10"/><polygon class="kb70-18" points="17 11 16 11 15 11 14 11 13 11 12 11 11 11 10 11 10 12 11 12 12 12 13 12 14 12 15 12 16 12 17 12 18 12 19 12 19 11 18 11 17 11"/><polygon class="kb70-16" points="11 11 12 11 13 11 14 11 15 11 16 11 17 11 18 11 18 10 18 9 18 8 18 7 17 7 16 7 16 8 15 8 14 8 13 8 13 7 12 7 11 7 11 8 10 8 10 9 10 10 10 11 11 11"/><rect class="kb70-18" x="9" y="10" width="1" height="1"/><polygon class="kb70-16" points="6 11 5 11 5 12 6 12 7 12 7 11 6 11"/></svg>