<svg xmlns="http://www.w3.org/2000/svg" viewBox="0 0 29 33"><defs><style>polygon,rect,path{shape-rendering:crispedges;}.eb254-1{fill:#e55b35;}.eb254-2{fill:#000000;}.eb254-3{fill:#333333;}.eb254-4{fill:#9b8100;}.eb254-5{fill:#ce8452;}.eb254-6{fill:#90a2a3;}.eb254-7{fill:#e2e2e2;}.eb254-8{fill:#e2e2e2;}.eb254-9{fill:#cc2f76;}</style></defs><path class="eb254-1" d="M0,33H6V27H7V26H8V25H9V24h1V23h1V22h1V21H11V20H10V19H9V16H8V15H9V10h1V9h1V8h7V9h1v1h1v5h1v1H20v3H19v1H18v1H17v1h1v1h1v1h1v1h1v1h1v1h1v6h6V0H0Z"/><path class="eb254-2" d="M23,27H22v6h1V27Z"/><path class="eb254-3" d="M22,27H21v6h1V27Z"/><path class="eb254-2" d="M21,27h1V26H21V25H20v2H17v1h2v1h1v4h1V27Z"/><rect class="eb254-2" x="19" y="24" width="1" height="1"/><path class="eb254-3" d="M20,29H19v1H18v1H17v1H16v1h4V29Z"/><rect class="eb254-2" x="18" y="23" width="1" height="1"/><path class="eb254-3" d="M18,25H17v1H16v5h1V30h1V29h1V28H17V27h2V26h1V25H19V24H18Z"/><rect class="eb254-3" x="17" y="23" width="1" height="1"/><rect class="eb254-2" x="17" y="24" width="1" height="1"/><rect class="eb254-2" x="18" y="29" width="1" height="1"/><rect class="eb254-2" x="16" y="25" width="1" height="1"/><path class="eb254-4" d="M15,27H14v6h1V27Z"/><path class="eb254-2" d="M12,24h1V22H11v1h1Z"/><path class="eb254-5" d="M17,25V24H16V23H13v1H12v1h1v1h3V25Z"/><rect class="eb254-2" x="12" y="25" width="1" height="1"/><path class="eb254-3" d="M12,32V31H11V30H10V29H9v4h4V32Z"/><rect class="eb254-3" x="11" y="23" width="1" height="1"/><rect class="eb254-2" x="11" y="24" width="1" height="1"/><rect class="eb254-2" x="11" y="30" width="1" height="1"/><rect class="eb254-2" x="10" y="23" width="1" height="1"/><rect class="eb254-2" x="9" y="24" width="1" height="1"/><path class="eb254-3" d="M10,26v1h2v1H10v1h1v1h1v1h1V26H12V25H11V24H10v1H9v1Z"/><path class="eb254-2" d="M9,29h1V28h2V27H9V25H8v1H7v1H8v6H9V29Z"/><path class="eb254-3" d="M8,27H7v6H8V27Z"/><path class="eb254-2" d="M7,27H6v6H7V27Z"/><rect class="eb254-2" x="10" y="29" width="1" height="1"/><rect class="eb254-2" x="17" y="30" width="1" height="1"/><path class="eb254-2" d="M17,32V31H16V26H13v5H12v1h1v1h1V27h1v6h1V32Z"/><path class="eb254-6" d="M9,26v1h1V26Z"/><path class="eb254-6" d="M19,27h1V26H19Z"/><rect class="eb254-2" x="20" y="15" width="1" height="1"/><path class="eb254-5" d="M18,16v1H16V16H15v1H14V16H13v1H11V16H10v2h1v1h1V18h2v1h1V18h2v1h1V18h1V16Z"/><rect class="eb254-5" x="14" y="15" width="1" height="1"/><rect class="eb254-5" x="19" y="15" width="1" height="1"/><path class="eb254-5" d="M10,13v1h2V13Z"/><path class="eb254-5" d="M16,13V12h2v1h1V11H18V10H17v1H14V10H13v1H12V10H11v1H10v1h2v1h1v1h5V13Z"/><rect class="eb254-5" x="13" y="20" width="1" height="1"/><rect class="eb254-5" x="15" y="20" width="1" height="1"/><rect class="eb254-5" x="9" y="15" width="1" height="1"/><path class="eb254-2" d="M19,17h1V16H19Z"/><path class="eb254-2" d="M16,23v1h1V23h1V22H16Z"/><path class="eb254-2" d="M10,16H9v1h1Z"/><rect class="eb254-2" x="8" y="15" width="1" height="1"/><rect class="eb254-2" x="14" y="16" width="1" height="1"/><rect class="eb254-7" x="18" y="13" width="1" height="1"/><rect class="eb254-7" x="16" y="12" width="2" height="1"/><rect class="eb254-7" x="12" y="13" width="1" height="1"/><rect class="eb254-7" x="10" y="12" width="2" height="1"/><path class="eb254-8" d="M15,18v1h1V18Z"/><path class="eb254-8" d="M13,23h3V22h1V21h1V20h1V19h1V17H19v1H18v1H16v2H15V20H14v1H13V19h1V18H12v1H11V18H10V17H9v2h1v1h1v1h1v1h1Z"/><path class="eb254-2" d="M14,19H13v1h3V19H14Z"/><path class="eb254-2" d="M16,18v1h1V18Z"/><path class="eb254-9" d="M10,13V11h1V10h1v1h1V10h1v1h3V10h1v1h1v3h1V10H19V9H18V8H11V9H10v1H9v4h1Z"/><path class="eb254-2" d="M10,16h1v1h2V16h1V15h1v1h1v1h2V16h1V15h1V14H9v1h1Z"/></svg>