<svg xmlns="http://www.w3.org/2000/svg" viewBox="0 0 29 33"><defs><style>polygon,rect,path{shape-rendering:crispedges;}.ma141-1{fill:#29834f;}.ma141-2{fill:#000000;}.ma141-3{fill:#db5800;}.ma141-4{fill:#db5800;}.ma141-5{fill:#b2622b;}.ma141-6{fill:#ffb3c0;}.ma141-7{fill:#ffffff;}.ma141-8{fill:#893a1f;}.ma141-9{fill:#893a1f;}.ma141-10{fill:#6e12ff;}</style></defs><path class="ma141-1" d="M0,33H6V27H7V26H8V25h2V24h2V21H11V20H10V19H9V16H8V15H9V10h1V9h1V8h7V9h1v2h1v4h1v1H20v3H19v1H18v1H17v3h2v1h2v1h1v1h1v6h6V0H0Z"/><path class="ma141-2" d="M23,27H22v6h1V27Z"/><rect class="ma141-2" x="21" y="26" width="1" height="1"/><path class="ma141-3" d="M21,31v1h1V30H21Z"/><path class="ma141-3" d="M21,28h1V27H21Z"/><path class="ma141-2" d="M21,31V27H20v6h1V31Z"/><path class="ma141-3" d="M19,31V30H18v2h1v1h1V31Z"/><path class="ma141-3" d="M18,26v2h1v1h1V27H19V25H18Z"/><path class="ma141-2" d="M20,26h1V25H19v1Z"/><path class="ma141-2" d="M18,31V25h1V24H17v1H16v1h1v7h1V31Z"/><path class="ma141-4" d="M17,26H16v1H13V26H12v7h5V26Z"/><path class="ma141-2" d="M13,26v1h3V26H13Z"/><path class="ma141-2" d="M13,23h3v1h1V21H16v1H13V21H12v3h1Z"/><path class="ma141-5" d="M13,25v1h3V25h1V24H16V23H13v1H12v1Z"/><path class="ma141-2" d="M12,26h1V25H12V24H10v1h1v8h1V26Z"/><path class="ma141-3" d="M10,31V30H9v2h1v1h1V31Z"/><path class="ma141-3" d="M10,26H9v2h1v1h1V27H10Z"/><path class="ma141-2" d="M10,26V25H8v1h2Z"/><path class="ma141-2" d="M9,31V27H8v6H9V31Z"/><rect class="ma141-2" x="7" y="26" width="1" height="1"/><path class="ma141-3" d="M8,29V27H7v2Z"/><path class="ma141-3" d="M7,31v2H8V31Z"/><path class="ma141-2" d="M7,30V27H6v6H7V30Z"/><path class="ma141-6" d="M21,29v1h1V28H21Z"/><path class="ma141-6" d="M21,32v1h1V32Z"/><path class="ma141-6" d="M19,26v1h2V26H19Z"/><path class="ma141-6" d="M19,28H18v2h1v1h1V29H19Z"/><path class="ma141-6" d="M18,32v1h1V32Z"/><path class="ma141-6" d="M10,27h1V25H10v2Z"/><path class="ma141-6" d="M10,28H9v2h1v1h1V29H10Z"/><path class="ma141-6" d="M9,32v1h1V32Z"/><path class="ma141-6" d="M9,27V26H8v1Z"/><path class="ma141-6" d="M7,30v1H8V29H7Z"/><rect class="ma141-2" x="20" y="15" width="1" height="1"/><path class="ma141-2" d="M19,13v2h1V11H19v2Z"/><path class="ma141-5" d="M14,21V20H13V19H12V18h1v1h3v1H15v1h2V20h1V19h1V16h1V15H16V13h1V12h2V11H18V10H17v1H16V10H15v1H14V10H13v1H12V10H11v1H10v2h1V12h2v1H11v1h2v1H9v1h1v3h1v1h1v1h2Zm0-5h1v1H14Z"/><path class="ma141-5" d="M18,14h1V13H17v1Z"/><path class="ma141-2" d="M19,17v2h1V16H19Z"/><rect class="ma141-2" x="18" y="19" width="1" height="1"/><rect class="ma141-2" x="17" y="20" width="1" height="1"/><rect class="ma141-2" x="13" y="9" width="1" height="1"/><rect class="ma141-2" x="11" y="9" width="1" height="1"/><rect class="ma141-2" x="15" y="9" width="1" height="1"/><rect class="ma141-2" x="17" y="9" width="1" height="1"/><rect class="ma141-2" x="11" y="20" width="1" height="1"/><rect class="ma141-2" x="10" y="10" width="1" height="1"/><rect class="ma141-2" x="10" y="19" width="1" height="1"/><path class="ma141-2" d="M10,14V11H9v4h1Z"/><path class="ma141-2" d="M10,16H9v3h1V16Z"/><rect class="ma141-2" x="8" y="15" width="1" height="1"/><rect class="ma141-2" x="14" y="16" width="1" height="1"/><path class="ma141-7" d="M13,15V14H12v1Z"/><path class="ma141-7" d="M10,15h1V14H10Z"/><path class="ma141-7" d="M18,14v1h1V14Z"/><path class="ma141-7" d="M16,14v1h1V14Z"/><path class="ma141-2" d="M12,15V14H11v1Z"/><path class="ma141-2" d="M17,14v1h1V14Z"/><path class="ma141-8" d="M11,14V13H10v1Z"/><rect class="ma141-8" x="11" y="12" width="2" height="1"/><path class="ma141-8" d="M17,13H16v1h1Z"/><path class="ma141-8" d="M19,12H17v1h2Z"/><path class="ma141-9" d="M15,20H14v1H13v1h3V21H15Z"/><polygon class="ma141-2" points="16 20 16 19 13 19 13 20 14 20 15 20 16 20"/><rect class="ma141-2" x="12" y="18" width="1" height="1"/><path class="ma141-10" d="M18,11h1V9H18v2Z"/><path class="ma141-10" d="M12,10v1h1V9h1v2h1V9h1v2h1V9h1V8H11V9h1Z"/><rect class="ma141-10" x="10" y="9" width="1" height="1"/><path class="ma141-10" d="M10,10H9v1h1Z"/></svg>