<svg xmlns="http://www.w3.org/2000/svg" viewBox="0 0 29 33"><defs><style>polygon,rect,path{shape-rendering:crispedges;}.wa104-1{fill:#6b4f99;}.wa104-2{fill:#316a6d;}.wa104-3{fill:#000000;}.wa104-4{fill:#b2622b;}.wa104-5{fill:#ffffff;}.wa104-6{fill:#ffffff;}.wa104-7{fill:#b23b00;}.wa104-8{fill:#317f03;}.wa104-9{fill:#004a77;}</style></defs><path class="wa104-1" d="M0,33H6V27H7V26H8V25h2V22h1V21H10V20H9V16H8V15H9V13H8V9H9V8h1V7h1V6h7V7h1V8h1V9h1v4H20v2h1v1H20v4H19v1H18v1h1v3h2v1h1v1h1v6h6V0H0Z"/><rect class="wa104-2" x="17" y="22" width="1" height="1"/><path class="wa104-2" d="M18,24H16v1H15v2H14v1h1v1H14v2h2V30h1v1h3V26H19V25H18Zm-1,3H16V26h1Zm2,1v1H18V28Z"/><path class="wa104-2" d="M21,31v2h1V31Z"/><path class="wa104-2" d="M21,28v2h1V27H21Z"/><path class="wa104-2" d="M13,32H10v1h4V32Z"/><path class="wa104-2" d="M18,32H15v1h4V32Z"/><path class="wa104-2" d="M7,30H8V27H7v3Z"/><path class="wa104-2" d="M7,31v2H8V31Z"/><rect class="wa104-2" x="11" y="22" width="1" height="1"/><path class="wa104-2" d="M9,26v5h3V30h1V27H12V26h1v1h1V25H13V24H11v1H10v1Zm2,2v1H10V28Z"/><path class="wa104-3" d="M23,27H22v6h1V27Z"/><rect class="wa104-3" x="21" y="26" width="1" height="1"/><path class="wa104-3" d="M21,30V27H20v4H14V27H13v4H9V27H8v6H9V32H20v1h1V30Z"/><path class="wa104-3" d="M20,26h1V25H19v1Z"/><path class="wa104-3" d="M18,24v1h1V22H18v2Z"/><path class="wa104-3" d="M17,24V23H16v1Z"/><rect class="wa104-3" x="15" y="24" width="1" height="1"/><path class="wa104-3" d="M15,26V25H14v2h1Z"/><rect class="wa104-3" x="13" y="24" width="1" height="1"/><path class="wa104-4" d="M15,24h1V23H13v1h1v1h1Z"/><path class="wa104-3" d="M12,23v1h1V23Z"/><path class="wa104-3" d="M11,24V22H10v3h1Z"/><path class="wa104-3" d="M10,26V25H8v1h2Z"/><rect class="wa104-3" x="7" y="26" width="1" height="1"/><path class="wa104-3" d="M7,30V27H6v6H7V30Z"/><rect class="wa104-3" x="20" y="15" width="1" height="1"/><path class="wa104-3" d="M19,15h1V14H19Z"/><polygon class="wa104-4" points="18 14 19 14 19 13 17 13 17 14 18 14"/><path class="wa104-4" d="M10,17h1v1h7V17h1V16h1V15H16V13h1V12h1V11H11v1h2v1H11v1h2v1H9v1h1Zm4-1h1v1H14Z"/><rect class="wa104-4" x="10" y="12" width="1" height="1"/><path class="wa104-3" d="M10,14H9v1h1Z"/><rect class="wa104-3" x="8" y="15" width="1" height="1"/><rect class="wa104-3" x="14" y="16" width="1" height="1"/><rect class="wa104-5" x="10" y="28" width="1" height="1"/><path class="wa104-5" d="M12,31h1V30H12Z"/><path class="wa104-5" d="M15,28H14v1h1Z"/><path class="wa104-5" d="M14,32v1h1V32Z"/><rect class="wa104-5" x="12" y="26" width="1" height="1"/><path class="wa104-5" d="M16,30v1h1V30Z"/><rect class="wa104-5" x="18" y="28" width="1" height="1"/><rect class="wa104-5" x="16" y="26" width="1" height="1"/><path class="wa104-5" d="M9,27V26H8v1Z"/><path class="wa104-5" d="M19,32v1h1V32Z"/><path class="wa104-5" d="M9,32v1h1V32Z"/><path class="wa104-5" d="M7,31H8V30H7Z"/><path class="wa104-5" d="M21,31h1V30H21Z"/><path class="wa104-5" d="M20,27h1V26H20Z"/><path class="wa104-5" d="M11,23v1h1V23Z"/><path class="wa104-5" d="M18,24V23H17v1Z"/><path class="wa104-6" d="M13,15V14H12v1Z"/><path class="wa104-6" d="M10,15h1V14H10Z"/><path class="wa104-6" d="M18,14v1h1V14Z"/><path class="wa104-6" d="M16,14v1h1V14Z"/><path class="wa104-3" d="M12,15V14H11v1Z"/><path class="wa104-3" d="M17,14v1h1V14Z"/><rect class="wa104-7" x="10" y="13" width="1" height="1"/><rect class="wa104-7" x="11" y="12" width="2" height="1"/><path class="wa104-7" d="M17,13H16v1h1Z"/><path class="wa104-7" d="M19,12H17v1h2Z"/><path class="wa104-8" d="M12,23h5V22h1V21h1V20h1V16H19v1H18v1H17v1H16v1H13V19H12V18H11V17H10V16H9v4h1v1h1v1h1Z"/><path class="wa104-3" d="M12,18v1h1V18Z"/><path class="wa104-3" d="M16,19h1V18H16Z"/><path class="wa104-3" d="M15,18H14v1H13v1h3V19H15Z"/><path class="wa104-6" d="M14,18H13v1h1Z"/><path class="wa104-6" d="M15,18v1h1V18Z"/><path class="wa104-9" d="M10,13V12h1V11h7v1h1v2h1V13h1V9H20V8H19V7H18V6H11V7H10V8H9V9H8v4H9v1h1Z"/></svg>