<svg xmlns="http://www.w3.org/2000/svg" viewBox="0 0 29 33"><defs><style>polygon,rect,path{shape-rendering:crispedges;}.hb76-1{fill:#6b4f99;}.hb76-2{fill:#000000;}.hb76-3{fill:#efcaaf;}.hb76-4{fill:#66334f;}.hb76-5{fill:#66334f;}.hb76-6{fill:#00686d;}.hb76-7{fill:#ffffff;}.hb76-8{fill:#0068ff;}.hb76-9{fill:#ff1f4a;}.hb76-10{fill:#c6e5e4;}</style></defs><path class="hb76-1" d="M0,33H6V27H7V26H8V25h2V24h2V21H11V20H10V19H9V16H8V15H9V11h1V10h1V9h7v1h1v1h1v4h1v1H20v3H19v1H18v1H17v3h2v1h2V23h2V22H22V21H21V20h1V19h3v1h1v1H25v1H24v1h1v1H24v7H23v1H21v1h8V0H0Z"/><path class="hb76-2" d="M23,25v6h1V24H23Z"/><path class="hb76-2" d="M7,27H6v6H7V27Z"/><path class="hb76-3" d="M8,27H7v6H8V27Z"/><rect class="hb76-2" x="7" y="26" width="1" height="1"/><path class="hb76-2" d="M9,27H8v6H9V27Z"/><path class="hb76-3" d="M20,27h1V26H19V25H17V24H16V23H13v1H12v1H10v1H8v1H9v6h5V29h1v4h5V27Zm-8,2H11V28h1Zm6,0H17V28h1Z"/><path class="hb76-2" d="M10,25H8v1h2Z"/><rect class="hb76-2" x="11" y="28" width="1" height="1"/><path class="hb76-2" d="M12,24H10v1h2Z"/><path class="hb76-2" d="M13,23h3v1h1V21H16v1H13V21H12v3h1Z"/><path class="hb76-2" d="M15,29H14v4h1V29Z"/><rect class="hb76-2" x="17" y="28" width="1" height="1"/><path class="hb76-2" d="M18,25h1V24H17v1Z"/><path class="hb76-2" d="M22,32h1V31H22V23H21v2H19v1h2v1H20v6h1V32Z"/><path class="hb76-3" d="M22,31h1V24h1V23H22v8Z"/><rect class="hb76-2" x="20" y="15" width="1" height="1"/><path class="hb76-2" d="M19,13h1V12H19Z"/><rect class="hb76-3" x="17" y="10" width="1" height="1"/><rect class="hb76-3" x="10" y="11" width="1" height="1"/><rect class="hb76-3" x="11" y="10" width="1" height="1"/><path class="hb76-3" d="M17,12V11H16V10H13v1H12v1h1v1h1v1h1V13h1V12Z"/><rect class="hb76-3" x="18" y="11" width="1" height="1"/><rect class="hb76-3" x="14" y="15" width="1" height="1"/><path class="hb76-3" d="M13,20v2h3V20Z"/><path class="hb76-3" d="M12,19V18h5v2h1V19h1V16H15v1H14V16H10v3h1v1h1Z"/><path class="hb76-2" d="M19,17v2h1V16H19Z"/><rect class="hb76-2" x="18" y="19" width="1" height="1"/><rect class="hb76-2" x="17" y="20" width="1" height="1"/><rect class="hb76-2" x="11" y="20" width="1" height="1"/><rect class="hb76-2" x="10" y="19" width="1" height="1"/><path class="hb76-2" d="M10,12H9v1h1Z"/><path class="hb76-2" d="M10,16H9v3h1V16Z"/><rect class="hb76-2" x="8" y="15" width="1" height="1"/><rect class="hb76-2" x="14" y="16" width="1" height="1"/><path class="hb76-4" d="M12,12H10v1h3V12Z"/><path class="hb76-4" d="M18,12H16v1h3V12Z"/><path class="hb76-5" d="M17,19V18H13v1h3v2h1V19Z"/><path class="hb76-5" d="M13,20V19H12v2h1Z"/><path class="hb76-2" d="M16,19H13v1h3Z"/><path class="hb76-2" d="M12,18v1h1V18Z"/><path class="hb76-6" d="M20,12V11H19v1Z"/><rect class="hb76-6" x="18" y="10" width="1" height="1"/><path class="hb76-6" d="M12,11h1V10h3v1h1V10h1V9H11v1h1Z"/><path class="hb76-6" d="M18,12V11H17v1Z"/><path class="hb76-6" d="M12,11H11v1h1Z"/><rect class="hb76-6" x="10" y="10" width="1" height="1"/><path class="hb76-6" d="M10,11H9v1h1Z"/><path class="hb76-7" d="M11,16h3V15h1v1h5V13H15v1H14V13H9v3h2Zm5-2h3v1H16Zm-6,0h3v1H10Z"/><path class="hb76-8" d="M19,15V14H16v1h3Z"/><path class="hb76-9" d="M13,15V14H10v1h3Z"/><path class="hb76-7" d="M25,22V21h1V20H25V19H23v1h1v1H23v1h2Z"/><path class="hb76-10" d="M24,21V20H23V19H22v1H21v1h1v1h1V21Z"/><path class="hb76-10" d="M24,22H23v1h1Z"/><rect class="hb76-2" x="24" y="23" width="1" height="1"/></svg>