<svg xmlns="http://www.w3.org/2000/svg" viewBox="0 0 29 33"><defs><style>polygon,rect,path{shape-rendering:crispedges;}.ea131-1{fill:#6b4f99;}.ea131-2{fill:#000000;}.ea131-3{fill:#68aaad;}.ea131-4{fill:#ce8452;}.ea131-5{fill:#68aaad;}.ea131-6{fill:#ffffff;}.ea131-7{fill:#b23b00;}.ea131-8{fill:#99004d;}.ea131-9{fill:#893a1f;}.ea131-10{fill:#dfdfdf;}.ea131-11{fill:#b2622b;}.ea131-12{fill:#00bc55;}.ea131-13{fill:#cc3232;}</style></defs><path class="ea131-1" d="M0,33H6V26H5V23H6V22H9v1h1v1h2V21H11V20H10V19H9V16H8V15H9V13H7V12H5V11H7v1H9V10h1V8h1V7h2V8h3V7h2V8h1V7h1V6h2V8H21V9H20v3h2V11h2v1H22v1H20v2h1v1H20v3H19v1H18v1H17v3h2v1h2v1h1v1h1v6h6V0H0Z"/><path class="ea131-2" d="M23,27H22v2H21V27H20v6h1V30h1v3h1V27Z"/><rect class="ea131-2" x="21" y="26" width="1" height="1"/><path class="ea131-2" d="M20,26h1V25H19v1Z"/><path class="ea131-2" d="M18,25h1V24H17v1Z"/><path class="ea131-2" d="M13,23h3v1h1V21H16v1H13V21H12v3h1Z"/><path class="ea131-2" d="M11,25h1V24H10v1Z"/><path class="ea131-2" d="M9,31V26H8v7H9V31Z"/><path class="ea131-2" d="M7,26H6v7H7V26Z"/><rect class="ea131-3" x="10" y="29" width="1" height="1"/><path class="ea131-3" d="M19,32V31H18v1H17V29h1V28h1v1h1V27h1V26H19V25H17v1H16v1H13V26H12V25H10v1H9v3h1V28h1v1h1v3H11V31H10v1H9v1H20V32Zm-3-2v1H15v1H13V28h2v1h1Z"/><path class="ea131-3" d="M15,29H14v2h1V29Z"/><rect class="ea131-3" x="18" y="29" width="1" height="1"/><path class="ea131-3" d="M21,28v1h1V27H21Z"/><path class="ea131-4" d="M8,26H9V25H6v1H7v7H8V26Z"/><path class="ea131-4" d="M13,25v1h3V25h1V24H16V23H13v1H12v1Z"/><path class="ea131-2" d="M13,26v1h3V26H13Z"/><path class="ea131-4" d="M22,30H21v3h1V30Z"/><rect class="ea131-2" x="12" y="25" width="1" height="1"/><rect class="ea131-2" x="16" y="25" width="1" height="1"/><path class="ea131-5" d="M19,30H18V29H17v3h1V31h1v1h1V29H19Z"/><rect class="ea131-5" x="18" y="28" width="1" height="1"/><path class="ea131-5" d="M15,30v1h1V29H15Z"/><path class="ea131-5" d="M14,30V29h1V28H13v4h2V31H14Z"/><path class="ea131-5" d="M9,32h1V31h1v1h1V29H11v1H10V29H9v3Z"/><rect class="ea131-5" x="10" y="28" width="1" height="1"/><rect class="ea131-2" x="20" y="15" width="1" height="1"/><path class="ea131-2" d="M19,14v1h1V13H19Z"/><path class="ea131-4" d="M13,20v2h3V20Z"/><path class="ea131-4" d="M12,19V18h5v2h1V19h1V16h1V15H16V13H10v1h3v1H9v1h1v3h1v1h1Zm2-3h1v1H14Z"/><path class="ea131-2" d="M19,17v2h1V16H19Z"/><rect class="ea131-2" x="18" y="19" width="1" height="1"/><rect class="ea131-2" x="17" y="20" width="1" height="1"/><rect class="ea131-2" x="11" y="20" width="1" height="1"/><rect class="ea131-2" x="10" y="19" width="1" height="1"/><path class="ea131-2" d="M10,14V13H9v2h1Z"/><path class="ea131-2" d="M10,16H9v3h1V16Z"/><rect class="ea131-2" x="8" y="15" width="1" height="1"/><rect class="ea131-2" x="14" y="16" width="1" height="1"/><path class="ea131-6" d="M13,15V14H12v1Z"/><path class="ea131-6" d="M11,15V14H10v1Z"/><path class="ea131-6" d="M18,14v1h1V14Z"/><path class="ea131-6" d="M16,14v1h1V14Z"/><path class="ea131-2" d="M12,15V14H11v1Z"/><path class="ea131-2" d="M17,14v1h1V14Z"/><path class="ea131-7" d="M18,14h1V13H16v1h2Z"/><path class="ea131-8" d="M13,20V19h3v2h1V18H12v3h1Z"/><path class="ea131-2" d="M16,19H13v1h3Z"/><path class="ea131-9" d="M24,11H22v1h2Z"/><path class="ea131-10" d="M21,8h1V7H21Z"/><path class="ea131-9" d="M11,13H22V12H20V11H19v1H10V11H9v1H7v1h4Z"/><rect class="ea131-10" x="20" y="8" width="1" height="1"/><path class="ea131-11" d="M19,11h1V10H19Z"/><path class="ea131-6" d="M18,11h1V10h1V8h1V7h1V6H20V7H19V8H18v3Z"/><path class="ea131-11" d="M17,11H10v1h9V11H17Z"/><path class="ea131-9" d="M11,11h7V7H16V8H13V7H11V8H10v3Z"/><path class="ea131-11" d="M10,10H9v1h1Z"/><path class="ea131-9" d="M6,11H5v1H7V11Z"/><path class="ea131-12" d="M7,24H8V23H9V22H6v1H7Z"/><path class="ea131-12" d="M6,24V23H5v2H6Z"/><rect class="ea131-2" x="6" y="23" width="1" height="1"/><rect class="ea131-2" x="8" y="23" width="1" height="1"/><path class="ea131-12" d="M9,25h1V23H9v2Z"/><path class="ea131-13" d="M8,24H6v1H9V24Z"/><rect class="ea131-2" x="9" y="25" width="1" height="1"/><path class="ea131-2" d="M5,25v1H6V25Z"/></svg>