<svg xmlns="http://www.w3.org/2000/svg" viewBox="0 0 29 33"><defs><style>polygon,rect,path{shape-rendering:crispedges;}.cb228-1{fill:#6b4f99;}.cb228-2{fill:#000000;}.cb228-3{fill:#326b43;}.cb228-4{fill:#ffffff;}.cb228-5{fill:#ce8452;}.cb228-6{fill:#b23b00;}.cb228-7{fill:#b23b00;}.cb228-8{fill:#cbed03;}.cb228-9{fill:#fad000;}</style></defs><path class="cb228-1" d="M0,33H6V27H7V26H8V25h2V24h1V23h1V22H10V20H9V16H8V15H9V11h1V10h1V9h2V7h1V6h2V5h2V6H17V7h1v3h1v1h1v4h1v1H20v4H19v1H18v1H17v1h1v1h1v1h2v1h1v1h1v6h6V0H0Z"/><path class="cb228-2" d="M23,27H22v6h1V27Z"/><path class="cb228-3" d="M22,27H21v6h1V27Z"/><rect class="cb228-2" x="21" y="26" width="1" height="1"/><path class="cb228-2" d="M21,27H20v6h1V27Z"/><path class="cb228-3" d="M20,27h1V26H19V25H18v4H17v4h3V27Z"/><path class="cb228-2" d="M20,26h1V25H19v1Z"/><path class="cb228-2" d="M17,29H16v4h1V29Z"/><rect class="cb228-4" x="16" y="24" width="1" height="1"/><path class="cb228-4" d="M16,29h1V26H16V25H13v1H12v3h1v4h1V32h1v1h1V29Zm-1,2H14V30h1Zm0-2H14V28h1Zm0-2H14V26h1Z"/><rect class="cb228-4" x="15" y="23" width="1" height="1"/><rect class="cb228-2" x="14" y="32" width="1" height="1"/><rect class="cb228-2" x="14" y="30" width="1" height="1"/><rect class="cb228-2" x="14" y="28" width="1" height="1"/><rect class="cb228-2" x="14" y="26" width="1" height="1"/><path class="cb228-2" d="M15,24V23H14v1H13v1h3V24Z"/><rect class="cb228-4" x="13" y="23" width="1" height="1"/><path class="cb228-2" d="M13,29H12v4h1V29Z"/><rect class="cb228-4" x="12" y="24" width="1" height="1"/><path class="cb228-3" d="M12,29H11V25H10v1H8v1H9v6h3V29Z"/><path class="cb228-2" d="M11,26v3h1V26h1V25H12V24h1V22H12v1H11v1H10v1h1Z"/><path class="cb228-2" d="M10,25H8v1h2Z"/><path class="cb228-2" d="M9,27H8v6H9V27Z"/><path class="cb228-3" d="M8,27H7v6H8V27Z"/><rect class="cb228-2" x="7" y="26" width="1" height="1"/><path class="cb228-2" d="M7,27H6v6H7V27Z"/><rect class="cb228-2" x="20" y="15" width="1" height="1"/><path class="cb228-2" d="M19,13v2h1V11H19v2Z"/><path class="cb228-5" d="M11,13V12h2v2h1v2h1v1H14V16H13v1H11v2h1V18h5v1h1V18h1V16H16V13h1V12h2V11H18V10H15v1H13V10H11v1H10v2Z"/><rect class="cb228-5" x="9" y="15" width="1" height="1"/><path class="cb228-5" d="M18,14h1V13H17v1Z"/><rect class="cb228-5" x="15" y="20" width="1" height="1"/><rect class="cb228-5" x="19" y="15" width="1" height="1"/><rect class="cb228-5" x="10" y="16" width="1" height="1"/><rect class="cb228-5" x="13" y="20" width="1" height="1"/><rect class="cb228-2" x="18" y="10" width="1" height="1"/><path class="cb228-2" d="M16,23v1h1v1H16v1h1v3h1V25h1V24H18V23H17V22H16Z"/><path class="cb228-2" d="M13,9H11v1h2Z"/><path class="cb228-2" d="M16,10h2V9H16Z"/><rect class="cb228-2" x="10" y="10" width="1" height="1"/><path class="cb228-2" d="M10,14V11H9v4h1Z"/><rect class="cb228-2" x="8" y="15" width="1" height="1"/><rect class="cb228-2" x="14" y="16" width="1" height="1"/><path class="cb228-4" d="M12,15v1h1V14H12Z"/><path class="cb228-4" d="M16,14v2h1V14Z"/><path class="cb228-4" d="M19,14H18v2h1V14Z"/><path class="cb228-2" d="M12,14H11v2h1V14Z"/><path class="cb228-2" d="M17,14v2h1V14Z"/><path class="cb228-6" d="M11,13H10v1h1Z"/><path class="cb228-6" d="M13,12H11v1h2Z"/><path class="cb228-6" d="M17,13H16v1h1Z"/><path class="cb228-6" d="M19,12H17v1h2Z"/><path class="cb228-7" d="M13,23h3V22h2V21h1V20h1V16H19v2H18v1H16v2H15V20H14v1H13V19H11v3h2Z"/><path class="cb228-7" d="M10,17V16H9v4h1V17Z"/><path class="cb228-2" d="M12,18v1h1V18Z"/><path class="cb228-2" d="M16,18v1h1V18Z"/><path class="cb228-2" d="M15,18H14v1H13v1h3V19H15Z"/><path class="cb228-4" d="M14,18H13v1h1Z"/><path class="cb228-4" d="M15,18v1h1V18Z"/><path class="cb228-8" d="M13,11h2V10h1V9h2V7H17V6h1V5H16V6H14V7H13v4Z"/><path class="cb228-9" d="M14,16V14H13v2Z"/><path class="cb228-9" d="M12,14h1V13H11v1Z"/><path class="cb228-9" d="M13,16H11v1h2Z"/><path class="cb228-9" d="M11,15V14H10v2h1Z"/><path class="cb228-9" d="M11,19V17H10v5h1V19Z"/><rect class="cb228-8" x="18" y="9" width="1" height="1"></rect></svg>