<svg xmlns="http://www.w3.org/2000/svg" viewBox="0 0 29 33"><defs><style>polygon,rect,path{shape-rendering:crispedges;}.pa241-1{fill:#6b4f99;}.pa241-2{fill:#000000;}.pa241-3{fill:#ffa9d0;}.pa241-4{fill:#c18d59;}.pa241-5{fill:#cc2f76;}.pa241-6{fill:#b23b00;}.pa241-7{fill:#db5800;}.pa241-8{fill:#ffffff;}.pa241-9{fill:#0068ff;}.pa241-10{fill:#ff1f4a;}.pa241-11{fill:#6e12ff;}</style></defs><path class="pa241-1" d="M0,33H6V24H7V23H8v1H9v1h1V24h1V23H10V22h1V20H10V19H9V16H8V15H9V10h1V9h1V8h7V9h1v2h1v4h1v1H20v3H19v1H18v2h1v1H18v1h1v1h2v1h1v1h1v6h6V0H0Z"/><path class="pa241-2" d="M23,27H22v6h1V27Z"/><path class="pa241-3" d="M22,27H21v6h1V27Z"/><rect class="pa241-2" x="21" y="26" width="1" height="1"/><path class="pa241-2" d="M21,27H20v6h1V27Z"/><path class="pa241-3" d="M9,27v2h1V28h1v1h1V25h1V24H11v1H10v2Z"/><path class="pa241-3" d="M16,25h1v4h1V28h1v1h1V27h1V26H19V25H18V24H16Z"/><rect class="pa241-3" x="10" y="29" width="1" height="1"/><rect class="pa241-3" x="18" y="29" width="1" height="1"/><path class="pa241-3" d="M19,32V31H18v1H17V30H16v1H15v1H13V30H12v2H11V31H10v1H9v1H20V32Z"/><path class="pa241-2" d="M20,26h1V25H19v1Z"/><rect class="pa241-2" x="18" y="24" width="1" height="1"/><rect class="pa241-2" x="18" y="22" width="1" height="1"/><rect class="pa241-3" x="17" y="22" width="1" height="1"/><path class="pa241-2" d="M16,25V24H13v1h3Z"/><path class="pa241-4" d="M16,24V23H13v1h3Z"/><path class="pa241-2" d="M13,23h3v1h2V23H17V22h1V20H17v1H16v1H13V21H12V20H11v2h1v1H11v1h2Z"/><rect class="pa241-3" x="11" y="22" width="1" height="1"/><rect class="pa241-2" x="10" y="24" width="1" height="1"/><rect class="pa241-2" x="10" y="22" width="1" height="1"/><path class="pa241-2" d="M9,31V27H8v6H9V31Z"/><path class="pa241-3" d="M8,27H7v6H8V27Z"/><path class="pa241-2" d="M7,27V24H6v9H7V27Z"/><path class="pa241-3" d="M14,29v2h1V29Z"/><path class="pa241-3" d="M13,28h2v1h1V25H13v3Z"/><path class="pa241-5" d="M19,30H18V29H17v3h1V31h1v1h1V29H19Z"/><rect class="pa241-5" x="18" y="28" width="1" height="1"/><path class="pa241-5" d="M15,29v2h1V29Z"/><path class="pa241-5" d="M14,30V29h1V28H13v4h2V31H14Z"/><path class="pa241-5" d="M11,29v1H10V29H9v3h1V31h1v1h1V29Z"/><rect class="pa241-5" x="10" y="28" width="1" height="1"/><path class="pa241-2" d="M13,27V25H12v5h1V27Z"/><path class="pa241-2" d="M17,28V25H16v5h1V28Z"/><rect class="pa241-2" x="20" y="15" width="1" height="1"/><rect class="pa241-4" x="13" y="10" width="1" height="1"/><path class="pa241-4" d="M13,20v2h3V20Z"/><rect class="pa241-4" x="11" y="10" width="1" height="1"/><rect class="pa241-4" x="14" y="13" width="1" height="1"/><path class="pa241-4" d="M12,19V18h5v2h1V19h1V16H15v1H14V16H10v3h1v1h1Z"/><rect class="pa241-4" x="14" y="15" width="1" height="1"/><rect class="pa241-4" x="15" y="10" width="1" height="1"/><rect class="pa241-4" x="17" y="10" width="1" height="1"/><path class="pa241-2" d="M19,17v2h1V16H19Z"/><rect class="pa241-2" x="18" y="19" width="1" height="1"/><rect class="pa241-2" x="13" y="9" width="1" height="1"/><rect class="pa241-2" x="15" y="9" width="1" height="1"/><rect class="pa241-2" x="11" y="9" width="1" height="1"/><rect class="pa241-2" x="17" y="9" width="1" height="1"/><rect class="pa241-2" x="10" y="10" width="1" height="1"/><rect class="pa241-2" x="10" y="19" width="1" height="1"/><path class="pa241-2" d="M10,16H9v3h1V16Z"/><rect class="pa241-2" x="8" y="15" width="1" height="1"/><rect class="pa241-2" x="14" y="16" width="1" height="1"/><path class="pa241-6" d="M13,19H12v2h1V19Z"/><path class="pa241-6" d="M13,18v1h3v2h1V18Z"/><path class="pa241-2" d="M16,20V19H13v1Z"/><path class="pa241-2" d="M13,18H12v1h1Z"/><path class="pa241-4" d="M7,27H9V25H8V24H7v3Z"/><path class="pa241-2" d="M10,27V25H9v2Z"/><rect class="pa241-2" x="8" y="24" width="1" height="1"/><rect class="pa241-2" x="7" y="23" width="1" height="1"/><path class="pa241-7" d="M18,11h1V9H18v2Z"/><path class="pa241-7" d="M12,10v1h1V9h1v2h1V9h1v2h1V9h1V8H11V9h1Z"/><rect class="pa241-7" x="10" y="9" width="1" height="1"/><path class="pa241-7" d="M10,10H9v1h1Z"/><path class="pa241-8" d="M11,16h3V15h1v1h5V13H15v1H14V13H9v3h2Zm5-2h3v1H16Zm-6,0h3v1H10Z"/><path class="pa241-9" d="M19,15V14H16v1h3Z"/><path class="pa241-10" d="M13,15V14H10v1h3Z"/><path class="pa241-8" d="M20,12V11H9v1H20Z"/><path class="pa241-11" d="M14,13h6V12H9v1h5Z"/></svg>