<svg xmlns="http://www.w3.org/2000/svg" viewBox="0 0 29 33"><defs><style>polygon,rect,path{shape-rendering:crispedges;}.oa233-1{fill:#db5a8e;}.oa233-2{fill:#000000;}.oa233-3{fill:#009b97;}.oa233-4{fill:#317f03;}.oa233-5{fill:#e8b795;}.oa233-6{fill:#893a1f;}.oa233-7{fill:#5a2de2;}</style></defs><rect class="oa233-1" x="17" y="20" height="1"/><path class="oa233-1" d="M19,18V16h0v3h0Z"/><rect class="oa233-1" x="18" y="19" height="1"/><path class="oa233-1" d="M0,33H6V27H7V26H8V25h2V24h2V21H10v1H9V21H8V20H9V17H8V12H9V10h1V9h1V8h7V9h1v1h1v2h1v3h0v1h0v2H20v2h1v1H20v1H19V21H17v3h2v1h2v1h1v1h1v6h6V0H0Z"/><rect class="oa233-1" x="14" y="16" width="1"/><path class="oa233-2" d="M23,27H22v6h1V27Z"/><rect class="oa233-2" x="21" y="26" width="1" height="1"/><path class="oa233-3" d="M22,27H21v6h1V27Z"/><path class="oa233-2" d="M21,27H20v6h1V27Z"/><path class="oa233-3" d="M20,27h1V26H19V25H18v8h2V27Z"/><path class="oa233-2" d="M20,26h1V25H19v1Z"/><path class="oa233-2" d="M18,25h1V24H17v1H16v1h1v7h1V25Z"/><path class="oa233-4" d="M17,26H16v1H13V26H12v7h5V26Z"/><path class="oa233-2" d="M13,26v1h3V26H13Z"/><path class="oa233-2" d="M13,23h3v1h1V21H16v1H13V21H12v3h1Z"/><path class="oa233-5" d="M13,25v1h3V25h1V24H16V23H13v1H12v1Z"/><path class="oa233-2" d="M12,26h1V25H12V24H10v1h1v8h1V26Z"/><path class="oa233-3" d="M11,25H10v1H8v1H9v6h2V25Z"/><path class="oa233-2" d="M10,25H8v1h2Z"/><path class="oa233-2" d="M9,27H8v6H9V27Z"/><rect class="oa233-2" x="7" y="26" width="1" height="1"/><path class="oa233-3" d="M8,27H7v6H8V27Z"/><path class="oa233-2" d="M7,27H6v6H7V27Z"/><polygon class="oa233-2" points="21 16 21 15 21 15 21 16 21 16"/><rect class="oa233-5" x="18" y="13" width="1" height="1"/><path class="oa233-5" d="M16,13V12h1V11H16V10H15v1H14v1H13v1h3Z"/><path class="oa233-5" d="M13,21v1h3V21h1V20h1V19h1V16h1V15H18v1H16V15H15V14H14v1H13v1H11V15H10v3h0v1h1v1h1v1Zm1-4V16h1v1Zm-1,2h3V18h1v1H16v1H13Z"/><path class="oa233-2" d="M20,17V16H19v3h1V18h0Z"/><polygon class="oa233-2" points="19 20 19 19 19 19 18 19 18 19 18 20 19 20"/><path class="oa233-2" d="M18,20H17v1h1V20Z"/><rect class="oa233-2" x="15" y="10" width="1"/><path class="oa233-2" d="M11,20v1h1V20Z"/><polygon class="oa233-2" points="11 20 11 19 10 19 10 20 11 20"/><path class="oa233-2" d="M10,18H9v1h1Z"/><polygon class="oa233-2" points="15 16 14 16 14 17 14 17 15 17 15 16"/><rect class="oa233-6" x="18" y="13" width="1"/><path class="oa233-6" d="M16,13h2V12H16Z"/><rect class="oa233-2" x="13" y="19" width="3" height="1"/><rect class="oa233-2" x="16" y="18" width="1" height="1"/><path class="oa233-7" d="M19,20H18v1h1v1h1V21h1V20H20V19H19Z"/><path class="oa233-7" d="M10,20V19H9v1H8v1H9v1h1V21h1V20Z"/><path class="oa233-7" d="M10,17V15H9V14h2V13h2V12h1V11h1V10h1v1h1v1h1v1h1v1h1v2h0v2h1V12H20V10H19V9H18V8H11V9H10v1H9v2H8v5H9v1h1Z"/><path class="oa233-2" d="M19,14H18V13H11v1H9v1h2v1h2V15h1V14h1v1h1v1h2V15h2V14Z"/></svg>