<svg xmlns="http://www.w3.org/2000/svg" viewBox="0 0 29 33"><defs><style>polygon,rect,path{shape-rendering:crispedges;}.ga150-1{fill:#6b4f99;}.ga150-2{fill:#000000;}.ga150-3{fill:#b23b00;}.ga150-4{fill:#c18d59;}.ga150-5{fill:#ff791f;}.ga150-6{fill:#ffffff;}.ga150-7{fill:#6f7032;}.ga150-8{fill:#6f7032;}.ga150-9{fill:#0079bc;}</style></defs><path class="ga150-1" d="M6,32V27H7V26H8V25h2V24h2V21H10V20H9V16H8V14H9V12H8v1H7V12H8V11H9V10h1V9h2V8h5V9h2v1h1v1h1v1h1v1H21V12H20v2h1v2H20v4H19v1H17v3h2v1h2v1h1v1h1v6h6V0H0V33H6Z"/><path class="ga150-2" d="M23,27H22v6h1V27Z"/><rect class="ga150-2" x="21" y="26" width="1" height="1"/><path class="ga150-3" d="M22,27H21v6h1V27Z"/><path class="ga150-2" d="M21,27H20v6h1V27Z"/><path class="ga150-2" d="M20,26h1V25H19v1Z"/><rect class="ga150-3" x="12" y="30" width="1" height="1"/><path class="ga150-3" d="M16,32H12v1h5V32Z"/><path class="ga150-3" d="M20,27h1V26H19V25H17v1H16v1H13V26H12V25H10v1H9v7h1V30h1V29h1V28h5v1h1v1h1v3h1V27Z"/><rect class="ga150-3" x="16" y="30" width="1" height="1"/><path class="ga150-2" d="M18,25h1V24H17v1Z"/><rect class="ga150-2" x="16" y="25" width="1" height="1"/><path class="ga150-2" d="M13,26v1h3V26H13Z"/><path class="ga150-2" d="M13,23h3v1h1V21H16v1H13V21H12v3h1Z"/><path class="ga150-4" d="M13,25v1h3V25h1V24H16V23H13v1H12v1Z"/><rect class="ga150-2" x="12" y="25" width="1" height="1"/><path class="ga150-2" d="M12,24H10v1h2Z"/><path class="ga150-2" d="M9,26h1V25H8v1H7v1H8v6H9V26Z"/><path class="ga150-3" d="M8,27H7v6H8V27Z"/><path class="ga150-2" d="M7,27H6v6H7V27Z"/><path class="ga150-5" d="M19,30H18V29H17V28H12v1H11v1H10v3h2V32h5v1h2V30Zm-6,1H12V30h1Zm4,0H16V30h1Z"/><path class="ga150-2" d="M20,16h1V15H20Z"/><path class="ga150-4" d="M13,22h3V21h1V20h1V18h1V16h1V15H16V13h1V12H15V11H14v1H13v1H11v1h2v1H9v1h1v2h1v2h1v1h1Zm1-6h1v1H14Zm-2,3V18h1v1h3v1H13V19Z"/><path class="ga150-4" d="M18,14h1V13H17v1Z"/><path class="ga150-2" d="M19,17h1V16H19Z"/><path class="ga150-2" d="M10,15V14H9v1Z"/><path class="ga150-2" d="M10,16H9v1h1Z"/><path class="ga150-2" d="M8,15v1H9V15Z"/><rect class="ga150-2" x="14" y="16" width="1" height="1"/><path class="ga150-6" d="M10,15h1V14H10Z"/><path class="ga150-6" d="M16,14v1h1V14Z"/><path class="ga150-2" d="M12,15h1V14H11v1Z"/><path class="ga150-2" d="M18,14H17v1h3V14H18Z"/><rect class="ga150-7" x="10" y="13" width="1" height="1"/><path class="ga150-7" d="M12,13h1V12H12Z"/><path class="ga150-7" d="M17,13H16v1h1Z"/><path class="ga150-8" d="M19,18H18v2H17v1h2V20h1V17H19Z"/><path class="ga150-8" d="M11,20V18H10V17H9v3h1v1h2V20Z"/><rect class="ga150-2" x="13" y="19" width="3" height="1"/><rect class="ga150-2" x="12" y="18" width="1" height="1"/><rect class="ga150-9" x="21" y="12" width="1" height="1"/><path class="ga150-9" d="M10,13h2V12h2V11h1v1h2v1h2v1h1V12h1V11H20V10H19V9H17V8H12V9H10v1H9v1H8v1H9v2h1Z"/><path class="ga150-9" d="M21,15V14H20v1Z"/><path class="ga150-9" d="M9,14H8v1H9Z"/><rect class="ga150-9" x="7" y="12" width="1" height="1"/></svg>