<svg xmlns="http://www.w3.org/2000/svg" viewBox="0 0 29 33"><defs><style>polygon,rect,path{shape-rendering:crispedges;}.ia96-1{fill:#397d98;}.ia96-2{fill:#000000;}.ia96-3{fill:#508e91;}.ia96-4{fill:#ce8452;}.ia96-5{fill:#c6e5e4;}.ia96-6{fill:#4922aa;}.ia96-7{fill:#ff791f;}</style></defs><rect class="ia96-1" x="16" y="21" width="1"/><rect class="ia96-1" x="19" y="16" width="1"/><rect class="ia96-1" x="17" y="20" width="1"/><path class="ia96-1" d="M0,33H29V0H0Zm6-1V27H7V26H8V25h2V24h2V21H11V20H10V19H9V16H8V15H9v1h1v3h1v1h1v1h1v1h0V21H12V20H11V19H10V16H9V10h1V9h1V8h7V9h1v1h1v2h1v6H20v1H19v1H18v1H17v3h2v1h2v1h1v1h1v6H6Z"/><polygon class="ia96-1" points="14 16 15 16 15 17 15 17 15 16 14 16 14 16"/><rect class="ia96-1" x="18" y="19" width="1"/><path class="ia96-2" d="M22,33h1V27H22v6Z"/><rect class="ia96-2" x="21" y="26" width="1" height="1"/><path class="ia96-3" d="M21,28v5h1V27H21Z"/><path class="ia96-2" d="M21,28V27H20v6h1V28Z"/><path class="ia96-2" d="M20,26h1V25H19v1Z"/><path class="ia96-3" d="M9,26v7H20V27h1V26H19V25H17v1H16v1H13V26H12V25H10v1Zm7,5V28h3v1H17v2h1V30h1v2H16Zm-4-3h3v4H12Zm-1,0v4H10V28Z"/><rect class="ia96-3" x="13" y="29" width="1" height="2"/><path class="ia96-2" d="M18,25h1V24H17v1Z"/><rect class="ia96-2" x="16" y="25" width="1" height="1"/><path class="ia96-2" d="M13,26v1h3V26H13Z"/><path class="ia96-2" d="M13,23h3v1h1V21H16v1H13V21H12v3h1Z"/><path class="ia96-4" d="M13,25v1h3V25h1V24H16V23H13v1H12v1Z"/><rect class="ia96-2" x="12" y="25" width="1" height="1"/><path class="ia96-2" d="M12,24H10v1h2Z"/><path class="ia96-2" d="M8,28v5H9V26h1V25H8v1H7v1H8Z"/><path class="ia96-3" d="M7,32v1H8V27H7v5Z"/><path class="ia96-2" d="M7,32V27H6v6H7Z"/><path class="ia96-5" d="M15,28H12v4h3Zm-1,3H13V29h1Z"/><path class="ia96-5" d="M10,29v3h1V28H10Z"/><path class="ia96-5" d="M19,32V30H18v1H17V29h2V28H16v4h3Z"/><path class="ia96-4" d="M16,21h1V20h1V19h1V16h1V15H18v1H16V15H15V14H14v1H13v1H11V15H9v1h1v3h1v1h1v1h1v1h3V21Zm-1-1H14V19h1Zm0-3H14V16h1Z"/><rect class="ia96-4" x="10" y="13" width="1" height="1"/><path class="ia96-4" d="M15,12V11H13V10H11v1H10v1h2v1h4V12Z"/><path class="ia96-2" d="M19,16v3h1V16Z"/><polygon class="ia96-2" points="18 20 18 20 19 20 19 19 18 19 18 20"/><polygon class="ia96-2" points="17 21 17 21 18 21 18 20 17 20 17 21"/><rect class="ia96-2" x="11" y="20" width="1" height="1"/><rect class="ia96-2" x="10" y="19" width="1" height="1"/><path class="ia96-2" d="M10,16H9v3h1V16Z"/><rect class="ia96-2" x="8" y="15" width="1" height="1"/><polygon class="ia96-2" points="14 16 14 16 14 17 15 17 15 17 15 16 14 16"/><path class="ia96-6" d="M10,12v1h2V12Z"/><rect class="ia96-2" x="14" y="19" width="1" height="1"/><path class="ia96-7" d="M10,13V11h1V10h2v1h2v1h1v1h2v1h2v2h0v2h1V12H20V10H19V9H18V8H11V9H10v1H9v4h1Z"/><path class="ia96-2" d="M11,16h2V15h1V14h1v1h1v1h2V15h2V14H18V13H11v1H9v1h2Z"/></svg>