<svg xmlns="http://www.w3.org/2000/svg" viewBox="0 0 29 33"><defs><style>polygon,rect,path{shape-rendering:crispedges;}.gb87-1{fill:#29834f;}.gb87-2{fill:#000000;}.gb87-3{fill:#333333;}.gb87-4{fill:#ffffff;}.gb87-5{fill:#e8b795;}.gb87-6{fill:#90a2a3;}.gb87-7{fill:#ffffff;}.gb87-8{fill:#7f5018;}.gb87-9{fill:#db5800;}.gb87-10{fill:#ff6aa5;}.gb87-11{fill:#ff1f4a;}.gb87-12{fill:#ff791f;}.gb87-13{fill:#fad000;}.gb87-14{fill:#b6dc00;}.gb87-15{fill:#00af68;}.gb87-16{fill:#38a6e8;}.gb87-17{fill:#0068ff;}.gb87-18{fill:#6e12ff;}.gb87-19{fill:#ff1d99;}.gb87-20{fill:#cc2f76;}</style></defs><path class="gb87-1" d="M0,33H6V27H7V26H8V25H9V24h1V22H9V16H8V15H9V10h1V9h1V8h7V9h1v1h1v5h1v1H20v3h2v1h1v3H22v1H21v1h1v1h1v7h6V0H0Z"/><path class="gb87-2" d="M7,27H6v6H7V27Z"/><path class="gb87-3" d="M8,27H7v6H8V27Z"/><path class="gb87-2" d="M9,29h1V28h2V27H9V25H8v1H7v1H8v6H9V29Z"/><rect class="gb87-2" x="9" y="24" width="1" height="1"/><path class="gb87-3" d="M12,32V31H11V30H10V29H9v4h4V32Z"/><path class="gb87-3" d="M10,26v1h2v1H10v1h1v1h1v1h1V26H11V25H9v1Z"/><rect class="gb87-2" x="10" y="29" width="1" height="1"/><path class="gb87-2" d="M13,23h3v1h1V21H16v1H13V21H12v3h1Z"/><path class="gb87-2" d="M12,25v1h1V25Z"/><path class="gb87-4" d="M15,27H14v6h1V27Z"/><path class="gb87-5" d="M17,25V24H16V23H13v1H12v1h1v1h3V25Z"/><rect class="gb87-2" x="16" y="25" width="1" height="1"/><path class="gb87-3" d="M20,29H19v1H18v1H17v1H16v1h4V29Z"/><rect class="gb87-2" x="17" y="30" width="1" height="1"/><rect class="gb87-2" x="19" y="24" width="1" height="1"/><rect class="gb87-3" x="19" y="25" width="1" height="1"/><path class="gb87-3" d="M17,25v1H16v5h1V30h1V29h1V28H17V27h1V25Z"/><path class="gb87-2" d="M21,28H20V26H19v1H17v1h2v1h1v4h1V28Z"/><path class="gb87-3" d="M22,28H21v5h1V28Z"/><path class="gb87-2" d="M23,26H22v7h1V26Z"/><rect class="gb87-2" x="18" y="29" width="1" height="1"/><rect class="gb87-2" x="11" y="30" width="1" height="1"/><path class="gb87-2" d="M17,32V31H16V26H13v5H12v1h1v1h1V27h1v6h1V32Z"/><path class="gb87-6" d="M9,26v1h1V26Z"/><rect class="gb87-2" x="20" y="15" width="1" height="1"/><path class="gb87-5" d="M17,14h2V13H17Z"/><path class="gb87-5" d="M18,15H16V13h1V12h1V11H17V10H14v1H12v1h1v1H11v1h2v1H10v4h1v1h1v1h1v1h3V21h1V20h1V19h1V16h1V15H18Zm-4,1h1v1H14Zm2,4H13V19H12V18h1v1h3Z"/><path class="gb87-2" d="M19,17v2h1V16H19Z"/><rect class="gb87-2" x="18" y="19" width="1" height="1"/><rect class="gb87-2" x="17" y="20" width="1" height="1"/><rect class="gb87-2" x="11" y="20" width="1" height="1"/><rect class="gb87-2" x="10" y="19" width="1" height="1"/><path class="gb87-2" d="M10,18V16H9v3h1Z"/><rect class="gb87-2" x="8" y="15" width="1" height="1"/><rect class="gb87-2" x="14" y="16" width="1" height="1"/><path class="gb87-7" d="M13,15V14H12v1Z"/><path class="gb87-7" d="M11,14H10v1h1Z"/><path class="gb87-7" d="M18,15h1V14H18Z"/><path class="gb87-7" d="M16,14v1h1V14Z"/><path class="gb87-2" d="M12,15V14H11v1Z"/><path class="gb87-2" d="M17,14v1h1V14Z"/><path class="gb87-8" d="M13,12H11v1h2Z"/><path class="gb87-8" d="M17,13H16v1h1Z"/><path class="gb87-8" d="M17,13h1V12H17Z"/><rect class="gb87-2" x="13" y="19" width="3" height="1"/><rect class="gb87-2" x="12" y="18" width="1" height="1"/><path class="gb87-9" d="M19,24V23H18V21H17v4h1v2h1V24Z"/><path class="gb87-9" d="M10,15V14h1V12h1V11h2V10h3v1h1v2h1v2h1V10H19V9H18V8H11V9H10v1H9v6h1Z"/><path class="gb87-9" d="M11,25v1h1V21H11V20H10V19H9v3h1v3Z"/><path class="gb87-7" d="M20,25v1h1V24H20Z"/><rect class="gb87-10" x="20" y="21" width="1" height="1"/><polygon class="gb87-11" points="20 23 19 23 19 24 20 24 21 24 21 23 20 23"/><rect class="gb87-12" x="21" y="23" width="1" height="1"/><path class="gb87-13" d="M22,22h1V20H22v2Z"/><path class="gb87-14" d="M21,20h1V19H20v1Z"/><rect class="gb87-15" x="19" y="19" width="1" height="1"/><rect class="gb87-15" x="18" y="20" width="1" height="1"/><path class="gb87-16" d="M19,21H18v2h1V21Z"/><path class="gb87-17" d="M19,22v1h2V22H19Z"/><path class="gb87-18" d="M22,21H21v2h1V21Z"/><path class="gb87-19" d="M20,20v1h2V20H20Z"/><path class="gb87-20" d="M19,22h1V20H19v2Z"/><path class="gb87-12" d="M22,23h1V22H22Z"/><path class="gb87-2" d="M21.5,26H22V25H21v1Z"/><path class="gb87-5" d="M21,26H20v2h2V26H21Z"/></svg>