<svg xmlns="http://www.w3.org/2000/svg" viewBox="0 0 29 33"><defs><style>polygon,rect,path{shape-rendering:crispedges;}.da115-1{fill:#b4bd09;}.da115-2{fill:#000000;}.da115-3{fill:#e8b795;}.da115-4{fill:#508e91;}.da115-5{fill:#c5e2d0;}.da115-6{fill:#ffffff;}.da115-7{fill:#7f5018;}.da115-8{fill:#7f5018;}.da115-9{fill:#e70059;}.da115-10{fill:#0079bc;}.da115-11{fill:#455054;}.da115-12{fill:#ff1f4a;}</style></defs><path class="da115-1" d="M8,19v3H9v2H8v1h2V24h2V22H11V21H10V20H9V16H8v3Z"/><path class="da115-1" d="M0,33H8V32H6V31H5V22H6V21H7V20H5v1H2V17H5V16H8V15H9V11h1V10H9V9h1V8h2V7h1V8h3V9h1V8h1V9h1v1h1v5h1v1H20v4H19v1H18v1H17v2h2v1h2v1h1v1h1v6h6V0H0Z"/><rect class="da115-1" x="12" y="8" width="1" height="1"/><rect class="da115-2" x="21" y="26" width="1" height="1"/><path class="da115-2" d="M23,27H22v3H21V27H20v6h1V31h1v2h1V27Z"/><path class="da115-2" d="M20,26h1V25H19v1Z"/><path class="da115-2" d="M18,25h1V24H17v1Z"/><path class="da115-2" d="M16,24h1V23H16Z"/><path class="da115-2" d="M13,23H12v1h1Z"/><path class="da115-2" d="M11,24H10v1h2V24Z"/><path class="da115-2" d="M9,27H8V26h2V25H8V24H7v7H6v1H8v1H9V27Z"/><path class="da115-2" d="M6,22H5v9H6V22Z"/><path class="da115-3" d="M7,30V24H8V22H6v9H7Z"/><path class="da115-4" d="M20,27h1V26H19V25H17v1H16v1H13V26H12V25H10v1H8v1H9v6H20V27Zm-9,2v3H10V28h1Zm4,3H12V28h3Zm4-3H17v2h1V30h1v2H16V28h3Z"/><rect class="da115-4" x="13" y="29" width="1" height="2"/><path class="da115-2" d="M13,26v1h3V26H13Z"/><path class="da115-3" d="M16,23H13v1H12v1h1v1h3V25h1V24H16Z"/><path class="da115-4" d="M21,28v2h1V27H21Z"/><path class="da115-3" d="M21,31v2h1V31Z"/><rect class="da115-2" x="12" y="25" width="1" height="1"/><rect class="da115-2" x="16" y="25" width="1" height="1"/><path class="da115-5" d="M12,32h3V28H12Zm1-3h1v2H13Z"/><path class="da115-5" d="M10,29v3h1V28H10Z"/><path class="da115-5" d="M16,28v4h3V30H18v1H17V29h2V28H16Z"/><rect class="da115-2" x="20" y="15" width="1" height="1"/><rect class="da115-3" x="18" y="12" width="1" height="1"/><path class="da115-3" d="M10,16v1h1v1h7V17h1V16h1V15H16V14h2V13H16V12h2V11H17V10H16v1H11v1h1v1h1v2H9v1Zm4,0h1v1H14Z"/><path class="da115-3" d="M10,14h2V13H10Z"/><path class="da115-2" d="M10,14H9v1h1Z"/><rect class="da115-2" x="8" y="15" width="1" height="1"/><rect class="da115-2" x="14" y="16" width="1" height="1"/><path class="da115-6" d="M12,15h1V14H12Z"/><path class="da115-6" d="M10,14v1h1V14Z"/><path class="da115-6" d="M18,14v1h1V14Z"/><path class="da115-6" d="M16,14v1h1V14Z"/><path class="da115-2" d="M11,14v1h1V14Z"/><path class="da115-2" d="M17,14v1h1V14Z"/><rect class="da115-7" x="18" y="13" width="1" height="1"/><rect class="da115-7" x="16" y="12" width="2" height="1"/><path class="da115-7" d="M13,14V13H12v1Z"/><path class="da115-7" d="M10,13h2V12H10Z"/><path class="da115-8" d="M19,17H18v1H17v1H16v1H13V19H12V18H11V17H10V16H9v4h1v1h1v1h1v1h5V22h1V21h1V20h1V16H19Z"/><path class="da115-2" d="M13,19V18H12v1Z"/><path class="da115-2" d="M17,19V18H16v1Z"/><path class="da115-2" d="M15,20h1V19H15Z"/><path class="da115-2" d="M15,19V18H14v1Z"/><path class="da115-2" d="M13,19v1h1V19Z"/><path class="da115-6" d="M14,19V18H13v1Z"/><path class="da115-6" d="M16,19V18H15v1Z"/><path class="da115-9" d="M14,19v1h1V19Z"/><path class="da115-10" d="M10,13V12h1V11h5V10h1v1h1v1h1v3h1V10H19V9H18V8H17V9H16V8H13V9H12V8H10V9H9v1h1v1H9v3h1Z"/><rect class="da115-10" x="12" y="7" width="1" height="1"/><path class="da115-11" d="M8,22V20H7v2Z"/><path class="da115-2" d="M7,21H6v1H7Z"/><path class="da115-2" d="M9,22H8v2H9Z"/><path class="da115-12" d="M3,17H2v1H3Z"/><path class="da115-12" d="M8,19V16H5v1H4v1H3v1H4v1H3V19H2v2H5V20H8ZM6,19H5V18H6Z"/><path class="da115-6" d="M4,18V17H3v1Z"/><path class="da115-6" d="M3,18H2v1H3Z"/><rect class="da115-6" x="3" y="19" width="1" height="1"/><rect class="da115-6" x="5" y="18" width="1" height="1"/></svg>