<svg xmlns="http://www.w3.org/2000/svg" viewBox="0 0 29 33"><defs><style>polygon,rect,path{shape-rendering:crispedges;}.aa48-1{fill:#e55b35;}.aa48-2{fill:#000000;}.aa48-3{fill:#efcaaf;}.aa48-4{fill:#a0688d;}.aa48-5{fill:#ffffff;}.aa48-6{fill:#8e703c;}.aa48-7{fill:#8e703c;}.aa48-8{fill:#cbed03;}</style></defs><path class="aa48-1" d="M0,33H6V27H7V26H8V25h2V24h2V21H11V20H10V19H9V16H8V15H9V11h1V10h1V9h2V7h1V6h2V5h2V6H17V7h1V9h1v2h1v4h1v1H20v3H19v1H18v1H17v3h2v1h2v1h1v1h1v6h6V0H0Z"/><path class="aa48-2" d="M23,31V27H22v6h1Z"/><rect class="aa48-2" x="21" y="26" width="1" height="1"/><path class="aa48-3" d="M22,31V27H21v6h1Z"/><rect class="aa48-3" x="20" y="26" width="1" height="1"/><path class="aa48-2" d="M21,31V27H20v6h1Z"/><path class="aa48-2" d="M20,26h1V25H19v1Z"/><rect class="aa48-4" x="18" y="30" width="1" height="1"/><rect class="aa48-4" x="10" y="30" width="1" height="1"/><path class="aa48-4" d="M17,31V30h1V29h1v1h1V26H19V25H18v1H17v1H16v1H13V27H12V26H11V25H10v1H9v4h1V29h1v1h1v3h1V29h2v1h1v2H15v1h2Z"/><rect class="aa48-4" x="10" y="32" width="1" height="1"/><path class="aa48-4" d="M14,31v1h1V30H14Z"/><rect class="aa48-4" x="18" y="32" width="1" height="1"/><path class="aa48-2" d="M17,26h1V25h1V24H17Z"/><rect class="aa48-2" x="16" y="26" width="1" height="1"/><path class="aa48-2" d="M14,27H13v1h3V27Z"/><path class="aa48-2" d="M13,23h3v1h1V21H16v1H13V21H12v3h1Z"/><path class="aa48-3" d="M12,26h1v1h3V26h1V24H16V23H13v1H12Z"/><rect class="aa48-2" x="12" y="26" width="1" height="1"/><path class="aa48-2" d="M11,26h1V24H10v1h1Z"/><path class="aa48-2" d="M10,26V25H8v1Z"/><rect class="aa48-3" x="8" y="26" width="1" height="1"/><path class="aa48-2" d="M9,31V27H8v6H9Z"/><rect class="aa48-2" x="7" y="26" width="1" height="1"/><path class="aa48-3" d="M8,31V27H7v6H8Z"/><path class="aa48-2" d="M7,31V27H6v6H7Z"/><path class="aa48-5" d="M20,31V30H19v1H18V30H17v3h1V32h1v1h1Z"/><rect class="aa48-5" x="18" y="29" width="1" height="1"/><path class="aa48-5" d="M15,32h1V30H15Z"/><path class="aa48-5" d="M14,32V30h1V29H13v4h2V32Z"/><path class="aa48-5" d="M12,31V30H11v1H10V30H9v3h1V32h1v1h1Z"/><rect class="aa48-5" x="10" y="29" width="1" height="1"/><rect class="aa48-2" x="20" y="15" width="1" height="1"/><rect class="aa48-3" x="19" y="15" width="1" height="1"/><rect class="aa48-3" x="14" y="15" width="1" height="1"/><path class="aa48-3" d="M17,14h2V13H17Z"/><rect class="aa48-3" x="9" y="15" width="1" height="1"/><path class="aa48-3" d="M13,22h3V21h1V20h1V19h1V16H18v1H16V16H15v1H14V16H13v1H11V16H10v3h1v1h1v1h1Zm-1-3V18h5v1H16v1H13V19Z"/><path class="aa48-3" d="M10,13h1V12h2v1H11v1h5V13h1V12h2V11H18V10H15v1H13V10H11v1H10Z"/><path class="aa48-2" d="M19,17v2h1V16H19Z"/><rect class="aa48-2" x="18" y="10" width="1" height="1"/><rect class="aa48-2" x="18" y="19" width="1" height="1"/><rect class="aa48-2" x="17" y="20" width="1" height="1"/><path class="aa48-2" d="M16,9v1h2V9Z"/><path class="aa48-2" d="M13,10V9H11v1Z"/><rect class="aa48-2" x="11" y="20" width="1" height="1"/><rect class="aa48-2" x="10" y="10" width="1" height="1"/><rect class="aa48-2" x="10" y="19" width="1" height="1"/><path class="aa48-2" d="M10,17V16H9v3h1Z"/><rect class="aa48-2" x="8" y="15" width="1" height="1"/><rect class="aa48-2" x="14" y="16" width="1" height="1"/><rect class="aa48-6" x="10" y="13" width="1" height="1"/><rect class="aa48-6" x="11" y="12" width="2" height="1"/><rect class="aa48-6" x="16" y="13" width="1" height="1"/><rect class="aa48-6" x="17" y="12" width="2" height="1"/><polygon class="aa48-7" points="16 19 17 19 17 18 13 18 13 19 16 19"/><rect class="aa48-2" x="13" y="19" width="3" height="1"/><rect class="aa48-2" x="12" y="18" width="1" height="1"/><path class="aa48-8" d="M13,11h2V10h1V9h2V7H17V6h1V5H16V6H14V7H13Z"/><rect class="aa48-8" x="18" y="9" width="1" height="1"/><path class="aa48-2" d="M10,16h1v1h2V16h1V15h1v1h1v1h2V16h1V15h1V11H19v3H10V11H9v4h1Z"/><rect class="aa48-8" x="18" y="9" width="1" height="1"></rect></svg>