<svg xmlns="http://www.w3.org/2000/svg" viewBox="0 0 29 33"><defs><style>polygon,rect,path{shape-rendering:crispedges;}.ab289-1{fill:#7a982c;}.ab289-2{fill:#000000;}.ab289-3{fill:#003b3f;}.ab289-4{fill:#e8b795;}.ab289-5{fill:#009b97;}.ab289-6{fill:#fad000;}.ab289-7{fill:#ffffff;}.ab289-8{fill:#6e12ff;}.ab289-9{fill:#db5800;}</style></defs><path class="ab289-1" d="M0,33H6V27H7V26H8V25h2V24h1V23h1V22H11V21H10v1H9V21H8V20H7V19H8V12H9V10h1V9h1V8h7V9h1v1h1v2h1v7h1v1H21v1H20v1H19V21H18v1H17v1h1v1h1v1h2v1h1v1h1v6h6V0H0Z"/><path class="ab289-2" d="M23,27H22v6h1V27Z"/><path class="ab289-3" d="M21,31v1h1V30H21Z"/><path class="ab289-3" d="M21,28h1V27H21Z"/><rect class="ab289-2" x="21" y="26" width="1" height="1"/><path class="ab289-2" d="M21,31V27H20v6h1V31Z"/><rect class="ab289-3" x="15" y="25" width="1" height="1"/><path class="ab289-3" d="M10,31V30H9v2h1v1h1V31Z"/><path class="ab289-3" d="M19,26H18v2h1v1h1V27H19Z"/><path class="ab289-3" d="M16,31V30H15v2h1v1h1V31Z"/><rect class="ab289-3" x="14" y="29" width="1" height="1"/><path class="ab289-3" d="M14,31H13V30H12V28H11V27H10V26H9v2h1v1h1v2h1v1h1v1h1V31Z"/><path class="ab289-3" d="M19,31V30H18V28H16v1h1v2h1v1h1v1h1V31Z"/><path class="ab289-2" d="M14,32v1h1V32Z"/><path class="ab289-2" d="M14,31h1V30H14Z"/><path class="ab289-4" d="M15,24h1V23H13v1h1v1h1Z"/><path class="ab289-2" d="M10,26h1V24H10v1H8v1h2Z"/><path class="ab289-2" d="M9,31V27H8v6H9V31Z"/><path class="ab289-3" d="M7,31v2H8V31Z"/><path class="ab289-3" d="M8,29V27H7v2Z"/><rect class="ab289-2" x="7" y="26" width="1" height="1"/><path class="ab289-2" d="M7,30V27H6v6H7V30Z"/><path class="ab289-5" d="M21,29v1h1V28H21Z"/><path class="ab289-5" d="M21,32v1h1V32Z"/><path class="ab289-5" d="M19,27h2V26H19Z"/><path class="ab289-5" d="M19,28H18v2h1v1h1V29H19Z"/><path class="ab289-5" d="M17,27v1h1V27Z"/><path class="ab289-5" d="M18,32V31H17v2h2V32Z"/><path class="ab289-5" d="M15,30h1v1h1V29H15Z"/><rect class="ab289-5" x="13" y="25" width="1" height="1"/><path class="ab289-5" d="M14,32h1V31H14Z"/><rect class="ab289-5" x="15" y="32" width="1" height="1"/><path class="ab289-5" d="M14,29H13V28H12v2h1v1h1V29Z"/><rect class="ab289-5" x="10" y="26" width="1" height="1"/><rect class="ab289-5" x="11" y="27" width="1" height="1"/><path class="ab289-5" d="M12,32V31H11v2h2V32Z"/><path class="ab289-5" d="M10,30v1h1V29H10V28H9v2Z"/><path class="ab289-5" d="M9,32v1h1V32Z"/><path class="ab289-5" d="M9,27V26H8v1Z"/><path class="ab289-5" d="M7,30v1H8V29H7Z"/><path class="ab289-2" d="M20,16h1V15H20Z"/><path class="ab289-4" d="M14,13v1h1V13h3V12H17V11H16V10H13v1H12v1H11v1h3Z"/><path class="ab289-4" d="M18,20V19h1V16H16V15H13v1H10v3h1v1h1v1h1v1h3V21h1V20Zm-4-4h1v1H14Zm2,3v1H13V19H12V18h5v1Z"/><rect class="ab289-4" x="9" y="15" width="1" height="1"/><rect class="ab289-4" x="19" y="15" width="1" height="1"/><path class="ab289-2" d="M19,17v2h1V16H19Z"/><rect class="ab289-2" x="18" y="19" width="1" height="1"/><rect class="ab289-2" x="17" y="20" width="1" height="1"/><rect class="ab289-2" x="11" y="20" width="1" height="1"/><rect class="ab289-2" x="10" y="19" width="1" height="1"/><path class="ab289-2" d="M10,16H9v3h1V16Z"/><path class="ab289-2" d="M9,15H8v1H9Z"/><rect class="ab289-2" x="14" y="16" width="1" height="1"/><path class="ab289-2" d="M18,26h3V25H19V24H18v2Z"/><path class="ab289-2" d="M18,27V26H17v1Z"/><path class="ab289-6" d="M18,25H17v1h1Z"/><path class="ab289-7" d="M17,25h1V24H17Z"/><path class="ab289-2" d="M16,27v1h1V27Z"/><rect class="ab289-7" x="16" y="26" width="1" height="1"/><rect class="ab289-6" x="15" y="27" width="1" height="1"/><path class="ab289-2" d="M14,28H13v1h3V28H14Z"/><path class="ab289-7" d="M14,28h1V27H14Z"/><rect class="ab289-6" x="13" y="27" width="1" height="1"/><polygon class="ab289-2" points="14 27 15 27 16 27 16 26 15 26 15 25 14 25 14 26 13 26 13 27 14 27"/><rect class="ab289-2" x="12" y="27" width="1" height="1"/><rect class="ab289-7" x="12" y="26" width="1" height="1"/><path class="ab289-2" d="M12,25v1h1V25h1V24H13V23h3v1H15v1h1v1h1V24h1V23H17V21H16v1H13V21H12v2H11v1h1Z"/><rect class="ab289-2" x="11" y="26" width="1" height="1"/><path class="ab289-6" d="M12,25H11v1h1Z"/><path class="ab289-7" d="M12,25V24H11v1Z"/><path class="ab289-2" d="M12,18v1h1V18Z"/><path class="ab289-2" d="M17,18H16v1h1Z"/><path class="ab289-2" d="M15,18H14v1H13v1h3V19H15Z"/><path class="ab289-7" d="M14,18H13v1h1Z"/><path class="ab289-7" d="M15,18v1h1V18Z"/><path class="ab289-8" d="M20,17v2H19v1H18v1h1v1h1V21h1V20h1V19H21V16H20Z"/><path class="ab289-8" d="M9,14h1V13h1V12h1V11h1V10h3v1h1v1h1v1h1v1h1v1h1V12H20V10H19V9H18V8H11V9H10v1H9v2H8v3H9Z"/><path class="ab289-8" d="M10,20V19H9V16H8v3H7v1H8v1H9v1h1V21h1V20Z"/><path class="ab289-8" d="M11,21v1h1V21Z"/><path class="ab289-8" d="M17,22h1V21H17Z"/><path class="ab289-9" d="M10,16h3V15h1V14H10v2Z"/><path class="ab289-9" d="M15,14v1h1v1h3V14H15Z"/><path class="ab289-2" d="M15,13v1h4V13H15Z"/><path class="ab289-2" d="M14,14V13H10v1h4Z"/><path class="ab289-2" d="M20,15V14H19v1Z"/><path class="ab289-2" d="M10,14H9v1h1Z"/><path class="ab289-2" d="M14,14v1h1V14Z"/></svg>