<svg xmlns="http://www.w3.org/2000/svg" viewBox="0 0 29 33"><defs><style>polygon,rect,path{shape-rendering:crispedges;}.ba251-1{fill:#e55b35;}.ba251-2{fill:#000000;}.ba251-3{fill:#e8b795;}.ba251-4{fill:#cc2f76;}.ba251-5{fill:#cc2f76;}.ba251-6{fill:#ffffff;}.ba251-7{fill:#e2e2e2;}.ba251-8{fill:#e2e2e2;}.ba251-9{fill:#508e91;}</style></defs><path class="ba251-1" d="M0,33H6V27H7V26H8V25h2V24h2V21H11V20H10V19H9V16H8V14H9V11h1V10h1V9h7v1h1v1h1v3h1v2H20v3H19v1H18v1H17v3h2v1h2v1h1v1h1v6h6V0H0Z"/><path class="ba251-2" d="M23,27H22v6h1V27Z"/><rect class="ba251-2" x="21" y="26" width="1" height="1"/><path class="ba251-3" d="M22,27H21v6h1V27Z"/><rect class="ba251-3" x="20" y="26" width="1" height="1"/><path class="ba251-2" d="M21,27H20v6h1V27Z"/><path class="ba251-2" d="M20,26h1V25H19v1Z"/><path class="ba251-4" d="M20,27V26H19V25H18v1H17v1H16v1H13V27H12V26H11V25H10v1H9v7h1V29h1v4h1V29h3v4h1V29h3v1H17v2h1V31h1v2h1V27Z"/><rect class="ba251-4" x="13" y="30" width="1" height="2"/><path class="ba251-2" d="M18,26V25h1V24H17v2Z"/><rect class="ba251-2" x="16" y="26" width="1" height="1"/><path class="ba251-2" d="M13,27v1h3V27H13Z"/><path class="ba251-2" d="M13,23h3v1h1V21H16v1H13V21H12v3h1Z"/><path class="ba251-3" d="M13,26v1h3V26h1V24H16V23H13v1H12v2Z"/><rect class="ba251-2" x="12" y="26" width="1" height="1"/><path class="ba251-2" d="M11,26h1V24H10v1h1Z"/><path class="ba251-2" d="M10,26V25H8v1h2Z"/><path class="ba251-3" d="M9,27V26H8v1Z"/><path class="ba251-2" d="M9,27H8v6H9V27Z"/><rect class="ba251-2" x="7" y="26" width="1" height="1"/><path class="ba251-3" d="M8,27H7v6H8V27Z"/><path class="ba251-2" d="M7,27H6v6H7V27Z"/><path class="ba251-5" d="M12,29v4h3V29Zm2,3H13V30h1Z"/><path class="ba251-5" d="M11,29H10v4h1V29Z"/><path class="ba251-5" d="M18,31v1H17V30h2V29H16v4h3V31Z"/><path class="ba251-2" d="M20,16h1V15H20Z"/><path class="ba251-2" d="M19,14h1V11H19v3Z"/><path class="ba251-3" d="M12,19V18h5v1h2V17H16V16H15v1H14V16H13v1H10v2h2Z"/><rect class="ba251-3" x="14" y="15" width="1" height="1"/><path class="ba251-3" d="M19,16V15H16v1h3Z"/><path class="ba251-3" d="M12,12v1h1v1h3V12h2v1h1V11H18V10H11v1H10v1Z"/><path class="ba251-3" d="M12,15H10v1h3V15Z"/><rect class="ba251-3" x="12" y="19" width="1" height="1"/><rect class="ba251-3" x="15" y="20" width="1" height="1"/><rect class="ba251-3" x="16" y="19" width="1" height="1"/><rect class="ba251-3" x="13" y="20" width="1" height="1"/><path class="ba251-2" d="M19,17v2h1V16H19Z"/><rect class="ba251-2" x="18" y="10" width="1" height="1"/><path class="ba251-2" d="M18,20h1V19H18Z"/><rect class="ba251-2" x="17" y="20" width="1" height="1"/><path class="ba251-2" d="M18,10V9H11v1h7Z"/><rect class="ba251-2" x="11" y="20" width="1" height="1"/><rect class="ba251-2" x="10" y="10" width="1" height="1"/><path class="ba251-2" d="M10,19v1h1V19Z"/><path class="ba251-2" d="M10,13V11H9v3h1Z"/><path class="ba251-2" d="M10,16H9v3h1V16Z"/><path class="ba251-2" d="M8,15v1H9V15Z"/><rect class="ba251-2" x="14" y="16" width="1" height="1"/><rect class="ba251-6" x="12" y="14" width="1" height="1"/><path class="ba251-6" d="M11,14H10v1h1Z"/><path class="ba251-6" d="M18,15h1V14H18Z"/><path class="ba251-6" d="M17,15V14H16v1Z"/><path class="ba251-2" d="M11,14v1h1V14Z"/><path class="ba251-2" d="M17,14v1h1V14Z"/><path class="ba251-7" d="M18,12H16v1h2Z"/><path class="ba251-7" d="M12,12H10v1h2Z"/><path class="ba251-8" d="M17,19v1h1V19Z"/><rect class="ba251-8" x="16" y="20" width="1" height="1"/><path class="ba251-8" d="M15,20H14v1H13v1h3V21H15Z"/><path class="ba251-8" d="M14,19h2V18H12v1h2Z"/><rect class="ba251-8" x="12" y="20" width="1" height="1"/><path class="ba251-8" d="M12,19H11v1h1Z"/><path class="ba251-2" d="M15,20h1V19H13v1h2Z"/><path class="ba251-2" d="M17,19V18H16v1Z"/><path class="ba251-9" d="M19,15v1h1V15h1V14H19Z"/><path class="ba251-9" d="M18,16H16v1h3V16Z"/><path class="ba251-9" d="M12,14h1V13H10v1h2Z"/><path class="ba251-9" d="M18,14h1V13H16v1h2Z"/><path class="ba251-9" d="M16,14H13v2h1V15h1v1h1V14Z"/><path class="ba251-9" d="M10,16v1h3V16H10Z"/><path class="ba251-9" d="M10,15V14H8v1H9v1h1Z"/></svg>