<svg xmlns="http://www.w3.org/2000/svg" viewBox="0 0 29 33"><defs><style>polygon,rect,path{shape-rendering:crispedges;}.wa120-1{fill:#397d98;}.wa120-2{fill:#000000;}.wa120-3{fill:#9b8100;}.wa120-4{fill:#efcaaf;}.wa120-5{fill:#ffffff;}.wa120-6{fill:#9b8100;}.wa120-7{fill:#9b8100;}.wa120-8{fill:#c8a715;}.wa120-9{fill:#e70059;}.wa120-10{fill:#cc3232;}</style></defs><path class="wa120-1" d="M0,33H8V32H6V31H5V23H4V20H5V19H7v1H8v1H9v2H8v2h2V20H9V18H8V12H9V11h1V10h1V9h7v1h1v1h1v2h1v5H20v2H19v5h2v1h1v1h1v6h6V0H0Z"/><path class="wa120-2" d="M6,24V23H5v8H6V24Z"/><path class="wa120-2" d="M23,27H22v6h1V27Z"/><path class="wa120-3" d="M22,27H21v6h1V27Z"/><rect class="wa120-2" x="21" y="26" width="1" height="1"/><path class="wa120-2" d="M21,27H20v4H14V27H13v4H9V27H8V26h2V25H8V23H7v8H6v1H8v1H9V32H20v1h1V27Z"/><path class="wa120-3" d="M19,32H9v1H20V32Z"/><path class="wa120-2" d="M20,26h1V25H19v1Z"/><path class="wa120-2" d="M18,25h1V24H18Z"/><path class="wa120-3" d="M18,24V22H17v3H15v2H14v4h6V27h1V26H19V25H18Z"/><path class="wa120-2" d="M15,24v1h1V24Z"/><path class="wa120-2" d="M15,26V25H14v2h1Z"/><rect class="wa120-2" x="13" y="24" width="1" height="1"/><path class="wa120-4" d="M15,24h1V23H13v1h1v1h1Z"/><path class="wa120-2" d="M11,24H10v1h1Z"/><path class="wa120-3" d="M9,26H8v1H9v4h4V27h1V25H12V22H11v3H10v1Z"/><path class="wa120-3" d="M7,30V24H6v7H7Z"/><path class="wa120-4" d="M12,12V11H11v2h1Z"/><rect class="wa120-4" x="19" y="15" width="1" height="1"/><path class="wa120-4" d="M18,12H16v1h2Z"/><path class="wa120-4" d="M14,20H13v1h1v1h1V21h1V20H14Z"/><rect class="wa120-4" x="9" y="15" width="1" height="1"/><path class="wa120-4" d="M18,15H17v2H16V15H15V11H14v1H13v2h1v2h1v1H14V16H13V15H11v4h1V18h5v1h1V15Z"/><rect class="wa120-2" x="19" y="16" width="1" height="1"/><rect class="wa120-2" x="9" y="14" width="1" height="1"/><rect class="wa120-2" x="9" y="16" width="1" height="1"/><rect class="wa120-2" x="14" y="16" width="1" height="1"/><path class="wa120-5" d="M13,15V14H12v1Z"/><rect class="wa120-5" x="16" y="14" width="1" height="1"/><path class="wa120-2" d="M12,14H11v1h1Z"/><rect class="wa120-2" x="17" y="14" width="1" height="1"/><rect class="wa120-6" x="11" y="13" width="1" height="1"/><polygon class="wa120-6" points="18 14 18 13 16 13 16 14 17 14 18 14"/><path class="wa120-7" d="M12,22v1h5V22h2V18H18v1H16v2H15v1H14V21H13V19H11V18H10v4h2Z"/><rect class="wa120-7" x="19" y="17" width="1" height="1"/><rect class="wa120-7" x="9" y="17" width="1" height="1"/><path class="wa120-8" d="M18,23h1V22H18Z"/><path class="wa120-7" d="M18,24h1V23H18Z"/><path class="wa120-8" d="M17,24V23H16v1Z"/><path class="wa120-7" d="M16,25h1V24H16Z"/><path class="wa120-8" d="M13,23H12v1h1Z"/><path class="wa120-7" d="M12,24v1h1V24Z"/><path class="wa120-8" d="M11,22H10v1h1Z"/><path class="wa120-7" d="M11,23H10v1h1Z"/><path class="wa120-2" d="M12,18v1h1V18Z"/><path class="wa120-2" d="M16,18v1h1V18Z"/><path class="wa120-2" d="M15,20h1V19H15Z"/><path class="wa120-2" d="M15,19V18H14v1Z"/><path class="wa120-2" d="M14,19H13v1h1Z"/><path class="wa120-5" d="M14,18H13v1h1Z"/><path class="wa120-5" d="M15,18v1h1V18Z"/><path class="wa120-9" d="M14,20h1V19H14Z"/><path class="wa120-2" d="M9,23V21H8v2Z"/><rect class="wa120-2" x="7" y="20" width="1" height="1"/><rect class="wa120-2" x="5" y="19" width="2" height="1"/><path class="wa120-2" d="M5,20H4v3H5V20Z"/><path class="wa120-4" d="M6,24H7V23H8V21H7V20H5v3H6Z"/><path class="wa120-10" d="M9,16V14h1v4h1V11h1v3h1V12h1V11h1v4h1V12h2v6h1V15h1v3h1V13H20V11H19V10H18V9H11v1H10v1H9v1H8v6H9V16Z"/><path class="wa120-10" d="M9,18v2h1V18Z"/><path class="wa120-10" d="M13,16h1V14H13v2Z"/><path class="wa120-10" d="M17,17V15H16v2Z"/><path class="wa120-10" d="M19,19v1h1V18H19Z"/></svg>