<svg xmlns="http://www.w3.org/2000/svg" viewBox="0 0 29 33"><defs><style>polygon,rect,path{shape-rendering:crispedges;}.ib204-1{fill:#d14646;}.ib204-2{fill:#000000;}.ib204-3{fill:#a56e49;}.ib204-4{fill:#00686d;}.ib204-5{fill:#00686d;}.ib204-6{fill:#b23b00;}</style></defs><rect class="ib204-1" x="14" y="17" width="1"/><path class="ib204-1" d="M6,27H7V26H8V25h2V24h2V21H9V20H8V19H9V16H8V15H9V13H8V9H9V8h1V7h1V6h7V7h1V8h1V9h1v4H20v2h1v1H20v3h1v1H20v1H17v3h2v1h2v1h1v1h1v6h6V0H0V33H6V27Z"/><path class="ib204-2" d="M23,27H22v6h1V27Z"/><path class="ib204-3" d="M22,27H21v6h1V27Z"/><rect class="ib204-2" x="21" y="26" width="1" height="1"/><path class="ib204-2" d="M21,27H20v6h1V27Z"/><path class="ib204-3" d="M20,27h1V26H19V25H17V24H16V23H13v1H12v1H10v1H8v1H9v6h5V29h1v4h5V27Zm-8,2H11V28h1Zm6,0H17V28h1Z"/><path class="ib204-2" d="M20,26h1V25H19v1Z"/><rect class="ib204-2" x="17" y="28" width="1" height="1"/><path class="ib204-2" d="M18,25h1V24H17v1Z"/><path class="ib204-2" d="M15,29H14v4h1V29Z"/><path class="ib204-2" d="M13,23h3v1h1V21H16v1H13V21H12v3h1Z"/><rect class="ib204-2" x="11" y="28" width="1" height="1"/><path class="ib204-2" d="M12,24H10v1h2Z"/><path class="ib204-2" d="M10,25H8v1h2Z"/><path class="ib204-2" d="M9,27H8v6H9V27Z"/><path class="ib204-3" d="M8,27H7v6H8V27Z"/><rect class="ib204-2" x="7" y="26" width="1" height="1"/><path class="ib204-2" d="M7,32V27H6v6H7Z"/><path class="ib204-3" d="M13,21v1h3V21h1V19h1V18h1V16h1V15H18v1H16V15H15V14H14v1H13v1H11V15H9v1h1v2h1v1h1V18h1v1h3v1H13V19H12v2Zm2-5v1H14V16h1Z"/><path class="ib204-3" d="M16,13V12h2V11H11v1H10v1h8v1h1V13Z"/><path class="ib204-2" d="M17,20v1h1V20Z"/><path class="ib204-2" d="M11,20v1h1V20Z"/><polygon class="ib204-2" points="14 16 14 17 15 17 15 16 15 16 14 16 14 16"/><polygon class="ib204-4" points="16 13 19 13 19 12 18 12 18 12 16 12 16 13"/><path class="ib204-4" d="M10,14h1V13H10Z"/><path class="ib204-5" d="M19,16v2H18v1H17v1h1v1h2V20h1V19H20V16Z"/><path class="ib204-5" d="M12,20V19H11V18H10V16H9v3H8v1H9v1h2V20Z"/><rect class="ib204-2" x="13" y="19" width="3" height="1"/><rect class="ib204-2" x="12" y="18" width="1" height="1"/><path class="ib204-6" d="M10,13V12h1V11h7v1h1v2h1V13h1V9H20V8H19V7H18V6H11V7H10V8H9V9H8v4H9v1h1Z"/><path class="ib204-2" d="M10,15h1v1h2V15h1V14h1v1h1v1h2V15h2v1h1V15H20V14H18V13H11v1H9v1H8v1H9V15Z"/></svg>