<svg xmlns="http://www.w3.org/2000/svg" viewBox="0 0 29 33"><defs><style>polygon,rect,path{shape-rendering:crispedges;}.xa288-1{fill:#b4bd09;}.xa288-2{fill:#ffffff;}.xa288-3{fill:#000000;}.xa288-4{fill:#ce8452;}.xa288-5{fill:#4fdb7d;}.xa288-6{fill:#ffffff;}.xa288-7{fill:#000000;}.xa288-8{fill:#fafafa;}.xa288-9{fill:#ff791f;}</style></defs><rect class="xa288-1" x="18" y="21" width="1" height="1"/><rect class="xa288-1" x="10" y="21" width="1" height="1"/><path class="xa288-1" d="M0,33H6V27H7V26H8V25h2V22H9V21H8V20H9V17H8V12H9V10h1V9h1V8h7V9h1v1h1v2h1v6H20v2h4v1h1v1h1v4H25v1H24v1H23v5h6V0H0Z"/><path class="xa288-2" d="M18,30V28H17V27H16V25H15v3h1v1h1v2h2V30Z"/><path class="xa288-2" d="M15,30V28H14v3h2V30Z"/><rect class="xa288-2" x="17" y="22" width="1" height="1"/><path class="xa288-2" d="M19,26V25H18V24H16v1h1v1h1v2h1v1h1V27H19Z"/><path class="xa288-2" d="M22,31V30H21v2h1Z"/><rect class="xa288-2" x="10" y="32" width="1" height="1"/><rect class="xa288-2" x="13" y="32" width="1" height="1"/><rect class="xa288-2" x="16" y="32" width="1" height="1"/><rect class="xa288-2" x="19" y="32" width="1" height="1"/><path class="xa288-2" d="M7,31v2H8V31Z"/><path class="xa288-2" d="M8,29V27H7v2Z"/><path class="xa288-2" d="M12,25V24H11v2h1v2h1V25Z"/><rect class="xa288-2" x="11" y="22" width="1" height="1"/><path class="xa288-2" d="M12,29V28H11V27H10V26H9v2h1v1h1v2h2V30H12Z"/><rect class="xa288-2" x="9" y="30" width="1" height="1"/><path class="xa288-3" d="M23,28h1V27H20v4H14V27H13v4H9V27H8v6H9V32H20v1h1V28h1v5h1V28Z"/><path class="xa288-3" d="M18,23v2h1V22H18Z"/><rect class="xa288-3" x="15" y="24" width="1" height="1"/><path class="xa288-3" d="M15,26V25H14v2h1Z"/><rect class="xa288-3" x="13" y="24" width="1" height="1"/><path class="xa288-4" d="M15,23H13v1h1v1h1V24h1V23Z"/><path class="xa288-3" d="M11,24V22H10v3h1Z"/><path class="xa288-3" d="M10,26V25H8v1h2Z"/><rect class="xa288-3" x="7" y="26" width="1" height="1"/><path class="xa288-3" d="M7,30V27H6v6H7V30Z"/><path class="xa288-4" d="M17,14h2V13H17Z"/><path class="xa288-4" d="M12,21h1v1h3V21h1V20h1V19h1V16h1V15H16V13h1V11H16V10H15v1H14v1H13v1H12v1h1v1H10v4h1v1h1Zm2-5h1v1H14Zm-2,2h5v1H16v1H13V19H12Z"/><path class="xa288-3" d="M19,16v3h1V16Z"/><rect class="xa288-3" x="18" y="19" width="1" height="1"/><path class="xa288-3" d="M12,23v1h1V23h3v1h1V22h1V20H17v1H16v1H13V21H12V20H11v2h1Z"/><rect class="xa288-3" x="10" y="19" width="1" height="1"/><path class="xa288-3" d="M10,18H9v1h1Z"/><rect class="xa288-3" x="14" y="16" width="1" height="1"/><path class="xa288-5" d="M22,29V28H21v2h1Z"/><path class="xa288-5" d="M21,32v1h1V32Z"/><path class="xa288-5" d="M19,28H18v2h1v1h1V29H19Z"/><path class="xa288-5" d="M17,27v1h1V26H17V25H16v2Z"/><path class="xa288-5" d="M18,32H17v1h2V32Z"/><path class="xa288-5" d="M16,29V28H15v2h1v1h1V29Z"/><path class="xa288-5" d="M15,27H14v1h1Z"/><path class="xa288-5" d="M13,25v2h1V25Z"/><path class="xa288-5" d="M15,32H14v1h2V32Z"/><path class="xa288-5" d="M12,29v1h1V28H12Z"/><rect class="xa288-5" x="12" y="24" width="1" height="1"/><path class="xa288-5" d="M12,23H11v1h1Z"/><path class="xa288-5" d="M17,23v1h1V23Z"/><path class="xa288-5" d="M10,27h1v1h1V26H11V25H10v2Z"/><path class="xa288-5" d="M12,32H11v1h2V32Z"/><path class="xa288-5" d="M10,29V28H9v2h1v1h1V29Z"/><path class="xa288-5" d="M9,32v1h1V32Z"/><path class="xa288-5" d="M9,27V26H8v1Z"/><path class="xa288-5" d="M7,30v1H8V29H7Z"/><path class="xa288-6" d="M13,15V14H12v1Z"/><path class="xa288-6" d="M11,14H10v1h1Z"/><path class="xa288-6" d="M18,15h1V14H18Z"/><path class="xa288-6" d="M16,14v1h1V14Z"/><path class="xa288-3" d="M12,15V14H11v1Z"/><path class="xa288-3" d="M17,14v1h1V14Z"/><path class="xa288-7" d="M17,13H16v1h1Z"/><path class="xa288-7" d="M18,13V12H17v1Z"/><path class="xa288-3" d="M13,18H12v1h1Z"/><path class="xa288-3" d="M17,19V18H16v1Z"/><path class="xa288-3" d="M13,19v1h3V19H15V18H14v1Z"/><path class="xa288-6" d="M14,19V18H13v1Z"/><path class="xa288-6" d="M16,19V18H15v1Z"/><rect class="xa288-8" x="23" y="23" width="1" height="1"/><rect class="xa288-8" x="20" y="23" width="1" height="1"/><path class="xa288-4" d="M25,24H23V22H22V21H20v2h2v1H20v2H19v1h5V26H21V25h3v1h1V24Z"/><path class="xa288-3" d="M23.25,25H21v1h3V25Z"/><path class="xa288-3" d="M22,24V23H21v1Z"/><path class="xa288-3" d="M25,24V23H24v1Z"/><rect class="xa288-3" x="24" y="26" width="1" height="1"/><path class="xa288-3" d="M25,26h1V25H25Z"/><path class="xa288-3" d="M20,26V25H19v1Z"/><path class="xa288-9" d="M19,20H18v1h1v4h1V21h2v1h1v1h2v2h1V22H25V21H24V20H20V19H19Z"/><path class="xa288-9" d="M11,21V20H10V19H9v1H8v1H9v1h1V21Z"/><path class="xa288-9" d="M10,17V14h2V13h1V12h1V11h1V10h1v1h1v1h1v1h1v2h1v3h1V12H20V10H19V9H18V8H11V9H10v1H9v2H8v5H9v1h1Z"/></svg>