<svg xmlns="http://www.w3.org/2000/svg" viewBox="0 0 29 33"><defs><style>polygon,rect,path{shape-rendering:crispedges;}.gb179-1{fill:#db5a8e;}.gb179-2{fill:#000000;}.gb179-3{fill:#8c7850;}.gb179-4{fill:#a0688d;}.gb179-5{fill:#ce8452;}.gb179-6{fill:#90a2a3;}.gb179-7{fill:#ffffff;}.gb179-8{fill:#473a35;}.gb179-9{fill:#fad000;}.gb179-10{fill:#e70059;}.gb179-11{fill:#6c9302;}.gb179-12{fill:#efc075;}.gb179-13{fill:#2aa8e8;}.gb179-14{fill:#d8aa68;}.gb179-15{fill:#563e1b;}</style></defs><path class="gb179-1" d="M21,21H20v1H19V21H18v2h1v1h1v1h1V21Z"/><path class="gb179-1" d="M6,32V28H5V27H4V25H5V24H8v1H9V24h1V23h1V21H10v1H9V21H8V20H7V19H8V12H9V10h1V9h1V8h7V9h1v1h1v2h1v2h1v8h1v1h1v8H23v1H22v1h7V0H0V33H6Z"/><path class="gb179-2" d="M7,27H5v1H6v5H7V27Z"/><path class="gb179-3" d="M8,27H7v6H8V27Z"/><path class="gb179-2" d="M9,29h1V28h2V27H9V25H8v8H9V29Z"/><path class="gb179-3" d="M12,32V31H11V30H10V29H9v4h4V32Z"/><path class="gb179-3" d="M10,26v1h2V26H11V25H9v1Z"/><path class="gb179-3" d="M12,28H10v1h1v1h1v1h1V27H12Z"/><rect class="gb179-2" x="10" y="29" width="1" height="1"/><rect class="gb179-2" x="11" y="30" width="1" height="1"/><path class="gb179-2" d="M17,32V31H16V27H13v4H12v1h1v1h1V28h1v5h1V32Z"/><path class="gb179-4" d="M15,28H14v5h1V28Z"/><path class="gb179-5" d="M16,25V23H13v2h3Z"/><path class="gb179-3" d="M20,29H19v1H18v1H17v1H16v1h4V29Z"/><rect class="gb179-2" x="17" y="30" width="1" height="1"/><rect class="gb179-2" x="18" y="29" width="1" height="1"/><path class="gb179-2" d="M19,24V23H18v2h2V24Z"/><path class="gb179-3" d="M16,28v3h1V30h1V29h1V28H17V27H16Z"/><path class="gb179-3" d="M18,26H17v1h2V26h1V25H18Z"/><path class="gb179-2" d="M21,29V25H20v2H17v1h2v1h1v4h1V29Z"/><rect class="gb179-2" x="22" y="31" width="1" height="1"/><path class="gb179-3" d="M23,25H22v6h1V25Z"/><path class="gb179-2" d="M23,29v2h1V23H23v6Z"/><path class="gb179-6" d="M19,27h1V26H19Z"/><path class="gb179-6" d="M9,26v1h1V26Z"/><rect class="gb179-2" x="20" y="15" width="1" height="1"/><path class="gb179-5" d="M18,20V19h1V16h1V15H16V13h1V11H16V10H13v1H12v1h1v1H11v1h2v1H9v1h1v3h1v1h1v1h1v1h3V21h1V20Zm-4-4h1v1H14Zm2,3v1H13V19H12V18h5v1Z"/><rect class="gb179-5" x="17" y="13" width="1" height="1"/><path class="gb179-2" d="M20,18V16H19v3h1Z"/><rect class="gb179-2" x="18" y="19" width="1" height="1"/><rect class="gb179-2" x="17" y="20" width="1" height="1"/><rect class="gb179-2" x="11" y="20" width="1" height="1"/><rect class="gb179-2" x="10" y="19" width="1" height="1"/><path class="gb179-2" d="M10,14H9v1h1Z"/><path class="gb179-2" d="M10,16H9v3h1V16Z"/><path class="gb179-2" d="M9,15H8v1H9Z"/><rect class="gb179-2" x="14" y="16" width="1" height="1"/><path class="gb179-7" d="M11,15V14H10v1Z"/><path class="gb179-7" d="M16,14v1h1V14Z"/><path class="gb179-2" d="M12,15h1V14H11v1Z"/><path class="gb179-2" d="M17,15h3V14H17Z"/><path class="gb179-8" d="M13,12H11v1h2Z"/><path class="gb179-8" d="M17,13H16v1h1Z"/><path class="gb179-8" d="M18,13V12H17v1Z"/><rect class="gb179-2" x="17" y="25" width="1" height="1"/><path class="gb179-9" d="M18,24H17v1h1Z"/><path class="gb179-7" d="M18,23H17v1h1Z"/><rect class="gb179-2" x="16" y="26" width="1" height="1"/><rect class="gb179-7" x="16" y="25" width="1" height="1"/><path class="gb179-9" d="M15,26v1h1V26Z"/><path class="gb179-7" d="M14,26v1h1V26Z"/><path class="gb179-9" d="M13,26v1h1V26Z"/><path class="gb179-2" d="M14,26h2V25H13v1Z"/><rect class="gb179-2" x="12" y="26" width="1" height="1"/><rect class="gb179-7" x="12" y="25" width="1" height="1"/><path class="gb179-2" d="M12,24v1h1V23h3v2h1V23h1V22H17V21H16v1H13V21H12v1H11v1h1Z"/><rect class="gb179-2" x="11" y="25" width="1" height="1"/><rect class="gb179-9" x="11" y="24" width="1" height="1"/><rect class="gb179-7" x="11" y="23" width="1" height="1"/><path class="gb179-2" d="M11,24V23H10v1H9v1h2Z"/><path class="gb179-2" d="M12,18v1h1V18Z"/><path class="gb179-2" d="M17,18H16v1h1Z"/><path class="gb179-2" d="M15,20h1V19H15Z"/><path class="gb179-2" d="M15,19V18H14v1Z"/><path class="gb179-2" d="M13,19v1h1V19Z"/><path class="gb179-7" d="M14,18H13v1h1Z"/><path class="gb179-7" d="M15,18v1h1V18Z"/><path class="gb179-10" d="M14,19v1h1V19Z"/><path class="gb179-11" d="M20,17v2H19v1H18v1h1v1h1V21h1V16H20Z"/><path class="gb179-11" d="M9,14h2V12h1V11h1V10h3v1h1v1h1v2h2v1h1V12H20V10H19V9H18V8H11V9H10v1H9v2H8v3H9Z"/><path class="gb179-11" d="M10,20V19H9V16H8v3H7v1H8v1H9v1h1V21h1V20Z"/><path class="gb179-11" d="M12,21H11v1h1Z"/><path class="gb179-11" d="M17,21v1h1V21Z"/><path class="gb179-12" d="M21,27v2h1V27Z"/><path class="gb179-12" d="M21,20v1h1V19H21Z"/><path class="gb179-12" d="M21,16v1h1V15H21Z"/><path class="gb179-13" d="M22,15V14H21v1Z"/><path class="gb179-5" d="M21,23v2h2V23H21Z"/><path class="gb179-14" d="M22,26V25H21v2h1Z"/><path class="gb179-14" d="M21,23h1V21H21Z"/><path class="gb179-14" d="M21,18v1h1V17H21Z"/><path class="gb179-7" d="M7,26H8V24H5v1H7Z"/><path class="gb179-5" d="M8,27V26H7V25H5v2H8Z"/><path class="gb179-15" d="M22,31V29H21v4h1V31Z"/><path class="gb179-2" d="M23,23V22H22v1Z"/><path class="gb179-2" d="M4,25v2H5V25Z"/></svg>