<svg xmlns="http://www.w3.org/2000/svg" viewBox="0 0 29 33"><defs><style>polygon,rect,path{shape-rendering:crispedges;}.ea255-1{fill:#6b4f99;}.ea255-2{fill:#000000;}.ea255-3{fill:#ffb38d;}.ea255-4{fill:#6d3e35;}.ea255-5{fill:#ffb38d;}.ea255-6{fill:#b23b00;}.ea255-7{fill:#990000;}.ea255-8{fill:#c8a715;}.ea255-9{fill:#4922aa;}.ea255-10{fill:#ffffff;}.ea255-11{fill:#cc3232;}</style></defs><path class="ea255-1" d="M18,24V22H17v2Z"/><path class="ea255-1" d="M12,22H11v2h1V22Z"/><path class="ea255-1" d="M0,33H6V27H7V26H8V25h2V20H9V16H8V15H9V14H8V11H9V10h1V9h2V8h5V9h1v1h1v1h1v4h1v1H20v4H19v5h2v1h1v1h1v6h6V0H0Z"/><path class="ea255-2" d="M23,27H22v3H21V27H20v6h1V31h1v2h1V27Z"/><rect class="ea255-2" x="21" y="26" width="1" height="1"/><path class="ea255-3" d="M21,28v2h1V27H21Z"/><path class="ea255-4" d="M21,31v2h1V31Z"/><path class="ea255-2" d="M20,26h1V25H19v1Z"/><path class="ea255-3" d="M19,32V31H18v1H17V29h1V28h1v1h1V27h1V26H19V25H17v1H16v1H13V26H12V25H10v1H8v1H9v2h1V28h1v1h1v3H11V31H10v1H9v1H20V32Zm-3-2v1H15v1H13V28h2v1h1Z"/><path class="ea255-3" d="M15,29H14v2h1V29Z"/><rect class="ea255-3" x="10" y="29" width="1" height="1"/><rect class="ea255-3" x="18" y="29" width="1" height="1"/><path class="ea255-2" d="M17,24v1h2V24H17Z"/><rect class="ea255-2" x="16" y="25" width="1" height="1"/><path class="ea255-2" d="M13,26v1h3V26H13Z"/><path class="ea255-4" d="M16,24V23H13v3h3V24Z"/><path class="ea255-2" d="M12,25v1h1V25Z"/><path class="ea255-2" d="M12,24H10v1h2Z"/><path class="ea255-2" d="M10,25H8v1h2Z"/><path class="ea255-2" d="M9,31V27H8v3H7V27H6v6H7V31H8v2H9V31Z"/><rect class="ea255-2" x="7" y="26" width="1" height="1"/><path class="ea255-3" d="M7,30H8V27H7v3Z"/><path class="ea255-4" d="M7,31v2H8V31Z"/><path class="ea255-5" d="M19,30H18V29H17v3h1V31h1v1h1V29H19Z"/><rect class="ea255-5" x="18" y="28" width="1" height="1"/><path class="ea255-5" d="M15,30v1h1V29H15Z"/><path class="ea255-5" d="M14,30V29h1V28H13v4h2V31H14Z"/><path class="ea255-5" d="M9,32h1V31h1v1h1V29H11v1H10V29H9v3Z"/><rect class="ea255-5" x="10" y="28" width="1" height="1"/><rect class="ea255-2" x="20" y="15" width="1" height="1"/><rect class="ea255-4" x="9" y="15" width="1" height="1"/><rect class="ea255-4" x="19" y="15" width="1" height="1"/><path class="ea255-4" d="M14,14h2V13H13v1Z"/><path class="ea255-4" d="M18,16v1H16V16H15v1H14V16H13v1H11V16H10v2h1v1h1V18h2v1h1V18h2v1h1V18h1V16Z"/><rect class="ea255-4" x="18" y="13" width="1" height="1"/><polygon class="ea255-4" points="13 21 14 21 14 22 15 22 15 21 16 21 16 20 13 20 13 21"/><path class="ea255-4" d="M14,10v1h4V10H14Z"/><rect class="ea255-4" x="14" y="15" width="1" height="1"/><path class="ea255-2" d="M19,17h1V16H19Z"/><path class="ea255-2" d="M10,16H9v1h1Z"/><rect class="ea255-2" x="8" y="15" width="1" height="1"/><rect class="ea255-2" x="14" y="16" width="1" height="1"/><rect class="ea255-6" x="10" y="13" width="1" height="1"/><path class="ea255-7" d="M12,22v1h5V22h2V20h1V17H19v1H18v1H16v2H15v1H14V21H13V19h1V18H12v1H11V18H10V17H9v3h1v2h2Z"/><path class="ea255-7" d="M15,18v1h1V18Z"/><path class="ea255-8" d="M18,23h1V22H18Z"/><path class="ea255-7" d="M18,24h1V23H18Z"/><path class="ea255-8" d="M17,24V23H16v1Z"/><path class="ea255-7" d="M16,24v1h1V24Z"/><path class="ea255-8" d="M13,23H12v1h1Z"/><path class="ea255-7" d="M13,24H12v1h1Z"/><path class="ea255-8" d="M11,22H10v1h1Z"/><path class="ea255-7" d="M11,23H10v1h1Z"/><path class="ea255-2" d="M14,19H13v1h3V19H14Z"/><path class="ea255-2" d="M16,18v1h1V18Z"/><path class="ea255-9" d="M19,14v1h1V13H19Z"/><rect class="ea255-9" x="18" y="10" width="1" height="1"/><path class="ea255-9" d="M14,11V10h4V9H17V8H12V9H10v1H9v1h5Z"/><path class="ea255-9" d="M10,14V13H9V11H8v3H9v1h1Z"/><path class="ea255-10" d="M12,14h1V13H11v1Z"/><path class="ea255-10" d="M11,17h2V16H11Z"/><polygon class="ea255-10" points="11 15 11 14 10 14 10 15 10 16 11 16 11 15"/><path class="ea255-2" d="M12,14H11v2h2V14Z"/><polygon class="ea255-10" points="18 15 18 16 19 16 19 15 19 14 18 14 18 15"/><path class="ea255-10" d="M17,14h1V13H16v1Z"/><path class="ea255-10" d="M16,17h2V16H16Z"/><path class="ea255-10" d="M14,14H13v2h1V15h1v1h1V14Z"/><path class="ea255-2" d="M18,14H16v2h2V14Z"/><path class="ea255-10" d="M11,12h9V11H9v1Z"/><path class="ea255-11" d="M11,12H9v1H20V12H11Z"/></svg>