<svg xmlns="http://www.w3.org/2000/svg" viewBox="0 0 29 33"><defs><style>polygon,rect,path{shape-rendering:crispedges;}.za220-1{fill:#e55b35;}.za220-2{fill:#000000;}.za220-3{fill:#99ce09;}.za220-4{fill:#b2622b;}.za220-5{fill:#6d5800;}.za220-6{fill:#ffffff;}.za220-7{fill:#7f5018;}.za220-8{fill:#0068ff;}</style></defs><path class="za220-1" d="M19,16h0v3h0V16Z"/><rect class="za220-1" x="14" y="17" width="1"/><rect class="za220-1" x="20" y="15" height="1"/><path class="za220-1" d="M0,33H6V27H7V26H8V25h2V24h1V23h1V21H11V20H10V19H9V16H8V15H9V14H8V12H9V11H8V10H9V9H8V8h2V7h1V8h1V6h1V7h1V8h1V7h1V6h1V7h1V8h1V9h2v2H20v1h1v1H20v1h1v1h0v1H20v3H19v1H18v1H17v2h1v1h1v1h2v1h1v1h1v6h6V0H0ZM19,7h1V8H19Z"/><path class="za220-2" d="M23,27H22v6h1V27Z"/><path class="za220-3" d="M21,30v1h1V29H21Z"/><path class="za220-3" d="M21,32v1h1V32Z"/><path class="za220-3" d="M21,28h1V27H21Z"/><rect class="za220-2" x="21" y="26" width="1" height="1"/><path class="za220-2" d="M21,31V27H20v6h1V31Z"/><rect class="za220-3" x="9" y="32" width="1" height="1"/><path class="za220-3" d="M19,32v1h1V32Z"/><path class="za220-3" d="M17,32V31h1V30h1v1h1V29H19V28h1V27h1V26H19v1H18V26H15v1H14V26H11v1H10V26H8v1H9v1h1v1H9v2h1V30h1v1h1v1H11v1h3V32H13V31h1V30h1v1h1v1H15v1h3V32Zm-2-3H13v1H12V29H11V28h1V27h1v1h3V27h1v1h1v1H17v1H16V29Z"/><path class="za220-2" d="M20,26h1V25H19v1Z"/><rect class="za220-3" x="16" y="24" width="1" height="1"/><rect class="za220-2" x="15" y="24" width="1" height="1"/><rect class="za220-2" x="14" y="32" width="1" height="1"/><rect class="za220-2" x="14" y="30" width="1" height="1"/><path class="za220-2" d="M14,28v1h1V28Z"/><path class="za220-2" d="M14,25v2h1V25Z"/><rect class="za220-2" x="13" y="24" width="1" height="1"/><path class="za220-4" d="M14,25h1V24h1V23H13v1h1Z"/><rect class="za220-3" x="12" y="24" width="1" height="1"/><path class="za220-2" d="M11,26h2V25H12V24h1V23h3v1h1v1H16v1h2V25h1V24H18V23H17V21H16v1H13V21H12v2H11v1H10v1h1Z"/><path class="za220-2" d="M10,25H8v1h2Z"/><path class="za220-2" d="M9,31V27H8v6H9V31Z"/><path class="za220-3" d="M7,30v1H8V29H7Z"/><path class="za220-3" d="M7,32v1H8V32Z"/><path class="za220-3" d="M8,28V27H7v1Z"/><rect class="za220-2" x="7" y="26" width="1" height="1"/><path class="za220-2" d="M7,31V27H6v6H7V31Z"/><path class="za220-5" d="M12,32V31H11V30H10v1H9v1h1v1h1V32Z"/><path class="za220-5" d="M13,28V27H12v1H11v1h1v1h1V29h1V28Z"/><polygon class="za220-5" points="10 27 11 27 11 26 11 25 10 25 10 26 10 27"/><path class="za220-5" d="M15,25v1h1V25Z"/><path class="za220-5" d="M13,25v1h1V25Z"/><path class="za220-5" d="M17,30V29h1V28H17V27H16v1H15v1h1v1Z"/><polygon class="za220-5" points="18 26 18 27 19 27 19 26 19 25 18 25 18 26"/><path class="za220-5" d="M7,29H8V28H7Z"/><path class="za220-5" d="M10,29V28H9v1Z"/><path class="za220-5" d="M21,29h1V28H21Z"/><path class="za220-5" d="M19,29h1V28H19Z"/><path class="za220-5" d="M21,32h1V31H21Z"/><path class="za220-5" d="M7,32H8V31H7Z"/><polygon class="za220-5" points="16 32 16 31 15 31 14 31 13 31 13 32 14 32 15 32 16 32"/><path class="za220-5" d="M20,32V31H19V30H18v1H17v1h1v1h1V32Z"/><polygon class="za220-2" points="20 15 20 16 21 16 21 15 21 15 21 15 20 15"/><rect class="za220-4" x="18" y="13" width="1"/><path class="za220-4" d="M13,21v1h3V21h1V20h1V19h1V16H16V15H15V14H14v1H13v1H10v3h1v1h1v1Zm1-4V16h1v1H14Zm-1,2h3V18h1v1H16v1H13Z"/><rect class="za220-4" x="11" y="10" width="1" height="1"/><rect class="za220-4" x="10" y="13" width="1" height="1"/><rect class="za220-4" x="10" y="11" width="1" height="1"/><rect class="za220-4" x="9" y="15" width="1" height="1"/><path class="za220-4" d="M18,12V10H17v1H16v1H15V10H14v1H13v1H12v1h4V12Z"/><polygon class="za220-4" points="19 16 20 16 20 15 19 15 19 16 19 16 19 16"/><path class="za220-2" d="M19,16h0v3h1V16H19Z"/><polygon class="za220-2" points="18 19 18 20 19 20 19 19 19 19 18 19"/><polygon class="za220-2" points="17 20 17 21 18 21 18 20 17 20 17 20"/><rect class="za220-2" x="11" y="10" width="1"/><rect class="za220-2" x="14" y="10" width="1"/><rect class="za220-2" x="17" y="10" width="1"/><polygon class="za220-2" points="11 20 11 21 12 21 12 20 11 20"/><rect class="za220-2" x="10" y="11" width="1"/><polygon class="za220-2" points="10 19 10 20 11 20 11 19 10 19"/><path class="za220-2" d="M10,16H9v3h1V16Z"/><polygon class="za220-2" points="15 16 15 16 14 16 14 17 15 17 15 16"/><path class="za220-6" d="M10,15v1h1V15Z"/><path class="za220-6" d="M18,15v1h1V15Z"/><rect class="za220-7" x="18" y="13" width="1" height="1"/><path class="za220-7" d="M16,12v1h2V12Z"/><rect class="za220-7" x="10" y="13" width="1"/><rect class="za220-7" x="11" y="12" width="1" height="1"/><rect class="za220-2" x="13" y="19" width="3" height="1"/><rect class="za220-2" x="16" y="18" width="1" height="1"/><polygon class="za220-8" points="20 15 21 15 21 15 21 14 20 14 20 15 20 15"/><path class="za220-8" d="M10,13h1V12H10V11h1V10h1v1H11v1h2V11h1V10h1v2h1V11h1V10h1v3h1v1h1V13h1V12H20V11h1V9H19V8H18V7H17V6H16V7H15V8H14V7H13V6H12V8H11V7H10V8H8V9H9v1H8v1H9v1H8v2h2Z"/><rect class="za220-8" x="19" y="7" width="1" height="1"/><path class="za220-2" d="M10,15h1v1h2V15h1V14h1v1h1v1h2V15h2V14H18V13H11v1H9v1H8v1H9V15Z"/></svg>