<svg xmlns="http://www.w3.org/2000/svg" viewBox="0 0 29 33"><defs><style>polygon,rect,path{shape-rendering:crispedges;}.bb221-1{fill:#6b4f99;}.bb221-2{fill:#000000;}.bb221-3{fill:#6f7032;}.bb221-4{fill:#ffffff;}.bb221-5{fill:#efcaaf;}.bb221-6{fill:#326b43;}.bb221-7{fill:#326b43;}.bb221-8{fill:#db5800;}.bb221-9{fill:#0068ff;}.bb221-10{fill:#ff1f4a;}</style></defs><path class="bb221-1" d="M0,33H6V27H7V26H8V25h2V24h1V23h1V21H11V20H10V19H9V16H8V15H9V10h1V9h1V8h7V9h1v2h1v4h1v1H20v3H19v1H18v1H17v2h1v1h1v1h2v1h1v1h1v6h6V0H0Z"/><path class="bb221-2" d="M23,27H22v6h1V27Z"/><path class="bb221-3" d="M22,27H21v6h1V27Z"/><rect class="bb221-2" x="21" y="26" width="1" height="1"/><path class="bb221-2" d="M21,27H20v6h1V27Z"/><path class="bb221-3" d="M20,27h1V26H19V25H18v4H17v4h3V27Z"/><path class="bb221-2" d="M20,26h1V25H19v1Z"/><path class="bb221-2" d="M17,29H16v4h1V29Z"/><rect class="bb221-4" x="16" y="24" width="1" height="1"/><path class="bb221-4" d="M16,29h1V26H16V25H13v1H12v3h1v4h1V32h1v1h1V29Zm-1,2H14V30h1Zm0-2H14V28h1Zm0-2H14V26h1Z"/><rect class="bb221-4" x="15" y="23" width="1" height="1"/><rect class="bb221-2" x="14" y="32" width="1" height="1"/><rect class="bb221-2" x="14" y="30" width="1" height="1"/><rect class="bb221-2" x="14" y="28" width="1" height="1"/><rect class="bb221-2" x="14" y="26" width="1" height="1"/><path class="bb221-2" d="M15,24V23H14v1H13v1h3V24Z"/><rect class="bb221-4" x="13" y="23" width="1" height="1"/><path class="bb221-2" d="M13,29H12v4h1V29Z"/><rect class="bb221-4" x="12" y="24" width="1" height="1"/><path class="bb221-3" d="M12,29H11V25H10v1H8v1H9v6h3V29Z"/><path class="bb221-2" d="M11,26v3h1V26h1V25H12V24h1V22H12v1H11v1H10v1h1Z"/><path class="bb221-2" d="M10,25H8v1h2Z"/><path class="bb221-2" d="M9,27H8v6H9V27Z"/><path class="bb221-3" d="M8,27H7v6H8V27Z"/><rect class="bb221-2" x="7" y="26" width="1" height="1"/><path class="bb221-2" d="M7,27H6v6H7V27Z"/><rect class="bb221-2" x="20" y="15" width="1" height="1"/><path class="bb221-2" d="M19,13h1V11H19v2Z"/><rect class="bb221-5" x="14" y="15" width="1" height="1"/><rect class="bb221-5" x="13" y="20" width="1" height="1"/><path class="bb221-5" d="M18,16H15v1H14V16H10v2h1v1h1V18h2v1h1V18h2v1h1V18h1V16Z"/><rect class="bb221-5" x="15" y="20" width="1" height="1"/><path class="bb221-5" d="M18,10H17v1H16V10H15v1H14V10H13v1H12V10H11v1H10v2h1V12h2v1h1v1h1V13h2V12h2V11H18Z"/><path class="bb221-2" d="M19,17h1V16H19Z"/><path class="bb221-2" d="M16,23v1h1v1H16v1h1v3h1V25h1V24H18V23H17V22H16Z"/><rect class="bb221-2" x="15" y="9" width="1" height="1"/><rect class="bb221-2" x="13" y="9" width="1" height="1"/><rect class="bb221-2" x="11" y="9" width="1" height="1"/><rect class="bb221-2" x="17" y="9" width="1" height="1"/><rect class="bb221-2" x="10" y="10" width="1" height="1"/><path class="bb221-2" d="M10,12V11H9v2h1Z"/><path class="bb221-2" d="M10,16H9v1h1Z"/><rect class="bb221-2" x="8" y="15" width="1" height="1"/><rect class="bb221-2" x="14" y="16" width="1" height="1"/><path class="bb221-6" d="M11,12v1h2V12Z"/><path class="bb221-6" d="M17,12v1h2V12Z"/><path class="bb221-7" d="M14,18H13v1h1Z"/><path class="bb221-7" d="M13,23h3V22h1V21h1V20h1V19h1V17H19v1H18v1H17V18H15v1h1v2H15V20H14v1H13V19H11V18H10V17H9v2h1v1h1v1h1v1h1Z"/><path class="bb221-2" d="M13,19v1h3V19H13Z"/><path class="bb221-2" d="M12,18v1h1V18Z"/><path class="bb221-8" d="M18,11h1V9H18v2Z"/><path class="bb221-8" d="M12,10v1h1V9h1v2h1V9h1v2h1V9h1V8H11V9h1Z"/><rect class="bb221-8" x="10" y="9" width="1" height="1"/><path class="bb221-8" d="M10,10H9v1h1Z"/><path class="bb221-4" d="M11,16h3V15h1v1h5V13H15v1H14V13H9v3h2Zm5-2h3v1H16Zm-6,0h3v1H10Z"/><path class="bb221-9" d="M19,15V14H16v1h3Z"/><path class="bb221-10" d="M13,15V14H10v1h3Z"/></svg>