<svg xmlns="http://www.w3.org/2000/svg" viewBox="0 0 29 33"><defs><style>polygon,rect,path{shape-rendering:crispedges;}.la7-1{fill:#d14646;}.la7-2{fill:#000000;}.la7-3{fill:#68aa7b;}.la7-4{fill:#316a6d;}.la7-5{fill:#ce8452;}.la7-6{fill:#ffffff;}.la7-7{fill:#316a6d;}.la7-8{fill:#d8be00;}.la7-9{fill:#474718;}.la7-10{fill:#6f7032;}</style></defs><path class="la7-1" d="M0,33H6V27H7V26H8V25h2V22H9V16H8V15H9V10h1V9h1V8h7V9h1v1h1v5h1v1H20v8H19v1h2v1h1v1h1v6h6V0H0Z"/><path class="la7-2" d="M23,27H22v6h1V27Z"/><rect class="la7-2" x="21" y="26" width="1" height="1"/><path class="la7-3" d="M21,28v2h1V27H21Z"/><path class="la7-3" d="M21,31v2h1V31Z"/><path class="la7-2" d="M21,30V27H20v6h1V30Z"/><path class="la7-2" d="M20,26h1V25H19v1Z"/><path class="la7-3" d="M20,32V26H19v1H18V25H17V24H16V23H13v1H12v2h1v1H12V26H11V25H10v1H9v6h1v1h4V32h1v1h4V32Zm-9-3H10V28h1Zm2,2H12V30h1Zm2-2H14V28h1Zm0-4H14V24h1Zm2,6H16V30h1Zm0-4H16V26h1Zm1,2V28h1v1Z"/><path class="la7-2" d="M10,26V25H8v1h2Z"/><path class="la7-2" d="M9,31V27H8v6H9V31Z"/><rect class="la7-2" x="7" y="26" width="1" height="1"/><path class="la7-3" d="M7,31v2H8V31Z"/><path class="la7-3" d="M7,30H8V27H7v3Z"/><path class="la7-2" d="M7,30V27H6v6H7V30Z"/><rect class="la7-4" x="10" y="28" width="1" height="1"/><rect class="la7-4" x="12" y="30" width="1" height="1"/><rect class="la7-4" x="14" y="28" width="1" height="1"/><rect class="la7-4" x="14" y="32" width="1" height="1"/><rect class="la7-4" x="12" y="26" width="1" height="1"/><rect class="la7-4" x="16" y="30" width="1" height="1"/><rect class="la7-4" x="18" y="28" width="1" height="1"/><rect class="la7-4" x="16" y="26" width="1" height="1"/><rect class="la7-4" x="14" y="24" width="1" height="1"/><path class="la7-4" d="M9,27V26H8v1Z"/><path class="la7-4" d="M19,32v1h1V32Z"/><path class="la7-4" d="M9,32v1h1V32Z"/><path class="la7-4" d="M7,31H8V30H7Z"/><path class="la7-4" d="M21,31h1V30H21Z"/><path class="la7-4" d="M20,27h1V26H20Z"/><rect class="la7-2" x="20" y="15" width="1" height="1"/><path class="la7-5" d="M18,14h1V13H17v1Z"/><path class="la7-5" d="M18,15H16V13H11v1h2v1H10v4h1v1h1v1h1v1h3V21h1V20h1V19h1V16h1V15H18Zm-4,1h1v1H14Zm2,4H13V19H12V18h1v1h3Z"/><path class="la7-2" d="M19,17v2h1V16H19Z"/><rect class="la7-2" x="18" y="19" width="1" height="1"/><rect class="la7-2" x="17" y="20" width="1" height="1"/><path class="la7-2" d="M17,21H16v1H13V21H12v3h1V23h3v1h1V21Z"/><rect class="la7-2" x="11" y="20" width="1" height="1"/><rect class="la7-2" x="10" y="19" width="1" height="1"/><path class="la7-2" d="M10,18V16H9v3h1Z"/><rect class="la7-2" x="8" y="15" width="1" height="1"/><rect class="la7-2" x="14" y="16" width="1" height="1"/><path class="la7-6" d="M13,15V14H12v1Z"/><path class="la7-6" d="M11,14H10v1h1Z"/><path class="la7-6" d="M18,15h1V14H18Z"/><path class="la7-6" d="M16,14v1h1V14Z"/><path class="la7-2" d="M12,15V14H11v1Z"/><path class="la7-2" d="M17,14v1h1V14Z"/><path class="la7-7" d="M17,14V13H16v1Z"/><rect class="la7-2" x="13" y="19" width="3" height="1"/><rect class="la7-2" x="12" y="18" width="1" height="1"/><path class="la7-8" d="M19,20H18v1H17v4h1v2h1V24h1V19H19Z"/><path class="la7-8" d="M19,14v1h1V13H19Z"/><path class="la7-8" d="M10,15V14h1V13H9v3h1Z"/><path class="la7-8" d="M11,26h1V21H11V20H10V19H9v3h1v3h1Z"/><path class="la7-9" d="M19,12v1h1V11H19Z"/><path class="la7-10" d="M10,12v1h1V11h1v2h1V11h1v2h1V11h1v2h1V11h1v2h1V11h1V10H19V9H18V8H11V9H10v1H9v1h1Z"/><path class="la7-9" d="M18,12V11H17v2h1Z"/><path class="la7-9" d="M16,12V11H15v2h1Z"/><path class="la7-9" d="M14,12V11H13v2h1Z"/><path class="la7-9" d="M12,12V11H11v2h1Z"/><path class="la7-9" d="M10,12V11H9v2h1Z"/></svg>