<svg xmlns="http://www.w3.org/2000/svg" viewBox="0 0 29 33"><defs><style>polygon,rect,path{shape-rendering:crispedges;}.fb82-1{fill:#e55b35;}.fb82-2{fill:#000000;}.fb82-3{fill:#333333;}.fb82-4{fill:#ffffff;}.fb82-5{fill:#a56e49;}.fb82-6{fill:#90a2a3;}.fb82-7{fill:#7f5018;}.fb82-8{fill:#a0688d;}.fb82-9{fill:#db5800;}.fb82-10{fill:#e5ac2e;}.fb82-11{fill:#ff1f4a;}.fb82-12{fill:#ffffff;}.fb82-13{fill:#fad000;}.fb82-14{fill:#00e070;}.fb82-15{fill:#ff1d99;}.fb82-16{fill:#10bcff;}.fb82-17{fill:#6e12ff;}.fb82-18{fill:#900;}.fb82-19{fill:#eaeaea;}.fb82-20{fill:#9b005c;}</style></defs><path class="fb82-1" d="M21,25V24H20v1Z"/><path class="fb82-1" d="M6,32V27H7V26H8V25H9V24h1V23h1V21H10V20H9V16H8V15H9V9h1v1h1V8h1V9h2V8H13V7h1V6h1V7h1V8H15V9h2V8h1v2h1V9h1v6h1v1H20v4H19v1H18v2h1v1h1V23h1V22h1v1h1v1H22v1h1v8h6V0H0V33H6Z"/><path class="fb82-2" d="M7,27H6v6H7V27Z"/><path class="fb82-3" d="M8,27H7v6H8V27Z"/><path class="fb82-2" d="M9,29h1V28h2V27H9V25H8v1H7v1H8v6H9V29Z"/><rect class="fb82-2" x="9" y="24" width="1" height="1"/><path class="fb82-3" d="M12,32V31H11V30H10V29H9v4h4V32Z"/><rect class="fb82-2" x="10" y="23" width="1" height="1"/><path class="fb82-3" d="M10,26v1h2v1H10v1h1v1h1v1h1V26H12V25H11V24H10v1H9v1Z"/><path class="fb82-2" d="M12,22H11v1h1Z"/><rect class="fb82-3" x="11" y="23" width="1" height="1"/><rect class="fb82-2" x="11" y="24" width="1" height="1"/><rect class="fb82-2" x="10" y="29" width="1" height="1"/><rect class="fb82-2" x="12" y="23" width="1" height="1"/><rect class="fb82-2" x="12" y="25" width="1" height="1"/><path class="fb82-4" d="M15,27H14v6h1V27Z"/><rect class="fb82-2" x="16" y="23" width="1" height="1"/><path class="fb82-5" d="M17,25V24H16V23H13v1H12v1h1v1h3V25Z"/><rect class="fb82-2" x="16" y="25" width="1" height="1"/><path class="fb82-3" d="M20,29H19v1H18v1H17v1H16v1h4V29Z"/><path class="fb82-2" d="M17,23h1V22H17Z"/><rect class="fb82-3" x="17" y="23" width="1" height="1"/><rect class="fb82-2" x="17" y="24" width="1" height="1"/><rect class="fb82-2" x="17" y="30" width="1" height="1"/><rect class="fb82-2" x="18" y="23" width="1" height="1"/><rect class="fb82-2" x="19" y="24" width="1" height="1"/><path class="fb82-3" d="M18,25H17v1H16v5h1V30h1V29h1V28H17V27h2V26h1V25H19V24H18Z"/><path class="fb82-2" d="M21,27V25H20v2H17v1h2v1h1v4h1V27Z"/><path class="fb82-3" d="M22,27H21v6h1V27Z"/><path class="fb82-2" d="M23,25H22v8h1V25Z"/><rect class="fb82-2" x="18" y="29" width="1" height="1"/><rect class="fb82-2" x="11" y="30" width="1" height="1"/><path class="fb82-2" d="M17,32V31H16V26H13v5H12v1h1v1h1V27h1v6h1V32Z"/><path class="fb82-6" d="M19,27h1V26H19Z"/><path class="fb82-6" d="M9,26v1h1V26Z"/><rect class="fb82-2" x="20" y="15" width="1" height="1"/><rect class="fb82-5" x="9" y="15" width="1" height="1"/><rect class="fb82-5" x="19" y="15" width="1" height="1"/><rect class="fb82-5" x="14" y="13" width="1" height="1"/><path class="fb82-5" d="M16,16V15H13v1H10v1h1v1h5v1h1V18h1V17h1V16H16Zm-1,1H14V16h1Z"/><rect class="fb82-2" x="8" y="15" width="1" height="1"/><rect class="fb82-2" x="14" y="16" width="1" height="1"/><path class="fb82-7" d="M15,18H13v1h3V18Z"/><path class="fb82-7" d="M12,23h5V22h1V21h1V20h1V16H19v1H18v1H17v1H16v1H13V19H12V18H11V17H10V16H9v4h1v1h1v1h1Z"/><rect class="fb82-2" x="13" y="19" width="3" height="1"/><path class="fb82-2" d="M12,18v1h1V18Z"/><path class="fb82-8" d="M19,14h1V13H19Z"/><path class="fb82-8" d="M10,13H9v1h1Z"/><path class="fb82-9" d="M13,16V15h1V14H10v2h3Z"/><path class="fb82-9" d="M19,14H15v1h1v1h3V14Z"/><path class="fb82-2" d="M15,13v1h4V13H15Z"/><path class="fb82-2" d="M14,14V13H10v1h4Z"/><path class="fb82-2" d="M19,15h1V14H19Z"/><path class="fb82-2" d="M10,14H9v1h1Z"/><path class="fb82-2" d="M14,15h1V14H14Z"/><rect class="fb82-1" x="17" y="10" width="1" height="1"/><rect class="fb82-10" x="12" y="11" width="1" height="1"/><rect class="fb82-10" x="16" y="11" width="1" height="1"/><rect class="fb82-1" x="11" y="10" width="1" height="1"/><rect class="fb82-11" x="14" y="11" width="1" height="1"/><rect class="fb82-11" x="13" y="10" width="1" height="1"/><path class="fb82-12" d="M12,8H11V9h1Z"/><path class="fb82-12" d="M13,10V9H12v1Z"/><path class="fb82-12" d="M17,10V9H16v1Z"/><rect class="fb82-12" x="18" y="10" width="1" height="1"/><rect class="fb82-12" x="10" y="10" width="1" height="1"/><path class="fb82-12" d="M10,9H9v1h1Z"/><path class="fb82-12" d="M18,8H17V9h1Z"/><rect class="fb82-13" x="16" y="10" width="1" height="1"/><rect class="fb82-13" x="12" y="10" width="1" height="1"/><rect class="fb82-14" x="11" y="11" width="1" height="1"/><path class="fb82-13" d="M12,9H11v1h1Z"/><path class="fb82-13" d="M18,10V9H17v1Z"/><path class="fb82-15" d="M10,11H9v1h1Z"/><rect class="fb82-16" x="17" y="11" width="1" height="1"/><path class="fb82-13" d="M14,13h5V11H18v1H16V11H15v1H14V11H13v1H11V11H10v2h4Z"/><path class="fb82-17" d="M19,12h1V11H19Z"/><path class="fb82-12" d="M20,9H19v1h1Z"/><rect class="fb82-11" x="15" y="10" width="1" height="1"/><rect class="fb82-11" x="14" y="9" width="1" height="1"/><rect class="fb82-18" x="14" y="10" width="1" height="1"/><path class="fb82-13" d="M14,10V9H13v1Z"/><path class="fb82-13" d="M16,10V9H15v1Z"/><rect class="fb82-19" x="14" y="7" width="1" height="1"/><rect class="fb82-12" x="14" y="8" width="1" height="1"/><rect class="fb82-12" x="13" y="7" width="1" height="1"/><rect class="fb82-12" x="15" y="7" width="1" height="1"/><rect class="fb82-12" x="14" y="6" width="1" height="1"/><path class="fb82-10" d="M10,12H9v1h1Z"/><path class="fb82-10" d="M19,13h1V12H19Z"/><path class="fb82-10" d="M20,11V10H19v1Z"/><path class="fb82-10" d="M10,10H9v1h1Z"/><path class="fb82-5" d="M21,26v1h1V25H21Z"/><rect class="fb82-15" x="21" y="22" width="1" height="1"/><rect class="fb82-15" x="20" y="23" width="1" height="1"/><rect class="fb82-15" x="22" y="23" width="1" height="1"/><path class="fb82-15" d="M21,24.125V25h1V24H21Z"/><rect class="fb82-20" x="21" y="23" width="1" height="1"/></svg>