<svg xmlns="http://www.w3.org/2000/svg" viewBox="0 0 29 33"><defs><style>polygon,rect,path{shape-rendering:crispedges;}.aa184-1{fill:#397d98;}.aa184-2{fill:#000000;}.aa184-3{fill:#ce8452;}.aa184-4{fill:#e2d93b;}.aa184-5{fill:#e2d93b;}.aa184-6{fill:#326b43;}.aa184-7{fill:#ffffff;}.aa184-8{fill:#326b43;}.aa184-9{fill:#38a6e8;}.aa184-10{fill:#c10f7e;}</style></defs><path class="aa184-1" d="M0,33H6V27H7V26H8V25h2V24h2V22H11V21H10V20H9V16H8V15H9V10h1V9h1V8h7V9h1v1h1v5h1v1H20v4H19v1h2v4h1v1h1v7h6V0H0Z"/><path class="aa184-1" d="M18,22H17v2h2v1h1V23H19V21H18Z"/><path class="aa184-2" d="M7,31V27H6v6H7Z"/><rect class="aa184-2" x="7" y="26" width="1" height="1"/><path class="aa184-3" d="M8,31V27H7v6H8Z"/><rect class="aa184-3" x="8" y="26" width="1" height="1"/><path class="aa184-2" d="M9,31V27H8v6H9Z"/><path class="aa184-2" d="M10,26V25H8v1Z"/><rect class="aa184-4" x="18" y="32" width="1" height="1"/><rect class="aa184-4" x="10" y="30" width="1" height="1"/><rect class="aa184-4" x="18" y="30" width="1" height="1"/><rect class="aa184-4" x="10" y="32" width="1" height="1"/><path class="aa184-4" d="M14,31v1h1V30H14Z"/><path class="aa184-4" d="M17,31V30h1V29h1v1h1V26H19V25H18v1H17v1H16v1H13V27H12V26H11V25H10v1H9v4h1V29h1v1h1v3h1V29h2v1h1v2H15v1h2Z"/><path class="aa184-2" d="M13,23V22H12v2h1Z"/><path class="aa184-2" d="M18,24H17v2h1V25h1V24Z"/><path class="aa184-2" d="M21,31V28H20v5h1Z"/><rect class="aa184-2" x="19" y="25" width="1" height="1"/><path class="aa184-3" d="M22,31V26H20v1h1v6h1Z"/><path class="aa184-2" d="M23,31V26H22v7h1Z"/><path class="aa184-2" d="M11,26h1V24H10v1h1Z"/><rect class="aa184-2" x="12" y="26" width="1" height="1"/><rect class="aa184-2" x="16" y="26" width="1" height="1"/><path class="aa184-2" d="M14,27H13v1h3V27Z"/><path class="aa184-3" d="M12,26h1v1h3V26h1V24H16V23H13v1H12Z"/><path class="aa184-5" d="M20,31V30H19v1H18V30H17v3h1V32h1v1h1Z"/><rect class="aa184-5" x="18" y="29" width="1" height="1"/><path class="aa184-5" d="M15,32h1V30H15Z"/><path class="aa184-5" d="M14,32V30h1V29H13v4h2V32Z"/><path class="aa184-5" d="M12,31V30H11v1H10V30H9v3h1V32h1v1h1Z"/><rect class="aa184-5" x="10" y="29" width="1" height="1"/><rect class="aa184-2" x="20" y="15" width="1" height="1"/><rect class="aa184-2" x="19" y="14" width="1" height="1"/><rect class="aa184-3" x="13" y="20" width="1" height="1"/><rect class="aa184-3" x="15" y="20" width="1" height="1"/><path class="aa184-3" d="M10,17v1h1v1h1V18h2v1h1V18h2v1h1V18h1V16h1V15H19V11H18V10H17v1H16V10H15v1H12V10H11v1H10v4H9v1h1Zm1-3h1V13h1V12h3v1h1v1h1v1H16v1H15v1H14V16H13V15H11Z"/><path class="aa184-2" d="M17,22H16v2h1Z"/><rect class="aa184-2" x="9" y="14" width="1" height="1"/><rect class="aa184-2" x="8" y="15" width="1" height="1"/><rect class="aa184-6" x="17" y="14" width="1" height="1"/><rect class="aa184-6" x="16" y="13" width="1" height="1"/><rect class="aa184-2" x="14" y="14" width="1" height="1"/><path class="aa184-7" d="M13,15v1h3V15h1V14H16V13H13v1H12v1Zm1-1h1v1H14Z"/><path class="aa184-6" d="M15,13h1V12H13v1Z"/><rect class="aa184-6" x="12" y="13" width="1" height="1"/><rect class="aa184-6" x="11" y="14" width="1" height="1"/><rect class="aa184-2" x="14" y="16" width="1" height="1"/><rect class="aa184-8" x="13" y="18" width="1" height="1"/><path class="aa184-8" d="M13,23h3V22h2V21h1V20h1V16H19v2H18v1H17V18H15v1h1v2H15V20H14v1H13V19H11V18H10V16H9v4h1v1h1v1h2Z"/><path class="aa184-2" d="M13,19v1h3V19Z"/><rect class="aa184-2" x="12" y="18" width="1" height="1"/><path class="aa184-9" d="M10,13V11h1V10h1v1h3V10h1v1h1V10h1v1h1v3h1V10H19V9H18V8H11V9H10v1H9v4h1Z"/><path class="aa184-10" d="M20,25v1h1V21H20Z"/><rect class="aa184-7" x="19" y="21" width="1" height="2"/><rect class="aa184-10" x="20" y="27" width="1" height="1"/><rect class="aa184-2" x="21" y="25" width="1" height="1"/></svg>